<?xml version="1.0" encoding="UTF-8" standalone="no"?>
<!DOCTYPE svg PUBLIC "-//W3C//DTD SVG 1.1//EN"
 "http://www.w3.org/Graphics/SVG/1.1/DTD/svg11.dtd">
<!-- Generated by graphviz version 2.40.1 (20161225.0304)
 -->
<!-- Title: eix Pages: 1 -->
<svg width="1015pt" height="452pt"
 viewBox="0.00 0.00 1015.00 452.00" xmlns="http://www.w3.org/2000/svg" xmlns:xlink="http://www.w3.org/1999/xlink">
<g id="graph0" class="graph" transform="scale(1 1) rotate(0) translate(4 448)">
<title>eix</title>
<!-- Node1 -->
<g id="node1" class="node">
<title>Node1</title>
<polygon fill="#bfbfbf" stroke="#000000" points="0,-384.5 0,-404.5 31,-404.5 31,-384.5 0,-384.5"/>
<text text-anchor="middle" x="15.5" y="-391.5" font-family="FreeSans" font-size="10.00" fill="#000000">eix</text>
</g>
<!-- Node2 -->
<g id="node2" class="node">
<title>Node2</title>
<g id="a_node2"><a xlink:href="../../d3/dd5/jewel-2_82_80_8f.html#a128c80a01e220038eb138a985885083a" target="_top" xlink:title="ei">
<polygon fill="none" stroke="#000000" points="134,-423.5 134,-443.5 163,-443.5 163,-423.5 134,-423.5"/>
<text text-anchor="middle" x="148.5" y="-430.5" font-family="FreeSans" font-size="10.00" fill="#000000">ei</text>
</a>
</g>
</g>
<!-- Node1&#45;&gt;Node2 -->
<g id="edge1" class="edge">
<title>Node1&#45;&gt;Node2</title>
<path fill="none" stroke="#191970" d="M31.0742,-401.2118C41.1857,-405.4032 54.7204,-410.7051 67,-414.5 85.902,-420.3415 107.7549,-425.3444 124.0712,-428.7481"/>
<polygon fill="#191970" stroke="#191970" points="123.4105,-432.1853 133.9072,-430.7466 124.8044,-425.3255 123.4105,-432.1853"/>
</g>
<!-- Node3 -->
<g id="node3" class="node">
<title>Node3</title>
<g id="a_node3"><a xlink:href="../../de/de0/matchedfilter_8C.html#ad37474ba23a5f0af2c619aeeaad07526" target="_top" xlink:title="go">
<polygon fill="none" stroke="#000000" points="134,-384.5 134,-404.5 163,-404.5 163,-384.5 134,-384.5"/>
<text text-anchor="middle" x="148.5" y="-391.5" font-family="FreeSans" font-size="10.00" fill="#000000">go</text>
</a>
</g>
</g>
<!-- Node1&#45;&gt;Node3 -->
<g id="edge2" class="edge">
<title>Node1&#45;&gt;Node3</title>
<path fill="none" stroke="#191970" d="M31.0171,-394.5C53.7824,-394.5 96.4694,-394.5 123.6393,-394.5"/>
<polygon fill="#191970" stroke="#191970" points="123.8932,-398.0001 133.8932,-394.5 123.8932,-391.0001 123.8932,-398.0001"/>
</g>
<!-- Node6 -->
<g id="node6" class="node">
<title>Node6</title>
<g id="a_node6"><a xlink:href="../../d3/df2/classgenfit_1_1GFRavePropagator.html#a0534e516b69488120356d8bfa53f6f5b" target="_top" xlink:title="genfit::GFRavePropagator::to">
<polygon fill="none" stroke="#000000" points="67,-345.5 67,-365.5 230,-365.5 230,-345.5 67,-345.5"/>
<text text-anchor="middle" x="148.5" y="-352.5" font-family="FreeSans" font-size="10.00" fill="#000000">genfit::GFRavePropagator::to</text>
</a>
</g>
</g>
<!-- Node1&#45;&gt;Node6 -->
<g id="edge5" class="edge">
<title>Node1&#45;&gt;Node6</title>
<path fill="none" stroke="#191970" d="M31.121,-388.2142C41.2511,-384.2683 54.789,-379.2378 67,-375.5 75.5023,-372.8975 84.5828,-370.3991 93.4826,-368.1032"/>
<polygon fill="#191970" stroke="#191970" points="94.571,-371.4384 103.4135,-365.6022 92.8615,-364.6504 94.571,-371.4384"/>
</g>
<!-- Node4 -->
<g id="node4" class="node">
<title>Node4</title>
<g id="a_node4"><a xlink:href="../../de/de0/matchedfilter_8C.html#a3f4d763c3fdd217c038a53ba4ca5b98a" target="_top" xlink:title="meanw">
<polygon fill="none" stroke="#000000" points="314.5,-423.5 314.5,-443.5 367.5,-443.5 367.5,-423.5 314.5,-423.5"/>
<text text-anchor="middle" x="341" y="-430.5" font-family="FreeSans" font-size="10.00" fill="#000000">meanw</text>
</a>
</g>
</g>
<!-- Node3&#45;&gt;Node4 -->
<g id="edge3" class="edge">
<title>Node3&#45;&gt;Node4</title>
<path fill="none" stroke="#191970" d="M163.2855,-397.4955C193.2162,-403.5594 261.7528,-417.4447 304.4302,-426.091"/>
<polygon fill="#191970" stroke="#191970" points="303.9273,-429.5602 314.4232,-428.1156 305.3173,-422.6996 303.9273,-429.5602"/>
</g>
<!-- Node5 -->
<g id="node5" class="node">
<title>Node5</title>
<g id="a_node5"><a xlink:href="../../de/de0/matchedfilter_8C.html#ac662fab4d6569f9ab320da1b95bcd663" target="_top" xlink:title="round">
<polygon fill="none" stroke="#000000" points="318.5,-384.5 318.5,-404.5 363.5,-404.5 363.5,-384.5 318.5,-384.5"/>
<text text-anchor="middle" x="341" y="-391.5" font-family="FreeSans" font-size="10.00" fill="#000000">round</text>
</a>
</g>
</g>
<!-- Node3&#45;&gt;Node5 -->
<g id="edge4" class="edge">
<title>Node3&#45;&gt;Node5</title>
<path fill="none" stroke="#191970" d="M163.2855,-394.5C194.1269,-394.5 265.9591,-394.5 308.252,-394.5"/>
<polygon fill="#191970" stroke="#191970" points="308.3251,-398.0001 318.3251,-394.5 308.325,-391.0001 308.3251,-398.0001"/>
</g>
<!-- Node7 -->
<g id="node7" class="node">
<title>Node7</title>
<g id="a_node7"><a xlink:href="../../dc/d22/namespacegenfit.html#aec5c8cb927a354edfb23af80108b69d4" target="_top" xlink:title="genfit::PlaneToGFDetPlane">
<polygon fill="none" stroke="#000000" points="266,-345.5 266,-365.5 416,-365.5 416,-345.5 266,-345.5"/>
<text text-anchor="middle" x="341" y="-352.5" font-family="FreeSans" font-size="10.00" fill="#000000">genfit::PlaneToGFDetPlane</text>
</a>
</g>
</g>
<!-- Node6&#45;&gt;Node7 -->
<g id="edge6" class="edge">
<title>Node6&#45;&gt;Node7</title>
<path fill="none" stroke="#191970" d="M230.1373,-355.5C238.681,-355.5 247.3819,-355.5 255.9623,-355.5"/>
<polygon fill="#191970" stroke="#191970" points="255.963,-359.0001 265.9629,-355.5 255.9629,-352.0001 255.963,-359.0001"/>
</g>
<!-- Node10 -->
<g id="node10" class="node">
<title>Node10</title>
<g id="a_node10"><a xlink:href="../../dc/d22/namespacegenfit.html#a16248965fc33843bb4f2d9bd8b0a7ce7" target="_top" xlink:title="genfit::GFTrackToTrack">
<polygon fill="none" stroke="#000000" points="276,-185.5 276,-205.5 406,-205.5 406,-185.5 276,-185.5"/>
<text text-anchor="middle" x="341" y="-192.5" font-family="FreeSans" font-size="10.00" fill="#000000">genfit::GFTrackToTrack</text>
</a>
</g>
</g>
<!-- Node6&#45;&gt;Node10 -->
<g id="edge9" class="edge">
<title>Node6&#45;&gt;Node10</title>
<path fill="none" stroke="#191970" d="M160.5417,-345.4913C192.8164,-318.6656 281.4971,-244.957 321.2586,-211.9085"/>
<polygon fill="#191970" stroke="#191970" points="323.5096,-214.5886 328.9628,-205.5049 319.0352,-209.2053 323.5096,-214.5886"/>
</g>
<!-- Node8 -->
<g id="node8" class="node">
<title>Node8</title>
<g id="a_node8"><a xlink:href="../../dc/d22/namespacegenfit.html#ad8550f9eaa6237f8ddf48aefd57dfe58" target="_top" xlink:title="genfit::Point3DToTVector3">
<polygon fill="none" stroke="#000000" points="463.5,-384.5 463.5,-404.5 610.5,-404.5 610.5,-384.5 463.5,-384.5"/>
<text text-anchor="middle" x="537" y="-391.5" font-family="FreeSans" font-size="10.00" fill="#000000">genfit::Point3DToTVector3</text>
</a>
</g>
</g>
<!-- Node7&#45;&gt;Node8 -->
<g id="edge7" class="edge">
<title>Node7&#45;&gt;Node8</title>
<path fill="none" stroke="#191970" d="M391.4749,-365.5435C417.5377,-370.7294 449.5178,-377.0928 476.8544,-382.5323"/>
<polygon fill="#191970" stroke="#191970" points="476.2054,-385.9717 486.6962,-384.4906 477.5715,-379.1062 476.2054,-385.9717"/>
</g>
<!-- Node9 -->
<g id="node9" class="node">
<title>Node9</title>
<g id="a_node9"><a xlink:href="../../dc/d22/namespacegenfit.html#ad3ecb92a152c9ea7f5290e3653910473" target="_top" xlink:title="genfit::Vector3DToTVector3">
<polygon fill="none" stroke="#000000" points="460,-345.5 460,-365.5 614,-365.5 614,-345.5 460,-345.5"/>
<text text-anchor="middle" x="537" y="-352.5" font-family="FreeSans" font-size="10.00" fill="#000000">genfit::Vector3DToTVector3</text>
</a>
</g>
</g>
<!-- Node7&#45;&gt;Node9 -->
<g id="edge8" class="edge">
<title>Node7&#45;&gt;Node9</title>
<path fill="none" stroke="#191970" d="M416.2182,-355.5C427.1284,-355.5 438.4374,-355.5 449.5627,-355.5"/>
<polygon fill="#191970" stroke="#191970" points="449.7115,-359.0001 459.7115,-355.5 449.7114,-352.0001 449.7115,-359.0001"/>
</g>
<!-- Node11 -->
<g id="node11" class="node">
<title>Node11</title>
<g id="a_node11"><a xlink:href="../../d6/d8a/classgenfit_1_1Track.html#ad06e7a012624bdb03960826b5c9fcd93" target="_top" xlink:title="Get FitStatus for a AbsTrackRep. Per default, return FitStatus for cardinalRep.">
<polygon fill="none" stroke="#000000" points="660,-370.5 660,-390.5 806,-390.5 806,-370.5 660,-370.5"/>
<text text-anchor="middle" x="733" y="-377.5" font-family="FreeSans" font-size="10.00" fill="#000000">genfit::Track::getFitStatus</text>
</a>
</g>
</g>
<!-- Node10&#45;&gt;Node11 -->
<g id="edge10" class="edge">
<title>Node10&#45;&gt;Node11</title>
<path fill="none" stroke="#191970" d="M348.953,-205.7466C365.6543,-226.5135 406.6037,-273.6152 452,-297.5 520.6023,-333.5944 547.9773,-313.4842 622,-336.5 636.809,-341.1046 672.2256,-355.3574 699.1018,-366.4073"/>
<polygon fill="#191970" stroke="#191970" points="697.984,-369.7322 708.5631,-370.3095 700.6531,-363.261 697.984,-369.7322"/>
</g>
<!-- Node13 -->
<g id="node13" class="node">
<title>Node13</title>
<g id="a_node13"><a xlink:href="../../d0/d8d/classgenfit_1_1FitStatus.html#a56371ce504bee72fcf2f9324ddcb91a8" target="_top" xlink:title="Did the fit converge (in all Points or only partially)?">
<polygon fill="none" stroke="#000000" points="486,-255.5 486,-287.5 588,-287.5 588,-255.5 486,-255.5"/>
<text text-anchor="start" x="494" y="-274.5" font-family="FreeSans" font-size="10.00" fill="#000000">genfit::FitStatus::</text>
<text text-anchor="middle" x="537" y="-262.5" font-family="FreeSans" font-size="10.00" fill="#000000">isFitConverged</text>
</a>
</g>
</g>
<!-- Node10&#45;&gt;Node13 -->
<g id="edge12" class="edge">
<title>Node10&#45;&gt;Node13</title>
<path fill="none" stroke="#191970" d="M360.6838,-205.5987C382.5913,-216.5878 419.2306,-234.2264 452,-246.5 459.7651,-249.4084 468.0288,-252.2004 476.237,-254.7961"/>
<polygon fill="#191970" stroke="#191970" points="475.2266,-258.1471 485.8139,-257.7484 477.2887,-251.4578 475.2266,-258.1471"/>
</g>
<!-- Node14 -->
<g id="node14" class="node">
<title>Node14</title>
<g id="a_node14"><a xlink:href="../../d6/d8a/classgenfit_1_1Track.html#abf156957d701a9a10a02fef8ac54e4d9" target="_top" xlink:title="Shortcut to get FittedStates.">
<polygon fill="none" stroke="#000000" points="472,-204.5 472,-236.5 602,-236.5 602,-204.5 472,-204.5"/>
<text text-anchor="start" x="480" y="-223.5" font-family="FreeSans" font-size="10.00" fill="#000000">genfit::Track::getFitted</text>
<text text-anchor="middle" x="537" y="-211.5" font-family="FreeSans" font-size="10.00" fill="#000000">State</text>
</a>
</g>
</g>
<!-- Node10&#45;&gt;Node14 -->
<g id="edge13" class="edge">
<title>Node10&#45;&gt;Node14</title>
<path fill="none" stroke="#191970" d="M406.2652,-203.8246C424.0237,-206.0898 443.4024,-208.5615 461.6693,-210.8915"/>
<polygon fill="#191970" stroke="#191970" points="461.3234,-214.3756 471.6859,-212.1691 462.2091,-207.4319 461.3234,-214.3756"/>
</g>
<!-- Node19 -->
<g id="node19" class="node">
<title>Node19</title>
<g id="a_node19"><a xlink:href="../../d2/d74/classgenfit_1_1MeasuredStateOnPlane.html#a3aab44a6c7155b8258fa34469bc45bc0" target="_top" xlink:title="genfit::MeasuredStateOnPlane\l::getPosMomCov">
<polygon fill="none" stroke="#000000" points="452,-153.5 452,-185.5 622,-185.5 622,-153.5 452,-153.5"/>
<text text-anchor="start" x="460" y="-172.5" font-family="FreeSans" font-size="10.00" fill="#000000">genfit::MeasuredStateOnPlane</text>
<text text-anchor="middle" x="537" y="-160.5" font-family="FreeSans" font-size="10.00" fill="#000000">::getPosMomCov</text>
</a>
</g>
</g>
<!-- Node10&#45;&gt;Node19 -->
<g id="edge21" class="edge">
<title>Node10&#45;&gt;Node19</title>
<path fill="none" stroke="#191970" d="M406.2652,-186.8424C417.6622,-185.3305 429.7266,-183.7301 441.7361,-182.137"/>
<polygon fill="#191970" stroke="#191970" points="442.3425,-185.5874 451.7954,-180.8027 441.4219,-178.6481 442.3425,-185.5874"/>
</g>
<!-- Node22 -->
<g id="node22" class="node">
<title>Node22</title>
<g id="a_node22"><a xlink:href="../../d0/d8d/classgenfit_1_1FitStatus.html#a7e8ed1d97eec3e3164dc2dd782f5cb85" target="_top" xlink:title="Get the fitted charge.">
<polygon fill="none" stroke="#000000" points="486,-102.5 486,-134.5 588,-134.5 588,-102.5 486,-102.5"/>
<text text-anchor="start" x="494" y="-121.5" font-family="FreeSans" font-size="10.00" fill="#000000">genfit::FitStatus::</text>
<text text-anchor="middle" x="537" y="-109.5" font-family="FreeSans" font-size="10.00" fill="#000000">getCharge</text>
</a>
</g>
</g>
<!-- Node10&#45;&gt;Node22 -->
<g id="edge24" class="edge">
<title>Node10&#45;&gt;Node22</title>
<path fill="none" stroke="#191970" d="M360.7091,-185.4683C382.6388,-174.5378 419.2973,-156.9503 452,-144.5 459.7744,-141.5402 468.0436,-138.6741 476.2545,-135.9934"/>
<polygon fill="#191970" stroke="#191970" points="477.3704,-139.3112 485.8334,-132.9371 475.2427,-132.6424 477.3704,-139.3112"/>
</g>
<!-- Node23 -->
<g id="node23" class="node">
<title>Node23</title>
<g id="a_node23"><a xlink:href="../../d0/d8d/classgenfit_1_1FitStatus.html#abbeeda61574c284f1d762088b3644770" target="_top" xlink:title="Get chi^2 of the fit.">
<polygon fill="none" stroke="#000000" points="486,-51.5 486,-83.5 588,-83.5 588,-51.5 486,-51.5"/>
<text text-anchor="start" x="494" y="-70.5" font-family="FreeSans" font-size="10.00" fill="#000000">genfit::FitStatus::</text>
<text text-anchor="middle" x="537" y="-58.5" font-family="FreeSans" font-size="10.00" fill="#000000">getChi2</text>
</a>
</g>
</g>
<!-- Node10&#45;&gt;Node23 -->
<g id="edge25" class="edge">
<title>Node10&#45;&gt;Node23</title>
<path fill="none" stroke="#191970" d="M349.3598,-185.2053C366.4898,-164.7668 407.7114,-118.8584 452,-93.5 459.4116,-89.2563 467.5913,-85.6323 475.8605,-82.5584"/>
<polygon fill="#191970" stroke="#191970" points="477.2631,-85.7768 485.5683,-79.1985 474.9736,-79.1618 477.2631,-85.7768"/>
</g>
<!-- Node24 -->
<g id="node24" class="node">
<title>Node24</title>
<g id="a_node24"><a xlink:href="../../d0/d8d/classgenfit_1_1FitStatus.html#aa73b3566657ea37bf8ab5102d465025d" target="_top" xlink:title="Get the degrees of freedom of the fit.">
<polygon fill="none" stroke="#000000" points="486,-.5 486,-32.5 588,-32.5 588,-.5 486,-.5"/>
<text text-anchor="start" x="494" y="-19.5" font-family="FreeSans" font-size="10.00" fill="#000000">genfit::FitStatus::</text>
<text text-anchor="middle" x="537" y="-7.5" font-family="FreeSans" font-size="10.00" fill="#000000">getNdf</text>
</a>
</g>
</g>
<!-- Node10&#45;&gt;Node24 -->
<g id="edge26" class="edge">
<title>Node10&#45;&gt;Node24</title>
<path fill="none" stroke="#191970" d="M345.3432,-185.4663C357.7433,-158.02 396.0549,-81.1159 452,-41.5 459.2966,-36.3331 467.6618,-32.2237 476.234,-28.9579"/>
<polygon fill="#191970" stroke="#191970" points="477.6347,-32.1776 485.9545,-25.6179 475.3599,-25.5575 477.6347,-32.1776"/>
</g>
<!-- Node12 -->
<g id="node12" class="node">
<title>Node12</title>
<g id="a_node12"><a xlink:href="../../d6/d8a/classgenfit_1_1Track.html#a402b35300e81a48c7f0b9eb082b1cf24" target="_top" xlink:title="Get cardinal track representation.">
<polygon fill="none" stroke="#000000" points="844,-308.5 844,-328.5 1007,-328.5 1007,-308.5 844,-308.5"/>
<text text-anchor="middle" x="925.5" y="-315.5" font-family="FreeSans" font-size="10.00" fill="#000000">genfit::Track::getCardinalRep</text>
</a>
</g>
</g>
<!-- Node11&#45;&gt;Node12 -->
<g id="edge11" class="edge">
<title>Node11&#45;&gt;Node12</title>
<path fill="none" stroke="#191970" d="M764.3569,-370.4006C797.0772,-359.8622 848.5259,-343.2917 884.4609,-331.7178"/>
<polygon fill="#191970" stroke="#191970" points="885.7111,-334.9923 894.1565,-328.595 883.565,-328.3293 885.7111,-334.9923"/>
</g>
<!-- Node14&#45;&gt;Node12 -->
<g id="edge14" class="edge">
<title>Node14&#45;&gt;Node12</title>
<path fill="none" stroke="#191970" d="M602.198,-234.1119C609.3616,-237.389 616.1618,-241.4551 622,-246.5 650.28,-270.9373 626.4172,-302.5134 658,-322.5 728.2009,-366.9253 830.8917,-347.318 886.4002,-331.4696"/>
<polygon fill="#191970" stroke="#191970" points="887.6015,-334.7642 896.1973,-328.5704 885.6151,-328.0519 887.6015,-334.7642"/>
</g>
<!-- Node15 -->
<g id="node15" class="node">
<title>Node15</title>
<g id="a_node15"><a xlink:href="../../d6/d8a/classgenfit_1_1Track.html#ad8961b1ff4809ccde5f6f100ffbccb9d" target="_top" xlink:title="genfit::Track::getPointWith\lFitterInfo">
<polygon fill="none" stroke="#000000" points="658,-280.5 658,-312.5 808,-312.5 808,-280.5 658,-280.5"/>
<text text-anchor="start" x="666" y="-299.5" font-family="FreeSans" font-size="10.00" fill="#000000">genfit::Track::getPointWith</text>
<text text-anchor="middle" x="733" y="-287.5" font-family="FreeSans" font-size="10.00" fill="#000000">FitterInfo</text>
</a>
</g>
</g>
<!-- Node14&#45;&gt;Node15 -->
<g id="edge15" class="edge">
<title>Node14&#45;&gt;Node15</title>
<path fill="none" stroke="#191970" d="M597.7944,-236.5607C606.0865,-239.4797 614.3645,-242.7936 622,-246.5 639.5241,-255.0066 640.5832,-262.7759 658,-271.5 661.5569,-273.2817 665.2698,-274.9803 669.0577,-276.592"/>
<polygon fill="#191970" stroke="#191970" points="667.998,-279.9381 678.582,-280.4166 670.6065,-273.4422 667.998,-279.9381"/>
</g>
<!-- Node16 -->
<g id="node16" class="node">
<title>Node16</title>
<g id="a_node16"><a xlink:href="../../d8/db3/classgenfit_1_1Exception.html#a13619975a1e1be5c1bd504b254e01f7a" target="_top" xlink:title="Set fatal flag.">
<polygon fill="none" stroke="#000000" points="679,-229.5 679,-261.5 787,-261.5 787,-229.5 679,-229.5"/>
<text text-anchor="start" x="687" y="-248.5" font-family="FreeSans" font-size="10.00" fill="#000000">genfit::Exception::</text>
<text text-anchor="middle" x="733" y="-236.5" font-family="FreeSans" font-size="10.00" fill="#000000">setFatal</text>
</a>
</g>
</g>
<!-- Node14&#45;&gt;Node16 -->
<g id="edge17" class="edge">
<title>Node14&#45;&gt;Node16</title>
<path fill="none" stroke="#191970" d="M602.2652,-228.8246C623.7033,-231.5591 647.5027,-234.5947 668.8569,-237.3185"/>
<polygon fill="#191970" stroke="#191970" points="668.437,-240.7932 678.7995,-238.5867 669.3227,-233.8494 668.437,-240.7932"/>
</g>
<!-- Node17 -->
<g id="node17" class="node">
<title>Node17</title>
<g id="a_node17"><a xlink:href="../../db/d40/classgenfit_1_1TrackPoint.html#ae8b3e743fb436dd6689e0dad4c35ffd9" target="_top" xlink:title="Get fitterInfo for rep. Per default, use cardinal rep.">
<polygon fill="none" stroke="#000000" points="681,-178.5 681,-210.5 785,-210.5 785,-178.5 681,-178.5"/>
<text text-anchor="start" x="689" y="-197.5" font-family="FreeSans" font-size="10.00" fill="#000000">genfit::TrackPoint</text>
<text text-anchor="middle" x="733" y="-185.5" font-family="FreeSans" font-size="10.00" fill="#000000">::getFitterInfo</text>
</a>
</g>
</g>
<!-- Node14&#45;&gt;Node17 -->
<g id="edge18" class="edge">
<title>Node14&#45;&gt;Node17</title>
<path fill="none" stroke="#191970" d="M602.2652,-211.8424C624.2802,-208.922 648.7851,-205.6714 670.5752,-202.7808"/>
<polygon fill="#191970" stroke="#191970" points="671.25,-206.2221 680.7029,-201.4374 670.3295,-199.2829 671.25,-206.2221"/>
</g>
<!-- Node18 -->
<g id="node18" class="node">
<title>Node18</title>
<g id="a_node18"><a xlink:href="../../d9/d8c/classgenfit_1_1AbsFitterInfo.html#a985d0203f46dfbd5dc253bb03b21d76f" target="_top" xlink:title="genfit::AbsFitterInfo\l::getFittedState">
<polygon fill="none" stroke="#000000" points="675,-127.5 675,-159.5 791,-159.5 791,-127.5 675,-127.5"/>
<text text-anchor="start" x="683" y="-146.5" font-family="FreeSans" font-size="10.00" fill="#000000">genfit::AbsFitterInfo</text>
<text text-anchor="middle" x="733" y="-134.5" font-family="FreeSans" font-size="10.00" fill="#000000">::getFittedState</text>
</a>
</g>
</g>
<!-- Node14&#45;&gt;Node18 -->
<g id="edge20" class="edge">
<title>Node14&#45;&gt;Node18</title>
<path fill="none" stroke="#191970" d="M600.575,-204.4043C607.9411,-201.7809 615.2322,-198.8175 622,-195.5 639.7219,-186.8129 640.4901,-178.6068 658,-169.5 662.0289,-167.4046 666.2634,-165.4178 670.5836,-163.5464"/>
<polygon fill="#191970" stroke="#191970" points="672.2042,-166.665 680.1321,-159.6366 669.5516,-160.187 672.2042,-166.665"/>
</g>
<!-- Node15&#45;&gt;Node12 -->
<g id="edge16" class="edge">
<title>Node15&#45;&gt;Node12</title>
<path fill="none" stroke="#191970" d="M808.2526,-305.1003C816.6656,-306.0618 825.3035,-307.049 833.8921,-308.0305"/>
<polygon fill="#191970" stroke="#191970" points="833.6024,-311.5201 843.9352,-309.1783 834.3973,-304.5654 833.6024,-311.5201"/>
</g>
<!-- Node17&#45;&gt;Node12 -->
<g id="edge19" class="edge">
<title>Node17&#45;&gt;Node12</title>
<path fill="none" stroke="#191970" d="M785.31,-209.8862C793.1221,-212.9617 800.9215,-216.4993 808,-220.5 847.7501,-242.9663 887.0939,-279.4452 908.656,-300.9905"/>
<polygon fill="#191970" stroke="#191970" points="906.25,-303.5354 915.7633,-308.199 911.2347,-298.6208 906.25,-303.5354"/>
</g>
<!-- Node20 -->
<g id="node20" class="node">
<title>Node20</title>
<g id="a_node20"><a xlink:href="../../de/dd5/classgenfit_1_1StateOnPlane.html#a14f25e4575846dcb14bd91ddb2a534d2" target="_top" xlink:title="genfit::StateOnPlane\l::getRep">
<polygon fill="none" stroke="#000000" points="672.5,-76.5 672.5,-108.5 793.5,-108.5 793.5,-76.5 672.5,-76.5"/>
<text text-anchor="start" x="680.5" y="-95.5" font-family="FreeSans" font-size="10.00" fill="#000000">genfit::StateOnPlane</text>
<text text-anchor="middle" x="733" y="-83.5" font-family="FreeSans" font-size="10.00" fill="#000000">::getRep</text>
</a>
</g>
</g>
<!-- Node19&#45;&gt;Node20 -->
<g id="edge22" class="edge">
<title>Node19&#45;&gt;Node20</title>
<path fill="none" stroke="#191970" d="M600.575,-153.4043C607.9411,-150.7809 615.2322,-147.8175 622,-144.5 639.7219,-135.8129 640.4901,-127.6068 658,-118.5 662.0289,-116.4046 666.2634,-114.4178 670.5836,-112.5464"/>
<polygon fill="#191970" stroke="#191970" points="672.2042,-115.665 680.1321,-108.6366 669.5516,-109.187 672.2042,-115.665"/>
</g>
<!-- Node21 -->
<g id="node21" class="node">
<title>Node21</title>
<g id="a_node21"><a xlink:href="../../d1/d25/classgenfit_1_1AbsTrackRep.html#ae6f4c4eeb3e4fbadcc930f53e2ca4ad7" target="_top" xlink:title="Translates MeasuredStateOnPlane into 3D position, momentum and 6x6 covariance.">
<polygon fill="none" stroke="#000000" points="674.5,-25.5 674.5,-57.5 791.5,-57.5 791.5,-25.5 674.5,-25.5"/>
<text text-anchor="start" x="682.5" y="-44.5" font-family="FreeSans" font-size="10.00" fill="#000000">genfit::AbsTrackRep</text>
<text text-anchor="middle" x="733" y="-32.5" font-family="FreeSans" font-size="10.00" fill="#000000">::getPosMomCov</text>
</a>
</g>
</g>
<!-- Node19&#45;&gt;Node21 -->
<g id="edge23" class="edge">
<title>Node19&#45;&gt;Node21</title>
<path fill="none" stroke="#191970" d="M608.9696,-153.4165C613.635,-150.8687 618.0414,-147.9178 622,-144.5 650.8996,-119.5482 629.5504,-91.9636 658,-66.5 660.3282,-64.4161 662.8355,-62.5052 665.4715,-60.7529"/>
<polygon fill="#191970" stroke="#191970" points="667.3539,-63.7076 674.267,-55.6789 663.856,-57.6442 667.3539,-63.7076"/>
</g>
</g>
</svg>
