<?xml version="1.0" encoding="UTF-8" standalone="no"?>
<!DOCTYPE svg PUBLIC "-//W3C//DTD SVG 1.1//EN"
 "http://www.w3.org/Graphics/SVG/1.1/DTD/svg11.dtd">
<!-- Generated by graphviz version 2.40.1 (20161225.0304)
 -->
<!-- Title: KFParticle/blob/master/KFParticlePerformance/KFPHistogram/KFPHistogram1D.h Pages: 1 -->
<svg width="404pt" height="215pt"
 viewBox="0.00 0.00 404.00 215.00" xmlns="http://www.w3.org/2000/svg" xmlns:xlink="http://www.w3.org/1999/xlink">
<g id="graph0" class="graph" transform="scale(1 1) rotate(0) translate(4 211)">
<title>KFParticle/blob/master/KFParticlePerformance/KFPHistogram/KFPHistogram1D.h</title>
<!-- Node1 -->
<g id="node1" class="node">
<title>Node1</title>
<polygon fill="#bfbfbf" stroke="#000000" points="96,-162.5 96,-206.5 285,-206.5 285,-162.5 96,-162.5"/>
<text text-anchor="start" x="104" y="-193.5" font-family="FreeSans" font-size="10.00" fill="#000000">KFParticle/blob/master</text>
<text text-anchor="start" x="104" y="-181.5" font-family="FreeSans" font-size="10.00" fill="#000000">/KFParticlePerformance</text>
<text text-anchor="middle" x="190.5" y="-169.5" font-family="FreeSans" font-size="10.00" fill="#000000">/KFPHistogram/KFPHistogram1D.h</text>
</g>
<!-- Node2 -->
<g id="node2" class="node">
<title>Node2</title>
<g id="a_node2"><a xlink:href="../../d4/dd5/KFPHistogramSet_8h.html" target="_top" xlink:title="KFParticle/blob/master\l/KFParticlePerformance\l/KFPHistogram/KFPHistogramSet.h">
<polygon fill="none" stroke="#000000" points="94.5,-81.5 94.5,-125.5 286.5,-125.5 286.5,-81.5 94.5,-81.5"/>
<text text-anchor="start" x="102.5" y="-112.5" font-family="FreeSans" font-size="10.00" fill="#000000">KFParticle/blob/master</text>
<text text-anchor="start" x="102.5" y="-100.5" font-family="FreeSans" font-size="10.00" fill="#000000">/KFParticlePerformance</text>
<text text-anchor="middle" x="190.5" y="-88.5" font-family="FreeSans" font-size="10.00" fill="#000000">/KFPHistogram/KFPHistogramSet.h</text>
</a>
</g>
</g>
<!-- Node1&#45;&gt;Node2 -->
<g id="edge1" class="edge">
<title>Node1&#45;&gt;Node2</title>
<path fill="none" stroke="#191970" d="M190.5,-152.2457C190.5,-143.3118 190.5,-133.8188 190.5,-125.6068"/>
<polygon fill="#191970" stroke="#191970" points="187.0001,-152.3664 190.5,-162.3664 194.0001,-152.3664 187.0001,-152.3664"/>
</g>
<!-- Node3 -->
<g id="node3" class="node">
<title>Node3</title>
<g id="a_node3"><a xlink:href="../../d4/d59/KFPHistogram_8h.html" target="_top" xlink:title="KFParticle/blob/master\l/KFParticlePerformance\l/KFPHistogram/KFPHistogram.h">
<polygon fill="none" stroke="#000000" points="0,-.5 0,-44.5 175,-44.5 175,-.5 0,-.5"/>
<text text-anchor="start" x="8" y="-31.5" font-family="FreeSans" font-size="10.00" fill="#000000">KFParticle/blob/master</text>
<text text-anchor="start" x="8" y="-19.5" font-family="FreeSans" font-size="10.00" fill="#000000">/KFParticlePerformance</text>
<text text-anchor="middle" x="87.5" y="-7.5" font-family="FreeSans" font-size="10.00" fill="#000000">/KFPHistogram/KFPHistogram.h</text>
</a>
</g>
</g>
<!-- Node2&#45;&gt;Node3 -->
<g id="edge2" class="edge">
<title>Node2&#45;&gt;Node3</title>
<path fill="none" stroke="#191970" d="M154.252,-74.9943C141.5688,-65.0201 127.5291,-53.9792 115.6112,-44.6068"/>
<polygon fill="#191970" stroke="#191970" points="152.3307,-77.936 162.3548,-81.3664 156.6578,-72.4336 152.3307,-77.936"/>
</g>
<!-- Node4 -->
<g id="node4" class="node">
<title>Node4</title>
<g id="a_node4"><a xlink:href="../../dd/db5/KFPHistogramSet_8cxx.html" target="_top" xlink:title="KFParticle/blob/master\l/KFParticlePerformance\l/KFPHistogram/KFPHistogramSet.cxx">
<polygon fill="none" stroke="#000000" points="193,-.5 193,-44.5 396,-44.5 396,-.5 193,-.5"/>
<text text-anchor="start" x="201" y="-31.5" font-family="FreeSans" font-size="10.00" fill="#000000">KFParticle/blob/master</text>
<text text-anchor="start" x="201" y="-19.5" font-family="FreeSans" font-size="10.00" fill="#000000">/KFParticlePerformance</text>
<text text-anchor="middle" x="294.5" y="-7.5" font-family="FreeSans" font-size="10.00" fill="#000000">/KFPHistogram/KFPHistogramSet.cxx</text>
</a>
</g>
</g>
<!-- Node2&#45;&gt;Node4 -->
<g id="edge3" class="edge">
<title>Node2&#45;&gt;Node4</title>
<path fill="none" stroke="#191970" d="M227.0999,-74.9943C239.9062,-65.0201 254.0823,-53.9792 266.1159,-44.6068"/>
<polygon fill="#191970" stroke="#191970" points="224.6573,-72.4604 218.9185,-81.3664 228.9586,-77.983 224.6573,-72.4604"/>
</g>
</g>
</svg>
