<?xml version="1.0" encoding="UTF-8" standalone="no"?>
<!DOCTYPE svg PUBLIC "-//W3C//DTD SVG 1.1//EN"
 "http://www.w3.org/Graphics/SVG/1.1/DTD/svg11.dtd">
<!-- Generated by graphviz version 2.40.1 (20161225.0304)
 -->
<!-- Title: genfit::TrackCand::swap Pages: 1 -->
<svg width="405pt" height="29pt"
 viewBox="0.00 0.00 405.00 29.00" xmlns="http://www.w3.org/2000/svg" xmlns:xlink="http://www.w3.org/1999/xlink">
<g id="graph0" class="graph" transform="scale(1 1) rotate(0) translate(4 25)">
<title>genfit::TrackCand::swap</title>
<!-- Node1 -->
<g id="node1" class="node">
<title>Node1</title>
<polygon fill="#bfbfbf" stroke="#000000" points="0,-.5 0,-20.5 138,-20.5 138,-.5 0,-.5"/>
<text text-anchor="middle" x="69" y="-7.5" font-family="FreeSans" font-size="10.00" fill="#000000">genfit::TrackCand::swap</text>
</g>
<!-- Node2 -->
<g id="node2" class="node">
<title>Node2</title>
<g id="a_node2"><a xlink:href="../../d4/da9/namespaceboost.html#a630945877437d477612e4419562161cc" target="_top" xlink:title="boost::swap">
<polygon fill="none" stroke="#000000" points="174,-.5 174,-20.5 251,-20.5 251,-.5 174,-.5"/>
<text text-anchor="middle" x="212.5" y="-7.5" font-family="FreeSans" font-size="10.00" fill="#000000">boost::swap</text>
</a>
</g>
</g>
<!-- Node1&#45;&gt;Node2 -->
<g id="edge1" class="edge">
<title>Node1&#45;&gt;Node2</title>
<path fill="none" stroke="#191970" d="M138.228,-10.5C146.7949,-10.5 155.4099,-10.5 163.5835,-10.5"/>
<polygon fill="#191970" stroke="#191970" points="163.6639,-14.0001 173.6639,-10.5 163.6638,-7.0001 163.6639,-14.0001"/>
</g>
<!-- Node3 -->
<g id="node3" class="node">
<title>Node3</title>
<g id="a_node3"><a xlink:href="../../d1/d96/classboost_1_1array.html#a342ef866ed696b18ce803b5c9aba4b2e" target="_top" xlink:title="boost::array::swap">
<polygon fill="none" stroke="#000000" points="287,-.5 287,-20.5 397,-20.5 397,-.5 287,-.5"/>
<text text-anchor="middle" x="342" y="-7.5" font-family="FreeSans" font-size="10.00" fill="#000000">boost::array::swap</text>
</a>
</g>
</g>
<!-- Node2&#45;&gt;Node3 -->
<g id="edge2" class="edge">
<title>Node2&#45;&gt;Node3</title>
<path fill="none" stroke="#191970" d="M251.0036,-4.2692C259.0418,-3.9335 267.7295,-3.7606 276.4369,-3.7505"/>
<polygon fill="#191970" stroke="#191970" points="276.6084,-7.2515 286.6298,-3.8134 276.6517,-.2516 276.6084,-7.2515"/>
</g>
<!-- Node3&#45;&gt;Node2 -->
<g id="edge3" class="edge">
<title>Node3&#45;&gt;Node2</title>
<path fill="none" stroke="#191970" d="M286.6298,-17.1866C278.1911,-17.3014 269.5353,-17.2603 261.252,-17.0634"/>
<polygon fill="#191970" stroke="#191970" points="261.112,-13.5571 251.0036,-16.7308 260.8848,-20.5535 261.112,-13.5571"/>
</g>
</g>
</svg>
