<?xml version="1.0" encoding="UTF-8" standalone="no"?>
<!DOCTYPE svg PUBLIC "-//W3C//DTD SVG 1.1//EN"
 "http://www.w3.org/Graphics/SVG/1.1/DTD/svg11.dtd">
<!-- Generated by graphviz version 2.40.1 (20161225.0304)
 -->
<!-- Title: genfit::TrackCand::append Pages: 1 -->
<svg width="431pt" height="194pt"
 viewBox="0.00 0.00 431.00 194.00" xmlns="http://www.w3.org/2000/svg" xmlns:xlink="http://www.w3.org/1999/xlink">
<g id="graph0" class="graph" transform="scale(1 1) rotate(0) translate(4 190)">
<title>genfit::TrackCand::append</title>
<!-- Node1 -->
<g id="node1" class="node">
<title>Node1</title>
<polygon fill="#bfbfbf" stroke="#000000" points="0,-76.5 0,-108.5 111,-108.5 111,-76.5 0,-76.5"/>
<text text-anchor="start" x="8" y="-95.5" font-family="FreeSans" font-size="10.00" fill="#000000">genfit::TrackCand::</text>
<text text-anchor="middle" x="55.5" y="-83.5" font-family="FreeSans" font-size="10.00" fill="#000000">append</text>
</g>
<!-- Node2 -->
<g id="node2" class="node">
<title>Node2</title>
<g id="a_node2"><a xlink:href="../../d3/da2/classgenfit_1_1TrackCand.html#a1d8d9a483d2df76d12bc83380aed3103" target="_top" xlink:title="genfit::TrackCand::\laddHit">
<polygon fill="none" stroke="#000000" points="151.5,-153.5 151.5,-185.5 262.5,-185.5 262.5,-153.5 151.5,-153.5"/>
<text text-anchor="start" x="159.5" y="-172.5" font-family="FreeSans" font-size="10.00" fill="#000000">genfit::TrackCand::</text>
<text text-anchor="middle" x="207" y="-160.5" font-family="FreeSans" font-size="10.00" fill="#000000">addHit</text>
</a>
</g>
</g>
<!-- Node1&#45;&gt;Node2 -->
<g id="edge1" class="edge">
<title>Node1&#45;&gt;Node2</title>
<path fill="none" stroke="#191970" d="M81.8626,-108.6198C99.899,-119.364 124.5235,-133.4816 147,-144.5 150.3375,-146.1361 153.8093,-147.765 157.3258,-149.3615"/>
<polygon fill="#191970" stroke="#191970" points="156.1152,-152.653 166.6766,-153.4946 158.9452,-146.2506 156.1152,-152.653"/>
</g>
<!-- Node3 -->
<g id="node3" class="node">
<title>Node3</title>
<g id="a_node3"><a xlink:href="../../da/df3/classgenfit_1_1TrackCandHit.html#ab9da5d5ebd99d480264c184e9d0767ee" target="_top" xlink:title="genfit::TrackCandHit\l::clone">
<polygon fill="none" stroke="#000000" points="147,-102.5 147,-134.5 267,-134.5 267,-102.5 147,-102.5"/>
<text text-anchor="start" x="155" y="-121.5" font-family="FreeSans" font-size="10.00" fill="#000000">genfit::TrackCandHit</text>
<text text-anchor="middle" x="207" y="-109.5" font-family="FreeSans" font-size="10.00" fill="#000000">::clone</text>
</a>
</g>
</g>
<!-- Node1&#45;&gt;Node3 -->
<g id="edge2" class="edge">
<title>Node1&#45;&gt;Node3</title>
<path fill="none" stroke="#191970" d="M111.0527,-102.0338C119.4291,-103.4713 128.1608,-104.9698 136.796,-106.4518"/>
<polygon fill="#191970" stroke="#191970" points="136.4134,-109.9372 146.8614,-108.1792 137.5975,-103.0381 136.4134,-109.9372"/>
</g>
<!-- Node5 -->
<g id="node5" class="node">
<title>Node5</title>
<g id="a_node5"><a xlink:href="../../d3/da2/classgenfit_1_1TrackCand.html#a1fb7b38c1330027174fd8f428b6df722" target="_top" xlink:title="genfit::TrackCand::\lgetHit">
<polygon fill="none" stroke="#000000" points="151.5,-51.5 151.5,-83.5 262.5,-83.5 262.5,-51.5 151.5,-51.5"/>
<text text-anchor="start" x="159.5" y="-70.5" font-family="FreeSans" font-size="10.00" fill="#000000">genfit::TrackCand::</text>
<text text-anchor="middle" x="207" y="-58.5" font-family="FreeSans" font-size="10.00" fill="#000000">getHit</text>
</a>
</g>
</g>
<!-- Node1&#45;&gt;Node5 -->
<g id="edge4" class="edge">
<title>Node1&#45;&gt;Node5</title>
<path fill="none" stroke="#191970" d="M111.0527,-83.3329C120.9333,-81.7024 131.3085,-79.9904 141.4362,-78.3191"/>
<polygon fill="#191970" stroke="#191970" points="142.1573,-81.7475 151.454,-76.666 141.0175,-74.8409 142.1573,-81.7475"/>
</g>
<!-- Node6 -->
<g id="node6" class="node">
<title>Node6</title>
<g id="a_node6"><a xlink:href="../../d3/da2/classgenfit_1_1TrackCand.html#a534f583ec510c377579d5c3ddac00e91" target="_top" xlink:title="genfit::TrackCand::\lgetNHits">
<polygon fill="none" stroke="#000000" points="151.5,-.5 151.5,-32.5 262.5,-32.5 262.5,-.5 151.5,-.5"/>
<text text-anchor="start" x="159.5" y="-19.5" font-family="FreeSans" font-size="10.00" fill="#000000">genfit::TrackCand::</text>
<text text-anchor="middle" x="207" y="-7.5" font-family="FreeSans" font-size="10.00" fill="#000000">getNHits</text>
</a>
</g>
</g>
<!-- Node1&#45;&gt;Node6 -->
<g id="edge5" class="edge">
<title>Node1&#45;&gt;Node6</title>
<path fill="none" stroke="#191970" d="M83.5895,-76.2844C101.516,-66.1528 125.3681,-53.07 147,-42.5 150.8441,-40.6216 154.8568,-38.7328 158.9051,-36.8774"/>
<polygon fill="#191970" stroke="#191970" points="160.668,-39.9223 168.3531,-32.6291 157.7973,-33.538 160.668,-39.9223"/>
</g>
<!-- Node4 -->
<g id="node4" class="node">
<title>Node4</title>
<g id="a_node4"><a xlink:href="../../da/df3/classgenfit_1_1TrackCandHit.html#a2aa465817344b2e3749eb3ed4026f3e8" target="_top" xlink:title="genfit::TrackCandHit\l::TrackCandHit">
<polygon fill="none" stroke="#000000" points="303,-102.5 303,-134.5 423,-134.5 423,-102.5 303,-102.5"/>
<text text-anchor="start" x="311" y="-121.5" font-family="FreeSans" font-size="10.00" fill="#000000">genfit::TrackCandHit</text>
<text text-anchor="middle" x="363" y="-109.5" font-family="FreeSans" font-size="10.00" fill="#000000">::TrackCandHit</text>
</a>
</g>
</g>
<!-- Node3&#45;&gt;Node4 -->
<g id="edge3" class="edge">
<title>Node3&#45;&gt;Node4</title>
<path fill="none" stroke="#191970" d="M267.3137,-118.5C275.6036,-118.5 284.1748,-118.5 292.6255,-118.5"/>
<polygon fill="#191970" stroke="#191970" points="292.8468,-122.0001 302.8467,-118.5 292.8467,-115.0001 292.8468,-122.0001"/>
</g>
</g>
</svg>
