<?xml version="1.0" encoding="UTF-8" standalone="no"?>
<!DOCTYPE svg PUBLIC "-//W3C//DTD SVG 1.1//EN"
 "http://www.w3.org/Graphics/SVG/1.1/DTD/svg11.dtd">
<!-- Generated by graphviz version 2.40.1 (20161225.0304)
 -->
<!-- Title: genfit::TrackCand::getNHits Pages: 1 -->
<svg width="689pt" height="221pt"
 viewBox="0.00 0.00 689.00 221.00" xmlns="http://www.w3.org/2000/svg" xmlns:xlink="http://www.w3.org/1999/xlink">
<g id="graph0" class="graph" transform="scale(1 1) rotate(0) translate(4 217)">
<title>genfit::TrackCand::getNHits</title>
<!-- Node1 -->
<g id="node1" class="node">
<title>Node1</title>
<polygon fill="#bfbfbf" stroke="#000000" points="0,-84.5 0,-116.5 111,-116.5 111,-84.5 0,-84.5"/>
<text text-anchor="start" x="8" y="-103.5" font-family="FreeSans" font-size="10.00" fill="#000000">genfit::TrackCand::</text>
<text text-anchor="middle" x="55.5" y="-91.5" font-family="FreeSans" font-size="10.00" fill="#000000">getNHits</text>
</g>
<!-- Node2 -->
<g id="node2" class="node">
<title>Node2</title>
<g id="a_node2"><a xlink:href="../../d3/da2/classgenfit_1_1TrackCand.html#a05e07d528b66fb1c26e1c964e41f9ae7" target="_top" xlink:title="Clone the TrackCandHit objects from the other TrackCand and append them to this TrackCand.">
<polygon fill="none" stroke="#000000" points="170.5,-180.5 170.5,-212.5 281.5,-212.5 281.5,-180.5 170.5,-180.5"/>
<text text-anchor="start" x="178.5" y="-199.5" font-family="FreeSans" font-size="10.00" fill="#000000">genfit::TrackCand::</text>
<text text-anchor="middle" x="226" y="-187.5" font-family="FreeSans" font-size="10.00" fill="#000000">append</text>
</a>
</g>
</g>
<!-- Node1&#45;&gt;Node2 -->
<g id="edge1" class="edge">
<title>Node1&#45;&gt;Node2</title>
<path fill="none" stroke="#191970" d="M79.9533,-123.3813C97.4918,-138.7701 122.2957,-158.5381 147,-171.5 154.2611,-175.3097 162.2052,-178.6623 170.1682,-181.5725"/>
<polygon fill="#191970" stroke="#191970" points="82.2211,-120.7139 72.4328,-116.6591 77.5561,-125.9329 82.2211,-120.7139"/>
</g>
<!-- Node3 -->
<g id="node3" class="node">
<title>Node3</title>
<g id="a_node3"><a xlink:href="../../d9/d01/classgenfit_1_1MeasurementFactory.html#a4c9c345ba6ee88d392df28996fff7038" target="_top" xlink:title="Create a collection of Measurements.">
<polygon fill="none" stroke="#000000" points="147,-129.5 147,-161.5 305,-161.5 305,-129.5 147,-129.5"/>
<text text-anchor="start" x="155" y="-148.5" font-family="FreeSans" font-size="10.00" fill="#000000">genfit::MeasurementFactory</text>
<text text-anchor="middle" x="226" y="-136.5" font-family="FreeSans" font-size="10.00" fill="#000000">::createMany</text>
</a>
</g>
</g>
<!-- Node1&#45;&gt;Node3 -->
<g id="edge2" class="edge">
<title>Node1&#45;&gt;Node3</title>
<path fill="none" stroke="#191970" d="M121.224,-117.8465C135.7342,-121.6762 151.0419,-125.7163 165.3404,-129.4901"/>
<polygon fill="#191970" stroke="#191970" points="121.8902,-114.4025 111.3281,-115.2347 120.1038,-121.1708 121.8902,-114.4025"/>
</g>
<!-- Node4 -->
<g id="node4" class="node">
<title>Node4</title>
<g id="a_node4"><a xlink:href="../../d6/d8a/classgenfit_1_1Track.html#a73f9e05be44d2d677b4293f57d5fb004" target="_top" xlink:title="genfit::Track::createMeasurements">
<polygon fill="none" stroke="#000000" points="341,-112.5 341,-132.5 533,-132.5 533,-112.5 341,-112.5"/>
<text text-anchor="middle" x="437" y="-119.5" font-family="FreeSans" font-size="10.00" fill="#000000">genfit::Track::createMeasurements</text>
</a>
</g>
</g>
<!-- Node1&#45;&gt;Node4 -->
<g id="edge5" class="edge">
<title>Node1&#45;&gt;Node4</title>
<path fill="none" stroke="#191970" d="M121.5643,-104.3097C182.0111,-107.7955 272.1876,-112.9957 340.6607,-116.9444"/>
<polygon fill="#191970" stroke="#191970" points="121.5669,-100.8042 111.3819,-103.7225 121.1638,-107.7926 121.5669,-100.8042"/>
</g>
<!-- Node6 -->
<g id="node6" class="node">
<title>Node6</title>
<g id="a_node6"><a xlink:href="../../dc/d22/namespacegenfit.html#aeda2b0bccd00aa0af6350682e1439bf3" target="_top" xlink:title="genfit::operator==">
<polygon fill="none" stroke="#000000" points="170,-51.5 170,-71.5 282,-71.5 282,-51.5 170,-51.5"/>
<text text-anchor="middle" x="226" y="-58.5" font-family="FreeSans" font-size="10.00" fill="#000000">genfit::operator==</text>
</a>
</g>
</g>
<!-- Node1&#45;&gt;Node6 -->
<g id="edge6" class="edge">
<title>Node1&#45;&gt;Node6</title>
<path fill="none" stroke="#191970" d="M121.2099,-85.4696C141.6435,-80.7956 163.6601,-75.7596 182.2131,-71.5158"/>
<polygon fill="#191970" stroke="#191970" points="120.2959,-82.0882 111.3281,-87.7299 121.8568,-88.9119 120.2959,-82.0882"/>
</g>
<!-- Node7 -->
<g id="node7" class="node">
<title>Node7</title>
<g id="a_node7"><a xlink:href="../../d3/da2/classgenfit_1_1TrackCand.html#a38f018fbe4823584a0b6a0779abf23fc" target="_top" xlink:title="genfit::TrackCand::\lsortHits">
<polygon fill="none" stroke="#000000" points="170.5,-.5 170.5,-32.5 281.5,-32.5 281.5,-.5 170.5,-.5"/>
<text text-anchor="start" x="178.5" y="-19.5" font-family="FreeSans" font-size="10.00" fill="#000000">genfit::TrackCand::</text>
<text text-anchor="middle" x="226" y="-7.5" font-family="FreeSans" font-size="10.00" fill="#000000">sortHits</text>
</a>
</g>
</g>
<!-- Node1&#45;&gt;Node7 -->
<g id="edge7" class="edge">
<title>Node1&#45;&gt;Node7</title>
<path fill="none" stroke="#191970" d="M86.0855,-78.4222C103.3662,-66.6489 125.7133,-52.5592 147,-42.5 154.7023,-38.8602 163.0505,-35.5171 171.3377,-32.5273"/>
<polygon fill="#191970" stroke="#191970" points="83.7742,-75.7653 77.5431,-84.3341 87.7577,-81.5213 83.7742,-75.7653"/>
</g>
<!-- Node3&#45;&gt;Node4 -->
<g id="edge3" class="edge">
<title>Node3&#45;&gt;Node4</title>
<path fill="none" stroke="#191970" d="M315.3068,-135.7651C325.1156,-134.6959 335.1158,-133.6059 344.9571,-132.5331"/>
<polygon fill="#191970" stroke="#191970" points="314.7307,-132.3071 305.1689,-136.8702 315.4893,-139.2659 314.7307,-132.3071"/>
</g>
<!-- Node5 -->
<g id="node5" class="node">
<title>Node5</title>
<g id="a_node5"><a xlink:href="../../d6/d8a/classgenfit_1_1Track.html#a9b8776fee4ae9f578ab16a30ebcb4ac8" target="_top" xlink:title="genfit::Track::Track">
<polygon fill="none" stroke="#000000" points="569,-112.5 569,-132.5 681,-132.5 681,-112.5 569,-112.5"/>
<text text-anchor="middle" x="625" y="-119.5" font-family="FreeSans" font-size="10.00" fill="#000000">genfit::Track::Track</text>
</a>
</g>
</g>
<!-- Node4&#45;&gt;Node5 -->
<g id="edge4" class="edge">
<title>Node4&#45;&gt;Node5</title>
<path fill="none" stroke="#191970" d="M543.4633,-122.5C552.1624,-122.5 560.7166,-122.5 568.8206,-122.5"/>
<polygon fill="#191970" stroke="#191970" points="543.203,-119.0001 533.2029,-122.5 543.2029,-126.0001 543.203,-119.0001"/>
</g>
</g>
</svg>
