<?xml version="1.0" encoding="UTF-8" standalone="no"?>
<!DOCTYPE svg PUBLIC "-//W3C//DTD SVG 1.1//EN"
 "http://www.w3.org/Graphics/SVG/1.1/DTD/svg11.dtd">
<!-- Generated by graphviz version 2.40.1 (20161225.0304)
 -->
<!-- Title: genfit::TrackCand::setTime6DSeedAndPdgCode Pages: 1 -->
<svg width="488pt" height="41pt"
 viewBox="0.00 0.00 488.00 41.00" xmlns="http://www.w3.org/2000/svg" xmlns:xlink="http://www.w3.org/1999/xlink">
<g id="graph0" class="graph" transform="scale(1 1) rotate(0) translate(4 37)">
<title>genfit::TrackCand::setTime6DSeedAndPdgCode</title>
<!-- Node1 -->
<g id="node1" class="node">
<title>Node1</title>
<polygon fill="#bfbfbf" stroke="#000000" points="0,-.5 0,-32.5 161,-32.5 161,-.5 0,-.5"/>
<text text-anchor="start" x="8" y="-19.5" font-family="FreeSans" font-size="10.00" fill="#000000">genfit::TrackCand::</text>
<text text-anchor="middle" x="80.5" y="-7.5" font-family="FreeSans" font-size="10.00" fill="#000000">setTime6DSeedAndPdgCode</text>
</g>
<!-- Node2 -->
<g id="node2" class="node">
<title>Node2</title>
<g id="a_node2"><a xlink:href="../../d3/da2/classgenfit_1_1TrackCand.html#ab71bcc50a1b6980134546424604c8679" target="_top" xlink:title="This function works the same as set6DSeed but instead of a charge hypothesis you can set a pdg code w...">
<polygon fill="none" stroke="#000000" points="197,-.5 197,-32.5 333,-32.5 333,-.5 197,-.5"/>
<text text-anchor="start" x="205" y="-19.5" font-family="FreeSans" font-size="10.00" fill="#000000">genfit::TrackCand::</text>
<text text-anchor="middle" x="265" y="-7.5" font-family="FreeSans" font-size="10.00" fill="#000000">set6DSeedAndPdgCode</text>
</a>
</g>
</g>
<!-- Node1&#45;&gt;Node2 -->
<g id="edge1" class="edge">
<title>Node1&#45;&gt;Node2</title>
<path fill="none" stroke="#191970" d="M161.156,-16.5C169.6351,-16.5 178.247,-16.5 186.699,-16.5"/>
<polygon fill="#191970" stroke="#191970" points="186.9097,-20.0001 196.9096,-16.5 186.9096,-13.0001 186.9097,-20.0001"/>
</g>
<!-- Node3 -->
<g id="node3" class="node">
<title>Node3</title>
<g id="a_node3"><a xlink:href="../../d3/da2/classgenfit_1_1TrackCand.html#ad5c3293cea3ccf42bcb2257299a9b803" target="_top" xlink:title="Set a particle hypothesis in form of a PDG code. This will also set the charge attribute.">
<polygon fill="none" stroke="#000000" points="369,-.5 369,-32.5 480,-32.5 480,-.5 369,-.5"/>
<text text-anchor="start" x="377" y="-19.5" font-family="FreeSans" font-size="10.00" fill="#000000">genfit::TrackCand::</text>
<text text-anchor="middle" x="424.5" y="-7.5" font-family="FreeSans" font-size="10.00" fill="#000000">setPdgCode</text>
</a>
</g>
</g>
<!-- Node2&#45;&gt;Node3 -->
<g id="edge2" class="edge">
<title>Node2&#45;&gt;Node3</title>
<path fill="none" stroke="#191970" d="M333.105,-16.5C341.5324,-16.5 350.1372,-16.5 358.5318,-16.5"/>
<polygon fill="#191970" stroke="#191970" points="358.6412,-20.0001 368.6411,-16.5 358.6411,-13.0001 358.6412,-20.0001"/>
</g>
</g>
</svg>
