<?xml version="1.0" encoding="UTF-8" standalone="no"?>
<!DOCTYPE svg PUBLIC "-//W3C//DTD SVG 1.1//EN"
 "http://www.w3.org/Graphics/SVG/1.1/DTD/svg11.dtd">
<!-- Generated by graphviz version 2.40.1 (20161225.0304)
 -->
<!-- Title: genfit::TrackCand::setTimePosMomSeedAndPdgCode Pages: 1 -->
<svg width="543pt" height="41pt"
 viewBox="0.00 0.00 543.00 41.00" xmlns="http://www.w3.org/2000/svg" xmlns:xlink="http://www.w3.org/1999/xlink">
<g id="graph0" class="graph" transform="scale(1 1) rotate(0) translate(4 37)">
<title>genfit::TrackCand::setTimePosMomSeedAndPdgCode</title>
<!-- Node1 -->
<g id="node1" class="node">
<title>Node1</title>
<polygon fill="#bfbfbf" stroke="#000000" points="0,-.5 0,-32.5 188,-32.5 188,-.5 0,-.5"/>
<text text-anchor="start" x="8" y="-19.5" font-family="FreeSans" font-size="10.00" fill="#000000">genfit::TrackCand::</text>
<text text-anchor="middle" x="94" y="-7.5" font-family="FreeSans" font-size="10.00" fill="#000000">setTimePosMomSeedAndPdgCode</text>
</g>
<!-- Node2 -->
<g id="node2" class="node">
<title>Node2</title>
<g id="a_node2"><a xlink:href="../../d3/da2/classgenfit_1_1TrackCand.html#ad13b659b223ae8f2515e3316de2f88f9" target="_top" xlink:title="This function works the same as setPosMomSeed but instead of a charge hypothesis you can set a pdg co...">
<polygon fill="none" stroke="#000000" points="224,-.5 224,-32.5 388,-32.5 388,-.5 224,-.5"/>
<text text-anchor="start" x="232" y="-19.5" font-family="FreeSans" font-size="10.00" fill="#000000">genfit::TrackCand::</text>
<text text-anchor="middle" x="306" y="-7.5" font-family="FreeSans" font-size="10.00" fill="#000000">setPosMomSeedAndPdgCode</text>
</a>
</g>
</g>
<!-- Node1&#45;&gt;Node2 -->
<g id="edge1" class="edge">
<title>Node1&#45;&gt;Node2</title>
<path fill="none" stroke="#191970" d="M188.2209,-16.5C196.6332,-16.5 205.1457,-16.5 213.5429,-16.5"/>
<polygon fill="#191970" stroke="#191970" points="213.7141,-20.0001 223.714,-16.5 213.714,-13.0001 213.7141,-20.0001"/>
</g>
<!-- Node3 -->
<g id="node3" class="node">
<title>Node3</title>
<g id="a_node3"><a xlink:href="../../d3/da2/classgenfit_1_1TrackCand.html#ad5c3293cea3ccf42bcb2257299a9b803" target="_top" xlink:title="Set a particle hypothesis in form of a PDG code. This will also set the charge attribute.">
<polygon fill="none" stroke="#000000" points="424,-.5 424,-32.5 535,-32.5 535,-.5 424,-.5"/>
<text text-anchor="start" x="432" y="-19.5" font-family="FreeSans" font-size="10.00" fill="#000000">genfit::TrackCand::</text>
<text text-anchor="middle" x="479.5" y="-7.5" font-family="FreeSans" font-size="10.00" fill="#000000">setPdgCode</text>
</a>
</g>
</g>
<!-- Node2&#45;&gt;Node3 -->
<g id="edge2" class="edge">
<title>Node2&#45;&gt;Node3</title>
<path fill="none" stroke="#191970" d="M388.1772,-16.5C396.7703,-16.5 405.4233,-16.5 413.7979,-16.5"/>
<polygon fill="#191970" stroke="#191970" points="413.8522,-20.0001 423.8521,-16.5 413.8521,-13.0001 413.8522,-20.0001"/>
</g>
</g>
</svg>
