<?xml version="1.0" encoding="UTF-8" standalone="no"?>
<!DOCTYPE svg PUBLIC "-//W3C//DTD SVG 1.1//EN"
 "http://www.w3.org/Graphics/SVG/1.1/DTD/svg11.dtd">
<!-- Generated by graphviz version 2.40.1 (20161225.0304)
 -->
<!-- Title: pyonia Pages: 1 -->
<svg width="1231pt" height="3010pt"
 viewBox="0.00 0.00 1231.00 3010.00" xmlns="http://www.w3.org/2000/svg" xmlns:xlink="http://www.w3.org/1999/xlink">
<g id="graph0" class="graph" transform="scale(1 1) rotate(0) translate(4 3006)">
<title>pyonia</title>
<!-- Node1 -->
<g id="node1" class="node">
<title>Node1</title>
<polygon fill="#bfbfbf" stroke="#000000" points="0,-1652 0,-1672 50,-1672 50,-1652 0,-1652"/>
<text text-anchor="middle" x="25" y="-1659" font-family="FreeSans" font-size="10.00" fill="#000000">pyonia</text>
</g>
<!-- Node2 -->
<g id="node2" class="node">
<title>Node2</title>
<g id="a_node2"><a xlink:href="../../d6/dcf/pythia6425mod_8f.html#a2b9b48d65354953ca74e6e3571daf5d4" target="_top" xlink:title="py2ent">
<polygon fill="none" stroke="#000000" points="86,-1875 86,-1895 138,-1895 138,-1875 86,-1875"/>
<text text-anchor="middle" x="112" y="-1882" font-family="FreeSans" font-size="10.00" fill="#000000">py2ent</text>
</a>
</g>
</g>
<!-- Node1&#45;&gt;Node2 -->
<g id="edge1" class="edge">
<title>Node1&#45;&gt;Node2</title>
<path fill="none" stroke="#191970" d="M28.9643,-1672.1613C42.4103,-1706.6264 86.4367,-1819.4756 104.3328,-1865.3474"/>
<polygon fill="#191970" stroke="#191970" points="101.1172,-1866.735 108.0124,-1874.779 107.6385,-1864.1908 101.1172,-1866.735"/>
</g>
<!-- Node3 -->
<g id="node3" class="node">
<title>Node3</title>
<g id="a_node3"><a xlink:href="../../d6/dcf/pythia6425mod_8f.html#a8a7efe2037220dc632000fb06895ebca" target="_top" xlink:title="pyerrm">
<polygon fill="none" stroke="#000000" points="767.5,-1632 767.5,-1652 819.5,-1652 819.5,-1632 767.5,-1632"/>
<text text-anchor="middle" x="793.5" y="-1639" font-family="FreeSans" font-size="10.00" fill="#000000">pyerrm</text>
</a>
</g>
</g>
<!-- Node1&#45;&gt;Node3 -->
<g id="edge165" class="edge">
<title>Node1&#45;&gt;Node3</title>
<path fill="none" stroke="#191970" d="M25.1815,-1672.0268C26.912,-1764.1416 41.4214,-2464.502 86,-2669 115.9377,-2806.3352 59.4396,-2964 200,-2964 200,-2964 200,-2964 503,-2964 624.867,-2964 664.2796,-2906.3308 722,-2799 777.9738,-2694.917 791.4255,-1807.7898 793.2634,-1662.1834"/>
<polygon fill="#191970" stroke="#191970" points="796.7651,-1662.0577 793.3878,-1652.0156 789.7657,-1661.972 796.7651,-1662.0577"/>
</g>
<!-- Node4 -->
<g id="node4" class="node">
<title>Node4</title>
<g id="a_node4"><a xlink:href="../../d6/dcf/pythia6425mod_8f.html#acc54128638bbd93cf630e1576f91d443" target="_top" xlink:title="pylist">
<polygon fill="none" stroke="#000000" points="868.5,-1192 868.5,-1212 912.5,-1212 912.5,-1192 868.5,-1192"/>
<text text-anchor="middle" x="890.5" y="-1199" font-family="FreeSans" font-size="10.00" fill="#000000">pylist</text>
</a>
</g>
</g>
<!-- Node1&#45;&gt;Node4 -->
<g id="edge167" class="edge">
<title>Node1&#45;&gt;Node4</title>
<path fill="none" stroke="#191970" d="M25.0591,-1651.9582C25.9565,-1520.9458 39.1814,-152 200,-152 200,-152 200,-152 662.5,-152 701.0137,-152 702.6244,-181.715 722,-215 923.5499,-561.2386 800.4774,-709.601 865,-1105 869.4278,-1132.1338 878.0938,-1162.6956 884.0859,-1182.1354"/>
<polygon fill="#191970" stroke="#191970" points="880.8321,-1183.4556 887.1742,-1191.9425 887.5088,-1181.353 880.8321,-1183.4556"/>
</g>
<!-- Node16 -->
<g id="node16" class="node">
<title>Node16</title>
<g id="a_node16"><a xlink:href="../../d6/dcf/pythia6425mod_8f.html#ac28b7ef95cee2881a46f71d3a88d05ac" target="_top" xlink:title="pyr">
<polygon fill="none" stroke="#000000" points="1163,-1270 1163,-1290 1196,-1290 1196,-1270 1163,-1270"/>
<text text-anchor="middle" x="1179.5" y="-1277" font-family="FreeSans" font-size="10.00" fill="#000000">pyr</text>
</a>
</g>
</g>
<!-- Node1&#45;&gt;Node16 -->
<g id="edge169" class="edge">
<title>Node1&#45;&gt;Node16</title>
<path fill="none" stroke="#191970" d="M25.2036,-1651.8558C27.6308,-1532.4498 51.5522,-396.4943 86,-252 114.5072,-132.4239 77.0727,0 200,0 200,0 200,0 980.5,0 1047.2573,0 1069.4468,-31.6447 1100,-91 1159.4751,-206.5415 1064.2071,-1151.6814 1136,-1260 1140.0109,-1266.0515 1146.3487,-1270.3018 1152.9585,-1273.2756"/>
<polygon fill="#191970" stroke="#191970" points="1152.0041,-1276.6526 1162.5982,-1276.7801 1154.3959,-1270.0739 1152.0041,-1276.6526"/>
</g>
<!-- Node17 -->
<g id="node17" class="node">
<title>Node17</title>
<g id="a_node17"><a xlink:href="../../d6/dcf/pythia6425mod_8f.html#a018da81d5f23cd9c6d55f5151fb0f541" target="_top" xlink:title="pyexec">
<polygon fill="none" stroke="#000000" points="174,-1256 174,-1276 226,-1276 226,-1256 174,-1256"/>
<text text-anchor="middle" x="200" y="-1263" font-family="FreeSans" font-size="10.00" fill="#000000">pyexec</text>
</a>
</g>
</g>
<!-- Node1&#45;&gt;Node17 -->
<g id="edge166" class="edge">
<title>Node1&#45;&gt;Node17</title>
<path fill="none" stroke="#191970" d="M29.5017,-1651.8132C52.8079,-1599.0747 159.8862,-1356.7719 191.3085,-1285.6675"/>
<polygon fill="#191970" stroke="#191970" points="194.6872,-1286.6808 195.528,-1276.1194 188.2846,-1283.8513 194.6872,-1286.6808"/>
</g>
<!-- Node20 -->
<g id="node20" class="node">
<title>Node20</title>
<g id="a_node20"><a xlink:href="../../d6/dcf/pythia6425mod_8f.html#a98ffa3df00dbe1c8a9944e3453e44580" target="_top" xlink:title="pyrobo">
<polygon fill="none" stroke="#000000" points="637,-1575 637,-1595 688,-1595 688,-1575 637,-1575"/>
<text text-anchor="middle" x="662.5" y="-1582" font-family="FreeSans" font-size="10.00" fill="#000000">pyrobo</text>
</a>
</g>
</g>
<!-- Node1&#45;&gt;Node20 -->
<g id="edge170" class="edge">
<title>Node1&#45;&gt;Node20</title>
<path fill="none" stroke="#191970" d="M25.3168,-1672.2354C27.6652,-1729.14 46.931,-2004 200,-2004 200,-2004 200,-2004 375.5,-2004 473.584,-2004 617.9533,-1687.5296 654.0739,-1604.6647"/>
<polygon fill="#191970" stroke="#191970" points="657.3422,-1605.9249 658.1024,-1595.3574 650.9181,-1603.1443 657.3422,-1605.9249"/>
</g>
<!-- Node32 -->
<g id="node32" class="node">
<title>Node32</title>
<g id="a_node32"><a xlink:href="../../d6/dcf/pythia6425mod_8f.html#aa2fbdb46f28af53ae4a8988b1f8246eb" target="_top" xlink:title="pyprep">
<polygon fill="none" stroke="#000000" points="349.5,-318 349.5,-338 401.5,-338 401.5,-318 349.5,-318"/>
<text text-anchor="middle" x="375.5" y="-325" font-family="FreeSans" font-size="10.00" fill="#000000">pyprep</text>
</a>
</g>
</g>
<!-- Node1&#45;&gt;Node32 -->
<g id="edge168" class="edge">
<title>Node1&#45;&gt;Node32</title>
<path fill="none" stroke="#191970" d="M26.5597,-1651.954C33.188,-1609.4562 59.8761,-1440.2818 86,-1302 157.1314,-925.4799 91.3174,-801.0663 262,-458 285.3623,-411.0425 329.8457,-367.5177 355.6407,-344.688"/>
<polygon fill="#191970" stroke="#191970" points="358.056,-347.226 363.3085,-338.0249 353.4645,-341.9422 358.056,-347.226"/>
</g>
<!-- Node39 -->
<g id="node39" class="node">
<title>Node39</title>
<g id="a_node39"><a xlink:href="../../d6/dcf/pythia6425mod_8f.html#a29c95baea28af87f8639a7f77a68edc5" target="_top" xlink:title="pyalps">
<polygon fill="none" stroke="#000000" points="637.5,-2725 637.5,-2745 687.5,-2745 687.5,-2725 637.5,-2725"/>
<text text-anchor="middle" x="662.5" y="-2732" font-family="FreeSans" font-size="10.00" fill="#000000">pyalps</text>
</a>
</g>
</g>
<!-- Node1&#45;&gt;Node39 -->
<g id="edge164" class="edge">
<title>Node1&#45;&gt;Node39</title>
<path fill="none" stroke="#191970" d="M25.3334,-1672.2306C29.3063,-1790.1624 69.7878,-2888 200,-2888 200,-2888 200,-2888 375.5,-2888 465.6699,-2888 489.4219,-2866.9593 567,-2821 598.7454,-2802.1932 629.3292,-2771.7959 647.0044,-2752.6312"/>
<polygon fill="#191970" stroke="#191970" points="649.6399,-2754.9351 653.755,-2745.172 644.4498,-2750.238 649.6399,-2754.9351"/>
</g>
<!-- Node46 -->
<g id="node46" class="node">
<title>Node46</title>
<g id="a_node46"><a xlink:href="../../d6/dcf/pythia6425mod_8f.html#a236783c5902cb61da4d1d5ce4491e2fe" target="_top" xlink:title="py3ent">
<polygon fill="none" stroke="#000000" points="349.5,-1060 349.5,-1080 401.5,-1080 401.5,-1060 349.5,-1060"/>
<text text-anchor="middle" x="375.5" y="-1067" font-family="FreeSans" font-size="10.00" fill="#000000">py3ent</text>
</a>
</g>
</g>
<!-- Node1&#45;&gt;Node46 -->
<g id="edge163" class="edge">
<title>Node1&#45;&gt;Node46</title>
<path fill="none" stroke="#191970" d="M26.5809,-1651.7698C32.102,-1617.287 52.0569,-1502.4687 86,-1413 115.7594,-1334.559 129.6571,-1317.2202 174,-1246 209.1461,-1189.5511 210.9964,-1167.6657 262,-1125 285.0275,-1105.7369 315.9461,-1091.3311 339.6978,-1082.1052"/>
<polygon fill="#191970" stroke="#191970" points="340.9357,-1085.379 349.0676,-1078.5876 338.4754,-1078.8256 340.9357,-1085.379"/>
</g>
<!-- Node47 -->
<g id="node47" class="node">
<title>Node47</title>
<g id="a_node47"><a xlink:href="../../d6/dcf/pythia6425mod_8f.html#a71b2257a4e5d19b7b94b70fee55bea56" target="_top" xlink:title="pyshow">
<polygon fill="none" stroke="#000000" points="348,-2146 348,-2166 403,-2166 403,-2146 348,-2146"/>
<text text-anchor="middle" x="375.5" y="-2153" font-family="FreeSans" font-size="10.00" fill="#000000">pyshow</text>
</a>
</g>
</g>
<!-- Node1&#45;&gt;Node47 -->
<g id="edge171" class="edge">
<title>Node1&#45;&gt;Node47</title>
<path fill="none" stroke="#191970" d="M34.4198,-1672.1976C64.2773,-1704.7597 158.7994,-1809.6929 226,-1905 284.1759,-1987.5078 342.2633,-2093.4497 365.2311,-2136.5071"/>
<polygon fill="#191970" stroke="#191970" points="362.2803,-2138.4133 370.0598,-2145.6057 368.4635,-2135.1318 362.2803,-2138.4133"/>
</g>
<!-- Node2&#45;&gt;Node3 -->
<g id="edge2" class="edge">
<title>Node2&#45;&gt;Node3</title>
<path fill="none" stroke="#191970" d="M113.4397,-1895.2437C126.2207,-1984.9309 222.7309,-2636.7253 348,-2782 412.5622,-2856.8728 470.1854,-2841.0289 567,-2821 640.4931,-2805.7958 679.6081,-2815.93 722,-2754 781.9171,-2666.4675 744.3157,-1905.1891 758,-1800 764.5286,-1749.8158 779.4276,-1692.0885 787.698,-1662.2372"/>
<polygon fill="#191970" stroke="#191970" points="791.1729,-1662.8093 790.512,-1652.2351 784.4345,-1660.9135 791.1729,-1662.8093"/>
</g>
<!-- Node2&#45;&gt;Node4 -->
<g id="edge161" class="edge">
<title>Node2&#45;&gt;Node4</title>
<path fill="none" stroke="#191970" d="M112.2942,-1895.3031C115.6484,-2003.4182 150.853,-2926 375.5,-2926 375.5,-2926 375.5,-2926 503,-2926 615.5156,-2926 660.7911,-2893.4099 722,-2799 812.298,-2659.7224 880.4135,-1397.5233 889.4736,-1222.1794"/>
<polygon fill="#191970" stroke="#191970" points="892.9771,-1222.1985 889.9944,-1212.0322 885.9863,-1221.8397 892.9771,-1222.1985"/>
</g>
<!-- Node15 -->
<g id="node15" class="node">
<title>Node15</title>
<g id="a_node15"><a xlink:href="../../d6/dcf/pythia6425mod_8f.html#ad69903a1054f4f77d45fd8fe4c687aa9" target="_top" xlink:title="pymass">
<polygon fill="none" stroke="#000000" points="1045,-1037 1045,-1057 1100,-1057 1100,-1037 1045,-1037"/>
<text text-anchor="middle" x="1072.5" y="-1044" font-family="FreeSans" font-size="10.00" fill="#000000">pymass</text>
</a>
</g>
</g>
<!-- Node2&#45;&gt;Node15 -->
<g id="edge162" class="edge">
<title>Node2&#45;&gt;Node15</title>
<path fill="none" stroke="#191970" d="M133.6748,-1874.978C178.0488,-1855.4068 282.8758,-1814 375.5,-1814 375.5,-1814 375.5,-1814 503,-1814 663.0525,-1814 717.9954,-1776.3029 829,-1661 862.872,-1625.8164 991.9864,-1305.7792 1009,-1260 1034.8155,-1190.5374 1057.6338,-1105.4259 1067.424,-1067.2343"/>
<polygon fill="#191970" stroke="#191970" points="1070.8635,-1067.91 1069.9328,-1057.3561 1064.0788,-1066.1868 1070.8635,-1067.91"/>
</g>
<!-- Node2&#45;&gt;Node17 -->
<g id="edge18" class="edge">
<title>Node2&#45;&gt;Node17</title>
<path fill="none" stroke="#191970" d="M113.454,-1874.7725C123.5571,-1803.7066 183.298,-1383.4833 197.1383,-1286.1297"/>
<polygon fill="#191970" stroke="#191970" points="200.618,-1286.5191 198.5604,-1276.126 193.6877,-1285.5338 200.618,-1286.5191"/>
</g>
<!-- Node3&#45;&gt;Node4 -->
<g id="edge3" class="edge">
<title>Node3&#45;&gt;Node4</title>
<path fill="none" stroke="#191970" d="M796.8797,-1631.8185C803.6277,-1611.2429 818.981,-1563.1637 829,-1522 836.1772,-1492.5119 874.5335,-1287.6197 886.7557,-1222.0991"/>
<polygon fill="#191970" stroke="#191970" points="890.2114,-1222.6602 888.6035,-1212.1881 883.3299,-1221.3772 890.2114,-1222.6602"/>
</g>
<!-- Node8 -->
<g id="node8" class="node">
<title>Node8</title>
<g id="a_node8"><a xlink:href="../../d6/dcf/pythia6425mod_8f.html#a4140396b9ec9bafcebf4c7ebecb462e7" target="_top" xlink:title="pystop">
<polygon fill="none" stroke="#000000" points="1047.5,-1231 1047.5,-1251 1097.5,-1251 1097.5,-1231 1047.5,-1231"/>
<text text-anchor="middle" x="1072.5" y="-1238" font-family="FreeSans" font-size="10.00" fill="#000000">pystop</text>
</a>
</g>
</g>
<!-- Node3&#45;&gt;Node8 -->
<g id="edge17" class="edge">
<title>Node3&#45;&gt;Node8</title>
<path fill="none" stroke="#191970" d="M800.677,-1631.6846C838.0626,-1577.9512 1010.6554,-1329.8877 1059.5554,-1259.605"/>
<polygon fill="#191970" stroke="#191970" points="1062.5322,-1261.4548 1065.3704,-1251.2472 1056.7861,-1257.4569 1062.5322,-1261.4548"/>
</g>
<!-- Node5 -->
<g id="node5" class="node">
<title>Node5</title>
<g id="a_node5"><a xlink:href="../../dc/d9f/hcalUtil_8C.html#af562b1ac3ac927ecde202ce0501a97a6" target="_top" xlink:title="ps">
<polygon fill="none" stroke="#000000" points="966,-1918 966,-1938 995,-1938 995,-1918 966,-1918"/>
<text text-anchor="middle" x="980.5" y="-1925" font-family="FreeSans" font-size="10.00" fill="#000000">ps</text>
</a>
</g>
</g>
<!-- Node4&#45;&gt;Node5 -->
<g id="edge4" class="edge">
<title>Node4&#45;&gt;Node5</title>
<path fill="none" stroke="#191970" d="M895.9326,-1212.3577C902.0404,-1224.569 911.6688,-1245.6558 916,-1265 947.2687,-1404.6549 882.4592,-1782.9188 952,-1908 953.4594,-1910.625 955.426,-1912.9845 957.6478,-1915.0826"/>
<polygon fill="#191970" stroke="#191970" points="955.7201,-1918.0119 965.8191,-1921.2152 959.9219,-1912.4132 955.7201,-1918.0119"/>
</g>
<!-- Node7 -->
<g id="node7" class="node">
<title>Node7</title>
<g id="a_node7"><a xlink:href="../../d6/dcf/pythia6425mod_8f.html#a56718d08dbb42b3b978fc9b5bd6970e6" target="_top" xlink:title="pylogo">
<polygon fill="none" stroke="#ff0000" points="955.5,-1231 955.5,-1251 1005.5,-1251 1005.5,-1231 955.5,-1231"/>
<text text-anchor="middle" x="980.5" y="-1238" font-family="FreeSans" font-size="10.00" fill="#000000">pylogo</text>
</a>
</g>
</g>
<!-- Node4&#45;&gt;Node7 -->
<g id="edge6" class="edge">
<title>Node4&#45;&gt;Node7</title>
<path fill="none" stroke="#191970" d="M912.7472,-1211.6405C923.3206,-1216.2223 936.1684,-1221.7896 947.8216,-1226.8394"/>
<polygon fill="#191970" stroke="#191970" points="946.6861,-1230.1617 957.2533,-1230.9264 949.4694,-1223.7388 946.6861,-1230.1617"/>
</g>
<!-- Node10 -->
<g id="node10" class="node">
<title>Node10</title>
<g id="a_node10"><a xlink:href="../../d6/dcf/pythia6425mod_8f.html#ab0dbe916b7d36854c02faf180f41d585" target="_top" xlink:title="pyname">
<polygon fill="none" stroke="#000000" points="952,-1192 952,-1212 1009,-1212 1009,-1192 952,-1192"/>
<text text-anchor="middle" x="980.5" y="-1199" font-family="FreeSans" font-size="10.00" fill="#000000">pyname</text>
</a>
</g>
</g>
<!-- Node4&#45;&gt;Node10 -->
<g id="edge9" class="edge">
<title>Node4&#45;&gt;Node10</title>
<path fill="none" stroke="#191970" d="M912.7472,-1202C921.4784,-1202 931.7605,-1202 941.6401,-1202"/>
<polygon fill="#191970" stroke="#191970" points="941.7083,-1205.5001 951.7082,-1202 941.7082,-1198.5001 941.7083,-1205.5001"/>
</g>
<!-- Node11 -->
<g id="node11" class="node">
<title>Node11</title>
<g id="a_node11"><a xlink:href="../../d6/dcf/pythia6425mod_8f.html#a6cee1eea51c820d9e90932c9eca205b7" target="_top" xlink:title="pyp">
<polygon fill="none" stroke="#000000" points="963,-1076 963,-1096 998,-1096 998,-1076 963,-1076"/>
<text text-anchor="middle" x="980.5" y="-1083" font-family="FreeSans" font-size="10.00" fill="#000000">pyp</text>
</a>
</g>
</g>
<!-- Node4&#45;&gt;Node11 -->
<g id="edge10" class="edge">
<title>Node4&#45;&gt;Node11</title>
<path fill="none" stroke="#191970" d="M898.4869,-1191.7058C913.7362,-1172.0511 947.1803,-1128.9453 966.3168,-1104.2806"/>
<polygon fill="#191970" stroke="#191970" points="969.2948,-1106.1519 972.6595,-1096.1055 963.7642,-1101.8609 969.2948,-1106.1519"/>
</g>
<!-- Node6 -->
<g id="node6" class="node">
<title>Node6</title>
<g id="a_node6"><a xlink:href="../../da/d55/TPCRateLayered_8m.html#a7507ef556477c204b499f1e189d40796" target="_top" xlink:title="sum">
<polygon fill="none" stroke="#000000" points="1053.5,-1918 1053.5,-1938 1091.5,-1938 1091.5,-1918 1053.5,-1918"/>
<text text-anchor="middle" x="1072.5" y="-1925" font-family="FreeSans" font-size="10.00" fill="#000000">sum</text>
</a>
</g>
</g>
<!-- Node5&#45;&gt;Node6 -->
<g id="edge5" class="edge">
<title>Node5&#45;&gt;Node6</title>
<path fill="none" stroke="#191970" d="M995.2814,-1928C1008.075,-1928 1026.9687,-1928 1042.8645,-1928"/>
<polygon fill="#191970" stroke="#191970" points="1043.2786,-1931.5001 1053.2786,-1928 1043.2785,-1924.5001 1043.2786,-1931.5001"/>
</g>
<!-- Node7&#45;&gt;Node8 -->
<g id="edge7" class="edge">
<title>Node7&#45;&gt;Node8</title>
<path fill="none" stroke="#191970" d="M1005.6394,-1241C1015.3754,-1241 1026.6931,-1241 1037.2182,-1241"/>
<polygon fill="#191970" stroke="#191970" points="1037.391,-1244.5001 1047.391,-1241 1037.391,-1237.5001 1037.391,-1244.5001"/>
</g>
<!-- Node9 -->
<g id="node9" class="node">
<title>Node9</title>
<g id="a_node9"><a xlink:href="../../d0/d5e/classPHTimer.html#adce6f9a85834e59bd154b9c624ee4e41" target="_top" xlink:title="stops the counter">
<polygon fill="none" stroke="#ff0000" points="1136,-1231 1136,-1251 1223,-1251 1223,-1231 1136,-1231"/>
<text text-anchor="middle" x="1179.5" y="-1238" font-family="FreeSans" font-size="10.00" fill="#000000">PHTimer::stop</text>
</a>
</g>
</g>
<!-- Node8&#45;&gt;Node9 -->
<g id="edge8" class="edge">
<title>Node8&#45;&gt;Node9</title>
<path fill="none" stroke="#191970" d="M1097.5867,-1241C1106.0221,-1241 1115.7851,-1241 1125.5674,-1241"/>
<polygon fill="#191970" stroke="#191970" points="1125.7137,-1244.5001 1135.7137,-1241 1125.7137,-1237.5001 1125.7137,-1244.5001"/>
</g>
<!-- Node12 -->
<g id="node12" class="node">
<title>Node12</title>
<g id="a_node12"><a xlink:href="../../d6/dcf/pythia6425mod_8f.html#a27f75936fde97780175fa2c990bc61cd" target="_top" xlink:title="pychge">
<polygon fill="none" stroke="#000000" points="1046,-866 1046,-886 1099,-886 1099,-866 1046,-866"/>
<text text-anchor="middle" x="1072.5" y="-873" font-family="FreeSans" font-size="10.00" fill="#000000">pychge</text>
</a>
</g>
</g>
<!-- Node11&#45;&gt;Node12 -->
<g id="edge11" class="edge">
<title>Node11&#45;&gt;Node12</title>
<path fill="none" stroke="#191970" d="M984.9374,-1075.8713C999.3589,-1042.9526 1045.0691,-938.614 1064.0797,-895.2203"/>
<polygon fill="#191970" stroke="#191970" points="1067.3002,-896.5912 1068.1072,-886.0271 1060.8885,-893.7822 1067.3002,-896.5912"/>
</g>
<!-- Node13 -->
<g id="node13" class="node">
<title>Node13</title>
<g id="a_node13"><a xlink:href="../../d6/dcf/pythia6425mod_8f.html#aa8c99978a55999fa0b1fd2a946d8553a" target="_top" xlink:title="pyangl">
<polygon fill="none" stroke="#000000" points="1047.5,-1536 1047.5,-1556 1097.5,-1556 1097.5,-1536 1047.5,-1536"/>
<text text-anchor="middle" x="1072.5" y="-1543" font-family="FreeSans" font-size="10.00" fill="#000000">pyangl</text>
</a>
</g>
</g>
<!-- Node11&#45;&gt;Node13 -->
<g id="edge12" class="edge">
<title>Node11&#45;&gt;Node13</title>
<path fill="none" stroke="#191970" d="M986.2316,-1096.3678C992.7384,-1108.5886 1003.1998,-1129.6843 1009,-1149 1051.1561,-1289.3865 1066.8798,-1466.5977 1071.1694,-1525.7502"/>
<polygon fill="#191970" stroke="#191970" points="1067.694,-1526.2276 1071.8793,-1535.9607 1074.6772,-1525.742 1067.694,-1526.2276"/>
</g>
<!-- Node14 -->
<g id="node14" class="node">
<title>Node14</title>
<g id="a_node14"><a xlink:href="../../da/d0a/CylinderKalman_8cpp.html#ab74daa0c9784c63e060bfb98cc06fbf5" target="_top" xlink:title="sign">
<polygon fill="none" stroke="#000000" points="1161,-2591 1161,-2611 1198,-2611 1198,-2591 1161,-2591"/>
<text text-anchor="middle" x="1179.5" y="-2598" font-family="FreeSans" font-size="10.00" fill="#000000">sign</text>
</a>
</g>
</g>
<!-- Node11&#45;&gt;Node14 -->
<g id="edge16" class="edge">
<title>Node11&#45;&gt;Node14</title>
<path fill="none" stroke="#191970" d="M994.6812,-1096.2703C1021.3292,-1116.5476 1078.1586,-1164.6762 1100,-1221 1151.3156,-1353.3305 1175.6801,-2419.5775 1179.0825,-2580.6495"/>
<polygon fill="#191970" stroke="#191970" points="1175.5834,-2580.7323 1179.2914,-2590.6571 1182.5819,-2580.5862 1175.5834,-2580.7323"/>
</g>
<!-- Node11&#45;&gt;Node15 -->
<g id="edge14" class="edge">
<title>Node11&#45;&gt;Node15</title>
<path fill="none" stroke="#191970" d="M998.2385,-1078.4804C1009.9478,-1073.5167 1025.6458,-1066.8621 1039.5924,-1060.95"/>
<polygon fill="#191970" stroke="#191970" points="1041.0565,-1064.1309 1048.8973,-1057.0055 1038.3244,-1057.686 1041.0565,-1064.1309"/>
</g>
<!-- Node13&#45;&gt;Node14 -->
<g id="edge13" class="edge">
<title>Node13&#45;&gt;Node14</title>
<path fill="none" stroke="#191970" d="M1073.5247,-1556.1034C1083.5202,-1654.6569 1163.5696,-2443.9288 1177.4518,-2580.8049"/>
<polygon fill="#191970" stroke="#191970" points="1173.9714,-2581.1762 1178.4627,-2590.772 1180.9357,-2580.4699 1173.9714,-2581.1762"/>
</g>
<!-- Node15&#45;&gt;Node16 -->
<g id="edge15" class="edge">
<title>Node15&#45;&gt;Node16</title>
<path fill="none" stroke="#191970" d="M1076.0512,-1057.1701C1081.4561,-1072.7671 1091.9663,-1103.5661 1100,-1130 1117.4332,-1187.3616 1097.1489,-1214.3397 1136,-1260 1140.6324,-1265.4443 1147.0615,-1269.4878 1153.5575,-1272.4572"/>
<polygon fill="#191970" stroke="#191970" points="1152.3317,-1275.7357 1162.921,-1276.0773 1154.856,-1269.2067 1152.3317,-1275.7357"/>
</g>
<!-- Node17&#45;&gt;Node3 -->
<g id="edge55" class="edge">
<title>Node17&#45;&gt;Node3</title>
<path fill="none" stroke="#191970" d="M202.2043,-1276.0701C214.3888,-1328.9949 278.8475,-1576.1253 439,-1671 547.3287,-1735.1742 602.5509,-1723.8164 722,-1684 740.9737,-1677.6754 740.6599,-1666.9661 758,-1657 758.1885,-1656.8916 758.378,-1656.7836 758.5683,-1656.6759"/>
<polygon fill="#191970" stroke="#191970" points="760.2312,-1659.7568 767.5456,-1652.092 757.0478,-1653.5225 760.2312,-1659.7568"/>
</g>
<!-- Node17&#45;&gt;Node4 -->
<g id="edge66" class="edge">
<title>Node17&#45;&gt;Node4</title>
<path fill="none" stroke="#191970" d="M202.5392,-1255.9576C212.7429,-1218.1741 254.7788,-1084.9388 348,-1050 549.9994,-974.2917 662.4651,-977.8809 829,-1115 853.5987,-1135.2537 845.4465,-1151.8411 865,-1177 867.0544,-1179.6434 869.3768,-1182.284 871.7626,-1184.8053"/>
<polygon fill="#191970" stroke="#191970" points="869.3428,-1187.3349 878.906,-1191.8951 874.2739,-1182.3665 869.3428,-1187.3349"/>
</g>
<!-- Node17&#45;&gt;Node5 -->
<g id="edge19" class="edge">
<title>Node17&#45;&gt;Node5</title>
<path fill="none" stroke="#191970" d="M200.2964,-1255.9787C202.7761,-1174.5006 221.0027,-619.5984 262,-458 309.4064,-271.1389 277.2442,-166.8785 439,-62 535.2347,.3962 815.9338,-122.2 829,-138 960.999,-297.6172 901.905,-859.3537 916,-1066 922.3723,-1159.424 907.0394,-1825.8587 952,-1908 953.4421,-1910.6346 955.398,-1912.9999 957.614,-1915.1013"/>
<polygon fill="#191970" stroke="#191970" points="955.6834,-1918.0285 965.781,-1921.2362 959.8876,-1912.4317 955.6834,-1918.0285"/>
</g>
<!-- Node17&#45;&gt;Node12 -->
<g id="edge31" class="edge">
<title>Node17&#45;&gt;Node12</title>
<path fill="none" stroke="#191970" d="M201.0869,-1255.5631C204.7609,-1224.3675 218.9914,-1130.0883 262,-1067 370.5784,-907.7289 422.0514,-865.439 603,-799 687.7679,-767.8757 929.2538,-739.6341 1009,-782 1038.4281,-797.6339 1056.6954,-833.6657 1065.6997,-856.3017"/>
<polygon fill="#191970" stroke="#191970" points="1062.5117,-857.7698 1069.2882,-865.9141 1069.0697,-855.3215 1062.5117,-857.7698"/>
</g>
<!-- Node18 -->
<g id="node18" class="node">
<title>Node18</title>
<g id="a_node18"><a xlink:href="../../d6/dcf/pythia6425mod_8f.html#a75d3d9086fc46ac587fe0bdf03c46f63" target="_top" xlink:title="pyboei">
<polygon fill="none" stroke="#000000" points="350.5,-1498 350.5,-1518 400.5,-1518 400.5,-1498 350.5,-1498"/>
<text text-anchor="middle" x="375.5" y="-1505" font-family="FreeSans" font-size="10.00" fill="#000000">pyboei</text>
</a>
</g>
</g>
<!-- Node17&#45;&gt;Node18 -->
<g id="edge20" class="edge">
<title>Node17&#45;&gt;Node18</title>
<path fill="none" stroke="#191970" d="M207.3176,-1276.0903C234.1332,-1313.0669 327.2717,-1441.4971 362.164,-1489.6108"/>
<polygon fill="#191970" stroke="#191970" points="359.447,-1491.826 368.1512,-1497.8666 365.1137,-1487.7165 359.447,-1491.826"/>
</g>
<!-- Node22 -->
<g id="node22" class="node">
<title>Node22</title>
<g id="a_node22"><a xlink:href="../../d6/dcf/pythia6425mod_8f.html#abeadd88d3e040fcaf7b2b6e31108b30e" target="_top" xlink:title="pydecy">
<polygon fill="none" stroke="#000000" points="349,-1120 349,-1140 402,-1140 402,-1120 349,-1120"/>
<text text-anchor="middle" x="375.5" y="-1127" font-family="FreeSans" font-size="10.00" fill="#000000">pydecy</text>
</a>
</g>
</g>
<!-- Node17&#45;&gt;Node22 -->
<g id="edge32" class="edge">
<title>Node17&#45;&gt;Node22</title>
<path fill="none" stroke="#191970" d="M212.9049,-1255.9996C242.9515,-1232.7157 317.8099,-1174.7057 354.5243,-1146.2547"/>
<polygon fill="#191970" stroke="#191970" points="356.8156,-1148.907 362.5762,-1140.0151 352.5278,-1143.3739 356.8156,-1148.907"/>
</g>
<!-- Node31 -->
<g id="node31" class="node">
<title>Node31</title>
<g id="a_node31"><a xlink:href="../../d6/dcf/pythia6425mod_8f.html#adfef7cf742e4b4fd497224fcccb14869" target="_top" xlink:title="pyindf">
<polygon fill="none" stroke="#000000" points="478.5,-1307 478.5,-1327 527.5,-1327 527.5,-1307 478.5,-1307"/>
<text text-anchor="middle" x="503" y="-1314" font-family="FreeSans" font-size="10.00" fill="#000000">pyindf</text>
</a>
</g>
</g>
<!-- Node17&#45;&gt;Node31 -->
<g id="edge56" class="edge">
<title>Node17&#45;&gt;Node31</title>
<path fill="none" stroke="#191970" d="M226.0959,-1270.3924C280.6465,-1279.5742 406.7633,-1300.8017 468.1595,-1311.1358"/>
<polygon fill="#191970" stroke="#191970" points="467.6966,-1314.607 478.1389,-1312.8155 468.8586,-1307.7041 467.6966,-1314.607"/>
</g>
<!-- Node17&#45;&gt;Node32 -->
<g id="edge67" class="edge">
<title>Node17&#45;&gt;Node32</title>
<path fill="none" stroke="#191970" d="M200.5072,-1255.9013C204.2611,-1182.4254 228.5152,-729.1123 262,-596 286.5869,-498.2597 341.7633,-390.1317 364.9352,-347.1391"/>
<polygon fill="#191970" stroke="#191970" points="368.0322,-348.7704 369.738,-338.3137 361.8837,-345.4243 368.0322,-348.7704"/>
</g>
<!-- Node36 -->
<g id="node36" class="node">
<title>Node36</title>
<g id="a_node36"><a xlink:href="../../d6/dcf/pythia6425mod_8f.html#a420d8af4193fc0229b857f9b5c44017f" target="_top" xlink:title="pyresd">
<polygon fill="none" stroke="#ff0000" points="262,-2378 262,-2398 312,-2398 312,-2378 262,-2378"/>
<text text-anchor="middle" x="287" y="-2385" font-family="FreeSans" font-size="10.00" fill="#000000">pyresd</text>
</a>
</g>
</g>
<!-- Node17&#45;&gt;Node36 -->
<g id="edge82" class="edge">
<title>Node17&#45;&gt;Node36</title>
<path fill="none" stroke="#191970" d="M200.7787,-1276.0425C208.6873,-1378.0359 274.3997,-2225.4998 285.4313,-2367.7694"/>
<polygon fill="#191970" stroke="#191970" points="281.9423,-2368.0481 286.205,-2377.7476 288.9214,-2367.5069 281.9423,-2368.0481"/>
</g>
<!-- Node17&#45;&gt;Node47 -->
<g id="edge147" class="edge">
<title>Node17&#45;&gt;Node47</title>
<path fill="none" stroke="#191970" d="M200.6454,-1276.2952C204.7709,-1340.7453 228.3511,-1689.2043 262,-1790 276.0001,-1831.9376 295.8135,-1834.8568 312,-1876 348.6676,-1969.2024 366.8945,-2088.593 373.0394,-2135.6439"/>
<polygon fill="#191970" stroke="#191970" points="369.5905,-2136.2693 374.3165,-2145.7516 376.5353,-2135.3917 369.5905,-2136.2693"/>
</g>
<!-- Node50 -->
<g id="node50" class="node">
<title>Node50</title>
<g id="a_node50"><a xlink:href="../../d6/dcf/pythia6425mod_8f.html#ab14f48c3190aeff08037290931944d07" target="_top" xlink:title="pystrf">
<polygon fill="none" stroke="#ff0000" points="480,-542 480,-562 526,-562 526,-542 480,-542"/>
<text text-anchor="middle" x="503" y="-549" font-family="FreeSans" font-size="10.00" fill="#000000">pystrf</text>
</a>
</g>
</g>
<!-- Node17&#45;&gt;Node50 -->
<g id="edge148" class="edge">
<title>Node17&#45;&gt;Node50</title>
<path fill="none" stroke="#191970" d="M200.5999,-1255.601C204.9075,-1182.1034 231.8203,-742.4189 262,-692 308.4609,-614.3814 415.5898,-575.4663 469.9998,-560.1205"/>
<polygon fill="#191970" stroke="#191970" points="471.1034,-563.4475 479.8325,-557.4431 469.2643,-556.6934 471.1034,-563.4475"/>
</g>
<!-- Node18&#45;&gt;Node3 -->
<g id="edge25" class="edge">
<title>Node18&#45;&gt;Node3</title>
<path fill="none" stroke="#191970" d="M376.8746,-1518.146C380.9401,-1543.6725 395.4789,-1610.4803 439,-1638 539.1996,-1701.3592 689.3006,-1671.6409 757.4899,-1653.0393"/>
<polygon fill="#191970" stroke="#191970" points="758.6449,-1656.3504 767.3259,-1650.2766 756.752,-1649.6112 758.6449,-1656.3504"/>
</g>
<!-- Node18&#45;&gt;Node11 -->
<g id="edge27" class="edge">
<title>Node18&#45;&gt;Node11</title>
<path fill="none" stroke="#191970" d="M379.5963,-1518.1133C387.7464,-1536.7395 407.9302,-1576.104 439,-1593 494.2898,-1623.067 666.6166,-1633.8942 722,-1604 798.2589,-1562.838 798.5129,-1522.1188 829,-1441 869.8862,-1332.2117 808.4961,-1283.5573 865,-1182 885.6388,-1144.9049 926.7396,-1116.1653 953.9295,-1100.1564"/>
<polygon fill="#191970" stroke="#191970" points="955.9594,-1103.0279 962.9104,-1095.032 952.4902,-1096.948 955.9594,-1103.0279"/>
</g>
<!-- Node18&#45;&gt;Node15 -->
<g id="edge26" class="edge">
<title>Node18&#45;&gt;Node15</title>
<path fill="none" stroke="#191970" d="M378.5398,-1497.8496C391.1319,-1455.8084 438.5663,-1297.5021 439,-1297 480.0678,-1249.4512 527.8666,-1286.1532 567,-1237 614.2918,-1177.5995 548.2522,-1122.6081 603,-1070 659.2187,-1015.9785 874.0342,-1034.4481 952,-1034 977.3329,-1033.8544 983.7957,-1031.4465 1009,-1034 1017.437,-1034.8548 1026.4093,-1036.3328 1034.8707,-1037.9931"/>
<polygon fill="#191970" stroke="#191970" points="1034.364,-1041.4627 1044.8681,-1040.0791 1035.7938,-1034.6102 1034.364,-1041.4627"/>
</g>
<!-- Node18&#45;&gt;Node16 -->
<g id="edge28" class="edge">
<title>Node18&#45;&gt;Node16</title>
<path fill="none" stroke="#191970" d="M400.6141,-1506.7867C470.1091,-1502.9008 670.3066,-1488.1208 829,-1441 956.4336,-1403.1612 1096.9945,-1327.1933 1153.6945,-1294.9843"/>
<polygon fill="#191970" stroke="#191970" points="1155.7306,-1297.8519 1162.6742,-1289.8496 1152.2558,-1291.7752 1155.7306,-1297.8519"/>
</g>
<!-- Node19 -->
<g id="node19" class="node">
<title>Node19</title>
<g id="a_node19"><a xlink:href="../../d6/dcf/pythia6425mod_8f.html#a5bcab5f268d645f005de48b6ca8f2761" target="_top" xlink:title="pybesq">
<polygon fill="none" stroke="#000000" points="476.5,-1537 476.5,-1557 529.5,-1557 529.5,-1537 476.5,-1537"/>
<text text-anchor="middle" x="503" y="-1544" font-family="FreeSans" font-size="10.00" fill="#000000">pybesq</text>
</a>
</g>
</g>
<!-- Node18&#45;&gt;Node19 -->
<g id="edge21" class="edge">
<title>Node18&#45;&gt;Node19</title>
<path fill="none" stroke="#191970" d="M400.6899,-1515.7051C419.4852,-1521.4543 445.4434,-1529.3945 466.5091,-1535.8381"/>
<polygon fill="#191970" stroke="#191970" points="465.5153,-1539.1941 476.1017,-1538.7723 467.5629,-1532.5003 465.5153,-1539.1941"/>
</g>
<!-- Node18&#45;&gt;Node20 -->
<g id="edge29" class="edge">
<title>Node18&#45;&gt;Node20</title>
<path fill="none" stroke="#191970" d="M383.1748,-1518.3658C393.9399,-1532.0018 414.9258,-1555.4654 439,-1566 500.7273,-1593.0111 581.11,-1592.1895 626.7339,-1588.819"/>
<polygon fill="#191970" stroke="#191970" points="627.0579,-1592.3043 636.7376,-1587.9969 626.4845,-1585.3278 627.0579,-1592.3043"/>
</g>
<!-- Node21 -->
<g id="node21" class="node">
<title>Node21</title>
<g id="a_node21"><a xlink:href="../../d1/d5e/classsHelix.html#a44ff83bf3956f25a18308cc3c7fc1873" target="_top" xlink:title="sHelix::w">
<polygon fill="none" stroke="#000000" points="631.5,-1421 631.5,-1441 693.5,-1441 693.5,-1421 631.5,-1421"/>
<text text-anchor="middle" x="662.5" y="-1428" font-family="FreeSans" font-size="10.00" fill="#000000">sHelix::w</text>
</a>
</g>
</g>
<!-- Node18&#45;&gt;Node21 -->
<g id="edge30" class="edge">
<title>Node18&#45;&gt;Node21</title>
<path fill="none" stroke="#191970" d="M384.2287,-1497.952C395.5134,-1485.7188 416.4146,-1465.5164 439,-1456 498.7509,-1430.8239 575.0306,-1427.7908 621.2519,-1428.7669"/>
<polygon fill="#191970" stroke="#191970" points="621.388,-1432.2721 631.4839,-1429.0594 621.5881,-1425.275 621.388,-1432.2721"/>
</g>
<!-- Node19&#45;&gt;Node13 -->
<g id="edge22" class="edge">
<title>Node19&#45;&gt;Node13</title>
<path fill="none" stroke="#191970" d="M529.8337,-1546.8459C581.0778,-1546.5654 696.4139,-1546 793.5,-1546 793.5,-1546 793.5,-1546 890.5,-1546 941.5462,-1546 1000.6457,-1546 1037.3054,-1546"/>
<polygon fill="#191970" stroke="#191970" points="1037.4765,-1549.5001 1047.4764,-1546 1037.4764,-1542.5001 1037.4765,-1549.5001"/>
</g>
<!-- Node19&#45;&gt;Node20 -->
<g id="edge23" class="edge">
<title>Node19&#45;&gt;Node20</title>
<path fill="none" stroke="#191970" d="M529.6967,-1553.3603C556.3515,-1559.7107 597.4772,-1569.5087 626.8983,-1576.5181"/>
<polygon fill="#191970" stroke="#191970" points="626.235,-1579.958 636.7739,-1578.8709 627.8573,-1573.1485 626.235,-1579.958"/>
</g>
<!-- Node20&#45;&gt;Node3 -->
<g id="edge24" class="edge">
<title>Node20&#45;&gt;Node3</title>
<path fill="none" stroke="#191970" d="M685.6186,-1595.0592C706.5353,-1604.1604 737.5569,-1617.6584 760.9728,-1627.8469"/>
<polygon fill="#191970" stroke="#191970" points="759.6058,-1631.0691 770.1719,-1631.8496 762.3987,-1624.6503 759.6058,-1631.0691"/>
</g>
<!-- Node22&#45;&gt;Node3 -->
<g id="edge48" class="edge">
<title>Node22&#45;&gt;Node3</title>
<path fill="none" stroke="#191970" d="M376.8377,-1140.0353C382.5017,-1181.0961 405.7561,-1335.7458 439,-1370 480.3291,-1412.585 517.2121,-1375.7084 567,-1408 587.6269,-1421.3782 586.1419,-1432.1045 603,-1450 653.4328,-1503.5361 670.5132,-1512.4768 722,-1565 741.5745,-1584.9685 763.3416,-1608.6296 777.6581,-1624.4025"/>
<polygon fill="#191970" stroke="#191970" points="775.11,-1626.803 784.4144,-1631.8704 780.3008,-1622.1067 775.11,-1626.803"/>
</g>
<!-- Node22&#45;&gt;Node5 -->
<g id="edge35" class="edge">
<title>Node22&#45;&gt;Node5</title>
<path fill="none" stroke="#191970" d="M402.0378,-1123.9777C441.6997,-1116.5709 517.1038,-1108.8187 567,-1143 598.1661,-1164.3503 578.9189,-1190.8922 603,-1220 644.5959,-1270.2787 671.1994,-1265.0431 722,-1306 771.7385,-1346.1006 796.2068,-1347.1677 829,-1402 947.791,-1600.6257 821.5734,-1716.8133 952,-1908 953.5201,-1910.2283 955.3763,-1912.2875 957.4052,-1914.1688"/>
<polygon fill="#191970" stroke="#191970" points="955.6659,-1917.2439 965.7401,-1920.5245 959.9104,-1911.6776 955.6659,-1917.2439"/>
</g>
<!-- Node22&#45;&gt;Node13 -->
<g id="edge36" class="edge">
<title>Node22&#45;&gt;Node13</title>
<path fill="none" stroke="#191970" d="M377.2093,-1140.2309C383.7333,-1178.0355 408.2538,-1309.049 439,-1336 472.0497,-1364.9702 787.7279,-1386.8948 829,-1402 917.7301,-1434.4743 1010.6159,-1499.4639 1051.3009,-1529.7585"/>
<polygon fill="#191970" stroke="#191970" points="1049.2949,-1532.6291 1059.3914,-1535.8402 1053.501,-1527.0337 1049.2949,-1532.6291"/>
</g>
<!-- Node22&#45;&gt;Node15 -->
<g id="edge50" class="edge">
<title>Node22&#45;&gt;Node15</title>
<path fill="none" stroke="#191970" d="M395.2869,-1119.7768C460.2959,-1086.9059 674.08,-984.4741 865,-957 928.3475,-947.8841 952.1785,-927.5497 1009,-957 1037.4338,-971.7371 1055.8415,-1005.7106 1065.1722,-1027.4442"/>
<polygon fill="#191970" stroke="#191970" points="1061.9314,-1028.7663 1068.9261,-1036.7241 1068.4206,-1026.1413 1061.9314,-1028.7663"/>
</g>
<!-- Node22&#45;&gt;Node16 -->
<g id="edge51" class="edge">
<title>Node22&#45;&gt;Node16</title>
<path fill="none" stroke="#191970" d="M382.5052,-1119.7266C398.2143,-1096.7366 435.1838,-1042.9189 439,-1040 535.3778,-966.2831 832.5107,-874.0992 952,-853 975.4741,-848.855 1098.1108,-854.2136 1100,-856 1165.4908,-917.9274 1084.0438,-1186.3481 1136,-1260 1140.185,-1265.9325 1146.578,-1270.145 1153.1852,-1273.1206"/>
<polygon fill="#191970" stroke="#191970" points="1152.1929,-1276.4848 1162.7865,-1276.6514 1154.609,-1269.9149 1152.1929,-1276.4848"/>
</g>
<!-- Node22&#45;&gt;Node20 -->
<g id="edge52" class="edge">
<title>Node22&#45;&gt;Node20</title>
<path fill="none" stroke="#191970" d="M376.8832,-1140.0416C383.105,-1184.2246 409.4827,-1361.2082 439,-1408 465.3447,-1449.7625 586.3848,-1533.9424 638.5109,-1569.0536"/>
<polygon fill="#191970" stroke="#191970" points="636.8648,-1572.1639 647.1194,-1574.8276 640.7641,-1566.3505 636.8648,-1572.1639"/>
</g>
<!-- Node23 -->
<g id="node23" class="node">
<title>Node23</title>
<g id="a_node23"><a xlink:href="../../d8/d47/classsimpleRandom.html#a3f2fd2700bb2b3bfcd31c5064355e649" target="_top" xlink:title="simpleRandom::gauss">
<polygon fill="none" stroke="#ff0000" points="439,-1153 439,-1173 567,-1173 567,-1153 439,-1153"/>
<text text-anchor="middle" x="503" y="-1160" font-family="FreeSans" font-size="10.00" fill="#000000">simpleRandom::gauss</text>
</a>
</g>
</g>
<!-- Node22&#45;&gt;Node23 -->
<g id="edge33" class="edge">
<title>Node22&#45;&gt;Node23</title>
<path fill="none" stroke="#191970" d="M402.2282,-1136.9179C417.2444,-1140.8044 436.4545,-1145.7764 454.0672,-1150.335"/>
<polygon fill="#191970" stroke="#191970" points="453.6509,-1153.8426 464.2089,-1152.9599 455.4049,-1147.0659 453.6509,-1153.8426"/>
</g>
<!-- Node24 -->
<g id="node24" class="node">
<title>Node24</title>
<g id="a_node24"><a xlink:href="../../d8/d1a/classHiMain1.html#a676ccaef5fa9c10e945e6d1477aeb366" target="_top" xlink:title="HiMain1::np">
<polygon fill="none" stroke="#ff0000" points="624,-809 624,-829 701,-829 701,-809 624,-809"/>
<text text-anchor="middle" x="662.5" y="-816" font-family="FreeSans" font-size="10.00" fill="#000000">HiMain1::np</text>
</a>
</g>
</g>
<!-- Node22&#45;&gt;Node24 -->
<g id="edge34" class="edge">
<title>Node22&#45;&gt;Node24</title>
<path fill="none" stroke="#191970" d="M383.1676,-1119.9434C389.0889,-1111.8737 397.2207,-1100.099 403,-1089 423.4699,-1049.688 411.3287,-1030.6229 439,-996 481.7891,-942.4614 513.5545,-952.9053 567,-910 596.3779,-886.4158 627.4332,-855.5665 645.8799,-836.5269"/>
<polygon fill="#191970" stroke="#191970" points="648.5673,-838.7816 652.9719,-829.1458 643.5196,-833.9317 648.5673,-838.7816"/>
</g>
<!-- Node25 -->
<g id="node25" class="node">
<title>Node25</title>
<g id="a_node25"><a xlink:href="../../d6/dcf/pythia6425mod_8f.html#a9c5eaf03cea7f0d97f5783fd071c1409" target="_top" xlink:title="pydcyk">
<polygon fill="none" stroke="#000000" points="476.5,-581 476.5,-601 529.5,-601 529.5,-581 476.5,-581"/>
<text text-anchor="middle" x="503" y="-588" font-family="FreeSans" font-size="10.00" fill="#000000">pydcyk</text>
</a>
</g>
</g>
<!-- Node22&#45;&gt;Node25 -->
<g id="edge37" class="edge">
<title>Node22&#45;&gt;Node25</title>
<path fill="none" stroke="#191970" d="M384.0467,-1119.9013C390.2781,-1111.9956 398.4049,-1100.4548 403,-1089 437.767,-1002.3325 420.9666,-973.6231 439,-882 459.161,-779.5671 487.3105,-657.7822 498.3226,-610.8213"/>
<polygon fill="#191970" stroke="#191970" points="501.7457,-611.5538 500.6277,-601.0182 494.9316,-609.9515 501.7457,-611.5538"/>
</g>
<!-- Node26 -->
<g id="node26" class="node">
<title>Node26</title>
<g id="a_node26"><a xlink:href="../../d6/dcf/pythia6425mod_8f.html#ab762550f3025c60b2731636ec9577946" target="_top" xlink:title="pykfdi">
<polygon fill="none" stroke="#ff0000" points="639,-731 639,-751 686,-751 686,-731 639,-731"/>
<text text-anchor="middle" x="662.5" y="-738" font-family="FreeSans" font-size="10.00" fill="#000000">pykfdi</text>
</a>
</g>
</g>
<!-- Node22&#45;&gt;Node26 -->
<g id="edge49" class="edge">
<title>Node22&#45;&gt;Node26</title>
<path fill="none" stroke="#191970" d="M383.9605,-1119.8661C390.1467,-1111.9419 398.2547,-1100.3934 403,-1089 434.1997,-1014.089 395.8318,-978.7139 439,-910 486.6723,-834.1167 581.4693,-779.9319 630.8826,-755.5117"/>
<polygon fill="#191970" stroke="#191970" points="632.6615,-758.539 640.1327,-751.0269 629.6076,-752.2402 632.6615,-758.539"/>
</g>
<!-- Node30 -->
<g id="node30" class="node">
<title>Node30</title>
<g id="a_node30"><a xlink:href="../../d6/dcf/pythia6425mod_8f.html#ac915defed887990f1ac86812b9c11c49" target="_top" xlink:title="pytaud">
<polygon fill="none" stroke="#000000" points="865,-1076 865,-1096 916,-1096 916,-1076 865,-1076"/>
<text text-anchor="middle" x="890.5" y="-1083" font-family="FreeSans" font-size="10.00" fill="#000000">pytaud</text>
</a>
</g>
</g>
<!-- Node22&#45;&gt;Node30 -->
<g id="edge53" class="edge">
<title>Node22&#45;&gt;Node30</title>
<path fill="none" stroke="#191970" d="M383.6849,-1140.0206C394.7069,-1152.6344 415.6515,-1173.6598 439,-1182 492.5736,-1201.1368 514.136,-1203.0176 567,-1182 587.4508,-1173.8692 583.5263,-1158.2528 603,-1148 685.9811,-1104.311 797.8749,-1091.3978 854.4841,-1087.5885"/>
<polygon fill="#191970" stroke="#191970" points="854.9514,-1091.0664 864.7179,-1086.9596 854.522,-1084.0796 854.9514,-1091.0664"/>
</g>
<!-- Node25&#45;&gt;Node15 -->
<g id="edge41" class="edge">
<title>Node25&#45;&gt;Node15</title>
<path fill="none" stroke="#191970" d="M529.776,-593.8145C541.7453,-595.9211 555.6754,-599.596 567,-606 586.9717,-617.2938 583.5351,-630.8534 603,-643 650.2175,-672.4649 671.074,-659.545 722,-682 856.023,-741.0952 916.8938,-730.1103 1009,-844 1054.0164,-899.663 1067.2683,-987.4358 1071.0492,-1026.7651"/>
<polygon fill="#191970" stroke="#191970" points="1067.5779,-1027.2513 1071.9135,-1036.9184 1074.5527,-1026.6576 1067.5779,-1027.2513"/>
</g>
<!-- Node25&#45;&gt;Node16 -->
<g id="edge45" class="edge">
<title>Node25&#45;&gt;Node16</title>
<path fill="none" stroke="#191970" d="M529.6941,-584.2381C541.3875,-580.8765 555.1222,-576.3764 567,-571 674.3904,-522.3908 675.6206,-433 793.5,-433 793.5,-433 793.5,-433 980.5,-433 1047.5275,-433 1068.94,-465.6033 1100,-525 1175.778,-669.912 1044.4226,-1124.5181 1136,-1260 1140.0657,-1266.0149 1146.4208,-1270.2535 1153.0299,-1273.2278"/>
<polygon fill="#191970" stroke="#191970" points="1152.0635,-1276.6009 1162.6574,-1276.7405 1154.4628,-1270.0249 1152.0635,-1276.6009"/>
</g>
<!-- Node25&#45;&gt;Node26 -->
<g id="edge38" class="edge">
<title>Node25&#45;&gt;Node26</title>
<path fill="none" stroke="#191970" d="M529.6084,-595.9219C542.4118,-599.5284 557.0934,-605.6673 567,-616 601.1419,-651.6105 568.0111,-686.2214 603,-721 609.9816,-727.9396 619.444,-732.472 628.7674,-735.4319"/>
<polygon fill="#191970" stroke="#191970" points="628.1428,-738.8872 638.7057,-738.0661 629.9363,-732.1208 628.1428,-738.8872"/>
</g>
<!-- Node27 -->
<g id="node27" class="node">
<title>Node27</title>
<g id="a_node27"><a xlink:href="../../d6/dcf/pythia6425mod_8f.html#a8f241358dd296a387019d41fb2f9ec46" target="_top" xlink:title="pyptdi">
<polygon fill="none" stroke="#000000" points="638.5,-692 638.5,-712 686.5,-712 686.5,-692 638.5,-692"/>
<text text-anchor="middle" x="662.5" y="-699" font-family="FreeSans" font-size="10.00" fill="#000000">pyptdi</text>
</a>
</g>
</g>
<!-- Node25&#45;&gt;Node27 -->
<g id="edge42" class="edge">
<title>Node25&#45;&gt;Node27</title>
<path fill="none" stroke="#191970" d="M529.7138,-597.1079C542.089,-600.9562 556.3707,-606.9554 567,-616 590.9754,-636.4008 579.2853,-656.2967 603,-677 610.3763,-683.4397 619.6503,-688.396 628.6667,-692.1314"/>
<polygon fill="#191970" stroke="#191970" points="627.655,-695.4898 638.2474,-695.7178 630.1091,-688.9341 627.655,-695.4898"/>
</g>
<!-- Node29 -->
<g id="node29" class="node">
<title>Node29</title>
<g id="a_node29"><a xlink:href="../../d6/dcf/pythia6425mod_8f.html#afb341942695f61070b394bd15ac8dc30" target="_top" xlink:title="pyzdis">
<polygon fill="none" stroke="#000000" points="638,-614 638,-634 687,-634 687,-614 638,-614"/>
<text text-anchor="middle" x="662.5" y="-621" font-family="FreeSans" font-size="10.00" fill="#000000">pyzdis</text>
</a>
</g>
</g>
<!-- Node25&#45;&gt;Node29 -->
<g id="edge46" class="edge">
<title>Node25&#45;&gt;Node29</title>
<path fill="none" stroke="#191970" d="M529.6967,-596.5235C556.6688,-602.1039 598.4584,-610.75 627.9441,-616.8505"/>
<polygon fill="#191970" stroke="#191970" points="627.3142,-620.2942 637.8159,-618.8929 628.7324,-613.4394 627.3142,-620.2942"/>
</g>
<!-- Node26&#45;&gt;Node3 -->
<g id="edge39" class="edge">
<title>Node26&#45;&gt;Node3</title>
<path fill="none" stroke="#191970" d="M678.1036,-751.0646C692.3653,-761.2418 712.6185,-778.3861 722,-799 781.1888,-929.0556 741.5448,-1299.0599 758,-1441 765.7292,-1507.6713 781.4541,-1585.715 789.1122,-1621.8068"/>
<polygon fill="#191970" stroke="#191970" points="785.6935,-1622.5577 791.212,-1631.6018 792.538,-1621.0903 785.6935,-1622.5577"/>
</g>
<!-- Node26&#45;&gt;Node16 -->
<g id="edge40" class="edge">
<title>Node26&#45;&gt;Node16</title>
<path fill="none" stroke="#191970" d="M686.1798,-733.7252C697.1788,-730.1722 710.3672,-725.6627 722,-721 787.1473,-694.8876 796.4919,-669.2535 865,-654 966.948,-631.301 1023.9884,-582.3699 1100,-654 1149.0896,-700.26 1097.9364,-1204.3139 1136,-1260 1140.0969,-1265.9937 1146.4619,-1270.2256 1153.0705,-1273.2002"/>
<polygon fill="#191970" stroke="#191970" points="1152.0974,-1276.571 1162.6912,-1276.7175 1154.501,-1269.9965 1152.0974,-1276.571"/>
</g>
<!-- Node27&#45;&gt;Node16 -->
<g id="edge44" class="edge">
<title>Node27&#45;&gt;Node16</title>
<path fill="none" stroke="#191970" d="M673.8996,-691.8486C705.7039,-664.6172 799.0854,-592 890.5,-592 890.5,-592 890.5,-592 980.5,-592 1034.7609,-592 1064.6207,-575.8593 1100,-617 1193.3125,-725.5081 1055.4421,-1141.7136 1136,-1260 1140.0867,-1266.0006 1146.4485,-1270.2348 1153.0572,-1273.2093"/>
<polygon fill="#191970" stroke="#191970" points="1152.0863,-1276.5808 1162.6802,-1276.725 1154.4885,-1270.0059 1152.0863,-1276.5808"/>
</g>
<!-- Node28 -->
<g id="node28" class="node">
<title>Node28</title>
<g id="a_node28"><a xlink:href="../../db/dc0/classHiStrng.html#a9c8d7f68590dc5bf34483b740c49ba0b" target="_top" xlink:title="HiStrng::pt">
<polygon fill="none" stroke="#ff0000" points="758,-1412 758,-1432 829,-1432 829,-1412 758,-1412"/>
<text text-anchor="middle" x="793.5" y="-1419" font-family="FreeSans" font-size="10.00" fill="#000000">HiStrng::pt</text>
</a>
</g>
</g>
<!-- Node27&#45;&gt;Node28 -->
<g id="edge43" class="edge">
<title>Node27&#45;&gt;Node28</title>
<path fill="none" stroke="#191970" d="M686.5864,-703.5655C699.0732,-705.6979 713.4593,-710.4745 722,-721 744.1013,-748.2373 784.0005,-1289.4691 792.0586,-1401.7241"/>
<polygon fill="#191970" stroke="#191970" points="788.5881,-1402.2634 792.7923,-1411.9884 795.5703,-1401.7643 788.5881,-1402.2634"/>
</g>
<!-- Node29&#45;&gt;Node16 -->
<g id="edge47" class="edge">
<title>Node29&#45;&gt;Node16</title>
<path fill="none" stroke="#191970" d="M674.3967,-613.6445C706.7204,-586.613 799.8349,-516 890.5,-516 890.5,-516 890.5,-516 980.5,-516 1041.8289,-516 1067.9327,-532.7226 1100,-585 1178.5426,-713.0432 1051.6096,-1135.7331 1136,-1260 1140.0787,-1266.006 1146.438,-1270.2419 1153.0468,-1273.2163"/>
<polygon fill="#191970" stroke="#191970" points="1152.0777,-1276.5884 1162.6716,-1276.7309 1154.4788,-1270.0131 1152.0777,-1276.5884"/>
</g>
<!-- Node30&#45;&gt;Node8 -->
<g id="edge54" class="edge">
<title>Node30&#45;&gt;Node8</title>
<path fill="none" stroke="#191970" d="M916.25,-1095.4731C941.8325,-1105.7942 981.1621,-1124.2047 1009,-1149 1032.6795,-1170.0914 1052,-1201.7378 1062.8794,-1221.8734"/>
<polygon fill="#191970" stroke="#191970" points="1059.9119,-1223.7513 1067.6511,-1230.987 1066.1133,-1220.5043 1059.9119,-1223.7513"/>
</g>
<!-- Node31&#45;&gt;Node3 -->
<g id="edge58" class="edge">
<title>Node31&#45;&gt;Node3</title>
<path fill="none" stroke="#191970" d="M527.6076,-1320.6782C572.7456,-1328.7217 668.9987,-1352.1034 722,-1411 750.7839,-1442.9855 779.3171,-1571.8684 789.5442,-1621.9545"/>
<polygon fill="#191970" stroke="#191970" points="786.1394,-1622.777 791.5426,-1631.8905 793.002,-1621.3966 786.1394,-1622.777"/>
</g>
<!-- Node31&#45;&gt;Node13 -->
<g id="edge57" class="edge">
<title>Node31&#45;&gt;Node13</title>
<path fill="none" stroke="#191970" d="M527.721,-1314.1411C595.7366,-1307.5617 789.0164,-1297.6438 916,-1379 979.9153,-1419.9494 1035.5898,-1492.7817 1059.7294,-1527.1078"/>
<polygon fill="#191970" stroke="#191970" points="1057.1137,-1529.4787 1065.6824,-1535.71 1062.8698,-1525.4953 1057.1137,-1529.4787"/>
</g>
<!-- Node31&#45;&gt;Node15 -->
<g id="edge60" class="edge">
<title>Node31&#45;&gt;Node15</title>
<path fill="none" stroke="#191970" d="M527.7508,-1313.0168C541.1623,-1309.6142 556.9914,-1303.3726 567,-1292 610.5831,-1242.4771 557.7328,-1195.9883 603,-1148 718.9792,-1025.0492 945.6906,-1033.4892 1035.0301,-1042.3272"/>
<polygon fill="#191970" stroke="#191970" points="1034.67,-1045.8085 1044.9805,-1043.3707 1035.4002,-1038.8467 1034.67,-1045.8085"/>
</g>
<!-- Node31&#45;&gt;Node16 -->
<g id="edge62" class="edge">
<title>Node31&#45;&gt;Node16</title>
<path fill="none" stroke="#191970" d="M527.7731,-1312.6671C541.0239,-1309.1628 556.6889,-1302.9357 567,-1292 602.5793,-1254.2655 561.0501,-1211.4956 603,-1181 645.7796,-1149.9012 669.8331,-1172.2906 722,-1181 828.6086,-1198.7985 846.274,-1237.546 952,-1260 1023.3562,-1275.1546 1109.6535,-1278.8566 1152.5594,-1279.7401"/>
<polygon fill="#191970" stroke="#191970" points="1152.6814,-1283.2426 1162.7392,-1279.9125 1152.8,-1276.2436 1152.6814,-1283.2426"/>
</g>
<!-- Node31&#45;&gt;Node20 -->
<g id="edge63" class="edge">
<title>Node31&#45;&gt;Node20</title>
<path fill="none" stroke="#191970" d="M509.0578,-1327.1787C532.8426,-1367.143 620.0573,-1513.6855 651.2847,-1566.1555"/>
<polygon fill="#191970" stroke="#191970" points="648.3142,-1568.0079 656.4361,-1574.8112 654.3295,-1564.4279 648.3142,-1568.0079"/>
</g>
<!-- Node31&#45;&gt;Node21 -->
<g id="edge65" class="edge">
<title>Node31&#45;&gt;Node21</title>
<path fill="none" stroke="#191970" d="M512.0645,-1327.0006C528.655,-1344.8319 565.6458,-1382.4496 603,-1406 609.4511,-1410.0672 616.6777,-1413.7388 623.8115,-1416.9378"/>
<polygon fill="#191970" stroke="#191970" points="622.8272,-1420.3218 633.4003,-1420.9998 625.5577,-1413.8763 622.8272,-1420.3218"/>
</g>
<!-- Node31&#45;&gt;Node26 -->
<g id="edge59" class="edge">
<title>Node31&#45;&gt;Node26</title>
<path fill="none" stroke="#191970" d="M509.2711,-1306.9769C522.5479,-1285.1969 553.3903,-1231.5209 567,-1182 612.3081,-1017.1401 529.2583,-953.2523 603,-799 611.0131,-782.2382 626.0227,-767.6622 638.9611,-757.315"/>
<polygon fill="#191970" stroke="#191970" points="641.2307,-759.9861 647.07,-751.1456 636.9922,-754.4151 641.2307,-759.9861"/>
</g>
<!-- Node31&#45;&gt;Node27 -->
<g id="edge61" class="edge">
<title>Node31&#45;&gt;Node27</title>
<path fill="none" stroke="#191970" d="M509.3314,-1306.9932C522.7253,-1285.2449 553.7816,-1231.6267 567,-1182 593.4477,-1082.7056 539.2044,-801.5542 603,-721 609.2458,-713.1135 618.7788,-708.4478 628.3963,-705.7042"/>
<polygon fill="#191970" stroke="#191970" points="629.3198,-709.0843 638.3151,-703.4865 627.7923,-702.2529 629.3198,-709.0843"/>
</g>
<!-- Node31&#45;&gt;Node29 -->
<g id="edge64" class="edge">
<title>Node31&#45;&gt;Node29</title>
<path fill="none" stroke="#191970" d="M509.3545,-1306.9993C522.7934,-1285.2629 553.9319,-1231.6665 567,-1182 595.346,-1074.268 556.0534,-783.0233 603,-682 610.8296,-665.1517 625.8403,-650.5762 638.8251,-640.2509"/>
<polygon fill="#191970" stroke="#191970" points="641.1002,-642.9188 646.9696,-634.0983 636.8807,-637.3334 641.1002,-642.9188"/>
</g>
<!-- Node32&#45;&gt;Node3 -->
<g id="edge68" class="edge">
<title>Node32&#45;&gt;Node3</title>
<path fill="none" stroke="#191970" d="M392.5047,-317.8415C448.4664,-285.847 628.6385,-194.5007 722,-285 768.1357,-329.7213 751.3953,-1377.087 758,-1441 764.8991,-1507.7623 781.0222,-1585.7624 788.9437,-1621.8253"/>
<polygon fill="#191970" stroke="#191970" points="785.5326,-1622.6099 791.1194,-1631.612 792.3657,-1621.0907 785.5326,-1622.6099"/>
</g>
<!-- Node32&#45;&gt;Node4 -->
<g id="edge69" class="edge">
<title>Node32&#45;&gt;Node4</title>
<path fill="none" stroke="#191970" d="M379.8029,-317.9468C388.1625,-299.8632 408.497,-262.3089 439,-247 495.2128,-218.7878 675.1421,-201.0459 722,-243 776.1358,-291.4703 747.4863,-496.1007 758,-568 783.4918,-742.3283 798.9322,-784.4024 829,-958 845.8342,-1055.1925 819.5279,-1089.4668 865,-1177 866.3665,-1179.6305 868.1121,-1182.1505 870.0474,-1184.5094"/>
<polygon fill="#191970" stroke="#191970" points="867.6324,-1187.0477 877.0835,-1191.8361 872.6813,-1182.1991 867.6324,-1187.0477"/>
</g>
<!-- Node32&#45;&gt;Node13 -->
<g id="edge78" class="edge">
<title>Node32&#45;&gt;Node13</title>
<path fill="none" stroke="#191970" d="M377.6676,-317.8604C383.2031,-294.8133 400.2486,-238.7343 439,-216 493.2435,-184.177 671.4908,-177.5316 722,-215 853.6659,-312.6716 799.5493,-406.7291 829,-568 850.4858,-685.6554 800.1225,-1004.5243 865,-1105 904.3683,-1165.9696 966.4638,-1123.1967 1009,-1182 1049.4284,-1237.8894 1066.7446,-1456.7593 1071.2492,-1525.3364"/>
<polygon fill="#191970" stroke="#191970" points="1067.7785,-1525.9101 1071.9044,-1535.6686 1074.7644,-1525.4671 1067.7785,-1525.9101"/>
</g>
<!-- Node32&#45;&gt;Node15 -->
<g id="edge75" class="edge">
<title>Node32&#45;&gt;Node15</title>
<path fill="none" stroke="#191970" d="M376.3535,-317.7536C379.2787,-289.7872 391.5297,-211.8493 439,-176 508.488,-123.523 758.5262,-86.8546 829,-138 1112.1614,-343.5006 983.5982,-550.5574 1045,-895 1053.3928,-942.0806 1063.437,-997.326 1068.7594,-1026.5156"/>
<polygon fill="#191970" stroke="#191970" points="1065.3762,-1027.4731 1070.6144,-1036.6824 1072.2625,-1026.2165 1065.3762,-1027.4731"/>
</g>
<!-- Node32&#45;&gt;Node16 -->
<g id="edge73" class="edge">
<title>Node32&#45;&gt;Node16</title>
<path fill="none" stroke="#191970" d="M377.3317,-317.761C384.1931,-280.5309 409.495,-153.1119 439,-126 513.9508,-57.1283 560.7113,-76 662.5,-76 662.5,-76 662.5,-76 980.5,-76 1128.9898,-76 1069.9877,-242.5748 1100,-388 1119.5996,-482.9701 1082.0042,-1179.4524 1136,-1260 1140.0426,-1266.0304 1146.3903,-1270.274 1152.9997,-1273.2481"/>
<polygon fill="#191970" stroke="#191970" points="1152.0384,-1276.6229 1162.6324,-1276.7573 1154.4346,-1270.0457 1152.0384,-1276.6229"/>
</g>
<!-- Node32&#45;&gt;Node20 -->
<g id="edge77" class="edge">
<title>Node32&#45;&gt;Node20</title>
<path fill="none" stroke="#191970" d="M376.2555,-338.0429C380.0277,-386.2781 398.2843,-598.788 439,-768 480.1992,-939.2213 528.0814,-971.2459 567,-1143 597.3598,-1276.9827 566.8959,-1317.4497 603,-1450 614.766,-1493.1969 638.2042,-1540.3433 651.8895,-1565.9066"/>
<polygon fill="#191970" stroke="#191970" points="648.9209,-1567.7739 656.7738,-1574.8861 655.0701,-1564.4291 648.9209,-1567.7739"/>
</g>
<!-- Node32&#45;&gt;Node24 -->
<g id="edge81" class="edge">
<title>Node32&#45;&gt;Node24</title>
<path fill="none" stroke="#191970" d="M376.4774,-338.2253C381.2697,-386.7215 403.4964,-593.3813 439,-646 477.059,-702.406 513.474,-687.9871 567,-730 596.1707,-752.8963 627.0661,-782.8826 645.5645,-801.5418"/>
<polygon fill="#191970" stroke="#191970" points="643.1856,-804.1145 652.6922,-808.7915 648.1771,-799.2069 643.1856,-804.1145"/>
</g>
<!-- Node32&#45;&gt;Node25 -->
<g id="edge76" class="edge">
<title>Node32&#45;&gt;Node25</title>
<path fill="none" stroke="#191970" d="M376.833,-338.1464C382.4783,-379.664 405.6695,-536.055 439,-571 446.2914,-578.6445 456.4558,-583.3825 466.5401,-586.314"/>
<polygon fill="#191970" stroke="#191970" points="465.9494,-589.7711 476.4883,-588.684 467.5717,-582.9617 465.9494,-589.7711"/>
</g>
<!-- Node32&#45;&gt;Node26 -->
<g id="edge80" class="edge">
<title>Node32&#45;&gt;Node26</title>
<path fill="none" stroke="#191970" d="M376.4704,-338.1549C381.006,-383.6284 401.4929,-568.1387 439,-610 479.1428,-654.8031 521.1618,-615.0433 567,-654 592.7583,-675.8913 577.1672,-699.1968 603,-721 610.4002,-727.2459 619.8319,-731.5655 628.9931,-734.5435"/>
<polygon fill="#191970" stroke="#191970" points="628.1449,-737.9406 638.7189,-737.276 630.0384,-731.2016 628.1449,-737.9406"/>
</g>
<!-- Node33 -->
<g id="node33" class="node">
<title>Node33</title>
<g id="a_node33"><a xlink:href="../../d6/dcf/pythia6425mod_8f.html#a1b5177c55286abfcfa1e7668bdb4bd74" target="_top" xlink:title="pycttr">
<polygon fill="none" stroke="#000000" points="639.5,-1191 639.5,-1211 685.5,-1211 685.5,-1191 639.5,-1191"/>
<text text-anchor="middle" x="662.5" y="-1198" font-family="FreeSans" font-size="10.00" fill="#000000">pycttr</text>
</a>
</g>
</g>
<!-- Node32&#45;&gt;Node33 -->
<g id="edge70" class="edge">
<title>Node32&#45;&gt;Node33</title>
<path fill="none" stroke="#191970" d="M376.2545,-338.1165C380.3519,-391.154 401.1526,-637.157 439,-702 475.9498,-765.3052 527.8874,-744.0077 567,-806 607.827,-870.7096 648.0258,-1109.3137 659.3538,-1180.6965"/>
<polygon fill="#191970" stroke="#191970" points="655.9102,-1181.3293 660.9197,-1190.665 662.8254,-1180.243 655.9102,-1181.3293"/>
</g>
<!-- Node34 -->
<g id="node34" class="node">
<title>Node34</title>
<g id="a_node34"><a xlink:href="../../d6/dcf/pythia6425mod_8f.html#a5fe7258c6d0b84acd97639f5f4d66acd" target="_top" xlink:title="pyjurf">
<polygon fill="none" stroke="#000000" points="639.5,-295 639.5,-315 685.5,-315 685.5,-295 639.5,-295"/>
<text text-anchor="middle" x="662.5" y="-302" font-family="FreeSans" font-size="10.00" fill="#000000">pyjurf</text>
</a>
</g>
</g>
<!-- Node32&#45;&gt;Node34 -->
<g id="edge74" class="edge">
<title>Node32&#45;&gt;Node34</title>
<path fill="none" stroke="#191970" d="M401.7302,-325.8979C454.0985,-321.7012 571.5207,-312.291 629.2164,-307.6673"/>
<polygon fill="#191970" stroke="#191970" points="629.5768,-311.1498 639.2652,-306.862 629.0176,-304.1721 629.5768,-311.1498"/>
</g>
<!-- Node35 -->
<g id="node35" class="node">
<title>Node35</title>
<g id="a_node35"><a xlink:href="../../d4/d1a/classgenfit_1_1EventDisplay.html#a52285c17ebaf4ac0de0e0a890a6060cb" target="_top" xlink:title="Go to the previous event or step a certain number of events back.">
<polygon fill="none" stroke="#ff0000" points="603,-334 603,-366 722,-366 722,-334 603,-334"/>
<text text-anchor="start" x="611" y="-353" font-family="FreeSans" font-size="10.00" fill="#000000">genfit::EventDisplay</text>
<text text-anchor="middle" x="662.5" y="-341" font-family="FreeSans" font-size="10.00" fill="#000000">::prev</text>
</a>
</g>
</g>
<!-- Node32&#45;&gt;Node35 -->
<g id="edge79" class="edge">
<title>Node32&#45;&gt;Node35</title>
<path fill="none" stroke="#191970" d="M401.7302,-330.0107C444.6589,-333.3014 531.303,-339.9431 592.926,-344.6668"/>
<polygon fill="#191970" stroke="#191970" points="592.7349,-348.1623 602.9732,-345.437 593.27,-341.1828 592.7349,-348.1623"/>
</g>
<!-- Node33&#45;&gt;Node3 -->
<g id="edge71" class="edge">
<title>Node33&#45;&gt;Node3</title>
<path fill="none" stroke="#191970" d="M669.9369,-1211.0418C682.5645,-1228.5784 708.1708,-1266.3264 722,-1302 745.2412,-1361.9525 779.3618,-1557.8613 790.1214,-1621.6937"/>
<polygon fill="#191970" stroke="#191970" points="786.6944,-1622.4212 791.7994,-1631.705 793.5981,-1621.264 786.6944,-1622.4212"/>
</g>
<!-- Node33&#45;&gt;Node4 -->
<g id="edge72" class="edge">
<title>Node33&#45;&gt;Node4</title>
<path fill="none" stroke="#191970" d="M685.6166,-1201.1014C726.4733,-1201.2806 811.5254,-1201.6536 858.1709,-1201.8582"/>
<polygon fill="#191970" stroke="#191970" points="858.3178,-1205.3588 868.333,-1201.9028 858.3485,-1198.3589 858.3178,-1205.3588"/>
</g>
<!-- Node36&#45;&gt;Node2 -->
<g id="edge106" class="edge">
<title>Node36&#45;&gt;Node2</title>
<path fill="none" stroke="#191970" d="M286.7517,-2377.6828C285.1604,-2318.778 274.846,-2025.0743 226,-1952 207.674,-1924.584 174.02,-1906.8398 148.0101,-1896.5456"/>
<polygon fill="#191970" stroke="#191970" points="149.0558,-1893.1997 138.4637,-1892.9603 146.5947,-1899.7528 149.0558,-1893.1997"/>
</g>
<!-- Node36&#45;&gt;Node3 -->
<g id="edge98" class="edge">
<title>Node36&#45;&gt;Node3</title>
<path fill="none" stroke="#191970" d="M312.0169,-2394.9893C322.9684,-2397.7236 336.0268,-2400.5485 348,-2402 430.5117,-2412.0031 661.5107,-2463.0025 722,-2406 771.0896,-2359.74 748.5759,-1866.7904 758,-1800 765.0706,-1749.8893 779.7494,-1692.1321 787.8414,-1662.2566"/>
<polygon fill="#191970" stroke="#191970" points="791.3174,-1662.8156 790.5906,-1652.2457 784.5673,-1660.9618 791.3174,-1662.8156"/>
</g>
<!-- Node36&#45;&gt;Node5 -->
<g id="edge105" class="edge">
<title>Node36&#45;&gt;Node5</title>
<path fill="none" stroke="#191970" d="M287.3935,-2377.6047C289.1754,-2341.5959 298.727,-2219.8194 348,-2136 375.8933,-2088.5501 392.561,-2081.5457 439,-2052 613.083,-1941.2438 874.3806,-1929.0045 955.5468,-1927.9726"/>
<polygon fill="#191970" stroke="#191970" points="955.8042,-1931.4707 965.7764,-1927.8922 955.7492,-1924.471 955.8042,-1931.4707"/>
</g>
<!-- Node36&#45;&gt;Node13 -->
<g id="edge85" class="edge">
<title>Node36&#45;&gt;Node13</title>
<path fill="none" stroke="#191970" d="M288.3369,-2398.1422C295.1287,-2449.0094 326.3335,-2674.7847 348,-2697 406.699,-2757.1857 649.0429,-2795.7752 722,-2754 940.6873,-2628.7799 932.2656,-2505.0334 1009,-2265 1019.9519,-2230.7411 1062.3424,-1679.5134 1070.9644,-1566.2481"/>
<polygon fill="#191970" stroke="#191970" points="1074.4626,-1566.4032 1071.7306,-1556.1667 1067.4827,-1565.8727 1074.4626,-1566.4032"/>
</g>
<!-- Node36&#45;&gt;Node14 -->
<g id="edge107" class="edge">
<title>Node36&#45;&gt;Node14</title>
<path fill="none" stroke="#191970" d="M287.5133,-2398.339C290.4199,-2453.6799 306.1945,-2714.8721 348,-2782 438.1765,-2926.7982 491.9177,-3002 662.5,-3002 662.5,-3002 662.5,-3002 980.5,-3002 1152.3377,-3002 1175.7925,-2702.8808 1178.994,-2621.3255"/>
<polygon fill="#191970" stroke="#191970" points="1182.4925,-2621.4255 1179.3246,-2611.3154 1175.4963,-2621.1944 1182.4925,-2621.4255"/>
</g>
<!-- Node36&#45;&gt;Node15 -->
<g id="edge99" class="edge">
<title>Node36&#45;&gt;Node15</title>
<path fill="none" stroke="#191970" d="M287.2314,-2377.8521C288.7506,-2318.607 298.8256,-2017.4612 348,-1942 391.4911,-1875.2602 423.3402,-1852 503,-1852 503,-1852 503,-1852 662.5,-1852 912.8127,-1852 933.2999,-1646.5916 1009,-1408 1019.4582,-1375.0378 1057.9384,-1137.7784 1069.3132,-1066.9267"/>
<polygon fill="#191970" stroke="#191970" points="1072.7709,-1067.4689 1070.8976,-1057.041 1065.8591,-1066.3611 1072.7709,-1067.4689"/>
</g>
<!-- Node36&#45;&gt;Node16 -->
<g id="edge87" class="edge">
<title>Node36&#45;&gt;Node16</title>
<path fill="none" stroke="#191970" d="M302.9891,-2398.024C314.969,-2405.1219 331.9858,-2414.3495 348,-2420 386.8789,-2433.7181 397.9683,-2433.9809 439,-2438 564.1912,-2450.2628 605.8483,-2482.2908 722,-2434 762.7099,-2417.0746 983.8822,-2196.2334 1009,-2160 1067.6492,-2075.3962 1073.4162,-2046.4527 1100,-1947 1166.4403,-1698.4399 1177.4087,-1382.9119 1179.1714,-1300.4522"/>
<polygon fill="#191970" stroke="#191970" points="1182.6718,-1300.46 1179.3638,-1290.3948 1175.6731,-1300.326 1182.6718,-1300.46"/>
</g>
<!-- Node36&#45;&gt;Node20 -->
<g id="edge84" class="edge">
<title>Node36&#45;&gt;Node20</title>
<path fill="none" stroke="#191970" d="M287.5224,-2377.6143C290.9651,-2311.0299 311.3967,-1943.5147 348,-1838 373.0595,-1765.7619 383.701,-1744.8048 439,-1692 499.4435,-1634.2828 525.3593,-1630.9291 603,-1600 610.5849,-1596.9785 618.9611,-1594.4217 626.975,-1592.3222"/>
<polygon fill="#191970" stroke="#191970" points="627.9639,-1595.6836 636.8453,-1589.9069 626.3,-1588.8842 627.9639,-1595.6836"/>
</g>
<!-- Node36&#45;&gt;Node24 -->
<g id="edge86" class="edge">
<title>Node36&#45;&gt;Node24</title>
<path fill="none" stroke="#191970" d="M287.2408,-2377.9706C289.3841,-2291.4234 306.098,-1669.5924 348,-1488 372.1607,-1383.2941 370.313,-1346.6387 439,-1264 482.1854,-1212.0427 527.7541,-1236.9937 567,-1182 606.324,-1126.897 585.97,-1099.5187 603,-1034 621.7108,-962.0149 645.8328,-877.04 656.7179,-839.0741"/>
<polygon fill="#191970" stroke="#191970" points="660.1392,-839.8405 659.5365,-829.2628 653.4114,-837.9077 660.1392,-839.8405"/>
</g>
<!-- Node37 -->
<g id="node37" class="node">
<title>Node37</title>
<g id="a_node37"><a xlink:href="../../d2/d18/medium-simple_8f.html#a58e0410e81664819969cd2981fd7cd27" target="_top" xlink:title="npart">
<polygon fill="none" stroke="#ff0000" points="640.5,-2377 640.5,-2397 684.5,-2397 684.5,-2377 640.5,-2377"/>
<text text-anchor="middle" x="662.5" y="-2384" font-family="FreeSans" font-size="10.00" fill="#000000">npart</text>
</a>
</g>
</g>
<!-- Node36&#45;&gt;Node37 -->
<g id="edge83" class="edge">
<title>Node36&#45;&gt;Node37</title>
<path fill="none" stroke="#191970" d="M312.2207,-2387.9328C378.3603,-2387.7567 556.7554,-2387.2816 630.2164,-2387.086"/>
<polygon fill="#191970" stroke="#191970" points="630.277,-2390.5859 640.2677,-2387.0592 630.2583,-2383.586 630.277,-2390.5859"/>
</g>
<!-- Node38 -->
<g id="node38" class="node">
<title>Node38</title>
<g id="a_node38"><a xlink:href="../../d6/dcf/pythia6425mod_8f.html#ad7324915c7a7d7f155890fd467a05d8e" target="_top" xlink:title="pywidt">
<polygon fill="none" stroke="#ff0000" points="478,-2685 478,-2705 528,-2705 528,-2685 478,-2685"/>
<text text-anchor="middle" x="503" y="-2692" font-family="FreeSans" font-size="10.00" fill="#000000">pywidt</text>
</a>
</g>
</g>
<!-- Node36&#45;&gt;Node38 -->
<g id="edge88" class="edge">
<title>Node36&#45;&gt;Node38</title>
<path fill="none" stroke="#191970" d="M287.6902,-2398.0009C291.0475,-2443.6078 307.1999,-2631.3115 348,-2670 379.7267,-2700.0847 432.5491,-2702.2833 467.5743,-2699.7304"/>
<polygon fill="#191970" stroke="#191970" points="468.1822,-2703.19 477.8298,-2698.8112 467.5572,-2696.218 468.1822,-2703.19"/>
</g>
<!-- Node40 -->
<g id="node40" class="node">
<title>Node40</title>
<g id="a_node40"><a xlink:href="../../d3/dd5/jewel-2_82_80_8f.html#a128c80a01e220038eb138a985885083a" target="_top" xlink:title="ei">
<polygon fill="none" stroke="#000000" points="648,-2647 648,-2667 677,-2667 677,-2647 648,-2647"/>
<text text-anchor="middle" x="662.5" y="-2654" font-family="FreeSans" font-size="10.00" fill="#000000">ei</text>
</a>
</g>
</g>
<!-- Node36&#45;&gt;Node40 -->
<g id="edge146" class="edge">
<title>Node36&#45;&gt;Node40</title>
<path fill="none" stroke="#191970" d="M288.2259,-2398.0235C293.3579,-2438.3157 314.4216,-2587.8029 348,-2619 429.7411,-2694.9443 579.4372,-2674.3855 638.0488,-2662.5818"/>
<polygon fill="#191970" stroke="#191970" points="638.8335,-2665.9933 647.8959,-2660.5049 637.3889,-2659.144 638.8335,-2665.9933"/>
</g>
<!-- Node41 -->
<g id="node41" class="node">
<title>Node41</title>
<g id="a_node41"><a xlink:href="../../d6/dcf/pythia6425mod_8f.html#a7c47045290198780dd664e84fbacf4fc" target="_top" xlink:title="pyofsh">
<polygon fill="none" stroke="#ff0000" points="637.5,-2569 637.5,-2589 687.5,-2589 687.5,-2569 637.5,-2569"/>
<text text-anchor="middle" x="662.5" y="-2576" font-family="FreeSans" font-size="10.00" fill="#000000">pyofsh</text>
</a>
</g>
</g>
<!-- Node36&#45;&gt;Node41 -->
<g id="edge100" class="edge">
<title>Node36&#45;&gt;Node41</title>
<path fill="none" stroke="#191970" d="M289.2734,-2398.335C296.7854,-2431.4855 321.8261,-2534.1444 348,-2554 391.0477,-2586.6561 554.5443,-2583.8258 627.2632,-2580.8106"/>
<polygon fill="#191970" stroke="#191970" points="627.472,-2584.3049 637.3084,-2580.3686 627.1642,-2577.3117 627.472,-2584.3049"/>
</g>
<!-- Node42 -->
<g id="node42" class="node">
<title>Node42</title>
<g id="a_node42"><a xlink:href="../../d6/dcf/pythia6425mod_8f.html#a248b5187a6bf187f6d5daff60b824804" target="_top" xlink:title="pygram">
<polygon fill="none" stroke="#ff0000" points="953,-2236 953,-2256 1008,-2256 1008,-2236 953,-2236"/>
<text text-anchor="middle" x="980.5" y="-2243" font-family="FreeSans" font-size="10.00" fill="#000000">pygram</text>
</a>
</g>
</g>
<!-- Node36&#45;&gt;Node42 -->
<g id="edge95" class="edge">
<title>Node36&#45;&gt;Node42</title>
<path fill="none" stroke="#191970" d="M290.6621,-2398.1446C298.1521,-2417.2985 317.1641,-2458.6014 348,-2478 489.4212,-2566.9668 567.1427,-2578.7239 722,-2516 847.4442,-2465.1897 940.0623,-2317.967 970.0819,-2265.146"/>
<polygon fill="#191970" stroke="#191970" points="973.2796,-2266.5982 975.098,-2256.1606 967.1675,-2263.1861 973.2796,-2266.5982"/>
</g>
<!-- Node43 -->
<g id="node43" class="node">
<title>Node43</title>
<g id="a_node43"><a xlink:href="../../d6/dcf/pythia6425mod_8f.html#a89821a60f56d9d359eb0d345f14611f4" target="_top" xlink:title="pytbdy">
<polygon fill="none" stroke="#ff0000" points="477.5,-2792 477.5,-2812 528.5,-2812 528.5,-2792 477.5,-2792"/>
<text text-anchor="middle" x="503" y="-2799" font-family="FreeSans" font-size="10.00" fill="#000000">pytbdy</text>
</a>
</g>
</g>
<!-- Node36&#45;&gt;Node43 -->
<g id="edge101" class="edge">
<title>Node36&#45;&gt;Node43</title>
<path fill="none" stroke="#191970" d="M288.1016,-2398.3051C294.1892,-2454.481 324.2988,-2722.2588 348,-2750 377.786,-2784.8631 431.7059,-2796.4331 467.4375,-2800.2249"/>
<polygon fill="#191970" stroke="#191970" points="467.1706,-2803.715 477.4466,-2801.1353 467.8048,-2796.7438 467.1706,-2803.715"/>
</g>
<!-- Node44 -->
<g id="node44" class="node">
<title>Node44</title>
<g id="a_node44"><a xlink:href="../../d6/dcf/pythia6425mod_8f.html#acaa9b0dacb1d573f221e375e29d705c0" target="_top" xlink:title="pyxjet">
<polygon fill="none" stroke="#000000" points="479,-2607 479,-2627 527,-2627 527,-2607 479,-2607"/>
<text text-anchor="middle" x="503" y="-2614" font-family="FreeSans" font-size="10.00" fill="#000000">pyxjet</text>
</a>
</g>
</g>
<!-- Node36&#45;&gt;Node44 -->
<g id="edge108" class="edge">
<title>Node36&#45;&gt;Node44</title>
<path fill="none" stroke="#191970" d="M288.5889,-2398.1353C294.6676,-2435.5859 317.64,-2565.3681 348,-2592 381.0545,-2620.9955 433.9962,-2623.3758 468.6376,-2621.1699"/>
<polygon fill="#191970" stroke="#191970" points="469.0686,-2624.6467 478.7586,-2620.3624 468.5119,-2617.6689 469.0686,-2624.6467"/>
</g>
<!-- Node45 -->
<g id="node45" class="node">
<title>Node45</title>
<g id="a_node45"><a xlink:href="../../d6/dcf/pythia6425mod_8f.html#a3d8e2097368a69d1101835198fe12cba" target="_top" xlink:title="pyx4jt">
<polygon fill="none" stroke="#000000" points="956.5,-1879 956.5,-1899 1004.5,-1899 1004.5,-1879 956.5,-1879"/>
<text text-anchor="middle" x="980.5" y="-1886" font-family="FreeSans" font-size="10.00" fill="#000000">pyx4jt</text>
</a>
</g>
</g>
<!-- Node36&#45;&gt;Node45 -->
<g id="edge112" class="edge">
<title>Node36&#45;&gt;Node45</title>
<path fill="none" stroke="#191970" d="M288.2689,-2377.7133C294.2837,-2329.8231 320.7681,-2128.6531 348,-2072 394.0297,-1976.2401 396.7517,-1890 503,-1890 503,-1890 503,-1890 793.5,-1890 846.688,-1890 908.3844,-1889.5905 945.9166,-1889.2956"/>
<polygon fill="#191970" stroke="#191970" points="946.322,-1892.7925 956.2935,-1889.2121 946.2656,-1885.7927 946.322,-1892.7925"/>
</g>
<!-- Node36&#45;&gt;Node46 -->
<g id="edge115" class="edge">
<title>Node36&#45;&gt;Node46</title>
<path fill="none" stroke="#191970" d="M287.1475,-2377.7438C288.8299,-2263.8458 305.1345,-1237.2209 348,-1110 350.5899,-1102.3133 355.1197,-1094.7523 359.7646,-1088.3091"/>
<polygon fill="#191970" stroke="#191970" points="362.6128,-1090.3482 365.9984,-1080.3088 357.0911,-1086.0457 362.6128,-1090.3482"/>
</g>
<!-- Node36&#45;&gt;Node47 -->
<g id="edge120" class="edge">
<title>Node36&#45;&gt;Node47</title>
<path fill="none" stroke="#191970" d="M290.9169,-2377.7319C304.5387,-2342.0229 349.9946,-2222.8615 368.0319,-2175.5773"/>
<polygon fill="#191970" stroke="#191970" points="371.3343,-2176.7403 371.6283,-2166.1495 364.794,-2174.2453 371.3343,-2176.7403"/>
</g>
<!-- Node48 -->
<g id="node48" class="node">
<title>Node48</title>
<g id="a_node48"><a xlink:href="../../d6/dcf/pythia6425mod_8f.html#a7fce06ff25ae6503bb24f0f3c9b453b3" target="_top" xlink:title="pyptfs">
<polygon fill="none" stroke="#ff0000" points="479,-2223 479,-2243 527,-2243 527,-2223 479,-2223"/>
<text text-anchor="middle" x="503" y="-2230" font-family="FreeSans" font-size="10.00" fill="#000000">pyptfs</text>
</a>
</g>
</g>
<!-- Node36&#45;&gt;Node48 -->
<g id="edge145" class="edge">
<title>Node36&#45;&gt;Node48</title>
<path fill="none" stroke="#191970" d="M301.1724,-2377.83C337.8755,-2351.4921 436.252,-2280.8979 480.6799,-2249.0168"/>
<polygon fill="#191970" stroke="#191970" points="482.9722,-2251.6797 489.0563,-2243.0059 478.8911,-2245.9925 482.9722,-2251.6797"/>
</g>
<!-- Node38&#45;&gt;Node14 -->
<g id="edge90" class="edge">
<title>Node38&#45;&gt;Node14</title>
<path fill="none" stroke="#191970" d="M528.2573,-2695.1454C578.6792,-2695.4228 695.4052,-2696 793.5,-2696 793.5,-2696 793.5,-2696 980.5,-2696 1034.6717,-2696 1051.546,-2696.2235 1100,-2672 1125.9348,-2659.0345 1149.9044,-2635.3424 1164.5988,-2618.9116"/>
<polygon fill="#191970" stroke="#191970" points="1167.4875,-2620.9229 1171.3988,-2611.0764 1162.2009,-2616.3346 1167.4875,-2620.9229"/>
</g>
<!-- Node38&#45;&gt;Node39 -->
<g id="edge89" class="edge">
<title>Node38&#45;&gt;Node39</title>
<path fill="none" stroke="#191970" d="M528.2732,-2701.3381C554.9893,-2708.0381 597.3293,-2718.6563 627.3041,-2726.1734"/>
<polygon fill="#191970" stroke="#191970" points="626.794,-2729.6538 637.345,-2728.6915 628.4968,-2722.8641 626.794,-2729.6538"/>
</g>
<!-- Node38&#45;&gt;Node40 -->
<g id="edge91" class="edge">
<title>Node38&#45;&gt;Node40</title>
<path fill="none" stroke="#191970" d="M528.2732,-2688.9788C558.3149,-2681.8215 608.1124,-2669.9575 637.8691,-2662.8682"/>
<polygon fill="#191970" stroke="#191970" points="638.9351,-2666.2123 647.8516,-2660.4899 637.3127,-2659.4028 638.9351,-2666.2123"/>
</g>
<!-- Node38&#45;&gt;Node41 -->
<g id="edge92" class="edge">
<title>Node38&#45;&gt;Node41</title>
<path fill="none" stroke="#191970" d="M516.8756,-2684.9087C544.5662,-2664.77 606.8889,-2619.4444 640.3185,-2595.132"/>
<polygon fill="#191970" stroke="#191970" points="642.5142,-2597.8629 648.5429,-2589.1506 638.3969,-2592.2018 642.5142,-2597.8629"/>
</g>
<!-- Node41&#45;&gt;Node3 -->
<g id="edge93" class="edge">
<title>Node41&#45;&gt;Node3</title>
<path fill="none" stroke="#191970" d="M670.7441,-2568.8846C684.3322,-2551.5344 711.0188,-2514.4381 722,-2478 765.5358,-2333.5387 737.3897,-1949.4646 758,-1800 764.913,-1749.8673 779.6558,-1692.1191 787.7997,-1662.2508"/>
<polygon fill="#191970" stroke="#191970" points="791.2753,-1662.8137 790.5677,-1652.2426 784.5286,-1660.9477 791.2753,-1662.8137"/>
</g>
<!-- Node41&#45;&gt;Node16 -->
<g id="edge94" class="edge">
<title>Node41&#45;&gt;Node16</title>
<path fill="none" stroke="#191970" d="M687.7098,-2575.5078C765.1016,-2563.3033 1000.0671,-2514.8753 1100,-2366 1161.6806,-2274.1112 1177.0388,-1441.6668 1179.2098,-1300.3448"/>
<polygon fill="#191970" stroke="#191970" points="1182.713,-1300.1476 1179.3624,-1290.0965 1175.7138,-1300.0433 1182.713,-1300.1476"/>
</g>
<!-- Node42&#45;&gt;Node8 -->
<g id="edge97" class="edge">
<title>Node42&#45;&gt;Node8</title>
<path fill="none" stroke="#191970" d="M982.8752,-2235.8844C988.4296,-2211.8049 1002.3021,-2149.1247 1009,-2096 1040.7525,-1844.1557 1024.8073,-1779.0337 1045,-1526 1052.9455,-1426.435 1065.3599,-1307.5895 1070.333,-1261.0675"/>
<polygon fill="#191970" stroke="#191970" points="1073.817,-1261.4028 1071.4047,-1251.0863 1066.857,-1260.6555 1073.817,-1261.4028"/>
</g>
<!-- Node42&#45;&gt;Node16 -->
<g id="edge96" class="edge">
<title>Node42&#45;&gt;Node16</title>
<path fill="none" stroke="#191970" d="M1008.0555,-2248.7746C1035.693,-2249.8754 1077.3149,-2246.6349 1100,-2221 1163.2145,-2149.5653 1177.1959,-1430.3333 1179.2157,-1300.1475"/>
<polygon fill="#191970" stroke="#191970" points="1182.7173,-1300.0548 1179.3669,-1290.0037 1175.7181,-1299.9504 1182.7173,-1300.0548"/>
</g>
<!-- Node43&#45;&gt;Node14 -->
<g id="edge103" class="edge">
<title>Node43&#45;&gt;Node14</title>
<path fill="none" stroke="#191970" d="M528.8038,-2809.1861C579.2332,-2822.5765 694.5869,-2850 793.5,-2850 793.5,-2850 793.5,-2850 980.5,-2850 1097.4732,-2850 1156.9503,-2680.2403 1174.1311,-2621.059"/>
<polygon fill="#191970" stroke="#191970" points="1177.6022,-2621.643 1176.9299,-2611.0695 1170.8617,-2619.7544 1177.6022,-2621.643"/>
</g>
<!-- Node43&#45;&gt;Node16 -->
<g id="edge104" class="edge">
<title>Node43&#45;&gt;Node16</title>
<path fill="none" stroke="#191970" d="M528.7536,-2805.3811C570.8806,-2809.8312 656.3995,-2814.2906 722,-2788 928.1963,-2705.3631 1005.2964,-2661.9403 1100,-2461 1151.4462,-2351.8424 1175.4137,-1448.7479 1179.0168,-1300.5426"/>
<polygon fill="#191970" stroke="#191970" points="1182.5242,-1300.2745 1179.2649,-1290.1935 1175.5262,-1300.1067 1182.5242,-1300.2745"/>
</g>
<!-- Node43&#45;&gt;Node40 -->
<g id="edge102" class="edge">
<title>Node43&#45;&gt;Node40</title>
<path fill="none" stroke="#191970" d="M514.2157,-2791.8039C541.148,-2767.32 609.7231,-2704.979 643.3371,-2674.4208"/>
<polygon fill="#191970" stroke="#191970" points="646.0381,-2676.6955 651.0832,-2667.3789 641.3294,-2671.5159 646.0381,-2676.6955"/>
</g>
<!-- Node44&#45;&gt;Node3 -->
<g id="edge110" class="edge">
<title>Node44&#45;&gt;Node3</title>
<path fill="none" stroke="#191970" d="M518.414,-2606.985C564.3216,-2576.8075 698.42,-2486.0064 722,-2440 786.9726,-2313.2336 738.3197,-1941.081 758,-1800 764.9918,-1749.8783 779.7026,-1692.1256 787.8205,-1662.2537"/>
<polygon fill="#191970" stroke="#191970" points="791.2963,-1662.8147 790.5791,-1652.2441 784.5479,-1660.9548 791.2963,-1662.8147"/>
</g>
<!-- Node44&#45;&gt;Node16 -->
<g id="edge111" class="edge">
<title>Node44&#45;&gt;Node16</title>
<path fill="none" stroke="#191970" d="M527.3188,-2618.6391C625.3026,-2623.7092 991.0885,-2627.4545 1100,-2411 1151.8997,-2307.8528 1175.4486,-1443.609 1179.0161,-1300.1432"/>
<polygon fill="#191970" stroke="#191970" points="1182.5161,-1300.1855 1179.2622,-1290.1028 1175.5182,-1300.014 1182.5161,-1300.1855"/>
</g>
<!-- Node44&#45;&gt;Node39 -->
<g id="edge109" class="edge">
<title>Node44&#45;&gt;Node39</title>
<path fill="none" stroke="#191970" d="M516.5989,-2627.0606C544.261,-2647.5254 607.2869,-2694.1527 640.7261,-2718.8914"/>
<polygon fill="#191970" stroke="#191970" points="638.8148,-2721.8311 648.9355,-2724.9649 642.978,-2716.2037 638.8148,-2721.8311"/>
</g>
<!-- Node45&#45;&gt;Node15 -->
<g id="edge113" class="edge">
<title>Node45&#45;&gt;Node15</title>
<path fill="none" stroke="#191970" d="M996.4398,-1878.8124C1001.3365,-1874.8213 1006.1751,-1869.7987 1009,-1864 1071.6775,-1735.3425 1029.8102,-1363.3043 1045,-1221 1050.9817,-1164.9615 1062.6007,-1099.442 1068.642,-1067.1264"/>
<polygon fill="#191970" stroke="#191970" points="1072.1093,-1067.6268 1070.5279,-1057.1507 1065.2312,-1066.3265 1072.1093,-1067.6268"/>
</g>
<!-- Node45&#45;&gt;Node16 -->
<g id="edge114" class="edge">
<title>Node45&#45;&gt;Node16</title>
<path fill="none" stroke="#191970" d="M995.0802,-1878.8677C1000.096,-1874.7554 1005.3598,-1869.6408 1009,-1864 1134.821,-1669.0276 1170.2567,-1378.5949 1177.7769,-1300.1406"/>
<polygon fill="#191970" stroke="#191970" points="1181.2661,-1300.4172 1178.6913,-1290.14 1174.2952,-1299.7798 1181.2661,-1300.4172"/>
</g>
<!-- Node46&#45;&gt;Node3 -->
<g id="edge116" class="edge">
<title>Node46&#45;&gt;Node3</title>
<path fill="none" stroke="#191970" d="M401.6998,-1073.6093C441.9429,-1080.4167 519.3064,-1098.6732 567,-1143 594.6718,-1168.7184 581.2508,-1189.111 603,-1220 645.8807,-1280.9007 685.6193,-1273.007 722,-1338 749.9268,-1387.8903 780.3681,-1561.9125 790.2257,-1621.6703"/>
<polygon fill="#191970" stroke="#191970" points="786.8035,-1622.4312 791.869,-1631.7367 793.7121,-1621.3034 786.8035,-1622.4312"/>
</g>
<!-- Node46&#45;&gt;Node4 -->
<g id="edge118" class="edge">
<title>Node46&#45;&gt;Node4</title>
<path fill="none" stroke="#191970" d="M401.6039,-1069.0762C474.0591,-1067.6143 681.9945,-1070.9724 829,-1149 838.349,-1153.9623 857.8957,-1171.3438 872.4568,-1184.8645"/>
<polygon fill="#191970" stroke="#191970" points="870.2473,-1187.5907 879.9371,-1191.8755 875.0343,-1182.4833 870.2473,-1187.5907"/>
</g>
<!-- Node46&#45;&gt;Node15 -->
<g id="edge119" class="edge">
<title>Node46&#45;&gt;Node15</title>
<path fill="none" stroke="#191970" d="M386.102,-1059.7748C431.1756,-1017.427 612.86,-858 793.5,-858 793.5,-858 793.5,-858 890.5,-858 944.236,-858 967.9567,-847.3156 1009,-882 1053.4243,-919.5416 1066.8743,-991.9101 1070.8644,-1026.9784"/>
<polygon fill="#191970" stroke="#191970" points="1067.3847,-1027.3565 1071.8548,-1036.9621 1074.3505,-1026.6654 1067.3847,-1027.3565"/>
</g>
<!-- Node46&#45;&gt;Node17 -->
<g id="edge117" class="edge">
<title>Node46&#45;&gt;Node17</title>
<path fill="none" stroke="#191970" d="M363.4906,-1080.0324C341.9307,-1098.3353 295.7651,-1138.8751 262,-1178 242.6601,-1200.4099 223.5179,-1228.7762 211.7322,-1247.1496"/>
<polygon fill="#191970" stroke="#191970" points="208.6712,-1245.4414 206.2776,-1255.7623 214.585,-1249.1867 208.6712,-1245.4414"/>
</g>
<!-- Node47&#45;&gt;Node3 -->
<g id="edge123" class="edge">
<title>Node47&#45;&gt;Node3</title>
<path fill="none" stroke="#191970" d="M380.1113,-2145.8574C388.9723,-2127.435 410.0916,-2088.3232 439,-2066 487.0886,-2028.8658 528.5928,-2065.078 567,-2018 631.8506,-1938.5088 536.1952,-1867.856 603,-1790 639.1541,-1747.8651 677.8605,-1785.6775 722,-1752 753.3724,-1728.0635 775.0288,-1686.1453 785.7514,-1661.5469"/>
<polygon fill="#191970" stroke="#191970" points="789.0444,-1662.7441 789.6739,-1652.168 782.5865,-1660.0432 789.0444,-1662.7441"/>
</g>
<!-- Node47&#45;&gt;Node5 -->
<g id="edge122" class="edge">
<title>Node47&#45;&gt;Node5</title>
<path fill="none" stroke="#191970" d="M383.3772,-2145.6433C394.3718,-2131.8876 415.6168,-2107.7326 439,-2094 490.1709,-2063.9481 515.3621,-2085.2423 567,-2056 585.8869,-2045.3044 583.8924,-2033.2961 603,-2023 634.82,-2005.8538 877.0962,-1951.0191 955.8524,-1933.4626"/>
<polygon fill="#191970" stroke="#191970" points="956.8397,-1936.8286 965.841,-1931.2405 955.3196,-1929.9956 956.8397,-1936.8286"/>
</g>
<!-- Node47&#45;&gt;Node13 -->
<g id="edge141" class="edge">
<title>Node47&#45;&gt;Node13</title>
<path fill="none" stroke="#191970" d="M403.1024,-2163.4523C414.1724,-2166.0812 427.104,-2168.7042 439,-2170 495.5544,-2176.1604 510.4465,-2176.1679 567,-2170 669.4826,-2158.823 690.4097,-2120 793.5,-2120 793.5,-2120 793.5,-2120 890.5,-2120 944.236,-2120 972.6493,-2135.575 1009,-2096 1027.3542,-2076.0177 1062.7381,-1663.3231 1070.8258,-1566.2962"/>
<polygon fill="#191970" stroke="#191970" points="1074.3348,-1566.3313 1071.6738,-1556.0761 1067.3588,-1565.7524 1074.3348,-1566.3313"/>
</g>
<!-- Node47&#45;&gt;Node14 -->
<g id="edge139" class="edge">
<title>Node47&#45;&gt;Node14</title>
<path fill="none" stroke="#191970" d="M377.3731,-2166.0027C382.5211,-2190.6448 399.2319,-2254.6857 439,-2288 451.5129,-2298.4823 706.7816,-2361.0965 722,-2367 897.4878,-2435.0747 933.2024,-2470.7722 1100,-2558 1117.503,-2567.1533 1137.0141,-2577.7013 1152.3269,-2586.0594"/>
<polygon fill="#191970" stroke="#191970" points="1150.8105,-2589.2193 1161.2633,-2590.9485 1154.1703,-2583.0783 1150.8105,-2589.2193"/>
</g>
<!-- Node47&#45;&gt;Node15 -->
<g id="edge137" class="edge">
<title>Node47&#45;&gt;Node15</title>
<path fill="none" stroke="#191970" d="M403.2109,-2153.353C440.5612,-2149.5971 509.0603,-2142.0455 567,-2132 617.7874,-2123.1945 741.9549,-2082 793.5,-2082 793.5,-2082 793.5,-2082 890.5,-2082 970.3359,-2082 979.0188,-2020.9926 1009,-1947 1069.6607,-1797.2912 1028.3679,-1381.673 1045,-1221 1050.8028,-1164.9427 1062.5005,-1099.4315 1068.5999,-1067.122"/>
<polygon fill="#191970" stroke="#191970" points="1072.0666,-1067.6274 1070.505,-1057.1483 1065.1909,-1066.314 1072.0666,-1067.6274"/>
</g>
<!-- Node47&#45;&gt;Node16 -->
<g id="edge142" class="edge">
<title>Node47&#45;&gt;Node16</title>
<path fill="none" stroke="#191970" d="M378.6834,-2166.2208C385.7177,-2186.8302 404.7392,-2233.0212 439,-2252 503.2469,-2287.5897 1050.8012,-2302.5322 1100,-2248 1165.7843,-2175.0844 1177.6751,-1433.2731 1179.2826,-1300.3389"/>
<polygon fill="#191970" stroke="#191970" points="1182.7828,-1300.3384 1179.398,-1290.2988 1175.7832,-1300.2578 1182.7828,-1300.3384"/>
</g>
<!-- Node47&#45;&gt;Node20 -->
<g id="edge140" class="edge">
<title>Node47&#45;&gt;Node20</title>
<path fill="none" stroke="#191970" d="M377.0361,-2145.9725C382.437,-2112.1903 402.2419,-1999.8494 439,-1914 493.6665,-1786.3252 518.4334,-1758.1716 603,-1648 615.6242,-1631.5534 631.8995,-1614.5569 644.2364,-1602.3687"/>
<polygon fill="#191970" stroke="#191970" points="646.9717,-1604.5906 651.6968,-1595.1078 642.0895,-1599.5742 646.9717,-1604.5906"/>
</g>
<!-- Node47&#45;&gt;Node28 -->
<g id="edge144" class="edge">
<title>Node47&#45;&gt;Node28</title>
<path fill="none" stroke="#191970" d="M379.4255,-2145.747C388.658,-2121.9997 412.9435,-2061.6181 439,-2014 488.7647,-1923.0553 515.0333,-1908.7046 567,-1819 584.735,-1788.3859 583.6125,-1777.5952 603,-1748 648.4962,-1678.5498 679.8503,-1675.5307 722,-1604 754.3469,-1549.1052 777.6956,-1476.8753 787.8533,-1442.2358"/>
<polygon fill="#191970" stroke="#191970" points="791.2875,-1442.9572 790.6824,-1432.3796 784.5592,-1441.0258 791.2875,-1442.9572"/>
</g>
<!-- Node47&#45;&gt;Node37 -->
<g id="edge121" class="edge">
<title>Node47&#45;&gt;Node37</title>
<path fill="none" stroke="#191970" d="M376.1809,-2166.1734C378.7096,-2195.5745 390.1361,-2281.3938 439,-2326 467.1162,-2351.6664 575.8587,-2372.7288 630.6153,-2381.962"/>
<polygon fill="#191970" stroke="#191970" points="630.0561,-2385.417 640.4936,-2383.5978 631.1998,-2378.511 630.0561,-2385.417"/>
</g>
<!-- Node47&#45;&gt;Node40 -->
<g id="edge138" class="edge">
<title>Node47&#45;&gt;Node40</title>
<path fill="none" stroke="#191970" d="M377.4918,-2166.2768C383.708,-2197.0973 404.4283,-2291.0044 439,-2362 494.9202,-2476.8364 520.8657,-2500.1817 603,-2598 615.5848,-2612.9879 631.3744,-2628.5168 643.525,-2639.879"/>
<polygon fill="#191970" stroke="#191970" points="641.1909,-2642.4876 650.9139,-2646.6963 645.9376,-2637.3428 641.1909,-2642.4876"/>
</g>
<!-- Node47&#45;&gt;Node48 -->
<g id="edge124" class="edge">
<title>Node47&#45;&gt;Node48</title>
<path fill="none" stroke="#191970" d="M385.9563,-2166.3337C397.9444,-2177.7382 418.583,-2196.0571 439,-2208 448.3441,-2213.4658 459.1059,-2218.1981 469.1061,-2222.03"/>
<polygon fill="#191970" stroke="#191970" points="468.1778,-2225.4169 478.7717,-2225.5556 470.5765,-2218.8407 468.1778,-2225.4169"/>
</g>
<!-- Node49 -->
<g id="node49" class="node">
<title>Node49</title>
<g id="a_node49"><a xlink:href="../../d6/dcf/pythia6425mod_8f.html#a77daa748922eb89e9148b8a9f2eebaff" target="_top" xlink:title="pymael">
<polygon fill="none" stroke="#000000" points="636,-2033 636,-2053 689,-2053 689,-2033 636,-2033"/>
<text text-anchor="middle" x="662.5" y="-2040" font-family="FreeSans" font-size="10.00" fill="#000000">pymael</text>
</a>
</g>
</g>
<!-- Node47&#45;&gt;Node49 -->
<g id="edge143" class="edge">
<title>Node47&#45;&gt;Node49</title>
<path fill="none" stroke="#191970" d="M403.1938,-2149.9231C441.4068,-2140.9038 511.8336,-2121.9739 567,-2094 584.6027,-2085.074 585.7908,-2077.663 603,-2068 610.3625,-2063.866 618.5464,-2059.9994 626.43,-2056.6012"/>
<polygon fill="#191970" stroke="#191970" points="627.9285,-2059.7688 635.822,-2052.7017 625.2443,-2053.3038 627.9285,-2059.7688"/>
</g>
<!-- Node48&#45;&gt;Node3 -->
<g id="edge126" class="edge">
<title>Node48&#45;&gt;Node3</title>
<path fill="none" stroke="#191970" d="M507.689,-2222.8979C521.8136,-2192.5239 565.3033,-2099.411 603,-2023 654.4457,-1918.72 670.2613,-1894.135 722,-1790 744.8427,-1744.0243 770.8913,-1689.5755 784.3585,-1661.2687"/>
<polygon fill="#191970" stroke="#191970" points="787.5909,-1662.6211 788.7216,-1652.0868 781.2684,-1659.6167 787.5909,-1662.6211"/>
</g>
<!-- Node48&#45;&gt;Node4 -->
<g id="edge136" class="edge">
<title>Node48&#45;&gt;Node4</title>
<path fill="none" stroke="#191970" d="M525.3297,-2222.8958C570.9928,-2200.9384 674.7204,-2144.155 722,-2062 780.6273,-1960.1268 722.7717,-1912.1351 758,-1800 778.7915,-1733.8187 808.3196,-1727.2161 829,-1661 880.1005,-1497.3828 888.7417,-1287.9401 890.2027,-1222.48"/>
<polygon fill="#191970" stroke="#191970" points="893.7057,-1222.3519 890.3959,-1212.2873 886.707,-1222.2192 893.7057,-1222.3519"/>
</g>
<!-- Node48&#45;&gt;Node13 -->
<g id="edge132" class="edge">
<title>Node48&#45;&gt;Node13</title>
<path fill="none" stroke="#191970" d="M527.2392,-2229.9559C623.5548,-2217.636 975.5962,-2170.3942 1009,-2134 1028.6798,-2112.5584 1063.3184,-1667.7493 1070.9743,-1566.4205"/>
<polygon fill="#191970" stroke="#191970" points="1074.4771,-1566.5137 1071.7368,-1556.2794 1067.4968,-1565.9888 1074.4771,-1566.5137"/>
</g>
<!-- Node48&#45;&gt;Node14 -->
<g id="edge130" class="edge">
<title>Node48&#45;&gt;Node14</title>
<path fill="none" stroke="#191970" d="M519.7198,-2243.1738C607.9519,-2296.8432 1016.4784,-2545.0988 1045,-2558 1080.2546,-2573.9467 1123.1644,-2586.5752 1150.8886,-2593.9154"/>
<polygon fill="#191970" stroke="#191970" points="1150.1646,-2597.3433 1160.723,-2596.4655 1151.9217,-2590.5674 1150.1646,-2597.3433"/>
</g>
<!-- Node48&#45;&gt;Node16 -->
<g id="edge127" class="edge">
<title>Node48&#45;&gt;Node16</title>
<path fill="none" stroke="#191970" d="M527.2982,-2240.3426C628.4775,-2270.2448 1015.0305,-2377.5986 1100,-2299 1138.129,-2263.7299 1173.0216,-1440.3834 1178.6959,-1300.2014"/>
<polygon fill="#191970" stroke="#191970" points="1182.2001,-1300.1638 1179.1046,-1290.0313 1175.2058,-1299.8826 1182.2001,-1300.1638"/>
</g>
<!-- Node48&#45;&gt;Node20 -->
<g id="edge131" class="edge">
<title>Node48&#45;&gt;Node20</title>
<path fill="none" stroke="#191970" d="M506.3292,-2222.7801C516.2856,-2192.0256 546.4151,-2097.554 567,-2018 607.8463,-1860.1421 646.4792,-1667.0765 658.5979,-1605.1356"/>
<polygon fill="#191970" stroke="#191970" points="662.0695,-1605.6187 660.5467,-1595.1338 655.1987,-1604.2798 662.0695,-1605.6187"/>
</g>
<!-- Node48&#45;&gt;Node33 -->
<g id="edge128" class="edge">
<title>Node48&#45;&gt;Node33</title>
<path fill="none" stroke="#191970" d="M503.647,-2222.6932C508.1651,-2152.7044 536.7783,-1740.0839 603,-1411 617.2881,-1339.9964 643.4079,-1257.9568 655.7275,-1220.94"/>
<polygon fill="#191970" stroke="#191970" points="659.083,-1221.9419 658.9477,-1211.348 652.447,-1219.7141 659.083,-1221.9419"/>
</g>
<!-- Node48&#45;&gt;Node37 -->
<g id="edge125" class="edge">
<title>Node48&#45;&gt;Node37</title>
<path fill="none" stroke="#191970" d="M513.4652,-2243.1044C540.1566,-2268.8753 611.0176,-2337.2928 644.4977,-2369.6184"/>
<polygon fill="#191970" stroke="#191970" points="642.162,-2372.2284 651.7871,-2376.6565 647.0241,-2367.1926 642.162,-2372.2284"/>
</g>
<!-- Node48&#45;&gt;Node40 -->
<g id="edge129" class="edge">
<title>Node48&#45;&gt;Node40</title>
<path fill="none" stroke="#191970" d="M505.4695,-2243.24C518.9804,-2299.0802 584.0325,-2565.5172 603,-2598 612.6279,-2614.4883 628.0234,-2629.5782 640.7417,-2640.3695"/>
<polygon fill="#191970" stroke="#191970" points="638.6672,-2643.1942 648.6253,-2646.8117 643.0965,-2637.7738 638.6672,-2643.1942"/>
</g>
<!-- Node48&#45;&gt;Node49 -->
<g id="edge133" class="edge">
<title>Node48&#45;&gt;Node49</title>
<path fill="none" stroke="#191970" d="M511.5754,-2222.7848C537.3226,-2192.1142 614.2056,-2100.5294 647.1922,-2061.235"/>
<polygon fill="#191970" stroke="#191970" points="650.1333,-2063.1751 653.8822,-2053.2657 644.7719,-2058.6744 650.1333,-2063.1751"/>
</g>
<!-- Node49&#45;&gt;Node3 -->
<g id="edge135" class="edge">
<title>Node49&#45;&gt;Node3</title>
<path fill="none" stroke="#191970" d="M676.144,-2032.8476C690.156,-2021.5976 711.3718,-2002.0995 722,-1980 771.7975,-1876.4549 726.8954,-1834.6069 758,-1724 764.2948,-1701.6158 775.3885,-1677.3325 783.5034,-1661.0478"/>
<polygon fill="#191970" stroke="#191970" points="786.6769,-1662.5291 788.1017,-1652.0304 780.4408,-1659.3491 786.6769,-1662.5291"/>
</g>
<!-- Node49&#45;&gt;Node5 -->
<g id="edge134" class="edge">
<title>Node49&#45;&gt;Node5</title>
<path fill="none" stroke="#191970" d="M689.0817,-2047.1521C737.7415,-2053.3647 842.8504,-2060.2366 916,-2018 943.6114,-2002.0572 962.5191,-1968.9944 972.4109,-1947.6874"/>
<polygon fill="#191970" stroke="#191970" points="975.7182,-1948.8613 976.5414,-1938.2985 969.3108,-1946.0425 975.7182,-1948.8613"/>
</g>
<!-- Node50&#45;&gt;Node3 -->
<g id="edge150" class="edge">
<title>Node50&#45;&gt;Node3</title>
<path fill="none" stroke="#191970" d="M526.2814,-554.0508C577.4461,-559.0796 697.1156,-573.8694 722,-604 751.6381,-639.8864 752.9415,-1394.7327 758,-1441 765.2946,-1507.7203 781.228,-1585.7405 789.0239,-1621.8167"/>
<polygon fill="#191970" stroke="#191970" points="785.6092,-1622.5851 791.1636,-1631.6073 792.4478,-1621.0906 785.6092,-1622.5851"/>
</g>
<!-- Node50&#45;&gt;Node11 -->
<g id="edge158" class="edge">
<title>Node50&#45;&gt;Node11</title>
<path fill="none" stroke="#191970" d="M526.2577,-545.5751C569.1739,-535.1902 661.9107,-519.7749 722,-561 755.1564,-583.7474 740.9532,-607.583 758,-644 835.6273,-809.8354 938.2226,-1005.909 970.4037,-1066.9216"/>
<polygon fill="#191970" stroke="#191970" points="967.3421,-1068.6191 975.1072,-1075.8271 973.5318,-1065.35 967.3421,-1068.6191"/>
</g>
<!-- Node50&#45;&gt;Node14 -->
<g id="edge160" class="edge">
<title>Node50&#45;&gt;Node14</title>
<path fill="none" stroke="#191970" d="M523.4635,-541.9779C543.2623,-532.8783 574.3922,-520.1227 603,-515 655.0608,-505.6776 670.2111,-504.2693 722,-515 943.553,-560.9059 1038.8888,-638.1503 1100,-856 1124.4954,-943.3213 1172.639,-2391.4387 1178.8374,-2580.6664"/>
<polygon fill="#191970" stroke="#191970" points="1175.3461,-2580.9922 1179.171,-2590.8725 1182.3424,-2580.7635 1175.3461,-2580.9922"/>
</g>
<!-- Node50&#45;&gt;Node15 -->
<g id="edge155" class="edge">
<title>Node50&#45;&gt;Node15</title>
<path fill="none" stroke="#191970" d="M526.2624,-543.0362C567.2558,-528.6644 654.4156,-504.5397 722,-530 880.8501,-589.8419 921.3314,-636.6431 1009,-782 1034.3772,-824.0761 1060.38,-972.3475 1069.2846,-1026.7721"/>
<polygon fill="#191970" stroke="#191970" points="1065.8689,-1027.5754 1070.9189,-1036.8892 1072.7793,-1026.4591 1065.8689,-1027.5754"/>
</g>
<!-- Node50&#45;&gt;Node16 -->
<g id="edge154" class="edge">
<title>Node50&#45;&gt;Node16</title>
<path fill="none" stroke="#191970" d="M508.9254,-541.7962C522.3942,-519.68 557.6847,-467.5097 603,-445 800.8304,-346.7309 965.7394,-272.5926 1100,-448 1154.8917,-519.7144 1085.5988,-1185.0615 1136,-1260 1140.0517,-1266.0243 1146.4024,-1270.2659 1153.0117,-1273.2401"/>
<polygon fill="#191970" stroke="#191970" points="1152.0484,-1276.6142 1162.6424,-1276.7506 1154.4458,-1270.0375 1152.0484,-1276.6142"/>
</g>
<!-- Node50&#45;&gt;Node20 -->
<g id="edge151" class="edge">
<title>Node50&#45;&gt;Node20</title>
<path fill="none" stroke="#191970" d="M526.2506,-552.4831C540.3704,-554.1142 557.4583,-558.7455 567,-571 627.0525,-648.1264 580.9031,-1354.7818 603,-1450 613.1208,-1493.6117 637.1605,-1540.6064 651.393,-1566.0318"/>
<polygon fill="#191970" stroke="#191970" points="648.4907,-1568.0077 656.4868,-1574.9584 654.5704,-1564.5383 648.4907,-1568.0077"/>
</g>
<!-- Node50&#45;&gt;Node24 -->
<g id="edge149" class="edge">
<title>Node50&#45;&gt;Node24</title>
<path fill="none" stroke="#191970" d="M526.2775,-553.0679C540.0431,-554.9558 556.738,-559.6527 567,-571 624.3557,-634.4218 562.8382,-684.5081 603,-760 611.9116,-776.7511 627.1875,-791.7484 640.0293,-802.4308"/>
<polygon fill="#191970" stroke="#191970" points="638.0235,-805.3077 648.0254,-808.8025 642.386,-799.8333 638.0235,-805.3077"/>
</g>
<!-- Node50&#45;&gt;Node26 -->
<g id="edge153" class="edge">
<title>Node50&#45;&gt;Node26</title>
<path fill="none" stroke="#191970" d="M526.0906,-553.2411C539.7858,-555.1941 556.4724,-559.8987 567,-571 614.1765,-620.7476 556.7185,-670.4187 603,-721 609.825,-728.4591 619.5174,-733.1385 629.1028,-736.0733"/>
<polygon fill="#191970" stroke="#191970" points="628.3766,-739.4996 638.9282,-738.5435 630.0834,-732.7108 628.3766,-739.4996"/>
</g>
<!-- Node50&#45;&gt;Node27 -->
<g id="edge156" class="edge">
<title>Node50&#45;&gt;Node27</title>
<path fill="none" stroke="#191970" d="M526.1666,-554.295C539.3824,-556.6428 555.5439,-561.3923 567,-571 594.4129,-593.9898 582.0196,-614.0203 603,-643 614.3367,-658.6591 629.937,-673.9595 642.3194,-685.0539"/>
<polygon fill="#191970" stroke="#191970" points="640.0838,-687.7484 649.9147,-691.6987 644.6929,-682.48 640.0838,-687.7484"/>
</g>
<!-- Node50&#45;&gt;Node29 -->
<g id="edge157" class="edge">
<title>Node50&#45;&gt;Node29</title>
<path fill="none" stroke="#191970" d="M526.0025,-556.6307C538.5539,-559.6913 554.1147,-564.3765 567,-571 585.0275,-580.2668 585.505,-588.7633 603,-599 610.9399,-603.6458 619.9068,-607.883 628.4254,-611.496"/>
<polygon fill="#191970" stroke="#191970" points="627.1921,-614.7728 637.7739,-615.2983 629.8295,-608.2886 627.1921,-614.7728"/>
</g>
<!-- Node50&#45;&gt;Node34 -->
<g id="edge152" class="edge">
<title>Node50&#45;&gt;Node34</title>
<path fill="none" stroke="#191970" d="M504.4807,-541.6171C510.1315,-505.844 533.6334,-386.4882 603,-324 610.3367,-317.3908 619.9825,-313.0795 629.3663,-310.2675"/>
<polygon fill="#191970" stroke="#191970" points="630.4779,-313.5971 639.3243,-307.7669 628.773,-306.8079 630.4779,-313.5971"/>
</g>
<!-- Node50&#45;&gt;Node35 -->
<g id="edge159" class="edge">
<title>Node50&#45;&gt;Node35</title>
<path fill="none" stroke="#191970" d="M506.6109,-541.8373C517.2355,-513.1758 550.9487,-430.5687 603,-381 606.7008,-377.4757 610.8808,-374.2488 615.2671,-371.321"/>
<polygon fill="#191970" stroke="#191970" points="617.1734,-374.2579 623.8844,-366.0596 613.5256,-368.2835 617.1734,-374.2579"/>
</g>
</g>
</svg>
