<?xml version="1.0" encoding="UTF-8" standalone="no"?>
<!DOCTYPE svg PUBLIC "-//W3C//DTD SVG 1.1//EN"
 "http://www.w3.org/Graphics/SVG/1.1/DTD/svg11.dtd">
<!-- Generated by graphviz version 2.40.1 (20161225.0304)
 -->
<!-- Title: pyexec Pages: 1 -->
<svg width="1099pt" height="2892pt"
 viewBox="0.00 0.00 1099.00 2892.00" xmlns="http://www.w3.org/2000/svg" xmlns:xlink="http://www.w3.org/1999/xlink">
<g id="graph0" class="graph" transform="scale(1 1) rotate(0) translate(4 2888)">
<title>pyexec</title>
<!-- Node1 -->
<g id="node1" class="node">
<title>Node1</title>
<polygon fill="#bfbfbf" stroke="#000000" points="0,-1193 0,-1213 52,-1213 52,-1193 0,-1193"/>
<text text-anchor="middle" x="26" y="-1200" font-family="FreeSans" font-size="10.00" fill="#000000">pyexec</text>
</g>
<!-- Node2 -->
<g id="node2" class="node">
<title>Node2</title>
<g id="a_node2"><a xlink:href="../../dc/d9f/hcalUtil_8C.html#af562b1ac3ac927ecde202ce0501a97a6" target="_top" xlink:title="ps">
<polygon fill="none" stroke="#000000" points="884,-681 884,-701 913,-701 913,-681 884,-681"/>
<text text-anchor="middle" x="898.5" y="-688" font-family="FreeSans" font-size="10.00" fill="#000000">ps</text>
</a>
</g>
</g>
<!-- Node1&#45;&gt;Node2 -->
<g id="edge1" class="edge">
<title>Node1&#45;&gt;Node2</title>
<path fill="none" stroke="#191970" d="M26.3046,-1192.7329C29.1923,-1097.0609 52.4229,-363.0107 88,-273 110.1732,-216.9013 126.1674,-204.7527 174,-168 376.3378,-12.5313 592.6948,-.7735 747,-204 862.8981,-356.6428 891.1156,-599.3129 897.0681,-670.6506"/>
<polygon fill="#191970" stroke="#191970" points="893.6023,-671.2278 897.8665,-680.9266 900.5812,-670.6855 893.6023,-671.2278"/>
</g>
<!-- Node4 -->
<g id="node4" class="node">
<title>Node4</title>
<g id="a_node4"><a xlink:href="../../d6/dcf/pythia6425mod_8f.html#a75d3d9086fc46ac587fe0bdf03c46f63" target="_top" xlink:title="pyboei">
<polygon fill="none" stroke="#000000" points="262.5,-2109 262.5,-2129 312.5,-2129 312.5,-2109 262.5,-2109"/>
<text text-anchor="middle" x="287.5" y="-2116" font-family="FreeSans" font-size="10.00" fill="#000000">pyboei</text>
</a>
</g>
</g>
<!-- Node1&#45;&gt;Node4 -->
<g id="edge3" class="edge">
<title>Node1&#45;&gt;Node4</title>
<path fill="none" stroke="#191970" d="M26.0309,-1213.2726C26.3998,-1305.9393 31.0553,-1995.8816 88,-2065 127.9001,-2113.43 206.3837,-2120.8923 252.1175,-2120.7586"/>
<polygon fill="#191970" stroke="#191970" points="252.2296,-2124.2574 262.1749,-2120.6049 252.1225,-2117.2582 252.2296,-2124.2574"/>
</g>
<!-- Node9 -->
<g id="node9" class="node">
<title>Node9</title>
<g id="a_node9"><a xlink:href="../../d6/dcf/pythia6425mod_8f.html#a8a7efe2037220dc632000fb06895ebca" target="_top" xlink:title="pyerrm">
<polygon fill="none" stroke="#000000" points="682.5,-1235 682.5,-1255 734.5,-1255 734.5,-1235 682.5,-1235"/>
<text text-anchor="middle" x="708.5" y="-1242" font-family="FreeSans" font-size="10.00" fill="#000000">pyerrm</text>
</a>
</g>
</g>
<!-- Node1&#45;&gt;Node9 -->
<g id="edge50" class="edge">
<title>Node1&#45;&gt;Node9</title>
<path fill="none" stroke="#191970" d="M26.5723,-1192.7695C30.5007,-1123.8758 54.3286,-726.8555 88,-611 135.9274,-446.093 121.8889,-367.0622 260,-265 338.4619,-207.0177 386.993,-217.551 479,-250 498.3759,-256.8335 497.1683,-268.7944 515,-279 564.075,-307.087 600.0062,-278.8153 634,-324 689.9964,-398.4308 705.7079,-1095.8458 708.1412,-1224.611"/>
<polygon fill="#191970" stroke="#191970" points="704.6483,-1225.0375 708.3311,-1234.9717 711.6471,-1224.9092 704.6483,-1225.0375"/>
</g>
<!-- Node10 -->
<g id="node10" class="node">
<title>Node10</title>
<g id="a_node10"><a xlink:href="../../d6/dcf/pythia6425mod_8f.html#acc54128638bbd93cf630e1576f91d443" target="_top" xlink:title="pylist">
<polygon fill="none" stroke="#000000" points="786.5,-1081 786.5,-1101 830.5,-1101 830.5,-1081 786.5,-1081"/>
<text text-anchor="middle" x="808.5" y="-1088" font-family="FreeSans" font-size="10.00" fill="#000000">pylist</text>
</a>
</g>
</g>
<!-- Node1&#45;&gt;Node10 -->
<g id="edge61" class="edge">
<title>Node1&#45;&gt;Node10</title>
<path fill="none" stroke="#191970" d="M26.1266,-1192.9419C27.2397,-1112.3458 36.5739,-570.657 88,-417 133.1567,-282.0755 140.4249,-224.1074 260,-147 294.3353,-124.8591 310.2477,-136.8962 351,-134 542.402,-120.3975 648.477,-141.3398 747,-306 787.417,-373.5483 804.8902,-955.0107 807.9881,-1070.9416"/>
<polygon fill="#191970" stroke="#191970" points="804.4892,-1071.0334 808.25,-1080.9382 811.4868,-1070.8499 804.4892,-1071.0334"/>
</g>
<!-- Node15 -->
<g id="node15" class="node">
<title>Node15</title>
<g id="a_node15"><a xlink:href="../../d6/dcf/pythia6425mod_8f.html#a27f75936fde97780175fa2c990bc61cd" target="_top" xlink:title="pychge">
<polygon fill="none" stroke="#000000" points="964,-1046 964,-1066 1017,-1066 1017,-1046 964,-1046"/>
<text text-anchor="middle" x="990.5" y="-1053" font-family="FreeSans" font-size="10.00" fill="#000000">pychge</text>
</a>
</g>
</g>
<!-- Node1&#45;&gt;Node15 -->
<g id="edge27" class="edge">
<title>Node1&#45;&gt;Node15</title>
<path fill="none" stroke="#191970" d="M26.3395,-1192.8299C29.7022,-1093.202 57.5548,-293.0224 88,-192 116.4419,-97.6251 100.4325,0 199,0 199,0 199,0 708.5,0 949.3865,0 864.1588,-263.4547 927,-496 955.4593,-601.3142 982.5188,-948.0467 989.0243,-1035.7192"/>
<polygon fill="#191970" stroke="#191970" points="985.5501,-1036.2 989.7745,-1045.9162 992.5312,-1035.6863 985.5501,-1036.2"/>
</g>
<!-- Node19 -->
<g id="node19" class="node">
<title>Node19</title>
<g id="a_node19"><a xlink:href="../../d6/dcf/pythia6425mod_8f.html#abeadd88d3e040fcaf7b2b6e31108b30e" target="_top" xlink:title="pydecy">
<polygon fill="none" stroke="#000000" points="261,-2375 261,-2395 314,-2395 314,-2375 261,-2375"/>
<text text-anchor="middle" x="287.5" y="-2382" font-family="FreeSans" font-size="10.00" fill="#000000">pydecy</text>
</a>
</g>
</g>
<!-- Node1&#45;&gt;Node19 -->
<g id="edge28" class="edge">
<title>Node1&#45;&gt;Node19</title>
<path fill="none" stroke="#191970" d="M26.378,-1213.1314C29.886,-1306.0238 57.3178,-2008.3593 88,-2096 128.6898,-2212.2263 229.3626,-2324.9547 270.0361,-2367.3527"/>
<polygon fill="#191970" stroke="#191970" points="267.6455,-2369.915 277.1204,-2374.6559 272.67,-2365.0411 267.6455,-2369.915"/>
</g>
<!-- Node27 -->
<g id="node27" class="node">
<title>Node27</title>
<g id="a_node27"><a xlink:href="../../d6/dcf/pythia6425mod_8f.html#adfef7cf742e4b4fd497224fcccb14869" target="_top" xlink:title="pyindf">
<polygon fill="none" stroke="#000000" points="390.5,-2665 390.5,-2685 439.5,-2685 439.5,-2665 390.5,-2665"/>
<text text-anchor="middle" x="415" y="-2672" font-family="FreeSans" font-size="10.00" fill="#000000">pyindf</text>
</a>
</g>
</g>
<!-- Node1&#45;&gt;Node27 -->
<g id="edge51" class="edge">
<title>Node1&#45;&gt;Node27</title>
<path fill="none" stroke="#191970" d="M26.0505,-1213.0014C26.7278,-1338.071 34.8506,-2595.0405 88,-2650 164.99,-2729.612 313.7696,-2702.6752 380.7954,-2685.1436"/>
<polygon fill="#191970" stroke="#191970" points="381.7103,-2688.522 390.4505,-2682.5337 379.8837,-2681.7645 381.7103,-2688.522"/>
</g>
<!-- Node28 -->
<g id="node28" class="node">
<title>Node28</title>
<g id="a_node28"><a xlink:href="../../d6/dcf/pythia6425mod_8f.html#aa2fbdb46f28af53ae4a8988b1f8246eb" target="_top" xlink:title="pyprep">
<polygon fill="none" stroke="#000000" points="261.5,-1545 261.5,-1565 313.5,-1565 313.5,-1545 261.5,-1545"/>
<text text-anchor="middle" x="287.5" y="-1552" font-family="FreeSans" font-size="10.00" fill="#000000">pyprep</text>
</a>
</g>
</g>
<!-- Node1&#45;&gt;Node28 -->
<g id="edge62" class="edge">
<title>Node1&#45;&gt;Node28</title>
<path fill="none" stroke="#191970" d="M26.7756,-1213.1511C29.7079,-1246.2496 42.3862,-1353.1013 88,-1426 126.319,-1487.2403 205.5889,-1525.0667 251.8379,-1542.8513"/>
<polygon fill="#191970" stroke="#191970" points="250.8633,-1546.2234 261.4559,-1546.4438 253.3127,-1539.6659 250.8633,-1546.2234"/>
</g>
<!-- Node32 -->
<g id="node32" class="node">
<title>Node32</title>
<g id="a_node32"><a xlink:href="../../d6/dcf/pythia6425mod_8f.html#a420d8af4193fc0229b857f9b5c44017f" target="_top" xlink:title="pyresd">
<polygon fill="none" stroke="#000000" points="88,-946 88,-966 138,-966 138,-946 88,-946"/>
<text text-anchor="middle" x="113" y="-953" font-family="FreeSans" font-size="10.00" fill="#000000">pyresd</text>
</a>
</g>
</g>
<!-- Node1&#45;&gt;Node32 -->
<g id="edge77" class="edge">
<title>Node1&#45;&gt;Node32</title>
<path fill="none" stroke="#191970" d="M29.6275,-1192.7012C42.8402,-1155.1894 88.5334,-1025.4628 106.0713,-975.6713"/>
<polygon fill="#191970" stroke="#191970" points="109.432,-976.6648 109.4531,-966.07 102.8296,-974.3392 109.432,-976.6648"/>
</g>
<!-- Node47 -->
<g id="node47" class="node">
<title>Node47</title>
<g id="a_node47"><a xlink:href="../../d6/dcf/pythia6425mod_8f.html#a71b2257a4e5d19b7b94b70fee55bea56" target="_top" xlink:title="pyshow">
<polygon fill="none" stroke="#ff0000" points="260,-640 260,-660 315,-660 315,-640 260,-640"/>
<text text-anchor="middle" x="287.5" y="-647" font-family="FreeSans" font-size="10.00" fill="#000000">pyshow</text>
</a>
</g>
</g>
<!-- Node1&#45;&gt;Node47 -->
<g id="edge161" class="edge">
<title>Node1&#45;&gt;Node47</title>
<path fill="none" stroke="#191970" d="M26.3116,-1192.999C28.6718,-1120.4548 44.8283,-676.6934 88,-638 134.1451,-596.6416 212.9967,-618.8275 256.4648,-636.0266"/>
<polygon fill="#191970" stroke="#191970" points="255.3665,-639.3592 265.9463,-639.9226 258.027,-632.8845 255.3665,-639.3592"/>
</g>
<!-- Node50 -->
<g id="node50" class="node">
<title>Node50</title>
<g id="a_node50"><a xlink:href="../../d6/dcf/pythia6425mod_8f.html#ab14f48c3190aeff08037290931944d07" target="_top" xlink:title="pystrf">
<polygon fill="none" stroke="#ff0000" points="392,-2127 392,-2147 438,-2147 438,-2127 392,-2127"/>
<text text-anchor="middle" x="415" y="-2134" font-family="FreeSans" font-size="10.00" fill="#000000">pystrf</text>
</a>
</g>
</g>
<!-- Node1&#45;&gt;Node50 -->
<g id="edge162" class="edge">
<title>Node1&#45;&gt;Node50</title>
<path fill="none" stroke="#191970" d="M26.7366,-1213.2434C32.8886,-1296.4707 77.8994,-1862.1991 174,-1998 200.8921,-2036.0015 323.9345,-2095.5873 383.0763,-2122.704"/>
<polygon fill="#191970" stroke="#191970" points="381.7808,-2125.9599 392.3319,-2126.9216 384.6834,-2119.59 381.7808,-2125.9599"/>
</g>
<!-- Node3 -->
<g id="node3" class="node">
<title>Node3</title>
<g id="a_node3"><a xlink:href="../../da/d55/TPCRateLayered_8m.html#a7507ef556477c204b499f1e189d40796" target="_top" xlink:title="sum">
<polygon fill="none" stroke="#000000" points="971.5,-700 971.5,-720 1009.5,-720 1009.5,-700 971.5,-700"/>
<text text-anchor="middle" x="990.5" y="-707" font-family="FreeSans" font-size="10.00" fill="#000000">sum</text>
</a>
</g>
</g>
<!-- Node2&#45;&gt;Node3 -->
<g id="edge2" class="edge">
<title>Node2&#45;&gt;Node3</title>
<path fill="none" stroke="#191970" d="M913.2814,-694.0527C926.198,-696.7202 945.3326,-700.6719 961.3222,-703.9742"/>
<polygon fill="#191970" stroke="#191970" points="960.7773,-707.4354 971.2786,-706.0304 962.1931,-700.5801 960.7773,-707.4354"/>
</g>
<!-- Node5 -->
<g id="node5" class="node">
<title>Node5</title>
<g id="a_node5"><a xlink:href="../../d6/dcf/pythia6425mod_8f.html#a5bcab5f268d645f005de48b6ca8f2761" target="_top" xlink:title="pybesq">
<polygon fill="none" stroke="#000000" points="388.5,-1631 388.5,-1651 441.5,-1651 441.5,-1631 388.5,-1631"/>
<text text-anchor="middle" x="415" y="-1638" font-family="FreeSans" font-size="10.00" fill="#000000">pybesq</text>
</a>
</g>
</g>
<!-- Node4&#45;&gt;Node5 -->
<g id="edge4" class="edge">
<title>Node4&#45;&gt;Node5</title>
<path fill="none" stroke="#191970" d="M288.4844,-2108.7935C292.6956,-2067.1188 310.8418,-1906.0893 351,-1780 365.2265,-1735.3314 390.2481,-1686.2007 404.4237,-1659.982"/>
<polygon fill="#191970" stroke="#191970" points="407.5476,-1661.5644 409.2805,-1651.1123 401.4078,-1658.2024 407.5476,-1661.5644"/>
</g>
<!-- Node8 -->
<g id="node8" class="node">
<title>Node8</title>
<g id="a_node8"><a xlink:href="../../d6/dcf/pythia6425mod_8f.html#a98ffa3df00dbe1c8a9944e3453e44580" target="_top" xlink:title="pyrobo">
<polygon fill="none" stroke="#000000" points="549,-1516 549,-1536 600,-1536 600,-1516 549,-1516"/>
<text text-anchor="middle" x="574.5" y="-1523" font-family="FreeSans" font-size="10.00" fill="#000000">pyrobo</text>
</a>
</g>
</g>
<!-- Node4&#45;&gt;Node8 -->
<g id="edge25" class="edge">
<title>Node4&#45;&gt;Node8</title>
<path fill="none" stroke="#191970" d="M288.2069,-2108.6653C292.916,-2040.9766 320.4936,-1662.4568 351,-1622 374.6854,-1590.589 482.2771,-1554.0503 539.0977,-1536.4853"/>
<polygon fill="#191970" stroke="#191970" points="540.2152,-1539.8036 548.7542,-1533.5318 538.1678,-1533.1097 540.2152,-1539.8036"/>
</g>
<!-- Node4&#45;&gt;Node9 -->
<g id="edge21" class="edge">
<title>Node4&#45;&gt;Node9</title>
<path fill="none" stroke="#191970" d="M293.415,-2108.9558C319.3507,-2064.9439 425.7051,-1884.7713 515,-1738 567.1809,-1652.2319 595.0213,-1638.5185 634,-1546 676.466,-1445.2042 698.4517,-1314.8082 705.7171,-1265.2852"/>
<polygon fill="#191970" stroke="#191970" points="709.2031,-1265.6307 707.1496,-1255.2368 702.2732,-1264.6427 709.2031,-1265.6307"/>
</g>
<!-- Node14 -->
<g id="node14" class="node">
<title>Node14</title>
<g id="a_node14"><a xlink:href="../../d6/dcf/pythia6425mod_8f.html#a6cee1eea51c820d9e90932c9eca205b7" target="_top" xlink:title="pyp">
<polygon fill="none" stroke="#000000" points="881,-1443 881,-1463 916,-1463 916,-1443 881,-1443"/>
<text text-anchor="middle" x="898.5" y="-1450" font-family="FreeSans" font-size="10.00" fill="#000000">pyp</text>
</a>
</g>
</g>
<!-- Node4&#45;&gt;Node14 -->
<g id="edge23" class="edge">
<title>Node4&#45;&gt;Node14</title>
<path fill="none" stroke="#191970" d="M299.6905,-2129.0654C311.8316,-2138.3852 331.4343,-2151.5928 351,-2157 405.8335,-2172.1538 424.5767,-2173.5664 479,-2157 558.3635,-2132.8419 576.6032,-2112.8981 634,-2053 700.6597,-1983.4353 706.3948,-1955.3727 747,-1868 772.7662,-1812.5574 816.6075,-1665.6112 834,-1607 852.0322,-1546.2331 831.2768,-1519.1826 870,-1469 870.7995,-1467.964 871.6862,-1466.9847 872.638,-1466.0605"/>
<polygon fill="#191970" stroke="#191970" points="874.8618,-1468.7695 880.8386,-1460.0215 870.7109,-1463.1329 874.8618,-1468.7695"/>
</g>
<!-- Node16 -->
<g id="node16" class="node">
<title>Node16</title>
<g id="a_node16"><a xlink:href="../../d6/dcf/pythia6425mod_8f.html#ad69903a1054f4f77d45fd8fe4c687aa9" target="_top" xlink:title="pymass">
<polygon fill="none" stroke="#000000" points="963,-1844 963,-1864 1018,-1864 1018,-1844 963,-1844"/>
<text text-anchor="middle" x="990.5" y="-1851" font-family="FreeSans" font-size="10.00" fill="#000000">pymass</text>
</a>
</g>
</g>
<!-- Node4&#45;&gt;Node16 -->
<g id="edge22" class="edge">
<title>Node4&#45;&gt;Node16</title>
<path fill="none" stroke="#191970" d="M294.7345,-2129.0235C305.2943,-2142.6957 326.3748,-2166.5689 351,-2176 404.1259,-2196.3465 423.198,-2187.0673 479,-2176 703.945,-2131.3865 761.3187,-2078.557 927,-1920 944.8514,-1902.9162 943.2867,-1890.9342 963.48,-1870.8626"/>
<polygon fill="#191970" stroke="#191970" points="965.8871,-1873.4039 970.853,-1864.0449 961.1346,-1868.2643 965.8871,-1873.4039"/>
</g>
<!-- Node17 -->
<g id="node17" class="node">
<title>Node17</title>
<g id="a_node17"><a xlink:href="../../d6/dcf/pythia6425mod_8f.html#ac28b7ef95cee2881a46f71d3a88d05ac" target="_top" xlink:title="pyr">
<polygon fill="none" stroke="#000000" points="1056,-1806 1056,-1826 1089,-1826 1089,-1806 1056,-1806"/>
<text text-anchor="middle" x="1072.5" y="-1813" font-family="FreeSans" font-size="10.00" fill="#000000">pyr</text>
</a>
</g>
</g>
<!-- Node4&#45;&gt;Node17 -->
<g id="edge24" class="edge">
<title>Node4&#45;&gt;Node17</title>
<path fill="none" stroke="#191970" d="M288.7217,-2129.1775C295.3264,-2183.4856 327.3392,-2437.6278 351,-2463 391.0675,-2505.9657 435.6299,-2456.3706 479,-2496 514.1803,-2528.1459 477.4447,-2567.6638 515,-2597 583.0994,-2650.1956 622.0864,-2616 708.5,-2616 708.5,-2616 708.5,-2616 898.5,-2616 958.1305,-2616 985.0117,-2604.6747 1018,-2555 1058.8123,-2493.5438 1070.2428,-1948.9064 1072.1786,-1836.3131"/>
<polygon fill="#191970" stroke="#191970" points="1075.6829,-1836.0799 1072.3493,-1826.0232 1068.6838,-1835.9637 1075.6829,-1836.0799"/>
</g>
<!-- Node18 -->
<g id="node18" class="node">
<title>Node18</title>
<g id="a_node18"><a xlink:href="../../d1/d5e/classsHelix.html#a44ff83bf3956f25a18308cc3c7fc1873" target="_top" xlink:title="sHelix::w">
<polygon fill="none" stroke="#000000" points="543.5,-2645 543.5,-2665 605.5,-2665 605.5,-2645 543.5,-2645"/>
<text text-anchor="middle" x="574.5" y="-2652" font-family="FreeSans" font-size="10.00" fill="#000000">sHelix::w</text>
</a>
</g>
</g>
<!-- Node4&#45;&gt;Node18 -->
<g id="edge26" class="edge">
<title>Node4&#45;&gt;Node18</title>
<path fill="none" stroke="#191970" d="M288.6087,-2129.3491C294.8672,-2186.9977 326.3716,-2466.9542 351,-2496 389.9046,-2541.8824 435.4254,-2498.5269 479,-2540 510.2063,-2569.7013 484.801,-2599.2751 515,-2630 520.2918,-2635.3839 526.9194,-2639.6656 533.8133,-2643.0522"/>
<polygon fill="#191970" stroke="#191970" points="532.71,-2646.388 543.2785,-2647.1351 535.4826,-2639.9605 532.71,-2646.388"/>
</g>
<!-- Node6 -->
<g id="node6" class="node">
<title>Node6</title>
<g id="a_node6"><a xlink:href="../../d6/dcf/pythia6425mod_8f.html#aa8c99978a55999fa0b1fd2a946d8553a" target="_top" xlink:title="pyangl">
<polygon fill="none" stroke="#000000" points="965.5,-1366 965.5,-1386 1015.5,-1386 1015.5,-1366 965.5,-1366"/>
<text text-anchor="middle" x="990.5" y="-1373" font-family="FreeSans" font-size="10.00" fill="#000000">pyangl</text>
</a>
</g>
</g>
<!-- Node5&#45;&gt;Node6 -->
<g id="edge5" class="edge">
<title>Node5&#45;&gt;Node6</title>
<path fill="none" stroke="#191970" d="M439.1043,-1630.876C479.5717,-1613.8053 563.651,-1578.0193 634,-1546 666.3844,-1531.2603 880.6115,-1428.6673 960.5196,-1390.3719"/>
<polygon fill="#191970" stroke="#191970" points="962.0723,-1393.509 969.5774,-1386.0307 959.0469,-1387.1966 962.0723,-1393.509"/>
</g>
<!-- Node5&#45;&gt;Node8 -->
<g id="edge7" class="edge">
<title>Node5&#45;&gt;Node8</title>
<path fill="none" stroke="#191970" d="M441.6215,-1633.1682C453.5596,-1629.0232 467.5079,-1623.2704 479,-1616 511.0079,-1595.7503 541.7191,-1563.845 559.3188,-1543.9628"/>
<polygon fill="#191970" stroke="#191970" points="562.1064,-1546.0909 566.0243,-1536.247 556.8229,-1541.4991 562.1064,-1546.0909"/>
</g>
<!-- Node7 -->
<g id="node7" class="node">
<title>Node7</title>
<g id="a_node7"><a xlink:href="../../da/d0a/CylinderKalman_8cpp.html#ab74daa0c9784c63e060bfb98cc06fbf5" target="_top" xlink:title="sign">
<polygon fill="none" stroke="#000000" points="1054,-909 1054,-929 1091,-929 1091,-909 1054,-909"/>
<text text-anchor="middle" x="1072.5" y="-916" font-family="FreeSans" font-size="10.00" fill="#000000">sign</text>
</a>
</g>
</g>
<!-- Node6&#45;&gt;Node7 -->
<g id="edge6" class="edge">
<title>Node6&#45;&gt;Node7</title>
<path fill="none" stroke="#191970" d="M992.3668,-1365.5963C1002.8642,-1307.092 1054.578,-1018.8823 1068.8475,-939.3562"/>
<polygon fill="#191970" stroke="#191970" points="1072.3505,-939.6502 1070.6717,-929.1892 1065.4606,-938.4139 1072.3505,-939.6502"/>
</g>
<!-- Node8&#45;&gt;Node9 -->
<g id="edge8" class="edge">
<title>Node8&#45;&gt;Node9</title>
<path fill="none" stroke="#191970" d="M579.2691,-1515.9991C598.8037,-1475.0347 672.9118,-1319.6289 699.1905,-1264.5222"/>
<polygon fill="#191970" stroke="#191970" points="702.5028,-1265.7075 703.648,-1255.1748 696.1844,-1262.6945 702.5028,-1265.7075"/>
</g>
<!-- Node9&#45;&gt;Node10 -->
<g id="edge9" class="edge">
<title>Node9&#45;&gt;Node10</title>
<path fill="none" stroke="#191970" d="M715.0613,-1234.8956C731.5132,-1209.5597 774.7309,-1143.0045 796.1307,-1110.0488"/>
<polygon fill="#191970" stroke="#191970" points="799.2728,-1111.6366 801.7834,-1101.3435 793.4019,-1107.8243 799.2728,-1111.6366"/>
</g>
<!-- Node12 -->
<g id="node12" class="node">
<title>Node12</title>
<g id="a_node12"><a xlink:href="../../d6/dcf/pythia6425mod_8f.html#a4140396b9ec9bafcebf4c7ebecb462e7" target="_top" xlink:title="pystop">
<polygon fill="none" stroke="#ff0000" points="965.5,-1146 965.5,-1166 1015.5,-1166 1015.5,-1146 965.5,-1146"/>
<text text-anchor="middle" x="990.5" y="-1153" font-family="FreeSans" font-size="10.00" fill="#000000">pystop</text>
</a>
</g>
</g>
<!-- Node9&#45;&gt;Node12 -->
<g id="edge20" class="edge">
<title>Node9&#45;&gt;Node12</title>
<path fill="none" stroke="#191970" d="M734.5244,-1236.7866C785.461,-1220.7109 898.3389,-1185.0863 955.6531,-1166.9978"/>
<polygon fill="#191970" stroke="#191970" points="956.8675,-1170.2848 965.3504,-1163.9373 954.7607,-1163.6093 956.8675,-1170.2848"/>
</g>
<!-- Node10&#45;&gt;Node2 -->
<g id="edge10" class="edge">
<title>Node10&#45;&gt;Node2</title>
<path fill="none" stroke="#191970" d="M810.8152,-1080.7103C822.7766,-1027.5485 877.6441,-783.6931 893.9301,-711.3108"/>
<polygon fill="#191970" stroke="#191970" points="897.4196,-711.746 896.2001,-701.2216 890.5903,-710.2094 897.4196,-711.746"/>
</g>
<!-- Node11 -->
<g id="node11" class="node">
<title>Node11</title>
<g id="a_node11"><a xlink:href="../../d6/dcf/pythia6425mod_8f.html#a56718d08dbb42b3b978fc9b5bd6970e6" target="_top" xlink:title="pylogo">
<polygon fill="none" stroke="#ff0000" points="873.5,-913 873.5,-933 923.5,-933 923.5,-913 873.5,-913"/>
<text text-anchor="middle" x="898.5" y="-920" font-family="FreeSans" font-size="10.00" fill="#000000">pylogo</text>
</a>
</g>
</g>
<!-- Node10&#45;&gt;Node11 -->
<g id="edge11" class="edge">
<title>Node10&#45;&gt;Node11</title>
<path fill="none" stroke="#191970" d="M813.8604,-1080.9939C828.4575,-1053.746 869.1009,-977.8784 888.2594,-942.1157"/>
<polygon fill="#191970" stroke="#191970" points="891.4168,-943.6336 893.0539,-933.166 885.2465,-940.328 891.4168,-943.6336"/>
</g>
<!-- Node13 -->
<g id="node13" class="node">
<title>Node13</title>
<g id="a_node13"><a xlink:href="../../d6/dcf/pythia6425mod_8f.html#ab0dbe916b7d36854c02faf180f41d585" target="_top" xlink:title="pyname">
<polygon fill="none" stroke="#000000" points="870,-1081 870,-1101 927,-1101 927,-1081 870,-1081"/>
<text text-anchor="middle" x="898.5" y="-1088" font-family="FreeSans" font-size="10.00" fill="#000000">pyname</text>
</a>
</g>
</g>
<!-- Node10&#45;&gt;Node13 -->
<g id="edge13" class="edge">
<title>Node10&#45;&gt;Node13</title>
<path fill="none" stroke="#191970" d="M830.7472,-1091C839.4784,-1091 849.7605,-1091 859.6401,-1091"/>
<polygon fill="#191970" stroke="#191970" points="859.7083,-1094.5001 869.7082,-1091 859.7082,-1087.5001 859.7083,-1094.5001"/>
</g>
<!-- Node10&#45;&gt;Node14 -->
<g id="edge14" class="edge">
<title>Node10&#45;&gt;Node14</title>
<path fill="none" stroke="#191970" d="M811.001,-1101.0598C823.2373,-1150.2766 876.8778,-1366.0305 893.5425,-1433.0598"/>
<polygon fill="#191970" stroke="#191970" points="890.159,-1433.9572 895.9684,-1442.8173 896.9522,-1432.2682 890.159,-1433.9572"/>
</g>
<!-- Node11&#45;&gt;Node12 -->
<g id="edge12" class="edge">
<title>Node11&#45;&gt;Node12</title>
<path fill="none" stroke="#191970" d="M913.1455,-933.0906C918.1684,-937.1984 923.42,-942.3208 927,-948 958.5134,-997.9925 945.3874,-1019.5895 963,-1076 969.4989,-1096.8151 977.7099,-1120.396 983.4608,-1136.5326"/>
<polygon fill="#191970" stroke="#191970" points="980.1708,-1137.727 986.842,-1145.9577 986.7596,-1135.3632 980.1708,-1137.727"/>
</g>
<!-- Node14&#45;&gt;Node6 -->
<g id="edge16" class="edge">
<title>Node14&#45;&gt;Node6</title>
<path fill="none" stroke="#191970" d="M910.5274,-1442.9336C925.8174,-1430.1365 952.4218,-1407.8698 970.7183,-1392.5565"/>
<polygon fill="#191970" stroke="#191970" points="973.0475,-1395.1711 978.4697,-1386.0689 968.5547,-1389.8031 973.0475,-1395.1711"/>
</g>
<!-- Node14&#45;&gt;Node7 -->
<g id="edge19" class="edge">
<title>Node14&#45;&gt;Node7</title>
<path fill="none" stroke="#191970" d="M916.1494,-1450.0915C943.0015,-1444.6553 993.5681,-1430.2412 1018,-1396 1044.9308,-1358.2567 1066.2194,-1025.7647 1071.3286,-939.4167"/>
<polygon fill="#191970" stroke="#191970" points="1074.8289,-939.5107 1071.9179,-929.3236 1067.8408,-939.1025 1074.8289,-939.5107"/>
</g>
<!-- Node14&#45;&gt;Node15 -->
<g id="edge15" class="edge">
<title>Node14&#45;&gt;Node15</title>
<path fill="none" stroke="#191970" d="M900.1015,-1442.7954C906.4253,-1403.1438 930.891,-1255.6346 963,-1137 968.7607,-1115.7158 977.0897,-1091.8735 983.07,-1075.6002"/>
<polygon fill="#191970" stroke="#191970" points="986.3972,-1076.6949 986.6102,-1066.1022 979.838,-1074.2501 986.3972,-1076.6949"/>
</g>
<!-- Node14&#45;&gt;Node16 -->
<g id="edge17" class="edge">
<title>Node14&#45;&gt;Node16</title>
<path fill="none" stroke="#191970" d="M900.8666,-1463.3154C913.0938,-1516.6101 969.1806,-1761.0752 985.8285,-1833.6384"/>
<polygon fill="#191970" stroke="#191970" points="982.5014,-1834.7887 988.149,-1843.7528 989.3242,-1833.2234 982.5014,-1834.7887"/>
</g>
<!-- Node16&#45;&gt;Node17 -->
<g id="edge18" class="edge">
<title>Node16&#45;&gt;Node17</title>
<path fill="none" stroke="#191970" d="M1012.4745,-1843.8167C1023.0418,-1838.9197 1035.7757,-1833.0186 1046.7909,-1827.914"/>
<polygon fill="#191970" stroke="#191970" points="1048.3293,-1831.0587 1055.9308,-1823.6784 1045.386,-1824.7075 1048.3293,-1831.0587"/>
</g>
<!-- Node19&#45;&gt;Node2 -->
<g id="edge31" class="edge">
<title>Node19&#45;&gt;Node2</title>
<path fill="none" stroke="#191970" d="M303.9423,-2374.9562C316.4572,-2367.6874 334.3158,-2358.1061 351,-2352 411.5494,-2329.8402 589.6575,-2334.8084 634,-2288 645.4036,-2275.9623 831.5716,-1127.4028 834,-1111 852.6983,-984.7035 848.796,-951.9001 870,-826 876.9272,-784.8692 887.6162,-737.2345 893.7448,-710.9722"/>
<polygon fill="#191970" stroke="#191970" points="897.1826,-711.6427 896.0679,-701.1067 890.3689,-710.0382 897.1826,-711.6427"/>
</g>
<!-- Node19&#45;&gt;Node6 -->
<g id="edge32" class="edge">
<title>Node19&#45;&gt;Node6</title>
<path fill="none" stroke="#191970" d="M314.0271,-2381.8572C391.1592,-2372.4798 611.347,-2343.9276 634,-2321 695.0204,-2259.24 644.4358,-2211.9714 670,-2129 695.1403,-2047.4044 719.0974,-2033.6928 747,-1953 767.8552,-1892.6879 761.6964,-1874.1552 783,-1814 801.2589,-1762.4421 816.5009,-1753.8207 834,-1702 857.0424,-1633.7636 838.6574,-1608.8444 870,-1544 887.6102,-1507.5664 903.2235,-1505.7446 927,-1473 946.2086,-1446.5463 966.6043,-1414.6139 978.9485,-1394.8035"/>
<polygon fill="#191970" stroke="#191970" points="982.031,-1396.4736 984.3212,-1386.1292 976.08,-1392.7877 982.031,-1396.4736"/>
</g>
<!-- Node19&#45;&gt;Node8 -->
<g id="edge47" class="edge">
<title>Node19&#45;&gt;Node8</title>
<path fill="none" stroke="#191970" d="M288.4774,-2374.8011C292.7195,-2332.4347 311.1437,-2166.4584 351,-2036 411.9856,-1836.3805 529.0871,-1610.694 564.263,-1544.913"/>
<polygon fill="#191970" stroke="#191970" points="567.3634,-1546.5372 569.0139,-1536.0717 561.1973,-1543.2238 567.3634,-1546.5372"/>
</g>
<!-- Node19&#45;&gt;Node9 -->
<g id="edge43" class="edge">
<title>Node19&#45;&gt;Node9</title>
<path fill="none" stroke="#191970" d="M288.6144,-2374.7956C293.6149,-2330.7467 315.3112,-2157.354 351,-2118 391.4111,-2073.4387 435.9499,-2116.0173 479,-2074 511.9083,-2041.8812 481.1341,-2008.1073 515,-1977 555.4208,-1939.8718 599.1261,-1986.3811 634,-1944 667.1384,-1903.7279 663.7069,-1527.7725 670,-1476 679.5312,-1397.5883 696.7694,-1305.1496 704.5275,-1265.1341"/>
<polygon fill="#191970" stroke="#191970" points="708.008,-1265.5718 706.4907,-1255.0862 701.138,-1264.2294 708.008,-1265.5718"/>
</g>
<!-- Node19&#45;&gt;Node16 -->
<g id="edge45" class="edge">
<title>Node19&#45;&gt;Node16</title>
<path fill="none" stroke="#191970" d="M288.1155,-2395.296C291.2443,-2444.0792 306.9967,-2651.4059 351,-2695 440.9222,-2784.086 528.4024,-2796.7959 634,-2727 857.2697,-2579.4273 740.4992,-2407.2149 870,-2173 891.4765,-2134.1576 910.3532,-2132.1444 927,-2091 963.0855,-2001.8109 910.319,-1955.1403 962.7339,-1872.8095"/>
<polygon fill="#191970" stroke="#191970" points="965.8472,-1874.4513 968.5142,-1864.1976 960.0351,-1870.5501 965.8472,-1874.4513"/>
</g>
<!-- Node19&#45;&gt;Node17 -->
<g id="edge46" class="edge">
<title>Node19&#45;&gt;Node17</title>
<path fill="none" stroke="#191970" d="M288.1753,-2395.1989C291.8061,-2447.5653 310.3743,-2686.0897 351,-2746 416.5206,-2842.6227 457.7572,-2884 574.5,-2884 574.5,-2884 574.5,-2884 898.5,-2884 988.6864,-2884 987.5028,-2804.8734 1018,-2720 1048.8063,-2634.2662 1068.5023,-1962.8275 1071.9554,-1836.4666"/>
<polygon fill="#191970" stroke="#191970" points="1075.4597,-1836.3512 1072.2312,-1826.2603 1068.4623,-1836.1621 1075.4597,-1836.3512"/>
</g>
<!-- Node20 -->
<g id="node20" class="node">
<title>Node20</title>
<g id="a_node20"><a xlink:href="../../d8/d47/classsimpleRandom.html#a3f2fd2700bb2b3bfcd31c5064355e649" target="_top" xlink:title="simpleRandom::gauss">
<polygon fill="none" stroke="#ff0000" points="351,-2549 351,-2569 479,-2569 479,-2549 351,-2549"/>
<text text-anchor="middle" x="415" y="-2556" font-family="FreeSans" font-size="10.00" fill="#000000">simpleRandom::gauss</text>
</a>
</g>
</g>
<!-- Node19&#45;&gt;Node20 -->
<g id="edge29" class="edge">
<title>Node19&#45;&gt;Node20</title>
<path fill="none" stroke="#191970" d="M289.0625,-2395.2159C293.6406,-2421.765 309.4212,-2493.6691 351,-2534 355.2785,-2538.1501 360.3251,-2541.6326 365.677,-2544.5499"/>
<polygon fill="#191970" stroke="#191970" points="364.3576,-2547.7983 374.8903,-2548.9442 367.3711,-2541.4801 364.3576,-2547.7983"/>
</g>
<!-- Node21 -->
<g id="node21" class="node">
<title>Node21</title>
<g id="a_node21"><a xlink:href="../../d8/d1a/classHiMain1.html#a676ccaef5fa9c10e945e6d1477aeb366" target="_top" xlink:title="HiMain1::np">
<polygon fill="none" stroke="#ff0000" points="536,-1914 536,-1934 613,-1934 613,-1914 536,-1914"/>
<text text-anchor="middle" x="574.5" y="-1921" font-family="FreeSans" font-size="10.00" fill="#000000">HiMain1::np</text>
</a>
</g>
</g>
<!-- Node19&#45;&gt;Node21 -->
<g id="edge30" class="edge">
<title>Node19&#45;&gt;Node21</title>
<path fill="none" stroke="#191970" d="M288.3451,-2374.8321C292.463,-2327.5508 311.8372,-2129.5659 351,-2084 390.6023,-2037.9228 435.323,-2078.2348 479,-2036 509.0823,-2006.911 485.4907,-1978.67 515,-1949 519.0001,-1944.9782 523.7449,-1941.5693 528.7835,-1938.6883"/>
<polygon fill="#191970" stroke="#191970" points="530.687,-1941.6502 538.073,-1934.0542 527.5622,-1935.3863 530.687,-1941.6502"/>
</g>
<!-- Node22 -->
<g id="node22" class="node">
<title>Node22</title>
<g id="a_node22"><a xlink:href="../../d6/dcf/pythia6425mod_8f.html#a9c5eaf03cea7f0d97f5783fd071c1409" target="_top" xlink:title="pydcyk">
<polygon fill="none" stroke="#000000" points="388.5,-2433 388.5,-2453 441.5,-2453 441.5,-2433 388.5,-2433"/>
<text text-anchor="middle" x="415" y="-2440" font-family="FreeSans" font-size="10.00" fill="#000000">pydcyk</text>
</a>
</g>
</g>
<!-- Node19&#45;&gt;Node22 -->
<g id="edge33" class="edge">
<title>Node19&#45;&gt;Node22</title>
<path fill="none" stroke="#191970" d="M305.5846,-2395.0561C318.1534,-2401.8815 335.3859,-2410.9176 351,-2418 359.8554,-2422.0167 369.5604,-2426.0102 378.676,-2429.588"/>
<polygon fill="#191970" stroke="#191970" points="377.6785,-2432.9546 388.2681,-2433.2886 380.1981,-2426.4237 377.6785,-2432.9546"/>
</g>
<!-- Node23 -->
<g id="node23" class="node">
<title>Node23</title>
<g id="a_node23"><a xlink:href="../../d6/dcf/pythia6425mod_8f.html#ab762550f3025c60b2731636ec9577946" target="_top" xlink:title="pykfdi">
<polygon fill="none" stroke="#ff0000" points="551,-2258 551,-2278 598,-2278 598,-2258 551,-2258"/>
<text text-anchor="middle" x="574.5" y="-2265" font-family="FreeSans" font-size="10.00" fill="#000000">pykfdi</text>
</a>
</g>
</g>
<!-- Node19&#45;&gt;Node23 -->
<g id="edge44" class="edge">
<title>Node19&#45;&gt;Node23</title>
<path fill="none" stroke="#191970" d="M293.4845,-2374.9111C303.3597,-2359.2136 324.6247,-2329.1731 351,-2314 411.688,-2279.0876 495.1032,-2270.456 540.9413,-2268.4579"/>
<polygon fill="#191970" stroke="#191970" points="541.0712,-2271.9556 550.9405,-2268.1025 540.8224,-2264.96 541.0712,-2271.9556"/>
</g>
<!-- Node26 -->
<g id="node26" class="node">
<title>Node26</title>
<g id="a_node26"><a xlink:href="../../d6/dcf/pythia6425mod_8f.html#ac915defed887990f1ac86812b9c11c49" target="_top" xlink:title="pytaud">
<polygon fill="none" stroke="#000000" points="783,-1823 783,-1843 834,-1843 834,-1823 783,-1823"/>
<text text-anchor="middle" x="808.5" y="-1830" font-family="FreeSans" font-size="10.00" fill="#000000">pytaud</text>
</a>
</g>
</g>
<!-- Node19&#45;&gt;Node26 -->
<g id="edge48" class="edge">
<title>Node19&#45;&gt;Node26</title>
<path fill="none" stroke="#191970" d="M314.0511,-2391.5267C376.5537,-2405.2419 535.1353,-2430.2387 634,-2359 657.1008,-2342.3543 737.7529,-2155.9299 747,-2129 781.4805,-2028.5839 799.8687,-1902.0466 806.0674,-1853.3649"/>
<polygon fill="#191970" stroke="#191970" points="809.5692,-1853.5658 807.3252,-1843.2113 802.6223,-1852.7051 809.5692,-1853.5658"/>
</g>
<!-- Node22&#45;&gt;Node16 -->
<g id="edge37" class="edge">
<title>Node22&#45;&gt;Node16</title>
<path fill="none" stroke="#191970" d="M441.7331,-2443.6681C486.0271,-2443.4369 575.54,-2437.1532 634,-2394 659.9459,-2374.8476 652.3745,-2358.0063 670,-2331 701.433,-2282.8376 717.9214,-2276.6194 747,-2227 766.7135,-2193.3611 761.4765,-2179.5105 783,-2147 814.4246,-2099.5343 826.6829,-2089.9341 870,-2053 893.1684,-2033.2456 909.4813,-2039.902 927,-2015 963.4152,-1963.2375 926.92,-1926.6761 963.0776,-1872.2754"/>
<polygon fill="#191970" stroke="#191970" points="965.9506,-1874.2751 968.9568,-1864.1157 960.2712,-1870.183 965.9506,-1874.2751"/>
</g>
<!-- Node22&#45;&gt;Node17 -->
<g id="edge40" class="edge">
<title>Node22&#45;&gt;Node17</title>
<path fill="none" stroke="#191970" d="M440.5846,-2453.0017C467.6359,-2463.4905 507.4381,-2478.6459 515,-2480 643.6173,-2503.0312 677.8369,-2463 808.5,-2463 808.5,-2463 808.5,-2463 898.5,-2463 966.6266,-2463 985.5596,-2426.907 1018,-2367 1043.7053,-2319.5306 1066.2616,-1931.1277 1071.4035,-1836.654"/>
<polygon fill="#191970" stroke="#191970" points="1074.9121,-1836.5866 1071.955,-1826.4128 1067.9222,-1836.2101 1074.9121,-1836.5866"/>
</g>
<!-- Node22&#45;&gt;Node23 -->
<g id="edge34" class="edge">
<title>Node22&#45;&gt;Node23</title>
<path fill="none" stroke="#191970" d="M424.2648,-2432.8348C450.473,-2404.0797 525.3767,-2321.897 558.4601,-2285.5987"/>
<polygon fill="#191970" stroke="#191970" points="561.0602,-2287.9417 565.2096,-2278.1932 555.8866,-2283.2264 561.0602,-2287.9417"/>
</g>
<!-- Node24 -->
<g id="node24" class="node">
<title>Node24</title>
<g id="a_node24"><a xlink:href="../../d6/dcf/pythia6425mod_8f.html#a8f241358dd296a387019d41fb2f9ec46" target="_top" xlink:title="pyptdi">
<polygon fill="none" stroke="#ff0000" points="550.5,-2528 550.5,-2548 598.5,-2548 598.5,-2528 550.5,-2528"/>
<text text-anchor="middle" x="574.5" y="-2535" font-family="FreeSans" font-size="10.00" fill="#000000">pyptdi</text>
</a>
</g>
</g>
<!-- Node22&#45;&gt;Node24 -->
<g id="edge38" class="edge">
<title>Node22&#45;&gt;Node24</title>
<path fill="none" stroke="#191970" d="M441.8016,-2450C453.9124,-2454.0008 467.9497,-2459.8713 479,-2468 499.6316,-2483.1768 494.5626,-2497.5627 515,-2513 522.7477,-2518.8522 532.0679,-2523.607 541.0082,-2527.3368"/>
<polygon fill="#191970" stroke="#191970" points="539.8783,-2530.6523 550.4679,-2530.9852 542.3972,-2524.1212 539.8783,-2530.6523"/>
</g>
<!-- Node25 -->
<g id="node25" class="node">
<title>Node25</title>
<g id="a_node25"><a xlink:href="../../d6/dcf/pythia6425mod_8f.html#afb341942695f61070b394bd15ac8dc30" target="_top" xlink:title="pyzdis">
<polygon fill="none" stroke="#000000" points="550,-2567 550,-2587 599,-2587 599,-2567 550,-2567"/>
<text text-anchor="middle" x="574.5" y="-2574" font-family="FreeSans" font-size="10.00" fill="#000000">pyzdis</text>
</a>
</g>
</g>
<!-- Node22&#45;&gt;Node25 -->
<g id="edge41" class="edge">
<title>Node22&#45;&gt;Node25</title>
<path fill="none" stroke="#191970" d="M441.7105,-2448.2272C454.3841,-2451.8984 468.9219,-2458.0033 479,-2468 509.5863,-2498.3393 483.4688,-2528.6438 515,-2558 521.862,-2564.3887 530.8759,-2568.6292 539.8053,-2571.4439"/>
<polygon fill="#191970" stroke="#191970" points="539.1706,-2574.8959 549.7319,-2574.0544 540.951,-2568.1261 539.1706,-2574.8959"/>
</g>
<!-- Node23&#45;&gt;Node9 -->
<g id="edge35" class="edge">
<title>Node23&#45;&gt;Node9</title>
<path fill="none" stroke="#191970" d="M577.4827,-2257.9928C587.4245,-2224.1811 619.6144,-2110.9396 634,-2015 669.6021,-1777.5651 642.2311,-1714.478 670,-1476 679.1359,-1397.5413 696.5787,-1305.1269 704.4585,-1265.1259"/>
<polygon fill="#191970" stroke="#191970" points="707.9382,-1265.5722 706.454,-1255.0819 701.0724,-1264.2081 707.9382,-1265.5722"/>
</g>
<!-- Node23&#45;&gt;Node17 -->
<g id="edge36" class="edge">
<title>Node23&#45;&gt;Node17</title>
<path fill="none" stroke="#191970" d="M596.7014,-2278.0373C668.2081,-2308.6814 894.994,-2392.4857 1018,-2283 1051.9173,-2252.8107 1068.0474,-1922.2959 1071.6873,-1836.3359"/>
<polygon fill="#191970" stroke="#191970" points="1075.1866,-1836.4218 1072.1025,-1826.2858 1068.1926,-1836.1328 1075.1866,-1836.4218"/>
</g>
<!-- Node24&#45;&gt;Node17 -->
<g id="edge39" class="edge">
<title>Node24&#45;&gt;Node17</title>
<path fill="none" stroke="#191970" d="M598.7541,-2538.1719C641.2467,-2538.4578 731.9212,-2539 808.5,-2539 808.5,-2539 808.5,-2539 898.5,-2539 958.3339,-2539 984.8485,-2526.8104 1018,-2477 1054.3174,-2422.4328 1069.1463,-1941.9877 1071.9807,-1836.4427"/>
<polygon fill="#191970" stroke="#191970" points="1075.4797,-1836.5257 1072.2433,-1826.4373 1068.4821,-1836.3421 1075.4797,-1836.5257"/>
</g>
<!-- Node25&#45;&gt;Node17 -->
<g id="edge42" class="edge">
<title>Node25&#45;&gt;Node17</title>
<path fill="none" stroke="#191970" d="M599.0934,-2577C641.728,-2577 732.125,-2577 808.5,-2577 808.5,-2577 808.5,-2577 898.5,-2577 958.1305,-2577 984.9103,-2565.6072 1018,-2516 1056.6685,-2458.0293 1069.7407,-1945.1142 1072.0913,-1836.2515"/>
<polygon fill="#191970" stroke="#191970" points="1075.5957,-1836.0737 1072.3062,-1826.0024 1068.5972,-1835.9268 1075.5957,-1836.0737"/>
</g>
<!-- Node26&#45;&gt;Node12 -->
<g id="edge49" class="edge">
<title>Node26&#45;&gt;Node12</title>
<path fill="none" stroke="#191970" d="M810.3763,-1822.6817C816.6763,-1788.9096 838.4632,-1678.8596 870,-1592 890.0137,-1536.8777 908.4305,-1528.6254 927,-1473 963.3516,-1364.1081 982.1504,-1226.8667 988.24,-1176.0835"/>
<polygon fill="#191970" stroke="#191970" points="991.7229,-1176.4329 989.4057,-1166.0946 984.7701,-1175.6215 991.7229,-1176.4329"/>
</g>
<!-- Node27&#45;&gt;Node6 -->
<g id="edge60" class="edge">
<title>Node27&#45;&gt;Node6</title>
<path fill="none" stroke="#191970" d="M432.7055,-2685.0536C473.3103,-2706.6273 574.2294,-2751.6132 634,-2703 694.9281,-2653.4454 652.3242,-2606.521 670,-2530 701.2723,-2394.6179 714.1465,-2362.0071 747,-2227 787.352,-2061.1788 801.2804,-2020.4944 834,-1853 853.5845,-1752.7453 831.8866,-1720.7731 870,-1626 886.5604,-1584.8208 907.6701,-1583.9541 927,-1544 951.0647,-1494.2594 941.3503,-1475.8382 963,-1425 967.3787,-1414.7178 973.3457,-1403.8254 978.6025,-1394.9281"/>
<polygon fill="#191970" stroke="#191970" points="981.7165,-1396.5433 983.9192,-1386.1799 975.7346,-1392.9077 981.7165,-1396.5433"/>
</g>
<!-- Node27&#45;&gt;Node8 -->
<g id="edge53" class="edge">
<title>Node27&#45;&gt;Node8</title>
<path fill="none" stroke="#191970" d="M424.6268,-2664.8051C439.5067,-2648.3031 467.5675,-2614.0388 479,-2579 537.0239,-2401.1667 485.5303,-1922.7241 515,-1738 526.5109,-1665.8468 554.0005,-1583.2593 567.1925,-1546.0387"/>
<polygon fill="#191970" stroke="#191970" points="570.5694,-1546.9907 570.6521,-1536.3961 563.9806,-1544.6267 570.5694,-1546.9907"/>
</g>
<!-- Node27&#45;&gt;Node9 -->
<g id="edge52" class="edge">
<title>Node27&#45;&gt;Node9</title>
<path fill="none" stroke="#191970" d="M439.6446,-2684.5463C484.8436,-2700.2594 581.1933,-2725.1272 634,-2675 687.5366,-2624.1799 705.8643,-1436.4481 708.2289,-1265.4376"/>
<polygon fill="#191970" stroke="#191970" points="711.7306,-1265.3327 708.3669,-1255.2861 704.7312,-1265.2376 711.7306,-1265.3327"/>
</g>
<!-- Node27&#45;&gt;Node16 -->
<g id="edge58" class="edge">
<title>Node27&#45;&gt;Node16</title>
<path fill="none" stroke="#191970" d="M424.6106,-2685.0569C441.1928,-2701.5944 477.0662,-2733.903 515,-2746 565.3887,-2762.0689 589.1313,-2774.0007 634,-2746 708.0286,-2699.8018 864.0478,-2184.5358 870,-2173 890.3518,-2133.5566 910.3532,-2132.1444 927,-2091 963.0855,-2001.8109 910.319,-1955.1403 962.7339,-1872.8095"/>
<polygon fill="#191970" stroke="#191970" points="965.8472,-1874.4513 968.5142,-1864.1976 960.0351,-1870.5501 965.8472,-1874.4513"/>
</g>
<!-- Node27&#45;&gt;Node17 -->
<g id="edge55" class="edge">
<title>Node27&#45;&gt;Node17</title>
<path fill="none" stroke="#191970" d="M422.5635,-2685.0103C437.775,-2704.3735 474.1288,-2746.9037 515,-2768 593.036,-2808.2794 620.6817,-2808 708.5,-2808 708.5,-2808 708.5,-2808 898.5,-2808 993.7857,-2808 987.2094,-2720.1737 1018,-2630 1044.3821,-2552.7369 1067.4519,-1954.3263 1071.7746,-1836.2107"/>
<polygon fill="#191970" stroke="#191970" points="1075.2784,-1836.1661 1072.1435,-1826.0458 1068.283,-1835.9122 1075.2784,-1836.1661"/>
</g>
<!-- Node27&#45;&gt;Node18 -->
<g id="edge56" class="edge">
<title>Node27&#45;&gt;Node18</title>
<path fill="none" stroke="#191970" d="M439.5723,-2671.9188C464.5081,-2668.7921 503.5602,-2663.8953 533.2481,-2660.1727"/>
<polygon fill="#191970" stroke="#191970" points="533.8332,-2663.6268 543.32,-2658.9097 532.9622,-2656.6812 533.8332,-2663.6268"/>
</g>
<!-- Node27&#45;&gt;Node23 -->
<g id="edge57" class="edge">
<title>Node27&#45;&gt;Node23</title>
<path fill="none" stroke="#191970" d="M423.5386,-2664.7456C437.1657,-2647.8895 463.8357,-2612.8123 479,-2579 504.9384,-2521.1642 496.6792,-2501.6805 515,-2441 531.9906,-2384.7255 555.5131,-2319.3971 567.2424,-2287.5192"/>
<polygon fill="#191970" stroke="#191970" points="570.5575,-2288.6455 570.7416,-2278.0523 563.9917,-2286.2186 570.5575,-2288.6455"/>
</g>
<!-- Node27&#45;&gt;Node24 -->
<g id="edge54" class="edge">
<title>Node27&#45;&gt;Node24</title>
<path fill="none" stroke="#191970" d="M439.5255,-2670.4266C452.6989,-2666.8471 468.3689,-2660.6248 479,-2650 510.0567,-2618.9616 483.2054,-2588.2821 515,-2558 522.0122,-2551.3214 531.3252,-2546.8695 540.4968,-2543.9032"/>
<polygon fill="#191970" stroke="#191970" points="541.5532,-2547.2429 550.2781,-2541.2324 539.7093,-2540.4901 541.5532,-2547.2429"/>
</g>
<!-- Node27&#45;&gt;Node25 -->
<g id="edge59" class="edge">
<title>Node27&#45;&gt;Node25</title>
<path fill="none" stroke="#191970" d="M439.7404,-2667.1646C451.9298,-2662.8525 466.6288,-2656.961 479,-2650 507.7049,-2633.8483 537.3145,-2609.8655 555.8028,-2593.8466"/>
<polygon fill="#191970" stroke="#191970" points="558.2728,-2596.3354 563.4717,-2587.1038 553.6506,-2591.0785 558.2728,-2596.3354"/>
</g>
<!-- Node28&#45;&gt;Node6 -->
<g id="edge73" class="edge">
<title>Node28&#45;&gt;Node6</title>
<path fill="none" stroke="#191970" d="M300.4409,-1544.8633C350.1228,-1506.997 534.5648,-1376 708.5,-1376 708.5,-1376 708.5,-1376 808.5,-1376 859.5462,-1376 918.6457,-1376 955.3054,-1376"/>
<polygon fill="#191970" stroke="#191970" points="955.4765,-1379.5001 965.4764,-1376 955.4764,-1372.5001 955.4765,-1379.5001"/>
</g>
<!-- Node28&#45;&gt;Node8 -->
<g id="edge72" class="edge">
<title>Node28&#45;&gt;Node8</title>
<path fill="none" stroke="#191970" d="M313.7302,-1552.3496C365.3169,-1547.137 480.03,-1535.5457 538.5935,-1529.6282"/>
<polygon fill="#191970" stroke="#191970" points="539.2498,-1533.0798 548.8473,-1528.5921 538.546,-1526.1152 539.2498,-1533.0798"/>
</g>
<!-- Node28&#45;&gt;Node9 -->
<g id="edge63" class="edge">
<title>Node28&#45;&gt;Node9</title>
<path fill="none" stroke="#191970" d="M290.5117,-1544.6959C297.5668,-1522.1814 317.1754,-1468.0539 351,-1436 451.7385,-1340.5349 515.9078,-1376.9113 634,-1304 654.1849,-1291.5377 675.197,-1274.4629 689.7398,-1261.8879"/>
<polygon fill="#191970" stroke="#191970" points="692.2956,-1264.3015 697.4997,-1255.0729 687.6764,-1259.0419 692.2956,-1264.3015"/>
</g>
<!-- Node28&#45;&gt;Node10 -->
<g id="edge64" class="edge">
<title>Node28&#45;&gt;Node10</title>
<path fill="none" stroke="#191970" d="M289.1148,-1544.9703C294.2784,-1514.9426 312.3619,-1423.8323 351,-1359 405.0743,-1268.2668 425.6587,-1243.3442 515,-1187 559.7655,-1158.7681 710.0583,-1116.9814 776.4775,-1099.3406"/>
<polygon fill="#191970" stroke="#191970" points="777.6139,-1102.6606 786.3883,-1096.7225 775.826,-1095.8928 777.6139,-1102.6606"/>
</g>
<!-- Node28&#45;&gt;Node16 -->
<g id="edge70" class="edge">
<title>Node28&#45;&gt;Node16</title>
<path fill="none" stroke="#191970" d="M290.6693,-1565.2649C297.7919,-1586.5695 317.1456,-1635.7046 351,-1661 398.0629,-1696.1645 422.2933,-1678.6439 479,-1694 548.1212,-1712.7179 565.4949,-1717.1396 634,-1738 751.0217,-1773.6341 888.3687,-1819.469 953.1231,-1841.3201"/>
<polygon fill="#191970" stroke="#191970" points="952.2841,-1844.731 962.8783,-1844.6159 954.5247,-1838.0992 952.2841,-1844.731"/>
</g>
<!-- Node28&#45;&gt;Node17 -->
<g id="edge68" class="edge">
<title>Node28&#45;&gt;Node17</title>
<path fill="none" stroke="#191970" d="M313.7447,-1557.9253C384.9333,-1566.3531 587.0761,-1593.5691 747,-1647 873.7013,-1689.3312 903.0259,-1708.9847 1018,-1777 1029.4627,-1783.781 1041.5711,-1792.2954 1051.4558,-1799.6373"/>
<polygon fill="#191970" stroke="#191970" points="1049.4095,-1802.4779 1059.4979,-1805.7143 1053.6297,-1796.893 1049.4095,-1802.4779"/>
</g>
<!-- Node28&#45;&gt;Node21 -->
<g id="edge76" class="edge">
<title>Node28&#45;&gt;Node21</title>
<path fill="none" stroke="#191970" d="M289.0828,-1565.0472C295.7142,-1606.1912 322.2546,-1761.503 351,-1801 394.0921,-1860.2099 474.7538,-1894.2454 526.4786,-1910.9258"/>
<polygon fill="#191970" stroke="#191970" points="525.5122,-1914.2907 536.1011,-1913.9368 527.6027,-1907.6101 525.5122,-1914.2907"/>
</g>
<!-- Node28&#45;&gt;Node22 -->
<g id="edge71" class="edge">
<title>Node28&#45;&gt;Node22</title>
<path fill="none" stroke="#191970" d="M288.0492,-1565.2069C292.2078,-1641.494 319.4373,-2123.5281 351,-2266 364.1375,-2325.3018 391.9392,-2391.8043 406.1831,-2423.7851"/>
<polygon fill="#191970" stroke="#191970" points="402.9934,-2425.226 410.2956,-2432.9025 409.3744,-2422.3478 402.9934,-2425.226"/>
</g>
<!-- Node28&#45;&gt;Node23 -->
<g id="edge75" class="edge">
<title>Node28&#45;&gt;Node23</title>
<path fill="none" stroke="#191970" d="M288.0117,-1565.457C291.8007,-1641.3341 316.3181,-2105.9186 351,-2157 395.5101,-2222.557 490.503,-2251.0983 541.124,-2262.0528"/>
<polygon fill="#191970" stroke="#191970" points="540.4228,-2265.4818 550.9235,-2264.0728 541.8361,-2258.6259 540.4228,-2265.4818"/>
</g>
<!-- Node29 -->
<g id="node29" class="node">
<title>Node29</title>
<g id="a_node29"><a xlink:href="../../d6/dcf/pythia6425mod_8f.html#a1b5177c55286abfcfa1e7668bdb4bd74" target="_top" xlink:title="pycttr">
<polygon fill="none" stroke="#000000" points="551.5,-1080 551.5,-1100 597.5,-1100 597.5,-1080 551.5,-1080"/>
<text text-anchor="middle" x="574.5" y="-1087" font-family="FreeSans" font-size="10.00" fill="#000000">pycttr</text>
</a>
</g>
</g>
<!-- Node28&#45;&gt;Node29 -->
<g id="edge65" class="edge">
<title>Node28&#45;&gt;Node29</title>
<path fill="none" stroke="#191970" d="M288.6518,-1544.8152C294.1516,-1497.4184 318.8095,-1298.5347 351,-1246 396.4279,-1171.862 491.7888,-1123.7816 541.9972,-1102.5476"/>
<polygon fill="#191970" stroke="#191970" points="543.503,-1105.7125 551.4087,-1098.6591 540.8299,-1099.243 543.503,-1105.7125"/>
</g>
<!-- Node30 -->
<g id="node30" class="node">
<title>Node30</title>
<g id="a_node30"><a xlink:href="../../d6/dcf/pythia6425mod_8f.html#a5fe7258c6d0b84acd97639f5f4d66acd" target="_top" xlink:title="pyjurf">
<polygon fill="none" stroke="#000000" points="551.5,-1875 551.5,-1895 597.5,-1895 597.5,-1875 551.5,-1875"/>
<text text-anchor="middle" x="574.5" y="-1882" font-family="FreeSans" font-size="10.00" fill="#000000">pyjurf</text>
</a>
</g>
</g>
<!-- Node28&#45;&gt;Node30 -->
<g id="edge69" class="edge">
<title>Node28&#45;&gt;Node30</title>
<path fill="none" stroke="#191970" d="M288.7602,-1565.0811C292.8591,-1594.3502 308.1173,-1680.7581 351,-1736 402.9008,-1802.8591 493.5489,-1849.8091 541.9157,-1871.474"/>
<polygon fill="#191970" stroke="#191970" points="540.7205,-1874.7717 551.2837,-1875.5899 543.5363,-1868.363 540.7205,-1874.7717"/>
</g>
<!-- Node31 -->
<g id="node31" class="node">
<title>Node31</title>
<g id="a_node31"><a xlink:href="../../d4/d1a/classgenfit_1_1EventDisplay.html#a52285c17ebaf4ac0de0e0a890a6060cb" target="_top" xlink:title="Go to the previous event or step a certain number of events back.">
<polygon fill="none" stroke="#ff0000" points="515,-1747 515,-1779 634,-1779 634,-1747 515,-1747"/>
<text text-anchor="start" x="523" y="-1766" font-family="FreeSans" font-size="10.00" fill="#000000">genfit::EventDisplay</text>
<text text-anchor="middle" x="574.5" y="-1754" font-family="FreeSans" font-size="10.00" fill="#000000">::prev</text>
</a>
</g>
</g>
<!-- Node28&#45;&gt;Node31 -->
<g id="edge74" class="edge">
<title>Node28&#45;&gt;Node31</title>
<path fill="none" stroke="#191970" d="M289.1916,-1565.0778C294.001,-1590.5631 310.1414,-1658.1022 351,-1694 393.722,-1731.535 456.5837,-1748.6521 504.7671,-1756.4577"/>
<polygon fill="#191970" stroke="#191970" points="504.4009,-1759.9422 514.8136,-1757.986 505.4538,-1753.0218 504.4009,-1759.9422"/>
</g>
<!-- Node29&#45;&gt;Node9 -->
<g id="edge66" class="edge">
<title>Node29&#45;&gt;Node9</title>
<path fill="none" stroke="#191970" d="M584.4315,-1100.0356C596.4473,-1112.2855 617.1598,-1133.7512 634,-1153 655.8463,-1177.971 679.7655,-1208.0329 694.4559,-1226.8353"/>
<polygon fill="#191970" stroke="#191970" points="691.7932,-1229.1128 700.6961,-1234.8563 697.3181,-1224.8144 691.7932,-1229.1128"/>
</g>
<!-- Node29&#45;&gt;Node10 -->
<g id="edge67" class="edge">
<title>Node29&#45;&gt;Node10</title>
<path fill="none" stroke="#191970" d="M597.7923,-1090.0995C639.8141,-1090.2791 728.3775,-1090.6576 776.214,-1090.862"/>
<polygon fill="#191970" stroke="#191970" points="776.3161,-1094.3624 786.331,-1090.9053 776.3461,-1087.3625 776.3161,-1094.3624"/>
</g>
<!-- Node32&#45;&gt;Node2 -->
<g id="edge100" class="edge">
<title>Node32&#45;&gt;Node2</title>
<path fill="none" stroke="#191970" d="M113.9661,-945.8494C119.1317,-892.6103 144.3667,-645.3827 174,-575 206.8546,-496.9665 202.8322,-422 287.5,-422 287.5,-422 287.5,-422 415,-422 512.7384,-422 544.882,-401.8655 634,-442 752.6028,-495.413 851.7831,-624.3847 885.8525,-672.4951"/>
<polygon fill="#191970" stroke="#191970" points="883.1906,-674.7966 891.7847,-680.9927 888.9303,-670.7896 883.1906,-674.7966"/>
</g>
<!-- Node32&#45;&gt;Node6 -->
<g id="edge81" class="edge">
<title>Node32&#45;&gt;Node6</title>
<path fill="none" stroke="#191970" d="M113.6547,-945.8727C118.1231,-877.8693 144.8256,-489.1108 174,-446 206.2151,-398.396 230.02,-384 287.5,-384 287.5,-384 287.5,-384 708.5,-384 869.1691,-384 871.368,-521.2696 927,-672 965.879,-777.3396 951.3461,-1064.3211 963,-1176 969.8603,-1241.7417 981.537,-1319.1616 987.2108,-1355.3757"/>
<polygon fill="#191970" stroke="#191970" points="983.8113,-1356.287 988.8283,-1365.6186 990.7256,-1355.195 983.8113,-1356.287"/>
</g>
<!-- Node32&#45;&gt;Node7 -->
<g id="edge106" class="edge">
<title>Node32&#45;&gt;Node7</title>
<path fill="none" stroke="#191970" d="M113.2117,-945.9311C115.1075,-859.24 130.1312,-240.3665 174,-172 240.1858,-68.854 292.4453,-38 415,-38 415,-38 415,-38 898.5,-38 956.782,-38 984.7991,-44.0992 1018,-92 1065.3456,-160.3082 1071.6231,-778.9532 1072.397,-898.9067"/>
<polygon fill="#191970" stroke="#191970" points="1068.8971,-898.9439 1072.4559,-908.9231 1075.897,-898.9027 1068.8971,-898.9439"/>
</g>
<!-- Node32&#45;&gt;Node8 -->
<g id="edge80" class="edge">
<title>Node32&#45;&gt;Node8</title>
<path fill="none" stroke="#191970" d="M113.8028,-966.1836C118.7786,-1028.2575 146.109,-1354.1805 174,-1388 267.5922,-1501.4862 459.4258,-1521.8779 538.8484,-1525.3694"/>
<polygon fill="#191970" stroke="#191970" points="538.7231,-1528.8671 548.8473,-1525.7444 538.9855,-1521.872 538.7231,-1528.8671"/>
</g>
<!-- Node32&#45;&gt;Node9 -->
<g id="edge93" class="edge">
<title>Node32&#45;&gt;Node9</title>
<path fill="none" stroke="#191970" d="M124.2283,-966.2066C136.1276,-976.7783 155.6921,-993.4736 174,-1006 302.4383,-1093.8788 362.0401,-1075.3382 479,-1178 499.0413,-1195.5913 491.7606,-1212.9218 515,-1226 564.1164,-1253.6407 631.475,-1253.3085 672.3873,-1249.7341"/>
<polygon fill="#191970" stroke="#191970" points="672.8323,-1253.2073 682.4408,-1248.7432 672.1457,-1246.241 672.8323,-1253.2073"/>
</g>
<!-- Node32&#45;&gt;Node16 -->
<g id="edge94" class="edge">
<title>Node32&#45;&gt;Node16</title>
<path fill="none" stroke="#191970" d="M113.5157,-966.076C116.9168,-1030.6734 137.134,-1387.1957 174,-1489 197.7142,-1554.4859 213.1498,-1568.4653 260,-1620 431.1749,-1808.2905 530.3499,-1822.6337 783,-1853 842.0216,-1860.0939 911.1696,-1858.4579 952.8657,-1856.399"/>
<polygon fill="#191970" stroke="#191970" points="953.0507,-1859.8942 962.8521,-1855.8715 952.6813,-1852.904 953.0507,-1859.8942"/>
</g>
<!-- Node32&#45;&gt;Node17 -->
<g id="edge83" class="edge">
<title>Node32&#45;&gt;Node17</title>
<path fill="none" stroke="#191970" d="M114.5547,-966.0658C120.8651,-1005.8788 145.5881,-1151.9306 174,-1188 437.5637,-1522.5995 746.7407,-1313.6085 1018,-1642 1056.0195,-1688.0271 1067.5996,-1760.6689 1071.062,-1795.7337"/>
<polygon fill="#191970" stroke="#191970" points="1067.5766,-1796.0549 1071.9241,-1805.7166 1074.5506,-1795.4525 1067.5766,-1796.0549"/>
</g>
<!-- Node32&#45;&gt;Node21 -->
<g id="edge82" class="edge">
<title>Node32&#45;&gt;Node21</title>
<path fill="none" stroke="#191970" d="M113.2233,-966.2004C115.5337,-1069.5408 135.7698,-1924.0221 174,-1960 272.716,-2052.9003 347.7784,-1994.0029 479,-1960 496.7182,-1955.4088 498.0358,-1946.8722 515,-1940 518.6326,-1938.5284 522.4443,-1937.1503 526.3093,-1935.8691"/>
<polygon fill="#191970" stroke="#191970" points="527.4358,-1939.1843 535.9551,-1932.8857 525.3674,-1932.4969 527.4358,-1939.1843"/>
</g>
<!-- Node33 -->
<g id="node33" class="node">
<title>Node33</title>
<g id="a_node33"><a xlink:href="../../d2/d18/medium-simple_8f.html#a58e0410e81664819969cd2981fd7cd27" target="_top" xlink:title="npart">
<polygon fill="none" stroke="#ff0000" points="552.5,-451 552.5,-471 596.5,-471 596.5,-451 552.5,-451"/>
<text text-anchor="middle" x="574.5" y="-458" font-family="FreeSans" font-size="10.00" fill="#000000">npart</text>
</a>
</g>
</g>
<!-- Node32&#45;&gt;Node33 -->
<g id="edge78" class="edge">
<title>Node32&#45;&gt;Node33</title>
<path fill="none" stroke="#191970" d="M113.2864,-945.7423C114.7396,-907.2703 123.4055,-768.7219 174,-670 227.3828,-565.8375 245.5132,-525.7158 351,-475 413.2816,-445.0563 496.8244,-449.9452 542.0774,-455.7315"/>
<polygon fill="#191970" stroke="#191970" points="541.8084,-459.2274 552.1921,-457.123 542.7625,-452.2927 541.8084,-459.2274"/>
</g>
<!-- Node34 -->
<g id="node34" class="node">
<title>Node34</title>
<g id="a_node34"><a xlink:href="../../d8/d1a/classHiMain1.html#afa91501b2c79bdaf9274e067b9d97e31" target="_top" xlink:title="HiMain1::n0">
<polygon fill="none" stroke="#ff0000" points="670,-315 670,-335 747,-335 747,-315 670,-315"/>
<text text-anchor="middle" x="708.5" y="-322" font-family="FreeSans" font-size="10.00" fill="#000000">HiMain1::n0</text>
</a>
</g>
</g>
<!-- Node32&#45;&gt;Node34 -->
<g id="edge154" class="edge">
<title>Node32&#45;&gt;Node34</title>
<path fill="none" stroke="#191970" d="M113.2536,-945.937C115.3375,-866.6413 130.6671,-344.1129 174,-291 299.9043,-136.6801 589.3064,-264.4015 680.4674,-310.2305"/>
<polygon fill="#191970" stroke="#191970" points="679.1262,-313.4752 689.6253,-314.8963 682.304,-307.238 679.1262,-313.4752"/>
</g>
<!-- Node35 -->
<g id="node35" class="node">
<title>Node35</title>
<g id="a_node35"><a xlink:href="../../d6/dcf/pythia6425mod_8f.html#ad7324915c7a7d7f155890fd467a05d8e" target="_top" xlink:title="pywidt">
<polygon fill="none" stroke="#ff0000" points="390,-259 390,-279 440,-279 440,-259 390,-259"/>
<text text-anchor="middle" x="415" y="-266" font-family="FreeSans" font-size="10.00" fill="#000000">pywidt</text>
</a>
</g>
</g>
<!-- Node32&#45;&gt;Node35 -->
<g id="edge84" class="edge">
<title>Node32&#45;&gt;Node35</title>
<path fill="none" stroke="#191970" d="M113.3031,-945.8206C115.6818,-868.907 132.3641,-380.8068 174,-332 225.3101,-271.8528 326.2371,-265.482 379.7512,-266.7553"/>
<polygon fill="#191970" stroke="#191970" points="379.6794,-270.2548 389.7931,-267.0983 379.9184,-263.2589 379.6794,-270.2548"/>
</g>
<!-- Node36 -->
<g id="node36" class="node">
<title>Node36</title>
<g id="a_node36"><a xlink:href="../../d3/dd5/jewel-2_82_80_8f.html#a128c80a01e220038eb138a985885083a" target="_top" xlink:title="ei">
<polygon fill="none" stroke="#000000" points="560,-333 560,-353 589,-353 589,-333 560,-333"/>
<text text-anchor="middle" x="574.5" y="-340" font-family="FreeSans" font-size="10.00" fill="#000000">ei</text>
</a>
</g>
</g>
<!-- Node32&#45;&gt;Node36 -->
<g id="edge153" class="edge">
<title>Node32&#45;&gt;Node36</title>
<path fill="none" stroke="#191970" d="M113.2908,-945.6592C115.5002,-870.6459 130.7414,-411.7116 174,-370 279.2158,-268.5468 480.8487,-315.2064 550.2939,-335.3857"/>
<polygon fill="#191970" stroke="#191970" points="549.3292,-338.7503 559.9127,-338.2604 551.3337,-332.0434 549.3292,-338.7503"/>
</g>
<!-- Node37 -->
<g id="node37" class="node">
<title>Node37</title>
<g id="a_node37"><a xlink:href="../../d6/dcf/pythia6425mod_8f.html#a7c47045290198780dd664e84fbacf4fc" target="_top" xlink:title="pyofsh">
<polygon fill="none" stroke="#ff0000" points="549.5,-795 549.5,-815 599.5,-815 599.5,-795 549.5,-795"/>
<text text-anchor="middle" x="574.5" y="-802" font-family="FreeSans" font-size="10.00" fill="#000000">pyofsh</text>
</a>
</g>
</g>
<!-- Node32&#45;&gt;Node37 -->
<g id="edge95" class="edge">
<title>Node32&#45;&gt;Node37</title>
<path fill="none" stroke="#191970" d="M115.1049,-945.9937C120.4702,-923.1807 136.938,-867.267 174,-841 286.6051,-761.1931 464.1458,-783.1807 539.1686,-797.3341"/>
<polygon fill="#191970" stroke="#191970" points="538.571,-800.7834 549.0568,-799.2678 539.9145,-793.9135 538.571,-800.7834"/>
</g>
<!-- Node38 -->
<g id="node38" class="node">
<title>Node38</title>
<g id="a_node38"><a xlink:href="../../d6/dcf/pythia6425mod_8f.html#a248b5187a6bf187f6d5daff60b824804" target="_top" xlink:title="pygram">
<polygon fill="none" stroke="#ff0000" points="871,-835 871,-855 926,-855 926,-835 871,-835"/>
<text text-anchor="middle" x="898.5" y="-842" font-family="FreeSans" font-size="10.00" fill="#000000">pygram</text>
</a>
</g>
</g>
<!-- Node32&#45;&gt;Node38 -->
<g id="edge90" class="edge">
<title>Node32&#45;&gt;Node38</title>
<path fill="none" stroke="#191970" d="M138.3118,-953.1525C231.3033,-942.5654 562.7546,-903.7211 834,-858 842.7438,-856.5261 852.1154,-854.7508 860.9301,-852.9924"/>
<polygon fill="#191970" stroke="#191970" points="861.8488,-856.3773 870.9509,-850.9549 860.454,-849.5176 861.8488,-856.3773"/>
</g>
<!-- Node39 -->
<g id="node39" class="node">
<title>Node39</title>
<g id="a_node39"><a xlink:href="../../d6/dcf/pythia6425mod_8f.html#a89821a60f56d9d359eb0d345f14611f4" target="_top" xlink:title="pytbdy">
<polygon fill="none" stroke="#ff0000" points="389.5,-143 389.5,-163 440.5,-163 440.5,-143 389.5,-143"/>
<text text-anchor="middle" x="415" y="-150" font-family="FreeSans" font-size="10.00" fill="#000000">pytbdy</text>
</a>
</g>
</g>
<!-- Node32&#45;&gt;Node39 -->
<g id="edge96" class="edge">
<title>Node32&#45;&gt;Node39</title>
<path fill="none" stroke="#191970" d="M113.2256,-945.9758C115.1871,-862.2395 130.3363,-280.6124 174,-218 219.6434,-152.5488 324.3078,-147.624 379.4758,-150.0171"/>
<polygon fill="#191970" stroke="#191970" points="379.3228,-153.5139 389.4966,-150.5568 379.6993,-146.524 379.3228,-153.5139"/>
</g>
<!-- Node40 -->
<g id="node40" class="node">
<title>Node40</title>
<g id="a_node40"><a xlink:href="../../d6/dcf/pythia6425mod_8f.html#a2b9b48d65354953ca74e6e3571daf5d4" target="_top" xlink:title="py2ent">
<polygon fill="none" stroke="#000000" points="548.5,-1274 548.5,-1294 600.5,-1294 600.5,-1274 548.5,-1274"/>
<text text-anchor="middle" x="574.5" y="-1281" font-family="FreeSans" font-size="10.00" fill="#000000">py2ent</text>
</a>
</g>
</g>
<!-- Node32&#45;&gt;Node40 -->
<g id="edge101" class="edge">
<title>Node32&#45;&gt;Node40</title>
<path fill="none" stroke="#191970" d="M114.5856,-966.139C120.6528,-1003.6029 143.5892,-1133.4261 174,-1160 277.3314,-1250.2942 362.454,-1135.5607 479,-1208 502.5641,-1222.6463 493.3733,-1241.6201 515,-1259 522.1072,-1264.7116 530.708,-1269.3181 539.1348,-1272.945"/>
<polygon fill="#191970" stroke="#191970" points="537.8992,-1276.22 548.4861,-1276.6303 540.4658,-1269.7075 537.8992,-1276.22"/>
</g>
<!-- Node41 -->
<g id="node41" class="node">
<title>Node41</title>
<g id="a_node41"><a xlink:href="../../d6/dcf/pythia6425mod_8f.html#acaa9b0dacb1d573f221e375e29d705c0" target="_top" xlink:title="pyxjet">
<polygon fill="none" stroke="#ff0000" points="550.5,-1196 550.5,-1216 598.5,-1216 598.5,-1196 550.5,-1196"/>
<text text-anchor="middle" x="574.5" y="-1203" font-family="FreeSans" font-size="10.00" fill="#000000">pyxjet</text>
</a>
</g>
</g>
<!-- Node32&#45;&gt;Node41 -->
<g id="edge107" class="edge">
<title>Node32&#45;&gt;Node41</title>
<path fill="none" stroke="#191970" d="M133.7015,-966.0283C145.4208,-971.5722 160.4103,-978.442 174,-984 307.3781,-1038.5501 370.191,-999.5223 479,-1094 504.821,-1116.4201 492.6974,-1136.0775 515,-1162 524.4546,-1172.9892 537.134,-1182.8391 548.3586,-1190.4192"/>
<polygon fill="#191970" stroke="#191970" points="546.6634,-1193.4912 556.9593,-1195.99 550.4689,-1187.6159 546.6634,-1193.4912"/>
</g>
<!-- Node42 -->
<g id="node42" class="node">
<title>Node42</title>
<g id="a_node42"><a xlink:href="../../d6/dcf/pythia6425mod_8f.html#a3d8e2097368a69d1101835198fe12cba" target="_top" xlink:title="pyx4jt">
<polygon fill="none" stroke="#000000" points="874.5,-1751 874.5,-1771 922.5,-1771 922.5,-1751 874.5,-1751"/>
<text text-anchor="middle" x="898.5" y="-1758" font-family="FreeSans" font-size="10.00" fill="#000000">pyx4jt</text>
</a>
</g>
</g>
<!-- Node32&#45;&gt;Node42 -->
<g id="edge110" class="edge">
<title>Node32&#45;&gt;Node42</title>
<path fill="none" stroke="#191970" d="M113.8065,-966.3172C118.5992,-1026.5955 144.1438,-1333.6204 174,-1423 198.592,-1496.6201 212.1496,-1513.8851 260,-1575 294.3057,-1618.8156 301.3586,-1635.8521 351,-1661 442.5624,-1707.3847 759.2292,-1745.6533 864.3118,-1757.3303"/>
<polygon fill="#191970" stroke="#191970" points="864.049,-1760.8224 874.3721,-1758.4386 864.8155,-1753.8645 864.049,-1760.8224"/>
</g>
<!-- Node43 -->
<g id="node43" class="node">
<title>Node43</title>
<g id="a_node43"><a xlink:href="../../d6/dcf/pythia6425mod_8f.html#abab2a3f9f28eb5eca8f8a75190e6113f" target="_top" xlink:title="pyx3jt">
<polygon fill="none" stroke="#000000" points="874.5,-2182 874.5,-2202 922.5,-2202 922.5,-2182 874.5,-2182"/>
<text text-anchor="middle" x="898.5" y="-2189" font-family="FreeSans" font-size="10.00" fill="#000000">pyx3jt</text>
</a>
</g>
</g>
<!-- Node32&#45;&gt;Node43 -->
<g id="edge113" class="edge">
<title>Node32&#45;&gt;Node43</title>
<path fill="none" stroke="#191970" d="M113.3139,-966.2117C116.3311,-1062.8561 140.8073,-1813.6263 174,-1846 320.4967,-1988.882 451.2111,-1773.9959 634,-1866 771.8742,-1935.3969 862.6493,-2113.0851 889.8933,-2172.3948"/>
<polygon fill="#191970" stroke="#191970" points="886.8095,-2174.0705 894.11,-2181.7486 893.191,-2171.1937 886.8095,-2174.0705"/>
</g>
<!-- Node44 -->
<g id="node44" class="node">
<title>Node44</title>
<g id="a_node44"><a xlink:href="../../d6/dcf/pythia6425mod_8f.html#a236783c5902cb61da4d1d5ce4491e2fe" target="_top" xlink:title="py3ent">
<polygon fill="none" stroke="#000000" points="548.5,-1025 548.5,-1045 600.5,-1045 600.5,-1025 548.5,-1025"/>
<text text-anchor="middle" x="574.5" y="-1032" font-family="FreeSans" font-size="10.00" fill="#000000">py3ent</text>
</a>
</g>
</g>
<!-- Node32&#45;&gt;Node44 -->
<g id="edge117" class="edge">
<title>Node32&#45;&gt;Node44</title>
<path fill="none" stroke="#191970" d="M138.14,-960.3035C215.2168,-973.4976 448.4275,-1013.4188 538.4795,-1028.834"/>
<polygon fill="#191970" stroke="#191970" points="538.037,-1032.3091 548.4842,-1030.5466 539.2181,-1025.4094 538.037,-1032.3091"/>
</g>
<!-- Node45 -->
<g id="node45" class="node">
<title>Node45</title>
<g id="a_node45"><a xlink:href="../../d6/dcf/pythia6425mod_8f.html#a30fa8bc62ece593663313208df32aa2b" target="_top" xlink:title="py4ent">
<polygon fill="none" stroke="#000000" points="548.5,-2450 548.5,-2470 600.5,-2470 600.5,-2450 548.5,-2450"/>
<text text-anchor="middle" x="574.5" y="-2457" font-family="FreeSans" font-size="10.00" fill="#000000">py4ent</text>
</a>
</g>
</g>
<!-- Node32&#45;&gt;Node45 -->
<g id="edge122" class="edge">
<title>Node32&#45;&gt;Node45</title>
<path fill="none" stroke="#191970" d="M113.0362,-966.2536C113.4332,-1045.6029 118.1555,-1569.8883 174,-1991 198.7052,-2177.297 196.7366,-2228.0405 260,-2405 289.3786,-2487.1772 276.3481,-2533.7972 351,-2579 399.663,-2608.4661 429.4953,-2607.0291 479,-2579 506.0618,-2563.6779 495.81,-2543.4715 515,-2519 527.0766,-2503.5997 542.8921,-2488.0918 555.1817,-2476.8425"/>
<polygon fill="#191970" stroke="#191970" points="557.5759,-2479.3966 562.6739,-2470.1089 552.8967,-2474.1903 557.5759,-2479.3966"/>
</g>
<!-- Node46 -->
<g id="node46" class="node">
<title>Node46</title>
<g id="a_node46"><a xlink:href="../../d6/dcf/pythia6425mod_8f.html#a8c4e67bd02e0c6e202fd31548c976419" target="_top" xlink:title="pyxdif">
<polygon fill="none" stroke="#000000" points="874.5,-1635 874.5,-1655 922.5,-1655 922.5,-1635 874.5,-1635"/>
<text text-anchor="middle" x="898.5" y="-1642" font-family="FreeSans" font-size="10.00" fill="#000000">pyxdif</text>
</a>
</g>
</g>
<!-- Node32&#45;&gt;Node46 -->
<g id="edge128" class="edge">
<title>Node32&#45;&gt;Node46</title>
<path fill="none" stroke="#191970" d="M113.9323,-966.0392C119.4417,-1024.4938 148.3731,-1319.4351 174,-1350 243.3969,-1432.7689 534.7214,-1464.4514 634,-1507 724.1896,-1545.6533 825.7456,-1602.6726 872.4529,-1629.7066"/>
<polygon fill="#191970" stroke="#191970" points="870.8992,-1632.8519 881.3037,-1634.8513 874.417,-1626.8 870.8992,-1632.8519"/>
</g>
<!-- Node32&#45;&gt;Node47 -->
<g id="edge132" class="edge">
<title>Node32&#45;&gt;Node47</title>
<path fill="none" stroke="#191970" d="M114.4795,-945.8003C120.5944,-904.7565 144.9436,-752.0524 174,-714 193.1496,-688.9216 225.1266,-672.1718 250.2677,-662.1198"/>
<polygon fill="#191970" stroke="#191970" points="251.7696,-665.2933 259.8723,-658.4671 249.2812,-658.7505 251.7696,-665.2933"/>
</g>
<!-- Node48 -->
<g id="node48" class="node">
<title>Node48</title>
<g id="a_node48"><a xlink:href="../../d6/dcf/pythia6425mod_8f.html#a7fce06ff25ae6503bb24f0f3c9b453b3" target="_top" xlink:title="pyptfs">
<polygon fill="none" stroke="#ff0000" points="391,-717 391,-737 439,-737 439,-717 391,-717"/>
<text text-anchor="middle" x="415" y="-724" font-family="FreeSans" font-size="10.00" fill="#000000">pyptfs</text>
</a>
</g>
</g>
<!-- Node32&#45;&gt;Node48 -->
<g id="edge152" class="edge">
<title>Node32&#45;&gt;Node48</title>
<path fill="none" stroke="#191970" d="M114.5412,-945.8088C120.4506,-908.1595 142.8992,-777.763 174,-752 232.9454,-703.1714 329.8552,-711.1264 380.9785,-719.8116"/>
<polygon fill="#191970" stroke="#191970" points="380.4022,-723.2641 390.8653,-721.5987 381.6474,-716.3757 380.4022,-723.2641"/>
</g>
<!-- Node49 -->
<g id="node49" class="node">
<title>Node49</title>
<g id="a_node49"><a xlink:href="../../d6/dcf/pythia6425mod_8f.html#a765625392f2be53cb4e630c2114d8e98" target="_top" xlink:title="pyreco">
<polygon fill="none" stroke="#ff0000" points="174,-850 174,-870 224,-870 224,-850 174,-850"/>
<text text-anchor="middle" x="199" y="-857" font-family="FreeSans" font-size="10.00" fill="#000000">pyreco</text>
</a>
</g>
</g>
<!-- Node32&#45;&gt;Node49 -->
<g id="edge155" class="edge">
<title>Node32&#45;&gt;Node49</title>
<path fill="none" stroke="#191970" d="M122.2035,-945.7263C136.7517,-929.4865 165.2428,-897.6825 183.135,-877.7098"/>
<polygon fill="#191970" stroke="#191970" points="185.7971,-879.9836 189.8627,-870.1998 180.5832,-875.3128 185.7971,-879.9836"/>
</g>
<!-- Node33&#45;&gt;Node34 -->
<g id="edge79" class="edge">
<title>Node33&#45;&gt;Node34</title>
<path fill="none" stroke="#191970" d="M584.5718,-450.7779C607.2709,-427.74 662.6532,-371.5311 691.0631,-342.6971"/>
<polygon fill="#191970" stroke="#191970" points="693.786,-344.9205 698.3113,-335.3407 688.7997,-340.0075 693.786,-344.9205"/>
</g>
<!-- Node35&#45;&gt;Node7 -->
<g id="edge85" class="edge">
<title>Node35&#45;&gt;Node7</title>
<path fill="none" stroke="#191970" d="M440.1258,-268.5702C490.8521,-267.7406 609.1328,-266 708.5,-266 708.5,-266 708.5,-266 898.5,-266 959.1732,-266 984.7809,-281.2287 1018,-332 1049.6675,-380.4 1067.9035,-801.0097 1071.737,-898.7639"/>
<polygon fill="#191970" stroke="#191970" points="1068.2417,-898.9561 1072.1246,-908.8138 1075.2365,-898.6863 1068.2417,-898.9561"/>
</g>
<!-- Node35&#45;&gt;Node36 -->
<g id="edge86" class="edge">
<title>Node35&#45;&gt;Node36</title>
<path fill="none" stroke="#191970" d="M440.167,-277.405C452.1899,-281.7766 466.6218,-287.5526 479,-294 496.0548,-302.8833 498.0593,-308.9011 515,-318 526.3362,-324.0887 539.4757,-329.7457 550.5192,-334.1331"/>
<polygon fill="#191970" stroke="#191970" points="549.3706,-337.4414 559.96,-337.7813 551.8938,-330.912 549.3706,-337.4414"/>
</g>
<!-- Node35&#45;&gt;Node37 -->
<g id="edge87" class="edge">
<title>Node35&#45;&gt;Node37</title>
<path fill="none" stroke="#191970" d="M418.0438,-279.2287C437.31,-343.9727 542.3449,-696.9428 568.5665,-785.0604"/>
<polygon fill="#191970" stroke="#191970" points="565.2174,-786.0775 571.4242,-794.6639 571.9266,-784.081 565.2174,-786.0775"/>
</g>
<!-- Node37&#45;&gt;Node9 -->
<g id="edge89" class="edge">
<title>Node37&#45;&gt;Node9</title>
<path fill="none" stroke="#191970" d="M578.1628,-815.3175C587.7591,-842.4679 614.2538,-918.203 634,-982 661.9407,-1072.2722 691.4893,-1181.2321 703.2396,-1225.1912"/>
<polygon fill="#191970" stroke="#191970" points="699.8741,-1226.1547 705.8317,-1234.9159 706.638,-1224.3518 699.8741,-1226.1547"/>
</g>
<!-- Node37&#45;&gt;Node17 -->
<g id="edge88" class="edge">
<title>Node37&#45;&gt;Node17</title>
<path fill="none" stroke="#191970" d="M599.513,-802.2509C688.7238,-792.7156 987.6061,-763.1807 1018,-792 1055.8144,-827.8553 1070.0503,-1654.8999 1072.2035,-1795.7084"/>
<polygon fill="#191970" stroke="#191970" points="1068.7071,-1795.9776 1072.3567,-1805.924 1075.7063,-1795.8726 1068.7071,-1795.9776"/>
</g>
<!-- Node38&#45;&gt;Node12 -->
<g id="edge92" class="edge">
<title>Node38&#45;&gt;Node12</title>
<path fill="none" stroke="#191970" d="M913.7598,-855.1437C918.7222,-859.1919 923.7762,-864.2618 927,-870 972.5241,-951.0307 939.8207,-985.9937 963,-1076 968.4082,-1097.0004 976.7264,-1120.3897 982.7984,-1136.4258"/>
<polygon fill="#191970" stroke="#191970" points="979.55,-1137.7298 986.4111,-1145.8029 986.082,-1135.2132 979.55,-1137.7298"/>
</g>
<!-- Node38&#45;&gt;Node17 -->
<g id="edge91" class="edge">
<title>Node38&#45;&gt;Node17</title>
<path fill="none" stroke="#191970" d="M911.8983,-855.0802C917.0058,-859.33 922.6412,-864.5525 927,-870 979.8088,-935.9994 994.2845,-955.8688 1018,-1037 1061.3984,-1185.4668 1070.731,-1688.1809 1072.2466,-1795.6682"/>
<polygon fill="#191970" stroke="#191970" points="1068.7487,-1795.8552 1072.3825,-1805.8074 1075.7481,-1795.7614 1068.7487,-1795.8552"/>
</g>
<!-- Node39&#45;&gt;Node7 -->
<g id="edge98" class="edge">
<title>Node39&#45;&gt;Node7</title>
<path fill="none" stroke="#191970" d="M437.3079,-142.9336C485.6635,-122.0618 604.1951,-76 708.5,-76 708.5,-76 708.5,-76 898.5,-76 967.7539,-76 986.4131,-114.3691 1018,-176 1051.8295,-242.0063 1068.7907,-786.2512 1071.9521,-898.7137"/>
<polygon fill="#191970" stroke="#191970" points="1068.4611,-899.0915 1072.236,-908.991 1075.4585,-898.8981 1068.4611,-899.0915"/>
</g>
<!-- Node39&#45;&gt;Node17 -->
<g id="edge99" class="edge">
<title>Node39&#45;&gt;Node17</title>
<path fill="none" stroke="#191970" d="M440.7748,-158.4595C491.6883,-168.7516 608.8652,-190 708.5,-190 708.5,-190 708.5,-190 898.5,-190 1056.1596,-190 987.7796,-369.2639 1018,-524 1043.3734,-653.918 1068.2521,-1641.05 1072.0117,-1795.6572"/>
<polygon fill="#191970" stroke="#191970" points="1068.5131,-1795.7614 1072.254,-1805.6738 1075.5111,-1795.5921 1068.5131,-1795.7614"/>
</g>
<!-- Node39&#45;&gt;Node36 -->
<g id="edge97" class="edge">
<title>Node39&#45;&gt;Node36</title>
<path fill="none" stroke="#191970" d="M423.5754,-163.2152C449.3226,-193.8858 526.2056,-285.4706 559.1922,-324.765"/>
<polygon fill="#191970" stroke="#191970" points="556.7719,-327.3256 565.8822,-332.7343 562.1333,-322.8249 556.7719,-327.3256"/>
</g>
<!-- Node40&#45;&gt;Node1 -->
<g id="edge103" class="edge">
<title>Node40&#45;&gt;Node1</title>
<path fill="none" stroke="#191970" d="M548.254,-1280.1241C458.6804,-1266.8963 164.904,-1223.5127 61.9974,-1208.3159"/>
<polygon fill="#191970" stroke="#191970" points="62.4904,-1204.8509 52.0863,-1206.8523 61.4677,-1211.7758 62.4904,-1204.8509"/>
</g>
<!-- Node40&#45;&gt;Node9 -->
<g id="edge102" class="edge">
<title>Node40&#45;&gt;Node9</title>
<path fill="none" stroke="#191970" d="M600.6547,-1276.3878C621.2222,-1270.4018 650.0938,-1261.9988 672.7887,-1255.3936"/>
<polygon fill="#191970" stroke="#191970" points="673.7878,-1258.7481 682.4113,-1252.593 671.8316,-1252.027 673.7878,-1258.7481"/>
</g>
<!-- Node40&#45;&gt;Node10 -->
<g id="edge104" class="edge">
<title>Node40&#45;&gt;Node10</title>
<path fill="none" stroke="#191970" d="M587.1123,-1273.8101C615.689,-1250.6961 687.5135,-1192.4549 747,-1143 761.1521,-1131.2345 777.0095,-1117.8209 789.0773,-1107.5644"/>
<polygon fill="#191970" stroke="#191970" points="791.4118,-1110.1736 796.759,-1101.0271 786.8751,-1104.8427 791.4118,-1110.1736"/>
</g>
<!-- Node40&#45;&gt;Node16 -->
<g id="edge105" class="edge">
<title>Node40&#45;&gt;Node16</title>
<path fill="none" stroke="#191970" d="M582.3651,-1294.0428C631.4623,-1356.7576 894.8223,-1693.5093 927,-1742 947.8858,-1773.4741 968.8682,-1812.2003 980.7184,-1834.8886"/>
<polygon fill="#191970" stroke="#191970" points="977.643,-1836.5612 985.3494,-1843.8319 983.8591,-1833.3424 977.643,-1836.5612"/>
</g>
<!-- Node41&#45;&gt;Node9 -->
<g id="edge108" class="edge">
<title>Node41&#45;&gt;Node9</title>
<path fill="none" stroke="#191970" d="M598.7664,-1213.0626C619.2642,-1219.0284 648.9205,-1227.6597 672.2366,-1234.4457"/>
<polygon fill="#191970" stroke="#191970" points="671.5412,-1237.8885 682.1209,-1237.3225 673.4974,-1231.1674 671.5412,-1237.8885"/>
</g>
<!-- Node41&#45;&gt;Node17 -->
<g id="edge109" class="edge">
<title>Node41&#45;&gt;Node17</title>
<path fill="none" stroke="#191970" d="M598.5057,-1205.4134C675.4962,-1205.0015 917.0742,-1215.4354 1018,-1357 1043.8315,-1393.2328 1065.8136,-1711.247 1071.2252,-1795.5583"/>
<polygon fill="#191970" stroke="#191970" points="1067.7394,-1795.8947 1071.8652,-1805.6531 1074.7254,-1795.4517 1067.7394,-1795.8947"/>
</g>
<!-- Node42&#45;&gt;Node16 -->
<g id="edge111" class="edge">
<title>Node42&#45;&gt;Node16</title>
<path fill="none" stroke="#191970" d="M910.6635,-1771.2023C915.8085,-1775.6364 921.8015,-1780.9608 927,-1786 943.8696,-1802.3526 962.0687,-1822.0749 974.6406,-1836.0588"/>
<polygon fill="#191970" stroke="#191970" points="972.0684,-1838.433 981.34,-1843.5603 977.2894,-1833.7703 972.0684,-1838.433"/>
</g>
<!-- Node42&#45;&gt;Node17 -->
<g id="edge112" class="edge">
<title>Node42&#45;&gt;Node17</title>
<path fill="none" stroke="#191970" d="M922.694,-1768.6475C955.1901,-1778.9193 1012.7185,-1797.1035 1046.2385,-1807.6989"/>
<polygon fill="#191970" stroke="#191970" points="1045.2262,-1811.0496 1055.8161,-1810.7264 1047.336,-1804.3751 1045.2262,-1811.0496"/>
</g>
<!-- Node43&#45;&gt;Node7 -->
<g id="edge116" class="edge">
<title>Node43&#45;&gt;Node7</title>
<path fill="none" stroke="#191970" d="M913.6753,-2181.8081C918.6298,-2177.7554 923.7003,-2172.6949 927,-2167 967.4642,-2097.1629 937.3937,-2065.5433 963,-1989 980.9742,-1935.271 1003.8977,-1928.8726 1018,-1874 1065.7531,-1688.1903 1071.7025,-1059.8773 1072.4086,-939.1554"/>
<polygon fill="#191970" stroke="#191970" points="1075.9088,-939.1075 1072.4618,-929.0891 1068.9089,-939.0705 1075.9088,-939.1075"/>
</g>
<!-- Node43&#45;&gt;Node16 -->
<g id="edge114" class="edge">
<title>Node43&#45;&gt;Node16</title>
<path fill="none" stroke="#191970" d="M913.8292,-2181.8948C918.7981,-2177.8502 923.8385,-2172.7727 927,-2167 977.9659,-2073.94 937.0379,-2033.8769 963,-1931 968.0234,-1911.0945 976.1478,-1889.1047 982.2662,-1873.7385"/>
<polygon fill="#191970" stroke="#191970" points="985.5935,-1874.8475 986.1187,-1864.2657 979.1092,-1872.2104 985.5935,-1874.8475"/>
</g>
<!-- Node43&#45;&gt;Node17 -->
<g id="edge115" class="edge">
<title>Node43&#45;&gt;Node17</title>
<path fill="none" stroke="#191970" d="M912.4366,-2181.8686C917.4972,-2177.6865 922.9586,-2172.5247 927,-2167 1008.4233,-2055.6929 1053.8944,-1892.0956 1067.8314,-1835.8464"/>
<polygon fill="#191970" stroke="#191970" points="1071.2456,-1836.6183 1070.1997,-1826.0752 1064.4426,-1834.9694 1071.2456,-1836.6183"/>
</g>
<!-- Node44&#45;&gt;Node1 -->
<g id="edge119" class="edge">
<title>Node44&#45;&gt;Node1</title>
<path fill="none" stroke="#191970" d="M551.0859,-1024.9907C540.0255,-1020.1066 526.7109,-1014.0003 515,-1008 273.9438,-884.4901 293.1669,-787.7627 174,-841 121.6986,-864.3654 114.4396,-886.1834 88,-937 44.1161,-1021.3443 30.9407,-1136.745 27.2907,-1182.8119"/>
<polygon fill="#191970" stroke="#191970" points="23.7867,-1182.7421 26.5551,-1192.9688 30.7684,-1183.2478 23.7867,-1182.7421"/>
</g>
<!-- Node44&#45;&gt;Node9 -->
<g id="edge118" class="edge">
<title>Node44&#45;&gt;Node9</title>
<path fill="none" stroke="#191970" d="M598.397,-1045.1275C610.3701,-1051.1866 624.3362,-1059.8837 634,-1071 674.6586,-1117.7699 695.8434,-1190.0601 704.181,-1224.8882"/>
<polygon fill="#191970" stroke="#191970" points="700.806,-1225.8304 706.445,-1234.7999 707.6302,-1224.2715 700.806,-1225.8304"/>
</g>
<!-- Node44&#45;&gt;Node10 -->
<g id="edge120" class="edge">
<title>Node44&#45;&gt;Node10</title>
<path fill="none" stroke="#191970" d="M600.8879,-1041.3151C644.114,-1051.6598 729.8575,-1072.1796 776.488,-1083.339"/>
<polygon fill="#191970" stroke="#191970" points="775.8215,-1086.7783 786.3615,-1085.7019 777.4508,-1079.9705 775.8215,-1086.7783"/>
</g>
<!-- Node44&#45;&gt;Node16 -->
<g id="edge121" class="edge">
<title>Node44&#45;&gt;Node16</title>
<path fill="none" stroke="#191970" d="M600.8855,-1027.957C666.6945,-1012.1591 839.1001,-981.952 927,-1072 940.7395,-1086.0752 981.4027,-1711.7257 989.1993,-1833.5602"/>
<polygon fill="#191970" stroke="#191970" points="985.7191,-1833.9838 989.8492,-1843.7404 992.7049,-1833.5377 985.7191,-1833.9838"/>
</g>
<!-- Node45&#45;&gt;Node1 -->
<g id="edge124" class="edge">
<title>Node45&#45;&gt;Node1</title>
<path fill="none" stroke="#191970" d="M561.6854,-2470.1405C548.5598,-2481.0626 528.2533,-2499.5131 515,-2519 492.1578,-2552.5859 510.8803,-2577.832 479,-2603 411.2124,-2656.515 373.8656,-2636 287.5,-2636 199,-2636 199,-2636 199,-2636 49.9577,-2636 28.5225,-1398.4181 26.2369,-1223.4661"/>
<polygon fill="#191970" stroke="#191970" points="29.7348,-1223.2653 26.1106,-1213.3096 22.7353,-1223.3524 29.7348,-1223.2653"/>
</g>
<!-- Node45&#45;&gt;Node9 -->
<g id="edge123" class="edge">
<title>Node45&#45;&gt;Node9</title>
<path fill="none" stroke="#191970" d="M579.0948,-2449.7961C590.6632,-2423.578 620.9932,-2351.4552 634,-2288 655.2746,-2184.2098 699.6998,-1402.3958 707.3625,-1265.4436"/>
<polygon fill="#191970" stroke="#191970" points="710.8745,-1265.3245 707.9373,-1255.145 703.8854,-1264.9343 710.8745,-1265.3245"/>
</g>
<!-- Node45&#45;&gt;Node10 -->
<g id="edge125" class="edge">
<title>Node45&#45;&gt;Node10</title>
<path fill="none" stroke="#191970" d="M578.8184,-2449.7341C589.7383,-2423.3707 618.672,-2350.9348 634,-2288 748.2242,-1819.0115 798.0054,-1227.2586 806.9848,-1111.2428"/>
<polygon fill="#191970" stroke="#191970" points="810.4756,-1111.495 807.747,-1101.2576 803.4959,-1110.9622 810.4756,-1111.495"/>
</g>
<!-- Node45&#45;&gt;Node16 -->
<g id="edge126" class="edge">
<title>Node45&#45;&gt;Node16</title>
<path fill="none" stroke="#191970" d="M600.7503,-2451.4037C611.5161,-2447.272 623.8147,-2441.7394 634,-2435 652.6102,-2422.686 653.6871,-2415.2271 670,-2400 703.5918,-2368.644 719.6951,-2367.9601 747,-2331 769.6871,-2300.2905 765.5,-2286.9342 783,-2253 818.6769,-2183.8189 820.1306,-2160.7654 870,-2101 891.2188,-2075.5706 910.1836,-2081.5324 927,-2053 967.4445,-1984.3776 918.9875,-1940.9953 963.0111,-1872.5168"/>
<polygon fill="#191970" stroke="#191970" points="966.0609,-1874.259 968.8504,-1864.038 960.2958,-1870.2886 966.0609,-1874.259"/>
</g>
<!-- Node45&#45;&gt;Node17 -->
<g id="edge127" class="edge">
<title>Node45&#45;&gt;Node17</title>
<path fill="none" stroke="#191970" d="M600.8387,-2451.3478C643.8116,-2438.0227 731.9053,-2414 808.5,-2414 808.5,-2414 808.5,-2414 898.5,-2414 968.0399,-2414 985.3241,-2374.3848 1018,-2313 1063.0902,-2228.2937 1070.9473,-1919.176 1072.2515,-1836.4687"/>
<polygon fill="#191970" stroke="#191970" points="1075.7528,-1836.3967 1072.3953,-1826.3479 1068.7535,-1836.2972 1075.7528,-1836.3967"/>
</g>
<!-- Node46&#45;&gt;Node7 -->
<g id="edge129" class="edge">
<title>Node46&#45;&gt;Node7</title>
<path fill="none" stroke="#191970" d="M912.343,-1634.799C917.3922,-1630.6084 922.8702,-1625.4589 927,-1620 983.7322,-1545.0111 992.4172,-1519.4842 1018,-1429 1044.7824,-1334.273 1065.9556,-1022.7467 1071.2308,-939.569"/>
<polygon fill="#191970" stroke="#191970" points="1074.736,-939.5935 1071.8686,-929.3941 1067.7497,-939.1555 1074.736,-939.5935"/>
</g>
<!-- Node46&#45;&gt;Node16 -->
<g id="edge130" class="edge">
<title>Node46&#45;&gt;Node16</title>
<path fill="none" stroke="#191970" d="M903.1862,-1655.2368C908.8719,-1667.6848 918.7243,-1689.3454 927,-1708 946.9775,-1753.032 969.917,-1806.1283 982.0109,-1834.2324"/>
<polygon fill="#191970" stroke="#191970" points="978.9208,-1835.9065 986.0861,-1843.7109 985.3516,-1833.1416 978.9208,-1835.9065"/>
</g>
<!-- Node46&#45;&gt;Node17 -->
<g id="edge131" class="edge">
<title>Node46&#45;&gt;Node17</title>
<path fill="none" stroke="#191970" d="M922.5295,-1643.5944C948.9904,-1643.3646 991.3144,-1647.0686 1018,-1670 1055.648,-1702.3516 1067.3257,-1763.321 1070.9207,-1795.2723"/>
<polygon fill="#191970" stroke="#191970" points="1067.4747,-1796.0037 1071.9127,-1805.6242 1074.4428,-1795.3359 1067.4747,-1796.0037"/>
</g>
<!-- Node47&#45;&gt;Node2 -->
<g id="edge134" class="edge">
<title>Node47&#45;&gt;Node2</title>
<path fill="none" stroke="#191970" d="M315.1024,-642.5477C326.1724,-639.9188 339.104,-637.2958 351,-636 412.7362,-629.2752 683.7384,-627.0107 747,-638 793.661,-646.1056 845.1422,-666.8095 874.4762,-679.8108"/>
<polygon fill="#191970" stroke="#191970" points="873.3295,-683.1331 883.8842,-684.055 876.2081,-676.7523 873.3295,-683.1331"/>
</g>
<!-- Node47&#45;&gt;Node6 -->
<g id="edge150" class="edge">
<title>Node47&#45;&gt;Node6</title>
<path fill="none" stroke="#191970" d="M315.1861,-648.3758C402.9002,-643.7168 673.2002,-633.2346 747,-676 833.7148,-726.2493 799.9562,-793.318 870,-865 891.4528,-886.9545 910.9253,-877.85 927,-904 990.8594,-1007.885 946.6945,-1055.1519 963,-1176 971.8383,-1241.5051 982.5788,-1319.037 987.6223,-1355.3265"/>
<polygon fill="#191970" stroke="#191970" points="984.2058,-1356.1696 989.05,-1365.5921 991.1391,-1355.2053 984.2058,-1356.1696"/>
</g>
<!-- Node47&#45;&gt;Node7 -->
<g id="edge148" class="edge">
<title>Node47&#45;&gt;Node7</title>
<path fill="none" stroke="#191970" d="M291.6871,-639.7459C299.9885,-620.7808 320.4146,-580.3116 351,-560 378.6101,-541.6644 710.794,-481.4867 783,-473 821.4429,-468.4816 831.3027,-469.8891 870,-469 936.1928,-467.4791 972.595,-437.8109 1018,-486 1046.7201,-516.4812 1066.4839,-817.2998 1071.3388,-898.752"/>
<polygon fill="#191970" stroke="#191970" points="1067.8449,-898.9604 1071.9243,-908.7384 1074.8329,-898.5506 1067.8449,-898.9604"/>
</g>
<!-- Node47&#45;&gt;Node8 -->
<g id="edge149" class="edge">
<title>Node47&#45;&gt;Node8</title>
<path fill="none" stroke="#191970" d="M288.7897,-660.1241C294.0325,-700.1049 315.1915,-850.6507 351,-970 394.309,-1114.3483 422.8943,-1144.1277 479,-1284 512.1028,-1366.5257 550.7682,-1465.2356 566.8654,-1506.4364"/>
<polygon fill="#191970" stroke="#191970" points="563.6397,-1507.7982 570.5376,-1515.8399 570.1602,-1505.2518 563.6397,-1507.7982"/>
</g>
<!-- Node47&#45;&gt;Node9 -->
<g id="edge135" class="edge">
<title>Node47&#45;&gt;Node9</title>
<path fill="none" stroke="#191970" d="M294.213,-660.2964C324.8374,-707.4007 451.0019,-902.9348 479,-970 503.751,-1029.2874 477.457,-1057.8643 515,-1110 551.8119,-1161.1203 582.653,-1150.505 634,-1187 652.7633,-1200.3361 673.3605,-1216.495 688.1328,-1228.3663"/>
<polygon fill="#191970" stroke="#191970" points="686.1224,-1231.2417 696.0994,-1234.8066 690.5231,-1225.798 686.1224,-1231.2417"/>
</g>
<!-- Node47&#45;&gt;Node16 -->
<g id="edge146" class="edge">
<title>Node47&#45;&gt;Node16</title>
<path fill="none" stroke="#191970" d="M315.2209,-655.6903C420.6285,-679.0363 797.0873,-778.4085 927,-1030 946.0321,-1066.8579 982.5069,-1709.7165 989.3712,-1833.4796"/>
<polygon fill="#191970" stroke="#191970" points="985.8949,-1834.0069 989.9415,-1843.7985 992.8843,-1833.6205 985.8949,-1834.0069"/>
</g>
<!-- Node47&#45;&gt;Node17 -->
<g id="edge151" class="edge">
<title>Node47&#45;&gt;Node17</title>
<path fill="none" stroke="#191970" d="M309.3164,-639.8632C370.7173,-612.2934 550.8062,-538 708.5,-538 708.5,-538 708.5,-538 898.5,-538 973.7678,-538 987.6411,-589.1264 1018,-658 1065.6207,-766.0345 1071.7315,-1648.8898 1072.4197,-1795.4266"/>
<polygon fill="#191970" stroke="#191970" points="1068.9207,-1795.6971 1072.4644,-1805.6817 1075.9206,-1795.6665 1068.9207,-1795.6971"/>
</g>
<!-- Node47&#45;&gt;Node33 -->
<g id="edge133" class="edge">
<title>Node47&#45;&gt;Node33</title>
<path fill="none" stroke="#191970" d="M289.5375,-639.9262C294.9682,-615.7324 312.1097,-553.9905 351,-522 380.2667,-497.9257 487.5446,-476.2418 542.1308,-466.4732"/>
<polygon fill="#191970" stroke="#191970" points="543.0654,-469.8626 552.3068,-464.6812 541.8513,-462.9686 543.0654,-469.8626"/>
</g>
<!-- Node47&#45;&gt;Node36 -->
<g id="edge147" class="edge">
<title>Node47&#45;&gt;Node36</title>
<path fill="none" stroke="#191970" d="M288.7731,-639.7262C292.8363,-610.7276 307.8619,-526.9809 351,-475 406.4003,-408.2432 504.8625,-367.2439 550.297,-351.0127"/>
<polygon fill="#191970" stroke="#191970" points="551.6093,-354.262 559.9037,-347.6701 549.3089,-347.6508 551.6093,-354.262"/>
</g>
<!-- Node47&#45;&gt;Node48 -->
<g id="edge136" class="edge">
<title>Node47&#45;&gt;Node48</title>
<path fill="none" stroke="#191970" d="M297.9563,-660.3337C309.9444,-671.7382 330.583,-690.0571 351,-702 360.3441,-707.4658 371.1059,-712.1981 381.1061,-716.03"/>
<polygon fill="#191970" stroke="#191970" points="380.1778,-719.4169 390.7717,-719.5556 382.5765,-712.8407 380.1778,-719.4169"/>
</g>
<!-- Node48&#45;&gt;Node6 -->
<g id="edge144" class="edge">
<title>Node48&#45;&gt;Node6</title>
<path fill="none" stroke="#191970" d="M423.4952,-737.2386C439.7373,-756.3446 476.9745,-797.9392 515,-825 681.6373,-943.5871 803.9903,-866.6001 927,-1030 946.8763,-1056.4027 978.5366,-1285.5081 987.8447,-1355.6676"/>
<polygon fill="#191970" stroke="#191970" points="984.4092,-1356.3876 989.1856,-1365.8447 991.3493,-1355.4732 984.4092,-1356.3876"/>
</g>
<!-- Node48&#45;&gt;Node7 -->
<g id="edge142" class="edge">
<title>Node48&#45;&gt;Node7</title>
<path fill="none" stroke="#191970" d="M425.6252,-716.7739C489.4517,-656.5444 825.6361,-356.3551 1018,-524 1046.6051,-548.9293 1066.1878,-820.8774 1071.2212,-898.4528"/>
<polygon fill="#191970" stroke="#191970" points="1067.7519,-899.0461 1071.8806,-908.8033 1074.7377,-898.601 1067.7519,-899.0461"/>
</g>
<!-- Node48&#45;&gt;Node8 -->
<g id="edge143" class="edge">
<title>Node48&#45;&gt;Node8</title>
<path fill="none" stroke="#191970" d="M417.6092,-737.2425C427.0489,-774.5978 459.8712,-907.1291 479,-1018 500.782,-1144.2489 490.3593,-1178.2778 515,-1304 529.8082,-1379.5546 556.0957,-1467.3326 568.1455,-1505.9854"/>
<polygon fill="#191970" stroke="#191970" points="564.9358,-1507.4463 571.273,-1515.9369 571.6138,-1505.3475 564.9358,-1507.4463"/>
</g>
<!-- Node48&#45;&gt;Node9 -->
<g id="edge138" class="edge">
<title>Node48&#45;&gt;Node9</title>
<path fill="none" stroke="#191970" d="M420.1931,-737.3008C431.6067,-760.1391 459.4172,-816.8922 479,-866 497.4292,-912.2149 480.2925,-936.3511 515,-972 554.3356,-1012.4025 594.9252,-975.3452 634,-1016 691.5665,-1075.8943 704.652,-1180.7743 707.6258,-1224.7217"/>
<polygon fill="#191970" stroke="#191970" points="704.1335,-1224.958 708.1952,-1234.7433 711.1222,-1224.5609 704.1335,-1224.958"/>
</g>
<!-- Node48&#45;&gt;Node10 -->
<g id="edge145" class="edge">
<title>Node48&#45;&gt;Node10</title>
<path fill="none" stroke="#191970" d="M419.0309,-737.2185C430.5041,-765.313 465.7192,-845.0118 515,-896 558.6125,-941.1235 581.6263,-937.4288 634,-972 688.8274,-1008.1908 752.3784,-1052.0084 785.5907,-1075.053"/>
<polygon fill="#191970" stroke="#191970" points="783.9114,-1078.1481 794.1213,-1080.9783 787.9048,-1072.3989 783.9114,-1078.1481"/>
</g>
<!-- Node48&#45;&gt;Node17 -->
<g id="edge139" class="edge">
<title>Node48&#45;&gt;Node17</title>
<path fill="none" stroke="#191970" d="M439.0363,-720.8402C541.7651,-695.1805 942.1578,-602.1689 1018,-691 1055.3167,-734.7076 1070.06,-1647.1331 1072.2163,-1795.6497"/>
<polygon fill="#191970" stroke="#191970" points="1068.7169,-1795.7239 1072.3594,-1805.6729 1075.7162,-1795.6239 1068.7169,-1795.7239"/>
</g>
<!-- Node48&#45;&gt;Node29 -->
<g id="edge140" class="edge">
<title>Node48&#45;&gt;Node29</title>
<path fill="none" stroke="#191970" d="M418.0145,-737.0644C434.4251,-791.8332 512.3628,-1051.6541 515,-1055 522.1567,-1064.0799 532.3688,-1071.2867 542.3172,-1076.7427"/>
<polygon fill="#191970" stroke="#191970" points="540.7794,-1079.887 551.2843,-1081.2646 543.9313,-1073.6367 540.7794,-1079.887"/>
</g>
<!-- Node48&#45;&gt;Node33 -->
<g id="edge137" class="edge">
<title>Node48&#45;&gt;Node33</title>
<path fill="none" stroke="#191970" d="M421.0578,-716.8973C444.8426,-677.2312 532.0573,-531.7823 563.2847,-479.7038"/>
<polygon fill="#191970" stroke="#191970" points="566.2952,-481.4891 568.4361,-471.1128 560.2918,-477.8892 566.2952,-481.4891"/>
</g>
<!-- Node48&#45;&gt;Node36 -->
<g id="edge141" class="edge">
<title>Node48&#45;&gt;Node36</title>
<path fill="none" stroke="#191970" d="M417.7423,-716.8641C428.0505,-679.3841 466.3816,-545.4574 515,-442 528.7793,-412.6785 548.8646,-380.9359 561.8083,-361.5067"/>
<polygon fill="#191970" stroke="#191970" points="564.8405,-363.2702 567.5298,-353.0224 559.0368,-359.3564 564.8405,-363.2702"/>
</g>
<!-- Node49&#45;&gt;Node3 -->
<g id="edge159" class="edge">
<title>Node49&#45;&gt;Node3</title>
<path fill="none" stroke="#191970" d="M214.6846,-849.9742C226.6506,-842.7796 243.784,-833.4312 260,-828 522.6873,-740.0193 861.1568,-716.5323 961.3453,-711.3135"/>
<polygon fill="#191970" stroke="#191970" points="961.5203,-714.8092 971.3328,-710.8136 961.1703,-707.818 961.5203,-714.8092"/>
</g>
<!-- Node49&#45;&gt;Node8 -->
<g id="edge158" class="edge">
<title>Node49&#45;&gt;Node8</title>
<path fill="none" stroke="#191970" d="M204.2771,-870.0147C223.5386,-906.5128 292.0126,-1035.7697 351,-1141 430.5006,-1282.8248 530.2664,-1451.5422 563.3062,-1507.1825"/>
<polygon fill="#191970" stroke="#191970" points="560.3996,-1509.1427 568.517,-1515.9514 566.4173,-1505.5667 560.3996,-1509.1427"/>
</g>
<!-- Node49&#45;&gt;Node17 -->
<g id="edge156" class="edge">
<title>Node49&#45;&gt;Node17</title>
<path fill="none" stroke="#191970" d="M224.313,-857.5825C345.2011,-846.2023 860.6479,-799.6074 927,-826 978.7075,-846.5675 994.4522,-861.5798 1018,-912 1056.5902,-994.6286 1069.9965,-1669.9789 1072.1705,-1795.8439"/>
<polygon fill="#191970" stroke="#191970" points="1068.6734,-1796.0511 1072.3417,-1805.9906 1075.6724,-1795.9329 1068.6734,-1796.0511"/>
</g>
<!-- Node49&#45;&gt;Node28 -->
<g id="edge157" class="edge">
<title>Node49&#45;&gt;Node28</title>
<path fill="none" stroke="#191970" d="M200.2852,-870.0926C209.9654,-946.1126 271.4251,-1428.7618 284.8936,-1534.5319"/>
<polygon fill="#191970" stroke="#191970" points="281.4347,-1535.0771 286.1699,-1544.5548 288.3786,-1534.1928 281.4347,-1535.0771"/>
</g>
<!-- Node49&#45;&gt;Node47 -->
<g id="edge160" class="edge">
<title>Node49&#45;&gt;Node47</title>
<path fill="none" stroke="#191970" d="M203.2685,-849.8713C217.1121,-817.022 260.9273,-713.0539 279.2839,-669.4957"/>
<polygon fill="#191970" stroke="#191970" points="282.616,-670.6015 283.2743,-660.0271 276.1654,-667.883 282.616,-670.6015"/>
</g>
<!-- Node50&#45;&gt;Node7 -->
<g id="edge174" class="edge">
<title>Node50&#45;&gt;Node7</title>
<path fill="none" stroke="#191970" d="M438.148,-2138.063C478.2477,-2140.1382 563.1404,-2145.5634 634,-2157 699.402,-2167.5557 873.1266,-2250.5551 927,-2212 1028.9511,-2139.0376 994.2277,-2068.0951 1018,-1945 1057.1952,-1742.0437 1070.0907,-1065.6387 1072.181,-939.388"/>
<polygon fill="#191970" stroke="#191970" points="1075.6834,-939.2589 1072.3456,-929.2036 1068.6843,-939.1457 1075.6834,-939.2589"/>
</g>
<!-- Node50&#45;&gt;Node8 -->
<g id="edge165" class="edge">
<title>Node50&#45;&gt;Node8</title>
<path fill="none" stroke="#191970" d="M423.6005,-2126.912C437.8226,-2109.6023 465.9625,-2072.5639 479,-2036 523.8057,-1910.3418 488.8986,-1868.8291 515,-1738 529.3635,-1666.0053 555.6607,-1582.7234 567.9039,-1545.6041"/>
<polygon fill="#191970" stroke="#191970" points="571.2578,-1546.6099 571.0938,-1536.0164 564.6158,-1544.4001 571.2578,-1546.6099"/>
</g>
<!-- Node50&#45;&gt;Node9 -->
<g id="edge164" class="edge">
<title>Node50&#45;&gt;Node9</title>
<path fill="none" stroke="#191970" d="M438.202,-2132.6821C451.595,-2129.1327 467.9259,-2122.8555 479,-2112 508.8833,-2082.7067 485.2783,-2054.4572 515,-2025 555.5057,-1984.8548 600.4215,-2023.0959 634,-1977 666.8606,-1931.8895 663.4052,-1531.4192 670,-1476 679.3336,-1397.5646 696.6741,-1305.1381 704.493,-1265.13"/>
<polygon fill="#191970" stroke="#191970" points="707.9731,-1265.572 706.4724,-1255.084 701.1052,-1264.2188 707.9731,-1265.572"/>
</g>
<!-- Node50&#45;&gt;Node14 -->
<g id="edge172" class="edge">
<title>Node50&#45;&gt;Node14</title>
<path fill="none" stroke="#191970" d="M438.1454,-2130.4782C451.0383,-2126.0864 466.8839,-2119.3683 479,-2110 499.8158,-2093.905 494.0575,-2078.9298 515,-2063 560.3904,-2028.4739 593.2708,-2054.9184 634,-2015 664.1127,-1985.4868 766.2051,-1704.6747 783,-1666 821.1249,-1578.2072 805.6346,-1539.8391 870,-1469 870.8586,-1468.0551 871.7864,-1467.1527 872.7646,-1466.2926"/>
<polygon fill="#191970" stroke="#191970" points="874.7857,-1469.1501 880.9387,-1460.5251 870.75,-1463.4305 874.7857,-1469.1501"/>
</g>
<!-- Node50&#45;&gt;Node16 -->
<g id="edge169" class="edge">
<title>Node50&#45;&gt;Node16</title>
<path fill="none" stroke="#191970" d="M438.0075,-2128.6497C486.4475,-2110.9919 597.4858,-2070.0872 634,-2053 667.708,-2037.226 886.0427,-1913.4014 963.3892,-1869.4278"/>
<polygon fill="#191970" stroke="#191970" points="965.5518,-1872.2244 972.5143,-1864.2385 962.0914,-1866.1395 965.5518,-1872.2244"/>
</g>
<!-- Node50&#45;&gt;Node17 -->
<g id="edge168" class="edge">
<title>Node50&#45;&gt;Node17</title>
<path fill="none" stroke="#191970" d="M438.1472,-2142.6526C527.7342,-2164.5092 847.8247,-2242.4043 870,-2245 935.3317,-2252.6474 968.6442,-2288.4824 1018,-2245 1049.075,-2217.623 1067.0697,-1918.7411 1071.4469,-1836.7167"/>
<polygon fill="#191970" stroke="#191970" points="1074.9674,-1836.4154 1071.9939,-1826.2464 1067.9769,-1836.0502 1074.9674,-1836.4154"/>
</g>
<!-- Node50&#45;&gt;Node21 -->
<g id="edge163" class="edge">
<title>Node50&#45;&gt;Node21</title>
<path fill="none" stroke="#191970" d="M428.0632,-2126.8658C442.1951,-2115.3401 464.6274,-2095.3361 479,-2074 502.3791,-2039.2937 492.257,-2022.1265 515,-1987 526.1341,-1969.8035 542.2582,-1953.0761 554.9134,-1941.1844"/>
<polygon fill="#191970" stroke="#191970" points="557.6275,-1943.445 562.6415,-1934.1118 552.9016,-1938.2811 557.6275,-1943.445"/>
</g>
<!-- Node50&#45;&gt;Node23 -->
<g id="edge167" class="edge">
<title>Node50&#45;&gt;Node23</title>
<path fill="none" stroke="#191970" d="M422.1886,-2147.0834C437.2787,-2167.6226 474.2467,-2214.75 515,-2243 522.9798,-2248.5315 532.3749,-2253.1828 541.3129,-2256.9159"/>
<polygon fill="#191970" stroke="#191970" points="540.1555,-2260.2214 550.7434,-2260.6045 542.7054,-2253.7023 540.1555,-2260.2214"/>
</g>
<!-- Node50&#45;&gt;Node24 -->
<g id="edge170" class="edge">
<title>Node50&#45;&gt;Node24</title>
<path fill="none" stroke="#191970" d="M416.0382,-2147.0057C420.8601,-2189.9324 443.934,-2361.6916 515,-2480 524.7495,-2496.2306 540.1419,-2511.0642 552.8283,-2521.6669"/>
<polygon fill="#191970" stroke="#191970" points="550.7039,-2524.4499 560.6878,-2527.9956 555.0942,-2518.9977 550.7039,-2524.4499"/>
</g>
<!-- Node50&#45;&gt;Node25 -->
<g id="edge171" class="edge">
<title>Node50&#45;&gt;Node25</title>
<path fill="none" stroke="#191970" d="M417.2767,-2147.1961C431.4827,-2210.7393 507.5952,-2550.0109 515,-2558 521.5501,-2565.067 530.7218,-2569.5172 539.9059,-2572.3157"/>
<polygon fill="#191970" stroke="#191970" points="539.2054,-2575.7478 549.7531,-2574.7498 540.8852,-2568.9524 539.2054,-2575.7478"/>
</g>
<!-- Node50&#45;&gt;Node30 -->
<g id="edge166" class="edge">
<title>Node50&#45;&gt;Node30</title>
<path fill="none" stroke="#191970" d="M422.806,-2126.9617C436.0968,-2109.4303 463.2115,-2071.69 479,-2036 503.4276,-1980.7812 473.5182,-1948.8758 515,-1905 522.0014,-1897.5946 531.8273,-1892.9306 541.48,-1889.9935"/>
<polygon fill="#191970" stroke="#191970" points="542.504,-1893.3451 551.3507,-1887.5153 540.7994,-1886.5558 542.504,-1893.3451"/>
</g>
<!-- Node50&#45;&gt;Node31 -->
<g id="edge173" class="edge">
<title>Node50&#45;&gt;Node31</title>
<path fill="none" stroke="#191970" d="M423.2509,-2126.7786C436.9579,-2109.2723 464.3586,-2071.9517 479,-2036 508.1296,-1964.473 487.3415,-1938.1086 515,-1866 525.8876,-1837.6149 543.9293,-1807.8147 557.2967,-1787.6137"/>
<polygon fill="#191970" stroke="#191970" points="560.2044,-1789.5618 562.8857,-1779.3118 554.3977,-1785.6525 560.2044,-1789.5618"/>
</g>
</g>
</svg>
