<?xml version="1.0" encoding="UTF-8" standalone="no"?>
<!DOCTYPE svg PUBLIC "-//W3C//DTD SVG 1.1//EN"
 "http://www.w3.org/Graphics/SVG/1.1/DTD/svg11.dtd">
<!-- Generated by graphviz version 2.40.1 (20161225.0304)
 -->
<!-- Title: genfit::AbsFitter Pages: 1 -->
<svg width="441pt" height="143pt"
 viewBox="0.00 0.00 441.00 143.00" xmlns="http://www.w3.org/2000/svg" xmlns:xlink="http://www.w3.org/1999/xlink">
<g id="graph0" class="graph" transform="scale(1 1) rotate(0) translate(4 139)">
<title>genfit::AbsFitter</title>
<!-- Node1 -->
<g id="node1" class="node">
<title>Node1</title>
<polygon fill="#bfbfbf" stroke="#000000" points="234.5,-114.5 234.5,-134.5 332.5,-134.5 332.5,-114.5 234.5,-114.5"/>
<text text-anchor="middle" x="283.5" y="-121.5" font-family="FreeSans" font-size="10.00" fill="#000000">genfit::AbsFitter</text>
</g>
<!-- Node2 -->
<g id="node2" class="node">
<title>Node2</title>
<g id="a_node2"><a xlink:href="../../d2/df7/classgenfit_1_1AbsKalmanFitter.html" target="_top" xlink:title="Abstract base class for Kalman fitter and derived fitting algorithms.">
<polygon fill="none" stroke="#000000" points="81.5,-57.5 81.5,-77.5 217.5,-77.5 217.5,-57.5 81.5,-57.5"/>
<text text-anchor="middle" x="149.5" y="-64.5" font-family="FreeSans" font-size="10.00" fill="#000000">genfit::AbsKalmanFitter</text>
</a>
</g>
</g>
<!-- Node1&#45;&gt;Node2 -->
<g id="edge1" class="edge">
<title>Node1&#45;&gt;Node2</title>
<path fill="none" stroke="#191970" d="M250.4672,-110.4487C226.5671,-100.2823 194.8268,-86.7808 173.3624,-77.6504"/>
<polygon fill="#191970" stroke="#191970" points="249.2798,-113.7471 259.8519,-114.4408 252.0199,-107.3057 249.2798,-113.7471"/>
</g>
<!-- Node6 -->
<g id="node6" class="node">
<title>Node6</title>
<g id="a_node6"><a xlink:href="../../d1/dc8/classgenfit_1_1GblFitter.html" target="_top" xlink:title="Generic GBL implementation.">
<polygon fill="none" stroke="#000000" points="235.5,-57.5 235.5,-77.5 331.5,-77.5 331.5,-57.5 235.5,-57.5"/>
<text text-anchor="middle" x="283.5" y="-64.5" font-family="FreeSans" font-size="10.00" fill="#000000">genfit::GblFitter</text>
</a>
</g>
</g>
<!-- Node1&#45;&gt;Node6 -->
<g id="edge5" class="edge">
<title>Node1&#45;&gt;Node6</title>
<path fill="none" stroke="#191970" d="M283.5,-104.1771C283.5,-95.1625 283.5,-84.9556 283.5,-77.6022"/>
<polygon fill="#191970" stroke="#191970" points="280.0001,-104.3095 283.5,-114.3095 287.0001,-104.3096 280.0001,-104.3095"/>
</g>
<!-- Node7 -->
<g id="node7" class="node">
<title>Node7</title>
<g id="a_node7"><a xlink:href="../../d3/d7b/classgenfit_1_1GFGbl.html" target="_top" xlink:title="Generic GBL implementation.">
<polygon fill="none" stroke="#000000" points="350,-57.5 350,-77.5 433,-77.5 433,-57.5 350,-57.5"/>
<text text-anchor="middle" x="391.5" y="-64.5" font-family="FreeSans" font-size="10.00" fill="#000000">genfit::GFGbl</text>
</a>
</g>
</g>
<!-- Node1&#45;&gt;Node7 -->
<g id="edge6" class="edge">
<title>Node1&#45;&gt;Node7</title>
<path fill="none" stroke="#191970" d="M311.4169,-109.7661C330.5191,-99.6844 355.3524,-86.5779 372.2676,-77.6504"/>
<polygon fill="#191970" stroke="#191970" points="309.7698,-106.6778 302.5596,-114.4408 313.0372,-112.8685 309.7698,-106.6778"/>
</g>
<!-- Node3 -->
<g id="node3" class="node">
<title>Node3</title>
<g id="a_node3"><a xlink:href="../../d6/d60/classgenfit_1_1DAF.html" target="_top" xlink:title="Determinstic Annealing Filter (DAF) implementation.">
<polygon fill="none" stroke="#000000" points="0,-.5 0,-20.5 73,-20.5 73,-.5 0,-.5"/>
<text text-anchor="middle" x="36.5" y="-7.5" font-family="FreeSans" font-size="10.00" fill="#000000">genfit::DAF</text>
</a>
</g>
</g>
<!-- Node2&#45;&gt;Node3 -->
<g id="edge2" class="edge">
<title>Node2&#45;&gt;Node3</title>
<path fill="none" stroke="#191970" d="M120.5629,-52.9034C100.5405,-42.8036 74.4015,-29.6185 56.6228,-20.6504"/>
<polygon fill="#191970" stroke="#191970" points="119.0532,-56.0619 129.558,-57.4408 122.2059,-49.812 119.0532,-56.0619"/>
</g>
<!-- Node4 -->
<g id="node4" class="node">
<title>Node4</title>
<g id="a_node4"><a xlink:href="../../d4/db7/classgenfit_1_1KalmanFitter.html" target="_top" xlink:title="Simple Kalman filter implementation.">
<polygon fill="none" stroke="#000000" points="91,-.5 91,-20.5 208,-20.5 208,-.5 91,-.5"/>
<text text-anchor="middle" x="149.5" y="-7.5" font-family="FreeSans" font-size="10.00" fill="#000000">genfit::KalmanFitter</text>
</a>
</g>
</g>
<!-- Node2&#45;&gt;Node4 -->
<g id="edge3" class="edge">
<title>Node2&#45;&gt;Node4</title>
<path fill="none" stroke="#191970" d="M149.5,-47.1771C149.5,-38.1625 149.5,-27.9556 149.5,-20.6022"/>
<polygon fill="#191970" stroke="#191970" points="146.0001,-47.3095 149.5,-57.3095 153.0001,-47.3096 146.0001,-47.3095"/>
</g>
<!-- Node5 -->
<g id="node5" class="node">
<title>Node5</title>
<g id="a_node5"><a xlink:href="../../d8/d26/classgenfit_1_1KalmanFitterRefTrack.html" target="_top" xlink:title="Kalman filter implementation with linearization around a reference track.">
<polygon fill="none" stroke="#000000" points="226.5,-.5 226.5,-20.5 386.5,-20.5 386.5,-.5 226.5,-.5"/>
<text text-anchor="middle" x="306.5" y="-7.5" font-family="FreeSans" font-size="10.00" fill="#000000">genfit::KalmanFitterRefTrack</text>
</a>
</g>
</g>
<!-- Node2&#45;&gt;Node5 -->
<g id="edge4" class="edge">
<title>Node2&#45;&gt;Node5</title>
<path fill="none" stroke="#191970" d="M186.7488,-53.9766C215.0038,-43.7184 253.2183,-29.8443 278.8063,-20.5544"/>
<polygon fill="#191970" stroke="#191970" points="185.4123,-50.7382 177.207,-57.4408 187.8012,-57.318 185.4123,-50.7382"/>
</g>
</g>
</svg>
