<?xml version="1.0" encoding="UTF-8" standalone="no"?>
<!DOCTYPE svg PUBLIC "-//W3C//DTD SVG 1.1//EN"
 "http://www.w3.org/Graphics/SVG/1.1/DTD/svg11.dtd">
<!-- Generated by graphviz version 2.40.1 (20161225.0304)
 -->
<!-- Title: genfit::StateOnPlane::operator= Pages: 1 -->
<svg width="545pt" height="41pt"
 viewBox="0.00 0.00 545.00 41.00" xmlns="http://www.w3.org/2000/svg" xmlns:xlink="http://www.w3.org/1999/xlink">
<g id="graph0" class="graph" transform="scale(1 1) rotate(0) translate(4 37)">
<title>genfit::StateOnPlane::operator=</title>
<!-- Node1 -->
<g id="node1" class="node">
<title>Node1</title>
<polygon fill="#bfbfbf" stroke="#000000" points="0,-.5 0,-32.5 121,-32.5 121,-.5 0,-.5"/>
<text text-anchor="start" x="8" y="-19.5" font-family="FreeSans" font-size="10.00" fill="#000000">genfit::StateOnPlane</text>
<text text-anchor="middle" x="60.5" y="-7.5" font-family="FreeSans" font-size="10.00" fill="#000000">::operator=</text>
</g>
<!-- Node2 -->
<g id="node2" class="node">
<title>Node2</title>
<g id="a_node2"><a xlink:href="../../de/dd5/classgenfit_1_1StateOnPlane.html#acab76983d79952d6393ffc39db29b115" target="_top" xlink:title="genfit::StateOnPlane\l::swap">
<polygon fill="none" stroke="#000000" points="157,-.5 157,-32.5 278,-32.5 278,-.5 157,-.5"/>
<text text-anchor="start" x="165" y="-19.5" font-family="FreeSans" font-size="10.00" fill="#000000">genfit::StateOnPlane</text>
<text text-anchor="middle" x="217.5" y="-7.5" font-family="FreeSans" font-size="10.00" fill="#000000">::swap</text>
</a>
</g>
</g>
<!-- Node1&#45;&gt;Node2 -->
<g id="edge1" class="edge">
<title>Node1&#45;&gt;Node2</title>
<path fill="none" stroke="#191970" d="M121.2003,-16.5C129.635,-16.5 138.3591,-16.5 146.9547,-16.5"/>
<polygon fill="#191970" stroke="#191970" points="146.9612,-20.0001 156.9611,-16.5 146.9611,-13.0001 146.9612,-20.0001"/>
</g>
<!-- Node3 -->
<g id="node3" class="node">
<title>Node3</title>
<g id="a_node3"><a xlink:href="../../d4/da9/namespaceboost.html#a630945877437d477612e4419562161cc" target="_top" xlink:title="boost::swap">
<polygon fill="none" stroke="#000000" points="314,-6.5 314,-26.5 391,-26.5 391,-6.5 314,-6.5"/>
<text text-anchor="middle" x="352.5" y="-13.5" font-family="FreeSans" font-size="10.00" fill="#000000">boost::swap</text>
</a>
</g>
</g>
<!-- Node2&#45;&gt;Node3 -->
<g id="edge2" class="edge">
<title>Node2&#45;&gt;Node3</title>
<path fill="none" stroke="#191970" d="M278.2863,-16.5C286.7501,-16.5 295.3562,-16.5 303.565,-16.5"/>
<polygon fill="#191970" stroke="#191970" points="303.7099,-20.0001 313.7099,-16.5 303.7098,-13.0001 303.7099,-20.0001"/>
</g>
<!-- Node4 -->
<g id="node4" class="node">
<title>Node4</title>
<g id="a_node4"><a xlink:href="../../d1/d96/classboost_1_1array.html#a342ef866ed696b18ce803b5c9aba4b2e" target="_top" xlink:title="boost::array::swap">
<polygon fill="none" stroke="#000000" points="427,-6.5 427,-26.5 537,-26.5 537,-6.5 427,-6.5"/>
<text text-anchor="middle" x="482" y="-13.5" font-family="FreeSans" font-size="10.00" fill="#000000">boost::array::swap</text>
</a>
</g>
</g>
<!-- Node3&#45;&gt;Node4 -->
<g id="edge3" class="edge">
<title>Node3&#45;&gt;Node4</title>
<path fill="none" stroke="#191970" d="M391.0036,-10.2692C399.0418,-9.9335 407.7295,-9.7606 416.4369,-9.7505"/>
<polygon fill="#191970" stroke="#191970" points="416.6084,-13.2515 426.6298,-9.8134 416.6517,-6.2516 416.6084,-13.2515"/>
</g>
<!-- Node4&#45;&gt;Node3 -->
<g id="edge4" class="edge">
<title>Node4&#45;&gt;Node3</title>
<path fill="none" stroke="#191970" d="M426.6298,-23.1866C418.1911,-23.3014 409.5353,-23.2603 401.252,-23.0634"/>
<polygon fill="#191970" stroke="#191970" points="401.112,-19.5571 391.0036,-22.7308 400.8848,-26.5535 401.112,-19.5571"/>
</g>
</g>
</svg>
