<?xml version="1.0" encoding="UTF-8" standalone="no"?>
<!DOCTYPE svg PUBLIC "-//W3C//DTD SVG 1.1//EN"
 "http://www.w3.org/Graphics/SVG/1.1/DTD/svg11.dtd">
<!-- Generated by graphviz version 2.40.1 (20161225.0304)
 -->
<!-- Title: genfit::StateOnPlane::getPosDir Pages: 1 -->
<svg width="435pt" height="41pt"
 viewBox="0.00 0.00 435.00 41.00" xmlns="http://www.w3.org/2000/svg" xmlns:xlink="http://www.w3.org/1999/xlink">
<g id="graph0" class="graph" transform="scale(1 1) rotate(0) translate(4 37)">
<title>genfit::StateOnPlane::getPosDir</title>
<!-- Node1 -->
<g id="node1" class="node">
<title>Node1</title>
<polygon fill="#bfbfbf" stroke="#000000" points="0,-.5 0,-32.5 121,-32.5 121,-.5 0,-.5"/>
<text text-anchor="start" x="8" y="-19.5" font-family="FreeSans" font-size="10.00" fill="#000000">genfit::StateOnPlane</text>
<text text-anchor="middle" x="60.5" y="-7.5" font-family="FreeSans" font-size="10.00" fill="#000000">::getPosDir</text>
</g>
<!-- Node2 -->
<g id="node2" class="node">
<title>Node2</title>
<g id="a_node2"><a xlink:href="../../d1/d25/classgenfit_1_1AbsTrackRep.html#af1fc04e2eb42993765a89a79d6459f0d" target="_top" xlink:title="Get cartesian position and direction vector of a state.">
<polygon fill="none" stroke="#000000" points="157,-.5 157,-32.5 274,-32.5 274,-.5 157,-.5"/>
<text text-anchor="start" x="165" y="-19.5" font-family="FreeSans" font-size="10.00" fill="#000000">genfit::AbsTrackRep</text>
<text text-anchor="middle" x="215.5" y="-7.5" font-family="FreeSans" font-size="10.00" fill="#000000">::getPosDir</text>
</a>
</g>
</g>
<!-- Node1&#45;&gt;Node2 -->
<g id="edge1" class="edge">
<title>Node1&#45;&gt;Node2</title>
<path fill="none" stroke="#191970" d="M121.3152,-16.5C129.6362,-16.5 138.2265,-16.5 146.6774,-16.5"/>
<polygon fill="#191970" stroke="#191970" points="146.8891,-20.0001 156.8891,-16.5 146.889,-13.0001 146.8891,-20.0001"/>
</g>
<!-- Node3 -->
<g id="node3" class="node">
<title>Node3</title>
<g id="a_node3"><a xlink:href="../../d1/d25/classgenfit_1_1AbsTrackRep.html#a0c07d65d1102e91c2856e02590d1d99b" target="_top" xlink:title="Get cartesian position and momentum vector of a state.">
<polygon fill="none" stroke="#000000" points="310,-.5 310,-32.5 427,-32.5 427,-.5 310,-.5"/>
<text text-anchor="start" x="318" y="-19.5" font-family="FreeSans" font-size="10.00" fill="#000000">genfit::AbsTrackRep</text>
<text text-anchor="middle" x="368.5" y="-7.5" font-family="FreeSans" font-size="10.00" fill="#000000">::getPosMom</text>
</a>
</g>
</g>
<!-- Node2&#45;&gt;Node3 -->
<g id="edge2" class="edge">
<title>Node2&#45;&gt;Node3</title>
<path fill="none" stroke="#191970" d="M274.2162,-16.5C282.5439,-16.5 291.1693,-16.5 299.6671,-16.5"/>
<polygon fill="#191970" stroke="#191970" points="299.9409,-20.0001 309.9409,-16.5 299.9409,-13.0001 299.9409,-20.0001"/>
</g>
</g>
</svg>
