<?xml version="1.0" encoding="UTF-8" standalone="no"?>
<!DOCTYPE svg PUBLIC "-//W3C//DTD SVG 1.1//EN"
 "http://www.w3.org/Graphics/SVG/1.1/DTD/svg11.dtd">
<!-- Generated by graphviz version 2.40.1 (20161225.0304)
 -->
<!-- Title: gbl::BorderedBandMatrix::printMatrix Pages: 1 -->
<svg width="318pt" height="68pt"
 viewBox="0.00 0.00 318.00 68.00" xmlns="http://www.w3.org/2000/svg" xmlns:xlink="http://www.w3.org/1999/xlink">
<g id="graph0" class="graph" transform="scale(1 1) rotate(0) translate(4 64)">
<title>gbl::BorderedBandMatrix::printMatrix</title>
<!-- Node1 -->
<g id="node1" class="node">
<title>Node1</title>
<polygon fill="#bfbfbf" stroke="#000000" points="0,-13.5 0,-45.5 143,-45.5 143,-13.5 0,-13.5"/>
<text text-anchor="start" x="8" y="-32.5" font-family="FreeSans" font-size="10.00" fill="#000000">gbl::BorderedBandMatrix</text>
<text text-anchor="middle" x="71.5" y="-20.5" font-family="FreeSans" font-size="10.00" fill="#000000">::printMatrix</text>
</g>
<!-- Node2 -->
<g id="node2" class="node">
<title>Node2</title>
<g id="a_node2"><a xlink:href="../../db/d4d/classgbl_1_1VMatrix.html#a5e225dda9ce77a7377de51c2744f7abe" target="_top" xlink:title="Print matrix.">
<polygon fill="none" stroke="#000000" points="190.5,-39.5 190.5,-59.5 298.5,-59.5 298.5,-39.5 190.5,-39.5"/>
<text text-anchor="middle" x="244.5" y="-46.5" font-family="FreeSans" font-size="10.00" fill="#000000">gbl::VMatrix::print</text>
</a>
</g>
</g>
<!-- Node1&#45;&gt;Node2 -->
<g id="edge1" class="edge">
<title>Node1&#45;&gt;Node2</title>
<path fill="none" stroke="#191970" d="M143.1145,-37.7791C155.4602,-39.2064 168.223,-40.6819 180.3558,-42.0845"/>
<polygon fill="#191970" stroke="#191970" points="180.0404,-45.5712 190.3762,-43.2429 180.8443,-38.6176 180.0404,-45.5712"/>
</g>
<!-- Node3 -->
<g id="node3" class="node">
<title>Node3</title>
<g id="a_node3"><a xlink:href="../../d8/d90/classgbl_1_1VSymMatrix.html#aacf147cb3fa14832ee4b551d576f753b" target="_top" xlink:title="Print matrix.">
<polygon fill="none" stroke="#000000" points="179,-.5 179,-20.5 310,-20.5 310,-.5 179,-.5"/>
<text text-anchor="middle" x="244.5" y="-7.5" font-family="FreeSans" font-size="10.00" fill="#000000">gbl::VSymMatrix::print</text>
</a>
</g>
</g>
<!-- Node1&#45;&gt;Node3 -->
<g id="edge2" class="edge">
<title>Node1&#45;&gt;Node3</title>
<path fill="none" stroke="#191970" d="M143.1145,-21.6348C151.5074,-20.7131 160.0931,-19.7701 168.5425,-18.8422"/>
<polygon fill="#191970" stroke="#191970" points="169.2012,-22.2909 178.7593,-17.7201 168.4369,-15.3328 169.2012,-22.2909"/>
</g>
</g>
</svg>
