<?xml version="1.0" encoding="UTF-8" standalone="no"?>
<!DOCTYPE svg PUBLIC "-//W3C//DTD SVG 1.1//EN"
 "http://www.w3.org/Graphics/SVG/1.1/DTD/svg11.dtd">
<!-- Generated by graphviz version 2.40.1 (20161225.0304)
 -->
<!-- Title: genfit::PlanarMeasurement::constructMeasurementsOnPlane Pages: 1 -->
<svg width="385pt" height="143pt"
 viewBox="0.00 0.00 385.00 143.00" xmlns="http://www.w3.org/2000/svg" xmlns:xlink="http://www.w3.org/1999/xlink">
<g id="graph0" class="graph" transform="scale(1 1) rotate(0) translate(4 139)">
<title>genfit::PlanarMeasurement::constructMeasurementsOnPlane</title>
<!-- Node1 -->
<g id="node1" class="node">
<title>Node1</title>
<polygon fill="#bfbfbf" stroke="#000000" points="0,-51.5 0,-83.5 187,-83.5 187,-51.5 0,-51.5"/>
<text text-anchor="start" x="8" y="-70.5" font-family="FreeSans" font-size="10.00" fill="#000000">genfit::PlanarMeasurement</text>
<text text-anchor="middle" x="93.5" y="-58.5" font-family="FreeSans" font-size="10.00" fill="#000000">::constructMeasurementsOnPlane</text>
</g>
<!-- Node2 -->
<g id="node2" class="node">
<title>Node2</title>
<g id="a_node2"><a xlink:href="../../dd/d7d/classgenfit_1_1PlanarMeasurement.html#a6f8a0eb1b018564ee20b7b9349a74f57" target="_top" xlink:title="genfit::PlanarMeasurement\l::constructHMatrix">
<polygon fill="none" stroke="#000000" points="223,-102.5 223,-134.5 377,-134.5 377,-102.5 223,-102.5"/>
<text text-anchor="start" x="231" y="-121.5" font-family="FreeSans" font-size="10.00" fill="#000000">genfit::PlanarMeasurement</text>
<text text-anchor="middle" x="300" y="-109.5" font-family="FreeSans" font-size="10.00" fill="#000000">::constructHMatrix</text>
</a>
</g>
</g>
<!-- Node1&#45;&gt;Node2 -->
<g id="edge1" class="edge">
<title>Node1&#45;&gt;Node2</title>
<path fill="none" stroke="#191970" d="M158.5545,-83.5667C179.6735,-88.7826 203.2745,-94.6114 225.0545,-99.9904"/>
<polygon fill="#191970" stroke="#191970" points="224.3704,-103.4266 234.9179,-102.4264 226.0488,-96.6308 224.3704,-103.4266"/>
</g>
<!-- Node3 -->
<g id="node3" class="node">
<title>Node3</title>
<g id="a_node3"><a xlink:href="../../de/dd5/classgenfit_1_1StateOnPlane.html#a30c7e8d87fa50205baa927d4ceccb594" target="_top" xlink:title="genfit::StateOnPlane\l::getPlane">
<polygon fill="none" stroke="#000000" points="239.5,-51.5 239.5,-83.5 360.5,-83.5 360.5,-51.5 239.5,-51.5"/>
<text text-anchor="start" x="247.5" y="-70.5" font-family="FreeSans" font-size="10.00" fill="#000000">genfit::StateOnPlane</text>
<text text-anchor="middle" x="300" y="-58.5" font-family="FreeSans" font-size="10.00" fill="#000000">::getPlane</text>
</a>
</g>
</g>
<!-- Node1&#45;&gt;Node3 -->
<g id="edge2" class="edge">
<title>Node1&#45;&gt;Node3</title>
<path fill="none" stroke="#191970" d="M187.0829,-67.5C201.1991,-67.5 215.5584,-67.5 229.093,-67.5"/>
<polygon fill="#191970" stroke="#191970" points="229.2645,-71.0001 239.2645,-67.5 229.2645,-64.0001 229.2645,-71.0001"/>
</g>
<!-- Node4 -->
<g id="node4" class="node">
<title>Node4</title>
<g id="a_node4"><a xlink:href="../../de/dd5/classgenfit_1_1StateOnPlane.html#a14f25e4575846dcb14bd91ddb2a534d2" target="_top" xlink:title="genfit::StateOnPlane\l::getRep">
<polygon fill="none" stroke="#000000" points="239.5,-.5 239.5,-32.5 360.5,-32.5 360.5,-.5 239.5,-.5"/>
<text text-anchor="start" x="247.5" y="-19.5" font-family="FreeSans" font-size="10.00" fill="#000000">genfit::StateOnPlane</text>
<text text-anchor="middle" x="300" y="-7.5" font-family="FreeSans" font-size="10.00" fill="#000000">::getRep</text>
</a>
</g>
</g>
<!-- Node1&#45;&gt;Node4 -->
<g id="edge3" class="edge">
<title>Node1&#45;&gt;Node4</title>
<path fill="none" stroke="#191970" d="M158.5545,-51.4333C181.2086,-45.8383 206.7184,-39.5381 229.7731,-33.8442"/>
<polygon fill="#191970" stroke="#191970" points="230.6188,-37.2405 239.4879,-31.4449 228.9404,-30.4447 230.6188,-37.2405"/>
</g>
</g>
</svg>
