<?xml version="1.0" encoding="UTF-8" standalone="no"?>
<!DOCTYPE svg PUBLIC "-//W3C//DTD SVG 1.1//EN"
 "http://www.w3.org/Graphics/SVG/1.1/DTD/svg11.dtd">
<!-- Generated by graphviz version 2.40.1 (20161225.0304)
 -->
<!-- Title: genfit::RKMatrix::end Pages: 1 -->
<svg width="1135pt" height="521pt"
 viewBox="0.00 0.00 1135.00 521.00" xmlns="http://www.w3.org/2000/svg" xmlns:xlink="http://www.w3.org/1999/xlink">
<g id="graph0" class="graph" transform="scale(1 1) rotate(0) translate(4 517)">
<title>genfit::RKMatrix::end</title>
<!-- Node1 -->
<g id="node1" class="node">
<title>Node1</title>
<polygon fill="#bfbfbf" stroke="#000000" points="0,-249.5 0,-269.5 123,-269.5 123,-249.5 0,-249.5"/>
<text text-anchor="middle" x="61.5" y="-256.5" font-family="FreeSans" font-size="10.00" fill="#000000">genfit::RKMatrix::end</text>
</g>
<!-- Node2 -->
<g id="node2" class="node">
<title>Node2</title>
<g id="a_node2"><a xlink:href="../../d2/d12/classgenfit_1_1RKTrackRep.html#a6e4afdfee90ca3e9f7868fc700c7d399" target="_top" xlink:title="genfit::RKTrackRep\l::calcJ_Mp_7x5">
<polygon fill="none" stroke="#000000" points="170,-384.5 170,-416.5 281,-416.5 281,-384.5 170,-384.5"/>
<text text-anchor="start" x="178" y="-403.5" font-family="FreeSans" font-size="10.00" fill="#000000">genfit::RKTrackRep</text>
<text text-anchor="middle" x="225.5" y="-391.5" font-family="FreeSans" font-size="10.00" fill="#000000">::calcJ_Mp_7x5</text>
</a>
</g>
</g>
<!-- Node1&#45;&gt;Node2 -->
<g id="edge1" class="edge">
<title>Node1&#45;&gt;Node2</title>
<path fill="none" stroke="#191970" d="M72.9133,-278.3726C89.126,-303.7258 121.1029,-348.6894 159,-375.5 163.7324,-378.848 168.9687,-381.8093 174.3642,-384.4131"/>
<polygon fill="#191970" stroke="#191970" points="75.7587,-276.3213 67.492,-269.6946 69.822,-280.0301 75.7587,-276.3213"/>
</g>
<!-- Node14 -->
<g id="node14" class="node">
<title>Node14</title>
<g id="a_node14"><a xlink:href="../../d2/d12/classgenfit_1_1RKTrackRep.html#afc060d4c0854c0f48bddf49a7ce5423c" target="_top" xlink:title="genfit::RKTrackRep\l::calcJ_pM_5x7">
<polygon fill="none" stroke="#000000" points="170,-435.5 170,-467.5 281,-467.5 281,-435.5 170,-435.5"/>
<text text-anchor="start" x="178" y="-454.5" font-family="FreeSans" font-size="10.00" fill="#000000">genfit::RKTrackRep</text>
<text text-anchor="middle" x="225.5" y="-442.5" font-family="FreeSans" font-size="10.00" fill="#000000">::calcJ_pM_5x7</text>
</a>
</g>
</g>
<!-- Node1&#45;&gt;Node14 -->
<g id="edge19" class="edge">
<title>Node1&#45;&gt;Node14</title>
<path fill="none" stroke="#191970" d="M67.9954,-279.1969C80.3456,-313.7462 110.4045,-385.4878 159,-426.5 163.0531,-429.9206 167.6208,-432.8975 172.4159,-435.4831"/>
<polygon fill="#191970" stroke="#191970" points="71.3033,-278.0533 64.7302,-269.744 64.6869,-280.3387 71.3033,-278.0533"/>
</g>
<!-- Node15 -->
<g id="node15" class="node">
<title>Node15</title>
<g id="a_node15"><a xlink:href="../../da/db5/structgenfit_1_1ExtrapStep.html#ace3dd7154d264707a7ab92f5dacb9061" target="_top" xlink:title="genfit::ExtrapStep\l::ExtrapStep">
<polygon fill="none" stroke="#000000" points="171,-243.5 171,-275.5 280,-275.5 280,-243.5 171,-243.5"/>
<text text-anchor="start" x="179" y="-262.5" font-family="FreeSans" font-size="10.00" fill="#000000">genfit::ExtrapStep</text>
<text text-anchor="middle" x="225.5" y="-250.5" font-family="FreeSans" font-size="10.00" fill="#000000">::ExtrapStep</text>
</a>
</g>
</g>
<!-- Node1&#45;&gt;Node15 -->
<g id="edge21" class="edge">
<title>Node1&#45;&gt;Node15</title>
<path fill="none" stroke="#191970" d="M133.104,-259.5C145.7797,-259.5 158.7923,-259.5 170.9037,-259.5"/>
<polygon fill="#191970" stroke="#191970" points="133.0342,-256.0001 123.0341,-259.5 133.0341,-263.0001 133.0342,-256.0001"/>
</g>
<!-- Node16 -->
<g id="node16" class="node">
<title>Node16</title>
<g id="a_node16"><a xlink:href="../../d2/d12/classgenfit_1_1RKTrackRep.html#a36901144bb6457a4291604cd2fa135a0" target="_top" xlink:title="genfit::RKTrackRep\l::initArrays">
<polygon fill="none" stroke="#000000" points="359.5,-283.5 359.5,-315.5 470.5,-315.5 470.5,-283.5 359.5,-283.5"/>
<text text-anchor="start" x="367.5" y="-302.5" font-family="FreeSans" font-size="10.00" fill="#000000">genfit::RKTrackRep</text>
<text text-anchor="middle" x="415" y="-290.5" font-family="FreeSans" font-size="10.00" fill="#000000">::initArrays</text>
</a>
</g>
</g>
<!-- Node1&#45;&gt;Node16 -->
<g id="edge22" class="edge">
<title>Node1&#45;&gt;Node16</title>
<path fill="none" stroke="#191970" d="M102.5265,-272.453C119.7896,-277.3753 140.1982,-282.5117 159,-285.5 227.4663,-296.3818 307.3811,-299.2047 359.4711,-299.7469"/>
<polygon fill="#191970" stroke="#191970" points="103.3421,-269.0449 92.7616,-269.5974 101.3773,-275.7636 103.3421,-269.0449"/>
</g>
<!-- Node20 -->
<g id="node20" class="node">
<title>Node20</title>
<g id="a_node20"><a xlink:href="../../d1/d34/classgenfit_1_1MaterialEffects.html#a9263a0c6b7331e4e20cf4cbe97609fcc" target="_top" xlink:title="calculation of multiple scattering">
<polygon fill="none" stroke="#000000" points="161.5,-333.5 161.5,-365.5 289.5,-365.5 289.5,-333.5 161.5,-333.5"/>
<text text-anchor="start" x="169.5" y="-352.5" font-family="FreeSans" font-size="10.00" fill="#000000">genfit::MaterialEffects</text>
<text text-anchor="middle" x="225.5" y="-340.5" font-family="FreeSans" font-size="10.00" fill="#000000">::noiseCoulomb</text>
</a>
</g>
</g>
<!-- Node1&#45;&gt;Node20 -->
<g id="edge33" class="edge">
<title>Node1&#45;&gt;Node20</title>
<path fill="none" stroke="#191970" d="M85.6164,-275.0939C105.0947,-287.4433 133.3833,-304.8298 159,-318.5 168.6646,-323.6575 179.3406,-328.8482 189.2578,-333.4679"/>
<polygon fill="#191970" stroke="#191970" points="87.3832,-272.0695 77.0706,-269.6404 83.6176,-277.9703 87.3832,-272.0695"/>
</g>
<!-- Node22 -->
<g id="node22" class="node">
<title>Node22</title>
<g id="a_node22"><a xlink:href="../../da/deb/structgenfit_1_1RKMatrix.html#af721ec8dd370b8fc01e71a1a214f91a2" target="_top" xlink:title="genfit::RKMatrix\&lt; 7,\l 7 \&gt;::operator=">
<polygon fill="none" stroke="#000000" points="166.5,-192.5 166.5,-224.5 284.5,-224.5 284.5,-192.5 166.5,-192.5"/>
<text text-anchor="start" x="174.5" y="-211.5" font-family="FreeSans" font-size="10.00" fill="#000000">genfit::RKMatrix&lt; 7,</text>
<text text-anchor="middle" x="225.5" y="-199.5" font-family="FreeSans" font-size="10.00" fill="#000000"> 7 &gt;::operator=</text>
</a>
</g>
</g>
<!-- Node1&#45;&gt;Node22 -->
<g id="edge36" class="edge">
<title>Node1&#45;&gt;Node22</title>
<path fill="none" stroke="#191970" d="M103.6688,-246.3865C125.0531,-239.7365 151.2109,-231.6021 173.7993,-224.5777"/>
<polygon fill="#191970" stroke="#191970" points="102.4107,-243.1124 93.9011,-249.424 104.4894,-249.7966 102.4107,-243.1124"/>
</g>
<!-- Node23 -->
<g id="node23" class="node">
<title>Node23</title>
<g id="a_node23"><a xlink:href="../../d6/d72/structgenfit_1_1RKStep.html#a99d6dd2eac81744ad17b140ee9db0e66" target="_top" xlink:title="genfit::RKStep::RKStep">
<polygon fill="none" stroke="#000000" points="159,-153.5 159,-173.5 292,-173.5 292,-153.5 159,-153.5"/>
<text text-anchor="middle" x="225.5" y="-160.5" font-family="FreeSans" font-size="10.00" fill="#000000">genfit::RKStep::RKStep</text>
</a>
</g>
</g>
<!-- Node1&#45;&gt;Node23 -->
<g id="edge37" class="edge">
<title>Node1&#45;&gt;Node23</title>
<path fill="none" stroke="#191970" d="M79.0816,-242.4738C97.5972,-225.386 128.2761,-199.3832 159,-183.5 166.6038,-179.5691 175.105,-176.2803 183.4209,-173.5797"/>
<polygon fill="#191970" stroke="#191970" points="76.5891,-240.0132 71.7,-249.4125 81.3835,-245.1136 76.5891,-240.0132"/>
</g>
<!-- Node24 -->
<g id="node24" class="node">
<title>Node24</title>
<g id="a_node24"><a xlink:href="../../d2/d12/classgenfit_1_1RKTrackRep.html#a298713c11daf73717a074841db36a890" target="_top" xlink:title="genfit::RKTrackRep\l::transformM6P">
<polygon fill="none" stroke="#000000" points="170,-102.5 170,-134.5 281,-134.5 281,-102.5 170,-102.5"/>
<text text-anchor="start" x="178" y="-121.5" font-family="FreeSans" font-size="10.00" fill="#000000">genfit::RKTrackRep</text>
<text text-anchor="middle" x="225.5" y="-109.5" font-family="FreeSans" font-size="10.00" fill="#000000">::transformM6P</text>
</a>
</g>
</g>
<!-- Node1&#45;&gt;Node24 -->
<g id="edge38" class="edge">
<title>Node1&#45;&gt;Node24</title>
<path fill="none" stroke="#191970" d="M73.0029,-240.8661C89.3183,-215.8185 121.4123,-171.3419 159,-144.5 164.2458,-140.7539 170.1042,-137.4569 176.11,-134.5812"/>
<polygon fill="#191970" stroke="#191970" points="69.9639,-239.1225 67.5439,-249.4373 75.8681,-242.8829 69.9639,-239.1225"/>
</g>
<!-- Node26 -->
<g id="node26" class="node">
<title>Node26</title>
<g id="a_node26"><a xlink:href="../../d2/d12/classgenfit_1_1RKTrackRep.html#a7f21be47e0d5032c0c9dbd1d9c3688ef" target="_top" xlink:title="genfit::RKTrackRep\l::transformPM6">
<polygon fill="none" stroke="#000000" points="170,-51.5 170,-83.5 281,-83.5 281,-51.5 170,-51.5"/>
<text text-anchor="start" x="178" y="-70.5" font-family="FreeSans" font-size="10.00" fill="#000000">genfit::RKTrackRep</text>
<text text-anchor="middle" x="225.5" y="-58.5" font-family="FreeSans" font-size="10.00" fill="#000000">::transformPM6</text>
</a>
</g>
</g>
<!-- Node1&#45;&gt;Node26 -->
<g id="edge40" class="edge">
<title>Node1&#45;&gt;Node26</title>
<path fill="none" stroke="#191970" d="M68.2455,-239.5403C80.8314,-205.13 111.0438,-134.4053 159,-93.5 163.4327,-89.719 168.4793,-86.45 173.7649,-83.6324"/>
<polygon fill="#191970" stroke="#191970" points="64.8099,-238.7578 64.7783,-249.3526 71.41,-241.09 64.8099,-238.7578"/>
</g>
<!-- Node3 -->
<g id="node3" class="node">
<title>Node3</title>
<g id="a_node3"><a xlink:href="../../d2/d12/classgenfit_1_1RKTrackRep.html#a1b48d34b67452eeb4d22c08884cd81e7" target="_top" xlink:title="genfit::RKTrackRep\l::calcForwardJacobianAndNoise">
<polygon fill="none" stroke="#000000" points="328,-401.5 328,-433.5 502,-433.5 502,-401.5 328,-401.5"/>
<text text-anchor="start" x="336" y="-420.5" font-family="FreeSans" font-size="10.00" fill="#000000">genfit::RKTrackRep</text>
<text text-anchor="middle" x="415" y="-408.5" font-family="FreeSans" font-size="10.00" fill="#000000">::calcForwardJacobianAndNoise</text>
</a>
</g>
</g>
<!-- Node2&#45;&gt;Node3 -->
<g id="edge2" class="edge">
<title>Node2&#45;&gt;Node3</title>
<path fill="none" stroke="#191970" d="M291.2347,-406.397C303.0125,-407.4536 315.4523,-408.5696 327.7239,-409.6705"/>
<polygon fill="#191970" stroke="#191970" points="291.3486,-402.8933 281.0758,-405.4857 290.7231,-409.8653 291.3486,-402.8933"/>
</g>
<!-- Node4 -->
<g id="node4" class="node">
<title>Node4</title>
<g id="a_node4"><a xlink:href="../../dc/d22/namespacegenfit.html#a7f4fb1ca240c395344a29860679f2d4a" target="_top" xlink:title="White&#45;Box&#45;Test.">
<polygon fill="none" stroke="#000000" points="549,-413.5 549,-433.5 638,-433.5 638,-413.5 549,-413.5"/>
<text text-anchor="middle" x="593.5" y="-420.5" font-family="FreeSans" font-size="10.00" fill="#000000">genfit::TEST_F</text>
</a>
</g>
</g>
<!-- Node3&#45;&gt;Node4 -->
<g id="edge3" class="edge">
<title>Node3&#45;&gt;Node4</title>
<path fill="none" stroke="#191970" d="M512.3433,-420.772C525.0091,-421.1978 537.4556,-421.6162 548.6513,-421.9925"/>
<polygon fill="#191970" stroke="#191970" points="512.2703,-417.2677 502.1584,-420.4297 512.0351,-424.2638 512.2703,-417.2677"/>
</g>
<!-- Node5 -->
<g id="node5" class="node">
<title>Node5</title>
<g id="a_node5"><a xlink:href="../../d2/d12/classgenfit_1_1RKTrackRep.html#a8aab6f587db26d572214ede92f4877fc" target="_top" xlink:title="Handles propagation and material effects.">
<polygon fill="none" stroke="#000000" points="538,-362.5 538,-394.5 649,-394.5 649,-362.5 538,-362.5"/>
<text text-anchor="start" x="546" y="-381.5" font-family="FreeSans" font-size="10.00" fill="#000000">genfit::RKTrackRep</text>
<text text-anchor="middle" x="593.5" y="-369.5" font-family="FreeSans" font-size="10.00" fill="#000000">::Extrap</text>
</a>
</g>
</g>
<!-- Node3&#45;&gt;Node5 -->
<g id="edge4" class="edge">
<title>Node3&#45;&gt;Node5</title>
<path fill="none" stroke="#191970" d="M498.5272,-399.2504C511.8721,-396.3347 525.3884,-393.3815 537.876,-390.6532"/>
<polygon fill="#191970" stroke="#191970" points="497.3979,-395.9144 488.3755,-401.4684 498.8922,-402.7531 497.3979,-395.9144"/>
</g>
<!-- Node6 -->
<g id="node6" class="node">
<title>Node6</title>
<g id="a_node6"><a xlink:href="../../d2/d12/classgenfit_1_1RKTrackRep.html#a03a1d1eb5b7169ba697ccf114de5066c" target="_top" xlink:title="Extrapolates the state to plane, and returns the extrapolation length and, via reference, the extrapolated state.">
<polygon fill="none" stroke="#000000" points="685,-283.5 685,-315.5 804,-315.5 804,-283.5 685,-283.5"/>
<text text-anchor="start" x="693" y="-302.5" font-family="FreeSans" font-size="10.00" fill="#000000">genfit::RKTrackRep</text>
<text text-anchor="middle" x="744.5" y="-290.5" font-family="FreeSans" font-size="10.00" fill="#000000">::extrapolateToPlane</text>
</a>
</g>
</g>
<!-- Node5&#45;&gt;Node6 -->
<g id="edge5" class="edge">
<title>Node5&#45;&gt;Node6</title>
<path fill="none" stroke="#191970" d="M633.3695,-357.6411C658.5808,-344.4511 690.6699,-327.6627 713.8782,-315.5207"/>
<polygon fill="#191970" stroke="#191970" points="631.6596,-354.5856 624.4215,-362.3225 634.9046,-360.788 631.6596,-354.5856"/>
</g>
<!-- Node7 -->
<g id="node7" class="node">
<title>Node7</title>
<g id="a_node7"><a xlink:href="../../d2/d12/classgenfit_1_1RKTrackRep.html#a216b86da9a7238ff9cf24e944b0f9e4b" target="_top" xlink:title="Extrapolates the state to the POCA to a line, and returns the extrapolation length and...">
<polygon fill="none" stroke="#000000" points="850.5,-480.5 850.5,-512.5 963.5,-512.5 963.5,-480.5 850.5,-480.5"/>
<text text-anchor="start" x="858.5" y="-499.5" font-family="FreeSans" font-size="10.00" fill="#000000">genfit::RKTrackRep</text>
<text text-anchor="middle" x="907" y="-487.5" font-family="FreeSans" font-size="10.00" fill="#000000">::extrapolateToLine</text>
</a>
</g>
</g>
<!-- Node5&#45;&gt;Node7 -->
<g id="edge13" class="edge">
<title>Node5&#45;&gt;Node7</title>
<path fill="none" stroke="#191970" d="M639.6185,-399.2002C642.8334,-400.9186 645.9898,-402.6923 649,-404.5 666.1459,-414.7965 667.1161,-422.5464 685,-431.5 738.1478,-458.1084 804.0421,-475.6756 850.1814,-485.7623"/>
<polygon fill="#191970" stroke="#191970" points="640.973,-395.9617 630.4765,-394.5214 637.7838,-402.193 640.973,-395.9617"/>
</g>
<!-- Node8 -->
<g id="node8" class="node">
<title>Node8</title>
<g id="a_node8"><a xlink:href="../../d2/d12/classgenfit_1_1RKTrackRep.html#abb38b9cdcf9cfa490b795530579bcd73" target="_top" xlink:title="genfit::RKTrackRep\l::extrapToPoint">
<polygon fill="none" stroke="#000000" points="851.5,-404.5 851.5,-436.5 962.5,-436.5 962.5,-404.5 851.5,-404.5"/>
<text text-anchor="start" x="859.5" y="-423.5" font-family="FreeSans" font-size="10.00" fill="#000000">genfit::RKTrackRep</text>
<text text-anchor="middle" x="907" y="-411.5" font-family="FreeSans" font-size="10.00" fill="#000000">::extrapToPoint</text>
</a>
</g>
</g>
<!-- Node5&#45;&gt;Node8 -->
<g id="edge14" class="edge">
<title>Node5&#45;&gt;Node8</title>
<path fill="none" stroke="#191970" d="M638.1219,-398.329C652.7699,-403.9529 669.319,-409.3882 685,-412.5 740.7978,-423.5726 805.9956,-424.5416 851.2379,-423.3739"/>
<polygon fill="#191970" stroke="#191970" points="639.3846,-395.0647 628.7988,-394.6286 636.8022,-401.5709 639.3846,-395.0647"/>
</g>
<!-- Node10 -->
<g id="node10" class="node">
<title>Node10</title>
<g id="a_node10"><a xlink:href="../../d2/d12/classgenfit_1_1RKTrackRep.html#abb4665294ae573dc5423f2975bb8b3e7" target="_top" xlink:title="Extrapolates the state to the cylinder surface, and returns the extrapolation length and...">
<polygon fill="none" stroke="#000000" points="840,-334.5 840,-366.5 974,-366.5 974,-334.5 840,-334.5"/>
<text text-anchor="start" x="848" y="-353.5" font-family="FreeSans" font-size="10.00" fill="#000000">genfit::RKTrackRep</text>
<text text-anchor="middle" x="907" y="-341.5" font-family="FreeSans" font-size="10.00" fill="#000000">::extrapolateToCylinder</text>
</a>
</g>
</g>
<!-- Node5&#45;&gt;Node10 -->
<g id="edge15" class="edge">
<title>Node5&#45;&gt;Node10</title>
<path fill="none" stroke="#191970" d="M659.0798,-393.9336C700.9289,-401.3749 756.1125,-406.7075 804,-396.5 831.007,-390.7433 859.5102,-377.3734 879.6686,-366.5231"/>
<polygon fill="#191970" stroke="#191970" points="659.4836,-390.4487 649.0117,-392.0575 658.2012,-397.3302 659.4836,-390.4487"/>
</g>
<!-- Node11 -->
<g id="node11" class="node">
<title>Node11</title>
<g id="a_node11"><a xlink:href="../../d2/d12/classgenfit_1_1RKTrackRep.html#a44091ce8605a38c40d4a4f1692af448b" target="_top" xlink:title="Extrapolates the state to the cone surface, and returns the extrapolation length and, via reference, the extrapolated state.">
<polygon fill="none" stroke="#000000" points="848.5,-162.5 848.5,-194.5 965.5,-194.5 965.5,-162.5 848.5,-162.5"/>
<text text-anchor="start" x="856.5" y="-181.5" font-family="FreeSans" font-size="10.00" fill="#000000">genfit::RKTrackRep</text>
<text text-anchor="middle" x="907" y="-169.5" font-family="FreeSans" font-size="10.00" fill="#000000">::extrapolateToCone</text>
</a>
</g>
</g>
<!-- Node5&#45;&gt;Node11 -->
<g id="edge16" class="edge">
<title>Node5&#45;&gt;Node11</title>
<path fill="none" stroke="#191970" d="M622.0485,-355.4856C631.5156,-346.8211 641.5317,-336.4073 649,-325.5 672.6416,-290.9719 653.5731,-266.1308 685,-238.5 730.2752,-198.6935 799.3771,-184.9713 848.4457,-180.4114"/>
<polygon fill="#191970" stroke="#191970" points="619.4784,-353.0854 614.2932,-362.3247 624.1084,-358.3356 619.4784,-353.0854"/>
</g>
<!-- Node12 -->
<g id="node12" class="node">
<title>Node12</title>
<g id="a_node12"><a xlink:href="../../d2/d12/classgenfit_1_1RKTrackRep.html#aaa34d4913daa972f1947554c4b1e23a8" target="_top" xlink:title="Extrapolates the state to the sphere surface, and returns the extrapolation length and...">
<polygon fill="none" stroke="#000000" points="843.5,-283.5 843.5,-315.5 970.5,-315.5 970.5,-283.5 843.5,-283.5"/>
<text text-anchor="start" x="851.5" y="-302.5" font-family="FreeSans" font-size="10.00" fill="#000000">genfit::RKTrackRep</text>
<text text-anchor="middle" x="907" y="-290.5" font-family="FreeSans" font-size="10.00" fill="#000000">::extrapolateToSphere</text>
</a>
</g>
</g>
<!-- Node5&#45;&gt;Node12 -->
<g id="edge17" class="edge">
<title>Node5&#45;&gt;Node12</title>
<path fill="none" stroke="#191970" d="M659.0683,-362.002C700.6047,-351.5481 755.4536,-337.7387 804,-325.5 816.7866,-322.2765 830.4653,-318.8254 843.5405,-315.5253"/>
<polygon fill="#191970" stroke="#191970" points="658.1887,-358.6142 649.3453,-364.449 659.8971,-365.4025 658.1887,-358.6142"/>
</g>
<!-- Node13 -->
<g id="node13" class="node">
<title>Node13</title>
<g id="a_node13"><a xlink:href="../../d2/d12/classgenfit_1_1RKTrackRep.html#afb21945e3f605f45b1a5bbbe7741793f" target="_top" xlink:title="Extrapolates the state by step (cm) and returns the extrapolation length and, via reference...">
<polygon fill="none" stroke="#000000" points="851.5,-232.5 851.5,-264.5 962.5,-264.5 962.5,-232.5 851.5,-232.5"/>
<text text-anchor="start" x="859.5" y="-251.5" font-family="FreeSans" font-size="10.00" fill="#000000">genfit::RKTrackRep</text>
<text text-anchor="middle" x="907" y="-239.5" font-family="FreeSans" font-size="10.00" fill="#000000">::extrapolateBy</text>
</a>
</g>
</g>
<!-- Node5&#45;&gt;Node13 -->
<g id="edge18" class="edge">
<title>Node5&#45;&gt;Node13</title>
<path fill="none" stroke="#191970" d="M619.571,-355.5679C629.2277,-346.5782 640.0069,-335.9301 649,-325.5 667.1176,-304.4874 661.1512,-288.6779 685,-274.5 735.5341,-244.4579 804.006,-240.8676 851.4864,-242.9424"/>
<polygon fill="#191970" stroke="#191970" points="617.1357,-353.0521 612.1227,-362.3859 621.8622,-358.2155 617.1357,-353.0521"/>
</g>
<!-- Node6&#45;&gt;Node7 -->
<g id="edge6" class="edge">
<title>Node6&#45;&gt;Node7</title>
<path fill="none" stroke="#191970" d="M757.4568,-325.0448C773.9234,-355.9759 804.5109,-408.6268 840,-446.5 852.1074,-459.4208 867.8915,-471.3821 881.0981,-480.3639"/>
<polygon fill="#191970" stroke="#191970" points="760.3601,-323.0447 752.6184,-315.8117 754.1599,-326.2938 760.3601,-323.0447"/>
</g>
<!-- Node6&#45;&gt;Node8 -->
<g id="edge7" class="edge">
<title>Node6&#45;&gt;Node8</title>
<path fill="none" stroke="#191970" d="M771.3206,-322.2916C790.1635,-338.0123 816.1615,-359.1255 840,-376.5 853.2702,-386.1719 868.542,-396.2759 881.1507,-404.3587"/>
<polygon fill="#191970" stroke="#191970" points="773.367,-319.44 763.4556,-315.6964 768.8692,-324.8037 773.367,-319.44"/>
</g>
<!-- Node6&#45;&gt;Node10 -->
<g id="edge9" class="edge">
<title>Node6&#45;&gt;Node10</title>
<path fill="none" stroke="#191970" d="M805.5283,-318.6535C822.1286,-323.8634 839.9316,-329.4508 855.9185,-334.4683"/>
<polygon fill="#191970" stroke="#191970" points="806.5052,-315.2918 795.916,-315.6367 804.4091,-321.9706 806.5052,-315.2918"/>
</g>
<!-- Node6&#45;&gt;Node11 -->
<g id="edge10" class="edge">
<title>Node6&#45;&gt;Node11</title>
<path fill="none" stroke="#191970" d="M771.7763,-276.8284C790.6337,-261.3952 816.4663,-240.7241 840,-223.5 853.5686,-213.5693 869.1383,-203.0609 881.8517,-194.6985"/>
<polygon fill="#191970" stroke="#191970" points="769.3961,-274.2542 763.893,-283.3077 773.8408,-279.662 769.3961,-274.2542"/>
</g>
<!-- Node6&#45;&gt;Node12 -->
<g id="edge11" class="edge">
<title>Node6&#45;&gt;Node12</title>
<path fill="none" stroke="#191970" d="M814.0943,-299.5C823.7996,-299.5 833.7314,-299.5 843.3204,-299.5"/>
<polygon fill="#191970" stroke="#191970" points="814.0863,-296.0001 804.0863,-299.5 814.0862,-303.0001 814.0863,-296.0001"/>
</g>
<!-- Node6&#45;&gt;Node13 -->
<g id="edge12" class="edge">
<title>Node6&#45;&gt;Node13</title>
<path fill="none" stroke="#191970" d="M805.5283,-280.3465C822.1286,-275.1366 839.9316,-269.5492 855.9185,-264.5317"/>
<polygon fill="#191970" stroke="#191970" points="804.4091,-277.0294 795.916,-283.3633 806.5052,-283.7082 804.4091,-277.0294"/>
</g>
<!-- Node9 -->
<g id="node9" class="node">
<title>Node9</title>
<g id="a_node9"><a xlink:href="../../d2/d12/classgenfit_1_1RKTrackRep.html#aff9f0db2e194bd9889386cc73ed2d0cd" target="_top" xlink:title="Extrapolates the state to the POCA to a point, and returns the extrapolation length and...">
<polygon fill="none" stroke="#000000" points="1010,-404.5 1010,-436.5 1127,-436.5 1127,-404.5 1010,-404.5"/>
<text text-anchor="start" x="1018" y="-423.5" font-family="FreeSans" font-size="10.00" fill="#000000">genfit::RKTrackRep</text>
<text text-anchor="middle" x="1068.5" y="-411.5" font-family="FreeSans" font-size="10.00" fill="#000000">::extrapolateToPoint</text>
</a>
</g>
</g>
<!-- Node8&#45;&gt;Node9 -->
<g id="edge8" class="edge">
<title>Node8&#45;&gt;Node9</title>
<path fill="none" stroke="#191970" d="M972.7434,-420.5C985.0089,-420.5 997.753,-420.5 1009.7897,-420.5"/>
<polygon fill="#191970" stroke="#191970" points="972.5792,-417.0001 962.5791,-420.5 972.5791,-424.0001 972.5792,-417.0001"/>
</g>
<!-- Node14&#45;&gt;Node3 -->
<g id="edge20" class="edge">
<title>Node14&#45;&gt;Node3</title>
<path fill="none" stroke="#191970" d="M291.2347,-439.7059C303.0125,-437.5927 315.4523,-435.3608 327.7239,-433.159"/>
<polygon fill="#191970" stroke="#191970" points="290.3005,-436.3175 281.0758,-441.5286 291.5368,-443.2075 290.3005,-436.3175"/>
</g>
<!-- Node17 -->
<g id="node17" class="node">
<title>Node17</title>
<g id="a_node17"><a xlink:href="../../d2/d12/classgenfit_1_1RKTrackRep.html#aca0b07380cd50f63eef644ebda8252ce" target="_top" xlink:title="genfit::RKTrackRep\l::RKTrackRep">
<polygon fill="none" stroke="#000000" points="538,-137.5 538,-169.5 649,-169.5 649,-137.5 538,-137.5"/>
<text text-anchor="start" x="546" y="-156.5" font-family="FreeSans" font-size="10.00" fill="#000000">genfit::RKTrackRep</text>
<text text-anchor="middle" x="593.5" y="-144.5" font-family="FreeSans" font-size="10.00" fill="#000000">::RKTrackRep</text>
</a>
</g>
</g>
<!-- Node16&#45;&gt;Node17 -->
<g id="edge23" class="edge">
<title>Node16&#45;&gt;Node17</title>
<path fill="none" stroke="#191970" d="M442.5507,-276.9655C478.9134,-247.2235 542.0351,-195.5946 573.8988,-169.5324"/>
<polygon fill="#191970" stroke="#191970" points="440.3093,-274.2772 434.7846,-283.3176 444.7411,-279.6956 440.3093,-274.2772"/>
</g>
<!-- Node19 -->
<g id="node19" class="node">
<title>Node19</title>
<g id="a_node19"><a xlink:href="../../d2/d12/classgenfit_1_1RKTrackRep.html#a150fcf26ed6cb69e104290ac02662397" target="_top" xlink:title="genfit::RKTrackRep\l::checkCache">
<polygon fill="none" stroke="#000000" points="538,-283.5 538,-315.5 649,-315.5 649,-283.5 538,-283.5"/>
<text text-anchor="start" x="546" y="-302.5" font-family="FreeSans" font-size="10.00" fill="#000000">genfit::RKTrackRep</text>
<text text-anchor="middle" x="593.5" y="-290.5" font-family="FreeSans" font-size="10.00" fill="#000000">::checkCache</text>
</a>
</g>
</g>
<!-- Node16&#45;&gt;Node19 -->
<g id="edge25" class="edge">
<title>Node16&#45;&gt;Node19</title>
<path fill="none" stroke="#191970" d="M480.7255,-299.5C499.4481,-299.5 519.6581,-299.5 537.7271,-299.5"/>
<polygon fill="#191970" stroke="#191970" points="480.5001,-296.0001 470.5,-299.5 480.5,-303.0001 480.5001,-296.0001"/>
</g>
<!-- Node18 -->
<g id="node18" class="node">
<title>Node18</title>
<g id="a_node18"><a xlink:href="../../d2/d12/classgenfit_1_1RKTrackRep.html#a11ca1198623fae76ddfd683296b714ce" target="_top" xlink:title="Clone the trackRep.">
<polygon fill="none" stroke="#000000" points="689,-41.5 689,-73.5 800,-73.5 800,-41.5 689,-41.5"/>
<text text-anchor="start" x="697" y="-60.5" font-family="FreeSans" font-size="10.00" fill="#000000">genfit::RKTrackRep</text>
<text text-anchor="middle" x="744.5" y="-48.5" font-family="FreeSans" font-size="10.00" fill="#000000">::clone</text>
</a>
</g>
</g>
<!-- Node17&#45;&gt;Node18 -->
<g id="edge24" class="edge">
<title>Node17&#45;&gt;Node18</title>
<path fill="none" stroke="#191970" d="M622.5691,-131.2973C640.217,-118.214 663.4299,-101.6947 685,-88.5 693.4458,-83.3336 702.8426,-78.1805 711.6278,-73.6013"/>
<polygon fill="#191970" stroke="#191970" points="620.2991,-128.6243 614.3842,-137.4143 624.4897,-134.2314 620.2991,-128.6243"/>
</g>
<!-- Node19&#45;&gt;Node6 -->
<g id="edge26" class="edge">
<title>Node19&#45;&gt;Node6</title>
<path fill="none" stroke="#191970" d="M659.4898,-299.5C667.9347,-299.5 676.5409,-299.5 684.8767,-299.5"/>
<polygon fill="#191970" stroke="#191970" points="659.2978,-296.0001 649.2978,-299.5 659.2978,-303.0001 659.2978,-296.0001"/>
</g>
<!-- Node19&#45;&gt;Node7 -->
<g id="edge27" class="edge">
<title>Node19&#45;&gt;Node7</title>
<path fill="none" stroke="#191970" d="M616.541,-323.1635C634.2595,-340.5843 659.8842,-364.1573 685,-381.5 745.7207,-423.4282 823.694,-460.3831 869.2298,-480.4804"/>
<polygon fill="#191970" stroke="#191970" points="618.5411,-320.2155 608.9867,-315.6368 613.6004,-325.1743 618.5411,-320.2155"/>
</g>
<!-- Node19&#45;&gt;Node8 -->
<g id="edge28" class="edge">
<title>Node19&#45;&gt;Node8</title>
<path fill="none" stroke="#191970" d="M630.1247,-320.4903C646.5941,-329.4624 666.4619,-339.6533 685,-347.5 740.2969,-370.9058 805.8555,-391.6473 851.3289,-404.9822"/>
<polygon fill="#191970" stroke="#191970" points="631.8015,-317.4182 621.3546,-315.6539 628.4211,-323.5479 631.8015,-317.4182"/>
</g>
<!-- Node19&#45;&gt;Node10 -->
<g id="edge29" class="edge">
<title>Node19&#45;&gt;Node10</title>
<path fill="none" stroke="#191970" d="M654.122,-318.2358C664.3596,-320.9641 674.9314,-323.5166 685,-325.5 736.3729,-335.6198 795.2997,-342.0187 839.5271,-345.8068"/>
<polygon fill="#191970" stroke="#191970" points="655.0061,-314.849 644.4365,-315.5788 653.1543,-321.5997 655.0061,-314.849"/>
</g>
<!-- Node19&#45;&gt;Node11 -->
<g id="edge30" class="edge">
<title>Node19&#45;&gt;Node11</title>
<path fill="none" stroke="#191970" d="M626.8751,-277.7025C643.8062,-267.2902 664.9797,-255.2281 685,-246.5 738.578,-223.1418 802.6833,-204.4286 848.2018,-192.5921"/>
<polygon fill="#191970" stroke="#191970" points="624.5656,-275.0184 617.9396,-283.2857 628.2749,-280.9549 624.5656,-275.0184"/>
</g>
<!-- Node19&#45;&gt;Node12 -->
<g id="edge31" class="edge">
<title>Node19&#45;&gt;Node12</title>
<path fill="none" stroke="#191970" d="M652.5438,-280.903C663.2439,-278.241 674.3783,-275.9249 685,-274.5 737.4193,-267.4678 751.4855,-268.2181 804,-274.5 819.6216,-276.3687 836.2977,-279.7778 851.5813,-283.4899"/>
<polygon fill="#191970" stroke="#191970" points="651.6581,-277.5168 642.8665,-283.4293 653.4263,-284.2899 651.6581,-277.5168"/>
</g>
<!-- Node19&#45;&gt;Node13 -->
<g id="edge32" class="edge">
<title>Node19&#45;&gt;Node13</title>
<path fill="none" stroke="#191970" d="M639.3807,-279.5998C653.7371,-274.1527 669.8027,-268.8362 685,-265.5 740.6893,-253.2746 805.9036,-249.4935 851.1794,-248.4845"/>
<polygon fill="#191970" stroke="#191970" points="637.7839,-276.4662 629.7464,-283.3691 640.3343,-282.985 637.7839,-276.4662"/>
</g>
<!-- Node21 -->
<g id="node21" class="node">
<title>Node21</title>
<g id="a_node21"><a xlink:href="../../d1/d34/classgenfit_1_1MaterialEffects.html#ac11f0e9f0c47f9ae160e0e21cf846d01" target="_top" xlink:title="Calculates energy loss in the traveled path, optional calculation of noise matrix.">
<polygon fill="none" stroke="#000000" points="351,-337.5 351,-369.5 479,-369.5 479,-337.5 351,-337.5"/>
<text text-anchor="start" x="359" y="-356.5" font-family="FreeSans" font-size="10.00" fill="#000000">genfit::MaterialEffects</text>
<text text-anchor="middle" x="415" y="-344.5" font-family="FreeSans" font-size="10.00" fill="#000000">::effects</text>
</a>
</g>
</g>
<!-- Node20&#45;&gt;Node21 -->
<g id="edge34" class="edge">
<title>Node20&#45;&gt;Node21</title>
<path fill="none" stroke="#191970" d="M299.9991,-351.0725C316.8288,-351.4278 334.5526,-351.8019 350.91,-352.1472"/>
<polygon fill="#191970" stroke="#191970" points="299.7277,-347.5661 289.6561,-350.8542 299.5799,-354.5646 299.7277,-347.5661"/>
</g>
<!-- Node21&#45;&gt;Node5 -->
<g id="edge35" class="edge">
<title>Node21&#45;&gt;Node5</title>
<path fill="none" stroke="#191970" d="M489.2144,-363.8942C505.4883,-366.1734 522.449,-368.5489 537.8473,-370.7055"/>
<polygon fill="#191970" stroke="#191970" points="489.5792,-360.4112 479.1904,-362.4903 488.6083,-367.3435 489.5792,-360.4112"/>
</g>
<!-- Node25 -->
<g id="node25" class="node">
<title>Node25</title>
<g id="a_node25"><a xlink:href="../../d2/d12/classgenfit_1_1RKTrackRep.html#acb46bfdfe945c02a232bc219addf913e" target="_top" xlink:title="Set position, momentum and covariance of state.">
<polygon fill="none" stroke="#000000" points="359.5,-102.5 359.5,-134.5 470.5,-134.5 470.5,-102.5 359.5,-102.5"/>
<text text-anchor="start" x="367.5" y="-121.5" font-family="FreeSans" font-size="10.00" fill="#000000">genfit::RKTrackRep</text>
<text text-anchor="middle" x="415" y="-109.5" font-family="FreeSans" font-size="10.00" fill="#000000">::setPosMomCov</text>
</a>
</g>
</g>
<!-- Node24&#45;&gt;Node25 -->
<g id="edge39" class="edge">
<title>Node24&#45;&gt;Node25</title>
<path fill="none" stroke="#191970" d="M291.1175,-118.5C313.381,-118.5 338.0216,-118.5 359.4252,-118.5"/>
<polygon fill="#191970" stroke="#191970" points="291.0759,-115.0001 281.0758,-118.5 291.0758,-122.0001 291.0759,-115.0001"/>
</g>
<!-- Node27 -->
<g id="node27" class="node">
<title>Node27</title>
<g id="a_node27"><a xlink:href="../../d2/d12/classgenfit_1_1RKTrackRep.html#adf335d9f5be6d0d9b876138cff9b381b" target="_top" xlink:title="Translates MeasuredStateOnPlane into 3D position, momentum and 6x6 covariance.">
<polygon fill="none" stroke="#000000" points="359.5,-51.5 359.5,-83.5 470.5,-83.5 470.5,-51.5 359.5,-51.5"/>
<text text-anchor="start" x="367.5" y="-70.5" font-family="FreeSans" font-size="10.00" fill="#000000">genfit::RKTrackRep</text>
<text text-anchor="middle" x="415" y="-58.5" font-family="FreeSans" font-size="10.00" fill="#000000">::getPosMomCov</text>
</a>
</g>
</g>
<!-- Node26&#45;&gt;Node27 -->
<g id="edge41" class="edge">
<title>Node26&#45;&gt;Node27</title>
<path fill="none" stroke="#191970" d="M291.1175,-67.5C313.381,-67.5 338.0216,-67.5 359.4252,-67.5"/>
<polygon fill="#191970" stroke="#191970" points="291.0759,-64.0001 281.0758,-67.5 291.0758,-71.0001 291.0759,-64.0001"/>
</g>
<!-- Node28 -->
<g id="node28" class="node">
<title>Node28</title>
<g id="a_node28"><a xlink:href="../../d2/d12/classgenfit_1_1RKTrackRep.html#a7de37b55c08f65fc716098d32db7aa9e" target="_top" xlink:title="Get the 6D covariance.">
<polygon fill="none" stroke="#000000" points="359.5,-.5 359.5,-32.5 470.5,-32.5 470.5,-.5 359.5,-.5"/>
<text text-anchor="start" x="367.5" y="-19.5" font-family="FreeSans" font-size="10.00" fill="#000000">genfit::RKTrackRep</text>
<text text-anchor="middle" x="415" y="-7.5" font-family="FreeSans" font-size="10.00" fill="#000000">::get6DCov</text>
</a>
</g>
</g>
<!-- Node26&#45;&gt;Node28 -->
<g id="edge42" class="edge">
<title>Node26&#45;&gt;Node28</title>
<path fill="none" stroke="#191970" d="M290.8168,-49.9213C313.159,-43.9084 337.9252,-37.2431 359.4252,-31.4568"/>
<polygon fill="#191970" stroke="#191970" points="289.8226,-46.5643 281.0758,-52.5429 291.6419,-53.3238 289.8226,-46.5643"/>
</g>
</g>
</svg>
