<?xml version="1.0" encoding="UTF-8" standalone="no"?>
<!DOCTYPE svg PUBLIC "-//W3C//DTD SVG 1.1//EN"
 "http://www.w3.org/Graphics/SVG/1.1/DTD/svg11.dtd">
<!-- Generated by graphviz version 2.40.1 (20161225.0304)
 -->
<!-- Title: GenFit/blob/master/trackReps/include/MaterialEffects.h Pages: 1 -->
<svg width="858pt" height="509pt"
 viewBox="0.00 0.00 858.00 509.00" xmlns="http://www.w3.org/2000/svg" xmlns:xlink="http://www.w3.org/1999/xlink">
<g id="graph0" class="graph" transform="scale(1 1) rotate(0) translate(4 505)">
<title>GenFit/blob/master/trackReps/include/MaterialEffects.h</title>
<!-- Node1 -->
<g id="node1" class="node">
<title>Node1</title>
<polygon fill="#bfbfbf" stroke="#000000" points="562.5,-456.5 562.5,-500.5 717.5,-500.5 717.5,-456.5 562.5,-456.5"/>
<text text-anchor="start" x="570.5" y="-487.5" font-family="FreeSans" font-size="10.00" fill="#000000">GenFit/blob/master</text>
<text text-anchor="start" x="570.5" y="-475.5" font-family="FreeSans" font-size="10.00" fill="#000000">/trackReps/include/Material</text>
<text text-anchor="middle" x="640" y="-463.5" font-family="FreeSans" font-size="10.00" fill="#000000">Effects.h</text>
</g>
<!-- Node2 -->
<g id="node2" class="node">
<title>Node2</title>
<g id="a_node2"><a xlink:href="../../df/dad/RKTools_8h.html" target="_top" xlink:title="RKTools.h">
<polygon fill="none" stroke="#000000" points="84.5,-285.5 84.5,-305.5 147.5,-305.5 147.5,-285.5 84.5,-285.5"/>
<text text-anchor="middle" x="116" y="-292.5" font-family="FreeSans" font-size="10.00" fill="#000000">RKTools.h</text>
</a>
</g>
</g>
<!-- Node1&#45;&gt;Node2 -->
<g id="edge1" class="edge">
<title>Node1&#45;&gt;Node2</title>
<path fill="none" stroke="#191970" d="M562.458,-461.8766C479.9724,-442.9129 346.5457,-408.5404 237,-363 201.9004,-348.4084 164.0283,-326.1112 140.1805,-311.1813"/>
<polygon fill="#191970" stroke="#191970" points="141.7851,-308.0547 131.4643,-305.6605 138.0395,-313.9682 141.7851,-308.0547"/>
</g>
<!-- Node5 -->
<g id="node5" class="node">
<title>Node5</title>
<g id="a_node5"><a xlink:href="../../d8/de8/AbsMaterialInterface_8h.html" target="_top" xlink:title="AbsMaterialInterface.h">
<polygon fill="none" stroke="#000000" points="480.5,-399.5 480.5,-419.5 611.5,-419.5 611.5,-399.5 480.5,-399.5"/>
<text text-anchor="middle" x="546" y="-406.5" font-family="FreeSans" font-size="10.00" fill="#000000">AbsMaterialInterface.h</text>
</a>
</g>
</g>
<!-- Node1&#45;&gt;Node5 -->
<g id="edge4" class="edge">
<title>Node1&#45;&gt;Node5</title>
<path fill="none" stroke="#191970" d="M609.9994,-456.4783C596.2915,-446.4161 580.354,-434.7173 567.8124,-425.5113"/>
<polygon fill="#191970" stroke="#191970" points="569.874,-422.6828 559.7415,-419.5869 565.7318,-428.3257 569.874,-422.6828"/>
</g>
<!-- Node13 -->
<g id="node13" class="node">
<title>Node13</title>
<polygon fill="none" stroke="#bfbfbf" points="640.5,-57.5 640.5,-77.5 711.5,-77.5 711.5,-57.5 640.5,-57.5"/>
<text text-anchor="middle" x="676" y="-64.5" font-family="FreeSans" font-size="10.00" fill="#000000">TVector3.h</text>
</g>
<!-- Node1&#45;&gt;Node13 -->
<g id="edge41" class="edge">
<title>Node1&#45;&gt;Node13</title>
<path fill="none" stroke="#191970" d="M683.3561,-456.3468C718.4225,-434.9941 762,-399.0867 762,-352.5 762,-352.5 762,-352.5 762,-181.5 762,-139.8479 724.9594,-103.7665 699.4963,-83.8836"/>
<polygon fill="#191970" stroke="#191970" points="701.4712,-80.9895 691.3751,-77.777 697.2643,-86.5843 701.4712,-80.9895"/>
</g>
<!-- Node24 -->
<g id="node24" class="node">
<title>Node24</title>
<polygon fill="none" stroke="#bfbfbf" points="608.5,-228.5 608.5,-248.5 657.5,-248.5 657.5,-228.5 608.5,-228.5"/>
<text text-anchor="middle" x="633" y="-235.5" font-family="FreeSans" font-size="10.00" fill="#000000">vector</text>
</g>
<!-- Node1&#45;&gt;Node24 -->
<g id="edge40" class="edge">
<title>Node1&#45;&gt;Node24</title>
<path fill="none" stroke="#191970" d="M639.354,-456.3516C638.0027,-410.0218 634.8953,-303.4806 633.5921,-258.8019"/>
<polygon fill="#191970" stroke="#191970" points="637.0853,-258.5147 633.2952,-248.621 630.0883,-258.7189 637.0853,-258.5147"/>
</g>
<!-- Node26 -->
<g id="node26" class="node">
<title>Node26</title>
<polygon fill="none" stroke="#bfbfbf" points="790,-399.5 790,-419.5 850,-419.5 850,-399.5 790,-399.5"/>
<text text-anchor="middle" x="820" y="-406.5" font-family="FreeSans" font-size="10.00" fill="#000000">iostream</text>
</g>
<!-- Node1&#45;&gt;Node26 -->
<g id="edge39" class="edge">
<title>Node1&#45;&gt;Node26</title>
<path fill="none" stroke="#191970" d="M697.448,-456.4783C725.9687,-445.5453 759.5298,-432.6802 784.3133,-423.1799"/>
<polygon fill="#191970" stroke="#191970" points="785.6018,-426.4344 793.6864,-419.5869 783.0962,-419.8982 785.6018,-426.4344"/>
</g>
<!-- Node3 -->
<g id="node3" class="node">
<title>Node3</title>
<polygon fill="none" stroke="#bfbfbf" points="46,-228.5 46,-248.5 102,-248.5 102,-228.5 46,-228.5"/>
<text text-anchor="middle" x="74" y="-235.5" font-family="FreeSans" font-size="10.00" fill="#000000">stddef.h</text>
</g>
<!-- Node2&#45;&gt;Node3 -->
<g id="edge2" class="edge">
<title>Node2&#45;&gt;Node3</title>
<path fill="none" stroke="#191970" d="M108.4912,-285.3095C102.6382,-277.3661 94.3603,-266.1319 87.3812,-256.6602"/>
<polygon fill="#191970" stroke="#191970" points="90.1935,-254.5766 81.4438,-248.6022 84.5581,-258.729 90.1935,-254.5766"/>
</g>
<!-- Node4 -->
<g id="node4" class="node">
<title>Node4</title>
<polygon fill="none" stroke="#bfbfbf" points="120.5,-228.5 120.5,-248.5 185.5,-248.5 185.5,-228.5 120.5,-228.5"/>
<text text-anchor="middle" x="153" y="-235.5" font-family="FreeSans" font-size="10.00" fill="#000000">algorithm</text>
</g>
<!-- Node2&#45;&gt;Node4 -->
<g id="edge3" class="edge">
<title>Node2&#45;&gt;Node4</title>
<path fill="none" stroke="#191970" d="M122.6149,-285.3095C127.6659,-277.5282 134.7668,-266.589 140.834,-257.2423"/>
<polygon fill="#191970" stroke="#191970" points="143.9334,-258.8957 146.4424,-248.6022 138.0619,-255.0844 143.9334,-258.8957"/>
</g>
<!-- Node6 -->
<g id="node6" class="node">
<title>Node6</title>
<g id="a_node6"><a xlink:href="../../dd/dc4/RKTrackRep_8h.html" target="_top" xlink:title="RKTrackRep.h">
<polygon fill="none" stroke="#000000" points="246,-342.5 246,-362.5 330,-362.5 330,-342.5 246,-342.5"/>
<text text-anchor="middle" x="288" y="-349.5" font-family="FreeSans" font-size="10.00" fill="#000000">RKTrackRep.h</text>
</a>
</g>
</g>
<!-- Node5&#45;&gt;Node6 -->
<g id="edge5" class="edge">
<title>Node5&#45;&gt;Node6</title>
<path fill="none" stroke="#191970" d="M500.4687,-399.4408C455.5894,-389.5256 387.0894,-374.3918 340.0711,-364.0041"/>
<polygon fill="#191970" stroke="#191970" points="340.6056,-360.5378 330.086,-361.7981 339.0954,-367.373 340.6056,-360.5378"/>
</g>
<!-- Node12 -->
<g id="node12" class="node">
<title>Node12</title>
<polygon fill="none" stroke="#bfbfbf" points="333.5,-57.5 333.5,-77.5 398.5,-77.5 398.5,-57.5 333.5,-57.5"/>
<text text-anchor="middle" x="366" y="-64.5" font-family="FreeSans" font-size="10.00" fill="#000000">TObject.h</text>
</g>
<!-- Node5&#45;&gt;Node12 -->
<g id="edge37" class="edge">
<title>Node5&#45;&gt;Node12</title>
<path fill="none" stroke="#191970" d="M577.7682,-399.4816C619.074,-384.2381 686,-350.9796 686,-295.5 686,-295.5 686,-295.5 686,-238.5 686,-207.3342 690.0542,-191.9718 667,-171 600.8369,-110.8132 552.0627,-168.175 469,-135 437.5225,-122.428 405.5296,-99.5396 385.7321,-83.9343"/>
<polygon fill="#191970" stroke="#191970" points="387.7711,-81.0826 377.7854,-77.5418 383.3835,-86.5369 387.7711,-81.0826"/>
</g>
<!-- Node5&#45;&gt;Node13 -->
<g id="edge38" class="edge">
<title>Node5&#45;&gt;Node13</title>
<path fill="none" stroke="#191970" d="M596.3259,-399.4423C635.2383,-390.7501 684.936,-377.3524 700,-363 723.0521,-341.0369 724,-327.3399 724,-295.5 724,-295.5 724,-295.5 724,-181.5 724,-145.4228 703.3281,-107.6012 689.1162,-85.8619"/>
<polygon fill="#191970" stroke="#191970" points="692.0099,-83.893 683.5,-77.5817 686.2167,-87.8223 692.0099,-83.893"/>
</g>
<!-- Node15 -->
<g id="node15" class="node">
<title>Node15</title>
<g id="a_node15"><a xlink:href="../../df/d12/Material_8h.html" target="_top" xlink:title="Material.h">
<polygon fill="none" stroke="#000000" points="32,-171.5 32,-191.5 98,-191.5 98,-171.5 32,-171.5"/>
<text text-anchor="middle" x="65" y="-178.5" font-family="FreeSans" font-size="10.00" fill="#000000">Material.h</text>
</a>
</g>
</g>
<!-- Node5&#45;&gt;Node15 -->
<g id="edge36" class="edge">
<title>Node5&#45;&gt;Node15</title>
<path fill="none" stroke="#191970" d="M480.4908,-403.2748C417.4564,-396.4348 319.7842,-383.5963 237,-363 162.9312,-344.5721 135.2714,-352.8309 75,-306 44.5497,-282.3401 26.6772,-265.1544 37,-228 39.7493,-218.1047 45.2323,-208.2071 50.6233,-200.1025"/>
<polygon fill="#191970" stroke="#191970" points="53.5774,-201.9878 56.5201,-191.8099 47.8726,-197.9313 53.5774,-201.9878"/>
</g>
<!-- Node6&#45;&gt;Node2 -->
<g id="edge30" class="edge">
<title>Node6&#45;&gt;Node2</title>
<path fill="none" stroke="#191970" d="M257.6458,-342.4408C229.3633,-333.0681 187.0097,-319.0323 155.983,-308.7502"/>
<polygon fill="#191970" stroke="#191970" points="156.9329,-305.3779 146.3396,-305.5544 154.7309,-312.0225 156.9329,-305.3779"/>
</g>
<!-- Node6&#45;&gt;Node4 -->
<g id="edge35" class="edge">
<title>Node6&#45;&gt;Node4</title>
<path fill="none" stroke="#191970" d="M261.3294,-342.384C242.7376,-334.4342 218.1178,-322.0302 200,-306 184.5329,-292.3151 171.5414,-272.5493 163.1647,-257.941"/>
<polygon fill="#191970" stroke="#191970" points="166.0165,-255.8635 158.1291,-248.7896 159.8837,-259.2382 166.0165,-255.8635"/>
</g>
<!-- Node7 -->
<g id="node7" class="node">
<title>Node7</title>
<g id="a_node7"><a xlink:href="../../d4/d66/AbsTrackRep_8h.html" target="_top" xlink:title="AbsTrackRep.h">
<polygon fill="none" stroke="#000000" points="242.5,-228.5 242.5,-248.5 333.5,-248.5 333.5,-228.5 242.5,-228.5"/>
<text text-anchor="middle" x="288" y="-235.5" font-family="FreeSans" font-size="10.00" fill="#000000">AbsTrackRep.h</text>
</a>
</g>
</g>
<!-- Node6&#45;&gt;Node7 -->
<g id="edge6" class="edge">
<title>Node6&#45;&gt;Node7</title>
<path fill="none" stroke="#191970" d="M288,-342.3833C288,-323.6703 288,-283.3266 288,-258.7866"/>
<polygon fill="#191970" stroke="#191970" points="291.5001,-258.7579 288,-248.7579 284.5001,-258.758 291.5001,-258.7579"/>
</g>
<!-- Node6&#45;&gt;Node15 -->
<g id="edge34" class="edge">
<title>Node6&#45;&gt;Node15</title>
<path fill="none" stroke="#191970" d="M282.9165,-342.201C270.7794,-318.6263 237.8254,-260.2925 194,-228 179.9314,-217.6336 139.5727,-203.8639 107.7049,-194.0038"/>
<polygon fill="#191970" stroke="#191970" points="108.7123,-190.652 98.126,-191.0774 106.667,-197.3465 108.7123,-190.652"/>
</g>
<!-- Node21 -->
<g id="node21" class="node">
<title>Node21</title>
<g id="a_node21"><a xlink:href="../../db/d1a/StateOnPlane_8h.html" target="_top" xlink:title="StateOnPlane.h">
<polygon fill="none" stroke="#000000" points="343,-285.5 343,-305.5 437,-305.5 437,-285.5 343,-285.5"/>
<text text-anchor="middle" x="390" y="-292.5" font-family="FreeSans" font-size="10.00" fill="#000000">StateOnPlane.h</text>
</a>
</g>
</g>
<!-- Node6&#45;&gt;Node21 -->
<g id="edge24" class="edge">
<title>Node6&#45;&gt;Node21</title>
<path fill="none" stroke="#191970" d="M306.2356,-342.3095C322.0456,-333.4745 345.1407,-320.5684 363.0782,-310.5445"/>
<polygon fill="#191970" stroke="#191970" points="364.9003,-313.5358 371.9223,-305.6022 361.4855,-307.4252 364.9003,-313.5358"/>
</g>
<!-- Node23 -->
<g id="node23" class="node">
<title>Node23</title>
<g id="a_node23"><a xlink:href="../../d7/d7e/StepLimits_8h.html" target="_top" xlink:title="StepLimits.h">
<polygon fill="none" stroke="#000000" points="524.5,-285.5 524.5,-305.5 603.5,-305.5 603.5,-285.5 524.5,-285.5"/>
<text text-anchor="middle" x="564" y="-292.5" font-family="FreeSans" font-size="10.00" fill="#000000">StepLimits.h</text>
</a>
</g>
</g>
<!-- Node6&#45;&gt;Node23 -->
<g id="edge31" class="edge">
<title>Node6&#45;&gt;Node23</title>
<path fill="none" stroke="#191970" d="M330.2189,-343.7809C379.7682,-333.5479 461.8253,-316.6013 514.3731,-305.749"/>
<polygon fill="#191970" stroke="#191970" points="515.3854,-309.1139 524.4708,-303.6636 513.9696,-302.2586 515.3854,-309.1139"/>
</g>
<!-- Node8 -->
<g id="node8" class="node">
<title>Node8</title>
<g id="a_node8"><a xlink:href="../../db/d4f/SharedPlanePtr_8h.html" target="_top" xlink:title="SharedPlanePtr.h">
<polygon fill="none" stroke="#000000" points="406,-171.5 406,-191.5 508,-191.5 508,-171.5 406,-171.5"/>
<text text-anchor="middle" x="457" y="-178.5" font-family="FreeSans" font-size="10.00" fill="#000000">SharedPlanePtr.h</text>
</a>
</g>
</g>
<!-- Node7&#45;&gt;Node8 -->
<g id="edge7" class="edge">
<title>Node7&#45;&gt;Node8</title>
<path fill="none" stroke="#191970" d="M317.8248,-228.4408C345.4936,-219.1087 386.8688,-205.1537 417.3178,-194.8839"/>
<polygon fill="#191970" stroke="#191970" points="418.8326,-198.0668 427.1896,-191.5544 416.5955,-191.4339 418.8326,-198.0668"/>
</g>
<!-- Node7&#45;&gt;Node12 -->
<g id="edge20" class="edge">
<title>Node7&#45;&gt;Node12</title>
<path fill="none" stroke="#191970" d="M292.6457,-228.3153C305.2965,-200.5807 340.5208,-123.3583 357.1249,-86.9571"/>
<polygon fill="#191970" stroke="#191970" points="360.3143,-88.3983 361.2801,-77.8476 353.9456,-85.4932 360.3143,-88.3983"/>
</g>
<!-- Node7&#45;&gt;Node13 -->
<g id="edge19" class="edge">
<title>Node7&#45;&gt;Node13</title>
<path fill="none" stroke="#191970" d="M333.5704,-231.7952C390.6774,-222.9551 484.9528,-206.7875 517,-192 575.5275,-164.9938 631.9967,-112.5645 659.1775,-85.1573"/>
<polygon fill="#191970" stroke="#191970" points="661.86,-87.42 666.3443,-77.821 656.8527,-82.5284 661.86,-87.42"/>
</g>
<!-- Node7&#45;&gt;Node15 -->
<g id="edge15" class="edge">
<title>Node7&#45;&gt;Node15</title>
<path fill="none" stroke="#191970" d="M248.6454,-228.4408C209.2236,-218.3643 148.716,-202.8983 108.0395,-192.5011"/>
<polygon fill="#191970" stroke="#191970" points="108.7055,-189.0589 98.1502,-189.9734 106.9719,-195.8409 108.7055,-189.0589"/>
</g>
<!-- Node18 -->
<g id="node18" class="node">
<title>Node18</title>
<polygon fill="none" stroke="#bfbfbf" points="586,-171.5 586,-191.5 658,-191.5 658,-171.5 586,-171.5"/>
<text text-anchor="middle" x="622" y="-178.5" font-family="FreeSans" font-size="10.00" fill="#000000">TVectorD.h</text>
</g>
<!-- Node7&#45;&gt;Node18 -->
<g id="edge21" class="edge">
<title>Node7&#45;&gt;Node18</title>
<path fill="none" stroke="#191970" d="M333.8547,-231.6376C390.0902,-223.0731 488.2626,-207.6396 572,-192 573.2752,-191.7618 574.5678,-191.5166 575.8718,-191.2659"/>
<polygon fill="#191970" stroke="#191970" points="576.8583,-194.6386 585.9882,-189.2631 575.4988,-187.7719 576.8583,-194.6386"/>
</g>
<!-- Node19 -->
<g id="node19" class="node">
<title>Node19</title>
<polygon fill="none" stroke="#bfbfbf" points="116,-171.5 116,-191.5 188,-191.5 188,-171.5 116,-171.5"/>
<text text-anchor="middle" x="152" y="-178.5" font-family="FreeSans" font-size="10.00" fill="#000000">TMatrixD.h</text>
</g>
<!-- Node7&#45;&gt;Node19 -->
<g id="edge22" class="edge">
<title>Node7&#45;&gt;Node19</title>
<path fill="none" stroke="#191970" d="M263.999,-228.4408C242.1875,-219.2992 209.7918,-205.7216 185.4451,-195.5174"/>
<polygon fill="#191970" stroke="#191970" points="186.7942,-192.2879 176.2185,-191.6504 184.0884,-198.7438 186.7942,-192.2879"/>
</g>
<!-- Node20 -->
<g id="node20" class="node">
<title>Node20</title>
<polygon fill="none" stroke="#bfbfbf" points="206,-171.5 206,-191.5 300,-191.5 300,-171.5 206,-171.5"/>
<text text-anchor="middle" x="253" y="-178.5" font-family="FreeSans" font-size="10.00" fill="#000000">TMatrixDSym.h</text>
</g>
<!-- Node7&#45;&gt;Node20 -->
<g id="edge23" class="edge">
<title>Node7&#45;&gt;Node20</title>
<path fill="none" stroke="#191970" d="M281.7427,-228.3095C276.9647,-220.5282 270.2477,-209.589 264.5084,-200.2423"/>
<polygon fill="#191970" stroke="#191970" points="267.4184,-198.2925 259.2031,-191.6022 261.4532,-201.9554 267.4184,-198.2925"/>
</g>
<!-- Node9 -->
<g id="node9" class="node">
<title>Node9</title>
<g id="a_node9"><a xlink:href="../../dc/d81/DetPlane_8h.html" target="_top" xlink:title="DetPlane.h">
<polygon fill="none" stroke="#000000" points="478.5,-114.5 478.5,-134.5 549.5,-134.5 549.5,-114.5 478.5,-114.5"/>
<text text-anchor="middle" x="514" y="-121.5" font-family="FreeSans" font-size="10.00" fill="#000000">DetPlane.h</text>
</a>
</g>
</g>
<!-- Node8&#45;&gt;Node9 -->
<g id="edge8" class="edge">
<title>Node8&#45;&gt;Node9</title>
<path fill="none" stroke="#191970" d="M467.1905,-171.3095C475.3771,-163.1229 487.059,-151.441 496.7045,-141.7955"/>
<polygon fill="#191970" stroke="#191970" points="499.3016,-144.1482 503.8978,-134.6022 494.3518,-139.1984 499.3016,-144.1482"/>
</g>
<!-- Node14 -->
<g id="node14" class="node">
<title>Node14</title>
<polygon fill="none" stroke="#bfbfbf" points="421,-57.5 421,-77.5 479,-77.5 479,-57.5 421,-57.5"/>
<text text-anchor="middle" x="450" y="-64.5" font-family="FreeSans" font-size="10.00" fill="#000000">memory</text>
</g>
<!-- Node8&#45;&gt;Node14 -->
<g id="edge14" class="edge">
<title>Node8&#45;&gt;Node14</title>
<path fill="none" stroke="#191970" d="M456.3788,-171.3833C455.2298,-152.6703 452.7525,-112.3266 451.2457,-87.7866"/>
<polygon fill="#191970" stroke="#191970" points="454.7363,-87.5246 450.6299,-77.7579 447.7494,-87.9537 454.7363,-87.5246"/>
</g>
<!-- Node10 -->
<g id="node10" class="node">
<title>Node10</title>
<g id="a_node10"><a xlink:href="../../d1/dd1/AbsFinitePlane_8h.html" target="_top" xlink:title="AbsFinitePlane.h">
<polygon fill="none" stroke="#000000" points="497,-57.5 497,-77.5 597,-77.5 597,-57.5 497,-57.5"/>
<text text-anchor="middle" x="547" y="-64.5" font-family="FreeSans" font-size="10.00" fill="#000000">AbsFinitePlane.h</text>
</a>
</g>
</g>
<!-- Node9&#45;&gt;Node10 -->
<g id="edge9" class="edge">
<title>Node9&#45;&gt;Node10</title>
<path fill="none" stroke="#191970" d="M519.8997,-114.3095C524.3578,-106.6093 530.6062,-95.8166 535.9798,-86.5349"/>
<polygon fill="#191970" stroke="#191970" points="539.1699,-88.0102 541.1513,-77.6022 533.1119,-84.5029 539.1699,-88.0102"/>
</g>
<!-- Node9&#45;&gt;Node12 -->
<g id="edge11" class="edge">
<title>Node9&#45;&gt;Node12</title>
<path fill="none" stroke="#191970" d="M487.8813,-114.4408C463.9352,-105.2183 428.2663,-91.4809 401.6948,-81.2473"/>
<polygon fill="#191970" stroke="#191970" points="402.9452,-77.9784 392.3555,-77.6504 400.4294,-84.5106 402.9452,-77.9784"/>
</g>
<!-- Node9&#45;&gt;Node13 -->
<g id="edge12" class="edge">
<title>Node9&#45;&gt;Node13</title>
<path fill="none" stroke="#191970" d="M542.5894,-114.4408C569.1122,-105.1087 608.7736,-91.1537 637.9615,-80.8839"/>
<polygon fill="#191970" stroke="#191970" points="639.1529,-84.1751 647.4244,-77.5544 636.8295,-77.5719 639.1529,-84.1751"/>
</g>
<!-- Node9&#45;&gt;Node14 -->
<g id="edge13" class="edge">
<title>Node9&#45;&gt;Node14</title>
<path fill="none" stroke="#191970" d="M502.5581,-114.3095C493.2751,-106.0419 479.9894,-94.2093 469.0985,-84.5096"/>
<polygon fill="#191970" stroke="#191970" points="471.1384,-81.6395 461.3429,-77.6022 466.4827,-86.8668 471.1384,-81.6395"/>
</g>
<!-- Node11 -->
<g id="node11" class="node">
<title>Node11</title>
<polygon fill="none" stroke="#bfbfbf" points="517,-.5 517,-20.5 577,-20.5 577,-.5 517,-.5"/>
<text text-anchor="middle" x="547" y="-7.5" font-family="FreeSans" font-size="10.00" fill="#000000">Rtypes.h</text>
</g>
<!-- Node10&#45;&gt;Node11 -->
<g id="edge10" class="edge">
<title>Node10&#45;&gt;Node11</title>
<path fill="none" stroke="#191970" d="M547,-57.3095C547,-49.9335 547,-39.72 547,-30.715"/>
<polygon fill="#191970" stroke="#191970" points="550.5001,-30.6022 547,-20.6022 543.5001,-30.6023 550.5001,-30.6022"/>
</g>
<!-- Node15&#45;&gt;Node12 -->
<g id="edge18" class="edge">
<title>Node15&#45;&gt;Node12</title>
<path fill="none" stroke="#191970" d="M91.4479,-171.4832C145.3967,-151.0508 268.2132,-104.5356 329.6256,-81.2763"/>
<polygon fill="#191970" stroke="#191970" points="331.1767,-84.4316 339.2888,-77.6165 328.6973,-77.8854 331.1767,-84.4316"/>
</g>
<!-- Node16 -->
<g id="node16" class="node">
<title>Node16</title>
<g id="a_node16"><a xlink:href="../../d7/d83/EigenMatrixTypedefs_8h.html" target="_top" xlink:title="EigenMatrixTypedefs.h">
<polygon fill="none" stroke="#000000" points="0,-114.5 0,-134.5 130,-134.5 130,-114.5 0,-114.5"/>
<text text-anchor="middle" x="65" y="-121.5" font-family="FreeSans" font-size="10.00" fill="#000000">EigenMatrixTypedefs.h</text>
</a>
</g>
</g>
<!-- Node15&#45;&gt;Node16 -->
<g id="edge16" class="edge">
<title>Node15&#45;&gt;Node16</title>
<path fill="none" stroke="#191970" d="M65,-171.3095C65,-163.9335 65,-153.72 65,-144.715"/>
<polygon fill="#191970" stroke="#191970" points="68.5001,-144.6022 65,-134.6022 61.5001,-144.6023 68.5001,-144.6022"/>
</g>
<!-- Node17 -->
<g id="node17" class="node">
<title>Node17</title>
<polygon fill="none" stroke="#bfbfbf" points="25,-57.5 25,-77.5 105,-77.5 105,-57.5 25,-57.5"/>
<text text-anchor="middle" x="65" y="-64.5" font-family="FreeSans" font-size="10.00" fill="#000000">Eigen/Dense</text>
</g>
<!-- Node16&#45;&gt;Node17 -->
<g id="edge17" class="edge">
<title>Node16&#45;&gt;Node17</title>
<path fill="none" stroke="#191970" d="M65,-114.3095C65,-106.9335 65,-96.72 65,-87.715"/>
<polygon fill="#191970" stroke="#191970" points="68.5001,-87.6022 65,-77.6022 61.5001,-87.6023 68.5001,-87.6022"/>
</g>
<!-- Node21&#45;&gt;Node7 -->
<g id="edge26" class="edge">
<title>Node21&#45;&gt;Node7</title>
<path fill="none" stroke="#191970" d="M371.7644,-285.3095C355.9544,-276.4745 332.8593,-263.5684 314.9218,-253.5445"/>
<polygon fill="#191970" stroke="#191970" points="316.5145,-250.4252 306.0777,-248.6022 313.0997,-256.5358 316.5145,-250.4252"/>
</g>
<!-- Node21&#45;&gt;Node8 -->
<g id="edge25" class="edge">
<title>Node21&#45;&gt;Node8</title>
<path fill="none" stroke="#191970" d="M411.6942,-285.3516C425.7679,-277.529 443.0881,-265.2892 452,-249 459.8326,-234.6836 460.6385,-216.0357 459.7365,-201.9689"/>
<polygon fill="#191970" stroke="#191970" points="463.2029,-201.4529 458.7485,-191.84 456.2359,-202.1326 463.2029,-201.4529"/>
</g>
<!-- Node21&#45;&gt;Node12 -->
<g id="edge27" class="edge">
<title>Node21&#45;&gt;Node12</title>
<path fill="none" stroke="#191970" d="M387.6748,-285.211C385.6332,-275.8238 382.7272,-261.5447 381,-249 373.0146,-191.001 368.7334,-121.9475 366.9756,-88.1751"/>
<polygon fill="#191970" stroke="#191970" points="370.4508,-87.59 366.4571,-77.7768 363.4595,-87.9387 370.4508,-87.59"/>
</g>
<!-- Node21&#45;&gt;Node18 -->
<g id="edge28" class="edge">
<title>Node21&#45;&gt;Node18</title>
<path fill="none" stroke="#191970" d="M410.5885,-285.3833C451.7768,-265.1441 544.4582,-219.6025 592.2506,-196.1182"/>
<polygon fill="#191970" stroke="#191970" points="594.0262,-199.1455 601.4577,-191.5941 590.9391,-192.863 594.0262,-199.1455"/>
</g>
<!-- Node22 -->
<g id="node22" class="node">
<title>Node22</title>
<polygon fill="none" stroke="#bfbfbf" points="390.5,-228.5 390.5,-248.5 443.5,-248.5 443.5,-228.5 390.5,-228.5"/>
<text text-anchor="middle" x="417" y="-235.5" font-family="FreeSans" font-size="10.00" fill="#000000">cassert</text>
</g>
<!-- Node21&#45;&gt;Node22 -->
<g id="edge29" class="edge">
<title>Node21&#45;&gt;Node22</title>
<path fill="none" stroke="#191970" d="M394.8271,-285.3095C398.4362,-277.6903 403.4794,-267.0435 407.8444,-257.8285"/>
<polygon fill="#191970" stroke="#191970" points="411.0969,-259.1379 412.2147,-248.6022 404.7707,-256.1413 411.0969,-259.1379"/>
</g>
<!-- Node23&#45;&gt;Node24 -->
<g id="edge32" class="edge">
<title>Node23&#45;&gt;Node24</title>
<path fill="none" stroke="#191970" d="M576.3358,-285.3095C586.4422,-276.9608 600.949,-264.9769 612.7541,-255.2249"/>
<polygon fill="#191970" stroke="#191970" points="615.2904,-257.6695 620.771,-248.6022 610.8322,-252.2727 615.2904,-257.6695"/>
</g>
<!-- Node25 -->
<g id="node25" class="node">
<title>Node25</title>
<polygon fill="none" stroke="#bfbfbf" points="538,-228.5 538,-248.5 590,-248.5 590,-228.5 538,-228.5"/>
<text text-anchor="middle" x="564" y="-235.5" font-family="FreeSans" font-size="10.00" fill="#000000">math.h</text>
</g>
<!-- Node23&#45;&gt;Node25 -->
<g id="edge33" class="edge">
<title>Node23&#45;&gt;Node25</title>
<path fill="none" stroke="#191970" d="M564,-285.3095C564,-277.9335 564,-267.72 564,-258.715"/>
<polygon fill="#191970" stroke="#191970" points="567.5001,-258.6022 564,-248.6022 560.5001,-258.6023 567.5001,-258.6022"/>
</g>
</g>
</svg>
