<?xml version="1.0" encoding="UTF-8" standalone="no"?>
<!DOCTYPE svg PUBLIC "-//W3C//DTD SVG 1.1//EN"
 "http://www.w3.org/Graphics/SVG/1.1/DTD/svg11.dtd">
<!-- Generated by graphviz version 2.40.1 (20161225.0304)
 -->
<!-- Title: hcal::evLoop Pages: 1 -->
<svg width="182pt" height="107pt"
 viewBox="0.00 0.00 182.00 107.00" xmlns="http://www.w3.org/2000/svg" xmlns:xlink="http://www.w3.org/1999/xlink">
<g id="graph0" class="graph" transform="scale(1 1) rotate(0) translate(4 103)">
<title>hcal::evLoop</title>
<!-- Node1 -->
<g id="node1" class="node">
<title>Node1</title>
<polygon fill="#bfbfbf" stroke="#000000" points="0,-39.5 0,-59.5 80,-59.5 80,-39.5 0,-39.5"/>
<text text-anchor="middle" x="40" y="-46.5" font-family="FreeSans" font-size="10.00" fill="#000000">hcal::evLoop</text>
</g>
<!-- Node2 -->
<g id="node2" class="node">
<title>Node2</title>
<g id="a_node2"><a xlink:href="../../da/d55/TPCRateLayered_8m.html#ac40e4ec8f2a74a2878f06670249eebb8" target="_top" xlink:title="double">
<polygon fill="none" stroke="#000000" points="119.5,-78.5 119.5,-98.5 170.5,-98.5 170.5,-78.5 119.5,-78.5"/>
<text text-anchor="middle" x="145" y="-85.5" font-family="FreeSans" font-size="10.00" fill="#000000">double</text>
</a>
</g>
</g>
<!-- Node1&#45;&gt;Node2 -->
<g id="edge1" class="edge">
<title>Node1&#45;&gt;Node2</title>
<path fill="none" stroke="#191970" d="M67.0401,-59.5435C80.0463,-64.3743 95.8031,-70.2269 109.7376,-75.4025"/>
<polygon fill="#191970" stroke="#191970" points="108.9036,-78.8264 119.4966,-79.0273 111.341,-72.2644 108.9036,-78.8264"/>
</g>
<!-- Node3 -->
<g id="node3" class="node">
<title>Node3</title>
<g id="a_node3"><a xlink:href="../../d9/d03/KFParticleBaseSIMD_8h.html#a4c97ec619a52c5cf9d89748433ee16aa" target="_top" xlink:title="Initialize">
<polygon fill="none" stroke="#000000" points="116,-39.5 116,-59.5 174,-59.5 174,-39.5 116,-39.5"/>
<text text-anchor="middle" x="145" y="-46.5" font-family="FreeSans" font-size="10.00" fill="#000000">Initialize</text>
</a>
</g>
</g>
<!-- Node1&#45;&gt;Node3 -->
<g id="edge2" class="edge">
<title>Node1&#45;&gt;Node3</title>
<path fill="none" stroke="#191970" d="M80.2954,-49.5C88.5909,-49.5 97.3167,-49.5 105.5807,-49.5"/>
<polygon fill="#191970" stroke="#191970" points="105.7342,-53.0001 115.7342,-49.5 105.7342,-46.0001 105.7342,-53.0001"/>
</g>
<!-- Node4 -->
<g id="node4" class="node">
<title>Node4</title>
<g id="a_node4"><a xlink:href="../../d9/d9e/evDisplay_8C.html#ac7bcb6cd8ca3e800a39f7f0063d61044" target="_top" xlink:title="nevents">
<polygon fill="none" stroke="#000000" points="116.5,-.5 116.5,-20.5 173.5,-20.5 173.5,-.5 116.5,-.5"/>
<text text-anchor="middle" x="145" y="-7.5" font-family="FreeSans" font-size="10.00" fill="#000000">nevents</text>
</a>
</g>
</g>
<!-- Node1&#45;&gt;Node4 -->
<g id="edge3" class="edge">
<title>Node1&#45;&gt;Node4</title>
<path fill="none" stroke="#191970" d="M67.0401,-39.4565C79.6551,-34.771 94.8578,-29.1242 108.4755,-24.0662"/>
<polygon fill="#191970" stroke="#191970" points="109.8959,-27.2724 118.0515,-20.5094 107.4586,-20.7104 109.8959,-27.2724"/>
</g>
</g>
</svg>
