<?xml version="1.0" encoding="UTF-8" standalone="no"?>
<!DOCTYPE svg PUBLIC "-//W3C//DTD SVG 1.1//EN"
 "http://www.w3.org/Graphics/SVG/1.1/DTD/svg11.dtd">
<!-- Generated by graphviz version 2.40.1 (20161225.0304)
 -->
<!-- Title: genfit::GFRaveVertex::Print Pages: 1 -->
<svg width="880pt" height="685pt"
 viewBox="0.00 0.00 880.00 685.00" xmlns="http://www.w3.org/2000/svg" xmlns:xlink="http://www.w3.org/1999/xlink">
<g id="graph0" class="graph" transform="scale(1 1) rotate(0) translate(4 681)">
<title>genfit::GFRaveVertex::Print</title>
<!-- Node1 -->
<g id="node1" class="node">
<title>Node1</title>
<polygon fill="#bfbfbf" stroke="#000000" points="0,-465.5 0,-497.5 124,-497.5 124,-465.5 0,-465.5"/>
<text text-anchor="start" x="8" y="-484.5" font-family="FreeSans" font-size="10.00" fill="#000000">genfit::GFRaveVertex</text>
<text text-anchor="middle" x="62" y="-472.5" font-family="FreeSans" font-size="10.00" fill="#000000">::Print</text>
</g>
<!-- Node2 -->
<g id="node2" class="node">
<title>Node2</title>
<g id="a_node2"><a xlink:href="../../db/da0/classgenfit_1_1GFRaveVertex.html#aa226bc70ee2447569467de599e6d05e7" target="_top" xlink:title="genfit::GFRaveVertex\l::getChi2">
<polygon fill="none" stroke="#000000" points="185.5,-644.5 185.5,-676.5 309.5,-676.5 309.5,-644.5 185.5,-644.5"/>
<text text-anchor="start" x="193.5" y="-663.5" font-family="FreeSans" font-size="10.00" fill="#000000">genfit::GFRaveVertex</text>
<text text-anchor="middle" x="247.5" y="-651.5" font-family="FreeSans" font-size="10.00" fill="#000000">::getChi2</text>
</a>
</g>
</g>
<!-- Node1&#45;&gt;Node2 -->
<g id="edge1" class="edge">
<title>Node1&#45;&gt;Node2</title>
<path fill="none" stroke="#191970" d="M67.7906,-497.7524C79.8558,-529.2486 110.7309,-598.7263 160,-635.5 164.7855,-639.0718 170.0652,-642.1339 175.589,-644.7588"/>
<polygon fill="#191970" stroke="#191970" points="174.4983,-648.0979 185.0714,-648.7767 177.2293,-641.6526 174.4983,-648.0979"/>
</g>
<!-- Node3 -->
<g id="node3" class="node">
<title>Node3</title>
<g id="a_node3"><a xlink:href="../../db/da0/classgenfit_1_1GFRaveVertex.html#a25d5cd4f3c081231c4d77f80fefbade1" target="_top" xlink:title="get 3x3 covariance (error) of position.">
<polygon fill="none" stroke="#000000" points="185.5,-593.5 185.5,-625.5 309.5,-625.5 309.5,-593.5 185.5,-593.5"/>
<text text-anchor="start" x="193.5" y="-612.5" font-family="FreeSans" font-size="10.00" fill="#000000">genfit::GFRaveVertex</text>
<text text-anchor="middle" x="247.5" y="-600.5" font-family="FreeSans" font-size="10.00" fill="#000000">::getCov</text>
</a>
</g>
</g>
<!-- Node1&#45;&gt;Node3 -->
<g id="edge2" class="edge">
<title>Node1&#45;&gt;Node3</title>
<path fill="none" stroke="#191970" d="M73.0059,-497.6403C89.3495,-520.3802 122.2023,-561.6223 160,-584.5 164.9354,-587.4872 170.2431,-590.1309 175.7165,-592.4683"/>
<polygon fill="#191970" stroke="#191970" points="174.4599,-595.735 185.0478,-596.1193 177.0105,-589.2162 174.4599,-595.735"/>
</g>
<!-- Node4 -->
<g id="node4" class="node">
<title>Node4</title>
<g id="a_node4"><a xlink:href="../../db/da0/classgenfit_1_1GFRaveVertex.html#a6bd2509053f9d4a654c3a53ace075937" target="_top" xlink:title="genfit::GFRaveVertex\l::getId">
<polygon fill="none" stroke="#000000" points="185.5,-542.5 185.5,-574.5 309.5,-574.5 309.5,-542.5 185.5,-542.5"/>
<text text-anchor="start" x="193.5" y="-561.5" font-family="FreeSans" font-size="10.00" fill="#000000">genfit::GFRaveVertex</text>
<text text-anchor="middle" x="247.5" y="-549.5" font-family="FreeSans" font-size="10.00" fill="#000000">::getId</text>
</a>
</g>
</g>
<!-- Node1&#45;&gt;Node4 -->
<g id="edge3" class="edge">
<title>Node1&#45;&gt;Node4</title>
<path fill="none" stroke="#191970" d="M88.7239,-497.6464C108.0251,-508.8145 134.9894,-523.4214 160,-533.5 165.0372,-535.5299 170.2994,-537.4654 175.6352,-539.2953"/>
<polygon fill="#191970" stroke="#191970" points="174.6935,-542.67 185.2865,-542.4725 176.8824,-536.021 174.6935,-542.67"/>
</g>
<!-- Node5 -->
<g id="node5" class="node">
<title>Node5</title>
<g id="a_node5"><a xlink:href="../../db/da0/classgenfit_1_1GFRaveVertex.html#a49fda0bfc9f1bd338c21ca973e8552b9" target="_top" xlink:title="genfit::GFRaveVertex\l::getNdf">
<polygon fill="none" stroke="#000000" points="185.5,-491.5 185.5,-523.5 309.5,-523.5 309.5,-491.5 185.5,-491.5"/>
<text text-anchor="start" x="193.5" y="-510.5" font-family="FreeSans" font-size="10.00" fill="#000000">genfit::GFRaveVertex</text>
<text text-anchor="middle" x="247.5" y="-498.5" font-family="FreeSans" font-size="10.00" fill="#000000">::getNdf</text>
</a>
</g>
</g>
<!-- Node1&#45;&gt;Node5 -->
<g id="edge4" class="edge">
<title>Node1&#45;&gt;Node5</title>
<path fill="none" stroke="#191970" d="M124.0267,-490.1938C140.3372,-492.4799 158.0767,-494.9663 174.8887,-497.3227"/>
<polygon fill="#191970" stroke="#191970" points="174.8266,-500.8481 185.2157,-498.7701 175.7983,-493.9159 174.8266,-500.8481"/>
</g>
<!-- Node6 -->
<g id="node6" class="node">
<title>Node6</title>
<g id="a_node6"><a xlink:href="../../db/da0/classgenfit_1_1GFRaveVertex.html#a47ada7742989e3e294a3cc9f1342fee7" target="_top" xlink:title="Number of tracks the vertex is made of.">
<polygon fill="none" stroke="#000000" points="185.5,-440.5 185.5,-472.5 309.5,-472.5 309.5,-440.5 185.5,-440.5"/>
<text text-anchor="start" x="193.5" y="-459.5" font-family="FreeSans" font-size="10.00" fill="#000000">genfit::GFRaveVertex</text>
<text text-anchor="middle" x="247.5" y="-447.5" font-family="FreeSans" font-size="10.00" fill="#000000">::getNTracks</text>
</a>
</g>
</g>
<!-- Node1&#45;&gt;Node6 -->
<g id="edge5" class="edge">
<title>Node1&#45;&gt;Node6</title>
<path fill="none" stroke="#191970" d="M124.0267,-473.1406C140.3372,-470.9424 158.0767,-468.5517 174.8887,-466.2859"/>
<polygon fill="#191970" stroke="#191970" points="175.7727,-469.6985 185.2157,-464.8941 174.8377,-462.7612 175.7727,-469.6985"/>
</g>
<!-- Node7 -->
<g id="node7" class="node">
<title>Node7</title>
<g id="a_node7"><a xlink:href="../../db/da0/classgenfit_1_1GFRaveVertex.html#a14875bcfb7c0b9373ec2bb6010c78d8d" target="_top" xlink:title="genfit::GFRaveVertex\l::getParameters">
<polygon fill="none" stroke="#000000" points="185.5,-389.5 185.5,-421.5 309.5,-421.5 309.5,-389.5 185.5,-389.5"/>
<text text-anchor="start" x="193.5" y="-408.5" font-family="FreeSans" font-size="10.00" fill="#000000">genfit::GFRaveVertex</text>
<text text-anchor="middle" x="247.5" y="-396.5" font-family="FreeSans" font-size="10.00" fill="#000000">::getParameters</text>
</a>
</g>
</g>
<!-- Node1&#45;&gt;Node7 -->
<g id="edge6" class="edge">
<title>Node1&#45;&gt;Node7</title>
<path fill="none" stroke="#191970" d="M90.0897,-465.429C109.3441,-454.8501 135.7021,-441.2135 160,-431.5 165.8907,-429.1451 172.0786,-426.8909 178.3269,-424.7636"/>
<polygon fill="#191970" stroke="#191970" points="179.7555,-427.9782 188.1611,-421.5287 177.5681,-421.3287 179.7555,-427.9782"/>
</g>
<!-- Node8 -->
<g id="node8" class="node">
<title>Node8</title>
<g id="a_node8"><a xlink:href="../../db/da0/classgenfit_1_1GFRaveVertex.html#a4818bdeb821d19b283ae026af388e92b" target="_top" xlink:title="get Position">
<polygon fill="none" stroke="#000000" points="185.5,-338.5 185.5,-370.5 309.5,-370.5 309.5,-338.5 185.5,-338.5"/>
<text text-anchor="start" x="193.5" y="-357.5" font-family="FreeSans" font-size="10.00" fill="#000000">genfit::GFRaveVertex</text>
<text text-anchor="middle" x="247.5" y="-345.5" font-family="FreeSans" font-size="10.00" fill="#000000">::getPos</text>
</a>
</g>
</g>
<!-- Node1&#45;&gt;Node8 -->
<g id="edge7" class="edge">
<title>Node1&#45;&gt;Node8</title>
<path fill="none" stroke="#191970" d="M73.3899,-465.3603C89.9541,-443.0604 122.8031,-403.0329 160,-380.5 164.9495,-377.5017 170.2672,-374.8298 175.7475,-372.4522"/>
<polygon fill="#191970" stroke="#191970" points="177.0984,-375.6815 185.0876,-368.7229 174.5026,-369.1806 177.0984,-375.6815"/>
</g>
<!-- Node9 -->
<g id="node9" class="node">
<title>Node9</title>
<g id="a_node9"><a xlink:href="../../d8/d8c/classgenfit_1_1GFRaveTrackParameters.html#a37b06c391f8cbd3f6569449d49ab2386" target="_top" xlink:title="genfit::GFRaveTrackParameters\l::Print">
<polygon fill="none" stroke="#000000" points="160,-287.5 160,-319.5 335,-319.5 335,-287.5 160,-287.5"/>
<text text-anchor="start" x="168" y="-306.5" font-family="FreeSans" font-size="10.00" fill="#000000">genfit::GFRaveTrackParameters</text>
<text text-anchor="middle" x="247.5" y="-294.5" font-family="FreeSans" font-size="10.00" fill="#000000">::Print</text>
</a>
</g>
</g>
<!-- Node1&#45;&gt;Node9 -->
<g id="edge8" class="edge">
<title>Node1&#45;&gt;Node9</title>
<path fill="none" stroke="#191970" d="M68.076,-465.0203C80.4383,-433.788 111.5205,-365.8582 160,-329.5 162.4564,-327.6578 165.0422,-325.9455 167.7237,-324.354"/>
<polygon fill="#191970" stroke="#191970" points="169.3706,-327.4424 176.572,-319.6712 166.0963,-321.2554 169.3706,-327.4424"/>
</g>
<!-- Node10 -->
<g id="node10" class="node">
<title>Node10</title>
<g id="a_node10"><a xlink:href="../../d8/d8c/classgenfit_1_1GFRaveTrackParameters.html#a9d10971760a3956777dd04e0b6d89ac5" target="_top" xlink:title="genfit::GFRaveTrackParameters\l::getCov">
<polygon fill="none" stroke="#000000" points="371,-415.5 371,-447.5 546,-447.5 546,-415.5 371,-415.5"/>
<text text-anchor="start" x="379" y="-434.5" font-family="FreeSans" font-size="10.00" fill="#000000">genfit::GFRaveTrackParameters</text>
<text text-anchor="middle" x="458.5" y="-422.5" font-family="FreeSans" font-size="10.00" fill="#000000">::getCov</text>
</a>
</g>
</g>
<!-- Node9&#45;&gt;Node10 -->
<g id="edge9" class="edge">
<title>Node9&#45;&gt;Node10</title>
<path fill="none" stroke="#191970" d="M320.2919,-319.6252C325.5717,-322.4089 330.5577,-325.6728 335,-329.5 363.621,-354.1576 342.2495,-381.9934 371,-406.5 372.3639,-407.6626 373.7788,-408.7712 375.2374,-409.8284"/>
<polygon fill="#191970" stroke="#191970" points="373.6884,-412.9884 384.0194,-415.3382 377.4086,-407.0588 373.6884,-412.9884"/>
</g>
<!-- Node11 -->
<g id="node11" class="node">
<title>Node11</title>
<g id="a_node11"><a xlink:href="../../d8/d8c/classgenfit_1_1GFRaveTrackParameters.html#af6f27d2fd3a8f4fb02f9b073fe52363d" target="_top" xlink:title="genfit::GFRaveTrackParameters\l::getState">
<polygon fill="none" stroke="#000000" points="371,-364.5 371,-396.5 546,-396.5 546,-364.5 371,-364.5"/>
<text text-anchor="start" x="379" y="-383.5" font-family="FreeSans" font-size="10.00" fill="#000000">genfit::GFRaveTrackParameters</text>
<text text-anchor="middle" x="458.5" y="-371.5" font-family="FreeSans" font-size="10.00" fill="#000000">::getState</text>
</a>
</g>
</g>
<!-- Node9&#45;&gt;Node11 -->
<g id="edge10" class="edge">
<title>Node9&#45;&gt;Node11</title>
<path fill="none" stroke="#191970" d="M311.0846,-319.6246C319.297,-322.5059 327.4634,-325.7926 335,-329.5 352.7098,-338.2117 353.2446,-346.8817 371,-355.5 374.8375,-357.3627 378.8389,-359.1106 382.9268,-360.7471"/>
<polygon fill="#191970" stroke="#191970" points="381.9938,-364.1351 392.5862,-364.3654 384.4494,-357.5799 381.9938,-364.1351"/>
</g>
<!-- Node12 -->
<g id="node12" class="node">
<title>Node12</title>
<g id="a_node12"><a xlink:href="../../d8/d8c/classgenfit_1_1GFRaveTrackParameters.html#ae57b8111cfcb4426a9d00096ad045de4" target="_top" xlink:title="genfit::GFRaveTrackParameters\l::getTrack">
<polygon fill="none" stroke="#000000" points="371,-313.5 371,-345.5 546,-345.5 546,-313.5 371,-313.5"/>
<text text-anchor="start" x="379" y="-332.5" font-family="FreeSans" font-size="10.00" fill="#000000">genfit::GFRaveTrackParameters</text>
<text text-anchor="middle" x="458.5" y="-320.5" font-family="FreeSans" font-size="10.00" fill="#000000">::getTrack</text>
</a>
</g>
</g>
<!-- Node9&#45;&gt;Node12 -->
<g id="edge11" class="edge">
<title>Node9&#45;&gt;Node12</title>
<path fill="none" stroke="#191970" d="M335.1499,-314.3005C343.6136,-315.3434 352.2352,-316.4058 360.7881,-317.4597"/>
<polygon fill="#191970" stroke="#191970" points="360.4303,-320.942 370.7833,-318.6913 361.2865,-313.9945 360.4303,-320.942"/>
</g>
<!-- Node13 -->
<g id="node13" class="node">
<title>Node13</title>
<g id="a_node13"><a xlink:href="../../d8/d8c/classgenfit_1_1GFRaveTrackParameters.html#ad0f0bc629e7836a06363cb4b7fc09429" target="_top" xlink:title="genfit::GFRaveTrackParameters\l::getWeight">
<polygon fill="none" stroke="#000000" points="371,-262.5 371,-294.5 546,-294.5 546,-262.5 371,-262.5"/>
<text text-anchor="start" x="379" y="-281.5" font-family="FreeSans" font-size="10.00" fill="#000000">genfit::GFRaveTrackParameters</text>
<text text-anchor="middle" x="458.5" y="-269.5" font-family="FreeSans" font-size="10.00" fill="#000000">::getWeight</text>
</a>
</g>
</g>
<!-- Node9&#45;&gt;Node13 -->
<g id="edge12" class="edge">
<title>Node9&#45;&gt;Node13</title>
<path fill="none" stroke="#191970" d="M335.1499,-293.1149C343.6136,-292.1121 352.2352,-291.0906 360.7881,-290.0772"/>
<polygon fill="#191970" stroke="#191970" points="361.2646,-293.5454 370.7833,-288.893 360.4409,-286.594 361.2646,-293.5454"/>
</g>
<!-- Node14 -->
<g id="node14" class="node">
<title>Node14</title>
<g id="a_node14"><a xlink:href="../../d8/d8c/classgenfit_1_1GFRaveTrackParameters.html#a8c058fe621822ac5da537d44c9a94cde" target="_top" xlink:title="genfit::GFRaveTrackParameters\l::hasTrack">
<polygon fill="none" stroke="#000000" points="371,-211.5 371,-243.5 546,-243.5 546,-211.5 371,-211.5"/>
<text text-anchor="start" x="379" y="-230.5" font-family="FreeSans" font-size="10.00" fill="#000000">genfit::GFRaveTrackParameters</text>
<text text-anchor="middle" x="458.5" y="-218.5" font-family="FreeSans" font-size="10.00" fill="#000000">::hasTrack</text>
</a>
</g>
</g>
<!-- Node9&#45;&gt;Node14 -->
<g id="edge13" class="edge">
<title>Node9&#45;&gt;Node14</title>
<path fill="none" stroke="#191970" d="M284.4361,-287.4644C308.794,-277.1588 341.5265,-263.8186 371,-253.5 377.684,-251.1599 384.7008,-248.8446 391.7304,-246.6166"/>
<polygon fill="#191970" stroke="#191970" points="392.787,-249.9535 401.2942,-243.6386 390.7058,-243.27 392.787,-249.9535"/>
</g>
<!-- Node15 -->
<g id="node15" class="node">
<title>Node15</title>
<g id="a_node15"><a xlink:href="../../d6/d8a/classgenfit_1_1Track.html#aad0fa4a5a87ef0b19fd15bc86255968e" target="_top" xlink:title="genfit::Track::Print">
<polygon fill="none" stroke="#000000" points="404,-172.5 404,-192.5 513,-192.5 513,-172.5 404,-172.5"/>
<text text-anchor="middle" x="458.5" y="-179.5" font-family="FreeSans" font-size="10.00" fill="#000000">genfit::Track::Print</text>
</a>
</g>
</g>
<!-- Node9&#45;&gt;Node15 -->
<g id="edge14" class="edge">
<title>Node9&#45;&gt;Node15</title>
<path fill="none" stroke="#191970" d="M262.2111,-287.4994C283.8307,-264.9896 326.4671,-224.2932 371,-202.5 378.264,-198.9452 386.1789,-196.0097 394.1823,-193.5886"/>
<polygon fill="#191970" stroke="#191970" points="395.2476,-196.9254 403.9507,-190.8833 393.3793,-190.1793 395.2476,-196.9254"/>
</g>
<!-- Node16 -->
<g id="node16" class="node">
<title>Node16</title>
<g id="a_node16"><a xlink:href="../../d6/d8a/classgenfit_1_1Track.html#aae3d3066dbd7ab39d87b56e17db5adf9" target="_top" xlink:title="This is used when streaming TrackPoints.">
<polygon fill="none" stroke="#000000" points="582,-345.5 582,-365.5 728,-365.5 728,-345.5 582,-345.5"/>
<text text-anchor="middle" x="655" y="-352.5" font-family="FreeSans" font-size="10.00" fill="#000000">genfit::Track::getIdForRep</text>
</a>
</g>
</g>
<!-- Node15&#45;&gt;Node16 -->
<g id="edge15" class="edge">
<title>Node15&#45;&gt;Node16</title>
<path fill="none" stroke="#191970" d="M513.4278,-185.7158C525.4053,-188.7877 537.1325,-193.9611 546,-202.5 590.4206,-245.2747 538.2241,-293.0657 582,-336.5 583.2463,-337.7366 584.5623,-338.8957 585.9372,-339.9822"/>
<polygon fill="#191970" stroke="#191970" points="584.0838,-342.9517 594.3817,-345.4427 587.8848,-337.0736 584.0838,-342.9517"/>
</g>
<!-- Node18 -->
<g id="node18" class="node">
<title>Node18</title>
<g id="a_node18"><a xlink:href="../../d9/d8c/classgenfit_1_1AbsFitterInfo.html#afad89f45093082193a4ba3ae36f7982c" target="_top" xlink:title="genfit::AbsFitterInfo\l::hasBackwardPrediction">
<polygon fill="none" stroke="#000000" points="585,-294.5 585,-326.5 725,-326.5 725,-294.5 585,-294.5"/>
<text text-anchor="start" x="593" y="-313.5" font-family="FreeSans" font-size="10.00" fill="#000000">genfit::AbsFitterInfo</text>
<text text-anchor="middle" x="655" y="-301.5" font-family="FreeSans" font-size="10.00" fill="#000000">::hasBackwardPrediction</text>
</a>
</g>
</g>
<!-- Node15&#45;&gt;Node18 -->
<g id="edge17" class="edge">
<title>Node15&#45;&gt;Node18</title>
<path fill="none" stroke="#191970" d="M513.0201,-186.7975C524.8748,-189.8435 536.6501,-194.7339 546,-202.5 576.931,-228.1917 552.463,-258.2171 582,-285.5 583.1378,-286.551 584.3218,-287.558 585.5454,-288.523"/>
<polygon fill="#191970" stroke="#191970" points="583.8775,-291.6193 594.1277,-294.2995 587.7861,-285.8122 583.8775,-291.6193"/>
</g>
<!-- Node19 -->
<g id="node19" class="node">
<title>Node19</title>
<g id="a_node19"><a xlink:href="../../d9/d8c/classgenfit_1_1AbsFitterInfo.html#a5ec5658262ea4a73da66aff3ede70489" target="_top" xlink:title="genfit::AbsFitterInfo\l::hasBackwardUpdate">
<polygon fill="none" stroke="#000000" points="591.5,-243.5 591.5,-275.5 718.5,-275.5 718.5,-243.5 591.5,-243.5"/>
<text text-anchor="start" x="599.5" y="-262.5" font-family="FreeSans" font-size="10.00" fill="#000000">genfit::AbsFitterInfo</text>
<text text-anchor="middle" x="655" y="-250.5" font-family="FreeSans" font-size="10.00" fill="#000000">::hasBackwardUpdate</text>
</a>
</g>
</g>
<!-- Node15&#45;&gt;Node19 -->
<g id="edge18" class="edge">
<title>Node15&#45;&gt;Node19</title>
<path fill="none" stroke="#191970" d="M513.2102,-190.5628C524.4272,-193.4261 535.8875,-197.2907 546,-202.5 565.0307,-212.3033 563.5112,-223.7094 582,-234.5 584.8346,-236.1544 587.7953,-237.7211 590.8319,-239.2017"/>
<polygon fill="#191970" stroke="#191970" points="589.5646,-242.4695 600.1196,-243.3871 592.4406,-236.0876 589.5646,-242.4695"/>
</g>
<!-- Node20 -->
<g id="node20" class="node">
<title>Node20</title>
<g id="a_node20"><a xlink:href="../../d9/d8c/classgenfit_1_1AbsFitterInfo.html#a5df8e04571941a2a2b49ee6ff76225f8" target="_top" xlink:title="genfit::AbsFitterInfo\l::hasForwardPrediction">
<polygon fill="none" stroke="#000000" points="589.5,-192.5 589.5,-224.5 720.5,-224.5 720.5,-192.5 589.5,-192.5"/>
<text text-anchor="start" x="597.5" y="-211.5" font-family="FreeSans" font-size="10.00" fill="#000000">genfit::AbsFitterInfo</text>
<text text-anchor="middle" x="655" y="-199.5" font-family="FreeSans" font-size="10.00" fill="#000000">::hasForwardPrediction</text>
</a>
</g>
</g>
<!-- Node15&#45;&gt;Node20 -->
<g id="edge19" class="edge">
<title>Node15&#45;&gt;Node20</title>
<path fill="none" stroke="#191970" d="M513.2362,-189.7424C533.7196,-192.4527 557.3652,-195.5814 579.4026,-198.4973"/>
<polygon fill="#191970" stroke="#191970" points="579.0249,-201.9777 589.3976,-199.8198 579.9432,-195.0382 579.0249,-201.9777"/>
</g>
<!-- Node21 -->
<g id="node21" class="node">
<title>Node21</title>
<g id="a_node21"><a xlink:href="../../d9/d8c/classgenfit_1_1AbsFitterInfo.html#a0304623a2c5d943e18f1aee0be5cc436" target="_top" xlink:title="genfit::AbsFitterInfo\l::hasForwardUpdate">
<polygon fill="none" stroke="#000000" points="596,-141.5 596,-173.5 714,-173.5 714,-141.5 596,-141.5"/>
<text text-anchor="start" x="604" y="-160.5" font-family="FreeSans" font-size="10.00" fill="#000000">genfit::AbsFitterInfo</text>
<text text-anchor="middle" x="655" y="-148.5" font-family="FreeSans" font-size="10.00" fill="#000000">::hasForwardUpdate</text>
</a>
</g>
</g>
<!-- Node15&#45;&gt;Node21 -->
<g id="edge20" class="edge">
<title>Node15&#45;&gt;Node21</title>
<path fill="none" stroke="#191970" d="M513.2362,-175.5361C535.6927,-172.679 561.9499,-169.3384 585.722,-166.314"/>
<polygon fill="#191970" stroke="#191970" points="586.2613,-169.7737 595.7395,-165.0395 585.3777,-162.8297 586.2613,-169.7737"/>
</g>
<!-- Node22 -->
<g id="node22" class="node">
<title>Node22</title>
<g id="a_node22"><a xlink:href="../../d9/d8c/classgenfit_1_1AbsFitterInfo.html#afda68fa893095a0a5eae93e5caa157a7" target="_top" xlink:title="genfit::AbsFitterInfo\l::hasMeasurements">
<polygon fill="none" stroke="#000000" points="597,-90.5 597,-122.5 713,-122.5 713,-90.5 597,-90.5"/>
<text text-anchor="start" x="605" y="-109.5" font-family="FreeSans" font-size="10.00" fill="#000000">genfit::AbsFitterInfo</text>
<text text-anchor="middle" x="655" y="-97.5" font-family="FreeSans" font-size="10.00" fill="#000000">::hasMeasurements</text>
</a>
</g>
</g>
<!-- Node15&#45;&gt;Node22 -->
<g id="edge21" class="edge">
<title>Node15&#45;&gt;Node22</title>
<path fill="none" stroke="#191970" d="M482.5184,-172.423C507.3178,-162.1016 547.1907,-145.7385 582,-132.5 587.5584,-130.386 593.3738,-128.2269 599.1916,-126.1013"/>
<polygon fill="#191970" stroke="#191970" points="600.7303,-129.2666 608.94,-122.5695 598.3458,-122.6852 600.7303,-129.2666"/>
</g>
<!-- Node23 -->
<g id="node23" class="node">
<title>Node23</title>
<g id="a_node23"><a xlink:href="../../d9/d8c/classgenfit_1_1AbsFitterInfo.html#a859195c5b44f392d7b0d01b145ed2350" target="_top" xlink:title="genfit::AbsFitterInfo\l::hasReferenceState">
<polygon fill="none" stroke="#000000" points="596,-39.5 596,-71.5 714,-71.5 714,-39.5 596,-39.5"/>
<text text-anchor="start" x="604" y="-58.5" font-family="FreeSans" font-size="10.00" fill="#000000">genfit::AbsFitterInfo</text>
<text text-anchor="middle" x="655" y="-46.5" font-family="FreeSans" font-size="10.00" fill="#000000">::hasReferenceState</text>
</a>
</g>
</g>
<!-- Node15&#45;&gt;Node23 -->
<g id="edge22" class="edge">
<title>Node15&#45;&gt;Node23</title>
<path fill="none" stroke="#191970" d="M468.4885,-172.2446C488.4099,-152.2953 535.2046,-107.9114 582,-81.5 585.6906,-79.417 589.5782,-77.453 593.5585,-75.6102"/>
<polygon fill="#191970" stroke="#191970" points="595.1827,-78.7208 602.9649,-71.5314 592.3979,-72.2986 595.1827,-78.7208"/>
</g>
<!-- Node24 -->
<g id="node24" class="node">
<title>Node24</title>
<g id="a_node24"><a xlink:href="../../da/d23/msg__buffer_8cc.html#a98631211a4a8aee62f572375d5b637be" target="_top" xlink:title="printf">
<polygon fill="none" stroke="#000000" points="633,-.5 633,-20.5 677,-20.5 677,-.5 633,-.5"/>
<text text-anchor="middle" x="655" y="-7.5" font-family="FreeSans" font-size="10.00" fill="#000000">printf</text>
</a>
</g>
</g>
<!-- Node15&#45;&gt;Node24 -->
<g id="edge23" class="edge">
<title>Node15&#45;&gt;Node24</title>
<path fill="none" stroke="#191970" d="M463.8624,-172.1516C478.6853,-144.6005 523.0484,-68.9504 582,-30.5 594.1914,-22.5484 609.4992,-17.7335 622.9443,-14.8297"/>
<polygon fill="#191970" stroke="#191970" points="623.6092,-18.266 632.7803,-12.9612 622.3028,-11.389 623.6092,-18.266"/>
</g>
<!-- Node17 -->
<g id="node17" class="node">
<title>Node17</title>
<g id="a_node17"><a xlink:href="../../d8/db3/classgenfit_1_1Exception.html#a13619975a1e1be5c1bd504b254e01f7a" target="_top" xlink:title="Set fatal flag.">
<polygon fill="none" stroke="#000000" points="764,-339.5 764,-371.5 872,-371.5 872,-339.5 764,-339.5"/>
<text text-anchor="start" x="772" y="-358.5" font-family="FreeSans" font-size="10.00" fill="#000000">genfit::Exception::</text>
<text text-anchor="middle" x="818" y="-346.5" font-family="FreeSans" font-size="10.00" fill="#000000">setFatal</text>
</a>
</g>
</g>
<!-- Node16&#45;&gt;Node17 -->
<g id="edge16" class="edge">
<title>Node16&#45;&gt;Node17</title>
<path fill="none" stroke="#191970" d="M728.3938,-355.5C736.7118,-355.5 745.1436,-355.5 753.338,-355.5"/>
<polygon fill="#191970" stroke="#191970" points="753.5641,-359.0001 763.564,-355.5 753.564,-352.0001 753.5641,-359.0001"/>
</g>
</g>
</svg>
