<?xml version="1.0" encoding="UTF-8" standalone="no"?>
<!DOCTYPE svg PUBLIC "-//W3C//DTD SVG 1.1//EN"
 "http://www.w3.org/Graphics/SVG/1.1/DTD/svg11.dtd">
<!-- Generated by graphviz version 2.40.1 (20161225.0304)
 -->
<!-- Title: GPUTPCBaseTrackParam::GetDzDs Pages: 1 -->
<svg width="573pt" height="68pt"
 viewBox="0.00 0.00 573.00 68.00" xmlns="http://www.w3.org/2000/svg" xmlns:xlink="http://www.w3.org/1999/xlink">
<g id="graph0" class="graph" transform="scale(1 1) rotate(0) translate(4 64)">
<title>GPUTPCBaseTrackParam::GetDzDs</title>
<!-- Node1 -->
<g id="node1" class="node">
<title>Node1</title>
<polygon fill="#bfbfbf" stroke="#000000" points="0,-13.5 0,-45.5 140,-45.5 140,-13.5 0,-13.5"/>
<text text-anchor="start" x="8" y="-32.5" font-family="FreeSans" font-size="10.00" fill="#000000">GPUTPCBaseTrackParam</text>
<text text-anchor="middle" x="70" y="-20.5" font-family="FreeSans" font-size="10.00" fill="#000000">::GetDzDs</text>
</g>
<!-- Node2 -->
<g id="node2" class="node">
<title>Node2</title>
<g id="a_node2"><a xlink:href="../../d4/d60/classGPUTPCTrackParam.html#a1a911aec2f7c1268ef45295338b4c1a5" target="_top" xlink:title="GPUTPCTrackParam::GetDzDs">
<polygon fill="none" stroke="#000000" points="176,-19.5 176,-39.5 342,-39.5 342,-19.5 176,-19.5"/>
<text text-anchor="middle" x="259" y="-26.5" font-family="FreeSans" font-size="10.00" fill="#000000">GPUTPCTrackParam::GetDzDs</text>
</a>
</g>
</g>
<!-- Node1&#45;&gt;Node2 -->
<g id="edge1" class="edge">
<title>Node1&#45;&gt;Node2</title>
<path fill="none" stroke="#191970" d="M150.3348,-29.5C158.7974,-29.5 167.415,-29.5 175.9079,-29.5"/>
<polygon fill="#191970" stroke="#191970" points="150.1081,-26.0001 140.108,-29.5 150.108,-33.0001 150.1081,-26.0001"/>
</g>
<!-- Node3 -->
<g id="node3" class="node">
<title>Node3</title>
<g id="a_node3"><a xlink:href="../../d4/d60/classGPUTPCTrackParam.html#abd0a5cf5fa4e93b6f1eb06e16ef23fd5" target="_top" xlink:title="GPUTPCTrackParam::GetDCAPoint">
<polygon fill="none" stroke="#000000" points="378,-39.5 378,-59.5 565,-59.5 565,-39.5 378,-39.5"/>
<text text-anchor="middle" x="471.5" y="-46.5" font-family="FreeSans" font-size="10.00" fill="#000000">GPUTPCTrackParam::GetDCAPoint</text>
</a>
</g>
</g>
<!-- Node2&#45;&gt;Node3 -->
<g id="edge2" class="edge">
<title>Node2&#45;&gt;Node3</title>
<path fill="none" stroke="#191970" d="M352.0718,-38.2597C360.6482,-39.0669 369.3409,-39.885 377.9217,-40.6926"/>
<polygon fill="#191970" stroke="#191970" points="352.355,-34.771 342.071,-37.3185 351.699,-41.7402 352.355,-34.771"/>
</g>
<!-- Node4 -->
<g id="node4" class="node">
<title>Node4</title>
<g id="a_node4"><a xlink:href="../../d4/d60/classGPUTPCTrackParam.html#a136a92dedb0238c9d0af651c584874ad" target="_top" xlink:title="GPUTPCTrackParam::Print">
<polygon fill="none" stroke="#000000" points="399,-.5 399,-20.5 544,-20.5 544,-.5 399,-.5"/>
<text text-anchor="middle" x="471.5" y="-7.5" font-family="FreeSans" font-size="10.00" fill="#000000">GPUTPCTrackParam::Print</text>
</a>
</g>
</g>
<!-- Node2&#45;&gt;Node4 -->
<g id="edge3" class="edge">
<title>Node2&#45;&gt;Node4</title>
<path fill="none" stroke="#191970" d="M352.2574,-21.1617C367.8634,-19.7663 383.8491,-18.337 398.8404,-16.9966"/>
<polygon fill="#191970" stroke="#191970" points="351.7196,-17.6957 342.071,-22.0725 352.343,-24.6679 351.7196,-17.6957"/>
</g>
</g>
</svg>
