<?xml version="1.0" encoding="UTF-8" standalone="no"?>
<!DOCTYPE svg PUBLIC "-//W3C//DTD SVG 1.1//EN"
 "http://www.w3.org/Graphics/SVG/1.1/DTD/svg11.dtd">
<!-- Generated by graphviz version 2.40.1 (20161225.0304)
 -->
<!-- Title: genfit::HMatrixUV::getMatrix Pages: 1 -->
<svg width="572pt" height="41pt"
 viewBox="0.00 0.00 572.00 41.00" xmlns="http://www.w3.org/2000/svg" xmlns:xlink="http://www.w3.org/1999/xlink">
<g id="graph0" class="graph" transform="scale(1 1) rotate(0) translate(4 37)">
<title>genfit::HMatrixUV::getMatrix</title>
<!-- Node1 -->
<g id="node1" class="node">
<title>Node1</title>
<polygon fill="#bfbfbf" stroke="#000000" points="0,-.5 0,-32.5 111,-32.5 111,-.5 0,-.5"/>
<text text-anchor="start" x="8" y="-19.5" font-family="FreeSans" font-size="10.00" fill="#000000">genfit::HMatrixUV::</text>
<text text-anchor="middle" x="55.5" y="-7.5" font-family="FreeSans" font-size="10.00" fill="#000000">getMatrix</text>
</g>
<!-- Node2 -->
<g id="node2" class="node">
<title>Node2</title>
<g id="a_node2"><a xlink:href="../../d3/d5c/classgenfit_1_1GblFitterInfo.html#a80dd649bc2ad13bf0da08f26df9f0f28" target="_top" xlink:title="(Initial) reset of fitter info">
<polygon fill="none" stroke="#000000" points="147,-.5 147,-32.5 262,-32.5 262,-.5 147,-.5"/>
<text text-anchor="start" x="155" y="-19.5" font-family="FreeSans" font-size="10.00" fill="#000000">genfit::GblFitterInfo</text>
<text text-anchor="middle" x="204.5" y="-7.5" font-family="FreeSans" font-size="10.00" fill="#000000">::reset</text>
</a>
</g>
</g>
<!-- Node1&#45;&gt;Node2 -->
<g id="edge1" class="edge">
<title>Node1&#45;&gt;Node2</title>
<path fill="none" stroke="#191970" d="M121.562,-16.5C129.9712,-16.5 138.5257,-16.5 146.7894,-16.5"/>
<polygon fill="#191970" stroke="#191970" points="121.4061,-13.0001 111.406,-16.5 121.406,-20.0001 121.4061,-13.0001"/>
</g>
<!-- Node3 -->
<g id="node3" class="node">
<title>Node3</title>
<g id="a_node3"><a xlink:href="../../d3/d5c/classgenfit_1_1GblFitterInfo.html#a4860dfec0b45c4d43ea2da1743d77119" target="_top" xlink:title="Constructor for ROOT I/O.">
<polygon fill="none" stroke="#000000" points="298,-.5 298,-32.5 413,-32.5 413,-.5 298,-.5"/>
<text text-anchor="start" x="306" y="-19.5" font-family="FreeSans" font-size="10.00" fill="#000000">genfit::GblFitterInfo</text>
<text text-anchor="middle" x="355.5" y="-7.5" font-family="FreeSans" font-size="10.00" fill="#000000">::GblFitterInfo</text>
</a>
</g>
</g>
<!-- Node2&#45;&gt;Node3 -->
<g id="edge2" class="edge">
<title>Node2&#45;&gt;Node3</title>
<path fill="none" stroke="#191970" d="M272.0519,-16.5C280.6779,-16.5 289.4438,-16.5 297.8925,-16.5"/>
<polygon fill="#191970" stroke="#191970" points="272.0174,-13.0001 262.0174,-16.5 272.0173,-20.0001 272.0174,-13.0001"/>
</g>
<!-- Node4 -->
<g id="node4" class="node">
<title>Node4</title>
<g id="a_node4"><a xlink:href="../../d3/d5c/classgenfit_1_1GblFitterInfo.html#a4187266598070cc9e3467bcc3fe36ec6" target="_top" xlink:title="Deep copy ctor for polymorphic class.">
<polygon fill="none" stroke="#000000" points="449,-.5 449,-32.5 564,-32.5 564,-.5 449,-.5"/>
<text text-anchor="start" x="457" y="-19.5" font-family="FreeSans" font-size="10.00" fill="#000000">genfit::GblFitterInfo</text>
<text text-anchor="middle" x="506.5" y="-7.5" font-family="FreeSans" font-size="10.00" fill="#000000">::clone</text>
</a>
</g>
</g>
<!-- Node3&#45;&gt;Node4 -->
<g id="edge3" class="edge">
<title>Node3&#45;&gt;Node4</title>
<path fill="none" stroke="#191970" d="M423.0519,-16.5C431.6779,-16.5 440.4438,-16.5 448.8925,-16.5"/>
<polygon fill="#191970" stroke="#191970" points="423.0174,-13.0001 413.0174,-16.5 423.0173,-20.0001 423.0174,-13.0001"/>
</g>
</g>
</svg>
