<?xml version="1.0" encoding="UTF-8" standalone="no"?>
<!DOCTYPE svg PUBLIC "-//W3C//DTD SVG 1.1//EN"
 "http://www.w3.org/Graphics/SVG/1.1/DTD/svg11.dtd">
<!-- Generated by graphviz version 2.40.1 (20161225.0304)
 -->
<!-- Title: Jet::get_eta Pages: 1 -->
<svg width="674pt" height="1133pt"
 viewBox="0.00 0.00 674.00 1133.00" xmlns="http://www.w3.org/2000/svg" xmlns:xlink="http://www.w3.org/1999/xlink">
<g id="graph0" class="graph" transform="scale(1 1) rotate(0) translate(4 1129)">
<title>Jet::get_eta</title>
<!-- Node1 -->
<g id="node1" class="node">
<title>Node1</title>
<polygon fill="#bfbfbf" stroke="#000000" points="0,-588.5 0,-608.5 74,-608.5 74,-588.5 0,-588.5"/>
<text text-anchor="middle" x="37" y="-595.5" font-family="FreeSans" font-size="10.00" fill="#000000">Jet::get_eta</text>
</g>
<!-- Node2 -->
<g id="node2" class="node">
<title>Node2</title>
<g id="a_node2"><a xlink:href="../../d6/d40/classLeptoquarksReco.html#aa251fa1881824e4f72051fe65e8bf459" target="_top" xlink:title="LeptoquarksReco::AddJetInformation">
<polygon fill="none" stroke="#000000" points="110,-1095.5 110,-1115.5 310,-1115.5 310,-1095.5 110,-1095.5"/>
<text text-anchor="middle" x="210" y="-1102.5" font-family="FreeSans" font-size="10.00" fill="#000000">LeptoquarksReco::AddJetInformation</text>
</a>
</g>
</g>
<!-- Node1&#45;&gt;Node2 -->
<g id="edge1" class="edge">
<title>Node1&#45;&gt;Node2</title>
<path fill="none" stroke="#191970" d="M38.7113,-618.885C46.252,-706.5762 77.5804,-1048.8267 110,-1083.5 114.492,-1088.3043 119.7745,-1092.1794 125.5251,-1095.2936"/>
<polygon fill="#191970" stroke="#191970" points="42.1769,-618.331 37.8416,-608.6638 35.2021,-618.9246 42.1769,-618.331"/>
</g>
<!-- Node4 -->
<g id="node4" class="node">
<title>Node4</title>
<g id="a_node4"><a xlink:href="../../d7/dce/classTreeMaker.html#a52bf12994bc1206706553ddef4a8e2ca" target="_top" xlink:title="TreeMaker::CopyAndMakeJets">
<polygon fill="none" stroke="#000000" points="127,-963.5 127,-983.5 293,-983.5 293,-963.5 127,-963.5"/>
<text text-anchor="middle" x="210" y="-970.5" font-family="FreeSans" font-size="10.00" fill="#000000">TreeMaker::CopyAndMakeJets</text>
</a>
</g>
</g>
<!-- Node1&#45;&gt;Node4 -->
<g id="edge3" class="edge">
<title>Node1&#45;&gt;Node4</title>
<path fill="none" stroke="#191970" d="M38.2657,-618.7982C42.9458,-687.0678 61.576,-906.7727 110,-954.5 114.9085,-959.3379 120.6424,-963.1427 126.8361,-966.117"/>
<polygon fill="#191970" stroke="#191970" points="41.7393,-618.2815 37.5904,-608.5328 34.7544,-618.741 41.7393,-618.2815"/>
</g>
<!-- Node6 -->
<g id="node6" class="node">
<title>Node6</title>
<g id="a_node6"><a xlink:href="../../d1/df4/classJetEvaluator.html#a0c608411c03ff1de3fca80d64e93ae5d" target="_top" xlink:title="dump the evaluator information into ntuple for external analysis">
<polygon fill="none" stroke="#000000" points="143.5,-1041.5 143.5,-1073.5 276.5,-1073.5 276.5,-1041.5 143.5,-1041.5"/>
<text text-anchor="start" x="151.5" y="-1060.5" font-family="FreeSans" font-size="10.00" fill="#000000">JetEvaluator::fillOutput</text>
<text text-anchor="middle" x="210" y="-1048.5" font-family="FreeSans" font-size="10.00" fill="#000000">Ntuples</text>
</a>
</g>
</g>
<!-- Node1&#45;&gt;Node6 -->
<g id="edge5" class="edge">
<title>Node1&#45;&gt;Node6</title>
<path fill="none" stroke="#191970" d="M37.5659,-618.9666C40.1294,-696.5164 53.1388,-971.0005 110,-1032.5 118.8686,-1042.092 130.8107,-1048.2465 143.3524,-1052.1438"/>
<polygon fill="#191970" stroke="#191970" points="41.0541,-618.5241 37.2492,-608.636 34.0574,-618.7386 41.0541,-618.5241"/>
</g>
<!-- Node8 -->
<g id="node8" class="node">
<title>Node8</title>
<g id="a_node8"><a xlink:href="../../d8/de2/classJetEnergies.html#a065fee78622ed073cafb5cf172d67bef" target="_top" xlink:title="dump the evaluator information into ntuple for external analysis">
<polygon fill="none" stroke="#000000" points="126.5,-1002.5 126.5,-1022.5 293.5,-1022.5 293.5,-1002.5 126.5,-1002.5"/>
<text text-anchor="middle" x="210" y="-1009.5" font-family="FreeSans" font-size="10.00" fill="#000000">JetEnergies::fillOutputNtuples</text>
</a>
</g>
</g>
<!-- Node1&#45;&gt;Node8 -->
<g id="edge7" class="edge">
<title>Node1&#45;&gt;Node8</title>
<path fill="none" stroke="#191970" d="M37.8331,-619.097C41.2347,-692.4978 56.5395,-939.7708 110,-993.5 114.7365,-998.2603 120.2702,-1002.026 126.2601,-1004.9875"/>
<polygon fill="#191970" stroke="#191970" points="41.3193,-618.7032 37.3853,-608.8658 34.326,-619.0093 41.3193,-618.7032"/>
</g>
<!-- Node10 -->
<g id="node10" class="node">
<title>Node10</title>
<g id="a_node10"><a xlink:href="../../d6/d77/classFastJetAlgoSub.html#aedbf3469337244550d98d847a4a755a8" target="_top" xlink:title="FastJetAlgoSub::get_jets">
<polygon fill="none" stroke="#000000" points="141,-924.5 141,-944.5 279,-944.5 279,-924.5 141,-924.5"/>
<text text-anchor="middle" x="210" y="-931.5" font-family="FreeSans" font-size="10.00" fill="#000000">FastJetAlgoSub::get_jets</text>
</a>
</g>
</g>
<!-- Node1&#45;&gt;Node10 -->
<g id="edge9" class="edge">
<title>Node1&#45;&gt;Node10</title>
<path fill="none" stroke="#191970" d="M38.8392,-619.0131C44.9531,-682.4753 66.7073,-873.8459 110,-915.5 118.5321,-923.7091 129.4478,-928.9227 140.9151,-932.1465"/>
<polygon fill="#191970" stroke="#191970" points="42.2924,-618.3481 37.8779,-608.7168 35.3227,-618.9989 42.2924,-618.3481"/>
</g>
<!-- Node11 -->
<g id="node11" class="node">
<title>Node11</title>
<g id="a_node11"><a xlink:href="../../dc/d65/classPhotonJet.html#a9b2de7dcbd5e3bbbd26150d418b7bb44" target="_top" xlink:title="PhotonJet::GetRecoHadrons\lAndJets">
<polygon fill="none" stroke="#000000" points="132,-795.5 132,-827.5 288,-827.5 288,-795.5 132,-795.5"/>
<text text-anchor="start" x="140" y="-814.5" font-family="FreeSans" font-size="10.00" fill="#000000">PhotonJet::GetRecoHadrons</text>
<text text-anchor="middle" x="210" y="-802.5" font-family="FreeSans" font-size="10.00" fill="#000000">AndJets</text>
</a>
</g>
</g>
<!-- Node1&#45;&gt;Node11 -->
<g id="edge10" class="edge">
<title>Node1&#45;&gt;Node11</title>
<path fill="none" stroke="#191970" d="M39.4648,-619.0865C45.0517,-656.6201 62.1455,-736.3661 110,-780.5 116.6139,-786.5997 124.4089,-791.4995 132.6809,-795.4355"/>
<polygon fill="#191970" stroke="#191970" points="42.8926,-618.3177 38.079,-608.8795 35.9562,-619.2595 42.8926,-618.3177"/>
</g>
<!-- Node12 -->
<g id="node12" class="node">
<title>Node12</title>
<g id="a_node12"><a xlink:href="../../dc/d65/classPhotonJet.html#a3f9d3ec941f851bc2246ceb0c5362c9f" target="_top" xlink:title="PhotonJet::process\l_event">
<polygon fill="none" stroke="#000000" points="365.5,-750.5 365.5,-782.5 475.5,-782.5 475.5,-750.5 365.5,-750.5"/>
<text text-anchor="start" x="373.5" y="-769.5" font-family="FreeSans" font-size="10.00" fill="#000000">PhotonJet::process</text>
<text text-anchor="middle" x="420.5" y="-757.5" font-family="FreeSans" font-size="10.00" fill="#000000">_event</text>
</a>
</g>
</g>
<!-- Node1&#45;&gt;Node12 -->
<g id="edge35" class="edge">
<title>Node1&#45;&gt;Node12</title>
<path fill="none" stroke="#191970" d="M40.2972,-618.6912C46.9148,-651.9724 65.2151,-717.6323 110,-747.5 150.4383,-774.4689 287.5167,-772.9061 365.343,-769.6013"/>
<polygon fill="#191970" stroke="#191970" points="43.7202,-617.9522 38.4795,-608.7443 36.8342,-619.2106 43.7202,-617.9522"/>
</g>
<!-- Node13 -->
<g id="node13" class="node">
<title>Node13</title>
<g id="a_node13"><a xlink:href="../../dc/d65/classPhotonJet.html#a2c1adc79085fbbe9d27254d016321804" target="_top" xlink:title="PhotonJet::GetRecoHadrons\lAndJetsAA">
<polygon fill="none" stroke="#000000" points="132,-705.5 132,-737.5 288,-737.5 288,-705.5 132,-705.5"/>
<text text-anchor="start" x="140" y="-724.5" font-family="FreeSans" font-size="10.00" fill="#000000">PhotonJet::GetRecoHadrons</text>
<text text-anchor="middle" x="210" y="-712.5" font-family="FreeSans" font-size="10.00" fill="#000000">AndJetsAA</text>
</a>
</g>
</g>
<!-- Node1&#45;&gt;Node13 -->
<g id="edge12" class="edge">
<title>Node1&#45;&gt;Node13</title>
<path fill="none" stroke="#191970" d="M46.2037,-617.8333C57.8796,-640.2342 80.1452,-676.6067 110,-696.5 116.7015,-700.9654 124.1369,-704.6335 131.8411,-707.6465"/>
<polygon fill="#191970" stroke="#191970" points="49.2033,-616.0067 41.595,-608.6335 42.9447,-619.1421 49.2033,-616.0067"/>
</g>
<!-- Node14 -->
<g id="node14" class="node">
<title>Node14</title>
<g id="a_node14"><a xlink:href="../../d7/dce/classTreeMaker.html#a52a597a7a6509616228576eac6383301" target="_top" xlink:title="TreeMaker::GetRecoJets">
<polygon fill="none" stroke="#000000" points="142,-885.5 142,-905.5 278,-905.5 278,-885.5 142,-885.5"/>
<text text-anchor="middle" x="210" y="-892.5" font-family="FreeSans" font-size="10.00" fill="#000000">TreeMaker::GetRecoJets</text>
</a>
</g>
</g>
<!-- Node1&#45;&gt;Node14 -->
<g id="edge14" class="edge">
<title>Node1&#45;&gt;Node14</title>
<path fill="none" stroke="#191970" d="M39.5136,-618.7394C47.1114,-676.5832 71.6946,-840.7516 110,-876.5 118.8499,-884.7591 130.1235,-889.9587 141.8902,-893.1447"/>
<polygon fill="#191970" stroke="#191970" points="42.9644,-618.1318 38.2214,-608.6579 36.0212,-619.0217 42.9644,-618.1318"/>
</g>
<!-- Node15 -->
<g id="node15" class="node">
<title>Node15</title>
<g id="a_node15"><a xlink:href="../../d0/da9/classAnaTutorial.html#a9068984e2eafee47f54de4c802d23168" target="_top" xlink:title="AnaTutorial::getReconstructedJets">
<polygon fill="none" stroke="#000000" points="115.5,-666.5 115.5,-686.5 304.5,-686.5 304.5,-666.5 115.5,-666.5"/>
<text text-anchor="middle" x="210" y="-673.5" font-family="FreeSans" font-size="10.00" fill="#000000">AnaTutorial::getReconstructedJets</text>
</a>
</g>
</g>
<!-- Node1&#45;&gt;Node15 -->
<g id="edge16" class="edge">
<title>Node1&#45;&gt;Node15</title>
<path fill="none" stroke="#191970" d="M53.576,-615.9702C67.3849,-629.4426 88.2455,-647.4241 110,-657.5 117.8573,-661.1392 126.3703,-664.0814 135.0002,-666.46"/>
<polygon fill="#191970" stroke="#191970" points="55.8376,-613.2806 46.3069,-608.6528 50.8715,-618.214 55.8376,-613.2806"/>
</g>
<!-- Node17 -->
<g id="node17" class="node">
<title>Node17</title>
<g id="a_node17"><a xlink:href="../../d7/dce/classTreeMaker.html#a256b6f8b0e6f110256c630b0bad83efb" target="_top" xlink:title="TreeMaker::GetTruthJets">
<polygon fill="none" stroke="#000000" points="141.5,-846.5 141.5,-866.5 278.5,-866.5 278.5,-846.5 141.5,-846.5"/>
<text text-anchor="middle" x="210" y="-853.5" font-family="FreeSans" font-size="10.00" fill="#000000">TreeMaker::GetTruthJets</text>
</a>
</g>
</g>
<!-- Node1&#45;&gt;Node17 -->
<g id="edge18" class="edge">
<title>Node1&#45;&gt;Node17</title>
<path fill="none" stroke="#191970" d="M40.4109,-618.6038C49.6417,-670.6121 76.6741,-807.6124 110,-837.5 118.8145,-845.4051 129.8649,-850.4738 141.377,-853.6493"/>
<polygon fill="#191970" stroke="#191970" points="43.8335,-617.8561 38.6711,-608.6041 36.9371,-619.0561 43.8335,-617.8561"/>
</g>
<!-- Node18 -->
<g id="node18" class="node">
<title>Node18</title>
<g id="a_node18"><a xlink:href="../../d0/da9/classAnaTutorial.html#af69547260745ac326654881490df1cb0" target="_top" xlink:title="AnaTutorial::getTruthJets">
<polygon fill="none" stroke="#000000" points="139.5,-627.5 139.5,-647.5 280.5,-647.5 280.5,-627.5 139.5,-627.5"/>
<text text-anchor="middle" x="210" y="-634.5" font-family="FreeSans" font-size="10.00" fill="#000000">AnaTutorial::getTruthJets</text>
</a>
</g>
</g>
<!-- Node1&#45;&gt;Node18 -->
<g id="edge20" class="edge">
<title>Node1&#45;&gt;Node18</title>
<path fill="none" stroke="#191970" d="M83.9009,-609.073C109.3231,-614.804 140.5645,-621.8469 165.5904,-627.4886"/>
<polygon fill="#191970" stroke="#191970" points="84.6378,-605.6514 74.1128,-606.8665 83.0983,-612.48 84.6378,-605.6514"/>
</g>
<!-- Node19 -->
<g id="node19" class="node">
<title>Node19</title>
<g id="a_node19"><a xlink:href="../../d4/d28/classQAG4SimulationJet.html#a76affb7d6bcef337df5c25564dce51ab" target="_top" xlink:title="acceptance cut on jet object">
<polygon fill="none" stroke="#000000" points="151,-537.5 151,-569.5 269,-569.5 269,-537.5 151,-537.5"/>
<text text-anchor="start" x="159" y="-556.5" font-family="FreeSans" font-size="10.00" fill="#000000">QAG4SimulationJet::</text>
<text text-anchor="middle" x="210" y="-544.5" font-family="FreeSans" font-size="10.00" fill="#000000">jet_acceptance_cut</text>
</a>
</g>
</g>
<!-- Node1&#45;&gt;Node19 -->
<g id="edge22" class="edge">
<title>Node1&#45;&gt;Node19</title>
<path fill="none" stroke="#191970" d="M83.9009,-586.3003C104.5236,-580.9361 128.9757,-574.5757 150.8328,-568.8903"/>
<polygon fill="#191970" stroke="#191970" points="82.9097,-582.9416 74.1128,-588.8464 84.6719,-589.7162 82.9097,-582.9416"/>
</g>
<!-- Node20 -->
<g id="node20" class="node">
<title>Node20</title>
<g id="a_node20"><a xlink:href="../../d4/d28/classQAG4SimulationJet.html#ac2803dd2fafe7d6131f3311c9f1e4e27" target="_top" xlink:title="QAG4SimulationJet::\lprocess_Spectrum">
<polygon fill="none" stroke="#000000" points="361.5,-552.5 361.5,-584.5 479.5,-584.5 479.5,-552.5 361.5,-552.5"/>
<text text-anchor="start" x="369.5" y="-571.5" font-family="FreeSans" font-size="10.00" fill="#000000">QAG4SimulationJet::</text>
<text text-anchor="middle" x="420.5" y="-559.5" font-family="FreeSans" font-size="10.00" fill="#000000">process_Spectrum</text>
</a>
</g>
</g>
<!-- Node1&#45;&gt;Node20 -->
<g id="edge39" class="edge">
<title>Node1&#45;&gt;Node20</title>
<path fill="none" stroke="#191970" d="M84.1612,-595.6449C138.6069,-592.2497 230.8342,-586.1937 310,-579.5 326.713,-578.0869 344.8284,-576.3638 361.4628,-574.7046"/>
<polygon fill="#191970" stroke="#191970" points="83.8828,-592.1553 74.1186,-596.2677 84.3161,-599.1419 83.8828,-592.1553"/>
</g>
<!-- Node22 -->
<g id="node22" class="node">
<title>Node22</title>
<g id="a_node22"><a xlink:href="../../d4/d28/classQAG4SimulationJet.html#a3e5c5fe2e5e5cee7fca6173ef6e6bfa2" target="_top" xlink:title="QAG4SimulationJet::\lprocess_TruthMatching">
<polygon fill="none" stroke="#000000" points="354.5,-501.5 354.5,-533.5 486.5,-533.5 486.5,-501.5 354.5,-501.5"/>
<text text-anchor="start" x="362.5" y="-520.5" font-family="FreeSans" font-size="10.00" fill="#000000">QAG4SimulationJet::</text>
<text text-anchor="middle" x="420.5" y="-508.5" font-family="FreeSans" font-size="10.00" fill="#000000">process_TruthMatching</text>
</a>
</g>
</g>
<!-- Node1&#45;&gt;Node22 -->
<g id="edge41" class="edge">
<title>Node1&#45;&gt;Node22</title>
<path fill="none" stroke="#191970" d="M49.7822,-580.1801C62.7555,-563.2936 84.5208,-539.2699 110,-528.5 188.8731,-495.1607 289.3264,-498.94 354.2651,-506.6225"/>
<polygon fill="#191970" stroke="#191970" points="46.9473,-578.1273 43.8263,-588.252 52.58,-582.2834 46.9473,-578.1273"/>
</g>
<!-- Node23 -->
<g id="node23" class="node">
<title>Node23</title>
<g id="a_node23"><a xlink:href="../../d0/dc8/classSoftLeptonTaggingTruth.html#a760036c60cdc95067deca20190332201" target="_top" xlink:title="acceptance cut on jet object">
<polygon fill="none" stroke="#000000" points="142.5,-447.5 142.5,-479.5 277.5,-479.5 277.5,-447.5 142.5,-447.5"/>
<text text-anchor="start" x="150.5" y="-466.5" font-family="FreeSans" font-size="10.00" fill="#000000">SoftLeptonTaggingTruth</text>
<text text-anchor="middle" x="210" y="-454.5" font-family="FreeSans" font-size="10.00" fill="#000000">::jet_acceptance_cut</text>
</a>
</g>
</g>
<!-- Node1&#45;&gt;Node23 -->
<g id="edge27" class="edge">
<title>Node1&#45;&gt;Node23</title>
<path fill="none" stroke="#191970" d="M45.7697,-578.9552C57.2528,-555.5337 79.5603,-516.6798 110,-494.5 119.622,-487.4889 130.8667,-482.0362 142.2738,-477.8033"/>
<polygon fill="#191970" stroke="#191970" points="42.493,-577.6978 41.3917,-588.2352 48.8239,-580.6845 42.493,-577.6978"/>
</g>
<!-- Node24 -->
<g id="node24" class="node">
<title>Node24</title>
<g id="a_node24"><a xlink:href="../../d0/dc8/classSoftLeptonTaggingTruth.html#a3989ff17a01ba304478d558b99c3214f" target="_top" xlink:title="SoftLeptonTaggingTruth\l::process_Spectrum">
<polygon fill="none" stroke="#000000" points="353,-438.5 353,-470.5 488,-470.5 488,-438.5 353,-438.5"/>
<text text-anchor="start" x="361" y="-457.5" font-family="FreeSans" font-size="10.00" fill="#000000">SoftLeptonTaggingTruth</text>
<text text-anchor="middle" x="420.5" y="-445.5" font-family="FreeSans" font-size="10.00" fill="#000000">::process_Spectrum</text>
</a>
</g>
</g>
<!-- Node1&#45;&gt;Node24 -->
<g id="edge40" class="edge">
<title>Node1&#45;&gt;Node24</title>
<path fill="none" stroke="#191970" d="M39.3236,-577.9263C44.6049,-542.0833 61.1188,-469.0077 110,-437.5 193.494,-383.6818 317.3702,-416.0095 380.446,-438.4509"/>
<polygon fill="#191970" stroke="#191970" points="35.8121,-577.7841 37.9767,-588.1554 42.7523,-578.6979 35.8121,-577.7841"/>
</g>
<!-- Node26 -->
<g id="node26" class="node">
<title>Node26</title>
<g id="a_node26"><a xlink:href="../../db/d4c/classBJetModule.html#a93ec29147c2d7aea52780d7370141e74" target="_top" xlink:title="BJetModule::process\l_event">
<polygon fill="none" stroke="#000000" points="150.5,-357.5 150.5,-389.5 269.5,-389.5 269.5,-357.5 150.5,-357.5"/>
<text text-anchor="start" x="158.5" y="-376.5" font-family="FreeSans" font-size="10.00" fill="#000000">BJetModule::process</text>
<text text-anchor="middle" x="210" y="-364.5" font-family="FreeSans" font-size="10.00" fill="#000000">_event</text>
</a>
</g>
</g>
<!-- Node1&#45;&gt;Node26 -->
<g id="edge30" class="edge">
<title>Node1&#45;&gt;Node26</title>
<path fill="none" stroke="#191970" d="M38.841,-578.2169C43.4902,-538.9801 59.2289,-452.3465 110,-404.5 121.1114,-394.0287 135.6975,-387.0915 150.2818,-382.4966"/>
<polygon fill="#191970" stroke="#191970" points="35.3387,-578.0548 37.7654,-588.368 42.2997,-578.7925 35.3387,-578.0548"/>
</g>
<!-- Node27 -->
<g id="node27" class="node">
<title>Node27</title>
<g id="a_node27"><a xlink:href="../../d3/d26/classCopyAndSubtractJets.html#aa7469769625a7718d5d28b57faf8b663" target="_top" xlink:title="CopyAndSubtractJets\l::process_event">
<polygon fill="none" stroke="#000000" points="148.5,-306.5 148.5,-338.5 271.5,-338.5 271.5,-306.5 148.5,-306.5"/>
<text text-anchor="start" x="156.5" y="-325.5" font-family="FreeSans" font-size="10.00" fill="#000000">CopyAndSubtractJets</text>
<text text-anchor="middle" x="210" y="-313.5" font-family="FreeSans" font-size="10.00" fill="#000000">::process_event</text>
</a>
</g>
</g>
<!-- Node1&#45;&gt;Node27 -->
<g id="edge31" class="edge">
<title>Node1&#45;&gt;Node27</title>
<path fill="none" stroke="#191970" d="M40.2467,-578.2145C49.2501,-524.4389 76.119,-380.1158 110,-347.5 120.4429,-337.4471 134.2886,-331.253 148.3385,-327.4822"/>
<polygon fill="#191970" stroke="#191970" points="36.7667,-577.8075 38.6005,-588.2425 43.6742,-578.9415 36.7667,-577.8075"/>
</g>
<!-- Node28 -->
<g id="node28" class="node">
<title>Node28</title>
<g id="a_node28"><a xlink:href="../../d6/d02/classDetermineTowerBackground.html#a1e2d3c456b619165aec9114ae37ee6bf" target="_top" xlink:title="DetermineTowerBackground\l::process_event">
<polygon fill="none" stroke="#000000" points="130.5,-255.5 130.5,-287.5 289.5,-287.5 289.5,-255.5 130.5,-255.5"/>
<text text-anchor="start" x="138.5" y="-274.5" font-family="FreeSans" font-size="10.00" fill="#000000">DetermineTowerBackground</text>
<text text-anchor="middle" x="210" y="-262.5" font-family="FreeSans" font-size="10.00" fill="#000000">::process_event</text>
</a>
</g>
</g>
<!-- Node1&#45;&gt;Node28 -->
<g id="edge32" class="edge">
<title>Node1&#45;&gt;Node28</title>
<path fill="none" stroke="#191970" d="M39.1742,-578.2674C46.1279,-517.3 69.757,-337.0584 110,-296.5 115.7981,-290.6565 122.7412,-286.1058 130.2307,-282.572"/>
<polygon fill="#191970" stroke="#191970" points="35.6631,-578.1743 38.0376,-588.4997 42.6203,-578.9473 35.6631,-578.1743"/>
</g>
<!-- Node29 -->
<g id="node29" class="node">
<title>Node29</title>
<g id="a_node29"><a xlink:href="../../d9/de3/classTruthPhotonJet.html#ae476c9aba33cf8d9161947519d293f5c" target="_top" xlink:title="TruthPhotonJet::process\l_event">
<polygon fill="none" stroke="#000000" points="141.5,-204.5 141.5,-236.5 278.5,-236.5 278.5,-204.5 141.5,-204.5"/>
<text text-anchor="start" x="149.5" y="-223.5" font-family="FreeSans" font-size="10.00" fill="#000000">TruthPhotonJet::process</text>
<text text-anchor="middle" x="210" y="-211.5" font-family="FreeSans" font-size="10.00" fill="#000000">_event</text>
</a>
</g>
</g>
<!-- Node1&#45;&gt;Node29 -->
<g id="edge33" class="edge">
<title>Node1&#45;&gt;Node29</title>
<path fill="none" stroke="#191970" d="M38.4287,-578.0273C43.5781,-510.1489 63.4031,-294.0503 110,-245.5 118.4882,-236.6559 129.5937,-230.7549 141.3081,-226.8551"/>
<polygon fill="#191970" stroke="#191970" points="34.9193,-578.0298 37.68,-588.2586 41.9006,-578.5407 34.9193,-578.0298"/>
</g>
<!-- Node30 -->
<g id="node30" class="node">
<title>Node30</title>
<g id="a_node30"><a xlink:href="../../d4/dc9/classPHG4DSTReader.html#aa32c5027cd9c3e4d667a0e84d7243412" target="_top" xlink:title="event processing method">
<polygon fill="none" stroke="#000000" points="137,-153.5 137,-185.5 283,-185.5 283,-153.5 137,-153.5"/>
<text text-anchor="start" x="145" y="-172.5" font-family="FreeSans" font-size="10.00" fill="#000000">PHG4DSTReader::process</text>
<text text-anchor="middle" x="210" y="-160.5" font-family="FreeSans" font-size="10.00" fill="#000000">_event</text>
</a>
</g>
</g>
<!-- Node1&#45;&gt;Node30 -->
<g id="edge34" class="edge">
<title>Node1&#45;&gt;Node30</title>
<path fill="none" stroke="#191970" d="M37.8462,-578.0301C41.3256,-503.9456 56.9514,-251.1829 110,-194.5 117.3369,-186.6605 126.7278,-181.1224 136.8069,-177.2377"/>
<polygon fill="#191970" stroke="#191970" points="34.336,-578.1831 37.3882,-588.3287 41.3291,-578.4941 34.336,-578.1831"/>
</g>
<!-- Node31 -->
<g id="node31" class="node">
<title>Node31</title>
<g id="a_node31"><a xlink:href="../../d5/d1f/classMyJetAnalysis.html#a309e9a46394353251b673514d6eb28ac" target="_top" xlink:title="MyJetAnalysis::process\l_event">
<polygon fill="none" stroke="#000000" points="144.5,-102.5 144.5,-134.5 275.5,-134.5 275.5,-102.5 144.5,-102.5"/>
<text text-anchor="start" x="152.5" y="-121.5" font-family="FreeSans" font-size="10.00" fill="#000000">MyJetAnalysis::process</text>
<text text-anchor="middle" x="210" y="-109.5" font-family="FreeSans" font-size="10.00" fill="#000000">_event</text>
</a>
</g>
</g>
<!-- Node1&#45;&gt;Node31 -->
<g id="edge36" class="edge">
<title>Node1&#45;&gt;Node31</title>
<path fill="none" stroke="#191970" d="M37.3904,-578.0715C39.3362,-498.2183 50.4547,-208.3929 110,-143.5 119.0743,-133.6108 131.4146,-127.3703 144.3286,-123.4894"/>
<polygon fill="#191970" stroke="#191970" points="33.8867,-578.203 37.1652,-588.2778 40.885,-578.3574 33.8867,-578.203"/>
</g>
<!-- Node32 -->
<g id="node32" class="node">
<title>Node32</title>
<g id="a_node32"><a xlink:href="../../da/daf/classJetHepMCLoader.html#ae68c17d088405b8d235bb43f8c115988" target="_top" xlink:title="JetHepMCLoader::process\l_event">
<polygon fill="none" stroke="#000000" points="137,-51.5 137,-83.5 283,-83.5 283,-51.5 137,-51.5"/>
<text text-anchor="start" x="145" y="-70.5" font-family="FreeSans" font-size="10.00" fill="#000000">JetHepMCLoader::process</text>
<text text-anchor="middle" x="210" y="-58.5" font-family="FreeSans" font-size="10.00" fill="#000000">_event</text>
</a>
</g>
</g>
<!-- Node1&#45;&gt;Node32 -->
<g id="edge37" class="edge">
<title>Node1&#45;&gt;Node32</title>
<path fill="none" stroke="#191970" d="M38.6047,-578.1202C45.8651,-488.1483 76.7313,-129.3366 110,-92.5 117.2566,-84.4651 126.6685,-78.8317 136.8116,-74.9134"/>
<polygon fill="#191970" stroke="#191970" points="35.0949,-578.1051 37.7878,-588.352 42.0727,-578.6623 35.0949,-578.1051"/>
</g>
<!-- Node33 -->
<g id="node33" class="node">
<title>Node33</title>
<g id="a_node33"><a xlink:href="../../d1/d04/classBDiJetModule.html#a8f01ada101f7e91cf05e12bbf420d192" target="_top" xlink:title="BDiJetModule::process\l_event">
<polygon fill="none" stroke="#000000" points="145.5,-.5 145.5,-32.5 274.5,-32.5 274.5,-.5 145.5,-.5"/>
<text text-anchor="start" x="153.5" y="-19.5" font-family="FreeSans" font-size="10.00" fill="#000000">BDiJetModule::process</text>
<text text-anchor="middle" x="210" y="-7.5" font-family="FreeSans" font-size="10.00" fill="#000000">_event</text>
</a>
</g>
</g>
<!-- Node1&#45;&gt;Node33 -->
<g id="edge38" class="edge">
<title>Node1&#45;&gt;Node33</title>
<path fill="none" stroke="#191970" d="M38.3173,-578.2099C44.6814,-482.8938 73.4397,-82.5125 110,-41.5 119.2288,-31.1474 132.0346,-24.7717 145.406,-20.9139"/>
<polygon fill="#191970" stroke="#191970" points="34.8191,-578.0681 37.6531,-588.2768 41.8039,-578.5289 34.8191,-578.0681"/>
</g>
<!-- Node3 -->
<g id="node3" class="node">
<title>Node3</title>
<g id="a_node3"><a xlink:href="../../d6/d40/classLeptoquarksReco.html#aa5b8ff9665c7a78246bd4f1194d66d1b" target="_top" xlink:title="LeptoquarksReco::process\l_event">
<polygon fill="none" stroke="#000000" points="346,-1092.5 346,-1124.5 495,-1124.5 495,-1092.5 346,-1092.5"/>
<text text-anchor="start" x="354" y="-1111.5" font-family="FreeSans" font-size="10.00" fill="#000000">LeptoquarksReco::process</text>
<text text-anchor="middle" x="420.5" y="-1099.5" font-family="FreeSans" font-size="10.00" fill="#000000">_event</text>
</a>
</g>
</g>
<!-- Node2&#45;&gt;Node3 -->
<g id="edge2" class="edge">
<title>Node2&#45;&gt;Node3</title>
<path fill="none" stroke="#191970" d="M320.2211,-1107.0708C328.9139,-1107.1947 337.5614,-1107.318 345.9257,-1107.4372"/>
<polygon fill="#191970" stroke="#191970" points="320.0589,-1103.5683 310.01,-1106.9253 319.9591,-1110.5676 320.0589,-1103.5683"/>
</g>
<!-- Node5 -->
<g id="node5" class="node">
<title>Node5</title>
<g id="a_node5"><a xlink:href="../../d7/dce/classTreeMaker.html#a89a6f3a23de784d5f8d86ae91956aa69" target="_top" xlink:title="TreeMaker::process\l_event">
<polygon fill="none" stroke="#000000" points="363.5,-879.5 363.5,-911.5 477.5,-911.5 477.5,-879.5 363.5,-879.5"/>
<text text-anchor="start" x="371.5" y="-898.5" font-family="FreeSans" font-size="10.00" fill="#000000">TreeMaker::process</text>
<text text-anchor="middle" x="420.5" y="-886.5" font-family="FreeSans" font-size="10.00" fill="#000000">_event</text>
</a>
</g>
</g>
<!-- Node4&#45;&gt;Node5 -->
<g id="edge4" class="edge">
<title>Node4&#45;&gt;Node5</title>
<path fill="none" stroke="#191970" d="M287.9137,-961.0983C295.4603,-959.1818 302.9315,-956.9932 310,-954.5 340.9685,-943.5768 373.8486,-925.0126 395.6107,-911.6216"/>
<polygon fill="#191970" stroke="#191970" points="286.8948,-957.7429 277.9772,-963.4637 288.5159,-964.5526 286.8948,-957.7429"/>
</g>
<!-- Node7 -->
<g id="node7" class="node">
<title>Node7</title>
<g id="a_node7"><a xlink:href="../../d1/df4/classJetEvaluator.html#ad83508ae828d1f2e4a83a948465a0cd2" target="_top" xlink:title="JetEvaluator::process\l_event">
<polygon fill="none" stroke="#000000" points="358.5,-1041.5 358.5,-1073.5 482.5,-1073.5 482.5,-1041.5 358.5,-1041.5"/>
<text text-anchor="start" x="366.5" y="-1060.5" font-family="FreeSans" font-size="10.00" fill="#000000">JetEvaluator::process</text>
<text text-anchor="middle" x="420.5" y="-1048.5" font-family="FreeSans" font-size="10.00" fill="#000000">_event</text>
</a>
</g>
</g>
<!-- Node6&#45;&gt;Node7 -->
<g id="edge6" class="edge">
<title>Node6&#45;&gt;Node7</title>
<path fill="none" stroke="#191970" d="M286.8787,-1057.5C310.3629,-1057.5 335.8836,-1057.5 358.2685,-1057.5"/>
<polygon fill="#191970" stroke="#191970" points="286.6035,-1054.0001 276.6035,-1057.5 286.6035,-1061.0001 286.6035,-1054.0001"/>
</g>
<!-- Node9 -->
<g id="node9" class="node">
<title>Node9</title>
<g id="a_node9"><a xlink:href="../../d8/de2/classJetEnergies.html#a6acaa9b2ba1fe7353781d2f5d476e8d1" target="_top" xlink:title="JetEnergies::process\l_event">
<polygon fill="none" stroke="#000000" points="360.5,-990.5 360.5,-1022.5 480.5,-1022.5 480.5,-990.5 360.5,-990.5"/>
<text text-anchor="start" x="368.5" y="-1009.5" font-family="FreeSans" font-size="10.00" fill="#000000">JetEnergies::process</text>
<text text-anchor="middle" x="420.5" y="-997.5" font-family="FreeSans" font-size="10.00" fill="#000000">_event</text>
</a>
</g>
</g>
<!-- Node8&#45;&gt;Node9 -->
<g id="edge8" class="edge">
<title>Node8&#45;&gt;Node9</title>
<path fill="none" stroke="#191970" d="M304.0436,-1009.8194C323.1595,-1009.2746 342.7742,-1008.7155 360.3266,-1008.2152"/>
<polygon fill="#191970" stroke="#191970" points="303.6962,-1006.3278 293.8,-1010.1114 303.8957,-1013.325 303.6962,-1006.3278"/>
</g>
<!-- Node11&#45;&gt;Node12 -->
<g id="edge11" class="edge">
<title>Node11&#45;&gt;Node12</title>
<path fill="none" stroke="#191970" d="M295.1372,-793.2996C318.7836,-788.2446 343.8368,-782.8888 365.2796,-778.3048"/>
<polygon fill="#191970" stroke="#191970" points="294.1512,-789.9313 285.1038,-795.4445 295.6146,-796.7766 294.1512,-789.9313"/>
</g>
<!-- Node13&#45;&gt;Node12 -->
<g id="edge13" class="edge">
<title>Node13&#45;&gt;Node12</title>
<path fill="none" stroke="#191970" d="M295.1372,-739.7004C318.7836,-744.7554 343.8368,-750.1112 365.2796,-754.6952"/>
<polygon fill="#191970" stroke="#191970" points="295.6146,-736.2234 285.1038,-737.5555 294.1512,-743.0687 295.6146,-736.2234"/>
</g>
<!-- Node14&#45;&gt;Node5 -->
<g id="edge15" class="edge">
<title>Node14&#45;&gt;Node5</title>
<path fill="none" stroke="#191970" d="M288.2006,-895.5C313.0891,-895.5 340.1423,-895.5 363.2618,-895.5"/>
<polygon fill="#191970" stroke="#191970" points="288.0527,-892.0001 278.0526,-895.5 288.0526,-899.0001 288.0527,-892.0001"/>
</g>
<!-- Node16 -->
<g id="node16" class="node">
<title>Node16</title>
<g id="a_node16"><a xlink:href="../../d0/da9/classAnaTutorial.html#a3b64c061aaffaf4a42631434fb7eb6f9" target="_top" xlink:title="SubsysReco event processing method.">
<polygon fill="none" stroke="#000000" points="360.5,-640.5 360.5,-672.5 480.5,-672.5 480.5,-640.5 360.5,-640.5"/>
<text text-anchor="start" x="368.5" y="-659.5" font-family="FreeSans" font-size="10.00" fill="#000000">AnaTutorial::process</text>
<text text-anchor="middle" x="420.5" y="-647.5" font-family="FreeSans" font-size="10.00" fill="#000000">_event</text>
</a>
</g>
</g>
<!-- Node15&#45;&gt;Node16 -->
<g id="edge17" class="edge">
<title>Node15&#45;&gt;Node16</title>
<path fill="none" stroke="#191970" d="M314.988,-666.5249C330.5429,-665.047 346.1055,-663.5684 360.3167,-662.2181"/>
<polygon fill="#191970" stroke="#191970" points="314.4056,-663.0644 304.7815,-667.4946 315.0678,-670.033 314.4056,-663.0644"/>
</g>
<!-- Node17&#45;&gt;Node5 -->
<g id="edge19" class="edge">
<title>Node17&#45;&gt;Node5</title>
<path fill="none" stroke="#191970" d="M274.4106,-868.4336C302.7253,-873.6795 335.7071,-879.7902 363.1603,-884.8765"/>
<polygon fill="#191970" stroke="#191970" points="274.6793,-864.9238 264.209,-866.5435 273.404,-871.8067 274.6793,-864.9238"/>
</g>
<!-- Node18&#45;&gt;Node16 -->
<g id="edge21" class="edge">
<title>Node18&#45;&gt;Node16</title>
<path fill="none" stroke="#191970" d="M290.7958,-644.7927C313.8645,-646.8749 338.5923,-649.1069 360.2056,-651.0577"/>
<polygon fill="#191970" stroke="#191970" points="290.9532,-641.2928 280.679,-643.8796 290.3239,-648.2645 290.9532,-641.2928"/>
</g>
<!-- Node19&#45;&gt;Node20 -->
<g id="edge23" class="edge">
<title>Node19&#45;&gt;Node20</title>
<path fill="none" stroke="#191970" d="M279.1946,-558.4307C305.7719,-560.3246 335.8381,-562.4671 361.3838,-564.2874"/>
<polygon fill="#191970" stroke="#191970" points="279.4197,-554.938 269.1962,-557.7183 278.9221,-561.9203 279.4197,-554.938"/>
</g>
<!-- Node19&#45;&gt;Node22 -->
<g id="edge25" class="edge">
<title>Node19&#45;&gt;Node22</title>
<path fill="none" stroke="#191970" d="M279.3473,-541.6401C303.483,-537.5124 330.4804,-532.8953 354.3501,-528.8131"/>
<polygon fill="#191970" stroke="#191970" points="278.463,-538.2405 269.1962,-543.3762 279.6431,-545.1403 278.463,-538.2405"/>
</g>
<!-- Node21 -->
<g id="node21" class="node">
<title>Node21</title>
<g id="a_node21"><a xlink:href="../../d4/d28/classQAG4SimulationJet.html#a98c3c0fb4d213ada3475e8fb9895bc29" target="_top" xlink:title="QAG4SimulationJet::\lprocess_event">
<polygon fill="none" stroke="#000000" points="539.5,-514.5 539.5,-546.5 657.5,-546.5 657.5,-514.5 539.5,-514.5"/>
<text text-anchor="start" x="547.5" y="-533.5" font-family="FreeSans" font-size="10.00" fill="#000000">QAG4SimulationJet::</text>
<text text-anchor="middle" x="598.5" y="-521.5" font-family="FreeSans" font-size="10.00" fill="#000000">process_event</text>
</a>
</g>
</g>
<!-- Node20&#45;&gt;Node21 -->
<g id="edge24" class="edge">
<title>Node20&#45;&gt;Node21</title>
<path fill="none" stroke="#191970" d="M489.8431,-553.6964C506.2478,-550.1943 523.5903,-546.492 539.4874,-543.0982"/>
<polygon fill="#191970" stroke="#191970" points="488.8203,-550.3358 479.7714,-555.8466 490.2818,-557.1816 488.8203,-550.3358"/>
</g>
<!-- Node22&#45;&gt;Node21 -->
<g id="edge26" class="edge">
<title>Node22&#45;&gt;Node21</title>
<path fill="none" stroke="#191970" d="M496.7939,-523.072C511.0298,-524.1117 525.7084,-525.1838 539.3324,-526.1788"/>
<polygon fill="#191970" stroke="#191970" points="496.7561,-519.56 486.5277,-522.3222 496.2461,-526.5414 496.7561,-519.56"/>
</g>
<!-- Node23&#45;&gt;Node24 -->
<g id="edge28" class="edge">
<title>Node23&#45;&gt;Node24</title>
<path fill="none" stroke="#191970" d="M287.7742,-460.1747C309.1366,-459.2614 332.1228,-458.2786 352.8648,-457.3918"/>
<polygon fill="#191970" stroke="#191970" points="287.6035,-456.6787 277.7622,-460.6028 287.9026,-463.6724 287.6035,-456.6787"/>
</g>
<!-- Node25 -->
<g id="node25" class="node">
<title>Node25</title>
<g id="a_node25"><a xlink:href="../../d0/dc8/classSoftLeptonTaggingTruth.html#a152a3015fe9e7c089637c981a45787fe" target="_top" xlink:title="SoftLeptonTaggingTruth\l::process_event">
<polygon fill="none" stroke="#000000" points="531,-438.5 531,-470.5 666,-470.5 666,-438.5 531,-438.5"/>
<text text-anchor="start" x="539" y="-457.5" font-family="FreeSans" font-size="10.00" fill="#000000">SoftLeptonTaggingTruth</text>
<text text-anchor="middle" x="598.5" y="-445.5" font-family="FreeSans" font-size="10.00" fill="#000000">::process_event</text>
</a>
</g>
</g>
<!-- Node24&#45;&gt;Node25 -->
<g id="edge29" class="edge">
<title>Node24&#45;&gt;Node25</title>
<path fill="none" stroke="#191970" d="M498.3784,-454.5C509.2476,-454.5 520.3416,-454.5 530.9981,-454.5"/>
<polygon fill="#191970" stroke="#191970" points="498.048,-451.0001 488.048,-454.5 498.0479,-458.0001 498.048,-451.0001"/>
</g>
</g>
</svg>
