<?xml version="1.0" encoding="UTF-8" standalone="no"?>
<!DOCTYPE svg PUBLIC "-//W3C//DTD SVG 1.1//EN"
 "http://www.w3.org/Graphics/SVG/1.1/DTD/svg11.dtd">
<!-- Generated by graphviz version 2.40.1 (20161225.0304)
 -->
<!-- Title: GenFit/blob/master/core/include/ThinScatterer.h Pages: 1 -->
<svg width="483pt" height="269pt"
 viewBox="0.00 0.00 483.00 269.00" xmlns="http://www.w3.org/2000/svg" xmlns:xlink="http://www.w3.org/1999/xlink">
<g id="graph0" class="graph" transform="scale(1 1) rotate(0) translate(4 265)">
<title>GenFit/blob/master/core/include/ThinScatterer.h</title>
<!-- Node1 -->
<g id="node1" class="node">
<title>Node1</title>
<polygon fill="#bfbfbf" stroke="#000000" points="185.5,-228.5 185.5,-260.5 348.5,-260.5 348.5,-228.5 185.5,-228.5"/>
<text text-anchor="start" x="193.5" y="-247.5" font-family="FreeSans" font-size="10.00" fill="#000000">GenFit/blob/master</text>
<text text-anchor="middle" x="267" y="-235.5" font-family="FreeSans" font-size="10.00" fill="#000000">/core/include/ThinScatterer.h</text>
</g>
<!-- Node2 -->
<g id="node2" class="node">
<title>Node2</title>
<g id="a_node2"><a xlink:href="../../db/d4f/SharedPlanePtr_8h.html" target="_top" xlink:title="SharedPlanePtr.h">
<polygon fill="none" stroke="#000000" points="105,-171.5 105,-191.5 207,-191.5 207,-171.5 105,-171.5"/>
<text text-anchor="middle" x="156" y="-178.5" font-family="FreeSans" font-size="10.00" fill="#000000">SharedPlanePtr.h</text>
</a>
</g>
</g>
<!-- Node1&#45;&gt;Node2 -->
<g id="edge1" class="edge">
<title>Node1&#45;&gt;Node2</title>
<path fill="none" stroke="#191970" d="M238.7028,-228.4394C221.4687,-218.6579 199.5852,-206.2376 182.6583,-196.6304"/>
<polygon fill="#191970" stroke="#191970" points="184.2499,-193.5093 173.8254,-191.6171 180.7946,-199.5971 184.2499,-193.5093"/>
</g>
<!-- Node6 -->
<g id="node6" class="node">
<title>Node6</title>
<polygon fill="none" stroke="#bfbfbf" points="284.5,-57.5 284.5,-77.5 349.5,-77.5 349.5,-57.5 284.5,-57.5"/>
<text text-anchor="middle" x="317" y="-64.5" font-family="FreeSans" font-size="10.00" fill="#000000">TObject.h</text>
</g>
<!-- Node1&#45;&gt;Node6 -->
<g id="edge13" class="edge">
<title>Node1&#45;&gt;Node6</title>
<path fill="none" stroke="#191970" d="M270.9759,-228.3943C274.7042,-213.4716 280.5118,-190.6778 286,-171 294.1532,-141.7667 304.3833,-108.1426 310.8083,-87.3549"/>
<polygon fill="#191970" stroke="#191970" points="314.1691,-88.3337 313.7901,-77.7457 307.4836,-86.2591 314.1691,-88.3337"/>
</g>
<!-- Node9 -->
<g id="node9" class="node">
<title>Node9</title>
<g id="a_node9"><a xlink:href="../../df/d12/Material_8h.html" target="_top" xlink:title="Material.h">
<polygon fill="none" stroke="#000000" points="295,-171.5 295,-191.5 361,-191.5 361,-171.5 295,-171.5"/>
<text text-anchor="middle" x="328" y="-178.5" font-family="FreeSans" font-size="10.00" fill="#000000">Material.h</text>
</a>
</g>
</g>
<!-- Node1&#45;&gt;Node9 -->
<g id="edge9" class="edge">
<title>Node1&#45;&gt;Node9</title>
<path fill="none" stroke="#191970" d="M282.709,-228.2759C291.3367,-219.3654 302.0478,-208.3031 310.8873,-199.1737"/>
<polygon fill="#191970" stroke="#191970" points="313.6325,-201.3701 318.0742,-191.7513 308.6035,-196.5008 313.6325,-201.3701"/>
</g>
<!-- Node3 -->
<g id="node3" class="node">
<title>Node3</title>
<g id="a_node3"><a xlink:href="../../dc/d81/DetPlane_8h.html" target="_top" xlink:title="DetPlane.h">
<polygon fill="none" stroke="#000000" points="120.5,-114.5 120.5,-134.5 191.5,-134.5 191.5,-114.5 120.5,-114.5"/>
<text text-anchor="middle" x="156" y="-121.5" font-family="FreeSans" font-size="10.00" fill="#000000">DetPlane.h</text>
</a>
</g>
</g>
<!-- Node2&#45;&gt;Node3 -->
<g id="edge2" class="edge">
<title>Node2&#45;&gt;Node3</title>
<path fill="none" stroke="#191970" d="M156,-171.3095C156,-163.9335 156,-153.72 156,-144.715"/>
<polygon fill="#191970" stroke="#191970" points="159.5001,-144.6022 156,-134.6022 152.5001,-144.6023 159.5001,-144.6022"/>
</g>
<!-- Node8 -->
<g id="node8" class="node">
<title>Node8</title>
<polygon fill="none" stroke="#bfbfbf" points="0,-57.5 0,-77.5 58,-77.5 58,-57.5 0,-57.5"/>
<text text-anchor="middle" x="29" y="-64.5" font-family="FreeSans" font-size="10.00" fill="#000000">memory</text>
</g>
<!-- Node2&#45;&gt;Node8 -->
<g id="edge8" class="edge">
<title>Node2&#45;&gt;Node8</title>
<path fill="none" stroke="#191970" d="M144.7296,-171.3833C122.9436,-151.8273 74.8405,-108.6482 48.0165,-84.57"/>
<polygon fill="#191970" stroke="#191970" points="50.2074,-81.8333 40.4277,-77.7579 45.5314,-87.0425 50.2074,-81.8333"/>
</g>
<!-- Node4 -->
<g id="node4" class="node">
<title>Node4</title>
<g id="a_node4"><a xlink:href="../../d1/dd1/AbsFinitePlane_8h.html" target="_top" xlink:title="AbsFinitePlane.h">
<polygon fill="none" stroke="#000000" points="166,-57.5 166,-77.5 266,-77.5 266,-57.5 166,-57.5"/>
<text text-anchor="middle" x="216" y="-64.5" font-family="FreeSans" font-size="10.00" fill="#000000">AbsFinitePlane.h</text>
</a>
</g>
</g>
<!-- Node3&#45;&gt;Node4 -->
<g id="edge3" class="edge">
<title>Node3&#45;&gt;Node4</title>
<path fill="none" stroke="#191970" d="M166.7268,-114.3095C175.4296,-106.0419 187.8849,-94.2093 198.0952,-84.5096"/>
<polygon fill="#191970" stroke="#191970" points="200.5267,-87.0273 205.3661,-77.6022 195.7054,-81.9523 200.5267,-87.0273"/>
</g>
<!-- Node3&#45;&gt;Node6 -->
<g id="edge5" class="edge">
<title>Node3&#45;&gt;Node6</title>
<path fill="none" stroke="#191970" d="M184.413,-114.4408C210.6574,-105.1492 249.8461,-91.275 278.8173,-81.0181"/>
<polygon fill="#191970" stroke="#191970" points="280.3422,-84.1912 288.6008,-77.5544 278.006,-77.5925 280.3422,-84.1912"/>
</g>
<!-- Node7 -->
<g id="node7" class="node">
<title>Node7</title>
<polygon fill="none" stroke="#bfbfbf" points="76.5,-57.5 76.5,-77.5 147.5,-77.5 147.5,-57.5 76.5,-57.5"/>
<text text-anchor="middle" x="112" y="-64.5" font-family="FreeSans" font-size="10.00" fill="#000000">TVector3.h</text>
</g>
<!-- Node3&#45;&gt;Node7 -->
<g id="edge6" class="edge">
<title>Node3&#45;&gt;Node7</title>
<path fill="none" stroke="#191970" d="M148.1337,-114.3095C142.0019,-106.3661 133.3299,-95.1319 126.0184,-85.6602"/>
<polygon fill="#191970" stroke="#191970" points="128.6793,-83.3795 119.7982,-77.6022 123.1382,-87.6569 128.6793,-83.3795"/>
</g>
<!-- Node3&#45;&gt;Node8 -->
<g id="edge7" class="edge">
<title>Node3&#45;&gt;Node8</title>
<path fill="none" stroke="#191970" d="M133.5873,-114.4408C113.3994,-105.3801 83.502,-91.9615 60.8372,-81.7891"/>
<polygon fill="#191970" stroke="#191970" points="62.1722,-78.552 51.6158,-77.6504 59.3059,-84.9383 62.1722,-78.552"/>
</g>
<!-- Node5 -->
<g id="node5" class="node">
<title>Node5</title>
<polygon fill="none" stroke="#bfbfbf" points="186,-.5 186,-20.5 246,-20.5 246,-.5 186,-.5"/>
<text text-anchor="middle" x="216" y="-7.5" font-family="FreeSans" font-size="10.00" fill="#000000">Rtypes.h</text>
</g>
<!-- Node4&#45;&gt;Node5 -->
<g id="edge4" class="edge">
<title>Node4&#45;&gt;Node5</title>
<path fill="none" stroke="#191970" d="M216,-57.3095C216,-49.9335 216,-39.72 216,-30.715"/>
<polygon fill="#191970" stroke="#191970" points="219.5001,-30.6022 216,-20.6022 212.5001,-30.6023 219.5001,-30.6022"/>
</g>
<!-- Node9&#45;&gt;Node6 -->
<g id="edge12" class="edge">
<title>Node9&#45;&gt;Node6</title>
<path fill="none" stroke="#191970" d="M327.0238,-171.3833C325.2182,-152.6703 321.3254,-112.3266 318.9575,-87.7866"/>
<polygon fill="#191970" stroke="#191970" points="322.4342,-87.3755 317.9898,-77.7579 315.4665,-88.0479 322.4342,-87.3755"/>
</g>
<!-- Node10 -->
<g id="node10" class="node">
<title>Node10</title>
<g id="a_node10"><a xlink:href="../../d7/d83/EigenMatrixTypedefs_8h.html" target="_top" xlink:title="EigenMatrixTypedefs.h">
<polygon fill="none" stroke="#000000" points="345,-114.5 345,-134.5 475,-134.5 475,-114.5 345,-114.5"/>
<text text-anchor="middle" x="410" y="-121.5" font-family="FreeSans" font-size="10.00" fill="#000000">EigenMatrixTypedefs.h</text>
</a>
</g>
</g>
<!-- Node9&#45;&gt;Node10 -->
<g id="edge10" class="edge">
<title>Node9&#45;&gt;Node10</title>
<path fill="none" stroke="#191970" d="M342.66,-171.3095C355.0202,-162.7177 372.9191,-150.2758 387.1571,-140.3786"/>
<polygon fill="#191970" stroke="#191970" points="389.2536,-143.1839 395.467,-134.6022 385.2581,-137.4361 389.2536,-143.1839"/>
</g>
<!-- Node11 -->
<g id="node11" class="node">
<title>Node11</title>
<polygon fill="none" stroke="#bfbfbf" points="370,-57.5 370,-77.5 450,-77.5 450,-57.5 370,-57.5"/>
<text text-anchor="middle" x="410" y="-64.5" font-family="FreeSans" font-size="10.00" fill="#000000">Eigen/Dense</text>
</g>
<!-- Node10&#45;&gt;Node11 -->
<g id="edge11" class="edge">
<title>Node10&#45;&gt;Node11</title>
<path fill="none" stroke="#191970" d="M410,-114.3095C410,-106.9335 410,-96.72 410,-87.715"/>
<polygon fill="#191970" stroke="#191970" points="413.5001,-87.6022 410,-77.6022 406.5001,-87.6023 413.5001,-87.6022"/>
</g>
</g>
</svg>
