<?xml version="1.0" encoding="UTF-8" standalone="no"?>
<!DOCTYPE svg PUBLIC "-//W3C//DTD SVG 1.1//EN"
 "http://www.w3.org/Graphics/SVG/1.1/DTD/svg11.dtd">
<!-- Generated by graphviz version 2.40.1 (20161225.0304)
 -->
<!-- Title: sPHENIXTrackerTpc::findTracksByCombinatorialKalman Pages: 1 -->
<svg width="972pt" height="428pt"
 viewBox="0.00 0.00 972.00 428.10" xmlns="http://www.w3.org/2000/svg" xmlns:xlink="http://www.w3.org/1999/xlink">
<g id="graph0" class="graph" transform="scale(1 1) rotate(0) translate(4 424.1043)">
<title>sPHENIXTrackerTpc::findTracksByCombinatorialKalman</title>
<!-- Node1 -->
<g id="node1" class="node">
<title>Node1</title>
<polygon fill="#bfbfbf" stroke="#000000" points="0,-76.6043 0,-108.6043 189,-108.6043 189,-76.6043 0,-76.6043"/>
<text text-anchor="start" x="8" y="-95.6043" font-family="FreeSans" font-size="10.00" fill="#000000">sPHENIXTrackerTpc::</text>
<text text-anchor="middle" x="94.5" y="-83.6043" font-family="FreeSans" font-size="10.00" fill="#000000">findTracksByCombinatorialKalman</text>
</g>
<!-- Node2 -->
<g id="node2" class="node">
<title>Node2</title>
<g id="a_node2"><a xlink:href="../../d8/d85/classHelixKalman.html#a7f78a3ec79f2fe6a3a1feff6d55bb836" target="_top" xlink:title="HelixKalman::addHit">
<polygon fill="none" stroke="#000000" points="225,-160.6043 225,-180.6043 346,-180.6043 346,-160.6043 225,-160.6043"/>
<text text-anchor="middle" x="285.5" y="-167.6043" font-family="FreeSans" font-size="10.00" fill="#000000">HelixKalman::addHit</text>
</a>
</g>
</g>
<!-- Node1&#45;&gt;Node2 -->
<g id="edge1" class="edge">
<title>Node1&#45;&gt;Node2</title>
<path fill="none" stroke="#191970" d="M134.0753,-108.7659C168.6347,-122.8791 218.2803,-143.1533 251.1857,-156.5911"/>
<polygon fill="#191970" stroke="#191970" points="250.2441,-159.9871 260.8251,-160.5276 252.8906,-153.5066 250.2441,-159.9871"/>
</g>
<!-- Node16 -->
<g id="node16" class="node">
<title>Node16</title>
<g id="a_node16"><a xlink:href="../../da/d55/TPCRateLayered_8m.html#ac40e4ec8f2a74a2878f06670249eebb8" target="_top" xlink:title="double">
<polygon fill="none" stroke="#000000" points="260,-82.6043 260,-102.6043 311,-102.6043 311,-82.6043 260,-82.6043"/>
<text text-anchor="middle" x="285.5" y="-89.6043" font-family="FreeSans" font-size="10.00" fill="#000000">double</text>
</a>
</g>
</g>
<!-- Node1&#45;&gt;Node16 -->
<g id="edge16" class="edge">
<title>Node1&#45;&gt;Node16</title>
<path fill="none" stroke="#191970" d="M189.1607,-92.6043C210.7563,-92.6043 232.4092,-92.6043 249.7016,-92.6043"/>
<polygon fill="#191970" stroke="#191970" points="249.8656,-96.1044 259.8656,-92.6043 249.8656,-89.1044 249.8656,-96.1044"/>
</g>
<!-- Node17 -->
<g id="node17" class="node">
<title>Node17</title>
<g id="a_node17"><a xlink:href="../../df/d64/sPHENIXTrackerTpc_8cpp.html#a82dbde3b420605dfa78267fdb786812c" target="_top" xlink:title="fit_all">
<polygon fill="none" stroke="#000000" points="264,-24.6043 264,-44.6043 307,-44.6043 307,-24.6043 264,-24.6043"/>
<text text-anchor="middle" x="285.5" y="-31.6043" font-family="FreeSans" font-size="10.00" fill="#000000">fit_all</text>
</a>
</g>
</g>
<!-- Node1&#45;&gt;Node17 -->
<g id="edge17" class="edge">
<title>Node1&#45;&gt;Node17</title>
<path fill="none" stroke="#191970" d="M147.1972,-76.602C181.5705,-66.164 225.2716,-52.8935 254.2512,-44.0934"/>
<polygon fill="#191970" stroke="#191970" points="255.2967,-47.4338 263.8483,-41.1791 253.2627,-40.7358 255.2967,-47.4338"/>
</g>
<!-- Node3 -->
<g id="node3" class="node">
<title>Node3</title>
<g id="a_node3"><a xlink:href="../../d8/d85/classHelixKalman.html#a4270073df4ee9ffc5f0fe83a8329211e" target="_top" xlink:title="HelixKalman::calculateMeasurements">
<polygon fill="none" stroke="#000000" points="382,-297.6043 382,-317.6043 589,-317.6043 589,-297.6043 382,-297.6043"/>
<text text-anchor="middle" x="485.5" y="-304.6043" font-family="FreeSans" font-size="10.00" fill="#000000">HelixKalman::calculateMeasurements</text>
</a>
</g>
</g>
<!-- Node2&#45;&gt;Node3 -->
<g id="edge2" class="edge">
<title>Node2&#45;&gt;Node3</title>
<path fill="none" stroke="#191970" d="M290.6062,-180.8584C302.8296,-204.2386 336.1969,-261.5562 382,-288.6043 385.2592,-290.5289 388.6689,-292.2665 392.1832,-293.8347"/>
<polygon fill="#191970" stroke="#191970" points="391.1127,-297.1752 401.6989,-297.6022 393.6896,-290.6667 391.1127,-297.1752"/>
</g>
<!-- Node4 -->
<g id="node4" class="node">
<title>Node4</title>
<g id="a_node4"><a xlink:href="../../d8/d85/classHelixKalman.html#a55adf1f408113d0e3994b07e7d629c6b" target="_top" xlink:title="HelixKalman::calculateMSCovariance">
<polygon fill="none" stroke="#000000" points="383.5,-258.6043 383.5,-278.6043 587.5,-278.6043 587.5,-258.6043 383.5,-258.6043"/>
<text text-anchor="middle" x="485.5" y="-265.6043" font-family="FreeSans" font-size="10.00" fill="#000000">HelixKalman::calculateMSCovariance</text>
</a>
</g>
</g>
<!-- Node2&#45;&gt;Node4 -->
<g id="edge3" class="edge">
<title>Node2&#45;&gt;Node4</title>
<path fill="none" stroke="#191970" d="M295.8164,-180.7532C312.498,-196.5858 347.0668,-227.0593 382,-243.6043 392.6373,-248.6423 404.3859,-252.7207 416.0348,-256.0053"/>
<polygon fill="#191970" stroke="#191970" points="415.2073,-259.4067 425.7699,-258.5812 416.9979,-252.6396 415.2073,-259.4067"/>
</g>
<!-- Node11 -->
<g id="node11" class="node">
<title>Node11</title>
<g id="a_node11"><a xlink:href="../../d9/d03/KFParticleBaseSIMD_8h.html#a4cd33935de91662c0644140e301499e5" target="_top" xlink:title="Returns charge of the particle.">
<polygon fill="none" stroke="#000000" points="702.5,-168.6043 702.5,-188.6043 731.5,-188.6043 731.5,-168.6043 702.5,-168.6043"/>
<text text-anchor="middle" x="717" y="-175.6043" font-family="FreeSans" font-size="10.00" fill="#000000">Q</text>
</a>
</g>
</g>
<!-- Node2&#45;&gt;Node11 -->
<g id="edge13" class="edge">
<title>Node2&#45;&gt;Node11</title>
<path fill="none" stroke="#191970" d="M303.6735,-180.6864C322.5782,-190.5529 353.3633,-204.9043 382,-210.6043 472.23,-228.5639 498.188,-225.341 589,-210.6043 605.6477,-207.9027 608.7362,-203.0688 625,-198.6043 647.5313,-192.4193 673.5851,-186.9057 692.2026,-183.2421"/>
<polygon fill="#191970" stroke="#191970" points="693.0669,-186.6399 702.2221,-181.3077 691.7399,-179.7669 693.0669,-186.6399"/>
</g>
<!-- Node12 -->
<g id="node12" class="node">
<title>Node12</title>
<g id="a_node12"><a xlink:href="../../d8/d85/classHelixKalman.html#a0f3fb5cf1e01e1043cea2936f7a89101" target="_top" xlink:title="HelixKalman::calculateProjections">
<polygon fill="none" stroke="#000000" points="391.5,-180.6043 391.5,-200.6043 579.5,-200.6043 579.5,-180.6043 391.5,-180.6043"/>
<text text-anchor="middle" x="485.5" y="-187.6043" font-family="FreeSans" font-size="10.00" fill="#000000">HelixKalman::calculateProjections</text>
</a>
</g>
</g>
<!-- Node2&#45;&gt;Node12 -->
<g id="edge11" class="edge">
<title>Node2&#45;&gt;Node12</title>
<path fill="none" stroke="#191970" d="M346.0493,-176.6592C357.1872,-177.773 369.1026,-178.9645 381.1026,-180.1645"/>
<polygon fill="#191970" stroke="#191970" points="380.8886,-183.6605 391.1873,-181.173 381.5852,-176.6952 380.8886,-183.6605"/>
</g>
<!-- Node13 -->
<g id="node13" class="node">
<title>Node13</title>
<g id="a_node13"><a xlink:href="../../da/d87/classSimpleHit3D.html#aee4615586ba114d652ae2f53a329af8b" target="_top" xlink:title="SimpleHit3D::get_layer">
<polygon fill="none" stroke="#000000" points="418.5,-141.6043 418.5,-161.6043 552.5,-161.6043 552.5,-141.6043 418.5,-141.6043"/>
<text text-anchor="middle" x="485.5" y="-148.6043" font-family="FreeSans" font-size="10.00" fill="#000000">SimpleHit3D::get_layer</text>
</a>
</g>
</g>
<!-- Node2&#45;&gt;Node13 -->
<g id="edge12" class="edge">
<title>Node2&#45;&gt;Node13</title>
<path fill="none" stroke="#191970" d="M346.0493,-164.8521C365.6124,-162.9936 387.5744,-160.9072 408.1801,-158.9496"/>
<polygon fill="#191970" stroke="#191970" points="408.5461,-162.4307 418.1703,-158.0006 407.884,-155.4621 408.5461,-162.4307"/>
</g>
<!-- Node14 -->
<g id="node14" class="node">
<title>Node14</title>
<g id="a_node14"><a xlink:href="../../d8/d85/classHelixKalman.html#aa781eb12456b35ba08e8cdc4b4001377" target="_top" xlink:title="HelixKalman::subtractProjections">
<polygon fill="none" stroke="#000000" points="393.5,-102.6043 393.5,-122.6043 577.5,-122.6043 577.5,-102.6043 393.5,-102.6043"/>
<text text-anchor="middle" x="485.5" y="-109.6043" font-family="FreeSans" font-size="10.00" fill="#000000">HelixKalman::subtractProjections</text>
</a>
</g>
</g>
<!-- Node2&#45;&gt;Node14 -->
<g id="edge14" class="edge">
<title>Node2&#45;&gt;Node14</title>
<path fill="none" stroke="#191970" d="M307.7093,-160.5019C327.0103,-152.0531 355.8931,-140.1966 382,-132.6043 392.0544,-129.6803 402.7845,-127.0643 413.3859,-124.7647"/>
<polygon fill="#191970" stroke="#191970" points="414.4105,-128.1263 423.4845,-122.6571 412.9804,-121.274 414.4105,-128.1263"/>
</g>
<!-- Node15 -->
<g id="node15" class="node">
<title>Node15</title>
<g id="a_node15"><a xlink:href="../../d8/d85/classHelixKalman.html#ad161a0f331648bc2dc95aa1f780692c1" target="_top" xlink:title="HelixKalman::updateIntersection">
<polygon fill="none" stroke="#000000" points="394.5,-63.6043 394.5,-83.6043 576.5,-83.6043 576.5,-63.6043 394.5,-63.6043"/>
<text text-anchor="middle" x="485.5" y="-70.6043" font-family="FreeSans" font-size="10.00" fill="#000000">HelixKalman::updateIntersection</text>
</a>
</g>
</g>
<!-- Node2&#45;&gt;Node15 -->
<g id="edge15" class="edge">
<title>Node2&#45;&gt;Node15</title>
<path fill="none" stroke="#191970" d="M294.8203,-160.4969C310.8899,-143.7399 345.605,-110.3919 382,-93.6043 387.8346,-90.913 394.0156,-88.5837 400.3382,-86.5678"/>
<polygon fill="#191970" stroke="#191970" points="401.7372,-89.8059 410.3608,-83.6508 399.7811,-83.0847 401.7372,-89.8059"/>
</g>
<!-- Node5 -->
<g id="node5" class="node">
<title>Node5</title>
<g id="a_node5"><a xlink:href="../../d8/d85/classHelixKalman.html#a52cca2345c3380fc8343f006390f5c1d" target="_top" xlink:title="HelixKalman::calculate\l_dAdAp">
<polygon fill="none" stroke="#000000" points="651,-387.6043 651,-419.6043 783,-419.6043 783,-387.6043 651,-387.6043"/>
<text text-anchor="start" x="659" y="-406.6043" font-family="FreeSans" font-size="10.00" fill="#000000">HelixKalman::calculate</text>
<text text-anchor="middle" x="717" y="-394.6043" font-family="FreeSans" font-size="10.00" fill="#000000">_dAdAp</text>
</a>
</g>
</g>
<!-- Node4&#45;&gt;Node5 -->
<g id="edge4" class="edge">
<title>Node4&#45;&gt;Node5</title>
<path fill="none" stroke="#191970" d="M573.1865,-278.6976C578.8551,-281.3771 584.2033,-284.6407 589,-288.6043 622.2102,-316.0466 592.8341,-349.945 625,-378.6043 629.8659,-382.9397 635.4114,-386.5329 641.3124,-389.5096"/>
<polygon fill="#191970" stroke="#191970" points="640.2685,-392.8741 650.8313,-393.698 643.0878,-386.4669 640.2685,-392.8741"/>
</g>
<!-- Node7 -->
<g id="node7" class="node">
<title>Node7</title>
<g id="a_node7"><a xlink:href="../../d8/d85/classHelixKalman.html#ad45962489041411c135777aed0b44552" target="_top" xlink:title="HelixKalman::calculate\l_dApdp">
<polygon fill="none" stroke="#000000" points="651,-336.6043 651,-368.6043 783,-368.6043 783,-336.6043 651,-336.6043"/>
<text text-anchor="start" x="659" y="-355.6043" font-family="FreeSans" font-size="10.00" fill="#000000">HelixKalman::calculate</text>
<text text-anchor="middle" x="717" y="-343.6043" font-family="FreeSans" font-size="10.00" fill="#000000">_dApdp</text>
</a>
</g>
</g>
<!-- Node4&#45;&gt;Node7 -->
<g id="edge6" class="edge">
<title>Node4&#45;&gt;Node7</title>
<path fill="none" stroke="#191970" d="M565.328,-278.6303C573.5916,-281.2385 581.6451,-284.5083 589,-288.6043 609.6087,-300.0814 604.8327,-315.3681 625,-327.6043 630.0765,-330.6843 635.5369,-333.3921 641.174,-335.7714"/>
<polygon fill="#191970" stroke="#191970" points="640.201,-339.1472 650.7908,-339.4733 642.7157,-332.6145 640.201,-339.1472"/>
</g>
<!-- Node8 -->
<g id="node8" class="node">
<title>Node8</title>
<g id="a_node8"><a xlink:href="../../d8/d85/classHelixKalman.html#aef12e80004e0637454bf1fa4b3534233" target="_top" xlink:title="HelixKalman::calculate_dbdt">
<polygon fill="none" stroke="#000000" points="636.5,-297.6043 636.5,-317.6043 797.5,-317.6043 797.5,-297.6043 636.5,-297.6043"/>
<text text-anchor="middle" x="717" y="-304.6043" font-family="FreeSans" font-size="10.00" fill="#000000">HelixKalman::calculate_dbdt</text>
</a>
</g>
</g>
<!-- Node4&#45;&gt;Node8 -->
<g id="edge7" class="edge">
<title>Node4&#45;&gt;Node8</title>
<path fill="none" stroke="#191970" d="M545.117,-278.6477C576.4405,-283.9247 615.0003,-290.4207 647.6549,-295.9219"/>
<polygon fill="#191970" stroke="#191970" points="647.1425,-299.3849 657.585,-297.5948 648.3054,-292.4821 647.1425,-299.3849"/>
</g>
<!-- Node9 -->
<g id="node9" class="node">
<title>Node9</title>
<g id="a_node9"><a xlink:href="../../d8/d85/classHelixKalman.html#a49443f60ba396d2948ae2bde46dea8a7" target="_top" xlink:title="HelixKalman::calculate_dpdb">
<polygon fill="none" stroke="#000000" points="635,-258.6043 635,-278.6043 799,-278.6043 799,-258.6043 635,-258.6043"/>
<text text-anchor="middle" x="717" y="-265.6043" font-family="FreeSans" font-size="10.00" fill="#000000">HelixKalman::calculate_dpdb</text>
</a>
</g>
</g>
<!-- Node4&#45;&gt;Node9 -->
<g id="edge8" class="edge">
<title>Node4&#45;&gt;Node9</title>
<path fill="none" stroke="#191970" d="M587.7131,-268.6043C600.0148,-268.6043 612.5233,-268.6043 624.6725,-268.6043"/>
<polygon fill="#191970" stroke="#191970" points="624.7809,-272.1044 634.7809,-268.6043 624.7809,-265.1044 624.7809,-272.1044"/>
</g>
<!-- Node10 -->
<g id="node10" class="node">
<title>Node10</title>
<g id="a_node10"><a xlink:href="../../d8/d85/classHelixKalman.html#af9357af5c3c7c3ab96aa5031d843b505" target="_top" xlink:title="HelixKalman::calculateScattering\lVariance">
<polygon fill="none" stroke="#000000" points="625,-207.6043 625,-239.6043 809,-239.6043 809,-207.6043 625,-207.6043"/>
<text text-anchor="start" x="633" y="-226.6043" font-family="FreeSans" font-size="10.00" fill="#000000">HelixKalman::calculateScattering</text>
<text text-anchor="middle" x="717" y="-214.6043" font-family="FreeSans" font-size="10.00" fill="#000000">Variance</text>
</a>
</g>
</g>
<!-- Node4&#45;&gt;Node10 -->
<g id="edge9" class="edge">
<title>Node4&#45;&gt;Node10</title>
<path fill="none" stroke="#191970" d="M537.165,-258.5614C562.9057,-253.5578 594.8207,-247.354 624.5874,-241.5678"/>
<polygon fill="#191970" stroke="#191970" points="625.4394,-244.9678 634.5878,-239.6239 624.1037,-238.0964 625.4394,-244.9678"/>
</g>
<!-- Node4&#45;&gt;Node11 -->
<g id="edge10" class="edge">
<title>Node4&#45;&gt;Node11</title>
<path fill="none" stroke="#191970" d="M554.8974,-258.5534C566.84,-254.9857 578.7057,-250.1523 589,-243.6043 610.611,-229.8578 603.2327,-212.1019 625,-198.6043 645.4165,-185.9443 672.7139,-181.2287 692.262,-179.5084"/>
<polygon fill="#191970" stroke="#191970" points="692.7573,-182.983 702.4985,-178.8166 692.2852,-175.9989 692.7573,-182.983"/>
</g>
<!-- Node6 -->
<g id="node6" class="node">
<title>Node6</title>
<g id="a_node6"><a xlink:href="../../dc/d08/HelixKalman_8cpp.html#ab74daa0c9784c63e060bfb98cc06fbf5" target="_top" xlink:title="sign">
<polygon fill="none" stroke="#000000" points="886,-393.6043 886,-413.6043 923,-413.6043 923,-393.6043 886,-393.6043"/>
<text text-anchor="middle" x="904.5" y="-400.6043" font-family="FreeSans" font-size="10.00" fill="#000000">sign</text>
</a>
</g>
</g>
<!-- Node5&#45;&gt;Node6 -->
<g id="edge5" class="edge">
<title>Node5&#45;&gt;Node6</title>
<path fill="none" stroke="#191970" d="M783.1055,-403.6043C814.8832,-403.6043 851.3148,-403.6043 875.9091,-403.6043"/>
<polygon fill="#191970" stroke="#191970" points="875.9966,-407.1044 885.9965,-403.6043 875.9965,-400.1044 875.9966,-407.1044"/>
</g>
<!-- Node18 -->
<g id="node18" class="node">
<title>Node18</title>
<g id="a_node18"><a xlink:href="../../df/d64/sPHENIXTrackerTpc_8cpp.html#ac214f30ac1733ffd454d314bcf302b68" target="_top" xlink:title="fit_all_update">
<polygon fill="none" stroke="#000000" points="443.5,-24.6043 443.5,-44.6043 527.5,-44.6043 527.5,-24.6043 443.5,-24.6043"/>
<text text-anchor="middle" x="485.5" y="-31.6043" font-family="FreeSans" font-size="10.00" fill="#000000">fit_all_update</text>
</a>
</g>
</g>
<!-- Node17&#45;&gt;Node18 -->
<g id="edge18" class="edge">
<title>Node17&#45;&gt;Node18</title>
<path fill="none" stroke="#191970" d="M307.2842,-34.6043C337.2438,-34.6043 392.1051,-34.6043 433.0751,-34.6043"/>
<polygon fill="#191970" stroke="#191970" points="433.1683,-38.1044 443.1682,-34.6043 433.1682,-31.1044 433.1683,-38.1044"/>
</g>
<!-- Node19 -->
<g id="node19" class="node">
<title>Node19</title>
<g id="a_node19"><a xlink:href="../../d8/ddc/classsPHENIXTrackerTpc.html#a30f4826812ad760104d2bc04af947c2c" target="_top" xlink:title="sPHENIXTrackerTpc::\lfitTrack">
<polygon fill="none" stroke="#000000" points="845,-18.6043 845,-50.6043 964,-50.6043 964,-18.6043 845,-18.6043"/>
<text text-anchor="start" x="853" y="-37.6043" font-family="FreeSans" font-size="10.00" fill="#000000">sPHENIXTrackerTpc::</text>
<text text-anchor="middle" x="904.5" y="-25.6043" font-family="FreeSans" font-size="10.00" fill="#000000">fitTrack</text>
</a>
</g>
</g>
<!-- Node17&#45;&gt;Node19 -->
<g id="edge22" class="edge">
<title>Node17&#45;&gt;Node19</title>
<path fill="none" stroke="#191970" d="M307.1474,-28.7934C326.576,-23.8968 355.959,-17.2744 382,-14.6043 570.7879,4.7536 620.2323,4.9499 809,-14.6043 817.4168,-15.4761 826.1851,-16.7693 834.8472,-18.2861"/>
<polygon fill="#191970" stroke="#191970" points="834.469,-21.7755 844.9396,-20.1575 835.7453,-14.8929 834.469,-21.7755"/>
</g>
<!-- Node18&#45;&gt;Node19 -->
<g id="edge19" class="edge">
<title>Node18&#45;&gt;Node19</title>
<path fill="none" stroke="#191970" d="M527.7768,-41.8788C555.359,-46.2491 592.2003,-51.3809 625,-53.6043 706.5905,-59.1351 727.6162,-61.6215 809,-53.6043 817.4038,-52.7764 826.1642,-51.5482 834.8219,-50.1074"/>
<polygon fill="#191970" stroke="#191970" points="835.6699,-53.5119 844.9108,-48.3296 834.4551,-46.6182 835.6699,-53.5119"/>
</g>
<!-- Node20 -->
<g id="node20" class="node">
<title>Node20</title>
<g id="a_node20"><a xlink:href="../../df/d64/sPHENIXTrackerTpc_8cpp.html#ac54eb20254715073b98342aa07f05f55" target="_top" xlink:title="remove_bad_hits">
<polygon fill="none" stroke="#000000" points="666,-24.6043 666,-44.6043 768,-44.6043 768,-24.6043 666,-24.6043"/>
<text text-anchor="middle" x="717" y="-31.6043" font-family="FreeSans" font-size="10.00" fill="#000000">remove_bad_hits</text>
</a>
</g>
</g>
<!-- Node18&#45;&gt;Node20 -->
<g id="edge20" class="edge">
<title>Node18&#45;&gt;Node20</title>
<path fill="none" stroke="#191970" d="M527.6915,-34.6043C563.519,-34.6043 615.4005,-34.6043 655.7936,-34.6043"/>
<polygon fill="#191970" stroke="#191970" points="655.7988,-38.1044 665.7988,-34.6043 655.7988,-31.1044 655.7988,-38.1044"/>
</g>
<!-- Node20&#45;&gt;Node19 -->
<g id="edge21" class="edge">
<title>Node20&#45;&gt;Node19</title>
<path fill="none" stroke="#191970" d="M768.2352,-34.6043C788.6409,-34.6043 812.4559,-34.6043 834.417,-34.6043"/>
<polygon fill="#191970" stroke="#191970" points="834.6906,-38.1044 844.6906,-34.6043 834.6905,-31.1044 834.6906,-38.1044"/>
</g>
</g>
</svg>
