<?xml version="1.0" encoding="UTF-8" standalone="no"?>
<!DOCTYPE svg PUBLIC "-//W3C//DTD SVG 1.1//EN"
 "http://www.w3.org/Graphics/SVG/1.1/DTD/svg11.dtd">
<!-- Generated by graphviz version 2.40.1 (20161225.0304)
 -->
<!-- Title: sPHENIXTrackerTpc::finalize Pages: 1 -->
<svg width="820pt" height="467pt"
 viewBox="0.00 0.00 820.00 467.00" xmlns="http://www.w3.org/2000/svg" xmlns:xlink="http://www.w3.org/1999/xlink">
<g id="graph0" class="graph" transform="scale(1 1) rotate(0) translate(4 463)">
<title>sPHENIXTrackerTpc::finalize</title>
<!-- Node1 -->
<g id="node1" class="node">
<title>Node1</title>
<polygon fill="#bfbfbf" stroke="#000000" points="0,-103.5 0,-135.5 119,-135.5 119,-103.5 0,-103.5"/>
<text text-anchor="start" x="8" y="-122.5" font-family="FreeSans" font-size="10.00" fill="#000000">sPHENIXTrackerTpc::</text>
<text text-anchor="middle" x="59.5" y="-110.5" font-family="FreeSans" font-size="10.00" fill="#000000">finalize</text>
</g>
<!-- Node2 -->
<g id="node2" class="node">
<title>Node2</title>
<g id="a_node2"><a xlink:href="../../d8/d85/classHelixKalman.html#a7f78a3ec79f2fe6a3a1feff6d55bb836" target="_top" xlink:title="HelixKalman::addHit">
<polygon fill="none" stroke="#000000" points="155,-219.5 155,-239.5 276,-239.5 276,-219.5 155,-219.5"/>
<text text-anchor="middle" x="215.5" y="-226.5" font-family="FreeSans" font-size="10.00" fill="#000000">HelixKalman::addHit</text>
</a>
</g>
</g>
<!-- Node1&#45;&gt;Node2 -->
<g id="edge1" class="edge">
<title>Node1&#45;&gt;Node2</title>
<path fill="none" stroke="#191970" d="M72.7266,-135.7305C89.8006,-155.7062 121.3402,-189.437 155,-209.5 158.8456,-211.7922 162.9872,-213.8594 167.2351,-215.7156"/>
<polygon fill="#191970" stroke="#191970" points="166.0451,-219.0089 176.6309,-219.4473 168.629,-212.5032 166.0451,-219.0089"/>
</g>
<!-- Node16 -->
<g id="node16" class="node">
<title>Node16</title>
<g id="a_node16"><a xlink:href="../../d8/ddc/classsPHENIXTrackerTpc.html#a30f4826812ad760104d2bc04af947c2c" target="_top" xlink:title="sPHENIXTrackerTpc::\lfitTrack">
<polygon fill="none" stroke="#000000" points="156,-168.5 156,-200.5 275,-200.5 275,-168.5 156,-168.5"/>
<text text-anchor="start" x="164" y="-187.5" font-family="FreeSans" font-size="10.00" fill="#000000">sPHENIXTrackerTpc::</text>
<text text-anchor="middle" x="215.5" y="-175.5" font-family="FreeSans" font-size="10.00" fill="#000000">fitTrack</text>
</a>
</g>
</g>
<!-- Node1&#45;&gt;Node16 -->
<g id="edge16" class="edge">
<title>Node1&#45;&gt;Node16</title>
<path fill="none" stroke="#191970" d="M98.0618,-135.5674C119.0621,-144.3175 145.2381,-155.2242 167.5446,-164.5186"/>
<polygon fill="#191970" stroke="#191970" points="166.2642,-167.7767 176.8411,-168.3921 168.9565,-161.3152 166.2642,-167.7767"/>
</g>
<!-- Node17 -->
<g id="node17" class="node">
<title>Node17</title>
<g id="a_node17"><a xlink:href="../../da/d87/classSimpleHit3D.html#a98fa97a2342d92664c8d209abcb203a0" target="_top" xlink:title="SimpleHit3D::set_x">
<polygon fill="none" stroke="#000000" points="159,-129.5 159,-149.5 272,-149.5 272,-129.5 159,-129.5"/>
<text text-anchor="middle" x="215.5" y="-136.5" font-family="FreeSans" font-size="10.00" fill="#000000">SimpleHit3D::set_x</text>
</a>
</g>
</g>
<!-- Node1&#45;&gt;Node17 -->
<g id="edge17" class="edge">
<title>Node1&#45;&gt;Node17</title>
<path fill="none" stroke="#191970" d="M119.3675,-127.1753C128.997,-128.4099 139.0168,-129.6945 148.7947,-130.948"/>
<polygon fill="#191970" stroke="#191970" points="148.5063,-134.4396 158.8702,-132.2398 149.3965,-127.4965 148.5063,-134.4396"/>
</g>
<!-- Node18 -->
<g id="node18" class="node">
<title>Node18</title>
<g id="a_node18"><a xlink:href="../../da/d87/classSimpleHit3D.html#a2a84d48f124328807104d2777b096e76" target="_top" xlink:title="SimpleHit3D::set_y">
<polygon fill="none" stroke="#000000" points="159,-90.5 159,-110.5 272,-110.5 272,-90.5 159,-90.5"/>
<text text-anchor="middle" x="215.5" y="-97.5" font-family="FreeSans" font-size="10.00" fill="#000000">SimpleHit3D::set_y</text>
</a>
</g>
</g>
<!-- Node1&#45;&gt;Node18 -->
<g id="edge18" class="edge">
<title>Node1&#45;&gt;Node18</title>
<path fill="none" stroke="#191970" d="M119.3675,-112.2084C128.997,-111.0356 139.0168,-109.8153 148.7947,-108.6244"/>
<polygon fill="#191970" stroke="#191970" points="149.3667,-112.0806 158.8702,-107.3972 148.5204,-105.132 149.3667,-112.0806"/>
</g>
<!-- Node19 -->
<g id="node19" class="node">
<title>Node19</title>
<g id="a_node19"><a xlink:href="../../da/d87/classSimpleHit3D.html#aa81b4fd05eb07529e4576b82a2887f4c" target="_top" xlink:title="SimpleHit3D::set_z">
<polygon fill="none" stroke="#000000" points="159.5,-51.5 159.5,-71.5 271.5,-71.5 271.5,-51.5 159.5,-51.5"/>
<text text-anchor="middle" x="215.5" y="-58.5" font-family="FreeSans" font-size="10.00" fill="#000000">SimpleHit3D::set_z</text>
</a>
</g>
</g>
<!-- Node1&#45;&gt;Node19 -->
<g id="edge19" class="edge">
<title>Node1&#45;&gt;Node19</title>
<path fill="none" stroke="#191970" d="M96.8667,-103.3962C114.3857,-96.0642 135.6251,-87.4847 155,-80.5 160.5069,-78.5147 166.3362,-76.5345 172.1164,-74.6428"/>
<polygon fill="#191970" stroke="#191970" points="173.2795,-77.9455 181.7321,-71.5577 171.1409,-71.2801 173.2795,-77.9455"/>
</g>
<!-- Node20 -->
<g id="node20" class="node">
<title>Node20</title>
<g id="a_node20"><a xlink:href="../../d8/ddc/classsPHENIXTrackerTpc.html#a27f7f8522040f4e74c12628cc6057685" target="_top" xlink:title="sPHENIXTrackerTpc::\ltripletRejection">
<polygon fill="none" stroke="#000000" points="156,-.5 156,-32.5 275,-32.5 275,-.5 156,-.5"/>
<text text-anchor="start" x="164" y="-19.5" font-family="FreeSans" font-size="10.00" fill="#000000">sPHENIXTrackerTpc::</text>
<text text-anchor="middle" x="215.5" y="-7.5" font-family="FreeSans" font-size="10.00" fill="#000000">tripletRejection</text>
</a>
</g>
</g>
<!-- Node1&#45;&gt;Node20 -->
<g id="edge20" class="edge">
<title>Node1&#45;&gt;Node20</title>
<path fill="none" stroke="#191970" d="M75.9582,-103.4938C94.1424,-86.4494 124.8582,-59.5009 155,-41.5 157.5994,-39.9476 160.313,-38.4476 163.0888,-37.0058"/>
<polygon fill="#191970" stroke="#191970" points="164.6509,-40.1381 172.1026,-32.6068 161.5807,-33.8473 164.6509,-40.1381"/>
</g>
<!-- Node3 -->
<g id="node3" class="node">
<title>Node3</title>
<g id="a_node3"><a xlink:href="../../d8/d85/classHelixKalman.html#a4270073df4ee9ffc5f0fe83a8329211e" target="_top" xlink:title="HelixKalman::calculateMeasurements">
<polygon fill="none" stroke="#000000" points="312,-336.5 312,-356.5 519,-356.5 519,-336.5 312,-336.5"/>
<text text-anchor="middle" x="415.5" y="-343.5" font-family="FreeSans" font-size="10.00" fill="#000000">HelixKalman::calculateMeasurements</text>
</a>
</g>
</g>
<!-- Node2&#45;&gt;Node3 -->
<g id="edge2" class="edge">
<title>Node2&#45;&gt;Node3</title>
<path fill="none" stroke="#191970" d="M222.3623,-239.6884C236.5259,-259.8411 271.117,-304.7232 312,-326.5 316.7953,-329.0543 321.8703,-331.2851 327.0957,-333.2331"/>
<polygon fill="#191970" stroke="#191970" points="326.0417,-336.5712 336.6357,-336.4429 328.274,-329.9367 326.0417,-336.5712"/>
</g>
<!-- Node4 -->
<g id="node4" class="node">
<title>Node4</title>
<g id="a_node4"><a xlink:href="../../d8/d85/classHelixKalman.html#a55adf1f408113d0e3994b07e7d629c6b" target="_top" xlink:title="HelixKalman::calculateMSCovariance">
<polygon fill="none" stroke="#000000" points="313.5,-297.5 313.5,-317.5 517.5,-317.5 517.5,-297.5 313.5,-297.5"/>
<text text-anchor="middle" x="415.5" y="-304.5" font-family="FreeSans" font-size="10.00" fill="#000000">HelixKalman::calculateMSCovariance</text>
</a>
</g>
</g>
<!-- Node2&#45;&gt;Node4 -->
<g id="edge3" class="edge">
<title>Node2&#45;&gt;Node4</title>
<path fill="none" stroke="#191970" d="M230.9239,-239.6596C249.4718,-251.4704 281.879,-270.8301 312,-282.5 324.8301,-287.4708 338.9492,-291.6645 352.523,-295.1128"/>
<polygon fill="#191970" stroke="#191970" points="351.7398,-298.5243 362.2843,-297.4924 353.3978,-291.7235 351.7398,-298.5243"/>
</g>
<!-- Node11 -->
<g id="node11" class="node">
<title>Node11</title>
<g id="a_node11"><a xlink:href="../../d9/d03/KFParticleBaseSIMD_8h.html#a4cd33935de91662c0644140e301499e5" target="_top" xlink:title="Returns charge of the particle.">
<polygon fill="none" stroke="#000000" points="632.5,-207.5 632.5,-227.5 661.5,-227.5 661.5,-207.5 632.5,-207.5"/>
<text text-anchor="middle" x="647" y="-214.5" font-family="FreeSans" font-size="10.00" fill="#000000">Q</text>
</a>
</g>
</g>
<!-- Node2&#45;&gt;Node11 -->
<g id="edge13" class="edge">
<title>Node2&#45;&gt;Node11</title>
<path fill="none" stroke="#191970" d="M257.0373,-239.5149C273.9742,-243.1167 293.8159,-246.7269 312,-248.5 403.5657,-257.4285 428.188,-263.2368 519,-248.5 535.6477,-245.7984 538.7132,-240.8799 555,-236.5 577.5135,-230.4457 603.5693,-225.2286 622.1921,-221.8014"/>
<polygon fill="#191970" stroke="#191970" points="622.9931,-225.2136 632.2151,-219.9976 621.7532,-218.3243 622.9931,-225.2136"/>
</g>
<!-- Node12 -->
<g id="node12" class="node">
<title>Node12</title>
<g id="a_node12"><a xlink:href="../../d8/d85/classHelixKalman.html#a0f3fb5cf1e01e1043cea2936f7a89101" target="_top" xlink:title="HelixKalman::calculateProjections">
<polygon fill="none" stroke="#000000" points="321.5,-219.5 321.5,-239.5 509.5,-239.5 509.5,-219.5 321.5,-219.5"/>
<text text-anchor="middle" x="415.5" y="-226.5" font-family="FreeSans" font-size="10.00" fill="#000000">HelixKalman::calculateProjections</text>
</a>
</g>
</g>
<!-- Node2&#45;&gt;Node12 -->
<g id="edge11" class="edge">
<title>Node2&#45;&gt;Node12</title>
<path fill="none" stroke="#191970" d="M276.0493,-229.5C287.1872,-229.5 299.1026,-229.5 311.1026,-229.5"/>
<polygon fill="#191970" stroke="#191970" points="311.1873,-233.0001 321.1873,-229.5 311.1872,-226.0001 311.1873,-233.0001"/>
</g>
<!-- Node13 -->
<g id="node13" class="node">
<title>Node13</title>
<g id="a_node13"><a xlink:href="../../da/d87/classSimpleHit3D.html#aee4615586ba114d652ae2f53a329af8b" target="_top" xlink:title="SimpleHit3D::get_layer">
<polygon fill="none" stroke="#000000" points="348.5,-180.5 348.5,-200.5 482.5,-200.5 482.5,-180.5 348.5,-180.5"/>
<text text-anchor="middle" x="415.5" y="-187.5" font-family="FreeSans" font-size="10.00" fill="#000000">SimpleHit3D::get_layer</text>
</a>
</g>
</g>
<!-- Node2&#45;&gt;Node13 -->
<g id="edge12" class="edge">
<title>Node2&#45;&gt;Node13</title>
<path fill="none" stroke="#191970" d="M263.0672,-219.4169C278.6458,-216.1747 296.0476,-212.6169 312,-209.5 324.1672,-207.1227 337.1563,-204.6707 349.6768,-202.3506"/>
<polygon fill="#191970" stroke="#191970" points="350.3933,-205.7776 359.5928,-200.5222 349.1239,-198.8936 350.3933,-205.7776"/>
</g>
<!-- Node14 -->
<g id="node14" class="node">
<title>Node14</title>
<g id="a_node14"><a xlink:href="../../d8/d85/classHelixKalman.html#aa781eb12456b35ba08e8cdc4b4001377" target="_top" xlink:title="HelixKalman::subtractProjections">
<polygon fill="none" stroke="#000000" points="323.5,-141.5 323.5,-161.5 507.5,-161.5 507.5,-141.5 323.5,-141.5"/>
<text text-anchor="middle" x="415.5" y="-148.5" font-family="FreeSans" font-size="10.00" fill="#000000">HelixKalman::subtractProjections</text>
</a>
</g>
</g>
<!-- Node2&#45;&gt;Node14 -->
<g id="edge14" class="edge">
<title>Node2&#45;&gt;Node14</title>
<path fill="none" stroke="#191970" d="M255.5486,-219.4566C262.6558,-216.7971 269.7692,-213.5142 276,-209.5 295.83,-196.7245 291.338,-181.8809 312,-170.5 315.6905,-168.4672 319.556,-166.6465 323.5351,-165.0162"/>
<polygon fill="#191970" stroke="#191970" points="324.8128,-168.2756 332.9969,-161.5472 322.4032,-161.7034 324.8128,-168.2756"/>
</g>
<!-- Node15 -->
<g id="node15" class="node">
<title>Node15</title>
<g id="a_node15"><a xlink:href="../../d8/d85/classHelixKalman.html#ad161a0f331648bc2dc95aa1f780692c1" target="_top" xlink:title="HelixKalman::updateIntersection">
<polygon fill="none" stroke="#000000" points="324.5,-102.5 324.5,-122.5 506.5,-122.5 506.5,-102.5 324.5,-102.5"/>
<text text-anchor="middle" x="415.5" y="-109.5" font-family="FreeSans" font-size="10.00" fill="#000000">HelixKalman::updateIntersection</text>
</a>
</g>
</g>
<!-- Node2&#45;&gt;Node15 -->
<g id="edge15" class="edge">
<title>Node2&#45;&gt;Node15</title>
<path fill="none" stroke="#191970" d="M260.4284,-219.3669C266.0803,-216.7863 271.4613,-213.5522 276,-209.5 304.4812,-184.0717 281.8367,-154.9085 312,-131.5 313.8176,-130.0894 315.7069,-128.7716 317.6563,-127.541"/>
<polygon fill="#191970" stroke="#191970" points="319.4528,-130.5479 326.554,-122.6851 316.0994,-124.4034 319.4528,-130.5479"/>
</g>
<!-- Node5 -->
<g id="node5" class="node">
<title>Node5</title>
<g id="a_node5"><a xlink:href="../../d8/d85/classHelixKalman.html#a52cca2345c3380fc8343f006390f5c1d" target="_top" xlink:title="HelixKalman::calculate\l_dAdAp">
<polygon fill="none" stroke="#000000" points="581,-426.5 581,-458.5 713,-458.5 713,-426.5 581,-426.5"/>
<text text-anchor="start" x="589" y="-445.5" font-family="FreeSans" font-size="10.00" fill="#000000">HelixKalman::calculate</text>
<text text-anchor="middle" x="647" y="-433.5" font-family="FreeSans" font-size="10.00" fill="#000000">_dAdAp</text>
</a>
</g>
</g>
<!-- Node4&#45;&gt;Node5 -->
<g id="edge4" class="edge">
<title>Node4&#45;&gt;Node5</title>
<path fill="none" stroke="#191970" d="M505.1529,-317.662C510.0903,-320.1099 514.7588,-323.0286 519,-326.5 552.3379,-353.7871 522.9791,-387.6787 555,-416.5 559.8575,-420.8722 565.3972,-424.5144 571.2944,-427.5479"/>
<polygon fill="#191970" stroke="#191970" points="570.2535,-430.9176 580.8089,-431.8312 573.127,-424.5346 570.2535,-430.9176"/>
</g>
<!-- Node7 -->
<g id="node7" class="node">
<title>Node7</title>
<g id="a_node7"><a xlink:href="../../d8/d85/classHelixKalman.html#ad45962489041411c135777aed0b44552" target="_top" xlink:title="HelixKalman::calculate\l_dApdp">
<polygon fill="none" stroke="#000000" points="581,-375.5 581,-407.5 713,-407.5 713,-375.5 581,-375.5"/>
<text text-anchor="start" x="589" y="-394.5" font-family="FreeSans" font-size="10.00" fill="#000000">HelixKalman::calculate</text>
<text text-anchor="middle" x="647" y="-382.5" font-family="FreeSans" font-size="10.00" fill="#000000">_dApdp</text>
</a>
</g>
</g>
<!-- Node4&#45;&gt;Node7 -->
<g id="edge6" class="edge">
<title>Node4&#45;&gt;Node7</title>
<path fill="none" stroke="#191970" d="M498.0031,-317.5472C505.325,-319.9426 512.4391,-322.8862 519,-326.5 539.662,-337.8809 534.8947,-353.1622 555,-365.5 560.0751,-368.6144 565.5345,-371.3664 571.1708,-373.7966"/>
<polygon fill="#191970" stroke="#191970" points="570.2,-377.1761 580.7867,-377.5897 572.7686,-370.6644 570.2,-377.1761"/>
</g>
<!-- Node8 -->
<g id="node8" class="node">
<title>Node8</title>
<g id="a_node8"><a xlink:href="../../d8/d85/classHelixKalman.html#aef12e80004e0637454bf1fa4b3534233" target="_top" xlink:title="HelixKalman::calculate_dbdt">
<polygon fill="none" stroke="#000000" points="566.5,-336.5 566.5,-356.5 727.5,-356.5 727.5,-336.5 566.5,-336.5"/>
<text text-anchor="middle" x="647" y="-343.5" font-family="FreeSans" font-size="10.00" fill="#000000">HelixKalman::calculate_dbdt</text>
</a>
</g>
</g>
<!-- Node4&#45;&gt;Node8 -->
<g id="edge7" class="edge">
<title>Node4&#45;&gt;Node8</title>
<path fill="none" stroke="#191970" d="M475.117,-317.5435C506.4405,-322.8204 545.0003,-329.3165 577.6549,-334.8177"/>
<polygon fill="#191970" stroke="#191970" points="577.1425,-338.2806 587.585,-336.4906 578.3054,-331.3779 577.1425,-338.2806"/>
</g>
<!-- Node9 -->
<g id="node9" class="node">
<title>Node9</title>
<g id="a_node9"><a xlink:href="../../d8/d85/classHelixKalman.html#a49443f60ba396d2948ae2bde46dea8a7" target="_top" xlink:title="HelixKalman::calculate_dpdb">
<polygon fill="none" stroke="#000000" points="565,-297.5 565,-317.5 729,-317.5 729,-297.5 565,-297.5"/>
<text text-anchor="middle" x="647" y="-304.5" font-family="FreeSans" font-size="10.00" fill="#000000">HelixKalman::calculate_dpdb</text>
</a>
</g>
</g>
<!-- Node4&#45;&gt;Node9 -->
<g id="edge8" class="edge">
<title>Node4&#45;&gt;Node9</title>
<path fill="none" stroke="#191970" d="M517.7131,-307.5C530.0148,-307.5 542.5233,-307.5 554.6725,-307.5"/>
<polygon fill="#191970" stroke="#191970" points="554.7809,-311.0001 564.7809,-307.5 554.7809,-304.0001 554.7809,-311.0001"/>
</g>
<!-- Node10 -->
<g id="node10" class="node">
<title>Node10</title>
<g id="a_node10"><a xlink:href="../../d8/d85/classHelixKalman.html#af9357af5c3c7c3ab96aa5031d843b505" target="_top" xlink:title="HelixKalman::calculateScattering\lVariance">
<polygon fill="none" stroke="#000000" points="555,-246.5 555,-278.5 739,-278.5 739,-246.5 555,-246.5"/>
<text text-anchor="start" x="563" y="-265.5" font-family="FreeSans" font-size="10.00" fill="#000000">HelixKalman::calculateScattering</text>
<text text-anchor="middle" x="647" y="-253.5" font-family="FreeSans" font-size="10.00" fill="#000000">Variance</text>
</a>
</g>
</g>
<!-- Node4&#45;&gt;Node10 -->
<g id="edge9" class="edge">
<title>Node4&#45;&gt;Node10</title>
<path fill="none" stroke="#191970" d="M467.165,-297.4571C492.9057,-292.4535 524.8207,-286.2497 554.5874,-280.4636"/>
<polygon fill="#191970" stroke="#191970" points="555.4394,-283.8635 564.5878,-278.5196 554.1037,-276.9922 555.4394,-283.8635"/>
</g>
<!-- Node4&#45;&gt;Node11 -->
<g id="edge10" class="edge">
<title>Node4&#45;&gt;Node11</title>
<path fill="none" stroke="#191970" d="M485.2268,-297.4584C497.0716,-293.8893 508.8185,-289.053 519,-282.5 540.8303,-268.4496 532.9385,-250.1845 555,-236.5 575.3697,-223.8649 602.674,-219.4752 622.2366,-218.028"/>
<polygon fill="#191970" stroke="#191970" points="622.6813,-221.5094 632.4817,-217.4843 622.3103,-214.5192 622.6813,-221.5094"/>
</g>
<!-- Node6 -->
<g id="node6" class="node">
<title>Node6</title>
<g id="a_node6"><a xlink:href="../../dc/d08/HelixKalman_8cpp.html#ab74daa0c9784c63e060bfb98cc06fbf5" target="_top" xlink:title="sign">
<polygon fill="none" stroke="#000000" points="775,-432.5 775,-452.5 812,-452.5 812,-432.5 775,-432.5"/>
<text text-anchor="middle" x="793.5" y="-439.5" font-family="FreeSans" font-size="10.00" fill="#000000">sign</text>
</a>
</g>
</g>
<!-- Node5&#45;&gt;Node6 -->
<g id="edge5" class="edge">
<title>Node5&#45;&gt;Node6</title>
<path fill="none" stroke="#191970" d="M713.3918,-442.5C731.2492,-442.5 749.655,-442.5 764.314,-442.5"/>
<polygon fill="#191970" stroke="#191970" points="764.7223,-446.0001 774.7223,-442.5 764.7223,-439.0001 764.7223,-446.0001"/>
</g>
</g>
</svg>
