<?xml version="1.0" encoding="UTF-8" standalone="no"?>
<!DOCTYPE svg PUBLIC "-//W3C//DTD SVG 1.1//EN"
 "http://www.w3.org/Graphics/SVG/1.1/DTD/svg11.dtd">
<!-- Generated by graphviz version 2.40.1 (20161225.0304)
 -->
<!-- Title: DaughterIds Pages: 1 -->
<svg width="681pt" height="92pt"
 viewBox="0.00 0.00 681.00 92.00" xmlns="http://www.w3.org/2000/svg" xmlns:xlink="http://www.w3.org/1999/xlink">
<g id="graph0" class="graph" transform="scale(1 1) rotate(0) translate(4 88)">
<title>DaughterIds</title>
<!-- Node1 -->
<g id="node1" class="node">
<title>Node1</title>
<polygon fill="#bfbfbf" stroke="#000000" points="0,-31.5 0,-51.5 78,-51.5 78,-31.5 0,-31.5"/>
<text text-anchor="middle" x="39" y="-38.5" font-family="FreeSans" font-size="10.00" fill="#000000">DaughterIds</text>
</g>
<!-- Node2 -->
<g id="node2" class="node">
<title>Node2</title>
<g id="a_node2"><a xlink:href="../../d2/d3d/classKFParticleFinder.html#a4ef976ffd76ed2d50940a5d5bb766795" target="_top" xlink:title="KFParticleFinder::Combine\lPartPart">
<polygon fill="none" stroke="#000000" points="120,-51.5 120,-83.5 268,-83.5 268,-51.5 120,-51.5"/>
<text text-anchor="start" x="128" y="-70.5" font-family="FreeSans" font-size="10.00" fill="#000000">KFParticleFinder::Combine</text>
<text text-anchor="middle" x="194" y="-58.5" font-family="FreeSans" font-size="10.00" fill="#000000">PartPart</text>
</a>
</g>
</g>
<!-- Node1&#45;&gt;Node2 -->
<g id="edge1" class="edge">
<title>Node1&#45;&gt;Node2</title>
<path fill="none" stroke="#191970" d="M87.9798,-49.716C98.1307,-51.4187 109.0403,-53.2487 119.8623,-55.064"/>
<polygon fill="#191970" stroke="#191970" points="88.5543,-46.2635 78.113,-48.0609 87.3962,-53.1671 88.5543,-46.2635"/>
</g>
<!-- Node5 -->
<g id="node5" class="node">
<title>Node5</title>
<g id="a_node5"><a xlink:href="../../db/d6d/classKFParticleTopoReconstructor.html#ab6e474eb923fc715a9bfba891436de48" target="_top" xlink:title="KFParticleTopoReconstructor\l::SelectParticleCandidates">
<polygon fill="none" stroke="#000000" points="114,-.5 114,-32.5 274,-32.5 274,-.5 114,-.5"/>
<text text-anchor="start" x="122" y="-19.5" font-family="FreeSans" font-size="10.00" fill="#000000">KFParticleTopoReconstructor</text>
<text text-anchor="middle" x="194" y="-7.5" font-family="FreeSans" font-size="10.00" fill="#000000">::SelectParticleCandidates</text>
</a>
</g>
</g>
<!-- Node1&#45;&gt;Node5 -->
<g id="edge4" class="edge">
<title>Node1&#45;&gt;Node5</title>
<path fill="none" stroke="#191970" d="M88.1854,-33.5669C96.3698,-32.2468 105.0426,-30.848 113.7617,-29.4417"/>
<polygon fill="#191970" stroke="#191970" points="87.4281,-30.1437 78.113,-35.1914 88.5428,-37.0544 87.4281,-30.1437"/>
</g>
<!-- Node3 -->
<g id="node3" class="node">
<title>Node3</title>
<g id="a_node3"><a xlink:href="../../d2/d3d/classKFParticleFinder.html#a3ad831d1b28cce4689501e369f561926" target="_top" xlink:title="KFParticleFinder::FindParticles">
<polygon fill="none" stroke="#000000" points="310,-57.5 310,-77.5 477,-77.5 477,-57.5 310,-57.5"/>
<text text-anchor="middle" x="393.5" y="-64.5" font-family="FreeSans" font-size="10.00" fill="#000000">KFParticleFinder::FindParticles</text>
</a>
</g>
</g>
<!-- Node2&#45;&gt;Node3 -->
<g id="edge2" class="edge">
<title>Node2&#45;&gt;Node3</title>
<path fill="none" stroke="#191970" d="M278.0183,-67.5C288.5578,-67.5 299.3377,-67.5 309.8712,-67.5"/>
<polygon fill="#191970" stroke="#191970" points="278.003,-64.0001 268.0029,-67.5 278.0029,-71.0001 278.003,-64.0001"/>
</g>
<!-- Node4 -->
<g id="node4" class="node">
<title>Node4</title>
<g id="a_node4"><a xlink:href="../../db/d6d/classKFParticleTopoReconstructor.html#a3013eefd4e16b74ae39c531678623d08" target="_top" xlink:title="KFParticleTopoReconstructor\l::ReconstructParticles">
<polygon fill="none" stroke="#000000" points="513,-51.5 513,-83.5 673,-83.5 673,-51.5 513,-51.5"/>
<text text-anchor="start" x="521" y="-70.5" font-family="FreeSans" font-size="10.00" fill="#000000">KFParticleTopoReconstructor</text>
<text text-anchor="middle" x="593" y="-58.5" font-family="FreeSans" font-size="10.00" fill="#000000">::ReconstructParticles</text>
</a>
</g>
</g>
<!-- Node3&#45;&gt;Node4 -->
<g id="edge3" class="edge">
<title>Node3&#45;&gt;Node4</title>
<path fill="none" stroke="#191970" d="M487.2835,-67.5C495.8763,-67.5 504.5283,-67.5 512.9834,-67.5"/>
<polygon fill="#191970" stroke="#191970" points="487.2389,-64.0001 477.2388,-67.5 487.2388,-71.0001 487.2389,-64.0001"/>
</g>
</g>
</svg>
