<?xml version="1.0" encoding="UTF-8" standalone="no"?>
<!DOCTYPE svg PUBLIC "-//W3C//DTD SVG 1.1//EN"
 "http://www.w3.org/Graphics/SVG/1.1/DTD/svg11.dtd">
<!-- Generated by graphviz version 2.40.1 (20161225.0304)
 -->
<!-- Title: GetNDF Pages: 1 -->
<svg width="633pt" height="41pt"
 viewBox="0.00 0.00 633.00 41.00" xmlns="http://www.w3.org/2000/svg" xmlns:xlink="http://www.w3.org/1999/xlink">
<g id="graph0" class="graph" transform="scale(1 1) rotate(0) translate(4 37)">
<title>GetNDF</title>
<!-- Node1 -->
<g id="node1" class="node">
<title>Node1</title>
<polygon fill="#bfbfbf" stroke="#000000" points="0,-6.5 0,-26.5 55,-26.5 55,-6.5 0,-6.5"/>
<text text-anchor="middle" x="27.5" y="-13.5" font-family="FreeSans" font-size="10.00" fill="#000000">GetNDF</text>
</g>
<!-- Node2 -->
<g id="node2" class="node">
<title>Node2</title>
<g id="a_node2"><a xlink:href="../../d2/d3d/classKFParticleFinder.html#a179059d24166483347104b74e9ad6b48" target="_top" xlink:title="KFParticleFinder::Select\lParticles">
<polygon fill="none" stroke="#000000" points="91,-.5 91,-32.5 226,-32.5 226,-.5 91,-.5"/>
<text text-anchor="start" x="99" y="-19.5" font-family="FreeSans" font-size="10.00" fill="#000000">KFParticleFinder::Select</text>
<text text-anchor="middle" x="158.5" y="-7.5" font-family="FreeSans" font-size="10.00" fill="#000000">Particles</text>
</a>
</g>
</g>
<!-- Node1&#45;&gt;Node2 -->
<g id="edge1" class="edge">
<title>Node1&#45;&gt;Node2</title>
<path fill="none" stroke="#191970" d="M65.3881,-16.5C73.4124,-16.5 82.1135,-16.5 90.8655,-16.5"/>
<polygon fill="#191970" stroke="#191970" points="65.2818,-13.0001 55.2817,-16.5 65.2817,-20.0001 65.2818,-13.0001"/>
</g>
<!-- Node3 -->
<g id="node3" class="node">
<title>Node3</title>
<g id="a_node3"><a xlink:href="../../d2/d3d/classKFParticleFinder.html#a3ad831d1b28cce4689501e369f561926" target="_top" xlink:title="KFParticleFinder::FindParticles">
<polygon fill="none" stroke="#000000" points="262,-6.5 262,-26.5 429,-26.5 429,-6.5 262,-6.5"/>
<text text-anchor="middle" x="345.5" y="-13.5" font-family="FreeSans" font-size="10.00" fill="#000000">KFParticleFinder::FindParticles</text>
</a>
</g>
</g>
<!-- Node2&#45;&gt;Node3 -->
<g id="edge2" class="edge">
<title>Node2&#45;&gt;Node3</title>
<path fill="none" stroke="#191970" d="M236.2079,-16.5C244.655,-16.5 253.2793,-16.5 261.794,-16.5"/>
<polygon fill="#191970" stroke="#191970" points="236.0113,-13.0001 226.0113,-16.5 236.0113,-20.0001 236.0113,-13.0001"/>
</g>
<!-- Node4 -->
<g id="node4" class="node">
<title>Node4</title>
<g id="a_node4"><a xlink:href="../../db/d6d/classKFParticleTopoReconstructor.html#a3013eefd4e16b74ae39c531678623d08" target="_top" xlink:title="KFParticleTopoReconstructor\l::ReconstructParticles">
<polygon fill="none" stroke="#000000" points="465,-.5 465,-32.5 625,-32.5 625,-.5 465,-.5"/>
<text text-anchor="start" x="473" y="-19.5" font-family="FreeSans" font-size="10.00" fill="#000000">KFParticleTopoReconstructor</text>
<text text-anchor="middle" x="545" y="-7.5" font-family="FreeSans" font-size="10.00" fill="#000000">::ReconstructParticles</text>
</a>
</g>
</g>
<!-- Node3&#45;&gt;Node4 -->
<g id="edge3" class="edge">
<title>Node3&#45;&gt;Node4</title>
<path fill="none" stroke="#191970" d="M439.2835,-16.5C447.8763,-16.5 456.5283,-16.5 464.9834,-16.5"/>
<polygon fill="#191970" stroke="#191970" points="439.2389,-13.0001 429.2388,-16.5 439.2388,-20.0001 439.2389,-13.0001"/>
</g>
</g>
</svg>
