<?xml version="1.0" encoding="UTF-8" standalone="no"?>
<!DOCTYPE svg PUBLIC "-//W3C//DTD SVG 1.1//EN"
 "http://www.w3.org/Graphics/SVG/1.1/DTD/svg11.dtd">
<!-- Generated by graphviz version 2.40.1 (20161225.0304)
 -->
<!-- Title: Id Pages: 1 -->
<svg width="852pt" height="188pt"
 viewBox="0.00 0.00 852.00 188.00" xmlns="http://www.w3.org/2000/svg" xmlns:xlink="http://www.w3.org/1999/xlink">
<g id="graph0" class="graph" transform="scale(1 1) rotate(0) translate(4 184)">
<title>Id</title>
<!-- Node1 -->
<g id="node1" class="node">
<title>Node1</title>
<polygon fill="#bfbfbf" stroke="#000000" points="0,-79.5 0,-99.5 29,-99.5 29,-79.5 0,-79.5"/>
<text text-anchor="middle" x="14.5" y="-86.5" font-family="FreeSans" font-size="10.00" fill="#000000">Id</text>
</g>
<!-- Node2 -->
<g id="node2" class="node">
<title>Node2</title>
<g id="a_node2"><a xlink:href="../../d2/d3d/classKFParticleFinder.html#a4ef976ffd76ed2d50940a5d5bb766795" target="_top" xlink:title="KFParticleFinder::Combine\lPartPart">
<polygon fill="none" stroke="#000000" points="281.5,-147.5 281.5,-179.5 429.5,-179.5 429.5,-147.5 281.5,-147.5"/>
<text text-anchor="start" x="289.5" y="-166.5" font-family="FreeSans" font-size="10.00" fill="#000000">KFParticleFinder::Combine</text>
<text text-anchor="middle" x="355.5" y="-154.5" font-family="FreeSans" font-size="10.00" fill="#000000">PartPart</text>
</a>
</g>
</g>
<!-- Node1&#45;&gt;Node2 -->
<g id="edge1" class="edge">
<title>Node1&#45;&gt;Node2</title>
<path fill="none" stroke="#191970" d="M29.906,-106.9496C39.1166,-116.172 51.61,-126.7465 65,-132.5 134.2018,-162.235 220.8692,-167.904 281.4537,-167.4217"/>
<polygon fill="#191970" stroke="#191970" points="32.413,-104.5067 22.9936,-99.6563 27.3323,-109.322 32.413,-104.5067"/>
</g>
<!-- Node5 -->
<g id="node5" class="node">
<title>Node5</title>
<g id="a_node5"><a xlink:href="../../d2/d3d/classKFParticleFinder.html#a555c027cc00bc7d9461470d5c200b993" target="_top" xlink:title="KFParticleFinder::ConstructV0">
<polygon fill="none" stroke="#000000" points="65,-102.5 65,-122.5 230,-122.5 230,-102.5 65,-102.5"/>
<text text-anchor="middle" x="147.5" y="-109.5" font-family="FreeSans" font-size="10.00" fill="#000000">KFParticleFinder::ConstructV0</text>
</a>
</g>
</g>
<!-- Node1&#45;&gt;Node5 -->
<g id="edge4" class="edge">
<title>Node1&#45;&gt;Node5</title>
<path fill="none" stroke="#191970" d="M39.1898,-93.7697C53.4027,-96.2275 71.9025,-99.4268 89.5799,-102.4837"/>
<polygon fill="#191970" stroke="#191970" points="39.6917,-90.3046 29.2415,-92.0493 38.4988,-97.2022 39.6917,-90.3046"/>
</g>
<!-- Node8 -->
<g id="node8" class="node">
<title>Node8</title>
<g id="a_node8"><a xlink:href="../../db/d6d/classKFParticleTopoReconstructor.html#ad61db3013ff7eb0f9b211de658987b93" target="_top" xlink:title="KFParticleTopoReconstructor\l::Init">
<polygon fill="none" stroke="#000000" points="67.5,-51.5 67.5,-83.5 227.5,-83.5 227.5,-51.5 67.5,-51.5"/>
<text text-anchor="start" x="75.5" y="-70.5" font-family="FreeSans" font-size="10.00" fill="#000000">KFParticleTopoReconstructor</text>
<text text-anchor="middle" x="147.5" y="-58.5" font-family="FreeSans" font-size="10.00" fill="#000000">::Init</text>
</a>
</g>
</g>
<!-- Node1&#45;&gt;Node8 -->
<g id="edge9" class="edge">
<title>Node1&#45;&gt;Node8</title>
<path fill="none" stroke="#191970" d="M39.2149,-85.4118C47.5045,-84.0406 57.2503,-82.4285 67.4398,-80.743"/>
<polygon fill="#191970" stroke="#191970" points="38.5362,-81.9764 29.2415,-87.0616 39.6786,-88.8826 38.5362,-81.9764"/>
</g>
<!-- Node9 -->
<g id="node9" class="node">
<title>Node9</title>
<g id="a_node9"><a xlink:href="../../db/d6d/classKFParticleTopoReconstructor.html#a38f4e130f31190edf7184f0d8b545299" target="_top" xlink:title="KFParticleTopoReconstructor\l::SaveInputParticles">
<polygon fill="none" stroke="#000000" points="67.5,-.5 67.5,-32.5 227.5,-32.5 227.5,-.5 67.5,-.5"/>
<text text-anchor="start" x="75.5" y="-19.5" font-family="FreeSans" font-size="10.00" fill="#000000">KFParticleTopoReconstructor</text>
<text text-anchor="middle" x="147.5" y="-7.5" font-family="FreeSans" font-size="10.00" fill="#000000">::SaveInputParticles</text>
</a>
</g>
</g>
<!-- Node1&#45;&gt;Node9 -->
<g id="edge10" class="edge">
<title>Node1&#45;&gt;Node9</title>
<path fill="none" stroke="#191970" d="M29.4096,-71.6721C38.7166,-61.5528 51.4719,-49.3742 65,-41.5 70.8205,-38.1121 77.144,-35.1427 83.6136,-32.5495"/>
<polygon fill="#191970" stroke="#191970" points="26.7349,-69.4133 22.7359,-79.2245 31.9804,-74.0485 26.7349,-69.4133"/>
</g>
<!-- Node3 -->
<g id="node3" class="node">
<title>Node3</title>
<g id="a_node3"><a xlink:href="../../d2/d3d/classKFParticleFinder.html#a3ad831d1b28cce4689501e369f561926" target="_top" xlink:title="KFParticleFinder::FindParticles">
<polygon fill="none" stroke="#000000" points="481,-102.5 481,-122.5 648,-122.5 648,-102.5 481,-102.5"/>
<text text-anchor="middle" x="564.5" y="-109.5" font-family="FreeSans" font-size="10.00" fill="#000000">KFParticleFinder::FindParticles</text>
</a>
</g>
</g>
<!-- Node2&#45;&gt;Node3 -->
<g id="edge2" class="edge">
<title>Node2&#45;&gt;Node3</title>
<path fill="none" stroke="#191970" d="M431.2821,-145.0077C462.3421,-137.4285 497.0717,-128.9538 523.2819,-122.558"/>
<polygon fill="#191970" stroke="#191970" points="430.2272,-141.6623 421.342,-147.4333 431.8867,-148.4628 430.2272,-141.6623"/>
</g>
<!-- Node4 -->
<g id="node4" class="node">
<title>Node4</title>
<g id="a_node4"><a xlink:href="../../db/d6d/classKFParticleTopoReconstructor.html#a3013eefd4e16b74ae39c531678623d08" target="_top" xlink:title="KFParticleTopoReconstructor\l::ReconstructParticles">
<polygon fill="none" stroke="#000000" points="684,-96.5 684,-128.5 844,-128.5 844,-96.5 684,-96.5"/>
<text text-anchor="start" x="692" y="-115.5" font-family="FreeSans" font-size="10.00" fill="#000000">KFParticleTopoReconstructor</text>
<text text-anchor="middle" x="764" y="-103.5" font-family="FreeSans" font-size="10.00" fill="#000000">::ReconstructParticles</text>
</a>
</g>
</g>
<!-- Node3&#45;&gt;Node4 -->
<g id="edge3" class="edge">
<title>Node3&#45;&gt;Node4</title>
<path fill="none" stroke="#191970" d="M658.2835,-112.5C666.8763,-112.5 675.5283,-112.5 683.9834,-112.5"/>
<polygon fill="#191970" stroke="#191970" points="658.2389,-109.0001 648.2388,-112.5 658.2388,-116.0001 658.2389,-109.0001"/>
</g>
<!-- Node6 -->
<g id="node6" class="node">
<title>Node6</title>
<g id="a_node6"><a xlink:href="../../d2/d3d/classKFParticleFinder.html#a3f6967ae8b6839bc7de48991eaa812ef" target="_top" xlink:title="KFParticleFinder::Find2Daughter\lDecay">
<polygon fill="none" stroke="#000000" points="266,-96.5 266,-128.5 445,-128.5 445,-96.5 266,-96.5"/>
<text text-anchor="start" x="274" y="-115.5" font-family="FreeSans" font-size="10.00" fill="#000000">KFParticleFinder::Find2Daughter</text>
<text text-anchor="middle" x="355.5" y="-103.5" font-family="FreeSans" font-size="10.00" fill="#000000">Decay</text>
</a>
</g>
</g>
<!-- Node5&#45;&gt;Node6 -->
<g id="edge5" class="edge">
<title>Node5&#45;&gt;Node6</title>
<path fill="none" stroke="#191970" d="M240.0359,-112.5C248.6336,-112.5 257.3371,-112.5 265.9075,-112.5"/>
<polygon fill="#191970" stroke="#191970" points="240.0059,-109.0001 230.0059,-112.5 240.0058,-116.0001 240.0059,-109.0001"/>
</g>
<!-- Node7 -->
<g id="node7" class="node">
<title>Node7</title>
<g id="a_node7"><a xlink:href="../../d2/d3d/classKFParticleFinder.html#ae68561ffcd9f3bf3e8230604678105c5" target="_top" xlink:title="KFParticleFinder::Construct\lPrimaryBG">
<polygon fill="none" stroke="#000000" points="279,-45.5 279,-77.5 432,-77.5 432,-45.5 279,-45.5"/>
<text text-anchor="start" x="287" y="-64.5" font-family="FreeSans" font-size="10.00" fill="#000000">KFParticleFinder::Construct</text>
<text text-anchor="middle" x="355.5" y="-52.5" font-family="FreeSans" font-size="10.00" fill="#000000">PrimaryBG</text>
</a>
</g>
</g>
<!-- Node5&#45;&gt;Node7 -->
<g id="edge7" class="edge">
<title>Node5&#45;&gt;Node7</title>
<path fill="none" stroke="#191970" d="M198.7888,-100.1028C209.1244,-97.5943 219.911,-94.9689 230,-92.5 249.7288,-87.672 271.1929,-82.3834 290.6998,-77.5632"/>
<polygon fill="#191970" stroke="#191970" points="197.9487,-96.705 189.0552,-102.4631 199.5984,-103.5078 197.9487,-96.705"/>
</g>
<!-- Node6&#45;&gt;Node3 -->
<g id="edge6" class="edge">
<title>Node6&#45;&gt;Node3</title>
<path fill="none" stroke="#191970" d="M455.0951,-112.5C463.6862,-112.5 472.3215,-112.5 480.7682,-112.5"/>
<polygon fill="#191970" stroke="#191970" points="455.0444,-109.0001 445.0443,-112.5 455.0443,-116.0001 455.0444,-109.0001"/>
</g>
<!-- Node7&#45;&gt;Node3 -->
<g id="edge8" class="edge">
<title>Node7&#45;&gt;Node3</title>
<path fill="none" stroke="#191970" d="M431.2821,-79.9923C462.3421,-87.5715 497.0717,-96.0462 523.2819,-102.442"/>
<polygon fill="#191970" stroke="#191970" points="431.8867,-76.5372 421.342,-77.5667 430.2272,-83.3377 431.8867,-76.5372"/>
</g>
</g>
</svg>
