<?xml version="1.0" encoding="UTF-8" standalone="no"?>
<!DOCTYPE svg PUBLIC "-//W3C//DTD SVG 1.1//EN"
 "http://www.w3.org/Graphics/SVG/1.1/DTD/svg11.dtd">
<!-- Generated by graphviz version 2.40.1 (20161225.0304)
 -->
<!-- Title: GenFit/blob/master/finitePlanes/include/RectangularFinitePlane.h Pages: 1 -->
<svg width="154pt" height="167pt"
 viewBox="0.00 0.00 154.00 167.00" xmlns="http://www.w3.org/2000/svg" xmlns:xlink="http://www.w3.org/1999/xlink">
<g id="graph0" class="graph" transform="scale(1 1) rotate(0) translate(4 163)">
<title>GenFit/blob/master/finitePlanes/include/RectangularFinitePlane.h</title>
<!-- Node1 -->
<g id="node1" class="node">
<title>Node1</title>
<polygon fill="#bfbfbf" stroke="#000000" points="0,-114.5 0,-158.5 146,-158.5 146,-114.5 0,-114.5"/>
<text text-anchor="start" x="8" y="-145.5" font-family="FreeSans" font-size="10.00" fill="#000000">GenFit/blob/master</text>
<text text-anchor="start" x="8" y="-133.5" font-family="FreeSans" font-size="10.00" fill="#000000">/finitePlanes/include</text>
<text text-anchor="middle" x="73" y="-121.5" font-family="FreeSans" font-size="10.00" fill="#000000">/RectangularFinitePlane.h</text>
</g>
<!-- Node2 -->
<g id="node2" class="node">
<title>Node2</title>
<g id="a_node2"><a xlink:href="../../d1/dd1/AbsFinitePlane_8h.html" target="_top" xlink:title="AbsFinitePlane.h">
<polygon fill="none" stroke="#000000" points="23,-57.5 23,-77.5 123,-77.5 123,-57.5 23,-57.5"/>
<text text-anchor="middle" x="73" y="-64.5" font-family="FreeSans" font-size="10.00" fill="#000000">AbsFinitePlane.h</text>
</a>
</g>
</g>
<!-- Node1&#45;&gt;Node2 -->
<g id="edge1" class="edge">
<title>Node1&#45;&gt;Node2</title>
<path fill="none" stroke="#191970" d="M73,-114.2882C73,-105.8377 73,-96.2557 73,-87.9736"/>
<polygon fill="#191970" stroke="#191970" points="76.5001,-87.7136 73,-77.7137 69.5001,-87.7137 76.5001,-87.7136"/>
</g>
<!-- Node3 -->
<g id="node3" class="node">
<title>Node3</title>
<polygon fill="none" stroke="#bfbfbf" points="43,-.5 43,-20.5 103,-20.5 103,-.5 43,-.5"/>
<text text-anchor="middle" x="73" y="-7.5" font-family="FreeSans" font-size="10.00" fill="#000000">Rtypes.h</text>
</g>
<!-- Node2&#45;&gt;Node3 -->
<g id="edge2" class="edge">
<title>Node2&#45;&gt;Node3</title>
<path fill="none" stroke="#191970" d="M73,-57.3095C73,-49.9335 73,-39.72 73,-30.715"/>
<polygon fill="#191970" stroke="#191970" points="76.5001,-30.6022 73,-20.6022 69.5001,-30.6023 76.5001,-30.6022"/>
</g>
</g>
</svg>
