<?xml version="1.0" encoding="UTF-8" standalone="no"?>
<!DOCTYPE svg PUBLIC "-//W3C//DTD SVG 1.1//EN"
 "http://www.w3.org/Graphics/SVG/1.1/DTD/svg11.dtd">
<!-- Generated by graphviz version 2.40.1 (20161225.0304)
 -->
<!-- Title: GenFit/blob/master/measurements/include/ProlateSpacepointMeasurement.h Pages: 1 -->
<svg width="893pt" height="134pt"
 viewBox="0.00 0.00 893.00 134.00" xmlns="http://www.w3.org/2000/svg" xmlns:xlink="http://www.w3.org/1999/xlink">
<g id="graph0" class="graph" transform="scale(1 1) rotate(0) translate(4 130)">
<title>GenFit/blob/master/measurements/include/ProlateSpacepointMeasurement.h</title>
<!-- Node1 -->
<g id="node1" class="node">
<title>Node1</title>
<polygon fill="#bfbfbf" stroke="#000000" points="406,-81.5 406,-125.5 597,-125.5 597,-81.5 406,-81.5"/>
<text text-anchor="start" x="414" y="-112.5" font-family="FreeSans" font-size="10.00" fill="#000000">GenFit/blob/master</text>
<text text-anchor="start" x="414" y="-100.5" font-family="FreeSans" font-size="10.00" fill="#000000">/measurements/include</text>
<text text-anchor="middle" x="501.5" y="-88.5" font-family="FreeSans" font-size="10.00" fill="#000000">/ProlateSpacepointMeasurement.h</text>
</g>
<!-- Node2 -->
<g id="node2" class="node">
<title>Node2</title>
<g id="a_node2"><a xlink:href="../../d0/d12/EventDisplay_8cc.html" target="_top" xlink:title="GenFit/blob/master\l/eventDisplay/src/EventDisplay.cc">
<polygon fill="none" stroke="#000000" points="0,-6.5 0,-38.5 187,-38.5 187,-6.5 0,-6.5"/>
<text text-anchor="start" x="8" y="-25.5" font-family="FreeSans" font-size="10.00" fill="#000000">GenFit/blob/master</text>
<text text-anchor="middle" x="93.5" y="-13.5" font-family="FreeSans" font-size="10.00" fill="#000000">/eventDisplay/src/EventDisplay.cc</text>
</a>
</g>
</g>
<!-- Node1&#45;&gt;Node2 -->
<g id="edge1" class="edge">
<title>Node1&#45;&gt;Node2</title>
<path fill="none" stroke="#191970" d="M395.8617,-83.9261C337.0883,-72.8632 262.6557,-58.5679 196.5,-45 186.5486,-42.9591 176.071,-40.7456 165.763,-38.5302"/>
<polygon fill="#191970" stroke="#191970" points="395.4257,-87.4053 405.9002,-85.8129 396.7188,-80.5258 395.4257,-87.4053"/>
</g>
<!-- Node3 -->
<g id="node3" class="node">
<title>Node3</title>
<g id="a_node3"><a xlink:href="../../d1/dbb/ProlateSpacepointMeasurement_8cc.html" target="_top" xlink:title="GenFit/blob/master\l/measurements/src/ProlateSpacepoint\lMeasurement.cc">
<polygon fill="none" stroke="#000000" points="205.5,-.5 205.5,-44.5 415.5,-44.5 415.5,-.5 205.5,-.5"/>
<text text-anchor="start" x="213.5" y="-31.5" font-family="FreeSans" font-size="10.00" fill="#000000">GenFit/blob/master</text>
<text text-anchor="start" x="213.5" y="-19.5" font-family="FreeSans" font-size="10.00" fill="#000000">/measurements/src/ProlateSpacepoint</text>
<text text-anchor="middle" x="310.5" y="-7.5" font-family="FreeSans" font-size="10.00" fill="#000000">Measurement.cc</text>
</a>
</g>
</g>
<!-- Node1&#45;&gt;Node3 -->
<g id="edge2" class="edge">
<title>Node1&#45;&gt;Node3</title>
<path fill="none" stroke="#191970" d="M440.1516,-77.4832C415.095,-66.8571 386.426,-54.699 362.429,-44.5222"/>
<polygon fill="#191970" stroke="#191970" points="438.9878,-80.7913 449.5607,-81.4734 441.7209,-74.3468 438.9878,-80.7913"/>
</g>
<!-- Node4 -->
<g id="node4" class="node">
<title>Node4</title>
<g id="a_node4"><a xlink:href="../../d0/d48/GenFit_2blob_2master_2test_2fitterTests_2main_8cc.html" target="_top" xlink:title="GenFit/blob/master\l/test/fitterTests/main.cc">
<polygon fill="none" stroke="#000000" points="434,-6.5 434,-38.5 569,-38.5 569,-6.5 434,-6.5"/>
<text text-anchor="start" x="442" y="-25.5" font-family="FreeSans" font-size="10.00" fill="#000000">GenFit/blob/master</text>
<text text-anchor="middle" x="501.5" y="-13.5" font-family="FreeSans" font-size="10.00" fill="#000000">/test/fitterTests/main.cc</text>
</a>
</g>
</g>
<!-- Node1&#45;&gt;Node4 -->
<g id="edge3" class="edge">
<title>Node1&#45;&gt;Node4</title>
<path fill="none" stroke="#191970" d="M501.5,-71.0737C501.5,-59.9468 501.5,-47.9724 501.5,-38.6969"/>
<polygon fill="#191970" stroke="#191970" points="498.0001,-71.3664 501.5,-81.3664 505.0001,-71.3664 498.0001,-71.3664"/>
</g>
<!-- Node5 -->
<g id="node5" class="node">
<title>Node5</title>
<g id="a_node5"><a xlink:href="../../d9/d33/GenFit_2blob_2master_2test_2unitTests_2main_8cc.html" target="_top" xlink:title="GenFit/blob/master\l/test/unitTests/main.cc">
<polygon fill="none" stroke="#000000" points="587,-6.5 587,-38.5 718,-38.5 718,-6.5 587,-6.5"/>
<text text-anchor="start" x="595" y="-25.5" font-family="FreeSans" font-size="10.00" fill="#000000">GenFit/blob/master</text>
<text text-anchor="middle" x="652.5" y="-13.5" font-family="FreeSans" font-size="10.00" fill="#000000">/test/unitTests/main.cc</text>
</a>
</g>
</g>
<!-- Node1&#45;&gt;Node5 -->
<g id="edge4" class="edge">
<title>Node1&#45;&gt;Node5</title>
<path fill="none" stroke="#191970" d="M551.8431,-76.4948C575.1907,-63.9705 602.1622,-49.5024 622.3058,-38.6969"/>
<polygon fill="#191970" stroke="#191970" points="549.9191,-73.555 542.7614,-81.3664 553.2281,-79.7235 549.9191,-73.555"/>
</g>
<!-- Node6 -->
<g id="node6" class="node">
<title>Node6</title>
<g id="a_node6"><a xlink:href="../../da/dc3/MeasurementCreator_8cc.html" target="_top" xlink:title="GenFit/blob/master\l/utilities/src/Measurement\lCreator.cc">
<polygon fill="none" stroke="#000000" points="736,-.5 736,-44.5 885,-44.5 885,-.5 736,-.5"/>
<text text-anchor="start" x="744" y="-31.5" font-family="FreeSans" font-size="10.00" fill="#000000">GenFit/blob/master</text>
<text text-anchor="start" x="744" y="-19.5" font-family="FreeSans" font-size="10.00" fill="#000000">/utilities/src/Measurement</text>
<text text-anchor="middle" x="810.5" y="-7.5" font-family="FreeSans" font-size="10.00" fill="#000000">Creator.cc</text>
</a>
</g>
</g>
<!-- Node1&#45;&gt;Node6 -->
<g id="edge5" class="edge">
<title>Node1&#45;&gt;Node6</title>
<path fill="none" stroke="#191970" d="M597.4769,-78.9147C637.6767,-68.5501 684.8825,-56.2918 727.5,-45 730.242,-44.2735 733.0343,-43.5309 735.8541,-42.7785"/>
<polygon fill="#191970" stroke="#191970" points="596.4931,-75.5538 587.6826,-81.4382 598.2397,-82.3324 596.4931,-75.5538"/>
</g>
</g>
</svg>
