<?xml version="1.0" encoding="UTF-8" standalone="no"?>
<!DOCTYPE svg PUBLIC "-//W3C//DTD SVG 1.1//EN"
 "http://www.w3.org/Graphics/SVG/1.1/DTD/svg11.dtd">
<!-- Generated by graphviz version 2.40.1 (20161225.0304)
 -->
<!-- Title: gbl::VMatrix::getNumRows Pages: 1 -->
<svg width="896pt" height="105pt"
 viewBox="0.00 0.00 896.00 105.00" xmlns="http://www.w3.org/2000/svg" xmlns:xlink="http://www.w3.org/1999/xlink">
<g id="graph0" class="graph" transform="scale(1 1) rotate(0) translate(4 101)">
<title>gbl::VMatrix::getNumRows</title>
<!-- Node1 -->
<g id="node1" class="node">
<title>Node1</title>
<polygon fill="#bfbfbf" stroke="#000000" points="0,-53.5 0,-73.5 151,-73.5 151,-53.5 0,-53.5"/>
<text text-anchor="middle" x="75.5" y="-60.5" font-family="FreeSans" font-size="10.00" fill="#000000">gbl::VMatrix::getNumRows</text>
</g>
<!-- Node2 -->
<g id="node2" class="node">
<title>Node2</title>
<g id="a_node2"><a xlink:href="../../db/d4d/classgbl_1_1VMatrix.html#a811cd368f0d9cfd87902987bfb02a21e" target="_top" xlink:title="Assignment Matrix=Matrix.">
<polygon fill="none" stroke="#000000" points="191,-76.5 191,-96.5 326,-96.5 326,-76.5 191,-76.5"/>
<text text-anchor="middle" x="258.5" y="-83.5" font-family="FreeSans" font-size="10.00" fill="#000000">gbl::VMatrix::operator=</text>
</a>
</g>
</g>
<!-- Node1&#45;&gt;Node2 -->
<g id="edge1" class="edge">
<title>Node1&#45;&gt;Node2</title>
<path fill="none" stroke="#191970" d="M161.2026,-74.2714C171.1998,-75.5278 181.2896,-76.796 190.9921,-78.0154"/>
<polygon fill="#191970" stroke="#191970" points="161.6125,-70.7954 151.2541,-73.021 160.7395,-77.7408 161.6125,-70.7954"/>
</g>
<!-- Node3 -->
<g id="node3" class="node">
<title>Node3</title>
<g id="a_node3"><a xlink:href="../../df/d71/classgbl_1_1BorderedBandMatrix.html#a2ce0b189c173d6b6848ccc60093bfd4a" target="_top" xlink:title="Solve for band part.">
<polygon fill="none" stroke="#000000" points="187,-25.5 187,-57.5 330,-57.5 330,-25.5 187,-25.5"/>
<text text-anchor="start" x="195" y="-44.5" font-family="FreeSans" font-size="10.00" fill="#000000">gbl::BorderedBandMatrix</text>
<text text-anchor="middle" x="258.5" y="-32.5" font-family="FreeSans" font-size="10.00" fill="#000000">::solveBand</text>
</a>
</g>
</g>
<!-- Node1&#45;&gt;Node3 -->
<g id="edge2" class="edge">
<title>Node1&#45;&gt;Node3</title>
<path fill="none" stroke="#191970" d="M161.2772,-53.188C169.8572,-52.1565 178.5047,-51.1169 186.9161,-50.1057"/>
<polygon fill="#191970" stroke="#191970" points="160.7648,-49.7243 151.2541,-54.393 161.6004,-56.6743 160.7648,-49.7243"/>
</g>
<!-- Node4 -->
<g id="node4" class="node">
<title>Node4</title>
<g id="a_node4"><a xlink:href="../../df/d71/classgbl_1_1BorderedBandMatrix.html#ab4f118be904adfb83c77d1efa3b4f243" target="_top" xlink:title="Solve linear equation system, partially calculate inverse.">
<polygon fill="none" stroke="#000000" points="366,-25.5 366,-57.5 537,-57.5 537,-25.5 366,-25.5"/>
<text text-anchor="start" x="374" y="-44.5" font-family="FreeSans" font-size="10.00" fill="#000000">gbl::BorderedBandMatrix</text>
<text text-anchor="middle" x="451.5" y="-32.5" font-family="FreeSans" font-size="10.00" fill="#000000">::solveAndInvertBorderedBand</text>
</a>
</g>
</g>
<!-- Node3&#45;&gt;Node4 -->
<g id="edge3" class="edge">
<title>Node3&#45;&gt;Node4</title>
<path fill="none" stroke="#191970" d="M340.3451,-41.5C348.8288,-41.5 357.4672,-41.5 365.9897,-41.5"/>
<polygon fill="#191970" stroke="#191970" points="340.0918,-38.0001 330.0918,-41.5 340.0918,-45.0001 340.0918,-38.0001"/>
</g>
<!-- Node5 -->
<g id="node5" class="node">
<title>Node5</title>
<g id="a_node5"><a xlink:href="../../dc/d6b/classgbl_1_1GblTrajectory.html#a1a4e58cca5eb9bc922b8fc02dae884da" target="_top" xlink:title="Perform fit of (valid) trajectory.">
<polygon fill="none" stroke="#000000" points="573,-31.5 573,-51.5 696,-51.5 696,-31.5 573,-31.5"/>
<text text-anchor="middle" x="634.5" y="-38.5" font-family="FreeSans" font-size="10.00" fill="#000000">gbl::GblTrajectory::fit</text>
</a>
</g>
</g>
<!-- Node4&#45;&gt;Node5 -->
<g id="edge4" class="edge">
<title>Node4&#45;&gt;Node5</title>
<path fill="none" stroke="#191970" d="M547.3234,-41.5C556.0227,-41.5 564.6697,-41.5 572.9491,-41.5"/>
<polygon fill="#191970" stroke="#191970" points="547.1062,-38.0001 537.1062,-41.5 547.1061,-45.0001 547.1062,-38.0001"/>
</g>
<!-- Node6 -->
<g id="node6" class="node">
<title>Node6</title>
<g id="a_node6"><a xlink:href="../../d3/d7b/classgenfit_1_1GFGbl.html#a0fbc16a1bcfe612c536b616be8239689" target="_top" xlink:title="genfit::GFGbl::processTrack\lWithRep">
<polygon fill="none" stroke="#000000" points="732,-51.5 732,-83.5 888,-83.5 888,-51.5 732,-51.5"/>
<text text-anchor="start" x="740" y="-70.5" font-family="FreeSans" font-size="10.00" fill="#000000">genfit::GFGbl::processTrack</text>
<text text-anchor="middle" x="810" y="-58.5" font-family="FreeSans" font-size="10.00" fill="#000000">WithRep</text>
</a>
</g>
</g>
<!-- Node5&#45;&gt;Node6 -->
<g id="edge5" class="edge">
<title>Node5&#45;&gt;Node6</title>
<path fill="none" stroke="#191970" d="M706.4425,-52.1581C714.794,-53.3954 723.343,-54.6619 731.7734,-55.9109"/>
<polygon fill="#191970" stroke="#191970" points="706.7797,-48.67 696.3747,-50.6666 705.7538,-55.5944 706.7797,-48.67"/>
</g>
<!-- Node7 -->
<g id="node7" class="node">
<title>Node7</title>
<g id="a_node7"><a xlink:href="../../d1/dc8/classgenfit_1_1GblFitter.html#a4be6bdc46ad9f13aef275aea2b01f438" target="_top" xlink:title="genfit::GblFitter::\lprocessTrackWithRep">
<polygon fill="none" stroke="#000000" points="748,-.5 748,-32.5 872,-32.5 872,-.5 748,-.5"/>
<text text-anchor="start" x="756" y="-19.5" font-family="FreeSans" font-size="10.00" fill="#000000">genfit::GblFitter::</text>
<text text-anchor="middle" x="810" y="-7.5" font-family="FreeSans" font-size="10.00" fill="#000000">processTrackWithRep</text>
</a>
</g>
</g>
<!-- Node5&#45;&gt;Node7 -->
<g id="edge6" class="edge">
<title>Node5&#45;&gt;Node7</title>
<path fill="none" stroke="#191970" d="M706.2835,-31.2744C720.051,-29.3132 734.3613,-27.2748 747.7962,-25.3609"/>
<polygon fill="#191970" stroke="#191970" points="705.7812,-27.8106 696.3747,-32.6859 706.7684,-34.7406 705.7812,-27.8106"/>
</g>
</g>
</svg>
