<?xml version="1.0" encoding="UTF-8" standalone="no"?>
<!DOCTYPE svg PUBLIC "-//W3C//DTD SVG 1.1//EN"
 "http://www.w3.org/Graphics/SVG/1.1/DTD/svg11.dtd">
<!-- Generated by graphviz version 2.40.1 (20161225.0304)
 -->
<!-- Title: gbl::VMatrix::getNumCols Pages: 1 -->
<svg width="903pt" height="144pt"
 viewBox="0.00 0.00 903.00 144.00" xmlns="http://www.w3.org/2000/svg" xmlns:xlink="http://www.w3.org/1999/xlink">
<g id="graph0" class="graph" transform="scale(1 1) rotate(0) translate(4 140)">
<title>gbl::VMatrix::getNumCols</title>
<!-- Node1 -->
<g id="node1" class="node">
<title>Node1</title>
<polygon fill="#bfbfbf" stroke="#000000" points="0,-76.5 0,-96.5 146,-96.5 146,-76.5 0,-76.5"/>
<text text-anchor="middle" x="73" y="-83.5" font-family="FreeSans" font-size="10.00" fill="#000000">gbl::VMatrix::getNumCols</text>
</g>
<!-- Node2 -->
<g id="node2" class="node">
<title>Node2</title>
<g id="a_node2"><a xlink:href="../../d8/d90/classgbl_1_1VSymMatrix.html#a2380432ebf05d636896251b7ea77a290" target="_top" xlink:title="Multiplication SymMatrix*Matrix.">
<polygon fill="none" stroke="#000000" points="182,-115.5 182,-135.5 337,-135.5 337,-115.5 182,-115.5"/>
<text text-anchor="middle" x="259.5" y="-122.5" font-family="FreeSans" font-size="10.00" fill="#000000">gbl::VSymMatrix::operator*</text>
</a>
</g>
</g>
<!-- Node1&#45;&gt;Node2 -->
<g id="edge1" class="edge">
<title>Node1&#45;&gt;Node2</title>
<path fill="none" stroke="#191970" d="M131.0872,-98.6469C156.9655,-104.0585 187.0768,-110.3552 211.6344,-115.4906"/>
<polygon fill="#191970" stroke="#191970" points="131.5331,-95.1645 121.0284,-96.5435 130.1002,-102.0163 131.5331,-95.1645"/>
</g>
<!-- Node3 -->
<g id="node3" class="node">
<title>Node3</title>
<g id="a_node3"><a xlink:href="../../db/d4d/classgbl_1_1VMatrix.html#a811cd368f0d9cfd87902987bfb02a21e" target="_top" xlink:title="Assignment Matrix=Matrix.">
<polygon fill="none" stroke="#000000" points="192,-76.5 192,-96.5 327,-96.5 327,-76.5 192,-76.5"/>
<text text-anchor="middle" x="259.5" y="-83.5" font-family="FreeSans" font-size="10.00" fill="#000000">gbl::VMatrix::operator=</text>
</a>
</g>
</g>
<!-- Node1&#45;&gt;Node3 -->
<g id="edge2" class="edge">
<title>Node1&#45;&gt;Node3</title>
<path fill="none" stroke="#191970" d="M156.4634,-86.5C168.2552,-86.5 180.2581,-86.5 191.7066,-86.5"/>
<polygon fill="#191970" stroke="#191970" points="156.1745,-83.0001 146.1745,-86.5 156.1744,-90.0001 156.1745,-83.0001"/>
</g>
<!-- Node4 -->
<g id="node4" class="node">
<title>Node4</title>
<g id="a_node4"><a xlink:href="../../df/d71/classgbl_1_1BorderedBandMatrix.html#a2ce0b189c173d6b6848ccc60093bfd4a" target="_top" xlink:title="Solve for band part.">
<polygon fill="none" stroke="#000000" points="188,-25.5 188,-57.5 331,-57.5 331,-25.5 188,-25.5"/>
<text text-anchor="start" x="196" y="-44.5" font-family="FreeSans" font-size="10.00" fill="#000000">gbl::BorderedBandMatrix</text>
<text text-anchor="middle" x="259.5" y="-32.5" font-family="FreeSans" font-size="10.00" fill="#000000">::solveBand</text>
</a>
</g>
</g>
<!-- Node1&#45;&gt;Node4 -->
<g id="edge3" class="edge">
<title>Node1&#45;&gt;Node4</title>
<path fill="none" stroke="#191970" d="M124.5972,-74.0503C145.721,-68.9534 170.434,-62.9905 192.8954,-57.5708"/>
<polygon fill="#191970" stroke="#191970" points="123.7543,-70.6531 114.8542,-76.4011 125.3962,-77.4578 123.7543,-70.6531"/>
</g>
<!-- Node5 -->
<g id="node5" class="node">
<title>Node5</title>
<g id="a_node5"><a xlink:href="../../df/d71/classgbl_1_1BorderedBandMatrix.html#ab4f118be904adfb83c77d1efa3b4f243" target="_top" xlink:title="Solve linear equation system, partially calculate inverse.">
<polygon fill="none" stroke="#000000" points="373,-25.5 373,-57.5 544,-57.5 544,-25.5 373,-25.5"/>
<text text-anchor="start" x="381" y="-44.5" font-family="FreeSans" font-size="10.00" fill="#000000">gbl::BorderedBandMatrix</text>
<text text-anchor="middle" x="458.5" y="-32.5" font-family="FreeSans" font-size="10.00" fill="#000000">::solveAndInvertBorderedBand</text>
</a>
</g>
</g>
<!-- Node4&#45;&gt;Node5 -->
<g id="edge4" class="edge">
<title>Node4&#45;&gt;Node5</title>
<path fill="none" stroke="#191970" d="M341.3824,-41.5C351.8089,-41.5 362.502,-41.5 372.9839,-41.5"/>
<polygon fill="#191970" stroke="#191970" points="341.0625,-38.0001 331.0624,-41.5 341.0624,-45.0001 341.0625,-38.0001"/>
</g>
<!-- Node6 -->
<g id="node6" class="node">
<title>Node6</title>
<g id="a_node6"><a xlink:href="../../dc/d6b/classgbl_1_1GblTrajectory.html#a1a4e58cca5eb9bc922b8fc02dae884da" target="_top" xlink:title="Perform fit of (valid) trajectory.">
<polygon fill="none" stroke="#000000" points="580,-31.5 580,-51.5 703,-51.5 703,-31.5 580,-31.5"/>
<text text-anchor="middle" x="641.5" y="-38.5" font-family="FreeSans" font-size="10.00" fill="#000000">gbl::GblTrajectory::fit</text>
</a>
</g>
</g>
<!-- Node5&#45;&gt;Node6 -->
<g id="edge5" class="edge">
<title>Node5&#45;&gt;Node6</title>
<path fill="none" stroke="#191970" d="M554.3234,-41.5C563.0227,-41.5 571.6697,-41.5 579.9491,-41.5"/>
<polygon fill="#191970" stroke="#191970" points="554.1062,-38.0001 544.1062,-41.5 554.1061,-45.0001 554.1062,-38.0001"/>
</g>
<!-- Node7 -->
<g id="node7" class="node">
<title>Node7</title>
<g id="a_node7"><a xlink:href="../../d3/d7b/classgenfit_1_1GFGbl.html#a0fbc16a1bcfe612c536b616be8239689" target="_top" xlink:title="genfit::GFGbl::processTrack\lWithRep">
<polygon fill="none" stroke="#000000" points="739,-51.5 739,-83.5 895,-83.5 895,-51.5 739,-51.5"/>
<text text-anchor="start" x="747" y="-70.5" font-family="FreeSans" font-size="10.00" fill="#000000">genfit::GFGbl::processTrack</text>
<text text-anchor="middle" x="817" y="-58.5" font-family="FreeSans" font-size="10.00" fill="#000000">WithRep</text>
</a>
</g>
</g>
<!-- Node6&#45;&gt;Node7 -->
<g id="edge6" class="edge">
<title>Node6&#45;&gt;Node7</title>
<path fill="none" stroke="#191970" d="M713.4425,-52.1581C721.794,-53.3954 730.343,-54.6619 738.7734,-55.9109"/>
<polygon fill="#191970" stroke="#191970" points="713.7797,-48.67 703.3747,-50.6666 712.7538,-55.5944 713.7797,-48.67"/>
</g>
<!-- Node8 -->
<g id="node8" class="node">
<title>Node8</title>
<g id="a_node8"><a xlink:href="../../d1/dc8/classgenfit_1_1GblFitter.html#a4be6bdc46ad9f13aef275aea2b01f438" target="_top" xlink:title="genfit::GblFitter::\lprocessTrackWithRep">
<polygon fill="none" stroke="#000000" points="755,-.5 755,-32.5 879,-32.5 879,-.5 755,-.5"/>
<text text-anchor="start" x="763" y="-19.5" font-family="FreeSans" font-size="10.00" fill="#000000">genfit::GblFitter::</text>
<text text-anchor="middle" x="817" y="-7.5" font-family="FreeSans" font-size="10.00" fill="#000000">processTrackWithRep</text>
</a>
</g>
</g>
<!-- Node6&#45;&gt;Node8 -->
<g id="edge7" class="edge">
<title>Node6&#45;&gt;Node8</title>
<path fill="none" stroke="#191970" d="M713.2835,-31.2744C727.051,-29.3132 741.3613,-27.2748 754.7962,-25.3609"/>
<polygon fill="#191970" stroke="#191970" points="712.7812,-27.8106 703.3747,-32.6859 713.7684,-34.7406 712.7812,-27.8106"/>
</g>
</g>
</svg>
