<?xml version="1.0" encoding="UTF-8" standalone="no"?>
<!DOCTYPE svg PUBLIC "-//W3C//DTD SVG 1.1//EN"
 "http://www.w3.org/Graphics/SVG/1.1/DTD/svg11.dtd">
<!-- Generated by graphviz version 2.40.1 (20161225.0304)
 -->
<!-- Title: GenFit/blob/master/fitters/src/KalmanFittedStateOnPlane.cc Pages: 1 -->
<svg width="627pt" height="509pt"
 viewBox="0.00 0.00 627.00 509.00" xmlns="http://www.w3.org/2000/svg" xmlns:xlink="http://www.w3.org/1999/xlink">
<g id="graph0" class="graph" transform="scale(1 1) rotate(0) translate(4 505)">
<title>GenFit/blob/master/fitters/src/KalmanFittedStateOnPlane.cc</title>
<!-- Node1 -->
<g id="node1" class="node">
<title>Node1</title>
<polygon fill="#bfbfbf" stroke="#000000" points="252.5,-456.5 252.5,-500.5 417.5,-500.5 417.5,-456.5 252.5,-456.5"/>
<text text-anchor="start" x="260.5" y="-487.5" font-family="FreeSans" font-size="10.00" fill="#000000">GenFit/blob/master</text>
<text text-anchor="start" x="260.5" y="-475.5" font-family="FreeSans" font-size="10.00" fill="#000000">/fitters/src/KalmanFittedState</text>
<text text-anchor="middle" x="335" y="-463.5" font-family="FreeSans" font-size="10.00" fill="#000000">OnPlane.cc</text>
</g>
<!-- Node2 -->
<g id="node2" class="node">
<title>Node2</title>
<g id="a_node2"><a xlink:href="../../df/d77/KalmanFittedStateOnPlane_8h.html" target="_top" xlink:title="KalmanFittedStateOnPlane.h">
<polygon fill="none" stroke="#000000" points="254.5,-399.5 254.5,-419.5 415.5,-419.5 415.5,-399.5 254.5,-399.5"/>
<text text-anchor="middle" x="335" y="-406.5" font-family="FreeSans" font-size="10.00" fill="#000000">KalmanFittedStateOnPlane.h</text>
</a>
</g>
</g>
<!-- Node1&#45;&gt;Node2 -->
<g id="edge1" class="edge">
<title>Node1&#45;&gt;Node2</title>
<path fill="none" stroke="#191970" d="M335,-456.2882C335,-447.8377 335,-438.2557 335,-429.9736"/>
<polygon fill="#191970" stroke="#191970" points="338.5001,-429.7136 335,-419.7137 331.5001,-429.7137 338.5001,-429.7136"/>
</g>
<!-- Node3 -->
<g id="node3" class="node">
<title>Node3</title>
<g id="a_node3"><a xlink:href="../../df/dc0/MeasuredStateOnPlane_8h.html" target="_top" xlink:title="MeasuredStateOnPlane.h">
<polygon fill="none" stroke="#000000" points="263,-342.5 263,-362.5 407,-362.5 407,-342.5 263,-342.5"/>
<text text-anchor="middle" x="335" y="-349.5" font-family="FreeSans" font-size="10.00" fill="#000000">MeasuredStateOnPlane.h</text>
</a>
</g>
</g>
<!-- Node2&#45;&gt;Node3 -->
<g id="edge2" class="edge">
<title>Node2&#45;&gt;Node3</title>
<path fill="none" stroke="#191970" d="M335,-399.3095C335,-391.9335 335,-381.72 335,-372.715"/>
<polygon fill="#191970" stroke="#191970" points="338.5001,-372.6022 335,-362.6022 331.5001,-372.6023 338.5001,-372.6022"/>
</g>
<!-- Node4 -->
<g id="node4" class="node">
<title>Node4</title>
<g id="a_node4"><a xlink:href="../../db/d1a/StateOnPlane_8h.html" target="_top" xlink:title="StateOnPlane.h">
<polygon fill="none" stroke="#000000" points="181,-285.5 181,-305.5 275,-305.5 275,-285.5 181,-285.5"/>
<text text-anchor="middle" x="228" y="-292.5" font-family="FreeSans" font-size="10.00" fill="#000000">StateOnPlane.h</text>
</a>
</g>
</g>
<!-- Node3&#45;&gt;Node4 -->
<g id="edge3" class="edge">
<title>Node3&#45;&gt;Node4</title>
<path fill="none" stroke="#191970" d="M315.8705,-342.3095C299.2094,-333.434 274.8358,-320.4499 255.9829,-310.4068"/>
<polygon fill="#191970" stroke="#191970" points="257.4352,-307.2148 246.9638,-305.6022 254.1441,-313.3929 257.4352,-307.2148"/>
</g>
<!-- Node12 -->
<g id="node12" class="node">
<title>Node12</title>
<g id="a_node12"><a xlink:href="../../d4/d66/AbsTrackRep_8h.html" target="_top" xlink:title="AbsTrackRep.h">
<polygon fill="none" stroke="#000000" points="249.5,-228.5 249.5,-248.5 340.5,-248.5 340.5,-228.5 249.5,-228.5"/>
<text text-anchor="middle" x="295" y="-235.5" font-family="FreeSans" font-size="10.00" fill="#000000">AbsTrackRep.h</text>
</a>
</g>
</g>
<!-- Node3&#45;&gt;Node12 -->
<g id="edge26" class="edge">
<title>Node3&#45;&gt;Node12</title>
<path fill="none" stroke="#191970" d="M331.4503,-342.3833C324.8547,-323.586 310.601,-282.9627 302.0021,-258.4559"/>
<polygon fill="#191970" stroke="#191970" points="305.2128,-257.0351 298.5993,-248.7579 298.6076,-259.3528 305.2128,-257.0351"/>
</g>
<!-- Node18 -->
<g id="node18" class="node">
<title>Node18</title>
<polygon fill="none" stroke="#bfbfbf" points="525,-171.5 525,-191.5 619,-191.5 619,-171.5 525,-171.5"/>
<text text-anchor="middle" x="572" y="-178.5" font-family="FreeSans" font-size="10.00" fill="#000000">TMatrixDSym.h</text>
</g>
<!-- Node3&#45;&gt;Node18 -->
<g id="edge27" class="edge">
<title>Node3&#45;&gt;Node18</title>
<path fill="none" stroke="#191970" d="M349.1157,-342.3153C388.7985,-313.6834 501.5799,-232.3094 549.7483,-197.555"/>
<polygon fill="#191970" stroke="#191970" points="551.8967,-200.3209 557.9583,-191.6314 547.8009,-194.6442 551.8967,-200.3209"/>
</g>
<!-- Node19 -->
<g id="node19" class="node">
<title>Node19</title>
<polygon fill="none" stroke="#bfbfbf" points="358.5,-228.5 358.5,-248.5 411.5,-248.5 411.5,-228.5 358.5,-228.5"/>
<text text-anchor="middle" x="385" y="-235.5" font-family="FreeSans" font-size="10.00" fill="#000000">cassert</text>
</g>
<!-- Node3&#45;&gt;Node19 -->
<g id="edge28" class="edge">
<title>Node3&#45;&gt;Node19</title>
<path fill="none" stroke="#191970" d="M339.4372,-342.3833C347.7186,-323.5017 365.6588,-282.598 376.3916,-258.1272"/>
<polygon fill="#191970" stroke="#191970" points="379.6895,-259.3217 380.5009,-248.7579 373.279,-256.51 379.6895,-259.3217"/>
</g>
<!-- Node5 -->
<g id="node5" class="node">
<title>Node5</title>
<g id="a_node5"><a xlink:href="../../db/d4f/SharedPlanePtr_8h.html" target="_top" xlink:title="SharedPlanePtr.h">
<polygon fill="none" stroke="#000000" points="27,-171.5 27,-191.5 129,-191.5 129,-171.5 27,-171.5"/>
<text text-anchor="middle" x="78" y="-178.5" font-family="FreeSans" font-size="10.00" fill="#000000">SharedPlanePtr.h</text>
</a>
</g>
</g>
<!-- Node4&#45;&gt;Node5 -->
<g id="edge4" class="edge">
<title>Node4&#45;&gt;Node5</title>
<path fill="none" stroke="#191970" d="M205.2147,-285.3804C187.417,-276.9375 162.5145,-263.9097 143,-249 123.7644,-234.3033 104.9303,-213.8871 92.5294,-199.3653"/>
<polygon fill="#191970" stroke="#191970" points="95.1192,-197.0063 86.017,-191.584 89.7511,-201.499 95.1192,-197.0063"/>
</g>
<!-- Node9 -->
<g id="node9" class="node">
<title>Node9</title>
<polygon fill="none" stroke="#bfbfbf" points="288.5,-57.5 288.5,-77.5 353.5,-77.5 353.5,-57.5 288.5,-57.5"/>
<text text-anchor="middle" x="321" y="-64.5" font-family="FreeSans" font-size="10.00" fill="#000000">TObject.h</text>
</g>
<!-- Node4&#45;&gt;Node9 -->
<g id="edge23" class="edge">
<title>Node4&#45;&gt;Node9</title>
<path fill="none" stroke="#191970" d="M217.6213,-285.247C197.0573,-263.6374 154.8779,-212.0277 176,-171 198.6455,-127.0131 249.604,-97.5865 284.6513,-81.6982"/>
<polygon fill="#191970" stroke="#191970" points="286.3185,-84.7892 294.0778,-77.575 283.5133,-78.3759 286.3185,-84.7892"/>
</g>
<!-- Node4&#45;&gt;Node12 -->
<g id="edge12" class="edge">
<title>Node4&#45;&gt;Node12</title>
<path fill="none" stroke="#191970" d="M239.9783,-285.3095C249.7917,-276.9608 263.878,-264.9769 275.3409,-255.2249"/>
<polygon fill="#191970" stroke="#191970" points="277.7768,-257.7479 283.1254,-248.6022 273.2409,-252.4162 277.7768,-257.7479"/>
</g>
<!-- Node16 -->
<g id="node16" class="node">
<title>Node16</title>
<polygon fill="none" stroke="#bfbfbf" points="185,-171.5 185,-191.5 257,-191.5 257,-171.5 185,-171.5"/>
<text text-anchor="middle" x="221" y="-178.5" font-family="FreeSans" font-size="10.00" fill="#000000">TVectorD.h</text>
</g>
<!-- Node4&#45;&gt;Node16 -->
<g id="edge24" class="edge">
<title>Node4&#45;&gt;Node16</title>
<path fill="none" stroke="#191970" d="M227.3788,-285.3833C226.2298,-266.6703 223.7525,-226.3266 222.2457,-201.7866"/>
<polygon fill="#191970" stroke="#191970" points="225.7363,-201.5246 221.6299,-191.7579 218.7494,-201.9537 225.7363,-201.5246"/>
</g>
<!-- Node4&#45;&gt;Node19 -->
<g id="edge25" class="edge">
<title>Node4&#45;&gt;Node19</title>
<path fill="none" stroke="#191970" d="M255.707,-285.4408C281.6145,-276.0349 320.4571,-261.9328 348.8045,-251.641"/>
<polygon fill="#191970" stroke="#191970" points="350.15,-254.8761 358.3553,-248.1736 347.7612,-248.2964 350.15,-254.8761"/>
</g>
<!-- Node6 -->
<g id="node6" class="node">
<title>Node6</title>
<g id="a_node6"><a xlink:href="../../dc/d81/DetPlane_8h.html" target="_top" xlink:title="DetPlane.h">
<polygon fill="none" stroke="#000000" points="57.5,-114.5 57.5,-134.5 128.5,-134.5 128.5,-114.5 57.5,-114.5"/>
<text text-anchor="middle" x="93" y="-121.5" font-family="FreeSans" font-size="10.00" fill="#000000">DetPlane.h</text>
</a>
</g>
</g>
<!-- Node5&#45;&gt;Node6 -->
<g id="edge5" class="edge">
<title>Node5&#45;&gt;Node6</title>
<path fill="none" stroke="#191970" d="M80.6817,-171.3095C82.6441,-163.8524 85.3697,-153.4951 87.7583,-144.4186"/>
<polygon fill="#191970" stroke="#191970" points="91.1813,-145.1637 90.3415,-134.6022 84.4117,-143.3822 91.1813,-145.1637"/>
</g>
<!-- Node11 -->
<g id="node11" class="node">
<title>Node11</title>
<polygon fill="none" stroke="#bfbfbf" points="0,-57.5 0,-77.5 58,-77.5 58,-57.5 0,-57.5"/>
<text text-anchor="middle" x="29" y="-64.5" font-family="FreeSans" font-size="10.00" fill="#000000">memory</text>
</g>
<!-- Node5&#45;&gt;Node11 -->
<g id="edge11" class="edge">
<title>Node5&#45;&gt;Node11</title>
<path fill="none" stroke="#191970" d="M70.1417,-171.3034C63.454,-162.2089 54.0035,-148.3119 48,-135 41.1284,-119.7631 36.1624,-101.4544 33.0346,-87.7516"/>
<polygon fill="#191970" stroke="#191970" points="36.4399,-86.9388 30.9189,-77.8962 29.5958,-88.4081 36.4399,-86.9388"/>
</g>
<!-- Node7 -->
<g id="node7" class="node">
<title>Node7</title>
<g id="a_node7"><a xlink:href="../../d1/dd1/AbsFinitePlane_8h.html" target="_top" xlink:title="AbsFinitePlane.h">
<polygon fill="none" stroke="#000000" points="76,-57.5 76,-77.5 176,-77.5 176,-57.5 76,-57.5"/>
<text text-anchor="middle" x="126" y="-64.5" font-family="FreeSans" font-size="10.00" fill="#000000">AbsFinitePlane.h</text>
</a>
</g>
</g>
<!-- Node6&#45;&gt;Node7 -->
<g id="edge6" class="edge">
<title>Node6&#45;&gt;Node7</title>
<path fill="none" stroke="#191970" d="M98.8997,-114.3095C103.3578,-106.6093 109.6062,-95.8166 114.9798,-86.5349"/>
<polygon fill="#191970" stroke="#191970" points="118.1699,-88.0102 120.1513,-77.6022 112.1119,-84.5029 118.1699,-88.0102"/>
</g>
<!-- Node6&#45;&gt;Node9 -->
<g id="edge8" class="edge">
<title>Node6&#45;&gt;Node9</title>
<path fill="none" stroke="#191970" d="M128.625,-115.5938C169.0911,-105.4772 235.0933,-88.9767 278.2879,-78.178"/>
<polygon fill="#191970" stroke="#191970" points="279.3593,-81.518 288.2118,-75.697 277.6615,-74.727 279.3593,-81.518"/>
</g>
<!-- Node10 -->
<g id="node10" class="node">
<title>Node10</title>
<polygon fill="none" stroke="#bfbfbf" points="196.5,-57.5 196.5,-77.5 267.5,-77.5 267.5,-57.5 196.5,-57.5"/>
<text text-anchor="middle" x="232" y="-64.5" font-family="FreeSans" font-size="10.00" fill="#000000">TVector3.h</text>
</g>
<!-- Node6&#45;&gt;Node10 -->
<g id="edge9" class="edge">
<title>Node6&#45;&gt;Node10</title>
<path fill="none" stroke="#191970" d="M117.5304,-114.4408C139.8231,-105.2992 172.9333,-91.7216 197.8172,-81.5174"/>
<polygon fill="#191970" stroke="#191970" points="199.3229,-84.6829 207.2472,-77.6504 196.667,-78.2063 199.3229,-84.6829"/>
</g>
<!-- Node6&#45;&gt;Node11 -->
<g id="edge10" class="edge">
<title>Node6&#45;&gt;Node11</title>
<path fill="none" stroke="#191970" d="M81.5581,-114.3095C72.2751,-106.0419 58.9894,-94.2093 48.0985,-84.5096"/>
<polygon fill="#191970" stroke="#191970" points="50.1384,-81.6395 40.3429,-77.6022 45.4827,-86.8668 50.1384,-81.6395"/>
</g>
<!-- Node8 -->
<g id="node8" class="node">
<title>Node8</title>
<polygon fill="none" stroke="#bfbfbf" points="96,-.5 96,-20.5 156,-20.5 156,-.5 96,-.5"/>
<text text-anchor="middle" x="126" y="-7.5" font-family="FreeSans" font-size="10.00" fill="#000000">Rtypes.h</text>
</g>
<!-- Node7&#45;&gt;Node8 -->
<g id="edge7" class="edge">
<title>Node7&#45;&gt;Node8</title>
<path fill="none" stroke="#191970" d="M126,-57.3095C126,-49.9335 126,-39.72 126,-30.715"/>
<polygon fill="#191970" stroke="#191970" points="129.5001,-30.6022 126,-20.6022 122.5001,-30.6023 129.5001,-30.6022"/>
</g>
<!-- Node12&#45;&gt;Node5 -->
<g id="edge13" class="edge">
<title>Node12&#45;&gt;Node5</title>
<path fill="none" stroke="#191970" d="M256.7043,-228.4408C220.3272,-218.8855 165.4993,-204.4837 126.1725,-194.1536"/>
<polygon fill="#191970" stroke="#191970" points="126.8384,-190.7098 116.2772,-191.5544 125.0599,-197.4802 126.8384,-190.7098"/>
</g>
<!-- Node12&#45;&gt;Node9 -->
<g id="edge19" class="edge">
<title>Node12&#45;&gt;Node9</title>
<path fill="none" stroke="#191970" d="M296.5486,-228.3153C300.7295,-200.8178 312.3068,-124.6748 317.8983,-87.8993"/>
<polygon fill="#191970" stroke="#191970" points="321.3836,-88.2601 319.4267,-77.8476 314.4632,-87.2078 321.3836,-88.2601"/>
</g>
<!-- Node12&#45;&gt;Node10 -->
<g id="edge18" class="edge">
<title>Node12&#45;&gt;Node10</title>
<path fill="none" stroke="#191970" d="M291.2477,-228.3153C281.0734,-200.6992 252.8222,-124.0174 239.3411,-87.426"/>
<polygon fill="#191970" stroke="#191970" points="242.5536,-86.021 235.8123,-77.8476 235.9852,-88.441 242.5536,-86.021"/>
</g>
<!-- Node13 -->
<g id="node13" class="node">
<title>Node13</title>
<g id="a_node13"><a xlink:href="../../df/d12/Material_8h.html" target="_top" xlink:title="Material.h">
<polygon fill="none" stroke="#000000" points="351,-171.5 351,-191.5 417,-191.5 417,-171.5 351,-171.5"/>
<text text-anchor="middle" x="384" y="-178.5" font-family="FreeSans" font-size="10.00" fill="#000000">Material.h</text>
</a>
</g>
</g>
<!-- Node12&#45;&gt;Node13 -->
<g id="edge14" class="edge">
<title>Node12&#45;&gt;Node13</title>
<path fill="none" stroke="#191970" d="M310.9114,-228.3095C324.4534,-219.6366 344.1207,-207.0407 359.6434,-197.0992"/>
<polygon fill="#191970" stroke="#191970" points="361.693,-199.9429 368.2263,-191.6022 357.9177,-194.0481 361.693,-199.9429"/>
</g>
<!-- Node12&#45;&gt;Node16 -->
<g id="edge20" class="edge">
<title>Node12&#45;&gt;Node16</title>
<path fill="none" stroke="#191970" d="M281.7703,-228.3095C270.8264,-219.8798 255.071,-207.7439 242.3451,-197.9415"/>
<polygon fill="#191970" stroke="#191970" points="244.1733,-194.9318 234.1152,-191.6022 239.9016,-200.4773 244.1733,-194.9318"/>
</g>
<!-- Node17 -->
<g id="node17" class="node">
<title>Node17</title>
<polygon fill="none" stroke="#bfbfbf" points="435,-171.5 435,-191.5 507,-191.5 507,-171.5 435,-171.5"/>
<text text-anchor="middle" x="471" y="-178.5" font-family="FreeSans" font-size="10.00" fill="#000000">TMatrixD.h</text>
</g>
<!-- Node12&#45;&gt;Node17 -->
<g id="edge21" class="edge">
<title>Node12&#45;&gt;Node17</title>
<path fill="none" stroke="#191970" d="M326.0601,-228.4408C355.0003,-219.0681 398.3389,-205.0323 430.0872,-194.7502"/>
<polygon fill="#191970" stroke="#191970" points="431.5198,-197.9653 439.9549,-191.5544 429.3629,-191.3058 431.5198,-197.9653"/>
</g>
<!-- Node12&#45;&gt;Node18 -->
<g id="edge22" class="edge">
<title>Node12&#45;&gt;Node18</title>
<path fill="none" stroke="#191970" d="M340.7409,-229.0876C388.4247,-219.2754 463.257,-203.8767 514.8138,-193.2676"/>
<polygon fill="#191970" stroke="#191970" points="515.7105,-196.6564 524.7998,-191.2127 514.2996,-189.8001 515.7105,-196.6564"/>
</g>
<!-- Node13&#45;&gt;Node9 -->
<g id="edge17" class="edge">
<title>Node13&#45;&gt;Node9</title>
<path fill="none" stroke="#191970" d="M378.4092,-171.3833C367.928,-152.4174 345.1679,-111.2323 331.666,-86.8004"/>
<polygon fill="#191970" stroke="#191970" points="334.5691,-84.8174 326.6689,-77.7579 328.4424,-88.2033 334.5691,-84.8174"/>
</g>
<!-- Node14 -->
<g id="node14" class="node">
<title>Node14</title>
<g id="a_node14"><a xlink:href="../../d7/d83/EigenMatrixTypedefs_8h.html" target="_top" xlink:title="EigenMatrixTypedefs.h">
<polygon fill="none" stroke="#000000" points="389,-114.5 389,-134.5 519,-134.5 519,-114.5 389,-114.5"/>
<text text-anchor="middle" x="454" y="-121.5" font-family="FreeSans" font-size="10.00" fill="#000000">EigenMatrixTypedefs.h</text>
</a>
</g>
</g>
<!-- Node13&#45;&gt;Node14 -->
<g id="edge15" class="edge">
<title>Node13&#45;&gt;Node14</title>
<path fill="none" stroke="#191970" d="M396.5146,-171.3095C406.8669,-162.8798 421.7706,-150.7439 433.8087,-140.9415"/>
<polygon fill="#191970" stroke="#191970" points="436.0494,-143.6306 441.5937,-134.6022 431.6294,-138.2025 436.0494,-143.6306"/>
</g>
<!-- Node15 -->
<g id="node15" class="node">
<title>Node15</title>
<polygon fill="none" stroke="#bfbfbf" points="414,-57.5 414,-77.5 494,-77.5 494,-57.5 414,-57.5"/>
<text text-anchor="middle" x="454" y="-64.5" font-family="FreeSans" font-size="10.00" fill="#000000">Eigen/Dense</text>
</g>
<!-- Node14&#45;&gt;Node15 -->
<g id="edge16" class="edge">
<title>Node14&#45;&gt;Node15</title>
<path fill="none" stroke="#191970" d="M454,-114.3095C454,-106.9335 454,-96.72 454,-87.715"/>
<polygon fill="#191970" stroke="#191970" points="457.5001,-87.6022 454,-77.6022 450.5001,-87.6023 457.5001,-87.6022"/>
</g>
</g>
</svg>
