<?xml version="1.0" encoding="UTF-8" standalone="no"?>
<!DOCTYPE svg PUBLIC "-//W3C//DTD SVG 1.1//EN"
 "http://www.w3.org/Graphics/SVG/1.1/DTD/svg11.dtd">
<!-- Generated by graphviz version 2.40.1 (20161225.0304)
 -->
<!-- Title: genfit::SpacepointMeasurement::initG Pages: 1 -->
<svg width="512pt" height="41pt"
 viewBox="0.00 0.00 512.00 41.00" xmlns="http://www.w3.org/2000/svg" xmlns:xlink="http://www.w3.org/1999/xlink">
<g id="graph0" class="graph" transform="scale(1 1) rotate(0) translate(4 37)">
<title>genfit::SpacepointMeasurement::initG</title>
<!-- Node1 -->
<g id="node1" class="node">
<title>Node1</title>
<polygon fill="#bfbfbf" stroke="#000000" points="0,-.5 0,-32.5 179,-32.5 179,-.5 0,-.5"/>
<text text-anchor="start" x="8" y="-19.5" font-family="FreeSans" font-size="10.00" fill="#000000">genfit::SpacepointMeasurement</text>
<text text-anchor="middle" x="89.5" y="-7.5" font-family="FreeSans" font-size="10.00" fill="#000000">::initG</text>
</g>
<!-- Node2 -->
<g id="node2" class="node">
<title>Node2</title>
<g id="a_node2"><a xlink:href="../../db/d45/namespacegenfit_1_1tools.html#ad70b08610012fcd630091c66be5cd0c4" target="_top" xlink:title="Invert a matrix, throwing an Exception when inversion fails. Optional calculation of determinant...">
<polygon fill="none" stroke="#000000" points="215,-6.5 215,-26.5 360,-26.5 360,-6.5 215,-6.5"/>
<text text-anchor="middle" x="287.5" y="-13.5" font-family="FreeSans" font-size="10.00" fill="#000000">genfit::tools::invertMatrix</text>
</a>
</g>
</g>
<!-- Node1&#45;&gt;Node2 -->
<g id="edge1" class="edge">
<title>Node1&#45;&gt;Node2</title>
<path fill="none" stroke="#191970" d="M179.2308,-16.5C187.7419,-16.5 196.3451,-16.5 204.7859,-16.5"/>
<polygon fill="#191970" stroke="#191970" points="204.9841,-20.0001 214.9841,-16.5 204.9841,-13.0001 204.9841,-20.0001"/>
</g>
<!-- Node3 -->
<g id="node3" class="node">
<title>Node3</title>
<g id="a_node3"><a xlink:href="../../d8/db3/classgenfit_1_1Exception.html#a13619975a1e1be5c1bd504b254e01f7a" target="_top" xlink:title="Set fatal flag.">
<polygon fill="none" stroke="#000000" points="396,-.5 396,-32.5 504,-32.5 504,-.5 396,-.5"/>
<text text-anchor="start" x="404" y="-19.5" font-family="FreeSans" font-size="10.00" fill="#000000">genfit::Exception::</text>
<text text-anchor="middle" x="450" y="-7.5" font-family="FreeSans" font-size="10.00" fill="#000000">setFatal</text>
</a>
</g>
</g>
<!-- Node2&#45;&gt;Node3 -->
<g id="edge2" class="edge">
<title>Node2&#45;&gt;Node3</title>
<path fill="none" stroke="#191970" d="M360.1948,-16.5C368.7258,-16.5 377.3841,-16.5 385.7877,-16.5"/>
<polygon fill="#191970" stroke="#191970" points="385.8864,-20.0001 395.8863,-16.5 385.8863,-13.0001 385.8864,-20.0001"/>
</g>
</g>
</svg>
