<?xml version="1.0" encoding="UTF-8" standalone="no"?>
<!DOCTYPE svg PUBLIC "-//W3C//DTD SVG 1.1//EN"
 "http://www.w3.org/Graphics/SVG/1.1/DTD/svg11.dtd">
<!-- Generated by graphviz version 2.40.1 (20161225.0304)
 -->
<!-- Title: SvtxTrack::get_vertex_id Pages: 1 -->
<svg width="755pt" height="92pt"
 viewBox="0.00 0.00 755.00 92.00" xmlns="http://www.w3.org/2000/svg" xmlns:xlink="http://www.w3.org/1999/xlink">
<g id="graph0" class="graph" transform="scale(1 1) rotate(0) translate(4 88)">
<title>SvtxTrack::get_vertex_id</title>
<!-- Node1 -->
<g id="node1" class="node">
<title>Node1</title>
<polygon fill="#bfbfbf" stroke="#000000" points="0,-31.5 0,-51.5 139,-51.5 139,-31.5 0,-31.5"/>
<text text-anchor="middle" x="69.5" y="-38.5" font-family="FreeSans" font-size="10.00" fill="#000000">SvtxTrack::get_vertex_id</text>
</g>
<!-- Node2 -->
<g id="node2" class="node">
<title>Node2</title>
<g id="a_node2"><a xlink:href="../../d0/d22/classPHGenFitTrkProp.html#a425f22248030483cb56cdb867c3077c8" target="_top" xlink:title="ExportOutput Call. Make SvtxTrack from PHGenFit::Track and set of clusters.">
<polygon fill="none" stroke="#000000" points="175,-51.5 175,-83.5 350,-83.5 350,-51.5 175,-51.5"/>
<text text-anchor="start" x="183" y="-70.5" font-family="FreeSans" font-size="10.00" fill="#000000">PHGenFitTrkProp::OutputPHGen</text>
<text text-anchor="middle" x="262.5" y="-58.5" font-family="FreeSans" font-size="10.00" fill="#000000">FitTrack</text>
</a>
</g>
</g>
<!-- Node1&#45;&gt;Node2 -->
<g id="edge1" class="edge">
<title>Node1&#45;&gt;Node2</title>
<path fill="none" stroke="#191970" d="M149.3181,-52.2527C157.7169,-53.3841 166.2895,-54.539 174.7711,-55.6816"/>
<polygon fill="#191970" stroke="#191970" points="149.5552,-48.7531 139.1774,-50.8866 148.6206,-55.6904 149.5552,-48.7531"/>
</g>
<!-- Node5 -->
<g id="node5" class="node">
<title>Node5</title>
<g id="a_node5"><a xlink:href="../../d0/d22/classPHGenFitTrkProp.html#ac159ce1352f6004a2f51a520c287c339" target="_top" xlink:title="KalmanTrkProp Call.">
<polygon fill="none" stroke="#000000" points="185,-.5 185,-32.5 340,-32.5 340,-.5 185,-.5"/>
<text text-anchor="start" x="193" y="-19.5" font-family="FreeSans" font-size="10.00" fill="#000000">PHGenFitTrkProp::SvtxTrack</text>
<text text-anchor="middle" x="262.5" y="-7.5" font-family="FreeSans" font-size="10.00" fill="#000000">ToPHGenFitTracks</text>
</a>
</g>
</g>
<!-- Node1&#45;&gt;Node5 -->
<g id="edge4" class="edge">
<title>Node1&#45;&gt;Node5</title>
<path fill="none" stroke="#191970" d="M149.3543,-31.1562C161.054,-29.6407 173.0902,-28.0816 184.7469,-26.5716"/>
<polygon fill="#191970" stroke="#191970" points="148.6449,-27.7187 139.1774,-32.4744 149.5442,-34.6607 148.6449,-27.7187"/>
</g>
<!-- Node3 -->
<g id="node3" class="node">
<title>Node3</title>
<g id="a_node3"><a xlink:href="../../d0/d22/classPHGenFitTrkProp.html#ab11c2e61a1b78278fa4af7cf624c2538" target="_top" xlink:title="Main function.">
<polygon fill="none" stroke="#000000" points="386,-31.5 386,-51.5 567,-51.5 567,-31.5 386,-31.5"/>
<text text-anchor="middle" x="476.5" y="-38.5" font-family="FreeSans" font-size="10.00" fill="#000000">PHGenFitTrkProp::KalmanTrkProp</text>
</a>
</g>
</g>
<!-- Node2&#45;&gt;Node3 -->
<g id="edge2" class="edge">
<title>Node2&#45;&gt;Node3</title>
<path fill="none" stroke="#191970" d="M360.1076,-55.6411C371.4846,-54.2589 383.0044,-52.8593 394.147,-51.5055"/>
<polygon fill="#191970" stroke="#191970" points="359.6643,-52.1692 350.1595,-56.8498 360.5086,-59.1181 359.6643,-52.1692"/>
</g>
<!-- Node4 -->
<g id="node4" class="node">
<title>Node4</title>
<g id="a_node4"><a xlink:href="../../d0/d22/classPHGenFitTrkProp.html#a31e50e42d62a2bf32763652b39dc95b8" target="_top" xlink:title="PHGenFitTrkProp::Process">
<polygon fill="none" stroke="#000000" points="603,-31.5 603,-51.5 747,-51.5 747,-31.5 603,-31.5"/>
<text text-anchor="middle" x="675" y="-38.5" font-family="FreeSans" font-size="10.00" fill="#000000">PHGenFitTrkProp::Process</text>
</a>
</g>
</g>
<!-- Node3&#45;&gt;Node4 -->
<g id="edge3" class="edge">
<title>Node3&#45;&gt;Node4</title>
<path fill="none" stroke="#191970" d="M577.1556,-41.5C585.7831,-41.5 594.3965,-41.5 602.7348,-41.5"/>
<polygon fill="#191970" stroke="#191970" points="577.0369,-38.0001 567.0368,-41.5 577.0368,-45.0001 577.0369,-38.0001"/>
</g>
<!-- Node5&#45;&gt;Node3 -->
<g id="edge5" class="edge">
<title>Node5&#45;&gt;Node3</title>
<path fill="none" stroke="#191970" d="M350.2312,-26.749C363.6559,-28.3173 377.4991,-29.9345 390.8775,-31.4974"/>
<polygon fill="#191970" stroke="#191970" points="350.4001,-23.245 340.0615,-25.5609 349.5878,-30.1977 350.4001,-23.245"/>
</g>
</g>
</svg>
