<?xml version="1.0" encoding="UTF-8" standalone="no"?>
<!DOCTYPE svg PUBLIC "-//W3C//DTD SVG 1.1//EN"
 "http://www.w3.org/Graphics/SVG/1.1/DTD/svg11.dtd">
<!-- Generated by graphviz version 2.40.1 (20161225.0304)
 -->
<!-- Title: Fun4AllInputManager::AddFile Pages: 1 -->
<svg width="513pt" height="856pt"
 viewBox="0.00 0.00 513.00 856.00" xmlns="http://www.w3.org/2000/svg" xmlns:xlink="http://www.w3.org/1999/xlink">
<g id="graph0" class="graph" transform="scale(1 1) rotate(0) translate(4 852)">
<title>Fun4AllInputManager::AddFile</title>
<!-- Node1 -->
<g id="node1" class="node">
<title>Node1</title>
<polygon fill="#bfbfbf" stroke="#000000" points="0,-245.5 0,-277.5 125,-277.5 125,-245.5 0,-245.5"/>
<text text-anchor="start" x="8" y="-264.5" font-family="FreeSans" font-size="10.00" fill="#000000">Fun4AllInputManager</text>
<text text-anchor="middle" x="62.5" y="-252.5" font-family="FreeSans" font-size="10.00" fill="#000000">::AddFile</text>
</g>
<!-- Node2 -->
<g id="node2" class="node">
<title>Node2</title>
<g id="a_node2"><a xlink:href="../../d4/da9/classFun4AllInputManager.html#abde8a46c891ecd025daefd1e1ff79569" target="_top" xlink:title="Fun4AllInputManager\l::AddListFile">
<polygon fill="none" stroke="#000000" points="164.5,-462.5 164.5,-494.5 289.5,-494.5 289.5,-462.5 164.5,-462.5"/>
<text text-anchor="start" x="172.5" y="-481.5" font-family="FreeSans" font-size="10.00" fill="#000000">Fun4AllInputManager</text>
<text text-anchor="middle" x="227" y="-469.5" font-family="FreeSans" font-size="10.00" fill="#000000">::AddListFile</text>
</a>
</g>
</g>
<!-- Node1&#45;&gt;Node2 -->
<g id="edge1" class="edge">
<title>Node1&#45;&gt;Node2</title>
<path fill="none" stroke="#191970" d="M80.9245,-285.8047C114.7916,-330.4804 186.087,-424.5296 214.7167,-462.2965"/>
<polygon fill="#191970" stroke="#191970" points="83.6945,-283.665 74.8642,-277.8103 78.1162,-287.8937 83.6945,-283.665"/>
</g>
<!-- Node5 -->
<g id="node5" class="node">
<title>Node5</title>
<g id="a_node5"><a xlink:href="../../d6/d5d/RunBDiJetModule_8C.html#a554fde97a26ea668bc2f32b294103192" target="_top" xlink:title="RunBDiJetModule">
<polygon fill="none" stroke="#000000" points="365.5,-827.5 365.5,-847.5 468.5,-847.5 468.5,-827.5 365.5,-827.5"/>
<text text-anchor="middle" x="417" y="-834.5" font-family="FreeSans" font-size="10.00" fill="#000000">RunBDiJetModule</text>
</a>
</g>
</g>
<!-- Node1&#45;&gt;Node5 -->
<g id="edge29" class="edge">
<title>Node1&#45;&gt;Node5</title>
<path fill="none" stroke="#191970" d="M65.9064,-287.8228C77.1219,-371.5411 114.829,-630.221 161,-699.5 211.7439,-775.6407 245.2469,-781.6522 329,-818.5 340.3021,-823.4724 353.0089,-827.1853 365.1772,-829.9425"/>
<polygon fill="#191970" stroke="#191970" points="69.3687,-287.3069 64.5858,-277.8531 62.4293,-288.2262 69.3687,-287.3069"/>
</g>
<!-- Node6 -->
<g id="node6" class="node">
<title>Node6</title>
<g id="a_node6"><a xlink:href="../../d0/df6/RunBJetModule_8C.html#a1f9a3833ba8496c693bb4448e7bf4bb7" target="_top" xlink:title="RunBJetModule">
<polygon fill="none" stroke="#000000" points="371,-788.5 371,-808.5 463,-808.5 463,-788.5 371,-788.5"/>
<text text-anchor="middle" x="417" y="-795.5" font-family="FreeSans" font-size="10.00" fill="#000000">RunBJetModule</text>
</a>
</g>
</g>
<!-- Node1&#45;&gt;Node6 -->
<g id="edge30" class="edge">
<title>Node1&#45;&gt;Node6</title>
<path fill="none" stroke="#191970" d="M65.0996,-287.8452C72.1201,-349.226 95.5583,-504.931 161,-615.5 214.1469,-705.2959 237.0805,-730.1167 329,-779.5 341.8048,-786.3793 356.9197,-790.7679 370.9765,-793.5675"/>
<polygon fill="#191970" stroke="#191970" points="68.572,-287.4003 64.0071,-277.8393 61.6133,-288.1602 68.572,-287.4003"/>
</g>
<!-- Node8 -->
<g id="node8" class="node">
<title>Node8</title>
<g id="a_node8"><a xlink:href="../../da/dd0/Fun4All__G4__sPHENIX__photonjet_8C.html#a6f18519e216acc05399e562ea57ea77c" target="_top" xlink:title="Fun4All_G4_sPHENIX\l_photonjet">
<polygon fill="none" stroke="#000000" points="356.5,-737.5 356.5,-769.5 477.5,-769.5 477.5,-737.5 356.5,-737.5"/>
<text text-anchor="start" x="364.5" y="-756.5" font-family="FreeSans" font-size="10.00" fill="#000000">Fun4All_G4_sPHENIX</text>
<text text-anchor="middle" x="417" y="-744.5" font-family="FreeSans" font-size="10.00" fill="#000000">_photonjet</text>
</a>
</g>
</g>
<!-- Node1&#45;&gt;Node8 -->
<g id="edge23" class="edge">
<title>Node1&#45;&gt;Node8</title>
<path fill="none" stroke="#191970" d="M70.5601,-287.4783C85.231,-333.053 118.7225,-429.6758 161,-504.5 222.218,-612.8456 226.4356,-658.0233 329,-728.5 337.2466,-734.1666 346.7638,-738.5583 356.4268,-741.9593"/>
<polygon fill="#191970" stroke="#191970" points="73.8456,-286.2605 67.479,-277.7918 67.1749,-288.3823 73.8456,-286.2605"/>
</g>
<!-- Node9 -->
<g id="node9" class="node">
<title>Node9</title>
<g id="a_node9"><a xlink:href="../../da/d85/Fun4All__G4__sPHENIX__photons_8C.html#a02fbbd59878fe1299f58ed187e7214ba" target="_top" xlink:title="Fun4All_G4_sPHENIX\l_photons">
<polygon fill="none" stroke="#000000" points="356.5,-350.5 356.5,-382.5 477.5,-382.5 477.5,-350.5 356.5,-350.5"/>
<text text-anchor="start" x="364.5" y="-369.5" font-family="FreeSans" font-size="10.00" fill="#000000">Fun4All_G4_sPHENIX</text>
<text text-anchor="middle" x="417" y="-357.5" font-family="FreeSans" font-size="10.00" fill="#000000">_photons</text>
</a>
</g>
</g>
<!-- Node1&#45;&gt;Node9 -->
<g id="edge24" class="edge">
<title>Node1&#45;&gt;Node9</title>
<path fill="none" stroke="#191970" d="M107.0852,-281.717C123.7895,-288.8494 143.0667,-296.563 161,-302.5 226.6713,-324.2412 303.9374,-342.6012 356.272,-354.0046"/>
<polygon fill="#191970" stroke="#191970" points="108.1445,-278.3618 97.5769,-277.6026 105.3645,-284.7862 108.1445,-278.3618"/>
</g>
<!-- Node10 -->
<g id="node10" class="node">
<title>Node10</title>
<g id="a_node10"><a xlink:href="../../de/d55/Fun4All__G4__sPHENIX__truthphotonjet_8C.html#a48a6f4503eaa1b3793d8ae572aa795b9" target="_top" xlink:title="Fun4All_G4_sPHENIX\l_truthphotonjet">
<polygon fill="none" stroke="#000000" points="356.5,-299.5 356.5,-331.5 477.5,-331.5 477.5,-299.5 356.5,-299.5"/>
<text text-anchor="start" x="364.5" y="-318.5" font-family="FreeSans" font-size="10.00" fill="#000000">Fun4All_G4_sPHENIX</text>
<text text-anchor="middle" x="417" y="-306.5" font-family="FreeSans" font-size="10.00" fill="#000000">_truthphotonjet</text>
</a>
</g>
</g>
<!-- Node1&#45;&gt;Node10 -->
<g id="edge25" class="edge">
<title>Node1&#45;&gt;Node10</title>
<path fill="none" stroke="#191970" d="M135.3203,-275.1539C143.9663,-276.6724 152.6741,-278.1544 161,-279.5 227.6818,-290.2767 304.4379,-300.8245 356.3769,-307.6879"/>
<polygon fill="#191970" stroke="#191970" points="135.6838,-271.6638 125.2257,-273.3607 134.4594,-278.5559 135.6838,-271.6638"/>
</g>
<!-- Node15 -->
<g id="node15" class="node">
<title>Node15</title>
<g id="a_node15"><a xlink:href="../../d2/ddd/RunGenFitTrackProp_8C.html#abdf5ca8118c5634cd93315758e746033" target="_top" xlink:title="RunGenFitTrackProp">
<polygon fill="none" stroke="#000000" points="358.5,-260.5 358.5,-280.5 475.5,-280.5 475.5,-260.5 358.5,-260.5"/>
<text text-anchor="middle" x="417" y="-267.5" font-family="FreeSans" font-size="10.00" fill="#000000">RunGenFitTrackProp</text>
</a>
</g>
</g>
<!-- Node1&#45;&gt;Node15 -->
<g id="edge31" class="edge">
<title>Node1&#45;&gt;Node15</title>
<path fill="none" stroke="#191970" d="M135.3765,-263.3502C201.3099,-265.0241 297.173,-267.4578 358.3008,-269.0098"/>
<polygon fill="#191970" stroke="#191970" points="135.1471,-259.8433 125.0615,-263.0883 134.9694,-266.8411 135.1471,-259.8433"/>
</g>
<!-- Node17 -->
<g id="node17" class="node">
<title>Node17</title>
<g id="a_node17"><a xlink:href="../../de/da9/ReadClustersRunTracking_8C.html#ae0216e7ee610ee6cb8ebc2392d00431b" target="_top" xlink:title="ReadClustersRunTracking">
<polygon fill="none" stroke="#000000" points="345,-221.5 345,-241.5 489,-241.5 489,-221.5 345,-221.5"/>
<text text-anchor="middle" x="417" y="-228.5" font-family="FreeSans" font-size="10.00" fill="#000000">ReadClustersRunTracking</text>
</a>
</g>
</g>
<!-- Node1&#45;&gt;Node17 -->
<g id="edge28" class="edge">
<title>Node1&#45;&gt;Node17</title>
<path fill="none" stroke="#191970" d="M135.0544,-255.36C196.3945,-250.169 283.8077,-242.7716 344.9922,-237.5938"/>
<polygon fill="#191970" stroke="#191970" points="134.7307,-251.8748 125.0615,-256.2057 135.321,-258.8499 134.7307,-251.8748"/>
</g>
<!-- Node18 -->
<g id="node18" class="node">
<title>Node18</title>
<g id="a_node18"><a xlink:href="../../db/dc0/Fun4All__AnaTutorial_8C.html#a8c484ea6d7477278e981ef056b17eac9" target="_top" xlink:title="Fun4All_AnaTutorial">
<polygon fill="none" stroke="#000000" points="359.5,-182.5 359.5,-202.5 474.5,-202.5 474.5,-182.5 359.5,-182.5"/>
<text text-anchor="middle" x="417" y="-189.5" font-family="FreeSans" font-size="10.00" fill="#000000">Fun4All_AnaTutorial</text>
</a>
</g>
</g>
<!-- Node1&#45;&gt;Node18 -->
<g id="edge19" class="edge">
<title>Node1&#45;&gt;Node18</title>
<path fill="none" stroke="#191970" d="M134.9751,-243.2751C143.7248,-241.2425 152.5513,-239.2699 161,-237.5 228.7966,-223.2975 307.3303,-209.948 359.3499,-201.5348"/>
<polygon fill="#191970" stroke="#191970" points="134.0849,-239.8889 125.1535,-245.5879 135.6895,-246.7025 134.0849,-239.8889"/>
</g>
<!-- Node19 -->
<g id="node19" class="node">
<title>Node19</title>
<g id="a_node19"><a xlink:href="../../dd/d28/Fun4All__AnaTutorial__Jets_8C.html#a55eaaeb770a3177f917012de87877d28" target="_top" xlink:title="Fun4All_AnaTutorial_Jets">
<polygon fill="none" stroke="#000000" points="347.5,-143.5 347.5,-163.5 486.5,-163.5 486.5,-143.5 347.5,-143.5"/>
<text text-anchor="middle" x="417" y="-150.5" font-family="FreeSans" font-size="10.00" fill="#000000">Fun4All_AnaTutorial_Jets</text>
</a>
</g>
</g>
<!-- Node1&#45;&gt;Node19 -->
<g id="edge20" class="edge">
<title>Node1&#45;&gt;Node19</title>
<path fill="none" stroke="#191970" d="M97.2406,-240.2096C115.6409,-229.7031 138.9439,-217.5825 161,-209.5 222.1928,-187.0758 295.0607,-172.2128 347.377,-163.4703"/>
<polygon fill="#191970" stroke="#191970" points="95.2506,-237.318 88.3639,-245.3693 98.7684,-243.3698 95.2506,-237.318"/>
</g>
<!-- Node20 -->
<g id="node20" class="node">
<title>Node20</title>
<g id="a_node20"><a xlink:href="../../d7/d9e/Fun4All__G4__fsPHENIX_8C.html#a72c444217210a14ab1b4e66d9818b1ff" target="_top" xlink:title="Fun4All_G4_fsPHENIX">
<polygon fill="none" stroke="#000000" points="165,-117.5 165,-137.5 289,-137.5 289,-117.5 165,-117.5"/>
<text text-anchor="middle" x="227" y="-124.5" font-family="FreeSans" font-size="10.00" fill="#000000">Fun4All_G4_fsPHENIX</text>
</a>
</g>
</g>
<!-- Node1&#45;&gt;Node20 -->
<g id="edge21" class="edge">
<title>Node1&#45;&gt;Node20</title>
<path fill="none" stroke="#191970" d="M79.3432,-236.8616C97.1283,-212.4792 127.2305,-175.5545 161,-152.5 170.1075,-146.2823 180.9686,-141.3465 191.2247,-137.5598"/>
<polygon fill="#191970" stroke="#191970" points="76.3308,-235.0572 73.364,-245.2282 82.026,-239.1273 76.3308,-235.0572"/>
</g>
<!-- Node21 -->
<g id="node21" class="node">
<title>Node21</title>
<g id="a_node21"><a xlink:href="../../d5/d2c/macros_2blob_2master_2macros_2g4simulations_2Fun4All__G4__sPHENIX_8C.html#a536fa7366e3aeaf273cca94ced704c46" target="_top" xlink:title="Fun4All_G4_sPHENIX">
<polygon fill="none" stroke="#000000" points="166.5,-78.5 166.5,-98.5 287.5,-98.5 287.5,-78.5 166.5,-78.5"/>
<text text-anchor="middle" x="227" y="-85.5" font-family="FreeSans" font-size="10.00" fill="#000000">Fun4All_G4_sPHENIX</text>
</a>
</g>
</g>
<!-- Node1&#45;&gt;Node21 -->
<g id="edge22" class="edge">
<title>Node1&#45;&gt;Node21</title>
<path fill="none" stroke="#191970" d="M72.0917,-235.9022C86.2701,-201.5574 116.0862,-141.0122 161,-107.5 165.8739,-103.8634 171.4252,-100.9217 177.1907,-98.5423"/>
<polygon fill="#191970" stroke="#191970" points="68.8146,-234.6712 68.3506,-245.2558 75.314,-237.2707 68.8146,-234.6712"/>
</g>
<!-- Node22 -->
<g id="node22" class="node">
<title>Node22</title>
<g id="a_node22"><a xlink:href="../../d4/d65/Fun4All__single__particle_8C.html#a8a492b5dbead494bfdddbebde8a49b0e" target="_top" xlink:title="Fun4All_single_particle">
<polygon fill="none" stroke="#000000" points="161,-39.5 161,-59.5 293,-59.5 293,-39.5 161,-39.5"/>
<text text-anchor="middle" x="227" y="-46.5" font-family="FreeSans" font-size="10.00" fill="#000000">Fun4All_single_particle</text>
</a>
</g>
</g>
<!-- Node1&#45;&gt;Node22 -->
<g id="edge26" class="edge">
<title>Node1&#45;&gt;Node22</title>
<path fill="none" stroke="#191970" d="M68.6545,-235.3511C79.8063,-193.7671 107.3357,-112.7547 161,-68.5 165.4156,-64.8586 170.4957,-61.9148 175.8358,-59.535"/>
<polygon fill="#191970" stroke="#191970" points="65.2062,-234.7076 66.1081,-245.264 71.9861,-236.4493 65.2062,-234.7076"/>
</g>
<!-- Node23 -->
<g id="node23" class="node">
<title>Node23</title>
<g id="a_node23"><a xlink:href="../../d0/d99/Jin__BJet_8C.html#a36169bfee2ed7efda633944d12aebad9" target="_top" xlink:title="Jin_BJet">
<polygon fill="none" stroke="#000000" points="199.5,-.5 199.5,-20.5 254.5,-20.5 254.5,-.5 199.5,-.5"/>
<text text-anchor="middle" x="227" y="-7.5" font-family="FreeSans" font-size="10.00" fill="#000000">Jin_BJet</text>
</a>
</g>
</g>
<!-- Node1&#45;&gt;Node23 -->
<g id="edge27" class="edge">
<title>Node1&#45;&gt;Node23</title>
<path fill="none" stroke="#191970" d="M66.1588,-235.3307C74.2667,-187.3325 98.2623,-85.0597 161,-29.5 171.5333,-20.1719 186.3788,-15.4063 199.3232,-12.9791"/>
<polygon fill="#191970" stroke="#191970" points="62.696,-234.8203 64.5819,-245.246 69.6091,-235.9198 62.696,-234.8203"/>
</g>
<!-- Node3 -->
<g id="node3" class="node">
<title>Node3</title>
<g id="a_node3"><a xlink:href="../../dc/d81/condor_2MakeShowerSize_8C.html#a725a09873df2005bf77ed0cf52eca694" target="_top" xlink:title="MakeShowerSize">
<polygon fill="none" stroke="#000000" points="366.5,-569.5 366.5,-589.5 467.5,-589.5 467.5,-569.5 366.5,-569.5"/>
<text text-anchor="middle" x="417" y="-576.5" font-family="FreeSans" font-size="10.00" fill="#000000">MakeShowerSize</text>
</a>
</g>
</g>
<!-- Node2&#45;&gt;Node3 -->
<g id="edge2" class="edge">
<title>Node2&#45;&gt;Node3</title>
<path fill="none" stroke="#191970" d="M249.4699,-501.7915C268.8235,-520.4759 298.4008,-545.9114 329,-560.5 340.5689,-566.0156 353.7553,-569.9472 366.336,-572.7436"/>
<polygon fill="#191970" stroke="#191970" points="251.9037,-499.276 242.3247,-494.7488 246.9898,-504.2614 251.9037,-499.276"/>
</g>
<!-- Node4 -->
<g id="node4" class="node">
<title>Node4</title>
<g id="a_node4"><a xlink:href="../../de/dc8/Fun4All__EMCalLikelihood_8C.html#a209f0d5788c9d3adba2967f194bca64a" target="_top" xlink:title="Fun4All_EMCalLikelihood">
<polygon fill="none" stroke="#000000" points="346.5,-530.5 346.5,-550.5 487.5,-550.5 487.5,-530.5 346.5,-530.5"/>
<text text-anchor="middle" x="417" y="-537.5" font-family="FreeSans" font-size="10.00" fill="#000000">Fun4All_EMCalLikelihood</text>
</a>
</g>
</g>
<!-- Node2&#45;&gt;Node4 -->
<g id="edge3" class="edge">
<title>Node2&#45;&gt;Node4</title>
<path fill="none" stroke="#191970" d="M270.432,-498.9178C288.2935,-506.7568 309.3626,-515.3003 329,-521.5 339.7314,-524.888 351.3873,-527.8731 362.5988,-530.4141"/>
<polygon fill="#191970" stroke="#191970" points="271.427,-495.5294 260.8683,-494.6547 268.5769,-501.923 271.427,-495.5294"/>
</g>
<!-- Node2&#45;&gt;Node5 -->
<g id="edge4" class="edge">
<title>Node2&#45;&gt;Node5</title>
<path fill="none" stroke="#191970" d="M231.3933,-504.9696C243.901,-577.1527 281.8606,-774.9367 329,-818.5 338.8717,-827.6229 352.0421,-832.7605 365.1807,-835.561"/>
<polygon fill="#191970" stroke="#191970" points="234.8044,-504.1517 229.6704,-494.8839 227.9043,-505.3305 234.8044,-504.1517"/>
</g>
<!-- Node2&#45;&gt;Node6 -->
<g id="edge5" class="edge">
<title>Node2&#45;&gt;Node6</title>
<path fill="none" stroke="#191970" d="M232.3908,-504.5578C246.5589,-570.5579 286.68,-741.7521 329,-779.5 340.4308,-789.6958 356.0058,-794.8698 370.8771,-797.3727"/>
<polygon fill="#191970" stroke="#191970" points="235.7679,-503.611 230.27,-494.5544 228.9201,-505.0628 235.7679,-503.611"/>
</g>
<!-- Node7 -->
<g id="node7" class="node">
<title>Node7</title>
<g id="a_node7"><a xlink:href="../../d0/da6/Fun4All__G4__fsPHENIX__pi0_8C.html#a023d91d47b678e5d7f1751834aa517c6" target="_top" xlink:title="Fun4All_G4_fsPHENIX_pi0">
<polygon fill="none" stroke="#000000" points="344.5,-491.5 344.5,-511.5 489.5,-511.5 489.5,-491.5 344.5,-491.5"/>
<text text-anchor="middle" x="417" y="-498.5" font-family="FreeSans" font-size="10.00" fill="#000000">Fun4All_G4_fsPHENIX_pi0</text>
</a>
</g>
</g>
<!-- Node2&#45;&gt;Node7 -->
<g id="edge6" class="edge">
<title>Node2&#45;&gt;Node7</title>
<path fill="none" stroke="#191970" d="M299.746,-487.3061C314.3991,-489.0799 329.8006,-490.9443 344.447,-492.7173"/>
<polygon fill="#191970" stroke="#191970" points="300.0878,-483.822 289.7397,-486.0948 299.2466,-490.7713 300.0878,-483.822"/>
</g>
<!-- Node2&#45;&gt;Node8 -->
<g id="edge7" class="edge">
<title>Node2&#45;&gt;Node8</title>
<path fill="none" stroke="#191970" d="M238.3625,-504.0138C251.812,-534.4377 274.6926,-586.9068 293,-632.5 309.9796,-674.7864 295.4853,-697.6259 329,-728.5 336.7096,-735.6022 346.2931,-740.704 356.2718,-744.3648"/>
<polygon fill="#191970" stroke="#191970" points="241.4346,-502.3075 234.1831,-494.5831 235.0349,-505.1436 241.4346,-502.3075"/>
</g>
<!-- Node2&#45;&gt;Node9 -->
<g id="edge8" class="edge">
<title>Node2&#45;&gt;Node9</title>
<path fill="none" stroke="#191970" d="M249.216,-454.9784C268.6162,-435.6932 298.3922,-408.9791 329,-392.5 337.4161,-387.9688 346.7212,-384.1334 356.0362,-380.9165"/>
<polygon fill="#191970" stroke="#191970" points="246.5969,-452.6495 242.0611,-462.2243 251.5778,-457.5679 246.5969,-452.6495"/>
</g>
<!-- Node2&#45;&gt;Node10 -->
<g id="edge9" class="edge">
<title>Node2&#45;&gt;Node10</title>
<path fill="none" stroke="#191970" d="M239.385,-453.0543C255.7073,-422.1581 287.3024,-370.584 329,-341.5 337.2317,-335.7584 346.7414,-331.2681 356.4014,-327.761"/>
<polygon fill="#191970" stroke="#191970" points="236.089,-451.8105 234.6288,-462.3043 242.3143,-455.0116 236.089,-451.8105"/>
</g>
<!-- Node11 -->
<g id="node11" class="node">
<title>Node11</title>
<g id="a_node11"><a xlink:href="../../d6/dfd/Prototype2_2EMCal_2macros_2Fun4All__TestBeam__ShowerCalib_8C.html#a8380c0c3880f8e24172bce9ba834af7e" target="_top" xlink:title="Fun4All_TestBeam_ShowerCalib">
<polygon fill="none" stroke="#000000" points="329,-452.5 329,-472.5 505,-472.5 505,-452.5 329,-452.5"/>
<text text-anchor="middle" x="417" y="-459.5" font-family="FreeSans" font-size="10.00" fill="#000000">Fun4All_TestBeam_ShowerCalib</text>
</a>
</g>
</g>
<!-- Node2&#45;&gt;Node11 -->
<g id="edge10" class="edge">
<title>Node2&#45;&gt;Node11</title>
<path fill="none" stroke="#191970" d="M299.8922,-472.3617C309.3788,-471.5628 319.1769,-470.7377 328.8787,-469.9207"/>
<polygon fill="#191970" stroke="#191970" points="299.4107,-468.8898 289.7397,-473.2167 299.9981,-475.8651 299.4107,-468.8898"/>
</g>
<!-- Node12 -->
<g id="node12" class="node">
<title>Node12</title>
<g id="a_node12"><a xlink:href="../../d2/dae/Fun4All__TestBeam__HCAL__SampleFrac_8C.html#a3019c26e30442286874f351097a1be16" target="_top" xlink:title="Fun4All_TestBeam_HCAL\l_SampleFrac">
<polygon fill="none" stroke="#000000" points="347,-401.5 347,-433.5 487,-433.5 487,-401.5 347,-401.5"/>
<text text-anchor="start" x="355" y="-420.5" font-family="FreeSans" font-size="10.00" fill="#000000">Fun4All_TestBeam_HCAL</text>
<text text-anchor="middle" x="417" y="-408.5" font-family="FreeSans" font-size="10.00" fill="#000000">_SampleFrac</text>
</a>
</g>
</g>
<!-- Node2&#45;&gt;Node12 -->
<g id="edge11" class="edge">
<title>Node2&#45;&gt;Node12</title>
<path fill="none" stroke="#191970" d="M282.0558,-459.1212C297.224,-453.9153 313.7108,-448.3793 329,-443.5 339.4718,-440.1581 350.6916,-436.7289 361.4955,-433.5022"/>
<polygon fill="#191970" stroke="#191970" points="280.6169,-455.915 272.3045,-462.4842 282.8992,-462.5325 280.6169,-455.915"/>
</g>
<!-- Node13 -->
<g id="node13" class="node">
<title>Node13</title>
<g id="a_node13"><a xlink:href="../../d6/dc1/Fun4All__TestBeam__HCAL__TowerCalib_8C.html#a3998d1d20dbf4cc761c04692c060e081" target="_top" xlink:title="Fun4All_TestBeam_HCAL\l_TowerCalib">
<polygon fill="none" stroke="#000000" points="347,-686.5 347,-718.5 487,-718.5 487,-686.5 347,-686.5"/>
<text text-anchor="start" x="355" y="-705.5" font-family="FreeSans" font-size="10.00" fill="#000000">Fun4All_TestBeam_HCAL</text>
<text text-anchor="middle" x="417" y="-693.5" font-family="FreeSans" font-size="10.00" fill="#000000">_TowerCalib</text>
</a>
</g>
</g>
<!-- Node2&#45;&gt;Node13 -->
<g id="edge12" class="edge">
<title>Node2&#45;&gt;Node13</title>
<path fill="none" stroke="#191970" d="M237.1519,-504.2167C256.6553,-552.4333 299.9961,-653.7092 329,-677.5 334.2803,-681.8312 340.2695,-685.4127 346.5805,-688.3742"/>
<polygon fill="#191970" stroke="#191970" points="240.3378,-502.7576 233.3656,-494.7801 233.8412,-505.3643 240.3378,-502.7576"/>
</g>
<!-- Node14 -->
<g id="node14" class="node">
<title>Node14</title>
<g id="a_node14"><a xlink:href="../../dd/db1/Wrapper_8cxx.html#abf1e42281903daa0752c80dd6c879fac" target="_top" xlink:title="Wrapper">
<polygon fill="none" stroke="#000000" points="387,-647.5 387,-667.5 447,-667.5 447,-647.5 387,-647.5"/>
<text text-anchor="middle" x="417" y="-654.5" font-family="FreeSans" font-size="10.00" fill="#000000">Wrapper</text>
</a>
</g>
</g>
<!-- Node2&#45;&gt;Node14 -->
<g id="edge13" class="edge">
<title>Node2&#45;&gt;Node14</title>
<path fill="none" stroke="#191970" d="M236.1398,-504.4444C250.2238,-540.4546 280.7638,-604.9337 329,-638.5 345.9346,-650.2844 368.8019,-654.9676 386.9814,-656.7397"/>
<polygon fill="#191970" stroke="#191970" points="239.2559,-502.7886 232.4489,-494.6697 232.7072,-505.2614 239.2559,-502.7886"/>
</g>
<!-- Node2&#45;&gt;Node15 -->
<g id="edge14" class="edge">
<title>Node2&#45;&gt;Node15</title>
<path fill="none" stroke="#191970" d="M233.5704,-452.6507C245.3947,-411.6149 274.2812,-331.9752 329,-290.5 337.4905,-284.0645 347.6794,-279.6367 358.0653,-276.6041"/>
<polygon fill="#191970" stroke="#191970" points="230.1556,-451.8677 230.8646,-462.4388 236.9026,-453.7329 230.1556,-451.8677"/>
</g>
<!-- Node16 -->
<g id="node16" class="node">
<title>Node16</title>
<g id="a_node16"><a xlink:href="../../d5/d60/analysis_2blob_2master_2HF-Jet_2TruthGeneration_2macros_2Fun4All__G4__sPHENIX_8C.html#a9a881c27e3822a95643d09c2fd73009e" target="_top" xlink:title="Fun4All_G4_sPHENIX">
<polygon fill="none" stroke="#000000" points="356.5,-608.5 356.5,-628.5 477.5,-628.5 477.5,-608.5 356.5,-608.5"/>
<text text-anchor="middle" x="417" y="-615.5" font-family="FreeSans" font-size="10.00" fill="#000000">Fun4All_G4_sPHENIX</text>
</a>
</g>
</g>
<!-- Node2&#45;&gt;Node16 -->
<g id="edge15" class="edge">
<title>Node2&#45;&gt;Node16</title>
<path fill="none" stroke="#191970" d="M241.1224,-503.575C258.2138,-531.506 289.6557,-575.8345 329,-599.5 337.304,-604.4949 346.7474,-608.1848 356.2912,-610.9088"/>
<polygon fill="#191970" stroke="#191970" points="244.0107,-501.5845 235.8856,-494.7849 237.997,-505.1673 244.0107,-501.5845"/>
</g>
<!-- Node2&#45;&gt;Node17 -->
<g id="edge16" class="edge">
<title>Node2&#45;&gt;Node17</title>
<path fill="none" stroke="#191970" d="M231.0225,-452.2232C239.7644,-404.5249 265.1066,-303.8036 329,-251.5 333.9706,-247.4311 339.6062,-244.1524 345.5664,-241.5154"/>
<polygon fill="#191970" stroke="#191970" points="227.5255,-451.9064 229.2715,-462.3564 234.4232,-453.0984 227.5255,-451.9064"/>
</g>
<!-- Node2&#45;&gt;Node18 -->
<g id="edge17" class="edge">
<title>Node2&#45;&gt;Node18</title>
<path fill="none" stroke="#191970" d="M229.0692,-452.3577C234.7706,-398.7636 255.5671,-276.137 329,-212.5 337.5248,-205.1124 348.2154,-200.2982 359.1791,-197.1944"/>
<polygon fill="#191970" stroke="#191970" points="225.5761,-452.1183 228.0935,-462.4097 232.5433,-452.7947 225.5761,-452.1183"/>
</g>
<!-- Node2&#45;&gt;Node19 -->
<g id="edge18" class="edge">
<title>Node2&#45;&gt;Node19</title>
<path fill="none" stroke="#191970" d="M232.3284,-452.0143C246.3478,-384.9297 286.1443,-210.9176 329,-172.5 334.3535,-167.7009 340.6245,-164.013 347.3102,-161.1919"/>
<polygon fill="#191970" stroke="#191970" points="228.8235,-451.6811 230.2306,-462.1821 235.6791,-453.0956 228.8235,-451.6811"/>
</g>
</g>
</svg>
