<?xml version="1.0" encoding="UTF-8" standalone="no"?>
<!DOCTYPE svg PUBLIC "-//W3C//DTD SVG 1.1//EN"
 "http://www.w3.org/Graphics/SVG/1.1/DTD/svg11.dtd">
<!-- Generated by graphviz version 2.40.1 (20161225.0304)
 -->
<!-- Title: PHInitVertexing::Setup Pages: 1 -->
<svg width="314pt" height="107pt"
 viewBox="0.00 0.00 314.00 107.00" xmlns="http://www.w3.org/2000/svg" xmlns:xlink="http://www.w3.org/1999/xlink">
<g id="graph0" class="graph" transform="scale(1 1) rotate(0) translate(4 103)">
<title>PHInitVertexing::Setup</title>
<!-- Node1 -->
<g id="node1" class="node">
<title>Node1</title>
<polygon fill="#bfbfbf" stroke="#000000" points="0,-39.5 0,-59.5 130,-59.5 130,-39.5 0,-39.5"/>
<text text-anchor="middle" x="65" y="-46.5" font-family="FreeSans" font-size="10.00" fill="#000000">PHInitVertexing::Setup</text>
</g>
<!-- Node2 -->
<g id="node2" class="node">
<title>Node2</title>
<g id="a_node2"><a xlink:href="../../d1/d94/classPHInitVertexing.html#ae940d897229a6432123063817d1e7627" target="_top" xlink:title="PHInitVertexing::InitRun">
<polygon fill="none" stroke="#000000" points="168,-78.5 168,-98.5 304,-98.5 304,-78.5 168,-78.5"/>
<text text-anchor="middle" x="236" y="-85.5" font-family="FreeSans" font-size="10.00" fill="#000000">PHInitVertexing::InitRun</text>
</a>
</g>
</g>
<!-- Node1&#45;&gt;Node2 -->
<g id="edge1" class="edge">
<title>Node1&#45;&gt;Node2</title>
<path fill="none" stroke="#191970" d="M118.8905,-61.7908C142.4754,-67.1698 169.7951,-73.4006 192.1125,-78.4906"/>
<polygon fill="#191970" stroke="#191970" points="119.5647,-58.3548 109.0367,-59.5435 118.0081,-65.1795 119.5647,-58.3548"/>
</g>
<!-- Node3 -->
<g id="node3" class="node">
<title>Node3</title>
<g id="a_node3"><a xlink:href="../../db/d07/classPHTruthVertexing.html#a3dec0e93742609d6be7318814e85b45b" target="_top" xlink:title="PHTruthVertexing::Setup">
<polygon fill="none" stroke="#000000" points="166,-39.5 166,-59.5 306,-59.5 306,-39.5 166,-39.5"/>
<text text-anchor="middle" x="236" y="-46.5" font-family="FreeSans" font-size="10.00" fill="#000000">PHTruthVertexing::Setup</text>
</a>
</g>
</g>
<!-- Node1&#45;&gt;Node3 -->
<g id="edge2" class="edge">
<title>Node1&#45;&gt;Node3</title>
<path fill="none" stroke="#191970" d="M140.3974,-49.5C148.8837,-49.5 157.5047,-49.5 165.9197,-49.5"/>
<polygon fill="#191970" stroke="#191970" points="140.1356,-46.0001 130.1356,-49.5 140.1355,-53.0001 140.1356,-46.0001"/>
</g>
<!-- Node4 -->
<g id="node4" class="node">
<title>Node4</title>
<g id="a_node4"><a xlink:href="../../d2/d8f/classPHInitZVertexing.html#aa582764dfeca5acd2a4233dac55f2953" target="_top" xlink:title="PHInitZVertexing::Setup">
<polygon fill="none" stroke="#000000" points="167.5,-.5 167.5,-20.5 304.5,-20.5 304.5,-.5 167.5,-.5"/>
<text text-anchor="middle" x="236" y="-7.5" font-family="FreeSans" font-size="10.00" fill="#000000">PHInitZVertexing::Setup</text>
</a>
</g>
</g>
<!-- Node1&#45;&gt;Node4 -->
<g id="edge3" class="edge">
<title>Node1&#45;&gt;Node4</title>
<path fill="none" stroke="#191970" d="M118.8905,-37.2092C142.4754,-31.8302 169.7951,-25.5994 192.1125,-20.5094"/>
<polygon fill="#191970" stroke="#191970" points="118.0081,-33.8205 109.0367,-39.4565 119.5647,-40.6452 118.0081,-33.8205"/>
</g>
</g>
</svg>
