<?xml version="1.0" encoding="UTF-8" standalone="no"?>
<!DOCTYPE svg PUBLIC "-//W3C//DTD SVG 1.1//EN"
 "http://www.w3.org/Graphics/SVG/1.1/DTD/svg11.dtd">
<!-- Generated by graphviz version 2.40.1 (20161225.0304)
 -->
<!-- Title: genfit::MaterialEffects Pages: 1 -->
<svg width="222pt" height="156pt"
 viewBox="0.00 0.00 221.50 156.00" xmlns="http://www.w3.org/2000/svg" xmlns:xlink="http://www.w3.org/1999/xlink">
<g id="graph0" class="graph" transform="scale(1 1) rotate(0) translate(4 152)">
<title>genfit::MaterialEffects</title>
<!-- Node1 -->
<g id="node1" class="node">
<title>Node1</title>
<polygon fill="#bfbfbf" stroke="#000000" points="14.5,-.5 14.5,-20.5 142.5,-20.5 142.5,-.5 14.5,-.5"/>
<text text-anchor="middle" x="78.5" y="-7.5" font-family="FreeSans" font-size="10.00" fill="#000000">genfit::MaterialEffects</text>
</g>
<!-- Node1&#45;&gt;Node1 -->
<g id="edge3" class="edge">
<title>Node1&#45;&gt;Node1</title>
<path fill="none" stroke="#9a32cd" stroke-dasharray="5,2" d="M153.0053,-14.9752C157.6818,-13.9217 160.5,-12.4299 160.5,-10.5 160.5,-7.4121 153.2855,-5.446 142.7877,-4.6016"/>
<polygon fill="#9a32cd" stroke="#9a32cd" points="152.2093,-11.5522 142.7877,-16.3984 153.175,-18.4853 152.2093,-11.5522"/>
<text text-anchor="middle" x="187" y="-7.5" font-family="FreeSans" font-size="10.00" fill="#000000"> instance_</text>
</g>
<!-- Node2 -->
<g id="node2" class="node">
<title>Node2</title>
<g id="a_node2"><a xlink:href="../../d5/d22/classgenfit_1_1AbsMaterialInterface.html" target="_top" xlink:title="Abstract base class for geometry interfacing.">
<polygon fill="none" stroke="#000000" points="0,-69.5 0,-89.5 157,-89.5 157,-69.5 0,-69.5"/>
<text text-anchor="middle" x="78.5" y="-76.5" font-family="FreeSans" font-size="10.00" fill="#000000">genfit::AbsMaterialInterface</text>
</a>
</g>
</g>
<!-- Node2&#45;&gt;Node1 -->
<g id="edge1" class="edge">
<title>Node2&#45;&gt;Node1</title>
<path fill="none" stroke="#9a32cd" stroke-dasharray="5,2" d="M78.5,-59.2177C78.5,-46.5684 78.5,-30.8285 78.5,-20.723"/>
<polygon fill="#9a32cd" stroke="#9a32cd" points="75.0001,-59.3188 78.5,-69.3188 82.0001,-59.3188 75.0001,-59.3188"/>
<text text-anchor="middle" x="127" y="-42" font-family="FreeSans" font-size="10.00" fill="#000000"> materialInterface_</text>
</g>
<!-- Node3 -->
<g id="node3" class="node">
<title>Node3</title>
<polygon fill="none" stroke="#bfbfbf" points="50,-127.5 50,-147.5 107,-147.5 107,-127.5 50,-127.5"/>
<text text-anchor="middle" x="78.5" y="-134.5" font-family="FreeSans" font-size="10.00" fill="#000000">TObject</text>
</g>
<!-- Node3&#45;&gt;Node2 -->
<g id="edge2" class="edge">
<title>Node3&#45;&gt;Node2</title>
<path fill="none" stroke="#191970" d="M78.5,-117.3902C78.5,-108.1201 78.5,-97.5083 78.5,-89.8776"/>
<polygon fill="#191970" stroke="#191970" points="75.0001,-117.3971 78.5,-127.3972 82.0001,-117.3972 75.0001,-117.3971"/>
</g>
</g>
</svg>
