<?xml version="1.0" encoding="UTF-8" standalone="no"?>
<!DOCTYPE svg PUBLIC "-//W3C//DTD SVG 1.1//EN"
 "http://www.w3.org/Graphics/SVG/1.1/DTD/svg11.dtd">
<!-- Generated by graphviz version 2.40.1 (20161225.0304)
 -->
<!-- Title: GenFit/blob/master/GBL/include/GblTrackSegmentController.h Pages: 1 -->
<svg width="350pt" height="329pt"
 viewBox="0.00 0.00 350.25 329.00" xmlns="http://www.w3.org/2000/svg" xmlns:xlink="http://www.w3.org/1999/xlink">
<g id="graph0" class="graph" transform="scale(1 1) rotate(0) translate(4 325)">
<title>GenFit/blob/master/GBL/include/GblTrackSegmentController.h</title>
<!-- Node1 -->
<g id="node1" class="node">
<title>Node1</title>
<polygon fill="#bfbfbf" stroke="#000000" points="153.4328,-276.5 153.4328,-320.5 327.4328,-320.5 327.4328,-276.5 153.4328,-276.5"/>
<text text-anchor="start" x="161.4328" y="-307.5" font-family="FreeSans" font-size="10.00" fill="#000000">GenFit/blob/master</text>
<text text-anchor="start" x="161.4328" y="-295.5" font-family="FreeSans" font-size="10.00" fill="#000000">/GBL/include/GblTrackSegment</text>
<text text-anchor="middle" x="240.4328" y="-283.5" font-family="FreeSans" font-size="10.00" fill="#000000">Controller.h</text>
</g>
<!-- Node2 -->
<g id="node2" class="node">
<title>Node2</title>
<g id="a_node2"><a xlink:href="../../d6/da3/GblFitter_8h.html" target="_top" xlink:title="GenFit/blob/master\l/GBL/include/GblFitter.h">
<polygon fill="none" stroke="#000000" points="172.4328,-207.5 172.4328,-239.5 308.4328,-239.5 308.4328,-207.5 172.4328,-207.5"/>
<text text-anchor="start" x="180.4328" y="-226.5" font-family="FreeSans" font-size="10.00" fill="#000000">GenFit/blob/master</text>
<text text-anchor="middle" x="240.4328" y="-214.5" font-family="FreeSans" font-size="10.00" fill="#000000">/GBL/include/GblFitter.h</text>
</a>
</g>
</g>
<!-- Node1&#45;&gt;Node2 -->
<g id="edge1" class="edge">
<title>Node1&#45;&gt;Node2</title>
<path fill="none" stroke="#191970" d="M233.7439,-266.335C233.5322,-257.1462 233.8708,-247.5211 234.7597,-239.7277"/>
<polygon fill="#191970" stroke="#191970" points="230.2514,-266.5784 234.2168,-276.4032 237.2437,-266.25 230.2514,-266.5784"/>
</g>
<!-- Node2&#45;&gt;Node1 -->
<g id="edge10" class="edge">
<title>Node2&#45;&gt;Node1</title>
<path fill="none" stroke="#191970" d="M246.9056,-249.7565C247.3469,-258.4571 247.2613,-268.0476 246.6489,-276.4032"/>
<polygon fill="#191970" stroke="#191970" points="250.3898,-249.4178 246.106,-239.7277 243.412,-249.9743 250.3898,-249.4178"/>
</g>
<!-- Node3 -->
<g id="node3" class="node">
<title>Node3</title>
<g id="a_node3"><a xlink:href="../../de/d06/GblFitterInfo_8h.html" target="_top" xlink:title="GenFit/blob/master\l/GBL/include/GblFitterInfo.h">
<polygon fill="none" stroke="#000000" points="66.4328,-138.5 66.4328,-170.5 222.4328,-170.5 222.4328,-138.5 66.4328,-138.5"/>
<text text-anchor="start" x="74.4328" y="-157.5" font-family="FreeSans" font-size="10.00" fill="#000000">GenFit/blob/master</text>
<text text-anchor="middle" x="144.4328" y="-145.5" font-family="FreeSans" font-size="10.00" fill="#000000">/GBL/include/GblFitterInfo.h</text>
</a>
</g>
</g>
<!-- Node2&#45;&gt;Node3 -->
<g id="edge2" class="edge">
<title>Node2&#45;&gt;Node3</title>
<path fill="none" stroke="#191970" d="M203.9078,-201.7898C189.1754,-191.7106 172.9589,-179.9349 161.0923,-170.6557"/>
<polygon fill="#191970" stroke="#191970" points="202.1191,-204.8051 212.3664,-207.4966 206.0341,-199.0023 202.1191,-204.8051"/>
</g>
<!-- Node5 -->
<g id="node5" class="node">
<title>Node5</title>
<g id="a_node5"><a xlink:href="../../db/df5/GblFitter_8cc.html" target="_top" xlink:title="GenFit/blob/master\l/GBL/src/GblFitter.cc">
<polygon fill="none" stroke="#000000" points="191.4328,-.5 191.4328,-32.5 309.4328,-32.5 309.4328,-.5 191.4328,-.5"/>
<text text-anchor="start" x="199.4328" y="-19.5" font-family="FreeSans" font-size="10.00" fill="#000000">GenFit/blob/master</text>
<text text-anchor="middle" x="250.4328" y="-7.5" font-family="FreeSans" font-size="10.00" fill="#000000">/GBL/src/GblFitter.cc</text>
</a>
</g>
</g>
<!-- Node2&#45;&gt;Node5 -->
<g id="edge11" class="edge">
<title>Node2&#45;&gt;Node5</title>
<path fill="none" stroke="#191970" d="M267.1612,-200.3111C290.7807,-177.8981 323.566,-141.5948 337.4328,-102 342.2807,-88.1577 344.6429,-81.7721 337.4328,-69 328.2401,-52.7159 311.7442,-40.9161 295.5691,-32.6788"/>
<polygon fill="#191970" stroke="#191970" points="264.5033,-198.0021 259.5431,-207.3642 269.2589,-203.1387 264.5033,-198.0021"/>
</g>
<!-- Node3&#45;&gt;Node1 -->
<g id="edge7" class="edge">
<title>Node3&#45;&gt;Node1</title>
<path fill="none" stroke="#191970" d="M145.5674,-180.621C147.4111,-198.544 152.0334,-222.2106 163.4328,-240 172.7625,-254.5594 187.0495,-266.8731 200.7944,-276.3912"/>
<polygon fill="#191970" stroke="#191970" points="149.049,-180.2508 144.7576,-170.564 142.0716,-180.8127 149.049,-180.2508"/>
</g>
<!-- Node3&#45;&gt;Node2 -->
<g id="edge6" class="edge">
<title>Node3&#45;&gt;Node2</title>
<path fill="none" stroke="#191970" d="M181.2,-176.3759C195.9485,-186.4736 212.1492,-198.2448 223.968,-207.4966"/>
<polygon fill="#191970" stroke="#191970" points="182.9745,-173.3509 172.7283,-170.6557 179.0574,-179.1523 182.9745,-173.3509"/>
</g>
<!-- Node4 -->
<g id="node4" class="node">
<title>Node4</title>
<g id="a_node4"><a xlink:href="../../d9/d27/GblFitStatus_8h.html" target="_top" xlink:title="GenFit/blob/master\l/GBL/include/GblFitStatus.h">
<polygon fill="none" stroke="#000000" points="172.9328,-69.5 172.9328,-101.5 327.9328,-101.5 327.9328,-69.5 172.9328,-69.5"/>
<text text-anchor="start" x="180.9328" y="-88.5" font-family="FreeSans" font-size="10.00" fill="#000000">GenFit/blob/master</text>
<text text-anchor="middle" x="250.4328" y="-76.5" font-family="FreeSans" font-size="10.00" fill="#000000">/GBL/include/GblFitStatus.h</text>
</a>
</g>
</g>
<!-- Node3&#45;&gt;Node4 -->
<g id="edge3" class="edge">
<title>Node3&#45;&gt;Node4</title>
<path fill="none" stroke="#191970" d="M177.7847,-132.7898C193.2687,-122.7106 211.359,-110.9349 225.614,-101.6557"/>
<polygon fill="#191970" stroke="#191970" points="175.4892,-130.1078 169.0178,-138.4966 179.3081,-135.9744 175.4892,-130.1078"/>
</g>
<!-- Node3&#45;&gt;Node5 -->
<g id="edge8" class="edge">
<title>Node3&#45;&gt;Node5</title>
<path fill="none" stroke="#191970" d="M66.75,-135.3751C23.766,-121.0135 -16.5486,-98.7159 7.4328,-69 30.1002,-40.9124 126.8685,-27.1167 191.2394,-20.9272"/>
<polygon fill="#191970" stroke="#191970" points="65.931,-138.7877 76.5218,-138.4972 68.0615,-132.1197 65.931,-138.7877"/>
</g>
<!-- Node6 -->
<g id="node6" class="node">
<title>Node6</title>
<g id="a_node6"><a xlink:href="../../d6/dcc/GblFitterInfo_8cc.html" target="_top" xlink:title="GenFit/blob/master\l/GBL/src/GblFitterInfo.cc">
<polygon fill="none" stroke="#000000" points="16.4328,-69.5 16.4328,-101.5 154.4328,-101.5 154.4328,-69.5 16.4328,-69.5"/>
<text text-anchor="start" x="24.4328" y="-88.5" font-family="FreeSans" font-size="10.00" fill="#000000">GenFit/blob/master</text>
<text text-anchor="middle" x="85.4328" y="-76.5" font-family="FreeSans" font-size="10.00" fill="#000000">/GBL/src/GblFitterInfo.cc</text>
</a>
</g>
</g>
<!-- Node3&#45;&gt;Node6 -->
<g id="edge9" class="edge">
<title>Node3&#45;&gt;Node6</title>
<path fill="none" stroke="#191970" d="M124.2096,-130.8491C116.0553,-121.3128 106.8482,-110.5451 99.4524,-101.8958"/>
<polygon fill="#191970" stroke="#191970" points="121.5898,-133.1708 130.7488,-138.4966 126.91,-128.6216 121.5898,-133.1708"/>
</g>
<!-- Node4&#45;&gt;Node2 -->
<g id="edge4" class="edge">
<title>Node4&#45;&gt;Node2</title>
<path fill="none" stroke="#191970" d="M248.5198,-111.9003C246.4751,-140.1168 243.299,-183.9468 241.5995,-207.3996"/>
<polygon fill="#191970" stroke="#191970" points="252.0106,-112.1525 249.2426,-101.9256 245.0289,-111.6465 252.0106,-112.1525"/>
</g>
<!-- Node4&#45;&gt;Node5 -->
<g id="edge5" class="edge">
<title>Node4&#45;&gt;Node5</title>
<path fill="none" stroke="#191970" d="M250.4328,-59.2468C250.4328,-50.3917 250.4328,-40.7667 250.4328,-32.8958"/>
<polygon fill="#191970" stroke="#191970" points="246.9329,-59.4965 250.4328,-69.4966 253.9329,-59.4966 246.9329,-59.4965"/>
</g>
</g>
</svg>
