<?xml version="1.0" encoding="UTF-8" standalone="no"?>
<!DOCTYPE svg PUBLIC "-//W3C//DTD SVG 1.1//EN"
 "http://www.w3.org/Graphics/SVG/1.1/DTD/svg11.dtd">
<!-- Generated by graphviz version 2.40.1 (20161225.0304)
 -->
<!-- Title: GenFit/blob/master/GBL/include/GblData.h Pages: 1 -->
<svg width="760pt" height="155pt"
 viewBox="0.00 0.00 760.00 155.00" xmlns="http://www.w3.org/2000/svg" xmlns:xlink="http://www.w3.org/1999/xlink">
<g id="graph0" class="graph" transform="scale(1 1) rotate(0) translate(4 151)">
<title>GenFit/blob/master/GBL/include/GblData.h</title>
<!-- Node1 -->
<g id="node1" class="node">
<title>Node1</title>
<polygon fill="#bfbfbf" stroke="#000000" points="226.5,-114.5 226.5,-146.5 361.5,-146.5 361.5,-114.5 226.5,-114.5"/>
<text text-anchor="start" x="234.5" y="-133.5" font-family="FreeSans" font-size="10.00" fill="#000000">GenFit/blob/master</text>
<text text-anchor="middle" x="294" y="-121.5" font-family="FreeSans" font-size="10.00" fill="#000000">/GBL/include/GblData.h</text>
</g>
<!-- Node2 -->
<g id="node2" class="node">
<title>Node2</title>
<polygon fill="none" stroke="#bfbfbf" points="0,-.5 0,-20.5 60,-20.5 60,-.5 0,-.5"/>
<text text-anchor="middle" x="30" y="-7.5" font-family="FreeSans" font-size="10.00" fill="#000000">iostream</text>
</g>
<!-- Node1&#45;&gt;Node2 -->
<g id="edge1" class="edge">
<title>Node1&#45;&gt;Node2</title>
<path fill="none" stroke="#191970" d="M226.2724,-118.6121C190.0378,-110.4771 145.4928,-97.5487 109,-78 84.6252,-64.9428 61.1174,-43.3225 46.1769,-28.0745"/>
<polygon fill="#191970" stroke="#191970" points="48.6256,-25.571 39.1857,-20.7608 43.5656,-30.408 48.6256,-25.571"/>
</g>
<!-- Node3 -->
<g id="node3" class="node">
<title>Node3</title>
<polygon fill="none" stroke="#bfbfbf" points="78.5,-.5 78.5,-20.5 127.5,-20.5 127.5,-.5 78.5,-.5"/>
<text text-anchor="middle" x="103" y="-7.5" font-family="FreeSans" font-size="10.00" fill="#000000">vector</text>
</g>
<!-- Node1&#45;&gt;Node3 -->
<g id="edge2" class="edge">
<title>Node1&#45;&gt;Node3</title>
<path fill="none" stroke="#191970" d="M226.3808,-115.5011C187.123,-105.5965 142.6077,-91.9173 128,-78 115.0222,-65.6355 108.7389,-45.9359 105.7225,-31.0025"/>
<polygon fill="#191970" stroke="#191970" points="109.1025,-29.9954 103.9958,-20.7125 102.199,-31.1538 109.1025,-29.9954"/>
</g>
<!-- Node4 -->
<g id="node4" class="node">
<title>Node4</title>
<polygon fill="none" stroke="#bfbfbf" points="290,-.5 290,-20.5 342,-20.5 342,-.5 290,-.5"/>
<text text-anchor="middle" x="316" y="-7.5" font-family="FreeSans" font-size="10.00" fill="#000000">math.h</text>
</g>
<!-- Node1&#45;&gt;Node4 -->
<g id="edge3" class="edge">
<title>Node1&#45;&gt;Node4</title>
<path fill="none" stroke="#191970" d="M272.8541,-114.2302C256.5339,-99.5755 238.3875,-77.2834 249,-57 256.0778,-43.4725 269.0798,-33.0909 281.7598,-25.6052"/>
<polygon fill="#191970" stroke="#191970" points="283.7344,-28.5154 290.8466,-20.6625 280.3896,-22.3662 283.7344,-28.5154"/>
</g>
<!-- Node5 -->
<g id="node5" class="node">
<title>Node5</title>
<g id="a_node5"><a xlink:href="../../da/d55/VMatrix_8h.html" target="_top" xlink:title="VMatrix.h">
<polygon fill="none" stroke="#000000" points="136.5,-57.5 136.5,-77.5 201.5,-77.5 201.5,-57.5 136.5,-57.5"/>
<text text-anchor="middle" x="169" y="-64.5" font-family="FreeSans" font-size="10.00" fill="#000000">VMatrix.h</text>
</a>
</g>
</g>
<!-- Node1&#45;&gt;Node5 -->
<g id="edge4" class="edge">
<title>Node1&#45;&gt;Node5</title>
<path fill="none" stroke="#191970" d="M262.1338,-114.4394C242.4565,-104.5221 217.3969,-91.892 198.2296,-82.2317"/>
<polygon fill="#191970" stroke="#191970" points="199.5789,-78.9924 189.0737,-77.6171 196.4283,-85.2433 199.5789,-78.9924"/>
</g>
<!-- Node8 -->
<g id="node8" class="node">
<title>Node8</title>
<polygon fill="none" stroke="#bfbfbf" points="258,-57.5 258,-77.5 330,-77.5 330,-57.5 258,-57.5"/>
<text text-anchor="middle" x="294" y="-64.5" font-family="FreeSans" font-size="10.00" fill="#000000">TVectorD.h</text>
</g>
<!-- Node1&#45;&gt;Node8 -->
<g id="edge10" class="edge">
<title>Node1&#45;&gt;Node8</title>
<path fill="none" stroke="#191970" d="M294,-114.2759C294,-106.2654 294,-96.5159 294,-87.9952"/>
<polygon fill="#191970" stroke="#191970" points="297.5001,-87.7512 294,-77.7513 290.5001,-87.7513 297.5001,-87.7512"/>
</g>
<!-- Node9 -->
<g id="node9" class="node">
<title>Node9</title>
<polygon fill="none" stroke="#bfbfbf" points="348,-57.5 348,-77.5 420,-77.5 420,-57.5 348,-57.5"/>
<text text-anchor="middle" x="384" y="-64.5" font-family="FreeSans" font-size="10.00" fill="#000000">TMatrixD.h</text>
</g>
<!-- Node1&#45;&gt;Node9 -->
<g id="edge11" class="edge">
<title>Node1&#45;&gt;Node9</title>
<path fill="none" stroke="#191970" d="M317.1772,-114.2759C330.7635,-104.7655 347.8515,-92.8039 361.3464,-83.3576"/>
<polygon fill="#191970" stroke="#191970" points="363.4374,-86.1662 369.6226,-77.5642 359.4231,-80.4315 363.4374,-86.1662"/>
</g>
<!-- Node10 -->
<g id="node10" class="node">
<title>Node10</title>
<polygon fill="none" stroke="#bfbfbf" points="438,-57.5 438,-77.5 532,-77.5 532,-57.5 438,-57.5"/>
<text text-anchor="middle" x="485" y="-64.5" font-family="FreeSans" font-size="10.00" fill="#000000">TMatrixDSym.h</text>
</g>
<!-- Node1&#45;&gt;Node10 -->
<g id="edge12" class="edge">
<title>Node1&#45;&gt;Node10</title>
<path fill="none" stroke="#191970" d="M342.6916,-114.4394C374.3681,-103.9912 415.1726,-90.5321 444.9604,-80.7068"/>
<polygon fill="#191970" stroke="#191970" points="446.2106,-83.98 454.611,-77.5236 444.0179,-77.3322 446.2106,-83.98"/>
</g>
<!-- Node11 -->
<g id="node11" class="node">
<title>Node11</title>
<polygon fill="none" stroke="#bfbfbf" points="550,-57.5 550,-77.5 642,-77.5 642,-57.5 550,-57.5"/>
<text text-anchor="middle" x="596" y="-64.5" font-family="FreeSans" font-size="10.00" fill="#000000">Math/SMatrix.h</text>
</g>
<!-- Node1&#45;&gt;Node11 -->
<g id="edge13" class="edge">
<title>Node1&#45;&gt;Node11</title>
<path fill="none" stroke="#191970" d="M361.7747,-116.3616C415.3019,-105.1953 489.1201,-89.7961 539.4884,-79.2888"/>
<polygon fill="#191970" stroke="#191970" points="540.4759,-82.6583 549.5504,-77.1898 539.0463,-75.8058 540.4759,-82.6583"/>
</g>
<!-- Node12 -->
<g id="node12" class="node">
<title>Node12</title>
<polygon fill="none" stroke="#bfbfbf" points="660,-57.5 660,-77.5 752,-77.5 752,-57.5 660,-57.5"/>
<text text-anchor="middle" x="706" y="-64.5" font-family="FreeSans" font-size="10.00" fill="#000000">Math/SVector.h</text>
</g>
<!-- Node1&#45;&gt;Node12 -->
<g id="edge14" class="edge">
<title>Node1&#45;&gt;Node12</title>
<path fill="none" stroke="#191970" d="M361.579,-121.4361C431.2963,-111.8874 543.4256,-95.9798 649.862,-78.1417"/>
<polygon fill="#191970" stroke="#191970" points="650.5326,-81.5782 659.8122,-76.4656 649.3697,-74.6754 650.5326,-81.5782"/>
</g>
<!-- Node5&#45;&gt;Node2 -->
<g id="edge5" class="edge">
<title>Node5&#45;&gt;Node2</title>
<path fill="none" stroke="#191970" d="M144.4696,-57.4408C122.1769,-48.2992 89.0667,-34.7216 64.1828,-24.5174"/>
<polygon fill="#191970" stroke="#191970" points="65.333,-21.2063 54.7528,-20.6504 62.6771,-27.6829 65.333,-21.2063"/>
</g>
<!-- Node5&#45;&gt;Node3 -->
<g id="edge7" class="edge">
<title>Node5&#45;&gt;Node3</title>
<path fill="none" stroke="#191970" d="M157.2005,-57.3095C147.5336,-48.9608 133.6575,-36.9769 122.3657,-27.2249"/>
<polygon fill="#191970" stroke="#191970" points="124.5533,-24.4896 114.6973,-20.6022 119.9779,-29.7874 124.5533,-24.4896"/>
</g>
<!-- Node5&#45;&gt;Node4 -->
<g id="edge9" class="edge">
<title>Node5&#45;&gt;Node4</title>
<path fill="none" stroke="#191970" d="M194.9423,-57.4408C218.6223,-48.2587 253.8439,-34.6013 280.1986,-24.3822"/>
<polygon fill="#191970" stroke="#191970" points="281.7644,-27.529 289.8226,-20.6504 279.2336,-21.0025 281.7644,-27.529"/>
</g>
<!-- Node6 -->
<g id="node6" class="node">
<title>Node6</title>
<polygon fill="none" stroke="#bfbfbf" points="214.5,-.5 214.5,-20.5 271.5,-20.5 271.5,-.5 214.5,-.5"/>
<text text-anchor="middle" x="243" y="-7.5" font-family="FreeSans" font-size="10.00" fill="#000000">iomanip</text>
</g>
<!-- Node5&#45;&gt;Node6 -->
<g id="edge6" class="edge">
<title>Node5&#45;&gt;Node6</title>
<path fill="none" stroke="#191970" d="M182.2297,-57.3095C193.1736,-48.8798 208.929,-36.7439 221.6549,-26.9415"/>
<polygon fill="#191970" stroke="#191970" points="224.0984,-29.4773 229.8848,-20.6022 219.8267,-23.9318 224.0984,-29.4773"/>
</g>
<!-- Node7 -->
<g id="node7" class="node">
<title>Node7</title>
<polygon fill="none" stroke="#bfbfbf" points="146,-.5 146,-20.5 196,-20.5 196,-.5 146,-.5"/>
<text text-anchor="middle" x="171" y="-7.5" font-family="FreeSans" font-size="10.00" fill="#000000">cstring</text>
</g>
<!-- Node5&#45;&gt;Node7 -->
<g id="edge8" class="edge">
<title>Node5&#45;&gt;Node7</title>
<path fill="none" stroke="#191970" d="M169.3576,-57.3095C169.6164,-49.9335 169.9747,-39.72 170.2907,-30.715"/>
<polygon fill="#191970" stroke="#191970" points="173.7926,-30.7188 170.6455,-20.6022 166.7969,-30.4733 173.7926,-30.7188"/>
</g>
</g>
</svg>
