<?xml version="1.0" encoding="UTF-8" standalone="no"?>
<!DOCTYPE svg PUBLIC "-//W3C//DTD SVG 1.1//EN"
 "http://www.w3.org/Graphics/SVG/1.1/DTD/svg11.dtd">
<!-- Generated by graphviz version 2.40.1 (20161225.0304)
 -->
<!-- Title: genfit::TrackPoint::setFitterInfo Pages: 1 -->
<svg width="264pt" height="92pt"
 viewBox="0.00 0.00 264.00 92.00" xmlns="http://www.w3.org/2000/svg" xmlns:xlink="http://www.w3.org/1999/xlink">
<g id="graph0" class="graph" transform="scale(1 1) rotate(0) translate(4 88)">
<title>genfit::TrackPoint::setFitterInfo</title>
<!-- Node1 -->
<g id="node1" class="node">
<title>Node1</title>
<polygon fill="#bfbfbf" stroke="#000000" points="0,-25.5 0,-57.5 104,-57.5 104,-25.5 0,-25.5"/>
<text text-anchor="start" x="8" y="-44.5" font-family="FreeSans" font-size="10.00" fill="#000000">genfit::TrackPoint</text>
<text text-anchor="middle" x="52" y="-32.5" font-family="FreeSans" font-size="10.00" fill="#000000">::setFitterInfo</text>
</g>
<!-- Node2 -->
<g id="node2" class="node">
<title>Node2</title>
<g id="a_node2"><a xlink:href="../../d9/d8c/classgenfit_1_1AbsFitterInfo.html#afea691164c74306d2031439ca40d1687" target="_top" xlink:title="genfit::AbsFitterInfo\l::getRep">
<polygon fill="none" stroke="#000000" points="140,-51.5 140,-83.5 256,-83.5 256,-51.5 140,-51.5"/>
<text text-anchor="start" x="148" y="-70.5" font-family="FreeSans" font-size="10.00" fill="#000000">genfit::AbsFitterInfo</text>
<text text-anchor="middle" x="198" y="-58.5" font-family="FreeSans" font-size="10.00" fill="#000000">::getRep</text>
</a>
</g>
</g>
<!-- Node1&#45;&gt;Node2 -->
<g id="edge1" class="edge">
<title>Node1&#45;&gt;Node2</title>
<path fill="none" stroke="#191970" d="M104.297,-50.8132C112.5892,-52.2899 121.2699,-53.8357 129.8605,-55.3656"/>
<polygon fill="#191970" stroke="#191970" points="129.4162,-58.8414 139.875,-57.149 130.6435,-51.9499 129.4162,-58.8414"/>
</g>
<!-- Node3 -->
<g id="node3" class="node">
<title>Node3</title>
<g id="a_node3"><a xlink:href="../../db/d40/classgenfit_1_1TrackPoint.html#a07c95b54534e11149e4081baed75001e" target="_top" xlink:title="genfit::TrackPoint\l::hasFitterInfo">
<polygon fill="none" stroke="#000000" points="146,-.5 146,-32.5 250,-32.5 250,-.5 146,-.5"/>
<text text-anchor="start" x="154" y="-19.5" font-family="FreeSans" font-size="10.00" fill="#000000">genfit::TrackPoint</text>
<text text-anchor="middle" x="198" y="-7.5" font-family="FreeSans" font-size="10.00" fill="#000000">::hasFitterInfo</text>
</a>
</g>
</g>
<!-- Node1&#45;&gt;Node3 -->
<g id="edge2" class="edge">
<title>Node1&#45;&gt;Node3</title>
<path fill="none" stroke="#191970" d="M104.297,-32.545C114.466,-30.8038 125.2193,-28.9624 135.6741,-27.1722"/>
<polygon fill="#191970" stroke="#191970" points="136.3117,-30.6141 145.5775,-25.4765 135.1302,-23.7145 136.3117,-30.6141"/>
</g>
</g>
</svg>
