<?xml version="1.0" encoding="UTF-8" standalone="no"?>
<!DOCTYPE svg PUBLIC "-//W3C//DTD SVG 1.1//EN"
 "http://www.w3.org/Graphics/SVG/1.1/DTD/svg11.dtd">
<!-- Generated by graphviz version 2.40.1 (20161225.0304)
 -->
<!-- Title: genfit::TrackPoint::setTrack Pages: 1 -->
<svg width="1242pt" height="400pt"
 viewBox="0.00 0.00 1242.00 400.00" xmlns="http://www.w3.org/2000/svg" xmlns:xlink="http://www.w3.org/1999/xlink">
<g id="graph0" class="graph" transform="scale(1 1) rotate(0) translate(4 396)">
<title>genfit::TrackPoint::setTrack</title>
<!-- Node1 -->
<g id="node1" class="node">
<title>Node1</title>
<polygon fill="#bfbfbf" stroke="#000000" points="0,-142.5 0,-174.5 104,-174.5 104,-142.5 0,-142.5"/>
<text text-anchor="start" x="8" y="-161.5" font-family="FreeSans" font-size="10.00" fill="#000000">genfit::TrackPoint</text>
<text text-anchor="middle" x="52" y="-149.5" font-family="FreeSans" font-size="10.00" fill="#000000">::setTrack</text>
</g>
<!-- Node2 -->
<g id="node2" class="node">
<title>Node2</title>
<g id="a_node2"><a xlink:href="../../d6/d8a/classgenfit_1_1Track.html#a7e61ada0d84db561ede923db92c4ab01" target="_top" xlink:title="Insert TrackPoint BEFORE TrackPoint with position id, if id &gt;= 0.">
<polygon fill="none" stroke="#000000" points="140,-148.5 140,-168.5 280,-168.5 280,-148.5 140,-148.5"/>
<text text-anchor="middle" x="210" y="-155.5" font-family="FreeSans" font-size="10.00" fill="#000000">genfit::Track::insertPoint</text>
</a>
</g>
</g>
<!-- Node1&#45;&gt;Node2 -->
<g id="edge1" class="edge">
<title>Node1&#45;&gt;Node2</title>
<path fill="none" stroke="#191970" d="M114.2579,-158.5C122.6555,-158.5 131.3177,-158.5 139.8408,-158.5"/>
<polygon fill="#191970" stroke="#191970" points="114.173,-155.0001 104.173,-158.5 114.173,-162.0001 114.173,-155.0001"/>
</g>
<!-- Node3 -->
<g id="node3" class="node">
<title>Node3</title>
<g id="a_node3"><a xlink:href="../../d7/dd5/classPHGenFit_1_1Track.html#a88666b0914fa412f3c139c6acb07a55b" target="_top" xlink:title="Add measurement.">
<polygon fill="none" stroke="#000000" points="318.5,-297.5 318.5,-317.5 509.5,-317.5 509.5,-297.5 318.5,-297.5"/>
<text text-anchor="middle" x="414" y="-304.5" font-family="FreeSans" font-size="10.00" fill="#000000">PHGenFit::Track::addMeasurement</text>
</a>
</g>
</g>
<!-- Node2&#45;&gt;Node3 -->
<g id="edge2" class="edge">
<title>Node2&#45;&gt;Node3</title>
<path fill="none" stroke="#191970" d="M219.9214,-177.7552C235.9464,-206.7744 270.3961,-261.218 316,-288.5 322.0234,-292.1034 328.5937,-295.0422 335.3871,-297.4365"/>
<polygon fill="#191970" stroke="#191970" points="222.843,-175.797 215.0335,-168.6372 216.6735,-179.1043 222.843,-175.797"/>
</g>
<!-- Node4 -->
<g id="node4" class="node">
<title>Node4</title>
<g id="a_node4"><a xlink:href="../../d7/dd5/classPHGenFit_1_1Track.html#a3c6639bba6584ef0fd2581150947b85f" target="_top" xlink:title="PHGenFit::Track::addMeasurements">
<polygon fill="none" stroke="#000000" points="316,-258.5 316,-278.5 512,-278.5 512,-258.5 316,-258.5"/>
<text text-anchor="middle" x="414" y="-265.5" font-family="FreeSans" font-size="10.00" fill="#000000">PHGenFit::Track::addMeasurements</text>
</a>
</g>
</g>
<!-- Node2&#45;&gt;Node4 -->
<g id="edge3" class="edge">
<title>Node2&#45;&gt;Node4</title>
<path fill="none" stroke="#191970" d="M225.1548,-176.1901C244.1612,-197.1556 278.7974,-231.5084 316,-249.5 323.4889,-253.1218 331.6148,-256.0533 339.8756,-258.4262"/>
<polygon fill="#191970" stroke="#191970" points="227.6953,-173.7796 218.4427,-168.6182 222.4571,-178.4231 227.6953,-173.7796"/>
</g>
<!-- Node19 -->
<g id="node19" class="node">
<title>Node19</title>
<g id="a_node19"><a xlink:href="../../d1/dc8/classgenfit_1_1GblFitter.html#a5da35921dc77781efca0650aefff823a" target="_top" xlink:title="Propagate seed, populate track with scatterers and GblFitterInfos with reference state set...">
<polygon fill="none" stroke="#000000" points="363.5,-207.5 363.5,-239.5 464.5,-239.5 464.5,-207.5 363.5,-207.5"/>
<text text-anchor="start" x="371.5" y="-226.5" font-family="FreeSans" font-size="10.00" fill="#000000">genfit::GblFitter::</text>
<text text-anchor="middle" x="414" y="-214.5" font-family="FreeSans" font-size="10.00" fill="#000000">constructGblInfo</text>
</a>
</g>
</g>
<!-- Node2&#45;&gt;Node19 -->
<g id="edge19" class="edge">
<title>Node2&#45;&gt;Node19</title>
<path fill="none" stroke="#191970" d="M243.8651,-172.3785C264.5112,-180.5633 291.5455,-190.7929 316,-198.5 331.2396,-203.3029 348.0278,-207.8502 363.3381,-211.7167"/>
<polygon fill="#191970" stroke="#191970" points="245.1569,-169.1256 234.5722,-168.6618 242.5574,-175.6251 245.1569,-169.1256"/>
</g>
<!-- Node20 -->
<g id="node20" class="node">
<title>Node20</title>
<g id="a_node20"><a xlink:href="../../d6/d8a/classgenfit_1_1Track.html#a73f9e05be44d2d677b4293f57d5fb004" target="_top" xlink:title="genfit::Track::createMeasurements">
<polygon fill="none" stroke="#000000" points="318,-168.5 318,-188.5 510,-188.5 510,-168.5 318,-168.5"/>
<text text-anchor="middle" x="414" y="-175.5" font-family="FreeSans" font-size="10.00" fill="#000000">genfit::Track::createMeasurements</text>
</a>
</g>
</g>
<!-- Node2&#45;&gt;Node20 -->
<g id="edge20" class="edge">
<title>Node2&#45;&gt;Node20</title>
<path fill="none" stroke="#191970" d="M290.2652,-166.3691C299.279,-167.2528 308.5303,-168.1598 317.7194,-169.0607"/>
<polygon fill="#191970" stroke="#191970" points="290.499,-162.8754 280.2052,-165.3829 289.816,-169.842 290.499,-162.8754"/>
</g>
<!-- Node22 -->
<g id="node22" class="node">
<title>Node22</title>
<g id="a_node22"><a xlink:href="../../d6/d8a/classgenfit_1_1Track.html#a3f78a9f2e938a40d4a51b6ce6d09bb26" target="_top" xlink:title="Creates a new TrackPoint containing the measurement, and adds it to the track.">
<polygon fill="none" stroke="#000000" points="322,-129.5 322,-149.5 506,-149.5 506,-129.5 322,-129.5"/>
<text text-anchor="middle" x="414" y="-136.5" font-family="FreeSans" font-size="10.00" fill="#000000">genfit::Track::insertMeasurement</text>
</a>
</g>
</g>
<!-- Node2&#45;&gt;Node22 -->
<g id="edge22" class="edge">
<title>Node2&#45;&gt;Node22</title>
<path fill="none" stroke="#191970" d="M290.3677,-151.0148C300.649,-150.0572 311.2378,-149.071 321.6896,-148.0975"/>
<polygon fill="#191970" stroke="#191970" points="289.8375,-147.5489 280.2052,-151.9613 290.4867,-154.5187 289.8375,-147.5489"/>
</g>
<!-- Node23 -->
<g id="node23" class="node">
<title>Node23</title>
<g id="a_node23"><a xlink:href="../../d6/d8a/classgenfit_1_1Track.html#a7f6d492fe5163ea636030fde354b63bd" target="_top" xlink:title="Insert TrackPoints BEFORE TrackPoint with position id, if id &gt;= 0.">
<polygon fill="none" stroke="#000000" points="341.5,-90.5 341.5,-110.5 486.5,-110.5 486.5,-90.5 341.5,-90.5"/>
<text text-anchor="middle" x="414" y="-97.5" font-family="FreeSans" font-size="10.00" fill="#000000">genfit::Track::insertPoints</text>
</a>
</g>
</g>
<!-- Node2&#45;&gt;Node23 -->
<g id="edge23" class="edge">
<title>Node2&#45;&gt;Node23</title>
<path fill="none" stroke="#191970" d="M244.4923,-144.7217C265.0263,-136.8759 291.7311,-127.289 316,-120.5 329.4617,-116.7342 344.1476,-113.3592 357.9566,-110.5014"/>
<polygon fill="#191970" stroke="#191970" points="243.0099,-141.5423 234.9453,-148.4135 245.5346,-148.0711 243.0099,-141.5423"/>
</g>
<!-- Node25 -->
<g id="node25" class="node">
<title>Node25</title>
<g id="a_node25"><a xlink:href="../../d0/d48/GenFit_2blob_2master_2test_2fitterTests_2main_8cc.html#ae66f6b31b5ad750f1fe042a706a4e3d4" target="_top" xlink:title="main">
<polygon fill="none" stroke="#000000" points="784,-71.5 784,-91.5 825,-91.5 825,-71.5 784,-71.5"/>
<text text-anchor="middle" x="804.5" y="-78.5" font-family="FreeSans" font-size="10.00" fill="#000000">main</text>
</a>
</g>
</g>
<!-- Node2&#45;&gt;Node25 -->
<g id="edge26" class="edge">
<title>Node2&#45;&gt;Node25</title>
<path fill="none" stroke="#191970" d="M226.4303,-141.3042C245.7753,-122.4254 279.875,-93.2361 316,-81.5 489.0141,-25.2923 715.0511,-63.2764 783.7898,-77.0687"/>
<polygon fill="#191970" stroke="#191970" points="223.89,-138.8949 219.3079,-148.4476 228.8471,-143.8373 223.89,-138.8949"/>
</g>
<!-- Node26 -->
<g id="node26" class="node">
<title>Node26</title>
<g id="a_node26"><a xlink:href="../../d5/daa/classPHRaveVertexing.html#af3ca2c60b8b69efdf6fdaf781f19948c" target="_top" xlink:title="PHRaveVertexing::Translate\lSvtxToGenFitTrack">
<polygon fill="none" stroke="#000000" points="336,-.5 336,-32.5 492,-32.5 492,-.5 336,-.5"/>
<text text-anchor="start" x="344" y="-19.5" font-family="FreeSans" font-size="10.00" fill="#000000">PHRaveVertexing::Translate</text>
<text text-anchor="middle" x="414" y="-7.5" font-family="FreeSans" font-size="10.00" fill="#000000">SvtxToGenFitTrack</text>
</a>
</g>
</g>
<!-- Node2&#45;&gt;Node26 -->
<g id="edge27" class="edge">
<title>Node2&#45;&gt;Node26</title>
<path fill="none" stroke="#191970" d="M222.8193,-140.167C240.8868,-115.6385 276.1235,-72.3564 316,-47.5 325.6162,-41.5059 336.4916,-36.578 347.4098,-32.5563"/>
<polygon fill="#191970" stroke="#191970" points="219.9742,-138.1285 216.9629,-148.2864 225.6515,-142.2235 219.9742,-138.1285"/>
</g>
<!-- Node5 -->
<g id="node5" class="node">
<title>Node5</title>
<g id="a_node5"><a xlink:href="../../d1/d04/classBDiJetModule.html#aa2f3d100a0f4b8a1b5836d9436e071e8" target="_top" xlink:title="Initialize the TTree.">
<polygon fill="none" stroke="#000000" points="551,-336.5 551,-368.5 701,-368.5 701,-336.5 551,-336.5"/>
<text text-anchor="start" x="559" y="-355.5" font-family="FreeSans" font-size="10.00" fill="#000000">BDiJetModule::MakeGenFit</text>
<text text-anchor="middle" x="626" y="-343.5" font-family="FreeSans" font-size="10.00" fill="#000000">Track</text>
</a>
</g>
</g>
<!-- Node4&#45;&gt;Node5 -->
<g id="edge4" class="edge">
<title>Node4&#45;&gt;Node5</title>
<path fill="none" stroke="#191970" d="M498.0407,-281.9056C502.8827,-283.8202 507.5755,-286.0057 512,-288.5 532.5486,-300.0845 528.112,-314.8148 548,-327.5 553.2752,-330.8647 559.0412,-333.8113 564.9736,-336.3841"/>
<polygon fill="#191970" stroke="#191970" points="499.1713,-278.593 488.5765,-278.5477 496.8305,-285.1901 499.1713,-278.593"/>
</g>
<!-- Node7 -->
<g id="node7" class="node">
<title>Node7</title>
<g id="a_node7"><a xlink:href="../../d6/d17/classSVReco.html#af99925be18cc9afbb2b9936df3a925db" target="_top" xlink:title="Uses the tracking clusters exclusively to make a GFTrack.">
<polygon fill="none" stroke="#000000" points="552.5,-297.5 552.5,-317.5 699.5,-317.5 699.5,-297.5 552.5,-297.5"/>
<text text-anchor="middle" x="626" y="-304.5" font-family="FreeSans" font-size="10.00" fill="#000000">SVReco::MakeGenFitTrack</text>
</a>
</g>
</g>
<!-- Node4&#45;&gt;Node7 -->
<g id="edge6" class="edge">
<title>Node4&#45;&gt;Node7</title>
<path fill="none" stroke="#191970" d="M478.4721,-280.3604C508.2325,-285.8352 543.1803,-292.2643 571.5897,-297.4906"/>
<polygon fill="#191970" stroke="#191970" points="479.0635,-276.9106 468.5953,-278.5435 477.797,-283.7951 479.0635,-276.9106"/>
</g>
<!-- Node17 -->
<g id="node17" class="node">
<title>Node17</title>
<g id="a_node17"><a xlink:href="../../d2/d38/minimumTestPHGenFit_8cc.html#a3c04138a5bfe5d72780bb7e82a18e627" target="_top" xlink:title="main">
<polygon fill="none" stroke="#000000" points="605.5,-258.5 605.5,-278.5 646.5,-278.5 646.5,-258.5 605.5,-258.5"/>
<text text-anchor="middle" x="626" y="-265.5" font-family="FreeSans" font-size="10.00" fill="#000000">main</text>
</a>
</g>
</g>
<!-- Node4&#45;&gt;Node17 -->
<g id="edge17" class="edge">
<title>Node4&#45;&gt;Node17</title>
<path fill="none" stroke="#191970" d="M522.5418,-268.5C554.2752,-268.5 585.7046,-268.5 605.4452,-268.5"/>
<polygon fill="#191970" stroke="#191970" points="522.2425,-265.0001 512.2425,-268.5 522.2425,-272.0001 522.2425,-265.0001"/>
</g>
<!-- Node18 -->
<g id="node18" class="node">
<title>Node18</title>
<g id="a_node18"><a xlink:href="../../d9/d91/classPHG4TrackFastSim.html#a8bb22ab279c5f433069774bd2ab0a7ae" target="_top" xlink:title="Process Event, called for each event.">
<polygon fill="none" stroke="#000000" points="548,-207.5 548,-239.5 704,-239.5 704,-207.5 548,-207.5"/>
<text text-anchor="start" x="556" y="-226.5" font-family="FreeSans" font-size="10.00" fill="#000000">PHG4TrackFastSim::process</text>
<text text-anchor="middle" x="626" y="-214.5" font-family="FreeSans" font-size="10.00" fill="#000000">_event</text>
</a>
</g>
</g>
<!-- Node4&#45;&gt;Node18 -->
<g id="edge18" class="edge">
<title>Node4&#45;&gt;Node18</title>
<path fill="none" stroke="#191970" d="M477.4575,-256.5117C488.9663,-254.248 500.8517,-251.8513 512,-249.5 526.6985,-246.3999 542.425,-242.9195 557.3569,-239.5378"/>
<polygon fill="#191970" stroke="#191970" points="476.6126,-253.1105 467.4688,-258.4623 477.9542,-259.9808 476.6126,-253.1105"/>
</g>
<!-- Node6 -->
<g id="node6" class="node">
<title>Node6</title>
<g id="a_node6"><a xlink:href="../../d1/d04/classBDiJetModule.html#a8f01ada101f7e91cf05e12bbf420d192" target="_top" xlink:title="BDiJetModule::process\l_event">
<polygon fill="none" stroke="#000000" points="740,-336.5 740,-368.5 869,-368.5 869,-336.5 740,-336.5"/>
<text text-anchor="start" x="748" y="-355.5" font-family="FreeSans" font-size="10.00" fill="#000000">BDiJetModule::process</text>
<text text-anchor="middle" x="804.5" y="-343.5" font-family="FreeSans" font-size="10.00" fill="#000000">_event</text>
</a>
</g>
</g>
<!-- Node5&#45;&gt;Node6 -->
<g id="edge5" class="edge">
<title>Node5&#45;&gt;Node6</title>
<path fill="none" stroke="#191970" d="M711.192,-352.5C720.837,-352.5 730.5453,-352.5 739.8652,-352.5"/>
<polygon fill="#191970" stroke="#191970" points="711.1828,-349.0001 701.1827,-352.5 711.1827,-356.0001 711.1828,-349.0001"/>
</g>
<!-- Node8 -->
<g id="node8" class="node">
<title>Node8</title>
<g id="a_node8"><a xlink:href="../../d6/d17/classSVReco.html#a19081506d2161465fdf3f36527aa0e18" target="_top" xlink:title="Initialization, called for initialization at each event.">
<polygon fill="none" stroke="#000000" points="751.5,-297.5 751.5,-317.5 857.5,-317.5 857.5,-297.5 751.5,-297.5"/>
<text text-anchor="middle" x="804.5" y="-304.5" font-family="FreeSans" font-size="10.00" fill="#000000">SVReco::InitEvent</text>
</a>
</g>
</g>
<!-- Node7&#45;&gt;Node8 -->
<g id="edge7" class="edge">
<title>Node7&#45;&gt;Node8</title>
<path fill="none" stroke="#191970" d="M709.8912,-307.5C724.0505,-307.5 738.3903,-307.5 751.4783,-307.5"/>
<polygon fill="#191970" stroke="#191970" points="709.6334,-304.0001 699.6333,-307.5 709.6333,-311.0001 709.6334,-304.0001"/>
</g>
<!-- Node13 -->
<g id="node13" class="node">
<title>Node13</title>
<g id="a_node13"><a xlink:href="../../d6/d17/classSVReco.html#aed33c3da67bd3f1b7c3c73127b8187ea" target="_top" xlink:title="SVReco::refitTrack">
<polygon fill="none" stroke="#000000" points="750.5,-201.5 750.5,-221.5 858.5,-221.5 858.5,-201.5 750.5,-201.5"/>
<text text-anchor="middle" x="804.5" y="-208.5" font-family="FreeSans" font-size="10.00" fill="#000000">SVReco::refitTrack</text>
</a>
</g>
</g>
<!-- Node7&#45;&gt;Node13 -->
<g id="edge12" class="edge">
<title>Node7&#45;&gt;Node13</title>
<path fill="none" stroke="#191970" d="M689.549,-294.4009C694.5286,-292.6588 699.4033,-290.6998 704,-288.5 740.878,-270.8515 777.2209,-238.2007 794.3386,-221.6644"/>
<polygon fill="#191970" stroke="#191970" points="688.3479,-291.1104 679.8892,-297.4901 690.4802,-297.7777 688.3479,-291.1104"/>
</g>
<!-- Node9 -->
<g id="node9" class="node">
<title>Node9</title>
<g id="a_node9"><a xlink:href="../../df/d9b/classRecoConversionEval.html#ab5e60cc47b4b3d33f9fdb4a83c2ff775" target="_top" xlink:title="RecoConversionEval\l::doNodePointers">
<polygon fill="none" stroke="#000000" points="932.5,-359.5 932.5,-391.5 1051.5,-391.5 1051.5,-359.5 932.5,-359.5"/>
<text text-anchor="start" x="940.5" y="-378.5" font-family="FreeSans" font-size="10.00" fill="#000000">RecoConversionEval</text>
<text text-anchor="middle" x="992" y="-366.5" font-family="FreeSans" font-size="10.00" fill="#000000">::doNodePointers</text>
</a>
</g>
</g>
<!-- Node8&#45;&gt;Node9 -->
<g id="edge8" class="edge">
<title>Node8&#45;&gt;Node9</title>
<path fill="none" stroke="#191970" d="M852.4821,-320.7974C858.1356,-322.8258 863.7544,-325.065 869,-327.5 886.2216,-335.4943 887.6959,-342.6857 905,-350.5 913.5936,-354.3807 922.938,-357.8157 932.2093,-360.8006"/>
<polygon fill="#191970" stroke="#191970" points="853.589,-317.4771 842.9947,-317.5853 851.3441,-324.1074 853.589,-317.4771"/>
</g>
<!-- Node11 -->
<g id="node11" class="node">
<title>Node11</title>
<g id="a_node11"><a xlink:href="../../d2/d6d/classVtxTest.html#ad1a3b9d5e730a3ba75f13a084e21bee5" target="_top" xlink:title="VtxTest::process_event">
<polygon fill="none" stroke="#000000" points="925,-320.5 925,-340.5 1059,-340.5 1059,-320.5 925,-320.5"/>
<text text-anchor="middle" x="992" y="-327.5" font-family="FreeSans" font-size="10.00" fill="#000000">VtxTest::process_event</text>
</a>
</g>
</g>
<!-- Node8&#45;&gt;Node11 -->
<g id="edge10" class="edge">
<title>Node8&#45;&gt;Node11</title>
<path fill="none" stroke="#191970" d="M867.746,-315.2582C886.1409,-317.5146 906.2942,-319.9867 924.9163,-322.2711"/>
<polygon fill="#191970" stroke="#191970" points="868.0802,-311.773 857.7284,-314.0294 867.2279,-318.7209 868.0802,-311.773"/>
</g>
<!-- Node12 -->
<g id="node12" class="node">
<title>Node12</title>
<g id="a_node12"><a xlink:href="../../d9/d3a/classTruthConversionEval.html#a9a67c8171296f35dd157daf89108d3fd" target="_top" xlink:title="TruthConversionEval\l::process_event">
<polygon fill="none" stroke="#000000" points="931.5,-269.5 931.5,-301.5 1052.5,-301.5 1052.5,-269.5 931.5,-269.5"/>
<text text-anchor="start" x="939.5" y="-288.5" font-family="FreeSans" font-size="10.00" fill="#000000">TruthConversionEval</text>
<text text-anchor="middle" x="992" y="-276.5" font-family="FreeSans" font-size="10.00" fill="#000000">::process_event</text>
</a>
</g>
</g>
<!-- Node8&#45;&gt;Node12 -->
<g id="edge11" class="edge">
<title>Node8&#45;&gt;Node12</title>
<path fill="none" stroke="#191970" d="M867.9102,-300.0599C888.4082,-297.6548 911.0751,-294.9952 931.3669,-292.6143"/>
<polygon fill="#191970" stroke="#191970" points="867.2524,-296.613 857.7284,-301.2545 868.0682,-303.5653 867.2524,-296.613"/>
</g>
<!-- Node10 -->
<g id="node10" class="node">
<title>Node10</title>
<g id="a_node10"><a xlink:href="../../df/d9b/classRecoConversionEval.html#a54bb2ea55f01b0d0dc8752fbee1bc237" target="_top" xlink:title="RecoConversionEval\l::process_event">
<polygon fill="none" stroke="#000000" points="1115,-288.5 1115,-320.5 1234,-320.5 1234,-288.5 1115,-288.5"/>
<text text-anchor="start" x="1123" y="-307.5" font-family="FreeSans" font-size="10.00" fill="#000000">RecoConversionEval</text>
<text text-anchor="middle" x="1174.5" y="-295.5" font-family="FreeSans" font-size="10.00" fill="#000000">::process_event</text>
</a>
</g>
</g>
<!-- Node9&#45;&gt;Node10 -->
<g id="edge9" class="edge">
<title>Node9&#45;&gt;Node10</title>
<path fill="none" stroke="#191970" d="M1061.7741,-356.5873C1067.6423,-354.6532 1073.45,-352.6166 1079,-350.5 1101.5254,-341.9094 1126.0047,-330.0653 1144.5398,-320.5471"/>
<polygon fill="#191970" stroke="#191970" points="1060.3412,-353.3704 1051.8759,-359.7413 1062.4665,-360.04 1060.3412,-353.3704"/>
</g>
<!-- Node14 -->
<g id="node14" class="node">
<title>Node14</title>
<g id="a_node14"><a xlink:href="../../df/d9b/classRecoConversionEval.html#ae0025d84438ba3f29cc99ec09cbb9f5b" target="_top" xlink:title="Uses _vertexer to refit.">
<polygon fill="none" stroke="#000000" points="932.5,-218.5 932.5,-250.5 1051.5,-250.5 1051.5,-218.5 932.5,-218.5"/>
<text text-anchor="start" x="940.5" y="-237.5" font-family="FreeSans" font-size="10.00" fill="#000000">RecoConversionEval</text>
<text text-anchor="middle" x="992" y="-225.5" font-family="FreeSans" font-size="10.00" fill="#000000">::refitTracks</text>
</a>
</g>
</g>
<!-- Node13&#45;&gt;Node14 -->
<g id="edge13" class="edge">
<title>Node13&#45;&gt;Node14</title>
<path fill="none" stroke="#191970" d="M868.6627,-219.3706C889.2793,-221.8996 912.0229,-224.6895 932.3054,-227.1775"/>
<polygon fill="#191970" stroke="#191970" points="869.0845,-215.8962 858.7328,-218.1526 868.2322,-222.8441 869.0845,-215.8962"/>
</g>
<!-- Node15 -->
<g id="node15" class="node">
<title>Node15</title>
<g id="a_node15"><a xlink:href="../../dc/d41/classConversion.html#a5a8976da958375a2e66f9c35017fb7be" target="_top" xlink:title="Uses recoVertex and.">
<polygon fill="none" stroke="#000000" points="926,-179.5 926,-199.5 1058,-199.5 1058,-179.5 926,-179.5"/>
<text text-anchor="middle" x="992" y="-186.5" font-family="FreeSans" font-size="10.00" fill="#000000">Conversion::refitTracks</text>
</a>
</g>
</g>
<!-- Node13&#45;&gt;Node15 -->
<g id="edge15" class="edge">
<title>Node13&#45;&gt;Node15</title>
<path fill="none" stroke="#191970" d="M868.7841,-203.9573C887.2277,-201.7933 907.365,-199.4305 925.9151,-197.254"/>
<polygon fill="#191970" stroke="#191970" points="868.2567,-200.4951 858.7328,-205.1367 869.0725,-207.4474 868.2567,-200.4951"/>
</g>
<!-- Node16 -->
<g id="node16" class="node">
<title>Node16</title>
<g id="a_node16"><a xlink:href="../../dc/d41/classConversion.html#a232908ec95e6d7b3bfd8883d19885971" target="_top" xlink:title="Uses the truth vertex and SVReco to improve the fit of reco1 and reco2. Uses.">
<polygon fill="none" stroke="#000000" points="905,-140.5 905,-160.5 1079,-160.5 1079,-140.5 905,-140.5"/>
<text text-anchor="middle" x="992" y="-147.5" font-family="FreeSans" font-size="10.00" fill="#000000">Conversion::refitTracksTruthVtx</text>
</a>
</g>
</g>
<!-- Node13&#45;&gt;Node16 -->
<g id="edge16" class="edge">
<title>Node13&#45;&gt;Node16</title>
<path fill="none" stroke="#191970" d="M835.8192,-197.1955C855.409,-188.6331 881.3326,-177.9941 905,-170.5 916.8201,-166.7573 929.7487,-163.4006 941.9388,-160.5542"/>
<polygon fill="#191970" stroke="#191970" points="834.2013,-194.084 826.4739,-201.3323 837.0348,-200.4849 834.2013,-194.084"/>
</g>
<!-- Node14&#45;&gt;Node10 -->
<g id="edge14" class="edge">
<title>Node14&#45;&gt;Node10</title>
<path fill="none" stroke="#191970" d="M1059.6047,-253.676C1066.201,-255.8541 1072.7576,-258.1427 1079,-260.5 1100.6889,-268.6903 1124.3618,-279.5831 1142.7123,-288.4813"/>
<polygon fill="#191970" stroke="#191970" points="1060.5355,-250.2988 1049.9441,-250.5686 1058.3921,-256.9626 1060.5355,-250.2988"/>
</g>
<!-- Node21 -->
<g id="node21" class="node">
<title>Node21</title>
<g id="a_node21"><a xlink:href="../../d6/d8a/classgenfit_1_1Track.html#a9b8776fee4ae9f578ab16a30ebcb4ac8" target="_top" xlink:title="genfit::Track::Track">
<polygon fill="none" stroke="#000000" points="570,-168.5 570,-188.5 682,-188.5 682,-168.5 570,-168.5"/>
<text text-anchor="middle" x="626" y="-175.5" font-family="FreeSans" font-size="10.00" fill="#000000">genfit::Track::Track</text>
</a>
</g>
</g>
<!-- Node20&#45;&gt;Node21 -->
<g id="edge21" class="edge">
<title>Node20&#45;&gt;Node21</title>
<path fill="none" stroke="#191970" d="M520.1854,-178.5C537.3784,-178.5 554.5648,-178.5 569.9354,-178.5"/>
<polygon fill="#191970" stroke="#191970" points="520.0755,-175.0001 510.0754,-178.5 520.0754,-182.0001 520.0755,-175.0001"/>
</g>
<!-- Node24 -->
<g id="node24" class="node">
<title>Node24</title>
<g id="a_node24"><a xlink:href="../../d6/d8a/classgenfit_1_1Track.html#ab13a5076fe0b011dcde604846cd89d9e" target="_top" xlink:title="Merge two tracks.">
<polygon fill="none" stroke="#000000" points="553.5,-90.5 553.5,-110.5 698.5,-110.5 698.5,-90.5 553.5,-90.5"/>
<text text-anchor="middle" x="626" y="-97.5" font-family="FreeSans" font-size="10.00" fill="#000000">genfit::Track::mergeTrack</text>
</a>
</g>
</g>
<!-- Node23&#45;&gt;Node24 -->
<g id="edge24" class="edge">
<title>Node23&#45;&gt;Node24</title>
<path fill="none" stroke="#191970" d="M496.9098,-100.5C515.5702,-100.5 535.2341,-100.5 553.4332,-100.5"/>
<polygon fill="#191970" stroke="#191970" points="496.6618,-97.0001 486.6618,-100.5 496.6617,-104.0001 496.6618,-97.0001"/>
</g>
<!-- Node24&#45;&gt;Node25 -->
<g id="edge25" class="edge">
<title>Node24&#45;&gt;Node25</title>
<path fill="none" stroke="#191970" d="M708.752,-91.6917C736.4569,-88.7427 765.0013,-85.7043 783.6306,-83.7214"/>
<polygon fill="#191970" stroke="#191970" points="708.1761,-88.2331 698.6028,-92.772 708.9171,-95.1938 708.1761,-88.2331"/>
</g>
<!-- Node27 -->
<g id="node27" class="node">
<title>Node27</title>
<g id="a_node27"><a xlink:href="../../d5/daa/classPHRaveVertexing.html#afefcb6ce27ac34016e62172d8519fae8" target="_top" xlink:title="Process Event, called for each event.">
<polygon fill="none" stroke="#000000" points="551.5,-.5 551.5,-32.5 700.5,-32.5 700.5,-.5 551.5,-.5"/>
<text text-anchor="start" x="559.5" y="-19.5" font-family="FreeSans" font-size="10.00" fill="#000000">PHRaveVertexing::process</text>
<text text-anchor="middle" x="626" y="-7.5" font-family="FreeSans" font-size="10.00" fill="#000000">_event</text>
</a>
</g>
</g>
<!-- Node26&#45;&gt;Node27 -->
<g id="edge28" class="edge">
<title>Node26&#45;&gt;Node27</title>
<path fill="none" stroke="#191970" d="M502.1258,-16.5C518.4722,-16.5 535.4026,-16.5 551.301,-16.5"/>
<polygon fill="#191970" stroke="#191970" points="502.0378,-13.0001 492.0378,-16.5 502.0378,-20.0001 502.0378,-13.0001"/>
</g>
</g>
</svg>
