<?xml version="1.0" encoding="UTF-8" standalone="no"?>
<!DOCTYPE svg PUBLIC "-//W3C//DTD SVG 1.1//EN"
 "http://www.w3.org/Graphics/SVG/1.1/DTD/svg11.dtd">
<!-- Generated by graphviz version 2.40.1 (20161225.0304)
 -->
<!-- Title: KFPVEfficiencies::KFPVEfficiencies Pages: 1 -->
<svg width="587pt" height="29pt"
 viewBox="0.00 0.00 587.00 29.00" xmlns="http://www.w3.org/2000/svg" xmlns:xlink="http://www.w3.org/1999/xlink">
<g id="graph0" class="graph" transform="scale(1 1) rotate(0) translate(4 25)">
<title>KFPVEfficiencies::KFPVEfficiencies</title>
<!-- Node1 -->
<g id="node1" class="node">
<title>Node1</title>
<polygon fill="#bfbfbf" stroke="#000000" points="0,-.5 0,-20.5 189,-20.5 189,-.5 0,-.5"/>
<text text-anchor="middle" x="94.5" y="-7.5" font-family="FreeSans" font-size="10.00" fill="#000000">KFPVEfficiencies::KFPVEfficiencies</text>
</g>
<!-- Node2 -->
<g id="node2" class="node">
<title>Node2</title>
<g id="a_node2"><a xlink:href="../../dc/d52/classKFPVEfficiencies.html#a6c8fe247dd32832b70f999da9620acb1" target="_top" xlink:title="KFPVEfficiencies::AddCounter">
<polygon fill="none" stroke="#000000" points="225,-.5 225,-20.5 391,-20.5 391,-.5 225,-.5"/>
<text text-anchor="middle" x="308" y="-7.5" font-family="FreeSans" font-size="10.00" fill="#000000">KFPVEfficiencies::AddCounter</text>
</a>
</g>
</g>
<!-- Node1&#45;&gt;Node2 -->
<g id="edge1" class="edge">
<title>Node1&#45;&gt;Node2</title>
<path fill="none" stroke="#191970" d="M189.0766,-10.5C197.5613,-10.5 206.15,-10.5 214.6244,-10.5"/>
<polygon fill="#191970" stroke="#191970" points="214.89,-14.0001 224.89,-10.5 214.8899,-7.0001 214.89,-14.0001"/>
</g>
<!-- Node3 -->
<g id="node3" class="node">
<title>Node3</title>
<g id="a_node3"><a xlink:href="../../d8/d5c/structKFMCCounter.html#a59d6f72b851528fd3c2288c9781a13aa" target="_top" xlink:title="Adds a counter to the existing list.">
<polygon fill="none" stroke="#000000" points="427,-.5 427,-20.5 579,-20.5 579,-.5 427,-.5"/>
<text text-anchor="middle" x="503" y="-7.5" font-family="FreeSans" font-size="10.00" fill="#000000">KFMCCounter::AddCounter</text>
</a>
</g>
</g>
<!-- Node2&#45;&gt;Node3 -->
<g id="edge2" class="edge">
<title>Node2&#45;&gt;Node3</title>
<path fill="none" stroke="#191970" d="M391.2632,-10.5C399.6529,-10.5 408.1863,-10.5 416.6077,-10.5"/>
<polygon fill="#191970" stroke="#191970" points="416.8073,-14.0001 426.8072,-10.5 416.8072,-7.0001 416.8073,-14.0001"/>
</g>
</g>
</svg>
