<?xml version="1.0" encoding="UTF-8" standalone="no"?>
<!DOCTYPE svg PUBLIC "-//W3C//DTD SVG 1.1//EN"
 "http://www.w3.org/Graphics/SVG/1.1/DTD/svg11.dtd">
<!-- Generated by graphviz version 2.40.1 (20161225.0304)
 -->
<!-- Title: genfit::ICalibrationParametersDerivatives::globalDerivatives Pages: 1 -->
<svg width="381pt" height="92pt"
 viewBox="0.00 0.00 381.00 92.00" xmlns="http://www.w3.org/2000/svg" xmlns:xlink="http://www.w3.org/1999/xlink">
<g id="graph0" class="graph" transform="scale(1 1) rotate(0) translate(4 88)">
<title>genfit::ICalibrationParametersDerivatives::globalDerivatives</title>
<!-- Node1 -->
<g id="node1" class="node">
<title>Node1</title>
<polygon fill="#bfbfbf" stroke="#000000" points="0,-25.5 0,-57.5 169,-57.5 169,-25.5 0,-25.5"/>
<text text-anchor="start" x="8" y="-44.5" font-family="FreeSans" font-size="10.00" fill="#000000">genfit::ICalibrationParameters</text>
<text text-anchor="middle" x="84.5" y="-32.5" font-family="FreeSans" font-size="10.00" fill="#000000">Derivatives::globalDerivatives</text>
</g>
<!-- Node2 -->
<g id="node2" class="node">
<title>Node2</title>
<g id="a_node2"><a xlink:href="../../dd/d08/classgenfit_1_1ICalibrationParametersDerivatives.html#ae6ce7b0f9fe0f7213fe4c173de46cabc" target="_top" xlink:title="Derivatives of residuals (local measurement coordinates) w.r.t. alignment/calibration parameters Matr...">
<polygon fill="none" stroke="#000000" points="205,-51.5 205,-83.5 373,-83.5 373,-51.5 205,-51.5"/>
<text text-anchor="start" x="213" y="-70.5" font-family="FreeSans" font-size="10.00" fill="#000000">genfit::ICalibrationParameters</text>
<text text-anchor="middle" x="289" y="-58.5" font-family="FreeSans" font-size="10.00" fill="#000000">Derivatives::derivatives</text>
</a>
</g>
</g>
<!-- Node1&#45;&gt;Node2 -->
<g id="edge1" class="edge">
<title>Node1&#45;&gt;Node2</title>
<path fill="none" stroke="#191970" d="M169.1542,-52.2629C177.6047,-53.3373 186.2206,-54.4327 194.7615,-55.5186"/>
<polygon fill="#191970" stroke="#191970" points="194.3773,-58.9978 204.7389,-56.7871 195.2602,-52.0537 194.3773,-58.9978"/>
</g>
<!-- Node3 -->
<g id="node3" class="node">
<title>Node3</title>
<g id="a_node3"><a xlink:href="../../dd/d08/classgenfit_1_1ICalibrationParametersDerivatives.html#ac946d5419f26737935a18fbd31c517d5" target="_top" xlink:title="Vector of integer labels for calibration/alignment parameters available (must match #columns of deriv...">
<polygon fill="none" stroke="#000000" points="205,-.5 205,-32.5 373,-32.5 373,-.5 205,-.5"/>
<text text-anchor="start" x="213" y="-19.5" font-family="FreeSans" font-size="10.00" fill="#000000">genfit::ICalibrationParameters</text>
<text text-anchor="middle" x="289" y="-7.5" font-family="FreeSans" font-size="10.00" fill="#000000">Derivatives::labels</text>
</a>
</g>
</g>
<!-- Node1&#45;&gt;Node3 -->
<g id="edge2" class="edge">
<title>Node1&#45;&gt;Node3</title>
<path fill="none" stroke="#191970" d="M169.1542,-31.1511C177.6047,-30.118 186.2206,-29.0647 194.7615,-28.0206"/>
<polygon fill="#191970" stroke="#191970" points="195.2375,-31.4886 204.7389,-26.8009 194.388,-24.5403 195.2375,-31.4886"/>
</g>
</g>
</svg>
