<?xml version="1.0" encoding="UTF-8" standalone="no"?>
<!DOCTYPE svg PUBLIC "-//W3C//DTD SVG 1.1//EN"
 "http://www.w3.org/Graphics/SVG/1.1/DTD/svg11.dtd">
<!-- Generated by graphviz version 2.40.1 (20161225.0304)
 -->
<!-- Title: GenFit/blob/master/trackReps/include/AbsMaterialInterface.h Pages: 1 -->
<svg width="726pt" height="452pt"
 viewBox="0.00 0.00 726.00 452.00" xmlns="http://www.w3.org/2000/svg" xmlns:xlink="http://www.w3.org/1999/xlink">
<g id="graph0" class="graph" transform="scale(1 1) rotate(0) translate(4 448)">
<title>GenFit/blob/master/trackReps/include/AbsMaterialInterface.h</title>
<!-- Node1 -->
<g id="node1" class="node">
<title>Node1</title>
<polygon fill="#bfbfbf" stroke="#000000" points="42.5,-399.5 42.5,-443.5 215.5,-443.5 215.5,-399.5 42.5,-399.5"/>
<text text-anchor="start" x="50.5" y="-430.5" font-family="FreeSans" font-size="10.00" fill="#000000">GenFit/blob/master</text>
<text text-anchor="start" x="50.5" y="-418.5" font-family="FreeSans" font-size="10.00" fill="#000000">/trackReps/include/AbsMaterial</text>
<text text-anchor="middle" x="129" y="-406.5" font-family="FreeSans" font-size="10.00" fill="#000000">Interface.h</text>
</g>
<!-- Node2 -->
<g id="node2" class="node">
<title>Node2</title>
<g id="a_node2"><a xlink:href="../../dd/dc4/RKTrackRep_8h.html" target="_top" xlink:title="RKTrackRep.h">
<polygon fill="none" stroke="#000000" points="174,-342.5 174,-362.5 258,-362.5 258,-342.5 174,-342.5"/>
<text text-anchor="middle" x="216" y="-349.5" font-family="FreeSans" font-size="10.00" fill="#000000">RKTrackRep.h</text>
</a>
</g>
</g>
<!-- Node1&#45;&gt;Node2 -->
<g id="edge1" class="edge">
<title>Node1&#45;&gt;Node2</title>
<path fill="none" stroke="#191970" d="M157.0062,-399.2882C169.3563,-389.4933 183.623,-378.1783 195.0328,-369.1292"/>
<polygon fill="#191970" stroke="#191970" points="197.4618,-371.6699 203.1219,-362.7137 193.112,-366.1854 197.4618,-371.6699"/>
</g>
<!-- Node8 -->
<g id="node8" class="node">
<title>Node8</title>
<polygon fill="none" stroke="#bfbfbf" points="358.5,-57.5 358.5,-77.5 423.5,-77.5 423.5,-57.5 358.5,-57.5"/>
<text text-anchor="middle" x="391" y="-64.5" font-family="FreeSans" font-size="10.00" fill="#000000">TObject.h</text>
</g>
<!-- Node1&#45;&gt;Node8 -->
<g id="edge35" class="edge">
<title>Node1&#45;&gt;Node8</title>
<path fill="none" stroke="#191970" d="M82.0631,-399.364C45.1788,-378.3496 0,-342.9292 0,-295.5 0,-295.5 0,-295.5 0,-181.5 0,-147.2886 8.764,-133.317 37,-114 86.7973,-79.9324 265.5682,-70.788 348.3615,-68.3619"/>
<polygon fill="#191970" stroke="#191970" points="348.5399,-71.8584 358.4403,-68.086 348.3483,-64.861 348.5399,-71.8584"/>
</g>
<!-- Node9 -->
<g id="node9" class="node">
<title>Node9</title>
<polygon fill="none" stroke="#bfbfbf" points="444.5,-57.5 444.5,-77.5 515.5,-77.5 515.5,-57.5 444.5,-57.5"/>
<text text-anchor="middle" x="480" y="-64.5" font-family="FreeSans" font-size="10.00" fill="#000000">TVector3.h</text>
</g>
<!-- Node1&#45;&gt;Node9 -->
<g id="edge36" class="edge">
<title>Node1&#45;&gt;Node9</title>
<path fill="none" stroke="#191970" d="M215.5925,-411.8701C379.3132,-392.4847 718,-346.2494 718,-295.5 718,-295.5 718,-295.5 718,-181.5 718,-142.2345 694.2574,-134.874 661,-114 655.1713,-110.3416 577.5456,-91.1029 525.8639,-78.5458"/>
<polygon fill="#191970" stroke="#191970" points="526.4456,-75.0855 515.9024,-76.13 524.7958,-81.8883 526.4456,-75.0855"/>
</g>
<!-- Node11 -->
<g id="node11" class="node">
<title>Node11</title>
<g id="a_node11"><a xlink:href="../../df/d12/Material_8h.html" target="_top" xlink:title="Material.h">
<polygon fill="none" stroke="#000000" points="78,-171.5 78,-191.5 144,-191.5 144,-171.5 78,-171.5"/>
<text text-anchor="middle" x="111" y="-178.5" font-family="FreeSans" font-size="10.00" fill="#000000">Material.h</text>
</a>
</g>
</g>
<!-- Node1&#45;&gt;Node11 -->
<g id="edge34" class="edge">
<title>Node1&#45;&gt;Node11</title>
<path fill="none" stroke="#191970" d="M121.4986,-399.1822C114.009,-376.1044 102.6786,-338.9048 96,-306 90.923,-280.9864 90.5585,-274.476 89,-249 88.4301,-239.6841 86.9545,-237.1064 89,-228 91.1151,-218.5837 95.3646,-208.8314 99.5697,-200.7047"/>
<polygon fill="#191970" stroke="#191970" points="102.7561,-202.175 104.5305,-191.7298 96.6297,-198.7886 102.7561,-202.175"/>
</g>
<!-- Node3 -->
<g id="node3" class="node">
<title>Node3</title>
<g id="a_node3"><a xlink:href="../../d4/d66/AbsTrackRep_8h.html" target="_top" xlink:title="AbsTrackRep.h">
<polygon fill="none" stroke="#000000" points="399.5,-228.5 399.5,-248.5 490.5,-248.5 490.5,-228.5 399.5,-228.5"/>
<text text-anchor="middle" x="445" y="-235.5" font-family="FreeSans" font-size="10.00" fill="#000000">AbsTrackRep.h</text>
</a>
</g>
</g>
<!-- Node2&#45;&gt;Node3 -->
<g id="edge2" class="edge">
<title>Node2&#45;&gt;Node3</title>
<path fill="none" stroke="#191970" d="M246.4981,-342.4392C271.1577,-333.8904 306.5005,-320.6918 336,-306 367.0317,-290.5451 400.6504,-268.9106 422.2218,-254.3365"/>
<polygon fill="#191970" stroke="#191970" points="424.3985,-257.0885 430.6864,-248.5613 420.4533,-251.3061 424.3985,-257.0885"/>
</g>
<!-- Node2&#45;&gt;Node11 -->
<g id="edge32" class="edge">
<title>Node2&#45;&gt;Node11</title>
<path fill="none" stroke="#191970" d="M176.484,-342.4514C155.7027,-335.3499 131.2418,-323.8452 115,-306 90.911,-279.5329 89.0971,-263.298 95,-228 96.5248,-218.8822 99.6222,-209.1584 102.6891,-200.9725"/>
<polygon fill="#191970" stroke="#191970" points="105.9786,-202.1725 106.4368,-191.5875 99.4777,-199.5764 105.9786,-202.1725"/>
</g>
<!-- Node17 -->
<g id="node17" class="node">
<title>Node17</title>
<g id="a_node17"><a xlink:href="../../db/d1a/StateOnPlane_8h.html" target="_top" xlink:title="StateOnPlane.h">
<polygon fill="none" stroke="#000000" points="491,-285.5 491,-305.5 585,-305.5 585,-285.5 491,-285.5"/>
<text text-anchor="middle" x="538" y="-292.5" font-family="FreeSans" font-size="10.00" fill="#000000">StateOnPlane.h</text>
</a>
</g>
</g>
<!-- Node2&#45;&gt;Node17 -->
<g id="edge20" class="edge">
<title>Node2&#45;&gt;Node17</title>
<path fill="none" stroke="#191970" d="M258.0959,-345.0482C315.1359,-334.9511 417.1649,-316.8901 481.0201,-305.5865"/>
<polygon fill="#191970" stroke="#191970" points="481.6912,-309.0222 490.928,-303.8326 480.471,-302.1294 481.6912,-309.0222"/>
</g>
<!-- Node19 -->
<g id="node19" class="node">
<title>Node19</title>
<g id="a_node19"><a xlink:href="../../df/dad/RKTools_8h.html" target="_top" xlink:title="RKTools.h">
<polygon fill="none" stroke="#000000" points="124.5,-285.5 124.5,-305.5 187.5,-305.5 187.5,-285.5 124.5,-285.5"/>
<text text-anchor="middle" x="156" y="-292.5" font-family="FreeSans" font-size="10.00" fill="#000000">RKTools.h</text>
</a>
</g>
</g>
<!-- Node2&#45;&gt;Node19 -->
<g id="edge26" class="edge">
<title>Node2&#45;&gt;Node19</title>
<path fill="none" stroke="#191970" d="M205.2732,-342.3095C196.5704,-334.0419 184.1151,-322.2093 173.9048,-312.5096"/>
<polygon fill="#191970" stroke="#191970" points="176.2946,-309.9523 166.6339,-305.6022 171.4733,-315.0273 176.2946,-309.9523"/>
</g>
<!-- Node21 -->
<g id="node21" class="node">
<title>Node21</title>
<polygon fill="none" stroke="#bfbfbf" points="178.5,-228.5 178.5,-248.5 243.5,-248.5 243.5,-228.5 178.5,-228.5"/>
<text text-anchor="middle" x="211" y="-235.5" font-family="FreeSans" font-size="10.00" fill="#000000">algorithm</text>
</g>
<!-- Node2&#45;&gt;Node21 -->
<g id="edge33" class="edge">
<title>Node2&#45;&gt;Node21</title>
<path fill="none" stroke="#191970" d="M215.5563,-342.3833C214.7355,-323.6703 212.9661,-283.3266 211.8898,-258.7866"/>
<polygon fill="#191970" stroke="#191970" points="215.3848,-258.5949 211.4499,-248.7579 208.3915,-258.9017 215.3848,-258.5949"/>
</g>
<!-- Node22 -->
<g id="node22" class="node">
<title>Node22</title>
<g id="a_node22"><a xlink:href="../../d7/d7e/StepLimits_8h.html" target="_top" xlink:title="StepLimits.h">
<polygon fill="none" stroke="#000000" points="248.5,-285.5 248.5,-305.5 327.5,-305.5 327.5,-285.5 248.5,-285.5"/>
<text text-anchor="middle" x="288" y="-292.5" font-family="FreeSans" font-size="10.00" fill="#000000">StepLimits.h</text>
</a>
</g>
</g>
<!-- Node2&#45;&gt;Node22 -->
<g id="edge29" class="edge">
<title>Node2&#45;&gt;Node22</title>
<path fill="none" stroke="#191970" d="M228.8722,-342.3095C239.5203,-333.8798 254.8498,-321.7439 267.2318,-311.9415"/>
<polygon fill="#191970" stroke="#191970" points="269.5713,-314.5535 275.2393,-305.6022 265.2263,-309.0651 269.5713,-314.5535"/>
</g>
<!-- Node4 -->
<g id="node4" class="node">
<title>Node4</title>
<g id="a_node4"><a xlink:href="../../db/d4f/SharedPlanePtr_8h.html" target="_top" xlink:title="SharedPlanePtr.h">
<polygon fill="none" stroke="#000000" points="586,-171.5 586,-191.5 688,-191.5 688,-171.5 586,-171.5"/>
<text text-anchor="middle" x="637" y="-178.5" font-family="FreeSans" font-size="10.00" fill="#000000">SharedPlanePtr.h</text>
</a>
</g>
</g>
<!-- Node3&#45;&gt;Node4 -->
<g id="edge3" class="edge">
<title>Node3&#45;&gt;Node4</title>
<path fill="none" stroke="#191970" d="M478.8838,-228.4408C510.7282,-218.9869 558.5532,-204.7889 593.2646,-194.484"/>
<polygon fill="#191970" stroke="#191970" points="594.5422,-197.7557 603.1326,-191.5544 592.55,-191.0452 594.5422,-197.7557"/>
</g>
<!-- Node3&#45;&gt;Node8 -->
<g id="edge16" class="edge">
<title>Node3&#45;&gt;Node8</title>
<path fill="none" stroke="#191970" d="M441.7838,-228.3153C433.0629,-200.6992 408.8476,-124.0174 397.2924,-87.426"/>
<polygon fill="#191970" stroke="#191970" points="400.6166,-86.3294 394.2677,-77.8476 393.9415,-88.4374 400.6166,-86.3294"/>
</g>
<!-- Node3&#45;&gt;Node9 -->
<g id="edge15" class="edge">
<title>Node3&#45;&gt;Node9</title>
<path fill="none" stroke="#191970" d="M444.6501,-228.3497C444.3744,-215.0657 444.5039,-191.1091 448,-171 453.2124,-141.019 464.6185,-107.5923 472.3071,-87.0512"/>
<polygon fill="#191970" stroke="#191970" points="475.6299,-88.161 475.9364,-77.5706 469.0925,-85.6583 475.6299,-88.161"/>
</g>
<!-- Node3&#45;&gt;Node11 -->
<g id="edge11" class="edge">
<title>Node3&#45;&gt;Node11</title>
<path fill="none" stroke="#191970" d="M399.3532,-229.5225C396.5283,-228.9985 393.7265,-228.487 391,-228 293.0338,-210.5006 268.1024,-208.7188 170,-192 164.8751,-191.1266 159.5031,-190.1941 154.1755,-189.2589"/>
<polygon fill="#191970" stroke="#191970" points="154.5186,-185.7654 144.0621,-187.4719 153.3005,-192.6586 154.5186,-185.7654"/>
</g>
<!-- Node14 -->
<g id="node14" class="node">
<title>Node14</title>
<polygon fill="none" stroke="#bfbfbf" points="457,-171.5 457,-191.5 529,-191.5 529,-171.5 457,-171.5"/>
<text text-anchor="middle" x="493" y="-178.5" font-family="FreeSans" font-size="10.00" fill="#000000">TVectorD.h</text>
</g>
<!-- Node3&#45;&gt;Node14 -->
<g id="edge17" class="edge">
<title>Node3&#45;&gt;Node14</title>
<path fill="none" stroke="#191970" d="M453.5814,-228.3095C460.3389,-220.2851 469.9244,-208.9022 477.9509,-199.3708"/>
<polygon fill="#191970" stroke="#191970" points="480.7287,-201.5059 484.4929,-191.6022 475.3743,-196.9969 480.7287,-201.5059"/>
</g>
<!-- Node15 -->
<g id="node15" class="node">
<title>Node15</title>
<polygon fill="none" stroke="#bfbfbf" points="179,-171.5 179,-191.5 251,-191.5 251,-171.5 179,-171.5"/>
<text text-anchor="middle" x="215" y="-178.5" font-family="FreeSans" font-size="10.00" fill="#000000">TMatrixD.h</text>
</g>
<!-- Node3&#45;&gt;Node15 -->
<g id="edge18" class="edge">
<title>Node3&#45;&gt;Node15</title>
<path fill="none" stroke="#191970" d="M404.4101,-228.4408C364.2604,-218.4906 302.9046,-203.2851 260.9774,-192.8944"/>
<polygon fill="#191970" stroke="#191970" points="261.5737,-189.4364 251.0254,-190.428 259.8898,-196.2308 261.5737,-189.4364"/>
</g>
<!-- Node16 -->
<g id="node16" class="node">
<title>Node16</title>
<polygon fill="none" stroke="#bfbfbf" points="269,-171.5 269,-191.5 363,-191.5 363,-171.5 269,-171.5"/>
<text text-anchor="middle" x="316" y="-178.5" font-family="FreeSans" font-size="10.00" fill="#000000">TMatrixDSym.h</text>
</g>
<!-- Node3&#45;&gt;Node16 -->
<g id="edge19" class="edge">
<title>Node3&#45;&gt;Node16</title>
<path fill="none" stroke="#191970" d="M422.2343,-228.4408C401.7286,-219.3801 371.3603,-205.9615 348.3385,-195.7891"/>
<polygon fill="#191970" stroke="#191970" points="349.5335,-192.4907 338.972,-191.6504 346.7043,-198.8935 349.5335,-192.4907"/>
</g>
<!-- Node5 -->
<g id="node5" class="node">
<title>Node5</title>
<g id="a_node5"><a xlink:href="../../dc/d81/DetPlane_8h.html" target="_top" xlink:title="DetPlane.h">
<polygon fill="none" stroke="#000000" points="580.5,-114.5 580.5,-134.5 651.5,-134.5 651.5,-114.5 580.5,-114.5"/>
<text text-anchor="middle" x="616" y="-121.5" font-family="FreeSans" font-size="10.00" fill="#000000">DetPlane.h</text>
</a>
</g>
</g>
<!-- Node4&#45;&gt;Node5 -->
<g id="edge4" class="edge">
<title>Node4&#45;&gt;Node5</title>
<path fill="none" stroke="#191970" d="M633.2456,-171.3095C630.4684,-163.7714 626.5993,-153.2696 623.2295,-144.123"/>
<polygon fill="#191970" stroke="#191970" points="626.4632,-142.7757 619.7219,-134.6022 619.8948,-145.1957 626.4632,-142.7757"/>
</g>
<!-- Node10 -->
<g id="node10" class="node">
<title>Node10</title>
<polygon fill="none" stroke="#bfbfbf" points="652,-57.5 652,-77.5 710,-77.5 710,-57.5 652,-57.5"/>
<text text-anchor="middle" x="681" y="-64.5" font-family="FreeSans" font-size="10.00" fill="#000000">memory</text>
</g>
<!-- Node4&#45;&gt;Node10 -->
<g id="edge10" class="edge">
<title>Node4&#45;&gt;Node10</title>
<path fill="none" stroke="#191970" d="M642.9086,-171.4187C648.1563,-162.1713 655.7813,-147.9808 661,-135 667.2596,-119.4303 672.5576,-101.1458 676.1251,-87.5369"/>
<polygon fill="#191970" stroke="#191970" points="679.5372,-88.3197 678.6003,-77.7664 672.7516,-86.6006 679.5372,-88.3197"/>
</g>
<!-- Node6 -->
<g id="node6" class="node">
<title>Node6</title>
<g id="a_node6"><a xlink:href="../../d1/dd1/AbsFinitePlane_8h.html" target="_top" xlink:title="AbsFinitePlane.h">
<polygon fill="none" stroke="#000000" points="534,-57.5 534,-77.5 634,-77.5 634,-57.5 534,-57.5"/>
<text text-anchor="middle" x="584" y="-64.5" font-family="FreeSans" font-size="10.00" fill="#000000">AbsFinitePlane.h</text>
</a>
</g>
</g>
<!-- Node5&#45;&gt;Node6 -->
<g id="edge5" class="edge">
<title>Node5&#45;&gt;Node6</title>
<path fill="none" stroke="#191970" d="M610.279,-114.3095C605.9561,-106.6093 599.897,-95.8166 594.6862,-86.5349"/>
<polygon fill="#191970" stroke="#191970" points="597.6188,-84.6087 589.6714,-77.6022 591.5149,-88.0355 597.6188,-84.6087"/>
</g>
<!-- Node5&#45;&gt;Node8 -->
<g id="edge7" class="edge">
<title>Node5&#45;&gt;Node8</title>
<path fill="none" stroke="#191970" d="M580.3481,-115.4682C540.4265,-105.3547 475.7741,-88.9761 433.321,-78.2213"/>
<polygon fill="#191970" stroke="#191970" points="434.1162,-74.8123 423.5629,-75.7493 432.3972,-81.5979 434.1162,-74.8123"/>
</g>
<!-- Node5&#45;&gt;Node9 -->
<g id="edge8" class="edge">
<title>Node5&#45;&gt;Node9</title>
<path fill="none" stroke="#191970" d="M591.999,-114.4408C570.1875,-105.2992 537.7918,-91.7216 513.4451,-81.5174"/>
<polygon fill="#191970" stroke="#191970" points="514.7942,-78.2879 504.2185,-77.6504 512.0884,-84.7438 514.7942,-78.2879"/>
</g>
<!-- Node5&#45;&gt;Node10 -->
<g id="edge9" class="edge">
<title>Node5&#45;&gt;Node10</title>
<path fill="none" stroke="#191970" d="M627.6207,-114.3095C637.1412,-105.9608 650.807,-93.9769 661.9277,-84.2249"/>
<polygon fill="#191970" stroke="#191970" points="664.2689,-86.827 669.4799,-77.6022 659.6536,-81.564 664.2689,-86.827"/>
</g>
<!-- Node7 -->
<g id="node7" class="node">
<title>Node7</title>
<polygon fill="none" stroke="#bfbfbf" points="554,-.5 554,-20.5 614,-20.5 614,-.5 554,-.5"/>
<text text-anchor="middle" x="584" y="-7.5" font-family="FreeSans" font-size="10.00" fill="#000000">Rtypes.h</text>
</g>
<!-- Node6&#45;&gt;Node7 -->
<g id="edge6" class="edge">
<title>Node6&#45;&gt;Node7</title>
<path fill="none" stroke="#191970" d="M584,-57.3095C584,-49.9335 584,-39.72 584,-30.715"/>
<polygon fill="#191970" stroke="#191970" points="587.5001,-30.6022 584,-20.6022 580.5001,-30.6023 587.5001,-30.6022"/>
</g>
<!-- Node11&#45;&gt;Node8 -->
<g id="edge14" class="edge">
<title>Node11&#45;&gt;Node8</title>
<path fill="none" stroke="#191970" d="M135.8481,-171.3833C186.0771,-150.9329 299.757,-104.6489 356.884,-81.3901"/>
<polygon fill="#191970" stroke="#191970" points="358.2656,-84.6066 366.2076,-77.5941 355.6259,-78.1234 358.2656,-84.6066"/>
</g>
<!-- Node12 -->
<g id="node12" class="node">
<title>Node12</title>
<g id="a_node12"><a xlink:href="../../d7/d83/EigenMatrixTypedefs_8h.html" target="_top" xlink:title="EigenMatrixTypedefs.h">
<polygon fill="none" stroke="#000000" points="46,-114.5 46,-134.5 176,-134.5 176,-114.5 46,-114.5"/>
<text text-anchor="middle" x="111" y="-121.5" font-family="FreeSans" font-size="10.00" fill="#000000">EigenMatrixTypedefs.h</text>
</a>
</g>
</g>
<!-- Node11&#45;&gt;Node12 -->
<g id="edge12" class="edge">
<title>Node11&#45;&gt;Node12</title>
<path fill="none" stroke="#191970" d="M111,-171.3095C111,-163.9335 111,-153.72 111,-144.715"/>
<polygon fill="#191970" stroke="#191970" points="114.5001,-144.6022 111,-134.6022 107.5001,-144.6023 114.5001,-144.6022"/>
</g>
<!-- Node13 -->
<g id="node13" class="node">
<title>Node13</title>
<polygon fill="none" stroke="#bfbfbf" points="71,-57.5 71,-77.5 151,-77.5 151,-57.5 71,-57.5"/>
<text text-anchor="middle" x="111" y="-64.5" font-family="FreeSans" font-size="10.00" fill="#000000">Eigen/Dense</text>
</g>
<!-- Node12&#45;&gt;Node13 -->
<g id="edge13" class="edge">
<title>Node12&#45;&gt;Node13</title>
<path fill="none" stroke="#191970" d="M111,-114.3095C111,-106.9335 111,-96.72 111,-87.715"/>
<polygon fill="#191970" stroke="#191970" points="114.5001,-87.6022 111,-77.6022 107.5001,-87.6023 114.5001,-87.6022"/>
</g>
<!-- Node17&#45;&gt;Node3 -->
<g id="edge22" class="edge">
<title>Node17&#45;&gt;Node3</title>
<path fill="none" stroke="#191970" d="M521.3735,-285.3095C507.2229,-276.6366 486.6716,-264.0407 470.4513,-254.0992"/>
<polygon fill="#191970" stroke="#191970" points="471.8376,-250.8438 461.4826,-248.6022 468.1796,-256.812 471.8376,-250.8438"/>
</g>
<!-- Node17&#45;&gt;Node4 -->
<g id="edge21" class="edge">
<title>Node17&#45;&gt;Node4</title>
<path fill="none" stroke="#191970" d="M585.0932,-288.0229C608.1754,-281.7261 633.966,-270.169 648,-249 657.3971,-234.8253 652.8351,-215.3814 646.9928,-201.0021"/>
<polygon fill="#191970" stroke="#191970" points="650.0273,-199.2209 642.6936,-191.5746 643.6583,-202.1254 650.0273,-199.2209"/>
</g>
<!-- Node17&#45;&gt;Node8 -->
<g id="edge23" class="edge">
<title>Node17&#45;&gt;Node8</title>
<path fill="none" stroke="#191970" d="M540.9465,-285.4102C546.8224,-263.2323 557.8117,-209.1788 538,-171 515.0695,-126.8109 463.6469,-97.5076 428.1387,-81.695"/>
<polygon fill="#191970" stroke="#191970" points="429.1521,-78.3212 418.5824,-77.5916 426.3902,-84.7533 429.1521,-78.3212"/>
</g>
<!-- Node17&#45;&gt;Node14 -->
<g id="edge24" class="edge">
<title>Node17&#45;&gt;Node14</title>
<path fill="none" stroke="#191970" d="M534.0066,-285.3833C526.5533,-266.5017 510.4071,-225.598 500.7476,-201.1272"/>
<polygon fill="#191970" stroke="#191970" points="503.9765,-199.7744 497.0492,-191.7579 497.4654,-202.3446 503.9765,-199.7744"/>
</g>
<!-- Node18 -->
<g id="node18" class="node">
<title>Node18</title>
<polygon fill="none" stroke="#bfbfbf" points="585.5,-228.5 585.5,-248.5 638.5,-248.5 638.5,-228.5 585.5,-228.5"/>
<text text-anchor="middle" x="612" y="-235.5" font-family="FreeSans" font-size="10.00" fill="#000000">cassert</text>
</g>
<!-- Node17&#45;&gt;Node18 -->
<g id="edge25" class="edge">
<title>Node17&#45;&gt;Node18</title>
<path fill="none" stroke="#191970" d="M551.2297,-285.3095C562.1736,-276.8798 577.929,-264.7439 590.6549,-254.9415"/>
<polygon fill="#191970" stroke="#191970" points="593.0984,-257.4773 598.8848,-248.6022 588.8267,-251.9318 593.0984,-257.4773"/>
</g>
<!-- Node20 -->
<g id="node20" class="node">
<title>Node20</title>
<polygon fill="none" stroke="#bfbfbf" points="104,-228.5 104,-248.5 160,-248.5 160,-228.5 104,-228.5"/>
<text text-anchor="middle" x="132" y="-235.5" font-family="FreeSans" font-size="10.00" fill="#000000">stddef.h</text>
</g>
<!-- Node19&#45;&gt;Node20 -->
<g id="edge27" class="edge">
<title>Node19&#45;&gt;Node20</title>
<path fill="none" stroke="#191970" d="M151.7093,-285.3095C148.5012,-277.6903 144.0183,-267.0435 140.1383,-257.8285"/>
<polygon fill="#191970" stroke="#191970" points="143.3599,-256.4604 136.2536,-248.6022 136.9085,-259.1768 143.3599,-256.4604"/>
</g>
<!-- Node19&#45;&gt;Node21 -->
<g id="edge28" class="edge">
<title>Node19&#45;&gt;Node21</title>
<path fill="none" stroke="#191970" d="M165.8329,-285.3095C173.654,-277.204 184.7815,-265.672 194.0344,-256.0826"/>
<polygon fill="#191970" stroke="#191970" points="196.8272,-258.2288 201.2522,-248.6022 191.7898,-253.3681 196.8272,-258.2288"/>
</g>
<!-- Node23 -->
<g id="node23" class="node">
<title>Node23</title>
<polygon fill="none" stroke="#bfbfbf" points="332.5,-228.5 332.5,-248.5 381.5,-248.5 381.5,-228.5 332.5,-228.5"/>
<text text-anchor="middle" x="357" y="-235.5" font-family="FreeSans" font-size="10.00" fill="#000000">vector</text>
</g>
<!-- Node22&#45;&gt;Node23 -->
<g id="edge30" class="edge">
<title>Node22&#45;&gt;Node23</title>
<path fill="none" stroke="#191970" d="M300.3358,-285.3095C310.4422,-276.9608 324.949,-264.9769 336.7541,-255.2249"/>
<polygon fill="#191970" stroke="#191970" points="339.2904,-257.6695 344.771,-248.6022 334.8322,-252.2727 339.2904,-257.6695"/>
</g>
<!-- Node24 -->
<g id="node24" class="node">
<title>Node24</title>
<polygon fill="none" stroke="#bfbfbf" points="262,-228.5 262,-248.5 314,-248.5 314,-228.5 262,-228.5"/>
<text text-anchor="middle" x="288" y="-235.5" font-family="FreeSans" font-size="10.00" fill="#000000">math.h</text>
</g>
<!-- Node22&#45;&gt;Node24 -->
<g id="edge31" class="edge">
<title>Node22&#45;&gt;Node24</title>
<path fill="none" stroke="#191970" d="M288,-285.3095C288,-277.9335 288,-267.72 288,-258.715"/>
<polygon fill="#191970" stroke="#191970" points="291.5001,-258.6022 288,-248.6022 284.5001,-258.6023 291.5001,-258.6022"/>
</g>
</g>
</svg>
