<?xml version="1.0" encoding="UTF-8" standalone="no"?>
<!DOCTYPE svg PUBLIC "-//W3C//DTD SVG 1.1//EN"
 "http://www.w3.org/Graphics/SVG/1.1/DTD/svg11.dtd">
<!-- Generated by graphviz version 2.40.1 (20161225.0304)
 -->
<!-- Title: GenFit/blob/master/measurements/include/WireTrackCandHit.h Pages: 1 -->
<svg width="144pt" height="167pt"
 viewBox="0.00 0.00 144.00 167.00" xmlns="http://www.w3.org/2000/svg" xmlns:xlink="http://www.w3.org/1999/xlink">
<g id="graph0" class="graph" transform="scale(1 1) rotate(0) translate(4 163)">
<title>GenFit/blob/master/measurements/include/WireTrackCandHit.h</title>
<!-- Node1 -->
<g id="node1" class="node">
<title>Node1</title>
<polygon fill="#bfbfbf" stroke="#000000" points="0,-114.5 0,-158.5 136,-158.5 136,-114.5 0,-114.5"/>
<text text-anchor="start" x="8" y="-145.5" font-family="FreeSans" font-size="10.00" fill="#000000">GenFit/blob/master</text>
<text text-anchor="start" x="8" y="-133.5" font-family="FreeSans" font-size="10.00" fill="#000000">/measurements/include</text>
<text text-anchor="middle" x="68" y="-121.5" font-family="FreeSans" font-size="10.00" fill="#000000">/WireTrackCandHit.h</text>
</g>
<!-- Node2 -->
<g id="node2" class="node">
<title>Node2</title>
<g id="a_node2"><a xlink:href="../../d9/d08/TrackCandHit_8h.html" target="_top" xlink:title="TrackCandHit.h">
<polygon fill="none" stroke="#000000" points="21.5,-57.5 21.5,-77.5 114.5,-77.5 114.5,-57.5 21.5,-57.5"/>
<text text-anchor="middle" x="68" y="-64.5" font-family="FreeSans" font-size="10.00" fill="#000000">TrackCandHit.h</text>
</a>
</g>
</g>
<!-- Node1&#45;&gt;Node2 -->
<g id="edge1" class="edge">
<title>Node1&#45;&gt;Node2</title>
<path fill="none" stroke="#191970" d="M68,-114.2882C68,-105.8377 68,-96.2557 68,-87.9736"/>
<polygon fill="#191970" stroke="#191970" points="71.5001,-87.7136 68,-77.7137 64.5001,-87.7137 71.5001,-87.7136"/>
</g>
<!-- Node3 -->
<g id="node3" class="node">
<title>Node3</title>
<polygon fill="none" stroke="#bfbfbf" points="35.5,-.5 35.5,-20.5 100.5,-20.5 100.5,-.5 35.5,-.5"/>
<text text-anchor="middle" x="68" y="-7.5" font-family="FreeSans" font-size="10.00" fill="#000000">TObject.h</text>
</g>
<!-- Node2&#45;&gt;Node3 -->
<g id="edge2" class="edge">
<title>Node2&#45;&gt;Node3</title>
<path fill="none" stroke="#191970" d="M68,-57.3095C68,-49.9335 68,-39.72 68,-30.715"/>
<polygon fill="#191970" stroke="#191970" points="71.5001,-30.6022 68,-20.6022 64.5001,-30.6023 71.5001,-30.6022"/>
</g>
</g>
</svg>
