<?xml version="1.0" encoding="UTF-8" standalone="no"?>
<!DOCTYPE svg PUBLIC "-//W3C//DTD SVG 1.1//EN"
 "http://www.w3.org/Graphics/SVG/1.1/DTD/svg11.dtd">
<!-- Generated by graphviz version 2.40.1 (20161225.0304)
 -->
<!-- Title: KFParticle/blob/master/KFParticle/KFPTrack.h Pages: 1 -->
<svg width="929pt" height="398pt"
 viewBox="0.00 0.00 929.00 398.00" xmlns="http://www.w3.org/2000/svg" xmlns:xlink="http://www.w3.org/1999/xlink">
<g id="graph0" class="graph" transform="scale(1 1) rotate(0) translate(4 394)">
<title>KFParticle/blob/master/KFParticle/KFPTrack.h</title>
<!-- Node1 -->
<g id="node1" class="node">
<title>Node1</title>
<polygon fill="#bfbfbf" stroke="#000000" points="581,-357.5 581,-389.5 712,-389.5 712,-357.5 581,-357.5"/>
<text text-anchor="start" x="589" y="-376.5" font-family="FreeSans" font-size="10.00" fill="#000000">KFParticle/blob/master</text>
<text text-anchor="middle" x="646.5" y="-364.5" font-family="FreeSans" font-size="10.00" fill="#000000">/KFParticle/KFPTrack.h</text>
</g>
<!-- Node2 -->
<g id="node2" class="node">
<title>Node2</title>
<g id="a_node2"><a xlink:href="../../d8/d34/KFParticle_8cxx.html" target="_top" xlink:title="KFParticle/blob/master\l/KFParticle/KFParticle.cxx">
<polygon fill="none" stroke="#000000" points="114.5,-288.5 114.5,-320.5 258.5,-320.5 258.5,-288.5 114.5,-288.5"/>
<text text-anchor="start" x="122.5" y="-307.5" font-family="FreeSans" font-size="10.00" fill="#000000">KFParticle/blob/master</text>
<text text-anchor="middle" x="186.5" y="-295.5" font-family="FreeSans" font-size="10.00" fill="#000000">/KFParticle/KFParticle.cxx</text>
</a>
</g>
</g>
<!-- Node1&#45;&gt;Node2 -->
<g id="edge1" class="edge">
<title>Node1&#45;&gt;Node2</title>
<path fill="none" stroke="#191970" d="M570.8703,-364.4549C494.2162,-354.9515 372.3051,-338.915 267.5,-321 264.6708,-320.5164 261.7892,-320.0076 258.8808,-319.4806"/>
<polygon fill="#191970" stroke="#191970" points="570.5623,-367.9433 580.9159,-365.695 571.4201,-360.9961 570.5623,-367.9433"/>
</g>
<!-- Node3 -->
<g id="node3" class="node">
<title>Node3</title>
<g id="a_node3"><a xlink:href="../../d7/dbf/KFParticleSIMD_8h.html" target="_top" xlink:title="KFParticle/blob/master\l/KFParticle/KFParticleSIMD.h">
<polygon fill="none" stroke="#000000" points="567.5,-219.5 567.5,-251.5 725.5,-251.5 725.5,-219.5 567.5,-219.5"/>
<text text-anchor="start" x="575.5" y="-238.5" font-family="FreeSans" font-size="10.00" fill="#000000">KFParticle/blob/master</text>
<text text-anchor="middle" x="646.5" y="-226.5" font-family="FreeSans" font-size="10.00" fill="#000000">/KFParticle/KFParticleSIMD.h</text>
</a>
</g>
</g>
<!-- Node1&#45;&gt;Node3 -->
<g id="edge2" class="edge">
<title>Node1&#45;&gt;Node3</title>
<path fill="none" stroke="#191970" d="M646.5,-347.1165C646.5,-319.0305 646.5,-275.4612 646.5,-251.9256"/>
<polygon fill="#191970" stroke="#191970" points="643.0001,-347.3995 646.5,-357.3996 650.0001,-347.3996 643.0001,-347.3995"/>
</g>
<!-- Node10 -->
<g id="node10" class="node">
<title>Node10</title>
<g id="a_node10"><a xlink:href="../../d0/d87/KFParticleTest_8cxx.html" target="_top" xlink:title="KFParticle/blob/master\l/KFParticleTest/KFParticleTest.cxx">
<polygon fill="none" stroke="#000000" points="661.5,-150.5 661.5,-182.5 845.5,-182.5 845.5,-150.5 661.5,-150.5"/>
<text text-anchor="start" x="669.5" y="-169.5" font-family="FreeSans" font-size="10.00" fill="#000000">KFParticle/blob/master</text>
<text text-anchor="middle" x="753.5" y="-157.5" font-family="FreeSans" font-size="10.00" fill="#000000">/KFParticleTest/KFParticleTest.cxx</text>
</a>
</g>
</g>
<!-- Node1&#45;&gt;Node10 -->
<g id="edge21" class="edge">
<title>Node1&#45;&gt;Node10</title>
<path fill="none" stroke="#191970" d="M668.4521,-349.5698C688.5969,-326.3234 717.7724,-289.1826 734.5,-252 744.7936,-229.1192 749.7111,-200.2147 751.9064,-182.5566"/>
<polygon fill="#191970" stroke="#191970" points="665.7228,-347.3731 661.7385,-357.1903 670.9752,-352.0005 665.7228,-347.3731"/>
</g>
<!-- Node11 -->
<g id="node11" class="node">
<title>Node11</title>
<g id="a_node11"><a xlink:href="../../d2/dc5/KFPTrackVector_8h.html" target="_top" xlink:title="KFParticle/blob/master\l/KFParticle/KFPTrackVector.h">
<polygon fill="none" stroke="#000000" points="277,-288.5 277,-320.5 436,-320.5 436,-288.5 277,-288.5"/>
<text text-anchor="start" x="285" y="-307.5" font-family="FreeSans" font-size="10.00" fill="#000000">KFParticle/blob/master</text>
<text text-anchor="middle" x="356.5" y="-295.5" font-family="FreeSans" font-size="10.00" fill="#000000">/KFParticle/KFPTrackVector.h</text>
</a>
</g>
</g>
<!-- Node1&#45;&gt;Node11 -->
<g id="edge12" class="edge">
<title>Node1&#45;&gt;Node11</title>
<path fill="none" stroke="#191970" d="M570.8682,-355.5048C525.3055,-344.6641 467.788,-330.9789 423.805,-320.5139"/>
<polygon fill="#191970" stroke="#191970" points="570.1559,-358.933 580.6945,-357.8428 571.7763,-352.1231 570.1559,-358.933"/>
</g>
<!-- Node15 -->
<g id="node15" class="node">
<title>Node15</title>
<g id="a_node15"><a xlink:href="../../dd/dbf/KFPTrack_8cxx.html" target="_top" xlink:title="KFParticle/blob/master\l/KFParticle/KFPTrack.cxx">
<polygon fill="none" stroke="#000000" points="782,-288.5 782,-320.5 921,-320.5 921,-288.5 782,-288.5"/>
<text text-anchor="start" x="790" y="-307.5" font-family="FreeSans" font-size="10.00" fill="#000000">KFParticle/blob/master</text>
<text text-anchor="middle" x="851.5" y="-295.5" font-family="FreeSans" font-size="10.00" fill="#000000">/KFParticle/KFPTrack.cxx</text>
</a>
</g>
</g>
<!-- Node1&#45;&gt;Node15 -->
<g id="edge20" class="edge">
<title>Node1&#45;&gt;Node15</title>
<path fill="none" stroke="#191970" d="M703.5944,-354.2829C735.1622,-343.6576 773.9315,-330.6084 803.8568,-320.536"/>
<polygon fill="#191970" stroke="#191970" points="702.4074,-350.9894 694.0464,-357.4966 704.6405,-357.6237 702.4074,-350.9894"/>
</g>
<!-- Node4 -->
<g id="node4" class="node">
<title>Node4</title>
<g id="a_node4"><a xlink:href="../../d0/dd6/KFParticleFinder_8h.html" target="_top" xlink:title="KFParticle/blob/master\l/KFParticle/KFParticleFinder.h">
<polygon fill="none" stroke="#000000" points="201,-150.5 201,-182.5 364,-182.5 364,-150.5 201,-150.5"/>
<text text-anchor="start" x="209" y="-169.5" font-family="FreeSans" font-size="10.00" fill="#000000">KFParticle/blob/master</text>
<text text-anchor="middle" x="282.5" y="-157.5" font-family="FreeSans" font-size="10.00" fill="#000000">/KFParticle/KFParticleFinder.h</text>
</a>
</g>
</g>
<!-- Node3&#45;&gt;Node4 -->
<g id="edge3" class="edge">
<title>Node3&#45;&gt;Node4</title>
<path fill="none" stroke="#191970" d="M557.0275,-218.5396C498.112,-207.3715 421.5729,-192.8627 364.2835,-182.0029"/>
<polygon fill="#191970" stroke="#191970" points="556.5915,-222.0192 567.0685,-220.4429 557.8953,-215.1416 556.5915,-222.0192"/>
</g>
<!-- Node6 -->
<g id="node6" class="node">
<title>Node6</title>
<g id="a_node6"><a xlink:href="../../d1/def/KFParticleTopoReconstructor_8h.html" target="_top" xlink:title="KFParticle/blob/master\l/KFParticle/KFParticleTopoReconstructor.h">
<polygon fill="none" stroke="#000000" points="374,-81.5 374,-113.5 599,-113.5 599,-81.5 374,-81.5"/>
<text text-anchor="start" x="382" y="-100.5" font-family="FreeSans" font-size="10.00" fill="#000000">KFParticle/blob/master</text>
<text text-anchor="middle" x="486.5" y="-88.5" font-family="FreeSans" font-size="10.00" fill="#000000">/KFParticle/KFParticleTopoReconstructor.h</text>
</a>
</g>
</g>
<!-- Node3&#45;&gt;Node6 -->
<g id="edge9" class="edge">
<title>Node3&#45;&gt;Node6</title>
<path fill="none" stroke="#191970" d="M629.9631,-210.8359C616.9045,-192.5761 597.4435,-167.8713 576.5,-150 559.5748,-135.5576 538.1371,-122.8738 520.4304,-113.5927"/>
<polygon fill="#191970" stroke="#191970" points="627.2343,-213.0408 635.8378,-219.2239 632.9679,-209.0251 627.2343,-213.0408"/>
</g>
<!-- Node7 -->
<g id="node7" class="node">
<title>Node7</title>
<g id="a_node7"><a xlink:href="../../d8/d90/KFParticleTopoReconstructor_8cxx.html" target="_top" xlink:title="KFParticle/blob/master\l/KFParticle/KFParticleTopoReconstructor.cxx">
<polygon fill="none" stroke="#000000" points="441,-6.5 441,-38.5 678,-38.5 678,-6.5 441,-6.5"/>
<text text-anchor="start" x="449" y="-25.5" font-family="FreeSans" font-size="10.00" fill="#000000">KFParticle/blob/master</text>
<text text-anchor="middle" x="559.5" y="-13.5" font-family="FreeSans" font-size="10.00" fill="#000000">/KFParticle/KFParticleTopoReconstructor.cxx</text>
</a>
</g>
</g>
<!-- Node3&#45;&gt;Node7 -->
<g id="edge10" class="edge">
<title>Node3&#45;&gt;Node7</title>
<path fill="none" stroke="#191970" d="M643.4212,-209.1011C638.9246,-177.3179 628.6763,-122.9798 607.5,-81 599.5714,-65.2823 586.7917,-49.9908 576.4117,-38.9858"/>
<polygon fill="#191970" stroke="#191970" points="639.9955,-209.8925 644.7804,-219.3453 646.9347,-208.9718 639.9955,-209.8925"/>
</g>
<!-- Node9 -->
<g id="node9" class="node">
<title>Node9</title>
<g id="a_node9"><a xlink:href="../../db/d21/KFParticleSIMD_8cxx.html" target="_top" xlink:title="KFParticle/blob/master\l/KFParticle/KFParticleSIMD.cxx">
<polygon fill="none" stroke="#000000" points="397.5,-150.5 397.5,-182.5 567.5,-182.5 567.5,-150.5 397.5,-150.5"/>
<text text-anchor="start" x="405.5" y="-169.5" font-family="FreeSans" font-size="10.00" fill="#000000">KFParticle/blob/master</text>
<text text-anchor="middle" x="482.5" y="-157.5" font-family="FreeSans" font-size="10.00" fill="#000000">/KFParticle/KFParticleSIMD.cxx</text>
</a>
</g>
</g>
<!-- Node3&#45;&gt;Node9 -->
<g id="edge8" class="edge">
<title>Node3&#45;&gt;Node9</title>
<path fill="none" stroke="#191970" d="M599.1838,-215.5926C574.2366,-205.0965 544.0389,-192.3913 520.6146,-182.536"/>
<polygon fill="#191970" stroke="#191970" points="597.8881,-218.8446 608.4629,-219.4966 600.6028,-212.3924 597.8881,-218.8446"/>
</g>
<!-- Node3&#45;&gt;Node10 -->
<g id="edge11" class="edge">
<title>Node3&#45;&gt;Node10</title>
<path fill="none" stroke="#191970" d="M679.7289,-214.072C695.4549,-203.931 713.9231,-192.0216 728.447,-182.6557"/>
<polygon fill="#191970" stroke="#191970" points="677.8242,-211.1356 671.3169,-219.4966 681.6179,-217.0185 677.8242,-211.1356"/>
</g>
<!-- Node5 -->
<g id="node5" class="node">
<title>Node5</title>
<g id="a_node5"><a xlink:href="../../d6/d23/KFParticleFinder_8cxx.html" target="_top" xlink:title="KFParticle/blob/master\l/KFParticle/KFParticleFinder.cxx">
<polygon fill="none" stroke="#000000" points="181.5,-81.5 181.5,-113.5 355.5,-113.5 355.5,-81.5 181.5,-81.5"/>
<text text-anchor="start" x="189.5" y="-100.5" font-family="FreeSans" font-size="10.00" fill="#000000">KFParticle/blob/master</text>
<text text-anchor="middle" x="268.5" y="-88.5" font-family="FreeSans" font-size="10.00" fill="#000000">/KFParticle/KFParticleFinder.cxx</text>
</a>
</g>
</g>
<!-- Node4&#45;&gt;Node5 -->
<g id="edge4" class="edge">
<title>Node4&#45;&gt;Node5</title>
<path fill="none" stroke="#191970" d="M277.2324,-140.5385C275.4196,-131.6035 273.4412,-121.8532 271.8267,-113.8958"/>
<polygon fill="#191970" stroke="#191970" points="273.8343,-141.3923 279.2529,-150.4966 280.6945,-140.0003 273.8343,-141.3923"/>
</g>
<!-- Node4&#45;&gt;Node6 -->
<g id="edge5" class="edge">
<title>Node4&#45;&gt;Node6</title>
<path fill="none" stroke="#191970" d="M339.3158,-147.2829C370.7297,-136.6576 409.3099,-123.6084 439.0892,-113.536"/>
<polygon fill="#191970" stroke="#191970" points="338.1658,-143.977 329.8145,-150.4966 340.4087,-150.608 338.1658,-143.977"/>
</g>
<!-- Node6&#45;&gt;Node7 -->
<g id="edge6" class="edge">
<title>Node6&#45;&gt;Node7</title>
<path fill="none" stroke="#191970" d="M509.3348,-74.0396C520.4974,-62.5711 533.653,-49.0551 543.691,-38.7421"/>
<polygon fill="#191970" stroke="#191970" points="506.8067,-71.6189 502.3399,-81.2261 511.8229,-76.5013 506.8067,-71.6189"/>
</g>
<!-- Node8 -->
<g id="node8" class="node">
<title>Node8</title>
<g id="a_node8"><a xlink:href="../../d4/d59/KFPHistogram_8h.html" target="_top" xlink:title="KFParticle/blob/master\l/KFParticlePerformance\l/KFPHistogram/KFPHistogram.h">
<polygon fill="none" stroke="#000000" points="248,-.5 248,-44.5 423,-44.5 423,-.5 248,-.5"/>
<text text-anchor="start" x="256" y="-31.5" font-family="FreeSans" font-size="10.00" fill="#000000">KFParticle/blob/master</text>
<text text-anchor="start" x="256" y="-19.5" font-family="FreeSans" font-size="10.00" fill="#000000">/KFParticlePerformance</text>
<text text-anchor="middle" x="335.5" y="-7.5" font-family="FreeSans" font-size="10.00" fill="#000000">/KFPHistogram/KFPHistogram.h</text>
</a>
</g>
</g>
<!-- Node6&#45;&gt;Node8 -->
<g id="edge7" class="edge">
<title>Node6&#45;&gt;Node8</title>
<path fill="none" stroke="#191970" d="M445.1263,-76.9502C424.8842,-66.8961 400.4972,-54.7834 379.869,-44.5376"/>
<polygon fill="#191970" stroke="#191970" points="443.5936,-80.0968 454.1067,-81.4106 446.7076,-73.8275 443.5936,-80.0968"/>
</g>
<!-- Node11&#45;&gt;Node3 -->
<g id="edge13" class="edge">
<title>Node11&#45;&gt;Node3</title>
<path fill="none" stroke="#191970" d="M433.5386,-286.1701C478.8416,-275.3911 535.5829,-261.8906 579.1023,-251.536"/>
<polygon fill="#191970" stroke="#191970" points="432.679,-282.7769 423.7607,-288.4966 434.2993,-289.5868 432.679,-282.7769"/>
</g>
<!-- Node11&#45;&gt;Node4 -->
<g id="edge14" class="edge">
<title>Node11&#45;&gt;Node4</title>
<path fill="none" stroke="#191970" d="M266.8771,-286.7205C204.2945,-273.8745 131.1283,-257.8037 126.5,-252 99.1566,-217.7119 150.1451,-195.1557 200.979,-181.866"/>
<polygon fill="#191970" stroke="#191970" points="266.3199,-290.1788 276.8182,-288.7524 267.7217,-283.3206 266.3199,-290.1788"/>
</g>
<!-- Node11&#45;&gt;Node6 -->
<g id="edge16" class="edge">
<title>Node11&#45;&gt;Node6</title>
<path fill="none" stroke="#191970" d="M266.8612,-287.6841C200.3988,-274.7847 120.4748,-258.1752 115.5,-252 106.2988,-240.5786 109.5622,-232.4109 115.5,-219 133.9703,-177.2839 150.5523,-170.1164 191.5,-150 208.571,-141.6135 302.4166,-125.6747 379.7443,-113.5499"/>
<polygon fill="#191970" stroke="#191970" points="266.4958,-291.1782 276.9783,-289.6394 267.8241,-284.3053 266.4958,-291.1782"/>
</g>
<!-- Node12 -->
<g id="node12" class="node">
<title>Node12</title>
<g id="a_node12"><a xlink:href="../../dc/d00/KFParticlePVReconstructor_8cxx.html" target="_top" xlink:title="KFParticle/blob/master\l/KFParticle/KFParticlePVReconstructor.cxx">
<polygon fill="none" stroke="#000000" points="135.5,-219.5 135.5,-251.5 361.5,-251.5 361.5,-219.5 135.5,-219.5"/>
<text text-anchor="start" x="143.5" y="-238.5" font-family="FreeSans" font-size="10.00" fill="#000000">KFParticle/blob/master</text>
<text text-anchor="middle" x="248.5" y="-226.5" font-family="FreeSans" font-size="10.00" fill="#000000">/KFParticle/KFParticlePVReconstructor.cxx</text>
</a>
</g>
</g>
<!-- Node11&#45;&gt;Node12 -->
<g id="edge15" class="edge">
<title>Node11&#45;&gt;Node12</title>
<path fill="none" stroke="#191970" d="M322.9605,-283.072C307.0876,-272.931 288.4468,-261.0216 273.7871,-251.6557"/>
<polygon fill="#191970" stroke="#191970" points="321.1398,-286.0621 331.4512,-288.4966 324.9086,-280.1632 321.1398,-286.0621"/>
</g>
<!-- Node13 -->
<g id="node13" class="node">
<title>Node13</title>
<g id="a_node13"><a xlink:href="../../dc/d19/KFPInputData_8h.html" target="_top" xlink:title="KFParticle/blob/master\l/KFParticle/KFPInputData.h">
<polygon fill="none" stroke="#000000" points="0,-81.5 0,-113.5 151,-113.5 151,-81.5 0,-81.5"/>
<text text-anchor="start" x="8" y="-100.5" font-family="FreeSans" font-size="10.00" fill="#000000">KFParticle/blob/master</text>
<text text-anchor="middle" x="75.5" y="-88.5" font-family="FreeSans" font-size="10.00" fill="#000000">/KFParticle/KFPInputData.h</text>
</a>
</g>
</g>
<!-- Node11&#45;&gt;Node13 -->
<g id="edge17" class="edge">
<title>Node11&#45;&gt;Node13</title>
<path fill="none" stroke="#191970" d="M266.6171,-287.1967C200.5109,-274.1062 121.1967,-257.4796 115.5,-252 76.7605,-214.7368 73.7643,-145.2244 74.5854,-113.74"/>
<polygon fill="#191970" stroke="#191970" points="266.1931,-290.6805 276.6815,-289.1827 267.5483,-283.8129 266.1931,-290.6805"/>
</g>
<!-- Node14 -->
<g id="node14" class="node">
<title>Node14</title>
<g id="a_node14"><a xlink:href="../../dd/d65/KFPTrackVector_8cxx.html" target="_top" xlink:title="KFParticle/blob/master\l/KFParticle/KFPTrackVector.cxx">
<polygon fill="none" stroke="#000000" points="379.5,-219.5 379.5,-251.5 549.5,-251.5 549.5,-219.5 379.5,-219.5"/>
<text text-anchor="start" x="387.5" y="-238.5" font-family="FreeSans" font-size="10.00" fill="#000000">KFParticle/blob/master</text>
<text text-anchor="middle" x="464.5" y="-226.5" font-family="FreeSans" font-size="10.00" fill="#000000">/KFParticle/KFPTrackVector.cxx</text>
</a>
</g>
</g>
<!-- Node11&#45;&gt;Node14 -->
<g id="edge19" class="edge">
<title>Node11&#45;&gt;Node14</title>
<path fill="none" stroke="#191970" d="M390.0395,-283.072C405.9124,-272.931 424.5532,-261.0216 439.2129,-251.6557"/>
<polygon fill="#191970" stroke="#191970" points="388.0914,-280.1632 381.5488,-288.4966 391.8602,-286.0621 388.0914,-280.1632"/>
</g>
<!-- Node13&#45;&gt;Node7 -->
<g id="edge18" class="edge">
<title>Node13&#45;&gt;Node7</title>
<path fill="none" stroke="#191970" d="M161.279,-82.7648C165.0694,-82.1591 168.8229,-81.5682 172.5,-81 287.3548,-63.2534 316.6945,-63.0631 431.5,-45 444.2046,-43.0011 457.5974,-40.7769 470.742,-38.5268"/>
<polygon fill="#191970" stroke="#191970" points="160.4995,-79.3453 151.1867,-84.3971 161.6173,-86.2555 160.4995,-79.3453"/>
</g>
</g>
</svg>
