<?xml version="1.0" encoding="UTF-8" standalone="no"?>
<!DOCTYPE svg PUBLIC "-//W3C//DTD SVG 1.1//EN"
 "http://www.w3.org/Graphics/SVG/1.1/DTD/svg11.dtd">
<!-- Generated by graphviz version 2.40.1 (20161225.0304)
 -->
<!-- Title: PHGenFitTrkFitter::InitRun Pages: 1 -->
<svg width="922pt" height="503pt"
 viewBox="0.00 0.00 922.00 503.00" xmlns="http://www.w3.org/2000/svg" xmlns:xlink="http://www.w3.org/1999/xlink">
<g id="graph0" class="graph" transform="scale(1 1) rotate(0) translate(4 499)">
<title>PHGenFitTrkFitter::InitRun</title>
<!-- Node1 -->
<g id="node1" class="node">
<title>Node1</title>
<polygon fill="#bfbfbf" stroke="#000000" points="0,-193.5 0,-225.5 109,-225.5 109,-193.5 0,-193.5"/>
<text text-anchor="start" x="8" y="-212.5" font-family="FreeSans" font-size="10.00" fill="#000000">PHGenFitTrkFitter::</text>
<text text-anchor="middle" x="54.5" y="-200.5" font-family="FreeSans" font-size="10.00" fill="#000000">InitRun</text>
</g>
<!-- Node2 -->
<g id="node2" class="node">
<title>Node2</title>
<g id="a_node2"><a xlink:href="../../de/d25/classPHGenFitTrkFitter.html#a3d203db8c0f19a4ef29c5f64188bb58c" target="_top" xlink:title="Create New nodes.">
<polygon fill="none" stroke="#000000" points="183,-359.5 183,-391.5 292,-391.5 292,-359.5 183,-359.5"/>
<text text-anchor="start" x="191" y="-378.5" font-family="FreeSans" font-size="10.00" fill="#000000">PHGenFitTrkFitter::</text>
<text text-anchor="middle" x="237.5" y="-366.5" font-family="FreeSans" font-size="10.00" fill="#000000">CreateNodes</text>
</a>
</g>
</g>
<!-- Node1&#45;&gt;Node2 -->
<g id="edge1" class="edge">
<title>Node1&#45;&gt;Node2</title>
<path fill="none" stroke="#191970" d="M61.8734,-225.8089C74.929,-252.9869 104.5936,-307.6909 145,-339.5 153.5007,-346.192 163.3951,-351.7668 173.4885,-356.37"/>
<polygon fill="#191970" stroke="#191970" points="172.2078,-359.6287 182.7795,-360.3283 174.9515,-353.1888 172.2078,-359.6287"/>
</g>
<!-- Node9 -->
<g id="node9" class="node">
<title>Node9</title>
<g id="a_node9"><a xlink:href="../../d5/dec/classFun4AllBase.html#a8a5c77a92bdac6bc043476e132379a40" target="_top" xlink:title="Gets the verbosity of this module.">
<polygon fill="none" stroke="#000000" points="381,-439.5 381,-459.5 513,-459.5 513,-439.5 381,-439.5"/>
<text text-anchor="middle" x="447" y="-446.5" font-family="FreeSans" font-size="10.00" fill="#000000">Fun4AllBase::Verbosity</text>
</a>
</g>
</g>
<!-- Node1&#45;&gt;Node9 -->
<g id="edge37" class="edge">
<title>Node1&#45;&gt;Node9</title>
<path fill="none" stroke="#191970" d="M56.9353,-225.5593C63.5389,-263.1029 85.4705,-356.8088 145,-401.5 209.6813,-450.0589 304.334,-457.8212 370.3775,-456.1467"/>
<polygon fill="#191970" stroke="#191970" points="370.8447,-459.6331 380.7225,-455.8017 370.6114,-452.637 370.8447,-459.6331"/>
</g>
<!-- Node10 -->
<g id="node10" class="node">
<title>Node10</title>
<g id="a_node10"><a xlink:href="../../d3/d2b/classPHTFileServer.html#a5a3ed7a2a70cc2e38dbe1cb33afe9c2f" target="_top" xlink:title="return reference to class singleton">
<polygon fill="none" stroke="#000000" points="182.5,-309.5 182.5,-329.5 292.5,-329.5 292.5,-309.5 182.5,-309.5"/>
<text text-anchor="middle" x="237.5" y="-316.5" font-family="FreeSans" font-size="10.00" fill="#000000">PHTFileServer::get</text>
</a>
</g>
</g>
<!-- Node1&#45;&gt;Node10 -->
<g id="edge11" class="edge">
<title>Node1&#45;&gt;Node10</title>
<path fill="none" stroke="#191970" d="M65.9087,-225.856C81.3401,-246.654 110.8909,-282.0706 145,-300.5 153.457,-305.0693 162.8923,-308.5423 172.4142,-311.1814"/>
<polygon fill="#191970" stroke="#191970" points="171.7826,-314.6307 182.331,-313.6407 173.4676,-307.8365 171.7826,-314.6307"/>
</g>
<!-- Node11 -->
<g id="node11" class="node">
<title>Node11</title>
<g id="a_node11"><a xlink:href="../../df/d4d/classPHFieldUtility.html#a3afdd4e878d02b30b6f2c396e52b8e48" target="_top" xlink:title="Get transient PHField from DST nodes. If not found, make a new one based on default_config.">
<polygon fill="none" stroke="#000000" points="172.5,-258.5 172.5,-290.5 302.5,-290.5 302.5,-258.5 172.5,-258.5"/>
<text text-anchor="start" x="180.5" y="-277.5" font-family="FreeSans" font-size="10.00" fill="#000000">PHFieldUtility::GetField</text>
<text text-anchor="middle" x="237.5" y="-265.5" font-family="FreeSans" font-size="10.00" fill="#000000">MapNode</text>
</a>
</g>
</g>
<!-- Node1&#45;&gt;Node11 -->
<g id="edge12" class="edge">
<title>Node1&#45;&gt;Node11</title>
<path fill="none" stroke="#191970" d="M87.533,-225.551C104.467,-233.4055 125.5668,-242.6243 145,-249.5 150.8663,-251.5756 156.9931,-253.5783 163.1791,-255.4853"/>
<polygon fill="#191970" stroke="#191970" points="162.3362,-258.8863 172.9198,-258.3997 164.3427,-252.18 162.3362,-258.8863"/>
</g>
<!-- Node14 -->
<g id="node14" class="node">
<title>Node14</title>
<g id="a_node14"><a xlink:href="../../d1/d35/classPHGenFit_1_1Fitter.html#ad3729fabd2bd8a7feebbd79317b38a77" target="_top" xlink:title="PHGenFit::Fitter::getInstance">
<polygon fill="none" stroke="#000000" points="157,-219.5 157,-239.5 318,-239.5 318,-219.5 157,-219.5"/>
<text text-anchor="middle" x="237.5" y="-226.5" font-family="FreeSans" font-size="10.00" fill="#000000">PHGenFit::Fitter::getInstance</text>
</a>
</g>
</g>
<!-- Node1&#45;&gt;Node14 -->
<g id="edge16" class="edge">
<title>Node1&#45;&gt;Node14</title>
<path fill="none" stroke="#191970" d="M109.406,-215.5007C121.2024,-216.7899 133.9704,-218.1853 146.7197,-219.5787"/>
<polygon fill="#191970" stroke="#191970" points="146.6004,-223.0864 156.9215,-220.6936 147.3609,-216.1278 146.6004,-223.0864"/>
</g>
<!-- Node25 -->
<g id="node25" class="node">
<title>Node25</title>
<g id="a_node25"><a xlink:href="../../d2/da1/classPHGeomUtility.html#aa80925b14430021ea70d0b906af8e885" target="_top" xlink:title="Main user interface: DST node &#45;&gt; TGeoManager for downstream use.">
<polygon fill="none" stroke="#000000" points="145,-51.5 145,-71.5 330,-71.5 330,-51.5 145,-51.5"/>
<text text-anchor="middle" x="237.5" y="-58.5" font-family="FreeSans" font-size="10.00" fill="#000000">PHGeomUtility::GetTGeoManager</text>
</a>
</g>
</g>
<!-- Node1&#45;&gt;Node25 -->
<g id="edge27" class="edge">
<title>Node1&#45;&gt;Node25</title>
<path fill="none" stroke="#191970" d="M61.2296,-193.1769C73.5184,-165.5217 102.3189,-109.7173 145,-81.5 148.3729,-79.2701 151.9521,-77.2841 155.6668,-75.5158"/>
<polygon fill="#191970" stroke="#191970" points="157.2645,-78.6414 165.1392,-71.5534 154.5631,-72.1836 157.2645,-78.6414"/>
</g>
<!-- Node29 -->
<g id="node29" class="node">
<title>Node29</title>
<g id="a_node29"><a xlink:href="../../de/d25/classPHGenFitTrkFitter.html#a67f735f5dcbe7444b69c04cfb6ca26b8" target="_top" xlink:title="PHGenFitTrkFitter::\linit_eval_tree">
<polygon fill="none" stroke="#000000" points="183,-129.5 183,-161.5 292,-161.5 292,-129.5 183,-129.5"/>
<text text-anchor="start" x="191" y="-148.5" font-family="FreeSans" font-size="10.00" fill="#000000">PHGenFitTrkFitter::</text>
<text text-anchor="middle" x="237.5" y="-136.5" font-family="FreeSans" font-size="10.00" fill="#000000">init_eval_tree</text>
</a>
</g>
</g>
<!-- Node1&#45;&gt;Node29 -->
<g id="edge32" class="edge">
<title>Node1&#45;&gt;Node29</title>
<path fill="none" stroke="#191970" d="M97.6884,-193.4897C112.6418,-188.0161 129.53,-181.9117 145,-176.5 156.0047,-172.6503 167.7793,-168.6296 179.114,-164.8081"/>
<polygon fill="#191970" stroke="#191970" points="180.5662,-168.0125 188.9311,-161.5104 178.3371,-161.3769 180.5662,-168.0125"/>
</g>
<!-- Node30 -->
<g id="node30" class="node">
<title>Node30</title>
<g id="a_node30"><a xlink:href="../../d3/d2b/classPHTFileServer.html#aaae99c6748eb17d5f8d7df375bc6d615" target="_top" xlink:title="open a SafeTFile. If filename is not found in the map, create a new TFile and append to the map; incr...">
<polygon fill="none" stroke="#000000" points="178.5,-90.5 178.5,-110.5 296.5,-110.5 296.5,-90.5 178.5,-90.5"/>
<text text-anchor="middle" x="237.5" y="-97.5" font-family="FreeSans" font-size="10.00" fill="#000000">PHTFileServer::open</text>
</a>
</g>
</g>
<!-- Node1&#45;&gt;Node30 -->
<g id="edge33" class="edge">
<title>Node1&#45;&gt;Node30</title>
<path fill="none" stroke="#191970" d="M66.2915,-193.2108C81.9171,-172.8873 111.4527,-138.6093 145,-120.5 152.3781,-116.5172 160.4904,-113.3275 168.7509,-110.773"/>
<polygon fill="#191970" stroke="#191970" points="169.7905,-114.1167 178.481,-108.0566 167.9082,-107.3745 169.7905,-114.1167"/>
</g>
<!-- Node31 -->
<g id="node31" class="node">
<title>Node31</title>
<g id="a_node31"><a xlink:href="../../d1/d35/classPHGenFit_1_1Fitter.html#a7ff3cd73102feae80a130a228939b5c6" target="_top" xlink:title="PHGenFit::Fitter::set\l_verbosity">
<polygon fill="none" stroke="#000000" points="388.5,-125.5 388.5,-157.5 505.5,-157.5 505.5,-125.5 388.5,-125.5"/>
<text text-anchor="start" x="396.5" y="-144.5" font-family="FreeSans" font-size="10.00" fill="#000000">PHGenFit::Fitter::set</text>
<text text-anchor="middle" x="447" y="-132.5" font-family="FreeSans" font-size="10.00" fill="#000000">_verbosity</text>
</a>
</g>
</g>
<!-- Node1&#45;&gt;Node31 -->
<g id="edge34" class="edge">
<title>Node1&#45;&gt;Node31</title>
<path fill="none" stroke="#191970" d="M109.1682,-203.8191C164.9766,-197.585 253.9605,-186.4423 330,-171.5 346.2728,-168.3023 363.6575,-164.2172 379.914,-160.0982"/>
<polygon fill="#191970" stroke="#191970" points="381.0577,-163.418 389.8702,-157.5367 379.3135,-156.6387 381.0577,-163.418"/>
</g>
<!-- Node32 -->
<g id="node32" class="node">
<title>Node32</title>
<g id="a_node32"><a xlink:href="../../d1/d19/classgenfit_1_1GFRaveVertexFactory.html#a405d099f45ba265292a301c29f27d685" target="_top" xlink:title="genfit::GFRaveVertexFactory\l::setMethod">
<polygon fill="none" stroke="#000000" points="157.5,-.5 157.5,-32.5 317.5,-32.5 317.5,-.5 157.5,-.5"/>
<text text-anchor="start" x="165.5" y="-19.5" font-family="FreeSans" font-size="10.00" fill="#000000">genfit::GFRaveVertexFactory</text>
<text text-anchor="middle" x="237.5" y="-7.5" font-family="FreeSans" font-size="10.00" fill="#000000">::setMethod</text>
</a>
</g>
</g>
<!-- Node1&#45;&gt;Node32 -->
<g id="edge36" class="edge">
<title>Node1&#45;&gt;Node32</title>
<path fill="none" stroke="#191970" d="M58.5557,-193.3035C67.8341,-159.6747 93.857,-82.045 145,-41.5 146.6132,-40.2211 148.2865,-39.0075 150.0105,-37.8557"/>
<polygon fill="#191970" stroke="#191970" points="152.14,-40.6651 159.0075,-32.5975 148.6078,-34.6216 152.14,-40.6651"/>
</g>
<!-- Node3 -->
<g id="node3" class="node">
<title>Node3</title>
<g id="a_node3"><a xlink:href="../../d5/dca/classPHCompositeNode.html#a15a0c4804399a9de4267647f05bd1ba4" target="_top" xlink:title="PHCompositeNode::addNode">
<polygon fill="none" stroke="#000000" points="366,-400.5 366,-420.5 528,-420.5 528,-400.5 366,-400.5"/>
<text text-anchor="middle" x="447" y="-407.5" font-family="FreeSans" font-size="10.00" fill="#000000">PHCompositeNode::addNode</text>
</a>
</g>
</g>
<!-- Node2&#45;&gt;Node3 -->
<g id="edge2" class="edge">
<title>Node2&#45;&gt;Node3</title>
<path fill="none" stroke="#191970" d="M292.27,-384.6501C318.1843,-388.9795 349.429,-394.1994 377.0369,-398.8117"/>
<polygon fill="#191970" stroke="#191970" points="376.587,-402.2849 387.0271,-400.4807 377.7405,-395.3806 376.587,-402.2849"/>
</g>
<!-- Node7 -->
<g id="node7" class="node">
<title>Node7</title>
<g id="a_node7"><a xlink:href="../../d5/d07/classPHNodeIterator.html#aea98bf8619af59b1212a94fb32106baa" target="_top" xlink:title="PHNodeIterator::findFirst">
<polygon fill="none" stroke="#000000" points="376.5,-343.5 376.5,-363.5 517.5,-363.5 517.5,-343.5 376.5,-343.5"/>
<text text-anchor="middle" x="447" y="-350.5" font-family="FreeSans" font-size="10.00" fill="#000000">PHNodeIterator::findFirst</text>
</a>
</g>
</g>
<!-- Node2&#45;&gt;Node7 -->
<g id="edge6" class="edge">
<title>Node2&#45;&gt;Node7</title>
<path fill="none" stroke="#191970" d="M292.27,-369.7485C314.8597,-367.3763 341.5,-364.5788 366.2509,-361.9796"/>
<polygon fill="#191970" stroke="#191970" points="366.7783,-365.4436 376.3581,-360.9182 366.0472,-358.4818 366.7783,-365.4436"/>
</g>
<!-- Node2&#45;&gt;Node9 -->
<g id="edge10" class="edge">
<title>Node2&#45;&gt;Node9</title>
<path fill="none" stroke="#191970" d="M270.7028,-391.608C296.2932,-403.5546 332.8017,-419.5937 366,-430.5 373.0607,-432.8196 380.5553,-434.9743 388.0241,-436.9367"/>
<polygon fill="#191970" stroke="#191970" points="387.2365,-440.3476 397.7892,-439.4034 388.9509,-433.5608 387.2365,-440.3476"/>
</g>
<!-- Node4 -->
<g id="node4" class="node">
<title>Node4</title>
<g id="a_node4"><a xlink:href="../../d6/d86/classPHPointerList.html#ac2176735e9d046a034f1686fd2c477eb" target="_top" xlink:title="PHPointerList::append">
<polygon fill="none" stroke="#000000" points="593,-435.5 593,-455.5 721,-455.5 721,-435.5 593,-435.5"/>
<text text-anchor="middle" x="657" y="-442.5" font-family="FreeSans" font-size="10.00" fill="#000000">PHPointerList::append</text>
</a>
</g>
</g>
<!-- Node3&#45;&gt;Node4 -->
<g id="edge3" class="edge">
<title>Node3&#45;&gt;Node4</title>
<path fill="none" stroke="#191970" d="M507.1776,-420.5296C532.0009,-424.6668 560.9389,-429.4898 586.7274,-433.7879"/>
<polygon fill="#191970" stroke="#191970" points="586.3743,-437.2772 596.8136,-435.4689 587.5251,-430.3725 586.3743,-437.2772"/>
</g>
<!-- Node5 -->
<g id="node5" class="node">
<title>Node5</title>
<g id="a_node5"><a xlink:href="../../dc/d82/classPHNode.html#aca3576f926a4401eddc3d88bf0ce0de3" target="_top" xlink:title="PHNode::getName">
<polygon fill="none" stroke="#000000" points="602.5,-396.5 602.5,-416.5 711.5,-416.5 711.5,-396.5 602.5,-396.5"/>
<text text-anchor="middle" x="657" y="-403.5" font-family="FreeSans" font-size="10.00" fill="#000000">PHNode::getName</text>
</a>
</g>
</g>
<!-- Node3&#45;&gt;Node5 -->
<g id="edge4" class="edge">
<title>Node3&#45;&gt;Node5</title>
<path fill="none" stroke="#191970" d="M528.1915,-408.9535C549.4198,-408.5491 572.0187,-408.1187 592.264,-407.7331"/>
<polygon fill="#191970" stroke="#191970" points="592.3743,-411.2317 602.3058,-407.5418 592.2409,-404.233 592.3743,-411.2317"/>
</g>
<!-- Node6 -->
<g id="node6" class="node">
<title>Node6</title>
<g id="a_node6"><a xlink:href="../../dc/d82/classPHNode.html#adda2bd6cef2d5067bbe3016a990b7198" target="_top" xlink:title="PHNode::setParent">
<polygon fill="none" stroke="#000000" points="601.5,-474.5 601.5,-494.5 712.5,-494.5 712.5,-474.5 601.5,-474.5"/>
<text text-anchor="middle" x="657" y="-481.5" font-family="FreeSans" font-size="10.00" fill="#000000">PHNode::setParent</text>
</a>
</g>
</g>
<!-- Node3&#45;&gt;Node6 -->
<g id="edge5" class="edge">
<title>Node3&#45;&gt;Node6</title>
<path fill="none" stroke="#191970" d="M504.2281,-420.5687C512.4795,-423.1668 520.6544,-426.423 528,-430.5 547.5115,-441.3294 544.273,-455.0683 564,-465.5 572.4335,-469.9596 581.8085,-473.3739 591.2679,-475.9875"/>
<polygon fill="#191970" stroke="#191970" points="590.5718,-479.4209 601.1203,-478.4317 592.2573,-472.6268 590.5718,-479.4209"/>
</g>
<!-- Node7&#45;&gt;Node5 -->
<g id="edge8" class="edge">
<title>Node7&#45;&gt;Node5</title>
<path fill="none" stroke="#191970" d="M479.0893,-363.5891C502.4925,-370.7598 535.0449,-380.3476 564,-387.5 573.7191,-389.9008 584.0625,-392.2321 594.1867,-394.3917"/>
<polygon fill="#191970" stroke="#191970" points="593.7015,-397.8659 604.2066,-396.4903 595.1365,-391.0146 593.7015,-397.8659"/>
</g>
<!-- Node7&#45;&gt;Node7 -->
<g id="edge9" class="edge">
<title>Node7&#45;&gt;Node7</title>
<path fill="none" stroke="#191970" d="M414.6865,-363.5791C399.4632,-372.502 410.2344,-382 447,-382 472.8508,-382 485.8504,-377.3043 485.9987,-371.4146"/>
<polygon fill="#191970" stroke="#191970" points="488.4668,-368.9148 479.3135,-363.5791 483.1416,-373.4583 488.4668,-368.9148"/>
</g>
<!-- Node8 -->
<g id="node8" class="node">
<title>Node8</title>
<g id="a_node8"><a xlink:href="../../dc/d82/classPHNode.html#a4ab1f90aed955a652813bfe377087bda" target="_top" xlink:title="PHNode::getType">
<polygon fill="none" stroke="#000000" points="605.5,-357.5 605.5,-377.5 708.5,-377.5 708.5,-357.5 605.5,-357.5"/>
<text text-anchor="middle" x="657" y="-364.5" font-family="FreeSans" font-size="10.00" fill="#000000">PHNode::getType</text>
</a>
</g>
</g>
<!-- Node7&#45;&gt;Node8 -->
<g id="edge7" class="edge">
<title>Node7&#45;&gt;Node8</title>
<path fill="none" stroke="#191970" d="M517.5112,-358.2007C542.6379,-359.8759 570.7289,-361.7486 595.0801,-363.372"/>
<polygon fill="#191970" stroke="#191970" points="595.0571,-366.8782 605.2678,-364.0512 595.5228,-359.8937 595.0571,-366.8782"/>
</g>
<!-- Node11&#45;&gt;Node7 -->
<g id="edge13" class="edge">
<title>Node11&#45;&gt;Node7</title>
<path fill="none" stroke="#191970" d="M302.8979,-289.4389C312.2181,-292.5488 321.512,-296.2148 330,-300.5 348.0945,-309.6352 348.0227,-319.1362 366,-328.5 374.9084,-333.1401 384.824,-337.083 394.5765,-340.3707"/>
<polygon fill="#191970" stroke="#191970" points="393.641,-343.7458 404.2314,-343.4414 395.7627,-337.0751 393.641,-343.7458"/>
</g>
<!-- Node12 -->
<g id="node12" class="node">
<title>Node12</title>
<g id="a_node12"><a xlink:href="../../da/d29/classFun4AllServer.html#a3e55156f91b2c94bb6c4ef33ffce587a" target="_top" xlink:title="Fun4AllServer::instance">
<polygon fill="none" stroke="#000000" points="379,-259.5 379,-279.5 515,-279.5 515,-259.5 379,-259.5"/>
<text text-anchor="middle" x="447" y="-266.5" font-family="FreeSans" font-size="10.00" fill="#000000">Fun4AllServer::instance</text>
</a>
</g>
</g>
<!-- Node11&#45;&gt;Node12 -->
<g id="edge14" class="edge">
<title>Node11&#45;&gt;Node12</title>
<path fill="none" stroke="#191970" d="M302.6387,-272.9454C323.4811,-272.4479 346.7772,-271.892 368.4699,-271.3742"/>
<polygon fill="#191970" stroke="#191970" points="368.7261,-274.8692 378.6397,-271.1315 368.559,-267.8712 368.7261,-274.8692"/>
</g>
<!-- Node13 -->
<g id="node13" class="node">
<title>Node13</title>
<g id="a_node13"><a xlink:href="../../da/d29/classFun4AllServer.html#abcaf6825367e5db292ff795237bdcf62" target="_top" xlink:title="Fun4AllServer::topNode">
<polygon fill="none" stroke="#000000" points="379,-298.5 379,-318.5 515,-318.5 515,-298.5 379,-298.5"/>
<text text-anchor="middle" x="447" y="-305.5" font-family="FreeSans" font-size="10.00" fill="#000000">Fun4AllServer::topNode</text>
</a>
</g>
</g>
<!-- Node11&#45;&gt;Node13 -->
<g id="edge15" class="edge">
<title>Node11&#45;&gt;Node13</title>
<path fill="none" stroke="#191970" d="M302.6387,-285.0714C325.6559,-288.8069 351.6655,-293.028 375.2034,-296.848"/>
<polygon fill="#191970" stroke="#191970" points="374.6922,-300.3108 385.1238,-298.458 375.8137,-293.4012 374.6922,-300.3108"/>
</g>
<!-- Node15 -->
<g id="node15" class="node">
<title>Node15</title>
<g id="a_node15"><a xlink:href="../../d1/d35/classPHGenFit_1_1Fitter.html#ab245e2833a4d6880cc1c836bc46389b2" target="_top" xlink:title="Default constructor.">
<polygon fill="none" stroke="#000000" points="383,-210.5 383,-230.5 511,-230.5 511,-210.5 383,-210.5"/>
<text text-anchor="middle" x="447" y="-217.5" font-family="FreeSans" font-size="10.00" fill="#000000">PHGenFit::Fitter::Fitter</text>
</a>
</g>
</g>
<!-- Node14&#45;&gt;Node15 -->
<g id="edge17" class="edge">
<title>Node14&#45;&gt;Node15</title>
<path fill="none" stroke="#191970" d="M318.1985,-226.0332C336.1208,-225.2633 355.0361,-224.4507 372.6885,-223.6924"/>
<polygon fill="#191970" stroke="#191970" points="373.0784,-227.179 382.9189,-223.2529 372.7779,-220.1854 373.0784,-227.179"/>
</g>
<!-- Node16 -->
<g id="node16" class="node">
<title>Node16</title>
<g id="a_node16"><a xlink:href="../../de/d8e/classgenfit_1_1FieldManager.html#aaf0b56fea4f0deb428de8749febf792d" target="_top" xlink:title="Get singleton instance.">
<polygon fill="none" stroke="#000000" points="596.5,-255.5 596.5,-287.5 717.5,-287.5 717.5,-255.5 596.5,-255.5"/>
<text text-anchor="start" x="604.5" y="-274.5" font-family="FreeSans" font-size="10.00" fill="#000000">genfit::FieldManager</text>
<text text-anchor="middle" x="657" y="-262.5" font-family="FreeSans" font-size="10.00" fill="#000000">::getInstance</text>
</a>
</g>
</g>
<!-- Node15&#45;&gt;Node16 -->
<g id="edge18" class="edge">
<title>Node15&#45;&gt;Node16</title>
<path fill="none" stroke="#191970" d="M488.2387,-230.5151C516.1672,-237.2978 553.7818,-246.4327 586.4115,-254.3571"/>
<polygon fill="#191970" stroke="#191970" points="585.8181,-257.8146 596.3617,-256.7736 587.4702,-251.0124 585.8181,-257.8146"/>
</g>
<!-- Node18 -->
<g id="node18" class="node">
<title>Node18</title>
<g id="a_node18"><a xlink:href="../../de/d8e/classgenfit_1_1FieldManager.html#a0360198b189d2d5acaebfca7a468437e" target="_top" xlink:title="set the magnetic field here. Magnetic field classes must be derived from AbsBField.">
<polygon fill="none" stroke="#000000" points="596.5,-204.5 596.5,-236.5 717.5,-236.5 717.5,-204.5 596.5,-204.5"/>
<text text-anchor="start" x="604.5" y="-223.5" font-family="FreeSans" font-size="10.00" fill="#000000">genfit::FieldManager</text>
<text text-anchor="middle" x="657" y="-211.5" font-family="FreeSans" font-size="10.00" fill="#000000">::init</text>
</a>
</g>
</g>
<!-- Node15&#45;&gt;Node18 -->
<g id="edge20" class="edge">
<title>Node15&#45;&gt;Node18</title>
<path fill="none" stroke="#191970" d="M511.148,-220.5C534.8949,-220.5 561.9447,-220.5 586.2461,-220.5"/>
<polygon fill="#191970" stroke="#191970" points="586.4751,-224.0001 596.475,-220.5 586.475,-217.0001 586.4751,-224.0001"/>
</g>
<!-- Node19 -->
<g id="node19" class="node">
<title>Node19</title>
<g id="a_node19"><a xlink:href="../../d1/d34/classgenfit_1_1MaterialEffects.html#a15a93d367165ade368e6caec713d0934" target="_top" xlink:title="genfit::MaterialEffects\l::getInstance">
<polygon fill="none" stroke="#000000" points="593,-153.5 593,-185.5 721,-185.5 721,-153.5 593,-153.5"/>
<text text-anchor="start" x="601" y="-172.5" font-family="FreeSans" font-size="10.00" fill="#000000">genfit::MaterialEffects</text>
<text text-anchor="middle" x="657" y="-160.5" font-family="FreeSans" font-size="10.00" fill="#000000">::getInstance</text>
</a>
</g>
</g>
<!-- Node15&#45;&gt;Node19 -->
<g id="edge21" class="edge">
<title>Node15&#45;&gt;Node19</title>
<path fill="none" stroke="#191970" d="M488.2387,-210.4849C515.193,-203.9389 551.1693,-195.2017 582.9792,-187.4765"/>
<polygon fill="#191970" stroke="#191970" points="583.8113,-190.8762 592.7029,-185.115 582.1593,-184.0739 583.8113,-190.8762"/>
</g>
<!-- Node21 -->
<g id="node21" class="node">
<title>Node21</title>
<g id="a_node21"><a xlink:href="../../d1/d34/classgenfit_1_1MaterialEffects.html#a9c604002cb66d43e99da8802e3b8918e" target="_top" xlink:title="set the material interface here. Material interface classes must be derived from AbsMaterialInterface...">
<polygon fill="none" stroke="#000000" points="593,-102.5 593,-134.5 721,-134.5 721,-102.5 593,-102.5"/>
<text text-anchor="start" x="601" y="-121.5" font-family="FreeSans" font-size="10.00" fill="#000000">genfit::MaterialEffects</text>
<text text-anchor="middle" x="657" y="-109.5" font-family="FreeSans" font-size="10.00" fill="#000000">::init</text>
</a>
</g>
</g>
<!-- Node15&#45;&gt;Node21 -->
<g id="edge23" class="edge">
<title>Node15&#45;&gt;Node21</title>
<path fill="none" stroke="#191970" d="M462.3461,-210.446C493.4624,-190.0715 561.2822,-145.7279 564,-144.5 570.0563,-141.7638 576.4669,-139.2516 582.9769,-136.9596"/>
<polygon fill="#191970" stroke="#191970" points="584.1809,-140.2476 592.5562,-133.7586 581.9624,-133.6084 584.1809,-140.2476"/>
</g>
<!-- Node22 -->
<g id="node22" class="node">
<title>Node22</title>
<g id="a_node22"><a xlink:href="../../d4/d1a/classgenfit_1_1EventDisplay.html#acc398c4fb9fce23fbc106453d5a55718" target="_top" xlink:title="genfit::EventDisplay\l::getInstance">
<polygon fill="none" stroke="#000000" points="597.5,-306.5 597.5,-338.5 716.5,-338.5 716.5,-306.5 597.5,-306.5"/>
<text text-anchor="start" x="605.5" y="-325.5" font-family="FreeSans" font-size="10.00" fill="#000000">genfit::EventDisplay</text>
<text text-anchor="middle" x="657" y="-313.5" font-family="FreeSans" font-size="10.00" fill="#000000">::getInstance</text>
</a>
</g>
</g>
<!-- Node15&#45;&gt;Node22 -->
<g id="edge24" class="edge">
<title>Node15&#45;&gt;Node22</title>
<path fill="none" stroke="#191970" d="M487.5513,-230.5613C501.2364,-235.1982 516.0561,-241.6825 528,-250.5 549.1688,-266.1277 542.1342,-282.8633 564,-297.5 571.2681,-302.3652 579.4492,-306.2859 587.8667,-309.4451"/>
<polygon fill="#191970" stroke="#191970" points="586.8402,-312.7928 597.4346,-312.698 589.0935,-306.1653 586.8402,-312.7928"/>
</g>
<!-- Node24 -->
<g id="node24" class="node">
<title>Node24</title>
<g id="a_node24"><a xlink:href="../../d8/db3/classgenfit_1_1Exception.html#adc12ce3fb68f9869627e0551a5a7822c" target="_top" xlink:title="&quot;std::cerr &lt;&lt; e.what();&quot; will not write anything.">
<polygon fill="none" stroke="#000000" points="603,-51.5 603,-83.5 711,-83.5 711,-51.5 603,-51.5"/>
<text text-anchor="start" x="611" y="-70.5" font-family="FreeSans" font-size="10.00" fill="#000000">genfit::Exception::</text>
<text text-anchor="middle" x="657" y="-58.5" font-family="FreeSans" font-size="10.00" fill="#000000">quiet</text>
</a>
</g>
</g>
<!-- Node15&#45;&gt;Node24 -->
<g id="edge26" class="edge">
<title>Node15&#45;&gt;Node24</title>
<path fill="none" stroke="#191970" d="M468.5918,-210.4945C486.3933,-201.3616 511.3388,-186.4168 528,-167.5 552.1738,-140.0536 535.9163,-116.9305 564,-93.5 572.3775,-86.5106 582.5057,-81.3945 592.9531,-77.6511"/>
<polygon fill="#191970" stroke="#191970" points="594.1271,-80.9505 602.5963,-74.5847 592.0058,-74.2796 594.1271,-80.9505"/>
</g>
<!-- Node17 -->
<g id="node17" class="node">
<title>Node17</title>
<g id="a_node17"><a xlink:href="../../de/d8e/classgenfit_1_1FieldManager.html#a01194f10c4efe8d19286492ba01e104e" target="_top" xlink:title="genfit::FieldManager\l::FieldManager">
<polygon fill="none" stroke="#000000" points="789.5,-255.5 789.5,-287.5 910.5,-287.5 910.5,-255.5 789.5,-255.5"/>
<text text-anchor="start" x="797.5" y="-274.5" font-family="FreeSans" font-size="10.00" fill="#000000">genfit::FieldManager</text>
<text text-anchor="middle" x="850" y="-262.5" font-family="FreeSans" font-size="10.00" fill="#000000">::FieldManager</text>
</a>
</g>
</g>
<!-- Node16&#45;&gt;Node17 -->
<g id="edge19" class="edge">
<title>Node16&#45;&gt;Node17</title>
<path fill="none" stroke="#191970" d="M717.5369,-271.5C737.1129,-271.5 758.9931,-271.5 779.2419,-271.5"/>
<polygon fill="#191970" stroke="#191970" points="779.3464,-275.0001 789.3464,-271.5 779.3463,-268.0001 779.3464,-275.0001"/>
</g>
<!-- Node20 -->
<g id="node20" class="node">
<title>Node20</title>
<g id="a_node20"><a xlink:href="../../d1/d34/classgenfit_1_1MaterialEffects.html#a0cab227e2f45bd20ba63cf1b2ad260be" target="_top" xlink:title="genfit::MaterialEffects\l::MaterialEffects">
<polygon fill="none" stroke="#000000" points="786,-153.5 786,-185.5 914,-185.5 914,-153.5 786,-153.5"/>
<text text-anchor="start" x="794" y="-172.5" font-family="FreeSans" font-size="10.00" fill="#000000">genfit::MaterialEffects</text>
<text text-anchor="middle" x="850" y="-160.5" font-family="FreeSans" font-size="10.00" fill="#000000">::MaterialEffects</text>
</a>
</g>
</g>
<!-- Node19&#45;&gt;Node20 -->
<g id="edge22" class="edge">
<title>Node19&#45;&gt;Node20</title>
<path fill="none" stroke="#191970" d="M721.2662,-169.5C738.6719,-169.5 757.6584,-169.5 775.5725,-169.5"/>
<polygon fill="#191970" stroke="#191970" points="775.6856,-173.0001 785.6856,-169.5 775.6856,-166.0001 775.6856,-173.0001"/>
</g>
<!-- Node23 -->
<g id="node23" class="node">
<title>Node23</title>
<g id="a_node23"><a xlink:href="../../d4/d1a/classgenfit_1_1EventDisplay.html#a3aa96da8f0486f3420b620cebb6b9f00" target="_top" xlink:title="genfit::EventDisplay\l::EventDisplay">
<polygon fill="none" stroke="#000000" points="790.5,-306.5 790.5,-338.5 909.5,-338.5 909.5,-306.5 790.5,-306.5"/>
<text text-anchor="start" x="798.5" y="-325.5" font-family="FreeSans" font-size="10.00" fill="#000000">genfit::EventDisplay</text>
<text text-anchor="middle" x="850" y="-313.5" font-family="FreeSans" font-size="10.00" fill="#000000">::EventDisplay</text>
</a>
</g>
</g>
<!-- Node22&#45;&gt;Node23 -->
<g id="edge25" class="edge">
<title>Node22&#45;&gt;Node23</title>
<path fill="none" stroke="#191970" d="M716.7447,-322.5C736.819,-322.5 759.3882,-322.5 780.1673,-322.5"/>
<polygon fill="#191970" stroke="#191970" points="780.2054,-326.0001 790.2054,-322.5 780.2053,-319.0001 780.2054,-326.0001"/>
</g>
<!-- Node26 -->
<g id="node26" class="node">
<title>Node26</title>
<g id="a_node26"><a xlink:href="../../d7/d6d/classPHGeomTGeo.html#a69190f7dbaee394d90516bce19e224a0" target="_top" xlink:title="isValid returns non zero if object contains vailid data">
<polygon fill="none" stroke="#000000" points="384,-51.5 384,-71.5 510,-71.5 510,-51.5 384,-51.5"/>
<text text-anchor="middle" x="447" y="-58.5" font-family="FreeSans" font-size="10.00" fill="#000000">PHGeomTGeo::isValid</text>
</a>
</g>
</g>
<!-- Node25&#45;&gt;Node26 -->
<g id="edge28" class="edge">
<title>Node25&#45;&gt;Node26</title>
<path fill="none" stroke="#191970" d="M330.3046,-61.5C344.8365,-61.5 359.679,-61.5 373.6938,-61.5"/>
<polygon fill="#191970" stroke="#191970" points="373.7363,-65.0001 383.7363,-61.5 373.7362,-58.0001 373.7363,-65.0001"/>
</g>
<!-- Node28 -->
<g id="node28" class="node">
<title>Node28</title>
<g id="a_node28"><a xlink:href="../../d7/d6d/classPHGeomTGeo.html#a3e111f6229f7ce6392b14a98fdf5bea9" target="_top" xlink:title="PHGeomTGeo::GetGeometry">
<polygon fill="none" stroke="#000000" points="366,-12.5 366,-32.5 528,-32.5 528,-12.5 366,-12.5"/>
<text text-anchor="middle" x="447" y="-19.5" font-family="FreeSans" font-size="10.00" fill="#000000">PHGeomTGeo::GetGeometry</text>
</a>
</g>
</g>
<!-- Node25&#45;&gt;Node28 -->
<g id="edge30" class="edge">
<title>Node25&#45;&gt;Node28</title>
<path fill="none" stroke="#191970" d="M291.4515,-51.4565C319.4316,-46.2478 353.7922,-39.8513 383.0959,-34.3962"/>
<polygon fill="#191970" stroke="#191970" points="384.0408,-37.7805 393.2314,-32.5094 382.7597,-30.8988 384.0408,-37.7805"/>
</g>
<!-- Node27 -->
<g id="node27" class="node">
<title>Node27</title>
<g id="a_node27"><a xlink:href="../../d7/d6d/classPHGeomTGeo.html#af37739b87530fe2bbd5d8d03098c1821" target="_top" xlink:title="PHGeomTGeo::ConsistencyCheck">
<polygon fill="none" stroke="#000000" points="564,-12.5 564,-32.5 750,-32.5 750,-12.5 564,-12.5"/>
<text text-anchor="middle" x="657" y="-19.5" font-family="FreeSans" font-size="10.00" fill="#000000">PHGeomTGeo::ConsistencyCheck</text>
</a>
</g>
</g>
<!-- Node26&#45;&gt;Node27 -->
<g id="edge29" class="edge">
<title>Node26&#45;&gt;Node27</title>
<path fill="none" stroke="#191970" d="M501.0802,-51.4565C529.1272,-46.2478 563.5697,-39.8513 592.9434,-34.3962"/>
<polygon fill="#191970" stroke="#191970" points="593.9103,-37.7766 603.103,-32.5094 592.6321,-30.8943 593.9103,-37.7766"/>
</g>
<!-- Node28&#45;&gt;Node27 -->
<g id="edge31" class="edge">
<title>Node28&#45;&gt;Node27</title>
<path fill="none" stroke="#191970" d="M528.1915,-22.5C536.5701,-22.5 545.1622,-22.5 553.7389,-22.5"/>
<polygon fill="#191970" stroke="#191970" points="553.7863,-26.0001 563.7863,-22.5 553.7863,-19.0001 553.7863,-26.0001"/>
</g>
<!-- Node31&#45;&gt;Node24 -->
<g id="edge35" class="edge">
<title>Node31&#45;&gt;Node24</title>
<path fill="none" stroke="#191970" d="M482.9485,-125.4771C505.8829,-115.5741 536.384,-102.9889 564,-93.5 573.2752,-90.313 583.1678,-87.2249 592.9112,-84.3568"/>
<polygon fill="#191970" stroke="#191970" points="593.9396,-87.703 602.5765,-81.5666 591.9981,-80.9776 593.9396,-87.703"/>
</g>
</g>
</svg>
