<?xml version="1.0" encoding="UTF-8" standalone="no"?>
<!DOCTYPE svg PUBLIC "-//W3C//DTD SVG 1.1//EN"
 "http://www.w3.org/Graphics/SVG/1.1/DTD/svg11.dtd">
<!-- Generated by graphviz version 2.40.1 (20161225.0304)
 -->
<!-- Title: KFParticle::GetDStoPoint Pages: 1 -->
<svg width="798pt" height="99pt"
 viewBox="0.00 0.00 798.00 99.09" xmlns="http://www.w3.org/2000/svg" xmlns:xlink="http://www.w3.org/1999/xlink">
<g id="graph0" class="graph" transform="scale(1 1) rotate(0) translate(4 95.0881)">
<title>KFParticle::GetDStoPoint</title>
<!-- Node1 -->
<g id="node1" class="node">
<title>Node1</title>
<polygon fill="#bfbfbf" stroke="#000000" points="0,-67.5 0,-87.5 140,-87.5 140,-67.5 0,-67.5"/>
<text text-anchor="middle" x="70" y="-74.5" font-family="FreeSans" font-size="10.00" fill="#000000">KFParticle::GetDStoPoint</text>
</g>
<!-- Node2 -->
<g id="node2" class="node">
<title>Node2</title>
<g id="a_node2"><a xlink:href="../../d5/d41/classKFParticleBase.html#a48dbab072b105b06db195d68a88a869c" target="_top" xlink:title="KFParticleBase::GetDStoPointBz">
<polygon fill="none" stroke="#000000" points="613,-45.5 613,-65.5 790,-65.5 790,-45.5 613,-45.5"/>
<text text-anchor="middle" x="701.5" y="-52.5" font-family="FreeSans" font-size="10.00" fill="#000000">KFParticleBase::GetDStoPointBz</text>
</a>
</g>
</g>
<!-- Node1&#45;&gt;Node2 -->
<g id="edge1" class="edge">
<title>Node1&#45;&gt;Node2</title>
<path fill="none" stroke="#191970" d="M140.3551,-82.954C238.4654,-89.446 421.8041,-97.5323 577,-81.5 602.6378,-78.8515 630.7797,-73.2128 653.8119,-67.8613"/>
<polygon fill="#191970" stroke="#191970" points="654.7579,-71.2341 663.6766,-65.5151 653.1381,-64.424 654.7579,-71.2341"/>
</g>
<!-- Node3 -->
<g id="node3" class="node">
<title>Node3</title>
<g id="a_node3"><a xlink:href="../../d5/d41/classKFParticleBase.html#afe8330eb2ff5650fbf71c42da09cb899" target="_top" xlink:title="KFParticleBase::GetDStoPointCBM">
<polygon fill="none" stroke="#000000" points="176,-45.5 176,-65.5 363,-65.5 363,-45.5 176,-45.5"/>
<text text-anchor="middle" x="269.5" y="-52.5" font-family="FreeSans" font-size="10.00" fill="#000000">KFParticleBase::GetDStoPointCBM</text>
</a>
</g>
</g>
<!-- Node1&#45;&gt;Node3 -->
<g id="edge2" class="edge">
<title>Node1&#45;&gt;Node3</title>
<path fill="none" stroke="#191970" d="M140.0557,-69.7746C149.3051,-68.7546 158.9293,-67.6933 168.5682,-66.6303"/>
<polygon fill="#191970" stroke="#191970" points="169.0471,-70.0988 178.6032,-65.5237 168.2798,-63.141 169.0471,-70.0988"/>
</g>
<!-- Node4 -->
<g id="node4" class="node">
<title>Node4</title>
<g id="a_node4"><a xlink:href="../../d5/d41/classKFParticleBase.html#a54fa32dca24a267d19ac11875a650f96" target="_top" xlink:title="KFParticleBase::GetField\lValue">
<polygon fill="none" stroke="#000000" points="419,-39.5 419,-71.5 557,-71.5 557,-39.5 419,-39.5"/>
<text text-anchor="start" x="427" y="-58.5" font-family="FreeSans" font-size="10.00" fill="#000000">KFParticleBase::GetField</text>
<text text-anchor="middle" x="488" y="-46.5" font-family="FreeSans" font-size="10.00" fill="#000000">Value</text>
</a>
</g>
</g>
<!-- Node3&#45;&gt;Node4 -->
<g id="edge3" class="edge">
<title>Node3&#45;&gt;Node4</title>
<path fill="none" stroke="#191970" d="M363.1145,-55.5C378.2664,-55.5 393.8281,-55.5 408.601,-55.5"/>
<polygon fill="#191970" stroke="#191970" points="408.6876,-59.0001 418.6876,-55.5 408.6876,-52.0001 408.6876,-59.0001"/>
</g>
<!-- Node5 -->
<g id="node5" class="node">
<title>Node5</title>
<g id="a_node5"><a xlink:href="../../d5/d41/classKFParticleBase.html#af9764a6d434abc765bbd3721b829f173" target="_top" xlink:title="KFParticleBase::GetDStoPointBy">
<polygon fill="none" stroke="#000000" points="399,-.5 399,-20.5 577,-20.5 577,-.5 399,-.5"/>
<text text-anchor="middle" x="488" y="-7.5" font-family="FreeSans" font-size="10.00" fill="#000000">KFParticleBase::GetDStoPointBy</text>
</a>
</g>
</g>
<!-- Node3&#45;&gt;Node5 -->
<g id="edge4" class="edge">
<title>Node3&#45;&gt;Node5</title>
<path fill="none" stroke="#191970" d="M318.2637,-45.4571C351.1181,-38.6908 394.6293,-29.7297 429.3718,-22.5745"/>
<polygon fill="#191970" stroke="#191970" points="430.2969,-25.9575 439.3853,-20.5122 428.8849,-19.1014 430.2969,-25.9575"/>
</g>
<!-- Node5&#45;&gt;Node2 -->
<g id="edge5" class="edge">
<title>Node5&#45;&gt;Node2</title>
<path fill="none" stroke="#191970" d="M535.6478,-20.5429C567.6126,-27.2802 609.9012,-36.1935 643.7758,-43.3333"/>
<polygon fill="#191970" stroke="#191970" points="643.4909,-46.8501 653.9978,-45.4878 644.9347,-40.0006 643.4909,-46.8501"/>
</g>
</g>
</svg>
