<?xml version="1.0" encoding="UTF-8" standalone="no"?>
<!DOCTYPE svg PUBLIC "-//W3C//DTD SVG 1.1//EN"
 "http://www.w3.org/Graphics/SVG/1.1/DTD/svg11.dtd">
<!-- Generated by graphviz version 2.40.1 (20161225.0304)
 -->
<!-- Title: KFParticle::GetAngle Pages: 1 -->
<svg width="1235pt" height="230pt"
 viewBox="0.00 0.00 1235.00 230.48" xmlns="http://www.w3.org/2000/svg" xmlns:xlink="http://www.w3.org/1999/xlink">
<g id="graph0" class="graph" transform="scale(1 1) rotate(0) translate(4 226.4784)">
<title>KFParticle::GetAngle</title>
<!-- Node1 -->
<g id="node1" class="node">
<title>Node1</title>
<polygon fill="#bfbfbf" stroke="#000000" points="0,-103.5 0,-123.5 119,-123.5 119,-103.5 0,-103.5"/>
<text text-anchor="middle" x="59.5" y="-110.5" font-family="FreeSans" font-size="10.00" fill="#000000">KFParticle::GetAngle</text>
</g>
<!-- Node2 -->
<g id="node2" class="node">
<title>Node2</title>
<g id="a_node2"><a xlink:href="../../d0/d49/classKFParticle.html#a1dfa2f6c4ec75c76a1b2aae35c05cae7" target="_top" xlink:title="KFParticle::GetDStoParticle">
<polygon fill="none" stroke="#000000" points="155,-148.5 155,-168.5 307,-168.5 307,-148.5 155,-148.5"/>
<text text-anchor="middle" x="231" y="-155.5" font-family="FreeSans" font-size="10.00" fill="#000000">KFParticle::GetDStoParticle</text>
</a>
</g>
</g>
<!-- Node1&#45;&gt;Node2 -->
<g id="edge1" class="edge">
<title>Node1&#45;&gt;Node2</title>
<path fill="none" stroke="#191970" d="M97.9879,-123.5989C123.033,-130.1705 155.9005,-138.7946 182.6968,-145.8257"/>
<polygon fill="#191970" stroke="#191970" points="182.0796,-149.2822 192.6405,-148.4348 183.8563,-142.5114 182.0796,-149.2822"/>
</g>
<!-- Node8 -->
<g id="node8" class="node">
<title>Node8</title>
<g id="a_node8"><a xlink:href="../../d0/d49/classKFParticle.html#a7cc5d1b90ec1fda7fd4b98fe1e049f36" target="_top" xlink:title="KFParticle::Transport">
<polygon fill="none" stroke="#000000" points="170.5,-58.5 170.5,-78.5 291.5,-78.5 291.5,-58.5 170.5,-58.5"/>
<text text-anchor="middle" x="231" y="-65.5" font-family="FreeSans" font-size="10.00" fill="#000000">KFParticle::Transport</text>
</a>
</g>
</g>
<!-- Node1&#45;&gt;Node8 -->
<g id="edge9" class="edge">
<title>Node1&#45;&gt;Node8</title>
<path fill="none" stroke="#191970" d="M97.9879,-103.4011C123.033,-96.8295 155.9005,-88.2054 182.6968,-81.1743"/>
<polygon fill="#191970" stroke="#191970" points="183.8563,-84.4886 192.6405,-78.5652 182.0796,-77.7178 183.8563,-84.4886"/>
</g>
<!-- Node3 -->
<g id="node3" class="node">
<title>Node3</title>
<g id="a_node3"><a xlink:href="../../d5/d41/classKFParticleBase.html#a343a7ca2599d39eb390e3ecdfda79fe9" target="_top" xlink:title="KFParticleBase::GetDStoParticleBz">
<polygon fill="none" stroke="#000000" points="804,-187.5 804,-207.5 993,-207.5 993,-187.5 804,-187.5"/>
<text text-anchor="middle" x="898.5" y="-194.5" font-family="FreeSans" font-size="10.00" fill="#000000">KFParticleBase::GetDStoParticleBz</text>
</a>
</g>
</g>
<!-- Node2&#45;&gt;Node3 -->
<g id="edge2" class="edge">
<title>Node2&#45;&gt;Node3</title>
<path fill="none" stroke="#191970" d="M286.2343,-168.5018C304.3168,-171.7391 324.5079,-175.3146 343,-178.5 529.9294,-210.7001 578.8656,-231.9089 768,-217.5 790.0975,-215.8165 814.1185,-212.5518 835.458,-209.1403"/>
<polygon fill="#191970" stroke="#191970" points="836.0746,-212.5861 845.3766,-207.5142 834.942,-205.6783 836.0746,-212.5861"/>
</g>
<!-- Node5 -->
<g id="node5" class="node">
<title>Node5</title>
<g id="a_node5"><a xlink:href="../../d5/d41/classKFParticleBase.html#a8a48edc283143f590c86a970c5df5d5c" target="_top" xlink:title="KFParticleBase::GetDStoParticleCBM">
<polygon fill="none" stroke="#000000" points="343,-148.5 343,-168.5 542,-168.5 542,-148.5 343,-148.5"/>
<text text-anchor="middle" x="442.5" y="-155.5" font-family="FreeSans" font-size="10.00" fill="#000000">KFParticleBase::GetDStoParticleCBM</text>
</a>
</g>
</g>
<!-- Node2&#45;&gt;Node5 -->
<g id="edge4" class="edge">
<title>Node2&#45;&gt;Node5</title>
<path fill="none" stroke="#191970" d="M307.0575,-158.5C315.3993,-158.5 324.0093,-158.5 332.6558,-158.5"/>
<polygon fill="#191970" stroke="#191970" points="332.809,-162.0001 342.809,-158.5 332.809,-155.0001 332.809,-162.0001"/>
</g>
<!-- Node4 -->
<g id="node4" class="node">
<title>Node4</title>
<g id="a_node4"><a xlink:href="../../d5/d41/classKFParticleBase.html#a7d14ee08adf1bf707aa3e682f1d7b8d7" target="_top" xlink:title="KFParticleBase::GetDStoParticleLine">
<polygon fill="none" stroke="#000000" points="1029,-167.5 1029,-187.5 1227,-187.5 1227,-167.5 1029,-167.5"/>
<text text-anchor="middle" x="1128" y="-174.5" font-family="FreeSans" font-size="10.00" fill="#000000">KFParticleBase::GetDStoParticleLine</text>
</a>
</g>
</g>
<!-- Node3&#45;&gt;Node4 -->
<g id="edge3" class="edge">
<title>Node3&#45;&gt;Node4</title>
<path fill="none" stroke="#191970" d="M993.1714,-189.2498C1001.6024,-188.515 1010.1825,-187.7673 1018.7222,-187.0231"/>
<polygon fill="#191970" stroke="#191970" points="1019.0587,-190.5072 1028.717,-186.1521 1018.4509,-183.5336 1019.0587,-190.5072"/>
</g>
<!-- Node5&#45;&gt;Node4 -->
<g id="edge6" class="edge">
<title>Node5&#45;&gt;Node4</title>
<path fill="none" stroke="#191970" d="M542.1776,-161.2628C669.0247,-164.7786 887.3833,-170.8308 1018.6777,-174.4699"/>
<polygon fill="#191970" stroke="#191970" points="1018.6656,-177.9708 1028.7588,-174.7493 1018.8596,-170.9735 1018.6656,-177.9708"/>
</g>
<!-- Node6 -->
<g id="node6" class="node">
<title>Node6</title>
<g id="a_node6"><a xlink:href="../../d5/d41/classKFParticleBase.html#a54fa32dca24a267d19ac11875a650f96" target="_top" xlink:title="KFParticleBase::GetField\lValue">
<polygon fill="none" stroke="#000000" points="604,-97.5 604,-129.5 742,-129.5 742,-97.5 604,-97.5"/>
<text text-anchor="start" x="612" y="-116.5" font-family="FreeSans" font-size="10.00" fill="#000000">KFParticleBase::GetField</text>
<text text-anchor="middle" x="673" y="-104.5" font-family="FreeSans" font-size="10.00" fill="#000000">Value</text>
</a>
</g>
</g>
<!-- Node5&#45;&gt;Node6 -->
<g id="edge5" class="edge">
<title>Node5&#45;&gt;Node6</title>
<path fill="none" stroke="#191970" d="M493.9418,-148.4571C523.2813,-142.7292 560.677,-135.4286 593.6976,-128.982"/>
<polygon fill="#191970" stroke="#191970" points="594.6471,-132.3628 603.7911,-127.0115 593.3058,-125.4925 594.6471,-132.3628"/>
</g>
<!-- Node7 -->
<g id="node7" class="node">
<title>Node7</title>
<g id="a_node7"><a xlink:href="../../d5/d41/classKFParticleBase.html#adc56a774e8b806e9d7f0202d66d9e706" target="_top" xlink:title="KFParticleBase::GetDStoParticleBy">
<polygon fill="none" stroke="#000000" points="578,-187.5 578,-207.5 768,-207.5 768,-187.5 578,-187.5"/>
<text text-anchor="middle" x="673" y="-194.5" font-family="FreeSans" font-size="10.00" fill="#000000">KFParticleBase::GetDStoParticleBy</text>
</a>
</g>
</g>
<!-- Node5&#45;&gt;Node7 -->
<g id="edge7" class="edge">
<title>Node5&#45;&gt;Node7</title>
<path fill="none" stroke="#191970" d="M501.8595,-168.5435C533.0477,-173.8204 571.4409,-180.3165 603.9545,-185.8177"/>
<polygon fill="#191970" stroke="#191970" points="603.3979,-189.2732 613.8417,-187.4906 604.5657,-182.3713 603.3979,-189.2732"/>
</g>
<!-- Node7&#45;&gt;Node3 -->
<g id="edge8" class="edge">
<title>Node7&#45;&gt;Node3</title>
<path fill="none" stroke="#191970" d="M768.3055,-197.5C776.6802,-197.5 785.1866,-197.5 793.6337,-197.5"/>
<polygon fill="#191970" stroke="#191970" points="793.8951,-201.0001 803.895,-197.5 793.895,-194.0001 793.8951,-201.0001"/>
</g>
<!-- Node9 -->
<g id="node9" class="node">
<title>Node9</title>
<g id="a_node9"><a xlink:href="../../d5/d41/classKFParticleBase.html#a016340d0adad367ab749998e4c3ada37" target="_top" xlink:title="KFParticleBase::TransportBz">
<polygon fill="none" stroke="#000000" points="364,-.5 364,-20.5 521,-20.5 521,-.5 364,-.5"/>
<text text-anchor="middle" x="442.5" y="-7.5" font-family="FreeSans" font-size="10.00" fill="#000000">KFParticleBase::TransportBz</text>
</a>
</g>
</g>
<!-- Node8&#45;&gt;Node9 -->
<g id="edge10" class="edge">
<title>Node8&#45;&gt;Node9</title>
<path fill="none" stroke="#191970" d="M267.8405,-58.3972C303.3669,-48.6547 357.2712,-33.8724 395.793,-23.3085"/>
<polygon fill="#191970" stroke="#191970" points="397.0092,-26.6043 405.7275,-20.5842 395.1579,-19.8536 397.0092,-26.6043"/>
</g>
<!-- Node11 -->
<g id="node11" class="node">
<title>Node11</title>
<g id="a_node11"><a xlink:href="../../d5/d41/classKFParticleBase.html#a66cf5f3b5d7c53aee08a3845b35b5d56" target="_top" xlink:title="KFParticleBase::TransportCBM">
<polygon fill="none" stroke="#000000" points="359,-58.5 359,-78.5 526,-78.5 526,-58.5 359,-58.5"/>
<text text-anchor="middle" x="442.5" y="-65.5" font-family="FreeSans" font-size="10.00" fill="#000000">KFParticleBase::TransportCBM</text>
</a>
</g>
</g>
<!-- Node8&#45;&gt;Node11 -->
<g id="edge12" class="edge">
<title>Node8&#45;&gt;Node11</title>
<path fill="none" stroke="#191970" d="M291.6074,-68.5C309.3823,-68.5 329.252,-68.5 348.5871,-68.5"/>
<polygon fill="#191970" stroke="#191970" points="348.6355,-72.0001 358.6355,-68.5 348.6355,-65.0001 348.6355,-72.0001"/>
</g>
<!-- Node10 -->
<g id="node10" class="node">
<title>Node10</title>
<g id="a_node10"><a xlink:href="../../d5/d41/classKFParticleBase.html#a724258bdfad283642d00e119a74f6335" target="_top" xlink:title="KFParticleBase::MultQSQt">
<polygon fill="none" stroke="#000000" points="825.5,-19.5 825.5,-39.5 971.5,-39.5 971.5,-19.5 825.5,-19.5"/>
<text text-anchor="middle" x="898.5" y="-26.5" font-family="FreeSans" font-size="10.00" fill="#000000">KFParticleBase::MultQSQt</text>
</a>
</g>
</g>
<!-- Node9&#45;&gt;Node10 -->
<g id="edge11" class="edge">
<title>Node9&#45;&gt;Node10</title>
<path fill="none" stroke="#191970" d="M521.224,-6.7812C587.2263,-4.4966 683.9015,-3.0931 768,-9.5 790.0975,-11.1835 814.1185,-14.4482 835.458,-17.8597"/>
<polygon fill="#191970" stroke="#191970" points="834.942,-21.3217 845.3766,-19.4858 836.0746,-14.4139 834.942,-21.3217"/>
</g>
<!-- Node11&#45;&gt;Node6 -->
<g id="edge15" class="edge">
<title>Node11&#45;&gt;Node6</title>
<path fill="none" stroke="#191970" d="M493.9418,-78.5429C523.2813,-84.2708 560.677,-91.5714 593.6976,-98.018"/>
<polygon fill="#191970" stroke="#191970" points="593.3058,-101.5075 603.7911,-99.9885 594.6471,-94.6372 593.3058,-101.5075"/>
</g>
<!-- Node11&#45;&gt;Node10 -->
<g id="edge16" class="edge">
<title>Node11&#45;&gt;Node10</title>
<path fill="none" stroke="#191970" d="M526.2811,-65.2709C592.1145,-62.2706 686.0586,-56.9676 768,-48.5 787.1113,-46.5251 807.7161,-43.8033 826.7816,-41.0365"/>
<polygon fill="#191970" stroke="#191970" points="827.5123,-44.4666 836.8943,-39.5444 826.4905,-37.5416 827.5123,-44.4666"/>
</g>
<!-- Node12 -->
<g id="node12" class="node">
<title>Node12</title>
<g id="a_node12"><a xlink:href="../../d5/d41/classKFParticleBase.html#a55db0b465b2ca16ebf9bba66533810a2" target="_top" xlink:title="KFParticleBase::TransportLine">
<polygon fill="none" stroke="#000000" points="590,-19.5 590,-39.5 756,-39.5 756,-19.5 590,-19.5"/>
<text text-anchor="middle" x="673" y="-26.5" font-family="FreeSans" font-size="10.00" fill="#000000">KFParticleBase::TransportLine</text>
</a>
</g>
</g>
<!-- Node11&#45;&gt;Node12 -->
<g id="edge13" class="edge">
<title>Node11&#45;&gt;Node12</title>
<path fill="none" stroke="#191970" d="M501.8595,-58.4565C533.0477,-53.1796 571.4409,-46.6835 603.9545,-41.1823"/>
<polygon fill="#191970" stroke="#191970" points="604.5657,-44.6287 613.8417,-39.5094 603.3979,-37.7268 604.5657,-44.6287"/>
</g>
<!-- Node12&#45;&gt;Node10 -->
<g id="edge14" class="edge">
<title>Node12&#45;&gt;Node10</title>
<path fill="none" stroke="#191970" d="M756.0072,-29.5C775.2745,-29.5 795.7899,-29.5 815.0751,-29.5"/>
<polygon fill="#191970" stroke="#191970" points="815.3396,-33.0001 825.3395,-29.5 815.3395,-26.0001 815.3396,-33.0001"/>
</g>
</g>
</svg>
