<?xml version="1.0" encoding="UTF-8" standalone="no"?>
<!DOCTYPE svg PUBLIC "-//W3C//DTD SVG 1.1//EN"
 "http://www.w3.org/Graphics/SVG/1.1/DTD/svg11.dtd">
<!-- Generated by graphviz version 2.40.1 (20161225.0304)
 -->
<!-- Title: KFParticle::TransportToParticle Pages: 1 -->
<svg width="1302pt" height="184pt"
 viewBox="0.00 0.00 1302.00 183.66" xmlns="http://www.w3.org/2000/svg" xmlns:xlink="http://www.w3.org/1999/xlink">
<g id="graph0" class="graph" transform="scale(1 1) rotate(0) translate(4 179.656)">
<title>KFParticle::TransportToParticle</title>
<!-- Node1 -->
<g id="node1" class="node">
<title>Node1</title>
<polygon fill="#bfbfbf" stroke="#000000" points="0,-19.5 0,-39.5 168,-39.5 168,-19.5 0,-19.5"/>
<text text-anchor="middle" x="84" y="-26.5" font-family="FreeSans" font-size="10.00" fill="#000000">KFParticle::TransportToParticle</text>
</g>
<!-- Node2 -->
<g id="node2" class="node">
<title>Node2</title>
<g id="a_node2"><a xlink:href="../../d0/d49/classKFParticle.html#a1dfa2f6c4ec75c76a1b2aae35c05cae7" target="_top" xlink:title="KFParticle::GetDStoParticle">
<polygon fill="none" stroke="#000000" points="213,-39.5 213,-59.5 365,-59.5 365,-39.5 213,-39.5"/>
<text text-anchor="middle" x="289" y="-46.5" font-family="FreeSans" font-size="10.00" fill="#000000">KFParticle::GetDStoParticle</text>
</a>
</g>
</g>
<!-- Node1&#45;&gt;Node2 -->
<g id="edge1" class="edge">
<title>Node1&#45;&gt;Node2</title>
<path fill="none" stroke="#191970" d="M168.2688,-37.7213C179.7142,-38.838 191.4729,-39.9852 202.9492,-41.1048"/>
<polygon fill="#191970" stroke="#191970" points="202.654,-44.5925 212.9466,-42.0802 203.3338,-37.6256 202.654,-44.5925"/>
</g>
<!-- Node8 -->
<g id="node8" class="node">
<title>Node8</title>
<g id="a_node8"><a xlink:href="../../d5/d41/classKFParticleBase.html#a0048b51a7253c7ac3af2c3c539f57cc7" target="_top" xlink:title="KFParticleBase::TransportToDS">
<polygon fill="none" stroke="#000000" points="204,-.5 204,-20.5 374,-20.5 374,-.5 204,-.5"/>
<text text-anchor="middle" x="289" y="-7.5" font-family="FreeSans" font-size="10.00" fill="#000000">KFParticleBase::TransportToDS</text>
</a>
</g>
</g>
<!-- Node1&#45;&gt;Node8 -->
<g id="edge9" class="edge">
<title>Node1&#45;&gt;Node8</title>
<path fill="none" stroke="#191970" d="M168.2688,-21.6897C176.591,-20.9184 185.0788,-20.1317 193.5033,-19.3509"/>
<polygon fill="#191970" stroke="#191970" points="194.0982,-22.8109 203.7325,-18.4028 193.4521,-15.8407 194.0982,-22.8109"/>
</g>
<!-- Node3 -->
<g id="node3" class="node">
<title>Node3</title>
<g id="a_node3"><a xlink:href="../../d5/d41/classKFParticleBase.html#a343a7ca2599d39eb390e3ecdfda79fe9" target="_top" xlink:title="KFParticleBase::GetDStoParticleBz">
<polygon fill="none" stroke="#000000" points="871,-129.5 871,-149.5 1060,-149.5 1060,-129.5 871,-129.5"/>
<text text-anchor="middle" x="965.5" y="-136.5" font-family="FreeSans" font-size="10.00" fill="#000000">KFParticleBase::GetDStoParticleBz</text>
</a>
</g>
</g>
<!-- Node2&#45;&gt;Node3 -->
<g id="edge2" class="edge">
<title>Node2&#45;&gt;Node3</title>
<path fill="none" stroke="#191970" d="M365.2381,-41.6099C472.2829,-32.9142 672.2573,-25.4258 835,-69.5 876.1091,-80.6332 918.6597,-106.6691 943.5725,-123.659"/>
<polygon fill="#191970" stroke="#191970" points="941.7099,-126.6269 951.9176,-129.4648 945.7077,-120.8807 941.7099,-126.6269"/>
</g>
<!-- Node5 -->
<g id="node5" class="node">
<title>Node5</title>
<g id="a_node5"><a xlink:href="../../d5/d41/classKFParticleBase.html#a8a48edc283143f590c86a970c5df5d5c" target="_top" xlink:title="KFParticleBase::GetDStoParticleCBM">
<polygon fill="none" stroke="#000000" points="410,-107.5 410,-127.5 609,-127.5 609,-107.5 410,-107.5"/>
<text text-anchor="middle" x="509.5" y="-114.5" font-family="FreeSans" font-size="10.00" fill="#000000">KFParticleBase::GetDStoParticleCBM</text>
</a>
</g>
</g>
<!-- Node2&#45;&gt;Node5 -->
<g id="edge4" class="edge">
<title>Node2&#45;&gt;Node5</title>
<path fill="none" stroke="#191970" d="M321.5355,-59.5336C360.1306,-71.436 424.578,-91.3109 467.0616,-104.4124"/>
<polygon fill="#191970" stroke="#191970" points="466.2436,-107.8228 476.831,-107.4252 468.3065,-101.1336 466.2436,-107.8228"/>
</g>
<!-- Node4 -->
<g id="node4" class="node">
<title>Node4</title>
<g id="a_node4"><a xlink:href="../../d5/d41/classKFParticleBase.html#a7d14ee08adf1bf707aa3e682f1d7b8d7" target="_top" xlink:title="KFParticleBase::GetDStoParticleLine">
<polygon fill="none" stroke="#000000" points="1096,-148.5 1096,-168.5 1294,-168.5 1294,-148.5 1096,-148.5"/>
<text text-anchor="middle" x="1195" y="-155.5" font-family="FreeSans" font-size="10.00" fill="#000000">KFParticleBase::GetDStoParticleLine</text>
</a>
</g>
</g>
<!-- Node3&#45;&gt;Node4 -->
<g id="edge3" class="edge">
<title>Node3&#45;&gt;Node4</title>
<path fill="none" stroke="#191970" d="M1060.1714,-147.3377C1068.6024,-148.0357 1077.1825,-148.746 1085.7222,-149.453"/>
<polygon fill="#191970" stroke="#191970" points="1085.4623,-152.9434 1095.717,-150.2805 1086.0399,-145.9673 1085.4623,-152.9434"/>
</g>
<!-- Node5&#45;&gt;Node4 -->
<g id="edge6" class="edge">
<title>Node5&#45;&gt;Node4</title>
<path fill="none" stroke="#191970" d="M533.9486,-127.5312C560.6872,-137.9167 605.0646,-153.4527 645,-159.5 796.5183,-182.4441 974.22,-176.2273 1085.7259,-168.3947"/>
<polygon fill="#191970" stroke="#191970" points="1086.2498,-171.8662 1095.9727,-167.6573 1085.7473,-164.8842 1086.2498,-171.8662"/>
</g>
<!-- Node6 -->
<g id="node6" class="node">
<title>Node6</title>
<g id="a_node6"><a xlink:href="../../d5/d41/classKFParticleBase.html#a54fa32dca24a267d19ac11875a650f96" target="_top" xlink:title="KFParticleBase::GetField\lValue">
<polygon fill="none" stroke="#000000" points="671,-78.5 671,-110.5 809,-110.5 809,-78.5 671,-78.5"/>
<text text-anchor="start" x="679" y="-97.5" font-family="FreeSans" font-size="10.00" fill="#000000">KFParticleBase::GetField</text>
<text text-anchor="middle" x="740" y="-85.5" font-family="FreeSans" font-size="10.00" fill="#000000">Value</text>
</a>
</g>
</g>
<!-- Node5&#45;&gt;Node6 -->
<g id="edge5" class="edge">
<title>Node5&#45;&gt;Node6</title>
<path fill="none" stroke="#191970" d="M609.2601,-107.5456C626.4897,-105.8264 644.1898,-104.0602 660.7821,-102.4046"/>
<polygon fill="#191970" stroke="#191970" points="661.3528,-105.8651 670.9559,-101.3894 660.6577,-98.8997 661.3528,-105.8651"/>
</g>
<!-- Node7 -->
<g id="node7" class="node">
<title>Node7</title>
<g id="a_node7"><a xlink:href="../../d5/d41/classKFParticleBase.html#adc56a774e8b806e9d7f0202d66d9e706" target="_top" xlink:title="KFParticleBase::GetDStoParticleBy">
<polygon fill="none" stroke="#000000" points="645,-129.5 645,-149.5 835,-149.5 835,-129.5 645,-129.5"/>
<text text-anchor="middle" x="740" y="-136.5" font-family="FreeSans" font-size="10.00" fill="#000000">KFParticleBase::GetDStoParticleBy</text>
</a>
</g>
</g>
<!-- Node5&#45;&gt;Node7 -->
<g id="edge7" class="edge">
<title>Node5&#45;&gt;Node7</title>
<path fill="none" stroke="#191970" d="M609.2601,-127.0216C617.7428,-127.8312 626.3395,-128.6517 634.8619,-129.4651"/>
<polygon fill="#191970" stroke="#191970" points="634.5337,-132.9496 644.8211,-130.4157 635.1989,-125.9813 634.5337,-132.9496"/>
</g>
<!-- Node7&#45;&gt;Node3 -->
<g id="edge8" class="edge">
<title>Node7&#45;&gt;Node3</title>
<path fill="none" stroke="#191970" d="M835.3055,-139.5C843.6802,-139.5 852.1866,-139.5 860.6337,-139.5"/>
<polygon fill="#191970" stroke="#191970" points="860.8951,-143.0001 870.895,-139.5 860.895,-136.0001 860.8951,-143.0001"/>
</g>
<!-- Node9 -->
<g id="node9" class="node">
<title>Node9</title>
<g id="a_node9"><a xlink:href="../../d5/d41/classKFParticleBase.html#a4c022cf8371927f3bfdca7f7901db99a" target="_top" xlink:title="KFParticleBase::Transport">
<polygon fill="none" stroke="#000000" points="437,-.5 437,-20.5 582,-20.5 582,-.5 437,-.5"/>
<text text-anchor="middle" x="509.5" y="-7.5" font-family="FreeSans" font-size="10.00" fill="#000000">KFParticleBase::Transport</text>
</a>
</g>
</g>
<!-- Node8&#45;&gt;Node9 -->
<g id="edge10" class="edge">
<title>Node8&#45;&gt;Node9</title>
<path fill="none" stroke="#191970" d="M374.2511,-10.5C391.3122,-10.5 409.2164,-10.5 426.2102,-10.5"/>
<polygon fill="#191970" stroke="#191970" points="426.6579,-14.0001 436.6579,-10.5 426.6579,-7.0001 426.6579,-14.0001"/>
</g>
</g>
</svg>
