<?xml version="1.0" encoding="UTF-8" standalone="no"?>
<!DOCTYPE svg PUBLIC "-//W3C//DTD SVG 1.1//EN"
 "http://www.w3.org/Graphics/SVG/1.1/DTD/svg11.dtd">
<!-- Generated by graphviz version 2.40.1 (20161225.0304)
 -->
<!-- Title: KFParticle::GetDStoPoint Pages: 1 -->
<svg width="343pt" height="131pt"
 viewBox="0.00 0.00 343.00 131.00" xmlns="http://www.w3.org/2000/svg" xmlns:xlink="http://www.w3.org/1999/xlink">
<g id="graph0" class="graph" transform="scale(1 1) rotate(0) translate(4 127)">
<title>KFParticle::GetDStoPoint</title>
<!-- Node1 -->
<g id="node1" class="node">
<title>Node1</title>
<polygon fill="#bfbfbf" stroke="#000000" points="0,-45.5 0,-65.5 140,-65.5 140,-45.5 0,-45.5"/>
<text text-anchor="middle" x="70" y="-52.5" font-family="FreeSans" font-size="10.00" fill="#000000">KFParticle::GetDStoPoint</text>
</g>
<!-- Node2 -->
<g id="node2" class="node">
<title>Node2</title>
<g id="a_node2"><a xlink:href="../../d0/d49/classKFParticle.html#a23612b32d0f5c8002731de325512843b" target="_top" xlink:title="KFParticle::GetDistanceFrom\lVertexXY">
<polygon fill="none" stroke="#000000" points="176,-90.5 176,-122.5 335,-122.5 335,-90.5 176,-90.5"/>
<text text-anchor="start" x="184" y="-109.5" font-family="FreeSans" font-size="10.00" fill="#000000">KFParticle::GetDistanceFrom</text>
<text text-anchor="middle" x="255.5" y="-97.5" font-family="FreeSans" font-size="10.00" fill="#000000">VertexXY</text>
</a>
</g>
</g>
<!-- Node1&#45;&gt;Node2 -->
<g id="edge1" class="edge">
<title>Node1&#45;&gt;Node2</title>
<path fill="none" stroke="#191970" d="M116.389,-68.2538C140.8124,-74.9686 171.0094,-83.2708 197.0215,-90.4223"/>
<polygon fill="#191970" stroke="#191970" points="117.2189,-64.8522 106.6488,-65.576 115.3632,-71.6018 117.2189,-64.8522"/>
</g>
<!-- Node3 -->
<g id="node3" class="node">
<title>Node3</title>
<g id="a_node3"><a xlink:href="../../d0/d49/classKFParticle.html#aaf8fa9176455e4b34628568d33276069" target="_top" xlink:title="KFParticle::GetParameters\lAtPoint">
<polygon fill="none" stroke="#000000" points="181.5,-39.5 181.5,-71.5 329.5,-71.5 329.5,-39.5 181.5,-39.5"/>
<text text-anchor="start" x="189.5" y="-58.5" font-family="FreeSans" font-size="10.00" fill="#000000">KFParticle::GetParameters</text>
<text text-anchor="middle" x="255.5" y="-46.5" font-family="FreeSans" font-size="10.00" fill="#000000">AtPoint</text>
</a>
</g>
</g>
<!-- Node1&#45;&gt;Node3 -->
<g id="edge2" class="edge">
<title>Node1&#45;&gt;Node3</title>
<path fill="none" stroke="#191970" d="M150.3173,-55.5C160.5932,-55.5 171.0765,-55.5 181.2503,-55.5"/>
<polygon fill="#191970" stroke="#191970" points="150.1296,-52.0001 140.1296,-55.5 150.1296,-59.0001 150.1296,-52.0001"/>
</g>
<!-- Node4 -->
<g id="node4" class="node">
<title>Node4</title>
<g id="a_node4"><a xlink:href="../../d0/d49/classKFParticle.html#ae3e9fe6655354f5cb043eb36639f6d65" target="_top" xlink:title="KFParticle::TransportToPoint">
<polygon fill="none" stroke="#000000" points="177,-.5 177,-20.5 334,-20.5 334,-.5 177,-.5"/>
<text text-anchor="middle" x="255.5" y="-7.5" font-family="FreeSans" font-size="10.00" fill="#000000">KFParticle::TransportToPoint</text>
</a>
</g>
</g>
<!-- Node1&#45;&gt;Node4 -->
<g id="edge3" class="edge">
<title>Node1&#45;&gt;Node4</title>
<path fill="none" stroke="#191970" d="M121.63,-42.9752C150.7742,-35.9052 186.7101,-27.1876 214.0091,-20.5652"/>
<polygon fill="#191970" stroke="#191970" points="120.5228,-39.6422 111.6298,-45.4011 122.1731,-46.4449 120.5228,-39.6422"/>
</g>
</g>
</svg>
