<?xml version="1.0" encoding="UTF-8" standalone="no"?>
<!DOCTYPE svg PUBLIC "-//W3C//DTD SVG 1.1//EN"
 "http://www.w3.org/Graphics/SVG/1.1/DTD/svg11.dtd">
<!-- Generated by graphviz version 2.40.1 (20161225.0304)
 -->
<!-- Title: KFParticle::KFParticle Pages: 1 -->
<svg width="540pt" height="404pt"
 viewBox="0.00 0.00 540.00 404.00" xmlns="http://www.w3.org/2000/svg" xmlns:xlink="http://www.w3.org/1999/xlink">
<g id="graph0" class="graph" transform="scale(1 1) rotate(0) translate(4 400)">
<title>KFParticle::KFParticle</title>
<!-- Node1 -->
<g id="node1" class="node">
<title>Node1</title>
<polygon fill="#bfbfbf" stroke="#000000" points="0,-190.5 0,-210.5 122,-210.5 122,-190.5 0,-190.5"/>
<text text-anchor="middle" x="61" y="-197.5" font-family="FreeSans" font-size="10.00" fill="#000000">KFParticle::KFParticle</text>
</g>
<!-- Node2 -->
<g id="node2" class="node">
<title>Node2</title>
<g id="a_node2"><a xlink:href="../../d0/db6/classKFPTrack.html#a4080eeb7c9d6327f8262dd3635b98a85" target="_top" xlink:title="Returns charge of the track.">
<polygon fill="none" stroke="#000000" points="205,-375.5 205,-395.5 309,-395.5 309,-375.5 205,-375.5"/>
<text text-anchor="middle" x="257" y="-382.5" font-family="FreeSans" font-size="10.00" fill="#000000">KFPTrack::Charge</text>
</a>
</g>
</g>
<!-- Node1&#45;&gt;Node2 -->
<g id="edge1" class="edge">
<title>Node1&#45;&gt;Node2</title>
<path fill="none" stroke="#191970" d="M63.7276,-210.7313C72.1639,-240.2462 100.7797,-326.0122 158,-366.5 168.8153,-374.1527 181.8914,-378.9408 194.9455,-381.8894"/>
<polygon fill="#191970" stroke="#191970" points="194.4045,-385.3495 204.8858,-383.8026 195.7276,-378.4756 194.4045,-385.3495"/>
</g>
<!-- Node3 -->
<g id="node3" class="node">
<title>Node3</title>
<g id="a_node3"><a xlink:href="../../d0/d49/classKFParticle.html#a688e43bc457ac9cc866e7e4a86c64bed" target="_top" xlink:title="KFParticle::Create">
<polygon fill="none" stroke="#000000" points="204,-336.5 204,-356.5 310,-356.5 310,-336.5 204,-336.5"/>
<text text-anchor="middle" x="257" y="-343.5" font-family="FreeSans" font-size="10.00" fill="#000000">KFParticle::Create</text>
</a>
</g>
</g>
<!-- Node1&#45;&gt;Node3 -->
<g id="edge2" class="edge">
<title>Node1&#45;&gt;Node3</title>
<path fill="none" stroke="#191970" d="M65.5928,-210.766C77.1752,-235.3724 110.1057,-297.8666 158,-327.5 168.7453,-334.1484 181.304,-338.5579 193.7987,-341.4627"/>
<polygon fill="#191970" stroke="#191970" points="193.2736,-344.9274 203.7696,-343.4837 194.6642,-338.0669 193.2736,-344.9274"/>
</g>
<!-- Node5 -->
<g id="node5" class="node">
<title>Node5</title>
<g id="a_node5"><a xlink:href="../../d0/db6/classKFPTrack.html#a6d3642d6ac5b7eddf9b673f94fea8d2c" target="_top" xlink:title="Returns Chi2 of the track.">
<polygon fill="none" stroke="#000000" points="203,-297.5 203,-317.5 311,-317.5 311,-297.5 203,-297.5"/>
<text text-anchor="middle" x="257" y="-304.5" font-family="FreeSans" font-size="10.00" fill="#000000">KFPTrack::GetChi2</text>
</a>
</g>
</g>
<!-- Node1&#45;&gt;Node5 -->
<g id="edge4" class="edge">
<title>Node1&#45;&gt;Node5</title>
<path fill="none" stroke="#191970" d="M68.8332,-210.5926C83.9094,-229.2468 118.9437,-268.9937 158,-288.5 168.7642,-293.8761 180.8869,-297.7349 192.8621,-300.5037"/>
<polygon fill="#191970" stroke="#191970" points="192.3502,-303.9721 202.8535,-302.5825 193.7761,-297.1189 192.3502,-303.9721"/>
</g>
<!-- Node6 -->
<g id="node6" class="node">
<title>Node6</title>
<g id="a_node6"><a xlink:href="../../d0/db6/classKFPTrack.html#adcb29beece55806f5fdbc740d31de90f" target="_top" xlink:title="KFPTrack::GetCovarianceXYZPxPyPz">
<polygon fill="none" stroke="#000000" points="158,-258.5 158,-278.5 356,-278.5 356,-258.5 158,-258.5"/>
<text text-anchor="middle" x="257" y="-265.5" font-family="FreeSans" font-size="10.00" fill="#000000">KFPTrack::GetCovarianceXYZPxPyPz</text>
</a>
</g>
</g>
<!-- Node1&#45;&gt;Node6 -->
<g id="edge5" class="edge">
<title>Node1&#45;&gt;Node6</title>
<path fill="none" stroke="#191970" d="M77.5457,-210.6617C96.3719,-221.7884 128.3574,-239.3901 158,-249.5 165.3375,-252.0025 173.0998,-254.2079 180.9203,-256.144"/>
<polygon fill="#191970" stroke="#191970" points="180.2962,-259.5923 190.8298,-258.4544 181.8858,-252.7751 180.2962,-259.5923"/>
</g>
<!-- Node7 -->
<g id="node7" class="node">
<title>Node7</title>
<g id="a_node7"><a xlink:href="../../dc/d83/classKFParticleDatabase.html#ad076360075bd9ca1005ffed61c21b965" target="_top" xlink:title="KFParticleDatabase\l::GetMass">
<polygon fill="none" stroke="#000000" points="200,-207.5 200,-239.5 314,-239.5 314,-207.5 200,-207.5"/>
<text text-anchor="start" x="208" y="-226.5" font-family="FreeSans" font-size="10.00" fill="#000000">KFParticleDatabase</text>
<text text-anchor="middle" x="257" y="-214.5" font-family="FreeSans" font-size="10.00" fill="#000000">::GetMass</text>
</a>
</g>
</g>
<!-- Node1&#45;&gt;Node7 -->
<g id="edge6" class="edge">
<title>Node1&#45;&gt;Node7</title>
<path fill="none" stroke="#191970" d="M122.2094,-207.6827C143.6387,-210.1974 167.8135,-213.0342 189.7123,-215.604"/>
<polygon fill="#191970" stroke="#191970" points="189.5857,-219.1131 199.9255,-216.8025 190.4016,-212.1608 189.5857,-219.1131"/>
</g>
<!-- Node8 -->
<g id="node8" class="node">
<title>Node8</title>
<g id="a_node8"><a xlink:href="../../d0/db6/classKFPTrack.html#a88971322ae4f8eec3be97aecab4fdea9" target="_top" xlink:title="Returns number of degrees of freedom of the track.">
<polygon fill="none" stroke="#000000" points="203.5,-168.5 203.5,-188.5 310.5,-188.5 310.5,-168.5 203.5,-168.5"/>
<text text-anchor="middle" x="257" y="-175.5" font-family="FreeSans" font-size="10.00" fill="#000000">KFPTrack::GetNDF</text>
</a>
</g>
</g>
<!-- Node1&#45;&gt;Node8 -->
<g id="edge7" class="edge">
<title>Node1&#45;&gt;Node8</title>
<path fill="none" stroke="#191970" d="M122.2094,-193.6296C144.7097,-191.104 170.2368,-188.2387 192.978,-185.6861"/>
<polygon fill="#191970" stroke="#191970" points="193.6626,-189.1314 203.2097,-184.5377 192.8817,-182.1751 193.6626,-189.1314"/>
</g>
<!-- Node9 -->
<g id="node9" class="node">
<title>Node9</title>
<g id="a_node9"><a xlink:href="../../dc/d83/classKFParticleDatabase.html#aa87302fc83afb56bae497e764c65dd8c" target="_top" xlink:title="Returns a pointer to the singleton object.">
<polygon fill="none" stroke="#000000" points="200,-117.5 200,-149.5 314,-149.5 314,-117.5 200,-117.5"/>
<text text-anchor="start" x="208" y="-136.5" font-family="FreeSans" font-size="10.00" fill="#000000">KFParticleDatabase</text>
<text text-anchor="middle" x="257" y="-124.5" font-family="FreeSans" font-size="10.00" fill="#000000">::Instance</text>
</a>
</g>
</g>
<!-- Node1&#45;&gt;Node9 -->
<g id="edge8" class="edge">
<title>Node1&#45;&gt;Node9</title>
<path fill="none" stroke="#191970" d="M82.2331,-190.4846C101.6602,-181.5726 131.3488,-168.5801 158,-159.5 168.2384,-156.0118 179.2048,-152.7125 189.9741,-149.7095"/>
<polygon fill="#191970" stroke="#191970" points="191.0537,-153.043 199.7824,-147.038 189.2141,-146.289 191.0537,-153.043"/>
</g>
<!-- Node10 -->
<g id="node10" class="node">
<title>Node10</title>
<g id="a_node10"><a xlink:href="../../d0/db6/classKFPTrack.html#a4073f2dd7d0cb17a47906c352026855f" target="_top" xlink:title="KFPTrack::PxPyPz">
<polygon fill="none" stroke="#000000" points="205.5,-78.5 205.5,-98.5 308.5,-98.5 308.5,-78.5 205.5,-78.5"/>
<text text-anchor="middle" x="257" y="-85.5" font-family="FreeSans" font-size="10.00" fill="#000000">KFPTrack::PxPyPz</text>
</a>
</g>
</g>
<!-- Node1&#45;&gt;Node10 -->
<g id="edge9" class="edge">
<title>Node1&#45;&gt;Node10</title>
<path fill="none" stroke="#191970" d="M68.51,-190.2793C83.3027,-170.9549 118.249,-129.1515 158,-108.5 169.4185,-102.5678 182.4254,-98.3932 195.172,-95.456"/>
<polygon fill="#191970" stroke="#191970" points="196.2219,-98.8128 205.3033,-93.3557 194.801,-91.9586 196.2219,-98.8128"/>
</g>
<!-- Node11 -->
<g id="node11" class="node">
<title>Node11</title>
<g id="a_node11"><a xlink:href="../../d5/d41/classKFParticleBase.html#a3acaec6e2b8d7b0e55b37233fd091555" target="_top" xlink:title="Sets the PDG hypothesis.">
<polygon fill="none" stroke="#000000" points="189.5,-39.5 189.5,-59.5 324.5,-59.5 324.5,-39.5 189.5,-39.5"/>
<text text-anchor="middle" x="257" y="-46.5" font-family="FreeSans" font-size="10.00" fill="#000000">KFParticleBase::SetPDG</text>
</a>
</g>
</g>
<!-- Node1&#45;&gt;Node11 -->
<g id="edge10" class="edge">
<title>Node1&#45;&gt;Node11</title>
<path fill="none" stroke="#191970" d="M65.3507,-190.315C76.6134,-165.2707 109.2845,-100.4771 158,-69.5 164.6585,-65.266 172.0351,-61.9026 179.6716,-59.2344"/>
<polygon fill="#191970" stroke="#191970" points="180.928,-62.5096 189.4491,-56.2134 178.8615,-55.8215 180.928,-62.5096"/>
</g>
<!-- Node12 -->
<g id="node12" class="node">
<title>Node12</title>
<g id="a_node12"><a xlink:href="../../d0/db6/classKFPTrack.html#a898efd7d653aa2a2c82f92c80cc3875f" target="_top" xlink:title="KFPTrack::XvYvZv">
<polygon fill="none" stroke="#000000" points="204,-.5 204,-20.5 310,-20.5 310,-.5 204,-.5"/>
<text text-anchor="middle" x="257" y="-7.5" font-family="FreeSans" font-size="10.00" fill="#000000">KFPTrack::XvYvZv</text>
</a>
</g>
</g>
<!-- Node1&#45;&gt;Node12 -->
<g id="edge11" class="edge">
<title>Node1&#45;&gt;Node12</title>
<path fill="none" stroke="#191970" d="M63.5512,-190.4813C71.6748,-160.752 99.8891,-72.4977 158,-30.5 168.4289,-22.9628 181.0137,-18.1033 193.6614,-15.0058"/>
<polygon fill="#191970" stroke="#191970" points="194.7106,-18.3619 203.7781,-12.8818 193.2722,-11.5112 194.7106,-18.3619"/>
</g>
<!-- Node4 -->
<g id="node4" class="node">
<title>Node4</title>
<g id="a_node4"><a xlink:href="../../d5/d41/classKFParticleBase.html#a2957ab78bcb45b327959f331125e7e4a" target="_top" xlink:title="KFParticleBase::Initialize">
<polygon fill="none" stroke="#000000" points="392,-336.5 392,-356.5 532,-356.5 532,-336.5 392,-336.5"/>
<text text-anchor="middle" x="462" y="-343.5" font-family="FreeSans" font-size="10.00" fill="#000000">KFParticleBase::Initialize</text>
</a>
</g>
</g>
<!-- Node3&#45;&gt;Node4 -->
<g id="edge3" class="edge">
<title>Node3&#45;&gt;Node4</title>
<path fill="none" stroke="#191970" d="M310.0592,-346.5C331.8582,-346.5 357.5804,-346.5 381.6021,-346.5"/>
<polygon fill="#191970" stroke="#191970" points="381.7767,-350.0001 391.7766,-346.5 381.7766,-343.0001 381.7767,-350.0001"/>
</g>
</g>
</svg>
