<?xml version="1.0" encoding="UTF-8" standalone="no"?>
<!DOCTYPE svg PUBLIC "-//W3C//DTD SVG 1.1//EN"
 "http://www.w3.org/Graphics/SVG/1.1/DTD/svg11.dtd">
<!-- Generated by graphviz version 2.40.1 (20161225.0304)
 -->
<!-- Title: KFParticle::GetAngleXY Pages: 1 -->
<svg width="1249pt" height="230pt"
 viewBox="0.00 0.00 1249.00 230.48" xmlns="http://www.w3.org/2000/svg" xmlns:xlink="http://www.w3.org/1999/xlink">
<g id="graph0" class="graph" transform="scale(1 1) rotate(0) translate(4 226.4784)">
<title>KFParticle::GetAngleXY</title>
<!-- Node1 -->
<g id="node1" class="node">
<title>Node1</title>
<polygon fill="#bfbfbf" stroke="#000000" points="0,-103.5 0,-123.5 133,-123.5 133,-103.5 0,-103.5"/>
<text text-anchor="middle" x="66.5" y="-110.5" font-family="FreeSans" font-size="10.00" fill="#000000">KFParticle::GetAngleXY</text>
</g>
<!-- Node2 -->
<g id="node2" class="node">
<title>Node2</title>
<g id="a_node2"><a xlink:href="../../d0/d49/classKFParticle.html#a1dfa2f6c4ec75c76a1b2aae35c05cae7" target="_top" xlink:title="KFParticle::GetDStoParticle">
<polygon fill="none" stroke="#000000" points="169,-148.5 169,-168.5 321,-168.5 321,-148.5 169,-148.5"/>
<text text-anchor="middle" x="245" y="-155.5" font-family="FreeSans" font-size="10.00" fill="#000000">KFParticle::GetDStoParticle</text>
</a>
</g>
</g>
<!-- Node1&#45;&gt;Node2 -->
<g id="edge1" class="edge">
<title>Node1&#45;&gt;Node2</title>
<path fill="none" stroke="#191970" d="M106.5589,-123.5989C132.7411,-130.1994 167.1368,-138.8706 195.0935,-145.9185"/>
<polygon fill="#191970" stroke="#191970" points="194.5226,-149.384 205.0748,-148.4348 196.2338,-142.5964 194.5226,-149.384"/>
</g>
<!-- Node8 -->
<g id="node8" class="node">
<title>Node8</title>
<g id="a_node8"><a xlink:href="../../d0/d49/classKFParticle.html#a7cc5d1b90ec1fda7fd4b98fe1e049f36" target="_top" xlink:title="KFParticle::Transport">
<polygon fill="none" stroke="#000000" points="184.5,-58.5 184.5,-78.5 305.5,-78.5 305.5,-58.5 184.5,-58.5"/>
<text text-anchor="middle" x="245" y="-65.5" font-family="FreeSans" font-size="10.00" fill="#000000">KFParticle::Transport</text>
</a>
</g>
</g>
<!-- Node1&#45;&gt;Node8 -->
<g id="edge9" class="edge">
<title>Node1&#45;&gt;Node8</title>
<path fill="none" stroke="#191970" d="M106.5589,-103.4011C132.7411,-96.8006 167.1368,-88.1294 195.0935,-81.0815"/>
<polygon fill="#191970" stroke="#191970" points="196.2338,-84.4036 205.0748,-78.5652 194.5226,-77.616 196.2338,-84.4036"/>
</g>
<!-- Node3 -->
<g id="node3" class="node">
<title>Node3</title>
<g id="a_node3"><a xlink:href="../../d5/d41/classKFParticleBase.html#a343a7ca2599d39eb390e3ecdfda79fe9" target="_top" xlink:title="KFParticleBase::GetDStoParticleBz">
<polygon fill="none" stroke="#000000" points="818,-187.5 818,-207.5 1007,-207.5 1007,-187.5 818,-187.5"/>
<text text-anchor="middle" x="912.5" y="-194.5" font-family="FreeSans" font-size="10.00" fill="#000000">KFParticleBase::GetDStoParticleBz</text>
</a>
</g>
</g>
<!-- Node2&#45;&gt;Node3 -->
<g id="edge2" class="edge">
<title>Node2&#45;&gt;Node3</title>
<path fill="none" stroke="#191970" d="M300.2343,-168.5018C318.3168,-171.7391 338.5079,-175.3146 357,-178.5 543.9294,-210.7001 592.8656,-231.9089 782,-217.5 804.0975,-215.8165 828.1185,-212.5518 849.458,-209.1403"/>
<polygon fill="#191970" stroke="#191970" points="850.0746,-212.5861 859.3766,-207.5142 848.942,-205.6783 850.0746,-212.5861"/>
</g>
<!-- Node5 -->
<g id="node5" class="node">
<title>Node5</title>
<g id="a_node5"><a xlink:href="../../d5/d41/classKFParticleBase.html#a8a48edc283143f590c86a970c5df5d5c" target="_top" xlink:title="KFParticleBase::GetDStoParticleCBM">
<polygon fill="none" stroke="#000000" points="357,-148.5 357,-168.5 556,-168.5 556,-148.5 357,-148.5"/>
<text text-anchor="middle" x="456.5" y="-155.5" font-family="FreeSans" font-size="10.00" fill="#000000">KFParticleBase::GetDStoParticleCBM</text>
</a>
</g>
</g>
<!-- Node2&#45;&gt;Node5 -->
<g id="edge4" class="edge">
<title>Node2&#45;&gt;Node5</title>
<path fill="none" stroke="#191970" d="M321.0575,-158.5C329.3993,-158.5 338.0093,-158.5 346.6558,-158.5"/>
<polygon fill="#191970" stroke="#191970" points="346.809,-162.0001 356.809,-158.5 346.809,-155.0001 346.809,-162.0001"/>
</g>
<!-- Node4 -->
<g id="node4" class="node">
<title>Node4</title>
<g id="a_node4"><a xlink:href="../../d5/d41/classKFParticleBase.html#a7d14ee08adf1bf707aa3e682f1d7b8d7" target="_top" xlink:title="KFParticleBase::GetDStoParticleLine">
<polygon fill="none" stroke="#000000" points="1043,-167.5 1043,-187.5 1241,-187.5 1241,-167.5 1043,-167.5"/>
<text text-anchor="middle" x="1142" y="-174.5" font-family="FreeSans" font-size="10.00" fill="#000000">KFParticleBase::GetDStoParticleLine</text>
</a>
</g>
</g>
<!-- Node3&#45;&gt;Node4 -->
<g id="edge3" class="edge">
<title>Node3&#45;&gt;Node4</title>
<path fill="none" stroke="#191970" d="M1007.1714,-189.2498C1015.6024,-188.515 1024.1825,-187.7673 1032.7222,-187.0231"/>
<polygon fill="#191970" stroke="#191970" points="1033.0587,-190.5072 1042.717,-186.1521 1032.4509,-183.5336 1033.0587,-190.5072"/>
</g>
<!-- Node5&#45;&gt;Node4 -->
<g id="edge6" class="edge">
<title>Node5&#45;&gt;Node4</title>
<path fill="none" stroke="#191970" d="M556.1776,-161.2628C683.0247,-164.7786 901.3833,-170.8308 1032.6777,-174.4699"/>
<polygon fill="#191970" stroke="#191970" points="1032.6656,-177.9708 1042.7588,-174.7493 1032.8596,-170.9735 1032.6656,-177.9708"/>
</g>
<!-- Node6 -->
<g id="node6" class="node">
<title>Node6</title>
<g id="a_node6"><a xlink:href="../../d5/d41/classKFParticleBase.html#a54fa32dca24a267d19ac11875a650f96" target="_top" xlink:title="KFParticleBase::GetField\lValue">
<polygon fill="none" stroke="#000000" points="618,-97.5 618,-129.5 756,-129.5 756,-97.5 618,-97.5"/>
<text text-anchor="start" x="626" y="-116.5" font-family="FreeSans" font-size="10.00" fill="#000000">KFParticleBase::GetField</text>
<text text-anchor="middle" x="687" y="-104.5" font-family="FreeSans" font-size="10.00" fill="#000000">Value</text>
</a>
</g>
</g>
<!-- Node5&#45;&gt;Node6 -->
<g id="edge5" class="edge">
<title>Node5&#45;&gt;Node6</title>
<path fill="none" stroke="#191970" d="M507.9418,-148.4571C537.2813,-142.7292 574.677,-135.4286 607.6976,-128.982"/>
<polygon fill="#191970" stroke="#191970" points="608.6471,-132.3628 617.7911,-127.0115 607.3058,-125.4925 608.6471,-132.3628"/>
</g>
<!-- Node7 -->
<g id="node7" class="node">
<title>Node7</title>
<g id="a_node7"><a xlink:href="../../d5/d41/classKFParticleBase.html#adc56a774e8b806e9d7f0202d66d9e706" target="_top" xlink:title="KFParticleBase::GetDStoParticleBy">
<polygon fill="none" stroke="#000000" points="592,-187.5 592,-207.5 782,-207.5 782,-187.5 592,-187.5"/>
<text text-anchor="middle" x="687" y="-194.5" font-family="FreeSans" font-size="10.00" fill="#000000">KFParticleBase::GetDStoParticleBy</text>
</a>
</g>
</g>
<!-- Node5&#45;&gt;Node7 -->
<g id="edge7" class="edge">
<title>Node5&#45;&gt;Node7</title>
<path fill="none" stroke="#191970" d="M515.8595,-168.5435C547.0477,-173.8204 585.4409,-180.3165 617.9545,-185.8177"/>
<polygon fill="#191970" stroke="#191970" points="617.3979,-189.2732 627.8417,-187.4906 618.5657,-182.3713 617.3979,-189.2732"/>
</g>
<!-- Node7&#45;&gt;Node3 -->
<g id="edge8" class="edge">
<title>Node7&#45;&gt;Node3</title>
<path fill="none" stroke="#191970" d="M782.3055,-197.5C790.6802,-197.5 799.1866,-197.5 807.6337,-197.5"/>
<polygon fill="#191970" stroke="#191970" points="807.8951,-201.0001 817.895,-197.5 807.895,-194.0001 807.8951,-201.0001"/>
</g>
<!-- Node9 -->
<g id="node9" class="node">
<title>Node9</title>
<g id="a_node9"><a xlink:href="../../d5/d41/classKFParticleBase.html#a016340d0adad367ab749998e4c3ada37" target="_top" xlink:title="KFParticleBase::TransportBz">
<polygon fill="none" stroke="#000000" points="378,-.5 378,-20.5 535,-20.5 535,-.5 378,-.5"/>
<text text-anchor="middle" x="456.5" y="-7.5" font-family="FreeSans" font-size="10.00" fill="#000000">KFParticleBase::TransportBz</text>
</a>
</g>
</g>
<!-- Node8&#45;&gt;Node9 -->
<g id="edge10" class="edge">
<title>Node8&#45;&gt;Node9</title>
<path fill="none" stroke="#191970" d="M281.8405,-58.3972C317.3669,-48.6547 371.2712,-33.8724 409.793,-23.3085"/>
<polygon fill="#191970" stroke="#191970" points="411.0092,-26.6043 419.7275,-20.5842 409.1579,-19.8536 411.0092,-26.6043"/>
</g>
<!-- Node11 -->
<g id="node11" class="node">
<title>Node11</title>
<g id="a_node11"><a xlink:href="../../d5/d41/classKFParticleBase.html#a66cf5f3b5d7c53aee08a3845b35b5d56" target="_top" xlink:title="KFParticleBase::TransportCBM">
<polygon fill="none" stroke="#000000" points="373,-58.5 373,-78.5 540,-78.5 540,-58.5 373,-58.5"/>
<text text-anchor="middle" x="456.5" y="-65.5" font-family="FreeSans" font-size="10.00" fill="#000000">KFParticleBase::TransportCBM</text>
</a>
</g>
</g>
<!-- Node8&#45;&gt;Node11 -->
<g id="edge12" class="edge">
<title>Node8&#45;&gt;Node11</title>
<path fill="none" stroke="#191970" d="M305.6074,-68.5C323.3823,-68.5 343.252,-68.5 362.5871,-68.5"/>
<polygon fill="#191970" stroke="#191970" points="362.6355,-72.0001 372.6355,-68.5 362.6355,-65.0001 362.6355,-72.0001"/>
</g>
<!-- Node10 -->
<g id="node10" class="node">
<title>Node10</title>
<g id="a_node10"><a xlink:href="../../d5/d41/classKFParticleBase.html#a724258bdfad283642d00e119a74f6335" target="_top" xlink:title="KFParticleBase::MultQSQt">
<polygon fill="none" stroke="#000000" points="839.5,-19.5 839.5,-39.5 985.5,-39.5 985.5,-19.5 839.5,-19.5"/>
<text text-anchor="middle" x="912.5" y="-26.5" font-family="FreeSans" font-size="10.00" fill="#000000">KFParticleBase::MultQSQt</text>
</a>
</g>
</g>
<!-- Node9&#45;&gt;Node10 -->
<g id="edge11" class="edge">
<title>Node9&#45;&gt;Node10</title>
<path fill="none" stroke="#191970" d="M535.224,-6.7812C601.2263,-4.4966 697.9015,-3.0931 782,-9.5 804.0975,-11.1835 828.1185,-14.4482 849.458,-17.8597"/>
<polygon fill="#191970" stroke="#191970" points="848.942,-21.3217 859.3766,-19.4858 850.0746,-14.4139 848.942,-21.3217"/>
</g>
<!-- Node11&#45;&gt;Node6 -->
<g id="edge15" class="edge">
<title>Node11&#45;&gt;Node6</title>
<path fill="none" stroke="#191970" d="M507.9418,-78.5429C537.2813,-84.2708 574.677,-91.5714 607.6976,-98.018"/>
<polygon fill="#191970" stroke="#191970" points="607.3058,-101.5075 617.7911,-99.9885 608.6471,-94.6372 607.3058,-101.5075"/>
</g>
<!-- Node11&#45;&gt;Node10 -->
<g id="edge16" class="edge">
<title>Node11&#45;&gt;Node10</title>
<path fill="none" stroke="#191970" d="M540.2811,-65.2709C606.1145,-62.2706 700.0586,-56.9676 782,-48.5 801.1113,-46.5251 821.7161,-43.8033 840.7816,-41.0365"/>
<polygon fill="#191970" stroke="#191970" points="841.5123,-44.4666 850.8943,-39.5444 840.4905,-37.5416 841.5123,-44.4666"/>
</g>
<!-- Node12 -->
<g id="node12" class="node">
<title>Node12</title>
<g id="a_node12"><a xlink:href="../../d5/d41/classKFParticleBase.html#a55db0b465b2ca16ebf9bba66533810a2" target="_top" xlink:title="KFParticleBase::TransportLine">
<polygon fill="none" stroke="#000000" points="604,-19.5 604,-39.5 770,-39.5 770,-19.5 604,-19.5"/>
<text text-anchor="middle" x="687" y="-26.5" font-family="FreeSans" font-size="10.00" fill="#000000">KFParticleBase::TransportLine</text>
</a>
</g>
</g>
<!-- Node11&#45;&gt;Node12 -->
<g id="edge13" class="edge">
<title>Node11&#45;&gt;Node12</title>
<path fill="none" stroke="#191970" d="M515.8595,-58.4565C547.0477,-53.1796 585.4409,-46.6835 617.9545,-41.1823"/>
<polygon fill="#191970" stroke="#191970" points="618.5657,-44.6287 627.8417,-39.5094 617.3979,-37.7268 618.5657,-44.6287"/>
</g>
<!-- Node12&#45;&gt;Node10 -->
<g id="edge14" class="edge">
<title>Node12&#45;&gt;Node10</title>
<path fill="none" stroke="#191970" d="M770.0072,-29.5C789.2745,-29.5 809.7899,-29.5 829.0751,-29.5"/>
<polygon fill="#191970" stroke="#191970" points="829.3396,-33.0001 839.3395,-29.5 829.3395,-26.0001 829.3396,-33.0001"/>
</g>
</g>
</svg>
