<?xml version="1.0" encoding="UTF-8" standalone="no"?>
<!DOCTYPE svg PUBLIC "-//W3C//DTD SVG 1.1//EN"
 "http://www.w3.org/Graphics/SVG/1.1/DTD/svg11.dtd">
<!-- Generated by graphviz version 2.40.1 (20161225.0304)
 -->
<!-- Title: KFParticle::GetChi2 Pages: 1 -->
<svg width="899pt" height="119pt"
 viewBox="0.00 0.00 899.00 119.00" xmlns="http://www.w3.org/2000/svg" xmlns:xlink="http://www.w3.org/1999/xlink">
<g id="graph0" class="graph" transform="scale(1 1) rotate(0) translate(4 115)">
<title>KFParticle::GetChi2</title>
<!-- Node1 -->
<g id="node1" class="node">
<title>Node1</title>
<polygon fill="#bfbfbf" stroke="#000000" points="0,-39.5 0,-59.5 113,-59.5 113,-39.5 0,-39.5"/>
<text text-anchor="middle" x="56.5" y="-46.5" font-family="FreeSans" font-size="10.00" fill="#000000">KFParticle::GetChi2</text>
</g>
<!-- Node2 -->
<g id="node2" class="node">
<title>Node2</title>
<g id="a_node2"><a xlink:href="../../d8/d00/classKFVertex.html#a0398208d64532d964a2c6c4c061c349c" target="_top" xlink:title="KFVertex::ConstructPrimary\lVertex">
<polygon fill="none" stroke="#000000" points="158.5,-78.5 158.5,-110.5 313.5,-110.5 313.5,-78.5 158.5,-78.5"/>
<text text-anchor="start" x="166.5" y="-97.5" font-family="FreeSans" font-size="10.00" fill="#000000">KFVertex::ConstructPrimary</text>
<text text-anchor="middle" x="236" y="-85.5" font-family="FreeSans" font-size="10.00" fill="#000000">Vertex</text>
</a>
</g>
</g>
<!-- Node1&#45;&gt;Node2 -->
<g id="edge1" class="edge">
<title>Node1&#45;&gt;Node2</title>
<path fill="none" stroke="#191970" d="M106.7134,-62.0883C126.9218,-67.1545 150.4726,-73.0586 171.8953,-78.4292"/>
<polygon fill="#191970" stroke="#191970" points="107.3343,-58.6357 96.7833,-59.5989 105.632,-65.4256 107.3343,-58.6357"/>
</g>
<!-- Node6 -->
<g id="node6" class="node">
<title>Node6</title>
<g id="a_node6"><a xlink:href="../../d6/d9c/classKFPHistogramSet.html#a140b2356c0ea846b0b8774bd8bc895d3" target="_top" xlink:title="KFPHistogramSet::Fill">
<polygon fill="none" stroke="#000000" points="174,-39.5 174,-59.5 298,-59.5 298,-39.5 174,-39.5"/>
<text text-anchor="middle" x="236" y="-46.5" font-family="FreeSans" font-size="10.00" fill="#000000">KFPHistogramSet::Fill</text>
</a>
</g>
</g>
<!-- Node1&#45;&gt;Node6 -->
<g id="edge5" class="edge">
<title>Node1&#45;&gt;Node6</title>
<path fill="none" stroke="#191970" d="M123.4389,-49.5C139.9963,-49.5 157.6631,-49.5 173.9749,-49.5"/>
<polygon fill="#191970" stroke="#191970" points="123.295,-46.0001 113.2949,-49.5 123.2949,-53.0001 123.295,-46.0001"/>
</g>
<!-- Node9 -->
<g id="node9" class="node">
<title>Node9</title>
<g id="a_node9"><a xlink:href="../../db/dcc/classKFParticleSIMD.html#ae32806bf88791dbf8fb2381a1f7643ce" target="_top" xlink:title="KFParticleSIMD::KFParticleSIMD">
<polygon fill="none" stroke="#000000" points="149,-.5 149,-20.5 323,-20.5 323,-.5 149,-.5"/>
<text text-anchor="middle" x="236" y="-7.5" font-family="FreeSans" font-size="10.00" fill="#000000">KFParticleSIMD::KFParticleSIMD</text>
</a>
</g>
</g>
<!-- Node1&#45;&gt;Node9 -->
<g id="edge8" class="edge">
<title>Node1&#45;&gt;Node9</title>
<path fill="none" stroke="#191970" d="M112.7379,-37.2812C137.5704,-31.8858 166.3997,-25.6221 189.9309,-20.5094"/>
<polygon fill="#191970" stroke="#191970" points="111.7546,-33.9131 102.7257,-39.4565 113.2409,-40.7535 111.7546,-33.9131"/>
</g>
<!-- Node3 -->
<g id="node3" class="node">
<title>Node3</title>
<g id="a_node3"><a xlink:href="../../df/d4e/classKFParticlePVReconstructor.html#a874727a615fe2126fb1611f13eda4b70" target="_top" xlink:title="KFParticlePVReconstructor\l::FindPrimaryClusters">
<polygon fill="none" stroke="#000000" points="359,-78.5 359,-110.5 509,-110.5 509,-78.5 359,-78.5"/>
<text text-anchor="start" x="367" y="-97.5" font-family="FreeSans" font-size="10.00" fill="#000000">KFParticlePVReconstructor</text>
<text text-anchor="middle" x="434" y="-85.5" font-family="FreeSans" font-size="10.00" fill="#000000">::FindPrimaryClusters</text>
</a>
</g>
</g>
<!-- Node2&#45;&gt;Node3 -->
<g id="edge2" class="edge">
<title>Node2&#45;&gt;Node3</title>
<path fill="none" stroke="#191970" d="M323.8618,-94.5C335.5205,-94.5 347.3879,-94.5 358.8061,-94.5"/>
<polygon fill="#191970" stroke="#191970" points="323.6866,-91.0001 313.6866,-94.5 323.6865,-98.0001 323.6866,-91.0001"/>
</g>
<!-- Node4 -->
<g id="node4" class="node">
<title>Node4</title>
<g id="a_node4"><a xlink:href="../../df/d4e/classKFParticlePVReconstructor.html#aac8016012886979bbbc71f42a617ad3a" target="_top" xlink:title="KFParticlePVReconstructor\l::ReconstructPrimVertex">
<polygon fill="none" stroke="#000000" points="545,-78.5 545,-110.5 695,-110.5 695,-78.5 545,-78.5"/>
<text text-anchor="start" x="553" y="-97.5" font-family="FreeSans" font-size="10.00" fill="#000000">KFParticlePVReconstructor</text>
<text text-anchor="middle" x="620" y="-85.5" font-family="FreeSans" font-size="10.00" fill="#000000">::ReconstructPrimVertex</text>
</a>
</g>
</g>
<!-- Node3&#45;&gt;Node4 -->
<g id="edge3" class="edge">
<title>Node3&#45;&gt;Node4</title>
<path fill="none" stroke="#191970" d="M519.1473,-94.5C527.7419,-94.5 536.4265,-94.5 544.9048,-94.5"/>
<polygon fill="#191970" stroke="#191970" points="519.1172,-91.0001 509.1172,-94.5 519.1171,-98.0001 519.1172,-91.0001"/>
</g>
<!-- Node5 -->
<g id="node5" class="node">
<title>Node5</title>
<g id="a_node5"><a xlink:href="../../db/d6d/classKFParticleTopoReconstructor.html#a4f287575a545bea1c34d538c8ed53cde" target="_top" xlink:title="KFParticleTopoReconstructor\l::ReconstructPrimVertex">
<polygon fill="none" stroke="#000000" points="731,-78.5 731,-110.5 891,-110.5 891,-78.5 731,-78.5"/>
<text text-anchor="start" x="739" y="-97.5" font-family="FreeSans" font-size="10.00" fill="#000000">KFParticleTopoReconstructor</text>
<text text-anchor="middle" x="811" y="-85.5" font-family="FreeSans" font-size="10.00" fill="#000000">::ReconstructPrimVertex</text>
</a>
</g>
</g>
<!-- Node4&#45;&gt;Node5 -->
<g id="edge4" class="edge">
<title>Node4&#45;&gt;Node5</title>
<path fill="none" stroke="#191970" d="M705.4418,-94.5C713.8846,-94.5 722.4334,-94.5 730.8204,-94.5"/>
<polygon fill="#191970" stroke="#191970" points="705.2141,-91.0001 695.2141,-94.5 705.214,-98.0001 705.2141,-91.0001"/>
</g>
<!-- Node7 -->
<g id="node7" class="node">
<title>Node7</title>
<g id="a_node7"><a xlink:href="../../df/d10/classKFPHistogram.html#ad899f4e7138f0f522c618163c53ecb69" target="_top" xlink:title="Fills histograms using parameters of the given particle.">
<polygon fill="none" stroke="#000000" points="380.5,-39.5 380.5,-59.5 487.5,-59.5 487.5,-39.5 380.5,-39.5"/>
<text text-anchor="middle" x="434" y="-46.5" font-family="FreeSans" font-size="10.00" fill="#000000">KFPHistogram::Fill</text>
</a>
</g>
</g>
<!-- Node6&#45;&gt;Node7 -->
<g id="edge6" class="edge">
<title>Node6&#45;&gt;Node7</title>
<path fill="none" stroke="#191970" d="M308.1884,-49.5C332.0798,-49.5 358.2241,-49.5 380.4601,-49.5"/>
<polygon fill="#191970" stroke="#191970" points="308.1052,-46.0001 298.1052,-49.5 308.1051,-53.0001 308.1052,-46.0001"/>
</g>
<!-- Node8 -->
<g id="node8" class="node">
<title>Node8</title>
<g id="a_node8"><a xlink:href="../../df/d10/classKFPHistogram.html#aa7ad55a1984737eef3cb0c0a431bcdb8" target="_top" xlink:title="Fills histograms for each particle reconstructed by the KFParticleFinder object from the given KFPart...">
<polygon fill="none" stroke="#000000" points="566.5,-39.5 566.5,-59.5 673.5,-59.5 673.5,-39.5 566.5,-39.5"/>
<text text-anchor="middle" x="620" y="-46.5" font-family="FreeSans" font-size="10.00" fill="#000000">KFPHistogram::Fill</text>
</a>
</g>
</g>
<!-- Node7&#45;&gt;Node8 -->
<g id="edge7" class="edge">
<title>Node7&#45;&gt;Node8</title>
<path fill="none" stroke="#191970" d="M497.8485,-49.5C520.148,-49.5 544.9353,-49.5 566.322,-49.5"/>
<polygon fill="#191970" stroke="#191970" points="497.7989,-46.0001 487.7989,-49.5 497.7989,-53.0001 497.7989,-46.0001"/>
</g>
</g>
</svg>
