<?xml version="1.0" encoding="UTF-8" standalone="no"?>
<!DOCTYPE svg PUBLIC "-//W3C//DTD SVG 1.1//EN"
 "http://www.w3.org/Graphics/SVG/1.1/DTD/svg11.dtd">
<!-- Generated by graphviz version 2.40.1 (20161225.0304)
 -->
<!-- Title: KFParticle::SetAtProductionVertex Pages: 1 -->
<svg width="1401pt" height="349pt"
 viewBox="0.00 0.00 1401.00 348.58" xmlns="http://www.w3.org/2000/svg" xmlns:xlink="http://www.w3.org/1999/xlink">
<g id="graph0" class="graph" transform="scale(1 1) rotate(0) translate(4 344.5801)">
<title>KFParticle::SetAtProductionVertex</title>
<!-- Node1 -->
<g id="node1" class="node">
<title>Node1</title>
<polygon fill="#bfbfbf" stroke="#000000" points="0,-141.5 0,-173.5 153,-173.5 153,-141.5 0,-141.5"/>
<text text-anchor="start" x="8" y="-160.5" font-family="FreeSans" font-size="10.00" fill="#000000">KFParticle::SetAtProduction</text>
<text text-anchor="middle" x="76.5" y="-148.5" font-family="FreeSans" font-size="10.00" fill="#000000">Vertex</text>
</g>
<!-- Node2 -->
<g id="node2" class="node">
<title>Node2</title>
<g id="a_node2"><a xlink:href="../../db/dcc/classKFParticleSIMD.html#abee0e1ab2c3a9a40f6618a20fb58f664" target="_top" xlink:title="KFParticleSIMD::GetKFParticle">
<polygon fill="none" stroke="#000000" points="189,-147.5 189,-167.5 355,-167.5 355,-147.5 189,-147.5"/>
<text text-anchor="middle" x="272" y="-154.5" font-family="FreeSans" font-size="10.00" fill="#000000">KFParticleSIMD::GetKFParticle</text>
</a>
</g>
</g>
<!-- Node1&#45;&gt;Node2 -->
<g id="edge1" class="edge">
<title>Node1&#45;&gt;Node2</title>
<path fill="none" stroke="#191970" d="M163.4052,-157.5C171.8252,-157.5 180.3539,-157.5 188.7371,-157.5"/>
<polygon fill="#191970" stroke="#191970" points="163.2057,-154.0001 153.2057,-157.5 163.2056,-161.0001 163.2057,-154.0001"/>
</g>
<!-- Node3 -->
<g id="node3" class="node">
<title>Node3</title>
<g id="a_node3"><a xlink:href="../../d2/d3d/classKFParticleFinder.html#a3ad831d1b28cce4689501e369f561926" target="_top" xlink:title="KFParticleFinder::FindParticles">
<polygon fill="none" stroke="#000000" points="1030,-178.5 1030,-198.5 1197,-198.5 1197,-178.5 1030,-178.5"/>
<text text-anchor="middle" x="1113.5" y="-185.5" font-family="FreeSans" font-size="10.00" fill="#000000">KFParticleFinder::FindParticles</text>
</a>
</g>
</g>
<!-- Node2&#45;&gt;Node3 -->
<g id="edge2" class="edge">
<title>Node2&#45;&gt;Node3</title>
<path fill="none" stroke="#191970" d="M283.9733,-175.9689C303.0379,-203.7346 343.0766,-255.7183 391,-281.5 471.3781,-324.7416 502.1028,-310.2439 593,-318.5 770.7833,-334.6478 830.8849,-368.0336 994,-295.5 1044.6364,-272.9831 1088.7585,-220.8168 1105.8963,-198.7027"/>
<polygon fill="#191970" stroke="#191970" points="286.8071,-173.9105 278.3309,-167.554 280.9931,-177.809 286.8071,-173.9105"/>
</g>
<!-- Node5 -->
<g id="node5" class="node">
<title>Node5</title>
<g id="a_node5"><a xlink:href="../../d2/d3d/classKFParticleFinder.html#a370264d09a6bfbb50da1113abd0db15a" target="_top" xlink:title="KFParticleFinder::ExtrapolateToPV">
<polygon fill="none" stroke="#000000" points="593,-288.5 593,-308.5 779,-308.5 779,-288.5 593,-288.5"/>
<text text-anchor="middle" x="686" y="-295.5" font-family="FreeSans" font-size="10.00" fill="#000000">KFParticleFinder::ExtrapolateToPV</text>
</a>
</g>
</g>
<!-- Node2&#45;&gt;Node5 -->
<g id="edge4" class="edge">
<title>Node2&#45;&gt;Node5</title>
<path fill="none" stroke="#191970" d="M289.1542,-174.7966C310.8574,-195.5815 350.3331,-229.856 391,-247.5 455.0113,-275.2723 533.0138,-287.9418 592.7293,-293.711"/>
<polygon fill="#191970" stroke="#191970" points="291.3398,-172.0387 281.741,-167.5539 286.4479,-177.0457 291.3398,-172.0387"/>
</g>
<!-- Node6 -->
<g id="node6" class="node">
<title>Node6</title>
<g id="a_node6"><a xlink:href="../../d2/d3d/classKFParticleFinder.html#a555c027cc00bc7d9461470d5c200b993" target="_top" xlink:title="KFParticleFinder::ConstructV0">
<polygon fill="none" stroke="#000000" points="603.5,-172.5 603.5,-192.5 768.5,-192.5 768.5,-172.5 603.5,-172.5"/>
<text text-anchor="middle" x="686" y="-179.5" font-family="FreeSans" font-size="10.00" fill="#000000">KFParticleFinder::ConstructV0</text>
</a>
</g>
</g>
<!-- Node2&#45;&gt;Node6 -->
<g id="edge6" class="edge">
<title>Node2&#45;&gt;Node6</title>
<path fill="none" stroke="#191970" d="M365.6273,-163.1538C437.0776,-167.4685 534.5879,-173.3568 603.2058,-177.5003"/>
<polygon fill="#191970" stroke="#191970" points="365.4739,-159.6383 355.2811,-162.529 365.0519,-166.6255 365.4739,-159.6383"/>
</g>
<!-- Node9 -->
<g id="node9" class="node">
<title>Node9</title>
<g id="a_node9"><a xlink:href="../../d2/d3d/classKFParticleFinder.html#ad5a61416f528be9d0b397352f7619953" target="_top" xlink:title="KFParticleFinder::SaveV0\lPrimSecCand">
<polygon fill="none" stroke="#000000" points="403,-205.5 403,-237.5 545,-237.5 545,-205.5 403,-205.5"/>
<text text-anchor="start" x="411" y="-224.5" font-family="FreeSans" font-size="10.00" fill="#000000">KFParticleFinder::SaveV0</text>
<text text-anchor="middle" x="474" y="-212.5" font-family="FreeSans" font-size="10.00" fill="#000000">PrimSecCand</text>
</a>
</g>
</g>
<!-- Node2&#45;&gt;Node9 -->
<g id="edge11" class="edge">
<title>Node2&#45;&gt;Node9</title>
<path fill="none" stroke="#191970" d="M313.8736,-170.7669C345.6518,-180.8352 389.4834,-194.7225 423.255,-205.4224"/>
<polygon fill="#191970" stroke="#191970" points="314.5976,-167.3249 304.0075,-167.641 312.4833,-173.9979 314.5976,-167.3249"/>
</g>
<!-- Node10 -->
<g id="node10" class="node">
<title>Node10</title>
<g id="a_node10"><a xlink:href="../../d2/d3d/classKFParticleFinder.html#a845f4b9e798f34dad97691ddd0df6b07" target="_top" xlink:title="KFParticleFinder::Construct\lTrackV0Cand">
<polygon fill="none" stroke="#000000" points="609.5,-121.5 609.5,-153.5 762.5,-153.5 762.5,-121.5 609.5,-121.5"/>
<text text-anchor="start" x="617.5" y="-140.5" font-family="FreeSans" font-size="10.00" fill="#000000">KFParticleFinder::Construct</text>
<text text-anchor="middle" x="686" y="-128.5" font-family="FreeSans" font-size="10.00" fill="#000000">TrackV0Cand</text>
</a>
</g>
</g>
<!-- Node2&#45;&gt;Node10 -->
<g id="edge15" class="edge">
<title>Node2&#45;&gt;Node10</title>
<path fill="none" stroke="#191970" d="M365.4857,-152.9838C439.1561,-149.4248 540.5965,-144.5243 609.484,-141.1964"/>
<polygon fill="#191970" stroke="#191970" points="365.1005,-149.4982 355.2811,-153.4768 365.4383,-156.4901 365.1005,-149.4982"/>
</g>
<!-- Node12 -->
<g id="node12" class="node">
<title>Node12</title>
<g id="a_node12"><a xlink:href="../../d2/d3d/classKFParticleFinder.html#a4ef976ffd76ed2d50940a5d5bb766795" target="_top" xlink:title="KFParticleFinder::Combine\lPartPart">
<polygon fill="none" stroke="#000000" points="612,-70.5 612,-102.5 760,-102.5 760,-70.5 612,-70.5"/>
<text text-anchor="start" x="620" y="-89.5" font-family="FreeSans" font-size="10.00" fill="#000000">KFParticleFinder::Combine</text>
<text text-anchor="middle" x="686" y="-77.5" font-family="FreeSans" font-size="10.00" fill="#000000">PartPart</text>
</a>
</g>
</g>
<!-- Node2&#45;&gt;Node12 -->
<g id="edge18" class="edge">
<title>Node2&#45;&gt;Node12</title>
<path fill="none" stroke="#191970" d="M340.6937,-145.7192C415.53,-132.885 534.8237,-112.4264 611.7704,-99.2302"/>
<polygon fill="#191970" stroke="#191970" points="339.7025,-142.338 330.438,-147.478 340.8858,-149.2373 339.7025,-142.338"/>
</g>
<!-- Node13 -->
<g id="node13" class="node">
<title>Node13</title>
<g id="a_node13"><a xlink:href="../../d2/d3d/classKFParticleFinder.html#a76e093479fb04d0360e1cca0e6aa5d01" target="_top" xlink:title="KFParticleFinder::Neutral\lDaughterDecay">
<polygon fill="none" stroke="#000000" points="404,-39.5 404,-71.5 544,-71.5 544,-39.5 404,-39.5"/>
<text text-anchor="start" x="412" y="-58.5" font-family="FreeSans" font-size="10.00" fill="#000000">KFParticleFinder::Neutral</text>
<text text-anchor="middle" x="474" y="-46.5" font-family="FreeSans" font-size="10.00" fill="#000000">DaughterDecay</text>
</a>
</g>
</g>
<!-- Node2&#45;&gt;Node13 -->
<g id="edge20" class="edge">
<title>Node2&#45;&gt;Node13</title>
<path fill="none" stroke="#191970" d="M295.4974,-141.7492C319.0085,-126.4096 356.5387,-103.0489 391,-86.5 402.2315,-81.1064 414.6649,-76.0225 426.4153,-71.5922"/>
<polygon fill="#191970" stroke="#191970" points="293.3433,-138.9769 286.9156,-147.3992 297.1926,-144.8235 293.3433,-138.9769"/>
</g>
<!-- Node14 -->
<g id="node14" class="node">
<title>Node14</title>
<g id="a_node14"><a xlink:href="../../db/dcc/classKFParticleSIMD.html#a52e83afab8f9b1d755ae0e1a4e9fdde7" target="_top" xlink:title="KFParticleSIMD::GetKFParticle">
<polygon fill="none" stroke="#000000" points="391,-.5 391,-20.5 557,-20.5 557,-.5 391,-.5"/>
<text text-anchor="middle" x="474" y="-7.5" font-family="FreeSans" font-size="10.00" fill="#000000">KFParticleSIMD::GetKFParticle</text>
</a>
</g>
</g>
<!-- Node2&#45;&gt;Node14 -->
<g id="edge22" class="edge">
<title>Node2&#45;&gt;Node14</title>
<path fill="none" stroke="#191970" d="M283.9717,-138.6953C303.0343,-110.3768 343.0703,-57.1614 391,-29.5 397.2736,-25.8794 404.1864,-22.9487 411.2638,-20.5764"/>
<polygon fill="#191970" stroke="#191970" points="280.9017,-136.9937 278.33,-147.2716 286.7498,-140.8407 280.9017,-136.9937"/>
</g>
<!-- Node4 -->
<g id="node4" class="node">
<title>Node4</title>
<g id="a_node4"><a xlink:href="../../db/d6d/classKFParticleTopoReconstructor.html#a3013eefd4e16b74ae39c531678623d08" target="_top" xlink:title="KFParticleTopoReconstructor\l::ReconstructParticles">
<polygon fill="none" stroke="#000000" points="1233,-172.5 1233,-204.5 1393,-204.5 1393,-172.5 1233,-172.5"/>
<text text-anchor="start" x="1241" y="-191.5" font-family="FreeSans" font-size="10.00" fill="#000000">KFParticleTopoReconstructor</text>
<text text-anchor="middle" x="1313" y="-179.5" font-family="FreeSans" font-size="10.00" fill="#000000">::ReconstructParticles</text>
</a>
</g>
</g>
<!-- Node3&#45;&gt;Node4 -->
<g id="edge3" class="edge">
<title>Node3&#45;&gt;Node4</title>
<path fill="none" stroke="#191970" d="M1207.2835,-188.5C1215.8763,-188.5 1224.5283,-188.5 1232.9834,-188.5"/>
<polygon fill="#191970" stroke="#191970" points="1207.2389,-185.0001 1197.2388,-188.5 1207.2388,-192.0001 1207.2389,-185.0001"/>
</g>
<!-- Node5&#45;&gt;Node3 -->
<g id="edge5" class="edge">
<title>Node5&#45;&gt;Node3</title>
<path fill="none" stroke="#191970" d="M789.1364,-299.2841C850.2415,-296.874 928.3142,-288.7033 994,-265.5 1037.7498,-250.0455 1081.6892,-215.7632 1101.9452,-198.6411"/>
<polygon fill="#191970" stroke="#191970" points="788.9658,-295.7879 779.094,-299.6347 789.21,-302.7836 788.9658,-295.7879"/>
</g>
<!-- Node7 -->
<g id="node7" class="node">
<title>Node7</title>
<g id="a_node7"><a xlink:href="../../d2/d3d/classKFParticleFinder.html#a3f6967ae8b6839bc7de48991eaa812ef" target="_top" xlink:title="KFParticleFinder::Find2Daughter\lDecay">
<polygon fill="none" stroke="#000000" points="815,-223.5 815,-255.5 994,-255.5 994,-223.5 815,-223.5"/>
<text text-anchor="start" x="823" y="-242.5" font-family="FreeSans" font-size="10.00" fill="#000000">KFParticleFinder::Find2Daughter</text>
<text text-anchor="middle" x="904.5" y="-230.5" font-family="FreeSans" font-size="10.00" fill="#000000">Decay</text>
</a>
</g>
</g>
<!-- Node6&#45;&gt;Node7 -->
<g id="edge7" class="edge">
<title>Node6&#45;&gt;Node7</title>
<path fill="none" stroke="#191970" d="M734.545,-195.1639C766.4636,-203.4905 808.5104,-214.4592 842.7958,-223.4033"/>
<polygon fill="#191970" stroke="#191970" points="735.1201,-191.6969 724.5604,-192.5592 733.3531,-198.4702 735.1201,-191.6969"/>
</g>
<!-- Node8 -->
<g id="node8" class="node">
<title>Node8</title>
<g id="a_node8"><a xlink:href="../../d2/d3d/classKFParticleFinder.html#ae68561ffcd9f3bf3e8230604678105c5" target="_top" xlink:title="KFParticleFinder::Construct\lPrimaryBG">
<polygon fill="none" stroke="#000000" points="828,-172.5 828,-204.5 981,-204.5 981,-172.5 828,-172.5"/>
<text text-anchor="start" x="836" y="-191.5" font-family="FreeSans" font-size="10.00" fill="#000000">KFParticleFinder::Construct</text>
<text text-anchor="middle" x="904.5" y="-179.5" font-family="FreeSans" font-size="10.00" fill="#000000">PrimaryBG</text>
</a>
</g>
</g>
<!-- Node6&#45;&gt;Node8 -->
<g id="edge9" class="edge">
<title>Node6&#45;&gt;Node8</title>
<path fill="none" stroke="#191970" d="M778.7308,-185.0464C795.1198,-185.4964 812.0165,-185.9604 827.8995,-186.3966"/>
<polygon fill="#191970" stroke="#191970" points="778.6978,-181.5443 768.6055,-184.7683 778.5056,-188.5416 778.6978,-181.5443"/>
</g>
<!-- Node7&#45;&gt;Node3 -->
<g id="edge8" class="edge">
<title>Node7&#45;&gt;Node3</title>
<path fill="none" stroke="#191970" d="M980.2821,-221.0077C1011.3421,-213.4285 1046.0717,-204.9538 1072.2819,-198.558"/>
<polygon fill="#191970" stroke="#191970" points="979.2272,-217.6623 970.342,-223.4333 980.8867,-224.4628 979.2272,-217.6623"/>
</g>
<!-- Node8&#45;&gt;Node3 -->
<g id="edge10" class="edge">
<title>Node8&#45;&gt;Node3</title>
<path fill="none" stroke="#191970" d="M991.2715,-188.5C1004.0239,-188.5 1017.1392,-188.5 1029.8275,-188.5"/>
<polygon fill="#191970" stroke="#191970" points="991.1372,-185.0001 981.1371,-188.5 991.1371,-192.0001 991.1372,-185.0001"/>
</g>
<!-- Node9&#45;&gt;Node6 -->
<g id="edge12" class="edge">
<title>Node9&#45;&gt;Node6</title>
<path fill="none" stroke="#191970" d="M555.2153,-206.5594C580.7148,-201.8685 608.2414,-196.8046 631.4327,-192.5383"/>
<polygon fill="#191970" stroke="#191970" points="554.3844,-203.1535 545.1827,-208.4051 555.6509,-210.038 554.3844,-203.1535"/>
</g>
<!-- Node9&#45;&gt;Node7 -->
<g id="edge13" class="edge">
<title>Node9&#45;&gt;Node7</title>
<path fill="none" stroke="#191970" d="M555.3312,-232.2108C567.9238,-233.5385 580.7972,-234.706 593,-235.5 667.6138,-240.3548 752.4854,-241.1326 814.7751,-240.821"/>
<polygon fill="#191970" stroke="#191970" points="555.6317,-228.7228 545.3106,-231.1157 554.8712,-235.6814 555.6317,-228.7228"/>
</g>
<!-- Node9&#45;&gt;Node8 -->
<g id="edge14" class="edge">
<title>Node9&#45;&gt;Node8</title>
<path fill="none" stroke="#191970" d="M555.2837,-217.519C616.7758,-214.2448 703.2726,-209.0786 779,-202.5 794.8348,-201.1244 811.7663,-199.4051 827.9032,-197.6471"/>
<polygon fill="#191970" stroke="#191970" points="555.0542,-214.0262 545.2525,-218.0482 555.423,-221.0165 555.0542,-214.0262"/>
</g>
<!-- Node11 -->
<g id="node11" class="node">
<title>Node11</title>
<g id="a_node11"><a xlink:href="../../d2/d3d/classKFParticleFinder.html#a2073bafab2ee9126f3fbf0bef15f68e3" target="_top" xlink:title="KFParticleFinder::FindTrack\lV0Decay">
<polygon fill="none" stroke="#000000" points="829,-121.5 829,-153.5 980,-153.5 980,-121.5 829,-121.5"/>
<text text-anchor="start" x="837" y="-140.5" font-family="FreeSans" font-size="10.00" fill="#000000">KFParticleFinder::FindTrack</text>
<text text-anchor="middle" x="904.5" y="-128.5" font-family="FreeSans" font-size="10.00" fill="#000000">V0Decay</text>
</a>
</g>
</g>
<!-- Node10&#45;&gt;Node11 -->
<g id="edge16" class="edge">
<title>Node10&#45;&gt;Node11</title>
<path fill="none" stroke="#191970" d="M772.877,-137.5C791.3363,-137.5 810.6858,-137.5 828.6937,-137.5"/>
<polygon fill="#191970" stroke="#191970" points="772.7277,-134.0001 762.7277,-137.5 772.7277,-141.0001 772.7277,-134.0001"/>
</g>
<!-- Node11&#45;&gt;Node3 -->
<g id="edge17" class="edge">
<title>Node11&#45;&gt;Node3</title>
<path fill="none" stroke="#191970" d="M980.2821,-155.9923C1011.3421,-163.5715 1046.0717,-172.0462 1072.2819,-178.442"/>
<polygon fill="#191970" stroke="#191970" points="980.8867,-152.5372 970.342,-153.5667 979.2272,-159.3377 980.8867,-152.5372"/>
</g>
<!-- Node12&#45;&gt;Node3 -->
<g id="edge19" class="edge">
<title>Node12&#45;&gt;Node3</title>
<path fill="none" stroke="#191970" d="M770.503,-82.8887C833.6593,-82.7315 921.2693,-87.9662 994,-112.5 1037.7985,-127.2743 1081.7151,-161.3361 1101.9555,-178.3891"/>
<polygon fill="#191970" stroke="#191970" points="770.164,-79.391 760.1894,-82.9627 770.2143,-86.3908 770.164,-79.391"/>
</g>
<!-- Node13&#45;&gt;Node3 -->
<g id="edge21" class="edge">
<title>Node13&#45;&gt;Node3</title>
<path fill="none" stroke="#191970" d="M553.9932,-42.2894C659.6665,-28.5508 849.2988,-16.9494 994,-80.5 1045.207,-102.9893 1089.3401,-156.2571 1106.198,-178.4855"/>
<polygon fill="#191970" stroke="#191970" points="553.4801,-38.8268 544.0332,-43.6232 554.4093,-45.7649 553.4801,-38.8268"/>
</g>
</g>
</svg>
