<?xml version="1.0" encoding="UTF-8" standalone="no"?>
<!DOCTYPE svg PUBLIC "-//W3C//DTD SVG 1.1//EN"
 "http://www.w3.org/Graphics/SVG/1.1/DTD/svg11.dtd">
<!-- Generated by graphviz version 2.40.1 (20161225.0304)
 -->
<!-- Title: KFParticle::Parameters Pages: 1 -->
<svg width="1386pt" height="349pt"
 viewBox="0.00 0.00 1386.00 348.58" xmlns="http://www.w3.org/2000/svg" xmlns:xlink="http://www.w3.org/1999/xlink">
<g id="graph0" class="graph" transform="scale(1 1) rotate(0) translate(4 344.5801)">
<title>KFParticle::Parameters</title>
<!-- Node1 -->
<g id="node1" class="node">
<title>Node1</title>
<polygon fill="#bfbfbf" stroke="#000000" points="0,-127.5 0,-147.5 130,-147.5 130,-127.5 0,-127.5"/>
<text text-anchor="middle" x="65" y="-134.5" font-family="FreeSans" font-size="10.00" fill="#000000">KFParticle::Parameters</text>
</g>
<!-- Node2 -->
<g id="node2" class="node">
<title>Node2</title>
<g id="a_node2"><a xlink:href="../../db/dcc/classKFParticleSIMD.html#abee0e1ab2c3a9a40f6618a20fb58f664" target="_top" xlink:title="KFParticleSIMD::GetKFParticle">
<polygon fill="none" stroke="#000000" points="170,-147.5 170,-167.5 336,-167.5 336,-147.5 170,-147.5"/>
<text text-anchor="middle" x="253" y="-154.5" font-family="FreeSans" font-size="10.00" fill="#000000">KFParticleSIMD::GetKFParticle</text>
</a>
</g>
</g>
<!-- Node1&#45;&gt;Node2 -->
<g id="edge1" class="edge">
<title>Node1&#45;&gt;Node2</title>
<path fill="none" stroke="#191970" d="M140.2057,-145.5006C149.8965,-146.5315 159.8652,-147.592 169.6767,-148.6358"/>
<polygon fill="#191970" stroke="#191970" points="140.5398,-142.0165 130.2257,-144.4389 139.7993,-148.9772 140.5398,-142.0165"/>
</g>
<!-- Node15 -->
<g id="node15" class="node">
<title>Node15</title>
<g id="a_node15"><a xlink:href="../../db/dcc/classKFParticleSIMD.html#ae32806bf88791dbf8fb2381a1f7643ce" target="_top" xlink:title="KFParticleSIMD::KFParticleSIMD">
<polygon fill="none" stroke="#000000" points="166,-108.5 166,-128.5 340,-128.5 340,-108.5 166,-108.5"/>
<text text-anchor="middle" x="253" y="-115.5" font-family="FreeSans" font-size="10.00" fill="#000000">KFParticleSIMD::KFParticleSIMD</text>
</a>
</g>
</g>
<!-- Node1&#45;&gt;Node15 -->
<g id="edge23" class="edge">
<title>Node1&#45;&gt;Node15</title>
<path fill="none" stroke="#191970" d="M140.2975,-129.8901C148.6535,-129.0457 157.215,-128.1804 165.7033,-127.3225"/>
<polygon fill="#191970" stroke="#191970" points="139.823,-126.4202 130.2257,-130.908 140.5269,-133.3847 139.823,-126.4202"/>
</g>
<!-- Node3 -->
<g id="node3" class="node">
<title>Node3</title>
<g id="a_node3"><a xlink:href="../../d2/d3d/classKFParticleFinder.html#a3ad831d1b28cce4689501e369f561926" target="_top" xlink:title="KFParticleFinder::FindParticles">
<polygon fill="none" stroke="#000000" points="1015,-178.5 1015,-198.5 1182,-198.5 1182,-178.5 1015,-178.5"/>
<text text-anchor="middle" x="1098.5" y="-185.5" font-family="FreeSans" font-size="10.00" fill="#000000">KFParticleFinder::FindParticles</text>
</a>
</g>
</g>
<!-- Node2&#45;&gt;Node3 -->
<g id="edge2" class="edge">
<title>Node2&#45;&gt;Node3</title>
<path fill="none" stroke="#191970" d="M265.5289,-175.965C285.4361,-203.7255 327.0828,-255.7025 376,-281.5 456.7326,-324.076 487.1028,-310.2439 578,-318.5 755.7833,-334.6478 815.8849,-368.0336 979,-295.5 1029.6364,-272.9831 1073.7585,-220.8168 1090.8963,-198.7027"/>
<polygon fill="#191970" stroke="#191970" points="268.2377,-173.7318 259.632,-167.5518 262.5055,-177.7495 268.2377,-173.7318"/>
</g>
<!-- Node5 -->
<g id="node5" class="node">
<title>Node5</title>
<g id="a_node5"><a xlink:href="../../d2/d3d/classKFParticleFinder.html#a370264d09a6bfbb50da1113abd0db15a" target="_top" xlink:title="KFParticleFinder::ExtrapolateToPV">
<polygon fill="none" stroke="#000000" points="578,-288.5 578,-308.5 764,-308.5 764,-288.5 578,-288.5"/>
<text text-anchor="middle" x="671" y="-295.5" font-family="FreeSans" font-size="10.00" fill="#000000">KFParticleFinder::ExtrapolateToPV</text>
</a>
</g>
</g>
<!-- Node2&#45;&gt;Node5 -->
<g id="edge4" class="edge">
<title>Node2&#45;&gt;Node5</title>
<path fill="none" stroke="#191970" d="M270.5495,-174.5064C293.0356,-195.2461 334.1333,-229.728 376,-247.5 440.2292,-274.7647 518.221,-287.459 577.8771,-293.3666"/>
<polygon fill="#191970" stroke="#191970" points="272.8244,-171.8412 263.1403,-167.5436 268.0307,-176.9423 272.8244,-171.8412"/>
</g>
<!-- Node6 -->
<g id="node6" class="node">
<title>Node6</title>
<g id="a_node6"><a xlink:href="../../d2/d3d/classKFParticleFinder.html#a555c027cc00bc7d9461470d5c200b993" target="_top" xlink:title="KFParticleFinder::ConstructV0">
<polygon fill="none" stroke="#000000" points="588.5,-172.5 588.5,-192.5 753.5,-192.5 753.5,-172.5 588.5,-172.5"/>
<text text-anchor="middle" x="671" y="-179.5" font-family="FreeSans" font-size="10.00" fill="#000000">KFParticleFinder::ConstructV0</text>
</a>
</g>
</g>
<!-- Node2&#45;&gt;Node6 -->
<g id="edge6" class="edge">
<title>Node2&#45;&gt;Node6</title>
<path fill="none" stroke="#191970" d="M346.1426,-163.0707C418.7592,-167.4138 518.6547,-173.3884 588.4308,-177.5617"/>
<polygon fill="#191970" stroke="#191970" points="346.2743,-159.5724 336.0831,-162.4691 345.8563,-166.56 346.2743,-159.5724"/>
</g>
<!-- Node9 -->
<g id="node9" class="node">
<title>Node9</title>
<g id="a_node9"><a xlink:href="../../d2/d3d/classKFParticleFinder.html#ad5a61416f528be9d0b397352f7619953" target="_top" xlink:title="KFParticleFinder::SaveV0\lPrimSecCand">
<polygon fill="none" stroke="#000000" points="388,-205.5 388,-237.5 530,-237.5 530,-205.5 388,-205.5"/>
<text text-anchor="start" x="396" y="-224.5" font-family="FreeSans" font-size="10.00" fill="#000000">KFParticleFinder::SaveV0</text>
<text text-anchor="middle" x="459" y="-212.5" font-family="FreeSans" font-size="10.00" fill="#000000">PrimSecCand</text>
</a>
</g>
</g>
<!-- Node2&#45;&gt;Node9 -->
<g id="edge11" class="edge">
<title>Node2&#45;&gt;Node9</title>
<path fill="none" stroke="#191970" d="M295.2826,-170.6363C327.7231,-180.7149 372.6607,-194.6761 407.2502,-205.4224"/>
<polygon fill="#191970" stroke="#191970" points="296.2295,-167.2656 285.6413,-167.641 294.1526,-173.9504 296.2295,-167.2656"/>
</g>
<!-- Node10 -->
<g id="node10" class="node">
<title>Node10</title>
<g id="a_node10"><a xlink:href="../../d2/d3d/classKFParticleFinder.html#a845f4b9e798f34dad97691ddd0df6b07" target="_top" xlink:title="KFParticleFinder::Construct\lTrackV0Cand">
<polygon fill="none" stroke="#000000" points="594.5,-121.5 594.5,-153.5 747.5,-153.5 747.5,-121.5 594.5,-121.5"/>
<text text-anchor="start" x="602.5" y="-140.5" font-family="FreeSans" font-size="10.00" fill="#000000">KFParticleFinder::Construct</text>
<text text-anchor="middle" x="671" y="-128.5" font-family="FreeSans" font-size="10.00" fill="#000000">TrackV0Cand</text>
</a>
</g>
</g>
<!-- Node2&#45;&gt;Node10 -->
<g id="edge15" class="edge">
<title>Node2&#45;&gt;Node10</title>
<path fill="none" stroke="#191970" d="M346.426,-153.0299C421.1226,-149.4559 524.5484,-144.5073 594.4122,-141.1645"/>
<polygon fill="#191970" stroke="#191970" points="345.9044,-149.5507 336.0831,-153.5247 346.239,-156.5427 345.9044,-149.5507"/>
</g>
<!-- Node12 -->
<g id="node12" class="node">
<title>Node12</title>
<g id="a_node12"><a xlink:href="../../d2/d3d/classKFParticleFinder.html#a4ef976ffd76ed2d50940a5d5bb766795" target="_top" xlink:title="KFParticleFinder::Combine\lPartPart">
<polygon fill="none" stroke="#000000" points="597,-70.5 597,-102.5 745,-102.5 745,-70.5 597,-70.5"/>
<text text-anchor="start" x="605" y="-89.5" font-family="FreeSans" font-size="10.00" fill="#000000">KFParticleFinder::Combine</text>
<text text-anchor="middle" x="671" y="-77.5" font-family="FreeSans" font-size="10.00" fill="#000000">PartPart</text>
</a>
</g>
</g>
<!-- Node2&#45;&gt;Node12 -->
<g id="edge18" class="edge">
<title>Node2&#45;&gt;Node12</title>
<path fill="none" stroke="#191970" d="M321.9251,-145.7926C397.6952,-132.9226 518.9777,-112.322 596.7892,-99.1052"/>
<polygon fill="#191970" stroke="#191970" points="321.2753,-142.3528 312.0026,-147.478 322.4476,-149.2539 321.2753,-142.3528"/>
</g>
<!-- Node13 -->
<g id="node13" class="node">
<title>Node13</title>
<g id="a_node13"><a xlink:href="../../d2/d3d/classKFParticleFinder.html#a76e093479fb04d0360e1cca0e6aa5d01" target="_top" xlink:title="KFParticleFinder::Neutral\lDaughterDecay">
<polygon fill="none" stroke="#000000" points="389,-39.5 389,-71.5 529,-71.5 529,-39.5 389,-39.5"/>
<text text-anchor="start" x="397" y="-58.5" font-family="FreeSans" font-size="10.00" fill="#000000">KFParticleFinder::Neutral</text>
<text text-anchor="middle" x="459" y="-46.5" font-family="FreeSans" font-size="10.00" fill="#000000">DaughterDecay</text>
</a>
</g>
</g>
<!-- Node2&#45;&gt;Node13 -->
<g id="edge20" class="edge">
<title>Node2&#45;&gt;Node13</title>
<path fill="none" stroke="#191970" d="M331.7959,-143.2901C334.6395,-141.8422 337.3868,-140.2502 340,-138.5 363.3549,-122.8581 353.8173,-103.7642 376,-86.5 383.6475,-80.5482 392.5577,-75.6483 401.6459,-71.6432"/>
<polygon fill="#191970" stroke="#191970" points="330.1563,-140.1885 322.4332,-147.4413 332.9935,-146.5877 330.1563,-140.1885"/>
</g>
<!-- Node14 -->
<g id="node14" class="node">
<title>Node14</title>
<g id="a_node14"><a xlink:href="../../db/dcc/classKFParticleSIMD.html#a52e83afab8f9b1d755ae0e1a4e9fdde7" target="_top" xlink:title="KFParticleSIMD::GetKFParticle">
<polygon fill="none" stroke="#000000" points="376,-.5 376,-20.5 542,-20.5 542,-.5 376,-.5"/>
<text text-anchor="middle" x="459" y="-7.5" font-family="FreeSans" font-size="10.00" fill="#000000">KFParticleSIMD::GetKFParticle</text>
</a>
</g>
</g>
<!-- Node2&#45;&gt;Node14 -->
<g id="edge22" class="edge">
<title>Node2&#45;&gt;Node14</title>
<path fill="none" stroke="#191970" d="M335.8048,-141.9201C337.2565,-140.8483 338.6577,-139.7096 340,-138.5 377.9014,-104.3481 338.2703,-63.8414 376,-29.5 379.9356,-25.9179 384.4056,-22.9675 389.182,-20.542"/>
<polygon fill="#191970" stroke="#191970" points="333.6677,-139.126 326.9939,-147.3547 337.3426,-145.0838 333.6677,-139.126"/>
</g>
<!-- Node4 -->
<g id="node4" class="node">
<title>Node4</title>
<g id="a_node4"><a xlink:href="../../db/d6d/classKFParticleTopoReconstructor.html#a3013eefd4e16b74ae39c531678623d08" target="_top" xlink:title="KFParticleTopoReconstructor\l::ReconstructParticles">
<polygon fill="none" stroke="#000000" points="1218,-172.5 1218,-204.5 1378,-204.5 1378,-172.5 1218,-172.5"/>
<text text-anchor="start" x="1226" y="-191.5" font-family="FreeSans" font-size="10.00" fill="#000000">KFParticleTopoReconstructor</text>
<text text-anchor="middle" x="1298" y="-179.5" font-family="FreeSans" font-size="10.00" fill="#000000">::ReconstructParticles</text>
</a>
</g>
</g>
<!-- Node3&#45;&gt;Node4 -->
<g id="edge3" class="edge">
<title>Node3&#45;&gt;Node4</title>
<path fill="none" stroke="#191970" d="M1192.2835,-188.5C1200.8763,-188.5 1209.5283,-188.5 1217.9834,-188.5"/>
<polygon fill="#191970" stroke="#191970" points="1192.2389,-185.0001 1182.2388,-188.5 1192.2388,-192.0001 1192.2389,-185.0001"/>
</g>
<!-- Node5&#45;&gt;Node3 -->
<g id="edge5" class="edge">
<title>Node5&#45;&gt;Node3</title>
<path fill="none" stroke="#191970" d="M774.1364,-299.2841C835.2415,-296.874 913.3142,-288.7033 979,-265.5 1022.7498,-250.0455 1066.6892,-215.7632 1086.9452,-198.6411"/>
<polygon fill="#191970" stroke="#191970" points="773.9658,-295.7879 764.094,-299.6347 774.21,-302.7836 773.9658,-295.7879"/>
</g>
<!-- Node7 -->
<g id="node7" class="node">
<title>Node7</title>
<g id="a_node7"><a xlink:href="../../d2/d3d/classKFParticleFinder.html#a3f6967ae8b6839bc7de48991eaa812ef" target="_top" xlink:title="KFParticleFinder::Find2Daughter\lDecay">
<polygon fill="none" stroke="#000000" points="800,-223.5 800,-255.5 979,-255.5 979,-223.5 800,-223.5"/>
<text text-anchor="start" x="808" y="-242.5" font-family="FreeSans" font-size="10.00" fill="#000000">KFParticleFinder::Find2Daughter</text>
<text text-anchor="middle" x="889.5" y="-230.5" font-family="FreeSans" font-size="10.00" fill="#000000">Decay</text>
</a>
</g>
</g>
<!-- Node6&#45;&gt;Node7 -->
<g id="edge7" class="edge">
<title>Node6&#45;&gt;Node7</title>
<path fill="none" stroke="#191970" d="M719.545,-195.1639C751.4636,-203.4905 793.5104,-214.4592 827.7958,-223.4033"/>
<polygon fill="#191970" stroke="#191970" points="720.1201,-191.6969 709.5604,-192.5592 718.3531,-198.4702 720.1201,-191.6969"/>
</g>
<!-- Node8 -->
<g id="node8" class="node">
<title>Node8</title>
<g id="a_node8"><a xlink:href="../../d2/d3d/classKFParticleFinder.html#ae68561ffcd9f3bf3e8230604678105c5" target="_top" xlink:title="KFParticleFinder::Construct\lPrimaryBG">
<polygon fill="none" stroke="#000000" points="813,-172.5 813,-204.5 966,-204.5 966,-172.5 813,-172.5"/>
<text text-anchor="start" x="821" y="-191.5" font-family="FreeSans" font-size="10.00" fill="#000000">KFParticleFinder::Construct</text>
<text text-anchor="middle" x="889.5" y="-179.5" font-family="FreeSans" font-size="10.00" fill="#000000">PrimaryBG</text>
</a>
</g>
</g>
<!-- Node6&#45;&gt;Node8 -->
<g id="edge9" class="edge">
<title>Node6&#45;&gt;Node8</title>
<path fill="none" stroke="#191970" d="M763.7308,-185.0464C780.1198,-185.4964 797.0165,-185.9604 812.8995,-186.3966"/>
<polygon fill="#191970" stroke="#191970" points="763.6978,-181.5443 753.6055,-184.7683 763.5056,-188.5416 763.6978,-181.5443"/>
</g>
<!-- Node7&#45;&gt;Node3 -->
<g id="edge8" class="edge">
<title>Node7&#45;&gt;Node3</title>
<path fill="none" stroke="#191970" d="M965.2821,-221.0077C996.3421,-213.4285 1031.0717,-204.9538 1057.2819,-198.558"/>
<polygon fill="#191970" stroke="#191970" points="964.2272,-217.6623 955.342,-223.4333 965.8867,-224.4628 964.2272,-217.6623"/>
</g>
<!-- Node8&#45;&gt;Node3 -->
<g id="edge10" class="edge">
<title>Node8&#45;&gt;Node3</title>
<path fill="none" stroke="#191970" d="M976.2715,-188.5C989.0239,-188.5 1002.1392,-188.5 1014.8275,-188.5"/>
<polygon fill="#191970" stroke="#191970" points="976.1372,-185.0001 966.1371,-188.5 976.1371,-192.0001 976.1372,-185.0001"/>
</g>
<!-- Node9&#45;&gt;Node6 -->
<g id="edge12" class="edge">
<title>Node9&#45;&gt;Node6</title>
<path fill="none" stroke="#191970" d="M540.2153,-206.5594C565.7148,-201.8685 593.2414,-196.8046 616.4327,-192.5383"/>
<polygon fill="#191970" stroke="#191970" points="539.3844,-203.1535 530.1827,-208.4051 540.6509,-210.038 539.3844,-203.1535"/>
</g>
<!-- Node9&#45;&gt;Node7 -->
<g id="edge13" class="edge">
<title>Node9&#45;&gt;Node7</title>
<path fill="none" stroke="#191970" d="M540.3312,-232.2108C552.9238,-233.5385 565.7972,-234.706 578,-235.5 652.6138,-240.3548 737.4854,-241.1326 799.7751,-240.821"/>
<polygon fill="#191970" stroke="#191970" points="540.6317,-228.7228 530.3106,-231.1157 539.8712,-235.6814 540.6317,-228.7228"/>
</g>
<!-- Node9&#45;&gt;Node8 -->
<g id="edge14" class="edge">
<title>Node9&#45;&gt;Node8</title>
<path fill="none" stroke="#191970" d="M540.2837,-217.519C601.7758,-214.2448 688.2726,-209.0786 764,-202.5 779.8348,-201.1244 796.7663,-199.4051 812.9032,-197.6471"/>
<polygon fill="#191970" stroke="#191970" points="540.0542,-214.0262 530.2525,-218.0482 540.423,-221.0165 540.0542,-214.0262"/>
</g>
<!-- Node11 -->
<g id="node11" class="node">
<title>Node11</title>
<g id="a_node11"><a xlink:href="../../d2/d3d/classKFParticleFinder.html#a2073bafab2ee9126f3fbf0bef15f68e3" target="_top" xlink:title="KFParticleFinder::FindTrack\lV0Decay">
<polygon fill="none" stroke="#000000" points="814,-121.5 814,-153.5 965,-153.5 965,-121.5 814,-121.5"/>
<text text-anchor="start" x="822" y="-140.5" font-family="FreeSans" font-size="10.00" fill="#000000">KFParticleFinder::FindTrack</text>
<text text-anchor="middle" x="889.5" y="-128.5" font-family="FreeSans" font-size="10.00" fill="#000000">V0Decay</text>
</a>
</g>
</g>
<!-- Node10&#45;&gt;Node11 -->
<g id="edge16" class="edge">
<title>Node10&#45;&gt;Node11</title>
<path fill="none" stroke="#191970" d="M757.877,-137.5C776.3363,-137.5 795.6858,-137.5 813.6937,-137.5"/>
<polygon fill="#191970" stroke="#191970" points="757.7277,-134.0001 747.7277,-137.5 757.7277,-141.0001 757.7277,-134.0001"/>
</g>
<!-- Node11&#45;&gt;Node3 -->
<g id="edge17" class="edge">
<title>Node11&#45;&gt;Node3</title>
<path fill="none" stroke="#191970" d="M965.2821,-155.9923C996.3421,-163.5715 1031.0717,-172.0462 1057.2819,-178.442"/>
<polygon fill="#191970" stroke="#191970" points="965.8867,-152.5372 955.342,-153.5667 964.2272,-159.3377 965.8867,-152.5372"/>
</g>
<!-- Node12&#45;&gt;Node3 -->
<g id="edge19" class="edge">
<title>Node12&#45;&gt;Node3</title>
<path fill="none" stroke="#191970" d="M755.503,-82.8887C818.6593,-82.7315 906.2693,-87.9662 979,-112.5 1022.7985,-127.2743 1066.7151,-161.3361 1086.9555,-178.3891"/>
<polygon fill="#191970" stroke="#191970" points="755.164,-79.391 745.1894,-82.9627 755.2143,-86.3908 755.164,-79.391"/>
</g>
<!-- Node13&#45;&gt;Node3 -->
<g id="edge21" class="edge">
<title>Node13&#45;&gt;Node3</title>
<path fill="none" stroke="#191970" d="M538.9932,-42.2894C644.6665,-28.5508 834.2988,-16.9494 979,-80.5 1030.207,-102.9893 1074.3401,-156.2571 1091.198,-178.4855"/>
<polygon fill="#191970" stroke="#191970" points="538.4801,-38.8268 529.0332,-43.6232 539.4093,-45.7649 538.4801,-38.8268"/>
</g>
</g>
</svg>
