<?xml version="1.0" encoding="UTF-8" standalone="no"?>
<!DOCTYPE svg PUBLIC "-//W3C//DTD SVG 1.1//EN"
 "http://www.w3.org/Graphics/SVG/1.1/DTD/svg11.dtd">
<!-- Generated by graphviz version 2.40.1 (20161225.0304)
 -->
<!-- Title: KFParticle::GetDStoParticle Pages: 1 -->
<svg width="1080pt" height="134pt"
 viewBox="0.00 0.00 1080.00 133.62" xmlns="http://www.w3.org/2000/svg" xmlns:xlink="http://www.w3.org/1999/xlink">
<g id="graph0" class="graph" transform="scale(1 1) rotate(0) translate(4 129.6165)">
<title>KFParticle::GetDStoParticle</title>
<!-- Node1 -->
<g id="node1" class="node">
<title>Node1</title>
<polygon fill="#bfbfbf" stroke="#000000" points="0,-90.5 0,-110.5 152,-110.5 152,-90.5 0,-90.5"/>
<text text-anchor="middle" x="76" y="-97.5" font-family="FreeSans" font-size="10.00" fill="#000000">KFParticle::GetDStoParticle</text>
</g>
<!-- Node2 -->
<g id="node2" class="node">
<title>Node2</title>
<g id="a_node2"><a xlink:href="../../d5/d41/classKFParticleBase.html#a343a7ca2599d39eb390e3ecdfda79fe9" target="_top" xlink:title="KFParticleBase::GetDStoParticleBz">
<polygon fill="none" stroke="#000000" points="649,-90.5 649,-110.5 838,-110.5 838,-90.5 649,-90.5"/>
<text text-anchor="middle" x="743.5" y="-97.5" font-family="FreeSans" font-size="10.00" fill="#000000">KFParticleBase::GetDStoParticleBz</text>
</a>
</g>
</g>
<!-- Node1&#45;&gt;Node2 -->
<g id="edge1" class="edge">
<title>Node1&#45;&gt;Node2</title>
<path fill="none" stroke="#191970" d="M152.1389,-108.7501C256.3102,-118.8023 449.0448,-132.9907 613,-120.5 635.0975,-118.8165 659.1185,-115.5518 680.458,-112.1403"/>
<polygon fill="#191970" stroke="#191970" points="681.0746,-115.5861 690.3766,-110.5142 679.942,-108.6783 681.0746,-115.5861"/>
</g>
<!-- Node4 -->
<g id="node4" class="node">
<title>Node4</title>
<g id="a_node4"><a xlink:href="../../d5/d41/classKFParticleBase.html#a8a48edc283143f590c86a970c5df5d5c" target="_top" xlink:title="KFParticleBase::GetDStoParticleCBM">
<polygon fill="none" stroke="#000000" points="188,-71.5 188,-91.5 387,-91.5 387,-71.5 188,-71.5"/>
<text text-anchor="middle" x="287.5" y="-78.5" font-family="FreeSans" font-size="10.00" fill="#000000">KFParticleBase::GetDStoParticleCBM</text>
</a>
</g>
</g>
<!-- Node1&#45;&gt;Node4 -->
<g id="edge3" class="edge">
<title>Node1&#45;&gt;Node4</title>
<path fill="none" stroke="#191970" d="M152.0575,-93.6674C160.3993,-92.918 169.0093,-92.1446 177.6558,-91.3678"/>
<polygon fill="#191970" stroke="#191970" points="178.1623,-94.8365 187.809,-90.4557 177.5359,-87.8646 178.1623,-94.8365"/>
</g>
<!-- Node3 -->
<g id="node3" class="node">
<title>Node3</title>
<g id="a_node3"><a xlink:href="../../d5/d41/classKFParticleBase.html#a7d14ee08adf1bf707aa3e682f1d7b8d7" target="_top" xlink:title="KFParticleBase::GetDStoParticleLine">
<polygon fill="none" stroke="#000000" points="874,-70.5 874,-90.5 1072,-90.5 1072,-70.5 874,-70.5"/>
<text text-anchor="middle" x="973" y="-77.5" font-family="FreeSans" font-size="10.00" fill="#000000">KFParticleBase::GetDStoParticleLine</text>
</a>
</g>
</g>
<!-- Node2&#45;&gt;Node3 -->
<g id="edge2" class="edge">
<title>Node2&#45;&gt;Node3</title>
<path fill="none" stroke="#191970" d="M838.1714,-92.2498C846.6024,-91.515 855.1825,-90.7673 863.7222,-90.0231"/>
<polygon fill="#191970" stroke="#191970" points="864.0587,-93.5072 873.717,-89.1521 863.4509,-86.5336 864.0587,-93.5072"/>
</g>
<!-- Node4&#45;&gt;Node3 -->
<g id="edge5" class="edge">
<title>Node4&#45;&gt;Node3</title>
<path fill="none" stroke="#191970" d="M387.1776,-81.3546C514.0247,-81.1695 732.3833,-80.851 863.6777,-80.6595"/>
<polygon fill="#191970" stroke="#191970" points="863.7639,-84.1595 873.7588,-80.6448 863.7536,-77.1595 863.7639,-84.1595"/>
</g>
<!-- Node5 -->
<g id="node5" class="node">
<title>Node5</title>
<g id="a_node5"><a xlink:href="../../d5/d41/classKFParticleBase.html#a54fa32dca24a267d19ac11875a650f96" target="_top" xlink:title="KFParticleBase::GetField\lValue">
<polygon fill="none" stroke="#000000" points="449,-.5 449,-32.5 587,-32.5 587,-.5 449,-.5"/>
<text text-anchor="start" x="457" y="-19.5" font-family="FreeSans" font-size="10.00" fill="#000000">KFParticleBase::GetField</text>
<text text-anchor="middle" x="518" y="-7.5" font-family="FreeSans" font-size="10.00" fill="#000000">Value</text>
</a>
</g>
</g>
<!-- Node4&#45;&gt;Node5 -->
<g id="edge4" class="edge">
<title>Node4&#45;&gt;Node5</title>
<path fill="none" stroke="#191970" d="M323.0105,-71.4862C357.0315,-61.8924 409.2355,-47.1711 451.0685,-35.3744"/>
<polygon fill="#191970" stroke="#191970" points="452.2402,-38.6805 460.9149,-32.5977 450.3403,-31.9433 452.2402,-38.6805"/>
</g>
<!-- Node6 -->
<g id="node6" class="node">
<title>Node6</title>
<g id="a_node6"><a xlink:href="../../d5/d41/classKFParticleBase.html#adc56a774e8b806e9d7f0202d66d9e706" target="_top" xlink:title="KFParticleBase::GetDStoParticleBy">
<polygon fill="none" stroke="#000000" points="423,-90.5 423,-110.5 613,-110.5 613,-90.5 423,-90.5"/>
<text text-anchor="middle" x="518" y="-97.5" font-family="FreeSans" font-size="10.00" fill="#000000">KFParticleBase::GetDStoParticleBy</text>
</a>
</g>
</g>
<!-- Node4&#45;&gt;Node6 -->
<g id="edge6" class="edge">
<title>Node4&#45;&gt;Node6</title>
<path fill="none" stroke="#191970" d="M387.2601,-89.7232C395.6506,-90.4148 404.1526,-91.1156 412.584,-91.8106"/>
<polygon fill="#191970" stroke="#191970" points="412.5673,-95.321 422.8211,-92.6544 413.1424,-88.3447 412.5673,-95.321"/>
</g>
<!-- Node6&#45;&gt;Node2 -->
<g id="edge7" class="edge">
<title>Node6&#45;&gt;Node2</title>
<path fill="none" stroke="#191970" d="M613.3055,-100.5C621.6802,-100.5 630.1866,-100.5 638.6337,-100.5"/>
<polygon fill="#191970" stroke="#191970" points="638.8951,-104.0001 648.895,-100.5 638.895,-97.0001 638.8951,-104.0001"/>
</g>
</g>
</svg>
