<?xml version="1.0" encoding="UTF-8" standalone="no"?>
<!DOCTYPE svg PUBLIC "-//W3C//DTD SVG 1.1//EN"
 "http://www.w3.org/Graphics/SVG/1.1/DTD/svg11.dtd">
<!-- Generated by graphviz version 2.40.1 (20161225.0304)
 -->
<!-- Title: matscan Pages: 1 -->
<svg width="1135pt" height="1313pt"
 viewBox="0.00 0.00 1135.00 1313.00" xmlns="http://www.w3.org/2000/svg" xmlns:xlink="http://www.w3.org/1999/xlink">
<g id="graph0" class="graph" transform="scale(1 1) rotate(0) translate(4 1309)">
<title>matscan</title>
<!-- Node1 -->
<g id="node1" class="node">
<title>Node1</title>
<polygon fill="#bfbfbf" stroke="#000000" points="0,-1207.5 0,-1227.5 59,-1227.5 59,-1207.5 0,-1207.5"/>
<text text-anchor="middle" x="29.5" y="-1214.5" font-family="FreeSans" font-size="10.00" fill="#000000">matscan</text>
</g>
<!-- Node2 -->
<g id="node2" class="node">
<title>Node2</title>
<g id="a_node2"><a xlink:href="../../d0/d78/classPHG4Reco.html#a83fd9e9472f94d9a29be65df65e400ef" target="_top" xlink:title="interface to G4 cmd interpreter">
<polygon fill="none" stroke="#000000" points="102,-1284.5 102,-1304.5 258,-1304.5 258,-1284.5 102,-1284.5"/>
<text text-anchor="middle" x="180" y="-1291.5" font-family="FreeSans" font-size="10.00" fill="#000000">PHG4Reco::ApplyCommand</text>
</a>
</g>
</g>
<!-- Node1&#45;&gt;Node2 -->
<g id="edge1" class="edge">
<title>Node1&#45;&gt;Node2</title>
<path fill="none" stroke="#191970" d="M39.7225,-1227.7275C51.9053,-1239.3834 73.3474,-1258.2679 95,-1269.5 104.0118,-1274.1748 114.0265,-1278.1008 123.9282,-1281.3534"/>
<polygon fill="#191970" stroke="#191970" points="123.1633,-1284.7802 133.7508,-1284.3844 125.2274,-1278.0914 123.1633,-1284.7802"/>
</g>
<!-- Node4 -->
<g id="node4" class="node">
<title>Node4</title>
<g id="a_node4"><a xlink:href="../../da/d29/classFun4AllServer.html#ac6d47a2b3bc98933a03fd63bb75d624a" target="_top" xlink:title="Fun4AllServer::getSubsysReco">
<polygon fill="none" stroke="#000000" points="95,-1168.5 95,-1188.5 265,-1188.5 265,-1168.5 95,-1168.5"/>
<text text-anchor="middle" x="180" y="-1175.5" font-family="FreeSans" font-size="10.00" fill="#000000">Fun4AllServer::getSubsysReco</text>
</a>
</g>
</g>
<!-- Node1&#45;&gt;Node4 -->
<g id="edge3" class="edge">
<title>Node1&#45;&gt;Node4</title>
<path fill="none" stroke="#191970" d="M59.234,-1209.7949C79.7721,-1204.4727 107.556,-1197.2729 131.2965,-1191.1208"/>
<polygon fill="#191970" stroke="#191970" points="132.3883,-1194.4536 141.1905,-1188.5569 130.6323,-1187.6774 132.3883,-1194.4536"/>
</g>
<!-- Node6 -->
<g id="node6" class="node">
<title>Node6</title>
<g id="a_node6"><a xlink:href="../../d0/d78/classPHG4Reco.html#a9d8228ce8682c19cd6be2f6b44ec847b" target="_top" xlink:title="PHG4Reco::InitRun">
<polygon fill="none" stroke="#000000" points="125,-579.5 125,-599.5 235,-599.5 235,-579.5 125,-579.5"/>
<text text-anchor="middle" x="180" y="-586.5" font-family="FreeSans" font-size="10.00" fill="#000000">PHG4Reco::InitRun</text>
</a>
</g>
</g>
<!-- Node1&#45;&gt;Node6 -->
<g id="edge5" class="edge">
<title>Node1&#45;&gt;Node6</title>
<path fill="none" stroke="#191970" d="M31.925,-1207.3813C49.0354,-1135.9834 151.5868,-708.0616 175.1678,-609.6634"/>
<polygon fill="#191970" stroke="#191970" points="178.606,-610.3347 177.533,-599.7944 171.7987,-608.7033 178.606,-610.3347"/>
</g>
<!-- Node11 -->
<g id="node11" class="node">
<title>Node11</title>
<g id="a_node11"><a xlink:href="../../da/d29/classFun4AllServer.html#a3e55156f91b2c94bb6c4ef33ffce587a" target="_top" xlink:title="Fun4AllServer::instance">
<polygon fill="none" stroke="#000000" points="777,-923.5 777,-943.5 913,-943.5 913,-923.5 777,-923.5"/>
<text text-anchor="middle" x="845" y="-930.5" font-family="FreeSans" font-size="10.00" fill="#000000">Fun4AllServer::instance</text>
</a>
</g>
</g>
<!-- Node1&#45;&gt;Node11 -->
<g id="edge59" class="edge">
<title>Node1&#45;&gt;Node11</title>
<path fill="none" stroke="#191970" d="M59.286,-1225.2503C70.4105,-1227.7778 83.2047,-1230.2535 95,-1231.5 232.2358,-1246.0026 600.6539,-1307.258 716,-1231.5 814.3071,-1166.933 838.058,-1009.6893 843.4818,-953.7042"/>
<polygon fill="#191970" stroke="#191970" points="846.9775,-953.9048 844.3602,-943.6384 840.004,-953.2962 846.9775,-953.9048"/>
</g>
<!-- Node12 -->
<g id="node12" class="node">
<title>Node12</title>
<g id="a_node12"><a xlink:href="../../da/d29/classFun4AllServer.html#abcaf6825367e5db292ff795237bdcf62" target="_top" xlink:title="Fun4AllServer::topNode">
<polygon fill="none" stroke="#000000" points="777,-884.5 777,-904.5 913,-904.5 913,-884.5 777,-884.5"/>
<text text-anchor="middle" x="845" y="-891.5" font-family="FreeSans" font-size="10.00" fill="#000000">Fun4AllServer::topNode</text>
</a>
</g>
</g>
<!-- Node1&#45;&gt;Node12 -->
<g id="edge60" class="edge">
<title>Node1&#45;&gt;Node12</title>
<path fill="none" stroke="#191970" d="M59.0859,-1219.7181C178.044,-1227.967 619.6753,-1251.9512 716,-1161.5 796.8716,-1085.5596 676.2306,-995.5319 752,-914.5 756.4413,-909.7502 761.7165,-905.9884 767.464,-903.023"/>
<polygon fill="#191970" stroke="#191970" points="769.0307,-906.1592 776.8326,-898.9911 766.2635,-899.7293 769.0307,-906.1592"/>
</g>
<!-- Node3 -->
<g id="node3" class="node">
<title>Node3</title>
<g id="a_node3"><a xlink:href="../../d0/d78/classPHG4Reco.html#ad0f5beaf012e51404b712277818c6b36" target="_top" xlink:title="PHG4Reco::InitUImanager">
<polygon fill="none" stroke="#000000" points="329,-1284.5 329,-1304.5 477,-1304.5 477,-1284.5 329,-1284.5"/>
<text text-anchor="middle" x="403" y="-1291.5" font-family="FreeSans" font-size="10.00" fill="#000000">PHG4Reco::InitUImanager</text>
</a>
</g>
</g>
<!-- Node2&#45;&gt;Node3 -->
<g id="edge2" class="edge">
<title>Node2&#45;&gt;Node3</title>
<path fill="none" stroke="#191970" d="M258.3079,-1294.5C277.8651,-1294.5 298.9213,-1294.5 318.7523,-1294.5"/>
<polygon fill="#191970" stroke="#191970" points="318.9966,-1298.0001 328.9965,-1294.5 318.9965,-1291.0001 318.9966,-1298.0001"/>
</g>
<!-- Node5 -->
<g id="node5" class="node">
<title>Node5</title>
<g id="a_node5"><a xlink:href="../../d5/dec/classFun4AllBase.html#a8a5c77a92bdac6bc043476e132379a40" target="_top" xlink:title="Gets the verbosity of this module.">
<polygon fill="none" stroke="#000000" points="562.5,-1131.5 562.5,-1151.5 694.5,-1151.5 694.5,-1131.5 562.5,-1131.5"/>
<text text-anchor="middle" x="628.5" y="-1138.5" font-family="FreeSans" font-size="10.00" fill="#000000">Fun4AllBase::Verbosity</text>
</a>
</g>
</g>
<!-- Node4&#45;&gt;Node5 -->
<g id="edge4" class="edge">
<title>Node4&#45;&gt;Node5</title>
<path fill="none" stroke="#191970" d="M265.2734,-1173.4525C330.8744,-1169.3304 423.7487,-1162.977 505,-1155.5 520.2469,-1154.0969 536.5297,-1152.3961 552.1028,-1150.6703"/>
<polygon fill="#191970" stroke="#191970" points="552.6688,-1154.1289 562.2161,-1149.5355 551.8881,-1147.1725 552.6688,-1154.1289"/>
</g>
<!-- Node6&#45;&gt;Node5 -->
<g id="edge6" class="edge">
<title>Node6&#45;&gt;Node5</title>
<path fill="none" stroke="#191970" d="M180.7119,-599.9037C185.6082,-668.1327 216.6464,-1051.0515 301,-1122.5 337.5412,-1153.4508 467.3933,-1151.9376 552.1984,-1147.2556"/>
<polygon fill="#191970" stroke="#191970" points="552.5267,-1150.7425 562.3079,-1146.6709 552.1225,-1143.7542 552.5267,-1150.7425"/>
</g>
<!-- Node7 -->
<g id="node7" class="node">
<title>Node7</title>
<g id="a_node7"><a xlink:href="../../d8/d14/classrecoConsts.html#ae69a5c29a7199ba16d0e537158618802" target="_top" xlink:title="recoConsts::instance">
<polygon fill="none" stroke="#000000" points="342,-579.5 342,-599.5 464,-599.5 464,-579.5 342,-579.5"/>
<text text-anchor="middle" x="403" y="-586.5" font-family="FreeSans" font-size="10.00" fill="#000000">recoConsts::instance</text>
</a>
</g>
</g>
<!-- Node6&#45;&gt;Node7 -->
<g id="edge7" class="edge">
<title>Node6&#45;&gt;Node7</title>
<path fill="none" stroke="#191970" d="M235.1236,-589.5C264.2091,-589.5 300.2401,-589.5 331.4561,-589.5"/>
<polygon fill="#191970" stroke="#191970" points="331.8408,-593.0001 341.8408,-589.5 331.8407,-586.0001 331.8408,-593.0001"/>
</g>
<!-- Node9 -->
<g id="node9" class="node">
<title>Node9</title>
<g id="a_node9"><a xlink:href="../../d0/d78/classPHG4Reco.html#a66fc50f0871fbaf83b21edfa8ae98259" target="_top" xlink:title="PHG4Reco::InitField">
<polygon fill="none" stroke="#000000" points="345.5,-1092.5 345.5,-1112.5 460.5,-1112.5 460.5,-1092.5 345.5,-1092.5"/>
<text text-anchor="middle" x="403" y="-1099.5" font-family="FreeSans" font-size="10.00" fill="#000000">PHG4Reco::InitField</text>
</a>
</g>
</g>
<!-- Node6&#45;&gt;Node9 -->
<g id="edge9" class="edge">
<title>Node6&#45;&gt;Node9</title>
<path fill="none" stroke="#191970" d="M181.0286,-599.8559C187.6688,-664.589 226.5723,-1013.131 301,-1083.5 310.4915,-1092.4739 322.7902,-1097.8884 335.544,-1101.0399"/>
<polygon fill="#191970" stroke="#191970" points="334.8503,-1104.4704 345.3468,-1103.0303 336.2432,-1097.6104 334.8503,-1104.4704"/>
</g>
<!-- Node16 -->
<g id="node16" class="node">
<title>Node16</title>
<g id="a_node16"><a xlink:href="../../d5/dec/classFun4AllBase.html#a41f9ac377743d046f590617fd6f4f0ed" target="_top" xlink:title="Returns the name of this module.">
<polygon fill="none" stroke="#000000" points="345.5,-384.5 345.5,-404.5 460.5,-404.5 460.5,-384.5 345.5,-384.5"/>
<text text-anchor="middle" x="403" y="-391.5" font-family="FreeSans" font-size="10.00" fill="#000000">Fun4AllBase::Name</text>
</a>
</g>
</g>
<!-- Node6&#45;&gt;Node16 -->
<g id="edge18" class="edge">
<title>Node6&#45;&gt;Node16</title>
<path fill="none" stroke="#191970" d="M184.2192,-579.1441C196.956,-549.2485 238.053,-462.2223 301,-419.5 311.3563,-412.4711 323.4931,-407.4143 335.7106,-403.7772"/>
<polygon fill="#191970" stroke="#191970" points="336.7413,-407.1245 345.4938,-401.1542 334.9285,-400.3633 336.7413,-407.1245"/>
</g>
<!-- Node17 -->
<g id="node17" class="node">
<title>Node17</title>
<g id="a_node17"><a xlink:href="../../d0/d32/classSubsysReco.html#ac60499808487d0dcd1e127d262cf25f9" target="_top" xlink:title="SubsysReco::InitRun">
<polygon fill="none" stroke="#000000" points="344,-345.5 344,-365.5 462,-365.5 462,-345.5 344,-345.5"/>
<text text-anchor="middle" x="403" y="-352.5" font-family="FreeSans" font-size="10.00" fill="#000000">SubsysReco::InitRun</text>
</a>
</g>
</g>
<!-- Node6&#45;&gt;Node17 -->
<g id="edge19" class="edge">
<title>Node6&#45;&gt;Node17</title>
<path fill="none" stroke="#191970" d="M182.4289,-579.3369C191.3478,-544.3877 225.7661,-428.3437 301,-374.5 310.7272,-367.5384 322.2713,-362.91 334.0352,-359.8727"/>
<polygon fill="#191970" stroke="#191970" points="334.9276,-363.26 343.9336,-357.6794 333.4132,-356.4258 334.9276,-363.26"/>
</g>
<!-- Node18 -->
<g id="node18" class="node">
<title>Node18</title>
<g id="a_node18"><a xlink:href="../../d1/d13/classPHG4PhenixDetector.html#a4a700250d75ec02bcc1809c43f124a45" target="_top" xlink:title="PHG4PhenixDetector\l::Verbosity">
<polygon fill="none" stroke="#000000" points="342,-294.5 342,-326.5 464,-326.5 464,-294.5 342,-294.5"/>
<text text-anchor="start" x="350" y="-313.5" font-family="FreeSans" font-size="10.00" fill="#000000">PHG4PhenixDetector</text>
<text text-anchor="middle" x="403" y="-301.5" font-family="FreeSans" font-size="10.00" fill="#000000">::Verbosity</text>
</a>
</g>
</g>
<!-- Node6&#45;&gt;Node18 -->
<g id="edge20" class="edge">
<title>Node6&#45;&gt;Node18</title>
<path fill="none" stroke="#191970" d="M181.6535,-579.3484C188.4695,-540.9062 218.0441,-403.0361 301,-335.5 309.9674,-328.1995 320.7519,-322.9818 331.9029,-319.2631"/>
<polygon fill="#191970" stroke="#191970" points="333.1526,-322.5439 341.76,-316.3664 331.1789,-315.8279 333.1526,-322.5439"/>
</g>
<!-- Node19 -->
<g id="node19" class="node">
<title>Node19</title>
<g id="a_node19"><a xlink:href="../../d1/d13/classPHG4PhenixDetector.html#a375bd9d82edcae5f21f39e319f3044b2" target="_top" xlink:title="PHG4PhenixDetector\l::SetWorldSizeX">
<polygon fill="none" stroke="#000000" points="342,-243.5 342,-275.5 464,-275.5 464,-243.5 342,-243.5"/>
<text text-anchor="start" x="350" y="-262.5" font-family="FreeSans" font-size="10.00" fill="#000000">PHG4PhenixDetector</text>
<text text-anchor="middle" x="403" y="-250.5" font-family="FreeSans" font-size="10.00" fill="#000000">::SetWorldSizeX</text>
</a>
</g>
</g>
<!-- Node6&#45;&gt;Node19 -->
<g id="edge21" class="edge">
<title>Node6&#45;&gt;Node19</title>
<path fill="none" stroke="#191970" d="M180.7645,-579.4759C184.5853,-536.6908 205.4369,-367.7657 301,-284.5 309.9137,-276.7334 320.856,-271.2973 332.2273,-267.5094"/>
<polygon fill="#191970" stroke="#191970" points="333.2274,-270.8636 341.845,-264.7002 331.2647,-264.1444 333.2274,-270.8636"/>
</g>
<!-- Node20 -->
<g id="node20" class="node">
<title>Node20</title>
<g id="a_node20"><a xlink:href="../../d1/d13/classPHG4PhenixDetector.html#a74db49898240516c4136bbbdedcff188" target="_top" xlink:title="PHG4PhenixDetector\l::SetWorldSizeY">
<polygon fill="none" stroke="#000000" points="342,-192.5 342,-224.5 464,-224.5 464,-192.5 342,-192.5"/>
<text text-anchor="start" x="350" y="-211.5" font-family="FreeSans" font-size="10.00" fill="#000000">PHG4PhenixDetector</text>
<text text-anchor="middle" x="403" y="-199.5" font-family="FreeSans" font-size="10.00" fill="#000000">::SetWorldSizeY</text>
</a>
</g>
</g>
<!-- Node6&#45;&gt;Node20 -->
<g id="edge22" class="edge">
<title>Node6&#45;&gt;Node20</title>
<path fill="none" stroke="#191970" d="M182.0568,-579.4595C193.0193,-526.8815 246.1338,-283.775 301,-233.5 309.7691,-225.4647 320.6924,-219.9012 332.1025,-216.0715"/>
<polygon fill="#191970" stroke="#191970" points="333.1492,-219.4121 341.765,-213.2461 331.1846,-212.6934 333.1492,-219.4121"/>
</g>
<!-- Node21 -->
<g id="node21" class="node">
<title>Node21</title>
<g id="a_node21"><a xlink:href="../../d1/d13/classPHG4PhenixDetector.html#a7de4106257c7435e45acb3579177c3c4" target="_top" xlink:title="PHG4PhenixDetector\l::SetWorldSizeZ">
<polygon fill="none" stroke="#000000" points="342,-141.5 342,-173.5 464,-173.5 464,-141.5 342,-141.5"/>
<text text-anchor="start" x="350" y="-160.5" font-family="FreeSans" font-size="10.00" fill="#000000">PHG4PhenixDetector</text>
<text text-anchor="middle" x="403" y="-148.5" font-family="FreeSans" font-size="10.00" fill="#000000">::SetWorldSizeZ</text>
</a>
</g>
</g>
<!-- Node6&#45;&gt;Node21 -->
<g id="edge23" class="edge">
<title>Node6&#45;&gt;Node21</title>
<path fill="none" stroke="#191970" d="M181.6523,-579.1948C191.0736,-521.6782 239.7501,-240.8423 301,-182.5 309.6637,-174.2476 320.5884,-168.5833 332.0456,-164.7225"/>
<polygon fill="#191970" stroke="#191970" points="333.1391,-168.0494 341.7569,-161.8864 331.1767,-161.3301 333.1391,-168.0494"/>
</g>
<!-- Node22 -->
<g id="node22" class="node">
<title>Node22</title>
<g id="a_node22"><a xlink:href="../../d1/d13/classPHG4PhenixDetector.html#a570bf81e75c124d0d3d80040fc69ca8b" target="_top" xlink:title="PHG4PhenixDetector\l::SetWorldShape">
<polygon fill="none" stroke="#000000" points="342,-90.5 342,-122.5 464,-122.5 464,-90.5 342,-90.5"/>
<text text-anchor="start" x="350" y="-109.5" font-family="FreeSans" font-size="10.00" fill="#000000">PHG4PhenixDetector</text>
<text text-anchor="middle" x="403" y="-97.5" font-family="FreeSans" font-size="10.00" fill="#000000">::SetWorldShape</text>
</a>
</g>
</g>
<!-- Node6&#45;&gt;Node22 -->
<g id="edge24" class="edge">
<title>Node6&#45;&gt;Node22</title>
<path fill="none" stroke="#191970" d="M181.2976,-579.154C189.2431,-517.4153 233.2328,-198.0629 301,-131.5 309.5869,-123.0657 320.528,-117.3189 332.0381,-113.4344"/>
<polygon fill="#191970" stroke="#191970" points="333.1787,-116.7477 341.8013,-110.5913 331.2215,-110.0269 333.1787,-116.7477"/>
</g>
<!-- Node23 -->
<g id="node23" class="node">
<title>Node23</title>
<g id="a_node23"><a xlink:href="../../d1/d13/classPHG4PhenixDetector.html#acdba581a56ceb2717c1553449802b153" target="_top" xlink:title="PHG4PhenixDetector\l::SetWorldMaterial">
<polygon fill="none" stroke="#000000" points="342,-39.5 342,-71.5 464,-71.5 464,-39.5 342,-39.5"/>
<text text-anchor="start" x="350" y="-58.5" font-family="FreeSans" font-size="10.00" fill="#000000">PHG4PhenixDetector</text>
<text text-anchor="middle" x="403" y="-46.5" font-family="FreeSans" font-size="10.00" fill="#000000">::SetWorldMaterial</text>
</a>
</g>
</g>
<!-- Node6&#45;&gt;Node23 -->
<g id="edge25" class="edge">
<title>Node6&#45;&gt;Node23</title>
<path fill="none" stroke="#191970" d="M180.9908,-579.314C187.5353,-514.0955 226.5968,-155.4236 301,-80.5 309.5314,-71.9089 320.5001,-66.0927 332.0676,-62.1898"/>
<polygon fill="#191970" stroke="#191970" points="333.2555,-65.4895 341.8847,-59.3424 331.3056,-58.7666 333.2555,-65.4895"/>
</g>
<!-- Node24 -->
<g id="node24" class="node">
<title>Node24</title>
<g id="a_node24"><a xlink:href="../../d1/da8/classPHFlag.html#a88212f810275c61464d51caa3cd4d1e1" target="_top" xlink:title="PHFlag::set_FloatFlag">
<polygon fill="none" stroke="#000000" points="341,-.5 341,-20.5 465,-20.5 465,-.5 341,-.5"/>
<text text-anchor="middle" x="403" y="-7.5" font-family="FreeSans" font-size="10.00" fill="#000000">PHFlag::set_FloatFlag</text>
</a>
</g>
</g>
<!-- Node6&#45;&gt;Node24 -->
<g id="edge26" class="edge">
<title>Node6&#45;&gt;Node24</title>
<path fill="none" stroke="#191970" d="M180.7098,-579.1583C185.6956,-509.6143 217.719,-110.4296 301,-29.5 309.2928,-21.4413 319.8406,-16.2295 330.9908,-12.9435"/>
<polygon fill="#191970" stroke="#191970" points="332.0159,-16.2963 340.9031,-10.5285 330.3588,-9.4952 332.0159,-16.2963"/>
</g>
<!-- Node25 -->
<g id="node25" class="node">
<title>Node25</title>
<g id="a_node25"><a xlink:href="../../db/df7/classPHG4Subsystem.html#afcc011c14ac7853b01796ebbb26c8512" target="_top" xlink:title="return pointer to created detector object">
<polygon fill="none" stroke="#000000" points="318.5,-1053.5 318.5,-1073.5 487.5,-1073.5 487.5,-1053.5 318.5,-1053.5"/>
<text text-anchor="middle" x="403" y="-1060.5" font-family="FreeSans" font-size="10.00" fill="#000000">PHG4Subsystem::GetDetector</text>
</a>
</g>
</g>
<!-- Node6&#45;&gt;Node25 -->
<g id="edge27" class="edge">
<title>Node6&#45;&gt;Node25</title>
<path fill="none" stroke="#191970" d="M181.2556,-599.8339C188.9561,-661.4927 231.7634,-980.3193 301,-1044.5 303.6565,-1046.9625 306.525,-1049.1554 309.5559,-1051.1058"/>
<polygon fill="#191970" stroke="#191970" points="308.032,-1054.2615 318.486,-1055.983 311.3873,-1048.118 308.032,-1054.2615"/>
</g>
<!-- Node26 -->
<g id="node26" class="node">
<title>Node26</title>
<g id="a_node26"><a xlink:href="../../d1/d13/classPHG4PhenixDetector.html#a2e9d45f2c881b6c9ced3b3031333f1b6" target="_top" xlink:title="register a detector. This is called in PHG4Reco::Init based on which detectors are found on the tree...">
<polygon fill="none" stroke="#000000" points="342,-1002.5 342,-1034.5 464,-1034.5 464,-1002.5 342,-1002.5"/>
<text text-anchor="start" x="350" y="-1021.5" font-family="FreeSans" font-size="10.00" fill="#000000">PHG4PhenixDetector</text>
<text text-anchor="middle" x="403" y="-1009.5" font-family="FreeSans" font-size="10.00" fill="#000000">::AddDetector</text>
</a>
</g>
</g>
<!-- Node6&#45;&gt;Node26 -->
<g id="edge28" class="edge">
<title>Node6&#45;&gt;Node26</title>
<path fill="none" stroke="#191970" d="M181.6638,-599.7301C191.1473,-656.8274 240.1061,-935.6144 301,-993.5 309.6721,-1001.7437 320.6009,-1007.4037 332.0595,-1011.263"/>
<polygon fill="#191970" stroke="#191970" points="331.1912,-1014.6555 341.7714,-1014.0984 333.1531,-1007.936 331.1912,-1014.6555"/>
</g>
<!-- Node27 -->
<g id="node27" class="node">
<title>Node27</title>
<g id="a_node27"><a xlink:href="../../d0/d78/classPHG4Reco.html#af0c0ba5027360ea57d9ee31bc949e4dd" target="_top" xlink:title="PHG4Reco::setupInputEvent\lNodeReader">
<polygon fill="none" stroke="#000000" points="549,-414.5 549,-446.5 708,-446.5 708,-414.5 549,-414.5"/>
<text text-anchor="start" x="557" y="-433.5" font-family="FreeSans" font-size="10.00" fill="#000000">PHG4Reco::setupInputEvent</text>
<text text-anchor="middle" x="628.5" y="-421.5" font-family="FreeSans" font-size="10.00" fill="#000000">NodeReader</text>
</a>
</g>
</g>
<!-- Node6&#45;&gt;Node27 -->
<g id="edge29" class="edge">
<title>Node6&#45;&gt;Node27</title>
<path fill="none" stroke="#191970" d="M185.3316,-579.1655C199.7372,-552.4829 242.3435,-481.3573 301,-452.5 374.9268,-416.1301 469.8088,-413.8237 538.3977,-418.7057"/>
<polygon fill="#191970" stroke="#191970" points="538.505,-422.2245 548.7464,-419.5107 539.048,-415.2456 538.505,-422.2245"/>
</g>
<!-- Node31 -->
<g id="node31" class="node">
<title>Node31</title>
<g id="a_node31"><a xlink:href="../../db/df7/classPHG4Subsystem.html#aee1a94900ddad7d524715eee1de85343" target="_top" xlink:title="return pointer to this subsystem event action">
<polygon fill="none" stroke="#000000" points="310.5,-963.5 310.5,-983.5 495.5,-983.5 495.5,-963.5 310.5,-963.5"/>
<text text-anchor="middle" x="403" y="-970.5" font-family="FreeSans" font-size="10.00" fill="#000000">PHG4Subsystem::GetEventAction</text>
</a>
</g>
</g>
<!-- Node6&#45;&gt;Node31 -->
<g id="edge35" class="edge">
<title>Node6&#45;&gt;Node31</title>
<path fill="none" stroke="#191970" d="M181.9678,-599.8485C192.4769,-654.032 243.6545,-904.4645 301,-954.5 302.353,-955.6806 303.7554,-956.798 305.2011,-957.8554"/>
<polygon fill="#191970" stroke="#191970" points="303.5751,-960.9659 313.9147,-963.2772 307.2732,-955.0224 303.5751,-960.9659"/>
</g>
<!-- Node32 -->
<g id="node32" class="node">
<title>Node32</title>
<g id="a_node32"><a xlink:href="../../d9/d7a/classPHG4PhenixEventAction.html#a715e0072dfcc8b3cf9434e77ee0858f6" target="_top" xlink:title="register an action. This is called in PHG4Reco::Init based on which actions are found on the tree...">
<polygon fill="none" stroke="#000000" points="333.5,-912.5 333.5,-944.5 472.5,-944.5 472.5,-912.5 333.5,-912.5"/>
<text text-anchor="start" x="341.5" y="-931.5" font-family="FreeSans" font-size="10.00" fill="#000000">PHG4PhenixEventAction</text>
<text text-anchor="middle" x="403" y="-919.5" font-family="FreeSans" font-size="10.00" fill="#000000">::AddAction</text>
</a>
</g>
</g>
<!-- Node6&#45;&gt;Node32 -->
<g id="edge36" class="edge">
<title>Node6&#45;&gt;Node32</title>
<path fill="none" stroke="#191970" d="M180.6381,-599.5173C183.9703,-643.046 203.1987,-817.432 301,-903.5 307.6629,-909.3635 315.48,-913.9011 323.7715,-917.4049"/>
<polygon fill="#191970" stroke="#191970" points="322.7051,-920.7423 333.2981,-920.9372 325.1387,-914.1789 322.7051,-920.7423"/>
</g>
<!-- Node33 -->
<g id="node33" class="node">
<title>Node33</title>
<g id="a_node33"><a xlink:href="../../db/df7/classPHG4Subsystem.html#ae6c6f2bb38572d697d711cbe425bf263" target="_top" xlink:title="return pointer to this subsystem stepping action">
<polygon fill="none" stroke="#000000" points="318,-861.5 318,-893.5 488,-893.5 488,-861.5 318,-861.5"/>
<text text-anchor="start" x="326" y="-880.5" font-family="FreeSans" font-size="10.00" fill="#000000">PHG4Subsystem::GetStepping</text>
<text text-anchor="middle" x="403" y="-868.5" font-family="FreeSans" font-size="10.00" fill="#000000">Action</text>
</a>
</g>
</g>
<!-- Node6&#45;&gt;Node33 -->
<g id="edge37" class="edge">
<title>Node6&#45;&gt;Node33</title>
<path fill="none" stroke="#191970" d="M181.4888,-599.7321C187.7812,-639.1255 215.9134,-782.2782 301,-852.5 303.5663,-854.618 306.2851,-856.561 309.1216,-858.3433"/>
<polygon fill="#191970" stroke="#191970" points="307.5041,-861.4483 317.9493,-863.2222 310.8901,-855.3217 307.5041,-861.4483"/>
</g>
<!-- Node34 -->
<g id="node34" class="node">
<title>Node34</title>
<g id="a_node34"><a xlink:href="../../d1/d53/classPHG4PhenixSteppingAction.html#afead1d30da1e7c68616987bdf711a25b" target="_top" xlink:title="register an action. This is called in PHG4Reco::Init based on which actions are found on the tree...">
<polygon fill="none" stroke="#000000" points="325.5,-810.5 325.5,-842.5 480.5,-842.5 480.5,-810.5 325.5,-810.5"/>
<text text-anchor="start" x="333.5" y="-829.5" font-family="FreeSans" font-size="10.00" fill="#000000">PHG4PhenixSteppingAction</text>
<text text-anchor="middle" x="403" y="-817.5" font-family="FreeSans" font-size="10.00" fill="#000000">::AddAction</text>
</a>
</g>
</g>
<!-- Node6&#45;&gt;Node34 -->
<g id="edge38" class="edge">
<title>Node6&#45;&gt;Node34</title>
<path fill="none" stroke="#191970" d="M182.7195,-599.8494C192.3546,-634.3932 228.26,-746.6309 301,-801.5 305.6624,-805.0169 310.7549,-808.0451 316.0969,-810.6519"/>
<polygon fill="#191970" stroke="#191970" points="314.7248,-813.8718 325.2908,-814.6529 317.518,-807.4532 314.7248,-813.8718"/>
</g>
<!-- Node35 -->
<g id="node35" class="node">
<title>Node35</title>
<g id="a_node35"><a xlink:href="../../d0/ddf/classPHG4PhenixTrackingAction.html#a300a79aafe903fda71e3683cc873f1a8" target="_top" xlink:title="register an action. This is called in PHG4Reco::Init based on which actions are found on the tree...">
<polygon fill="none" stroke="#000000" points="327,-759.5 327,-791.5 479,-791.5 479,-759.5 327,-759.5"/>
<text text-anchor="start" x="335" y="-778.5" font-family="FreeSans" font-size="10.00" fill="#000000">PHG4PhenixTrackingAction</text>
<text text-anchor="middle" x="403" y="-766.5" font-family="FreeSans" font-size="10.00" fill="#000000">::AddAction</text>
</a>
</g>
</g>
<!-- Node6&#45;&gt;Node35 -->
<g id="edge39" class="edge">
<title>Node6&#45;&gt;Node35</title>
<path fill="none" stroke="#191970" d="M184.5703,-599.7174C197.9554,-628.4105 240.0072,-710.2484 301,-750.5 306.1929,-753.927 311.8139,-756.8846 317.6565,-759.4371"/>
<polygon fill="#191970" stroke="#191970" points="316.4038,-762.7054 326.9904,-763.1238 318.9754,-756.1948 316.4038,-762.7054"/>
</g>
<!-- Node36 -->
<g id="node36" class="node">
<title>Node36</title>
<g id="a_node36"><a xlink:href="../../db/df7/classPHG4Subsystem.html#a8849b3410711577ec2e793987144ab69" target="_top" xlink:title="return pointer to this subsystem stepping action">
<polygon fill="none" stroke="#000000" points="319.5,-708.5 319.5,-740.5 486.5,-740.5 486.5,-708.5 319.5,-708.5"/>
<text text-anchor="start" x="327.5" y="-727.5" font-family="FreeSans" font-size="10.00" fill="#000000">PHG4Subsystem::GetTracking</text>
<text text-anchor="middle" x="403" y="-715.5" font-family="FreeSans" font-size="10.00" fill="#000000">Action</text>
</a>
</g>
</g>
<!-- Node6&#45;&gt;Node36 -->
<g id="edge40" class="edge">
<title>Node6&#45;&gt;Node36</title>
<path fill="none" stroke="#191970" d="M188.1772,-599.8137C206.1321,-621.7305 251.3779,-673.0903 301,-699.5 304.5208,-701.3738 308.1846,-703.1099 311.9413,-704.7182"/>
<polygon fill="#191970" stroke="#191970" points="310.8553,-708.0521 321.4424,-708.4582 313.4194,-701.5385 310.8553,-708.0521"/>
</g>
<!-- Node37 -->
<g id="node37" class="node">
<title>Node37</title>
<g id="a_node37"><a xlink:href="../../d3/d64/classPHG4UIsession.html#a6c62aa280017bbed8399feaa21c1b342" target="_top" xlink:title="PHG4UIsession::Verbosity">
<polygon fill="none" stroke="#000000" points="330,-669.5 330,-689.5 476,-689.5 476,-669.5 330,-669.5"/>
<text text-anchor="middle" x="403" y="-676.5" font-family="FreeSans" font-size="10.00" fill="#000000">PHG4UIsession::Verbosity</text>
</a>
</g>
</g>
<!-- Node6&#45;&gt;Node37 -->
<g id="edge41" class="edge">
<title>Node6&#45;&gt;Node37</title>
<path fill="none" stroke="#191970" d="M193.7198,-599.7235C215.3551,-615.3259 259.2444,-644.9068 301,-660.5 307.6708,-662.9911 314.7136,-665.166 321.8544,-667.0628"/>
<polygon fill="#191970" stroke="#191970" points="321.0791,-670.4764 331.627,-669.4806 322.7603,-663.6813 321.0791,-670.4764"/>
</g>
<!-- Node38 -->
<g id="node38" class="node">
<title>Node38</title>
<g id="a_node38"><a xlink:href="../../d2/da1/classPHGeomUtility.html#a3130e3b42131e3f048aa7586829192c5" target="_top" xlink:title="PHGeomUtility::GenerateGeometry\lFileName">
<polygon fill="none" stroke="#000000" points="306,-618.5 306,-650.5 500,-650.5 500,-618.5 306,-618.5"/>
<text text-anchor="start" x="314" y="-637.5" font-family="FreeSans" font-size="10.00" fill="#000000">PHGeomUtility::GenerateGeometry</text>
<text text-anchor="middle" x="403" y="-625.5" font-family="FreeSans" font-size="10.00" fill="#000000">FileName</text>
</a>
</g>
</g>
<!-- Node6&#45;&gt;Node38 -->
<g id="edge42" class="edge">
<title>Node6&#45;&gt;Node38</title>
<path fill="none" stroke="#191970" d="M229.768,-599.5429C254.4558,-604.5247 285.0396,-610.6963 313.6064,-616.4609"/>
<polygon fill="#191970" stroke="#191970" points="313.119,-619.9331 323.6138,-618.4804 314.5037,-613.0714 313.119,-619.9331"/>
</g>
<!-- Node39 -->
<g id="node39" class="node">
<title>Node39</title>
<g id="a_node39"><a xlink:href="../../d0/d78/classPHG4Reco.html#a490f5037508d384c5b60855ef0f7e227" target="_top" xlink:title="PHG4Reco::Dump_GDML">
<polygon fill="none" stroke="#000000" points="332.5,-540.5 332.5,-560.5 473.5,-560.5 473.5,-540.5 332.5,-540.5"/>
<text text-anchor="middle" x="403" y="-547.5" font-family="FreeSans" font-size="10.00" fill="#000000">PHG4Reco::Dump_GDML</text>
</a>
</g>
</g>
<!-- Node6&#45;&gt;Node39 -->
<g id="edge43" class="edge">
<title>Node6&#45;&gt;Node39</title>
<path fill="none" stroke="#191970" d="M235.1236,-579.8595C265.4994,-574.5472 303.4506,-567.91 335.581,-562.2908"/>
<polygon fill="#191970" stroke="#191970" points="336.5439,-565.6756 345.7914,-560.5051 335.338,-558.7802 336.5439,-565.6756"/>
</g>
<!-- Node45 -->
<g id="node45" class="node">
<title>Node45</title>
<g id="a_node45"><a xlink:href="../../d2/da1/classPHGeomUtility.html#a4a80252bedb22198d011065e41aa669e" target="_top" xlink:title="TGeo ROOT/GDML/Macro file &#45;&gt; DST node with automatic file type discrimination based on file names...">
<polygon fill="none" stroke="#000000" points="315,-501.5 315,-521.5 491,-521.5 491,-501.5 315,-501.5"/>
<text text-anchor="middle" x="403" y="-508.5" font-family="FreeSans" font-size="10.00" fill="#000000">PHGeomUtility::ImportGeomFile</text>
</a>
</g>
</g>
<!-- Node6&#45;&gt;Node45 -->
<g id="edge51" class="edge">
<title>Node6&#45;&gt;Node45</title>
<path fill="none" stroke="#191970" d="M197.4488,-579.3881C220.4544,-566.4705 262.5272,-544.2624 301,-531.5 309.8984,-528.5482 319.386,-525.9707 328.8572,-523.7373"/>
<polygon fill="#191970" stroke="#191970" points="329.7029,-527.1347 338.6958,-521.5331 328.1725,-520.304 329.7029,-527.1347"/>
</g>
<!-- Node50 -->
<g id="node50" class="node">
<title>Node50</title>
<g id="a_node50"><a xlink:href="../../d2/da1/classPHGeomUtility.html#af9c141256e014a36b8af77075894b41f" target="_top" xlink:title="delete the geometry file after use">
<polygon fill="none" stroke="#000000" points="301,-462.5 301,-482.5 505,-482.5 505,-462.5 301,-462.5"/>
<text text-anchor="middle" x="403" y="-469.5" font-family="FreeSans" font-size="10.00" fill="#000000">PHGeomUtility::RemoveGeometryFile</text>
</a>
</g>
</g>
<!-- Node6&#45;&gt;Node50 -->
<g id="edge58" class="edge">
<title>Node6&#45;&gt;Node50</title>
<path fill="none" stroke="#191970" d="M189.1841,-579.2221C207.9853,-558.8896 253.1393,-513.5927 301,-491.5 305.9064,-489.2352 311.0636,-487.2403 316.3455,-485.4831"/>
<polygon fill="#191970" stroke="#191970" points="317.4047,-488.8194 325.9602,-482.57 315.3749,-482.1201 317.4047,-488.8194"/>
</g>
<!-- Node8 -->
<g id="node8" class="node">
<title>Node8</title>
<g id="a_node8"><a xlink:href="../../d8/d14/classrecoConsts.html#ae882d6adc62f783ec78114fe3dee3c24" target="_top" xlink:title="recoConsts::recoConsts">
<polygon fill="none" stroke="#000000" points="561,-675.5 561,-695.5 696,-695.5 696,-675.5 561,-675.5"/>
<text text-anchor="middle" x="628.5" y="-682.5" font-family="FreeSans" font-size="10.00" fill="#000000">recoConsts::recoConsts</text>
</a>
</g>
</g>
<!-- Node7&#45;&gt;Node8 -->
<g id="edge8" class="edge">
<title>Node7&#45;&gt;Node8</title>
<path fill="none" stroke="#191970" d="M464.1878,-593.2369C478.4818,-596.2671 493.0152,-601.291 505,-609.5 529.7202,-626.432 516.4521,-649.3192 541,-666.5 544.2734,-668.7911 547.7716,-670.8136 551.4164,-672.5984"/>
<polygon fill="#191970" stroke="#191970" points="550.1618,-675.8682 560.7339,-676.563 552.9026,-669.427 550.1618,-675.8682"/>
</g>
<!-- Node9&#45;&gt;Node5 -->
<g id="edge10" class="edge">
<title>Node9&#45;&gt;Node5</title>
<path fill="none" stroke="#191970" d="M460.779,-1112.4928C491.1584,-1117.7469 528.5872,-1124.2202 560.3737,-1129.7176"/>
<polygon fill="#191970" stroke="#191970" points="560.0294,-1133.21 570.4797,-1131.4654 561.2224,-1126.3124 560.0294,-1133.21"/>
</g>
<!-- Node10 -->
<g id="node10" class="node">
<title>Node10</title>
<g id="a_node10"><a xlink:href="../../df/d4d/classPHFieldUtility.html#a3afdd4e878d02b30b6f2c396e52b8e48" target="_top" xlink:title="Get transient PHField from DST nodes. If not found, make a new one based on default_config.">
<polygon fill="none" stroke="#000000" points="563.5,-898.5 563.5,-930.5 693.5,-930.5 693.5,-898.5 563.5,-898.5"/>
<text text-anchor="start" x="571.5" y="-917.5" font-family="FreeSans" font-size="10.00" fill="#000000">PHFieldUtility::GetField</text>
<text text-anchor="middle" x="628.5" y="-905.5" font-family="FreeSans" font-size="10.00" fill="#000000">MapNode</text>
</a>
</g>
</g>
<!-- Node9&#45;&gt;Node10 -->
<g id="edge11" class="edge">
<title>Node9&#45;&gt;Node10</title>
<path fill="none" stroke="#191970" d="M460.593,-1099.4604C475.8946,-1096.663 491.8148,-1091.8021 505,-1083.5 560.8931,-1048.3066 599.6738,-977.8964 617.4664,-940.0172"/>
<polygon fill="#191970" stroke="#191970" points="620.7558,-941.2399 621.7307,-930.69 614.3896,-938.3293 620.7558,-941.2399"/>
</g>
<!-- Node10&#45;&gt;Node11 -->
<g id="edge12" class="edge">
<title>Node10&#45;&gt;Node11</title>
<path fill="none" stroke="#191970" d="M693.7507,-920.2264C716.7376,-922.2437 742.8133,-924.5321 766.7614,-926.6338"/>
<polygon fill="#191970" stroke="#191970" points="766.6116,-930.134 776.8793,-927.5217 767.2236,-923.1608 766.6116,-930.134"/>
</g>
<!-- Node10&#45;&gt;Node12 -->
<g id="edge13" class="edge">
<title>Node10&#45;&gt;Node12</title>
<path fill="none" stroke="#191970" d="M693.7507,-908.4722C716.7376,-906.3487 742.8133,-903.9399 766.7614,-901.7276"/>
<polygon fill="#191970" stroke="#191970" points="767.2437,-905.198 776.8793,-900.7929 766.5997,-898.2277 767.2437,-905.198"/>
</g>
<!-- Node13 -->
<g id="node13" class="node">
<title>Node13</title>
<g id="a_node13"><a xlink:href="../../d5/d07/classPHNodeIterator.html#aea98bf8619af59b1212a94fb32106baa" target="_top" xlink:title="PHNodeIterator::findFirst">
<polygon fill="none" stroke="#000000" points="774.5,-580.5 774.5,-600.5 915.5,-600.5 915.5,-580.5 774.5,-580.5"/>
<text text-anchor="middle" x="845" y="-587.5" font-family="FreeSans" font-size="10.00" fill="#000000">PHNodeIterator::findFirst</text>
</a>
</g>
</g>
<!-- Node10&#45;&gt;Node13 -->
<g id="edge14" class="edge">
<title>Node10&#45;&gt;Node13</title>
<path fill="none" stroke="#191970" d="M635.3342,-898.2201C660.4865,-838.3627 746.7261,-633.6708 752,-628.5 763.0297,-617.6858 777.5583,-609.806 791.8447,-604.1247"/>
<polygon fill="#191970" stroke="#191970" points="793.4642,-607.259 801.6507,-600.5336 791.057,-600.6859 793.4642,-607.259"/>
</g>
<!-- Node13&#45;&gt;Node13 -->
<g id="edge17" class="edge">
<title>Node13&#45;&gt;Node13</title>
<path fill="none" stroke="#191970" d="M813.0627,-600.7271C798.4949,-609.6067 809.1406,-619 845,-619 870.2136,-619 882.962,-614.3561 883.2452,-608.5121"/>
<polygon fill="#191970" stroke="#191970" points="885.9521,-606.2933 876.9373,-600.7271 880.5134,-610.7002 885.9521,-606.2933"/>
</g>
<!-- Node14 -->
<g id="node14" class="node">
<title>Node14</title>
<g id="a_node14"><a xlink:href="../../dc/d82/classPHNode.html#a4ab1f90aed955a652813bfe377087bda" target="_top" xlink:title="PHNode::getType">
<polygon fill="none" stroke="#000000" points="999,-580.5 999,-600.5 1102,-600.5 1102,-580.5 999,-580.5"/>
<text text-anchor="middle" x="1050.5" y="-587.5" font-family="FreeSans" font-size="10.00" fill="#000000">PHNode::getType</text>
</a>
</g>
</g>
<!-- Node13&#45;&gt;Node14 -->
<g id="edge15" class="edge">
<title>Node13&#45;&gt;Node14</title>
<path fill="none" stroke="#191970" d="M915.7214,-590.5C939.3816,-590.5 965.5593,-590.5 988.502,-590.5"/>
<polygon fill="#191970" stroke="#191970" points="988.795,-594.0001 998.795,-590.5 988.795,-587.0001 988.795,-594.0001"/>
</g>
<!-- Node15 -->
<g id="node15" class="node">
<title>Node15</title>
<g id="a_node15"><a xlink:href="../../dc/d82/classPHNode.html#aca3576f926a4401eddc3d88bf0ce0de3" target="_top" xlink:title="PHNode::getName">
<polygon fill="none" stroke="#000000" points="996,-531.5 996,-551.5 1105,-551.5 1105,-531.5 996,-531.5"/>
<text text-anchor="middle" x="1050.5" y="-538.5" font-family="FreeSans" font-size="10.00" fill="#000000">PHNode::getName</text>
</a>
</g>
</g>
<!-- Node13&#45;&gt;Node15 -->
<g id="edge16" class="edge">
<title>Node13&#45;&gt;Node15</title>
<path fill="none" stroke="#191970" d="M896.77,-580.4882C910.2289,-577.7309 924.6857,-574.6324 938,-571.5 960.236,-566.2686 984.7629,-559.8099 1005.2251,-554.2268"/>
<polygon fill="#191970" stroke="#191970" points="1006.1997,-557.5888 1014.9158,-551.5656 1004.3459,-550.8387 1006.1997,-557.5888"/>
</g>
<!-- Node27&#45;&gt;Node13 -->
<g id="edge30" class="edge">
<title>Node27&#45;&gt;Node13</title>
<path fill="none" stroke="#191970" d="M704.3456,-446.5547C708.5609,-449.1151 712.4979,-452.0762 716,-455.5 754.5998,-493.2364 711.9805,-535.2728 752,-571.5 755.8713,-575.0045 760.2091,-577.9325 764.8386,-580.373"/>
<polygon fill="#191970" stroke="#191970" points="763.497,-583.607 774.0551,-584.489 766.3515,-577.2154 763.497,-583.607"/>
</g>
<!-- Node28 -->
<g id="node28" class="node">
<title>Node28</title>
<g id="a_node28"><a xlink:href="../../d5/dca/classPHCompositeNode.html#a15a0c4804399a9de4267647f05bd1ba4" target="_top" xlink:title="PHCompositeNode::addNode">
<polygon fill="none" stroke="#000000" points="764,-449.5 764,-469.5 926,-469.5 926,-449.5 764,-449.5"/>
<text text-anchor="middle" x="845" y="-456.5" font-family="FreeSans" font-size="10.00" fill="#000000">PHCompositeNode::addNode</text>
</a>
</g>
</g>
<!-- Node27&#45;&gt;Node28 -->
<g id="edge31" class="edge">
<title>Node27&#45;&gt;Node28</title>
<path fill="none" stroke="#191970" d="M708.1943,-441.175C725.1266,-443.4431 743.0629,-445.8456 760.1784,-448.1382"/>
<polygon fill="#191970" stroke="#191970" points="759.771,-451.6148 770.1472,-449.4735 760.7004,-444.6768 759.771,-451.6148"/>
</g>
<!-- Node28&#45;&gt;Node15 -->
<g id="edge32" class="edge">
<title>Node28&#45;&gt;Node15</title>
<path fill="none" stroke="#191970" d="M874.9336,-469.5273C893.2604,-475.8132 917.1237,-484.2614 938,-492.5 965.7914,-503.4676 996.8966,-517.1244 1019.3438,-527.2323"/>
<polygon fill="#191970" stroke="#191970" points="1018.1479,-530.5328 1028.7016,-531.4663 1021.0335,-524.1552 1018.1479,-530.5328"/>
</g>
<!-- Node29 -->
<g id="node29" class="node">
<title>Node29</title>
<g id="a_node29"><a xlink:href="../../dc/d82/classPHNode.html#adda2bd6cef2d5067bbe3016a990b7198" target="_top" xlink:title="PHNode::setParent">
<polygon fill="none" stroke="#000000" points="995,-434.5 995,-454.5 1106,-454.5 1106,-434.5 995,-434.5"/>
<text text-anchor="middle" x="1050.5" y="-441.5" font-family="FreeSans" font-size="10.00" fill="#000000">PHNode::setParent</text>
</a>
</g>
</g>
<!-- Node28&#45;&gt;Node29 -->
<g id="edge33" class="edge">
<title>Node28&#45;&gt;Node29</title>
<path fill="none" stroke="#191970" d="M926.219,-453.5716C945.6242,-452.1552 966.1022,-450.6604 984.7134,-449.3019"/>
<polygon fill="#191970" stroke="#191970" points="985.1235,-452.7814 994.8422,-448.5626 984.6139,-445.8 985.1235,-452.7814"/>
</g>
<!-- Node30 -->
<g id="node30" class="node">
<title>Node30</title>
<g id="a_node30"><a xlink:href="../../d6/d86/classPHPointerList.html#ac2176735e9d046a034f1686fd2c477eb" target="_top" xlink:title="PHPointerList::append">
<polygon fill="none" stroke="#000000" points="986.5,-473.5 986.5,-493.5 1114.5,-493.5 1114.5,-473.5 986.5,-473.5"/>
<text text-anchor="middle" x="1050.5" y="-480.5" font-family="FreeSans" font-size="10.00" fill="#000000">PHPointerList::append</text>
</a>
</g>
</g>
<!-- Node28&#45;&gt;Node30 -->
<g id="edge34" class="edge">
<title>Node28&#45;&gt;Node30</title>
<path fill="none" stroke="#191970" d="M926.219,-468.9854C942.7564,-470.9168 960.0729,-472.9392 976.3491,-474.84"/>
<polygon fill="#191970" stroke="#191970" points="975.9941,-478.3223 986.3326,-476.006 976.8061,-471.3695 975.9941,-478.3223"/>
</g>
<!-- Node40 -->
<g id="node40" class="node">
<title>Node40</title>
<g id="a_node40"><a xlink:href="../../d9/df8/classPHG4GDMLUtility.html#adb03ec38807279cb5abaf38987c5a73f" target="_top" xlink:title="save the current Geant4 geometry to GDML file. Reading PHG4GDMLConfig from topNode">
<polygon fill="none" stroke="#000000" points="541,-636.5 541,-656.5 716,-656.5 716,-636.5 541,-636.5"/>
<text text-anchor="middle" x="628.5" y="-643.5" font-family="FreeSans" font-size="10.00" fill="#000000">PHG4GDMLUtility::Dump_GDML</text>
</a>
</g>
</g>
<!-- Node39&#45;&gt;Node40 -->
<g id="edge44" class="edge">
<title>Node39&#45;&gt;Node40</title>
<path fill="none" stroke="#191970" d="M473.6475,-556.7796C484.7359,-559.8474 495.617,-564.2419 505,-570.5 528.9967,-586.5049 517.4333,-607.8684 541,-624.5 545.4792,-627.6611 550.3692,-630.369 555.4739,-632.6887"/>
<polygon fill="#191970" stroke="#191970" points="554.2681,-635.9761 564.8519,-636.4586 556.879,-629.4813 554.2681,-635.9761"/>
</g>
<!-- Node44 -->
<g id="node44" class="node">
<title>Node44</title>
<g id="a_node44"><a xlink:href="../../d1/d13/classPHG4PhenixDetector.html#a08f9f09748e767ac536249ac56995fd2" target="_top" xlink:title="PHG4PhenixDetector\l::GetPhysicalVolume">
<polygon fill="none" stroke="#000000" points="567.5,-582.5 567.5,-614.5 689.5,-614.5 689.5,-582.5 567.5,-582.5"/>
<text text-anchor="start" x="575.5" y="-601.5" font-family="FreeSans" font-size="10.00" fill="#000000">PHG4PhenixDetector</text>
<text text-anchor="middle" x="628.5" y="-589.5" font-family="FreeSans" font-size="10.00" fill="#000000">::GetPhysicalVolume</text>
</a>
</g>
</g>
<!-- Node39&#45;&gt;Node44 -->
<g id="edge50" class="edge">
<title>Node39&#45;&gt;Node44</title>
<path fill="none" stroke="#191970" d="M455.737,-560.5346C471.5934,-563.6341 489.0218,-567.123 505,-570.5 521.992,-574.0913 540.2571,-578.1324 557.3915,-582.0037"/>
<polygon fill="#191970" stroke="#191970" points="556.8045,-585.4594 567.3311,-584.2588 558.3534,-578.6329 556.8045,-585.4594"/>
</g>
<!-- Node40&#45;&gt;Node11 -->
<g id="edge45" class="edge">
<title>Node40&#45;&gt;Node11</title>
<path fill="none" stroke="#191970" d="M703.2725,-656.5182C707.9794,-659.2049 712.3019,-662.4913 716,-666.5 791.5206,-748.3632 675.5356,-833.5177 752,-914.5 756.4547,-919.2179 761.7392,-922.9341 767.4929,-925.8449"/>
<polygon fill="#191970" stroke="#191970" points="766.2935,-929.1373 776.8686,-929.7845 769.0052,-922.6839 766.2935,-929.1373"/>
</g>
<!-- Node40&#45;&gt;Node12 -->
<g id="edge46" class="edge">
<title>Node40&#45;&gt;Node12</title>
<path fill="none" stroke="#191970" d="M697.8221,-656.503C704.3087,-659.1246 710.5018,-662.4037 716,-666.5 789.1131,-720.9713 826.8245,-829.9468 839.7446,-874.66"/>
<polygon fill="#191970" stroke="#191970" points="836.3865,-875.6483 842.4408,-884.3429 843.13,-873.7705 836.3865,-875.6483"/>
</g>
<!-- Node41 -->
<g id="node41" class="node">
<title>Node41</title>
<g id="a_node41"><a xlink:href="../../d9/d03/KFParticleBaseSIMD_8h.html#a4c97ec619a52c5cf9d89748433ee16aa" target="_top" xlink:title="Initialize">
<polygon fill="none" stroke="#000000" points="816,-541.5 816,-561.5 874,-561.5 874,-541.5 816,-541.5"/>
<text text-anchor="middle" x="845" y="-548.5" font-family="FreeSans" font-size="10.00" fill="#000000">Initialize</text>
</a>
</g>
</g>
<!-- Node40&#45;&gt;Node41 -->
<g id="edge47" class="edge">
<title>Node40&#45;&gt;Node41</title>
<path fill="none" stroke="#191970" d="M692.1081,-636.4018C700.5809,-633.4069 708.8114,-629.5267 716,-624.5 739.3363,-608.1819 728.3857,-587.4132 752,-571.5 767.799,-560.8533 788.2439,-555.7407 805.9394,-553.3365"/>
<polygon fill="#191970" stroke="#191970" points="806.4359,-556.8029 815.9847,-552.2126 805.6575,-549.8463 806.4359,-556.8029"/>
</g>
<!-- Node42 -->
<g id="node42" class="node">
<title>Node42</title>
<g id="a_node42"><a xlink:href="../../dd/db5/classPHG4GDMLWrite.html#af4241e53bb71408c9bf11117053f9810" target="_top" xlink:title="PHG4GDMLWrite::Write">
<polygon fill="none" stroke="#ff0000" points="778.5,-637.5 778.5,-657.5 911.5,-657.5 911.5,-637.5 778.5,-637.5"/>
<text text-anchor="middle" x="845" y="-644.5" font-family="FreeSans" font-size="10.00" fill="#000000">PHG4GDMLWrite::Write</text>
</a>
</g>
</g>
<!-- Node40&#45;&gt;Node42 -->
<g id="edge48" class="edge">
<title>Node40&#45;&gt;Node42</title>
<path fill="none" stroke="#191970" d="M716.2467,-646.9053C733.4277,-646.9847 751.3238,-647.0673 768.1175,-647.1449"/>
<polygon fill="#191970" stroke="#191970" points="768.3992,-650.6461 778.4153,-647.1924 768.4316,-643.6462 768.3992,-650.6461"/>
</g>
<!-- Node43 -->
<g id="node43" class="node">
<title>Node43</title>
<g id="a_node43"><a xlink:href="../../dd/db5/classPHG4GDMLWrite.html#abac8d16ed8e19e2292a85cdf072b4c70" target="_top" xlink:title="PHG4GDMLWrite::FileExists">
<polygon fill="none" stroke="#000000" points="974,-637.5 974,-657.5 1127,-657.5 1127,-637.5 974,-637.5"/>
<text text-anchor="middle" x="1050.5" y="-644.5" font-family="FreeSans" font-size="10.00" fill="#000000">PHG4GDMLWrite::FileExists</text>
</a>
</g>
</g>
<!-- Node42&#45;&gt;Node43 -->
<g id="edge49" class="edge">
<title>Node42&#45;&gt;Node43</title>
<path fill="none" stroke="#191970" d="M911.72,-647.5C928.2767,-647.5 946.2626,-647.5 963.6284,-647.5"/>
<polygon fill="#191970" stroke="#191970" points="963.766,-651.0001 973.7659,-647.5 963.7659,-644.0001 963.766,-651.0001"/>
</g>
<!-- Node46 -->
<g id="node46" class="node">
<title>Node46</title>
<g id="a_node46"><a xlink:href="../../d7/d6d/classPHGeomTGeo.html#af0772491188524c7674c1ef004d49ad5" target="_top" xlink:title="Clear Event.">
<polygon fill="none" stroke="#000000" points="567.5,-465.5 567.5,-485.5 689.5,-485.5 689.5,-465.5 567.5,-465.5"/>
<text text-anchor="middle" x="628.5" y="-472.5" font-family="FreeSans" font-size="10.00" fill="#000000">PHGeomTGeo::Reset</text>
</a>
</g>
</g>
<!-- Node45&#45;&gt;Node46 -->
<g id="edge52" class="edge">
<title>Node45&#45;&gt;Node46</title>
<path fill="none" stroke="#191970" d="M465.8143,-501.472C494.142,-496.9496 527.7398,-491.5859 557.0269,-486.9103"/>
<polygon fill="#191970" stroke="#191970" points="557.8675,-490.3206 567.1906,-485.2877 556.7639,-483.4081 557.8675,-490.3206"/>
</g>
<!-- Node48 -->
<g id="node48" class="node">
<title>Node48</title>
<g id="a_node48"><a xlink:href="../../d7/d6d/classPHGeomTGeo.html#a8b2df41583e27a653458c6aae76a2926" target="_top" xlink:title="PHGeomTGeo::SetGeometry">
<polygon fill="none" stroke="#000000" points="548.5,-543.5 548.5,-563.5 708.5,-563.5 708.5,-543.5 548.5,-543.5"/>
<text text-anchor="middle" x="628.5" y="-550.5" font-family="FreeSans" font-size="10.00" fill="#000000">PHGeomTGeo::SetGeometry</text>
</a>
</g>
</g>
<!-- Node45&#45;&gt;Node48 -->
<g id="edge54" class="edge">
<title>Node45&#45;&gt;Node48</title>
<path fill="none" stroke="#191970" d="M456.7264,-521.5067C489.2135,-527.5575 530.8053,-535.3041 564.9251,-541.659"/>
<polygon fill="#191970" stroke="#191970" points="564.323,-545.107 574.7949,-543.4973 565.6048,-538.2253 564.323,-545.107"/>
</g>
<!-- Node49 -->
<g id="node49" class="node">
<title>Node49</title>
<g id="a_node49"><a xlink:href="../../d7/d6d/classPHGeomTGeo.html#a3e111f6229f7ce6392b14a98fdf5bea9" target="_top" xlink:title="PHGeomTGeo::GetGeometry">
<polygon fill="none" stroke="#000000" points="547.5,-504.5 547.5,-524.5 709.5,-524.5 709.5,-504.5 547.5,-504.5"/>
<text text-anchor="middle" x="628.5" y="-511.5" font-family="FreeSans" font-size="10.00" fill="#000000">PHGeomTGeo::GetGeometry</text>
</a>
</g>
</g>
<!-- Node45&#45;&gt;Node49 -->
<g id="edge56" class="edge">
<title>Node45&#45;&gt;Node49</title>
<path fill="none" stroke="#191970" d="M491.153,-512.6728C506.208,-512.8731 521.8779,-513.0815 537.0171,-513.2829"/>
<polygon fill="#191970" stroke="#191970" points="537.3535,-516.7876 547.3992,-513.4211 537.4467,-509.7882 537.3535,-516.7876"/>
</g>
<!-- Node47 -->
<g id="node47" class="node">
<title>Node47</title>
<g id="a_node47"><a xlink:href="../../d7/d6d/classPHGeomTGeo.html#af37739b87530fe2bbd5d8d03098c1821" target="_top" xlink:title="PHGeomTGeo::ConsistencyCheck">
<polygon fill="none" stroke="#000000" points="752,-502.5 752,-522.5 938,-522.5 938,-502.5 752,-502.5"/>
<text text-anchor="middle" x="845" y="-509.5" font-family="FreeSans" font-size="10.00" fill="#000000">PHGeomTGeo::ConsistencyCheck</text>
</a>
</g>
</g>
<!-- Node46&#45;&gt;Node47 -->
<g id="edge53" class="edge">
<title>Node46&#45;&gt;Node47</title>
<path fill="none" stroke="#191970" d="M687.088,-485.5127C714.6453,-490.2223 747.6847,-495.8687 776.4033,-500.7768"/>
<polygon fill="#191970" stroke="#191970" points="775.9184,-504.2446 786.3652,-502.4793 777.0977,-497.3446 775.9184,-504.2446"/>
</g>
<!-- Node48&#45;&gt;Node47 -->
<g id="edge55" class="edge">
<title>Node48&#45;&gt;Node47</title>
<path fill="none" stroke="#191970" d="M681.4619,-543.4703C711.735,-537.7372 749.8941,-530.5108 781.7362,-524.4807"/>
<polygon fill="#191970" stroke="#191970" points="782.6605,-527.8679 791.8346,-522.5683 781.3579,-520.9902 782.6605,-527.8679"/>
</g>
<!-- Node49&#45;&gt;Node47 -->
<g id="edge57" class="edge">
<title>Node49&#45;&gt;Node47</title>
<path fill="none" stroke="#191970" d="M709.7326,-513.7496C720.0982,-513.6538 730.817,-513.5548 741.4745,-513.4564"/>
<polygon fill="#191970" stroke="#191970" points="741.6931,-516.9546 751.6603,-513.3623 741.6284,-509.9549 741.6931,-516.9546"/>
</g>
</g>
</svg>
