<?xml version="1.0" encoding="UTF-8" standalone="no"?>
<!DOCTYPE svg PUBLIC "-//W3C//DTD SVG 1.1//EN"
 "http://www.w3.org/Graphics/SVG/1.1/DTD/svg11.dtd">
<!-- Generated by graphviz version 2.40.1 (20161225.0304)
 -->
<!-- Title: KFPHistogram1D::SetHistogramMemory Pages: 1 -->
<svg width="601pt" height="41pt"
 viewBox="0.00 0.00 601.00 41.00" xmlns="http://www.w3.org/2000/svg" xmlns:xlink="http://www.w3.org/1999/xlink">
<g id="graph0" class="graph" transform="scale(1 1) rotate(0) translate(4 37)">
<title>KFPHistogram1D::SetHistogramMemory</title>
<!-- Node1 -->
<g id="node1" class="node">
<title>Node1</title>
<polygon fill="#bfbfbf" stroke="#000000" points="0,-.5 0,-32.5 177,-32.5 177,-.5 0,-.5"/>
<text text-anchor="start" x="8" y="-19.5" font-family="FreeSans" font-size="10.00" fill="#000000">KFPHistogram1D::SetHistogram</text>
<text text-anchor="middle" x="88.5" y="-7.5" font-family="FreeSans" font-size="10.00" fill="#000000">Memory</text>
</g>
<!-- Node2 -->
<g id="node2" class="node">
<title>Node2</title>
<g id="a_node2"><a xlink:href="../../d6/d9c/classKFPHistogramSet.html#a62525af12d5e460017d73f50a0a8f014" target="_top" xlink:title="KFPHistogramSet::SetHistogram\lMemory">
<polygon fill="none" stroke="#000000" points="213,-.5 213,-32.5 392,-32.5 392,-.5 213,-.5"/>
<text text-anchor="start" x="221" y="-19.5" font-family="FreeSans" font-size="10.00" fill="#000000">KFPHistogramSet::SetHistogram</text>
<text text-anchor="middle" x="302.5" y="-7.5" font-family="FreeSans" font-size="10.00" fill="#000000">Memory</text>
</a>
</g>
</g>
<!-- Node1&#45;&gt;Node2 -->
<g id="edge1" class="edge">
<title>Node1&#45;&gt;Node2</title>
<path fill="none" stroke="#191970" d="M187.1399,-16.5C195.7436,-16.5 204.4198,-16.5 212.9442,-16.5"/>
<polygon fill="#191970" stroke="#191970" points="187.0868,-13.0001 177.0867,-16.5 187.0867,-20.0001 187.0868,-13.0001"/>
</g>
<!-- Node3 -->
<g id="node3" class="node">
<title>Node3</title>
<g id="a_node3"><a xlink:href="../../df/d10/classKFPHistogram.html#abe53dac8129b6b8db499bebebf4515bd" target="_top" xlink:title="Default Constructor. Creates histograms, allocates memory for them.">
<polygon fill="none" stroke="#000000" points="428,-6.5 428,-26.5 593,-26.5 593,-6.5 428,-6.5"/>
<text text-anchor="middle" x="510.5" y="-13.5" font-family="FreeSans" font-size="10.00" fill="#000000">KFPHistogram::KFPHistogram</text>
</a>
</g>
</g>
<!-- Node2&#45;&gt;Node3 -->
<g id="edge2" class="edge">
<title>Node2&#45;&gt;Node3</title>
<path fill="none" stroke="#191970" d="M402.2852,-16.5C410.8864,-16.5 419.5261,-16.5 427.9685,-16.5"/>
<polygon fill="#191970" stroke="#191970" points="402.2199,-13.0001 392.2199,-16.5 402.2199,-20.0001 402.2199,-13.0001"/>
</g>
</g>
</svg>
