<?xml version="1.0" encoding="UTF-8" standalone="no"?>
<!DOCTYPE svg PUBLIC "-//W3C//DTD SVG 1.1//EN"
 "http://www.w3.org/Graphics/SVG/1.1/DTD/svg11.dtd">
<!-- Generated by graphviz version 2.40.1 (20161225.0304)
 -->
<!-- Title: KFParticleTest::RunTestSingle Pages: 1 -->
<svg width="1587pt" height="811pt"
 viewBox="0.00 0.00 1587.00 811.00" xmlns="http://www.w3.org/2000/svg" xmlns:xlink="http://www.w3.org/1999/xlink">
<g id="graph0" class="graph" transform="scale(1 1) rotate(0) translate(4 807)">
<title>KFParticleTest::RunTestSingle</title>
<!-- Node1 -->
<g id="node1" class="node">
<title>Node1</title>
<polygon fill="#bfbfbf" stroke="#000000" points="0,-246.5 0,-266.5 163,-266.5 163,-246.5 0,-246.5"/>
<text text-anchor="middle" x="81.5" y="-253.5" font-family="FreeSans" font-size="10.00" fill="#000000">KFParticleTest::RunTestSingle</text>
</g>
<!-- Node2 -->
<g id="node2" class="node">
<title>Node2</title>
<g id="a_node2"><a xlink:href="../../d0/d49/classKFParticle.html#ad5d8023bf5a3934467fa9cdc436196d6" target="_top" xlink:title="KFParticle::Construct">
<polygon fill="none" stroke="#000000" points="224.5,-489.5 224.5,-509.5 346.5,-509.5 346.5,-489.5 224.5,-489.5"/>
<text text-anchor="middle" x="285.5" y="-496.5" font-family="FreeSans" font-size="10.00" fill="#000000">KFParticle::Construct</text>
</a>
</g>
</g>
<!-- Node1&#45;&gt;Node2 -->
<g id="edge1" class="edge">
<title>Node1&#45;&gt;Node2</title>
<path fill="none" stroke="#191970" d="M84.5263,-266.8063C94.8514,-300.2547 131.8287,-406.9923 199,-465.5 209.0837,-474.2831 221.7039,-480.9428 234.1616,-485.9333"/>
<polygon fill="#191970" stroke="#191970" points="233.0185,-489.2423 243.6116,-489.4318 235.4488,-482.6777 233.0185,-489.2423"/>
</g>
<!-- Node17 -->
<g id="node17" class="node">
<title>Node17</title>
<g id="a_node17"><a xlink:href="../../d5/d41/classKFParticleBase.html#a0ed85901f073ae1c6011ed7f216644d7" target="_top" xlink:title="KFParticleBase::SetProduction\lVertex">
<polygon fill="none" stroke="#000000" points="791,-427.5 791,-459.5 958,-459.5 958,-427.5 791,-427.5"/>
<text text-anchor="start" x="799" y="-446.5" font-family="FreeSans" font-size="10.00" fill="#000000">KFParticleBase::SetProduction</text>
<text text-anchor="middle" x="874.5" y="-434.5" font-family="FreeSans" font-size="10.00" fill="#000000">Vertex</text>
</a>
</g>
</g>
<!-- Node1&#45;&gt;Node17 -->
<g id="edge46" class="edge">
<title>Node1&#45;&gt;Node17</title>
<path fill="none" stroke="#191970" d="M84.6817,-266.9439C94.9982,-298.733 130.8651,-394.3986 199,-431.5 296.4588,-484.5692 618.8927,-465.743 780.4796,-452.3099"/>
<polygon fill="#191970" stroke="#191970" points="781.2152,-455.7604 790.8863,-451.4337 780.6279,-448.7851 781.2152,-455.7604"/>
</g>
<!-- Node23 -->
<g id="node23" class="node">
<title>Node23</title>
<g id="a_node23"><a xlink:href="../../d0/d49/classKFParticle.html#a586922b2bf23f335bf999f50ff5d633f" target="_top" xlink:title="KFParticle::GetFieldValue">
<polygon fill="none" stroke="#000000" points="214.5,-402.5 214.5,-422.5 356.5,-422.5 356.5,-402.5 214.5,-402.5"/>
<text text-anchor="middle" x="285.5" y="-409.5" font-family="FreeSans" font-size="10.00" fill="#000000">KFParticle::GetFieldValue</text>
</a>
</g>
</g>
<!-- Node1&#45;&gt;Node23 -->
<g id="edge36" class="edge">
<title>Node1&#45;&gt;Node23</title>
<path fill="none" stroke="#191970" d="M87.1104,-266.6086C101.8291,-292.1267 144.2261,-359.463 199,-392.5 202.8915,-394.8472 207.0341,-396.919 211.3182,-398.7477"/>
<polygon fill="#191970" stroke="#191970" points="210.2893,-402.1008 220.8806,-402.3754 212.7723,-395.5559 210.2893,-402.1008"/>
</g>
<!-- Node24 -->
<g id="node24" class="node">
<title>Node24</title>
<g id="a_node24"><a xlink:href="../../d9/d03/KFParticleBaseSIMD_8h.html#aa8955630e2c108b73e4cb69f2988e695" target="_top" xlink:title="Returns number of daughter particles.">
<polygon fill="none" stroke="#000000" points="247.5,-363.5 247.5,-383.5 323.5,-383.5 323.5,-363.5 247.5,-363.5"/>
<text text-anchor="middle" x="285.5" y="-370.5" font-family="FreeSans" font-size="10.00" fill="#000000">NDaughters</text>
</a>
</g>
</g>
<!-- Node1&#45;&gt;Node24 -->
<g id="edge37" class="edge">
<title>Node1&#45;&gt;Node24</title>
<path fill="none" stroke="#191970" d="M90.4568,-266.5076C108.7833,-286.3353 152.7493,-330.6618 199,-353.5 210.7776,-359.3157 224.2993,-363.4757 237.0989,-366.4379"/>
<polygon fill="#191970" stroke="#191970" points="236.6542,-369.9212 247.1619,-368.5655 238.1022,-363.0726 236.6542,-369.9212"/>
</g>
<!-- Node25 -->
<g id="node25" class="node">
<title>Node25</title>
<g id="a_node25"><a xlink:href="../../d0/db6/classKFPTrack.html#af0916c90726a14f3976c70452a5292a9" target="_top" xlink:title="Sets charge of the track.">
<polygon fill="none" stroke="#000000" points="225.5,-324.5 225.5,-344.5 345.5,-344.5 345.5,-324.5 225.5,-324.5"/>
<text text-anchor="middle" x="285.5" y="-331.5" font-family="FreeSans" font-size="10.00" fill="#000000">KFPTrack::SetCharge</text>
</a>
</g>
</g>
<!-- Node1&#45;&gt;Node25 -->
<g id="edge38" class="edge">
<title>Node1&#45;&gt;Node25</title>
<path fill="none" stroke="#191970" d="M98.8563,-266.6645C121.3056,-279.4328 161.9347,-301.2687 199,-314.5 206.8252,-317.2934 215.1903,-319.7972 223.521,-322.0095"/>
<polygon fill="#191970" stroke="#191970" points="222.6971,-325.4112 233.2503,-324.4725 224.4151,-318.6253 222.6971,-325.4112"/>
</g>
<!-- Node26 -->
<g id="node26" class="node">
<title>Node26</title>
<g id="a_node26"><a xlink:href="../../d2/d2e/classKFPVertex.html#a6e29b8eb79de8f15cfd06c55a5c986e5" target="_top" xlink:title="Sets Chi2 of the vertex.">
<polygon fill="none" stroke="#000000" points="229,-285.5 229,-305.5 342,-305.5 342,-285.5 229,-285.5"/>
<text text-anchor="middle" x="285.5" y="-292.5" font-family="FreeSans" font-size="10.00" fill="#000000">KFPVertex::SetChi2</text>
</a>
</g>
</g>
<!-- Node1&#45;&gt;Node26 -->
<g id="edge39" class="edge">
<title>Node1&#45;&gt;Node26</title>
<path fill="none" stroke="#191970" d="M134.0351,-266.5435C161.2807,-271.7522 194.7392,-278.1487 223.2736,-283.6038"/>
<polygon fill="#191970" stroke="#191970" points="222.6636,-287.0505 233.143,-285.4906 223.9781,-280.175 222.6636,-287.0505"/>
</g>
<!-- Node27 -->
<g id="node27" class="node">
<title>Node27</title>
<g id="a_node27"><a xlink:href="../../d0/db6/classKFPTrack.html#a1159ffc107e5df082590f0777f30fea8" target="_top" xlink:title="Sets a value of the track Chi2.">
<polygon fill="none" stroke="#000000" points="232,-246.5 232,-266.5 339,-266.5 339,-246.5 232,-246.5"/>
<text text-anchor="middle" x="285.5" y="-253.5" font-family="FreeSans" font-size="10.00" fill="#000000">KFPTrack::SetChi2</text>
</a>
</g>
</g>
<!-- Node1&#45;&gt;Node27 -->
<g id="edge40" class="edge">
<title>Node1&#45;&gt;Node27</title>
<path fill="none" stroke="#191970" d="M163.0057,-256.5C182.5764,-256.5 203.197,-256.5 221.8226,-256.5"/>
<polygon fill="#191970" stroke="#191970" points="221.9457,-260.0001 231.9457,-256.5 221.9456,-253.0001 221.9457,-260.0001"/>
</g>
<!-- Node28 -->
<g id="node28" class="node">
<title>Node28</title>
<g id="a_node28"><a xlink:href="../../d2/d2e/classKFPVertex.html#acf653f4e9125ff6cfc16f51de2385b0c" target="_top" xlink:title="KFPVertex::SetCovariance\lMatrix">
<polygon fill="none" stroke="#000000" points="212,-195.5 212,-227.5 359,-227.5 359,-195.5 212,-195.5"/>
<text text-anchor="start" x="220" y="-214.5" font-family="FreeSans" font-size="10.00" fill="#000000">KFPVertex::SetCovariance</text>
<text text-anchor="middle" x="285.5" y="-202.5" font-family="FreeSans" font-size="10.00" fill="#000000">Matrix</text>
</a>
</g>
</g>
<!-- Node1&#45;&gt;Node28 -->
<g id="edge41" class="edge">
<title>Node1&#45;&gt;Node28</title>
<path fill="none" stroke="#191970" d="M127.0277,-246.4571C149.4148,-241.5188 177.1017,-235.4114 203.0378,-229.6902"/>
<polygon fill="#191970" stroke="#191970" points="203.8663,-233.0917 212.8776,-227.5196 202.3584,-226.256 203.8663,-233.0917"/>
</g>
<!-- Node29 -->
<g id="node29" class="node">
<title>Node29</title>
<g id="a_node29"><a xlink:href="../../d0/db6/classKFPTrack.html#a105dc3b9dc17e979cc782492458ab88a" target="_top" xlink:title="KFPTrack::SetCovarianceMatrix">
<polygon fill="none" stroke="#000000" points="199,-156.5 199,-176.5 372,-176.5 372,-156.5 199,-156.5"/>
<text text-anchor="middle" x="285.5" y="-163.5" font-family="FreeSans" font-size="10.00" fill="#000000">KFPTrack::SetCovarianceMatrix</text>
</a>
</g>
</g>
<!-- Node1&#45;&gt;Node29 -->
<g id="edge42" class="edge">
<title>Node1&#45;&gt;Node29</title>
<path fill="none" stroke="#191970" d="M94.8328,-246.4181C115.8556,-231.0051 158.4928,-201.6735 199,-185.5 204.8099,-183.1803 210.958,-181.118 217.1901,-179.2899"/>
<polygon fill="#191970" stroke="#191970" points="218.2912,-182.6174 227.0159,-176.6065 216.4471,-175.8647 218.2912,-182.6174"/>
</g>
<!-- Node30 -->
<g id="node30" class="node">
<title>Node30</title>
<g id="a_node30"><a xlink:href="../../d2/d2e/classKFPVertex.html#ae2f6ae77d3b159a19466e78892787684" target="_top" xlink:title="Sets number of tracks which were used for construction of the vertex.">
<polygon fill="none" stroke="#000000" points="205,-117.5 205,-137.5 366,-137.5 366,-117.5 205,-117.5"/>
<text text-anchor="middle" x="285.5" y="-124.5" font-family="FreeSans" font-size="10.00" fill="#000000">KFPVertex::SetNContributors</text>
</a>
</g>
</g>
<!-- Node1&#45;&gt;Node30 -->
<g id="edge43" class="edge">
<title>Node1&#45;&gt;Node30</title>
<path fill="none" stroke="#191970" d="M89.0623,-246.4192C106.0844,-224.4989 149.7882,-172.3917 199,-146.5 203.0119,-144.3892 207.2472,-142.5126 211.601,-140.8442"/>
<polygon fill="#191970" stroke="#191970" points="212.9635,-144.0769 221.2812,-137.5144 210.6865,-137.4575 212.9635,-144.0769"/>
</g>
<!-- Node31 -->
<g id="node31" class="node">
<title>Node31</title>
<g id="a_node31"><a xlink:href="../../d0/db6/classKFPTrack.html#aafb79cf24a433a293f05c2c3336d0d21" target="_top" xlink:title="Sets a value of the number of degrees of freedom.">
<polygon fill="none" stroke="#000000" points="233,-78.5 233,-98.5 338,-98.5 338,-78.5 233,-78.5"/>
<text text-anchor="middle" x="285.5" y="-85.5" font-family="FreeSans" font-size="10.00" fill="#000000">KFPTrack::SetNDF</text>
</a>
</g>
</g>
<!-- Node1&#45;&gt;Node31 -->
<g id="edge44" class="edge">
<title>Node1&#45;&gt;Node31</title>
<path fill="none" stroke="#191970" d="M86.4147,-246.1922C100.0528,-218.7785 141.2095,-143.7024 199,-107.5 206.3843,-102.8742 214.7382,-99.3653 223.2707,-96.7056"/>
<polygon fill="#191970" stroke="#191970" points="224.2226,-100.0738 232.9377,-94.0492 222.3678,-93.324 224.2226,-100.0738"/>
</g>
<!-- Node32 -->
<g id="node32" class="node">
<title>Node32</title>
<g id="a_node32"><a xlink:href="../../d0/db6/classKFPTrack.html#aa139b096b5a3ae8d89144021a9edae5e" target="_top" xlink:title="KFPTrack::SetParameters">
<polygon fill="none" stroke="#000000" points="214.5,-39.5 214.5,-59.5 356.5,-59.5 356.5,-39.5 214.5,-39.5"/>
<text text-anchor="middle" x="285.5" y="-46.5" font-family="FreeSans" font-size="10.00" fill="#000000">KFPTrack::SetParameters</text>
</a>
</g>
</g>
<!-- Node1&#45;&gt;Node32 -->
<g id="edge45" class="edge">
<title>Node1&#45;&gt;Node32</title>
<path fill="none" stroke="#191970" d="M84.6608,-246.3685C95.1503,-214.52 132.0016,-115.7473 199,-68.5 201.4149,-66.797 203.9547,-65.2427 206.587,-63.8242"/>
<polygon fill="#191970" stroke="#191970" points="208.2626,-66.9048 215.8466,-59.5066 205.3043,-60.5605 208.2626,-66.9048"/>
</g>
<!-- Node33 -->
<g id="node33" class="node">
<title>Node33</title>
<g id="a_node33"><a xlink:href="../../d2/d2e/classKFPVertex.html#a83b2d67398746613e079f20134209e22" target="_top" xlink:title="KFPVertex::SetXYZ">
<polygon fill="none" stroke="#000000" points="230.5,-.5 230.5,-20.5 340.5,-20.5 340.5,-.5 230.5,-.5"/>
<text text-anchor="middle" x="285.5" y="-7.5" font-family="FreeSans" font-size="10.00" fill="#000000">KFPVertex::SetXYZ</text>
</a>
</g>
</g>
<!-- Node1&#45;&gt;Node33 -->
<g id="edge47" class="edge">
<title>Node1&#45;&gt;Node33</title>
<path fill="none" stroke="#191970" d="M83.5317,-246.3827C91.2998,-210.4699 122.6137,-88.1359 199,-29.5 205.4164,-24.5746 212.8487,-20.8712 220.6084,-18.0955"/>
<polygon fill="#191970" stroke="#191970" points="221.6595,-21.4341 230.1896,-15.1501 219.6026,-14.7431 221.6595,-21.4341"/>
</g>
<!-- Node3 -->
<g id="node3" class="node">
<title>Node3</title>
<g id="a_node3"><a xlink:href="../../d5/d41/classKFParticleBase.html#a0e0a97c4f15d777dbaa2d4a98402d86d" target="_top" xlink:title="KFParticleBase::Construct">
<polygon fill="none" stroke="#000000" points="408,-498.5 408,-518.5 554,-518.5 554,-498.5 408,-498.5"/>
<text text-anchor="middle" x="481" y="-505.5" font-family="FreeSans" font-size="10.00" fill="#000000">KFParticleBase::Construct</text>
</a>
</g>
</g>
<!-- Node2&#45;&gt;Node3 -->
<g id="edge2" class="edge">
<title>Node2&#45;&gt;Node3</title>
<path fill="none" stroke="#191970" d="M346.5533,-502.3106C362.7554,-503.0565 380.5311,-503.8748 397.6988,-504.6652"/>
<polygon fill="#191970" stroke="#191970" points="397.5698,-508.1628 407.7202,-505.1265 397.8917,-501.1702 397.5698,-508.1628"/>
</g>
<!-- Node4 -->
<g id="node4" class="node">
<title>Node4</title>
<g id="a_node4"><a xlink:href="../../d5/d41/classKFParticleBase.html#a24a5ddb6e508939d630fdbeffb5cae30" target="_top" xlink:title="KFParticleBase::AddDaughter">
<polygon fill="none" stroke="#000000" points="590,-652.5 590,-672.5 755,-672.5 755,-652.5 590,-652.5"/>
<text text-anchor="middle" x="672.5" y="-659.5" font-family="FreeSans" font-size="10.00" fill="#000000">KFParticleBase::AddDaughter</text>
</a>
</g>
</g>
<!-- Node3&#45;&gt;Node4 -->
<g id="edge3" class="edge">
<title>Node3&#45;&gt;Node4</title>
<path fill="none" stroke="#191970" d="M493.5648,-518.6044C525.814,-544.5384 611.7679,-613.6606 651.6437,-645.7279"/>
<polygon fill="#191970" stroke="#191970" points="649.6516,-648.6172 659.6378,-652.1565 654.0384,-643.1622 649.6516,-648.6172"/>
</g>
<!-- Node15 -->
<g id="node15" class="node">
<title>Node15</title>
<g id="a_node15"><a xlink:href="../../d5/d41/classKFParticleBase.html#ab6aedf51539e2164935c6469e6b0d374" target="_top" xlink:title="KFParticleBase::SetMassConstraint">
<polygon fill="none" stroke="#000000" points="994,-548.5 994,-568.5 1186,-568.5 1186,-548.5 994,-548.5"/>
<text text-anchor="middle" x="1090" y="-555.5" font-family="FreeSans" font-size="10.00" fill="#000000">KFParticleBase::SetMassConstraint</text>
</a>
</g>
</g>
<!-- Node3&#45;&gt;Node15 -->
<g id="edge23" class="edge">
<title>Node3&#45;&gt;Node15</title>
<path fill="none" stroke="#191970" d="M554.1569,-514.5063C661.0545,-523.2828 860.5703,-539.6634 983.679,-549.7709"/>
<polygon fill="#191970" stroke="#191970" points="983.6238,-553.278 993.8767,-550.6081 984.1967,-546.3015 983.6238,-553.278"/>
</g>
<!-- Node3&#45;&gt;Node17 -->
<g id="edge24" class="edge">
<title>Node3&#45;&gt;Node17</title>
<path fill="none" stroke="#191970" d="M548.0808,-498.4781C603.6025,-490.0618 684.5118,-477.5173 755,-465.5 763.461,-464.0575 772.2512,-462.5178 781.0521,-460.9482"/>
<polygon fill="#191970" stroke="#191970" points="781.7518,-464.3787 790.9762,-459.1671 780.5151,-457.4888 781.7518,-464.3787"/>
</g>
<!-- Node5 -->
<g id="node5" class="node">
<title>Node5</title>
<g id="a_node5"><a xlink:href="../../d5/d41/classKFParticleBase.html#afe25065680801ce33287e480ca0534e4" target="_top" xlink:title="KFParticleBase::AddDaughter\lWithEnergyFit">
<polygon fill="none" stroke="#000000" points="792,-672.5 792,-704.5 957,-704.5 957,-672.5 792,-672.5"/>
<text text-anchor="start" x="800" y="-691.5" font-family="FreeSans" font-size="10.00" fill="#000000">KFParticleBase::AddDaughter</text>
<text text-anchor="middle" x="874.5" y="-679.5" font-family="FreeSans" font-size="10.00" fill="#000000">WithEnergyFit</text>
</a>
</g>
</g>
<!-- Node4&#45;&gt;Node5 -->
<g id="edge4" class="edge">
<title>Node4&#45;&gt;Node5</title>
<path fill="none" stroke="#191970" d="M750.3095,-672.5151C760.5849,-673.8377 771.1987,-675.2038 781.6938,-676.5546"/>
<polygon fill="#191970" stroke="#191970" points="781.3398,-680.0379 791.7048,-677.8432 782.2334,-673.0951 781.3398,-680.0379"/>
</g>
<!-- Node12 -->
<g id="node12" class="node">
<title>Node12</title>
<g id="a_node12"><a xlink:href="../../d5/d41/classKFParticleBase.html#a97b4d2ef119c13e0117b0367473cb153" target="_top" xlink:title="Returns charge of the particle.">
<polygon fill="none" stroke="#000000" points="1028.5,-782.5 1028.5,-802.5 1151.5,-802.5 1151.5,-782.5 1028.5,-782.5"/>
<text text-anchor="middle" x="1090" y="-789.5" font-family="FreeSans" font-size="10.00" fill="#000000">KFParticleBase::GetQ</text>
</a>
</g>
</g>
<!-- Node4&#45;&gt;Node12 -->
<g id="edge22" class="edge">
<title>Node4&#45;&gt;Node12</title>
<path fill="none" stroke="#191970" d="M692.6584,-672.5193C715.93,-683.8081 755.5598,-702.1844 791,-714.5 879.0798,-745.1081 903.7704,-743.9726 994,-767.5 1009.448,-771.5281 1026.2953,-775.9168 1041.5033,-779.8769"/>
<polygon fill="#191970" stroke="#191970" points="1040.6699,-783.2766 1051.2292,-782.4093 1042.4338,-776.5024 1040.6699,-783.2766"/>
</g>
<!-- Node14 -->
<g id="node14" class="node">
<title>Node14</title>
<g id="a_node14"><a xlink:href="../../d5/d41/classKFParticleBase.html#a143d70c6bd591a3294c4c0f89c8edcda" target="_top" xlink:title="KFParticleBase::AddDaughter\lWithEnergyFitMC">
<polygon fill="none" stroke="#000000" points="792,-621.5 792,-653.5 957,-653.5 957,-621.5 792,-621.5"/>
<text text-anchor="start" x="800" y="-640.5" font-family="FreeSans" font-size="10.00" fill="#000000">KFParticleBase::AddDaughter</text>
<text text-anchor="middle" x="874.5" y="-628.5" font-family="FreeSans" font-size="10.00" fill="#000000">WithEnergyFitMC</text>
</a>
</g>
</g>
<!-- Node4&#45;&gt;Node14 -->
<g id="edge14" class="edge">
<title>Node4&#45;&gt;Node14</title>
<path fill="none" stroke="#191970" d="M753.4972,-652.4756C762.7669,-651.3284 772.2708,-650.1521 781.6794,-648.9877"/>
<polygon fill="#191970" stroke="#191970" points="782.3414,-652.4326 791.8357,-647.7307 781.4815,-645.4856 782.3414,-652.4326"/>
</g>
<!-- Node6 -->
<g id="node6" class="node">
<title>Node6</title>
<g id="a_node6"><a xlink:href="../../d5/d41/classKFParticleBase.html#a4589ae9c9872e56468d6c5dc17adcfff" target="_top" xlink:title="KFParticleBase::GetMeasurement">
<polygon fill="none" stroke="#000000" points="997.5,-627.5 997.5,-647.5 1182.5,-647.5 1182.5,-627.5 997.5,-627.5"/>
<text text-anchor="middle" x="1090" y="-634.5" font-family="FreeSans" font-size="10.00" fill="#000000">KFParticleBase::GetMeasurement</text>
</a>
</g>
</g>
<!-- Node5&#45;&gt;Node6 -->
<g id="edge5" class="edge">
<title>Node5&#45;&gt;Node6</title>
<path fill="none" stroke="#191970" d="M942.3898,-672.4333C973.1806,-665.1463 1009.0268,-656.663 1037.6836,-649.8811"/>
<polygon fill="#191970" stroke="#191970" points="1038.5749,-653.267 1047.5,-647.558 1036.9627,-646.4551 1038.5749,-653.267"/>
</g>
<!-- Node9 -->
<g id="node9" class="node">
<title>Node9</title>
<g id="a_node9"><a xlink:href="../../d5/d41/classKFParticleBase.html#ad059627ac0eb3810051cea5fbfdedc77" target="_top" xlink:title="KFParticleBase::IJ">
<polygon fill="none" stroke="#000000" points="1455,-627.5 1455,-647.5 1558,-647.5 1558,-627.5 1455,-627.5"/>
<text text-anchor="middle" x="1506.5" y="-634.5" font-family="FreeSans" font-size="10.00" fill="#000000">KFParticleBase::IJ</text>
</a>
</g>
</g>
<!-- Node5&#45;&gt;Node9 -->
<g id="edge12" class="edge">
<title>Node5&#45;&gt;Node9</title>
<path fill="none" stroke="#191970" d="M957.0397,-699.8641C1083.3718,-716.0609 1318.4156,-741.1377 1398,-715.5 1434.8747,-703.621 1469.8098,-674.0497 1489.6451,-654.9226"/>
<polygon fill="#191970" stroke="#191970" points="1492.3094,-657.2098 1496.9494,-647.6851 1487.3824,-652.2374 1492.3094,-657.2098"/>
</g>
<!-- Node5&#45;&gt;Node12 -->
<g id="edge11" class="edge">
<title>Node5&#45;&gt;Node12</title>
<path fill="none" stroke="#191970" d="M896.8506,-704.5602C925.5804,-724.975 974.1249,-758.6376 994,-767.5 1004.937,-772.3769 1017.0148,-776.4488 1028.8069,-779.7933"/>
<polygon fill="#191970" stroke="#191970" points="1028.0477,-783.2135 1038.6137,-782.4333 1029.8673,-776.4541 1028.0477,-783.2135"/>
</g>
<!-- Node13 -->
<g id="node13" class="node">
<title>Node13</title>
<g id="a_node13"><a xlink:href="../../d5/d41/classKFParticleBase.html#aa0ed9e611a76fd44e0eaac9d6f504929" target="_top" xlink:title="KFParticleBase::InvertCholetsky3">
<polygon fill="none" stroke="#000000" points="999,-588.5 999,-608.5 1181,-608.5 1181,-588.5 999,-588.5"/>
<text text-anchor="middle" x="1090" y="-595.5" font-family="FreeSans" font-size="10.00" fill="#000000">KFParticleBase::InvertCholetsky3</text>
</a>
</g>
</g>
<!-- Node5&#45;&gt;Node13 -->
<g id="edge13" class="edge">
<title>Node5&#45;&gt;Node13</title>
<path fill="none" stroke="#191970" d="M941.8045,-672.37C947.4938,-669.8227 952.9821,-666.8851 958,-663.5 979.2327,-649.1762 972.1744,-631.9032 994,-618.5 997.8581,-616.1308 1001.9505,-614.0379 1006.1871,-612.1897"/>
<polygon fill="#191970" stroke="#191970" points="1007.596,-615.3974 1015.6567,-608.5217 1005.0676,-608.8699 1007.596,-615.3974"/>
</g>
<!-- Node7 -->
<g id="node7" class="node">
<title>Node7</title>
<g id="a_node7"><a xlink:href="../../d5/d41/classKFParticleBase.html#ada459a0ed2508dbc79ff582a3a32c574" target="_top" xlink:title="KFParticleBase::GetDStoParticle">
<polygon fill="none" stroke="#000000" points="1222,-666.5 1222,-686.5 1398,-686.5 1398,-666.5 1222,-666.5"/>
<text text-anchor="middle" x="1310" y="-673.5" font-family="FreeSans" font-size="10.00" fill="#000000">KFParticleBase::GetDStoParticle</text>
</a>
</g>
</g>
<!-- Node6&#45;&gt;Node7 -->
<g id="edge6" class="edge">
<title>Node6&#45;&gt;Node7</title>
<path fill="none" stroke="#191970" d="M1146.6555,-647.5435C1176.1663,-652.7749 1212.4359,-659.2046 1243.2959,-664.6752"/>
<polygon fill="#191970" stroke="#191970" points="1243.0791,-668.1912 1253.5365,-666.4906 1244.301,-661.2987 1243.0791,-668.1912"/>
</g>
<!-- Node8 -->
<g id="node8" class="node">
<title>Node8</title>
<g id="a_node8"><a xlink:href="../../d5/d41/classKFParticleBase.html#ae4235191e7d6baaa1054507e3cb92dc9" target="_top" xlink:title="KFParticleBase::GetDStoPoint">
<polygon fill="none" stroke="#000000" points="1227.5,-511.5 1227.5,-531.5 1392.5,-531.5 1392.5,-511.5 1227.5,-511.5"/>
<text text-anchor="middle" x="1310" y="-518.5" font-family="FreeSans" font-size="10.00" fill="#000000">KFParticleBase::GetDStoPoint</text>
</a>
</g>
</g>
<!-- Node6&#45;&gt;Node8 -->
<g id="edge7" class="edge">
<title>Node6&#45;&gt;Node8</title>
<path fill="none" stroke="#191970" d="M1171.1098,-627.4522C1176.4192,-625.0128 1181.4523,-622.0619 1186,-618.5 1215.7414,-595.206 1192.5887,-565.2094 1222,-541.5 1224.4224,-539.5473 1226.9985,-537.7771 1229.6899,-536.173"/>
<polygon fill="#191970" stroke="#191970" points="1231.3252,-539.2679 1238.6308,-531.5947 1228.1346,-533.0373 1231.3252,-539.2679"/>
</g>
<!-- Node6&#45;&gt;Node9 -->
<g id="edge8" class="edge">
<title>Node6&#45;&gt;Node9</title>
<path fill="none" stroke="#191970" d="M1182.6935,-637.5C1262.4933,-637.5 1375.4179,-637.5 1444.653,-637.5"/>
<polygon fill="#191970" stroke="#191970" points="1444.9597,-641.0001 1454.9597,-637.5 1444.9597,-634.0001 1444.9597,-641.0001"/>
</g>
<!-- Node10 -->
<g id="node10" class="node">
<title>Node10</title>
<g id="a_node10"><a xlink:href="../../d5/d41/classKFParticleBase.html#a724258bdfad283642d00e119a74f6335" target="_top" xlink:title="KFParticleBase::MultQSQt">
<polygon fill="none" stroke="#000000" points="1237,-550.5 1237,-570.5 1383,-570.5 1383,-550.5 1237,-550.5"/>
<text text-anchor="middle" x="1310" y="-557.5" font-family="FreeSans" font-size="10.00" fill="#000000">KFParticleBase::MultQSQt</text>
</a>
</g>
</g>
<!-- Node6&#45;&gt;Node10 -->
<g id="edge9" class="edge">
<title>Node6&#45;&gt;Node10</title>
<path fill="none" stroke="#191970" d="M1162.9833,-627.4738C1170.9668,-625.092 1178.8,-622.1453 1186,-618.5 1205.3646,-608.6958 1203.0504,-596.084 1222,-585.5 1230.6316,-580.6789 1240.2688,-576.7243 1249.9121,-573.4997"/>
<polygon fill="#191970" stroke="#191970" points="1251.0098,-576.8238 1259.5204,-570.5135 1248.9322,-570.1392 1251.0098,-576.8238"/>
</g>
<!-- Node11 -->
<g id="node11" class="node">
<title>Node11</title>
<g id="a_node11"><a xlink:href="../../d5/d41/classKFParticleBase.html#a4c022cf8371927f3bfdca7f7901db99a" target="_top" xlink:title="KFParticleBase::Transport">
<polygon fill="none" stroke="#000000" points="1434,-395.5 1434,-415.5 1579,-415.5 1579,-395.5 1434,-395.5"/>
<text text-anchor="middle" x="1506.5" y="-402.5" font-family="FreeSans" font-size="10.00" fill="#000000">KFParticleBase::Transport</text>
</a>
</g>
</g>
<!-- Node6&#45;&gt;Node11 -->
<g id="edge10" class="edge">
<title>Node6&#45;&gt;Node11</title>
<path fill="none" stroke="#191970" d="M1182.7753,-628.6409C1260.3445,-619.7451 1363.6512,-603.9689 1398,-580.5 1454.6832,-541.7711 1487.3811,-462.667 1500.1812,-425.5588"/>
<polygon fill="#191970" stroke="#191970" points="1503.5664,-426.47 1503.394,-415.8765 1496.9227,-424.2653 1503.5664,-426.47"/>
</g>
<!-- Node14&#45;&gt;Node6 -->
<g id="edge15" class="edge">
<title>Node14&#45;&gt;Node6</title>
<path fill="none" stroke="#191970" d="M957.2016,-637.5C967.083,-637.5 977.262,-637.5 987.3804,-637.5"/>
<polygon fill="#191970" stroke="#191970" points="987.4655,-641.0001 997.4655,-637.5 987.4655,-634.0001 987.4655,-641.0001"/>
</g>
<!-- Node14&#45;&gt;Node9 -->
<g id="edge17" class="edge">
<title>Node14&#45;&gt;Node9</title>
<path fill="none" stroke="#191970" d="M947.2611,-653.5258C1017.2562,-668.0682 1126.2661,-688.4307 1222,-696.5 1299.9458,-703.07 1322.1907,-715.7787 1398,-696.5 1430.5471,-688.2231 1463.8821,-667.9892 1484.858,-653.5276"/>
<polygon fill="#191970" stroke="#191970" points="1486.9072,-656.3652 1493.0526,-647.7348 1482.8665,-650.6492 1486.9072,-656.3652"/>
</g>
<!-- Node14&#45;&gt;Node12 -->
<g id="edge16" class="edge">
<title>Node14&#45;&gt;Node12</title>
<path fill="none" stroke="#191970" d="M942.4901,-653.5712C948.0355,-656.3681 953.3032,-659.6499 958,-663.5 983.8408,-684.6825 971.3543,-704.9314 994,-729.5 1012.7464,-749.8382 1039.3725,-766.6367 1059.83,-777.758"/>
<polygon fill="#191970" stroke="#191970" points="1058.267,-780.8906 1068.7449,-782.4607 1061.533,-774.6992 1058.267,-780.8906"/>
</g>
<!-- Node14&#45;&gt;Node13 -->
<g id="edge18" class="edge">
<title>Node14&#45;&gt;Node13</title>
<path fill="none" stroke="#191970" d="M957.2016,-622.5331C979.5396,-618.4905 1003.398,-614.1727 1024.6412,-610.3283"/>
<polygon fill="#191970" stroke="#191970" points="1025.3041,-613.7653 1034.5209,-608.5403 1024.0574,-606.8771 1025.3041,-613.7653"/>
</g>
<!-- Node14&#45;&gt;Node15 -->
<g id="edge19" class="edge">
<title>Node14&#45;&gt;Node15</title>
<path fill="none" stroke="#191970" d="M902.6623,-621.4696C926.3782,-608.5538 961.5335,-590.7517 994,-579.5 1003.4303,-576.2318 1013.5637,-573.3607 1023.5864,-570.8758"/>
<polygon fill="#191970" stroke="#191970" points="1024.6172,-574.2286 1033.5422,-568.5193 1023.0048,-567.4168 1024.6172,-574.2286"/>
</g>
<!-- Node16 -->
<g id="node16" class="node">
<title>Node16</title>
<g id="a_node16"><a xlink:href="../../d5/d41/classKFParticleBase.html#aeab9a3989e50d30810c3affb483254c7" target="_top" xlink:title="KFParticleBase::Cij">
<polygon fill="none" stroke="#000000" points="1255,-472.5 1255,-492.5 1365,-492.5 1365,-472.5 1255,-472.5"/>
<text text-anchor="middle" x="1310" y="-479.5" font-family="FreeSans" font-size="10.00" fill="#000000">KFParticleBase::Cij</text>
</a>
</g>
</g>
<!-- Node15&#45;&gt;Node16 -->
<g id="edge20" class="edge">
<title>Node15&#45;&gt;Node16</title>
<path fill="none" stroke="#191970" d="M1110.5957,-548.405C1136.2038,-536.1729 1181.4915,-515.5811 1222,-502.5 1230.6497,-499.7068 1239.8985,-497.1524 1249.0306,-494.8721"/>
<polygon fill="#191970" stroke="#191970" points="1249.9565,-498.2493 1258.8602,-492.507 1248.3189,-491.4436 1249.9565,-498.2493"/>
</g>
<!-- Node16&#45;&gt;Node9 -->
<g id="edge21" class="edge">
<title>Node16&#45;&gt;Node9</title>
<path fill="none" stroke="#191970" d="M1365.2847,-489.1349C1376.668,-492.0913 1388.1687,-496.3549 1398,-502.5 1444.9617,-531.8537 1480.5109,-588.8477 1496.7611,-618.5165"/>
<polygon fill="#191970" stroke="#191970" points="1493.73,-620.271 1501.5208,-627.4512 1499.9081,-616.9798 1493.73,-620.271"/>
</g>
<!-- Node17&#45;&gt;Node8 -->
<g id="edge25" class="edge">
<title>Node17&#45;&gt;Node8</title>
<path fill="none" stroke="#191970" d="M958.211,-458.493C1041.4449,-473.4006 1167.4428,-495.9674 1243.898,-509.6608"/>
<polygon fill="#191970" stroke="#191970" points="1243.4276,-513.1322 1253.8881,-511.4501 1244.6618,-506.2419 1243.4276,-513.1322"/>
</g>
<!-- Node17&#45;&gt;Node9 -->
<g id="edge26" class="edge">
<title>Node17&#45;&gt;Node9</title>
<path fill="none" stroke="#191970" d="M958.0033,-437.2104C1086.5334,-429.0647 1325.5931,-420.4599 1398,-462.5 1457.6506,-497.1337 1489.0198,-578.9762 1500.8529,-617.1874"/>
<polygon fill="#191970" stroke="#191970" points="1497.6036,-618.5424 1503.7944,-627.1404 1504.3166,-616.5584 1497.6036,-618.5424"/>
</g>
<!-- Node17&#45;&gt;Node10 -->
<g id="edge28" class="edge">
<title>Node17&#45;&gt;Node10</title>
<path fill="none" stroke="#191970" d="M905.7213,-459.6007C929.4154,-471.2594 963.079,-486.6416 994,-496.5 1039.3605,-510.9621 1163.9703,-534.464 1242.4775,-548.6059"/>
<polygon fill="#191970" stroke="#191970" points="1242.3006,-552.13 1252.7618,-550.4524 1243.5377,-545.2402 1242.3006,-552.13"/>
</g>
<!-- Node17&#45;&gt;Node11 -->
<g id="edge29" class="edge">
<title>Node17&#45;&gt;Node11</title>
<path fill="none" stroke="#191970" d="M958.3229,-432.93C970.2845,-431.6402 982.4456,-430.4462 994,-429.5 1145.2725,-417.1121 1322.227,-410.5823 1423.654,-407.6005"/>
<polygon fill="#191970" stroke="#191970" points="1423.9383,-411.0938 1433.8327,-407.3057 1423.7356,-404.0967 1423.9383,-411.0938"/>
</g>
<!-- Node17&#45;&gt;Node13 -->
<g id="edge27" class="edge">
<title>Node17&#45;&gt;Node13</title>
<path fill="none" stroke="#191970" d="M883.9762,-459.8404C901.6517,-488.7451 942.5622,-548.6505 994,-578.5 998.1966,-580.9353 1002.6486,-583.0762 1007.2471,-584.9582"/>
<polygon fill="#191970" stroke="#191970" points="1006.2633,-588.3249 1016.8571,-588.4687 1008.6651,-581.7499 1006.2633,-588.3249"/>
</g>
<!-- Node18 -->
<g id="node18" class="node">
<title>Node18</title>
<g id="a_node18"><a xlink:href="../../d5/d41/classKFParticleBase.html#af6de8b429c89b13c29f7f8d9f6aa24c7" target="_top" xlink:title="KFParticleBase::Transport\lToDecayVertex">
<polygon fill="none" stroke="#000000" points="1017.5,-227.5 1017.5,-259.5 1162.5,-259.5 1162.5,-227.5 1017.5,-227.5"/>
<text text-anchor="start" x="1025.5" y="-246.5" font-family="FreeSans" font-size="10.00" fill="#000000">KFParticleBase::Transport</text>
<text text-anchor="middle" x="1090" y="-234.5" font-family="FreeSans" font-size="10.00" fill="#000000">ToDecayVertex</text>
</a>
</g>
</g>
<!-- Node17&#45;&gt;Node18 -->
<g id="edge30" class="edge">
<title>Node17&#45;&gt;Node18</title>
<path fill="none" stroke="#191970" d="M880.8391,-427.3408C895.3246,-392.5948 934.2779,-310.5272 994,-268.5 998.2914,-265.4801 1002.9212,-262.8249 1007.748,-260.4903"/>
<polygon fill="#191970" stroke="#191970" points="1009.4484,-263.5682 1017.236,-256.3846 1006.6684,-257.1439 1009.4484,-263.5682"/>
</g>
<!-- Node20 -->
<g id="node20" class="node">
<title>Node20</title>
<g id="a_node20"><a xlink:href="../../d5/d41/classKFParticleBase.html#af624ef17e57f675476a2a0e597ce2983" target="_top" xlink:title="Retruns X coordinate of the particle, fP[0].">
<polygon fill="none" stroke="#000000" points="1038,-356.5 1038,-376.5 1142,-376.5 1142,-356.5 1038,-356.5"/>
<text text-anchor="middle" x="1090" y="-363.5" font-family="FreeSans" font-size="10.00" fill="#000000">KFParticleBase::X</text>
</a>
</g>
</g>
<!-- Node17&#45;&gt;Node20 -->
<g id="edge33" class="edge">
<title>Node17&#45;&gt;Node20</title>
<path fill="none" stroke="#191970" d="M907.6845,-427.397C931.3629,-416.3202 964.1669,-401.8052 994,-391.5 1007.3613,-386.8846 1022.0232,-382.6589 1035.7783,-379.0474"/>
<polygon fill="#191970" stroke="#191970" points="1036.7844,-382.4028 1045.6023,-376.5295 1035.0464,-375.622 1036.7844,-382.4028"/>
</g>
<!-- Node21 -->
<g id="node21" class="node">
<title>Node21</title>
<g id="a_node21"><a xlink:href="../../d5/d41/classKFParticleBase.html#ad7d7e1a209955c43efac37d6136ac406" target="_top" xlink:title="Retruns Y coordinate of the particle, fP[1].">
<polygon fill="none" stroke="#000000" points="1038,-317.5 1038,-337.5 1142,-337.5 1142,-317.5 1038,-317.5"/>
<text text-anchor="middle" x="1090" y="-324.5" font-family="FreeSans" font-size="10.00" fill="#000000">KFParticleBase::Y</text>
</a>
</g>
</g>
<!-- Node17&#45;&gt;Node21 -->
<g id="edge34" class="edge">
<title>Node17&#45;&gt;Node21</title>
<path fill="none" stroke="#191970" d="M889.3834,-427.2276C910.4465,-405.2671 951.1809,-366.5862 994,-346.5 1004.4692,-341.589 1016.1574,-337.9463 1027.6764,-335.2447"/>
<polygon fill="#191970" stroke="#191970" points="1028.6696,-338.6117 1037.7207,-333.1046 1027.2108,-331.7654 1028.6696,-338.6117"/>
</g>
<!-- Node22 -->
<g id="node22" class="node">
<title>Node22</title>
<g id="a_node22"><a xlink:href="../../d5/d41/classKFParticleBase.html#a96e631c939d83ff67c82701ed8255200" target="_top" xlink:title="Retruns Z coordinate of the particle, fP[2].">
<polygon fill="none" stroke="#000000" points="1038,-278.5 1038,-298.5 1142,-298.5 1142,-278.5 1038,-278.5"/>
<text text-anchor="middle" x="1090" y="-285.5" font-family="FreeSans" font-size="10.00" fill="#000000">KFParticleBase::Z</text>
</a>
</g>
</g>
<!-- Node17&#45;&gt;Node22 -->
<g id="edge35" class="edge">
<title>Node17&#45;&gt;Node22</title>
<path fill="none" stroke="#191970" d="M883.639,-427.445C901.0638,-398.4226 941.9811,-337.4667 994,-307.5 1004.3513,-301.5369 1016.2585,-297.4161 1028.0859,-294.5755"/>
<polygon fill="#191970" stroke="#191970" points="1028.9111,-297.9784 1037.9663,-292.4781 1027.4575,-291.131 1028.9111,-297.9784"/>
</g>
<!-- Node19 -->
<g id="node19" class="node">
<title>Node19</title>
<g id="a_node19"><a xlink:href="../../d5/d41/classKFParticleBase.html#a0048b51a7253c7ac3af2c3c539f57cc7" target="_top" xlink:title="KFParticleBase::TransportToDS">
<polygon fill="none" stroke="#000000" points="1225,-295.5 1225,-315.5 1395,-315.5 1395,-295.5 1225,-295.5"/>
<text text-anchor="middle" x="1310" y="-302.5" font-family="FreeSans" font-size="10.00" fill="#000000">KFParticleBase::TransportToDS</text>
</a>
</g>
</g>
<!-- Node18&#45;&gt;Node19 -->
<g id="edge31" class="edge">
<title>Node18&#45;&gt;Node19</title>
<path fill="none" stroke="#191970" d="M1152.8278,-259.5221C1163.8991,-262.4422 1175.301,-265.5117 1186,-268.5 1213.2633,-276.1149 1243.7281,-285.1971 1267.6385,-292.4575"/>
<polygon fill="#191970" stroke="#191970" points="1266.8701,-295.8821 1277.456,-295.4479 1268.9098,-289.1859 1266.8701,-295.8821"/>
</g>
<!-- Node19&#45;&gt;Node11 -->
<g id="edge32" class="edge">
<title>Node19&#45;&gt;Node11</title>
<path fill="none" stroke="#191970" d="M1329.9228,-315.6388C1364.8801,-333.4288 1437.3775,-370.3232 1477.7596,-390.8738"/>
<polygon fill="#191970" stroke="#191970" points="1476.3168,-394.0667 1486.8166,-395.483 1479.4917,-387.8281 1476.3168,-394.0667"/>
</g>
</g>
</svg>
