<?xml version="1.0" encoding="UTF-8" standalone="no"?>
<!DOCTYPE svg PUBLIC "-//W3C//DTD SVG 1.1//EN"
 "http://www.w3.org/Graphics/SVG/1.1/DTD/svg11.dtd">
<!-- Generated by graphviz version 2.40.1 (20161225.0304)
 -->
<!-- Title: makesplitting Pages: 1 -->
<svg width="1059pt" height="770pt"
 viewBox="0.00 0.00 1059.00 770.00" xmlns="http://www.w3.org/2000/svg" xmlns:xlink="http://www.w3.org/1999/xlink">
<g id="graph0" class="graph" transform="scale(1 1) rotate(0) translate(4 766)">
<title>makesplitting</title>
<!-- Node1 -->
<g id="node1" class="node">
<title>Node1</title>
<polygon fill="#bfbfbf" stroke="#000000" points="0,-546.5 0,-566.5 85,-566.5 85,-546.5 0,-546.5"/>
<text text-anchor="middle" x="42.5" y="-553.5" font-family="FreeSans" font-size="10.00" fill="#000000">makesplitting</text>
</g>
<!-- Node2 -->
<g id="node2" class="node">
<title>Node2</title>
<g id="a_node2"><a xlink:href="../../d0/d56/classATrack.html#a270bfd685deac92f5888274628d137c7" target="_top" xlink:title="ATrack::check">
<polygon fill="none" stroke="#000000" points="121,-741.5 121,-761.5 208,-761.5 208,-741.5 121,-741.5"/>
<text text-anchor="middle" x="164.5" y="-748.5" font-family="FreeSans" font-size="10.00" fill="#000000">ATrack::check</text>
</a>
</g>
</g>
<!-- Node1&#45;&gt;Node2 -->
<g id="edge1" class="edge">
<title>Node1&#45;&gt;Node2</title>
<path fill="none" stroke="#191970" d="M44.8292,-566.5169C51.84,-594.7835 75.1425,-676.367 121,-726.5 124.2812,-730.0872 128.1994,-733.2985 132.3207,-736.1274"/>
<polygon fill="#191970" stroke="#191970" points="130.5705,-739.1596 140.9269,-741.3947 134.2247,-733.1891 130.5705,-739.1596"/>
</g>
<!-- Node3 -->
<g id="node3" class="node">
<title>Node3</title>
<g id="a_node3"><a xlink:href="../../d3/dc7/classRawTowerContainer.html#a555d52b05fc064faf6c8bc2145814412" target="_top" xlink:title="RawTowerContainer::\lcompress">
<polygon fill="none" stroke="#000000" points="367.5,-612.5 367.5,-644.5 489.5,-644.5 489.5,-612.5 367.5,-612.5"/>
<text text-anchor="start" x="375.5" y="-631.5" font-family="FreeSans" font-size="10.00" fill="#000000">RawTowerContainer::</text>
<text text-anchor="middle" x="428.5" y="-619.5" font-family="FreeSans" font-size="10.00" fill="#000000">compress</text>
</a>
</g>
</g>
<!-- Node1&#45;&gt;Node3 -->
<g id="edge2" class="edge">
<title>Node1&#45;&gt;Node3</title>
<path fill="none" stroke="#191970" d="M51.4047,-566.5477C65.2234,-581.7341 93.1511,-610.8434 121,-630.5 171.1796,-665.9182 184.292,-679.0985 244,-693.5 272.9476,-700.4821 282.1675,-700.9434 311,-693.5 343.2822,-685.166 376.1664,-665.8575 398.9048,-650.4373"/>
<polygon fill="#191970" stroke="#191970" points="401.1826,-653.1167 407.3985,-644.5369 397.1888,-647.3678 401.1826,-653.1167"/>
</g>
<!-- Node5 -->
<g id="node5" class="node">
<title>Node5</title>
<g id="a_node5"><a xlink:href="../../d3/dd5/jewel-2_82_80_8f.html#a2c347b70e01f7c70152c16c2bf085e94" target="_top" xlink:title="generatez">
<polygon fill="none" stroke="#000000" points="244,-663.5 244,-683.5 311,-683.5 311,-663.5 244,-663.5"/>
<text text-anchor="middle" x="277.5" y="-670.5" font-family="FreeSans" font-size="10.00" fill="#000000">generatez</text>
</a>
</g>
</g>
<!-- Node1&#45;&gt;Node5 -->
<g id="edge4" class="edge">
<title>Node1&#45;&gt;Node5</title>
<path fill="none" stroke="#191970" d="M62.9436,-566.6783C104.7144,-587.4749 199.9728,-634.9013 248.2679,-658.9461"/>
<polygon fill="#191970" stroke="#191970" points="246.7592,-662.1047 257.271,-663.4285 249.879,-655.8384 246.7592,-662.1047"/>
</g>
<!-- Node6 -->
<g id="node6" class="node">
<title>Node6</title>
<g id="a_node6"><a xlink:href="../../d6/dcf/pythia6425mod_8f.html#ac28b7ef95cee2881a46f71d3a88d05ac" target="_top" xlink:title="pyr">
<polygon fill="none" stroke="#000000" points="604.5,-507.5 604.5,-527.5 637.5,-527.5 637.5,-507.5 604.5,-507.5"/>
<text text-anchor="middle" x="621" y="-514.5" font-family="FreeSans" font-size="10.00" fill="#000000">pyr</text>
</a>
</g>
</g>
<!-- Node1&#45;&gt;Node6 -->
<g id="edge61" class="edge">
<title>Node1&#45;&gt;Node6</title>
<path fill="none" stroke="#191970" d="M85.1898,-556.7254C167.5842,-556.7272 354.1637,-554.6237 510,-537.5 539.069,-534.3058 571.999,-528.0317 594.3916,-523.3583"/>
<polygon fill="#191970" stroke="#191970" points="595.1272,-526.7803 604.1806,-521.277 593.6713,-519.9333 595.1272,-526.7803"/>
</g>
<!-- Node7 -->
<g id="node7" class="node">
<title>Node7</title>
<g id="a_node7"><a xlink:href="../../d3/dd5/jewel-2_82_80_8f.html#a6a7de1452a015a48823a6f8e9233de63" target="_top" xlink:title="getmass">
<polygon fill="none" stroke="#000000" points="135,-468.5 135,-488.5 194,-488.5 194,-468.5 135,-468.5"/>
<text text-anchor="middle" x="164.5" y="-475.5" font-family="FreeSans" font-size="10.00" fill="#000000">getmass</text>
</a>
</g>
</g>
<!-- Node1&#45;&gt;Node7 -->
<g id="edge7" class="edge">
<title>Node1&#45;&gt;Node7</title>
<path fill="none" stroke="#191970" d="M58.4494,-546.3029C79.1819,-533.0476 115.6017,-509.7628 139.89,-494.2343"/>
<polygon fill="#191970" stroke="#191970" points="142.0068,-497.0351 148.5467,-488.6996 138.2361,-491.1375 142.0068,-497.0351"/>
</g>
<!-- Node30 -->
<g id="node30" class="node">
<title>Node30</title>
<g id="a_node30"><a xlink:href="../../d2/d18/medium-simple_8f.html#a4c3c426f7b73441851ebd368f54397fb" target="_top" xlink:title="gettemp">
<polygon fill="none" stroke="#000000" points="135,-58.5 135,-78.5 194,-78.5 194,-58.5 135,-58.5"/>
<text text-anchor="middle" x="164.5" y="-65.5" font-family="FreeSans" font-size="10.00" fill="#000000">gettemp</text>
</a>
</g>
</g>
<!-- Node1&#45;&gt;Node30 -->
<g id="edge34" class="edge">
<title>Node1&#45;&gt;Node30</title>
<path fill="none" stroke="#191970" d="M44.0985,-546.3616C51.0918,-502.7378 80.4647,-326.8711 121,-186.5 131.1908,-151.21 146.7737,-111.3425 156.2606,-88.1544"/>
<polygon fill="#191970" stroke="#191970" points="159.5623,-89.329 160.1493,-78.7505 153.0935,-86.6541 159.5623,-89.329"/>
</g>
<!-- Node36 -->
<g id="node36" class="node">
<title>Node36</title>
<g id="a_node36"><a xlink:href="../../d6/dcf/pythia6425mod_8f.html#acc54128638bbd93cf630e1576f91d443" target="_top" xlink:title="pylist">
<polygon fill="none" stroke="#000000" points="142.5,-195.5 142.5,-215.5 186.5,-215.5 186.5,-195.5 142.5,-195.5"/>
<text text-anchor="middle" x="164.5" y="-202.5" font-family="FreeSans" font-size="10.00" fill="#000000">pylist</text>
</a>
</g>
</g>
<!-- Node1&#45;&gt;Node36 -->
<g id="edge43" class="edge">
<title>Node1&#45;&gt;Node36</title>
<path fill="none" stroke="#191970" d="M46.0197,-546.3738C62.8215,-498.0341 134.9891,-290.4044 157.6584,-225.1837"/>
<polygon fill="#191970" stroke="#191970" points="160.9889,-226.2621 160.9661,-215.6673 154.3769,-223.9639 160.9889,-226.2621"/>
</g>
<!-- Node4 -->
<g id="node4" class="node">
<title>Node4</title>
<g id="a_node4"><a xlink:href="../../d9/dd8/classRawTower.html#ab23195d58fefabd9162115afa96707cc" target="_top" xlink:title="energy assigned to the tower. Depending on stage of process and DST node name, it could be energy dep...">
<polygon fill="none" stroke="#000000" points="556,-618.5 556,-638.5 686,-638.5 686,-618.5 556,-618.5"/>
<text text-anchor="middle" x="621" y="-625.5" font-family="FreeSans" font-size="10.00" fill="#000000">RawTower::get_energy</text>
</a>
</g>
</g>
<!-- Node3&#45;&gt;Node4 -->
<g id="edge3" class="edge">
<title>Node3&#45;&gt;Node4</title>
<path fill="none" stroke="#191970" d="M489.6727,-628.5C507.5075,-628.5 527.2038,-628.5 545.7981,-628.5"/>
<polygon fill="#191970" stroke="#191970" points="545.9961,-632.0001 555.996,-628.5 545.996,-625.0001 545.9961,-632.0001"/>
</g>
<!-- Node5&#45;&gt;Node3 -->
<g id="edge5" class="edge">
<title>Node5&#45;&gt;Node3</title>
<path fill="none" stroke="#191970" d="M311.0118,-663.513C326.9195,-658.7723 346.4736,-652.945 365.0321,-647.4143"/>
<polygon fill="#191970" stroke="#191970" points="366.0379,-650.7667 374.6217,-644.5564 364.0386,-644.0583 366.0379,-650.7667"/>
</g>
<!-- Node5&#45;&gt;Node6 -->
<g id="edge6" class="edge">
<title>Node5&#45;&gt;Node6</title>
<path fill="none" stroke="#191970" d="M311.3734,-678.7107C358.8109,-684.3132 446.3532,-688.3502 510,-654.5 532.6132,-642.4733 529.9081,-629.4261 546,-609.5 566.7893,-583.7573 591.0054,-554.1136 606.1708,-535.59"/>
<polygon fill="#191970" stroke="#191970" points="609.0163,-537.6395 612.6455,-527.6856 603.6011,-533.2037 609.0163,-537.6395"/>
</g>
<!-- Node7&#45;&gt;Node3 -->
<g id="edge10" class="edge">
<title>Node7&#45;&gt;Node3</title>
<path fill="none" stroke="#191970" d="M166.9127,-488.7061C173.7463,-515.079 195.9342,-585.521 244,-615.5 277.2471,-636.2365 320.7194,-640.1578 357.1146,-638.583"/>
<polygon fill="#191970" stroke="#191970" points="357.396,-642.0726 367.1778,-638.0024 356.9928,-635.0843 357.396,-642.0726"/>
</g>
<!-- Node7&#45;&gt;Node6 -->
<g id="edge33" class="edge">
<title>Node7&#45;&gt;Node6</title>
<path fill="none" stroke="#191970" d="M194.1739,-479.1018C254.0609,-480.5623 393.5942,-485.2102 510,-498.5 538.8794,-501.7971 571.6524,-507.6727 594.0564,-512.02"/>
<polygon fill="#191970" stroke="#191970" points="593.6709,-515.5113 604.1593,-514.0133 595.0259,-508.6437 593.6709,-515.5113"/>
</g>
<!-- Node8 -->
<g id="node8" class="node">
<title>Node8</title>
<g id="a_node8"><a xlink:href="../../d3/dd5/jewel-2_82_80_8f.html#a861c6a640ff0e9cf7304375200c3d5e0" target="_top" xlink:title="alphas">
<polygon fill="none" stroke="#000000" points="252.5,-585.5 252.5,-605.5 302.5,-605.5 302.5,-585.5 252.5,-585.5"/>
<text text-anchor="middle" x="277.5" y="-592.5" font-family="FreeSans" font-size="10.00" fill="#000000">alphas</text>
</a>
</g>
</g>
<!-- Node7&#45;&gt;Node8 -->
<g id="edge8" class="edge">
<title>Node7&#45;&gt;Node8</title>
<path fill="none" stroke="#191970" d="M174.528,-488.883C193.9263,-508.968 236.7743,-553.3327 260.6312,-578.0341"/>
<polygon fill="#191970" stroke="#191970" points="258.1912,-580.5458 267.6558,-585.3074 263.2263,-575.6829 258.1912,-580.5458"/>
</g>
<!-- Node9 -->
<g id="node9" class="node">
<title>Node9</title>
<g id="a_node9"><a xlink:href="../../d3/dd5/jewel-2_82_80_8f.html#a3e5d5aa7f6baedf76c30babb8b2bddea" target="_top" xlink:title="getinspliti">
<polygon fill="none" stroke="#000000" points="244.5,-507.5 244.5,-527.5 310.5,-527.5 310.5,-507.5 244.5,-507.5"/>
<text text-anchor="middle" x="277.5" y="-514.5" font-family="FreeSans" font-size="10.00" fill="#000000">getinspliti</text>
</a>
</g>
</g>
<!-- Node7&#45;&gt;Node9 -->
<g id="edge11" class="edge">
<title>Node7&#45;&gt;Node9</title>
<path fill="none" stroke="#191970" d="M193.6003,-488.5435C207.4401,-493.32 224.1739,-499.0954 239.0444,-504.2277"/>
<polygon fill="#191970" stroke="#191970" points="237.9036,-507.5365 248.4983,-507.4906 240.1874,-500.9195 237.9036,-507.5365"/>
</g>
<!-- Node11 -->
<g id="node11" class="node">
<title>Node11</title>
<g id="a_node11"><a xlink:href="../../d0/d2c/gmin_8f.html#a0a524108403ffb2c2ed11018378f1c75" target="_top" xlink:title="gmin">
<polygon fill="none" stroke="#000000" points="257,-429.5 257,-449.5 298,-449.5 298,-429.5 257,-429.5"/>
<text text-anchor="middle" x="277.5" y="-436.5" font-family="FreeSans" font-size="10.00" fill="#000000">gmin</text>
</a>
</g>
</g>
<!-- Node7&#45;&gt;Node11 -->
<g id="edge14" class="edge">
<title>Node7&#45;&gt;Node11</title>
<path fill="none" stroke="#191970" d="M193.6003,-468.4565C209.9546,-462.8121 230.3502,-455.7729 246.9369,-450.0483"/>
<polygon fill="#191970" stroke="#191970" points="248.3911,-453.2491 256.7021,-446.678 246.1073,-446.6321 248.3911,-453.2491"/>
</g>
<!-- Node27 -->
<g id="node27" class="node">
<title>Node27</title>
<g id="a_node27"><a xlink:href="../../d3/dd5/jewel-2_82_80_8f.html#af89efb4bec96c21255b038d832d901ab" target="_top" xlink:title="pgg">
<polygon fill="none" stroke="#000000" points="260,-390.5 260,-410.5 295,-410.5 295,-390.5 260,-390.5"/>
<text text-anchor="middle" x="277.5" y="-397.5" font-family="FreeSans" font-size="10.00" fill="#000000">pgg</text>
</a>
</g>
</g>
<!-- Node7&#45;&gt;Node27 -->
<g id="edge30" class="edge">
<title>Node7&#45;&gt;Node27</title>
<path fill="none" stroke="#191970" d="M177.4599,-468.4751C192.9839,-456.6014 219.9161,-436.4259 244,-420.5 246.3042,-418.9763 248.7243,-417.4306 251.1651,-415.9084"/>
<polygon fill="#191970" stroke="#191970" points="253.1995,-418.7676 259.9245,-410.5807 249.5619,-412.787 253.1995,-418.7676"/>
</g>
<!-- Node28 -->
<g id="node28" class="node">
<title>Node28</title>
<g id="a_node28"><a xlink:href="../../d3/dd5/jewel-2_82_80_8f.html#a9c971fc07a1a6587c5ec282bcbfd1d1a" target="_top" xlink:title="pqg">
<polygon fill="none" stroke="#000000" points="260,-351.5 260,-371.5 295,-371.5 295,-351.5 260,-351.5"/>
<text text-anchor="middle" x="277.5" y="-358.5" font-family="FreeSans" font-size="10.00" fill="#000000">pqg</text>
</a>
</g>
</g>
<!-- Node7&#45;&gt;Node28 -->
<g id="edge31" class="edge">
<title>Node7&#45;&gt;Node28</title>
<path fill="none" stroke="#191970" d="M170.9837,-468.4604C183.4461,-449.707 212.3297,-408.789 244,-381.5 246.2129,-379.5932 248.631,-377.7613 251.1222,-376.0331"/>
<polygon fill="#191970" stroke="#191970" points="253.1155,-378.9135 259.6823,-370.5992 249.3639,-373.0036 253.1155,-378.9135"/>
</g>
<!-- Node29 -->
<g id="node29" class="node">
<title>Node29</title>
<g id="a_node29"><a xlink:href="../../d3/dd5/jewel-2_82_80_8f.html#a5c4972205992c66a4d4f520bf2322bae" target="_top" xlink:title="pqq">
<polygon fill="none" stroke="#000000" points="260,-312.5 260,-332.5 295,-332.5 295,-312.5 260,-312.5"/>
<text text-anchor="middle" x="277.5" y="-319.5" font-family="FreeSans" font-size="10.00" fill="#000000">pqq</text>
</a>
</g>
</g>
<!-- Node7&#45;&gt;Node29 -->
<g id="edge32" class="edge">
<title>Node7&#45;&gt;Node29</title>
<path fill="none" stroke="#191970" d="M168.287,-468.4972C177.8305,-444.3468 204.9238,-381.9387 244,-342.5 246.2169,-340.2625 248.7337,-338.178 251.3683,-336.2648"/>
<polygon fill="#191970" stroke="#191970" points="253.4308,-339.1002 259.9631,-330.7587 249.6547,-333.206 253.4308,-339.1002"/>
</g>
<!-- Node8&#45;&gt;Node3 -->
<g id="edge9" class="edge">
<title>Node8&#45;&gt;Node3</title>
<path fill="none" stroke="#191970" d="M302.774,-601.0235C317.8568,-604.3197 337.8338,-608.6855 357.4136,-612.9646"/>
<polygon fill="#191970" stroke="#191970" points="356.7614,-616.4046 367.2781,-615.1204 358.256,-609.566 356.7614,-616.4046"/>
</g>
<!-- Node9&#45;&gt;Node3 -->
<g id="edge12" class="edge">
<title>Node9&#45;&gt;Node3</title>
<path fill="none" stroke="#191970" d="M291.1666,-527.5463C315.2245,-545.2312 365.6715,-582.3148 398.2692,-606.2774"/>
<polygon fill="#191970" stroke="#191970" points="396.4187,-609.2609 406.549,-612.3638 400.5647,-603.6208 396.4187,-609.2609"/>
</g>
<!-- Node10 -->
<g id="node10" class="node">
<title>Node10</title>
<g id="a_node10"><a xlink:href="../../d3/dd5/jewel-2_82_80_8f.html#a128c80a01e220038eb138a985885083a" target="_top" xlink:title="ei">
<polygon fill="none" stroke="#000000" points="414,-507.5 414,-527.5 443,-527.5 443,-507.5 414,-507.5"/>
<text text-anchor="middle" x="428.5" y="-514.5" font-family="FreeSans" font-size="10.00" fill="#000000">ei</text>
</a>
</g>
</g>
<!-- Node9&#45;&gt;Node10 -->
<g id="edge13" class="edge">
<title>Node9&#45;&gt;Node10</title>
<path fill="none" stroke="#191970" d="M310.6376,-517.5C338.6185,-517.5 378.0769,-517.5 403.4746,-517.5"/>
<polygon fill="#191970" stroke="#191970" points="403.7434,-521.0001 413.7433,-517.5 403.7433,-514.0001 403.7434,-521.0001"/>
</g>
<!-- Node12 -->
<g id="node12" class="node">
<title>Node12</title>
<g id="a_node12"><a xlink:href="../../de/de0/matchedfilter_8C.html#ad37474ba23a5f0af2c619aeeaad07526" target="_top" xlink:title="go">
<polygon fill="none" stroke="#000000" points="414,-390.5 414,-410.5 443,-410.5 443,-390.5 414,-390.5"/>
<text text-anchor="middle" x="428.5" y="-397.5" font-family="FreeSans" font-size="10.00" fill="#000000">go</text>
</a>
</g>
</g>
<!-- Node11&#45;&gt;Node12 -->
<g id="edge15" class="edge">
<title>Node11&#45;&gt;Node12</title>
<path fill="none" stroke="#191970" d="M298.1416,-433.7046C311.9473,-429.866 330.5329,-424.7706 347,-420.5 366.0881,-415.5497 387.7744,-410.2431 403.9756,-406.3409"/>
<polygon fill="#191970" stroke="#191970" points="404.8397,-409.733 413.7476,-403.9972 403.2071,-402.926 404.8397,-409.733"/>
</g>
<!-- Node15 -->
<g id="node15" class="node">
<title>Node15</title>
<g id="a_node15"><a xlink:href="../../d3/df2/classgenfit_1_1GFRavePropagator.html#a0534e516b69488120356d8bfa53f6f5b" target="_top" xlink:title="genfit::GFRavePropagator::to">
<polygon fill="none" stroke="#000000" points="347,-351.5 347,-371.5 510,-371.5 510,-351.5 347,-351.5"/>
<text text-anchor="middle" x="428.5" y="-358.5" font-family="FreeSans" font-size="10.00" fill="#000000">genfit::GFRavePropagator::to</text>
</a>
</g>
</g>
<!-- Node11&#45;&gt;Node15 -->
<g id="edge18" class="edge">
<title>Node11&#45;&gt;Node15</title>
<path fill="none" stroke="#191970" d="M297.6394,-429.4178C302.2083,-426.7713 306.9142,-423.7413 311,-420.5 329.4801,-405.8395 326.6832,-393.4863 347,-381.5 351.0977,-379.0825 355.4762,-376.9563 359.9972,-375.0864"/>
<polygon fill="#191970" stroke="#191970" points="361.2676,-378.3483 369.4328,-371.5971 358.8396,-371.7829 361.2676,-378.3483"/>
</g>
<!-- Node13 -->
<g id="node13" class="node">
<title>Node13</title>
<g id="a_node13"><a xlink:href="../../de/de0/matchedfilter_8C.html#a3f4d763c3fdd217c038a53ba4ca5b98a" target="_top" xlink:title="meanw">
<polygon fill="none" stroke="#000000" points="594.5,-429.5 594.5,-449.5 647.5,-449.5 647.5,-429.5 594.5,-429.5"/>
<text text-anchor="middle" x="621" y="-436.5" font-family="FreeSans" font-size="10.00" fill="#000000">meanw</text>
</a>
</g>
</g>
<!-- Node12&#45;&gt;Node13 -->
<g id="edge16" class="edge">
<title>Node12&#45;&gt;Node13</title>
<path fill="none" stroke="#191970" d="M443.2855,-403.4955C473.2162,-409.5594 541.7528,-423.4447 584.4302,-432.091"/>
<polygon fill="#191970" stroke="#191970" points="583.9273,-435.5602 594.4232,-434.1156 585.3173,-428.6996 583.9273,-435.5602"/>
</g>
<!-- Node14 -->
<g id="node14" class="node">
<title>Node14</title>
<g id="a_node14"><a xlink:href="../../de/de0/matchedfilter_8C.html#ac662fab4d6569f9ab320da1b95bcd663" target="_top" xlink:title="round">
<polygon fill="none" stroke="#000000" points="598.5,-390.5 598.5,-410.5 643.5,-410.5 643.5,-390.5 598.5,-390.5"/>
<text text-anchor="middle" x="621" y="-397.5" font-family="FreeSans" font-size="10.00" fill="#000000">round</text>
</a>
</g>
</g>
<!-- Node12&#45;&gt;Node14 -->
<g id="edge17" class="edge">
<title>Node12&#45;&gt;Node14</title>
<path fill="none" stroke="#191970" d="M443.2855,-400.5C474.1269,-400.5 545.9591,-400.5 588.252,-400.5"/>
<polygon fill="#191970" stroke="#191970" points="588.3251,-404.0001 598.3251,-400.5 588.325,-397.0001 588.3251,-404.0001"/>
</g>
<!-- Node16 -->
<g id="node16" class="node">
<title>Node16</title>
<g id="a_node16"><a xlink:href="../../dc/d22/namespacegenfit.html#aec5c8cb927a354edfb23af80108b69d4" target="_top" xlink:title="genfit::PlaneToGFDetPlane">
<polygon fill="none" stroke="#000000" points="546,-351.5 546,-371.5 696,-371.5 696,-351.5 546,-351.5"/>
<text text-anchor="middle" x="621" y="-358.5" font-family="FreeSans" font-size="10.00" fill="#000000">genfit::PlaneToGFDetPlane</text>
</a>
</g>
</g>
<!-- Node15&#45;&gt;Node16 -->
<g id="edge19" class="edge">
<title>Node15&#45;&gt;Node16</title>
<path fill="none" stroke="#191970" d="M510.1373,-361.5C518.681,-361.5 527.3819,-361.5 535.9623,-361.5"/>
<polygon fill="#191970" stroke="#191970" points="535.963,-365.0001 545.9629,-361.5 535.9629,-358.0001 535.963,-365.0001"/>
</g>
<!-- Node19 -->
<g id="node19" class="node">
<title>Node19</title>
<g id="a_node19"><a xlink:href="../../dc/d22/namespacegenfit.html#a16248965fc33843bb4f2d9bd8b0a7ce7" target="_top" xlink:title="genfit::GFTrackToTrack">
<polygon fill="none" stroke="#000000" points="556,-312.5 556,-332.5 686,-332.5 686,-312.5 556,-312.5"/>
<text text-anchor="middle" x="621" y="-319.5" font-family="FreeSans" font-size="10.00" fill="#000000">genfit::GFTrackToTrack</text>
</a>
</g>
</g>
<!-- Node15&#45;&gt;Node19 -->
<g id="edge22" class="edge">
<title>Node15&#45;&gt;Node19</title>
<path fill="none" stroke="#191970" d="M478.0735,-351.4565C503.5587,-346.2933 534.8046,-339.963 561.5749,-334.5394"/>
<polygon fill="#191970" stroke="#191970" points="562.4886,-337.9255 571.5945,-332.5094 561.0986,-331.0648 562.4886,-337.9255"/>
</g>
<!-- Node17 -->
<g id="node17" class="node">
<title>Node17</title>
<g id="a_node17"><a xlink:href="../../dc/d22/namespacegenfit.html#ad8550f9eaa6237f8ddf48aefd57dfe58" target="_top" xlink:title="genfit::Point3DToTVector3">
<polygon fill="none" stroke="#000000" points="743.5,-537.5 743.5,-557.5 890.5,-557.5 890.5,-537.5 743.5,-537.5"/>
<text text-anchor="middle" x="817" y="-544.5" font-family="FreeSans" font-size="10.00" fill="#000000">genfit::Point3DToTVector3</text>
</a>
</g>
</g>
<!-- Node16&#45;&gt;Node17 -->
<g id="edge20" class="edge">
<title>Node16&#45;&gt;Node17</title>
<path fill="none" stroke="#191970" d="M682.3024,-371.5864C687.3589,-374.2026 692.039,-377.4572 696,-381.5 743.0745,-429.5462 683.9579,-481.4213 732,-528.5 733.1137,-529.5914 734.2757,-530.6257 735.4802,-531.6058"/>
<polygon fill="#191970" stroke="#191970" points="733.7328,-534.6483 743.9863,-537.3162 737.6345,-528.8365 733.7328,-534.6483"/>
</g>
<!-- Node18 -->
<g id="node18" class="node">
<title>Node18</title>
<g id="a_node18"><a xlink:href="../../dc/d22/namespacegenfit.html#ad3ecb92a152c9ea7f5290e3653910473" target="_top" xlink:title="genfit::Vector3DToTVector3">
<polygon fill="none" stroke="#000000" points="740,-498.5 740,-518.5 894,-518.5 894,-498.5 740,-498.5"/>
<text text-anchor="middle" x="817" y="-505.5" font-family="FreeSans" font-size="10.00" fill="#000000">genfit::Vector3DToTVector3</text>
</a>
</g>
</g>
<!-- Node16&#45;&gt;Node18 -->
<g id="edge21" class="edge">
<title>Node16&#45;&gt;Node18</title>
<path fill="none" stroke="#191970" d="M681.2293,-371.5724C686.6312,-374.1805 691.6811,-377.4374 696,-381.5 732.854,-416.1667 694.4484,-455.5902 732,-489.5 733.3502,-490.7193 734.7613,-491.8659 736.2244,-492.944"/>
<polygon fill="#191970" stroke="#191970" points="734.76,-496.1518 745.1139,-498.3985 738.4209,-490.1854 734.76,-496.1518"/>
</g>
<!-- Node20 -->
<g id="node20" class="node">
<title>Node20</title>
<g id="a_node20"><a xlink:href="../../d6/d8a/classgenfit_1_1Track.html#ad06e7a012624bdb03960826b5c9fcd93" target="_top" xlink:title="Get FitStatus for a AbsTrackRep. Per default, return FitStatus for cardinalRep.">
<polygon fill="none" stroke="#ff0000" points="744,-459.5 744,-479.5 890,-479.5 890,-459.5 744,-459.5"/>
<text text-anchor="middle" x="817" y="-466.5" font-family="FreeSans" font-size="10.00" fill="#000000">genfit::Track::getFitStatus</text>
</a>
</g>
</g>
<!-- Node19&#45;&gt;Node20 -->
<g id="edge23" class="edge">
<title>Node19&#45;&gt;Node20</title>
<path fill="none" stroke="#191970" d="M681.2293,-332.5724C686.6312,-335.1805 691.6811,-338.4374 696,-342.5 732.854,-377.1667 694.4484,-416.5902 732,-450.5 733.3502,-451.7193 734.7613,-452.8659 736.2244,-453.944"/>
<polygon fill="#191970" stroke="#191970" points="734.76,-457.1518 745.1139,-459.3985 738.4209,-451.1854 734.76,-457.1518"/>
</g>
<!-- Node21 -->
<g id="node21" class="node">
<title>Node21</title>
<g id="a_node21"><a xlink:href="../../d0/d8d/classgenfit_1_1FitStatus.html#a56371ce504bee72fcf2f9324ddcb91a8" target="_top" xlink:title="Did the fit converge (in all Points or only partially)?">
<polygon fill="none" stroke="#000000" points="766,-408.5 766,-440.5 868,-440.5 868,-408.5 766,-408.5"/>
<text text-anchor="start" x="774" y="-427.5" font-family="FreeSans" font-size="10.00" fill="#000000">genfit::FitStatus::</text>
<text text-anchor="middle" x="817" y="-415.5" font-family="FreeSans" font-size="10.00" fill="#000000">isFitConverged</text>
</a>
</g>
</g>
<!-- Node19&#45;&gt;Node21 -->
<g id="edge24" class="edge">
<title>Node19&#45;&gt;Node21</title>
<path fill="none" stroke="#191970" d="M677.6045,-332.6026C684.1557,-335.1856 690.4631,-338.4286 696,-342.5 720.1393,-360.2502 708.0885,-381.4441 732,-399.5 739.1351,-404.8878 747.412,-409.1178 755.9445,-412.438"/>
<polygon fill="#191970" stroke="#191970" points="755.0444,-415.8306 765.6393,-415.8132 757.346,-409.2198 755.0444,-415.8306"/>
</g>
<!-- Node22 -->
<g id="node22" class="node">
<title>Node22</title>
<g id="a_node22"><a xlink:href="../../d6/d8a/classgenfit_1_1Track.html#abf156957d701a9a10a02fef8ac54e4d9" target="_top" xlink:title="Shortcut to get FittedStates.">
<polygon fill="none" stroke="#ff0000" points="752,-357.5 752,-389.5 882,-389.5 882,-357.5 752,-357.5"/>
<text text-anchor="start" x="760" y="-376.5" font-family="FreeSans" font-size="10.00" fill="#000000">genfit::Track::getFitted</text>
<text text-anchor="middle" x="817" y="-364.5" font-family="FreeSans" font-size="10.00" fill="#000000">State</text>
</a>
</g>
</g>
<!-- Node19&#45;&gt;Node22 -->
<g id="edge25" class="edge">
<title>Node19&#45;&gt;Node22</title>
<path fill="none" stroke="#191970" d="M659.7233,-332.576C684.1801,-338.9397 716.5263,-347.3563 745.5225,-354.9013"/>
<polygon fill="#191970" stroke="#191970" points="744.6522,-358.2913 755.2114,-357.4223 746.415,-351.5169 744.6522,-358.2913"/>
</g>
<!-- Node23 -->
<g id="node23" class="node">
<title>Node23</title>
<g id="a_node23"><a xlink:href="../../d2/d74/classgenfit_1_1MeasuredStateOnPlane.html#a3aab44a6c7155b8258fa34469bc45bc0" target="_top" xlink:title="genfit::MeasuredStateOnPlane\l::getPosMomCov">
<polygon fill="none" stroke="#ff0000" points="732,-306.5 732,-338.5 902,-338.5 902,-306.5 732,-306.5"/>
<text text-anchor="start" x="740" y="-325.5" font-family="FreeSans" font-size="10.00" fill="#000000">genfit::MeasuredStateOnPlane</text>
<text text-anchor="middle" x="817" y="-313.5" font-family="FreeSans" font-size="10.00" fill="#000000">::getPosMomCov</text>
</a>
</g>
</g>
<!-- Node19&#45;&gt;Node23 -->
<g id="edge26" class="edge">
<title>Node19&#45;&gt;Node23</title>
<path fill="none" stroke="#191970" d="M686.2652,-322.5C697.6622,-322.5 709.7266,-322.5 721.7361,-322.5"/>
<polygon fill="#191970" stroke="#191970" points="721.7954,-326.0001 731.7954,-322.5 721.7954,-319.0001 721.7954,-326.0001"/>
</g>
<!-- Node24 -->
<g id="node24" class="node">
<title>Node24</title>
<g id="a_node24"><a xlink:href="../../d0/d8d/classgenfit_1_1FitStatus.html#a7e8ed1d97eec3e3164dc2dd782f5cb85" target="_top" xlink:title="Get the fitted charge.">
<polygon fill="none" stroke="#000000" points="766,-255.5 766,-287.5 868,-287.5 868,-255.5 766,-255.5"/>
<text text-anchor="start" x="774" y="-274.5" font-family="FreeSans" font-size="10.00" fill="#000000">genfit::FitStatus::</text>
<text text-anchor="middle" x="817" y="-262.5" font-family="FreeSans" font-size="10.00" fill="#000000">getCharge</text>
</a>
</g>
</g>
<!-- Node19&#45;&gt;Node24 -->
<g id="edge27" class="edge">
<title>Node19&#45;&gt;Node24</title>
<path fill="none" stroke="#191970" d="M659.7233,-312.424C687.1051,-305.2992 724.3764,-295.601 755.7635,-287.434"/>
<polygon fill="#191970" stroke="#191970" points="756.931,-290.7468 765.7273,-284.8414 755.1682,-283.9724 756.931,-290.7468"/>
</g>
<!-- Node25 -->
<g id="node25" class="node">
<title>Node25</title>
<g id="a_node25"><a xlink:href="../../d0/d8d/classgenfit_1_1FitStatus.html#abbeeda61574c284f1d762088b3644770" target="_top" xlink:title="Get chi^2 of the fit.">
<polygon fill="none" stroke="#000000" points="766,-204.5 766,-236.5 868,-236.5 868,-204.5 766,-204.5"/>
<text text-anchor="start" x="774" y="-223.5" font-family="FreeSans" font-size="10.00" fill="#000000">genfit::FitStatus::</text>
<text text-anchor="middle" x="817" y="-211.5" font-family="FreeSans" font-size="10.00" fill="#000000">getChi2</text>
</a>
</g>
</g>
<!-- Node19&#45;&gt;Node25 -->
<g id="edge28" class="edge">
<title>Node19&#45;&gt;Node25</title>
<path fill="none" stroke="#191970" d="M645.1123,-312.3645C660.4087,-305.3689 680.2179,-295.2335 696,-283.5 714.4126,-269.8108 712.4155,-258.4527 732,-246.5 739.465,-241.944 747.7905,-238.1309 756.2296,-234.9552"/>
<polygon fill="#191970" stroke="#191970" points="757.473,-238.2285 765.7661,-231.6349 755.1713,-231.6177 757.473,-238.2285"/>
</g>
<!-- Node26 -->
<g id="node26" class="node">
<title>Node26</title>
<g id="a_node26"><a xlink:href="../../d0/d8d/classgenfit_1_1FitStatus.html#aa73b3566657ea37bf8ab5102d465025d" target="_top" xlink:title="Get the degrees of freedom of the fit.">
<polygon fill="none" stroke="#000000" points="766,-153.5 766,-185.5 868,-185.5 868,-153.5 766,-153.5"/>
<text text-anchor="start" x="774" y="-172.5" font-family="FreeSans" font-size="10.00" fill="#000000">genfit::FitStatus::</text>
<text text-anchor="middle" x="817" y="-160.5" font-family="FreeSans" font-size="10.00" fill="#000000">getNdf</text>
</a>
</g>
</g>
<!-- Node19&#45;&gt;Node26 -->
<g id="edge29" class="edge">
<title>Node19&#45;&gt;Node26</title>
<path fill="none" stroke="#191970" d="M651.2135,-312.5C666.3305,-306.2018 683.9297,-296.7246 696,-283.5 724.4873,-252.2886 700.7847,-223.983 732,-195.5 739.0223,-189.0924 747.5867,-184.2631 756.5446,-180.6234"/>
<polygon fill="#191970" stroke="#191970" points="757.7406,-183.9129 765.974,-177.245 755.3794,-177.3231 757.7406,-183.9129"/>
</g>
<!-- Node31 -->
<g id="node31" class="node">
<title>Node31</title>
<g id="a_node31"><a xlink:href="../../d8/d1a/classHiMain1.html#afa91501b2c79bdaf9274e067b9d97e31" target="_top" xlink:title="HiMain1::n0">
<polygon fill="none" stroke="#000000" points="582.5,-37.5 582.5,-57.5 659.5,-57.5 659.5,-37.5 582.5,-37.5"/>
<text text-anchor="middle" x="621" y="-44.5" font-family="FreeSans" font-size="10.00" fill="#000000">HiMain1::n0</text>
</a>
</g>
</g>
<!-- Node30&#45;&gt;Node31 -->
<g id="edge35" class="edge">
<title>Node30&#45;&gt;Node31</title>
<path fill="none" stroke="#191970" d="M194.303,-70.8193C209.2163,-71.8665 227.5512,-72.9833 244,-73.5 362.1848,-77.2128 392.4212,-81.0162 510,-68.5 530.6765,-66.299 553.2648,-62.3193 572.6352,-58.4117"/>
<polygon fill="#191970" stroke="#191970" points="573.3594,-61.8361 582.4442,-56.3846 571.9427,-54.9809 573.3594,-61.8361"/>
</g>
<!-- Node34 -->
<g id="node34" class="node">
<title>Node34</title>
<g id="a_node34"><a xlink:href="../../d2/d18/medium-simple_8f.html#a1fdcab7823056a622e99f159e74b0a1e" target="_top" xlink:title="nthick">
<polygon fill="none" stroke="#000000" points="404.5,-38.5 404.5,-58.5 452.5,-58.5 452.5,-38.5 404.5,-38.5"/>
<text text-anchor="middle" x="428.5" y="-45.5" font-family="FreeSans" font-size="10.00" fill="#000000">nthick</text>
</a>
</g>
</g>
<!-- Node30&#45;&gt;Node34 -->
<g id="edge38" class="edge">
<title>Node30&#45;&gt;Node34</title>
<path fill="none" stroke="#191970" d="M194.0157,-66.264C243.2341,-62.5353 341.8144,-55.0671 394.1003,-51.106"/>
<polygon fill="#191970" stroke="#191970" points="394.5093,-54.5852 404.2163,-50.3397 393.9804,-47.6052 394.5093,-54.5852"/>
</g>
<!-- Node35 -->
<g id="node35" class="node">
<title>Node35</title>
<g id="a_node35"><a xlink:href="../../d2/d18/medium-simple_8f.html#a58e0410e81664819969cd2981fd7cd27" target="_top" xlink:title="npart">
<polygon fill="none" stroke="#000000" points="255.5,-.5 255.5,-20.5 299.5,-20.5 299.5,-.5 255.5,-.5"/>
<text text-anchor="middle" x="277.5" y="-7.5" font-family="FreeSans" font-size="10.00" fill="#000000">npart</text>
</a>
</g>
</g>
<!-- Node30&#45;&gt;Node35 -->
<g id="edge40" class="edge">
<title>Node30&#45;&gt;Node35</title>
<path fill="none" stroke="#191970" d="M184.1831,-58.3972C201.9787,-49.2631 228.4052,-35.6991 248.5977,-25.3348"/>
<polygon fill="#191970" stroke="#191970" points="250.365,-28.3619 257.6633,-20.6817 247.1685,-22.1343 250.365,-28.3619"/>
</g>
<!-- Node32 -->
<g id="node32" class="node">
<title>Node32</title>
<g id="a_node32"><a xlink:href="../../d8/d1a/classHiMain1.html#abdd4d6ac793897447c6d9f7b9e6d20ca" target="_top" xlink:title="HiMain1::init">
<polygon fill="none" stroke="#000000" points="776.5,-36.5 776.5,-56.5 857.5,-56.5 857.5,-36.5 776.5,-36.5"/>
<text text-anchor="middle" x="817" y="-43.5" font-family="FreeSans" font-size="10.00" fill="#000000">HiMain1::init</text>
</a>
</g>
</g>
<!-- Node31&#45;&gt;Node32 -->
<g id="edge36" class="edge">
<title>Node31&#45;&gt;Node32</title>
<path fill="none" stroke="#191970" d="M659.7233,-47.3024C690.1252,-47.1473 732.7183,-46.93 765.913,-46.7606"/>
<polygon fill="#191970" stroke="#191970" points="766.3509,-50.2586 776.3329,-46.7075 766.3151,-43.2586 766.3509,-50.2586"/>
</g>
<!-- Node33 -->
<g id="node33" class="node">
<title>Node33</title>
<g id="a_node33"><a xlink:href="../../d7/dc3/HiMain1_8h.html#af413dd2854a4d96511498e79f1519c57" target="_top" xlink:title="himain1_address_">
<polygon fill="none" stroke="#000000" points="940.5,-36.5 940.5,-56.5 1048.5,-56.5 1048.5,-36.5 940.5,-36.5"/>
<text text-anchor="middle" x="994.5" y="-43.5" font-family="FreeSans" font-size="10.00" fill="#000000">himain1_address_</text>
</a>
</g>
</g>
<!-- Node32&#45;&gt;Node33 -->
<g id="edge37" class="edge">
<title>Node32&#45;&gt;Node33</title>
<path fill="none" stroke="#191970" d="M857.7221,-46.5C879.1264,-46.5 905.8642,-46.5 930.0077,-46.5"/>
<polygon fill="#191970" stroke="#191970" points="930.173,-50.0001 940.173,-46.5 930.1729,-43.0001 930.173,-50.0001"/>
</g>
<!-- Node34&#45;&gt;Node31 -->
<g id="edge39" class="edge">
<title>Node34&#45;&gt;Node31</title>
<path fill="none" stroke="#191970" d="M452.8803,-48.3733C482.6574,-48.2187 533.7567,-47.9532 571.8233,-47.7555"/>
<polygon fill="#191970" stroke="#191970" points="572.2043,-51.2536 582.1859,-47.7016 572.1678,-44.2537 572.2043,-51.2536"/>
</g>
<!-- Node35&#45;&gt;Node31 -->
<g id="edge41" class="edge">
<title>Node35&#45;&gt;Node31</title>
<path fill="none" stroke="#191970" d="M299.6878,-11.5348C341.1285,-13.6191 433.06,-18.9574 510,-28.5 530.476,-31.0396 552.9335,-34.7142 572.259,-38.1565"/>
<polygon fill="#191970" stroke="#191970" points="571.8821,-41.6451 582.3456,-39.982 573.1288,-34.757 571.8821,-41.6451"/>
</g>
<!-- Node35&#45;&gt;Node34 -->
<g id="edge42" class="edge">
<title>Node35&#45;&gt;Node34</title>
<path fill="none" stroke="#191970" d="M299.7806,-16.107C324.8049,-22.4045 365.6998,-32.696 394.6726,-39.9872"/>
<polygon fill="#191970" stroke="#191970" points="393.8261,-43.3832 404.3779,-42.4295 395.5344,-36.5948 393.8261,-43.3832"/>
</g>
<!-- Node37 -->
<g id="node37" class="node">
<title>Node37</title>
<g id="a_node37"><a xlink:href="../../dc/d9f/hcalUtil_8C.html#af562b1ac3ac927ecde202ce0501a97a6" target="_top" xlink:title="ps">
<polygon fill="none" stroke="#000000" points="263,-195.5 263,-215.5 292,-215.5 292,-195.5 263,-195.5"/>
<text text-anchor="middle" x="277.5" y="-202.5" font-family="FreeSans" font-size="10.00" fill="#000000">ps</text>
</a>
</g>
</g>
<!-- Node36&#45;&gt;Node37 -->
<g id="edge44" class="edge">
<title>Node36&#45;&gt;Node37</title>
<path fill="none" stroke="#191970" d="M186.5558,-205.5C205.5233,-205.5 232.8657,-205.5 252.6119,-205.5"/>
<polygon fill="#191970" stroke="#191970" points="252.6991,-209.0001 262.6991,-205.5 252.6991,-202.0001 252.6991,-209.0001"/>
</g>
<!-- Node39 -->
<g id="node39" class="node">
<title>Node39</title>
<g id="a_node39"><a xlink:href="../../d6/dcf/pythia6425mod_8f.html#a56718d08dbb42b3b978fc9b5bd6970e6" target="_top" xlink:title="pylogo">
<polygon fill="none" stroke="#000000" points="252.5,-156.5 252.5,-176.5 302.5,-176.5 302.5,-156.5 252.5,-156.5"/>
<text text-anchor="middle" x="277.5" y="-163.5" font-family="FreeSans" font-size="10.00" fill="#000000">pylogo</text>
</a>
</g>
</g>
<!-- Node36&#45;&gt;Node39 -->
<g id="edge46" class="edge">
<title>Node36&#45;&gt;Node39</title>
<path fill="none" stroke="#191970" d="M186.5558,-197.8878C202.5623,-192.3635 224.5329,-184.7807 242.8695,-178.4521"/>
<polygon fill="#191970" stroke="#191970" points="244.0372,-181.7518 252.3482,-175.1807 241.7534,-175.1348 244.0372,-181.7518"/>
</g>
<!-- Node45 -->
<g id="node45" class="node">
<title>Node45</title>
<g id="a_node45"><a xlink:href="../../d6/dcf/pythia6425mod_8f.html#ab0dbe916b7d36854c02faf180f41d585" target="_top" xlink:title="pyname">
<polygon fill="none" stroke="#000000" points="249,-117.5 249,-137.5 306,-137.5 306,-117.5 249,-117.5"/>
<text text-anchor="middle" x="277.5" y="-124.5" font-family="FreeSans" font-size="10.00" fill="#000000">pyname</text>
</a>
</g>
</g>
<!-- Node36&#45;&gt;Node45 -->
<g id="edge53" class="edge">
<title>Node36&#45;&gt;Node45</title>
<path fill="none" stroke="#191970" d="M177.4599,-195.4751C192.9839,-183.6014 219.9161,-163.4259 244,-147.5 246.3042,-145.9763 248.7243,-144.4306 251.1651,-142.9084"/>
<polygon fill="#191970" stroke="#191970" points="253.1995,-145.7676 259.9245,-137.5807 249.5619,-139.787 253.1995,-145.7676"/>
</g>
<!-- Node46 -->
<g id="node46" class="node">
<title>Node46</title>
<g id="a_node46"><a xlink:href="../../d6/dcf/pythia6425mod_8f.html#a6cee1eea51c820d9e90932c9eca205b7" target="_top" xlink:title="pyp">
<polygon fill="none" stroke="#000000" points="260,-273.5 260,-293.5 295,-293.5 295,-273.5 260,-273.5"/>
<text text-anchor="middle" x="277.5" y="-280.5" font-family="FreeSans" font-size="10.00" fill="#000000">pyp</text>
</a>
</g>
</g>
<!-- Node36&#45;&gt;Node46 -->
<g id="edge54" class="edge">
<title>Node36&#45;&gt;Node46</title>
<path fill="none" stroke="#191970" d="M179.2728,-215.6971C198.3913,-228.894 231.9121,-252.0322 254.4075,-267.5601"/>
<polygon fill="#191970" stroke="#191970" points="252.5055,-270.5 262.7236,-273.3004 256.4821,-264.7392 252.5055,-270.5"/>
</g>
<!-- Node38 -->
<g id="node38" class="node">
<title>Node38</title>
<g id="a_node38"><a xlink:href="../../da/d55/TPCRateLayered_8m.html#a7507ef556477c204b499f1e189d40796" target="_top" xlink:title="sum">
<polygon fill="none" stroke="#000000" points="409.5,-195.5 409.5,-215.5 447.5,-215.5 447.5,-195.5 409.5,-195.5"/>
<text text-anchor="middle" x="428.5" y="-202.5" font-family="FreeSans" font-size="10.00" fill="#000000">sum</text>
</a>
</g>
</g>
<!-- Node37&#45;&gt;Node38 -->
<g id="edge45" class="edge">
<title>Node37&#45;&gt;Node38</title>
<path fill="none" stroke="#191970" d="M292.2534,-205.5C316.9225,-205.5 366.9916,-205.5 399.0793,-205.5"/>
<polygon fill="#191970" stroke="#191970" points="399.2092,-209.0001 409.2092,-205.5 399.2091,-202.0001 399.2092,-209.0001"/>
</g>
<!-- Node40 -->
<g id="node40" class="node">
<title>Node40</title>
<g id="a_node40"><a xlink:href="../../d6/dcf/pythia6425mod_8f.html#a4140396b9ec9bafcebf4c7ebecb462e7" target="_top" xlink:title="pystop">
<polygon fill="none" stroke="#000000" points="403.5,-156.5 403.5,-176.5 453.5,-176.5 453.5,-156.5 403.5,-156.5"/>
<text text-anchor="middle" x="428.5" y="-163.5" font-family="FreeSans" font-size="10.00" fill="#000000">pystop</text>
</a>
</g>
</g>
<!-- Node39&#45;&gt;Node40 -->
<g id="edge47" class="edge">
<title>Node39&#45;&gt;Node40</title>
<path fill="none" stroke="#191970" d="M302.774,-166.5C327.5646,-166.5 365.5773,-166.5 393.3161,-166.5"/>
<polygon fill="#191970" stroke="#191970" points="393.3953,-170.0001 403.3953,-166.5 393.3952,-163.0001 393.3953,-170.0001"/>
</g>
<!-- Node44 -->
<g id="node44" class="node">
<title>Node44</title>
<g id="a_node44"><a xlink:href="../../d6/dcf/pythia6425mod_8f.html#a523e4acf745637220400daf831c34a23" target="_top" xlink:title="pytime">
<polygon fill="none" stroke="#000000" points="403,-117.5 403,-137.5 454,-137.5 454,-117.5 403,-117.5"/>
<text text-anchor="middle" x="428.5" y="-124.5" font-family="FreeSans" font-size="10.00" fill="#000000">pytime</text>
</a>
</g>
</g>
<!-- Node39&#45;&gt;Node44 -->
<g id="edge52" class="edge">
<title>Node39&#45;&gt;Node44</title>
<path fill="none" stroke="#191970" d="M302.5496,-159.4815C315.7513,-155.8257 332.228,-151.331 347,-147.5 361.9796,-143.6152 378.5593,-139.511 392.8325,-136.0383"/>
<polygon fill="#191970" stroke="#191970" points="393.867,-139.389 402.7621,-133.6333 392.2192,-132.5857 393.867,-139.389"/>
</g>
<!-- Node41 -->
<g id="node41" class="node">
<title>Node41</title>
<g id="a_node41"><a xlink:href="../../d0/d5e/classPHTimer.html#adce6f9a85834e59bd154b9c624ee4e41" target="_top" xlink:title="stops the counter">
<polygon fill="none" stroke="#000000" points="577.5,-114.5 577.5,-134.5 664.5,-134.5 664.5,-114.5 577.5,-114.5"/>
<text text-anchor="middle" x="621" y="-121.5" font-family="FreeSans" font-size="10.00" fill="#000000">PHTimer::stop</text>
</a>
</g>
</g>
<!-- Node40&#45;&gt;Node41 -->
<g id="edge48" class="edge">
<title>Node40&#45;&gt;Node41</title>
<path fill="none" stroke="#191970" d="M453.666,-161.0092C482.3577,-154.7492 530.09,-144.3349 567.2484,-136.2276"/>
<polygon fill="#191970" stroke="#191970" points="568.4,-139.5588 577.424,-134.0075 566.9077,-132.7197 568.4,-139.5588"/>
</g>
<!-- Node42 -->
<g id="node42" class="node">
<title>Node42</title>
<g id="a_node42"><a xlink:href="../../d0/d5e/classPHTimer.html#aa92e3fe4a0a1799f39743eda9ef9d497" target="_top" xlink:title="gets time from cpu clock counts">
<polygon fill="none" stroke="#000000" points="938,-91.5 938,-123.5 1051,-123.5 1051,-91.5 938,-91.5"/>
<text text-anchor="start" x="946" y="-110.5" font-family="FreeSans" font-size="10.00" fill="#000000">PHTimer::get_clock</text>
<text text-anchor="middle" x="994.5" y="-98.5" font-family="FreeSans" font-size="10.00" fill="#000000">_counts</text>
</a>
</g>
</g>
<!-- Node41&#45;&gt;Node42 -->
<g id="edge49" class="edge">
<title>Node41&#45;&gt;Node42</title>
<path fill="none" stroke="#191970" d="M664.5762,-122.5166C729.2694,-119.5721 851.2504,-114.0201 927.3948,-110.5543"/>
<polygon fill="#191970" stroke="#191970" points="927.9936,-114.0308 937.8241,-110.0796 927.6753,-107.038 927.9936,-114.0308"/>
</g>
<!-- Node43 -->
<g id="node43" class="node">
<title>Node43</title>
<g id="a_node43"><a xlink:href="../../d0/d5e/classPHTimer.html#a976738876ad978116fdc4549a3765685" target="_top" xlink:title="retrieve elapsed value since last restart (in ms)">
<polygon fill="none" stroke="#ff0000" points="764.5,-75.5 764.5,-95.5 869.5,-95.5 869.5,-75.5 764.5,-75.5"/>
<text text-anchor="middle" x="817" y="-82.5" font-family="FreeSans" font-size="10.00" fill="#000000">PHTimer::elapsed</text>
</a>
</g>
</g>
<!-- Node41&#45;&gt;Node43 -->
<g id="edge50" class="edge">
<title>Node41&#45;&gt;Node43</title>
<path fill="none" stroke="#191970" d="M664.9862,-115.7476C692.0608,-110.3604 727.1342,-103.3815 756.768,-97.4849"/>
<polygon fill="#191970" stroke="#191970" points="757.4651,-100.9149 766.5898,-95.5306 756.099,-94.0495 757.4651,-100.9149"/>
</g>
<!-- Node43&#45;&gt;Node42 -->
<g id="edge51" class="edge">
<title>Node43&#45;&gt;Node42</title>
<path fill="none" stroke="#191970" d="M869.7753,-92.0412C887.9662,-94.2958 908.5844,-96.8513 927.7431,-99.2259"/>
<polygon fill="#191970" stroke="#191970" points="927.5544,-102.7292 937.909,-100.4859 928.4155,-95.7824 927.5544,-102.7292"/>
</g>
<!-- Node47 -->
<g id="node47" class="node">
<title>Node47</title>
<g id="a_node47"><a xlink:href="../../d6/dcf/pythia6425mod_8f.html#a27f75936fde97780175fa2c990bc61cd" target="_top" xlink:title="pychge">
<polygon fill="none" stroke="#000000" points="402,-312.5 402,-332.5 455,-332.5 455,-312.5 402,-312.5"/>
<text text-anchor="middle" x="428.5" y="-319.5" font-family="FreeSans" font-size="10.00" fill="#000000">pychge</text>
</a>
</g>
</g>
<!-- Node46&#45;&gt;Node47 -->
<g id="edge55" class="edge">
<title>Node46&#45;&gt;Node47</title>
<path fill="none" stroke="#191970" d="M295.1171,-288.0501C318.7419,-294.1519 361.2638,-305.1344 391.956,-313.0615"/>
<polygon fill="#191970" stroke="#191970" points="391.3092,-316.5092 401.8667,-315.6212 393.0597,-309.7316 391.3092,-316.5092"/>
</g>
<!-- Node48 -->
<g id="node48" class="node">
<title>Node48</title>
<g id="a_node48"><a xlink:href="../../d6/dcf/pythia6425mod_8f.html#aa8c99978a55999fa0b1fd2a946d8553a" target="_top" xlink:title="pyangl">
<polygon fill="none" stroke="#000000" points="403.5,-234.5 403.5,-254.5 453.5,-254.5 453.5,-234.5 403.5,-234.5"/>
<text text-anchor="middle" x="428.5" y="-241.5" font-family="FreeSans" font-size="10.00" fill="#000000">pyangl</text>
</a>
</g>
</g>
<!-- Node46&#45;&gt;Node48 -->
<g id="edge56" class="edge">
<title>Node46&#45;&gt;Node48</title>
<path fill="none" stroke="#191970" d="M295.1171,-278.9499C319.1613,-272.7398 362.7794,-261.4742 393.5791,-253.5193"/>
<polygon fill="#191970" stroke="#191970" points="394.679,-256.8502 403.486,-250.9606 392.9285,-250.0726 394.679,-256.8502"/>
</g>
<!-- Node49 -->
<g id="node49" class="node">
<title>Node49</title>
<g id="a_node49"><a xlink:href="../../da/d0a/CylinderKalman_8cpp.html#ab74daa0c9784c63e060bfb98cc06fbf5" target="_top" xlink:title="sign">
<polygon fill="none" stroke="#000000" points="602.5,-253.5 602.5,-273.5 639.5,-273.5 639.5,-253.5 602.5,-253.5"/>
<text text-anchor="middle" x="621" y="-260.5" font-family="FreeSans" font-size="10.00" fill="#000000">sign</text>
</a>
</g>
</g>
<!-- Node46&#45;&gt;Node49 -->
<g id="edge60" class="edge">
<title>Node46&#45;&gt;Node49</title>
<path fill="none" stroke="#191970" d="M295.0065,-282.4807C350.5495,-279.2468 523.2,-269.1943 592.1402,-265.1803"/>
<polygon fill="#191970" stroke="#191970" points="592.5007,-268.6654 602.2804,-264.5899 592.0938,-261.6772 592.5007,-268.6654"/>
</g>
<!-- Node50 -->
<g id="node50" class="node">
<title>Node50</title>
<g id="a_node50"><a xlink:href="../../d6/dcf/pythia6425mod_8f.html#ad69903a1054f4f77d45fd8fe4c687aa9" target="_top" xlink:title="pymass">
<polygon fill="none" stroke="#000000" points="401,-429.5 401,-449.5 456,-449.5 456,-429.5 401,-429.5"/>
<text text-anchor="middle" x="428.5" y="-436.5" font-family="FreeSans" font-size="10.00" fill="#000000">pymass</text>
</a>
</g>
</g>
<!-- Node46&#45;&gt;Node50 -->
<g id="edge58" class="edge">
<title>Node46&#45;&gt;Node50</title>
<path fill="none" stroke="#191970" d="M295.3467,-290.9844C301.0311,-294.1238 306.9011,-298.2785 311,-303.5 344.5946,-346.2949 307.2166,-383.3883 347,-420.5 358.6531,-431.3705 375.2823,-436.4138 390.4842,-438.6278"/>
<polygon fill="#191970" stroke="#191970" points="390.3805,-442.1372 400.7018,-439.7453 391.1416,-435.1787 390.3805,-442.1372"/>
</g>
<!-- Node48&#45;&gt;Node49 -->
<g id="edge57" class="edge">
<title>Node48&#45;&gt;Node49</title>
<path fill="none" stroke="#191970" d="M453.666,-246.9839C489.3773,-250.5087 554.586,-256.9449 592.1893,-260.6563"/>
<polygon fill="#191970" stroke="#191970" points="592.1677,-264.1711 602.4631,-261.6704 592.8553,-257.205 592.1677,-264.1711"/>
</g>
<!-- Node50&#45;&gt;Node6 -->
<g id="edge59" class="edge">
<title>Node50&#45;&gt;Node6</title>
<path fill="none" stroke="#191970" d="M456.0115,-446.8416C471.9736,-451.3721 492.3486,-457.6221 510,-464.5 539.9857,-476.1839 573.1331,-492.4781 595.3287,-503.9058"/>
<polygon fill="#191970" stroke="#191970" points="593.9299,-507.1232 604.4172,-508.6287 597.1577,-500.9118 593.9299,-507.1232"/>
</g>
</g>
</svg>
