<?xml version="1.0" encoding="UTF-8" standalone="no"?>
<!DOCTYPE svg PUBLIC "-//W3C//DTD SVG 1.1//EN"
 "http://www.w3.org/Graphics/SVG/1.1/DTD/svg11.dtd">
<!-- Generated by graphviz version 2.40.1 (20161225.0304)
 -->
<!-- Title: KFPHistogram Pages: 1 -->
<svg width="332pt" height="306pt"
 viewBox="0.00 0.00 332.00 306.00" xmlns="http://www.w3.org/2000/svg" xmlns:xlink="http://www.w3.org/1999/xlink">
<g id="graph0" class="graph" transform="scale(1 1) rotate(0) translate(4 302)">
<title>KFPHistogram</title>
<!-- Node1 -->
<g id="node1" class="node">
<title>Node1</title>
<polygon fill="#bfbfbf" stroke="#000000" points="100.5,-.5 100.5,-20.5 187.5,-20.5 187.5,-.5 100.5,-.5"/>
<text text-anchor="middle" x="144" y="-7.5" font-family="FreeSans" font-size="10.00" fill="#000000">KFPHistogram</text>
</g>
<!-- Node2 -->
<g id="node2" class="node">
<title>Node2</title>
<polygon fill="none" stroke="#bfbfbf" points="0,-69.5 0,-89.5 116,-89.5 116,-69.5 0,-69.5"/>
<text text-anchor="middle" x="58" y="-76.5" font-family="FreeSans" font-size="10.00" fill="#000000">std::map&lt; int, int &gt;</text>
</g>
<!-- Node2&#45;&gt;Node1 -->
<g id="edge1" class="edge">
<title>Node2&#45;&gt;Node1</title>
<path fill="none" stroke="#9a32cd" stroke-dasharray="5,2" d="M57.4683,-59.2745C58.2512,-52.1784 60.311,-44.5912 65,-39 70.5746,-32.3527 88.0369,-25.7271 105.1304,-20.5393"/>
<polygon fill="#9a32cd" stroke="#9a32cd" points="53.968,-59.2192 57.0854,-69.345 60.9629,-59.4853 53.968,-59.2192"/>
<text text-anchor="middle" x="97.5" y="-42" font-family="FreeSans" font-size="10.00" fill="#000000"> fPdgToIndex</text>
</g>
<!-- Node3 -->
<g id="node3" class="node">
<title>Node3</title>
<g id="a_node3"><a xlink:title="STL class.">
<polygon fill="none" stroke="#bfbfbf" points="126.5,-207.5 126.5,-227.5 193.5,-227.5 193.5,-207.5 126.5,-207.5"/>
<text text-anchor="middle" x="160" y="-214.5" font-family="FreeSans" font-size="10.00" fill="#000000">std::string</text>
</a>
</g>
</g>
<!-- Node3&#45;&gt;Node1 -->
<g id="edge2" class="edge">
<title>Node3&#45;&gt;Node1</title>
<path fill="none" stroke="#9a32cd" stroke-dasharray="5,2" d="M158.4173,-197.0241C155.0556,-153.5312 147.3055,-53.2647 144.7982,-20.8271"/>
<polygon fill="#9a32cd" stroke="#9a32cd" points="154.9462,-197.5343 159.2066,-207.2348 161.9254,-196.9948 154.9462,-197.5343"/>
<text text-anchor="middle" x="188.5" y="-111" font-family="FreeSans" font-size="10.00" fill="#000000"> fOutFileName</text>
</g>
<!-- Node6 -->
<g id="node6" class="node">
<title>Node6</title>
<g id="a_node6"><a xlink:href="../../d5/dea/classKFPHistogram1D.html" target="_top" xlink:title="One&#45;dimensional histogram.">
<polygon fill="none" stroke="#000000" points="180.5,-138.5 180.5,-158.5 281.5,-158.5 281.5,-138.5 180.5,-138.5"/>
<text text-anchor="middle" x="231" y="-145.5" font-family="FreeSans" font-size="10.00" fill="#000000">KFPHistogram1D</text>
</a>
</g>
</g>
<!-- Node3&#45;&gt;Node6 -->
<g id="edge6" class="edge">
<title>Node3&#45;&gt;Node6</title>
<path fill="none" stroke="#9a32cd" stroke-dasharray="5,2" d="M177.7819,-200.219C191.2307,-187.149 209.242,-169.6451 220.4807,-158.723"/>
<polygon fill="#9a32cd" stroke="#9a32cd" points="175.2084,-197.8395 170.4763,-207.3188 180.087,-202.8594 175.2084,-197.8395"/>
<text text-anchor="middle" x="217.5" y="-180" font-family="FreeSans" font-size="10.00" fill="#000000"> fName</text>
</g>
<!-- Node4 -->
<g id="node4" class="node">
<title>Node4</title>
<g id="a_node4"><a xlink:title="STL class.">
<polygon fill="none" stroke="#bfbfbf" points="106.5,-265.5 106.5,-297.5 213.5,-297.5 213.5,-265.5 106.5,-265.5"/>
<text text-anchor="start" x="114.5" y="-284.5" font-family="FreeSans" font-size="10.00" fill="#000000">std::basic_string&lt;</text>
<text text-anchor="middle" x="160" y="-272.5" font-family="FreeSans" font-size="10.00" fill="#000000"> char &gt;</text>
</a>
</g>
</g>
<!-- Node4&#45;&gt;Node3 -->
<g id="edge3" class="edge">
<title>Node4&#45;&gt;Node3</title>
<path fill="none" stroke="#191970" d="M160,-255.2639C160,-245.5394 160,-235.0805 160,-227.641"/>
<polygon fill="#191970" stroke="#191970" points="156.5001,-255.3501 160,-265.3501 163.5001,-255.3501 156.5001,-255.3501"/>
</g>
<!-- Node5 -->
<g id="node5" class="node">
<title>Node5</title>
<g id="a_node5"><a xlink:href="../../d6/d9c/classKFPHistogramSet.html" target="_top" xlink:title="A set of histograms collected at the external devise.">
<polygon fill="none" stroke="#000000" points="180,-69.5 180,-89.5 284,-89.5 284,-69.5 180,-69.5"/>
<text text-anchor="middle" x="232" y="-76.5" font-family="FreeSans" font-size="10.00" fill="#000000">KFPHistogramSet</text>
</a>
</g>
</g>
<!-- Node5&#45;&gt;Node1 -->
<g id="edge4" class="edge">
<title>Node5&#45;&gt;Node1</title>
<path fill="none" stroke="#9a32cd" stroke-dasharray="5,2" d="M210.8892,-62.9472C194.1289,-49.8057 171.228,-31.8492 157.038,-20.723"/>
<polygon fill="#9a32cd" stroke="#9a32cd" points="208.9863,-65.9028 219.0153,-69.3188 213.3055,-60.3942 208.9863,-65.9028"/>
<text text-anchor="middle" x="241" y="-42" font-family="FreeSans" font-size="10.00" fill="#000000"> fKFPHistogramSet</text>
</g>
<!-- Node6&#45;&gt;Node5 -->
<g id="edge5" class="edge">
<title>Node6&#45;&gt;Node5</title>
<path fill="none" stroke="#9a32cd" stroke-dasharray="5,2" d="M231.2939,-128.2177C231.4773,-115.5684 231.7054,-99.8285 231.8518,-89.723"/>
<polygon fill="#9a32cd" stroke="#9a32cd" points="227.7929,-128.2691 231.1476,-138.3188 234.7922,-128.3706 227.7929,-128.2691"/>
<text text-anchor="middle" x="277.5" y="-111" font-family="FreeSans" font-size="10.00" fill="#000000"> fKFPHistogram1D</text>
</g>
</g>
</svg>
