<?xml version="1.0" encoding="UTF-8" standalone="no"?>
<!DOCTYPE svg PUBLIC "-//W3C//DTD SVG 1.1//EN"
 "http://www.w3.org/Graphics/SVG/1.1/DTD/svg11.dtd">
<!-- Generated by graphviz version 2.40.1 (20161225.0304)
 -->
<!-- Title: genfit::GblFitterInfo::getMeasurement Pages: 1 -->
<svg width="473pt" height="143pt"
 viewBox="0.00 0.00 473.00 143.00" xmlns="http://www.w3.org/2000/svg" xmlns:xlink="http://www.w3.org/1999/xlink">
<g id="graph0" class="graph" transform="scale(1 1) rotate(0) translate(4 139)">
<title>genfit::GblFitterInfo::getMeasurement</title>
<!-- Node1 -->
<g id="node1" class="node">
<title>Node1</title>
<polygon fill="#bfbfbf" stroke="#000000" points="0,-51.5 0,-83.5 115,-83.5 115,-51.5 0,-51.5"/>
<text text-anchor="start" x="8" y="-70.5" font-family="FreeSans" font-size="10.00" fill="#000000">genfit::GblFitterInfo</text>
<text text-anchor="middle" x="57.5" y="-58.5" font-family="FreeSans" font-size="10.00" fill="#000000">::getMeasurement</text>
</g>
<!-- Node2 -->
<g id="node2" class="node">
<title>Node2</title>
<g id="a_node2"><a xlink:href="../../d5/d1f/classgenfit_1_1AbsMeasurement.html#af18f7aec09c915ad948a96e3b934eaa8" target="_top" xlink:title="genfit::AbsMeasurement\l::constructHMatrix">
<polygon fill="none" stroke="#000000" points="151,-102.5 151,-134.5 292,-134.5 292,-102.5 151,-102.5"/>
<text text-anchor="start" x="159" y="-121.5" font-family="FreeSans" font-size="10.00" fill="#000000">genfit::AbsMeasurement</text>
<text text-anchor="middle" x="221.5" y="-109.5" font-family="FreeSans" font-size="10.00" fill="#000000">::constructHMatrix</text>
</a>
</g>
</g>
<!-- Node1&#45;&gt;Node2 -->
<g id="edge1" class="edge">
<title>Node1&#45;&gt;Node2</title>
<path fill="none" stroke="#191970" d="M109.3906,-83.6367C125.5504,-88.662 143.5219,-94.2507 160.2585,-99.4554"/>
<polygon fill="#191970" stroke="#191970" points="159.3587,-102.8408 169.9469,-102.4683 161.4373,-96.1566 159.3587,-102.8408"/>
</g>
<!-- Node3 -->
<g id="node3" class="node">
<title>Node3</title>
<g id="a_node3"><a xlink:href="../../db/d40/classgenfit_1_1TrackPoint.html#a2999fc0669beb86b6309f86e040bcdef" target="_top" xlink:title="genfit::TrackPoint\l::getRawMeasurement">
<polygon fill="none" stroke="#000000" points="156.5,-51.5 156.5,-83.5 286.5,-83.5 286.5,-51.5 156.5,-51.5"/>
<text text-anchor="start" x="164.5" y="-70.5" font-family="FreeSans" font-size="10.00" fill="#000000">genfit::TrackPoint</text>
<text text-anchor="middle" x="221.5" y="-58.5" font-family="FreeSans" font-size="10.00" fill="#000000">::getRawMeasurement</text>
</a>
</g>
</g>
<!-- Node1&#45;&gt;Node3 -->
<g id="edge2" class="edge">
<title>Node1&#45;&gt;Node3</title>
<path fill="none" stroke="#191970" d="M115.3203,-67.5C125.28,-67.5 135.7624,-67.5 146.1038,-67.5"/>
<polygon fill="#191970" stroke="#191970" points="146.3737,-71.0001 156.3737,-67.5 146.3736,-64.0001 146.3737,-71.0001"/>
</g>
<!-- Node4 -->
<g id="node4" class="node">
<title>Node4</title>
<g id="a_node4"><a xlink:href="../../d3/d5c/classgenfit_1_1GblFitterInfo.html#ad3bc8c2b886cf8fa07c124945d222f07" target="_top" xlink:title="genfit::GblFitterInfo\l::hasMeasurements">
<polygon fill="none" stroke="#000000" points="163.5,-.5 163.5,-32.5 279.5,-32.5 279.5,-.5 163.5,-.5"/>
<text text-anchor="start" x="171.5" y="-19.5" font-family="FreeSans" font-size="10.00" fill="#000000">genfit::GblFitterInfo</text>
<text text-anchor="middle" x="221.5" y="-7.5" font-family="FreeSans" font-size="10.00" fill="#000000">::hasMeasurements</text>
</a>
</g>
</g>
<!-- Node1&#45;&gt;Node4 -->
<g id="edge3" class="edge">
<title>Node1&#45;&gt;Node4</title>
<path fill="none" stroke="#191970" d="M109.3906,-51.3633C125.5504,-46.338 143.5219,-40.7493 160.2585,-35.5446"/>
<polygon fill="#191970" stroke="#191970" points="161.4373,-38.8434 169.9469,-32.5317 159.3587,-32.1592 161.4373,-38.8434"/>
</g>
<!-- Node5 -->
<g id="node5" class="node">
<title>Node5</title>
<g id="a_node5"><a xlink:href="../../db/d40/classgenfit_1_1TrackPoint.html#ada7b4d8c988a1798e455fb70929f88b7" target="_top" xlink:title="genfit::TrackPoint\l::hasRawMeasurements">
<polygon fill="none" stroke="#000000" points="328,-.5 328,-32.5 465,-32.5 465,-.5 328,-.5"/>
<text text-anchor="start" x="336" y="-19.5" font-family="FreeSans" font-size="10.00" fill="#000000">genfit::TrackPoint</text>
<text text-anchor="middle" x="396.5" y="-7.5" font-family="FreeSans" font-size="10.00" fill="#000000">::hasRawMeasurements</text>
</a>
</g>
</g>
<!-- Node4&#45;&gt;Node5 -->
<g id="edge4" class="edge">
<title>Node4&#45;&gt;Node5</title>
<path fill="none" stroke="#191970" d="M279.7725,-16.5C291.9331,-16.5 304.9446,-16.5 317.7067,-16.5"/>
<polygon fill="#191970" stroke="#191970" points="317.8671,-20.0001 327.8671,-16.5 317.867,-13.0001 317.8671,-20.0001"/>
</g>
</g>
</svg>
