<?xml version="1.0" encoding="UTF-8" standalone="no"?>
<!DOCTYPE svg PUBLIC "-//W3C//DTD SVG 1.1//EN"
 "http://www.w3.org/Graphics/SVG/1.1/DTD/svg11.dtd">
<!-- Generated by graphviz version 2.40.1 (20161225.0304)
 -->
<!-- Title: genfit::GblFitterInfo::constructGblPoint Pages: 1 -->
<svg width="713pt" height="1106pt"
 viewBox="0.00 0.00 713.00 1106.00" xmlns="http://www.w3.org/2000/svg" xmlns:xlink="http://www.w3.org/1999/xlink">
<g id="graph0" class="graph" transform="scale(1 1) rotate(0) translate(4 1102)">
<title>genfit::GblFitterInfo::constructGblPoint</title>
<!-- Node1 -->
<g id="node1" class="node">
<title>Node1</title>
<polygon fill="#bfbfbf" stroke="#000000" points="0,-565.5 0,-597.5 115,-597.5 115,-565.5 0,-565.5"/>
<text text-anchor="start" x="8" y="-584.5" font-family="FreeSans" font-size="10.00" fill="#000000">genfit::GblFitterInfo</text>
<text text-anchor="middle" x="57.5" y="-572.5" font-family="FreeSans" font-size="10.00" fill="#000000">::constructGblPoint</text>
</g>
<!-- Node2 -->
<g id="node2" class="node">
<title>Node2</title>
<g id="a_node2"><a xlink:href="../../da/d3b/classgbl_1_1GblPoint.html#a8997752dc53ca58d5ed65225ecde8462" target="_top" xlink:title="Add global derivatives to a point.">
<polygon fill="none" stroke="#000000" points="167,-1077.5 167,-1097.5 312,-1097.5 312,-1077.5 167,-1077.5"/>
<text text-anchor="middle" x="239.5" y="-1084.5" font-family="FreeSans" font-size="10.00" fill="#000000">gbl::GblPoint::addGlobals</text>
</a>
</g>
</g>
<!-- Node1&#45;&gt;Node2 -->
<g id="edge1" class="edge">
<title>Node1&#45;&gt;Node2</title>
<path fill="none" stroke="#191970" d="M58.2745,-597.6364C62.276,-674.0977 83.1135,-999.1175 151,-1068.5 153.1122,-1070.6587 155.406,-1072.6004 157.8423,-1074.3455"/>
<polygon fill="#191970" stroke="#191970" points="156.2313,-1077.4593 166.6177,-1079.5508 159.8026,-1071.4388 156.2313,-1077.4593"/>
</g>
<!-- Node3 -->
<g id="node3" class="node">
<title>Node3</title>
<g id="a_node3"><a xlink:href="../../da/d3b/classgbl_1_1GblPoint.html#a7ac86b3a323b795f73880747119a1dfc" target="_top" xlink:title="Add local derivatives to a point.">
<polygon fill="none" stroke="#000000" points="170,-1038.5 170,-1058.5 309,-1058.5 309,-1038.5 170,-1038.5"/>
<text text-anchor="middle" x="239.5" y="-1045.5" font-family="FreeSans" font-size="10.00" fill="#000000">gbl::GblPoint::addLocals</text>
</a>
</g>
</g>
<!-- Node1&#45;&gt;Node3 -->
<g id="edge2" class="edge">
<title>Node1&#45;&gt;Node3</title>
<path fill="none" stroke="#191970" d="M58.5765,-597.792C63.7282,-670.724 88.2564,-966.396 151,-1029.5 153.9085,-1032.4252 157.1511,-1034.9503 160.6286,-1037.1266"/>
<polygon fill="#191970" stroke="#191970" points="159.2137,-1040.3358 169.7002,-1041.8469 162.4449,-1034.1262 159.2137,-1040.3358"/>
</g>
<!-- Node4 -->
<g id="node4" class="node">
<title>Node4</title>
<g id="a_node4"><a xlink:href="../../da/d3b/classgbl_1_1GblPoint.html#a32153f67770ebb0f76dc566417fc17e0" target="_top" xlink:title="Add a measurement to a point.">
<polygon fill="none" stroke="#000000" points="151,-999.5 151,-1019.5 328,-1019.5 328,-999.5 151,-999.5"/>
<text text-anchor="middle" x="239.5" y="-1006.5" font-family="FreeSans" font-size="10.00" fill="#000000">gbl::GblPoint::addMeasurement</text>
</a>
</g>
</g>
<!-- Node1&#45;&gt;Node4 -->
<g id="edge3" class="edge">
<title>Node1&#45;&gt;Node4</title>
<path fill="none" stroke="#191970" d="M58.9212,-597.7543C65.2742,-666.6427 93.3222,-933.5822 151,-990.5 152.1185,-991.6038 153.2847,-992.6504 154.4932,-993.6425"/>
<polygon fill="#191970" stroke="#191970" points="152.7836,-996.712 163.024,-999.4293 156.7132,-990.9191 152.7836,-996.712"/>
</g>
<!-- Node5 -->
<g id="node5" class="node">
<title>Node5</title>
<g id="a_node5"><a xlink:href="../../da/d3b/classgbl_1_1GblPoint.html#a5f35c13484013ab6de3112cfd781ceb0" target="_top" xlink:title="Add a (thin) scatterer to a point.">
<polygon fill="none" stroke="#000000" points="162.5,-960.5 162.5,-980.5 316.5,-980.5 316.5,-960.5 162.5,-960.5"/>
<text text-anchor="middle" x="239.5" y="-967.5" font-family="FreeSans" font-size="10.00" fill="#000000">gbl::GblPoint::addScatterer</text>
</a>
</g>
</g>
<!-- Node1&#45;&gt;Node5 -->
<g id="edge4" class="edge">
<title>Node1&#45;&gt;Node5</title>
<path fill="none" stroke="#191970" d="M59.3104,-597.5068C66.9104,-661.8577 98.3067,-900.6724 151,-951.5 152.131,-952.591 153.3088,-953.6257 154.5278,-954.607"/>
<polygon fill="#191970" stroke="#191970" points="152.8545,-957.698 163.1159,-960.3352 156.7387,-951.8745 152.8545,-957.698"/>
</g>
<!-- Node6 -->
<g id="node6" class="node">
<title>Node6</title>
<g id="a_node6"><a xlink:href="../../d2/d74/classgenfit_1_1MeasuredStateOnPlane.html#adea48432beb9b8fc30bc4bf05b4c5547" target="_top" xlink:title="genfit::MeasuredStateOnPlane\l::getCov">
<polygon fill="none" stroke="#000000" points="154.5,-909.5 154.5,-941.5 324.5,-941.5 324.5,-909.5 154.5,-909.5"/>
<text text-anchor="start" x="162.5" y="-928.5" font-family="FreeSans" font-size="10.00" fill="#000000">genfit::MeasuredStateOnPlane</text>
<text text-anchor="middle" x="239.5" y="-916.5" font-family="FreeSans" font-size="10.00" fill="#000000">::getCov</text>
</a>
</g>
</g>
<!-- Node1&#45;&gt;Node6 -->
<g id="edge5" class="edge">
<title>Node1&#45;&gt;Node6</title>
<path fill="none" stroke="#191970" d="M60.1142,-597.5738C69.9277,-656.0339 106.3013,-856.2374 151,-900.5 151.9572,-901.4479 152.9475,-902.3604 153.9675,-903.239"/>
<polygon fill="#191970" stroke="#191970" points="152.1767,-906.2648 162.3187,-909.3293 156.3014,-900.6091 152.1767,-906.2648"/>
</g>
<!-- Node7 -->
<g id="node7" class="node">
<title>Node7</title>
<g id="a_node7"><a xlink:href="../../d3/d5c/classgenfit_1_1GblFitterInfo.html#ac94dba20931f22112714ba399841d10d" target="_top" xlink:title="Get scattering covariance projected into (measurement) plane.">
<polygon fill="none" stroke="#000000" points="182,-858.5 182,-890.5 297,-890.5 297,-858.5 182,-858.5"/>
<text text-anchor="start" x="190" y="-877.5" font-family="FreeSans" font-size="10.00" fill="#000000">genfit::GblFitterInfo</text>
<text text-anchor="middle" x="239.5" y="-865.5" font-family="FreeSans" font-size="10.00" fill="#000000">::getCovariance</text>
</a>
</g>
</g>
<!-- Node1&#45;&gt;Node7 -->
<g id="edge6" class="edge">
<title>Node1&#45;&gt;Node7</title>
<path fill="none" stroke="#191970" d="M58.1936,-597.8102C61.0742,-644.31 75.8302,-778.7362 151,-849.5 157.1831,-855.3207 164.6171,-859.8019 172.5154,-863.2489"/>
<polygon fill="#191970" stroke="#191970" points="171.3623,-866.5549 181.9534,-866.8386 173.8509,-860.0122 171.3623,-866.5549"/>
</g>
<!-- Node8 -->
<g id="node8" class="node">
<title>Node8</title>
<g id="a_node8"><a xlink:href="../../de/dd5/classgenfit_1_1StateOnPlane.html#a7613442df2c4d7ec1bf621b135f96527" target="_top" xlink:title="genfit::StateOnPlane\l::getDir">
<polygon fill="none" stroke="#000000" points="179,-807.5 179,-839.5 300,-839.5 300,-807.5 179,-807.5"/>
<text text-anchor="start" x="187" y="-826.5" font-family="FreeSans" font-size="10.00" fill="#000000">genfit::StateOnPlane</text>
<text text-anchor="middle" x="239.5" y="-814.5" font-family="FreeSans" font-size="10.00" fill="#000000">::getDir</text>
</a>
</g>
</g>
<!-- Node1&#45;&gt;Node8 -->
<g id="edge7" class="edge">
<title>Node1&#45;&gt;Node8</title>
<path fill="none" stroke="#191970" d="M59.6698,-597.5996C65.9517,-637.7799 87.911,-743.2073 151,-798.5 156.4482,-803.2749 162.7454,-807.1426 169.4194,-810.2746"/>
<polygon fill="#191970" stroke="#191970" points="168.1305,-813.529 178.7097,-814.1056 170.7992,-807.0576 168.1305,-813.529"/>
</g>
<!-- Node11 -->
<g id="node11" class="node">
<title>Node11</title>
<g id="a_node11"><a xlink:href="../../d6/d8a/classgenfit_1_1Track.html#ad06e7a012624bdb03960826b5c9fcd93" target="_top" xlink:title="Get FitStatus for a AbsTrackRep. Per default, return FitStatus for cardinalRep.">
<polygon fill="none" stroke="#000000" points="166.5,-768.5 166.5,-788.5 312.5,-788.5 312.5,-768.5 166.5,-768.5"/>
<text text-anchor="middle" x="239.5" y="-775.5" font-family="FreeSans" font-size="10.00" fill="#000000">genfit::Track::getFitStatus</text>
</a>
</g>
</g>
<!-- Node1&#45;&gt;Node11 -->
<g id="edge10" class="edge">
<title>Node1&#45;&gt;Node11</title>
<path fill="none" stroke="#191970" d="M61.6271,-597.5175C71.244,-631.5748 98.4233,-711.4943 151,-753.5 156.6599,-758.0219 163.0938,-761.7263 169.8494,-764.7608"/>
<polygon fill="#191970" stroke="#191970" points="168.6335,-768.0439 179.2186,-768.4975 171.2267,-761.542 168.6335,-768.0439"/>
</g>
<!-- Node13 -->
<g id="node13" class="node">
<title>Node13</title>
<g id="a_node13"><a xlink:href="../../d3/d5c/classgenfit_1_1GblFitterInfo.html#a9040cad25be9a3c328a52c186871acf8" target="_top" xlink:title="Get the prediction at this point Always biased in GBL (global fit) There are 2 states, before and after kink (if there is a scatterer at this point). Per default the state after kink for forward propagation is returned.">
<polygon fill="none" stroke="#000000" points="390.5,-690.5 390.5,-722.5 505.5,-722.5 505.5,-690.5 390.5,-690.5"/>
<text text-anchor="start" x="398.5" y="-709.5" font-family="FreeSans" font-size="10.00" fill="#000000">genfit::GblFitterInfo</text>
<text text-anchor="middle" x="448" y="-697.5" font-family="FreeSans" font-size="10.00" fill="#000000">::getFittedState</text>
</a>
</g>
</g>
<!-- Node1&#45;&gt;Node13 -->
<g id="edge12" class="edge">
<title>Node1&#45;&gt;Node13</title>
<path fill="none" stroke="#191970" d="M62.6991,-597.8176C73.472,-628.5103 101.4559,-694.1166 151,-720.5 226.6848,-760.804 329.1993,-742.9084 391.8583,-725.3726"/>
<polygon fill="#191970" stroke="#191970" points="392.9259,-728.7074 401.5623,-722.5702 390.9838,-721.9822 392.9259,-728.7074"/>
</g>
<!-- Node14 -->
<g id="node14" class="node">
<title>Node14</title>
<g id="a_node14"><a xlink:href="../../d3/d5c/classgenfit_1_1GblFitterInfo.html#a838ec661da762f1ce3ddbf4019b2c367" target="_top" xlink:title="Get kink (residual) (2D) = 0 &#45; ( (+)pred &#45; (&#45;)pred )">
<polygon fill="none" stroke="#000000" points="182,-678.5 182,-710.5 297,-710.5 297,-678.5 182,-678.5"/>
<text text-anchor="start" x="190" y="-697.5" font-family="FreeSans" font-size="10.00" fill="#000000">genfit::GblFitterInfo</text>
<text text-anchor="middle" x="239.5" y="-685.5" font-family="FreeSans" font-size="10.00" fill="#000000">::getKinks</text>
</a>
</g>
</g>
<!-- Node1&#45;&gt;Node14 -->
<g id="edge13" class="edge">
<title>Node1&#45;&gt;Node14</title>
<path fill="none" stroke="#191970" d="M72.2544,-597.7498C89.56,-615.9643 119.8617,-645.3205 151,-663.5 158.1746,-667.6887 166.0055,-671.4394 173.946,-674.7601"/>
<polygon fill="#191970" stroke="#191970" points="172.6989,-678.0306 183.285,-678.4613 175.278,-671.523 172.6989,-678.0306"/>
</g>
<!-- Node15 -->
<g id="node15" class="node">
<title>Node15</title>
<g id="a_node15"><a xlink:href="../../d6/d15/classgenfit_1_1ThinScatterer.html#a558990ccc5326fa92d045f47f7b40cf9" target="_top" xlink:title="genfit::ThinScatterer\l::getMaterial">
<polygon fill="none" stroke="#000000" points="179,-498.5 179,-530.5 300,-530.5 300,-498.5 179,-498.5"/>
<text text-anchor="start" x="187" y="-517.5" font-family="FreeSans" font-size="10.00" fill="#000000">genfit::ThinScatterer</text>
<text text-anchor="middle" x="239.5" y="-505.5" font-family="FreeSans" font-size="10.00" fill="#000000">::getMaterial</text>
</a>
</g>
</g>
<!-- Node1&#45;&gt;Node15 -->
<g id="edge15" class="edge">
<title>Node1&#45;&gt;Node15</title>
<path fill="none" stroke="#191970" d="M98.3595,-565.4566C114.6892,-559.1263 133.694,-551.8609 151,-545.5 161.2952,-541.7159 172.3013,-537.7764 182.9311,-534.0254"/>
<polygon fill="#191970" stroke="#191970" points="184.2819,-537.2607 192.5561,-530.6435 181.9613,-530.6565 184.2819,-537.2607"/>
</g>
<!-- Node16 -->
<g id="node16" class="node">
<title>Node16</title>
<g id="a_node16"><a xlink:href="../../db/d40/classgenfit_1_1TrackPoint.html#af4546d8633692c52a8ef821d247170c1" target="_top" xlink:title="genfit::TrackPoint\l::getMaterialInfo">
<polygon fill="none" stroke="#000000" points="187.5,-447.5 187.5,-479.5 291.5,-479.5 291.5,-447.5 187.5,-447.5"/>
<text text-anchor="start" x="195.5" y="-466.5" font-family="FreeSans" font-size="10.00" fill="#000000">genfit::TrackPoint</text>
<text text-anchor="middle" x="239.5" y="-454.5" font-family="FreeSans" font-size="10.00" fill="#000000">::getMaterialInfo</text>
</a>
</g>
</g>
<!-- Node1&#45;&gt;Node16 -->
<g id="edge16" class="edge">
<title>Node1&#45;&gt;Node16</title>
<path fill="none" stroke="#191970" d="M69.6199,-565.4112C85.9228,-544.868 116.8419,-509.584 151,-489.5 159.1964,-484.6807 168.3515,-480.6983 177.5796,-477.4238"/>
<polygon fill="#191970" stroke="#191970" points="178.781,-480.7132 187.1856,-474.2624 176.5927,-474.0641 178.781,-480.7132"/>
</g>
<!-- Node17 -->
<g id="node17" class="node">
<title>Node17</title>
<g id="a_node17"><a xlink:href="../../de/d67/classgenfit_1_1HMatrixU.html#a003c6f375c508f85a62a9334d8166481" target="_top" xlink:title="Get the actual matrix representation.">
<polygon fill="none" stroke="#000000" points="162.5,-408.5 162.5,-428.5 316.5,-428.5 316.5,-408.5 162.5,-408.5"/>
<text text-anchor="middle" x="239.5" y="-415.5" font-family="FreeSans" font-size="10.00" fill="#000000">genfit::HMatrixU::getMatrix</text>
</a>
</g>
</g>
<!-- Node1&#45;&gt;Node17 -->
<g id="edge17" class="edge">
<title>Node1&#45;&gt;Node17</title>
<path fill="none" stroke="#191970" d="M63.3385,-565.2472C75.0171,-535.18 104.2218,-470.9849 151,-438.5 154.093,-436.352 157.3802,-434.4308 160.7982,-432.7128"/>
<polygon fill="#191970" stroke="#191970" points="162.3601,-435.8495 170.108,-428.6232 159.5448,-429.4406 162.3601,-435.8495"/>
</g>
<!-- Node18 -->
<g id="node18" class="node">
<title>Node18</title>
<g id="a_node18"><a xlink:href="../../d3/dcf/classgenfit_1_1GblFitStatus.html#a84f6acb65c1ed0a685a7926fef6d6002" target="_top" xlink:title="genfit::GblFitStatus\l::getMaxLocalFitParams">
<polygon fill="none" stroke="#000000" points="172,-357.5 172,-389.5 307,-389.5 307,-357.5 172,-357.5"/>
<text text-anchor="start" x="180" y="-376.5" font-family="FreeSans" font-size="10.00" fill="#000000">genfit::GblFitStatus</text>
<text text-anchor="middle" x="239.5" y="-364.5" font-family="FreeSans" font-size="10.00" fill="#000000">::getMaxLocalFitParams</text>
</a>
</g>
</g>
<!-- Node1&#45;&gt;Node18 -->
<g id="edge18" class="edge">
<title>Node1&#45;&gt;Node18</title>
<path fill="none" stroke="#191970" d="M61.1723,-565.4174C70.1108,-529.965 96.3874,-444.6641 151,-399.5 154.5672,-396.5499 158.4572,-393.9346 162.5516,-391.616"/>
<polygon fill="#191970" stroke="#191970" points="164.413,-394.5987 171.7955,-386.9995 161.2854,-388.3362 164.413,-394.5987"/>
</g>
<!-- Node19 -->
<g id="node19" class="node">
<title>Node19</title>
<g id="a_node19"><a xlink:href="../../de/dd5/classgenfit_1_1StateOnPlane.html#a30c7e8d87fa50205baa927d4ceccb594" target="_top" xlink:title="genfit::StateOnPlane\l::getPlane">
<polygon fill="none" stroke="#000000" points="179,-306.5 179,-338.5 300,-338.5 300,-306.5 179,-306.5"/>
<text text-anchor="start" x="187" y="-325.5" font-family="FreeSans" font-size="10.00" fill="#000000">genfit::StateOnPlane</text>
<text text-anchor="middle" x="239.5" y="-313.5" font-family="FreeSans" font-size="10.00" fill="#000000">::getPlane</text>
</a>
</g>
</g>
<!-- Node1&#45;&gt;Node19 -->
<g id="edge19" class="edge">
<title>Node1&#45;&gt;Node19</title>
<path fill="none" stroke="#191970" d="M59.1049,-565.4168C64.1987,-523.132 83.8614,-407.9455 151,-347.5 156.384,-342.6528 162.6397,-338.7384 169.289,-335.5786"/>
<polygon fill="#191970" stroke="#191970" points="170.6688,-338.7954 178.5553,-331.7206 167.9782,-332.3331 170.6688,-338.7954"/>
</g>
<!-- Node20 -->
<g id="node20" class="node">
<title>Node20</title>
<g id="a_node20"><a xlink:href="../../db/d40/classgenfit_1_1TrackPoint.html#a2999fc0669beb86b6309f86e040bcdef" target="_top" xlink:title="genfit::TrackPoint\l::getRawMeasurement">
<polygon fill="none" stroke="#000000" points="383,-639.5 383,-671.5 513,-671.5 513,-639.5 383,-639.5"/>
<text text-anchor="start" x="391" y="-658.5" font-family="FreeSans" font-size="10.00" fill="#000000">genfit::TrackPoint</text>
<text text-anchor="middle" x="448" y="-646.5" font-family="FreeSans" font-size="10.00" fill="#000000">::getRawMeasurement</text>
</a>
</g>
</g>
<!-- Node1&#45;&gt;Node20 -->
<g id="edge20" class="edge">
<title>Node1&#45;&gt;Node20</title>
<path fill="none" stroke="#191970" d="M81.7461,-597.6683C99.9788,-608.9441 126.0138,-623.2245 151,-630.5 224.2648,-651.8332 311.6757,-656.8843 372.6234,-657.3328"/>
<polygon fill="#191970" stroke="#191970" points="372.916,-660.8337 382.9275,-657.3667 372.9391,-653.8337 372.916,-660.8337"/>
</g>
<!-- Node21 -->
<g id="node21" class="node">
<title>Node21</title>
<g id="a_node21"><a xlink:href="../../d3/d5c/classgenfit_1_1GblFitterInfo.html#ae19fc48cd3a657bae8d7a6c0afdb3bdf" target="_top" xlink:title="Get the residual.">
<polygon fill="none" stroke="#000000" points="182,-588.5 182,-620.5 297,-620.5 297,-588.5 182,-588.5"/>
<text text-anchor="start" x="190" y="-607.5" font-family="FreeSans" font-size="10.00" fill="#000000">genfit::GblFitterInfo</text>
<text text-anchor="middle" x="239.5" y="-595.5" font-family="FreeSans" font-size="10.00" fill="#000000">::getResidual</text>
</a>
</g>
</g>
<!-- Node1&#45;&gt;Node21 -->
<g id="edge21" class="edge">
<title>Node1&#45;&gt;Node21</title>
<path fill="none" stroke="#191970" d="M115.0859,-588.7773C133.1825,-591.0643 153.3264,-593.6099 172.0433,-595.9753"/>
<polygon fill="#191970" stroke="#191970" points="171.6166,-599.4491 181.9765,-597.2306 172.4943,-592.5043 171.6166,-599.4491"/>
</g>
<!-- Node22 -->
<g id="node22" class="node">
<title>Node22</title>
<g id="a_node22"><a xlink:href="../../d3/d5c/classgenfit_1_1GblFitterInfo.html#ad3bc8c2b886cf8fa07c124945d222f07" target="_top" xlink:title="genfit::GblFitterInfo\l::hasMeasurements">
<polygon fill="none" stroke="#000000" points="390,-486.5 390,-518.5 506,-518.5 506,-486.5 390,-486.5"/>
<text text-anchor="start" x="398" y="-505.5" font-family="FreeSans" font-size="10.00" fill="#000000">genfit::GblFitterInfo</text>
<text text-anchor="middle" x="448" y="-493.5" font-family="FreeSans" font-size="10.00" fill="#000000">::hasMeasurements</text>
</a>
</g>
</g>
<!-- Node1&#45;&gt;Node22 -->
<g id="edge33" class="edge">
<title>Node1&#45;&gt;Node22</title>
<path fill="none" stroke="#191970" d="M115.0436,-575.6733C170.1842,-569.4114 255.4965,-557.9425 328,-540.5 344.3976,-536.5551 347.9434,-533.6604 364,-528.5 370.9944,-526.2521 378.3276,-523.9305 385.625,-521.6424"/>
<polygon fill="#191970" stroke="#191970" points="387.0164,-524.8747 395.5187,-518.5531 384.93,-518.1928 387.0164,-524.8747"/>
</g>
<!-- Node26 -->
<g id="node26" class="node">
<title>Node26</title>
<g id="a_node26"><a xlink:href="../../de/dd5/classgenfit_1_1StateOnPlane.html#a61a05215bec767cf6919b083808a37d2" target="_top" xlink:title="genfit::StateOnPlane\l::getState">
<polygon fill="none" stroke="#000000" points="179,-255.5 179,-287.5 300,-287.5 300,-255.5 179,-255.5"/>
<text text-anchor="start" x="187" y="-274.5" font-family="FreeSans" font-size="10.00" fill="#000000">genfit::StateOnPlane</text>
<text text-anchor="middle" x="239.5" y="-262.5" font-family="FreeSans" font-size="10.00" fill="#000000">::getState</text>
</a>
</g>
</g>
<!-- Node1&#45;&gt;Node26 -->
<g id="edge28" class="edge">
<title>Node1&#45;&gt;Node26</title>
<path fill="none" stroke="#191970" d="M60.7395,-565.2741C71.9313,-510.7464 110.5061,-335.3398 151,-296.5 156.3075,-291.4093 162.5703,-287.3411 169.2727,-284.0924"/>
<polygon fill="#191970" stroke="#191970" points="170.7774,-287.2565 178.6365,-280.1511 168.0618,-280.8047 170.7774,-287.2565"/>
</g>
<!-- Node27 -->
<g id="node27" class="node">
<title>Node27</title>
<g id="a_node27"><a xlink:href="../../db/d40/classgenfit_1_1TrackPoint.html#a2540c1979de60b5456130b1e648c783d" target="_top" xlink:title="genfit::TrackPoint\l::getTrack">
<polygon fill="none" stroke="#000000" points="187.5,-204.5 187.5,-236.5 291.5,-236.5 291.5,-204.5 187.5,-204.5"/>
<text text-anchor="start" x="195.5" y="-223.5" font-family="FreeSans" font-size="10.00" fill="#000000">genfit::TrackPoint</text>
<text text-anchor="middle" x="239.5" y="-211.5" font-family="FreeSans" font-size="10.00" fill="#000000">::getTrack</text>
</a>
</g>
</g>
<!-- Node1&#45;&gt;Node27 -->
<g id="edge29" class="edge">
<title>Node1&#45;&gt;Node27</title>
<path fill="none" stroke="#191970" d="M59.8626,-565.4162C69.0487,-504.9722 104.209,-292.4741 151,-245.5 158.3432,-238.128 167.6833,-232.8893 177.5276,-229.1754"/>
<polygon fill="#191970" stroke="#191970" points="178.6501,-232.4908 187.0717,-226.0621 176.4792,-225.8359 178.6501,-232.4908"/>
</g>
<!-- Node28 -->
<g id="node28" class="node">
<title>Node28</title>
<g id="a_node28"><a xlink:href="../../dd/d08/classgenfit_1_1ICalibrationParametersDerivatives.html#aad87ecb772d1fe523d7ac76cae3cfe87" target="_top" xlink:title="Labels and derivatives of residuals (local measurement coordinates) w.r.t. alignment/calibration para...">
<polygon fill="none" stroke="#000000" points="155,-153.5 155,-185.5 324,-185.5 324,-153.5 155,-153.5"/>
<text text-anchor="start" x="163" y="-172.5" font-family="FreeSans" font-size="10.00" fill="#000000">genfit::ICalibrationParameters</text>
<text text-anchor="middle" x="239.5" y="-160.5" font-family="FreeSans" font-size="10.00" fill="#000000">Derivatives::globalDerivatives</text>
</a>
</g>
</g>
<!-- Node1&#45;&gt;Node28 -->
<g id="edge30" class="edge">
<title>Node1&#45;&gt;Node28</title>
<path fill="none" stroke="#191970" d="M59.2443,-565.3138C66.6951,-499.086 97.9154,-249.6551 151,-194.5 151.8027,-193.666 152.6309,-192.8592 153.4825,-192.0787"/>
<polygon fill="#191970" stroke="#191970" points="155.93,-194.6119 161.7233,-185.7413 151.6627,-189.063 155.93,-194.6119"/>
</g>
<!-- Node31 -->
<g id="node31" class="node">
<title>Node31</title>
<g id="a_node31"><a xlink:href="../../db/d40/classgenfit_1_1TrackPoint.html#a8e95da3ab22152417e03bd414678af11" target="_top" xlink:title="genfit::TrackPoint\l::hasThinScatterer">
<polygon fill="none" stroke="#000000" points="184.5,-102.5 184.5,-134.5 294.5,-134.5 294.5,-102.5 184.5,-102.5"/>
<text text-anchor="start" x="192.5" y="-121.5" font-family="FreeSans" font-size="10.00" fill="#000000">genfit::TrackPoint</text>
<text text-anchor="middle" x="239.5" y="-109.5" font-family="FreeSans" font-size="10.00" fill="#000000">::hasThinScatterer</text>
</a>
</g>
</g>
<!-- Node1&#45;&gt;Node31 -->
<g id="edge34" class="edge">
<title>Node1&#45;&gt;Node31</title>
<path fill="none" stroke="#191970" d="M58.7656,-565.1803C64.6481,-493.4474 91.5876,-206.9053 151,-143.5 157.5629,-136.4961 165.9238,-131.403 174.8765,-127.7095"/>
<polygon fill="#191970" stroke="#191970" points="176.1129,-130.9847 184.3697,-124.3458 173.7749,-124.3867 176.1129,-130.9847"/>
</g>
<!-- Node32 -->
<g id="node32" class="node">
<title>Node32</title>
<g id="a_node32"><a xlink:href="../../dd/d08/classgenfit_1_1ICalibrationParametersDerivatives.html#aa6d988b75f9d2f66d6707281b6f950ab" target="_top" xlink:title="Derivatives for additional local parameters to be fitted in global calibration algorithms together wi...">
<polygon fill="none" stroke="#000000" points="155.5,-51.5 155.5,-83.5 323.5,-83.5 323.5,-51.5 155.5,-51.5"/>
<text text-anchor="start" x="163.5" y="-70.5" font-family="FreeSans" font-size="10.00" fill="#000000">genfit::ICalibrationParameters</text>
<text text-anchor="middle" x="239.5" y="-58.5" font-family="FreeSans" font-size="10.00" fill="#000000">Derivatives::localDerivatives</text>
</a>
</g>
</g>
<!-- Node1&#45;&gt;Node32 -->
<g id="edge35" class="edge">
<title>Node1&#45;&gt;Node32</title>
<path fill="none" stroke="#191970" d="M58.3603,-565.389C62.7564,-489.0353 85.1293,-164.3217 151,-92.5 151.7824,-91.6469 152.5914,-90.8221 153.425,-90.0247"/>
<polygon fill="#191970" stroke="#191970" points="155.8946,-92.532 161.5318,-83.5613 151.5308,-87.0586 155.8946,-92.532"/>
</g>
<!-- Node33 -->
<g id="node33" class="node">
<title>Node33</title>
<g id="a_node33"><a xlink:href="../../d3/dcf/classgenfit_1_1GblFitStatus.html#a1d96ce15af9cdf33a4eb4286f60c9086" target="_top" xlink:title="genfit::GblFitStatus\l::setMaxLocalFitParams">
<polygon fill="none" stroke="#000000" points="172.5,-.5 172.5,-32.5 306.5,-32.5 306.5,-.5 172.5,-.5"/>
<text text-anchor="start" x="180.5" y="-19.5" font-family="FreeSans" font-size="10.00" fill="#000000">genfit::GblFitStatus</text>
<text text-anchor="middle" x="239.5" y="-7.5" font-family="FreeSans" font-size="10.00" fill="#000000">::setMaxLocalFitParams</text>
</a>
</g>
</g>
<!-- Node1&#45;&gt;Node33 -->
<g id="edge36" class="edge">
<title>Node1&#45;&gt;Node33</title>
<path fill="none" stroke="#191970" d="M58.0446,-565.3695C61.1048,-484.2609 78.7066,-121.7209 151,-41.5 154.5823,-37.5249 158.7434,-34.1622 163.2705,-31.3196"/>
<polygon fill="#191970" stroke="#191970" points="165.1923,-34.2615 172.3715,-26.4699 161.9003,-28.0838 165.1923,-34.2615"/>
</g>
<!-- Node9 -->
<g id="node9" class="node">
<title>Node9</title>
<g id="a_node9"><a xlink:href="../../d1/d25/classgenfit_1_1AbsTrackRep.html#aecce446d786c8ecda76532ba5d33b0be" target="_top" xlink:title="Get the direction vector of a state.">
<polygon fill="none" stroke="#000000" points="389.5,-807.5 389.5,-839.5 506.5,-839.5 506.5,-807.5 389.5,-807.5"/>
<text text-anchor="start" x="397.5" y="-826.5" font-family="FreeSans" font-size="10.00" fill="#000000">genfit::AbsTrackRep</text>
<text text-anchor="middle" x="448" y="-814.5" font-family="FreeSans" font-size="10.00" fill="#000000">::getDir</text>
</a>
</g>
</g>
<!-- Node8&#45;&gt;Node9 -->
<g id="edge8" class="edge">
<title>Node8&#45;&gt;Node9</title>
<path fill="none" stroke="#191970" d="M300.0869,-823.5C324.9248,-823.5 353.7987,-823.5 379.4083,-823.5"/>
<polygon fill="#191970" stroke="#191970" points="379.4173,-827.0001 389.4173,-823.5 379.4172,-820.0001 379.4173,-827.0001"/>
</g>
<!-- Node10 -->
<g id="node10" class="node">
<title>Node10</title>
<g id="a_node10"><a xlink:href="../../d1/d25/classgenfit_1_1AbsTrackRep.html#a5c793a4e2a75511b77a53ec977e2501b" target="_top" xlink:title="Get the cartesian momentum vector of a state.">
<polygon fill="none" stroke="#000000" points="578,-807.5 578,-839.5 695,-839.5 695,-807.5 578,-807.5"/>
<text text-anchor="start" x="586" y="-826.5" font-family="FreeSans" font-size="10.00" fill="#000000">genfit::AbsTrackRep</text>
<text text-anchor="middle" x="636.5" y="-814.5" font-family="FreeSans" font-size="10.00" fill="#000000">::getMom</text>
</a>
</g>
</g>
<!-- Node9&#45;&gt;Node10 -->
<g id="edge9" class="edge">
<title>Node9&#45;&gt;Node10</title>
<path fill="none" stroke="#191970" d="M506.6093,-823.5C526.0249,-823.5 547.8069,-823.5 567.9043,-823.5"/>
<polygon fill="#191970" stroke="#191970" points="567.927,-827.0001 577.9269,-823.5 567.9269,-820.0001 567.927,-827.0001"/>
</g>
<!-- Node12 -->
<g id="node12" class="node">
<title>Node12</title>
<g id="a_node12"><a xlink:href="../../d6/d8a/classgenfit_1_1Track.html#a402b35300e81a48c7f0b9eb082b1cf24" target="_top" xlink:title="Get cardinal track representation.">
<polygon fill="none" stroke="#000000" points="366.5,-768.5 366.5,-788.5 529.5,-788.5 529.5,-768.5 366.5,-768.5"/>
<text text-anchor="middle" x="448" y="-775.5" font-family="FreeSans" font-size="10.00" fill="#000000">genfit::Track::getCardinalRep</text>
</a>
</g>
</g>
<!-- Node11&#45;&gt;Node12 -->
<g id="edge11" class="edge">
<title>Node11&#45;&gt;Node12</title>
<path fill="none" stroke="#191970" d="M312.7161,-778.5C326.8261,-778.5 341.7705,-778.5 356.3792,-778.5"/>
<polygon fill="#191970" stroke="#191970" points="356.425,-782.0001 366.4249,-778.5 356.4249,-775.0001 356.425,-782.0001"/>
</g>
<!-- Node14&#45;&gt;Node13 -->
<g id="edge14" class="edge">
<title>Node14&#45;&gt;Node13</title>
<path fill="none" stroke="#191970" d="M297.0255,-697.8108C322.7841,-699.2933 353.3412,-701.052 380.2039,-702.5981"/>
<polygon fill="#191970" stroke="#191970" points="380.116,-706.0987 390.3007,-703.1792 380.5183,-699.1103 380.116,-706.0987"/>
</g>
<!-- Node21&#45;&gt;Node13 -->
<g id="edge24" class="edge">
<title>Node21&#45;&gt;Node13</title>
<path fill="none" stroke="#191970" d="M261.4458,-620.5779C285.5708,-637.6405 325.9696,-664.4445 364,-681.5 369.3364,-683.8932 374.964,-686.1314 380.675,-688.2071"/>
<polygon fill="#191970" stroke="#191970" points="379.7337,-691.5848 390.3285,-691.5456 382.0217,-684.9693 379.7337,-691.5848"/>
</g>
<!-- Node21&#45;&gt;Node20 -->
<g id="edge25" class="edge">
<title>Node21&#45;&gt;Node20</title>
<path fill="none" stroke="#191970" d="M297.0255,-618.571C320.5424,-624.3233 348.0589,-631.054 373.1122,-637.1821"/>
<polygon fill="#191970" stroke="#191970" points="372.3985,-640.6107 382.9438,-639.587 374.0618,-633.8111 372.3985,-640.6107"/>
</g>
<!-- Node21&#45;&gt;Node22 -->
<g id="edge22" class="edge">
<title>Node21&#45;&gt;Node22</title>
<path fill="none" stroke="#191970" d="M297.0425,-589.6205C307.8717,-585.3922 318.7019,-580.0889 328,-573.5 348.8976,-558.6915 342.8338,-542.922 364,-528.5 369.133,-525.0025 374.7563,-521.96 380.5843,-519.3162"/>
<polygon fill="#191970" stroke="#191970" points="381.9631,-522.5336 389.8701,-515.4817 379.2913,-516.0635 381.9631,-522.5336"/>
</g>
<!-- Node24 -->
<g id="node24" class="node">
<title>Node24</title>
<g id="a_node24"><a xlink:href="../../d5/d1f/classgenfit_1_1AbsMeasurement.html#af18f7aec09c915ad948a96e3b934eaa8" target="_top" xlink:title="genfit::AbsMeasurement\l::constructHMatrix">
<polygon fill="none" stroke="#000000" points="377.5,-537.5 377.5,-569.5 518.5,-569.5 518.5,-537.5 377.5,-537.5"/>
<text text-anchor="start" x="385.5" y="-556.5" font-family="FreeSans" font-size="10.00" fill="#000000">genfit::AbsMeasurement</text>
<text text-anchor="middle" x="448" y="-544.5" font-family="FreeSans" font-size="10.00" fill="#000000">::constructHMatrix</text>
</a>
</g>
</g>
<!-- Node21&#45;&gt;Node24 -->
<g id="edge26" class="edge">
<title>Node21&#45;&gt;Node24</title>
<path fill="none" stroke="#191970" d="M297.0255,-590.429C320.4359,-584.7027 347.81,-578.0069 372.7719,-571.9011"/>
<polygon fill="#191970" stroke="#191970" points="373.6881,-575.2803 382.5701,-569.5044 372.0248,-568.4807 373.6881,-575.2803"/>
</g>
<!-- Node25 -->
<g id="node25" class="node">
<title>Node25</title>
<g id="a_node25"><a xlink:href="../../d9/d8c/classgenfit_1_1AbsFitterInfo.html#afea691164c74306d2031439ca40d1687" target="_top" xlink:title="genfit::AbsFitterInfo\l::getRep">
<polygon fill="none" stroke="#000000" points="390,-588.5 390,-620.5 506,-620.5 506,-588.5 390,-588.5"/>
<text text-anchor="start" x="398" y="-607.5" font-family="FreeSans" font-size="10.00" fill="#000000">genfit::AbsFitterInfo</text>
<text text-anchor="middle" x="448" y="-595.5" font-family="FreeSans" font-size="10.00" fill="#000000">::getRep</text>
</a>
</g>
</g>
<!-- Node21&#45;&gt;Node25 -->
<g id="edge27" class="edge">
<title>Node21&#45;&gt;Node25</title>
<path fill="none" stroke="#191970" d="M297.0255,-604.5C322.6772,-604.5 353.0877,-604.5 379.8693,-604.5"/>
<polygon fill="#191970" stroke="#191970" points="379.9385,-608.0001 389.9384,-604.5 379.9384,-601.0001 379.9385,-608.0001"/>
</g>
<!-- Node23 -->
<g id="node23" class="node">
<title>Node23</title>
<g id="a_node23"><a xlink:href="../../db/d40/classgenfit_1_1TrackPoint.html#ada7b4d8c988a1798e455fb70929f88b7" target="_top" xlink:title="genfit::TrackPoint\l::hasRawMeasurements">
<polygon fill="none" stroke="#000000" points="568,-486.5 568,-518.5 705,-518.5 705,-486.5 568,-486.5"/>
<text text-anchor="start" x="576" y="-505.5" font-family="FreeSans" font-size="10.00" fill="#000000">genfit::TrackPoint</text>
<text text-anchor="middle" x="636.5" y="-493.5" font-family="FreeSans" font-size="10.00" fill="#000000">::hasRawMeasurements</text>
</a>
</g>
</g>
<!-- Node22&#45;&gt;Node23 -->
<g id="edge23" class="edge">
<title>Node22&#45;&gt;Node23</title>
<path fill="none" stroke="#191970" d="M506.0943,-502.5C522.3713,-502.5 540.3441,-502.5 557.6101,-502.5"/>
<polygon fill="#191970" stroke="#191970" points="557.6763,-506.0001 567.6762,-502.5 557.6762,-499.0001 557.6763,-506.0001"/>
</g>
<!-- Node29 -->
<g id="node29" class="node">
<title>Node29</title>
<g id="a_node29"><a xlink:href="../../dd/d08/classgenfit_1_1ICalibrationParametersDerivatives.html#ac946d5419f26737935a18fbd31c517d5" target="_top" xlink:title="Vector of integer labels for calibration/alignment parameters available (must match #columns of deriv...">
<polygon fill="none" stroke="#000000" points="364,-127.5 364,-159.5 532,-159.5 532,-127.5 364,-127.5"/>
<text text-anchor="start" x="372" y="-146.5" font-family="FreeSans" font-size="10.00" fill="#000000">genfit::ICalibrationParameters</text>
<text text-anchor="middle" x="448" y="-134.5" font-family="FreeSans" font-size="10.00" fill="#000000">Derivatives::labels</text>
</a>
</g>
</g>
<!-- Node28&#45;&gt;Node29 -->
<g id="edge31" class="edge">
<title>Node28&#45;&gt;Node29</title>
<path fill="none" stroke="#191970" d="M324.0044,-158.9623C333.7228,-157.7504 343.6789,-156.5089 353.5179,-155.2819"/>
<polygon fill="#191970" stroke="#191970" points="354.2239,-158.7211 363.7139,-154.0105 353.3577,-151.7749 354.2239,-158.7211"/>
</g>
<!-- Node30 -->
<g id="node30" class="node">
<title>Node30</title>
<g id="a_node30"><a xlink:href="../../dd/d08/classgenfit_1_1ICalibrationParametersDerivatives.html#ae6ce7b0f9fe0f7213fe4c173de46cabc" target="_top" xlink:title="Derivatives of residuals (local measurement coordinates) w.r.t. alignment/calibration parameters Matr...">
<polygon fill="none" stroke="#000000" points="364,-178.5 364,-210.5 532,-210.5 532,-178.5 364,-178.5"/>
<text text-anchor="start" x="372" y="-197.5" font-family="FreeSans" font-size="10.00" fill="#000000">genfit::ICalibrationParameters</text>
<text text-anchor="middle" x="448" y="-185.5" font-family="FreeSans" font-size="10.00" fill="#000000">Derivatives::derivatives</text>
</a>
</g>
</g>
<!-- Node28&#45;&gt;Node30 -->
<g id="edge32" class="edge">
<title>Node28&#45;&gt;Node30</title>
<path fill="none" stroke="#191970" d="M324.0044,-179.6324C333.7228,-180.7977 343.6789,-181.9915 353.5179,-183.1712"/>
<polygon fill="#191970" stroke="#191970" points="353.3683,-186.6783 363.7139,-184.3938 354.2018,-179.728 353.3683,-186.6783"/>
</g>
</g>
</svg>
