<?xml version="1.0" encoding="UTF-8" standalone="no"?>
<!DOCTYPE svg PUBLIC "-//W3C//DTD SVG 1.1//EN"
 "http://www.w3.org/Graphics/SVG/1.1/DTD/svg11.dtd">
<!-- Generated by graphviz version 2.40.1 (20161225.0304)
 -->
<!-- Title: genfit::GblFitterInfo::hasMeasurements Pages: 1 -->
<svg width="578pt" height="203pt"
 viewBox="0.00 0.00 578.00 203.41" xmlns="http://www.w3.org/2000/svg" xmlns:xlink="http://www.w3.org/1999/xlink">
<g id="graph0" class="graph" transform="scale(1 1) rotate(0) translate(4 199.4096)">
<title>genfit::GblFitterInfo::hasMeasurements</title>
<!-- Node1 -->
<g id="node1" class="node">
<title>Node1</title>
<polygon fill="#bfbfbf" stroke="#000000" points="0,-90.5 0,-122.5 116,-122.5 116,-90.5 0,-90.5"/>
<text text-anchor="start" x="8" y="-109.5" font-family="FreeSans" font-size="10.00" fill="#000000">genfit::GblFitterInfo</text>
<text text-anchor="middle" x="58" y="-97.5" font-family="FreeSans" font-size="10.00" fill="#000000">::hasMeasurements</text>
</g>
<!-- Node2 -->
<g id="node2" class="node">
<title>Node2</title>
<g id="a_node2"><a xlink:href="../../d3/d5c/classgenfit_1_1GblFitterInfo.html#aaa28251e933bd0cb8d80ba72f5e5a05e" target="_top" xlink:title="Collect all data and create a GblPoint.">
<polygon fill="none" stroke="#000000" points="313.5,-153.5 313.5,-185.5 428.5,-185.5 428.5,-153.5 313.5,-153.5"/>
<text text-anchor="start" x="321.5" y="-172.5" font-family="FreeSans" font-size="10.00" fill="#000000">genfit::GblFitterInfo</text>
<text text-anchor="middle" x="371" y="-160.5" font-family="FreeSans" font-size="10.00" fill="#000000">::constructGblPoint</text>
</a>
</g>
</g>
<!-- Node1&#45;&gt;Node2 -->
<g id="edge1" class="edge">
<title>Node1&#45;&gt;Node2</title>
<path fill="none" stroke="#191970" d="M78.1118,-130.1609C95.5033,-148.6564 122.4496,-172.942 152,-183.5 204.3808,-202.2151 268.2459,-195.0297 313.4588,-185.3994"/>
<polygon fill="#191970" stroke="#191970" points="80.586,-127.6797 71.2635,-122.6456 75.412,-132.3945 80.586,-127.6797"/>
</g>
<!-- Node4 -->
<g id="node4" class="node">
<title>Node4</title>
<g id="a_node4"><a xlink:href="../../d3/d5c/classgenfit_1_1GblFitterInfo.html#a6ee92ab2c8aa05282e8090b70f941c7a" target="_top" xlink:title="Get the measurement on plane from stored measurement data (from last construction/update)">
<polygon fill="none" stroke="#000000" points="155,-141.5 155,-173.5 270,-173.5 270,-141.5 155,-141.5"/>
<text text-anchor="start" x="163" y="-160.5" font-family="FreeSans" font-size="10.00" fill="#000000">genfit::GblFitterInfo</text>
<text text-anchor="middle" x="212.5" y="-148.5" font-family="FreeSans" font-size="10.00" fill="#000000">::getMeasurement</text>
</a>
</g>
</g>
<!-- Node1&#45;&gt;Node4 -->
<g id="edge3" class="edge">
<title>Node1&#45;&gt;Node4</title>
<path fill="none" stroke="#191970" d="M116.4666,-125.7997C132.1231,-130.9678 148.8755,-136.4977 163.9332,-141.4683"/>
<polygon fill="#191970" stroke="#191970" points="117.4779,-122.4478 106.8848,-122.6367 115.2836,-129.095 117.4779,-122.4478"/>
</g>
<!-- Node5 -->
<g id="node5" class="node">
<title>Node5</title>
<g id="a_node5"><a xlink:href="../../d3/d5c/classgenfit_1_1GblFitterInfo.html#ae19fc48cd3a657bae8d7a6c0afdb3bdf" target="_top" xlink:title="Get the residual.">
<polygon fill="none" stroke="#000000" points="155,-90.5 155,-122.5 270,-122.5 270,-90.5 155,-90.5"/>
<text text-anchor="start" x="163" y="-109.5" font-family="FreeSans" font-size="10.00" fill="#000000">genfit::GblFitterInfo</text>
<text text-anchor="middle" x="212.5" y="-97.5" font-family="FreeSans" font-size="10.00" fill="#000000">::getResidual</text>
</a>
</g>
</g>
<!-- Node1&#45;&gt;Node5 -->
<g id="edge4" class="edge">
<title>Node1&#45;&gt;Node5</title>
<path fill="none" stroke="#191970" d="M126.5426,-106.5C135.9689,-106.5 145.5704,-106.5 154.7759,-106.5"/>
<polygon fill="#191970" stroke="#191970" points="126.4099,-103.0001 116.4098,-106.5 126.4098,-110.0001 126.4099,-103.0001"/>
</g>
<!-- Node6 -->
<g id="node6" class="node">
<title>Node6</title>
<g id="a_node6"><a xlink:href="../../d3/d5c/classgenfit_1_1GblFitterInfo.html#a3fe3a2be31384f51f8d11c82439d4cda" target="_top" xlink:title="genfit::GblFitterInfo\l::Print">
<polygon fill="none" stroke="#000000" points="313.5,-70.5 313.5,-102.5 428.5,-102.5 428.5,-70.5 313.5,-70.5"/>
<text text-anchor="start" x="321.5" y="-89.5" font-family="FreeSans" font-size="10.00" fill="#000000">genfit::GblFitterInfo</text>
<text text-anchor="middle" x="371" y="-77.5" font-family="FreeSans" font-size="10.00" fill="#000000">::Print</text>
</a>
</g>
</g>
<!-- Node1&#45;&gt;Node6 -->
<g id="edge7" class="edge">
<title>Node1&#45;&gt;Node6</title>
<path fill="none" stroke="#191970" d="M118.6821,-87.9019C129.6718,-85.24 141.1031,-82.9243 152,-81.5 206.3024,-74.4023 268.8075,-76.8715 313.1058,-80.3907"/>
<polygon fill="#191970" stroke="#191970" points="117.5714,-84.5729 108.7416,-90.4282 119.2956,-91.3572 117.5714,-84.5729"/>
</g>
<!-- Node7 -->
<g id="node7" class="node">
<title>Node7</title>
<g id="a_node7"><a xlink:href="../../d3/d5c/classgenfit_1_1GblFitterInfo.html#a6a5ecb1dd2d2c36cec4582037cc226e0" target="_top" xlink:title="Re&#45;extrapolates between prevFitterInfo and this point using forward state to update the Jacobian (if ...">
<polygon fill="none" stroke="#000000" points="152,-.5 152,-32.5 273,-32.5 273,-.5 152,-.5"/>
<text text-anchor="start" x="160" y="-19.5" font-family="FreeSans" font-size="10.00" fill="#000000">genfit::GblFitterInfo</text>
<text text-anchor="middle" x="212.5" y="-7.5" font-family="FreeSans" font-size="10.00" fill="#000000">::recalculateJacobian</text>
</a>
</g>
</g>
<!-- Node1&#45;&gt;Node7 -->
<g id="edge8" class="edge">
<title>Node1&#45;&gt;Node7</title>
<path fill="none" stroke="#191970" d="M91.2336,-84.6529C109.0308,-73.2061 131.461,-59.1785 152,-47.5 160.9258,-42.4248 170.7722,-37.2188 179.8826,-32.5571"/>
<polygon fill="#191970" stroke="#191970" points="88.8793,-82.0073 82.3837,-90.3774 92.6812,-87.8849 88.8793,-82.0073"/>
</g>
<!-- Node3 -->
<g id="node3" class="node">
<title>Node3</title>
<g id="a_node3"><a xlink:href="../../d1/dc8/classgenfit_1_1GblFitter.html#aca889cc191ff16e91cf281bde21f4eb6" target="_top" xlink:title="Constructs all GBL points and returns them in vector for trajectory construction.">
<polygon fill="none" stroke="#000000" points="469,-153.5 469,-185.5 570,-185.5 570,-153.5 469,-153.5"/>
<text text-anchor="start" x="477" y="-172.5" font-family="FreeSans" font-size="10.00" fill="#000000">genfit::GblFitter::</text>
<text text-anchor="middle" x="519.5" y="-160.5" font-family="FreeSans" font-size="10.00" fill="#000000">collectGblPoints</text>
</a>
</g>
</g>
<!-- Node2&#45;&gt;Node3 -->
<g id="edge2" class="edge">
<title>Node2&#45;&gt;Node3</title>
<path fill="none" stroke="#191970" d="M438.8425,-169.5C448.9266,-169.5 459.1695,-169.5 468.8198,-169.5"/>
<polygon fill="#191970" stroke="#191970" points="438.8392,-166.0001 428.8392,-169.5 438.8392,-173.0001 438.8392,-166.0001"/>
</g>
<!-- Node5&#45;&gt;Node2 -->
<g id="edge5" class="edge">
<title>Node5&#45;&gt;Node2</title>
<path fill="none" stroke="#191970" d="M262.4123,-126.339C284.4044,-135.0803 309.906,-145.2166 330.6674,-153.4688"/>
<polygon fill="#191970" stroke="#191970" points="263.492,-123.0018 252.9063,-122.5606 260.9064,-129.5068 263.492,-123.0018"/>
</g>
<!-- Node5&#45;&gt;Node6 -->
<g id="edge6" class="edge">
<title>Node5&#45;&gt;Node6</title>
<path fill="none" stroke="#191970" d="M280.2027,-97.9571C291.2479,-96.5634 302.5988,-95.1311 313.3724,-93.7716"/>
<polygon fill="#191970" stroke="#191970" points="279.6536,-94.4985 270.1705,-99.223 280.53,-101.4434 279.6536,-94.4985"/>
</g>
<!-- Node8 -->
<g id="node8" class="node">
<title>Node8</title>
<g id="a_node8"><a xlink:href="../../d1/dc8/classgenfit_1_1GblFitter.html#a4be6bdc46ad9f13aef275aea2b01f438" target="_top" xlink:title="genfit::GblFitter::\lprocessTrackWithRep">
<polygon fill="none" stroke="#000000" points="309,-.5 309,-32.5 433,-32.5 433,-.5 309,-.5"/>
<text text-anchor="start" x="317" y="-19.5" font-family="FreeSans" font-size="10.00" fill="#000000">genfit::GblFitter::</text>
<text text-anchor="middle" x="371" y="-7.5" font-family="FreeSans" font-size="10.00" fill="#000000">processTrackWithRep</text>
</a>
</g>
</g>
<!-- Node7&#45;&gt;Node8 -->
<g id="edge9" class="edge">
<title>Node7&#45;&gt;Node8</title>
<path fill="none" stroke="#191970" d="M283.5099,-16.5C291.9304,-16.5 300.4763,-16.5 308.7618,-16.5"/>
<polygon fill="#191970" stroke="#191970" points="283.327,-13.0001 273.3269,-16.5 283.3269,-20.0001 283.327,-13.0001"/>
</g>
</g>
</svg>
