<?xml version="1.0" encoding="UTF-8" standalone="no"?>
<!DOCTYPE svg PUBLIC "-//W3C//DTD SVG 1.1//EN"
 "http://www.w3.org/Graphics/SVG/1.1/DTD/svg11.dtd">
<!-- Generated by graphviz version 2.40.1 (20161225.0304)
 -->
<!-- Title: genfit::GblFitterInfo::GblFitterInfo Pages: 1 -->
<svg width="765pt" height="347pt"
 viewBox="0.00 0.00 765.00 347.00" xmlns="http://www.w3.org/2000/svg" xmlns:xlink="http://www.w3.org/1999/xlink">
<g id="graph0" class="graph" transform="scale(1 1) rotate(0) translate(4 343)">
<title>genfit::GblFitterInfo::GblFitterInfo</title>
<!-- Node1 -->
<g id="node1" class="node">
<title>Node1</title>
<polygon fill="#bfbfbf" stroke="#000000" points="0,-229.5 0,-261.5 115,-261.5 115,-229.5 0,-229.5"/>
<text text-anchor="start" x="8" y="-248.5" font-family="FreeSans" font-size="10.00" fill="#000000">genfit::GblFitterInfo</text>
<text text-anchor="middle" x="57.5" y="-236.5" font-family="FreeSans" font-size="10.00" fill="#000000">::GblFitterInfo</text>
</g>
<!-- Node2 -->
<g id="node2" class="node">
<title>Node2</title>
<g id="a_node2"><a xlink:href="../../d1/d25/classgenfit_1_1AbsTrackRep.html#ab73b2438fc8bc96ea96449b799c8f583" target="_top" xlink:title="Get the dimension of the state vector used by the track representation.">
<polygon fill="none" stroke="#000000" points="178,-306.5 178,-338.5 295,-338.5 295,-306.5 178,-306.5"/>
<text text-anchor="start" x="186" y="-325.5" font-family="FreeSans" font-size="10.00" fill="#000000">genfit::AbsTrackRep</text>
<text text-anchor="middle" x="236.5" y="-313.5" font-family="FreeSans" font-size="10.00" fill="#000000">::getDim</text>
</a>
</g>
</g>
<!-- Node1&#45;&gt;Node2 -->
<g id="edge1" class="edge">
<title>Node1&#45;&gt;Node2</title>
<path fill="none" stroke="#191970" d="M82.9172,-261.6759C101.2946,-272.8579 127.0087,-287.4693 151,-297.5 156.4844,-299.793 162.2494,-301.9611 168.0871,-303.99"/>
<polygon fill="#191970" stroke="#191970" points="167.3498,-307.4333 177.9434,-307.2706 169.5605,-300.7915 167.3498,-307.4333"/>
</g>
<!-- Node3 -->
<g id="node3" class="node">
<title>Node3</title>
<g id="a_node3"><a xlink:href="../../d1/d25/classgenfit_1_1AbsTrackRep.html#aaabf5d464819db19f5542ac201708772" target="_top" xlink:title="Get the jacobian and noise matrix of the last extrapolation.">
<polygon fill="none" stroke="#000000" points="151,-255.5 151,-287.5 322,-287.5 322,-255.5 151,-255.5"/>
<text text-anchor="start" x="159" y="-274.5" font-family="FreeSans" font-size="10.00" fill="#000000">genfit::AbsTrackRep</text>
<text text-anchor="middle" x="236.5" y="-262.5" font-family="FreeSans" font-size="10.00" fill="#000000">::getForwardJacobianAndNoise</text>
</a>
</g>
</g>
<!-- Node1&#45;&gt;Node3 -->
<g id="edge2" class="edge">
<title>Node1&#45;&gt;Node3</title>
<path fill="none" stroke="#191970" d="M115.122,-253.8697C123.4387,-255.0777 132.1778,-256.3471 140.995,-257.6278"/>
<polygon fill="#191970" stroke="#191970" points="140.5654,-261.102 150.9647,-259.0759 141.5717,-254.1747 140.5654,-261.102"/>
</g>
<!-- Node4 -->
<g id="node4" class="node">
<title>Node4</title>
<g id="a_node4"><a xlink:href="../../d3/d5c/classgenfit_1_1GblFitterInfo.html#a80dd649bc2ad13bf0da08f26df9f0f28" target="_top" xlink:title="(Initial) reset of fitter info">
<polygon fill="none" stroke="#000000" points="179,-204.5 179,-236.5 294,-236.5 294,-204.5 179,-204.5"/>
<text text-anchor="start" x="187" y="-223.5" font-family="FreeSans" font-size="10.00" fill="#000000">genfit::GblFitterInfo</text>
<text text-anchor="middle" x="236.5" y="-211.5" font-family="FreeSans" font-size="10.00" fill="#000000">::reset</text>
</a>
</g>
</g>
<!-- Node1&#45;&gt;Node4 -->
<g id="edge3" class="edge">
<title>Node1&#45;&gt;Node4</title>
<path fill="none" stroke="#191970" d="M115.122,-237.4522C132.2089,-235.0658 151.0789,-232.4303 168.7457,-229.9629"/>
<polygon fill="#191970" stroke="#191970" points="169.5662,-233.3824 178.9859,-228.5327 168.5979,-226.4496 169.5662,-233.3824"/>
</g>
<!-- Node6 -->
<g id="node6" class="node">
<title>Node6</title>
<g id="a_node6"><a xlink:href="../../d3/d5c/classgenfit_1_1GblFitterInfo.html#ace7d8c155c827ea69739eb6d81fd13be" target="_top" xlink:title="Set the prediction and plane (from measurement if any) You should use the user constructor instead...">
<polygon fill="none" stroke="#000000" points="178.5,-115.5 178.5,-147.5 294.5,-147.5 294.5,-115.5 178.5,-115.5"/>
<text text-anchor="start" x="186.5" y="-134.5" font-family="FreeSans" font-size="10.00" fill="#000000">genfit::GblFitterInfo</text>
<text text-anchor="middle" x="236.5" y="-122.5" font-family="FreeSans" font-size="10.00" fill="#000000">::setReferenceState</text>
</a>
</g>
</g>
<!-- Node1&#45;&gt;Node6 -->
<g id="edge5" class="edge">
<title>Node1&#45;&gt;Node6</title>
<path fill="none" stroke="#191970" d="M82.7667,-229.4084C114.2164,-209.3789 168.0313,-175.1058 202.9237,-152.8838"/>
<polygon fill="#191970" stroke="#191970" points="204.8073,-155.8338 211.3619,-147.5098 201.047,-149.9295 204.8073,-155.8338"/>
</g>
<!-- Node5 -->
<g id="node5" class="node">
<title>Node5</title>
<g id="a_node5"><a xlink:href="../../de/d77/classgenfit_1_1HMatrixUV.html#ade2490dc36a0abc78fab7553ca231cff" target="_top" xlink:title="Get the actual matrix representation.">
<polygon fill="none" stroke="#000000" points="390.5,-243.5 390.5,-275.5 501.5,-275.5 501.5,-243.5 390.5,-243.5"/>
<text text-anchor="start" x="398.5" y="-262.5" font-family="FreeSans" font-size="10.00" fill="#000000">genfit::HMatrixUV::</text>
<text text-anchor="middle" x="446" y="-250.5" font-family="FreeSans" font-size="10.00" fill="#000000">getMatrix</text>
</a>
</g>
</g>
<!-- Node4&#45;&gt;Node5 -->
<g id="edge4" class="edge">
<title>Node4&#45;&gt;Node5</title>
<path fill="none" stroke="#191970" d="M294.0239,-231.2085C320.7792,-236.1892 352.7335,-242.1377 380.4218,-247.2921"/>
<polygon fill="#191970" stroke="#191970" points="379.9405,-250.7626 390.4122,-249.1519 381.2216,-243.8808 379.9405,-250.7626"/>
</g>
<!-- Node7 -->
<g id="node7" class="node">
<title>Node7</title>
<g id="a_node7"><a xlink:href="../../d3/d5c/classgenfit_1_1GblFitterInfo.html#a80fd6a7510eb55797dc0f57a8740b74f" target="_top" xlink:title="SHOULD BE USED ONLY INTERNALY! Update the plane from measurement constructed with state or take plane...">
<polygon fill="none" stroke="#000000" points="358,-192.5 358,-224.5 534,-224.5 534,-192.5 358,-192.5"/>
<text text-anchor="start" x="366" y="-211.5" font-family="FreeSans" font-size="10.00" fill="#000000">genfit::GblFitterInfo</text>
<text text-anchor="middle" x="446" y="-199.5" font-family="FreeSans" font-size="10.00" fill="#000000">::updateMeasurementAndPlane</text>
</a>
</g>
</g>
<!-- Node6&#45;&gt;Node7 -->
<g id="edge6" class="edge">
<title>Node6&#45;&gt;Node7</title>
<path fill="none" stroke="#191970" d="M270.8616,-147.599C294.9417,-158.5351 328.0474,-172.8846 358,-183.5 363.7962,-185.5542 369.8521,-187.5589 375.9566,-189.4821"/>
<polygon fill="#191970" stroke="#191970" points="374.972,-192.841 385.5589,-192.4326 377.028,-186.1498 374.972,-192.841"/>
</g>
<!-- Node13 -->
<g id="node13" class="node">
<title>Node13</title>
<g id="a_node13"><a xlink:href="../../de/dd5/classgenfit_1_1StateOnPlane.html#a61a05215bec767cf6919b083808a37d2" target="_top" xlink:title="genfit::StateOnPlane\l::getState">
<polygon fill="none" stroke="#000000" points="385.5,-141.5 385.5,-173.5 506.5,-173.5 506.5,-141.5 385.5,-141.5"/>
<text text-anchor="start" x="393.5" y="-160.5" font-family="FreeSans" font-size="10.00" fill="#000000">genfit::StateOnPlane</text>
<text text-anchor="middle" x="446" y="-148.5" font-family="FreeSans" font-size="10.00" fill="#000000">::getState</text>
</a>
</g>
</g>
<!-- Node6&#45;&gt;Node13 -->
<g id="edge12" class="edge">
<title>Node6&#45;&gt;Node13</title>
<path fill="none" stroke="#191970" d="M294.5792,-138.7079C319.4878,-141.7992 348.822,-145.4397 375.0056,-148.6892"/>
<polygon fill="#191970" stroke="#191970" points="374.8935,-152.2021 385.2484,-149.9604 375.7556,-145.2554 374.8935,-152.2021"/>
</g>
<!-- Node14 -->
<g id="node14" class="node">
<title>Node14</title>
<g id="a_node14"><a xlink:href="../../db/d40/classgenfit_1_1TrackPoint.html#a2540c1979de60b5456130b1e648c783d" target="_top" xlink:title="genfit::TrackPoint\l::getTrack">
<polygon fill="none" stroke="#000000" points="394,-90.5 394,-122.5 498,-122.5 498,-90.5 394,-90.5"/>
<text text-anchor="start" x="402" y="-109.5" font-family="FreeSans" font-size="10.00" fill="#000000">genfit::TrackPoint</text>
<text text-anchor="middle" x="446" y="-97.5" font-family="FreeSans" font-size="10.00" fill="#000000">::getTrack</text>
</a>
</g>
</g>
<!-- Node6&#45;&gt;Node14 -->
<g id="edge13" class="edge">
<title>Node6&#45;&gt;Node14</title>
<path fill="none" stroke="#191970" d="M294.5792,-124.5693C322.2966,-121.2617 355.4941,-117.3002 383.7323,-113.9305"/>
<polygon fill="#191970" stroke="#191970" points="384.3774,-117.3785 393.8922,-112.7181 383.5479,-110.4278 384.3774,-117.3785"/>
</g>
<!-- Node15 -->
<g id="node15" class="node">
<title>Node15</title>
<g id="a_node15"><a xlink:href="../../d6/d8a/classgenfit_1_1Track.html#a80d4da704486d458d1fbb9ec0c497f21" target="_top" xlink:title="genfit::Track::getCovSeed">
<polygon fill="none" stroke="#000000" points="373,-51.5 373,-71.5 519,-71.5 519,-51.5 373,-51.5"/>
<text text-anchor="middle" x="446" y="-58.5" font-family="FreeSans" font-size="10.00" fill="#000000">genfit::Track::getCovSeed</text>
</a>
</g>
</g>
<!-- Node6&#45;&gt;Node15 -->
<g id="edge14" class="edge">
<title>Node6&#45;&gt;Node15</title>
<path fill="none" stroke="#191970" d="M270.1731,-115.3818C294.2168,-104.3671 327.5602,-90.0842 358,-80.5 365.6312,-78.0973 373.7289,-75.8958 381.8016,-73.9111"/>
<polygon fill="#191970" stroke="#191970" points="382.6737,-77.3015 391.6029,-71.5988 381.0664,-70.4885 382.6737,-77.3015"/>
</g>
<!-- Node16 -->
<g id="node16" class="node">
<title>Node16</title>
<g id="a_node16"><a xlink:href="../../de/dd5/classgenfit_1_1StateOnPlane.html#a2801bf4fa1196147472cc1807281e23d" target="_top" xlink:title="genfit::StateOnPlane\l::getAuxInfo">
<polygon fill="none" stroke="#000000" points="385.5,-.5 385.5,-32.5 506.5,-32.5 506.5,-.5 385.5,-.5"/>
<text text-anchor="start" x="393.5" y="-19.5" font-family="FreeSans" font-size="10.00" fill="#000000">genfit::StateOnPlane</text>
<text text-anchor="middle" x="446" y="-7.5" font-family="FreeSans" font-size="10.00" fill="#000000">::getAuxInfo</text>
</a>
</g>
</g>
<!-- Node6&#45;&gt;Node16 -->
<g id="edge15" class="edge">
<title>Node6&#45;&gt;Node16</title>
<path fill="none" stroke="#191970" d="M254.0736,-115.2266C276.5657,-95.2066 317.486,-61.4302 358,-41.5 363.6114,-38.7395 369.5785,-36.2368 375.6591,-33.9779"/>
<polygon fill="#191970" stroke="#191970" points="376.9822,-37.2233 385.2729,-30.6267 374.6781,-30.6133 376.9822,-37.2233"/>
</g>
<!-- Node8 -->
<g id="node8" class="node">
<title>Node8</title>
<g id="a_node8"><a xlink:href="../../db/d40/classgenfit_1_1TrackPoint.html#ada7b4d8c988a1798e455fb70929f88b7" target="_top" xlink:title="genfit::TrackPoint\l::hasRawMeasurements">
<polygon fill="none" stroke="#000000" points="595,-294.5 595,-326.5 732,-326.5 732,-294.5 595,-294.5"/>
<text text-anchor="start" x="603" y="-313.5" font-family="FreeSans" font-size="10.00" fill="#000000">genfit::TrackPoint</text>
<text text-anchor="middle" x="663.5" y="-301.5" font-family="FreeSans" font-size="10.00" fill="#000000">::hasRawMeasurements</text>
</a>
</g>
</g>
<!-- Node7&#45;&gt;Node8 -->
<g id="edge7" class="edge">
<title>Node7&#45;&gt;Node8</title>
<path fill="none" stroke="#191970" d="M516.7166,-224.6633C522.8246,-227.4433 528.6906,-230.6959 534,-234.5 556.5534,-250.6593 547.2383,-269.6354 570,-285.5 574.7687,-288.8237 579.956,-291.7057 585.3616,-294.2046"/>
<polygon fill="#191970" stroke="#191970" points="584.0524,-297.4507 594.6297,-298.0588 586.7402,-290.9873 584.0524,-297.4507"/>
</g>
<!-- Node9 -->
<g id="node9" class="node">
<title>Node9</title>
<g id="a_node9"><a xlink:href="../../d9/d8c/classgenfit_1_1AbsFitterInfo.html#af02a4a29abfa1c31c8208baf757a21c5" target="_top" xlink:title="genfit::AbsFitterInfo\l::setPlane">
<polygon fill="none" stroke="#000000" points="605.5,-243.5 605.5,-275.5 721.5,-275.5 721.5,-243.5 605.5,-243.5"/>
<text text-anchor="start" x="613.5" y="-262.5" font-family="FreeSans" font-size="10.00" fill="#000000">genfit::AbsFitterInfo</text>
<text text-anchor="middle" x="663.5" y="-250.5" font-family="FreeSans" font-size="10.00" fill="#000000">::setPlane</text>
</a>
</g>
</g>
<!-- Node7&#45;&gt;Node9 -->
<g id="edge8" class="edge">
<title>Node7&#45;&gt;Node9</title>
<path fill="none" stroke="#191970" d="M514.5198,-224.5667C540.2426,-230.5983 569.4611,-237.4495 595.1669,-243.4771"/>
<polygon fill="#191970" stroke="#191970" points="594.6667,-246.9546 605.2017,-245.8301 596.2648,-240.1395 594.6667,-246.9546"/>
</g>
<!-- Node10 -->
<g id="node10" class="node">
<title>Node10</title>
<g id="a_node10"><a xlink:href="../../de/dd5/classgenfit_1_1StateOnPlane.html#a30c7e8d87fa50205baa927d4ceccb594" target="_top" xlink:title="genfit::StateOnPlane\l::getPlane">
<polygon fill="none" stroke="#000000" points="603,-192.5 603,-224.5 724,-224.5 724,-192.5 603,-192.5"/>
<text text-anchor="start" x="611" y="-211.5" font-family="FreeSans" font-size="10.00" fill="#000000">genfit::StateOnPlane</text>
<text text-anchor="middle" x="663.5" y="-199.5" font-family="FreeSans" font-size="10.00" fill="#000000">::getPlane</text>
</a>
</g>
</g>
<!-- Node7&#45;&gt;Node10 -->
<g id="edge9" class="edge">
<title>Node7&#45;&gt;Node10</title>
<path fill="none" stroke="#191970" d="M534.152,-208.5C553.6257,-208.5 574.0141,-208.5 592.6946,-208.5"/>
<polygon fill="#191970" stroke="#191970" points="592.8803,-212.0001 602.8803,-208.5 592.8802,-205.0001 592.8803,-212.0001"/>
</g>
<!-- Node11 -->
<g id="node11" class="node">
<title>Node11</title>
<g id="a_node11"><a xlink:href="../../db/d40/classgenfit_1_1TrackPoint.html#a2999fc0669beb86b6309f86e040bcdef" target="_top" xlink:title="genfit::TrackPoint\l::getRawMeasurement">
<polygon fill="none" stroke="#000000" points="598.5,-141.5 598.5,-173.5 728.5,-173.5 728.5,-141.5 598.5,-141.5"/>
<text text-anchor="start" x="606.5" y="-160.5" font-family="FreeSans" font-size="10.00" fill="#000000">genfit::TrackPoint</text>
<text text-anchor="middle" x="663.5" y="-148.5" font-family="FreeSans" font-size="10.00" fill="#000000">::getRawMeasurement</text>
</a>
</g>
</g>
<!-- Node7&#45;&gt;Node11 -->
<g id="edge10" class="edge">
<title>Node7&#45;&gt;Node11</title>
<path fill="none" stroke="#191970" d="M514.5198,-192.4333C538.0495,-186.916 564.504,-180.7128 588.5195,-175.0816"/>
<polygon fill="#191970" stroke="#191970" points="589.356,-178.4805 598.2929,-172.7899 587.7579,-171.6653 589.356,-178.4805"/>
</g>
<!-- Node12 -->
<g id="node12" class="node">
<title>Node12</title>
<g id="a_node12"><a xlink:href="../../d5/d1f/classgenfit_1_1AbsMeasurement.html#a88f7a366bee3fdc9ad109b71690665f9" target="_top" xlink:title="genfit::AbsMeasurement\l::constructMeasurementsOnPlane">
<polygon fill="none" stroke="#000000" points="570,-90.5 570,-122.5 757,-122.5 757,-90.5 570,-90.5"/>
<text text-anchor="start" x="578" y="-109.5" font-family="FreeSans" font-size="10.00" fill="#000000">genfit::AbsMeasurement</text>
<text text-anchor="middle" x="663.5" y="-97.5" font-family="FreeSans" font-size="10.00" fill="#000000">::constructMeasurementsOnPlane</text>
</a>
</g>
</g>
<!-- Node7&#45;&gt;Node12 -->
<g id="edge11" class="edge">
<title>Node7&#45;&gt;Node12</title>
<path fill="none" stroke="#191970" d="M518.4898,-192.3749C523.9582,-189.8352 529.2052,-186.8975 534,-183.5 556.6378,-167.4592 547.3176,-148.4777 570,-132.5 572.8409,-130.4988 575.831,-128.6513 578.9278,-126.9457"/>
<polygon fill="#191970" stroke="#191970" points="580.4916,-130.077 587.9021,-122.5051 577.3871,-123.8031 580.4916,-130.077"/>
</g>
</g>
</svg>
