<?xml version="1.0" encoding="UTF-8" standalone="no"?>
<!DOCTYPE svg PUBLIC "-//W3C//DTD SVG 1.1//EN"
 "http://www.w3.org/Graphics/SVG/1.1/DTD/svg11.dtd">
<!-- Generated by graphviz version 2.40.1 (20161225.0304)
 -->
<!-- Title: macros/blob/master/macros/g4simulations/G4_Svtx_maps_ladders+intt_ladders+tpc_KalmanPatRec_EIC.C Pages: 1 -->
<svg width="1789pt" height="431pt"
 viewBox="0.00 0.00 1788.83 431.00" xmlns="http://www.w3.org/2000/svg" xmlns:xlink="http://www.w3.org/1999/xlink">
<g id="graph0" class="graph" transform="scale(1 1) rotate(0) translate(4 427)">
<title>macros/blob/master/macros/g4simulations/G4_Svtx_maps_ladders+intt_ladders+tpc_KalmanPatRec_EIC.C</title>
<!-- Node1 -->
<g id="node1" class="node">
<title>Node1</title>
<polygon fill="#bfbfbf" stroke="#000000" points="968.8302,-366.5 968.8302,-422.5 1185.8302,-422.5 1185.8302,-366.5 968.8302,-366.5"/>
<text text-anchor="start" x="976.8302" y="-409.5" font-family="FreeSans" font-size="10.00" fill="#000000">macros/blob/master</text>
<text text-anchor="start" x="976.8302" y="-397.5" font-family="FreeSans" font-size="10.00" fill="#000000">/macros/g4simulations</text>
<text text-anchor="start" x="976.8302" y="-385.5" font-family="FreeSans" font-size="10.00" fill="#000000">/G4_Svtx_maps_ladders</text>
<text text-anchor="middle" x="1077.3302" y="-373.5" font-family="FreeSans" font-size="10.00" fill="#000000">+intt_ladders+tpc_KalmanPatRec_EIC.C</text>
</g>
<!-- Node2 -->
<g id="node2" class="node">
<title>Node2</title>
<g id="a_node2"><a xlink:href="../../dc/dfe/GlobalVariables_8C.html" target="_top" xlink:title="GlobalVariables.C">
<polygon fill="none" stroke="#000000" points="366.8302,-303.5 366.8302,-323.5 471.8302,-323.5 471.8302,-303.5 366.8302,-303.5"/>
<text text-anchor="middle" x="419.3302" y="-310.5" font-family="FreeSans" font-size="10.00" fill="#000000">GlobalVariables.C</text>
</a>
</g>
</g>
<!-- Node1&#45;&gt;Node2 -->
<g id="edge1" class="edge">
<title>Node1&#45;&gt;Node2</title>
<path fill="none" stroke="#191970" d="M968.6042,-386.9843C849.5746,-377.7466 653.3935,-359.5529 486.3302,-330 479.7519,-328.8363 472.8603,-327.3967 466.104,-325.8565"/>
<polygon fill="#191970" stroke="#191970" points="466.8917,-322.4463 456.3544,-323.5485 465.2791,-329.258 466.8917,-322.4463"/>
</g>
<!-- Node3 -->
<g id="node3" class="node">
<title>Node3</title>
<g id="a_node3"><a xlink:href="../../dc/da2/Fun4AllServer_8h.html" target="_top" xlink:title="fun4all/Fun4AllServer.h">
<polygon fill="none" stroke="#000000" points="376.8302,-234.5 376.8302,-254.5 509.8302,-254.5 509.8302,-234.5 376.8302,-234.5"/>
<text text-anchor="middle" x="443.3302" y="-241.5" font-family="FreeSans" font-size="10.00" fill="#000000">fun4all/Fun4AllServer.h</text>
</a>
</g>
</g>
<!-- Node1&#45;&gt;Node3 -->
<g id="edge2" class="edge">
<title>Node1&#45;&gt;Node3</title>
<path fill="none" stroke="#191970" d="M968.6928,-390.5743C830.2733,-384.0823 599.8995,-367.843 524.3302,-330 493.8891,-314.7559 468.7815,-283.1739 454.9466,-262.9544"/>
<polygon fill="#191970" stroke="#191970" points="457.8363,-260.9787 449.4046,-254.5634 451.9953,-264.8366 457.8363,-260.9787"/>
</g>
<!-- Node15 -->
<g id="node15" class="node">
<title>Node15</title>
<polygon fill="none" stroke="#bfbfbf" points="520.8302,-171.5 520.8302,-191.5 569.8302,-191.5 569.8302,-171.5 520.8302,-171.5"/>
<text text-anchor="middle" x="545.3302" y="-178.5" font-family="FreeSans" font-size="10.00" fill="#000000">vector</text>
</g>
<!-- Node1&#45;&gt;Node15 -->
<g id="edge57" class="edge">
<title>Node1&#45;&gt;Node15</title>
<path fill="none" stroke="#191970" d="M968.5461,-384.1394C892.1713,-374.883 788.3631,-358.285 700.3302,-330 633.5264,-308.5359 600.2498,-317.269 558.3302,-261 545.6505,-243.98 543.4355,-219.2014 543.7341,-201.844"/>
<polygon fill="#191970" stroke="#191970" points="547.239,-201.8177 544.2085,-191.6655 540.2466,-201.4917 547.239,-201.8177"/>
</g>
<!-- Node16 -->
<g id="node16" class="node">
<title>Node16</title>
<g id="a_node16"><a xlink:href="../../dc/dc6/PHG4CylinderSubsystem_8h.html" target="_top" xlink:title="g4detectors/PHG4Cylinder\lSubsystem.h">
<polygon fill="none" stroke="#000000" points="708.8302,-297.5 708.8302,-329.5 859.8302,-329.5 859.8302,-297.5 708.8302,-297.5"/>
<text text-anchor="start" x="716.8302" y="-316.5" font-family="FreeSans" font-size="10.00" fill="#000000">g4detectors/PHG4Cylinder</text>
<text text-anchor="middle" x="784.3302" y="-304.5" font-family="FreeSans" font-size="10.00" fill="#000000">Subsystem.h</text>
</a>
</g>
</g>
<!-- Node1&#45;&gt;Node16 -->
<g id="edge21" class="edge">
<title>Node1&#45;&gt;Node16</title>
<path fill="none" stroke="#191970" d="M975.6753,-366.3975C934.8837,-355.1206 888.9586,-342.4246 852.3267,-332.2977"/>
<polygon fill="#191970" stroke="#191970" points="852.8242,-328.804 842.2531,-329.5128 850.959,-335.5509 852.8242,-328.804"/>
</g>
<!-- Node22 -->
<g id="node22" class="node">
<title>Node22</title>
<g id="a_node22"><a xlink:href="../../d6/dff/SvtxEvaluator_8h.html" target="_top" xlink:title="Compares reconstructed tracks to truth particles.">
<polygon fill="none" stroke="#000000" points="1024.8302,-171.5 1024.8302,-191.5 1157.8302,-191.5 1157.8302,-171.5 1024.8302,-171.5"/>
<text text-anchor="middle" x="1091.3302" y="-178.5" font-family="FreeSans" font-size="10.00" fill="#000000">g4eval/SvtxEvaluator.h</text>
</a>
</g>
</g>
<!-- Node1&#45;&gt;Node22 -->
<g id="edge34" class="edge">
<title>Node1&#45;&gt;Node22</title>
<path fill="none" stroke="#191970" d="M1079.1893,-366.2152C1082.0473,-322.7318 1087.4537,-240.4783 1089.9736,-202.139"/>
<polygon fill="#191970" stroke="#191970" points="1093.4935,-201.9501 1090.657,-191.742 1086.5086,-201.4909 1093.4935,-201.9501"/>
</g>
<!-- Node23 -->
<g id="node23" class="node">
<title>Node23</title>
<g id="a_node23"><a xlink:href="../../d0/d2b/PHG4Reco_8h.html" target="_top" xlink:title="g4main/PHG4Reco.h">
<polygon fill="none" stroke="#000000" points="1175.8302,-171.5 1175.8302,-191.5 1294.8302,-191.5 1294.8302,-171.5 1175.8302,-171.5"/>
<text text-anchor="middle" x="1235.3302" y="-178.5" font-family="FreeSans" font-size="10.00" fill="#000000">g4main/PHG4Reco.h</text>
</a>
</g>
</g>
<!-- Node1&#45;&gt;Node23 -->
<g id="edge37" class="edge">
<title>Node1&#45;&gt;Node23</title>
<path fill="none" stroke="#191970" d="M1092.3247,-366.3581C1103.3607,-346.4229 1119.1941,-319.3596 1135.3302,-297 1162.0099,-260.0302 1197.9458,-220.6347 1218.6794,-198.7385"/>
<polygon fill="#191970" stroke="#191970" points="1221.2146,-201.1516 1225.585,-191.5002 1216.1497,-196.3197 1221.2146,-201.1516"/>
</g>
<!-- Node27 -->
<g id="node27" class="node">
<title>Node27</title>
<g id="a_node27"><a xlink:href="../../df/d94/PHG4MvtxDefs_8h.html" target="_top" xlink:title="g4mvtx/PHG4MvtxDefs.h">
<polygon fill="none" stroke="#000000" points="1143.8302,-303.5 1143.8302,-323.5 1286.8302,-323.5 1286.8302,-303.5 1143.8302,-303.5"/>
<text text-anchor="middle" x="1215.3302" y="-310.5" font-family="FreeSans" font-size="10.00" fill="#000000">g4mvtx/PHG4MvtxDefs.h</text>
</a>
</g>
</g>
<!-- Node1&#45;&gt;Node27 -->
<g id="edge43" class="edge">
<title>Node1&#45;&gt;Node27</title>
<path fill="none" stroke="#191970" d="M1125.2086,-366.3975C1146.6871,-353.7905 1171.1874,-339.4099 1189.2157,-328.8281"/>
<polygon fill="#191970" stroke="#191970" points="1191.1506,-331.7508 1198.003,-323.6703 1187.6071,-325.7139 1191.1506,-331.7508"/>
</g>
<!-- Node28 -->
<g id="node28" class="node">
<title>Node28</title>
<g id="a_node28"><a xlink:href="../../d1/d19/PHG4MvtxSubsystem_8h.html" target="_top" xlink:title="g4mvtx/PHG4MvtxSubsystem.h">
<polygon fill="none" stroke="#000000" points="1327.3302,-303.5 1327.3302,-323.5 1503.3302,-323.5 1503.3302,-303.5 1327.3302,-303.5"/>
<text text-anchor="middle" x="1415.3302" y="-310.5" font-family="FreeSans" font-size="10.00" fill="#000000">g4mvtx/PHG4MvtxSubsystem.h</text>
</a>
</g>
</g>
<!-- Node1&#45;&gt;Node28 -->
<g id="edge44" class="edge">
<title>Node1&#45;&gt;Node28</title>
<path fill="none" stroke="#191970" d="M1186.136,-368.4252C1245.6473,-354.1637 1316.6136,-337.1569 1363.6484,-325.8853"/>
<polygon fill="#191970" stroke="#191970" points="1364.6925,-329.2343 1373.6014,-323.5001 1363.0611,-322.427 1364.6925,-329.2343"/>
</g>
<!-- Node32 -->
<g id="node32" class="node">
<title>Node32</title>
<g id="a_node32"><a xlink:href="../../d4/d86/PHG4TpcSpaceChargeDistortion_8h.html" target="_top" xlink:title="g4tpc/PHG4TpcSpaceCharge\lDistortion.h">
<polygon fill="none" stroke="#000000" points="1550.3302,-297.5 1550.3302,-329.5 1712.3302,-329.5 1712.3302,-297.5 1550.3302,-297.5"/>
<text text-anchor="start" x="1558.3302" y="-316.5" font-family="FreeSans" font-size="10.00" fill="#000000">g4tpc/PHG4TpcSpaceCharge</text>
<text text-anchor="middle" x="1631.3302" y="-304.5" font-family="FreeSans" font-size="10.00" fill="#000000">Distortion.h</text>
</a>
</g>
</g>
<!-- Node1&#45;&gt;Node32 -->
<g id="edge53" class="edge">
<title>Node1&#45;&gt;Node32</title>
<path fill="none" stroke="#191970" d="M1186.1217,-378.5937C1289.4471,-363.4865 1443.0267,-341.0317 1540.1148,-326.8365"/>
<polygon fill="#191970" stroke="#191970" points="1540.817,-330.2712 1550.2055,-325.3612 1539.8043,-323.3448 1540.817,-330.2712"/>
</g>
<!-- Node4 -->
<g id="node4" class="node">
<title>Node4</title>
<g id="a_node4"><a xlink:href="../../d2/de7/Fun4AllBase_8h.html" target="_top" xlink:title="Fun4AllBase.h">
<polygon fill="none" stroke="#000000" points="300.8302,-57.5 300.8302,-77.5 387.8302,-77.5 387.8302,-57.5 300.8302,-57.5"/>
<text text-anchor="middle" x="344.3302" y="-64.5" font-family="FreeSans" font-size="10.00" fill="#000000">Fun4AllBase.h</text>
</a>
</g>
</g>
<!-- Node3&#45;&gt;Node4 -->
<g id="edge3" class="edge">
<title>Node3&#45;&gt;Node4</title>
<path fill="none" stroke="#191970" d="M376.6632,-238.7093C264.0449,-227.2856 44.4266,-197.3524 4.3302,-135 -.718,-127.1497 -1.8061,-121.0326 4.3302,-114 22.8345,-92.7927 199.2768,-77.5574 290.4096,-71.0328"/>
<polygon fill="#191970" stroke="#191970" points="290.8233,-74.5124 300.5522,-70.3174 290.3307,-67.5298 290.8233,-74.5124"/>
</g>
<!-- Node6 -->
<g id="node6" class="node">
<title>Node6</title>
<polygon fill="none" stroke="#bfbfbf" points="873.8302,-.5 873.8302,-20.5 918.8302,-20.5 918.8302,-.5 873.8302,-.5"/>
<text text-anchor="middle" x="896.3302" y="-7.5" font-family="FreeSans" font-size="10.00" fill="#000000">string</text>
</g>
<!-- Node3&#45;&gt;Node6 -->
<g id="edge18" class="edge">
<title>Node3&#45;&gt;Node6</title>
<path fill="none" stroke="#191970" d="M446.5518,-234.2681C454.5948,-210.2267 477.7306,-149.496 516.3302,-114 561.2744,-72.6695 583.0728,-75.2833 641.3302,-57 719.1321,-32.5829 814.5536,-19.4346 863.671,-13.8358"/>
<polygon fill="#191970" stroke="#191970" points="864.156,-17.3035 873.7098,-12.7238 863.3853,-10.3461 864.156,-17.3035"/>
</g>
<!-- Node7 -->
<g id="node7" class="node">
<title>Node7</title>
<g id="a_node7"><a xlink:href="../../d0/d59/Fun4AllHistoManager_8h.html" target="_top" xlink:title="Fun4AllHistoManager.h">
<polygon fill="none" stroke="#000000" points="294.3302,-171.5 294.3302,-191.5 426.3302,-191.5 426.3302,-171.5 294.3302,-171.5"/>
<text text-anchor="middle" x="360.3302" y="-178.5" font-family="FreeSans" font-size="10.00" fill="#000000">Fun4AllHistoManager.h</text>
</a>
</g>
</g>
<!-- Node3&#45;&gt;Node7 -->
<g id="edge6" class="edge">
<title>Node3&#45;&gt;Node7</title>
<path fill="none" stroke="#191970" d="M429.9948,-234.378C417.0472,-224.5503 397.1744,-209.4661 381.9627,-197.9198"/>
<polygon fill="#191970" stroke="#191970" points="383.7139,-194.8551 373.6325,-191.5969 379.4817,-200.4308 383.7139,-194.8551"/>
</g>
<!-- Node8 -->
<g id="node8" class="node">
<title>Node8</title>
<polygon fill="none" stroke="#bfbfbf" points="525.8302,-114.5 525.8302,-134.5 564.8302,-134.5 564.8302,-114.5 525.8302,-114.5"/>
<text text-anchor="middle" x="545.3302" y="-121.5" font-family="FreeSans" font-size="10.00" fill="#000000">map</text>
</g>
<!-- Node3&#45;&gt;Node8 -->
<g id="edge17" class="edge">
<title>Node3&#45;&gt;Node8</title>
<path fill="none" stroke="#191970" d="M452.0266,-234.2689C469.3401,-213.9001 508.3166,-168.0454 530.0156,-142.5172"/>
<polygon fill="#191970" stroke="#191970" points="532.846,-144.5914 536.6557,-134.7052 527.5124,-140.0579 532.846,-144.5914"/>
</g>
<!-- Node9 -->
<g id="node9" class="node">
<title>Node9</title>
<g id="a_node9"><a xlink:href="../../dc/d26/PHTimer_8h.html" target="_top" xlink:title="high precision timer">
<polygon fill="none" stroke="#000000" points="138.8302,-171.5 138.8302,-191.5 237.8302,-191.5 237.8302,-171.5 138.8302,-171.5"/>
<text text-anchor="middle" x="188.3302" y="-178.5" font-family="FreeSans" font-size="10.00" fill="#000000">phool/PHTimer.h</text>
</a>
</g>
</g>
<!-- Node3&#45;&gt;Node9 -->
<g id="edge10" class="edge">
<title>Node3&#45;&gt;Node9</title>
<path fill="none" stroke="#191970" d="M402.6427,-234.4478C358.1406,-223.4532 286.7672,-205.8197 238.7471,-193.956"/>
<polygon fill="#191970" stroke="#191970" points="239.4203,-190.5171 228.8727,-191.5164 237.7413,-197.3128 239.4203,-190.5171"/>
</g>
<!-- Node12 -->
<g id="node12" class="node">
<title>Node12</title>
<polygon fill="none" stroke="#bfbfbf" points="284.3302,-114.5 284.3302,-134.5 344.3302,-134.5 344.3302,-114.5 284.3302,-114.5"/>
<text text-anchor="middle" x="314.3302" y="-121.5" font-family="FreeSans" font-size="10.00" fill="#000000">iostream</text>
</g>
<!-- Node3&#45;&gt;Node12 -->
<g id="edge16" class="edge">
<title>Node3&#45;&gt;Node12</title>
<path fill="none" stroke="#191970" d="M393.0584,-234.4593C351.8257,-225.0829 298.2258,-209.8738 285.3302,-192 274.3508,-176.7822 285.5696,-156.7615 297.0981,-142.4847"/>
<polygon fill="#191970" stroke="#191970" points="299.8391,-144.6663 303.7562,-134.8222 294.5552,-140.075 299.8391,-144.6663"/>
</g>
<!-- Node14 -->
<g id="node14" class="node">
<title>Node14</title>
<polygon fill="none" stroke="#bfbfbf" points="664.8302,-171.5 664.8302,-191.5 709.8302,-191.5 709.8302,-171.5 664.8302,-171.5"/>
<text text-anchor="middle" x="687.3302" y="-178.5" font-family="FreeSans" font-size="10.00" fill="#000000">utility</text>
</g>
<!-- Node3&#45;&gt;Node14 -->
<g id="edge19" class="edge">
<title>Node3&#45;&gt;Node14</title>
<path fill="none" stroke="#191970" d="M482.2625,-234.4478C530.0699,-222.1041 610.2865,-201.3924 654.904,-189.8723"/>
<polygon fill="#191970" stroke="#191970" points="655.8428,-193.2448 664.6503,-187.3559 654.0928,-186.4671 655.8428,-193.2448"/>
</g>
<!-- Node3&#45;&gt;Node15 -->
<g id="edge20" class="edge">
<title>Node3&#45;&gt;Node15</title>
<path fill="none" stroke="#191970" d="M459.7182,-234.378C476.0759,-224.2747 501.4279,-208.6161 520.3042,-196.9572"/>
<polygon fill="#191970" stroke="#191970" points="522.314,-199.8297 528.9828,-191.5969 518.6355,-193.8741 522.314,-199.8297"/>
</g>
<!-- Node5 -->
<g id="node5" class="node">
<title>Node5</title>
<polygon fill="none" stroke="#bfbfbf" points="319.8302,-.5 319.8302,-20.5 368.8302,-20.5 368.8302,-.5 319.8302,-.5"/>
<text text-anchor="middle" x="344.3302" y="-7.5" font-family="FreeSans" font-size="10.00" fill="#000000">climits</text>
</g>
<!-- Node4&#45;&gt;Node5 -->
<g id="edge4" class="edge">
<title>Node4&#45;&gt;Node5</title>
<path fill="none" stroke="#191970" d="M344.3302,-57.3095C344.3302,-49.9335 344.3302,-39.72 344.3302,-30.715"/>
<polygon fill="#191970" stroke="#191970" points="347.8303,-30.6022 344.3302,-20.6022 340.8303,-30.6023 347.8303,-30.6022"/>
</g>
<!-- Node4&#45;&gt;Node6 -->
<g id="edge5" class="edge">
<title>Node4&#45;&gt;Node6</title>
<path fill="none" stroke="#191970" d="M387.9708,-59.1881C392.8065,-58.3897 397.6667,-57.6404 402.3302,-57 575.1278,-33.2701 783.6129,-17.9887 863.2379,-12.6361"/>
<polygon fill="#191970" stroke="#191970" points="863.8553,-16.1028 873.601,-11.9468 863.3907,-9.1183 863.8553,-16.1028"/>
</g>
<!-- Node7&#45;&gt;Node4 -->
<g id="edge7" class="edge">
<title>Node7&#45;&gt;Node4</title>
<path fill="none" stroke="#191970" d="M359.5615,-171.4017C358.491,-158.174 356.3381,-134.2781 353.3302,-114 352.0528,-105.3884 350.2926,-95.9463 348.6674,-87.8337"/>
<polygon fill="#191970" stroke="#191970" points="352.0449,-86.8824 346.593,-77.7979 345.1898,-88.2994 352.0449,-86.8824"/>
</g>
<!-- Node7&#45;&gt;Node6 -->
<g id="edge9" class="edge">
<title>Node7&#45;&gt;Node6</title>
<path fill="none" stroke="#191970" d="M363.4821,-171.2097C371.6228,-146.5851 395.8841,-84.2894 440.3302,-57 476.2398,-34.9519 764.8873,-17.5561 863.4688,-12.2074"/>
<polygon fill="#191970" stroke="#191970" points="863.9327,-15.6877 873.7309,-11.6571 863.5577,-8.6977 863.9327,-15.6877"/>
</g>
<!-- Node7&#45;&gt;Node8 -->
<g id="edge8" class="edge">
<title>Node7&#45;&gt;Node8</title>
<path fill="none" stroke="#191970" d="M392.9786,-171.4408C427.8546,-160.6952 482.6239,-143.8203 516.1201,-133.4999"/>
<polygon fill="#191970" stroke="#191970" points="517.2608,-136.8108 525.7869,-130.5214 515.1996,-130.1212 517.2608,-136.8108"/>
</g>
<!-- Node9&#45;&gt;Node6 -->
<g id="edge14" class="edge">
<title>Node9&#45;&gt;Node6</title>
<path fill="none" stroke="#191970" d="M199.9828,-171.3472C210.093,-162.281 224.8652,-148.4005 236.3302,-135 263.9062,-102.7685 254.4489,-77.9542 291.3302,-57 341.2364,-28.6457 744.671,-14.8672 863.5079,-11.3974"/>
<polygon fill="#191970" stroke="#191970" points="863.8907,-14.8879 873.7862,-11.1024 863.6899,-7.8908 863.8907,-14.8879"/>
</g>
<!-- Node10 -->
<g id="node10" class="node">
<title>Node10</title>
<polygon fill="none" stroke="#bfbfbf" points="87.8302,-114.5 87.8302,-134.5 144.8302,-134.5 144.8302,-114.5 87.8302,-114.5"/>
<text text-anchor="middle" x="116.3302" y="-121.5" font-family="FreeSans" font-size="10.00" fill="#000000">unistd.h</text>
</g>
<!-- Node9&#45;&gt;Node10 -->
<g id="edge11" class="edge">
<title>Node9&#45;&gt;Node10</title>
<path fill="none" stroke="#191970" d="M175.458,-171.3095C164.8099,-162.8798 149.4804,-150.7439 137.0984,-140.9415"/>
<polygon fill="#191970" stroke="#191970" points="139.1038,-138.0651 129.0909,-134.6022 134.7589,-143.5535 139.1038,-138.0651"/>
</g>
<!-- Node11 -->
<g id="node11" class="node">
<title>Node11</title>
<polygon fill="none" stroke="#bfbfbf" points="162.8302,-114.5 162.8302,-134.5 227.8302,-134.5 227.8302,-114.5 162.8302,-114.5"/>
<text text-anchor="middle" x="195.3302" y="-121.5" font-family="FreeSans" font-size="10.00" fill="#000000">exception</text>
</g>
<!-- Node9&#45;&gt;Node11 -->
<g id="edge12" class="edge">
<title>Node9&#45;&gt;Node11</title>
<path fill="none" stroke="#191970" d="M189.5816,-171.3095C190.4875,-163.9335 191.7418,-153.72 192.8476,-144.715"/>
<polygon fill="#191970" stroke="#191970" points="196.3445,-144.9543 194.0896,-134.6022 189.3967,-144.101 196.3445,-144.9543"/>
</g>
<!-- Node9&#45;&gt;Node12 -->
<g id="edge13" class="edge">
<title>Node9&#45;&gt;Node12</title>
<path fill="none" stroke="#191970" d="M210.5664,-171.4408C230.5953,-162.3801 260.2573,-148.9615 282.7437,-138.7891"/>
<polygon fill="#191970" stroke="#191970" points="284.2239,-141.961 291.8924,-134.6504 281.3387,-135.5833 284.2239,-141.961"/>
</g>
<!-- Node13 -->
<g id="node13" class="node">
<title>Node13</title>
<polygon fill="none" stroke="#bfbfbf" points="13.3302,-114.5 13.3302,-134.5 69.3302,-134.5 69.3302,-114.5 13.3302,-114.5"/>
<text text-anchor="middle" x="41.3302" y="-121.5" font-family="FreeSans" font-size="10.00" fill="#000000">sstream</text>
</g>
<!-- Node9&#45;&gt;Node13 -->
<g id="edge15" class="edge">
<title>Node9&#45;&gt;Node13</title>
<path fill="none" stroke="#191970" d="M162.3879,-171.4408C138.7079,-162.2587 103.4863,-148.6013 77.1316,-138.3822"/>
<polygon fill="#191970" stroke="#191970" points="78.0966,-135.0025 67.5076,-134.6504 75.5658,-141.529 78.0966,-135.0025"/>
</g>
<!-- Node16&#45;&gt;Node6 -->
<g id="edge33" class="edge">
<title>Node16&#45;&gt;Node6</title>
<path fill="none" stroke="#191970" d="M789.7176,-297.3306C794.6868,-279.5738 799.9642,-250.5833 790.3302,-228 764.2264,-166.8095 658.5779,-170.7271 693.3302,-114 730.6982,-53.0032 816.5581,-26.5374 863.7622,-16.2538"/>
<polygon fill="#191970" stroke="#191970" points="864.6841,-19.6374 873.7714,-14.1902 863.2706,-12.7816 864.6841,-19.6374"/>
</g>
<!-- Node17 -->
<g id="node17" class="node">
<title>Node17</title>
<g id="a_node17"><a xlink:href="../../d8/d3a/PHG4DetectorSubsystem_8h.html" target="_top" xlink:title="PHG4DetectorSubsystem.h">
<polygon fill="none" stroke="#000000" points="566.8302,-234.5 566.8302,-254.5 719.8302,-254.5 719.8302,-234.5 566.8302,-234.5"/>
<text text-anchor="middle" x="643.3302" y="-241.5" font-family="FreeSans" font-size="10.00" fill="#000000">PHG4DetectorSubsystem.h</text>
</a>
</g>
</g>
<!-- Node16&#45;&gt;Node17 -->
<g id="edge22" class="edge">
<title>Node16&#45;&gt;Node17</title>
<path fill="none" stroke="#191970" d="M751.6275,-297.4966C727.9944,-285.9314 696.3159,-270.4292 673.3297,-259.1806"/>
<polygon fill="#191970" stroke="#191970" points="674.5801,-255.8959 664.0595,-254.6441 671.5032,-262.1835 674.5801,-255.8959"/>
</g>
<!-- Node21 -->
<g id="node21" class="node">
<title>Node21</title>
<polygon fill="none" stroke="#bfbfbf" points="737.8302,-234.5 737.8302,-254.5 780.8302,-254.5 780.8302,-234.5 737.8302,-234.5"/>
<text text-anchor="middle" x="759.3302" y="-241.5" font-family="FreeSans" font-size="10.00" fill="#000000">array</text>
</g>
<!-- Node16&#45;&gt;Node21 -->
<g id="edge32" class="edge">
<title>Node16&#45;&gt;Node21</title>
<path fill="none" stroke="#191970" d="M778.5318,-297.4966C774.9402,-287.5836 770.3005,-274.7781 766.4816,-264.238"/>
<polygon fill="#191970" stroke="#191970" points="769.7028,-262.8537 763.0056,-254.6441 763.1215,-265.2383 769.7028,-262.8537"/>
</g>
<!-- Node17&#45;&gt;Node6 -->
<g id="edge31" class="edge">
<title>Node17&#45;&gt;Node6</title>
<path fill="none" stroke="#191970" d="M640.5536,-234.3496C632.728,-203.2825 613.9484,-108.4812 660.3302,-57 687.0392,-27.3544 805.3873,-16.0569 863.6721,-12.2343"/>
<polygon fill="#191970" stroke="#191970" points="864.0564,-15.7172 873.8205,-11.6047 863.623,-8.7307 864.0564,-15.7172"/>
</g>
<!-- Node17&#45;&gt;Node8 -->
<g id="edge30" class="edge">
<title>Node17&#45;&gt;Node8</title>
<path fill="none" stroke="#191970" d="M634.9748,-234.2689C618.3402,-213.9001 580.8922,-168.0454 560.0442,-142.5172"/>
<polygon fill="#191970" stroke="#191970" points="562.7007,-140.2367 553.6645,-134.7052 557.279,-144.6645 562.7007,-140.2367"/>
</g>
<!-- Node18 -->
<g id="node18" class="node">
<title>Node18</title>
<g id="a_node18"><a xlink:href="../../df/d1c/PHG4Subsystem_8h.html" target="_top" xlink:title="g4main/PHG4Subsystem.h">
<polygon fill="none" stroke="#000000" points="804.8302,-171.5 804.8302,-191.5 955.8302,-191.5 955.8302,-171.5 804.8302,-171.5"/>
<text text-anchor="middle" x="880.3302" y="-178.5" font-family="FreeSans" font-size="10.00" fill="#000000">g4main/PHG4Subsystem.h</text>
</a>
</g>
</g>
<!-- Node17&#45;&gt;Node18 -->
<g id="edge23" class="edge">
<title>Node17&#45;&gt;Node18</title>
<path fill="none" stroke="#191970" d="M681.1456,-234.4478C722.3333,-223.4992 788.287,-205.9672 832.9107,-194.1052"/>
<polygon fill="#191970" stroke="#191970" points="833.8843,-197.468 842.6495,-191.5164 832.0859,-190.7029 833.8843,-197.468"/>
</g>
<!-- Node18&#45;&gt;Node6 -->
<g id="edge29" class="edge">
<title>Node18&#45;&gt;Node6</title>
<path fill="none" stroke="#191970" d="M881.2831,-171.3153C883.856,-143.8178 890.9805,-67.6748 894.4215,-30.8993"/>
<polygon fill="#191970" stroke="#191970" points="897.9151,-31.1302 895.362,-20.8476 890.9455,-30.478 897.9151,-31.1302"/>
</g>
<!-- Node18&#45;&gt;Node12 -->
<g id="edge28" class="edge">
<title>Node18&#45;&gt;Node12</title>
<path fill="none" stroke="#191970" d="M804.5842,-173.8719C683.0525,-161.6328 448.6395,-138.0258 354.7065,-128.5662"/>
<polygon fill="#191970" stroke="#191970" points="354.787,-125.0567 344.4866,-127.537 354.0855,-132.0214 354.787,-125.0567"/>
</g>
<!-- Node19 -->
<g id="node19" class="node">
<title>Node19</title>
<g id="a_node19"><a xlink:href="../../da/dc1/Fun4AllReturnCodes_8h.html" target="_top" xlink:title="fun4all/Fun4AllReturnCodes.h">
<polygon fill="none" stroke="#000000" points="702.3302,-114.5 702.3302,-134.5 868.3302,-134.5 868.3302,-114.5 702.3302,-114.5"/>
<text text-anchor="middle" x="785.3302" y="-121.5" font-family="FreeSans" font-size="10.00" fill="#000000">fun4all/Fun4AllReturnCodes.h</text>
</a>
</g>
</g>
<!-- Node18&#45;&gt;Node19 -->
<g id="edge24" class="edge">
<title>Node18&#45;&gt;Node19</title>
<path fill="none" stroke="#191970" d="M863.3461,-171.3095C848.7561,-162.5556 827.505,-149.8049 810.8654,-139.8211"/>
<polygon fill="#191970" stroke="#191970" points="812.5429,-136.746 802.1672,-134.6022 808.9414,-142.7485 812.5429,-136.746"/>
</g>
<!-- Node20 -->
<g id="node20" class="node">
<title>Node20</title>
<g id="a_node20"><a xlink:href="../../d5/dc2/SubsysReco_8h.html" target="_top" xlink:title="fun4all/SubsysReco.h">
<polygon fill="none" stroke="#000000" points="924.3302,-114.5 924.3302,-134.5 1048.3302,-134.5 1048.3302,-114.5 924.3302,-114.5"/>
<text text-anchor="middle" x="986.3302" y="-121.5" font-family="FreeSans" font-size="10.00" fill="#000000">fun4all/SubsysReco.h</text>
</a>
</g>
</g>
<!-- Node18&#45;&gt;Node20 -->
<g id="edge25" class="edge">
<title>Node18&#45;&gt;Node20</title>
<path fill="none" stroke="#191970" d="M899.2809,-171.3095C915.7863,-162.434 939.932,-149.4499 958.6088,-139.4068"/>
<polygon fill="#191970" stroke="#191970" points="960.3938,-142.4209 967.5436,-134.6022 957.0785,-136.2557 960.3938,-142.4209"/>
</g>
<!-- Node20&#45;&gt;Node4 -->
<g id="edge26" class="edge">
<title>Node20&#45;&gt;Node4</title>
<path fill="none" stroke="#191970" d="M924.0865,-118.4064C908.7995,-116.9368 892.4755,-115.3901 877.3302,-114 701.9627,-97.904 494.0083,-80.145 397.9195,-72.0144"/>
<polygon fill="#191970" stroke="#191970" points="398.1278,-68.5196 387.8684,-71.1646 397.5379,-75.4948 398.1278,-68.5196"/>
</g>
<!-- Node20&#45;&gt;Node6 -->
<g id="edge27" class="edge">
<title>Node20&#45;&gt;Node6</title>
<path fill="none" stroke="#191970" d="M978.3433,-114.3833C963.1706,-95.1645 929.9855,-53.1301 910.803,-28.8322"/>
<polygon fill="#191970" stroke="#191970" points="913.3721,-26.438 904.4286,-20.7579 907.8779,-30.7756 913.3721,-26.438"/>
</g>
<!-- Node22&#45;&gt;Node6 -->
<g id="edge36" class="edge">
<title>Node22&#45;&gt;Node6</title>
<path fill="none" stroke="#191970" d="M1088.137,-171.3536C1083.2912,-157.2105 1072.9584,-131.3571 1057.3302,-114 1020.443,-73.0321 963.7495,-41.6956 928.4126,-24.7127"/>
<polygon fill="#191970" stroke="#191970" points="929.5851,-21.3964 919.0464,-20.3072 926.6057,-27.7307 929.5851,-21.3964"/>
</g>
<!-- Node22&#45;&gt;Node20 -->
<g id="edge35" class="edge">
<title>Node22&#45;&gt;Node20</title>
<path fill="none" stroke="#191970" d="M1072.5583,-171.3095C1056.2085,-162.434 1032.2906,-149.4499 1013.79,-139.4068"/>
<polygon fill="#191970" stroke="#191970" points="1015.3979,-136.2972 1004.9396,-134.6022 1012.0583,-142.4492 1015.3979,-136.2972"/>
</g>
<!-- Node23&#45;&gt;Node6 -->
<g id="edge42" class="edge">
<title>Node23&#45;&gt;Node6</title>
<path fill="none" stroke="#191970" d="M1210.4833,-171.4614C1189.4959,-162.6798 1158.8659,-149.1468 1133.3302,-135 1078.3387,-104.5348 1071.1418,-85.9354 1015.3302,-57 986.9462,-42.2844 952.7995,-29.3984 928.3778,-20.9469"/>
<polygon fill="#191970" stroke="#191970" points="929.4723,-17.6223 918.8779,-17.7129 927.2165,-24.2488 929.4723,-17.6223"/>
</g>
<!-- Node23&#45;&gt;Node20 -->
<g id="edge39" class="edge">
<title>Node23&#45;&gt;Node20</title>
<path fill="none" stroke="#191970" d="M1191.3872,-171.4408C1149.2026,-161.7841 1085.3945,-147.1774 1040.1754,-136.826"/>
<polygon fill="#191970" stroke="#191970" points="1040.7809,-133.3742 1030.252,-134.5544 1039.2188,-140.1977 1040.7809,-133.3742"/>
</g>
<!-- Node24 -->
<g id="node24" class="node">
<title>Node24</title>
<g id="a_node24"><a xlink:href="../../d9/d5f/EDecayType_8hh.html" target="_top" xlink:title="g4decayer/EDecayType.hh">
<polygon fill="none" stroke="#000000" points="1142.3302,-114.5 1142.3302,-134.5 1292.3302,-134.5 1292.3302,-114.5 1142.3302,-114.5"/>
<text text-anchor="middle" x="1217.3302" y="-121.5" font-family="FreeSans" font-size="10.00" fill="#000000">g4decayer/EDecayType.hh</text>
</a>
</g>
</g>
<!-- Node23&#45;&gt;Node24 -->
<g id="edge38" class="edge">
<title>Node23&#45;&gt;Node24</title>
<path fill="none" stroke="#191970" d="M1232.1121,-171.3095C1229.7573,-163.8524 1226.4865,-153.4951 1223.6203,-144.4186"/>
<polygon fill="#191970" stroke="#191970" points="1226.8693,-143.0841 1220.5204,-134.6022 1220.1942,-145.192 1226.8693,-143.0841"/>
</g>
<!-- Node25 -->
<g id="node25" class="node">
<title>Node25</title>
<polygon fill="none" stroke="#bfbfbf" points="1310.3302,-114.5 1310.3302,-134.5 1444.3302,-134.5 1444.3302,-114.5 1310.3302,-114.5"/>
<text text-anchor="middle" x="1377.3302" y="-121.5" font-family="FreeSans" font-size="10.00" fill="#000000">phfield/PHFieldConfig.h</text>
</g>
<!-- Node23&#45;&gt;Node25 -->
<g id="edge40" class="edge">
<title>Node23&#45;&gt;Node25</title>
<path fill="none" stroke="#191970" d="M1260.3901,-171.4408C1283.2646,-162.2587 1317.2883,-148.6013 1342.7465,-138.3822"/>
<polygon fill="#191970" stroke="#191970" points="1344.0668,-141.6237 1352.0432,-134.6504 1341.4591,-135.1276 1344.0668,-141.6237"/>
</g>
<!-- Node26 -->
<g id="node26" class="node">
<title>Node26</title>
<polygon fill="none" stroke="#bfbfbf" points="1462.3302,-114.5 1462.3302,-134.5 1494.3302,-134.5 1494.3302,-114.5 1462.3302,-114.5"/>
<text text-anchor="middle" x="1478.3302" y="-121.5" font-family="FreeSans" font-size="10.00" fill="#000000">list</text>
</g>
<!-- Node23&#45;&gt;Node26 -->
<g id="edge41" class="edge">
<title>Node23&#45;&gt;Node26</title>
<path fill="none" stroke="#191970" d="M1294.8585,-171.9147C1336.7907,-164.4554 1394.2642,-152.8109 1452.3785,-134.8898"/>
<polygon fill="#191970" stroke="#191970" points="1453.5973,-138.1756 1462.0876,-131.838 1451.4983,-131.4977 1453.5973,-138.1756"/>
</g>
<!-- Node28&#45;&gt;Node6 -->
<g id="edge52" class="edge">
<title>Node28&#45;&gt;Node6</title>
<path fill="none" stroke="#191970" d="M1428.3651,-303.4087C1465.8479,-273.1729 1568.2535,-181.2576 1520.3302,-114 1475.3077,-50.8135 1431.0999,-73.6885 1355.3302,-57 1198.3941,-22.4344 1005.5195,-13.4872 929.4313,-11.2339"/>
<polygon fill="#191970" stroke="#191970" points="929.1636,-7.7253 919.0707,-10.9478 928.9703,-14.7226 929.1636,-7.7253"/>
</g>
<!-- Node29 -->
<g id="node29" class="node">
<title>Node29</title>
<g id="a_node29"><a xlink:href="../../d5/d12/PHG4DetectorGroupSubsystem_8h.html" target="_top" xlink:title="g4detectors/PHG4Detector\lGroupSubsystem.h">
<polygon fill="none" stroke="#000000" points="877.3302,-228.5 877.3302,-260.5 1029.3302,-260.5 1029.3302,-228.5 877.3302,-228.5"/>
<text text-anchor="start" x="885.3302" y="-247.5" font-family="FreeSans" font-size="10.00" fill="#000000">g4detectors/PHG4Detector</text>
<text text-anchor="middle" x="953.3302" y="-235.5" font-family="FreeSans" font-size="10.00" fill="#000000">GroupSubsystem.h</text>
</a>
</g>
</g>
<!-- Node28&#45;&gt;Node29 -->
<g id="edge45" class="edge">
<title>Node28&#45;&gt;Node29</title>
<path fill="none" stroke="#191970" d="M1348.1514,-303.4668C1266.5811,-291.2842 1128.8615,-270.7157 1039.5387,-257.3753"/>
<polygon fill="#191970" stroke="#191970" points="1039.8403,-253.8816 1029.433,-255.866 1038.8063,-260.8048 1039.8403,-253.8816"/>
</g>
<!-- Node31 -->
<g id="node31" class="node">
<title>Node31</title>
<polygon fill="none" stroke="#bfbfbf" points="1555.3302,-234.5 1555.3302,-254.5 1603.3302,-254.5 1603.3302,-234.5 1555.3302,-234.5"/>
<text text-anchor="middle" x="1579.3302" y="-241.5" font-family="FreeSans" font-size="10.00" fill="#000000">cmath</text>
</g>
<!-- Node28&#45;&gt;Node31 -->
<g id="edge51" class="edge">
<title>Node28&#45;&gt;Node31</title>
<path fill="none" stroke="#191970" d="M1440.0021,-303.3469C1465.437,-292.85 1506.2214,-275.9357 1541.3302,-261 1543.1668,-260.2187 1545.0517,-259.4129 1546.9529,-258.5971"/>
<polygon fill="#191970" stroke="#191970" points="1548.6505,-261.6766 1556.4462,-254.5018 1545.8777,-255.2492 1548.6505,-261.6766"/>
</g>
<!-- Node29&#45;&gt;Node6 -->
<g id="edge49" class="edge">
<title>Node29&#45;&gt;Node6</title>
<path fill="none" stroke="#191970" d="M1029.547,-239.2886C1194.8634,-226.5098 1566.6631,-189.0459 1503.3302,-114 1465.6838,-69.3912 1050.4527,-25.5638 929.3169,-13.6542"/>
<polygon fill="#191970" stroke="#191970" points="929.4637,-10.1519 919.171,-12.6639 928.7837,-17.1188 929.4637,-10.1519"/>
</g>
<!-- Node29&#45;&gt;Node8 -->
<g id="edge47" class="edge">
<title>Node29&#45;&gt;Node8</title>
<path fill="none" stroke="#191970" d="M904.2148,-228.3936C856.9948,-213.0701 783.5293,-189.6514 719.3302,-171 668.8521,-156.3349 609.6365,-140.8783 574.9262,-131.9937"/>
<polygon fill="#191970" stroke="#191970" points="575.5325,-128.5363 564.9776,-129.4555 573.802,-135.3191 575.5325,-128.5363"/>
</g>
<!-- Node29&#45;&gt;Node14 -->
<g id="edge50" class="edge">
<title>Node29&#45;&gt;Node14</title>
<path fill="none" stroke="#191970" d="M885.5189,-228.4394C832.4196,-215.8633 760.9026,-198.9251 719.8919,-189.212"/>
<polygon fill="#191970" stroke="#191970" points="720.4453,-185.7463 709.9079,-186.8473 718.832,-192.5579 720.4453,-185.7463"/>
</g>
<!-- Node29&#45;&gt;Node18 -->
<g id="edge46" class="edge">
<title>Node29&#45;&gt;Node18</title>
<path fill="none" stroke="#191970" d="M934.5309,-228.2759C923.8931,-219.0954 910.6086,-207.6307 899.8539,-198.3492"/>
<polygon fill="#191970" stroke="#191970" points="902.066,-195.6351 892.2086,-191.7513 897.4925,-200.9345 902.066,-195.6351"/>
</g>
<!-- Node30 -->
<g id="node30" class="node">
<title>Node30</title>
<polygon fill="none" stroke="#bfbfbf" points="974.3302,-171.5 974.3302,-191.5 1006.3302,-191.5 1006.3302,-171.5 974.3302,-171.5"/>
<text text-anchor="middle" x="990.3302" y="-178.5" font-family="FreeSans" font-size="10.00" fill="#000000">set</text>
</g>
<!-- Node29&#45;&gt;Node30 -->
<g id="edge48" class="edge">
<title>Node29&#45;&gt;Node30</title>
<path fill="none" stroke="#191970" d="M962.8586,-228.2759C967.8275,-219.8154 973.9357,-209.415 979.1296,-200.5712"/>
<polygon fill="#191970" stroke="#191970" points="982.2633,-202.1466 984.3096,-191.7513 976.2273,-198.6017 982.2633,-202.1466"/>
</g>
<!-- Node32&#45;&gt;Node6 -->
<g id="edge56" class="edge">
<title>Node32&#45;&gt;Node6</title>
<path fill="none" stroke="#191970" d="M1631.3302,-297.2429C1631.3302,-272.3297 1631.3302,-223.2083 1631.3302,-181.5 1631.3302,-181.5 1631.3302,-181.5 1631.3302,-124.5 1631.3302,-52.4502 1072.6805,-19.3814 929.4635,-12.0876"/>
<polygon fill="#191970" stroke="#191970" points="929.296,-8.5749 919.1332,-11.5698 928.9455,-15.5661 929.296,-8.5749"/>
</g>
<!-- Node33 -->
<g id="node33" class="node">
<title>Node33</title>
<g id="a_node33"><a xlink:href="../../de/d9f/PHG4TpcDistortion_8h.html" target="_top" xlink:title="PHG4TpcDistortion.h">
<polygon fill="none" stroke="#000000" points="1659.8302,-234.5 1659.8302,-254.5 1780.8302,-254.5 1780.8302,-234.5 1659.8302,-234.5"/>
<text text-anchor="middle" x="1720.3302" y="-241.5" font-family="FreeSans" font-size="10.00" fill="#000000">PHG4TpcDistortion.h</text>
</a>
</g>
</g>
<!-- Node32&#45;&gt;Node33 -->
<g id="edge54" class="edge">
<title>Node32&#45;&gt;Node33</title>
<path fill="none" stroke="#191970" d="M1651.9723,-297.4966C1666.0905,-286.551 1684.7575,-272.0789 1699.0169,-261.0238"/>
<polygon fill="#191970" stroke="#191970" points="1701.4871,-263.5373 1707.2457,-254.6441 1697.1981,-258.0052 1701.4871,-263.5373"/>
</g>
<!-- Node34 -->
<g id="node34" class="node">
<title>Node34</title>
<polygon fill="none" stroke="#bfbfbf" points="1680.3302,-171.5 1680.3302,-191.5 1760.3302,-191.5 1760.3302,-171.5 1680.3302,-171.5"/>
<text text-anchor="middle" x="1720.3302" y="-178.5" font-family="FreeSans" font-size="10.00" fill="#000000">gsl/gsl_rng.h</text>
</g>
<!-- Node33&#45;&gt;Node34 -->
<g id="edge55" class="edge">
<title>Node33&#45;&gt;Node34</title>
<path fill="none" stroke="#191970" d="M1720.3302,-234.378C1720.3302,-225.7041 1720.3302,-212.9355 1720.3302,-202.1186"/>
<polygon fill="#191970" stroke="#191970" points="1723.8303,-201.8062 1720.3302,-191.8062 1716.8303,-201.8062 1723.8303,-201.8062"/>
</g>
</g>
</svg>
