<?xml version="1.0" encoding="UTF-8" standalone="no"?>
<!DOCTYPE svg PUBLIC "-//W3C//DTD SVG 1.1//EN"
 "http://www.w3.org/Graphics/SVG/1.1/DTD/svg11.dtd">
<!-- Generated by graphviz version 2.40.1 (20161225.0304)
 -->
<!-- Title: TpcPrototypeGenFitTrkFitter::MakeSvtxTrack Pages: 1 -->
<svg width="1006pt" height="1244pt"
 viewBox="0.00 0.00 1006.00 1244.00" xmlns="http://www.w3.org/2000/svg" xmlns:xlink="http://www.w3.org/1999/xlink">
<g id="graph0" class="graph" transform="scale(1 1) rotate(0) translate(4 1240)">
<title>TpcPrototypeGenFitTrkFitter::MakeSvtxTrack</title>
<!-- Node1 -->
<g id="node1" class="node">
<title>Node1</title>
<polygon fill="#bfbfbf" stroke="#000000" points="0,-945.5 0,-977.5 157,-977.5 157,-945.5 0,-945.5"/>
<text text-anchor="start" x="8" y="-964.5" font-family="FreeSans" font-size="10.00" fill="#000000">TpcPrototypeGenFitTrkFitter</text>
<text text-anchor="middle" x="78.5" y="-952.5" font-family="FreeSans" font-size="10.00" fill="#000000">::MakeSvtxTrack</text>
</g>
<!-- Node2 -->
<g id="node2" class="node">
<title>Node2</title>
<g id="a_node2"><a xlink:href="../../de/dd5/classgenfit_1_1StateOnPlane.html#a9d9c93ac20c8c4e90234ab1130423eca" target="_top" xlink:title="genfit::StateOnPlane\l::extrapolateToPoint">
<polygon fill="none" stroke="#000000" points="211,-1203.5 211,-1235.5 332,-1235.5 332,-1203.5 211,-1203.5"/>
<text text-anchor="start" x="219" y="-1222.5" font-family="FreeSans" font-size="10.00" fill="#000000">genfit::StateOnPlane</text>
<text text-anchor="middle" x="271.5" y="-1210.5" font-family="FreeSans" font-size="10.00" fill="#000000">::extrapolateToPoint</text>
</a>
</g>
</g>
<!-- Node1&#45;&gt;Node2 -->
<g id="edge1" class="edge">
<title>Node1&#45;&gt;Node2</title>
<path fill="none" stroke="#191970" d="M82.3653,-977.6745C92.9497,-1018.6296 126.1712,-1127.4954 193,-1188.5 197.1258,-1192.2663 201.7638,-1195.5983 206.6699,-1198.5418"/>
<polygon fill="#191970" stroke="#191970" points="205.2745,-1201.7658 215.7377,-1203.4307 208.5965,-1195.6042 205.2745,-1201.7658"/>
</g>
<!-- Node4 -->
<g id="node4" class="node">
<title>Node4</title>
<g id="a_node4"><a xlink:href="../../d6/d8a/classgenfit_1_1Track.html#a402b35300e81a48c7f0b9eb082b1cf24" target="_top" xlink:title="Get cardinal track representation.">
<polygon fill="none" stroke="#000000" points="581.5,-1088.5 581.5,-1108.5 744.5,-1108.5 744.5,-1088.5 581.5,-1088.5"/>
<text text-anchor="middle" x="663" y="-1095.5" font-family="FreeSans" font-size="10.00" fill="#000000">genfit::Track::getCardinalRep</text>
</a>
</g>
</g>
<!-- Node1&#45;&gt;Node4 -->
<g id="edge3" class="edge">
<title>Node1&#45;&gt;Node4</title>
<path fill="none" stroke="#191970" d="M84.2378,-977.633C97.3428,-1011.7267 133.0548,-1090.5834 193,-1122.5 338.0386,-1199.7229 545.2581,-1140.8025 627.4492,-1111.9866"/>
<polygon fill="#191970" stroke="#191970" points="628.8281,-1115.2108 637.0675,-1108.5502 626.4728,-1108.6189 628.8281,-1115.2108"/>
</g>
<!-- Node5 -->
<g id="node5" class="node">
<title>Node5</title>
<g id="a_node5"><a xlink:href="../../d3/d03/classgenfit_1_1KalmanFitterInfo.html#a2076ecca63ef159ab37fae40a38c0ea0" target="_top" xlink:title="Get unbiased or biased (default) smoothed state.">
<polygon fill="none" stroke="#000000" points="204,-811.5 204,-843.5 339,-843.5 339,-811.5 204,-811.5"/>
<text text-anchor="start" x="212" y="-830.5" font-family="FreeSans" font-size="10.00" fill="#000000">genfit::KalmanFitterInfo</text>
<text text-anchor="middle" x="271.5" y="-818.5" font-family="FreeSans" font-size="10.00" fill="#000000">::getFittedState</text>
</a>
</g>
</g>
<!-- Node1&#45;&gt;Node5 -->
<g id="edge4" class="edge">
<title>Node1&#45;&gt;Node5</title>
<path fill="none" stroke="#191970" d="M101.7803,-945.3365C136.3607,-921.3273 201.3721,-876.1898 240.121,-849.2865"/>
<polygon fill="#191970" stroke="#191970" points="242.2194,-852.0905 248.4376,-843.5123 238.2272,-846.3405 242.2194,-852.0905"/>
</g>
<!-- Node31 -->
<g id="node31" class="node">
<title>Node31</title>
<g id="a_node31"><a xlink:href="../../db/d40/classgenfit_1_1TrackPoint.html#ae8b3e743fb436dd6689e0dad4c35ffd9" target="_top" xlink:title="Get fitterInfo for rep. Per default, use cardinal rep.">
<polygon fill="none" stroke="#000000" points="219.5,-1080.5 219.5,-1112.5 323.5,-1112.5 323.5,-1080.5 219.5,-1080.5"/>
<text text-anchor="start" x="227.5" y="-1099.5" font-family="FreeSans" font-size="10.00" fill="#000000">genfit::TrackPoint</text>
<text text-anchor="middle" x="271.5" y="-1087.5" font-family="FreeSans" font-size="10.00" fill="#000000">::getFitterInfo</text>
</a>
</g>
</g>
<!-- Node1&#45;&gt;Node31 -->
<g id="edge36" class="edge">
<title>Node1&#45;&gt;Node31</title>
<path fill="none" stroke="#191970" d="M101.3975,-977.5164C135.8375,-1001.6066 201.0714,-1047.2365 239.9804,-1074.4526"/>
<polygon fill="#191970" stroke="#191970" points="238.1316,-1077.4307 248.3321,-1080.2945 242.1439,-1071.6946 238.1316,-1077.4307"/>
</g>
<!-- Node32 -->
<g id="node32" class="node">
<title>Node32</title>
<g id="a_node32"><a xlink:href="../../d6/d8a/classgenfit_1_1Track.html#a2aea787962258c48230c6714884827d1" target="_top" xlink:title="genfit::Track::getNumPoints\lWithMeasurement">
<polygon fill="none" stroke="#000000" points="193.5,-760.5 193.5,-792.5 349.5,-792.5 349.5,-760.5 193.5,-760.5"/>
<text text-anchor="start" x="201.5" y="-779.5" font-family="FreeSans" font-size="10.00" fill="#000000">genfit::Track::getNumPoints</text>
<text text-anchor="middle" x="271.5" y="-767.5" font-family="FreeSans" font-size="10.00" fill="#000000">WithMeasurement</text>
</a>
</g>
</g>
<!-- Node1&#45;&gt;Node32 -->
<g id="edge38" class="edge">
<title>Node1&#45;&gt;Node32</title>
<path fill="none" stroke="#191970" d="M85.7972,-945.4055C101.0831,-913.4614 139.5291,-841.7544 193,-802.5 195.5225,-800.6482 198.1846,-798.9232 200.9441,-797.3169"/>
<polygon fill="#191970" stroke="#191970" points="202.7851,-800.3043 210.0375,-792.5807 199.5515,-794.0959 202.7851,-800.3043"/>
</g>
<!-- Node33 -->
<g id="node33" class="node">
<title>Node33</title>
<g id="a_node33"><a xlink:href="../../d6/d8a/classgenfit_1_1Track.html#a786e83317c4ddb7ced3811a77f823c15" target="_top" xlink:title="genfit::Track::getPointWith\lMeasurementAndFitterInfo">
<polygon fill="none" stroke="#000000" points="196.5,-962.5 196.5,-994.5 346.5,-994.5 346.5,-962.5 196.5,-962.5"/>
<text text-anchor="start" x="204.5" y="-981.5" font-family="FreeSans" font-size="10.00" fill="#000000">genfit::Track::getPointWith</text>
<text text-anchor="middle" x="271.5" y="-969.5" font-family="FreeSans" font-size="10.00" fill="#000000">MeasurementAndFitterInfo</text>
</a>
</g>
</g>
<!-- Node1&#45;&gt;Node33 -->
<g id="edge39" class="edge">
<title>Node1&#45;&gt;Node33</title>
<path fill="none" stroke="#191970" d="M157.0005,-968.4146C166.605,-969.2605 176.4562,-970.1283 186.155,-970.9826"/>
<polygon fill="#191970" stroke="#191970" points="185.9217,-974.4755 196.1903,-971.8665 186.536,-967.5025 185.9217,-974.4755"/>
</g>
<!-- Node34 -->
<g id="node34" class="node">
<title>Node34</title>
<g id="a_node34"><a xlink:href="../../df/dd7/classTpcPrototypeGenFitTrkFitter.html#a1a6643951e63fb0f2d3b99d90ac49c9b" target="_top" xlink:title="TpcPrototypeGenFitTrkFitter\l::pos_cov_XYZ_to_RZ">
<polygon fill="none" stroke="#000000" points="193,-391.5 193,-423.5 350,-423.5 350,-391.5 193,-391.5"/>
<text text-anchor="start" x="201" y="-410.5" font-family="FreeSans" font-size="10.00" fill="#000000">TpcPrototypeGenFitTrkFitter</text>
<text text-anchor="middle" x="271.5" y="-398.5" font-family="FreeSans" font-size="10.00" fill="#000000">::pos_cov_XYZ_to_RZ</text>
</a>
</g>
</g>
<!-- Node1&#45;&gt;Node34 -->
<g id="edge41" class="edge">
<title>Node1&#45;&gt;Node34</title>
<path fill="none" stroke="#191970" d="M83.8701,-945.3267C100.046,-896.6903 149.8499,-747.5331 193,-624.5 217.3335,-555.1182 247.1219,-473.6912 262.0382,-433.1469"/>
<polygon fill="#191970" stroke="#191970" points="265.4108,-434.1166 265.582,-423.5231 258.842,-431.6977 265.4108,-434.1166"/>
</g>
<!-- Node35 -->
<g id="node35" class="node">
<title>Node35</title>
<g id="a_node35"><a xlink:href="../../d5/dec/classFun4AllBase.html#a8a5c77a92bdac6bc043476e132379a40" target="_top" xlink:title="Gets the verbosity of this module.">
<polygon fill="none" stroke="#000000" points="398,-287.5 398,-307.5 530,-307.5 530,-287.5 398,-287.5"/>
<text text-anchor="middle" x="464" y="-294.5" font-family="FreeSans" font-size="10.00" fill="#000000">Fun4AllBase::Verbosity</text>
</a>
</g>
</g>
<!-- Node1&#45;&gt;Node35 -->
<g id="edge43" class="edge">
<title>Node1&#45;&gt;Node35</title>
<path fill="none" stroke="#191970" d="M87.27,-945.3514C128.8583,-868.6352 306.0133,-540.2597 350,-432.5 370.4006,-382.5221 346.665,-353.4694 386,-316.5 387.2917,-315.286 388.6476,-314.1457 390.0581,-313.0748"/>
<polygon fill="#191970" stroke="#191970" points="392.0587,-315.9514 398.6671,-307.6701 388.3368,-310.0229 392.0587,-315.9514"/>
</g>
<!-- Node3 -->
<g id="node3" class="node">
<title>Node3</title>
<g id="a_node3"><a xlink:href="../../d1/d25/classgenfit_1_1AbsTrackRep.html#adf11f826cc9b4d61fed7d7141e833e94" target="_top" xlink:title="Extrapolates the state to the POCA to a point, and returns the extrapolation length and...">
<polygon fill="none" stroke="#000000" points="405.5,-1203.5 405.5,-1235.5 522.5,-1235.5 522.5,-1203.5 405.5,-1203.5"/>
<text text-anchor="start" x="413.5" y="-1222.5" font-family="FreeSans" font-size="10.00" fill="#000000">genfit::AbsTrackRep</text>
<text text-anchor="middle" x="464" y="-1210.5" font-family="FreeSans" font-size="10.00" fill="#000000">::extrapolateToPoint</text>
</a>
</g>
</g>
<!-- Node2&#45;&gt;Node3 -->
<g id="edge2" class="edge">
<title>Node2&#45;&gt;Node3</title>
<path fill="none" stroke="#191970" d="M332.144,-1219.5C352.1309,-1219.5 374.5024,-1219.5 395.0613,-1219.5"/>
<polygon fill="#191970" stroke="#191970" points="395.3062,-1223.0001 405.3062,-1219.5 395.3061,-1216.0001 395.3062,-1223.0001"/>
</g>
<!-- Node6 -->
<g id="node6" class="node">
<title>Node6</title>
<g id="a_node6"><a xlink:href="../../d9/d8c/classgenfit_1_1AbsFitterInfo.html#abef5146e9139a0995c5446d8e6fdf78a" target="_top" xlink:title="genfit::AbsFitterInfo\l::getTrackPoint">
<polygon fill="none" stroke="#000000" points="406,-947.5 406,-979.5 522,-979.5 522,-947.5 406,-947.5"/>
<text text-anchor="start" x="414" y="-966.5" font-family="FreeSans" font-size="10.00" fill="#000000">genfit::AbsFitterInfo</text>
<text text-anchor="middle" x="464" y="-954.5" font-family="FreeSans" font-size="10.00" fill="#000000">::getTrackPoint</text>
</a>
</g>
</g>
<!-- Node5&#45;&gt;Node6 -->
<g id="edge5" class="edge">
<title>Node5&#45;&gt;Node6</title>
<path fill="none" stroke="#191970" d="M284.1573,-843.8649C303.5782,-867.915 343.0193,-912.7347 386,-938.5 389.2397,-940.4421 392.6469,-942.2503 396.1519,-943.9315"/>
<polygon fill="#191970" stroke="#191970" points="395.0475,-947.2693 405.6105,-948.0899 397.8648,-940.8612 395.0475,-947.2693"/>
</g>
<!-- Node7 -->
<g id="node7" class="node">
<title>Node7</title>
<g id="a_node7"><a xlink:href="../../db/d40/classgenfit_1_1TrackPoint.html#a2540c1979de60b5456130b1e648c783d" target="_top" xlink:title="genfit::TrackPoint\l::getTrack">
<polygon fill="none" stroke="#000000" points="412,-896.5 412,-928.5 516,-928.5 516,-896.5 412,-896.5"/>
<text text-anchor="start" x="420" y="-915.5" font-family="FreeSans" font-size="10.00" fill="#000000">genfit::TrackPoint</text>
<text text-anchor="middle" x="464" y="-903.5" font-family="FreeSans" font-size="10.00" fill="#000000">::getTrack</text>
</a>
</g>
</g>
<!-- Node5&#45;&gt;Node7 -->
<g id="edge6" class="edge">
<title>Node5&#45;&gt;Node7</title>
<path fill="none" stroke="#191970" d="M299.082,-843.6783C321.8793,-856.6253 355.3611,-874.6751 386,-887.5 391.2941,-889.716 396.8576,-891.8547 402.474,-893.8853"/>
<polygon fill="#191970" stroke="#191970" points="401.3428,-897.1975 411.9376,-897.1952 403.6538,-890.59 401.3428,-897.1975"/>
</g>
<!-- Node8 -->
<g id="node8" class="node">
<title>Node8</title>
<g id="a_node8"><a xlink:href="../../d9/d8c/classgenfit_1_1AbsFitterInfo.html#afea691164c74306d2031439ca40d1687" target="_top" xlink:title="genfit::AbsFitterInfo\l::getRep">
<polygon fill="none" stroke="#000000" points="406,-845.5 406,-877.5 522,-877.5 522,-845.5 406,-845.5"/>
<text text-anchor="start" x="414" y="-864.5" font-family="FreeSans" font-size="10.00" fill="#000000">genfit::AbsFitterInfo</text>
<text text-anchor="middle" x="464" y="-852.5" font-family="FreeSans" font-size="10.00" fill="#000000">::getRep</text>
</a>
</g>
</g>
<!-- Node5&#45;&gt;Node8 -->
<g id="edge7" class="edge">
<title>Node5&#45;&gt;Node8</title>
<path fill="none" stroke="#191970" d="M339.0976,-839.4393C357.4704,-842.6844 377.3757,-846.2001 395.7825,-849.4512"/>
<polygon fill="#191970" stroke="#191970" points="395.3788,-852.934 405.8351,-851.2267 396.5963,-846.0407 395.3788,-852.934"/>
</g>
<!-- Node9 -->
<g id="node9" class="node">
<title>Node9</title>
<g id="a_node9"><a xlink:href="../../d6/d8a/classgenfit_1_1Track.html#ad06e7a012624bdb03960826b5c9fcd93" target="_top" xlink:title="Get FitStatus for a AbsTrackRep. Per default, return FitStatus for cardinalRep.">
<polygon fill="none" stroke="#000000" points="391,-1049.5 391,-1069.5 537,-1069.5 537,-1049.5 391,-1049.5"/>
<text text-anchor="middle" x="464" y="-1056.5" font-family="FreeSans" font-size="10.00" fill="#000000">genfit::Track::getFitStatus</text>
</a>
</g>
</g>
<!-- Node5&#45;&gt;Node9 -->
<g id="edge8" class="edge">
<title>Node5&#45;&gt;Node9</title>
<path fill="none" stroke="#191970" d="M282.8097,-843.7038C298.9346,-867.2147 328.9113,-912.4684 350,-953.5 369.1288,-990.7183 354.2298,-1013.2646 386,-1040.5 387.7195,-1041.9741 389.535,-1043.3376 391.4274,-1044.5986"/>
<polygon fill="#191970" stroke="#191970" points="389.7238,-1047.656 400.1576,-1049.4962 393.1487,-1041.551 389.7238,-1047.656"/>
</g>
<!-- Node10 -->
<g id="node10" class="node">
<title>Node10</title>
<g id="a_node10"><a xlink:href="../../d0/d8d/classgenfit_1_1FitStatus.html#aab5247319ec0d2b1afc1e7b558168956" target="_top" xlink:title="genfit::FitStatus::\lgetPruneFlags">
<polygon fill="none" stroke="#000000" points="413,-794.5 413,-826.5 515,-826.5 515,-794.5 413,-794.5"/>
<text text-anchor="start" x="421" y="-813.5" font-family="FreeSans" font-size="10.00" fill="#000000">genfit::FitStatus::</text>
<text text-anchor="middle" x="464" y="-801.5" font-family="FreeSans" font-size="10.00" fill="#000000">getPruneFlags</text>
</a>
</g>
</g>
<!-- Node5&#45;&gt;Node10 -->
<g id="edge10" class="edge">
<title>Node5&#45;&gt;Node10</title>
<path fill="none" stroke="#191970" d="M339.0976,-821.5303C359.8571,-819.697 382.5732,-817.6909 402.8735,-815.8982"/>
<polygon fill="#191970" stroke="#191970" points="403.2814,-819.3759 412.9347,-815.0097 402.6655,-812.403 403.2814,-819.3759"/>
</g>
<!-- Node11 -->
<g id="node11" class="node">
<title>Node11</title>
<g id="a_node11"><a xlink:href="../../d6/d51/structgenfit_1_1PruneFlags.html#af4ac9db88e17d2c54f805601615b7da5" target="_top" xlink:title="check if any of the flags is set">
<polygon fill="none" stroke="#000000" points="410,-743.5 410,-775.5 518,-775.5 518,-743.5 410,-743.5"/>
<text text-anchor="start" x="418" y="-762.5" font-family="FreeSans" font-size="10.00" fill="#000000">genfit::PruneFlags</text>
<text text-anchor="middle" x="464" y="-750.5" font-family="FreeSans" font-size="10.00" fill="#000000">::isPruned</text>
</a>
</g>
</g>
<!-- Node5&#45;&gt;Node11 -->
<g id="edge11" class="edge">
<title>Node5&#45;&gt;Node11</title>
<path fill="none" stroke="#191970" d="M325.4619,-811.3591C333.744,-808.5819 342.1469,-805.5889 350,-802.5 366.4663,-796.0232 369.5776,-792.0872 386,-785.5 391.5166,-783.2872 397.3023,-781.1064 403.1235,-779.0057"/>
<polygon fill="#191970" stroke="#191970" points="404.6454,-782.1803 412.9126,-775.5544 402.3178,-775.5786 404.6454,-782.1803"/>
</g>
<!-- Node12 -->
<g id="node12" class="node">
<title>Node12</title>
<g id="a_node12"><a xlink:href="../../d6/d8a/classgenfit_1_1Track.html#a30a99be76e2dbd190d6567830eaeb0fc" target="_top" xlink:title="genfit::Track::getNumPoints">
<polygon fill="none" stroke="#000000" points="386,-704.5 386,-724.5 542,-724.5 542,-704.5 386,-704.5"/>
<text text-anchor="middle" x="464" y="-711.5" font-family="FreeSans" font-size="10.00" fill="#000000">genfit::Track::getNumPoints</text>
</a>
</g>
</g>
<!-- Node5&#45;&gt;Node12 -->
<g id="edge12" class="edge">
<title>Node5&#45;&gt;Node12</title>
<path fill="none" stroke="#191970" d="M336.6391,-811.366C341.4123,-808.8282 345.9392,-805.8935 350,-802.5 376.2403,-780.5722 359.1422,-755.667 386,-734.5 388.5802,-732.4665 391.344,-730.6378 394.236,-728.9934"/>
<polygon fill="#191970" stroke="#191970" points="395.7929,-732.1282 403.2406,-724.5929 392.7193,-725.839 395.7929,-732.1282"/>
</g>
<!-- Node13 -->
<g id="node13" class="node">
<title>Node13</title>
<g id="a_node13"><a xlink:href="../../d6/d51/structgenfit_1_1PruneFlags.html#afb7f2a8148397b833eff8bff099e02f4" target="_top" xlink:title="genfit::PruneFlags\l::Print">
<polygon fill="none" stroke="#000000" points="410,-653.5 410,-685.5 518,-685.5 518,-653.5 410,-653.5"/>
<text text-anchor="start" x="418" y="-672.5" font-family="FreeSans" font-size="10.00" fill="#000000">genfit::PruneFlags</text>
<text text-anchor="middle" x="464" y="-660.5" font-family="FreeSans" font-size="10.00" fill="#000000">::Print</text>
</a>
</g>
</g>
<!-- Node5&#45;&gt;Node13 -->
<g id="edge13" class="edge">
<title>Node5&#45;&gt;Node13</title>
<path fill="none" stroke="#191970" d="M338.3933,-811.4003C342.6032,-808.8563 346.5335,-805.9106 350,-802.5 385.7659,-767.3101 350.4713,-730.9294 386,-695.5 390.2736,-691.2384 395.2632,-687.6752 400.6157,-684.6961"/>
<polygon fill="#191970" stroke="#191970" points="402.4192,-687.7121 409.904,-680.2136 399.3767,-681.4078 402.4192,-687.7121"/>
</g>
<!-- Node14 -->
<g id="node14" class="node">
<title>Node14</title>
<g id="a_node14"><a xlink:href="../../d6/d51/structgenfit_1_1PruneFlags.html#a8f468c1a77b6a573dc5de81bf07e8c94" target="_top" xlink:title="check if all the given flags are set">
<polygon fill="none" stroke="#000000" points="410,-602.5 410,-634.5 518,-634.5 518,-602.5 410,-602.5"/>
<text text-anchor="start" x="418" y="-621.5" font-family="FreeSans" font-size="10.00" fill="#000000">genfit::PruneFlags</text>
<text text-anchor="middle" x="464" y="-609.5" font-family="FreeSans" font-size="10.00" fill="#000000">::hasFlags</text>
</a>
</g>
</g>
<!-- Node5&#45;&gt;Node14 -->
<g id="edge14" class="edge">
<title>Node5&#45;&gt;Node14</title>
<path fill="none" stroke="#191970" d="M339.1523,-811.5501C343.1312,-808.9698 346.8061,-805.9752 350,-802.5 398.7362,-749.4723 337.6211,-697.8539 386,-644.5 390.1155,-639.9613 395.0436,-636.2137 400.3962,-633.1194"/>
<polygon fill="#191970" stroke="#191970" points="402.3213,-636.0722 409.7363,-628.5046 399.2205,-629.7964 402.3213,-636.0722"/>
</g>
<!-- Node15 -->
<g id="node15" class="node">
<title>Node15</title>
<g id="a_node15"><a xlink:href="../../d6/d8a/classgenfit_1_1Track.html#ad8961b1ff4809ccde5f6f100ffbccb9d" target="_top" xlink:title="genfit::Track::getPointWith\lFitterInfo">
<polygon fill="none" stroke="#000000" points="389,-998.5 389,-1030.5 539,-1030.5 539,-998.5 389,-998.5"/>
<text text-anchor="start" x="397" y="-1017.5" font-family="FreeSans" font-size="10.00" fill="#000000">genfit::Track::getPointWith</text>
<text text-anchor="middle" x="464" y="-1005.5" font-family="FreeSans" font-size="10.00" fill="#000000">FitterInfo</text>
</a>
</g>
</g>
<!-- Node5&#45;&gt;Node15 -->
<g id="edge15" class="edge">
<title>Node5&#45;&gt;Node15</title>
<path fill="none" stroke="#191970" d="M281.0544,-843.6101C303.1494,-880.3962 358.0205,-968.9774 386,-989.5 387.8633,-990.8667 389.8043,-992.1606 391.8057,-993.3855"/>
<polygon fill="#191970" stroke="#191970" points="390.4545,-996.6343 400.9135,-998.3253 393.7919,-990.481 390.4545,-996.6343"/>
</g>
<!-- Node16 -->
<g id="node16" class="node">
<title>Node16</title>
<g id="a_node16"><a xlink:href="../../d8/db3/classgenfit_1_1Exception.html#a13619975a1e1be5c1bd504b254e01f7a" target="_top" xlink:title="Set fatal flag.">
<polygon fill="none" stroke="#000000" points="800,-537.5 800,-569.5 908,-569.5 908,-537.5 800,-537.5"/>
<text text-anchor="start" x="808" y="-556.5" font-family="FreeSans" font-size="10.00" fill="#000000">genfit::Exception::</text>
<text text-anchor="middle" x="854" y="-544.5" font-family="FreeSans" font-size="10.00" fill="#000000">setFatal</text>
</a>
</g>
</g>
<!-- Node5&#45;&gt;Node16 -->
<g id="edge17" class="edge">
<title>Node5&#45;&gt;Node16</title>
<path fill="none" stroke="#191970" d="M339.0083,-811.979C343.076,-809.3012 346.8061,-806.1671 350,-802.5 411.9051,-731.4218 316.5689,-657.2469 386,-593.5 415.0741,-566.8061 667.8476,-557.61 789.3335,-554.713"/>
<polygon fill="#191970" stroke="#191970" points="789.6961,-558.2056 799.6126,-554.4755 789.5343,-551.2075 789.6961,-558.2056"/>
</g>
<!-- Node17 -->
<g id="node17" class="node">
<title>Node17</title>
<g id="a_node17"><a xlink:href="../../dc/d22/namespacegenfit.html#ab9be5ccf8961ab01c0401d938a1f628f" target="_top" xlink:title="Calculate weighted average between two MeasuredStateOnPlanes.">
<polygon fill="none" stroke="#000000" points="393.5,-326.5 393.5,-346.5 534.5,-346.5 534.5,-326.5 393.5,-326.5"/>
<text text-anchor="middle" x="464" y="-333.5" font-family="FreeSans" font-size="10.00" fill="#000000">genfit::calcAverageState</text>
</a>
</g>
</g>
<!-- Node5&#45;&gt;Node17 -->
<g id="edge18" class="edge">
<title>Node5&#45;&gt;Node17</title>
<path fill="none" stroke="#191970" d="M339.106,-812.0631C343.1511,-809.3658 346.8494,-806.2044 350,-802.5 420.7332,-719.3326 359.8595,-665.5032 386,-559.5 405.0297,-482.3319 439.9429,-394.2141 455.7896,-355.9397"/>
<polygon fill="#191970" stroke="#191970" points="459.1008,-357.0931 459.7245,-346.5166 452.6414,-354.3957 459.1008,-357.0931"/>
</g>
<!-- Node9&#45;&gt;Node4 -->
<g id="edge9" class="edge">
<title>Node9&#45;&gt;Node4</title>
<path fill="none" stroke="#191970" d="M515.2474,-1069.5435C541.7092,-1074.7294 574.1788,-1081.0928 601.9338,-1086.5323"/>
<polygon fill="#191970" stroke="#191970" points="601.4397,-1090.0019 611.9262,-1088.4906 602.7861,-1083.1326 601.4397,-1090.0019"/>
</g>
<!-- Node15&#45;&gt;Node4 -->
<g id="edge16" class="edge">
<title>Node15&#45;&gt;Node4</title>
<path fill="none" stroke="#191970" d="M515.1042,-1030.5127C524.1368,-1033.6324 533.3988,-1037.0209 542,-1040.5 574.4107,-1053.6096 610.4057,-1071.2819 634.6435,-1083.6616"/>
<polygon fill="#191970" stroke="#191970" points="633.1448,-1086.8266 643.6383,-1088.2888 636.347,-1080.6019 633.1448,-1086.8266"/>
</g>
<!-- Node18 -->
<g id="node18" class="node">
<title>Node18</title>
<g id="a_node18"><a xlink:href="../../de/dd5/classgenfit_1_1StateOnPlane.html#a30c7e8d87fa50205baa927d4ceccb594" target="_top" xlink:title="genfit::StateOnPlane\l::getPlane">
<polygon fill="none" stroke="#000000" points="602.5,-473.5 602.5,-505.5 723.5,-505.5 723.5,-473.5 602.5,-473.5"/>
<text text-anchor="start" x="610.5" y="-492.5" font-family="FreeSans" font-size="10.00" fill="#000000">genfit::StateOnPlane</text>
<text text-anchor="middle" x="663" y="-480.5" font-family="FreeSans" font-size="10.00" fill="#000000">::getPlane</text>
</a>
</g>
</g>
<!-- Node17&#45;&gt;Node18 -->
<g id="edge19" class="edge">
<title>Node17&#45;&gt;Node18</title>
<path fill="none" stroke="#191970" d="M470.343,-346.7704C485.7378,-370.8432 527.5501,-431.3007 578,-463.5 582.6342,-466.4577 587.6246,-469.0958 592.7825,-471.4458"/>
<polygon fill="#191970" stroke="#191970" points="591.6295,-474.757 602.2065,-475.3717 594.3214,-468.2953 591.6295,-474.757"/>
</g>
<!-- Node19 -->
<g id="node19" class="node">
<title>Node19</title>
<g id="a_node19"><a xlink:href="../../db/d45/namespacegenfit_1_1tools.html#ad70b08610012fcd630091c66be5cd0c4" target="_top" xlink:title="Invert a matrix, throwing an Exception when inversion fails. Optional calculation of determinant...">
<polygon fill="none" stroke="#000000" points="590.5,-524.5 590.5,-544.5 735.5,-544.5 735.5,-524.5 590.5,-524.5"/>
<text text-anchor="middle" x="663" y="-531.5" font-family="FreeSans" font-size="10.00" fill="#000000">genfit::tools::invertMatrix</text>
</a>
</g>
</g>
<!-- Node17&#45;&gt;Node19 -->
<g id="edge20" class="edge">
<title>Node17&#45;&gt;Node19</title>
<path fill="none" stroke="#191970" d="M467.2788,-346.5701C477.8403,-377.3222 514.0596,-470.6384 578,-515.5 580.379,-517.1691 582.8798,-518.6947 585.4708,-520.0889"/>
<polygon fill="#191970" stroke="#191970" points="584.0394,-523.2833 594.5814,-524.3406 586.9997,-516.94 584.0394,-523.2833"/>
</g>
<!-- Node20 -->
<g id="node20" class="node">
<title>Node20</title>
<g id="a_node20"><a xlink:href="../../d2/d74/classgenfit_1_1MeasuredStateOnPlane.html#adea48432beb9b8fc30bc4bf05b4c5547" target="_top" xlink:title="genfit::MeasuredStateOnPlane\l::getCov">
<polygon fill="none" stroke="#000000" points="578,-422.5 578,-454.5 748,-454.5 748,-422.5 578,-422.5"/>
<text text-anchor="start" x="586" y="-441.5" font-family="FreeSans" font-size="10.00" fill="#000000">genfit::MeasuredStateOnPlane</text>
<text text-anchor="middle" x="663" y="-429.5" font-family="FreeSans" font-size="10.00" fill="#000000">::getCov</text>
</a>
</g>
</g>
<!-- Node17&#45;&gt;Node20 -->
<g id="edge22" class="edge">
<title>Node17&#45;&gt;Node20</title>
<path fill="none" stroke="#191970" d="M476.5942,-346.7069C496.8587,-362.6981 538.4467,-393.7618 578,-412.5 582.8811,-414.8124 588.0164,-416.9785 593.245,-418.9951"/>
<polygon fill="#191970" stroke="#191970" points="592.129,-422.3136 602.7228,-422.4627 594.5342,-415.7398 592.129,-422.3136"/>
</g>
<!-- Node21 -->
<g id="node21" class="node">
<title>Node21</title>
<g id="a_node21"><a xlink:href="../../de/dd5/classgenfit_1_1StateOnPlane.html#ad93a356012617fff04a557d34bd84ce5" target="_top" xlink:title="genfit::StateOnPlane\l::setState">
<polygon fill="none" stroke="#000000" points="602.5,-371.5 602.5,-403.5 723.5,-403.5 723.5,-371.5 602.5,-371.5"/>
<text text-anchor="start" x="610.5" y="-390.5" font-family="FreeSans" font-size="10.00" fill="#000000">genfit::StateOnPlane</text>
<text text-anchor="middle" x="663" y="-378.5" font-family="FreeSans" font-size="10.00" fill="#000000">::setState</text>
</a>
</g>
</g>
<!-- Node17&#45;&gt;Node21 -->
<g id="edge23" class="edge">
<title>Node17&#45;&gt;Node21</title>
<path fill="none" stroke="#191970" d="M503.316,-346.576C528.6559,-353.0701 562.3377,-361.7021 592.2339,-369.364"/>
<polygon fill="#191970" stroke="#191970" points="591.6541,-372.8284 602.21,-371.9207 593.392,-366.0476 591.6541,-372.8284"/>
</g>
<!-- Node22 -->
<g id="node22" class="node">
<title>Node22</title>
<g id="a_node22"><a xlink:href="../../de/dd5/classgenfit_1_1StateOnPlane.html#a61a05215bec767cf6919b083808a37d2" target="_top" xlink:title="genfit::StateOnPlane\l::getState">
<polygon fill="none" stroke="#000000" points="602.5,-320.5 602.5,-352.5 723.5,-352.5 723.5,-320.5 602.5,-320.5"/>
<text text-anchor="start" x="610.5" y="-339.5" font-family="FreeSans" font-size="10.00" fill="#000000">genfit::StateOnPlane</text>
<text text-anchor="middle" x="663" y="-327.5" font-family="FreeSans" font-size="10.00" fill="#000000">::getState</text>
</a>
</g>
</g>
<!-- Node17&#45;&gt;Node22 -->
<g id="edge24" class="edge">
<title>Node17&#45;&gt;Node22</title>
<path fill="none" stroke="#191970" d="M534.7203,-336.5C553.3837,-336.5 573.5253,-336.5 592.1933,-336.5"/>
<polygon fill="#191970" stroke="#191970" points="592.3941,-340.0001 602.3941,-336.5 592.3941,-333.0001 592.3941,-340.0001"/>
</g>
<!-- Node23 -->
<g id="node23" class="node">
<title>Node23</title>
<g id="a_node23"><a xlink:href="../../d2/d74/classgenfit_1_1MeasuredStateOnPlane.html#aa50d18e563eb6659dcb1dc64660f400e" target="_top" xlink:title="genfit::MeasuredStateOnPlane\l::setCov">
<polygon fill="none" stroke="#000000" points="578,-269.5 578,-301.5 748,-301.5 748,-269.5 578,-269.5"/>
<text text-anchor="start" x="586" y="-288.5" font-family="FreeSans" font-size="10.00" fill="#000000">genfit::MeasuredStateOnPlane</text>
<text text-anchor="middle" x="663" y="-276.5" font-family="FreeSans" font-size="10.00" fill="#000000">::setCov</text>
</a>
</g>
</g>
<!-- Node17&#45;&gt;Node23 -->
<g id="edge25" class="edge">
<title>Node17&#45;&gt;Node23</title>
<path fill="none" stroke="#191970" d="M503.316,-326.424C528.1471,-320.0603 560.9884,-311.6437 590.4285,-304.0987"/>
<polygon fill="#191970" stroke="#191970" points="591.4476,-307.4507 600.2656,-301.5777 589.7098,-300.6699 591.4476,-307.4507"/>
</g>
<!-- Node24 -->
<g id="node24" class="node">
<title>Node24</title>
<g id="a_node24"><a xlink:href="../../db/d45/namespacegenfit_1_1tools.html#a98e2c1ec0611289beb34a8bfb13980a7" target="_top" xlink:title="Inverts the transpose of the upper right matrix R into inv.">
<polygon fill="none" stroke="#000000" points="593,-179.5 593,-211.5 733,-211.5 733,-179.5 593,-179.5"/>
<text text-anchor="start" x="601" y="-198.5" font-family="FreeSans" font-size="10.00" fill="#000000">genfit::tools::transposed</text>
<text text-anchor="middle" x="663" y="-186.5" font-family="FreeSans" font-size="10.00" fill="#000000">Invert</text>
</a>
</g>
</g>
<!-- Node17&#45;&gt;Node24 -->
<g id="edge26" class="edge">
<title>Node17&#45;&gt;Node24</title>
<path fill="none" stroke="#191970" d="M526.3707,-326.4201C532.0409,-323.8134 537.3782,-320.5589 542,-316.5 574.3704,-288.0719 547.0715,-256.4905 578,-226.5 581.7795,-222.8352 586.0262,-219.5986 590.5531,-216.7409"/>
<polygon fill="#191970" stroke="#191970" points="592.5401,-219.6397 599.5548,-211.6996 589.1197,-213.5323 592.5401,-219.6397"/>
</g>
<!-- Node26 -->
<g id="node26" class="node">
<title>Node26</title>
<g id="a_node26"><a xlink:href="../../d7/dd8/bk_8f.html#a084aa72b16f800aa352c4efed50eb2af" target="_top" xlink:title="bk">
<polygon fill="none" stroke="#000000" points="964.5,-207.5 964.5,-227.5 993.5,-227.5 993.5,-207.5 964.5,-207.5"/>
<text text-anchor="middle" x="979" y="-214.5" font-family="FreeSans" font-size="10.00" fill="#000000">bk</text>
</a>
</g>
</g>
<!-- Node17&#45;&gt;Node26 -->
<g id="edge30" class="edge">
<title>Node17&#45;&gt;Node26</title>
<path fill="none" stroke="#191970" d="M523.2582,-326.482C529.9298,-323.8835 536.3489,-320.6138 542,-316.5 566.2243,-298.8659 552.549,-275.3122 578,-259.5 609.9755,-239.6343 871.35,-223.4991 954.0265,-218.8517"/>
<polygon fill="#191970" stroke="#191970" points="954.4642,-222.3329 964.255,-218.2844 954.0765,-215.3436 954.4642,-222.3329"/>
</g>
<!-- Node27 -->
<g id="node27" class="node">
<title>Node27</title>
<g id="a_node27"><a xlink:href="../../da/d55/TPCRateLayered_8m.html#a7507ef556477c204b499f1e189d40796" target="_top" xlink:title="sum">
<polygon fill="none" stroke="#000000" points="960,-140.5 960,-160.5 998,-160.5 998,-140.5 960,-140.5"/>
<text text-anchor="middle" x="979" y="-147.5" font-family="FreeSans" font-size="10.00" fill="#000000">sum</text>
</a>
</g>
</g>
<!-- Node17&#45;&gt;Node27 -->
<g id="edge33" class="edge">
<title>Node17&#45;&gt;Node27</title>
<path fill="none" stroke="#191970" d="M528.1093,-326.497C533.2286,-323.8574 537.9691,-320.5748 542,-316.5 589.3045,-268.6803 526.0795,-212.2634 578,-169.5 634.3774,-123.0657 867.2262,-139.9284 949.7995,-147.5686"/>
<polygon fill="#191970" stroke="#191970" points="949.6972,-151.0746 959.9832,-148.5354 950.3588,-144.1059 949.6972,-151.0746"/>
</g>
<!-- Node28 -->
<g id="node28" class="node">
<title>Node28</title>
<g id="a_node28"><a xlink:href="../../db/d45/namespacegenfit_1_1tools.html#a409cdc24f5908845f845bf0c4a2d4961" target="_top" xlink:title="Replaces A with an upper right matrix connected to A by an orthongonal transformation. I.e., it computes R from a QR decomposition of A = QR, replacing A.">
<polygon fill="none" stroke="#000000" points="804.5,-101.5 804.5,-121.5 903.5,-121.5 903.5,-101.5 804.5,-101.5"/>
<text text-anchor="middle" x="854" y="-108.5" font-family="FreeSans" font-size="10.00" fill="#000000">genfit::tools::QR</text>
</a>
</g>
</g>
<!-- Node17&#45;&gt;Node28 -->
<g id="edge31" class="edge">
<title>Node17&#45;&gt;Node28</title>
<path fill="none" stroke="#191970" d="M528.6667,-326.4804C533.6044,-323.8372 538.1533,-320.5586 542,-316.5 598.122,-257.2858 517.3071,-191.0195 578,-136.5 608.7459,-108.8814 722.5272,-107.073 794.0473,-108.8712"/>
<polygon fill="#191970" stroke="#191970" points="794.1831,-112.3763 804.2779,-109.16 794.3807,-105.3791 794.1831,-112.3763"/>
</g>
<!-- Node29 -->
<g id="node29" class="node">
<title>Node29</title>
<g id="a_node29"><a xlink:href="../../de/dd5/classgenfit_1_1StateOnPlane.html#a14f25e4575846dcb14bd91ddb2a534d2" target="_top" xlink:title="genfit::StateOnPlane\l::getRep">
<polygon fill="none" stroke="#000000" points="602.5,-51.5 602.5,-83.5 723.5,-83.5 723.5,-51.5 602.5,-51.5"/>
<text text-anchor="start" x="610.5" y="-70.5" font-family="FreeSans" font-size="10.00" fill="#000000">genfit::StateOnPlane</text>
<text text-anchor="middle" x="663" y="-58.5" font-family="FreeSans" font-size="10.00" fill="#000000">::getRep</text>
</a>
</g>
</g>
<!-- Node17&#45;&gt;Node29 -->
<g id="edge34" class="edge">
<title>Node17&#45;&gt;Node29</title>
<path fill="none" stroke="#191970" d="M529.1813,-326.4161C533.9455,-323.7791 538.3168,-320.5198 542,-316.5 608.341,-244.096 515.312,-174.0888 578,-98.5 582.2114,-93.4219 587.3289,-89.1756 592.9418,-85.6249"/>
<polygon fill="#191970" stroke="#191970" points="595.0245,-88.4746 602.1107,-80.5982 591.6594,-82.3365 595.0245,-88.4746"/>
</g>
<!-- Node30 -->
<g id="node30" class="node">
<title>Node30</title>
<g id="a_node30"><a xlink:href="../../de/dd5/classgenfit_1_1StateOnPlane.html#a2801bf4fa1196147472cc1807281e23d" target="_top" xlink:title="genfit::StateOnPlane\l::getAuxInfo">
<polygon fill="none" stroke="#000000" points="602.5,-.5 602.5,-32.5 723.5,-32.5 723.5,-.5 602.5,-.5"/>
<text text-anchor="start" x="610.5" y="-19.5" font-family="FreeSans" font-size="10.00" fill="#000000">genfit::StateOnPlane</text>
<text text-anchor="middle" x="663" y="-7.5" font-family="FreeSans" font-size="10.00" fill="#000000">::getAuxInfo</text>
</a>
</g>
</g>
<!-- Node17&#45;&gt;Node30 -->
<g id="edge35" class="edge">
<title>Node17&#45;&gt;Node30</title>
<path fill="none" stroke="#191970" d="M529.6908,-326.3416C534.2818,-323.7128 538.4773,-320.4763 542,-316.5 623.7397,-224.2347 497.8897,-135.1835 578,-41.5 582.1987,-36.59 587.3075,-32.6181 592.9149,-29.4088"/>
<polygon fill="#191970" stroke="#191970" points="594.6055,-32.4789 602.0778,-24.9679 591.5525,-26.1797 594.6055,-32.4789"/>
</g>
<!-- Node19&#45;&gt;Node16 -->
<g id="edge21" class="edge">
<title>Node19&#45;&gt;Node16</title>
<path fill="none" stroke="#191970" d="M735.7538,-541.7373C753.5554,-543.5081 772.4767,-545.3903 789.8427,-547.1179"/>
<polygon fill="#191970" stroke="#191970" points="789.5703,-550.6079 799.8676,-548.1151 790.2632,-543.6423 789.5703,-550.6079"/>
</g>
<!-- Node25 -->
<g id="node25" class="node">
<title>Node25</title>
<g id="a_node25"><a xlink:href="../../db/d45/namespacegenfit_1_1tools.html#a97e35224c7d7ec5d63f23ffda85aef4c" target="_top" xlink:title="Solves R^t x = b, replacing b with the solution for x. R is assumed to be upper diagonal.">
<polygon fill="none" stroke="#000000" points="784,-179.5 784,-211.5 924,-211.5 924,-179.5 784,-179.5"/>
<text text-anchor="start" x="792" y="-198.5" font-family="FreeSans" font-size="10.00" fill="#000000">genfit::tools::transposed</text>
<text text-anchor="middle" x="854" y="-186.5" font-family="FreeSans" font-size="10.00" fill="#000000">ForwardSubstitution</text>
</a>
</g>
</g>
<!-- Node24&#45;&gt;Node25 -->
<g id="edge27" class="edge">
<title>Node24&#45;&gt;Node25</title>
<path fill="none" stroke="#191970" d="M733.0368,-195.5C746.272,-195.5 760.2112,-195.5 773.7322,-195.5"/>
<polygon fill="#191970" stroke="#191970" points="773.9717,-199.0001 783.9717,-195.5 773.9716,-192.0001 773.9717,-199.0001"/>
</g>
<!-- Node25&#45;&gt;Node26 -->
<g id="edge28" class="edge">
<title>Node25&#45;&gt;Node26</title>
<path fill="none" stroke="#191970" d="M924.1732,-207.8505C934.9348,-209.7445 945.3882,-211.5843 954.2312,-213.1407"/>
<polygon fill="#191970" stroke="#191970" points="953.676,-216.5967 964.1314,-214.8831 954.8894,-209.7027 953.676,-216.5967"/>
</g>
<!-- Node25&#45;&gt;Node27 -->
<g id="edge29" class="edge">
<title>Node25&#45;&gt;Node27</title>
<path fill="none" stroke="#191970" d="M898.7748,-179.3811C916.0145,-173.1748 935.2158,-166.2623 950.5101,-160.7564"/>
<polygon fill="#191970" stroke="#191970" points="951.7132,-164.0432 959.9366,-157.3628 949.3421,-157.457 951.7132,-164.0432"/>
</g>
<!-- Node28&#45;&gt;Node27 -->
<g id="edge32" class="edge">
<title>Node28&#45;&gt;Node27</title>
<path fill="none" stroke="#191970" d="M886.1906,-121.5435C905.9347,-127.7036 931.0034,-135.5251 950.1086,-141.4859"/>
<polygon fill="#191970" stroke="#191970" points="949.1775,-144.8617 959.7662,-144.499 951.2625,-138.1794 949.1775,-144.8617"/>
</g>
<!-- Node31&#45;&gt;Node4 -->
<g id="edge37" class="edge">
<title>Node31&#45;&gt;Node4</title>
<path fill="none" stroke="#191970" d="M323.7808,-1105.3623C343.2505,-1108.2514 365.5763,-1111.0799 386,-1112.5 455.1663,-1117.3092 472.7816,-1116.4911 542,-1112.5 553.7106,-1111.8248 566.0271,-1110.7849 578.1372,-1109.5701"/>
<polygon fill="#191970" stroke="#191970" points="578.6618,-1113.0344 588.2432,-1108.5126 577.9333,-1106.0724 578.6618,-1113.0344"/>
</g>
<!-- Node33&#45;&gt;Node4 -->
<g id="edge40" class="edge">
<title>Node33&#45;&gt;Node4</title>
<path fill="none" stroke="#191970" d="M283.825,-994.6659C302.8222,-1018.176 341.729,-1061.0086 386,-1079.5 444.3082,-1103.8545 515.5349,-1108.2486 571.1602,-1106.7384"/>
<polygon fill="#191970" stroke="#191970" points="571.4834,-1110.2296 581.3585,-1106.3912 571.2452,-1103.2336 571.4834,-1110.2296"/>
</g>
<!-- Node34&#45;&gt;Node35 -->
<g id="edge42" class="edge">
<title>Node34&#45;&gt;Node35</title>
<path fill="none" stroke="#191970" d="M287.003,-391.4507C307.6824,-370.9843 346.3177,-335.9257 386,-316.5 390.3853,-314.3533 395.031,-312.4383 399.7837,-310.7318"/>
<polygon fill="#191970" stroke="#191970" points="401.2201,-313.9447 409.6404,-307.5144 399.048,-307.2903 401.2201,-313.9447"/>
</g>
</g>
</svg>
