<?xml version="1.0" encoding="UTF-8" standalone="no"?>
<!DOCTYPE svg PUBLIC "-//W3C//DTD SVG 1.1//EN"
 "http://www.w3.org/Graphics/SVG/1.1/DTD/svg11.dtd">
<!-- Generated by graphviz version 2.40.1 (20161225.0304)
 -->
<!-- Title: TpcPrototypeGenFitTrkFitter::FillSvtxVertexMap Pages: 1 -->
<svg width="376pt" height="437pt"
 viewBox="0.00 0.00 376.00 437.00" xmlns="http://www.w3.org/2000/svg" xmlns:xlink="http://www.w3.org/1999/xlink">
<g id="graph0" class="graph" transform="scale(1 1) rotate(0) translate(4 433)">
<title>TpcPrototypeGenFitTrkFitter::FillSvtxVertexMap</title>
<!-- Node1 -->
<g id="node1" class="node">
<title>Node1</title>
<polygon fill="#bfbfbf" stroke="#000000" points="0,-204.5 0,-236.5 157,-236.5 157,-204.5 0,-204.5"/>
<text text-anchor="start" x="8" y="-223.5" font-family="FreeSans" font-size="10.00" fill="#000000">TpcPrototypeGenFitTrkFitter</text>
<text text-anchor="middle" x="78.5" y="-211.5" font-family="FreeSans" font-size="10.00" fill="#000000">::FillSvtxVertexMap</text>
</g>
<!-- Node2 -->
<g id="node2" class="node">
<title>Node2</title>
<g id="a_node2"><a xlink:href="../../db/dd7/classSvtxVertexMap.html#a69bfe4ad3d711439ac9fa017d57a7446" target="_top" xlink:title="SvtxVertexMap::clear">
<polygon fill="none" stroke="#000000" points="218.5,-408.5 218.5,-428.5 342.5,-428.5 342.5,-408.5 218.5,-408.5"/>
<text text-anchor="middle" x="280.5" y="-415.5" font-family="FreeSans" font-size="10.00" fill="#000000">SvtxVertexMap::clear</text>
</a>
</g>
</g>
<!-- Node1&#45;&gt;Node2 -->
<g id="edge1" class="edge">
<title>Node1&#45;&gt;Node2</title>
<path fill="none" stroke="#191970" d="M83.9413,-236.6673C96.7954,-272.242 132.5833,-357.4736 193,-399.5 197.8233,-402.8552 203.1298,-405.6338 208.6716,-407.9329"/>
<polygon fill="#191970" stroke="#191970" points="207.5821,-411.2606 218.1764,-411.3667 209.9606,-404.6771 207.5821,-411.2606"/>
</g>
<!-- Node3 -->
<g id="node3" class="node">
<title>Node3</title>
<g id="a_node3"><a xlink:href="../../db/da0/classgenfit_1_1GFRaveVertex.html#aa226bc70ee2447569467de599e6d05e7" target="_top" xlink:title="genfit::GFRaveVertex\l::getChi2">
<polygon fill="none" stroke="#000000" points="218.5,-357.5 218.5,-389.5 342.5,-389.5 342.5,-357.5 218.5,-357.5"/>
<text text-anchor="start" x="226.5" y="-376.5" font-family="FreeSans" font-size="10.00" fill="#000000">genfit::GFRaveVertex</text>
<text text-anchor="middle" x="280.5" y="-364.5" font-family="FreeSans" font-size="10.00" fill="#000000">::getChi2</text>
</a>
</g>
</g>
<!-- Node1&#45;&gt;Node3 -->
<g id="edge2" class="edge">
<title>Node1&#45;&gt;Node3</title>
<path fill="none" stroke="#191970" d="M88.6727,-236.9327C106.4342,-264.2448 145.7507,-318.8997 193,-348.5 197.9747,-351.6165 203.3486,-354.355 208.901,-356.7595"/>
<polygon fill="#191970" stroke="#191970" points="207.7883,-360.083 218.3749,-360.4987 210.3582,-353.5718 207.7883,-360.083"/>
</g>
<!-- Node4 -->
<g id="node4" class="node">
<title>Node4</title>
<g id="a_node4"><a xlink:href="../../db/da0/classgenfit_1_1GFRaveVertex.html#a25d5cd4f3c081231c4d77f80fefbade1" target="_top" xlink:title="get 3x3 covariance (error) of position.">
<polygon fill="none" stroke="#000000" points="218.5,-306.5 218.5,-338.5 342.5,-338.5 342.5,-306.5 218.5,-306.5"/>
<text text-anchor="start" x="226.5" y="-325.5" font-family="FreeSans" font-size="10.00" fill="#000000">genfit::GFRaveVertex</text>
<text text-anchor="middle" x="280.5" y="-313.5" font-family="FreeSans" font-size="10.00" fill="#000000">::getCov</text>
</a>
</g>
</g>
<!-- Node1&#45;&gt;Node4 -->
<g id="edge3" class="edge">
<title>Node1&#45;&gt;Node4</title>
<path fill="none" stroke="#191970" d="M98.4314,-236.7693C120.4035,-253.9955 157.3747,-280.9384 193,-297.5 198.0143,-299.831 203.293,-301.992 208.6701,-303.9858"/>
<polygon fill="#191970" stroke="#191970" points="207.8246,-307.3979 218.4194,-307.3947 210.1351,-300.7901 207.8246,-307.3979"/>
</g>
<!-- Node5 -->
<g id="node5" class="node">
<title>Node5</title>
<g id="a_node5"><a xlink:href="../../db/da0/classgenfit_1_1GFRaveVertex.html#a49fda0bfc9f1bd338c21ca973e8552b9" target="_top" xlink:title="genfit::GFRaveVertex\l::getNdf">
<polygon fill="none" stroke="#000000" points="218.5,-255.5 218.5,-287.5 342.5,-287.5 342.5,-255.5 218.5,-255.5"/>
<text text-anchor="start" x="226.5" y="-274.5" font-family="FreeSans" font-size="10.00" fill="#000000">genfit::GFRaveVertex</text>
<text text-anchor="middle" x="280.5" y="-262.5" font-family="FreeSans" font-size="10.00" fill="#000000">::getNdf</text>
</a>
</g>
</g>
<!-- Node1&#45;&gt;Node5 -->
<g id="edge4" class="edge">
<title>Node1&#45;&gt;Node5</title>
<path fill="none" stroke="#191970" d="M142.1368,-236.5667C163.1968,-241.8838 186.7798,-247.838 208.4267,-253.3033"/>
<polygon fill="#191970" stroke="#191970" points="207.6678,-256.7214 218.2203,-255.7759 209.3814,-249.9344 207.6678,-256.7214"/>
</g>
<!-- Node6 -->
<g id="node6" class="node">
<title>Node6</title>
<g id="a_node6"><a xlink:href="../../db/da0/classgenfit_1_1GFRaveVertex.html#a47ada7742989e3e294a3cc9f1342fee7" target="_top" xlink:title="Number of tracks the vertex is made of.">
<polygon fill="none" stroke="#000000" points="218.5,-204.5 218.5,-236.5 342.5,-236.5 342.5,-204.5 218.5,-204.5"/>
<text text-anchor="start" x="226.5" y="-223.5" font-family="FreeSans" font-size="10.00" fill="#000000">genfit::GFRaveVertex</text>
<text text-anchor="middle" x="280.5" y="-211.5" font-family="FreeSans" font-size="10.00" fill="#000000">::getNTracks</text>
</a>
</g>
</g>
<!-- Node1&#45;&gt;Node6 -->
<g id="edge5" class="edge">
<title>Node1&#45;&gt;Node6</title>
<path fill="none" stroke="#191970" d="M157.1769,-220.5C173.9649,-220.5 191.6191,-220.5 208.1559,-220.5"/>
<polygon fill="#191970" stroke="#191970" points="208.2903,-224.0001 218.2903,-220.5 208.2903,-217.0001 208.2903,-224.0001"/>
</g>
<!-- Node7 -->
<g id="node7" class="node">
<title>Node7</title>
<g id="a_node7"><a xlink:href="../../db/da0/classgenfit_1_1GFRaveVertex.html#a14875bcfb7c0b9373ec2bb6010c78d8d" target="_top" xlink:title="genfit::GFRaveVertex\l::getParameters">
<polygon fill="none" stroke="#000000" points="218.5,-153.5 218.5,-185.5 342.5,-185.5 342.5,-153.5 218.5,-153.5"/>
<text text-anchor="start" x="226.5" y="-172.5" font-family="FreeSans" font-size="10.00" fill="#000000">genfit::GFRaveVertex</text>
<text text-anchor="middle" x="280.5" y="-160.5" font-family="FreeSans" font-size="10.00" fill="#000000">::getParameters</text>
</a>
</g>
</g>
<!-- Node1&#45;&gt;Node7 -->
<g id="edge6" class="edge">
<title>Node1&#45;&gt;Node7</title>
<path fill="none" stroke="#191970" d="M142.1368,-204.4333C163.1968,-199.1162 186.7798,-193.162 208.4267,-187.6967"/>
<polygon fill="#191970" stroke="#191970" points="209.3814,-191.0656 218.2203,-185.2241 207.6678,-184.2786 209.3814,-191.0656"/>
</g>
<!-- Node8 -->
<g id="node8" class="node">
<title>Node8</title>
<g id="a_node8"><a xlink:href="../../db/da0/classgenfit_1_1GFRaveVertex.html#a4818bdeb821d19b283ae026af388e92b" target="_top" xlink:title="get Position">
<polygon fill="none" stroke="#000000" points="218.5,-102.5 218.5,-134.5 342.5,-134.5 342.5,-102.5 218.5,-102.5"/>
<text text-anchor="start" x="226.5" y="-121.5" font-family="FreeSans" font-size="10.00" fill="#000000">genfit::GFRaveVertex</text>
<text text-anchor="middle" x="280.5" y="-109.5" font-family="FreeSans" font-size="10.00" fill="#000000">::getPos</text>
</a>
</g>
</g>
<!-- Node1&#45;&gt;Node8 -->
<g id="edge7" class="edge">
<title>Node1&#45;&gt;Node8</title>
<path fill="none" stroke="#191970" d="M98.9061,-204.2197C120.9847,-187.2803 157.7714,-160.9736 193,-144.5 198.0244,-142.1505 203.3105,-139.9574 208.6928,-137.922"/>
<polygon fill="#191970" stroke="#191970" points="210.2144,-141.0948 218.4491,-134.4286 207.8546,-134.5046 210.2144,-141.0948"/>
</g>
<!-- Node9 -->
<g id="node9" class="node">
<title>Node9</title>
<g id="a_node9"><a xlink:href="../../d8/d8c/classgenfit_1_1GFRaveTrackParameters.html#ae57b8111cfcb4426a9d00096ad045de4" target="_top" xlink:title="genfit::GFRaveTrackParameters\l::getTrack">
<polygon fill="none" stroke="#000000" points="193,-51.5 193,-83.5 368,-83.5 368,-51.5 193,-51.5"/>
<text text-anchor="start" x="201" y="-70.5" font-family="FreeSans" font-size="10.00" fill="#000000">genfit::GFRaveTrackParameters</text>
<text text-anchor="middle" x="280.5" y="-58.5" font-family="FreeSans" font-size="10.00" fill="#000000">::getTrack</text>
</a>
</g>
</g>
<!-- Node1&#45;&gt;Node9 -->
<g id="edge8" class="edge">
<title>Node1&#45;&gt;Node9</title>
<path fill="none" stroke="#191970" d="M88.7387,-204.2521C106.5974,-177.2366 146.0534,-123.1279 193,-93.5 196.2039,-91.4781 199.5724,-89.607 203.0469,-87.8763"/>
<polygon fill="#191970" stroke="#191970" points="204.7869,-90.9305 212.4513,-83.6156 201.8981,-84.5544 204.7869,-90.9305"/>
</g>
<!-- Node10 -->
<g id="node10" class="node">
<title>Node10</title>
<g id="a_node10"><a xlink:href="../../db/dd7/classSvtxVertexMap.html#aaee5941f2bcac17405bc668b1b8322cc" target="_top" xlink:title="legacy interface. Add vertex to container. Note the container does not take ownership">
<polygon fill="none" stroke="#000000" points="216.5,-.5 216.5,-32.5 344.5,-32.5 344.5,-.5 216.5,-.5"/>
<text text-anchor="start" x="224.5" y="-19.5" font-family="FreeSans" font-size="10.00" fill="#000000">SvtxVertexMap::insert</text>
<text text-anchor="middle" x="280.5" y="-7.5" font-family="FreeSans" font-size="10.00" fill="#000000">_clone</text>
</a>
</g>
</g>
<!-- Node1&#45;&gt;Node10 -->
<g id="edge9" class="edge">
<title>Node1&#45;&gt;Node10</title>
<path fill="none" stroke="#191970" d="M84.3047,-204.4856C97.7724,-169.609 134.5253,-86.402 193,-42.5 197.3564,-39.2293 202.1205,-36.3681 207.1043,-33.8655"/>
<polygon fill="#191970" stroke="#191970" points="208.5909,-37.0347 216.2718,-29.7371 205.7166,-30.652 208.5909,-37.0347"/>
</g>
</g>
</svg>
