<?xml version="1.0" encoding="UTF-8" standalone="no"?>
<!DOCTYPE svg PUBLIC "-//W3C//DTD SVG 1.1//EN"
 "http://www.w3.org/Graphics/SVG/1.1/DTD/svg11.dtd">
<!-- Generated by graphviz version 2.40.1 (20161225.0304)
 -->
<!-- Title: RawCluster::get_property_info Pages: 1 -->
<svg width="573pt" height="345pt"
 viewBox="0.00 0.00 573.00 345.00" xmlns="http://www.w3.org/2000/svg" xmlns:xlink="http://www.w3.org/1999/xlink">
<g id="graph0" class="graph" transform="scale(1 1) rotate(0) translate(4 341)">
<title>RawCluster::get_property_info</title>
<!-- Node1 -->
<g id="node1" class="node">
<title>Node1</title>
<polygon fill="#bfbfbf" stroke="#000000" points="0,-155.5 0,-175.5 168,-175.5 168,-155.5 0,-155.5"/>
<text text-anchor="middle" x="84" y="-162.5" font-family="FreeSans" font-size="10.00" fill="#000000">RawCluster::get_property_info</text>
</g>
<!-- Node2 -->
<g id="node2" class="node">
<title>Node2</title>
<g id="a_node2"><a xlink:href="../../d9/d6e/group__property__map.html#ga54e1537c84142df9c1d7b8b96c5f8667" target="_top" xlink:title="RawClusterv1::get_property\l_float">
<polygon fill="none" stroke="#000000" points="216.5,-233.5 216.5,-265.5 373.5,-265.5 373.5,-233.5 216.5,-233.5"/>
<text text-anchor="start" x="224.5" y="-252.5" font-family="FreeSans" font-size="10.00" fill="#000000">RawClusterv1::get_property</text>
<text text-anchor="middle" x="295" y="-240.5" font-family="FreeSans" font-size="10.00" fill="#000000">_float</text>
</a>
</g>
</g>
<!-- Node1&#45;&gt;Node2 -->
<g id="edge1" class="edge">
<title>Node1&#45;&gt;Node2</title>
<path fill="none" stroke="#191970" d="M114.7566,-179.9752C138.8152,-191.0803 173.2325,-206.4915 204,-218.5 217.2157,-223.6581 231.6876,-228.8085 245.1246,-233.3876"/>
<polygon fill="#191970" stroke="#191970" points="115.983,-176.6859 105.4389,-175.6505 113.0359,-183.0353 115.983,-176.6859"/>
</g>
<!-- Node7 -->
<g id="node7" class="node">
<title>Node7</title>
<g id="a_node7"><a xlink:href="../../d0/d73/classRawClusterv1.html#af611c374548d110f58ff0bcfcc465a70" target="_top" xlink:title="RawClusterv1::identify">
<polygon fill="none" stroke="#000000" points="428.5,-159.5 428.5,-179.5 558.5,-179.5 558.5,-159.5 428.5,-159.5"/>
<text text-anchor="middle" x="493.5" y="-166.5" font-family="FreeSans" font-size="10.00" fill="#000000">RawClusterv1::identify</text>
</a>
</g>
</g>
<!-- Node1&#45;&gt;Node7 -->
<g id="edge11" class="edge">
<title>Node1&#45;&gt;Node7</title>
<path fill="none" stroke="#191970" d="M142.7329,-177.2782C162.1519,-180.639 183.9248,-183.8385 204,-185.5 284.6133,-192.1718 305.3317,-191.4703 386,-185.5 402.6533,-184.2675 420.6398,-181.975 437.0475,-179.5026"/>
<polygon fill="#191970" stroke="#191970" points="143.2725,-173.8193 132.814,-175.5132 142.0461,-180.711 143.2725,-173.8193"/>
</g>
<!-- Node8 -->
<g id="node8" class="node">
<title>Node8</title>
<g id="a_node8"><a xlink:href="../../d9/d6e/group__property__map.html#ga5040320f895105e76d18d9b479cb5e70" target="_top" xlink:title="RawClusterv1::get_property_int">
<polygon fill="none" stroke="#000000" points="207,-155.5 207,-175.5 383,-175.5 383,-155.5 207,-155.5"/>
<text text-anchor="middle" x="295" y="-162.5" font-family="FreeSans" font-size="10.00" fill="#000000">RawClusterv1::get_property_int</text>
</a>
</g>
</g>
<!-- Node1&#45;&gt;Node8 -->
<g id="edge7" class="edge">
<title>Node1&#45;&gt;Node8</title>
<path fill="none" stroke="#191970" d="M178.4395,-165.5C187.8375,-165.5 197.3539,-165.5 206.6859,-165.5"/>
<polygon fill="#191970" stroke="#191970" points="178.3025,-162.0001 168.3024,-165.5 178.3024,-169.0001 178.3025,-162.0001"/>
</g>
<!-- Node9 -->
<g id="node9" class="node">
<title>Node9</title>
<g id="a_node9"><a xlink:href="../../d9/d6e/group__property__map.html#ga26d70cbfa9e48c47ff5935cde8785f22" target="_top" xlink:title="RawClusterv1::get_property_uint">
<polygon fill="none" stroke="#000000" points="204,-116.5 204,-136.5 386,-136.5 386,-116.5 204,-116.5"/>
<text text-anchor="middle" x="295" y="-123.5" font-family="FreeSans" font-size="10.00" fill="#000000">RawClusterv1::get_property_uint</text>
</a>
</g>
</g>
<!-- Node1&#45;&gt;Node9 -->
<g id="edge9" class="edge">
<title>Node1&#45;&gt;Node9</title>
<path fill="none" stroke="#191970" d="M148.5546,-153.5681C178.0903,-148.1089 212.6939,-141.713 240.8464,-136.5094"/>
<polygon fill="#191970" stroke="#191970" points="147.535,-150.1972 138.3377,-155.4565 148.8074,-157.0806 147.535,-150.1972"/>
</g>
<!-- Node10 -->
<g id="node10" class="node">
<title>Node10</title>
<g id="a_node10"><a xlink:href="../../d9/d6e/group__property__map.html#gab6e68cc3cb2d21fcaa3040e84677ceb3" target="_top" xlink:title="setters">
<polygon fill="none" stroke="#000000" points="217,-77.5 217,-97.5 373,-97.5 373,-77.5 217,-77.5"/>
<text text-anchor="middle" x="295" y="-84.5" font-family="FreeSans" font-size="10.00" fill="#000000">RawClusterv1::set_property</text>
</a>
</g>
</g>
<!-- Node1&#45;&gt;Node10 -->
<g id="edge12" class="edge">
<title>Node1&#45;&gt;Node10</title>
<path fill="none" stroke="#191970" d="M110.5262,-150.4431C134.346,-137.4711 170.605,-119.0613 204,-107.5 215.3113,-103.584 227.687,-100.2609 239.5665,-97.515"/>
<polygon fill="#191970" stroke="#191970" points="108.7997,-147.3982 101.7337,-155.2928 112.1805,-153.5277 108.7997,-147.3982"/>
</g>
<!-- Node3 -->
<g id="node3" class="node">
<title>Node3</title>
<g id="a_node3"><a xlink:href="../../d6/dc7/group__getters.html#ga4a95295244cae913956150f64d0f220c" target="_top" xlink:title="reduced chi2 for EM shower">
<polygon fill="none" stroke="#000000" points="426,-316.5 426,-336.5 561,-336.5 561,-316.5 426,-316.5"/>
<text text-anchor="middle" x="493.5" y="-323.5" font-family="FreeSans" font-size="10.00" fill="#000000">RawClusterv1::get_chi2</text>
</a>
</g>
</g>
<!-- Node2&#45;&gt;Node3 -->
<g id="edge2" class="edge">
<title>Node2&#45;&gt;Node3</title>
<path fill="none" stroke="#191970" d="M335.2565,-269.9995C359.8769,-282.001 392.2567,-296.8423 422,-307.5 431.1893,-310.7927 441.2241,-313.805 450.7925,-316.413"/>
<polygon fill="#191970" stroke="#191970" points="336.7399,-266.8287 326.2221,-265.5535 333.649,-273.1094 336.7399,-266.8287"/>
</g>
<!-- Node4 -->
<g id="node4" class="node">
<title>Node4</title>
<g id="a_node4"><a xlink:href="../../d6/dc7/group__getters.html#ga5a613f5c3bb8c2eda9a10813646b293a" target="_top" xlink:title="RawClusterv1::get_ecore">
<polygon fill="none" stroke="#000000" points="422.5,-277.5 422.5,-297.5 564.5,-297.5 564.5,-277.5 422.5,-277.5"/>
<text text-anchor="middle" x="493.5" y="-284.5" font-family="FreeSans" font-size="10.00" fill="#000000">RawClusterv1::get_ecore</text>
</a>
</g>
</g>
<!-- Node2&#45;&gt;Node4 -->
<g id="edge3" class="edge">
<title>Node2&#45;&gt;Node4</title>
<path fill="none" stroke="#191970" d="M383.6247,-266.4659C403.2562,-270.2241 423.4487,-274.0897 441.0822,-277.4654"/>
<polygon fill="#191970" stroke="#191970" points="384.2173,-263.0159 373.7376,-264.5732 382.9011,-269.8911 384.2173,-263.0159"/>
</g>
<!-- Node5 -->
<g id="node5" class="node">
<title>Node5</title>
<g id="a_node5"><a xlink:href="../../d6/dc7/group__getters.html#ga035a7775b91c2a80239a1c2b6930f147" target="_top" xlink:title="isolation ET the radius and hueristic can be specified">
<polygon fill="none" stroke="#000000" points="422,-238.5 422,-258.5 565,-258.5 565,-238.5 422,-238.5"/>
<text text-anchor="middle" x="493.5" y="-245.5" font-family="FreeSans" font-size="10.00" fill="#000000">RawClusterv1::get_et_iso</text>
</a>
</g>
</g>
<!-- Node2&#45;&gt;Node5 -->
<g id="edge4" class="edge">
<title>Node2&#45;&gt;Node5</title>
<path fill="none" stroke="#191970" d="M383.8885,-249.0522C396.6277,-248.988 409.5971,-248.9227 421.9449,-248.8605"/>
<polygon fill="#191970" stroke="#191970" points="383.7198,-245.5529 373.7376,-249.1033 383.7551,-252.5528 383.7198,-245.5529"/>
</g>
<!-- Node6 -->
<g id="node6" class="node">
<title>Node6</title>
<g id="a_node6"><a xlink:href="../../d6/dc7/group__getters.html#ga4e4eba60a6cf76c4cf0deadda1612558" target="_top" xlink:title="cluster template probability for EM shower">
<polygon fill="none" stroke="#000000" points="425,-199.5 425,-219.5 562,-219.5 562,-199.5 425,-199.5"/>
<text text-anchor="middle" x="493.5" y="-206.5" font-family="FreeSans" font-size="10.00" fill="#000000">RawClusterv1::get_prob</text>
</a>
</g>
</g>
<!-- Node2&#45;&gt;Node6 -->
<g id="edge5" class="edge">
<title>Node2&#45;&gt;Node6</title>
<path fill="none" stroke="#191970" d="M383.7727,-231.6113C404.346,-227.4655 425.5266,-223.1974 443.7253,-219.5302"/>
<polygon fill="#191970" stroke="#191970" points="382.8491,-228.227 373.7376,-233.6335 384.2319,-235.089 382.8491,-228.227"/>
</g>
<!-- Node2&#45;&gt;Node7 -->
<g id="edge6" class="edge">
<title>Node2&#45;&gt;Node7</title>
<path fill="none" stroke="#191970" d="M361.2086,-229.8655C369.74,-226.4946 378.2089,-222.7027 386,-218.5 403.8398,-208.8768 403.959,-199.7405 422,-190.5 430.6362,-186.0766 440.349,-182.4425 449.7664,-179.515"/>
<polygon fill="#191970" stroke="#191970" points="359.7066,-226.6912 351.5826,-233.492 362.1745,-233.2417 359.7066,-226.6912"/>
</g>
<!-- Node8&#45;&gt;Node7 -->
<g id="edge8" class="edge">
<title>Node8&#45;&gt;Node7</title>
<path fill="none" stroke="#191970" d="M393.2448,-167.4797C405.2015,-167.7207 417.1776,-167.962 428.479,-168.1898"/>
<polygon fill="#191970" stroke="#191970" points="393.2895,-163.98 383.221,-167.2778 393.1484,-170.9786 393.2895,-163.98"/>
</g>
<!-- Node9&#45;&gt;Node7 -->
<g id="edge10" class="edge">
<title>Node9&#45;&gt;Node7</title>
<path fill="none" stroke="#191970" d="M351.2894,-138.6937C381.59,-145.2575 418.5102,-153.2554 447.1377,-159.4568"/>
<polygon fill="#191970" stroke="#191970" points="351.8033,-135.2239 341.2889,-136.5273 350.3212,-142.0652 351.8033,-135.2239"/>
</g>
<!-- Node11 -->
<g id="node11" class="node">
<title>Node11</title>
<g id="a_node11"><a xlink:href="../../d9/db4/group__setters.html#ga85cabffa59e36f4fb61436ae153c709a" target="_top" xlink:title="isolation ET the radius and hueristic can be specified">
<polygon fill="none" stroke="#000000" points="422.5,-117.5 422.5,-137.5 564.5,-137.5 564.5,-117.5 422.5,-117.5"/>
<text text-anchor="middle" x="493.5" y="-124.5" font-family="FreeSans" font-size="10.00" fill="#000000">RawClusterv1::set_et_iso</text>
</a>
</g>
</g>
<!-- Node10&#45;&gt;Node11 -->
<g id="edge13" class="edge">
<title>Node10&#45;&gt;Node11</title>
<path fill="none" stroke="#191970" d="M354.6447,-99.5191C383.0465,-105.2424 416.6243,-112.0087 443.6458,-117.4538"/>
<polygon fill="#191970" stroke="#191970" points="355.3281,-96.0865 344.8337,-97.5421 353.9452,-102.9486 355.3281,-96.0865"/>
</g>
<!-- Node12 -->
<g id="node12" class="node">
<title>Node12</title>
<g id="a_node12"><a xlink:href="../../d9/db4/group__setters.html#ga2e56f4de20e8f51e0b403c1b513aba72" target="_top" xlink:title="RawClusterv1::set_ecore">
<polygon fill="none" stroke="#000000" points="423.5,-78.5 423.5,-98.5 563.5,-98.5 563.5,-78.5 423.5,-78.5"/>
<text text-anchor="middle" x="493.5" y="-85.5" font-family="FreeSans" font-size="10.00" fill="#000000">RawClusterv1::set_ecore</text>
</a>
</g>
</g>
<!-- Node10&#45;&gt;Node12 -->
<g id="edge14" class="edge">
<title>Node10&#45;&gt;Node12</title>
<path fill="none" stroke="#191970" d="M383.3682,-87.9452C396.7978,-88.0128 410.4964,-88.0818 423.4645,-88.1472"/>
<polygon fill="#191970" stroke="#191970" points="383.1851,-84.4443 373.1675,-87.8938 383.1497,-91.4442 383.1851,-84.4443"/>
</g>
<!-- Node13 -->
<g id="node13" class="node">
<title>Node13</title>
<g id="a_node13"><a xlink:href="../../d9/db4/group__setters.html#gaed09f5bf03e16dce1b9ff9bd6652c02d" target="_top" xlink:title="reduced chi2 for EM shower">
<polygon fill="none" stroke="#000000" points="426.5,-39.5 426.5,-59.5 560.5,-59.5 560.5,-39.5 426.5,-39.5"/>
<text text-anchor="middle" x="493.5" y="-46.5" font-family="FreeSans" font-size="10.00" fill="#000000">RawClusterv1::set_chi2</text>
</a>
</g>
</g>
<!-- Node10&#45;&gt;Node13 -->
<g id="edge15" class="edge">
<title>Node10&#45;&gt;Node13</title>
<path fill="none" stroke="#191970" d="M357.4955,-75.5361C384.3904,-70.3875 415.4783,-64.4362 441.1376,-59.524"/>
<polygon fill="#191970" stroke="#191970" points="356.5767,-72.1484 347.4132,-77.4662 357.8929,-79.0235 356.5767,-72.1484"/>
</g>
<!-- Node14 -->
<g id="node14" class="node">
<title>Node14</title>
<g id="a_node14"><a xlink:href="../../d9/db4/group__setters.html#gaf412b45bec4761adaecf1128e656bfe3" target="_top" xlink:title="cluster template probability for EM shower">
<polygon fill="none" stroke="#000000" points="425.5,-.5 425.5,-20.5 561.5,-20.5 561.5,-.5 425.5,-.5"/>
<text text-anchor="middle" x="493.5" y="-7.5" font-family="FreeSans" font-size="10.00" fill="#000000">RawClusterv1::set_prob</text>
</a>
</g>
</g>
<!-- Node10&#45;&gt;Node14 -->
<g id="edge16" class="edge">
<title>Node10&#45;&gt;Node14</title>
<path fill="none" stroke="#191970" d="M323.4195,-72.8427C348.7871,-60.168 387.1983,-41.9702 422,-29.5 431.1893,-26.2073 441.2241,-23.195 450.7925,-20.587"/>
<polygon fill="#191970" stroke="#191970" points="321.7231,-69.7783 314.3705,-77.4066 324.8753,-76.0284 321.7231,-69.7783"/>
</g>
</g>
</svg>
