<?xml version="1.0" encoding="UTF-8" standalone="no"?>
<!DOCTYPE svg PUBLIC "-//W3C//DTD SVG 1.1//EN"
 "http://www.w3.org/Graphics/SVG/1.1/DTD/svg11.dtd">
<!-- Generated by graphviz version 2.40.1 (20161225.0304)
 -->
<!-- Title: GenFit/blob/master/GFRave/include/GFRaveVertex.h Pages: 1 -->
<svg width="1182pt" height="272pt"
 viewBox="0.00 0.00 1181.50 272.00" xmlns="http://www.w3.org/2000/svg" xmlns:xlink="http://www.w3.org/1999/xlink">
<g id="graph0" class="graph" transform="scale(1 1) rotate(0) translate(4 268)">
<title>GenFit/blob/master/GFRave/include/GFRaveVertex.h</title>
<!-- Node1 -->
<g id="node1" class="node">
<title>Node1</title>
<polygon fill="#bfbfbf" stroke="#000000" points="704.5,-231.5 704.5,-263.5 887.5,-263.5 887.5,-231.5 704.5,-231.5"/>
<text text-anchor="start" x="712.5" y="-250.5" font-family="FreeSans" font-size="10.00" fill="#000000">GenFit/blob/master</text>
<text text-anchor="middle" x="796" y="-238.5" font-family="FreeSans" font-size="10.00" fill="#000000">/GFRave/include/GFRaveVertex.h</text>
</g>
<!-- Node2 -->
<g id="node2" class="node">
<title>Node2</title>
<g id="a_node2"><a xlink:href="../../de/d0c/GFRaveConverters_8h.html" target="_top" xlink:title="GenFit/blob/master\l/GFRave/include/GFRaveConverters.h">
<polygon fill="none" stroke="#000000" points="402.5,-75.5 402.5,-107.5 609.5,-107.5 609.5,-75.5 402.5,-75.5"/>
<text text-anchor="start" x="410.5" y="-94.5" font-family="FreeSans" font-size="10.00" fill="#000000">GenFit/blob/master</text>
<text text-anchor="middle" x="506" y="-82.5" font-family="FreeSans" font-size="10.00" fill="#000000">/GFRave/include/GFRaveConverters.h</text>
</a>
</g>
</g>
<!-- Node1&#45;&gt;Node2 -->
<g id="edge1" class="edge">
<title>Node1&#45;&gt;Node2</title>
<path fill="none" stroke="#191970" d="M757.0965,-226.5726C698.4222,-195.0099 588.5489,-135.9056 535.7799,-107.5195"/>
<polygon fill="#191970" stroke="#191970" points="755.5924,-229.7377 766.0572,-231.3928 758.9086,-223.5731 755.5924,-229.7377"/>
</g>
<!-- Node6 -->
<g id="node6" class="node">
<title>Node6</title>
<g id="a_node6"><a xlink:href="../../df/ddb/GFRaveVertex_8cc.html" target="_top" xlink:title="GenFit/blob/master\l/GFRave/src/GFRaveVertex.cc">
<polygon fill="none" stroke="#000000" points="0,-.5 0,-32.5 166,-32.5 166,-.5 0,-.5"/>
<text text-anchor="start" x="8" y="-19.5" font-family="FreeSans" font-size="10.00" fill="#000000">GenFit/blob/master</text>
<text text-anchor="middle" x="83" y="-7.5" font-family="FreeSans" font-size="10.00" fill="#000000">/GFRave/src/GFRaveVertex.cc</text>
</a>
</g>
</g>
<!-- Node1&#45;&gt;Node6 -->
<g id="edge14" class="edge">
<title>Node1&#45;&gt;Node6</title>
<path fill="none" stroke="#191970" d="M726.9439,-228.6339C692.3226,-218.9631 649.8187,-206.7686 612,-195 431.5271,-138.8395 219.0594,-64.6676 128.0522,-32.5087"/>
<polygon fill="#191970" stroke="#191970" points="726.3816,-232.1104 736.954,-231.4212 728.2594,-225.367 726.3816,-232.1104"/>
</g>
<!-- Node7 -->
<g id="node7" class="node">
<title>Node7</title>
<g id="a_node7"><a xlink:href="../../de/d59/GFRaveVertexFactory_8cc.html" target="_top" xlink:title="GenFit/blob/master\l/GFRave/src/GFRaveVertexFactory.cc">
<polygon fill="none" stroke="#000000" points="834.5,-.5 834.5,-32.5 1035.5,-32.5 1035.5,-.5 834.5,-.5"/>
<text text-anchor="start" x="842.5" y="-19.5" font-family="FreeSans" font-size="10.00" fill="#000000">GenFit/blob/master</text>
<text text-anchor="middle" x="935" y="-7.5" font-family="FreeSans" font-size="10.00" fill="#000000">/GFRave/src/GFRaveVertexFactory.cc</text>
</a>
</g>
</g>
<!-- Node1&#45;&gt;Node7 -->
<g id="edge15" class="edge">
<title>Node1&#45;&gt;Node7</title>
<path fill="none" stroke="#191970" d="M860.5689,-227.953C912.4768,-208.375 981.7167,-172.5875 1013,-114 1022.4204,-96.3575 1022.3981,-86.6543 1013,-69 1004.4858,-53.0061 988.6907,-41.0117 973.5294,-32.5555"/>
<polygon fill="#191970" stroke="#191970" points="859.2791,-224.698 851.0913,-231.4219 861.6851,-231.2715 859.2791,-224.698"/>
</g>
<!-- Node8 -->
<g id="node8" class="node">
<title>Node8</title>
<g id="a_node8"><a xlink:href="../../d9/d0f/GFRaveVertexFactory_8h.html" target="_top" xlink:title="GenFit/blob/master\l/GFRave/include/GFRaveVertex\lFactory.h">
<polygon fill="none" stroke="#000000" points="709,-150.5 709,-194.5 883,-194.5 883,-150.5 709,-150.5"/>
<text text-anchor="start" x="717" y="-181.5" font-family="FreeSans" font-size="10.00" fill="#000000">GenFit/blob/master</text>
<text text-anchor="start" x="717" y="-169.5" font-family="FreeSans" font-size="10.00" fill="#000000">/GFRave/include/GFRaveVertex</text>
<text text-anchor="middle" x="796" y="-157.5" font-family="FreeSans" font-size="10.00" fill="#000000">Factory.h</text>
</a>
</g>
</g>
<!-- Node1&#45;&gt;Node8 -->
<g id="edge7" class="edge">
<title>Node1&#45;&gt;Node8</title>
<path fill="none" stroke="#191970" d="M796,-220.9565C796,-212.3741 796,-202.9524 796,-194.7171"/>
<polygon fill="#191970" stroke="#191970" points="792.5001,-221.2261 796,-231.2261 799.5001,-221.2262 792.5001,-221.2261"/>
</g>
<!-- Node11 -->
<g id="node11" class="node">
<title>Node11</title>
<g id="a_node11"><a xlink:href="../../dc/d84/read_8cc.html" target="_top" xlink:title="GenFit/blob/master\l/test/vertexingTest\l/read.cc">
<polygon fill="none" stroke="#000000" points="1060.5,-150.5 1060.5,-194.5 1173.5,-194.5 1173.5,-150.5 1060.5,-150.5"/>
<text text-anchor="start" x="1068.5" y="-181.5" font-family="FreeSans" font-size="10.00" fill="#000000">GenFit/blob/master</text>
<text text-anchor="start" x="1068.5" y="-169.5" font-family="FreeSans" font-size="10.00" fill="#000000">/test/vertexingTest</text>
<text text-anchor="middle" x="1117" y="-157.5" font-family="FreeSans" font-size="10.00" fill="#000000">/read.cc</text>
</a>
</g>
</g>
<!-- Node1&#45;&gt;Node11 -->
<g id="edge16" class="edge">
<title>Node1&#45;&gt;Node11</title>
<path fill="none" stroke="#191970" d="M893.0603,-229.4629C939.5838,-220.2209 995.9484,-208.151 1046,-195 1050.6272,-193.7842 1055.4001,-192.4498 1060.1797,-191.0566"/>
<polygon fill="#191970" stroke="#191970" points="892.1179,-226.0813 882.9846,-231.4509 893.473,-232.9489 892.1179,-226.0813"/>
</g>
<!-- Node3 -->
<g id="node3" class="node">
<title>Node3</title>
<g id="a_node3"><a xlink:href="../../d0/de0/GFRaveConverters_8cc.html" target="_top" xlink:title="GenFit/blob/master\l/GFRave/src/GFRaveConverters.cc">
<polygon fill="none" stroke="#000000" points="420.5,-.5 420.5,-32.5 609.5,-32.5 609.5,-.5 420.5,-.5"/>
<text text-anchor="start" x="428.5" y="-19.5" font-family="FreeSans" font-size="10.00" fill="#000000">GenFit/blob/master</text>
<text text-anchor="middle" x="515" y="-7.5" font-family="FreeSans" font-size="10.00" fill="#000000">/GFRave/src/GFRaveConverters.cc</text>
</a>
</g>
</g>
<!-- Node2&#45;&gt;Node3 -->
<g id="edge2" class="edge">
<title>Node2&#45;&gt;Node3</title>
<path fill="none" stroke="#191970" d="M509.1742,-65.0487C510.4667,-54.2776 511.9195,-42.1711 513.0509,-32.7421"/>
<polygon fill="#191970" stroke="#191970" points="505.6693,-64.8803 507.9529,-75.2261 512.6195,-65.7144 505.6693,-64.8803"/>
</g>
<!-- Node4 -->
<g id="node4" class="node">
<title>Node4</title>
<g id="a_node4"><a xlink:href="../../d8/d28/GFRavePropagator_8cc.html" target="_top" xlink:title="GenFit/blob/master\l/GFRave/src/GFRavePropagator.cc">
<polygon fill="none" stroke="#000000" points="628,-.5 628,-32.5 816,-32.5 816,-.5 628,-.5"/>
<text text-anchor="start" x="636" y="-19.5" font-family="FreeSans" font-size="10.00" fill="#000000">GenFit/blob/master</text>
<text text-anchor="middle" x="722" y="-7.5" font-family="FreeSans" font-size="10.00" fill="#000000">/GFRave/src/GFRavePropagator.cc</text>
</a>
</g>
</g>
<!-- Node2&#45;&gt;Node4 -->
<g id="edge3" class="edge">
<title>Node2&#45;&gt;Node4</title>
<path fill="none" stroke="#191970" d="M562.0275,-72.046C597.363,-59.7767 642.4448,-44.1233 675.7392,-32.5628"/>
<polygon fill="#191970" stroke="#191970" points="560.6361,-68.8241 552.3374,-75.4106 562.9322,-75.4368 560.6361,-68.8241"/>
</g>
<!-- Node5 -->
<g id="node5" class="node">
<title>Node5</title>
<g id="a_node5"><a xlink:href="../../d1/d9b/GFRaveTrackParameters_8cc.html" target="_top" xlink:title="GenFit/blob/master\l/GFRave/src/GFRaveTrackParameters.cc">
<polygon fill="none" stroke="#000000" points="184,-.5 184,-32.5 402,-32.5 402,-.5 184,-.5"/>
<text text-anchor="start" x="192" y="-19.5" font-family="FreeSans" font-size="10.00" fill="#000000">GenFit/blob/master</text>
<text text-anchor="middle" x="293" y="-7.5" font-family="FreeSans" font-size="10.00" fill="#000000">/GFRave/src/GFRaveTrackParameters.cc</text>
</a>
</g>
</g>
<!-- Node2&#45;&gt;Node5 -->
<g id="edge4" class="edge">
<title>Node2&#45;&gt;Node5</title>
<path fill="none" stroke="#191970" d="M450.7507,-72.046C415.9059,-59.7767 371.4503,-44.1233 338.6183,-32.5628"/>
<polygon fill="#191970" stroke="#191970" points="449.7113,-75.3906 460.3062,-75.4106 452.0363,-68.788 449.7113,-75.3906"/>
</g>
<!-- Node2&#45;&gt;Node6 -->
<g id="edge5" class="edge">
<title>Node2&#45;&gt;Node6</title>
<path fill="none" stroke="#191970" d="M405.099,-73.7353C339.526,-62.1736 252.189,-46.7429 175,-33 172.1243,-32.488 169.1983,-31.9665 166.243,-31.4392"/>
<polygon fill="#191970" stroke="#191970" points="404.5653,-77.1951 415.0211,-75.4845 405.7806,-70.3014 404.5653,-77.1951"/>
</g>
<!-- Node2&#45;&gt;Node7 -->
<g id="edge6" class="edge">
<title>Node2&#45;&gt;Node7</title>
<path fill="none" stroke="#191970" d="M594.8901,-73.5235C603.0352,-71.96 611.1657,-70.4304 619,-69 690.8052,-55.8899 772.0447,-42.4228 834.1701,-32.4108"/>
<polygon fill="#191970" stroke="#191970" points="594.1198,-70.1075 584.9665,-75.4429 595.4492,-76.9801 594.1198,-70.1075"/>
</g>
<!-- Node8&#45;&gt;Node2 -->
<g id="edge8" class="edge">
<title>Node8&#45;&gt;Node2</title>
<path fill="none" stroke="#191970" d="M707.3253,-147.7323C660.6378,-134.6919 604.7256,-119.0751 563.6841,-107.6118"/>
<polygon fill="#191970" stroke="#191970" points="706.5663,-151.1542 717.1393,-150.4734 708.4495,-144.4122 706.5663,-151.1542"/>
</g>
<!-- Node8&#45;&gt;Node7 -->
<g id="edge12" class="edge">
<title>Node8&#45;&gt;Node7</title>
<path fill="none" stroke="#191970" d="M820.5362,-142.3171C841.418,-116.7523 869.8948,-82.2115 882,-69 893.5494,-56.3951 907.2795,-42.8308 917.8709,-32.6478"/>
<polygon fill="#191970" stroke="#191970" points="817.6628,-140.3025 814.0536,-150.2636 823.0869,-144.7273 817.6628,-140.3025"/>
</g>
<!-- Node9 -->
<g id="node9" class="node">
<title>Node9</title>
<g id="a_node9"><a xlink:href="../../df/dfe/GFRavePropagator_8h.html" target="_top" xlink:title="GenFit/blob/master\l/GFRave/include/GFRavePropagator.h">
<polygon fill="none" stroke="#000000" points="628,-75.5 628,-107.5 834,-107.5 834,-75.5 628,-75.5"/>
<text text-anchor="start" x="636" y="-94.5" font-family="FreeSans" font-size="10.00" fill="#000000">GenFit/blob/master</text>
<text text-anchor="middle" x="731" y="-82.5" font-family="FreeSans" font-size="10.00" fill="#000000">/GFRave/include/GFRavePropagator.h</text>
</a>
</g>
</g>
<!-- Node8&#45;&gt;Node9 -->
<g id="edge9" class="edge">
<title>Node8&#45;&gt;Node9</title>
<path fill="none" stroke="#191970" d="M771.9003,-142.4681C762.4481,-130.6891 751.978,-117.6418 743.9975,-107.6969"/>
<polygon fill="#191970" stroke="#191970" points="769.25,-144.7576 778.2385,-150.3664 774.7095,-140.3765 769.25,-144.7576"/>
</g>
<!-- Node10 -->
<g id="node10" class="node">
<title>Node10</title>
<g id="a_node10"><a xlink:href="../../de/dab/GenFit_2blob_2master_2test_2vertexingTest_2main_8cc.html" target="_top" xlink:title="GenFit/blob/master\l/test/vertexingTest\l/main.cc">
<polygon fill="none" stroke="#000000" points="890.5,-69.5 890.5,-113.5 1003.5,-113.5 1003.5,-69.5 890.5,-69.5"/>
<text text-anchor="start" x="898.5" y="-100.5" font-family="FreeSans" font-size="10.00" fill="#000000">GenFit/blob/master</text>
<text text-anchor="start" x="898.5" y="-88.5" font-family="FreeSans" font-size="10.00" fill="#000000">/test/vertexingTest</text>
<text text-anchor="middle" x="947" y="-76.5" font-family="FreeSans" font-size="10.00" fill="#000000">/main.cc</text>
</a>
</g>
</g>
<!-- Node8&#45;&gt;Node10 -->
<g id="edge13" class="edge">
<title>Node8&#45;&gt;Node10</title>
<path fill="none" stroke="#191970" d="M846.2355,-145.5525C865.5693,-135.1814 887.4014,-123.4701 905.7885,-113.6068"/>
<polygon fill="#191970" stroke="#191970" points="844.4191,-142.555 837.2614,-150.3664 847.7281,-148.7235 844.4191,-142.555"/>
</g>
<!-- Node9&#45;&gt;Node4 -->
<g id="edge10" class="edge">
<title>Node9&#45;&gt;Node4</title>
<path fill="none" stroke="#191970" d="M727.8258,-65.0487C726.5333,-54.2776 725.0805,-42.1711 723.9491,-32.7421"/>
<polygon fill="#191970" stroke="#191970" points="724.3805,-65.7144 729.0471,-75.2261 731.3307,-64.8803 724.3805,-65.7144"/>
</g>
<!-- Node9&#45;&gt;Node7 -->
<g id="edge11" class="edge">
<title>Node9&#45;&gt;Node7</title>
<path fill="none" stroke="#191970" d="M784.3432,-71.8885C817.651,-59.643 859.9989,-44.0739 891.3093,-32.5628"/>
<polygon fill="#191970" stroke="#191970" points="782.9412,-68.6749 774.7631,-75.4106 785.3567,-75.2449 782.9412,-68.6749"/>
</g>
</g>
</svg>
