<?xml version="1.0" encoding="UTF-8" standalone="no"?>
<!DOCTYPE svg PUBLIC "-//W3C//DTD SVG 1.1//EN"
 "http://www.w3.org/Graphics/SVG/1.1/DTD/svg11.dtd">
<!-- Generated by graphviz version 2.40.1 (20161225.0304)
 -->
<!-- Title: GenFit/blob/master/fitters/include/ReferenceStateOnPlane.h Pages: 1 -->
<svg width="1747pt" height="215pt"
 viewBox="0.00 0.00 1747.00 215.00" xmlns="http://www.w3.org/2000/svg" xmlns:xlink="http://www.w3.org/1999/xlink">
<g id="graph0" class="graph" transform="scale(1 1) rotate(0) translate(4 211)">
<title>GenFit/blob/master/fitters/include/ReferenceStateOnPlane.h</title>
<!-- Node1 -->
<g id="node1" class="node">
<title>Node1</title>
<polygon fill="#bfbfbf" stroke="#000000" points="1469,-162.5 1469,-206.5 1614,-206.5 1614,-162.5 1469,-162.5"/>
<text text-anchor="start" x="1477" y="-193.5" font-family="FreeSans" font-size="10.00" fill="#000000">GenFit/blob/master</text>
<text text-anchor="start" x="1477" y="-181.5" font-family="FreeSans" font-size="10.00" fill="#000000">/fitters/include/Reference</text>
<text text-anchor="middle" x="1541.5" y="-169.5" font-family="FreeSans" font-size="10.00" fill="#000000">StateOnPlane.h</text>
</g>
<!-- Node2 -->
<g id="node2" class="node">
<title>Node2</title>
<g id="a_node2"><a xlink:href="../../dc/d90/KalmanFitterInfo_8h.html" target="_top" xlink:title="GenFit/blob/master\l/fitters/include/KalmanFitter\lInfo.h">
<polygon fill="none" stroke="#000000" points="878,-81.5 878,-125.5 1037,-125.5 1037,-81.5 878,-81.5"/>
<text text-anchor="start" x="886" y="-112.5" font-family="FreeSans" font-size="10.00" fill="#000000">GenFit/blob/master</text>
<text text-anchor="start" x="886" y="-100.5" font-family="FreeSans" font-size="10.00" fill="#000000">/fitters/include/KalmanFitter</text>
<text text-anchor="middle" x="957.5" y="-88.5" font-family="FreeSans" font-size="10.00" fill="#000000">Info.h</text>
</a>
</g>
</g>
<!-- Node1&#45;&gt;Node2 -->
<g id="edge1" class="edge">
<title>Node1&#45;&gt;Node2</title>
<path fill="none" stroke="#191970" d="M1458.809,-173.0309C1346.7111,-157.483 1147.8622,-129.903 1037.2863,-114.5663"/>
<polygon fill="#191970" stroke="#191970" points="1458.3307,-176.498 1468.7168,-174.4051 1459.2925,-169.5643 1458.3307,-176.498"/>
</g>
<!-- Node12 -->
<g id="node12" class="node">
<title>Node12</title>
<g id="a_node12"><a xlink:href="../../d0/d48/GenFit_2blob_2master_2test_2fitterTests_2main_8cc.html" target="_top" xlink:title="GenFit/blob/master\l/test/fitterTests/main.cc">
<polygon fill="none" stroke="#000000" points="1455,-6.5 1455,-38.5 1590,-38.5 1590,-6.5 1455,-6.5"/>
<text text-anchor="start" x="1463" y="-25.5" font-family="FreeSans" font-size="10.00" fill="#000000">GenFit/blob/master</text>
<text text-anchor="middle" x="1522.5" y="-13.5" font-family="FreeSans" font-size="10.00" fill="#000000">/test/fitterTests/main.cc</text>
</a>
</g>
</g>
<!-- Node1&#45;&gt;Node12 -->
<g id="edge14" class="edge">
<title>Node1&#45;&gt;Node12</title>
<path fill="none" stroke="#191970" d="M1537.724,-152.3046C1533.6958,-117.9588 1527.4783,-64.9465 1524.3837,-38.5614"/>
<polygon fill="#191970" stroke="#191970" points="1534.2569,-152.7901 1538.898,-162.3143 1541.2092,-151.9746 1534.2569,-152.7901"/>
</g>
<!-- Node13 -->
<g id="node13" class="node">
<title>Node13</title>
<g id="a_node13"><a xlink:href="../../d9/d33/GenFit_2blob_2master_2test_2unitTests_2main_8cc.html" target="_top" xlink:title="GenFit/blob/master\l/test/unitTests/main.cc">
<polygon fill="none" stroke="#000000" points="1608,-6.5 1608,-38.5 1739,-38.5 1739,-6.5 1608,-6.5"/>
<text text-anchor="start" x="1616" y="-25.5" font-family="FreeSans" font-size="10.00" fill="#000000">GenFit/blob/master</text>
<text text-anchor="middle" x="1673.5" y="-13.5" font-family="FreeSans" font-size="10.00" fill="#000000">/test/unitTests/main.cc</text>
</a>
</g>
</g>
<!-- Node1&#45;&gt;Node13 -->
<g id="edge15" class="edge">
<title>Node1&#45;&gt;Node13</title>
<path fill="none" stroke="#191970" d="M1547.5358,-152.3317C1552.9498,-130.3734 1562.7095,-101.6368 1579.5,-81 1594.4213,-62.6606 1616.7041,-48.4395 1635.8298,-38.6129"/>
<polygon fill="#191970" stroke="#191970" points="1544.0976,-151.6666 1545.2799,-162.1953 1550.9214,-153.2273 1544.0976,-151.6666"/>
</g>
<!-- Node14 -->
<g id="node14" class="node">
<title>Node14</title>
<g id="a_node14"><a xlink:href="../../dd/dee/ReferenceStateOnPlane_8cc.html" target="_top" xlink:title="GenFit/blob/master\l/fitters/src/ReferenceState\lOnPlane.cc">
<polygon fill="none" stroke="#000000" points="1588,-81.5 1588,-125.5 1737,-125.5 1737,-81.5 1588,-81.5"/>
<text text-anchor="start" x="1596" y="-112.5" font-family="FreeSans" font-size="10.00" fill="#000000">GenFit/blob/master</text>
<text text-anchor="start" x="1596" y="-100.5" font-family="FreeSans" font-size="10.00" fill="#000000">/fitters/src/ReferenceState</text>
<text text-anchor="middle" x="1662.5" y="-88.5" font-family="FreeSans" font-size="10.00" fill="#000000">OnPlane.cc</text>
</a>
</g>
</g>
<!-- Node1&#45;&gt;Node14 -->
<g id="edge13" class="edge">
<title>Node1&#45;&gt;Node14</title>
<path fill="none" stroke="#191970" d="M1583.233,-156.563C1598.353,-146.4414 1615.2088,-135.1577 1629.4762,-125.6068"/>
<polygon fill="#191970" stroke="#191970" points="1580.9267,-153.895 1574.5638,-162.3664 1584.8207,-159.712 1580.9267,-153.895"/>
</g>
<!-- Node3 -->
<g id="node3" class="node">
<title>Node3</title>
<g id="a_node3"><a xlink:href="../../d3/d16/GenFit_2blob_2master_2core_2src_2Track_8cc.html" target="_top" xlink:title="GenFit/blob/master\l/core/src/Track.cc">
<polygon fill="none" stroke="#000000" points="489,-6.5 489,-38.5 602,-38.5 602,-6.5 489,-6.5"/>
<text text-anchor="start" x="497" y="-25.5" font-family="FreeSans" font-size="10.00" fill="#000000">GenFit/blob/master</text>
<text text-anchor="middle" x="545.5" y="-13.5" font-family="FreeSans" font-size="10.00" fill="#000000">/core/src/Track.cc</text>
</a>
</g>
</g>
<!-- Node2&#45;&gt;Node3 -->
<g id="edge2" class="edge">
<title>Node2&#45;&gt;Node3</title>
<path fill="none" stroke="#191970" d="M867.6284,-92.5274C797.0656,-82.9119 696.6775,-67.0167 610.5,-45 603.3266,-43.1673 595.8152,-40.9026 588.5504,-38.5226"/>
<polygon fill="#191970" stroke="#191970" points="867.4398,-96.0336 877.8177,-93.9005 868.3747,-89.0963 867.4398,-96.0336"/>
</g>
<!-- Node4 -->
<g id="node4" class="node">
<title>Node4</title>
<g id="a_node4"><a xlink:href="../../d3/dc1/TrackPoint_8cc.html" target="_top" xlink:title="GenFit/blob/master\l/core/src/TrackPoint.cc">
<polygon fill="none" stroke="#000000" points="620,-6.5 620,-38.5 749,-38.5 749,-6.5 620,-6.5"/>
<text text-anchor="start" x="628" y="-25.5" font-family="FreeSans" font-size="10.00" fill="#000000">GenFit/blob/master</text>
<text text-anchor="middle" x="684.5" y="-13.5" font-family="FreeSans" font-size="10.00" fill="#000000">/core/src/TrackPoint.cc</text>
</a>
</g>
</g>
<!-- Node2&#45;&gt;Node4 -->
<g id="edge3" class="edge">
<title>Node2&#45;&gt;Node4</title>
<path fill="none" stroke="#191970" d="M871.1852,-78.5479C835.904,-68.272 794.7129,-56.1766 757.5,-45 750.6412,-42.94 743.4279,-40.748 736.3147,-38.5712"/>
<polygon fill="#191970" stroke="#191970" points="870.3918,-81.9621 880.9714,-81.3958 872.3477,-75.2409 870.3918,-81.9621"/>
</g>
<!-- Node5 -->
<g id="node5" class="node">
<title>Node5</title>
<g id="a_node5"><a xlink:href="../../d0/d12/EventDisplay_8cc.html" target="_top" xlink:title="GenFit/blob/master\l/eventDisplay/src/EventDisplay.cc">
<polygon fill="none" stroke="#000000" points="767,-6.5 767,-38.5 954,-38.5 954,-6.5 767,-6.5"/>
<text text-anchor="start" x="775" y="-25.5" font-family="FreeSans" font-size="10.00" fill="#000000">GenFit/blob/master</text>
<text text-anchor="middle" x="860.5" y="-13.5" font-family="FreeSans" font-size="10.00" fill="#000000">/eventDisplay/src/EventDisplay.cc</text>
</a>
</g>
</g>
<!-- Node2&#45;&gt;Node5 -->
<g id="edge4" class="edge">
<title>Node2&#45;&gt;Node5</title>
<path fill="none" stroke="#191970" d="M923.1564,-74.8213C908.6376,-62.6973 892.2636,-49.0243 879.8963,-38.6969"/>
<polygon fill="#191970" stroke="#191970" points="921.0752,-77.6432 930.9943,-81.3664 925.562,-72.2702 921.0752,-77.6432"/>
</g>
<!-- Node6 -->
<g id="node6" class="node">
<title>Node6</title>
<g id="a_node6"><a xlink:href="../../de/d13/AbsKalmanFitter_8cc.html" target="_top" xlink:title="GenFit/blob/master\l/fitters/src/AbsKalmanFitter.cc">
<polygon fill="none" stroke="#000000" points="972,-6.5 972,-38.5 1139,-38.5 1139,-6.5 972,-6.5"/>
<text text-anchor="start" x="980" y="-25.5" font-family="FreeSans" font-size="10.00" fill="#000000">GenFit/blob/master</text>
<text text-anchor="middle" x="1055.5" y="-13.5" font-family="FreeSans" font-size="10.00" fill="#000000">/fitters/src/AbsKalmanFitter.cc</text>
</a>
</g>
</g>
<!-- Node2&#45;&gt;Node6 -->
<g id="edge5" class="edge">
<title>Node2&#45;&gt;Node6</title>
<path fill="none" stroke="#191970" d="M992.1977,-74.8213C1006.8662,-62.6973 1023.4089,-49.0243 1035.9038,-38.6969"/>
<polygon fill="#191970" stroke="#191970" points="989.7571,-72.2977 984.2789,-81.3664 994.2167,-77.6933 989.7571,-72.2977"/>
</g>
<!-- Node7 -->
<g id="node7" class="node">
<title>Node7</title>
<g id="a_node7"><a xlink:href="../../d9/d5e/DAF_8cc.html" target="_top" xlink:title="GenFit/blob/master\l/fitters/src/DAF.cc">
<polygon fill="none" stroke="#000000" points="1157,-6.5 1157,-38.5 1270,-38.5 1270,-6.5 1157,-6.5"/>
<text text-anchor="start" x="1165" y="-25.5" font-family="FreeSans" font-size="10.00" fill="#000000">GenFit/blob/master</text>
<text text-anchor="middle" x="1213.5" y="-13.5" font-family="FreeSans" font-size="10.00" fill="#000000">/fitters/src/DAF.cc</text>
</a>
</g>
</g>
<!-- Node2&#45;&gt;Node7 -->
<g id="edge6" class="edge">
<title>Node2&#45;&gt;Node7</title>
<path fill="none" stroke="#191970" d="M1040.8763,-78.4176C1074.1188,-68.2637 1112.6885,-56.2901 1147.5,-45 1153.8335,-42.9459 1160.4919,-40.7359 1167.0434,-38.5318"/>
<polygon fill="#191970" stroke="#191970" points="1039.7409,-75.1046 1031.1964,-81.369 1041.7824,-81.8003 1039.7409,-75.1046"/>
</g>
<!-- Node8 -->
<g id="node8" class="node">
<title>Node8</title>
<g id="a_node8"><a xlink:href="../../de/d59/KalmanFitter_8cc.html" target="_top" xlink:title="GenFit/blob/master\l/fitters/src/KalmanFitter.cc">
<polygon fill="none" stroke="#000000" points="1288,-6.5 1288,-38.5 1437,-38.5 1437,-6.5 1288,-6.5"/>
<text text-anchor="start" x="1296" y="-25.5" font-family="FreeSans" font-size="10.00" fill="#000000">GenFit/blob/master</text>
<text text-anchor="middle" x="1362.5" y="-13.5" font-family="FreeSans" font-size="10.00" fill="#000000">/fitters/src/KalmanFitter.cc</text>
</a>
</g>
</g>
<!-- Node2&#45;&gt;Node8 -->
<g id="edge7" class="edge">
<title>Node2&#45;&gt;Node8</title>
<path fill="none" stroke="#191970" d="M1047.165,-89.1709C1111.7604,-78.3592 1200.855,-62.4436 1278.5,-45 1287.0436,-43.0806 1296.0276,-40.876 1304.814,-38.614"/>
<polygon fill="#191970" stroke="#191970" points="1046.3027,-85.7662 1037.0136,-90.8617 1047.4528,-92.6711 1046.3027,-85.7662"/>
</g>
<!-- Node9 -->
<g id="node9" class="node">
<title>Node9</title>
<g id="a_node9"><a xlink:href="../../d9/d25/KalmanFitterInfo_8cc.html" target="_top" xlink:title="GenFit/blob/master\l/fitters/src/KalmanFitterInfo.cc">
<polygon fill="none" stroke="#000000" points="0,-6.5 0,-38.5 169,-38.5 169,-6.5 0,-6.5"/>
<text text-anchor="start" x="8" y="-25.5" font-family="FreeSans" font-size="10.00" fill="#000000">GenFit/blob/master</text>
<text text-anchor="middle" x="84.5" y="-13.5" font-family="FreeSans" font-size="10.00" fill="#000000">/fitters/src/KalmanFitterInfo.cc</text>
</a>
</g>
</g>
<!-- Node2&#45;&gt;Node9 -->
<g id="edge8" class="edge">
<title>Node2&#45;&gt;Node9</title>
<path fill="none" stroke="#191970" d="M867.6167,-101.4974C721.902,-97.191 425.4203,-84.0221 177.5,-45 166.7517,-43.3082 155.4154,-41.0092 144.4955,-38.5245"/>
<polygon fill="#191970" stroke="#191970" points="867.7481,-105.0025 877.8449,-101.7924 867.95,-98.0054 867.7481,-105.0025"/>
</g>
<!-- Node10 -->
<g id="node10" class="node">
<title>Node10</title>
<g id="a_node10"><a xlink:href="../../d6/d12/KalmanFitterRefTrack_8cc.html" target="_top" xlink:title="GenFit/blob/master\l/fitters/src/KalmanFitterRef\lTrack.cc">
<polygon fill="none" stroke="#000000" points="187,-.5 187,-44.5 340,-44.5 340,-.5 187,-.5"/>
<text text-anchor="start" x="195" y="-31.5" font-family="FreeSans" font-size="10.00" fill="#000000">GenFit/blob/master</text>
<text text-anchor="start" x="195" y="-19.5" font-family="FreeSans" font-size="10.00" fill="#000000">/fitters/src/KalmanFitterRef</text>
<text text-anchor="middle" x="263.5" y="-7.5" font-family="FreeSans" font-size="10.00" fill="#000000">Track.cc</text>
</a>
</g>
</g>
<!-- Node2&#45;&gt;Node10 -->
<g id="edge9" class="edge">
<title>Node2&#45;&gt;Node10</title>
<path fill="none" stroke="#191970" d="M867.4295,-99.4433C748.0223,-93.0197 531.1088,-77.7141 348.5,-45 345.7953,-44.5155 343.0508,-43.9878 340.2853,-43.4255"/>
<polygon fill="#191970" stroke="#191970" points="867.4474,-102.9491 877.6184,-99.9825 867.8174,-95.9588 867.4474,-102.9491"/>
</g>
<!-- Node11 -->
<g id="node11" class="node">
<title>Node11</title>
<g id="a_node11"><a xlink:href="../../d5/d90/GFGbl_8cc.html" target="_top" xlink:title="GenFit/blob/master\l/GBL/src/GFGbl.cc">
<polygon fill="none" stroke="#000000" points="358,-6.5 358,-38.5 471,-38.5 471,-6.5 358,-6.5"/>
<text text-anchor="start" x="366" y="-25.5" font-family="FreeSans" font-size="10.00" fill="#000000">GenFit/blob/master</text>
<text text-anchor="middle" x="414.5" y="-13.5" font-family="FreeSans" font-size="10.00" fill="#000000">/GBL/src/GFGbl.cc</text>
</a>
</g>
</g>
<!-- Node2&#45;&gt;Node11 -->
<g id="edge10" class="edge">
<title>Node2&#45;&gt;Node11</title>
<path fill="none" stroke="#191970" d="M867.9051,-98.2092C771.114,-91.1819 612.8403,-75.871 479.5,-45 472.0543,-43.2762 464.2689,-41.008 456.7791,-38.5754"/>
<polygon fill="#191970" stroke="#191970" points="867.723,-101.705 877.9464,-98.9245 868.2204,-94.7227 867.723,-101.705"/>
</g>
<!-- Node2&#45;&gt;Node12 -->
<g id="edge11" class="edge">
<title>Node2&#45;&gt;Node12</title>
<path fill="none" stroke="#191970" d="M1047.382,-97.1945C1145.8344,-89.2529 1308.0403,-73.1222 1445.5,-45 1454.096,-43.2414 1463.1245,-40.9857 1471.8519,-38.5841"/>
<polygon fill="#191970" stroke="#191970" points="1046.8637,-93.7246 1037.173,-98.007 1047.4192,-100.7025 1046.8637,-93.7246"/>
</g>
<!-- Node2&#45;&gt;Node13 -->
<g id="edge12" class="edge">
<title>Node2&#45;&gt;Node13</title>
<path fill="none" stroke="#191970" d="M1047.329,-101.0932C1172.2223,-96.4407 1404.921,-83.0314 1599.5,-45 1608.0661,-43.3257 1617.0529,-41.0511 1625.6945,-38.589"/>
<polygon fill="#191970" stroke="#191970" points="1046.9214,-97.6056 1037.0546,-101.4652 1047.1747,-104.601 1046.9214,-97.6056"/>
</g>
</g>
</svg>
