<?xml version="1.0" encoding="UTF-8" standalone="no"?>
<!DOCTYPE svg PUBLIC "-//W3C//DTD SVG 1.1//EN"
 "http://www.w3.org/Graphics/SVG/1.1/DTD/svg11.dtd">
<!-- Generated by graphviz version 2.40.1 (20161225.0304)
 -->
<!-- Title: KFPTrackVector::Parameter Pages: 1 -->
<svg width="998pt" height="257pt"
 viewBox="0.00 0.00 998.00 257.12" xmlns="http://www.w3.org/2000/svg" xmlns:xlink="http://www.w3.org/1999/xlink">
<g id="graph0" class="graph" transform="scale(1 1) rotate(0) translate(4 253.1157)">
<title>KFPTrackVector::Parameter</title>
<!-- Node1 -->
<g id="node1" class="node">
<title>Node1</title>
<polygon fill="#bfbfbf" stroke="#000000" points="0,-128.6157 0,-148.6157 152,-148.6157 152,-128.6157 0,-128.6157"/>
<text text-anchor="middle" x="76" y="-135.6157" font-family="FreeSans" font-size="10.00" fill="#000000">KFPTrackVector::Parameter</text>
</g>
<!-- Node2 -->
<g id="node2" class="node">
<title>Node2</title>
<g id="a_node2"><a xlink:href="../../db/dcc/classKFParticleSIMD.html#ac61bb76736c796c2e47da8ad25b81c27" target="_top" xlink:title="KFParticleSIMD::Create">
<polygon fill="none" stroke="#000000" points="209.5,-187.6157 209.5,-207.6157 340.5,-207.6157 340.5,-187.6157 209.5,-187.6157"/>
<text text-anchor="middle" x="275" y="-194.6157" font-family="FreeSans" font-size="10.00" fill="#000000">KFParticleSIMD::Create</text>
</a>
</g>
</g>
<!-- Node1&#45;&gt;Node2 -->
<g id="edge1" class="edge">
<title>Node1&#45;&gt;Node2</title>
<path fill="none" stroke="#191970" d="M111.0279,-152.4306C132.9233,-160.7388 161.8368,-171.1201 188,-178.6157 199.4439,-181.8943 211.8745,-184.9195 223.6628,-187.5472"/>
<polygon fill="#191970" stroke="#191970" points="112.0871,-149.0883 101.4968,-148.777 109.5815,-155.6245 112.0871,-149.0883"/>
</g>
<!-- Node3 -->
<g id="node3" class="node">
<title>Node3</title>
<g id="a_node3"><a xlink:href="../../db/dcc/classKFParticleSIMD.html#afe587b1dc2c1a6fc006737c1c36ffb77" target="_top" xlink:title="KFParticleSIMD::KFParticleSIMD">
<polygon fill="none" stroke="#000000" points="188,-148.6157 188,-168.6157 362,-168.6157 362,-148.6157 188,-148.6157"/>
<text text-anchor="middle" x="275" y="-155.6157" font-family="FreeSans" font-size="10.00" fill="#000000">KFParticleSIMD::KFParticleSIMD</text>
</a>
</g>
</g>
<!-- Node1&#45;&gt;Node3 -->
<g id="edge2" class="edge">
<title>Node1&#45;&gt;Node3</title>
<path fill="none" stroke="#191970" d="M162.0849,-147.2674C170.6696,-148.1302 179.3901,-149.0066 187.9843,-149.8704"/>
<polygon fill="#191970" stroke="#191970" points="162.3851,-143.78 152.0852,-146.2624 161.685,-150.7449 162.3851,-143.78"/>
</g>
<!-- Node4 -->
<g id="node4" class="node">
<title>Node4</title>
<g id="a_node4"><a xlink:href="../../db/dcc/classKFParticleSIMD.html#a0e3c7a0202a62c3c564b22b5d0bfce5e" target="_top" xlink:title="KFParticleSIMD::Load">
<polygon fill="none" stroke="#000000" points="214,-109.6157 214,-129.6157 336,-129.6157 336,-109.6157 214,-109.6157"/>
<text text-anchor="middle" x="275" y="-116.6157" font-family="FreeSans" font-size="10.00" fill="#000000">KFParticleSIMD::Load</text>
</a>
</g>
</g>
<!-- Node1&#45;&gt;Node4 -->
<g id="edge3" class="edge">
<title>Node1&#45;&gt;Node4</title>
<path fill="none" stroke="#191970" d="M162.2262,-130.383C179.5853,-128.7256 197.4932,-127.0158 213.7852,-125.4603"/>
<polygon fill="#191970" stroke="#191970" points="161.7072,-126.9166 152.0852,-131.3512 162.3726,-133.8849 161.7072,-126.9166"/>
</g>
<!-- Node12 -->
<g id="node12" class="node">
<title>Node12</title>
<g id="a_node12"><a xlink:href="../../d1/d86/classKFPTrackVector.html#a82dc658eef2a7ddeeb0ebc524167f4e7" target="_top" xlink:title="KFPTrackVector::Print">
<polygon fill="none" stroke="#000000" points="213.5,-70.6157 213.5,-90.6157 336.5,-90.6157 336.5,-70.6157 213.5,-70.6157"/>
<text text-anchor="middle" x="275" y="-77.6157" font-family="FreeSans" font-size="10.00" fill="#000000">KFPTrackVector::Print</text>
</a>
</g>
</g>
<!-- Node1&#45;&gt;Node12 -->
<g id="edge15" class="edge">
<title>Node1&#45;&gt;Node12</title>
<path fill="none" stroke="#191970" d="M112.8625,-125.0594C134.5657,-117.3423 162.6482,-107.8105 188,-100.6157 200.6729,-97.0191 214.5216,-93.606 227.368,-90.651"/>
<polygon fill="#191970" stroke="#191970" points="111.6041,-121.7923 103.3725,-128.4625 113.967,-128.3815 111.6041,-121.7923"/>
</g>
<!-- Node5 -->
<g id="node5" class="node">
<title>Node5</title>
<g id="a_node5"><a xlink:href="../../d2/d3d/classKFParticleFinder.html#a3f6967ae8b6839bc7de48991eaa812ef" target="_top" xlink:title="KFParticleFinder::Find2Daughter\lDecay">
<polygon fill="none" stroke="#000000" points="398,-216.6157 398,-248.6157 577,-248.6157 577,-216.6157 398,-216.6157"/>
<text text-anchor="start" x="406" y="-235.6157" font-family="FreeSans" font-size="10.00" fill="#000000">KFParticleFinder::Find2Daughter</text>
<text text-anchor="middle" x="487.5" y="-223.6157" font-family="FreeSans" font-size="10.00" fill="#000000">Decay</text>
</a>
</g>
</g>
<!-- Node4&#45;&gt;Node5 -->
<g id="edge4" class="edge">
<title>Node4&#45;&gt;Node5</title>
<path fill="none" stroke="#191970" d="M346.0373,-130.6179C351.7118,-133.0585 357.1254,-136.0215 362,-139.6157 387.6462,-158.5255 373.4065,-181.3556 398,-201.6157 405.3613,-207.6799 413.9811,-212.5875 422.9112,-216.5513"/>
<polygon fill="#191970" stroke="#191970" points="346.8829,-127.1979 336.2903,-126.9844 344.4378,-133.757 346.8829,-127.1979"/>
</g>
<!-- Node6 -->
<g id="node6" class="node">
<title>Node6</title>
<g id="a_node6"><a xlink:href="../../d2/d3d/classKFParticleFinder.html#a3ad831d1b28cce4689501e369f561926" target="_top" xlink:title="KFParticleFinder::FindParticles">
<polygon fill="none" stroke="#000000" points="620,-132.6157 620,-152.6157 787,-152.6157 787,-132.6157 620,-132.6157"/>
<text text-anchor="middle" x="703.5" y="-139.6157" font-family="FreeSans" font-size="10.00" fill="#000000">KFParticleFinder::FindParticles</text>
</a>
</g>
</g>
<!-- Node4&#45;&gt;Node6 -->
<g id="edge7" class="edge">
<title>Node4&#45;&gt;Node6</title>
<path fill="none" stroke="#191970" d="M345.0939,-132.7604C350.9304,-134.742 356.6412,-137.0136 362,-139.6157 380.482,-148.59 378.6241,-161.7822 398,-168.6157 495.1359,-202.8735 619.9689,-170.4887 675.1328,-152.6339"/>
<polygon fill="#191970" stroke="#191970" points="345.7809,-129.3091 335.193,-129.692 343.7087,-135.9954 345.7809,-129.3091"/>
</g>
<!-- Node8 -->
<g id="node8" class="node">
<title>Node8</title>
<g id="a_node8"><a xlink:href="../../d2/d3d/classKFParticleFinder.html#a2073bafab2ee9126f3fbf0bef15f68e3" target="_top" xlink:title="KFParticleFinder::FindTrack\lV0Decay">
<polygon fill="none" stroke="#000000" points="412,-126.6157 412,-158.6157 563,-158.6157 563,-126.6157 412,-126.6157"/>
<text text-anchor="start" x="420" y="-145.6157" font-family="FreeSans" font-size="10.00" fill="#000000">KFParticleFinder::FindTrack</text>
<text text-anchor="middle" x="487.5" y="-133.6157" font-family="FreeSans" font-size="10.00" fill="#000000">V0Decay</text>
</a>
</g>
</g>
<!-- Node4&#45;&gt;Node8 -->
<g id="edge8" class="edge">
<title>Node4&#45;&gt;Node8</title>
<path fill="none" stroke="#191970" d="M346.3084,-127.3337C367.3125,-129.6071 390.3668,-132.1024 411.6451,-134.4055"/>
<polygon fill="#191970" stroke="#191970" points="346.4973,-123.8338 336.1787,-126.2374 345.744,-130.7932 346.4973,-123.8338"/>
</g>
<!-- Node9 -->
<g id="node9" class="node">
<title>Node9</title>
<g id="a_node9"><a xlink:href="../../db/dcc/classKFParticleSIMD.html#abd29270d15669591aa6c763f50b6d63c" target="_top" xlink:title="KFParticleSIMD::KFParticleSIMD">
<polygon fill="none" stroke="#000000" points="400.5,-87.6157 400.5,-107.6157 574.5,-107.6157 574.5,-87.6157 400.5,-87.6157"/>
<text text-anchor="middle" x="487.5" y="-94.6157" font-family="FreeSans" font-size="10.00" fill="#000000">KFParticleSIMD::KFParticleSIMD</text>
</a>
</g>
</g>
<!-- Node4&#45;&gt;Node9 -->
<g id="edge10" class="edge">
<title>Node4&#45;&gt;Node9</title>
<path fill="none" stroke="#191970" d="M346.21,-112.2433C363.55,-110.4481 382.2922,-108.5078 400.2818,-106.6453"/>
<polygon fill="#191970" stroke="#191970" points="345.7651,-108.7706 336.1787,-113.2819 346.486,-115.7334 345.7651,-108.7706"/>
</g>
<!-- Node10 -->
<g id="node10" class="node">
<title>Node10</title>
<g id="a_node10"><a xlink:href="../../d2/d3d/classKFParticleFinder.html#a76e093479fb04d0360e1cca0e6aa5d01" target="_top" xlink:title="KFParticleFinder::Neutral\lDaughterDecay">
<polygon fill="none" stroke="#000000" points="417.5,-36.6157 417.5,-68.6157 557.5,-68.6157 557.5,-36.6157 417.5,-36.6157"/>
<text text-anchor="start" x="425.5" y="-55.6157" font-family="FreeSans" font-size="10.00" fill="#000000">KFParticleFinder::Neutral</text>
<text text-anchor="middle" x="487.5" y="-43.6157" font-family="FreeSans" font-size="10.00" fill="#000000">DaughterDecay</text>
</a>
</g>
</g>
<!-- Node4&#45;&gt;Node10 -->
<g id="edge11" class="edge">
<title>Node4&#45;&gt;Node10</title>
<path fill="none" stroke="#191970" d="M343.7175,-106.8765C349.983,-105.0379 356.1625,-102.9593 362,-100.6157 379.4011,-93.6295 380.8453,-86.1868 398,-78.6157 406.2897,-74.957 415.2353,-71.6549 424.1533,-68.7284"/>
<polygon fill="#191970" stroke="#191970" points="342.5641,-103.5632 333.8379,-109.5719 344.4065,-110.3164 342.5641,-103.5632"/>
</g>
<!-- Node11 -->
<g id="node11" class="node">
<title>Node11</title>
<g id="a_node11"><a xlink:href="../../db/d6d/classKFParticleTopoReconstructor.html#a6902971d3ad7442052bf4b0195b08115" target="_top" xlink:title="KFParticleTopoReconstructor\l::TransportPVTracksToPrimVertex">
<polygon fill="none" stroke="#000000" points="613,-36.6157 613,-68.6157 794,-68.6157 794,-36.6157 613,-36.6157"/>
<text text-anchor="start" x="621" y="-55.6157" font-family="FreeSans" font-size="10.00" fill="#000000">KFParticleTopoReconstructor</text>
<text text-anchor="middle" x="703.5" y="-43.6157" font-family="FreeSans" font-size="10.00" fill="#000000">::TransportPVTracksToPrimVertex</text>
</a>
</g>
</g>
<!-- Node4&#45;&gt;Node11 -->
<g id="edge13" class="edge">
<title>Node4&#45;&gt;Node11</title>
<path fill="none" stroke="#191970" d="M345.6134,-110.1561C351.4857,-107.6374 357.0559,-104.5047 362,-100.6157 390.7467,-78.0035 366.993,-46.0127 398,-26.6157 482.3881,26.175 606.5006,-12.0314 667.2744,-36.4621"/>
<polygon fill="#191970" stroke="#191970" points="344.3576,-106.8887 336.1832,-113.6289 346.7767,-113.4574 344.3576,-106.8887"/>
</g>
<!-- Node5&#45;&gt;Node6 -->
<g id="edge5" class="edge">
<title>Node5&#45;&gt;Node6</title>
<path fill="none" stroke="#191970" d="M546.7204,-213.0691C556.8877,-209.4386 567.2984,-205.5461 577,-201.6157 615.4064,-186.056 658.9463,-164.9583 683.6254,-152.6635"/>
<polygon fill="#191970" stroke="#191970" points="545.3493,-209.8411 537.0781,-216.4622 547.6729,-216.4442 545.3493,-209.8411"/>
</g>
<!-- Node7 -->
<g id="node7" class="node">
<title>Node7</title>
<g id="a_node7"><a xlink:href="../../db/d6d/classKFParticleTopoReconstructor.html#a3013eefd4e16b74ae39c531678623d08" target="_top" xlink:title="KFParticleTopoReconstructor\l::ReconstructParticles">
<polygon fill="none" stroke="#000000" points="830,-58.6157 830,-90.6157 990,-90.6157 990,-58.6157 830,-58.6157"/>
<text text-anchor="start" x="838" y="-77.6157" font-family="FreeSans" font-size="10.00" fill="#000000">KFParticleTopoReconstructor</text>
<text text-anchor="middle" x="910" y="-65.6157" font-family="FreeSans" font-size="10.00" fill="#000000">::ReconstructParticles</text>
</a>
</g>
</g>
<!-- Node6&#45;&gt;Node7 -->
<g id="edge6" class="edge">
<title>Node6&#45;&gt;Node7</title>
<path fill="none" stroke="#191970" d="M743.4902,-129.447C777.1688,-118.3567 825.458,-102.4552 861.3688,-90.6298"/>
<polygon fill="#191970" stroke="#191970" points="742.3733,-126.1298 733.9698,-132.582 744.5628,-132.7786 742.3733,-126.1298"/>
</g>
<!-- Node8&#45;&gt;Node6 -->
<g id="edge9" class="edge">
<title>Node8&#45;&gt;Node6</title>
<path fill="none" stroke="#191970" d="M573.0687,-142.6157C588.4812,-142.6157 604.5313,-142.6157 619.8873,-142.6157"/>
<polygon fill="#191970" stroke="#191970" points="573.0464,-139.1158 563.0463,-142.6157 573.0463,-146.1158 573.0464,-139.1158"/>
</g>
<!-- Node10&#45;&gt;Node6 -->
<g id="edge12" class="edge">
<title>Node10&#45;&gt;Node6</title>
<path fill="none" stroke="#191970" d="M558.5673,-71.9398C564.8518,-74.0458 571.0729,-76.2788 577,-78.6157 617.2991,-94.5041 661.9779,-118.7959 685.9668,-132.4267"/>
<polygon fill="#191970" stroke="#191970" points="559.2646,-68.4869 548.6727,-68.7385 557.1097,-75.1469 559.2646,-68.4869"/>
</g>
<!-- Node11&#45;&gt;Node7 -->
<g id="edge14" class="edge">
<title>Node11&#45;&gt;Node7</title>
<path fill="none" stroke="#191970" d="M804.1716,-63.341C812.795,-64.2597 821.4425,-65.181 829.8731,-66.0791"/>
<polygon fill="#191970" stroke="#191970" points="804.3884,-59.8443 794.0739,-62.2652 803.6468,-66.805 804.3884,-59.8443"/>
</g>
</g>
</svg>
