<?xml version="1.0" encoding="UTF-8" standalone="no"?>
<!DOCTYPE svg PUBLIC "-//W3C//DTD SVG 1.1//EN"
 "http://www.w3.org/Graphics/SVG/1.1/DTD/svg11.dtd">
<!-- Generated by graphviz version 2.40.1 (20161225.0304)
 -->
<!-- Title: KFPTrackVector::SetPDG Pages: 1 -->
<svg width="364pt" height="80pt"
 viewBox="0.00 0.00 364.00 80.00" xmlns="http://www.w3.org/2000/svg" xmlns:xlink="http://www.w3.org/1999/xlink">
<g id="graph0" class="graph" transform="scale(1 1) rotate(0) translate(4 76)">
<title>KFPTrackVector::SetPDG</title>
<!-- Node1 -->
<g id="node1" class="node">
<title>Node1</title>
<polygon fill="#bfbfbf" stroke="#000000" points="0,-22.5 0,-42.5 137,-42.5 137,-22.5 0,-22.5"/>
<text text-anchor="middle" x="68.5" y="-29.5" font-family="FreeSans" font-size="10.00" fill="#000000">KFPTrackVector::SetPDG</text>
</g>
<!-- Node2 -->
<g id="node2" class="node">
<title>Node2</title>
<g id="a_node2"><a xlink:href="../../db/d6d/classKFParticleTopoReconstructor.html#ad61db3013ff7eb0f9b211de658987b93" target="_top" xlink:title="KFParticleTopoReconstructor\l::Init">
<polygon fill="none" stroke="#000000" points="184.5,-39.5 184.5,-71.5 344.5,-71.5 344.5,-39.5 184.5,-39.5"/>
<text text-anchor="start" x="192.5" y="-58.5" font-family="FreeSans" font-size="10.00" fill="#000000">KFParticleTopoReconstructor</text>
<text text-anchor="middle" x="264.5" y="-46.5" font-family="FreeSans" font-size="10.00" fill="#000000">::Init</text>
</a>
</g>
</g>
<!-- Node1&#45;&gt;Node2 -->
<g id="edge1" class="edge">
<title>Node1&#45;&gt;Node2</title>
<path fill="none" stroke="#191970" d="M147.1814,-41.733C159.3783,-43.1643 171.991,-44.6444 184.2226,-46.0797"/>
<polygon fill="#191970" stroke="#191970" points="147.3911,-38.2337 137.0513,-40.5443 146.5752,-45.186 147.3911,-38.2337"/>
</g>
<!-- Node3 -->
<g id="node3" class="node">
<title>Node3</title>
<g id="a_node3"><a xlink:href="../../d1/d3a/classKFPInputData.html#a70e4a592587ae3f5c30382cdb3206051" target="_top" xlink:title="KFPInputData::ReadDataFromFile">
<polygon fill="none" stroke="#000000" points="173,-.5 173,-20.5 356,-20.5 356,-.5 173,-.5"/>
<text text-anchor="middle" x="264.5" y="-7.5" font-family="FreeSans" font-size="10.00" fill="#000000">KFPInputData::ReadDataFromFile</text>
</a>
</g>
</g>
<!-- Node1&#45;&gt;Node3 -->
<g id="edge2" class="edge">
<title>Node1&#45;&gt;Node3</title>
<path fill="none" stroke="#191970" d="M147.033,-23.6851C156.3354,-22.6409 165.8817,-21.5694 175.318,-20.5102"/>
<polygon fill="#191970" stroke="#191970" points="146.5984,-20.2118 137.0513,-24.8055 147.3793,-27.1681 146.5984,-20.2118"/>
</g>
</g>
</svg>
