<?xml version="1.0" encoding="UTF-8" standalone="no"?>
<!DOCTYPE svg PUBLIC "-//W3C//DTD SVG 1.1//EN"
 "http://www.w3.org/Graphics/SVG/1.1/DTD/svg11.dtd">
<!-- Generated by graphviz version 2.40.1 (20161225.0304)
 -->
<!-- Title: KFPTrackVector::Size Pages: 1 -->
<svg width="760pt" height="768pt"
 viewBox="0.00 0.00 760.00 768.49" xmlns="http://www.w3.org/2000/svg" xmlns:xlink="http://www.w3.org/1999/xlink">
<g id="graph0" class="graph" transform="scale(1 1) rotate(0) translate(4 764.4856)">
<title>KFPTrackVector::Size</title>
<!-- Node1 -->
<g id="node1" class="node">
<title>Node1</title>
<polygon fill="#bfbfbf" stroke="#000000" points="0,-373.3691 0,-393.3691 120,-393.3691 120,-373.3691 0,-373.3691"/>
<text text-anchor="middle" x="60" y="-380.3691" font-family="FreeSans" font-size="10.00" fill="#000000">KFPTrackVector::Size</text>
</g>
<!-- Node2 -->
<g id="node2" class="node">
<title>Node2</title>
<g id="a_node2"><a xlink:href="../../d2/d3d/classKFParticleFinder.html#ae68561ffcd9f3bf3e8230604678105c5" target="_top" xlink:title="KFParticleFinder::Construct\lPrimaryBG">
<polygon fill="none" stroke="#000000" points="171,-682.3691 171,-714.3691 324,-714.3691 324,-682.3691 171,-682.3691"/>
<text text-anchor="start" x="179" y="-701.3691" font-family="FreeSans" font-size="10.00" fill="#000000">KFParticleFinder::Construct</text>
<text text-anchor="middle" x="247.5" y="-689.3691" font-family="FreeSans" font-size="10.00" fill="#000000">PrimaryBG</text>
</a>
</g>
</g>
<!-- Node1&#45;&gt;Node2 -->
<g id="edge1" class="edge">
<title>Node1&#45;&gt;Node2</title>
<path fill="none" stroke="#191970" d="M60.9326,-403.7094C64.391,-455.1887 80.5828,-591.8998 156,-667.3691 162.0464,-673.4197 169.3152,-678.2898 177.0793,-682.2097"/>
<polygon fill="#191970" stroke="#191970" points="64.417,-403.3368 60.3464,-393.5552 57.4287,-403.7403 64.417,-403.3368"/>
</g>
<!-- Node3 -->
<g id="node3" class="node">
<title>Node3</title>
<g id="a_node3"><a xlink:href="../../d2/d3d/classKFParticleFinder.html#a3ad831d1b28cce4689501e369f561926" target="_top" xlink:title="KFParticleFinder::FindParticles">
<polygon fill="none" stroke="#000000" points="382,-620.3691 382,-640.3691 549,-640.3691 549,-620.3691 382,-620.3691"/>
<text text-anchor="middle" x="465.5" y="-627.3691" font-family="FreeSans" font-size="10.00" fill="#000000">KFParticleFinder::FindParticles</text>
</a>
</g>
</g>
<!-- Node1&#45;&gt;Node3 -->
<g id="edge6" class="edge">
<title>Node1&#45;&gt;Node3</title>
<path fill="none" stroke="#191970" d="M64.6139,-403.506C77.5772,-458.1274 115.9986,-606.8411 156,-634.3691 243.2073,-694.383 379.4763,-659.663 437.6557,-640.4716"/>
<polygon fill="#191970" stroke="#191970" points="67.9891,-402.568 62.305,-393.627 61.1728,-404.1612 67.9891,-402.568"/>
</g>
<!-- Node5 -->
<g id="node5" class="node">
<title>Node5</title>
<g id="a_node5"><a xlink:href="../../d2/d3d/classKFParticleFinder.html#a3f6967ae8b6839bc7de48991eaa812ef" target="_top" xlink:title="KFParticleFinder::Find2Daughter\lDecay">
<polygon fill="none" stroke="#000000" points="158,-592.3691 158,-624.3691 337,-624.3691 337,-592.3691 158,-592.3691"/>
<text text-anchor="start" x="166" y="-611.3691" font-family="FreeSans" font-size="10.00" fill="#000000">KFParticleFinder::Find2Daughter</text>
<text text-anchor="middle" x="247.5" y="-599.3691" font-family="FreeSans" font-size="10.00" fill="#000000">Decay</text>
</a>
</g>
</g>
<!-- Node1&#45;&gt;Node5 -->
<g id="edge4" class="edge">
<title>Node1&#45;&gt;Node5</title>
<path fill="none" stroke="#191970" d="M63.8461,-403.453C72.65,-443.8371 98.1353,-535.1233 156,-583.3691 160.0474,-586.7436 164.5126,-589.6652 169.228,-592.1943"/>
<polygon fill="#191970" stroke="#191970" points="67.2393,-402.5778 61.7922,-393.4905 60.3835,-403.9912 67.2393,-402.5778"/>
</g>
<!-- Node6 -->
<g id="node6" class="node">
<title>Node6</title>
<g id="a_node6"><a xlink:href="../../db/d6d/classKFParticleTopoReconstructor.html#ab724f4c1794600a8405b606d727b97fb" target="_top" xlink:title="KFParticleTopoReconstructor\l::GetChiToPrimVertex">
<polygon fill="none" stroke="#000000" points="385.5,-133.3691 385.5,-165.3691 545.5,-165.3691 545.5,-133.3691 385.5,-133.3691"/>
<text text-anchor="start" x="393.5" y="-152.3691" font-family="FreeSans" font-size="10.00" fill="#000000">KFParticleTopoReconstructor</text>
<text text-anchor="middle" x="465.5" y="-140.3691" font-family="FreeSans" font-size="10.00" fill="#000000">::GetChiToPrimVertex</text>
</a>
</g>
</g>
<!-- Node1&#45;&gt;Node6 -->
<g id="edge7" class="edge">
<title>Node1&#45;&gt;Node6</title>
<path fill="none" stroke="#191970" d="M62.3102,-363.2363C70.6332,-294.6433 101.5108,-72.0187 156,-30.3691 220.6184,19.023 263.3913,-.3952 339,-30.3691 391.696,-51.2596 435.217,-105.6446 454.6195,-133.0627"/>
<polygon fill="#191970" stroke="#191970" points="58.8304,-362.8598 61.1297,-373.2021 65.7818,-363.6833 58.8304,-362.8598"/>
</g>
<!-- Node7 -->
<g id="node7" class="node">
<title>Node7</title>
<g id="a_node7"><a xlink:href="../../db/d6d/classKFParticleTopoReconstructor.html#a927089e1d033d468ed0c2136ca417881" target="_top" xlink:title="KFParticleTopoReconstructor\l::Init">
<polygon fill="none" stroke="#000000" points="167.5,-541.3691 167.5,-573.3691 327.5,-573.3691 327.5,-541.3691 167.5,-541.3691"/>
<text text-anchor="start" x="175.5" y="-560.3691" font-family="FreeSans" font-size="10.00" fill="#000000">KFParticleTopoReconstructor</text>
<text text-anchor="middle" x="247.5" y="-548.3691" font-family="FreeSans" font-size="10.00" fill="#000000">::Init</text>
</a>
</g>
</g>
<!-- Node1&#45;&gt;Node7 -->
<g id="edge9" class="edge">
<title>Node1&#45;&gt;Node7</title>
<path fill="none" stroke="#191970" d="M67.2585,-403.1197C80.0852,-435.2229 109.8443,-498.5336 156,-532.3691 160.6484,-535.7767 165.7362,-538.7199 171.0561,-541.2619"/>
<polygon fill="#191970" stroke="#191970" points="70.4198,-401.5896 63.5585,-393.5166 63.8879,-404.1063 70.4198,-401.5896"/>
</g>
<!-- Node8 -->
<g id="node8" class="node">
<title>Node8</title>
<g id="a_node8"><a xlink:href="../../d2/d3d/classKFParticleFinder.html#a76e093479fb04d0360e1cca0e6aa5d01" target="_top" xlink:title="KFParticleFinder::Neutral\lDaughterDecay">
<polygon fill="none" stroke="#000000" points="177.5,-490.3691 177.5,-522.3691 317.5,-522.3691 317.5,-490.3691 177.5,-490.3691"/>
<text text-anchor="start" x="185.5" y="-509.3691" font-family="FreeSans" font-size="10.00" fill="#000000">KFParticleFinder::Neutral</text>
<text text-anchor="middle" x="247.5" y="-497.3691" font-family="FreeSans" font-size="10.00" fill="#000000">DaughterDecay</text>
</a>
</g>
</g>
<!-- Node1&#45;&gt;Node8 -->
<g id="edge10" class="edge">
<title>Node1&#45;&gt;Node8</title>
<path fill="none" stroke="#191970" d="M72.9954,-401.6328C89.7078,-423.7761 120.8059,-460.691 156,-481.3691 162.6732,-485.2899 169.9803,-488.6137 177.4635,-491.4275"/>
<polygon fill="#191970" stroke="#191970" points="75.6822,-399.3789 66.9338,-393.4026 70.0459,-403.5301 75.6822,-399.3789"/>
</g>
<!-- Node9 -->
<g id="node9" class="node">
<title>Node9</title>
<g id="a_node9"><a xlink:href="../../d1/d86/classKFPTrackVector.html#ae8fdf7dcaa2c4f1a15d8a6961616046c" target="_top" xlink:title="KFPTrackVector::operator=">
<polygon fill="none" stroke="#000000" points="172,-451.3691 172,-471.3691 323,-471.3691 323,-451.3691 172,-451.3691"/>
<text text-anchor="middle" x="247.5" y="-458.3691" font-family="FreeSans" font-size="10.00" fill="#000000">KFPTrackVector::operator=</text>
</a>
</g>
</g>
<!-- Node1&#45;&gt;Node9 -->
<g id="edge12" class="edge">
<title>Node1&#45;&gt;Node9</title>
<path fill="none" stroke="#191970" d="M81.3179,-399.4829C100.0502,-412.8828 128.5312,-431.4643 156,-442.3691 165.0477,-445.9609 174.8805,-448.9127 184.6334,-451.3273"/>
<polygon fill="#191970" stroke="#191970" points="83.3359,-396.6228 73.1942,-393.5574 79.2108,-402.2782 83.3359,-396.6228"/>
</g>
<!-- Node10 -->
<g id="node10" class="node">
<title>Node10</title>
<g id="a_node10"><a xlink:href="../../d1/d86/classKFPTrackVector.html#a82dc658eef2a7ddeeb0ebc524167f4e7" target="_top" xlink:title="KFPTrackVector::Print">
<polygon fill="none" stroke="#000000" points="186,-412.3691 186,-432.3691 309,-432.3691 309,-412.3691 186,-412.3691"/>
<text text-anchor="middle" x="247.5" y="-419.3691" font-family="FreeSans" font-size="10.00" fill="#000000">KFPTrackVector::Print</text>
</a>
</g>
</g>
<!-- Node1&#45;&gt;Node10 -->
<g id="edge13" class="edge">
<title>Node1&#45;&gt;Node10</title>
<path fill="none" stroke="#191970" d="M118.1854,-395.4974C130.6614,-398.0961 143.7687,-400.825 156,-403.3691 169.9782,-406.2764 185.1584,-409.4301 199.0625,-412.3172"/>
<polygon fill="#191970" stroke="#191970" points="118.8476,-392.0603 108.3439,-393.4471 117.4199,-398.9131 118.8476,-392.0603"/>
</g>
<!-- Node11 -->
<g id="node11" class="node">
<title>Node11</title>
<g id="a_node11"><a xlink:href="../../d1/d3a/classKFPInputData.html#a70e4a592587ae3f5c30382cdb3206051" target="_top" xlink:title="KFPInputData::ReadDataFromFile">
<polygon fill="none" stroke="#000000" points="156,-373.3691 156,-393.3691 339,-393.3691 339,-373.3691 156,-373.3691"/>
<text text-anchor="middle" x="247.5" y="-380.3691" font-family="FreeSans" font-size="10.00" fill="#000000">KFPInputData::ReadDataFromFile</text>
</a>
</g>
</g>
<!-- Node1&#45;&gt;Node11 -->
<g id="edge14" class="edge">
<title>Node1&#45;&gt;Node11</title>
<path fill="none" stroke="#191970" d="M130.213,-383.3691C138.6303,-383.3691 147.3183,-383.3691 155.9809,-383.3691"/>
<polygon fill="#191970" stroke="#191970" points="130.0999,-379.8692 120.0998,-383.3691 130.0998,-386.8692 130.0999,-379.8692"/>
</g>
<!-- Node12 -->
<g id="node12" class="node">
<title>Node12</title>
<g id="a_node12"><a xlink:href="../../d1/d86/classKFPTrackVector.html#a7702c695e9d646174ccd54adbbe2dfa8" target="_top" xlink:title="KFPTrackVector::ReadData\lFromVector">
<polygon fill="none" stroke="#000000" points="173.5,-322.3691 173.5,-354.3691 321.5,-354.3691 321.5,-322.3691 173.5,-322.3691"/>
<text text-anchor="start" x="181.5" y="-341.3691" font-family="FreeSans" font-size="10.00" fill="#000000">KFPTrackVector::ReadData</text>
<text text-anchor="middle" x="247.5" y="-329.3691" font-family="FreeSans" font-size="10.00" fill="#000000">FromVector</text>
</a>
</g>
</g>
<!-- Node1&#45;&gt;Node12 -->
<g id="edge15" class="edge">
<title>Node1&#45;&gt;Node12</title>
<path fill="none" stroke="#191970" d="M111.8738,-370.9193C133.1109,-365.8224 157.9564,-359.8595 180.5383,-354.4399"/>
<polygon fill="#191970" stroke="#191970" points="110.9857,-367.533 102.0787,-373.2702 112.6194,-374.3397 110.9857,-367.533"/>
</g>
<!-- Node14 -->
<g id="node14" class="node">
<title>Node14</title>
<g id="a_node14"><a xlink:href="../../d1/d86/classKFPTrackVector.html#a75dbd6777b63099ec45dc92f5168ea08" target="_top" xlink:title="KFPTrackVector::Recalculate\lLastIndex">
<polygon fill="none" stroke="#000000" points="168.5,-271.3691 168.5,-303.3691 326.5,-303.3691 326.5,-271.3691 168.5,-271.3691"/>
<text text-anchor="start" x="176.5" y="-290.3691" font-family="FreeSans" font-size="10.00" fill="#000000">KFPTrackVector::Recalculate</text>
<text text-anchor="middle" x="247.5" y="-278.3691" font-family="FreeSans" font-size="10.00" fill="#000000">LastIndex</text>
</a>
</g>
</g>
<!-- Node1&#45;&gt;Node14 -->
<g id="edge17" class="edge">
<title>Node1&#45;&gt;Node14</title>
<path fill="none" stroke="#191970" d="M78.5392,-366.3546C96.9354,-350.3099 126.565,-326.6517 156,-312.3691 162.9634,-308.9903 170.454,-306.0094 178.0437,-303.3944"/>
<polygon fill="#191970" stroke="#191970" points="76.0666,-363.8697 70.9185,-373.1297 80.7175,-369.1012 76.0666,-363.8697"/>
</g>
<!-- Node15 -->
<g id="node15" class="node">
<title>Node15</title>
<g id="a_node15"><a xlink:href="../../db/d6d/classKFParticleTopoReconstructor.html#a38f4e130f31190edf7184f0d8b545299" target="_top" xlink:title="KFParticleTopoReconstructor\l::SaveInputParticles">
<polygon fill="none" stroke="#000000" points="167.5,-220.3691 167.5,-252.3691 327.5,-252.3691 327.5,-220.3691 167.5,-220.3691"/>
<text text-anchor="start" x="175.5" y="-239.3691" font-family="FreeSans" font-size="10.00" fill="#000000">KFParticleTopoReconstructor</text>
<text text-anchor="middle" x="247.5" y="-227.3691" font-family="FreeSans" font-size="10.00" fill="#000000">::SaveInputParticles</text>
</a>
</g>
</g>
<!-- Node1&#45;&gt;Node15 -->
<g id="edge18" class="edge">
<title>Node1&#45;&gt;Node15</title>
<path fill="none" stroke="#191970" d="M69.9132,-364.1387C84.8705,-337.0598 115.7862,-288.0279 156,-261.3691 161.0785,-258.0024 166.6003,-255.0867 172.3313,-252.5619"/>
<polygon fill="#191970" stroke="#191970" points="66.7812,-362.5734 65.137,-373.0399 72.9493,-365.8831 66.7812,-362.5734"/>
</g>
<!-- Node16 -->
<g id="node16" class="node">
<title>Node16</title>
<g id="a_node16"><a xlink:href="../../d1/d86/classKFPTrackVector.html#aebb11e45669e3a924867561f37999aba" target="_top" xlink:title="KFPTrackVector::SetCovariance">
<polygon fill="none" stroke="#000000" points="161,-181.3691 161,-201.3691 334,-201.3691 334,-181.3691 161,-181.3691"/>
<text text-anchor="middle" x="247.5" y="-188.3691" font-family="FreeSans" font-size="10.00" fill="#000000">KFPTrackVector::SetCovariance</text>
</a>
</g>
</g>
<!-- Node1&#45;&gt;Node16 -->
<g id="edge19" class="edge">
<title>Node1&#45;&gt;Node16</title>
<path fill="none" stroke="#191970" d="M65.1686,-363.2206C75.6659,-326.5952 103.1005,-249.3018 156,-210.3691 160.8347,-206.8108 166.1833,-203.8842 171.7962,-201.481"/>
<polygon fill="#191970" stroke="#191970" points="61.7031,-362.6252 62.4452,-373.194 68.4559,-364.4693 61.7031,-362.6252"/>
</g>
<!-- Node17 -->
<g id="node17" class="node">
<title>Node17</title>
<g id="a_node17"><a xlink:href="../../d1/d86/classKFPTrackVector.html#ae1172a6bfa205c22301513607704c267" target="_top" xlink:title="KFPTrackVector::SetDataTo\lVector">
<polygon fill="none" stroke="#000000" points="172,-130.3691 172,-162.3691 323,-162.3691 323,-130.3691 172,-130.3691"/>
<text text-anchor="start" x="180" y="-149.3691" font-family="FreeSans" font-size="10.00" fill="#000000">KFPTrackVector::SetDataTo</text>
<text text-anchor="middle" x="247.5" y="-137.3691" font-family="FreeSans" font-size="10.00" fill="#000000">Vector</text>
</a>
</g>
</g>
<!-- Node1&#45;&gt;Node17 -->
<g id="edge20" class="edge">
<title>Node1&#45;&gt;Node17</title>
<path fill="none" stroke="#191970" d="M63.253,-363.2414C71.1471,-321.0787 95.3277,-223.1141 156,-171.3691 160.7613,-167.3083 166.1251,-163.9023 171.8078,-161.0461"/>
<polygon fill="#191970" stroke="#191970" points="59.7982,-362.6798 61.5125,-373.135 66.6923,-363.8927 59.7982,-362.6798"/>
</g>
<!-- Node18 -->
<g id="node18" class="node">
<title>Node18</title>
<g id="a_node18"><a xlink:href="../../d1/d86/classKFPTrackVector.html#a1af5b91956e12e205f79977fc351b009" target="_top" xlink:title="KFPTrackVector::SetParameter">
<polygon fill="none" stroke="#000000" points="163,-91.3691 163,-111.3691 332,-111.3691 332,-91.3691 163,-91.3691"/>
<text text-anchor="middle" x="247.5" y="-98.3691" font-family="FreeSans" font-size="10.00" fill="#000000">KFPTrackVector::SetParameter</text>
</a>
</g>
</g>
<!-- Node1&#45;&gt;Node18 -->
<g id="edge21" class="edge">
<title>Node1&#45;&gt;Node18</title>
<path fill="none" stroke="#191970" d="M61.0072,-362.9849C64.6217,-313.2625 81.1157,-185.0961 156,-120.3691 160.0506,-116.8679 164.5773,-113.9536 169.3901,-111.5332"/>
<polygon fill="#191970" stroke="#191970" points="57.5051,-362.9107 60.3755,-373.1093 64.4916,-363.3467 57.5051,-362.9107"/>
</g>
<!-- Node19 -->
<g id="node19" class="node">
<title>Node19</title>
<g id="a_node19"><a xlink:href="../../db/d6d/classKFParticleTopoReconstructor.html#a35f6755e97c39e1e00373272d1546f36" target="_top" xlink:title="KFParticleTopoReconstructor\l::SortTracks">
<polygon fill="none" stroke="#000000" points="167.5,-40.3691 167.5,-72.3691 327.5,-72.3691 327.5,-40.3691 167.5,-40.3691"/>
<text text-anchor="start" x="175.5" y="-59.3691" font-family="FreeSans" font-size="10.00" fill="#000000">KFParticleTopoReconstructor</text>
<text text-anchor="middle" x="247.5" y="-47.3691" font-family="FreeSans" font-size="10.00" fill="#000000">::SortTracks</text>
</a>
</g>
</g>
<!-- Node1&#45;&gt;Node19 -->
<g id="edge22" class="edge">
<title>Node1&#45;&gt;Node19</title>
<path fill="none" stroke="#191970" d="M63.756,-363.497C75.5976,-302.8483 113.8689,-121.8046 156,-81.3691 159.5643,-77.9482 163.5498,-74.9858 167.8088,-72.4213"/>
<polygon fill="#191970" stroke="#191970" points="60.311,-362.878 61.8576,-373.3594 67.1848,-364.2013 60.311,-362.878"/>
</g>
<!-- Node20 -->
<g id="node20" class="node">
<title>Node20</title>
<g id="a_node20"><a xlink:href="../../db/d6d/classKFParticleTopoReconstructor.html#a6902971d3ad7442052bf4b0195b08115" target="_top" xlink:title="KFParticleTopoReconstructor\l::TransportPVTracksToPrimVertex">
<polygon fill="none" stroke="#000000" points="375,-704.3691 375,-736.3691 556,-736.3691 556,-704.3691 375,-704.3691"/>
<text text-anchor="start" x="383" y="-723.3691" font-family="FreeSans" font-size="10.00" fill="#000000">KFParticleTopoReconstructor</text>
<text text-anchor="middle" x="465.5" y="-711.3691" font-family="FreeSans" font-size="10.00" fill="#000000">::TransportPVTracksToPrimVertex</text>
</a>
</g>
</g>
<!-- Node1&#45;&gt;Node20 -->
<g id="edge23" class="edge">
<title>Node1&#45;&gt;Node20</title>
<path fill="none" stroke="#191970" d="M62.5355,-403.6808C71.3879,-470.9468 103.2798,-684.4415 156,-724.3691 233.4299,-783.0104 355.8102,-756.8497 421.0661,-736.4032"/>
<polygon fill="#191970" stroke="#191970" points="65.978,-403.0084 61.2309,-393.5366 59.0351,-403.9014 65.978,-403.0084"/>
</g>
<!-- Node2&#45;&gt;Node3 -->
<g id="edge2" class="edge">
<title>Node2&#45;&gt;Node3</title>
<path fill="none" stroke="#191970" d="M308.6659,-679.2898C349.174,-666.6542 400.677,-650.5891 433.3768,-640.3891"/>
<polygon fill="#191970" stroke="#191970" points="307.391,-676.0211 298.8869,-682.3401 309.4755,-682.7035 307.391,-676.0211"/>
</g>
<!-- Node4 -->
<g id="node4" class="node">
<title>Node4</title>
<g id="a_node4"><a xlink:href="../../db/d6d/classKFParticleTopoReconstructor.html#a3013eefd4e16b74ae39c531678623d08" target="_top" xlink:title="KFParticleTopoReconstructor\l::ReconstructParticles">
<polygon fill="none" stroke="#000000" points="592,-614.3691 592,-646.3691 752,-646.3691 752,-614.3691 592,-614.3691"/>
<text text-anchor="start" x="600" y="-633.3691" font-family="FreeSans" font-size="10.00" fill="#000000">KFParticleTopoReconstructor</text>
<text text-anchor="middle" x="672" y="-621.3691" font-family="FreeSans" font-size="10.00" fill="#000000">::ReconstructParticles</text>
</a>
</g>
</g>
<!-- Node3&#45;&gt;Node4 -->
<g id="edge3" class="edge">
<title>Node3&#45;&gt;Node4</title>
<path fill="none" stroke="#191970" d="M559.5017,-630.3691C570.3129,-630.3691 581.2604,-630.3691 591.865,-630.3691"/>
<polygon fill="#191970" stroke="#191970" points="559.1938,-626.8691 549.1938,-630.3691 559.1937,-633.8691 559.1938,-626.8691"/>
</g>
<!-- Node5&#45;&gt;Node3 -->
<g id="edge5" class="edge">
<title>Node5&#45;&gt;Node3</title>
<path fill="none" stroke="#191970" d="M347.2326,-618.4338C358.8045,-619.6016 370.5168,-620.7836 381.8426,-621.9266"/>
<polygon fill="#191970" stroke="#191970" points="347.4136,-614.9344 337.1127,-617.4125 346.7107,-621.899 347.4136,-614.9344"/>
</g>
<!-- Node6&#45;&gt;Node4 -->
<g id="edge8" class="edge">
<title>Node6&#45;&gt;Node4</title>
<path fill="none" stroke="#191970" d="M480.8619,-174.1323C499.9651,-205.5406 532.8747,-261.7197 556,-312.3691 607.2564,-424.6316 652.4781,-566.6996 667.0747,-614.1306"/>
<polygon fill="#191970" stroke="#191970" points="483.8361,-172.2872 475.631,-165.5844 477.8654,-175.941 483.8361,-172.2872"/>
</g>
<!-- Node8&#45;&gt;Node3 -->
<g id="edge11" class="edge">
<title>Node8&#45;&gt;Node3</title>
<path fill="none" stroke="#191970" d="M324.6743,-525.9511C329.6027,-527.9177 334.4195,-530.0539 339,-532.3691 387.1004,-556.6809 434.945,-600.4245 455.2985,-620.1868"/>
<polygon fill="#191970" stroke="#191970" points="325.6849,-522.5925 315.0923,-522.3757 323.2378,-529.1508 325.6849,-522.5925"/>
</g>
<!-- Node13 -->
<g id="node13" class="node">
<title>Node13</title>
<g id="a_node13"><a xlink:href="../../d1/d3a/classKFPInputData.html#af8728e1c5feced4707d79383c5739f34" target="_top" xlink:title="KFPInputData::ReadDataFrom\lVector">
<polygon fill="none" stroke="#000000" points="382.5,-322.3691 382.5,-354.3691 548.5,-354.3691 548.5,-322.3691 382.5,-322.3691"/>
<text text-anchor="start" x="390.5" y="-341.3691" font-family="FreeSans" font-size="10.00" fill="#000000">KFPInputData::ReadDataFrom</text>
<text text-anchor="middle" x="465.5" y="-329.3691" font-family="FreeSans" font-size="10.00" fill="#000000">Vector</text>
</a>
</g>
</g>
<!-- Node12&#45;&gt;Node13 -->
<g id="edge16" class="edge">
<title>Node12&#45;&gt;Node13</title>
<path fill="none" stroke="#191970" d="M331.7981,-338.3691C348.3524,-338.3691 365.7091,-338.3691 382.2295,-338.3691"/>
<polygon fill="#191970" stroke="#191970" points="331.6091,-334.8691 321.609,-338.3691 331.609,-341.8691 331.6091,-334.8691"/>
</g>
<!-- Node20&#45;&gt;Node4 -->
<g id="edge24" class="edge">
<title>Node20&#45;&gt;Node4</title>
<path fill="none" stroke="#191970" d="M512.0252,-700.0917C549.2169,-683.8823 600.6476,-661.4669 635.054,-646.4714"/>
<polygon fill="#191970" stroke="#191970" points="510.1868,-697.0749 502.4181,-704.2789 512.9836,-703.4919 510.1868,-697.0749"/>
</g>
</g>
</svg>
