<?xml version="1.0" encoding="UTF-8" standalone="no"?>
<!DOCTYPE svg PUBLIC "-//W3C//DTD SVG 1.1//EN"
 "http://www.w3.org/Graphics/SVG/1.1/DTD/svg11.dtd">
<!-- Generated by graphviz version 2.40.1 (20161225.0304)
 -->
<!-- Title: KFPTrackVector::SetCovariance Pages: 1 -->
<svg width="337pt" height="68pt"
 viewBox="0.00 0.00 337.00 68.00" xmlns="http://www.w3.org/2000/svg" xmlns:xlink="http://www.w3.org/1999/xlink">
<g id="graph0" class="graph" transform="scale(1 1) rotate(0) translate(4 64)">
<title>KFPTrackVector::SetCovariance</title>
<!-- Node1 -->
<g id="node1" class="node">
<title>Node1</title>
<polygon fill="#bfbfbf" stroke="#000000" points="0,-19.5 0,-39.5 173,-39.5 173,-19.5 0,-19.5"/>
<text text-anchor="middle" x="86.5" y="-26.5" font-family="FreeSans" font-size="10.00" fill="#000000">KFPTrackVector::SetCovariance</text>
</g>
<!-- Node2 -->
<g id="node2" class="node">
<title>Node2</title>
<g id="a_node2"><a xlink:href="../../d1/d86/classKFPTrackVector.html#aef516e6ae4eae72f3282e68f390c5f4b" target="_top" xlink:title="KFPTrackVector::Size">
<polygon fill="none" stroke="#000000" points="209,-39.5 209,-59.5 329,-59.5 329,-39.5 209,-39.5"/>
<text text-anchor="middle" x="269" y="-46.5" font-family="FreeSans" font-size="10.00" fill="#000000">KFPTrackVector::Size</text>
</a>
</g>
</g>
<!-- Node1&#45;&gt;Node2 -->
<g id="edge1" class="edge">
<title>Node1&#45;&gt;Node2</title>
<path fill="none" stroke="#191970" d="M173.207,-39.0021C181.7723,-39.9408 190.3911,-40.8853 198.7605,-41.8025"/>
<polygon fill="#191970" stroke="#191970" points="198.5036,-45.2952 208.8254,-42.9055 199.2662,-38.3369 198.5036,-45.2952"/>
</g>
<!-- Node3 -->
<g id="node3" class="node">
<title>Node3</title>
<g id="a_node3"><a xlink:href="../../d2/dc5/KFPTrackVector_8h.html#ae4e0091316723c2442dfdc45ba54dbfd" target="_top" xlink:title="Size">
<polygon fill="none" stroke="#000000" points="250.5,-.5 250.5,-20.5 287.5,-20.5 287.5,-.5 250.5,-.5"/>
<text text-anchor="middle" x="269" y="-7.5" font-family="FreeSans" font-size="10.00" fill="#000000">Size</text>
</a>
</g>
</g>
<!-- Node1&#45;&gt;Node3 -->
<g id="edge2" class="edge">
<title>Node1&#45;&gt;Node3</title>
<path fill="none" stroke="#191970" d="M173.207,-20.473C197.3875,-17.9555 221.9946,-15.3937 240.2136,-13.4969"/>
<polygon fill="#191970" stroke="#191970" points="240.8267,-16.9521 250.4105,-12.4353 240.1018,-9.9897 240.8267,-16.9521"/>
</g>
</g>
</svg>
