<?xml version="1.0" encoding="UTF-8" standalone="no"?>
<!DOCTYPE svg PUBLIC "-//W3C//DTD SVG 1.1//EN"
 "http://www.w3.org/Graphics/SVG/1.1/DTD/svg11.dtd">
<!-- Generated by graphviz version 2.40.1 (20161225.0304)
 -->
<!-- Title: KFPTrackVector::FirstMuon Pages: 1 -->
<svg width="770pt" height="92pt"
 viewBox="0.00 0.00 770.00 92.00" xmlns="http://www.w3.org/2000/svg" xmlns:xlink="http://www.w3.org/1999/xlink">
<g id="graph0" class="graph" transform="scale(1 1) rotate(0) translate(4 88)">
<title>KFPTrackVector::FirstMuon</title>
<!-- Node1 -->
<g id="node1" class="node">
<title>Node1</title>
<polygon fill="#bfbfbf" stroke="#000000" points="0,-31.5 0,-51.5 148,-51.5 148,-31.5 0,-31.5"/>
<text text-anchor="middle" x="74" y="-38.5" font-family="FreeSans" font-size="10.00" fill="#000000">KFPTrackVector::FirstMuon</text>
</g>
<!-- Node2 -->
<g id="node2" class="node">
<title>Node2</title>
<g id="a_node2"><a xlink:href="../../d2/d3d/classKFParticleFinder.html#a3f6967ae8b6839bc7de48991eaa812ef" target="_top" xlink:title="KFParticleFinder::Find2Daughter\lDecay">
<polygon fill="none" stroke="#000000" points="184,-51.5 184,-83.5 363,-83.5 363,-51.5 184,-51.5"/>
<text text-anchor="start" x="192" y="-70.5" font-family="FreeSans" font-size="10.00" fill="#000000">KFParticleFinder::Find2Daughter</text>
<text text-anchor="middle" x="273.5" y="-58.5" font-family="FreeSans" font-size="10.00" fill="#000000">Decay</text>
</a>
</g>
</g>
<!-- Node1&#45;&gt;Node2 -->
<g id="edge1" class="edge">
<title>Node1&#45;&gt;Node2</title>
<path fill="none" stroke="#191970" d="M157.9308,-52.4384C166.4631,-53.5503 175.1539,-54.683 183.7447,-55.8026"/>
<polygon fill="#191970" stroke="#191970" points="158.3714,-48.9663 148.0029,-51.1445 157.4667,-55.9076 158.3714,-48.9663"/>
</g>
<!-- Node5 -->
<g id="node5" class="node">
<title>Node5</title>
<g id="a_node5"><a xlink:href="../../d2/d3d/classKFParticleFinder.html#a76e093479fb04d0360e1cca0e6aa5d01" target="_top" xlink:title="KFParticleFinder::Neutral\lDaughterDecay">
<polygon fill="none" stroke="#000000" points="203.5,-.5 203.5,-32.5 343.5,-32.5 343.5,-.5 203.5,-.5"/>
<text text-anchor="start" x="211.5" y="-19.5" font-family="FreeSans" font-size="10.00" fill="#000000">KFParticleFinder::Neutral</text>
<text text-anchor="middle" x="273.5" y="-7.5" font-family="FreeSans" font-size="10.00" fill="#000000">DaughterDecay</text>
</a>
</g>
</g>
<!-- Node1&#45;&gt;Node5 -->
<g id="edge4" class="edge">
<title>Node1&#45;&gt;Node5</title>
<path fill="none" stroke="#191970" d="M158.2807,-30.9385C173.2612,-29.0612 188.7189,-27.1242 203.2575,-25.3023"/>
<polygon fill="#191970" stroke="#191970" points="157.4901,-27.5101 148.0029,-32.2264 158.3606,-34.4558 157.4901,-27.5101"/>
</g>
<!-- Node3 -->
<g id="node3" class="node">
<title>Node3</title>
<g id="a_node3"><a xlink:href="../../d2/d3d/classKFParticleFinder.html#a3ad831d1b28cce4689501e369f561926" target="_top" xlink:title="KFParticleFinder::FindParticles">
<polygon fill="none" stroke="#000000" points="399,-31.5 399,-51.5 566,-51.5 566,-31.5 399,-31.5"/>
<text text-anchor="middle" x="482.5" y="-38.5" font-family="FreeSans" font-size="10.00" fill="#000000">KFParticleFinder::FindParticles</text>
</a>
</g>
</g>
<!-- Node2&#45;&gt;Node3 -->
<g id="edge2" class="edge">
<title>Node2&#45;&gt;Node3</title>
<path fill="none" stroke="#191970" d="M373.1187,-55.1072C382.8191,-53.9005 392.5756,-52.6868 402.0531,-51.5078"/>
<polygon fill="#191970" stroke="#191970" points="372.5357,-51.6527 363.0443,-56.3605 373.3999,-58.5992 372.5357,-51.6527"/>
</g>
<!-- Node4 -->
<g id="node4" class="node">
<title>Node4</title>
<g id="a_node4"><a xlink:href="../../db/d6d/classKFParticleTopoReconstructor.html#a3013eefd4e16b74ae39c531678623d08" target="_top" xlink:title="KFParticleTopoReconstructor\l::ReconstructParticles">
<polygon fill="none" stroke="#000000" points="602,-25.5 602,-57.5 762,-57.5 762,-25.5 602,-25.5"/>
<text text-anchor="start" x="610" y="-44.5" font-family="FreeSans" font-size="10.00" fill="#000000">KFParticleTopoReconstructor</text>
<text text-anchor="middle" x="682" y="-32.5" font-family="FreeSans" font-size="10.00" fill="#000000">::ReconstructParticles</text>
</a>
</g>
</g>
<!-- Node3&#45;&gt;Node4 -->
<g id="edge3" class="edge">
<title>Node3&#45;&gt;Node4</title>
<path fill="none" stroke="#191970" d="M576.2835,-41.5C584.8763,-41.5 593.5283,-41.5 601.9834,-41.5"/>
<polygon fill="#191970" stroke="#191970" points="576.2389,-38.0001 566.2388,-41.5 576.2388,-45.0001 576.2389,-38.0001"/>
</g>
<!-- Node5&#45;&gt;Node3 -->
<g id="edge5" class="edge">
<title>Node5&#45;&gt;Node3</title>
<path fill="none" stroke="#191970" d="M353.7543,-26.0998C368.4923,-27.8627 383.9113,-29.7071 398.7488,-31.4819"/>
<polygon fill="#191970" stroke="#191970" points="354.0203,-22.6068 343.6754,-24.8942 353.1889,-29.5572 354.0203,-22.6068"/>
</g>
</g>
</svg>
