<?xml version="1.0" encoding="UTF-8" standalone="no"?>
<!DOCTYPE svg PUBLIC "-//W3C//DTD SVG 1.1//EN"
 "http://www.w3.org/Graphics/SVG/1.1/DTD/svg11.dtd">
<!-- Generated by graphviz version 2.40.1 (20161225.0304)
 -->
<!-- Title: KFPTrackVector::LastMuon Pages: 1 -->
<svg width="770pt" height="182pt"
 viewBox="0.00 0.00 770.00 182.00" xmlns="http://www.w3.org/2000/svg" xmlns:xlink="http://www.w3.org/1999/xlink">
<g id="graph0" class="graph" transform="scale(1 1) rotate(0) translate(4 178)">
<title>KFPTrackVector::LastMuon</title>
<!-- Node1 -->
<g id="node1" class="node">
<title>Node1</title>
<polygon fill="#bfbfbf" stroke="#000000" points="0,-73.5 0,-93.5 148,-93.5 148,-73.5 0,-73.5"/>
<text text-anchor="middle" x="74" y="-80.5" font-family="FreeSans" font-size="10.00" fill="#000000">KFPTrackVector::LastMuon</text>
</g>
<!-- Node2 -->
<g id="node2" class="node">
<title>Node2</title>
<g id="a_node2"><a xlink:href="../../d2/d3d/classKFParticleFinder.html#a3f6967ae8b6839bc7de48991eaa812ef" target="_top" xlink:title="KFParticleFinder::Find2Daughter\lDecay">
<polygon fill="none" stroke="#000000" points="184,-141.5 184,-173.5 363,-173.5 363,-141.5 184,-141.5"/>
<text text-anchor="start" x="192" y="-160.5" font-family="FreeSans" font-size="10.00" fill="#000000">KFParticleFinder::Find2Daughter</text>
<text text-anchor="middle" x="273.5" y="-148.5" font-family="FreeSans" font-size="10.00" fill="#000000">Decay</text>
</a>
</g>
</g>
<!-- Node1&#45;&gt;Node2 -->
<g id="edge1" class="edge">
<title>Node1&#45;&gt;Node2</title>
<path fill="none" stroke="#191970" d="M103.402,-98.0141C125.2851,-108.4661 156.072,-122.4405 184,-132.5 192.8035,-135.671 202.212,-138.6883 211.4994,-141.459"/>
<polygon fill="#191970" stroke="#191970" points="104.8378,-94.8208 94.3101,-93.6295 101.797,-101.1259 104.8378,-94.8208"/>
</g>
<!-- Node5 -->
<g id="node5" class="node">
<title>Node5</title>
<g id="a_node5"><a xlink:href="../../d2/d3d/classKFParticleFinder.html#a76e093479fb04d0360e1cca0e6aa5d01" target="_top" xlink:title="KFParticleFinder::Neutral\lDaughterDecay">
<polygon fill="none" stroke="#000000" points="203.5,-90.5 203.5,-122.5 343.5,-122.5 343.5,-90.5 203.5,-90.5"/>
<text text-anchor="start" x="211.5" y="-109.5" font-family="FreeSans" font-size="10.00" fill="#000000">KFParticleFinder::Neutral</text>
<text text-anchor="middle" x="273.5" y="-97.5" font-family="FreeSans" font-size="10.00" fill="#000000">DaughterDecay</text>
</a>
</g>
</g>
<!-- Node1&#45;&gt;Node5 -->
<g id="edge4" class="edge">
<title>Node1&#45;&gt;Node5</title>
<path fill="none" stroke="#191970" d="M158.2807,-93.2166C173.2612,-94.9437 188.7189,-96.7257 203.2575,-98.4019"/>
<polygon fill="#191970" stroke="#191970" points="158.338,-89.7001 148.0029,-92.0317 157.5362,-96.654 158.338,-89.7001"/>
</g>
<!-- Node6 -->
<g id="node6" class="node">
<title>Node6</title>
<g id="a_node6"><a xlink:href="../../d1/d86/classKFPTrackVector.html#a82dc658eef2a7ddeeb0ebc524167f4e7" target="_top" xlink:title="KFPTrackVector::Print">
<polygon fill="none" stroke="#000000" points="212,-51.5 212,-71.5 335,-71.5 335,-51.5 212,-51.5"/>
<text text-anchor="middle" x="273.5" y="-58.5" font-family="FreeSans" font-size="10.00" fill="#000000">KFPTrackVector::Print</text>
</a>
</g>
</g>
<!-- Node1&#45;&gt;Node6 -->
<g id="edge6" class="edge">
<title>Node1&#45;&gt;Node6</title>
<path fill="none" stroke="#191970" d="M158.1813,-74.2169C176.1334,-72.2372 194.7753,-70.1814 211.7033,-68.3147"/>
<polygon fill="#191970" stroke="#191970" points="157.559,-70.7642 148.0029,-75.3393 158.3263,-77.722 157.559,-70.7642"/>
</g>
<!-- Node7 -->
<g id="node7" class="node">
<title>Node7</title>
<g id="a_node7"><a xlink:href="../../db/d6d/classKFParticleTopoReconstructor.html#a38f4e130f31190edf7184f0d8b545299" target="_top" xlink:title="KFParticleTopoReconstructor\l::SaveInputParticles">
<polygon fill="none" stroke="#000000" points="193.5,-.5 193.5,-32.5 353.5,-32.5 353.5,-.5 193.5,-.5"/>
<text text-anchor="start" x="201.5" y="-19.5" font-family="FreeSans" font-size="10.00" fill="#000000">KFParticleTopoReconstructor</text>
<text text-anchor="middle" x="273.5" y="-7.5" font-family="FreeSans" font-size="10.00" fill="#000000">::SaveInputParticles</text>
</a>
</g>
</g>
<!-- Node1&#45;&gt;Node7 -->
<g id="edge7" class="edge">
<title>Node1&#45;&gt;Node7</title>
<path fill="none" stroke="#191970" d="M108.9653,-69.7127C130.468,-61.4227 158.6652,-50.8886 184,-42.5 194.2915,-39.0924 205.3265,-35.6875 216.0109,-32.5174"/>
<polygon fill="#191970" stroke="#191970" points="107.6491,-66.4691 99.591,-73.3479 110.18,-72.9956 107.6491,-66.4691"/>
</g>
<!-- Node3 -->
<g id="node3" class="node">
<title>Node3</title>
<g id="a_node3"><a xlink:href="../../d2/d3d/classKFParticleFinder.html#a3ad831d1b28cce4689501e369f561926" target="_top" xlink:title="KFParticleFinder::FindParticles">
<polygon fill="none" stroke="#000000" points="399,-121.5 399,-141.5 566,-141.5 566,-121.5 399,-121.5"/>
<text text-anchor="middle" x="482.5" y="-128.5" font-family="FreeSans" font-size="10.00" fill="#000000">KFParticleFinder::FindParticles</text>
</a>
</g>
</g>
<!-- Node2&#45;&gt;Node3 -->
<g id="edge2" class="edge">
<title>Node2&#45;&gt;Node3</title>
<path fill="none" stroke="#191970" d="M373.1187,-145.1072C382.8191,-143.9005 392.5756,-142.6868 402.0531,-141.5078"/>
<polygon fill="#191970" stroke="#191970" points="372.5357,-141.6527 363.0443,-146.3605 373.3999,-148.5992 372.5357,-141.6527"/>
</g>
<!-- Node4 -->
<g id="node4" class="node">
<title>Node4</title>
<g id="a_node4"><a xlink:href="../../db/d6d/classKFParticleTopoReconstructor.html#a3013eefd4e16b74ae39c531678623d08" target="_top" xlink:title="KFParticleTopoReconstructor\l::ReconstructParticles">
<polygon fill="none" stroke="#000000" points="602,-115.5 602,-147.5 762,-147.5 762,-115.5 602,-115.5"/>
<text text-anchor="start" x="610" y="-134.5" font-family="FreeSans" font-size="10.00" fill="#000000">KFParticleTopoReconstructor</text>
<text text-anchor="middle" x="682" y="-122.5" font-family="FreeSans" font-size="10.00" fill="#000000">::ReconstructParticles</text>
</a>
</g>
</g>
<!-- Node3&#45;&gt;Node4 -->
<g id="edge3" class="edge">
<title>Node3&#45;&gt;Node4</title>
<path fill="none" stroke="#191970" d="M576.2835,-131.5C584.8763,-131.5 593.5283,-131.5 601.9834,-131.5"/>
<polygon fill="#191970" stroke="#191970" points="576.2389,-128.0001 566.2388,-131.5 576.2388,-135.0001 576.2389,-128.0001"/>
</g>
<!-- Node5&#45;&gt;Node3 -->
<g id="edge5" class="edge">
<title>Node5&#45;&gt;Node3</title>
<path fill="none" stroke="#191970" d="M353.7543,-116.0998C368.4923,-117.8627 383.9113,-119.7071 398.7488,-121.4819"/>
<polygon fill="#191970" stroke="#191970" points="354.0203,-112.6068 343.6754,-114.8942 353.1889,-119.5572 354.0203,-112.6068"/>
</g>
</g>
</svg>
