<?xml version="1.0" encoding="UTF-8" standalone="no"?>
<!DOCTYPE svg PUBLIC "-//W3C//DTD SVG 1.1//EN"
 "http://www.w3.org/Graphics/SVG/1.1/DTD/svg11.dtd">
<!-- Generated by graphviz version 2.40.1 (20161225.0304)
 -->
<!-- Title: KFPTrackVector::PVIndex Pages: 1 -->
<svg width="776pt" height="258pt"
 viewBox="0.00 0.00 776.00 258.38" xmlns="http://www.w3.org/2000/svg" xmlns:xlink="http://www.w3.org/1999/xlink">
<g id="graph0" class="graph" transform="scale(1 1) rotate(0) translate(4 254.3796)">
<title>KFPTrackVector::PVIndex</title>
<!-- Node1 -->
<g id="node1" class="node">
<title>Node1</title>
<polygon fill="#bfbfbf" stroke="#000000" points="0,-95.8796 0,-115.8796 140,-115.8796 140,-95.8796 0,-95.8796"/>
<text text-anchor="middle" x="70" y="-102.8796" font-family="FreeSans" font-size="10.00" fill="#000000">KFPTrackVector::PVIndex</text>
</g>
<!-- Node2 -->
<g id="node2" class="node">
<title>Node2</title>
<g id="a_node2"><a xlink:href="../../d2/d3d/classKFParticleFinder.html#ae68561ffcd9f3bf3e8230604678105c5" target="_top" xlink:title="KFParticleFinder::Construct\lPrimaryBG">
<polygon fill="none" stroke="#000000" points="189,-217.8796 189,-249.8796 342,-249.8796 342,-217.8796 189,-217.8796"/>
<text text-anchor="start" x="197" y="-236.8796" font-family="FreeSans" font-size="10.00" fill="#000000">KFParticleFinder::Construct</text>
<text text-anchor="middle" x="265.5" y="-224.8796" font-family="FreeSans" font-size="10.00" fill="#000000">PrimaryBG</text>
</a>
</g>
</g>
<!-- Node1&#45;&gt;Node2 -->
<g id="edge1" class="edge">
<title>Node1&#45;&gt;Node2</title>
<path fill="none" stroke="#191970" d="M83.81,-124.045C102.315,-147.1339 137.3369,-186.6544 176,-208.8796 181.8744,-212.2565 188.2303,-215.1982 194.7516,-217.7568"/>
<polygon fill="#191970" stroke="#191970" points="86.4799,-121.7777 77.5534,-116.0708 80.9727,-126.0987 86.4799,-121.7777"/>
</g>
<!-- Node5 -->
<g id="node5" class="node">
<title>Node5</title>
<g id="a_node5"><a xlink:href="../../d2/d3d/classKFParticleFinder.html#a3f6967ae8b6839bc7de48991eaa812ef" target="_top" xlink:title="KFParticleFinder::Find2Daughter\lDecay">
<polygon fill="none" stroke="#000000" points="176,-166.8796 176,-198.8796 355,-198.8796 355,-166.8796 176,-166.8796"/>
<text text-anchor="start" x="184" y="-185.8796" font-family="FreeSans" font-size="10.00" fill="#000000">KFParticleFinder::Find2Daughter</text>
<text text-anchor="middle" x="265.5" y="-173.8796" font-family="FreeSans" font-size="10.00" fill="#000000">Decay</text>
</a>
</g>
</g>
<!-- Node1&#45;&gt;Node5 -->
<g id="edge4" class="edge">
<title>Node1&#45;&gt;Node5</title>
<path fill="none" stroke="#191970" d="M96.9181,-120.8006C117.985,-132.0534 148.2623,-147.3049 176,-157.8796 184.4418,-161.098 193.473,-164.1046 202.4319,-166.8381"/>
<polygon fill="#191970" stroke="#191970" points="98.3906,-117.618 87.929,-115.943 95.0626,-123.7764 98.3906,-117.618"/>
</g>
<!-- Node6 -->
<g id="node6" class="node">
<title>Node6</title>
<g id="a_node6"><a xlink:href="../../d2/d3d/classKFParticleFinder.html#a2073bafab2ee9126f3fbf0bef15f68e3" target="_top" xlink:title="KFParticleFinder::FindTrack\lV0Decay">
<polygon fill="none" stroke="#000000" points="190,-115.8796 190,-147.8796 341,-147.8796 341,-115.8796 190,-115.8796"/>
<text text-anchor="start" x="198" y="-134.8796" font-family="FreeSans" font-size="10.00" fill="#000000">KFParticleFinder::FindTrack</text>
<text text-anchor="middle" x="265.5" y="-122.8796" font-family="FreeSans" font-size="10.00" fill="#000000">V0Decay</text>
</a>
</g>
</g>
<!-- Node1&#45;&gt;Node6 -->
<g id="edge6" class="edge">
<title>Node1&#45;&gt;Node6</title>
<path fill="none" stroke="#191970" d="M149.9614,-116.5139C163.0858,-118.2593 176.653,-120.0637 189.673,-121.7952"/>
<polygon fill="#191970" stroke="#191970" points="150.402,-113.0417 140.0278,-115.1928 149.4791,-119.9806 150.402,-113.0417"/>
</g>
<!-- Node7 -->
<g id="node7" class="node">
<title>Node7</title>
<g id="a_node7"><a xlink:href="../../d2/d3d/classKFParticleFinder.html#a76e093479fb04d0360e1cca0e6aa5d01" target="_top" xlink:title="KFParticleFinder::Neutral\lDaughterDecay">
<polygon fill="none" stroke="#000000" points="195.5,-64.8796 195.5,-96.8796 335.5,-96.8796 335.5,-64.8796 195.5,-64.8796"/>
<text text-anchor="start" x="203.5" y="-83.8796" font-family="FreeSans" font-size="10.00" fill="#000000">KFParticleFinder::Neutral</text>
<text text-anchor="middle" x="265.5" y="-71.8796" font-family="FreeSans" font-size="10.00" fill="#000000">DaughterDecay</text>
</a>
</g>
</g>
<!-- Node1&#45;&gt;Node7 -->
<g id="edge8" class="edge">
<title>Node1&#45;&gt;Node7</title>
<path fill="none" stroke="#191970" d="M150.2608,-95.6161C165.1977,-93.706 180.6978,-91.7239 195.3041,-89.8561"/>
<polygon fill="#191970" stroke="#191970" points="149.503,-92.1844 140.0278,-96.9247 150.391,-99.1279 149.503,-92.1844"/>
</g>
<!-- Node8 -->
<g id="node8" class="node">
<title>Node8</title>
<g id="a_node8"><a xlink:href="../../d1/d86/classKFPTrackVector.html#a82dc658eef2a7ddeeb0ebc524167f4e7" target="_top" xlink:title="KFPTrackVector::Print">
<polygon fill="none" stroke="#000000" points="204,-25.8796 204,-45.8796 327,-45.8796 327,-25.8796 204,-25.8796"/>
<text text-anchor="middle" x="265.5" y="-32.8796" font-family="FreeSans" font-size="10.00" fill="#000000">KFPTrackVector::Print</text>
</a>
</g>
</g>
<!-- Node1&#45;&gt;Node8 -->
<g id="edge10" class="edge">
<title>Node1&#45;&gt;Node8</title>
<path fill="none" stroke="#191970" d="M96.3988,-90.9834C117.4029,-79.6767 147.8416,-64.4872 176,-54.8796 186.2228,-51.3916 197.3295,-48.4161 208.1293,-45.9268"/>
<polygon fill="#191970" stroke="#191970" points="94.5512,-88.0044 87.4543,-95.8711 97.9079,-94.1472 94.5512,-88.0044"/>
</g>
<!-- Node9 -->
<g id="node9" class="node">
<title>Node9</title>
<g id="a_node9"><a xlink:href="../../db/d6d/classKFParticleTopoReconstructor.html#a6902971d3ad7442052bf4b0195b08115" target="_top" xlink:title="KFParticleTopoReconstructor\l::TransportPVTracksToPrimVertex">
<polygon fill="none" stroke="#000000" points="391,-25.8796 391,-57.8796 572,-57.8796 572,-25.8796 391,-25.8796"/>
<text text-anchor="start" x="399" y="-44.8796" font-family="FreeSans" font-size="10.00" fill="#000000">KFParticleTopoReconstructor</text>
<text text-anchor="middle" x="481.5" y="-32.8796" font-family="FreeSans" font-size="10.00" fill="#000000">::TransportPVTracksToPrimVertex</text>
</a>
</g>
</g>
<!-- Node1&#45;&gt;Node9 -->
<g id="edge11" class="edge">
<title>Node1&#45;&gt;Node9</title>
<path fill="none" stroke="#191970" d="M84.111,-87.8492C102.5115,-65.963 136.9889,-30.2071 176,-15.8796 263.0669,16.0971 373.1464,-7.5029 434.5724,-25.8364"/>
<polygon fill="#191970" stroke="#191970" points="81.2741,-85.7897 77.6602,-95.7492 86.6961,-90.2171 81.2741,-85.7897"/>
</g>
<!-- Node3 -->
<g id="node3" class="node">
<title>Node3</title>
<g id="a_node3"><a xlink:href="../../d2/d3d/classKFParticleFinder.html#a3ad831d1b28cce4689501e369f561926" target="_top" xlink:title="KFParticleFinder::FindParticles">
<polygon fill="none" stroke="#000000" points="398,-121.8796 398,-141.8796 565,-141.8796 565,-121.8796 398,-121.8796"/>
<text text-anchor="middle" x="481.5" y="-128.8796" font-family="FreeSans" font-size="10.00" fill="#000000">KFParticleFinder::FindParticles</text>
</a>
</g>
</g>
<!-- Node2&#45;&gt;Node3 -->
<g id="edge2" class="edge">
<title>Node2&#45;&gt;Node3</title>
<path fill="none" stroke="#191970" d="M340.7125,-214.5194C345.5994,-212.7566 350.4009,-210.8763 355,-208.8796 398.63,-189.938 445.2634,-158.1611 467.7743,-141.9918"/>
<polygon fill="#191970" stroke="#191970" points="339.5661,-211.2124 331.24,-217.7642 341.8346,-217.8346 339.5661,-211.2124"/>
</g>
<!-- Node4 -->
<g id="node4" class="node">
<title>Node4</title>
<g id="a_node4"><a xlink:href="../../db/d6d/classKFParticleTopoReconstructor.html#a3013eefd4e16b74ae39c531678623d08" target="_top" xlink:title="KFParticleTopoReconstructor\l::ReconstructParticles">
<polygon fill="none" stroke="#000000" points="608,-47.8796 608,-79.8796 768,-79.8796 768,-47.8796 608,-47.8796"/>
<text text-anchor="start" x="616" y="-66.8796" font-family="FreeSans" font-size="10.00" fill="#000000">KFParticleTopoReconstructor</text>
<text text-anchor="middle" x="688" y="-54.8796" font-family="FreeSans" font-size="10.00" fill="#000000">::ReconstructParticles</text>
</a>
</g>
</g>
<!-- Node3&#45;&gt;Node4 -->
<g id="edge3" class="edge">
<title>Node3&#45;&gt;Node4</title>
<path fill="none" stroke="#191970" d="M521.4902,-118.7109C555.1688,-107.6206 603.458,-91.7191 639.3688,-79.8938"/>
<polygon fill="#191970" stroke="#191970" points="520.3733,-115.3938 511.9698,-121.846 522.5628,-122.0426 520.3733,-115.3938"/>
</g>
<!-- Node5&#45;&gt;Node3 -->
<g id="edge5" class="edge">
<title>Node5&#45;&gt;Node3</title>
<path fill="none" stroke="#191970" d="M343.4035,-164.4857C375.6096,-156.8815 411.6961,-148.3611 438.9014,-141.9376"/>
<polygon fill="#191970" stroke="#191970" points="342.4754,-161.1086 333.5473,-166.8129 344.084,-167.9212 342.4754,-161.1086"/>
</g>
<!-- Node6&#45;&gt;Node3 -->
<g id="edge7" class="edge">
<title>Node6&#45;&gt;Node3</title>
<path fill="none" stroke="#191970" d="M351.0687,-131.8796C366.4812,-131.8796 382.5313,-131.8796 397.8873,-131.8796"/>
<polygon fill="#191970" stroke="#191970" points="351.0464,-128.3797 341.0463,-131.8796 351.0463,-135.3797 351.0464,-128.3797"/>
</g>
<!-- Node7&#45;&gt;Node3 -->
<g id="edge9" class="edge">
<title>Node7&#45;&gt;Node3</title>
<path fill="none" stroke="#191970" d="M343.4035,-99.2735C375.6096,-106.8777 411.6961,-115.3981 438.9014,-121.8216"/>
<polygon fill="#191970" stroke="#191970" points="344.084,-95.838 333.5473,-96.9463 342.4754,-102.6507 344.084,-95.838"/>
</g>
<!-- Node9&#45;&gt;Node4 -->
<g id="edge12" class="edge">
<title>Node9&#45;&gt;Node4</title>
<path fill="none" stroke="#191970" d="M582.1716,-52.6049C590.795,-53.5236 599.4425,-54.4449 607.8731,-55.3431"/>
<polygon fill="#191970" stroke="#191970" points="582.3884,-49.1083 572.0739,-51.5291 581.6468,-56.0689 582.3884,-49.1083"/>
</g>
</g>
</svg>
