<?xml version="1.0" encoding="UTF-8" standalone="no"?>
<!DOCTYPE svg PUBLIC "-//W3C//DTD SVG 1.1//EN"
 "http://www.w3.org/Graphics/SVG/1.1/DTD/svg11.dtd">
<!-- Generated by graphviz version 2.40.1 (20161225.0304)
 -->
<!-- Title: GenFit/blob/master/GFRave/include/GFRaveTrackParameters.h Pages: 1 -->
<svg width="1071pt" height="353pt"
 viewBox="0.00 0.00 1070.50 353.00" xmlns="http://www.w3.org/2000/svg" xmlns:xlink="http://www.w3.org/1999/xlink">
<g id="graph0" class="graph" transform="scale(1 1) rotate(0) translate(4 349)">
<title>GenFit/blob/master/GFRave/include/GFRaveTrackParameters.h</title>
<!-- Node1 -->
<g id="node1" class="node">
<title>Node1</title>
<polygon fill="#bfbfbf" stroke="#000000" points="648,-300.5 648,-344.5 817,-344.5 817,-300.5 648,-300.5"/>
<text text-anchor="start" x="656" y="-331.5" font-family="FreeSans" font-size="10.00" fill="#000000">GenFit/blob/master</text>
<text text-anchor="start" x="656" y="-319.5" font-family="FreeSans" font-size="10.00" fill="#000000">/GFRave/include/GFRaveTrack</text>
<text text-anchor="middle" x="732.5" y="-307.5" font-family="FreeSans" font-size="10.00" fill="#000000">Parameters.h</text>
</g>
<!-- Node2 -->
<g id="node2" class="node">
<title>Node2</title>
<g id="a_node2"><a xlink:href="../../da/d21/GFRaveVertex_8h.html" target="_top" xlink:title="GenFit/blob/master\l/GFRave/include/GFRaveVertex.h">
<polygon fill="none" stroke="#000000" points="476,-231.5 476,-263.5 659,-263.5 659,-231.5 476,-231.5"/>
<text text-anchor="start" x="484" y="-250.5" font-family="FreeSans" font-size="10.00" fill="#000000">GenFit/blob/master</text>
<text text-anchor="middle" x="567.5" y="-238.5" font-family="FreeSans" font-size="10.00" fill="#000000">/GFRave/include/GFRaveVertex.h</text>
</a>
</g>
</g>
<!-- Node1&#45;&gt;Node2 -->
<g id="edge1" class="edge">
<title>Node1&#45;&gt;Node2</title>
<path fill="none" stroke="#191970" d="M674.5615,-296.1643C650.6903,-285.3138 623.8004,-273.0911 602.941,-263.6095"/>
<polygon fill="#191970" stroke="#191970" points="673.335,-299.4514 683.887,-300.4032 676.2316,-293.0788 673.335,-299.4514"/>
</g>
<!-- Node4 -->
<g id="node4" class="node">
<title>Node4</title>
<g id="a_node4"><a xlink:href="../../d0/de0/GFRaveConverters_8cc.html" target="_top" xlink:title="GenFit/blob/master\l/GFRave/src/GFRaveConverters.cc">
<polygon fill="none" stroke="#000000" points="637,-.5 637,-32.5 826,-32.5 826,-.5 637,-.5"/>
<text text-anchor="start" x="645" y="-19.5" font-family="FreeSans" font-size="10.00" fill="#000000">GenFit/blob/master</text>
<text text-anchor="middle" x="731.5" y="-7.5" font-family="FreeSans" font-size="10.00" fill="#000000">/GFRave/src/GFRaveConverters.cc</text>
</a>
</g>
</g>
<!-- Node1&#45;&gt;Node4 -->
<g id="edge18" class="edge">
<title>Node1&#45;&gt;Node4</title>
<path fill="none" stroke="#191970" d="M732.3952,-290.4328C732.1832,-225.5667 731.7103,-80.8495 731.5524,-32.5445"/>
<polygon fill="#191970" stroke="#191970" points="728.8953,-290.5048 732.4281,-300.4932 735.8953,-290.4818 728.8953,-290.5048"/>
</g>
<!-- Node6 -->
<g id="node6" class="node">
<title>Node6</title>
<g id="a_node6"><a xlink:href="../../d1/d9b/GFRaveTrackParameters_8cc.html" target="_top" xlink:title="GenFit/blob/master\l/GFRave/src/GFRaveTrackParameters.cc">
<polygon fill="none" stroke="#000000" points="844.5,-.5 844.5,-32.5 1062.5,-32.5 1062.5,-.5 844.5,-.5"/>
<text text-anchor="start" x="852.5" y="-19.5" font-family="FreeSans" font-size="10.00" fill="#000000">GenFit/blob/master</text>
<text text-anchor="middle" x="953.5" y="-7.5" font-family="FreeSans" font-size="10.00" fill="#000000">/GFRave/src/GFRaveTrackParameters.cc</text>
</a>
</g>
</g>
<!-- Node1&#45;&gt;Node6 -->
<g id="edge19" class="edge">
<title>Node1&#45;&gt;Node6</title>
<path fill="none" stroke="#191970" d="M754.5124,-292.0213C800.7786,-227.9604 906.7376,-81.2479 941.9123,-32.5445"/>
<polygon fill="#191970" stroke="#191970" points="751.4113,-290.3372 748.3938,-300.4932 757.0861,-294.4357 751.4113,-290.3372"/>
</g>
<!-- Node3 -->
<g id="node3" class="node">
<title>Node3</title>
<g id="a_node3"><a xlink:href="../../de/d0c/GFRaveConverters_8h.html" target="_top" xlink:title="GenFit/blob/master\l/GFRave/include/GFRaveConverters.h">
<polygon fill="none" stroke="#000000" points="459,-75.5 459,-107.5 666,-107.5 666,-75.5 459,-75.5"/>
<text text-anchor="start" x="467" y="-94.5" font-family="FreeSans" font-size="10.00" fill="#000000">GenFit/blob/master</text>
<text text-anchor="middle" x="562.5" y="-82.5" font-family="FreeSans" font-size="10.00" fill="#000000">/GFRave/include/GFRaveConverters.h</text>
</a>
</g>
</g>
<!-- Node2&#45;&gt;Node3 -->
<g id="edge2" class="edge">
<title>Node2&#45;&gt;Node3</title>
<path fill="none" stroke="#191970" d="M553.1678,-221.9449C549.2274,-213.6143 545.4922,-204.1498 543.5,-195 539.245,-175.4579 540.3725,-169.754 543.5,-150 545.8378,-135.234 551.301,-119.1226 555.772,-107.5534"/>
<polygon fill="#191970" stroke="#191970" points="550.166,-223.7655 557.7956,-231.1167 556.4156,-220.6121 550.166,-223.7655"/>
</g>
<!-- Node7 -->
<g id="node7" class="node">
<title>Node7</title>
<g id="a_node7"><a xlink:href="../../df/ddb/GFRaveVertex_8cc.html" target="_top" xlink:title="GenFit/blob/master\l/GFRave/src/GFRaveVertex.cc">
<polygon fill="none" stroke="#000000" points="452.5,-.5 452.5,-32.5 618.5,-32.5 618.5,-.5 452.5,-.5"/>
<text text-anchor="start" x="460.5" y="-19.5" font-family="FreeSans" font-size="10.00" fill="#000000">GenFit/blob/master</text>
<text text-anchor="middle" x="535.5" y="-7.5" font-family="FreeSans" font-size="10.00" fill="#000000">/GFRave/src/GFRaveVertex.cc</text>
</a>
</g>
</g>
<!-- Node2&#45;&gt;Node7 -->
<g id="edge15" class="edge">
<title>Node2&#45;&gt;Node7</title>
<path fill="none" stroke="#191970" d="M637.3156,-227.0723C652.0415,-219.4214 665.7539,-209.0335 674.5,-195 704.1195,-147.4744 706.3429,-115.0655 674.5,-69 665.1124,-55.4194 630.3624,-42.2944 597.9593,-32.5646"/>
<polygon fill="#191970" stroke="#191970" points="635.5706,-224.0267 628.051,-231.4904 638.5838,-230.3451 635.5706,-224.0267"/>
</g>
<!-- Node8 -->
<g id="node8" class="node">
<title>Node8</title>
<g id="a_node8"><a xlink:href="../../de/d59/GFRaveVertexFactory_8cc.html" target="_top" xlink:title="GenFit/blob/master\l/GFRave/src/GFRaveVertexFactory.cc">
<polygon fill="none" stroke="#000000" points="0,-.5 0,-32.5 201,-32.5 201,-.5 0,-.5"/>
<text text-anchor="start" x="8" y="-19.5" font-family="FreeSans" font-size="10.00" fill="#000000">GenFit/blob/master</text>
<text text-anchor="middle" x="100.5" y="-7.5" font-family="FreeSans" font-size="10.00" fill="#000000">/GFRave/src/GFRaveVertexFactory.cc</text>
</a>
</g>
</g>
<!-- Node2&#45;&gt;Node8 -->
<g id="edge16" class="edge">
<title>Node2&#45;&gt;Node8</title>
<path fill="none" stroke="#191970" d="M465.5355,-239.1171C400.3039,-231.8036 314.5294,-218.5271 241.5,-195 164.8795,-170.316 121.8205,-182.4761 79.5,-114 63.7515,-88.5184 78.8784,-52.9505 90.3426,-32.5654"/>
<polygon fill="#191970" stroke="#191970" points="465.5025,-242.6342 475.8233,-240.2404 466.2623,-235.6756 465.5025,-242.6342"/>
</g>
<!-- Node9 -->
<g id="node9" class="node">
<title>Node9</title>
<g id="a_node9"><a xlink:href="../../d9/d0f/GFRaveVertexFactory_8h.html" target="_top" xlink:title="GenFit/blob/master\l/GFRave/include/GFRaveVertex\lFactory.h">
<polygon fill="none" stroke="#000000" points="250.5,-150.5 250.5,-194.5 424.5,-194.5 424.5,-150.5 250.5,-150.5"/>
<text text-anchor="start" x="258.5" y="-181.5" font-family="FreeSans" font-size="10.00" fill="#000000">GenFit/blob/master</text>
<text text-anchor="start" x="258.5" y="-169.5" font-family="FreeSans" font-size="10.00" fill="#000000">/GFRave/include/GFRaveVertex</text>
<text text-anchor="middle" x="337.5" y="-157.5" font-family="FreeSans" font-size="10.00" fill="#000000">Factory.h</text>
</a>
</g>
</g>
<!-- Node2&#45;&gt;Node9 -->
<g id="edge8" class="edge">
<title>Node2&#45;&gt;Node9</title>
<path fill="none" stroke="#191970" d="M508.6075,-228.2959C477.0062,-217.9912 437.9177,-205.2449 405.0819,-194.5376"/>
<polygon fill="#191970" stroke="#191970" points="507.5668,-231.6379 518.1592,-231.4106 509.737,-224.9828 507.5668,-231.6379"/>
</g>
<!-- Node12 -->
<g id="node12" class="node">
<title>Node12</title>
<g id="a_node12"><a xlink:href="../../dc/d84/read_8cc.html" target="_top" xlink:title="GenFit/blob/master\l/test/vertexingTest\l/read.cc">
<polygon fill="none" stroke="#000000" points="553,-150.5 553,-194.5 666,-194.5 666,-150.5 553,-150.5"/>
<text text-anchor="start" x="561" y="-181.5" font-family="FreeSans" font-size="10.00" fill="#000000">GenFit/blob/master</text>
<text text-anchor="start" x="561" y="-169.5" font-family="FreeSans" font-size="10.00" fill="#000000">/test/vertexingTest</text>
<text text-anchor="middle" x="609.5" y="-157.5" font-family="FreeSans" font-size="10.00" fill="#000000">/read.cc</text>
</a>
</g>
</g>
<!-- Node2&#45;&gt;Node12 -->
<g id="edge17" class="edge">
<title>Node2&#45;&gt;Node12</title>
<path fill="none" stroke="#191970" d="M581.5679,-222.3788C586.5822,-213.4246 592.1904,-203.4099 597.0585,-194.7171"/>
<polygon fill="#191970" stroke="#191970" points="578.4457,-220.7909 576.6134,-231.2261 584.5532,-224.2112 578.4457,-220.7909"/>
</g>
<!-- Node3&#45;&gt;Node4 -->
<g id="edge3" class="edge">
<title>Node3&#45;&gt;Node4</title>
<path fill="none" stroke="#191970" d="M608.1188,-71.255C635.4862,-59.1097 669.812,-43.8763 695.3052,-32.5628"/>
<polygon fill="#191970" stroke="#191970" points="606.4753,-68.1551 598.7547,-75.4106 609.3148,-74.5533 606.4753,-68.1551"/>
</g>
<!-- Node5 -->
<g id="node5" class="node">
<title>Node5</title>
<g id="a_node5"><a xlink:href="../../d8/d28/GFRavePropagator_8cc.html" target="_top" xlink:title="GenFit/blob/master\l/GFRave/src/GFRavePropagator.cc">
<polygon fill="none" stroke="#000000" points="244.5,-.5 244.5,-32.5 432.5,-32.5 432.5,-.5 244.5,-.5"/>
<text text-anchor="start" x="252.5" y="-19.5" font-family="FreeSans" font-size="10.00" fill="#000000">GenFit/blob/master</text>
<text text-anchor="middle" x="338.5" y="-7.5" font-family="FreeSans" font-size="10.00" fill="#000000">/GFRave/src/GFRavePropagator.cc</text>
</a>
</g>
</g>
<!-- Node3&#45;&gt;Node5 -->
<g id="edge4" class="edge">
<title>Node3&#45;&gt;Node5</title>
<path fill="none" stroke="#191970" d="M504.8667,-72.2031C468.153,-59.9106 421.1493,-44.1727 386.4741,-32.5628"/>
<polygon fill="#191970" stroke="#191970" points="503.8525,-75.5545 514.4464,-75.4106 506.075,-68.9167 503.8525,-75.5545"/>
</g>
<!-- Node3&#45;&gt;Node6 -->
<g id="edge5" class="edge">
<title>Node3&#45;&gt;Node6</title>
<path fill="none" stroke="#191970" d="M656.2195,-73.5231C721.2226,-61.0545 807.0435,-44.5927 869.7594,-32.5628"/>
<polygon fill="#191970" stroke="#191970" points="655.5409,-70.0894 646.3793,-75.4106 656.8596,-76.9641 655.5409,-70.0894"/>
</g>
<!-- Node3&#45;&gt;Node7 -->
<g id="edge6" class="edge">
<title>Node3&#45;&gt;Node7</title>
<path fill="none" stroke="#191970" d="M553.2193,-65.7202C549.282,-54.7832 544.8123,-42.3676 541.3472,-32.7421"/>
<polygon fill="#191970" stroke="#191970" points="549.961,-67.0028 556.6414,-75.2261 556.5472,-64.6317 549.961,-67.0028"/>
</g>
<!-- Node3&#45;&gt;Node8 -->
<g id="edge7" class="edge">
<title>Node3&#45;&gt;Node8</title>
<path fill="none" stroke="#191970" d="M474.5637,-73.5706C466.1029,-71.9721 457.6436,-70.4225 449.5,-69 366.0549,-54.4245 270.9539,-40.2804 201.1224,-30.3527"/>
<polygon fill="#191970" stroke="#191970" points="473.9985,-77.0259 484.4778,-75.4651 475.3124,-70.1503 473.9985,-77.0259"/>
</g>
<!-- Node9&#45;&gt;Node3 -->
<g id="edge9" class="edge">
<title>Node9&#45;&gt;Node3</title>
<path fill="none" stroke="#191970" d="M408.124,-147.0754C443.9712,-134.1704 486.4355,-118.8832 517.7451,-107.6118"/>
<polygon fill="#191970" stroke="#191970" points="406.9084,-143.793 398.685,-150.4734 409.2795,-150.3792 406.9084,-143.793"/>
</g>
<!-- Node9&#45;&gt;Node8 -->
<g id="edge13" class="edge">
<title>Node9&#45;&gt;Node8</title>
<path fill="none" stroke="#191970" d="M240.1063,-161.486C180.3916,-152.5006 111.9548,-137.4024 93.5,-114 75.1102,-90.68 85.1338,-53.681 93.3179,-32.6022"/>
<polygon fill="#191970" stroke="#191970" points="239.9703,-165.0031 250.3711,-162.9844 240.9816,-158.0765 239.9703,-165.0031"/>
</g>
<!-- Node10 -->
<g id="node10" class="node">
<title>Node10</title>
<g id="a_node10"><a xlink:href="../../df/dfe/GFRavePropagator_8h.html" target="_top" xlink:title="GenFit/blob/master\l/GFRave/include/GFRavePropagator.h">
<polygon fill="none" stroke="#000000" points="234.5,-75.5 234.5,-107.5 440.5,-107.5 440.5,-75.5 234.5,-75.5"/>
<text text-anchor="start" x="242.5" y="-94.5" font-family="FreeSans" font-size="10.00" fill="#000000">GenFit/blob/master</text>
<text text-anchor="middle" x="337.5" y="-82.5" font-family="FreeSans" font-size="10.00" fill="#000000">/GFRave/include/GFRavePropagator.h</text>
</a>
</g>
</g>
<!-- Node9&#45;&gt;Node10 -->
<g id="edge10" class="edge">
<title>Node9&#45;&gt;Node10</title>
<path fill="none" stroke="#191970" d="M337.5,-140.0737C337.5,-128.9468 337.5,-116.9724 337.5,-107.6969"/>
<polygon fill="#191970" stroke="#191970" points="334.0001,-140.3664 337.5,-150.3664 341.0001,-140.3664 334.0001,-140.3664"/>
</g>
<!-- Node11 -->
<g id="node11" class="node">
<title>Node11</title>
<g id="a_node11"><a xlink:href="../../de/dab/GenFit_2blob_2master_2test_2vertexingTest_2main_8cc.html" target="_top" xlink:title="GenFit/blob/master\l/test/vertexingTest\l/main.cc">
<polygon fill="none" stroke="#000000" points="103,-69.5 103,-113.5 216,-113.5 216,-69.5 103,-69.5"/>
<text text-anchor="start" x="111" y="-100.5" font-family="FreeSans" font-size="10.00" fill="#000000">GenFit/blob/master</text>
<text text-anchor="start" x="111" y="-88.5" font-family="FreeSans" font-size="10.00" fill="#000000">/test/vertexingTest</text>
<text text-anchor="middle" x="159.5" y="-76.5" font-family="FreeSans" font-size="10.00" fill="#000000">/main.cc</text>
</a>
</g>
</g>
<!-- Node9&#45;&gt;Node11 -->
<g id="edge14" class="edge">
<title>Node9&#45;&gt;Node11</title>
<path fill="none" stroke="#191970" d="M279.5165,-146.1143C256.4241,-135.6059 230.1476,-123.6486 208.0805,-113.6068"/>
<polygon fill="#191970" stroke="#191970" points="278.3091,-149.4101 288.8607,-150.3664 281.2085,-143.0388 278.3091,-149.4101"/>
</g>
<!-- Node10&#45;&gt;Node5 -->
<g id="edge11" class="edge">
<title>Node10&#45;&gt;Node5</title>
<path fill="none" stroke="#191970" d="M337.8527,-65.0487C337.9963,-54.2776 338.1577,-42.1711 338.2834,-32.7421"/>
<polygon fill="#191970" stroke="#191970" points="334.3507,-65.1803 337.717,-75.2261 341.3501,-65.2737 334.3507,-65.1803"/>
</g>
<!-- Node10&#45;&gt;Node8 -->
<g id="edge12" class="edge">
<title>Node10&#45;&gt;Node8</title>
<path fill="none" stroke="#191970" d="M277.0172,-72.3599C238.101,-60.0446 188.102,-44.2222 151.2584,-32.5628"/>
<polygon fill="#191970" stroke="#191970" points="276.0675,-75.7304 286.6576,-75.4106 278.1796,-69.0566 276.0675,-75.7304"/>
</g>
</g>
</svg>
