<?xml version="1.0" encoding="UTF-8" standalone="no"?>
<!DOCTYPE svg PUBLIC "-//W3C//DTD SVG 1.1//EN"
 "http://www.w3.org/Graphics/SVG/1.1/DTD/svg11.dtd">
<!-- Generated by graphviz version 2.40.1 (20161225.0304)
 -->
<!-- Title: KFPInputData::ReadDataFromVector Pages: 1 -->
<svg width="514pt" height="80pt"
 viewBox="0.00 0.00 514.00 80.00" xmlns="http://www.w3.org/2000/svg" xmlns:xlink="http://www.w3.org/1999/xlink">
<g id="graph0" class="graph" transform="scale(1 1) rotate(0) translate(4 76)">
<title>KFPInputData::ReadDataFromVector</title>
<!-- Node1 -->
<g id="node1" class="node">
<title>Node1</title>
<polygon fill="#bfbfbf" stroke="#000000" points="0,-16.5 0,-48.5 166,-48.5 166,-16.5 0,-16.5"/>
<text text-anchor="start" x="8" y="-35.5" font-family="FreeSans" font-size="10.00" fill="#000000">KFPInputData::ReadDataFrom</text>
<text text-anchor="middle" x="83" y="-23.5" font-family="FreeSans" font-size="10.00" fill="#000000">Vector</text>
</g>
<!-- Node2 -->
<g id="node2" class="node">
<title>Node2</title>
<g id="a_node2"><a xlink:href="../../d1/d86/classKFPTrackVector.html#a7702c695e9d646174ccd54adbbe2dfa8" target="_top" xlink:title="KFPTrackVector::ReadData\lFromVector">
<polygon fill="none" stroke="#000000" points="202,-39.5 202,-71.5 350,-71.5 350,-39.5 202,-39.5"/>
<text text-anchor="start" x="210" y="-58.5" font-family="FreeSans" font-size="10.00" fill="#000000">KFPTrackVector::ReadData</text>
<text text-anchor="middle" x="276" y="-46.5" font-family="FreeSans" font-size="10.00" fill="#000000">FromVector</text>
</a>
</g>
</g>
<!-- Node1&#45;&gt;Node2 -->
<g id="edge1" class="edge">
<title>Node1&#45;&gt;Node2</title>
<path fill="none" stroke="#191970" d="M166.2497,-42.421C174.6634,-43.4236 183.214,-44.4426 191.6391,-45.4466"/>
<polygon fill="#191970" stroke="#191970" points="191.4922,-48.9538 201.8362,-46.6618 192.3206,-42.003 191.4922,-48.9538"/>
</g>
<!-- Node4 -->
<g id="node4" class="node">
<title>Node4</title>
<g id="a_node4"><a xlink:href="../../d1/d86/classKFPTrackVector.html#a14393a69c3cb2f090f4ffcd91b6d2b91" target="_top" xlink:title="KFPTrackVector::Resize">
<polygon fill="none" stroke="#000000" points="210,-.5 210,-20.5 342,-20.5 342,-.5 210,-.5"/>
<text text-anchor="middle" x="276" y="-7.5" font-family="FreeSans" font-size="10.00" fill="#000000">KFPTrackVector::Resize</text>
</a>
</g>
</g>
<!-- Node1&#45;&gt;Node4 -->
<g id="edge3" class="edge">
<title>Node1&#45;&gt;Node4</title>
<path fill="none" stroke="#191970" d="M166.2497,-23.0104C177.4195,-21.7372 188.8308,-20.4364 199.8694,-19.1781"/>
<polygon fill="#191970" stroke="#191970" points="200.3454,-22.6466 209.8846,-18.0365 199.5525,-15.6916 200.3454,-22.6466"/>
</g>
<!-- Node3 -->
<g id="node3" class="node">
<title>Node3</title>
<g id="a_node3"><a xlink:href="../../d1/d86/classKFPTrackVector.html#aef516e6ae4eae72f3282e68f390c5f4b" target="_top" xlink:title="KFPTrackVector::Size">
<polygon fill="none" stroke="#000000" points="386,-45.5 386,-65.5 506,-65.5 506,-45.5 386,-45.5"/>
<text text-anchor="middle" x="446" y="-52.5" font-family="FreeSans" font-size="10.00" fill="#000000">KFPTrackVector::Size</text>
</a>
</g>
</g>
<!-- Node2&#45;&gt;Node3 -->
<g id="edge2" class="edge">
<title>Node2&#45;&gt;Node3</title>
<path fill="none" stroke="#191970" d="M350.0699,-55.5C358.5939,-55.5 367.2669,-55.5 375.7385,-55.5"/>
<polygon fill="#191970" stroke="#191970" points="375.9485,-59.0001 385.9485,-55.5 375.9485,-52.0001 375.9485,-59.0001"/>
</g>
</g>
</svg>
