<?xml version="1.0" encoding="UTF-8" standalone="no"?>
<!DOCTYPE svg PUBLIC "-//W3C//DTD SVG 1.1//EN"
 "http://www.w3.org/Graphics/SVG/1.1/DTD/svg11.dtd">
<!-- Generated by graphviz version 2.40.1 (20161225.0304)
 -->
<!-- Title: genfit::Track Pages: 1 -->
<svg width="1639pt" height="430pt"
 viewBox="0.00 0.00 1639.00 429.50" xmlns="http://www.w3.org/2000/svg" xmlns:xlink="http://www.w3.org/1999/xlink">
<g id="graph0" class="graph" transform="scale(1 1) rotate(0) translate(4 425.5)">
<title>genfit::Track</title>
<!-- Node1 -->
<g id="node1" class="node">
<title>Node1</title>
<polygon fill="#bfbfbf" stroke="#000000" points="803,-198.5 803,-218.5 882,-218.5 882,-198.5 803,-198.5"/>
<text text-anchor="middle" x="842.5" y="-205.5" font-family="FreeSans" font-size="10.00" fill="#000000">genfit::Track</text>
</g>
<!-- Node9 -->
<g id="node9" class="node">
<title>Node9</title>
<g id="a_node9"><a xlink:href="../../db/d40/classgenfit_1_1TrackPoint.html" target="_top" xlink:title="Object containing AbsMeasurement and AbsFitterInfo objects.">
<polygon fill="none" stroke="#000000" points="978,-129.5 978,-149.5 1082,-149.5 1082,-129.5 978,-129.5"/>
<text text-anchor="middle" x="1030" y="-136.5" font-family="FreeSans" font-size="10.00" fill="#000000">genfit::TrackPoint</text>
</a>
</g>
</g>
<!-- Node1&#45;&gt;Node9 -->
<g id="edge12" class="edge">
<title>Node1&#45;&gt;Node9</title>
<path fill="none" stroke="#9a32cd" stroke-dasharray="5,2" d="M879.4778,-194.8922C915.7451,-181.5458 970.1944,-161.5084 1002.703,-149.5453"/>
<polygon fill="#9a32cd" stroke="#9a32cd" points="877.9401,-191.7285 869.7641,-198.4668 880.3576,-198.2978 877.9401,-191.7285"/>
<text text-anchor="middle" x="917.5" y="-188.5" font-family="FreeSans" font-size="10.00" fill="#000000"> track_</text>
</g>
<!-- Node2 -->
<g id="node2" class="node">
<title>Node2</title>
<polygon fill="none" stroke="#bfbfbf" points="25.5,-140.5 25.5,-160.5 82.5,-160.5 82.5,-140.5 25.5,-140.5"/>
<text text-anchor="middle" x="54" y="-147.5" font-family="FreeSans" font-size="10.00" fill="#000000">TObject</text>
</g>
<!-- Node2&#45;&gt;Node1 -->
<g id="edge1" class="edge">
<title>Node2&#45;&gt;Node1</title>
<path fill="none" stroke="#191970" d="M92.6979,-153.3465C226.3459,-163.1773 667.6877,-195.6413 802.8244,-205.5816"/>
<polygon fill="#191970" stroke="#191970" points="92.7588,-149.8416 82.529,-152.5985 92.2452,-156.8228 92.7588,-149.8416"/>
</g>
<!-- Node6 -->
<g id="node6" class="node">
<title>Node6</title>
<g id="a_node6"><a xlink:href="../../d1/d25/classgenfit_1_1AbsTrackRep.html" target="_top" xlink:title="Abstract base class for a track representation.">
<polygon fill="none" stroke="#000000" points="212,-243.5 212,-263.5 329,-263.5 329,-243.5 212,-243.5"/>
<text text-anchor="middle" x="270.5" y="-250.5" font-family="FreeSans" font-size="10.00" fill="#000000">genfit::AbsTrackRep</text>
</a>
</g>
</g>
<!-- Node2&#45;&gt;Node6 -->
<g id="edge6" class="edge">
<title>Node2&#45;&gt;Node6</title>
<path fill="none" stroke="#191970" d="M84.3085,-164.9193C128.7871,-186.08 210.6365,-225.0199 249.261,-243.3955"/>
<polygon fill="#191970" stroke="#191970" points="85.6869,-161.6992 75.1531,-160.5636 82.6796,-168.0203 85.6869,-161.6992"/>
</g>
<!-- Node2&#45;&gt;Node9 -->
<g id="edge11" class="edge">
<title>Node2&#45;&gt;Node9</title>
<path fill="none" stroke="#191970" d="M92.7339,-145.0416C135.9824,-139.428 208.1056,-131.5 270.5,-131.5 270.5,-131.5 270.5,-131.5 842.5,-131.5 888.2773,-131.5 940.2842,-133.9097 977.894,-136.0841"/>
<polygon fill="#191970" stroke="#191970" points="92.1007,-141.5949 82.6467,-146.3773 93.0196,-148.5343 92.1007,-141.5949"/>
</g>
<!-- Node11 -->
<g id="node11" class="node">
<title>Node11</title>
<g id="a_node11"><a xlink:href="../../d9/d8c/classgenfit_1_1AbsFitterInfo.html" target="_top" xlink:title="This class collects all information needed and produced by a specific AbsFitter and is specific to on...">
<polygon fill="none" stroke="#000000" points="1221,-280.5 1221,-300.5 1337,-300.5 1337,-280.5 1221,-280.5"/>
<text text-anchor="middle" x="1279" y="-287.5" font-family="FreeSans" font-size="10.00" fill="#000000">genfit::AbsFitterInfo</text>
</a>
</g>
</g>
<!-- Node2&#45;&gt;Node11 -->
<g id="edge15" class="edge">
<title>Node2&#45;&gt;Node11</title>
<path fill="none" stroke="#191970" d="M64.0507,-169.6374C90.7139,-217.485 168.2562,-338.5 270.5,-338.5 270.5,-338.5 270.5,-338.5 1030,-338.5 1109.4652,-338.5 1200.6587,-314.6375 1247.5368,-300.5624"/>
<polygon fill="#191970" stroke="#191970" points="66.9935,-167.7223 59.1428,-160.6077 60.8432,-171.0652 66.9935,-167.7223"/>
</g>
<!-- Node13 -->
<g id="node13" class="node">
<title>Node13</title>
<g id="a_node13"><a xlink:href="../../d5/d1f/classgenfit_1_1AbsMeasurement.html" target="_top" xlink:title="Contains the measurement and covariance in raw detector coordinates.">
<polygon fill="none" stroke="#000000" points="1208.5,-34.5 1208.5,-54.5 1349.5,-54.5 1349.5,-34.5 1208.5,-34.5"/>
<text text-anchor="middle" x="1279" y="-41.5" font-family="FreeSans" font-size="10.00" fill="#000000">genfit::AbsMeasurement</text>
</a>
</g>
</g>
<!-- Node2&#45;&gt;Node13 -->
<g id="edge20" class="edge">
<title>Node2&#45;&gt;Node13</title>
<path fill="none" stroke="#191970" d="M71.7485,-133.577C106.7592,-102.0517 188.4638,-37.5 270.5,-37.5 270.5,-37.5 270.5,-37.5 1030,-37.5 1090.2204,-37.5 1158.6008,-39.5711 1208.4463,-41.4602"/>
<polygon fill="#191970" stroke="#191970" points="69.243,-131.1262 64.2524,-140.472 73.9819,-136.2782 69.243,-131.1262"/>
</g>
<!-- Node15 -->
<g id="node15" class="node">
<title>Node15</title>
<g id="a_node15"><a xlink:href="../../d6/d15/classgenfit_1_1ThinScatterer.html" target="_top" xlink:title="Thin or thick scatterer.">
<polygon fill="none" stroke="#000000" points="210,-81.5 210,-101.5 331,-101.5 331,-81.5 210,-81.5"/>
<text text-anchor="middle" x="270.5" y="-88.5" font-family="FreeSans" font-size="10.00" fill="#000000">genfit::ThinScatterer</text>
</a>
</g>
</g>
<!-- Node2&#45;&gt;Node15 -->
<g id="edge24" class="edge">
<title>Node2&#45;&gt;Node15</title>
<path fill="none" stroke="#191970" d="M81.435,-135.948C94.6053,-129.4805 110.7968,-122.2678 126,-117.5 152.9971,-109.0335 183.7491,-103.0209 209.9244,-98.926"/>
<polygon fill="#191970" stroke="#191970" points="79.7933,-132.8559 72.4363,-140.4799 82.9419,-139.1078 79.7933,-132.8559"/>
</g>
<!-- Node3 -->
<g id="node3" class="node">
<title>Node3</title>
<polygon fill="none" stroke="#bfbfbf" points="426,-237.5 426,-269.5 575,-269.5 575,-237.5 426,-237.5"/>
<text text-anchor="start" x="434" y="-256.5" font-family="FreeSans" font-size="10.00" fill="#000000">std::map&lt; const AbsTrack</text>
<text text-anchor="middle" x="500.5" y="-244.5" font-family="FreeSans" font-size="10.00" fill="#000000">Rep *, FitStatus * &gt;</text>
</g>
<!-- Node3&#45;&gt;Node1 -->
<g id="edge2" class="edge">
<title>Node3&#45;&gt;Node1</title>
<path fill="none" stroke="#9a32cd" stroke-dasharray="5,2" d="M585.2993,-248.6391C642.1493,-244.4556 718.4952,-237.0482 785,-224.5 793.2476,-222.9438 802.0325,-220.7706 810.189,-218.5266"/>
<polygon fill="#9a32cd" stroke="#9a32cd" points="585.0003,-245.1514 575.2764,-249.3582 585.5013,-252.1335 585.0003,-245.1514"/>
<text text-anchor="middle" x="693" y="-249.5" font-family="FreeSans" font-size="10.00" fill="#000000"> fitStatuses_</text>
</g>
<!-- Node4 -->
<g id="node4" class="node">
<title>Node4</title>
<g id="a_node4"><a xlink:href="../../d0/d8d/classgenfit_1_1FitStatus.html" target="_top" xlink:title="Class where important numbers and properties of a fit can be stored.">
<polygon fill="none" stroke="#000000" points="222.5,-399.5 222.5,-419.5 318.5,-419.5 318.5,-399.5 222.5,-399.5"/>
<text text-anchor="middle" x="270.5" y="-406.5" font-family="FreeSans" font-size="10.00" fill="#000000">genfit::FitStatus</text>
</a>
</g>
</g>
<!-- Node4&#45;&gt;Node3 -->
<g id="edge3" class="edge">
<title>Node4&#45;&gt;Node3</title>
<path fill="none" stroke="#9a32cd" stroke-dasharray="5,2" d="M293.9319,-393.607C337.9286,-363.7658 432.4441,-299.6596 476.7119,-269.6345"/>
<polygon fill="#9a32cd" stroke="#9a32cd" points="291.9023,-390.7545 285.5909,-399.2644 295.8316,-396.5477 291.9023,-390.7545"/>
<text text-anchor="middle" x="374.5" y="-357.5" font-family="FreeSans" font-size="10.00" fill="#000000"> elements</text>
</g>
<!-- Node5 -->
<g id="node5" class="node">
<title>Node5</title>
<g id="a_node5"><a xlink:href="../../d6/d51/structgenfit_1_1PruneFlags.html" target="_top" xlink:title="Info which information has been pruned from the Track.">
<polygon fill="none" stroke="#000000" points="0,-399.5 0,-419.5 108,-419.5 108,-399.5 0,-399.5"/>
<text text-anchor="middle" x="54" y="-406.5" font-family="FreeSans" font-size="10.00" fill="#000000">genfit::PruneFlags</text>
</a>
</g>
</g>
<!-- Node5&#45;&gt;Node4 -->
<g id="edge4" class="edge">
<title>Node5&#45;&gt;Node4</title>
<path fill="none" stroke="#9a32cd" stroke-dasharray="5,2" d="M118.1884,-409.5C151.5336,-409.5 191.6047,-409.5 222.2752,-409.5"/>
<polygon fill="#9a32cd" stroke="#9a32cd" points="118.0737,-406.0001 108.0736,-409.5 118.0736,-413.0001 118.0737,-406.0001"/>
<text text-anchor="middle" x="159" y="-412.5" font-family="FreeSans" font-size="10.00" fill="#000000"> pruneFlags_</text>
</g>
<!-- Node6&#45;&gt;Node3 -->
<g id="edge5" class="edge">
<title>Node6&#45;&gt;Node3</title>
<path fill="none" stroke="#9a32cd" stroke-dasharray="5,2" d="M339.3652,-253.5C366.6331,-253.5 398.0492,-253.5 425.8591,-253.5"/>
<polygon fill="#9a32cd" stroke="#9a32cd" points="339.1339,-250.0001 329.1338,-253.5 339.1338,-257.0001 339.1339,-250.0001"/>
<text text-anchor="middle" x="374.5" y="-256.5" font-family="FreeSans" font-size="10.00" fill="#000000"> keys</text>
</g>
<!-- Node7 -->
<g id="node7" class="node">
<title>Node7</title>
<polygon fill="none" stroke="#bfbfbf" points="418,-198.5 418,-218.5 583,-218.5 583,-198.5 418,-198.5"/>
<text text-anchor="middle" x="500.5" y="-205.5" font-family="FreeSans" font-size="10.00" fill="#000000">std::vector&lt; AbsTrackRep * &gt;</text>
</g>
<!-- Node6&#45;&gt;Node7 -->
<g id="edge8" class="edge">
<title>Node6&#45;&gt;Node7</title>
<path fill="none" stroke="#9a32cd" stroke-dasharray="5,2" d="M329.6629,-241.3627C336.1857,-240.048 342.7319,-238.7387 349,-237.5 381.5767,-231.0624 418.1396,-224.0573 447.1838,-218.5448"/>
<polygon fill="#9a32cd" stroke="#9a32cd" points="328.5829,-238.0102 319.4756,-243.4238 329.9711,-244.8712 328.5829,-238.0102"/>
<text text-anchor="middle" x="374.5" y="-240.5" font-family="FreeSans" font-size="10.00" fill="#000000"> elements</text>
</g>
<!-- Node6&#45;&gt;Node11 -->
<g id="edge17" class="edge">
<title>Node6&#45;&gt;Node11</title>
<path fill="none" stroke="#9a32cd" stroke-dasharray="5,2" d="M311.5603,-266.5111C357.2067,-279.8017 433.3574,-298.5 500.5,-298.5 500.5,-298.5 500.5,-298.5 1030,-298.5 1095.4179,-298.5 1170.4534,-295.7075 1220.9067,-293.4221"/>
<polygon fill="#9a32cd" stroke="#9a32cd" points="312.3266,-263.0878 301.7441,-263.5989 310.3356,-269.7987 312.3266,-263.0878"/>
<text text-anchor="middle" x="842.5" y="-301.5" font-family="FreeSans" font-size="10.00" fill="#000000"> rep_</text>
</g>
<!-- Node17 -->
<g id="node17" class="node">
<title>Node17</title>
<polygon fill="none" stroke="#bfbfbf" points="1462,-274.5 1462,-306.5 1611,-306.5 1611,-274.5 1462,-274.5"/>
<text text-anchor="start" x="1470" y="-293.5" font-family="FreeSans" font-size="10.00" fill="#000000">std::map&lt; const AbsTrack</text>
<text text-anchor="middle" x="1536.5" y="-281.5" font-family="FreeSans" font-size="10.00" fill="#000000">Rep *, AbsFitterInfo * &gt;</text>
</g>
<!-- Node6&#45;&gt;Node17 -->
<g id="edge27" class="edge">
<title>Node6&#45;&gt;Node17</title>
<path fill="none" stroke="#9a32cd" stroke-dasharray="5,2" d="M287.7637,-270.5178C323.9287,-304.2789 411.6732,-376.5 500.5,-376.5 500.5,-376.5 500.5,-376.5 1279,-376.5 1366.1946,-376.5 1461.8405,-331.588 1508.1871,-306.6759"/>
<polygon fill="#9a32cd" stroke="#9a32cd" points="290.12,-267.9285 280.4651,-263.5656 285.2919,-272.9971 290.12,-267.9285"/>
<text text-anchor="middle" x="917.5" y="-379.5" font-family="FreeSans" font-size="10.00" fill="#000000"> keys</text>
</g>
<!-- Node7&#45;&gt;Node1 -->
<g id="edge7" class="edge">
<title>Node7&#45;&gt;Node1</title>
<path fill="none" stroke="#9a32cd" stroke-dasharray="5,2" d="M593.6657,-208.5C662.1885,-208.5 751.9085,-208.5 802.7667,-208.5"/>
<polygon fill="#9a32cd" stroke="#9a32cd" points="593.2887,-205.0001 583.2887,-208.5 593.2886,-212.0001 593.2887,-205.0001"/>
<text text-anchor="middle" x="693" y="-211.5" font-family="FreeSans" font-size="10.00" fill="#000000"> trackReps_</text>
</g>
<!-- Node8 -->
<g id="node8" class="node">
<title>Node8</title>
<polygon fill="none" stroke="#bfbfbf" points="1203,-233.5 1203,-253.5 1355,-253.5 1355,-233.5 1203,-233.5"/>
<text text-anchor="middle" x="1279" y="-240.5" font-family="FreeSans" font-size="10.00" fill="#000000">std::vector&lt; TrackPoint * &gt;</text>
</g>
<!-- Node8&#45;&gt;Node1 -->
<g id="edge9" class="edge">
<title>Node8&#45;&gt;Node1</title>
<path fill="none" stroke="#9a32cd" stroke-dasharray="5,2" d="M1192.7063,-245.4074C1190.1085,-245.442 1187.535,-245.473 1185,-245.5 1158.3348,-245.7836 1151.6102,-247.2352 1125,-245.5 1037.881,-239.8191 936.6058,-224.3839 882.1061,-215.345"/>
<polygon fill="#9a32cd" stroke="#9a32cd" points="1192.8706,-248.9055 1202.8178,-245.2581 1192.7672,-241.9062 1192.8706,-248.9055"/>
<text text-anchor="middle" x="1030" y="-258.5" font-family="FreeSans" font-size="10.00" fill="#000000"> trackPoints_</text>
<text text-anchor="middle" x="1030" y="-246.5" font-family="FreeSans" font-size="10.00" fill="#000000">trackPointsWithMeasurement_</text>
</g>
<!-- Node9&#45;&gt;Node8 -->
<g id="edge10" class="edge">
<title>Node9&#45;&gt;Node8</title>
<path fill="none" stroke="#9a32cd" stroke-dasharray="5,2" d="M1066.108,-153.2022C1110.9955,-170.2421 1182.1109,-197.2611 1185,-198.5 1210.9408,-209.6238 1240.172,-223.9006 1259.0506,-233.3571"/>
<polygon fill="#9a32cd" stroke="#9a32cd" points="1067.2792,-149.9032 1056.688,-149.6266 1064.7951,-156.4476 1067.2792,-149.9032"/>
<text text-anchor="middle" x="1155" y="-201.5" font-family="FreeSans" font-size="10.00" fill="#000000"> elements</text>
</g>
<!-- Node9&#45;&gt;Node11 -->
<g id="edge16" class="edge">
<title>Node9&#45;&gt;Node11</title>
<path fill="none" stroke="#9a32cd" stroke-dasharray="5,2" d="M1049.1003,-156.2304C1079.6996,-182.3015 1142.4412,-232.8074 1203,-263.5 1216.2392,-270.2099 1231.5447,-275.9923 1244.9356,-280.4648"/>
<polygon fill="#9a32cd" stroke="#9a32cd" points="1051.2134,-153.4313 1041.3505,-149.5617 1046.6476,-158.7373 1051.2134,-153.4313"/>
<text text-anchor="middle" x="1155" y="-255.5" font-family="FreeSans" font-size="10.00" fill="#000000"> trackPoint_</text>
</g>
<!-- Node9&#45;&gt;Node13 -->
<g id="edge21" class="edge">
<title>Node9&#45;&gt;Node13</title>
<path fill="none" stroke="#9a32cd" stroke-dasharray="5,2" d="M1048.1746,-122.6355C1066.2525,-106.8485 1095.4827,-83.8894 1125,-71.5 1151.0297,-60.5744 1181.3263,-54.0698 1208.127,-50.1973"/>
<polygon fill="#9a32cd" stroke="#9a32cd" points="1045.8176,-120.0478 1040.6923,-129.3205 1050.4815,-125.2679 1045.8176,-120.0478"/>
<text text-anchor="middle" x="1155" y="-74.5" font-family="FreeSans" font-size="10.00" fill="#000000"> trackPoint_</text>
</g>
<!-- Node10 -->
<g id="node10" class="node">
<title>Node10</title>
<polygon fill="none" stroke="#bfbfbf" points="1475,-173.5 1475,-205.5 1598,-205.5 1598,-173.5 1475,-173.5"/>
<text text-anchor="start" x="1483" y="-192.5" font-family="FreeSans" font-size="10.00" fill="#000000">std::map&lt; unsigned</text>
<text text-anchor="middle" x="1536.5" y="-180.5" font-family="FreeSans" font-size="10.00" fill="#000000"> int, AbsFitterInfo * &gt;</text>
</g>
<!-- Node10&#45;&gt;Node9 -->
<g id="edge13" class="edge">
<title>Node10&#45;&gt;Node9</title>
<path fill="none" stroke="#9a32cd" stroke-dasharray="5,2" d="M1464.6465,-172.6212C1431.4613,-165.5045 1391.4206,-157.8704 1355,-153.5 1259.2542,-142.0106 1146.6463,-139.6196 1082.2653,-139.3012"/>
<polygon fill="#9a32cd" stroke="#9a32cd" points="1464.1985,-176.1054 1474.7137,-174.809 1465.6851,-169.2651 1464.1985,-176.1054"/>
<text text-anchor="middle" x="1279" y="-156.5" font-family="FreeSans" font-size="10.00" fill="#000000"> vFitterInfos_</text>
</g>
<!-- Node11&#45;&gt;Node10 -->
<g id="edge14" class="edge">
<title>Node11&#45;&gt;Node10</title>
<path fill="none" stroke="#9a32cd" stroke-dasharray="5,2" d="M1318.0206,-277.023C1329.9325,-272.8053 1343.0407,-268.0596 1355,-263.5 1404.9201,-244.4675 1461.8747,-220.9471 1498.46,-205.6019"/>
<polygon fill="#9a32cd" stroke="#9a32cd" points="1316.6192,-273.8057 1308.3474,-280.4259 1318.9422,-280.409 1316.6192,-273.8057"/>
<text text-anchor="middle" x="1398.5" y="-258.5" font-family="FreeSans" font-size="10.00" fill="#000000"> elements</text>
</g>
<!-- Node11&#45;&gt;Node17 -->
<g id="edge28" class="edge">
<title>Node11&#45;&gt;Node17</title>
<path fill="none" stroke="#9a32cd" stroke-dasharray="5,2" d="M1347.322,-290.5C1382.6316,-290.5 1425.7836,-290.5 1461.9535,-290.5"/>
<polygon fill="#9a32cd" stroke="#9a32cd" points="1347.1091,-287.0001 1337.1091,-290.5 1347.1091,-294.0001 1347.1091,-287.0001"/>
<text text-anchor="middle" x="1398.5" y="-293.5" font-family="FreeSans" font-size="10.00" fill="#000000"> elements</text>
</g>
<!-- Node12 -->
<g id="node12" class="node">
<title>Node12</title>
<polygon fill="none" stroke="#bfbfbf" points="1442,-63.5 1442,-83.5 1631,-83.5 1631,-63.5 1442,-63.5"/>
<text text-anchor="middle" x="1536.5" y="-70.5" font-family="FreeSans" font-size="10.00" fill="#000000">std::vector&lt; AbsMeasurement * &gt;</text>
</g>
<!-- Node12&#45;&gt;Node9 -->
<g id="edge18" class="edge">
<title>Node12&#45;&gt;Node9</title>
<path fill="none" stroke="#9a32cd" stroke-dasharray="5,2" d="M1449.4362,-84.8449C1343.802,-98.6097 1169.0978,-121.3747 1082.2967,-132.6854"/>
<polygon fill="#9a32cd" stroke="#9a32cd" points="1449.9741,-88.3045 1459.438,-83.5416 1449.0696,-81.3632 1449.9741,-88.3045"/>
<text text-anchor="middle" x="1279" y="-119.5" font-family="FreeSans" font-size="10.00" fill="#000000"> rawMeasurements_</text>
</g>
<!-- Node13&#45;&gt;Node12 -->
<g id="edge19" class="edge">
<title>Node13&#45;&gt;Node12</title>
<path fill="none" stroke="#9a32cd" stroke-dasharray="5,2" d="M1359.8028,-53.6001C1387.6765,-56.7393 1419.0481,-60.2724 1447.5373,-63.4809"/>
<polygon fill="#9a32cd" stroke="#9a32cd" points="1360.0325,-50.1039 1349.7036,-52.4627 1359.249,-57.06 1360.0325,-50.1039"/>
<text text-anchor="middle" x="1398.5" y="-64.5" font-family="FreeSans" font-size="10.00" fill="#000000"> elements</text>
</g>
<!-- Node14 -->
<g id="node14" class="node">
<title>Node14</title>
<polygon fill="none" stroke="#bfbfbf" points="601,-81.5 601,-101.5 785,-101.5 785,-81.5 601,-81.5"/>
<text text-anchor="middle" x="693" y="-88.5" font-family="FreeSans" font-size="10.00" fill="#000000">std::unique_ptr&lt; ThinScatterer &gt;</text>
</g>
<!-- Node14&#45;&gt;Node9 -->
<g id="edge22" class="edge">
<title>Node14&#45;&gt;Node9</title>
<path fill="none" stroke="#9a32cd" stroke-dasharray="5,2" d="M795.3732,-96.2945C823.5412,-98.371 854.0323,-101.3217 882,-105.5 905.8867,-109.0686 911.4576,-112.1089 935,-117.5 951.9974,-121.3923 970.6959,-125.7139 986.975,-129.4893"/>
<polygon fill="#9a32cd" stroke="#9a32cd" points="795.3317,-92.7829 785.1096,-95.5684 794.8377,-99.7655 795.3317,-92.7829"/>
<text text-anchor="middle" x="842.5" y="-108.5" font-family="FreeSans" font-size="10.00" fill="#000000"> thinScatterer_</text>
</g>
<!-- Node15&#45;&gt;Node14 -->
<g id="edge23" class="edge">
<title>Node15&#45;&gt;Node14</title>
<path fill="none" stroke="#9a32cd" stroke-dasharray="5,2" d="M341.2484,-91.5C412.4535,-91.5 522.6205,-91.5 600.6682,-91.5"/>
<polygon fill="#9a32cd" stroke="#9a32cd" points="341.034,-88.0001 331.0339,-91.5 341.0339,-95.0001 341.034,-88.0001"/>
<text text-anchor="middle" x="374.5" y="-94.5" font-family="FreeSans" font-size="10.00" fill="#000000"> ptr</text>
</g>
<!-- Node16 -->
<g id="node16" class="node">
<title>Node16</title>
<g id="a_node16"><a xlink:href="../../da/d5d/structgenfit_1_1Material.html" target="_top" xlink:title="genfit::Material">
<polygon fill="none" stroke="#000000" points="7.5,-.5 7.5,-20.5 100.5,-20.5 100.5,-.5 7.5,-.5"/>
<text text-anchor="middle" x="54" y="-7.5" font-family="FreeSans" font-size="10.00" fill="#000000">genfit::Material</text>
</a>
</g>
</g>
<!-- Node16&#45;&gt;Node15 -->
<g id="edge25" class="edge">
<title>Node16&#45;&gt;Node15</title>
<path fill="none" stroke="#9a32cd" stroke-dasharray="5,2" d="M90.5637,-24.1797C133.8521,-40.3754 204.925,-66.9662 243.5187,-81.4054"/>
<polygon fill="#9a32cd" stroke="#9a32cd" points="91.5746,-20.821 80.9821,-20.5949 89.1216,-27.3772 91.5746,-20.821"/>
<text text-anchor="middle" x="159" y="-64.5" font-family="FreeSans" font-size="10.00" fill="#000000"> material_</text>
</g>
<!-- Node17&#45;&gt;Node9 -->
<g id="edge26" class="edge">
<title>Node17&#45;&gt;Node9</title>
<path fill="none" stroke="#9a32cd" stroke-dasharray="5,2" d="M1499.181,-269.5321C1477.6344,-257.9525 1449.775,-243.8608 1424,-233.5 1306.3897,-186.2241 1159.0695,-158.9209 1082.1834,-146.9023"/>
<polygon fill="#9a32cd" stroke="#9a32cd" points="1497.5461,-272.627 1508.0043,-274.3228 1500.8862,-266.4752 1497.5461,-272.627"/>
<text text-anchor="middle" x="1279" y="-211.5" font-family="FreeSans" font-size="10.00" fill="#000000"> fitterInfos_</text>
</g>
</g>
</svg>
