<?xml version="1.0" encoding="UTF-8" standalone="no"?>
<!DOCTYPE svg PUBLIC "-//W3C//DTD SVG 1.1//EN"
 "http://www.w3.org/Graphics/SVG/1.1/DTD/svg11.dtd">
<!-- Generated by graphviz version 2.40.1 (20161225.0304)
 -->
<!-- Title: GenFit/blob/master/core/include/AbsHMatrix.h Pages: 1 -->
<svg width="276pt" height="98pt"
 viewBox="0.00 0.00 275.50 98.00" xmlns="http://www.w3.org/2000/svg" xmlns:xlink="http://www.w3.org/1999/xlink">
<g id="graph0" class="graph" transform="scale(1 1) rotate(0) translate(4 94)">
<title>GenFit/blob/master/core/include/AbsHMatrix.h</title>
<!-- Node1 -->
<g id="node1" class="node">
<title>Node1</title>
<polygon fill="#bfbfbf" stroke="#000000" points="54,-57.5 54,-89.5 207,-89.5 207,-57.5 54,-57.5"/>
<text text-anchor="start" x="62" y="-76.5" font-family="FreeSans" font-size="10.00" fill="#000000">GenFit/blob/master</text>
<text text-anchor="middle" x="130.5" y="-64.5" font-family="FreeSans" font-size="10.00" fill="#000000">/core/include/AbsHMatrix.h</text>
</g>
<!-- Node2 -->
<g id="node2" class="node">
<title>Node2</title>
<polygon fill="none" stroke="#bfbfbf" points="0,-.5 0,-20.5 65,-20.5 65,-.5 0,-.5"/>
<text text-anchor="middle" x="32.5" y="-7.5" font-family="FreeSans" font-size="10.00" fill="#000000">TObject.h</text>
</g>
<!-- Node1&#45;&gt;Node2 -->
<g id="edge1" class="edge">
<title>Node1&#45;&gt;Node2</title>
<path fill="none" stroke="#191970" d="M105.5169,-57.4394C90.583,-47.839 71.6948,-35.6967 56.8709,-26.167"/>
<polygon fill="#191970" stroke="#191970" points="58.5422,-23.0806 48.2377,-20.6171 54.7569,-28.9689 58.5422,-23.0806"/>
</g>
<!-- Node3 -->
<g id="node3" class="node">
<title>Node3</title>
<polygon fill="none" stroke="#bfbfbf" points="83.5,-.5 83.5,-20.5 177.5,-20.5 177.5,-.5 83.5,-.5"/>
<text text-anchor="middle" x="130.5" y="-7.5" font-family="FreeSans" font-size="10.00" fill="#000000">TMatrixDSym.h</text>
</g>
<!-- Node1&#45;&gt;Node3 -->
<g id="edge2" class="edge">
<title>Node1&#45;&gt;Node3</title>
<path fill="none" stroke="#191970" d="M130.5,-57.2759C130.5,-49.2654 130.5,-39.5159 130.5,-30.9952"/>
<polygon fill="#191970" stroke="#191970" points="134.0001,-30.7512 130.5,-20.7513 127.0001,-30.7513 134.0001,-30.7512"/>
</g>
<!-- Node4 -->
<g id="node4" class="node">
<title>Node4</title>
<polygon fill="none" stroke="#bfbfbf" points="195.5,-.5 195.5,-20.5 267.5,-20.5 267.5,-.5 195.5,-.5"/>
<text text-anchor="middle" x="231.5" y="-7.5" font-family="FreeSans" font-size="10.00" fill="#000000">TVectorD.h</text>
</g>
<!-- Node1&#45;&gt;Node4 -->
<g id="edge3" class="edge">
<title>Node1&#45;&gt;Node4</title>
<path fill="none" stroke="#191970" d="M156.2479,-57.4394C171.639,-47.839 191.1053,-35.6967 206.3831,-26.167"/>
<polygon fill="#191970" stroke="#191970" points="208.6481,-28.8793 215.2805,-20.6171 204.9434,-22.94 208.6481,-28.8793"/>
</g>
</g>
</svg>
