<?xml version="1.0" encoding="UTF-8" standalone="no"?>
<!DOCTYPE svg PUBLIC "-//W3C//DTD SVG 1.1//EN"
 "http://www.w3.org/Graphics/SVG/1.1/DTD/svg11.dtd">
<!-- Generated by graphviz version 2.40.1 (20161225.0304)
 -->
<!-- Title: genfit::AbsTrackRep::calcJacobianNumerically Pages: 1 -->
<svg width="311pt" height="143pt"
 viewBox="0.00 0.00 311.00 143.00" xmlns="http://www.w3.org/2000/svg" xmlns:xlink="http://www.w3.org/1999/xlink">
<g id="graph0" class="graph" transform="scale(1 1) rotate(0) translate(4 139)">
<title>genfit::AbsTrackRep::calcJacobianNumerically</title>
<!-- Node1 -->
<g id="node1" class="node">
<title>Node1</title>
<polygon fill="#bfbfbf" stroke="#000000" points="0,-51.5 0,-83.5 146,-83.5 146,-51.5 0,-51.5"/>
<text text-anchor="start" x="8" y="-70.5" font-family="FreeSans" font-size="10.00" fill="#000000">genfit::AbsTrackRep</text>
<text text-anchor="middle" x="73" y="-58.5" font-family="FreeSans" font-size="10.00" fill="#000000">::calcJacobianNumerically</text>
</g>
<!-- Node2 -->
<g id="node2" class="node">
<title>Node2</title>
<g id="a_node2"><a xlink:href="../../d1/d25/classgenfit_1_1AbsTrackRep.html#a2f8c69950056c0c679d66bfb2eae2431" target="_top" xlink:title="Extrapolates the state to plane, and returns the extrapolation length and, via reference, the extrapolated state.">
<polygon fill="none" stroke="#000000" points="183,-102.5 183,-134.5 302,-134.5 302,-102.5 183,-102.5"/>
<text text-anchor="start" x="191" y="-121.5" font-family="FreeSans" font-size="10.00" fill="#000000">genfit::AbsTrackRep</text>
<text text-anchor="middle" x="242.5" y="-109.5" font-family="FreeSans" font-size="10.00" fill="#000000">::extrapolateToPlane</text>
</a>
</g>
</g>
<!-- Node1&#45;&gt;Node2 -->
<g id="edge1" class="edge">
<title>Node1&#45;&gt;Node2</title>
<path fill="none" stroke="#191970" d="M126.6309,-83.6367C143.3326,-88.662 161.9068,-94.2507 179.2046,-99.4554"/>
<polygon fill="#191970" stroke="#191970" points="178.6336,-102.9385 189.218,-102.4683 180.6506,-96.2354 178.6336,-102.9385"/>
</g>
<!-- Node3 -->
<g id="node3" class="node">
<title>Node3</title>
<g id="a_node3"><a xlink:href="../../d1/d25/classgenfit_1_1AbsTrackRep.html#ab73b2438fc8bc96ea96449b799c8f583" target="_top" xlink:title="Get the dimension of the state vector used by the track representation.">
<polygon fill="none" stroke="#000000" points="184,-51.5 184,-83.5 301,-83.5 301,-51.5 184,-51.5"/>
<text text-anchor="start" x="192" y="-70.5" font-family="FreeSans" font-size="10.00" fill="#000000">genfit::AbsTrackRep</text>
<text text-anchor="middle" x="242.5" y="-58.5" font-family="FreeSans" font-size="10.00" fill="#000000">::getDim</text>
</a>
</g>
</g>
<!-- Node1&#45;&gt;Node3 -->
<g id="edge2" class="edge">
<title>Node1&#45;&gt;Node3</title>
<path fill="none" stroke="#191970" d="M146.3593,-67.5C155.4603,-67.5 164.7397,-67.5 173.7674,-67.5"/>
<polygon fill="#191970" stroke="#191970" points="173.8302,-71.0001 183.8302,-67.5 173.8301,-64.0001 173.8302,-71.0001"/>
</g>
<!-- Node4 -->
<g id="node4" class="node">
<title>Node4</title>
<g id="a_node4"><a xlink:href="../../de/dd5/classgenfit_1_1StateOnPlane.html#a61a05215bec767cf6919b083808a37d2" target="_top" xlink:title="genfit::StateOnPlane\l::getState">
<polygon fill="none" stroke="#000000" points="182,-.5 182,-32.5 303,-32.5 303,-.5 182,-.5"/>
<text text-anchor="start" x="190" y="-19.5" font-family="FreeSans" font-size="10.00" fill="#000000">genfit::StateOnPlane</text>
<text text-anchor="middle" x="242.5" y="-7.5" font-family="FreeSans" font-size="10.00" fill="#000000">::getState</text>
</a>
</g>
</g>
<!-- Node1&#45;&gt;Node4 -->
<g id="edge3" class="edge">
<title>Node1&#45;&gt;Node4</title>
<path fill="none" stroke="#191970" d="M126.6309,-51.3633C143.3326,-46.338 161.9068,-40.7493 179.2046,-35.5446"/>
<polygon fill="#191970" stroke="#191970" points="180.6506,-38.7646 189.218,-32.5317 178.6336,-32.0615 180.6506,-38.7646"/>
</g>
</g>
</svg>
