<?xml version="1.0" encoding="UTF-8" standalone="no"?>
<!DOCTYPE svg PUBLIC "-//W3C//DTD SVG 1.1//EN"
 "http://www.w3.org/Graphics/SVG/1.1/DTD/svg11.dtd">
<!-- Generated by graphviz version 2.40.1 (20161225.0304)
 -->
<!-- Title: genfit::AbsTrackRep::extrapolateToSphere Pages: 1 -->
<svg width="399pt" height="80pt"
 viewBox="0.00 0.00 399.00 80.00" xmlns="http://www.w3.org/2000/svg" xmlns:xlink="http://www.w3.org/1999/xlink">
<g id="graph0" class="graph" transform="scale(1 1) rotate(0) translate(4 76)">
<title>genfit::AbsTrackRep::extrapolateToSphere</title>
<!-- Node1 -->
<g id="node1" class="node">
<title>Node1</title>
<polygon fill="#bfbfbf" stroke="#000000" points="0,-22.5 0,-54.5 127,-54.5 127,-22.5 0,-22.5"/>
<text text-anchor="start" x="8" y="-41.5" font-family="FreeSans" font-size="10.00" fill="#000000">genfit::AbsTrackRep</text>
<text text-anchor="middle" x="63.5" y="-29.5" font-family="FreeSans" font-size="10.00" fill="#000000">::extrapolateToSphere</text>
</g>
<!-- Node2 -->
<g id="node2" class="node">
<title>Node2</title>
<g id="a_node2"><a xlink:href="../../d9/d33/GenFit_2blob_2master_2test_2unitTests_2main_8cc.html#a44685aea144b7b6206b6df4ddc37f1c9" target="_top" xlink:title="checkExtrapolateToSphere">
<polygon fill="none" stroke="#000000" points="163,-51.5 163,-71.5 314,-71.5 314,-51.5 163,-51.5"/>
<text text-anchor="middle" x="238.5" y="-58.5" font-family="FreeSans" font-size="10.00" fill="#000000">checkExtrapolateToSphere</text>
</a>
</g>
</g>
<!-- Node1&#45;&gt;Node2 -->
<g id="edge1" class="edge">
<title>Node1&#45;&gt;Node2</title>
<path fill="none" stroke="#191970" d="M137.1106,-48.1745C145.6633,-49.2986 154.3978,-50.4466 162.9758,-51.574"/>
<polygon fill="#191970" stroke="#191970" points="137.5449,-44.7016 127.1741,-46.8686 136.6327,-51.6419 137.5449,-44.7016"/>
</g>
<!-- Node4 -->
<g id="node4" class="node">
<title>Node4</title>
<g id="a_node4"><a xlink:href="../../de/dd5/classgenfit_1_1StateOnPlane.html#a74adeaef53f2171c859f9f7bb0000a13" target="_top" xlink:title="genfit::StateOnPlane\l::extrapolateToSphere">
<polygon fill="none" stroke="#000000" points="175,-.5 175,-32.5 302,-32.5 302,-.5 175,-.5"/>
<text text-anchor="start" x="183" y="-19.5" font-family="FreeSans" font-size="10.00" fill="#000000">genfit::StateOnPlane</text>
<text text-anchor="middle" x="238.5" y="-7.5" font-family="FreeSans" font-size="10.00" fill="#000000">::extrapolateToSphere</text>
</a>
</g>
</g>
<!-- Node1&#45;&gt;Node4 -->
<g id="edge3" class="edge">
<title>Node1&#45;&gt;Node4</title>
<path fill="none" stroke="#191970" d="M137.1317,-29.2434C149.6777,-27.6662 162.614,-26.04 174.8733,-24.4988"/>
<polygon fill="#191970" stroke="#191970" points="136.6594,-25.7752 127.1741,-30.4953 137.5326,-32.7205 136.6594,-25.7752"/>
</g>
<!-- Node3 -->
<g id="node3" class="node">
<title>Node3</title>
<g id="a_node3"><a xlink:href="../../d9/d33/GenFit_2blob_2master_2test_2unitTests_2main_8cc.html#ae66f6b31b5ad750f1fe042a706a4e3d4" target="_top" xlink:title="main">
<polygon fill="none" stroke="#000000" points="350,-51.5 350,-71.5 391,-71.5 391,-51.5 350,-51.5"/>
<text text-anchor="middle" x="370.5" y="-58.5" font-family="FreeSans" font-size="10.00" fill="#000000">main</text>
</a>
</g>
</g>
<!-- Node2&#45;&gt;Node3 -->
<g id="edge2" class="edge">
<title>Node2&#45;&gt;Node3</title>
<path fill="none" stroke="#191970" d="M324.1549,-61.5C333.5979,-61.5 342.4502,-61.5 349.8365,-61.5"/>
<polygon fill="#191970" stroke="#191970" points="324.1373,-58.0001 314.1372,-61.5 324.1372,-65.0001 324.1373,-58.0001"/>
</g>
</g>
</svg>
