<?xml version="1.0" encoding="UTF-8" standalone="no"?>
<!DOCTYPE svg PUBLIC "-//W3C//DTD SVG 1.1//EN"
 "http://www.w3.org/Graphics/SVG/1.1/DTD/svg11.dtd">
<!-- Generated by graphviz version 2.40.1 (20161225.0304)
 -->
<!-- Title: genfit::AbsTrackRep::setQop Pages: 1 -->
<svg width="517pt" height="194pt"
 viewBox="0.00 0.00 517.00 194.00" xmlns="http://www.w3.org/2000/svg" xmlns:xlink="http://www.w3.org/1999/xlink">
<g id="graph0" class="graph" transform="scale(1 1) rotate(0) translate(4 190)">
<title>genfit::AbsTrackRep::setQop</title>
<!-- Node1 -->
<g id="node1" class="node">
<title>Node1</title>
<polygon fill="#bfbfbf" stroke="#000000" points="0,-76.5 0,-108.5 117,-108.5 117,-76.5 0,-76.5"/>
<text text-anchor="start" x="8" y="-95.5" font-family="FreeSans" font-size="10.00" fill="#000000">genfit::AbsTrackRep</text>
<text text-anchor="middle" x="58.5" y="-83.5" font-family="FreeSans" font-size="10.00" fill="#000000">::setQop</text>
</g>
<!-- Node2 -->
<g id="node2" class="node">
<title>Node2</title>
<g id="a_node2"><a xlink:href="../../d8/d26/classgenfit_1_1KalmanFitterRefTrack.html#ab28798fe239a0577ef7a9c254c235491" target="_top" xlink:title="Prepare the track.">
<polygon fill="none" stroke="#000000" points="153,-153.5 153,-185.5 313,-185.5 313,-153.5 153,-153.5"/>
<text text-anchor="start" x="161" y="-172.5" font-family="FreeSans" font-size="10.00" fill="#000000">genfit::KalmanFitterRefTrack</text>
<text text-anchor="middle" x="233" y="-160.5" font-family="FreeSans" font-size="10.00" fill="#000000">::prepareTrack</text>
</a>
</g>
</g>
<!-- Node1&#45;&gt;Node2 -->
<g id="edge1" class="edge">
<title>Node1&#45;&gt;Node2</title>
<path fill="none" stroke="#191970" d="M93.0162,-113.6735C110.5596,-123.8672 132.4632,-135.7453 153,-144.5 160.496,-147.6955 168.5406,-150.6893 176.5352,-153.4166"/>
<polygon fill="#191970" stroke="#191970" points="94.6627,-110.5813 84.2699,-108.5219 91.11,-116.6128 94.6627,-110.5813"/>
</g>
<!-- Node4 -->
<g id="node4" class="node">
<title>Node4</title>
<g id="a_node4"><a xlink:href="../../d4/db7/classgenfit_1_1KalmanFitter.html#a003f370d672562e1e5c2b345d61f211c" target="_top" xlink:title="genfit::KalmanFitter\l::processTrackPartially">
<polygon fill="none" stroke="#000000" points="168.5,-102.5 168.5,-134.5 297.5,-134.5 297.5,-102.5 168.5,-102.5"/>
<text text-anchor="start" x="176.5" y="-121.5" font-family="FreeSans" font-size="10.00" fill="#000000">genfit::KalmanFitter</text>
<text text-anchor="middle" x="233" y="-109.5" font-family="FreeSans" font-size="10.00" fill="#000000">::processTrackPartially</text>
</a>
</g>
</g>
<!-- Node1&#45;&gt;Node4 -->
<g id="edge3" class="edge">
<title>Node1&#45;&gt;Node4</title>
<path fill="none" stroke="#191970" d="M127.2732,-102.747C140.7754,-104.7588 154.8964,-106.8628 168.2609,-108.8541"/>
<polygon fill="#191970" stroke="#191970" points="127.4981,-99.242 117.0914,-101.23 126.4664,-106.1655 127.4981,-99.242"/>
</g>
<!-- Node5 -->
<g id="node5" class="node">
<title>Node5</title>
<g id="a_node5"><a xlink:href="../../d4/db7/classgenfit_1_1KalmanFitter.html#aa44364f202ab52ca2f8fa2000e29a534" target="_top" xlink:title="Hit resorting currently NOT supported.">
<polygon fill="none" stroke="#000000" points="168,-51.5 168,-83.5 298,-83.5 298,-51.5 168,-51.5"/>
<text text-anchor="start" x="176" y="-70.5" font-family="FreeSans" font-size="10.00" fill="#000000">genfit::KalmanFitter</text>
<text text-anchor="middle" x="233" y="-58.5" font-family="FreeSans" font-size="10.00" fill="#000000">::processTrackWithRep</text>
</a>
</g>
</g>
<!-- Node1&#45;&gt;Node5 -->
<g id="edge4" class="edge">
<title>Node1&#45;&gt;Node5</title>
<path fill="none" stroke="#191970" d="M127.211,-82.656C140.63,-80.7335 154.6624,-78.7232 167.9577,-76.8184"/>
<polygon fill="#191970" stroke="#191970" points="126.4939,-79.2229 117.0914,-84.1058 127.4867,-86.1522 126.4939,-79.2229"/>
</g>
<!-- Node7 -->
<g id="node7" class="node">
<title>Node7</title>
<g id="a_node7"><a xlink:href="../../de/dd5/classgenfit_1_1StateOnPlane.html#afa85c55c73b6abd16d89faafc2845145" target="_top" xlink:title="genfit::StateOnPlane\l::setQop">
<polygon fill="none" stroke="#000000" points="172.5,-.5 172.5,-32.5 293.5,-32.5 293.5,-.5 172.5,-.5"/>
<text text-anchor="start" x="180.5" y="-19.5" font-family="FreeSans" font-size="10.00" fill="#000000">genfit::StateOnPlane</text>
<text text-anchor="middle" x="233" y="-7.5" font-family="FreeSans" font-size="10.00" fill="#000000">::setQop</text>
</a>
</g>
</g>
<!-- Node1&#45;&gt;Node7 -->
<g id="edge6" class="edge">
<title>Node1&#45;&gt;Node7</title>
<path fill="none" stroke="#191970" d="M95.1469,-71.2152C112.3687,-61.7084 133.3861,-50.8029 153,-42.5 161.3382,-38.9703 170.3299,-35.6253 179.1696,-32.5825"/>
<polygon fill="#191970" stroke="#191970" points="93.0233,-68.3925 86.0027,-76.3273 96.4392,-74.5025 93.0233,-68.3925"/>
</g>
<!-- Node3 -->
<g id="node3" class="node">
<title>Node3</title>
<g id="a_node3"><a xlink:href="../../d8/d26/classgenfit_1_1KalmanFitterRefTrack.html#ad3a24181b5370cc95f01f49ea148c011" target="_top" xlink:title="genfit::KalmanFitterRefTrack\l::processTrackWithRep">
<polygon fill="none" stroke="#000000" points="349,-153.5 349,-185.5 509,-185.5 509,-153.5 349,-153.5"/>
<text text-anchor="start" x="357" y="-172.5" font-family="FreeSans" font-size="10.00" fill="#000000">genfit::KalmanFitterRefTrack</text>
<text text-anchor="middle" x="429" y="-160.5" font-family="FreeSans" font-size="10.00" fill="#000000">::processTrackWithRep</text>
</a>
</g>
</g>
<!-- Node2&#45;&gt;Node3 -->
<g id="edge2" class="edge">
<title>Node2&#45;&gt;Node3</title>
<path fill="none" stroke="#191970" d="M323.0766,-169.5C331.7035,-169.5 340.4128,-169.5 348.9347,-169.5"/>
<polygon fill="#191970" stroke="#191970" points="323.0034,-166.0001 313.0034,-169.5 323.0034,-173.0001 323.0034,-166.0001"/>
</g>
<!-- Node6 -->
<g id="node6" class="node">
<title>Node6</title>
<g id="a_node6"><a xlink:href="../../d0/d48/GenFit_2blob_2master_2test_2fitterTests_2main_8cc.html#ae66f6b31b5ad750f1fe042a706a4e3d4" target="_top" xlink:title="main">
<polygon fill="none" stroke="#000000" points="408.5,-57.5 408.5,-77.5 449.5,-77.5 449.5,-57.5 408.5,-57.5"/>
<text text-anchor="middle" x="429" y="-64.5" font-family="FreeSans" font-size="10.00" fill="#000000">main</text>
</a>
</g>
</g>
<!-- Node5&#45;&gt;Node6 -->
<g id="edge5" class="edge">
<title>Node5&#45;&gt;Node6</title>
<path fill="none" stroke="#191970" d="M308.2911,-67.5C344.3063,-67.5 384.6518,-67.5 408.3835,-67.5"/>
<polygon fill="#191970" stroke="#191970" points="308.2652,-64.0001 298.2652,-67.5 308.2651,-71.0001 308.2652,-64.0001"/>
</g>
</g>
</svg>
