<?xml version="1.0" encoding="UTF-8" standalone="no"?>
<!DOCTYPE svg PUBLIC "-//W3C//DTD SVG 1.1//EN"
 "http://www.w3.org/Graphics/SVG/1.1/DTD/svg11.dtd">
<!-- Generated by graphviz version 2.40.1 (20161225.0304)
 -->
<!-- Title: genfit::AbsTrackRep::get6DCov Pages: 1 -->
<svg width="939pt" height="488pt"
 viewBox="0.00 0.00 939.00 488.00" xmlns="http://www.w3.org/2000/svg" xmlns:xlink="http://www.w3.org/1999/xlink">
<g id="graph0" class="graph" transform="scale(1 1) rotate(0) translate(4 484)">
<title>genfit::AbsTrackRep::get6DCov</title>
<!-- Node1 -->
<g id="node1" class="node">
<title>Node1</title>
<polygon fill="#bfbfbf" stroke="#000000" points="0,-153.5 0,-185.5 117,-185.5 117,-153.5 0,-153.5"/>
<text text-anchor="start" x="8" y="-172.5" font-family="FreeSans" font-size="10.00" fill="#000000">genfit::AbsTrackRep</text>
<text text-anchor="middle" x="58.5" y="-160.5" font-family="FreeSans" font-size="10.00" fill="#000000">::get6DCov</text>
</g>
<!-- Node2 -->
<g id="node2" class="node">
<title>Node2</title>
<g id="a_node2"><a xlink:href="../../d2/d74/classgenfit_1_1MeasuredStateOnPlane.html#a55e9082a5f1a51acf5123e6c87c1f513" target="_top" xlink:title="genfit::MeasuredStateOnPlane\l::get6DCov">
<polygon fill="none" stroke="#000000" points="153,-331.5 153,-363.5 323,-363.5 323,-331.5 153,-331.5"/>
<text text-anchor="start" x="161" y="-350.5" font-family="FreeSans" font-size="10.00" fill="#000000">genfit::MeasuredStateOnPlane</text>
<text text-anchor="middle" x="238" y="-338.5" font-family="FreeSans" font-size="10.00" fill="#000000">::get6DCov</text>
</a>
</g>
</g>
<!-- Node1&#45;&gt;Node2 -->
<g id="edge1" class="edge">
<title>Node1&#45;&gt;Node2</title>
<path fill="none" stroke="#191970" d="M82.1006,-192.9034C119.085,-229.5788 189.7614,-299.6645 221.6614,-331.2979"/>
<polygon fill="#191970" stroke="#191970" points="84.3112,-190.1664 74.746,-185.6103 79.3822,-195.1369 84.3112,-190.1664"/>
</g>
<!-- Node12 -->
<g id="node12" class="node">
<title>Node12</title>
<g id="a_node12"><a xlink:href="../../d6/da3/classTrackProjectorPid.html#ad70d7eaa5e67746fca02a01d2609a803" target="_top" xlink:title="TrackProjectorPid::\lproject_track">
<polygon fill="none" stroke="#000000" points="183.5,-153.5 183.5,-185.5 292.5,-185.5 292.5,-153.5 183.5,-153.5"/>
<text text-anchor="start" x="191.5" y="-172.5" font-family="FreeSans" font-size="10.00" fill="#000000">TrackProjectorPid::</text>
<text text-anchor="middle" x="238" y="-160.5" font-family="FreeSans" font-size="10.00" fill="#000000">project_track</text>
</a>
</g>
</g>
<!-- Node1&#45;&gt;Node12 -->
<g id="edge12" class="edge">
<title>Node1&#45;&gt;Node12</title>
<path fill="none" stroke="#191970" d="M127.4161,-169.5C145.941,-169.5 165.7193,-169.5 183.3519,-169.5"/>
<polygon fill="#191970" stroke="#191970" points="127.275,-166.0001 117.275,-169.5 127.275,-173.0001 127.275,-166.0001"/>
</g>
<!-- Node18 -->
<g id="node18" class="node">
<title>Node18</title>
<g id="a_node18"><a xlink:href="../../d6/da6/classTrackProjectorPlaneECAL.html#ab054ef5689be6c5af015a641a7364c7a" target="_top" xlink:title="TrackProjectorPlaneECAL\l::project_track">
<polygon fill="none" stroke="#000000" points="167,-51.5 167,-83.5 309,-83.5 309,-51.5 167,-51.5"/>
<text text-anchor="start" x="175" y="-70.5" font-family="FreeSans" font-size="10.00" fill="#000000">TrackProjectorPlaneECAL</text>
<text text-anchor="middle" x="238" y="-58.5" font-family="FreeSans" font-size="10.00" fill="#000000">::project_track</text>
</a>
</g>
</g>
<!-- Node1&#45;&gt;Node18 -->
<g id="edge20" class="edge">
<title>Node1&#45;&gt;Node18</title>
<path fill="none" stroke="#191970" d="M96.0665,-148.153C129.9442,-128.9022 179.0214,-101.0143 209.6908,-83.5866"/>
<polygon fill="#191970" stroke="#191970" points="93.9075,-145.3542 86.9423,-153.3378 97.3658,-151.4403 93.9075,-145.3542"/>
</g>
<!-- Node3 -->
<g id="node3" class="node">
<title>Node3</title>
<g id="a_node3"><a xlink:href="../../d9/d91/classPHG4TrackFastSim.html#a27f5d3e1fcab6a5cc74fda92cd51359f" target="_top" xlink:title="PHG4TrackFastSim::MakeSvtx\lTrack">
<polygon fill="none" stroke="#000000" points="363.5,-447.5 363.5,-479.5 529.5,-479.5 529.5,-447.5 363.5,-447.5"/>
<text text-anchor="start" x="371.5" y="-466.5" font-family="FreeSans" font-size="10.00" fill="#000000">PHG4TrackFastSim::MakeSvtx</text>
<text text-anchor="middle" x="446.5" y="-454.5" font-family="FreeSans" font-size="10.00" fill="#000000">Track</text>
</a>
</g>
</g>
<!-- Node2&#45;&gt;Node3 -->
<g id="edge2" class="edge">
<title>Node2&#45;&gt;Node3</title>
<path fill="none" stroke="#191970" d="M262.7182,-370.442C285.9752,-390.9171 322.5798,-420.3848 359,-438.5 365.7899,-441.8773 373.1098,-444.867 380.5221,-447.4957"/>
<polygon fill="#191970" stroke="#191970" points="264.8595,-367.6617 255.0707,-363.6081 260.1952,-372.8813 264.8595,-367.6617"/>
</g>
<!-- Node4 -->
<g id="node4" class="node">
<title>Node4</title>
<g id="a_node4"><a xlink:href="../../d6/d8a/classgenfit_1_1Track.html#aa39935d7b66768b5fef4bbeec02438cc" target="_top" xlink:title="genfit::Track::udpateSeed">
<polygon fill="none" stroke="#000000" points="373.5,-408.5 373.5,-428.5 519.5,-428.5 519.5,-408.5 373.5,-408.5"/>
<text text-anchor="middle" x="446.5" y="-415.5" font-family="FreeSans" font-size="10.00" fill="#000000">genfit::Track::udpateSeed</text>
</a>
</g>
</g>
<!-- Node2&#45;&gt;Node4 -->
<g id="edge3" class="edge">
<title>Node2&#45;&gt;Node4</title>
<path fill="none" stroke="#191970" d="M279.8393,-367.8419C302.8003,-378.3994 332.0142,-390.86 359,-399.5 369.6594,-402.9128 381.2442,-405.9088 392.3908,-408.4526"/>
<polygon fill="#191970" stroke="#191970" points="281.2701,-364.6473 270.727,-363.6014 278.3167,-370.9938 281.2701,-364.6473"/>
</g>
<!-- Node6 -->
<g id="node6" class="node">
<title>Node6</title>
<g id="a_node6"><a xlink:href="../../d0/d22/classPHGenFitTrkProp.html#a425f22248030483cb56cdb867c3077c8" target="_top" xlink:title="ExportOutput Call. Make SvtxTrack from PHGenFit::Track and set of clusters.">
<polygon fill="none" stroke="#000000" points="359,-357.5 359,-389.5 534,-389.5 534,-357.5 359,-357.5"/>
<text text-anchor="start" x="367" y="-376.5" font-family="FreeSans" font-size="10.00" fill="#000000">PHGenFitTrkProp::OutputPHGen</text>
<text text-anchor="middle" x="446.5" y="-364.5" font-family="FreeSans" font-size="10.00" fill="#000000">FitTrack</text>
</a>
</g>
</g>
<!-- Node2&#45;&gt;Node6 -->
<g id="edge5" class="edge">
<title>Node2&#45;&gt;Node6</title>
<path fill="none" stroke="#191970" d="M333.1481,-359.365C341.7474,-360.4373 350.43,-361.52 358.9593,-362.5837"/>
<polygon fill="#191970" stroke="#191970" points="333.4619,-355.8771 323.1057,-358.1127 332.5957,-362.8233 333.4619,-355.8771"/>
</g>
<!-- Node9 -->
<g id="node9" class="node">
<title>Node9</title>
<g id="a_node9"><a xlink:href="../../d0/d22/classPHGenFitTrkProp.html#a8de33eaa04103e00006e98f15ba808a0" target="_top" xlink:title="PHGenFitTrkProp::TrackProp\lPatRec">
<polygon fill="none" stroke="#000000" points="369,-306.5 369,-338.5 524,-338.5 524,-306.5 369,-306.5"/>
<text text-anchor="start" x="377" y="-325.5" font-family="FreeSans" font-size="10.00" fill="#000000">PHGenFitTrkProp::TrackProp</text>
<text text-anchor="middle" x="446.5" y="-313.5" font-family="FreeSans" font-size="10.00" fill="#000000">PatRec</text>
</a>
</g>
</g>
<!-- Node2&#45;&gt;Node9 -->
<g id="edge8" class="edge">
<title>Node2&#45;&gt;Node9</title>
<path fill="none" stroke="#191970" d="M333.0733,-336.1003C345.0013,-334.6701 357.0908,-333.2205 368.7106,-331.8273"/>
<polygon fill="#191970" stroke="#191970" points="332.6178,-332.6298 323.1057,-337.2955 333.4512,-339.58 332.6178,-332.6298"/>
</g>
<!-- Node10 -->
<g id="node10" class="node">
<title>Node10</title>
<g id="a_node10"><a xlink:href="../../d5/daa/classPHRaveVertexing.html#af3ca2c60b8b69efdf6fdaf781f19948c" target="_top" xlink:title="PHRaveVertexing::Translate\lSvtxToGenFitTrack">
<polygon fill="none" stroke="#000000" points="368.5,-255.5 368.5,-287.5 524.5,-287.5 524.5,-255.5 368.5,-255.5"/>
<text text-anchor="start" x="376.5" y="-274.5" font-family="FreeSans" font-size="10.00" fill="#000000">PHRaveVertexing::Translate</text>
<text text-anchor="middle" x="446.5" y="-262.5" font-family="FreeSans" font-size="10.00" fill="#000000">SvtxToGenFitTrack</text>
</a>
</g>
</g>
<!-- Node2&#45;&gt;Node10 -->
<g id="edge10" class="edge">
<title>Node2&#45;&gt;Node10</title>
<path fill="none" stroke="#191970" d="M283.4634,-327.4119C305.9754,-317.7998 333.6905,-306.4627 359,-297.5 368.71,-294.0615 379.1301,-290.6929 389.2737,-287.5804"/>
<polygon fill="#191970" stroke="#191970" points="281.9603,-324.2482 274.1561,-331.4138 284.7254,-330.679 281.9603,-324.2482"/>
</g>
<!-- Node5 -->
<g id="node5" class="node">
<title>Node5</title>
<g id="a_node5"><a xlink:href="../../d6/d8a/classgenfit_1_1Track.html#af7557944de667f7bb312c3f960d09096" target="_top" xlink:title="Make track ready to be fitted in reverse direction.">
<polygon fill="none" stroke="#000000" points="585.5,-408.5 585.5,-428.5 735.5,-428.5 735.5,-408.5 585.5,-408.5"/>
<text text-anchor="middle" x="660.5" y="-415.5" font-family="FreeSans" font-size="10.00" fill="#000000">genfit::Track::reverseTrack</text>
</a>
</g>
</g>
<!-- Node4&#45;&gt;Node5 -->
<g id="edge4" class="edge">
<title>Node4&#45;&gt;Node5</title>
<path fill="none" stroke="#191970" d="M529.6112,-418.5C547.9334,-418.5 567.2404,-418.5 585.2315,-418.5"/>
<polygon fill="#191970" stroke="#191970" points="529.5482,-415.0001 519.5481,-418.5 529.5481,-422.0001 529.5482,-415.0001"/>
</g>
<!-- Node7 -->
<g id="node7" class="node">
<title>Node7</title>
<g id="a_node7"><a xlink:href="../../d0/d22/classPHGenFitTrkProp.html#ab11c2e61a1b78278fa4af7cf624c2538" target="_top" xlink:title="Main function.">
<polygon fill="none" stroke="#000000" points="570,-338.5 570,-358.5 751,-358.5 751,-338.5 570,-338.5"/>
<text text-anchor="middle" x="660.5" y="-345.5" font-family="FreeSans" font-size="10.00" fill="#000000">PHGenFitTrkProp::KalmanTrkProp</text>
</a>
</g>
</g>
<!-- Node6&#45;&gt;Node7 -->
<g id="edge6" class="edge">
<title>Node6&#45;&gt;Node7</title>
<path fill="none" stroke="#191970" d="M544.2663,-362.0787C554.4242,-360.892 564.6939,-359.6923 574.7055,-358.5227"/>
<polygon fill="#191970" stroke="#191970" points="543.6858,-358.6226 534.1595,-363.2594 544.4981,-365.5753 543.6858,-358.6226"/>
</g>
<!-- Node8 -->
<g id="node8" class="node">
<title>Node8</title>
<g id="a_node8"><a xlink:href="../../d0/d22/classPHGenFitTrkProp.html#a31e50e42d62a2bf32763652b39dc95b8" target="_top" xlink:title="PHGenFitTrkProp::Process">
<polygon fill="none" stroke="#000000" points="787,-338.5 787,-358.5 931,-358.5 931,-338.5 787,-338.5"/>
<text text-anchor="middle" x="859" y="-345.5" font-family="FreeSans" font-size="10.00" fill="#000000">PHGenFitTrkProp::Process</text>
</a>
</g>
</g>
<!-- Node7&#45;&gt;Node8 -->
<g id="edge7" class="edge">
<title>Node7&#45;&gt;Node8</title>
<path fill="none" stroke="#191970" d="M761.1556,-348.5C769.7831,-348.5 778.3965,-348.5 786.7348,-348.5"/>
<polygon fill="#191970" stroke="#191970" points="761.0369,-345.0001 751.0368,-348.5 761.0368,-352.0001 761.0369,-345.0001"/>
</g>
<!-- Node9&#45;&gt;Node7 -->
<g id="edge9" class="edge">
<title>Node9&#45;&gt;Node7</title>
<path fill="none" stroke="#191970" d="M534.0596,-333.1381C548.6363,-334.9091 563.7111,-336.7406 578.1524,-338.4951"/>
<polygon fill="#191970" stroke="#191970" points="534.4106,-329.6551 524.0615,-331.9234 533.5663,-336.604 534.4106,-329.6551"/>
</g>
<!-- Node11 -->
<g id="node11" class="node">
<title>Node11</title>
<g id="a_node11"><a xlink:href="../../d5/daa/classPHRaveVertexing.html#afefcb6ce27ac34016e62172d8519fae8" target="_top" xlink:title="Process Event, called for each event.">
<polygon fill="none" stroke="#000000" points="586,-255.5 586,-287.5 735,-287.5 735,-255.5 586,-255.5"/>
<text text-anchor="start" x="594" y="-274.5" font-family="FreeSans" font-size="10.00" fill="#000000">PHRaveVertexing::process</text>
<text text-anchor="middle" x="660.5" y="-262.5" font-family="FreeSans" font-size="10.00" fill="#000000">_event</text>
</a>
</g>
</g>
<!-- Node10&#45;&gt;Node11 -->
<g id="edge11" class="edge">
<title>Node10&#45;&gt;Node11</title>
<path fill="none" stroke="#191970" d="M535.061,-271.5C551.9094,-271.5 569.3868,-271.5 585.7535,-271.5"/>
<polygon fill="#191970" stroke="#191970" points="534.6673,-268.0001 524.6673,-271.5 534.6673,-275.0001 534.6673,-268.0001"/>
</g>
<!-- Node13 -->
<g id="node13" class="node">
<title>Node13</title>
<g id="a_node13"><a xlink:href="../../d6/da3/classTrackProjectorPid.html#af395e05f89a086fa464a0b14c9c3033c" target="_top" xlink:title="TrackProjectorPid::\lget_projected_momentum">
<polygon fill="none" stroke="#000000" points="372,-204.5 372,-236.5 521,-236.5 521,-204.5 372,-204.5"/>
<text text-anchor="start" x="380" y="-223.5" font-family="FreeSans" font-size="10.00" fill="#000000">TrackProjectorPid::</text>
<text text-anchor="middle" x="446.5" y="-211.5" font-family="FreeSans" font-size="10.00" fill="#000000">get_projected_momentum</text>
</a>
</g>
</g>
<!-- Node12&#45;&gt;Node13 -->
<g id="edge13" class="edge">
<title>Node12&#45;&gt;Node13</title>
<path fill="none" stroke="#191970" d="M302.2339,-185.2119C327.1748,-191.3125 355.7183,-198.2944 380.7976,-204.4289"/>
<polygon fill="#191970" stroke="#191970" points="303.0538,-181.8093 292.5086,-182.833 301.3906,-188.6089 303.0538,-181.8093"/>
</g>
<!-- Node16 -->
<g id="node16" class="node">
<title>Node16</title>
<g id="a_node16"><a xlink:href="../../d6/da3/classTrackProjectorPid.html#adbe36afa614bc6046982e3e6aa6c73bc" target="_top" xlink:title="TrackProjectorPid::\lget_projected_position">
<polygon fill="none" stroke="#000000" points="381.5,-153.5 381.5,-185.5 511.5,-185.5 511.5,-153.5 381.5,-153.5"/>
<text text-anchor="start" x="389.5" y="-172.5" font-family="FreeSans" font-size="10.00" fill="#000000">TrackProjectorPid::</text>
<text text-anchor="middle" x="446.5" y="-160.5" font-family="FreeSans" font-size="10.00" fill="#000000">get_projected_position</text>
</a>
</g>
</g>
<!-- Node12&#45;&gt;Node16 -->
<g id="edge16" class="edge">
<title>Node12&#45;&gt;Node16</title>
<path fill="none" stroke="#191970" d="M302.611,-169.5C327.5886,-169.5 356.1332,-169.5 381.1778,-169.5"/>
<polygon fill="#191970" stroke="#191970" points="302.5086,-166.0001 292.5086,-169.5 302.5085,-173.0001 302.5086,-166.0001"/>
</g>
<!-- Node17 -->
<g id="node17" class="node">
<title>Node17</title>
<g id="a_node17"><a xlink:href="../../dd/d15/classFastPid__RICH.html#af5521ea2bcdd713bda3c110adcad8528" target="_top" xlink:title="FastPid_RICH::process\l_event">
<polygon fill="none" stroke="#000000" points="383,-102.5 383,-134.5 510,-134.5 510,-102.5 383,-102.5"/>
<text text-anchor="start" x="391" y="-121.5" font-family="FreeSans" font-size="10.00" fill="#000000">FastPid_RICH::process</text>
<text text-anchor="middle" x="446.5" y="-109.5" font-family="FreeSans" font-size="10.00" fill="#000000">_event</text>
</a>
</g>
</g>
<!-- Node12&#45;&gt;Node17 -->
<g id="edge19" class="edge">
<title>Node12&#45;&gt;Node17</title>
<path fill="none" stroke="#191970" d="M302.4557,-153.7339C327.9751,-147.4917 357.2378,-140.3339 382.6932,-134.1074"/>
<polygon fill="#191970" stroke="#191970" points="301.3906,-150.3911 292.5086,-156.167 303.0538,-157.1907 301.3906,-150.3911"/>
</g>
<!-- Node14 -->
<g id="node14" class="node">
<title>Node14</title>
<g id="a_node14"><a xlink:href="../../d8/dea/classRICHEvaluator.html#a6f910e41350cb9b89acc8029e5769762" target="_top" xlink:title="RICHEvaluator::process\l_event">
<polygon fill="none" stroke="#000000" points="593.5,-153.5 593.5,-185.5 727.5,-185.5 727.5,-153.5 593.5,-153.5"/>
<text text-anchor="start" x="601.5" y="-172.5" font-family="FreeSans" font-size="10.00" fill="#000000">RICHEvaluator::process</text>
<text text-anchor="middle" x="660.5" y="-160.5" font-family="FreeSans" font-size="10.00" fill="#000000">_event</text>
</a>
</g>
</g>
<!-- Node13&#45;&gt;Node14 -->
<g id="edge14" class="edge">
<title>Node13&#45;&gt;Node14</title>
<path fill="none" stroke="#191970" d="M523.8819,-202.0585C546.6485,-196.6328 571.3569,-190.7444 593.4215,-185.486"/>
<polygon fill="#191970" stroke="#191970" points="522.8334,-198.7103 513.9172,-204.4333 524.4562,-205.5196 522.8334,-198.7103"/>
</g>
<!-- Node15 -->
<g id="node15" class="node">
<title>Node15</title>
<g id="a_node15"><a xlink:href="../../dc/d11/classRICHParticleID.html#a6a405f148fafb5d7a36c60626507e5f7" target="_top" xlink:title="RICHParticleID::process\l_event">
<polygon fill="none" stroke="#000000" points="593.5,-204.5 593.5,-236.5 727.5,-236.5 727.5,-204.5 593.5,-204.5"/>
<text text-anchor="start" x="601.5" y="-223.5" font-family="FreeSans" font-size="10.00" fill="#000000">RICHParticleID::process</text>
<text text-anchor="middle" x="660.5" y="-211.5" font-family="FreeSans" font-size="10.00" fill="#000000">_event</text>
</a>
</g>
</g>
<!-- Node13&#45;&gt;Node15 -->
<g id="edge15" class="edge">
<title>Node13&#45;&gt;Node15</title>
<path fill="none" stroke="#191970" d="M531.0924,-220.5C551.7773,-220.5 573.6319,-220.5 593.3734,-220.5"/>
<polygon fill="#191970" stroke="#191970" points="531.0464,-217.0001 521.0464,-220.5 531.0464,-224.0001 531.0464,-217.0001"/>
</g>
<!-- Node16&#45;&gt;Node14 -->
<g id="edge17" class="edge">
<title>Node16&#45;&gt;Node14</title>
<path fill="none" stroke="#191970" d="M521.7419,-169.5C544.9967,-169.5 570.4522,-169.5 593.139,-169.5"/>
<polygon fill="#191970" stroke="#191970" points="521.5787,-166.0001 511.5787,-169.5 521.5786,-173.0001 521.5787,-166.0001"/>
</g>
<!-- Node16&#45;&gt;Node15 -->
<g id="edge18" class="edge">
<title>Node16&#45;&gt;Node15</title>
<path fill="none" stroke="#191970" d="M521.4292,-187.3569C544.7683,-192.9191 570.3505,-199.0158 593.139,-204.4467"/>
<polygon fill="#191970" stroke="#191970" points="522.1177,-183.9231 511.5787,-185.0094 520.4948,-190.7324 522.1177,-183.9231"/>
</g>
<!-- Node19 -->
<g id="node19" class="node">
<title>Node19</title>
<g id="a_node19"><a xlink:href="../../d6/da6/classTrackProjectorPlaneECAL.html#a4bd8c49642974b12bdd6fdde0afcbb5f" target="_top" xlink:title="TrackProjectorPlaneECAL\l::get_projected_momentum">
<polygon fill="none" stroke="#000000" points="368.5,-51.5 368.5,-83.5 524.5,-83.5 524.5,-51.5 368.5,-51.5"/>
<text text-anchor="start" x="376.5" y="-70.5" font-family="FreeSans" font-size="10.00" fill="#000000">TrackProjectorPlaneECAL</text>
<text text-anchor="middle" x="446.5" y="-58.5" font-family="FreeSans" font-size="10.00" fill="#000000">::get_projected_momentum</text>
</a>
</g>
</g>
<!-- Node18&#45;&gt;Node19 -->
<g id="edge21" class="edge">
<title>Node18&#45;&gt;Node19</title>
<path fill="none" stroke="#191970" d="M319.5507,-67.5C335.5359,-67.5 352.2695,-67.5 368.1473,-67.5"/>
<polygon fill="#191970" stroke="#191970" points="319.1708,-64.0001 309.1707,-67.5 319.1707,-71.0001 319.1708,-64.0001"/>
</g>
<!-- Node20 -->
<g id="node20" class="node">
<title>Node20</title>
<g id="a_node20"><a xlink:href="../../d6/da6/classTrackProjectorPlaneECAL.html#ae142a1e2e265735f1c6e28733cf4b8a2" target="_top" xlink:title="TrackProjectorPlaneECAL\l::get_projected_position">
<polygon fill="none" stroke="#000000" points="375.5,-.5 375.5,-32.5 517.5,-32.5 517.5,-.5 375.5,-.5"/>
<text text-anchor="start" x="383.5" y="-19.5" font-family="FreeSans" font-size="10.00" fill="#000000">TrackProjectorPlaneECAL</text>
<text text-anchor="middle" x="446.5" y="-7.5" font-family="FreeSans" font-size="10.00" fill="#000000">::get_projected_position</text>
</a>
</g>
</g>
<!-- Node18&#45;&gt;Node20 -->
<g id="edge22" class="edge">
<title>Node18&#45;&gt;Node20</title>
<path fill="none" stroke="#191970" d="M313.6426,-48.9975C335.6319,-43.6188 359.4617,-37.7899 380.7875,-32.5736"/>
<polygon fill="#191970" stroke="#191970" points="312.5665,-45.6574 303.6845,-51.4333 314.2298,-52.457 312.5665,-45.6574"/>
</g>
</g>
</svg>
