<?xml version="1.0" encoding="UTF-8" standalone="no"?>
<!DOCTYPE svg PUBLIC "-//W3C//DTD SVG 1.1//EN"
 "http://www.w3.org/Graphics/SVG/1.1/DTD/svg11.dtd">
<!-- Generated by graphviz version 2.40.1 (20161225.0304)
 -->
<!-- Title: KFParticle/blob/master/KFParticle/KFParticleFinder.cxx Pages: 1 -->
<svg width="768pt" height="383pt"
 viewBox="0.00 0.00 767.93 383.00" xmlns="http://www.w3.org/2000/svg" xmlns:xlink="http://www.w3.org/1999/xlink">
<g id="graph0" class="graph" transform="scale(1 1) rotate(0) translate(4 379)">
<title>KFParticle/blob/master/KFParticle/KFParticleFinder.cxx</title>
<!-- Node1 -->
<g id="node1" class="node">
<title>Node1</title>
<polygon fill="#bfbfbf" stroke="#000000" points="64.5,-342.5 64.5,-374.5 238.5,-374.5 238.5,-342.5 64.5,-342.5"/>
<text text-anchor="start" x="72.5" y="-361.5" font-family="FreeSans" font-size="10.00" fill="#000000">KFParticle/blob/master</text>
<text text-anchor="middle" x="151.5" y="-349.5" font-family="FreeSans" font-size="10.00" fill="#000000">/KFParticle/KFParticleFinder.cxx</text>
</g>
<!-- Node2 -->
<g id="node2" class="node">
<title>Node2</title>
<g id="a_node2"><a xlink:href="../../d0/dd6/KFParticleFinder_8h.html" target="_top" xlink:title="KFParticleFinder.h">
<polygon fill="none" stroke="#000000" points="367,-285.5 367,-305.5 472,-305.5 472,-285.5 367,-285.5"/>
<text text-anchor="middle" x="419.5" y="-292.5" font-family="FreeSans" font-size="10.00" fill="#000000">KFParticleFinder.h</text>
</a>
</g>
</g>
<!-- Node1&#45;&gt;Node2 -->
<g id="edge1" class="edge">
<title>Node1&#45;&gt;Node2</title>
<path fill="none" stroke="#191970" d="M219.8211,-342.4394C265.6205,-331.6732 325.0192,-317.71 367.0913,-307.82"/>
<polygon fill="#191970" stroke="#191970" points="367.9262,-311.2192 376.8599,-305.5236 366.3243,-304.4049 367.9262,-311.2192"/>
</g>
<!-- Node18 -->
<g id="node18" class="node">
<title>Node18</title>
<g id="a_node18"><a xlink:href="../../dd/d47/KFPEmcCluster_8h.html" target="_top" xlink:title="KFPEmcCluster.h">
<polygon fill="none" stroke="#000000" points="94.5,-171.5 94.5,-191.5 194.5,-191.5 194.5,-171.5 94.5,-171.5"/>
<text text-anchor="middle" x="144.5" y="-178.5" font-family="FreeSans" font-size="10.00" fill="#000000">KFPEmcCluster.h</text>
</a>
</g>
</g>
<!-- Node1&#45;&gt;Node18 -->
<g id="edge32" class="edge">
<title>Node1&#45;&gt;Node18</title>
<path fill="none" stroke="#191970" d="M150.8665,-342.4803C149.591,-310.2295 146.7155,-237.5216 145.3076,-201.9199"/>
<polygon fill="#191970" stroke="#191970" points="148.7984,-201.6169 144.9059,-191.7631 141.8039,-201.8936 148.7984,-201.6169"/>
</g>
<!-- Node21 -->
<g id="node21" class="node">
<title>Node21</title>
<g id="a_node21"><a xlink:href="../../dc/d51/KFParticleDatabase_8h.html" target="_top" xlink:title="KFParticleDatabase.h">
<polygon fill="none" stroke="#000000" points="0,-285.5 0,-305.5 123,-305.5 123,-285.5 0,-285.5"/>
<text text-anchor="middle" x="61.5" y="-292.5" font-family="FreeSans" font-size="10.00" fill="#000000">KFParticleDatabase.h</text>
</a>
</g>
</g>
<!-- Node1&#45;&gt;Node21 -->
<g id="edge30" class="edge">
<title>Node1&#45;&gt;Node21</title>
<path fill="none" stroke="#191970" d="M128.3228,-342.2759C114.7365,-332.7655 97.6485,-320.8039 84.1536,-311.3576"/>
<polygon fill="#191970" stroke="#191970" points="86.0769,-308.4315 75.8774,-305.5642 82.0626,-314.1662 86.0769,-308.4315"/>
</g>
<!-- Node3 -->
<g id="node3" class="node">
<title>Node3</title>
<g id="a_node3"><a xlink:href="../../d6/db1/KFParticle_8h.html" target="_top" xlink:title="KFParticle.h">
<polygon fill="none" stroke="#000000" points="658,-228.5 658,-248.5 733,-248.5 733,-228.5 658,-228.5"/>
<text text-anchor="middle" x="695.5" y="-235.5" font-family="FreeSans" font-size="10.00" fill="#000000">KFParticle.h</text>
</a>
</g>
</g>
<!-- Node2&#45;&gt;Node3 -->
<g id="edge2" class="edge">
<title>Node2&#45;&gt;Node3</title>
<path fill="none" stroke="#191970" d="M468.2079,-285.4408C518.8809,-274.9757 597.703,-258.6972 647.9441,-248.3213"/>
<polygon fill="#191970" stroke="#191970" points="648.8171,-251.715 657.9025,-246.2647 647.4012,-244.8597 648.8171,-251.715"/>
</g>
<!-- Node6 -->
<g id="node6" class="node">
<title>Node6</title>
<polygon fill="none" stroke="#bfbfbf" points="593,-114.5 593,-134.5 642,-134.5 642,-114.5 593,-114.5"/>
<text text-anchor="middle" x="617.5" y="-121.5" font-family="FreeSans" font-size="10.00" fill="#000000">vector</text>
</g>
<!-- Node2&#45;&gt;Node6 -->
<g id="edge28" class="edge">
<title>Node2&#45;&gt;Node6</title>
<path fill="none" stroke="#191970" d="M451.7326,-285.3815C492.0495,-271.0675 560.4011,-241.0426 598.5,-192 609.0938,-178.3631 613.7811,-159.1154 615.8549,-144.6611"/>
<polygon fill="#191970" stroke="#191970" points="619.3336,-145.0458 616.9858,-134.7144 612.3784,-144.255 619.3336,-145.0458"/>
</g>
<!-- Node8 -->
<g id="node8" class="node">
<title>Node8</title>
<g id="a_node8"><a xlink:href="../../d7/dbf/KFParticleSIMD_8h.html" target="_top" xlink:title="KFParticleSIMD.h">
<polygon fill="none" stroke="#000000" points="266,-228.5 266,-248.5 367,-248.5 367,-228.5 266,-228.5"/>
<text text-anchor="middle" x="316.5" y="-235.5" font-family="FreeSans" font-size="10.00" fill="#000000">KFParticleSIMD.h</text>
</a>
</g>
</g>
<!-- Node2&#45;&gt;Node8 -->
<g id="edge7" class="edge">
<title>Node2&#45;&gt;Node8</title>
<path fill="none" stroke="#191970" d="M401.0857,-285.3095C385.1206,-276.4745 361.7991,-263.5684 343.6857,-253.5445"/>
<polygon fill="#191970" stroke="#191970" points="345.1992,-250.3819 334.7549,-248.6022 341.8098,-256.5066 345.1992,-250.3819"/>
</g>
<!-- Node17 -->
<g id="node17" class="node">
<title>Node17</title>
<g id="a_node17"><a xlink:href="../../d2/dc5/KFPTrackVector_8h.html" target="_top" xlink:title="KFPTrackVector.h">
<polygon fill="none" stroke="#000000" points="345,-171.5 345,-191.5 446,-191.5 446,-171.5 345,-171.5"/>
<text text-anchor="middle" x="395.5" y="-178.5" font-family="FreeSans" font-size="10.00" fill="#000000">KFPTrackVector.h</text>
</a>
</g>
</g>
<!-- Node2&#45;&gt;Node17 -->
<g id="edge27" class="edge">
<title>Node2&#45;&gt;Node17</title>
<path fill="none" stroke="#191970" d="M417.3702,-285.3833C413.4306,-266.6703 404.9372,-226.3266 399.7709,-201.7866"/>
<polygon fill="#191970" stroke="#191970" points="403.1447,-200.8224 397.6596,-191.7579 396.2948,-202.2645 403.1447,-200.8224"/>
</g>
<!-- Node20 -->
<g id="node20" class="node">
<title>Node20</title>
<polygon fill="none" stroke="#bfbfbf" points="424,-228.5 424,-248.5 463,-248.5 463,-228.5 424,-228.5"/>
<text text-anchor="middle" x="443.5" y="-235.5" font-family="FreeSans" font-size="10.00" fill="#000000">map</text>
</g>
<!-- Node2&#45;&gt;Node20 -->
<g id="edge29" class="edge">
<title>Node2&#45;&gt;Node20</title>
<path fill="none" stroke="#191970" d="M423.7907,-285.3095C426.9988,-277.6903 431.4817,-267.0435 435.3617,-257.8285"/>
<polygon fill="#191970" stroke="#191970" points="438.5915,-259.1768 439.2464,-248.6022 432.1401,-256.4604 438.5915,-259.1768"/>
</g>
<!-- Node4 -->
<g id="node4" class="node">
<title>Node4</title>
<g id="a_node4"><a xlink:href="../../d0/d4c/KFParticleBase_8h.html" target="_top" xlink:title="KFParticleBase.h">
<polygon fill="none" stroke="#000000" points="645.5,-171.5 645.5,-191.5 745.5,-191.5 745.5,-171.5 645.5,-171.5"/>
<text text-anchor="middle" x="695.5" y="-178.5" font-family="FreeSans" font-size="10.00" fill="#000000">KFParticleBase.h</text>
</a>
</g>
</g>
<!-- Node3&#45;&gt;Node4 -->
<g id="edge3" class="edge">
<title>Node3&#45;&gt;Node4</title>
<path fill="none" stroke="#191970" d="M695.5,-228.3095C695.5,-220.9335 695.5,-210.72 695.5,-201.715"/>
<polygon fill="#191970" stroke="#191970" points="699.0001,-201.6022 695.5,-191.6022 692.0001,-201.6023 699.0001,-201.6022"/>
</g>
<!-- Node7 -->
<g id="node7" class="node">
<title>Node7</title>
<polygon fill="none" stroke="#bfbfbf" points="674.5,-57.5 674.5,-77.5 722.5,-77.5 722.5,-57.5 674.5,-57.5"/>
<text text-anchor="middle" x="698.5" y="-64.5" font-family="FreeSans" font-size="10.00" fill="#000000">cmath</text>
</g>
<!-- Node3&#45;&gt;Node7 -->
<g id="edge6" class="edge">
<title>Node3&#45;&gt;Node7</title>
<path fill="none" stroke="#191970" d="M716.2485,-228.4603C729.8735,-220.6176 746.5876,-208.3104 754.5,-192 772.8088,-154.2585 739.0331,-109.1931 716.4411,-84.9713"/>
<polygon fill="#191970" stroke="#191970" points="718.7706,-82.3457 709.2997,-77.5968 713.742,-87.2153 718.7706,-82.3457"/>
</g>
<!-- Node5 -->
<g id="node5" class="node">
<title>Node5</title>
<polygon fill="none" stroke="#bfbfbf" points="515,-57.5 515,-77.5 580,-77.5 580,-57.5 515,-57.5"/>
<text text-anchor="middle" x="547.5" y="-64.5" font-family="FreeSans" font-size="10.00" fill="#000000">TObject.h</text>
</g>
<!-- Node4&#45;&gt;Node5 -->
<g id="edge4" class="edge">
<title>Node4&#45;&gt;Node5</title>
<path fill="none" stroke="#191970" d="M691.0085,-171.0229C684.3108,-156.4869 670.4351,-130.1697 651.5,-114 633.6631,-98.7681 610.0332,-87.6695 589.8055,-80.1436"/>
<polygon fill="#191970" stroke="#191970" points="590.7839,-76.777 580.1892,-76.7336 588.4444,-83.3745 590.7839,-76.777"/>
</g>
<!-- Node4&#45;&gt;Node6 -->
<g id="edge5" class="edge">
<title>Node4&#45;&gt;Node6</title>
<path fill="none" stroke="#191970" d="M681.5552,-171.3095C669.9088,-162.7987 653.0929,-150.5102 639.6128,-140.6594"/>
<polygon fill="#191970" stroke="#191970" points="641.4631,-137.6766 631.3241,-134.6022 637.333,-143.3283 641.4631,-137.6766"/>
</g>
<!-- Node9 -->
<g id="node9" class="node">
<title>Node9</title>
<g id="a_node9"><a xlink:href="../../d9/d03/KFParticleBaseSIMD_8h.html" target="_top" xlink:title="KFParticleBaseSIMD.h">
<polygon fill="none" stroke="#000000" points="464,-171.5 464,-191.5 589,-191.5 589,-171.5 464,-171.5"/>
<text text-anchor="middle" x="526.5" y="-178.5" font-family="FreeSans" font-size="10.00" fill="#000000">KFParticleBaseSIMD.h</text>
</a>
</g>
</g>
<!-- Node8&#45;&gt;Node9 -->
<g id="edge8" class="edge">
<title>Node8&#45;&gt;Node9</title>
<path fill="none" stroke="#191970" d="M353.5604,-228.4408C388.6892,-218.9058 441.5981,-204.5448 479.6388,-194.2195"/>
<polygon fill="#191970" stroke="#191970" points="480.7235,-197.5518 489.4575,-191.5544 478.8898,-190.7962 480.7235,-197.5518"/>
</g>
<!-- Node16 -->
<g id="node16" class="node">
<title>Node16</title>
<g id="a_node16"><a xlink:href="../../d4/d31/KFPTrack_8h.html" target="_top" xlink:title="KFPTrack.h">
<polygon fill="none" stroke="#000000" points="482.5,-114.5 482.5,-134.5 552.5,-134.5 552.5,-114.5 482.5,-114.5"/>
<text text-anchor="middle" x="517.5" y="-121.5" font-family="FreeSans" font-size="10.00" fill="#000000">KFPTrack.h</text>
</a>
</g>
</g>
<!-- Node8&#45;&gt;Node16 -->
<g id="edge18" class="edge">
<title>Node8&#45;&gt;Node16</title>
<path fill="none" stroke="#191970" d="M316.5537,-228.2223C317.2082,-213.4371 320.6615,-186.2693 336.5,-171 346.3606,-161.4937 421.9685,-144.2958 472.295,-133.69"/>
<polygon fill="#191970" stroke="#191970" points="473.2348,-137.0692 482.3067,-131.5965 471.802,-130.2174 473.2348,-137.0692"/>
</g>
<!-- Node8&#45;&gt;Node17 -->
<g id="edge21" class="edge">
<title>Node8&#45;&gt;Node17</title>
<path fill="none" stroke="#191970" d="M330.6236,-228.3095C342.4193,-219.7987 359.4508,-207.5102 373.1037,-197.6594"/>
<polygon fill="#191970" stroke="#191970" points="375.4371,-200.2918 381.4987,-191.6022 371.3412,-194.6151 375.4371,-200.2918"/>
</g>
<!-- Node8&#45;&gt;Node18 -->
<g id="edge24" class="edge">
<title>Node8&#45;&gt;Node18</title>
<path fill="none" stroke="#191970" d="M286.1458,-228.4408C257.8633,-219.0681 215.5097,-205.0323 184.483,-194.7502"/>
<polygon fill="#191970" stroke="#191970" points="185.4329,-191.3779 174.8396,-191.5544 183.2309,-198.0225 185.4329,-191.3779"/>
</g>
<!-- Node19 -->
<g id="node19" class="node">
<title>Node19</title>
<g id="a_node19"><a xlink:href="../../d9/d6b/KFPVertex_8h.html" target="_top" xlink:title="KFPVertex.h">
<polygon fill="none" stroke="#000000" points="212.5,-171.5 212.5,-191.5 288.5,-191.5 288.5,-171.5 212.5,-171.5"/>
<text text-anchor="middle" x="250.5" y="-178.5" font-family="FreeSans" font-size="10.00" fill="#000000">KFPVertex.h</text>
</a>
</g>
</g>
<!-- Node8&#45;&gt;Node19 -->
<g id="edge26" class="edge">
<title>Node8&#45;&gt;Node19</title>
<path fill="none" stroke="#191970" d="M304.7005,-228.3095C295.0336,-219.9608 281.1575,-207.9769 269.8657,-198.2249"/>
<polygon fill="#191970" stroke="#191970" points="272.0533,-195.4896 262.1973,-191.6022 267.4779,-200.7874 272.0533,-195.4896"/>
</g>
<!-- Node9&#45;&gt;Node6 -->
<g id="edge9" class="edge">
<title>Node9&#45;&gt;Node6</title>
<path fill="none" stroke="#191970" d="M542.769,-171.3095C556.6152,-162.6366 576.7245,-150.0407 592.596,-140.0992"/>
<polygon fill="#191970" stroke="#191970" points="594.7551,-142.8768 601.3719,-134.6022 591.0392,-136.9445 594.7551,-142.8768"/>
</g>
<!-- Node10 -->
<g id="node10" class="node">
<title>Node10</title>
<g id="a_node10"><a xlink:href="../../dc/d15/KFParticleDef_8h.html" target="_top" xlink:title="KFParticleDef.h">
<polygon fill="none" stroke="#000000" points="349.5,-114.5 349.5,-134.5 441.5,-134.5 441.5,-114.5 349.5,-114.5"/>
<text text-anchor="middle" x="395.5" y="-121.5" font-family="FreeSans" font-size="10.00" fill="#000000">KFParticleDef.h</text>
</a>
</g>
</g>
<!-- Node9&#45;&gt;Node10 -->
<g id="edge10" class="edge">
<title>Node9&#45;&gt;Node10</title>
<path fill="none" stroke="#191970" d="M503.3814,-171.4408C482.4647,-162.3396 451.4431,-148.8416 428.0272,-138.6531"/>
<polygon fill="#191970" stroke="#191970" points="429.3942,-135.4309 418.8281,-134.6504 426.6013,-141.8497 429.3942,-135.4309"/>
</g>
<!-- Node10&#45;&gt;Node5 -->
<g id="edge11" class="edge">
<title>Node10&#45;&gt;Node5</title>
<path fill="none" stroke="#191970" d="M422.3247,-114.4408C446.9939,-105.1898 483.7771,-91.3961 511.0929,-81.1527"/>
<polygon fill="#191970" stroke="#191970" points="512.554,-84.3428 520.6883,-77.5544 510.096,-77.7885 512.554,-84.3428"/>
</g>
<!-- Node11 -->
<g id="node11" class="node">
<title>Node11</title>
<polygon fill="none" stroke="#bfbfbf" points="379,-.5 379,-20.5 424,-20.5 424,-.5 379,-.5"/>
<text text-anchor="middle" x="401.5" y="-7.5" font-family="FreeSans" font-size="10.00" fill="#000000">Vc/Vc</text>
</g>
<!-- Node10&#45;&gt;Node11 -->
<g id="edge12" class="edge">
<title>Node10&#45;&gt;Node11</title>
<path fill="none" stroke="#191970" d="M423.201,-114.4809C439.2569,-107.0737 458.106,-95.2499 467.5,-78 479.0742,-56.7468 455.3401,-37.5548 433.1776,-25.1167"/>
<polygon fill="#191970" stroke="#191970" points="434.6795,-21.9518 424.2031,-20.3726 431.4081,-28.1403 434.6795,-21.9518"/>
</g>
<!-- Node12 -->
<g id="node12" class="node">
<title>Node12</title>
<polygon fill="none" stroke="#bfbfbf" points="90,-57.5 90,-77.5 169,-77.5 169,-57.5 90,-57.5"/>
<text text-anchor="middle" x="129.5" y="-64.5" font-family="FreeSans" font-size="10.00" fill="#000000">Vc/version.h</text>
</g>
<!-- Node10&#45;&gt;Node12 -->
<g id="edge13" class="edge">
<title>Node10&#45;&gt;Node12</title>
<path fill="none" stroke="#191970" d="M349.47,-114.6364C301.9928,-104.4627 228.1859,-88.647 179.3517,-78.1825"/>
<polygon fill="#191970" stroke="#191970" points="179.8399,-74.7077 169.3285,-76.0347 178.3732,-81.5524 179.8399,-74.7077"/>
</g>
<!-- Node13 -->
<g id="node13" class="node">
<title>Node13</title>
<polygon fill="none" stroke="#bfbfbf" points="187,-57.5 187,-77.5 248,-77.5 248,-57.5 187,-57.5"/>
<text text-anchor="middle" x="217.5" y="-64.5" font-family="FreeSans" font-size="10.00" fill="#000000">Vc/limits</text>
</g>
<!-- Node10&#45;&gt;Node13 -->
<g id="edge14" class="edge">
<title>Node10&#45;&gt;Node13</title>
<path fill="none" stroke="#191970" d="M364.0869,-114.4408C334.4198,-104.9406 289.792,-90.6497 257.5743,-80.3328"/>
<polygon fill="#191970" stroke="#191970" points="258.5955,-76.9848 248.0044,-77.2683 256.4606,-83.6513 258.5955,-76.9848"/>
</g>
<!-- Node14 -->
<g id="node14" class="node">
<title>Node14</title>
<polygon fill="none" stroke="#bfbfbf" points="266.5,-57.5 266.5,-77.5 326.5,-77.5 326.5,-57.5 266.5,-57.5"/>
<text text-anchor="middle" x="296.5" y="-64.5" font-family="FreeSans" font-size="10.00" fill="#000000">Rtypes.h</text>
</g>
<!-- Node10&#45;&gt;Node14 -->
<g id="edge15" class="edge">
<title>Node10&#45;&gt;Node14</title>
<path fill="none" stroke="#191970" d="M377.8008,-114.3095C362.5965,-105.5556 340.4506,-92.8049 323.1104,-82.8211"/>
<polygon fill="#191970" stroke="#191970" points="324.4586,-79.5587 314.046,-77.6022 320.9658,-85.6251 324.4586,-79.5587"/>
</g>
<!-- Node15 -->
<g id="node15" class="node">
<title>Node15</title>
<g id="a_node15"><a xlink:href="../../de/d7f/KFPSimdAllocator_8h.html" target="_top" xlink:title="KFPSimdAllocator.h">
<polygon fill="none" stroke="#000000" points="345,-57.5 345,-77.5 458,-77.5 458,-57.5 345,-57.5"/>
<text text-anchor="middle" x="401.5" y="-64.5" font-family="FreeSans" font-size="10.00" fill="#000000">KFPSimdAllocator.h</text>
</a>
</g>
</g>
<!-- Node10&#45;&gt;Node15 -->
<g id="edge16" class="edge">
<title>Node10&#45;&gt;Node15</title>
<path fill="none" stroke="#191970" d="M396.5727,-114.3095C397.3491,-106.9335 398.4242,-96.72 399.3721,-87.715"/>
<polygon fill="#191970" stroke="#191970" points="402.8704,-87.9137 400.4366,-77.6022 395.9089,-87.1809 402.8704,-87.9137"/>
</g>
<!-- Node15&#45;&gt;Node11 -->
<g id="edge17" class="edge">
<title>Node15&#45;&gt;Node11</title>
<path fill="none" stroke="#191970" d="M401.5,-57.3095C401.5,-49.9335 401.5,-39.72 401.5,-30.715"/>
<polygon fill="#191970" stroke="#191970" points="405.0001,-30.6022 401.5,-20.6022 398.0001,-30.6023 405.0001,-30.6022"/>
</g>
<!-- Node16&#45;&gt;Node5 -->
<g id="edge20" class="edge">
<title>Node16&#45;&gt;Node5</title>
<path fill="none" stroke="#191970" d="M522.8634,-114.3095C526.9162,-106.6093 532.5965,-95.8166 537.4817,-86.5349"/>
<polygon fill="#191970" stroke="#191970" points="540.6227,-88.0816 542.183,-77.6022 534.4283,-84.8213 540.6227,-88.0816"/>
</g>
<!-- Node16&#45;&gt;Node7 -->
<g id="edge19" class="edge">
<title>Node16&#45;&gt;Node7</title>
<path fill="none" stroke="#191970" d="M549.4425,-114.4408C581.817,-104.2455 631.7121,-88.5327 664.7281,-78.1354"/>
<polygon fill="#191970" stroke="#191970" points="665.9076,-81.4334 674.3944,-75.0913 663.8049,-74.7567 665.9076,-81.4334"/>
</g>
<!-- Node17&#45;&gt;Node10 -->
<g id="edge23" class="edge">
<title>Node17&#45;&gt;Node10</title>
<path fill="none" stroke="#191970" d="M395.5,-171.3095C395.5,-163.9335 395.5,-153.72 395.5,-144.715"/>
<polygon fill="#191970" stroke="#191970" points="399.0001,-144.6022 395.5,-134.6022 392.0001,-144.6023 399.0001,-144.6022"/>
</g>
<!-- Node17&#45;&gt;Node16 -->
<g id="edge22" class="edge">
<title>Node17&#45;&gt;Node16</title>
<path fill="none" stroke="#191970" d="M417.0303,-171.4408C436.3368,-162.4205 464.8875,-149.0813 486.6243,-138.9255"/>
<polygon fill="#191970" stroke="#191970" points="488.1961,-142.0544 495.7745,-134.6504 485.2331,-135.7124 488.1961,-142.0544"/>
</g>
<!-- Node18&#45;&gt;Node10 -->
<g id="edge25" class="edge">
<title>Node18&#45;&gt;Node10</title>
<path fill="none" stroke="#191970" d="M188.796,-171.4408C231.3193,-161.7841 295.64,-147.1774 341.2223,-136.826"/>
<polygon fill="#191970" stroke="#191970" points="342.2488,-140.1821 351.2254,-134.5544 340.6986,-133.3559 342.2488,-140.1821"/>
</g>
<!-- Node21&#45;&gt;Node11 -->
<g id="edge31" class="edge">
<title>Node21&#45;&gt;Node11</title>
<path fill="none" stroke="#191970" d="M61.5,-285.4352C61.5,-265.5659 61.5,-219.8958 61.5,-181.5 61.5,-181.5 61.5,-181.5 61.5,-124.5 61.5,-93.3342 57.0722,-77.5535 80.5,-57 101.9775,-38.1576 291.1541,-19.9654 368.6307,-13.2351"/>
<polygon fill="#191970" stroke="#191970" points="369.1286,-16.7053 378.7926,-12.3627 368.5298,-9.731 369.1286,-16.7053"/>
</g>
</g>
</svg>
