<?xml version="1.0" encoding="UTF-8" standalone="no"?>
<!DOCTYPE svg PUBLIC "-//W3C//DTD SVG 1.1//EN"
 "http://www.w3.org/Graphics/SVG/1.1/DTD/svg11.dtd">
<!-- Generated by graphviz version 2.40.1 (20161225.0304)
 -->
<!-- Title: genfit::GFTracksToTracks Pages: 1 -->
<svg width="905pt" height="403pt"
 viewBox="0.00 0.00 905.00 403.00" xmlns="http://www.w3.org/2000/svg" xmlns:xlink="http://www.w3.org/1999/xlink">
<g id="graph0" class="graph" transform="scale(1 1) rotate(0) translate(4 399)">
<title>genfit::GFTracksToTracks</title>
<!-- Node1 -->
<g id="node1" class="node">
<title>Node1</title>
<polygon fill="#bfbfbf" stroke="#000000" points="0,-159.5 0,-179.5 140,-179.5 140,-159.5 0,-159.5"/>
<text text-anchor="middle" x="70" y="-166.5" font-family="FreeSans" font-size="10.00" fill="#000000">genfit::GFTracksToTracks</text>
</g>
<!-- Node2 -->
<g id="node2" class="node">
<title>Node2</title>
<g id="a_node2"><a xlink:href="../../dc/d22/namespacegenfit.html#a16248965fc33843bb4f2d9bd8b0a7ce7" target="_top" xlink:title="genfit::GFTrackToTrack">
<polygon fill="none" stroke="#000000" points="176,-159.5 176,-179.5 306,-179.5 306,-159.5 176,-159.5"/>
<text text-anchor="middle" x="241" y="-166.5" font-family="FreeSans" font-size="10.00" fill="#000000">genfit::GFTrackToTrack</text>
</a>
</g>
</g>
<!-- Node1&#45;&gt;Node2 -->
<g id="edge1" class="edge">
<title>Node1&#45;&gt;Node2</title>
<path fill="none" stroke="#191970" d="M140.0456,-169.5C148.439,-169.5 157.0378,-169.5 165.504,-169.5"/>
<polygon fill="#191970" stroke="#191970" points="165.7424,-173.0001 175.7424,-169.5 165.7423,-166.0001 165.7424,-173.0001"/>
</g>
<!-- Node3 -->
<g id="node3" class="node">
<title>Node3</title>
<g id="a_node3"><a xlink:href="../../d6/d8a/classgenfit_1_1Track.html#ad06e7a012624bdb03960826b5c9fcd93" target="_top" xlink:title="Get FitStatus for a AbsTrackRep. Per default, return FitStatus for cardinalRep.">
<polygon fill="none" stroke="#000000" points="550,-374.5 550,-394.5 696,-394.5 696,-374.5 550,-374.5"/>
<text text-anchor="middle" x="623" y="-381.5" font-family="FreeSans" font-size="10.00" fill="#000000">genfit::Track::getFitStatus</text>
</a>
</g>
</g>
<!-- Node2&#45;&gt;Node3 -->
<g id="edge2" class="edge">
<title>Node2&#45;&gt;Node3</title>
<path fill="none" stroke="#191970" d="M246.1026,-179.506C258.8739,-203.5493 294.6222,-264.9824 342,-297.5 401.8045,-338.5467 481.7459,-360.8271 541.0704,-372.5298"/>
<polygon fill="#191970" stroke="#191970" points="540.6723,-376.017 551.1515,-374.4563 541.9862,-369.1414 540.6723,-376.017"/>
</g>
<!-- Node5 -->
<g id="node5" class="node">
<title>Node5</title>
<g id="a_node5"><a xlink:href="../../d0/d8d/classgenfit_1_1FitStatus.html#a56371ce504bee72fcf2f9324ddcb91a8" target="_top" xlink:title="Did the fit converge (in all Points or only partially)?">
<polygon fill="none" stroke="#000000" points="376,-255.5 376,-287.5 478,-287.5 478,-255.5 376,-255.5"/>
<text text-anchor="start" x="384" y="-274.5" font-family="FreeSans" font-size="10.00" fill="#000000">genfit::FitStatus::</text>
<text text-anchor="middle" x="427" y="-262.5" font-family="FreeSans" font-size="10.00" fill="#000000">isFitConverged</text>
</a>
</g>
</g>
<!-- Node2&#45;&gt;Node5 -->
<g id="edge4" class="edge">
<title>Node2&#45;&gt;Node5</title>
<path fill="none" stroke="#191970" d="M251.5996,-179.7309C269.0684,-196.0669 305.6081,-228.073 342,-246.5 349.5948,-250.3456 357.8785,-253.6969 366.1982,-256.5879"/>
<polygon fill="#191970" stroke="#191970" points="365.3496,-259.9927 375.9422,-259.7722 367.5241,-253.339 365.3496,-259.9927"/>
</g>
<!-- Node6 -->
<g id="node6" class="node">
<title>Node6</title>
<g id="a_node6"><a xlink:href="../../d6/d8a/classgenfit_1_1Track.html#abf156957d701a9a10a02fef8ac54e4d9" target="_top" xlink:title="Shortcut to get FittedStates.">
<polygon fill="none" stroke="#000000" points="362,-204.5 362,-236.5 492,-236.5 492,-204.5 362,-204.5"/>
<text text-anchor="start" x="370" y="-223.5" font-family="FreeSans" font-size="10.00" fill="#000000">genfit::Track::getFitted</text>
<text text-anchor="middle" x="427" y="-211.5" font-family="FreeSans" font-size="10.00" fill="#000000">State</text>
</a>
</g>
</g>
<!-- Node2&#45;&gt;Node6 -->
<g id="edge5" class="edge">
<title>Node2&#45;&gt;Node6</title>
<path fill="none" stroke="#191970" d="M277.7476,-179.576C300.7548,-185.8844 331.1192,-194.2101 358.4508,-201.7042"/>
<polygon fill="#191970" stroke="#191970" points="357.7943,-205.1534 368.3639,-204.4223 359.6454,-198.4025 357.7943,-205.1534"/>
</g>
<!-- Node11 -->
<g id="node11" class="node">
<title>Node11</title>
<g id="a_node11"><a xlink:href="../../d2/d74/classgenfit_1_1MeasuredStateOnPlane.html#a3aab44a6c7155b8258fa34469bc45bc0" target="_top" xlink:title="genfit::MeasuredStateOnPlane\l::getPosMomCov">
<polygon fill="none" stroke="#000000" points="342,-153.5 342,-185.5 512,-185.5 512,-153.5 342,-153.5"/>
<text text-anchor="start" x="350" y="-172.5" font-family="FreeSans" font-size="10.00" fill="#000000">genfit::MeasuredStateOnPlane</text>
<text text-anchor="middle" x="427" y="-160.5" font-family="FreeSans" font-size="10.00" fill="#000000">::getPosMomCov</text>
</a>
</g>
</g>
<!-- Node2&#45;&gt;Node11 -->
<g id="edge13" class="edge">
<title>Node2&#45;&gt;Node11</title>
<path fill="none" stroke="#191970" d="M306.0538,-169.5C314.3363,-169.5 322.9449,-169.5 331.5814,-169.5"/>
<polygon fill="#191970" stroke="#191970" points="331.7147,-173.0001 341.7147,-169.5 331.7146,-166.0001 331.7147,-173.0001"/>
</g>
<!-- Node14 -->
<g id="node14" class="node">
<title>Node14</title>
<g id="a_node14"><a xlink:href="../../d0/d8d/classgenfit_1_1FitStatus.html#a7e8ed1d97eec3e3164dc2dd782f5cb85" target="_top" xlink:title="Get the fitted charge.">
<polygon fill="none" stroke="#000000" points="376,-102.5 376,-134.5 478,-134.5 478,-102.5 376,-102.5"/>
<text text-anchor="start" x="384" y="-121.5" font-family="FreeSans" font-size="10.00" fill="#000000">genfit::FitStatus::</text>
<text text-anchor="middle" x="427" y="-109.5" font-family="FreeSans" font-size="10.00" fill="#000000">getCharge</text>
</a>
</g>
</g>
<!-- Node2&#45;&gt;Node14 -->
<g id="edge16" class="edge">
<title>Node2&#45;&gt;Node14</title>
<path fill="none" stroke="#191970" d="M277.7476,-159.424C302.9541,-152.5126 336.9916,-143.1797 366.1967,-135.1719"/>
<polygon fill="#191970" stroke="#191970" points="367.1775,-138.5322 375.896,-132.5124 365.3264,-131.7814 367.1775,-138.5322"/>
</g>
<!-- Node15 -->
<g id="node15" class="node">
<title>Node15</title>
<g id="a_node15"><a xlink:href="../../d0/d8d/classgenfit_1_1FitStatus.html#abbeeda61574c284f1d762088b3644770" target="_top" xlink:title="Get chi^2 of the fit.">
<polygon fill="none" stroke="#000000" points="376,-51.5 376,-83.5 478,-83.5 478,-51.5 376,-51.5"/>
<text text-anchor="start" x="384" y="-70.5" font-family="FreeSans" font-size="10.00" fill="#000000">genfit::FitStatus::</text>
<text text-anchor="middle" x="427" y="-58.5" font-family="FreeSans" font-size="10.00" fill="#000000">getChi2</text>
</a>
</g>
</g>
<!-- Node2&#45;&gt;Node15 -->
<g id="edge17" class="edge">
<title>Node2&#45;&gt;Node15</title>
<path fill="none" stroke="#191970" d="M251.5996,-159.2691C269.0684,-142.9331 305.6081,-110.927 342,-92.5 349.5948,-88.6544 357.8785,-85.3031 366.1982,-82.4121"/>
<polygon fill="#191970" stroke="#191970" points="367.5241,-85.661 375.9422,-79.2278 365.3496,-79.0073 367.5241,-85.661"/>
</g>
<!-- Node16 -->
<g id="node16" class="node">
<title>Node16</title>
<g id="a_node16"><a xlink:href="../../d0/d8d/classgenfit_1_1FitStatus.html#aa73b3566657ea37bf8ab5102d465025d" target="_top" xlink:title="Get the degrees of freedom of the fit.">
<polygon fill="none" stroke="#000000" points="376,-.5 376,-32.5 478,-32.5 478,-.5 376,-.5"/>
<text text-anchor="start" x="384" y="-19.5" font-family="FreeSans" font-size="10.00" fill="#000000">genfit::FitStatus::</text>
<text text-anchor="middle" x="427" y="-7.5" font-family="FreeSans" font-size="10.00" fill="#000000">getNdf</text>
</a>
</g>
</g>
<!-- Node2&#45;&gt;Node16 -->
<g id="edge18" class="edge">
<title>Node2&#45;&gt;Node16</title>
<path fill="none" stroke="#191970" d="M246.073,-159.4507C258.7788,-135.3111 294.3926,-73.6805 342,-41.5 349.3147,-36.5556 357.6223,-32.5716 366.11,-29.3659"/>
<polygon fill="#191970" stroke="#191970" points="367.4025,-32.6228 375.7259,-26.0676 365.1313,-26.0015 367.4025,-32.6228"/>
</g>
<!-- Node4 -->
<g id="node4" class="node">
<title>Node4</title>
<g id="a_node4"><a xlink:href="../../d6/d8a/classgenfit_1_1Track.html#a402b35300e81a48c7f0b9eb082b1cf24" target="_top" xlink:title="Get cardinal track representation.">
<polygon fill="none" stroke="#000000" points="734,-312.5 734,-332.5 897,-332.5 897,-312.5 734,-312.5"/>
<text text-anchor="middle" x="815.5" y="-319.5" font-family="FreeSans" font-size="10.00" fill="#000000">genfit::Track::getCardinalRep</text>
</a>
</g>
</g>
<!-- Node3&#45;&gt;Node4 -->
<g id="edge3" class="edge">
<title>Node3&#45;&gt;Node4</title>
<path fill="none" stroke="#191970" d="M654.3569,-374.4006C687.0772,-363.8622 738.5259,-347.2917 774.4609,-335.7178"/>
<polygon fill="#191970" stroke="#191970" points="775.7111,-338.9923 784.1565,-332.595 773.565,-332.3293 775.7111,-338.9923"/>
</g>
<!-- Node6&#45;&gt;Node4 -->
<g id="edge6" class="edge">
<title>Node6&#45;&gt;Node4</title>
<path fill="none" stroke="#191970" d="M492.2942,-234.0017C499.4413,-237.2977 506.2113,-241.3984 512,-246.5 541.2511,-272.2793 515.2583,-305.3297 548,-326.5 617.9476,-371.7271 721.17,-351.6245 776.7195,-335.5288"/>
<polygon fill="#191970" stroke="#191970" points="777.9472,-338.8146 786.5183,-332.5866 775.9342,-332.1103 777.9472,-338.8146"/>
</g>
<!-- Node7 -->
<g id="node7" class="node">
<title>Node7</title>
<g id="a_node7"><a xlink:href="../../d6/d8a/classgenfit_1_1Track.html#ad8961b1ff4809ccde5f6f100ffbccb9d" target="_top" xlink:title="genfit::Track::getPointWith\lFitterInfo">
<polygon fill="none" stroke="#000000" points="548,-284.5 548,-316.5 698,-316.5 698,-284.5 548,-284.5"/>
<text text-anchor="start" x="556" y="-303.5" font-family="FreeSans" font-size="10.00" fill="#000000">genfit::Track::getPointWith</text>
<text text-anchor="middle" x="623" y="-291.5" font-family="FreeSans" font-size="10.00" fill="#000000">FitterInfo</text>
</a>
</g>
</g>
<!-- Node6&#45;&gt;Node7 -->
<g id="edge7" class="edge">
<title>Node6&#45;&gt;Node7</title>
<path fill="none" stroke="#191970" d="M489.3972,-236.5571C497.1935,-239.4368 504.9102,-242.7413 512,-246.5 530.1524,-256.1236 529.9689,-265.6511 548,-275.5 551.1055,-277.1963 554.3461,-278.8044 557.6631,-280.325"/>
<polygon fill="#191970" stroke="#191970" points="556.5936,-283.6739 567.165,-284.379 559.3406,-277.2354 556.5936,-283.6739"/>
</g>
<!-- Node8 -->
<g id="node8" class="node">
<title>Node8</title>
<g id="a_node8"><a xlink:href="../../d8/db3/classgenfit_1_1Exception.html#a13619975a1e1be5c1bd504b254e01f7a" target="_top" xlink:title="Set fatal flag.">
<polygon fill="none" stroke="#000000" points="569,-233.5 569,-265.5 677,-265.5 677,-233.5 569,-233.5"/>
<text text-anchor="start" x="577" y="-252.5" font-family="FreeSans" font-size="10.00" fill="#000000">genfit::Exception::</text>
<text text-anchor="middle" x="623" y="-240.5" font-family="FreeSans" font-size="10.00" fill="#000000">setFatal</text>
</a>
</g>
</g>
<!-- Node6&#45;&gt;Node8 -->
<g id="edge9" class="edge">
<title>Node6&#45;&gt;Node8</title>
<path fill="none" stroke="#191970" d="M492.2652,-230.1566C513.7033,-233.3286 537.5027,-236.8499 558.8569,-240.0094"/>
<polygon fill="#191970" stroke="#191970" points="558.3948,-243.4791 568.7995,-241.4805 559.4195,-236.5545 558.3948,-243.4791"/>
</g>
<!-- Node9 -->
<g id="node9" class="node">
<title>Node9</title>
<g id="a_node9"><a xlink:href="../../db/d40/classgenfit_1_1TrackPoint.html#ae8b3e743fb436dd6689e0dad4c35ffd9" target="_top" xlink:title="Get fitterInfo for rep. Per default, use cardinal rep.">
<polygon fill="none" stroke="#000000" points="571,-182.5 571,-214.5 675,-214.5 675,-182.5 571,-182.5"/>
<text text-anchor="start" x="579" y="-201.5" font-family="FreeSans" font-size="10.00" fill="#000000">genfit::TrackPoint</text>
<text text-anchor="middle" x="623" y="-189.5" font-family="FreeSans" font-size="10.00" fill="#000000">::getFitterInfo</text>
</a>
</g>
</g>
<!-- Node6&#45;&gt;Node9 -->
<g id="edge10" class="edge">
<title>Node6&#45;&gt;Node9</title>
<path fill="none" stroke="#191970" d="M492.2652,-213.1743C514.2802,-210.7032 538.7851,-207.9527 560.5752,-205.5069"/>
<polygon fill="#191970" stroke="#191970" points="561.1558,-208.9638 570.7029,-204.3701 560.3749,-202.0075 561.1558,-208.9638"/>
</g>
<!-- Node10 -->
<g id="node10" class="node">
<title>Node10</title>
<g id="a_node10"><a xlink:href="../../d9/d8c/classgenfit_1_1AbsFitterInfo.html#a985d0203f46dfbd5dc253bb03b21d76f" target="_top" xlink:title="genfit::AbsFitterInfo\l::getFittedState">
<polygon fill="none" stroke="#000000" points="565,-131.5 565,-163.5 681,-163.5 681,-131.5 565,-131.5"/>
<text text-anchor="start" x="573" y="-150.5" font-family="FreeSans" font-size="10.00" fill="#000000">genfit::AbsFitterInfo</text>
<text text-anchor="middle" x="623" y="-138.5" font-family="FreeSans" font-size="10.00" fill="#000000">::getFittedState</text>
</a>
</g>
</g>
<!-- Node6&#45;&gt;Node10 -->
<g id="edge12" class="edge">
<title>Node6&#45;&gt;Node10</title>
<path fill="none" stroke="#191970" d="M488.9735,-204.3512C496.839,-201.6981 504.6878,-198.7418 512,-195.5 529.142,-187.9003 531.0439,-181.5059 548,-173.5 552.6323,-171.3128 557.5006,-169.2127 562.4388,-167.2203"/>
<polygon fill="#191970" stroke="#191970" points="563.9157,-170.4017 571.9776,-163.5273 561.3884,-163.8739 563.9157,-170.4017"/>
</g>
<!-- Node7&#45;&gt;Node4 -->
<g id="edge8" class="edge">
<title>Node7&#45;&gt;Node4</title>
<path fill="none" stroke="#191970" d="M698.2526,-309.1003C706.6656,-310.0618 715.3035,-311.049 723.8921,-312.0305"/>
<polygon fill="#191970" stroke="#191970" points="723.6024,-315.5201 733.9352,-313.1783 724.3973,-308.5654 723.6024,-315.5201"/>
</g>
<!-- Node9&#45;&gt;Node4 -->
<g id="edge11" class="edge">
<title>Node9&#45;&gt;Node4</title>
<path fill="none" stroke="#191970" d="M675.31,-213.8862C683.1221,-216.9617 690.9215,-220.4993 698,-224.5 737.7501,-246.9663 777.0939,-283.4452 798.656,-304.9905"/>
<polygon fill="#191970" stroke="#191970" points="796.25,-307.5354 805.7633,-312.199 801.2347,-302.6208 796.25,-307.5354"/>
</g>
<!-- Node12 -->
<g id="node12" class="node">
<title>Node12</title>
<g id="a_node12"><a xlink:href="../../de/dd5/classgenfit_1_1StateOnPlane.html#a14f25e4575846dcb14bd91ddb2a534d2" target="_top" xlink:title="genfit::StateOnPlane\l::getRep">
<polygon fill="none" stroke="#000000" points="562.5,-80.5 562.5,-112.5 683.5,-112.5 683.5,-80.5 562.5,-80.5"/>
<text text-anchor="start" x="570.5" y="-99.5" font-family="FreeSans" font-size="10.00" fill="#000000">genfit::StateOnPlane</text>
<text text-anchor="middle" x="623" y="-87.5" font-family="FreeSans" font-size="10.00" fill="#000000">::getRep</text>
</a>
</g>
</g>
<!-- Node11&#45;&gt;Node12 -->
<g id="edge14" class="edge">
<title>Node11&#45;&gt;Node12</title>
<path fill="none" stroke="#191970" d="M488.9735,-153.3512C496.839,-150.6981 504.6878,-147.7418 512,-144.5 529.142,-136.9003 531.0439,-130.5059 548,-122.5 552.6323,-120.3128 557.5006,-118.2127 562.4388,-116.2203"/>
<polygon fill="#191970" stroke="#191970" points="563.9157,-119.4017 571.9776,-112.5273 561.3884,-112.8739 563.9157,-119.4017"/>
</g>
<!-- Node13 -->
<g id="node13" class="node">
<title>Node13</title>
<g id="a_node13"><a xlink:href="../../d1/d25/classgenfit_1_1AbsTrackRep.html#ae6f4c4eeb3e4fbadcc930f53e2ca4ad7" target="_top" xlink:title="Translates MeasuredStateOnPlane into 3D position, momentum and 6x6 covariance.">
<polygon fill="none" stroke="#000000" points="564.5,-29.5 564.5,-61.5 681.5,-61.5 681.5,-29.5 564.5,-29.5"/>
<text text-anchor="start" x="572.5" y="-48.5" font-family="FreeSans" font-size="10.00" fill="#000000">genfit::AbsTrackRep</text>
<text text-anchor="middle" x="623" y="-36.5" font-family="FreeSans" font-size="10.00" fill="#000000">::getPosMomCov</text>
</a>
</g>
</g>
<!-- Node11&#45;&gt;Node13 -->
<g id="edge15" class="edge">
<title>Node11&#45;&gt;Node13</title>
<path fill="none" stroke="#191970" d="M498.8915,-153.3252C503.575,-150.7985 508.0068,-147.8773 512,-144.5 539.9256,-120.8813 520.5004,-94.6133 548,-70.5 550.3493,-68.4399 552.874,-66.5486 555.5241,-64.8122"/>
<polygon fill="#191970" stroke="#191970" points="557.4008,-67.7711 564.3541,-59.7773 553.9334,-61.6902 557.4008,-67.7711"/>
</g>
</g>
</svg>
