<?xml version="1.0" encoding="UTF-8" standalone="no"?>
<!DOCTYPE svg PUBLIC "-//W3C//DTD SVG 1.1//EN"
 "http://www.w3.org/Graphics/SVG/1.1/DTD/svg11.dtd">
<!-- Generated by graphviz version 2.40.1 (20161225.0304)
 -->
<!-- Title: genfit::calcAverageState Pages: 1 -->
<svg width="605pt" height="547pt"
 viewBox="0.00 0.00 605.00 546.98" xmlns="http://www.w3.org/2000/svg" xmlns:xlink="http://www.w3.org/1999/xlink">
<g id="graph0" class="graph" transform="scale(1 1) rotate(0) translate(4 542.9828)">
<title>genfit::calcAverageState</title>
<!-- Node1 -->
<g id="node1" class="node">
<title>Node1</title>
<polygon fill="#bfbfbf" stroke="#000000" points="0,-250.3535 0,-270.3535 141,-270.3535 141,-250.3535 0,-250.3535"/>
<text text-anchor="middle" x="70.5" y="-257.3535" font-family="FreeSans" font-size="10.00" fill="#000000">genfit::calcAverageState</text>
</g>
<!-- Node2 -->
<g id="node2" class="node">
<title>Node2</title>
<g id="a_node2"><a xlink:href="../../d7/dd8/bk_8f.html#a084aa72b16f800aa352c4efed50eb2af" target="_top" xlink:title="bk">
<polygon fill="none" stroke="#000000" points="563.5,-352.3535 563.5,-372.3535 592.5,-372.3535 592.5,-352.3535 563.5,-352.3535"/>
<text text-anchor="middle" x="578" y="-359.3535" font-family="FreeSans" font-size="10.00" fill="#000000">bk</text>
</a>
</g>
</g>
<!-- Node1&#45;&gt;Node2 -->
<g id="edge1" class="edge">
<title>Node1&#45;&gt;Node2</title>
<path fill="none" stroke="#191970" d="M71.0443,-270.5151C73.7822,-310.1946 89.6584,-455.3553 177,-513.3535 310.1722,-601.785 502.3263,-435.3539 560.6031,-379.6241"/>
<polygon fill="#191970" stroke="#191970" points="563.1738,-382.0066 567.9176,-372.5331 558.3015,-376.9806 563.1738,-382.0066"/>
</g>
<!-- Node3 -->
<g id="node3" class="node">
<title>Node3</title>
<g id="a_node3"><a xlink:href="../../de/dd5/classgenfit_1_1StateOnPlane.html#a2801bf4fa1196147472cc1807281e23d" target="_top" xlink:title="genfit::StateOnPlane\l::getAuxInfo">
<polygon fill="none" stroke="#000000" points="201.5,-471.3535 201.5,-503.3535 322.5,-503.3535 322.5,-471.3535 201.5,-471.3535"/>
<text text-anchor="start" x="209.5" y="-490.3535" font-family="FreeSans" font-size="10.00" fill="#000000">genfit::StateOnPlane</text>
<text text-anchor="middle" x="262" y="-478.3535" font-family="FreeSans" font-size="10.00" fill="#000000">::getAuxInfo</text>
</a>
</g>
</g>
<!-- Node1&#45;&gt;Node3 -->
<g id="edge2" class="edge">
<title>Node1&#45;&gt;Node3</title>
<path fill="none" stroke="#191970" d="M72.8574,-270.5421C81.0348,-303.5673 111.3424,-408.6229 177,-462.3535 181.5756,-466.098 186.6934,-469.2816 192.0875,-471.9884"/>
<polygon fill="#191970" stroke="#191970" points="190.8188,-475.2544 201.3792,-476.1083 193.6562,-468.8552 190.8188,-475.2544"/>
</g>
<!-- Node4 -->
<g id="node4" class="node">
<title>Node4</title>
<g id="a_node4"><a xlink:href="../../d2/d74/classgenfit_1_1MeasuredStateOnPlane.html#adea48432beb9b8fc30bc4bf05b4c5547" target="_top" xlink:title="genfit::MeasuredStateOnPlane\l::getCov">
<polygon fill="none" stroke="#000000" points="177,-420.3535 177,-452.3535 347,-452.3535 347,-420.3535 177,-420.3535"/>
<text text-anchor="start" x="185" y="-439.3535" font-family="FreeSans" font-size="10.00" fill="#000000">genfit::MeasuredStateOnPlane</text>
<text text-anchor="middle" x="262" y="-427.3535" font-family="FreeSans" font-size="10.00" fill="#000000">::getCov</text>
</a>
</g>
</g>
<!-- Node1&#45;&gt;Node4 -->
<g id="edge3" class="edge">
<title>Node1&#45;&gt;Node4</title>
<path fill="none" stroke="#191970" d="M74.777,-270.5837C86.6975,-297.8292 123.0042,-372.7004 177,-411.3535 179.0794,-412.8421 181.2472,-414.2427 183.4831,-415.5606"/>
<polygon fill="#191970" stroke="#191970" points="181.9216,-418.6938 192.4023,-420.2443 185.176,-412.4963 181.9216,-418.6938"/>
</g>
<!-- Node5 -->
<g id="node5" class="node">
<title>Node5</title>
<g id="a_node5"><a xlink:href="../../de/dd5/classgenfit_1_1StateOnPlane.html#a30c7e8d87fa50205baa927d4ceccb594" target="_top" xlink:title="genfit::StateOnPlane\l::getPlane">
<polygon fill="none" stroke="#000000" points="201.5,-369.3535 201.5,-401.3535 322.5,-401.3535 322.5,-369.3535 201.5,-369.3535"/>
<text text-anchor="start" x="209.5" y="-388.3535" font-family="FreeSans" font-size="10.00" fill="#000000">genfit::StateOnPlane</text>
<text text-anchor="middle" x="262" y="-376.3535" font-family="FreeSans" font-size="10.00" fill="#000000">::getPlane</text>
</a>
</g>
</g>
<!-- Node1&#45;&gt;Node5 -->
<g id="edge4" class="edge">
<title>Node1&#45;&gt;Node5</title>
<path fill="none" stroke="#191970" d="M78.4481,-270.4953C94.7528,-290.6209 134.0796,-335.7794 177,-360.3535 181.6721,-363.0285 186.6555,-365.4394 191.7777,-367.6083"/>
<polygon fill="#191970" stroke="#191970" points="190.5224,-370.8755 201.1104,-371.256 193.0707,-364.3558 190.5224,-370.8755"/>
</g>
<!-- Node6 -->
<g id="node6" class="node">
<title>Node6</title>
<g id="a_node6"><a xlink:href="../../de/dd5/classgenfit_1_1StateOnPlane.html#a14f25e4575846dcb14bd91ddb2a534d2" target="_top" xlink:title="genfit::StateOnPlane\l::getRep">
<polygon fill="none" stroke="#000000" points="201.5,-318.3535 201.5,-350.3535 322.5,-350.3535 322.5,-318.3535 201.5,-318.3535"/>
<text text-anchor="start" x="209.5" y="-337.3535" font-family="FreeSans" font-size="10.00" fill="#000000">genfit::StateOnPlane</text>
<text text-anchor="middle" x="262" y="-325.3535" font-family="FreeSans" font-size="10.00" fill="#000000">::getRep</text>
</a>
</g>
</g>
<!-- Node1&#45;&gt;Node6 -->
<g id="edge5" class="edge">
<title>Node1&#45;&gt;Node6</title>
<path fill="none" stroke="#191970" d="M90.1546,-270.445C111.2536,-281.0281 145.9358,-297.7093 177,-309.3535 182.3517,-311.3596 187.9406,-313.31 193.5849,-315.1786"/>
<polygon fill="#191970" stroke="#191970" points="192.513,-318.5103 203.1044,-318.2415 194.657,-311.8468 192.513,-318.5103"/>
</g>
<!-- Node7 -->
<g id="node7" class="node">
<title>Node7</title>
<g id="a_node7"><a xlink:href="../../de/dd5/classgenfit_1_1StateOnPlane.html#a61a05215bec767cf6919b083808a37d2" target="_top" xlink:title="genfit::StateOnPlane\l::getState">
<polygon fill="none" stroke="#000000" points="201.5,-267.3535 201.5,-299.3535 322.5,-299.3535 322.5,-267.3535 201.5,-267.3535"/>
<text text-anchor="start" x="209.5" y="-286.3535" font-family="FreeSans" font-size="10.00" fill="#000000">genfit::StateOnPlane</text>
<text text-anchor="middle" x="262" y="-274.3535" font-family="FreeSans" font-size="10.00" fill="#000000">::getState</text>
</a>
</g>
</g>
<!-- Node1&#45;&gt;Node7 -->
<g id="edge6" class="edge">
<title>Node1&#45;&gt;Node7</title>
<path fill="none" stroke="#191970" d="M141.2634,-268.8525C157.5865,-270.813 174.9513,-272.8986 191.2728,-274.8589"/>
<polygon fill="#191970" stroke="#191970" points="190.9358,-278.3435 201.2818,-276.061 191.7706,-271.3934 190.9358,-278.3435"/>
</g>
<!-- Node8 -->
<g id="node8" class="node">
<title>Node8</title>
<g id="a_node8"><a xlink:href="../../db/d45/namespacegenfit_1_1tools.html#ad70b08610012fcd630091c66be5cd0c4" target="_top" xlink:title="Invert a matrix, throwing an Exception when inversion fails. Optional calculation of determinant...">
<polygon fill="none" stroke="#000000" points="189.5,-228.3535 189.5,-248.3535 334.5,-248.3535 334.5,-228.3535 189.5,-228.3535"/>
<text text-anchor="middle" x="262" y="-235.3535" font-family="FreeSans" font-size="10.00" fill="#000000">genfit::tools::invertMatrix</text>
</a>
</g>
</g>
<!-- Node1&#45;&gt;Node8 -->
<g id="edge7" class="edge">
<title>Node1&#45;&gt;Node8</title>
<path fill="none" stroke="#191970" d="M141.2634,-252.224C153.6219,-250.8043 166.5774,-249.3159 179.2252,-247.8629"/>
<polygon fill="#191970" stroke="#191970" points="179.7501,-251.3257 189.2853,-246.7072 178.9511,-244.3715 179.7501,-251.3257"/>
</g>
<!-- Node10 -->
<g id="node10" class="node">
<title>Node10</title>
<g id="a_node10"><a xlink:href="../../db/d45/namespacegenfit_1_1tools.html#a409cdc24f5908845f845bf0c4a2d4961" target="_top" xlink:title="Replaces A with an upper right matrix connected to A by an orthongonal transformation. I.e., it computes R from a QR decomposition of A = QR, replacing A.">
<polygon fill="none" stroke="#000000" points="403.5,-138.3535 403.5,-158.3535 502.5,-158.3535 502.5,-138.3535 403.5,-138.3535"/>
<text text-anchor="middle" x="453" y="-145.3535" font-family="FreeSans" font-size="10.00" fill="#000000">genfit::tools::QR</text>
</a>
</g>
</g>
<!-- Node1&#45;&gt;Node10 -->
<g id="edge9" class="edge">
<title>Node1&#45;&gt;Node10</title>
<path fill="none" stroke="#191970" d="M78.228,-250.1534C94.1372,-230.0554 132.7878,-185.697 177,-167.3535 247.0996,-138.2694 335.814,-137.8502 393.457,-141.7904"/>
<polygon fill="#191970" stroke="#191970" points="393.2597,-145.2853 403.4931,-142.542 393.7825,-138.3049 393.2597,-145.2853"/>
</g>
<!-- Node11 -->
<g id="node11" class="node">
<title>Node11</title>
<g id="a_node11"><a xlink:href="../../da/d55/TPCRateLayered_8m.html#a7507ef556477c204b499f1e189d40796" target="_top" xlink:title="sum">
<polygon fill="none" stroke="#000000" points="559,-138.3535 559,-158.3535 597,-158.3535 597,-138.3535 559,-138.3535"/>
<text text-anchor="middle" x="578" y="-145.3535" font-family="FreeSans" font-size="10.00" fill="#000000">sum</text>
</a>
</g>
</g>
<!-- Node1&#45;&gt;Node11 -->
<g id="edge13" class="edge">
<title>Node1&#45;&gt;Node11</title>
<path fill="none" stroke="#191970" d="M71.4069,-250.1589C75.3893,-212.2828 94.9892,-79.1333 177,-26.3535 307.0351,57.3334 497.5003,-81.9817 558.4677,-131.7376"/>
<polygon fill="#191970" stroke="#191970" points="556.2563,-134.4506 566.1912,-138.1314 560.7201,-129.0585 556.2563,-134.4506"/>
</g>
<!-- Node12 -->
<g id="node12" class="node">
<title>Node12</title>
<g id="a_node12"><a xlink:href="../../d2/d74/classgenfit_1_1MeasuredStateOnPlane.html#aa50d18e563eb6659dcb1dc64660f400e" target="_top" xlink:title="genfit::MeasuredStateOnPlane\l::setCov">
<polygon fill="none" stroke="#000000" points="177,-87.3535 177,-119.3535 347,-119.3535 347,-87.3535 177,-87.3535"/>
<text text-anchor="start" x="185" y="-106.3535" font-family="FreeSans" font-size="10.00" fill="#000000">genfit::MeasuredStateOnPlane</text>
<text text-anchor="middle" x="262" y="-94.3535" font-family="FreeSans" font-size="10.00" fill="#000000">::setCov</text>
</a>
</g>
</g>
<!-- Node1&#45;&gt;Node12 -->
<g id="edge11" class="edge">
<title>Node1&#45;&gt;Node12</title>
<path fill="none" stroke="#191970" d="M76.3841,-250.3202C90.6761,-226.7744 129.5572,-167.4694 177,-134.3535 182.8444,-130.274 189.2874,-126.6668 195.9332,-123.4925"/>
<polygon fill="#191970" stroke="#191970" points="197.3653,-126.6862 205.0841,-119.4287 194.5242,-120.2887 197.3653,-126.6862"/>
</g>
<!-- Node13 -->
<g id="node13" class="node">
<title>Node13</title>
<g id="a_node13"><a xlink:href="../../de/dd5/classgenfit_1_1StateOnPlane.html#ad93a356012617fff04a557d34bd84ce5" target="_top" xlink:title="genfit::StateOnPlane\l::setState">
<polygon fill="none" stroke="#000000" points="201.5,-36.3535 201.5,-68.3535 322.5,-68.3535 322.5,-36.3535 201.5,-36.3535"/>
<text text-anchor="start" x="209.5" y="-55.3535" font-family="FreeSans" font-size="10.00" fill="#000000">genfit::StateOnPlane</text>
<text text-anchor="middle" x="262" y="-43.3535" font-family="FreeSans" font-size="10.00" fill="#000000">::setState</text>
</a>
</g>
</g>
<!-- Node1&#45;&gt;Node13 -->
<g id="edge12" class="edge">
<title>Node1&#45;&gt;Node13</title>
<path fill="none" stroke="#191970" d="M73.4217,-250.2549C82.8813,-219.3811 115.6707,-125.4345 177,-77.3535 181.5754,-73.7665 186.6527,-70.6937 191.9839,-68.0614"/>
<polygon fill="#191970" stroke="#191970" points="193.4036,-71.2607 201.1517,-64.0346 190.5885,-64.8517 193.4036,-71.2607"/>
</g>
<!-- Node14 -->
<g id="node14" class="node">
<title>Node14</title>
<g id="a_node14"><a xlink:href="../../db/d45/namespacegenfit_1_1tools.html#a98e2c1ec0611289beb34a8bfb13980a7" target="_top" xlink:title="Inverts the transpose of the upper right matrix R into inv.">
<polygon fill="none" stroke="#000000" points="192,-177.3535 192,-209.3535 332,-209.3535 332,-177.3535 192,-177.3535"/>
<text text-anchor="start" x="200" y="-196.3535" font-family="FreeSans" font-size="10.00" fill="#000000">genfit::tools::transposed</text>
<text text-anchor="middle" x="262" y="-184.3535" font-family="FreeSans" font-size="10.00" fill="#000000">Invert</text>
</a>
</g>
</g>
<!-- Node1&#45;&gt;Node14 -->
<g id="edge14" class="edge">
<title>Node1&#45;&gt;Node14</title>
<path fill="none" stroke="#191970" d="M95.2787,-250.243C116.7474,-241.6207 148.7186,-229.1091 177,-219.3535 183.7198,-217.0356 190.7732,-214.71 197.8228,-212.4546"/>
<polygon fill="#191970" stroke="#191970" points="198.9197,-215.7786 207.4016,-209.4299 196.8118,-209.1035 198.9197,-215.7786"/>
</g>
<!-- Node9 -->
<g id="node9" class="node">
<title>Node9</title>
<g id="a_node9"><a xlink:href="../../d8/db3/classgenfit_1_1Exception.html#a13619975a1e1be5c1bd504b254e01f7a" target="_top" xlink:title="Set fatal flag.">
<polygon fill="none" stroke="#000000" points="399,-228.3535 399,-260.3535 507,-260.3535 507,-228.3535 399,-228.3535"/>
<text text-anchor="start" x="407" y="-247.3535" font-family="FreeSans" font-size="10.00" fill="#000000">genfit::Exception::</text>
<text text-anchor="middle" x="453" y="-235.3535" font-family="FreeSans" font-size="10.00" fill="#000000">setFatal</text>
</a>
</g>
</g>
<!-- Node8&#45;&gt;Node9 -->
<g id="edge8" class="edge">
<title>Node8&#45;&gt;Node9</title>
<path fill="none" stroke="#191970" d="M334.7538,-240.639C352.5554,-241.1982 371.4767,-241.7926 388.8427,-242.3381"/>
<polygon fill="#191970" stroke="#191970" points="388.7626,-245.8372 398.8676,-242.653 388.9825,-238.8407 388.7626,-245.8372"/>
</g>
<!-- Node10&#45;&gt;Node11 -->
<g id="edge10" class="edge">
<title>Node10&#45;&gt;Node11</title>
<path fill="none" stroke="#191970" d="M502.7625,-148.3535C518.3418,-148.3535 535.0238,-148.3535 548.7109,-148.3535"/>
<polygon fill="#191970" stroke="#191970" points="548.9674,-151.8536 558.9674,-148.3535 548.9674,-144.8536 548.9674,-151.8536"/>
</g>
<!-- Node15 -->
<g id="node15" class="node">
<title>Node15</title>
<g id="a_node15"><a xlink:href="../../db/d45/namespacegenfit_1_1tools.html#a97e35224c7d7ec5d63f23ffda85aef4c" target="_top" xlink:title="Solves R^t x = b, replacing b with the solution for x. R is assumed to be upper diagonal.">
<polygon fill="none" stroke="#000000" points="383,-177.3535 383,-209.3535 523,-209.3535 523,-177.3535 383,-177.3535"/>
<text text-anchor="start" x="391" y="-196.3535" font-family="FreeSans" font-size="10.00" fill="#000000">genfit::tools::transposed</text>
<text text-anchor="middle" x="453" y="-184.3535" font-family="FreeSans" font-size="10.00" fill="#000000">ForwardSubstitution</text>
</a>
</g>
</g>
<!-- Node14&#45;&gt;Node15 -->
<g id="edge15" class="edge">
<title>Node14&#45;&gt;Node15</title>
<path fill="none" stroke="#191970" d="M332.0368,-193.3535C345.272,-193.3535 359.2112,-193.3535 372.7322,-193.3535"/>
<polygon fill="#191970" stroke="#191970" points="372.9717,-196.8536 382.9717,-193.3535 372.9716,-189.8536 372.9717,-196.8536"/>
</g>
<!-- Node15&#45;&gt;Node2 -->
<g id="edge16" class="edge">
<title>Node15&#45;&gt;Node2</title>
<path fill="none" stroke="#191970" d="M509.8481,-209.4591C514.6419,-212.254 519.1277,-215.5257 523,-219.3535 557.5379,-253.4952 570.7869,-311.6742 575.5456,-342.2377"/>
<polygon fill="#191970" stroke="#191970" points="572.0813,-342.737 576.9384,-352.1529 579.0133,-341.7632 572.0813,-342.737"/>
</g>
<!-- Node15&#45;&gt;Node11 -->
<g id="edge17" class="edge">
<title>Node15&#45;&gt;Node11</title>
<path fill="none" stroke="#191970" d="M497.7748,-177.2346C515.0145,-171.0283 534.2158,-164.1158 549.5101,-158.6099"/>
<polygon fill="#191970" stroke="#191970" points="550.7132,-161.8967 558.9366,-155.2164 548.3421,-155.3105 550.7132,-161.8967"/>
</g>
</g>
</svg>
