<?xml version="1.0" encoding="UTF-8" standalone="no"?>
<!DOCTYPE svg PUBLIC "-//W3C//DTD SVG 1.1//EN"
 "http://www.w3.org/Graphics/SVG/1.1/DTD/svg11.dtd">
<!-- Generated by graphviz version 2.40.1 (20161225.0304)
 -->
<!-- Title: genfit::RaveToGFVertices Pages: 1 -->
<svg width="1252pt" height="339pt"
 viewBox="0.00 0.00 1252.00 339.00" xmlns="http://www.w3.org/2000/svg" xmlns:xlink="http://www.w3.org/1999/xlink">
<g id="graph0" class="graph" transform="scale(1 1) rotate(0) translate(4 335)">
<title>genfit::RaveToGFVertices</title>
<!-- Node1 -->
<g id="node1" class="node">
<title>Node1</title>
<polygon fill="#bfbfbf" stroke="#000000" points="0,-104.5 0,-124.5 142,-124.5 142,-104.5 0,-104.5"/>
<text text-anchor="middle" x="71" y="-111.5" font-family="FreeSans" font-size="10.00" fill="#000000">genfit::RaveToGFVertices</text>
</g>
<!-- Node2 -->
<g id="node2" class="node">
<title>Node2</title>
<g id="a_node2"><a xlink:href="../../d1/d19/classgenfit_1_1GFRaveVertexFactory.html#a12b2a1abd879414950206ffac162b88e" target="_top" xlink:title="genfit::GFRaveVertexFactory\l::findVertices">
<polygon fill="none" stroke="#000000" points="178,-124.5 178,-156.5 338,-156.5 338,-124.5 178,-124.5"/>
<text text-anchor="start" x="186" y="-143.5" font-family="FreeSans" font-size="10.00" fill="#000000">genfit::GFRaveVertexFactory</text>
<text text-anchor="middle" x="258" y="-131.5" font-family="FreeSans" font-size="10.00" fill="#000000">::findVertices</text>
</a>
</g>
</g>
<!-- Node1&#45;&gt;Node2 -->
<g id="edge1" class="edge">
<title>Node1&#45;&gt;Node2</title>
<path fill="none" stroke="#191970" d="M152.1701,-125.7857C160.7069,-126.9726 169.3833,-128.179 177.9079,-129.3642"/>
<polygon fill="#191970" stroke="#191970" points="152.6169,-122.3142 142.2301,-124.4037 151.6528,-129.2475 152.6169,-122.3142"/>
</g>
<!-- Node19 -->
<g id="node19" class="node">
<title>Node19</title>
<g id="a_node19"><a xlink:href="../../d1/d4c/classPHRaveVertexFactory.html#a6d62bbce22f239777cc3b51fb4b0455b" target="_top" xlink:title="PHRaveVertexFactory\l::findVertices">
<polygon fill="none" stroke="#000000" points="196,-73.5 196,-105.5 320,-105.5 320,-73.5 196,-73.5"/>
<text text-anchor="start" x="204" y="-92.5" font-family="FreeSans" font-size="10.00" fill="#000000">PHRaveVertexFactory</text>
<text text-anchor="middle" x="258" y="-80.5" font-family="FreeSans" font-size="10.00" fill="#000000">::findVertices</text>
</a>
</g>
</g>
<!-- Node1&#45;&gt;Node19 -->
<g id="edge19" class="edge">
<title>Node1&#45;&gt;Node19</title>
<path fill="none" stroke="#191970" d="M152.2588,-103.6365C166.864,-101.684 181.8748,-99.6772 195.8322,-97.8112"/>
<polygon fill="#191970" stroke="#191970" points="151.6781,-100.1829 142.2301,-104.9773 152.6058,-107.1212 151.6781,-100.1829"/>
</g>
<!-- Node3 -->
<g id="node3" class="node">
<title>Node3</title>
<g id="a_node3"><a xlink:href="../../d1/d04/classBDiJetModule.html#a8f01ada101f7e91cf05e12bbf420d192" target="_top" xlink:title="BDiJetModule::process\l_event">
<polygon fill="none" stroke="#000000" points="392.5,-231.5 392.5,-263.5 521.5,-263.5 521.5,-231.5 392.5,-231.5"/>
<text text-anchor="start" x="400.5" y="-250.5" font-family="FreeSans" font-size="10.00" fill="#000000">BDiJetModule::process</text>
<text text-anchor="middle" x="457" y="-238.5" font-family="FreeSans" font-size="10.00" fill="#000000">_event</text>
</a>
</g>
</g>
<!-- Node2&#45;&gt;Node3 -->
<g id="edge2" class="edge">
<title>Node2&#45;&gt;Node3</title>
<path fill="none" stroke="#191970" d="M284.6669,-163.1526C307.2173,-181.3406 341.0334,-206.4144 374,-222.5 380.7625,-225.7997 388.0496,-228.7641 395.3984,-231.3983"/>
<polygon fill="#191970" stroke="#191970" points="286.8475,-160.4146 276.891,-156.7927 282.4158,-165.8331 286.8475,-160.4146"/>
</g>
<!-- Node4 -->
<g id="node4" class="node">
<title>Node4</title>
<g id="a_node4"><a xlink:href="../../d6/d17/classSVReco.html#aa7be1346727f584c539cf568a7d36999" target="_top" xlink:title="SVReco::findSecondaryVertex">
<polygon fill="none" stroke="#000000" points="374,-192.5 374,-212.5 540,-212.5 540,-192.5 374,-192.5"/>
<text text-anchor="middle" x="457" y="-199.5" font-family="FreeSans" font-size="10.00" fill="#000000">SVReco::findSecondaryVertex</text>
</a>
</g>
</g>
<!-- Node2&#45;&gt;Node4 -->
<g id="edge3" class="edge">
<title>Node2&#45;&gt;Node4</title>
<path fill="none" stroke="#191970" d="M306.7569,-160.1789C327.3083,-168.0526 351.6132,-176.8192 374,-183.5 385.0488,-186.7973 397.07,-189.8491 408.4453,-192.499"/>
<polygon fill="#191970" stroke="#191970" points="307.8868,-156.8632 297.2976,-156.5169 305.3596,-163.3911 307.8868,-156.8632"/>
</g>
<!-- Node15 -->
<g id="node15" class="node">
<title>Node15</title>
<g id="a_node15"><a xlink:href="../../de/dab/GenFit_2blob_2master_2test_2vertexingTest_2main_8cc.html#ae66f6b31b5ad750f1fe042a706a4e3d4" target="_top" xlink:title="main">
<polygon fill="none" stroke="#000000" points="436.5,-153.5 436.5,-173.5 477.5,-173.5 477.5,-153.5 436.5,-153.5"/>
<text text-anchor="middle" x="457" y="-160.5" font-family="FreeSans" font-size="10.00" fill="#000000">main</text>
</a>
</g>
</g>
<!-- Node2&#45;&gt;Node15 -->
<g id="edge15" class="edge">
<title>Node2&#45;&gt;Node15</title>
<path fill="none" stroke="#191970" d="M348.1799,-150.9228C380.9134,-154.7061 415.0042,-158.6462 436.114,-161.086"/>
<polygon fill="#191970" stroke="#191970" points="348.4165,-147.4269 338.0807,-149.7556 347.6127,-154.3806 348.4165,-147.4269"/>
</g>
<!-- Node16 -->
<g id="node16" class="node">
<title>Node16</title>
<g id="a_node16"><a xlink:href="../../de/d25/classPHGenFitTrkFitter.html#a2e088a68ab24c5b89b902205f877f9d6" target="_top" xlink:title="Process Event, called for each event.">
<polygon fill="none" stroke="#000000" points="402.5,-102.5 402.5,-134.5 511.5,-134.5 511.5,-102.5 402.5,-102.5"/>
<text text-anchor="start" x="410.5" y="-121.5" font-family="FreeSans" font-size="10.00" fill="#000000">PHGenFitTrkFitter::</text>
<text text-anchor="middle" x="457" y="-109.5" font-family="FreeSans" font-size="10.00" fill="#000000">process_event</text>
</a>
</g>
</g>
<!-- Node2&#45;&gt;Node16 -->
<g id="edge16" class="edge">
<title>Node2&#45;&gt;Node16</title>
<path fill="none" stroke="#191970" d="M348.026,-130.5474C366.5794,-128.4962 385.5762,-126.3961 402.4044,-124.5357"/>
<polygon fill="#191970" stroke="#191970" points="347.6355,-127.0691 338.0807,-131.6469 348.4048,-134.0267 347.6355,-127.0691"/>
</g>
<!-- Node17 -->
<g id="node17" class="node">
<title>Node17</title>
<g id="a_node17"><a xlink:href="../../d5/daa/classPHRaveVertexing.html#afefcb6ce27ac34016e62172d8519fae8" target="_top" xlink:title="Process Event, called for each event.">
<polygon fill="none" stroke="#000000" points="382.5,-51.5 382.5,-83.5 531.5,-83.5 531.5,-51.5 382.5,-51.5"/>
<text text-anchor="start" x="390.5" y="-70.5" font-family="FreeSans" font-size="10.00" fill="#000000">PHRaveVertexing::process</text>
<text text-anchor="middle" x="457" y="-58.5" font-family="FreeSans" font-size="10.00" fill="#000000">_event</text>
</a>
</g>
</g>
<!-- Node2&#45;&gt;Node17 -->
<g id="edge17" class="edge">
<title>Node2&#45;&gt;Node17</title>
<path fill="none" stroke="#191970" d="M322.7463,-120.9123C327.9657,-118.8943 333.1081,-116.7517 338,-114.5 355.0332,-106.6595 356.8828,-100.1555 374,-92.5 381.2811,-89.2436 389.1048,-86.264 396.9345,-83.5862"/>
<polygon fill="#191970" stroke="#191970" points="321.4689,-117.653 313.306,-124.407 323.8991,-124.2176 321.4689,-117.653"/>
</g>
<!-- Node18 -->
<g id="node18" class="node">
<title>Node18</title>
<g id="a_node18"><a xlink:href="../../d9/d91/classPHG4TrackFastSim.html#a8bb22ab279c5f433069774bd2ab0a7ae" target="_top" xlink:title="Process Event, called for each event.">
<polygon fill="none" stroke="#000000" points="379,-.5 379,-32.5 535,-32.5 535,-.5 379,-.5"/>
<text text-anchor="start" x="387" y="-19.5" font-family="FreeSans" font-size="10.00" fill="#000000">PHG4TrackFastSim::process</text>
<text text-anchor="middle" x="457" y="-7.5" font-family="FreeSans" font-size="10.00" fill="#000000">_event</text>
</a>
</g>
</g>
<!-- Node2&#45;&gt;Node18 -->
<g id="edge18" class="edge">
<title>Node2&#45;&gt;Node18</title>
<path fill="none" stroke="#191970" d="M331.8979,-119.203C334.0255,-117.7379 336.0676,-116.1725 338,-114.5 365.3526,-90.8256 346.3925,-64.8766 374,-41.5 378.0197,-38.0963 382.4918,-35.156 387.2173,-32.616"/>
<polygon fill="#191970" stroke="#191970" points="330.078,-116.2132 323.3176,-124.3708 333.6896,-122.2096 330.078,-116.2132"/>
</g>
<!-- Node5 -->
<g id="node5" class="node">
<title>Node5</title>
<g id="a_node5"><a xlink:href="../../dc/d41/classConversion.html#a742c2005596c3cef8a453afe94e183fb" target="_top" xlink:title="Conversion::getSecondary\lVertex">
<polygon fill="none" stroke="#000000" points="580.5,-298.5 580.5,-330.5 730.5,-330.5 730.5,-298.5 580.5,-298.5"/>
<text text-anchor="start" x="588.5" y="-317.5" font-family="FreeSans" font-size="10.00" fill="#000000">Conversion::getSecondary</text>
<text text-anchor="middle" x="655.5" y="-305.5" font-family="FreeSans" font-size="10.00" fill="#000000">Vertex</text>
</a>
</g>
</g>
<!-- Node4&#45;&gt;Node5 -->
<g id="edge4" class="edge">
<title>Node4&#45;&gt;Node5</title>
<path fill="none" stroke="#191970" d="M531.5989,-216.9794C534.5419,-218.6294 537.3595,-220.4629 540,-222.5 566.7649,-243.1483 549.9548,-267.9509 576,-289.5 580.1246,-292.9126 584.7176,-295.8609 589.5575,-298.408"/>
<polygon fill="#191970" stroke="#191970" points="532.9721,-213.7559 522.4449,-212.5601 529.9287,-220.0597 532.9721,-213.7559"/>
</g>
<!-- Node10 -->
<g id="node10" class="node">
<title>Node10</title>
<g id="a_node10"><a xlink:href="../../d2/d6d/classVtxTest.html#a498a6a45263014eedafcfdb48f591799" target="_top" xlink:title="VtxTest::numUnique">
<polygon fill="none" stroke="#000000" points="596,-259.5 596,-279.5 715,-279.5 715,-259.5 596,-259.5"/>
<text text-anchor="middle" x="655.5" y="-266.5" font-family="FreeSans" font-size="10.00" fill="#000000">VtxTest::numUnique</text>
</a>
</g>
</g>
<!-- Node4&#45;&gt;Node10 -->
<g id="edge9" class="edge">
<title>Node4&#45;&gt;Node10</title>
<path fill="none" stroke="#191970" d="M522.9886,-215.641C528.8568,-217.6307 534.6102,-219.9047 540,-222.5 558.2629,-231.2938 557.7289,-241.7232 576,-250.5 583.4191,-254.0639 591.5571,-256.9881 599.7076,-259.3797"/>
<polygon fill="#191970" stroke="#191970" points="523.6363,-212.1774 513.0482,-212.5547 521.5606,-218.8625 523.6363,-212.1774"/>
</g>
<!-- Node11 -->
<g id="node11" class="node">
<title>Node11</title>
<g id="a_node11"><a xlink:href="../../df/d9b/classRecoConversionEval.html#a54bb2ea55f01b0d0dc8752fbee1bc237" target="_top" xlink:title="RecoConversionEval\l::process_event">
<polygon fill="none" stroke="#000000" points="596,-208.5 596,-240.5 715,-240.5 715,-208.5 596,-208.5"/>
<text text-anchor="start" x="604" y="-227.5" font-family="FreeSans" font-size="10.00" fill="#000000">RecoConversionEval</text>
<text text-anchor="middle" x="655.5" y="-215.5" font-family="FreeSans" font-size="10.00" fill="#000000">::process_event</text>
</a>
</g>
</g>
<!-- Node4&#45;&gt;Node11 -->
<g id="edge10" class="edge">
<title>Node4&#45;&gt;Node11</title>
<path fill="none" stroke="#191970" d="M550.1716,-212.8263C565.6696,-214.544 581.366,-216.2836 595.7416,-217.8769"/>
<polygon fill="#191970" stroke="#191970" points="550.3565,-209.3255 540.0317,-211.7025 549.5853,-216.2829 550.3565,-209.3255"/>
</g>
<!-- Node12 -->
<g id="node12" class="node">
<title>Node12</title>
<g id="a_node12"><a xlink:href="../../d2/d6d/classVtxTest.html#ad1a3b9d5e730a3ba75f13a084e21bee5" target="_top" xlink:title="VtxTest::process_event">
<polygon fill="none" stroke="#000000" points="588.5,-169.5 588.5,-189.5 722.5,-189.5 722.5,-169.5 588.5,-169.5"/>
<text text-anchor="middle" x="655.5" y="-176.5" font-family="FreeSans" font-size="10.00" fill="#000000">VtxTest::process_event</text>
</a>
</g>
</g>
<!-- Node4&#45;&gt;Node12 -->
<g id="edge11" class="edge">
<title>Node4&#45;&gt;Node12</title>
<path fill="none" stroke="#191970" d="M550.3125,-191.688C563.1882,-190.1961 576.1977,-188.6887 588.4699,-187.2667"/>
<polygon fill="#191970" stroke="#191970" points="549.5624,-188.2514 540.0317,-192.8792 550.3681,-195.2049 549.5624,-188.2514"/>
</g>
<!-- Node13 -->
<g id="node13" class="node">
<title>Node13</title>
<g id="a_node13"><a xlink:href="../../d2/d6d/classVtxTest.html#a81d0df5367d70c50b5ac10e120aac103" target="_top" xlink:title="VtxTest::processBackground">
<polygon fill="none" stroke="#000000" points="576,-130.5 576,-150.5 735,-150.5 735,-130.5 576,-130.5"/>
<text text-anchor="middle" x="655.5" y="-137.5" font-family="FreeSans" font-size="10.00" fill="#000000">VtxTest::processBackground</text>
</a>
</g>
</g>
<!-- Node4&#45;&gt;Node13 -->
<g id="edge12" class="edge">
<title>Node4&#45;&gt;Node13</title>
<path fill="none" stroke="#191970" d="M523.0303,-189.5888C528.8519,-187.7913 534.5847,-185.769 540,-183.5 557.5116,-176.1626 558.568,-168.0246 576,-160.5 585.1467,-156.5518 595.2354,-153.2674 605.067,-150.579"/>
<polygon fill="#191970" stroke="#191970" points="521.8405,-186.2888 513.1898,-192.4056 523.7669,-193.0185 521.8405,-186.2888"/>
</g>
<!-- Node14 -->
<g id="node14" class="node">
<title>Node14</title>
<g id="a_node14"><a xlink:href="../../d9/d3a/classTruthConversionEval.html#a67e322163113e6ef65c9661d0fc80487" target="_top" xlink:title="fills the member fields for all the background trees">
<polygon fill="none" stroke="#000000" points="939,-166.5 939,-198.5 1087,-198.5 1087,-166.5 939,-166.5"/>
<text text-anchor="start" x="947" y="-185.5" font-family="FreeSans" font-size="10.00" fill="#000000">TruthConversionEval</text>
<text text-anchor="middle" x="1013" y="-173.5" font-family="FreeSans" font-size="10.00" fill="#000000">::processTrackBackground</text>
</a>
</g>
</g>
<!-- Node4&#45;&gt;Node14 -->
<g id="edge13" class="edge">
<title>Node4&#45;&gt;Node14</title>
<path fill="none" stroke="#191970" d="M533.3101,-187.8658C535.632,-186.5319 537.8705,-185.08 540,-183.5 565.8987,-164.2839 548.1075,-136.6867 576,-120.5 711.5348,-41.8461 909.3928,-128.4179 983.5146,-166.4327"/>
<polygon fill="#191970" stroke="#191970" points="531.4239,-184.8931 523.9957,-192.4478 534.5138,-191.1742 531.4239,-184.8931"/>
</g>
<!-- Node6 -->
<g id="node6" class="node">
<title>Node6</title>
<g id="a_node6"><a xlink:href="../../d9/d3a/classTruthConversionEval.html#a30309a3143d74dac7ff1f62cf275a5ac" target="_top" xlink:title="TruthConversionEval\l::recordConversion">
<polygon fill="none" stroke="#000000" points="776.5,-298.5 776.5,-330.5 897.5,-330.5 897.5,-298.5 776.5,-298.5"/>
<text text-anchor="start" x="784.5" y="-317.5" font-family="FreeSans" font-size="10.00" fill="#000000">TruthConversionEval</text>
<text text-anchor="middle" x="837" y="-305.5" font-family="FreeSans" font-size="10.00" fill="#000000">::recordConversion</text>
</a>
</g>
</g>
<!-- Node5&#45;&gt;Node6 -->
<g id="edge5" class="edge">
<title>Node5&#45;&gt;Node6</title>
<path fill="none" stroke="#191970" d="M740.6851,-314.5C752.7105,-314.5 764.8667,-314.5 776.3049,-314.5"/>
<polygon fill="#191970" stroke="#191970" points="740.6332,-311.0001 730.6332,-314.5 740.6331,-318.0001 740.6332,-311.0001"/>
</g>
<!-- Node9 -->
<g id="node9" class="node">
<title>Node9</title>
<g id="a_node9"><a xlink:href="../../dc/d41/classConversion.html#a5a8976da958375a2e66f9c35017fb7be" target="_top" xlink:title="Uses recoVertex and.">
<polygon fill="none" stroke="#000000" points="771,-259.5 771,-279.5 903,-279.5 903,-259.5 771,-259.5"/>
<text text-anchor="middle" x="837" y="-266.5" font-family="FreeSans" font-size="10.00" fill="#000000">Conversion::refitTracks</text>
</a>
</g>
</g>
<!-- Node5&#45;&gt;Node9 -->
<g id="edge8" class="edge">
<title>Node5&#45;&gt;Node9</title>
<path fill="none" stroke="#191970" d="M730.2287,-295.9722C752.9382,-290.3418 777.0301,-284.3686 796.5704,-279.5239"/>
<polygon fill="#191970" stroke="#191970" points="729.1208,-292.6409 720.257,-298.4445 730.8054,-299.4351 729.1208,-292.6409"/>
</g>
<!-- Node7 -->
<g id="node7" class="node">
<title>Node7</title>
<g id="a_node7"><a xlink:href="../../d9/d3a/classTruthConversionEval.html#a802d15f00a153397546daabb7dbabbd2" target="_top" xlink:title="TruthConversionEval\l::numUnique">
<polygon fill="none" stroke="#000000" points="952.5,-257.5 952.5,-289.5 1073.5,-289.5 1073.5,-257.5 952.5,-257.5"/>
<text text-anchor="start" x="960.5" y="-276.5" font-family="FreeSans" font-size="10.00" fill="#000000">TruthConversionEval</text>
<text text-anchor="middle" x="1013" y="-264.5" font-family="FreeSans" font-size="10.00" fill="#000000">::numUnique</text>
</a>
</g>
</g>
<!-- Node6&#45;&gt;Node7 -->
<g id="edge6" class="edge">
<title>Node6&#45;&gt;Node7</title>
<path fill="none" stroke="#191970" d="M907.677,-298.0355C922.4651,-294.5905 937.9328,-290.9872 952.3191,-287.6359"/>
<polygon fill="#191970" stroke="#191970" points="906.5143,-294.7125 897.5692,-300.3901 908.1026,-301.53 906.5143,-294.7125"/>
</g>
<!-- Node8 -->
<g id="node8" class="node">
<title>Node8</title>
<g id="a_node8"><a xlink:href="../../d9/d3a/classTruthConversionEval.html#a9a67c8171296f35dd157daf89108d3fd" target="_top" xlink:title="TruthConversionEval\l::process_event">
<polygon fill="none" stroke="#000000" points="1123,-191.5 1123,-223.5 1244,-223.5 1244,-191.5 1123,-191.5"/>
<text text-anchor="start" x="1131" y="-210.5" font-family="FreeSans" font-size="10.00" fill="#000000">TruthConversionEval</text>
<text text-anchor="middle" x="1183.5" y="-198.5" font-family="FreeSans" font-size="10.00" fill="#000000">::process_event</text>
</a>
</g>
</g>
<!-- Node7&#45;&gt;Node8 -->
<g id="edge7" class="edge">
<title>Node7&#45;&gt;Node8</title>
<path fill="none" stroke="#191970" d="M1064.3242,-253.6326C1089.1395,-244.0267 1118.5376,-232.6467 1141.9265,-223.593"/>
<polygon fill="#191970" stroke="#191970" points="1062.7712,-250.4806 1054.709,-257.3546 1065.2982,-257.0086 1062.7712,-250.4806"/>
</g>
<!-- Node14&#45;&gt;Node8 -->
<g id="edge14" class="edge">
<title>Node14&#45;&gt;Node8</title>
<path fill="none" stroke="#191970" d="M1097.3298,-194.8651C1105.9066,-196.1227 1114.4959,-197.3821 1122.7503,-198.5924"/>
<polygon fill="#191970" stroke="#191970" points="1097.6898,-191.3805 1087.2878,-193.3926 1096.6742,-198.3065 1097.6898,-191.3805"/>
</g>
</g>
</svg>
