<?xml version="1.0" encoding="UTF-8" standalone="no"?>
<!DOCTYPE svg PUBLIC "-//W3C//DTD SVG 1.1//EN"
 "http://www.w3.org/Graphics/SVG/1.1/DTD/svg11.dtd">
<!-- Generated by graphviz version 2.40.1 (20161225.0304)
 -->
<!-- Title: genfit::MeanExcEnergy_get Pages: 1 -->
<svg width="364pt" height="80pt"
 viewBox="0.00 0.00 364.00 80.00" xmlns="http://www.w3.org/2000/svg" xmlns:xlink="http://www.w3.org/1999/xlink">
<g id="graph0" class="graph" transform="scale(1 1) rotate(0) translate(4 76)">
<title>genfit::MeanExcEnergy_get</title>
<!-- Node1 -->
<g id="node1" class="node">
<title>Node1</title>
<polygon fill="#bfbfbf" stroke="#000000" points="0,-22.5 0,-42.5 155,-42.5 155,-22.5 0,-22.5"/>
<text text-anchor="middle" x="77.5" y="-29.5" font-family="FreeSans" font-size="10.00" fill="#000000">genfit::MeanExcEnergy_get</text>
</g>
<!-- Node2 -->
<g id="node2" class="node">
<title>Node2</title>
<g id="a_node2"><a xlink:href="../../de/db6/classgenfit_1_1TGeoMaterialInterface.html#a908cc37e68b118e8c3aa529178f1b096" target="_top" xlink:title="genfit::TGeoMaterialInterface\l::getMaterialParameters">
<polygon fill="none" stroke="#000000" points="191,-39.5 191,-71.5 356,-71.5 356,-39.5 191,-39.5"/>
<text text-anchor="start" x="199" y="-58.5" font-family="FreeSans" font-size="10.00" fill="#000000">genfit::TGeoMaterialInterface</text>
<text text-anchor="middle" x="273.5" y="-46.5" font-family="FreeSans" font-size="10.00" fill="#000000">::getMaterialParameters</text>
</a>
</g>
</g>
<!-- Node1&#45;&gt;Node2 -->
<g id="edge1" class="edge">
<title>Node1&#45;&gt;Node2</title>
<path fill="none" stroke="#191970" d="M165.4317,-42.8185C173.8366,-43.8048 182.3414,-44.8028 190.6952,-45.7831"/>
<polygon fill="#191970" stroke="#191970" points="165.5857,-39.3127 155.2459,-41.6232 164.7698,-46.265 165.5857,-39.3127"/>
</g>
<!-- Node3 -->
<g id="node3" class="node">
<title>Node3</title>
<g id="a_node3"><a xlink:href="../../dc/d22/namespacegenfit.html#a62bcf13ef3a2d929c2f2b09a265c0a42" target="_top" xlink:title="genfit::MeanExcEnergy_get">
<polygon fill="none" stroke="#000000" points="196,-.5 196,-20.5 351,-20.5 351,-.5 196,-.5"/>
<text text-anchor="middle" x="273.5" y="-7.5" font-family="FreeSans" font-size="10.00" fill="#000000">genfit::MeanExcEnergy_get</text>
</a>
</g>
</g>
<!-- Node1&#45;&gt;Node3 -->
<g id="edge2" class="edge">
<title>Node1&#45;&gt;Node3</title>
<path fill="none" stroke="#191970" d="M165.3478,-22.6395C175.5153,-21.4983 185.8301,-20.3405 195.8481,-19.216"/>
<polygon fill="#191970" stroke="#191970" points="164.7931,-19.1797 155.2459,-23.7734 165.5739,-26.136 164.7931,-19.1797"/>
</g>
</g>
</svg>
