<?xml version="1.0" encoding="UTF-8" standalone="no"?>
<!DOCTYPE svg PUBLIC "-//W3C//DTD SVG 1.1//EN"
 "http://www.w3.org/Graphics/SVG/1.1/DTD/svg11.dtd">
<!-- Generated by graphviz version 2.40.1 (20161225.0304)
 -->
<!-- Title: KFParticlePVReconstructor::GetPrimVertex Pages: 1 -->
<svg width="550pt" height="92pt"
 viewBox="0.00 0.00 550.00 92.00" xmlns="http://www.w3.org/2000/svg" xmlns:xlink="http://www.w3.org/1999/xlink">
<g id="graph0" class="graph" transform="scale(1 1) rotate(0) translate(4 88)">
<title>KFParticlePVReconstructor::GetPrimVertex</title>
<!-- Node1 -->
<g id="node1" class="node">
<title>Node1</title>
<polygon fill="#bfbfbf" stroke="#000000" points="0,-25.5 0,-57.5 150,-57.5 150,-25.5 0,-25.5"/>
<text text-anchor="start" x="8" y="-44.5" font-family="FreeSans" font-size="10.00" fill="#000000">KFParticlePVReconstructor</text>
<text text-anchor="middle" x="75" y="-32.5" font-family="FreeSans" font-size="10.00" fill="#000000">::GetPrimVertex</text>
</g>
<!-- Node2 -->
<g id="node2" class="node">
<title>Node2</title>
<g id="a_node2"><a xlink:href="../../db/d6d/classKFParticleTopoReconstructor.html#a0e776d559d48e57679c69fa248d3092c" target="_top" xlink:title="Return primary vertex candidate with index &quot;iPV&quot;.">
<polygon fill="none" stroke="#000000" points="186,-25.5 186,-57.5 346,-57.5 346,-25.5 186,-25.5"/>
<text text-anchor="start" x="194" y="-44.5" font-family="FreeSans" font-size="10.00" fill="#000000">KFParticleTopoReconstructor</text>
<text text-anchor="middle" x="266" y="-32.5" font-family="FreeSans" font-size="10.00" fill="#000000">::GetPrimVertex</text>
</a>
</g>
</g>
<!-- Node1&#45;&gt;Node2 -->
<g id="edge1" class="edge">
<title>Node1&#45;&gt;Node2</title>
<path fill="none" stroke="#191970" d="M160.4418,-41.5C168.8846,-41.5 177.4334,-41.5 185.8204,-41.5"/>
<polygon fill="#191970" stroke="#191970" points="160.2141,-38.0001 150.2141,-41.5 160.214,-45.0001 160.2141,-38.0001"/>
</g>
<!-- Node3 -->
<g id="node3" class="node">
<title>Node3</title>
<g id="a_node3"><a xlink:href="../../db/d6d/classKFParticleTopoReconstructor.html#a4f287575a545bea1c34d538c8ed53cde" target="_top" xlink:title="KFParticleTopoReconstructor\l::ReconstructPrimVertex">
<polygon fill="none" stroke="#000000" points="382,-51.5 382,-83.5 542,-83.5 542,-51.5 382,-51.5"/>
<text text-anchor="start" x="390" y="-70.5" font-family="FreeSans" font-size="10.00" fill="#000000">KFParticleTopoReconstructor</text>
<text text-anchor="middle" x="462" y="-58.5" font-family="FreeSans" font-size="10.00" fill="#000000">::ReconstructPrimVertex</text>
</a>
</g>
</g>
<!-- Node2&#45;&gt;Node3 -->
<g id="edge2" class="edge">
<title>Node2&#45;&gt;Node3</title>
<path fill="none" stroke="#191970" d="M356.0766,-53.4489C364.7035,-54.5933 373.4128,-55.7486 381.9347,-56.8791"/>
<polygon fill="#191970" stroke="#191970" points="356.3768,-49.9582 346.0034,-52.1127 355.4563,-56.8974 356.3768,-49.9582"/>
</g>
<!-- Node4 -->
<g id="node4" class="node">
<title>Node4</title>
<g id="a_node4"><a xlink:href="../../db/d6d/classKFParticleTopoReconstructor.html#ab6e474eb923fc715a9bfba891436de48" target="_top" xlink:title="KFParticleTopoReconstructor\l::SelectParticleCandidates">
<polygon fill="none" stroke="#000000" points="382,-.5 382,-32.5 542,-32.5 542,-.5 382,-.5"/>
<text text-anchor="start" x="390" y="-19.5" font-family="FreeSans" font-size="10.00" fill="#000000">KFParticleTopoReconstructor</text>
<text text-anchor="middle" x="462" y="-7.5" font-family="FreeSans" font-size="10.00" fill="#000000">::SelectParticleCandidates</text>
</a>
</g>
</g>
<!-- Node2&#45;&gt;Node4 -->
<g id="edge3" class="edge">
<title>Node2&#45;&gt;Node4</title>
<path fill="none" stroke="#191970" d="M356.0766,-30.0106C364.7035,-28.9103 373.4128,-27.7994 381.9347,-26.7124"/>
<polygon fill="#191970" stroke="#191970" points="355.4802,-26.5583 346.0034,-31.2955 356.3659,-33.502 355.4802,-26.5583"/>
</g>
</g>
</svg>
