<?xml version="1.0" encoding="UTF-8" standalone="no"?>
<!DOCTYPE svg PUBLIC "-//W3C//DTD SVG 1.1//EN"
 "http://www.w3.org/Graphics/SVG/1.1/DTD/svg11.dtd">
<!-- Generated by graphviz version 2.40.1 (20161225.0304)
 -->
<!-- Title: GenFit/blob/master/GBL/src/GblFitter.cc Pages: 1 -->
<svg width="2154pt" height="611pt"
 viewBox="0.00 0.00 2154.00 611.00" xmlns="http://www.w3.org/2000/svg" xmlns:xlink="http://www.w3.org/1999/xlink">
<g id="graph0" class="graph" transform="scale(1 1) rotate(0) translate(4 607)">
<title>GenFit/blob/master/GBL/src/GblFitter.cc</title>
<!-- Node1 -->
<g id="node1" class="node">
<title>Node1</title>
<polygon fill="#bfbfbf" stroke="#000000" points="1467,-570.5 1467,-602.5 1585,-602.5 1585,-570.5 1467,-570.5"/>
<text text-anchor="start" x="1475" y="-589.5" font-family="FreeSans" font-size="10.00" fill="#000000">GenFit/blob/master</text>
<text text-anchor="middle" x="1526" y="-577.5" font-family="FreeSans" font-size="10.00" fill="#000000">/GBL/src/GblFitter.cc</text>
</g>
<!-- Node2 -->
<g id="node2" class="node">
<title>Node2</title>
<g id="a_node2"><a xlink:href="../../d6/da3/GblFitter_8h.html" target="_top" xlink:title="GblFitter.h">
<polygon fill="none" stroke="#000000" points="583,-513.5 583,-533.5 651,-533.5 651,-513.5 583,-513.5"/>
<text text-anchor="middle" x="617" y="-520.5" font-family="FreeSans" font-size="10.00" fill="#000000">GblFitter.h</text>
</a>
</g>
</g>
<!-- Node1&#45;&gt;Node2 -->
<g id="edge1" class="edge">
<title>Node1&#45;&gt;Node2</title>
<path fill="none" stroke="#191970" d="M1466.7086,-582.3907C1296.9416,-570.6247 811.5866,-536.9862 661.6646,-526.5956"/>
<polygon fill="#191970" stroke="#191970" points="661.6769,-523.0881 651.4588,-525.8882 661.1929,-530.0714 661.6769,-523.0881"/>
</g>
<!-- Node3 -->
<g id="node3" class="node">
<title>Node3</title>
<g id="a_node3"><a xlink:href="../../d6/db0/GblTrajectory_8h.html" target="_top" xlink:title="GblTrajectory.h">
<polygon fill="none" stroke="#000000" points="1237.5,-342.5 1237.5,-362.5 1328.5,-362.5 1328.5,-342.5 1237.5,-342.5"/>
<text text-anchor="middle" x="1283" y="-349.5" font-family="FreeSans" font-size="10.00" fill="#000000">GblTrajectory.h</text>
</a>
</g>
</g>
<!-- Node1&#45;&gt;Node3 -->
<g id="edge104" class="edge">
<title>Node1&#45;&gt;Node3</title>
<path fill="none" stroke="#191970" d="M1492.4748,-570.419C1476.1209,-561.381 1457.0081,-548.9132 1443,-534 1396.155,-484.1279 1417.5211,-447.243 1369,-399 1355.1149,-385.1945 1336.2805,-374.3888 1319.7768,-366.6827"/>
<polygon fill="#191970" stroke="#191970" points="1320.9433,-363.371 1310.384,-362.5044 1318.0982,-369.7668 1320.9433,-363.371"/>
</g>
<!-- Node4 -->
<g id="node4" class="node">
<title>Node4</title>
<g id="a_node4"><a xlink:href="../../d9/d62/GblPoint_8h.html" target="_top" xlink:title="GblPoint.h">
<polygon fill="none" stroke="#000000" points="1504,-285.5 1504,-305.5 1572,-305.5 1572,-285.5 1504,-285.5"/>
<text text-anchor="middle" x="1538" y="-292.5" font-family="FreeSans" font-size="10.00" fill="#000000">GblPoint.h</text>
</a>
</g>
</g>
<!-- Node1&#45;&gt;Node4 -->
<g id="edge105" class="edge">
<title>Node1&#45;&gt;Node4</title>
<path fill="none" stroke="#191970" d="M1512.3619,-570.1809C1505.0659,-560.3661 1496.8159,-547.2411 1493,-534 1469.9806,-454.1227 1509.1643,-355.719 1528.3504,-314.7796"/>
<polygon fill="#191970" stroke="#191970" points="1531.559,-316.1836 1532.7474,-305.6557 1525.253,-313.1447 1531.559,-316.1836"/>
</g>
<!-- Node10 -->
<g id="node10" class="node">
<title>Node10</title>
<polygon fill="none" stroke="#bfbfbf" points="552,-.5 552,-20.5 624,-20.5 624,-.5 552,-.5"/>
<text text-anchor="middle" x="588" y="-7.5" font-family="FreeSans" font-size="10.00" fill="#000000">TMatrixD.h</text>
</g>
<!-- Node1&#45;&gt;Node10 -->
<g id="edge121" class="edge">
<title>Node1&#45;&gt;Node10</title>
<path fill="none" stroke="#191970" d="M1466.9095,-584.7585C1194.8463,-576.3596 76,-537.5034 76,-466.5 76,-466.5 76,-466.5 76,-124.5 76,-67.5187 131.1801,-75.716 185,-57 249.9341,-34.419 450.1998,-19.236 541.6256,-13.2998"/>
<polygon fill="#191970" stroke="#191970" points="541.9414,-16.7868 551.6972,-12.6548 541.4939,-9.8012 541.9414,-16.7868"/>
</g>
<!-- Node13 -->
<g id="node13" class="node">
<title>Node13</title>
<polygon fill="none" stroke="#bfbfbf" points="1606,-228.5 1606,-248.5 1698,-248.5 1698,-228.5 1606,-228.5"/>
<text text-anchor="middle" x="1652" y="-235.5" font-family="FreeSans" font-size="10.00" fill="#000000">Math/SMatrix.h</text>
</g>
<!-- Node1&#45;&gt;Node13 -->
<g id="edge120" class="edge">
<title>Node1&#45;&gt;Node13</title>
<path fill="none" stroke="#191970" d="M1529.6075,-570.2835C1533.0817,-555.2843 1538.7228,-532.4405 1545,-513 1576.4282,-415.6665 1624.0447,-302.9037 1643.383,-258.2052"/>
<polygon fill="#191970" stroke="#191970" points="1646.6901,-259.3767 1647.4658,-248.8103 1640.2701,-256.5867 1646.6901,-259.3767"/>
</g>
<!-- Node20 -->
<g id="node20" class="node">
<title>Node20</title>
<polygon fill="none" stroke="#bfbfbf" points="40.5,-.5 40.5,-20.5 111.5,-20.5 111.5,-.5 40.5,-.5"/>
<text text-anchor="middle" x="76" y="-7.5" font-family="FreeSans" font-size="10.00" fill="#000000">TVector3.h</text>
</g>
<!-- Node1&#45;&gt;Node20 -->
<g id="edge124" class="edge">
<title>Node1&#45;&gt;Node20</title>
<path fill="none" stroke="#191970" d="M1466.6399,-585.7894C1248.4005,-582.9068 490.803,-570.4457 252,-534 137.3789,-516.5067 0,-582.4483 0,-466.5 0,-466.5 0,-466.5 0,-124.5 0,-84.4604 32.8584,-47.7878 55.3644,-27.3653"/>
<polygon fill="#191970" stroke="#191970" points="57.8796,-29.8155 63.1076,-20.6004 53.2741,-24.544 57.8796,-29.8155"/>
</g>
<!-- Node21 -->
<g id="node21" class="node">
<title>Node21</title>
<g id="a_node21"><a xlink:href="../../de/d06/GblFitterInfo_8h.html" target="_top" xlink:title="GblFitterInfo.h">
<polygon fill="none" stroke="#000000" points="808.5,-399.5 808.5,-419.5 895.5,-419.5 895.5,-399.5 808.5,-399.5"/>
<text text-anchor="middle" x="852" y="-406.5" font-family="FreeSans" font-size="10.00" fill="#000000">GblFitterInfo.h</text>
</a>
</g>
</g>
<!-- Node1&#45;&gt;Node21 -->
<g id="edge103" class="edge">
<title>Node1&#45;&gt;Node21</title>
<path fill="none" stroke="#191970" d="M1466.9942,-577.1418C1371.5709,-561.2567 1178.0153,-525.9126 1019,-477 970.1682,-461.9795 915.6491,-438.6398 882.5894,-423.7165"/>
<polygon fill="#191970" stroke="#191970" points="884.0042,-420.5151 873.4526,-419.5593 881.1052,-426.8865 884.0042,-420.5151"/>
</g>
<!-- Node33 -->
<g id="node33" class="node">
<title>Node33</title>
<polygon fill="none" stroke="#bfbfbf" points="1427.5,-342.5 1427.5,-362.5 1480.5,-362.5 1480.5,-342.5 1427.5,-342.5"/>
<text text-anchor="middle" x="1454" y="-349.5" font-family="FreeSans" font-size="10.00" fill="#000000">Track.h</text>
</g>
<!-- Node1&#45;&gt;Node33 -->
<g id="edge107" class="edge">
<title>Node1&#45;&gt;Node33</title>
<path fill="none" stroke="#191970" d="M1492.0018,-570.3442C1477.8566,-561.6983 1462.9117,-549.583 1455,-534 1428.0972,-481.012 1440.2892,-407.5949 1448.5754,-372.6046"/>
<polygon fill="#191970" stroke="#191970" points="1452.0294,-373.2205 1451.0739,-362.6689 1445.2407,-371.5133 1452.0294,-373.2205"/>
</g>
<!-- Node34 -->
<g id="node34" class="node">
<title>Node34</title>
<g id="a_node34"><a xlink:href="../../d1/d6d/ICalibrationParametersDerivatives_8h.html" target="_top" xlink:title="ICalibrationParametersDerivatives.h">
<polygon fill="none" stroke="#000000" points="880,-342.5 880,-362.5 1078,-362.5 1078,-342.5 880,-342.5"/>
<text text-anchor="middle" x="979" y="-349.5" font-family="FreeSans" font-size="10.00" fill="#000000">ICalibrationParametersDerivatives.h</text>
</a>
</g>
</g>
<!-- Node1&#45;&gt;Node34 -->
<g id="edge106" class="edge">
<title>Node1&#45;&gt;Node34</title>
<path fill="none" stroke="#191970" d="M1489.6413,-570.3819C1469.4138,-560.827 1444.1321,-547.8919 1423,-534 1344.3982,-482.3284 1345.5857,-438.0293 1260,-399 1228.7069,-384.7295 1148.4499,-372.2376 1081.6825,-363.8052"/>
<polygon fill="#191970" stroke="#191970" points="1081.8711,-360.3017 1071.5152,-362.5389 1081.0059,-367.248 1081.8711,-360.3017"/>
</g>
<!-- Node35 -->
<g id="node35" class="node">
<title>Node35</title>
<polygon fill="none" stroke="#bfbfbf" points="1008.5,-285.5 1008.5,-305.5 1077.5,-305.5 1077.5,-285.5 1008.5,-285.5"/>
<text text-anchor="middle" x="1043" y="-292.5" font-family="FreeSans" font-size="10.00" fill="#000000">TMatrixT.h</text>
</g>
<!-- Node1&#45;&gt;Node35 -->
<g id="edge123" class="edge">
<title>Node1&#45;&gt;Node35</title>
<path fill="none" stroke="#191970" d="M1585.0412,-582.2633C1650.1936,-576.2156 1748.9264,-562.5174 1772,-534 1777.8707,-526.7442 1776.5859,-521.129 1772,-513 1623.6562,-250.0431 1424.9898,-340.0342 1125,-306 1112.9774,-304.636 1099.9805,-303.0317 1087.9548,-301.4932"/>
<polygon fill="#191970" stroke="#191970" points="1088.0519,-297.9767 1077.6857,-300.1659 1087.1545,-304.919 1088.0519,-297.9767"/>
</g>
<!-- Node36 -->
<g id="node36" class="node">
<title>Node36</title>
<g id="a_node36"><a xlink:href="../../d9/d27/GblFitStatus_8h.html" target="_top" xlink:title="GblFitStatus.h">
<polygon fill="none" stroke="#000000" points="1210,-456.5 1210,-476.5 1296,-476.5 1296,-456.5 1210,-456.5"/>
<text text-anchor="middle" x="1253" y="-463.5" font-family="FreeSans" font-size="10.00" fill="#000000">GblFitStatus.h</text>
</a>
</g>
</g>
<!-- Node1&#45;&gt;Node36 -->
<g id="edge102" class="edge">
<title>Node1&#45;&gt;Node36</title>
<path fill="none" stroke="#191970" d="M1466.8187,-575.6817C1429.4285,-567.4208 1380.8299,-554.0032 1341,-534 1314.3836,-520.6329 1287.8028,-498.7745 1270.9327,-483.5672"/>
<polygon fill="#191970" stroke="#191970" points="1273.2018,-480.8988 1263.4735,-476.7023 1268.4615,-486.0495 1273.2018,-480.8988"/>
</g>
<!-- Node42 -->
<g id="node42" class="node">
<title>Node42</title>
<polygon fill="none" stroke="#bfbfbf" points="1573,-513.5 1573,-533.5 1623,-533.5 1623,-513.5 1573,-513.5"/>
<text text-anchor="middle" x="1598" y="-520.5" font-family="FreeSans" font-size="10.00" fill="#000000">TFile.h</text>
</g>
<!-- Node1&#45;&gt;Node42 -->
<g id="edge108" class="edge">
<title>Node1&#45;&gt;Node42</title>
<path fill="none" stroke="#191970" d="M1544.5418,-570.2759C1555.0339,-561.0954 1568.1364,-549.6307 1578.7437,-540.3492"/>
<polygon fill="#191970" stroke="#191970" points="1581.0632,-542.9704 1586.2843,-533.7513 1576.4537,-537.7023 1581.0632,-542.9704"/>
</g>
<!-- Node43 -->
<g id="node43" class="node">
<title>Node43</title>
<polygon fill="none" stroke="#bfbfbf" points="1641.5,-513.5 1641.5,-533.5 1692.5,-533.5 1692.5,-513.5 1641.5,-513.5"/>
<text text-anchor="middle" x="1667" y="-520.5" font-family="FreeSans" font-size="10.00" fill="#000000">TH1F.h</text>
</g>
<!-- Node1&#45;&gt;Node43 -->
<g id="edge109" class="edge">
<title>Node1&#45;&gt;Node43</title>
<path fill="none" stroke="#191970" d="M1561.9451,-570.4394C1584.5465,-560.3409 1613.4429,-547.4298 1635.2069,-537.7054"/>
<polygon fill="#191970" stroke="#191970" points="1636.6546,-540.8921 1644.3569,-533.6171 1633.799,-534.501 1636.6546,-540.8921"/>
</g>
<!-- Node44 -->
<g id="node44" class="node">
<title>Node44</title>
<polygon fill="none" stroke="#bfbfbf" points="1710.5,-513.5 1710.5,-533.5 1763.5,-533.5 1763.5,-513.5 1710.5,-513.5"/>
<text text-anchor="middle" x="1737" y="-520.5" font-family="FreeSans" font-size="10.00" fill="#000000">TTree.h</text>
</g>
<!-- Node1&#45;&gt;Node44 -->
<g id="edge110" class="edge">
<title>Node1&#45;&gt;Node44</title>
<path fill="none" stroke="#191970" d="M1579.7902,-570.4394C1617.6328,-559.1404 1667.2683,-544.3204 1700.5519,-534.3826"/>
<polygon fill="#191970" stroke="#191970" points="1701.7445,-537.6793 1710.3252,-531.4645 1699.7418,-530.9719 1701.7445,-537.6793"/>
</g>
<!-- Node45 -->
<g id="node45" class="node">
<title>Node45</title>
<polygon fill="none" stroke="#bfbfbf" points="1948.5,-456.5 1948.5,-476.5 1993.5,-476.5 1993.5,-456.5 1948.5,-456.5"/>
<text text-anchor="middle" x="1971" y="-463.5" font-family="FreeSans" font-size="10.00" fill="#000000">string</text>
</g>
<!-- Node1&#45;&gt;Node45 -->
<g id="edge111" class="edge">
<title>Node1&#45;&gt;Node45</title>
<path fill="none" stroke="#191970" d="M1585.0229,-583.8283C1700.1679,-578.0089 1945.7713,-562.3801 1971,-534 1982.2773,-521.314 1980.7933,-501.3749 1977.3784,-486.4514"/>
<polygon fill="#191970" stroke="#191970" points="1980.7125,-485.374 1974.7055,-476.6466 1973.959,-487.2151 1980.7125,-485.374"/>
</g>
<!-- Node46 -->
<g id="node46" class="node">
<title>Node46</title>
<polygon fill="none" stroke="#bfbfbf" points="1820,-513.5 1820,-533.5 1852,-533.5 1852,-513.5 1820,-513.5"/>
<text text-anchor="middle" x="1836" y="-520.5" font-family="FreeSans" font-size="10.00" fill="#000000">list</text>
</g>
<!-- Node1&#45;&gt;Node46 -->
<g id="edge112" class="edge">
<title>Node1&#45;&gt;Node46</title>
<path fill="none" stroke="#191970" d="M1585.0337,-578.0919C1642.1027,-569.341 1730.7417,-554.1019 1806,-534 1807.4328,-533.6173 1808.8953,-533.1992 1810.3657,-532.7574"/>
<polygon fill="#191970" stroke="#191970" points="1811.5325,-536.0583 1819.9476,-529.6211 1809.355,-529.4056 1811.5325,-536.0583"/>
</g>
<!-- Node47 -->
<g id="node47" class="node">
<title>Node47</title>
<g id="a_node47"><a xlink:href="../../d2/de2/FieldManager_8h.html" target="_top" xlink:title="FieldManager.h">
<polygon fill="none" stroke="#ff0000" points="1870,-513.5 1870,-533.5 1962,-533.5 1962,-513.5 1870,-513.5"/>
<text text-anchor="middle" x="1916" y="-520.5" font-family="FreeSans" font-size="10.00" fill="#000000">FieldManager.h</text>
</a>
</g>
</g>
<!-- Node1&#45;&gt;Node47 -->
<g id="edge113" class="edge">
<title>Node1&#45;&gt;Node47</title>
<path fill="none" stroke="#191970" d="M1585.0991,-577.8443C1650.0125,-568.2007 1757.5894,-551.8192 1859.9217,-534.1479"/>
<polygon fill="#191970" stroke="#191970" points="1860.5518,-537.5909 1869.8068,-532.4339 1859.3558,-530.6938 1860.5518,-537.5909"/>
</g>
<!-- Node48 -->
<g id="node48" class="node">
<title>Node48</title>
<g id="a_node48"><a xlink:href="../../d6/dfc/HMatrixU_8h.html" target="_top" xlink:title="HMatrixU.h">
<polygon fill="none" stroke="#000000" points="1992,-399.5 1992,-419.5 2064,-419.5 2064,-399.5 1992,-399.5"/>
<text text-anchor="middle" x="2028" y="-406.5" font-family="FreeSans" font-size="10.00" fill="#000000">HMatrixU.h</text>
</a>
</g>
</g>
<!-- Node1&#45;&gt;Node48 -->
<g id="edge116" class="edge">
<title>Node1&#45;&gt;Node48</title>
<path fill="none" stroke="#191970" d="M1585.3404,-583.3586C1703.2681,-576.603 1958.4298,-559.2341 1989,-534 2020.166,-508.2741 2026.8336,-457.9336 2028.0125,-429.7844"/>
<polygon fill="#191970" stroke="#191970" points="2031.5171,-429.6099 2028.237,-419.5356 2024.5188,-429.4566 2031.5171,-429.6099"/>
</g>
<!-- Node49 -->
<g id="node49" class="node">
<title>Node49</title>
<g id="a_node49"><a xlink:href="../../d3/df3/HMatrixV_8h.html" target="_top" xlink:title="HMatrixV.h">
<polygon fill="none" stroke="#000000" points="1748,-399.5 1748,-419.5 1818,-419.5 1818,-399.5 1748,-399.5"/>
<text text-anchor="middle" x="1783" y="-406.5" font-family="FreeSans" font-size="10.00" fill="#000000">HMatrixV.h</text>
</a>
</g>
</g>
<!-- Node1&#45;&gt;Node49 -->
<g id="edge118" class="edge">
<title>Node1&#45;&gt;Node49</title>
<path fill="none" stroke="#191970" d="M1530.9395,-570.2817C1536.6181,-553.99 1547.3573,-529.0594 1564,-513 1613.7236,-465.0192 1689.8379,-435.9924 1737.9811,-421.3551"/>
<polygon fill="#191970" stroke="#191970" points="1739.2133,-424.6406 1747.8102,-418.4484 1737.2281,-417.928 1739.2133,-424.6406"/>
</g>
<!-- Node50 -->
<g id="node50" class="node">
<title>Node50</title>
<polygon fill="none" stroke="#bfbfbf" points="2056,-513.5 2056,-533.5 2146,-533.5 2146,-513.5 2056,-513.5"/>
<text text-anchor="middle" x="2101" y="-520.5" font-family="FreeSans" font-size="10.00" fill="#000000">TVectorDfwd.h</text>
</g>
<!-- Node1&#45;&gt;Node50 -->
<g id="edge122" class="edge">
<title>Node1&#45;&gt;Node50</title>
<path fill="none" stroke="#191970" d="M1585.3741,-581.9106C1681.5436,-574.1513 1877.2393,-557.0098 2042,-534 2043.2751,-533.8219 2044.5648,-533.6365 2045.8647,-533.4449"/>
<polygon fill="#191970" stroke="#191970" points="2046.6149,-536.8704 2055.9573,-531.8734 2045.5378,-529.9537 2046.6149,-536.8704"/>
</g>
<!-- Node2&#45;&gt;Node3 -->
<g id="edge2" class="edge">
<title>Node2&#45;&gt;Node3</title>
<path fill="none" stroke="#191970" d="M651.0236,-522.0219C710.4642,-518.6852 836.5551,-508.2393 938,-477 1013.6074,-453.7172 1023.6831,-426.1214 1098,-399 1140.3706,-383.5372 1190.0197,-371.366 1227.2104,-363.3605"/>
<polygon fill="#191970" stroke="#191970" points="1228.2948,-366.7086 1237.3533,-361.2138 1226.8453,-359.8603 1228.2948,-366.7086"/>
</g>
<!-- Node5 -->
<g id="node5" class="node">
<title>Node5</title>
<polygon fill="none" stroke="#bfbfbf" points="1120,-228.5 1120,-248.5 1180,-248.5 1180,-228.5 1120,-228.5"/>
<text text-anchor="middle" x="1150" y="-235.5" font-family="FreeSans" font-size="10.00" fill="#000000">iostream</text>
</g>
<!-- Node2&#45;&gt;Node5 -->
<g id="edge96" class="edge">
<title>Node2&#45;&gt;Node5</title>
<path fill="none" stroke="#191970" d="M648.9982,-513.4966C739.5155,-485.3068 1005.2802,-403.285 1228,-342 1290.7745,-324.7266 1330.0169,-357.3845 1370,-306 1441.8968,-213.6014 1565.2287,-331.2381 1194,-249 1192.7492,-248.7229 1191.4792,-248.4385 1190.1975,-248.1489"/>
<polygon fill="#191970" stroke="#191970" points="1190.7976,-244.6955 1180.2668,-245.8593 1189.2249,-251.5165 1190.7976,-244.6955"/>
</g>
<!-- Node2&#45;&gt;Node10 -->
<g id="edge97" class="edge">
<title>Node2&#45;&gt;Node10</title>
<path fill="none" stroke="#191970" d="M582.8498,-520.9732C532.2659,-516.44 435.005,-504.6739 357,-477 338.8143,-470.5482 336.0601,-465.0166 319,-456 228.763,-408.308 114,-454.5649 114,-352.5 114,-352.5 114,-352.5 114,-181.5 114,-106.4741 161.4152,-91.5739 228,-57 281.6896,-29.1219 457.3316,-16.9051 541.8069,-12.5388"/>
<polygon fill="#191970" stroke="#191970" points="542.0739,-16.0299 551.8858,-12.0329 541.7229,-9.0387 542.0739,-16.0299"/>
</g>
<!-- Node18 -->
<g id="node18" class="node">
<title>Node18</title>
<g id="a_node18"><a xlink:href="../../d5/d19/AbsFitter_8h.html" target="_top" xlink:title="AbsFitter.h">
<polygon fill="none" stroke="#000000" points="366,-456.5 366,-476.5 436,-476.5 436,-456.5 366,-456.5"/>
<text text-anchor="middle" x="401" y="-463.5" font-family="FreeSans" font-size="10.00" fill="#000000">AbsFitter.h</text>
</a>
</g>
</g>
<!-- Node2&#45;&gt;Node18 -->
<g id="edge33" class="edge">
<title>Node2&#45;&gt;Node18</title>
<path fill="none" stroke="#191970" d="M582.7742,-514.4682C545.7392,-504.6951 486.5336,-489.0714 445.8133,-478.3257"/>
<polygon fill="#191970" stroke="#191970" points="446.7027,-474.9407 436.1406,-475.7732 444.9166,-481.709 446.7027,-474.9407"/>
</g>
<!-- Node19 -->
<g id="node19" class="node">
<title>Node19</title>
<g id="a_node19"><a xlink:href="../../d4/d66/AbsTrackRep_8h.html" target="_top" xlink:title="AbsTrackRep.h">
<polygon fill="none" stroke="#ff0000" points="810.5,-57.5 810.5,-77.5 901.5,-77.5 901.5,-57.5 810.5,-57.5"/>
<text text-anchor="middle" x="856" y="-64.5" font-family="FreeSans" font-size="10.00" fill="#000000">AbsTrackRep.h</text>
</a>
</g>
</g>
<!-- Node2&#45;&gt;Node19 -->
<g id="edge34" class="edge">
<title>Node2&#45;&gt;Node19</title>
<path fill="none" stroke="#191970" d="M611.8541,-513.3362C594.8571,-478.1934 544.3458,-359.886 594,-285 609.1324,-262.1781 622.4693,-265.9192 644,-249 717.3595,-191.3528 800.3071,-117.7369 836.9117,-84.7924"/>
<polygon fill="#191970" stroke="#191970" points="839.7124,-86.9796 844.793,-77.6824 835.0234,-81.782 839.7124,-86.9796"/>
</g>
<!-- Node2&#45;&gt;Node20 -->
<g id="edge101" class="edge">
<title>Node2&#45;&gt;Node20</title>
<path fill="none" stroke="#191970" d="M582.9469,-521.9681C473.9421,-516.8578 138.1939,-499.4428 95,-477 60.1571,-458.8962 38,-448.7655 38,-409.5 38,-409.5 38,-409.5 38,-124.5 38,-89.7644 54.0743,-51.9893 65.3138,-29.8219"/>
<polygon fill="#191970" stroke="#191970" points="68.5008,-31.2812 70.0625,-20.8021 62.3068,-28.0201 68.5008,-31.2812"/>
</g>
<!-- Node2&#45;&gt;Node21 -->
<g id="edge39" class="edge">
<title>Node2&#45;&gt;Node21</title>
<path fill="none" stroke="#191970" d="M633.8077,-513.3833C672.3159,-493.0596 766.6024,-447.2217 817.8111,-423.8252"/>
<polygon fill="#191970" stroke="#191970" points="819.4849,-426.9094 827.1489,-419.5941 816.5958,-420.5334 819.4849,-426.9094"/>
</g>
<!-- Node32 -->
<g id="node32" class="node">
<title>Node32</title>
<polygon fill="none" stroke="#bfbfbf" points="256.5,-285.5 256.5,-305.5 295.5,-305.5 295.5,-285.5 256.5,-285.5"/>
<text text-anchor="middle" x="276" y="-292.5" font-family="FreeSans" font-size="10.00" fill="#000000">map</text>
</g>
<!-- Node2&#45;&gt;Node32 -->
<g id="edge95" class="edge">
<title>Node2&#45;&gt;Node32</title>
<path fill="none" stroke="#191970" d="M591.5682,-513.3572C569.6631,-504.4064 537.3507,-490.6879 510,-477 418.5034,-431.21 380.4623,-437.185 310,-363 297.0567,-349.3728 287.9534,-329.8638 282.4451,-315.3208"/>
<polygon fill="#191970" stroke="#191970" points="285.6994,-314.0253 279.066,-305.7641 279.0998,-316.3588 285.6994,-314.0253"/>
</g>
<!-- Node2&#45;&gt;Node36 -->
<g id="edge82" class="edge">
<title>Node2&#45;&gt;Node36</title>
<path fill="none" stroke="#191970" d="M651.3208,-522.1544C741.5615,-518.3158 992.811,-505.6876 1200,-477 1200.1016,-476.9859 1200.2034,-476.9718 1200.3052,-476.9576"/>
<polygon fill="#191970" stroke="#191970" points="1200.6266,-480.4497 1209.972,-475.4581 1199.5536,-473.5324 1200.6266,-480.4497"/>
</g>
<!-- Node38 -->
<g id="node38" class="node">
<title>Node38</title>
<g id="a_node38"><a xlink:href="../../d3/ddf/GblTrackSegmentController_8h.html" target="_top" xlink:title="GblTrackSegmentController.h">
<polygon fill="none" stroke="#000000" points="1028.5,-456.5 1028.5,-476.5 1191.5,-476.5 1191.5,-456.5 1028.5,-456.5"/>
<text text-anchor="middle" x="1110" y="-463.5" font-family="FreeSans" font-size="10.00" fill="#000000">GblTrackSegmentController.h</text>
</a>
</g>
</g>
<!-- Node2&#45;&gt;Node38 -->
<g id="edge88" class="edge">
<title>Node2&#45;&gt;Node38</title>
<path fill="none" stroke="#191970" d="M651.058,-519.122C725.9896,-510.0718 906.8716,-489.1015 1017.9034,-476.5368"/>
<polygon fill="#191970" stroke="#191970" points="1018.5489,-479.9862 1028.0926,-475.3852 1017.7627,-473.0305 1018.5489,-479.9862"/>
</g>
<!-- Node39 -->
<g id="node39" class="node">
<title>Node39</title>
<polygon fill="none" stroke="#bfbfbf" points="104,-456.5 104,-476.5 160,-476.5 160,-456.5 104,-456.5"/>
<text text-anchor="middle" x="132" y="-463.5" font-family="FreeSans" font-size="10.00" fill="#000000">assert.h</text>
</g>
<!-- Node2&#45;&gt;Node39 -->
<g id="edge98" class="edge">
<title>Node2&#45;&gt;Node39</title>
<path fill="none" stroke="#191970" d="M582.9875,-521.9809C509.3009,-518.261 329.3901,-506.8641 170.1356,-476.9388"/>
<polygon fill="#191970" stroke="#191970" points="170.6398,-473.4719 160.1609,-475.0347 169.3272,-480.3478 170.6398,-473.4719"/>
</g>
<!-- Node40 -->
<g id="node40" class="node">
<title>Node40</title>
<polygon fill="none" stroke="#bfbfbf" points="178,-456.5 178,-476.5 234,-476.5 234,-456.5 178,-456.5"/>
<text text-anchor="middle" x="206" y="-463.5" font-family="FreeSans" font-size="10.00" fill="#000000">sstream</text>
</g>
<!-- Node2&#45;&gt;Node40 -->
<g id="edge99" class="edge">
<title>Node2&#45;&gt;Node40</title>
<path fill="none" stroke="#191970" d="M582.94,-521.0184C518.5511,-515.9513 374.482,-502.8232 244.3161,-477.0174"/>
<polygon fill="#191970" stroke="#191970" points="244.6669,-473.5178 234.1727,-474.9746 243.2849,-480.3801 244.6669,-473.5178"/>
</g>
<!-- Node41 -->
<g id="node41" class="node">
<title>Node41</title>
<polygon fill="none" stroke="#bfbfbf" points="252,-456.5 252,-476.5 310,-476.5 310,-456.5 252,-456.5"/>
<text text-anchor="middle" x="281" y="-463.5" font-family="FreeSans" font-size="10.00" fill="#000000">TMath.h</text>
</g>
<!-- Node2&#45;&gt;Node41 -->
<g id="edge100" class="edge">
<title>Node2&#45;&gt;Node41</title>
<path fill="none" stroke="#191970" d="M582.5543,-518.9679C527.6254,-511.5312 416.9087,-495.6831 324,-477 322.7287,-476.7443 321.4381,-476.4768 320.1364,-476.2"/>
<polygon fill="#191970" stroke="#191970" points="320.5956,-472.7161 310.0719,-473.9415 319.0629,-479.5462 320.5956,-472.7161"/>
</g>
<!-- Node3&#45;&gt;Node4 -->
<g id="edge3" class="edge">
<title>Node3&#45;&gt;Node4</title>
<path fill="none" stroke="#191970" d="M1328.7386,-342.6596C1371.5117,-333.4005 1437.1483,-319.0469 1494,-306 1494.1005,-305.9769 1494.2011,-305.9538 1494.3018,-305.9307"/>
<polygon fill="#191970" stroke="#191970" points="1494.9563,-309.372 1503.9039,-303.6982 1493.3711,-302.5538 1494.9563,-309.372"/>
</g>
<!-- Node12 -->
<g id="node12" class="node">
<title>Node12</title>
<polygon fill="none" stroke="#bfbfbf" points="1716.5,-228.5 1716.5,-248.5 1839.5,-248.5 1839.5,-228.5 1716.5,-228.5"/>
<text text-anchor="middle" x="1778" y="-235.5" font-family="FreeSans" font-size="10.00" fill="#000000">TMatrixDSymEigen.h</text>
</g>
<!-- Node3&#45;&gt;Node12 -->
<g id="edge32" class="edge">
<title>Node3&#45;&gt;Node12</title>
<path fill="none" stroke="#191970" d="M1328.7886,-344.931C1334.9099,-343.9357 1341.1064,-342.9368 1347,-342 1450.919,-325.482 1478.8269,-331.1525 1581,-306 1639.1671,-291.6807 1704.5652,-267.6204 1743.4666,-252.4272"/>
<polygon fill="#191970" stroke="#191970" points="1745.2145,-255.5006 1753.2366,-248.5799 1742.6496,-248.9874 1745.2145,-255.5006"/>
</g>
<!-- Node15 -->
<g id="node15" class="node">
<title>Node15</title>
<g id="a_node15"><a xlink:href="../../d9/d02/GblData_8h.html" target="_top" xlink:title="GblData.h">
<polygon fill="none" stroke="#ff0000" points="1418.5,-285.5 1418.5,-305.5 1485.5,-305.5 1485.5,-285.5 1418.5,-285.5"/>
<text text-anchor="middle" x="1452" y="-292.5" font-family="FreeSans" font-size="10.00" fill="#000000">GblData.h</text>
</a>
</g>
</g>
<!-- Node3&#45;&gt;Node15 -->
<g id="edge14" class="edge">
<title>Node3&#45;&gt;Node15</title>
<path fill="none" stroke="#191970" d="M1312.8248,-342.4408C1340.4936,-333.1087 1381.8688,-319.1537 1412.3178,-308.8839"/>
<polygon fill="#191970" stroke="#191970" points="1413.8326,-312.0668 1422.1896,-305.5544 1411.5955,-305.4339 1413.8326,-312.0668"/>
</g>
<!-- Node16 -->
<g id="node16" class="node">
<title>Node16</title>
<g id="a_node16"><a xlink:href="../../df/db6/BorderedBandMatrix_8h.html" target="_top" xlink:title="BorderedBandMatrix.h">
<polygon fill="none" stroke="#ff0000" points="1232.5,-285.5 1232.5,-305.5 1361.5,-305.5 1361.5,-285.5 1232.5,-285.5"/>
<text text-anchor="middle" x="1297" y="-292.5" font-family="FreeSans" font-size="10.00" fill="#000000">BorderedBandMatrix.h</text>
</a>
</g>
</g>
<!-- Node3&#45;&gt;Node16 -->
<g id="edge23" class="edge">
<title>Node3&#45;&gt;Node16</title>
<path fill="none" stroke="#191970" d="M1285.5029,-342.3095C1287.3345,-334.8524 1289.8784,-324.4951 1292.1077,-315.4186"/>
<polygon fill="#191970" stroke="#191970" points="1295.5324,-316.1485 1294.5187,-305.6022 1288.7344,-314.4787 1295.5324,-316.1485"/>
</g>
<!-- Node17 -->
<g id="node17" class="node">
<title>Node17</title>
<g id="a_node17"><a xlink:href="../../de/dd8/MilleBinary_8h.html" target="_top" xlink:title="MilleBinary.h">
<polygon fill="none" stroke="#ff0000" points="1134,-285.5 1134,-305.5 1214,-305.5 1214,-285.5 1134,-285.5"/>
<text text-anchor="middle" x="1174" y="-292.5" font-family="FreeSans" font-size="10.00" fill="#000000">MilleBinary.h</text>
</a>
</g>
</g>
<!-- Node3&#45;&gt;Node17 -->
<g id="edge30" class="edge">
<title>Node3&#45;&gt;Node17</title>
<path fill="none" stroke="#191970" d="M1263.7639,-342.4408C1246.7467,-333.5419 1221.6911,-320.4394 1202.3728,-310.3371"/>
<polygon fill="#191970" stroke="#191970" points="1203.8939,-307.1829 1193.4104,-305.6504 1200.65,-313.386 1203.8939,-307.1829"/>
</g>
<!-- Node4&#45;&gt;Node5 -->
<g id="edge4" class="edge">
<title>Node4&#45;&gt;Node5</title>
<path fill="none" stroke="#191970" d="M1503.962,-287.0224C1500.6055,-286.2933 1497.2426,-285.6045 1494,-285 1384.8457,-264.6511 1254.6271,-249.5069 1190.2026,-242.6158"/>
<polygon fill="#191970" stroke="#191970" points="1190.3829,-239.1154 1180.0697,-241.5422 1189.6453,-246.0765 1190.3829,-239.1154"/>
</g>
<!-- Node6 -->
<g id="node6" class="node">
<title>Node6</title>
<polygon fill="none" stroke="#bfbfbf" points="900.5,-228.5 900.5,-248.5 949.5,-248.5 949.5,-228.5 900.5,-228.5"/>
<text text-anchor="middle" x="925" y="-235.5" font-family="FreeSans" font-size="10.00" fill="#000000">vector</text>
</g>
<!-- Node4&#45;&gt;Node6 -->
<g id="edge5" class="edge">
<title>Node4&#45;&gt;Node6</title>
<path fill="none" stroke="#191970" d="M1503.9931,-286.8424C1500.6303,-286.1497 1497.2574,-285.5187 1494,-285 1390.0241,-268.4446 1066.74,-247.3418 959.7653,-240.6416"/>
<polygon fill="#191970" stroke="#191970" points="959.7252,-237.1324 949.5267,-240.003 959.2894,-244.1188 959.7252,-237.1324"/>
</g>
<!-- Node7 -->
<g id="node7" class="node">
<title>Node7</title>
<polygon fill="none" stroke="#bfbfbf" points="1274,-228.5 1274,-248.5 1326,-248.5 1326,-228.5 1274,-228.5"/>
<text text-anchor="middle" x="1300" y="-235.5" font-family="FreeSans" font-size="10.00" fill="#000000">math.h</text>
</g>
<!-- Node4&#45;&gt;Node7 -->
<g id="edge6" class="edge">
<title>Node4&#45;&gt;Node7</title>
<path fill="none" stroke="#191970" d="M1503.9004,-287.3333C1459.3284,-276.6585 1381.5989,-258.0426 1336.0727,-247.1393"/>
<polygon fill="#191970" stroke="#191970" points="1336.8643,-243.7299 1326.3241,-244.8045 1335.2339,-250.5374 1336.8643,-243.7299"/>
</g>
<!-- Node8 -->
<g id="node8" class="node">
<title>Node8</title>
<polygon fill="none" stroke="#bfbfbf" points="1858,-228.5 1858,-248.5 1924,-248.5 1924,-228.5 1858,-228.5"/>
<text text-anchor="middle" x="1891" y="-235.5" font-family="FreeSans" font-size="10.00" fill="#000000">stdexcept</text>
</g>
<!-- Node4&#45;&gt;Node8 -->
<g id="edge7" class="edge">
<title>Node4&#45;&gt;Node8</title>
<path fill="none" stroke="#191970" d="M1572.1185,-291.41C1627.6647,-284.5288 1741.2623,-269.5307 1847.7783,-248.8888"/>
<polygon fill="#191970" stroke="#191970" points="1848.5907,-252.2963 1857.7314,-246.9392 1847.2451,-245.4268 1848.5907,-252.2963"/>
</g>
<!-- Node9 -->
<g id="node9" class="node">
<title>Node9</title>
<polygon fill="none" stroke="#bfbfbf" points="1018,-.5 1018,-20.5 1090,-20.5 1090,-.5 1018,-.5"/>
<text text-anchor="middle" x="1054" y="-7.5" font-family="FreeSans" font-size="10.00" fill="#000000">TVectorD.h</text>
</g>
<!-- Node4&#45;&gt;Node9 -->
<g id="edge8" class="edge">
<title>Node4&#45;&gt;Node9</title>
<path fill="none" stroke="#191970" d="M1537.8808,-285.4246C1537.1123,-270.383 1533.2847,-242.2985 1516,-228 1418.3038,-147.1823 1346.5226,-248.4684 1233,-192 1157.8665,-154.6271 1160.1621,-116.5115 1101,-57 1091.3611,-47.3041 1080.5171,-36.5645 1071.6761,-27.8513"/>
<polygon fill="#191970" stroke="#191970" points="1074.0858,-25.312 1064.503,-20.7931 1069.1761,-30.3016 1074.0858,-25.312"/>
</g>
<!-- Node4&#45;&gt;Node10 -->
<g id="edge9" class="edge">
<title>Node4&#45;&gt;Node10</title>
<path fill="none" stroke="#191970" d="M1533.2809,-285.4731C1525.3638,-269.9529 1507.8013,-240.5907 1483,-228 1346.8817,-158.8979 937.0131,-252.8248 797,-192 757.3597,-174.7794 690.6031,-84.1797 657,-57 643.2204,-45.8545 626.8007,-34.7119 613.4363,-26.1292"/>
<polygon fill="#191970" stroke="#191970" points="615.064,-23.0173 604.7421,-20.6278 611.3209,-28.9326 615.064,-23.0173"/>
</g>
<!-- Node11 -->
<g id="node11" class="node">
<title>Node11</title>
<polygon fill="none" stroke="#bfbfbf" points="1243,-.5 1243,-20.5 1337,-20.5 1337,-.5 1243,-.5"/>
<text text-anchor="middle" x="1290" y="-7.5" font-family="FreeSans" font-size="10.00" fill="#000000">TMatrixDSym.h</text>
</g>
<!-- Node4&#45;&gt;Node11 -->
<g id="edge10" class="edge">
<title>Node4&#45;&gt;Node11</title>
<path fill="none" stroke="#191970" d="M1544.25,-285.2384C1555.5,-265.7607 1578,-221.7713 1578,-181.5 1578,-181.5 1578,-181.5 1578,-124.5 1578,-75.3451 1431.1235,-38.258 1347.1496,-21.071"/>
<polygon fill="#191970" stroke="#191970" points="1347.7291,-17.6175 1337.2348,-19.0742 1346.347,-24.4797 1347.7291,-17.6175"/>
</g>
<!-- Node4&#45;&gt;Node12 -->
<g id="edge11" class="edge">
<title>Node4&#45;&gt;Node12</title>
<path fill="none" stroke="#191970" d="M1572.1313,-287.3938C1612.1595,-277.8871 1678.9565,-262.0228 1725.5714,-250.9518"/>
<polygon fill="#191970" stroke="#191970" points="1726.5674,-254.3127 1735.488,-248.5966 1724.9498,-247.5021 1726.5674,-254.3127"/>
</g>
<!-- Node4&#45;&gt;Node13 -->
<g id="edge12" class="edge">
<title>Node4&#45;&gt;Node13</title>
<path fill="none" stroke="#191970" d="M1558.1185,-285.4408C1575.9972,-276.5014 1602.3596,-263.3202 1622.6009,-253.1996"/>
<polygon fill="#191970" stroke="#191970" points="1624.3202,-256.2531 1631.6992,-248.6504 1621.1896,-249.9921 1624.3202,-256.2531"/>
</g>
<!-- Node14 -->
<g id="node14" class="node">
<title>Node14</title>
<polygon fill="none" stroke="#bfbfbf" points="1382,-228.5 1382,-248.5 1474,-248.5 1474,-228.5 1382,-228.5"/>
<text text-anchor="middle" x="1428" y="-235.5" font-family="FreeSans" font-size="10.00" fill="#000000">Math/SVector.h</text>
</g>
<!-- Node4&#45;&gt;Node14 -->
<g id="edge13" class="edge">
<title>Node4&#45;&gt;Node14</title>
<path fill="none" stroke="#191970" d="M1518.5874,-285.4408C1501.4141,-276.5419 1476.1286,-263.4394 1456.6331,-253.3371"/>
<polygon fill="#191970" stroke="#191970" points="1458.0776,-250.1437 1447.5885,-248.6504 1454.857,-256.3589 1458.0776,-250.1437"/>
</g>
<!-- Node15&#45;&gt;Node5 -->
<g id="edge15" class="edge">
<title>Node15&#45;&gt;Node5</title>
<path fill="none" stroke="#191970" d="M1418.471,-287.9615C1413.623,-286.9309 1408.6887,-285.9142 1404,-285 1311.0555,-266.8773 1286.7691,-268.0001 1194,-249 1192.745,-248.743 1191.4712,-248.476 1190.1863,-248.2015"/>
<polygon fill="#191970" stroke="#191970" points="1190.7612,-244.7439 1180.2396,-245.9871 1189.24,-251.5767 1190.7612,-244.7439"/>
</g>
<!-- Node15&#45;&gt;Node6 -->
<g id="edge16" class="edge">
<title>Node15&#45;&gt;Node6</title>
<path fill="none" stroke="#191970" d="M1418.1103,-290.9809C1403.3425,-289.0581 1385.8245,-286.8397 1370,-285 1217.4021,-267.2596 1034.9914,-249.1771 959.9079,-241.8691"/>
<polygon fill="#191970" stroke="#191970" points="959.9166,-238.3536 949.6251,-240.8704 959.2399,-245.3208 959.9166,-238.3536"/>
</g>
<!-- Node15&#45;&gt;Node7 -->
<g id="edge17" class="edge">
<title>Node15&#45;&gt;Node7</title>
<path fill="none" stroke="#191970" d="M1425.1753,-285.4408C1400.2784,-276.1044 1363.0428,-262.141 1335.6531,-251.8699"/>
<polygon fill="#191970" stroke="#191970" points="1336.641,-248.5024 1326.0487,-248.2683 1334.1831,-255.0567 1336.641,-248.5024"/>
</g>
<!-- Node15&#45;&gt;Node9 -->
<g id="edge18" class="edge">
<title>Node15&#45;&gt;Node9</title>
<path fill="none" stroke="#191970" d="M1418.3633,-288.0432C1368.2923,-276.8064 1278.5627,-256.0923 1265,-249 1165.064,-196.741 1090.4192,-76.3305 1064.2139,-29.5615"/>
<polygon fill="#191970" stroke="#191970" points="1067.2529,-27.8242 1059.3655,-20.7503 1061.12,-31.1989 1067.2529,-27.8242"/>
</g>
<!-- Node15&#45;&gt;Node10 -->
<g id="edge19" class="edge">
<title>Node15&#45;&gt;Node10</title>
<path fill="none" stroke="#191970" d="M1418.0865,-289.0206C1359.9254,-277.8253 1245.68,-255.4399 1228,-249 1209.5025,-242.2623 1207.8688,-233.6147 1189,-228 1007.3081,-173.9346 935.2956,-273.1963 764,-192 753.802,-187.166 646.3631,-72.9202 604.5345,-28.2094"/>
<polygon fill="#191970" stroke="#191970" points="606.9117,-25.6272 597.5259,-20.7122 601.7981,-30.4075 606.9117,-25.6272"/>
</g>
<!-- Node15&#45;&gt;Node11 -->
<g id="edge20" class="edge">
<title>Node15&#45;&gt;Node11</title>
<path fill="none" stroke="#191970" d="M1424.1447,-285.3925C1407.0524,-277.8403 1386.0177,-265.8917 1373,-249 1353.9758,-224.3142 1354,-212.6658 1354,-181.5 1354,-181.5 1354,-181.5 1354,-124.5 1354,-86.4288 1326.5246,-49.3065 1307.5782,-28.2337"/>
<polygon fill="#191970" stroke="#191970" points="1309.951,-25.6465 1300.5683,-20.7256 1304.8345,-30.4236 1309.951,-25.6465"/>
</g>
<!-- Node15&#45;&gt;Node13 -->
<g id="edge21" class="edge">
<title>Node15&#45;&gt;Node13</title>
<path fill="none" stroke="#191970" d="M1485.9273,-285.8307C1519.2386,-276.337 1570.2552,-261.7973 1606.9521,-251.3386"/>
<polygon fill="#191970" stroke="#191970" points="1608.2385,-254.6115 1616.8962,-248.5046 1606.3198,-247.8795 1608.2385,-254.6115"/>
</g>
<!-- Node15&#45;&gt;Node14 -->
<g id="edge22" class="edge">
<title>Node15&#45;&gt;Node14</title>
<path fill="none" stroke="#191970" d="M1447.7093,-285.3095C1444.5012,-277.6903 1440.0183,-267.0435 1436.1383,-257.8285"/>
<polygon fill="#191970" stroke="#191970" points="1439.3599,-256.4604 1432.2536,-248.6022 1432.9085,-259.1768 1439.3599,-256.4604"/>
</g>
<!-- Node16&#45;&gt;Node5 -->
<g id="edge24" class="edge">
<title>Node16&#45;&gt;Node5</title>
<path fill="none" stroke="#191970" d="M1271.0577,-285.4408C1247.3777,-276.2587 1212.1561,-262.6013 1185.8014,-252.3822"/>
<polygon fill="#191970" stroke="#191970" points="1186.7664,-249.0025 1176.1774,-248.6504 1184.2356,-255.529 1186.7664,-249.0025"/>
</g>
<!-- Node16&#45;&gt;Node6 -->
<g id="edge25" class="edge">
<title>Node16&#45;&gt;Node6</title>
<path fill="none" stroke="#191970" d="M1232.4277,-286.3267C1229.2401,-285.8773 1226.084,-285.4331 1223,-285 1107.9117,-268.8366 1077.8884,-272.1519 964,-249 962.5398,-248.7032 961.0533,-248.3833 959.555,-248.0462"/>
<polygon fill="#191970" stroke="#191970" points="960.191,-244.5989 949.6469,-245.6342 958.5353,-251.4002 960.191,-244.5989"/>
</g>
<!-- Node16&#45;&gt;Node7 -->
<g id="edge26" class="edge">
<title>Node16&#45;&gt;Node7</title>
<path fill="none" stroke="#191970" d="M1297.5363,-285.3095C1297.9246,-277.9335 1298.4621,-267.72 1298.9361,-258.715"/>
<polygon fill="#191970" stroke="#191970" points="1302.4378,-258.7724 1299.4683,-248.6022 1295.4475,-258.4044 1302.4378,-258.7724"/>
</g>
<!-- Node16&#45;&gt;Node9 -->
<g id="edge27" class="edge">
<title>Node16&#45;&gt;Node9</title>
<path fill="none" stroke="#191970" d="M1232.3863,-286.0548C1182.2354,-277.727 1117.7056,-264.5211 1096,-249 1067.2588,-228.4479 1054,-216.8333 1054,-181.5 1054,-181.5 1054,-181.5 1054,-124.5 1054,-91.6536 1054,-53.4837 1054,-30.697"/>
<polygon fill="#191970" stroke="#191970" points="1057.5001,-30.5648 1054,-20.5648 1050.5001,-30.5648 1057.5001,-30.5648"/>
</g>
<!-- Node16&#45;&gt;Node10 -->
<g id="edge28" class="edge">
<title>Node16&#45;&gt;Node10</title>
<path fill="none" stroke="#191970" d="M1247.3061,-285.4833C1160.1203,-267.9276 986.1418,-232.9828 958,-228 855.2531,-209.8075 815.6406,-245.4085 726,-192 660.1029,-152.7381 614.8965,-68.9186 596.8149,-30.4944"/>
<polygon fill="#191970" stroke="#191970" points="599.784,-28.5715 592.4396,-20.9354 593.419,-31.4848 599.784,-28.5715"/>
</g>
<!-- Node16&#45;&gt;Node11 -->
<g id="edge29" class="edge">
<title>Node16&#45;&gt;Node11</title>
<path fill="none" stroke="#191970" d="M1243.0571,-285.4993C1191.1309,-275.3266 1119.2705,-259.5927 1111,-249 1046.0147,-165.7684 1198.2158,-63.7634 1262.7691,-25.7372"/>
<polygon fill="#191970" stroke="#191970" points="1264.7283,-28.647 1271.6212,-20.6009 1261.2152,-22.5924 1264.7283,-28.647"/>
</g>
<!-- Node17&#45;&gt;Node6 -->
<g id="edge31" class="edge">
<title>Node17&#45;&gt;Node6</title>
<path fill="none" stroke="#191970" d="M1133.6163,-287.1227C1091.2414,-278.2004 1022.7527,-263.406 964,-249 962.5528,-248.6452 961.0772,-248.2769 959.5878,-247.8998"/>
<polygon fill="#191970" stroke="#191970" points="960.2731,-244.4617 949.7142,-245.3339 958.5124,-251.2367 960.2731,-244.4617"/>
</g>
<!-- Node19&#45;&gt;Node9 -->
<g id="edge36" class="edge">
<title>Node19&#45;&gt;Node9</title>
<path fill="none" stroke="#191970" d="M890.9426,-57.4408C923.9232,-47.9464 973.5253,-33.6669 1009.358,-23.3515"/>
<polygon fill="#191970" stroke="#191970" points="1010.4328,-26.6843 1019.0742,-20.5544 1008.4962,-19.9575 1010.4328,-26.6843"/>
</g>
<!-- Node19&#45;&gt;Node10 -->
<g id="edge37" class="edge">
<title>Node19&#45;&gt;Node10</title>
<path fill="none" stroke="#191970" d="M810.2337,-57.7661C761.1042,-47.3169 683.4891,-30.8093 634.1948,-20.325"/>
<polygon fill="#191970" stroke="#191970" points="634.6356,-16.8406 624.1263,-18.1836 633.1793,-23.6874 634.6356,-16.8406"/>
</g>
<!-- Node19&#45;&gt;Node11 -->
<g id="edge38" class="edge">
<title>Node19&#45;&gt;Node11</title>
<path fill="none" stroke="#191970" d="M901.6253,-61.5077C981.2806,-51.0461 1145.5202,-29.4755 1232.7064,-18.0247"/>
<polygon fill="#191970" stroke="#191970" points="1233.2311,-21.486 1242.6902,-16.7135 1232.3195,-14.5456 1233.2311,-21.486"/>
</g>
<!-- Node19&#45;&gt;Node20 -->
<g id="edge35" class="edge">
<title>Node19&#45;&gt;Node20</title>
<path fill="none" stroke="#191970" d="M810.4064,-64.1682C672.4196,-54.0845 260.3009,-23.9681 121.904,-13.8545"/>
<polygon fill="#191970" stroke="#191970" points="121.8829,-10.3437 111.6544,-13.1055 121.3727,-17.3251 121.8829,-10.3437"/>
</g>
<!-- Node21&#45;&gt;Node2 -->
<g id="edge76" class="edge">
<title>Node21&#45;&gt;Node2</title>
<path fill="none" stroke="#191970" d="M835.2352,-419.5941C796.7686,-439.8987 702.4868,-485.7355 651.2461,-509.1486"/>
<polygon fill="#191970" stroke="#191970" points="649.5653,-506.0676 641.9016,-513.3833 652.4547,-512.4435 649.5653,-506.0676"/>
</g>
<!-- Node21&#45;&gt;Node3 -->
<g id="edge75" class="edge">
<title>Node21&#45;&gt;Node3</title>
<path fill="none" stroke="#191970" d="M895.6984,-403.7209C974.5422,-393.2937 1140.4509,-371.3522 1227.3058,-359.8656"/>
<polygon fill="#191970" stroke="#191970" points="1227.7858,-363.3327 1237.2405,-358.5517 1226.8679,-356.3931 1227.7858,-363.3327"/>
</g>
<!-- Node21&#45;&gt;Node4 -->
<g id="edge74" class="edge">
<title>Node21&#45;&gt;Node4</title>
<path fill="none" stroke="#191970" d="M895.6829,-402.2C948.7703,-393.2639 1041.0458,-377.5241 1120,-363 1168.092,-354.1532 1179.7514,-349.949 1228,-342 1345.7132,-322.6066 1376.7223,-327.8731 1494,-306 1494.1013,-305.9811 1494.2028,-305.9621 1494.3043,-305.9431"/>
<polygon fill="#191970" stroke="#191970" points="1494.8611,-309.4016 1503.9619,-303.9771 1493.4647,-302.5423 1494.8611,-309.4016"/>
</g>
<!-- Node21&#45;&gt;Node6 -->
<g id="edge80" class="edge">
<title>Node21&#45;&gt;Node6</title>
<path fill="none" stroke="#191970" d="M895.7696,-401.5614C962.9101,-389.2837 1083.9516,-366.7107 1087,-363 1095.9673,-352.0845 1108.8465,-314.8305 1086,-285 1084.0223,-282.4177 1006.2043,-260.7417 959.4953,-247.9153"/>
<polygon fill="#191970" stroke="#191970" points="960.3278,-244.5145 949.7582,-245.2459 958.477,-251.2654 960.3278,-244.5145"/>
</g>
<!-- Node21&#45;&gt;Node10 -->
<g id="edge77" class="edge">
<title>Node21&#45;&gt;Node10</title>
<path fill="none" stroke="#191970" d="M808.3083,-407.657C660.7418,-400.2606 190,-366.625 190,-238.5 190,-238.5 190,-238.5 190,-124.5 190,-51.9842 437.265,-22.9585 542.0034,-13.9164"/>
<polygon fill="#191970" stroke="#191970" points="542.3062,-17.4034 551.9782,-13.0788 541.7203,-10.428 542.3062,-17.4034"/>
</g>
<!-- Node21&#45;&gt;Node11 -->
<g id="edge78" class="edge">
<title>Node21&#45;&gt;Node11</title>
<path fill="none" stroke="#191970" d="M895.6806,-407.6642C1004.4469,-402.7656 1285.0964,-388.0258 1375,-363 1395.4894,-357.2965 1397.5439,-347.8217 1418,-342 1571.8062,-298.228 1618.244,-332.1801 1776,-306 1906.5487,-284.335 2066,-370.8342 2066,-238.5 2066,-238.5 2066,-238.5 2066,-124.5 2066,-51.8268 1526.366,-21.0832 1347.1096,-12.8755"/>
<polygon fill="#191970" stroke="#191970" points="1347.2318,-9.3775 1337.084,-12.4228 1346.916,-16.3704 1347.2318,-9.3775"/>
</g>
<!-- Node22 -->
<g id="node22" class="node">
<title>Node22</title>
<g id="a_node22"><a xlink:href="../../d4/d0b/AbsFitterInfo_8h.html" target="_top" xlink:title="AbsFitterInfo.h">
<polygon fill="none" stroke="#ff0000" points="428,-285.5 428,-305.5 518,-305.5 518,-285.5 428,-285.5"/>
<text text-anchor="middle" x="473" y="-292.5" font-family="FreeSans" font-size="10.00" fill="#000000">AbsFitterInfo.h</text>
</a>
</g>
</g>
<!-- Node21&#45;&gt;Node22 -->
<g id="edge40" class="edge">
<title>Node21&#45;&gt;Node22</title>
<path fill="none" stroke="#191970" d="M808.3953,-407.2142C753.6805,-403.1871 657.7189,-392.2514 581,-363 548.0988,-350.4554 514.3384,-327.3975 493.5196,-311.7607"/>
<polygon fill="#191970" stroke="#191970" points="495.4973,-308.8668 485.4298,-305.5658 491.2414,-314.4245 495.4973,-308.8668"/>
</g>
<!-- Node23 -->
<g id="node23" class="node">
<title>Node23</title>
<g id="a_node23"><a xlink:href="../../d7/d22/MeasurementOnPlane_8h.html" target="_top" xlink:title="MeasurementOnPlane.h">
<polygon fill="none" stroke="#ff0000" points="498.5,-228.5 498.5,-248.5 635.5,-248.5 635.5,-228.5 498.5,-228.5"/>
<text text-anchor="middle" x="567" y="-235.5" font-family="FreeSans" font-size="10.00" fill="#000000">MeasurementOnPlane.h</text>
</a>
</g>
</g>
<!-- Node21&#45;&gt;Node23 -->
<g id="edge56" class="edge">
<title>Node21&#45;&gt;Node23</title>
<path fill="none" stroke="#191970" d="M808.2452,-406.4837C706.7074,-398.4019 460.5444,-372.2056 419,-306 398.303,-273.017 442.835,-255.9822 488.3349,-247.2842"/>
<polygon fill="#191970" stroke="#191970" points="489.11,-250.7013 498.3409,-245.5012 487.8819,-243.8099 489.11,-250.7013"/>
</g>
<!-- Node24 -->
<g id="node24" class="node">
<title>Node24</title>
<g id="a_node24"><a xlink:href="../../df/dc0/MeasuredStateOnPlane_8h.html" target="_top" xlink:title="MeasuredStateOnPlane.h">
<polygon fill="none" stroke="#ff0000" points="806,-171.5 806,-191.5 950,-191.5 950,-171.5 806,-171.5"/>
<text text-anchor="middle" x="878" y="-178.5" font-family="FreeSans" font-size="10.00" fill="#000000">MeasuredStateOnPlane.h</text>
</a>
</g>
</g>
<!-- Node21&#45;&gt;Node24 -->
<g id="edge55" class="edge">
<title>Node21&#45;&gt;Node24</title>
<path fill="none" stroke="#191970" d="M832.9015,-399.3811C798.2637,-379.5747 730.6398,-333.3801 753,-285 772.1749,-243.5118 817.2405,-213.0443 847.6853,-196.2894"/>
<polygon fill="#191970" stroke="#191970" points="849.4373,-199.3218 856.6195,-191.5329 846.1477,-193.143 849.4373,-199.3218"/>
</g>
<!-- Node25 -->
<g id="node25" class="node">
<title>Node25</title>
<g id="a_node25"><a xlink:href="../../db/d1a/StateOnPlane_8h.html" target="_top" xlink:title="StateOnPlane.h">
<polygon fill="none" stroke="#ff0000" points="931,-114.5 931,-134.5 1025,-134.5 1025,-114.5 931,-114.5"/>
<text text-anchor="middle" x="978" y="-121.5" font-family="FreeSans" font-size="10.00" fill="#000000">StateOnPlane.h</text>
</a>
</g>
</g>
<!-- Node21&#45;&gt;Node25 -->
<g id="edge57" class="edge">
<title>Node21&#45;&gt;Node25</title>
<path fill="none" stroke="#191970" d="M854.532,-399.3439C857.9197,-386.0535 864.2835,-362.09 871,-342 876.4432,-325.7185 881.8346,-322.8729 885,-306 889.6826,-281.0398 882.4044,-274.3568 881,-249 880.4839,-239.6809 875.9698,-235.8618 881,-228 901.5777,-195.8389 934.2173,-221.0447 959,-192 970.2086,-178.8638 974.8294,-159.5619 976.7216,-144.9597"/>
<polygon fill="#191970" stroke="#191970" points="980.2165,-145.1812 977.7006,-134.8894 973.2493,-144.5038 980.2165,-145.1812"/>
</g>
<!-- Node26 -->
<g id="node26" class="node">
<title>Node26</title>
<g id="a_node26"><a xlink:href="../../d4/daa/AbsHMatrix_8h.html" target="_top" xlink:title="AbsHMatrix.h">
<polygon fill="none" stroke="#ff0000" points="1242,-171.5 1242,-191.5 1326,-191.5 1326,-171.5 1242,-171.5"/>
<text text-anchor="middle" x="1284" y="-178.5" font-family="FreeSans" font-size="10.00" fill="#000000">AbsHMatrix.h</text>
</a>
</g>
</g>
<!-- Node21&#45;&gt;Node26 -->
<g id="edge79" class="edge">
<title>Node21&#45;&gt;Node26</title>
<path fill="none" stroke="#191970" d="M895.8314,-407.0759C998.8844,-401.0902 1254.103,-384.5204 1337,-363 1359.5386,-357.1489 1362.6139,-348.4096 1385,-342 1491.2293,-311.5843 1522.0198,-324.2507 1631,-306 1765.716,-283.4393 1845.8305,-354.1611 1933,-249 1938.9563,-241.8143 1939.3595,-234.8314 1933,-228 1912.7523,-206.2497 1487.2039,-188.8354 1336.4069,-183.3268"/>
<polygon fill="#191970" stroke="#191970" points="1336.1539,-179.8155 1326.0337,-182.9509 1335.9003,-186.8109 1336.1539,-179.8155"/>
</g>
<!-- Node27 -->
<g id="node27" class="node">
<title>Node27</title>
<polygon fill="none" stroke="#bfbfbf" points="333,-171.5 333,-191.5 391,-191.5 391,-171.5 333,-171.5"/>
<text text-anchor="middle" x="362" y="-178.5" font-family="FreeSans" font-size="10.00" fill="#000000">memory</text>
</g>
<!-- Node21&#45;&gt;Node27 -->
<g id="edge81" class="edge">
<title>Node21&#45;&gt;Node27</title>
<path fill="none" stroke="#191970" d="M808.2683,-407.2233C721.0337,-402.1924 528.5771,-388.5032 468,-363 406.1524,-336.9619 387.543,-313.4924 369,-249 364.5745,-233.608 362.8751,-215.5297 362.2546,-201.958"/>
<polygon fill="#191970" stroke="#191970" points="365.7476,-201.6668 361.9509,-191.7757 358.7507,-201.8756 365.7476,-201.6668"/>
</g>
<!-- Node29 -->
<g id="node29" class="node">
<title>Node29</title>
<g id="a_node29"><a xlink:href="../../dc/d73/TrackPoint_8h.html" target="_top" xlink:title="TrackPoint.h">
<polygon fill="none" stroke="#ff0000" points="590,-342.5 590,-362.5 668,-362.5 668,-342.5 590,-342.5"/>
<text text-anchor="middle" x="629" y="-349.5" font-family="FreeSans" font-size="10.00" fill="#000000">TrackPoint.h</text>
</a>
</g>
</g>
<!-- Node21&#45;&gt;Node29 -->
<g id="edge58" class="edge">
<title>Node21&#45;&gt;Node29</title>
<path fill="none" stroke="#191970" d="M812.6454,-399.4408C775.1832,-389.8652 718.6793,-375.4225 678.2473,-365.0879"/>
<polygon fill="#191970" stroke="#191970" points="678.8909,-361.6399 668.3356,-362.5544 677.1573,-368.4219 678.8909,-361.6399"/>
</g>
<!-- Node31 -->
<g id="node31" class="node">
<title>Node31</title>
<g id="a_node31"><a xlink:href="../../df/da2/ThinScatterer_8h.html" target="_top" xlink:title="ThinScatterer.h">
<polygon fill="none" stroke="#ff0000" points="612,-285.5 612,-305.5 706,-305.5 706,-285.5 612,-285.5"/>
<text text-anchor="middle" x="659" y="-292.5" font-family="FreeSans" font-size="10.00" fill="#000000">ThinScatterer.h</text>
</a>
</g>
</g>
<!-- Node21&#45;&gt;Node31 -->
<g id="edge67" class="edge">
<title>Node21&#45;&gt;Node31</title>
<path fill="none" stroke="#191970" d="M808.4948,-400.013C781.4777,-392.7582 746.9,-380.9068 720,-363 700.4009,-349.9533 682.9442,-329.2146 671.78,-314.1651"/>
<polygon fill="#191970" stroke="#191970" points="674.3482,-311.74 665.6789,-305.6494 668.6578,-315.8169 674.3482,-311.74"/>
</g>
<!-- Node21&#45;&gt;Node33 -->
<g id="edge68" class="edge">
<title>Node21&#45;&gt;Node33</title>
<path fill="none" stroke="#191970" d="M895.5967,-408.3768C990.3562,-405.3918 1221.9365,-395.1494 1413,-363 1414.4492,-362.7562 1415.9222,-362.4863 1417.4064,-362.196"/>
<polygon fill="#191970" stroke="#191970" points="1418.213,-365.6024 1427.2318,-360.0426 1416.7143,-358.7647 1418.213,-365.6024"/>
</g>
<!-- Node21&#45;&gt;Node34 -->
<g id="edge69" class="edge">
<title>Node21&#45;&gt;Node34</title>
<path fill="none" stroke="#191970" d="M874.4127,-399.4408C894.6006,-390.3801 924.498,-376.9615 947.1628,-366.7891"/>
<polygon fill="#191970" stroke="#191970" points="948.6941,-369.9383 956.3842,-362.6504 945.8278,-363.552 948.6941,-369.9383"/>
</g>
<!-- Node22&#45;&gt;Node9 -->
<g id="edge54" class="edge">
<title>Node22&#45;&gt;Node9</title>
<path fill="none" stroke="#191970" d="M472.9326,-285.2686C473.3476,-271.0245 476.0079,-245.0518 489,-228 584.8335,-102.2209 652.0069,-109.967 801,-57 870.6801,-32.2288 956.0727,-20.0479 1007.6962,-14.5338"/>
<polygon fill="#191970" stroke="#191970" points="1008.2795,-17.9923 1017.8688,-13.4871 1007.563,-11.0291 1008.2795,-17.9923"/>
</g>
<!-- Node22&#45;&gt;Node23 -->
<g id="edge41" class="edge">
<title>Node22&#45;&gt;Node23</title>
<path fill="none" stroke="#191970" d="M489.8053,-285.3095C504.2417,-276.5556 525.2691,-263.8049 541.7335,-253.8211"/>
<polygon fill="#191970" stroke="#191970" points="543.6042,-256.7801 550.3402,-248.6022 539.9746,-250.7945 543.6042,-256.7801"/>
</g>
<!-- Node28 -->
<g id="node28" class="node">
<title>Node28</title>
<g id="a_node28"><a xlink:href="../../d5/da6/FitStatus_8h.html" target="_top" xlink:title="FitStatus.h">
<polygon fill="none" stroke="#ff0000" points="222.5,-228.5 222.5,-248.5 291.5,-248.5 291.5,-228.5 222.5,-228.5"/>
<text text-anchor="middle" x="257" y="-235.5" font-family="FreeSans" font-size="10.00" fill="#000000">FitStatus.h</text>
</a>
</g>
</g>
<!-- Node22&#45;&gt;Node28 -->
<g id="edge53" class="edge">
<title>Node22&#45;&gt;Node28</title>
<path fill="none" stroke="#191970" d="M434.8807,-285.4408C397.5572,-275.5915 340.7202,-260.5928 301.3819,-250.2119"/>
<polygon fill="#191970" stroke="#191970" points="302.0931,-246.7798 291.531,-247.6124 300.307,-253.5481 302.0931,-246.7798"/>
</g>
<!-- Node23&#45;&gt;Node10 -->
<g id="edge51" class="edge">
<title>Node23&#45;&gt;Node10</title>
<path fill="none" stroke="#191970" d="M566.4893,-228.1733C565.3067,-200.3157 563.2465,-121.3832 574,-57 575.4872,-48.0957 578.1797,-38.505 580.8089,-30.3599"/>
<polygon fill="#191970" stroke="#191970" points="584.2003,-31.259 584.1222,-20.6644 577.5764,-28.9953 584.2003,-31.259"/>
</g>
<!-- Node23&#45;&gt;Node24 -->
<g id="edge42" class="edge">
<title>Node23&#45;&gt;Node24</title>
<path fill="none" stroke="#191970" d="M621.8847,-228.4408C675.43,-218.627 756.8691,-203.7008 813.4851,-193.3243"/>
<polygon fill="#191970" stroke="#191970" points="814.198,-196.752 823.4031,-191.5065 812.936,-189.8667 814.198,-196.752"/>
</g>
<!-- Node23&#45;&gt;Node26 -->
<g id="edge48" class="edge">
<title>Node23&#45;&gt;Node26</title>
<path fill="none" stroke="#191970" d="M635.749,-233.0346C778.425,-221.6922 1103.9812,-195.8111 1231.4441,-185.6781"/>
<polygon fill="#191970" stroke="#191970" points="1232.0247,-189.1431 1241.7158,-184.8615 1231.4699,-182.1651 1232.0247,-189.1431"/>
</g>
<!-- Node23&#45;&gt;Node27 -->
<g id="edge52" class="edge">
<title>Node23&#45;&gt;Node27</title>
<path fill="none" stroke="#191970" d="M530.822,-228.4408C494.4691,-218.3329 438.6111,-202.8016 401.2157,-192.4039"/>
<polygon fill="#191970" stroke="#191970" points="401.7616,-188.923 391.1895,-189.6161 399.8864,-195.6671 401.7616,-188.923"/>
</g>
<!-- Node24&#45;&gt;Node11 -->
<g id="edge47" class="edge">
<title>Node24&#45;&gt;Node11</title>
<path fill="none" stroke="#191970" d="M881.9661,-171.1268C888.199,-156.2229 901.7084,-128.9084 922,-114 1016.3101,-44.7094 1155.2948,-21.7684 1232.6652,-14.2004"/>
<polygon fill="#191970" stroke="#191970" points="1233.0694,-17.6781 1242.7042,-13.2712 1232.4242,-10.7079 1233.0694,-17.6781"/>
</g>
<!-- Node24&#45;&gt;Node19 -->
<g id="edge46" class="edge">
<title>Node24&#45;&gt;Node19</title>
<path fill="none" stroke="#191970" d="M876.0476,-171.3833C872.4364,-152.6703 864.6508,-112.3266 859.915,-87.7866"/>
<polygon fill="#191970" stroke="#191970" points="863.3111,-86.9135 857.9796,-77.7579 856.438,-88.24 863.3111,-86.9135"/>
</g>
<!-- Node24&#45;&gt;Node25 -->
<g id="edge43" class="edge">
<title>Node24&#45;&gt;Node25</title>
<path fill="none" stroke="#191970" d="M895.878,-171.3095C911.2359,-162.5556 933.6054,-149.8049 951.1208,-139.8211"/>
<polygon fill="#191970" stroke="#191970" points="953.3222,-142.595 960.2768,-134.6022 949.8558,-136.5136 953.3222,-142.595"/>
</g>
<!-- Node25&#45;&gt;Node9 -->
<g id="edge45" class="edge">
<title>Node25&#45;&gt;Node9</title>
<path fill="none" stroke="#191970" d="M984.7445,-114.3833C997.5008,-95.2488 1025.3344,-53.4984 1041.5647,-29.1529"/>
<polygon fill="#191970" stroke="#191970" points="1044.5265,-31.0199 1047.1614,-20.7579 1038.7021,-27.137 1044.5265,-31.0199"/>
</g>
<!-- Node25&#45;&gt;Node19 -->
<g id="edge44" class="edge">
<title>Node25&#45;&gt;Node19</title>
<path fill="none" stroke="#191970" d="M956.4697,-114.4408C937.1632,-105.4205 908.6125,-92.0813 886.8757,-81.9255"/>
<polygon fill="#191970" stroke="#191970" points="888.2669,-78.7124 877.7255,-77.6504 885.3039,-85.0544 888.2669,-78.7124"/>
</g>
<!-- Node26&#45;&gt;Node9 -->
<g id="edge50" class="edge">
<title>Node26&#45;&gt;Node9</title>
<path fill="none" stroke="#191970" d="M1282.4447,-171.3577C1278.2541,-147.5989 1264.4738,-88.0109 1228,-57 1208.8278,-40.6993 1144.9765,-26.5139 1100.2101,-18.228"/>
<polygon fill="#191970" stroke="#191970" points="1100.5903,-14.7399 1090.1265,-16.4009 1099.3422,-21.6278 1100.5903,-14.7399"/>
</g>
<!-- Node26&#45;&gt;Node11 -->
<g id="edge49" class="edge">
<title>Node26&#45;&gt;Node11</title>
<path fill="none" stroke="#191970" d="M1284.3574,-171.3153C1285.3222,-143.8178 1287.9939,-67.6748 1289.2842,-30.8993"/>
<polygon fill="#191970" stroke="#191970" points="1292.784,-30.9642 1289.6369,-20.8476 1285.7883,-30.7186 1292.784,-30.9642"/>
</g>
<!-- Node29&#45;&gt;Node6 -->
<g id="edge65" class="edge">
<title>Node29&#45;&gt;Node6</title>
<path fill="none" stroke="#191970" d="M619.1544,-342.2257C606.6529,-327.9308 588.3669,-301.898 603,-285 621.6663,-263.4445 811.2362,-246.9623 890.4768,-240.9618"/>
<polygon fill="#191970" stroke="#191970" points="890.7454,-244.4516 900.4574,-240.2174 890.2247,-237.471 890.7454,-244.4516"/>
</g>
<!-- Node29&#45;&gt;Node22 -->
<g id="edge62" class="edge">
<title>Node29&#45;&gt;Node22</title>
<path fill="none" stroke="#191970" d="M601.4694,-342.4408C576.04,-333.1492 538.0684,-319.275 509.9969,-309.0181"/>
<polygon fill="#191970" stroke="#191970" points="511.1111,-305.699 500.5173,-305.5544 508.7087,-312.2738 511.1111,-305.699"/>
</g>
<!-- Node29&#45;&gt;Node27 -->
<g id="edge66" class="edge">
<title>Node29&#45;&gt;Node27</title>
<path fill="none" stroke="#191970" d="M589.5931,-347.9978C536.2779,-341.2101 444.8484,-326.889 419,-306 386.1741,-279.4723 371.4639,-229.8598 365.5303,-201.9404"/>
<polygon fill="#191970" stroke="#191970" points="368.8944,-200.9028 363.5532,-191.7528 362.0226,-202.2365 368.8944,-200.9028"/>
</g>
<!-- Node30 -->
<g id="node30" class="node">
<title>Node30</title>
<g id="a_node30"><a xlink:href="../../d9/d7a/AbsMeasurement_8h.html" target="_top" xlink:title="AbsMeasurement.h">
<polygon fill="none" stroke="#ff0000" points="762,-285.5 762,-305.5 876,-305.5 876,-285.5 762,-285.5"/>
<text text-anchor="middle" x="819" y="-292.5" font-family="FreeSans" font-size="10.00" fill="#000000">AbsMeasurement.h</text>
</a>
</g>
</g>
<!-- Node29&#45;&gt;Node30 -->
<g id="edge59" class="edge">
<title>Node29&#45;&gt;Node30</title>
<path fill="none" stroke="#191970" d="M662.5308,-342.4408C694.0436,-332.9869 741.3703,-318.7889 775.7201,-308.484"/>
<polygon fill="#191970" stroke="#191970" points="776.9128,-311.7803 785.4854,-305.5544 774.9014,-305.0755 776.9128,-311.7803"/>
</g>
<!-- Node29&#45;&gt;Node31 -->
<g id="edge63" class="edge">
<title>Node29&#45;&gt;Node31</title>
<path fill="none" stroke="#191970" d="M634.3634,-342.3095C638.4162,-334.6093 644.0965,-323.8166 648.9817,-314.5349"/>
<polygon fill="#191970" stroke="#191970" points="652.1227,-316.0816 653.683,-305.6022 645.9283,-312.8213 652.1227,-316.0816"/>
</g>
<!-- Node29&#45;&gt;Node32 -->
<g id="edge64" class="edge">
<title>Node29&#45;&gt;Node32</title>
<path fill="none" stroke="#191970" d="M589.8741,-346.1822C518.7737,-334.7014 369.8378,-310.6523 306.0455,-300.3515"/>
<polygon fill="#191970" stroke="#191970" points="306.2906,-296.8459 295.8605,-298.7069 305.1747,-303.7564 306.2906,-296.8459"/>
</g>
<!-- Node30&#45;&gt;Node23 -->
<g id="edge60" class="edge">
<title>Node30&#45;&gt;Node23</title>
<path fill="none" stroke="#191970" d="M774.5275,-285.4408C731.7451,-275.7638 666.9864,-261.116 621.2058,-250.7608"/>
<polygon fill="#191970" stroke="#191970" points="621.9768,-247.3469 611.451,-248.5544 620.4324,-254.1744 621.9768,-247.3469"/>
</g>
<!-- Node30&#45;&gt;Node26 -->
<g id="edge61" class="edge">
<title>Node30&#45;&gt;Node26</title>
<path fill="none" stroke="#191970" d="M859.8581,-285.4832C944.8544,-264.6454 1140.5042,-216.6796 1233.3402,-193.9198"/>
<polygon fill="#191970" stroke="#191970" points="1234.1894,-197.3154 1243.0684,-191.5348 1232.5226,-190.5167 1234.1894,-197.3154"/>
</g>
<!-- Node34&#45;&gt;Node10 -->
<g id="edge72" class="edge">
<title>Node34&#45;&gt;Node10</title>
<path fill="none" stroke="#191970" d="M966.3892,-342.3977C948.7725,-328.5328 915.5199,-303.2521 885,-285 804.3108,-236.7448 770.2303,-248.389 695,-192 667.561,-171.433 663.7919,-162.269 643,-135 624.8326,-111.1731 619.1862,-105.3729 607,-78 600.202,-62.7301 595.2307,-44.4239 592.082,-30.7303"/>
<polygon fill="#191970" stroke="#191970" points="595.4866,-29.9149 589.9476,-20.8833 588.6455,-31.3979 595.4866,-29.9149"/>
</g>
<!-- Node34&#45;&gt;Node25 -->
<g id="edge71" class="edge">
<title>Node34&#45;&gt;Node25</title>
<path fill="none" stroke="#191970" d="M977.8339,-342.2267C975.7368,-327.9329 970.141,-301.9016 956,-285 934.8089,-259.6721 907.7659,-277.4513 891,-249 857.1374,-191.5361 962.5591,-233.7489 992,-192 1001.9752,-177.8545 996.2114,-158.1486 989.3081,-143.6795"/>
<polygon fill="#191970" stroke="#191970" points="992.2934,-141.8375 984.5263,-134.6317 986.1046,-145.1084 992.2934,-141.8375"/>
</g>
<!-- Node34&#45;&gt;Node30 -->
<g id="edge70" class="edge">
<title>Node34&#45;&gt;Node30</title>
<path fill="none" stroke="#191970" d="M950.7635,-342.4408C924.682,-333.1492 885.7368,-319.275 856.9455,-309.0181"/>
<polygon fill="#191970" stroke="#191970" points="857.8175,-305.6133 847.2228,-305.5544 855.4683,-312.2074 857.8175,-305.6133"/>
</g>
<!-- Node34&#45;&gt;Node35 -->
<g id="edge73" class="edge">
<title>Node34&#45;&gt;Node35</title>
<path fill="none" stroke="#191970" d="M990.4419,-342.3095C999.7249,-334.0419 1013.0106,-322.2093 1023.9015,-312.5096"/>
<polygon fill="#191970" stroke="#191970" points="1026.5173,-314.8668 1031.6571,-305.6022 1021.8616,-309.6395 1026.5173,-314.8668"/>
</g>
<!-- Node36&#45;&gt;Node3 -->
<g id="edge87" class="edge">
<title>Node36&#45;&gt;Node3</title>
<path fill="none" stroke="#191970" d="M1255.6623,-456.3833C1260.609,-437.586 1271.2993,-396.9627 1277.7484,-372.4559"/>
<polygon fill="#191970" stroke="#191970" points="1281.1403,-373.3194 1280.3005,-362.7579 1274.3708,-371.5379 1281.1403,-373.3194"/>
</g>
<!-- Node36&#45;&gt;Node21 -->
<g id="edge85" class="edge">
<title>Node36&#45;&gt;Node21</title>
<path fill="none" stroke="#191970" d="M1209.9426,-457.735C1206.5829,-457.1229 1203.2389,-456.5367 1200,-456 1096.1866,-438.7982 974.1298,-423.6502 905.6463,-415.6089"/>
<polygon fill="#191970" stroke="#191970" points="905.8714,-412.1115 895.5328,-414.4274 905.0591,-419.0642 905.8714,-412.1115"/>
</g>
<!-- Node36&#45;&gt;Node28 -->
<g id="edge83" class="edge">
<title>Node36&#45;&gt;Node28</title>
<path fill="none" stroke="#191970" d="M1209.9669,-457.578C1206.6016,-457.0016 1203.2498,-456.4664 1200,-456 1022.8762,-430.5771 976.6438,-441.4903 799,-420 632.0754,-399.8065 588.6918,-401.4266 425,-363 344.1301,-344.0158 295.9691,-373.0997 247,-306 236.997,-292.2934 241.3181,-272.7939 247.0657,-258.2746"/>
<polygon fill="#191970" stroke="#191970" points="250.4428,-259.2952 251.3186,-248.7366 244.0495,-256.4444 250.4428,-259.2952"/>
</g>
<!-- Node36&#45;&gt;Node33 -->
<g id="edge84" class="edge">
<title>Node36&#45;&gt;Node33</title>
<path fill="none" stroke="#191970" d="M1270.8374,-456.3833C1306.2987,-436.2709 1385.8153,-391.1719 1427.4432,-367.5621"/>
<polygon fill="#191970" stroke="#191970" points="1429.2309,-370.572 1436.2026,-362.5941 1425.7775,-364.4831 1429.2309,-370.572"/>
</g>
<!-- Node37 -->
<g id="node37" class="node">
<title>Node37</title>
<polygon fill="none" stroke="#bfbfbf" points="1151,-399.5 1151,-419.5 1251,-419.5 1251,-399.5 1151,-399.5"/>
<text text-anchor="middle" x="1201" y="-406.5" font-family="FreeSans" font-size="10.00" fill="#000000">Math/ProbFunc.h</text>
</g>
<!-- Node36&#45;&gt;Node37 -->
<g id="edge86" class="edge">
<title>Node36&#45;&gt;Node37</title>
<path fill="none" stroke="#191970" d="M1243.7034,-456.3095C1236.3089,-448.204 1225.7884,-436.672 1217.0402,-427.0826"/>
<polygon fill="#191970" stroke="#191970" points="1219.5414,-424.631 1210.2161,-419.6022 1214.37,-429.3488 1219.5414,-424.631"/>
</g>
<!-- Node38&#45;&gt;Node2 -->
<g id="edge93" class="edge">
<title>Node38&#45;&gt;Node2</title>
<path fill="none" stroke="#191970" d="M1028.4024,-476.5457C923.252,-488.9725 744.2865,-509.6114 661.4182,-518.8174"/>
<polygon fill="#191970" stroke="#191970" points="660.8803,-515.3555 651.326,-519.9344 661.6504,-522.313 660.8803,-515.3555"/>
</g>
<!-- Node38&#45;&gt;Node3 -->
<g id="edge92" class="edge">
<title>Node38&#45;&gt;Node3</title>
<path fill="none" stroke="#191970" d="M1106.2396,-456.1278C1101.7412,-441.7165 1096.2948,-415.5465 1109,-399 1116.4226,-389.3333 1179.3425,-374.1938 1227.4082,-363.8331"/>
<polygon fill="#191970" stroke="#191970" points="1228.3645,-367.2079 1237.4141,-361.6984 1226.9039,-360.362 1228.3645,-367.2079"/>
</g>
<!-- Node38&#45;&gt;Node20 -->
<g id="edge94" class="edge">
<title>Node38&#45;&gt;Node20</title>
<path fill="none" stroke="#191970" d="M1028.1777,-462.1025C846.9784,-451.4247 417.43,-420.67 285,-363 210.765,-330.6725 152,-319.4685 152,-238.5 152,-238.5 152,-238.5 152,-181.5 152,-121.4386 112.364,-58.945 90.3397,-28.8557"/>
<polygon fill="#191970" stroke="#191970" points="92.9388,-26.4884 84.1333,-20.5966 87.3427,-30.6936 92.9388,-26.4884"/>
</g>
<!-- Node38&#45;&gt;Node21 -->
<g id="edge90" class="edge">
<title>Node38&#45;&gt;Node21</title>
<path fill="none" stroke="#191970" d="M1064.4687,-456.4408C1020.1285,-446.6447 952.7316,-431.7547 905.7747,-421.3805"/>
<polygon fill="#191970" stroke="#191970" points="906.3052,-417.9133 895.7856,-419.1736 904.795,-424.7485 906.3052,-417.9133"/>
</g>
<!-- Node38&#45;&gt;Node33 -->
<g id="edge89" class="edge">
<title>Node38&#45;&gt;Node33</title>
<path fill="none" stroke="#191970" d="M1111.6951,-456.3266C1114.8007,-441.1569 1122.9289,-412.9075 1142,-399 1191.0856,-363.2045 1353.358,-374.5563 1413,-363 1414.4427,-362.7205 1415.9103,-362.4205 1417.3899,-362.105"/>
<polygon fill="#191970" stroke="#191970" points="1418.2357,-365.502 1427.1969,-359.8498 1416.6669,-358.68 1418.2357,-365.502"/>
</g>
<!-- Node38&#45;&gt;Node37 -->
<g id="edge91" class="edge">
<title>Node38&#45;&gt;Node37</title>
<path fill="none" stroke="#191970" d="M1126.269,-456.3095C1140.1152,-447.6366 1160.2245,-435.0407 1176.096,-425.0992"/>
<polygon fill="#191970" stroke="#191970" points="1178.2551,-427.8768 1184.8719,-419.6022 1174.5392,-421.9445 1178.2551,-427.8768"/>
</g>
<!-- Node47&#45;&gt;Node8 -->
<g id="edge114" class="edge">
<title>Node47&#45;&gt;Node8</title>
<path fill="none" stroke="#191970" d="M1913.1143,-513.2216C1907.7991,-493.3546 1897,-448.2248 1897,-409.5 1897,-409.5 1897,-409.5 1897,-352.5 1897,-319.6081 1894.4784,-281.4517 1892.7046,-258.6802"/>
<polygon fill="#191970" stroke="#191970" points="1896.1805,-258.2406 1891.8853,-248.5554 1889.2033,-258.8052 1896.1805,-258.2406"/>
</g>
<!-- Node47&#45;&gt;Node45 -->
<g id="edge115" class="edge">
<title>Node47&#45;&gt;Node45</title>
<path fill="none" stroke="#191970" d="M1925.8329,-513.3095C1933.654,-505.204 1944.7815,-493.672 1954.0344,-484.0826"/>
<polygon fill="#191970" stroke="#191970" points="1956.8272,-486.2288 1961.2522,-476.6022 1951.7898,-481.3681 1956.8272,-486.2288"/>
</g>
<!-- Node48&#45;&gt;Node26 -->
<g id="edge117" class="edge">
<title>Node48&#45;&gt;Node26</title>
<path fill="none" stroke="#191970" d="M2028.2189,-399.0795C2028.2582,-367.2939 2023.5948,-271.1209 1968,-228 1943.1195,-208.7019 1491.8998,-189.5314 1336.2613,-183.4667"/>
<polygon fill="#191970" stroke="#191970" points="1336.138,-179.9594 1326.0099,-183.0695 1335.8669,-186.9541 1336.138,-179.9594"/>
</g>
<!-- Node49&#45;&gt;Node26 -->
<g id="edge119" class="edge">
<title>Node49&#45;&gt;Node26</title>
<path fill="none" stroke="#191970" d="M1805.1238,-399.4027C1862.8375,-371.7972 2009.4298,-292.8028 1949,-228 1928.1676,-205.66 1489.3056,-188.5384 1336.1666,-183.2247"/>
<polygon fill="#191970" stroke="#191970" points="1336.1862,-179.7234 1326.0716,-182.8772 1335.9453,-186.7192 1336.1862,-179.7234"/>
</g>
</g>
</svg>
