<?xml version="1.0" encoding="UTF-8" standalone="no"?>
<!DOCTYPE svg PUBLIC "-//W3C//DTD SVG 1.1//EN"
 "http://www.w3.org/Graphics/SVG/1.1/DTD/svg11.dtd">
<!-- Generated by graphviz version 2.40.1 (20161225.0304)
 -->
<!-- Title: coresoftware/blob/master/offline/packages/trackreco/PHGenFitTrkProp.cc Pages: 1 -->
<svg width="4450pt" height="374pt"
 viewBox="0.00 0.00 4450.03 374.00" xmlns="http://www.w3.org/2000/svg" xmlns:xlink="http://www.w3.org/1999/xlink">
<g id="graph0" class="graph" transform="scale(1 1) rotate(0) translate(4 370)">
<title>coresoftware/blob/master/offline/packages/trackreco/PHGenFitTrkProp.cc</title>
<!-- Node1 -->
<g id="node1" class="node">
<title>Node1</title>
<polygon fill="#bfbfbf" stroke="#000000" points="1784.0271,-321.5 1784.0271,-365.5 1938.0271,-365.5 1938.0271,-321.5 1784.0271,-321.5"/>
<text text-anchor="start" x="1792.0271" y="-352.5" font-family="FreeSans" font-size="10.00" fill="#000000">coresoftware/blob/master</text>
<text text-anchor="start" x="1792.0271" y="-340.5" font-family="FreeSans" font-size="10.00" fill="#000000">/offline/packages/trackreco</text>
<text text-anchor="middle" x="1861.0271" y="-328.5" font-family="FreeSans" font-size="10.00" fill="#000000">/PHGenFitTrkProp.cc</text>
</g>
<!-- Node2 -->
<g id="node2" class="node">
<title>Node2</title>
<g id="a_node2"><a xlink:href="../../d8/dba/PHGenFitTrkProp_8h.html" target="_top" xlink:title="Progressive pattern recgnition based on GenFit Kalman filter &#160;using Alan Dion&#39;s HelixHough for seedin...">
<polygon fill="none" stroke="#ff0000" points="364.0271,-264.5 364.0271,-284.5 472.0271,-284.5 472.0271,-264.5 364.0271,-264.5"/>
<text text-anchor="middle" x="418.0271" y="-271.5" font-family="FreeSans" font-size="10.00" fill="#000000">PHGenFitTrkProp.h</text>
</a>
</g>
</g>
<!-- Node1&#45;&gt;Node2 -->
<g id="edge1" class="edge">
<title>Node1&#45;&gt;Node2</title>
<path fill="none" stroke="#191970" d="M1784.0206,-342.5568C1576.169,-339.5004 986.4647,-327.4534 498.0271,-285 492.9246,-284.5565 487.6478,-284.0255 482.3505,-283.4411"/>
<polygon fill="#191970" stroke="#191970" points="482.5157,-279.9368 472.1787,-282.2602 481.7084,-286.8901 482.5157,-279.9368"/>
</g>
<!-- Node4 -->
<g id="node4" class="node">
<title>Node4</title>
<g id="a_node4"><a xlink:href="../../d7/d9f/SvtxTrackMap_8h.html" target="_top" xlink:title="trackbase_historic\l/SvtxTrackMap.h">
<polygon fill="none" stroke="#ff0000" points="1372.0271,-195.5 1372.0271,-227.5 1480.0271,-227.5 1480.0271,-195.5 1372.0271,-195.5"/>
<text text-anchor="start" x="1380.0271" y="-214.5" font-family="FreeSans" font-size="10.00" fill="#000000">trackbase_historic</text>
<text text-anchor="middle" x="1426.0271" y="-202.5" font-family="FreeSans" font-size="10.00" fill="#000000">/SvtxTrackMap.h</text>
</a>
</g>
</g>
<!-- Node1&#45;&gt;Node4 -->
<g id="edge28" class="edge">
<title>Node1&#45;&gt;Node4</title>
<path fill="none" stroke="#191970" d="M1783.8177,-337.1533C1691.373,-328.5315 1542.8836,-311.1323 1494.0271,-285 1472.4888,-273.4797 1454.1088,-252.4638 1441.9084,-235.8463"/>
<polygon fill="#191970" stroke="#191970" points="1444.7348,-233.7811 1436.1077,-227.6309 1439.0165,-237.8187 1444.7348,-233.7811"/>
</g>
<!-- Node5 -->
<g id="node5" class="node">
<title>Node5</title>
<g id="a_node5"><a xlink:href="../../d0/d87/SvtxTrack_8h.html" target="_top" xlink:title="SvtxTrack.h">
<polygon fill="none" stroke="#ff0000" points="1410.0271,-132.5 1410.0271,-152.5 1484.0271,-152.5 1484.0271,-132.5 1410.0271,-132.5"/>
<text text-anchor="middle" x="1447.0271" y="-139.5" font-family="FreeSans" font-size="10.00" fill="#000000">SvtxTrack.h</text>
</a>
</g>
</g>
<!-- Node1&#45;&gt;Node5 -->
<g id="edge27" class="edge">
<title>Node1&#45;&gt;Node5</title>
<path fill="none" stroke="#191970" d="M1783.7389,-337.8756C1699.221,-330.3407 1570.6329,-314.3805 1532.0271,-285 1496.7501,-258.1529 1512.5836,-232.5543 1489.0271,-195 1481.4475,-182.9165 1471.5338,-170.4061 1463.2415,-160.6299"/>
<polygon fill="#191970" stroke="#191970" points="1465.6667,-158.0843 1456.4711,-152.822 1460.378,-162.6702 1465.6667,-158.0843"/>
</g>
<!-- Node6 -->
<g id="node6" class="node">
<title>Node6</title>
<g id="a_node6"><a xlink:href="../../d8/d00/TrkrDefs_8h.html" target="_top" xlink:title="Namespace with Trkr key types and utility functions.">
<polygon fill="none" stroke="#ff0000" points="679.0271,-63.5 679.0271,-83.5 799.0271,-83.5 799.0271,-63.5 679.0271,-63.5"/>
<text text-anchor="middle" x="739.0271" y="-70.5" font-family="FreeSans" font-size="10.00" fill="#000000">trackbase/TrkrDefs.h</text>
</a>
</g>
</g>
<!-- Node1&#45;&gt;Node6 -->
<g id="edge26" class="edge">
<title>Node1&#45;&gt;Node6</title>
<path fill="none" stroke="#191970" d="M1783.6799,-342.0113C1542.4081,-337.0273 813.6809,-319.2774 713.0271,-285 611.3517,-250.3747 465.0218,-210.7354 531.0271,-126 548.0131,-104.194 615.2289,-90.0251 668.7157,-81.968"/>
<polygon fill="#191970" stroke="#191970" points="669.4795,-85.3937 678.869,-80.4859 668.4683,-78.4671 669.4795,-85.3937"/>
</g>
<!-- Node7 -->
<g id="node7" class="node">
<title>Node7</title>
<polygon fill="none" stroke="#bfbfbf" points="1569.0271,-.5 1569.0271,-20.5 1629.0271,-20.5 1629.0271,-.5 1569.0271,-.5"/>
<text text-anchor="middle" x="1599.0271" y="-7.5" font-family="FreeSans" font-size="10.00" fill="#000000">iostream</text>
</g>
<!-- Node1&#45;&gt;Node7 -->
<g id="edge93" class="edge">
<title>Node1&#45;&gt;Node7</title>
<path fill="none" stroke="#191970" d="M1938.4407,-342.3069C2218.6978,-337.7117 3166.7503,-319.6606 3221.0271,-285 3252.0208,-265.2077 3259.0271,-248.2743 3259.0271,-211.5 3259.0271,-211.5 3259.0271,-211.5 3259.0271,-142.5 3259.0271,-58.6001 1893.744,-18.3124 1639.5164,-11.5378"/>
<polygon fill="#191970" stroke="#191970" points="1639.3456,-8.0321 1629.2565,-11.2666 1639.1605,-15.0297 1639.3456,-8.0321"/>
</g>
<!-- Node8 -->
<g id="node8" class="node">
<title>Node8</title>
<polygon fill="none" stroke="#bfbfbf" points="1627.0271,-63.5 1627.0271,-83.5 1675.0271,-83.5 1675.0271,-63.5 1627.0271,-63.5"/>
<text text-anchor="middle" x="1651.0271" y="-70.5" font-family="FreeSans" font-size="10.00" fill="#000000">cmath</text>
</g>
<!-- Node1&#45;&gt;Node8 -->
<g id="edge91" class="edge">
<title>Node1&#45;&gt;Node8</title>
<path fill="none" stroke="#191970" d="M1783.7958,-333.4634C1720.0005,-323.7627 1635.8782,-307.2649 1610.0271,-285 1553.8974,-236.6568 1522.9776,-190.1478 1560.0271,-126 1572.2565,-104.8259 1596.6333,-91.431 1617.081,-83.4746"/>
<polygon fill="#191970" stroke="#191970" points="1618.5124,-86.6791 1626.7329,-79.9953 1616.1385,-80.0939 1618.5124,-86.6791"/>
</g>
<!-- Node10 -->
<g id="node10" class="node">
<title>Node10</title>
<polygon fill="none" stroke="#bfbfbf" points="16.0271,-201.5 16.0271,-221.5 114.0271,-221.5 114.0271,-201.5 16.0271,-201.5"/>
<text text-anchor="middle" x="65.0271" y="-208.5" font-family="FreeSans" font-size="10.00" fill="#000000">phgenfit/Track.h</text>
</g>
<!-- Node1&#45;&gt;Node10 -->
<g id="edge80" class="edge">
<title>Node1&#45;&gt;Node10</title>
<path fill="none" stroke="#191970" d="M1783.6379,-342.5596C1516.6533,-338.9923 635.1791,-324.4428 355.0271,-285 264.2428,-272.2184 160.7797,-242.1195 105.2826,-224.6607"/>
<polygon fill="#191970" stroke="#191970" points="106.0823,-221.2425 95.4921,-221.5548 103.9656,-227.9149 106.0823,-221.2425"/>
</g>
<!-- Node12 -->
<g id="node12" class="node">
<title>Node12</title>
<polygon fill="none" stroke="#bfbfbf" points="709.0271,-201.5 709.0271,-221.5 767.0271,-221.5 767.0271,-201.5 709.0271,-201.5"/>
<text text-anchor="middle" x="738.0271" y="-208.5" font-family="FreeSans" font-size="10.00" fill="#000000">memory</text>
</g>
<!-- Node1&#45;&gt;Node12 -->
<g id="edge94" class="edge">
<title>Node1&#45;&gt;Node12</title>
<path fill="none" stroke="#191970" d="M1783.8868,-341.3192C1543.8674,-334.2723 823.732,-311.0525 781.0271,-285 761.4829,-273.0769 749.8492,-248.6831 743.7072,-231.2692"/>
<polygon fill="#191970" stroke="#191970" points="746.9609,-229.9536 740.5711,-221.5025 740.296,-232.0937 746.9609,-229.9536"/>
</g>
<!-- Node13 -->
<g id="node13" class="node">
<title>Node13</title>
<g id="a_node13"><a xlink:href="../../dd/d79/AssocInfoContainer_8h.html" target="_top" xlink:title="AssocInfoContainer.h">
<polygon fill="none" stroke="#ff0000" points="802.5271,-132.5 802.5271,-152.5 925.5271,-152.5 925.5271,-132.5 802.5271,-132.5"/>
<text text-anchor="middle" x="864.0271" y="-139.5" font-family="FreeSans" font-size="10.00" fill="#000000">AssocInfoContainer.h</text>
</a>
</g>
</g>
<!-- Node1&#45;&gt;Node13 -->
<g id="edge15" class="edge">
<title>Node1&#45;&gt;Node13</title>
<path fill="none" stroke="#191970" d="M1783.7726,-340.2374C1596.485,-331.9875 1128.6982,-309.2202 1062.0271,-285 986.0648,-257.4045 913.3309,-191.7689 881.2211,-160.1386"/>
<polygon fill="#191970" stroke="#191970" points="883.5018,-157.4694 873.9557,-152.8735 878.5521,-162.4193 883.5018,-157.4694"/>
</g>
<!-- Node14 -->
<g id="node14" class="node">
<title>Node14</title>
<g id="a_node14"><a xlink:href="../../d1/d4a/TrkrCluster_8h.html" target="_top" xlink:title="Base class for cluster object.">
<polygon fill="none" stroke="#ff0000" points="944.0271,-132.5 944.0271,-152.5 1076.0271,-152.5 1076.0271,-132.5 944.0271,-132.5"/>
<text text-anchor="middle" x="1010.0271" y="-139.5" font-family="FreeSans" font-size="10.00" fill="#000000">trackbase/TrkrCluster.h</text>
</a>
</g>
</g>
<!-- Node1&#45;&gt;Node14 -->
<g id="edge18" class="edge">
<title>Node1&#45;&gt;Node14</title>
<path fill="none" stroke="#191970" d="M1783.9766,-341.751C1600.2866,-337.0038 1147.581,-321.6864 1090.0271,-285 1045.7266,-256.7617 1023.6578,-194.8203 1014.837,-162.7054"/>
<polygon fill="#191970" stroke="#191970" points="1018.1414,-161.5028 1012.2547,-152.6939 1011.3633,-163.2512 1018.1414,-161.5028"/>
</g>
<!-- Node15 -->
<g id="node15" class="node">
<title>Node15</title>
<polygon fill="none" stroke="#bfbfbf" points="1068.5271,-63.5 1068.5271,-83.5 1117.5271,-83.5 1117.5271,-63.5 1068.5271,-63.5"/>
<text text-anchor="middle" x="1093.0271" y="-70.5" font-family="FreeSans" font-size="10.00" fill="#000000">climits</text>
</g>
<!-- Node1&#45;&gt;Node15 -->
<g id="edge90" class="edge">
<title>Node1&#45;&gt;Node15</title>
<path fill="none" stroke="#191970" d="M1783.796,-340.3566C1618.73,-333.1214 1242.4429,-313.681 1192.0271,-285 1121.5325,-244.8964 1100.7584,-138.3195 1095.0449,-93.6469"/>
<polygon fill="#191970" stroke="#191970" points="1098.5206,-93.2335 1093.8958,-83.7014 1091.5668,-94.0371 1098.5206,-93.2335"/>
</g>
<!-- Node16 -->
<g id="node16" class="node">
<title>Node16</title>
<g id="a_node16"><a xlink:href="../../d2/d44/TrkrClusterContainer_8h.html" target="_top" xlink:title="Cluster container object.">
<polygon fill="none" stroke="#ff0000" points="264.5271,-132.5 264.5271,-152.5 445.5271,-152.5 445.5271,-132.5 264.5271,-132.5"/>
<text text-anchor="middle" x="355.0271" y="-139.5" font-family="FreeSans" font-size="10.00" fill="#000000">trackbase/TrkrClusterContainer.h</text>
</a>
</g>
</g>
<!-- Node1&#45;&gt;Node16 -->
<g id="edge23" class="edge">
<title>Node1&#45;&gt;Node16</title>
<path fill="none" stroke="#191970" d="M1783.9592,-342.7181C1505.1493,-339.5759 549.5387,-325.998 247.0271,-285 138.3865,-270.2764 75.0056,-314.0144 7.0271,-228 -2.067,-216.4931 -2.5391,-206.1176 7.0271,-195 23.0966,-176.3244 157.0587,-160.3415 253.9788,-151.0716"/>
<polygon fill="#191970" stroke="#191970" points="254.4963,-154.5384 264.1226,-150.1129 253.8376,-147.5695 254.4963,-154.5384"/>
</g>
<!-- Node17 -->
<g id="node17" class="node">
<title>Node17</title>
<g id="a_node17"><a xlink:href="../../dc/dc1/SvtxVertex_8h.html" target="_top" xlink:title="trackbase_historic\l/SvtxVertex.h">
<polygon fill="none" stroke="#ff0000" points="1132.0271,-126.5 1132.0271,-158.5 1240.0271,-158.5 1240.0271,-126.5 1132.0271,-126.5"/>
<text text-anchor="start" x="1140.0271" y="-145.5" font-family="FreeSans" font-size="10.00" fill="#000000">trackbase_historic</text>
<text text-anchor="middle" x="1186.0271" y="-133.5" font-family="FreeSans" font-size="10.00" fill="#000000">/SvtxVertex.h</text>
</a>
</g>
</g>
<!-- Node1&#45;&gt;Node17 -->
<g id="edge29" class="edge">
<title>Node1&#45;&gt;Node17</title>
<path fill="none" stroke="#191970" d="M1783.8625,-340.1052C1644.1117,-333.2794 1354.7214,-315.8476 1259.0271,-285 1211.0701,-269.5408 1186.1507,-271.6769 1161.0271,-228 1150.1266,-209.0498 1158.887,-184.958 1168.9191,-167.1808"/>
<polygon fill="#191970" stroke="#191970" points="1171.9797,-168.8839 1174.1837,-158.5208 1165.9982,-165.2476 1171.9797,-168.8839"/>
</g>
<!-- Node18 -->
<g id="node18" class="node">
<title>Node18</title>
<g id="a_node18"><a xlink:href="../../d0/d19/SvtxVertexMap_8h.html" target="_top" xlink:title="trackbase_historic\l/SvtxVertexMap.h">
<polygon fill="none" stroke="#ff0000" points="1170.0271,-195.5 1170.0271,-227.5 1278.0271,-227.5 1278.0271,-195.5 1170.0271,-195.5"/>
<text text-anchor="start" x="1178.0271" y="-214.5" font-family="FreeSans" font-size="10.00" fill="#000000">trackbase_historic</text>
<text text-anchor="middle" x="1224.0271" y="-202.5" font-family="FreeSans" font-size="10.00" fill="#000000">/SvtxVertexMap.h</text>
</a>
</g>
</g>
<!-- Node1&#45;&gt;Node18 -->
<g id="edge33" class="edge">
<title>Node1&#45;&gt;Node18</title>
<path fill="none" stroke="#191970" d="M1783.8964,-342.2477C1648.9715,-338.9656 1376.4201,-327.1651 1292.0271,-285 1270.0444,-274.0168 1251.605,-252.7524 1239.4984,-235.9099"/>
<polygon fill="#191970" stroke="#191970" points="1242.3163,-233.8308 1233.7595,-227.5832 1236.5527,-237.8033 1242.3163,-233.8308"/>
</g>
<!-- Node19 -->
<g id="node19" class="node">
<title>Node19</title>
<g id="a_node19"><a xlink:href="../../d4/da1/PHG4CylinderCellGeom_8h.html" target="_top" xlink:title="g4detectors/PHG4Cylinder\lCellGeom.h">
<polygon fill="none" stroke="#ff0000" points="1212.5271,-57.5 1212.5271,-89.5 1363.5271,-89.5 1363.5271,-57.5 1212.5271,-57.5"/>
<text text-anchor="start" x="1220.5271" y="-76.5" font-family="FreeSans" font-size="10.00" fill="#000000">g4detectors/PHG4Cylinder</text>
<text text-anchor="middle" x="1288.0271" y="-64.5" font-family="FreeSans" font-size="10.00" fill="#000000">CellGeom.h</text>
</a>
</g>
</g>
<!-- Node1&#45;&gt;Node19 -->
<g id="edge36" class="edge">
<title>Node1&#45;&gt;Node19</title>
<path fill="none" stroke="#191970" d="M1783.6669,-339.6785C1671.4416,-333.1123 1469.8115,-317.1716 1405.0271,-285 1332.6992,-249.0823 1302.9967,-147.6449 1292.7065,-99.4928"/>
<polygon fill="#191970" stroke="#191970" points="1296.1055,-98.6423 1290.6948,-89.5333 1289.2441,-100.0283 1296.1055,-98.6423"/>
</g>
<!-- Node20 -->
<g id="node20" class="node">
<title>Node20</title>
<g id="a_node20"><a xlink:href="../../d4/d90/PHG4CylinderCellGeomContainer_8h.html" target="_top" xlink:title="g4detectors/PHG4Cylinder\lCellGeomContainer.h">
<polygon fill="none" stroke="#ff0000" points="1381.5271,-57.5 1381.5271,-89.5 1532.5271,-89.5 1532.5271,-57.5 1381.5271,-57.5"/>
<text text-anchor="start" x="1389.5271" y="-76.5" font-family="FreeSans" font-size="10.00" fill="#000000">g4detectors/PHG4Cylinder</text>
<text text-anchor="middle" x="1457.0271" y="-64.5" font-family="FreeSans" font-size="10.00" fill="#000000">CellGeomContainer.h</text>
</a>
</g>
</g>
<!-- Node1&#45;&gt;Node20 -->
<g id="edge38" class="edge">
<title>Node1&#45;&gt;Node20</title>
<path fill="none" stroke="#191970" d="M1783.9262,-338.7101C1654.8623,-328.7251 1405.0243,-300.279 1363.0271,-228 1339.4675,-187.453 1362.0381,-163.6261 1390.0271,-126 1398.6018,-114.4729 1410.3264,-104.1294 1421.5719,-95.733"/>
<polygon fill="#191970" stroke="#191970" points="1423.9121,-98.3628 1430.018,-89.7044 1419.8453,-92.6653 1423.9121,-98.3628"/>
</g>
<!-- Node21 -->
<g id="node21" class="node">
<title>Node21</title>
<g id="a_node21"><a xlink:href="../../d9/d44/PHG4CylinderGeom_8h.html" target="_top" xlink:title="g4detectors/PHG4Cylinder\lGeom.h">
<polygon fill="none" stroke="#ff0000" points="1786.5271,-126.5 1786.5271,-158.5 1937.5271,-158.5 1937.5271,-126.5 1786.5271,-126.5"/>
<text text-anchor="start" x="1794.5271" y="-145.5" font-family="FreeSans" font-size="10.00" fill="#000000">g4detectors/PHG4Cylinder</text>
<text text-anchor="middle" x="1862.0271" y="-133.5" font-family="FreeSans" font-size="10.00" fill="#000000">Geom.h</text>
</a>
</g>
</g>
<!-- Node1&#45;&gt;Node21 -->
<g id="edge40" class="edge">
<title>Node1&#45;&gt;Node21</title>
<path fill="none" stroke="#191970" d="M1783.5561,-327.3266C1741.8002,-316.8693 1696.3491,-302.0501 1684.0271,-285 1678.5602,-277.4354 1679.0985,-271.9259 1684.0271,-264 1703.13,-233.2799 1726.5863,-247.5448 1757.0271,-228 1772.8244,-217.8572 1809.7798,-187.0908 1835.344,-165.3823"/>
<polygon fill="#191970" stroke="#191970" points="1837.8584,-167.8383 1843.2025,-158.69 1833.3199,-162.5089 1837.8584,-167.8383"/>
</g>
<!-- Node22 -->
<g id="node22" class="node">
<title>Node22</title>
<g id="a_node22"><a xlink:href="../../d5/d6f/phool_8h.html" target="_top" xlink:title="phool/phool.h">
<polygon fill="none" stroke="#000000" points="1824.5271,-63.5 1824.5271,-83.5 1909.5271,-83.5 1909.5271,-63.5 1824.5271,-63.5"/>
<text text-anchor="middle" x="1867.0271" y="-70.5" font-family="FreeSans" font-size="10.00" fill="#000000">phool/phool.h</text>
</a>
</g>
</g>
<!-- Node1&#45;&gt;Node22 -->
<g id="edge67" class="edge">
<title>Node1&#45;&gt;Node22</title>
<path fill="none" stroke="#191970" d="M1783.7346,-329.3576C1739.8764,-317.4913 1697.4774,-297.0467 1718.0271,-264 1737.13,-233.2799 1759.9096,-246.4483 1791.0271,-228 1812.9823,-214.9836 1815.2201,-206.4585 1838.0271,-195 1883.6152,-172.0961 1917.1392,-200.347 1947.0271,-159 1955.6192,-147.1136 1953.9945,-138.9061 1947.0271,-126 1937.8572,-109.0141 1920.5304,-96.6319 1904.3404,-88.1735"/>
<polygon fill="#191970" stroke="#191970" points="1905.5339,-84.8623 1895.0096,-83.6417 1902.4757,-91.1589 1905.5339,-84.8623"/>
</g>
<!-- Node23 -->
<g id="node23" class="node">
<title>Node23</title>
<g id="a_node23"><a xlink:href="../../d6/db8/PHG4CylinderGeomContainer_8h.html" target="_top" xlink:title="g4detectors/PHG4Cylinder\lGeomContainer.h">
<polygon fill="none" stroke="#ff0000" points="1578.5271,-126.5 1578.5271,-158.5 1729.5271,-158.5 1729.5271,-126.5 1578.5271,-126.5"/>
<text text-anchor="start" x="1586.5271" y="-145.5" font-family="FreeSans" font-size="10.00" fill="#000000">g4detectors/PHG4Cylinder</text>
<text text-anchor="middle" x="1654.0271" y="-133.5" font-family="FreeSans" font-size="10.00" fill="#000000">GeomContainer.h</text>
</a>
</g>
</g>
<!-- Node1&#45;&gt;Node23 -->
<g id="edge45" class="edge">
<title>Node1&#45;&gt;Node23</title>
<path fill="none" stroke="#191970" d="M1783.8777,-330.1201C1728.3068,-319.2618 1659.201,-302.867 1636.0271,-285 1602.4064,-259.0786 1588.2604,-234.4168 1604.0271,-195 1608.4742,-183.8823 1616.5209,-173.7775 1624.8777,-165.4681"/>
<polygon fill="#191970" stroke="#191970" points="1627.2749,-168.0184 1632.2188,-158.6478 1622.5104,-162.8901 1627.2749,-168.0184"/>
</g>
<!-- Node24 -->
<g id="node24" class="node">
<title>Node24</title>
<g id="a_node24"><a xlink:href="../../d1/df9/CylinderGeomIntt_8h.html" target="_top" xlink:title="intt/CylinderGeomIntt.h">
<polygon fill="none" stroke="#000000" points="1612.5271,-201.5 1612.5271,-221.5 1747.5271,-221.5 1747.5271,-201.5 1612.5271,-201.5"/>
<text text-anchor="middle" x="1680.0271" y="-208.5" font-family="FreeSans" font-size="10.00" fill="#000000">intt/CylinderGeomIntt.h</text>
</a>
</g>
</g>
<!-- Node1&#45;&gt;Node24 -->
<g id="edge47" class="edge">
<title>Node1&#45;&gt;Node24</title>
<path fill="none" stroke="#191970" d="M1783.8565,-332.512C1729.3113,-322.9821 1662.9984,-307.2061 1646.0271,-285 1632.9409,-267.8774 1647.7148,-244.909 1661.6776,-229.2338"/>
<polygon fill="#191970" stroke="#191970" points="1664.4128,-231.4359 1668.7534,-221.771 1659.3331,-226.6196 1664.4128,-231.4359"/>
</g>
<!-- Node25 -->
<g id="node25" class="node">
<title>Node25</title>
<g id="a_node25"><a xlink:href="../../df/dfe/InttDefs_8h.html" target="_top" xlink:title="Utility functions for INTT.">
<polygon fill="none" stroke="#ff0000" points="660.0271,-132.5 660.0271,-152.5 746.0271,-152.5 746.0271,-132.5 660.0271,-132.5"/>
<text text-anchor="middle" x="703.0271" y="-139.5" font-family="FreeSans" font-size="10.00" fill="#000000">intt/InttDefs.h</text>
</a>
</g>
</g>
<!-- Node1&#45;&gt;Node25 -->
<g id="edge51" class="edge">
<title>Node1&#45;&gt;Node25</title>
<path fill="none" stroke="#191970" d="M1783.7935,-341.71C1603.3493,-336.9569 1158.476,-321.7769 1014.0271,-285 901.5983,-256.3755 779.6678,-188.4643 728.1981,-157.8887"/>
<polygon fill="#191970" stroke="#191970" points="729.8026,-154.77 719.4257,-152.632 726.2044,-160.7744 729.8026,-154.77"/>
</g>
<!-- Node26 -->
<g id="node26" class="node">
<title>Node26</title>
<g id="a_node26"><a xlink:href="../../d8/df2/CylinderGeom__Mvtx_8h.html" target="_top" xlink:title="mvtx/CylinderGeom_Mvtx.h">
<polygon fill="none" stroke="#000000" points="1908.0271,-264.5 1908.0271,-284.5 2064.0271,-284.5 2064.0271,-264.5 1908.0271,-264.5"/>
<text text-anchor="middle" x="1986.0271" y="-271.5" font-family="FreeSans" font-size="10.00" fill="#000000">mvtx/CylinderGeom_Mvtx.h</text>
</a>
</g>
</g>
<!-- Node1&#45;&gt;Node26 -->
<g id="edge53" class="edge">
<title>Node1&#45;&gt;Node26</title>
<path fill="none" stroke="#191970" d="M1900.9215,-321.4783C1919.8512,-311.0291 1941.9782,-298.815 1958.925,-289.4603"/>
<polygon fill="#191970" stroke="#191970" points="1960.6905,-292.4837 1967.7538,-284.5869 1957.3076,-286.3554 1960.6905,-292.4837"/>
</g>
<!-- Node27 -->
<g id="node27" class="node">
<title>Node27</title>
<polygon fill="none" stroke="#bfbfbf" points="2010.5271,-201.5 2010.5271,-221.5 2081.5271,-221.5 2081.5271,-201.5 2010.5271,-201.5"/>
<text text-anchor="middle" x="2046.0271" y="-208.5" font-family="FreeSans" font-size="10.00" fill="#000000">TVector3.h</text>
</g>
<!-- Node1&#45;&gt;Node27 -->
<g id="edge86" class="edge">
<title>Node1&#45;&gt;Node27</title>
<path fill="none" stroke="#191970" d="M1866.5082,-321.4296C1871.9824,-303.6678 1882.0739,-279.2361 1899.0271,-264 1934.7831,-231.8656 1955.7918,-244.2752 2001.0271,-228 2003.743,-227.0228 2006.5492,-226.0075 2009.3712,-224.9824"/>
<polygon fill="#191970" stroke="#191970" points="2010.7236,-228.2147 2018.919,-221.5001 2008.325,-221.6385 2010.7236,-228.2147"/>
</g>
<!-- Node28 -->
<g id="node28" class="node">
<title>Node28</title>
<g id="a_node28"><a xlink:href="../../d1/d82/MvtxDefs_8h.html" target="_top" xlink:title="Utility functions for MVTX.">
<polygon fill="none" stroke="#ff0000" points="540.0271,-132.5 540.0271,-152.5 642.0271,-152.5 642.0271,-132.5 540.0271,-132.5"/>
<text text-anchor="middle" x="591.0271" y="-139.5" font-family="FreeSans" font-size="10.00" fill="#000000">mvtx/MvtxDefs.h</text>
</a>
</g>
</g>
<!-- Node1&#45;&gt;Node28 -->
<g id="edge57" class="edge">
<title>Node1&#45;&gt;Node28</title>
<path fill="none" stroke="#191970" d="M1783.8659,-342.3154C1548.4566,-338.2993 849.6781,-323.2561 755.0271,-285 688.5395,-258.127 630.3523,-192.5715 604.8089,-160.6129"/>
<polygon fill="#191970" stroke="#191970" points="607.4133,-158.262 598.4902,-152.5499 601.9036,-162.5798 607.4133,-158.262"/>
</g>
<!-- Node29 -->
<g id="node29" class="node">
<title>Node29</title>
<g id="a_node29"><a xlink:href="../../d9/d96/BbcVertexMap_8h.html" target="_top" xlink:title="g4bbc/BbcVertexMap.h">
<polygon fill="none" stroke="#ff0000" points="2406.5271,-63.5 2406.5271,-83.5 2539.5271,-83.5 2539.5271,-63.5 2406.5271,-63.5"/>
<text text-anchor="middle" x="2473.0271" y="-70.5" font-family="FreeSans" font-size="10.00" fill="#000000">g4bbc/BbcVertexMap.h</text>
</a>
</g>
</g>
<!-- Node1&#45;&gt;Node29 -->
<g id="edge59" class="edge">
<title>Node1&#45;&gt;Node29</title>
<path fill="none" stroke="#191970" d="M1938.2485,-340.8322C2138.151,-333.5532 2658.8109,-312.0723 2684.0271,-285 2755.3894,-208.3851 2583.0089,-121.0883 2506.9147,-87.5946"/>
<polygon fill="#191970" stroke="#191970" points="2508.2728,-84.3687 2497.7061,-83.5974 2505.4855,-90.7898 2508.2728,-84.3687"/>
</g>
<!-- Node30 -->
<g id="node30" class="node">
<title>Node30</title>
<polygon fill="none" stroke="#bfbfbf" points="2082.5271,-264.5 2082.5271,-284.5 2211.5271,-284.5 2211.5271,-264.5 2082.5271,-264.5"/>
<text text-anchor="middle" x="2147.0271" y="-271.5" font-family="FreeSans" font-size="10.00" fill="#000000">phfield/PHFieldUtility.h</text>
</g>
<!-- Node1&#45;&gt;Node30 -->
<g id="edge61" class="edge">
<title>Node1&#45;&gt;Node30</title>
<path fill="none" stroke="#191970" d="M1938.0461,-324.9185C1987.9306,-312.8834 2051.5355,-297.5382 2095.4014,-286.9552"/>
<polygon fill="#191970" stroke="#191970" points="2096.3768,-290.3203 2105.277,-284.5726 2094.7351,-283.5156 2096.3768,-290.3203"/>
</g>
<!-- Node31 -->
<g id="node31" class="node">
<title>Node31</title>
<polygon fill="none" stroke="#bfbfbf" points="2229.5271,-264.5 2229.5271,-284.5 2372.5271,-284.5 2372.5271,-264.5 2229.5271,-264.5"/>
<text text-anchor="middle" x="2301.0271" y="-271.5" font-family="FreeSans" font-size="10.00" fill="#000000">phgeom/PHGeomUtility.h</text>
</g>
<!-- Node1&#45;&gt;Node31 -->
<g id="edge62" class="edge">
<title>Node1&#45;&gt;Node31</title>
<path fill="none" stroke="#191970" d="M1938.1727,-331.4022C2019.5974,-318.6333 2147.0183,-298.6514 2227.1756,-286.0813"/>
<polygon fill="#191970" stroke="#191970" points="2227.8568,-289.5173 2237.1938,-284.5102 2226.7723,-282.6018 2227.8568,-289.5173"/>
</g>
<!-- Node32 -->
<g id="node32" class="node">
<title>Node32</title>
<g id="a_node32"><a xlink:href="../../da/dc1/Fun4AllReturnCodes_8h.html" target="_top" xlink:title="fun4all/Fun4AllReturnCodes.h">
<polygon fill="none" stroke="#000000" points="2391.0271,-264.5 2391.0271,-284.5 2557.0271,-284.5 2557.0271,-264.5 2391.0271,-264.5"/>
<text text-anchor="middle" x="2474.0271" y="-271.5" font-family="FreeSans" font-size="10.00" fill="#000000">fun4all/Fun4AllReturnCodes.h</text>
</a>
</g>
</g>
<!-- Node1&#45;&gt;Node32 -->
<g id="edge63" class="edge">
<title>Node1&#45;&gt;Node32</title>
<path fill="none" stroke="#191970" d="M1938.27,-334.8714C2037.9081,-323.731 2216.9017,-303.6843 2380.5267,-285.1684"/>
<polygon fill="#191970" stroke="#191970" points="2381.2403,-288.6101 2390.7832,-284.0076 2380.4529,-281.6545 2381.2403,-288.6101"/>
</g>
<!-- Node33 -->
<g id="node33" class="node">
<title>Node33</title>
<g id="a_node33"><a xlink:href="../../dd/dd4/getClass_8h.html" target="_top" xlink:title="phool/getClass.h">
<polygon fill="none" stroke="#ff0000" points="2575.0271,-264.5 2575.0271,-284.5 2675.0271,-284.5 2675.0271,-264.5 2575.0271,-264.5"/>
<text text-anchor="middle" x="2625.0271" y="-271.5" font-family="FreeSans" font-size="10.00" fill="#000000">phool/getClass.h</text>
</a>
</g>
</g>
<!-- Node1&#45;&gt;Node33 -->
<g id="edge64" class="edge">
<title>Node1&#45;&gt;Node33</title>
<path fill="none" stroke="#191970" d="M1938.2136,-339.459C2066.3285,-332.2306 2331.1043,-315.0839 2564.8133,-285.0576"/>
<polygon fill="#191970" stroke="#191970" points="2565.3967,-288.5113 2574.8643,-283.7557 2564.4975,-281.5693 2565.3967,-288.5113"/>
</g>
<!-- Node34 -->
<g id="node34" class="node">
<title>Node34</title>
<g id="a_node34"><a xlink:href="../../dc/d26/PHTimer_8h.html" target="_top" xlink:title="high precision timer">
<polygon fill="none" stroke="#ff0000" points="2931.5271,-132.5 2931.5271,-152.5 3030.5271,-152.5 3030.5271,-132.5 2931.5271,-132.5"/>
<text text-anchor="middle" x="2981.0271" y="-139.5" font-family="FreeSans" font-size="10.00" fill="#000000">phool/PHTimer.h</text>
</a>
</g>
</g>
<!-- Node1&#45;&gt;Node34 -->
<g id="edge65" class="edge">
<title>Node1&#45;&gt;Node34</title>
<path fill="none" stroke="#191970" d="M1938.4739,-343.0444C2217.6321,-341.0279 3158.1391,-330.8443 3202.0271,-285 3260.6528,-223.761 3117.9351,-176.3837 3035.1323,-154.9815"/>
<polygon fill="#191970" stroke="#191970" points="3035.9025,-151.5661 3025.349,-152.5011 3034.1821,-158.3515 3035.9025,-151.5661"/>
</g>
<!-- Node35 -->
<g id="node35" class="node">
<title>Node35</title>
<polygon fill="none" stroke="#bfbfbf" points="2731.0271,-264.5 2731.0271,-284.5 2857.0271,-284.5 2857.0271,-264.5 2731.0271,-264.5"/>
<text text-anchor="middle" x="2794.0271" y="-271.5" font-family="FreeSans" font-size="10.00" fill="#000000">GenFit/EventDisplay.h</text>
</g>
<!-- Node1&#45;&gt;Node35 -->
<g id="edge68" class="edge">
<title>Node1&#45;&gt;Node35</title>
<path fill="none" stroke="#191970" d="M1938.1971,-339.9698C2088.4074,-332.7125 2430.4737,-314.2959 2717.0271,-285 2718.1344,-284.8868 2719.2503,-284.77 2720.3731,-284.6499"/>
<polygon fill="#191970" stroke="#191970" points="2721.0753,-288.0929 2730.6184,-283.4907 2720.2883,-281.1373 2721.0753,-288.0929"/>
</g>
<!-- Node36 -->
<g id="node36" class="node">
<title>Node36</title>
<polygon fill="none" stroke="#bfbfbf" points="2875.5271,-264.5 2875.5271,-284.5 3054.5271,-284.5 3054.5271,-264.5 2875.5271,-264.5"/>
<text text-anchor="middle" x="2965.0271" y="-271.5" font-family="FreeSans" font-size="10.00" fill="#000000">GenFit/MeasuredStateOnPlane.h</text>
</g>
<!-- Node1&#45;&gt;Node36 -->
<g id="edge69" class="edge">
<title>Node1&#45;&gt;Node36</title>
<path fill="none" stroke="#191970" d="M1938.3435,-340.2538C2105.3818,-332.9677 2512.6285,-313.7361 2865.3109,-285.0223"/>
<polygon fill="#191970" stroke="#191970" points="2865.7852,-288.4953 2875.4665,-284.1916 2865.2144,-281.5186 2865.7852,-288.4953"/>
</g>
<!-- Node37 -->
<g id="node37" class="node">
<title>Node37</title>
<polygon fill="none" stroke="#bfbfbf" points="3073.0271,-264.5 3073.0271,-284.5 3193.0271,-284.5 3193.0271,-264.5 3073.0271,-264.5"/>
<text text-anchor="middle" x="3133.0271" y="-271.5" font-family="FreeSans" font-size="10.00" fill="#000000">GenFit/RKTrackRep.h</text>
</g>
<!-- Node1&#45;&gt;Node37 -->
<g id="edge70" class="edge">
<title>Node1&#45;&gt;Node37</title>
<path fill="none" stroke="#191970" d="M1938.2854,-342.4832C2128.0676,-339.3949 2632.4022,-327.6098 3062.7114,-285.0379"/>
<polygon fill="#191970" stroke="#191970" points="3063.2585,-288.5008 3072.8622,-284.0265 3062.5645,-281.5353 3063.2585,-288.5008"/>
</g>
<!-- Node38 -->
<g id="node38" class="node">
<title>Node38</title>
<g id="a_node38"><a xlink:href="../../d8/d06/coresoftware_2blob_2master_2offline_2packages_2PHGenFitPkg_2PHGenFit_2Track_8h.html" target="_top" xlink:title="GenFit/Track.h">
<polygon fill="none" stroke="#ff0000" points="1726.5271,-264.5 1726.5271,-284.5 1813.5271,-284.5 1813.5271,-264.5 1726.5271,-264.5"/>
<text text-anchor="middle" x="1770.0271" y="-271.5" font-family="FreeSans" font-size="10.00" fill="#000000">GenFit/Track.h</text>
</a>
</g>
</g>
<!-- Node1&#45;&gt;Node38 -->
<g id="edge71" class="edge">
<title>Node1&#45;&gt;Node38</title>
<path fill="none" stroke="#191970" d="M1831.9839,-321.4783C1818.9249,-311.5763 1803.7755,-300.0895 1791.7259,-290.9529"/>
<polygon fill="#191970" stroke="#191970" points="1793.657,-288.0248 1783.5739,-284.7718 1789.4276,-293.6027 1793.657,-288.0248"/>
</g>
<!-- Node39 -->
<g id="node39" class="node">
<title>Node39</title>
<polygon fill="none" stroke="#bfbfbf" points="1880.0271,-201.5 1880.0271,-221.5 1992.0271,-221.5 1992.0271,-201.5 1880.0271,-201.5"/>
<text text-anchor="middle" x="1936.0271" y="-208.5" font-family="FreeSans" font-size="10.00" fill="#000000">TMatrixDSymfwd.h</text>
</g>
<!-- Node1&#45;&gt;Node39 -->
<g id="edge82" class="edge">
<title>Node1&#45;&gt;Node39</title>
<path fill="none" stroke="#191970" d="M1857.6282,-321.2266C1856.1668,-304.4873 1856.5663,-281.5234 1866.0271,-264 1874.693,-247.9489 1890.6302,-235.4049 1905.1109,-226.6093"/>
<polygon fill="#191970" stroke="#191970" points="1906.908,-229.6136 1913.8608,-221.6194 1903.4402,-223.5329 1906.908,-229.6136"/>
</g>
<!-- Node40 -->
<g id="node40" class="node">
<title>Node40</title>
<polygon fill="none" stroke="#bfbfbf" points="3287.0271,-264.5 3287.0271,-284.5 3383.0271,-284.5 3383.0271,-264.5 3287.0271,-264.5"/>
<text text-anchor="middle" x="3335.0271" y="-271.5" font-family="FreeSans" font-size="10.00" fill="#000000">phgenfit/Fitter.h</text>
</g>
<!-- Node1&#45;&gt;Node40 -->
<g id="edge77" class="edge">
<title>Node1&#45;&gt;Node40</title>
<path fill="none" stroke="#191970" d="M1938.3405,-341.5864C2194.0201,-335.0555 3010.8704,-312.5181 3273.0271,-285 3274.14,-284.8832 3275.2632,-284.7589 3276.394,-284.6279"/>
<polygon fill="#191970" stroke="#191970" points="3277.2417,-288.0473 3286.7082,-283.2895 3276.3409,-281.1055 3277.2417,-288.0473"/>
</g>
<!-- Node41 -->
<g id="node41" class="node">
<title>Node41</title>
<polygon fill="none" stroke="#bfbfbf" points="3401.0271,-264.5 3401.0271,-284.5 3541.0271,-284.5 3541.0271,-264.5 3401.0271,-264.5"/>
<text text-anchor="middle" x="3471.0271" y="-271.5" font-family="FreeSans" font-size="10.00" fill="#000000">phgenfit/Measurement.h</text>
</g>
<!-- Node1&#45;&gt;Node41 -->
<g id="edge78" class="edge">
<title>Node1&#45;&gt;Node41</title>
<path fill="none" stroke="#191970" d="M1938.0501,-343.1117C2161.2157,-341.4403 2827.5972,-332.5946 3390.4948,-285.055"/>
<polygon fill="#191970" stroke="#191970" points="3391.1855,-288.509 3400.8533,-284.1748 3390.5928,-281.5342 3391.1855,-288.509"/>
</g>
<!-- Node42 -->
<g id="node42" class="node">
<title>Node42</title>
<polygon fill="none" stroke="#bfbfbf" points="3559.0271,-264.5 3559.0271,-284.5 3731.0271,-284.5 3731.0271,-264.5 3559.0271,-264.5"/>
<text text-anchor="middle" x="3645.0271" y="-271.5" font-family="FreeSans" font-size="10.00" fill="#000000">phgenfit/PlanarMeasurement.h</text>
</g>
<!-- Node1&#45;&gt;Node42 -->
<g id="edge79" class="edge">
<title>Node1&#45;&gt;Node42</title>
<path fill="none" stroke="#191970" d="M1938.1553,-342.8986C2176.2947,-340.6002 2921.21,-330.1044 3548.6848,-285.0459"/>
<polygon fill="#191970" stroke="#191970" points="3549.1176,-288.5239 3558.8397,-284.3129 3548.6136,-281.542 3549.1176,-288.5239"/>
</g>
<!-- Node43 -->
<g id="node43" class="node">
<title>Node43</title>
<polygon fill="none" stroke="#bfbfbf" points="3749.0271,-264.5 3749.0271,-284.5 3799.0271,-284.5 3799.0271,-264.5 3749.0271,-264.5"/>
<text text-anchor="middle" x="3774.0271" y="-271.5" font-family="FreeSans" font-size="10.00" fill="#000000">TFile.h</text>
</g>
<!-- Node1&#45;&gt;Node43 -->
<g id="edge81" class="edge">
<title>Node1&#45;&gt;Node43</title>
<path fill="none" stroke="#191970" d="M1938.2559,-342.3183C2264.0763,-337.1697 3519.2925,-315.6379 3739.0046,-284.5972"/>
<polygon fill="#191970" stroke="#191970" points="3739.6068,-288.0458 3748.9575,-283.0645 3738.5413,-281.1273 3739.6068,-288.0458"/>
</g>
<!-- Node44 -->
<g id="node44" class="node">
<title>Node44</title>
<polygon fill="none" stroke="#bfbfbf" points="3817.5271,-264.5 3817.5271,-284.5 3910.5271,-284.5 3910.5271,-264.5 3817.5271,-264.5"/>
<text text-anchor="middle" x="3864.0271" y="-271.5" font-family="FreeSans" font-size="10.00" fill="#000000">TMatrixTSym.h</text>
</g>
<!-- Node1&#45;&gt;Node44 -->
<g id="edge83" class="edge">
<title>Node1&#45;&gt;Node44</title>
<path fill="none" stroke="#191970" d="M1938.0873,-342.7843C2249.405,-339.6478 3415.8159,-325.467 3807.4056,-284.8672"/>
<polygon fill="#191970" stroke="#191970" points="3807.7818,-288.347 3817.3567,-283.8116 3807.0433,-281.3861 3807.7818,-288.347"/>
</g>
<!-- Node45 -->
<g id="node45" class="node">
<title>Node45</title>
<polygon fill="none" stroke="#bfbfbf" points="3928.5271,-264.5 3928.5271,-284.5 4021.5271,-284.5 4021.5271,-264.5 3928.5271,-264.5"/>
<text text-anchor="middle" x="3975.0271" y="-271.5" font-family="FreeSans" font-size="10.00" fill="#000000">TMatrixTUtils.h</text>
</g>
<!-- Node1&#45;&gt;Node45 -->
<g id="edge84" class="edge">
<title>Node1&#45;&gt;Node45</title>
<path fill="none" stroke="#191970" d="M1938.0782,-342.9642C2260.5669,-340.4686 3503.9802,-328.2584 3918.0732,-285.0409"/>
<polygon fill="#191970" stroke="#191970" points="3918.7243,-288.4913 3928.2961,-283.9491 3917.9809,-281.5309 3918.7243,-288.4913"/>
</g>
<!-- Node46 -->
<g id="node46" class="node">
<title>Node46</title>
<polygon fill="none" stroke="#bfbfbf" points="4040.0271,-264.5 4040.0271,-284.5 4106.0271,-284.5 4106.0271,-264.5 4040.0271,-264.5"/>
<text text-anchor="middle" x="4073.0271" y="-271.5" font-family="FreeSans" font-size="10.00" fill="#000000">TNtuple.h</text>
</g>
<!-- Node1&#45;&gt;Node46 -->
<g id="edge85" class="edge">
<title>Node1&#45;&gt;Node46</title>
<path fill="none" stroke="#191970" d="M1938.0302,-342.4201C2294.5484,-337.2878 3777.8572,-314.4348 4029.6059,-284.813"/>
<polygon fill="#191970" stroke="#191970" points="4030.2056,-288.265 4039.6847,-283.5324 4029.3232,-281.3209 4030.2056,-288.265"/>
</g>
<!-- Node47 -->
<g id="node47" class="node">
<title>Node47</title>
<polygon fill="none" stroke="#bfbfbf" points="4124.0271,-264.5 4124.0271,-284.5 4214.0271,-284.5 4214.0271,-264.5 4124.0271,-264.5"/>
<text text-anchor="middle" x="4169.0271" y="-271.5" font-family="FreeSans" font-size="10.00" fill="#000000">TVectorDfwd.h</text>
</g>
<!-- Node1&#45;&gt;Node47 -->
<g id="edge87" class="edge">
<title>Node1&#45;&gt;Node47</title>
<path fill="none" stroke="#191970" d="M1938.3127,-343.2181C2280.0872,-341.7087 3658.4845,-332.7895 4113.4895,-284.9732"/>
<polygon fill="#191970" stroke="#191970" points="4114.1683,-288.4205 4123.7372,-283.8725 4113.4206,-281.4606 4114.1683,-288.4205"/>
</g>
<!-- Node48 -->
<g id="node48" class="node">
<title>Node48</title>
<polygon fill="none" stroke="#bfbfbf" points="4232.0271,-264.5 4232.0271,-284.5 4302.0271,-284.5 4302.0271,-264.5 4232.0271,-264.5"/>
<text text-anchor="middle" x="4267.0271" y="-271.5" font-family="FreeSans" font-size="10.00" fill="#000000">TVectorT.h</text>
</g>
<!-- Node1&#45;&gt;Node48 -->
<g id="edge88" class="edge">
<title>Node1&#45;&gt;Node48</title>
<path fill="none" stroke="#191970" d="M1938.086,-342.5516C2314.0772,-337.7964 3948.672,-315.6098 4221.4086,-284.8634"/>
<polygon fill="#191970" stroke="#191970" points="4222.0985,-288.3054 4231.6042,-283.6265 4221.2554,-281.3564 4222.0985,-288.3054"/>
</g>
<!-- Node49 -->
<g id="node49" class="node">
<title>Node49</title>
<polygon fill="none" stroke="#bfbfbf" points="4320.5271,-264.5 4320.5271,-284.5 4373.5271,-284.5 4373.5271,-264.5 4320.5271,-264.5"/>
<text text-anchor="middle" x="4347.0271" y="-271.5" font-family="FreeSans" font-size="10.00" fill="#000000">cassert</text>
</g>
<!-- Node1&#45;&gt;Node49 -->
<g id="edge89" class="edge">
<title>Node1&#45;&gt;Node49</title>
<path fill="none" stroke="#191970" d="M1938.0707,-342.8508C2322.7817,-339.4514 4028.1524,-322.4669 4310.2933,-284.5555"/>
<polygon fill="#191970" stroke="#191970" points="4311.07,-287.9797 4320.4652,-283.0827 4310.0669,-281.0519 4311.07,-287.9797"/>
</g>
<!-- Node50 -->
<g id="node50" class="node">
<title>Node50</title>
<polygon fill="none" stroke="#bfbfbf" points="4392.0271,-264.5 4392.0271,-284.5 4442.0271,-284.5 4442.0271,-264.5 4392.0271,-264.5"/>
<text text-anchor="middle" x="4417.0271" y="-271.5" font-family="FreeSans" font-size="10.00" fill="#000000">cstdlib</text>
</g>
<!-- Node1&#45;&gt;Node50 -->
<g id="edge92" class="edge">
<title>Node1&#45;&gt;Node50</title>
<path fill="none" stroke="#191970" d="M1938.0441,-342.979C2329.7473,-340.1617 4093.2397,-325.4083 4381.9392,-284.6119"/>
<polygon fill="#191970" stroke="#191970" points="4382.6014,-288.0515 4391.9613,-283.0875 4381.5487,-281.1311 4382.6014,-288.0515"/>
</g>
<!-- Node3 -->
<g id="node3" class="node">
<title>Node3</title>
<g id="a_node3"><a xlink:href="../../d1/d86/PHTrackPropagating_8h.html" target="_top" xlink:title="Base class for track seeding.">
<polygon fill="none" stroke="#ff0000" points="132.0271,-201.5 132.0271,-221.5 258.0271,-221.5 258.0271,-201.5 132.0271,-201.5"/>
<text text-anchor="middle" x="195.0271" y="-208.5" font-family="FreeSans" font-size="10.00" fill="#000000">PHTrackPropagating.h</text>
</a>
</g>
</g>
<!-- Node2&#45;&gt;Node3 -->
<g id="edge2" class="edge">
<title>Node2&#45;&gt;Node3</title>
<path fill="none" stroke="#191970" d="M382.1983,-264.378C343.6726,-253.494 282.3261,-236.1629 240.443,-224.3305"/>
<polygon fill="#191970" stroke="#191970" points="241.3419,-220.9475 230.767,-221.5969 239.4388,-227.6839 241.3419,-220.9475"/>
</g>
<!-- Node2&#45;&gt;Node4 -->
<g id="edge3" class="edge">
<title>Node2&#45;&gt;Node4</title>
<path fill="none" stroke="#191970" d="M472.2599,-272.8181C609.0948,-268.3094 979.3854,-254.4623 1287.0271,-228 1311.4925,-225.8956 1338.3004,-222.8817 1361.7897,-220.0043"/>
<polygon fill="#191970" stroke="#191970" points="1362.4887,-223.4445 1371.9814,-218.7392 1361.6264,-216.4978 1362.4887,-223.4445"/>
</g>
<!-- Node2&#45;&gt;Node6 -->
<g id="edge10" class="edge">
<title>Node2&#45;&gt;Node6</title>
<path fill="none" stroke="#191970" d="M427.4229,-264.3896C435.4813,-255.3504 447.0248,-241.4859 455.0271,-228 480.1325,-185.6908 460.1833,-157.4356 498.0271,-126 511.2841,-114.9878 603.172,-97.0644 669.5541,-85.2768"/>
<polygon fill="#191970" stroke="#191970" points="670.3214,-88.6955 679.5615,-83.5117 669.1055,-81.8019 670.3214,-88.6955"/>
</g>
<!-- Node9 -->
<g id="node9" class="node">
<title>Node9</title>
<polygon fill="none" stroke="#bfbfbf" points="276.5271,-201.5 276.5271,-221.5 347.5271,-221.5 347.5271,-201.5 276.5271,-201.5"/>
<text text-anchor="middle" x="312.0271" y="-208.5" font-family="FreeSans" font-size="10.00" fill="#000000">Eigen/Core</text>
</g>
<!-- Node2&#45;&gt;Node9 -->
<g id="edge11" class="edge">
<title>Node2&#45;&gt;Node9</title>
<path fill="none" stroke="#191970" d="M400.9964,-264.378C383.92,-254.2288 357.4113,-238.4736 337.7674,-226.7985"/>
<polygon fill="#191970" stroke="#191970" points="339.4001,-223.6974 329.0156,-221.5969 335.8237,-229.7148 339.4001,-223.6974"/>
</g>
<!-- Node2&#45;&gt;Node10 -->
<g id="edge12" class="edge">
<title>Node2&#45;&gt;Node10</title>
<path fill="none" stroke="#191970" d="M363.8303,-267.9549C304.3765,-260.3119 206.3208,-246.3421 123.0271,-228 117.9806,-226.8887 112.7239,-225.5926 107.5257,-224.2241"/>
<polygon fill="#191970" stroke="#191970" points="108.2409,-220.7913 97.6721,-221.5331 106.3968,-227.5441 108.2409,-220.7913"/>
</g>
<!-- Node11 -->
<g id="node11" class="node">
<title>Node11</title>
<polygon fill="none" stroke="#bfbfbf" points="366.0271,-201.5 366.0271,-221.5 446.0271,-221.5 446.0271,-201.5 366.0271,-201.5"/>
<text text-anchor="middle" x="406.0271" y="-208.5" font-family="FreeSans" font-size="10.00" fill="#000000">gsl/gsl_rng.h</text>
</g>
<!-- Node2&#45;&gt;Node11 -->
<g id="edge13" class="edge">
<title>Node2&#45;&gt;Node11</title>
<path fill="none" stroke="#191970" d="M416.0991,-264.378C414.4295,-255.6128 411.9635,-242.6662 409.8895,-231.7777"/>
<polygon fill="#191970" stroke="#191970" points="413.2996,-230.9747 407.9902,-221.8062 406.4232,-232.2845 413.2996,-230.9747"/>
</g>
<!-- Node2&#45;&gt;Node12 -->
<g id="edge14" class="edge">
<title>Node2&#45;&gt;Node12</title>
<path fill="none" stroke="#191970" d="M469.0859,-264.4478C533.0065,-251.8634 641.1046,-230.5816 698.8697,-219.2091"/>
<polygon fill="#191970" stroke="#191970" points="699.5742,-222.6377 708.7098,-217.2719 698.222,-215.7695 699.5742,-222.6377"/>
</g>
<!-- Node4&#45;&gt;Node5 -->
<g id="edge4" class="edge">
<title>Node4&#45;&gt;Node5</title>
<path fill="none" stroke="#191970" d="M1430.8977,-195.4966C1433.9147,-185.5836 1437.812,-172.7781 1441.0199,-162.238"/>
<polygon fill="#191970" stroke="#191970" points="1444.3764,-163.2299 1443.9398,-152.6441 1437.6797,-161.1918 1444.3764,-163.2299"/>
</g>
<!-- Node4&#45;&gt;Node7 -->
<g id="edge9" class="edge">
<title>Node4&#45;&gt;Node7</title>
<path fill="none" stroke="#191970" d="M1413.5458,-195.4105C1400.8362,-176.9285 1385.0889,-146.5188 1401.0271,-126 1440.7025,-74.9219 1488.6239,-126.4858 1542.0271,-90 1564.2707,-74.8028 1580.8333,-47.9157 1590.215,-29.6602"/>
<polygon fill="#191970" stroke="#191970" points="1593.4284,-31.0562 1594.6787,-20.5354 1587.1404,-27.9802 1593.4284,-31.0562"/>
</g>
<!-- Node5&#45;&gt;Node6 -->
<g id="edge5" class="edge">
<title>Node5&#45;&gt;Node6</title>
<path fill="none" stroke="#191970" d="M1409.9588,-138.8874C1297.2884,-127.9068 957.5561,-94.7973 809.3936,-80.3578"/>
<polygon fill="#191970" stroke="#191970" points="809.3551,-76.8375 799.0627,-79.3509 808.676,-83.8045 809.3551,-76.8375"/>
</g>
<!-- Node5&#45;&gt;Node7 -->
<g id="edge8" class="edge">
<title>Node5&#45;&gt;Node7</title>
<path fill="none" stroke="#191970" d="M1475.2394,-132.3944C1510.7417,-119.4556 1567.9619,-97.7786 1575.0271,-90 1589.8876,-73.639 1595.5566,-48.3634 1597.7134,-30.7175"/>
<polygon fill="#191970" stroke="#191970" points="1601.2104,-30.9146 1598.6693,-20.629 1594.2416,-30.2543 1601.2104,-30.9146"/>
</g>
<!-- Node5&#45;&gt;Node8 -->
<g id="edge7" class="edge">
<title>Node5&#45;&gt;Node8</title>
<path fill="none" stroke="#191970" d="M1478.0273,-132.4184C1484.6251,-130.2873 1491.5537,-128.0604 1498.0271,-126 1549.0615,-109.7569 1562.8378,-108.6918 1613.0271,-90 1615.1081,-89.225 1617.2398,-88.3969 1619.3799,-87.5398"/>
<polygon fill="#191970" stroke="#191970" points="1620.7936,-90.7426 1628.6833,-83.6713 1618.1059,-84.2791 1620.7936,-90.7426"/>
</g>
<!-- Node6&#45;&gt;Node7 -->
<g id="edge6" class="edge">
<title>Node6&#45;&gt;Node7</title>
<path fill="none" stroke="#191970" d="M799.3311,-67.4209C833.0506,-64.1206 875.8539,-60.0947 914.0271,-57 1158.6847,-37.1655 1452.976,-19.1523 1558.7397,-12.8645"/>
<polygon fill="#191970" stroke="#191970" points="1559.1846,-16.3444 1568.9599,-12.2586 1558.7702,-9.3567 1559.1846,-16.3444"/>
</g>
<!-- Node13&#45;&gt;Node6 -->
<g id="edge16" class="edge">
<title>Node13&#45;&gt;Node6</title>
<path fill="none" stroke="#191970" d="M845.851,-132.4668C824.9291,-120.9179 790.3547,-101.8328 766.2255,-88.5135"/>
<polygon fill="#191970" stroke="#191970" points="767.6713,-85.3138 757.2251,-83.5453 764.2884,-91.4421 767.6713,-85.3138"/>
</g>
<!-- Node13&#45;&gt;Node7 -->
<g id="edge17" class="edge">
<title>Node13&#45;&gt;Node7</title>
<path fill="none" stroke="#191970" d="M878.4466,-132.343C905.875,-113.6335 968.0979,-74.0795 1027.0271,-57 1127.032,-28.0155 1445.019,-15.3636 1558.3907,-11.6954"/>
<polygon fill="#191970" stroke="#191970" points="1558.8252,-15.1834 1568.7093,-11.3682 1558.6033,-8.1869 1558.8252,-15.1834"/>
</g>
<!-- Node14&#45;&gt;Node6 -->
<g id="edge19" class="edge">
<title>Node14&#45;&gt;Node6</title>
<path fill="none" stroke="#191970" d="M970.6214,-132.4668C922.3525,-120.177 840.565,-99.3528 788.2178,-86.0246"/>
<polygon fill="#191970" stroke="#191970" points="789.0348,-82.621 778.4804,-83.5453 787.3076,-89.4046 789.0348,-82.621"/>
</g>
<!-- Node14&#45;&gt;Node7 -->
<g id="edge21" class="edge">
<title>Node14&#45;&gt;Node7</title>
<path fill="none" stroke="#191970" d="M1012.6074,-132.449C1017.9496,-113.9162 1032.1221,-74.6448 1060.0271,-57 1101.88,-30.5356 1440.5428,-16.1176 1558.6077,-11.8577"/>
<polygon fill="#191970" stroke="#191970" points="1558.8113,-15.3528 1568.6806,-11.4997 1558.5626,-8.3572 1558.8113,-15.3528"/>
</g>
<!-- Node14&#45;&gt;Node8 -->
<g id="edge20" class="edge">
<title>Node14&#45;&gt;Node8</title>
<path fill="none" stroke="#191970" d="M1074.1808,-132.4584C1090.1163,-130.1501 1107.1731,-127.8369 1123.0271,-126 1308.6933,-104.4878 1356.4179,-111.9988 1542.0271,-90 1567.1806,-87.0188 1595.4578,-82.7102 1616.9067,-79.2435"/>
<polygon fill="#191970" stroke="#191970" points="1617.5398,-82.6865 1626.844,-77.6187 1616.4103,-75.7782 1617.5398,-82.6865"/>
</g>
<!-- Node14&#45;&gt;Node15 -->
<g id="edge22" class="edge">
<title>Node14&#45;&gt;Node15</title>
<path fill="none" stroke="#191970" d="M1022.274,-132.3188C1035.5146,-121.3116 1056.8383,-103.5846 1072.6194,-90.4654"/>
<polygon fill="#191970" stroke="#191970" points="1075.2776,-92.8072 1080.7299,-83.723 1070.8026,-87.4243 1075.2776,-92.8072"/>
</g>
<!-- Node16&#45;&gt;Node6 -->
<g id="edge24" class="edge">
<title>Node16&#45;&gt;Node6</title>
<path fill="none" stroke="#191970" d="M410.864,-132.4668C480.3973,-119.9725 599.0186,-98.6578 672.9911,-85.3659"/>
<polygon fill="#191970" stroke="#191970" points="673.8995,-88.7588 683.1228,-83.5453 672.6614,-81.8691 673.8995,-88.7588"/>
</g>
<!-- Node16&#45;&gt;Node7 -->
<g id="edge25" class="edge">
<title>Node16&#45;&gt;Node7</title>
<path fill="none" stroke="#191970" d="M383.6702,-132.4867C438.4705,-113.834 562.2953,-74.1125 670.0271,-57 845.2252,-29.1709 1403.9417,-14.8598 1558.8596,-11.361"/>
<polygon fill="#191970" stroke="#191970" points="1558.9699,-14.8595 1568.8892,-11.1369 1558.8134,-7.8612 1558.9699,-14.8595"/>
</g>
<!-- Node17&#45;&gt;Node7 -->
<g id="edge31" class="edge">
<title>Node17&#45;&gt;Node7</title>
<path fill="none" stroke="#191970" d="M1175.8332,-126.1686C1165.4138,-107.1713 1152.9808,-75.9938 1170.0271,-57 1195.7312,-28.3592 1456.5542,-15.738 1558.5001,-11.8719"/>
<polygon fill="#191970" stroke="#191970" points="1558.8455,-15.3616 1568.7091,-11.494 1558.5865,-8.3664 1558.8455,-15.3616"/>
</g>
<!-- Node17&#45;&gt;Node8 -->
<g id="edge30" class="edge">
<title>Node17&#45;&gt;Node8</title>
<path fill="none" stroke="#191970" d="M1240.3179,-134.5594C1310.1353,-124.3328 1435.1338,-105.9724 1542.0271,-90 1567.0785,-86.2567 1595.3592,-81.974 1616.8352,-78.7101"/>
<polygon fill="#191970" stroke="#191970" points="1617.4274,-82.1603 1626.7874,-77.1964 1616.3748,-75.2399 1617.4274,-82.1603"/>
</g>
<!-- Node17&#45;&gt;Node15 -->
<g id="edge32" class="edge">
<title>Node17&#45;&gt;Node15</title>
<path fill="none" stroke="#191970" d="M1164.4573,-126.4966C1149.5654,-115.4477 1129.8301,-100.8055 1114.8778,-89.7118"/>
<polygon fill="#191970" stroke="#191970" points="1116.8161,-86.7918 1106.6996,-83.6441 1112.6451,-92.4135 1116.8161,-86.7918"/>
</g>
<!-- Node18&#45;&gt;Node7 -->
<g id="edge35" class="edge">
<title>Node18&#45;&gt;Node7</title>
<path fill="none" stroke="#191970" d="M1235.4484,-195.4883C1246.5003,-177.8694 1260.0811,-148.9992 1249.0271,-126 1237.932,-102.9154 1215.1221,-113.0846 1204.0271,-90 1197.6737,-76.7809 1194.2813,-67.9604 1204.0271,-57 1227.3557,-30.764 1462.9147,-16.8661 1558.7732,-12.261"/>
<polygon fill="#191970" stroke="#191970" points="1559.1218,-15.7486 1568.9461,-11.7821 1558.7926,-8.7563 1559.1218,-15.7486"/>
</g>
<!-- Node18&#45;&gt;Node17 -->
<g id="edge34" class="edge">
<title>Node18&#45;&gt;Node17</title>
<path fill="none" stroke="#191970" d="M1215.2136,-195.4966C1210.6751,-187.2557 1205.0357,-177.0157 1199.9275,-167.7401"/>
<polygon fill="#191970" stroke="#191970" points="1202.9466,-165.9668 1195.0566,-158.8958 1196.8149,-169.3437 1202.9466,-165.9668"/>
</g>
<!-- Node19&#45;&gt;Node7 -->
<g id="edge37" class="edge">
<title>Node19&#45;&gt;Node7</title>
<path fill="none" stroke="#191970" d="M1363.7086,-58.169C1425.3127,-45.6897 1509.8477,-28.5653 1559.0351,-18.6013"/>
<polygon fill="#191970" stroke="#191970" points="1559.8677,-22.0038 1568.9737,-16.588 1558.4779,-15.1431 1559.8677,-22.0038"/>
</g>
<!-- Node20&#45;&gt;Node7 -->
<g id="edge39" class="edge">
<title>Node20&#45;&gt;Node7</title>
<path fill="none" stroke="#191970" d="M1493.2271,-57.4394C1515.9888,-47.3409 1545.0902,-34.4298 1567.0085,-24.7054"/>
<polygon fill="#191970" stroke="#191970" points="1568.5021,-27.8719 1576.2234,-20.6171 1565.6632,-21.4733 1568.5021,-27.8719"/>
</g>
<!-- Node21&#45;&gt;Node7 -->
<g id="edge44" class="edge">
<title>Node21&#45;&gt;Node7</title>
<path fill="none" stroke="#191970" d="M1849.4805,-126.4443C1833.5282,-107.1208 1804.1697,-75.0287 1772.0271,-57 1730.1806,-33.5284 1675.9437,-21.4592 1639.4466,-15.5735"/>
<polygon fill="#191970" stroke="#191970" points="1639.5999,-12.0564 1629.186,-14.0062 1638.5429,-18.9761 1639.5999,-12.0564"/>
</g>
<!-- Node21&#45;&gt;Node8 -->
<g id="edge43" class="edge">
<title>Node21&#45;&gt;Node8</title>
<path fill="none" stroke="#191970" d="M1813.0891,-126.4966C1773.7538,-113.6334 1719.5247,-95.8997 1684.8647,-84.5654"/>
<polygon fill="#191970" stroke="#191970" points="1685.7983,-81.1884 1675.2058,-81.4068 1683.6226,-87.8417 1685.7983,-81.1884"/>
</g>
<!-- Node21&#45;&gt;Node22 -->
<g id="edge41" class="edge">
<title>Node21&#45;&gt;Node22</title>
<path fill="none" stroke="#191970" d="M1863.1868,-126.4966C1863.8901,-116.7901 1864.7945,-104.3104 1865.5489,-93.8996"/>
<polygon fill="#191970" stroke="#191970" points="1869.06,-93.871 1866.292,-83.6441 1862.0783,-93.365 1869.06,-93.871"/>
</g>
<!-- Node22&#45;&gt;Node7 -->
<g id="edge42" class="edge">
<title>Node22&#45;&gt;Node7</title>
<path fill="none" stroke="#191970" d="M1833.6704,-63.4514C1825.9341,-61.2302 1817.7144,-58.9575 1810.0271,-57 1750.9228,-41.9496 1681.7807,-27.2594 1639.1937,-18.5431"/>
<polygon fill="#191970" stroke="#191970" points="1639.719,-15.0783 1629.2216,-16.5121 1638.3219,-21.9375 1639.719,-15.0783"/>
</g>
<!-- Node23&#45;&gt;Node7 -->
<g id="edge46" class="edge">
<title>Node23&#45;&gt;Node7</title>
<path fill="none" stroke="#191970" d="M1667.7217,-126.2338C1680.9744,-108.3921 1697.263,-79.3278 1684.0271,-57 1674.2039,-40.429 1656.1587,-29.3784 1639.2138,-22.2253"/>
<polygon fill="#191970" stroke="#191970" points="1640.024,-18.7864 1629.4345,-18.4517 1637.504,-25.3171 1640.024,-18.7864"/>
</g>
<!-- Node24&#45;&gt;Node7 -->
<g id="edge50" class="edge">
<title>Node24&#45;&gt;Node7</title>
<path fill="none" stroke="#191970" d="M1697.9488,-201.4205C1712.0483,-192.3659 1730.6629,-177.6389 1739.0271,-159 1745.0319,-145.6189 1742.7583,-140.1841 1739.0271,-126 1730.0656,-91.9327 1725.9476,-80.854 1700.0271,-57 1682.6934,-41.0482 1658.935,-29.7382 1638.8158,-22.2694"/>
<polygon fill="#191970" stroke="#191970" points="1639.8704,-18.9301 1629.2755,-18.908 1637.5441,-25.5323 1639.8704,-18.9301"/>
</g>
<!-- Node24&#45;&gt;Node8 -->
<g id="edge49" class="edge">
<title>Node24&#45;&gt;Node8</title>
<path fill="none" stroke="#191970" d="M1632.7671,-201.4461C1609.6385,-193.888 1583.8568,-180.9246 1570.0271,-159 1562.2022,-146.595 1563.023,-138.8862 1570.0271,-126 1575.848,-115.2906 1601.2092,-99.7996 1622.0234,-88.4196"/>
<polygon fill="#191970" stroke="#191970" points="1623.7284,-91.4769 1630.887,-83.6664 1620.4201,-85.3079 1623.7284,-91.4769"/>
</g>
<!-- Node24&#45;&gt;Node21 -->
<g id="edge48" class="edge">
<title>Node24&#45;&gt;Node21</title>
<path fill="none" stroke="#191970" d="M1706.4915,-201.4668C1733.5004,-191.2271 1776.1361,-175.0631 1809.943,-162.2462"/>
<polygon fill="#191970" stroke="#191970" points="1811.563,-165.3751 1819.6728,-158.5574 1809.0815,-158.8298 1811.563,-165.3751"/>
</g>
<!-- Node25&#45;&gt;Node6 -->
<g id="edge52" class="edge">
<title>Node25&#45;&gt;Node6</title>
<path fill="none" stroke="#191970" d="M708.339,-132.3188C713.7629,-121.9231 722.3139,-105.5336 729.0135,-92.6927"/>
<polygon fill="#191970" stroke="#191970" points="732.1707,-94.2078 733.6934,-83.723 725.9646,-90.9698 732.1707,-94.2078"/>
</g>
<!-- Node26&#45;&gt;Node7 -->
<g id="edge56" class="edge">
<title>Node26&#45;&gt;Node7</title>
<path fill="none" stroke="#191970" d="M2026.1779,-264.4735C2057.8854,-255.6477 2098.3493,-242.0455 2108.0271,-228 2116.3487,-215.9227 2114.1351,-208.3343 2108.0271,-195 2068.9187,-109.6237 2033.6928,-95.4701 1948.0271,-57 1893.5279,-32.5259 1718.7764,-18.3159 1639.1895,-12.9646"/>
<polygon fill="#191970" stroke="#191970" points="1639.2732,-9.4626 1629.0647,-12.2973 1638.8128,-16.4475 1639.2732,-9.4626"/>
</g>
<!-- Node26&#45;&gt;Node21 -->
<g id="edge54" class="edge">
<title>Node26&#45;&gt;Node21</title>
<path fill="none" stroke="#191970" d="M2037.3067,-264.4966C2057.6124,-257.7532 2078.956,-246.5477 2091.0271,-228 2099.0273,-215.7074 2100.1661,-206.4713 2091.0271,-195 2073.0749,-172.4664 2005.2019,-158.8152 1947.9703,-151.105"/>
<polygon fill="#191970" stroke="#191970" points="1948.1578,-147.6 1937.7897,-149.7798 1947.2542,-154.5414 1948.1578,-147.6"/>
</g>
<!-- Node26&#45;&gt;Node27 -->
<g id="edge55" class="edge">
<title>Node26&#45;&gt;Node27</title>
<path fill="none" stroke="#191970" d="M1995.6671,-264.378C2004.7106,-254.8823 2018.4277,-240.4794 2029.2633,-229.102"/>
<polygon fill="#191970" stroke="#191970" points="2031.8496,-231.4614 2036.2116,-221.8062 2026.7806,-226.6338 2031.8496,-231.4614"/>
</g>
<!-- Node28&#45;&gt;Node6 -->
<g id="edge58" class="edge">
<title>Node28&#45;&gt;Node6</title>
<path fill="none" stroke="#191970" d="M612.5476,-132.4668C637.7575,-120.7135 679.7094,-101.1549 708.3293,-87.8118"/>
<polygon fill="#191970" stroke="#191970" points="709.8962,-90.9431 717.4806,-83.5453 706.9383,-84.5987 709.8962,-90.9431"/>
</g>
<!-- Node29&#45;&gt;Node7 -->
<g id="edge60" class="edge">
<title>Node29&#45;&gt;Node7</title>
<path fill="none" stroke="#191970" d="M2406.2578,-68.6871C2233.9702,-56.2682 1778.2318,-23.4175 1639.6044,-13.4249"/>
<polygon fill="#191970" stroke="#191970" points="1639.6519,-9.9193 1629.4261,-12.6912 1639.1485,-16.9012 1639.6519,-9.9193"/>
</g>
<!-- Node34&#45;&gt;Node7 -->
<g id="edge66" class="edge">
<title>Node34&#45;&gt;Node7</title>
<path fill="none" stroke="#191970" d="M2940.8457,-132.4943C2864.8768,-114.0369 2694.7265,-74.8862 2549.0271,-57 2368.7837,-34.8731 1797.0014,-16.4429 1639.5227,-11.6905"/>
<polygon fill="#191970" stroke="#191970" points="1639.4341,-8.1864 1629.3335,-11.3847 1639.224,-15.1832 1639.4341,-8.1864"/>
</g>
<!-- Node38&#45;&gt;Node6 -->
<g id="edge72" class="edge">
<title>Node38&#45;&gt;Node6</title>
<path fill="none" stroke="#191970" d="M1726.2882,-272.8076C1625.9857,-268.5672 1371.8088,-255.7766 1161.0271,-228 996.4808,-206.3162 931.7059,-251.6834 794.0271,-159 770.2133,-142.9689 754.458,-112.7951 746.134,-92.9208"/>
<polygon fill="#191970" stroke="#191970" points="749.381,-91.6138 742.4553,-83.5961 742.8695,-94.1828 749.381,-91.6138"/>
</g>
<!-- Node38&#45;&gt;Node7 -->
<g id="edge76" class="edge">
<title>Node38&#45;&gt;Node7</title>
<path fill="none" stroke="#191970" d="M1782.8885,-264.2133C1809.0189,-243.3365 1866.2581,-197.73 1871.0271,-195 1909.133,-173.1863 1938.2746,-195.2659 1963.0271,-159 1971.2952,-146.886 1967.1343,-140.0798 1963.0271,-126 1952.8418,-91.084 1949.5749,-76.7407 1919.0271,-57 1873.488,-27.5715 1714.4817,-16.079 1639.1688,-12.2102"/>
<polygon fill="#191970" stroke="#191970" points="1639.2783,-8.7115 1629.1178,-11.7139 1638.9329,-15.703 1639.2783,-8.7115"/>
</g>
<!-- Node38&#45;&gt;Node12 -->
<g id="edge75" class="edge">
<title>Node38&#45;&gt;Node12</title>
<path fill="none" stroke="#191970" d="M1726.2172,-273.6187C1594.4703,-270.6786 1190.4214,-259.5434 857.0271,-228 830.377,-225.4786 800.5385,-221.3381 777.407,-217.8358"/>
<polygon fill="#191970" stroke="#191970" points="777.7023,-214.3402 767.2865,-216.2797 776.6384,-221.2589 777.7023,-214.3402"/>
</g>
<!-- Node38&#45;&gt;Node27 -->
<g id="edge74" class="edge">
<title>Node38&#45;&gt;Node27</title>
<path fill="none" stroke="#191970" d="M1813.9267,-267.7185C1860.7502,-260.0096 1936.8524,-246.1099 2001.0271,-228 2004.2304,-227.096 2007.5314,-226.0717 2010.8212,-224.9867"/>
<polygon fill="#191970" stroke="#191970" points="2012.2497,-228.1958 2020.5486,-221.6095 2009.9538,-221.583 2012.2497,-228.1958"/>
</g>
<!-- Node38&#45;&gt;Node39 -->
<g id="edge73" class="edge">
<title>Node38&#45;&gt;Node39</title>
<path fill="none" stroke="#191970" d="M1796.6979,-264.378C1824.6501,-253.7696 1868.7409,-237.0363 1899.8244,-225.2396"/>
<polygon fill="#191970" stroke="#191970" points="1901.3151,-228.4175 1909.4225,-221.5969 1898.8313,-221.873 1901.3151,-228.4175"/>
</g>
</g>
</svg>
