<?xml version="1.0" encoding="UTF-8" standalone="no"?>
<!DOCTYPE svg PUBLIC "-//W3C//DTD SVG 1.1//EN"
 "http://www.w3.org/Graphics/SVG/1.1/DTD/svg11.dtd">
<!-- Generated by graphviz version 2.40.1 (20161225.0304)
 -->
<!-- Title: GenFit/blob/master/utilities/src/HelixTrackModel.cc Pages: 1 -->
<svg width="432pt" height="212pt"
 viewBox="0.00 0.00 431.50 212.00" xmlns="http://www.w3.org/2000/svg" xmlns:xlink="http://www.w3.org/1999/xlink">
<g id="graph0" class="graph" transform="scale(1 1) rotate(0) translate(4 208)">
<title>GenFit/blob/master/utilities/src/HelixTrackModel.cc</title>
<!-- Node1 -->
<g id="node1" class="node">
<title>Node1</title>
<polygon fill="#bfbfbf" stroke="#000000" points="191.5,-171.5 191.5,-203.5 367.5,-203.5 367.5,-171.5 191.5,-171.5"/>
<text text-anchor="start" x="199.5" y="-190.5" font-family="FreeSans" font-size="10.00" fill="#000000">GenFit/blob/master</text>
<text text-anchor="middle" x="279.5" y="-178.5" font-family="FreeSans" font-size="10.00" fill="#000000">/utilities/src/HelixTrackModel.cc</text>
</g>
<!-- Node2 -->
<g id="node2" class="node">
<title>Node2</title>
<g id="a_node2"><a xlink:href="../../d5/d3e/HelixTrackModel_8h.html" target="_top" xlink:title="HelixTrackModel.h">
<polygon fill="none" stroke="#000000" points="39.5,-114.5 39.5,-134.5 147.5,-134.5 147.5,-114.5 39.5,-114.5"/>
<text text-anchor="middle" x="93.5" y="-121.5" font-family="FreeSans" font-size="10.00" fill="#000000">HelixTrackModel.h</text>
</a>
</g>
</g>
<!-- Node1&#45;&gt;Node2 -->
<g id="edge1" class="edge">
<title>Node1&#45;&gt;Node2</title>
<path fill="none" stroke="#191970" d="M232.0831,-171.4394C201.3699,-161.0366 161.8448,-147.6491 132.8704,-137.8351"/>
<polygon fill="#191970" stroke="#191970" points="133.6878,-134.4167 123.0935,-134.5236 131.4421,-141.0467 133.6878,-134.4167"/>
</g>
<!-- Node5 -->
<g id="node5" class="node">
<title>Node5</title>
<g id="a_node5"><a xlink:href="../../d2/de2/FieldManager_8h.html" target="_top" xlink:title="FieldManager.h">
<polygon fill="none" stroke="#000000" points="187.5,-114.5 187.5,-134.5 279.5,-134.5 279.5,-114.5 187.5,-114.5"/>
<text text-anchor="middle" x="233.5" y="-121.5" font-family="FreeSans" font-size="10.00" fill="#000000">FieldManager.h</text>
</a>
</g>
</g>
<!-- Node1&#45;&gt;Node5 -->
<g id="edge4" class="edge">
<title>Node1&#45;&gt;Node5</title>
<path fill="none" stroke="#191970" d="M267.6539,-171.2759C261.3449,-162.6354 253.5586,-151.9715 247.0144,-143.0089"/>
<polygon fill="#191970" stroke="#191970" points="249.7087,-140.7636 240.9851,-134.7513 244.0554,-144.8915 249.7087,-140.7636"/>
</g>
<!-- Node11 -->
<g id="node11" class="node">
<title>Node11</title>
<polygon fill="none" stroke="#bfbfbf" points="297.5,-114.5 297.5,-134.5 353.5,-134.5 353.5,-114.5 297.5,-114.5"/>
<text text-anchor="middle" x="325.5" y="-121.5" font-family="FreeSans" font-size="10.00" fill="#000000">assert.h</text>
</g>
<!-- Node1&#45;&gt;Node11 -->
<g id="edge11" class="edge">
<title>Node1&#45;&gt;Node11</title>
<path fill="none" stroke="#191970" d="M291.3461,-171.2759C297.6551,-162.6354 305.4414,-151.9715 311.9856,-143.0089"/>
<polygon fill="#191970" stroke="#191970" points="314.9446,-144.8915 318.0149,-134.7513 309.2913,-140.7636 314.9446,-144.8915"/>
</g>
<!-- Node12 -->
<g id="node12" class="node">
<title>Node12</title>
<polygon fill="none" stroke="#bfbfbf" points="371.5,-114.5 371.5,-134.5 423.5,-134.5 423.5,-114.5 371.5,-114.5"/>
<text text-anchor="middle" x="397.5" y="-121.5" font-family="FreeSans" font-size="10.00" fill="#000000">math.h</text>
</g>
<!-- Node1&#45;&gt;Node12 -->
<g id="edge12" class="edge">
<title>Node1&#45;&gt;Node12</title>
<path fill="none" stroke="#191970" d="M309.5817,-171.4394C328.0723,-161.5673 351.5974,-149.0073 369.659,-139.3643"/>
<polygon fill="#191970" stroke="#191970" points="371.3774,-142.4145 378.5505,-134.6171 368.0806,-136.2394 371.3774,-142.4145"/>
</g>
<!-- Node3 -->
<g id="node3" class="node">
<title>Node3</title>
<polygon fill="none" stroke="#bfbfbf" points="0,-57.5 0,-77.5 65,-77.5 65,-57.5 0,-57.5"/>
<text text-anchor="middle" x="32.5" y="-64.5" font-family="FreeSans" font-size="10.00" fill="#000000">TObject.h</text>
</g>
<!-- Node2&#45;&gt;Node3 -->
<g id="edge2" class="edge">
<title>Node2&#45;&gt;Node3</title>
<path fill="none" stroke="#191970" d="M82.5944,-114.3095C73.7466,-106.0419 61.0836,-94.2093 50.7032,-84.5096"/>
<polygon fill="#191970" stroke="#191970" points="53.0074,-81.8724 43.3112,-77.6022 48.2281,-86.987 53.0074,-81.8724"/>
</g>
<!-- Node4 -->
<g id="node4" class="node">
<title>Node4</title>
<polygon fill="none" stroke="#bfbfbf" points="87,-.5 87,-20.5 158,-20.5 158,-.5 87,-.5"/>
<text text-anchor="middle" x="122.5" y="-7.5" font-family="FreeSans" font-size="10.00" fill="#000000">TVector3.h</text>
</g>
<!-- Node2&#45;&gt;Node4 -->
<g id="edge3" class="edge">
<title>Node2&#45;&gt;Node4</title>
<path fill="none" stroke="#191970" d="M96.0736,-114.3833C100.8553,-95.586 111.1893,-54.9627 117.4235,-30.4559"/>
<polygon fill="#191970" stroke="#191970" points="120.8171,-31.3122 119.8905,-20.7579 114.0331,-29.5864 120.8171,-31.3122"/>
</g>
<!-- Node6 -->
<g id="node6" class="node">
<title>Node6</title>
<g id="a_node6"><a xlink:href="../../da/daa/AbsBField_8h.html" target="_top" xlink:title="AbsBField.h">
<polygon fill="none" stroke="#000000" points="122,-57.5 122,-77.5 197,-77.5 197,-57.5 122,-57.5"/>
<text text-anchor="middle" x="159.5" y="-64.5" font-family="FreeSans" font-size="10.00" fill="#000000">AbsBField.h</text>
</a>
</g>
</g>
<!-- Node5&#45;&gt;Node6 -->
<g id="edge5" class="edge">
<title>Node5&#45;&gt;Node6</title>
<path fill="none" stroke="#191970" d="M220.2703,-114.3095C209.3264,-105.8798 193.571,-93.7439 180.8451,-83.9415"/>
<polygon fill="#191970" stroke="#191970" points="182.6733,-80.9318 172.6152,-77.6022 178.4016,-86.4773 182.6733,-80.9318"/>
</g>
<!-- Node7 -->
<g id="node7" class="node">
<title>Node7</title>
<g id="a_node7"><a xlink:href="../../d7/d2f/IO_8h.html" target="_top" xlink:title="IO.h">
<polygon fill="none" stroke="#000000" points="215.5,-57.5 215.5,-77.5 251.5,-77.5 251.5,-57.5 215.5,-57.5"/>
<text text-anchor="middle" x="233.5" y="-64.5" font-family="FreeSans" font-size="10.00" fill="#000000">IO.h</text>
</a>
</g>
</g>
<!-- Node5&#45;&gt;Node7 -->
<g id="edge7" class="edge">
<title>Node5&#45;&gt;Node7</title>
<path fill="none" stroke="#191970" d="M233.5,-114.3095C233.5,-106.9335 233.5,-96.72 233.5,-87.715"/>
<polygon fill="#191970" stroke="#191970" points="237.0001,-87.6022 233.5,-77.6022 230.0001,-87.6023 237.0001,-87.6022"/>
</g>
<!-- Node9 -->
<g id="node9" class="node">
<title>Node9</title>
<polygon fill="none" stroke="#bfbfbf" points="269.5,-57.5 269.5,-77.5 335.5,-77.5 335.5,-57.5 269.5,-57.5"/>
<text text-anchor="middle" x="302.5" y="-64.5" font-family="FreeSans" font-size="10.00" fill="#000000">stdexcept</text>
</g>
<!-- Node5&#45;&gt;Node9 -->
<g id="edge9" class="edge">
<title>Node5&#45;&gt;Node9</title>
<path fill="none" stroke="#191970" d="M245.8358,-114.3095C255.9422,-105.9608 270.449,-93.9769 282.2541,-84.2249"/>
<polygon fill="#191970" stroke="#191970" points="284.7904,-86.6695 290.271,-77.6022 280.3322,-81.2727 284.7904,-86.6695"/>
</g>
<!-- Node10 -->
<g id="node10" class="node">
<title>Node10</title>
<polygon fill="none" stroke="#bfbfbf" points="354,-57.5 354,-77.5 399,-77.5 399,-57.5 354,-57.5"/>
<text text-anchor="middle" x="376.5" y="-64.5" font-family="FreeSans" font-size="10.00" fill="#000000">string</text>
</g>
<!-- Node5&#45;&gt;Node10 -->
<g id="edge10" class="edge">
<title>Node5&#45;&gt;Node10</title>
<path fill="none" stroke="#191970" d="M258.7364,-114.4408C282.6252,-104.9186 318.5887,-90.5835 344.4849,-80.2613"/>
<polygon fill="#191970" stroke="#191970" points="345.8775,-83.474 353.8708,-76.52 343.2856,-76.9715 345.8775,-83.474"/>
</g>
<!-- Node6&#45;&gt;Node4 -->
<g id="edge6" class="edge">
<title>Node6&#45;&gt;Node4</title>
<path fill="none" stroke="#191970" d="M152.8851,-57.3095C147.8341,-49.5282 140.7332,-38.589 134.666,-29.2423"/>
<polygon fill="#191970" stroke="#191970" points="137.4381,-27.0844 129.0576,-20.6022 131.5666,-30.8957 137.4381,-27.0844"/>
</g>
<!-- Node8 -->
<g id="node8" class="node">
<title>Node8</title>
<polygon fill="none" stroke="#bfbfbf" points="205,-.5 205,-20.5 262,-20.5 262,-.5 205,-.5"/>
<text text-anchor="middle" x="233.5" y="-7.5" font-family="FreeSans" font-size="10.00" fill="#000000">ostream</text>
</g>
<!-- Node7&#45;&gt;Node8 -->
<g id="edge8" class="edge">
<title>Node7&#45;&gt;Node8</title>
<path fill="none" stroke="#191970" d="M233.5,-57.3095C233.5,-49.9335 233.5,-39.72 233.5,-30.715"/>
<polygon fill="#191970" stroke="#191970" points="237.0001,-30.6022 233.5,-20.6022 230.0001,-30.6023 237.0001,-30.6022"/>
</g>
</g>
</svg>
