<?xml version="1.0" encoding="UTF-8" standalone="no"?>
<!DOCTYPE svg PUBLIC "-//W3C//DTD SVG 1.1//EN"
 "http://www.w3.org/Graphics/SVG/1.1/DTD/svg11.dtd">
<!-- Generated by graphviz version 2.40.1 (20161225.0304)
 -->
<!-- Title: GenFit/blob/master/measurements/include/HMatrixU.h Pages: 1 -->
<svg width="1330pt" height="134pt"
 viewBox="0.00 0.00 1330.00 134.00" xmlns="http://www.w3.org/2000/svg" xmlns:xlink="http://www.w3.org/1999/xlink">
<g id="graph0" class="graph" transform="scale(1 1) rotate(0) translate(4 130)">
<title>GenFit/blob/master/measurements/include/HMatrixU.h</title>
<!-- Node1 -->
<g id="node1" class="node">
<title>Node1</title>
<polygon fill="#bfbfbf" stroke="#000000" points="445,-81.5 445,-125.5 581,-125.5 581,-81.5 445,-81.5"/>
<text text-anchor="start" x="453" y="-112.5" font-family="FreeSans" font-size="10.00" fill="#000000">GenFit/blob/master</text>
<text text-anchor="start" x="453" y="-100.5" font-family="FreeSans" font-size="10.00" fill="#000000">/measurements/include</text>
<text text-anchor="middle" x="513" y="-88.5" font-family="FreeSans" font-size="10.00" fill="#000000">/HMatrixU.h</text>
</g>
<!-- Node2 -->
<g id="node2" class="node">
<title>Node2</title>
<g id="a_node2"><a xlink:href="../../db/df5/GblFitter_8cc.html" target="_top" xlink:title="GenFit/blob/master\l/GBL/src/GblFitter.cc">
<polygon fill="none" stroke="#000000" points="0,-6.5 0,-38.5 118,-38.5 118,-6.5 0,-6.5"/>
<text text-anchor="start" x="8" y="-25.5" font-family="FreeSans" font-size="10.00" fill="#000000">GenFit/blob/master</text>
<text text-anchor="middle" x="59" y="-13.5" font-family="FreeSans" font-size="10.00" fill="#000000">/GBL/src/GblFitter.cc</text>
</a>
</g>
</g>
<!-- Node1&#45;&gt;Node2 -->
<g id="edge1" class="edge">
<title>Node1&#45;&gt;Node2</title>
<path fill="none" stroke="#191970" d="M434.3958,-95.533C355.8639,-86.6526 232.0352,-70.1453 127,-45 119.5021,-43.205 111.6475,-40.9598 104.0488,-38.5876"/>
<polygon fill="#191970" stroke="#191970" points="434.3671,-99.0514 444.6938,-96.6831 435.1441,-92.0947 434.3671,-99.0514"/>
</g>
<!-- Node3 -->
<g id="node3" class="node">
<title>Node3</title>
<g id="a_node3"><a xlink:href="../../d6/dcc/GblFitterInfo_8cc.html" target="_top" xlink:title="GenFit/blob/master\l/GBL/src/GblFitterInfo.cc">
<polygon fill="none" stroke="#000000" points="136,-6.5 136,-38.5 274,-38.5 274,-6.5 136,-6.5"/>
<text text-anchor="start" x="144" y="-25.5" font-family="FreeSans" font-size="10.00" fill="#000000">GenFit/blob/master</text>
<text text-anchor="middle" x="205" y="-13.5" font-family="FreeSans" font-size="10.00" fill="#000000">/GBL/src/GblFitterInfo.cc</text>
</a>
</g>
</g>
<!-- Node1&#45;&gt;Node3 -->
<g id="edge2" class="edge">
<title>Node1&#45;&gt;Node3</title>
<path fill="none" stroke="#191970" d="M435.0189,-84.3195C390.4125,-73.1845 333.4617,-58.6918 283,-45 275.5189,-42.9701 267.652,-40.7739 259.9104,-38.5766"/>
<polygon fill="#191970" stroke="#191970" points="434.3702,-87.7648 444.9197,-86.7865 436.0627,-80.9725 434.3702,-87.7648"/>
</g>
<!-- Node4 -->
<g id="node4" class="node">
<title>Node4</title>
<g id="a_node4"><a xlink:href="../../d5/d90/GFGbl_8cc.html" target="_top" xlink:title="GenFit/blob/master\l/GBL/src/GFGbl.cc">
<polygon fill="none" stroke="#000000" points="292.5,-6.5 292.5,-38.5 405.5,-38.5 405.5,-6.5 292.5,-6.5"/>
<text text-anchor="start" x="300.5" y="-25.5" font-family="FreeSans" font-size="10.00" fill="#000000">GenFit/blob/master</text>
<text text-anchor="middle" x="349" y="-13.5" font-family="FreeSans" font-size="10.00" fill="#000000">/GBL/src/GFGbl.cc</text>
</a>
</g>
</g>
<!-- Node1&#45;&gt;Node4 -->
<g id="edge3" class="edge">
<title>Node1&#45;&gt;Node4</title>
<path fill="none" stroke="#191970" d="M458.9623,-76.8107C433.3594,-64.1653 403.6247,-49.4793 381.5359,-38.5696"/>
<polygon fill="#191970" stroke="#191970" points="457.6703,-80.0761 468.1863,-81.3664 460.7702,-73.7999 457.6703,-80.0761"/>
</g>
<!-- Node5 -->
<g id="node5" class="node">
<title>Node5</title>
<g id="a_node5"><a xlink:href="../../d0/d53/HMatrixU_8cc.html" target="_top" xlink:title="GenFit/blob/master\l/measurements/src/HMatrixU.cc">
<polygon fill="none" stroke="#000000" points="424,-6.5 424,-38.5 602,-38.5 602,-6.5 424,-6.5"/>
<text text-anchor="start" x="432" y="-25.5" font-family="FreeSans" font-size="10.00" fill="#000000">GenFit/blob/master</text>
<text text-anchor="middle" x="513" y="-13.5" font-family="FreeSans" font-size="10.00" fill="#000000">/measurements/src/HMatrixU.cc</text>
</a>
</g>
</g>
<!-- Node1&#45;&gt;Node5 -->
<g id="edge4" class="edge">
<title>Node1&#45;&gt;Node5</title>
<path fill="none" stroke="#191970" d="M513,-71.0737C513,-59.9468 513,-47.9724 513,-38.6969"/>
<polygon fill="#191970" stroke="#191970" points="509.5001,-71.3664 513,-81.3664 516.5001,-71.3664 509.5001,-71.3664"/>
</g>
<!-- Node6 -->
<g id="node6" class="node">
<title>Node6</title>
<g id="a_node6"><a xlink:href="../../de/db6/GenFit_2blob_2master_2measurements_2src_2PlanarMeasurement_8cc.html" target="_top" xlink:title="GenFit/blob/master\l/measurements/src/PlanarMeasurement.cc">
<polygon fill="none" stroke="#000000" points="619.5,-6.5 619.5,-38.5 852.5,-38.5 852.5,-6.5 619.5,-6.5"/>
<text text-anchor="start" x="627.5" y="-25.5" font-family="FreeSans" font-size="10.00" fill="#000000">GenFit/blob/master</text>
<text text-anchor="middle" x="736" y="-13.5" font-family="FreeSans" font-size="10.00" fill="#000000">/measurements/src/PlanarMeasurement.cc</text>
</a>
</g>
</g>
<!-- Node1&#45;&gt;Node6 -->
<g id="edge5" class="edge">
<title>Node1&#45;&gt;Node6</title>
<path fill="none" stroke="#191970" d="M583.4501,-77.9105C618.8828,-65.0403 660.7437,-49.8353 691.6429,-38.6118"/>
<polygon fill="#191970" stroke="#191970" points="581.8454,-74.7696 573.6412,-81.4734 584.2353,-81.349 581.8454,-74.7696"/>
</g>
<!-- Node7 -->
<g id="node7" class="node">
<title>Node7</title>
<g id="a_node7"><a xlink:href="../../d8/d34/WireMeasurement_8cc.html" target="_top" xlink:title="GenFit/blob/master\l/measurements/src/WireMeasurement.cc">
<polygon fill="none" stroke="#000000" points="870,-6.5 870,-38.5 1094,-38.5 1094,-6.5 870,-6.5"/>
<text text-anchor="start" x="878" y="-25.5" font-family="FreeSans" font-size="10.00" fill="#000000">GenFit/blob/master</text>
<text text-anchor="middle" x="982" y="-13.5" font-family="FreeSans" font-size="10.00" fill="#000000">/measurements/src/WireMeasurement.cc</text>
</a>
</g>
</g>
<!-- Node1&#45;&gt;Node7 -->
<g id="edge6" class="edge">
<title>Node1&#45;&gt;Node7</title>
<path fill="none" stroke="#191970" d="M591.4534,-90.7929C662.2351,-79.2228 769.1768,-61.4802 862,-45 873.5829,-42.9435 885.7836,-40.7212 897.7898,-38.5016"/>
<polygon fill="#191970" stroke="#191970" points="590.5838,-87.3884 581.2785,-92.4542 591.7119,-94.2969 590.5838,-87.3884"/>
</g>
<!-- Node8 -->
<g id="node8" class="node">
<title>Node8</title>
<g id="a_node8"><a xlink:href="../../d9/d1c/WireMeasurementNew_8cc.html" target="_top" xlink:title="GenFit/blob/master\l/measurements/src/WireMeasurement\lNew.cc">
<polygon fill="none" stroke="#000000" points="1112,-.5 1112,-44.5 1322,-44.5 1322,-.5 1112,-.5"/>
<text text-anchor="start" x="1120" y="-31.5" font-family="FreeSans" font-size="10.00" fill="#000000">GenFit/blob/master</text>
<text text-anchor="start" x="1120" y="-19.5" font-family="FreeSans" font-size="10.00" fill="#000000">/measurements/src/WireMeasurement</text>
<text text-anchor="middle" x="1217" y="-7.5" font-family="FreeSans" font-size="10.00" fill="#000000">New.cc</text>
</a>
</g>
</g>
<!-- Node1&#45;&gt;Node8 -->
<g id="edge7" class="edge">
<title>Node1&#45;&gt;Node8</title>
<path fill="none" stroke="#191970" d="M591.3727,-98.1365C704.6717,-89.8377 920.6368,-71.9736 1103,-45 1105.8937,-44.572 1108.8253,-44.1203 1111.7812,-43.6489"/>
<polygon fill="#191970" stroke="#191970" points="591.1183,-94.6457 581.3985,-98.8618 591.626,-101.6273 591.1183,-94.6457"/>
</g>
</g>
</svg>
