<?xml version="1.0" encoding="UTF-8" standalone="no"?>
<!DOCTYPE svg PUBLIC "-//W3C//DTD SVG 1.1//EN"
 "http://www.w3.org/Graphics/SVG/1.1/DTD/svg11.dtd">
<!-- Generated by graphviz version 2.40.1 (20161225.0304)
 -->
<!-- Title: PHG4MvtxDigitizer::PHG4MvtxDigitizer Pages: 1 -->
<svg width="293pt" height="107pt"
 viewBox="0.00 0.00 293.00 107.00" xmlns="http://www.w3.org/2000/svg" xmlns:xlink="http://www.w3.org/1999/xlink">
<g id="graph0" class="graph" transform="scale(1 1) rotate(0) translate(4 103)">
<title>PHG4MvtxDigitizer::PHG4MvtxDigitizer</title>
<!-- Node1 -->
<g id="node1" class="node">
<title>Node1</title>
<polygon fill="#bfbfbf" stroke="#000000" points="0,-33.5 0,-65.5 117,-65.5 117,-33.5 0,-33.5"/>
<text text-anchor="start" x="8" y="-52.5" font-family="FreeSans" font-size="10.00" fill="#000000">PHG4MvtxDigitizer::</text>
<text text-anchor="middle" x="58.5" y="-40.5" font-family="FreeSans" font-size="10.00" fill="#000000">PHG4MvtxDigitizer</text>
</g>
<!-- Node2 -->
<g id="node2" class="node">
<title>Node2</title>
<g id="a_node2"><a xlink:href="../../d1/d0a/PHTruthVertexing_8cc.html#ad8eec1a5a0219e016430a4b0759daf18" target="_top" xlink:title="gsl_rng_set">
<polygon fill="none" stroke="#000000" points="182,-78.5 182,-98.5 256,-98.5 256,-78.5 182,-78.5"/>
<text text-anchor="middle" x="219" y="-85.5" font-family="FreeSans" font-size="10.00" fill="#000000">gsl_rng_set</text>
</a>
</g>
</g>
<!-- Node1&#45;&gt;Node2 -->
<g id="edge1" class="edge">
<title>Node1&#45;&gt;Node2</title>
<path fill="none" stroke="#191970" d="M117.3529,-63.8007C135.302,-68.1622 154.7918,-72.898 171.8588,-77.0451"/>
<polygon fill="#191970" stroke="#191970" points="171.054,-80.4514 181.5977,-79.4116 172.7069,-73.6493 171.054,-80.4514"/>
</g>
<!-- Node3 -->
<g id="node3" class="node">
<title>Node3</title>
<g id="a_node3"><a xlink:href="../../d5/dec/classFun4AllBase.html#a41f9ac377743d046f590617fd6f4f0ed" target="_top" xlink:title="Returns the name of this module.">
<polygon fill="none" stroke="#000000" points="161.5,-39.5 161.5,-59.5 276.5,-59.5 276.5,-39.5 161.5,-39.5"/>
<text text-anchor="middle" x="219" y="-46.5" font-family="FreeSans" font-size="10.00" fill="#000000">Fun4AllBase::Name</text>
</a>
</g>
</g>
<!-- Node1&#45;&gt;Node3 -->
<g id="edge2" class="edge">
<title>Node1&#45;&gt;Node3</title>
<path fill="none" stroke="#191970" d="M117.3529,-49.5C128.381,-49.5 139.9907,-49.5 151.2627,-49.5"/>
<polygon fill="#191970" stroke="#191970" points="151.4933,-53.0001 161.4932,-49.5 151.4932,-46.0001 151.4933,-53.0001"/>
</g>
<!-- Node4 -->
<g id="node4" class="node">
<title>Node4</title>
<g id="a_node4"><a xlink:href="../../d5/dec/classFun4AllBase.html#a8a5c77a92bdac6bc043476e132379a40" target="_top" xlink:title="Gets the verbosity of this module.">
<polygon fill="none" stroke="#000000" points="153,-.5 153,-20.5 285,-20.5 285,-.5 153,-.5"/>
<text text-anchor="middle" x="219" y="-7.5" font-family="FreeSans" font-size="10.00" fill="#000000">Fun4AllBase::Verbosity</text>
</a>
</g>
</g>
<!-- Node1&#45;&gt;Node4 -->
<g id="edge3" class="edge">
<title>Node1&#45;&gt;Node4</title>
<path fill="none" stroke="#191970" d="M117.3529,-35.1993C133.9489,-31.1666 151.8619,-26.8139 167.9592,-22.9024"/>
<polygon fill="#191970" stroke="#191970" points="168.8286,-26.2931 177.7194,-20.5308 167.1757,-19.491 168.8286,-26.2931"/>
</g>
</g>
</svg>
