<?xml version="1.0" encoding="UTF-8" standalone="no"?>
<!DOCTYPE svg PUBLIC "-//W3C//DTD SVG 1.1//EN"
 "http://www.w3.org/Graphics/SVG/1.1/DTD/svg11.dtd">
<!-- Generated by graphviz version 2.40.1 (20161225.0304)
 -->
<!-- Title: genfit::StepLimits::getStepSign Pages: 1 -->
<svg width="1197pt" height="296pt"
 viewBox="0.00 0.00 1197.00 296.00" xmlns="http://www.w3.org/2000/svg" xmlns:xlink="http://www.w3.org/1999/xlink">
<g id="graph0" class="graph" transform="scale(1 1) rotate(0) translate(4 292)">
<title>genfit::StepLimits::getStepSign</title>
<!-- Node1 -->
<g id="node1" class="node">
<title>Node1</title>
<polygon fill="#bfbfbf" stroke="#000000" points="0,-124.5 0,-156.5 106,-156.5 106,-124.5 0,-124.5"/>
<text text-anchor="start" x="8" y="-143.5" font-family="FreeSans" font-size="10.00" fill="#000000">genfit::StepLimits</text>
<text text-anchor="middle" x="53" y="-131.5" font-family="FreeSans" font-size="10.00" fill="#000000">::getStepSign</text>
</g>
<!-- Node2 -->
<g id="node2" class="node">
<title>Node2</title>
<g id="a_node2"><a xlink:href="../../d2/d12/classgenfit_1_1RKTrackRep.html#a37357f3b52f71699afd587716babde3f" target="_top" xlink:title="genfit::RKTrackRep\l::estimateStep">
<polygon fill="none" stroke="#000000" points="306,-124.5 306,-156.5 417,-156.5 417,-124.5 306,-124.5"/>
<text text-anchor="start" x="314" y="-143.5" font-family="FreeSans" font-size="10.00" fill="#000000">genfit::RKTrackRep</text>
<text text-anchor="middle" x="361.5" y="-131.5" font-family="FreeSans" font-size="10.00" fill="#000000">::estimateStep</text>
</a>
</g>
</g>
<!-- Node1&#45;&gt;Node2 -->
<g id="edge1" class="edge">
<title>Node1&#45;&gt;Node2</title>
<path fill="none" stroke="#191970" d="M116.2441,-142.8945C124.8974,-143.1453 133.6672,-143.3596 142,-143.5 198.8808,-144.4584 213.1187,-144.4322 270,-143.5 281.601,-143.3099 294.0261,-142.9842 305.8619,-142.6158"/>
<polygon fill="#191970" stroke="#191970" points="116.2753,-139.3939 106.1726,-142.5855 116.0606,-146.3906 116.2753,-139.3939"/>
</g>
<!-- Node13 -->
<g id="node13" class="node">
<title>Node13</title>
<g id="a_node13"><a xlink:href="../../d1/d34/classgenfit_1_1MaterialEffects.html#a650a96bd4e7202f0df289f812420ba26" target="_top" xlink:title="Returns maximum length so that a specified momentum loss will not be exceeded.">
<polygon fill="none" stroke="#000000" points="142,-102.5 142,-134.5 270,-134.5 270,-102.5 142,-102.5"/>
<text text-anchor="start" x="150" y="-121.5" font-family="FreeSans" font-size="10.00" fill="#000000">genfit::MaterialEffects</text>
<text text-anchor="middle" x="206" y="-109.5" font-family="FreeSans" font-size="10.00" fill="#000000">::stepper</text>
</a>
</g>
</g>
<!-- Node1&#45;&gt;Node13 -->
<g id="edge18" class="edge">
<title>Node1&#45;&gt;Node13</title>
<path fill="none" stroke="#191970" d="M116.0016,-131.441C124.5651,-130.2096 133.3617,-128.9447 141.9436,-127.7107"/>
<polygon fill="#191970" stroke="#191970" points="115.4826,-127.9795 106.0826,-132.8672 116.479,-134.9082 115.4826,-127.9795"/>
</g>
<!-- Node3 -->
<g id="node3" class="node">
<title>Node3</title>
<g id="a_node3"><a xlink:href="../../d2/d12/classgenfit_1_1RKTrackRep.html#ae3384d3819bb9c4d8aa9e1981913331b" target="_top" xlink:title="Propagates the particle through the magnetic field.">
<polygon fill="none" stroke="#000000" points="453,-124.5 453,-156.5 564,-156.5 564,-124.5 453,-124.5"/>
<text text-anchor="start" x="461" y="-143.5" font-family="FreeSans" font-size="10.00" fill="#000000">genfit::RKTrackRep</text>
<text text-anchor="middle" x="508.5" y="-131.5" font-family="FreeSans" font-size="10.00" fill="#000000">::RKutta</text>
</a>
</g>
</g>
<!-- Node2&#45;&gt;Node3 -->
<g id="edge2" class="edge">
<title>Node2&#45;&gt;Node3</title>
<path fill="none" stroke="#191970" d="M427.0775,-140.5C435.6805,-140.5 444.4299,-140.5 452.847,-140.5"/>
<polygon fill="#191970" stroke="#191970" points="427.0744,-137.0001 417.0744,-140.5 427.0744,-144.0001 427.0744,-137.0001"/>
</g>
<!-- Node4 -->
<g id="node4" class="node">
<title>Node4</title>
<g id="a_node4"><a xlink:href="../../d2/d12/classgenfit_1_1RKTrackRep.html#a8aab6f587db26d572214ede92f4877fc" target="_top" xlink:title="Handles propagation and material effects.">
<polygon fill="none" stroke="#000000" points="600,-124.5 600,-156.5 711,-156.5 711,-124.5 600,-124.5"/>
<text text-anchor="start" x="608" y="-143.5" font-family="FreeSans" font-size="10.00" fill="#000000">genfit::RKTrackRep</text>
<text text-anchor="middle" x="655.5" y="-131.5" font-family="FreeSans" font-size="10.00" fill="#000000">::Extrap</text>
</a>
</g>
</g>
<!-- Node3&#45;&gt;Node4 -->
<g id="edge3" class="edge">
<title>Node3&#45;&gt;Node4</title>
<path fill="none" stroke="#191970" d="M574.0775,-140.5C582.6805,-140.5 591.4299,-140.5 599.847,-140.5"/>
<polygon fill="#191970" stroke="#191970" points="574.0744,-137.0001 564.0744,-140.5 574.0744,-144.0001 574.0744,-137.0001"/>
</g>
<!-- Node5 -->
<g id="node5" class="node">
<title>Node5</title>
<g id="a_node5"><a xlink:href="../../d2/d12/classgenfit_1_1RKTrackRep.html#afb21945e3f605f45b1a5bbbe7741793f" target="_top" xlink:title="Extrapolates the state by step (cm) and returns the extrapolation length and, via reference...">
<polygon fill="none" stroke="#000000" points="913.5,-255.5 913.5,-287.5 1024.5,-287.5 1024.5,-255.5 913.5,-255.5"/>
<text text-anchor="start" x="921.5" y="-274.5" font-family="FreeSans" font-size="10.00" fill="#000000">genfit::RKTrackRep</text>
<text text-anchor="middle" x="969" y="-262.5" font-family="FreeSans" font-size="10.00" fill="#000000">::extrapolateBy</text>
</a>
</g>
</g>
<!-- Node4&#45;&gt;Node5 -->
<g id="edge4" class="edge">
<title>Node4&#45;&gt;Node5</title>
<path fill="none" stroke="#191970" d="M680.7318,-163.6532C698.2082,-178.6056 722.6307,-197.4496 747,-209.5 800.4472,-235.9291 866.8833,-252.5962 913.0826,-261.9118"/>
<polygon fill="#191970" stroke="#191970" points="682.5748,-160.6157 672.7412,-156.6723 677.9694,-165.8874 682.5748,-160.6157"/>
</g>
<!-- Node6 -->
<g id="node6" class="node">
<title>Node6</title>
<g id="a_node6"><a xlink:href="../../d2/d12/classgenfit_1_1RKTrackRep.html#a44091ce8605a38c40d4a4f1692af448b" target="_top" xlink:title="Extrapolates the state to the cone surface, and returns the extrapolation length and, via reference, the extrapolated state.">
<polygon fill="none" stroke="#000000" points="910.5,-204.5 910.5,-236.5 1027.5,-236.5 1027.5,-204.5 910.5,-204.5"/>
<text text-anchor="start" x="918.5" y="-223.5" font-family="FreeSans" font-size="10.00" fill="#000000">genfit::RKTrackRep</text>
<text text-anchor="middle" x="969" y="-211.5" font-family="FreeSans" font-size="10.00" fill="#000000">::extrapolateToCone</text>
</a>
</g>
</g>
<!-- Node4&#45;&gt;Node6 -->
<g id="edge5" class="edge">
<title>Node4&#45;&gt;Node6</title>
<path fill="none" stroke="#191970" d="M693.4405,-161.1916C709.5524,-169.2166 728.7903,-177.8225 747,-183.5 801.0883,-200.3639 865.1259,-209.9943 910.4896,-215.1753"/>
<polygon fill="#191970" stroke="#191970" points="694.8461,-157.9797 684.3467,-156.5603 691.6693,-164.2174 694.8461,-157.9797"/>
</g>
<!-- Node7 -->
<g id="node7" class="node">
<title>Node7</title>
<g id="a_node7"><a xlink:href="../../d2/d12/classgenfit_1_1RKTrackRep.html#abb4665294ae573dc5423f2975bb8b3e7" target="_top" xlink:title="Extrapolates the state to the cylinder surface, and returns the extrapolation length and...">
<polygon fill="none" stroke="#000000" points="902,-153.5 902,-185.5 1036,-185.5 1036,-153.5 902,-153.5"/>
<text text-anchor="start" x="910" y="-172.5" font-family="FreeSans" font-size="10.00" fill="#000000">genfit::RKTrackRep</text>
<text text-anchor="middle" x="969" y="-160.5" font-family="FreeSans" font-size="10.00" fill="#000000">::extrapolateToCylinder</text>
</a>
</g>
</g>
<!-- Node4&#45;&gt;Node7 -->
<g id="edge6" class="edge">
<title>Node4&#45;&gt;Node7</title>
<path fill="none" stroke="#191970" d="M712.6737,-159.2341C723.9371,-162.2153 735.7518,-164.8554 747,-166.5 798.4885,-174.0283 857.4091,-174.4509 901.6046,-173.1685"/>
<polygon fill="#191970" stroke="#191970" points="713.5168,-155.836 702.9456,-156.5429 711.6504,-162.5826 713.5168,-155.836"/>
</g>
<!-- Node8 -->
<g id="node8" class="node">
<title>Node8</title>
<g id="a_node8"><a xlink:href="../../d2/d12/classgenfit_1_1RKTrackRep.html#a216b86da9a7238ff9cf24e944b0f9e4b" target="_top" xlink:title="Extrapolates the state to the POCA to a line, and returns the extrapolation length and...">
<polygon fill="none" stroke="#000000" points="912.5,-102.5 912.5,-134.5 1025.5,-134.5 1025.5,-102.5 912.5,-102.5"/>
<text text-anchor="start" x="920.5" y="-121.5" font-family="FreeSans" font-size="10.00" fill="#000000">genfit::RKTrackRep</text>
<text text-anchor="middle" x="969" y="-109.5" font-family="FreeSans" font-size="10.00" fill="#000000">::extrapolateToLine</text>
</a>
</g>
</g>
<!-- Node4&#45;&gt;Node8 -->
<g id="edge7" class="edge">
<title>Node4&#45;&gt;Node8</title>
<path fill="none" stroke="#191970" d="M712.2768,-121.7442C723.6555,-118.7321 735.6145,-116.0862 747,-114.5 802.7416,-106.7341 867.1098,-109.1272 912.1347,-112.6176"/>
<polygon fill="#191970" stroke="#191970" points="711.1565,-118.4227 702.4557,-124.468 713.0273,-125.1681 711.1565,-118.4227"/>
</g>
<!-- Node9 -->
<g id="node9" class="node">
<title>Node9</title>
<g id="a_node9"><a xlink:href="../../d2/d12/classgenfit_1_1RKTrackRep.html#a03a1d1eb5b7169ba697ccf114de5066c" target="_top" xlink:title="Extrapolates the state to plane, and returns the extrapolation length and, via reference, the extrapolated state.">
<polygon fill="none" stroke="#000000" points="747,-124.5 747,-156.5 866,-156.5 866,-124.5 747,-124.5"/>
<text text-anchor="start" x="755" y="-143.5" font-family="FreeSans" font-size="10.00" fill="#000000">genfit::RKTrackRep</text>
<text text-anchor="middle" x="806.5" y="-131.5" font-family="FreeSans" font-size="10.00" fill="#000000">::extrapolateToPlane</text>
</a>
</g>
</g>
<!-- Node4&#45;&gt;Node9 -->
<g id="edge8" class="edge">
<title>Node4&#45;&gt;Node9</title>
<path fill="none" stroke="#191970" d="M721.4898,-140.5C729.9347,-140.5 738.5409,-140.5 746.8767,-140.5"/>
<polygon fill="#191970" stroke="#191970" points="721.2978,-137.0001 711.2978,-140.5 721.2978,-144.0001 721.2978,-137.0001"/>
</g>
<!-- Node10 -->
<g id="node10" class="node">
<title>Node10</title>
<g id="a_node10"><a xlink:href="../../d2/d12/classgenfit_1_1RKTrackRep.html#aaa34d4913daa972f1947554c4b1e23a8" target="_top" xlink:title="Extrapolates the state to the sphere surface, and returns the extrapolation length and...">
<polygon fill="none" stroke="#000000" points="905.5,-51.5 905.5,-83.5 1032.5,-83.5 1032.5,-51.5 905.5,-51.5"/>
<text text-anchor="start" x="913.5" y="-70.5" font-family="FreeSans" font-size="10.00" fill="#000000">genfit::RKTrackRep</text>
<text text-anchor="middle" x="969" y="-58.5" font-family="FreeSans" font-size="10.00" fill="#000000">::extrapolateToSphere</text>
</a>
</g>
</g>
<!-- Node4&#45;&gt;Node10 -->
<g id="edge16" class="edge">
<title>Node4&#45;&gt;Node10</title>
<path fill="none" stroke="#191970" d="M702.3139,-120.5726C716.4798,-115.0948 732.2063,-109.5535 747,-105.5 799.42,-91.137 860.3641,-81.1684 905.1214,-75.0565"/>
<polygon fill="#191970" stroke="#191970" points="700.8017,-117.4067 692.7867,-124.3357 703.3733,-123.9172 700.8017,-117.4067"/>
</g>
<!-- Node11 -->
<g id="node11" class="node">
<title>Node11</title>
<g id="a_node11"><a xlink:href="../../d2/d12/classgenfit_1_1RKTrackRep.html#abb38b9cdcf9cfa490b795530579bcd73" target="_top" xlink:title="genfit::RKTrackRep\l::extrapToPoint">
<polygon fill="none" stroke="#000000" points="913.5,-.5 913.5,-32.5 1024.5,-32.5 1024.5,-.5 913.5,-.5"/>
<text text-anchor="start" x="921.5" y="-19.5" font-family="FreeSans" font-size="10.00" fill="#000000">genfit::RKTrackRep</text>
<text text-anchor="middle" x="969" y="-7.5" font-family="FreeSans" font-size="10.00" fill="#000000">::extrapToPoint</text>
</a>
</g>
</g>
<!-- Node4&#45;&gt;Node11 -->
<g id="edge17" class="edge">
<title>Node4&#45;&gt;Node11</title>
<path fill="none" stroke="#191970" d="M683.1355,-118.2942C700.594,-105.1745 724.1082,-89.1079 747,-78.5 801.0985,-53.4311 867.4278,-36.5409 913.424,-26.8011"/>
<polygon fill="#191970" stroke="#191970" points="680.8931,-115.603 675.0807,-124.4612 685.1485,-121.161 680.8931,-115.603"/>
</g>
<!-- Node9&#45;&gt;Node5 -->
<g id="edge9" class="edge">
<title>Node9&#45;&gt;Node5</title>
<path fill="none" stroke="#191970" d="M823.0791,-164.8935C840.3282,-188.6354 869.3483,-224.2911 902,-246.5 906.9275,-249.8516 912.3627,-252.8253 917.942,-255.4449"/>
<polygon fill="#191970" stroke="#191970" points="825.9214,-162.851 817.2718,-156.7325 820.218,-166.9095 825.9214,-162.851"/>
</g>
<!-- Node9&#45;&gt;Node6 -->
<g id="edge10" class="edge">
<title>Node9&#45;&gt;Node6</title>
<path fill="none" stroke="#191970" d="M840.7218,-162.0509C858.601,-172.833 881.0661,-185.6491 902,-195.5 908.6279,-198.6189 915.7595,-201.6281 922.8106,-204.4124"/>
<polygon fill="#191970" stroke="#191970" points="842.1827,-158.8423 831.8226,-156.6244 838.5384,-164.8189 842.1827,-158.8423"/>
</g>
<!-- Node9&#45;&gt;Node7 -->
<g id="edge11" class="edge">
<title>Node9&#45;&gt;Node7</title>
<path fill="none" stroke="#191970" d="M875.9965,-152.9025C884.5274,-154.4249 893.2349,-155.9788 901.732,-157.4953"/>
<polygon fill="#191970" stroke="#191970" points="876.5457,-149.4452 866.0863,-151.1339 875.3158,-156.3364 876.5457,-149.4452"/>
</g>
<!-- Node9&#45;&gt;Node8 -->
<g id="edge12" class="edge">
<title>Node9&#45;&gt;Node8</title>
<path fill="none" stroke="#191970" d="M876.1443,-131.0712C888.2452,-129.433 900.6967,-127.7472 912.3953,-126.1634"/>
<polygon fill="#191970" stroke="#191970" points="875.5263,-127.6229 866.0863,-132.4329 876.4655,-134.5596 875.5263,-127.6229"/>
</g>
<!-- Node9&#45;&gt;Node10 -->
<g id="edge13" class="edge">
<title>Node9&#45;&gt;Node10</title>
<path fill="none" stroke="#191970" d="M845.7542,-119.5632C862.8326,-110.7703 883.2012,-100.7027 902,-92.5 909.0551,-89.4216 916.6228,-86.3679 924.0409,-83.5075"/>
<polygon fill="#191970" stroke="#191970" points="843.8982,-116.5831 836.6356,-124.2971 847.1236,-122.7958 843.8982,-116.5831"/>
</g>
<!-- Node9&#45;&gt;Node11 -->
<g id="edge14" class="edge">
<title>Node9&#45;&gt;Node11</title>
<path fill="none" stroke="#191970" d="M824.5484,-116.3593C842.1733,-94.2449 870.831,-61.9326 902,-41.5 907.0878,-38.1648 912.6825,-35.1904 918.4037,-32.5609"/>
<polygon fill="#191970" stroke="#191970" points="821.7511,-114.2548 818.3515,-124.2894 827.2668,-118.565 821.7511,-114.2548"/>
</g>
<!-- Node12 -->
<g id="node12" class="node">
<title>Node12</title>
<g id="a_node12"><a xlink:href="../../d2/d12/classgenfit_1_1RKTrackRep.html#aff9f0db2e194bd9889386cc73ed2d0cd" target="_top" xlink:title="Extrapolates the state to the POCA to a point, and returns the extrapolation length and...">
<polygon fill="none" stroke="#000000" points="1072,-.5 1072,-32.5 1189,-32.5 1189,-.5 1072,-.5"/>
<text text-anchor="start" x="1080" y="-19.5" font-family="FreeSans" font-size="10.00" fill="#000000">genfit::RKTrackRep</text>
<text text-anchor="middle" x="1130.5" y="-7.5" font-family="FreeSans" font-size="10.00" fill="#000000">::extrapolateToPoint</text>
</a>
</g>
</g>
<!-- Node11&#45;&gt;Node12 -->
<g id="edge15" class="edge">
<title>Node11&#45;&gt;Node12</title>
<path fill="none" stroke="#191970" d="M1034.7434,-16.5C1047.0089,-16.5 1059.753,-16.5 1071.7897,-16.5"/>
<polygon fill="#191970" stroke="#191970" points="1034.5792,-13.0001 1024.5791,-16.5 1034.5791,-20.0001 1034.5792,-13.0001"/>
</g>
<!-- Node13&#45;&gt;Node2 -->
<g id="edge19" class="edge">
<title>Node13&#45;&gt;Node2</title>
<path fill="none" stroke="#191970" d="M280.2472,-129.0044C288.8969,-130.2282 297.6045,-131.4601 305.9407,-132.6395"/>
<polygon fill="#191970" stroke="#191970" points="280.5373,-125.5107 270.1456,-127.5753 279.5566,-132.4417 280.5373,-125.5107"/>
</g>
</g>
</svg>
