<?xml version="1.0" encoding="UTF-8" standalone="no"?>
<!DOCTYPE svg PUBLIC "-//W3C//DTD SVG 1.1//EN"
 "http://www.w3.org/Graphics/SVG/1.1/DTD/svg11.dtd">
<!-- Generated by graphviz version 2.40.1 (20161225.0304)
 -->
<!-- Title: GenFit/blob/master/core/src/AbsFinitePlane.cc Pages: 1 -->
<svg width="160pt" height="155pt"
 viewBox="0.00 0.00 160.00 155.00" xmlns="http://www.w3.org/2000/svg" xmlns:xlink="http://www.w3.org/1999/xlink">
<g id="graph0" class="graph" transform="scale(1 1) rotate(0) translate(4 151)">
<title>GenFit/blob/master/core/src/AbsFinitePlane.cc</title>
<!-- Node1 -->
<g id="node1" class="node">
<title>Node1</title>
<polygon fill="#bfbfbf" stroke="#000000" points="0,-114.5 0,-146.5 152,-146.5 152,-114.5 0,-114.5"/>
<text text-anchor="start" x="8" y="-133.5" font-family="FreeSans" font-size="10.00" fill="#000000">GenFit/blob/master</text>
<text text-anchor="middle" x="76" y="-121.5" font-family="FreeSans" font-size="10.00" fill="#000000">/core/src/AbsFinitePlane.cc</text>
</g>
<!-- Node2 -->
<g id="node2" class="node">
<title>Node2</title>
<g id="a_node2"><a xlink:href="../../d1/dd1/AbsFinitePlane_8h.html" target="_top" xlink:title="AbsFinitePlane.h">
<polygon fill="none" stroke="#000000" points="26,-57.5 26,-77.5 126,-77.5 126,-57.5 26,-57.5"/>
<text text-anchor="middle" x="76" y="-64.5" font-family="FreeSans" font-size="10.00" fill="#000000">AbsFinitePlane.h</text>
</a>
</g>
</g>
<!-- Node1&#45;&gt;Node2 -->
<g id="edge1" class="edge">
<title>Node1&#45;&gt;Node2</title>
<path fill="none" stroke="#191970" d="M76,-114.2759C76,-106.2654 76,-96.5159 76,-87.9952"/>
<polygon fill="#191970" stroke="#191970" points="79.5001,-87.7512 76,-77.7513 72.5001,-87.7513 79.5001,-87.7512"/>
</g>
<!-- Node3 -->
<g id="node3" class="node">
<title>Node3</title>
<polygon fill="none" stroke="#bfbfbf" points="46,-.5 46,-20.5 106,-20.5 106,-.5 46,-.5"/>
<text text-anchor="middle" x="76" y="-7.5" font-family="FreeSans" font-size="10.00" fill="#000000">Rtypes.h</text>
</g>
<!-- Node2&#45;&gt;Node3 -->
<g id="edge2" class="edge">
<title>Node2&#45;&gt;Node3</title>
<path fill="none" stroke="#191970" d="M76,-57.3095C76,-49.9335 76,-39.72 76,-30.715"/>
<polygon fill="#191970" stroke="#191970" points="79.5001,-30.6022 76,-20.6022 72.5001,-30.6023 79.5001,-30.6022"/>
</g>
</g>
</svg>
