<?xml version="1.0" encoding="UTF-8" standalone="no"?>
<!DOCTYPE svg PUBLIC "-//W3C//DTD SVG 1.1//EN"
 "http://www.w3.org/Graphics/SVG/1.1/DTD/svg11.dtd">
<!-- Generated by graphviz version 2.40.1 (20161225.0304)
 -->
<!-- Title: genfit::KalmanFitter Pages: 1 -->
<svg width="324pt" height="364pt"
 viewBox="0.00 0.00 324.00 364.00" xmlns="http://www.w3.org/2000/svg" xmlns:xlink="http://www.w3.org/1999/xlink">
<g id="graph0" class="graph" transform="scale(1 1) rotate(0) translate(4 360)">
<title>genfit::KalmanFitter</title>
<!-- Node1 -->
<g id="node1" class="node">
<title>Node1</title>
<polygon fill="#bfbfbf" stroke="#000000" points="90.5,-.5 90.5,-20.5 207.5,-20.5 207.5,-.5 90.5,-.5"/>
<text text-anchor="middle" x="149" y="-7.5" font-family="FreeSans" font-size="10.00" fill="#000000">genfit::KalmanFitter</text>
</g>
<!-- Node2 -->
<g id="node2" class="node">
<title>Node2</title>
<g id="a_node2"><a xlink:href="../../d2/df7/classgenfit_1_1AbsKalmanFitter.html" target="_top" xlink:title="Abstract base class for Kalman fitter and derived fitting algorithms.">
<polygon fill="none" stroke="#000000" points="0,-75.5 0,-95.5 136,-95.5 136,-75.5 0,-75.5"/>
<text text-anchor="middle" x="68" y="-82.5" font-family="FreeSans" font-size="10.00" fill="#000000">genfit::AbsKalmanFitter</text>
</a>
</g>
</g>
<!-- Node2&#45;&gt;Node1 -->
<g id="edge1" class="edge">
<title>Node2&#45;&gt;Node1</title>
<path fill="none" stroke="#191970" d="M86.5614,-68.3135C102.4484,-53.6033 124.7861,-32.9203 137.9904,-20.6941"/>
<polygon fill="#191970" stroke="#191970" points="83.8837,-66.0229 78.924,-75.3852 88.6396,-71.1592 83.8837,-66.0229"/>
</g>
<!-- Node3 -->
<g id="node3" class="node">
<title>Node3</title>
<g id="a_node3"><a xlink:href="../../d0/dba/classgenfit_1_1AbsFitter.html" target="_top" xlink:title="Abstract base class for fitters.">
<polygon fill="none" stroke="#000000" points="19,-150.5 19,-170.5 117,-170.5 117,-150.5 19,-150.5"/>
<text text-anchor="middle" x="68" y="-157.5" font-family="FreeSans" font-size="10.00" fill="#000000">genfit::AbsFitter</text>
</a>
</g>
</g>
<!-- Node3&#45;&gt;Node2 -->
<g id="edge2" class="edge">
<title>Node3&#45;&gt;Node2</title>
<path fill="none" stroke="#191970" d="M68,-140.0481C68,-125.77 68,-107.303 68,-95.9358"/>
<polygon fill="#191970" stroke="#191970" points="64.5001,-140.3851 68,-150.3852 71.5001,-140.3852 64.5001,-140.3851"/>
</g>
<!-- Node4 -->
<g id="node4" class="node">
<title>Node4</title>
<polygon fill="none" stroke="#bfbfbf" points="154.5,-69.5 154.5,-101.5 307.5,-101.5 307.5,-69.5 154.5,-69.5"/>
<text text-anchor="start" x="162.5" y="-88.5" font-family="FreeSans" font-size="10.00" fill="#000000">std::unique_ptr&lt; Measured</text>
<text text-anchor="middle" x="231" y="-76.5" font-family="FreeSans" font-size="10.00" fill="#000000">StateOnPlane &gt;</text>
</g>
<!-- Node4&#45;&gt;Node1 -->
<g id="edge3" class="edge">
<title>Node4&#45;&gt;Node1</title>
<path fill="none" stroke="#9a32cd" stroke-dasharray="5,2" d="M205.5706,-62.2414C190.2684,-48.2455 171.5676,-31.1411 159.9685,-20.5322"/>
<polygon fill="#9a32cd" stroke="#9a32cd" points="203.466,-65.0597 213.2072,-69.2261 208.1904,-59.8943 203.466,-65.0597"/>
<text text-anchor="middle" x="228.5" y="-42" font-family="FreeSans" font-size="10.00" fill="#000000"> currentState_</text>
</g>
<!-- Node5 -->
<g id="node5" class="node">
<title>Node5</title>
<g id="a_node5"><a xlink:href="../../d2/d74/classgenfit_1_1MeasuredStateOnPlane.html" target="_top" xlink:title="StateOnPlane with additional covariance matrix.">
<polygon fill="none" stroke="#000000" points="146,-150.5 146,-170.5 316,-170.5 316,-150.5 146,-150.5"/>
<text text-anchor="middle" x="231" y="-157.5" font-family="FreeSans" font-size="10.00" fill="#000000">genfit::MeasuredStateOnPlane</text>
</a>
</g>
</g>
<!-- Node5&#45;&gt;Node4 -->
<g id="edge4" class="edge">
<title>Node5&#45;&gt;Node4</title>
<path fill="none" stroke="#9a32cd" stroke-dasharray="5,2" d="M231,-140.3477C231,-128.2564 231,-113.0788 231,-101.7566"/>
<polygon fill="#9a32cd" stroke="#9a32cd" points="227.5001,-140.3851 231,-150.3852 234.5001,-140.3852 227.5001,-140.3851"/>
<text text-anchor="middle" x="240.5" y="-123" font-family="FreeSans" font-size="10.00" fill="#000000"> ptr</text>
</g>
<!-- Node6 -->
<g id="node6" class="node">
<title>Node6</title>
<g id="a_node6"><a xlink:href="../../de/dd5/classgenfit_1_1StateOnPlane.html" target="_top" xlink:title="A state with arbitrary dimension defined in a DetPlane.">
<polygon fill="none" stroke="#000000" points="170.5,-208.5 170.5,-228.5 291.5,-228.5 291.5,-208.5 170.5,-208.5"/>
<text text-anchor="middle" x="231" y="-215.5" font-family="FreeSans" font-size="10.00" fill="#000000">genfit::StateOnPlane</text>
</a>
</g>
</g>
<!-- Node6&#45;&gt;Node5 -->
<g id="edge5" class="edge">
<title>Node6&#45;&gt;Node5</title>
<path fill="none" stroke="#191970" d="M231,-198.3902C231,-189.1201 231,-178.5083 231,-170.8776"/>
<polygon fill="#191970" stroke="#191970" points="227.5001,-198.3971 231,-208.3972 234.5001,-198.3972 227.5001,-198.3971"/>
</g>
<!-- Node7 -->
<g id="node7" class="node">
<title>Node7</title>
<g id="a_node7"><a xlink:href="../../d1/d25/classgenfit_1_1AbsTrackRep.html" target="_top" xlink:title="Abstract base class for a track representation.">
<polygon fill="none" stroke="#000000" points="172.5,-277.5 172.5,-297.5 289.5,-297.5 289.5,-277.5 172.5,-277.5"/>
<text text-anchor="middle" x="231" y="-284.5" font-family="FreeSans" font-size="10.00" fill="#000000">genfit::AbsTrackRep</text>
</a>
</g>
</g>
<!-- Node7&#45;&gt;Node6 -->
<g id="edge6" class="edge">
<title>Node7&#45;&gt;Node6</title>
<path fill="none" stroke="#9a32cd" stroke-dasharray="5,2" d="M231,-267.2177C231,-254.5684 231,-238.8285 231,-228.723"/>
<polygon fill="#9a32cd" stroke="#9a32cd" points="227.5001,-267.3188 231,-277.3188 234.5001,-267.3188 227.5001,-267.3188"/>
<text text-anchor="middle" x="244" y="-250" font-family="FreeSans" font-size="10.00" fill="#000000"> rep_</text>
</g>
<!-- Node8 -->
<g id="node8" class="node">
<title>Node8</title>
<polygon fill="none" stroke="#bfbfbf" points="202.5,-335.5 202.5,-355.5 259.5,-355.5 259.5,-335.5 202.5,-335.5"/>
<text text-anchor="middle" x="231" y="-342.5" font-family="FreeSans" font-size="10.00" fill="#000000">TObject</text>
</g>
<!-- Node8&#45;&gt;Node7 -->
<g id="edge7" class="edge">
<title>Node8&#45;&gt;Node7</title>
<path fill="none" stroke="#191970" d="M231,-325.3902C231,-316.1201 231,-305.5083 231,-297.8776"/>
<polygon fill="#191970" stroke="#191970" points="227.5001,-325.3971 231,-335.3972 234.5001,-325.3972 227.5001,-325.3971"/>
</g>
</g>
</svg>
