<?xml version="1.0" encoding="UTF-8" standalone="no"?>
<!DOCTYPE svg PUBLIC "-//W3C//DTD SVG 1.1//EN"
 "http://www.w3.org/Graphics/SVG/1.1/DTD/svg11.dtd">
<!-- Generated by graphviz version 2.40.1 (20161225.0304)
 -->
<!-- Title: genfit::MaterialEffects::noiseCoulomb Pages: 1 -->
<svg width="305pt" height="68pt"
 viewBox="0.00 0.00 305.00 68.00" xmlns="http://www.w3.org/2000/svg" xmlns:xlink="http://www.w3.org/1999/xlink">
<g id="graph0" class="graph" transform="scale(1 1) rotate(0) translate(4 64)">
<title>genfit::MaterialEffects::noiseCoulomb</title>
<!-- Node1 -->
<g id="node1" class="node">
<title>Node1</title>
<polygon fill="#bfbfbf" stroke="#000000" points="0,-13.5 0,-45.5 128,-45.5 128,-13.5 0,-13.5"/>
<text text-anchor="start" x="8" y="-32.5" font-family="FreeSans" font-size="10.00" fill="#000000">genfit::MaterialEffects</text>
<text text-anchor="middle" x="64" y="-20.5" font-family="FreeSans" font-size="10.00" fill="#000000">::noiseCoulomb</text>
</g>
<!-- Node2 -->
<g id="node2" class="node">
<title>Node2</title>
<g id="a_node2"><a xlink:href="../../da/deb/structgenfit_1_1RKMatrix.html#ac9695391aa7f36f767a1e2f1d5df6b4d" target="_top" xlink:title="genfit::RKMatrix::begin">
<polygon fill="none" stroke="#000000" points="164,-39.5 164,-59.5 297,-59.5 297,-39.5 164,-39.5"/>
<text text-anchor="middle" x="230.5" y="-46.5" font-family="FreeSans" font-size="10.00" fill="#000000">genfit::RKMatrix::begin</text>
</a>
</g>
</g>
<!-- Node1&#45;&gt;Node2 -->
<g id="edge1" class="edge">
<title>Node1&#45;&gt;Node2</title>
<path fill="none" stroke="#191970" d="M128.3732,-37.2325C136.7264,-38.2359 145.3472,-39.2714 153.8747,-40.2958"/>
<polygon fill="#191970" stroke="#191970" points="153.4747,-43.7728 163.8207,-41.4905 154.3096,-36.8227 153.4747,-43.7728"/>
</g>
<!-- Node3 -->
<g id="node3" class="node">
<title>Node3</title>
<g id="a_node3"><a xlink:href="../../da/deb/structgenfit_1_1RKMatrix.html#ac6fc3a0073f4226279de37452f16d6d2" target="_top" xlink:title="genfit::RKMatrix::end">
<polygon fill="none" stroke="#000000" points="169,-.5 169,-20.5 292,-20.5 292,-.5 169,-.5"/>
<text text-anchor="middle" x="230.5" y="-7.5" font-family="FreeSans" font-size="10.00" fill="#000000">genfit::RKMatrix::end</text>
</a>
</g>
</g>
<!-- Node1&#45;&gt;Node3 -->
<g id="edge2" class="edge">
<title>Node1&#45;&gt;Node3</title>
<path fill="none" stroke="#191970" d="M128.3732,-22.1541C138.325,-21.0185 148.6565,-19.8395 158.7577,-18.6868"/>
<polygon fill="#191970" stroke="#191970" points="159.2207,-22.1568 168.7594,-17.5455 158.427,-15.2019 159.2207,-22.1568"/>
</g>
</g>
</svg>
