<?xml version="1.0" encoding="UTF-8" standalone="no"?>
<!DOCTYPE svg PUBLIC "-//W3C//DTD SVG 1.1//EN"
 "http://www.w3.org/Graphics/SVG/1.1/DTD/svg11.dtd">
<!-- Generated by graphviz version 2.40.1 (20161225.0304)
 -->
<!-- Title: genfit::MaterialEffects::setNoEffects Pages: 1 -->
<svg width="403pt" height="68pt"
 viewBox="0.00 0.00 403.00 68.00" xmlns="http://www.w3.org/2000/svg" xmlns:xlink="http://www.w3.org/1999/xlink">
<g id="graph0" class="graph" transform="scale(1 1) rotate(0) translate(4 64)">
<title>genfit::MaterialEffects::setNoEffects</title>
<!-- Node1 -->
<g id="node1" class="node">
<title>Node1</title>
<polygon fill="#bfbfbf" stroke="#000000" points="0,-13.5 0,-45.5 128,-45.5 128,-13.5 0,-13.5"/>
<text text-anchor="start" x="8" y="-32.5" font-family="FreeSans" font-size="10.00" fill="#000000">genfit::MaterialEffects</text>
<text text-anchor="middle" x="64" y="-20.5" font-family="FreeSans" font-size="10.00" fill="#000000">::setNoEffects</text>
</g>
<!-- Node2 -->
<g id="node2" class="node">
<title>Node2</title>
<g id="a_node2"><a xlink:href="../../d9/d33/GenFit_2blob_2master_2test_2unitTests_2main_8cc.html#ae196de09f5576b24a640ca8840808b26" target="_top" xlink:title="compareForthBackJacNoise">
<polygon fill="none" stroke="#000000" points="164,-39.5 164,-59.5 318,-59.5 318,-39.5 164,-39.5"/>
<text text-anchor="middle" x="241" y="-46.5" font-family="FreeSans" font-size="10.00" fill="#000000">compareForthBackJacNoise</text>
</a>
</g>
</g>
<!-- Node1&#45;&gt;Node2 -->
<g id="edge1" class="edge">
<title>Node1&#45;&gt;Node2</title>
<path fill="none" stroke="#191970" d="M138.3191,-37.8976C146.7438,-38.8496 155.3446,-39.8214 163.8052,-40.7774"/>
<polygon fill="#191970" stroke="#191970" points="138.4811,-34.3938 128.1513,-36.7487 137.6951,-41.3495 138.4811,-34.3938"/>
</g>
<!-- Node4 -->
<g id="node4" class="node">
<title>Node4</title>
<g id="a_node4"><a xlink:href="../../d0/d48/GenFit_2blob_2master_2test_2fitterTests_2main_8cc.html#ae66f6b31b5ad750f1fe042a706a4e3d4" target="_top" xlink:title="main">
<polygon fill="none" stroke="#000000" points="220.5,-.5 220.5,-20.5 261.5,-20.5 261.5,-.5 220.5,-.5"/>
<text text-anchor="middle" x="241" y="-7.5" font-family="FreeSans" font-size="10.00" fill="#000000">main</text>
</a>
</g>
</g>
<!-- Node1&#45;&gt;Node4 -->
<g id="edge3" class="edge">
<title>Node1&#45;&gt;Node4</title>
<path fill="none" stroke="#191970" d="M138.1648,-21.5388C168.0042,-18.3357 200.0771,-14.8929 220.325,-12.7194"/>
<polygon fill="#191970" stroke="#191970" points="137.7206,-18.0663 128.1513,-22.6137 138.4678,-25.0263 137.7206,-18.0663"/>
</g>
<!-- Node3 -->
<g id="node3" class="node">
<title>Node3</title>
<g id="a_node3"><a xlink:href="../../d9/d33/GenFit_2blob_2master_2test_2unitTests_2main_8cc.html#ae66f6b31b5ad750f1fe042a706a4e3d4" target="_top" xlink:title="main">
<polygon fill="none" stroke="#000000" points="354,-39.5 354,-59.5 395,-59.5 395,-39.5 354,-39.5"/>
<text text-anchor="middle" x="374.5" y="-46.5" font-family="FreeSans" font-size="10.00" fill="#000000">main</text>
</a>
</g>
</g>
<!-- Node2&#45;&gt;Node3 -->
<g id="edge2" class="edge">
<title>Node2&#45;&gt;Node3</title>
<path fill="none" stroke="#191970" d="M328.2917,-49.5C337.7313,-49.5 346.5637,-49.5 353.9264,-49.5"/>
<polygon fill="#191970" stroke="#191970" points="328.2709,-46.0001 318.2709,-49.5 328.2709,-53.0001 328.2709,-46.0001"/>
</g>
</g>
</svg>
