<?xml version="1.0" encoding="UTF-8" standalone="no"?>
<!DOCTYPE svg PUBLIC "-//W3C//DTD SVG 1.1//EN"
 "http://www.w3.org/Graphics/SVG/1.1/DTD/svg11.dtd">
<!-- Generated by graphviz version 2.40.1 (20161225.0304)
 -->
<!-- Title: genfit::MaterialEffects::effects Pages: 1 -->
<svg width="761pt" height="296pt"
 viewBox="0.00 0.00 761.00 296.00" xmlns="http://www.w3.org/2000/svg" xmlns:xlink="http://www.w3.org/1999/xlink">
<g id="graph0" class="graph" transform="scale(1 1) rotate(0) translate(4 292)">
<title>genfit::MaterialEffects::effects</title>
<!-- Node1 -->
<g id="node1" class="node">
<title>Node1</title>
<polygon fill="#bfbfbf" stroke="#000000" points="0,-124.5 0,-156.5 128,-156.5 128,-124.5 0,-124.5"/>
<text text-anchor="start" x="8" y="-143.5" font-family="FreeSans" font-size="10.00" fill="#000000">genfit::MaterialEffects</text>
<text text-anchor="middle" x="64" y="-131.5" font-family="FreeSans" font-size="10.00" fill="#000000">::effects</text>
</g>
<!-- Node2 -->
<g id="node2" class="node">
<title>Node2</title>
<g id="a_node2"><a xlink:href="../../d2/d12/classgenfit_1_1RKTrackRep.html#a8aab6f587db26d572214ede92f4877fc" target="_top" xlink:title="Handles propagation and material effects.">
<polygon fill="none" stroke="#000000" points="164,-124.5 164,-156.5 275,-156.5 275,-124.5 164,-124.5"/>
<text text-anchor="start" x="172" y="-143.5" font-family="FreeSans" font-size="10.00" fill="#000000">genfit::RKTrackRep</text>
<text text-anchor="middle" x="219.5" y="-131.5" font-family="FreeSans" font-size="10.00" fill="#000000">::Extrap</text>
</a>
</g>
</g>
<!-- Node1&#45;&gt;Node2 -->
<g id="edge1" class="edge">
<title>Node1&#45;&gt;Node2</title>
<path fill="none" stroke="#191970" d="M138.2472,-140.5C146.8969,-140.5 155.6045,-140.5 163.9407,-140.5"/>
<polygon fill="#191970" stroke="#191970" points="138.1456,-137.0001 128.1456,-140.5 138.1455,-144.0001 138.1456,-137.0001"/>
</g>
<!-- Node3 -->
<g id="node3" class="node">
<title>Node3</title>
<g id="a_node3"><a xlink:href="../../d2/d12/classgenfit_1_1RKTrackRep.html#a03a1d1eb5b7169ba697ccf114de5066c" target="_top" xlink:title="Extrapolates the state to plane, and returns the extrapolation length and, via reference, the extrapolated state.">
<polygon fill="none" stroke="#000000" points="311,-124.5 311,-156.5 430,-156.5 430,-124.5 311,-124.5"/>
<text text-anchor="start" x="319" y="-143.5" font-family="FreeSans" font-size="10.00" fill="#000000">genfit::RKTrackRep</text>
<text text-anchor="middle" x="370.5" y="-131.5" font-family="FreeSans" font-size="10.00" fill="#000000">::extrapolateToPlane</text>
</a>
</g>
</g>
<!-- Node2&#45;&gt;Node3 -->
<g id="edge2" class="edge">
<title>Node2&#45;&gt;Node3</title>
<path fill="none" stroke="#191970" d="M285.4898,-140.5C293.9347,-140.5 302.5409,-140.5 310.8767,-140.5"/>
<polygon fill="#191970" stroke="#191970" points="285.2978,-137.0001 275.2978,-140.5 285.2978,-144.0001 285.2978,-137.0001"/>
</g>
<!-- Node4 -->
<g id="node4" class="node">
<title>Node4</title>
<g id="a_node4"><a xlink:href="../../d2/d12/classgenfit_1_1RKTrackRep.html#a216b86da9a7238ff9cf24e944b0f9e4b" target="_top" xlink:title="Extrapolates the state to the POCA to a line, and returns the extrapolation length and...">
<polygon fill="none" stroke="#000000" points="476.5,-255.5 476.5,-287.5 589.5,-287.5 589.5,-255.5 476.5,-255.5"/>
<text text-anchor="start" x="484.5" y="-274.5" font-family="FreeSans" font-size="10.00" fill="#000000">genfit::RKTrackRep</text>
<text text-anchor="middle" x="533" y="-262.5" font-family="FreeSans" font-size="10.00" fill="#000000">::extrapolateToLine</text>
</a>
</g>
</g>
<!-- Node2&#45;&gt;Node4 -->
<g id="edge10" class="edge">
<title>Node2&#45;&gt;Node4</title>
<path fill="none" stroke="#191970" d="M244.7318,-163.6532C262.2082,-178.6056 286.6307,-197.4496 311,-209.5 364.0884,-235.7517 429.9921,-252.372 476.1497,-261.7232"/>
<polygon fill="#191970" stroke="#191970" points="246.5748,-160.6157 236.7412,-156.6723 241.9694,-165.8874 246.5748,-160.6157"/>
</g>
<!-- Node5 -->
<g id="node5" class="node">
<title>Node5</title>
<g id="a_node5"><a xlink:href="../../d2/d12/classgenfit_1_1RKTrackRep.html#abb38b9cdcf9cfa490b795530579bcd73" target="_top" xlink:title="genfit::RKTrackRep\l::extrapToPoint">
<polygon fill="none" stroke="#000000" points="477.5,-204.5 477.5,-236.5 588.5,-236.5 588.5,-204.5 477.5,-204.5"/>
<text text-anchor="start" x="485.5" y="-223.5" font-family="FreeSans" font-size="10.00" fill="#000000">genfit::RKTrackRep</text>
<text text-anchor="middle" x="533" y="-211.5" font-family="FreeSans" font-size="10.00" fill="#000000">::extrapToPoint</text>
</a>
</g>
</g>
<!-- Node2&#45;&gt;Node5 -->
<g id="edge11" class="edge">
<title>Node2&#45;&gt;Node5</title>
<path fill="none" stroke="#191970" d="M257.4405,-161.1916C273.5524,-169.2166 292.7903,-177.8225 311,-183.5 366.2074,-200.7128 431.78,-210.3897 477.2811,-215.4912"/>
<polygon fill="#191970" stroke="#191970" points="258.8461,-157.9797 248.3467,-156.5603 255.6693,-164.2174 258.8461,-157.9797"/>
</g>
<!-- Node7 -->
<g id="node7" class="node">
<title>Node7</title>
<g id="a_node7"><a xlink:href="../../d2/d12/classgenfit_1_1RKTrackRep.html#abb4665294ae573dc5423f2975bb8b3e7" target="_top" xlink:title="Extrapolates the state to the cylinder surface, and returns the extrapolation length and...">
<polygon fill="none" stroke="#000000" points="466,-153.5 466,-185.5 600,-185.5 600,-153.5 466,-153.5"/>
<text text-anchor="start" x="474" y="-172.5" font-family="FreeSans" font-size="10.00" fill="#000000">genfit::RKTrackRep</text>
<text text-anchor="middle" x="533" y="-160.5" font-family="FreeSans" font-size="10.00" fill="#000000">::extrapolateToCylinder</text>
</a>
</g>
</g>
<!-- Node2&#45;&gt;Node7 -->
<g id="edge12" class="edge">
<title>Node2&#45;&gt;Node7</title>
<path fill="none" stroke="#191970" d="M276.6737,-159.2341C287.9371,-162.2153 299.7518,-164.8554 311,-166.5 362.4885,-174.0283 421.4091,-174.4509 465.6046,-173.1685"/>
<polygon fill="#191970" stroke="#191970" points="277.5168,-155.836 266.9456,-156.5429 275.6504,-162.5826 277.5168,-155.836"/>
</g>
<!-- Node8 -->
<g id="node8" class="node">
<title>Node8</title>
<g id="a_node8"><a xlink:href="../../d2/d12/classgenfit_1_1RKTrackRep.html#a44091ce8605a38c40d4a4f1692af448b" target="_top" xlink:title="Extrapolates the state to the cone surface, and returns the extrapolation length and, via reference, the extrapolated state.">
<polygon fill="none" stroke="#000000" points="474.5,-102.5 474.5,-134.5 591.5,-134.5 591.5,-102.5 474.5,-102.5"/>
<text text-anchor="start" x="482.5" y="-121.5" font-family="FreeSans" font-size="10.00" fill="#000000">genfit::RKTrackRep</text>
<text text-anchor="middle" x="533" y="-109.5" font-family="FreeSans" font-size="10.00" fill="#000000">::extrapolateToCone</text>
</a>
</g>
</g>
<!-- Node2&#45;&gt;Node8 -->
<g id="edge13" class="edge">
<title>Node2&#45;&gt;Node8</title>
<path fill="none" stroke="#191970" d="M278.5438,-121.903C289.2439,-119.241 300.3783,-116.9249 311,-115.5 366.0122,-108.1199 429.3779,-109.9916 474.2932,-113.042"/>
<polygon fill="#191970" stroke="#191970" points="277.6581,-118.5168 268.8665,-124.4293 279.4263,-125.2899 277.6581,-118.5168"/>
</g>
<!-- Node9 -->
<g id="node9" class="node">
<title>Node9</title>
<g id="a_node9"><a xlink:href="../../d2/d12/classgenfit_1_1RKTrackRep.html#aaa34d4913daa972f1947554c4b1e23a8" target="_top" xlink:title="Extrapolates the state to the sphere surface, and returns the extrapolation length and...">
<polygon fill="none" stroke="#000000" points="469.5,-51.5 469.5,-83.5 596.5,-83.5 596.5,-51.5 469.5,-51.5"/>
<text text-anchor="start" x="477.5" y="-70.5" font-family="FreeSans" font-size="10.00" fill="#000000">genfit::RKTrackRep</text>
<text text-anchor="middle" x="533" y="-58.5" font-family="FreeSans" font-size="10.00" fill="#000000">::extrapolateToSphere</text>
</a>
</g>
</g>
<!-- Node2&#45;&gt;Node9 -->
<g id="edge14" class="edge">
<title>Node2&#45;&gt;Node9</title>
<path fill="none" stroke="#191970" d="M266.3139,-120.5726C280.4798,-115.0948 296.2063,-109.5535 311,-105.5 363.42,-91.137 424.3641,-81.1684 469.1214,-75.0565"/>
<polygon fill="#191970" stroke="#191970" points="264.8017,-117.4067 256.7867,-124.3357 267.3733,-123.9172 264.8017,-117.4067"/>
</g>
<!-- Node10 -->
<g id="node10" class="node">
<title>Node10</title>
<g id="a_node10"><a xlink:href="../../d2/d12/classgenfit_1_1RKTrackRep.html#afb21945e3f605f45b1a5bbbe7741793f" target="_top" xlink:title="Extrapolates the state by step (cm) and returns the extrapolation length and, via reference...">
<polygon fill="none" stroke="#000000" points="477.5,-.5 477.5,-32.5 588.5,-32.5 588.5,-.5 477.5,-.5"/>
<text text-anchor="start" x="485.5" y="-19.5" font-family="FreeSans" font-size="10.00" fill="#000000">genfit::RKTrackRep</text>
<text text-anchor="middle" x="533" y="-7.5" font-family="FreeSans" font-size="10.00" fill="#000000">::extrapolateBy</text>
</a>
</g>
</g>
<!-- Node2&#45;&gt;Node10 -->
<g id="edge15" class="edge">
<title>Node2&#45;&gt;Node10</title>
<path fill="none" stroke="#191970" d="M246.724,-118.1411C264.19,-104.7412 287.8586,-88.2696 311,-77.5 364.9948,-52.3719 431.3411,-35.8301 477.3697,-26.392"/>
<polygon fill="#191970" stroke="#191970" points="244.3984,-115.5165 238.6775,-124.434 248.7108,-121.0305 244.3984,-115.5165"/>
</g>
<!-- Node3&#45;&gt;Node4 -->
<g id="edge3" class="edge">
<title>Node3&#45;&gt;Node4</title>
<path fill="none" stroke="#191970" d="M387.0791,-164.8935C404.3282,-188.6354 433.3483,-224.2911 466,-246.5 470.9275,-249.8516 476.3627,-252.8253 481.942,-255.4449"/>
<polygon fill="#191970" stroke="#191970" points="389.9214,-162.851 381.2718,-156.7325 384.218,-166.9095 389.9214,-162.851"/>
</g>
<!-- Node3&#45;&gt;Node5 -->
<g id="edge4" class="edge">
<title>Node3&#45;&gt;Node5</title>
<path fill="none" stroke="#191970" d="M404.7218,-162.0509C422.601,-172.833 445.0661,-185.6491 466,-195.5 472.6279,-198.6189 479.7595,-201.6281 486.8106,-204.4124"/>
<polygon fill="#191970" stroke="#191970" points="406.1827,-158.8423 395.8226,-156.6244 402.5384,-164.8189 406.1827,-158.8423"/>
</g>
<!-- Node3&#45;&gt;Node7 -->
<g id="edge6" class="edge">
<title>Node3&#45;&gt;Node7</title>
<path fill="none" stroke="#191970" d="M439.9965,-152.9025C448.5274,-154.4249 457.2349,-155.9788 465.732,-157.4953"/>
<polygon fill="#191970" stroke="#191970" points="440.5457,-149.4452 430.0863,-151.1339 439.3158,-156.3364 440.5457,-149.4452"/>
</g>
<!-- Node3&#45;&gt;Node8 -->
<g id="edge7" class="edge">
<title>Node3&#45;&gt;Node8</title>
<path fill="none" stroke="#191970" d="M440.003,-131.0904C451.4064,-129.5465 463.1251,-127.96 474.2351,-126.4559"/>
<polygon fill="#191970" stroke="#191970" points="439.5263,-127.6229 430.0863,-132.4329 440.4655,-134.5596 439.5263,-127.6229"/>
</g>
<!-- Node3&#45;&gt;Node9 -->
<g id="edge8" class="edge">
<title>Node3&#45;&gt;Node9</title>
<path fill="none" stroke="#191970" d="M410.6337,-119.78C427.5643,-111.293 447.584,-101.5866 466,-93.5 473.6542,-90.139 481.8912,-86.7563 489.8816,-83.5936"/>
<polygon fill="#191970" stroke="#191970" points="408.926,-116.7214 401.5754,-124.3516 412.0799,-122.9706 408.926,-116.7214"/>
</g>
<!-- Node3&#45;&gt;Node10 -->
<g id="edge9" class="edge">
<title>Node3&#45;&gt;Node10</title>
<path fill="none" stroke="#191970" d="M388.5484,-116.3593C406.1733,-94.2449 434.831,-61.9326 466,-41.5 471.0878,-38.1648 476.6825,-35.1904 482.4037,-32.5609"/>
<polygon fill="#191970" stroke="#191970" points="385.7511,-114.2548 382.3515,-124.2894 391.2668,-118.565 385.7511,-114.2548"/>
</g>
<!-- Node6 -->
<g id="node6" class="node">
<title>Node6</title>
<g id="a_node6"><a xlink:href="../../d2/d12/classgenfit_1_1RKTrackRep.html#aff9f0db2e194bd9889386cc73ed2d0cd" target="_top" xlink:title="Extrapolates the state to the POCA to a point, and returns the extrapolation length and...">
<polygon fill="none" stroke="#000000" points="636,-204.5 636,-236.5 753,-236.5 753,-204.5 636,-204.5"/>
<text text-anchor="start" x="644" y="-223.5" font-family="FreeSans" font-size="10.00" fill="#000000">genfit::RKTrackRep</text>
<text text-anchor="middle" x="694.5" y="-211.5" font-family="FreeSans" font-size="10.00" fill="#000000">::extrapolateToPoint</text>
</a>
</g>
</g>
<!-- Node5&#45;&gt;Node6 -->
<g id="edge5" class="edge">
<title>Node5&#45;&gt;Node6</title>
<path fill="none" stroke="#191970" d="M598.7434,-220.5C611.0089,-220.5 623.753,-220.5 635.7897,-220.5"/>
<polygon fill="#191970" stroke="#191970" points="598.5792,-217.0001 588.5791,-220.5 598.5791,-224.0001 598.5792,-217.0001"/>
</g>
</g>
</svg>
