<?xml version="1.0" encoding="UTF-8" standalone="no"?>
<!DOCTYPE svg PUBLIC "-//W3C//DTD SVG 1.1//EN"
 "http://www.w3.org/Graphics/SVG/1.1/DTD/svg11.dtd">
<!-- Generated by graphviz version 2.40.1 (20161225.0304)
 -->
<!-- Title: genfit::KalmanFitterInfo::setPrediction Pages: 1 -->
<svg width="927pt" height="114pt"
 viewBox="0.00 0.00 927.00 114.00" xmlns="http://www.w3.org/2000/svg" xmlns:xlink="http://www.w3.org/1999/xlink">
<g id="graph0" class="graph" transform="scale(1 1) rotate(0) translate(4 110)">
<title>genfit::KalmanFitterInfo::setPrediction</title>
<!-- Node1 -->
<g id="node1" class="node">
<title>Node1</title>
<polygon fill="#bfbfbf" stroke="#000000" points="0,-51.5 0,-83.5 135,-83.5 135,-51.5 0,-51.5"/>
<text text-anchor="start" x="8" y="-70.5" font-family="FreeSans" font-size="10.00" fill="#000000">genfit::KalmanFitterInfo</text>
<text text-anchor="middle" x="67.5" y="-58.5" font-family="FreeSans" font-size="10.00" fill="#000000">::setPrediction</text>
</g>
<!-- Node2 -->
<g id="node2" class="node">
<title>Node2</title>
<g id="a_node2"><a xlink:href="../../d8/d26/classgenfit_1_1KalmanFitterRefTrack.html#a0dffe53c54ee6afe2fc252e643b5b790" target="_top" xlink:title="genfit::KalmanFitterRefTrack\l::processTrackPoint">
<polygon fill="none" stroke="#000000" points="367,-73.5 367,-105.5 527,-105.5 527,-73.5 367,-73.5"/>
<text text-anchor="start" x="375" y="-92.5" font-family="FreeSans" font-size="10.00" fill="#000000">genfit::KalmanFitterRefTrack</text>
<text text-anchor="middle" x="447" y="-80.5" font-family="FreeSans" font-size="10.00" fill="#000000">::processTrackPoint</text>
</a>
</g>
</g>
<!-- Node1&#45;&gt;Node2 -->
<g id="edge1" class="edge">
<title>Node1&#45;&gt;Node2</title>
<path fill="none" stroke="#191970" d="M130.6823,-85.9861C143.8917,-89.1113 157.8131,-91.869 171,-93.5 236.6319,-101.6175 311.7068,-99.821 366.9721,-96.4401"/>
<polygon fill="#191970" stroke="#191970" points="131.2907,-82.5314 120.7437,-83.5372 129.6159,-89.3281 131.2907,-82.5314"/>
</g>
<!-- Node5 -->
<g id="node5" class="node">
<title>Node5</title>
<g id="a_node5"><a xlink:href="../../d8/d26/classgenfit_1_1KalmanFitterRefTrack.html#adc865a1152d111df9d724e047decaf3e" target="_top" xlink:title="genfit::KalmanFitterRefTrack\l::processTrackPointSqrt">
<polygon fill="none" stroke="#000000" points="171,-51.5 171,-83.5 331,-83.5 331,-51.5 171,-51.5"/>
<text text-anchor="start" x="179" y="-70.5" font-family="FreeSans" font-size="10.00" fill="#000000">genfit::KalmanFitterRefTrack</text>
<text text-anchor="middle" x="251" y="-58.5" font-family="FreeSans" font-size="10.00" fill="#000000">::processTrackPointSqrt</text>
</a>
</g>
</g>
<!-- Node1&#45;&gt;Node5 -->
<g id="edge4" class="edge">
<title>Node1&#45;&gt;Node5</title>
<path fill="none" stroke="#191970" d="M145.27,-67.5C153.7336,-67.5 162.3597,-67.5 170.851,-67.5"/>
<polygon fill="#191970" stroke="#191970" points="145.0469,-64.0001 135.0469,-67.5 145.0468,-71.0001 145.0469,-64.0001"/>
</g>
<!-- Node6 -->
<g id="node6" class="node">
<title>Node6</title>
<g id="a_node6"><a xlink:href="../../d7/dd5/classPHGenFit_1_1Track.html#ac24ac1591f867e1e0641112d6e12f6aa" target="_top" xlink:title="PHGenFit::Track::updateOne\lMeasurementKalman">
<polygon fill="none" stroke="#000000" points="172,-.5 172,-32.5 330,-32.5 330,-.5 172,-.5"/>
<text text-anchor="start" x="180" y="-19.5" font-family="FreeSans" font-size="10.00" fill="#000000">PHGenFit::Track::updateOne</text>
<text text-anchor="middle" x="251" y="-7.5" font-family="FreeSans" font-size="10.00" fill="#000000">MeasurementKalman</text>
</a>
</g>
</g>
<!-- Node1&#45;&gt;Node6 -->
<g id="edge6" class="edge">
<title>Node1&#45;&gt;Node6</title>
<path fill="none" stroke="#191970" d="M135.1204,-48.7063C154.1805,-43.409 174.7361,-37.696 193.1667,-32.5736"/>
<polygon fill="#191970" stroke="#191970" points="134.0062,-45.3832 125.3087,-51.4333 135.8807,-52.1276 134.0062,-45.3832"/>
</g>
<!-- Node3 -->
<g id="node3" class="node">
<title>Node3</title>
<g id="a_node3"><a xlink:href="../../d8/d26/classgenfit_1_1KalmanFitterRefTrack.html#affda7c9ad9495fd91828d1b43adcc904" target="_top" xlink:title="Fit the track.">
<polygon fill="none" stroke="#000000" points="563,-73.5 563,-105.5 723,-105.5 723,-73.5 563,-73.5"/>
<text text-anchor="start" x="571" y="-92.5" font-family="FreeSans" font-size="10.00" fill="#000000">genfit::KalmanFitterRefTrack</text>
<text text-anchor="middle" x="643" y="-80.5" font-family="FreeSans" font-size="10.00" fill="#000000">::fitTrack</text>
</a>
</g>
</g>
<!-- Node2&#45;&gt;Node3 -->
<g id="edge2" class="edge">
<title>Node2&#45;&gt;Node3</title>
<path fill="none" stroke="#191970" d="M537.0766,-89.5C545.7035,-89.5 554.4128,-89.5 562.9347,-89.5"/>
<polygon fill="#191970" stroke="#191970" points="537.0034,-86.0001 527.0034,-89.5 537.0034,-93.0001 537.0034,-86.0001"/>
</g>
<!-- Node4 -->
<g id="node4" class="node">
<title>Node4</title>
<g id="a_node4"><a xlink:href="../../d8/d26/classgenfit_1_1KalmanFitterRefTrack.html#ad3a24181b5370cc95f01f49ea148c011" target="_top" xlink:title="genfit::KalmanFitterRefTrack\l::processTrackWithRep">
<polygon fill="none" stroke="#000000" points="759,-73.5 759,-105.5 919,-105.5 919,-73.5 759,-73.5"/>
<text text-anchor="start" x="767" y="-92.5" font-family="FreeSans" font-size="10.00" fill="#000000">genfit::KalmanFitterRefTrack</text>
<text text-anchor="middle" x="839" y="-80.5" font-family="FreeSans" font-size="10.00" fill="#000000">::processTrackWithRep</text>
</a>
</g>
</g>
<!-- Node3&#45;&gt;Node4 -->
<g id="edge3" class="edge">
<title>Node3&#45;&gt;Node4</title>
<path fill="none" stroke="#191970" d="M733.0766,-89.5C741.7035,-89.5 750.4128,-89.5 758.9347,-89.5"/>
<polygon fill="#191970" stroke="#191970" points="733.0034,-86.0001 723.0034,-89.5 733.0034,-93.0001 733.0034,-86.0001"/>
</g>
<!-- Node5&#45;&gt;Node2 -->
<g id="edge5" class="edge">
<title>Node5&#45;&gt;Node2</title>
<path fill="none" stroke="#191970" d="M341.0766,-77.6106C349.7035,-78.579 358.4128,-79.5565 366.9347,-80.5131"/>
<polygon fill="#191970" stroke="#191970" points="341.3314,-74.1173 331.0034,-76.48 340.5506,-81.0737 341.3314,-74.1173"/>
</g>
</g>
</svg>
