<?xml version="1.0" encoding="UTF-8" standalone="no"?>
<!DOCTYPE svg PUBLIC "-//W3C//DTD SVG 1.1//EN"
 "http://www.w3.org/Graphics/SVG/1.1/DTD/svg11.dtd">
<!-- Generated by graphviz version 2.40.1 (20161225.0304)
 -->
<!-- Title: genfit::KalmanFitterInfo::deleteMeasurementInfo Pages: 1 -->
<svg width="543pt" height="143pt"
 viewBox="0.00 0.00 543.00 143.00" xmlns="http://www.w3.org/2000/svg" xmlns:xlink="http://www.w3.org/1999/xlink">
<g id="graph0" class="graph" transform="scale(1 1) rotate(0) translate(4 139)">
<title>genfit::KalmanFitterInfo::deleteMeasurementInfo</title>
<!-- Node1 -->
<g id="node1" class="node">
<title>Node1</title>
<polygon fill="#bfbfbf" stroke="#000000" points="0,-51.5 0,-83.5 143,-83.5 143,-51.5 0,-51.5"/>
<text text-anchor="start" x="8" y="-70.5" font-family="FreeSans" font-size="10.00" fill="#000000">genfit::KalmanFitterInfo</text>
<text text-anchor="middle" x="71.5" y="-58.5" font-family="FreeSans" font-size="10.00" fill="#000000">::deleteMeasurementInfo</text>
</g>
<!-- Node2 -->
<g id="node2" class="node">
<title>Node2</title>
<g id="a_node2"><a xlink:href="../../d8/d26/classgenfit_1_1KalmanFitterRefTrack.html#ab28798fe239a0577ef7a9c254c235491" target="_top" xlink:title="Prepare the track.">
<polygon fill="none" stroke="#000000" points="179,-102.5 179,-134.5 339,-134.5 339,-102.5 179,-102.5"/>
<text text-anchor="start" x="187" y="-121.5" font-family="FreeSans" font-size="10.00" fill="#000000">genfit::KalmanFitterRefTrack</text>
<text text-anchor="middle" x="259" y="-109.5" font-family="FreeSans" font-size="10.00" fill="#000000">::prepareTrack</text>
</a>
</g>
</g>
<!-- Node1&#45;&gt;Node2 -->
<g id="edge1" class="edge">
<title>Node1&#45;&gt;Node2</title>
<path fill="none" stroke="#191970" d="M140.3265,-86.2208C159.8772,-91.5386 180.9873,-97.2806 199.9061,-102.4264"/>
<polygon fill="#191970" stroke="#191970" points="141.1369,-82.8141 130.5688,-83.5667 139.2996,-89.5687 141.1369,-82.8141"/>
</g>
<!-- Node4 -->
<g id="node4" class="node">
<title>Node4</title>
<g id="a_node4"><a xlink:href="../../d3/d03/classgenfit_1_1KalmanFitterInfo.html#a1f53fb36db7dc1c1cb1e413de9ab79d2" target="_top" xlink:title="genfit::KalmanFitterInfo\l::setMeasurementsOnPlane">
<polygon fill="none" stroke="#000000" points="181.5,-51.5 181.5,-83.5 336.5,-83.5 336.5,-51.5 181.5,-51.5"/>
<text text-anchor="start" x="189.5" y="-70.5" font-family="FreeSans" font-size="10.00" fill="#000000">genfit::KalmanFitterInfo</text>
<text text-anchor="middle" x="259" y="-58.5" font-family="FreeSans" font-size="10.00" fill="#000000">::setMeasurementsOnPlane</text>
</a>
</g>
</g>
<!-- Node1&#45;&gt;Node4 -->
<g id="edge3" class="edge">
<title>Node1&#45;&gt;Node4</title>
<path fill="none" stroke="#191970" d="M153.2562,-67.5C162.6097,-67.5 172.1251,-67.5 181.4217,-67.5"/>
<polygon fill="#191970" stroke="#191970" points="153.1883,-64.0001 143.1883,-67.5 153.1883,-71.0001 153.1883,-64.0001"/>
</g>
<!-- Node5 -->
<g id="node5" class="node">
<title>Node5</title>
<g id="a_node5"><a xlink:href="../../d3/d03/classgenfit_1_1KalmanFitterInfo.html#ab297379ab7e1690cbe34ea14b403cf26" target="_top" xlink:title="genfit::KalmanFitterInfo\l::~KalmanFitterInfo">
<polygon fill="none" stroke="#000000" points="191.5,-.5 191.5,-32.5 326.5,-32.5 326.5,-.5 191.5,-.5"/>
<text text-anchor="start" x="199.5" y="-19.5" font-family="FreeSans" font-size="10.00" fill="#000000">genfit::KalmanFitterInfo</text>
<text text-anchor="middle" x="259" y="-7.5" font-family="FreeSans" font-size="10.00" fill="#000000">::~KalmanFitterInfo</text>
</a>
</g>
</g>
<!-- Node1&#45;&gt;Node5 -->
<g id="edge4" class="edge">
<title>Node1&#45;&gt;Node5</title>
<path fill="none" stroke="#191970" d="M140.3265,-48.7792C159.8772,-43.4614 180.9873,-37.7194 199.9061,-32.5736"/>
<polygon fill="#191970" stroke="#191970" points="139.2996,-45.4313 130.5688,-51.4333 141.1369,-52.1859 139.2996,-45.4313"/>
</g>
<!-- Node3 -->
<g id="node3" class="node">
<title>Node3</title>
<g id="a_node3"><a xlink:href="../../d8/d26/classgenfit_1_1KalmanFitterRefTrack.html#ad3a24181b5370cc95f01f49ea148c011" target="_top" xlink:title="genfit::KalmanFitterRefTrack\l::processTrackWithRep">
<polygon fill="none" stroke="#000000" points="375,-102.5 375,-134.5 535,-134.5 535,-102.5 375,-102.5"/>
<text text-anchor="start" x="383" y="-121.5" font-family="FreeSans" font-size="10.00" fill="#000000">genfit::KalmanFitterRefTrack</text>
<text text-anchor="middle" x="455" y="-109.5" font-family="FreeSans" font-size="10.00" fill="#000000">::processTrackWithRep</text>
</a>
</g>
</g>
<!-- Node2&#45;&gt;Node3 -->
<g id="edge2" class="edge">
<title>Node2&#45;&gt;Node3</title>
<path fill="none" stroke="#191970" d="M349.0766,-118.5C357.7035,-118.5 366.4128,-118.5 374.9347,-118.5"/>
<polygon fill="#191970" stroke="#191970" points="349.0034,-115.0001 339.0034,-118.5 349.0034,-122.0001 349.0034,-115.0001"/>
</g>
</g>
</svg>
