<?xml version="1.0" encoding="UTF-8" standalone="no"?>
<!DOCTYPE svg PUBLIC "-//W3C//DTD SVG 1.1//EN"
 "http://www.w3.org/Graphics/SVG/1.1/DTD/svg11.dtd">
<!-- Generated by graphviz version 2.40.1 (20161225.0304)
 -->
<!-- Title: genfit::KalmanFitterInfo::deleteReferenceInfo Pages: 1 -->
<svg width="466pt" height="41pt"
 viewBox="0.00 0.00 466.00 41.00" xmlns="http://www.w3.org/2000/svg" xmlns:xlink="http://www.w3.org/1999/xlink">
<g id="graph0" class="graph" transform="scale(1 1) rotate(0) translate(4 37)">
<title>genfit::KalmanFitterInfo::deleteReferenceInfo</title>
<!-- Node1 -->
<g id="node1" class="node">
<title>Node1</title>
<polygon fill="#bfbfbf" stroke="#000000" points="0,-.5 0,-32.5 135,-32.5 135,-.5 0,-.5"/>
<text text-anchor="start" x="8" y="-19.5" font-family="FreeSans" font-size="10.00" fill="#000000">genfit::KalmanFitterInfo</text>
<text text-anchor="middle" x="67.5" y="-7.5" font-family="FreeSans" font-size="10.00" fill="#000000">::deleteReferenceInfo</text>
</g>
<!-- Node2 -->
<g id="node2" class="node">
<title>Node2</title>
<g id="a_node2"><a xlink:href="../../d3/d03/classgenfit_1_1KalmanFitterInfo.html#a4b233a7221a2f10ed24e0ecd66d39891" target="_top" xlink:title="genfit::KalmanFitterInfo\l::setReferenceState">
<polygon fill="none" stroke="#000000" points="171,-.5 171,-32.5 306,-32.5 306,-.5 171,-.5"/>
<text text-anchor="start" x="179" y="-19.5" font-family="FreeSans" font-size="10.00" fill="#000000">genfit::KalmanFitterInfo</text>
<text text-anchor="middle" x="238.5" y="-7.5" font-family="FreeSans" font-size="10.00" fill="#000000">::setReferenceState</text>
</a>
</g>
</g>
<!-- Node1&#45;&gt;Node2 -->
<g id="edge1" class="edge">
<title>Node1&#45;&gt;Node2</title>
<path fill="none" stroke="#191970" d="M135.0837,-16.5C143.5381,-16.5 152.2372,-16.5 160.83,-16.5"/>
<polygon fill="#191970" stroke="#191970" points="160.8472,-20.0001 170.8472,-16.5 160.8472,-13.0001 160.8472,-20.0001"/>
</g>
<!-- Node3 -->
<g id="node3" class="node">
<title>Node3</title>
<g id="a_node3"><a xlink:href="../../d9/d8c/classgenfit_1_1AbsFitterInfo.html#af02a4a29abfa1c31c8208baf757a21c5" target="_top" xlink:title="genfit::AbsFitterInfo\l::setPlane">
<polygon fill="none" stroke="#000000" points="342,-.5 342,-32.5 458,-32.5 458,-.5 342,-.5"/>
<text text-anchor="start" x="350" y="-19.5" font-family="FreeSans" font-size="10.00" fill="#000000">genfit::AbsFitterInfo</text>
<text text-anchor="middle" x="400" y="-7.5" font-family="FreeSans" font-size="10.00" fill="#000000">::setPlane</text>
</a>
</g>
</g>
<!-- Node2&#45;&gt;Node3 -->
<g id="edge2" class="edge">
<title>Node2&#45;&gt;Node3</title>
<path fill="none" stroke="#191970" d="M306.0548,-16.5C314.535,-16.5 323.2147,-16.5 331.7061,-16.5"/>
<polygon fill="#191970" stroke="#191970" points="331.9444,-20.0001 341.9443,-16.5 331.9443,-13.0001 331.9444,-20.0001"/>
</g>
</g>
</svg>
