<?xml version="1.0" encoding="UTF-8" standalone="no"?>
<!DOCTYPE svg PUBLIC "-//W3C//DTD SVG 1.1//EN"
 "http://www.w3.org/Graphics/SVG/1.1/DTD/svg11.dtd">
<!-- Generated by graphviz version 2.40.1 (20161225.0304)
 -->
<!-- Title: genfit::KalmanFitterInfo::deleteReferenceInfo Pages: 1 -->
<svg width="731pt" height="63pt"
 viewBox="0.00 0.00 731.00 63.00" xmlns="http://www.w3.org/2000/svg" xmlns:xlink="http://www.w3.org/1999/xlink">
<g id="graph0" class="graph" transform="scale(1 1) rotate(0) translate(4 59)">
<title>genfit::KalmanFitterInfo::deleteReferenceInfo</title>
<!-- Node1 -->
<g id="node1" class="node">
<title>Node1</title>
<polygon fill="#bfbfbf" stroke="#000000" points="0,-22.5 0,-54.5 135,-54.5 135,-22.5 0,-22.5"/>
<text text-anchor="start" x="8" y="-41.5" font-family="FreeSans" font-size="10.00" fill="#000000">genfit::KalmanFitterInfo</text>
<text text-anchor="middle" x="67.5" y="-29.5" font-family="FreeSans" font-size="10.00" fill="#000000">::deleteReferenceInfo</text>
</g>
<!-- Node2 -->
<g id="node2" class="node">
<title>Node2</title>
<g id="a_node2"><a xlink:href="../../d8/d26/classgenfit_1_1KalmanFitterRefTrack.html#ab28798fe239a0577ef7a9c254c235491" target="_top" xlink:title="Prepare the track.">
<polygon fill="none" stroke="#000000" points="367,-22.5 367,-54.5 527,-54.5 527,-22.5 367,-22.5"/>
<text text-anchor="start" x="375" y="-41.5" font-family="FreeSans" font-size="10.00" fill="#000000">genfit::KalmanFitterRefTrack</text>
<text text-anchor="middle" x="447" y="-29.5" font-family="FreeSans" font-size="10.00" fill="#000000">::prepareTrack</text>
</a>
</g>
</g>
<!-- Node1&#45;&gt;Node2 -->
<g id="edge1" class="edge">
<title>Node1&#45;&gt;Node2</title>
<path fill="none" stroke="#191970" d="M145.2784,-41.8301C153.9548,-42.1051 162.6651,-42.339 171,-42.5 242.0978,-43.8734 259.8994,-43.7255 331,-42.5 342.585,-42.3003 354.818,-41.9885 366.8233,-41.6251"/>
<polygon fill="#191970" stroke="#191970" points="145.2447,-38.3271 135.1331,-41.4902 145.0102,-45.3232 145.2447,-38.3271"/>
</g>
<!-- Node4 -->
<g id="node4" class="node">
<title>Node4</title>
<g id="a_node4"><a xlink:href="../../d8/d26/classgenfit_1_1KalmanFitterRefTrack.html#a6112774ee2e5b98aa7592038ea49a52a" target="_top" xlink:title="Remove referenceStates if they are too far from smoothed states.">
<polygon fill="none" stroke="#000000" points="171,-.5 171,-32.5 331,-32.5 331,-.5 171,-.5"/>
<text text-anchor="start" x="179" y="-19.5" font-family="FreeSans" font-size="10.00" fill="#000000">genfit::KalmanFitterRefTrack</text>
<text text-anchor="middle" x="251" y="-7.5" font-family="FreeSans" font-size="10.00" fill="#000000">::removeOutdated</text>
</a>
</g>
</g>
<!-- Node1&#45;&gt;Node4 -->
<g id="edge3" class="edge">
<title>Node1&#45;&gt;Node4</title>
<path fill="none" stroke="#191970" d="M144.991,-29.2095C153.544,-28.1841 162.2663,-27.1384 170.851,-26.1091"/>
<polygon fill="#191970" stroke="#191970" points="144.5591,-25.7361 135.0469,-30.4017 145.3924,-32.6864 144.5591,-25.7361"/>
</g>
<!-- Node3 -->
<g id="node3" class="node">
<title>Node3</title>
<g id="a_node3"><a xlink:href="../../d8/d26/classgenfit_1_1KalmanFitterRefTrack.html#ad3a24181b5370cc95f01f49ea148c011" target="_top" xlink:title="genfit::KalmanFitterRefTrack\l::processTrackWithRep">
<polygon fill="none" stroke="#000000" points="563,-22.5 563,-54.5 723,-54.5 723,-22.5 563,-22.5"/>
<text text-anchor="start" x="571" y="-41.5" font-family="FreeSans" font-size="10.00" fill="#000000">genfit::KalmanFitterRefTrack</text>
<text text-anchor="middle" x="643" y="-29.5" font-family="FreeSans" font-size="10.00" fill="#000000">::processTrackWithRep</text>
</a>
</g>
</g>
<!-- Node2&#45;&gt;Node3 -->
<g id="edge2" class="edge">
<title>Node2&#45;&gt;Node3</title>
<path fill="none" stroke="#191970" d="M537.0766,-38.5C545.7035,-38.5 554.4128,-38.5 562.9347,-38.5"/>
<polygon fill="#191970" stroke="#191970" points="537.0034,-35.0001 527.0034,-38.5 537.0034,-42.0001 537.0034,-35.0001"/>
</g>
<!-- Node4&#45;&gt;Node2 -->
<g id="edge4" class="edge">
<title>Node4&#45;&gt;Node2</title>
<path fill="none" stroke="#191970" d="M341.0766,-26.6106C349.7035,-27.579 358.4128,-28.5565 366.9347,-29.5131"/>
<polygon fill="#191970" stroke="#191970" points="341.3314,-23.1173 331.0034,-25.48 340.5506,-30.0737 341.3314,-23.1173"/>
</g>
</g>
</svg>
