<?xml version="1.0" encoding="UTF-8" standalone="no"?>
<!DOCTYPE svg PUBLIC "-//W3C//DTD SVG 1.1//EN"
 "http://www.w3.org/Graphics/SVG/1.1/DTD/svg11.dtd">
<!-- Generated by graphviz version 2.40.1 (20161225.0304)
 -->
<!-- Title: GenFit/blob/master/fitters/include/KalmanFitterInfo.h Pages: 1 -->
<svg width="1022pt" height="566pt"
 viewBox="0.00 0.00 1021.57 566.00" xmlns="http://www.w3.org/2000/svg" xmlns:xlink="http://www.w3.org/1999/xlink">
<g id="graph0" class="graph" transform="scale(1 1) rotate(0) translate(4 562)">
<title>GenFit/blob/master/fitters/include/KalmanFitterInfo.h</title>
<!-- Node1 -->
<g id="node1" class="node">
<title>Node1</title>
<polygon fill="#bfbfbf" stroke="#000000" points="527.5716,-513.5 527.5716,-557.5 686.5716,-557.5 686.5716,-513.5 527.5716,-513.5"/>
<text text-anchor="start" x="535.5716" y="-544.5" font-family="FreeSans" font-size="10.00" fill="#000000">GenFit/blob/master</text>
<text text-anchor="start" x="535.5716" y="-532.5" font-family="FreeSans" font-size="10.00" fill="#000000">/fitters/include/KalmanFitter</text>
<text text-anchor="middle" x="607.0716" y="-520.5" font-family="FreeSans" font-size="10.00" fill="#000000">Info.h</text>
</g>
<!-- Node2 -->
<g id="node2" class="node">
<title>Node2</title>
<g id="a_node2"><a xlink:href="../../d4/d0b/AbsFitterInfo_8h.html" target="_top" xlink:title="AbsFitterInfo.h">
<polygon fill="none" stroke="#000000" points="200.0716,-456.5 200.0716,-476.5 290.0716,-476.5 290.0716,-456.5 200.0716,-456.5"/>
<text text-anchor="middle" x="245.0716" y="-463.5" font-family="FreeSans" font-size="10.00" fill="#000000">AbsFitterInfo.h</text>
</a>
</g>
</g>
<!-- Node1&#45;&gt;Node2 -->
<g id="edge1" class="edge">
<title>Node1&#45;&gt;Node2</title>
<path fill="none" stroke="#191970" d="M527.181,-520.2722C458.3902,-507.1602 360.91,-488.5797 300.4104,-477.048"/>
<polygon fill="#191970" stroke="#191970" points="300.773,-473.5542 290.2945,-475.1198 299.4623,-480.4304 300.773,-473.5542"/>
</g>
<!-- Node3 -->
<g id="node3" class="node">
<title>Node3</title>
<g id="a_node3"><a xlink:href="../../d7/d22/MeasurementOnPlane_8h.html" target="_top" xlink:title="MeasurementOnPlane.h">
<polygon fill="none" stroke="#000000" points="278.5716,-399.5 278.5716,-419.5 415.5716,-419.5 415.5716,-399.5 278.5716,-399.5"/>
<text text-anchor="middle" x="347.0716" y="-406.5" font-family="FreeSans" font-size="10.00" fill="#000000">MeasurementOnPlane.h</text>
</a>
</g>
</g>
<!-- Node1&#45;&gt;Node3 -->
<g id="edge45" class="edge">
<title>Node1&#45;&gt;Node3</title>
<path fill="none" stroke="#191970" d="M527.4141,-515.8869C496.0147,-506.4598 460.3035,-493.5546 430.0716,-477 405.1008,-463.3263 380.2767,-441.8278 364.3758,-426.7768"/>
<polygon fill="#191970" stroke="#191970" points="366.5428,-424.0036 356.9205,-419.5694 361.6774,-429.0364 366.5428,-424.0036"/>
</g>
<!-- Node4 -->
<g id="node4" class="node">
<title>Node4</title>
<g id="a_node4"><a xlink:href="../../df/dc0/MeasuredStateOnPlane_8h.html" target="_top" xlink:title="MeasuredStateOnPlane.h">
<polygon fill="none" stroke="#000000" points="445.0716,-342.5 445.0716,-362.5 589.0716,-362.5 589.0716,-342.5 445.0716,-342.5"/>
<text text-anchor="middle" x="517.0716" y="-349.5" font-family="FreeSans" font-size="10.00" fill="#000000">MeasuredStateOnPlane.h</text>
</a>
</g>
</g>
<!-- Node1&#45;&gt;Node4 -->
<g id="edge44" class="edge">
<title>Node1&#45;&gt;Node4</title>
<path fill="none" stroke="#191970" d="M527.4754,-521.3554C502.6526,-512.7919 477.9136,-499.0496 463.0716,-477 439.5665,-442.0804 475.1721,-395.2614 498.8296,-370.1607"/>
<polygon fill="#191970" stroke="#191970" points="501.5184,-372.4169 506.0007,-362.8169 496.5101,-367.5264 501.5184,-372.4169"/>
</g>
<!-- Node5 -->
<g id="node5" class="node">
<title>Node5</title>
<g id="a_node5"><a xlink:href="../../db/d1a/StateOnPlane_8h.html" target="_top" xlink:title="StateOnPlane.h">
<polygon fill="none" stroke="#000000" points="615.0716,-285.5 615.0716,-305.5 709.0716,-305.5 709.0716,-285.5 615.0716,-285.5"/>
<text text-anchor="middle" x="662.0716" y="-292.5" font-family="FreeSans" font-size="10.00" fill="#000000">StateOnPlane.h</text>
</a>
</g>
</g>
<!-- Node1&#45;&gt;Node5 -->
<g id="edge48" class="edge">
<title>Node1&#45;&gt;Node5</title>
<path fill="none" stroke="#191970" d="M623.9707,-513.3499C631.0744,-502.8785 638.6923,-489.8701 643.0716,-477 662.1439,-420.9491 663.496,-350.0142 662.8355,-315.7932"/>
<polygon fill="#191970" stroke="#191970" points="666.3308,-315.5698 662.5571,-305.6699 659.3335,-315.7624 666.3308,-315.5698"/>
</g>
<!-- Node12 -->
<g id="node12" class="node">
<title>Node12</title>
<polygon fill="none" stroke="#bfbfbf" points="867.0716,-57.5 867.0716,-77.5 925.0716,-77.5 925.0716,-57.5 867.0716,-57.5"/>
<text text-anchor="middle" x="896.0716" y="-64.5" font-family="FreeSans" font-size="10.00" fill="#000000">memory</text>
</g>
<!-- Node1&#45;&gt;Node12 -->
<g id="edge50" class="edge">
<title>Node1&#45;&gt;Node12</title>
<path fill="none" stroke="#191970" d="M686.7133,-521.3777C784.0818,-501.798 936.0716,-462.7123 936.0716,-409.5 936.0716,-409.5 936.0716,-409.5 936.0716,-181.5 936.0716,-146.5772 919.1513,-108.8584 907.3203,-86.7532"/>
<polygon fill="#191970" stroke="#191970" points="910.2396,-84.8012 902.3216,-77.7616 904.1215,-88.2025 910.2396,-84.8012"/>
</g>
<!-- Node25 -->
<g id="node25" class="node">
<title>Node25</title>
<g id="a_node25"><a xlink:href="../../df/d77/KalmanFittedStateOnPlane_8h.html" target="_top" xlink:title="KalmanFittedStateOnPlane.h">
<polygon fill="none" stroke="#000000" points="472.5716,-456.5 472.5716,-476.5 633.5716,-476.5 633.5716,-456.5 472.5716,-456.5"/>
<text text-anchor="middle" x="553.0716" y="-463.5" font-family="FreeSans" font-size="10.00" fill="#000000">KalmanFittedStateOnPlane.h</text>
</a>
</g>
</g>
<!-- Node1&#45;&gt;Node25 -->
<g id="edge42" class="edge">
<title>Node1&#45;&gt;Node25</title>
<path fill="none" stroke="#191970" d="M589.6884,-513.2882C582.4738,-504.0694 574.2053,-493.5042 567.3533,-484.7488"/>
<polygon fill="#191970" stroke="#191970" points="569.9843,-482.4316 561.0649,-476.7137 564.4717,-486.7458 569.9843,-482.4316"/>
</g>
<!-- Node26 -->
<g id="node26" class="node">
<title>Node26</title>
<g id="a_node26"><a xlink:href="../../df/d5d/ReferenceStateOnPlane_8h.html" target="_top" xlink:title="ReferenceStateOnPlane.h">
<polygon fill="none" stroke="#000000" points="690.5716,-399.5 690.5716,-419.5 835.5716,-419.5 835.5716,-399.5 690.5716,-399.5"/>
<text text-anchor="middle" x="763.0716" y="-406.5" font-family="FreeSans" font-size="10.00" fill="#000000">ReferenceStateOnPlane.h</text>
</a>
</g>
</g>
<!-- Node1&#45;&gt;Node26 -->
<g id="edge46" class="edge">
<title>Node1&#45;&gt;Node26</title>
<path fill="none" stroke="#191970" d="M634.6022,-513.2638C665.5172,-488.2939 714.9693,-448.3518 742.6342,-426.0072"/>
<polygon fill="#191970" stroke="#191970" points="744.8954,-428.6798 750.4757,-419.6736 740.4971,-423.2342 744.8954,-428.6798"/>
</g>
<!-- Node27 -->
<g id="node27" class="node">
<title>Node27</title>
<polygon fill="none" stroke="#bfbfbf" points="964.5716,-456.5 964.5716,-476.5 1013.5716,-476.5 1013.5716,-456.5 964.5716,-456.5"/>
<text text-anchor="middle" x="989.0716" y="-463.5" font-family="FreeSans" font-size="10.00" fill="#000000">vector</text>
</g>
<!-- Node1&#45;&gt;Node27 -->
<g id="edge49" class="edge">
<title>Node1&#45;&gt;Node27</title>
<path fill="none" stroke="#191970" d="M686.841,-524.0702C756.6216,-513.5546 860.5311,-496.6436 950.0716,-477 951.527,-476.6807 953.0095,-476.3421 954.5046,-475.9895"/>
<polygon fill="#191970" stroke="#191970" points="955.5463,-479.3369 964.4001,-473.5179 953.85,-472.5456 955.5463,-479.3369"/>
</g>
<!-- Node2&#45;&gt;Node3 -->
<g id="edge2" class="edge">
<title>Node2&#45;&gt;Node3</title>
<path fill="none" stroke="#191970" d="M263.3071,-456.3095C279.1172,-447.4745 302.2123,-434.5684 320.1498,-424.5445"/>
<polygon fill="#191970" stroke="#191970" points="321.9719,-427.5358 328.9939,-419.6022 318.5571,-421.4252 321.9719,-427.5358"/>
</g>
<!-- Node10 -->
<g id="node10" class="node">
<title>Node10</title>
<polygon fill="none" stroke="#bfbfbf" points="569.5716,-57.5 569.5716,-77.5 634.5716,-77.5 634.5716,-57.5 569.5716,-57.5"/>
<text text-anchor="middle" x="602.0716" y="-64.5" font-family="FreeSans" font-size="10.00" fill="#000000">TObject.h</text>
</g>
<!-- Node2&#45;&gt;Node10 -->
<g id="edge40" class="edge">
<title>Node2&#45;&gt;Node10</title>
<path fill="none" stroke="#191970" d="M238.6653,-456.2593C227.1341,-436.8164 204.0716,-392.8829 204.0716,-352.5 204.0716,-352.5 204.0716,-352.5 204.0716,-181.5 204.0716,-108.1888 456.791,-79.327 559.4698,-70.6261"/>
<polygon fill="#191970" stroke="#191970" points="559.8226,-74.109 569.5016,-69.8 559.248,-67.1326 559.8226,-74.109"/>
</g>
<!-- Node17 -->
<g id="node17" class="node">
<title>Node17</title>
<polygon fill="none" stroke="#bfbfbf" points="472.0716,-171.5 472.0716,-191.5 544.0716,-191.5 544.0716,-171.5 472.0716,-171.5"/>
<text text-anchor="middle" x="508.0716" y="-178.5" font-family="FreeSans" font-size="10.00" fill="#000000">TVectorD.h</text>
</g>
<!-- Node2&#45;&gt;Node17 -->
<g id="edge41" class="edge">
<title>Node2&#45;&gt;Node17</title>
<path fill="none" stroke="#191970" d="M247.5766,-456.3792C253.6152,-433.6699 270.8341,-377.8426 302.0716,-342 357.3193,-278.6075 440.643,-222.824 482.3607,-196.899"/>
<polygon fill="#191970" stroke="#191970" points="484.3951,-199.7569 491.082,-191.5388 480.7297,-193.7932 484.3951,-199.7569"/>
</g>
<!-- Node23 -->
<g id="node23" class="node">
<title>Node23</title>
<g id="a_node23"><a xlink:href="../../d5/da6/FitStatus_8h.html" target="_top" xlink:title="FitStatus.h">
<polygon fill="none" stroke="#000000" points="67.5716,-399.5 67.5716,-419.5 136.5716,-419.5 136.5716,-399.5 67.5716,-399.5"/>
<text text-anchor="middle" x="102.0716" y="-406.5" font-family="FreeSans" font-size="10.00" fill="#000000">FitStatus.h</text>
</a>
</g>
</g>
<!-- Node2&#45;&gt;Node23 -->
<g id="edge37" class="edge">
<title>Node2&#45;&gt;Node23</title>
<path fill="none" stroke="#191970" d="M219.8352,-456.4408C196.7996,-447.2587 162.5364,-433.6013 136.8988,-423.3822"/>
<polygon fill="#191970" stroke="#191970" points="138.1219,-420.1019 127.5367,-419.6504 135.5299,-426.6044 138.1219,-420.1019"/>
</g>
<!-- Node3&#45;&gt;Node4 -->
<g id="edge3" class="edge">
<title>Node3&#45;&gt;Node4</title>
<path fill="none" stroke="#191970" d="M377.0729,-399.4408C405.0264,-390.0681 446.8875,-376.0323 477.5535,-365.7502"/>
<polygon fill="#191970" stroke="#191970" points="478.7162,-369.0519 487.0848,-362.5544 476.4909,-362.415 478.7162,-369.0519"/>
</g>
<!-- Node3&#45;&gt;Node12 -->
<g id="edge36" class="edge">
<title>Node3&#45;&gt;Node12</title>
<path fill="none" stroke="#191970" d="M415.742,-402.4119C563.4473,-386.2382 898.0716,-344.2207 898.0716,-295.5 898.0716,-295.5 898.0716,-295.5 898.0716,-181.5 898.0716,-148.6485 897.231,-110.4801 896.6398,-87.6952"/>
<polygon fill="#191970" stroke="#191970" points="900.135,-87.4658 896.3667,-77.5638 893.1375,-87.6545 900.135,-87.4658"/>
</g>
<!-- Node18 -->
<g id="node18" class="node">
<title>Node18</title>
<polygon fill="none" stroke="#bfbfbf" points="232.0716,-171.5 232.0716,-191.5 304.0716,-191.5 304.0716,-171.5 232.0716,-171.5"/>
<text text-anchor="middle" x="268.0716" y="-178.5" font-family="FreeSans" font-size="10.00" fill="#000000">TMatrixD.h</text>
</g>
<!-- Node3&#45;&gt;Node18 -->
<g id="edge34" class="edge">
<title>Node3&#45;&gt;Node18</title>
<path fill="none" stroke="#191970" d="M333.4582,-399.1924C323.1807,-390.6458 309.6033,-377.5704 302.0716,-363 274.429,-309.5247 269.0453,-236.8482 268.139,-201.9084"/>
<polygon fill="#191970" stroke="#191970" points="271.6337,-201.5322 267.9777,-191.5882 264.6345,-201.6417 271.6337,-201.5322"/>
</g>
<!-- Node21 -->
<g id="node21" class="node">
<title>Node21</title>
<g id="a_node21"><a xlink:href="../../d4/daa/AbsHMatrix_8h.html" target="_top" xlink:title="AbsHMatrix.h">
<polygon fill="none" stroke="#000000" points="293.0716,-228.5 293.0716,-248.5 377.0716,-248.5 377.0716,-228.5 293.0716,-228.5"/>
<text text-anchor="middle" x="335.0716" y="-235.5" font-family="FreeSans" font-size="10.00" fill="#000000">AbsHMatrix.h</text>
</a>
</g>
</g>
<!-- Node3&#45;&gt;Node21 -->
<g id="edge30" class="edge">
<title>Node3&#45;&gt;Node21</title>
<path fill="none" stroke="#191970" d="M353.2497,-399.2294C358.3654,-390.0876 365.2372,-376.1624 368.0716,-363 376.1805,-325.3429 358.4335,-281.9907 345.9563,-257.6595"/>
<polygon fill="#191970" stroke="#191970" points="348.9899,-255.9104 341.1805,-248.7505 342.8204,-259.2177 348.9899,-255.9104"/>
</g>
<!-- Node22 -->
<g id="node22" class="node">
<title>Node22</title>
<polygon fill="none" stroke="#bfbfbf" points="311.0716,-342.5 311.0716,-362.5 359.0716,-362.5 359.0716,-342.5 311.0716,-342.5"/>
<text text-anchor="middle" x="335.0716" y="-349.5" font-family="FreeSans" font-size="10.00" fill="#000000">cmath</text>
</g>
<!-- Node3&#45;&gt;Node22 -->
<g id="edge35" class="edge">
<title>Node3&#45;&gt;Node22</title>
<path fill="none" stroke="#191970" d="M344.9262,-399.3095C343.3563,-391.8524 341.1758,-381.4951 339.265,-372.4186"/>
<polygon fill="#191970" stroke="#191970" points="342.6835,-371.6667 337.1984,-362.6022 335.8336,-373.1088 342.6835,-371.6667"/>
</g>
<!-- Node4&#45;&gt;Node5 -->
<g id="edge4" class="edge">
<title>Node4&#45;&gt;Node5</title>
<path fill="none" stroke="#191970" d="M542.6609,-342.4408C566.0187,-333.2587 600.7612,-319.6013 626.7573,-309.3822"/>
<polygon fill="#191970" stroke="#191970" points="628.2241,-312.5663 636.2504,-305.6504 625.6631,-306.0516 628.2241,-312.5663"/>
</g>
<!-- Node13 -->
<g id="node13" class="node">
<title>Node13</title>
<g id="a_node13"><a xlink:href="../../d4/d66/AbsTrackRep_8h.html" target="_top" xlink:title="AbsTrackRep.h">
<polygon fill="none" stroke="#000000" points="471.5716,-228.5 471.5716,-248.5 562.5716,-248.5 562.5716,-228.5 471.5716,-228.5"/>
<text text-anchor="middle" x="517.0716" y="-235.5" font-family="FreeSans" font-size="10.00" fill="#000000">AbsTrackRep.h</text>
</a>
</g>
</g>
<!-- Node4&#45;&gt;Node13 -->
<g id="edge27" class="edge">
<title>Node4&#45;&gt;Node13</title>
<path fill="none" stroke="#191970" d="M517.0716,-342.3833C517.0716,-323.6703 517.0716,-283.3266 517.0716,-258.7866"/>
<polygon fill="#191970" stroke="#191970" points="520.5717,-258.7579 517.0716,-248.7579 513.5717,-258.758 520.5717,-258.7579"/>
</g>
<!-- Node19 -->
<g id="node19" class="node">
<title>Node19</title>
<polygon fill="none" stroke="#bfbfbf" points="360.0716,-171.5 360.0716,-191.5 454.0716,-191.5 454.0716,-171.5 360.0716,-171.5"/>
<text text-anchor="middle" x="407.0716" y="-178.5" font-family="FreeSans" font-size="10.00" fill="#000000">TMatrixDSym.h</text>
</g>
<!-- Node4&#45;&gt;Node19 -->
<g id="edge28" class="edge">
<title>Node4&#45;&gt;Node19</title>
<path fill="none" stroke="#191970" d="M510.52,-342.3153C492.6028,-314.4622 442.5787,-236.6974 419.2891,-200.4926"/>
<polygon fill="#191970" stroke="#191970" points="422.0816,-198.3642 413.7279,-191.8476 416.1945,-202.1513 422.0816,-198.3642"/>
</g>
<!-- Node20 -->
<g id="node20" class="node">
<title>Node20</title>
<polygon fill="none" stroke="#bfbfbf" points="580.5716,-228.5 580.5716,-248.5 633.5716,-248.5 633.5716,-228.5 580.5716,-228.5"/>
<text text-anchor="middle" x="607.0716" y="-235.5" font-family="FreeSans" font-size="10.00" fill="#000000">cassert</text>
</g>
<!-- Node4&#45;&gt;Node20 -->
<g id="edge29" class="edge">
<title>Node4&#45;&gt;Node20</title>
<path fill="none" stroke="#191970" d="M525.0585,-342.3833C540.2312,-323.1645 573.4163,-281.1301 592.5988,-256.8322"/>
<polygon fill="#191970" stroke="#191970" points="595.5238,-258.7756 598.9732,-248.7579 590.0296,-254.438 595.5238,-258.7756"/>
</g>
<!-- Node6 -->
<g id="node6" class="node">
<title>Node6</title>
<g id="a_node6"><a xlink:href="../../db/d4f/SharedPlanePtr_8h.html" target="_top" xlink:title="SharedPlanePtr.h">
<polygon fill="none" stroke="#000000" points="760.0716,-171.5 760.0716,-191.5 862.0716,-191.5 862.0716,-171.5 760.0716,-171.5"/>
<text text-anchor="middle" x="811.0716" y="-178.5" font-family="FreeSans" font-size="10.00" fill="#000000">SharedPlanePtr.h</text>
</a>
</g>
</g>
<!-- Node5&#45;&gt;Node6 -->
<g id="edge5" class="edge">
<title>Node5&#45;&gt;Node6</title>
<path fill="none" stroke="#191970" d="M675.2943,-285.3833C701.0746,-265.6587 758.2655,-221.9019 789.5691,-197.9515"/>
<polygon fill="#191970" stroke="#191970" points="791.849,-200.6142 797.6643,-191.7579 787.5954,-195.0547 791.849,-200.6142"/>
</g>
<!-- Node5&#45;&gt;Node10 -->
<g id="edge24" class="edge">
<title>Node5&#45;&gt;Node10</title>
<path fill="none" stroke="#191970" d="M663.9541,-285.381C668.7724,-256.7165 679.219,-173.2157 650.0716,-114 644.3648,-102.4062 634.5384,-92.099 625.257,-84.1534"/>
<polygon fill="#191970" stroke="#191970" points="627.3456,-81.3417 617.3582,-77.8058 622.9607,-86.7982 627.3456,-81.3417"/>
</g>
<!-- Node5&#45;&gt;Node13 -->
<g id="edge13" class="edge">
<title>Node5&#45;&gt;Node13</title>
<path fill="none" stroke="#191970" d="M636.4823,-285.4408C613.1245,-276.2587 578.382,-262.6013 552.3859,-252.3822"/>
<polygon fill="#191970" stroke="#191970" points="553.4801,-249.0516 542.8928,-248.6504 550.9191,-255.5663 553.4801,-249.0516"/>
</g>
<!-- Node5&#45;&gt;Node17 -->
<g id="edge25" class="edge">
<title>Node5&#45;&gt;Node17</title>
<path fill="none" stroke="#191970" d="M662.0201,-285.3977C661.3977,-270.8312 658.1162,-243.9329 643.0716,-228 630.6024,-214.7945 588.1759,-201.4713 554.1729,-192.4918"/>
<polygon fill="#191970" stroke="#191970" points="554.9441,-189.0761 544.3865,-189.9639 553.1933,-195.8537 554.9441,-189.0761"/>
</g>
<!-- Node5&#45;&gt;Node20 -->
<g id="edge26" class="edge">
<title>Node5&#45;&gt;Node20</title>
<path fill="none" stroke="#191970" d="M652.2387,-285.3095C644.4176,-277.204 633.2901,-265.672 624.0372,-256.0826"/>
<polygon fill="#191970" stroke="#191970" points="626.2818,-253.3681 616.8194,-248.6022 621.2444,-258.2288 626.2818,-253.3681"/>
</g>
<!-- Node7 -->
<g id="node7" class="node">
<title>Node7</title>
<g id="a_node7"><a xlink:href="../../dc/d81/DetPlane_8h.html" target="_top" xlink:title="DetPlane.h">
<polygon fill="none" stroke="#000000" points="760.5716,-114.5 760.5716,-134.5 831.5716,-134.5 831.5716,-114.5 760.5716,-114.5"/>
<text text-anchor="middle" x="796.0716" y="-121.5" font-family="FreeSans" font-size="10.00" fill="#000000">DetPlane.h</text>
</a>
</g>
</g>
<!-- Node6&#45;&gt;Node7 -->
<g id="edge6" class="edge">
<title>Node6&#45;&gt;Node7</title>
<path fill="none" stroke="#191970" d="M808.3899,-171.3095C806.4275,-163.8524 803.7019,-153.4951 801.3133,-144.4186"/>
<polygon fill="#191970" stroke="#191970" points="804.6598,-143.3822 798.7301,-134.6022 797.8903,-145.1637 804.6598,-143.3822"/>
</g>
<!-- Node6&#45;&gt;Node12 -->
<g id="edge12" class="edge">
<title>Node6&#45;&gt;Node12</title>
<path fill="none" stroke="#191970" d="M818.6148,-171.3833C832.9446,-152.1645 864.286,-110.1301 882.4028,-85.8322"/>
<polygon fill="#191970" stroke="#191970" points="885.2515,-87.8669 888.4231,-77.7579 879.6397,-83.6827 885.2515,-87.8669"/>
</g>
<!-- Node8 -->
<g id="node8" class="node">
<title>Node8</title>
<g id="a_node8"><a xlink:href="../../d1/dd1/AbsFinitePlane_8h.html" target="_top" xlink:title="AbsFinitePlane.h">
<polygon fill="none" stroke="#000000" points="747.0716,-57.5 747.0716,-77.5 847.0716,-77.5 847.0716,-57.5 747.0716,-57.5"/>
<text text-anchor="middle" x="797.0716" y="-64.5" font-family="FreeSans" font-size="10.00" fill="#000000">AbsFinitePlane.h</text>
</a>
</g>
</g>
<!-- Node7&#45;&gt;Node8 -->
<g id="edge7" class="edge">
<title>Node7&#45;&gt;Node8</title>
<path fill="none" stroke="#191970" d="M796.2504,-114.3095C796.3798,-106.9335 796.559,-96.72 796.7169,-87.715"/>
<polygon fill="#191970" stroke="#191970" points="800.2183,-87.6621 796.8944,-77.6022 793.2194,-87.5393 800.2183,-87.6621"/>
</g>
<!-- Node7&#45;&gt;Node10 -->
<g id="edge9" class="edge">
<title>Node7&#45;&gt;Node10</title>
<path fill="none" stroke="#191970" d="M761.8349,-114.4408C729.1637,-104.8415 679.8449,-90.3509 644.6534,-80.0111"/>
<polygon fill="#191970" stroke="#191970" points="645.2555,-76.5402 634.6744,-77.0792 643.2822,-83.2563 645.2555,-76.5402"/>
</g>
<!-- Node11 -->
<g id="node11" class="node">
<title>Node11</title>
<polygon fill="none" stroke="#bfbfbf" points="657.5716,-57.5 657.5716,-77.5 728.5716,-77.5 728.5716,-57.5 657.5716,-57.5"/>
<text text-anchor="middle" x="693.0716" y="-64.5" font-family="FreeSans" font-size="10.00" fill="#000000">TVector3.h</text>
</g>
<!-- Node7&#45;&gt;Node11 -->
<g id="edge10" class="edge">
<title>Node7&#45;&gt;Node11</title>
<path fill="none" stroke="#191970" d="M777.6573,-114.3095C761.6922,-105.4745 738.3707,-92.5684 720.2573,-82.5445"/>
<polygon fill="#191970" stroke="#191970" points="721.7708,-79.3819 711.3265,-77.6022 718.3814,-85.5066 721.7708,-79.3819"/>
</g>
<!-- Node7&#45;&gt;Node12 -->
<g id="edge11" class="edge">
<title>Node7&#45;&gt;Node12</title>
<path fill="none" stroke="#191970" d="M813.9496,-114.3095C829.3075,-105.5556 851.677,-92.8049 869.1924,-82.8211"/>
<polygon fill="#191970" stroke="#191970" points="871.3938,-85.595 878.3484,-77.6022 867.9274,-79.5136 871.3938,-85.595"/>
</g>
<!-- Node9 -->
<g id="node9" class="node">
<title>Node9</title>
<polygon fill="none" stroke="#bfbfbf" points="368.0716,-.5 368.0716,-20.5 428.0716,-20.5 428.0716,-.5 368.0716,-.5"/>
<text text-anchor="middle" x="398.0716" y="-7.5" font-family="FreeSans" font-size="10.00" fill="#000000">Rtypes.h</text>
</g>
<!-- Node8&#45;&gt;Node9 -->
<g id="edge8" class="edge">
<title>Node8&#45;&gt;Node9</title>
<path fill="none" stroke="#191970" d="M746.8826,-58.4265C743.9034,-57.9319 740.9493,-57.4527 738.0716,-57 629.9166,-39.9872 501.8349,-23.4378 438.1684,-15.4534"/>
<polygon fill="#191970" stroke="#191970" points="438.5058,-11.9684 428.1489,-14.2009 437.6375,-18.9144 438.5058,-11.9684"/>
</g>
<!-- Node13&#45;&gt;Node6 -->
<g id="edge14" class="edge">
<title>Node13&#45;&gt;Node6</title>
<path fill="none" stroke="#191970" d="M562.6865,-229.6563C612.9445,-219.9124 694.0297,-204.1918 749.8034,-193.3785"/>
<polygon fill="#191970" stroke="#191970" points="750.7589,-196.7585 759.9099,-191.4191 749.4265,-189.8865 750.7589,-196.7585"/>
</g>
<!-- Node13&#45;&gt;Node10 -->
<g id="edge20" class="edge">
<title>Node13&#45;&gt;Node10</title>
<path fill="none" stroke="#191970" d="M556.2628,-228.4729C587.502,-219.5945 627.539,-205.9171 637.0716,-192 659.6576,-159.0255 633.9095,-111.7106 616.1256,-85.9426"/>
<polygon fill="#191970" stroke="#191970" points="618.9396,-83.8608 610.2596,-77.7856 613.2565,-87.9477 618.9396,-83.8608"/>
</g>
<!-- Node13&#45;&gt;Node11 -->
<g id="edge19" class="edge">
<title>Node13&#45;&gt;Node11</title>
<path fill="none" stroke="#191970" d="M559.9281,-228.4741C594.9369,-219.4892 640.734,-205.6568 654.0716,-192 681.905,-163.5006 689.9021,-115.3979 692.1815,-88.0786"/>
<polygon fill="#191970" stroke="#191970" points="695.696,-87.9657 692.8494,-77.7605 688.7106,-87.5135 695.696,-87.9657"/>
</g>
<!-- Node14 -->
<g id="node14" class="node">
<title>Node14</title>
<g id="a_node14"><a xlink:href="../../df/d12/Material_8h.html" target="_top" xlink:title="Material.h">
<polygon fill="none" stroke="#000000" points="562.0716,-171.5 562.0716,-191.5 628.0716,-191.5 628.0716,-171.5 562.0716,-171.5"/>
<text text-anchor="middle" x="595.0716" y="-178.5" font-family="FreeSans" font-size="10.00" fill="#000000">Material.h</text>
</a>
</g>
</g>
<!-- Node13&#45;&gt;Node14 -->
<g id="edge15" class="edge">
<title>Node13&#45;&gt;Node14</title>
<path fill="none" stroke="#191970" d="M531.0164,-228.3095C542.6628,-219.7987 559.4787,-207.5102 572.9587,-197.6594"/>
<polygon fill="#191970" stroke="#191970" points="575.2386,-200.3283 581.2475,-191.6022 571.1085,-194.6766 575.2386,-200.3283"/>
</g>
<!-- Node13&#45;&gt;Node17 -->
<g id="edge21" class="edge">
<title>Node13&#45;&gt;Node17</title>
<path fill="none" stroke="#191970" d="M515.4626,-228.3095C514.2979,-220.9335 512.6853,-210.72 511.2634,-201.715"/>
<polygon fill="#191970" stroke="#191970" points="514.6836,-200.934 509.6667,-191.6022 507.7692,-202.0258 514.6836,-200.934"/>
</g>
<!-- Node13&#45;&gt;Node18 -->
<g id="edge22" class="edge">
<title>Node13&#45;&gt;Node18</title>
<path fill="none" stroke="#191970" d="M473.1286,-228.4408C428.4779,-218.2195 359.6013,-202.4526 314.1847,-192.056"/>
<polygon fill="#191970" stroke="#191970" points="314.8322,-188.6138 304.3033,-189.794 313.2701,-195.4373 314.8322,-188.6138"/>
</g>
<!-- Node13&#45;&gt;Node19 -->
<g id="edge23" class="edge">
<title>Node13&#45;&gt;Node19</title>
<path fill="none" stroke="#191970" d="M497.659,-228.4408C480.4857,-219.5419 455.2002,-206.4394 435.7047,-196.3371"/>
<polygon fill="#191970" stroke="#191970" points="437.1492,-193.1437 426.6601,-191.6504 433.9286,-199.3589 437.1492,-193.1437"/>
</g>
<!-- Node14&#45;&gt;Node10 -->
<g id="edge18" class="edge">
<title>Node14&#45;&gt;Node10</title>
<path fill="none" stroke="#191970" d="M595.6928,-171.3833C596.8418,-152.6703 599.3191,-112.3266 600.8259,-87.7866"/>
<polygon fill="#191970" stroke="#191970" points="604.3222,-87.9537 601.4417,-77.7579 597.3353,-87.5246 604.3222,-87.9537"/>
</g>
<!-- Node15 -->
<g id="node15" class="node">
<title>Node15</title>
<g id="a_node15"><a xlink:href="../../d7/d83/EigenMatrixTypedefs_8h.html" target="_top" xlink:title="EigenMatrixTypedefs.h">
<polygon fill="none" stroke="#000000" points="46.0716,-114.5 46.0716,-134.5 176.0716,-134.5 176.0716,-114.5 46.0716,-114.5"/>
<text text-anchor="middle" x="111.0716" y="-121.5" font-family="FreeSans" font-size="10.00" fill="#000000">EigenMatrixTypedefs.h</text>
</a>
</g>
</g>
<!-- Node14&#45;&gt;Node15 -->
<g id="edge16" class="edge">
<title>Node14&#45;&gt;Node15</title>
<path fill="none" stroke="#191970" d="M561.6917,-172.7066C558.7871,-172.0778 555.8841,-171.497 553.0716,-171 425.3493,-148.431 274.7891,-135.452 186.4499,-129.1997"/>
<polygon fill="#191970" stroke="#191970" points="186.4741,-125.693 176.2547,-128.4885 185.9869,-132.676 186.4741,-125.693"/>
</g>
<!-- Node16 -->
<g id="node16" class="node">
<title>Node16</title>
<polygon fill="none" stroke="#bfbfbf" points="71.0716,-57.5 71.0716,-77.5 151.0716,-77.5 151.0716,-57.5 71.0716,-57.5"/>
<text text-anchor="middle" x="111.0716" y="-64.5" font-family="FreeSans" font-size="10.00" fill="#000000">Eigen/Dense</text>
</g>
<!-- Node15&#45;&gt;Node16 -->
<g id="edge17" class="edge">
<title>Node15&#45;&gt;Node16</title>
<path fill="none" stroke="#191970" d="M111.0716,-114.3095C111.0716,-106.9335 111.0716,-96.72 111.0716,-87.715"/>
<polygon fill="#191970" stroke="#191970" points="114.5717,-87.6022 111.0716,-77.6022 107.5717,-87.6023 114.5717,-87.6022"/>
</g>
<!-- Node21&#45;&gt;Node10 -->
<g id="edge31" class="edge">
<title>Node21&#45;&gt;Node10</title>
<path fill="none" stroke="#191970" d="M334.748,-228.062C334.8586,-213.5725 337.1596,-187.3101 351.0716,-171 404.7776,-108.0363 502.8781,-82.7549 559.2178,-73.0842"/>
<polygon fill="#191970" stroke="#191970" points="559.9236,-76.5155 569.2315,-71.4546 558.7991,-69.6064 559.9236,-76.5155"/>
</g>
<!-- Node21&#45;&gt;Node17 -->
<g id="edge33" class="edge">
<title>Node21&#45;&gt;Node17</title>
<path fill="none" stroke="#191970" d="M365.6023,-228.4408C394.0492,-219.0681 436.649,-205.0323 467.8561,-194.7502"/>
<polygon fill="#191970" stroke="#191970" points="469.1532,-198.008 477.5556,-191.5544 466.9626,-191.3596 469.1532,-198.008"/>
</g>
<!-- Node21&#45;&gt;Node19 -->
<g id="edge32" class="edge">
<title>Node21&#45;&gt;Node19</title>
<path fill="none" stroke="#191970" d="M347.9437,-228.3095C358.5919,-219.8798 373.9214,-207.7439 386.3034,-197.9415"/>
<polygon fill="#191970" stroke="#191970" points="388.6429,-200.5535 394.3109,-191.6022 384.2979,-195.0651 388.6429,-200.5535"/>
</g>
<!-- Node23&#45;&gt;Node9 -->
<g id="edge38" class="edge">
<title>Node23&#45;&gt;Node9</title>
<path fill="none" stroke="#191970" d="M72.0127,-399.394C54.2091,-391.9541 32.5636,-380.1264 19.0716,-363 -.2148,-338.5185 .0716,-326.6658 .0716,-295.5 .0716,-295.5 .0716,-295.5 .0716,-124.5 .0716,-83.7654 25.9908,-75.9072 62.0716,-57 112.6994,-30.4698 279.7432,-17.4373 357.5408,-12.687"/>
<polygon fill="#191970" stroke="#191970" points="358.1299,-16.1582 367.9046,-12.0711 357.7146,-9.1705 358.1299,-16.1582"/>
</g>
<!-- Node24 -->
<g id="node24" class="node">
<title>Node24</title>
<polygon fill="none" stroke="#bfbfbf" points="28.0716,-342.5 28.0716,-362.5 176.0716,-362.5 176.0716,-342.5 28.0716,-342.5"/>
<text text-anchor="middle" x="102.0716" y="-349.5" font-family="FreeSans" font-size="10.00" fill="#000000">Math/ProbFuncMathCore.h</text>
</g>
<!-- Node23&#45;&gt;Node24 -->
<g id="edge39" class="edge">
<title>Node23&#45;&gt;Node24</title>
<path fill="none" stroke="#191970" d="M102.0716,-399.3095C102.0716,-391.9335 102.0716,-381.72 102.0716,-372.715"/>
<polygon fill="#191970" stroke="#191970" points="105.5717,-372.6022 102.0716,-362.6022 98.5717,-372.6023 105.5717,-372.6022"/>
</g>
<!-- Node25&#45;&gt;Node4 -->
<g id="edge43" class="edge">
<title>Node25&#45;&gt;Node4</title>
<path fill="none" stroke="#191970" d="M549.8768,-456.3833C543.9408,-437.586 531.1125,-396.9627 523.3735,-372.4559"/>
<polygon fill="#191970" stroke="#191970" points="526.6599,-371.2398 520.3109,-362.7579 519.9848,-373.3478 526.6599,-371.2398"/>
</g>
<!-- Node26&#45;&gt;Node5 -->
<g id="edge47" class="edge">
<title>Node26&#45;&gt;Node5</title>
<path fill="none" stroke="#191970" d="M754.1085,-399.3833C737.0067,-380.0802 699.5133,-337.7609 678.0309,-313.5135"/>
<polygon fill="#191970" stroke="#191970" points="680.4109,-310.9219 671.1598,-305.7579 675.1715,-315.5639 680.4109,-310.9219"/>
</g>
</g>
</svg>
