<?xml version="1.0" encoding="UTF-8" standalone="no"?>
<!DOCTYPE svg PUBLIC "-//W3C//DTD SVG 1.1//EN"
 "http://www.w3.org/Graphics/SVG/1.1/DTD/svg11.dtd">
<!-- Generated by graphviz version 2.40.1 (20161225.0304)
 -->
<!-- Title: genfit::GblFitter Pages: 1 -->
<svg width="472pt" height="168pt"
 viewBox="0.00 0.00 472.00 168.00" xmlns="http://www.w3.org/2000/svg" xmlns:xlink="http://www.w3.org/1999/xlink">
<g id="graph0" class="graph" transform="scale(1 1) rotate(0) translate(4 164)">
<title>genfit::GblFitter</title>
<!-- Node1 -->
<g id="node1" class="node">
<title>Node1</title>
<polygon fill="#bfbfbf" stroke="#000000" points="164,-.5 164,-20.5 260,-20.5 260,-.5 164,-.5"/>
<text text-anchor="middle" x="212" y="-7.5" font-family="FreeSans" font-size="10.00" fill="#000000">genfit::GblFitter</text>
</g>
<!-- Node2 -->
<g id="node2" class="node">
<title>Node2</title>
<g id="a_node2"><a xlink:href="../../d0/dba/classgenfit_1_1AbsFitter.html" target="_top" xlink:title="Abstract base class for fitters.">
<polygon fill="none" stroke="#000000" points="0,-69.5 0,-89.5 98,-89.5 98,-69.5 0,-69.5"/>
<text text-anchor="middle" x="49" y="-76.5" font-family="FreeSans" font-size="10.00" fill="#000000">genfit::AbsFitter</text>
</a>
</g>
</g>
<!-- Node2&#45;&gt;Node1 -->
<g id="edge1" class="edge">
<title>Node2&#45;&gt;Node1</title>
<path fill="none" stroke="#191970" d="M81.9579,-65.5485C113.4821,-52.2039 160.2506,-32.4062 188.2698,-20.5453"/>
<polygon fill="#191970" stroke="#191970" points="80.5461,-62.3454 72.7016,-69.4668 83.2749,-68.7916 80.5461,-62.3454"/>
</g>
<!-- Node3 -->
<g id="node3" class="node">
<title>Node3</title>
<g id="a_node3"><a xlink:href="../../d0/daf/classgenfit_1_1GblTrackSegmentController.html" target="_top" xlink:title="TrackSegmentController for use with GblFitter.">
<polygon fill="none" stroke="#000000" points="116,-69.5 116,-89.5 308,-89.5 308,-69.5 116,-69.5"/>
<text text-anchor="middle" x="212" y="-76.5" font-family="FreeSans" font-size="10.00" fill="#000000">genfit::GblTrackSegmentController</text>
</a>
</g>
</g>
<!-- Node3&#45;&gt;Node1 -->
<g id="edge2" class="edge">
<title>Node3&#45;&gt;Node1</title>
<path fill="none" stroke="#9a32cd" stroke-dasharray="5,2" d="M212,-59.2177C212,-46.5684 212,-30.8285 212,-20.723"/>
<polygon fill="#9a32cd" stroke="#9a32cd" points="208.5001,-59.3188 212,-69.3188 215.5001,-59.3188 208.5001,-59.3188"/>
<text text-anchor="middle" x="269" y="-42" font-family="FreeSans" font-size="10.00" fill="#000000"> m_segmentController</text>
</g>
<!-- Node4 -->
<g id="node4" class="node">
<title>Node4</title>
<g id="a_node4"><a xlink:title="STL class.">
<polygon fill="none" stroke="#bfbfbf" points="326.5,-69.5 326.5,-89.5 393.5,-89.5 393.5,-69.5 326.5,-69.5"/>
<text text-anchor="middle" x="360" y="-76.5" font-family="FreeSans" font-size="10.00" fill="#000000">std::string</text>
</a>
</g>
</g>
<!-- Node4&#45;&gt;Node1 -->
<g id="edge3" class="edge">
<title>Node4&#45;&gt;Node1</title>
<path fill="none" stroke="#9a32cd" stroke-dasharray="5,2" d="M349.8095,-60.3828C344.8011,-52.6768 338.0901,-44.3597 330,-39 318.4043,-31.3178 287.3941,-23.9806 260.0735,-18.675"/>
<polygon fill="#9a32cd" stroke="#9a32cd" points="346.9465,-62.4173 355.0525,-69.2396 352.9702,-58.8514 346.9465,-62.4173"/>
<text text-anchor="middle" x="403" y="-42" font-family="FreeSans" font-size="10.00" fill="#000000"> m_gblInternalIterations</text>
</g>
<!-- Node5 -->
<g id="node5" class="node">
<title>Node5</title>
<g id="a_node5"><a xlink:title="STL class.">
<polygon fill="none" stroke="#bfbfbf" points="306.5,-127.5 306.5,-159.5 413.5,-159.5 413.5,-127.5 306.5,-127.5"/>
<text text-anchor="start" x="314.5" y="-146.5" font-family="FreeSans" font-size="10.00" fill="#000000">std::basic_string&lt;</text>
<text text-anchor="middle" x="360" y="-134.5" font-family="FreeSans" font-size="10.00" fill="#000000"> char &gt;</text>
</a>
</g>
</g>
<!-- Node5&#45;&gt;Node4 -->
<g id="edge4" class="edge">
<title>Node5&#45;&gt;Node4</title>
<path fill="none" stroke="#191970" d="M360,-117.2639C360,-107.5394 360,-97.0805 360,-89.641"/>
<polygon fill="#191970" stroke="#191970" points="356.5001,-117.3501 360,-127.3501 363.5001,-117.3501 356.5001,-117.3501"/>
</g>
</g>
</svg>
