<?xml version="1.0" encoding="UTF-8" standalone="no"?>
<!DOCTYPE svg PUBLIC "-//W3C//DTD SVG 1.1//EN"
 "http://www.w3.org/Graphics/SVG/1.1/DTD/svg11.dtd">
<!-- Generated by graphviz version 2.40.1 (20161225.0304)
 -->
<!-- Title: PHGenFit::PlanarMeasurement Pages: 1 -->
<svg width="1545pt" height="421pt"
 viewBox="0.00 0.00 1545.00 420.50" xmlns="http://www.w3.org/2000/svg" xmlns:xlink="http://www.w3.org/1999/xlink">
<g id="graph0" class="graph" transform="scale(1 1) rotate(0) translate(4 416.5)">
<title>PHGenFit::PlanarMeasurement</title>
<!-- Node1 -->
<g id="node1" class="node">
<title>Node1</title>
<polygon fill="#bfbfbf" stroke="#000000" points="766,-232.5 766,-252.5 937,-252.5 937,-232.5 766,-232.5"/>
<text text-anchor="middle" x="851.5" y="-239.5" font-family="FreeSans" font-size="10.00" fill="#000000">PHGenFit::PlanarMeasurement</text>
</g>
<!-- Node2 -->
<g id="node2" class="node">
<title>Node2</title>
<g id="a_node2"><a xlink:href="../../d4/db3/classPHGenFit_1_1Measurement.html" target="_top" xlink:title="PHGenFit::Measurement">
<polygon fill="none" stroke="#000000" points="463,-232.5 463,-252.5 602,-252.5 602,-232.5 463,-232.5"/>
<text text-anchor="middle" x="532.5" y="-239.5" font-family="FreeSans" font-size="10.00" fill="#000000">PHGenFit::Measurement</text>
</a>
</g>
</g>
<!-- Node2&#45;&gt;Node1 -->
<g id="edge1" class="edge">
<title>Node2&#45;&gt;Node1</title>
<path fill="none" stroke="#191970" d="M612.1985,-242.5C658.9688,-242.5 718.0708,-242.5 765.8365,-242.5"/>
<polygon fill="#191970" stroke="#191970" points="612.1117,-239.0001 602.1117,-242.5 612.1117,-246.0001 612.1117,-239.0001"/>
</g>
<!-- Node3 -->
<g id="node3" class="node">
<title>Node3</title>
<g id="a_node3"><a xlink:href="../../d5/d1f/classgenfit_1_1AbsMeasurement.html" target="_top" xlink:title="Contains the measurement and covariance in raw detector coordinates.">
<polygon fill="none" stroke="#000000" points="181,-176.5 181,-196.5 322,-196.5 322,-176.5 181,-176.5"/>
<text text-anchor="middle" x="251.5" y="-183.5" font-family="FreeSans" font-size="10.00" fill="#000000">genfit::AbsMeasurement</text>
</a>
</g>
</g>
<!-- Node3&#45;&gt;Node2 -->
<g id="edge2" class="edge">
<title>Node3&#45;&gt;Node2</title>
<path fill="none" stroke="#9a32cd" stroke-dasharray="5,2" d="M287.3463,-199.8493C303.285,-205.3664 322.392,-211.4143 340,-215.5 380.2705,-224.8443 426.079,-231.4282 462.9044,-235.7539"/>
<polygon fill="#9a32cd" stroke="#9a32cd" points="288.4682,-196.5338 277.8734,-196.5051 286.1378,-203.1345 288.4682,-196.5338"/>
<text text-anchor="middle" x="380" y="-232.5" font-family="FreeSans" font-size="10.00" fill="#000000"> _measurement</text>
</g>
<!-- Node15 -->
<g id="node15" class="node">
<title>Node15</title>
<polygon fill="none" stroke="#bfbfbf" points="438,-144.5 438,-164.5 627,-164.5 627,-144.5 438,-144.5"/>
<text text-anchor="middle" x="532.5" y="-151.5" font-family="FreeSans" font-size="10.00" fill="#000000">std::vector&lt; AbsMeasurement * &gt;</text>
</g>
<!-- Node3&#45;&gt;Node15 -->
<g id="edge23" class="edge">
<title>Node3&#45;&gt;Node15</title>
<path fill="none" stroke="#9a32cd" stroke-dasharray="5,2" d="M332.2226,-176.4157C334.8455,-176.1043 337.4433,-175.7983 340,-175.5 371.8892,-171.779 406.7752,-167.9118 437.9842,-164.5252"/>
<polygon fill="#9a32cd" stroke="#9a32cd" points="331.5284,-172.9737 322.0159,-177.6386 332.3613,-179.924 331.5284,-172.9737"/>
<text text-anchor="middle" x="380" y="-178.5" font-family="FreeSans" font-size="10.00" fill="#000000"> elements</text>
</g>
<!-- Node4 -->
<g id="node4" class="node">
<title>Node4</title>
<polygon fill="none" stroke="#bfbfbf" points="18,-125.5 18,-145.5 75,-145.5 75,-125.5 18,-125.5"/>
<text text-anchor="middle" x="46.5" y="-132.5" font-family="FreeSans" font-size="10.00" fill="#000000">TObject</text>
</g>
<!-- Node4&#45;&gt;Node3 -->
<g id="edge3" class="edge">
<title>Node4&#45;&gt;Node3</title>
<path fill="none" stroke="#191970" d="M85.1308,-145.1106C121.1665,-154.0756 174.7122,-167.3967 211.2585,-176.4887"/>
<polygon fill="#191970" stroke="#191970" points="85.5536,-141.6091 75.0044,-142.5913 83.8636,-148.4021 85.5536,-141.6091"/>
</g>
<!-- Node5 -->
<g id="node5" class="node">
<title>Node5</title>
<g id="a_node5"><a xlink:href="../../db/d40/classgenfit_1_1TrackPoint.html" target="_top" xlink:title="Object containing AbsMeasurement and AbsFitterInfo objects.">
<polygon fill="none" stroke="#000000" points="799.5,-123.5 799.5,-143.5 903.5,-143.5 903.5,-123.5 799.5,-123.5"/>
<text text-anchor="middle" x="851.5" y="-130.5" font-family="FreeSans" font-size="10.00" fill="#000000">genfit::TrackPoint</text>
</a>
</g>
</g>
<!-- Node4&#45;&gt;Node5 -->
<g id="edge5" class="edge">
<title>Node4&#45;&gt;Node5</title>
<path fill="none" stroke="#191970" d="M85.6657,-135.3982C156.1458,-135.2154 309.0233,-134.8207 438,-134.5 567.9366,-134.1769 720.8406,-133.8108 799.2802,-133.624"/>
<polygon fill="#191970" stroke="#191970" points="85.4682,-131.8986 75.4773,-135.4246 85.4864,-138.8986 85.4682,-131.8986"/>
</g>
<!-- Node6 -->
<g id="node6" class="node">
<title>Node6</title>
<g id="a_node6"><a xlink:href="../../d6/d8a/classgenfit_1_1Track.html" target="_top" xlink:title="Collection of TrackPoint objects, AbsTrackRep objects and FitStatus objects.">
<polygon fill="none" stroke="#000000" points="1423,-312.5 1423,-332.5 1502,-332.5 1502,-312.5 1423,-312.5"/>
<text text-anchor="middle" x="1462.5" y="-319.5" font-family="FreeSans" font-size="10.00" fill="#000000">genfit::Track</text>
</a>
</g>
</g>
<!-- Node4&#45;&gt;Node6 -->
<g id="edge7" class="edge">
<title>Node4&#45;&gt;Node6</title>
<path fill="none" stroke="#191970" d="M50.9757,-155.7151C66.4137,-219.5296 123.6658,-412.5 251.5,-412.5 251.5,-412.5 251.5,-412.5 1115.5,-412.5 1229.9997,-412.5 1261.5208,-409.1393 1370,-372.5 1399.0558,-362.6863 1429.8123,-344.2199 1447.524,-332.6838"/>
<polygon fill="#191970" stroke="#191970" points="54.3174,-154.6329 48.6409,-145.6871 47.4998,-156.2203 54.3174,-154.6329"/>
</g>
<!-- Node10 -->
<g id="node10" class="node">
<title>Node10</title>
<g id="a_node10"><a xlink:href="../../d1/d25/classgenfit_1_1AbsTrackRep.html" target="_top" xlink:title="Abstract base class for a track representation.">
<polygon fill="none" stroke="#000000" points="793,-271.5 793,-291.5 910,-291.5 910,-271.5 793,-271.5"/>
<text text-anchor="middle" x="851.5" y="-278.5" font-family="FreeSans" font-size="10.00" fill="#000000">genfit::AbsTrackRep</text>
</a>
</g>
</g>
<!-- Node4&#45;&gt;Node10 -->
<g id="edge12" class="edge">
<title>Node4&#45;&gt;Node10</title>
<path fill="none" stroke="#191970" d="M70.4896,-150.8114C96.6855,-166.8878 140.3428,-191.8272 181,-206.5 396.3959,-284.2344 673.8403,-286.9813 792.946,-283.938"/>
<polygon fill="#191970" stroke="#191970" points="72.3263,-147.8321 61.9855,-145.526 68.6312,-153.7774 72.3263,-147.8321"/>
</g>
<!-- Node14 -->
<g id="node14" class="node">
<title>Node14</title>
<g id="a_node14"><a xlink:href="../../d9/d8c/classgenfit_1_1AbsFitterInfo.html" target="_top" xlink:title="This class collects all information needed and produced by a specific AbsFitter and is specific to on...">
<polygon fill="none" stroke="#000000" points="1057.5,-40.5 1057.5,-60.5 1173.5,-60.5 1173.5,-40.5 1057.5,-40.5"/>
<text text-anchor="middle" x="1115.5" y="-47.5" font-family="FreeSans" font-size="10.00" fill="#000000">genfit::AbsFitterInfo</text>
</a>
</g>
</g>
<!-- Node4&#45;&gt;Node14 -->
<g id="edge19" class="edge">
<title>Node4&#45;&gt;Node14</title>
<path fill="none" stroke="#191970" d="M65.506,-118.5763C77.8683,-108.1381 94.6735,-94.9805 111,-85.5 168.0647,-52.3634 185.512,-37.5 251.5,-37.5 251.5,-37.5 251.5,-37.5 851.5,-37.5 922.3983,-37.5 1003.8772,-42.235 1057.3421,-45.9897"/>
<polygon fill="#191970" stroke="#191970" points="63.007,-116.1096 57.7178,-125.2897 67.5774,-121.4116 63.007,-116.1096"/>
</g>
<!-- Node17 -->
<g id="node17" class="node">
<title>Node17</title>
<g id="a_node17"><a xlink:href="../../d6/d15/classgenfit_1_1ThinScatterer.html" target="_top" xlink:title="Thin or thick scatterer.">
<polygon fill="none" stroke="#000000" points="191,-66.5 191,-86.5 312,-86.5 312,-66.5 191,-66.5"/>
<text text-anchor="middle" x="251.5" y="-73.5" font-family="FreeSans" font-size="10.00" fill="#000000">genfit::ThinScatterer</text>
</a>
</g>
</g>
<!-- Node4&#45;&gt;Node17 -->
<g id="edge26" class="edge">
<title>Node4&#45;&gt;Node17</title>
<path fill="none" stroke="#191970" d="M71.0534,-120.2549C82.7659,-113.5925 97.2068,-106.2338 111,-101.5 136.5429,-92.7337 165.8056,-86.9002 190.9898,-83.0913"/>
<polygon fill="#191970" stroke="#191970" points="69.1634,-117.3058 62.3098,-125.3853 72.706,-123.3432 69.1634,-117.3058"/>
</g>
<!-- Node5&#45;&gt;Node3 -->
<g id="edge4" class="edge">
<title>Node5&#45;&gt;Node3</title>
<path fill="none" stroke="#9a32cd" stroke-dasharray="5,2" d="M811.2403,-146.6261C792.248,-152.3404 769.1574,-158.6079 748,-162.5 598.1967,-190.0575 418.949,-191.0241 322.0663,-188.9668"/>
<polygon fill="#9a32cd" stroke="#9a32cd" points="812.5154,-149.896 821.0483,-143.6157 810.4614,-143.2041 812.5154,-149.896"/>
<text text-anchor="middle" x="532.5" y="-192.5" font-family="FreeSans" font-size="10.00" fill="#000000"> trackPoint_</text>
</g>
<!-- Node12 -->
<g id="node12" class="node">
<title>Node12</title>
<polygon fill="none" stroke="#bfbfbf" points="1039.5,-224.5 1039.5,-244.5 1191.5,-244.5 1191.5,-224.5 1039.5,-224.5"/>
<text text-anchor="middle" x="1115.5" y="-231.5" font-family="FreeSans" font-size="10.00" fill="#000000">std::vector&lt; TrackPoint * &gt;</text>
</g>
<!-- Node5&#45;&gt;Node12 -->
<g id="edge16" class="edge">
<title>Node5&#45;&gt;Node12</title>
<path fill="none" stroke="#9a32cd" stroke-dasharray="5,2" d="M869.4785,-150.3136C888.982,-167.5452 921.8001,-193.7098 955,-207.5 981.3555,-218.4473 1011.8975,-224.9591 1039.2202,-228.8314"/>
<polygon fill="#9a32cd" stroke="#9a32cd" points="871.7409,-147.6407 861.9728,-143.5377 867.0502,-152.8366 871.7409,-147.6407"/>
<text text-anchor="middle" x="985" y="-227.5" font-family="FreeSans" font-size="10.00" fill="#000000"> elements</text>
</g>
<!-- Node5&#45;&gt;Node14 -->
<g id="edge20" class="edge">
<title>Node5&#45;&gt;Node14</title>
<path fill="none" stroke="#9a32cd" stroke-dasharray="5,2" d="M872.4422,-117.4052C892.487,-102.8938 924.1543,-82.2348 955,-71.5 987.7779,-60.0928 1026.2835,-54.8044 1057.3621,-52.386"/>
<polygon fill="#9a32cd" stroke="#9a32cd" points="870.3065,-114.6315 864.3473,-123.3916 874.4687,-120.2597 870.3065,-114.6315"/>
<text text-anchor="middle" x="985" y="-74.5" font-family="FreeSans" font-size="10.00" fill="#000000"> trackPoint_</text>
</g>
<!-- Node6&#45;&gt;Node5 -->
<g id="edge6" class="edge">
<title>Node6&#45;&gt;Node5</title>
<path fill="none" stroke="#9a32cd" stroke-dasharray="5,2" d="M1444.1916,-305.3433C1426.4596,-289.5683 1398.1871,-266.5592 1370,-252.5 1298.8709,-217.0222 1276.0856,-218.3546 1198,-203.5 1091.3865,-183.2184 1059.9242,-207.2252 955,-179.5 923.6318,-171.2113 889.7032,-154.4979 869.5456,-143.6631"/>
<polygon fill="#9a32cd" stroke="#9a32cd" points="1442.2467,-308.3048 1452.0031,-312.4354 1446.952,-303.1221 1442.2467,-308.3048"/>
<text text-anchor="middle" x="1115.5" y="-206.5" font-family="FreeSans" font-size="10.00" fill="#000000"> track_</text>
</g>
<!-- Node7 -->
<g id="node7" class="node">
<title>Node7</title>
<polygon fill="none" stroke="#bfbfbf" points="1041,-351.5 1041,-383.5 1190,-383.5 1190,-351.5 1041,-351.5"/>
<text text-anchor="start" x="1049" y="-370.5" font-family="FreeSans" font-size="10.00" fill="#000000">std::map&lt; const AbsTrack</text>
<text text-anchor="middle" x="1115.5" y="-358.5" font-family="FreeSans" font-size="10.00" fill="#000000">Rep *, FitStatus * &gt;</text>
</g>
<!-- Node7&#45;&gt;Node6 -->
<g id="edge8" class="edge">
<title>Node7&#45;&gt;Node6</title>
<path fill="none" stroke="#9a32cd" stroke-dasharray="5,2" d="M1200.2936,-359.0782C1249.8604,-353.8458 1313.5796,-346.5872 1370,-338.5 1387.4232,-336.0026 1406.6086,-332.7647 1422.9684,-329.8556"/>
<polygon fill="#9a32cd" stroke="#9a32cd" points="1199.8381,-355.6067 1190.2576,-360.1304 1200.568,-362.5685 1199.8381,-355.6067"/>
<text text-anchor="middle" x="1293" y="-359.5" font-family="FreeSans" font-size="10.00" fill="#000000"> fitStatuses_</text>
</g>
<!-- Node8 -->
<g id="node8" class="node">
<title>Node8</title>
<g id="a_node8"><a xlink:href="../../d0/d8d/classgenfit_1_1FitStatus.html" target="_top" xlink:title="Class where important numbers and properties of a fit can be stored.">
<polygon fill="none" stroke="#000000" points="803.5,-363.5 803.5,-383.5 899.5,-383.5 899.5,-363.5 803.5,-363.5"/>
<text text-anchor="middle" x="851.5" y="-370.5" font-family="FreeSans" font-size="10.00" fill="#000000">genfit::FitStatus</text>
</a>
</g>
</g>
<!-- Node8&#45;&gt;Node7 -->
<g id="edge9" class="edge">
<title>Node8&#45;&gt;Node7</title>
<path fill="none" stroke="#9a32cd" stroke-dasharray="5,2" d="M909.642,-372.1786C948.2123,-371.302 999.1891,-370.1434 1040.7643,-369.1985"/>
<polygon fill="#9a32cd" stroke="#9a32cd" points="909.5326,-368.6801 899.6147,-372.4065 909.6917,-375.6783 909.5326,-368.6801"/>
<text text-anchor="middle" x="985" y="-373.5" font-family="FreeSans" font-size="10.00" fill="#000000"> elements</text>
</g>
<!-- Node9 -->
<g id="node9" class="node">
<title>Node9</title>
<g id="a_node9"><a xlink:href="../../d6/d51/structgenfit_1_1PruneFlags.html" target="_top" xlink:title="Info which information has been pruned from the Track.">
<polygon fill="none" stroke="#000000" points="478.5,-363.5 478.5,-383.5 586.5,-383.5 586.5,-363.5 478.5,-363.5"/>
<text text-anchor="middle" x="532.5" y="-370.5" font-family="FreeSans" font-size="10.00" fill="#000000">genfit::PruneFlags</text>
</a>
</g>
</g>
<!-- Node9&#45;&gt;Node8 -->
<g id="edge10" class="edge">
<title>Node9&#45;&gt;Node8</title>
<path fill="none" stroke="#9a32cd" stroke-dasharray="5,2" d="M596.9071,-373.5C657.982,-373.5 748.3558,-373.5 803.3917,-373.5"/>
<polygon fill="#9a32cd" stroke="#9a32cd" points="596.614,-370.0001 586.614,-373.5 596.614,-377.0001 596.614,-370.0001"/>
<text text-anchor="middle" x="696.5" y="-376.5" font-family="FreeSans" font-size="10.00" fill="#000000"> pruneFlags_</text>
</g>
<!-- Node10&#45;&gt;Node7 -->
<g id="edge11" class="edge">
<title>Node10&#45;&gt;Node7</title>
<path fill="none" stroke="#9a32cd" stroke-dasharray="5,2" d="M884.4448,-295.5644C904.621,-303.9231 931.0775,-314.4324 955,-322.5 986.8092,-333.2273 1022.7455,-343.4725 1052.5376,-351.47"/>
<polygon fill="#9a32cd" stroke="#9a32cd" points="885.6597,-292.2788 875.0833,-291.6539 882.9615,-298.7379 885.6597,-292.2788"/>
<text text-anchor="middle" x="985" y="-342.5" font-family="FreeSans" font-size="10.00" fill="#000000"> keys</text>
</g>
<!-- Node11 -->
<g id="node11" class="node">
<title>Node11</title>
<polygon fill="none" stroke="#bfbfbf" points="1033,-312.5 1033,-332.5 1198,-332.5 1198,-312.5 1033,-312.5"/>
<text text-anchor="middle" x="1115.5" y="-319.5" font-family="FreeSans" font-size="10.00" fill="#000000">std::vector&lt; AbsTrackRep * &gt;</text>
</g>
<!-- Node10&#45;&gt;Node11 -->
<g id="edge14" class="edge">
<title>Node10&#45;&gt;Node11</title>
<path fill="none" stroke="#9a32cd" stroke-dasharray="5,2" d="M920.1313,-292.1586C960.5592,-298.4372 1011.3846,-306.3306 1051.0608,-312.4924"/>
<polygon fill="#9a32cd" stroke="#9a32cd" points="920.5089,-288.6754 910.0902,-290.5992 919.4346,-295.5925 920.5089,-288.6754"/>
<text text-anchor="middle" x="985" y="-309.5" font-family="FreeSans" font-size="10.00" fill="#000000"> elements</text>
</g>
<!-- Node10&#45;&gt;Node14 -->
<g id="edge21" class="edge">
<title>Node10&#45;&gt;Node14</title>
<path fill="none" stroke="#9a32cd" stroke-dasharray="5,2" d="M919.7098,-273.8974C926.0868,-271.0561 932.0154,-267.3391 937,-262.5 960.3574,-239.8244 941.722,-221.2228 955,-191.5 980.3403,-134.7759 983.0398,-112.4288 1033,-75.5 1041.7857,-69.0059 1052.2692,-64.1827 1062.7678,-60.6054"/>
<polygon fill="#9a32cd" stroke="#9a32cd" points="918.2612,-270.7017 910.1038,-277.4624 920.6968,-277.2644 918.2612,-270.7017"/>
<text text-anchor="middle" x="985" y="-194.5" font-family="FreeSans" font-size="10.00" fill="#000000"> rep_</text>
</g>
<!-- Node19 -->
<g id="node19" class="node">
<title>Node19</title>
<polygon fill="none" stroke="#bfbfbf" points="1388,-129.5 1388,-161.5 1537,-161.5 1537,-129.5 1388,-129.5"/>
<text text-anchor="start" x="1396" y="-148.5" font-family="FreeSans" font-size="10.00" fill="#000000">std::map&lt; const AbsTrack</text>
<text text-anchor="middle" x="1462.5" y="-136.5" font-family="FreeSans" font-size="10.00" fill="#000000">Rep *, AbsFitterInfo * &gt;</text>
</g>
<!-- Node10&#45;&gt;Node19 -->
<g id="edge29" class="edge">
<title>Node10&#45;&gt;Node19</title>
<path fill="none" stroke="#9a32cd" stroke-dasharray="5,2" d="M920.284,-282.9306C1052.1732,-285.1958 1331.0644,-287.5005 1370,-267.5 1414.4494,-244.6672 1443.4996,-189.5747 1455.7963,-161.9178"/>
<polygon fill="#9a32cd" stroke="#9a32cd" points="920.3424,-279.4312 910.2821,-282.754 920.2188,-286.4301 920.3424,-279.4312"/>
<text text-anchor="middle" x="1115.5" y="-286.5" font-family="FreeSans" font-size="10.00" fill="#000000"> keys</text>
</g>
<!-- Node11&#45;&gt;Node6 -->
<g id="edge13" class="edge">
<title>Node11&#45;&gt;Node6</title>
<path fill="none" stroke="#9a32cd" stroke-dasharray="5,2" d="M1208.332,-322.5C1278.3382,-322.5 1370.8835,-322.5 1422.7938,-322.5"/>
<polygon fill="#9a32cd" stroke="#9a32cd" points="1208.1743,-319.0001 1198.1743,-322.5 1208.1743,-326.0001 1208.1743,-319.0001"/>
<text text-anchor="middle" x="1293" y="-325.5" font-family="FreeSans" font-size="10.00" fill="#000000"> trackReps_</text>
</g>
<!-- Node12&#45;&gt;Node6 -->
<g id="edge15" class="edge">
<title>Node12&#45;&gt;Node6</title>
<path fill="none" stroke="#9a32cd" stroke-dasharray="5,2" d="M1172.1394,-246.789C1223.8826,-258.2676 1302.3943,-276.3175 1370,-294.5 1390.4156,-299.9907 1413.1426,-306.8595 1430.96,-312.4197"/>
<polygon fill="#9a32cd" stroke="#9a32cd" points="1172.6785,-243.3237 1162.1588,-244.5828 1171.1676,-250.1587 1172.6785,-243.3237"/>
<text text-anchor="middle" x="1293" y="-309.5" font-family="FreeSans" font-size="10.00" fill="#000000"> trackPoints_</text>
<text text-anchor="middle" x="1293" y="-297.5" font-family="FreeSans" font-size="10.00" fill="#000000">trackPointsWithMeasurement_</text>
</g>
<!-- Node13 -->
<g id="node13" class="node">
<title>Node13</title>
<polygon fill="none" stroke="#bfbfbf" points="1401,-49.5 1401,-81.5 1524,-81.5 1524,-49.5 1401,-49.5"/>
<text text-anchor="start" x="1409" y="-68.5" font-family="FreeSans" font-size="10.00" fill="#000000">std::map&lt; unsigned</text>
<text text-anchor="middle" x="1462.5" y="-56.5" font-family="FreeSans" font-size="10.00" fill="#000000"> int, AbsFitterInfo * &gt;</text>
</g>
<!-- Node13&#45;&gt;Node5 -->
<g id="edge17" class="edge">
<title>Node13&#45;&gt;Node5</title>
<path fill="none" stroke="#9a32cd" stroke-dasharray="5,2" d="M1390.7347,-80.1662C1383.743,-81.3839 1376.7444,-82.5209 1370,-83.5 1200.1798,-108.1529 997.2442,-123.7295 903.5823,-130.1405"/>
<polygon fill="#9a32cd" stroke="#9a32cd" points="1391.7187,-83.5456 1400.9428,-78.3334 1390.4816,-76.6557 1391.7187,-83.5456"/>
<text text-anchor="middle" x="1115.5" y="-123.5" font-family="FreeSans" font-size="10.00" fill="#000000"> vFitterInfos_</text>
</g>
<!-- Node14&#45;&gt;Node13 -->
<g id="edge18" class="edge">
<title>Node14&#45;&gt;Node13</title>
<path fill="none" stroke="#9a32cd" stroke-dasharray="5,2" d="M1183.7035,-39.1565C1235.1644,-32.4308 1307.3611,-26.911 1370,-36.5 1386.9687,-39.0976 1405.1,-44.2291 1420.7738,-49.4629"/>
<polygon fill="#9a32cd" stroke="#9a32cd" points="1183.1356,-35.7014 1173.6968,-40.5136 1184.0764,-42.6379 1183.1356,-35.7014"/>
<text text-anchor="middle" x="1293" y="-39.5" font-family="FreeSans" font-size="10.00" fill="#000000"> elements</text>
</g>
<!-- Node14&#45;&gt;Node19 -->
<g id="edge30" class="edge">
<title>Node14&#45;&gt;Node19</title>
<path fill="none" stroke="#9a32cd" stroke-dasharray="5,2" d="M1162.8223,-63.1897C1213.9536,-76.9335 1297.8092,-99.5685 1370,-119.5 1381.5774,-122.6965 1393.9594,-126.1515 1405.7777,-129.4669"/>
<polygon fill="#9a32cd" stroke="#9a32cd" points="1163.6112,-59.7776 1153.0455,-60.5629 1161.7949,-66.5378 1163.6112,-59.7776"/>
<text text-anchor="middle" x="1293" y="-122.5" font-family="FreeSans" font-size="10.00" fill="#000000"> elements</text>
</g>
<!-- Node15&#45;&gt;Node5 -->
<g id="edge22" class="edge">
<title>Node15&#45;&gt;Node5</title>
<path fill="none" stroke="#9a32cd" stroke-dasharray="5,2" d="M637.3512,-147.5976C691.5648,-144.0286 755.36,-139.829 799.1335,-136.9473"/>
<polygon fill="#9a32cd" stroke="#9a32cd" points="637.0953,-144.1067 627.3468,-148.2562 637.5552,-151.0916 637.0953,-144.1067"/>
<text text-anchor="middle" x="696.5" y="-149.5" font-family="FreeSans" font-size="10.00" fill="#000000"> rawMeasurements_</text>
</g>
<!-- Node16 -->
<g id="node16" class="node">
<title>Node16</title>
<polygon fill="none" stroke="#bfbfbf" points="440.5,-66.5 440.5,-86.5 624.5,-86.5 624.5,-66.5 440.5,-66.5"/>
<text text-anchor="middle" x="532.5" y="-73.5" font-family="FreeSans" font-size="10.00" fill="#000000">std::unique_ptr&lt; ThinScatterer &gt;</text>
</g>
<!-- Node16&#45;&gt;Node5 -->
<g id="edge24" class="edge">
<title>Node16&#45;&gt;Node5</title>
<path fill="none" stroke="#9a32cd" stroke-dasharray="5,2" d="M634.7967,-75.5513C670.9517,-77.0812 711.6493,-80.9461 748,-89.5 779.1698,-96.8348 812.8797,-112.8295 833.0831,-123.3784"/>
<polygon fill="#9a32cd" stroke="#9a32cd" points="634.8492,-72.0509 624.727,-75.1797 634.5911,-79.0462 634.8492,-72.0509"/>
<text text-anchor="middle" x="696.5" y="-92.5" font-family="FreeSans" font-size="10.00" fill="#000000"> thinScatterer_</text>
</g>
<!-- Node17&#45;&gt;Node16 -->
<g id="edge25" class="edge">
<title>Node17&#45;&gt;Node16</title>
<path fill="none" stroke="#9a32cd" stroke-dasharray="5,2" d="M322.4769,-76.5C358.2653,-76.5 402.0999,-76.5 440.4475,-76.5"/>
<polygon fill="#9a32cd" stroke="#9a32cd" points="322.1269,-73.0001 312.1269,-76.5 322.1268,-80.0001 322.1269,-73.0001"/>
<text text-anchor="middle" x="380" y="-79.5" font-family="FreeSans" font-size="10.00" fill="#000000"> ptr</text>
</g>
<!-- Node18 -->
<g id="node18" class="node">
<title>Node18</title>
<g id="a_node18"><a xlink:href="../../da/d5d/structgenfit_1_1Material.html" target="_top" xlink:title="genfit::Material">
<polygon fill="none" stroke="#000000" points="0,-.5 0,-20.5 93,-20.5 93,-.5 0,-.5"/>
<text text-anchor="middle" x="46.5" y="-7.5" font-family="FreeSans" font-size="10.00" fill="#000000">genfit::Material</text>
</a>
</g>
</g>
<!-- Node18&#45;&gt;Node17 -->
<g id="edge27" class="edge">
<title>Node18&#45;&gt;Node17</title>
<path fill="none" stroke="#9a32cd" stroke-dasharray="5,2" d="M87.1583,-23.59C126.3494,-36.2076 184.8032,-55.0269 220.4084,-66.49"/>
<polygon fill="#9a32cd" stroke="#9a32cd" points="88.2266,-20.2571 77.6351,-20.524 86.0813,-26.9202 88.2266,-20.2571"/>
<text text-anchor="middle" x="137" y="-50.5" font-family="FreeSans" font-size="10.00" fill="#000000"> material_</text>
</g>
<!-- Node19&#45;&gt;Node5 -->
<g id="edge28" class="edge">
<title>Node19&#45;&gt;Node5</title>
<path fill="none" stroke="#9a32cd" stroke-dasharray="5,2" d="M1377.6782,-143.8341C1249.2271,-141.3113 1009.1712,-136.5967 903.5935,-134.5231"/>
<polygon fill="#9a32cd" stroke="#9a32cd" points="1377.7968,-147.337 1387.8636,-144.0341 1377.9343,-140.3384 1377.7968,-147.337"/>
<text text-anchor="middle" x="1115.5" y="-143.5" font-family="FreeSans" font-size="10.00" fill="#000000"> fitterInfos_</text>
</g>
</g>
</svg>
