<?xml version="1.0" encoding="UTF-8" standalone="no"?>
<!DOCTYPE svg PUBLIC "-//W3C//DTD SVG 1.1//EN"
 "http://www.w3.org/Graphics/SVG/1.1/DTD/svg11.dtd">
<!-- Generated by graphviz version 2.40.1 (20161225.0304)
 -->
<!-- Title: BDiJetModule::FillVertexMap Pages: 1 -->
<svg width="335pt" height="416pt"
 viewBox="0.00 0.00 335.00 416.00" xmlns="http://www.w3.org/2000/svg" xmlns:xlink="http://www.w3.org/1999/xlink">
<g id="graph0" class="graph" transform="scale(1 1) rotate(0) translate(4 412)">
<title>BDiJetModule::FillVertexMap</title>
<!-- Node1 -->
<g id="node1" class="node">
<title>Node1</title>
<polygon fill="#bfbfbf" stroke="#000000" points="0,-211.5 0,-231.5 158,-231.5 158,-211.5 0,-211.5"/>
<text text-anchor="middle" x="79" y="-218.5" font-family="FreeSans" font-size="10.00" fill="#000000">BDiJetModule::FillVertexMap</text>
</g>
<!-- Node2 -->
<g id="node2" class="node">
<title>Node2</title>
<g id="a_node2"><a xlink:href="../../db/dd7/classSvtxVertexMap.html#a65e7d8369010442e979db996dab6d3f7" target="_top" xlink:title="SvtxVertexMap::begin">
<polygon fill="none" stroke="#000000" points="197,-387.5 197,-407.5 324,-407.5 324,-387.5 197,-387.5"/>
<text text-anchor="middle" x="260.5" y="-394.5" font-family="FreeSans" font-size="10.00" fill="#000000">SvtxVertexMap::begin</text>
</a>
</g>
</g>
<!-- Node1&#45;&gt;Node2 -->
<g id="edge1" class="edge">
<title>Node1&#45;&gt;Node2</title>
<path fill="none" stroke="#191970" d="M83.531,-231.7521C96.4578,-259.7918 136.3355,-338.3301 194,-378.5 196.5293,-380.2619 199.22,-381.8615 202.0144,-383.3137"/>
<polygon fill="#191970" stroke="#191970" points="200.6664,-386.5452 211.221,-387.4677 203.5453,-380.1646 200.6664,-386.5452"/>
</g>
<!-- Node3 -->
<g id="node3" class="node">
<title>Node3</title>
<g id="a_node3"><a xlink:href="../../db/dd7/classSvtxVertexMap.html#adfc0da95a91d44a58eb1d48fd10841a6" target="_top" xlink:title="SvtxVertexMap::end">
<polygon fill="none" stroke="#000000" points="201.5,-348.5 201.5,-368.5 319.5,-368.5 319.5,-348.5 201.5,-348.5"/>
<text text-anchor="middle" x="260.5" y="-355.5" font-family="FreeSans" font-size="10.00" fill="#000000">SvtxVertexMap::end</text>
</a>
</g>
</g>
<!-- Node1&#45;&gt;Node3 -->
<g id="edge2" class="edge">
<title>Node1&#45;&gt;Node3</title>
<path fill="none" stroke="#191970" d="M86.0497,-231.7586C102.319,-254.6465 144.8787,-310.1696 194,-339.5 197.1765,-341.3967 200.5517,-343.1121 204.0318,-344.6623"/>
<polygon fill="#191970" stroke="#191970" points="202.8385,-347.9542 213.4243,-348.3912 205.4215,-341.4482 202.8385,-347.9542"/>
</g>
<!-- Node4 -->
<g id="node4" class="node">
<title>Node4</title>
<g id="a_node4"><a xlink:href="../../d2/d6d/classSvtxVertex.html#a100758a84d82009a10de89721db160c6" target="_top" xlink:title="SvtxVertex::get_error">
<polygon fill="none" stroke="#000000" points="198.5,-309.5 198.5,-329.5 322.5,-329.5 322.5,-309.5 198.5,-309.5"/>
<text text-anchor="middle" x="260.5" y="-316.5" font-family="FreeSans" font-size="10.00" fill="#000000">SvtxVertex::get_error</text>
</a>
</g>
</g>
<!-- Node1&#45;&gt;Node4 -->
<g id="edge3" class="edge">
<title>Node1&#45;&gt;Node4</title>
<path fill="none" stroke="#191970" d="M90.9501,-231.6844C111.0016,-248.2994 153.2398,-281.3055 194,-300.5 198.3859,-302.5654 203.0425,-304.4519 207.7753,-306.1646"/>
<polygon fill="#191970" stroke="#191970" points="206.9407,-309.5762 217.5346,-309.4375 209.1665,-302.9395 206.9407,-309.5762"/>
</g>
<!-- Node5 -->
<g id="node5" class="node">
<title>Node5</title>
<g id="a_node5"><a xlink:href="../../d2/d6d/classSvtxVertex.html#a233c6da9e4f023ee15b8d1298cde9ac3" target="_top" xlink:title="SvtxVertex::get_x">
<polygon fill="none" stroke="#000000" points="208,-270.5 208,-290.5 313,-290.5 313,-270.5 208,-270.5"/>
<text text-anchor="middle" x="260.5" y="-277.5" font-family="FreeSans" font-size="10.00" fill="#000000">SvtxVertex::get_x</text>
</a>
</g>
</g>
<!-- Node1&#45;&gt;Node5 -->
<g id="edge4" class="edge">
<title>Node1&#45;&gt;Node5</title>
<path fill="none" stroke="#191970" d="M106.7389,-231.6414C129.9407,-240.005 163.9716,-251.9962 194,-261.5 200.4607,-263.5448 207.3048,-265.6114 214.0492,-267.5909"/>
<polygon fill="#191970" stroke="#191970" points="213.2241,-270.9957 223.803,-270.416 215.1716,-264.272 213.2241,-270.9957"/>
</g>
<!-- Node6 -->
<g id="node6" class="node">
<title>Node6</title>
<g id="a_node6"><a xlink:href="../../d2/d6d/classSvtxVertex.html#a2b5eda5e1b6f143c4963c63b249a432c" target="_top" xlink:title="SvtxVertex::get_y">
<polygon fill="none" stroke="#000000" points="208,-231.5 208,-251.5 313,-251.5 313,-231.5 208,-231.5"/>
<text text-anchor="middle" x="260.5" y="-238.5" font-family="FreeSans" font-size="10.00" fill="#000000">SvtxVertex::get_y</text>
</a>
</g>
</g>
<!-- Node1&#45;&gt;Node6 -->
<g id="edge5" class="edge">
<title>Node1&#45;&gt;Node6</title>
<path fill="none" stroke="#191970" d="M158.0806,-230.2141C171.3471,-231.676 184.9519,-233.1751 197.7354,-234.5838"/>
<polygon fill="#191970" stroke="#191970" points="197.4661,-238.0752 207.7894,-235.6917 198.2329,-231.1173 197.4661,-238.0752"/>
</g>
<!-- Node7 -->
<g id="node7" class="node">
<title>Node7</title>
<g id="a_node7"><a xlink:href="../../d2/d6d/classSvtxVertex.html#acd46c82a2b067db8482f53280197239f" target="_top" xlink:title="SvtxVertex::get_z">
<polygon fill="none" stroke="#000000" points="208.5,-192.5 208.5,-212.5 312.5,-212.5 312.5,-192.5 208.5,-192.5"/>
<text text-anchor="middle" x="260.5" y="-199.5" font-family="FreeSans" font-size="10.00" fill="#000000">SvtxVertex::get_z</text>
</a>
</g>
</g>
<!-- Node1&#45;&gt;Node7 -->
<g id="edge6" class="edge">
<title>Node1&#45;&gt;Node7</title>
<path fill="none" stroke="#191970" d="M158.0806,-213.2216C171.4978,-211.817 185.2611,-210.3762 198.1709,-209.0248"/>
<polygon fill="#191970" stroke="#191970" points="198.7372,-212.4847 208.3184,-207.9625 198.0083,-205.5228 198.7372,-212.4847"/>
</g>
<!-- Node8 -->
<g id="node8" class="node">
<title>Node8</title>
<g id="a_node8"><a xlink:href="../../db/da0/classgenfit_1_1GFRaveVertex.html#a25d5cd4f3c081231c4d77f80fefbade1" target="_top" xlink:title="get 3x3 covariance (error) of position.">
<polygon fill="none" stroke="#000000" points="198.5,-141.5 198.5,-173.5 322.5,-173.5 322.5,-141.5 198.5,-141.5"/>
<text text-anchor="start" x="206.5" y="-160.5" font-family="FreeSans" font-size="10.00" fill="#000000">genfit::GFRaveVertex</text>
<text text-anchor="middle" x="260.5" y="-148.5" font-family="FreeSans" font-size="10.00" fill="#000000">::getCov</text>
</a>
</g>
</g>
<!-- Node1&#45;&gt;Node8 -->
<g id="edge7" class="edge">
<title>Node1&#45;&gt;Node8</title>
<path fill="none" stroke="#191970" d="M107.7592,-211.359C133.848,-202.1596 173.0299,-188.3435 205.1765,-177.008"/>
<polygon fill="#191970" stroke="#191970" points="206.638,-180.204 214.9049,-173.5776 204.3101,-173.6024 206.638,-180.204"/>
</g>
<!-- Node9 -->
<g id="node9" class="node">
<title>Node9</title>
<g id="a_node9"><a xlink:href="../../db/da0/classgenfit_1_1GFRaveVertex.html#a47ada7742989e3e294a3cc9f1342fee7" target="_top" xlink:title="Number of tracks the vertex is made of.">
<polygon fill="none" stroke="#000000" points="198.5,-90.5 198.5,-122.5 322.5,-122.5 322.5,-90.5 198.5,-90.5"/>
<text text-anchor="start" x="206.5" y="-109.5" font-family="FreeSans" font-size="10.00" fill="#000000">genfit::GFRaveVertex</text>
<text text-anchor="middle" x="260.5" y="-97.5" font-family="FreeSans" font-size="10.00" fill="#000000">::getNTracks</text>
</a>
</g>
</g>
<!-- Node1&#45;&gt;Node9 -->
<g id="edge8" class="edge">
<title>Node1&#45;&gt;Node9</title>
<path fill="none" stroke="#191970" d="M89.9783,-211.2373C109.5902,-193.3262 152.4898,-156.0289 194,-132.5 197.4796,-130.5277 201.1385,-128.6395 204.8761,-126.8456"/>
<polygon fill="#191970" stroke="#191970" points="206.6092,-129.9029 214.272,-122.5864 203.7191,-123.5273 206.6092,-129.9029"/>
</g>
<!-- Node10 -->
<g id="node10" class="node">
<title>Node10</title>
<g id="a_node10"><a xlink:href="../../db/da0/classgenfit_1_1GFRaveVertex.html#a4818bdeb821d19b283ae026af388e92b" target="_top" xlink:title="get Position">
<polygon fill="none" stroke="#000000" points="198.5,-39.5 198.5,-71.5 322.5,-71.5 322.5,-39.5 198.5,-39.5"/>
<text text-anchor="start" x="206.5" y="-58.5" font-family="FreeSans" font-size="10.00" fill="#000000">genfit::GFRaveVertex</text>
<text text-anchor="middle" x="260.5" y="-46.5" font-family="FreeSans" font-size="10.00" fill="#000000">::getPos</text>
</a>
</g>
</g>
<!-- Node1&#45;&gt;Node10 -->
<g id="edge9" class="edge">
<title>Node1&#45;&gt;Node10</title>
<path fill="none" stroke="#191970" d="M84.8795,-211.1834C99.8784,-185.7151 142.0728,-119.1953 194,-81.5 196.5267,-79.6658 199.2,-77.9408 201.9665,-76.3213"/>
<polygon fill="#191970" stroke="#191970" points="203.8583,-79.2799 211.0542,-71.5036 200.5796,-73.0952 203.8583,-79.2799"/>
</g>
<!-- Node11 -->
<g id="node11" class="node">
<title>Node11</title>
<g id="a_node11"><a xlink:href="../../d2/d6d/classSvtxVertex.html#a030ba465f57960fb04b4752ed3a3edf8" target="_top" xlink:title="SvtxVertex::size_tracks">
<polygon fill="none" stroke="#000000" points="194,-.5 194,-20.5 327,-20.5 327,-.5 194,-.5"/>
<text text-anchor="middle" x="260.5" y="-7.5" font-family="FreeSans" font-size="10.00" fill="#000000">SvtxVertex::size_tracks</text>
</a>
</g>
</g>
<!-- Node1&#45;&gt;Node11 -->
<g id="edge10" class="edge">
<title>Node1&#45;&gt;Node11</title>
<path fill="none" stroke="#191970" d="M82.1331,-211.4251C92.5168,-179.7165 128.8944,-81.0802 194,-30.5 196.6181,-28.466 199.4412,-26.6382 202.3948,-24.9957"/>
<polygon fill="#191970" stroke="#191970" points="204.0638,-28.0773 211.5736,-20.6037 201.0423,-21.7629 204.0638,-28.0773"/>
</g>
</g>
</svg>
