<?xml version="1.0" encoding="UTF-8" standalone="no"?>
<!DOCTYPE svg PUBLIC "-//W3C//DTD SVG 1.1//EN"
 "http://www.w3.org/Graphics/SVG/1.1/DTD/svg11.dtd">
<!-- Generated by graphviz version 2.40.1 (20161225.0304)
 -->
<!-- Title: parton Pages: 1 -->
<svg width="1154pt" height="492pt"
 viewBox="0.00 0.00 1154.00 492.00" xmlns="http://www.w3.org/2000/svg" xmlns:xlink="http://www.w3.org/1999/xlink">
<g id="graph0" class="graph" transform="scale(1 1) rotate(0) translate(4 488)">
<title>parton</title>
<!-- Node1 -->
<g id="node1" class="node">
<title>Node1</title>
<polygon fill="#bfbfbf" stroke="#000000" points="0,-156.5 0,-176.5 49,-176.5 49,-156.5 0,-156.5"/>
<text text-anchor="middle" x="24.5" y="-163.5" font-family="FreeSans" font-size="10.00" fill="#000000">parton</text>
</g>
<!-- Node2 -->
<g id="node2" class="node">
<title>Node2</title>
<g id="a_node2"><a xlink:href="../../dc/dc6/gmre_8f.html#aa6e860c7d81623b3000169df288e5688" target="_top" xlink:title="gmre">
<polygon fill="none" stroke="#000000" points="106.5,-234.5 106.5,-254.5 148.5,-254.5 148.5,-234.5 106.5,-234.5"/>
<text text-anchor="middle" x="127.5" y="-241.5" font-family="FreeSans" font-size="10.00" fill="#000000">gmre</text>
</a>
</g>
</g>
<!-- Node1&#45;&gt;Node2 -->
<g id="edge1" class="edge">
<title>Node1&#45;&gt;Node2</title>
<path fill="none" stroke="#191970" d="M34.7078,-176.5131C46.3495,-187.6713 66.2096,-205.9268 85,-219.5 89.5973,-222.8208 94.6614,-226.0972 99.6429,-229.1297"/>
<polygon fill="#191970" stroke="#191970" points="98.0075,-232.2283 108.4015,-234.2817 101.5566,-226.1947 98.0075,-232.2283"/>
</g>
<!-- Node3 -->
<g id="node3" class="node">
<title>Node3</title>
<g id="a_node3"><a xlink:href="../../de/de0/matchedfilter_8C.html#ad37474ba23a5f0af2c619aeeaad07526" target="_top" xlink:title="go">
<polygon fill="none" stroke="#000000" points="273,-273.5 273,-293.5 302,-293.5 302,-273.5 273,-273.5"/>
<text text-anchor="middle" x="287.5" y="-280.5" font-family="FreeSans" font-size="10.00" fill="#000000">go</text>
</a>
</g>
</g>
<!-- Node1&#45;&gt;Node3 -->
<g id="edge27" class="edge">
<title>Node1&#45;&gt;Node3</title>
<path fill="none" stroke="#191970" d="M27.4255,-176.7198C33.9292,-197.3642 51.7056,-243.8279 85,-264.5 140.7829,-299.1349 222.3698,-293.4789 262.8421,-287.7904"/>
<polygon fill="#191970" stroke="#191970" points="263.5291,-291.2261 272.8858,-286.256 262.4719,-284.3064 263.5291,-291.2261"/>
</g>
<!-- Node6 -->
<g id="node6" class="node">
<title>Node6</title>
<g id="a_node6"><a xlink:href="../../d3/df2/classgenfit_1_1GFRavePropagator.html#a0534e516b69488120356d8bfa53f6f5b" target="_top" xlink:title="genfit::GFRavePropagator::to">
<polygon fill="none" stroke="#000000" points="206,-215.5 206,-235.5 369,-235.5 369,-215.5 206,-215.5"/>
<text text-anchor="middle" x="287.5" y="-222.5" font-family="FreeSans" font-size="10.00" fill="#000000">genfit::GFRavePropagator::to</text>
</a>
</g>
</g>
<!-- Node1&#45;&gt;Node6 -->
<g id="edge41" class="edge">
<title>Node1&#45;&gt;Node6</title>
<path fill="none" stroke="#191970" d="M49.0111,-175.4013C59.9311,-179.159 73.0099,-183.3775 85,-186.5 127.3001,-197.516 175.3111,-206.8951 213.9648,-213.693"/>
<polygon fill="#191970" stroke="#191970" points="213.6408,-217.189 224.0924,-215.4529 214.8393,-210.2924 213.6408,-217.189"/>
</g>
<!-- Node25 -->
<g id="node25" class="node">
<title>Node25</title>
<g id="a_node25"><a xlink:href="../../db/da1/classHiParnt.html#ac653b598baeeca89d06693fdf4688f38" target="_top" xlink:title="HiParnt::hint1">
<polygon fill="none" stroke="#000000" points="85,-117.5 85,-137.5 170,-137.5 170,-117.5 85,-117.5"/>
<text text-anchor="middle" x="127.5" y="-124.5" font-family="FreeSans" font-size="10.00" fill="#000000">HiParnt::hint1</text>
</a>
</g>
</g>
<!-- Node1&#45;&gt;Node25 -->
<g id="edge28" class="edge">
<title>Node1&#45;&gt;Node25</title>
<path fill="none" stroke="#191970" d="M49.1711,-157.1585C61.8403,-152.3614 77.5149,-146.4264 91.5058,-141.1289"/>
<polygon fill="#191970" stroke="#191970" points="92.7524,-144.3994 100.8651,-137.5851 90.2736,-137.853 92.7524,-144.3994"/>
</g>
<!-- Node29 -->
<g id="node29" class="node">
<title>Node29</title>
<g id="a_node29"><a xlink:href="../../db/da1/classHiParnt.html#a28a5a24ec376a6790e610d7fcc0f5b8e" target="_top" xlink:title="HiParnt::hipr1">
<polygon fill="none" stroke="#000000" points="85,-156.5 85,-176.5 170,-176.5 170,-156.5 85,-156.5"/>
<text text-anchor="middle" x="127.5" y="-163.5" font-family="FreeSans" font-size="10.00" fill="#000000">HiParnt::hipr1</text>
</a>
</g>
</g>
<!-- Node1&#45;&gt;Node29 -->
<g id="edge32" class="edge">
<title>Node1&#45;&gt;Node29</title>
<path fill="none" stroke="#191970" d="M49.1711,-166.5C56.9545,-166.5 65.8723,-166.5 74.8371,-166.5"/>
<polygon fill="#191970" stroke="#191970" points="74.9206,-170.0001 84.9206,-166.5 74.9206,-163.0001 74.9206,-170.0001"/>
</g>
<!-- Node31 -->
<g id="node31" class="node">
<title>Node31</title>
<g id="a_node31"><a xlink:href="../../db/da1/classHiParnt.html#a0d759f134daae3226a7744c9920bd769" target="_top" xlink:title="HiParnt::ihnt2">
<polygon fill="none" stroke="#000000" points="85,-78.5 85,-98.5 170,-98.5 170,-78.5 85,-78.5"/>
<text text-anchor="middle" x="127.5" y="-85.5" font-family="FreeSans" font-size="10.00" fill="#000000">HiParnt::ihnt2</text>
</a>
</g>
</g>
<!-- Node1&#45;&gt;Node31 -->
<g id="edge35" class="edge">
<title>Node1&#45;&gt;Node31</title>
<path fill="none" stroke="#191970" d="M33.1045,-156.4423C44.1534,-143.9838 64.3738,-122.674 85,-108.5 87.6883,-106.6526 90.5741,-104.8943 93.5301,-103.2423"/>
<polygon fill="#191970" stroke="#191970" points="95.2001,-106.319 102.481,-98.6223 91.9896,-100.0987 95.2001,-106.319"/>
</g>
<!-- Node33 -->
<g id="node33" class="node">
<title>Node33</title>
<g id="a_node33"><a xlink:href="../../db/da1/classHiParnt.html#a1c6a5924524a08fe9641adc64095c0b9" target="_top" xlink:title="HiParnt::ihpr2">
<polygon fill="none" stroke="#000000" points="85,-39.5 85,-59.5 170,-59.5 170,-39.5 85,-39.5"/>
<text text-anchor="middle" x="127.5" y="-46.5" font-family="FreeSans" font-size="10.00" fill="#000000">HiParnt::ihpr2</text>
</a>
</g>
</g>
<!-- Node1&#45;&gt;Node33 -->
<g id="edge38" class="edge">
<title>Node1&#45;&gt;Node33</title>
<path fill="none" stroke="#191970" d="M28.4863,-156.3906C36.5201,-137.1556 56.3661,-94.9442 85,-69.5 86.9202,-67.7937 89.0112,-66.2046 91.2021,-64.7295"/>
<polygon fill="#191970" stroke="#191970" points="93.1221,-67.6615 99.9964,-59.5995 89.595,-61.6151 93.1221,-67.6615"/>
</g>
<!-- Node2&#45;&gt;Node3 -->
<g id="edge2" class="edge">
<title>Node2&#45;&gt;Node3</title>
<path fill="none" stroke="#191970" d="M148.7468,-249.6789C178.2505,-256.8704 231.5152,-269.8537 262.7685,-277.4717"/>
<polygon fill="#191970" stroke="#191970" points="262.2858,-280.9564 272.8302,-279.9242 263.9435,-274.1556 262.2858,-280.9564"/>
</g>
<!-- Node2&#45;&gt;Node6 -->
<g id="edge5" class="edge">
<title>Node2&#45;&gt;Node6</title>
<path fill="none" stroke="#191970" d="M148.7468,-241.9769C161.2533,-240.4918 178.0294,-238.4996 195.5886,-236.4145"/>
<polygon fill="#191970" stroke="#191970" points="196.4738,-239.834 205.9913,-235.1792 195.6483,-232.8829 196.4738,-239.834"/>
</g>
<!-- Node4 -->
<g id="node4" class="node">
<title>Node4</title>
<g id="a_node4"><a xlink:href="../../de/de0/matchedfilter_8C.html#a3f4d763c3fdd217c038a53ba4ca5b98a" target="_top" xlink:title="meanw">
<polygon fill="none" stroke="#000000" points="453.5,-273.5 453.5,-293.5 506.5,-293.5 506.5,-273.5 453.5,-273.5"/>
<text text-anchor="middle" x="480" y="-280.5" font-family="FreeSans" font-size="10.00" fill="#000000">meanw</text>
</a>
</g>
</g>
<!-- Node3&#45;&gt;Node4 -->
<g id="edge3" class="edge">
<title>Node3&#45;&gt;Node4</title>
<path fill="none" stroke="#191970" d="M302.2855,-283.5C332.1529,-283.5 400.4632,-283.5 443.1591,-283.5"/>
<polygon fill="#191970" stroke="#191970" points="443.4232,-287.0001 453.4232,-283.5 443.4232,-280.0001 443.4232,-287.0001"/>
</g>
<!-- Node5 -->
<g id="node5" class="node">
<title>Node5</title>
<g id="a_node5"><a xlink:href="../../de/de0/matchedfilter_8C.html#ac662fab4d6569f9ab320da1b95bcd663" target="_top" xlink:title="round">
<polygon fill="none" stroke="#000000" points="457.5,-312.5 457.5,-332.5 502.5,-332.5 502.5,-312.5 457.5,-312.5"/>
<text text-anchor="middle" x="480" y="-319.5" font-family="FreeSans" font-size="10.00" fill="#000000">round</text>
</a>
</g>
</g>
<!-- Node3&#45;&gt;Node5 -->
<g id="edge4" class="edge">
<title>Node3&#45;&gt;Node5</title>
<path fill="none" stroke="#191970" d="M302.2855,-286.4955C333.1922,-292.7571 405.2636,-307.3586 447.5204,-315.9197"/>
<polygon fill="#191970" stroke="#191970" points="446.8292,-319.3507 457.3251,-317.9061 448.2192,-312.4901 446.8292,-319.3507"/>
</g>
<!-- Node7 -->
<g id="node7" class="node">
<title>Node7</title>
<g id="a_node7"><a xlink:href="../../dc/d22/namespacegenfit.html#aec5c8cb927a354edfb23af80108b69d4" target="_top" xlink:title="genfit::PlaneToGFDetPlane">
<polygon fill="none" stroke="#000000" points="405,-105.5 405,-125.5 555,-125.5 555,-105.5 405,-105.5"/>
<text text-anchor="middle" x="480" y="-112.5" font-family="FreeSans" font-size="10.00" fill="#000000">genfit::PlaneToGFDetPlane</text>
</a>
</g>
</g>
<!-- Node6&#45;&gt;Node7 -->
<g id="edge6" class="edge">
<title>Node6&#45;&gt;Node7</title>
<path fill="none" stroke="#191970" d="M310.3626,-215.4699C326.9116,-207.9914 349.6725,-197.2524 369,-186.5 400.4499,-169.0035 435.1661,-146.1973 457.2564,-131.2155"/>
<polygon fill="#191970" stroke="#191970" points="459.3398,-134.0311 465.6265,-125.503 455.3937,-128.2493 459.3398,-134.0311"/>
</g>
<!-- Node10 -->
<g id="node10" class="node">
<title>Node10</title>
<g id="a_node10"><a xlink:href="../../dc/d22/namespacegenfit.html#a16248965fc33843bb4f2d9bd8b0a7ce7" target="_top" xlink:title="genfit::GFTrackToTrack">
<polygon fill="none" stroke="#000000" points="415,-234.5 415,-254.5 545,-254.5 545,-234.5 415,-234.5"/>
<text text-anchor="middle" x="480" y="-241.5" font-family="FreeSans" font-size="10.00" fill="#000000">genfit::GFTrackToTrack</text>
</a>
</g>
</g>
<!-- Node6&#45;&gt;Node10 -->
<g id="edge9" class="edge">
<title>Node6&#45;&gt;Node10</title>
<path fill="none" stroke="#191970" d="M369.1373,-233.5577C380.9465,-234.7233 393.0561,-235.9185 404.7326,-237.071"/>
<polygon fill="#191970" stroke="#191970" points="404.5685,-240.5717 414.8639,-238.071 405.2561,-233.6056 404.5685,-240.5717"/>
</g>
<!-- Node8 -->
<g id="node8" class="node">
<title>Node8</title>
<g id="a_node8"><a xlink:href="../../dc/d22/namespacegenfit.html#ad8550f9eaa6237f8ddf48aefd57dfe58" target="_top" xlink:title="genfit::Point3DToTVector3">
<polygon fill="none" stroke="#000000" points="602.5,-54.5 602.5,-74.5 749.5,-74.5 749.5,-54.5 602.5,-54.5"/>
<text text-anchor="middle" x="676" y="-61.5" font-family="FreeSans" font-size="10.00" fill="#000000">genfit::Point3DToTVector3</text>
</a>
</g>
</g>
<!-- Node7&#45;&gt;Node8 -->
<g id="edge7" class="edge">
<title>Node7&#45;&gt;Node8</title>
<path fill="none" stroke="#191970" d="M521.8023,-105.4901C532.6555,-102.7328 544.3008,-99.6338 555,-96.5 571.1855,-91.7592 574.7748,-89.1028 591,-84.5 600.309,-81.8592 610.26,-79.292 619.9541,-76.9258"/>
<polygon fill="#191970" stroke="#191970" points="621.0158,-80.2706 629.9258,-74.5381 619.3857,-73.463 621.0158,-80.2706"/>
</g>
<!-- Node9 -->
<g id="node9" class="node">
<title>Node9</title>
<g id="a_node9"><a xlink:href="../../dc/d22/namespacegenfit.html#ad3ecb92a152c9ea7f5290e3653910473" target="_top" xlink:title="genfit::Vector3DToTVector3">
<polygon fill="none" stroke="#000000" points="599,-93.5 599,-113.5 753,-113.5 753,-93.5 599,-93.5"/>
<text text-anchor="middle" x="676" y="-100.5" font-family="FreeSans" font-size="10.00" fill="#000000">genfit::Vector3DToTVector3</text>
</a>
</g>
</g>
<!-- Node7&#45;&gt;Node9 -->
<g id="edge8" class="edge">
<title>Node7&#45;&gt;Node9</title>
<path fill="none" stroke="#191970" d="M555.2182,-110.8948C566.1284,-110.2268 577.4374,-109.5344 588.5627,-108.8533"/>
<polygon fill="#191970" stroke="#191970" points="588.9441,-112.3366 598.7115,-108.232 588.5162,-105.3497 588.9441,-112.3366"/>
</g>
<!-- Node11 -->
<g id="node11" class="node">
<title>Node11</title>
<g id="a_node11"><a xlink:href="../../d6/d8a/classgenfit_1_1Track.html#ad06e7a012624bdb03960826b5c9fcd93" target="_top" xlink:title="Get FitStatus for a AbsTrackRep. Per default, return FitStatus for cardinalRep.">
<polygon fill="none" stroke="#000000" points="799,-308.5 799,-328.5 945,-328.5 945,-308.5 799,-308.5"/>
<text text-anchor="middle" x="872" y="-315.5" font-family="FreeSans" font-size="10.00" fill="#000000">genfit::Track::getFitStatus</text>
</a>
</g>
</g>
<!-- Node10&#45;&gt;Node11 -->
<g id="edge10" class="edge">
<title>Node10&#45;&gt;Node11</title>
<path fill="none" stroke="#191970" d="M545.257,-236.8495C604.2535,-232.7209 692.1523,-233.6567 761,-264.5 781.3651,-273.6235 777.5213,-288.6117 797,-299.5 800.6273,-301.5276 804.4733,-303.3427 808.4321,-304.9669"/>
<polygon fill="#191970" stroke="#191970" points="807.2306,-308.2541 817.8241,-308.4207 809.6466,-301.6843 807.2306,-308.2541"/>
</g>
<!-- Node13 -->
<g id="node13" class="node">
<title>Node13</title>
<g id="a_node13"><a xlink:href="../../d0/d8d/classgenfit_1_1FitStatus.html#a56371ce504bee72fcf2f9324ddcb91a8" target="_top" xlink:title="Did the fit converge (in all Points or only partially)?">
<polygon fill="none" stroke="#000000" points="625,-132.5 625,-164.5 727,-164.5 727,-132.5 625,-132.5"/>
<text text-anchor="start" x="633" y="-151.5" font-family="FreeSans" font-size="10.00" fill="#000000">genfit::FitStatus::</text>
<text text-anchor="middle" x="676" y="-139.5" font-family="FreeSans" font-size="10.00" fill="#000000">isFitConverged</text>
</a>
</g>
</g>
<!-- Node10&#45;&gt;Node13 -->
<g id="edge12" class="edge">
<title>Node10&#45;&gt;Node13</title>
<path fill="none" stroke="#191970" d="M493.3466,-234.4199C513.5466,-219.5594 553.5127,-191.6807 591,-174.5 598.6632,-170.9879 606.9261,-167.7908 615.184,-164.9342"/>
<polygon fill="#191970" stroke="#191970" points="616.4455,-168.2035 624.8394,-161.7388 614.2461,-161.558 616.4455,-168.2035"/>
</g>
<!-- Node14 -->
<g id="node14" class="node">
<title>Node14</title>
<g id="a_node14"><a xlink:href="../../d6/d8a/classgenfit_1_1Track.html#abf156957d701a9a10a02fef8ac54e4d9" target="_top" xlink:title="Shortcut to get FittedStates.">
<polygon fill="none" stroke="#000000" points="611,-183.5 611,-215.5 741,-215.5 741,-183.5 611,-183.5"/>
<text text-anchor="start" x="619" y="-202.5" font-family="FreeSans" font-size="10.00" fill="#000000">genfit::Track::getFitted</text>
<text text-anchor="middle" x="676" y="-190.5" font-family="FreeSans" font-size="10.00" fill="#000000">State</text>
</a>
</g>
</g>
<!-- Node10&#45;&gt;Node14 -->
<g id="edge13" class="edge">
<title>Node10&#45;&gt;Node14</title>
<path fill="none" stroke="#191970" d="M523.9862,-234.4011C546.7044,-229.1852 575.0545,-222.6763 601.0971,-216.6971"/>
<polygon fill="#191970" stroke="#191970" points="601.9854,-220.0843 610.9486,-214.4353 600.419,-213.2618 601.9854,-220.0843"/>
</g>
<!-- Node19 -->
<g id="node19" class="node">
<title>Node19</title>
<g id="a_node19"><a xlink:href="../../d2/d74/classgenfit_1_1MeasuredStateOnPlane.html#a3aab44a6c7155b8258fa34469bc45bc0" target="_top" xlink:title="genfit::MeasuredStateOnPlane\l::getPosMomCov">
<polygon fill="none" stroke="#000000" points="591,-426.5 591,-458.5 761,-458.5 761,-426.5 591,-426.5"/>
<text text-anchor="start" x="599" y="-445.5" font-family="FreeSans" font-size="10.00" fill="#000000">genfit::MeasuredStateOnPlane</text>
<text text-anchor="middle" x="676" y="-433.5" font-family="FreeSans" font-size="10.00" fill="#000000">::getPosMomCov</text>
</a>
</g>
</g>
<!-- Node10&#45;&gt;Node19 -->
<g id="edge21" class="edge">
<title>Node10&#45;&gt;Node19</title>
<path fill="none" stroke="#191970" d="M541.3409,-254.5488C546.3897,-257.1726 551.0574,-260.4393 555,-264.5 603.6621,-314.6198 542.9796,-366.765 591,-417.5 591.793,-418.3379 592.6126,-419.1481 593.4563,-419.9316"/>
<polygon fill="#191970" stroke="#191970" points="591.5987,-422.9203 601.645,-426.2854 595.89,-417.3898 591.5987,-422.9203"/>
</g>
<!-- Node22 -->
<g id="node22" class="node">
<title>Node22</title>
<g id="a_node22"><a xlink:href="../../d0/d8d/classgenfit_1_1FitStatus.html#a7e8ed1d97eec3e3164dc2dd782f5cb85" target="_top" xlink:title="Get the fitted charge.">
<polygon fill="none" stroke="#000000" points="625,-375.5 625,-407.5 727,-407.5 727,-375.5 625,-375.5"/>
<text text-anchor="start" x="633" y="-394.5" font-family="FreeSans" font-size="10.00" fill="#000000">genfit::FitStatus::</text>
<text text-anchor="middle" x="676" y="-382.5" font-family="FreeSans" font-size="10.00" fill="#000000">getCharge</text>
</a>
</g>
</g>
<!-- Node10&#45;&gt;Node22 -->
<g id="edge24" class="edge">
<title>Node10&#45;&gt;Node22</title>
<path fill="none" stroke="#191970" d="M540.1563,-254.6507C545.5725,-257.2435 550.6456,-260.4755 555,-264.5 590.3043,-297.13 556.1138,-333.4234 591,-366.5 597.8038,-372.9509 606.1864,-377.7471 615.0102,-381.311"/>
<polygon fill="#191970" stroke="#191970" points="614.1095,-384.7042 624.7043,-384.7145 616.4284,-378.0994 614.1095,-384.7042"/>
</g>
<!-- Node23 -->
<g id="node23" class="node">
<title>Node23</title>
<g id="a_node23"><a xlink:href="../../d0/d8d/classgenfit_1_1FitStatus.html#abbeeda61574c284f1d762088b3644770" target="_top" xlink:title="Get chi^2 of the fit.">
<polygon fill="none" stroke="#000000" points="625,-324.5 625,-356.5 727,-356.5 727,-324.5 625,-324.5"/>
<text text-anchor="start" x="633" y="-343.5" font-family="FreeSans" font-size="10.00" fill="#000000">genfit::FitStatus::</text>
<text text-anchor="middle" x="676" y="-331.5" font-family="FreeSans" font-size="10.00" fill="#000000">getChi2</text>
</a>
</g>
</g>
<!-- Node10&#45;&gt;Node23 -->
<g id="edge25" class="edge">
<title>Node10&#45;&gt;Node23</title>
<path fill="none" stroke="#191970" d="M535.6314,-254.583C542.4906,-257.169 549.1392,-260.418 555,-264.5 577.7669,-280.357 568.4367,-299.3546 591,-315.5 598.271,-320.7029 606.6222,-324.8319 615.1882,-328.1065"/>
<polygon fill="#191970" stroke="#191970" points="614.3099,-331.5057 624.9046,-331.4523 616.589,-324.8871 614.3099,-331.5057"/>
</g>
<!-- Node24 -->
<g id="node24" class="node">
<title>Node24</title>
<g id="a_node24"><a xlink:href="../../d0/d8d/classgenfit_1_1FitStatus.html#aa73b3566657ea37bf8ab5102d465025d" target="_top" xlink:title="Get the degrees of freedom of the fit.">
<polygon fill="none" stroke="#000000" points="625,-273.5 625,-305.5 727,-305.5 727,-273.5 625,-273.5"/>
<text text-anchor="start" x="633" y="-292.5" font-family="FreeSans" font-size="10.00" fill="#000000">genfit::FitStatus::</text>
<text text-anchor="middle" x="676" y="-280.5" font-family="FreeSans" font-size="10.00" fill="#000000">getNdf</text>
</a>
</g>
</g>
<!-- Node10&#45;&gt;Node24 -->
<g id="edge26" class="edge">
<title>Node10&#45;&gt;Node24</title>
<path fill="none" stroke="#191970" d="M523.9862,-254.5989C550.858,-260.7684 585.6092,-268.747 615.1012,-275.5181"/>
<polygon fill="#191970" stroke="#191970" points="614.3526,-278.9372 624.8822,-277.7638 615.919,-272.1147 614.3526,-278.9372"/>
</g>
<!-- Node12 -->
<g id="node12" class="node">
<title>Node12</title>
<g id="a_node12"><a xlink:href="../../d6/d8a/classgenfit_1_1Track.html#a402b35300e81a48c7f0b9eb082b1cf24" target="_top" xlink:title="Get cardinal track representation.">
<polygon fill="none" stroke="#000000" points="983,-144.5 983,-164.5 1146,-164.5 1146,-144.5 983,-144.5"/>
<text text-anchor="middle" x="1064.5" y="-151.5" font-family="FreeSans" font-size="10.00" fill="#000000">genfit::Track::getCardinalRep</text>
</a>
</g>
</g>
<!-- Node11&#45;&gt;Node12 -->
<g id="edge11" class="edge">
<title>Node11&#45;&gt;Node12</title>
<path fill="none" stroke="#191970" d="M928.5433,-308.4199C935.033,-306.0479 941.3419,-303.1183 947,-299.5 997.7406,-267.0523 1036.7445,-205.2774 1054.304,-173.8718"/>
<polygon fill="#191970" stroke="#191970" points="1057.5262,-175.2735 1059.2393,-164.818 1051.38,-171.9231 1057.5262,-175.2735"/>
</g>
<!-- Node14&#45;&gt;Node12 -->
<g id="edge14" class="edge">
<title>Node14&#45;&gt;Node12</title>
<path fill="none" stroke="#191970" d="M741.0262,-191.968C804.3353,-184.6349 901.1598,-173.4197 972.3839,-165.1698"/>
<polygon fill="#191970" stroke="#191970" points="973.1688,-168.6024 982.6996,-163.9749 972.3633,-161.6489 973.1688,-168.6024"/>
</g>
<!-- Node15 -->
<g id="node15" class="node">
<title>Node15</title>
<g id="a_node15"><a xlink:href="../../d6/d8a/classgenfit_1_1Track.html#ad8961b1ff4809ccde5f6f100ffbccb9d" target="_top" xlink:title="genfit::Track::getPointWith\lFitterInfo">
<polygon fill="none" stroke="#000000" points="797,-116.5 797,-148.5 947,-148.5 947,-116.5 797,-116.5"/>
<text text-anchor="start" x="805" y="-135.5" font-family="FreeSans" font-size="10.00" fill="#000000">genfit::Track::getPointWith</text>
<text text-anchor="middle" x="872" y="-123.5" font-family="FreeSans" font-size="10.00" fill="#000000">FitterInfo</text>
</a>
</g>
</g>
<!-- Node14&#45;&gt;Node15 -->
<g id="edge15" class="edge">
<title>Node14&#45;&gt;Node15</title>
<path fill="none" stroke="#191970" d="M732.8818,-183.4179C742.3116,-180.5665 751.959,-177.5352 761,-174.5 781.3024,-167.6842 803.4167,-159.4795 822.5248,-152.1372"/>
<polygon fill="#191970" stroke="#191970" points="823.8646,-155.3718 831.9291,-148.5005 821.3398,-148.8429 823.8646,-155.3718"/>
</g>
<!-- Node16 -->
<g id="node16" class="node">
<title>Node16</title>
<g id="a_node16"><a xlink:href="../../d8/db3/classgenfit_1_1Exception.html#a13619975a1e1be5c1bd504b254e01f7a" target="_top" xlink:title="Set fatal flag.">
<polygon fill="none" stroke="#000000" points="818,-257.5 818,-289.5 926,-289.5 926,-257.5 818,-257.5"/>
<text text-anchor="start" x="826" y="-276.5" font-family="FreeSans" font-size="10.00" fill="#000000">genfit::Exception::</text>
<text text-anchor="middle" x="872" y="-264.5" font-family="FreeSans" font-size="10.00" fill="#000000">setFatal</text>
</a>
</g>
</g>
<!-- Node14&#45;&gt;Node16 -->
<g id="edge17" class="edge">
<title>Node14&#45;&gt;Node16</title>
<path fill="none" stroke="#191970" d="M723.1397,-215.6092C735.5644,-220.149 748.8817,-225.2807 761,-230.5 777.4295,-237.5761 780.4731,-241.6544 797,-248.5 801.4421,-250.34 806.0729,-252.1445 810.7575,-253.8889"/>
<polygon fill="#191970" stroke="#191970" points="809.8116,-257.2685 820.4059,-257.3769 812.1915,-250.6855 809.8116,-257.2685"/>
</g>
<!-- Node17 -->
<g id="node17" class="node">
<title>Node17</title>
<g id="a_node17"><a xlink:href="../../db/d40/classgenfit_1_1TrackPoint.html#ae8b3e743fb436dd6689e0dad4c35ffd9" target="_top" xlink:title="Get fitterInfo for rep. Per default, use cardinal rep.">
<polygon fill="none" stroke="#000000" points="820,-65.5 820,-97.5 924,-97.5 924,-65.5 820,-65.5"/>
<text text-anchor="start" x="828" y="-84.5" font-family="FreeSans" font-size="10.00" fill="#000000">genfit::TrackPoint</text>
<text text-anchor="middle" x="872" y="-72.5" font-family="FreeSans" font-size="10.00" fill="#000000">::getFitterInfo</text>
</a>
</g>
</g>
<!-- Node14&#45;&gt;Node17 -->
<g id="edge18" class="edge">
<title>Node14&#45;&gt;Node17</title>
<path fill="none" stroke="#191970" d="M741.3719,-186.215C748.4226,-183.0983 755.1483,-179.2504 761,-174.5 787.2447,-153.1944 771.2703,-129.4248 797,-107.5 801.0269,-104.0686 805.5327,-101.0816 810.2833,-98.483"/>
<polygon fill="#191970" stroke="#191970" points="812.1797,-101.4537 819.6588,-93.9495 809.1324,-95.1518 812.1797,-101.4537"/>
</g>
<!-- Node18 -->
<g id="node18" class="node">
<title>Node18</title>
<g id="a_node18"><a xlink:href="../../d9/d8c/classgenfit_1_1AbsFitterInfo.html#a985d0203f46dfbd5dc253bb03b21d76f" target="_top" xlink:title="genfit::AbsFitterInfo\l::getFittedState">
<polygon fill="none" stroke="#000000" points="814,-206.5 814,-238.5 930,-238.5 930,-206.5 814,-206.5"/>
<text text-anchor="start" x="822" y="-225.5" font-family="FreeSans" font-size="10.00" fill="#000000">genfit::AbsFitterInfo</text>
<text text-anchor="middle" x="872" y="-213.5" font-family="FreeSans" font-size="10.00" fill="#000000">::getFittedState</text>
</a>
</g>
</g>
<!-- Node14&#45;&gt;Node18 -->
<g id="edge20" class="edge">
<title>Node14&#45;&gt;Node18</title>
<path fill="none" stroke="#191970" d="M741.2652,-207.1587C761.3661,-209.5175 783.543,-212.1198 803.8337,-214.5009"/>
<polygon fill="#191970" stroke="#191970" points="803.5976,-217.9971 813.9374,-215.6865 804.4135,-211.0448 803.5976,-217.9971"/>
</g>
<!-- Node15&#45;&gt;Node12 -->
<g id="edge16" class="edge">
<title>Node15&#45;&gt;Node12</title>
<path fill="none" stroke="#191970" d="M947.2526,-141.1003C955.6656,-142.0618 964.3035,-143.049 972.8921,-144.0305"/>
<polygon fill="#191970" stroke="#191970" points="972.6024,-147.5201 982.9352,-145.1783 973.3973,-140.5654 972.6024,-147.5201"/>
</g>
<!-- Node17&#45;&gt;Node12 -->
<g id="edge19" class="edge">
<title>Node17&#45;&gt;Node12</title>
<path fill="none" stroke="#191970" d="M919.3303,-97.5309C928.5359,-100.7551 938.091,-104.176 947,-107.5 975.4583,-118.1178 1007.4474,-130.9747 1030.8541,-140.5558"/>
<polygon fill="#191970" stroke="#191970" points="1029.7448,-143.8838 1040.3247,-144.4453 1032.4041,-137.4086 1029.7448,-143.8838"/>
</g>
<!-- Node20 -->
<g id="node20" class="node">
<title>Node20</title>
<g id="a_node20"><a xlink:href="../../de/dd5/classgenfit_1_1StateOnPlane.html#a14f25e4575846dcb14bd91ddb2a534d2" target="_top" xlink:title="genfit::StateOnPlane\l::getRep">
<polygon fill="none" stroke="#000000" points="811.5,-451.5 811.5,-483.5 932.5,-483.5 932.5,-451.5 811.5,-451.5"/>
<text text-anchor="start" x="819.5" y="-470.5" font-family="FreeSans" font-size="10.00" fill="#000000">genfit::StateOnPlane</text>
<text text-anchor="middle" x="872" y="-458.5" font-family="FreeSans" font-size="10.00" fill="#000000">::getRep</text>
</a>
</g>
</g>
<!-- Node19&#45;&gt;Node20 -->
<g id="edge22" class="edge">
<title>Node19&#45;&gt;Node20</title>
<path fill="none" stroke="#191970" d="M761.1133,-453.3563C774.4823,-455.0615 788.1769,-456.8083 801.1785,-458.4666"/>
<polygon fill="#191970" stroke="#191970" points="801.075,-461.9817 811.4375,-459.7752 801.9607,-455.038 801.075,-461.9817"/>
</g>
<!-- Node21 -->
<g id="node21" class="node">
<title>Node21</title>
<g id="a_node21"><a xlink:href="../../d1/d25/classgenfit_1_1AbsTrackRep.html#ae6f4c4eeb3e4fbadcc930f53e2ca4ad7" target="_top" xlink:title="Translates MeasuredStateOnPlane into 3D position, momentum and 6x6 covariance.">
<polygon fill="none" stroke="#000000" points="813.5,-400.5 813.5,-432.5 930.5,-432.5 930.5,-400.5 813.5,-400.5"/>
<text text-anchor="start" x="821.5" y="-419.5" font-family="FreeSans" font-size="10.00" fill="#000000">genfit::AbsTrackRep</text>
<text text-anchor="middle" x="872" y="-407.5" font-family="FreeSans" font-size="10.00" fill="#000000">::getPosMomCov</text>
</a>
</g>
</g>
<!-- Node19&#45;&gt;Node21 -->
<g id="edge23" class="edge">
<title>Node19&#45;&gt;Node21</title>
<path fill="none" stroke="#191970" d="M761.1133,-431.2095C775.191,-429.342 789.6297,-427.4267 803.24,-425.6212"/>
<polygon fill="#191970" stroke="#191970" points="804.0139,-429.0493 813.4668,-424.2646 803.0934,-422.1101 804.0139,-429.0493"/>
</g>
<!-- Node26 -->
<g id="node26" class="node">
<title>Node26</title>
<g id="a_node26"><a xlink:href="../../db/da1/classHiParnt.html#aec7bbf54e836c6b58a40be4e79292972" target="_top" xlink:title="HiParnt::init">
<polygon fill="none" stroke="#000000" points="249.5,-78.5 249.5,-98.5 325.5,-98.5 325.5,-78.5 249.5,-78.5"/>
<text text-anchor="middle" x="287.5" y="-85.5" font-family="FreeSans" font-size="10.00" fill="#000000">HiParnt::init</text>
</a>
</g>
</g>
<!-- Node25&#45;&gt;Node26 -->
<g id="edge29" class="edge">
<title>Node25&#45;&gt;Node26</title>
<path fill="none" stroke="#191970" d="M168.704,-117.4565C190.4004,-112.168 217.1201,-105.6551 239.7207,-100.1462"/>
<polygon fill="#191970" stroke="#191970" points="240.5672,-103.5424 249.4538,-97.7737 238.9094,-96.7415 240.5672,-103.5424"/>
</g>
<!-- Node28 -->
<g id="node28" class="node">
<title>Node28</title>
<g id="a_node28"><a xlink:href="../../db/da1/classHiParnt.html#a1074072a5774a085cecf879899a44ab3" target="_top" xlink:title="HiParnt::lenHint1">
<polygon fill="none" stroke="#000000" points="236.5,-117.5 236.5,-137.5 338.5,-137.5 338.5,-117.5 236.5,-117.5"/>
<text text-anchor="middle" x="287.5" y="-124.5" font-family="FreeSans" font-size="10.00" fill="#000000">HiParnt::lenHint1</text>
</a>
</g>
</g>
<!-- Node25&#45;&gt;Node28 -->
<g id="edge31" class="edge">
<title>Node25&#45;&gt;Node28</title>
<path fill="none" stroke="#191970" d="M170.3771,-127.5C187.4816,-127.5 207.4952,-127.5 226.0903,-127.5"/>
<polygon fill="#191970" stroke="#191970" points="226.2475,-131.0001 236.2475,-127.5 226.2475,-124.0001 226.2475,-131.0001"/>
</g>
<!-- Node27 -->
<g id="node27" class="node">
<title>Node27</title>
<g id="a_node27"><a xlink:href="../../d4/d0f/HiParnt_8h.html#ae387711cf1ed2f3d5908e93a113f27e7" target="_top" xlink:title="hiparnt_address_">
<polygon fill="none" stroke="#000000" points="428.5,-66.5 428.5,-86.5 531.5,-86.5 531.5,-66.5 428.5,-66.5"/>
<text text-anchor="middle" x="480" y="-73.5" font-family="FreeSans" font-size="10.00" fill="#000000">hiparnt_address_</text>
</a>
</g>
</g>
<!-- Node26&#45;&gt;Node27 -->
<g id="edge30" class="edge">
<title>Node26&#45;&gt;Node27</title>
<path fill="none" stroke="#191970" d="M325.5318,-86.1292C351.9145,-84.4846 387.645,-82.2572 418.0964,-80.3589"/>
<polygon fill="#191970" stroke="#191970" points="418.4371,-83.8446 428.1999,-79.7291 418.0015,-76.8581 418.4371,-83.8446"/>
</g>
<!-- Node29&#45;&gt;Node26 -->
<g id="edge33" class="edge">
<title>Node29&#45;&gt;Node26</title>
<path fill="none" stroke="#191970" d="M154.4807,-156.4247C159.8441,-153.883 165.2737,-150.8948 170,-147.5 189.1589,-133.7385 185.6832,-120.4863 206,-108.5 216.0934,-102.5452 227.8902,-98.358 239.3234,-95.4154"/>
<polygon fill="#191970" stroke="#191970" points="240.2649,-98.7904 249.2253,-93.1368 238.6951,-91.9686 240.2649,-98.7904"/>
</g>
<!-- Node30 -->
<g id="node30" class="node">
<title>Node30</title>
<g id="a_node30"><a xlink:href="../../db/da1/classHiParnt.html#a976a341872dd6ef684a319c5e262be46" target="_top" xlink:title="HiParnt::lenHipr1">
<polygon fill="none" stroke="#000000" points="236.5,-156.5 236.5,-176.5 338.5,-176.5 338.5,-156.5 236.5,-156.5"/>
<text text-anchor="middle" x="287.5" y="-163.5" font-family="FreeSans" font-size="10.00" fill="#000000">HiParnt::lenHipr1</text>
</a>
</g>
</g>
<!-- Node29&#45;&gt;Node30 -->
<g id="edge34" class="edge">
<title>Node29&#45;&gt;Node30</title>
<path fill="none" stroke="#191970" d="M170.3771,-166.5C187.4816,-166.5 207.4952,-166.5 226.0903,-166.5"/>
<polygon fill="#191970" stroke="#191970" points="226.2475,-170.0001 236.2475,-166.5 226.2475,-163.0001 226.2475,-170.0001"/>
</g>
<!-- Node31&#45;&gt;Node26 -->
<g id="edge36" class="edge">
<title>Node31&#45;&gt;Node26</title>
<path fill="none" stroke="#191970" d="M170.3771,-88.5C191.6333,-88.5 217.3824,-88.5 239.3184,-88.5"/>
<polygon fill="#191970" stroke="#191970" points="239.4206,-92.0001 249.4205,-88.5 239.4205,-85.0001 239.4206,-92.0001"/>
</g>
<!-- Node32 -->
<g id="node32" class="node">
<title>Node32</title>
<g id="a_node32"><a xlink:href="../../db/da1/classHiParnt.html#a2583f210ac7e15c429d879a65e9626b2" target="_top" xlink:title="HiParnt::lenIhnt2">
<polygon fill="none" stroke="#000000" points="237,-39.5 237,-59.5 338,-59.5 338,-39.5 237,-39.5"/>
<text text-anchor="middle" x="287.5" y="-46.5" font-family="FreeSans" font-size="10.00" fill="#000000">HiParnt::lenIhnt2</text>
</a>
</g>
</g>
<!-- Node31&#45;&gt;Node32 -->
<g id="edge37" class="edge">
<title>Node31&#45;&gt;Node32</title>
<path fill="none" stroke="#191970" d="M168.704,-78.4565C189.4199,-73.407 214.7153,-67.2413 236.6321,-61.8991"/>
<polygon fill="#191970" stroke="#191970" points="237.549,-65.2781 246.4357,-59.5094 235.8912,-58.4772 237.549,-65.2781"/>
</g>
<!-- Node33&#45;&gt;Node26 -->
<g id="edge39" class="edge">
<title>Node33&#45;&gt;Node26</title>
<path fill="none" stroke="#191970" d="M166.1907,-59.5246C178.8632,-62.7633 193.0199,-66.3338 206,-69.5 216.8067,-72.136 228.4391,-74.8948 239.4368,-77.4671"/>
<polygon fill="#191970" stroke="#191970" points="238.7831,-80.9084 249.3163,-79.7681 240.371,-74.0909 238.7831,-80.9084"/>
</g>
<!-- Node34 -->
<g id="node34" class="node">
<title>Node34</title>
<g id="a_node34"><a xlink:href="../../db/da1/classHiParnt.html#aa2f216c88e3e9ec0634df4755e281c85" target="_top" xlink:title="HiParnt::lenIhpr2">
<polygon fill="none" stroke="#000000" points="237,-.5 237,-20.5 338,-20.5 338,-.5 237,-.5"/>
<text text-anchor="middle" x="287.5" y="-7.5" font-family="FreeSans" font-size="10.00" fill="#000000">HiParnt::lenIhpr2</text>
</a>
</g>
</g>
<!-- Node33&#45;&gt;Node34 -->
<g id="edge40" class="edge">
<title>Node33&#45;&gt;Node34</title>
<path fill="none" stroke="#191970" d="M166.1907,-39.4754C178.8632,-36.2367 193.0199,-32.6662 206,-29.5 214.9144,-27.3255 224.3907,-25.0676 233.6091,-22.8997"/>
<polygon fill="#191970" stroke="#191970" points="234.533,-26.2781 243.472,-20.5908 232.9375,-19.4623 234.533,-26.2781"/>
</g>
</g>
</svg>
