<?xml version="1.0" encoding="UTF-8" standalone="no"?>
<!DOCTYPE svg PUBLIC "-//W3C//DTD SVG 1.1//EN"
 "http://www.w3.org/Graphics/SVG/1.1/DTD/svg11.dtd">
<!-- Generated by graphviz version 2.40.1 (20161225.0304)
 -->
<!-- Title: analyze Pages: 1 -->
<svg width="304pt" height="314pt"
 viewBox="0.00 0.00 304.00 314.00" xmlns="http://www.w3.org/2000/svg" xmlns:xlink="http://www.w3.org/1999/xlink">
<g id="graph0" class="graph" transform="scale(1 1) rotate(0) translate(4 310)">
<title>analyze</title>
<!-- Node1 -->
<g id="node1" class="node">
<title>Node1</title>
<polygon fill="#bfbfbf" stroke="#000000" points="0,-123.5 0,-143.5 55,-143.5 55,-123.5 0,-123.5"/>
<text text-anchor="middle" x="27.5" y="-130.5" font-family="FreeSans" font-size="10.00" fill="#000000">analyze</text>
</g>
<!-- Node2 -->
<g id="node2" class="node">
<title>Node2</title>
<g id="a_node2"><a xlink:href="../../d3/d17/classhcal.html#afb7decdf1ecd7e6770e2bff66ede9c65" target="_top" xlink:title="hcal::evLoop">
<polygon fill="none" stroke="#000000" points="106.5,-246.5 106.5,-266.5 186.5,-266.5 186.5,-246.5 106.5,-246.5"/>
<text text-anchor="middle" x="146.5" y="-253.5" font-family="FreeSans" font-size="10.00" fill="#000000">hcal::evLoop</text>
</a>
</g>
</g>
<!-- Node1&#45;&gt;Node2 -->
<g id="edge1" class="edge">
<title>Node1&#45;&gt;Node2</title>
<path fill="none" stroke="#191970" d="M31.0001,-143.6842C38.6185,-164.3727 58.6608,-211.5493 91,-237.5 92.9808,-239.0895 95.1024,-240.5497 97.3185,-241.8905"/>
<polygon fill="#191970" stroke="#191970" points="95.7451,-245.0171 106.2367,-246.4926 98.9551,-238.7965 95.7451,-245.0171"/>
</g>
<!-- Node6 -->
<g id="node6" class="node">
<title>Node6</title>
<g id="a_node6"><a xlink:href="../../d3/d17/classhcal.html#a3d08370d1e6fee9bb22ab1a09b255425" target="_top" xlink:title="hcal::Save">
<polygon fill="none" stroke="#000000" points="112,-207.5 112,-227.5 181,-227.5 181,-207.5 112,-207.5"/>
<text text-anchor="middle" x="146.5" y="-214.5" font-family="FreeSans" font-size="10.00" fill="#000000">hcal::Save</text>
</a>
</g>
</g>
<!-- Node1&#45;&gt;Node6 -->
<g id="edge5" class="edge">
<title>Node1&#45;&gt;Node6</title>
<path fill="none" stroke="#191970" d="M34.981,-143.7485C45.8336,-157.9355 67.2597,-183.5016 91,-198.5 94.5839,-200.7642 98.4697,-202.7945 102.4644,-204.6069"/>
<polygon fill="#191970" stroke="#191970" points="101.3108,-207.9162 111.8922,-208.4485 103.9522,-201.4337 101.3108,-207.9162"/>
</g>
<!-- Node7 -->
<g id="node7" class="node">
<title>Node7</title>
<g id="a_node7"><a xlink:href="../../d3/d17/classhcal.html#a051eb0f26210eaffa4b98c396e8fd51b" target="_top" xlink:title="hcal::set_display">
<polygon fill="none" stroke="#000000" points="96,-168.5 96,-188.5 197,-188.5 197,-168.5 96,-168.5"/>
<text text-anchor="middle" x="146.5" y="-175.5" font-family="FreeSans" font-size="10.00" fill="#000000">hcal::set_display</text>
</a>
</g>
</g>
<!-- Node1&#45;&gt;Node7 -->
<g id="edge6" class="edge">
<title>Node1&#45;&gt;Node7</title>
<path fill="none" stroke="#191970" d="M51.1909,-143.587C63.0747,-148.5479 77.7289,-154.5164 91,-159.5 95.9385,-161.3545 101.1506,-163.2364 106.3234,-165.0587"/>
<polygon fill="#191970" stroke="#191970" points="105.5456,-168.4935 116.1404,-168.4666 107.8413,-161.8806 105.5456,-168.4935"/>
</g>
<!-- Node8 -->
<g id="node8" class="node">
<title>Node8</title>
<g id="a_node8"><a xlink:href="../../d3/d17/classhcal.html#a4cfc6ddce57210822e86db09ccfd1bcd" target="_top" xlink:title="hcal::set_positive\l_polarity">
<polygon fill="none" stroke="#000000" points="94.5,-117.5 94.5,-149.5 198.5,-149.5 198.5,-117.5 94.5,-117.5"/>
<text text-anchor="start" x="102.5" y="-136.5" font-family="FreeSans" font-size="10.00" fill="#000000">hcal::set_positive</text>
<text text-anchor="middle" x="146.5" y="-124.5" font-family="FreeSans" font-size="10.00" fill="#000000">_polarity</text>
</a>
</g>
</g>
<!-- Node1&#45;&gt;Node8 -->
<g id="edge7" class="edge">
<title>Node1&#45;&gt;Node8</title>
<path fill="none" stroke="#191970" d="M55.1001,-133.5C63.8542,-133.5 73.9163,-133.5 84.0921,-133.5"/>
<polygon fill="#191970" stroke="#191970" points="84.2616,-137.0001 94.2616,-133.5 84.2615,-130.0001 84.2616,-137.0001"/>
</g>
<!-- Node9 -->
<g id="node9" class="node">
<title>Node9</title>
<g id="a_node9"><a xlink:href="../../d3/d17/classhcal.html#ae5118e50ede4d46fe8d65325f7f032c7" target="_top" xlink:title="hcal::set_verbosity">
<polygon fill="none" stroke="#000000" points="91,-78.5 91,-98.5 202,-98.5 202,-78.5 91,-78.5"/>
<text text-anchor="middle" x="146.5" y="-85.5" font-family="FreeSans" font-size="10.00" fill="#000000">hcal::set_verbosity</text>
</a>
</g>
</g>
<!-- Node1&#45;&gt;Node9 -->
<g id="edge8" class="edge">
<title>Node1&#45;&gt;Node9</title>
<path fill="none" stroke="#191970" d="M52.4673,-123.4759C64.1415,-118.8388 78.2506,-113.3058 91,-108.5 96.6484,-106.3709 102.6377,-104.1621 108.5115,-102.0231"/>
<polygon fill="#191970" stroke="#191970" points="109.9942,-105.2088 118.2072,-98.5156 107.6129,-98.6262 109.9942,-105.2088"/>
</g>
<!-- Node10 -->
<g id="node10" class="node">
<title>Node10</title>
<g id="a_node10"><a xlink:href="../../d3/d17/classhcal.html#aac369ab5ce5da7db7ac964d5e77b6ab3" target="_top" xlink:title="hcal::SetCableMap">
<polygon fill="none" stroke="#000000" points="91,-39.5 91,-59.5 202,-59.5 202,-39.5 91,-39.5"/>
<text text-anchor="middle" x="146.5" y="-46.5" font-family="FreeSans" font-size="10.00" fill="#000000">hcal::SetCableMap</text>
</a>
</g>
</g>
<!-- Node1&#45;&gt;Node10 -->
<g id="edge9" class="edge">
<title>Node1&#45;&gt;Node10</title>
<path fill="none" stroke="#191970" d="M35.05,-123.4678C45.9847,-109.5688 67.5078,-84.4783 91,-69.5 94.3532,-67.3621 97.9659,-65.4126 101.6824,-63.6435"/>
<polygon fill="#191970" stroke="#191970" points="103.2439,-66.7819 111.0454,-59.6134 100.4763,-60.3523 103.2439,-66.7819"/>
</g>
<!-- Node11 -->
<g id="node11" class="node">
<title>Node11</title>
<g id="a_node11"><a xlink:href="../../d3/d17/classhcal.html#a0a7f7e73b006b6942f6930ab94045034" target="_top" xlink:title="hcal::setPrdf">
<polygon fill="none" stroke="#000000" points="106.5,-.5 106.5,-20.5 186.5,-20.5 186.5,-.5 106.5,-.5"/>
<text text-anchor="middle" x="146.5" y="-7.5" font-family="FreeSans" font-size="10.00" fill="#000000">hcal::setPrdf</text>
</a>
</g>
</g>
<!-- Node1&#45;&gt;Node11 -->
<g id="edge10" class="edge">
<title>Node1&#45;&gt;Node11</title>
<path fill="none" stroke="#191970" d="M31.0001,-123.3158C38.6185,-102.6273 58.6608,-55.4507 91,-29.5 92.9808,-27.9105 95.1024,-26.4503 97.3185,-25.1095"/>
<polygon fill="#191970" stroke="#191970" points="98.9551,-28.2035 106.2367,-20.5074 95.7451,-21.9829 98.9551,-28.2035"/>
</g>
<!-- Node3 -->
<g id="node3" class="node">
<title>Node3</title>
<g id="a_node3"><a xlink:href="../../d9/d03/KFParticleBaseSIMD_8h.html#a4c97ec619a52c5cf9d89748433ee16aa" target="_top" xlink:title="Initialize">
<polygon fill="none" stroke="#000000" points="238,-285.5 238,-305.5 296,-305.5 296,-285.5 238,-285.5"/>
<text text-anchor="middle" x="267" y="-292.5" font-family="FreeSans" font-size="10.00" fill="#000000">Initialize</text>
</a>
</g>
</g>
<!-- Node2&#45;&gt;Node3 -->
<g id="edge2" class="edge">
<title>Node2&#45;&gt;Node3</title>
<path fill="none" stroke="#191970" d="M177.5317,-266.5435C192.8926,-271.515 211.5968,-277.5687 227.924,-282.853"/>
<polygon fill="#191970" stroke="#191970" points="227.1399,-286.2779 237.7318,-286.0273 229.2954,-279.618 227.1399,-286.2779"/>
</g>
<!-- Node4 -->
<g id="node4" class="node">
<title>Node4</title>
<g id="a_node4"><a xlink:href="../../d9/d9e/evDisplay_8C.html#ac7bcb6cd8ca3e800a39f7f0063d61044" target="_top" xlink:title="nevents">
<polygon fill="none" stroke="#000000" points="238.5,-246.5 238.5,-266.5 295.5,-266.5 295.5,-246.5 238.5,-246.5"/>
<text text-anchor="middle" x="267" y="-253.5" font-family="FreeSans" font-size="10.00" fill="#000000">nevents</text>
</a>
</g>
</g>
<!-- Node2&#45;&gt;Node4 -->
<g id="edge3" class="edge">
<title>Node2&#45;&gt;Node4</title>
<path fill="none" stroke="#191970" d="M186.6248,-256.5C200.0223,-256.5 214.9198,-256.5 228.2136,-256.5"/>
<polygon fill="#191970" stroke="#191970" points="228.4718,-260.0001 238.4718,-256.5 228.4718,-253.0001 228.4718,-260.0001"/>
</g>
<!-- Node5 -->
<g id="node5" class="node">
<title>Node5</title>
<g id="a_node5"><a xlink:href="../../da/d55/TPCRateLayered_8m.html#ac40e4ec8f2a74a2878f06670249eebb8" target="_top" xlink:title="double">
<polygon fill="none" stroke="#000000" points="241.5,-207.5 241.5,-227.5 292.5,-227.5 292.5,-207.5 241.5,-207.5"/>
<text text-anchor="middle" x="267" y="-214.5" font-family="FreeSans" font-size="10.00" fill="#000000">double</text>
</a>
</g>
</g>
<!-- Node2&#45;&gt;Node5 -->
<g id="edge4" class="edge">
<title>Node2&#45;&gt;Node5</title>
<path fill="none" stroke="#191970" d="M177.5317,-246.4565C194.0868,-241.0985 214.5252,-234.4836 231.6862,-228.9294"/>
<polygon fill="#191970" stroke="#191970" points="232.9211,-232.2085 241.3575,-225.7992 230.7656,-225.5486 232.9211,-232.2085"/>
</g>
</g>
</svg>
