<?xml version="1.0" encoding="UTF-8" standalone="no"?>
<!DOCTYPE svg PUBLIC "-//W3C//DTD SVG 1.1//EN"
 "http://www.w3.org/Graphics/SVG/1.1/DTD/svg11.dtd">
<!-- Generated by graphviz version 2.40.1 (20161225.0304)
 -->
<!-- Title: GenFit/blob/master/utilities/include/RootEigenTransformations.h Pages: 1 -->
<svg width="166pt" height="110pt"
 viewBox="0.00 0.00 166.00 110.00" xmlns="http://www.w3.org/2000/svg" xmlns:xlink="http://www.w3.org/1999/xlink">
<g id="graph0" class="graph" transform="scale(1 1) rotate(0) translate(4 106)">
<title>GenFit/blob/master/utilities/include/RootEigenTransformations.h</title>
<!-- Node1 -->
<g id="node1" class="node">
<title>Node1</title>
<polygon fill="#bfbfbf" stroke="#000000" points="6,-57.5 6,-101.5 158,-101.5 158,-57.5 6,-57.5"/>
<text text-anchor="start" x="14" y="-88.5" font-family="FreeSans" font-size="10.00" fill="#000000">GenFit/blob/master</text>
<text text-anchor="start" x="14" y="-76.5" font-family="FreeSans" font-size="10.00" fill="#000000">/utilities/include/RootEigen</text>
<text text-anchor="middle" x="82" y="-64.5" font-family="FreeSans" font-size="10.00" fill="#000000">Transformations.h</text>
</g>
<!-- Node2 -->
<g id="node2" class="node">
<title>Node2</title>
<polygon fill="none" stroke="#bfbfbf" points="0,-.5 0,-20.5 80,-20.5 80,-.5 0,-.5"/>
<text text-anchor="middle" x="40" y="-7.5" font-family="FreeSans" font-size="10.00" fill="#000000">Eigen/Dense</text>
</g>
<!-- Node1&#45;&gt;Node2 -->
<g id="edge1" class="edge">
<title>Node1&#45;&gt;Node2</title>
<path fill="none" stroke="#191970" d="M68.4797,-57.2882C62.9853,-48.2615 56.7049,-37.9438 51.4425,-29.2984"/>
<polygon fill="#191970" stroke="#191970" points="54.4062,-27.4358 46.217,-20.7137 48.4268,-31.0755 54.4062,-27.4358"/>
</g>
<!-- Node3 -->
<g id="node3" class="node">
<title>Node3</title>
<polygon fill="none" stroke="#bfbfbf" points="98.5,-.5 98.5,-20.5 151.5,-20.5 151.5,-.5 98.5,-.5"/>
<text text-anchor="middle" x="125" y="-7.5" font-family="FreeSans" font-size="10.00" fill="#000000">cassert</text>
</g>
<!-- Node1&#45;&gt;Node3 -->
<g id="edge2" class="edge">
<title>Node1&#45;&gt;Node3</title>
<path fill="none" stroke="#191970" d="M95.8422,-57.2882C101.4675,-48.2615 107.8973,-37.9438 113.2851,-29.2984"/>
<polygon fill="#191970" stroke="#191970" points="116.3164,-31.0517 118.635,-20.7137 110.3756,-27.3494 116.3164,-31.0517"/>
</g>
</g>
</svg>
