<?xml version="1.0" encoding="UTF-8" standalone="no"?>
<!DOCTYPE svg PUBLIC "-//W3C//DTD SVG 1.1//EN"
 "http://www.w3.org/Graphics/SVG/1.1/DTD/svg11.dtd">
<!-- Generated by graphviz version 2.40.1 (20161225.0304)
 -->
<!-- Title: gbl::MilleBinary::writeRecord Pages: 1 -->
<svg width="502pt" height="41pt"
 viewBox="0.00 0.00 502.00 41.00" xmlns="http://www.w3.org/2000/svg" xmlns:xlink="http://www.w3.org/1999/xlink">
<g id="graph0" class="graph" transform="scale(1 1) rotate(0) translate(4 37)">
<title>gbl::MilleBinary::writeRecord</title>
<!-- Node1 -->
<g id="node1" class="node">
<title>Node1</title>
<polygon fill="#bfbfbf" stroke="#000000" points="0,-6.5 0,-26.5 160,-26.5 160,-6.5 0,-6.5"/>
<text text-anchor="middle" x="80" y="-13.5" font-family="FreeSans" font-size="10.00" fill="#000000">gbl::MilleBinary::writeRecord</text>
</g>
<!-- Node2 -->
<g id="node2" class="node">
<title>Node2</title>
<g id="a_node2"><a xlink:href="../../dc/d6b/classgbl_1_1GblTrajectory.html#a7a7416dc01cae317c008e8750841fc36" target="_top" xlink:title="Write valid trajectory to Millepede&#45;II binary file.">
<polygon fill="none" stroke="#000000" points="196,-.5 196,-32.5 302,-32.5 302,-.5 196,-.5"/>
<text text-anchor="start" x="204" y="-19.5" font-family="FreeSans" font-size="10.00" fill="#000000">gbl::GblTrajectory</text>
<text text-anchor="middle" x="249" y="-7.5" font-family="FreeSans" font-size="10.00" fill="#000000">::milleOut</text>
</a>
</g>
</g>
<!-- Node1&#45;&gt;Node2 -->
<g id="edge1" class="edge">
<title>Node1&#45;&gt;Node2</title>
<path fill="none" stroke="#191970" d="M170.2744,-16.5C178.9745,-16.5 187.5926,-16.5 195.7575,-16.5"/>
<polygon fill="#191970" stroke="#191970" points="170.0458,-13.0001 160.0458,-16.5 170.0457,-20.0001 170.0458,-13.0001"/>
</g>
<!-- Node3 -->
<g id="node3" class="node">
<title>Node3</title>
<g id="a_node3"><a xlink:href="../../d3/d7b/classgenfit_1_1GFGbl.html#a0fbc16a1bcfe612c536b616be8239689" target="_top" xlink:title="genfit::GFGbl::processTrack\lWithRep">
<polygon fill="none" stroke="#000000" points="338,-.5 338,-32.5 494,-32.5 494,-.5 338,-.5"/>
<text text-anchor="start" x="346" y="-19.5" font-family="FreeSans" font-size="10.00" fill="#000000">genfit::GFGbl::processTrack</text>
<text text-anchor="middle" x="416" y="-7.5" font-family="FreeSans" font-size="10.00" fill="#000000">WithRep</text>
</a>
</g>
</g>
<!-- Node2&#45;&gt;Node3 -->
<g id="edge2" class="edge">
<title>Node2&#45;&gt;Node3</title>
<path fill="none" stroke="#191970" d="M312.3412,-16.5C320.7109,-16.5 329.3681,-16.5 337.9482,-16.5"/>
<polygon fill="#191970" stroke="#191970" points="312.299,-13.0001 302.299,-16.5 312.299,-20.0001 312.299,-13.0001"/>
</g>
</g>
</svg>
