<?xml version="1.0" encoding="UTF-8" standalone="no"?>
<!DOCTYPE svg PUBLIC "-//W3C//DTD SVG 1.1//EN"
 "http://www.w3.org/Graphics/SVG/1.1/DTD/svg11.dtd">
<!-- Generated by graphviz version 2.40.1 (20161225.0304)
 -->
<!-- Title: sPHENIXSeedFinder::findTracks Pages: 1 -->
<svg width="1008pt" height="377pt"
 viewBox="0.00 0.00 1008.00 377.00" xmlns="http://www.w3.org/2000/svg" xmlns:xlink="http://www.w3.org/1999/xlink">
<g id="graph0" class="graph" transform="scale(1 1) rotate(0) translate(4 373)">
<title>sPHENIXSeedFinder::findTracks</title>
<!-- Node1 -->
<g id="node1" class="node">
<title>Node1</title>
<polygon fill="#bfbfbf" stroke="#000000" points="0,-229.5 0,-261.5 121,-261.5 121,-229.5 0,-229.5"/>
<text text-anchor="start" x="8" y="-248.5" font-family="FreeSans" font-size="10.00" fill="#000000">sPHENIXSeedFinder::</text>
<text text-anchor="middle" x="60.5" y="-236.5" font-family="FreeSans" font-size="10.00" fill="#000000">findTracks</text>
</g>
<!-- Node2 -->
<g id="node2" class="node">
<title>Node2</title>
<g id="a_node2"><a xlink:href="../../da/d18/classsPHENIXSeedFinder.html#af0162d42cf4ab7c8d8fa3ccadce98be4" target="_top" xlink:title="sPHENIXSeedFinder::\lfindTracksBySegments">
<polygon fill="none" stroke="#000000" points="157,-229.5 157,-261.5 288,-261.5 288,-229.5 157,-229.5"/>
<text text-anchor="start" x="165" y="-248.5" font-family="FreeSans" font-size="10.00" fill="#000000">sPHENIXSeedFinder::</text>
<text text-anchor="middle" x="222.5" y="-236.5" font-family="FreeSans" font-size="10.00" fill="#000000">findTracksBySegments</text>
</a>
</g>
</g>
<!-- Node1&#45;&gt;Node2 -->
<g id="edge1" class="edge">
<title>Node1&#45;&gt;Node2</title>
<path fill="none" stroke="#191970" d="M121.2837,-245.5C129.5177,-245.5 138.0494,-245.5 146.508,-245.5"/>
<polygon fill="#191970" stroke="#191970" points="146.7644,-249.0001 156.7644,-245.5 146.7644,-242.0001 146.7644,-249.0001"/>
</g>
<!-- Node3 -->
<g id="node3" class="node">
<title>Node3</title>
<g id="a_node3"><a xlink:href="../../da/d18/classsPHENIXSeedFinder.html#a2a21bc961756b2e50dd726f4b1a5c70a" target="_top" xlink:title="sPHENIXSeedFinder::\lcalculateKappaTangents">
<polygon fill="none" stroke="#000000" points="324,-336.5 324,-368.5 464,-368.5 464,-336.5 324,-336.5"/>
<text text-anchor="start" x="332" y="-355.5" font-family="FreeSans" font-size="10.00" fill="#000000">sPHENIXSeedFinder::</text>
<text text-anchor="middle" x="394" y="-343.5" font-family="FreeSans" font-size="10.00" fill="#000000">calculateKappaTangents</text>
</a>
</g>
</g>
<!-- Node2&#45;&gt;Node3 -->
<g id="edge2" class="edge">
<title>Node2&#45;&gt;Node3</title>
<path fill="none" stroke="#191970" d="M239.2348,-261.665C258.4158,-279.4907 291.4221,-308.0806 324,-326.5 327.6183,-328.5458 331.4283,-330.4869 335.3252,-332.3176"/>
<polygon fill="#191970" stroke="#191970" points="333.9651,-335.5431 344.5263,-336.3859 336.7958,-329.1409 333.9651,-335.5431"/>
</g>
<!-- Node4 -->
<g id="node4" class="node">
<title>Node4</title>
<g id="a_node4"><a xlink:href="../../d4/da9/namespaceboost.html#a630945877437d477612e4419562161cc" target="_top" xlink:title="boost::swap">
<polygon fill="none" stroke="#000000" points="355.5,-297.5 355.5,-317.5 432.5,-317.5 432.5,-297.5 355.5,-297.5"/>
<text text-anchor="middle" x="394" y="-304.5" font-family="FreeSans" font-size="10.00" fill="#000000">boost::swap</text>
</a>
</g>
</g>
<!-- Node2&#45;&gt;Node4 -->
<g id="edge3" class="edge">
<title>Node2&#45;&gt;Node4</title>
<path fill="none" stroke="#191970" d="M258.757,-261.6824C277.948,-269.9462 302.0297,-279.8438 324,-287.5 331.1368,-289.987 338.7588,-292.4034 346.25,-294.6465"/>
<polygon fill="#191970" stroke="#191970" points="345.3903,-298.0416 355.9706,-297.4867 347.3536,-291.3225 345.3903,-298.0416"/>
</g>
<!-- Node6 -->
<g id="node6" class="node">
<title>Node6</title>
<g id="a_node6"><a xlink:href="../../da/d55/TPCRateLayered_8m.html#ac40e4ec8f2a74a2878f06670249eebb8" target="_top" xlink:title="double">
<polygon fill="none" stroke="#000000" points="368.5,-258.5 368.5,-278.5 419.5,-278.5 419.5,-258.5 368.5,-258.5"/>
<text text-anchor="middle" x="394" y="-265.5" font-family="FreeSans" font-size="10.00" fill="#000000">double</text>
</a>
</g>
</g>
<!-- Node2&#45;&gt;Node6 -->
<g id="edge6" class="edge">
<title>Node2&#45;&gt;Node6</title>
<path fill="none" stroke="#191970" d="M288.3159,-254.3266C312.1259,-257.5198 338.1067,-261.0041 358.35,-263.7189"/>
<polygon fill="#191970" stroke="#191970" points="357.9945,-267.2025 368.3711,-265.0629 358.925,-260.2646 357.9945,-267.2025"/>
</g>
<!-- Node7 -->
<g id="node7" class="node">
<title>Node7</title>
<g id="a_node7"><a xlink:href="../../da/d18/classsPHENIXSeedFinder.html#a557bdc995288f1f3ba98ef574bafe5e9" target="_top" xlink:title="sPHENIXSeedFinder::\lfitTrack">
<polygon fill="none" stroke="#000000" points="333.5,-207.5 333.5,-239.5 454.5,-239.5 454.5,-207.5 333.5,-207.5"/>
<text text-anchor="start" x="341.5" y="-226.5" font-family="FreeSans" font-size="10.00" fill="#000000">sPHENIXSeedFinder::</text>
<text text-anchor="middle" x="394" y="-214.5" font-family="FreeSans" font-size="10.00" fill="#000000">fitTrack</text>
</a>
</g>
</g>
<!-- Node2&#45;&gt;Node7 -->
<g id="edge7" class="edge">
<title>Node2&#45;&gt;Node7</title>
<path fill="none" stroke="#191970" d="M288.3159,-237.0571C299.7862,-235.5857 311.7604,-234.0497 323.3541,-232.5624"/>
<polygon fill="#191970" stroke="#191970" points="323.949,-236.0149 333.4224,-231.2709 323.0583,-229.0718 323.949,-236.0149"/>
</g>
<!-- Node8 -->
<g id="node8" class="node">
<title>Node8</title>
<g id="a_node8"><a xlink:href="../../da/d18/classsPHENIXSeedFinder.html#a8634fd522bd4f2d2048a9e8467a2f8af" target="_top" xlink:title="sPHENIXSeedFinder::\lkappaToPt">
<polygon fill="none" stroke="#000000" points="333.5,-156.5 333.5,-188.5 454.5,-188.5 454.5,-156.5 333.5,-156.5"/>
<text text-anchor="start" x="341.5" y="-175.5" font-family="FreeSans" font-size="10.00" fill="#000000">sPHENIXSeedFinder::</text>
<text text-anchor="middle" x="394" y="-163.5" font-family="FreeSans" font-size="10.00" fill="#000000">kappaToPt</text>
</a>
</g>
</g>
<!-- Node2&#45;&gt;Node8 -->
<g id="edge8" class="edge">
<title>Node2&#45;&gt;Node8</title>
<path fill="none" stroke="#191970" d="M254.5899,-229.3277C274.3799,-219.6047 300.4053,-207.2645 324,-197.5 328.3895,-195.6835 332.964,-193.8724 337.5796,-192.1028"/>
<polygon fill="#191970" stroke="#191970" points="338.9344,-195.3328 347.0653,-188.5402 336.4732,-188.7797 338.9344,-195.3328"/>
</g>
<!-- Node9 -->
<g id="node9" class="node">
<title>Node9</title>
<g id="a_node9"><a xlink:href="../../d8/d85/classHelixKalman.html#a7f78a3ec79f2fe6a3a1feff6d55bb836" target="_top" xlink:title="HelixKalman::addHit">
<polygon fill="none" stroke="#000000" points="333.5,-117.5 333.5,-137.5 454.5,-137.5 454.5,-117.5 333.5,-117.5"/>
<text text-anchor="middle" x="394" y="-124.5" font-family="FreeSans" font-size="10.00" fill="#000000">HelixKalman::addHit</text>
</a>
</g>
</g>
<!-- Node2&#45;&gt;Node9 -->
<g id="edge9" class="edge">
<title>Node2&#45;&gt;Node9</title>
<path fill="none" stroke="#191970" d="M234.7235,-229.2093C252.1289,-207.164 286.1675,-168.1106 324,-146.5 327.4682,-144.5189 331.1516,-142.737 334.9437,-141.1354"/>
<polygon fill="#191970" stroke="#191970" points="336.4136,-144.3217 344.5326,-137.5149 333.9409,-137.7729 336.4136,-144.3217"/>
</g>
<!-- Node5 -->
<g id="node5" class="node">
<title>Node5</title>
<g id="a_node5"><a xlink:href="../../d1/d96/classboost_1_1array.html#a342ef866ed696b18ce803b5c9aba4b2e" target="_top" xlink:title="boost::array::swap">
<polygon fill="none" stroke="#000000" points="548.5,-297.5 548.5,-317.5 658.5,-317.5 658.5,-297.5 548.5,-297.5"/>
<text text-anchor="middle" x="603.5" y="-304.5" font-family="FreeSans" font-size="10.00" fill="#000000">boost::array::swap</text>
</a>
</g>
</g>
<!-- Node4&#45;&gt;Node5 -->
<g id="edge4" class="edge">
<title>Node4&#45;&gt;Node5</title>
<path fill="none" stroke="#191970" d="M432.9144,-302.1121C462.4243,-300.6852 503.6573,-300.3794 538.1923,-301.1947"/>
<polygon fill="#191970" stroke="#191970" points="538.1138,-304.6937 548.2059,-301.4689 538.3055,-297.6963 538.1138,-304.6937"/>
</g>
<!-- Node5&#45;&gt;Node4 -->
<g id="edge5" class="edge">
<title>Node5&#45;&gt;Node4</title>
<path fill="none" stroke="#191970" d="M548.2059,-313.5311C515.598,-314.5544 474.6917,-314.4852 443.2055,-313.3237"/>
<polygon fill="#191970" stroke="#191970" points="443.0535,-309.8142 432.9144,-312.8879 442.7573,-316.8079 443.0535,-309.8142"/>
</g>
<!-- Node10 -->
<g id="node10" class="node">
<title>Node10</title>
<g id="a_node10"><a xlink:href="../../d8/d85/classHelixKalman.html#a4270073df4ee9ffc5f0fe83a8329211e" target="_top" xlink:title="HelixKalman::calculateMeasurements">
<polygon fill="none" stroke="#000000" points="500,-234.5 500,-254.5 707,-254.5 707,-234.5 500,-234.5"/>
<text text-anchor="middle" x="603.5" y="-241.5" font-family="FreeSans" font-size="10.00" fill="#000000">HelixKalman::calculateMeasurements</text>
</a>
</g>
</g>
<!-- Node9&#45;&gt;Node10 -->
<g id="edge10" class="edge">
<title>Node9&#45;&gt;Node10</title>
<path fill="none" stroke="#191970" d="M449.8012,-137.6505C454.9235,-140.0148 459.7684,-142.9233 464,-146.5 493.1601,-171.1468 469.9463,-200.9511 500,-224.5 502.4771,-226.4409 505.0884,-228.2114 507.8046,-229.8255"/>
<polygon fill="#191970" stroke="#191970" points="506.309,-232.9921 516.8009,-234.4656 509.5178,-226.7709 506.309,-232.9921"/>
</g>
<!-- Node11 -->
<g id="node11" class="node">
<title>Node11</title>
<g id="a_node11"><a xlink:href="../../d8/d85/classHelixKalman.html#a55adf1f408113d0e3994b07e7d629c6b" target="_top" xlink:title="HelixKalman::calculateMSCovariance">
<polygon fill="none" stroke="#000000" points="501.5,-195.5 501.5,-215.5 705.5,-215.5 705.5,-195.5 501.5,-195.5"/>
<text text-anchor="middle" x="603.5" y="-202.5" font-family="FreeSans" font-size="10.00" fill="#000000">HelixKalman::calculateMSCovariance</text>
</a>
</g>
</g>
<!-- Node9&#45;&gt;Node11 -->
<g id="edge11" class="edge">
<title>Node9&#45;&gt;Node11</title>
<path fill="none" stroke="#191970" d="M443.4155,-137.6067C450.5519,-140.0001 457.6291,-142.9285 464,-146.5 483.1971,-157.2618 480.6539,-170.0084 500,-180.5 509.1126,-185.4418 519.1993,-189.4182 529.3961,-192.615"/>
<polygon fill="#191970" stroke="#191970" points="528.5991,-196.028 539.178,-195.4472 530.5459,-189.3041 528.5991,-196.028"/>
</g>
<!-- Node18 -->
<g id="node18" class="node">
<title>Node18</title>
<g id="a_node18"><a xlink:href="../../d9/d03/KFParticleBaseSIMD_8h.html#a4cd33935de91662c0644140e301499e5" target="_top" xlink:title="Returns charge of the particle.">
<polygon fill="none" stroke="#000000" points="820.5,-105.5 820.5,-125.5 849.5,-125.5 849.5,-105.5 820.5,-105.5"/>
<text text-anchor="middle" x="835" y="-112.5" font-family="FreeSans" font-size="10.00" fill="#000000">Q</text>
</a>
</g>
</g>
<!-- Node9&#45;&gt;Node18 -->
<g id="edge21" class="edge">
<title>Node9&#45;&gt;Node18</title>
<path fill="none" stroke="#191970" d="M439.6753,-137.5164C458.2867,-141.1183 480.0738,-144.7283 500,-146.5 591.6385,-154.648 616.188,-161.2368 707,-146.5 723.6477,-143.7984 726.7132,-138.8799 743,-134.5 765.5135,-128.4457 791.5693,-123.2286 810.1921,-119.8014"/>
<polygon fill="#191970" stroke="#191970" points="810.9931,-123.2136 820.2151,-117.9976 809.7532,-116.3243 810.9931,-123.2136"/>
</g>
<!-- Node19 -->
<g id="node19" class="node">
<title>Node19</title>
<g id="a_node19"><a xlink:href="../../d8/d85/classHelixKalman.html#a0f3fb5cf1e01e1043cea2936f7a89101" target="_top" xlink:title="HelixKalman::calculateProjections">
<polygon fill="none" stroke="#000000" points="509.5,-117.5 509.5,-137.5 697.5,-137.5 697.5,-117.5 509.5,-117.5"/>
<text text-anchor="middle" x="603.5" y="-124.5" font-family="FreeSans" font-size="10.00" fill="#000000">HelixKalman::calculateProjections</text>
</a>
</g>
</g>
<!-- Node9&#45;&gt;Node19 -->
<g id="edge19" class="edge">
<title>Node9&#45;&gt;Node19</title>
<path fill="none" stroke="#191970" d="M454.5961,-127.5C468.6728,-127.5 484.0516,-127.5 499.4115,-127.5"/>
<polygon fill="#191970" stroke="#191970" points="499.4886,-131.0001 509.4886,-127.5 499.4885,-124.0001 499.4886,-131.0001"/>
</g>
<!-- Node20 -->
<g id="node20" class="node">
<title>Node20</title>
<g id="a_node20"><a xlink:href="../../da/d87/classSimpleHit3D.html#aee4615586ba114d652ae2f53a329af8b" target="_top" xlink:title="SimpleHit3D::get_layer">
<polygon fill="none" stroke="#000000" points="536.5,-78.5 536.5,-98.5 670.5,-98.5 670.5,-78.5 536.5,-78.5"/>
<text text-anchor="middle" x="603.5" y="-85.5" font-family="FreeSans" font-size="10.00" fill="#000000">SimpleHit3D::get_layer</text>
</a>
</g>
</g>
<!-- Node9&#45;&gt;Node20 -->
<g id="edge20" class="edge">
<title>Node9&#45;&gt;Node20</title>
<path fill="none" stroke="#191970" d="M446.8292,-117.4791C463.8047,-114.2734 482.6934,-110.7212 500,-107.5 512.4714,-105.1788 525.7919,-102.7189 538.5834,-100.3664"/>
<polygon fill="#191970" stroke="#191970" points="539.4992,-103.7568 548.7021,-98.5074 538.2343,-96.872 539.4992,-103.7568"/>
</g>
<!-- Node21 -->
<g id="node21" class="node">
<title>Node21</title>
<g id="a_node21"><a xlink:href="../../d8/d85/classHelixKalman.html#aa781eb12456b35ba08e8cdc4b4001377" target="_top" xlink:title="HelixKalman::subtractProjections">
<polygon fill="none" stroke="#000000" points="511.5,-39.5 511.5,-59.5 695.5,-59.5 695.5,-39.5 511.5,-39.5"/>
<text text-anchor="middle" x="603.5" y="-46.5" font-family="FreeSans" font-size="10.00" fill="#000000">HelixKalman::subtractProjections</text>
</a>
</g>
</g>
<!-- Node9&#45;&gt;Node21 -->
<g id="edge22" class="edge">
<title>Node9&#45;&gt;Node21</title>
<path fill="none" stroke="#191970" d="M408.3641,-117.4859C428.0939,-104.2159 465.1127,-81.0267 500,-68.5 506.9939,-65.9888 514.3782,-63.7959 521.8523,-61.8835"/>
<polygon fill="#191970" stroke="#191970" points="522.7923,-65.2575 531.7043,-59.5281 521.1645,-58.4494 522.7923,-65.2575"/>
</g>
<!-- Node22 -->
<g id="node22" class="node">
<title>Node22</title>
<g id="a_node22"><a xlink:href="../../d8/d85/classHelixKalman.html#ad161a0f331648bc2dc95aa1f780692c1" target="_top" xlink:title="HelixKalman::updateIntersection">
<polygon fill="none" stroke="#000000" points="512.5,-.5 512.5,-20.5 694.5,-20.5 694.5,-.5 512.5,-.5"/>
<text text-anchor="middle" x="603.5" y="-7.5" font-family="FreeSans" font-size="10.00" fill="#000000">HelixKalman::updateIntersection</text>
</a>
</g>
</g>
<!-- Node9&#45;&gt;Node22 -->
<g id="edge23" class="edge">
<title>Node9&#45;&gt;Node22</title>
<path fill="none" stroke="#191970" d="M401.4991,-117.4955C417.2718,-97.2482 456.0684,-51.4785 500,-29.5 504.3169,-27.3403 508.8453,-25.424 513.4954,-23.7239"/>
<polygon fill="#191970" stroke="#191970" points="514.7821,-26.985 523.1827,-20.5291 512.5896,-20.3372 514.7821,-26.985"/>
</g>
<!-- Node12 -->
<g id="node12" class="node">
<title>Node12</title>
<g id="a_node12"><a xlink:href="../../d8/d85/classHelixKalman.html#a52cca2345c3380fc8343f006390f5c1d" target="_top" xlink:title="HelixKalman::calculate\l_dAdAp">
<polygon fill="none" stroke="#000000" points="769,-324.5 769,-356.5 901,-356.5 901,-324.5 769,-324.5"/>
<text text-anchor="start" x="777" y="-343.5" font-family="FreeSans" font-size="10.00" fill="#000000">HelixKalman::calculate</text>
<text text-anchor="middle" x="835" y="-331.5" font-family="FreeSans" font-size="10.00" fill="#000000">_dAdAp</text>
</a>
</g>
</g>
<!-- Node11&#45;&gt;Node12 -->
<g id="edge12" class="edge">
<title>Node11&#45;&gt;Node12</title>
<path fill="none" stroke="#191970" d="M693.1529,-215.662C698.0903,-218.1099 702.7588,-221.0286 707,-224.5 740.3379,-251.7871 710.9791,-285.6787 743,-314.5 747.8575,-318.8722 753.3972,-322.5144 759.2944,-325.5479"/>
<polygon fill="#191970" stroke="#191970" points="758.2535,-328.9176 768.8089,-329.8312 761.127,-322.5346 758.2535,-328.9176"/>
</g>
<!-- Node14 -->
<g id="node14" class="node">
<title>Node14</title>
<g id="a_node14"><a xlink:href="../../d8/d85/classHelixKalman.html#ad45962489041411c135777aed0b44552" target="_top" xlink:title="HelixKalman::calculate\l_dApdp">
<polygon fill="none" stroke="#000000" points="769,-273.5 769,-305.5 901,-305.5 901,-273.5 769,-273.5"/>
<text text-anchor="start" x="777" y="-292.5" font-family="FreeSans" font-size="10.00" fill="#000000">HelixKalman::calculate</text>
<text text-anchor="middle" x="835" y="-280.5" font-family="FreeSans" font-size="10.00" fill="#000000">_dApdp</text>
</a>
</g>
</g>
<!-- Node11&#45;&gt;Node14 -->
<g id="edge14" class="edge">
<title>Node11&#45;&gt;Node14</title>
<path fill="none" stroke="#191970" d="M686.0031,-215.5472C693.325,-217.9426 700.4391,-220.8862 707,-224.5 727.662,-235.8809 722.8947,-251.1622 743,-263.5 748.0751,-266.6144 753.5345,-269.3664 759.1708,-271.7966"/>
<polygon fill="#191970" stroke="#191970" points="758.2,-275.1761 768.7867,-275.5897 760.7686,-268.6644 758.2,-275.1761"/>
</g>
<!-- Node15 -->
<g id="node15" class="node">
<title>Node15</title>
<g id="a_node15"><a xlink:href="../../d8/d85/classHelixKalman.html#aef12e80004e0637454bf1fa4b3534233" target="_top" xlink:title="HelixKalman::calculate_dbdt">
<polygon fill="none" stroke="#000000" points="754.5,-234.5 754.5,-254.5 915.5,-254.5 915.5,-234.5 754.5,-234.5"/>
<text text-anchor="middle" x="835" y="-241.5" font-family="FreeSans" font-size="10.00" fill="#000000">HelixKalman::calculate_dbdt</text>
</a>
</g>
</g>
<!-- Node11&#45;&gt;Node15 -->
<g id="edge15" class="edge">
<title>Node11&#45;&gt;Node15</title>
<path fill="none" stroke="#191970" d="M663.117,-215.5435C694.4405,-220.8204 733.0003,-227.3165 765.6549,-232.8177"/>
<polygon fill="#191970" stroke="#191970" points="765.1425,-236.2806 775.585,-234.4906 766.3054,-229.3779 765.1425,-236.2806"/>
</g>
<!-- Node16 -->
<g id="node16" class="node">
<title>Node16</title>
<g id="a_node16"><a xlink:href="../../d8/d85/classHelixKalman.html#a49443f60ba396d2948ae2bde46dea8a7" target="_top" xlink:title="HelixKalman::calculate_dpdb">
<polygon fill="none" stroke="#000000" points="753,-195.5 753,-215.5 917,-215.5 917,-195.5 753,-195.5"/>
<text text-anchor="middle" x="835" y="-202.5" font-family="FreeSans" font-size="10.00" fill="#000000">HelixKalman::calculate_dpdb</text>
</a>
</g>
</g>
<!-- Node11&#45;&gt;Node16 -->
<g id="edge16" class="edge">
<title>Node11&#45;&gt;Node16</title>
<path fill="none" stroke="#191970" d="M705.7131,-205.5C718.0148,-205.5 730.5233,-205.5 742.6725,-205.5"/>
<polygon fill="#191970" stroke="#191970" points="742.7809,-209.0001 752.7809,-205.5 742.7809,-202.0001 742.7809,-209.0001"/>
</g>
<!-- Node17 -->
<g id="node17" class="node">
<title>Node17</title>
<g id="a_node17"><a xlink:href="../../d8/d85/classHelixKalman.html#af9357af5c3c7c3ab96aa5031d843b505" target="_top" xlink:title="HelixKalman::calculateScattering\lVariance">
<polygon fill="none" stroke="#000000" points="743,-144.5 743,-176.5 927,-176.5 927,-144.5 743,-144.5"/>
<text text-anchor="start" x="751" y="-163.5" font-family="FreeSans" font-size="10.00" fill="#000000">HelixKalman::calculateScattering</text>
<text text-anchor="middle" x="835" y="-151.5" font-family="FreeSans" font-size="10.00" fill="#000000">Variance</text>
</a>
</g>
</g>
<!-- Node11&#45;&gt;Node17 -->
<g id="edge17" class="edge">
<title>Node11&#45;&gt;Node17</title>
<path fill="none" stroke="#191970" d="M655.165,-195.4571C680.9057,-190.4535 712.8207,-184.2497 742.5874,-178.4636"/>
<polygon fill="#191970" stroke="#191970" points="743.4394,-181.8635 752.5878,-176.5196 742.1037,-174.9922 743.4394,-181.8635"/>
</g>
<!-- Node11&#45;&gt;Node18 -->
<g id="edge18" class="edge">
<title>Node11&#45;&gt;Node18</title>
<path fill="none" stroke="#191970" d="M673.2268,-195.4584C685.0716,-191.8893 696.8185,-187.053 707,-180.5 728.8303,-166.4496 720.9385,-148.1845 743,-134.5 763.3697,-121.8649 790.674,-117.4752 810.2366,-116.028"/>
<polygon fill="#191970" stroke="#191970" points="810.6813,-119.5094 820.4817,-115.4843 810.3103,-112.5192 810.6813,-119.5094"/>
</g>
<!-- Node13 -->
<g id="node13" class="node">
<title>Node13</title>
<g id="a_node13"><a xlink:href="../../dc/d08/HelixKalman_8cpp.html#ab74daa0c9784c63e060bfb98cc06fbf5" target="_top" xlink:title="sign">
<polygon fill="none" stroke="#000000" points="963,-330.5 963,-350.5 1000,-350.5 1000,-330.5 963,-330.5"/>
<text text-anchor="middle" x="981.5" y="-337.5" font-family="FreeSans" font-size="10.00" fill="#000000">sign</text>
</a>
</g>
</g>
<!-- Node12&#45;&gt;Node13 -->
<g id="edge13" class="edge">
<title>Node12&#45;&gt;Node13</title>
<path fill="none" stroke="#191970" d="M901.3918,-340.5C919.2492,-340.5 937.655,-340.5 952.314,-340.5"/>
<polygon fill="#191970" stroke="#191970" points="952.7223,-344.0001 962.7223,-340.5 952.7223,-337.0001 952.7223,-344.0001"/>
</g>
</g>
</svg>
