<?xml version="1.0" encoding="UTF-8" standalone="no"?>
<!DOCTYPE svg PUBLIC "-//W3C//DTD SVG 1.1//EN"
 "http://www.w3.org/Graphics/SVG/1.1/DTD/svg11.dtd">
<!-- Generated by graphviz version 2.40.1 (20161225.0304)
 -->
<!-- Title: genfit::Field Pages: 1 -->
<svg width="180pt" height="98pt"
 viewBox="0.00 0.00 180.00 98.00" xmlns="http://www.w3.org/2000/svg" xmlns:xlink="http://www.w3.org/1999/xlink">
<g id="graph0" class="graph" transform="scale(1 1) rotate(0) translate(4 94)">
<title>genfit::Field</title>
<!-- Node1 -->
<g id="node1" class="node">
<title>Node1</title>
<polygon fill="#bfbfbf" stroke="#000000" points="60,-.5 60,-20.5 135,-20.5 135,-.5 60,-.5"/>
<text text-anchor="middle" x="97.5" y="-7.5" font-family="FreeSans" font-size="10.00" fill="#000000">genfit::Field</text>
</g>
<!-- Node2 -->
<g id="node2" class="node">
<title>Node2</title>
<g id="a_node2"><a xlink:href="../../d0/dac/classgenfit_1_1AbsBField.html" target="_top" xlink:title="Abstract Interface to magnetic fields in GENFIT.">
<polygon fill="none" stroke="#000000" points="0,-69.5 0,-89.5 101,-89.5 101,-69.5 0,-69.5"/>
<text text-anchor="middle" x="50.5" y="-76.5" font-family="FreeSans" font-size="10.00" fill="#000000">genfit::AbsBField</text>
</a>
</g>
</g>
<!-- Node2&#45;&gt;Node1 -->
<g id="edge1" class="edge">
<title>Node2&#45;&gt;Node1</title>
<path fill="none" stroke="#191970" d="M63.2818,-60.7352C72.059,-47.8495 83.375,-31.2368 90.5365,-20.723"/>
<polygon fill="#191970" stroke="#191970" points="60.172,-59.0836 57.435,-69.3188 65.9574,-63.0244 60.172,-59.0836"/>
</g>
<!-- Node3 -->
<g id="node3" class="node">
<title>Node3</title>
<g id="a_node3"><a xlink:href="../../da/ddc/classPHField.html" target="_top" xlink:title="transient object for field storage and access">
<polygon fill="none" stroke="#000000" points="119,-69.5 119,-89.5 172,-89.5 172,-69.5 119,-69.5"/>
<text text-anchor="middle" x="145.5" y="-76.5" font-family="FreeSans" font-size="10.00" fill="#000000">PHField</text>
</a>
</g>
</g>
<!-- Node3&#45;&gt;Node1 -->
<g id="edge2" class="edge">
<title>Node3&#45;&gt;Node1</title>
<path fill="none" stroke="#9a32cd" stroke-dasharray="5,2" d="M132.7066,-61.1095C123.7071,-48.1726 111.9966,-31.3388 104.6116,-20.723"/>
<polygon fill="#9a32cd" stroke="#9a32cd" points="129.8336,-63.1085 138.4174,-69.3188 135.5799,-59.111 129.8336,-63.1085"/>
<text text-anchor="middle" x="139.5" y="-42" font-family="FreeSans" font-size="10.00" fill="#000000"> field_</text>
</g>
</g>
</svg>
