<?xml version="1.0" encoding="UTF-8" standalone="no"?>
<!DOCTYPE svg PUBLIC "-//W3C//DTD SVG 1.1//EN"
 "http://www.w3.org/Graphics/SVG/1.1/DTD/svg11.dtd">
<!-- Generated by graphviz version 2.40.1 (20161225.0304)
 -->
<!-- Title: GenFit/blob/master/measurements/include/WireMeasurement.h Pages: 1 -->
<svg width="849pt" height="215pt"
 viewBox="0.00 0.00 849.00 215.00" xmlns="http://www.w3.org/2000/svg" xmlns:xlink="http://www.w3.org/1999/xlink">
<g id="graph0" class="graph" transform="scale(1 1) rotate(0) translate(4 211)">
<title>GenFit/blob/master/measurements/include/WireMeasurement.h</title>
<!-- Node1 -->
<g id="node1" class="node">
<title>Node1</title>
<polygon fill="#bfbfbf" stroke="#000000" points="424.5,-162.5 424.5,-206.5 560.5,-206.5 560.5,-162.5 424.5,-162.5"/>
<text text-anchor="start" x="432.5" y="-193.5" font-family="FreeSans" font-size="10.00" fill="#000000">GenFit/blob/master</text>
<text text-anchor="start" x="432.5" y="-181.5" font-family="FreeSans" font-size="10.00" fill="#000000">/measurements/include</text>
<text text-anchor="middle" x="492.5" y="-169.5" font-family="FreeSans" font-size="10.00" fill="#000000">/WireMeasurement.h</text>
</g>
<!-- Node2 -->
<g id="node2" class="node">
<title>Node2</title>
<g id="a_node2"><a xlink:href="../../d0/d12/EventDisplay_8cc.html" target="_top" xlink:title="GenFit/blob/master\l/eventDisplay/src/EventDisplay.cc">
<polygon fill="none" stroke="#000000" points="0,-6.5 0,-38.5 187,-38.5 187,-6.5 0,-6.5"/>
<text text-anchor="start" x="8" y="-25.5" font-family="FreeSans" font-size="10.00" fill="#000000">GenFit/blob/master</text>
<text text-anchor="middle" x="93.5" y="-13.5" font-family="FreeSans" font-size="10.00" fill="#000000">/eventDisplay/src/EventDisplay.cc</text>
</a>
</g>
</g>
<!-- Node1&#45;&gt;Node2 -->
<g id="edge1" class="edge">
<title>Node1&#45;&gt;Node2</title>
<path fill="none" stroke="#191970" d="M414.4216,-161.9236C381.9335,-151.8817 344.0451,-139.3215 310.5,-126 242.2253,-98.8867 165.2619,-60.1343 123.8272,-38.5618"/>
<polygon fill="#191970" stroke="#191970" points="413.7333,-165.3732 424.32,-164.9572 415.7845,-158.6805 413.7333,-165.3732"/>
</g>
<!-- Node3 -->
<g id="node3" class="node">
<title>Node3</title>
<g id="a_node3"><a xlink:href="../../d8/dfe/WirePointMeasurement_8h.html" target="_top" xlink:title="GenFit/blob/master\l/measurements/include\l/WirePointMeasurement.h">
<polygon fill="none" stroke="#000000" points="368,-81.5 368,-125.5 515,-125.5 515,-81.5 368,-81.5"/>
<text text-anchor="start" x="376" y="-112.5" font-family="FreeSans" font-size="10.00" fill="#000000">GenFit/blob/master</text>
<text text-anchor="start" x="376" y="-100.5" font-family="FreeSans" font-size="10.00" fill="#000000">/measurements/include</text>
<text text-anchor="middle" x="441.5" y="-88.5" font-family="FreeSans" font-size="10.00" fill="#000000">/WirePointMeasurement.h</text>
</a>
</g>
</g>
<!-- Node1&#45;&gt;Node3 -->
<g id="edge2" class="edge">
<title>Node1&#45;&gt;Node3</title>
<path fill="none" stroke="#191970" d="M473.1056,-153.6971C467.2187,-144.3474 460.8706,-134.2651 455.4191,-125.6068"/>
<polygon fill="#191970" stroke="#191970" points="470.274,-155.7689 478.564,-162.3664 476.1977,-152.0392 470.274,-155.7689"/>
</g>
<!-- Node5 -->
<g id="node5" class="node">
<title>Node5</title>
<g id="a_node5"><a xlink:href="../../d0/d48/GenFit_2blob_2master_2test_2fitterTests_2main_8cc.html" target="_top" xlink:title="GenFit/blob/master\l/test/fitterTests/main.cc">
<polygon fill="none" stroke="#000000" points="205,-6.5 205,-38.5 340,-38.5 340,-6.5 205,-6.5"/>
<text text-anchor="start" x="213" y="-25.5" font-family="FreeSans" font-size="10.00" fill="#000000">GenFit/blob/master</text>
<text text-anchor="middle" x="272.5" y="-13.5" font-family="FreeSans" font-size="10.00" fill="#000000">/test/fitterTests/main.cc</text>
</a>
</g>
</g>
<!-- Node1&#45;&gt;Node5 -->
<g id="edge9" class="edge">
<title>Node1&#45;&gt;Node5</title>
<path fill="none" stroke="#191970" d="M425.2654,-158.5104C397.9295,-147.2568 370.0714,-134.6976 358.5,-126 325.2584,-101.014 296.6659,-60.7361 282.3283,-38.5113"/>
<polygon fill="#191970" stroke="#191970" points="424.3036,-161.8978 434.8851,-162.428 426.9438,-155.4148 424.3036,-161.8978"/>
</g>
<!-- Node6 -->
<g id="node6" class="node">
<title>Node6</title>
<g id="a_node6"><a xlink:href="../../d9/d33/GenFit_2blob_2master_2test_2unitTests_2main_8cc.html" target="_top" xlink:title="GenFit/blob/master\l/test/unitTests/main.cc">
<polygon fill="none" stroke="#000000" points="543,-6.5 543,-38.5 674,-38.5 674,-6.5 543,-6.5"/>
<text text-anchor="start" x="551" y="-25.5" font-family="FreeSans" font-size="10.00" fill="#000000">GenFit/blob/master</text>
<text text-anchor="middle" x="608.5" y="-13.5" font-family="FreeSans" font-size="10.00" fill="#000000">/test/unitTests/main.cc</text>
</a>
</g>
</g>
<!-- Node1&#45;&gt;Node6 -->
<g id="edge10" class="edge">
<title>Node1&#45;&gt;Node6</title>
<path fill="none" stroke="#191970" d="M514.2935,-154.0643C538.8322,-119.7947 577.7805,-65.4014 596.9993,-38.5614"/>
<polygon fill="#191970" stroke="#191970" points="511.3623,-152.146 508.3861,-162.3143 517.0537,-156.2214 511.3623,-152.146"/>
</g>
<!-- Node7 -->
<g id="node7" class="node">
<title>Node7</title>
<g id="a_node7"><a xlink:href="../../da/dc3/MeasurementCreator_8cc.html" target="_top" xlink:title="GenFit/blob/master\l/utilities/src/Measurement\lCreator.cc">
<polygon fill="none" stroke="#000000" points="692,-.5 692,-44.5 841,-44.5 841,-.5 692,-.5"/>
<text text-anchor="start" x="700" y="-31.5" font-family="FreeSans" font-size="10.00" fill="#000000">GenFit/blob/master</text>
<text text-anchor="start" x="700" y="-19.5" font-family="FreeSans" font-size="10.00" fill="#000000">/utilities/src/Measurement</text>
<text text-anchor="middle" x="766.5" y="-7.5" font-family="FreeSans" font-size="10.00" fill="#000000">Creator.cc</text>
</a>
</g>
</g>
<!-- Node1&#45;&gt;Node7 -->
<g id="edge11" class="edge">
<title>Node1&#45;&gt;Node7</title>
<path fill="none" stroke="#191970" d="M529.8932,-155.955C541.0947,-146.8139 553.1452,-136.3654 563.5,-126 581.7993,-107.6819 579.2882,-95.8486 600.5,-81 616.0204,-70.1355 655.4521,-56.0708 691.9898,-44.4551"/>
<polygon fill="#191970" stroke="#191970" points="527.5255,-153.3676 521.9233,-162.3602 531.9106,-158.8239 527.5255,-153.3676"/>
</g>
<!-- Node8 -->
<g id="node8" class="node">
<title>Node8</title>
<g id="a_node8"><a xlink:href="../../d8/d34/WireMeasurement_8cc.html" target="_top" xlink:title="GenFit/blob/master\l/measurements/src/WireMeasurement.cc">
<polygon fill="none" stroke="#000000" points="609.5,-87.5 609.5,-119.5 833.5,-119.5 833.5,-87.5 609.5,-87.5"/>
<text text-anchor="start" x="617.5" y="-106.5" font-family="FreeSans" font-size="10.00" fill="#000000">GenFit/blob/master</text>
<text text-anchor="middle" x="721.5" y="-94.5" font-family="FreeSans" font-size="10.00" fill="#000000">/measurements/src/WireMeasurement.cc</text>
</a>
</g>
</g>
<!-- Node1&#45;&gt;Node8 -->
<g id="edge8" class="edge">
<title>Node1&#45;&gt;Node8</title>
<path fill="none" stroke="#191970" d="M564.3795,-159.0754C600.8641,-146.1704 644.0832,-130.8832 675.9494,-119.6118"/>
<polygon fill="#191970" stroke="#191970" points="563.0332,-155.839 554.7728,-162.4734 565.3676,-162.4383 563.0332,-155.839"/>
</g>
<!-- Node3&#45;&gt;Node2 -->
<g id="edge3" class="edge">
<title>Node3&#45;&gt;Node2</title>
<path fill="none" stroke="#191970" d="M357.9045,-84.0424C298.1218,-70.1275 218.6255,-51.624 162.4615,-38.5514"/>
<polygon fill="#191970" stroke="#191970" points="357.165,-87.4638 367.6982,-86.322 358.752,-80.646 357.165,-87.4638"/>
</g>
<!-- Node4 -->
<g id="node4" class="node">
<title>Node4</title>
<g id="a_node4"><a xlink:href="../../d9/d7f/WirePointMeasurement_8cc.html" target="_top" xlink:title="GenFit/blob/master\l/measurements/src/WirePoint\lMeasurement.cc">
<polygon fill="none" stroke="#000000" points="358.5,-.5 358.5,-44.5 524.5,-44.5 524.5,-.5 358.5,-.5"/>
<text text-anchor="start" x="366.5" y="-31.5" font-family="FreeSans" font-size="10.00" fill="#000000">GenFit/blob/master</text>
<text text-anchor="start" x="366.5" y="-19.5" font-family="FreeSans" font-size="10.00" fill="#000000">/measurements/src/WirePoint</text>
<text text-anchor="middle" x="441.5" y="-7.5" font-family="FreeSans" font-size="10.00" fill="#000000">Measurement.cc</text>
</a>
</g>
</g>
<!-- Node3&#45;&gt;Node4 -->
<g id="edge4" class="edge">
<title>Node3&#45;&gt;Node4</title>
<path fill="none" stroke="#191970" d="M441.5,-71.2457C441.5,-62.3118 441.5,-52.8188 441.5,-44.6068"/>
<polygon fill="#191970" stroke="#191970" points="438.0001,-71.3664 441.5,-81.3664 445.0001,-71.3664 438.0001,-71.3664"/>
</g>
<!-- Node3&#45;&gt;Node5 -->
<g id="edge5" class="edge">
<title>Node3&#45;&gt;Node5</title>
<path fill="none" stroke="#191970" d="M386.1618,-76.9769C359.7002,-64.2942 328.89,-49.5271 306.0278,-38.5696"/>
<polygon fill="#191970" stroke="#191970" points="384.7895,-80.2004 395.32,-81.3664 387.815,-73.888 384.7895,-80.2004"/>
</g>
<!-- Node3&#45;&gt;Node6 -->
<g id="edge6" class="edge">
<title>Node3&#45;&gt;Node6</title>
<path fill="none" stroke="#191970" d="M496.1833,-76.9769C522.3317,-64.2942 552.7774,-49.5271 575.3689,-38.5696"/>
<polygon fill="#191970" stroke="#191970" points="494.6036,-73.8532 487.1335,-81.3664 497.6584,-80.1514 494.6036,-73.8532"/>
</g>
<!-- Node3&#45;&gt;Node7 -->
<g id="edge7" class="edge">
<title>Node3&#45;&gt;Node7</title>
<path fill="none" stroke="#191970" d="M525.0035,-83.9129C571.7025,-72.8088 630.9244,-58.4782 683.5,-45 686.2478,-44.2956 689.0449,-43.5718 691.8689,-42.8354"/>
<polygon fill="#191970" stroke="#191970" points="524.1565,-80.5167 515.2354,-86.232 525.7735,-87.3274 524.1565,-80.5167"/>
</g>
</g>
</svg>
