<?xml version="1.0" encoding="UTF-8" standalone="no"?>
<!DOCTYPE svg PUBLIC "-//W3C//DTD SVG 1.1//EN"
 "http://www.w3.org/Graphics/SVG/1.1/DTD/svg11.dtd">
<!-- Generated by graphviz version 2.40.1 (20161225.0304)
 -->
<!-- Title: PHG4ParticleGeneratorVectorMeson::process_event Pages: 1 -->
<svg width="959pt" height="956pt"
 viewBox="0.00 0.00 959.00 956.00" xmlns="http://www.w3.org/2000/svg" xmlns:xlink="http://www.w3.org/1999/xlink">
<g id="graph0" class="graph" transform="scale(1 1) rotate(0) translate(4 952)">
<title>PHG4ParticleGeneratorVectorMeson::process_event</title>
<!-- Node1 -->
<g id="node1" class="node">
<title>Node1</title>
<polygon fill="#bfbfbf" stroke="#000000" points="0,-399.5 0,-431.5 165,-431.5 165,-399.5 0,-399.5"/>
<text text-anchor="start" x="8" y="-418.5" font-family="FreeSans" font-size="10.00" fill="#000000">PHG4ParticleGeneratorVector</text>
<text text-anchor="middle" x="82.5" y="-406.5" font-family="FreeSans" font-size="10.00" fill="#000000">Meson::process_event</text>
</g>
<!-- Node2 -->
<g id="node2" class="node">
<title>Node2</title>
<g id="a_node2"><a xlink:href="../../db/d62/classPHG4InEvent.html#ad2c9552e01280a46e3e6fca2ec45b8ed" target="_top" xlink:title="PHG4InEvent::AddEmbedded\lParticle">
<polygon fill="none" stroke="#000000" points="402,-915.5 402,-947.5 565,-947.5 565,-915.5 402,-915.5"/>
<text text-anchor="start" x="410" y="-934.5" font-family="FreeSans" font-size="10.00" fill="#000000">PHG4InEvent::AddEmbedded</text>
<text text-anchor="middle" x="483.5" y="-922.5" font-family="FreeSans" font-size="10.00" fill="#000000">Particle</text>
</a>
</g>
</g>
<!-- Node1&#45;&gt;Node2 -->
<g id="edge1" class="edge">
<title>Node1&#45;&gt;Node2</title>
<path fill="none" stroke="#191970" d="M84.3538,-431.9126C93.1418,-506.7602 133.0335,-814.8205 201,-878.5 251.5346,-925.8472 330.296,-937.4362 391.8314,-938.1219"/>
<polygon fill="#191970" stroke="#191970" points="391.9343,-941.6219 401.9404,-938.1393 391.9465,-934.6219 391.9343,-941.6219"/>
</g>
<!-- Node3 -->
<g id="node3" class="node">
<title>Node3</title>
<g id="a_node3"><a xlink:href="../../db/d62/classPHG4InEvent.html#a1ce8225b21358e01f87adfd4b5d46d4b" target="_top" xlink:title="PHG4InEvent::AddParticle">
<polygon fill="none" stroke="#000000" points="210.5,-483.5 210.5,-503.5 356.5,-503.5 356.5,-483.5 210.5,-483.5"/>
<text text-anchor="middle" x="283.5" y="-490.5" font-family="FreeSans" font-size="10.00" fill="#000000">PHG4InEvent::AddParticle</text>
</a>
</g>
</g>
<!-- Node1&#45;&gt;Node3 -->
<g id="edge2" class="edge">
<title>Node1&#45;&gt;Node3</title>
<path fill="none" stroke="#191970" d="M110.4056,-431.7502C133.9105,-444.855 168.7651,-462.9463 201,-474.5 207.5072,-476.8323 214.408,-478.949 221.3381,-480.8504"/>
<polygon fill="#191970" stroke="#191970" points="220.9112,-484.3557 231.47,-483.4824 222.6712,-477.5805 220.9112,-484.3557"/>
</g>
<!-- Node4 -->
<g id="node4" class="node">
<title>Node4</title>
<g id="a_node4"><a xlink:href="../../d8/d78/classPHG4ParticleGeneratorBase.html#a41b62f420dda09218795b7707d7cd261" target="_top" xlink:title="PHG4ParticleGeneratorBase\l::AddParticle">
<polygon fill="none" stroke="#000000" points="205,-836.5 205,-868.5 362,-868.5 362,-836.5 205,-836.5"/>
<text text-anchor="start" x="213" y="-855.5" font-family="FreeSans" font-size="10.00" fill="#000000">PHG4ParticleGeneratorBase</text>
<text text-anchor="middle" x="283.5" y="-843.5" font-family="FreeSans" font-size="10.00" fill="#000000">::AddParticle</text>
</a>
</g>
</g>
<!-- Node1&#45;&gt;Node4 -->
<g id="edge3" class="edge">
<title>Node1&#45;&gt;Node4</title>
<path fill="none" stroke="#191970" d="M84.1671,-431.537C90.5137,-486.1918 117.2009,-668.4258 201,-788.5 212.7295,-805.307 230.1904,-819.7519 246.0322,-830.6428"/>
<polygon fill="#191970" stroke="#191970" points="244.3479,-833.725 254.62,-836.3202 248.2082,-827.8857 244.3479,-833.725"/>
</g>
<!-- Node6 -->
<g id="node6" class="node">
<title>Node6</title>
<g id="a_node6"><a xlink:href="../../db/d62/classPHG4InEvent.html#a3aceec54176f99daca9282e7df169148" target="_top" xlink:title="PHG4InEvent::AddVtx">
<polygon fill="none" stroke="#000000" points="220.5,-444.5 220.5,-464.5 346.5,-464.5 346.5,-444.5 220.5,-444.5"/>
<text text-anchor="middle" x="283.5" y="-451.5" font-family="FreeSans" font-size="10.00" fill="#000000">PHG4InEvent::AddVtx</text>
</a>
</g>
</g>
<!-- Node1&#45;&gt;Node6 -->
<g id="edge5" class="edge">
<title>Node1&#45;&gt;Node6</title>
<path fill="none" stroke="#191970" d="M165.1245,-431.5316C183.9514,-435.1846 203.6431,-439.0054 221.441,-442.4587"/>
<polygon fill="#191970" stroke="#191970" points="221.1967,-445.9765 231.6804,-444.4454 222.5301,-439.1047 221.1967,-445.9765"/>
</g>
<!-- Node7 -->
<g id="node7" class="node">
<title>Node7</title>
<g id="a_node7"><a xlink:href="../../db/d62/classPHG4InEvent.html#a47af3dda48d75749874e989dbd730b28" target="_top" xlink:title="PHG4InEvent::identify">
<polygon fill="none" stroke="#000000" points="219.5,-405.5 219.5,-425.5 347.5,-425.5 347.5,-405.5 219.5,-405.5"/>
<text text-anchor="middle" x="283.5" y="-412.5" font-family="FreeSans" font-size="10.00" fill="#000000">PHG4InEvent::identify</text>
</a>
</g>
</g>
<!-- Node1&#45;&gt;Node7 -->
<g id="edge6" class="edge">
<title>Node1&#45;&gt;Node7</title>
<path fill="none" stroke="#191970" d="M165.1245,-415.5C179.6753,-415.5 194.7426,-415.5 209.0529,-415.5"/>
<polygon fill="#191970" stroke="#191970" points="209.3211,-419.0001 219.3211,-415.5 209.321,-412.0001 209.3211,-419.0001"/>
</g>
<!-- Node9 -->
<g id="node9" class="node">
<title>Node9</title>
<g id="a_node9"><a xlink:href="../../d8/d78/classPHG4ParticleGeneratorBase.html#a1c8fb7b3cb97ad9c0eb85468be4f0f1b" target="_top" xlink:title="PHG4ParticleGeneratorBase\l::ReuseExistingVertex">
<polygon fill="none" stroke="#000000" points="205,-354.5 205,-386.5 362,-386.5 362,-354.5 205,-354.5"/>
<text text-anchor="start" x="213" y="-373.5" font-family="FreeSans" font-size="10.00" fill="#000000">PHG4ParticleGeneratorBase</text>
<text text-anchor="middle" x="283.5" y="-361.5" font-family="FreeSans" font-size="10.00" fill="#000000">::ReuseExistingVertex</text>
</a>
</g>
</g>
<!-- Node1&#45;&gt;Node9 -->
<g id="edge8" class="edge">
<title>Node1&#45;&gt;Node9</title>
<path fill="none" stroke="#191970" d="M154.2143,-399.4445C169.713,-395.9747 186.2091,-392.2816 202.0497,-388.7351"/>
<polygon fill="#191970" stroke="#191970" points="202.8196,-392.1495 211.8133,-386.5493 201.2902,-385.3186 202.8196,-392.1495"/>
</g>
<!-- Node28 -->
<g id="node28" class="node">
<title>Node28</title>
<g id="a_node28"><a xlink:href="../../d5/dec/classFun4AllBase.html#a8a5c77a92bdac6bc043476e132379a40" target="_top" xlink:title="Gets the verbosity of this module.">
<polygon fill="none" stroke="#000000" points="417.5,-.5 417.5,-20.5 549.5,-20.5 549.5,-.5 417.5,-.5"/>
<text text-anchor="middle" x="483.5" y="-7.5" font-family="FreeSans" font-size="10.00" fill="#000000">Fun4AllBase::Verbosity</text>
</a>
</g>
</g>
<!-- Node1&#45;&gt;Node28 -->
<g id="edge39" class="edge">
<title>Node1&#45;&gt;Node28</title>
<path fill="none" stroke="#191970" d="M105.0331,-399.3764C128.1135,-383.5546 165.5368,-359.7812 201,-345.5 270.8991,-317.3514 315.5264,-362.4521 366,-306.5 449.1558,-214.3183 318.703,-121.5541 402,-29.5 404.0106,-27.2781 406.2262,-25.2908 408.6007,-23.5149"/>
<polygon fill="#191970" stroke="#191970" points="410.5056,-26.4528 417.2196,-18.2569 406.86,-20.477 410.5056,-26.4528"/>
</g>
<!-- Node29 -->
<g id="node29" class="node">
<title>Node29</title>
<g id="a_node29"><a xlink:href="../../d7/dc3/classPHG4ParticleGeneratorVectorMeson.html#a2a26563904b93840a7a77ded0ae29aba" target="_top" xlink:title="PHG4ParticleGeneratorVector\lMeson::set_decay_types">
<polygon fill="none" stroke="#000000" points="201,-264.5 201,-296.5 366,-296.5 366,-264.5 201,-264.5"/>
<text text-anchor="start" x="209" y="-283.5" font-family="FreeSans" font-size="10.00" fill="#000000">PHG4ParticleGeneratorVector</text>
<text text-anchor="middle" x="283.5" y="-271.5" font-family="FreeSans" font-size="10.00" fill="#000000">Meson::set_decay_types</text>
</a>
</g>
</g>
<!-- Node1&#45;&gt;Node29 -->
<g id="edge28" class="edge">
<title>Node1&#45;&gt;Node29</title>
<path fill="none" stroke="#191970" d="M97.1595,-399.3942C118.2424,-377.0416 159.2069,-336.5451 201,-311.5 207.7366,-307.463 215.0883,-303.7987 222.5377,-300.5198"/>
<polygon fill="#191970" stroke="#191970" points="224.108,-303.657 231.9869,-296.5737 221.4104,-297.1977 224.108,-303.657"/>
</g>
<!-- Node30 -->
<g id="node30" class="node">
<title>Node30</title>
<g id="a_node30"><a xlink:href="../../d7/dc3/classPHG4ParticleGeneratorVectorMeson.html#a15831c14f4d8ead1dc7cee95704b5e63" target="_top" xlink:title="set an offset vector from the existing vertex">
<polygon fill="none" stroke="#000000" points="201,-201.5 201,-245.5 366,-245.5 366,-201.5 201,-201.5"/>
<text text-anchor="start" x="209" y="-232.5" font-family="FreeSans" font-size="10.00" fill="#000000">PHG4ParticleGeneratorVector</text>
<text text-anchor="start" x="209" y="-220.5" font-family="FreeSans" font-size="10.00" fill="#000000">Meson::set_existing_vertex</text>
<text text-anchor="middle" x="283.5" y="-208.5" font-family="FreeSans" font-size="10.00" fill="#000000">_offset_vector</text>
</a>
</g>
</g>
<!-- Node1&#45;&gt;Node30 -->
<g id="edge29" class="edge">
<title>Node1&#45;&gt;Node30</title>
<path fill="none" stroke="#191970" d="M90.6032,-399.0483C107.1224,-367.0854 147.683,-296.1723 201,-255.5 203.0841,-253.9102 205.2568,-252.3901 207.4972,-250.9376"/>
<polygon fill="#191970" stroke="#191970" points="209.5966,-253.7627 216.429,-245.6652 206.0382,-247.7346 209.5966,-253.7627"/>
</g>
<!-- Node31 -->
<g id="node31" class="node">
<title>Node31</title>
<g id="a_node31"><a xlink:href="../../d8/d78/classPHG4ParticleGeneratorBase.html#a809a8ffdabce2e45789c96023769462e" target="_top" xlink:title="PHG4ParticleGeneratorBase\l::SetParticleId">
<polygon fill="none" stroke="#000000" points="205,-746.5 205,-778.5 362,-778.5 362,-746.5 205,-746.5"/>
<text text-anchor="start" x="213" y="-765.5" font-family="FreeSans" font-size="10.00" fill="#000000">PHG4ParticleGeneratorBase</text>
<text text-anchor="middle" x="283.5" y="-753.5" font-family="FreeSans" font-size="10.00" fill="#000000">::SetParticleId</text>
</a>
</g>
</g>
<!-- Node1&#45;&gt;Node31 -->
<g id="edge30" class="edge">
<title>Node1&#45;&gt;Node31</title>
<path fill="none" stroke="#191970" d="M91.9251,-431.7711C124.1706,-487.4387 230.2259,-670.5293 269.0744,-737.5961"/>
<polygon fill="#191970" stroke="#191970" points="266.0544,-739.3653 274.0953,-746.2641 272.1116,-735.8566 266.0544,-739.3653"/>
</g>
<!-- Node37 -->
<g id="node37" class="node">
<title>Node37</title>
<g id="a_node37"><a xlink:href="../../d7/dc3/classPHG4ParticleGeneratorVectorMeson.html#a6cac3dd9db201da87466992ce4e27cb7" target="_top" xlink:title="PHG4ParticleGeneratorVector\lMeson::smearvtx">
<polygon fill="none" stroke="#000000" points="201,-150.5 201,-182.5 366,-182.5 366,-150.5 201,-150.5"/>
<text text-anchor="start" x="209" y="-169.5" font-family="FreeSans" font-size="10.00" fill="#000000">PHG4ParticleGeneratorVector</text>
<text text-anchor="middle" x="283.5" y="-157.5" font-family="FreeSans" font-size="10.00" fill="#000000">Meson::smearvtx</text>
</a>
</g>
</g>
<!-- Node1&#45;&gt;Node37 -->
<g id="edge38" class="edge">
<title>Node1&#45;&gt;Node37</title>
<path fill="none" stroke="#191970" d="M86.5083,-399.3181C97.4809,-358.3988 131.9029,-249.9742 201,-192.5 203.0204,-190.8194 205.1502,-189.2471 207.3648,-187.7761"/>
<polygon fill="#191970" stroke="#191970" points="209.3938,-190.6449 216.2763,-182.59 205.8729,-184.5949 209.3938,-190.6449"/>
</g>
<!-- Node5 -->
<g id="node5" class="node">
<title>Node5</title>
<g id="a_node5"><a xlink:href="../../d8/d78/classPHG4ParticleGeneratorBase.html#a2b222deb69d82462362adb14bf3222e9" target="_top" xlink:title="PHG4ParticleGeneratorBase\l::get_pdgcode">
<polygon fill="none" stroke="#000000" points="405,-864.5 405,-896.5 562,-896.5 562,-864.5 405,-864.5"/>
<text text-anchor="start" x="413" y="-883.5" font-family="FreeSans" font-size="10.00" fill="#000000">PHG4ParticleGeneratorBase</text>
<text text-anchor="middle" x="483.5" y="-871.5" font-family="FreeSans" font-size="10.00" fill="#000000">::get_pdgcode</text>
</a>
</g>
</g>
<!-- Node4&#45;&gt;Node5 -->
<g id="edge4" class="edge">
<title>Node4&#45;&gt;Node5</title>
<path fill="none" stroke="#191970" d="M362.2582,-863.5261C372.9707,-865.0259 384.0242,-866.5734 394.8957,-868.0954"/>
<polygon fill="#191970" stroke="#191970" points="394.4248,-871.5635 404.8135,-869.4839 395.3954,-864.6311 394.4248,-871.5635"/>
</g>
<!-- Node8 -->
<g id="node8" class="node">
<title>Node8</title>
<g id="a_node8"><a xlink:href="../../d1/def/KFParticleTopoReconstructor_8h.html#af22aacb9abc91086092f70a7ce4d2333" target="_top" xlink:title="Returns constant reference to the vector with short&#45;lived particle candidates.">
<polygon fill="none" stroke="#000000" points="445,-618.5 445,-638.5 522,-638.5 522,-618.5 445,-618.5"/>
<text text-anchor="middle" x="483.5" y="-625.5" font-family="FreeSans" font-size="10.00" fill="#000000">GetParticles</text>
</a>
</g>
</g>
<!-- Node7&#45;&gt;Node8 -->
<g id="edge7" class="edge">
<title>Node7&#45;&gt;Node8</title>
<path fill="none" stroke="#191970" d="M347.8386,-423.2176C354.6101,-426.2107 360.8783,-430.202 366,-435.5 420.8889,-492.2772 346.8619,-552.9648 402,-609.5 410.6383,-618.3572 422.5477,-623.4242 434.5961,-626.2425"/>
<polygon fill="#191970" stroke="#191970" points="434.2099,-629.7305 444.6808,-628.1148 435.4877,-622.8481 434.2099,-629.7305"/>
</g>
<!-- Node10 -->
<g id="node10" class="node">
<title>Node10</title>
<g id="a_node10"><a xlink:href="../../d7/d7b/classPHHepMCGenEvent.html#aeb1f4b1ca526d968a3b025a3063c61c4" target="_top" xlink:title="collision vertex position in the Hall coordinate system, use PHENIX units of cm, ns">
<polygon fill="none" stroke="#000000" points="414,-516.5 414,-548.5 553,-548.5 553,-516.5 414,-516.5"/>
<text text-anchor="start" x="422" y="-535.5" font-family="FreeSans" font-size="10.00" fill="#000000">PHHepMCGenEvent::get</text>
<text text-anchor="middle" x="483.5" y="-523.5" font-family="FreeSans" font-size="10.00" fill="#000000">_collision_vertex</text>
</a>
</g>
</g>
<!-- Node9&#45;&gt;Node10 -->
<g id="edge9" class="edge">
<title>Node9&#45;&gt;Node10</title>
<path fill="none" stroke="#191970" d="M353.0596,-386.6677C357.7708,-389.4428 362.1613,-392.6931 366,-396.5 402.825,-433.0198 365.0354,-471.1215 402,-507.5 403.0878,-508.5706 404.2202,-509.5954 405.3919,-510.5766"/>
<polygon fill="#191970" stroke="#191970" points="403.4593,-513.497 413.6379,-516.4377 407.5148,-507.7914 403.4593,-513.497"/>
</g>
<!-- Node11 -->
<g id="node11" class="node">
<title>Node11</title>
<g id="a_node11"><a xlink:href="../../d6/d81/classPHG4VtxPoint.html#a9f885c1b879a2f1d6299b07801210a1d" target="_top" xlink:title="PHG4VtxPoint::get_x">
<polygon fill="none" stroke="#000000" points="423,-477.5 423,-497.5 544,-497.5 544,-477.5 423,-477.5"/>
<text text-anchor="middle" x="483.5" y="-484.5" font-family="FreeSans" font-size="10.00" fill="#000000">PHG4VtxPoint::get_x</text>
</a>
</g>
</g>
<!-- Node9&#45;&gt;Node11 -->
<g id="edge10" class="edge">
<title>Node9&#45;&gt;Node11</title>
<path fill="none" stroke="#191970" d="M351.2342,-386.6806C356.5311,-389.453 361.5441,-392.6992 366,-396.5 393.2199,-419.7181 373.9148,-446.3364 402,-468.5 405.5605,-471.3098 409.4647,-473.7169 413.5757,-475.7776"/>
<polygon fill="#191970" stroke="#191970" points="412.2829,-479.0315 422.8528,-479.7577 415.0428,-472.5985 412.2829,-479.0315"/>
</g>
<!-- Node12 -->
<g id="node12" class="node">
<title>Node12</title>
<g id="a_node12"><a xlink:href="../../d6/d81/classPHG4VtxPoint.html#a2073b3294f78491a2124aea6c436d6a8" target="_top" xlink:title="PHG4VtxPoint::get_y">
<polygon fill="none" stroke="#000000" points="423,-438.5 423,-458.5 544,-458.5 544,-438.5 423,-438.5"/>
<text text-anchor="middle" x="483.5" y="-445.5" font-family="FreeSans" font-size="10.00" fill="#000000">PHG4VtxPoint::get_y</text>
</a>
</g>
</g>
<!-- Node9&#45;&gt;Node12 -->
<g id="edge11" class="edge">
<title>Node9&#45;&gt;Node12</title>
<path fill="none" stroke="#191970" d="M345.1562,-386.6186C352.3877,-389.4658 359.4974,-392.7455 366,-396.5 384.7969,-407.353 382.803,-419.3714 402,-429.5 405.9373,-431.5774 410.0996,-433.4296 414.3767,-435.0809"/>
<polygon fill="#191970" stroke="#191970" points="413.2857,-438.4071 423.8805,-438.3843 415.5839,-431.7951 413.2857,-438.4071"/>
</g>
<!-- Node13 -->
<g id="node13" class="node">
<title>Node13</title>
<g id="a_node13"><a xlink:href="../../d6/d81/classPHG4VtxPoint.html#ae26c6d111c93795d64e3571b6f306ef9" target="_top" xlink:title="PHG4VtxPoint::get_z">
<polygon fill="none" stroke="#000000" points="423.5,-399.5 423.5,-419.5 543.5,-419.5 543.5,-399.5 423.5,-399.5"/>
<text text-anchor="middle" x="483.5" y="-406.5" font-family="FreeSans" font-size="10.00" fill="#000000">PHG4VtxPoint::get_z</text>
</a>
</g>
</g>
<!-- Node9&#45;&gt;Node13 -->
<g id="edge12" class="edge">
<title>Node9&#45;&gt;Node13</title>
<path fill="none" stroke="#191970" d="M362.2582,-385.8578C382.1798,-389.7426 403.2806,-393.8572 422.197,-397.5459"/>
<polygon fill="#191970" stroke="#191970" points="421.68,-401.0109 432.165,-399.4897 423.0198,-394.1403 421.68,-401.0109"/>
</g>
<!-- Node14 -->
<g id="node14" class="node">
<title>Node14</title>
<g id="a_node14"><a xlink:href="../../db/d62/classPHG4InEvent.html#a21ffc7a40dc313688f69a53efb536e5c" target="_top" xlink:title="PHG4InEvent::GetNVtx">
<polygon fill="none" stroke="#000000" points="417.5,-360.5 417.5,-380.5 549.5,-380.5 549.5,-360.5 417.5,-360.5"/>
<text text-anchor="middle" x="483.5" y="-367.5" font-family="FreeSans" font-size="10.00" fill="#000000">PHG4InEvent::GetNVtx</text>
</a>
</g>
</g>
<!-- Node9&#45;&gt;Node14 -->
<g id="edge13" class="edge">
<title>Node9&#45;&gt;Node14</title>
<path fill="none" stroke="#191970" d="M362.2582,-370.5C377.0904,-370.5 392.5763,-370.5 407.3276,-370.5"/>
<polygon fill="#191970" stroke="#191970" points="407.4057,-374.0001 417.4057,-370.5 407.4056,-367.0001 407.4057,-374.0001"/>
</g>
<!-- Node15 -->
<g id="node15" class="node">
<title>Node15</title>
<g id="a_node15"><a xlink:href="../../da/d6c/classPHG4TruthInfoContainer.html#acf130130dd475251d67c0f04c0e9cc49" target="_top" xlink:title="PHG4TruthInfoContainer\l::GetPrimaryVtx">
<polygon fill="none" stroke="#000000" points="414,-309.5 414,-341.5 553,-341.5 553,-309.5 414,-309.5"/>
<text text-anchor="start" x="422" y="-328.5" font-family="FreeSans" font-size="10.00" fill="#000000">PHG4TruthInfoContainer</text>
<text text-anchor="middle" x="483.5" y="-316.5" font-family="FreeSans" font-size="10.00" fill="#000000">::GetPrimaryVtx</text>
</a>
</g>
</g>
<!-- Node9&#45;&gt;Node15 -->
<g id="edge14" class="edge">
<title>Node9&#45;&gt;Node15</title>
<path fill="none" stroke="#191970" d="M354.8576,-354.4445C370.7436,-350.8702 387.6828,-347.0589 403.8774,-343.4151"/>
<polygon fill="#191970" stroke="#191970" points="404.8608,-346.7814 413.8486,-341.1716 403.3241,-339.9521 404.8608,-346.7814"/>
</g>
<!-- Node16 -->
<g id="node16" class="node">
<title>Node16</title>
<g id="a_node16"><a xlink:href="../../db/d62/classPHG4InEvent.html#a459357d91b697f1a08abee3fc0b0dcce" target="_top" xlink:title="PHG4InEvent::GetVertices">
<polygon fill="none" stroke="#000000" points="409.5,-270.5 409.5,-290.5 557.5,-290.5 557.5,-270.5 409.5,-270.5"/>
<text text-anchor="middle" x="483.5" y="-277.5" font-family="FreeSans" font-size="10.00" fill="#000000">PHG4InEvent::GetVertices</text>
</a>
</g>
</g>
<!-- Node9&#45;&gt;Node16 -->
<g id="edge15" class="edge">
<title>Node9&#45;&gt;Node16</title>
<path fill="none" stroke="#191970" d="M337.2305,-354.4784C347.211,-350.3641 357.2415,-345.3949 366,-339.5 385.5695,-326.3288 381.6832,-312.4863 402,-300.5 406.0977,-298.0825 410.4762,-295.9563 414.9972,-294.0864"/>
<polygon fill="#191970" stroke="#191970" points="416.2676,-297.3483 424.4328,-290.5971 413.8396,-290.7829 416.2676,-297.3483"/>
</g>
<!-- Node17 -->
<g id="node17" class="node">
<title>Node17</title>
<g id="a_node17"><a xlink:href="../../d7/d7b/classPHHepMCGenEvent.html#ac5529cd67a3f4a4aa004476356eecd4e" target="_top" xlink:title="PHHepMCGenEvent::identify">
<polygon fill="none" stroke="#000000" points="403.5,-231.5 403.5,-251.5 563.5,-251.5 563.5,-231.5 403.5,-231.5"/>
<text text-anchor="middle" x="483.5" y="-238.5" font-family="FreeSans" font-size="10.00" fill="#000000">PHHepMCGenEvent::identify</text>
</a>
</g>
</g>
<!-- Node9&#45;&gt;Node17 -->
<g id="edge16" class="edge">
<title>Node9&#45;&gt;Node17</title>
<path fill="none" stroke="#191970" d="M343.5498,-354.3959C351.7107,-350.4376 359.5001,-345.5421 366,-339.5 393.9648,-313.5049 372.5414,-285.7893 402,-261.5 404.3957,-259.5247 406.9574,-257.7396 409.6408,-256.1269"/>
<polygon fill="#191970" stroke="#191970" points="411.2745,-259.2225 418.5709,-251.5405 408.0765,-252.9957 411.2745,-259.2225"/>
</g>
<!-- Node20 -->
<g id="node20" class="node">
<title>Node20</title>
<g id="a_node20"><a xlink:href="../../d6/d81/classPHG4VtxPoint.html#a29719de3d698930bdc372e8cc4f4ac6c" target="_top" xlink:title="PHG4VtxPoint::identify">
<polygon fill="none" stroke="#000000" points="418,-192.5 418,-212.5 549,-212.5 549,-192.5 418,-192.5"/>
<text text-anchor="middle" x="483.5" y="-199.5" font-family="FreeSans" font-size="10.00" fill="#000000">PHG4VtxPoint::identify</text>
</a>
</g>
</g>
<!-- Node9&#45;&gt;Node20 -->
<g id="edge19" class="edge">
<title>Node9&#45;&gt;Node20</title>
<path fill="none" stroke="#191970" d="M345.961,-354.2962C353.3943,-350.3759 360.3383,-345.5176 366,-339.5 403.281,-299.8751 362.4326,-259.842 402,-222.5 404.1853,-220.4376 406.5476,-218.5777 409.044,-216.901"/>
<polygon fill="#191970" stroke="#191970" points="410.9816,-219.827 417.9868,-211.8785 407.5538,-213.7237 410.9816,-219.827"/>
</g>
<!-- Node21 -->
<g id="node21" class="node">
<title>Node21</title>
<g id="a_node21"><a xlink:href="../../da/d6c/classPHG4TruthInfoContainer.html#a349601fb176f9c6a2b2910831870cb81" target="_top" xlink:title="PHG4TruthInfoContainer\l::identify">
<polygon fill="none" stroke="#000000" points="414,-141.5 414,-173.5 553,-173.5 553,-141.5 414,-141.5"/>
<text text-anchor="start" x="422" y="-160.5" font-family="FreeSans" font-size="10.00" fill="#000000">PHG4TruthInfoContainer</text>
<text text-anchor="middle" x="483.5" y="-148.5" font-family="FreeSans" font-size="10.00" fill="#000000">::identify</text>
</a>
</g>
</g>
<!-- Node9&#45;&gt;Node21 -->
<g id="edge20" class="edge">
<title>Node9&#45;&gt;Node21</title>
<path fill="none" stroke="#191970" d="M346.7795,-354.446C353.9925,-350.5055 360.6584,-345.6016 366,-339.5 412.8697,-285.9617 353.7904,-235.8349 402,-183.5 403.2106,-182.1858 404.4875,-180.9376 405.8217,-179.7523"/>
<polygon fill="#191970" stroke="#191970" points="408.1076,-182.4136 414.0277,-173.627 403.9204,-176.804 408.1076,-182.4136"/>
</g>
<!-- Node25 -->
<g id="node25" class="node">
<title>Node25</title>
<g id="a_node25"><a xlink:href="../../d5/d41/classPHHepMCGenEventMap.html#a28c156234e9a12ba587b18a1fb70b151" target="_top" xlink:title="iterator from lowest ID to highest, i.e. signal to background">
<polygon fill="none" stroke="#000000" points="415,-90.5 415,-122.5 552,-122.5 552,-90.5 415,-90.5"/>
<text text-anchor="start" x="423" y="-109.5" font-family="FreeSans" font-size="10.00" fill="#000000">PHHepMCGenEventMap</text>
<text text-anchor="middle" x="483.5" y="-97.5" font-family="FreeSans" font-size="10.00" fill="#000000">::rbegin</text>
</a>
</g>
</g>
<!-- Node9&#45;&gt;Node25 -->
<g id="edge24" class="edge">
<title>Node9&#45;&gt;Node25</title>
<path fill="none" stroke="#191970" d="M347.507,-354.4942C354.5111,-350.5477 360.9271,-345.6294 366,-339.5 425.8183,-267.2245 339.9774,-201.893 402,-131.5 403.3942,-129.9176 404.8858,-128.4339 406.4595,-127.0428"/>
<polygon fill="#191970" stroke="#191970" points="408.9421,-129.563 414.9425,-120.8311 404.8065,-123.9152 408.9421,-129.563"/>
</g>
<!-- Node26 -->
<g id="node26" class="node">
<title>Node26</title>
<g id="a_node26"><a xlink:href="../../d5/d41/classPHHepMCGenEventMap.html#a7970c7bea97397801bfa690433a1025b" target="_top" xlink:title="PHHepMCGenEventMap\l::rend">
<polygon fill="none" stroke="#000000" points="415,-39.5 415,-71.5 552,-71.5 552,-39.5 415,-39.5"/>
<text text-anchor="start" x="423" y="-58.5" font-family="FreeSans" font-size="10.00" fill="#000000">PHHepMCGenEventMap</text>
<text text-anchor="middle" x="483.5" y="-46.5" font-family="FreeSans" font-size="10.00" fill="#000000">::rend</text>
</a>
</g>
</g>
<!-- Node9&#45;&gt;Node26 -->
<g id="edge25" class="edge">
<title>Node9&#45;&gt;Node26</title>
<path fill="none" stroke="#191970" d="M348.1041,-354.423C354.9186,-350.4893 361.1253,-345.5934 366,-339.5 438.6003,-248.7488 326.6307,-168.9649 402,-80.5 403.3677,-78.8946 404.8357,-77.3905 406.3886,-75.9814"/>
<polygon fill="#191970" stroke="#191970" points="408.8776,-78.4904 414.7887,-69.6978 404.6846,-72.8851 408.8776,-78.4904"/>
</g>
<!-- Node27 -->
<g id="node27" class="node">
<title>Node27</title>
<g id="a_node27"><a xlink:href="../../d8/d78/classPHG4ParticleGeneratorBase.html#a45b6073aec5d527acfbb8ecc7db95033" target="_top" xlink:title="PHG4ParticleGeneratorBase\l::set_vtx">
<polygon fill="none" stroke="#000000" points="405,-567.5 405,-599.5 562,-599.5 562,-567.5 405,-567.5"/>
<text text-anchor="start" x="413" y="-586.5" font-family="FreeSans" font-size="10.00" fill="#000000">PHG4ParticleGeneratorBase</text>
<text text-anchor="middle" x="483.5" y="-574.5" font-family="FreeSans" font-size="10.00" fill="#000000">::set_vtx</text>
</a>
</g>
</g>
<!-- Node9&#45;&gt;Node27 -->
<g id="edge26" class="edge">
<title>Node9&#45;&gt;Node27</title>
<path fill="none" stroke="#191970" d="M353.8535,-386.5134C358.3248,-389.3252 362.4478,-392.6259 366,-396.5 415.8464,-450.863 351.9457,-504.3283 402,-558.5 402.7784,-559.3424 403.5844,-560.1568 404.4155,-560.944"/>
<polygon fill="#191970" stroke="#191970" points="402.4898,-563.8824 412.5114,-567.3201 406.8209,-558.3832 402.4898,-563.8824"/>
</g>
<!-- Node9&#45;&gt;Node28 -->
<g id="edge27" class="edge">
<title>Node9&#45;&gt;Node28</title>
<path fill="none" stroke="#191970" d="M348.6354,-354.2942C355.2701,-350.3828 361.2884,-345.5273 366,-339.5 451.4231,-230.2223 309.6387,-132.98 402,-29.5 403.9954,-27.2644 406.1982,-25.2657 408.5622,-23.4803"/>
<polygon fill="#191970" stroke="#191970" points="410.4684,-26.417 417.153,-18.197 406.8014,-20.4543 410.4684,-26.417"/>
</g>
<!-- Node18 -->
<g id="node18" class="node">
<title>Node18</title>
<g id="a_node18"><a xlink:href="../../d7/d7b/classPHHepMCGenEvent.html#a0938cf5d7c7183d1d56642748985fb1e" target="_top" xlink:title="PHHepMCGenEvent::size">
<polygon fill="none" stroke="#000000" points="617.5,-250.5 617.5,-270.5 759.5,-270.5 759.5,-250.5 617.5,-250.5"/>
<text text-anchor="middle" x="688.5" y="-257.5" font-family="FreeSans" font-size="10.00" fill="#000000">PHHepMCGenEvent::size</text>
</a>
</g>
</g>
<!-- Node17&#45;&gt;Node18 -->
<g id="edge17" class="edge">
<title>Node17&#45;&gt;Node18</title>
<path fill="none" stroke="#191970" d="M563.6391,-248.9275C577.9167,-250.2508 592.8029,-251.6305 607.1148,-252.957"/>
<polygon fill="#191970" stroke="#191970" points="607.1375,-256.474 617.4178,-253.9119 607.7835,-249.5039 607.1375,-256.474"/>
</g>
<!-- Node19 -->
<g id="node19" class="node">
<title>Node19</title>
<g id="a_node19"><a xlink:href="../../d7/d7b/classPHHepMCGenEvent.html#a0d1a7a89d4f44f0c78a32af3de38b21d" target="_top" xlink:title="PHHepMCGenEvent::vertexSize">
<polygon fill="none" stroke="#000000" points="601,-211.5 601,-231.5 776,-231.5 776,-211.5 601,-211.5"/>
<text text-anchor="middle" x="688.5" y="-218.5" font-family="FreeSans" font-size="10.00" fill="#000000">PHHepMCGenEvent::vertexSize</text>
</a>
</g>
</g>
<!-- Node17&#45;&gt;Node19 -->
<g id="edge18" class="edge">
<title>Node17&#45;&gt;Node19</title>
<path fill="none" stroke="#191970" d="M563.6391,-233.6815C572.5326,-232.8139 581.6621,-231.9232 590.742,-231.0374"/>
<polygon fill="#191970" stroke="#191970" points="591.3442,-234.4953 600.957,-230.0408 590.6644,-227.5284 591.3442,-234.4953"/>
</g>
<!-- Node22 -->
<g id="node22" class="node">
<title>Node22</title>
<g id="a_node22"><a xlink:href="../../da/d6c/classPHG4TruthInfoContainer.html#a77051a88c6708ed10465eca6b73c2272" target="_top" xlink:title="PHG4TruthInfoContainer\l::GetPrimaryVertexIndex">
<polygon fill="none" stroke="#000000" points="618.5,-141.5 618.5,-173.5 758.5,-173.5 758.5,-141.5 618.5,-141.5"/>
<text text-anchor="start" x="626.5" y="-160.5" font-family="FreeSans" font-size="10.00" fill="#000000">PHG4TruthInfoContainer</text>
<text text-anchor="middle" x="688.5" y="-148.5" font-family="FreeSans" font-size="10.00" fill="#000000">::GetPrimaryVertexIndex</text>
</a>
</g>
</g>
<!-- Node21&#45;&gt;Node22 -->
<g id="edge21" class="edge">
<title>Node21&#45;&gt;Node22</title>
<path fill="none" stroke="#191970" d="M553.1897,-157.5C570.8343,-157.5 589.929,-157.5 608.0574,-157.5"/>
<polygon fill="#191970" stroke="#191970" points="608.3063,-161.0001 618.3063,-157.5 608.3063,-154.0001 608.3063,-161.0001"/>
</g>
<!-- Node23 -->
<g id="node23" class="node">
<title>Node23</title>
<g id="a_node23"><a xlink:href="../../da/d6c/classPHG4TruthInfoContainer.html#a53587ae22361008bcee4c51cc1d8d242" target="_top" xlink:title="PHG4TruthInfoContainer\l::GetPrimaryVtxRange">
<polygon fill="none" stroke="#000000" points="812,-167.5 812,-199.5 951,-199.5 951,-167.5 812,-167.5"/>
<text text-anchor="start" x="820" y="-186.5" font-family="FreeSans" font-size="10.00" fill="#000000">PHG4TruthInfoContainer</text>
<text text-anchor="middle" x="881.5" y="-174.5" font-family="FreeSans" font-size="10.00" fill="#000000">::GetPrimaryVtxRange</text>
</a>
</g>
</g>
<!-- Node22&#45;&gt;Node23 -->
<g id="edge22" class="edge">
<title>Node22&#45;&gt;Node23</title>
<path fill="none" stroke="#191970" d="M758.7234,-166.9601C772.6868,-168.8412 787.4448,-170.8294 801.7012,-172.7499"/>
<polygon fill="#191970" stroke="#191970" points="801.5971,-176.2674 811.9749,-174.1339 802.5317,-169.3301 801.5971,-176.2674"/>
</g>
<!-- Node24 -->
<g id="node24" class="node">
<title>Node24</title>
<g id="a_node24"><a xlink:href="../../da/d6c/classPHG4TruthInfoContainer.html#a434c7528ce4a7f089bb4aaeb613af2ff" target="_top" xlink:title="PHG4TruthInfoContainer\l::isEmbededVtx">
<polygon fill="none" stroke="#000000" points="812,-116.5 812,-148.5 951,-148.5 951,-116.5 812,-116.5"/>
<text text-anchor="start" x="820" y="-135.5" font-family="FreeSans" font-size="10.00" fill="#000000">PHG4TruthInfoContainer</text>
<text text-anchor="middle" x="881.5" y="-123.5" font-family="FreeSans" font-size="10.00" fill="#000000">::isEmbededVtx</text>
</a>
</g>
</g>
<!-- Node22&#45;&gt;Node24 -->
<g id="edge23" class="edge">
<title>Node22&#45;&gt;Node24</title>
<path fill="none" stroke="#191970" d="M758.7234,-148.4037C772.6868,-146.595 787.4448,-144.6833 801.7012,-142.8366"/>
<polygon fill="#191970" stroke="#191970" points="802.5074,-146.2615 811.9749,-141.5058 801.6081,-139.3195 802.5074,-146.2615"/>
</g>
<!-- Node31&#45;&gt;Node2 -->
<g id="edge31" class="edge">
<title>Node31&#45;&gt;Node2</title>
<path fill="none" stroke="#191970" d="M310.0221,-778.5832C327.7025,-790.3649 350.4621,-807.7068 366,-827.5 389.8254,-857.8503 373.0025,-881.0454 402,-906.5 403.3382,-907.6747 404.7306,-908.7942 406.1692,-909.8611"/>
<polygon fill="#191970" stroke="#191970" points="404.5464,-912.9777 414.8573,-915.4143 408.3164,-907.0796 404.5464,-912.9777"/>
</g>
<!-- Node31&#45;&gt;Node5 -->
<g id="edge33" class="edge">
<title>Node31&#45;&gt;Node5</title>
<path fill="none" stroke="#191970" d="M303.8529,-778.5487C337.3687,-804.9665 400.6383,-854.7884 402,-855.5 405.515,-857.3367 409.1871,-859.0629 412.9449,-860.6815"/>
<polygon fill="#191970" stroke="#191970" points="411.8376,-864.0084 422.4217,-864.4849 414.4449,-857.512 411.8376,-864.0084"/>
</g>
<!-- Node32 -->
<g id="node32" class="node">
<title>Node32</title>
<g id="a_node32"><a xlink:href="../../de/dc9/classPHG4Particle.html#aaf95cb29207cce8188669625f7287471" target="_top" xlink:title="PHG4Particle::get_name">
<polygon fill="none" stroke="#000000" points="414.5,-786.5 414.5,-806.5 552.5,-806.5 552.5,-786.5 414.5,-786.5"/>
<text text-anchor="middle" x="483.5" y="-793.5" font-family="FreeSans" font-size="10.00" fill="#000000">PHG4Particle::get_name</text>
</a>
</g>
</g>
<!-- Node31&#45;&gt;Node32 -->
<g id="edge32" class="edge">
<title>Node31&#45;&gt;Node32</title>
<path fill="none" stroke="#191970" d="M362.2582,-775.8889C379.4577,-778.8128 397.5361,-781.8861 414.329,-784.7409"/>
<polygon fill="#191970" stroke="#191970" points="414.1542,-788.2614 424.5994,-786.4869 415.3274,-781.3604 414.1542,-788.2614"/>
</g>
<!-- Node33 -->
<g id="node33" class="node">
<title>Node33</title>
<g id="a_node33"><a xlink:href="../../d8/d78/classPHG4ParticleGeneratorBase.html#a3c9fbe79aed7b346b81221e07a87b610" target="_top" xlink:title="PHG4ParticleGeneratorBase\l::get_pdgname">
<polygon fill="none" stroke="#000000" points="405,-735.5 405,-767.5 562,-767.5 562,-735.5 405,-735.5"/>
<text text-anchor="start" x="413" y="-754.5" font-family="FreeSans" font-size="10.00" fill="#000000">PHG4ParticleGeneratorBase</text>
<text text-anchor="middle" x="483.5" y="-742.5" font-family="FreeSans" font-size="10.00" fill="#000000">::get_pdgname</text>
</a>
</g>
</g>
<!-- Node31&#45;&gt;Node33 -->
<g id="edge34" class="edge">
<title>Node31&#45;&gt;Node33</title>
<path fill="none" stroke="#191970" d="M362.2582,-758.1683C372.8614,-757.5851 383.7987,-756.9836 394.5629,-756.3915"/>
<polygon fill="#191970" stroke="#191970" points="395.0209,-759.8717 404.8135,-755.8278 394.6364,-752.8823 395.0209,-759.8717"/>
</g>
<!-- Node34 -->
<g id="node34" class="node">
<title>Node34</title>
<g id="a_node34"><a xlink:href="../../de/dc9/classPHG4Particle.html#a474033dbd058eea155c71fc4d17aaf4d" target="_top" xlink:title="PHG4Particle::get_pid">
<polygon fill="none" stroke="#000000" points="421,-696.5 421,-716.5 546,-716.5 546,-696.5 421,-696.5"/>
<text text-anchor="middle" x="483.5" y="-703.5" font-family="FreeSans" font-size="10.00" fill="#000000">PHG4Particle::get_pid</text>
</a>
</g>
</g>
<!-- Node31&#45;&gt;Node34 -->
<g id="edge35" class="edge">
<title>Node31&#45;&gt;Node34</title>
<path fill="none" stroke="#191970" d="M334.0698,-746.4765C355.0167,-740.0117 379.6062,-732.6444 402,-726.5 411.2806,-723.9536 421.198,-721.3897 430.8056,-718.9869"/>
<polygon fill="#191970" stroke="#191970" points="431.7986,-722.3469 440.6661,-716.5487 430.1183,-715.5515 431.7986,-722.3469"/>
</g>
<!-- Node35 -->
<g id="node35" class="node">
<title>Node35</title>
<g id="a_node35"><a xlink:href="../../de/dc9/classPHG4Particle.html#aee8ffddf6f6d6f13e10d836e029b1f85" target="_top" xlink:title="PHG4Particle::set_name">
<polygon fill="none" stroke="#000000" points="415,-657.5 415,-677.5 552,-677.5 552,-657.5 415,-657.5"/>
<text text-anchor="middle" x="483.5" y="-664.5" font-family="FreeSans" font-size="10.00" fill="#000000">PHG4Particle::set_name</text>
</a>
</g>
</g>
<!-- Node31&#45;&gt;Node35 -->
<g id="edge36" class="edge">
<title>Node31&#45;&gt;Node35</title>
<path fill="none" stroke="#191970" d="M304.1784,-746.4627C326.9613,-729.5209 365.2609,-703.1395 402,-687.5 408.3046,-684.8162 415.0434,-682.4435 421.8441,-680.3581"/>
<polygon fill="#191970" stroke="#191970" points="423.1582,-683.6226 431.8089,-677.5057 421.2318,-676.8929 423.1582,-683.6226"/>
</g>
<!-- Node36 -->
<g id="node36" class="node">
<title>Node36</title>
<g id="a_node36"><a xlink:href="../../de/dc9/classPHG4Particle.html#a46b6688accb92b757c61c937b2096cfd" target="_top" xlink:title="PHG4Particle::set_pid">
<polygon fill="none" stroke="#000000" points="421.5,-825.5 421.5,-845.5 545.5,-845.5 545.5,-825.5 421.5,-825.5"/>
<text text-anchor="middle" x="483.5" y="-832.5" font-family="FreeSans" font-size="10.00" fill="#000000">PHG4Particle::set_pid</text>
</a>
</g>
</g>
<!-- Node31&#45;&gt;Node36 -->
<g id="edge37" class="edge">
<title>Node31&#45;&gt;Node36</title>
<path fill="none" stroke="#191970" d="M314.4946,-778.6823C338.008,-790.4476 371.3969,-806.0755 402,-816.5 408.9021,-818.8511 416.2304,-821.0106 423.5523,-822.9633"/>
<polygon fill="#191970" stroke="#191970" points="422.9377,-826.4185 433.4924,-825.4964 424.6664,-819.6353 422.9377,-826.4185"/>
</g>
</g>
</svg>
