<?xml version="1.0" encoding="UTF-8" standalone="no"?>
<!DOCTYPE svg PUBLIC "-//W3C//DTD SVG 1.1//EN"
 "http://www.w3.org/Graphics/SVG/1.1/DTD/svg11.dtd">
<!-- Generated by graphviz version 2.40.1 (20161225.0304)
 -->
<!-- Title: GenFit/blob/master/fitters/include/AbsKalmanFitter.h Pages: 1 -->
<svg width="1051pt" height="623pt"
 viewBox="0.00 0.00 1050.88 623.00" xmlns="http://www.w3.org/2000/svg" xmlns:xlink="http://www.w3.org/1999/xlink">
<g id="graph0" class="graph" transform="scale(1 1) rotate(0) translate(4 619)">
<title>GenFit/blob/master/fitters/include/AbsKalmanFitter.h</title>
<!-- Node1 -->
<g id="node1" class="node">
<title>Node1</title>
<polygon fill="#bfbfbf" stroke="#000000" points="23,-570.5 23,-614.5 173,-614.5 173,-570.5 23,-570.5"/>
<text text-anchor="start" x="31" y="-601.5" font-family="FreeSans" font-size="10.00" fill="#000000">GenFit/blob/master</text>
<text text-anchor="start" x="31" y="-589.5" font-family="FreeSans" font-size="10.00" fill="#000000">/fitters/include/AbsKalman</text>
<text text-anchor="middle" x="98" y="-577.5" font-family="FreeSans" font-size="10.00" fill="#000000">Fitter.h</text>
</g>
<!-- Node2 -->
<g id="node2" class="node">
<title>Node2</title>
<g id="a_node2"><a xlink:href="../../d5/d19/AbsFitter_8h.html" target="_top" xlink:title="AbsFitter.h">
<polygon fill="none" stroke="#000000" points="0,-513.5 0,-533.5 70,-533.5 70,-513.5 0,-513.5"/>
<text text-anchor="middle" x="35" y="-520.5" font-family="FreeSans" font-size="10.00" fill="#000000">AbsFitter.h</text>
</a>
</g>
</g>
<!-- Node1&#45;&gt;Node2 -->
<g id="edge1" class="edge">
<title>Node1&#45;&gt;Node2</title>
<path fill="none" stroke="#191970" d="M77.7196,-570.2882C69.1272,-560.8774 59.2535,-550.0634 51.1645,-541.204"/>
<polygon fill="#191970" stroke="#191970" points="53.653,-538.7386 44.3255,-533.7137 48.4835,-543.4585 53.653,-538.7386"/>
</g>
<!-- Node3 -->
<g id="node3" class="node">
<title>Node3</title>
<g id="a_node3"><a xlink:href="../../d7/d22/MeasurementOnPlane_8h.html" target="_top" xlink:title="MeasurementOnPlane.h">
<polygon fill="none" stroke="#000000" points="296.5,-399.5 296.5,-419.5 433.5,-419.5 433.5,-399.5 296.5,-399.5"/>
<text text-anchor="middle" x="365" y="-406.5" font-family="FreeSans" font-size="10.00" fill="#000000">MeasurementOnPlane.h</text>
</a>
</g>
</g>
<!-- Node1&#45;&gt;Node3 -->
<g id="edge2" class="edge">
<title>Node1&#45;&gt;Node3</title>
<path fill="none" stroke="#191970" d="M130.2064,-570.4259C184.8026,-533.0061 294.2298,-458.0054 341.9086,-425.3267"/>
<polygon fill="#191970" stroke="#191970" points="344.0567,-428.0976 350.3266,-419.5571 340.0993,-422.3236 344.0567,-428.0976"/>
</g>
<!-- Node23 -->
<g id="node23" class="node">
<title>Node23</title>
<g id="a_node23"><a xlink:href="../../dc/d73/TrackPoint_8h.html" target="_top" xlink:title="TrackPoint.h">
<polygon fill="none" stroke="#000000" points="784,-513.5 784,-533.5 862,-533.5 862,-513.5 784,-513.5"/>
<text text-anchor="middle" x="823" y="-520.5" font-family="FreeSans" font-size="10.00" fill="#000000">TrackPoint.h</text>
</a>
</g>
</g>
<!-- Node1&#45;&gt;Node23 -->
<g id="edge37" class="edge">
<title>Node1&#45;&gt;Node23</title>
<path fill="none" stroke="#191970" d="M173.1962,-585.3434C321.8792,-571.1929 649.7939,-539.9844 774.0092,-528.1626"/>
<polygon fill="#191970" stroke="#191970" points="774.3704,-531.6441 783.9938,-527.2123 773.7071,-524.6756 774.3704,-531.6441"/>
</g>
<!-- Node4 -->
<g id="node4" class="node">
<title>Node4</title>
<g id="a_node4"><a xlink:href="../../df/dc0/MeasuredStateOnPlane_8h.html" target="_top" xlink:title="MeasuredStateOnPlane.h">
<polygon fill="none" stroke="#000000" points="350,-342.5 350,-362.5 494,-362.5 494,-342.5 350,-342.5"/>
<text text-anchor="middle" x="422" y="-349.5" font-family="FreeSans" font-size="10.00" fill="#000000">MeasuredStateOnPlane.h</text>
</a>
</g>
</g>
<!-- Node3&#45;&gt;Node4 -->
<g id="edge3" class="edge">
<title>Node3&#45;&gt;Node4</title>
<path fill="none" stroke="#191970" d="M375.1905,-399.3095C383.3771,-391.1229 395.059,-379.441 404.7045,-369.7955"/>
<polygon fill="#191970" stroke="#191970" points="407.3016,-372.1482 411.8978,-362.6022 402.3518,-367.1984 407.3016,-372.1482"/>
</g>
<!-- Node12 -->
<g id="node12" class="node">
<title>Node12</title>
<polygon fill="none" stroke="#bfbfbf" points="231,-57.5 231,-77.5 289,-77.5 289,-57.5 231,-57.5"/>
<text text-anchor="middle" x="260" y="-64.5" font-family="FreeSans" font-size="10.00" fill="#000000">memory</text>
</g>
<!-- Node3&#45;&gt;Node12 -->
<g id="edge36" class="edge">
<title>Node3&#45;&gt;Node12</title>
<path fill="none" stroke="#191970" d="M304.5664,-399.4962C248.6094,-386.3717 174,-357.2873 174,-295.5 174,-295.5 174,-295.5 174,-181.5 174,-139.8479 211.0406,-103.7665 236.5037,-83.8836"/>
<polygon fill="#191970" stroke="#191970" points="238.7357,-86.5843 244.6249,-77.777 234.5288,-80.9895 238.7357,-86.5843"/>
</g>
<!-- Node18 -->
<g id="node18" class="node">
<title>Node18</title>
<polygon fill="none" stroke="#bfbfbf" points="202,-171.5 202,-191.5 274,-191.5 274,-171.5 202,-171.5"/>
<text text-anchor="middle" x="238" y="-178.5" font-family="FreeSans" font-size="10.00" fill="#000000">TMatrixD.h</text>
</g>
<!-- Node3&#45;&gt;Node18 -->
<g id="edge34" class="edge">
<title>Node3&#45;&gt;Node18</title>
<path fill="none" stroke="#191970" d="M329.2862,-399.3786C310.378,-392.2154 288.3668,-380.6746 275,-363 238.2425,-314.3964 235.6287,-238.3018 236.7515,-202.0441"/>
<polygon fill="#191970" stroke="#191970" points="240.2612,-201.9028 237.2088,-191.7572 233.2681,-201.5919 240.2612,-201.9028"/>
</g>
<!-- Node21 -->
<g id="node21" class="node">
<title>Node21</title>
<g id="a_node21"><a xlink:href="../../d4/daa/AbsHMatrix_8h.html" target="_top" xlink:title="AbsHMatrix.h">
<polygon fill="none" stroke="#000000" points="636,-228.5 636,-248.5 720,-248.5 720,-228.5 636,-228.5"/>
<text text-anchor="middle" x="678" y="-235.5" font-family="FreeSans" font-size="10.00" fill="#000000">AbsHMatrix.h</text>
</a>
</g>
</g>
<!-- Node3&#45;&gt;Node21 -->
<g id="edge30" class="edge">
<title>Node3&#45;&gt;Node21</title>
<path fill="none" stroke="#191970" d="M404.904,-399.4164C433.1542,-391.4819 471.4703,-379.0828 503,-363 564.0241,-331.8726 627.5932,-281.2985 658.6228,-255.2234"/>
<polygon fill="#191970" stroke="#191970" points="661.1215,-257.6935 666.4827,-248.5551 656.5929,-252.3556 661.1215,-257.6935"/>
</g>
<!-- Node22 -->
<g id="node22" class="node">
<title>Node22</title>
<polygon fill="none" stroke="#bfbfbf" points="284,-342.5 284,-362.5 332,-362.5 332,-342.5 284,-342.5"/>
<text text-anchor="middle" x="308" y="-349.5" font-family="FreeSans" font-size="10.00" fill="#000000">cmath</text>
</g>
<!-- Node3&#45;&gt;Node22 -->
<g id="edge35" class="edge">
<title>Node3&#45;&gt;Node22</title>
<path fill="none" stroke="#191970" d="M354.8095,-399.3095C346.6229,-391.1229 334.941,-379.441 325.2955,-369.7955"/>
<polygon fill="#191970" stroke="#191970" points="327.6482,-367.1984 318.1022,-362.6022 322.6984,-372.1482 327.6482,-367.1984"/>
</g>
<!-- Node5 -->
<g id="node5" class="node">
<title>Node5</title>
<g id="a_node5"><a xlink:href="../../db/d1a/StateOnPlane_8h.html" target="_top" xlink:title="StateOnPlane.h">
<polygon fill="none" stroke="#000000" points="405,-285.5 405,-305.5 499,-305.5 499,-285.5 405,-285.5"/>
<text text-anchor="middle" x="452" y="-292.5" font-family="FreeSans" font-size="10.00" fill="#000000">StateOnPlane.h</text>
</a>
</g>
</g>
<!-- Node4&#45;&gt;Node5 -->
<g id="edge4" class="edge">
<title>Node4&#45;&gt;Node5</title>
<path fill="none" stroke="#191970" d="M427.3634,-342.3095C431.4162,-334.6093 437.0965,-323.8166 441.9817,-314.5349"/>
<polygon fill="#191970" stroke="#191970" points="445.1227,-316.0816 446.683,-305.6022 438.9283,-312.8213 445.1227,-316.0816"/>
</g>
<!-- Node13 -->
<g id="node13" class="node">
<title>Node13</title>
<g id="a_node13"><a xlink:href="../../d4/d66/AbsTrackRep_8h.html" target="_top" xlink:title="AbsTrackRep.h">
<polygon fill="none" stroke="#000000" points="488.5,-228.5 488.5,-248.5 579.5,-248.5 579.5,-228.5 488.5,-228.5"/>
<text text-anchor="middle" x="534" y="-235.5" font-family="FreeSans" font-size="10.00" fill="#000000">AbsTrackRep.h</text>
</a>
</g>
</g>
<!-- Node4&#45;&gt;Node13 -->
<g id="edge27" class="edge">
<title>Node4&#45;&gt;Node13</title>
<path fill="none" stroke="#191970" d="M452.1565,-342.3509C470.4609,-334.8396 493.091,-322.9508 508,-306 519.7642,-292.6247 526.4739,-273.3487 530.1186,-258.8171"/>
<polygon fill="#191970" stroke="#191970" points="533.5906,-259.3267 532.3413,-248.8058 526.757,-257.8095 533.5906,-259.3267"/>
</g>
<!-- Node19 -->
<g id="node19" class="node">
<title>Node19</title>
<polygon fill="none" stroke="#bfbfbf" points="292,-171.5 292,-191.5 386,-191.5 386,-171.5 292,-171.5"/>
<text text-anchor="middle" x="339" y="-178.5" font-family="FreeSans" font-size="10.00" fill="#000000">TMatrixDSym.h</text>
</g>
<!-- Node4&#45;&gt;Node19 -->
<g id="edge28" class="edge">
<title>Node4&#45;&gt;Node19</title>
<path fill="none" stroke="#191970" d="M408.1405,-342.3194C386.7485,-325.6393 346.5338,-290.193 331,-249 325.2832,-233.84 327.9995,-215.5258 331.7476,-201.8011"/>
<polygon fill="#191970" stroke="#191970" points="335.1914,-202.515 334.8334,-191.9262 328.51,-200.4271 335.1914,-202.515"/>
</g>
<!-- Node20 -->
<g id="node20" class="node">
<title>Node20</title>
<polygon fill="none" stroke="#bfbfbf" points="340.5,-228.5 340.5,-248.5 393.5,-248.5 393.5,-228.5 340.5,-228.5"/>
<text text-anchor="middle" x="367" y="-235.5" font-family="FreeSans" font-size="10.00" fill="#000000">cassert</text>
</g>
<!-- Node4&#45;&gt;Node20 -->
<g id="edge29" class="edge">
<title>Node4&#45;&gt;Node20</title>
<path fill="none" stroke="#191970" d="M415.9047,-342.3217C410.4255,-333.0089 402.2955,-318.7769 396,-306 388.1835,-290.1362 380.3269,-271.6552 374.7666,-258.0458"/>
<polygon fill="#191970" stroke="#191970" points="377.9883,-256.6765 371.0009,-248.7123 371.4967,-259.2956 377.9883,-256.6765"/>
</g>
<!-- Node6 -->
<g id="node6" class="node">
<title>Node6</title>
<g id="a_node6"><a xlink:href="../../db/d4f/SharedPlanePtr_8h.html" target="_top" xlink:title="SharedPlanePtr.h">
<polygon fill="none" stroke="#000000" points="404,-171.5 404,-191.5 506,-191.5 506,-171.5 404,-171.5"/>
<text text-anchor="middle" x="455" y="-178.5" font-family="FreeSans" font-size="10.00" fill="#000000">SharedPlanePtr.h</text>
</a>
</g>
</g>
<!-- Node5&#45;&gt;Node6 -->
<g id="edge5" class="edge">
<title>Node5&#45;&gt;Node6</title>
<path fill="none" stroke="#191970" d="M449.9462,-285.4324C447.5201,-272.2377 444.0461,-248.3776 446,-228 446.8309,-219.3339 448.514,-209.8825 450.2021,-201.7775"/>
<polygon fill="#191970" stroke="#191970" points="453.6755,-202.2812 452.4279,-191.7601 446.8421,-200.7629 453.6755,-202.2812"/>
</g>
<!-- Node10 -->
<g id="node10" class="node">
<title>Node10</title>
<polygon fill="none" stroke="#bfbfbf" points="673.5,-57.5 673.5,-77.5 738.5,-77.5 738.5,-57.5 673.5,-57.5"/>
<text text-anchor="middle" x="706" y="-64.5" font-family="FreeSans" font-size="10.00" fill="#000000">TObject.h</text>
</g>
<!-- Node5&#45;&gt;Node10 -->
<g id="edge24" class="edge">
<title>Node5&#45;&gt;Node10</title>
<path fill="none" stroke="#191970" d="M454.163,-285.4679C457.5682,-271.4607 465.2508,-245.7677 479,-228 508.1887,-190.2802 627.6005,-115.1431 680.5333,-82.8424"/>
<polygon fill="#191970" stroke="#191970" points="682.5874,-85.6897 689.3149,-77.5049 678.9516,-79.708 682.5874,-85.6897"/>
</g>
<!-- Node5&#45;&gt;Node13 -->
<g id="edge13" class="edge">
<title>Node5&#45;&gt;Node13</title>
<path fill="none" stroke="#191970" d="M466.66,-285.3095C479.0202,-276.7177 496.9191,-264.2758 511.1571,-254.3786"/>
<polygon fill="#191970" stroke="#191970" points="513.2536,-257.1839 519.467,-248.6022 509.2581,-251.4361 513.2536,-257.1839"/>
</g>
<!-- Node17 -->
<g id="node17" class="node">
<title>Node17</title>
<polygon fill="none" stroke="#bfbfbf" points="638,-171.5 638,-191.5 710,-191.5 710,-171.5 638,-171.5"/>
<text text-anchor="middle" x="674" y="-178.5" font-family="FreeSans" font-size="10.00" fill="#000000">TVectorD.h</text>
</g>
<!-- Node5&#45;&gt;Node17 -->
<g id="edge25" class="edge">
<title>Node5&#45;&gt;Node17</title>
<path fill="none" stroke="#191970" d="M493.3968,-285.461C521.4057,-277.7204 558.6778,-265.5328 589,-249 614.3597,-235.1729 639.8241,-213.7047 656.1761,-198.7027"/>
<polygon fill="#191970" stroke="#191970" points="658.9388,-200.9108 663.8477,-191.5218 654.1552,-195.8003 658.9388,-200.9108"/>
</g>
<!-- Node5&#45;&gt;Node20 -->
<g id="edge26" class="edge">
<title>Node5&#45;&gt;Node20</title>
<path fill="none" stroke="#191970" d="M436.8037,-285.3095C423.9913,-276.7177 405.4376,-264.2758 390.6786,-254.3786"/>
<polygon fill="#191970" stroke="#191970" points="392.3195,-251.2649 382.0647,-248.6022 388.4208,-257.0787 392.3195,-251.2649"/>
</g>
<!-- Node7 -->
<g id="node7" class="node">
<title>Node7</title>
<g id="a_node7"><a xlink:href="../../dc/d81/DetPlane_8h.html" target="_top" xlink:title="DetPlane.h">
<polygon fill="none" stroke="#000000" points="419.5,-114.5 419.5,-134.5 490.5,-134.5 490.5,-114.5 419.5,-114.5"/>
<text text-anchor="middle" x="455" y="-121.5" font-family="FreeSans" font-size="10.00" fill="#000000">DetPlane.h</text>
</a>
</g>
</g>
<!-- Node6&#45;&gt;Node7 -->
<g id="edge6" class="edge">
<title>Node6&#45;&gt;Node7</title>
<path fill="none" stroke="#191970" d="M455,-171.3095C455,-163.9335 455,-153.72 455,-144.715"/>
<polygon fill="#191970" stroke="#191970" points="458.5001,-144.6022 455,-134.6022 451.5001,-144.6023 458.5001,-144.6022"/>
</g>
<!-- Node6&#45;&gt;Node12 -->
<g id="edge12" class="edge">
<title>Node6&#45;&gt;Node12</title>
<path fill="none" stroke="#191970" d="M437.6951,-171.3833C403.3646,-151.3132 326.4733,-106.3613 286.0191,-82.7112"/>
<polygon fill="#191970" stroke="#191970" points="287.6656,-79.6195 277.2662,-77.5941 284.1327,-85.6626 287.6656,-79.6195"/>
</g>
<!-- Node8 -->
<g id="node8" class="node">
<title>Node8</title>
<g id="a_node8"><a xlink:href="../../d1/dd1/AbsFinitePlane_8h.html" target="_top" xlink:title="AbsFinitePlane.h">
<polygon fill="none" stroke="#000000" points="393,-57.5 393,-77.5 493,-77.5 493,-57.5 393,-57.5"/>
<text text-anchor="middle" x="443" y="-64.5" font-family="FreeSans" font-size="10.00" fill="#000000">AbsFinitePlane.h</text>
</a>
</g>
</g>
<!-- Node7&#45;&gt;Node8 -->
<g id="edge7" class="edge">
<title>Node7&#45;&gt;Node8</title>
<path fill="none" stroke="#191970" d="M452.8546,-114.3095C451.2847,-106.8524 449.1042,-96.4951 447.1934,-87.4186"/>
<polygon fill="#191970" stroke="#191970" points="450.6119,-86.6667 445.1268,-77.6022 443.762,-88.1088 450.6119,-86.6667"/>
</g>
<!-- Node7&#45;&gt;Node10 -->
<g id="edge9" class="edge">
<title>Node7&#45;&gt;Node10</title>
<path fill="none" stroke="#191970" d="M490.6956,-116.3938C536.1842,-106.0637 614.728,-88.2271 663.3287,-77.1903"/>
<polygon fill="#191970" stroke="#191970" points="664.2458,-80.5712 673.2224,-74.9435 662.6955,-73.745 664.2458,-80.5712"/>
</g>
<!-- Node11 -->
<g id="node11" class="node">
<title>Node11</title>
<polygon fill="none" stroke="#bfbfbf" points="511.5,-57.5 511.5,-77.5 582.5,-77.5 582.5,-57.5 511.5,-57.5"/>
<text text-anchor="middle" x="547" y="-64.5" font-family="FreeSans" font-size="10.00" fill="#000000">TVector3.h</text>
</g>
<!-- Node7&#45;&gt;Node11 -->
<g id="edge10" class="edge">
<title>Node7&#45;&gt;Node11</title>
<path fill="none" stroke="#191970" d="M471.4478,-114.3095C485.4462,-105.6366 505.7765,-93.0407 521.8224,-83.0992"/>
<polygon fill="#191970" stroke="#191970" points="524.0373,-85.8442 530.6946,-77.6022 520.3506,-79.8938 524.0373,-85.8442"/>
</g>
<!-- Node7&#45;&gt;Node12 -->
<g id="edge11" class="edge">
<title>Node7&#45;&gt;Node12</title>
<path fill="none" stroke="#191970" d="M420.5868,-114.4408C386.6525,-104.5215 334.8507,-89.3794 299.3125,-78.9913"/>
<polygon fill="#191970" stroke="#191970" points="299.8768,-75.5099 289.2965,-76.0636 297.9128,-82.2288 299.8768,-75.5099"/>
</g>
<!-- Node9 -->
<g id="node9" class="node">
<title>Node9</title>
<polygon fill="none" stroke="#bfbfbf" points="713,-.5 713,-20.5 773,-20.5 773,-.5 713,-.5"/>
<text text-anchor="middle" x="743" y="-7.5" font-family="FreeSans" font-size="10.00" fill="#000000">Rtypes.h</text>
</g>
<!-- Node8&#45;&gt;Node9 -->
<g id="edge8" class="edge">
<title>Node8&#45;&gt;Node9</title>
<path fill="none" stroke="#191970" d="M493.2133,-57.9595C552.1335,-46.7646 648.6471,-28.4271 702.8372,-18.1309"/>
<polygon fill="#191970" stroke="#191970" points="703.595,-21.5497 712.7659,-16.2445 702.2883,-14.6727 703.595,-21.5497"/>
</g>
<!-- Node13&#45;&gt;Node6 -->
<g id="edge14" class="edge">
<title>Node13&#45;&gt;Node6</title>
<path fill="none" stroke="#191970" d="M519.8764,-228.3095C508.0807,-219.7987 491.0492,-207.5102 477.3963,-197.6594"/>
<polygon fill="#191970" stroke="#191970" points="479.1588,-194.6151 469.0013,-191.6022 475.0629,-200.2918 479.1588,-194.6151"/>
</g>
<!-- Node13&#45;&gt;Node10 -->
<g id="edge20" class="edge">
<title>Node13&#45;&gt;Node10</title>
<path fill="none" stroke="#191970" d="M544.2443,-228.3153C572.6179,-200.1066 652.4851,-120.7038 688.2704,-85.1266"/>
<polygon fill="#191970" stroke="#191970" points="690.9679,-87.3801 695.5919,-77.8476 686.0326,-82.4159 690.9679,-87.3801"/>
</g>
<!-- Node13&#45;&gt;Node11 -->
<g id="edge19" class="edge">
<title>Node13&#45;&gt;Node11</title>
<path fill="none" stroke="#191970" d="M534.7743,-228.3153C536.8647,-200.8178 542.6534,-124.6748 545.4492,-87.8993"/>
<polygon fill="#191970" stroke="#191970" points="548.9451,-88.0841 546.2133,-77.8476 541.9653,-87.5534 548.9451,-88.0841"/>
</g>
<!-- Node14 -->
<g id="node14" class="node">
<title>Node14</title>
<g id="a_node14"><a xlink:href="../../df/d12/Material_8h.html" target="_top" xlink:title="Material.h">
<polygon fill="none" stroke="#000000" points="804,-171.5 804,-191.5 870,-191.5 870,-171.5 804,-171.5"/>
<text text-anchor="middle" x="837" y="-178.5" font-family="FreeSans" font-size="10.00" fill="#000000">Material.h</text>
</a>
</g>
</g>
<!-- Node13&#45;&gt;Node14 -->
<g id="edge15" class="edge">
<title>Node13&#45;&gt;Node14</title>
<path fill="none" stroke="#191970" d="M579.6902,-229.9048C637.5872,-219.0133 736.6628,-200.3753 793.4987,-189.6834"/>
<polygon fill="#191970" stroke="#191970" points="794.4197,-193.0716 803.6002,-187.7831 793.1255,-186.1923 794.4197,-193.0716"/>
</g>
<!-- Node13&#45;&gt;Node17 -->
<g id="edge21" class="edge">
<title>Node13&#45;&gt;Node17</title>
<path fill="none" stroke="#191970" d="M558.7069,-228.4408C581.1599,-219.2992 614.5084,-205.7216 639.5712,-195.5174"/>
<polygon fill="#191970" stroke="#191970" points="641.1272,-198.663 649.0692,-191.6504 638.4875,-192.1797 641.1272,-198.663"/>
</g>
<!-- Node13&#45;&gt;Node18 -->
<g id="edge22" class="edge">
<title>Node13&#45;&gt;Node18</title>
<path fill="none" stroke="#191970" d="M488.0739,-230.646C439.7179,-222.2304 361.1356,-208.1423 284.1802,-192.183"/>
<polygon fill="#191970" stroke="#191970" points="284.8215,-188.7416 274.3175,-190.1254 283.3918,-195.594 284.8215,-188.7416"/>
</g>
<!-- Node13&#45;&gt;Node19 -->
<g id="edge23" class="edge">
<title>Node13&#45;&gt;Node19</title>
<path fill="none" stroke="#191970" d="M499.5868,-228.4408C467.2448,-218.9869 418.6726,-204.7889 383.4188,-194.484"/>
<polygon fill="#191970" stroke="#191970" points="383.977,-191.0007 373.3966,-191.5544 382.0129,-197.7195 383.977,-191.0007"/>
</g>
<!-- Node14&#45;&gt;Node10 -->
<g id="edge18" class="edge">
<title>Node14&#45;&gt;Node10</title>
<path fill="none" stroke="#191970" d="M817.3354,-171.3444C801.7383,-162.7889 779.8378,-149.6279 763,-135 746.1238,-120.3388 729.9879,-100.4922 719.2196,-86.117"/>
<polygon fill="#191970" stroke="#191970" points="721.9833,-83.967 713.2499,-77.9688 716.3366,-88.104 721.9833,-83.967"/>
</g>
<!-- Node15 -->
<g id="node15" class="node">
<title>Node15</title>
<g id="a_node15"><a xlink:href="../../d7/d83/EigenMatrixTypedefs_8h.html" target="_top" xlink:title="EigenMatrixTypedefs.h">
<polygon fill="none" stroke="#000000" points="772,-114.5 772,-134.5 902,-134.5 902,-114.5 772,-114.5"/>
<text text-anchor="middle" x="837" y="-121.5" font-family="FreeSans" font-size="10.00" fill="#000000">EigenMatrixTypedefs.h</text>
</a>
</g>
</g>
<!-- Node14&#45;&gt;Node15 -->
<g id="edge16" class="edge">
<title>Node14&#45;&gt;Node15</title>
<path fill="none" stroke="#191970" d="M837,-171.3095C837,-163.9335 837,-153.72 837,-144.715"/>
<polygon fill="#191970" stroke="#191970" points="840.5001,-144.6022 837,-134.6022 833.5001,-144.6023 840.5001,-144.6022"/>
</g>
<!-- Node16 -->
<g id="node16" class="node">
<title>Node16</title>
<polygon fill="none" stroke="#bfbfbf" points="797,-57.5 797,-77.5 877,-77.5 877,-57.5 797,-57.5"/>
<text text-anchor="middle" x="837" y="-64.5" font-family="FreeSans" font-size="10.00" fill="#000000">Eigen/Dense</text>
</g>
<!-- Node15&#45;&gt;Node16 -->
<g id="edge17" class="edge">
<title>Node15&#45;&gt;Node16</title>
<path fill="none" stroke="#191970" d="M837,-114.3095C837,-106.9335 837,-96.72 837,-87.715"/>
<polygon fill="#191970" stroke="#191970" points="840.5001,-87.6022 837,-77.6022 833.5001,-87.6023 840.5001,-87.6022"/>
</g>
<!-- Node21&#45;&gt;Node10 -->
<g id="edge31" class="edge">
<title>Node21&#45;&gt;Node10</title>
<path fill="none" stroke="#191970" d="M691.1275,-228.2638C700.8908,-219.7565 713.4452,-206.6992 719,-192 722.2993,-183.2693 721.9515,-179.8544 719,-171 712.6754,-152.0263 698.3246,-153.9737 692,-135 686.7523,-119.257 691.2962,-100.7659 696.5644,-87.122"/>
<polygon fill="#191970" stroke="#191970" points="699.8552,-88.3287 700.584,-77.759 693.4229,-85.5672 699.8552,-88.3287"/>
</g>
<!-- Node21&#45;&gt;Node17 -->
<g id="edge33" class="edge">
<title>Node21&#45;&gt;Node17</title>
<path fill="none" stroke="#191970" d="M677.2849,-228.3095C676.7673,-220.9335 676.0505,-210.72 675.4186,-201.715"/>
<polygon fill="#191970" stroke="#191970" points="678.9005,-201.3327 674.7089,-191.6022 671.9176,-201.8227 678.9005,-201.3327"/>
</g>
<!-- Node21&#45;&gt;Node19 -->
<g id="edge32" class="edge">
<title>Node21&#45;&gt;Node19</title>
<path fill="none" stroke="#191970" d="M635.757,-231.8629C582.3472,-223.4042 487.3074,-208.1296 396.0033,-192.1488"/>
<polygon fill="#191970" stroke="#191970" points="396.4944,-188.6815 386.0398,-190.3993 395.2838,-195.576 396.4944,-188.6815"/>
</g>
<!-- Node23&#45;&gt;Node10 -->
<g id="edge53" class="edge">
<title>Node23&#45;&gt;Node10</title>
<path fill="none" stroke="#191970" d="M862.3019,-519.1184C913.8007,-512.599 1000.2496,-498.7285 1023,-477 1045.5379,-455.4744 1042,-440.6658 1042,-409.5 1042,-409.5 1042,-409.5 1042,-295.5 1042,-205.0621 1022.2697,-168.37 950,-114 934.0946,-102.034 814.2247,-83.1424 748.6179,-73.5381"/>
<polygon fill="#191970" stroke="#191970" points="748.978,-70.0538 738.5785,-72.0789 747.9711,-76.981 748.978,-70.0538"/>
</g>
<!-- Node23&#45;&gt;Node12 -->
<g id="edge56" class="edge">
<title>Node23&#45;&gt;Node12</title>
<path fill="none" stroke="#191970" d="M783.8463,-521.1768C638.1912,-512.0209 136,-475.6559 136,-409.5 136,-409.5 136,-409.5 136,-181.5 136,-133.0462 187.946,-99.5581 224.5949,-81.9611"/>
<polygon fill="#191970" stroke="#191970" points="226.388,-84.9886 234.0055,-77.6249 223.4586,-78.631 226.388,-84.9886"/>
</g>
<!-- Node24 -->
<g id="node24" class="node">
<title>Node24</title>
<g id="a_node24"><a xlink:href="../../d9/d7a/AbsMeasurement_8h.html" target="_top" xlink:title="AbsMeasurement.h">
<polygon fill="none" stroke="#000000" points="591,-456.5 591,-476.5 705,-476.5 705,-456.5 591,-456.5"/>
<text text-anchor="middle" x="648" y="-463.5" font-family="FreeSans" font-size="10.00" fill="#000000">AbsMeasurement.h</text>
</a>
</g>
</g>
<!-- Node23&#45;&gt;Node24 -->
<g id="edge38" class="edge">
<title>Node23&#45;&gt;Node24</title>
<path fill="none" stroke="#191970" d="M792.1163,-513.4408C763.3406,-504.0681 720.2483,-490.0323 688.6804,-479.7502"/>
<polygon fill="#191970" stroke="#191970" points="689.4611,-476.3235 678.8687,-476.5544 687.2931,-482.9794 689.4611,-476.3235"/>
</g>
<!-- Node25 -->
<g id="node25" class="node">
<title>Node25</title>
<g id="a_node25"><a xlink:href="../../d4/d0b/AbsFitterInfo_8h.html" target="_top" xlink:title="AbsFitterInfo.h">
<polygon fill="none" stroke="#000000" points="723,-456.5 723,-476.5 813,-476.5 813,-456.5 723,-456.5"/>
<text text-anchor="middle" x="768" y="-463.5" font-family="FreeSans" font-size="10.00" fill="#000000">AbsFitterInfo.h</text>
</a>
</g>
</g>
<!-- Node23&#45;&gt;Node25 -->
<g id="edge42" class="edge">
<title>Node23&#45;&gt;Node25</title>
<path fill="none" stroke="#191970" d="M813.1671,-513.3095C805.346,-505.204 794.2185,-493.672 784.9656,-484.0826"/>
<polygon fill="#191970" stroke="#191970" points="787.2102,-481.3681 777.7478,-476.6022 782.1728,-486.2288 787.2102,-481.3681"/>
</g>
<!-- Node28 -->
<g id="node28" class="node">
<title>Node28</title>
<g id="a_node28"><a xlink:href="../../df/da2/ThinScatterer_8h.html" target="_top" xlink:title="ThinScatterer.h">
<polygon fill="none" stroke="#000000" points="825,-228.5 825,-248.5 919,-248.5 919,-228.5 825,-228.5"/>
<text text-anchor="middle" x="872" y="-235.5" font-family="FreeSans" font-size="10.00" fill="#000000">ThinScatterer.h</text>
</a>
</g>
</g>
<!-- Node23&#45;&gt;Node28 -->
<g id="edge49" class="edge">
<title>Node23&#45;&gt;Node28</title>
<path fill="none" stroke="#191970" d="M835.217,-513.4776C862.2106,-490.3955 926.1866,-430.278 947,-363 960.1114,-320.618 919.8401,-277.7288 893.3251,-255.0185"/>
<polygon fill="#191970" stroke="#191970" points="895.5494,-252.3161 885.6123,-248.6412 891.0888,-257.7109 895.5494,-252.3161"/>
</g>
<!-- Node29 -->
<g id="node29" class="node">
<title>Node29</title>
<polygon fill="none" stroke="#bfbfbf" points="907.5,-456.5 907.5,-476.5 946.5,-476.5 946.5,-456.5 907.5,-456.5"/>
<text text-anchor="middle" x="927" y="-463.5" font-family="FreeSans" font-size="10.00" fill="#000000">map</text>
</g>
<!-- Node23&#45;&gt;Node29 -->
<g id="edge54" class="edge">
<title>Node23&#45;&gt;Node29</title>
<path fill="none" stroke="#191970" d="M841.5931,-513.3095C857.7132,-504.4745 881.2611,-491.5684 899.5503,-481.5445"/>
<polygon fill="#191970" stroke="#191970" points="901.4808,-484.4778 908.5679,-476.6022 898.1164,-478.3393 901.4808,-484.4778"/>
</g>
<!-- Node30 -->
<g id="node30" class="node">
<title>Node30</title>
<polygon fill="none" stroke="#bfbfbf" points="964.5,-456.5 964.5,-476.5 1013.5,-476.5 1013.5,-456.5 964.5,-456.5"/>
<text text-anchor="middle" x="989" y="-463.5" font-family="FreeSans" font-size="10.00" fill="#000000">vector</text>
</g>
<!-- Node23&#45;&gt;Node30 -->
<g id="edge55" class="edge">
<title>Node23&#45;&gt;Node30</title>
<path fill="none" stroke="#191970" d="M852.2954,-513.4408C880.8946,-503.6205 924.4022,-488.6812 954.6241,-478.3038"/>
<polygon fill="#191970" stroke="#191970" points="956.0019,-481.5313 964.3232,-474.9734 953.7285,-474.9108 956.0019,-481.5313"/>
</g>
<!-- Node24&#45;&gt;Node3 -->
<g id="edge39" class="edge">
<title>Node24&#45;&gt;Node3</title>
<path fill="none" stroke="#191970" d="M598.0567,-456.4408C549.7092,-446.7029 476.3706,-431.9315 424.9064,-421.566"/>
<polygon fill="#191970" stroke="#191970" points="425.4134,-418.0979 414.9192,-419.5544 424.0312,-424.96 425.4134,-418.0979"/>
</g>
<!-- Node24&#45;&gt;Node10 -->
<g id="edge41" class="edge">
<title>Node24&#45;&gt;Node10</title>
<path fill="none" stroke="#191970" d="M657.4394,-456.4583C678.4608,-434.3764 731.2098,-380.5023 781,-342 842.1578,-294.7072 890.4113,-316.5572 928,-249 957.1731,-196.5679 966.8503,-160.557 929,-114 917.68,-100.076 810.3185,-82.5222 748.7894,-73.4845"/>
<polygon fill="#191970" stroke="#191970" points="748.9978,-69.9781 738.5985,-72.0038 747.9913,-76.9054 748.9978,-69.9781"/>
</g>
<!-- Node24&#45;&gt;Node21 -->
<g id="edge40" class="edge">
<title>Node24&#45;&gt;Node21</title>
<path fill="none" stroke="#191970" d="M649.3278,-456.4089C653.9154,-421.5428 669.155,-305.7219 675.3485,-258.6513"/>
<polygon fill="#191970" stroke="#191970" points="678.819,-259.1044 676.6535,-248.7332 671.8788,-258.1911 678.819,-259.1044"/>
</g>
<!-- Node25&#45;&gt;Node3 -->
<g id="edge43" class="edge">
<title>Node25&#45;&gt;Node3</title>
<path fill="none" stroke="#191970" d="M722.9548,-457.533C719.9278,-456.9947 716.9218,-456.4783 714,-456 621.5764,-440.871 514.7723,-427.1951 443.9069,-418.6522"/>
<polygon fill="#191970" stroke="#191970" points="444.0639,-415.146 433.7181,-417.4294 443.2298,-422.0961 444.0639,-415.146"/>
</g>
<!-- Node25&#45;&gt;Node10 -->
<g id="edge47" class="edge">
<title>Node25&#45;&gt;Node10</title>
<path fill="none" stroke="#191970" d="M767.3924,-456.4691C764.9916,-418.7345 755.2413,-281.8172 734,-171 728.3303,-141.4205 718.6427,-107.8877 712.2808,-87.2143"/>
<polygon fill="#191970" stroke="#191970" points="715.62,-86.1651 709.296,-77.6646 708.9387,-88.2534 715.62,-86.1651"/>
</g>
<!-- Node25&#45;&gt;Node17 -->
<g id="edge48" class="edge">
<title>Node25&#45;&gt;Node17</title>
<path fill="none" stroke="#191970" d="M768.7413,-456.1462C770.7525,-421.3619 773.4701,-306.4825 729,-228 722.0445,-215.7247 710.5354,-205.2367 699.8382,-197.3452"/>
<polygon fill="#191970" stroke="#191970" points="701.7479,-194.4104 691.5357,-191.5886 697.7592,-200.1629 701.7479,-194.4104"/>
</g>
<!-- Node26 -->
<g id="node26" class="node">
<title>Node26</title>
<g id="a_node26"><a xlink:href="../../d5/da6/FitStatus_8h.html" target="_top" xlink:title="FitStatus.h">
<polygon fill="none" stroke="#000000" points="829.5,-399.5 829.5,-419.5 898.5,-419.5 898.5,-399.5 829.5,-399.5"/>
<text text-anchor="middle" x="864" y="-406.5" font-family="FreeSans" font-size="10.00" fill="#000000">FitStatus.h</text>
</a>
</g>
</g>
<!-- Node25&#45;&gt;Node26 -->
<g id="edge44" class="edge">
<title>Node25&#45;&gt;Node26</title>
<path fill="none" stroke="#191970" d="M785.1629,-456.3095C799.9064,-447.5556 821.3812,-434.8049 838.196,-424.8211"/>
<polygon fill="#191970" stroke="#191970" points="840.1741,-427.7172 846.9857,-419.6022 836.6002,-421.6982 840.1741,-427.7172"/>
</g>
<!-- Node26&#45;&gt;Node9 -->
<g id="edge45" class="edge">
<title>Node26&#45;&gt;Node9</title>
<path fill="none" stroke="#191970" d="M896.739,-399.4662C914.5686,-392.2466 935.3186,-380.6216 947,-363 1008.1506,-270.7531 1008.6408,-207.8623 950,-114 913.3302,-55.3051 832.2937,-28.7388 783.1953,-17.6383"/>
<polygon fill="#191970" stroke="#191970" points="783.7425,-14.1761 773.2305,-15.4984 782.2727,-21.0201 783.7425,-14.1761"/>
</g>
<!-- Node27 -->
<g id="node27" class="node">
<title>Node27</title>
<polygon fill="none" stroke="#bfbfbf" points="790,-342.5 790,-362.5 938,-362.5 938,-342.5 790,-342.5"/>
<text text-anchor="middle" x="864" y="-349.5" font-family="FreeSans" font-size="10.00" fill="#000000">Math/ProbFuncMathCore.h</text>
</g>
<!-- Node26&#45;&gt;Node27 -->
<g id="edge46" class="edge">
<title>Node26&#45;&gt;Node27</title>
<path fill="none" stroke="#191970" d="M864,-399.3095C864,-391.9335 864,-381.72 864,-372.715"/>
<polygon fill="#191970" stroke="#191970" points="867.5001,-372.6022 864,-362.6022 860.5001,-372.6023 867.5001,-372.6022"/>
</g>
<!-- Node28&#45;&gt;Node6 -->
<g id="edge50" class="edge">
<title>Node28&#45;&gt;Node6</title>
<path fill="none" stroke="#191970" d="M824.9754,-232.0722C749.2186,-221.7169 600.1799,-201.3447 516.2278,-189.8693"/>
<polygon fill="#191970" stroke="#191970" points="516.4548,-186.3678 506.0729,-188.4812 515.5067,-193.3033 516.4548,-186.3678"/>
</g>
<!-- Node28&#45;&gt;Node10 -->
<g id="edge52" class="edge">
<title>Node28&#45;&gt;Node10</title>
<path fill="none" stroke="#191970" d="M880.8402,-228.3155C899.5636,-205.4756 939.2682,-149.3984 911,-114 900.8702,-101.3152 805.7947,-83.8007 748.7452,-74.2975"/>
<polygon fill="#191970" stroke="#191970" points="749.0005,-70.7924 738.5643,-72.6192 747.8619,-77.6992 749.0005,-70.7924"/>
</g>
<!-- Node28&#45;&gt;Node14 -->
<g id="edge51" class="edge">
<title>Node28&#45;&gt;Node14</title>
<path fill="none" stroke="#191970" d="M865.7427,-228.3095C860.9647,-220.5282 854.2477,-209.589 848.5084,-200.2423"/>
<polygon fill="#191970" stroke="#191970" points="851.4184,-198.2925 843.2031,-191.6022 845.4532,-201.9554 851.4184,-198.2925"/>
</g>
</g>
</svg>
