<?xml version="1.0" encoding="UTF-8" standalone="no"?>
<!DOCTYPE svg PUBLIC "-//W3C//DTD SVG 1.1//EN"
 "http://www.w3.org/Graphics/SVG/1.1/DTD/svg11.dtd">
<!-- Generated by graphviz version 2.40.1 (20161225.0304)
 -->
<!-- Title: GPUTPCTrackParam::Rotate Pages: 1 -->
<svg width="748pt" height="482pt"
 viewBox="0.00 0.00 748.00 482.00" xmlns="http://www.w3.org/2000/svg" xmlns:xlink="http://www.w3.org/1999/xlink">
<g id="graph0" class="graph" transform="scale(1 1) rotate(0) translate(4 478)">
<title>GPUTPCTrackParam::Rotate</title>
<!-- Node1 -->
<g id="node1" class="node">
<title>Node1</title>
<polygon fill="#bfbfbf" stroke="#000000" points="0,-229.5 0,-249.5 154,-249.5 154,-229.5 0,-229.5"/>
<text text-anchor="middle" x="77" y="-236.5" font-family="FreeSans" font-size="10.00" fill="#000000">GPUTPCTrackParam::Rotate</text>
</g>
<!-- Node2 -->
<g id="node2" class="node">
<title>Node2</title>
<g id="a_node2"><a xlink:href="../../d4/d60/classGPUTPCTrackParam.html#a4b66856dccf7d372da03b8620f151da6" target="_top" xlink:title="GPUTPCTrackParam::DzDs">
<polygon fill="none" stroke="#000000" points="202.5,-447.5 202.5,-467.5 350.5,-467.5 350.5,-447.5 202.5,-447.5"/>
<text text-anchor="middle" x="276.5" y="-454.5" font-family="FreeSans" font-size="10.00" fill="#000000">GPUTPCTrackParam::DzDs</text>
</a>
</g>
</g>
<!-- Node1&#45;&gt;Node2 -->
<g id="edge1" class="edge">
<title>Node1&#45;&gt;Node2</title>
<path fill="none" stroke="#191970" d="M79.6006,-249.7375C88.5815,-282.8856 121.5656,-388.0469 190,-438.5 192.1116,-440.0568 194.326,-441.4904 196.62,-442.8105"/>
<polygon fill="#191970" stroke="#191970" points="195.2996,-446.062 205.8148,-447.3587 198.4033,-439.7877 195.2996,-446.062"/>
</g>
<!-- Node4 -->
<g id="node4" class="node">
<title>Node4</title>
<g id="a_node4"><a xlink:href="../../d4/d60/classGPUTPCTrackParam.html#abd70f63eee16a4313601e170b5073612" target="_top" xlink:title="GPUTPCTrackParam::GetCosPhi">
<polygon fill="none" stroke="#000000" points="190,-408.5 190,-428.5 363,-428.5 363,-408.5 190,-408.5"/>
<text text-anchor="middle" x="276.5" y="-415.5" font-family="FreeSans" font-size="10.00" fill="#000000">GPUTPCTrackParam::GetCosPhi</text>
</a>
</g>
</g>
<!-- Node1&#45;&gt;Node4 -->
<g id="edge3" class="edge">
<title>Node1&#45;&gt;Node4</title>
<path fill="none" stroke="#191970" d="M81.4636,-249.547C94.1948,-277.0275 133.4465,-354.0109 190,-393.5 196.6517,-398.1446 204.1614,-401.9335 211.9079,-405.0227"/>
<polygon fill="#191970" stroke="#191970" points="210.8383,-408.3575 221.4327,-408.4544 213.2111,-401.7719 210.8383,-408.3575"/>
</g>
<!-- Node5 -->
<g id="node5" class="node">
<title>Node5</title>
<g id="a_node5"><a xlink:href="../../d4/d60/classGPUTPCTrackParam.html#ab999cb5fde7bf1a6722d7b2991c7e4f2" target="_top" xlink:title="GPUTPCTrackParam::SinPhi">
<polygon fill="none" stroke="#000000" points="405.5,-389.5 405.5,-409.5 557.5,-409.5 557.5,-389.5 405.5,-389.5"/>
<text text-anchor="middle" x="481.5" y="-396.5" font-family="FreeSans" font-size="10.00" fill="#000000">GPUTPCTrackParam::SinPhi</text>
</a>
</g>
</g>
<!-- Node1&#45;&gt;Node5 -->
<g id="edge19" class="edge">
<title>Node1&#45;&gt;Node5</title>
<path fill="none" stroke="#191970" d="M83.0749,-249.8269C97.8757,-273.9328 138.4011,-333.8801 190,-360.5 224.7784,-378.4422 322.4238,-388.8806 395.1783,-394.3684"/>
<polygon fill="#191970" stroke="#191970" points="395.0403,-397.8676 405.27,-395.1102 395.5535,-390.8865 395.0403,-397.8676"/>
</g>
<!-- Node7 -->
<g id="node7" class="node">
<title>Node7</title>
<g id="a_node7"><a xlink:href="../../d4/d60/classGPUTPCTrackParam.html#ab58848889eee0d630ccfddf8e486eb64" target="_top" xlink:title="GPUTPCTrackParam::QPt">
<polygon fill="none" stroke="#000000" points="206.5,-330.5 206.5,-350.5 346.5,-350.5 346.5,-330.5 206.5,-330.5"/>
<text text-anchor="middle" x="276.5" y="-337.5" font-family="FreeSans" font-size="10.00" fill="#000000">GPUTPCTrackParam::QPt</text>
</a>
</g>
</g>
<!-- Node1&#45;&gt;Node7 -->
<g id="edge6" class="edge">
<title>Node1&#45;&gt;Node7</title>
<path fill="none" stroke="#191970" d="M87.5808,-249.5545C106.5321,-266.9838 148.2067,-302.7369 190,-321.5 194.997,-323.7434 200.2783,-325.7304 205.6681,-327.4888"/>
<polygon fill="#191970" stroke="#191970" points="204.8653,-330.9018 215.4489,-330.4133 206.8706,-324.1952 204.8653,-330.9018"/>
</g>
<!-- Node9 -->
<g id="node9" class="node">
<title>Node9</title>
<g id="a_node9"><a xlink:href="../../d4/d60/classGPUTPCTrackParam.html#a2f7fdd45ddf6251ab1695f5e1bd53b11" target="_top" xlink:title="GPUTPCTrackParam::SetDzDs">
<polygon fill="none" stroke="#000000" points="194.5,-291.5 194.5,-311.5 358.5,-311.5 358.5,-291.5 194.5,-291.5"/>
<text text-anchor="middle" x="276.5" y="-298.5" font-family="FreeSans" font-size="10.00" fill="#000000">GPUTPCTrackParam::SetDzDs</text>
</a>
</g>
</g>
<!-- Node1&#45;&gt;Node9 -->
<g id="edge8" class="edge">
<title>Node1&#45;&gt;Node9</title>
<path fill="none" stroke="#191970" d="M100.459,-249.5917C123.0742,-259.0406 158.4203,-273.0791 190,-282.5 198.0483,-284.901 206.6003,-287.1424 215.0746,-289.183"/>
<polygon fill="#191970" stroke="#191970" points="214.4189,-292.6239 224.9522,-291.4839 216.007,-285.8064 214.4189,-292.6239"/>
</g>
<!-- Node11 -->
<g id="node11" class="node">
<title>Node11</title>
<g id="a_node11"><a xlink:href="../../d4/d60/classGPUTPCTrackParam.html#af26aa1c63307dbb2222f09cbb9664c0d" target="_top" xlink:title="GPUTPCTrackParam::SetQPt">
<polygon fill="none" stroke="#000000" points="198,-252.5 198,-272.5 355,-272.5 355,-252.5 198,-252.5"/>
<text text-anchor="middle" x="276.5" y="-259.5" font-family="FreeSans" font-size="10.00" fill="#000000">GPUTPCTrackParam::SetQPt</text>
</a>
</g>
</g>
<!-- Node1&#45;&gt;Node11 -->
<g id="edge10" class="edge">
<title>Node1&#45;&gt;Node11</title>
<path fill="none" stroke="#191970" d="M154.1319,-248.3924C165.1292,-249.6603 176.5136,-250.9727 187.7115,-252.2637"/>
<polygon fill="#191970" stroke="#191970" points="187.5913,-255.773 197.9264,-253.4414 188.3931,-248.819 187.5913,-255.773"/>
</g>
<!-- Node13 -->
<g id="node13" class="node">
<title>Node13</title>
<g id="a_node13"><a xlink:href="../../d4/d60/classGPUTPCTrackParam.html#a0bc0e6627fad9cdb639c051b46818673" target="_top" xlink:title="GPUTPCTrackParam::SetSign\lCosPhi">
<polygon fill="none" stroke="#000000" points="196.5,-201.5 196.5,-233.5 356.5,-233.5 356.5,-201.5 196.5,-201.5"/>
<text text-anchor="start" x="204.5" y="-220.5" font-family="FreeSans" font-size="10.00" fill="#000000">GPUTPCTrackParam::SetSign</text>
<text text-anchor="middle" x="276.5" y="-208.5" font-family="FreeSans" font-size="10.00" fill="#000000">CosPhi</text>
</a>
</g>
</g>
<!-- Node1&#45;&gt;Node13 -->
<g id="edge12" class="edge">
<title>Node1&#45;&gt;Node13</title>
<path fill="none" stroke="#191970" d="M154.1319,-230.9942C164.6015,-229.8397 175.422,-228.6464 186.0984,-227.4691"/>
<polygon fill="#191970" stroke="#191970" points="186.7181,-230.9221 196.2742,-226.347 185.9508,-223.9642 186.7181,-230.9221"/>
</g>
<!-- Node14 -->
<g id="node14" class="node">
<title>Node14</title>
<g id="a_node14"><a xlink:href="../../d4/d60/classGPUTPCTrackParam.html#a7372069e152058de5324082d33f13d1d" target="_top" xlink:title="GPUTPCTrackParam::SetSinPhi">
<polygon fill="none" stroke="#000000" points="192,-162.5 192,-182.5 361,-182.5 361,-162.5 192,-162.5"/>
<text text-anchor="middle" x="276.5" y="-169.5" font-family="FreeSans" font-size="10.00" fill="#000000">GPUTPCTrackParam::SetSinPhi</text>
</a>
</g>
</g>
<!-- Node1&#45;&gt;Node14 -->
<g id="edge13" class="edge">
<title>Node1&#45;&gt;Node14</title>
<path fill="none" stroke="#191970" d="M98.2618,-229.3994C120.6815,-219.0491 157.2273,-203.023 190,-192.5 198.6219,-189.7316 207.8422,-187.1805 216.932,-184.8928"/>
<polygon fill="#191970" stroke="#191970" points="217.8196,-188.279 226.7099,-182.5159 216.1661,-181.4771 217.8196,-188.279"/>
</g>
<!-- Node16 -->
<g id="node16" class="node">
<title>Node16</title>
<g id="a_node16"><a xlink:href="../../d4/d60/classGPUTPCTrackParam.html#ab075cd6bfe0125da9c6dbf2ea145ad2a" target="_top" xlink:title="GPUTPCTrackParam::SetX">
<polygon fill="none" stroke="#000000" points="204,-123.5 204,-143.5 349,-143.5 349,-123.5 204,-123.5"/>
<text text-anchor="middle" x="276.5" y="-130.5" font-family="FreeSans" font-size="10.00" fill="#000000">GPUTPCTrackParam::SetX</text>
</a>
</g>
</g>
<!-- Node1&#45;&gt;Node16 -->
<g id="edge15" class="edge">
<title>Node1&#45;&gt;Node16</title>
<path fill="none" stroke="#191970" d="M87.2046,-229.2678C105.8912,-211.1356 147.5979,-173.4042 190,-153.5 195.677,-150.8351 201.7345,-148.5121 207.9082,-146.4896"/>
<polygon fill="#191970" stroke="#191970" points="209.0999,-149.7861 217.6672,-143.5529 207.0827,-143.083 209.0999,-149.7861"/>
</g>
<!-- Node18 -->
<g id="node18" class="node">
<title>Node18</title>
<g id="a_node18"><a xlink:href="../../d4/d60/classGPUTPCTrackParam.html#af5e7e5ba1541757fd562e2985f166296" target="_top" xlink:title="GPUTPCTrackParam::SetY">
<polygon fill="none" stroke="#000000" points="204,-84.5 204,-104.5 349,-104.5 349,-84.5 204,-84.5"/>
<text text-anchor="middle" x="276.5" y="-91.5" font-family="FreeSans" font-size="10.00" fill="#000000">GPUTPCTrackParam::SetY</text>
</a>
</g>
</g>
<!-- Node1&#45;&gt;Node18 -->
<g id="edge17" class="edge">
<title>Node1&#45;&gt;Node18</title>
<path fill="none" stroke="#191970" d="M83.1626,-229.1588C98.1529,-204.9627 139.0582,-144.4503 190,-114.5 194.1024,-112.0881 198.4735,-109.967 202.9888,-108.1017"/>
<polygon fill="#191970" stroke="#191970" points="204.25,-111.367 212.4195,-104.621 201.8262,-104.8 204.25,-111.367"/>
</g>
<!-- Node20 -->
<g id="node20" class="node">
<title>Node20</title>
<g id="a_node20"><a xlink:href="../../d4/d60/classGPUTPCTrackParam.html#a7826bf74f3c1f54eac6300e8991b97f5" target="_top" xlink:title="GPUTPCTrackParam::X">
<polygon fill="none" stroke="#000000" points="212,-42.5 212,-62.5 341,-62.5 341,-42.5 212,-42.5"/>
<text text-anchor="middle" x="276.5" y="-49.5" font-family="FreeSans" font-size="10.00" fill="#000000">GPUTPCTrackParam::X</text>
</a>
</g>
</g>
<!-- Node1&#45;&gt;Node20 -->
<g id="edge20" class="edge">
<title>Node1&#45;&gt;Node20</title>
<path fill="none" stroke="#191970" d="M81.0539,-229.1543C92.9902,-200.09 130.9209,-117.1158 190,-75.5 195.1689,-71.859 200.8797,-68.7944 206.8297,-66.2149"/>
<polygon fill="#191970" stroke="#191970" points="208.2637,-69.4132 216.3331,-62.5477 205.7435,-62.8826 208.2637,-69.4132"/>
</g>
<!-- Node22 -->
<g id="node22" class="node">
<title>Node22</title>
<g id="a_node22"><a xlink:href="../../d4/d60/classGPUTPCTrackParam.html#ad2beefed9de1d003dc2ef4fb4e570ad3" target="_top" xlink:title="GPUTPCTrackParam::Y">
<polygon fill="none" stroke="#000000" points="212.5,-3.5 212.5,-23.5 340.5,-23.5 340.5,-3.5 212.5,-3.5"/>
<text text-anchor="middle" x="276.5" y="-10.5" font-family="FreeSans" font-size="10.00" fill="#000000">GPUTPCTrackParam::Y</text>
</a>
</g>
</g>
<!-- Node1&#45;&gt;Node22 -->
<g id="edge22" class="edge">
<title>Node1&#45;&gt;Node22</title>
<path fill="none" stroke="#191970" d="M79.3486,-229.3372C87.7423,-195.4266 119.5858,-85.3287 190,-32.5 193.9433,-29.5415 198.2557,-27.0261 202.7829,-24.8891"/>
<polygon fill="#191970" stroke="#191970" points="204.3792,-28.0185 212.3277,-21.0135 201.7456,-21.5328 204.3792,-28.0185"/>
</g>
<!-- Node3 -->
<g id="node3" class="node">
<title>Node3</title>
<g id="a_node3"><a xlink:href="../../d3/dbf/classGPUTPCBaseTrackParam.html#a0ebcee5a776f32e8dfc25b1b3a4a1987" target="_top" xlink:title="GPUTPCBaseTrackParam\l::DzDs">
<polygon fill="none" stroke="#000000" points="411.5,-441.5 411.5,-473.5 551.5,-473.5 551.5,-441.5 411.5,-441.5"/>
<text text-anchor="start" x="419.5" y="-460.5" font-family="FreeSans" font-size="10.00" fill="#000000">GPUTPCBaseTrackParam</text>
<text text-anchor="middle" x="481.5" y="-448.5" font-family="FreeSans" font-size="10.00" fill="#000000">::DzDs</text>
</a>
</g>
</g>
<!-- Node2&#45;&gt;Node3 -->
<g id="edge2" class="edge">
<title>Node2&#45;&gt;Node3</title>
<path fill="none" stroke="#191970" d="M350.5097,-457.5C366.9404,-457.5 384.4321,-457.5 401.1046,-457.5"/>
<polygon fill="#191970" stroke="#191970" points="401.3629,-461.0001 411.3628,-457.5 401.3628,-454.0001 401.3629,-461.0001"/>
</g>
<!-- Node4&#45;&gt;Node5 -->
<g id="edge4" class="edge">
<title>Node4&#45;&gt;Node5</title>
<path fill="none" stroke="#191970" d="M363.1413,-410.4698C373.7411,-409.4874 384.5727,-408.4835 395.1679,-407.5015"/>
<polygon fill="#191970" stroke="#191970" points="395.6041,-410.9762 405.2384,-406.5681 394.9581,-404.006 395.6041,-410.9762"/>
</g>
<!-- Node6 -->
<g id="node6" class="node">
<title>Node6</title>
<g id="a_node6"><a xlink:href="../../d3/dbf/classGPUTPCBaseTrackParam.html#a55024cab5ff7847d2c33e644c1394657" target="_top" xlink:title="GPUTPCBaseTrackParam\l::SinPhi">
<polygon fill="none" stroke="#000000" points="600,-383.5 600,-415.5 740,-415.5 740,-383.5 600,-383.5"/>
<text text-anchor="start" x="608" y="-402.5" font-family="FreeSans" font-size="10.00" fill="#000000">GPUTPCBaseTrackParam</text>
<text text-anchor="middle" x="670" y="-390.5" font-family="FreeSans" font-size="10.00" fill="#000000">::SinPhi</text>
</a>
</g>
</g>
<!-- Node5&#45;&gt;Node6 -->
<g id="edge5" class="edge">
<title>Node5&#45;&gt;Node6</title>
<path fill="none" stroke="#191970" d="M557.6268,-399.5C568.2351,-399.5 579.1617,-399.5 589.8413,-399.5"/>
<polygon fill="#191970" stroke="#191970" points="589.9865,-403.0001 599.9864,-399.5 589.9864,-396.0001 589.9865,-403.0001"/>
</g>
<!-- Node8 -->
<g id="node8" class="node">
<title>Node8</title>
<g id="a_node8"><a xlink:href="../../d3/dbf/classGPUTPCBaseTrackParam.html#ad94185617b6167b4dfcf9547961895f3" target="_top" xlink:title="GPUTPCBaseTrackParam::QPt">
<polygon fill="none" stroke="#000000" points="399,-336.5 399,-356.5 564,-356.5 564,-336.5 399,-336.5"/>
<text text-anchor="middle" x="481.5" y="-343.5" font-family="FreeSans" font-size="10.00" fill="#000000">GPUTPCBaseTrackParam::QPt</text>
</a>
</g>
</g>
<!-- Node7&#45;&gt;Node8 -->
<g id="edge7" class="edge">
<title>Node7&#45;&gt;Node8</title>
<path fill="none" stroke="#191970" d="M346.7626,-342.5565C360.2863,-342.9523 374.6437,-343.3725 388.7523,-343.7854"/>
<polygon fill="#191970" stroke="#191970" points="388.868,-347.2902 398.9662,-344.0844 389.0729,-340.2932 388.868,-347.2902"/>
</g>
<!-- Node10 -->
<g id="node10" class="node">
<title>Node10</title>
<g id="a_node10"><a xlink:href="../../d3/dbf/classGPUTPCBaseTrackParam.html#a41cfc34f3e5c1edcede8aefcbe75b9d4" target="_top" xlink:title="GPUTPCBaseTrackParam\l::SetDzDs">
<polygon fill="none" stroke="#000000" points="411.5,-285.5 411.5,-317.5 551.5,-317.5 551.5,-285.5 411.5,-285.5"/>
<text text-anchor="start" x="419.5" y="-304.5" font-family="FreeSans" font-size="10.00" fill="#000000">GPUTPCBaseTrackParam</text>
<text text-anchor="middle" x="481.5" y="-292.5" font-family="FreeSans" font-size="10.00" fill="#000000">::SetDzDs</text>
</a>
</g>
</g>
<!-- Node9&#45;&gt;Node10 -->
<g id="edge9" class="edge">
<title>Node9&#45;&gt;Node10</title>
<path fill="none" stroke="#191970" d="M358.7001,-301.5C372.7729,-301.5 387.3775,-301.5 401.3947,-301.5"/>
<polygon fill="#191970" stroke="#191970" points="401.4815,-305.0001 411.4815,-301.5 401.4814,-298.0001 401.4815,-305.0001"/>
</g>
<!-- Node12 -->
<g id="node12" class="node">
<title>Node12</title>
<g id="a_node12"><a xlink:href="../../d3/dbf/classGPUTPCBaseTrackParam.html#ab38055e5d5fef48124cd978a5d731734" target="_top" xlink:title="GPUTPCBaseTrackParam\l::SetQPt">
<polygon fill="none" stroke="#000000" points="411.5,-234.5 411.5,-266.5 551.5,-266.5 551.5,-234.5 411.5,-234.5"/>
<text text-anchor="start" x="419.5" y="-253.5" font-family="FreeSans" font-size="10.00" fill="#000000">GPUTPCBaseTrackParam</text>
<text text-anchor="middle" x="481.5" y="-241.5" font-family="FreeSans" font-size="10.00" fill="#000000">::SetQPt</text>
</a>
</g>
</g>
<!-- Node11&#45;&gt;Node12 -->
<g id="edge11" class="edge">
<title>Node11&#45;&gt;Node12</title>
<path fill="none" stroke="#191970" d="M355.1721,-257.8948C370.2176,-257.0141 385.9883,-256.0909 401.0876,-255.2071"/>
<polygon fill="#191970" stroke="#191970" points="401.6382,-258.6809 411.4166,-254.6024 401.2291,-251.6929 401.6382,-258.6809"/>
</g>
<!-- Node15 -->
<g id="node15" class="node">
<title>Node15</title>
<g id="a_node15"><a xlink:href="../../d3/dbf/classGPUTPCBaseTrackParam.html#a7e9006bfe1d7d4d8d876eb4a4ada026c" target="_top" xlink:title="GPUTPCBaseTrackParam\l::SetSinPhi">
<polygon fill="none" stroke="#000000" points="411.5,-180.5 411.5,-212.5 551.5,-212.5 551.5,-180.5 411.5,-180.5"/>
<text text-anchor="start" x="419.5" y="-199.5" font-family="FreeSans" font-size="10.00" fill="#000000">GPUTPCBaseTrackParam</text>
<text text-anchor="middle" x="481.5" y="-187.5" font-family="FreeSans" font-size="10.00" fill="#000000">::SetSinPhi</text>
</a>
</g>
</g>
<!-- Node14&#45;&gt;Node15 -->
<g id="edge14" class="edge">
<title>Node14&#45;&gt;Node15</title>
<path fill="none" stroke="#191970" d="M361.0649,-182.4003C374.424,-183.9643 388.2027,-185.5774 401.4547,-187.1288"/>
<polygon fill="#191970" stroke="#191970" points="401.1311,-190.6148 411.4703,-188.3014 401.9451,-183.6623 401.1311,-190.6148"/>
</g>
<!-- Node17 -->
<g id="node17" class="node">
<title>Node17</title>
<g id="a_node17"><a xlink:href="../../d3/dbf/classGPUTPCBaseTrackParam.html#a92b3c3e895118fdbc0e6aa2065f3aec2" target="_top" xlink:title="GPUTPCBaseTrackParam\l::SetX">
<polygon fill="none" stroke="#000000" points="411.5,-129.5 411.5,-161.5 551.5,-161.5 551.5,-129.5 411.5,-129.5"/>
<text text-anchor="start" x="419.5" y="-148.5" font-family="FreeSans" font-size="10.00" fill="#000000">GPUTPCBaseTrackParam</text>
<text text-anchor="middle" x="481.5" y="-136.5" font-family="FreeSans" font-size="10.00" fill="#000000">::SetX</text>
</a>
</g>
</g>
<!-- Node16&#45;&gt;Node17 -->
<g id="edge16" class="edge">
<title>Node16&#45;&gt;Node17</title>
<path fill="none" stroke="#191970" d="M349.0638,-137.7476C366.0097,-138.7396 384.1521,-139.8016 401.4043,-140.8115"/>
<polygon fill="#191970" stroke="#191970" points="401.256,-144.3087 411.4434,-141.3991 401.6651,-137.3206 401.256,-144.3087"/>
</g>
<!-- Node19 -->
<g id="node19" class="node">
<title>Node19</title>
<g id="a_node19"><a xlink:href="../../d3/dbf/classGPUTPCBaseTrackParam.html#acb5c5e7da4856b3a5b0e13aabf20a8d0" target="_top" xlink:title="GPUTPCBaseTrackParam\l::SetY">
<polygon fill="none" stroke="#000000" points="411.5,-78.5 411.5,-110.5 551.5,-110.5 551.5,-78.5 411.5,-78.5"/>
<text text-anchor="start" x="419.5" y="-97.5" font-family="FreeSans" font-size="10.00" fill="#000000">GPUTPCBaseTrackParam</text>
<text text-anchor="middle" x="481.5" y="-85.5" font-family="FreeSans" font-size="10.00" fill="#000000">::SetY</text>
</a>
</g>
</g>
<!-- Node18&#45;&gt;Node19 -->
<g id="edge18" class="edge">
<title>Node18&#45;&gt;Node19</title>
<path fill="none" stroke="#191970" d="M349.0638,-94.5C366.0097,-94.5 384.1521,-94.5 401.4043,-94.5"/>
<polygon fill="#191970" stroke="#191970" points="401.4435,-98.0001 411.4434,-94.5 401.4434,-91.0001 401.4435,-98.0001"/>
</g>
<!-- Node21 -->
<g id="node21" class="node">
<title>Node21</title>
<g id="a_node21"><a xlink:href="../../d3/dbf/classGPUTPCBaseTrackParam.html#ac57749169af8c984ef3ebb820183b3b6" target="_top" xlink:title="GPUTPCBaseTrackParam::X">
<polygon fill="none" stroke="#000000" points="405,-39.5 405,-59.5 558,-59.5 558,-39.5 405,-39.5"/>
<text text-anchor="middle" x="481.5" y="-46.5" font-family="FreeSans" font-size="10.00" fill="#000000">GPUTPCBaseTrackParam::X</text>
</a>
</g>
</g>
<!-- Node20&#45;&gt;Node21 -->
<g id="edge21" class="edge">
<title>Node20&#45;&gt;Node21</title>
<path fill="none" stroke="#191970" d="M341.0819,-51.5549C358.0353,-51.3068 376.5997,-51.0351 394.5165,-50.7729"/>
<polygon fill="#191970" stroke="#191970" points="394.7327,-54.2702 404.6803,-50.6242 394.6302,-47.271 394.7327,-54.2702"/>
</g>
<!-- Node23 -->
<g id="node23" class="node">
<title>Node23</title>
<g id="a_node23"><a xlink:href="../../d3/dbf/classGPUTPCBaseTrackParam.html#ac6a732638c2b29de60b2c66504b5b3b3" target="_top" xlink:title="GPUTPCBaseTrackParam::Y">
<polygon fill="none" stroke="#000000" points="405,-.5 405,-20.5 558,-20.5 558,-.5 405,-.5"/>
<text text-anchor="middle" x="481.5" y="-7.5" font-family="FreeSans" font-size="10.00" fill="#000000">GPUTPCBaseTrackParam::Y</text>
</a>
</g>
</g>
<!-- Node22&#45;&gt;Node23 -->
<g id="edge23" class="edge">
<title>Node22&#45;&gt;Node23</title>
<path fill="none" stroke="#191970" d="M340.52,-12.5631C357.6683,-12.3122 376.4976,-12.0366 394.6555,-11.7709"/>
<polygon fill="#191970" stroke="#191970" points="394.7116,-15.2705 404.6593,-11.6245 394.6091,-8.2713 394.7116,-15.2705"/>
</g>
</g>
</svg>
