<?xml version="1.0" encoding="UTF-8" standalone="no"?>
<!DOCTYPE svg PUBLIC "-//W3C//DTD SVG 1.1//EN"
 "http://www.w3.org/Graphics/SVG/1.1/DTD/svg11.dtd">
<!-- Generated by graphviz version 2.40.1 (20161225.0304)
 -->
<!-- Title: GPUTPCTrackParam::Print Pages: 1 -->
<svg width="552pt" height="515pt"
 viewBox="0.00 0.00 552.00 515.00" xmlns="http://www.w3.org/2000/svg" xmlns:xlink="http://www.w3.org/1999/xlink">
<g id="graph0" class="graph" transform="scale(1 1) rotate(0) translate(4 511)">
<title>GPUTPCTrackParam::Print</title>
<!-- Node1 -->
<g id="node1" class="node">
<title>Node1</title>
<polygon fill="#bfbfbf" stroke="#000000" points="0,-253.5 0,-273.5 145,-273.5 145,-253.5 0,-253.5"/>
<text text-anchor="middle" x="72.5" y="-260.5" font-family="FreeSans" font-size="10.00" fill="#000000">GPUTPCTrackParam::Print</text>
</g>
<!-- Node2 -->
<g id="node2" class="node">
<title>Node2</title>
<g id="a_node2"><a xlink:href="../../d4/d60/classGPUTPCTrackParam.html#a1a911aec2f7c1268ef45295338b4c1a5" target="_top" xlink:title="GPUTPCTrackParam::GetDzDs">
<polygon fill="none" stroke="#000000" points="191.5,-480.5 191.5,-500.5 357.5,-500.5 357.5,-480.5 191.5,-480.5"/>
<text text-anchor="middle" x="274.5" y="-487.5" font-family="FreeSans" font-size="10.00" fill="#000000">GPUTPCTrackParam::GetDzDs</text>
</a>
</g>
</g>
<!-- Node1&#45;&gt;Node2 -->
<g id="edge1" class="edge">
<title>Node1&#45;&gt;Node2</title>
<path fill="none" stroke="#191970" d="M74.574,-273.7444C82.0611,-307.9216 111.0376,-418.8384 181,-471.5 183.0844,-473.069 185.2662,-474.5168 187.5256,-475.8524"/>
<polygon fill="#191970" stroke="#191970" points="186.0836,-479.0458 196.5827,-480.467 189.2614,-472.8087 186.0836,-479.0458"/>
</g>
<!-- Node4 -->
<g id="node4" class="node">
<title>Node4</title>
<g id="a_node4"><a xlink:href="../../d4/d60/classGPUTPCTrackParam.html#afe221c3a2a48acd56efc6f8bb4fb0209" target="_top" xlink:title="GPUTPCTrackParam::GetErr2DzDs">
<polygon fill="none" stroke="#000000" points="181,-441.5 181,-461.5 368,-461.5 368,-441.5 181,-441.5"/>
<text text-anchor="middle" x="274.5" y="-448.5" font-family="FreeSans" font-size="10.00" fill="#000000">GPUTPCTrackParam::GetErr2DzDs</text>
</a>
</g>
</g>
<!-- Node1&#45;&gt;Node4 -->
<g id="edge3" class="edge">
<title>Node1&#45;&gt;Node4</title>
<path fill="none" stroke="#191970" d="M75.8982,-273.9027C86.2756,-303.9143 120.5802,-391.1408 181,-432.5 183.4347,-434.1666 185.9833,-435.6934 188.6181,-437.0915"/>
<polygon fill="#191970" stroke="#191970" points="187.3227,-440.3485 197.8685,-441.3666 190.2593,-433.9942 187.3227,-440.3485"/>
</g>
<!-- Node5 -->
<g id="node5" class="node">
<title>Node5</title>
<g id="a_node5"><a xlink:href="../../d4/d60/classGPUTPCTrackParam.html#a800840b5f474ba5684f58f4710cd8329" target="_top" xlink:title="GPUTPCTrackParam::GetErr2QPt">
<polygon fill="none" stroke="#000000" points="185,-402.5 185,-422.5 364,-422.5 364,-402.5 185,-402.5"/>
<text text-anchor="middle" x="274.5" y="-409.5" font-family="FreeSans" font-size="10.00" fill="#000000">GPUTPCTrackParam::GetErr2QPt</text>
</a>
</g>
</g>
<!-- Node1&#45;&gt;Node5 -->
<g id="edge4" class="edge">
<title>Node1&#45;&gt;Node5</title>
<path fill="none" stroke="#191970" d="M77.7365,-273.6092C91.1786,-298.4669 129.4977,-362.7755 181,-393.5 184.174,-395.3935 187.5051,-397.1013 190.9416,-398.6413"/>
<polygon fill="#191970" stroke="#191970" points="189.6637,-401.8997 200.2494,-402.3385 192.2478,-395.3941 189.6637,-401.8997"/>
</g>
<!-- Node6 -->
<g id="node6" class="node">
<title>Node6</title>
<g id="a_node6"><a xlink:href="../../d4/d60/classGPUTPCTrackParam.html#aec5a9ee0fa26ffa1294054acc096ddd0" target="_top" xlink:title="GPUTPCTrackParam::GetErr2\lSinPhi">
<polygon fill="none" stroke="#000000" points="194.5,-351.5 194.5,-383.5 354.5,-383.5 354.5,-351.5 194.5,-351.5"/>
<text text-anchor="start" x="202.5" y="-370.5" font-family="FreeSans" font-size="10.00" fill="#000000">GPUTPCTrackParam::GetErr2</text>
<text text-anchor="middle" x="274.5" y="-358.5" font-family="FreeSans" font-size="10.00" fill="#000000">SinPhi</text>
</a>
</g>
</g>
<!-- Node1&#45;&gt;Node6 -->
<g id="edge5" class="edge">
<title>Node1&#45;&gt;Node6</title>
<path fill="none" stroke="#191970" d="M83.3274,-273.5332C101.9082,-290.2295 141.6765,-323.7317 181,-342.5 185.0327,-344.4247 189.2366,-346.2194 193.5326,-347.8902"/>
<polygon fill="#191970" stroke="#191970" points="192.4595,-351.2241 203.0536,-351.3524 194.8518,-344.6456 192.4595,-351.2241"/>
</g>
<!-- Node7 -->
<g id="node7" class="node">
<title>Node7</title>
<g id="a_node7"><a xlink:href="../../d4/d60/classGPUTPCTrackParam.html#a654506246e89bd72a57c6e51a21add07" target="_top" xlink:title="GPUTPCTrackParam::GetErr2Y">
<polygon fill="none" stroke="#000000" points="191,-312.5 191,-332.5 358,-332.5 358,-312.5 191,-312.5"/>
<text text-anchor="middle" x="274.5" y="-319.5" font-family="FreeSans" font-size="10.00" fill="#000000">GPUTPCTrackParam::GetErr2Y</text>
</a>
</g>
</g>
<!-- Node1&#45;&gt;Node7 -->
<g id="edge6" class="edge">
<title>Node1&#45;&gt;Node7</title>
<path fill="none" stroke="#191970" d="M96.7093,-273.638C118.4685,-282.4566 151.4531,-295.1046 181,-303.5 189.659,-305.9603 198.8551,-308.2323 207.97,-310.285"/>
<polygon fill="#191970" stroke="#191970" points="207.284,-313.7176 217.7997,-312.4249 208.773,-306.8778 207.284,-313.7176"/>
</g>
<!-- Node8 -->
<g id="node8" class="node">
<title>Node8</title>
<g id="a_node8"><a xlink:href="../../d4/d60/classGPUTPCTrackParam.html#a72d89bff9213ca6a7007c2bc5f9e13d2" target="_top" xlink:title="GPUTPCTrackParam::GetErr2Z">
<polygon fill="none" stroke="#000000" points="190.5,-273.5 190.5,-293.5 358.5,-293.5 358.5,-273.5 190.5,-273.5"/>
<text text-anchor="middle" x="274.5" y="-280.5" font-family="FreeSans" font-size="10.00" fill="#000000">GPUTPCTrackParam::GetErr2Z</text>
</a>
</g>
</g>
<!-- Node1&#45;&gt;Node8 -->
<g id="edge7" class="edge">
<title>Node1&#45;&gt;Node8</title>
<path fill="none" stroke="#191970" d="M145.1412,-270.6922C156.5139,-271.8182 168.4086,-272.9959 180.1817,-274.1616"/>
<polygon fill="#191970" stroke="#191970" points="180.1841,-277.6788 190.4803,-275.1812 180.8738,-270.7129 180.1841,-277.6788"/>
</g>
<!-- Node9 -->
<g id="node9" class="node">
<title>Node9</title>
<g id="a_node9"><a xlink:href="../../d4/d60/classGPUTPCTrackParam.html#aaa6752061a8e75fe9bb6d6d1dc787bc6" target="_top" xlink:title="GPUTPCTrackParam::GetQPt">
<polygon fill="none" stroke="#000000" points="195.5,-234.5 195.5,-254.5 353.5,-254.5 353.5,-234.5 195.5,-234.5"/>
<text text-anchor="middle" x="274.5" y="-241.5" font-family="FreeSans" font-size="10.00" fill="#000000">GPUTPCTrackParam::GetQPt</text>
</a>
</g>
</g>
<!-- Node1&#45;&gt;Node9 -->
<g id="edge8" class="edge">
<title>Node1&#45;&gt;Node9</title>
<path fill="none" stroke="#191970" d="M145.1412,-256.6674C158.1204,-255.4466 171.7795,-254.1618 185.1618,-252.9031"/>
<polygon fill="#191970" stroke="#191970" points="185.6972,-256.3683 195.3255,-251.9471 185.0416,-249.399 185.6972,-256.3683"/>
</g>
<!-- Node11 -->
<g id="node11" class="node">
<title>Node11</title>
<g id="a_node11"><a xlink:href="../../d4/d60/classGPUTPCTrackParam.html#a04e1695743213976ca94ffd81747183d" target="_top" xlink:title="GPUTPCTrackParam::GetSign\lCosPhi">
<polygon fill="none" stroke="#000000" points="193.5,-183.5 193.5,-215.5 355.5,-215.5 355.5,-183.5 193.5,-183.5"/>
<text text-anchor="start" x="201.5" y="-202.5" font-family="FreeSans" font-size="10.00" fill="#000000">GPUTPCTrackParam::GetSign</text>
<text text-anchor="middle" x="274.5" y="-190.5" font-family="FreeSans" font-size="10.00" fill="#000000">CosPhi</text>
</a>
</g>
</g>
<!-- Node1&#45;&gt;Node11 -->
<g id="edge10" class="edge">
<title>Node1&#45;&gt;Node11</title>
<path fill="none" stroke="#191970" d="M99.5348,-253.4766C121.3864,-245.5096 153.0065,-234.2838 181,-225.5 188.6573,-223.0973 196.7021,-220.6886 204.7251,-218.3592"/>
<polygon fill="#191970" stroke="#191970" points="205.8258,-221.6848 214.4731,-215.5631 203.8956,-214.9561 205.8258,-221.6848"/>
</g>
<!-- Node12 -->
<g id="node12" class="node">
<title>Node12</title>
<g id="a_node12"><a xlink:href="../../d4/d60/classGPUTPCTrackParam.html#a9e6343a1785e87f04bb240a31b5967b1" target="_top" xlink:title="GPUTPCTrackParam::GetSinPhi">
<polygon fill="none" stroke="#000000" points="189.5,-144.5 189.5,-164.5 359.5,-164.5 359.5,-144.5 189.5,-144.5"/>
<text text-anchor="middle" x="274.5" y="-151.5" font-family="FreeSans" font-size="10.00" fill="#000000">GPUTPCTrackParam::GetSinPhi</text>
</a>
</g>
</g>
<!-- Node1&#45;&gt;Node12 -->
<g id="edge11" class="edge">
<title>Node1&#45;&gt;Node12</title>
<path fill="none" stroke="#191970" d="M81.5511,-253.3997C98.8968,-234.7117 138.856,-194.7984 181,-174.5 186.5943,-171.8055 192.55,-169.4715 198.6421,-167.45"/>
<polygon fill="#191970" stroke="#191970" points="199.7406,-170.7744 208.2953,-164.5239 197.7099,-164.0754 199.7406,-170.7744"/>
</g>
<!-- Node14 -->
<g id="node14" class="node">
<title>Node14</title>
<g id="a_node14"><a xlink:href="../../d4/d60/classGPUTPCTrackParam.html#a2079ff9c60b79a991e5071904141cd95" target="_top" xlink:title="GPUTPCTrackParam::GetX">
<polygon fill="none" stroke="#000000" points="201,-105.5 201,-125.5 348,-125.5 348,-105.5 201,-105.5"/>
<text text-anchor="middle" x="274.5" y="-112.5" font-family="FreeSans" font-size="10.00" fill="#000000">GPUTPCTrackParam::GetX</text>
</a>
</g>
</g>
<!-- Node1&#45;&gt;Node14 -->
<g id="edge13" class="edge">
<title>Node1&#45;&gt;Node14</title>
<path fill="none" stroke="#191970" d="M78.0006,-253.2171C91.7629,-228.5588 130.2531,-165.8638 181,-135.5 184.9529,-133.1348 189.1475,-131.0474 193.4849,-129.2053"/>
<polygon fill="#191970" stroke="#191970" points="195.0488,-132.3562 203.17,-125.552 192.5782,-125.8067 195.0488,-132.3562"/>
</g>
<!-- Node16 -->
<g id="node16" class="node">
<title>Node16</title>
<g id="a_node16"><a xlink:href="../../d4/d60/classGPUTPCTrackParam.html#ac62bb245f664440bd32b2b8cdf42e4da" target="_top" xlink:title="GPUTPCTrackParam::GetY">
<polygon fill="none" stroke="#000000" points="201.5,-63.5 201.5,-83.5 347.5,-83.5 347.5,-63.5 201.5,-63.5"/>
<text text-anchor="middle" x="274.5" y="-70.5" font-family="FreeSans" font-size="10.00" fill="#000000">GPUTPCTrackParam::GetY</text>
</a>
</g>
</g>
<!-- Node1&#45;&gt;Node16 -->
<g id="edge15" class="edge">
<title>Node1&#45;&gt;Node16</title>
<path fill="none" stroke="#191970" d="M76.0182,-253.3361C86.7207,-223.9932 121.8187,-138.5641 181,-96.5 186.0968,-92.8774 191.7004,-89.8224 197.5538,-87.2464"/>
<polygon fill="#191970" stroke="#191970" points="198.8845,-90.4842 206.9209,-83.5801 196.3331,-83.9657 198.8845,-90.4842"/>
</g>
<!-- Node18 -->
<g id="node18" class="node">
<title>Node18</title>
<g id="a_node18"><a xlink:href="../../d4/d60/classGPUTPCTrackParam.html#a2f6e63867e63f5f9e7f6b36e8c3c84fc" target="_top" xlink:title="GPUTPCTrackParam::GetZ">
<polygon fill="none" stroke="#000000" points="201,-18.5 201,-38.5 348,-38.5 348,-18.5 201,-18.5"/>
<text text-anchor="middle" x="274.5" y="-25.5" font-family="FreeSans" font-size="10.00" fill="#000000">GPUTPCTrackParam::GetZ</text>
</a>
</g>
</g>
<!-- Node1&#45;&gt;Node18 -->
<g id="edge17" class="edge">
<title>Node1&#45;&gt;Node18</title>
<path fill="none" stroke="#191970" d="M74.7051,-253.3959C82.6066,-219.6539 112.7407,-109.8782 181,-54.5 187.0719,-49.574 194.0148,-45.5795 201.3135,-42.3407"/>
<polygon fill="#191970" stroke="#191970" points="202.6951,-45.5582 210.7101,-38.6291 200.1235,-39.0476 202.6951,-45.5582"/>
</g>
<!-- Node3 -->
<g id="node3" class="node">
<title>Node3</title>
<g id="a_node3"><a xlink:href="../../d3/dbf/classGPUTPCBaseTrackParam.html#ae94cc21589f902d5529f18988ea1fd4e" target="_top" xlink:title="GPUTPCBaseTrackParam\l::GetDzDs">
<polygon fill="none" stroke="#000000" points="404,-474.5 404,-506.5 544,-506.5 544,-474.5 404,-474.5"/>
<text text-anchor="start" x="412" y="-493.5" font-family="FreeSans" font-size="10.00" fill="#000000">GPUTPCBaseTrackParam</text>
<text text-anchor="middle" x="474" y="-481.5" font-family="FreeSans" font-size="10.00" fill="#000000">::GetDzDs</text>
</a>
</g>
</g>
<!-- Node2&#45;&gt;Node3 -->
<g id="edge2" class="edge">
<title>Node2&#45;&gt;Node3</title>
<path fill="none" stroke="#191970" d="M357.6613,-490.5C369.569,-490.5 381.8012,-490.5 393.6532,-490.5"/>
<polygon fill="#191970" stroke="#191970" points="393.9531,-494.0001 403.953,-490.5 393.953,-487.0001 393.9531,-494.0001"/>
</g>
<!-- Node10 -->
<g id="node10" class="node">
<title>Node10</title>
<g id="a_node10"><a xlink:href="../../d3/dbf/classGPUTPCBaseTrackParam.html#ad914cc309cf7627d003093d54b5bf01d" target="_top" xlink:title="GPUTPCBaseTrackParam\l::GetQPt">
<polygon fill="none" stroke="#000000" points="404,-228.5 404,-260.5 544,-260.5 544,-228.5 404,-228.5"/>
<text text-anchor="start" x="412" y="-247.5" font-family="FreeSans" font-size="10.00" fill="#000000">GPUTPCBaseTrackParam</text>
<text text-anchor="middle" x="474" y="-235.5" font-family="FreeSans" font-size="10.00" fill="#000000">::GetQPt</text>
</a>
</g>
</g>
<!-- Node9&#45;&gt;Node10 -->
<g id="edge9" class="edge">
<title>Node9&#45;&gt;Node10</title>
<path fill="none" stroke="#191970" d="M353.6342,-244.5C366.6819,-244.5 380.2217,-244.5 393.307,-244.5"/>
<polygon fill="#191970" stroke="#191970" points="393.6857,-248.0001 403.6857,-244.5 393.6857,-241.0001 393.6857,-248.0001"/>
</g>
<!-- Node13 -->
<g id="node13" class="node">
<title>Node13</title>
<g id="a_node13"><a xlink:href="../../d3/dbf/classGPUTPCBaseTrackParam.html#ad3e722378c046a1952521611b24e6529" target="_top" xlink:title="GPUTPCBaseTrackParam\l::GetSinPhi">
<polygon fill="none" stroke="#000000" points="404,-153.5 404,-185.5 544,-185.5 544,-153.5 404,-153.5"/>
<text text-anchor="start" x="412" y="-172.5" font-family="FreeSans" font-size="10.00" fill="#000000">GPUTPCBaseTrackParam</text>
<text text-anchor="middle" x="474" y="-160.5" font-family="FreeSans" font-size="10.00" fill="#000000">::GetSinPhi</text>
</a>
</g>
</g>
<!-- Node12&#45;&gt;Node13 -->
<g id="edge12" class="edge">
<title>Node12&#45;&gt;Node13</title>
<path fill="none" stroke="#191970" d="M359.6846,-160.9049C370.9553,-161.7523 382.4794,-162.6188 393.6648,-163.4598"/>
<polygon fill="#191970" stroke="#191970" points="393.5906,-166.964 403.8249,-164.2237 394.1155,-159.9837 393.5906,-166.964"/>
</g>
<!-- Node15 -->
<g id="node15" class="node">
<title>Node15</title>
<g id="a_node15"><a xlink:href="../../d3/dbf/classGPUTPCBaseTrackParam.html#ae6223194bd40c1be5ae074a36dc3f7ac" target="_top" xlink:title="GPUTPCBaseTrackParam\l::GetX">
<polygon fill="none" stroke="#000000" points="404,-102.5 404,-134.5 544,-134.5 544,-102.5 404,-102.5"/>
<text text-anchor="start" x="412" y="-121.5" font-family="FreeSans" font-size="10.00" fill="#000000">GPUTPCBaseTrackParam</text>
<text text-anchor="middle" x="474" y="-109.5" font-family="FreeSans" font-size="10.00" fill="#000000">::GetX</text>
</a>
</g>
</g>
<!-- Node14&#45;&gt;Node15 -->
<g id="edge14" class="edge">
<title>Node14&#45;&gt;Node15</title>
<path fill="none" stroke="#191970" d="M348.2196,-116.6086C363.0099,-116.831 378.6211,-117.0657 393.6241,-117.2913"/>
<polygon fill="#191970" stroke="#191970" points="393.8446,-120.795 403.8961,-117.4458 393.9499,-113.7957 393.8446,-120.795"/>
</g>
<!-- Node17 -->
<g id="node17" class="node">
<title>Node17</title>
<g id="a_node17"><a xlink:href="../../d3/dbf/classGPUTPCBaseTrackParam.html#a1ff21292339783f98eda249248c8494f" target="_top" xlink:title="GPUTPCBaseTrackParam\l::GetY">
<polygon fill="none" stroke="#000000" points="404,-51.5 404,-83.5 544,-83.5 544,-51.5 404,-51.5"/>
<text text-anchor="start" x="412" y="-70.5" font-family="FreeSans" font-size="10.00" fill="#000000">GPUTPCBaseTrackParam</text>
<text text-anchor="middle" x="474" y="-58.5" font-family="FreeSans" font-size="10.00" fill="#000000">::GetY</text>
</a>
</g>
</g>
<!-- Node16&#45;&gt;Node17 -->
<g id="edge16" class="edge">
<title>Node16&#45;&gt;Node17</title>
<path fill="none" stroke="#191970" d="M347.6536,-71.2999C362.5621,-70.8515 378.3257,-70.3774 393.4744,-69.9218"/>
<polygon fill="#191970" stroke="#191970" points="393.9555,-73.409 403.8457,-69.6099 393.745,-66.4122 393.9555,-73.409"/>
</g>
<!-- Node19 -->
<g id="node19" class="node">
<title>Node19</title>
<g id="a_node19"><a xlink:href="../../d3/dbf/classGPUTPCBaseTrackParam.html#aeaa49e3355246715acbc71401016edad" target="_top" xlink:title="GPUTPCBaseTrackParam\l::GetZ">
<polygon fill="none" stroke="#000000" points="404,-.5 404,-32.5 544,-32.5 544,-.5 404,-.5"/>
<text text-anchor="start" x="412" y="-19.5" font-family="FreeSans" font-size="10.00" fill="#000000">GPUTPCBaseTrackParam</text>
<text text-anchor="middle" x="474" y="-7.5" font-family="FreeSans" font-size="10.00" fill="#000000">::GetZ</text>
</a>
</g>
</g>
<!-- Node18&#45;&gt;Node19 -->
<g id="edge18" class="edge">
<title>Node18&#45;&gt;Node19</title>
<path fill="none" stroke="#191970" d="M348.2196,-24.0657C363.0099,-23.1761 378.6211,-22.2371 393.6241,-21.3346"/>
<polygon fill="#191970" stroke="#191970" points="394.1243,-24.811 403.8961,-20.7168 393.704,-17.8236 394.1243,-24.811"/>
</g>
</g>
</svg>
