<?xml version="1.0" encoding="UTF-8" standalone="no"?>
<!DOCTYPE svg PUBLIC "-//W3C//DTD SVG 1.1//EN"
 "http://www.w3.org/Graphics/SVG/1.1/DTD/svg11.dtd">
<!-- Generated by graphviz version 2.40.1 (20161225.0304)
 -->
<!-- Title: GPUTPCTrackParam::Filter Pages: 1 -->
<svg width="523pt" height="92pt"
 viewBox="0.00 0.00 523.00 92.00" xmlns="http://www.w3.org/2000/svg" xmlns:xlink="http://www.w3.org/1999/xlink">
<g id="graph0" class="graph" transform="scale(1 1) rotate(0) translate(4 88)">
<title>GPUTPCTrackParam::Filter</title>
<!-- Node1 -->
<g id="node1" class="node">
<title>Node1</title>
<polygon fill="#bfbfbf" stroke="#000000" points="0,-31.5 0,-51.5 147,-51.5 147,-31.5 0,-31.5"/>
<text text-anchor="middle" x="73.5" y="-38.5" font-family="FreeSans" font-size="10.00" fill="#000000">GPUTPCTrackParam::Filter</text>
</g>
<!-- Node2 -->
<g id="node2" class="node">
<title>Node2</title>
<g id="a_node2"><a xlink:href="../../d4/d60/classGPUTPCTrackParam.html#abaa3dafe3956a618707ab461f0306a8f" target="_top" xlink:title="GPUTPCTrackParam::GetPar">
<polygon fill="none" stroke="#000000" points="183,-54.5 183,-74.5 339,-74.5 339,-54.5 183,-54.5"/>
<text text-anchor="middle" x="261" y="-61.5" font-family="FreeSans" font-size="10.00" fill="#000000">GPUTPCTrackParam::GetPar</text>
</a>
</g>
</g>
<!-- Node1&#45;&gt;Node2 -->
<g id="edge1" class="edge">
<title>Node1&#45;&gt;Node2</title>
<path fill="none" stroke="#191970" d="M147.0668,-50.5242C155.4733,-51.5554 164.107,-52.6145 172.68,-53.6661"/>
<polygon fill="#191970" stroke="#191970" points="172.3471,-57.1514 182.6988,-54.8951 173.1994,-50.2035 172.3471,-57.1514"/>
</g>
<!-- Node4 -->
<g id="node4" class="node">
<title>Node4</title>
<g id="a_node4"><a xlink:href="../../d4/d60/classGPUTPCTrackParam.html#a18c82d979d748aa0a6178945feb4dc9b" target="_top" xlink:title="GPUTPCTrackParam::SetPar">
<polygon fill="none" stroke="#000000" points="183.5,-12.5 183.5,-32.5 338.5,-32.5 338.5,-12.5 183.5,-12.5"/>
<text text-anchor="middle" x="261" y="-19.5" font-family="FreeSans" font-size="10.00" fill="#000000">GPUTPCTrackParam::SetPar</text>
</a>
</g>
</g>
<!-- Node1&#45;&gt;Node4 -->
<g id="edge3" class="edge">
<title>Node1&#45;&gt;Node4</title>
<path fill="none" stroke="#191970" d="M147.0668,-34.0452C155.6208,-33.1784 164.41,-32.2878 173.1312,-31.404"/>
<polygon fill="#191970" stroke="#191970" points="173.7234,-34.862 183.3196,-30.3716 173.0176,-27.8977 173.7234,-34.862"/>
</g>
<!-- Node3 -->
<g id="node3" class="node">
<title>Node3</title>
<g id="a_node3"><a xlink:href="../../d3/dbf/classGPUTPCBaseTrackParam.html#aca7f7396e502b66217fd7fb702a25e0b" target="_top" xlink:title="GPUTPCBaseTrackParam\l::GetPar">
<polygon fill="none" stroke="#000000" points="375,-51.5 375,-83.5 515,-83.5 515,-51.5 375,-51.5"/>
<text text-anchor="start" x="383" y="-70.5" font-family="FreeSans" font-size="10.00" fill="#000000">GPUTPCBaseTrackParam</text>
<text text-anchor="middle" x="445" y="-58.5" font-family="FreeSans" font-size="10.00" fill="#000000">::GetPar</text>
</a>
</g>
</g>
<!-- Node2&#45;&gt;Node3 -->
<g id="edge2" class="edge">
<title>Node2&#45;&gt;Node3</title>
<path fill="none" stroke="#191970" d="M339.0326,-65.7723C347.4584,-65.9096 356.0442,-66.0496 364.4984,-66.1875"/>
<polygon fill="#191970" stroke="#191970" points="364.6701,-69.6906 374.7258,-66.3542 364.7843,-62.6916 364.6701,-69.6906"/>
</g>
<!-- Node5 -->
<g id="node5" class="node">
<title>Node5</title>
<g id="a_node5"><a xlink:href="../../d3/dbf/classGPUTPCBaseTrackParam.html#a1183ebd40b7c24a42f8c65ca2f3afa9f" target="_top" xlink:title="GPUTPCBaseTrackParam\l::SetPar">
<polygon fill="none" stroke="#000000" points="375,-.5 375,-32.5 515,-32.5 515,-.5 375,-.5"/>
<text text-anchor="start" x="383" y="-19.5" font-family="FreeSans" font-size="10.00" fill="#000000">GPUTPCBaseTrackParam</text>
<text text-anchor="middle" x="445" y="-7.5" font-family="FreeSans" font-size="10.00" fill="#000000">::SetPar</text>
</a>
</g>
</g>
<!-- Node4&#45;&gt;Node5 -->
<g id="edge4" class="edge">
<title>Node4&#45;&gt;Node5</title>
<path fill="none" stroke="#191970" d="M338.7659,-19.9642C347.3664,-19.6837 356.137,-19.3977 364.7672,-19.1163"/>
<polygon fill="#191970" stroke="#191970" points="364.9345,-22.6128 374.8151,-18.7886 364.7063,-15.6165 364.9345,-22.6128"/>
</g>
</g>
</svg>
