<?xml version="1.0" encoding="UTF-8" standalone="no"?>
<!DOCTYPE svg PUBLIC "-//W3C//DTD SVG 1.1//EN"
 "http://www.w3.org/Graphics/SVG/1.1/DTD/svg11.dtd">
<!-- Generated by graphviz version 2.40.1 (20161225.0304)
 -->
<!-- Title: GenFit/blob/master/fitters/include/KalmanFitter.h Pages: 1 -->
<svg width="646pt" height="110pt"
 viewBox="0.00 0.00 646.00 110.00" xmlns="http://www.w3.org/2000/svg" xmlns:xlink="http://www.w3.org/1999/xlink">
<g id="graph0" class="graph" transform="scale(1 1) rotate(0) translate(4 106)">
<title>GenFit/blob/master/fitters/include/KalmanFitter.h</title>
<!-- Node1 -->
<g id="node1" class="node">
<title>Node1</title>
<polygon fill="#bfbfbf" stroke="#000000" points="252.5,-69.5 252.5,-101.5 418.5,-101.5 418.5,-69.5 252.5,-69.5"/>
<text text-anchor="start" x="260.5" y="-88.5" font-family="FreeSans" font-size="10.00" fill="#000000">GenFit/blob/master</text>
<text text-anchor="middle" x="335.5" y="-76.5" font-family="FreeSans" font-size="10.00" fill="#000000">/fitters/include/KalmanFitter.h</text>
</g>
<!-- Node2 -->
<g id="node2" class="node">
<title>Node2</title>
<g id="a_node2"><a xlink:href="../../d0/d12/EventDisplay_8cc.html" target="_top" xlink:title="GenFit/blob/master\l/eventDisplay/src/EventDisplay.cc">
<polygon fill="none" stroke="#000000" points="0,-.5 0,-32.5 187,-32.5 187,-.5 0,-.5"/>
<text text-anchor="start" x="8" y="-19.5" font-family="FreeSans" font-size="10.00" fill="#000000">GenFit/blob/master</text>
<text text-anchor="middle" x="93.5" y="-7.5" font-family="FreeSans" font-size="10.00" fill="#000000">/eventDisplay/src/EventDisplay.cc</text>
</a>
</g>
</g>
<!-- Node1&#45;&gt;Node2 -->
<g id="edge1" class="edge">
<title>Node1&#45;&gt;Node2</title>
<path fill="none" stroke="#191970" d="M269.5422,-66.6938C232.0207,-55.9956 185.5255,-42.7387 149.7422,-32.536"/>
<polygon fill="#191970" stroke="#191970" points="268.7956,-70.1204 279.3721,-69.4966 270.715,-63.3887 268.7956,-70.1204"/>
</g>
<!-- Node3 -->
<g id="node3" class="node">
<title>Node3</title>
<g id="a_node3"><a xlink:href="../../d9/d5e/DAF_8cc.html" target="_top" xlink:title="GenFit/blob/master\l/fitters/src/DAF.cc">
<polygon fill="none" stroke="#000000" points="205,-.5 205,-32.5 318,-32.5 318,-.5 205,-.5"/>
<text text-anchor="start" x="213" y="-19.5" font-family="FreeSans" font-size="10.00" fill="#000000">GenFit/blob/master</text>
<text text-anchor="middle" x="261.5" y="-7.5" font-family="FreeSans" font-size="10.00" fill="#000000">/fitters/src/DAF.cc</text>
</a>
</g>
</g>
<!-- Node1&#45;&gt;Node3 -->
<g id="edge2" class="edge">
<title>Node1&#45;&gt;Node3</title>
<path fill="none" stroke="#191970" d="M310.997,-62.6526C300.4666,-52.8337 288.4059,-41.588 278.8263,-32.6557"/>
<polygon fill="#191970" stroke="#191970" points="308.6362,-65.2367 318.3369,-69.4966 313.4099,-60.117 308.6362,-65.2367"/>
</g>
<!-- Node4 -->
<g id="node4" class="node">
<title>Node4</title>
<g id="a_node4"><a xlink:href="../../de/d59/KalmanFitter_8cc.html" target="_top" xlink:title="GenFit/blob/master\l/fitters/src/KalmanFitter.cc">
<polygon fill="none" stroke="#000000" points="336,-.5 336,-32.5 485,-32.5 485,-.5 336,-.5"/>
<text text-anchor="start" x="344" y="-19.5" font-family="FreeSans" font-size="10.00" fill="#000000">GenFit/blob/master</text>
<text text-anchor="middle" x="410.5" y="-7.5" font-family="FreeSans" font-size="10.00" fill="#000000">/fitters/src/KalmanFitter.cc</text>
</a>
</g>
</g>
<!-- Node1&#45;&gt;Node4 -->
<g id="edge3" class="edge">
<title>Node1&#45;&gt;Node4</title>
<path fill="none" stroke="#191970" d="M360.3342,-62.6526C371.0068,-52.8337 383.2305,-41.588 392.9395,-32.6557"/>
<polygon fill="#191970" stroke="#191970" points="357.8846,-60.1502 352.895,-69.4966 362.6241,-65.3018 357.8846,-60.1502"/>
</g>
<!-- Node5 -->
<g id="node5" class="node">
<title>Node5</title>
<g id="a_node5"><a xlink:href="../../d0/d48/GenFit_2blob_2master_2test_2fitterTests_2main_8cc.html" target="_top" xlink:title="GenFit/blob/master\l/test/fitterTests/main.cc">
<polygon fill="none" stroke="#000000" points="503,-.5 503,-32.5 638,-32.5 638,-.5 503,-.5"/>
<text text-anchor="start" x="511" y="-19.5" font-family="FreeSans" font-size="10.00" fill="#000000">GenFit/blob/master</text>
<text text-anchor="middle" x="570.5" y="-7.5" font-family="FreeSans" font-size="10.00" fill="#000000">/test/fitterTests/main.cc</text>
</a>
</g>
</g>
<!-- Node1&#45;&gt;Node5 -->
<g id="edge4" class="edge">
<title>Node1&#45;&gt;Node5</title>
<path fill="none" stroke="#191970" d="M400.0156,-66.5571C436.3702,-55.8828 481.2843,-42.6953 515.8846,-32.536"/>
<polygon fill="#191970" stroke="#191970" points="398.6133,-63.321 390.0044,-69.4966 400.5854,-70.0375 398.6133,-63.321"/>
</g>
</g>
</svg>
