<?xml version="1.0" encoding="UTF-8" standalone="no"?>
<!DOCTYPE svg PUBLIC "-//W3C//DTD SVG 1.1//EN"
 "http://www.w3.org/Graphics/SVG/1.1/DTD/svg11.dtd">
<!-- Generated by graphviz version 2.40.1 (20161225.0304)
 -->
<!-- Title: PHG4MvtxSubsystem::SetDefaultParameters Pages: 1 -->
<svg width="350pt" height="245pt"
 viewBox="0.00 0.00 350.00 245.00" xmlns="http://www.w3.org/2000/svg" xmlns:xlink="http://www.w3.org/1999/xlink">
<g id="graph0" class="graph" transform="scale(1 1) rotate(0) translate(4 241)">
<title>PHG4MvtxSubsystem::SetDefaultParameters</title>
<!-- Node1 -->
<g id="node1" class="node">
<title>Node1</title>
<polygon fill="#bfbfbf" stroke="#000000" points="0,-102.5 0,-134.5 131,-134.5 131,-102.5 0,-102.5"/>
<text text-anchor="start" x="8" y="-121.5" font-family="FreeSans" font-size="10.00" fill="#000000">PHG4MvtxSubsystem::</text>
<text text-anchor="middle" x="65.5" y="-109.5" font-family="FreeSans" font-size="10.00" fill="#000000">SetDefaultParameters</text>
</g>
<!-- Node2 -->
<g id="node2" class="node">
<title>Node2</title>
<g id="a_node2"><a xlink:href="../../d7/d7f/classPHG4DetectorGroupSubsystem.html#a2525d2d21dc85e31b5fcdf989836e3cd" target="_top" xlink:title="PHG4DetectorGroupSubsystem\l::GetDetIds">
<polygon fill="none" stroke="#000000" points="167,-204.5 167,-236.5 342,-236.5 342,-204.5 167,-204.5"/>
<text text-anchor="start" x="175" y="-223.5" font-family="FreeSans" font-size="10.00" fill="#000000">PHG4DetectorGroupSubsystem</text>
<text text-anchor="middle" x="254.5" y="-211.5" font-family="FreeSans" font-size="10.00" fill="#000000">::GetDetIds</text>
</a>
</g>
</g>
<!-- Node1&#45;&gt;Node2 -->
<g id="edge1" class="edge">
<title>Node1&#45;&gt;Node2</title>
<path fill="none" stroke="#191970" d="M82.4841,-134.5846C101.6281,-151.9093 134.3576,-179.1788 167,-195.5 170.7359,-197.3679 174.6333,-199.1167 178.6191,-200.7509"/>
<polygon fill="#191970" stroke="#191970" points="177.4547,-204.0528 188.0452,-204.3586 179.9569,-197.5153 177.4547,-204.0528"/>
</g>
<!-- Node3 -->
<g id="node3" class="node">
<title>Node3</title>
<g id="a_node3"><a xlink:href="../../d9/dbf/classPHG4MvtxSubsystem.html#a5233618532c4e77a6d13b6a39e4e1bbf" target="_top" xlink:title="PHG4MvtxSubsystem::\lradii2Turbo">
<polygon fill="none" stroke="#000000" points="189,-153.5 189,-185.5 320,-185.5 320,-153.5 189,-153.5"/>
<text text-anchor="start" x="197" y="-172.5" font-family="FreeSans" font-size="10.00" fill="#000000">PHG4MvtxSubsystem::</text>
<text text-anchor="middle" x="254.5" y="-160.5" font-family="FreeSans" font-size="10.00" fill="#000000">radii2Turbo</text>
</a>
</g>
</g>
<!-- Node1&#45;&gt;Node3 -->
<g id="edge2" class="edge">
<title>Node1&#45;&gt;Node3</title>
<path fill="none" stroke="#191970" d="M125.0414,-134.5667C144.1095,-139.7121 165.3882,-145.454 185.0967,-150.7721"/>
<polygon fill="#191970" stroke="#191970" points="184.3668,-154.2003 194.9333,-153.4264 186.1905,-147.442 184.3668,-154.2003"/>
</g>
<!-- Node4 -->
<g id="node4" class="node">
<title>Node4</title>
<g id="a_node4"><a xlink:href="../../d7/d7f/classPHG4DetectorGroupSubsystem.html#a7ebb793a929eab2ca749da73f6544e50" target="_top" xlink:title="PHG4DetectorGroupSubsystem\l::set_default_double_param">
<polygon fill="none" stroke="#000000" points="167,-102.5 167,-134.5 342,-134.5 342,-102.5 167,-102.5"/>
<text text-anchor="start" x="175" y="-121.5" font-family="FreeSans" font-size="10.00" fill="#000000">PHG4DetectorGroupSubsystem</text>
<text text-anchor="middle" x="254.5" y="-109.5" font-family="FreeSans" font-size="10.00" fill="#000000">::set_default_double_param</text>
</a>
</g>
</g>
<!-- Node1&#45;&gt;Node4 -->
<g id="edge3" class="edge">
<title>Node1&#45;&gt;Node4</title>
<path fill="none" stroke="#191970" d="M131.0726,-118.5C139.3487,-118.5 147.9524,-118.5 156.5942,-118.5"/>
<polygon fill="#191970" stroke="#191970" points="156.739,-122.0001 166.7389,-118.5 156.7389,-115.0001 156.739,-122.0001"/>
</g>
<!-- Node5 -->
<g id="node5" class="node">
<title>Node5</title>
<g id="a_node5"><a xlink:href="../../d7/d7f/classPHG4DetectorGroupSubsystem.html#ab9097e7e005eb194daa206f2be1855c6" target="_top" xlink:title="PHG4DetectorGroupSubsystem\l::set_default_int_param">
<polygon fill="none" stroke="#000000" points="167,-51.5 167,-83.5 342,-83.5 342,-51.5 167,-51.5"/>
<text text-anchor="start" x="175" y="-70.5" font-family="FreeSans" font-size="10.00" fill="#000000">PHG4DetectorGroupSubsystem</text>
<text text-anchor="middle" x="254.5" y="-58.5" font-family="FreeSans" font-size="10.00" fill="#000000">::set_default_int_param</text>
</a>
</g>
</g>
<!-- Node1&#45;&gt;Node5 -->
<g id="edge4" class="edge">
<title>Node1&#45;&gt;Node5</title>
<path fill="none" stroke="#191970" d="M125.0414,-102.4333C144.1095,-97.2879 165.3882,-91.546 185.0967,-86.2279"/>
<polygon fill="#191970" stroke="#191970" points="186.1905,-89.558 194.9333,-83.5736 184.3668,-82.7997 186.1905,-89.558"/>
</g>
<!-- Node6 -->
<g id="node6" class="node">
<title>Node6</title>
<g id="a_node6"><a xlink:href="../../d7/d7f/classPHG4DetectorGroupSubsystem.html#acf15745e1b80e99af18853ffa757185a" target="_top" xlink:title="PHG4DetectorGroupSubsystem\l::set_default_string_param">
<polygon fill="none" stroke="#000000" points="167,-.5 167,-32.5 342,-32.5 342,-.5 167,-.5"/>
<text text-anchor="start" x="175" y="-19.5" font-family="FreeSans" font-size="10.00" fill="#000000">PHG4DetectorGroupSubsystem</text>
<text text-anchor="middle" x="254.5" y="-7.5" font-family="FreeSans" font-size="10.00" fill="#000000">::set_default_string_param</text>
</a>
</g>
</g>
<!-- Node1&#45;&gt;Node6 -->
<g id="edge5" class="edge">
<title>Node1&#45;&gt;Node6</title>
<path fill="none" stroke="#191970" d="M82.9064,-102.3908C102.1597,-85.3444 134.7431,-58.7143 167,-42.5 171.573,-40.2013 176.3848,-38.0688 181.3024,-36.0972"/>
<polygon fill="#191970" stroke="#191970" points="182.7282,-39.3003 190.8547,-32.5024 180.2627,-32.7489 182.7282,-39.3003"/>
</g>
</g>
</svg>
