<?xml version="1.0" encoding="UTF-8" standalone="no"?>
<!DOCTYPE svg PUBLIC "-//W3C//DTD SVG 1.1//EN"
 "http://www.w3.org/Graphics/SVG/1.1/DTD/svg11.dtd">
<!-- Generated by graphviz version 2.40.1 (20161225.0304)
 -->
<!-- Title: PHG4GDMLWriteStructure::TraverseVolumeTree Pages: 1 -->
<svg width="787pt" height="1876pt"
 viewBox="0.00 0.00 787.00 1875.69" xmlns="http://www.w3.org/2000/svg" xmlns:xlink="http://www.w3.org/1999/xlink">
<g id="graph0" class="graph" transform="scale(1 1) rotate(0) translate(4 1871.6867)">
<title>PHG4GDMLWriteStructure::TraverseVolumeTree</title>
<!-- Node1 -->
<g id="node1" class="node">
<title>Node1</title>
<polygon fill="#bfbfbf" stroke="#000000" points="0,-1359.5002 0,-1391.5002 146,-1391.5002 146,-1359.5002 0,-1359.5002"/>
<text text-anchor="start" x="8" y="-1378.5002" font-family="FreeSans" font-size="10.00" fill="#000000">PHG4GDMLWriteStructure</text>
<text text-anchor="middle" x="73" y="-1366.5002" font-family="FreeSans" font-size="10.00" fill="#000000">::TraverseVolumeTree</text>
</g>
<!-- Node2 -->
<g id="node2" class="node">
<title>Node2</title>
<g id="a_node2"><a xlink:href="../../dd/db5/classPHG4GDMLWrite.html#a53eca251f60adbf07bc9e966ff9262a0" target="_top" xlink:title="PHG4GDMLWrite::AddAuxInfo">
<polygon fill="none" stroke="#000000" points="395,-1755.5002 395,-1775.5002 559,-1775.5002 559,-1755.5002 395,-1755.5002"/>
<text text-anchor="middle" x="477" y="-1762.5002" font-family="FreeSans" font-size="10.00" fill="#000000">PHG4GDMLWrite::AddAuxInfo</text>
</a>
</g>
</g>
<!-- Node1&#45;&gt;Node2 -->
<g id="edge1" class="edge">
<title>Node1&#45;&gt;Node2</title>
<path fill="none" stroke="#191970" d="M75.3754,-1391.5175C85.2621,-1455.8778 125.2954,-1694.4038 182,-1740.5002 250.3334,-1796.0499 359.3378,-1788.4419 423.9647,-1777.3335"/>
<polygon fill="#191970" stroke="#191970" points="424.725,-1780.7529 433.9429,-1775.5298 423.4798,-1773.8645 424.725,-1780.7529"/>
</g>
<!-- Node3 -->
<g id="node3" class="node">
<title>Node3</title>
<g id="a_node3"><a xlink:href="../../dd/db5/classPHG4GDMLWrite.html#afe96dc9fdc7c1a0a1a96b59dc15dffa2" target="_top" xlink:title="PHG4GDMLWrite::NewAttribute">
<polygon fill="none" stroke="#000000" points="601.5,-1002.5002 601.5,-1022.5002 773.5,-1022.5002 773.5,-1002.5002 601.5,-1002.5002"/>
<text text-anchor="middle" x="687.5" y="-1009.5002" font-family="FreeSans" font-size="10.00" fill="#000000">PHG4GDMLWrite::NewAttribute</text>
</a>
</g>
</g>
<!-- Node1&#45;&gt;Node3 -->
<g id="edge126" class="edge">
<title>Node1&#45;&gt;Node3</title>
<path fill="none" stroke="#191970" d="M74.0145,-1391.6991C79.2308,-1469.154 105.8048,-1800.5012 182,-1861.5002 195.996,-1872.7049 551.1861,-1866.1999 560,-1858.5002 624.6806,-1801.9958 676.5604,-1157.0331 685.9734,-1033.0468"/>
<polygon fill="#191970" stroke="#191970" points="689.4908,-1032.9461 686.7508,-1022.7117 682.5105,-1032.421 689.4908,-1032.9461"/>
</g>
<!-- Node4 -->
<g id="node4" class="node">
<title>Node4</title>
<g id="a_node4"><a xlink:href="../../dd/db5/classPHG4GDMLWrite.html#ada0a5579d406ec27f3150711ab83becc" target="_top" xlink:title="PHG4GDMLWrite::NewElement">
<polygon fill="none" stroke="#000000" points="602,-957.5002 602,-977.5002 773,-977.5002 773,-957.5002 602,-957.5002"/>
<text text-anchor="middle" x="687.5" y="-964.5002" font-family="FreeSans" font-size="10.00" fill="#000000">PHG4GDMLWrite::NewElement</text>
</a>
</g>
</g>
<!-- Node1&#45;&gt;Node4 -->
<g id="edge127" class="edge">
<title>Node1&#45;&gt;Node4</title>
<path fill="none" stroke="#191970" d="M74.621,-1391.7104C80.1871,-1438.5591 102.7919,-1575.3162 182,-1646.5002 245.2594,-1703.3512 498.3638,-1765.107 560,-1706.5002 617.5652,-1651.7643 546.2237,-1054.4041 596,-992.5002 598.9829,-988.7905 602.4588,-985.5999 606.2783,-982.8583"/>
<polygon fill="#191970" stroke="#191970" points="608.3566,-985.693 615.1308,-977.5468 604.7551,-979.6906 608.3566,-985.693"/>
</g>
<!-- Node5 -->
<g id="node5" class="node">
<title>Node5</title>
<g id="a_node5"><a xlink:href="../../dd/db5/classPHG4GDMLWrite.html#a3865f4634c8dddc17a15af884e88177a" target="_top" xlink:title="PHG4GDMLWrite::AddExtension">
<polygon fill="none" stroke="#000000" points="182,-631.5002 182,-651.5002 358,-651.5002 358,-631.5002 182,-631.5002"/>
<text text-anchor="middle" x="270" y="-638.5002" font-family="FreeSans" font-size="10.00" fill="#000000">PHG4GDMLWrite::AddExtension</text>
</a>
</g>
</g>
<!-- Node1&#45;&gt;Node5 -->
<g id="edge4" class="edge">
<title>Node1&#45;&gt;Node5</title>
<path fill="none" stroke="#191970" d="M73.1966,-1359.3121C74.6824,-1263.7842 86.9042,-774.2121 182,-666.5002 185.459,-662.5824 189.4827,-659.2586 193.8688,-656.4411"/>
<polygon fill="#191970" stroke="#191970" points="195.5957,-659.486 202.6971,-651.6234 192.2425,-653.3413 195.5957,-659.486"/>
</g>
<!-- Node6 -->
<g id="node6" class="node">
<title>Node6</title>
<g id="a_node6"><a xlink:href="../../d3/d04/classPHG4GDMLWriteMaterials.html#a02dfefd1f4b0aa2c122952dc4ebc1a87" target="_top" xlink:title="PHG4GDMLWriteMaterials\l::AddMaterial">
<polygon fill="none" stroke="#000000" points="197,-1359.5002 197,-1391.5002 343,-1391.5002 343,-1359.5002 197,-1359.5002"/>
<text text-anchor="start" x="205" y="-1378.5002" font-family="FreeSans" font-size="10.00" fill="#000000">PHG4GDMLWriteMaterials</text>
<text text-anchor="middle" x="270" y="-1366.5002" font-family="FreeSans" font-size="10.00" fill="#000000">::AddMaterial</text>
</a>
</g>
</g>
<!-- Node1&#45;&gt;Node6 -->
<g id="edge5" class="edge">
<title>Node1&#45;&gt;Node6</title>
<path fill="none" stroke="#191970" d="M146.0756,-1375.5002C159.2516,-1375.5002 173.0791,-1375.5002 186.5241,-1375.5002"/>
<polygon fill="#191970" stroke="#191970" points="186.714,-1379.0003 196.7139,-1375.5002 186.7139,-1372.0003 186.714,-1379.0003"/>
</g>
<!-- Node8 -->
<g id="node8" class="node">
<title>Node8</title>
<g id="a_node8"><a xlink:href="../../dd/db5/classPHG4GDMLWrite.html#a16834147e17b47595b04d27a49405198" target="_top" xlink:title="PHG4GDMLWrite::GenerateName">
<polygon fill="none" stroke="#000000" points="596,-829.5002 596,-849.5002 779,-849.5002 779,-829.5002 596,-829.5002"/>
<text text-anchor="middle" x="687.5" y="-836.5002" font-family="FreeSans" font-size="10.00" fill="#000000">PHG4GDMLWrite::GenerateName</text>
</a>
</g>
</g>
<!-- Node1&#45;&gt;Node8 -->
<g id="edge120" class="edge">
<title>Node1&#45;&gt;Node8</title>
<path fill="none" stroke="#191970" d="M73.4361,-1359.4385C76.1981,-1269.7799 94.0892,-831.8296 182,-737.5002 236.8989,-678.593 306.4599,-756.3675 358,-694.5002 446.3356,-588.4647 293.6237,-169.2173 394,-74.5002 447.6595,-23.866 503.7061,-26.8121 560,-74.5002 619.1582,-124.6147 675.0763,-703.8244 685.6956,-819.4789"/>
<polygon fill="#191970" stroke="#191970" points="682.2114,-819.8127 686.6042,-829.454 689.1826,-819.1777 682.2114,-819.8127"/>
</g>
<!-- Node9 -->
<g id="node9" class="node">
<title>Node9</title>
<g id="a_node9"><a xlink:href="../../d0/d94/classPHG4GDMLWriteSolids.html#ae96019d064cee9517bad4aea85bd94e9" target="_top" xlink:title="PHG4GDMLWriteSolids\l::AddSolid">
<polygon fill="none" stroke="#ff0000" points="205,-747.5002 205,-779.5002 335,-779.5002 335,-747.5002 205,-747.5002"/>
<text text-anchor="start" x="213" y="-766.5002" font-family="FreeSans" font-size="10.00" fill="#000000">PHG4GDMLWriteSolids</text>
<text text-anchor="middle" x="270" y="-754.5002" font-family="FreeSans" font-size="10.00" fill="#000000">::AddSolid</text>
</a>
</g>
</g>
<!-- Node1&#45;&gt;Node9 -->
<g id="edge10" class="edge">
<title>Node1&#45;&gt;Node9</title>
<path fill="none" stroke="#191970" d="M78.168,-1359.4453C104.9903,-1276.119 228.3717,-892.8227 261.6887,-789.3201"/>
<polygon fill="#191970" stroke="#191970" points="265.0626,-790.2612 264.7951,-779.6697 258.3993,-788.1162 265.0626,-790.2612"/>
</g>
<!-- Node11 -->
<g id="node11" class="node">
<title>Node11</title>
<g id="a_node11"><a xlink:href="../../d4/d23/Prototype2_2EMCal_2macros_2EnergyCalibFit_8m.html#a295648510c9ef49a3168c823f3155243" target="_top" xlink:title="disp">
<polygon fill="none" stroke="#000000" points="669,-49.5002 669,-69.5002 706,-69.5002 706,-49.5002 669,-49.5002"/>
<text text-anchor="middle" x="687.5" y="-56.5002" font-family="FreeSans" font-size="10.00" fill="#000000">disp</text>
</a>
</g>
</g>
<!-- Node1&#45;&gt;Node11 -->
<g id="edge114" class="edge">
<title>Node1&#45;&gt;Node11</title>
<path fill="none" stroke="#191970" d="M73.176,-1359.2218C74.5341,-1265.3128 86.1075,-793.5232 182,-694.5002 237.4222,-637.2687 305.5455,-720.4634 358,-660.5002 449.7435,-555.624 292.6821,-130.1589 394,-34.5002 467.2899,34.696 601.7029,-17.477 659.6763,-45.149"/>
<polygon fill="#191970" stroke="#191970" points="658.4223,-48.4317 668.9437,-49.6773 661.4955,-42.1423 658.4223,-48.4317"/>
</g>
<!-- Node36 -->
<g id="node36" class="node">
<title>Node36</title>
<g id="a_node36"><a xlink:href="../../d2/d72/classPHG4GDMLWriteStructure.html#aa22bfa894b736e4069f3733c5410b42e" target="_top" xlink:title="PHG4GDMLWriteStructure\l::BorderSurfaceCache">
<polygon fill="none" stroke="#ff0000" points="404,-1665.5002 404,-1697.5002 550,-1697.5002 550,-1665.5002 404,-1665.5002"/>
<text text-anchor="start" x="412" y="-1684.5002" font-family="FreeSans" font-size="10.00" fill="#000000">PHG4GDMLWriteStructure</text>
<text text-anchor="middle" x="477" y="-1672.5002" font-family="FreeSans" font-size="10.00" fill="#000000">::BorderSurfaceCache</text>
</a>
</g>
</g>
<!-- Node1&#45;&gt;Node36 -->
<g id="edge110" class="edge">
<title>Node1&#45;&gt;Node36</title>
<path fill="none" stroke="#191970" d="M76.2783,-1391.5351C85.4127,-1432.0697 115.0108,-1539.3927 182,-1595.5002 241.7836,-1645.5726 329.4795,-1666.5018 393.7182,-1675.2437"/>
<polygon fill="#191970" stroke="#191970" points="393.4537,-1678.7385 403.8189,-1676.5447 394.348,-1671.7958 393.4537,-1678.7385"/>
</g>
<!-- Node37 -->
<g id="node37" class="node">
<title>Node37</title>
<g id="a_node37"><a xlink:href="../../d2/d72/classPHG4GDMLWriteStructure.html#a5e3f35ecdc19dd916da7e88b4e5d0ad5" target="_top" xlink:title="PHG4GDMLWriteStructure\l::DivisionvolWrite">
<polygon fill="none" stroke="#000000" points="404,-1614.5002 404,-1646.5002 550,-1646.5002 550,-1614.5002 404,-1614.5002"/>
<text text-anchor="start" x="412" y="-1633.5002" font-family="FreeSans" font-size="10.00" fill="#000000">PHG4GDMLWriteStructure</text>
<text text-anchor="middle" x="477" y="-1621.5002" font-family="FreeSans" font-size="10.00" fill="#000000">::DivisionvolWrite</text>
</a>
</g>
</g>
<!-- Node1&#45;&gt;Node37 -->
<g id="edge115" class="edge">
<title>Node1&#45;&gt;Node37</title>
<path fill="none" stroke="#191970" d="M78.7775,-1391.5917C91.7525,-1425.4043 126.4853,-1504.1159 182,-1545.5002 244.0598,-1591.7637 330.6476,-1612.8921 393.9604,-1622.5148"/>
<polygon fill="#191970" stroke="#191970" points="393.5149,-1625.9867 403.9146,-1623.9625 394.5224,-1619.0596 393.5149,-1625.9867"/>
</g>
<!-- Node38 -->
<g id="node38" class="node">
<title>Node38</title>
<g id="a_node38"><a xlink:href="../../d2/d72/classPHG4GDMLWriteStructure.html#a96d7e1027f518f309830051f60b25804" target="_top" xlink:title="PHG4GDMLWriteStructure\l::ExportEnergyCuts">
<polygon fill="none" stroke="#ff0000" points="197,-580.5002 197,-612.5002 343,-612.5002 343,-580.5002 197,-580.5002"/>
<text text-anchor="start" x="205" y="-599.5002" font-family="FreeSans" font-size="10.00" fill="#000000">PHG4GDMLWriteStructure</text>
<text text-anchor="middle" x="270" y="-587.5002" font-family="FreeSans" font-size="10.00" fill="#000000">::ExportEnergyCuts</text>
</a>
</g>
</g>
<!-- Node1&#45;&gt;Node38 -->
<g id="edge119" class="edge">
<title>Node1&#45;&gt;Node38</title>
<path fill="none" stroke="#191970" d="M74.2799,-1359.4054C82.6949,-1255.2833 131.3237,-679.4215 182,-621.5002 183.9609,-619.259 186.1066,-617.212 188.3995,-615.3427"/>
<polygon fill="#191970" stroke="#191970" points="190.4382,-618.1887 196.7082,-609.6483 186.4808,-612.4146 190.4382,-618.1887"/>
</g>
<!-- Node39 -->
<g id="node39" class="node">
<title>Node39</title>
<g id="a_node39"><a xlink:href="../../d9/d25/classPHG4GDMLConfig.html#ab1f130fc2a7e8c565b5daf562559348a" target="_top" xlink:title="PHG4GDMLConfig::get\l_excluded_logical_vol">
<polygon fill="none" stroke="#000000" points="205,-529.5002 205,-561.5002 335,-561.5002 335,-529.5002 205,-529.5002"/>
<text text-anchor="start" x="213" y="-548.5002" font-family="FreeSans" font-size="10.00" fill="#000000">PHG4GDMLConfig::get</text>
<text text-anchor="middle" x="270" y="-536.5002" font-family="FreeSans" font-size="10.00" fill="#000000">_excluded_logical_vol</text>
</a>
</g>
</g>
<!-- Node1&#45;&gt;Node39 -->
<g id="edge121" class="edge">
<title>Node1&#45;&gt;Node39</title>
<path fill="none" stroke="#191970" d="M74.1282,-1359.3795C81.838,-1251.1489 128.0686,-632.7034 182,-570.5002 185.9325,-565.9646 190.622,-562.2233 195.7594,-559.1407"/>
<polygon fill="#191970" stroke="#191970" points="197.4503,-562.2073 204.7733,-554.5507 194.2739,-555.9695 197.4503,-562.2073"/>
</g>
<!-- Node40 -->
<g id="node40" class="node">
<title>Node40</title>
<g id="a_node40"><a xlink:href="../../d9/d25/classPHG4GDMLConfig.html#ae773181c027bde9a1d37bda8c7f571f0" target="_top" xlink:title="PHG4GDMLConfig::get\l_excluded_physical_vol">
<polygon fill="none" stroke="#000000" points="202.5,-478.5002 202.5,-510.5002 337.5,-510.5002 337.5,-478.5002 202.5,-478.5002"/>
<text text-anchor="start" x="210.5" y="-497.5002" font-family="FreeSans" font-size="10.00" fill="#000000">PHG4GDMLConfig::get</text>
<text text-anchor="middle" x="270" y="-485.5002" font-family="FreeSans" font-size="10.00" fill="#000000">_excluded_physical_vol</text>
</a>
</g>
</g>
<!-- Node1&#45;&gt;Node40 -->
<g id="edge122" class="edge">
<title>Node1&#45;&gt;Node40</title>
<path fill="none" stroke="#191970" d="M73.9878,-1359.4538C81.0136,-1247.5283 124.7909,-586.015 182,-519.5002 185.2591,-515.711 189.0466,-512.4756 193.1835,-509.7151"/>
<polygon fill="#191970" stroke="#191970" points="195.1113,-512.6464 202.1082,-504.6906 191.6772,-506.5467 195.1113,-512.6464"/>
</g>
<!-- Node41 -->
<g id="node41" class="node">
<title>Node41</title>
<g id="a_node41"><a xlink:href="../../d2/d72/classPHG4GDMLWriteStructure.html#a6f43dec8d3aac69dda385a18e6391528" target="_top" xlink:title="PHG4GDMLWriteStructure\l::GetBorderSurface">
<polygon fill="none" stroke="#ff0000" points="197,-427.5002 197,-459.5002 343,-459.5002 343,-427.5002 197,-427.5002"/>
<text text-anchor="start" x="205" y="-446.5002" font-family="FreeSans" font-size="10.00" fill="#000000">PHG4GDMLWriteStructure</text>
<text text-anchor="middle" x="270" y="-434.5002" font-family="FreeSans" font-size="10.00" fill="#000000">::GetBorderSurface</text>
</a>
</g>
</g>
<!-- Node1&#45;&gt;Node41 -->
<g id="edge123" class="edge">
<title>Node1&#45;&gt;Node41</title>
<path fill="none" stroke="#191970" d="M73.879,-1359.2523C80.3099,-1242.9241 121.5552,-539.2803 182,-468.5002 183.9822,-466.179 186.1628,-464.0655 188.5008,-462.1415"/>
<polygon fill="#191970" stroke="#191970" points="190.7369,-464.8516 196.9967,-456.3037 186.7727,-459.0823 190.7369,-464.8516"/>
</g>
<!-- Node42 -->
<g id="node42" class="node">
<title>Node42</title>
<g id="a_node42"><a xlink:href="../../d2/d72/classPHG4GDMLWriteStructure.html#af03cba3e27bc33c5c3191e0240bd3474" target="_top" xlink:title="PHG4GDMLWriteStructure\l::GetSkinSurface">
<polygon fill="none" stroke="#ff0000" points="197,-376.5002 197,-408.5002 343,-408.5002 343,-376.5002 197,-376.5002"/>
<text text-anchor="start" x="205" y="-395.5002" font-family="FreeSans" font-size="10.00" fill="#000000">PHG4GDMLWriteStructure</text>
<text text-anchor="middle" x="270" y="-383.5002" font-family="FreeSans" font-size="10.00" fill="#000000">::GetSkinSurface</text>
</a>
</g>
</g>
<!-- Node1&#45;&gt;Node42 -->
<g id="edge124" class="edge">
<title>Node1&#45;&gt;Node42</title>
<path fill="none" stroke="#191970" d="M73.7583,-1359.5001C79.5459,-1240.2487 118.2365,-492.6453 182,-417.5002 183.9749,-415.1728 186.1492,-413.0539 188.4819,-411.1254"/>
<polygon fill="#191970" stroke="#191970" points="190.7189,-413.8344 196.9636,-405.2756 186.7445,-408.0721 190.7189,-413.8344"/>
</g>
<!-- Node43 -->
<g id="node43" class="node">
<title>Node43</title>
<g id="a_node43"><a xlink:href="../../dd/db5/classPHG4GDMLWrite.html#a637040f93ad222662050706c4dc2c36e" target="_top" xlink:title="PHG4GDMLWrite::Modularize">
<polygon fill="none" stroke="#ff0000" points="189,-337.5002 189,-357.5002 351,-357.5002 351,-337.5002 189,-337.5002"/>
<text text-anchor="middle" x="270" y="-344.5002" font-family="FreeSans" font-size="10.00" fill="#000000">PHG4GDMLWrite::Modularize</text>
</a>
</g>
</g>
<!-- Node1&#45;&gt;Node43 -->
<g id="edge125" class="edge">
<title>Node1&#45;&gt;Node43</title>
<path fill="none" stroke="#191970" d="M73.6185,-1359.4019C78.4993,-1236.0749 112.4535,-443.7638 182,-366.5002 182.7842,-365.6289 183.5981,-364.7924 184.4391,-363.9894"/>
<polygon fill="#191970" stroke="#191970" points="186.8996,-366.5115 192.6767,-357.6303 182.6221,-360.9704 186.8996,-366.5115"/>
</g>
<!-- Node44 -->
<g id="node44" class="node">
<title>Node44</title>
<g id="a_node44"><a xlink:href="../../d2/dc5/KFPTrackVector_8h.html#a39a53a622c6abde5e888e4ad46fb04af" target="_top" xlink:title="Returns momentum of the track with index &quot;n&quot;.">
<polygon fill="none" stroke="#000000" points="255.5,-298.5002 255.5,-318.5002 284.5,-318.5002 284.5,-298.5002 255.5,-298.5002"/>
<text text-anchor="middle" x="270" y="-305.5002" font-family="FreeSans" font-size="10.00" fill="#000000">P</text>
</a>
</g>
</g>
<!-- Node1&#45;&gt;Node44 -->
<g id="edge128" class="edge">
<title>Node1&#45;&gt;Node44</title>
<path fill="none" stroke="#191970" d="M73.5584,-1359.1863C78.0416,-1232.447 109.8791,-407.9449 182,-327.5002 197.6538,-310.0397 225.1856,-306.5193 245.2957,-306.5966"/>
<polygon fill="#191970" stroke="#191970" points="245.1974,-310.0951 255.3073,-306.9268 245.4282,-303.0989 245.1974,-310.0951"/>
</g>
<!-- Node45 -->
<g id="node45" class="node">
<title>Node45</title>
<g id="a_node45"><a xlink:href="../../d8/dd9/classPHG4GDMLWriteParamvol.html#a93a2dff92e3409e4fe71b661e584afd1" target="_top" xlink:title="PHG4GDMLWriteParamvol\l::ParamvolWrite">
<polygon fill="none" stroke="#ff0000" points="404,-1563.5002 404,-1595.5002 550,-1595.5002 550,-1563.5002 404,-1563.5002"/>
<text text-anchor="start" x="412" y="-1582.5002" font-family="FreeSans" font-size="10.00" fill="#000000">PHG4GDMLWriteParamvol</text>
<text text-anchor="middle" x="477" y="-1570.5002" font-family="FreeSans" font-size="10.00" fill="#000000">::ParamvolWrite</text>
</a>
</g>
</g>
<!-- Node1&#45;&gt;Node45 -->
<g id="edge129" class="edge">
<title>Node1&#45;&gt;Node45</title>
<path fill="none" stroke="#191970" d="M82.8432,-1391.9195C99.7152,-1418.6225 136.753,-1471.3055 182,-1499.5002 246.6329,-1539.7748 331.5075,-1560.0352 393.6177,-1570.0642"/>
<polygon fill="#191970" stroke="#191970" points="393.3521,-1573.565 403.7717,-1571.6457 394.4295,-1566.6483 393.3521,-1573.565"/>
</g>
<!-- Node46 -->
<g id="node46" class="node">
<title>Node46</title>
<g id="a_node46"><a xlink:href="../../d2/d72/classPHG4GDMLWriteStructure.html#af46624d56ade5ec0eb4bc5cb3d497387" target="_top" xlink:title="PHG4GDMLWriteStructure\l::PhysvolWrite">
<polygon fill="none" stroke="#ff0000" points="404,-1512.5002 404,-1544.5002 550,-1544.5002 550,-1512.5002 404,-1512.5002"/>
<text text-anchor="start" x="412" y="-1531.5002" font-family="FreeSans" font-size="10.00" fill="#000000">PHG4GDMLWriteStructure</text>
<text text-anchor="middle" x="477" y="-1519.5002" font-family="FreeSans" font-size="10.00" fill="#000000">::PhysvolWrite</text>
</a>
</g>
</g>
<!-- Node1&#45;&gt;Node46 -->
<g id="edge133" class="edge">
<title>Node1&#45;&gt;Node46</title>
<path fill="none" stroke="#191970" d="M89.6202,-1391.7866C109.7999,-1410.6443 145.6639,-1441.3099 182,-1458.5002 249.6082,-1490.4851 333.0461,-1508.529 393.9136,-1518.254"/>
<polygon fill="#191970" stroke="#191970" points="393.4434,-1521.7229 403.8626,-1519.8018 394.5195,-1514.8061 393.4434,-1521.7229"/>
</g>
<!-- Node47 -->
<g id="node47" class="node">
<title>Node47</title>
<g id="a_node47"><a xlink:href="../../d2/d72/classPHG4GDMLWriteStructure.html#a9d491a55fd540a45f0ec2a6b87953782" target="_top" xlink:title="PHG4GDMLWriteStructure\l::ReplicavolWrite">
<polygon fill="none" stroke="#000000" points="404,-1461.5002 404,-1493.5002 550,-1493.5002 550,-1461.5002 404,-1461.5002"/>
<text text-anchor="start" x="412" y="-1480.5002" font-family="FreeSans" font-size="10.00" fill="#000000">PHG4GDMLWriteStructure</text>
<text text-anchor="middle" x="477" y="-1468.5002" font-family="FreeSans" font-size="10.00" fill="#000000">::ReplicavolWrite</text>
</a>
</g>
</g>
<!-- Node1&#45;&gt;Node47 -->
<g id="edge137" class="edge">
<title>Node1&#45;&gt;Node47</title>
<path fill="none" stroke="#191970" d="M103.2279,-1391.5072C124.6824,-1402.2611 154.4496,-1415.9743 182,-1424.5002 251.899,-1446.1316 334.0134,-1459.9901 393.835,-1468.0884"/>
<polygon fill="#191970" stroke="#191970" points="393.613,-1471.5895 403.9867,-1469.4364 394.5345,-1464.6505 393.613,-1471.5895"/>
</g>
<!-- Node48 -->
<g id="node48" class="node">
<title>Node48</title>
<g id="a_node48"><a xlink:href="../../d2/d72/classPHG4GDMLWriteStructure.html#a2411bf73dc26fa137b5547e3ffb033ff" target="_top" xlink:title="PHG4GDMLWriteStructure\l::SkinSurfaceCache">
<polygon fill="none" stroke="#ff0000" points="404,-1410.5002 404,-1442.5002 550,-1442.5002 550,-1410.5002 404,-1410.5002"/>
<text text-anchor="start" x="412" y="-1429.5002" font-family="FreeSans" font-size="10.00" fill="#000000">PHG4GDMLWriteStructure</text>
<text text-anchor="middle" x="477" y="-1417.5002" font-family="FreeSans" font-size="10.00" fill="#000000">::SkinSurfaceCache</text>
</a>
</g>
</g>
<!-- Node1&#45;&gt;Node48 -->
<g id="edge141" class="edge">
<title>Node1&#45;&gt;Node48</title>
<path fill="none" stroke="#191970" d="M136.1144,-1391.5246C151.0798,-1394.8932 167.0418,-1398.1371 182,-1400.5002 253.05,-1411.7246 334.5493,-1418.446 393.856,-1422.2338"/>
<polygon fill="#191970" stroke="#191970" points="393.7211,-1425.7321 403.9197,-1422.8621 394.1573,-1418.7457 393.7211,-1425.7321"/>
</g>
<!-- Node49 -->
<g id="node49" class="node">
<title>Node49</title>
<g id="a_node49"><a xlink:href="../../dd/db5/classPHG4GDMLWrite.html#a2e03286e47cae3a6bb779696e865a801" target="_top" xlink:title="PHG4GDMLWrite::VolumeMap">
<polygon fill="none" stroke="#000000" points="394,-1794.5002 394,-1814.5002 560,-1814.5002 560,-1794.5002 394,-1794.5002"/>
<text text-anchor="middle" x="477" y="-1801.5002" font-family="FreeSans" font-size="10.00" fill="#000000">PHG4GDMLWrite::VolumeMap</text>
</a>
</g>
</g>
<!-- Node1&#45;&gt;Node49 -->
<g id="edge145" class="edge">
<title>Node1&#45;&gt;Node49</title>
<path fill="none" stroke="#191970" d="M74.9466,-1391.6922C83.5391,-1460.2854 120.4008,-1725.7584 182,-1777.5002 211.6658,-1802.4187 308.5915,-1807.3586 383.3329,-1807.2049"/>
<polygon fill="#191970" stroke="#191970" points="383.7411,-1810.7029 393.7227,-1807.151 383.7047,-1803.703 383.7411,-1810.7029"/>
</g>
<!-- Node50 -->
<g id="node50" class="node">
<title>Node50</title>
<g id="a_node50"><a xlink:href="../../dd/db5/classPHG4GDMLWrite.html#af4241e53bb71408c9bf11117053f9810" target="_top" xlink:title="PHG4GDMLWrite::Write">
<polygon fill="none" stroke="#ff0000" points="203.5,-1831.5002 203.5,-1851.5002 336.5,-1851.5002 336.5,-1831.5002 203.5,-1831.5002"/>
<text text-anchor="middle" x="270" y="-1838.5002" font-family="FreeSans" font-size="10.00" fill="#000000">PHG4GDMLWrite::Write</text>
</a>
</g>
</g>
<!-- Node1&#45;&gt;Node50 -->
<g id="edge146" class="edge">
<title>Node1&#45;&gt;Node50</title>
<path fill="none" stroke="#191970" d="M74.8634,-1391.9537C83.3709,-1464.2714 120.7642,-1753.1152 182,-1816.5002 185.9313,-1820.5695 190.4726,-1823.9903 195.378,-1826.8644"/>
<polygon fill="#191970" stroke="#191970" points="194.0406,-1830.1093 204.5478,-1831.4692 197.182,-1823.8537 194.0406,-1830.1093"/>
</g>
<!-- Node2&#45;&gt;Node3 -->
<g id="edge2" class="edge">
<title>Node2&#45;&gt;Node3</title>
<path fill="none" stroke="#191970" d="M538.7521,-1755.4849C546.7778,-1751.8824 554.2065,-1747.0288 560,-1740.5002 657.07,-1631.1125 682.3629,-1139.3039 686.7396,-1032.8591"/>
<polygon fill="#191970" stroke="#191970" points="690.2492,-1032.6835 687.1464,-1022.5532 683.2546,-1032.4074 690.2492,-1032.6835"/>
</g>
<!-- Node2&#45;&gt;Node4 -->
<g id="edge3" class="edge">
<title>Node2&#45;&gt;Node4</title>
<path fill="none" stroke="#191970" d="M541.1343,-1755.33C548.4119,-1751.7191 554.9972,-1746.9043 560,-1740.5002 662.4469,-1609.3573 491.8668,-1122.3082 596,-992.5002 598.9787,-988.7871 602.4513,-985.5938 606.2683,-982.8503"/>
<polygon fill="#191970" stroke="#191970" points="608.3464,-985.6849 615.1165,-977.5354 604.7419,-979.6843 608.3464,-985.6849"/>
</g>
<!-- Node7 -->
<g id="node7" class="node">
<title>Node7</title>
<g id="a_node7"><a xlink:href="../../d3/d04/classPHG4GDMLWriteMaterials.html#a24dff32470666c766f8e697a00247b74" target="_top" xlink:title="PHG4GDMLWriteMaterials\l::MaterialWrite">
<polygon fill="none" stroke="#ff0000" points="404,-1359.5002 404,-1391.5002 550,-1391.5002 550,-1359.5002 404,-1359.5002"/>
<text text-anchor="start" x="412" y="-1378.5002" font-family="FreeSans" font-size="10.00" fill="#000000">PHG4GDMLWriteMaterials</text>
<text text-anchor="middle" x="477" y="-1366.5002" font-family="FreeSans" font-size="10.00" fill="#000000">::MaterialWrite</text>
</a>
</g>
</g>
<!-- Node6&#45;&gt;Node7 -->
<g id="edge6" class="edge">
<title>Node6&#45;&gt;Node7</title>
<path fill="none" stroke="#191970" d="M343.2718,-1375.5002C359.5488,-1375.5002 376.9192,-1375.5002 393.5691,-1375.5002"/>
<polygon fill="#191970" stroke="#191970" points="393.8267,-1379.0003 403.8267,-1375.5002 393.8267,-1372.0003 393.8267,-1379.0003"/>
</g>
<!-- Node7&#45;&gt;Node3 -->
<g id="edge8" class="edge">
<title>Node7&#45;&gt;Node3</title>
<path fill="none" stroke="#191970" d="M546.3778,-1359.3905C551.3133,-1356.6034 555.9362,-1353.3344 560,-1349.5002 655.335,-1259.5514 680.0239,-1091.0852 685.8457,-1032.8894"/>
<polygon fill="#191970" stroke="#191970" points="689.3452,-1033.0545 686.7738,-1022.7764 682.3745,-1032.4147 689.3452,-1033.0545"/>
</g>
<!-- Node7&#45;&gt;Node4 -->
<g id="edge9" class="edge">
<title>Node7&#45;&gt;Node4</title>
<path fill="none" stroke="#191970" d="M549.0513,-1359.4777C553.136,-1356.6615 556.8517,-1353.3628 560,-1349.5002 660.7527,-1225.8879 492.9865,-1114.2349 596,-992.5002 599.2212,-988.6936 602.9606,-985.4377 607.0505,-982.6556"/>
<polygon fill="#191970" stroke="#191970" points="608.9534,-985.599 615.8842,-977.5855 605.4689,-979.5279 608.9534,-985.599"/>
</g>
<!-- Node7&#45;&gt;Node8 -->
<g id="edge7" class="edge">
<title>Node7&#45;&gt;Node8</title>
<path fill="none" stroke="#191970" d="M549.4698,-1359.2595C553.3974,-1356.4909 556.9681,-1353.2627 560,-1349.5002 616.2762,-1279.6616 561.3955,-1030.2466 596,-947.5002 611.7216,-909.9066 645.4649,-875.7028 667.2879,-856.2696"/>
<polygon fill="#191970" stroke="#191970" points="669.7494,-858.7676 675.0058,-849.5685 665.1601,-853.4819 669.7494,-858.7676"/>
</g>
<!-- Node10 -->
<g id="node10" class="node">
<title>Node10</title>
<g id="a_node10"><a xlink:href="../../d0/d94/classPHG4GDMLWriteSolids.html#acaa5a680bf366ae99a07faf07f4cbf7c" target="_top" xlink:title="PHG4GDMLWriteSolids\l::BooleanWrite">
<polygon fill="none" stroke="#ff0000" points="412,-84.5002 412,-116.5002 542,-116.5002 542,-84.5002 412,-84.5002"/>
<text text-anchor="start" x="420" y="-103.5002" font-family="FreeSans" font-size="10.00" fill="#000000">PHG4GDMLWriteSolids</text>
<text text-anchor="middle" x="477" y="-91.5002" font-family="FreeSans" font-size="10.00" fill="#000000">::BooleanWrite</text>
</a>
</g>
</g>
<!-- Node9&#45;&gt;Node10 -->
<g id="edge11" class="edge">
<title>Node9&#45;&gt;Node10</title>
<path fill="none" stroke="#191970" d="M321.9528,-747.3791C335.7471,-742.432 349.2278,-735.1438 358,-723.5002 439.3096,-615.5755 310.2226,-222.5208 394,-116.5002 396.6023,-113.207 399.6228,-110.3346 402.9394,-107.8421"/>
<polygon fill="#191970" stroke="#191970" points="405.0626,-110.6441 411.724,-102.4054 401.3788,-104.6918 405.0626,-110.6441"/>
</g>
<!-- Node12 -->
<g id="node12" class="node">
<title>Node12</title>
<g id="a_node12"><a xlink:href="../../d0/d94/classPHG4GDMLWriteSolids.html#adb86c05c10ce4fdade5108b9e32b4398" target="_top" xlink:title="PHG4GDMLWriteSolids\l::BoxWrite">
<polygon fill="none" stroke="#000000" points="412,-441.5002 412,-473.5002 542,-473.5002 542,-441.5002 412,-441.5002"/>
<text text-anchor="start" x="420" y="-460.5002" font-family="FreeSans" font-size="10.00" fill="#000000">PHG4GDMLWriteSolids</text>
<text text-anchor="middle" x="477" y="-448.5002" font-family="FreeSans" font-size="10.00" fill="#000000">::BoxWrite</text>
</a>
</g>
</g>
<!-- Node9&#45;&gt;Node12 -->
<g id="edge17" class="edge">
<title>Node9&#45;&gt;Node12</title>
<path fill="none" stroke="#191970" d="M335.3568,-749.8016C343.991,-745.5136 351.9347,-739.8857 358,-732.5002 429.2442,-645.748 320.7737,-567.586 394,-482.5002 396.6843,-479.3812 399.742,-476.6433 403.0629,-474.2406"/>
<polygon fill="#191970" stroke="#191970" points="405.0688,-477.1173 411.7966,-468.9327 401.4333,-471.1354 405.0688,-477.1173"/>
</g>
<!-- Node13 -->
<g id="node13" class="node">
<title>Node13</title>
<g id="a_node13"><a xlink:href="../../d0/d94/classPHG4GDMLWriteSolids.html#af0fa6864ad9bdd61795f81b23e0c05c9" target="_top" xlink:title="PHG4GDMLWriteSolids\l::ConeWrite">
<polygon fill="none" stroke="#000000" points="412,-390.5002 412,-422.5002 542,-422.5002 542,-390.5002 412,-390.5002"/>
<text text-anchor="start" x="420" y="-409.5002" font-family="FreeSans" font-size="10.00" fill="#000000">PHG4GDMLWriteSolids</text>
<text text-anchor="middle" x="477" y="-397.5002" font-family="FreeSans" font-size="10.00" fill="#000000">::ConeWrite</text>
</a>
</g>
</g>
<!-- Node9&#45;&gt;Node13 -->
<g id="edge21" class="edge">
<title>Node9&#45;&gt;Node13</title>
<path fill="none" stroke="#191970" d="M335.0763,-750.1476C343.8598,-745.8162 351.9224,-740.0843 358,-732.5002 442.2528,-627.3624 307.3445,-534.6667 394,-431.5002 396.6467,-428.3493 399.6749,-425.5862 402.9729,-423.1641"/>
<polygon fill="#191970" stroke="#191970" points="404.9789,-426.0394 411.6631,-417.8192 401.3116,-420.0769 404.9789,-426.0394"/>
</g>
<!-- Node14 -->
<g id="node14" class="node">
<title>Node14</title>
<g id="a_node14"><a xlink:href="../../d0/d94/classPHG4GDMLWriteSolids.html#afa8d5aea54a4b2e2367e0511bc7c12a5" target="_top" xlink:title="PHG4GDMLWriteSolids\l::CutTubeWrite">
<polygon fill="none" stroke="#000000" points="412,-339.5002 412,-371.5002 542,-371.5002 542,-339.5002 412,-339.5002"/>
<text text-anchor="start" x="420" y="-358.5002" font-family="FreeSans" font-size="10.00" fill="#000000">PHG4GDMLWriteSolids</text>
<text text-anchor="middle" x="477" y="-346.5002" font-family="FreeSans" font-size="10.00" fill="#000000">::CutTubeWrite</text>
</a>
</g>
</g>
<!-- Node9&#45;&gt;Node14 -->
<g id="edge25" class="edge">
<title>Node9&#45;&gt;Node14</title>
<path fill="none" stroke="#191970" d="M335.1909,-750.2386C343.9595,-745.8955 351.9876,-740.136 358,-732.5002 455.2874,-608.9444 293.8886,-501.7791 394,-380.5002 396.7483,-377.1708 399.923,-374.2736 403.3939,-371.7536"/>
<polygon fill="#191970" stroke="#191970" points="405.2481,-374.7224 411.9692,-366.5322 401.6076,-368.7435 405.2481,-374.7224"/>
</g>
<!-- Node15 -->
<g id="node15" class="node">
<title>Node15</title>
<g id="a_node15"><a xlink:href="../../d0/d94/classPHG4GDMLWriteSolids.html#a95a1f206d10ac25171774e465e42246c" target="_top" xlink:title="PHG4GDMLWriteSolids\l::ElconeWrite">
<polygon fill="none" stroke="#000000" points="412,-849.5002 412,-881.5002 542,-881.5002 542,-849.5002 412,-849.5002"/>
<text text-anchor="start" x="420" y="-868.5002" font-family="FreeSans" font-size="10.00" fill="#000000">PHG4GDMLWriteSolids</text>
<text text-anchor="middle" x="477" y="-856.5002" font-family="FreeSans" font-size="10.00" fill="#000000">::ElconeWrite</text>
</a>
</g>
</g>
<!-- Node9&#45;&gt;Node15 -->
<g id="edge29" class="edge">
<title>Node9&#45;&gt;Node15</title>
<path fill="none" stroke="#191970" d="M292.3705,-779.5586C316.5075,-796.3128 356.5337,-822.4663 394,-839.5002 398.983,-841.7657 404.219,-843.9109 409.5365,-845.9245"/>
<polygon fill="#191970" stroke="#191970" points="408.5646,-849.2949 419.1589,-849.4044 410.9452,-842.7121 408.5646,-849.2949"/>
</g>
<!-- Node16 -->
<g id="node16" class="node">
<title>Node16</title>
<g id="a_node16"><a xlink:href="../../d0/d94/classPHG4GDMLWriteSolids.html#a0ecc7bc248265507e79a9fca71575014" target="_top" xlink:title="PHG4GDMLWriteSolids\l::EllipsoidWrite">
<polygon fill="none" stroke="#000000" points="412,-798.5002 412,-830.5002 542,-830.5002 542,-798.5002 412,-798.5002"/>
<text text-anchor="start" x="420" y="-817.5002" font-family="FreeSans" font-size="10.00" fill="#000000">PHG4GDMLWriteSolids</text>
<text text-anchor="middle" x="477" y="-805.5002" font-family="FreeSans" font-size="10.00" fill="#000000">::EllipsoidWrite</text>
</a>
</g>
</g>
<!-- Node9&#45;&gt;Node16 -->
<g id="edge33" class="edge">
<title>Node9&#45;&gt;Node16</title>
<path fill="none" stroke="#191970" d="M335.212,-779.5669C356.3822,-784.7828 380.0403,-790.6116 401.873,-795.9907"/>
<polygon fill="#191970" stroke="#191970" points="401.2133,-799.4327 411.7603,-798.4267 402.888,-792.636 401.2133,-799.4327"/>
</g>
<!-- Node17 -->
<g id="node17" class="node">
<title>Node17</title>
<g id="a_node17"><a xlink:href="../../d0/d94/classPHG4GDMLWriteSolids.html#ab8adc5f1f99be44fbfbf7cb3c5e1e020" target="_top" xlink:title="PHG4GDMLWriteSolids\l::EltubeWrite">
<polygon fill="none" stroke="#000000" points="412,-747.5002 412,-779.5002 542,-779.5002 542,-747.5002 412,-747.5002"/>
<text text-anchor="start" x="420" y="-766.5002" font-family="FreeSans" font-size="10.00" fill="#000000">PHG4GDMLWriteSolids</text>
<text text-anchor="middle" x="477" y="-754.5002" font-family="FreeSans" font-size="10.00" fill="#000000">::EltubeWrite</text>
</a>
</g>
</g>
<!-- Node9&#45;&gt;Node17 -->
<g id="edge37" class="edge">
<title>Node9&#45;&gt;Node17</title>
<path fill="none" stroke="#191970" d="M335.212,-763.5002C356.2868,-763.5002 379.8272,-763.5002 401.5779,-763.5002"/>
<polygon fill="#191970" stroke="#191970" points="401.7603,-767.0003 411.7603,-763.5002 401.7603,-760.0003 401.7603,-767.0003"/>
</g>
<!-- Node18 -->
<g id="node18" class="node">
<title>Node18</title>
<g id="a_node18"><a xlink:href="../../d0/d94/classPHG4GDMLWriteSolids.html#ab179c3202cc083769c7c4b3a391f7bad" target="_top" xlink:title="PHG4GDMLWriteSolids\l::GenericPolyconeWrite">
<polygon fill="none" stroke="#ff0000" points="410,-135.5002 410,-167.5002 544,-167.5002 544,-135.5002 410,-135.5002"/>
<text text-anchor="start" x="418" y="-154.5002" font-family="FreeSans" font-size="10.00" fill="#000000">PHG4GDMLWriteSolids</text>
<text text-anchor="middle" x="477" y="-142.5002" font-family="FreeSans" font-size="10.00" fill="#000000">::GenericPolyconeWrite</text>
</a>
</g>
</g>
<!-- Node9&#45;&gt;Node18 -->
<g id="edge41" class="edge">
<title>Node9&#45;&gt;Node18</title>
<path fill="none" stroke="#191970" d="M335.0054,-750.6504C343.9133,-746.2584 352.033,-740.3758 358,-732.5002 432.7708,-633.8123 316.9728,-273.4372 394,-176.5002 396.1533,-173.7903 398.5897,-171.3655 401.2409,-169.1965"/>
<polygon fill="#191970" stroke="#191970" points="403.4482,-171.929 409.7706,-163.4274 399.5265,-166.1307 403.4482,-171.929"/>
</g>
<!-- Node19 -->
<g id="node19" class="node">
<title>Node19</title>
<g id="a_node19"><a xlink:href="../../d0/d94/classPHG4GDMLWriteSolids.html#a9e0a708dbd9fcbfcc88009caff0d6853" target="_top" xlink:title="PHG4GDMLWriteSolids\l::GenTrapWrite">
<polygon fill="none" stroke="#000000" points="412,-1002.5002 412,-1034.5002 542,-1034.5002 542,-1002.5002 412,-1002.5002"/>
<text text-anchor="start" x="420" y="-1021.5002" font-family="FreeSans" font-size="10.00" fill="#000000">PHG4GDMLWriteSolids</text>
<text text-anchor="middle" x="477" y="-1009.5002" font-family="FreeSans" font-size="10.00" fill="#000000">::GenTrapWrite</text>
</a>
</g>
</g>
<!-- Node9&#45;&gt;Node19 -->
<g id="edge45" class="edge">
<title>Node9&#45;&gt;Node19</title>
<path fill="none" stroke="#191970" d="M274.1161,-779.5182C285.6265,-821.0867 322.1131,-933.285 394,-992.5002 396.7645,-994.7774 399.7291,-996.8558 402.8332,-998.7527"/>
<polygon fill="#191970" stroke="#191970" points="401.4353,-1001.975 411.8997,-1003.6323 404.7528,-995.811 401.4353,-1001.975"/>
</g>
<!-- Node20 -->
<g id="node20" class="node">
<title>Node20</title>
<g id="a_node20"><a xlink:href="../../d0/d94/classPHG4GDMLWriteSolids.html#abd293d652e55c78e3cfb5cbc4580a565" target="_top" xlink:title="PHG4GDMLWriteSolids\l::HypeWrite">
<polygon fill="none" stroke="#000000" points="412,-951.5002 412,-983.5002 542,-983.5002 542,-951.5002 412,-951.5002"/>
<text text-anchor="start" x="420" y="-970.5002" font-family="FreeSans" font-size="10.00" fill="#000000">PHG4GDMLWriteSolids</text>
<text text-anchor="middle" x="477" y="-958.5002" font-family="FreeSans" font-size="10.00" fill="#000000">::HypeWrite</text>
</a>
</g>
</g>
<!-- Node9&#45;&gt;Node20 -->
<g id="edge49" class="edge">
<title>Node9&#45;&gt;Node20</title>
<path fill="none" stroke="#191970" d="M276.8342,-779.7133C292.3698,-814.6157 333.7229,-897.2781 394,-941.5002 396.825,-943.5728 399.8197,-945.4832 402.9302,-947.2439"/>
<polygon fill="#191970" stroke="#191970" points="401.456,-950.4205 411.958,-951.8196 404.6207,-944.1767 401.456,-950.4205"/>
</g>
<!-- Node21 -->
<g id="node21" class="node">
<title>Node21</title>
<g id="a_node21"><a xlink:href="../../d0/d94/classPHG4GDMLWriteSolids.html#a0e1bf2f22e7d43045979c8f4d3b7268f" target="_top" xlink:title="PHG4GDMLWriteSolids\l::MultiUnionWrite">
<polygon fill="none" stroke="#000000" points="412,-900.5002 412,-932.5002 542,-932.5002 542,-900.5002 412,-900.5002"/>
<text text-anchor="start" x="420" y="-919.5002" font-family="FreeSans" font-size="10.00" fill="#000000">PHG4GDMLWriteSolids</text>
<text text-anchor="middle" x="477" y="-907.5002" font-family="FreeSans" font-size="10.00" fill="#000000">::MultiUnionWrite</text>
</a>
</g>
</g>
<!-- Node9&#45;&gt;Node21 -->
<g id="edge53" class="edge">
<title>Node9&#45;&gt;Node21</title>
<path fill="none" stroke="#191970" d="M281.465,-779.636C301.3607,-806.4864 344.8874,-860.3579 394,-890.5002 397.3783,-892.5736 400.9364,-894.4951 404.602,-896.2742"/>
<polygon fill="#191970" stroke="#191970" points="403.3346,-899.541 413.8939,-900.4082 406.1801,-893.1454 403.3346,-899.541"/>
</g>
<!-- Node22 -->
<g id="node22" class="node">
<title>Node22</title>
<g id="a_node22"><a xlink:href="../../d0/d94/classPHG4GDMLWriteSolids.html#a23f60faf33372b4ca39915d3db566a59" target="_top" xlink:title="PHG4GDMLWriteSolids\l::OrbWrite">
<polygon fill="none" stroke="#000000" points="412,-1308.5002 412,-1340.5002 542,-1340.5002 542,-1308.5002 412,-1308.5002"/>
<text text-anchor="start" x="420" y="-1327.5002" font-family="FreeSans" font-size="10.00" fill="#000000">PHG4GDMLWriteSolids</text>
<text text-anchor="middle" x="477" y="-1315.5002" font-family="FreeSans" font-size="10.00" fill="#000000">::OrbWrite</text>
</a>
</g>
</g>
<!-- Node9&#45;&gt;Node22 -->
<g id="edge54" class="edge">
<title>Node9&#45;&gt;Node22</title>
<path fill="none" stroke="#191970" d="M271.6085,-779.7523C279.9249,-860.6555 320.5161,-1219.2226 394,-1298.5002 396.7507,-1301.4678 399.835,-1304.099 403.1529,-1306.4318"/>
<polygon fill="#191970" stroke="#191970" points="401.4491,-1309.4912 411.8244,-1311.6371 405.0519,-1303.4895 401.4491,-1309.4912"/>
</g>
<!-- Node23 -->
<g id="node23" class="node">
<title>Node23</title>
<g id="a_node23"><a xlink:href="../../d0/d94/classPHG4GDMLWriteSolids.html#a63fa8de3ebea6833999f0d15b0182330" target="_top" xlink:title="PHG4GDMLWriteSolids\l::ParaboloidWrite">
<polygon fill="none" stroke="#000000" points="412,-1155.5002 412,-1187.5002 542,-1187.5002 542,-1155.5002 412,-1155.5002"/>
<text text-anchor="start" x="420" y="-1174.5002" font-family="FreeSans" font-size="10.00" fill="#000000">PHG4GDMLWriteSolids</text>
<text text-anchor="middle" x="477" y="-1162.5002" font-family="FreeSans" font-size="10.00" fill="#000000">::ParaboloidWrite</text>
</a>
</g>
</g>
<!-- Node9&#45;&gt;Node23 -->
<g id="edge58" class="edge">
<title>Node9&#45;&gt;Node23</title>
<path fill="none" stroke="#191970" d="M273.2489,-779.9295C286.6148,-845.9929 339.2394,-1091.3011 394,-1145.5002 396.7367,-1148.2089 399.7518,-1150.6359 402.9626,-1152.8105"/>
<polygon fill="#191970" stroke="#191970" points="401.4599,-1155.9858 411.8621,-1157.9974 404.9848,-1149.938 401.4599,-1155.9858"/>
</g>
<!-- Node24 -->
<g id="node24" class="node">
<title>Node24</title>
<g id="a_node24"><a xlink:href="../../d0/d94/classPHG4GDMLWriteSolids.html#a32bb2ff453c9bd44b295315d1fba4536" target="_top" xlink:title="PHG4GDMLWriteSolids\l::ParaWrite">
<polygon fill="none" stroke="#000000" points="412,-1104.5002 412,-1136.5002 542,-1136.5002 542,-1104.5002 412,-1104.5002"/>
<text text-anchor="start" x="420" y="-1123.5002" font-family="FreeSans" font-size="10.00" fill="#000000">PHG4GDMLWriteSolids</text>
<text text-anchor="middle" x="477" y="-1111.5002" font-family="FreeSans" font-size="10.00" fill="#000000">::ParaWrite</text>
</a>
</g>
</g>
<!-- Node9&#45;&gt;Node24 -->
<g id="edge62" class="edge">
<title>Node9&#45;&gt;Node24</title>
<path fill="none" stroke="#191970" d="M271.183,-779.6416C275.9512,-832.7804 298.4064,-1004.0129 394,-1094.5002 396.7382,-1097.0921 399.7317,-1099.4257 402.9049,-1101.5268"/>
<polygon fill="#191970" stroke="#191970" points="401.2572,-1104.6167 411.6717,-1106.5631 404.7441,-1098.5469 401.2572,-1104.6167"/>
</g>
<!-- Node25 -->
<g id="node25" class="node">
<title>Node25</title>
<g id="a_node25"><a xlink:href="../../d0/d94/classPHG4GDMLWriteSolids.html#af6b5adff80e56fddc9767fae06af651a" target="_top" xlink:title="PHG4GDMLWriteSolids\l::PolyconeWrite">
<polygon fill="none" stroke="#ff0000" points="412,-1053.5002 412,-1085.5002 542,-1085.5002 542,-1053.5002 412,-1053.5002"/>
<text text-anchor="start" x="420" y="-1072.5002" font-family="FreeSans" font-size="10.00" fill="#000000">PHG4GDMLWriteSolids</text>
<text text-anchor="middle" x="477" y="-1060.5002" font-family="FreeSans" font-size="10.00" fill="#000000">::PolyconeWrite</text>
</a>
</g>
</g>
<!-- Node9&#45;&gt;Node25 -->
<g id="edge66" class="edge">
<title>Node9&#45;&gt;Node25</title>
<path fill="none" stroke="#191970" d="M272.4468,-779.8286C280.4836,-827.6951 310.5119,-968.9753 394,-1043.5002 396.8127,-1046.011 399.8664,-1048.2793 403.0871,-1050.3286"/>
<polygon fill="#191970" stroke="#191970" points="401.5117,-1053.4572 411.9525,-1055.2577 404.9133,-1047.3393 401.5117,-1053.4572"/>
</g>
<!-- Node26 -->
<g id="node26" class="node">
<title>Node26</title>
<g id="a_node26"><a xlink:href="../../d0/d94/classPHG4GDMLWriteSolids.html#ace99086533ca2af8366d439a3a08f9ae" target="_top" xlink:title="PHG4GDMLWriteSolids\l::PolyhedraWrite">
<polygon fill="none" stroke="#ff0000" points="412,-288.5002 412,-320.5002 542,-320.5002 542,-288.5002 412,-288.5002"/>
<text text-anchor="start" x="420" y="-307.5002" font-family="FreeSans" font-size="10.00" fill="#000000">PHG4GDMLWriteSolids</text>
<text text-anchor="middle" x="477" y="-295.5002" font-family="FreeSans" font-size="10.00" fill="#000000">::PolyhedraWrite</text>
</a>
</g>
</g>
<!-- Node9&#45;&gt;Node26 -->
<g id="edge70" class="edge">
<title>Node9&#45;&gt;Node26</title>
<path fill="none" stroke="#191970" d="M335.2772,-750.3061C344.0346,-745.9543 352.0367,-740.1744 358,-732.5002 413.169,-661.5032 337.2081,-399.2058 394,-329.5002 396.7269,-326.1532 399.885,-323.2424 403.3433,-320.7121"/>
<polygon fill="#191970" stroke="#191970" points="405.1974,-323.6808 411.896,-315.4722 401.5405,-317.7119 405.1974,-323.6808"/>
</g>
<!-- Node27 -->
<g id="node27" class="node">
<title>Node27</title>
<g id="a_node27"><a xlink:href="../../d0/d94/classPHG4GDMLWriteSolids.html#a6e42ab8eadb2fde73103ced7c6515d43" target="_top" xlink:title="PHG4GDMLWriteSolids\l::SphereWrite">
<polygon fill="none" stroke="#000000" points="412,-237.5002 412,-269.5002 542,-269.5002 542,-237.5002 412,-237.5002"/>
<text text-anchor="start" x="420" y="-256.5002" font-family="FreeSans" font-size="10.00" fill="#000000">PHG4GDMLWriteSolids</text>
<text text-anchor="middle" x="477" y="-244.5002" font-family="FreeSans" font-size="10.00" fill="#000000">::SphereWrite</text>
</a>
</g>
</g>
<!-- Node9&#45;&gt;Node27 -->
<g id="edge74" class="edge">
<title>Node9&#45;&gt;Node27</title>
<path fill="none" stroke="#191970" d="M335.3445,-750.3582C344.0933,-745.9996 352.075,-740.2041 358,-732.5002 419.6996,-652.2772 330.4664,-357.2787 394,-278.5002 396.7102,-275.1397 399.8553,-272.2184 403.3037,-269.68"/>
<polygon fill="#191970" stroke="#191970" points="405.1578,-272.6487 411.8388,-264.4259 401.4882,-266.6877 405.1578,-272.6487"/>
</g>
<!-- Node28 -->
<g id="node28" class="node">
<title>Node28</title>
<g id="a_node28"><a xlink:href="../../d0/d94/classPHG4GDMLWriteSolids.html#a0f2faa6ed82bbf74fdde4ded9c9eba48" target="_top" xlink:title="PHG4GDMLWriteSolids\l::TessellatedWrite">
<polygon fill="none" stroke="#ff0000" points="412,-186.5002 412,-218.5002 542,-218.5002 542,-186.5002 412,-186.5002"/>
<text text-anchor="start" x="420" y="-205.5002" font-family="FreeSans" font-size="10.00" fill="#000000">PHG4GDMLWriteSolids</text>
<text text-anchor="middle" x="477" y="-193.5002" font-family="FreeSans" font-size="10.00" fill="#000000">::TessellatedWrite</text>
</a>
</g>
</g>
<!-- Node9&#45;&gt;Node28 -->
<g id="edge78" class="edge">
<title>Node9&#45;&gt;Node28</title>
<path fill="none" stroke="#191970" d="M335.3986,-750.3996C344.1403,-746.0356 352.1057,-740.2276 358,-732.5002 426.2338,-643.0465 323.721,-315.3563 394,-227.5002 396.6968,-224.1289 399.8315,-221.1992 403.2721,-218.6546"/>
<polygon fill="#191970" stroke="#191970" points="405.126,-221.6233 411.793,-213.3891 401.4462,-215.6685 405.126,-221.6233"/>
</g>
<!-- Node29 -->
<g id="node29" class="node">
<title>Node29</title>
<g id="a_node29"><a xlink:href="../../d0/d94/classPHG4GDMLWriteSolids.html#ac5a46e9304dc7ebcf40b4268fa26c9ea" target="_top" xlink:title="PHG4GDMLWriteSolids\l::TetWrite">
<polygon fill="none" stroke="#ff0000" points="412,-1257.5002 412,-1289.5002 542,-1289.5002 542,-1257.5002 412,-1257.5002"/>
<text text-anchor="start" x="420" y="-1276.5002" font-family="FreeSans" font-size="10.00" fill="#000000">PHG4GDMLWriteSolids</text>
<text text-anchor="middle" x="477" y="-1264.5002" font-family="FreeSans" font-size="10.00" fill="#000000">::TetWrite</text>
</a>
</g>
</g>
<!-- Node9&#45;&gt;Node29 -->
<g id="edge82" class="edge">
<title>Node9&#45;&gt;Node29</title>
<path fill="none" stroke="#191970" d="M272.0273,-779.7044C281.8483,-855.7632 326.7672,-1176.6227 394,-1247.5002 396.7847,-1250.4359 399.8959,-1253.0419 403.2347,-1255.355"/>
<polygon fill="#191970" stroke="#191970" points="401.5601,-1258.4311 411.9464,-1260.5227 405.1313,-1252.4106 401.5601,-1258.4311"/>
</g>
<!-- Node30 -->
<g id="node30" class="node">
<title>Node30</title>
<g id="a_node30"><a xlink:href="../../d0/d94/classPHG4GDMLWriteSolids.html#a5a965c3c48b3db833ab9ed45a9bbdb41" target="_top" xlink:title="PHG4GDMLWriteSolids\l::TorusWrite">
<polygon fill="none" stroke="#000000" points="412,-1206.5002 412,-1238.5002 542,-1238.5002 542,-1206.5002 412,-1206.5002"/>
<text text-anchor="start" x="420" y="-1225.5002" font-family="FreeSans" font-size="10.00" fill="#000000">PHG4GDMLWriteSolids</text>
<text text-anchor="middle" x="477" y="-1213.5002" font-family="FreeSans" font-size="10.00" fill="#000000">::TorusWrite</text>
</a>
</g>
</g>
<!-- Node9&#45;&gt;Node30 -->
<g id="edge86" class="edge">
<title>Node9&#45;&gt;Node30</title>
<path fill="none" stroke="#191970" d="M272.5376,-779.6402C283.9918,-850.582 332.9772,-1133.9537 394,-1196.5002 396.689,-1199.2563 399.6658,-1201.7213 402.8464,-1203.9259"/>
<polygon fill="#191970" stroke="#191970" points="401.2987,-1207.0774 411.684,-1209.1742 404.873,-1201.0587 401.2987,-1207.0774"/>
</g>
<!-- Node31 -->
<g id="node31" class="node">
<title>Node31</title>
<g id="a_node31"><a xlink:href="../../d0/d94/classPHG4GDMLWriteSolids.html#a80558da78c1f285c6242bbc0144465a1" target="_top" xlink:title="PHG4GDMLWriteSolids\l::TrapWrite">
<polygon fill="none" stroke="#000000" points="412,-696.5002 412,-728.5002 542,-728.5002 542,-696.5002 412,-696.5002"/>
<text text-anchor="start" x="420" y="-715.5002" font-family="FreeSans" font-size="10.00" fill="#000000">PHG4GDMLWriteSolids</text>
<text text-anchor="middle" x="477" y="-703.5002" font-family="FreeSans" font-size="10.00" fill="#000000">::TrapWrite</text>
</a>
</g>
</g>
<!-- Node9&#45;&gt;Node31 -->
<g id="edge90" class="edge">
<title>Node9&#45;&gt;Node31</title>
<path fill="none" stroke="#191970" d="M335.212,-747.4335C356.3822,-742.2176 380.0403,-736.3888 401.873,-731.0098"/>
<polygon fill="#191970" stroke="#191970" points="402.888,-734.3644 411.7603,-728.5738 401.2133,-727.5677 402.888,-734.3644"/>
</g>
<!-- Node32 -->
<g id="node32" class="node">
<title>Node32</title>
<g id="a_node32"><a xlink:href="../../d0/d94/classPHG4GDMLWriteSolids.html#aec95c52a133f535ceb1c24ca9ebd59e4" target="_top" xlink:title="PHG4GDMLWriteSolids\l::TrdWrite">
<polygon fill="none" stroke="#000000" points="412,-645.5002 412,-677.5002 542,-677.5002 542,-645.5002 412,-645.5002"/>
<text text-anchor="start" x="420" y="-664.5002" font-family="FreeSans" font-size="10.00" fill="#000000">PHG4GDMLWriteSolids</text>
<text text-anchor="middle" x="477" y="-652.5002" font-family="FreeSans" font-size="10.00" fill="#000000">::TrdWrite</text>
</a>
</g>
</g>
<!-- Node9&#45;&gt;Node32 -->
<g id="edge94" class="edge">
<title>Node9&#45;&gt;Node32</title>
<path fill="none" stroke="#191970" d="M330.5005,-747.3572C340.1719,-743.352 349.7108,-738.4521 358,-732.5002 379.088,-717.3584 372.5684,-701.1515 394,-686.5002 396.7332,-684.6317 399.6096,-682.8997 402.5844,-681.2946"/>
<polygon fill="#191970" stroke="#191970" points="404.2854,-684.3597 411.7592,-676.8501 401.2337,-678.0599 404.2854,-684.3597"/>
</g>
<!-- Node33 -->
<g id="node33" class="node">
<title>Node33</title>
<g id="a_node33"><a xlink:href="../../d0/d94/classPHG4GDMLWriteSolids.html#a344250f109aa3c8b80573dfd51655ddb" target="_top" xlink:title="PHG4GDMLWriteSolids\l::TubeWrite">
<polygon fill="none" stroke="#000000" points="412,-594.5002 412,-626.5002 542,-626.5002 542,-594.5002 412,-594.5002"/>
<text text-anchor="start" x="420" y="-613.5002" font-family="FreeSans" font-size="10.00" fill="#000000">PHG4GDMLWriteSolids</text>
<text text-anchor="middle" x="477" y="-601.5002" font-family="FreeSans" font-size="10.00" fill="#000000">::TubeWrite</text>
</a>
</g>
</g>
<!-- Node9&#45;&gt;Node33 -->
<g id="edge98" class="edge">
<title>Node9&#45;&gt;Node33</title>
<path fill="none" stroke="#191970" d="M335.3674,-747.9476C343.6838,-743.9217 351.5326,-738.8606 358,-732.5002 390.7859,-700.2566 360.4791,-666.979 394,-635.5002 396.7391,-632.9279 399.7335,-630.6196 402.9073,-628.5482"/>
<polygon fill="#191970" stroke="#191970" points="404.6868,-631.5629 411.6755,-623.5999 401.2464,-625.4667 404.6868,-631.5629"/>
</g>
<!-- Node34 -->
<g id="node34" class="node">
<title>Node34</title>
<g id="a_node34"><a xlink:href="../../d0/d94/classPHG4GDMLWriteSolids.html#a1fe20a0882d9c7856a4036a83ff88c27" target="_top" xlink:title="PHG4GDMLWriteSolids\l::TwistedboxWrite">
<polygon fill="none" stroke="#000000" points="412,-543.5002 412,-575.5002 542,-575.5002 542,-543.5002 412,-543.5002"/>
<text text-anchor="start" x="420" y="-562.5002" font-family="FreeSans" font-size="10.00" fill="#000000">PHG4GDMLWriteSolids</text>
<text text-anchor="middle" x="477" y="-550.5002" font-family="FreeSans" font-size="10.00" fill="#000000">::TwistedboxWrite</text>
</a>
</g>
</g>
<!-- Node9&#45;&gt;Node34 -->
<g id="edge102" class="edge">
<title>Node9&#45;&gt;Node34</title>
<path fill="none" stroke="#191970" d="M335.1849,-749.0563C343.7337,-744.8688 351.6975,-739.4674 358,-732.5002 403.4137,-682.2975 347.4404,-633.6421 394,-584.5002 396.7736,-581.5728 399.876,-578.9843 403.2079,-576.6958"/>
<polygon fill="#191970" stroke="#191970" points="405.0449,-579.6761 411.9065,-571.6033 401.5083,-573.6352 405.0449,-579.6761"/>
</g>
<!-- Node35 -->
<g id="node35" class="node">
<title>Node35</title>
<g id="a_node35"><a xlink:href="../../d0/d94/classPHG4GDMLWriteSolids.html#a971e013b661799d807ea7a464c04bd15" target="_top" xlink:title="PHG4GDMLWriteSolids\l::TwistedtrapWrite">
<polygon fill="none" stroke="#000000" points="412,-492.5002 412,-524.5002 542,-524.5002 542,-492.5002 412,-492.5002"/>
<text text-anchor="start" x="420" y="-511.5002" font-family="FreeSans" font-size="10.00" fill="#000000">PHG4GDMLWriteSolids</text>
<text text-anchor="middle" x="477" y="-499.5002" font-family="FreeSans" font-size="10.00" fill="#000000">::TwistedtrapWrite</text>
</a>
</g>
</g>
<!-- Node9&#45;&gt;Node35 -->
<g id="edge106" class="edge">
<title>Node9&#45;&gt;Node35</title>
<path fill="none" stroke="#191970" d="M335.1227,-749.6058C343.7882,-745.3439 351.803,-739.7755 358,-732.5002 416.2818,-664.0776 334.1554,-600.5603 394,-533.5002 396.7399,-530.43 399.8414,-527.7304 403.196,-525.3573"/>
<polygon fill="#191970" stroke="#191970" points="405.2013,-528.2365 411.9942,-520.1059 401.6136,-522.2258 405.2013,-528.2365"/>
</g>
<!-- Node10&#45;&gt;Node3 -->
<g id="edge15" class="edge">
<title>Node10&#45;&gt;Node3</title>
<path fill="none" stroke="#191970" d="M542.3774,-111.2548C549.1693,-114.7974 555.2942,-119.437 560,-125.5002 618.7069,-201.1415 536.7009,-911.3223 596,-986.5002 599.3032,-990.6879 603.2292,-994.2327 607.5684,-997.2303"/>
<polygon fill="#191970" stroke="#191970" points="605.9627,-1000.3453 616.367,-1002.3454 609.4809,-994.2936 605.9627,-1000.3453"/>
</g>
<!-- Node10&#45;&gt;Node4 -->
<g id="edge16" class="edge">
<title>Node10&#45;&gt;Node4</title>
<path fill="none" stroke="#191970" d="M542.3349,-111.2879C549.1339,-114.8249 555.2722,-119.4542 560,-125.5002 610.2302,-189.7351 566.2314,-782.5856 596,-858.5002 610.9564,-896.6413 644.9257,-931.1029 667.003,-950.6498"/>
<polygon fill="#191970" stroke="#191970" points="664.9586,-953.5084 674.8177,-957.3877 669.5296,-948.2069 664.9586,-953.5084"/>
</g>
<!-- Node10&#45;&gt;Node8 -->
<g id="edge14" class="edge">
<title>Node10&#45;&gt;Node8</title>
<path fill="none" stroke="#191970" d="M542.0181,-112.0949C548.7809,-115.5022 554.9963,-119.8804 560,-125.5002 655.2362,-232.4621 681.8926,-713.076 686.6509,-818.8621"/>
<polygon fill="#191970" stroke="#191970" points="683.1665,-819.3003 687.0962,-829.1394 690.16,-818.9972 683.1665,-819.3003"/>
</g>
<!-- Node10&#45;&gt;Node9 -->
<g id="edge12" class="edge">
<title>Node10&#45;&gt;Node9</title>
<path fill="none" stroke="#191970" d="M419.567,-116.6411C409.6965,-120.6204 400.5313,-126.2348 394,-134.5002 310.2226,-240.5208 439.3096,-633.5755 358,-741.5002 354.0982,-746.6792 349.2649,-750.9965 343.8868,-754.5605"/>
<polygon fill="#191970" stroke="#191970" points="342.0278,-751.5908 335.0426,-759.5568 345.4709,-757.6855 342.0278,-751.5908"/>
</g>
<!-- Node10&#45;&gt;Node11 -->
<g id="edge13" class="edge">
<title>Node10&#45;&gt;Node11</title>
<path fill="none" stroke="#191970" d="M542.1619,-87.8083C581.091,-80.2259 628.6226,-70.968 658.4864,-65.1513"/>
<polygon fill="#191970" stroke="#191970" points="659.4944,-68.5208 668.6408,-63.1735 658.1561,-61.65 659.4944,-68.5208"/>
</g>
<!-- Node12&#45;&gt;Node3 -->
<g id="edge19" class="edge">
<title>Node12&#45;&gt;Node3</title>
<path fill="none" stroke="#191970" d="M542.2062,-468.3897C549.0268,-471.9097 555.2052,-476.5071 560,-482.5002 630.1467,-570.1782 525.1669,-899.3758 596,-986.5002 599.4281,-990.7167 603.4867,-994.2789 607.9571,-997.2852"/>
<polygon fill="#191970" stroke="#191970" points="606.5775,-1000.5261 617.004,-1002.4073 610.0263,-994.4346 606.5775,-1000.5261"/>
</g>
<!-- Node12&#45;&gt;Node4 -->
<g id="edge20" class="edge">
<title>Node12&#45;&gt;Node4</title>
<path fill="none" stroke="#191970" d="M542.0677,-468.5019C548.9114,-472.0031 555.1332,-476.5654 560,-482.5002 613.2249,-547.4051 563.5533,-781.0874 596,-858.5002 611.8367,-896.2842 645.546,-930.8513 667.3308,-950.5169"/>
<polygon fill="#191970" stroke="#191970" points="665.2159,-953.3181 675.0341,-957.2999 669.8419,-948.0645 665.2159,-953.3181"/>
</g>
<!-- Node12&#45;&gt;Node8 -->
<g id="edge18" class="edge">
<title>Node12&#45;&gt;Node8</title>
<path fill="none" stroke="#191970" d="M542.3845,-470.5364C548.8325,-473.6997 554.874,-477.6265 560,-482.5002 660.5949,-578.1428 681.9776,-758.5038 686.3893,-819.0752"/>
<polygon fill="#191970" stroke="#191970" points="682.9085,-819.4862 687.0475,-829.2391 689.8938,-819.0338 682.9085,-819.4862"/>
</g>
<!-- Node13&#45;&gt;Node3 -->
<g id="edge23" class="edge">
<title>Node13&#45;&gt;Node3</title>
<path fill="none" stroke="#191970" d="M542.2439,-417.3596C549.0582,-420.8847 555.2248,-425.4915 560,-431.5002 636.8949,-528.2591 518.3477,-890.3481 596,-986.5002 599.4143,-990.7279 603.4626,-994.2983 607.9257,-997.3106"/>
<polygon fill="#191970" stroke="#191970" points="606.5376,-1000.5473 616.9617,-1002.4415 609.994,-994.4602 606.5376,-1000.5473"/>
</g>
<!-- Node13&#45;&gt;Node4 -->
<g id="edge24" class="edge">
<title>Node13&#45;&gt;Node4</title>
<path fill="none" stroke="#191970" d="M542.1326,-417.449C548.9655,-420.9591 555.167,-425.5379 560,-431.5002 619.9639,-505.4747 559.6886,-770.4696 596,-858.5002 611.6222,-896.3735 645.3948,-930.9142 667.2509,-950.5501"/>
<polygon fill="#191970" stroke="#191970" points="665.153,-953.3653 674.9813,-957.3218 669.7655,-948.0998 665.153,-953.3653"/>
</g>
<!-- Node13&#45;&gt;Node8 -->
<g id="edge22" class="edge">
<title>Node13&#45;&gt;Node8</title>
<path fill="none" stroke="#191970" d="M542.1723,-419.1295C548.739,-422.364 554.8658,-426.4188 560,-431.5002 617.5702,-488.4791 669.6662,-744.9481 683.7636,-819.2623"/>
<polygon fill="#191970" stroke="#191970" points="680.3468,-820.0316 685.6299,-829.2153 687.2269,-818.7415 680.3468,-820.0316"/>
</g>
<!-- Node14&#45;&gt;Node3 -->
<g id="edge27" class="edge">
<title>Node14&#45;&gt;Node3</title>
<path fill="none" stroke="#191970" d="M542.2754,-366.3347C549.0844,-369.8639 555.2412,-374.4785 560,-380.5002 643.645,-486.3426 511.5264,-881.3179 596,-986.5002 599.4028,-990.7372 603.4426,-994.3145 607.8994,-997.3317"/>
<polygon fill="#191970" stroke="#191970" points="606.5043,-1000.5649 616.9264,-1002.4699 609.9671,-994.4813 606.5043,-1000.5649"/>
</g>
<!-- Node14&#45;&gt;Node4 -->
<g id="edge28" class="edge">
<title>Node14&#45;&gt;Node4</title>
<path fill="none" stroke="#191970" d="M542.184,-366.4076C549.0082,-369.9246 555.1937,-374.5164 560,-380.5002 626.7075,-463.55 555.8211,-759.8452 596,-858.5002 611.4528,-896.4429 645.2755,-930.9631 667.1878,-950.5759"/>
<polygon fill="#191970" stroke="#191970" points="665.1034,-953.4022 674.9397,-957.3389 669.7052,-948.1274 665.1034,-953.4022"/>
</g>
<!-- Node14&#45;&gt;Node8 -->
<g id="edge26" class="edge">
<title>Node14&#45;&gt;Node8</title>
<path fill="none" stroke="#191970" d="M542.3343,-367.9684C548.8719,-371.2318 554.9476,-375.3374 560,-380.5002 623.6799,-445.5717 672.1336,-738.2272 684.4489,-818.869"/>
<polygon fill="#191970" stroke="#191970" points="681.0509,-819.8091 686.0012,-829.1763 687.9729,-818.7666 681.0509,-819.8091"/>
</g>
<!-- Node15&#45;&gt;Node3 -->
<g id="edge31" class="edge">
<title>Node15&#45;&gt;Node3</title>
<path fill="none" stroke="#191970" d="M542.3081,-878.6174C548.7701,-881.7659 554.8357,-885.667 560,-890.5002 593.2703,-921.6375 562.4862,-955.6251 596,-986.5002 601.1411,-991.2365 607.0835,-995.1173 613.4218,-998.2962"/>
<polygon fill="#191970" stroke="#191970" points="612.3802,-1001.661 622.9441,-1002.469 615.1898,-995.2496 612.3802,-1001.661"/>
</g>
<!-- Node15&#45;&gt;Node4 -->
<g id="edge32" class="edge">
<title>Node15&#45;&gt;Node4</title>
<path fill="none" stroke="#191970" d="M537.0494,-881.6225C544.8816,-884.2946 552.7104,-887.263 560,-890.5002 598.9394,-907.7929 640.5706,-934.7225 665.2982,-951.7207"/>
<polygon fill="#191970" stroke="#191970" points="663.3988,-954.6628 673.6073,-957.4976 667.3947,-948.9154 663.3988,-954.6628"/>
</g>
<!-- Node15&#45;&gt;Node8 -->
<g id="edge30" class="edge">
<title>Node15&#45;&gt;Node8</title>
<path fill="none" stroke="#191970" d="M542.1619,-857.4517C559.2776,-855.3377 578.0562,-853.0182 596.2649,-850.7692"/>
<polygon fill="#191970" stroke="#191970" points="596.8126,-854.2282 606.3081,-849.5287 595.9545,-847.281 596.8126,-854.2282"/>
</g>
<!-- Node16&#45;&gt;Node3 -->
<g id="edge35" class="edge">
<title>Node16&#45;&gt;Node3</title>
<path fill="none" stroke="#191970" d="M542.0853,-826.6111C548.7505,-829.9339 554.9241,-834.1511 560,-839.5002 606.3007,-888.2925 549.3175,-938.073 596,-986.5002 600.4376,-991.1037 605.626,-994.9094 611.2365,-998.0534"/>
<polygon fill="#191970" stroke="#191970" points="609.8276,-1001.2599 620.3532,-1002.4688 612.8788,-994.9599 609.8276,-1001.2599"/>
</g>
<!-- Node16&#45;&gt;Node4 -->
<g id="edge36" class="edge">
<title>Node16&#45;&gt;Node4</title>
<path fill="none" stroke="#191970" d="M541.8021,-830.5348C548.1413,-833.1235 554.3204,-836.096 560,-839.5002 609.0375,-868.892 652.8814,-921.3194 674.0678,-949.0792"/>
<polygon fill="#191970" stroke="#191970" points="671.33,-951.2622 680.1283,-957.1649 676.9313,-947.0639 671.33,-951.2622"/>
</g>
<!-- Node16&#45;&gt;Node8 -->
<g id="edge34" class="edge">
<title>Node16&#45;&gt;Node8</title>
<path fill="none" stroke="#191970" d="M542.1619,-822.2392C558.3116,-824.1572 575.9418,-826.251 593.1769,-828.2979"/>
<polygon fill="#191970" stroke="#191970" points="592.9218,-831.7922 603.2649,-829.496 593.7474,-824.841 592.9218,-831.7922"/>
</g>
<!-- Node17&#45;&gt;Node3 -->
<g id="edge39" class="edge">
<title>Node17&#45;&gt;Node3</title>
<path fill="none" stroke="#191970" d="M542.001,-775.1102C548.7667,-778.5148 554.9874,-782.8883 560,-788.5002 619.5829,-855.2076 535.8951,-920.2628 596,-986.5002 600.0523,-990.966 604.8102,-994.6868 609.9901,-997.7842"/>
<polygon fill="#191970" stroke="#191970" points="608.5598,-1000.984 619.0555,-1002.43 611.7523,-994.7544 608.5598,-1000.984"/>
</g>
<!-- Node17&#45;&gt;Node4 -->
<g id="edge40" class="edge">
<title>Node17&#45;&gt;Node4</title>
<path fill="none" stroke="#191970" d="M542.1825,-777.4282C548.591,-780.4271 554.6794,-784.0715 560,-788.5002 586.8883,-810.8814 576.6329,-829.3658 596,-858.5002 618.9424,-893.013 651.1017,-929.0935 670.5507,-949.8708"/>
<polygon fill="#191970" stroke="#191970" points="668.1588,-952.4354 677.5727,-957.2965 673.2449,-947.6259 668.1588,-952.4354"/>
</g>
<!-- Node17&#45;&gt;Node8 -->
<g id="edge38" class="edge">
<title>Node17&#45;&gt;Node8</title>
<path fill="none" stroke="#191970" d="M532.5798,-779.5031C541.7834,-782.3641 551.1929,-785.4191 560,-788.5002 592.7246,-799.9487 629.4129,-814.8474 655.002,-825.5823"/>
<polygon fill="#191970" stroke="#191970" points="653.6603,-828.8149 664.2344,-829.4768 656.3809,-822.3652 653.6603,-828.8149"/>
</g>
<!-- Node18&#45;&gt;Node3 -->
<g id="edge43" class="edge">
<title>Node18&#45;&gt;Node3</title>
<path fill="none" stroke="#191970" d="M544.3406,-163.34C550.3448,-166.73 555.7484,-171.037 560,-176.5002 615.3292,-247.5965 540.1142,-915.8407 596,-986.5002 599.3087,-990.6835 603.2388,-994.2251 607.581,-997.2204"/>
<polygon fill="#191970" stroke="#191970" points="605.9787,-1000.3372 616.3841,-1002.332 609.4938,-994.2837 605.9787,-1000.3372"/>
</g>
<!-- Node18&#45;&gt;Node4 -->
<g id="edge44" class="edge">
<title>Node18&#45;&gt;Node4</title>
<path fill="none" stroke="#191970" d="M544.2947,-163.3758C550.3076,-166.7591 555.7257,-171.0548 560,-176.5002 606.8535,-236.1913 568.1681,-787.9052 596,-858.5002 611.0262,-896.6139 644.9749,-931.0836 667.029,-950.6396"/>
<polygon fill="#191970" stroke="#191970" points="664.9789,-953.4936 674.8348,-957.3809 669.5542,-948.1958 664.9789,-953.4936"/>
</g>
<!-- Node18&#45;&gt;Node8 -->
<g id="edge42" class="edge">
<title>Node18&#45;&gt;Node8</title>
<path fill="none" stroke="#191970" d="M544.3606,-164.4243C550.2009,-167.6194 555.564,-171.5841 560,-176.5002 649.0313,-275.1663 680.3758,-719.2375 686.3744,-819.3903"/>
<polygon fill="#191970" stroke="#191970" points="682.8817,-819.6182 686.9569,-829.3979 689.8699,-819.2114 682.8817,-819.6182"/>
</g>
<!-- Node19&#45;&gt;Node3 -->
<g id="edge47" class="edge">
<title>Node19&#45;&gt;Node3</title>
<path fill="none" stroke="#191970" d="M542.1619,-1016.6429C557.6608,-1016.2011 574.5231,-1015.7205 591.0912,-1015.2482"/>
<polygon fill="#191970" stroke="#191970" points="591.4582,-1018.7393 601.3543,-1014.9557 591.2586,-1011.7421 591.4582,-1018.7393"/>
</g>
<!-- Node19&#45;&gt;Node4 -->
<g id="edge48" class="edge">
<title>Node19&#45;&gt;Node4</title>
<path fill="none" stroke="#191970" d="M542.1619,-1002.7128C572.3804,-995.3914 607.7822,-986.8143 636.0802,-979.9582"/>
<polygon fill="#191970" stroke="#191970" points="637.267,-983.272 646.1617,-977.5157 635.6187,-976.4688 637.267,-983.272"/>
</g>
<!-- Node19&#45;&gt;Node8 -->
<g id="edge46" class="edge">
<title>Node19&#45;&gt;Node8</title>
<path fill="none" stroke="#191970" d="M541.7767,-1002.4452C548.1894,-999.6266 554.3911,-996.336 560,-992.5002 581.1416,-978.0423 579.7202,-967.2731 596,-947.5002 622.476,-915.3433 654.0046,-878.4232 672.2882,-857.1446"/>
<polygon fill="#191970" stroke="#191970" points="674.9575,-859.4086 678.8263,-849.5454 669.6511,-854.8432 674.9575,-859.4086"/>
</g>
<!-- Node20&#45;&gt;Node3 -->
<g id="edge51" class="edge">
<title>Node20&#45;&gt;Node3</title>
<path fill="none" stroke="#191970" d="M542.1619,-981.4303C570.5522,-987.4995 603.5177,-994.5468 630.869,-1000.3938"/>
<polygon fill="#191970" stroke="#191970" points="630.1622,-1003.8217 640.673,-1002.4897 631.6256,-996.9764 630.1622,-1003.8217"/>
</g>
<!-- Node20&#45;&gt;Node4 -->
<g id="edge52" class="edge">
<title>Node20&#45;&gt;Node4</title>
<path fill="none" stroke="#191970" d="M542.1619,-967.5002C557.7607,-967.5002 574.7407,-967.5002 591.4118,-967.5002"/>
<polygon fill="#191970" stroke="#191970" points="591.737,-971.0003 601.7369,-967.5002 591.7369,-964.0003 591.737,-971.0003"/>
</g>
<!-- Node20&#45;&gt;Node8 -->
<g id="edge50" class="edge">
<title>Node20&#45;&gt;Node8</title>
<path fill="none" stroke="#191970" d="M537.4738,-951.4758C545.2385,-948.5785 552.9354,-945.2607 560,-941.5002 603.6483,-918.266 647.0101,-879.3379 670.2108,-856.8901"/>
<polygon fill="#191970" stroke="#191970" points="672.8604,-859.1937 677.5437,-849.6901 667.9561,-854.1988 672.8604,-859.1937"/>
</g>
<!-- Node22&#45;&gt;Node3 -->
<g id="edge56" class="edge">
<title>Node22&#45;&gt;Node3</title>
<path fill="none" stroke="#191970" d="M542.0359,-1310.2447C548.5479,-1307.0828 554.6996,-1303.2198 560,-1298.5002 643.5935,-1224.0658 675.1968,-1084.3636 684.3659,-1032.5269"/>
<polygon fill="#191970" stroke="#191970" points="687.829,-1033.0375 686.0335,-1022.5959 680.9257,-1031.8782 687.829,-1033.0375"/>
</g>
<!-- Node22&#45;&gt;Node4 -->
<g id="edge57" class="edge">
<title>Node22&#45;&gt;Node4</title>
<path fill="none" stroke="#191970" d="M542.3779,-1312.3795C549.079,-1308.8466 555.1815,-1304.3128 560,-1298.5002 647.3948,-1193.0765 506.6774,-1096.2956 596,-992.5002 599.2527,-988.7205 603.0161,-985.4851 607.124,-982.7183"/>
<polygon fill="#191970" stroke="#191970" points="609.0277,-985.662 615.9862,-977.6726 605.5643,-979.5788 609.0277,-985.662"/>
</g>
<!-- Node22&#45;&gt;Node8 -->
<g id="edge55" class="edge">
<title>Node22&#45;&gt;Node8</title>
<path fill="none" stroke="#191970" d="M542.0604,-1312.6604C548.9054,-1309.0858 555.1294,-1304.4655 560,-1298.5002 609.5901,-1237.7646 565.2825,-1019.642 596,-947.5002 611.9637,-910.0087 645.6354,-875.7747 667.378,-856.3076"/>
<polygon fill="#191970" stroke="#191970" points="669.8358,-858.808 675.0652,-849.5936 665.2311,-853.5357 669.8358,-858.808"/>
</g>
<!-- Node23&#45;&gt;Node3 -->
<g id="edge60" class="edge">
<title>Node23&#45;&gt;Node3</title>
<path fill="none" stroke="#191970" d="M540.1406,-1155.4642C547.072,-1152.6211 553.84,-1149.3198 560,-1145.5002 609.7958,-1114.6238 653.6087,-1059.8396 674.506,-1031.1693"/>
<polygon fill="#191970" stroke="#191970" points="677.4918,-1033.0111 680.4641,-1022.8418 671.7988,-1028.9379 677.4918,-1033.0111"/>
</g>
<!-- Node23&#45;&gt;Node4 -->
<g id="edge61" class="edge">
<title>Node23&#45;&gt;Node4</title>
<path fill="none" stroke="#191970" d="M542.1579,-1158.6206C548.8103,-1155.2148 554.9611,-1150.9183 560,-1145.5002 607.5742,-1094.3466 547.4913,-1042.7685 596,-992.5002 599.8594,-988.5008 604.2915,-985.1215 609.0782,-982.2682"/>
<polygon fill="#191970" stroke="#191970" points="610.7274,-985.3559 618.0302,-977.68 607.5346,-979.1264 610.7274,-985.3559"/>
</g>
<!-- Node23&#45;&gt;Node8 -->
<g id="edge59" class="edge">
<title>Node23&#45;&gt;Node8</title>
<path fill="none" stroke="#191970" d="M542.0283,-1159.0803C548.7894,-1155.5987 555.0015,-1151.1588 560,-1145.5002 619.2148,-1078.4658 557.7923,-1028.3715 596,-947.5002 613.4068,-910.6566 646.6522,-876.2312 667.9153,-856.5488"/>
<polygon fill="#191970" stroke="#191970" points="670.3569,-859.0596 675.42,-849.7529 665.6582,-853.871 670.3569,-859.0596"/>
</g>
<!-- Node24&#45;&gt;Node3 -->
<g id="edge64" class="edge">
<title>Node24&#45;&gt;Node3</title>
<path fill="none" stroke="#191970" d="M535.3551,-1104.4044C543.7645,-1101.4592 552.2038,-1098.1472 560,-1094.5002 599.7026,-1075.9275 641.7102,-1046.8144 666.2196,-1028.7364"/>
<polygon fill="#191970" stroke="#191970" points="668.5004,-1031.4015 674.421,-1022.6153 664.3135,-1025.7917 668.5004,-1031.4015"/>
</g>
<!-- Node24&#45;&gt;Node4 -->
<g id="edge65" class="edge">
<title>Node24&#45;&gt;Node4</title>
<path fill="none" stroke="#191970" d="M542.0104,-1106.867C548.6062,-1103.5926 554.7841,-1099.533 560,-1094.5002 594.5952,-1061.1193 560.7956,-1025.238 596,-992.5002 600.4808,-988.3334 605.5884,-984.8495 611.0465,-981.9381"/>
<polygon fill="#191970" stroke="#191970" points="612.9072,-984.9338 620.5142,-977.5592 609.9687,-978.5804 612.9072,-984.9338"/>
</g>
<!-- Node24&#45;&gt;Node8 -->
<g id="edge63" class="edge">
<title>Node24&#45;&gt;Node8</title>
<path fill="none" stroke="#191970" d="M542.1097,-1107.5756C548.7706,-1104.1777 554.9365,-1099.8953 560,-1094.5002 606.0314,-1045.4538 565.4456,-1007.4241 596,-947.5002 614.6089,-911.0041 647.7819,-876.2429 668.6602,-856.4331"/>
<polygon fill="#191970" stroke="#191970" points="671.0669,-858.9745 676.0041,-849.6003 666.2987,-853.8496 671.0669,-858.9745"/>
</g>
<!-- Node25&#45;&gt;Node3 -->
<g id="edge68" class="edge">
<title>Node25&#45;&gt;Node3</title>
<path fill="none" stroke="#191970" d="M536.1962,-1053.4708C569.1904,-1044.5365 609.7062,-1033.5655 640.5056,-1025.2255"/>
<polygon fill="#191970" stroke="#191970" points="641.8157,-1028.4969 650.5532,-1022.5048 639.986,-1021.7402 641.8157,-1028.4969"/>
</g>
<!-- Node25&#45;&gt;Node4 -->
<g id="edge69" class="edge">
<title>Node25&#45;&gt;Node4</title>
<path fill="none" stroke="#191970" d="M542.0166,-1053.785C548.3835,-1050.9014 554.5088,-1047.5027 560,-1043.5002 582.421,-1027.1578 573.2816,-1008.4267 596,-992.5002 602.6147,-987.8631 610.054,-984.0851 617.7592,-981.0073"/>
<polygon fill="#191970" stroke="#191970" points="619.0288,-984.2702 627.252,-977.5897 616.6576,-977.6841 619.0288,-984.2702"/>
</g>
<!-- Node25&#45;&gt;Node8 -->
<g id="edge67" class="edge">
<title>Node25&#45;&gt;Node8</title>
<path fill="none" stroke="#191970" d="M542.3266,-1055.5614C548.7852,-1052.3414 554.845,-1048.3782 560,-1043.5002 593.0984,-1012.1802 572.9314,-986.7976 596,-947.5002 616.7576,-912.1396 649.3259,-876.9945 669.4916,-856.8051"/>
<polygon fill="#191970" stroke="#191970" points="672.146,-859.1032 676.81,-849.5901 667.2315,-854.1184 672.146,-859.1032"/>
</g>
<!-- Node26&#45;&gt;Node3 -->
<g id="edge72" class="edge">
<title>Node26&#45;&gt;Node3</title>
<path fill="none" stroke="#191970" d="M542.302,-315.3137C549.1065,-318.8464 555.255,-323.4676 560,-329.5002 650.3968,-444.4281 504.7035,-872.2858 596,-986.5002 599.393,-990.745 603.4256,-994.3281 607.8772,-997.3495"/>
<polygon fill="#191970" stroke="#191970" points="606.4761,-1000.5796 616.8966,-1002.4939 609.9442,-994.4991 606.4761,-1000.5796"/>
</g>
<!-- Node26&#45;&gt;Node4 -->
<g id="edge73" class="edge">
<title>Node26&#45;&gt;Node4</title>
<path fill="none" stroke="#191970" d="M542.2256,-315.3742C549.0429,-318.8968 555.2153,-323.4991 560,-329.5002 633.4544,-421.6293 551.9517,-749.2159 596,-858.5002 611.3156,-896.4985 645.1788,-931.0023 667.1368,-950.5966"/>
<polygon fill="#191970" stroke="#191970" points="665.0633,-953.4318 674.906,-957.3526 669.6566,-948.1496 665.0633,-953.4318"/>
</g>
<!-- Node26&#45;&gt;Node8 -->
<g id="edge71" class="edge">
<title>Node26&#45;&gt;Node8</title>
<path fill="none" stroke="#191970" d="M542.0602,-316.635C548.7297,-319.9536 554.9112,-324.1634 560,-329.5002 630.0703,-402.9866 674.656,-734.0179 685.1223,-819.3722"/>
<polygon fill="#191970" stroke="#191970" points="681.652,-819.829 686.325,-829.3376 688.6015,-818.9902 681.652,-819.829"/>
</g>
<!-- Node27&#45;&gt;Node3 -->
<g id="edge76" class="edge">
<title>Node27&#45;&gt;Node3</title>
<path fill="none" stroke="#191970" d="M542.3249,-264.2958C549.1256,-267.8315 555.2669,-272.4583 560,-278.5002 657.1498,-402.5151 497.8793,-863.252 596,-986.5002 599.322,-990.6729 603.2621,-994.2066 607.6116,-997.1961"/>
<polygon fill="#191970" stroke="#191970" points="606.0175,-1000.3175 616.4254,-1002.2992 609.525,-994.2596 606.0175,-1000.3175"/>
</g>
<!-- Node27&#45;&gt;Node4 -->
<g id="edge77" class="edge">
<title>Node27&#45;&gt;Node4</title>
<path fill="none" stroke="#191970" d="M542.26,-264.3469C549.0716,-267.874 555.2332,-272.4848 560,-278.5002 640.2036,-379.7115 548.0809,-738.5831 596,-858.5002 611.2023,-896.5439 645.099,-931.0343 667.0946,-950.6136"/>
<polygon fill="#191970" stroke="#191970" points="665.0302,-953.4561 674.8781,-957.3637 669.6165,-948.1678 665.0302,-953.4561"/>
</g>
<!-- Node27&#45;&gt;Node8 -->
<g id="edge75" class="edge">
<title>Node27&#45;&gt;Node8</title>
<path fill="none" stroke="#191970" d="M542.1733,-265.5283C548.823,-268.8656 554.9689,-273.109 560,-278.5002 636.2953,-360.2572 676.6698,-728.2086 685.5899,-819.1345"/>
<polygon fill="#191970" stroke="#191970" points="682.1201,-819.6182 686.5621,-829.2369 689.0879,-818.9476 682.1201,-819.6182"/>
</g>
<!-- Node28&#45;&gt;Node3 -->
<g id="edge80" class="edge">
<title>Node28&#45;&gt;Node3</title>
<path fill="none" stroke="#191970" d="M542.3447,-213.2803C549.1421,-216.8186 555.2772,-221.4502 560,-227.5002 663.9037,-360.6034 491.0542,-854.2171 596,-986.5002 599.3149,-990.6786 603.2497,-994.2165 607.5953,-997.209"/>
<polygon fill="#191970" stroke="#191970" points="605.9968,-1000.328 616.4033,-1002.3167 609.5083,-994.2725 605.9968,-1000.328"/>
</g>
<!-- Node28&#45;&gt;Node4 -->
<g id="edge81" class="edge">
<title>Node28&#45;&gt;Node4</title>
<path fill="none" stroke="#191970" d="M542.289,-213.324C549.0957,-216.855 555.2483,-221.4729 560,-227.5002 603.4773,-282.6481 570.1045,-793.2239 596,-858.5002 611.1072,-896.5818 645.032,-931.061 667.0592,-950.6277"/>
<polygon fill="#191970" stroke="#191970" points="665.0025,-953.4764 674.8547,-957.373 669.5828,-948.1829 665.0025,-953.4764"/>
</g>
<!-- Node28&#45;&gt;Node8 -->
<g id="edge79" class="edge">
<title>Node28&#45;&gt;Node8</title>
<path fill="none" stroke="#191970" d="M542.2693,-214.4395C548.9021,-217.7924 555.0179,-222.0637 560,-227.5002 642.6171,-317.6519 678.5779,-723.2791 686.0067,-819.1468"/>
<polygon fill="#191970" stroke="#191970" points="682.5273,-819.5532 686.7724,-829.2604 689.5074,-819.0247 682.5273,-819.5532"/>
</g>
<!-- Node29&#45;&gt;Node3 -->
<g id="edge84" class="edge">
<title>Node29&#45;&gt;Node3</title>
<path fill="none" stroke="#191970" d="M542.0966,-1258.6279C548.5211,-1255.5816 554.6368,-1251.9143 560,-1247.5002 631.8469,-1188.3677 669.3554,-1077.7386 682.247,-1032.5275"/>
<polygon fill="#191970" stroke="#191970" points="685.6605,-1033.3141 684.9392,-1022.7439 678.9114,-1031.4569 685.6605,-1033.3141"/>
</g>
<!-- Node29&#45;&gt;Node4 -->
<g id="edge85" class="edge">
<title>Node29&#45;&gt;Node4</title>
<path fill="none" stroke="#191970" d="M542.2479,-1261.2704C548.9713,-1257.7562 555.1146,-1253.2566 560,-1247.5002 634.062,-1160.2347 520.3425,-1078.3861 596,-992.5002 599.4493,-988.5846 603.4466,-985.2553 607.8034,-982.4272"/>
<polygon fill="#191970" stroke="#191970" points="609.5128,-985.4814 616.5753,-977.5838 606.1293,-979.3535 609.5128,-985.4814"/>
</g>
<!-- Node29&#45;&gt;Node8 -->
<g id="edge83" class="edge">
<title>Node29&#45;&gt;Node8</title>
<path fill="none" stroke="#191970" d="M542.3648,-1261.3686C549.0681,-1257.8376 555.1747,-1253.3072 560,-1247.5002 645.8246,-1144.2146 542.3287,-1070.5984 596,-947.5002 612.2859,-910.1475 645.8624,-875.8725 667.498,-856.3593"/>
<polygon fill="#191970" stroke="#191970" points="669.9513,-858.8626 675.1445,-849.6278 665.3259,-853.6085 669.9513,-858.8626"/>
</g>
<!-- Node30&#45;&gt;Node3 -->
<g id="edge88" class="edge">
<title>Node30&#45;&gt;Node3</title>
<path fill="none" stroke="#191970" d="M542.0522,-1206.8336C548.4122,-1203.9407 554.5262,-1200.5265 560,-1196.5002 620.6669,-1151.8757 662.5448,-1069.3796 679.3175,-1031.9156"/>
<polygon fill="#191970" stroke="#191970" points="682.5857,-1033.177 683.3773,-1022.6118 676.1699,-1030.3774 682.5857,-1033.177"/>
</g>
<!-- Node30&#45;&gt;Node4 -->
<g id="edge89" class="edge">
<title>Node30&#45;&gt;Node4</title>
<path fill="none" stroke="#191970" d="M542.0568,-1210.1055C548.813,-1206.6196 555.0162,-1202.1717 560,-1196.5002 620.7736,-1127.3409 533.9623,-1060.5279 596,-992.5002 599.5838,-988.5704 603.7196,-985.2342 608.2113,-982.4045"/>
<polygon fill="#191970" stroke="#191970" points="610.0777,-985.3751 617.2358,-977.564 606.769,-979.2064 610.0777,-985.3751"/>
</g>
<!-- Node30&#45;&gt;Node8 -->
<g id="edge87" class="edge">
<title>Node30&#45;&gt;Node8</title>
<path fill="none" stroke="#191970" d="M542.2293,-1210.2546C548.9559,-1206.7431 555.105,-1202.2485 560,-1196.5002 632.4958,-1111.3682 550.0756,-1049.4515 596,-947.5002 612.7358,-910.347 646.1794,-876.013 667.6655,-856.4335"/>
<polygon fill="#191970" stroke="#191970" points="670.1134,-858.9404 675.255,-849.6768 665.4587,-853.7121 670.1134,-858.9404"/>
</g>
<!-- Node31&#45;&gt;Node3 -->
<g id="edge92" class="edge">
<title>Node31&#45;&gt;Node3</title>
<path fill="none" stroke="#191970" d="M542.2003,-723.9354C548.9318,-727.37 555.09,-731.7983 560,-737.5002 632.9633,-822.2319 522.3735,-902.3441 596,-986.5002 599.8059,-990.8504 604.2814,-994.497 609.1723,-997.5512"/>
<polygon fill="#191970" stroke="#191970" points="607.8959,-1000.8361 618.3697,-1002.4329 611.1777,-994.6531 607.8959,-1000.8361"/>
</g>
<!-- Node31&#45;&gt;Node4 -->
<g id="edge93" class="edge">
<title>Node31&#45;&gt;Node4</title>
<path fill="none" stroke="#191970" d="M542.2415,-725.06C548.7958,-728.307 554.9008,-732.3837 560,-737.5002 599.6069,-777.2412 569.4085,-809.0943 596,-858.5002 615.6243,-894.9614 648.7682,-930.3975 669.3203,-950.5248"/>
<polygon fill="#191970" stroke="#191970" points="666.8937,-953.0471 676.5261,-957.4594 671.7477,-948.0033 666.8937,-953.0471"/>
</g>
<!-- Node31&#45;&gt;Node8 -->
<g id="edge91" class="edge">
<title>Node31&#45;&gt;Node8</title>
<path fill="none" stroke="#191970" d="M539.6751,-728.5405C546.69,-731.1628 553.6049,-734.1411 560,-737.5002 603.7756,-760.4938 647.0912,-799.5092 670.2495,-822.037"/>
<polygon fill="#191970" stroke="#191970" points="667.9934,-824.728 677.568,-829.2645 672.9121,-819.7474 667.9934,-824.728"/>
</g>
<!-- Node32&#45;&gt;Node3 -->
<g id="edge96" class="edge">
<title>Node32&#45;&gt;Node3</title>
<path fill="none" stroke="#191970" d="M542.3347,-672.821C549.0432,-676.2753 555.1592,-680.7394 560,-686.5002 646.3919,-789.3118 508.8034,-884.3702 596,-986.5002 599.686,-990.8175 604.0319,-994.4442 608.7941,-997.4878"/>
<polygon fill="#191970" stroke="#191970" points="607.3049,-1000.6619 617.7627,-1002.36 610.6464,-994.5109 607.3049,-1000.6619"/>
</g>
<!-- Node32&#45;&gt;Node4 -->
<g id="edge97" class="edge">
<title>Node32&#45;&gt;Node4</title>
<path fill="none" stroke="#191970" d="M542.2643,-673.4441C548.898,-676.7962 555.0153,-681.066 560,-686.5002 612.7938,-744.0551 561.865,-788.2538 596,-858.5002 614.0017,-895.5458 647.3583,-930.5648 668.4386,-950.4878"/>
<polygon fill="#191970" stroke="#191970" points="666.1431,-953.1323 675.8591,-957.3571 670.8983,-947.9954 666.1431,-953.1323"/>
</g>
<!-- Node32&#45;&gt;Node8 -->
<g id="edge95" class="edge">
<title>Node32&#45;&gt;Node8</title>
<path fill="none" stroke="#191970" d="M542.1241,-677.0236C548.4005,-679.712 554.4769,-682.8476 560,-686.5002 614.1023,-722.2805 657.3783,-787.7798 676.643,-820.2293"/>
<polygon fill="#191970" stroke="#191970" points="673.7868,-822.2804 681.8362,-829.1693 679.8396,-818.7643 673.7868,-822.2804"/>
</g>
<!-- Node33&#45;&gt;Node3 -->
<g id="edge100" class="edge">
<title>Node33&#45;&gt;Node3</title>
<path fill="none" stroke="#191970" d="M542.0292,-621.5336C548.8794,-625.0295 555.1132,-629.5819 560,-635.5002 659.8474,-756.4237 495.2061,-866.3645 596,-986.5002 599.6487,-990.8491 603.9673,-994.4989 608.7102,-997.5588"/>
<polygon fill="#191970" stroke="#191970" points="607.1999,-1000.7221 617.6523,-1002.4534 610.5609,-994.5818 607.1999,-1000.7221"/>
</g>
<!-- Node33&#45;&gt;Node4 -->
<g id="edge101" class="edge">
<title>Node33&#45;&gt;Node4</title>
<path fill="none" stroke="#191970" d="M542.1094,-622.0143C548.8565,-625.4354 555.0432,-629.8389 560,-635.5002 626.1338,-711.0338 554.222,-767.2116 596,-858.5002 613.1399,-895.9523 646.757,-930.8484 668.124,-950.6362"/>
<polygon fill="#191970" stroke="#191970" points="665.8915,-953.3363 675.6534,-957.4541 670.59,-948.1475 665.8915,-953.3363"/>
</g>
<!-- Node33&#45;&gt;Node8 -->
<g id="edge99" class="edge">
<title>Node33&#45;&gt;Node8</title>
<path fill="none" stroke="#191970" d="M542.2404,-625.0756C548.5644,-627.9506 554.6186,-631.389 560,-635.5002 593.7087,-661.2525 654.2015,-774.5837 677.7473,-820.2907"/>
<polygon fill="#191970" stroke="#191970" points="674.7554,-822.1273 682.428,-829.4337 680.9864,-818.9374 674.7554,-822.1273"/>
</g>
<!-- Node34&#45;&gt;Node3 -->
<g id="edge104" class="edge">
<title>Node34&#45;&gt;Node3</title>
<path fill="none" stroke="#191970" d="M542.1028,-570.4732C548.9407,-573.9792 555.1515,-578.5505 560,-584.5002 616.6598,-654.028 538.796,-917.4195 596,-986.5002 599.4659,-990.6857 603.5526,-994.2248 608.0433,-997.2145"/>
<polygon fill="#191970" stroke="#191970" points="606.687,-1000.4669 617.1199,-1002.3121 610.1148,-994.3636 606.687,-1000.4669"/>
</g>
<!-- Node34&#45;&gt;Node4 -->
<g id="edge105" class="edge">
<title>Node34&#45;&gt;Node4</title>
<path fill="none" stroke="#191970" d="M542.2721,-570.8739C548.9914,-574.3191 555.127,-578.7666 560,-584.5002 639.5416,-678.0895 546.536,-746.0763 596,-858.5002 612.499,-895.9998 646.0126,-930.6509 667.5773,-950.411"/>
<polygon fill="#191970" stroke="#191970" points="665.4111,-953.1692 675.1968,-957.23 670.0792,-947.9531 665.4111,-953.1692"/>
</g>
<!-- Node34&#45;&gt;Node8 -->
<g id="edge103" class="edge">
<title>Node34&#45;&gt;Node8</title>
<path fill="none" stroke="#191970" d="M542.2335,-573.3673C548.6324,-576.3776 554.7046,-580.0413 560,-584.5002 636.7627,-649.1375 671.9083,-771.3353 683.2087,-819.3781"/>
<polygon fill="#191970" stroke="#191970" points="679.8624,-820.4497 685.4759,-829.4351 686.691,-818.9102 679.8624,-820.4497"/>
</g>
<!-- Node35&#45;&gt;Node3 -->
<g id="edge108" class="edge">
<title>Node35&#45;&gt;Node3</title>
<path fill="none" stroke="#191970" d="M542.1602,-519.4267C548.9885,-522.9405 555.1813,-527.5263 560,-533.5002 623.4014,-612.1008 531.9833,-908.4 596,-986.5002 599.4449,-990.703 603.516,-994.2549 607.9954,-997.2539"/>
<polygon fill="#191970" stroke="#191970" points="606.6262,-1000.4999 617.0556,-1002.3652 610.0657,-994.4032 606.6262,-1000.4999"/>
</g>
<!-- Node35&#45;&gt;Node4 -->
<g id="edge109" class="edge">
<title>Node35&#45;&gt;Node4</title>
<path fill="none" stroke="#191970" d="M542.3858,-519.7783C549.0855,-523.2399 555.1855,-527.7174 560,-533.5002 606.4926,-589.3437 567.4139,-791.6954 596,-858.5002 612.1171,-896.1655 645.7435,-930.7677 667.4352,-950.4727"/>
<polygon fill="#191970" stroke="#191970" points="665.2984,-953.2557 675.103,-957.2707 669.9421,-948.0178 665.2984,-953.2557"/>
</g>
<!-- Node35&#45;&gt;Node8 -->
<g id="edge107" class="edge">
<title>Node35&#45;&gt;Node8</title>
<path fill="none" stroke="#191970" d="M542.1357,-521.805C548.6293,-524.919 554.7495,-528.7608 560,-533.5002 648.5437,-613.4252 677.2876,-764.5043 685.0234,-819.1375"/>
<polygon fill="#191970" stroke="#191970" points="681.5831,-819.8193 686.3692,-829.2715 688.5222,-818.8977 681.5831,-819.8193"/>
</g>
<!-- Node36&#45;&gt;Node3 -->
<g id="edge112" class="edge">
<title>Node36&#45;&gt;Node3</title>
<path fill="none" stroke="#191970" d="M548.2598,-1665.3738C552.588,-1662.5853 556.5706,-1659.3209 560,-1655.5002 645.9209,-1559.7773 679.5162,-1131.7544 686.201,-1032.9132"/>
<polygon fill="#191970" stroke="#191970" points="689.7047,-1032.9705 686.8701,-1022.7619 682.7199,-1032.5101 689.7047,-1032.9705"/>
</g>
<!-- Node36&#45;&gt;Node4 -->
<g id="edge113" class="edge">
<title>Node36&#45;&gt;Node4</title>
<path fill="none" stroke="#191970" d="M549.6224,-1665.3802C553.5136,-1662.5829 557.0346,-1659.3153 560,-1655.5002 650.5513,-1539.0031 503.3173,-1107.3089 596,-992.5002 598.9901,-988.7963 602.4715,-985.6101 606.2952,-982.872"/>
<polygon fill="#191970" stroke="#191970" points="608.3739,-985.7068 615.1549,-977.5662 604.7774,-979.7013 608.3739,-985.7068"/>
</g>
<!-- Node36&#45;&gt;Node8 -->
<g id="edge111" class="edge">
<title>Node36&#45;&gt;Node8</title>
<path fill="none" stroke="#191970" d="M549.6375,-1665.3919C553.5251,-1662.5918 557.0411,-1659.3204 560,-1655.5002 608.2328,-1593.2263 567.0144,-1020.7415 596,-947.5002 610.9147,-909.8134 644.5902,-875.8594 666.6624,-856.4709"/>
<polygon fill="#191970" stroke="#191970" points="669.1657,-858.9355 674.4903,-849.7758 664.6158,-853.6158 669.1657,-858.9355"/>
</g>
<!-- Node37&#45;&gt;Node3 -->
<g id="edge117" class="edge">
<title>Node37&#45;&gt;Node3</title>
<path fill="none" stroke="#191970" d="M548.1894,-1614.3102C552.5339,-1611.5364 556.5394,-1608.2927 560,-1604.5002 639.5933,-1517.2746 677.6739,-1127.3171 685.8112,-1033.0594"/>
<polygon fill="#191970" stroke="#191970" points="689.3192,-1033.1111 686.674,-1022.8518 682.3441,-1032.5215 689.3192,-1033.1111"/>
</g>
<!-- Node37&#45;&gt;Node4 -->
<g id="edge118" class="edge">
<title>Node37&#45;&gt;Node4</title>
<path fill="none" stroke="#191970" d="M549.6026,-1614.3648C553.4986,-1611.5712 557.026,-1608.3086 560,-1604.5002 643.8495,-1497.1258 510.1861,-1098.3112 596,-992.5002 598.9984,-988.8031 602.4863,-985.6221 606.3149,-982.8879"/>
<polygon fill="#191970" stroke="#191970" points="608.394,-985.7229 615.1829,-977.5889 604.8034,-979.7139 608.394,-985.7229"/>
</g>
<!-- Node37&#45;&gt;Node8 -->
<g id="edge116" class="edge">
<title>Node37&#45;&gt;Node8</title>
<path fill="none" stroke="#191970" d="M549.6202,-1614.3785C553.512,-1611.5816 557.0336,-1608.3146 560,-1604.5002 604.8814,-1546.7883 568.963,-1015.4267 596,-947.5002 611.0694,-909.6404 645.0054,-875.5152 667.0451,-856.1705"/>
<polygon fill="#191970" stroke="#191970" points="669.518,-858.6611 674.8455,-849.5031 664.9698,-853.34 669.518,-858.6611"/>
</g>
<!-- Node45&#45;&gt;Node3 -->
<g id="edge131" class="edge">
<title>Node45&#45;&gt;Node3</title>
<path fill="none" stroke="#191970" d="M547.7213,-1563.4764C552.233,-1560.667 556.4001,-1557.3696 560,-1553.5002 633.359,-1474.6502 675.7241,-1121.9965 685.3718,-1032.9658"/>
<polygon fill="#191970" stroke="#191970" points="688.8732,-1033.1375 686.4517,-1022.8231 681.9126,-1032.3963 688.8732,-1033.1375"/>
</g>
<!-- Node45&#45;&gt;Node4 -->
<g id="edge132" class="edge">
<title>Node45&#45;&gt;Node4</title>
<path fill="none" stroke="#191970" d="M549.5794,-1563.3466C553.4809,-1560.5573 557.0158,-1557.3007 560,-1553.5002 637.1492,-1455.2466 517.0533,-1089.3155 596,-992.5002 599.0083,-988.8111 602.5038,-985.6363 606.3381,-982.9068"/>
<polygon fill="#191970" stroke="#191970" points="608.4177,-985.7419 615.216,-977.6158 604.834,-979.7288 608.4177,-985.7419"/>
</g>
<!-- Node45&#45;&gt;Node8 -->
<g id="edge130" class="edge">
<title>Node45&#45;&gt;Node8</title>
<path fill="none" stroke="#191970" d="M549.6001,-1563.3629C553.4967,-1560.5697 557.0249,-1557.3078 560,-1553.5002 643.0612,-1447.199 545.8226,-1072.7254 596,-947.5002 611.1564,-909.6751 645.0667,-875.5397 667.0775,-856.1834"/>
<polygon fill="#191970" stroke="#191970" points="669.5488,-858.6751 674.8668,-849.5117 664.9951,-853.3587 669.5488,-858.6751"/>
</g>
<!-- Node46&#45;&gt;Node3 -->
<g id="edge135" class="edge">
<title>Node46&#45;&gt;Node3</title>
<path fill="none" stroke="#191970" d="M547.6219,-1512.3828C552.1563,-1509.5947 556.3556,-1506.3278 560,-1502.5002 627.2229,-1431.8991 673.6718,-1115.8002 684.8813,-1032.6138"/>
<polygon fill="#191970" stroke="#191970" points="688.3554,-1033.0392 686.2022,-1022.6655 681.4163,-1032.1178 688.3554,-1033.0392"/>
</g>
<!-- Node46&#45;&gt;Node4 -->
<g id="edge136" class="edge">
<title>Node46&#45;&gt;Node4</title>
<path fill="none" stroke="#191970" d="M549.5515,-1512.3247C553.4596,-1509.5406 557.0037,-1506.2911 560,-1502.5002 630.4509,-1413.3649 523.9185,-1080.3222 596,-992.5002 599.02,-988.8207 602.5246,-985.6534 606.3659,-982.9295"/>
<polygon fill="#191970" stroke="#191970" points="608.446,-985.7649 615.2555,-977.6481 604.8706,-979.7468 608.446,-985.7649"/>
</g>
<!-- Node46&#45;&gt;Node8 -->
<g id="edge134" class="edge">
<title>Node46&#45;&gt;Node8</title>
<path fill="none" stroke="#191970" d="M549.5764,-1512.3442C553.4786,-1509.5555 557.0145,-1506.2997 560,-1502.5002 636.3611,-1405.3195 549.7181,-1062.0999 596,-947.5002 611.2592,-909.7165 645.1391,-875.5688 667.1158,-856.1988"/>
<polygon fill="#191970" stroke="#191970" points="669.5851,-858.6917 674.8921,-849.5218 665.025,-853.3808 669.5851,-858.6917"/>
</g>
<!-- Node47&#45;&gt;Node3 -->
<g id="edge139" class="edge">
<title>Node47&#45;&gt;Node3</title>
<path fill="none" stroke="#191970" d="M547.5025,-1461.2675C552.064,-1458.5057 556.3022,-1455.2762 560,-1451.5002 620.9977,-1389.2133 671.2022,-1110.5185 684.2149,-1032.7249"/>
<polygon fill="#191970" stroke="#191970" points="687.6852,-1033.1913 685.8618,-1022.7545 680.7788,-1032.0504 687.6852,-1033.1913"/>
</g>
<!-- Node47&#45;&gt;Node4 -->
<g id="edge140" class="edge">
<title>Node47&#45;&gt;Node4</title>
<path fill="none" stroke="#191970" d="M549.5176,-1461.2978C553.4338,-1458.5201 556.989,-1455.2794 560,-1451.5002 623.7553,-1371.4798 530.781,-1071.3322 596,-992.5002 599.0344,-988.8325 602.5501,-985.6743 606.3997,-982.9574"/>
<polygon fill="#191970" stroke="#191970" points="608.4805,-985.793 615.3037,-977.6878 604.9152,-979.769 608.4805,-985.793"/>
</g>
<!-- Node47&#45;&gt;Node8 -->
<g id="edge138" class="edge">
<title>Node47&#45;&gt;Node8</title>
<path fill="none" stroke="#191970" d="M549.5479,-1461.3218C553.4569,-1458.5384 557.0021,-1455.2899 560,-1451.5002 629.6631,-1363.4374 553.6125,-1051.4776 596,-947.5002 611.3826,-909.7665 645.226,-875.6041 667.1617,-856.2174"/>
<polygon fill="#191970" stroke="#191970" points="669.6289,-858.7118 674.9224,-849.5341 665.061,-853.4075 669.6289,-858.7118"/>
</g>
<!-- Node48&#45;&gt;Node3 -->
<g id="edge143" class="edge">
<title>Node48&#45;&gt;Node3</title>
<path fill="none" stroke="#191970" d="M546.9621,-1410.355C551.7062,-1407.5749 556.1295,-1404.3172 560,-1400.5002 614.87,-1346.3888 668.4842,-1104.4295 683.415,-1032.6411"/>
<polygon fill="#191970" stroke="#191970" points="686.8865,-1033.1356 685.4734,-1022.6354 680.03,-1031.725 686.8865,-1033.1356"/>
</g>
<!-- Node48&#45;&gt;Node4 -->
<g id="edge144" class="edge">
<title>Node48&#45;&gt;Node4</title>
<path fill="none" stroke="#191970" d="M549.4754,-1410.264C553.4017,-1407.4943 556.9706,-1404.2647 560,-1400.5002 617.0632,-1329.5902 537.6398,-1062.3467 596,-992.5002 599.1974,-988.6736 602.9185,-985.4024 606.9949,-982.6088"/>
<polygon fill="#191970" stroke="#191970" points="608.8971,-985.5521 615.8069,-977.5206 605.3967,-979.4901 608.8971,-985.5521"/>
</g>
<!-- Node48&#45;&gt;Node8 -->
<g id="edge142" class="edge">
<title>Node48&#45;&gt;Node8</title>
<path fill="none" stroke="#191970" d="M549.5131,-1410.2942C553.4304,-1407.5174 556.987,-1404.2779 560,-1400.5002 622.9677,-1321.5519 557.5051,-1040.8593 596,-947.5002 611.5333,-909.8283 645.3322,-875.6476 667.2178,-856.2404"/>
<polygon fill="#191970" stroke="#191970" points="669.6824,-858.7364 674.9595,-849.5493 665.105,-853.4404 669.6824,-858.7364"/>
</g>
<!-- Node50&#45;&gt;Node3 -->
<g id="edge147" class="edge">
<title>Node50&#45;&gt;Node3</title>
<path fill="none" stroke="#191970" d="M304.2288,-1851.5131C364.3682,-1866.7925 489.3071,-1887.8452 560,-1823.5002 620.883,-1768.0842 675.7246,-1152.0932 685.8374,-1032.5345"/>
<polygon fill="#191970" stroke="#191970" points="689.3267,-1032.8072 686.6751,-1022.5496 682.3512,-1032.2219 689.3267,-1032.8072"/>
</g>
<!-- Node50&#45;&gt;Node49 -->
<g id="edge148" class="edge">
<title>Node50&#45;&gt;Node49</title>
<path fill="none" stroke="#191970" d="M326.0172,-1831.4875C352.2502,-1826.7985 383.6791,-1821.1808 411.0534,-1816.2878"/>
<polygon fill="#191970" stroke="#191970" points="411.7099,-1819.726 420.938,-1814.5209 410.4782,-1812.8352 411.7099,-1819.726"/>
</g>
</g>
</svg>
