<?xml version="1.0" encoding="UTF-8" standalone="no"?>
<!DOCTYPE svg PUBLIC "-//W3C//DTD SVG 1.1//EN"
 "http://www.w3.org/Graphics/SVG/1.1/DTD/svg11.dtd">
<!-- Generated by graphviz version 2.40.1 (20161225.0304)
 -->
<!-- Title: KFPTrack::SetNDF Pages: 1 -->
<svg width="602pt" height="29pt"
 viewBox="0.00 0.00 602.00 29.00" xmlns="http://www.w3.org/2000/svg" xmlns:xlink="http://www.w3.org/1999/xlink">
<g id="graph0" class="graph" transform="scale(1 1) rotate(0) translate(4 25)">
<title>KFPTrack::SetNDF</title>
<!-- Node1 -->
<g id="node1" class="node">
<title>Node1</title>
<polygon fill="#bfbfbf" stroke="#000000" points="0,-.5 0,-20.5 105,-20.5 105,-.5 0,-.5"/>
<text text-anchor="middle" x="52.5" y="-7.5" font-family="FreeSans" font-size="10.00" fill="#000000">KFPTrack::SetNDF</text>
</g>
<!-- Node2 -->
<g id="node2" class="node">
<title>Node2</title>
<g id="a_node2"><a xlink:href="../../d6/d25/classKFParticleTest.html#ae4ea7eeece3a3d64c3137670f1ba6fee" target="_top" xlink:title="KFParticleTest::RunTestSingle">
<polygon fill="none" stroke="#000000" points="141,-.5 141,-20.5 304,-20.5 304,-.5 141,-.5"/>
<text text-anchor="middle" x="222.5" y="-7.5" font-family="FreeSans" font-size="10.00" fill="#000000">KFParticleTest::RunTestSingle</text>
</a>
</g>
</g>
<!-- Node1&#45;&gt;Node2 -->
<g id="edge1" class="edge">
<title>Node1&#45;&gt;Node2</title>
<path fill="none" stroke="#191970" d="M115.3612,-10.5C123.7066,-10.5 132.3581,-10.5 140.9621,-10.5"/>
<polygon fill="#191970" stroke="#191970" points="115.3572,-7.0001 105.3572,-10.5 115.3572,-14.0001 115.3572,-7.0001"/>
</g>
<!-- Node3 -->
<g id="node3" class="node">
<title>Node3</title>
<g id="a_node3"><a xlink:href="../../d6/d25/classKFParticleTest.html#af22048f201d269dd1831027622f3abf0" target="_top" xlink:title="KFParticleTest::RunTest">
<polygon fill="none" stroke="#000000" points="340,-.5 340,-20.5 472,-20.5 472,-.5 340,-.5"/>
<text text-anchor="middle" x="406" y="-7.5" font-family="FreeSans" font-size="10.00" fill="#000000">KFParticleTest::RunTest</text>
</a>
</g>
</g>
<!-- Node2&#45;&gt;Node3 -->
<g id="edge2" class="edge">
<title>Node2&#45;&gt;Node3</title>
<path fill="none" stroke="#191970" d="M314.187,-10.5C322.8344,-10.5 331.4826,-10.5 339.8242,-10.5"/>
<polygon fill="#191970" stroke="#191970" points="314.0544,-7.0001 304.0544,-10.5 314.0544,-14.0001 314.0544,-7.0001"/>
</g>
<!-- Node4 -->
<g id="node4" class="node">
<title>Node4</title>
<g id="a_node4"><a xlink:href="../../d3/d63/KFParticleTest_8C.html#a60c5d5e878a40c48ab24bcf64f26eca5" target="_top" xlink:title="KFParticleTest">
<polygon fill="none" stroke="#000000" points="508,-.5 508,-20.5 594,-20.5 594,-.5 508,-.5"/>
<text text-anchor="middle" x="551" y="-7.5" font-family="FreeSans" font-size="10.00" fill="#000000">KFParticleTest</text>
</a>
</g>
</g>
<!-- Node3&#45;&gt;Node4 -->
<g id="edge3" class="edge">
<title>Node3&#45;&gt;Node4</title>
<path fill="none" stroke="#191970" d="M482.3709,-10.5C491.0868,-10.5 499.7278,-10.5 507.7882,-10.5"/>
<polygon fill="#191970" stroke="#191970" points="482.1353,-7.0001 472.1352,-10.5 482.1352,-14.0001 482.1353,-7.0001"/>
</g>
</g>
</svg>
