<?xml version="1.0" encoding="UTF-8" standalone="no"?>
<!DOCTYPE svg PUBLIC "-//W3C//DTD SVG 1.1//EN"
 "http://www.w3.org/Graphics/SVG/1.1/DTD/svg11.dtd">
<!-- Generated by graphviz version 2.40.1 (20161225.0304)
 -->
<!-- Title: GenFit/blob/master/measurements/include/HMatrixUV.h Pages: 1 -->
<svg width="977pt" height="134pt"
 viewBox="0.00 0.00 977.00 134.00" xmlns="http://www.w3.org/2000/svg" xmlns:xlink="http://www.w3.org/1999/xlink">
<g id="graph0" class="graph" transform="scale(1 1) rotate(0) translate(4 130)">
<title>GenFit/blob/master/measurements/include/HMatrixUV.h</title>
<!-- Node1 -->
<g id="node1" class="node">
<title>Node1</title>
<polygon fill="#bfbfbf" stroke="#000000" points="407,-81.5 407,-125.5 543,-125.5 543,-81.5 407,-81.5"/>
<text text-anchor="start" x="415" y="-112.5" font-family="FreeSans" font-size="10.00" fill="#000000">GenFit/blob/master</text>
<text text-anchor="start" x="415" y="-100.5" font-family="FreeSans" font-size="10.00" fill="#000000">/measurements/include</text>
<text text-anchor="middle" x="475" y="-88.5" font-family="FreeSans" font-size="10.00" fill="#000000">/HMatrixUV.h</text>
</g>
<!-- Node2 -->
<g id="node2" class="node">
<title>Node2</title>
<g id="a_node2"><a xlink:href="../../d6/dcc/GblFitterInfo_8cc.html" target="_top" xlink:title="GenFit/blob/master\l/GBL/src/GblFitterInfo.cc">
<polygon fill="none" stroke="#000000" points="0,-6.5 0,-38.5 138,-38.5 138,-6.5 0,-6.5"/>
<text text-anchor="start" x="8" y="-25.5" font-family="FreeSans" font-size="10.00" fill="#000000">GenFit/blob/master</text>
<text text-anchor="middle" x="69" y="-13.5" font-family="FreeSans" font-size="10.00" fill="#000000">/GBL/src/GblFitterInfo.cc</text>
</a>
</g>
</g>
<!-- Node1&#45;&gt;Node2 -->
<g id="edge1" class="edge">
<title>Node1&#45;&gt;Node2</title>
<path fill="none" stroke="#191970" d="M396.7103,-91.8924C329.9644,-81.4353 231.6667,-64.7052 147,-45 138.7638,-43.0831 130.1037,-40.8288 121.6708,-38.5006"/>
<polygon fill="#191970" stroke="#191970" points="396.3145,-95.3728 406.7339,-93.4528 397.3913,-88.4561 396.3145,-95.3728"/>
</g>
<!-- Node3 -->
<g id="node3" class="node">
<title>Node3</title>
<g id="a_node3"><a xlink:href="../../d7/d69/HMatrixUV_8cc.html" target="_top" xlink:title="GenFit/blob/master\l/measurements/src/HMatrixUV.cc">
<polygon fill="none" stroke="#000000" points="156,-6.5 156,-38.5 340,-38.5 340,-6.5 156,-6.5"/>
<text text-anchor="start" x="164" y="-25.5" font-family="FreeSans" font-size="10.00" fill="#000000">GenFit/blob/master</text>
<text text-anchor="middle" x="248" y="-13.5" font-family="FreeSans" font-size="10.00" fill="#000000">/measurements/src/HMatrixUV.cc</text>
</a>
</g>
</g>
<!-- Node1&#45;&gt;Node3 -->
<g id="edge2" class="edge">
<title>Node1&#45;&gt;Node3</title>
<path fill="none" stroke="#191970" d="M403.7483,-78.0754C367.5823,-65.1704 324.7407,-49.8832 293.1527,-38.6118"/>
<polygon fill="#191970" stroke="#191970" points="402.6765,-81.409 413.2711,-81.4734 405.029,-74.8162 402.6765,-81.409"/>
</g>
<!-- Node4 -->
<g id="node4" class="node">
<title>Node4</title>
<g id="a_node4"><a xlink:href="../../de/db6/GenFit_2blob_2master_2measurements_2src_2PlanarMeasurement_8cc.html" target="_top" xlink:title="GenFit/blob/master\l/measurements/src/PlanarMeasurement.cc">
<polygon fill="none" stroke="#000000" points="358.5,-6.5 358.5,-38.5 591.5,-38.5 591.5,-6.5 358.5,-6.5"/>
<text text-anchor="start" x="366.5" y="-25.5" font-family="FreeSans" font-size="10.00" fill="#000000">GenFit/blob/master</text>
<text text-anchor="middle" x="475" y="-13.5" font-family="FreeSans" font-size="10.00" fill="#000000">/measurements/src/PlanarMeasurement.cc</text>
</a>
</g>
</g>
<!-- Node1&#45;&gt;Node4 -->
<g id="edge3" class="edge">
<title>Node1&#45;&gt;Node4</title>
<path fill="none" stroke="#191970" d="M475,-71.0737C475,-59.9468 475,-47.9724 475,-38.6969"/>
<polygon fill="#191970" stroke="#191970" points="471.5001,-71.3664 475,-81.3664 478.5001,-71.3664 471.5001,-71.3664"/>
</g>
<!-- Node5 -->
<g id="node5" class="node">
<title>Node5</title>
<g id="a_node5"><a xlink:href="../../d6/d43/GenFit_2blob_2master_2measurements_2src_2SpacepointMeasurement_8cc.html" target="_top" xlink:title="GenFit/blob/master\l/measurements/src/Spacepoint\lMeasurement.cc">
<polygon fill="none" stroke="#000000" points="609.5,-.5 609.5,-44.5 784.5,-44.5 784.5,-.5 609.5,-.5"/>
<text text-anchor="start" x="617.5" y="-31.5" font-family="FreeSans" font-size="10.00" fill="#000000">GenFit/blob/master</text>
<text text-anchor="start" x="617.5" y="-19.5" font-family="FreeSans" font-size="10.00" fill="#000000">/measurements/src/Spacepoint</text>
<text text-anchor="middle" x="697" y="-7.5" font-family="FreeSans" font-size="10.00" fill="#000000">Measurement.cc</text>
</a>
</g>
</g>
<!-- Node1&#45;&gt;Node5 -->
<g id="edge4" class="edge">
<title>Node1&#45;&gt;Node5</title>
<path fill="none" stroke="#191970" d="M544.7698,-78.0434C574.2528,-67.2861 608.2594,-54.8783 636.6428,-44.5222"/>
<polygon fill="#191970" stroke="#191970" points="543.5638,-74.7577 535.3692,-81.4734 545.9632,-81.3337 543.5638,-74.7577"/>
</g>
<!-- Node6 -->
<g id="node6" class="node">
<title>Node6</title>
<g id="a_node6"><a xlink:href="../../d9/d7f/WirePointMeasurement_8cc.html" target="_top" xlink:title="GenFit/blob/master\l/measurements/src/WirePoint\lMeasurement.cc">
<polygon fill="none" stroke="#000000" points="803,-.5 803,-44.5 969,-44.5 969,-.5 803,-.5"/>
<text text-anchor="start" x="811" y="-31.5" font-family="FreeSans" font-size="10.00" fill="#000000">GenFit/blob/master</text>
<text text-anchor="start" x="811" y="-19.5" font-family="FreeSans" font-size="10.00" fill="#000000">/measurements/src/WirePoint</text>
<text text-anchor="middle" x="886" y="-7.5" font-family="FreeSans" font-size="10.00" fill="#000000">Measurement.cc</text>
</a>
</g>
</g>
<!-- Node1&#45;&gt;Node6 -->
<g id="edge5" class="edge">
<title>Node1&#45;&gt;Node6</title>
<path fill="none" stroke="#191970" d="M553.1868,-90.4757C617.9219,-79.3774 712.2049,-62.4865 794,-45 796.8943,-44.3812 799.8365,-43.7383 802.8054,-43.0775"/>
<polygon fill="#191970" stroke="#191970" points="552.325,-87.0722 543.0573,-92.2064 553.504,-93.9722 552.325,-87.0722"/>
</g>
</g>
</svg>
