<?xml version="1.0" encoding="UTF-8" standalone="no"?>
<!DOCTYPE svg PUBLIC "-//W3C//DTD SVG 1.1//EN"
 "http://www.w3.org/Graphics/SVG/1.1/DTD/svg11.dtd">
<!-- Generated by graphviz version 2.40.1 (20161225.0304)
 -->
<!-- Title: genfit::Track::getKalmanFitStatus Pages: 1 -->
<svg width="529pt" height="41pt"
 viewBox="0.00 0.00 529.00 41.00" xmlns="http://www.w3.org/2000/svg" xmlns:xlink="http://www.w3.org/1999/xlink">
<g id="graph0" class="graph" transform="scale(1 1) rotate(0) translate(4 37)">
<title>genfit::Track::getKalmanFitStatus</title>
<!-- Node1 -->
<g id="node1" class="node">
<title>Node1</title>
<polygon fill="#bfbfbf" stroke="#000000" points="0,-.5 0,-32.5 140,-32.5 140,-.5 0,-.5"/>
<text text-anchor="start" x="8" y="-19.5" font-family="FreeSans" font-size="10.00" fill="#000000">genfit::Track::getKalman</text>
<text text-anchor="middle" x="70" y="-7.5" font-family="FreeSans" font-size="10.00" fill="#000000">FitStatus</text>
</g>
<!-- Node2 -->
<g id="node2" class="node">
<title>Node2</title>
<g id="a_node2"><a xlink:href="../../d6/d8a/classgenfit_1_1Track.html#ad06e7a012624bdb03960826b5c9fcd93" target="_top" xlink:title="Get FitStatus for a AbsTrackRep. Per default, return FitStatus for cardinalRep.">
<polygon fill="none" stroke="#000000" points="176,-6.5 176,-26.5 322,-26.5 322,-6.5 176,-6.5"/>
<text text-anchor="middle" x="249" y="-13.5" font-family="FreeSans" font-size="10.00" fill="#000000">genfit::Track::getFitStatus</text>
</a>
</g>
</g>
<!-- Node1&#45;&gt;Node2 -->
<g id="edge1" class="edge">
<title>Node1&#45;&gt;Node2</title>
<path fill="none" stroke="#191970" d="M140.2318,-16.5C148.5181,-16.5 157.0357,-16.5 165.482,-16.5"/>
<polygon fill="#191970" stroke="#191970" points="165.7289,-20.0001 175.7288,-16.5 165.7288,-13.0001 165.7289,-20.0001"/>
</g>
<!-- Node3 -->
<g id="node3" class="node">
<title>Node3</title>
<g id="a_node3"><a xlink:href="../../d6/d8a/classgenfit_1_1Track.html#a402b35300e81a48c7f0b9eb082b1cf24" target="_top" xlink:title="Get cardinal track representation.">
<polygon fill="none" stroke="#000000" points="358,-6.5 358,-26.5 521,-26.5 521,-6.5 358,-6.5"/>
<text text-anchor="middle" x="439.5" y="-13.5" font-family="FreeSans" font-size="10.00" fill="#000000">genfit::Track::getCardinalRep</text>
</a>
</g>
</g>
<!-- Node2&#45;&gt;Node3 -->
<g id="edge2" class="edge">
<title>Node2&#45;&gt;Node3</title>
<path fill="none" stroke="#191970" d="M322.1075,-16.5C330.4786,-16.5 339.0912,-16.5 347.6669,-16.5"/>
<polygon fill="#191970" stroke="#191970" points="347.7004,-20.0001 357.7004,-16.5 347.7003,-13.0001 347.7004,-20.0001"/>
</g>
</g>
</svg>
