<?xml version="1.0" encoding="UTF-8" standalone="no"?>
<!DOCTYPE svg PUBLIC "-//W3C//DTD SVG 1.1//EN"
 "http://www.w3.org/Graphics/SVG/1.1/DTD/svg11.dtd">
<!-- Generated by graphviz version 2.40.1 (20161225.0304)
 -->
<!-- Title: genfit::Track::insertPoints Pages: 1 -->
<svg width="779pt" height="299pt"
 viewBox="0.00 0.00 779.00 299.00" xmlns="http://www.w3.org/2000/svg" xmlns:xlink="http://www.w3.org/1999/xlink">
<g id="graph0" class="graph" transform="scale(1 1) rotate(0) translate(4 295)">
<title>genfit::Track::insertPoints</title>
<!-- Node1 -->
<g id="node1" class="node">
<title>Node1</title>
<polygon fill="#bfbfbf" stroke="#000000" points="0,-115.5 0,-135.5 145,-135.5 145,-115.5 0,-115.5"/>
<text text-anchor="middle" x="72.5" y="-122.5" font-family="FreeSans" font-size="10.00" fill="#000000">genfit::Track::insertPoints</text>
</g>
<!-- Node2 -->
<g id="node2" class="node">
<title>Node2</title>
<g id="a_node2"><a xlink:href="../../d6/d8a/classgenfit_1_1Track.html#a409abb47dc8fb5134031f8af1ce9b44a" target="_top" xlink:title="genfit::Track::deleteBackwardInfo">
<polygon fill="none" stroke="#000000" points="373.5,-270.5 373.5,-290.5 559.5,-290.5 559.5,-270.5 373.5,-270.5"/>
<text text-anchor="middle" x="466.5" y="-277.5" font-family="FreeSans" font-size="10.00" fill="#000000">genfit::Track::deleteBackwardInfo</text>
</a>
</g>
</g>
<!-- Node1&#45;&gt;Node2 -->
<g id="edge1" class="edge">
<title>Node1&#45;&gt;Node2</title>
<path fill="none" stroke="#191970" d="M84.0621,-135.6261C103.0743,-151.815 142.6658,-183.6189 181,-202.5 249.302,-236.1415 334.1865,-256.9708 393.5737,-268.5488"/>
<polygon fill="#191970" stroke="#191970" points="393.1374,-272.0286 403.6164,-270.466 394.4501,-265.1528 393.1374,-272.0286"/>
</g>
<!-- Node4 -->
<g id="node4" class="node">
<title>Node4</title>
<g id="a_node4"><a xlink:href="../../d6/d8a/classgenfit_1_1Track.html#ad6ac9e44842a18fbba2577a887f008c5" target="_top" xlink:title="genfit::Track::deleteForwardInfo">
<polygon fill="none" stroke="#000000" points="378,-231.5 378,-251.5 555,-251.5 555,-231.5 378,-231.5"/>
<text text-anchor="middle" x="466.5" y="-238.5" font-family="FreeSans" font-size="10.00" fill="#000000">genfit::Track::deleteForwardInfo</text>
</a>
</g>
</g>
<!-- Node1&#45;&gt;Node4 -->
<g id="edge3" class="edge">
<title>Node1&#45;&gt;Node4</title>
<path fill="none" stroke="#191970" d="M98.203,-135.509C120.0842,-143.9011 152.4231,-156.0015 181,-165.5 265.4705,-193.5766 286.6338,-200.9493 373,-222.5 382.643,-224.9062 392.9019,-227.2282 402.9584,-229.3732"/>
<polygon fill="#191970" stroke="#191970" points="402.4123,-232.8347 412.917,-231.4559 403.8453,-225.9829 402.4123,-232.8347"/>
</g>
<!-- Node5 -->
<g id="node5" class="node">
<title>Node5</title>
<g id="a_node5"><a xlink:href="../../d6/d8a/classgenfit_1_1Track.html#aef6313a66e86853f9eef2e38f519bc37" target="_top" xlink:title="genfit::Track::deleteReferenceInfo">
<polygon fill="none" stroke="#000000" points="373,-51.5 373,-71.5 560,-71.5 560,-51.5 373,-51.5"/>
<text text-anchor="middle" x="466.5" y="-58.5" font-family="FreeSans" font-size="10.00" fill="#000000">genfit::Track::deleteReferenceInfo</text>
</a>
</g>
</g>
<!-- Node1&#45;&gt;Node5 -->
<g id="edge5" class="edge">
<title>Node1&#45;&gt;Node5</title>
<path fill="none" stroke="#191970" d="M134.4959,-115.4296C205.0746,-103.965 320.1988,-85.2647 394.6405,-73.1726"/>
<polygon fill="#191970" stroke="#191970" points="395.5562,-76.5698 404.8656,-71.5117 394.4338,-69.6604 395.5562,-76.5698"/>
</g>
<!-- Node6 -->
<g id="node6" class="node">
<title>Node6</title>
<g id="a_node6"><a xlink:href="../../d6/d8a/classgenfit_1_1Track.html#aebe51cd12b541bb8821c1b919480371d" target="_top" xlink:title="genfit::Track::fillPoints\lWithMeasurement">
<polygon fill="none" stroke="#000000" points="402.5,-.5 402.5,-32.5 530.5,-32.5 530.5,-.5 402.5,-.5"/>
<text text-anchor="start" x="410.5" y="-19.5" font-family="FreeSans" font-size="10.00" fill="#000000">genfit::Track::fillPoints</text>
<text text-anchor="middle" x="466.5" y="-7.5" font-family="FreeSans" font-size="10.00" fill="#000000">WithMeasurement</text>
</a>
</g>
</g>
<!-- Node1&#45;&gt;Node6 -->
<g id="edge7" class="edge">
<title>Node1&#45;&gt;Node6</title>
<path fill="none" stroke="#191970" d="M94.977,-115.3443C116.6571,-105.8489 150.5715,-91.7781 181,-82.5 248.8758,-61.8038 267.8823,-64.5685 337,-48.5 355.2604,-44.2548 374.9214,-39.4947 393.2712,-34.9697"/>
<polygon fill="#191970" stroke="#191970" points="394.1555,-38.3566 403.0221,-32.5572 392.4742,-31.5615 394.1555,-38.3566"/>
</g>
<!-- Node7 -->
<g id="node7" class="node">
<title>Node7</title>
<g id="a_node7"><a xlink:href="../../d6/d8a/classgenfit_1_1Track.html#a30a99be76e2dbd190d6567830eaeb0fc" target="_top" xlink:title="genfit::Track::getNumPoints">
<polygon fill="none" stroke="#000000" points="181,-19.5 181,-39.5 337,-39.5 337,-19.5 181,-19.5"/>
<text text-anchor="middle" x="259" y="-26.5" font-family="FreeSans" font-size="10.00" fill="#000000">genfit::Track::getNumPoints</text>
</a>
</g>
</g>
<!-- Node1&#45;&gt;Node7 -->
<g id="edge8" class="edge">
<title>Node1&#45;&gt;Node7</title>
<path fill="none" stroke="#191970" d="M85.5105,-115.3032C105.2103,-100.2652 144.2191,-72.0322 181,-54.5 190.4358,-50.0023 200.8839,-46.0262 210.9849,-42.6432"/>
<polygon fill="#191970" stroke="#191970" points="212.0665,-45.972 220.5187,-39.5836 209.9275,-39.3068 212.0665,-45.972"/>
</g>
<!-- Node8 -->
<g id="node8" class="node">
<title>Node8</title>
<g id="a_node8"><a xlink:href="../../d6/d8a/classgenfit_1_1Track.html#a7e61ada0d84db561ede923db92c4ab01" target="_top" xlink:title="Insert TrackPoint BEFORE TrackPoint with position id, if id &gt;= 0.">
<polygon fill="none" stroke="#000000" points="189,-135.5 189,-155.5 329,-155.5 329,-135.5 189,-135.5"/>
<text text-anchor="middle" x="259" y="-142.5" font-family="FreeSans" font-size="10.00" fill="#000000">genfit::Track::insertPoint</text>
</a>
</g>
</g>
<!-- Node1&#45;&gt;Node8 -->
<g id="edge9" class="edge">
<title>Node1&#45;&gt;Node8</title>
<path fill="none" stroke="#191970" d="M145.1398,-133.2898C156.1027,-134.4654 167.4656,-135.684 178.5806,-136.8759"/>
<polygon fill="#191970" stroke="#191970" points="178.3838,-140.3748 188.7,-137.9611 179.1302,-133.4147 178.3838,-140.3748"/>
</g>
<!-- Node3 -->
<g id="node3" class="node">
<title>Node3</title>
<g id="a_node3"><a xlink:href="../../d6/d8a/classgenfit_1_1Track.html#ad4ead0ee2abc2bcb6b616f8976bc559a" target="_top" xlink:title="genfit::Track::trackHasChanged">
<polygon fill="none" stroke="#000000" points="596,-160.5 596,-180.5 771,-180.5 771,-160.5 596,-160.5"/>
<text text-anchor="middle" x="683.5" y="-167.5" font-family="FreeSans" font-size="10.00" fill="#000000">genfit::Track::trackHasChanged</text>
</a>
</g>
</g>
<!-- Node2&#45;&gt;Node3 -->
<g id="edge2" class="edge">
<title>Node2&#45;&gt;Node3</title>
<path fill="none" stroke="#191970" d="M534.0036,-270.4579C542.9377,-268.0724 551.8244,-265.129 560,-261.5 601.8426,-242.9269 643.1739,-208.2689 665.8162,-187.4999"/>
<polygon fill="#191970" stroke="#191970" points="668.3582,-189.9149 673.2788,-180.5321 663.581,-184.7984 668.3582,-189.9149"/>
</g>
<!-- Node4&#45;&gt;Node3 -->
<g id="edge4" class="edge">
<title>Node4&#45;&gt;Node3</title>
<path fill="none" stroke="#191970" d="M525.3052,-231.4027C536.9101,-228.8918 548.9211,-225.921 560,-222.5 592.9675,-212.32 629.1876,-196.4821 653.8262,-184.9589"/>
<polygon fill="#191970" stroke="#191970" points="655.4496,-188.0629 662.9912,-180.6215 652.4551,-181.7357 655.4496,-188.0629"/>
</g>
<!-- Node5&#45;&gt;Node3 -->
<g id="edge6" class="edge">
<title>Node5&#45;&gt;Node3</title>
<path fill="none" stroke="#191970" d="M516.5955,-71.5898C530.9584,-75.3576 546.4023,-80.2757 560,-86.5 599.6879,-104.667 640.5787,-135.2605 663.9315,-154.0844"/>
<polygon fill="#191970" stroke="#191970" points="661.7499,-156.8216 671.7069,-160.4421 666.1809,-151.4026 661.7499,-156.8216"/>
</g>
<!-- Node8&#45;&gt;Node2 -->
<g id="edge10" class="edge">
<title>Node8&#45;&gt;Node2</title>
<path fill="none" stroke="#191970" d="M265.6178,-155.5132C281.2893,-178.3559 323.1193,-234.4256 373,-261.5 376.7669,-263.5446 380.7276,-265.37 384.8043,-266.9997"/>
<polygon fill="#191970" stroke="#191970" points="383.8961,-270.3917 394.4907,-270.4578 386.2497,-263.7993 383.8961,-270.3917"/>
</g>
<!-- Node8&#45;&gt;Node3 -->
<g id="edge16" class="edge">
<title>Node8&#45;&gt;Node3</title>
<path fill="none" stroke="#191970" d="M295.1218,-135.4847C317.3782,-129.8389 346.6113,-123.3595 373,-120.5 455.6274,-111.5464 478.4215,-104.6125 560,-120.5 594.4761,-127.2143 631.503,-143.5543 655.9256,-155.739"/>
<polygon fill="#191970" stroke="#191970" points="654.4509,-158.9158 664.9496,-160.3395 657.6302,-152.6794 654.4509,-158.9158"/>
</g>
<!-- Node8&#45;&gt;Node4 -->
<g id="edge11" class="edge">
<title>Node8&#45;&gt;Node4</title>
<path fill="none" stroke="#191970" d="M274.1585,-155.7939C304.8667,-176.6401 371.6442,-221.9311 373,-222.5 378.4797,-224.7991 384.2598,-226.827 390.1484,-228.6145"/>
<polygon fill="#191970" stroke="#191970" points="389.5543,-232.0824 400.1272,-231.4012 391.4371,-225.3404 389.5543,-232.0824"/>
</g>
<!-- Node8&#45;&gt;Node5 -->
<g id="edge12" class="edge">
<title>Node8&#45;&gt;Node5</title>
<path fill="none" stroke="#191970" d="M302.1704,-135.4253C313.9271,-131.6942 326.3477,-126.7916 337,-120.5 355.9495,-109.3079 353.7826,-97.2255 373,-86.5 381.6934,-81.6481 391.3712,-77.7029 401.1121,-74.5047"/>
<polygon fill="#191970" stroke="#191970" points="402.289,-77.8051 410.8398,-71.5495 400.2542,-71.1074 402.289,-77.8051"/>
</g>
<!-- Node8&#45;&gt;Node6 -->
<g id="edge13" class="edge">
<title>Node8&#45;&gt;Node6</title>
<path fill="none" stroke="#191970" d="M272.8342,-135.463C288.9023,-123.5529 315.9005,-102.7488 337,-82.5 354.4962,-65.7092 352.3998,-54.2938 373,-41.5 379.0843,-37.7213 385.7347,-34.5079 392.5939,-31.7762"/>
<polygon fill="#191970" stroke="#191970" points="393.8402,-35.0473 402.0433,-28.342 391.4492,-28.4683 393.8402,-35.0473"/>
</g>
<!-- Node9 -->
<g id="node9" class="node">
<title>Node9</title>
<g id="a_node9"><a xlink:href="../../db/d40/classgenfit_1_1TrackPoint.html#ada7b4d8c988a1798e455fb70929f88b7" target="_top" xlink:title="genfit::TrackPoint\l::hasRawMeasurements">
<polygon fill="none" stroke="#000000" points="398,-180.5 398,-212.5 535,-212.5 535,-180.5 398,-180.5"/>
<text text-anchor="start" x="406" y="-199.5" font-family="FreeSans" font-size="10.00" fill="#000000">genfit::TrackPoint</text>
<text text-anchor="middle" x="466.5" y="-187.5" font-family="FreeSans" font-size="10.00" fill="#000000">::hasRawMeasurements</text>
</a>
</g>
</g>
<!-- Node8&#45;&gt;Node9 -->
<g id="edge14" class="edge">
<title>Node8&#45;&gt;Node9</title>
<path fill="none" stroke="#191970" d="M299.9953,-155.576C325.9996,-161.9674 360.4291,-170.4295 391.2289,-177.9996"/>
<polygon fill="#191970" stroke="#191970" points="390.5396,-181.4343 401.086,-180.4223 392.2104,-174.6366 390.5396,-181.4343"/>
</g>
<!-- Node10 -->
<g id="node10" class="node">
<title>Node10</title>
<g id="a_node10"><a xlink:href="../../db/d40/classgenfit_1_1TrackPoint.html#a70f6a8e9214edad4fce38eafeeee820e" target="_top" xlink:title="genfit::TrackPoint\l::setTrack">
<polygon fill="none" stroke="#000000" points="414.5,-129.5 414.5,-161.5 518.5,-161.5 518.5,-129.5 414.5,-129.5"/>
<text text-anchor="start" x="422.5" y="-148.5" font-family="FreeSans" font-size="10.00" fill="#000000">genfit::TrackPoint</text>
<text text-anchor="middle" x="466.5" y="-136.5" font-family="FreeSans" font-size="10.00" fill="#000000">::setTrack</text>
</a>
</g>
</g>
<!-- Node8&#45;&gt;Node10 -->
<g id="edge15" class="edge">
<title>Node8&#45;&gt;Node10</title>
<path fill="none" stroke="#191970" d="M329.25,-145.5C353.5229,-145.5 380.5362,-145.5 404.1334,-145.5"/>
<polygon fill="#191970" stroke="#191970" points="404.365,-149.0001 414.365,-145.5 404.365,-142.0001 404.365,-149.0001"/>
</g>
</g>
</svg>
