<?xml version="1.0" encoding="UTF-8" standalone="no"?>
<!DOCTYPE svg PUBLIC "-//W3C//DTD SVG 1.1//EN"
 "http://www.w3.org/Graphics/SVG/1.1/DTD/svg11.dtd">
<!-- Generated by graphviz version 2.40.1 (20161225.0304)
 -->
<!-- Title: genfit::Track::Track Pages: 1 -->
<svg width="1006pt" height="737pt"
 viewBox="0.00 0.00 1006.00 737.00" xmlns="http://www.w3.org/2000/svg" xmlns:xlink="http://www.w3.org/1999/xlink">
<g id="graph0" class="graph" transform="scale(1 1) rotate(0) translate(4 733)">
<title>genfit::Track::Track</title>
<!-- Node1 -->
<g id="node1" class="node">
<title>Node1</title>
<polygon fill="#bfbfbf" stroke="#000000" points="0,-181.5 0,-201.5 112,-201.5 112,-181.5 0,-181.5"/>
<text text-anchor="middle" x="56" y="-188.5" font-family="FreeSans" font-size="10.00" fill="#000000">genfit::Track::Track</text>
</g>
<!-- Node2 -->
<g id="node2" class="node">
<title>Node2</title>
<g id="a_node2"><a xlink:href="../../d6/d8a/classgenfit_1_1Track.html#a0b6d9d10d404ae80046fcc2eba46dea3" target="_top" xlink:title="genfit::Track::addTrackRep">
<polygon fill="none" stroke="#000000" points="169,-616.5 169,-636.5 319,-636.5 319,-616.5 169,-616.5"/>
<text text-anchor="middle" x="244" y="-623.5" font-family="FreeSans" font-size="10.00" fill="#000000">genfit::Track::addTrackRep</text>
</a>
</g>
</g>
<!-- Node1&#45;&gt;Node2 -->
<g id="edge1" class="edge">
<title>Node1&#45;&gt;Node2</title>
<path fill="none" stroke="#191970" d="M56.7723,-201.661C61.3857,-259.6281 87.1861,-548.0249 148,-607.5 151.5339,-610.9561 155.5045,-613.8721 159.7669,-616.326"/>
<polygon fill="#191970" stroke="#191970" points="158.3536,-619.5304 168.8793,-620.7392 161.4048,-613.2304 158.3536,-619.5304"/>
</g>
<!-- Node3 -->
<g id="node3" class="node">
<title>Node3</title>
<g id="a_node3"><a xlink:href="../../d6/d8a/classgenfit_1_1Track.html#aee4eab9e952ee6f0e0c1f1d980552759" target="_top" xlink:title="genfit::Track::checkConsistency">
<polygon fill="none" stroke="#000000" points="156,-577.5 156,-597.5 332,-597.5 332,-577.5 156,-577.5"/>
<text text-anchor="middle" x="244" y="-584.5" font-family="FreeSans" font-size="10.00" fill="#000000">genfit::Track::checkConsistency</text>
</a>
</g>
</g>
<!-- Node1&#45;&gt;Node3 -->
<g id="edge2" class="edge">
<title>Node1&#45;&gt;Node3</title>
<path fill="none" stroke="#191970" d="M60.4951,-201.5855C73.6675,-231.0819 113.4275,-319.6994 148,-392.5 178.7918,-457.3393 216.8283,-533.4861 234.3419,-568.3362"/>
<polygon fill="#191970" stroke="#191970" points="231.2805,-570.0389 238.9017,-577.3988 237.5336,-566.8927 231.2805,-570.0389"/>
</g>
<!-- Node9 -->
<g id="node9" class="node">
<title>Node9</title>
<g id="a_node9"><a xlink:href="../../d6/d8a/classgenfit_1_1Track.html#a73f9e05be44d2d677b4293f57d5fb004" target="_top" xlink:title="genfit::Track::createMeasurements">
<polygon fill="none" stroke="#000000" points="148,-362.5 148,-382.5 340,-382.5 340,-362.5 148,-362.5"/>
<text text-anchor="middle" x="244" y="-369.5" font-family="FreeSans" font-size="10.00" fill="#000000">genfit::Track::createMeasurements</text>
</a>
</g>
</g>
<!-- Node1&#45;&gt;Node9 -->
<g id="edge8" class="edge">
<title>Node1&#45;&gt;Node9</title>
<path fill="none" stroke="#191970" d="M66.6464,-201.7499C97.539,-231.4924 187.4508,-318.0564 226.0519,-355.2202"/>
<polygon fill="#191970" stroke="#191970" points="223.839,-357.9481 233.4704,-362.3625 228.694,-352.9054 223.839,-357.9481"/>
</g>
<!-- Node24 -->
<g id="node24" class="node">
<title>Node24</title>
<g id="a_node24"><a xlink:href="../../d6/d8a/classgenfit_1_1Track.html#aebe51cd12b541bb8821c1b919480371d" target="_top" xlink:title="genfit::Track::fillPoints\lWithMeasurement">
<polygon fill="none" stroke="#000000" points="629.5,-69.5 629.5,-101.5 757.5,-101.5 757.5,-69.5 629.5,-69.5"/>
<text text-anchor="start" x="637.5" y="-88.5" font-family="FreeSans" font-size="10.00" fill="#000000">genfit::Track::fillPoints</text>
<text text-anchor="middle" x="693.5" y="-76.5" font-family="FreeSans" font-size="10.00" fill="#000000">WithMeasurement</text>
</a>
</g>
</g>
<!-- Node1&#45;&gt;Node24 -->
<g id="edge30" class="edge">
<title>Node1&#45;&gt;Node24</title>
<path fill="none" stroke="#191970" d="M112.4316,-193.6309C124.1848,-193.9931 136.4954,-194.3125 148,-194.5 233.322,-195.8907 255.7062,-207.7788 340,-194.5 459.9574,-175.6031 483.5263,-144.8618 600,-110.5 607.1157,-108.4008 614.5581,-106.282 622.0029,-104.2128"/>
<polygon fill="#191970" stroke="#191970" points="623.0508,-107.5547 631.764,-101.5272 621.1938,-100.8055 623.0508,-107.5547"/>
</g>
<!-- Node25 -->
<g id="node25" class="node">
<title>Node25</title>
<g id="a_node25"><a xlink:href="../../d3/da2/classgenfit_1_1TrackCand.html#a23b617a1065e3b4d7b9237bdaff24e14" target="_top" xlink:title="get the covariance matrix seed (6D).">
<polygon fill="none" stroke="#000000" points="188.5,-153.5 188.5,-185.5 299.5,-185.5 299.5,-153.5 188.5,-153.5"/>
<text text-anchor="start" x="196.5" y="-172.5" font-family="FreeSans" font-size="10.00" fill="#000000">genfit::TrackCand::</text>
<text text-anchor="middle" x="244" y="-160.5" font-family="FreeSans" font-size="10.00" fill="#000000">getCovSeed</text>
</a>
</g>
</g>
<!-- Node1&#45;&gt;Node25 -->
<g id="edge31" class="edge">
<title>Node1&#45;&gt;Node25</title>
<path fill="none" stroke="#191970" d="M112.1515,-184.9291C132.9809,-182.4916 156.7867,-179.7058 178.386,-177.1782"/>
<polygon fill="#191970" stroke="#191970" points="178.9361,-180.6378 188.4615,-175.9992 178.1224,-173.6853 178.9361,-180.6378"/>
</g>
<!-- Node26 -->
<g id="node26" class="node">
<title>Node26</title>
<g id="a_node26"><a xlink:href="../../d3/da2/classgenfit_1_1TrackCand.html#a7098fa1c8777112f9cfa75da45afc5a9" target="_top" xlink:title="Get the MCT track id, for MC simulations &#45; default value = &#45;1.">
<polygon fill="none" stroke="#000000" points="188.5,-102.5 188.5,-134.5 299.5,-134.5 299.5,-102.5 188.5,-102.5"/>
<text text-anchor="start" x="196.5" y="-121.5" font-family="FreeSans" font-size="10.00" fill="#000000">genfit::TrackCand::</text>
<text text-anchor="middle" x="244" y="-109.5" font-family="FreeSans" font-size="10.00" fill="#000000">getMcTrackId</text>
</a>
</g>
</g>
<!-- Node1&#45;&gt;Node26 -->
<g id="edge32" class="edge">
<title>Node1&#45;&gt;Node26</title>
<path fill="none" stroke="#191970" d="M72.4238,-181.4743C90.4279,-170.8353 120.4309,-154.124 148,-143.5 157.7428,-139.7455 168.2549,-136.3672 178.6257,-133.3975"/>
<polygon fill="#191970" stroke="#191970" points="179.7855,-136.7084 188.4957,-130.6765 177.9251,-129.9602 179.7855,-136.7084"/>
</g>
<!-- Node27 -->
<g id="node27" class="node">
<title>Node27</title>
<g id="a_node27"><a xlink:href="../../d3/da2/classgenfit_1_1TrackCand.html#a26b6ad5a89920cbdbc6f43ca9f922e16" target="_top" xlink:title="Returns the 6D seed state; should be in global coordinates.">
<polygon fill="none" stroke="#000000" points="188.5,-51.5 188.5,-83.5 299.5,-83.5 299.5,-51.5 188.5,-51.5"/>
<text text-anchor="start" x="196.5" y="-70.5" font-family="FreeSans" font-size="10.00" fill="#000000">genfit::TrackCand::</text>
<text text-anchor="middle" x="244" y="-58.5" font-family="FreeSans" font-size="10.00" fill="#000000">getStateSeed</text>
</a>
</g>
</g>
<!-- Node1&#45;&gt;Node27 -->
<g id="edge33" class="edge">
<title>Node1&#45;&gt;Node27</title>
<path fill="none" stroke="#191970" d="M62.4905,-181.3118C75.9005,-161.1217 108.7193,-115.9604 148,-92.5 157.3395,-86.922 167.9145,-82.5746 178.5468,-79.1901"/>
<polygon fill="#191970" stroke="#191970" points="179.6749,-82.507 188.2935,-76.345 177.7133,-75.7874 179.6749,-82.507"/>
</g>
<!-- Node28 -->
<g id="node28" class="node">
<title>Node28</title>
<g id="a_node28"><a xlink:href="../../d3/da2/classgenfit_1_1TrackCand.html#a02bac0a1a793a48942ff09dea5852102" target="_top" xlink:title="Get the time at which the seed state is defined.">
<polygon fill="none" stroke="#000000" points="188.5,-.5 188.5,-32.5 299.5,-32.5 299.5,-.5 188.5,-.5"/>
<text text-anchor="start" x="196.5" y="-19.5" font-family="FreeSans" font-size="10.00" fill="#000000">genfit::TrackCand::</text>
<text text-anchor="middle" x="244" y="-7.5" font-family="FreeSans" font-size="10.00" fill="#000000">getTimeSeed</text>
</a>
</g>
</g>
<!-- Node1&#45;&gt;Node28 -->
<g id="edge34" class="edge">
<title>Node1&#45;&gt;Node28</title>
<path fill="none" stroke="#191970" d="M59.2369,-181.2553C68.3976,-153.9858 97.1903,-79.1482 148,-41.5 157.0973,-34.7592 167.8532,-29.8319 178.8159,-26.2311"/>
<polygon fill="#191970" stroke="#191970" points="179.8585,-29.5728 188.4665,-23.396 177.8855,-22.8566 179.8585,-29.5728"/>
</g>
<!-- Node4 -->
<g id="node4" class="node">
<title>Node4</title>
<g id="a_node4"><a xlink:href="../../d3/d03/classgenfit_1_1KalmanFitterInfo.html#ab74f13ab4f4f1ac99a29e1fa55b83413" target="_top" xlink:title="genfit::KalmanFitterInfo\l::hasReferenceState">
<polygon fill="none" stroke="#000000" points="402.5,-696.5 402.5,-728.5 537.5,-728.5 537.5,-696.5 402.5,-696.5"/>
<text text-anchor="start" x="410.5" y="-715.5" font-family="FreeSans" font-size="10.00" fill="#000000">genfit::KalmanFitterInfo</text>
<text text-anchor="middle" x="470" y="-703.5" font-family="FreeSans" font-size="10.00" fill="#000000">::hasReferenceState</text>
</a>
</g>
</g>
<!-- Node3&#45;&gt;Node4 -->
<g id="edge3" class="edge">
<title>Node3&#45;&gt;Node4</title>
<path fill="none" stroke="#191970" d="M323.7812,-597.7074C329.592,-600.3335 335.0888,-603.5555 340,-607.5 370.3988,-631.9153 346.2783,-662.2648 376,-687.5 380.9842,-691.7318 386.6109,-695.2554 392.5719,-698.1882"/>
<polygon fill="#191970" stroke="#191970" points="391.6013,-701.5812 402.1699,-702.3275 394.3735,-695.1535 391.6013,-701.5812"/>
</g>
<!-- Node5 -->
<g id="node5" class="node">
<title>Node5</title>
<g id="a_node5"><a xlink:href="../../d3/d03/classgenfit_1_1KalmanFitterInfo.html#a580ecd10b0c09b257533ca04f2ba460b" target="_top" xlink:title="genfit::KalmanFitterInfo\l::getReferenceState">
<polygon fill="none" stroke="#000000" points="402.5,-645.5 402.5,-677.5 537.5,-677.5 537.5,-645.5 402.5,-645.5"/>
<text text-anchor="start" x="410.5" y="-664.5" font-family="FreeSans" font-size="10.00" fill="#000000">genfit::KalmanFitterInfo</text>
<text text-anchor="middle" x="470" y="-652.5" font-family="FreeSans" font-size="10.00" fill="#000000">::getReferenceState</text>
</a>
</g>
</g>
<!-- Node3&#45;&gt;Node5 -->
<g id="edge4" class="edge">
<title>Node3&#45;&gt;Node5</title>
<path fill="none" stroke="#191970" d="M312.1933,-597.5151C321.7712,-600.1163 331.3045,-603.3877 340,-607.5 358.5733,-616.2839 357.6731,-627.2129 376,-636.5 381.3074,-639.1895 386.9345,-641.6122 392.6927,-643.7907"/>
<polygon fill="#191970" stroke="#191970" points="391.8792,-647.2147 402.474,-647.2303 394.2014,-640.6111 391.8792,-647.2147"/>
</g>
<!-- Node6 -->
<g id="node6" class="node">
<title>Node6</title>
<g id="a_node6"><a xlink:href="../../d2/d6a/classgenfit_1_1ReferenceStateOnPlane.html#abcae7586bd838e27b384e4e001c9b3d3" target="_top" xlink:title="genfit::ReferenceStateOn\lPlane::getForwardSegmentLength">
<polygon fill="none" stroke="#000000" points="376,-594.5 376,-626.5 564,-626.5 564,-594.5 376,-594.5"/>
<text text-anchor="start" x="384" y="-613.5" font-family="FreeSans" font-size="10.00" fill="#000000">genfit::ReferenceStateOn</text>
<text text-anchor="middle" x="470" y="-601.5" font-family="FreeSans" font-size="10.00" fill="#000000">Plane::getForwardSegmentLength</text>
</a>
</g>
</g>
<!-- Node3&#45;&gt;Node6 -->
<g id="edge5" class="edge">
<title>Node3&#45;&gt;Node6</title>
<path fill="none" stroke="#191970" d="M332.0246,-596.4583C343.032,-597.5785 354.3722,-598.7326 365.5986,-599.8751"/>
<polygon fill="#191970" stroke="#191970" points="365.5607,-603.3892 375.8637,-600.9198 366.2695,-596.4252 365.5607,-603.3892"/>
</g>
<!-- Node7 -->
<g id="node7" class="node">
<title>Node7</title>
<g id="a_node7"><a xlink:href="../../d6/d8a/classgenfit_1_1Track.html#aae3d3066dbd7ab39d87b56e17db5adf9" target="_top" xlink:title="This is used when streaming TrackPoints.">
<polygon fill="none" stroke="#000000" points="397,-555.5 397,-575.5 543,-575.5 543,-555.5 397,-555.5"/>
<text text-anchor="middle" x="470" y="-562.5" font-family="FreeSans" font-size="10.00" fill="#000000">genfit::Track::getIdForRep</text>
</a>
</g>
</g>
<!-- Node3&#45;&gt;Node7 -->
<g id="edge6" class="edge">
<title>Node3&#45;&gt;Node7</title>
<path fill="none" stroke="#191970" d="M332.0246,-578.9312C349.9484,-577.1864 368.7547,-575.3557 386.5149,-573.6269"/>
<polygon fill="#191970" stroke="#191970" points="387.2226,-577.0746 396.8364,-572.6221 386.5444,-570.1075 387.2226,-577.0746"/>
</g>
<!-- Node8 -->
<g id="node8" class="node">
<title>Node8</title>
<g id="a_node8"><a xlink:href="../../d8/db3/classgenfit_1_1Exception.html#a13619975a1e1be5c1bd504b254e01f7a" target="_top" xlink:title="Set fatal flag.">
<polygon fill="none" stroke="#000000" points="639.5,-582.5 639.5,-614.5 747.5,-614.5 747.5,-582.5 639.5,-582.5"/>
<text text-anchor="start" x="647.5" y="-601.5" font-family="FreeSans" font-size="10.00" fill="#000000">genfit::Exception::</text>
<text text-anchor="middle" x="693.5" y="-589.5" font-family="FreeSans" font-size="10.00" fill="#000000">setFatal</text>
</a>
</g>
</g>
<!-- Node7&#45;&gt;Node8 -->
<g id="edge7" class="edge">
<title>Node7&#45;&gt;Node8</title>
<path fill="none" stroke="#191970" d="M537.9677,-575.5355C567.0329,-579.827 600.7919,-584.8115 629.4161,-589.0379"/>
<polygon fill="#191970" stroke="#191970" points="628.9065,-592.5006 639.3106,-590.4989 629.9291,-585.5757 628.9065,-592.5006"/>
</g>
<!-- Node9&#45;&gt;Node8 -->
<g id="edge15" class="edge">
<title>Node9&#45;&gt;Node8</title>
<path fill="none" stroke="#191970" d="M250.9547,-382.6842C268.6412,-407.7407 318.0616,-472.6525 376,-504.5 451.0276,-545.7411 486.2376,-510.6813 564,-546.5 582.1655,-554.8674 582.0119,-564.7578 600,-573.5 609.2766,-578.0084 619.4801,-581.7921 629.6327,-584.9394"/>
<polygon fill="#191970" stroke="#191970" points="628.7391,-588.3246 639.3192,-587.7649 630.6993,-581.6046 628.7391,-588.3246"/>
</g>
<!-- Node10 -->
<g id="node10" class="node">
<title>Node10</title>
<g id="a_node10"><a xlink:href="../../d9/d01/classgenfit_1_1MeasurementFactory.html#a4c9c345ba6ee88d392df28996fff7038" target="_top" xlink:title="Create a collection of Measurements.">
<polygon fill="none" stroke="#000000" points="391,-427.5 391,-459.5 549,-459.5 549,-427.5 391,-427.5"/>
<text text-anchor="start" x="399" y="-446.5" font-family="FreeSans" font-size="10.00" fill="#000000">genfit::MeasurementFactory</text>
<text text-anchor="middle" x="470" y="-434.5" font-family="FreeSans" font-size="10.00" fill="#000000">::createMany</text>
</a>
</g>
</g>
<!-- Node9&#45;&gt;Node10 -->
<g id="edge9" class="edge">
<title>Node9&#45;&gt;Node10</title>
<path fill="none" stroke="#191970" d="M275.9009,-382.522C310.3297,-393.3381 365.9871,-410.8234 408.8935,-424.3028"/>
<polygon fill="#191970" stroke="#191970" points="408.0825,-427.7166 418.6718,-427.3748 410.1806,-421.0384 408.0825,-427.7166"/>
</g>
<!-- Node12 -->
<g id="node12" class="node">
<title>Node12</title>
<g id="a_node12"><a xlink:href="../../d3/da2/classgenfit_1_1TrackCand.html#a1fb7b38c1330027174fd8f428b6df722" target="_top" xlink:title="genfit::TrackCand::\lgetHit">
<polygon fill="none" stroke="#000000" points="638,-531.5 638,-563.5 749,-563.5 749,-531.5 638,-531.5"/>
<text text-anchor="start" x="646" y="-550.5" font-family="FreeSans" font-size="10.00" fill="#000000">genfit::TrackCand::</text>
<text text-anchor="middle" x="693.5" y="-538.5" font-family="FreeSans" font-size="10.00" fill="#000000">getHit</text>
</a>
</g>
</g>
<!-- Node9&#45;&gt;Node12 -->
<g id="edge17" class="edge">
<title>Node9&#45;&gt;Node12</title>
<path fill="none" stroke="#191970" d="M254.6498,-382.7718C275.8963,-402.6717 325.8349,-446.536 376,-469.5 453.9356,-505.1764 480.907,-491.4685 564,-512.5 580.0982,-516.5746 583.9787,-518.133 600,-522.5 609.0239,-524.9597 618.5442,-527.5317 627.9183,-530.0509"/>
<polygon fill="#191970" stroke="#191970" points="627.0419,-533.4394 637.6072,-532.6501 628.8556,-526.6785 627.0419,-533.4394"/>
</g>
<!-- Node14 -->
<g id="node14" class="node">
<title>Node14</title>
<g id="a_node14"><a xlink:href="../../d3/da2/classgenfit_1_1TrackCand.html#a534f583ec510c377579d5c3ddac00e91" target="_top" xlink:title="genfit::TrackCand::\lgetNHits">
<polygon fill="none" stroke="#000000" points="638,-378.5 638,-410.5 749,-410.5 749,-378.5 638,-378.5"/>
<text text-anchor="start" x="646" y="-397.5" font-family="FreeSans" font-size="10.00" fill="#000000">genfit::TrackCand::</text>
<text text-anchor="middle" x="693.5" y="-385.5" font-family="FreeSans" font-size="10.00" fill="#000000">getNHits</text>
</a>
</g>
</g>
<!-- Node9&#45;&gt;Node14 -->
<g id="edge14" class="edge">
<title>Node9&#45;&gt;Node14</title>
<path fill="none" stroke="#191970" d="M340.1532,-377.2061C426.7335,-381.4436 551.6864,-387.5592 627.4687,-391.2682"/>
<polygon fill="#191970" stroke="#191970" points="627.6673,-394.782 637.8264,-391.7752 628.0095,-387.7904 627.6673,-394.782"/>
</g>
<!-- Node15 -->
<g id="node15" class="node">
<title>Node15</title>
<g id="a_node15"><a xlink:href="../../db/d40/classgenfit_1_1TrackPoint.html#a78c0f59b136dc071058b8f78fe4ede05" target="_top" xlink:title="genfit::TrackPoint\l::setSortingParameter">
<polygon fill="none" stroke="#000000" points="406,-334.5 406,-366.5 534,-366.5 534,-334.5 406,-334.5"/>
<text text-anchor="start" x="414" y="-353.5" font-family="FreeSans" font-size="10.00" fill="#000000">genfit::TrackPoint</text>
<text text-anchor="middle" x="470" y="-341.5" font-family="FreeSans" font-size="10.00" fill="#000000">::setSortingParameter</text>
</a>
</g>
</g>
<!-- Node9&#45;&gt;Node15 -->
<g id="edge16" class="edge">
<title>Node9&#45;&gt;Node15</title>
<path fill="none" stroke="#191970" d="M340.1721,-363.1381C358.7515,-361.3295 377.9517,-359.4605 395.7027,-357.7325"/>
<polygon fill="#191970" stroke="#191970" points="396.3573,-361.1854 405.9711,-356.7329 395.679,-354.2183 396.3573,-361.1854"/>
</g>
<!-- Node16 -->
<g id="node16" class="node">
<title>Node16</title>
<g id="a_node16"><a xlink:href="../../da/df3/classgenfit_1_1TrackCandHit.html#a291e18f50e1f99e9e88a85c658a70ee4" target="_top" xlink:title="genfit::TrackCandHit\l::getSortingParameter">
<polygon fill="none" stroke="#000000" points="405.5,-283.5 405.5,-315.5 534.5,-315.5 534.5,-283.5 405.5,-283.5"/>
<text text-anchor="start" x="413.5" y="-302.5" font-family="FreeSans" font-size="10.00" fill="#000000">genfit::TrackCandHit</text>
<text text-anchor="middle" x="470" y="-290.5" font-family="FreeSans" font-size="10.00" fill="#000000">::getSortingParameter</text>
</a>
</g>
</g>
<!-- Node9&#45;&gt;Node16 -->
<g id="edge18" class="edge">
<title>Node9&#45;&gt;Node16</title>
<path fill="none" stroke="#191970" d="M270.357,-362.4815C296.8662,-352.5555 339.0019,-337.1868 376,-325.5 383.6907,-323.0707 391.7738,-320.6453 399.837,-318.3064"/>
<polygon fill="#191970" stroke="#191970" points="400.984,-321.6187 409.6347,-315.502 399.0576,-314.889 400.984,-321.6187"/>
</g>
<!-- Node17 -->
<g id="node17" class="node">
<title>Node17</title>
<g id="a_node17"><a xlink:href="../../d6/d8a/classgenfit_1_1Track.html#a7e61ada0d84db561ede923db92c4ab01" target="_top" xlink:title="Insert TrackPoint BEFORE TrackPoint with position id, if id &gt;= 0.">
<polygon fill="none" stroke="#000000" points="400,-243.5 400,-263.5 540,-263.5 540,-243.5 400,-243.5"/>
<text text-anchor="middle" x="470" y="-250.5" font-family="FreeSans" font-size="10.00" fill="#000000">genfit::Track::insertPoint</text>
</a>
</g>
</g>
<!-- Node9&#45;&gt;Node17 -->
<g id="edge19" class="edge">
<title>Node9&#45;&gt;Node17</title>
<path fill="none" stroke="#191970" d="M254.2921,-362.4043C275.2935,-342.3993 325.3916,-297.662 376,-274.5 382.8719,-271.3549 390.2472,-268.6658 397.734,-266.3697"/>
<polygon fill="#191970" stroke="#191970" points="398.9402,-269.6658 407.6074,-263.5723 397.032,-262.9309 398.9402,-269.6658"/>
</g>
<!-- Node11 -->
<g id="node11" class="node">
<title>Node11</title>
<g id="a_node11"><a xlink:href="../../da/df3/classgenfit_1_1TrackCandHit.html#abd3f233380e6f805124f878b8c7d88ea" target="_top" xlink:title="genfit::TrackCandHit\l::getDetId">
<polygon fill="none" stroke="#000000" points="633.5,-480.5 633.5,-512.5 753.5,-512.5 753.5,-480.5 633.5,-480.5"/>
<text text-anchor="start" x="641.5" y="-499.5" font-family="FreeSans" font-size="10.00" fill="#000000">genfit::TrackCandHit</text>
<text text-anchor="middle" x="693.5" y="-487.5" font-family="FreeSans" font-size="10.00" fill="#000000">::getDetId</text>
</a>
</g>
</g>
<!-- Node10&#45;&gt;Node11 -->
<g id="edge10" class="edge">
<title>Node10&#45;&gt;Node11</title>
<path fill="none" stroke="#191970" d="M537.6639,-459.5456C564.7832,-465.9766 596.0279,-473.3858 623.3873,-479.8737"/>
<polygon fill="#191970" stroke="#191970" points="622.7387,-483.3169 633.2765,-482.2188 624.3539,-476.5058 622.7387,-483.3169"/>
</g>
<!-- Node10&#45;&gt;Node12 -->
<g id="edge11" class="edge">
<title>Node10&#45;&gt;Node12</title>
<path fill="none" stroke="#191970" d="M536.2039,-459.6115C546.014,-463.5863 555.6262,-468.4848 564,-474.5 585.658,-490.0577 577.9053,-507.569 600,-522.5 608.5457,-528.275 618.3689,-532.7179 628.3656,-536.1355"/>
<polygon fill="#191970" stroke="#191970" points="627.3794,-539.494 637.9672,-539.108 629.4496,-532.8071 627.3794,-539.494"/>
</g>
<!-- Node13 -->
<g id="node13" class="node">
<title>Node13</title>
<g id="a_node13"><a xlink:href="../../da/df3/classgenfit_1_1TrackCandHit.html#a64a7dbfe54ddf6d9098a33ace50aba7a" target="_top" xlink:title="genfit::TrackCandHit\l::getHitId">
<polygon fill="none" stroke="#000000" points="633.5,-429.5 633.5,-461.5 753.5,-461.5 753.5,-429.5 633.5,-429.5"/>
<text text-anchor="start" x="641.5" y="-448.5" font-family="FreeSans" font-size="10.00" fill="#000000">genfit::TrackCandHit</text>
<text text-anchor="middle" x="693.5" y="-436.5" font-family="FreeSans" font-size="10.00" fill="#000000">::getHitId</text>
</a>
</g>
</g>
<!-- Node10&#45;&gt;Node13 -->
<g id="edge12" class="edge">
<title>Node10&#45;&gt;Node13</title>
<path fill="none" stroke="#191970" d="M549.1123,-444.2079C573.2868,-444.4243 599.695,-444.6606 623.2395,-444.8713"/>
<polygon fill="#191970" stroke="#191970" points="623.4563,-448.3733 633.4873,-444.963 623.519,-441.3735 623.4563,-448.3733"/>
</g>
<!-- Node10&#45;&gt;Node14 -->
<g id="edge13" class="edge">
<title>Node10&#45;&gt;Node14</title>
<path fill="none" stroke="#191970" d="M543.1823,-427.4556C570.5009,-421.4662 601.3245,-414.7085 627.9165,-408.8785"/>
<polygon fill="#191970" stroke="#191970" points="628.8664,-412.2535 637.8848,-406.693 627.3672,-405.4158 628.8664,-412.2535"/>
</g>
<!-- Node18 -->
<g id="node18" class="node">
<title>Node18</title>
<g id="a_node18"><a xlink:href="../../db/d40/classgenfit_1_1TrackPoint.html#a70f6a8e9214edad4fce38eafeeee820e" target="_top" xlink:title="genfit::TrackPoint\l::setTrack">
<polygon fill="none" stroke="#000000" points="641.5,-327.5 641.5,-359.5 745.5,-359.5 745.5,-327.5 641.5,-327.5"/>
<text text-anchor="start" x="649.5" y="-346.5" font-family="FreeSans" font-size="10.00" fill="#000000">genfit::TrackPoint</text>
<text text-anchor="middle" x="693.5" y="-334.5" font-family="FreeSans" font-size="10.00" fill="#000000">::setTrack</text>
</a>
</g>
</g>
<!-- Node17&#45;&gt;Node18 -->
<g id="edge20" class="edge">
<title>Node17&#45;&gt;Node18</title>
<path fill="none" stroke="#191970" d="M538.0544,-263.6147C547.1002,-266.4035 556.001,-269.9613 564,-274.5 584.2342,-285.981 580.3671,-300.0187 600,-312.5 609.7112,-318.6737 620.7771,-323.7437 631.8145,-327.8637"/>
<polygon fill="#191970" stroke="#191970" points="630.8772,-331.2437 641.4721,-331.2435 633.1896,-324.6367 630.8772,-331.2437"/>
</g>
<!-- Node19 -->
<g id="node19" class="node">
<title>Node19</title>
<g id="a_node19"><a xlink:href="../../d6/d8a/classgenfit_1_1Track.html#ad4ead0ee2abc2bcb6b616f8976bc559a" target="_top" xlink:title="genfit::Track::trackHasChanged">
<polygon fill="none" stroke="#000000" points="823,-178.5 823,-198.5 998,-198.5 998,-178.5 823,-178.5"/>
<text text-anchor="middle" x="910.5" y="-185.5" font-family="FreeSans" font-size="10.00" fill="#000000">genfit::Track::trackHasChanged</text>
</a>
</g>
</g>
<!-- Node17&#45;&gt;Node19 -->
<g id="edge21" class="edge">
<title>Node17&#45;&gt;Node19</title>
<path fill="none" stroke="#191970" d="M515.3561,-263.5584C546.0556,-270.1761 583.8524,-277.9011 600,-279.5 682.7066,-287.6896 708.0432,-305.4477 787,-279.5 830.9418,-265.0593 872.1018,-228.3306 894.0309,-206.2006"/>
<polygon fill="#191970" stroke="#191970" points="896.7745,-208.3982 901.2094,-198.7763 891.7421,-203.5325 896.7745,-208.3982"/>
</g>
<!-- Node20 -->
<g id="node20" class="node">
<title>Node20</title>
<g id="a_node20"><a xlink:href="../../db/d40/classgenfit_1_1TrackPoint.html#ada7b4d8c988a1798e455fb70929f88b7" target="_top" xlink:title="genfit::TrackPoint\l::hasRawMeasurements">
<polygon fill="none" stroke="#000000" points="625,-237.5 625,-269.5 762,-269.5 762,-237.5 625,-237.5"/>
<text text-anchor="start" x="633" y="-256.5" font-family="FreeSans" font-size="10.00" fill="#000000">genfit::TrackPoint</text>
<text text-anchor="middle" x="693.5" y="-244.5" font-family="FreeSans" font-size="10.00" fill="#000000">::hasRawMeasurements</text>
</a>
</g>
</g>
<!-- Node17&#45;&gt;Node20 -->
<g id="edge22" class="edge">
<title>Node17&#45;&gt;Node20</title>
<path fill="none" stroke="#191970" d="M540.1036,-253.5C563.7389,-253.5 590.2747,-253.5 614.5458,-253.5"/>
<polygon fill="#191970" stroke="#191970" points="614.794,-257.0001 624.794,-253.5 614.794,-250.0001 614.794,-257.0001"/>
</g>
<!-- Node21 -->
<g id="node21" class="node">
<title>Node21</title>
<g id="a_node21"><a xlink:href="../../d6/d8a/classgenfit_1_1Track.html#aef6313a66e86853f9eef2e38f519bc37" target="_top" xlink:title="genfit::Track::deleteReferenceInfo">
<polygon fill="none" stroke="#000000" points="600,-198.5 600,-218.5 787,-218.5 787,-198.5 600,-198.5"/>
<text text-anchor="middle" x="693.5" y="-205.5" font-family="FreeSans" font-size="10.00" fill="#000000">genfit::Track::deleteReferenceInfo</text>
</a>
</g>
</g>
<!-- Node17&#45;&gt;Node21 -->
<g id="edge23" class="edge">
<title>Node17&#45;&gt;Node21</title>
<path fill="none" stroke="#191970" d="M519.8796,-243.4571C553.4858,-236.6908 597.9927,-227.7297 633.5302,-220.5745"/>
<polygon fill="#191970" stroke="#191970" points="634.6605,-223.9172 643.7729,-218.5122 633.2788,-217.0549 634.6605,-223.9172"/>
</g>
<!-- Node22 -->
<g id="node22" class="node">
<title>Node22</title>
<g id="a_node22"><a xlink:href="../../d6/d8a/classgenfit_1_1Track.html#ad6ac9e44842a18fbba2577a887f008c5" target="_top" xlink:title="genfit::Track::deleteForwardInfo">
<polygon fill="none" stroke="#000000" points="605,-159.5 605,-179.5 782,-179.5 782,-159.5 605,-159.5"/>
<text text-anchor="middle" x="693.5" y="-166.5" font-family="FreeSans" font-size="10.00" fill="#000000">genfit::Track::deleteForwardInfo</text>
</a>
</g>
</g>
<!-- Node17&#45;&gt;Node22 -->
<g id="edge25" class="edge">
<title>Node17&#45;&gt;Node22</title>
<path fill="none" stroke="#191970" d="M528.8138,-243.4462C540.9883,-239.8603 553.3399,-235.0205 564,-228.5 584.4033,-216.0198 579.2347,-200.3682 600,-188.5 603.4605,-186.5222 607.0965,-184.7483 610.8445,-183.1575"/>
<polygon fill="#191970" stroke="#191970" points="612.2351,-186.3738 620.3553,-179.5685 609.7636,-179.8246 612.2351,-186.3738"/>
</g>
<!-- Node23 -->
<g id="node23" class="node">
<title>Node23</title>
<g id="a_node23"><a xlink:href="../../d6/d8a/classgenfit_1_1Track.html#a409abb47dc8fb5134031f8af1ce9b44a" target="_top" xlink:title="genfit::Track::deleteBackwardInfo">
<polygon fill="none" stroke="#000000" points="600.5,-120.5 600.5,-140.5 786.5,-140.5 786.5,-120.5 600.5,-120.5"/>
<text text-anchor="middle" x="693.5" y="-127.5" font-family="FreeSans" font-size="10.00" fill="#000000">genfit::Track::deleteBackwardInfo</text>
</a>
</g>
</g>
<!-- Node17&#45;&gt;Node23 -->
<g id="edge27" class="edge">
<title>Node17&#45;&gt;Node23</title>
<path fill="none" stroke="#191970" d="M537.3201,-243.4761C546.9859,-239.8868 556.2609,-235.0395 564,-228.5 593.4721,-203.5964 569.8007,-173.5165 600,-149.5 601.7907,-148.0759 603.6604,-146.7502 605.5953,-145.5163"/>
<polygon fill="#191970" stroke="#191970" points="607.3575,-148.5419 614.4542,-140.6751 604.0006,-142.3993 607.3575,-148.5419"/>
</g>
<!-- Node17&#45;&gt;Node24 -->
<g id="edge29" class="edge">
<title>Node17&#45;&gt;Node24</title>
<path fill="none" stroke="#191970" d="M540.0104,-243.586C548.8665,-239.9538 557.1933,-235.0648 564,-228.5 603.4661,-190.4363 560.5591,-148.5899 600,-110.5 605.6939,-105.0011 612.4585,-100.6794 619.7069,-97.2879"/>
<polygon fill="#191970" stroke="#191970" points="621.1554,-100.4774 629.1027,-93.4709 618.5207,-93.9921 621.1554,-100.4774"/>
</g>
<!-- Node21&#45;&gt;Node19 -->
<g id="edge24" class="edge">
<title>Node21&#45;&gt;Node19</title>
<path fill="none" stroke="#191970" d="M787.102,-199.8731C795.5017,-199.0989 804.0229,-198.3136 812.4589,-197.536"/>
<polygon fill="#191970" stroke="#191970" points="813.0564,-200.9959 822.6929,-196.5928 812.4139,-194.0254 813.0564,-200.9959"/>
</g>
<!-- Node22&#45;&gt;Node19 -->
<g id="edge26" class="edge">
<title>Node22&#45;&gt;Node19</title>
<path fill="none" stroke="#191970" d="M782.0752,-177.2554C792.1831,-178.1405 802.5299,-179.0464 812.7483,-179.9411"/>
<polygon fill="#191970" stroke="#191970" points="812.6431,-183.4452 822.9103,-180.8309 813.2537,-176.4719 812.6431,-183.4452"/>
</g>
<!-- Node23&#45;&gt;Node19 -->
<g id="edge28" class="edge">
<title>Node23&#45;&gt;Node19</title>
<path fill="none" stroke="#191970" d="M748.1075,-140.5894C760.9256,-143.2357 774.4916,-146.2637 787,-149.5 815.8892,-156.9745 848.0165,-167.1807 872.2604,-175.2774"/>
<polygon fill="#191970" stroke="#191970" points="871.209,-178.6165 881.8031,-178.4913 873.4433,-171.9826 871.209,-178.6165"/>
</g>
</g>
</svg>
