<?xml version="1.0" encoding="UTF-8" standalone="no"?>
<!DOCTYPE svg PUBLIC "-//W3C//DTD SVG 1.1//EN"
 "http://www.w3.org/Graphics/SVG/1.1/DTD/svg11.dtd">
<!-- Generated by graphviz version 2.40.1 (20161225.0304)
 -->
<!-- Title: genfit::Track::createMeasurements Pages: 1 -->
<svg width="828pt" height="503pt"
 viewBox="0.00 0.00 828.00 503.00" xmlns="http://www.w3.org/2000/svg" xmlns:xlink="http://www.w3.org/1999/xlink">
<g id="graph0" class="graph" transform="scale(1 1) rotate(0) translate(4 499)">
<title>genfit::Track::createMeasurements</title>
<!-- Node1 -->
<g id="node1" class="node">
<title>Node1</title>
<polygon fill="#bfbfbf" stroke="#000000" points="0,-250.5 0,-270.5 192,-270.5 192,-250.5 0,-250.5"/>
<text text-anchor="middle" x="96" y="-257.5" font-family="FreeSans" font-size="10.00" fill="#000000">genfit::Track::createMeasurements</text>
</g>
<!-- Node2 -->
<g id="node2" class="node">
<title>Node2</title>
<g id="a_node2"><a xlink:href="../../d9/d01/classgenfit_1_1MeasurementFactory.html#a4c9c345ba6ee88d392df28996fff7038" target="_top" xlink:title="Create a collection of Measurements.">
<polygon fill="none" stroke="#000000" points="228,-360.5 228,-392.5 386,-392.5 386,-360.5 228,-360.5"/>
<text text-anchor="start" x="236" y="-379.5" font-family="FreeSans" font-size="10.00" fill="#000000">genfit::MeasurementFactory</text>
<text text-anchor="middle" x="307" y="-367.5" font-family="FreeSans" font-size="10.00" fill="#000000">::createMany</text>
</a>
</g>
</g>
<!-- Node1&#45;&gt;Node2 -->
<g id="edge1" class="edge">
<title>Node1&#45;&gt;Node2</title>
<path fill="none" stroke="#191970" d="M114.3558,-270.5913C148.6871,-289.4654 223.2596,-330.4626 268.8944,-355.5509"/>
<polygon fill="#191970" stroke="#191970" points="267.4423,-358.7467 277.8915,-360.4972 270.8147,-352.6125 267.4423,-358.7467"/>
</g>
<!-- Node4 -->
<g id="node4" class="node">
<title>Node4</title>
<g id="a_node4"><a xlink:href="../../d3/da2/classgenfit_1_1TrackCand.html#a1fb7b38c1330027174fd8f428b6df722" target="_top" xlink:title="genfit::TrackCand::\lgetHit">
<polygon fill="none" stroke="#000000" points="460,-462.5 460,-494.5 571,-494.5 571,-462.5 460,-462.5"/>
<text text-anchor="start" x="468" y="-481.5" font-family="FreeSans" font-size="10.00" fill="#000000">genfit::TrackCand::</text>
<text text-anchor="middle" x="515.5" y="-469.5" font-family="FreeSans" font-size="10.00" fill="#000000">getHit</text>
</a>
</g>
</g>
<!-- Node1&#45;&gt;Node4 -->
<g id="edge6" class="edge">
<title>Node1&#45;&gt;Node4</title>
<path fill="none" stroke="#191970" d="M102.3339,-270.5539C119.2982,-296.6228 168.5341,-366.8416 228,-402.5 296.9577,-443.85 388.4175,-463.0164 449.4793,-471.6867"/>
<polygon fill="#191970" stroke="#191970" points="449.3802,-475.2055 459.7613,-473.0883 450.3258,-468.2696 449.3802,-475.2055"/>
</g>
<!-- Node6 -->
<g id="node6" class="node">
<title>Node6</title>
<g id="a_node6"><a xlink:href="../../d3/da2/classgenfit_1_1TrackCand.html#a534f583ec510c377579d5c3ddac00e91" target="_top" xlink:title="genfit::TrackCand::\lgetNHits">
<polygon fill="none" stroke="#000000" points="460,-309.5 460,-341.5 571,-341.5 571,-309.5 460,-309.5"/>
<text text-anchor="start" x="468" y="-328.5" font-family="FreeSans" font-size="10.00" fill="#000000">genfit::TrackCand::</text>
<text text-anchor="middle" x="515.5" y="-316.5" font-family="FreeSans" font-size="10.00" fill="#000000">getNHits</text>
</a>
</g>
</g>
<!-- Node1&#45;&gt;Node6 -->
<g id="edge7" class="edge">
<title>Node1&#45;&gt;Node6</title>
<path fill="none" stroke="#191970" d="M143.224,-270.5112C168.3369,-275.6552 199.7747,-281.8101 228,-286.5 303.8198,-299.0981 391.3962,-310.5337 449.7775,-317.7169"/>
<polygon fill="#191970" stroke="#191970" points="449.6176,-321.2234 459.9687,-318.9641 450.468,-314.2752 449.6176,-321.2234"/>
</g>
<!-- Node7 -->
<g id="node7" class="node">
<title>Node7</title>
<g id="a_node7"><a xlink:href="../../da/df3/classgenfit_1_1TrackCandHit.html#a291e18f50e1f99e9e88a85c658a70ee4" target="_top" xlink:title="genfit::TrackCandHit\l::getSortingParameter">
<polygon fill="none" stroke="#000000" points="242.5,-244.5 242.5,-276.5 371.5,-276.5 371.5,-244.5 242.5,-244.5"/>
<text text-anchor="start" x="250.5" y="-263.5" font-family="FreeSans" font-size="10.00" fill="#000000">genfit::TrackCandHit</text>
<text text-anchor="middle" x="307" y="-251.5" font-family="FreeSans" font-size="10.00" fill="#000000">::getSortingParameter</text>
</a>
</g>
</g>
<!-- Node1&#45;&gt;Node7 -->
<g id="edge8" class="edge">
<title>Node1&#45;&gt;Node7</title>
<path fill="none" stroke="#191970" d="M192.2382,-260.5C205.6172,-260.5 219.1964,-260.5 232.1062,-260.5"/>
<polygon fill="#191970" stroke="#191970" points="232.2996,-264.0001 242.2995,-260.5 232.2995,-257.0001 232.2996,-264.0001"/>
</g>
<!-- Node8 -->
<g id="node8" class="node">
<title>Node8</title>
<g id="a_node8"><a xlink:href="../../d6/d8a/classgenfit_1_1Track.html#a7e61ada0d84db561ede923db92c4ab01" target="_top" xlink:title="Insert TrackPoint BEFORE TrackPoint with position id, if id &gt;= 0.">
<polygon fill="none" stroke="#000000" points="237,-180.5 237,-200.5 377,-200.5 377,-180.5 237,-180.5"/>
<text text-anchor="middle" x="307" y="-187.5" font-family="FreeSans" font-size="10.00" fill="#000000">genfit::Track::insertPoint</text>
</a>
</g>
</g>
<!-- Node1&#45;&gt;Node8 -->
<g id="edge9" class="edge">
<title>Node1&#45;&gt;Node8</title>
<path fill="none" stroke="#191970" d="M126.2312,-250.4707C163.2869,-238.1773 226.1929,-217.3081 267.1644,-203.7156"/>
<polygon fill="#191970" stroke="#191970" points="268.4357,-206.9815 276.8249,-200.5107 266.2315,-200.3376 268.4357,-206.9815"/>
</g>
<!-- Node16 -->
<g id="node16" class="node">
<title>Node16</title>
<g id="a_node16"><a xlink:href="../../d8/db3/classgenfit_1_1Exception.html#a13619975a1e1be5c1bd504b254e01f7a" target="_top" xlink:title="Set fatal flag.">
<polygon fill="none" stroke="#000000" points="253,-129.5 253,-161.5 361,-161.5 361,-129.5 253,-129.5"/>
<text text-anchor="start" x="261" y="-148.5" font-family="FreeSans" font-size="10.00" fill="#000000">genfit::Exception::</text>
<text text-anchor="middle" x="307" y="-136.5" font-family="FreeSans" font-size="10.00" fill="#000000">setFatal</text>
</a>
</g>
</g>
<!-- Node1&#45;&gt;Node16 -->
<g id="edge20" class="edge">
<title>Node1&#45;&gt;Node16</title>
<path fill="none" stroke="#191970" d="M108.3937,-250.4108C130.973,-232.4389 180.8421,-194.6058 228,-171.5 232.8623,-169.1176 237.9953,-166.8753 243.2153,-164.7831"/>
<polygon fill="#191970" stroke="#191970" points="244.5677,-168.0134 252.6656,-161.1816 242.0748,-161.4723 244.5677,-168.0134"/>
</g>
<!-- Node17 -->
<g id="node17" class="node">
<title>Node17</title>
<g id="a_node17"><a xlink:href="../../db/d40/classgenfit_1_1TrackPoint.html#a78c0f59b136dc071058b8f78fe4ede05" target="_top" xlink:title="genfit::TrackPoint\l::setSortingParameter">
<polygon fill="none" stroke="#000000" points="243,-78.5 243,-110.5 371,-110.5 371,-78.5 243,-78.5"/>
<text text-anchor="start" x="251" y="-97.5" font-family="FreeSans" font-size="10.00" fill="#000000">genfit::TrackPoint</text>
<text text-anchor="middle" x="307" y="-85.5" font-family="FreeSans" font-size="10.00" fill="#000000">::setSortingParameter</text>
</a>
</g>
</g>
<!-- Node1&#45;&gt;Node17 -->
<g id="edge21" class="edge">
<title>Node1&#45;&gt;Node17</title>
<path fill="none" stroke="#191970" d="M102.7486,-250.4199C120.3299,-224.9159 170.2118,-157.2455 228,-120.5 231.1717,-118.4832 234.5153,-116.6077 237.9629,-114.8657"/>
<polygon fill="#191970" stroke="#191970" points="239.6741,-117.9307 247.2855,-110.5606 236.7394,-111.5756 239.6741,-117.9307"/>
</g>
<!-- Node3 -->
<g id="node3" class="node">
<title>Node3</title>
<g id="a_node3"><a xlink:href="../../da/df3/classgenfit_1_1TrackCandHit.html#abd3f233380e6f805124f878b8c7d88ea" target="_top" xlink:title="genfit::TrackCandHit\l::getDetId">
<polygon fill="none" stroke="#000000" points="455.5,-411.5 455.5,-443.5 575.5,-443.5 575.5,-411.5 455.5,-411.5"/>
<text text-anchor="start" x="463.5" y="-430.5" font-family="FreeSans" font-size="10.00" fill="#000000">genfit::TrackCandHit</text>
<text text-anchor="middle" x="515.5" y="-418.5" font-family="FreeSans" font-size="10.00" fill="#000000">::getDetId</text>
</a>
</g>
</g>
<!-- Node2&#45;&gt;Node3 -->
<g id="edge2" class="edge">
<title>Node2&#45;&gt;Node3</title>
<path fill="none" stroke="#191970" d="M372.6845,-392.5667C395.8714,-398.2383 422.0212,-404.6347 445.5482,-410.3895"/>
<polygon fill="#191970" stroke="#191970" points="444.9091,-413.8363 455.4543,-412.8126 446.5723,-407.0367 444.9091,-413.8363"/>
</g>
<!-- Node2&#45;&gt;Node4 -->
<g id="edge3" class="edge">
<title>Node2&#45;&gt;Node4</title>
<path fill="none" stroke="#191970" d="M326.5752,-392.5663C348.5562,-409.8749 385.8921,-437.1304 422,-453.5 430.7458,-457.4649 440.2464,-460.9055 449.7288,-463.8582"/>
<polygon fill="#191970" stroke="#191970" points="448.9901,-467.2892 459.5717,-466.7601 450.9697,-460.575 448.9901,-467.2892"/>
</g>
<!-- Node5 -->
<g id="node5" class="node">
<title>Node5</title>
<g id="a_node5"><a xlink:href="../../da/df3/classgenfit_1_1TrackCandHit.html#a64a7dbfe54ddf6d9098a33ace50aba7a" target="_top" xlink:title="genfit::TrackCandHit\l::getHitId">
<polygon fill="none" stroke="#000000" points="455.5,-360.5 455.5,-392.5 575.5,-392.5 575.5,-360.5 455.5,-360.5"/>
<text text-anchor="start" x="463.5" y="-379.5" font-family="FreeSans" font-size="10.00" fill="#000000">genfit::TrackCandHit</text>
<text text-anchor="middle" x="515.5" y="-367.5" font-family="FreeSans" font-size="10.00" fill="#000000">::getHitId</text>
</a>
</g>
</g>
<!-- Node2&#45;&gt;Node5 -->
<g id="edge4" class="edge">
<title>Node2&#45;&gt;Node5</title>
<path fill="none" stroke="#191970" d="M386.1222,-376.5C405.5548,-376.5 426.226,-376.5 445.2104,-376.5"/>
<polygon fill="#191970" stroke="#191970" points="445.2659,-380.0001 455.2659,-376.5 445.2658,-373.0001 445.2659,-380.0001"/>
</g>
<!-- Node2&#45;&gt;Node6 -->
<g id="edge5" class="edge">
<title>Node2&#45;&gt;Node6</title>
<path fill="none" stroke="#191970" d="M372.6845,-360.4333C397.3388,-354.4028 425.3428,-347.5528 449.9819,-341.526"/>
<polygon fill="#191970" stroke="#191970" points="451.0749,-344.8619 459.9569,-339.0861 449.4117,-338.0624 451.0749,-344.8619"/>
</g>
<!-- Node9 -->
<g id="node9" class="node">
<title>Node9</title>
<g id="a_node9"><a xlink:href="../../db/d40/classgenfit_1_1TrackPoint.html#a70f6a8e9214edad4fce38eafeeee820e" target="_top" xlink:title="genfit::TrackPoint\l::setTrack">
<polygon fill="none" stroke="#000000" points="463.5,-258.5 463.5,-290.5 567.5,-290.5 567.5,-258.5 463.5,-258.5"/>
<text text-anchor="start" x="471.5" y="-277.5" font-family="FreeSans" font-size="10.00" fill="#000000">genfit::TrackPoint</text>
<text text-anchor="middle" x="515.5" y="-265.5" font-family="FreeSans" font-size="10.00" fill="#000000">::setTrack</text>
</a>
</g>
</g>
<!-- Node8&#45;&gt;Node9 -->
<g id="edge10" class="edge">
<title>Node8&#45;&gt;Node9</title>
<path fill="none" stroke="#191970" d="M327.061,-200.5772C349.7794,-211.793 388.0566,-230.0997 422,-243.5 432.2301,-247.5387 443.2211,-251.5046 453.9451,-255.1795"/>
<polygon fill="#191970" stroke="#191970" points="453.095,-258.5864 463.6891,-258.4663 455.3324,-251.9536 453.095,-258.5864"/>
</g>
<!-- Node10 -->
<g id="node10" class="node">
<title>Node10</title>
<g id="a_node10"><a xlink:href="../../d6/d8a/classgenfit_1_1Track.html#ad4ead0ee2abc2bcb6b616f8976bc559a" target="_top" xlink:title="genfit::Track::trackHasChanged">
<polygon fill="none" stroke="#000000" points="645,-109.5 645,-129.5 820,-129.5 820,-109.5 645,-109.5"/>
<text text-anchor="middle" x="732.5" y="-116.5" font-family="FreeSans" font-size="10.00" fill="#000000">genfit::Track::trackHasChanged</text>
</a>
</g>
</g>
<!-- Node8&#45;&gt;Node10 -->
<g id="edge11" class="edge">
<title>Node8&#45;&gt;Node10</title>
<path fill="none" stroke="#191970" d="M339.7397,-200.5119C396.2729,-216.0983 515.1525,-241.3413 609,-210.5 652.9418,-196.0593 694.1018,-159.3306 716.0309,-137.2006"/>
<polygon fill="#191970" stroke="#191970" points="718.7745,-139.3982 723.2094,-129.7763 713.7421,-134.5325 718.7745,-139.3982"/>
</g>
<!-- Node11 -->
<g id="node11" class="node">
<title>Node11</title>
<g id="a_node11"><a xlink:href="../../db/d40/classgenfit_1_1TrackPoint.html#ada7b4d8c988a1798e455fb70929f88b7" target="_top" xlink:title="genfit::TrackPoint\l::hasRawMeasurements">
<polygon fill="none" stroke="#000000" points="447,-168.5 447,-200.5 584,-200.5 584,-168.5 447,-168.5"/>
<text text-anchor="start" x="455" y="-187.5" font-family="FreeSans" font-size="10.00" fill="#000000">genfit::TrackPoint</text>
<text text-anchor="middle" x="515.5" y="-175.5" font-family="FreeSans" font-size="10.00" fill="#000000">::hasRawMeasurements</text>
</a>
</g>
</g>
<!-- Node8&#45;&gt;Node11 -->
<g id="edge12" class="edge">
<title>Node8&#45;&gt;Node11</title>
<path fill="none" stroke="#191970" d="M377.0075,-188.4854C396.1487,-187.9346 417.0224,-187.3339 436.6222,-186.7699"/>
<polygon fill="#191970" stroke="#191970" points="436.8444,-190.265 446.7396,-186.4787 436.643,-183.2679 436.8444,-190.265"/>
</g>
<!-- Node12 -->
<g id="node12" class="node">
<title>Node12</title>
<g id="a_node12"><a xlink:href="../../d6/d8a/classgenfit_1_1Track.html#aef6313a66e86853f9eef2e38f519bc37" target="_top" xlink:title="genfit::Track::deleteReferenceInfo">
<polygon fill="none" stroke="#000000" points="422,-129.5 422,-149.5 609,-149.5 609,-129.5 422,-129.5"/>
<text text-anchor="middle" x="515.5" y="-136.5" font-family="FreeSans" font-size="10.00" fill="#000000">genfit::Track::deleteReferenceInfo</text>
</a>
</g>
</g>
<!-- Node8&#45;&gt;Node12 -->
<g id="edge13" class="edge">
<title>Node8&#45;&gt;Node12</title>
<path fill="none" stroke="#191970" d="M351.8787,-180.4124C363.073,-177.7026 375.0153,-174.6455 386,-171.5 402.2138,-166.8572 405.7287,-163.9374 422,-159.5 432.0732,-156.7529 442.8408,-154.1484 453.3535,-151.7822"/>
<polygon fill="#191970" stroke="#191970" points="454.3086,-155.1559 463.3235,-149.5897 452.8052,-148.3192 454.3086,-155.1559"/>
</g>
<!-- Node13 -->
<g id="node13" class="node">
<title>Node13</title>
<g id="a_node13"><a xlink:href="../../d6/d8a/classgenfit_1_1Track.html#ad6ac9e44842a18fbba2577a887f008c5" target="_top" xlink:title="genfit::Track::deleteForwardInfo">
<polygon fill="none" stroke="#000000" points="427,-90.5 427,-110.5 604,-110.5 604,-90.5 427,-90.5"/>
<text text-anchor="middle" x="515.5" y="-97.5" font-family="FreeSans" font-size="10.00" fill="#000000">genfit::Track::deleteForwardInfo</text>
</a>
</g>
</g>
<!-- Node8&#45;&gt;Node13 -->
<g id="edge15" class="edge">
<title>Node8&#45;&gt;Node13</title>
<path fill="none" stroke="#191970" d="M368.4241,-180.474C374.6393,-178.0901 380.6301,-175.1429 386,-171.5 408.9601,-155.924 398.8448,-135.7844 422,-120.5 425.3336,-118.2996 428.8666,-116.3361 432.532,-114.5844"/>
<polygon fill="#191970" stroke="#191970" points="434.0177,-117.7566 441.8779,-110.6525 431.3031,-111.3043 434.0177,-117.7566"/>
</g>
<!-- Node14 -->
<g id="node14" class="node">
<title>Node14</title>
<g id="a_node14"><a xlink:href="../../d6/d8a/classgenfit_1_1Track.html#a409abb47dc8fb5134031f8af1ce9b44a" target="_top" xlink:title="genfit::Track::deleteBackwardInfo">
<polygon fill="none" stroke="#000000" points="422.5,-51.5 422.5,-71.5 608.5,-71.5 608.5,-51.5 422.5,-51.5"/>
<text text-anchor="middle" x="515.5" y="-58.5" font-family="FreeSans" font-size="10.00" fill="#000000">genfit::Track::deleteBackwardInfo</text>
</a>
</g>
</g>
<!-- Node8&#45;&gt;Node14 -->
<g id="edge17" class="edge">
<title>Node8&#45;&gt;Node14</title>
<path fill="none" stroke="#191970" d="M372.0894,-180.4469C377.1127,-178.0427 381.8392,-175.0992 386,-171.5 418.5824,-143.3151 389.0637,-109.2705 422,-81.5 424.0543,-79.7679 426.2227,-78.1748 428.4825,-76.7102"/>
<polygon fill="#191970" stroke="#191970" points="430.5406,-79.572 437.604,-71.6752 427.1578,-73.4437 430.5406,-79.572"/>
</g>
<!-- Node15 -->
<g id="node15" class="node">
<title>Node15</title>
<g id="a_node15"><a xlink:href="../../d6/d8a/classgenfit_1_1Track.html#aebe51cd12b541bb8821c1b919480371d" target="_top" xlink:title="genfit::Track::fillPoints\lWithMeasurement">
<polygon fill="none" stroke="#000000" points="451.5,-.5 451.5,-32.5 579.5,-32.5 579.5,-.5 451.5,-.5"/>
<text text-anchor="start" x="459.5" y="-19.5" font-family="FreeSans" font-size="10.00" fill="#000000">genfit::Track::fillPoints</text>
<text text-anchor="middle" x="515.5" y="-7.5" font-family="FreeSans" font-size="10.00" fill="#000000">WithMeasurement</text>
</a>
</g>
</g>
<!-- Node8&#45;&gt;Node15 -->
<g id="edge19" class="edge">
<title>Node8&#45;&gt;Node15</title>
<path fill="none" stroke="#191970" d="M373.6543,-180.3324C378.1554,-177.9351 382.3448,-175.0255 386,-171.5 428.8431,-130.1772 379.8907,-84.5704 422,-42.5 427.6989,-36.8064 434.5305,-32.3326 441.873,-28.8216"/>
<polygon fill="#191970" stroke="#191970" points="443.5039,-31.9343 451.3998,-24.8699 440.8219,-25.4685 443.5039,-31.9343"/>
</g>
<!-- Node12&#45;&gt;Node10 -->
<g id="edge14" class="edge">
<title>Node12&#45;&gt;Node10</title>
<path fill="none" stroke="#191970" d="M609.102,-130.8731C617.5017,-130.0989 626.0229,-129.3136 634.4589,-128.536"/>
<polygon fill="#191970" stroke="#191970" points="635.0564,-131.9959 644.6929,-127.5928 634.4139,-125.0254 635.0564,-131.9959"/>
</g>
<!-- Node13&#45;&gt;Node10 -->
<g id="edge16" class="edge">
<title>Node13&#45;&gt;Node10</title>
<path fill="none" stroke="#191970" d="M604.0752,-108.2554C614.1831,-109.1405 624.5299,-110.0464 634.7483,-110.9411"/>
<polygon fill="#191970" stroke="#191970" points="634.6431,-114.4452 644.9103,-111.8309 635.2537,-107.4719 634.6431,-114.4452"/>
</g>
<!-- Node14&#45;&gt;Node10 -->
<g id="edge18" class="edge">
<title>Node14&#45;&gt;Node10</title>
<path fill="none" stroke="#191970" d="M566.6436,-71.5925C580.4499,-74.5474 595.345,-77.9461 609,-81.5 637.1141,-88.817 668.3875,-98.4553 692.4297,-106.1939"/>
<polygon fill="#191970" stroke="#191970" points="691.6684,-109.6264 702.2605,-109.3818 693.8278,-102.9678 691.6684,-109.6264"/>
</g>
</g>
</svg>
