<?xml version="1.0" encoding="UTF-8" standalone="no"?>
<!DOCTYPE svg PUBLIC "-//W3C//DTD SVG 1.1//EN"
 "http://www.w3.org/Graphics/SVG/1.1/DTD/svg11.dtd">
<!-- Generated by graphviz version 2.40.1 (20161225.0304)
 -->
<!-- Title: genfit::Track::getMcTrackId Pages: 1 -->
<svg width="344pt" height="68pt"
 viewBox="0.00 0.00 344.00 68.00" xmlns="http://www.w3.org/2000/svg" xmlns:xlink="http://www.w3.org/1999/xlink">
<g id="graph0" class="graph" transform="scale(1 1) rotate(0) translate(4 64)">
<title>genfit::Track::getMcTrackId</title>
<!-- Node1 -->
<g id="node1" class="node">
<title>Node1</title>
<polygon fill="#bfbfbf" stroke="#000000" points="0,-19.5 0,-39.5 152,-39.5 152,-19.5 0,-19.5"/>
<text text-anchor="middle" x="76" y="-26.5" font-family="FreeSans" font-size="10.00" fill="#000000">genfit::Track::getMcTrackId</text>
</g>
<!-- Node2 -->
<g id="node2" class="node">
<title>Node2</title>
<g id="a_node2"><a xlink:href="../../d6/d17/classSVReco.html#ab53e4e6241d3ab2f5ac6ffad190062a4" target="_top" xlink:title="Fill SvtxVertexMap from GFRaveVertexes and Tracks.">
<polygon fill="none" stroke="#000000" points="198,-39.5 198,-59.5 326,-59.5 326,-39.5 198,-39.5"/>
<text text-anchor="middle" x="262" y="-46.5" font-family="FreeSans" font-size="10.00" fill="#000000">SVReco::FillVertexMap</text>
</a>
</g>
</g>
<!-- Node1&#45;&gt;Node2 -->
<g id="edge1" class="edge">
<title>Node1&#45;&gt;Node2</title>
<path fill="none" stroke="#191970" d="M162.2024,-38.7691C174.1851,-40.0575 186.3192,-41.3623 197.8032,-42.5971"/>
<polygon fill="#191970" stroke="#191970" points="162.5069,-35.2817 152.19,-37.6925 161.7585,-42.2416 162.5069,-35.2817"/>
</g>
<!-- Node3 -->
<g id="node3" class="node">
<title>Node3</title>
<g id="a_node3"><a xlink:href="../../d6/d17/classSVReco.html#a8b67f778697f3b73043fe150ba1a4a96" target="_top" xlink:title="SVReco::GetSVMass_mom">
<polygon fill="none" stroke="#000000" points="188,-.5 188,-20.5 336,-20.5 336,-.5 188,-.5"/>
<text text-anchor="middle" x="262" y="-7.5" font-family="FreeSans" font-size="10.00" fill="#000000">SVReco::GetSVMass_mom</text>
</a>
</g>
</g>
<!-- Node1&#45;&gt;Node3 -->
<g id="edge2" class="edge">
<title>Node1&#45;&gt;Node3</title>
<path fill="none" stroke="#191970" d="M162.1643,-20.6983C170.7059,-19.8257 179.3249,-18.9453 187.7309,-18.0866"/>
<polygon fill="#191970" stroke="#191970" points="161.7825,-17.219 152.19,-21.7172 162.4939,-24.1827 161.7825,-17.219"/>
</g>
</g>
</svg>
