<?xml version="1.0" encoding="UTF-8" standalone="no"?>
<!DOCTYPE svg PUBLIC "-//W3C//DTD SVG 1.1//EN"
 "http://www.w3.org/Graphics/SVG/1.1/DTD/svg11.dtd">
<!-- Generated by graphviz version 2.40.1 (20161225.0304)
 -->
<!-- Title: genfit::Track::reverseTrackPoints Pages: 1 -->
<svg width="592pt" height="158pt"
 viewBox="0.00 0.00 592.00 158.00" xmlns="http://www.w3.org/2000/svg" xmlns:xlink="http://www.w3.org/1999/xlink">
<g id="graph0" class="graph" transform="scale(1 1) rotate(0) translate(4 154)">
<title>genfit::Track::reverseTrackPoints</title>
<!-- Node1 -->
<g id="node1" class="node">
<title>Node1</title>
<polygon fill="#bfbfbf" stroke="#000000" points="0,-64.5 0,-96.5 150,-96.5 150,-64.5 0,-64.5"/>
<text text-anchor="start" x="8" y="-83.5" font-family="FreeSans" font-size="10.00" fill="#000000">genfit::Track::reverseTrack</text>
<text text-anchor="middle" x="75" y="-71.5" font-family="FreeSans" font-size="10.00" fill="#000000">Points</text>
</g>
<!-- Node2 -->
<g id="node2" class="node">
<title>Node2</title>
<g id="a_node2"><a xlink:href="../../d6/d8a/classgenfit_1_1Track.html#a409abb47dc8fb5134031f8af1ce9b44a" target="_top" xlink:title="genfit::Track::deleteBackwardInfo">
<polygon fill="none" stroke="#000000" points="186.5,-129.5 186.5,-149.5 372.5,-149.5 372.5,-129.5 186.5,-129.5"/>
<text text-anchor="middle" x="279.5" y="-136.5" font-family="FreeSans" font-size="10.00" fill="#000000">genfit::Track::deleteBackwardInfo</text>
</a>
</g>
</g>
<!-- Node1&#45;&gt;Node2 -->
<g id="edge1" class="edge">
<title>Node1&#45;&gt;Node2</title>
<path fill="none" stroke="#191970" d="M115.137,-96.5603C136.0305,-104.5112 162.1336,-113.8131 186,-120.5 194.7851,-122.9614 204.1179,-125.2432 213.3563,-127.3086"/>
<polygon fill="#191970" stroke="#191970" points="212.7993,-130.7691 223.3134,-129.4633 214.2799,-123.9274 212.7993,-130.7691"/>
</g>
<!-- Node4 -->
<g id="node4" class="node">
<title>Node4</title>
<g id="a_node4"><a xlink:href="../../d6/d8a/classgenfit_1_1Track.html#ad6ac9e44842a18fbba2577a887f008c5" target="_top" xlink:title="genfit::Track::deleteForwardInfo">
<polygon fill="none" stroke="#000000" points="191,-90.5 191,-110.5 368,-110.5 368,-90.5 191,-90.5"/>
<text text-anchor="middle" x="279.5" y="-97.5" font-family="FreeSans" font-size="10.00" fill="#000000">genfit::Track::deleteForwardInfo</text>
</a>
</g>
</g>
<!-- Node1&#45;&gt;Node4 -->
<g id="edge3" class="edge">
<title>Node1&#45;&gt;Node4</title>
<path fill="none" stroke="#191970" d="M150.277,-87.8621C160.1851,-88.8311 170.4571,-89.8357 180.6833,-90.8358"/>
<polygon fill="#191970" stroke="#191970" points="180.5857,-94.3428 190.879,-91.8329 181.2671,-87.3761 180.5857,-94.3428"/>
</g>
<!-- Node5 -->
<g id="node5" class="node">
<title>Node5</title>
<g id="a_node5"><a xlink:href="../../d6/d8a/classgenfit_1_1Track.html#aef6313a66e86853f9eef2e38f519bc37" target="_top" xlink:title="genfit::Track::deleteReferenceInfo">
<polygon fill="none" stroke="#000000" points="186,-51.5 186,-71.5 373,-71.5 373,-51.5 186,-51.5"/>
<text text-anchor="middle" x="279.5" y="-58.5" font-family="FreeSans" font-size="10.00" fill="#000000">genfit::Track::deleteReferenceInfo</text>
</a>
</g>
</g>
<!-- Node1&#45;&gt;Node5 -->
<g id="edge5" class="edge">
<title>Node1&#45;&gt;Node5</title>
<path fill="none" stroke="#191970" d="M150.277,-73.506C158.6263,-72.7303 167.234,-71.9306 175.8549,-71.1296"/>
<polygon fill="#191970" stroke="#191970" points="176.3332,-74.6003 185.9665,-70.1902 175.6855,-67.6304 176.3332,-74.6003"/>
</g>
<!-- Node6 -->
<g id="node6" class="node">
<title>Node6</title>
<g id="a_node6"><a xlink:href="../../d6/d8a/classgenfit_1_1Track.html#aebe51cd12b541bb8821c1b919480371d" target="_top" xlink:title="genfit::Track::fillPoints\lWithMeasurement">
<polygon fill="none" stroke="#000000" points="215.5,-.5 215.5,-32.5 343.5,-32.5 343.5,-.5 215.5,-.5"/>
<text text-anchor="start" x="223.5" y="-19.5" font-family="FreeSans" font-size="10.00" fill="#000000">genfit::Track::fillPoints</text>
<text text-anchor="middle" x="279.5" y="-7.5" font-family="FreeSans" font-size="10.00" fill="#000000">WithMeasurement</text>
</a>
</g>
</g>
<!-- Node1&#45;&gt;Node6 -->
<g id="edge7" class="edge">
<title>Node1&#45;&gt;Node6</title>
<path fill="none" stroke="#191970" d="M119.8994,-64.46C140.0254,-57.4434 164.1121,-49.2834 186,-42.5 193.7229,-40.1065 201.836,-37.6968 209.9215,-35.3609"/>
<polygon fill="#191970" stroke="#191970" points="211.089,-38.6675 219.7424,-32.5545 209.1655,-31.9369 211.089,-38.6675"/>
</g>
<!-- Node3 -->
<g id="node3" class="node">
<title>Node3</title>
<g id="a_node3"><a xlink:href="../../d6/d8a/classgenfit_1_1Track.html#ad4ead0ee2abc2bcb6b616f8976bc559a" target="_top" xlink:title="genfit::Track::trackHasChanged">
<polygon fill="none" stroke="#000000" points="409,-90.5 409,-110.5 584,-110.5 584,-90.5 409,-90.5"/>
<text text-anchor="middle" x="496.5" y="-97.5" font-family="FreeSans" font-size="10.00" fill="#000000">genfit::Track::trackHasChanged</text>
</a>
</g>
</g>
<!-- Node2&#45;&gt;Node3 -->
<g id="edge2" class="edge">
<title>Node2&#45;&gt;Node3</title>
<path fill="none" stroke="#191970" d="M335.3829,-129.4565C364.4913,-124.2251 400.2663,-117.7954 430.7055,-112.3248"/>
<polygon fill="#191970" stroke="#191970" points="431.5833,-115.7232 440.8065,-110.5094 430.345,-108.8336 431.5833,-115.7232"/>
</g>
<!-- Node4&#45;&gt;Node3 -->
<g id="edge4" class="edge">
<title>Node4&#45;&gt;Node3</title>
<path fill="none" stroke="#191970" d="M368.0752,-100.5C378.1831,-100.5 388.5299,-100.5 398.7483,-100.5"/>
<polygon fill="#191970" stroke="#191970" points="398.9103,-104.0001 408.9103,-100.5 398.9103,-97.0001 398.9103,-104.0001"/>
</g>
<!-- Node5&#45;&gt;Node3 -->
<g id="edge6" class="edge">
<title>Node5&#45;&gt;Node3</title>
<path fill="none" stroke="#191970" d="M335.3829,-71.5435C364.4913,-76.7749 400.2663,-83.2046 430.7055,-88.6752"/>
<polygon fill="#191970" stroke="#191970" points="430.345,-92.1664 440.8065,-90.4906 431.5833,-85.2768 430.345,-92.1664"/>
</g>
</g>
</svg>
