<?xml version="1.0" encoding="UTF-8" standalone="no"?>
<!DOCTYPE svg PUBLIC "-//W3C//DTD SVG 1.1//EN"
 "http://www.w3.org/Graphics/SVG/1.1/DTD/svg11.dtd">
<!-- Generated by graphviz version 2.40.1 (20161225.0304)
 -->
<!-- Title: genfit::Track::sort Pages: 1 -->
<svg width="547pt" height="197pt"
 viewBox="0.00 0.00 547.00 197.00" xmlns="http://www.w3.org/2000/svg" xmlns:xlink="http://www.w3.org/1999/xlink">
<g id="graph0" class="graph" transform="scale(1 1) rotate(0) translate(4 193)">
<title>genfit::Track::sort</title>
<!-- Node1 -->
<g id="node1" class="node">
<title>Node1</title>
<polygon fill="#bfbfbf" stroke="#000000" points="0,-90.5 0,-110.5 105,-110.5 105,-90.5 0,-90.5"/>
<text text-anchor="middle" x="52.5" y="-97.5" font-family="FreeSans" font-size="10.00" fill="#000000">genfit::Track::sort</text>
</g>
<!-- Node2 -->
<g id="node2" class="node">
<title>Node2</title>
<g id="a_node2"><a xlink:href="../../d6/d8a/classgenfit_1_1Track.html#a409abb47dc8fb5134031f8af1ce9b44a" target="_top" xlink:title="genfit::Track::deleteBackwardInfo">
<polygon fill="none" stroke="#000000" points="141.5,-168.5 141.5,-188.5 327.5,-188.5 327.5,-168.5 141.5,-168.5"/>
<text text-anchor="middle" x="234.5" y="-175.5" font-family="FreeSans" font-size="10.00" fill="#000000">genfit::Track::deleteBackwardInfo</text>
</a>
</g>
</g>
<!-- Node1&#45;&gt;Node2 -->
<g id="edge1" class="edge">
<title>Node1&#45;&gt;Node2</title>
<path fill="none" stroke="#191970" d="M66.5592,-110.6152C83.4868,-122.3832 113.1279,-141.7018 141,-153.5 152.2426,-158.259 164.635,-162.3304 176.619,-165.7211"/>
<polygon fill="#191970" stroke="#191970" points="175.9882,-169.1763 186.5553,-168.4095 177.8165,-162.4192 175.9882,-169.1763"/>
</g>
<!-- Node3 -->
<g id="node3" class="node">
<title>Node3</title>
<g id="a_node3"><a xlink:href="../../d6/d8a/classgenfit_1_1Track.html#ad4ead0ee2abc2bcb6b616f8976bc559a" target="_top" xlink:title="genfit::Track::trackHasChanged">
<polygon fill="none" stroke="#000000" points="364,-109.5 364,-129.5 539,-129.5 539,-109.5 364,-109.5"/>
<text text-anchor="middle" x="451.5" y="-116.5" font-family="FreeSans" font-size="10.00" fill="#000000">genfit::Track::trackHasChanged</text>
</a>
</g>
</g>
<!-- Node1&#45;&gt;Node3 -->
<g id="edge8" class="edge">
<title>Node1&#45;&gt;Node3</title>
<path fill="none" stroke="#191970" d="M88.3606,-110.5081C104.3354,-114.4708 123.4665,-118.5435 141,-120.5 211.9215,-128.4139 292.5233,-127.8757 353.8291,-125.5105"/>
<polygon fill="#191970" stroke="#191970" points="354.0347,-129.0051 363.8834,-125.0997 353.7488,-122.011 354.0347,-129.0051"/>
</g>
<!-- Node4 -->
<g id="node4" class="node">
<title>Node4</title>
<g id="a_node4"><a xlink:href="../../d6/d8a/classgenfit_1_1Track.html#ad6ac9e44842a18fbba2577a887f008c5" target="_top" xlink:title="genfit::Track::deleteForwardInfo">
<polygon fill="none" stroke="#000000" points="146,-90.5 146,-110.5 323,-110.5 323,-90.5 146,-90.5"/>
<text text-anchor="middle" x="234.5" y="-97.5" font-family="FreeSans" font-size="10.00" fill="#000000">genfit::Track::deleteForwardInfo</text>
</a>
</g>
</g>
<!-- Node1&#45;&gt;Node4 -->
<g id="edge3" class="edge">
<title>Node1&#45;&gt;Node4</title>
<path fill="none" stroke="#191970" d="M105.1419,-100.5C114.848,-100.5 125.2666,-100.5 135.8241,-100.5"/>
<polygon fill="#191970" stroke="#191970" points="135.97,-104.0001 145.97,-100.5 135.9699,-97.0001 135.97,-104.0001"/>
</g>
<!-- Node5 -->
<g id="node5" class="node">
<title>Node5</title>
<g id="a_node5"><a xlink:href="../../d6/d8a/classgenfit_1_1Track.html#aef6313a66e86853f9eef2e38f519bc37" target="_top" xlink:title="genfit::Track::deleteReferenceInfo">
<polygon fill="none" stroke="#000000" points="141,-51.5 141,-71.5 328,-71.5 328,-51.5 141,-51.5"/>
<text text-anchor="middle" x="234.5" y="-58.5" font-family="FreeSans" font-size="10.00" fill="#000000">genfit::Track::deleteReferenceInfo</text>
</a>
</g>
</g>
<!-- Node1&#45;&gt;Node5 -->
<g id="edge5" class="edge">
<title>Node1&#45;&gt;Node5</title>
<path fill="none" stroke="#191970" d="M99.3468,-90.4356C112.795,-87.5483 127.4781,-84.3977 141,-81.5 152.7931,-78.9728 165.4235,-76.2691 177.4661,-73.6926"/>
<polygon fill="#191970" stroke="#191970" points="178.3657,-77.0795 187.4123,-71.565 176.9013,-70.2343 178.3657,-77.0795"/>
</g>
<!-- Node6 -->
<g id="node6" class="node">
<title>Node6</title>
<g id="a_node6"><a xlink:href="../../d6/d8a/classgenfit_1_1Track.html#aebe51cd12b541bb8821c1b919480371d" target="_top" xlink:title="genfit::Track::fillPoints\lWithMeasurement">
<polygon fill="none" stroke="#000000" points="170.5,-.5 170.5,-32.5 298.5,-32.5 298.5,-.5 170.5,-.5"/>
<text text-anchor="start" x="178.5" y="-19.5" font-family="FreeSans" font-size="10.00" fill="#000000">genfit::Track::fillPoints</text>
<text text-anchor="middle" x="234.5" y="-7.5" font-family="FreeSans" font-size="10.00" fill="#000000">WithMeasurement</text>
</a>
</g>
</g>
<!-- Node1&#45;&gt;Node6 -->
<g id="edge7" class="edge">
<title>Node1&#45;&gt;Node6</title>
<path fill="none" stroke="#191970" d="M65.2487,-90.3014C81.8152,-77.4972 112.0557,-55.6234 141,-42.5 147.1859,-39.6953 153.7422,-37.1292 160.3987,-34.796"/>
<polygon fill="#191970" stroke="#191970" points="161.8044,-38.0172 170.1916,-31.5438 159.5982,-31.374 161.8044,-38.0172"/>
</g>
<!-- Node2&#45;&gt;Node3 -->
<g id="edge2" class="edge">
<title>Node2&#45;&gt;Node3</title>
<path fill="none" stroke="#191970" d="M272.2768,-168.4671C289.3104,-163.9258 309.6753,-158.4722 328,-153.5 353.6134,-146.5501 382.1849,-138.6912 405.3902,-132.281"/>
<polygon fill="#191970" stroke="#191970" points="406.6067,-135.5761 415.3126,-129.5381 404.7416,-128.8291 406.6067,-135.5761"/>
</g>
<!-- Node4&#45;&gt;Node3 -->
<g id="edge4" class="edge">
<title>Node4&#45;&gt;Node3</title>
<path fill="none" stroke="#191970" d="M323.0752,-108.2554C333.1831,-109.1405 343.5299,-110.0464 353.7483,-110.9411"/>
<polygon fill="#191970" stroke="#191970" points="353.6431,-114.4452 363.9103,-111.8309 354.2537,-107.4719 353.6431,-114.4452"/>
</g>
<!-- Node5&#45;&gt;Node3 -->
<g id="edge6" class="edge">
<title>Node5&#45;&gt;Node3</title>
<path fill="none" stroke="#191970" d="M285.6436,-71.5925C299.4499,-74.5474 314.345,-77.9461 328,-81.5 356.1141,-88.817 387.3875,-98.4553 411.4297,-106.1939"/>
<polygon fill="#191970" stroke="#191970" points="410.6684,-109.6264 421.2605,-109.3818 412.8278,-102.9678 410.6684,-109.6264"/>
</g>
</g>
</svg>
