<?xml version="1.0" encoding="UTF-8" standalone="no"?>
<!DOCTYPE svg PUBLIC "-//W3C//DTD SVG 1.1//EN"
 "http://www.w3.org/Graphics/SVG/1.1/DTD/svg11.dtd">
<!-- Generated by graphviz version 2.40.1 (20161225.0304)
 -->
<!-- Title: genfit::Track::deleteReferenceInfo Pages: 1 -->
<svg width="1335pt" height="608pt"
 viewBox="0.00 0.00 1335.00 608.00" xmlns="http://www.w3.org/2000/svg" xmlns:xlink="http://www.w3.org/1999/xlink">
<g id="graph0" class="graph" transform="scale(1 1) rotate(0) translate(4 604)">
<title>genfit::Track::deleteReferenceInfo</title>
<!-- Node1 -->
<g id="node1" class="node">
<title>Node1</title>
<polygon fill="#bfbfbf" stroke="#000000" points="0,-373.5 0,-393.5 187,-393.5 187,-373.5 0,-373.5"/>
<text text-anchor="middle" x="93.5" y="-380.5" font-family="FreeSans" font-size="10.00" fill="#000000">genfit::Track::deleteReferenceInfo</text>
</g>
<!-- Node2 -->
<g id="node2" class="node">
<title>Node2</title>
<g id="a_node2"><a xlink:href="../../d6/d8a/classgenfit_1_1Track.html#a1ea13a2c39bc51c7b583b41d0371dd1a" target="_top" xlink:title="genfit::Track::deletePoint">
<polygon fill="none" stroke="#000000" points="226.5,-522.5 226.5,-542.5 369.5,-542.5 369.5,-522.5 226.5,-522.5"/>
<text text-anchor="middle" x="298" y="-529.5" font-family="FreeSans" font-size="10.00" fill="#000000">genfit::Track::deletePoint</text>
</a>
</g>
</g>
<!-- Node1&#45;&gt;Node2 -->
<g id="edge1" class="edge">
<title>Node1&#45;&gt;Node2</title>
<path fill="none" stroke="#191970" d="M115.4622,-399.5018C157.6939,-430.2721 249.1312,-496.8939 284.0551,-522.3397"/>
<polygon fill="#191970" stroke="#191970" points="117.3787,-396.5677 107.2354,-393.5077 113.2565,-402.2253 117.3787,-396.5677"/>
</g>
<!-- Node5 -->
<g id="node5" class="node">
<title>Node5</title>
<g id="a_node5"><a xlink:href="../../d6/d8a/classgenfit_1_1Track.html#a7e61ada0d84db561ede923db92c4ab01" target="_top" xlink:title="Insert TrackPoint BEFORE TrackPoint with position id, if id &gt;= 0.">
<polygon fill="none" stroke="#000000" points="228,-309.5 228,-329.5 368,-329.5 368,-309.5 228,-309.5"/>
<text text-anchor="middle" x="298" y="-316.5" font-family="FreeSans" font-size="10.00" fill="#000000">genfit::Track::insertPoint</text>
</a>
</g>
</g>
<!-- Node1&#45;&gt;Node5 -->
<g id="edge4" class="edge">
<title>Node1&#45;&gt;Node5</title>
<path fill="none" stroke="#191970" d="M135.8048,-370.2604C174.4163,-358.1765 230.6578,-340.5753 265.748,-329.5935"/>
<polygon fill="#191970" stroke="#191970" points="134.4018,-367.032 125.9036,-373.359 136.4926,-373.7125 134.4018,-367.032"/>
</g>
<!-- Node25 -->
<g id="node25" class="node">
<title>Node25</title>
<g id="a_node25"><a xlink:href="../../d6/d8a/classgenfit_1_1Track.html#a7f6d492fe5163ea636030fde354b63bd" target="_top" xlink:title="Insert TrackPoints BEFORE TrackPoint with position id, if id &gt;= 0.">
<polygon fill="none" stroke="#000000" points="434.5,-477.5 434.5,-497.5 579.5,-497.5 579.5,-477.5 434.5,-477.5"/>
<text text-anchor="middle" x="507" y="-484.5" font-family="FreeSans" font-size="10.00" fill="#000000">genfit::Track::insertPoints</text>
</a>
</g>
</g>
<!-- Node1&#45;&gt;Node25 -->
<g id="edge32" class="edge">
<title>Node1&#45;&gt;Node25</title>
<path fill="none" stroke="#191970" d="M136.5242,-396.3367C161.6594,-403.6996 194.0366,-412.9503 223,-420.5 306.826,-442.3504 405.3815,-464.9042 461.5871,-477.4725"/>
<polygon fill="#191970" stroke="#191970" points="137.5036,-392.9766 126.9223,-393.5128 135.5285,-399.6922 137.5036,-392.9766"/>
</g>
<!-- Node31 -->
<g id="node31" class="node">
<title>Node31</title>
<g id="a_node31"><a xlink:href="../../d6/d8a/classgenfit_1_1Track.html#a542f6bc2f82c89f2559adb3551641531" target="_top" xlink:title="Delete unneeded information from the Track.">
<polygon fill="none" stroke="#000000" points="240.5,-390.5 240.5,-410.5 355.5,-410.5 355.5,-390.5 240.5,-390.5"/>
<text text-anchor="middle" x="298" y="-397.5" font-family="FreeSans" font-size="10.00" fill="#000000">genfit::Track::prune</text>
</a>
</g>
</g>
<!-- Node1&#45;&gt;Node31 -->
<g id="edge33" class="edge">
<title>Node1&#45;&gt;Node31</title>
<path fill="none" stroke="#191970" d="M197.3301,-392.1313C212.1591,-393.3641 226.9439,-394.5931 240.4363,-395.7148"/>
<polygon fill="#191970" stroke="#191970" points="197.3276,-388.6192 187.072,-391.2786 196.7477,-395.5951 197.3276,-388.6192"/>
</g>
<!-- Node32 -->
<g id="node32" class="node">
<title>Node32</title>
<g id="a_node32"><a xlink:href="../../d6/d8a/classgenfit_1_1Track.html#a20e8861b9b00d3de75c8794344ef5d1b" target="_top" xlink:title="Flip the ordering of the TrackPoints.">
<polygon fill="none" stroke="#000000" points="223,-177.5 223,-209.5 373,-209.5 373,-177.5 223,-177.5"/>
<text text-anchor="start" x="231" y="-196.5" font-family="FreeSans" font-size="10.00" fill="#000000">genfit::Track::reverseTrack</text>
<text text-anchor="middle" x="298" y="-184.5" font-family="FreeSans" font-size="10.00" fill="#000000">Points</text>
</a>
</g>
</g>
<!-- Node1&#45;&gt;Node32 -->
<g id="edge35" class="edge">
<title>Node1&#45;&gt;Node32</title>
<path fill="none" stroke="#191970" d="M112.0494,-366.2658C151.3108,-329.7882 242.3361,-245.2171 280.581,-209.6839"/>
<polygon fill="#191970" stroke="#191970" points="109.4385,-363.9141 104.4948,-373.2848 114.2032,-369.0423 109.4385,-363.9141"/>
</g>
<!-- Node34 -->
<g id="node34" class="node">
<title>Node34</title>
<g id="a_node34"><a xlink:href="../../d6/d8a/classgenfit_1_1Track.html#acd5e754e83c67f7dfa2c48613e61dc2a" target="_top" xlink:title="Sort TrackPoint and according to their sorting parameters.">
<polygon fill="none" stroke="#000000" points="245.5,-57.5 245.5,-77.5 350.5,-77.5 350.5,-57.5 245.5,-57.5"/>
<text text-anchor="middle" x="298" y="-64.5" font-family="FreeSans" font-size="10.00" fill="#000000">genfit::Track::sort</text>
</a>
</g>
</g>
<!-- Node1&#45;&gt;Node34 -->
<g id="edge37" class="edge">
<title>Node1&#45;&gt;Node34</title>
<path fill="none" stroke="#191970" d="M104.1251,-364.4907C125.5204,-326.5327 175.7904,-238.9434 223,-168.5 245.9805,-134.2098 275.9083,-95.5002 289.9995,-77.587"/>
<polygon fill="#191970" stroke="#191970" points="100.9497,-362.9973 99.1039,-373.4301 107.0528,-366.4254 100.9497,-362.9973"/>
</g>
<!-- Node3 -->
<g id="node3" class="node">
<title>Node3</title>
<g id="a_node3"><a xlink:href="../../d1/dc8/classgenfit_1_1GblFitter.html#a224cad1dcba8a38a34650fea7bfad61e" target="_top" xlink:title="Remove all previous gbl fitter data from track Also removes trackpoints without measurement.">
<polygon fill="none" stroke="#000000" points="456.5,-567.5 456.5,-599.5 557.5,-599.5 557.5,-567.5 456.5,-567.5"/>
<text text-anchor="start" x="464.5" y="-586.5" font-family="FreeSans" font-size="10.00" fill="#000000">genfit::GblFitter::</text>
<text text-anchor="middle" x="507" y="-574.5" font-family="FreeSans" font-size="10.00" fill="#000000">cleanGblInfo</text>
</a>
</g>
</g>
<!-- Node2&#45;&gt;Node3 -->
<g id="edge2" class="edge">
<title>Node2&#45;&gt;Node3</title>
<path fill="none" stroke="#191970" d="M349.073,-544.9628C381.6377,-552.9092 423.6716,-563.1663 456.186,-571.1004"/>
<polygon fill="#191970" stroke="#191970" points="349.8364,-541.5464 339.2917,-542.576 348.1769,-548.3469 349.8364,-541.5464"/>
</g>
<!-- Node4 -->
<g id="node4" class="node">
<title>Node4</title>
<g id="a_node4"><a xlink:href="../../d7/dd5/classPHGenFit_1_1Track.html#a8dfb1640ab500e1a69f5d920fed7936f" target="_top" xlink:title="PHGenFit::Track::deleteLast\lMeasurement">
<polygon fill="none" stroke="#000000" points="429.5,-516.5 429.5,-548.5 584.5,-548.5 584.5,-516.5 429.5,-516.5"/>
<text text-anchor="start" x="437.5" y="-535.5" font-family="FreeSans" font-size="10.00" fill="#000000">PHGenFit::Track::deleteLast</text>
<text text-anchor="middle" x="507" y="-523.5" font-family="FreeSans" font-size="10.00" fill="#000000">Measurement</text>
</a>
</g>
</g>
<!-- Node2&#45;&gt;Node4 -->
<g id="edge3" class="edge">
<title>Node2&#45;&gt;Node4</title>
<path fill="none" stroke="#191970" d="M379.6968,-532.5C396.046,-532.5 413.178,-532.5 429.3844,-532.5"/>
<polygon fill="#191970" stroke="#191970" points="379.6336,-529.0001 369.6335,-532.5 379.6335,-536.0001 379.6336,-529.0001"/>
</g>
<!-- Node6 -->
<g id="node6" class="node">
<title>Node6</title>
<g id="a_node6"><a xlink:href="../../d0/d48/GenFit_2blob_2master_2test_2fitterTests_2main_8cc.html#ae66f6b31b5ad750f1fe042a706a4e3d4" target="_top" xlink:title="main">
<polygon fill="none" stroke="#000000" points="877,-438.5 877,-458.5 918,-458.5 918,-438.5 877,-438.5"/>
<text text-anchor="middle" x="897.5" y="-445.5" font-family="FreeSans" font-size="10.00" fill="#000000">main</text>
</a>
</g>
</g>
<!-- Node5&#45;&gt;Node6 -->
<g id="edge5" class="edge">
<title>Node5&#45;&gt;Node6</title>
<path fill="none" stroke="#191970" d="M378.4749,-318.3771C440.9198,-319.0294 529.3046,-323.2963 605,-339.5 710.9841,-362.1874 829.8959,-415.9541 876.8483,-438.3913"/>
<polygon fill="#191970" stroke="#191970" points="378.32,-314.8759 368.2938,-318.3003 378.2671,-321.8757 378.32,-314.8759"/>
</g>
<!-- Node7 -->
<g id="node7" class="node">
<title>Node7</title>
<g id="a_node7"><a xlink:href="../../d7/dd5/classPHGenFit_1_1Track.html#a88666b0914fa412f3c139c6acb07a55b" target="_top" xlink:title="Add measurement.">
<polygon fill="none" stroke="#000000" points="411.5,-348.5 411.5,-368.5 602.5,-368.5 602.5,-348.5 411.5,-348.5"/>
<text text-anchor="middle" x="507" y="-355.5" font-family="FreeSans" font-size="10.00" fill="#000000">PHGenFit::Track::addMeasurement</text>
</a>
</g>
</g>
<!-- Node5&#45;&gt;Node7 -->
<g id="edge6" class="edge">
<title>Node5&#45;&gt;Node7</title>
<path fill="none" stroke="#191970" d="M361.9427,-331.4319C391.1985,-336.8911 425.4741,-343.287 453.3597,-348.4906"/>
<polygon fill="#191970" stroke="#191970" points="362.2951,-327.9373 351.8227,-329.5435 361.011,-334.8185 362.2951,-327.9373"/>
</g>
<!-- Node8 -->
<g id="node8" class="node">
<title>Node8</title>
<g id="a_node8"><a xlink:href="../../d7/dd5/classPHGenFit_1_1Track.html#a3c6639bba6584ef0fd2581150947b85f" target="_top" xlink:title="PHGenFit::Track::addMeasurements">
<polygon fill="none" stroke="#000000" points="409,-270.5 409,-290.5 605,-290.5 605,-270.5 409,-270.5"/>
<text text-anchor="middle" x="507" y="-277.5" font-family="FreeSans" font-size="10.00" fill="#000000">PHGenFit::Track::addMeasurements</text>
</a>
</g>
</g>
<!-- Node5&#45;&gt;Node8 -->
<g id="edge7" class="edge">
<title>Node5&#45;&gt;Node8</title>
<path fill="none" stroke="#191970" d="M361.9427,-307.5681C391.1985,-302.1089 425.4741,-295.713 453.3597,-290.5094"/>
<polygon fill="#191970" stroke="#191970" points="361.011,-304.1815 351.8227,-309.4565 362.2951,-311.0627 361.011,-304.1815"/>
</g>
<!-- Node23 -->
<g id="node23" class="node">
<title>Node23</title>
<g id="a_node23"><a xlink:href="../../d6/d8a/classgenfit_1_1Track.html#a73f9e05be44d2d677b4293f57d5fb004" target="_top" xlink:title="genfit::Track::createMeasurements">
<polygon fill="none" stroke="#000000" points="411,-192.5 411,-212.5 603,-212.5 603,-192.5 411,-192.5"/>
<text text-anchor="middle" x="507" y="-199.5" font-family="FreeSans" font-size="10.00" fill="#000000">genfit::Track::createMeasurements</text>
</a>
</g>
</g>
<!-- Node5&#45;&gt;Node23 -->
<g id="edge23" class="edge">
<title>Node5&#45;&gt;Node23</title>
<path fill="none" stroke="#191970" d="M312.9565,-301.6833C332.6185,-279.4983 369.3435,-242.1356 409,-222.5 417.3254,-218.3777 426.4511,-215.105 435.6791,-212.5067"/>
<polygon fill="#191970" stroke="#191970" points="310.1941,-299.5265 306.2858,-309.3742 315.4821,-304.1131 310.1941,-299.5265"/>
</g>
<!-- Node5&#45;&gt;Node25 -->
<g id="edge25" class="edge">
<title>Node5&#45;&gt;Node25</title>
<path fill="none" stroke="#191970" d="M320.1661,-335.5954C335.7573,-347.4321 356.6687,-364.3775 373,-381.5 391.4051,-400.7967 389.1437,-411.7 409,-429.5 432.1123,-450.2188 463.7351,-467.3393 484.7368,-477.4824"/>
<polygon fill="#191970" stroke="#191970" points="322.2196,-332.7606 312.1145,-329.5764 318.0283,-338.3672 322.2196,-332.7606"/>
</g>
<!-- Node27 -->
<g id="node27" class="node">
<title>Node27</title>
<g id="a_node27"><a xlink:href="../../d6/d8a/classgenfit_1_1Track.html#a3f78a9f2e938a40d4a51b6ce6d09bb26" target="_top" xlink:title="Creates a new TrackPoint containing the measurement, and adds it to the track.">
<polygon fill="none" stroke="#000000" points="415,-231.5 415,-251.5 599,-251.5 599,-231.5 415,-231.5"/>
<text text-anchor="middle" x="507" y="-238.5" font-family="FreeSans" font-size="10.00" fill="#000000">genfit::Track::insertMeasurement</text>
</a>
</g>
</g>
<!-- Node5&#45;&gt;Node27 -->
<g id="edge28" class="edge">
<title>Node5&#45;&gt;Node27</title>
<path fill="none" stroke="#191970" d="M322.5466,-304.104C344.4559,-290.9984 377.8069,-272.5837 409,-261.5 420.29,-257.4884 432.6134,-254.1863 444.593,-251.5028"/>
<polygon fill="#191970" stroke="#191970" points="320.6263,-301.1753 313.8971,-309.3587 324.2609,-307.1578 320.6263,-301.1753"/>
</g>
<!-- Node28 -->
<g id="node28" class="node">
<title>Node28</title>
<g id="a_node28"><a xlink:href="../../d5/daa/classPHRaveVertexing.html#af3ca2c60b8b69efdf6fdaf781f19948c" target="_top" xlink:title="PHRaveVertexing::Translate\lSvtxToGenFitTrack">
<polygon fill="none" stroke="#000000" points="429,-141.5 429,-173.5 585,-173.5 585,-141.5 429,-141.5"/>
<text text-anchor="start" x="437" y="-160.5" font-family="FreeSans" font-size="10.00" fill="#000000">PHRaveVertexing::Translate</text>
<text text-anchor="middle" x="507" y="-148.5" font-family="FreeSans" font-size="10.00" fill="#000000">SvtxToGenFitTrack</text>
</a>
</g>
</g>
<!-- Node5&#45;&gt;Node28 -->
<g id="edge29" class="edge">
<title>Node5&#45;&gt;Node28</title>
<path fill="none" stroke="#191970" d="M311.9776,-301.1236C338.9329,-265.8762 396.5449,-191.5326 409,-183.5 415.1391,-179.5408 421.8631,-176.1819 428.8211,-173.3329"/>
<polygon fill="#191970" stroke="#191970" points="309.1152,-299.1052 305.8312,-309.1783 314.68,-303.3517 309.1152,-299.1052"/>
</g>
<!-- Node30 -->
<g id="node30" class="node">
<title>Node30</title>
<g id="a_node30"><a xlink:href="../../d1/dc8/classgenfit_1_1GblFitter.html#a5da35921dc77781efca0650aefff823a" target="_top" xlink:title="Propagate seed, populate track with scatterers and GblFitterInfos with reference state set...">
<polygon fill="none" stroke="#000000" points="456.5,-387.5 456.5,-419.5 557.5,-419.5 557.5,-387.5 456.5,-387.5"/>
<text text-anchor="start" x="464.5" y="-406.5" font-family="FreeSans" font-size="10.00" fill="#000000">genfit::GblFitter::</text>
<text text-anchor="middle" x="507" y="-394.5" font-family="FreeSans" font-size="10.00" fill="#000000">constructGblInfo</text>
</a>
</g>
</g>
<!-- Node5&#45;&gt;Node30 -->
<g id="edge31" class="edge">
<title>Node5&#45;&gt;Node30</title>
<path fill="none" stroke="#191970" d="M322.6475,-334.8093C344.6217,-347.9137 378.0115,-366.5105 409,-378.5 424.0658,-384.329 440.9597,-389.1971 456.4222,-393.0422"/>
<polygon fill="#191970" stroke="#191970" points="324.338,-331.7414 313.9691,-329.5647 320.7174,-337.7324 324.338,-331.7414"/>
</g>
<!-- Node9 -->
<g id="node9" class="node">
<title>Node9</title>
<g id="a_node9"><a xlink:href="../../d1/d04/classBDiJetModule.html#aa2f3d100a0f4b8a1b5836d9436e071e8" target="_top" xlink:title="Initialize the TTree.">
<polygon fill="none" stroke="#000000" points="644,-168.5 644,-200.5 794,-200.5 794,-168.5 644,-168.5"/>
<text text-anchor="start" x="652" y="-187.5" font-family="FreeSans" font-size="10.00" fill="#000000">BDiJetModule::MakeGenFit</text>
<text text-anchor="middle" x="719" y="-175.5" font-family="FreeSans" font-size="10.00" fill="#000000">Track</text>
</a>
</g>
</g>
<!-- Node8&#45;&gt;Node9 -->
<g id="edge8" class="edge">
<title>Node8&#45;&gt;Node9</title>
<path fill="none" stroke="#191970" d="M596.3501,-266.3945C599.3398,-264.9143 602.2346,-263.2875 605,-261.5 628.3011,-246.4389 618.7284,-227.0456 641,-210.5 646.1562,-206.6694 651.9098,-203.3822 657.8915,-200.5656"/>
<polygon fill="#191970" stroke="#191970" points="594.902,-263.2075 587.1309,-270.4089 597.6967,-269.6255 594.902,-263.2075"/>
</g>
<!-- Node11 -->
<g id="node11" class="node">
<title>Node11</title>
<g id="a_node11"><a xlink:href="../../d6/d17/classSVReco.html#af99925be18cc9afbb2b9936df3a925db" target="_top" xlink:title="Uses the tracking clusters exclusively to make a GFTrack.">
<polygon fill="none" stroke="#000000" points="645.5,-270.5 645.5,-290.5 792.5,-290.5 792.5,-270.5 645.5,-270.5"/>
<text text-anchor="middle" x="719" y="-277.5" font-family="FreeSans" font-size="10.00" fill="#000000">SVReco::MakeGenFitTrack</text>
</a>
</g>
</g>
<!-- Node8&#45;&gt;Node11 -->
<g id="edge10" class="edge">
<title>Node8&#45;&gt;Node11</title>
<path fill="none" stroke="#191970" d="M615.4146,-280.5C625.5907,-280.5 635.7371,-280.5 645.4784,-280.5"/>
<polygon fill="#191970" stroke="#191970" points="615.2425,-277.0001 605.2425,-280.5 615.2425,-284.0001 615.2425,-277.0001"/>
</g>
<!-- Node21 -->
<g id="node21" class="node">
<title>Node21</title>
<g id="a_node21"><a xlink:href="../../d2/d38/minimumTestPHGenFit_8cc.html#a3c04138a5bfe5d72780bb7e82a18e627" target="_top" xlink:title="main">
<polygon fill="none" stroke="#000000" points="698.5,-309.5 698.5,-329.5 739.5,-329.5 739.5,-309.5 698.5,-309.5"/>
<text text-anchor="middle" x="719" y="-316.5" font-family="FreeSans" font-size="10.00" fill="#000000">main</text>
</a>
</g>
</g>
<!-- Node8&#45;&gt;Node21 -->
<g id="edge21" class="edge">
<title>Node8&#45;&gt;Node21</title>
<path fill="none" stroke="#191970" d="M571.5112,-292.3676C614.8745,-300.3448 669.237,-310.3455 698.341,-315.6995"/>
<polygon fill="#191970" stroke="#191970" points="572.0635,-288.9106 561.5953,-290.5435 570.797,-295.7951 572.0635,-288.9106"/>
</g>
<!-- Node22 -->
<g id="node22" class="node">
<title>Node22</title>
<g id="a_node22"><a xlink:href="../../d9/d91/classPHG4TrackFastSim.html#a8bb22ab279c5f433069774bd2ab0a7ae" target="_top" xlink:title="Process Event, called for each event.">
<polygon fill="none" stroke="#000000" points="641,-219.5 641,-251.5 797,-251.5 797,-219.5 641,-219.5"/>
<text text-anchor="start" x="649" y="-238.5" font-family="FreeSans" font-size="10.00" fill="#000000">PHG4TrackFastSim::process</text>
<text text-anchor="middle" x="719" y="-226.5" font-family="FreeSans" font-size="10.00" fill="#000000">_event</text>
</a>
</g>
</g>
<!-- Node8&#45;&gt;Node22 -->
<g id="edge22" class="edge">
<title>Node8&#45;&gt;Node22</title>
<path fill="none" stroke="#191970" d="M570.4575,-268.5117C581.9663,-266.248 593.8517,-263.8513 605,-261.5 619.6985,-258.3999 635.425,-254.9195 650.3569,-251.5378"/>
<polygon fill="#191970" stroke="#191970" points="569.6126,-265.1105 560.4688,-270.4623 570.9542,-271.9808 569.6126,-265.1105"/>
</g>
<!-- Node10 -->
<g id="node10" class="node">
<title>Node10</title>
<g id="a_node10"><a xlink:href="../../d1/d04/classBDiJetModule.html#a8f01ada101f7e91cf05e12bbf420d192" target="_top" xlink:title="BDiJetModule::process\l_event">
<polygon fill="none" stroke="#000000" points="833,-168.5 833,-200.5 962,-200.5 962,-168.5 833,-168.5"/>
<text text-anchor="start" x="841" y="-187.5" font-family="FreeSans" font-size="10.00" fill="#000000">BDiJetModule::process</text>
<text text-anchor="middle" x="897.5" y="-175.5" font-family="FreeSans" font-size="10.00" fill="#000000">_event</text>
</a>
</g>
</g>
<!-- Node9&#45;&gt;Node10 -->
<g id="edge9" class="edge">
<title>Node9&#45;&gt;Node10</title>
<path fill="none" stroke="#191970" d="M804.192,-184.5C813.837,-184.5 823.5453,-184.5 832.8652,-184.5"/>
<polygon fill="#191970" stroke="#191970" points="804.1828,-181.0001 794.1827,-184.5 804.1827,-188.0001 804.1828,-181.0001"/>
</g>
<!-- Node12 -->
<g id="node12" class="node">
<title>Node12</title>
<g id="a_node12"><a xlink:href="../../d6/d17/classSVReco.html#a19081506d2161465fdf3f36527aa0e18" target="_top" xlink:title="Initialization, called for initialization at each event.">
<polygon fill="none" stroke="#000000" points="844.5,-245.5 844.5,-265.5 950.5,-265.5 950.5,-245.5 844.5,-245.5"/>
<text text-anchor="middle" x="897.5" y="-252.5" font-family="FreeSans" font-size="10.00" fill="#000000">SVReco::InitEvent</text>
</a>
</g>
</g>
<!-- Node11&#45;&gt;Node12 -->
<g id="edge11" class="edge">
<title>Node11&#45;&gt;Node12</title>
<path fill="none" stroke="#191970" d="M800.7521,-269.0501C815.5464,-266.9781 830.6174,-264.8673 844.3237,-262.9477"/>
<polygon fill="#191970" stroke="#191970" points="799.9921,-265.6223 790.5743,-270.4756 800.9631,-272.5547 799.9921,-265.6223"/>
</g>
<!-- Node17 -->
<g id="node17" class="node">
<title>Node17</title>
<g id="a_node17"><a xlink:href="../../d6/d17/classSVReco.html#aed33c3da67bd3f1b7c3c73127b8187ea" target="_top" xlink:title="SVReco::refitTrack">
<polygon fill="none" stroke="#000000" points="843.5,-332.5 843.5,-352.5 951.5,-352.5 951.5,-332.5 843.5,-332.5"/>
<text text-anchor="middle" x="897.5" y="-339.5" font-family="FreeSans" font-size="10.00" fill="#000000">SVReco::refitTrack</text>
</a>
</g>
</g>
<!-- Node11&#45;&gt;Node17 -->
<g id="edge16" class="edge">
<title>Node11&#45;&gt;Node17</title>
<path fill="none" stroke="#191970" d="M772.3127,-293.0705C780.6349,-295.3482 789.0926,-297.8495 797,-300.5 824.7912,-309.8155 855.7715,-323.2474 875.8911,-332.396"/>
<polygon fill="#191970" stroke="#191970" points="773.2098,-289.6875 762.6465,-290.5039 771.4133,-296.4531 773.2098,-289.6875"/>
</g>
<!-- Node13 -->
<g id="node13" class="node">
<title>Node13</title>
<g id="a_node13"><a xlink:href="../../df/d9b/classRecoConversionEval.html#ab5e60cc47b4b3d33f9fdb4a83c2ff775" target="_top" xlink:title="RecoConversionEval\l::doNodePointers">
<polygon fill="none" stroke="#000000" points="1025.5,-262.5 1025.5,-294.5 1144.5,-294.5 1144.5,-262.5 1025.5,-262.5"/>
<text text-anchor="start" x="1033.5" y="-281.5" font-family="FreeSans" font-size="10.00" fill="#000000">RecoConversionEval</text>
<text text-anchor="middle" x="1085" y="-269.5" font-family="FreeSans" font-size="10.00" fill="#000000">::doNodePointers</text>
</a>
</g>
</g>
<!-- Node12&#45;&gt;Node13 -->
<g id="edge12" class="edge">
<title>Node12&#45;&gt;Node13</title>
<path fill="none" stroke="#191970" d="M960.7725,-263.2614C981.6455,-265.8219 1004.7803,-268.6597 1025.3719,-271.1856"/>
<polygon fill="#191970" stroke="#191970" points="961.0802,-259.773 950.7284,-262.0294 960.2279,-266.7209 961.0802,-259.773"/>
</g>
<!-- Node15 -->
<g id="node15" class="node">
<title>Node15</title>
<g id="a_node15"><a xlink:href="../../d2/d6d/classVtxTest.html#ad1a3b9d5e730a3ba75f13a084e21bee5" target="_top" xlink:title="VtxTest::process_event">
<polygon fill="none" stroke="#000000" points="1018,-223.5 1018,-243.5 1152,-243.5 1152,-223.5 1018,-223.5"/>
<text text-anchor="middle" x="1085" y="-230.5" font-family="FreeSans" font-size="10.00" fill="#000000">VtxTest::process_event</text>
</a>
</g>
</g>
<!-- Node12&#45;&gt;Node15 -->
<g id="edge14" class="edge">
<title>Node12&#45;&gt;Node15</title>
<path fill="none" stroke="#191970" d="M960.746,-248.0791C979.1409,-245.9208 999.2942,-243.5562 1017.9163,-241.3711"/>
<polygon fill="#191970" stroke="#191970" points="960.2524,-244.6129 950.7284,-249.2545 961.0682,-251.5653 960.2524,-244.6129"/>
</g>
<!-- Node16 -->
<g id="node16" class="node">
<title>Node16</title>
<g id="a_node16"><a xlink:href="../../d9/d3a/classTruthConversionEval.html#a9a67c8171296f35dd157daf89108d3fd" target="_top" xlink:title="TruthConversionEval\l::process_event">
<polygon fill="none" stroke="#000000" points="1024.5,-172.5 1024.5,-204.5 1145.5,-204.5 1145.5,-172.5 1024.5,-172.5"/>
<text text-anchor="start" x="1032.5" y="-191.5" font-family="FreeSans" font-size="10.00" fill="#000000">TruthConversionEval</text>
<text text-anchor="middle" x="1085" y="-179.5" font-family="FreeSans" font-size="10.00" fill="#000000">::process_event</text>
</a>
</g>
</g>
<!-- Node12&#45;&gt;Node16 -->
<g id="edge15" class="edge">
<title>Node12&#45;&gt;Node16</title>
<path fill="none" stroke="#191970" d="M929.7675,-241.4047C949.3284,-233.0941 974.8904,-222.6455 998,-214.5 1007.664,-211.0937 1018.0293,-207.741 1028.1166,-204.6342"/>
<polygon fill="#191970" stroke="#191970" points="928.2228,-238.2587 920.4077,-245.4124 930.9782,-244.6936 928.2228,-238.2587"/>
</g>
<!-- Node14 -->
<g id="node14" class="node">
<title>Node14</title>
<g id="a_node14"><a xlink:href="../../df/d9b/classRecoConversionEval.html#a54bb2ea55f01b0d0dc8752fbee1bc237" target="_top" xlink:title="RecoConversionEval\l::process_event">
<polygon fill="none" stroke="#000000" points="1208,-326.5 1208,-358.5 1327,-358.5 1327,-326.5 1208,-326.5"/>
<text text-anchor="start" x="1216" y="-345.5" font-family="FreeSans" font-size="10.00" fill="#000000">RecoConversionEval</text>
<text text-anchor="middle" x="1267.5" y="-333.5" font-family="FreeSans" font-size="10.00" fill="#000000">::process_event</text>
</a>
</g>
</g>
<!-- Node13&#45;&gt;Node14 -->
<g id="edge13" class="edge">
<title>Node13&#45;&gt;Node14</title>
<path fill="none" stroke="#191970" d="M1151.0485,-297.5695C1158.149,-299.8184 1165.2436,-302.1513 1172,-304.5 1191.046,-311.1207 1211.8851,-319.3005 1229.2235,-326.373"/>
<polygon fill="#191970" stroke="#191970" points="1151.9819,-294.1944 1141.3934,-294.5612 1149.8996,-300.8776 1151.9819,-294.1944"/>
</g>
<!-- Node18 -->
<g id="node18" class="node">
<title>Node18</title>
<g id="a_node18"><a xlink:href="../../df/d9b/classRecoConversionEval.html#ae0025d84438ba3f29cc99ec09cbb9f5b" target="_top" xlink:title="Uses _vertexer to refit.">
<polygon fill="none" stroke="#000000" points="1025.5,-391.5 1025.5,-423.5 1144.5,-423.5 1144.5,-391.5 1025.5,-391.5"/>
<text text-anchor="start" x="1033.5" y="-410.5" font-family="FreeSans" font-size="10.00" fill="#000000">RecoConversionEval</text>
<text text-anchor="middle" x="1085" y="-398.5" font-family="FreeSans" font-size="10.00" fill="#000000">::refitTracks</text>
</a>
</g>
</g>
<!-- Node17&#45;&gt;Node18 -->
<g id="edge17" class="edge">
<title>Node17&#45;&gt;Node18</title>
<path fill="none" stroke="#191970" d="M930.1565,-356.4485C949.6675,-364.5428 975.0454,-374.6553 998,-382.5 1007.0713,-385.6001 1016.7592,-388.6422 1026.2549,-391.478"/>
<polygon fill="#191970" stroke="#191970" points="931.3858,-353.1689 920.8097,-352.5394 928.6849,-359.6269 931.3858,-353.1689"/>
</g>
<!-- Node19 -->
<g id="node19" class="node">
<title>Node19</title>
<g id="a_node19"><a xlink:href="../../dc/d41/classConversion.html#a5a8976da958375a2e66f9c35017fb7be" target="_top" xlink:title="Uses recoVertex and.">
<polygon fill="none" stroke="#000000" points="1019,-352.5 1019,-372.5 1151,-372.5 1151,-352.5 1019,-352.5"/>
<text text-anchor="middle" x="1085" y="-359.5" font-family="FreeSans" font-size="10.00" fill="#000000">Conversion::refitTracks</text>
</a>
</g>
</g>
<!-- Node17&#45;&gt;Node19 -->
<g id="edge19" class="edge">
<title>Node17&#45;&gt;Node19</title>
<path fill="none" stroke="#191970" d="M961.7841,-349.357C980.2277,-351.3243 1000.365,-353.4723 1018.9151,-355.4509"/>
<polygon fill="#191970" stroke="#191970" points="962.0476,-345.8653 951.7328,-348.2848 961.3051,-352.8258 962.0476,-345.8653"/>
</g>
<!-- Node20 -->
<g id="node20" class="node">
<title>Node20</title>
<g id="a_node20"><a xlink:href="../../dc/d41/classConversion.html#a232908ec95e6d7b3bfd8883d19885971" target="_top" xlink:title="Uses the truth vertex and SVReco to improve the fit of reco1 and reco2. Uses.">
<polygon fill="none" stroke="#000000" points="998,-313.5 998,-333.5 1172,-333.5 1172,-313.5 998,-313.5"/>
<text text-anchor="middle" x="1085" y="-320.5" font-family="FreeSans" font-size="10.00" fill="#000000">Conversion::refitTracksTruthVtx</text>
</a>
</g>
</g>
<!-- Node17&#45;&gt;Node20 -->
<g id="edge20" class="edge">
<title>Node17&#45;&gt;Node20</title>
<path fill="none" stroke="#191970" d="M961.7234,-335.992C973.3117,-334.8177 985.5703,-333.5755 997.6849,-332.3479"/>
<polygon fill="#191970" stroke="#191970" points="961.3289,-332.514 951.7328,-337.0044 962.0347,-339.4783 961.3289,-332.514"/>
</g>
<!-- Node18&#45;&gt;Node14 -->
<g id="edge18" class="edge">
<title>Node18&#45;&gt;Node14</title>
<path fill="none" stroke="#191970" d="M1153.9193,-388.5031C1160.0628,-386.5664 1166.1627,-384.5533 1172,-382.5 1192.1788,-375.4021 1214.2333,-366.2598 1232.0594,-358.5075"/>
<polygon fill="#191970" stroke="#191970" points="1152.7872,-385.1894 1144.2608,-391.4783 1154.848,-391.8792 1152.7872,-385.1894"/>
</g>
<!-- Node24 -->
<g id="node24" class="node">
<title>Node24</title>
<g id="a_node24"><a xlink:href="../../d6/d8a/classgenfit_1_1Track.html#a9b8776fee4ae9f578ab16a30ebcb4ac8" target="_top" xlink:title="genfit::Track::Track">
<polygon fill="none" stroke="#000000" points="663,-129.5 663,-149.5 775,-149.5 775,-129.5 663,-129.5"/>
<text text-anchor="middle" x="719" y="-136.5" font-family="FreeSans" font-size="10.00" fill="#000000">genfit::Track::Track</text>
</a>
</g>
</g>
<!-- Node23&#45;&gt;Node24 -->
<g id="edge24" class="edge">
<title>Node23&#45;&gt;Node24</title>
<path fill="none" stroke="#191970" d="M586.8963,-189.788C593.1112,-187.961 599.2138,-185.8768 605,-183.5 622.7874,-176.1935 623.4378,-167.3323 641,-159.5 649.9373,-155.5142 659.8189,-152.2127 669.4602,-149.5194"/>
<polygon fill="#191970" stroke="#191970" points="585.803,-186.4579 577.067,-192.4522 587.6344,-193.2141 585.803,-186.4579"/>
</g>
<!-- Node26 -->
<g id="node26" class="node">
<title>Node26</title>
<g id="a_node26"><a xlink:href="../../d6/d8a/classgenfit_1_1Track.html#ab13a5076fe0b011dcde604846cd89d9e" target="_top" xlink:title="Merge two tracks.">
<polygon fill="none" stroke="#000000" points="646.5,-477.5 646.5,-497.5 791.5,-497.5 791.5,-477.5 646.5,-477.5"/>
<text text-anchor="middle" x="719" y="-484.5" font-family="FreeSans" font-size="10.00" fill="#000000">genfit::Track::mergeTrack</text>
</a>
</g>
</g>
<!-- Node25&#45;&gt;Node26 -->
<g id="edge26" class="edge">
<title>Node25&#45;&gt;Node26</title>
<path fill="none" stroke="#191970" d="M589.9098,-487.5C608.5702,-487.5 628.2341,-487.5 646.4332,-487.5"/>
<polygon fill="#191970" stroke="#191970" points="589.6618,-484.0001 579.6618,-487.5 589.6617,-491.0001 589.6618,-484.0001"/>
</g>
<!-- Node26&#45;&gt;Node6 -->
<g id="edge27" class="edge">
<title>Node26&#45;&gt;Node6</title>
<path fill="none" stroke="#191970" d="M774.991,-475.2667C809.6919,-467.685 852.2203,-458.393 876.9503,-452.9899"/>
<polygon fill="#191970" stroke="#191970" points="773.9906,-471.9026 764.9682,-477.4565 775.4848,-478.7413 773.9906,-471.9026"/>
</g>
<!-- Node29 -->
<g id="node29" class="node">
<title>Node29</title>
<g id="a_node29"><a xlink:href="../../d5/daa/classPHRaveVertexing.html#afefcb6ce27ac34016e62172d8519fae8" target="_top" xlink:title="Process Event, called for each event.">
<polygon fill="none" stroke="#000000" points="644.5,-78.5 644.5,-110.5 793.5,-110.5 793.5,-78.5 644.5,-78.5"/>
<text text-anchor="start" x="652.5" y="-97.5" font-family="FreeSans" font-size="10.00" fill="#000000">PHRaveVertexing::process</text>
<text text-anchor="middle" x="719" y="-85.5" font-family="FreeSans" font-size="10.00" fill="#000000">_event</text>
</a>
</g>
</g>
<!-- Node28&#45;&gt;Node29 -->
<g id="edge30" class="edge">
<title>Node28&#45;&gt;Node29</title>
<path fill="none" stroke="#191970" d="M582.2749,-138.8842C589.9712,-136.8055 597.6559,-134.6577 605,-132.5 605.2205,-132.4352 639.7811,-120.9141 670.7872,-110.5762"/>
<polygon fill="#191970" stroke="#191970" points="581.3071,-135.5199 572.5448,-141.4758 583.1087,-142.2841 581.3071,-135.5199"/>
</g>
<!-- Node31&#45;&gt;Node6 -->
<g id="edge34" class="edge">
<title>Node31&#45;&gt;Node6</title>
<path fill="none" stroke="#191970" d="M359.5192,-412.9111C364.0992,-414.0528 368.6335,-415.2522 373,-416.5 389.3564,-421.1743 392.3036,-426.2421 409,-429.5 587.2665,-464.2848 808.8533,-454.1908 876.7632,-449.9424"/>
<polygon fill="#191970" stroke="#191970" points="360.0072,-409.4292 349.4674,-410.5076 358.3792,-416.2373 360.0072,-409.4292"/>
</g>
<!-- Node33 -->
<g id="node33" class="node">
<title>Node33</title>
<g id="a_node33"><a xlink:href="../../d6/d8a/classgenfit_1_1Track.html#af7557944de667f7bb312c3f960d09096" target="_top" xlink:title="Make track ready to be fitted in reverse direction.">
<polygon fill="none" stroke="#000000" points="432,-102.5 432,-122.5 582,-122.5 582,-102.5 432,-102.5"/>
<text text-anchor="middle" x="507" y="-109.5" font-family="FreeSans" font-size="10.00" fill="#000000">genfit::Track::reverseTrack</text>
</a>
</g>
</g>
<!-- Node32&#45;&gt;Node33 -->
<g id="edge36" class="edge">
<title>Node32&#45;&gt;Node33</title>
<path fill="none" stroke="#191970" d="M330.8151,-172.026C352.2787,-158.8632 381.3662,-142.6469 409,-132.5 419.9213,-128.4898 431.8386,-125.2088 443.4826,-122.5499"/>
<polygon fill="#191970" stroke="#191970" points="328.7437,-169.1929 322.1097,-177.4536 332.4473,-175.1329 328.7437,-169.1929"/>
</g>
<!-- Node35 -->
<g id="node35" class="node">
<title>Node35</title>
<g id="a_node35"><a xlink:href="../../d8/d26/classgenfit_1_1KalmanFitterRefTrack.html#ad3a24181b5370cc95f01f49ea148c011" target="_top" xlink:title="genfit::KalmanFitterRefTrack\l::processTrackWithRep">
<polygon fill="none" stroke="#000000" points="427,-51.5 427,-83.5 587,-83.5 587,-51.5 427,-51.5"/>
<text text-anchor="start" x="435" y="-70.5" font-family="FreeSans" font-size="10.00" fill="#000000">genfit::KalmanFitterRefTrack</text>
<text text-anchor="middle" x="507" y="-58.5" font-family="FreeSans" font-size="10.00" fill="#000000">::processTrackWithRep</text>
</a>
</g>
</g>
<!-- Node34&#45;&gt;Node35 -->
<g id="edge38" class="edge">
<title>Node34&#45;&gt;Node35</title>
<path fill="none" stroke="#191970" d="M361.0172,-67.5C381.7744,-67.5 405.1385,-67.5 426.9888,-67.5"/>
<polygon fill="#191970" stroke="#191970" points="360.7396,-64.0001 350.7395,-67.5 360.7395,-71.0001 360.7396,-64.0001"/>
</g>
<!-- Node36 -->
<g id="node36" class="node">
<title>Node36</title>
<g id="a_node36"><a xlink:href="../../d1/dc8/classgenfit_1_1GblFitter.html#a3f041e8b52448d6e55992a6c0e3136d7" target="_top" xlink:title="Sort hits in track by arc&#45;len using extrapolation.">
<polygon fill="none" stroke="#000000" points="456.5,-.5 456.5,-32.5 557.5,-32.5 557.5,-.5 456.5,-.5"/>
<text text-anchor="start" x="464.5" y="-19.5" font-family="FreeSans" font-size="10.00" fill="#000000">genfit::GblFitter::</text>
<text text-anchor="middle" x="507" y="-7.5" font-family="FreeSans" font-size="10.00" fill="#000000">sortHits</text>
</a>
</g>
</g>
<!-- Node34&#45;&gt;Node36 -->
<g id="edge39" class="edge">
<title>Node34&#45;&gt;Node36</title>
<path fill="none" stroke="#191970" d="M349.073,-55.0372C381.6377,-47.0908 423.6716,-36.8337 456.186,-28.8996"/>
<polygon fill="#191970" stroke="#191970" points="348.1769,-51.6531 339.2917,-57.424 349.8364,-58.4536 348.1769,-51.6531"/>
</g>
</g>
</svg>
