<?xml version="1.0" encoding="UTF-8" standalone="no"?>
<!DOCTYPE svg PUBLIC "-//W3C//DTD SVG 1.1//EN"
 "http://www.w3.org/Graphics/SVG/1.1/DTD/svg11.dtd">
<!-- Generated by graphviz version 2.40.1 (20161225.0304)
 -->
<!-- Title: genfit::DAF::setProbCut Pages: 1 -->
<svg width="460pt" height="41pt"
 viewBox="0.00 0.00 460.00 41.00" xmlns="http://www.w3.org/2000/svg" xmlns:xlink="http://www.w3.org/1999/xlink">
<g id="graph0" class="graph" transform="scale(1 1) rotate(0) translate(4 37)">
<title>genfit::DAF::setProbCut</title>
<!-- Node1 -->
<g id="node1" class="node">
<title>Node1</title>
<polygon fill="#bfbfbf" stroke="#000000" points="0,-6.5 0,-26.5 134,-26.5 134,-6.5 0,-6.5"/>
<text text-anchor="middle" x="67" y="-13.5" font-family="FreeSans" font-size="10.00" fill="#000000">genfit::DAF::setProbCut</text>
</g>
<!-- Node2 -->
<g id="node2" class="node">
<title>Node2</title>
<g id="a_node2"><a xlink:href="../../d6/d60/classgenfit_1_1DAF.html#a312b66e7d49885d9a0d65cf8f8331f24" target="_top" xlink:title="Set the probability cut for the weight calculation for the hits for a specific measurement dimensiona...">
<polygon fill="none" stroke="#000000" points="170,-6.5 170,-26.5 308,-26.5 308,-6.5 170,-6.5"/>
<text text-anchor="middle" x="239" y="-13.5" font-family="FreeSans" font-size="10.00" fill="#000000">genfit::DAF::addProbCut</text>
</a>
</g>
</g>
<!-- Node1&#45;&gt;Node2 -->
<g id="edge1" class="edge">
<title>Node1&#45;&gt;Node2</title>
<path fill="none" stroke="#191970" d="M134.4853,-16.5C142.7152,-16.5 151.1826,-16.5 159.5662,-16.5"/>
<polygon fill="#191970" stroke="#191970" points="159.7294,-20.0001 169.7294,-16.5 159.7293,-13.0001 159.7294,-20.0001"/>
</g>
<!-- Node3 -->
<g id="node3" class="node">
<title>Node3</title>
<g id="a_node3"><a xlink:href="../../d8/db3/classgenfit_1_1Exception.html#a13619975a1e1be5c1bd504b254e01f7a" target="_top" xlink:title="Set fatal flag.">
<polygon fill="none" stroke="#000000" points="344,-.5 344,-32.5 452,-32.5 452,-.5 344,-.5"/>
<text text-anchor="start" x="352" y="-19.5" font-family="FreeSans" font-size="10.00" fill="#000000">genfit::Exception::</text>
<text text-anchor="middle" x="398" y="-7.5" font-family="FreeSans" font-size="10.00" fill="#000000">setFatal</text>
</a>
</g>
</g>
<!-- Node2&#45;&gt;Node3 -->
<g id="edge2" class="edge">
<title>Node2&#45;&gt;Node3</title>
<path fill="none" stroke="#191970" d="M308.2772,-16.5C316.7255,-16.5 325.3305,-16.5 333.7019,-16.5"/>
<polygon fill="#191970" stroke="#191970" points="333.7711,-20.0001 343.771,-16.5 333.771,-13.0001 333.7711,-20.0001"/>
</g>
</g>
</svg>
