<?xml version="1.0" encoding="UTF-8" standalone="no"?>
<!DOCTYPE svg PUBLIC "-//W3C//DTD SVG 1.1//EN"
 "http://www.w3.org/Graphics/SVG/1.1/DTD/svg11.dtd">
<!-- Generated by graphviz version 2.40.1 (20161225.0304)
 -->
<!-- Title: TrkrClusterContainer::findCluster Pages: 1 -->
<svg width="919pt" height="838pt"
 viewBox="0.00 0.00 919.00 838.00" xmlns="http://www.w3.org/2000/svg" xmlns:xlink="http://www.w3.org/1999/xlink">
<g id="graph0" class="graph" transform="scale(1 1) rotate(0) translate(4 834)">
<title>TrkrClusterContainer::findCluster</title>
<!-- Node1 -->
<g id="node1" class="node">
<title>Node1</title>
<polygon fill="#bfbfbf" stroke="#000000" points="0,-411.5 0,-443.5 122,-443.5 122,-411.5 0,-411.5"/>
<text text-anchor="start" x="8" y="-430.5" font-family="FreeSans" font-size="10.00" fill="#000000">TrkrClusterContainer</text>
<text text-anchor="middle" x="61" y="-418.5" font-family="FreeSans" font-size="10.00" fill="#000000">::findCluster</text>
</g>
<!-- Node2 -->
<g id="node2" class="node">
<title>Node2</title>
<g id="a_node2"><a xlink:href="../../d0/d22/classPHGenFitTrkProp.html#a8b89deb61e783eda84679a04716f0b43" target="_top" xlink:title="PHGenFitTrkProp::check\l_track_exists">
<polygon fill="none" stroke="#000000" points="175.5,-141.5 175.5,-173.5 311.5,-173.5 311.5,-141.5 175.5,-141.5"/>
<text text-anchor="start" x="183.5" y="-160.5" font-family="FreeSans" font-size="10.00" fill="#000000">PHGenFitTrkProp::check</text>
<text text-anchor="middle" x="243.5" y="-148.5" font-family="FreeSans" font-size="10.00" fill="#000000">_track_exists</text>
</a>
</g>
</g>
<!-- Node1&#45;&gt;Node2 -->
<g id="edge1" class="edge">
<title>Node1&#45;&gt;Node2</title>
<path fill="none" stroke="#191970" d="M63.8432,-401.3412C70.6797,-351.3827 92.6414,-242.0753 158,-182.5 163.1433,-177.8118 169.1203,-173.9993 175.4789,-170.8995"/>
<polygon fill="#191970" stroke="#191970" points="60.3617,-400.9748 62.5715,-411.3366 67.3057,-401.8584 60.3617,-400.9748"/>
</g>
<!-- Node5 -->
<g id="node5" class="node">
<title>Node5</title>
<g id="a_node5"><a xlink:href="../../dc/d41/classConversion.html#acc7b79ee4ec15a4802da1edfdd54b0cc" target="_top" xlink:title="Conversion::dist">
<polygon fill="none" stroke="#000000" points="194,-758.5 194,-778.5 293,-778.5 293,-758.5 194,-758.5"/>
<text text-anchor="middle" x="243.5" y="-765.5" font-family="FreeSans" font-size="10.00" fill="#000000">Conversion::dist</text>
</a>
</g>
</g>
<!-- Node1&#45;&gt;Node5 -->
<g id="edge4" class="edge">
<title>Node1&#45;&gt;Node5</title>
<path fill="none" stroke="#191970" d="M65.4466,-453.9259C77.6532,-523.353 113.7364,-708.3934 158,-749.5 167.6937,-758.5023 180.6734,-763.5802 193.5861,-766.3614"/>
<polygon fill="#191970" stroke="#191970" points="68.8508,-453.0714 63.6949,-443.8157 61.9535,-454.2664 68.8508,-453.0714"/>
</g>
<!-- Node6 -->
<g id="node6" class="node">
<title>Node6</title>
<g id="a_node6"><a xlink:href="../../d8/dd4/classPHHoughSeeding.html#a61550a59cd3a34af03c43572e28274cb" target="_top" xlink:title="code to translate back to the SVTX universe">
<polygon fill="none" stroke="#000000" points="171.5,-797.5 171.5,-829.5 315.5,-829.5 315.5,-797.5 171.5,-797.5"/>
<text text-anchor="start" x="179.5" y="-816.5" font-family="FreeSans" font-size="10.00" fill="#000000">PHHoughSeeding::export</text>
<text text-anchor="middle" x="243.5" y="-804.5" font-family="FreeSans" font-size="10.00" fill="#000000">_output</text>
</a>
</g>
</g>
<!-- Node1&#45;&gt;Node6 -->
<g id="edge5" class="edge">
<title>Node1&#45;&gt;Node6</title>
<path fill="none" stroke="#191970" d="M64.7036,-453.8941C75.7063,-528.7033 110.4198,-739.8628 158,-788.5 161.8933,-792.4798 166.3825,-795.8347 171.2228,-798.6617"/>
<polygon fill="#191970" stroke="#191970" points="68.1508,-453.2767 63.2536,-443.8816 61.223,-454.28 68.1508,-453.2767"/>
</g>
<!-- Node8 -->
<g id="node8" class="node">
<title>Node8</title>
<g id="a_node8"><a xlink:href="../../d6/d11/classSvtxEvaluator.html#ace95fef2b7b4ad8b797f6695e053dd6e" target="_top" xlink:title="dump the evaluator information into ntuple for external analysis">
<polygon fill="none" stroke="#000000" points="173,-668.5 173,-700.5 314,-700.5 314,-668.5 173,-668.5"/>
<text text-anchor="start" x="181" y="-687.5" font-family="FreeSans" font-size="10.00" fill="#000000">SvtxEvaluator::fillOutput</text>
<text text-anchor="middle" x="243.5" y="-675.5" font-family="FreeSans" font-size="10.00" fill="#000000">Ntuples</text>
</a>
</g>
</g>
<!-- Node1&#45;&gt;Node8 -->
<g id="edge7" class="edge">
<title>Node1&#45;&gt;Node8</title>
<path fill="none" stroke="#191970" d="M64.4999,-453.6364C72.3145,-501.5802 95.6757,-603.767 158,-659.5 162.3807,-663.4174 167.3448,-666.7227 172.6225,-669.5112"/>
<polygon fill="#191970" stroke="#191970" points="67.9568,-453.0877 62.9835,-443.7327 61.0374,-454.1473 67.9568,-453.0877"/>
</g>
<!-- Node10 -->
<g id="node10" class="node">
<title>Node10</title>
<g id="a_node10"><a xlink:href="../../dc/d41/classConversion.html#afc059a25242e8ff2094e4a09c8d03d3c" target="_top" xlink:title="Conversion::firstLayer">
<polygon fill="none" stroke="#000000" points="179.5,-629.5 179.5,-649.5 307.5,-649.5 307.5,-629.5 179.5,-629.5"/>
<text text-anchor="middle" x="243.5" y="-636.5" font-family="FreeSans" font-size="10.00" fill="#000000">Conversion::firstLayer</text>
</a>
</g>
</g>
<!-- Node1&#45;&gt;Node10 -->
<g id="edge9" class="edge">
<title>Node1&#45;&gt;Node10</title>
<path fill="none" stroke="#191970" d="M66.4896,-453.4473C76.7722,-495.3873 103.0487,-577.6868 158,-620.5 164.3574,-625.4531 171.7471,-629.1697 179.4692,-631.9494"/>
<polygon fill="#191970" stroke="#191970" points="69.8962,-452.6438 64.2122,-443.7028 63.0799,-454.2369 69.8962,-452.6438"/>
</g>
<!-- Node11 -->
<g id="node11" class="node">
<title>Node11</title>
<g id="a_node11"><a xlink:href="../../df/d9b/classRecoConversionEval.html#ac7e014fdf47223bef41f1db285534f1c" target="_top" xlink:title="RecoConversionEval\l::hitCuts">
<polygon fill="none" stroke="#000000" points="184,-578.5 184,-610.5 303,-610.5 303,-578.5 184,-578.5"/>
<text text-anchor="start" x="192" y="-597.5" font-family="FreeSans" font-size="10.00" fill="#000000">RecoConversionEval</text>
<text text-anchor="middle" x="243.5" y="-585.5" font-family="FreeSans" font-size="10.00" fill="#000000">::hitCuts</text>
</a>
</g>
</g>
<!-- Node1&#45;&gt;Node11 -->
<g id="edge10" class="edge">
<title>Node1&#45;&gt;Node11</title>
<path fill="none" stroke="#191970" d="M71.773,-452.9797C86.5679,-484.9157 116.1814,-539.1383 158,-569.5 165.7591,-575.1334 174.7749,-579.5045 183.9835,-582.8942"/>
<polygon fill="#191970" stroke="#191970" points="74.954,-451.5196 67.6601,-443.8352 68.57,-454.3909 74.954,-451.5196"/>
</g>
<!-- Node14 -->
<g id="node14" class="node">
<title>Node14</title>
<g id="a_node14"><a xlink:href="../../d6/d17/classSVReco.html#af99925be18cc9afbb2b9936df3a925db" target="_top" xlink:title="Uses the tracking clusters exclusively to make a GFTrack.">
<polygon fill="none" stroke="#000000" points="170,-539.5 170,-559.5 317,-559.5 317,-539.5 170,-539.5"/>
<text text-anchor="middle" x="243.5" y="-546.5" font-family="FreeSans" font-size="10.00" fill="#000000">SVReco::MakeGenFitTrack</text>
</a>
</g>
</g>
<!-- Node1&#45;&gt;Node14 -->
<g id="edge13" class="edge">
<title>Node1&#45;&gt;Node14</title>
<path fill="none" stroke="#191970" d="M79.1871,-451.6434C96.9863,-473.658 126.0247,-505.5527 158,-524.5 168.7769,-530.886 181.2937,-535.7337 193.3705,-539.3772"/>
<polygon fill="#191970" stroke="#191970" points="81.8822,-449.4088 72.933,-443.7374 76.3922,-453.7517 81.8822,-449.4088"/>
</g>
<!-- Node23 -->
<g id="node23" class="node">
<title>Node23</title>
<g id="a_node23"><a xlink:href="../../df/dd7/classTpcPrototypeGenFitTrkFitter.html#a7d58d6e2d72346f8c2eb6aa9cf897c9b" target="_top" xlink:title="Make TpcPrototypeTrack from SvtxTrack, refit by &quot;excluding&quot; each cluster.">
<polygon fill="none" stroke="#000000" points="165,-411.5 165,-443.5 322,-443.5 322,-411.5 165,-411.5"/>
<text text-anchor="start" x="173" y="-430.5" font-family="FreeSans" font-size="10.00" fill="#000000">TpcPrototypeGenFitTrkFitter</text>
<text text-anchor="middle" x="243.5" y="-418.5" font-family="FreeSans" font-size="10.00" fill="#000000">::MakeTpcPrototypeTrack</text>
</a>
</g>
</g>
<!-- Node1&#45;&gt;Node23 -->
<g id="edge24" class="edge">
<title>Node1&#45;&gt;Node23</title>
<path fill="none" stroke="#191970" d="M132.1209,-427.5C142.7973,-427.5 153.8608,-427.5 164.6862,-427.5"/>
<polygon fill="#191970" stroke="#191970" points="132.0236,-424.0001 122.0236,-427.5 132.0236,-431.0001 132.0236,-424.0001"/>
</g>
<!-- Node25 -->
<g id="node25" class="node">
<title>Node25</title>
<g id="a_node25"><a xlink:href="../../df/dd7/classTpcPrototypeGenFitTrkFitter.html#a8861dffacdf05e47efc97b65adbafe32" target="_top" xlink:title="Process Event, called for each event.">
<polygon fill="none" stroke="#000000" points="590.5,-386.5 590.5,-418.5 747.5,-418.5 747.5,-386.5 590.5,-386.5"/>
<text text-anchor="start" x="598.5" y="-405.5" font-family="FreeSans" font-size="10.00" fill="#000000">TpcPrototypeGenFitTrkFitter</text>
<text text-anchor="middle" x="669" y="-393.5" font-family="FreeSans" font-size="10.00" fill="#000000">::process_event</text>
</a>
</g>
</g>
<!-- Node1&#45;&gt;Node25 -->
<g id="edge32" class="edge">
<title>Node1&#45;&gt;Node25</title>
<path fill="none" stroke="#191970" d="M68.4955,-401.5234C80.5809,-365.0605 108.2086,-300.0779 158,-272.5 330.3692,-177.03 574.1415,-334.0135 647.3812,-386.4097"/>
<polygon fill="#191970" stroke="#191970" points="65.0426,-400.8343 65.3645,-411.4243 71.7168,-402.945 65.0426,-400.8343"/>
</g>
<!-- Node26 -->
<g id="node26" class="node">
<title>Node26</title>
<g id="a_node26"><a xlink:href="../../d6/d11/classSvtxEvaluator.html#aef548ddeafdf0ebc949f29e88a741db8" target="_top" xlink:title="print out the ancestry information for detailed diagnosis">
<polygon fill="none" stroke="#000000" points="158,-719.5 158,-739.5 329,-739.5 329,-719.5 158,-719.5"/>
<text text-anchor="middle" x="243.5" y="-726.5" font-family="FreeSans" font-size="10.00" fill="#000000">SvtxEvaluator::printOutputInfo</text>
</a>
</g>
</g>
<!-- Node1&#45;&gt;Node26 -->
<g id="edge27" class="edge">
<title>Node1&#45;&gt;Node26</title>
<path fill="none" stroke="#191970" d="M66.551,-453.6797C80.4679,-516.8895 118.5653,-675.2355 158,-710.5 161.9672,-714.0476 166.4477,-716.9804 171.2272,-719.4"/>
<polygon fill="#191970" stroke="#191970" points="69.9274,-452.735 64.3828,-443.7069 63.0872,-454.2222 69.9274,-452.735"/>
</g>
<!-- Node27 -->
<g id="node27" class="node">
<title>Node27</title>
<g id="a_node27"><a xlink:href="../../d5/da2/classPHTruthTrackSeeding.html#ab0ab67b0de3435bad2eeba92a482753c" target="_top" xlink:title="PHTruthTrackSeeding\l::Process">
<polygon fill="none" stroke="#000000" points="182,-360.5 182,-392.5 305,-392.5 305,-360.5 182,-360.5"/>
<text text-anchor="start" x="190" y="-379.5" font-family="FreeSans" font-size="10.00" fill="#000000">PHTruthTrackSeeding</text>
<text text-anchor="middle" x="243.5" y="-367.5" font-family="FreeSans" font-size="10.00" fill="#000000">::Process</text>
</a>
</g>
</g>
<!-- Node1&#45;&gt;Node27 -->
<g id="edge29" class="edge">
<title>Node1&#45;&gt;Node27</title>
<path fill="none" stroke="#191970" d="M128.4954,-408.6383C147.4347,-403.3456 167.8415,-397.6429 186.1315,-392.5317"/>
<polygon fill="#191970" stroke="#191970" points="127.4331,-405.3009 118.7441,-411.3633 129.3172,-412.0427 127.4331,-405.3009"/>
</g>
<!-- Node28 -->
<g id="node28" class="node">
<title>Node28</title>
<g id="a_node28"><a xlink:href="../../da/df1/classPHRTreeSeeding.html#a0aba948a58d39c1064797b4568d7d811" target="_top" xlink:title="PHRTreeSeeding::Process">
<polygon fill="none" stroke="#000000" points="172,-321.5 172,-341.5 315,-341.5 315,-321.5 172,-321.5"/>
<text text-anchor="middle" x="243.5" y="-328.5" font-family="FreeSans" font-size="10.00" fill="#000000">PHRTreeSeeding::Process</text>
</a>
</g>
</g>
<!-- Node1&#45;&gt;Node28 -->
<g id="edge30" class="edge">
<title>Node1&#45;&gt;Node28</title>
<path fill="none" stroke="#191970" d="M84.3589,-404.3706C102.8616,-387.3203 130.1502,-364.8567 158,-351.5 166.5221,-347.4128 175.9313,-344.1322 185.2981,-341.5073"/>
<polygon fill="#191970" stroke="#191970" points="81.875,-401.9021 76.9911,-411.3042 86.6722,-406.9998 81.875,-401.9021"/>
</g>
<!-- Node29 -->
<g id="node29" class="node">
<title>Node29</title>
<g id="a_node29"><a xlink:href="../../d1/d08/classPHCASeeding.html#aaa4eca2abbf1065bb9b48de9cb683494" target="_top" xlink:title="PHCASeeding::Process">
<polygon fill="none" stroke="#000000" points="178.5,-282.5 178.5,-302.5 308.5,-302.5 308.5,-282.5 178.5,-282.5"/>
<text text-anchor="middle" x="243.5" y="-289.5" font-family="FreeSans" font-size="10.00" fill="#000000">PHCASeeding::Process</text>
</a>
</g>
</g>
<!-- Node1&#45;&gt;Node29 -->
<g id="edge31" class="edge">
<title>Node1&#45;&gt;Node29</title>
<path fill="none" stroke="#191970" d="M75.1494,-402.2835C91.5407,-375.4882 121.0846,-333.9565 158,-311.5 164.2357,-307.7067 171.1388,-304.6679 178.2399,-302.2341"/>
<polygon fill="#191970" stroke="#191970" points="72.0143,-400.7077 69.9095,-411.0914 78.0303,-404.2866 72.0143,-400.7077"/>
</g>
<!-- Node30 -->
<g id="node30" class="node">
<title>Node30</title>
<g id="a_node30"><a xlink:href="../../d9/d3a/classTruthConversionEval.html#a67e322163113e6ef65c9661d0fc80487" target="_top" xlink:title="fills the member fields for all the background trees">
<polygon fill="none" stroke="#000000" points="381.5,-488.5 381.5,-520.5 529.5,-520.5 529.5,-488.5 381.5,-488.5"/>
<text text-anchor="start" x="389.5" y="-507.5" font-family="FreeSans" font-size="10.00" fill="#000000">TruthConversionEval</text>
<text text-anchor="middle" x="455.5" y="-495.5" font-family="FreeSans" font-size="10.00" fill="#000000">::processTrackBackground</text>
</a>
</g>
</g>
<!-- Node1&#45;&gt;Node30 -->
<g id="edge33" class="edge">
<title>Node1&#45;&gt;Node30</title>
<path fill="none" stroke="#191970" d="M99.9406,-448.0103C117.2718,-456.278 138.2029,-465.1161 158,-470.5 232.3676,-490.7244 320.3716,-498.927 381.2784,-502.2491"/>
<polygon fill="#191970" stroke="#191970" points="101.2339,-444.7468 90.7125,-443.5013 98.1608,-451.0361 101.2339,-444.7468"/>
</g>
<!-- Node31 -->
<g id="node31" class="node">
<title>Node31</title>
<g id="a_node31"><a xlink:href="../../de/d25/classPHGenFitTrkFitter.html#ac5276a4b02f10308d87ae16dac18d765" target="_top" xlink:title="PHGenFitTrkFitter::\lReFitTrack">
<polygon fill="none" stroke="#000000" points="189,-192.5 189,-224.5 298,-224.5 298,-192.5 189,-192.5"/>
<text text-anchor="start" x="197" y="-211.5" font-family="FreeSans" font-size="10.00" fill="#000000">PHGenFitTrkFitter::</text>
<text text-anchor="middle" x="243.5" y="-199.5" font-family="FreeSans" font-size="10.00" fill="#000000">ReFitTrack</text>
</a>
</g>
</g>
<!-- Node1&#45;&gt;Node31 -->
<g id="edge35" class="edge">
<title>Node1&#45;&gt;Node31</title>
<path fill="none" stroke="#191970" d="M67.7359,-401.5735C79.4636,-361.3764 107.3576,-284.0198 158,-239.5 166.7753,-231.7856 177.6215,-225.9408 188.6082,-221.5294"/>
<polygon fill="#191970" stroke="#191970" points="64.3078,-400.8358 64.9745,-411.4096 71.0472,-402.7279 64.3078,-400.8358"/>
</g>
<!-- Node33 -->
<g id="node33" class="node">
<title>Node33</title>
<g id="a_node33"><a xlink:href="../../df/dd7/classTpcPrototypeGenFitTrkFitter.html#a8322a858cfb89cab60e4a04e7f82745b" target="_top" xlink:title="TpcPrototypeGenFitTrkFitter\l::ReFitTrack">
<polygon fill="none" stroke="#000000" points="377,-437.5 377,-469.5 534,-469.5 534,-437.5 377,-437.5"/>
<text text-anchor="start" x="385" y="-456.5" font-family="FreeSans" font-size="10.00" fill="#000000">TpcPrototypeGenFitTrkFitter</text>
<text text-anchor="middle" x="455.5" y="-444.5" font-family="FreeSans" font-size="10.00" fill="#000000">::ReFitTrack</text>
</a>
</g>
</g>
<!-- Node1&#45;&gt;Node33 -->
<g id="edge37" class="edge">
<title>Node1&#45;&gt;Node33</title>
<path fill="none" stroke="#191970" d="M120.5194,-446.0754C132.7952,-449.1629 145.7246,-451.8834 158,-453.5 231.7383,-463.2111 316.6519,-461.9972 376.8373,-459.0763"/>
<polygon fill="#191970" stroke="#191970" points="121.4004,-442.6881 110.8394,-443.5346 119.6232,-449.4588 121.4004,-442.6881"/>
</g>
<!-- Node34 -->
<g id="node34" class="node">
<title>Node34</title>
<g id="a_node34"><a xlink:href="../../d0/d22/classPHGenFitTrkProp.html#ac159ce1352f6004a2f51a520c287c339" target="_top" xlink:title="KalmanTrkProp Call.">
<polygon fill="none" stroke="#000000" points="166,-.5 166,-32.5 321,-32.5 321,-.5 166,-.5"/>
<text text-anchor="start" x="174" y="-19.5" font-family="FreeSans" font-size="10.00" fill="#000000">PHGenFitTrkProp::SvtxTrack</text>
<text text-anchor="middle" x="243.5" y="-7.5" font-family="FreeSans" font-size="10.00" fill="#000000">ToPHGenFitTracks</text>
</a>
</g>
</g>
<!-- Node1&#45;&gt;Node34 -->
<g id="edge39" class="edge">
<title>Node1&#45;&gt;Node34</title>
<path fill="none" stroke="#191970" d="M64.1737,-401.3921C74.1601,-323.3794 107.3175,-94.1602 158,-41.5 161.2173,-38.1571 164.8547,-35.2545 168.7696,-32.7347"/>
<polygon fill="#191970" stroke="#191970" points="60.695,-401.0036 62.9189,-411.3624 67.6403,-401.8777 60.695,-401.0036"/>
</g>
<!-- Node35 -->
<g id="node35" class="node">
<title>Node35</title>
<g id="a_node35"><a xlink:href="../../dc/d41/classConversion.html#a28fdaccba605b185044ba980ef51c80f" target="_top" xlink:title="Conversion::trackDLayer">
<polygon fill="none" stroke="#000000" points="173,-51.5 173,-71.5 314,-71.5 314,-51.5 173,-51.5"/>
<text text-anchor="middle" x="243.5" y="-58.5" font-family="FreeSans" font-size="10.00" fill="#000000">Conversion::trackDLayer</text>
</a>
</g>
</g>
<!-- Node1&#45;&gt;Node35 -->
<g id="edge41" class="edge">
<title>Node1&#45;&gt;Node35</title>
<path fill="none" stroke="#191970" d="M64.8447,-401.0238C75.9965,-327.8681 110.5987,-125.4123 158,-80.5 162.3048,-76.4212 167.2824,-73.1442 172.6278,-70.5194"/>
<polygon fill="#191970" stroke="#191970" points="61.3361,-400.8206 63.3141,-411.2291 68.2587,-401.8589 61.3361,-400.8206"/>
</g>
<!-- Node36 -->
<g id="node36" class="node">
<title>Node36</title>
<g id="a_node36"><a xlink:href="../../d0/d22/classPHGenFitTrkProp.html#a8de33eaa04103e00006e98f15ba808a0" target="_top" xlink:title="PHGenFitTrkProp::TrackProp\lPatRec">
<polygon fill="none" stroke="#000000" points="166,-90.5 166,-122.5 321,-122.5 321,-90.5 166,-90.5"/>
<text text-anchor="start" x="174" y="-109.5" font-family="FreeSans" font-size="10.00" fill="#000000">PHGenFitTrkProp::TrackProp</text>
<text text-anchor="middle" x="243.5" y="-97.5" font-family="FreeSans" font-size="10.00" fill="#000000">PatRec</text>
</a>
</g>
</g>
<!-- Node1&#45;&gt;Node36 -->
<g id="edge42" class="edge">
<title>Node1&#45;&gt;Node36</title>
<path fill="none" stroke="#191970" d="M66.2575,-401.6074C79.9016,-336.8083 118.163,-170.0742 158,-131.5 161.5553,-128.0574 165.5577,-125.0848 169.8399,-122.5186"/>
<polygon fill="#191970" stroke="#191970" points="62.8218,-400.9388 64.2117,-411.442 69.6751,-402.3645 62.8218,-400.9388"/>
</g>
<!-- Node3 -->
<g id="node3" class="node">
<title>Node3</title>
<g id="a_node3"><a xlink:href="../../d0/d22/classPHGenFitTrkProp.html#ab11c2e61a1b78278fa4af7cf624c2538" target="_top" xlink:title="Main function.">
<polygon fill="none" stroke="#000000" points="365,-96.5 365,-116.5 546,-116.5 546,-96.5 365,-96.5"/>
<text text-anchor="middle" x="455.5" y="-103.5" font-family="FreeSans" font-size="10.00" fill="#000000">PHGenFitTrkProp::KalmanTrkProp</text>
</a>
</g>
</g>
<!-- Node2&#45;&gt;Node3 -->
<g id="edge2" class="edge">
<title>Node2&#45;&gt;Node3</title>
<path fill="none" stroke="#191970" d="M320.3698,-139.0077C351.8757,-131.4285 387.1038,-122.9538 413.6903,-116.558"/>
<polygon fill="#191970" stroke="#191970" points="319.1911,-135.6914 310.2871,-141.4333 320.8284,-142.4972 319.1911,-135.6914"/>
</g>
<!-- Node4 -->
<g id="node4" class="node">
<title>Node4</title>
<g id="a_node4"><a xlink:href="../../d0/d22/classPHGenFitTrkProp.html#a31e50e42d62a2bf32763652b39dc95b8" target="_top" xlink:title="PHGenFitTrkProp::Process">
<polygon fill="none" stroke="#000000" points="597,-96.5 597,-116.5 741,-116.5 741,-96.5 597,-96.5"/>
<text text-anchor="middle" x="669" y="-103.5" font-family="FreeSans" font-size="10.00" fill="#000000">PHGenFitTrkProp::Process</text>
</a>
</g>
</g>
<!-- Node3&#45;&gt;Node4 -->
<g id="edge3" class="edge">
<title>Node3&#45;&gt;Node4</title>
<path fill="none" stroke="#191970" d="M556.4166,-106.5C570.0335,-106.5 583.7772,-106.5 596.7582,-106.5"/>
<polygon fill="#191970" stroke="#191970" points="556.0433,-103.0001 546.0432,-106.5 556.0432,-110.0001 556.0433,-103.0001"/>
</g>
<!-- Node7 -->
<g id="node7" class="node">
<title>Node7</title>
<g id="a_node7"><a xlink:href="../../d8/dd4/classPHHoughSeeding.html#a8b2c7b85b2bcbe054e071dd6ff624f7d" target="_top" xlink:title="PHHoughSeeding::Process">
<polygon fill="none" stroke="#000000" points="381,-803.5 381,-823.5 530,-823.5 530,-803.5 381,-803.5"/>
<text text-anchor="middle" x="455.5" y="-810.5" font-family="FreeSans" font-size="10.00" fill="#000000">PHHoughSeeding::Process</text>
</a>
</g>
</g>
<!-- Node6&#45;&gt;Node7 -->
<g id="edge6" class="edge">
<title>Node6&#45;&gt;Node7</title>
<path fill="none" stroke="#191970" d="M325.7996,-813.5C343.8943,-813.5 362.9602,-813.5 380.7387,-813.5"/>
<polygon fill="#191970" stroke="#191970" points="325.5694,-810.0001 315.5693,-813.5 325.5693,-817.0001 325.5694,-810.0001"/>
</g>
<!-- Node9 -->
<g id="node9" class="node">
<title>Node9</title>
<g id="a_node9"><a xlink:href="../../d6/d11/classSvtxEvaluator.html#ac66ea4145deb621d9e4fb38cf852dc33" target="_top" xlink:title="SvtxEvaluator::process\l_event">
<polygon fill="none" stroke="#000000" points="389.5,-713.5 389.5,-745.5 521.5,-745.5 521.5,-713.5 389.5,-713.5"/>
<text text-anchor="start" x="397.5" y="-732.5" font-family="FreeSans" font-size="10.00" fill="#000000">SvtxEvaluator::process</text>
<text text-anchor="middle" x="455.5" y="-720.5" font-family="FreeSans" font-size="10.00" fill="#000000">_event</text>
</a>
</g>
</g>
<!-- Node8&#45;&gt;Node9 -->
<g id="edge8" class="edge">
<title>Node8&#45;&gt;Node9</title>
<path fill="none" stroke="#191970" d="M324.1641,-701.6221C345.6264,-706.1778 368.5608,-711.0459 389.1601,-715.4184"/>
<polygon fill="#191970" stroke="#191970" points="324.6017,-698.1371 314.0929,-699.4843 323.1482,-704.9845 324.6017,-698.1371"/>
</g>
<!-- Node12 -->
<g id="node12" class="node">
<title>Node12</title>
<g id="a_node12"><a xlink:href="../../df/d9b/classRecoConversionEval.html#a2e900269740606b5a5931ad276271868" target="_top" xlink:title="RecoConversionEval\l::pairCuts">
<polygon fill="none" stroke="#000000" points="396,-662.5 396,-694.5 515,-694.5 515,-662.5 396,-662.5"/>
<text text-anchor="start" x="404" y="-681.5" font-family="FreeSans" font-size="10.00" fill="#000000">RecoConversionEval</text>
<text text-anchor="middle" x="455.5" y="-669.5" font-family="FreeSans" font-size="10.00" fill="#000000">::pairCuts</text>
</a>
</g>
</g>
<!-- Node11&#45;&gt;Node12 -->
<g id="edge11" class="edge">
<title>Node11&#45;&gt;Node12</title>
<path fill="none" stroke="#191970" d="M310.3801,-613.8862C316.7122,-616.0068 323.0025,-618.225 329,-620.5 361.8679,-632.9675 398.2379,-649.9988 423.5116,-662.3788"/>
<polygon fill="#191970" stroke="#191970" points="311.0237,-610.4146 300.4313,-610.6402 308.8524,-617.0694 311.0237,-610.4146"/>
</g>
<!-- Node13 -->
<g id="node13" class="node">
<title>Node13</title>
<g id="a_node13"><a xlink:href="../../df/d9b/classRecoConversionEval.html#a54bb2ea55f01b0d0dc8752fbee1bc237" target="_top" xlink:title="RecoConversionEval\l::process_event">
<polygon fill="none" stroke="#000000" points="792,-662.5 792,-694.5 911,-694.5 911,-662.5 792,-662.5"/>
<text text-anchor="start" x="800" y="-681.5" font-family="FreeSans" font-size="10.00" fill="#000000">RecoConversionEval</text>
<text text-anchor="middle" x="851.5" y="-669.5" font-family="FreeSans" font-size="10.00" fill="#000000">::process_event</text>
</a>
</g>
</g>
<!-- Node12&#45;&gt;Node13 -->
<g id="edge12" class="edge">
<title>Node12&#45;&gt;Node13</title>
<path fill="none" stroke="#191970" d="M525.2932,-695.4786C543.6278,-699.2131 563.4618,-702.6146 582,-704.5 658.9365,-712.3247 679.3487,-714.7477 756,-704.5 771.3286,-702.4507 787.6827,-698.6288 802.4467,-694.5339"/>
<polygon fill="#191970" stroke="#191970" points="525.7851,-692.0056 515.2794,-693.3771 524.3473,-698.8564 525.7851,-692.0056"/>
</g>
<!-- Node15 -->
<g id="node15" class="node">
<title>Node15</title>
<g id="a_node15"><a xlink:href="../../d6/d17/classSVReco.html#a19081506d2161465fdf3f36527aa0e18" target="_top" xlink:title="Initialization, called for initialization at each event.">
<polygon fill="none" stroke="#000000" points="402.5,-539.5 402.5,-559.5 508.5,-559.5 508.5,-539.5 402.5,-539.5"/>
<text text-anchor="middle" x="455.5" y="-546.5" font-family="FreeSans" font-size="10.00" fill="#000000">SVReco::InitEvent</text>
</a>
</g>
</g>
<!-- Node14&#45;&gt;Node15 -->
<g id="edge14" class="edge">
<title>Node14&#45;&gt;Node15</title>
<path fill="none" stroke="#191970" d="M327.0569,-549.5C352.4549,-549.5 379.6546,-549.5 402.4554,-549.5"/>
<polygon fill="#191970" stroke="#191970" points="327.0524,-546.0001 317.0523,-549.5 327.0523,-553.0001 327.0524,-546.0001"/>
</g>
<!-- Node19 -->
<g id="node19" class="node">
<title>Node19</title>
<g id="a_node19"><a xlink:href="../../d6/d17/classSVReco.html#aed33c3da67bd3f1b7c3c73127b8187ea" target="_top" xlink:title="SVReco::refitTrack">
<polygon fill="none" stroke="#000000" points="401.5,-604.5 401.5,-624.5 509.5,-624.5 509.5,-604.5 401.5,-604.5"/>
<text text-anchor="middle" x="455.5" y="-611.5" font-family="FreeSans" font-size="10.00" fill="#000000">SVReco::refitTrack</text>
</a>
</g>
</g>
<!-- Node14&#45;&gt;Node19 -->
<g id="edge19" class="edge">
<title>Node14&#45;&gt;Node19</title>
<path fill="none" stroke="#191970" d="M300.6034,-561.9198C310.1335,-564.2604 319.8815,-566.8208 329,-569.5 364.3361,-579.8825 404.2406,-594.5905 429.6142,-604.3298"/>
<polygon fill="#191970" stroke="#191970" points="301.3271,-558.4942 290.7865,-559.5645 299.6939,-565.301 301.3271,-558.4942"/>
</g>
<!-- Node16 -->
<g id="node16" class="node">
<title>Node16</title>
<g id="a_node16"><a xlink:href="../../df/d9b/classRecoConversionEval.html#ab5e60cc47b4b3d33f9fdb4a83c2ff775" target="_top" xlink:title="RecoConversionEval\l::doNodePointers">
<polygon fill="none" stroke="#000000" points="609.5,-533.5 609.5,-565.5 728.5,-565.5 728.5,-533.5 609.5,-533.5"/>
<text text-anchor="start" x="617.5" y="-552.5" font-family="FreeSans" font-size="10.00" fill="#000000">RecoConversionEval</text>
<text text-anchor="middle" x="669" y="-540.5" font-family="FreeSans" font-size="10.00" fill="#000000">::doNodePointers</text>
</a>
</g>
</g>
<!-- Node15&#45;&gt;Node16 -->
<g id="edge15" class="edge">
<title>Node15&#45;&gt;Node16</title>
<path fill="none" stroke="#191970" d="M518.8659,-549.5C547.5382,-549.5 581.2422,-549.5 609.4441,-549.5"/>
<polygon fill="#191970" stroke="#191970" points="518.5496,-546.0001 508.5496,-549.5 518.5496,-553.0001 518.5496,-546.0001"/>
</g>
<!-- Node17 -->
<g id="node17" class="node">
<title>Node17</title>
<g id="a_node17"><a xlink:href="../../d2/d6d/classVtxTest.html#ad1a3b9d5e730a3ba75f13a084e21bee5" target="_top" xlink:title="VtxTest::process_event">
<polygon fill="none" stroke="#000000" points="602,-494.5 602,-514.5 736,-514.5 736,-494.5 602,-494.5"/>
<text text-anchor="middle" x="669" y="-501.5" font-family="FreeSans" font-size="10.00" fill="#000000">VtxTest::process_event</text>
</a>
</g>
</g>
<!-- Node15&#45;&gt;Node17 -->
<g id="edge17" class="edge">
<title>Node15&#45;&gt;Node17</title>
<path fill="none" stroke="#191970" d="M513.2553,-537.387C524.1341,-535.1018 535.4157,-532.7297 546,-530.5 570.988,-525.2359 598.8274,-519.3527 621.6923,-514.5159"/>
<polygon fill="#191970" stroke="#191970" points="512.4767,-533.974 503.4095,-539.4545 513.9153,-540.8246 512.4767,-533.974"/>
</g>
<!-- Node18 -->
<g id="node18" class="node">
<title>Node18</title>
<g id="a_node18"><a xlink:href="../../d9/d3a/classTruthConversionEval.html#a9a67c8171296f35dd157daf89108d3fd" target="_top" xlink:title="TruthConversionEval\l::process_event">
<polygon fill="none" stroke="#000000" points="608.5,-443.5 608.5,-475.5 729.5,-475.5 729.5,-443.5 608.5,-443.5"/>
<text text-anchor="start" x="616.5" y="-462.5" font-family="FreeSans" font-size="10.00" fill="#000000">TruthConversionEval</text>
<text text-anchor="middle" x="669" y="-450.5" font-family="FreeSans" font-size="10.00" fill="#000000">::process_event</text>
</a>
</g>
</g>
<!-- Node15&#45;&gt;Node18 -->
<g id="edge18" class="edge">
<title>Node15&#45;&gt;Node18</title>
<path fill="none" stroke="#191970" d="M518.2774,-542.2215C527.9984,-539.4575 537.5904,-535.6733 546,-530.5 567.8152,-517.08 560.7637,-499.8184 582,-485.5 589.9732,-480.1242 599.0863,-475.834 608.3434,-472.4174"/>
<polygon fill="#191970" stroke="#191970" points="517.4013,-538.8328 508.5524,-544.6591 519.1033,-545.6227 517.4013,-538.8328"/>
</g>
<!-- Node16&#45;&gt;Node13 -->
<g id="edge16" class="edge">
<title>Node16&#45;&gt;Node13</title>
<path fill="none" stroke="#191970" d="M738.5498,-566.5452C744.6427,-569.1415 750.5547,-572.1104 756,-575.5 793.0572,-598.5673 824.9828,-639.7338 840.8356,-662.4112"/>
<polygon fill="#191970" stroke="#191970" points="739.4556,-563.1416 728.8674,-562.7651 736.9098,-569.6623 739.4556,-563.1416"/>
</g>
<!-- Node20 -->
<g id="node20" class="node">
<title>Node20</title>
<g id="a_node20"><a xlink:href="../../df/d9b/classRecoConversionEval.html#ae0025d84438ba3f29cc99ec09cbb9f5b" target="_top" xlink:title="Uses _vertexer to refit.">
<polygon fill="none" stroke="#000000" points="609.5,-662.5 609.5,-694.5 728.5,-694.5 728.5,-662.5 609.5,-662.5"/>
<text text-anchor="start" x="617.5" y="-681.5" font-family="FreeSans" font-size="10.00" fill="#000000">RecoConversionEval</text>
<text text-anchor="middle" x="669" y="-669.5" font-family="FreeSans" font-size="10.00" fill="#000000">::refitTracks</text>
</a>
</g>
</g>
<!-- Node19&#45;&gt;Node20 -->
<g id="edge20" class="edge">
<title>Node19&#45;&gt;Node20</title>
<path fill="none" stroke="#191970" d="M497.1682,-627.5671C521.8063,-635.2383 553.6395,-645.0543 582,-653.5 591.7901,-656.4155 602.2174,-659.4622 612.3272,-662.3854"/>
<polygon fill="#191970" stroke="#191970" points="498.0107,-624.1636 487.4222,-624.5276 495.9266,-630.8462 498.0107,-624.1636"/>
</g>
<!-- Node21 -->
<g id="node21" class="node">
<title>Node21</title>
<g id="a_node21"><a xlink:href="../../dc/d41/classConversion.html#a5a8976da958375a2e66f9c35017fb7be" target="_top" xlink:title="Uses recoVertex and.">
<polygon fill="none" stroke="#000000" points="603,-623.5 603,-643.5 735,-643.5 735,-623.5 603,-623.5"/>
<text text-anchor="middle" x="669" y="-630.5" font-family="FreeSans" font-size="10.00" fill="#000000">Conversion::refitTracks</text>
</a>
</g>
</g>
<!-- Node19&#45;&gt;Node21 -->
<g id="edge22" class="edge">
<title>Node19&#45;&gt;Node21</title>
<path fill="none" stroke="#191970" d="M519.849,-620.2266C546.0437,-622.5577 576.3055,-625.2508 602.6968,-627.5995"/>
<polygon fill="#191970" stroke="#191970" points="519.922,-616.7194 509.6511,-619.3191 519.3014,-623.6918 519.922,-616.7194"/>
</g>
<!-- Node22 -->
<g id="node22" class="node">
<title>Node22</title>
<g id="a_node22"><a xlink:href="../../dc/d41/classConversion.html#a232908ec95e6d7b3bfd8883d19885971" target="_top" xlink:title="Uses the truth vertex and SVReco to improve the fit of reco1 and reco2. Uses.">
<polygon fill="none" stroke="#000000" points="582,-584.5 582,-604.5 756,-604.5 756,-584.5 582,-584.5"/>
<text text-anchor="middle" x="669" y="-591.5" font-family="FreeSans" font-size="10.00" fill="#000000">Conversion::refitTracksTruthVtx</text>
</a>
</g>
</g>
<!-- Node19&#45;&gt;Node22 -->
<g id="edge23" class="edge">
<title>Node19&#45;&gt;Node22</title>
<path fill="none" stroke="#191970" d="M519.6304,-608.4925C539.1434,-606.6646 560.9294,-604.6237 581.6988,-602.6781"/>
<polygon fill="#191970" stroke="#191970" points="519.281,-605.0098 509.6511,-609.4273 519.9339,-611.9793 519.281,-605.0098"/>
</g>
<!-- Node20&#45;&gt;Node13 -->
<g id="edge21" class="edge">
<title>Node20&#45;&gt;Node13</title>
<path fill="none" stroke="#191970" d="M738.6601,-678.5C756.1643,-678.5 774.7931,-678.5 791.7639,-678.5"/>
<polygon fill="#191970" stroke="#191970" points="738.5048,-675.0001 728.5048,-678.5 738.5048,-682.0001 738.5048,-675.0001"/>
</g>
<!-- Node24 -->
<g id="node24" class="node">
<title>Node24</title>
<g id="a_node24"><a xlink:href="../../df/dd7/classTpcPrototypeGenFitTrkFitter.html#aaae0db362446e0098c4f4dbfa6714812" target="_top" xlink:title="TpcPrototypeGenFitTrkFitter\l::fill_eval_tree">
<polygon fill="none" stroke="#000000" points="377,-386.5 377,-418.5 534,-418.5 534,-386.5 377,-386.5"/>
<text text-anchor="start" x="385" y="-405.5" font-family="FreeSans" font-size="10.00" fill="#000000">TpcPrototypeGenFitTrkFitter</text>
<text text-anchor="middle" x="455.5" y="-393.5" font-family="FreeSans" font-size="10.00" fill="#000000">::fill_eval_tree</text>
</a>
</g>
</g>
<!-- Node23&#45;&gt;Node24 -->
<g id="edge25" class="edge">
<title>Node23&#45;&gt;Node24</title>
<path fill="none" stroke="#191970" d="M332.3181,-417.0262C347.1479,-415.2774 362.4386,-413.4742 376.9873,-411.7586"/>
<polygon fill="#191970" stroke="#191970" points="331.661,-413.5793 322.1397,-418.2264 332.4808,-420.5311 331.661,-413.5793"/>
</g>
<!-- Node24&#45;&gt;Node25 -->
<g id="edge26" class="edge">
<title>Node24&#45;&gt;Node25</title>
<path fill="none" stroke="#191970" d="M544.4994,-402.5C559.6715,-402.5 575.3357,-402.5 590.2195,-402.5"/>
<polygon fill="#191970" stroke="#191970" points="544.09,-399.0001 534.09,-402.5 544.0899,-406.0001 544.09,-399.0001"/>
</g>
<!-- Node26&#45;&gt;Node9 -->
<g id="edge28" class="edge">
<title>Node26&#45;&gt;Node9</title>
<path fill="none" stroke="#191970" d="M339.5616,-729.5C356.4308,-729.5 373.6386,-729.5 389.456,-729.5"/>
<polygon fill="#191970" stroke="#191970" points="339.1175,-726.0001 329.1174,-729.5 339.1174,-733.0001 339.1175,-726.0001"/>
</g>
<!-- Node30&#45;&gt;Node18 -->
<g id="edge34" class="edge">
<title>Node30&#45;&gt;Node18</title>
<path fill="none" stroke="#191970" d="M539.6654,-486.7602C562.649,-481.9159 587.0965,-476.763 608.4774,-472.2565"/>
<polygon fill="#191970" stroke="#191970" points="538.6359,-483.4002 529.5728,-488.8875 540.0796,-490.2497 538.6359,-483.4002"/>
</g>
<!-- Node32 -->
<g id="node32" class="node">
<title>Node32</title>
<g id="a_node32"><a xlink:href="../../de/d25/classPHGenFitTrkFitter.html#a2e088a68ab24c5b89b902205f877f9d6" target="_top" xlink:title="Process Event, called for each event.">
<polygon fill="none" stroke="#000000" points="401,-192.5 401,-224.5 510,-224.5 510,-192.5 401,-192.5"/>
<text text-anchor="start" x="409" y="-211.5" font-family="FreeSans" font-size="10.00" fill="#000000">PHGenFitTrkFitter::</text>
<text text-anchor="middle" x="455.5" y="-199.5" font-family="FreeSans" font-size="10.00" fill="#000000">process_event</text>
</a>
</g>
</g>
<!-- Node31&#45;&gt;Node32 -->
<g id="edge36" class="edge">
<title>Node31&#45;&gt;Node32</title>
<path fill="none" stroke="#191970" d="M308.3199,-208.5C337.8759,-208.5 372.4897,-208.5 400.7217,-208.5"/>
<polygon fill="#191970" stroke="#191970" points="308.0953,-205.0001 298.0953,-208.5 308.0952,-212.0001 308.0953,-205.0001"/>
</g>
<!-- Node33&#45;&gt;Node25 -->
<g id="edge38" class="edge">
<title>Node33&#45;&gt;Node25</title>
<path fill="none" stroke="#191970" d="M532.6524,-435.0702C555.2533,-429.6713 579.7761,-423.8134 601.7117,-418.5736"/>
<polygon fill="#191970" stroke="#191970" points="531.6728,-431.7056 522.7597,-437.4333 533.2993,-438.514 531.6728,-431.7056"/>
</g>
<!-- Node34&#45;&gt;Node3 -->
<g id="edge40" class="edge">
<title>Node34&#45;&gt;Node3</title>
<path fill="none" stroke="#191970" d="M313.402,-35.742C318.7214,-37.57 323.9724,-39.4945 329,-41.5 369.5933,-57.6928 414.5261,-82.5668 438.3923,-96.3766"/>
<polygon fill="#191970" stroke="#191970" points="314.38,-32.379 303.7867,-32.5589 312.1801,-39.0244 314.38,-32.379"/>
</g>
<!-- Node36&#45;&gt;Node3 -->
<g id="edge43" class="edge">
<title>Node36&#45;&gt;Node3</title>
<path fill="none" stroke="#191970" d="M331.3136,-106.5C342.3849,-106.5 353.7291,-106.5 364.8434,-106.5"/>
<polygon fill="#191970" stroke="#191970" points="331.2372,-103.0001 321.2372,-106.5 331.2371,-110.0001 331.2372,-103.0001"/>
</g>
</g>
</svg>
