<?xml version="1.0" encoding="UTF-8" standalone="no"?>
<!DOCTYPE svg PUBLIC "-//W3C//DTD SVG 1.1//EN"
 "http://www.w3.org/Graphics/SVG/1.1/DTD/svg11.dtd">
<!-- Generated by graphviz version 2.40.1 (20161225.0304)
 -->
<!-- Title: gmin Pages: 1 -->
<svg width="1025pt" height="452pt"
 viewBox="0.00 0.00 1025.00 452.00" xmlns="http://www.w3.org/2000/svg" xmlns:xlink="http://www.w3.org/1999/xlink">
<g id="graph0" class="graph" transform="scale(1 1) rotate(0) translate(4 448)">
<title>gmin</title>
<!-- Node1 -->
<g id="node1" class="node">
<title>Node1</title>
<polygon fill="#bfbfbf" stroke="#000000" points="0,-364.5 0,-384.5 41,-384.5 41,-364.5 0,-364.5"/>
<text text-anchor="middle" x="20.5" y="-371.5" font-family="FreeSans" font-size="10.00" fill="#000000">gmin</text>
</g>
<!-- Node2 -->
<g id="node2" class="node">
<title>Node2</title>
<g id="a_node2"><a xlink:href="../../de/de0/matchedfilter_8C.html#ad37474ba23a5f0af2c619aeeaad07526" target="_top" xlink:title="go">
<polygon fill="none" stroke="#000000" points="144,-384.5 144,-404.5 173,-404.5 173,-384.5 144,-384.5"/>
<text text-anchor="middle" x="158.5" y="-391.5" font-family="FreeSans" font-size="10.00" fill="#000000">go</text>
</a>
</g>
</g>
<!-- Node1&#45;&gt;Node2 -->
<g id="edge1" class="edge">
<title>Node1&#45;&gt;Node2</title>
<path fill="none" stroke="#191970" d="M41.16,-377.4942C65.8758,-381.0762 107.2212,-387.0683 133.656,-390.8994"/>
<polygon fill="#191970" stroke="#191970" points="133.2521,-394.3774 143.6507,-392.3479 134.2561,-387.4497 133.2521,-394.3774"/>
</g>
<!-- Node5 -->
<g id="node5" class="node">
<title>Node5</title>
<g id="a_node5"><a xlink:href="../../d3/df2/classgenfit_1_1GFRavePropagator.html#a0534e516b69488120356d8bfa53f6f5b" target="_top" xlink:title="genfit::GFRavePropagator::to">
<polygon fill="none" stroke="#000000" points="77,-345.5 77,-365.5 240,-365.5 240,-345.5 77,-345.5"/>
<text text-anchor="middle" x="158.5" y="-352.5" font-family="FreeSans" font-size="10.00" fill="#000000">genfit::GFRavePropagator::to</text>
</a>
</g>
</g>
<!-- Node1&#45;&gt;Node5 -->
<g id="edge4" class="edge">
<title>Node1&#45;&gt;Node5</title>
<path fill="none" stroke="#191970" d="M41.16,-371.6555C50.8067,-370.3273 62.9866,-368.6504 75.8246,-366.8829"/>
<polygon fill="#191970" stroke="#191970" points="76.3099,-370.3491 85.739,-365.5178 75.3551,-363.4146 76.3099,-370.3491"/>
</g>
<!-- Node3 -->
<g id="node3" class="node">
<title>Node3</title>
<g id="a_node3"><a xlink:href="../../de/de0/matchedfilter_8C.html#a3f4d763c3fdd217c038a53ba4ca5b98a" target="_top" xlink:title="meanw">
<polygon fill="none" stroke="#000000" points="324.5,-423.5 324.5,-443.5 377.5,-443.5 377.5,-423.5 324.5,-423.5"/>
<text text-anchor="middle" x="351" y="-430.5" font-family="FreeSans" font-size="10.00" fill="#000000">meanw</text>
</a>
</g>
</g>
<!-- Node2&#45;&gt;Node3 -->
<g id="edge2" class="edge">
<title>Node2&#45;&gt;Node3</title>
<path fill="none" stroke="#191970" d="M173.2855,-397.4955C203.2162,-403.5594 271.7528,-417.4447 314.4302,-426.091"/>
<polygon fill="#191970" stroke="#191970" points="313.9273,-429.5602 324.4232,-428.1156 315.3173,-422.6996 313.9273,-429.5602"/>
</g>
<!-- Node4 -->
<g id="node4" class="node">
<title>Node4</title>
<g id="a_node4"><a xlink:href="../../de/de0/matchedfilter_8C.html#ac662fab4d6569f9ab320da1b95bcd663" target="_top" xlink:title="round">
<polygon fill="none" stroke="#000000" points="328.5,-384.5 328.5,-404.5 373.5,-404.5 373.5,-384.5 328.5,-384.5"/>
<text text-anchor="middle" x="351" y="-391.5" font-family="FreeSans" font-size="10.00" fill="#000000">round</text>
</a>
</g>
</g>
<!-- Node2&#45;&gt;Node4 -->
<g id="edge3" class="edge">
<title>Node2&#45;&gt;Node4</title>
<path fill="none" stroke="#191970" d="M173.2855,-394.5C204.1269,-394.5 275.9591,-394.5 318.252,-394.5"/>
<polygon fill="#191970" stroke="#191970" points="318.3251,-398.0001 328.3251,-394.5 318.325,-391.0001 318.3251,-398.0001"/>
</g>
<!-- Node6 -->
<g id="node6" class="node">
<title>Node6</title>
<g id="a_node6"><a xlink:href="../../dc/d22/namespacegenfit.html#aec5c8cb927a354edfb23af80108b69d4" target="_top" xlink:title="genfit::PlaneToGFDetPlane">
<polygon fill="none" stroke="#000000" points="276,-345.5 276,-365.5 426,-365.5 426,-345.5 276,-345.5"/>
<text text-anchor="middle" x="351" y="-352.5" font-family="FreeSans" font-size="10.00" fill="#000000">genfit::PlaneToGFDetPlane</text>
</a>
</g>
</g>
<!-- Node5&#45;&gt;Node6 -->
<g id="edge5" class="edge">
<title>Node5&#45;&gt;Node6</title>
<path fill="none" stroke="#191970" d="M240.1373,-355.5C248.681,-355.5 257.3819,-355.5 265.9623,-355.5"/>
<polygon fill="#191970" stroke="#191970" points="265.963,-359.0001 275.9629,-355.5 265.9629,-352.0001 265.963,-359.0001"/>
</g>
<!-- Node9 -->
<g id="node9" class="node">
<title>Node9</title>
<g id="a_node9"><a xlink:href="../../dc/d22/namespacegenfit.html#a16248965fc33843bb4f2d9bd8b0a7ce7" target="_top" xlink:title="genfit::GFTrackToTrack">
<polygon fill="none" stroke="#000000" points="286,-185.5 286,-205.5 416,-205.5 416,-185.5 286,-185.5"/>
<text text-anchor="middle" x="351" y="-192.5" font-family="FreeSans" font-size="10.00" fill="#000000">genfit::GFTrackToTrack</text>
</a>
</g>
</g>
<!-- Node5&#45;&gt;Node9 -->
<g id="edge8" class="edge">
<title>Node5&#45;&gt;Node9</title>
<path fill="none" stroke="#191970" d="M170.5417,-345.4913C202.8164,-318.6656 291.4971,-244.957 331.2586,-211.9085"/>
<polygon fill="#191970" stroke="#191970" points="333.5096,-214.5886 338.9628,-205.5049 329.0352,-209.2053 333.5096,-214.5886"/>
</g>
<!-- Node7 -->
<g id="node7" class="node">
<title>Node7</title>
<g id="a_node7"><a xlink:href="../../dc/d22/namespacegenfit.html#ad8550f9eaa6237f8ddf48aefd57dfe58" target="_top" xlink:title="genfit::Point3DToTVector3">
<polygon fill="none" stroke="#000000" points="473.5,-384.5 473.5,-404.5 620.5,-404.5 620.5,-384.5 473.5,-384.5"/>
<text text-anchor="middle" x="547" y="-391.5" font-family="FreeSans" font-size="10.00" fill="#000000">genfit::Point3DToTVector3</text>
</a>
</g>
</g>
<!-- Node6&#45;&gt;Node7 -->
<g id="edge6" class="edge">
<title>Node6&#45;&gt;Node7</title>
<path fill="none" stroke="#191970" d="M401.4749,-365.5435C427.5377,-370.7294 459.5178,-377.0928 486.8544,-382.5323"/>
<polygon fill="#191970" stroke="#191970" points="486.2054,-385.9717 496.6962,-384.4906 487.5715,-379.1062 486.2054,-385.9717"/>
</g>
<!-- Node8 -->
<g id="node8" class="node">
<title>Node8</title>
<g id="a_node8"><a xlink:href="../../dc/d22/namespacegenfit.html#ad3ecb92a152c9ea7f5290e3653910473" target="_top" xlink:title="genfit::Vector3DToTVector3">
<polygon fill="none" stroke="#000000" points="470,-345.5 470,-365.5 624,-365.5 624,-345.5 470,-345.5"/>
<text text-anchor="middle" x="547" y="-352.5" font-family="FreeSans" font-size="10.00" fill="#000000">genfit::Vector3DToTVector3</text>
</a>
</g>
</g>
<!-- Node6&#45;&gt;Node8 -->
<g id="edge7" class="edge">
<title>Node6&#45;&gt;Node8</title>
<path fill="none" stroke="#191970" d="M426.2182,-355.5C437.1284,-355.5 448.4374,-355.5 459.5627,-355.5"/>
<polygon fill="#191970" stroke="#191970" points="459.7115,-359.0001 469.7115,-355.5 459.7114,-352.0001 459.7115,-359.0001"/>
</g>
<!-- Node10 -->
<g id="node10" class="node">
<title>Node10</title>
<g id="a_node10"><a xlink:href="../../d6/d8a/classgenfit_1_1Track.html#ad06e7a012624bdb03960826b5c9fcd93" target="_top" xlink:title="Get FitStatus for a AbsTrackRep. Per default, return FitStatus for cardinalRep.">
<polygon fill="none" stroke="#000000" points="670,-370.5 670,-390.5 816,-390.5 816,-370.5 670,-370.5"/>
<text text-anchor="middle" x="743" y="-377.5" font-family="FreeSans" font-size="10.00" fill="#000000">genfit::Track::getFitStatus</text>
</a>
</g>
</g>
<!-- Node9&#45;&gt;Node10 -->
<g id="edge9" class="edge">
<title>Node9&#45;&gt;Node10</title>
<path fill="none" stroke="#191970" d="M358.953,-205.7466C375.6543,-226.5135 416.6037,-273.6152 462,-297.5 530.6023,-333.5944 557.9773,-313.4842 632,-336.5 646.809,-341.1046 682.2256,-355.3574 709.1018,-366.4073"/>
<polygon fill="#191970" stroke="#191970" points="707.984,-369.7322 718.5631,-370.3095 710.6531,-363.261 707.984,-369.7322"/>
</g>
<!-- Node12 -->
<g id="node12" class="node">
<title>Node12</title>
<g id="a_node12"><a xlink:href="../../d0/d8d/classgenfit_1_1FitStatus.html#a56371ce504bee72fcf2f9324ddcb91a8" target="_top" xlink:title="Did the fit converge (in all Points or only partially)?">
<polygon fill="none" stroke="#000000" points="496,-255.5 496,-287.5 598,-287.5 598,-255.5 496,-255.5"/>
<text text-anchor="start" x="504" y="-274.5" font-family="FreeSans" font-size="10.00" fill="#000000">genfit::FitStatus::</text>
<text text-anchor="middle" x="547" y="-262.5" font-family="FreeSans" font-size="10.00" fill="#000000">isFitConverged</text>
</a>
</g>
</g>
<!-- Node9&#45;&gt;Node12 -->
<g id="edge11" class="edge">
<title>Node9&#45;&gt;Node12</title>
<path fill="none" stroke="#191970" d="M370.6838,-205.5987C392.5913,-216.5878 429.2306,-234.2264 462,-246.5 469.7651,-249.4084 478.0288,-252.2004 486.237,-254.7961"/>
<polygon fill="#191970" stroke="#191970" points="485.2266,-258.1471 495.8139,-257.7484 487.2887,-251.4578 485.2266,-258.1471"/>
</g>
<!-- Node13 -->
<g id="node13" class="node">
<title>Node13</title>
<g id="a_node13"><a xlink:href="../../d6/d8a/classgenfit_1_1Track.html#abf156957d701a9a10a02fef8ac54e4d9" target="_top" xlink:title="Shortcut to get FittedStates.">
<polygon fill="none" stroke="#000000" points="482,-204.5 482,-236.5 612,-236.5 612,-204.5 482,-204.5"/>
<text text-anchor="start" x="490" y="-223.5" font-family="FreeSans" font-size="10.00" fill="#000000">genfit::Track::getFitted</text>
<text text-anchor="middle" x="547" y="-211.5" font-family="FreeSans" font-size="10.00" fill="#000000">State</text>
</a>
</g>
</g>
<!-- Node9&#45;&gt;Node13 -->
<g id="edge12" class="edge">
<title>Node9&#45;&gt;Node13</title>
<path fill="none" stroke="#191970" d="M416.2652,-203.8246C434.0237,-206.0898 453.4024,-208.5615 471.6693,-210.8915"/>
<polygon fill="#191970" stroke="#191970" points="471.3234,-214.3756 481.6859,-212.1691 472.2091,-207.4319 471.3234,-214.3756"/>
</g>
<!-- Node18 -->
<g id="node18" class="node">
<title>Node18</title>
<g id="a_node18"><a xlink:href="../../d2/d74/classgenfit_1_1MeasuredStateOnPlane.html#a3aab44a6c7155b8258fa34469bc45bc0" target="_top" xlink:title="genfit::MeasuredStateOnPlane\l::getPosMomCov">
<polygon fill="none" stroke="#000000" points="462,-153.5 462,-185.5 632,-185.5 632,-153.5 462,-153.5"/>
<text text-anchor="start" x="470" y="-172.5" font-family="FreeSans" font-size="10.00" fill="#000000">genfit::MeasuredStateOnPlane</text>
<text text-anchor="middle" x="547" y="-160.5" font-family="FreeSans" font-size="10.00" fill="#000000">::getPosMomCov</text>
</a>
</g>
</g>
<!-- Node9&#45;&gt;Node18 -->
<g id="edge20" class="edge">
<title>Node9&#45;&gt;Node18</title>
<path fill="none" stroke="#191970" d="M416.2652,-186.8424C427.6622,-185.3305 439.7266,-183.7301 451.7361,-182.137"/>
<polygon fill="#191970" stroke="#191970" points="452.3425,-185.5874 461.7954,-180.8027 451.4219,-178.6481 452.3425,-185.5874"/>
</g>
<!-- Node21 -->
<g id="node21" class="node">
<title>Node21</title>
<g id="a_node21"><a xlink:href="../../d0/d8d/classgenfit_1_1FitStatus.html#a7e8ed1d97eec3e3164dc2dd782f5cb85" target="_top" xlink:title="Get the fitted charge.">
<polygon fill="none" stroke="#000000" points="496,-102.5 496,-134.5 598,-134.5 598,-102.5 496,-102.5"/>
<text text-anchor="start" x="504" y="-121.5" font-family="FreeSans" font-size="10.00" fill="#000000">genfit::FitStatus::</text>
<text text-anchor="middle" x="547" y="-109.5" font-family="FreeSans" font-size="10.00" fill="#000000">getCharge</text>
</a>
</g>
</g>
<!-- Node9&#45;&gt;Node21 -->
<g id="edge23" class="edge">
<title>Node9&#45;&gt;Node21</title>
<path fill="none" stroke="#191970" d="M370.7091,-185.4683C392.6388,-174.5378 429.2973,-156.9503 462,-144.5 469.7744,-141.5402 478.0436,-138.6741 486.2545,-135.9934"/>
<polygon fill="#191970" stroke="#191970" points="487.3704,-139.3112 495.8334,-132.9371 485.2427,-132.6424 487.3704,-139.3112"/>
</g>
<!-- Node22 -->
<g id="node22" class="node">
<title>Node22</title>
<g id="a_node22"><a xlink:href="../../d0/d8d/classgenfit_1_1FitStatus.html#abbeeda61574c284f1d762088b3644770" target="_top" xlink:title="Get chi^2 of the fit.">
<polygon fill="none" stroke="#000000" points="496,-51.5 496,-83.5 598,-83.5 598,-51.5 496,-51.5"/>
<text text-anchor="start" x="504" y="-70.5" font-family="FreeSans" font-size="10.00" fill="#000000">genfit::FitStatus::</text>
<text text-anchor="middle" x="547" y="-58.5" font-family="FreeSans" font-size="10.00" fill="#000000">getChi2</text>
</a>
</g>
</g>
<!-- Node9&#45;&gt;Node22 -->
<g id="edge24" class="edge">
<title>Node9&#45;&gt;Node22</title>
<path fill="none" stroke="#191970" d="M359.3598,-185.2053C376.4898,-164.7668 417.7114,-118.8584 462,-93.5 469.4116,-89.2563 477.5913,-85.6323 485.8605,-82.5584"/>
<polygon fill="#191970" stroke="#191970" points="487.2631,-85.7768 495.5683,-79.1985 484.9736,-79.1618 487.2631,-85.7768"/>
</g>
<!-- Node23 -->
<g id="node23" class="node">
<title>Node23</title>
<g id="a_node23"><a xlink:href="../../d0/d8d/classgenfit_1_1FitStatus.html#aa73b3566657ea37bf8ab5102d465025d" target="_top" xlink:title="Get the degrees of freedom of the fit.">
<polygon fill="none" stroke="#000000" points="496,-.5 496,-32.5 598,-32.5 598,-.5 496,-.5"/>
<text text-anchor="start" x="504" y="-19.5" font-family="FreeSans" font-size="10.00" fill="#000000">genfit::FitStatus::</text>
<text text-anchor="middle" x="547" y="-7.5" font-family="FreeSans" font-size="10.00" fill="#000000">getNdf</text>
</a>
</g>
</g>
<!-- Node9&#45;&gt;Node23 -->
<g id="edge25" class="edge">
<title>Node9&#45;&gt;Node23</title>
<path fill="none" stroke="#191970" d="M355.3432,-185.4663C367.7433,-158.02 406.0549,-81.1159 462,-41.5 469.2966,-36.3331 477.6618,-32.2237 486.234,-28.9579"/>
<polygon fill="#191970" stroke="#191970" points="487.6347,-32.1776 495.9545,-25.6179 485.3599,-25.5575 487.6347,-32.1776"/>
</g>
<!-- Node11 -->
<g id="node11" class="node">
<title>Node11</title>
<g id="a_node11"><a xlink:href="../../d6/d8a/classgenfit_1_1Track.html#a402b35300e81a48c7f0b9eb082b1cf24" target="_top" xlink:title="Get cardinal track representation.">
<polygon fill="none" stroke="#000000" points="854,-308.5 854,-328.5 1017,-328.5 1017,-308.5 854,-308.5"/>
<text text-anchor="middle" x="935.5" y="-315.5" font-family="FreeSans" font-size="10.00" fill="#000000">genfit::Track::getCardinalRep</text>
</a>
</g>
</g>
<!-- Node10&#45;&gt;Node11 -->
<g id="edge10" class="edge">
<title>Node10&#45;&gt;Node11</title>
<path fill="none" stroke="#191970" d="M774.3569,-370.4006C807.0772,-359.8622 858.5259,-343.2917 894.4609,-331.7178"/>
<polygon fill="#191970" stroke="#191970" points="895.7111,-334.9923 904.1565,-328.595 893.565,-328.3293 895.7111,-334.9923"/>
</g>
<!-- Node13&#45;&gt;Node11 -->
<g id="edge13" class="edge">
<title>Node13&#45;&gt;Node11</title>
<path fill="none" stroke="#191970" d="M612.198,-234.1119C619.3616,-237.389 626.1618,-241.4551 632,-246.5 660.28,-270.9373 636.4172,-302.5134 668,-322.5 738.2009,-366.9253 840.8917,-347.318 896.4002,-331.4696"/>
<polygon fill="#191970" stroke="#191970" points="897.6015,-334.7642 906.1973,-328.5704 895.6151,-328.0519 897.6015,-334.7642"/>
</g>
<!-- Node14 -->
<g id="node14" class="node">
<title>Node14</title>
<g id="a_node14"><a xlink:href="../../d6/d8a/classgenfit_1_1Track.html#ad8961b1ff4809ccde5f6f100ffbccb9d" target="_top" xlink:title="genfit::Track::getPointWith\lFitterInfo">
<polygon fill="none" stroke="#000000" points="668,-280.5 668,-312.5 818,-312.5 818,-280.5 668,-280.5"/>
<text text-anchor="start" x="676" y="-299.5" font-family="FreeSans" font-size="10.00" fill="#000000">genfit::Track::getPointWith</text>
<text text-anchor="middle" x="743" y="-287.5" font-family="FreeSans" font-size="10.00" fill="#000000">FitterInfo</text>
</a>
</g>
</g>
<!-- Node13&#45;&gt;Node14 -->
<g id="edge14" class="edge">
<title>Node13&#45;&gt;Node14</title>
<path fill="none" stroke="#191970" d="M607.7944,-236.5607C616.0865,-239.4797 624.3645,-242.7936 632,-246.5 649.5241,-255.0066 650.5832,-262.7759 668,-271.5 671.5569,-273.2817 675.2698,-274.9803 679.0577,-276.592"/>
<polygon fill="#191970" stroke="#191970" points="677.998,-279.9381 688.582,-280.4166 680.6065,-273.4422 677.998,-279.9381"/>
</g>
<!-- Node15 -->
<g id="node15" class="node">
<title>Node15</title>
<g id="a_node15"><a xlink:href="../../d8/db3/classgenfit_1_1Exception.html#a13619975a1e1be5c1bd504b254e01f7a" target="_top" xlink:title="Set fatal flag.">
<polygon fill="none" stroke="#000000" points="689,-229.5 689,-261.5 797,-261.5 797,-229.5 689,-229.5"/>
<text text-anchor="start" x="697" y="-248.5" font-family="FreeSans" font-size="10.00" fill="#000000">genfit::Exception::</text>
<text text-anchor="middle" x="743" y="-236.5" font-family="FreeSans" font-size="10.00" fill="#000000">setFatal</text>
</a>
</g>
</g>
<!-- Node13&#45;&gt;Node15 -->
<g id="edge16" class="edge">
<title>Node13&#45;&gt;Node15</title>
<path fill="none" stroke="#191970" d="M612.2652,-228.8246C633.7033,-231.5591 657.5027,-234.5947 678.8569,-237.3185"/>
<polygon fill="#191970" stroke="#191970" points="678.437,-240.7932 688.7995,-238.5867 679.3227,-233.8494 678.437,-240.7932"/>
</g>
<!-- Node16 -->
<g id="node16" class="node">
<title>Node16</title>
<g id="a_node16"><a xlink:href="../../db/d40/classgenfit_1_1TrackPoint.html#ae8b3e743fb436dd6689e0dad4c35ffd9" target="_top" xlink:title="Get fitterInfo for rep. Per default, use cardinal rep.">
<polygon fill="none" stroke="#000000" points="691,-178.5 691,-210.5 795,-210.5 795,-178.5 691,-178.5"/>
<text text-anchor="start" x="699" y="-197.5" font-family="FreeSans" font-size="10.00" fill="#000000">genfit::TrackPoint</text>
<text text-anchor="middle" x="743" y="-185.5" font-family="FreeSans" font-size="10.00" fill="#000000">::getFitterInfo</text>
</a>
</g>
</g>
<!-- Node13&#45;&gt;Node16 -->
<g id="edge17" class="edge">
<title>Node13&#45;&gt;Node16</title>
<path fill="none" stroke="#191970" d="M612.2652,-211.8424C634.2802,-208.922 658.7851,-205.6714 680.5752,-202.7808"/>
<polygon fill="#191970" stroke="#191970" points="681.25,-206.2221 690.7029,-201.4374 680.3295,-199.2829 681.25,-206.2221"/>
</g>
<!-- Node17 -->
<g id="node17" class="node">
<title>Node17</title>
<g id="a_node17"><a xlink:href="../../d9/d8c/classgenfit_1_1AbsFitterInfo.html#a985d0203f46dfbd5dc253bb03b21d76f" target="_top" xlink:title="genfit::AbsFitterInfo\l::getFittedState">
<polygon fill="none" stroke="#000000" points="685,-127.5 685,-159.5 801,-159.5 801,-127.5 685,-127.5"/>
<text text-anchor="start" x="693" y="-146.5" font-family="FreeSans" font-size="10.00" fill="#000000">genfit::AbsFitterInfo</text>
<text text-anchor="middle" x="743" y="-134.5" font-family="FreeSans" font-size="10.00" fill="#000000">::getFittedState</text>
</a>
</g>
</g>
<!-- Node13&#45;&gt;Node17 -->
<g id="edge19" class="edge">
<title>Node13&#45;&gt;Node17</title>
<path fill="none" stroke="#191970" d="M610.575,-204.4043C617.9411,-201.7809 625.2322,-198.8175 632,-195.5 649.7219,-186.8129 650.4901,-178.6068 668,-169.5 672.0289,-167.4046 676.2634,-165.4178 680.5836,-163.5464"/>
<polygon fill="#191970" stroke="#191970" points="682.2042,-166.665 690.1321,-159.6366 679.5516,-160.187 682.2042,-166.665"/>
</g>
<!-- Node14&#45;&gt;Node11 -->
<g id="edge15" class="edge">
<title>Node14&#45;&gt;Node11</title>
<path fill="none" stroke="#191970" d="M818.2526,-305.1003C826.6656,-306.0618 835.3035,-307.049 843.8921,-308.0305"/>
<polygon fill="#191970" stroke="#191970" points="843.6024,-311.5201 853.9352,-309.1783 844.3973,-304.5654 843.6024,-311.5201"/>
</g>
<!-- Node16&#45;&gt;Node11 -->
<g id="edge18" class="edge">
<title>Node16&#45;&gt;Node11</title>
<path fill="none" stroke="#191970" d="M795.31,-209.8862C803.1221,-212.9617 810.9215,-216.4993 818,-220.5 857.7501,-242.9663 897.0939,-279.4452 918.656,-300.9905"/>
<polygon fill="#191970" stroke="#191970" points="916.25,-303.5354 925.7633,-308.199 921.2347,-298.6208 916.25,-303.5354"/>
</g>
<!-- Node19 -->
<g id="node19" class="node">
<title>Node19</title>
<g id="a_node19"><a xlink:href="../../de/dd5/classgenfit_1_1StateOnPlane.html#a14f25e4575846dcb14bd91ddb2a534d2" target="_top" xlink:title="genfit::StateOnPlane\l::getRep">
<polygon fill="none" stroke="#000000" points="682.5,-76.5 682.5,-108.5 803.5,-108.5 803.5,-76.5 682.5,-76.5"/>
<text text-anchor="start" x="690.5" y="-95.5" font-family="FreeSans" font-size="10.00" fill="#000000">genfit::StateOnPlane</text>
<text text-anchor="middle" x="743" y="-83.5" font-family="FreeSans" font-size="10.00" fill="#000000">::getRep</text>
</a>
</g>
</g>
<!-- Node18&#45;&gt;Node19 -->
<g id="edge21" class="edge">
<title>Node18&#45;&gt;Node19</title>
<path fill="none" stroke="#191970" d="M610.575,-153.4043C617.9411,-150.7809 625.2322,-147.8175 632,-144.5 649.7219,-135.8129 650.4901,-127.6068 668,-118.5 672.0289,-116.4046 676.2634,-114.4178 680.5836,-112.5464"/>
<polygon fill="#191970" stroke="#191970" points="682.2042,-115.665 690.1321,-108.6366 679.5516,-109.187 682.2042,-115.665"/>
</g>
<!-- Node20 -->
<g id="node20" class="node">
<title>Node20</title>
<g id="a_node20"><a xlink:href="../../d1/d25/classgenfit_1_1AbsTrackRep.html#ae6f4c4eeb3e4fbadcc930f53e2ca4ad7" target="_top" xlink:title="Translates MeasuredStateOnPlane into 3D position, momentum and 6x6 covariance.">
<polygon fill="none" stroke="#000000" points="684.5,-25.5 684.5,-57.5 801.5,-57.5 801.5,-25.5 684.5,-25.5"/>
<text text-anchor="start" x="692.5" y="-44.5" font-family="FreeSans" font-size="10.00" fill="#000000">genfit::AbsTrackRep</text>
<text text-anchor="middle" x="743" y="-32.5" font-family="FreeSans" font-size="10.00" fill="#000000">::getPosMomCov</text>
</a>
</g>
</g>
<!-- Node18&#45;&gt;Node20 -->
<g id="edge22" class="edge">
<title>Node18&#45;&gt;Node20</title>
<path fill="none" stroke="#191970" d="M618.9696,-153.4165C623.635,-150.8687 628.0414,-147.9178 632,-144.5 660.8996,-119.5482 639.5504,-91.9636 668,-66.5 670.3282,-64.4161 672.8355,-62.5052 675.4715,-60.7529"/>
<polygon fill="#191970" stroke="#191970" points="677.3539,-63.7076 684.267,-55.6789 673.856,-57.6442 677.3539,-63.7076"/>
</g>
</g>
</svg>
