<?xml version="1.0" encoding="UTF-8" standalone="no"?>
<!DOCTYPE svg PUBLIC "-//W3C//DTD SVG 1.1//EN"
 "http://www.w3.org/Graphics/SVG/1.1/DTD/svg11.dtd">
<!-- Generated by graphviz version 2.40.1 (20161225.0304)
 -->
<!-- Title: GenFit/blob/master/test/minimalFittingExample/main2.cc Pages: 1 -->
<svg width="1983pt" height="452pt"
 viewBox="0.00 0.00 1983.35 452.00" xmlns="http://www.w3.org/2000/svg" xmlns:xlink="http://www.w3.org/1999/xlink">
<g id="graph0" class="graph" transform="scale(1 1) rotate(0) translate(4 448)">
<title>GenFit/blob/master/test/minimalFittingExample/main2.cc</title>
<!-- Node1 -->
<g id="node1" class="node">
<title>Node1</title>
<polygon fill="#bfbfbf" stroke="#000000" points="1099.8545,-399.5 1099.8545,-443.5 1258.8545,-443.5 1258.8545,-399.5 1099.8545,-399.5"/>
<text text-anchor="start" x="1107.8545" y="-430.5" font-family="FreeSans" font-size="10.00" fill="#000000">GenFit/blob/master</text>
<text text-anchor="start" x="1107.8545" y="-418.5" font-family="FreeSans" font-size="10.00" fill="#000000">/test/minimalFittingExample</text>
<text text-anchor="middle" x="1179.3545" y="-406.5" font-family="FreeSans" font-size="10.00" fill="#000000">/main2.cc</text>
</g>
<!-- Node2 -->
<g id="node2" class="node">
<title>Node2</title>
<g id="a_node2"><a xlink:href="../../d3/d66/ConstField_8h.html" target="_top" xlink:title="ConstField.h">
<polygon fill="none" stroke="#000000" points="1026.3545,-285.5 1026.3545,-305.5 1104.3545,-305.5 1104.3545,-285.5 1026.3545,-285.5"/>
<text text-anchor="middle" x="1065.3545" y="-292.5" font-family="FreeSans" font-size="10.00" fill="#000000">ConstField.h</text>
</a>
</g>
</g>
<!-- Node1&#45;&gt;Node2 -->
<g id="edge1" class="edge">
<title>Node1&#45;&gt;Node2</title>
<path fill="none" stroke="#191970" d="M1154.8299,-399.4676C1143.3767,-388.8095 1129.7809,-375.6155 1118.3545,-363 1104.0779,-347.2377 1089.2452,-328.0685 1078.9148,-314.1914"/>
<polygon fill="#191970" stroke="#191970" points="1081.5756,-311.9021 1072.8274,-305.9255 1075.9391,-316.0531 1081.5756,-311.9021"/>
</g>
<!-- Node4 -->
<g id="node4" class="node">
<title>Node4</title>
<polygon fill="none" stroke="#bfbfbf" points="871.8545,-57.5 871.8545,-77.5 942.8545,-77.5 942.8545,-57.5 871.8545,-57.5"/>
<text text-anchor="middle" x="907.3545" y="-64.5" font-family="FreeSans" font-size="10.00" fill="#000000">TVector3.h</text>
</g>
<!-- Node1&#45;&gt;Node4 -->
<g id="edge89" class="edge">
<title>Node1&#45;&gt;Node4</title>
<path fill="none" stroke="#191970" d="M1215.5955,-399.3639C1244.888,-379.1519 1284.003,-346.321 1301.3545,-306 1319.9827,-262.7121 1241.2704,-114.7265 1240.3545,-114 1229.2055,-105.1564 1041.7764,-82.7996 953.1282,-72.6518"/>
<polygon fill="#191970" stroke="#191970" points="953.4124,-69.1616 943.0801,-71.5054 952.6188,-76.1165 953.4124,-69.1616"/>
</g>
<!-- Node5 -->
<g id="node5" class="node">
<title>Node5</title>
<g id="a_node5"><a xlink:href="../../d8/d8a/Exception_8h.html" target="_top" xlink:title="Exception.h">
<polygon fill="none" stroke="#000000" points="528.8545,-285.5 528.8545,-305.5 603.8545,-305.5 603.8545,-285.5 528.8545,-285.5"/>
<text text-anchor="middle" x="566.3545" y="-292.5" font-family="FreeSans" font-size="10.00" fill="#000000">Exception.h</text>
</a>
</g>
</g>
<!-- Node1&#45;&gt;Node5 -->
<g id="edge4" class="edge">
<title>Node1&#45;&gt;Node5</title>
<path fill="none" stroke="#191970" d="M1099.7735,-410.6095C1027.3607,-400.1822 917.6953,-383.094 823.3545,-363 747.8502,-346.9181 661.2406,-323.0181 610.3078,-308.393"/>
<polygon fill="#191970" stroke="#191970" points="611.1891,-305.0046 600.6108,-305.5968 609.2495,-311.7306 611.1891,-305.0046"/>
</g>
<!-- Node8 -->
<g id="node8" class="node">
<title>Node8</title>
<polygon fill="none" stroke="#bfbfbf" points="935.8545,-114.5 935.8545,-134.5 984.8545,-134.5 984.8545,-114.5 935.8545,-114.5"/>
<text text-anchor="middle" x="960.3545" y="-121.5" font-family="FreeSans" font-size="10.00" fill="#000000">vector</text>
</g>
<!-- Node1&#45;&gt;Node8 -->
<g id="edge90" class="edge">
<title>Node1&#45;&gt;Node8</title>
<path fill="none" stroke="#191970" d="M1099.7018,-399.6473C1051.1417,-380.9411 998.3545,-348.4329 998.3545,-295.5 998.3545,-295.5 998.3545,-295.5 998.3545,-238.5 998.3545,-203.7644 982.2802,-165.9893 971.0407,-143.8219"/>
<polygon fill="#191970" stroke="#191970" points="974.0476,-142.0201 966.292,-134.8021 967.8536,-145.2812 974.0476,-142.0201"/>
</g>
<!-- Node12 -->
<g id="node12" class="node">
<title>Node12</title>
<g id="a_node12"><a xlink:href="../../d2/de2/FieldManager_8h.html" target="_top" xlink:title="FieldManager.h">
<polygon fill="none" stroke="#000000" points="764.3545,-285.5 764.3545,-305.5 856.3545,-305.5 856.3545,-285.5 764.3545,-285.5"/>
<text text-anchor="middle" x="810.3545" y="-292.5" font-family="FreeSans" font-size="10.00" fill="#000000">FieldManager.h</text>
</a>
</g>
</g>
<!-- Node1&#45;&gt;Node12 -->
<g id="edge11" class="edge">
<title>Node1&#45;&gt;Node12</title>
<path fill="none" stroke="#191970" d="M1099.6184,-415.7906C1013.6578,-408.2295 883.8209,-392.2948 844.3545,-363 828.7742,-351.4352 819.8488,-330.7086 815.0887,-315.2633"/>
<polygon fill="#191970" stroke="#191970" points="818.4552,-314.3051 812.4281,-305.5917 811.7059,-316.1619 818.4552,-314.3051"/>
</g>
<!-- Node16 -->
<g id="node16" class="node">
<title>Node16</title>
<g id="a_node16"><a xlink:href="../../d4/db0/KalmanFitterRefTrack_8h.html" target="_top" xlink:title="KalmanFitterRefTrack.h">
<polygon fill="none" stroke="#000000" points="1160.3545,-285.5 1160.3545,-305.5 1292.3545,-305.5 1292.3545,-285.5 1160.3545,-285.5"/>
<text text-anchor="middle" x="1226.3545" y="-292.5" font-family="FreeSans" font-size="10.00" fill="#000000">KalmanFitterRefTrack.h</text>
</a>
</g>
</g>
<!-- Node1&#45;&gt;Node16 -->
<g id="edge17" class="edge">
<title>Node1&#45;&gt;Node16</title>
<path fill="none" stroke="#191970" d="M1187.6489,-399.2638C1196.5215,-375.4778 1210.4618,-338.1058 1218.9685,-315.3007"/>
<polygon fill="#191970" stroke="#191970" points="1222.3439,-316.2663 1222.5596,-305.6736 1215.7853,-313.8198 1222.3439,-316.2663"/>
</g>
<!-- Node21 -->
<g id="node21" class="node">
<title>Node21</title>
<g id="a_node21"><a xlink:href="../../dc/d73/TrackPoint_8h.html" target="_top" xlink:title="TrackPoint.h">
<polygon fill="none" stroke="#000000" points="1071.3545,-171.5 1071.3545,-191.5 1149.3545,-191.5 1149.3545,-171.5 1071.3545,-171.5"/>
<text text-anchor="middle" x="1110.3545" y="-178.5" font-family="FreeSans" font-size="10.00" fill="#000000">TrackPoint.h</text>
</a>
</g>
</g>
<!-- Node1&#45;&gt;Node21 -->
<g id="edge54" class="edge">
<title>Node1&#45;&gt;Node21</title>
<path fill="none" stroke="#191970" d="M1172.9868,-399.3516C1159.6104,-352.8251 1128.7759,-245.5747 1116.0286,-201.2361"/>
<polygon fill="#191970" stroke="#191970" points="1119.3912,-200.2646 1113.2643,-191.621 1112.6637,-202.1988 1119.3912,-200.2646"/>
</g>
<!-- Node30 -->
<g id="node30" class="node">
<title>Node30</title>
<g id="a_node30"><a xlink:href="../../db/d1a/StateOnPlane_8h.html" target="_top" xlink:title="StateOnPlane.h">
<polygon fill="none" stroke="#000000" points="58.3545,-171.5 58.3545,-191.5 152.3545,-191.5 152.3545,-171.5 58.3545,-171.5"/>
<text text-anchor="middle" x="105.3545" y="-178.5" font-family="FreeSans" font-size="10.00" fill="#000000">StateOnPlane.h</text>
</a>
</g>
</g>
<!-- Node1&#45;&gt;Node30 -->
<g id="edge41" class="edge">
<title>Node1&#45;&gt;Node30</title>
<path fill="none" stroke="#191970" d="M1099.7561,-420.829C914.4158,-418.5107 458.77,-408.2422 313.3545,-363 223.6507,-335.091 195.2111,-321.4076 135.3545,-249 123.7648,-234.9801 115.8082,-215.7738 111.0167,-201.4326"/>
<polygon fill="#191970" stroke="#191970" points="114.2666,-200.0954 107.9619,-191.5806 107.5806,-202.1685 114.2666,-200.0954"/>
</g>
<!-- Node33 -->
<g id="node33" class="node">
<title>Node33</title>
<polygon fill="none" stroke="#bfbfbf" points="1331.8545,-228.5 1331.8545,-248.5 1384.8545,-248.5 1384.8545,-228.5 1331.8545,-228.5"/>
<text text-anchor="middle" x="1358.3545" y="-235.5" font-family="FreeSans" font-size="10.00" fill="#000000">Track.h</text>
</g>
<!-- Node1&#45;&gt;Node33 -->
<g id="edge53" class="edge">
<title>Node1&#45;&gt;Node33</title>
<path fill="none" stroke="#191970" d="M1259.2179,-407.9424C1286.7252,-399.4153 1315.3581,-385.5455 1334.3545,-363 1359.3001,-333.3938 1361.2975,-285.705 1360.1041,-258.7533"/>
<polygon fill="#191970" stroke="#191970" points="1363.5851,-258.342 1359.4549,-248.5853 1356.5993,-258.7881 1363.5851,-258.342"/>
</g>
<!-- Node34 -->
<g id="node34" class="node">
<title>Node34</title>
<g id="a_node34"><a xlink:href="../../d9/df5/MaterialEffects_8h.html" target="_top" xlink:title="MaterialEffects.h">
<polygon fill="none" stroke="#000000" points="853.8545,-342.5 853.8545,-362.5 954.8545,-362.5 954.8545,-342.5 853.8545,-342.5"/>
<text text-anchor="middle" x="904.3545" y="-349.5" font-family="FreeSans" font-size="10.00" fill="#000000">MaterialEffects.h</text>
</a>
</g>
</g>
<!-- Node1&#45;&gt;Node34 -->
<g id="edge55" class="edge">
<title>Node1&#45;&gt;Node34</title>
<path fill="none" stroke="#191970" d="M1099.8131,-401.5423C1052.8713,-389.7642 994.8983,-375.2183 954.3265,-365.0384"/>
<polygon fill="#191970" stroke="#191970" points="954.955,-361.5877 944.4039,-362.5488 953.2514,-368.3773 954.955,-361.5877"/>
</g>
<!-- Node38 -->
<g id="node38" class="node">
<title>Node38</title>
<g id="a_node38"><a xlink:href="../../dd/dc4/RKTrackRep_8h.html" target="_top" xlink:title="RKTrackRep.h">
<polygon fill="none" stroke="#000000" points="144.3545,-228.5 144.3545,-248.5 228.3545,-248.5 228.3545,-228.5 144.3545,-228.5"/>
<text text-anchor="middle" x="186.3545" y="-235.5" font-family="FreeSans" font-size="10.00" fill="#000000">RKTrackRep.h</text>
</a>
</g>
</g>
<!-- Node1&#45;&gt;Node38 -->
<g id="edge73" class="edge">
<title>Node1&#45;&gt;Node38</title>
<path fill="none" stroke="#191970" d="M1099.6944,-417.6448C932.9286,-409.1951 551.956,-387.8054 424.3545,-363 341.9812,-346.9869 314.3706,-352.255 244.3545,-306 225.1381,-293.305 208.6356,-272.5085 198.2017,-257.3492"/>
<polygon fill="#191970" stroke="#191970" points="200.9566,-255.1699 192.5194,-248.7617 195.1188,-259.0328 200.9566,-255.1699"/>
</g>
<!-- Node40 -->
<g id="node40" class="node">
<title>Node40</title>
<g id="a_node40"><a xlink:href="../../dc/d36/TGeoMaterialInterface_8h.html" target="_top" xlink:title="TGeoMaterialInterface.h">
<polygon fill="none" stroke="#000000" points="433.8545,-342.5 433.8545,-362.5 572.8545,-362.5 572.8545,-342.5 433.8545,-342.5"/>
<text text-anchor="middle" x="503.3545" y="-349.5" font-family="FreeSans" font-size="10.00" fill="#000000">TGeoMaterialInterface.h</text>
</a>
</g>
</g>
<!-- Node1&#45;&gt;Node40 -->
<g id="edge74" class="edge">
<title>Node1&#45;&gt;Node40</title>
<path fill="none" stroke="#191970" d="M1099.8208,-413.3819C969.843,-400.115 713.3771,-373.9372 583.1983,-360.6497"/>
<polygon fill="#191970" stroke="#191970" points="583.2087,-357.1327 572.9049,-359.5991 582.4978,-364.0965 583.2087,-357.1327"/>
</g>
<!-- Node41 -->
<g id="node41" class="node">
<title>Node41</title>
<g id="a_node41"><a xlink:href="../../da/d4e/EventDisplay_8h.html" target="_top" xlink:title="EventDisplay.h">
<polygon fill="none" stroke="#000000" points="1396.3545,-285.5 1396.3545,-305.5 1486.3545,-305.5 1486.3545,-285.5 1396.3545,-285.5"/>
<text text-anchor="middle" x="1441.3545" y="-292.5" font-family="FreeSans" font-size="10.00" fill="#000000">EventDisplay.h</text>
</a>
</g>
</g>
<!-- Node1&#45;&gt;Node41 -->
<g id="edge76" class="edge">
<title>Node1&#45;&gt;Node41</title>
<path fill="none" stroke="#191970" d="M1258.9697,-406.4715C1295.2371,-397.3939 1337.7033,-383.5061 1372.3545,-363 1394.0548,-350.158 1414.0832,-329.0929 1426.9082,-313.9078"/>
<polygon fill="#191970" stroke="#191970" points="1429.9579,-315.7078 1433.5851,-305.7531 1424.5418,-311.2731 1429.9579,-315.7078"/>
</g>
<!-- Node46 -->
<g id="node46" class="node">
<title>Node46</title>
<polygon fill="none" stroke="#bfbfbf" points="1424.8545,-342.5 1424.8545,-362.5 1551.8545,-362.5 1551.8545,-342.5 1424.8545,-342.5"/>
<text text-anchor="middle" x="1488.3545" y="-349.5" font-family="FreeSans" font-size="10.00" fill="#000000">PlanarMeasurement.h</text>
</g>
<!-- Node1&#45;&gt;Node46 -->
<g id="edge86" class="edge">
<title>Node1&#45;&gt;Node46</title>
<path fill="none" stroke="#191970" d="M1258.9297,-403.7308C1313.6869,-391.5034 1385.0115,-375.5766 1433.4992,-364.7492"/>
<polygon fill="#191970" stroke="#191970" points="1434.4883,-368.1146 1443.4852,-362.5194 1432.9627,-361.2829 1434.4883,-368.1146"/>
</g>
<!-- Node47 -->
<g id="node47" class="node">
<title>Node47</title>
<polygon fill="none" stroke="#bfbfbf" points="1569.8545,-342.5 1569.8545,-362.5 1664.8545,-362.5 1664.8545,-342.5 1569.8545,-342.5"/>
<text text-anchor="middle" x="1617.3545" y="-349.5" font-family="FreeSans" font-size="10.00" fill="#000000">TEveManager.h</text>
</g>
<!-- Node1&#45;&gt;Node47 -->
<g id="edge87" class="edge">
<title>Node1&#45;&gt;Node47</title>
<path fill="none" stroke="#191970" d="M1258.86,-410.1142C1333.95,-399.1799 1449.9767,-381.8194 1559.7904,-363.2306"/>
<polygon fill="#191970" stroke="#191970" points="1560.4426,-366.6701 1569.715,-361.5443 1559.27,-359.769 1560.4426,-366.6701"/>
</g>
<!-- Node48 -->
<g id="node48" class="node">
<title>Node48</title>
<polygon fill="none" stroke="#bfbfbf" points="1683.3545,-342.5 1683.3545,-362.5 1779.3545,-362.5 1779.3545,-342.5 1683.3545,-342.5"/>
<text text-anchor="middle" x="1731.3545" y="-349.5" font-family="FreeSans" font-size="10.00" fill="#000000">TGeoManager.h</text>
</g>
<!-- Node1&#45;&gt;Node48 -->
<g id="edge88" class="edge">
<title>Node1&#45;&gt;Node48</title>
<path fill="none" stroke="#191970" d="M1258.8673,-413.6999C1354.7283,-403.9365 1520.9203,-385.8642 1673.181,-363.1043"/>
<polygon fill="#191970" stroke="#191970" points="1673.8213,-366.5474 1683.1891,-361.5984 1672.7796,-359.6253 1673.8213,-366.5474"/>
</g>
<!-- Node49 -->
<g id="node49" class="node">
<title>Node49</title>
<polygon fill="none" stroke="#bfbfbf" points="1797.3545,-342.5 1797.3545,-362.5 1899.3545,-362.5 1899.3545,-342.5 1797.3545,-342.5"/>
<text text-anchor="middle" x="1848.3545" y="-349.5" font-family="FreeSans" font-size="10.00" fill="#000000">TDatabasePDG.h</text>
</g>
<!-- Node1&#45;&gt;Node49 -->
<g id="edge91" class="edge">
<title>Node1&#45;&gt;Node49</title>
<path fill="none" stroke="#191970" d="M1258.8987,-415.8361C1373.4127,-407.2423 1591.5395,-389.232 1787.151,-363.0774"/>
<polygon fill="#191970" stroke="#191970" points="1787.89,-366.5095 1797.3332,-361.7058 1786.9555,-359.5722 1787.89,-366.5095"/>
</g>
<!-- Node50 -->
<g id="node50" class="node">
<title>Node50</title>
<polygon fill="none" stroke="#bfbfbf" points="1917.3545,-342.5 1917.3545,-362.5 1975.3545,-362.5 1975.3545,-342.5 1917.3545,-342.5"/>
<text text-anchor="middle" x="1946.3545" y="-349.5" font-family="FreeSans" font-size="10.00" fill="#000000">TMath.h</text>
</g>
<!-- Node1&#45;&gt;Node50 -->
<g id="edge92" class="edge">
<title>Node1&#45;&gt;Node50</title>
<path fill="none" stroke="#191970" d="M1258.9976,-420.0351C1391.8656,-416.5104 1667.0416,-404.6038 1907.0616,-362.9461"/>
<polygon fill="#191970" stroke="#191970" points="1907.7782,-366.3739 1917.0218,-361.1966 1906.5671,-359.4795 1907.7782,-366.3739"/>
</g>
<!-- Node3 -->
<g id="node3" class="node">
<title>Node3</title>
<g id="a_node3"><a xlink:href="../../da/daa/AbsBField_8h.html" target="_top" xlink:title="AbsBField.h">
<polygon fill="none" stroke="#000000" points="1026.8545,-228.5 1026.8545,-248.5 1101.8545,-248.5 1101.8545,-228.5 1026.8545,-228.5"/>
<text text-anchor="middle" x="1064.3545" y="-235.5" font-family="FreeSans" font-size="10.00" fill="#000000">AbsBField.h</text>
</a>
</g>
</g>
<!-- Node2&#45;&gt;Node3 -->
<g id="edge2" class="edge">
<title>Node2&#45;&gt;Node3</title>
<path fill="none" stroke="#191970" d="M1065.1757,-285.3095C1065.0463,-277.9335 1064.8671,-267.72 1064.7091,-258.715"/>
<polygon fill="#191970" stroke="#191970" points="1068.2067,-258.5393 1064.5317,-248.6022 1061.2078,-258.6621 1068.2067,-258.5393"/>
</g>
<!-- Node3&#45;&gt;Node4 -->
<g id="edge3" class="edge">
<title>Node3&#45;&gt;Node4</title>
<path fill="none" stroke="#191970" d="M1060.7568,-228.228C1052.2576,-205.2089 1028.9389,-148.7889 993.3545,-114 979.3535,-100.312 960.5076,-89.5179 944.0263,-81.7891"/>
<polygon fill="#191970" stroke="#191970" points="945.2076,-78.4833 934.6501,-77.594 942.3487,-84.873 945.2076,-78.4833"/>
</g>
<!-- Node6 -->
<g id="node6" class="node">
<title>Node6</title>
<polygon fill="none" stroke="#bfbfbf" points="434.8545,-228.5 434.8545,-248.5 499.8545,-248.5 499.8545,-228.5 434.8545,-228.5"/>
<text text-anchor="middle" x="467.3545" y="-235.5" font-family="FreeSans" font-size="10.00" fill="#000000">exception</text>
</g>
<!-- Node5&#45;&gt;Node6 -->
<g id="edge5" class="edge">
<title>Node5&#45;&gt;Node6</title>
<path fill="none" stroke="#191970" d="M548.6553,-285.3095C533.451,-276.5556 511.3051,-263.8049 493.9649,-253.8211"/>
<polygon fill="#191970" stroke="#191970" points="495.3131,-250.5587 484.9005,-248.6022 491.8203,-256.6251 495.3131,-250.5587"/>
</g>
<!-- Node7 -->
<g id="node7" class="node">
<title>Node7</title>
<polygon fill="none" stroke="#bfbfbf" points="672.8545,-228.5 672.8545,-248.5 717.8545,-248.5 717.8545,-228.5 672.8545,-228.5"/>
<text text-anchor="middle" x="695.3545" y="-235.5" font-family="FreeSans" font-size="10.00" fill="#000000">string</text>
</g>
<!-- Node5&#45;&gt;Node7 -->
<g id="edge6" class="edge">
<title>Node5&#45;&gt;Node7</title>
<path fill="none" stroke="#191970" d="M589.1201,-285.4408C609.7525,-276.3241 640.3694,-262.7957 663.4414,-252.6011"/>
<polygon fill="#191970" stroke="#191970" points="665.0841,-255.7018 672.8164,-248.4587 662.2549,-249.299 665.0841,-255.7018"/>
</g>
<!-- Node5&#45;&gt;Node8 -->
<g id="edge7" class="edge">
<title>Node5&#45;&gt;Node8</title>
<path fill="none" stroke="#191970" d="M566.6036,-285.0672C567.4875,-270.5839 571.1083,-244.3289 585.3545,-228 630.5954,-176.1451 841.435,-141.262 925.5619,-129.1892"/>
<polygon fill="#191970" stroke="#191970" points="926.2258,-132.6303 935.6379,-127.7658 925.2466,-125.6991 926.2258,-132.6303"/>
</g>
<!-- Node9 -->
<g id="node9" class="node">
<title>Node9</title>
<polygon fill="none" stroke="#bfbfbf" points="594.3545,-228.5 594.3545,-248.5 654.3545,-248.5 654.3545,-228.5 594.3545,-228.5"/>
<text text-anchor="middle" x="624.3545" y="-235.5" font-family="FreeSans" font-size="10.00" fill="#000000">iostream</text>
</g>
<!-- Node5&#45;&gt;Node9 -->
<g id="edge8" class="edge">
<title>Node5&#45;&gt;Node9</title>
<path fill="none" stroke="#191970" d="M576.7237,-285.3095C585.0539,-277.1229 596.9409,-265.441 606.7556,-255.7955"/>
<polygon fill="#191970" stroke="#191970" points="609.396,-258.1079 614.075,-248.6022 604.4894,-253.1153 609.396,-258.1079"/>
</g>
<!-- Node10 -->
<g id="node10" class="node">
<title>Node10</title>
<polygon fill="none" stroke="#bfbfbf" points="360.3545,-228.5 360.3545,-248.5 416.3545,-248.5 416.3545,-228.5 360.3545,-228.5"/>
<text text-anchor="middle" x="388.3545" y="-235.5" font-family="FreeSans" font-size="10.00" fill="#000000">sstream</text>
</g>
<!-- Node5&#45;&gt;Node10 -->
<g id="edge9" class="edge">
<title>Node5&#45;&gt;Node10</title>
<path fill="none" stroke="#191970" d="M534.9414,-285.4408C504.5507,-275.7089 458.4606,-260.9497 426.0939,-250.5851"/>
<polygon fill="#191970" stroke="#191970" points="427.1133,-247.2365 416.5223,-247.52 424.9785,-253.9031 427.1133,-247.2365"/>
</g>
<!-- Node11 -->
<g id="node11" class="node">
<title>Node11</title>
<polygon fill="none" stroke="#bfbfbf" points="552.3545,-.5 552.3545,-20.5 624.3545,-20.5 624.3545,-.5 552.3545,-.5"/>
<text text-anchor="middle" x="588.3545" y="-7.5" font-family="FreeSans" font-size="10.00" fill="#000000">TMatrixD.h</text>
</g>
<!-- Node5&#45;&gt;Node11 -->
<g id="edge10" class="edge">
<title>Node5&#45;&gt;Node11</title>
<path fill="none" stroke="#191970" d="M566.8775,-285.4316C567.5798,-272.2361 568.9079,-248.3751 570.3545,-228 575.4856,-155.7301 582.9941,-70.0738 586.4656,-31.3507"/>
<polygon fill="#191970" stroke="#191970" points="589.9951,-31.1804 587.4063,-20.9067 583.0233,-30.5524 589.9951,-31.1804"/>
</g>
<!-- Node12&#45;&gt;Node3 -->
<g id="edge12" class="edge">
<title>Node12&#45;&gt;Node3</title>
<path fill="none" stroke="#191970" d="M855.1799,-285.4408C900.5575,-275.2576 970.4637,-259.57 1016.7966,-249.1724"/>
<polygon fill="#191970" stroke="#191970" points="1017.605,-252.5781 1026.596,-246.9734 1016.0722,-245.748 1017.605,-252.5781"/>
</g>
<!-- Node12&#45;&gt;Node7 -->
<g id="edge16" class="edge">
<title>Node12&#45;&gt;Node7</title>
<path fill="none" stroke="#191970" d="M790.0595,-285.4408C772.024,-276.5014 745.4303,-263.3202 725.0115,-253.1996"/>
<polygon fill="#191970" stroke="#191970" points="726.3475,-249.9555 715.8334,-248.6504 723.2388,-256.2273 726.3475,-249.9555"/>
</g>
<!-- Node13 -->
<g id="node13" class="node">
<title>Node13</title>
<g id="a_node13"><a xlink:href="../../d7/d2f/IO_8h.html" target="_top" xlink:title="IO.h">
<polygon fill="none" stroke="#000000" points="736.3545,-228.5 736.3545,-248.5 772.3545,-248.5 772.3545,-228.5 736.3545,-228.5"/>
<text text-anchor="middle" x="754.3545" y="-235.5" font-family="FreeSans" font-size="10.00" fill="#000000">IO.h</text>
</a>
</g>
</g>
<!-- Node12&#45;&gt;Node13 -->
<g id="edge13" class="edge">
<title>Node12&#45;&gt;Node13</title>
<path fill="none" stroke="#191970" d="M800.3428,-285.3095C792.2998,-277.1229 780.8228,-265.441 771.3465,-255.7955"/>
<polygon fill="#191970" stroke="#191970" points="773.7844,-253.2827 764.2795,-248.6022 768.791,-258.1885 773.7844,-253.2827"/>
</g>
<!-- Node15 -->
<g id="node15" class="node">
<title>Node15</title>
<polygon fill="none" stroke="#bfbfbf" points="790.3545,-228.5 790.3545,-248.5 856.3545,-248.5 856.3545,-228.5 790.3545,-228.5"/>
<text text-anchor="middle" x="823.3545" y="-235.5" font-family="FreeSans" font-size="10.00" fill="#000000">stdexcept</text>
</g>
<!-- Node12&#45;&gt;Node15 -->
<g id="edge15" class="edge">
<title>Node12&#45;&gt;Node15</title>
<path fill="none" stroke="#191970" d="M812.6786,-285.3095C814.3794,-277.8524 816.7415,-267.4951 818.8116,-258.4186"/>
<polygon fill="#191970" stroke="#191970" points="822.2392,-259.1302 821.0505,-248.6022 815.4144,-257.5736 822.2392,-259.1302"/>
</g>
<!-- Node14 -->
<g id="node14" class="node">
<title>Node14</title>
<polygon fill="none" stroke="#bfbfbf" points="725.8545,-171.5 725.8545,-191.5 782.8545,-191.5 782.8545,-171.5 725.8545,-171.5"/>
<text text-anchor="middle" x="754.3545" y="-178.5" font-family="FreeSans" font-size="10.00" fill="#000000">ostream</text>
</g>
<!-- Node13&#45;&gt;Node14 -->
<g id="edge14" class="edge">
<title>Node13&#45;&gt;Node14</title>
<path fill="none" stroke="#191970" d="M754.3545,-228.3095C754.3545,-220.9335 754.3545,-210.72 754.3545,-201.715"/>
<polygon fill="#191970" stroke="#191970" points="757.8546,-201.6022 754.3545,-191.6022 750.8546,-201.6023 757.8546,-201.6022"/>
</g>
<!-- Node17 -->
<g id="node17" class="node">
<title>Node17</title>
<g id="a_node17"><a xlink:href="../../d0/d13/AbsKalmanFitter_8h.html" target="_top" xlink:title="AbsKalmanFitter.h">
<polygon fill="none" stroke="#000000" points="1167.3545,-228.5 1167.3545,-248.5 1275.3545,-248.5 1275.3545,-228.5 1167.3545,-228.5"/>
<text text-anchor="middle" x="1221.3545" y="-235.5" font-family="FreeSans" font-size="10.00" fill="#000000">AbsKalmanFitter.h</text>
</a>
</g>
</g>
<!-- Node16&#45;&gt;Node17 -->
<g id="edge18" class="edge">
<title>Node16&#45;&gt;Node17</title>
<path fill="none" stroke="#191970" d="M1225.4606,-285.3095C1224.8136,-277.9335 1223.9176,-267.72 1223.1277,-258.715"/>
<polygon fill="#191970" stroke="#191970" points="1226.6012,-258.2581 1222.2406,-248.6022 1219.628,-258.8699 1226.6012,-258.2581"/>
</g>
<!-- Node18 -->
<g id="node18" class="node">
<title>Node18</title>
<g id="a_node18"><a xlink:href="../../d5/d19/AbsFitter_8h.html" target="_top" xlink:title="AbsFitter.h">
<polygon fill="none" stroke="#000000" points="1167.3545,-171.5 1167.3545,-191.5 1237.3545,-191.5 1237.3545,-171.5 1167.3545,-171.5"/>
<text text-anchor="middle" x="1202.3545" y="-178.5" font-family="FreeSans" font-size="10.00" fill="#000000">AbsFitter.h</text>
</a>
</g>
</g>
<!-- Node17&#45;&gt;Node18 -->
<g id="edge19" class="edge">
<title>Node17&#45;&gt;Node18</title>
<path fill="none" stroke="#191970" d="M1217.9577,-228.3095C1215.4449,-220.7714 1211.9444,-210.2696 1208.8955,-201.123"/>
<polygon fill="#191970" stroke="#191970" points="1212.2046,-199.9823 1205.7219,-191.6022 1205.5638,-202.1959 1212.2046,-199.9823"/>
</g>
<!-- Node19 -->
<g id="node19" class="node">
<title>Node19</title>
<g id="a_node19"><a xlink:href="../../d7/d22/MeasurementOnPlane_8h.html" target="_top" xlink:title="MeasurementOnPlane.h">
<polygon fill="none" stroke="#ff0000" points="1339.8545,-57.5 1339.8545,-77.5 1476.8545,-77.5 1476.8545,-57.5 1339.8545,-57.5"/>
<text text-anchor="middle" x="1408.3545" y="-64.5" font-family="FreeSans" font-size="10.00" fill="#000000">MeasurementOnPlane.h</text>
</a>
</g>
</g>
<!-- Node17&#45;&gt;Node19 -->
<g id="edge20" class="edge">
<title>Node17&#45;&gt;Node19</title>
<path fill="none" stroke="#191970" d="M1275.6133,-231.4905C1369.4575,-218.1322 1555.7649,-185.7555 1594.3545,-135 1600.0034,-127.5702 1600.0983,-121.3566 1594.3545,-114 1580.7856,-96.6213 1531.4483,-84.7766 1486.9968,-77.3923"/>
<polygon fill="#191970" stroke="#191970" points="1487.4403,-73.9188 1477.0126,-75.7929 1486.3331,-80.8306 1487.4403,-73.9188"/>
</g>
<!-- Node17&#45;&gt;Node21 -->
<g id="edge23" class="edge">
<title>Node17&#45;&gt;Node21</title>
<path fill="none" stroke="#191970" d="M1201.7654,-228.4408C1184.436,-219.5419 1158.9207,-206.4394 1139.2478,-196.3371"/>
<polygon fill="#191970" stroke="#191970" points="1140.6156,-193.105 1130.1211,-191.6504 1137.4179,-199.332 1140.6156,-193.105"/>
</g>
<!-- Node19&#45;&gt;Node11 -->
<g id="edge21" class="edge">
<title>Node19&#45;&gt;Node11</title>
<path fill="none" stroke="#191970" d="M1339.8521,-62.7383C1177.414,-51.4468 772.2147,-23.2805 634.7896,-13.7278"/>
<polygon fill="#191970" stroke="#191970" points="634.8219,-10.2217 624.6032,-13.0197 634.3364,-17.2048 634.8219,-10.2217"/>
</g>
<!-- Node20 -->
<g id="node20" class="node">
<title>Node20</title>
<polygon fill="none" stroke="#bfbfbf" points="1056.3545,-.5 1056.3545,-20.5 1114.3545,-20.5 1114.3545,-.5 1056.3545,-.5"/>
<text text-anchor="middle" x="1085.3545" y="-7.5" font-family="FreeSans" font-size="10.00" fill="#000000">memory</text>
</g>
<!-- Node19&#45;&gt;Node20 -->
<g id="edge22" class="edge">
<title>Node19&#45;&gt;Node20</title>
<path fill="none" stroke="#191970" d="M1351.3521,-57.4408C1286.2228,-45.9474 1181.3585,-27.4419 1124.7077,-17.4447"/>
<polygon fill="#191970" stroke="#191970" points="1125.1674,-13.9718 1114.7113,-15.6806 1123.9508,-20.8653 1125.1674,-13.9718"/>
</g>
<!-- Node21&#45;&gt;Node8 -->
<g id="edge39" class="edge">
<title>Node21&#45;&gt;Node8</title>
<path fill="none" stroke="#191970" d="M1083.8828,-171.4408C1059.0138,-161.9906 1021.6697,-147.7998 994.5539,-137.4958"/>
<polygon fill="#191970" stroke="#191970" points="995.6599,-134.1719 985.0688,-133.8914 993.1733,-140.7154 995.6599,-134.1719"/>
</g>
<!-- Node21&#45;&gt;Node20 -->
<g id="edge40" class="edge">
<title>Node21&#45;&gt;Node20</title>
<path fill="none" stroke="#191970" d="M1098.2344,-171.4792C1088.8881,-162.906 1076.6862,-149.6541 1071.3545,-135 1058.4701,-99.5878 1069.4369,-55.0854 1077.8731,-30.0154"/>
<polygon fill="#191970" stroke="#191970" points="1081.1884,-31.1386 1081.2567,-20.544 1074.5964,-28.7836 1081.1884,-31.1386"/>
</g>
<!-- Node22 -->
<g id="node22" class="node">
<title>Node22</title>
<g id="a_node22"><a xlink:href="../../d9/d7a/AbsMeasurement_8h.html" target="_top" xlink:title="AbsMeasurement.h">
<polygon fill="none" stroke="#ff0000" points="1471.3545,-114.5 1471.3545,-134.5 1585.3545,-134.5 1585.3545,-114.5 1471.3545,-114.5"/>
<text text-anchor="middle" x="1528.3545" y="-121.5" font-family="FreeSans" font-size="10.00" fill="#000000">AbsMeasurement.h</text>
</a>
</g>
</g>
<!-- Node21&#45;&gt;Node22 -->
<g id="edge24" class="edge">
<title>Node21&#45;&gt;Node22</title>
<path fill="none" stroke="#191970" d="M1149.5867,-172.5916C1152.5472,-172.0195 1155.4943,-171.481 1158.3545,-171 1289.3809,-148.9648 1325.8913,-153.4608 1461.2207,-135.1074"/>
<polygon fill="#191970" stroke="#191970" points="1461.7069,-138.5735 1471.1379,-133.7457 1460.7547,-131.6386 1461.7069,-138.5735"/>
</g>
<!-- Node23 -->
<g id="node23" class="node">
<title>Node23</title>
<polygon fill="none" stroke="#bfbfbf" points="434.8545,-.5 434.8545,-20.5 499.8545,-20.5 499.8545,-.5 434.8545,-.5"/>
<text text-anchor="middle" x="467.3545" y="-7.5" font-family="FreeSans" font-size="10.00" fill="#000000">TObject.h</text>
</g>
<!-- Node21&#45;&gt;Node23 -->
<g id="edge37" class="edge">
<title>Node21&#45;&gt;Node23</title>
<path fill="none" stroke="#191970" d="M1149.4381,-172.7543C1183.6693,-164.2089 1229.5881,-150.2854 1240.3545,-135 1245.7291,-127.3695 1246.39,-121.1193 1240.3545,-114 1177.1353,-39.4288 1115.3155,-111.1769 1023.3545,-78 1005.9305,-71.7139 1005.0257,-62.5534 987.3545,-57 798.4806,2.3559 740.1584,-42.5562 543.3545,-21 532.6182,-19.824 521.0585,-18.3396 510.274,-16.8601"/>
<polygon fill="#191970" stroke="#191970" points="510.6127,-13.3735 500.224,-15.4534 509.6423,-20.3059 510.6127,-13.3735"/>
</g>
<!-- Node24 -->
<g id="node24" class="node">
<title>Node24</title>
<g id="a_node24"><a xlink:href="../../d4/d0b/AbsFitterInfo_8h.html" target="_top" xlink:title="AbsFitterInfo.h">
<polygon fill="none" stroke="#ff0000" points="1363.3545,-114.5 1363.3545,-134.5 1453.3545,-134.5 1453.3545,-114.5 1363.3545,-114.5"/>
<text text-anchor="middle" x="1408.3545" y="-121.5" font-family="FreeSans" font-size="10.00" fill="#000000">AbsFitterInfo.h</text>
</a>
</g>
</g>
<!-- Node21&#45;&gt;Node24 -->
<g id="edge27" class="edge">
<title>Node21&#45;&gt;Node24</title>
<path fill="none" stroke="#191970" d="M1149.3656,-172.8589C1152.4047,-172.2185 1155.4281,-171.5921 1158.3545,-171 1225.149,-157.4859 1302.2897,-143.3623 1353.0132,-134.2779"/>
<polygon fill="#191970" stroke="#191970" points="1353.8802,-137.6785 1363.1086,-132.474 1352.6488,-130.7877 1353.8802,-137.6785"/>
</g>
<!-- Node26 -->
<g id="node26" class="node">
<title>Node26</title>
<g id="a_node26"><a xlink:href="../../df/da2/ThinScatterer_8h.html" target="_top" xlink:title="ThinScatterer.h">
<polygon fill="none" stroke="#000000" points="1137.3545,-114.5 1137.3545,-134.5 1231.3545,-134.5 1231.3545,-114.5 1137.3545,-114.5"/>
<text text-anchor="middle" x="1184.3545" y="-121.5" font-family="FreeSans" font-size="10.00" fill="#000000">ThinScatterer.h</text>
</a>
</g>
</g>
<!-- Node21&#45;&gt;Node26 -->
<g id="edge31" class="edge">
<title>Node21&#45;&gt;Node26</title>
<path fill="none" stroke="#191970" d="M1123.5842,-171.3095C1134.5281,-162.8798 1150.2834,-150.7439 1163.0094,-140.9415"/>
<polygon fill="#191970" stroke="#191970" points="1165.4528,-143.4773 1171.2393,-134.6022 1161.1812,-137.9318 1165.4528,-143.4773"/>
</g>
<!-- Node29 -->
<g id="node29" class="node">
<title>Node29</title>
<polygon fill="none" stroke="#bfbfbf" points="1079.8545,-114.5 1079.8545,-134.5 1118.8545,-134.5 1118.8545,-114.5 1079.8545,-114.5"/>
<text text-anchor="middle" x="1099.3545" y="-121.5" font-family="FreeSans" font-size="10.00" fill="#000000">map</text>
</g>
<!-- Node21&#45;&gt;Node29 -->
<g id="edge38" class="edge">
<title>Node21&#45;&gt;Node29</title>
<path fill="none" stroke="#191970" d="M1108.3879,-171.3095C1106.9644,-163.9335 1104.9934,-153.72 1103.2556,-144.715"/>
<polygon fill="#191970" stroke="#191970" points="1106.6356,-143.7578 1101.304,-134.6022 1099.7624,-145.0843 1106.6356,-143.7578"/>
</g>
<!-- Node22&#45;&gt;Node19 -->
<g id="edge25" class="edge">
<title>Node22&#45;&gt;Node19</title>
<path fill="none" stroke="#191970" d="M1507.1771,-114.4408C1488.2723,-105.461 1460.3562,-92.2008 1439.0121,-82.0624"/>
<polygon fill="#191970" stroke="#191970" points="1440.2583,-78.7796 1429.7238,-77.6504 1437.2548,-85.1025 1440.2583,-78.7796"/>
</g>
<!-- Node22&#45;&gt;Node23 -->
<g id="edge26" class="edge">
<title>Node22&#45;&gt;Node23</title>
<path fill="none" stroke="#191970" d="M1475.9409,-114.4754C1396.3709,-99.6298 1240.1865,-71.9482 1106.3545,-57 857.1708,-29.1678 792.8207,-46.1744 543.3545,-21 532.6086,-19.9156 521.0453,-18.4647 510.2605,-16.9883"/>
<polygon fill="#191970" stroke="#191970" points="510.6009,-13.5019 500.2111,-15.5761 509.6267,-20.4338 510.6009,-13.5019"/>
</g>
<!-- Node24&#45;&gt;Node19 -->
<g id="edge28" class="edge">
<title>Node24&#45;&gt;Node19</title>
<path fill="none" stroke="#191970" d="M1408.3545,-114.3095C1408.3545,-106.9335 1408.3545,-96.72 1408.3545,-87.715"/>
<polygon fill="#191970" stroke="#191970" points="1411.8546,-87.6022 1408.3545,-77.6022 1404.8546,-87.6023 1411.8546,-87.6022"/>
</g>
<!-- Node24&#45;&gt;Node23 -->
<g id="edge29" class="edge">
<title>Node24&#45;&gt;Node23</title>
<path fill="none" stroke="#191970" d="M1363.2333,-115.0899C1291.5488,-100.4795 1147.0898,-72.4196 1023.3545,-57 811.064,-30.5449 756.0845,-43.6502 543.3545,-21 532.6147,-19.8565 521.0537,-18.384 510.2691,-16.9056"/>
<polygon fill="#191970" stroke="#191970" points="510.6084,-13.419 500.2193,-15.4969 509.6367,-20.3512 510.6084,-13.419"/>
</g>
<!-- Node25 -->
<g id="node25" class="node">
<title>Node25</title>
<polygon fill="none" stroke="#bfbfbf" points="249.3545,-57.5 249.3545,-77.5 321.3545,-77.5 321.3545,-57.5 249.3545,-57.5"/>
<text text-anchor="middle" x="285.3545" y="-64.5" font-family="FreeSans" font-size="10.00" fill="#000000">TVectorD.h</text>
</g>
<!-- Node24&#45;&gt;Node25 -->
<g id="edge30" class="edge">
<title>Node24&#45;&gt;Node25</title>
<path fill="none" stroke="#191970" d="M1363.0923,-121.3896C1329.2873,-119.1351 1281.944,-116.122 1240.3545,-114 839.475,-93.5457 733.2239,-131.5896 331.7381,-77.9446"/>
<polygon fill="#191970" stroke="#191970" points="331.9718,-74.4445 321.5941,-76.5782 331.0373,-81.3819 331.9718,-74.4445"/>
</g>
<!-- Node26&#45;&gt;Node23 -->
<g id="edge36" class="edge">
<title>Node26&#45;&gt;Node23</title>
<path fill="none" stroke="#191970" d="M1136.9673,-115.6421C1098.2584,-107.7437 1042.4475,-94.832 995.3545,-78 974.95,-70.707 972.2573,-62.7098 951.3545,-57 775.7502,-9.032 724.2386,-41.4629 543.3545,-21 532.5222,-19.7746 520.8482,-18.2595 509.9778,-16.7652"/>
<polygon fill="#191970" stroke="#191970" points="510.2442,-13.2685 499.8557,-15.3491 509.2742,-20.201 510.2442,-13.2685"/>
</g>
<!-- Node27 -->
<g id="node27" class="node">
<title>Node27</title>
<g id="a_node27"><a xlink:href="../../db/d4f/SharedPlanePtr_8h.html" target="_top" xlink:title="SharedPlanePtr.h">
<polygon fill="none" stroke="#ff0000" points="129.3545,-57.5 129.3545,-77.5 231.3545,-77.5 231.3545,-57.5 129.3545,-57.5"/>
<text text-anchor="middle" x="180.3545" y="-64.5" font-family="FreeSans" font-size="10.00" fill="#000000">SharedPlanePtr.h</text>
</a>
</g>
</g>
<!-- Node26&#45;&gt;Node27 -->
<g id="edge32" class="edge">
<title>Node26&#45;&gt;Node27</title>
<path fill="none" stroke="#191970" d="M1137.0709,-115.1362C1134.1279,-114.708 1131.2048,-114.3233 1128.3545,-114 739.2334,-69.8676 634.8691,-119.2784 241.903,-78.0299"/>
<polygon fill="#191970" stroke="#191970" points="241.9919,-74.5197 231.6779,-76.943 241.252,-81.4805 241.9919,-74.5197"/>
</g>
<!-- Node28 -->
<g id="node28" class="node">
<title>Node28</title>
<g id="a_node28"><a xlink:href="../../df/d12/Material_8h.html" target="_top" xlink:title="Material.h">
<polygon fill="none" stroke="#ff0000" points="339.3545,-57.5 339.3545,-77.5 405.3545,-77.5 405.3545,-57.5 339.3545,-57.5"/>
<text text-anchor="middle" x="372.3545" y="-64.5" font-family="FreeSans" font-size="10.00" fill="#000000">Material.h</text>
</a>
</g>
</g>
<!-- Node26&#45;&gt;Node28 -->
<g id="edge34" class="edge">
<title>Node26&#45;&gt;Node28</title>
<path fill="none" stroke="#191970" d="M1137.0625,-115.2065C1134.1217,-114.7609 1131.2012,-114.3531 1128.3545,-114 858.808,-80.571 532.0723,-70.8146 415.9063,-68.2928"/>
<polygon fill="#191970" stroke="#191970" points="415.7219,-64.7883 405.6506,-68.0773 415.5748,-71.7867 415.7219,-64.7883"/>
</g>
<!-- Node27&#45;&gt;Node20 -->
<g id="edge33" class="edge">
<title>Node27&#45;&gt;Node20</title>
<path fill="none" stroke="#191970" d="M231.3579,-58.1516C234.3967,-57.7262 237.4127,-57.3371 240.3545,-57 549.2418,-21.5991 924.8489,-12.9509 1045.8127,-11.0162"/>
<polygon fill="#191970" stroke="#191970" points="1046.1154,-14.5121 1056.0604,-10.8589 1046.0078,-7.5129 1046.1154,-14.5121"/>
</g>
<!-- Node28&#45;&gt;Node23 -->
<g id="edge35" class="edge">
<title>Node28&#45;&gt;Node23</title>
<path fill="none" stroke="#191970" d="M389.3386,-57.3095C403.9286,-48.5556 425.1797,-35.8049 441.8192,-25.8211"/>
<polygon fill="#191970" stroke="#191970" points="443.7432,-28.7485 450.5174,-20.6022 440.1417,-22.746 443.7432,-28.7485"/>
</g>
<!-- Node30&#45;&gt;Node23 -->
<g id="edge50" class="edge">
<title>Node30&#45;&gt;Node23</title>
<path fill="none" stroke="#191970" d="M59.7046,-171.4672C40.0635,-164.6443 18.9797,-153.3836 7.3545,-135 -22.3578,-88.0145 51.4762,-68.2916 78.3545,-57 140.1182,-31.0529 337.1666,-17.5043 424.7241,-12.637"/>
<polygon fill="#191970" stroke="#191970" points="425.0476,-16.1247 434.8426,-12.0862 424.6671,-9.135 425.0476,-16.1247"/>
</g>
<!-- Node30&#45;&gt;Node25 -->
<g id="edge51" class="edge">
<title>Node30&#45;&gt;Node25</title>
<path fill="none" stroke="#191970" d="M105.472,-171.2874C106.206,-156.5835 109.7574,-129.5158 125.3545,-114 133.6243,-105.7732 194.9932,-89.4529 239.2645,-78.5043"/>
<polygon fill="#191970" stroke="#191970" points="240.1082,-81.9012 248.9855,-76.1181 238.4395,-75.103 240.1082,-81.9012"/>
</g>
<!-- Node30&#45;&gt;Node27 -->
<g id="edge42" class="edge">
<title>Node30&#45;&gt;Node27</title>
<path fill="none" stroke="#191970" d="M71.0452,-171.4023C38.1356,-159.9318 -3.9217,-139.4594 15.3545,-114 28.1339,-97.1213 77.6691,-84.6415 119.1598,-76.8843"/>
<polygon fill="#191970" stroke="#191970" points="120.0164,-80.2863 129.2336,-75.062 118.7703,-73.3981 120.0164,-80.2863"/>
</g>
<!-- Node31 -->
<g id="node31" class="node">
<title>Node31</title>
<g id="a_node31"><a xlink:href="../../d4/d66/AbsTrackRep_8h.html" target="_top" xlink:title="AbsTrackRep.h">
<polygon fill="none" stroke="#ff0000" points="134.8545,-114.5 134.8545,-134.5 225.8545,-134.5 225.8545,-114.5 134.8545,-114.5"/>
<text text-anchor="middle" x="180.3545" y="-121.5" font-family="FreeSans" font-size="10.00" fill="#000000">AbsTrackRep.h</text>
</a>
</g>
</g>
<!-- Node30&#45;&gt;Node31 -->
<g id="edge43" class="edge">
<title>Node30&#45;&gt;Node31</title>
<path fill="none" stroke="#191970" d="M118.763,-171.3095C129.9614,-162.7987 146.1306,-150.5102 159.0921,-140.6594"/>
<polygon fill="#191970" stroke="#191970" points="161.2182,-143.4397 167.0621,-134.6022 156.9826,-137.8665 161.2182,-143.4397"/>
</g>
<!-- Node32 -->
<g id="node32" class="node">
<title>Node32</title>
<polygon fill="none" stroke="#bfbfbf" points="24.8545,-114.5 24.8545,-134.5 77.8545,-134.5 77.8545,-114.5 24.8545,-114.5"/>
<text text-anchor="middle" x="51.3545" y="-121.5" font-family="FreeSans" font-size="10.00" fill="#000000">cassert</text>
</g>
<!-- Node30&#45;&gt;Node32 -->
<g id="edge52" class="edge">
<title>Node30&#45;&gt;Node32</title>
<path fill="none" stroke="#191970" d="M95.7004,-171.3095C88.0214,-163.204 77.0963,-151.672 68.0116,-142.0826"/>
<polygon fill="#191970" stroke="#191970" points="70.3433,-139.4547 60.925,-134.6022 65.2616,-144.2689 70.3433,-139.4547"/>
</g>
<!-- Node31&#45;&gt;Node4 -->
<g id="edge46" class="edge">
<title>Node31&#45;&gt;Node4</title>
<path fill="none" stroke="#191970" d="M225.8655,-120.8642C251.3072,-118.8356 283.5925,-116.2678 312.3545,-114 517.3664,-97.8352 762.134,-78.7849 861.7826,-71.0399"/>
<polygon fill="#191970" stroke="#191970" points="862.1099,-74.5251 871.8086,-70.2607 861.5675,-67.5461 862.1099,-74.5251"/>
</g>
<!-- Node31&#45;&gt;Node11 -->
<g id="edge49" class="edge">
<title>Node31&#45;&gt;Node11</title>
<path fill="none" stroke="#191970" d="M160.1733,-114.3662C136.2993,-101.0999 101.9761,-77.1625 120.3545,-57 149.5211,-25.0019 465.3271,-25.818 508.3545,-21 519.3325,-19.7707 531.1384,-18.3024 542.2204,-16.859"/>
<polygon fill="#191970" stroke="#191970" points="542.6939,-20.327 552.1497,-15.548 541.7776,-13.3872 542.6939,-20.327"/>
</g>
<!-- Node31&#45;&gt;Node23 -->
<g id="edge47" class="edge">
<title>Node31&#45;&gt;Node23</title>
<path fill="none" stroke="#191970" d="M145.4999,-114.4269C110.7509,-102.692 65.4711,-81.7244 87.3545,-57 109.4332,-32.0548 329.9888,-17.6619 424.6089,-12.5926"/>
<polygon fill="#191970" stroke="#191970" points="424.8997,-16.0822 434.702,-12.0617 424.532,-9.0919 424.8997,-16.0822"/>
</g>
<!-- Node31&#45;&gt;Node25 -->
<g id="edge48" class="edge">
<title>Node31&#45;&gt;Node25</title>
<path fill="none" stroke="#191970" d="M199.1264,-114.3095C215.4761,-105.434 239.3941,-92.4499 257.8946,-82.4068"/>
<polygon fill="#191970" stroke="#191970" points="259.6264,-85.4492 266.7451,-77.6022 256.2867,-79.2972 259.6264,-85.4492"/>
</g>
<!-- Node31&#45;&gt;Node27 -->
<g id="edge44" class="edge">
<title>Node31&#45;&gt;Node27</title>
<path fill="none" stroke="#191970" d="M180.3545,-114.3095C180.3545,-106.9335 180.3545,-96.72 180.3545,-87.715"/>
<polygon fill="#191970" stroke="#191970" points="183.8546,-87.6022 180.3545,-77.6022 176.8546,-87.6023 183.8546,-87.6022"/>
</g>
<!-- Node31&#45;&gt;Node28 -->
<g id="edge45" class="edge">
<title>Node31&#45;&gt;Node28</title>
<path fill="none" stroke="#191970" d="M214.2383,-114.4408C246.2787,-104.9288 294.4969,-90.614 329.2584,-80.2942"/>
<polygon fill="#191970" stroke="#191970" points="330.5403,-83.5646 339.1307,-77.3633 328.5481,-76.8541 330.5403,-83.5646"/>
</g>
<!-- Node34&#45;&gt;Node4 -->
<g id="edge72" class="edge">
<title>Node34&#45;&gt;Node4</title>
<path fill="none" stroke="#191970" d="M905.4986,-342.1739C906.4805,-332.7617 907.8193,-318.4667 908.3545,-306 908.7548,-296.6753 908.3759,-294.3333 908.3545,-285 908.1885,-212.7944 907.7125,-127.1064 907.4823,-88.363"/>
<polygon fill="#191970" stroke="#191970" points="910.9796,-87.892 907.4193,-77.9133 903.9797,-87.9342 910.9796,-87.892"/>
</g>
<!-- Node34&#45;&gt;Node8 -->
<g id="edge71" class="edge">
<title>Node34&#45;&gt;Node8</title>
<path fill="none" stroke="#191970" d="M913.5564,-342.242C920.999,-333.3266 931.0785,-319.7203 936.3545,-306 957.6732,-250.56 960.6564,-179.3441 960.713,-144.9268"/>
<polygon fill="#191970" stroke="#191970" points="964.2117,-144.717 960.6423,-134.7416 957.2119,-144.7657 964.2117,-144.717"/>
</g>
<!-- Node34&#45;&gt;Node9 -->
<g id="edge70" class="edge">
<title>Node34&#45;&gt;Node9</title>
<path fill="none" stroke="#191970" d="M865.7414,-342.4361C835.2758,-334.024 791.9602,-321.0104 755.3545,-306 717.8273,-290.6118 676.5418,-268.3969 650.5439,-253.7116"/>
<polygon fill="#191970" stroke="#191970" points="652.114,-250.578 641.6927,-248.6684 648.6486,-256.66 652.114,-250.578"/>
</g>
<!-- Node35 -->
<g id="node35" class="node">
<title>Node35</title>
<g id="a_node35"><a xlink:href="../../df/dad/RKTools_8h.html" target="_top" xlink:title="RKTools.h">
<polygon fill="none" stroke="#ff0000" points="322.8545,-171.5 322.8545,-191.5 385.8545,-191.5 385.8545,-171.5 322.8545,-171.5"/>
<text text-anchor="middle" x="354.3545" y="-178.5" font-family="FreeSans" font-size="10.00" fill="#000000">RKTools.h</text>
</a>
</g>
</g>
<!-- Node34&#45;&gt;Node35 -->
<g id="edge56" class="edge">
<title>Node34&#45;&gt;Node35</title>
<path fill="none" stroke="#191970" d="M904.6469,-342.3961C904.739,-318.1854 901.2461,-256.7394 865.3545,-228 827.7562,-197.8941 481.2421,-197.1746 433.3545,-192 421.3321,-190.7009 408.3108,-189.065 396.374,-187.4737"/>
<polygon fill="#191970" stroke="#191970" points="396.5952,-183.9717 386.2155,-186.0963 395.6546,-190.9083 396.5952,-183.9717"/>
</g>
<!-- Node37 -->
<g id="node37" class="node">
<title>Node37</title>
<g id="a_node37"><a xlink:href="../../d8/de8/AbsMaterialInterface_8h.html" target="_top" xlink:title="AbsMaterialInterface.h">
<polygon fill="none" stroke="#000000" points="253.8545,-285.5 253.8545,-305.5 384.8545,-305.5 384.8545,-285.5 253.8545,-285.5"/>
<text text-anchor="middle" x="319.3545" y="-292.5" font-family="FreeSans" font-size="10.00" fill="#000000">AbsMaterialInterface.h</text>
</a>
</g>
</g>
<!-- Node34&#45;&gt;Node37 -->
<g id="edge58" class="edge">
<title>Node34&#45;&gt;Node37</title>
<path fill="none" stroke="#191970" d="M853.7174,-347.5661C750.8249,-337.5407 516.8119,-314.7394 395.4809,-302.9174"/>
<polygon fill="#191970" stroke="#191970" points="395.4576,-299.3987 385.1652,-301.9123 394.7787,-306.3657 395.4576,-299.3987"/>
</g>
<!-- Node36 -->
<g id="node36" class="node">
<title>Node36</title>
<polygon fill="none" stroke="#bfbfbf" points="321.8545,-114.5 321.8545,-134.5 386.8545,-134.5 386.8545,-114.5 321.8545,-114.5"/>
<text text-anchor="middle" x="354.3545" y="-121.5" font-family="FreeSans" font-size="10.00" fill="#000000">algorithm</text>
</g>
<!-- Node35&#45;&gt;Node36 -->
<g id="edge57" class="edge">
<title>Node35&#45;&gt;Node36</title>
<path fill="none" stroke="#191970" d="M354.3545,-171.3095C354.3545,-163.9335 354.3545,-153.72 354.3545,-144.715"/>
<polygon fill="#191970" stroke="#191970" points="357.8546,-144.6022 354.3545,-134.6022 350.8546,-144.6023 357.8546,-144.6022"/>
</g>
<!-- Node37&#45;&gt;Node4 -->
<g id="edge69" class="edge">
<title>Node37&#45;&gt;Node4</title>
<path fill="none" stroke="#191970" d="M321.1679,-285.4833C324.4282,-270.5185 332.7556,-242.5329 351.3545,-228 415.2973,-178.036 451.9066,-212.761 530.3545,-192 657.4323,-158.3692 804.3965,-105.7523 871.094,-81.1011"/>
<polygon fill="#191970" stroke="#191970" points="872.5586,-84.2909 880.7176,-77.5321 870.1246,-77.7277 872.5586,-84.2909"/>
</g>
<!-- Node37&#45;&gt;Node23 -->
<g id="edge68" class="edge">
<title>Node37&#45;&gt;Node23</title>
<path fill="none" stroke="#191970" d="M318.6191,-285.343C318.1169,-271.1874 319.1516,-245.3192 331.3545,-228 349.9291,-201.6374 373.1621,-216.3081 394.3545,-192 436.8305,-143.2791 456.4963,-66.6902 463.7919,-30.5938"/>
<polygon fill="#191970" stroke="#191970" points="467.2305,-31.2465 465.6705,-20.7671 460.355,-29.9321 467.2305,-31.2465"/>
</g>
<!-- Node37&#45;&gt;Node28 -->
<g id="edge67" class="edge">
<title>Node37&#45;&gt;Node28</title>
<path fill="none" stroke="#191970" d="M307.2344,-285.4792C297.8881,-276.906 285.6862,-263.6541 280.3545,-249 277.1633,-240.2292 279.0814,-237.2461 280.3545,-228 287.5327,-175.8669 282.9636,-157.6527 312.3545,-114 320.7417,-101.5428 333.5506,-90.9622 345.1828,-83.0559"/>
<polygon fill="#191970" stroke="#191970" points="347.237,-85.8962 353.7559,-77.5443 343.4515,-80.008 347.237,-85.8962"/>
</g>
<!-- Node37&#45;&gt;Node38 -->
<g id="edge59" class="edge">
<title>Node37&#45;&gt;Node38</title>
<path fill="none" stroke="#191970" d="M295.8829,-285.4408C274.6469,-276.3396 243.1517,-262.8416 219.3783,-252.6531"/>
<polygon fill="#191970" stroke="#191970" points="220.609,-249.3727 210.0388,-248.6504 217.8515,-255.8067 220.609,-249.3727"/>
</g>
<!-- Node38&#45;&gt;Node28 -->
<g id="edge65" class="edge">
<title>Node38&#45;&gt;Node28</title>
<path fill="none" stroke="#191970" d="M191.7183,-228.1864C204.1689,-205.0824 237.1358,-148.4996 278.3545,-114 294.7292,-100.2946 315.8294,-89.3873 333.8886,-81.5909"/>
<polygon fill="#191970" stroke="#191970" points="335.6621,-84.6446 343.5592,-77.5816 332.9812,-78.1783 335.6621,-84.6446"/>
</g>
<!-- Node38&#45;&gt;Node30 -->
<g id="edge61" class="edge">
<title>Node38&#45;&gt;Node30</title>
<path fill="none" stroke="#191970" d="M171.8733,-228.3095C159.6638,-219.7177 141.9832,-207.2758 127.9188,-197.3786"/>
<polygon fill="#191970" stroke="#191970" points="129.9026,-194.4949 119.7103,-191.6022 125.8741,-200.2195 129.9026,-194.4949"/>
</g>
<!-- Node38&#45;&gt;Node31 -->
<g id="edge60" class="edge">
<title>Node38&#45;&gt;Node31</title>
<path fill="none" stroke="#191970" d="M185.822,-228.3833C184.8371,-209.6703 182.7138,-169.3266 181.4222,-144.7866"/>
<polygon fill="#191970" stroke="#191970" points="184.9152,-144.5601 180.8944,-134.7579 177.9249,-144.9281 184.9152,-144.5601"/>
</g>
<!-- Node38&#45;&gt;Node35 -->
<g id="edge62" class="edge">
<title>Node38&#45;&gt;Node35</title>
<path fill="none" stroke="#191970" d="M216.0028,-228.4408C243.5079,-219.1087 284.6382,-205.1537 314.9071,-194.8839"/>
<polygon fill="#191970" stroke="#191970" points="316.3753,-198.0818 324.7205,-191.5544 314.1261,-191.453 316.3753,-198.0818"/>
</g>
<!-- Node38&#45;&gt;Node36 -->
<g id="edge66" class="edge">
<title>Node38&#45;&gt;Node36</title>
<path fill="none" stroke="#191970" d="M201.2634,-228.3833C230.4553,-208.5744 295.3666,-164.5275 330.561,-140.6456"/>
<polygon fill="#191970" stroke="#191970" points="332.928,-143.2692 339.2375,-134.7579 328.9975,-137.4768 332.928,-143.2692"/>
</g>
<!-- Node39 -->
<g id="node39" class="node">
<title>Node39</title>
<g id="a_node39"><a xlink:href="../../d7/d7e/StepLimits_8h.html" target="_top" xlink:title="StepLimits.h">
<polygon fill="none" stroke="#ff0000" points="442.8545,-171.5 442.8545,-191.5 521.8545,-191.5 521.8545,-171.5 442.8545,-171.5"/>
<text text-anchor="middle" x="482.3545" y="-178.5" font-family="FreeSans" font-size="10.00" fill="#000000">StepLimits.h</text>
</a>
</g>
</g>
<!-- Node38&#45;&gt;Node39 -->
<g id="edge63" class="edge">
<title>Node38&#45;&gt;Node39</title>
<path fill="none" stroke="#191970" d="M228.4497,-230.3938C282.3536,-220.0137 375.6177,-202.054 432.8637,-191.0303"/>
<polygon fill="#191970" stroke="#191970" points="433.6116,-194.4507 442.7693,-189.1228 432.2878,-187.577 433.6116,-194.4507"/>
</g>
<!-- Node39&#45;&gt;Node8 -->
<g id="edge64" class="edge">
<title>Node39&#45;&gt;Node8</title>
<path fill="none" stroke="#191970" d="M521.8779,-176.787C613.4566,-165.8665 838.9556,-138.9764 925.635,-128.6402"/>
<polygon fill="#191970" stroke="#191970" points="926.2214,-132.0951 935.7366,-127.4356 925.3925,-125.1444 926.2214,-132.0951"/>
</g>
<!-- Node40&#45;&gt;Node37 -->
<g id="edge75" class="edge">
<title>Node40&#45;&gt;Node37</title>
<path fill="none" stroke="#191970" d="M470.8825,-342.4408C440.4959,-333.0275 394.9258,-318.9107 361.6966,-308.6169"/>
<polygon fill="#191970" stroke="#191970" points="362.3986,-305.1703 351.8108,-305.5544 360.3272,-311.8568 362.3986,-305.1703"/>
</g>
<!-- Node41&#45;&gt;Node4 -->
<g id="edge80" class="edge">
<title>Node41&#45;&gt;Node4</title>
<path fill="none" stroke="#191970" d="M1439.1145,-285.3274C1435.7947,-271.6011 1428.7088,-246.7149 1417.3545,-228 1381.468,-168.8499 1373.0949,-145.22 1311.3545,-114 1295.5171,-105.9916 1055.2746,-81.8721 952.9498,-71.8944"/>
<polygon fill="#191970" stroke="#191970" points="953.2019,-68.4024 942.91,-70.9176 952.524,-75.3696 953.2019,-68.4024"/>
</g>
<!-- Node41&#45;&gt;Node7 -->
<g id="edge81" class="edge">
<title>Node41&#45;&gt;Node7</title>
<path fill="none" stroke="#191970" d="M1396.2839,-291.9791C1368.8479,-289.8709 1333.0872,-287.185 1301.3545,-285 1049.5833,-267.664 980.1303,-296.4871 727.7205,-248.5694"/>
<polygon fill="#191970" stroke="#191970" points="728.3727,-245.1308 717.8921,-246.6826 727.0529,-252.0052 728.3727,-245.1308"/>
</g>
<!-- Node41&#45;&gt;Node8 -->
<g id="edge82" class="edge">
<title>Node41&#45;&gt;Node8</title>
<path fill="none" stroke="#191970" d="M1436.7346,-285.3791C1429.5992,-270.7893 1414.5795,-243.8625 1394.3545,-228 1338.8907,-184.4998 1314.3925,-189.4206 1246.3545,-171 1157.5869,-146.967 1049.752,-133.5456 995.3497,-127.8358"/>
<polygon fill="#191970" stroke="#191970" points="995.508,-124.3337 985.2032,-126.7958 994.7941,-131.2973 995.508,-124.3337"/>
</g>
<!-- Node41&#45;&gt;Node17 -->
<g id="edge78" class="edge">
<title>Node41&#45;&gt;Node17</title>
<path fill="none" stroke="#191970" d="M1402.5293,-285.4408C1365.5711,-275.8652 1309.8273,-261.4225 1269.9392,-251.0879"/>
<polygon fill="#191970" stroke="#191970" points="1270.7191,-247.6744 1260.1609,-248.5544 1268.9634,-254.4507 1270.7191,-247.6744"/>
</g>
<!-- Node41&#45;&gt;Node33 -->
<g id="edge77" class="edge">
<title>Node41&#45;&gt;Node33</title>
<path fill="none" stroke="#191970" d="M1426.5157,-285.3095C1414.0048,-276.7177 1395.8876,-264.2758 1381.476,-254.3786"/>
<polygon fill="#191970" stroke="#191970" points="1383.2895,-251.3782 1373.0647,-248.6022 1379.3267,-257.1485 1383.2895,-251.3782"/>
</g>
<!-- Node42 -->
<g id="node42" class="node">
<title>Node42</title>
<polygon fill="none" stroke="#bfbfbf" points="1727.3545,-228.5 1727.3545,-248.5 1797.3545,-248.5 1797.3545,-228.5 1727.3545,-228.5"/>
<text text-anchor="middle" x="1762.3545" y="-235.5" font-family="FreeSans" font-size="10.00" fill="#000000">TEveBox.h</text>
</g>
<!-- Node41&#45;&gt;Node42 -->
<g id="edge79" class="edge">
<title>Node41&#45;&gt;Node42</title>
<path fill="none" stroke="#191970" d="M1486.6281,-288.8664C1539.5793,-280.8937 1630.0826,-266.6034 1717.2737,-249.1186"/>
<polygon fill="#191970" stroke="#191970" points="1718.23,-252.4961 1727.3376,-247.083 1716.8421,-245.6351 1718.23,-252.4961"/>
</g>
<!-- Node43 -->
<g id="node43" class="node">
<title>Node43</title>
<polygon fill="none" stroke="#bfbfbf" points="1815.3545,-228.5 1815.3545,-248.5 1889.3545,-248.5 1889.3545,-228.5 1815.3545,-228.5"/>
<text text-anchor="middle" x="1852.3545" y="-235.5" font-family="FreeSans" font-size="10.00" fill="#000000">TGButton.h</text>
</g>
<!-- Node41&#45;&gt;Node43 -->
<g id="edge83" class="edge">
<title>Node41&#45;&gt;Node43</title>
<path fill="none" stroke="#191970" d="M1486.5221,-291.1804C1553.7997,-284.4322 1684.482,-270.1177 1805.1126,-249.0841"/>
<polygon fill="#191970" stroke="#191970" points="1806.0207,-252.478 1815.2608,-247.2943 1804.8049,-245.5844 1806.0207,-252.478"/>
</g>
<!-- Node44 -->
<g id="node44" class="node">
<title>Node44</title>
<polygon fill="none" stroke="#bfbfbf" points="1479.3545,-228.5 1479.3545,-248.5 1585.3545,-248.5 1585.3545,-228.5 1479.3545,-228.5"/>
<text text-anchor="middle" x="1532.3545" y="-235.5" font-family="FreeSans" font-size="10.00" fill="#000000">TGNumberEntry.h</text>
</g>
<!-- Node41&#45;&gt;Node44 -->
<g id="edge84" class="edge">
<title>Node41&#45;&gt;Node44</title>
<path fill="none" stroke="#191970" d="M1457.6235,-285.3095C1471.4697,-276.6366 1491.579,-264.0407 1507.4505,-254.0992"/>
<polygon fill="#191970" stroke="#191970" points="1509.6095,-256.8768 1516.2263,-248.6022 1505.8936,-250.9445 1509.6095,-256.8768"/>
</g>
<!-- Node45 -->
<g id="node45" class="node">
<title>Node45</title>
<polygon fill="none" stroke="#bfbfbf" points="1603.8545,-228.5 1603.8545,-248.5 1708.8545,-248.5 1708.8545,-228.5 1603.8545,-228.5"/>
<text text-anchor="middle" x="1656.3545" y="-235.5" font-family="FreeSans" font-size="10.00" fill="#000000">TGButtonGroup.h</text>
</g>
<!-- Node41&#45;&gt;Node45 -->
<g id="edge85" class="edge">
<title>Node41&#45;&gt;Node45</title>
<path fill="none" stroke="#191970" d="M1479.2972,-285.4408C1515.2625,-275.9058 1569.4311,-261.5448 1608.3776,-251.2195"/>
<polygon fill="#191970" stroke="#191970" points="1609.6609,-254.5002 1618.43,-248.5544 1607.867,-247.734 1609.6609,-254.5002"/>
</g>
</g>
</svg>
