<?xml version="1.0" encoding="UTF-8" standalone="no"?>
<!DOCTYPE svg PUBLIC "-//W3C//DTD SVG 1.1//EN"
 "http://www.w3.org/Graphics/SVG/1.1/DTD/svg11.dtd">
<!-- Generated by graphviz version 2.40.1 (20161225.0304)
 -->
<!-- Title: RosenBrock Pages: 1 -->
<svg width="244pt" height="302pt"
 viewBox="0.00 0.00 244.00 302.00" xmlns="http://www.w3.org/2000/svg" xmlns:xlink="http://www.w3.org/1999/xlink">
<g id="graph0" class="graph" transform="scale(1 1) rotate(0) translate(4 298)">
<title>RosenBrock</title>
<!-- Node1 -->
<g id="node1" class="node">
<title>Node1</title>
<polygon fill="#bfbfbf" stroke="#000000" points="0,-136.5 0,-156.5 76,-156.5 76,-136.5 0,-136.5"/>
<text text-anchor="middle" x="38" y="-143.5" font-family="FreeSans" font-size="10.00" fill="#000000">RosenBrock</text>
</g>
<!-- Node2 -->
<g id="node2" class="node">
<title>Node2</title>
<g id="a_node2"><a xlink:href="../../d2/d6d/classSvtxVertex.html#a100758a84d82009a10de89721db160c6" target="_top" xlink:title="SvtxVertex::get_error">
<polygon fill="none" stroke="#000000" points="112,-273.5 112,-293.5 236,-293.5 236,-273.5 112,-273.5"/>
<text text-anchor="middle" x="174" y="-280.5" font-family="FreeSans" font-size="10.00" fill="#000000">SvtxVertex::get_error</text>
</a>
</g>
</g>
<!-- Node1&#45;&gt;Node2 -->
<g id="edge1" class="edge">
<title>Node1&#45;&gt;Node2</title>
<path fill="none" stroke="#191970" d="M41.5639,-156.7453C50.0416,-179.606 73.6174,-235.0772 112,-264.5 114.0718,-266.0881 116.2769,-267.5445 118.5742,-268.8798"/>
<polygon fill="#191970" stroke="#191970" points="117.2906,-272.1499 127.8049,-273.4536 120.3985,-265.8776 117.2906,-272.1499"/>
</g>
<!-- Node3 -->
<g id="node3" class="node">
<title>Node3</title>
<g id="a_node3"><a xlink:href="../../d2/d6d/classSvtxVertex.html#a233c6da9e4f023ee15b8d1298cde9ac3" target="_top" xlink:title="SvtxVertex::get_x">
<polygon fill="none" stroke="#000000" points="121.5,-234.5 121.5,-254.5 226.5,-254.5 226.5,-234.5 121.5,-234.5"/>
<text text-anchor="middle" x="174" y="-241.5" font-family="FreeSans" font-size="10.00" fill="#000000">SvtxVertex::get_x</text>
</a>
</g>
</g>
<!-- Node1&#45;&gt;Node3 -->
<g id="edge2" class="edge">
<title>Node1&#45;&gt;Node3</title>
<path fill="none" stroke="#191970" d="M44.7314,-156.5701C56.4416,-173.3208 82.1831,-206.9011 112,-225.5 114.9552,-227.3433 118.1015,-229.0186 121.3498,-230.5396"/>
<polygon fill="#191970" stroke="#191970" points="120.1221,-233.8196 130.6994,-234.4286 122.8105,-227.3564 120.1221,-233.8196"/>
</g>
<!-- Node4 -->
<g id="node4" class="node">
<title>Node4</title>
<g id="a_node4"><a xlink:href="../../d2/d6d/classSvtxVertex.html#a2b5eda5e1b6f143c4963c63b249a432c" target="_top" xlink:title="SvtxVertex::get_y">
<polygon fill="none" stroke="#000000" points="121.5,-195.5 121.5,-215.5 226.5,-215.5 226.5,-195.5 121.5,-195.5"/>
<text text-anchor="middle" x="174" y="-202.5" font-family="FreeSans" font-size="10.00" fill="#000000">SvtxVertex::get_y</text>
</a>
</g>
</g>
<!-- Node1&#45;&gt;Node4 -->
<g id="edge3" class="edge">
<title>Node1&#45;&gt;Node4</title>
<path fill="none" stroke="#191970" d="M54.2885,-156.5249C68.9823,-165.2692 91.389,-177.8717 112,-186.5 116.8094,-188.5133 121.9079,-190.4201 127.0333,-192.1928"/>
<polygon fill="#191970" stroke="#191970" points="126.2612,-195.6235 136.8543,-195.4297 128.4524,-188.9753 126.2612,-195.6235"/>
</g>
<!-- Node5 -->
<g id="node5" class="node">
<title>Node5</title>
<g id="a_node5"><a xlink:href="../../d2/d6d/classSvtxVertex.html#acd46c82a2b067db8482f53280197239f" target="_top" xlink:title="SvtxVertex::get_z">
<polygon fill="none" stroke="#000000" points="122,-156.5 122,-176.5 226,-176.5 226,-156.5 122,-156.5"/>
<text text-anchor="middle" x="174" y="-163.5" font-family="FreeSans" font-size="10.00" fill="#000000">SvtxVertex::get_z</text>
</a>
</g>
</g>
<!-- Node1&#45;&gt;Node5 -->
<g id="edge4" class="edge">
<title>Node1&#45;&gt;Node5</title>
<path fill="none" stroke="#191970" d="M76.2455,-152.1243C87.2937,-153.7491 99.6473,-155.5658 111.7557,-157.3464"/>
<polygon fill="#191970" stroke="#191970" points="111.4323,-160.8364 121.8351,-158.8287 112.4508,-153.9109 111.4323,-160.8364"/>
</g>
<!-- Node6 -->
<g id="node6" class="node">
<title>Node6</title>
<g id="a_node6"><a xlink:href="../../d6/dfa/classTrkrCluster.html#a464d9b621b9f222a845107e17970fa0d" target="_top" xlink:title="TrkrCluster::getError">
<polygon fill="none" stroke="#000000" points="114,-117.5 114,-137.5 234,-137.5 234,-117.5 114,-117.5"/>
<text text-anchor="middle" x="174" y="-124.5" font-family="FreeSans" font-size="10.00" fill="#000000">TrkrCluster::getError</text>
</a>
</g>
</g>
<!-- Node1&#45;&gt;Node6 -->
<g id="edge5" class="edge">
<title>Node1&#45;&gt;Node6</title>
<path fill="none" stroke="#191970" d="M76.2455,-141.1569C84.9337,-139.9431 94.4292,-138.6165 103.9778,-137.2825"/>
<polygon fill="#191970" stroke="#191970" points="104.4967,-140.7441 113.9162,-135.8941 103.5281,-133.8114 104.4967,-140.7441"/>
</g>
<!-- Node7 -->
<g id="node7" class="node">
<title>Node7</title>
<g id="a_node7"><a xlink:href="../../d6/dfa/classTrkrCluster.html#a7be7cdba7b854678e0519288b8021b2a" target="_top" xlink:title="TrkrCluster::getX">
<polygon fill="none" stroke="#000000" points="123,-78.5 123,-98.5 225,-98.5 225,-78.5 123,-78.5"/>
<text text-anchor="middle" x="174" y="-85.5" font-family="FreeSans" font-size="10.00" fill="#000000">TrkrCluster::getX</text>
</a>
</g>
</g>
<!-- Node1&#45;&gt;Node7 -->
<g id="edge6" class="edge">
<title>Node1&#45;&gt;Node7</title>
<path fill="none" stroke="#191970" d="M55.5591,-136.4551C70.3163,-128.2654 92.1236,-116.7452 112,-108.5 117.7588,-106.1111 123.9124,-103.8236 130.0236,-101.7047"/>
<polygon fill="#191970" stroke="#191970" points="131.1571,-105.0162 139.5293,-98.5234 128.9354,-98.3781 131.1571,-105.0162"/>
</g>
<!-- Node8 -->
<g id="node8" class="node">
<title>Node8</title>
<g id="a_node8"><a xlink:href="../../d6/dfa/classTrkrCluster.html#a526ac89c45b903df8890bd8b4d476e5c" target="_top" xlink:title="TrkrCluster::getY">
<polygon fill="none" stroke="#000000" points="123.5,-39.5 123.5,-59.5 224.5,-59.5 224.5,-39.5 123.5,-39.5"/>
<text text-anchor="middle" x="174" y="-46.5" font-family="FreeSans" font-size="10.00" fill="#000000">TrkrCluster::getY</text>
</a>
</g>
</g>
<!-- Node1&#45;&gt;Node8 -->
<g id="edge7" class="edge">
<title>Node1&#45;&gt;Node8</title>
<path fill="none" stroke="#191970" d="M45.0135,-136.477C56.9438,-120.144 82.7572,-87.7789 112,-69.5 115.6145,-67.2407 119.5084,-65.2132 123.5212,-63.3981"/>
<polygon fill="#191970" stroke="#191970" points="125.0759,-66.5444 133.0246,-59.5395 122.4425,-60.0586 125.0759,-66.5444"/>
</g>
<!-- Node9 -->
<g id="node9" class="node">
<title>Node9</title>
<g id="a_node9"><a xlink:href="../../d6/dfa/classTrkrCluster.html#a7d92784527cb537e382ffa0460e0f728" target="_top" xlink:title="TrkrCluster::getZ">
<polygon fill="none" stroke="#000000" points="123,-.5 123,-20.5 225,-20.5 225,-.5 123,-.5"/>
<text text-anchor="middle" x="174" y="-7.5" font-family="FreeSans" font-size="10.00" fill="#000000">TrkrCluster::getZ</text>
</a>
</g>
</g>
<!-- Node1&#45;&gt;Node9 -->
<g id="edge8" class="edge">
<title>Node1&#45;&gt;Node9</title>
<path fill="none" stroke="#191970" d="M41.6453,-136.4676C50.2897,-114.0747 74.1845,-59.6974 112,-30.5 114.6409,-28.461 117.4964,-26.6263 120.4821,-24.9759"/>
<polygon fill="#191970" stroke="#191970" points="122.2258,-28.022 129.7449,-20.5578 119.2122,-21.7039 122.2258,-28.022"/>
</g>
</g>
</svg>
