<?xml version="1.0" encoding="UTF-8" standalone="no"?>
<!DOCTYPE svg PUBLIC "-//W3C//DTD SVG 1.1//EN"
 "http://www.w3.org/Graphics/SVG/1.1/DTD/svg11.dtd">
<!-- Generated by graphviz version 2.40.1 (20161225.0304)
 -->
<!-- Title: KFParticleTopoReconstructor::SetChi2PrimaryCut Pages: 1 -->
<svg width="354pt" height="92pt"
 viewBox="0.00 0.00 354.00 92.00" xmlns="http://www.w3.org/2000/svg" xmlns:xlink="http://www.w3.org/1999/xlink">
<g id="graph0" class="graph" transform="scale(1 1) rotate(0) translate(4 88)">
<title>KFParticleTopoReconstructor::SetChi2PrimaryCut</title>
<!-- Node1 -->
<g id="node1" class="node">
<title>Node1</title>
<polygon fill="#bfbfbf" stroke="#000000" points="0,-25.5 0,-57.5 160,-57.5 160,-25.5 0,-25.5"/>
<text text-anchor="start" x="8" y="-44.5" font-family="FreeSans" font-size="10.00" fill="#000000">KFParticleTopoReconstructor</text>
<text text-anchor="middle" x="80" y="-32.5" font-family="FreeSans" font-size="10.00" fill="#000000">::SetChi2PrimaryCut</text>
</g>
<!-- Node2 -->
<g id="node2" class="node">
<title>Node2</title>
<g id="a_node2"><a xlink:href="../../df/d4e/classKFParticlePVReconstructor.html#a390f47b8bd5c6fbe5a82c3cf9d473d06" target="_top" xlink:title="Sets cut fChi2Cut on chi2&#45;deviation of primary tracks from the vertex candidate to &quot;chi2&quot; and a soft ...">
<polygon fill="none" stroke="#000000" points="196,-51.5 196,-83.5 346,-83.5 346,-51.5 196,-51.5"/>
<text text-anchor="start" x="204" y="-70.5" font-family="FreeSans" font-size="10.00" fill="#000000">KFParticlePVReconstructor</text>
<text text-anchor="middle" x="271" y="-58.5" font-family="FreeSans" font-size="10.00" fill="#000000">::SetChi2PrimaryCut</text>
</a>
</g>
</g>
<!-- Node1&#45;&gt;Node2 -->
<g id="edge1" class="edge">
<title>Node1&#45;&gt;Node2</title>
<path fill="none" stroke="#191970" d="M160.171,-52.4133C168.6826,-53.572 177.361,-54.7533 185.9262,-55.9193"/>
<polygon fill="#191970" stroke="#191970" points="185.5315,-59.3977 195.9122,-57.2786 186.4757,-52.4617 185.5315,-59.3977"/>
</g>
<!-- Node3 -->
<g id="node3" class="node">
<title>Node3</title>
<g id="a_node3"><a xlink:href="../../d2/d3d/classKFParticleFinder.html#ab040f949a192af333a7677f6fd838985" target="_top" xlink:title="Sets cut on &#160;of each track for 2&#45;daughter decays.">
<polygon fill="none" stroke="#000000" points="203,-.5 203,-32.5 339,-32.5 339,-.5 203,-.5"/>
<text text-anchor="start" x="211" y="-19.5" font-family="FreeSans" font-size="10.00" fill="#000000">KFParticleFinder::SetChi</text>
<text text-anchor="middle" x="271" y="-7.5" font-family="FreeSans" font-size="10.00" fill="#000000">PrimaryCut2D</text>
</a>
</g>
</g>
<!-- Node1&#45;&gt;Node3 -->
<g id="edge2" class="edge">
<title>Node1&#45;&gt;Node3</title>
<path fill="none" stroke="#191970" d="M160.171,-31.0064C170.9246,-29.5989 181.9444,-28.1565 192.6658,-26.7532"/>
<polygon fill="#191970" stroke="#191970" points="193.374,-30.1904 202.8351,-25.4221 192.4654,-23.2496 193.374,-30.1904"/>
</g>
</g>
</svg>
