<?xml version="1.0" encoding="UTF-8" standalone="no"?>
<!DOCTYPE svg PUBLIC "-//W3C//DTD SVG 1.1//EN"
 "http://www.w3.org/Graphics/SVG/1.1/DTD/svg11.dtd">
<!-- Generated by graphviz version 2.40.1 (20161225.0304)
 -->
<!-- Title: KFParticle/blob/master/KFParticle/KFParticleSIMD.h Pages: 1 -->
<svg width="854pt" height="260pt"
 viewBox="0.00 0.00 854.00 260.00" xmlns="http://www.w3.org/2000/svg" xmlns:xlink="http://www.w3.org/1999/xlink">
<g id="graph0" class="graph" transform="scale(1 1) rotate(0) translate(4 256)">
<title>KFParticle/blob/master/KFParticle/KFParticleSIMD.h</title>
<!-- Node1 -->
<g id="node1" class="node">
<title>Node1</title>
<polygon fill="#bfbfbf" stroke="#000000" points="367,-219.5 367,-251.5 525,-251.5 525,-219.5 367,-219.5"/>
<text text-anchor="start" x="375" y="-238.5" font-family="FreeSans" font-size="10.00" fill="#000000">KFParticle/blob/master</text>
<text text-anchor="middle" x="446" y="-226.5" font-family="FreeSans" font-size="10.00" fill="#000000">/KFParticle/KFParticleSIMD.h</text>
</g>
<!-- Node2 -->
<g id="node2" class="node">
<title>Node2</title>
<g id="a_node2"><a xlink:href="../../d0/dd6/KFParticleFinder_8h.html" target="_top" xlink:title="KFParticle/blob/master\l/KFParticle/KFParticleFinder.h">
<polygon fill="none" stroke="#000000" points="216.5,-150.5 216.5,-182.5 379.5,-182.5 379.5,-150.5 216.5,-150.5"/>
<text text-anchor="start" x="224.5" y="-169.5" font-family="FreeSans" font-size="10.00" fill="#000000">KFParticle/blob/master</text>
<text text-anchor="middle" x="298" y="-157.5" font-family="FreeSans" font-size="10.00" fill="#000000">/KFParticle/KFParticleFinder.h</text>
</a>
</g>
</g>
<!-- Node1&#45;&gt;Node2 -->
<g id="edge1" class="edge">
<title>Node1&#45;&gt;Node2</title>
<path fill="none" stroke="#191970" d="M402.405,-215.1753C380.0675,-204.7612 353.2557,-192.2611 332.3961,-182.536"/>
<polygon fill="#191970" stroke="#191970" points="401.1315,-218.4432 411.6738,-219.4966 404.0894,-212.0988 401.1315,-218.4432"/>
</g>
<!-- Node4 -->
<g id="node4" class="node">
<title>Node4</title>
<g id="a_node4"><a xlink:href="../../d1/def/KFParticleTopoReconstructor_8h.html" target="_top" xlink:title="KFParticle/blob/master\l/KFParticle/KFParticleTopoReconstructor.h">
<polygon fill="none" stroke="#000000" points="192.5,-81.5 192.5,-113.5 417.5,-113.5 417.5,-81.5 192.5,-81.5"/>
<text text-anchor="start" x="200.5" y="-100.5" font-family="FreeSans" font-size="10.00" fill="#000000">KFParticle/blob/master</text>
<text text-anchor="middle" x="305" y="-88.5" font-family="FreeSans" font-size="10.00" fill="#000000">/KFParticle/KFParticleTopoReconstructor.h</text>
</a>
</g>
</g>
<!-- Node1&#45;&gt;Node4 -->
<g id="edge7" class="edge">
<title>Node1&#45;&gt;Node4</title>
<path fill="none" stroke="#191970" d="M433.0149,-210.3156C422.7704,-192.0964 407.2014,-167.6739 389,-150 373.9479,-135.3841 354.1649,-122.7756 337.5787,-113.5806"/>
<polygon fill="#191970" stroke="#191970" points="430.0072,-212.1106 437.8724,-219.209 436.1505,-208.755 430.0072,-212.1106"/>
</g>
<!-- Node5 -->
<g id="node5" class="node">
<title>Node5</title>
<g id="a_node5"><a xlink:href="../../d8/d90/KFParticleTopoReconstructor_8cxx.html" target="_top" xlink:title="KFParticle/blob/master\l/KFParticle/KFParticleTopoReconstructor.cxx">
<polygon fill="none" stroke="#000000" points="327.5,-6.5 327.5,-38.5 564.5,-38.5 564.5,-6.5 327.5,-6.5"/>
<text text-anchor="start" x="335.5" y="-25.5" font-family="FreeSans" font-size="10.00" fill="#000000">KFParticle/blob/master</text>
<text text-anchor="middle" x="446" y="-13.5" font-family="FreeSans" font-size="10.00" fill="#000000">/KFParticle/KFParticleTopoReconstructor.cxx</text>
</a>
</g>
</g>
<!-- Node1&#45;&gt;Node5 -->
<g id="edge8" class="edge">
<title>Node1&#45;&gt;Node5</title>
<path fill="none" stroke="#191970" d="M446,-209.4426C446,-164.8901 446,-75.3418 446,-38.6954"/>
<polygon fill="#191970" stroke="#191970" points="442.5001,-209.4903 446,-219.4904 449.5001,-209.4904 442.5001,-209.4903"/>
</g>
<!-- Node7 -->
<g id="node7" class="node">
<title>Node7</title>
<g id="a_node7"><a xlink:href="../../db/d21/KFParticleSIMD_8cxx.html" target="_top" xlink:title="KFParticle/blob/master\l/KFParticle/KFParticleSIMD.cxx">
<polygon fill="none" stroke="#000000" points="474,-150.5 474,-182.5 644,-182.5 644,-150.5 474,-150.5"/>
<text text-anchor="start" x="482" y="-169.5" font-family="FreeSans" font-size="10.00" fill="#000000">KFParticle/blob/master</text>
<text text-anchor="middle" x="559" y="-157.5" font-family="FreeSans" font-size="10.00" fill="#000000">/KFParticle/KFParticleSIMD.cxx</text>
</a>
</g>
</g>
<!-- Node1&#45;&gt;Node7 -->
<g id="edge6" class="edge">
<title>Node1&#45;&gt;Node7</title>
<path fill="none" stroke="#191970" d="M481.0922,-214.072C497.7,-203.931 517.2038,-192.0216 532.5422,-182.6557"/>
<polygon fill="#191970" stroke="#191970" points="478.9192,-211.2979 472.2085,-219.4966 482.5672,-217.2722 478.9192,-211.2979"/>
</g>
<!-- Node8 -->
<g id="node8" class="node">
<title>Node8</title>
<g id="a_node8"><a xlink:href="../../d0/d87/KFParticleTest_8cxx.html" target="_top" xlink:title="KFParticle/blob/master\l/KFParticleTest/KFParticleTest.cxx">
<polygon fill="none" stroke="#000000" points="662,-150.5 662,-182.5 846,-182.5 846,-150.5 662,-150.5"/>
<text text-anchor="start" x="670" y="-169.5" font-family="FreeSans" font-size="10.00" fill="#000000">KFParticle/blob/master</text>
<text text-anchor="middle" x="754" y="-157.5" font-family="FreeSans" font-size="10.00" fill="#000000">/KFParticleTest/KFParticleTest.cxx</text>
</a>
</g>
</g>
<!-- Node1&#45;&gt;Node8 -->
<g id="edge9" class="edge">
<title>Node1&#45;&gt;Node8</title>
<path fill="none" stroke="#191970" d="M527.2157,-217.3056C575.4296,-206.5044 636.0046,-192.934 682.419,-182.536"/>
<polygon fill="#191970" stroke="#191970" points="526.4285,-213.8951 517.4355,-219.4966 527.9588,-220.7258 526.4285,-213.8951"/>
</g>
<!-- Node3 -->
<g id="node3" class="node">
<title>Node3</title>
<g id="a_node3"><a xlink:href="../../d6/d23/KFParticleFinder_8cxx.html" target="_top" xlink:title="KFParticle/blob/master\l/KFParticle/KFParticleFinder.cxx">
<polygon fill="none" stroke="#000000" points="0,-81.5 0,-113.5 174,-113.5 174,-81.5 0,-81.5"/>
<text text-anchor="start" x="8" y="-100.5" font-family="FreeSans" font-size="10.00" fill="#000000">KFParticle/blob/master</text>
<text text-anchor="middle" x="87" y="-88.5" font-family="FreeSans" font-size="10.00" fill="#000000">/KFParticle/KFParticleFinder.cxx</text>
</a>
</g>
</g>
<!-- Node2&#45;&gt;Node3 -->
<g id="edge2" class="edge">
<title>Node2&#45;&gt;Node3</title>
<path fill="none" stroke="#191970" d="M239.2346,-147.2829C206.7428,-136.6576 166.8388,-123.6084 136.0376,-113.536"/>
<polygon fill="#191970" stroke="#191970" points="238.4694,-150.715 249.062,-150.4966 240.6452,-144.0617 238.4694,-150.715"/>
</g>
<!-- Node2&#45;&gt;Node4 -->
<g id="edge3" class="edge">
<title>Node2&#45;&gt;Node4</title>
<path fill="none" stroke="#191970" d="M300.6338,-140.5385C301.5402,-131.6035 302.5294,-121.8532 303.3367,-113.8958"/>
<polygon fill="#191970" stroke="#191970" points="297.1508,-140.1944 299.6235,-150.4966 304.1151,-140.9009 297.1508,-140.1944"/>
</g>
<!-- Node4&#45;&gt;Node5 -->
<g id="edge4" class="edge">
<title>Node4&#45;&gt;Node5</title>
<path fill="none" stroke="#191970" d="M344.2624,-76.6157C366.8921,-64.5787 394.904,-49.6787 415.802,-38.5628"/>
<polygon fill="#191970" stroke="#191970" points="342.4331,-73.6244 335.248,-81.4106 345.7204,-79.8045 342.4331,-73.6244"/>
</g>
<!-- Node6 -->
<g id="node6" class="node">
<title>Node6</title>
<g id="a_node6"><a xlink:href="../../d4/d59/KFPHistogram_8h.html" target="_top" xlink:title="KFParticle/blob/master\l/KFParticlePerformance\l/KFPHistogram/KFPHistogram.h">
<polygon fill="none" stroke="#000000" points="134.5,-.5 134.5,-44.5 309.5,-44.5 309.5,-.5 134.5,-.5"/>
<text text-anchor="start" x="142.5" y="-31.5" font-family="FreeSans" font-size="10.00" fill="#000000">KFParticle/blob/master</text>
<text text-anchor="start" x="142.5" y="-19.5" font-family="FreeSans" font-size="10.00" fill="#000000">/KFParticlePerformance</text>
<text text-anchor="middle" x="222" y="-7.5" font-family="FreeSans" font-size="10.00" fill="#000000">/KFPHistogram/KFPHistogram.h</text>
</a>
</g>
</g>
<!-- Node4&#45;&gt;Node6 -->
<g id="edge5" class="edge">
<title>Node4&#45;&gt;Node6</title>
<path fill="none" stroke="#191970" d="M279.3695,-74.3399C268.9312,-64.9077 256.9158,-54.0505 246.5869,-44.7171"/>
<polygon fill="#191970" stroke="#191970" points="277.2241,-77.1185 286.9902,-81.2261 281.9172,-71.9248 277.2241,-77.1185"/>
</g>
</g>
</svg>
