<?xml version="1.0" encoding="UTF-8" standalone="no"?>
<!DOCTYPE svg PUBLIC "-//W3C//DTD SVG 1.1//EN"
 "http://www.w3.org/Graphics/SVG/1.1/DTD/svg11.dtd">
<!-- Generated by graphviz version 2.40.1 (20161225.0304)
 -->
<!-- Title: genfit::KalmanFittedStateOnPlane::getChiSquareIncrement Pages: 1 -->
<svg width="663pt" height="245pt"
 viewBox="0.00 0.00 663.00 245.00" xmlns="http://www.w3.org/2000/svg" xmlns:xlink="http://www.w3.org/1999/xlink">
<g id="graph0" class="graph" transform="scale(1 1) rotate(0) translate(4 241)">
<title>genfit::KalmanFittedStateOnPlane::getChiSquareIncrement</title>
<!-- Node1 -->
<g id="node1" class="node">
<title>Node1</title>
<polygon fill="#bfbfbf" stroke="#000000" points="0,-127.5 0,-159.5 186,-159.5 186,-127.5 0,-127.5"/>
<text text-anchor="start" x="8" y="-146.5" font-family="FreeSans" font-size="10.00" fill="#000000">genfit::KalmanFittedState</text>
<text text-anchor="middle" x="93" y="-134.5" font-family="FreeSans" font-size="10.00" fill="#000000">OnPlane::getChiSquareIncrement</text>
</g>
<!-- Node2 -->
<g id="node2" class="node">
<title>Node2</title>
<g id="a_node2"><a xlink:href="../../d8/d26/classgenfit_1_1KalmanFitterRefTrack.html#affda7c9ad9495fd91828d1b43adcc904" target="_top" xlink:title="Fit the track.">
<polygon fill="none" stroke="#000000" points="222,-178.5 222,-210.5 382,-210.5 382,-178.5 222,-178.5"/>
<text text-anchor="start" x="230" y="-197.5" font-family="FreeSans" font-size="10.00" fill="#000000">genfit::KalmanFitterRefTrack</text>
<text text-anchor="middle" x="302" y="-185.5" font-family="FreeSans" font-size="10.00" fill="#000000">::fitTrack</text>
</a>
</g>
</g>
<!-- Node1&#45;&gt;Node2 -->
<g id="edge1" class="edge">
<title>Node1&#45;&gt;Node2</title>
<path fill="none" stroke="#191970" d="M168.824,-162.0025C190.866,-167.3812 214.753,-173.2101 236.13,-178.4264"/>
<polygon fill="#191970" stroke="#191970" points="169.3867,-158.5372 158.842,-159.5667 167.7272,-165.3377 169.3867,-158.5372"/>
</g>
<!-- Node4 -->
<g id="node4" class="node">
<title>Node4</title>
<g id="a_node4"><a xlink:href="../../d2/df7/classgenfit_1_1AbsKalmanFitter.html#a2c5fe231c96899f0061d0aec9776ddc9" target="_top" xlink:title="genfit::AbsKalmanFitter\l::getChiSquNdf">
<polygon fill="none" stroke="#000000" points="234,-102.5 234,-134.5 370,-134.5 370,-102.5 234,-102.5"/>
<text text-anchor="start" x="242" y="-121.5" font-family="FreeSans" font-size="10.00" fill="#000000">genfit::AbsKalmanFitter</text>
<text text-anchor="middle" x="302" y="-109.5" font-family="FreeSans" font-size="10.00" fill="#000000">::getChiSquNdf</text>
</a>
</g>
</g>
<!-- Node1&#45;&gt;Node4 -->
<g id="edge3" class="edge">
<title>Node1&#45;&gt;Node4</title>
<path fill="none" stroke="#191970" d="M196.3515,-131.1374C209.0434,-129.6192 221.7578,-128.0984 233.7458,-126.6644"/>
<polygon fill="#191970" stroke="#191970" points="195.7056,-127.6896 186.1921,-132.3526 196.537,-134.6401 195.7056,-127.6896"/>
</g>
<!-- Node3 -->
<g id="node3" class="node">
<title>Node3</title>
<g id="a_node3"><a xlink:href="../../d8/d26/classgenfit_1_1KalmanFitterRefTrack.html#ad3a24181b5370cc95f01f49ea148c011" target="_top" xlink:title="genfit::KalmanFitterRefTrack\l::processTrackWithRep">
<polygon fill="none" stroke="#000000" points="418,-204.5 418,-236.5 578,-236.5 578,-204.5 418,-204.5"/>
<text text-anchor="start" x="426" y="-223.5" font-family="FreeSans" font-size="10.00" fill="#000000">genfit::KalmanFitterRefTrack</text>
<text text-anchor="middle" x="498" y="-211.5" font-family="FreeSans" font-size="10.00" fill="#000000">::processTrackWithRep</text>
</a>
</g>
</g>
<!-- Node2&#45;&gt;Node3 -->
<g id="edge2" class="edge">
<title>Node2&#45;&gt;Node3</title>
<path fill="none" stroke="#191970" d="M392.0766,-206.4489C400.7035,-207.5933 409.4128,-208.7486 417.9347,-209.8791"/>
<polygon fill="#191970" stroke="#191970" points="392.3768,-202.9582 382.0034,-205.1127 391.4563,-209.8974 392.3768,-202.9582"/>
</g>
<!-- Node5 -->
<g id="node5" class="node">
<title>Node5</title>
<g id="a_node5"><a xlink:href="../../d2/df7/classgenfit_1_1AbsKalmanFitter.html#abfa0600dc050435e022de08888ce2fac" target="_top" xlink:title="genfit::AbsKalmanFitter\l::getChiSqu">
<polygon fill="none" stroke="#000000" points="430,-153.5 430,-185.5 566,-185.5 566,-153.5 430,-153.5"/>
<text text-anchor="start" x="438" y="-172.5" font-family="FreeSans" font-size="10.00" fill="#000000">genfit::AbsKalmanFitter</text>
<text text-anchor="middle" x="498" y="-160.5" font-family="FreeSans" font-size="10.00" fill="#000000">::getChiSqu</text>
</a>
</g>
</g>
<!-- Node4&#45;&gt;Node5 -->
<g id="edge4" class="edge">
<title>Node4&#45;&gt;Node5</title>
<path fill="none" stroke="#191970" d="M373.6668,-137.148C394.1821,-142.4862 416.3604,-148.2571 436.2271,-153.4264"/>
<polygon fill="#191970" stroke="#191970" points="374.3057,-133.6978 363.7466,-134.5667 372.543,-140.4722 374.3057,-133.6978"/>
</g>
<!-- Node6 -->
<g id="node6" class="node">
<title>Node6</title>
<g id="a_node6"><a xlink:href="../../d2/df7/classgenfit_1_1AbsKalmanFitter.html#a2d17d65b1b4ba13d4afd989fc97cdbeb" target="_top" xlink:title="genfit::AbsKalmanFitter\l::getNdf">
<polygon fill="none" stroke="#000000" points="430,-102.5 430,-134.5 566,-134.5 566,-102.5 430,-102.5"/>
<text text-anchor="start" x="438" y="-121.5" font-family="FreeSans" font-size="10.00" fill="#000000">genfit::AbsKalmanFitter</text>
<text text-anchor="middle" x="498" y="-109.5" font-family="FreeSans" font-size="10.00" fill="#000000">::getNdf</text>
</a>
</g>
</g>
<!-- Node4&#45;&gt;Node6 -->
<g id="edge5" class="edge">
<title>Node4&#45;&gt;Node6</title>
<path fill="none" stroke="#191970" d="M380.1136,-118.5C396.5443,-118.5 413.7535,-118.5 429.7872,-118.5"/>
<polygon fill="#191970" stroke="#191970" points="380.0013,-115.0001 370.0012,-118.5 380.0012,-122.0001 380.0013,-115.0001"/>
</g>
<!-- Node7 -->
<g id="node7" class="node">
<title>Node7</title>
<g id="a_node7"><a xlink:href="../../d2/df7/classgenfit_1_1AbsKalmanFitter.html#ae5be3d327dc242b22365a2146b046807" target="_top" xlink:title="genfit::AbsKalmanFitter\l::getPVal">
<polygon fill="none" stroke="#000000" points="430,-51.5 430,-83.5 566,-83.5 566,-51.5 430,-51.5"/>
<text text-anchor="start" x="438" y="-70.5" font-family="FreeSans" font-size="10.00" fill="#000000">genfit::AbsKalmanFitter</text>
<text text-anchor="middle" x="498" y="-58.5" font-family="FreeSans" font-size="10.00" fill="#000000">::getPVal</text>
</a>
</g>
</g>
<!-- Node4&#45;&gt;Node7 -->
<g id="edge6" class="edge">
<title>Node4&#45;&gt;Node7</title>
<path fill="none" stroke="#191970" d="M373.6668,-99.852C394.1821,-94.5138 416.3604,-88.7429 436.2271,-83.5736"/>
<polygon fill="#191970" stroke="#191970" points="372.543,-96.5278 363.7466,-102.4333 374.3057,-103.3022 372.543,-96.5278"/>
</g>
<!-- Node9 -->
<g id="node9" class="node">
<title>Node9</title>
<g id="a_node9"><a xlink:href="../../d2/df7/classgenfit_1_1AbsKalmanFitter.html#afa48eb6e28e4e4a37dc50abcacaa7e01" target="_top" xlink:title="genfit::AbsKalmanFitter\l::getRedChiSqu">
<polygon fill="none" stroke="#000000" points="430,-.5 430,-32.5 566,-32.5 566,-.5 430,-.5"/>
<text text-anchor="start" x="438" y="-19.5" font-family="FreeSans" font-size="10.00" fill="#000000">genfit::AbsKalmanFitter</text>
<text text-anchor="middle" x="498" y="-7.5" font-family="FreeSans" font-size="10.00" fill="#000000">::getRedChiSqu</text>
</a>
</g>
</g>
<!-- Node4&#45;&gt;Node9 -->
<g id="edge8" class="edge">
<title>Node4&#45;&gt;Node9</title>
<path fill="none" stroke="#191970" d="M330.9778,-96.3796C353.6991,-79.8282 386.6221,-57.5459 418,-42.5 425.6377,-38.8377 433.9209,-35.5003 442.1653,-32.5285"/>
<polygon fill="#191970" stroke="#191970" points="328.7642,-93.6632 322.7936,-102.4155 332.919,-99.2968 328.7642,-93.6632"/>
</g>
<!-- Node8 -->
<g id="node8" class="node">
<title>Node8</title>
<g id="a_node8"><a xlink:href="../../d0/d48/GenFit_2blob_2master_2test_2fitterTests_2main_8cc.html#ae66f6b31b5ad750f1fe042a706a4e3d4" target="_top" xlink:title="main">
<polygon fill="none" stroke="#000000" points="614,-57.5 614,-77.5 655,-77.5 655,-57.5 614,-57.5"/>
<text text-anchor="middle" x="634.5" y="-64.5" font-family="FreeSans" font-size="10.00" fill="#000000">main</text>
</a>
</g>
</g>
<!-- Node7&#45;&gt;Node8 -->
<g id="edge7" class="edge">
<title>Node7&#45;&gt;Node8</title>
<path fill="none" stroke="#191970" d="M576.3705,-67.5C590.1778,-67.5 603.42,-67.5 613.7686,-67.5"/>
<polygon fill="#191970" stroke="#191970" points="576.25,-64.0001 566.25,-67.5 576.25,-71.0001 576.25,-64.0001"/>
</g>
</g>
</svg>
