<?xml version="1.0" encoding="UTF-8" standalone="no"?>
<!DOCTYPE svg PUBLIC "-//W3C//DTD SVG 1.1//EN"
 "http://www.w3.org/Graphics/SVG/1.1/DTD/svg11.dtd">
<!-- Generated by graphviz version 2.40.1 (20161225.0304)
 -->
<!-- Title: genfit::KalmanFittedStateOnPlane::operator= Pages: 1 -->
<svg width="956pt" height="102pt"
 viewBox="0.00 0.00 956.00 102.00" xmlns="http://www.w3.org/2000/svg" xmlns:xlink="http://www.w3.org/1999/xlink">
<g id="graph0" class="graph" transform="scale(1 1) rotate(0) translate(4 98)">
<title>genfit::KalmanFittedStateOnPlane::operator=</title>
<!-- Node1 -->
<g id="node1" class="node">
<title>Node1</title>
<polygon fill="#bfbfbf" stroke="#000000" points="0,-.5 0,-32.5 145,-32.5 145,-.5 0,-.5"/>
<text text-anchor="start" x="8" y="-19.5" font-family="FreeSans" font-size="10.00" fill="#000000">genfit::KalmanFittedState</text>
<text text-anchor="middle" x="72.5" y="-7.5" font-family="FreeSans" font-size="10.00" fill="#000000">OnPlane::operator=</text>
</g>
<!-- Node2 -->
<g id="node2" class="node">
<title>Node2</title>
<g id="a_node2"><a xlink:href="../../df/d8f/classgenfit_1_1KalmanFittedStateOnPlane.html#a8169ef8e3dff2e607c1a4cb040abf952" target="_top" xlink:title="genfit::KalmanFittedState\lOnPlane::swap">
<polygon fill="none" stroke="#000000" points="181,-.5 181,-32.5 326,-32.5 326,-.5 181,-.5"/>
<text text-anchor="start" x="189" y="-19.5" font-family="FreeSans" font-size="10.00" fill="#000000">genfit::KalmanFittedState</text>
<text text-anchor="middle" x="253.5" y="-7.5" font-family="FreeSans" font-size="10.00" fill="#000000">OnPlane::swap</text>
</a>
</g>
</g>
<!-- Node1&#45;&gt;Node2 -->
<g id="edge1" class="edge">
<title>Node1&#45;&gt;Node2</title>
<path fill="none" stroke="#191970" d="M145.0767,-16.5C153.5595,-16.5 162.2611,-16.5 170.8671,-16.5"/>
<polygon fill="#191970" stroke="#191970" points="170.907,-20.0001 180.907,-16.5 170.907,-13.0001 170.907,-20.0001"/>
</g>
<!-- Node3 -->
<g id="node3" class="node">
<title>Node3</title>
<g id="a_node3"><a xlink:href="../../d2/d74/classgenfit_1_1MeasuredStateOnPlane.html#ac4114005e848fb0c739f7a25509dfd7a" target="_top" xlink:title="genfit::MeasuredStateOnPlane\l::swap">
<polygon fill="none" stroke="#000000" points="362,-23.5 362,-55.5 532,-55.5 532,-23.5 362,-23.5"/>
<text text-anchor="start" x="370" y="-42.5" font-family="FreeSans" font-size="10.00" fill="#000000">genfit::MeasuredStateOnPlane</text>
<text text-anchor="middle" x="447" y="-30.5" font-family="FreeSans" font-size="10.00" fill="#000000">::swap</text>
</a>
</g>
</g>
<!-- Node2&#45;&gt;Node3 -->
<g id="edge2" class="edge">
<title>Node2&#45;&gt;Node3</title>
<path fill="none" stroke="#191970" d="M326.1028,-25.1298C334.5043,-26.1284 343.1653,-27.1579 351.8098,-28.1854"/>
<polygon fill="#191970" stroke="#191970" points="351.5902,-31.6839 361.9334,-29.3887 352.4164,-24.7328 351.5902,-31.6839"/>
</g>
<!-- Node5 -->
<g id="node5" class="node">
<title>Node5</title>
<g id="a_node5"><a xlink:href="../../d4/da9/namespaceboost.html#a630945877437d477612e4419562161cc" target="_top" xlink:title="boost::swap">
<polygon fill="none" stroke="#000000" points="725,-22.5 725,-42.5 802,-42.5 802,-22.5 725,-22.5"/>
<text text-anchor="middle" x="763.5" y="-29.5" font-family="FreeSans" font-size="10.00" fill="#000000">boost::swap</text>
</a>
</g>
</g>
<!-- Node2&#45;&gt;Node5 -->
<g id="edge8" class="edge">
<title>Node2&#45;&gt;Node5</title>
<path fill="none" stroke="#191970" d="M326.1559,-14.2136C338.1299,-13.9165 350.412,-13.6602 362,-13.5 437.5483,-12.4558 456.5078,-10.4072 532,-13.5 595.1188,-16.0858 667.6751,-22.6216 714.484,-27.3048"/>
<polygon fill="#191970" stroke="#191970" points="714.3459,-30.8087 724.6474,-28.3331 715.0506,-23.8442 714.3459,-30.8087"/>
</g>
<!-- Node4 -->
<g id="node4" class="node">
<title>Node4</title>
<g id="a_node4"><a xlink:href="../../de/dd5/classgenfit_1_1StateOnPlane.html#acab76983d79952d6393ffc39db29b115" target="_top" xlink:title="genfit::StateOnPlane\l::swap">
<polygon fill="none" stroke="#000000" points="568,-61.5 568,-93.5 689,-93.5 689,-61.5 568,-61.5"/>
<text text-anchor="start" x="576" y="-80.5" font-family="FreeSans" font-size="10.00" fill="#000000">genfit::StateOnPlane</text>
<text text-anchor="middle" x="628.5" y="-68.5" font-family="FreeSans" font-size="10.00" fill="#000000">::swap</text>
</a>
</g>
</g>
<!-- Node3&#45;&gt;Node4 -->
<g id="edge3" class="edge">
<title>Node3&#45;&gt;Node4</title>
<path fill="none" stroke="#191970" d="M523.4463,-55.5053C534.9107,-57.9055 546.6875,-60.3712 558.0199,-62.7438"/>
<polygon fill="#191970" stroke="#191970" points="557.3403,-66.1774 567.8453,-64.8009 558.7748,-59.3259 557.3403,-66.1774"/>
</g>
<!-- Node3&#45;&gt;Node5 -->
<g id="edge7" class="edge">
<title>Node3&#45;&gt;Node5</title>
<path fill="none" stroke="#191970" d="M532.2325,-37.6149C590.5692,-36.3247 665.8612,-34.6595 714.4139,-33.5856"/>
<polygon fill="#191970" stroke="#191970" points="714.7324,-37.0795 724.6525,-33.3592 714.5775,-30.0813 714.7324,-37.0795"/>
</g>
<!-- Node4&#45;&gt;Node5 -->
<g id="edge4" class="edge">
<title>Node4&#45;&gt;Node5</title>
<path fill="none" stroke="#191970" d="M676.8568,-61.3811C692.1018,-56.2994 708.7671,-50.7443 723.3735,-45.8755"/>
<polygon fill="#191970" stroke="#191970" points="724.734,-49.1114 733.114,-42.6287 722.5203,-42.4706 724.734,-49.1114"/>
</g>
<!-- Node6 -->
<g id="node6" class="node">
<title>Node6</title>
<g id="a_node6"><a xlink:href="../../d1/d96/classboost_1_1array.html#a342ef866ed696b18ce803b5c9aba4b2e" target="_top" xlink:title="boost::array::swap">
<polygon fill="none" stroke="#000000" points="838,-22.5 838,-42.5 948,-42.5 948,-22.5 838,-22.5"/>
<text text-anchor="middle" x="893" y="-29.5" font-family="FreeSans" font-size="10.00" fill="#000000">boost::array::swap</text>
</a>
</g>
</g>
<!-- Node5&#45;&gt;Node6 -->
<g id="edge5" class="edge">
<title>Node5&#45;&gt;Node6</title>
<path fill="none" stroke="#191970" d="M802.0036,-26.2692C810.0418,-25.9335 818.7295,-25.7606 827.4369,-25.7505"/>
<polygon fill="#191970" stroke="#191970" points="827.6084,-29.2515 837.6298,-25.8134 827.6517,-22.2516 827.6084,-29.2515"/>
</g>
<!-- Node6&#45;&gt;Node5 -->
<g id="edge6" class="edge">
<title>Node6&#45;&gt;Node5</title>
<path fill="none" stroke="#191970" d="M837.6298,-39.1866C829.1911,-39.3014 820.5353,-39.2603 812.252,-39.0634"/>
<polygon fill="#191970" stroke="#191970" points="812.112,-35.5571 802.0036,-38.7308 811.8848,-42.5535 812.112,-35.5571"/>
</g>
</g>
</svg>
