<?xml version="1.0" encoding="UTF-8" standalone="no"?>
<!DOCTYPE svg PUBLIC "-//W3C//DTD SVG 1.1//EN"
 "http://www.w3.org/Graphics/SVG/1.1/DTD/svg11.dtd">
<!-- Generated by graphviz version 2.40.1 (20161225.0304)
 -->
<!-- Title: genfit::GFRaveVertexFactory Pages: 1 -->
<svg width="1786pt" height="483pt"
 viewBox="0.00 0.00 1786.00 482.50" xmlns="http://www.w3.org/2000/svg" xmlns:xlink="http://www.w3.org/1999/xlink">
<g id="graph0" class="graph" transform="scale(1 1) rotate(0) translate(4 478.5)">
<title>genfit::GFRaveVertexFactory</title>
<!-- Node1 -->
<g id="node1" class="node">
<title>Node1</title>
<polygon fill="#bfbfbf" stroke="#000000" points="1603.5,-441 1603.5,-461 1763.5,-461 1763.5,-441 1603.5,-441"/>
<text text-anchor="middle" x="1683.5" y="-448" font-family="FreeSans" font-size="10.00" fill="#000000">genfit::GFRaveVertexFactory</text>
</g>
<!-- Node2 -->
<g id="node2" class="node">
<title>Node2</title>
<polygon fill="none" stroke="#bfbfbf" points="1309,-435 1309,-467 1431,-467 1431,-435 1309,-435"/>
<text text-anchor="start" x="1317" y="-454" font-family="FreeSans" font-size="10.00" fill="#000000">std::map&lt; int, genfit</text>
<text text-anchor="middle" x="1370" y="-442" font-family="FreeSans" font-size="10.00" fill="#000000">::trackAndState &gt;</text>
</g>
<!-- Node2&#45;&gt;Node1 -->
<g id="edge1" class="edge">
<title>Node2&#45;&gt;Node1</title>
<path fill="none" stroke="#9a32cd" stroke-dasharray="5,2" d="M1441.2458,-451C1489.5284,-451 1553.4065,-451 1603.4462,-451"/>
<polygon fill="#9a32cd" stroke="#9a32cd" points="1441.1902,-447.5001 1431.1902,-451 1441.1901,-454.5001 1441.1902,-447.5001"/>
<text text-anchor="middle" x="1517.5" y="-454" font-family="FreeSans" font-size="10.00" fill="#000000"> IdGFTrackStateMap_</text>
</g>
<!-- Node3 -->
<g id="node3" class="node">
<title>Node3</title>
<g id="a_node3"><a xlink:href="../../dd/d17/structgenfit_1_1trackAndState.html" target="_top" xlink:title="Simple struct containing a Track pointer and a MeasuredStateOnPlane. Used in GFRave.">
<polygon fill="none" stroke="#000000" points="1059,-441 1059,-461 1183,-461 1183,-441 1059,-441"/>
<text text-anchor="middle" x="1121" y="-448" font-family="FreeSans" font-size="10.00" fill="#000000">genfit::trackAndState</text>
</a>
</g>
</g>
<!-- Node3&#45;&gt;Node2 -->
<g id="edge2" class="edge">
<title>Node3&#45;&gt;Node2</title>
<path fill="none" stroke="#9a32cd" stroke-dasharray="5,2" d="M1193.2909,-451C1229.837,-451 1273.713,-451 1308.6017,-451"/>
<polygon fill="#9a32cd" stroke="#9a32cd" points="1193.1909,-447.5001 1183.1909,-451 1193.1909,-454.5001 1193.1909,-447.5001"/>
<text text-anchor="middle" x="1246" y="-454" font-family="FreeSans" font-size="10.00" fill="#000000"> elements</text>
</g>
<!-- Node4 -->
<g id="node4" class="node">
<title>Node4</title>
<g id="a_node4"><a xlink:href="../../d6/d8a/classgenfit_1_1Track.html" target="_top" xlink:title="Collection of TrackPoint objects, AbsTrackRep objects and FitStatus objects.">
<polygon fill="none" stroke="#000000" points="848.5,-298 848.5,-318 927.5,-318 927.5,-298 848.5,-298"/>
<text text-anchor="middle" x="888" y="-305" font-family="FreeSans" font-size="10.00" fill="#000000">genfit::Track</text>
</a>
</g>
</g>
<!-- Node4&#45;&gt;Node3 -->
<g id="edge3" class="edge">
<title>Node4&#45;&gt;Node3</title>
<path fill="none" stroke="#9a32cd" stroke-dasharray="5,2" d="M902.4512,-326.1088C920.8682,-348.0891 954.697,-384.9428 991,-407 1017.1666,-422.8985 1049.8188,-433.9225 1075.8528,-440.9598"/>
<polygon fill="#9a32cd" stroke="#9a32cd" points="905.0148,-323.7156 895.962,-318.2113 899.6064,-328.1596 905.0148,-323.7156"/>
<text text-anchor="middle" x="1008.5" y="-426" font-family="FreeSans" font-size="10.00" fill="#000000"> track_</text>
</g>
<!-- Node12 -->
<g id="node12" class="node">
<title>Node12</title>
<g id="a_node12"><a xlink:href="../../db/d40/classgenfit_1_1TrackPoint.html" target="_top" xlink:title="Object containing AbsMeasurement and AbsFitterInfo objects.">
<polygon fill="none" stroke="#000000" points="1069,-131 1069,-151 1173,-151 1173,-131 1069,-131"/>
<text text-anchor="middle" x="1121" y="-138" font-family="FreeSans" font-size="10.00" fill="#000000">genfit::TrackPoint</text>
</a>
</g>
</g>
<!-- Node4&#45;&gt;Node12 -->
<g id="edge15" class="edge">
<title>Node4&#45;&gt;Node12</title>
<path fill="none" stroke="#9a32cd" stroke-dasharray="5,2" d="M924.3422,-294.0161C939.8597,-287.3719 957.8472,-278.747 973,-269 1030.427,-232.0602 1088.9133,-174.2192 1111.3934,-151.0707"/>
<polygon fill="#9a32cd" stroke="#9a32cd" points="922.9314,-290.8122 915.047,-297.8894 925.6239,-297.2737 922.9314,-290.8122"/>
<text text-anchor="middle" x="1008.5" y="-256" font-family="FreeSans" font-size="10.00" fill="#000000"> track_</text>
</g>
<!-- Node5 -->
<g id="node5" class="node">
<title>Node5</title>
<polygon fill="none" stroke="#bfbfbf" points="25.5,-163 25.5,-183 82.5,-183 82.5,-163 25.5,-163"/>
<text text-anchor="middle" x="54" y="-170" font-family="FreeSans" font-size="10.00" fill="#000000">TObject</text>
</g>
<!-- Node5&#45;&gt;Node4 -->
<g id="edge4" class="edge">
<title>Node5&#45;&gt;Node4</title>
<path fill="none" stroke="#191970" d="M83.5304,-187.3291C96.3216,-193.0004 111.6316,-199.0874 126,-203 265.1579,-240.8938 711.9654,-289.5928 848.1953,-303.8861"/>
<polygon fill="#191970" stroke="#191970" points="84.8477,-184.0831 74.2971,-183.1162 81.9419,-190.4515 84.8477,-184.0831"/>
</g>
<!-- Node9 -->
<g id="node9" class="node">
<title>Node9</title>
<g id="a_node9"><a xlink:href="../../d1/d25/classgenfit_1_1AbsTrackRep.html" target="_top" xlink:title="Abstract base class for a track representation.">
<polygon fill="none" stroke="#000000" points="212,-314 212,-334 329,-334 329,-314 212,-314"/>
<text text-anchor="middle" x="270.5" y="-321" font-family="FreeSans" font-size="10.00" fill="#000000">genfit::AbsTrackRep</text>
</a>
</g>
</g>
<!-- Node5&#45;&gt;Node9 -->
<g id="edge9" class="edge">
<title>Node5&#45;&gt;Node9</title>
<path fill="none" stroke="#191970" d="M70.1108,-190.3539C84.0855,-204.8629 105.274,-225.5973 126,-241 167.1005,-271.5441 220.4439,-299.529 249.4527,-313.8922"/>
<polygon fill="#191970" stroke="#191970" points="72.5607,-187.851 63.1379,-183.0073 67.4835,-192.67 72.5607,-187.851"/>
</g>
<!-- Node5&#45;&gt;Node12 -->
<g id="edge14" class="edge">
<title>Node5&#45;&gt;Node12</title>
<path fill="none" stroke="#191970" d="M82.1074,-158.5734C122.6213,-139.1511 200.2902,-107 270.5,-107 270.5,-107 270.5,-107 888,-107 955.0429,-107 1031.8103,-120.9536 1078.3284,-130.9828"/>
<polygon fill="#191970" stroke="#191970" points="80.5492,-155.4392 73.1029,-162.976 83.6239,-161.7278 80.5492,-155.4392"/>
</g>
<!-- Node14 -->
<g id="node14" class="node">
<title>Node14</title>
<g id="a_node14"><a xlink:href="../../d9/d8c/classgenfit_1_1AbsFitterInfo.html" target="_top" xlink:title="This class collects all information needed and produced by a specific AbsFitter and is specific to on...">
<polygon fill="none" stroke="#000000" points="1312,-146 1312,-166 1428,-166 1428,-146 1312,-146"/>
<text text-anchor="middle" x="1370" y="-153" font-family="FreeSans" font-size="10.00" fill="#000000">genfit::AbsFitterInfo</text>
</a>
</g>
</g>
<!-- Node5&#45;&gt;Node14 -->
<g id="edge18" class="edge">
<title>Node5&#45;&gt;Node14</title>
<path fill="none" stroke="#191970" d="M93.045,-174.8779C240.144,-181.8464 774.9378,-206.2212 1216,-214 1242.6625,-214.4702 1253.7376,-228.6798 1276,-214 1292.9546,-202.8202 1278.2944,-184.8755 1294,-172 1299.2137,-167.7258 1305.29,-164.5108 1311.6931,-162.1044"/>
<polygon fill="#191970" stroke="#191970" points="92.8924,-171.3668 82.7375,-174.388 92.56,-178.3589 92.8924,-171.3668"/>
</g>
<!-- Node16 -->
<g id="node16" class="node">
<title>Node16</title>
<g id="a_node16"><a xlink:href="../../d5/d1f/classgenfit_1_1AbsMeasurement.html" target="_top" xlink:title="Contains the measurement and covariance in raw detector coordinates.">
<polygon fill="none" stroke="#000000" points="1299.5,-3 1299.5,-23 1440.5,-23 1440.5,-3 1299.5,-3"/>
<text text-anchor="middle" x="1370" y="-10" font-family="FreeSans" font-size="10.00" fill="#000000">genfit::AbsMeasurement</text>
</a>
</g>
</g>
<!-- Node5&#45;&gt;Node16 -->
<g id="edge23" class="edge">
<title>Node5&#45;&gt;Node16</title>
<path fill="none" stroke="#191970" d="M70.0606,-155.5863C111.2767,-111.6923 221.0165,0 270.5,0 270.5,0 270.5,0 1121,0 1181.2786,0 1249.6539,-3.8464 1299.4826,-7.3547"/>
<polygon fill="#191970" stroke="#191970" points="67.4529,-153.2507 63.1921,-162.951 72.5721,-158.025 67.4529,-153.2507"/>
</g>
<!-- Node18 -->
<g id="node18" class="node">
<title>Node18</title>
<g id="a_node18"><a xlink:href="../../d6/d15/classgenfit_1_1ThinScatterer.html" target="_top" xlink:title="Thin or thick scatterer.">
<polygon fill="none" stroke="#000000" points="210,-140 210,-160 331,-160 331,-140 210,-140"/>
<text text-anchor="middle" x="270.5" y="-147" font-family="FreeSans" font-size="10.00" fill="#000000">genfit::ThinScatterer</text>
</a>
</g>
</g>
<!-- Node5&#45;&gt;Node18 -->
<g id="edge27" class="edge">
<title>Node5&#45;&gt;Node18</title>
<path fill="none" stroke="#191970" d="M92.7535,-168.883C125.2229,-165.4336 172.1442,-160.4489 209.6255,-156.467"/>
<polygon fill="#191970" stroke="#191970" points="92.3238,-165.4089 82.7495,-169.9458 93.0633,-172.3697 92.3238,-165.4089"/>
</g>
<!-- Node6 -->
<g id="node6" class="node">
<title>Node6</title>
<polygon fill="none" stroke="#bfbfbf" points="426,-333 426,-365 575,-365 575,-333 426,-333"/>
<text text-anchor="start" x="434" y="-352" font-family="FreeSans" font-size="10.00" fill="#000000">std::map&lt; const AbsTrack</text>
<text text-anchor="middle" x="500.5" y="-340" font-family="FreeSans" font-size="10.00" fill="#000000">Rep *, FitStatus * &gt;</text>
</g>
<!-- Node6&#45;&gt;Node4 -->
<g id="edge5" class="edge">
<title>Node6&#45;&gt;Node4</title>
<path fill="none" stroke="#9a32cd" stroke-dasharray="5,2" d="M585.1467,-341.8702C641.776,-336.8782 717.9299,-329.7375 785,-322 805.9751,-319.5802 829.2921,-316.448 848.429,-313.7599"/>
<polygon fill="#9a32cd" stroke="#9a32cd" points="584.8196,-338.3853 575.1637,-342.7458 585.4313,-345.3586 584.8196,-338.3853"/>
<text text-anchor="middle" x="693" y="-343" font-family="FreeSans" font-size="10.00" fill="#000000"> fitStatuses_</text>
</g>
<!-- Node7 -->
<g id="node7" class="node">
<title>Node7</title>
<g id="a_node7"><a xlink:href="../../d0/d8d/classgenfit_1_1FitStatus.html" target="_top" xlink:title="Class where important numbers and properties of a fit can be stored.">
<polygon fill="none" stroke="#000000" points="222.5,-417 222.5,-437 318.5,-437 318.5,-417 222.5,-417"/>
<text text-anchor="middle" x="270.5" y="-424" font-family="FreeSans" font-size="10.00" fill="#000000">genfit::FitStatus</text>
</a>
</g>
</g>
<!-- Node7&#45;&gt;Node6 -->
<g id="edge6" class="edge">
<title>Node7&#45;&gt;Node6</title>
<path fill="none" stroke="#9a32cd" stroke-dasharray="5,2" d="M309.6853,-413.7111C349.3318,-400.2657 410.6613,-379.4671 453.0389,-365.0955"/>
<polygon fill="#9a32cd" stroke="#9a32cd" points="308.4438,-410.4363 300.0976,-416.9625 310.692,-417.0654 308.4438,-410.4363"/>
<text text-anchor="middle" x="374.5" y="-402" font-family="FreeSans" font-size="10.00" fill="#000000"> elements</text>
</g>
<!-- Node8 -->
<g id="node8" class="node">
<title>Node8</title>
<g id="a_node8"><a xlink:href="../../d6/d51/structgenfit_1_1PruneFlags.html" target="_top" xlink:title="Info which information has been pruned from the Track.">
<polygon fill="none" stroke="#000000" points="0,-417 0,-437 108,-437 108,-417 0,-417"/>
<text text-anchor="middle" x="54" y="-424" font-family="FreeSans" font-size="10.00" fill="#000000">genfit::PruneFlags</text>
</a>
</g>
</g>
<!-- Node8&#45;&gt;Node7 -->
<g id="edge7" class="edge">
<title>Node8&#45;&gt;Node7</title>
<path fill="none" stroke="#9a32cd" stroke-dasharray="5,2" d="M118.1884,-427C151.5336,-427 191.6047,-427 222.2752,-427"/>
<polygon fill="#9a32cd" stroke="#9a32cd" points="118.0737,-423.5001 108.0736,-427 118.0736,-430.5001 118.0737,-423.5001"/>
<text text-anchor="middle" x="159" y="-430" font-family="FreeSans" font-size="10.00" fill="#000000"> pruneFlags_</text>
</g>
<!-- Node9&#45;&gt;Node6 -->
<g id="edge8" class="edge">
<title>Node9&#45;&gt;Node6</title>
<path fill="none" stroke="#9a32cd" stroke-dasharray="5,2" d="M339.3652,-331.4854C366.6331,-334.4493 398.0492,-337.864 425.8591,-340.8869"/>
<polygon fill="#9a32cd" stroke="#9a32cd" points="339.4535,-327.9744 329.1338,-330.3732 338.697,-334.9334 339.4535,-327.9744"/>
<text text-anchor="middle" x="374.5" y="-340" font-family="FreeSans" font-size="10.00" fill="#000000"> keys</text>
</g>
<!-- Node10 -->
<g id="node10" class="node">
<title>Node10</title>
<polygon fill="none" stroke="#bfbfbf" points="418,-294 418,-314 583,-314 583,-294 418,-294"/>
<text text-anchor="middle" x="500.5" y="-301" font-family="FreeSans" font-size="10.00" fill="#000000">std::vector&lt; AbsTrackRep * &gt;</text>
</g>
<!-- Node9&#45;&gt;Node10 -->
<g id="edge11" class="edge">
<title>Node9&#45;&gt;Node10</title>
<path fill="none" stroke="#9a32cd" stroke-dasharray="5,2" d="M339.1739,-314.0542C342.4932,-313.6749 345.7819,-313.3205 349,-313 371.2859,-310.7802 395.4747,-309.0423 417.8457,-307.711"/>
<polygon fill="#9a32cd" stroke="#9a32cd" points="338.6748,-310.5889 329.1643,-315.258 339.5107,-317.5389 338.6748,-310.5889"/>
<text text-anchor="middle" x="374.5" y="-316" font-family="FreeSans" font-size="10.00" fill="#000000"> elements</text>
</g>
<!-- Node9&#45;&gt;Node14 -->
<g id="edge20" class="edge">
<title>Node9&#45;&gt;Node14</title>
<path fill="none" stroke="#9a32cd" stroke-dasharray="5,2" d="M311.0678,-310.8677C340.4323,-301.9562 381.2523,-290.7806 418,-285 465.1553,-277.5822 1238.911,-269.0507 1276,-239 1299.957,-219.5892 1271.6064,-193.1954 1294,-172 1299.0922,-167.1802 1305.2515,-163.6583 1311.8342,-161.1059"/>
<polygon fill="#9a32cd" stroke="#9a32cd" points="309.7105,-307.6235 301.1845,-313.9128 311.7717,-314.3131 309.7105,-307.6235"/>
<text text-anchor="middle" x="888" y="-274" font-family="FreeSans" font-size="10.00" fill="#000000"> rep_</text>
</g>
<!-- Node20 -->
<g id="node20" class="node">
<title>Node20</title>
<polygon fill="none" stroke="#bfbfbf" points="1609,-187 1609,-219 1758,-219 1758,-187 1609,-187"/>
<text text-anchor="start" x="1617" y="-206" font-family="FreeSans" font-size="10.00" fill="#000000">std::map&lt; const AbsTrack</text>
<text text-anchor="middle" x="1683.5" y="-194" font-family="FreeSans" font-size="10.00" fill="#000000">Rep *, AbsFitterInfo * &gt;</text>
</g>
<!-- Node9&#45;&gt;Node20 -->
<g id="edge30" class="edge">
<title>Node9&#45;&gt;Node20</title>
<path fill="none" stroke="#9a32cd" stroke-dasharray="5,2" d="M298.768,-338.5353C341.3434,-359.043 424.9908,-394 500.5,-394 500.5,-394 500.5,-394 1370,-394 1503.839,-394 1629.0565,-265.4737 1669.7352,-219.2846"/>
<polygon fill="#9a32cd" stroke="#9a32cd" points="300.1088,-335.2945 289.5898,-334.0293 297.0239,-341.5781 300.1088,-335.2945"/>
<text text-anchor="middle" x="1008.5" y="-397" font-family="FreeSans" font-size="10.00" fill="#000000"> keys</text>
</g>
<!-- Node22 -->
<g id="node22" class="node">
<title>Node22</title>
<g id="a_node22"><a xlink:href="../../de/dd5/classgenfit_1_1StateOnPlane.html" target="_top" xlink:title="A state with arbitrary dimension defined in a DetPlane.">
<polygon fill="none" stroke="#000000" points="440,-453 440,-473 561,-473 561,-453 440,-453"/>
<text text-anchor="middle" x="500.5" y="-460" font-family="FreeSans" font-size="10.00" fill="#000000">genfit::StateOnPlane</text>
</a>
</g>
</g>
<!-- Node9&#45;&gt;Node22 -->
<g id="edge34" class="edge">
<title>Node9&#45;&gt;Node22</title>
<path fill="none" stroke="#9a32cd" stroke-dasharray="5,2" d="M281.9408,-342.5788C295.5147,-363.1352 319.9974,-395.8772 349,-415 377.6777,-433.9086 414.2939,-445.7784 444.3445,-452.9835"/>
<polygon fill="#9a32cd" stroke="#9a32cd" points="284.8385,-340.6135 276.4948,-334.0841 278.9455,-344.3916 284.8385,-340.6135"/>
<text text-anchor="middle" x="374.5" y="-442" font-family="FreeSans" font-size="10.00" fill="#000000"> rep_</text>
</g>
<!-- Node10&#45;&gt;Node4 -->
<g id="edge10" class="edge">
<title>Node10&#45;&gt;Node4</title>
<path fill="none" stroke="#9a32cd" stroke-dasharray="5,2" d="M593.3984,-304.959C674.7041,-305.7982 788.8632,-306.9767 848.3803,-307.591"/>
<polygon fill="#9a32cd" stroke="#9a32cd" points="593.1888,-301.4567 583.1532,-304.8532 593.1165,-308.4563 593.1888,-301.4567"/>
<text text-anchor="middle" x="693" y="-309" font-family="FreeSans" font-size="10.00" fill="#000000"> trackReps_</text>
</g>
<!-- Node11 -->
<g id="node11" class="node">
<title>Node11</title>
<polygon fill="none" stroke="#bfbfbf" points="1294,-259 1294,-279 1446,-279 1446,-259 1294,-259"/>
<text text-anchor="middle" x="1370" y="-266" font-family="FreeSans" font-size="10.00" fill="#000000">std::vector&lt; TrackPoint * &gt;</text>
</g>
<!-- Node11&#45;&gt;Node4 -->
<g id="edge12" class="edge">
<title>Node11&#45;&gt;Node4</title>
<path fill="none" stroke="#9a32cd" stroke-dasharray="5,2" d="M1283.5288,-275.9966C1178.4073,-284.5023 1005.4528,-298.4966 927.8542,-304.7753"/>
<polygon fill="#9a32cd" stroke="#9a32cd" points="1284.1136,-279.4608 1293.7987,-275.1657 1283.549,-272.4836 1284.1136,-279.4608"/>
<text text-anchor="middle" x="1121" y="-309" font-family="FreeSans" font-size="10.00" fill="#000000"> trackPoints_</text>
<text text-anchor="middle" x="1121" y="-297" font-family="FreeSans" font-size="10.00" fill="#000000">trackPointsWithMeasurement_</text>
</g>
<!-- Node12&#45;&gt;Node11 -->
<g id="edge13" class="edge">
<title>Node12&#45;&gt;Node11</title>
<path fill="none" stroke="#9a32cd" stroke-dasharray="5,2" d="M1149.7127,-155.7599C1200.8282,-182.0362 1306.3478,-236.2792 1350.2076,-258.8256"/>
<polygon fill="#9a32cd" stroke="#9a32cd" points="1151.0325,-152.5031 1140.5386,-151.0439 1147.8322,-158.7287 1151.0325,-152.5031"/>
<text text-anchor="middle" x="1246" y="-223" font-family="FreeSans" font-size="10.00" fill="#000000"> elements</text>
</g>
<!-- Node12&#45;&gt;Node14 -->
<g id="edge19" class="edge">
<title>Node12&#45;&gt;Node14</title>
<path fill="none" stroke="#9a32cd" stroke-dasharray="5,2" d="M1183.2648,-139.3967C1211.5974,-139.1822 1245.533,-139.6448 1276,-142 1287.6798,-142.9029 1300.1113,-144.3818 1311.9793,-146.0478"/>
<polygon fill="#9a32cd" stroke="#9a32cd" points="1183.0593,-135.8986 1173.0969,-139.5041 1183.1333,-142.8982 1183.0593,-135.8986"/>
<text text-anchor="middle" x="1246" y="-145" font-family="FreeSans" font-size="10.00" fill="#000000"> trackPoint_</text>
</g>
<!-- Node12&#45;&gt;Node16 -->
<g id="edge24" class="edge">
<title>Node12&#45;&gt;Node16</title>
<path fill="none" stroke="#9a32cd" stroke-dasharray="5,2" d="M1131.8162,-122.0774C1147.0998,-97.2816 1177.4963,-54.5439 1216,-34 1241.2352,-20.5356 1271.9755,-14.621 1299.3354,-12.3125"/>
<polygon fill="#9a32cd" stroke="#9a32cd" points="1128.6645,-120.5287 1126.5451,-130.9094 1134.6754,-124.1161 1128.6645,-120.5287"/>
<text text-anchor="middle" x="1246" y="-37" font-family="FreeSans" font-size="10.00" fill="#000000"> trackPoint_</text>
</g>
<!-- Node13 -->
<g id="node13" class="node">
<title>Node13</title>
<polygon fill="none" stroke="#bfbfbf" points="1622,-108 1622,-140 1745,-140 1745,-108 1622,-108"/>
<text text-anchor="start" x="1630" y="-127" font-family="FreeSans" font-size="10.00" fill="#000000">std::map&lt; unsigned</text>
<text text-anchor="middle" x="1683.5" y="-115" font-family="FreeSans" font-size="10.00" fill="#000000"> int, AbsFitterInfo * &gt;</text>
</g>
<!-- Node13&#45;&gt;Node12 -->
<g id="edge16" class="edge">
<title>Node13&#45;&gt;Node12</title>
<path fill="none" stroke="#9a32cd" stroke-dasharray="5,2" d="M1611.5052,-121.8929C1533.2941,-120.0957 1404.6931,-118.5744 1294,-124 1253.3067,-125.9946 1207.4223,-130.6131 1173.1382,-134.5334"/>
<polygon fill="#9a32cd" stroke="#9a32cd" points="1611.6485,-125.3972 1621.7289,-122.136 1611.815,-118.3992 1611.6485,-125.3972"/>
<text text-anchor="middle" x="1370" y="-127" font-family="FreeSans" font-size="10.00" fill="#000000"> vFitterInfos_</text>
</g>
<!-- Node14&#45;&gt;Node13 -->
<g id="edge17" class="edge">
<title>Node14&#45;&gt;Node13</title>
<path fill="none" stroke="#9a32cd" stroke-dasharray="5,2" d="M1438.1972,-145.3026C1446.8706,-144.1012 1455.6356,-142.9648 1464,-142 1517.1772,-135.8664 1577.8382,-131.0581 1621.8938,-127.96"/>
<polygon fill="#9a32cd" stroke="#9a32cd" points="1437.4965,-141.8668 1428.087,-146.7363 1438.4793,-148.7975 1437.4965,-141.8668"/>
<text text-anchor="middle" x="1517.5" y="-145" font-family="FreeSans" font-size="10.00" fill="#000000"> elements</text>
</g>
<!-- Node14&#45;&gt;Node20 -->
<g id="edge31" class="edge">
<title>Node14&#45;&gt;Node20</title>
<path fill="none" stroke="#9a32cd" stroke-dasharray="5,2" d="M1438.4943,-161.0531C1477.4907,-164.4549 1527.1616,-169.6727 1571,-177 1587.114,-179.6933 1604.3701,-183.3069 1620.4079,-186.9819"/>
<polygon fill="#9a32cd" stroke="#9a32cd" points="1438.5687,-157.5468 1428.3075,-160.1844 1437.9739,-164.5215 1438.5687,-157.5468"/>
<text text-anchor="middle" x="1517.5" y="-180" font-family="FreeSans" font-size="10.00" fill="#000000"> elements</text>
</g>
<!-- Node15 -->
<g id="node15" class="node">
<title>Node15</title>
<polygon fill="none" stroke="#bfbfbf" points="1589,-32 1589,-52 1778,-52 1778,-32 1589,-32"/>
<text text-anchor="middle" x="1683.5" y="-39" font-family="FreeSans" font-size="10.00" fill="#000000">std::vector&lt; AbsMeasurement * &gt;</text>
</g>
<!-- Node15&#45;&gt;Node12 -->
<g id="edge21" class="edge">
<title>Node15&#45;&gt;Node12</title>
<path fill="none" stroke="#9a32cd" stroke-dasharray="5,2" d="M1605.4677,-53.5694C1526.7048,-65.4942 1401.6569,-85.1025 1294,-105 1250.5592,-113.0289 1201.2511,-123.4159 1166.4212,-130.9677"/>
<polygon fill="#9a32cd" stroke="#9a32cd" points="1606.4258,-56.9645 1615.791,-52.0104 1605.3804,-50.043 1606.4258,-56.9645"/>
<text text-anchor="middle" x="1370" y="-108" font-family="FreeSans" font-size="10.00" fill="#000000"> rawMeasurements_</text>
</g>
<!-- Node16&#45;&gt;Node15 -->
<g id="edge22" class="edge">
<title>Node16&#45;&gt;Node15</title>
<path fill="none" stroke="#9a32cd" stroke-dasharray="5,2" d="M1450.97,-20.49C1493.1351,-24.3905 1544.9338,-29.1821 1588.9318,-33.2521"/>
<polygon fill="#9a32cd" stroke="#9a32cd" points="1451.0263,-16.9804 1440.7464,-19.5443 1450.3815,-23.9506 1451.0263,-16.9804"/>
<text text-anchor="middle" x="1517.5" y="-34" font-family="FreeSans" font-size="10.00" fill="#000000"> elements</text>
</g>
<!-- Node17 -->
<g id="node17" class="node">
<title>Node17</title>
<polygon fill="none" stroke="#bfbfbf" points="601,-142 601,-162 785,-162 785,-142 601,-142"/>
<text text-anchor="middle" x="693" y="-149" font-family="FreeSans" font-size="10.00" fill="#000000">std::unique_ptr&lt; ThinScatterer &gt;</text>
</g>
<!-- Node17&#45;&gt;Node12 -->
<g id="edge25" class="edge">
<title>Node17&#45;&gt;Node12</title>
<path fill="none" stroke="#9a32cd" stroke-dasharray="5,2" d="M795.1434,-149.3748C881.244,-147.162 1000.9477,-144.0855 1068.7252,-142.3435"/>
<polygon fill="#9a32cd" stroke="#9a32cd" points="794.9863,-145.8776 785.0796,-149.6335 795.1662,-152.8753 794.9863,-145.8776"/>
<text text-anchor="middle" x="888" y="-153" font-family="FreeSans" font-size="10.00" fill="#000000"> thinScatterer_</text>
</g>
<!-- Node18&#45;&gt;Node17 -->
<g id="edge26" class="edge">
<title>Node18&#45;&gt;Node17</title>
<path fill="none" stroke="#9a32cd" stroke-dasharray="5,2" d="M341.2484,-150.3349C412.4535,-150.672 522.6205,-151.1935 600.6682,-151.5629"/>
<polygon fill="#9a32cd" stroke="#9a32cd" points="341.0504,-146.834 331.0339,-150.2866 341.0172,-153.8339 341.0504,-146.834"/>
<text text-anchor="middle" x="374.5" y="-154" font-family="FreeSans" font-size="10.00" fill="#000000"> ptr</text>
</g>
<!-- Node19 -->
<g id="node19" class="node">
<title>Node19</title>
<g id="a_node19"><a xlink:href="../../da/d5d/structgenfit_1_1Material.html" target="_top" xlink:title="genfit::Material">
<polygon fill="none" stroke="#000000" points="7.5,-70 7.5,-90 100.5,-90 100.5,-70 7.5,-70"/>
<text text-anchor="middle" x="54" y="-77" font-family="FreeSans" font-size="10.00" fill="#000000">genfit::Material</text>
</a>
</g>
</g>
<!-- Node19&#45;&gt;Node18 -->
<g id="edge28" class="edge">
<title>Node19&#45;&gt;Node18</title>
<path fill="none" stroke="#9a32cd" stroke-dasharray="5,2" d="M94.6711,-93.15C136.7268,-106.7477 201.4632,-127.6786 239.5384,-139.9893"/>
<polygon fill="#9a32cd" stroke="#9a32cd" points="95.611,-89.7756 85.0192,-90.0293 93.4574,-96.4361 95.611,-89.7756"/>
<text text-anchor="middle" x="159" y="-127" font-family="FreeSans" font-size="10.00" fill="#000000"> material_</text>
</g>
<!-- Node20&#45;&gt;Node12 -->
<g id="edge29" class="edge">
<title>Node20&#45;&gt;Node12</title>
<path fill="none" stroke="#9a32cd" stroke-dasharray="5,2" d="M1598.4775,-200.4727C1519.3367,-197.3244 1398.2533,-190.4758 1294,-176 1248.9272,-169.7416 1197.933,-158.9667 1163.0538,-151.0211"/>
<polygon fill="#9a32cd" stroke="#9a32cd" points="1598.7506,-203.9857 1608.8784,-200.8747 1599.021,-196.991 1598.7506,-203.9857"/>
<text text-anchor="middle" x="1370" y="-194" font-family="FreeSans" font-size="10.00" fill="#000000"> fitterInfos_</text>
</g>
<!-- Node21 -->
<g id="node21" class="node">
<title>Node21</title>
<g id="a_node21"><a xlink:href="../../d2/d74/classgenfit_1_1MeasuredStateOnPlane.html" target="_top" xlink:title="StateOnPlane with additional covariance matrix.">
<polygon fill="none" stroke="#000000" points="803,-454 803,-474 973,-474 973,-454 803,-454"/>
<text text-anchor="middle" x="888" y="-461" font-family="FreeSans" font-size="10.00" fill="#000000">genfit::MeasuredStateOnPlane</text>
</a>
</g>
</g>
<!-- Node21&#45;&gt;Node3 -->
<g id="edge32" class="edge">
<title>Node21&#45;&gt;Node3</title>
<path fill="none" stroke="#9a32cd" stroke-dasharray="5,2" d="M983.169,-458.6901C1008.652,-457.2683 1035.5448,-455.7679 1058.7433,-454.4736"/>
<polygon fill="#9a32cd" stroke="#9a32cd" points="982.8969,-455.1998 973.1074,-459.2515 983.2869,-462.1889 982.8969,-455.1998"/>
<text text-anchor="middle" x="1008.5" y="-460" font-family="FreeSans" font-size="10.00" fill="#000000"> state_</text>
</g>
<!-- Node22&#45;&gt;Node21 -->
<g id="edge33" class="edge">
<title>Node22&#45;&gt;Node21</title>
<path fill="none" stroke="#191970" d="M571.2275,-463.1825C636.4123,-463.3507 733.2809,-463.6007 802.7217,-463.7799"/>
<polygon fill="#191970" stroke="#191970" points="571.0559,-459.6822 561.0469,-463.1563 571.0378,-466.6821 571.0559,-459.6822"/>
</g>
</g>
</svg>
