<?xml version="1.0" encoding="UTF-8" standalone="no"?>
<!DOCTYPE svg PUBLIC "-//W3C//DTD SVG 1.1//EN"
 "http://www.w3.org/Graphics/SVG/1.1/DTD/svg11.dtd">
<!-- Generated by graphviz version 2.40.1 (20161225.0304)
 -->
<!-- Title: sPHENIXTracker::findTracksBySegments Pages: 1 -->
<svg width="885pt" height="455pt"
 viewBox="0.00 0.00 885.00 455.00" xmlns="http://www.w3.org/2000/svg" xmlns:xlink="http://www.w3.org/1999/xlink">
<g id="graph0" class="graph" transform="scale(1 1) rotate(0) translate(4 451)">
<title>sPHENIXTracker::findTracksBySegments</title>
<!-- Node1 -->
<g id="node1" class="node">
<title>Node1</title>
<polygon fill="#bfbfbf" stroke="#000000" points="0,-91.5 0,-123.5 152,-123.5 152,-91.5 0,-91.5"/>
<text text-anchor="start" x="8" y="-110.5" font-family="FreeSans" font-size="10.00" fill="#000000">sPHENIXTracker::findTracks</text>
<text text-anchor="middle" x="76" y="-98.5" font-family="FreeSans" font-size="10.00" fill="#000000">BySegments</text>
</g>
<!-- Node2 -->
<g id="node2" class="node">
<title>Node2</title>
<g id="a_node2"><a xlink:href="../../d8/d85/classHelixKalman.html#a7f78a3ec79f2fe6a3a1feff6d55bb836" target="_top" xlink:title="HelixKalman::addHit">
<polygon fill="none" stroke="#000000" points="204,-207.5 204,-227.5 325,-227.5 325,-207.5 204,-207.5"/>
<text text-anchor="middle" x="264.5" y="-214.5" font-family="FreeSans" font-size="10.00" fill="#000000">HelixKalman::addHit</text>
</a>
</g>
</g>
<!-- Node1&#45;&gt;Node2 -->
<g id="edge1" class="edge">
<title>Node1&#45;&gt;Node2</title>
<path fill="none" stroke="#191970" d="M91.106,-123.5371C111.2706,-143.9902 148.994,-179.0345 188,-198.5 192.2895,-200.6406 196.8375,-202.5512 201.493,-204.2545"/>
<polygon fill="#191970" stroke="#191970" points="200.5579,-207.632 211.1515,-207.4673 202.7674,-200.9898 200.5579,-207.632"/>
</g>
<!-- Node16 -->
<g id="node16" class="node">
<title>Node16</title>
<g id="a_node16"><a xlink:href="../../da/d22/classsPHENIXTracker.html#a505b3398c2251950fe8a193109afb1f9" target="_top" xlink:title="sPHENIXTracker::calculate\lKappaTangents">
<polygon fill="none" stroke="#000000" points="191,-156.5 191,-188.5 338,-188.5 338,-156.5 191,-156.5"/>
<text text-anchor="start" x="199" y="-175.5" font-family="FreeSans" font-size="10.00" fill="#000000">sPHENIXTracker::calculate</text>
<text text-anchor="middle" x="264.5" y="-163.5" font-family="FreeSans" font-size="10.00" fill="#000000">KappaTangents</text>
</a>
</g>
</g>
<!-- Node1&#45;&gt;Node16 -->
<g id="edge16" class="edge">
<title>Node1&#45;&gt;Node16</title>
<path fill="none" stroke="#191970" d="M120.0547,-123.5455C140.6493,-130.9663 165.5325,-139.8184 188,-147.5 193.5053,-149.3823 199.2437,-151.3137 204.9937,-153.2284"/>
<polygon fill="#191970" stroke="#191970" points="204.0489,-156.6024 214.6422,-156.4234 206.2494,-149.9572 204.0489,-156.6024"/>
</g>
<!-- Node17 -->
<g id="node17" class="node">
<title>Node17</title>
<g id="a_node17"><a xlink:href="../../da/d55/TPCRateLayered_8m.html#ac40e4ec8f2a74a2878f06670249eebb8" target="_top" xlink:title="double">
<polygon fill="none" stroke="#000000" points="239,-117.5 239,-137.5 290,-137.5 290,-117.5 239,-117.5"/>
<text text-anchor="middle" x="264.5" y="-124.5" font-family="FreeSans" font-size="10.00" fill="#000000">double</text>
</a>
</g>
</g>
<!-- Node1&#45;&gt;Node17 -->
<g id="edge17" class="edge">
<title>Node1&#45;&gt;Node17</title>
<path fill="none" stroke="#191970" d="M152.1268,-115.5771C178.6455,-118.3908 207.1534,-121.4155 228.82,-123.7143"/>
<polygon fill="#191970" stroke="#191970" points="228.5546,-127.2057 238.8681,-124.7804 229.2932,-120.2448 228.5546,-127.2057"/>
</g>
<!-- Node18 -->
<g id="node18" class="node">
<title>Node18</title>
<g id="a_node18"><a xlink:href="../../da/d22/classsPHENIXTracker.html#a6cb9a263a8b3255e02c6a1038fb11dce" target="_top" xlink:title="sPHENIXTracker::fitTrack">
<polygon fill="none" stroke="#000000" points="195,-78.5 195,-98.5 334,-98.5 334,-78.5 195,-78.5"/>
<text text-anchor="middle" x="264.5" y="-85.5" font-family="FreeSans" font-size="10.00" fill="#000000">sPHENIXTracker::fitTrack</text>
</a>
</g>
</g>
<!-- Node1&#45;&gt;Node18 -->
<g id="edge18" class="edge">
<title>Node1&#45;&gt;Node18</title>
<path fill="none" stroke="#191970" d="M152.1268,-99.8267C162.8125,-98.7497 173.8212,-97.64 184.5751,-96.5561"/>
<polygon fill="#191970" stroke="#191970" points="185.1901,-100.0119 194.7887,-95.5266 184.488,-93.0472 185.1901,-100.0119"/>
</g>
<!-- Node19 -->
<g id="node19" class="node">
<title>Node19</title>
<g id="a_node19"><a xlink:href="../../da/d22/classsPHENIXTracker.html#a10262009ce0cb3e61ce3bd3e552efe42" target="_top" xlink:title="sPHENIXTracker::kappaToPt">
<polygon fill="none" stroke="#000000" points="188,-39.5 188,-59.5 341,-59.5 341,-39.5 188,-39.5"/>
<text text-anchor="middle" x="264.5" y="-46.5" font-family="FreeSans" font-size="10.00" fill="#000000">sPHENIXTracker::kappaToPt</text>
</a>
</g>
</g>
<!-- Node1&#45;&gt;Node19 -->
<g id="edge19" class="edge">
<title>Node1&#45;&gt;Node19</title>
<path fill="none" stroke="#191970" d="M120.995,-91.4154C141.3493,-84.3511 165.7758,-76.1661 188,-69.5 196.4071,-66.9783 205.3866,-64.4687 214.1283,-62.1224"/>
<polygon fill="#191970" stroke="#191970" points="215.0806,-65.491 223.8536,-59.5508 213.2911,-58.7236 215.0806,-65.491"/>
</g>
<!-- Node20 -->
<g id="node20" class="node">
<title>Node20</title>
<g id="a_node20"><a xlink:href="../../d4/da9/namespaceboost.html#a630945877437d477612e4419562161cc" target="_top" xlink:title="boost::swap">
<polygon fill="none" stroke="#000000" points="226,-.5 226,-20.5 303,-20.5 303,-.5 226,-.5"/>
<text text-anchor="middle" x="264.5" y="-7.5" font-family="FreeSans" font-size="10.00" fill="#000000">boost::swap</text>
</a>
</g>
</g>
<!-- Node1&#45;&gt;Node20 -->
<g id="edge20" class="edge">
<title>Node1&#45;&gt;Node20</title>
<path fill="none" stroke="#191970" d="M94.9736,-91.3676C116.3015,-74.0011 152.594,-46.6951 188,-30.5 196.802,-26.4739 206.5585,-23.1484 216.076,-20.443"/>
<polygon fill="#191970" stroke="#191970" points="217.0915,-23.7947 225.8578,-17.8448 215.2944,-17.0293 217.0915,-23.7947"/>
</g>
<!-- Node3 -->
<g id="node3" class="node">
<title>Node3</title>
<g id="a_node3"><a xlink:href="../../d8/d85/classHelixKalman.html#a4270073df4ee9ffc5f0fe83a8329211e" target="_top" xlink:title="HelixKalman::calculateMeasurements">
<polygon fill="none" stroke="#000000" points="377,-324.5 377,-344.5 584,-344.5 584,-324.5 377,-324.5"/>
<text text-anchor="middle" x="480.5" y="-331.5" font-family="FreeSans" font-size="10.00" fill="#000000">HelixKalman::calculateMeasurements</text>
</a>
</g>
</g>
<!-- Node2&#45;&gt;Node3 -->
<g id="edge2" class="edge">
<title>Node2&#45;&gt;Node3</title>
<path fill="none" stroke="#191970" d="M272.868,-227.8058C290.0414,-248.1885 331.4984,-293.5714 377,-315.5 381.6132,-317.7233 386.4571,-319.6875 391.4259,-321.4226"/>
<polygon fill="#191970" stroke="#191970" points="390.5171,-324.8061 401.1071,-324.4852 392.6284,-318.132 390.5171,-324.8061"/>
</g>
<!-- Node4 -->
<g id="node4" class="node">
<title>Node4</title>
<g id="a_node4"><a xlink:href="../../d8/d85/classHelixKalman.html#a55adf1f408113d0e3994b07e7d629c6b" target="_top" xlink:title="HelixKalman::calculateMSCovariance">
<polygon fill="none" stroke="#000000" points="378.5,-285.5 378.5,-305.5 582.5,-305.5 582.5,-285.5 378.5,-285.5"/>
<text text-anchor="middle" x="480.5" y="-292.5" font-family="FreeSans" font-size="10.00" fill="#000000">HelixKalman::calculateMSCovariance</text>
</a>
</g>
</g>
<!-- Node2&#45;&gt;Node4 -->
<g id="edge3" class="edge">
<title>Node2&#45;&gt;Node4</title>
<path fill="none" stroke="#191970" d="M282.7237,-227.5033C304.5802,-239.1636 342.5848,-258.3788 377,-270.5 390.7415,-275.3398 405.8316,-279.5691 420.1376,-283.1051"/>
<polygon fill="#191970" stroke="#191970" points="419.35,-286.5154 429.8903,-285.4413 420.9807,-279.708 419.35,-286.5154"/>
</g>
<!-- Node11 -->
<g id="node11" class="node">
<title>Node11</title>
<g id="a_node11"><a xlink:href="../../d9/d03/KFParticleBaseSIMD_8h.html#a4cd33935de91662c0644140e301499e5" target="_top" xlink:title="Returns charge of the particle.">
<polygon fill="none" stroke="#000000" points="697.5,-195.5 697.5,-215.5 726.5,-215.5 726.5,-195.5 697.5,-195.5"/>
<text text-anchor="middle" x="712" y="-202.5" font-family="FreeSans" font-size="10.00" fill="#000000">Q</text>
</a>
</g>
</g>
<!-- Node2&#45;&gt;Node11 -->
<g id="edge13" class="edge">
<title>Node2&#45;&gt;Node11</title>
<path fill="none" stroke="#191970" d="M310.2338,-227.5124C330.5682,-231.4759 354.8679,-235.548 377,-237.5 468.6442,-245.5828 493.188,-252.2368 584,-237.5 600.6477,-234.7984 603.7362,-229.9645 620,-225.5 642.5313,-219.315 668.5851,-213.8014 687.2026,-210.1378"/>
<polygon fill="#191970" stroke="#191970" points="688.0669,-213.5357 697.2221,-208.2035 686.7399,-206.6626 688.0669,-213.5357"/>
</g>
<!-- Node12 -->
<g id="node12" class="node">
<title>Node12</title>
<g id="a_node12"><a xlink:href="../../d8/d85/classHelixKalman.html#a0f3fb5cf1e01e1043cea2936f7a89101" target="_top" xlink:title="HelixKalman::calculateProjections">
<polygon fill="none" stroke="#000000" points="386.5,-207.5 386.5,-227.5 574.5,-227.5 574.5,-207.5 386.5,-207.5"/>
<text text-anchor="middle" x="480.5" y="-214.5" font-family="FreeSans" font-size="10.00" fill="#000000">HelixKalman::calculateProjections</text>
</a>
</g>
</g>
<!-- Node2&#45;&gt;Node12 -->
<g id="edge11" class="edge">
<title>Node2&#45;&gt;Node12</title>
<path fill="none" stroke="#191970" d="M325.2429,-217.5C341.0977,-217.5 358.6452,-217.5 376.0686,-217.5"/>
<polygon fill="#191970" stroke="#191970" points="376.2993,-221.0001 386.2993,-217.5 376.2992,-214.0001 376.2993,-221.0001"/>
</g>
<!-- Node13 -->
<g id="node13" class="node">
<title>Node13</title>
<g id="a_node13"><a xlink:href="../../da/d87/classSimpleHit3D.html#aee4615586ba114d652ae2f53a329af8b" target="_top" xlink:title="SimpleHit3D::get_layer">
<polygon fill="none" stroke="#000000" points="413.5,-168.5 413.5,-188.5 547.5,-188.5 547.5,-168.5 413.5,-168.5"/>
<text text-anchor="middle" x="480.5" y="-175.5" font-family="FreeSans" font-size="10.00" fill="#000000">SimpleHit3D::get_layer</text>
</a>
</g>
</g>
<!-- Node2&#45;&gt;Node13 -->
<g id="edge12" class="edge">
<title>Node2&#45;&gt;Node13</title>
<path fill="none" stroke="#191970" d="M320.1254,-207.4565C349.0996,-202.2251 384.7098,-195.7954 415.0087,-190.3248"/>
<polygon fill="#191970" stroke="#191970" points="415.8442,-193.7306 425.0631,-188.5094 414.6003,-186.842 415.8442,-193.7306"/>
</g>
<!-- Node14 -->
<g id="node14" class="node">
<title>Node14</title>
<g id="a_node14"><a xlink:href="../../d8/d85/classHelixKalman.html#aa781eb12456b35ba08e8cdc4b4001377" target="_top" xlink:title="HelixKalman::subtractProjections">
<polygon fill="none" stroke="#000000" points="388.5,-129.5 388.5,-149.5 572.5,-149.5 572.5,-129.5 388.5,-129.5"/>
<text text-anchor="middle" x="480.5" y="-136.5" font-family="FreeSans" font-size="10.00" fill="#000000">HelixKalman::subtractProjections</text>
</a>
</g>
</g>
<!-- Node2&#45;&gt;Node14 -->
<g id="edge14" class="edge">
<title>Node2&#45;&gt;Node14</title>
<path fill="none" stroke="#191970" d="M321.147,-207.438C328.0837,-205.0604 334.8761,-202.1244 341,-198.5 361.3001,-186.4853 356.3913,-170.9771 377,-159.5 381.4819,-157.004 386.2232,-154.8148 391.1134,-152.8952"/>
<polygon fill="#191970" stroke="#191970" points="392.4042,-156.1514 400.672,-149.5261 390.0771,-149.5494 392.4042,-156.1514"/>
</g>
<!-- Node15 -->
<g id="node15" class="node">
<title>Node15</title>
<g id="a_node15"><a xlink:href="../../d8/d85/classHelixKalman.html#ad161a0f331648bc2dc95aa1f780692c1" target="_top" xlink:title="HelixKalman::updateIntersection">
<polygon fill="none" stroke="#000000" points="389.5,-90.5 389.5,-110.5 571.5,-110.5 571.5,-90.5 389.5,-90.5"/>
<text text-anchor="middle" x="480.5" y="-97.5" font-family="FreeSans" font-size="10.00" fill="#000000">HelixKalman::updateIntersection</text>
</a>
</g>
</g>
<!-- Node2&#45;&gt;Node15 -->
<g id="edge15" class="edge">
<title>Node2&#45;&gt;Node15</title>
<path fill="none" stroke="#191970" d="M325.0676,-208.0525C330.813,-205.5559 336.2541,-202.4242 341,-198.5 370.4246,-174.1696 346.9463,-144.0489 377,-120.5 379.4771,-118.5591 382.0884,-116.7886 384.8046,-115.1745"/>
<polygon fill="#191970" stroke="#191970" points="386.5178,-118.2291 393.8009,-110.5344 383.309,-112.0079 386.5178,-118.2291"/>
</g>
<!-- Node5 -->
<g id="node5" class="node">
<title>Node5</title>
<g id="a_node5"><a xlink:href="../../d8/d85/classHelixKalman.html#a52cca2345c3380fc8343f006390f5c1d" target="_top" xlink:title="HelixKalman::calculate\l_dAdAp">
<polygon fill="none" stroke="#000000" points="646,-414.5 646,-446.5 778,-446.5 778,-414.5 646,-414.5"/>
<text text-anchor="start" x="654" y="-433.5" font-family="FreeSans" font-size="10.00" fill="#000000">HelixKalman::calculate</text>
<text text-anchor="middle" x="712" y="-421.5" font-family="FreeSans" font-size="10.00" fill="#000000">_dAdAp</text>
</a>
</g>
</g>
<!-- Node4&#45;&gt;Node5 -->
<g id="edge4" class="edge">
<title>Node4&#45;&gt;Node5</title>
<path fill="none" stroke="#191970" d="M568.1865,-305.5933C573.8551,-308.2728 579.2033,-311.5364 584,-315.5 617.2102,-342.9424 587.8341,-376.8407 620,-405.5 624.8659,-409.8354 630.4114,-413.4286 636.3124,-416.4054"/>
<polygon fill="#191970" stroke="#191970" points="635.2685,-419.7699 645.8313,-420.5937 638.0878,-413.3627 635.2685,-419.7699"/>
</g>
<!-- Node7 -->
<g id="node7" class="node">
<title>Node7</title>
<g id="a_node7"><a xlink:href="../../d8/d85/classHelixKalman.html#ad45962489041411c135777aed0b44552" target="_top" xlink:title="HelixKalman::calculate\l_dApdp">
<polygon fill="none" stroke="#000000" points="646,-363.5 646,-395.5 778,-395.5 778,-363.5 646,-363.5"/>
<text text-anchor="start" x="654" y="-382.5" font-family="FreeSans" font-size="10.00" fill="#000000">HelixKalman::calculate</text>
<text text-anchor="middle" x="712" y="-370.5" font-family="FreeSans" font-size="10.00" fill="#000000">_dApdp</text>
</a>
</g>
</g>
<!-- Node4&#45;&gt;Node7 -->
<g id="edge6" class="edge">
<title>Node4&#45;&gt;Node7</title>
<path fill="none" stroke="#191970" d="M560.328,-305.5261C568.5916,-308.1343 576.6451,-311.404 584,-315.5 604.6087,-326.9771 599.8327,-342.2638 620,-354.5 625.0765,-357.5801 630.5369,-360.2878 636.174,-362.6672"/>
<polygon fill="#191970" stroke="#191970" points="635.201,-366.043 645.7908,-366.3691 637.7157,-359.5102 635.201,-366.043"/>
</g>
<!-- Node8 -->
<g id="node8" class="node">
<title>Node8</title>
<g id="a_node8"><a xlink:href="../../d8/d85/classHelixKalman.html#aef12e80004e0637454bf1fa4b3534233" target="_top" xlink:title="HelixKalman::calculate_dbdt">
<polygon fill="none" stroke="#000000" points="631.5,-324.5 631.5,-344.5 792.5,-344.5 792.5,-324.5 631.5,-324.5"/>
<text text-anchor="middle" x="712" y="-331.5" font-family="FreeSans" font-size="10.00" fill="#000000">HelixKalman::calculate_dbdt</text>
</a>
</g>
</g>
<!-- Node4&#45;&gt;Node8 -->
<g id="edge7" class="edge">
<title>Node4&#45;&gt;Node8</title>
<path fill="none" stroke="#191970" d="M540.117,-305.5435C571.4405,-310.8204 610.0003,-317.3165 642.6549,-322.8177"/>
<polygon fill="#191970" stroke="#191970" points="642.1425,-326.2806 652.585,-324.4906 643.3054,-319.3779 642.1425,-326.2806"/>
</g>
<!-- Node9 -->
<g id="node9" class="node">
<title>Node9</title>
<g id="a_node9"><a xlink:href="../../d8/d85/classHelixKalman.html#a49443f60ba396d2948ae2bde46dea8a7" target="_top" xlink:title="HelixKalman::calculate_dpdb">
<polygon fill="none" stroke="#000000" points="630,-285.5 630,-305.5 794,-305.5 794,-285.5 630,-285.5"/>
<text text-anchor="middle" x="712" y="-292.5" font-family="FreeSans" font-size="10.00" fill="#000000">HelixKalman::calculate_dpdb</text>
</a>
</g>
</g>
<!-- Node4&#45;&gt;Node9 -->
<g id="edge8" class="edge">
<title>Node4&#45;&gt;Node9</title>
<path fill="none" stroke="#191970" d="M582.7131,-295.5C595.0148,-295.5 607.5233,-295.5 619.6725,-295.5"/>
<polygon fill="#191970" stroke="#191970" points="619.7809,-299.0001 629.7809,-295.5 619.7809,-292.0001 619.7809,-299.0001"/>
</g>
<!-- Node10 -->
<g id="node10" class="node">
<title>Node10</title>
<g id="a_node10"><a xlink:href="../../d8/d85/classHelixKalman.html#af9357af5c3c7c3ab96aa5031d843b505" target="_top" xlink:title="HelixKalman::calculateScattering\lVariance">
<polygon fill="none" stroke="#000000" points="620,-234.5 620,-266.5 804,-266.5 804,-234.5 620,-234.5"/>
<text text-anchor="start" x="628" y="-253.5" font-family="FreeSans" font-size="10.00" fill="#000000">HelixKalman::calculateScattering</text>
<text text-anchor="middle" x="712" y="-241.5" font-family="FreeSans" font-size="10.00" fill="#000000">Variance</text>
</a>
</g>
</g>
<!-- Node4&#45;&gt;Node10 -->
<g id="edge9" class="edge">
<title>Node4&#45;&gt;Node10</title>
<path fill="none" stroke="#191970" d="M532.165,-285.4571C557.9057,-280.4535 589.8207,-274.2497 619.5874,-268.4636"/>
<polygon fill="#191970" stroke="#191970" points="620.4394,-271.8635 629.5878,-266.5196 619.1037,-264.9922 620.4394,-271.8635"/>
</g>
<!-- Node4&#45;&gt;Node11 -->
<g id="edge10" class="edge">
<title>Node4&#45;&gt;Node11</title>
<path fill="none" stroke="#191970" d="M549.8974,-285.4491C561.84,-281.8815 573.7057,-277.0481 584,-270.5 605.611,-256.7536 598.2327,-238.9976 620,-225.5 640.4165,-212.84 667.7139,-208.1244 687.262,-206.4041"/>
<polygon fill="#191970" stroke="#191970" points="687.7573,-209.8787 697.4985,-205.7123 687.2852,-202.8946 687.7573,-209.8787"/>
</g>
<!-- Node6 -->
<g id="node6" class="node">
<title>Node6</title>
<g id="a_node6"><a xlink:href="../../dc/d08/HelixKalman_8cpp.html#ab74daa0c9784c63e060bfb98cc06fbf5" target="_top" xlink:title="sign">
<polygon fill="none" stroke="#000000" points="840,-420.5 840,-440.5 877,-440.5 877,-420.5 840,-420.5"/>
<text text-anchor="middle" x="858.5" y="-427.5" font-family="FreeSans" font-size="10.00" fill="#000000">sign</text>
</a>
</g>
</g>
<!-- Node5&#45;&gt;Node6 -->
<g id="edge5" class="edge">
<title>Node5&#45;&gt;Node6</title>
<path fill="none" stroke="#191970" d="M778.3918,-430.5C796.2492,-430.5 814.655,-430.5 829.314,-430.5"/>
<polygon fill="#191970" stroke="#191970" points="829.7223,-434.0001 839.7223,-430.5 829.7223,-427.0001 829.7223,-434.0001"/>
</g>
<!-- Node21 -->
<g id="node21" class="node">
<title>Node21</title>
<g id="a_node21"><a xlink:href="../../d1/d96/classboost_1_1array.html#a342ef866ed696b18ce803b5c9aba4b2e" target="_top" xlink:title="boost::array::swap">
<polygon fill="none" stroke="#000000" points="425.5,-.5 425.5,-20.5 535.5,-20.5 535.5,-.5 425.5,-.5"/>
<text text-anchor="middle" x="480.5" y="-7.5" font-family="FreeSans" font-size="10.00" fill="#000000">boost::array::swap</text>
</a>
</g>
</g>
<!-- Node20&#45;&gt;Node21 -->
<g id="edge21" class="edge">
<title>Node20&#45;&gt;Node21</title>
<path fill="none" stroke="#191970" d="M303.1165,-5.1841C334.1735,-3.6693 378.5053,-3.3545 415.0799,-4.2397"/>
<polygon fill="#191970" stroke="#191970" points="415.0789,-7.741 425.1726,-4.5212 415.2741,-.7437 415.0789,-7.741"/>
</g>
<!-- Node21&#45;&gt;Node20 -->
<g id="edge22" class="edge">
<title>Node21&#45;&gt;Node20</title>
<path fill="none" stroke="#191970" d="M425.1726,-16.4788C390.6904,-17.5754 346.7216,-17.5025 313.4996,-16.2603"/>
<polygon fill="#191970" stroke="#191970" points="313.257,-12.7468 303.1165,-15.8159 312.9576,-19.7404 313.257,-12.7468"/>
</g>
</g>
</svg>
