<?xml version="1.0" encoding="UTF-8" standalone="no"?>
<!DOCTYPE svg PUBLIC "-//W3C//DTD SVG 1.1//EN"
 "http://www.w3.org/Graphics/SVG/1.1/DTD/svg11.dtd">
<!-- Generated by graphviz version 2.40.1 (20161225.0304)
 -->
<!-- Title: genfit::KalmanFitter::processTrackPoint Pages: 1 -->
<svg width="897pt" height="910pt"
 viewBox="0.00 0.00 897.00 910.00" xmlns="http://www.w3.org/2000/svg" xmlns:xlink="http://www.w3.org/1999/xlink">
<g id="graph0" class="graph" transform="scale(1 1) rotate(0) translate(4 906)">
<title>genfit::KalmanFitter::processTrackPoint</title>
<!-- Node1 -->
<g id="node1" class="node">
<title>Node1</title>
<polygon fill="#bfbfbf" stroke="#000000" points="0,-434.5 0,-466.5 117,-466.5 117,-434.5 0,-434.5"/>
<text text-anchor="start" x="8" y="-453.5" font-family="FreeSans" font-size="10.00" fill="#000000">genfit::KalmanFitter</text>
<text text-anchor="middle" x="58.5" y="-441.5" font-family="FreeSans" font-size="10.00" fill="#000000">::processTrackPoint</text>
</g>
<!-- Node2 -->
<g id="node2" class="node">
<title>Node2</title>
<g id="a_node2"><a xlink:href="../../d2/df7/classgenfit_1_1AbsKalmanFitter.html#a7c90b265e36d518da8c33b4018199ff0" target="_top" xlink:title="returns if the fitter can ignore the weights and handle the MeasurementOnPlanes as if they had weight...">
<polygon fill="none" stroke="#000000" points="174.5,-511.5 174.5,-543.5 310.5,-543.5 310.5,-511.5 174.5,-511.5"/>
<text text-anchor="start" x="182.5" y="-530.5" font-family="FreeSans" font-size="10.00" fill="#000000">genfit::AbsKalmanFitter</text>
<text text-anchor="middle" x="242.5" y="-518.5" font-family="FreeSans" font-size="10.00" fill="#000000">::canIgnoreWeights</text>
</a>
</g>
</g>
<!-- Node1&#45;&gt;Node2 -->
<g id="edge1" class="edge">
<title>Node1&#45;&gt;Node2</title>
<path fill="none" stroke="#191970" d="M83.7783,-466.5093C102.3711,-477.7565 128.5561,-492.5174 153,-502.5 157.8237,-504.4699 162.8548,-506.3407 167.9642,-508.1061"/>
<polygon fill="#191970" stroke="#191970" points="167.2593,-511.559 177.8524,-511.3692 169.453,-504.9116 167.2593,-511.559"/>
</g>
<!-- Node4 -->
<g id="node4" class="node">
<title>Node4</title>
<g id="a_node4"><a xlink:href="../../d1/d25/classgenfit_1_1AbsTrackRep.html#a2f8c69950056c0c679d66bfb2eae2431" target="_top" xlink:title="Extrapolates the state to plane, and returns the extrapolation length and, via reference, the extrapolated state.">
<polygon fill="none" stroke="#000000" points="183,-754.5 183,-786.5 302,-786.5 302,-754.5 183,-754.5"/>
<text text-anchor="start" x="191" y="-773.5" font-family="FreeSans" font-size="10.00" fill="#000000">genfit::AbsTrackRep</text>
<text text-anchor="middle" x="242.5" y="-761.5" font-family="FreeSans" font-size="10.00" fill="#000000">::extrapolateToPlane</text>
</a>
</g>
</g>
<!-- Node1&#45;&gt;Node4 -->
<g id="edge3" class="edge">
<title>Node1&#45;&gt;Node4</title>
<path fill="none" stroke="#191970" d="M61.5603,-466.5181C72.4724,-522.05 111.0683,-705.1169 153,-745.5 158.8011,-751.0868 165.7431,-755.4454 173.1606,-758.8423"/>
<polygon fill="#191970" stroke="#191970" points="172.1742,-762.2163 182.7602,-762.6508 174.7557,-755.7097 172.1742,-762.2163"/>
</g>
<!-- Node5 -->
<g id="node5" class="node">
<title>Node5</title>
<g id="a_node5"><a xlink:href="../../de/dd5/classgenfit_1_1StateOnPlane.html#a2801bf4fa1196147472cc1807281e23d" target="_top" xlink:title="genfit::StateOnPlane\l::getAuxInfo">
<polygon fill="none" stroke="#000000" points="182,-703.5 182,-735.5 303,-735.5 303,-703.5 182,-703.5"/>
<text text-anchor="start" x="190" y="-722.5" font-family="FreeSans" font-size="10.00" fill="#000000">genfit::StateOnPlane</text>
<text text-anchor="middle" x="242.5" y="-710.5" font-family="FreeSans" font-size="10.00" fill="#000000">::getAuxInfo</text>
</a>
</g>
</g>
<!-- Node1&#45;&gt;Node5 -->
<g id="edge4" class="edge">
<title>Node1&#45;&gt;Node5</title>
<path fill="none" stroke="#191970" d="M59.8734,-466.6348C64.4635,-510.1958 83.1903,-631.1611 153,-694.5 158.5857,-699.568 165.1161,-703.6187 172.0598,-706.8546"/>
<polygon fill="#191970" stroke="#191970" points="171.1526,-710.2637 181.7348,-710.7813 173.7851,-703.7775 171.1526,-710.2637"/>
</g>
<!-- Node6 -->
<g id="node6" class="node">
<title>Node6</title>
<g id="a_node6"><a xlink:href="../../d2/d74/classgenfit_1_1MeasuredStateOnPlane.html#adea48432beb9b8fc30bc4bf05b4c5547" target="_top" xlink:title="genfit::MeasuredStateOnPlane\l::getCov">
<polygon fill="none" stroke="#000000" points="157.5,-652.5 157.5,-684.5 327.5,-684.5 327.5,-652.5 157.5,-652.5"/>
<text text-anchor="start" x="165.5" y="-671.5" font-family="FreeSans" font-size="10.00" fill="#000000">genfit::MeasuredStateOnPlane</text>
<text text-anchor="middle" x="242.5" y="-659.5" font-family="FreeSans" font-size="10.00" fill="#000000">::getCov</text>
</a>
</g>
</g>
<!-- Node1&#45;&gt;Node6 -->
<g id="edge5" class="edge">
<title>Node1&#45;&gt;Node6</title>
<path fill="none" stroke="#191970" d="M61.7289,-466.7563C69.9734,-503.9133 95.3531,-595.5398 153,-643.5 154.5348,-644.7769 156.1303,-645.9887 157.7771,-647.1388"/>
<polygon fill="#191970" stroke="#191970" points="156.0341,-650.1753 166.3948,-652.3903 159.6767,-644.1977 156.0341,-650.1753"/>
</g>
<!-- Node7 -->
<g id="node7" class="node">
<title>Node7</title>
<g id="a_node7"><a xlink:href="../../db/d40/classgenfit_1_1TrackPoint.html#ae8b3e743fb436dd6689e0dad4c35ffd9" target="_top" xlink:title="Get fitterInfo for rep. Per default, use cardinal rep.">
<polygon fill="none" stroke="#000000" points="190.5,-840.5 190.5,-872.5 294.5,-872.5 294.5,-840.5 190.5,-840.5"/>
<text text-anchor="start" x="198.5" y="-859.5" font-family="FreeSans" font-size="10.00" fill="#000000">genfit::TrackPoint</text>
<text text-anchor="middle" x="242.5" y="-847.5" font-family="FreeSans" font-size="10.00" fill="#000000">::getFitterInfo</text>
</a>
</g>
</g>
<!-- Node1&#45;&gt;Node7 -->
<g id="edge6" class="edge">
<title>Node1&#45;&gt;Node7</title>
<path fill="none" stroke="#191970" d="M59.0141,-466.6472C61.4369,-519.2184 75.2026,-688.3104 153,-796.5 164.5185,-812.5183 181.7372,-825.522 198.0042,-835.2761"/>
<polygon fill="#191970" stroke="#191970" points="196.4822,-838.4375 206.9013,-840.3593 199.9548,-832.3595 196.4822,-838.4375"/>
</g>
<!-- Node9 -->
<g id="node9" class="node">
<title>Node9</title>
<g id="a_node9"><a xlink:href="../../dd/d4c/classgenfit_1_1MeasurementOnPlane.html#a647892a99b2f5f53930e469db79b66f6" target="_top" xlink:title="genfit::MeasurementOnPlane\l::getHMatrix">
<polygon fill="none" stroke="#000000" points="160.5,-562.5 160.5,-594.5 324.5,-594.5 324.5,-562.5 160.5,-562.5"/>
<text text-anchor="start" x="168.5" y="-581.5" font-family="FreeSans" font-size="10.00" fill="#000000">genfit::MeasurementOnPlane</text>
<text text-anchor="middle" x="242.5" y="-569.5" font-family="FreeSans" font-size="10.00" fill="#000000">::getHMatrix</text>
</a>
</g>
</g>
<!-- Node1&#45;&gt;Node9 -->
<g id="edge8" class="edge">
<title>Node1&#45;&gt;Node9</title>
<path fill="none" stroke="#191970" d="M68.9564,-466.6831C84.526,-489.4751 115.9758,-530.78 153,-553.5 155.6641,-555.1349 158.4377,-556.6655 161.2888,-558.0982"/>
<polygon fill="#191970" stroke="#191970" points="160.0681,-561.3881 170.6193,-562.3489 162.9701,-555.018 160.0681,-561.3881"/>
</g>
<!-- Node10 -->
<g id="node10" class="node">
<title>Node10</title>
<g id="a_node10"><a xlink:href="../../d2/df7/classgenfit_1_1AbsKalmanFitter.html#a09020a7caab319381dabd7487cdf2c45" target="_top" xlink:title="get the measurementsOnPlane taking the multipleMeasurementHandling_ into account">
<polygon fill="none" stroke="#000000" points="174.5,-460.5 174.5,-492.5 310.5,-492.5 310.5,-460.5 174.5,-460.5"/>
<text text-anchor="start" x="182.5" y="-479.5" font-family="FreeSans" font-size="10.00" fill="#000000">genfit::AbsKalmanFitter</text>
<text text-anchor="middle" x="242.5" y="-467.5" font-family="FreeSans" font-size="10.00" fill="#000000">::getMeasurements</text>
</a>
</g>
</g>
<!-- Node1&#45;&gt;Node10 -->
<g id="edge9" class="edge">
<title>Node1&#45;&gt;Node10</title>
<path fill="none" stroke="#191970" d="M117.2246,-458.798C132.1503,-460.9071 148.4263,-463.207 164.1575,-465.4299"/>
<polygon fill="#191970" stroke="#191970" points="164.0054,-468.9431 174.3967,-466.8767 164.9848,-462.0119 164.0054,-468.9431"/>
</g>
<!-- Node16 -->
<g id="node16" class="node">
<title>Node16</title>
<g id="a_node16"><a xlink:href="../../de/dd5/classgenfit_1_1StateOnPlane.html#a61a05215bec767cf6919b083808a37d2" target="_top" xlink:title="genfit::StateOnPlane\l::getState">
<polygon fill="none" stroke="#000000" points="607,-326.5 607,-358.5 728,-358.5 728,-326.5 607,-326.5"/>
<text text-anchor="start" x="615" y="-345.5" font-family="FreeSans" font-size="10.00" fill="#000000">genfit::StateOnPlane</text>
<text text-anchor="middle" x="667.5" y="-333.5" font-family="FreeSans" font-size="10.00" fill="#000000">::getState</text>
</a>
</g>
</g>
<!-- Node1&#45;&gt;Node16 -->
<g id="edge29" class="edge">
<title>Node1&#45;&gt;Node16</title>
<path fill="none" stroke="#191970" d="M67.603,-434.4894C82.1264,-410.7617 113.0256,-367.1657 153,-349.5 230.3877,-315.3004 474.9458,-327.8796 596.9112,-336.7352"/>
<polygon fill="#191970" stroke="#191970" points="596.6699,-340.2268 606.9004,-337.4721 597.185,-333.2458 596.6699,-340.2268"/>
</g>
<!-- Node27 -->
<g id="node27" class="node">
<title>Node27</title>
<g id="a_node27"><a xlink:href="../../db/d40/classgenfit_1_1TrackPoint.html#a4320e8b0417af107a52bb505502fe145" target="_top" xlink:title="genfit::TrackPoint\l::getRawMeasurements">
<polygon fill="none" stroke="#000000" points="175,-409.5 175,-441.5 310,-441.5 310,-409.5 175,-409.5"/>
<text text-anchor="start" x="183" y="-428.5" font-family="FreeSans" font-size="10.00" fill="#000000">genfit::TrackPoint</text>
<text text-anchor="middle" x="242.5" y="-416.5" font-family="FreeSans" font-size="10.00" fill="#000000">::getRawMeasurements</text>
</a>
</g>
</g>
<!-- Node1&#45;&gt;Node27 -->
<g id="edge28" class="edge">
<title>Node1&#45;&gt;Node27</title>
<path fill="none" stroke="#191970" d="M117.2246,-442.5211C132.2365,-440.4814 148.6145,-438.2562 164.4302,-436.1073"/>
<polygon fill="#191970" stroke="#191970" points="165.2845,-439.5235 174.7222,-434.7089 164.342,-432.5872 165.2845,-439.5235"/>
</g>
<!-- Node28 -->
<g id="node28" class="node">
<title>Node28</title>
<g id="a_node28"><a xlink:href="../../dd/d4c/classgenfit_1_1MeasurementOnPlane.html#a0be1bb0d92ae38bc3a373237430b65f5" target="_top" xlink:title="genfit::MeasurementOnPlane\l::getWeight">
<polygon fill="none" stroke="#000000" points="160.5,-358.5 160.5,-390.5 324.5,-390.5 324.5,-358.5 160.5,-358.5"/>
<text text-anchor="start" x="168.5" y="-377.5" font-family="FreeSans" font-size="10.00" fill="#000000">genfit::MeasurementOnPlane</text>
<text text-anchor="middle" x="242.5" y="-365.5" font-family="FreeSans" font-size="10.00" fill="#000000">::getWeight</text>
</a>
</g>
</g>
<!-- Node1&#45;&gt;Node28 -->
<g id="edge30" class="edge">
<title>Node1&#45;&gt;Node28</title>
<path fill="none" stroke="#191970" d="M85.4956,-434.3183C104.0229,-423.6913 129.4297,-410.0427 153,-400.5 158.807,-398.149 164.9048,-395.9143 171.0726,-393.8147"/>
<polygon fill="#191970" stroke="#191970" points="172.3784,-397.07 180.7906,-390.629 170.1979,-390.4182 172.3784,-397.07"/>
</g>
<!-- Node29 -->
<g id="node29" class="node">
<title>Node29</title>
<g id="a_node29"><a xlink:href="../../db/d40/classgenfit_1_1TrackPoint.html#a07c95b54534e11149e4081baed75001e" target="_top" xlink:title="genfit::TrackPoint\l::hasFitterInfo">
<polygon fill="none" stroke="#000000" points="410,-217.5 410,-249.5 514,-249.5 514,-217.5 410,-217.5"/>
<text text-anchor="start" x="418" y="-236.5" font-family="FreeSans" font-size="10.00" fill="#000000">genfit::TrackPoint</text>
<text text-anchor="middle" x="462" y="-224.5" font-family="FreeSans" font-size="10.00" fill="#000000">::hasFitterInfo</text>
</a>
</g>
</g>
<!-- Node1&#45;&gt;Node29 -->
<g id="edge31" class="edge">
<title>Node1&#45;&gt;Node29</title>
<path fill="none" stroke="#191970" d="M61.0422,-434.4846C67.9853,-396.6297 91.0683,-301.656 153,-259.5 191.8115,-233.0816 321.1751,-230.5929 399.6838,-231.6897"/>
<polygon fill="#191970" stroke="#191970" points="399.8822,-235.1933 409.9381,-231.8572 399.9967,-228.1942 399.8822,-235.1933"/>
</g>
<!-- Node30 -->
<g id="node30" class="node">
<title>Node30</title>
<g id="a_node30"><a xlink:href="../../db/d40/classgenfit_1_1TrackPoint.html#ada7b4d8c988a1798e455fb70929f88b7" target="_top" xlink:title="genfit::TrackPoint\l::hasRawMeasurements">
<polygon fill="none" stroke="#000000" points="174,-268.5 174,-300.5 311,-300.5 311,-268.5 174,-268.5"/>
<text text-anchor="start" x="182" y="-287.5" font-family="FreeSans" font-size="10.00" fill="#000000">genfit::TrackPoint</text>
<text text-anchor="middle" x="242.5" y="-275.5" font-family="FreeSans" font-size="10.00" fill="#000000">::hasRawMeasurements</text>
</a>
</g>
</g>
<!-- Node1&#45;&gt;Node30 -->
<g id="edge32" class="edge">
<title>Node1&#45;&gt;Node30</title>
<path fill="none" stroke="#191970" d="M65.6635,-434.2946C78.9049,-406.1383 109.8488,-348.0832 153,-315.5 158.3784,-311.4388 164.3285,-307.8835 170.5296,-304.7761"/>
<polygon fill="#191970" stroke="#191970" points="172.1311,-307.8921 179.757,-300.5371 169.2089,-301.5311 172.1311,-307.8921"/>
</g>
<!-- Node31 -->
<g id="node31" class="node">
<title>Node31</title>
<g id="a_node31"><a xlink:href="../../db/d45/namespacegenfit_1_1tools.html#ad70b08610012fcd630091c66be5cd0c4" target="_top" xlink:title="Invert a matrix, throwing an Exception when inversion fails. Optional calculation of determinant...">
<polygon fill="none" stroke="#000000" points="170,-613.5 170,-633.5 315,-633.5 315,-613.5 170,-613.5"/>
<text text-anchor="middle" x="242.5" y="-620.5" font-family="FreeSans" font-size="10.00" fill="#000000">genfit::tools::invertMatrix</text>
</a>
</g>
</g>
<!-- Node1&#45;&gt;Node31 -->
<g id="edge33" class="edge">
<title>Node1&#45;&gt;Node31</title>
<path fill="none" stroke="#191970" d="M63.5283,-466.5548C74.3567,-498.3329 103.0319,-569.2183 153,-604.5 155.433,-606.2179 157.9897,-607.7861 160.6389,-609.2172"/>
<polygon fill="#191970" stroke="#191970" points="159.4164,-612.5092 169.9576,-613.5738 162.381,-606.168 159.4164,-612.5092"/>
</g>
<!-- Node32 -->
<g id="node32" class="node">
<title>Node32</title>
<g id="a_node32"><a xlink:href="../../db/d45/namespacegenfit_1_1tools.html#adc2bca594b70cc0ade79777b79e4f8ed" target="_top" xlink:title="Calculate the Kalman measurement update with no transport. x, S : state prediction, covariance square root res, R, H : residual, measurement covariance square root, H matrix of the measurement.">
<polygon fill="none" stroke="#000000" points="153,-82.5 153,-102.5 332,-102.5 332,-82.5 153,-82.5"/>
<text text-anchor="middle" x="242.5" y="-89.5" font-family="FreeSans" font-size="10.00" fill="#000000">genfit::tools::kalmanUpdateSqrt</text>
</a>
</g>
</g>
<!-- Node1&#45;&gt;Node32 -->
<g id="edge35" class="edge">
<title>Node1&#45;&gt;Node32</title>
<path fill="none" stroke="#191970" d="M61.3292,-434.4932C71.9005,-376.2524 110.6523,-176.5786 153,-129.5 162.3196,-119.1392 174.9861,-111.6089 187.8553,-106.1623"/>
<polygon fill="#191970" stroke="#191970" points="189.145,-109.4162 197.217,-102.5539 186.6274,-102.8846 189.145,-109.4162"/>
</g>
<!-- Node34 -->
<g id="node34" class="node">
<title>Node34</title>
<g id="a_node34"><a xlink:href="../../d9/d03/KFParticleBaseSIMD_8h.html#a9fef1880f3bc3812ef130b5b1163ce17" target="_top" xlink:title="Returns dS=l/p, l &#45; decay length, fP[7], defined if production vertex is set.">
<polygon fill="none" stroke="#000000" points="447.5,-127.5 447.5,-147.5 476.5,-147.5 476.5,-127.5 447.5,-127.5"/>
<text text-anchor="middle" x="462" y="-134.5" font-family="FreeSans" font-size="10.00" fill="#000000">S</text>
</a>
</g>
</g>
<!-- Node1&#45;&gt;Node34 -->
<g id="edge44" class="edge">
<title>Node1&#45;&gt;Node34</title>
<path fill="none" stroke="#191970" d="M61.5825,-434.1656C72.278,-379.3142 109.5203,-203.211 153,-168.5 237.9074,-100.7161 380.6059,-120.4374 437.5037,-131.9031"/>
<polygon fill="#191970" stroke="#191970" points="436.8898,-135.3506 447.3971,-133.9915 438.3356,-128.5015 436.8898,-135.3506"/>
</g>
<!-- Node39 -->
<g id="node39" class="node">
<title>Node39</title>
<g id="a_node39"><a xlink:href="../../db/d40/classgenfit_1_1TrackPoint.html#aa480a46a18b44a5a8ac39a5500a015a6" target="_top" xlink:title="Takes Ownership.">
<polygon fill="none" stroke="#000000" points="190.5,-178.5 190.5,-210.5 294.5,-210.5 294.5,-178.5 190.5,-178.5"/>
<text text-anchor="start" x="198.5" y="-197.5" font-family="FreeSans" font-size="10.00" fill="#000000">genfit::TrackPoint</text>
<text text-anchor="middle" x="242.5" y="-185.5" font-family="FreeSans" font-size="10.00" fill="#000000">::setFitterInfo</text>
</a>
</g>
</g>
<!-- Node1&#45;&gt;Node39 -->
<g id="edge45" class="edge">
<title>Node1&#45;&gt;Node39</title>
<path fill="none" stroke="#191970" d="M60.714,-434.3424C67.159,-393.4537 89.6455,-284.9128 153,-225.5 160.8978,-218.0936 170.6536,-212.4463 180.7892,-208.1433"/>
<polygon fill="#191970" stroke="#191970" points="182.0726,-211.3997 190.1618,-204.5575 179.5713,-204.8619 182.0726,-211.3997"/>
</g>
<!-- Node3 -->
<g id="node3" class="node">
<title>Node3</title>
<g id="a_node3"><a xlink:href="../../d8/db3/classgenfit_1_1Exception.html#a13619975a1e1be5c1bd504b254e01f7a" target="_top" xlink:title="Set fatal flag.">
<polygon fill="none" stroke="#000000" points="613.5,-779.5 613.5,-811.5 721.5,-811.5 721.5,-779.5 613.5,-779.5"/>
<text text-anchor="start" x="621.5" y="-798.5" font-family="FreeSans" font-size="10.00" fill="#000000">genfit::Exception::</text>
<text text-anchor="middle" x="667.5" y="-786.5" font-family="FreeSans" font-size="10.00" fill="#000000">setFatal</text>
</a>
</g>
</g>
<!-- Node2&#45;&gt;Node3 -->
<g id="edge2" class="edge">
<title>Node2&#45;&gt;Node3</title>
<path fill="none" stroke="#191970" d="M310.5365,-538.0354C318.6604,-541.7882 326.1359,-546.806 332,-553.5 402.2047,-633.64 287.7871,-720.3786 368,-790.5 401.7232,-819.9805 525.6779,-812.0494 603.158,-803.7072"/>
<polygon fill="#191970" stroke="#191970" points="603.7465,-807.1635 613.3006,-802.5844 602.9762,-800.206 603.7465,-807.1635"/>
</g>
<!-- Node8 -->
<g id="node8" class="node">
<title>Node8</title>
<g id="a_node8"><a xlink:href="../../d6/d8a/classgenfit_1_1Track.html#a402b35300e81a48c7f0b9eb082b1cf24" target="_top" xlink:title="Get cardinal track representation.">
<polygon fill="none" stroke="#000000" points="380.5,-881.5 380.5,-901.5 543.5,-901.5 543.5,-881.5 380.5,-881.5"/>
<text text-anchor="middle" x="462" y="-888.5" font-family="FreeSans" font-size="10.00" fill="#000000">genfit::Track::getCardinalRep</text>
</a>
</g>
</g>
<!-- Node7&#45;&gt;Node8 -->
<g id="edge7" class="edge">
<title>Node7&#45;&gt;Node8</title>
<path fill="none" stroke="#191970" d="M294.5184,-864.7945C322.774,-869.3 358.1667,-874.9434 389.1284,-879.8804"/>
<polygon fill="#191970" stroke="#191970" points="388.5841,-883.3377 399.0105,-881.4561 389.6864,-876.4251 388.5841,-883.3377"/>
</g>
<!-- Node10&#45;&gt;Node3 -->
<g id="edge27" class="edge">
<title>Node10&#45;&gt;Node3</title>
<path fill="none" stroke="#191970" d="M310.6017,-486.9786C318.7157,-490.74 326.1711,-495.7753 332,-502.5 406.9677,-588.9887 286.5002,-677.1369 368,-757.5 384.458,-773.7284 520.4289,-785.6342 603.402,-791.4694"/>
<polygon fill="#191970" stroke="#191970" points="603.2773,-794.9691 613.495,-792.1678 603.7605,-787.9858 603.2773,-794.9691"/>
</g>
<!-- Node11 -->
<g id="node11" class="node">
<title>Node11</title>
<g id="a_node11"><a xlink:href="../../d3/d03/classgenfit_1_1KalmanFitterInfo.html#a99bcd457bc4639b065b11a44350ea750" target="_top" xlink:title="Get measurements which is closest to state.">
<polygon fill="none" stroke="#000000" points="368,-460.5 368,-492.5 556,-492.5 556,-460.5 368,-460.5"/>
<text text-anchor="start" x="376" y="-479.5" font-family="FreeSans" font-size="10.00" fill="#000000">genfit::KalmanFitterInfo</text>
<text text-anchor="middle" x="462" y="-467.5" font-family="FreeSans" font-size="10.00" fill="#000000">::getClosestMeasurementOnPlane</text>
</a>
</g>
</g>
<!-- Node10&#45;&gt;Node11 -->
<g id="edge10" class="edge">
<title>Node10&#45;&gt;Node11</title>
<path fill="none" stroke="#191970" d="M310.748,-476.5C325.6139,-476.5 341.6712,-476.5 357.5789,-476.5"/>
<polygon fill="#191970" stroke="#191970" points="357.9969,-480.0001 367.9968,-476.5 357.9968,-473.0001 357.9969,-480.0001"/>
</g>
<!-- Node17 -->
<g id="node17" class="node">
<title>Node17</title>
<g id="a_node17"><a xlink:href="../../d3/d03/classgenfit_1_1KalmanFitterInfo.html#ae0db83496b5ef2577c232e27c75f56fe" target="_top" xlink:title="genfit::KalmanFitterInfo\l::getMeasurementsOnPlane">
<polygon fill="none" stroke="#000000" points="384,-715.5 384,-747.5 540,-747.5 540,-715.5 384,-715.5"/>
<text text-anchor="start" x="392" y="-734.5" font-family="FreeSans" font-size="10.00" fill="#000000">genfit::KalmanFitterInfo</text>
<text text-anchor="middle" x="462" y="-722.5" font-family="FreeSans" font-size="10.00" fill="#000000">::getMeasurementsOnPlane</text>
</a>
</g>
</g>
<!-- Node10&#45;&gt;Node17 -->
<g id="edge17" class="edge">
<title>Node10&#45;&gt;Node17</title>
<path fill="none" stroke="#191970" d="M310.8329,-487.3709C318.8082,-491.0807 326.1643,-495.997 332,-502.5 393.4913,-571.022 305.7322,-638.6828 368,-706.5 370.2842,-708.9878 372.7852,-711.2394 375.4552,-713.2766"/>
<polygon fill="#191970" stroke="#191970" points="373.6295,-716.2641 383.9245,-718.7668 377.4372,-710.3903 373.6295,-716.2641"/>
</g>
<!-- Node18 -->
<g id="node18" class="node">
<title>Node18</title>
<g id="a_node18"><a xlink:href="../../db/d40/classgenfit_1_1TrackPoint.html#a6d24efd20e55627954f73c09beec79a2" target="_top" xlink:title="genfit::TrackPoint\l::getNumRawMeasurements">
<polygon fill="none" stroke="#000000" points="382.5,-664.5 382.5,-696.5 541.5,-696.5 541.5,-664.5 382.5,-664.5"/>
<text text-anchor="start" x="390.5" y="-683.5" font-family="FreeSans" font-size="10.00" fill="#000000">genfit::TrackPoint</text>
<text text-anchor="middle" x="462" y="-671.5" font-family="FreeSans" font-size="10.00" fill="#000000">::getNumRawMeasurements</text>
</a>
</g>
</g>
<!-- Node10&#45;&gt;Node18 -->
<g id="edge18" class="edge">
<title>Node10&#45;&gt;Node18</title>
<path fill="none" stroke="#191970" d="M310.9401,-487.8878C318.7983,-491.5235 326.0946,-496.2816 332,-502.5 380.1049,-553.1549 319.3213,-605.3963 368,-655.5 369.8533,-657.4076 371.8344,-659.1751 373.9206,-660.8125"/>
<polygon fill="#191970" stroke="#191970" points="372.1802,-663.8591 382.4395,-666.5045 376.0692,-658.0387 372.1802,-663.8591"/>
</g>
<!-- Node19 -->
<g id="node19" class="node">
<title>Node19</title>
<g id="a_node19"><a xlink:href="../../d3/d03/classgenfit_1_1KalmanFitterInfo.html#a62b360e6212ebac95bb5d88202daa2e5" target="_top" xlink:title="genfit::KalmanFitterInfo\l::getPrediction">
<polygon fill="none" stroke="#000000" points="394.5,-613.5 394.5,-645.5 529.5,-645.5 529.5,-613.5 394.5,-613.5"/>
<text text-anchor="start" x="402.5" y="-632.5" font-family="FreeSans" font-size="10.00" fill="#000000">genfit::KalmanFitterInfo</text>
<text text-anchor="middle" x="462" y="-620.5" font-family="FreeSans" font-size="10.00" fill="#000000">::getPrediction</text>
</a>
</g>
</g>
<!-- Node10&#45;&gt;Node19 -->
<g id="edge19" class="edge">
<title>Node10&#45;&gt;Node19</title>
<path fill="none" stroke="#191970" d="M310.7719,-488.7086C318.5608,-492.2172 325.8846,-496.7211 332,-502.5 366.9413,-535.5185 332.6849,-571.8817 368,-604.5 373.0008,-609.1189 378.7575,-612.903 384.9081,-616.0008"/>
<polygon fill="#191970" stroke="#191970" points="383.5959,-619.2471 394.1591,-620.0655 386.4118,-612.8384 383.5959,-619.2471"/>
</g>
<!-- Node20 -->
<g id="node20" class="node">
<title>Node20</title>
<g id="a_node20"><a xlink:href="../../db/d40/classgenfit_1_1TrackPoint.html#a2999fc0669beb86b6309f86e040bcdef" target="_top" xlink:title="genfit::TrackPoint\l::getRawMeasurement">
<polygon fill="none" stroke="#000000" points="397,-562.5 397,-594.5 527,-594.5 527,-562.5 397,-562.5"/>
<text text-anchor="start" x="405" y="-581.5" font-family="FreeSans" font-size="10.00" fill="#000000">genfit::TrackPoint</text>
<text text-anchor="middle" x="462" y="-569.5" font-family="FreeSans" font-size="10.00" fill="#000000">::getRawMeasurement</text>
</a>
</g>
</g>
<!-- Node10&#45;&gt;Node20 -->
<g id="edge20" class="edge">
<title>Node10&#45;&gt;Node20</title>
<path fill="none" stroke="#191970" d="M310.7562,-490.9783C318.2814,-494.1035 325.5445,-497.897 332,-502.5 354.5902,-518.6078 345.2278,-537.6505 368,-553.5 373.9079,-557.6119 380.4544,-561.0476 387.2631,-563.9183"/>
<polygon fill="#191970" stroke="#191970" points="386.0837,-567.2142 396.6749,-567.493 388.5693,-560.6703 386.0837,-567.2142"/>
</g>
<!-- Node21 -->
<g id="node21" class="node">
<title>Node21</title>
<g id="a_node21"><a xlink:href="../../d3/d03/classgenfit_1_1KalmanFitterInfo.html#a580ecd10b0c09b257533ca04f2ba460b" target="_top" xlink:title="genfit::KalmanFitterInfo\l::getReferenceState">
<polygon fill="none" stroke="#000000" points="394.5,-511.5 394.5,-543.5 529.5,-543.5 529.5,-511.5 394.5,-511.5"/>
<text text-anchor="start" x="402.5" y="-530.5" font-family="FreeSans" font-size="10.00" fill="#000000">genfit::KalmanFitterInfo</text>
<text text-anchor="middle" x="462" y="-518.5" font-family="FreeSans" font-size="10.00" fill="#000000">::getReferenceState</text>
</a>
</g>
</g>
<!-- Node10&#45;&gt;Node21 -->
<g id="edge21" class="edge">
<title>Node10&#45;&gt;Node21</title>
<path fill="none" stroke="#191970" d="M310.748,-492.3572C334.0866,-497.7798 360.3616,-503.8847 384.3841,-509.4662"/>
<polygon fill="#191970" stroke="#191970" points="383.6388,-512.8862 394.1715,-511.7403 385.2231,-506.0679 383.6388,-512.8862"/>
</g>
<!-- Node22 -->
<g id="node22" class="node">
<title>Node22</title>
<g id="a_node22"><a xlink:href="../../d9/d8c/classgenfit_1_1AbsFitterInfo.html#a839876f08bdfc2680dc170b0262abebc" target="_top" xlink:title="genfit::AbsFitterInfo\l::hasPrediction">
<polygon fill="none" stroke="#000000" points="404,-268.5 404,-300.5 520,-300.5 520,-268.5 404,-268.5"/>
<text text-anchor="start" x="412" y="-287.5" font-family="FreeSans" font-size="10.00" fill="#000000">genfit::AbsFitterInfo</text>
<text text-anchor="middle" x="462" y="-275.5" font-family="FreeSans" font-size="10.00" fill="#000000">::hasPrediction</text>
</a>
</g>
</g>
<!-- Node10&#45;&gt;Node22 -->
<g id="edge22" class="edge">
<title>Node10&#45;&gt;Node22</title>
<path fill="none" stroke="#191970" d="M310.7496,-465.0918C318.5422,-461.6642 325.8729,-457.2303 332,-451.5 367.1114,-418.6625 338.8088,-387.6967 368,-349.5 381.7702,-331.4816 401.9821,-316.5957 420.1387,-305.6369"/>
<polygon fill="#191970" stroke="#191970" points="421.9612,-308.626 428.8496,-300.5761 418.4447,-302.5733 421.9612,-308.626"/>
</g>
<!-- Node25 -->
<g id="node25" class="node">
<title>Node25</title>
<g id="a_node25"><a xlink:href="../../d3/d03/classgenfit_1_1KalmanFitterInfo.html#ab74f13ab4f4f1ac99a29e1fa55b83413" target="_top" xlink:title="genfit::KalmanFitterInfo\l::hasReferenceState">
<polygon fill="none" stroke="#000000" points="394.5,-409.5 394.5,-441.5 529.5,-441.5 529.5,-409.5 394.5,-409.5"/>
<text text-anchor="start" x="402.5" y="-428.5" font-family="FreeSans" font-size="10.00" fill="#000000">genfit::KalmanFitterInfo</text>
<text text-anchor="middle" x="462" y="-416.5" font-family="FreeSans" font-size="10.00" fill="#000000">::hasReferenceState</text>
</a>
</g>
</g>
<!-- Node10&#45;&gt;Node25 -->
<g id="edge25" class="edge">
<title>Node10&#45;&gt;Node25</title>
<path fill="none" stroke="#191970" d="M310.748,-460.6428C334.0866,-455.2202 360.3616,-449.1153 384.3841,-443.5338"/>
<polygon fill="#191970" stroke="#191970" points="385.2231,-446.9321 394.1715,-441.2597 383.6388,-440.1138 385.2231,-446.9321"/>
</g>
<!-- Node26 -->
<g id="node26" class="node">
<title>Node26</title>
<g id="a_node26"><a xlink:href="../../d5/d1f/classgenfit_1_1AbsMeasurement.html#a6cf79b78e59f605622002903ad9fad6c" target="_top" xlink:title="If the AbsMeasurement is a wire hit, the left/right resolution will be used.">
<polygon fill="none" stroke="#000000" points="389,-358.5 389,-390.5 535,-390.5 535,-358.5 389,-358.5"/>
<text text-anchor="start" x="397" y="-377.5" font-family="FreeSans" font-size="10.00" fill="#000000">genfit::AbsMeasurement</text>
<text text-anchor="middle" x="462" y="-365.5" font-family="FreeSans" font-size="10.00" fill="#000000">::isLeftRightMeasurement</text>
</a>
</g>
</g>
<!-- Node10&#45;&gt;Node26 -->
<g id="edge26" class="edge">
<title>Node10&#45;&gt;Node26</title>
<path fill="none" stroke="#191970" d="M310.7471,-462.8339C318.2738,-459.7841 325.5399,-456.0562 332,-451.5 354.6731,-435.5091 345.3066,-416.4621 368,-400.5 371.6831,-397.9094 375.6153,-395.5765 379.7052,-393.4756"/>
<polygon fill="#191970" stroke="#191970" points="381.2663,-396.6099 388.8752,-389.2372 378.3294,-390.2558 381.2663,-396.6099"/>
</g>
<!-- Node11&#45;&gt;Node3 -->
<g id="edge13" class="edge">
<title>Node11&#45;&gt;Node3</title>
<path fill="none" stroke="#191970" d="M541.862,-492.5027C546.9585,-495.3198 551.7429,-498.6245 556,-502.5 636.1578,-575.4726 659.079,-712.2433 665.3057,-769.3768"/>
<polygon fill="#191970" stroke="#191970" points="661.8298,-769.7928 666.3124,-779.3926 668.7947,-769.0927 661.8298,-769.7928"/>
</g>
<!-- Node12 -->
<g id="node12" class="node">
<title>Node12</title>
<g id="a_node12"><a xlink:href="../../d3/d03/classgenfit_1_1KalmanFitterInfo.html#ac7f94b10aafb0b75efd90f491b456834" target="_top" xlink:title="genfit::KalmanFitterInfo\l::getMeasurementOnPlane">
<polygon fill="none" stroke="#000000" points="592,-486.5 592,-518.5 743,-518.5 743,-486.5 592,-486.5"/>
<text text-anchor="start" x="600" y="-505.5" font-family="FreeSans" font-size="10.00" fill="#000000">genfit::KalmanFitterInfo</text>
<text text-anchor="middle" x="667.5" y="-493.5" font-family="FreeSans" font-size="10.00" fill="#000000">::getMeasurementOnPlane</text>
</a>
</g>
</g>
<!-- Node11&#45;&gt;Node12 -->
<g id="edge11" class="edge">
<title>Node11&#45;&gt;Node12</title>
<path fill="none" stroke="#191970" d="M556.0296,-488.3967C564.6892,-489.4923 573.4319,-490.5984 582.0095,-491.6837"/>
<polygon fill="#191970" stroke="#191970" points="581.6278,-495.1632 591.9881,-492.9462 582.5065,-488.2186 581.6278,-495.1632"/>
</g>
<!-- Node13 -->
<g id="node13" class="node">
<title>Node13</title>
<g id="a_node13"><a xlink:href="../../d3/d03/classgenfit_1_1KalmanFitterInfo.html#a5342748d35f74e34dd5fcf7601d1896a" target="_top" xlink:title="genfit::KalmanFitterInfo\l::getNumMeasurements">
<polygon fill="none" stroke="#000000" points="598.5,-435.5 598.5,-467.5 736.5,-467.5 736.5,-435.5 598.5,-435.5"/>
<text text-anchor="start" x="606.5" y="-454.5" font-family="FreeSans" font-size="10.00" fill="#000000">genfit::KalmanFitterInfo</text>
<text text-anchor="middle" x="667.5" y="-442.5" font-family="FreeSans" font-size="10.00" fill="#000000">::getNumMeasurements</text>
</a>
</g>
</g>
<!-- Node11&#45;&gt;Node13 -->
<g id="edge12" class="edge">
<title>Node11&#45;&gt;Node13</title>
<path fill="none" stroke="#191970" d="M556.0296,-465.0609C566.8417,-463.7455 577.7835,-462.4144 588.3715,-461.1263"/>
<polygon fill="#191970" stroke="#191970" points="588.8945,-464.5886 598.3986,-459.9065 588.0491,-457.6398 588.8945,-464.5886"/>
</g>
<!-- Node14 -->
<g id="node14" class="node">
<title>Node14</title>
<g id="a_node14"><a xlink:href="../../d9/dc6/classgenfit_1_1AbsHMatrix.html#a77182cba40576805f0099203fe0e59ec" target="_top" xlink:title="H*v.">
<polygon fill="none" stroke="#000000" points="602,-390.5 602,-410.5 733,-410.5 733,-390.5 602,-390.5"/>
<text text-anchor="middle" x="667.5" y="-397.5" font-family="FreeSans" font-size="10.00" fill="#000000">genfit::AbsHMatrix::Hv</text>
</a>
</g>
</g>
<!-- Node11&#45;&gt;Node14 -->
<g id="edge14" class="edge">
<title>Node11&#45;&gt;Node14</title>
<path fill="none" stroke="#191970" d="M533.2558,-460.3843C541.0708,-457.7858 548.7973,-454.8336 556,-451.5 573.6781,-443.3182 574.6266,-435.3102 592,-426.5 601.4634,-421.701 612.017,-417.4475 622.1629,-413.8423"/>
<polygon fill="#191970" stroke="#191970" points="623.3794,-417.1254 631.7166,-410.5877 621.1222,-410.4994 623.3794,-417.1254"/>
</g>
<!-- Node11&#45;&gt;Node16 -->
<g id="edge16" class="edge">
<title>Node11&#45;&gt;Node16</title>
<path fill="none" stroke="#191970" d="M542.2932,-460.358C547.1654,-457.8211 551.7909,-454.8889 556,-451.5 583.2498,-429.5603 567.2846,-406.2598 592,-381.5 599.0353,-374.4521 607.6096,-368.4094 616.4221,-363.3319"/>
<polygon fill="#191970" stroke="#191970" points="618.1172,-366.3944 625.2659,-358.5747 614.8011,-360.2297 618.1172,-366.3944"/>
</g>
<!-- Node15 -->
<g id="node15" class="node">
<title>Node15</title>
<g id="a_node15"><a xlink:href="../../d9/dc6/classgenfit_1_1AbsHMatrix.html#a5e04e261388034ab5c4aaa51f714f0e6" target="_top" xlink:title="Get the actual matrix representation.">
<polygon fill="none" stroke="#000000" points="779,-202.5 779,-234.5 889,-234.5 889,-202.5 779,-202.5"/>
<text text-anchor="start" x="787" y="-221.5" font-family="FreeSans" font-size="10.00" fill="#000000">genfit::AbsHMatrix</text>
<text text-anchor="middle" x="834" y="-209.5" font-family="FreeSans" font-size="10.00" fill="#000000">::getMatrix</text>
</a>
</g>
</g>
<!-- Node14&#45;&gt;Node15 -->
<g id="edge15" class="edge">
<title>Node14&#45;&gt;Node15</title>
<path fill="none" stroke="#191970" d="M703.5157,-390.4416C716.9624,-385.4205 731.695,-378.2798 743,-368.5 783.0821,-333.8254 810.7173,-276.9903 824.3087,-244.138"/>
<polygon fill="#191970" stroke="#191970" points="827.5947,-245.3474 828.0741,-234.7635 821.099,-242.7384 827.5947,-245.3474"/>
</g>
<!-- Node23 -->
<g id="node23" class="node">
<title>Node23</title>
<g id="a_node23"><a xlink:href="../../d9/d8c/classgenfit_1_1AbsFitterInfo.html#afad89f45093082193a4ba3ae36f7982c" target="_top" xlink:title="genfit::AbsFitterInfo\l::hasBackwardPrediction">
<polygon fill="none" stroke="#000000" points="597.5,-271.5 597.5,-303.5 737.5,-303.5 737.5,-271.5 597.5,-271.5"/>
<text text-anchor="start" x="605.5" y="-290.5" font-family="FreeSans" font-size="10.00" fill="#000000">genfit::AbsFitterInfo</text>
<text text-anchor="middle" x="667.5" y="-278.5" font-family="FreeSans" font-size="10.00" fill="#000000">::hasBackwardPrediction</text>
</a>
</g>
</g>
<!-- Node22&#45;&gt;Node23 -->
<g id="edge23" class="edge">
<title>Node22&#45;&gt;Node23</title>
<path fill="none" stroke="#191970" d="M520.064,-285.3477C540.855,-285.6512 564.6775,-285.9989 587.0235,-286.3252"/>
<polygon fill="#191970" stroke="#191970" points="587.1204,-289.8269 597.1704,-286.4733 587.2226,-282.8276 587.1204,-289.8269"/>
</g>
<!-- Node24 -->
<g id="node24" class="node">
<title>Node24</title>
<g id="a_node24"><a xlink:href="../../d9/d8c/classgenfit_1_1AbsFitterInfo.html#a5df8e04571941a2a2b49ee6ff76225f8" target="_top" xlink:title="genfit::AbsFitterInfo\l::hasForwardPrediction">
<polygon fill="none" stroke="#000000" points="602,-220.5 602,-252.5 733,-252.5 733,-220.5 602,-220.5"/>
<text text-anchor="start" x="610" y="-239.5" font-family="FreeSans" font-size="10.00" fill="#000000">genfit::AbsFitterInfo</text>
<text text-anchor="middle" x="667.5" y="-227.5" font-family="FreeSans" font-size="10.00" fill="#000000">::hasForwardPrediction</text>
</a>
</g>
</g>
<!-- Node22&#45;&gt;Node24 -->
<g id="edge24" class="edge">
<title>Node22&#45;&gt;Node24</title>
<path fill="none" stroke="#191970" d="M520.064,-270.9376C542.3924,-265.7222 568.2172,-259.6901 591.9546,-254.1456"/>
<polygon fill="#191970" stroke="#191970" points="593.0419,-257.486 601.9836,-251.8031 591.4496,-250.6694 593.0419,-257.486"/>
</g>
<!-- Node31&#45;&gt;Node3 -->
<g id="edge34" class="edge">
<title>Node31&#45;&gt;Node3</title>
<path fill="none" stroke="#191970" d="M315.359,-631.8047C321.5313,-634.7694 327.2264,-638.5925 332,-643.5 390.4057,-703.5439 303.3597,-775.2259 368,-828.5 442.6821,-890.0502 565.837,-845.4055 628.4026,-815.9087"/>
<polygon fill="#191970" stroke="#191970" points="630.0558,-818.9972 637.5442,-811.5022 627.0163,-812.6915 630.0558,-818.9972"/>
</g>
<!-- Node33 -->
<g id="node33" class="node">
<title>Node33</title>
<g id="a_node33"><a xlink:href="../../d9/dc6/classgenfit_1_1AbsHMatrix.html#a331e54b0796cf01e4e222877d30e1eba" target="_top" xlink:title="M*H^t.">
<polygon fill="none" stroke="#000000" points="598.5,-.5 598.5,-20.5 736.5,-20.5 736.5,-.5 598.5,-.5"/>
<text text-anchor="middle" x="667.5" y="-7.5" font-family="FreeSans" font-size="10.00" fill="#000000">genfit::AbsHMatrix::MHt</text>
</a>
</g>
</g>
<!-- Node32&#45;&gt;Node33 -->
<g id="edge36" class="edge">
<title>Node32&#45;&gt;Node33</title>
<path fill="none" stroke="#191970" d="M257.0999,-82.303C279.6674,-67.1721 324.9283,-39.2951 368,-27.5 440.6502,-7.605 526.8082,-4.7639 588.0214,-6.0572"/>
<polygon fill="#191970" stroke="#191970" points="588.3016,-9.5653 598.3873,-6.3206 588.4795,-2.5676 588.3016,-9.5653"/>
</g>
<!-- Node32&#45;&gt;Node34 -->
<g id="edge38" class="edge">
<title>Node32&#45;&gt;Node34</title>
<path fill="none" stroke="#191970" d="M291.4869,-102.5429C336.831,-111.8389 402.3823,-125.2777 437.5356,-132.4845"/>
<polygon fill="#191970" stroke="#191970" points="436.9142,-135.9298 447.4134,-134.5096 438.32,-129.0725 436.9142,-135.9298"/>
</g>
<!-- Node35 -->
<g id="node35" class="node">
<title>Node35</title>
<g id="a_node35"><a xlink:href="../../db/d45/namespacegenfit_1_1tools.html#a409cdc24f5908845f845bf0c4a2d4961" target="_top" xlink:title="Replaces A with an upper right matrix connected to A by an orthongonal transformation. I.e., it computes R from a QR decomposition of A = QR, replacing A.">
<polygon fill="none" stroke="#000000" points="412.5,-37.5 412.5,-57.5 511.5,-57.5 511.5,-37.5 412.5,-37.5"/>
<text text-anchor="middle" x="462" y="-44.5" font-family="FreeSans" font-size="10.00" fill="#000000">genfit::tools::QR</text>
</a>
</g>
</g>
<!-- Node32&#45;&gt;Node35 -->
<g id="edge39" class="edge">
<title>Node32&#45;&gt;Node35</title>
<path fill="none" stroke="#191970" d="M290.7613,-82.4447C314.0891,-77.5989 342.4951,-71.7195 368,-66.5 379.102,-64.228 390.9451,-61.8211 402.3506,-59.5116"/>
<polygon fill="#191970" stroke="#191970" points="403.1237,-62.9261 412.2312,-57.5129 401.7358,-56.0651 403.1237,-62.9261"/>
</g>
<!-- Node37 -->
<g id="node37" class="node">
<title>Node37</title>
<g id="a_node37"><a xlink:href="../../db/d45/namespacegenfit_1_1tools.html#a97e35224c7d7ec5d63f23ffda85aef4c" target="_top" xlink:title="Solves R^t x = b, replacing b with the solution for x. R is assumed to be upper diagonal.">
<polygon fill="none" stroke="#000000" points="392,-76.5 392,-108.5 532,-108.5 532,-76.5 392,-76.5"/>
<text text-anchor="start" x="400" y="-95.5" font-family="FreeSans" font-size="10.00" fill="#000000">genfit::tools::transposed</text>
<text text-anchor="middle" x="462" y="-83.5" font-family="FreeSans" font-size="10.00" fill="#000000">ForwardSubstitution</text>
</a>
</g>
</g>
<!-- Node32&#45;&gt;Node37 -->
<g id="edge41" class="edge">
<title>Node32&#45;&gt;Node37</title>
<path fill="none" stroke="#191970" d="M332.0956,-92.5C348.4324,-92.5 365.3861,-92.5 381.4411,-92.5"/>
<polygon fill="#191970" stroke="#191970" points="381.8462,-96.0001 391.8462,-92.5 381.8462,-89.0001 381.8462,-96.0001"/>
</g>
<!-- Node33&#45;&gt;Node15 -->
<g id="edge37" class="edge">
<title>Node33&#45;&gt;Node15</title>
<path fill="none" stroke="#191970" d="M722.645,-20.6292C730.0008,-23.6182 737.0462,-27.4886 743,-32.5 793.4943,-75.0018 818.3667,-152.2062 828.397,-192.4787"/>
<polygon fill="#191970" stroke="#191970" points="825.0227,-193.4183 830.7381,-202.3393 831.8333,-191.8012 825.0227,-193.4183"/>
</g>
<!-- Node36 -->
<g id="node36" class="node">
<title>Node36</title>
<g id="a_node36"><a xlink:href="../../da/d55/TPCRateLayered_8m.html#a7507ef556477c204b499f1e189d40796" target="_top" xlink:title="sum">
<polygon fill="none" stroke="#000000" points="648.5,-42.5 648.5,-62.5 686.5,-62.5 686.5,-42.5 648.5,-42.5"/>
<text text-anchor="middle" x="667.5" y="-49.5" font-family="FreeSans" font-size="10.00" fill="#000000">sum</text>
</a>
</g>
</g>
<!-- Node35&#45;&gt;Node36 -->
<g id="edge40" class="edge">
<title>Node35&#45;&gt;Node36</title>
<path fill="none" stroke="#191970" d="M511.7458,-48.7104C551.2328,-49.6711 605.1017,-50.9818 638.0319,-51.783"/>
<polygon fill="#191970" stroke="#191970" points="638.2636,-55.2896 648.3458,-52.034 638.434,-48.2917 638.2636,-55.2896"/>
</g>
<!-- Node37&#45;&gt;Node36 -->
<g id="edge43" class="edge">
<title>Node37&#45;&gt;Node36</title>
<path fill="none" stroke="#191970" d="M532.1467,-78.8461C568.2785,-71.8132 610.411,-63.6122 637.9503,-58.2518"/>
<polygon fill="#191970" stroke="#191970" points="638.9506,-61.6228 648.0977,-56.2766 637.6131,-54.7518 638.9506,-61.6228"/>
</g>
<!-- Node38 -->
<g id="node38" class="node">
<title>Node38</title>
<g id="a_node38"><a xlink:href="../../d7/dd8/bk_8f.html#a084aa72b16f800aa352c4efed50eb2af" target="_top" xlink:title="bk">
<polygon fill="none" stroke="#000000" points="653,-82.5 653,-102.5 682,-102.5 682,-82.5 653,-82.5"/>
<text text-anchor="middle" x="667.5" y="-89.5" font-family="FreeSans" font-size="10.00" fill="#000000">bk</text>
</a>
</g>
</g>
<!-- Node37&#45;&gt;Node38 -->
<g id="edge42" class="edge">
<title>Node37&#45;&gt;Node38</title>
<path fill="none" stroke="#191970" d="M532.1467,-92.5C570.3669,-92.5 615.3014,-92.5 642.5753,-92.5"/>
<polygon fill="#191970" stroke="#191970" points="642.779,-96.0001 652.779,-92.5 642.7789,-89.0001 642.779,-96.0001"/>
</g>
<!-- Node39&#45;&gt;Node29 -->
<g id="edge47" class="edge">
<title>Node39&#45;&gt;Node29</title>
<path fill="none" stroke="#191970" d="M294.5184,-203.7425C326.1133,-209.3561 366.6318,-216.5553 399.9008,-222.4664"/>
<polygon fill="#191970" stroke="#191970" points="399.5169,-225.953 409.975,-224.2564 400.7416,-219.0609 399.5169,-225.953"/>
</g>
<!-- Node40 -->
<g id="node40" class="node">
<title>Node40</title>
<g id="a_node40"><a xlink:href="../../d9/d8c/classgenfit_1_1AbsFitterInfo.html#afea691164c74306d2031439ca40d1687" target="_top" xlink:title="genfit::AbsFitterInfo\l::getRep">
<polygon fill="none" stroke="#000000" points="404,-166.5 404,-198.5 520,-198.5 520,-166.5 404,-166.5"/>
<text text-anchor="start" x="412" y="-185.5" font-family="FreeSans" font-size="10.00" fill="#000000">genfit::AbsFitterInfo</text>
<text text-anchor="middle" x="462" y="-173.5" font-family="FreeSans" font-size="10.00" fill="#000000">::getRep</text>
</a>
</g>
</g>
<!-- Node39&#45;&gt;Node40 -->
<g id="edge46" class="edge">
<title>Node39&#45;&gt;Node40</title>
<path fill="none" stroke="#191970" d="M294.5184,-191.6562C324.1468,-190.0364 361.6225,-187.9876 393.6083,-186.239"/>
<polygon fill="#191970" stroke="#191970" points="393.9895,-189.7234 403.7835,-185.6827 393.6073,-182.7339 393.9895,-189.7234"/>
</g>
</g>
</svg>
