<?xml version="1.0" encoding="UTF-8" standalone="no"?>
<!DOCTYPE svg PUBLIC "-//W3C//DTD SVG 1.1//EN"
 "http://www.w3.org/Graphics/SVG/1.1/DTD/svg11.dtd">
<!-- Generated by graphviz version 2.40.1 (20161225.0304)
 -->
<!-- Title: PHHepMCGenEventMap::get Pages: 1 -->
<svg width="1062pt" height="704pt"
 viewBox="0.00 0.00 1062.00 704.00" xmlns="http://www.w3.org/2000/svg" xmlns:xlink="http://www.w3.org/1999/xlink">
<g id="graph0" class="graph" transform="scale(1 1) rotate(0) translate(4 700)">
<title>PHHepMCGenEventMap::get</title>
<!-- Node1 -->
<g id="node1" class="node">
<title>Node1</title>
<polygon fill="#bfbfbf" stroke="#000000" points="0,-337.5 0,-357.5 161,-357.5 161,-337.5 0,-337.5"/>
<text text-anchor="middle" x="80.5" y="-344.5" font-family="FreeSans" font-size="10.00" fill="#000000">PHHepMCGenEventMap::get</text>
</g>
<!-- Node2 -->
<g id="node2" class="node">
<title>Node2</title>
<g id="a_node2"><a xlink:href="../../da/d73/classExclusiveReco.html#a48d900fd8ad00d0b252204dcbb941bc7" target="_top" xlink:title="ExclusiveReco::AddInvariant\lMassInformation">
<polygon fill="none" stroke="#000000" points="205,-663.5 205,-695.5 365,-695.5 365,-663.5 205,-663.5"/>
<text text-anchor="start" x="213" y="-682.5" font-family="FreeSans" font-size="10.00" fill="#000000">ExclusiveReco::AddInvariant</text>
<text text-anchor="middle" x="285" y="-670.5" font-family="FreeSans" font-size="10.00" fill="#000000">MassInformation</text>
</a>
</g>
</g>
<!-- Node1&#45;&gt;Node2 -->
<g id="edge1" class="edge">
<title>Node1&#45;&gt;Node2</title>
<path fill="none" stroke="#191970" d="M82.094,-367.9623C87.4889,-422.8568 109.9441,-574.618 197,-654.5 200.7447,-657.9362 204.9283,-660.9039 209.3825,-663.4666"/>
<polygon fill="#191970" stroke="#191970" points="85.5603,-367.4284 81.1846,-357.7794 78.5881,-368.0511 85.5603,-367.4284"/>
</g>
<!-- Node4 -->
<g id="node4" class="node">
<title>Node4</title>
<g id="a_node4"><a xlink:href="../../db/db5/classDISKinematicsReco.html#ae000014716c30b27013b7b13313f8498" target="_top" xlink:title="DISKinematicsReco::\lAddTruthEventInformation">
<polygon fill="none" stroke="#000000" points="210,-612.5 210,-644.5 360,-644.5 360,-612.5 210,-612.5"/>
<text text-anchor="start" x="218" y="-631.5" font-family="FreeSans" font-size="10.00" fill="#000000">DISKinematicsReco::</text>
<text text-anchor="middle" x="285" y="-619.5" font-family="FreeSans" font-size="10.00" fill="#000000">AddTruthEventInformation</text>
</a>
</g>
</g>
<!-- Node1&#45;&gt;Node4 -->
<g id="edge3" class="edge">
<title>Node1&#45;&gt;Node4</title>
<path fill="none" stroke="#191970" d="M83.7821,-367.7449C92.6988,-416.0731 121.9382,-538.9479 197,-603.5 200.9738,-606.9174 205.3854,-609.8692 210.0559,-612.4186"/>
<polygon fill="#191970" stroke="#191970" points="87.1836,-366.8768 82.0163,-357.6275 80.2878,-368.0804 87.1836,-366.8768"/>
</g>
<!-- Node6 -->
<g id="node6" class="node">
<title>Node6</title>
<g id="a_node6"><a xlink:href="../../db/db5/classDISKinematicsReco.html#a304bc882f5517efba6e9584933088d33" target="_top" xlink:title="DISKinematicsReco::\lCollectEmCandidatesFromTruth">
<polygon fill="none" stroke="#000000" points="198,-561.5 198,-593.5 372,-593.5 372,-561.5 198,-561.5"/>
<text text-anchor="start" x="206" y="-580.5" font-family="FreeSans" font-size="10.00" fill="#000000">DISKinematicsReco::</text>
<text text-anchor="middle" x="285" y="-568.5" font-family="FreeSans" font-size="10.00" fill="#000000">CollectEmCandidatesFromTruth</text>
</a>
</g>
</g>
<!-- Node1&#45;&gt;Node6 -->
<g id="edge5" class="edge">
<title>Node1&#45;&gt;Node6</title>
<path fill="none" stroke="#191970" d="M86.2103,-367.5607C98.9657,-408.6865 133.739,-502.8524 197,-552.5 201.3729,-555.9319 206.195,-558.8927 211.2617,-561.447"/>
<polygon fill="#191970" stroke="#191970" points="89.5324,-366.4535 83.3136,-357.8758 82.8259,-368.4594 89.5324,-366.4535"/>
</g>
<!-- Node7 -->
<g id="node7" class="node">
<title>Node7</title>
<g id="a_node7"><a xlink:href="../../dd/d2a/classPHHepMCGenHelper.html#af1c2525b75067fcdd4c28de6007c5963" target="_top" xlink:title="move vertex according to vertex settings">
<polygon fill="none" stroke="#000000" points="207.5,-510.5 207.5,-542.5 362.5,-542.5 362.5,-510.5 207.5,-510.5"/>
<text text-anchor="start" x="215.5" y="-529.5" font-family="FreeSans" font-size="10.00" fill="#000000">PHHepMCGenHelper::move</text>
<text text-anchor="middle" x="285" y="-517.5" font-family="FreeSans" font-size="10.00" fill="#000000">_vertex</text>
</a>
</g>
</g>
<!-- Node1&#45;&gt;Node7 -->
<g id="edge7" class="edge">
<title>Node1&#45;&gt;Node7</title>
<path fill="none" stroke="#191970" d="M89.6487,-366.5317C106.3315,-399.1885 144.843,-465.8194 197,-501.5 201.9812,-504.9077 207.4226,-507.8545 213.0778,-510.4023"/>
<polygon fill="#191970" stroke="#191970" points="92.7717,-364.9511 85.1812,-357.5594 86.5055,-368.0712 92.7717,-364.9511"/>
</g>
<!-- Node16 -->
<g id="node16" class="node">
<title>Node16</title>
<g id="a_node16"><a xlink:href="../../d5/d18/classPHHepMCParticleSelectorDecayProductChain.html#ac7d4d17ca5f6253a85332458a6ef0899" target="_top" xlink:title="PHHepMCParticleSelectorDecay\lProductChain::process_event">
<polygon fill="none" stroke="#000000" points="197,-459.5 197,-491.5 373,-491.5 373,-459.5 197,-459.5"/>
<text text-anchor="start" x="205" y="-478.5" font-family="FreeSans" font-size="10.00" fill="#000000">PHHepMCParticleSelectorDecay</text>
<text text-anchor="middle" x="285" y="-466.5" font-family="FreeSans" font-size="10.00" fill="#000000">ProductChain::process_event</text>
</a>
</g>
</g>
<!-- Node1&#45;&gt;Node16 -->
<g id="edge16" class="edge">
<title>Node1&#45;&gt;Node16</title>
<path fill="none" stroke="#191970" d="M95.8144,-365.2742C116.5239,-388.2234 155.6511,-427.8903 197,-450.5 203.1315,-453.8527 209.7548,-456.7914 216.5199,-459.3595"/>
<polygon fill="#191970" stroke="#191970" points="98.2996,-362.8013 89.0479,-357.6382 93.0605,-367.4438 98.2996,-362.8013"/>
</g>
<!-- Node17 -->
<g id="node17" class="node">
<title>Node17</title>
<g id="a_node17"><a xlink:href="../../da/df3/classQuarkonia2LeptonsMC.html#a0fdfece5204079db0fb1163e8e6e2418" target="_top" xlink:title="Quarkonia2LeptonsMC\l::process_event">
<polygon fill="none" stroke="#000000" points="220,-408.5 220,-440.5 350,-440.5 350,-408.5 220,-408.5"/>
<text text-anchor="start" x="228" y="-427.5" font-family="FreeSans" font-size="10.00" fill="#000000">Quarkonia2LeptonsMC</text>
<text text-anchor="middle" x="285" y="-415.5" font-family="FreeSans" font-size="10.00" fill="#000000">::process_event</text>
</a>
</g>
</g>
<!-- Node1&#45;&gt;Node17 -->
<g id="edge17" class="edge">
<title>Node1&#45;&gt;Node17</title>
<path fill="none" stroke="#191970" d="M110.5536,-361.8997C133.833,-372.7482 167.0558,-387.5709 197,-398.5 206.5776,-401.9957 216.8664,-405.3685 226.9123,-408.4614"/>
<polygon fill="#191970" stroke="#191970" points="111.7632,-358.601 101.224,-357.5165 108.7866,-364.9366 111.7632,-358.601"/>
</g>
<!-- Node18 -->
<g id="node18" class="node">
<title>Node18</title>
<g id="a_node18"><a xlink:href="../../db/d4c/classBJetModule.html#a93ec29147c2d7aea52780d7370141e74" target="_top" xlink:title="BJetModule::process\l_event">
<polygon fill="none" stroke="#000000" points="225.5,-357.5 225.5,-389.5 344.5,-389.5 344.5,-357.5 225.5,-357.5"/>
<text text-anchor="start" x="233.5" y="-376.5" font-family="FreeSans" font-size="10.00" fill="#000000">BJetModule::process</text>
<text text-anchor="middle" x="285" y="-364.5" font-family="FreeSans" font-size="10.00" fill="#000000">_event</text>
</a>
</g>
</g>
<!-- Node1&#45;&gt;Node18 -->
<g id="edge18" class="edge">
<title>Node1&#45;&gt;Node18</title>
<path fill="none" stroke="#191970" d="M169.3909,-358.8015C188.2974,-361.2053 207.8239,-363.6879 225.3246,-365.9129"/>
<polygon fill="#191970" stroke="#191970" points="169.6341,-355.3044 159.2725,-357.5151 168.7512,-362.2485 169.6341,-355.3044"/>
</g>
<!-- Node19 -->
<g id="node19" class="node">
<title>Node19</title>
<g id="a_node19"><a xlink:href="../../dd/dea/classHFMLTriggerHepMCTrigger.html#a27dd9ca3c3a9d443a7be2dc019c4a076" target="_top" xlink:title="HFMLTriggerHepMCTrigger\l::process_event">
<polygon fill="none" stroke="#000000" points="210.5,-306.5 210.5,-338.5 359.5,-338.5 359.5,-306.5 210.5,-306.5"/>
<text text-anchor="start" x="218.5" y="-325.5" font-family="FreeSans" font-size="10.00" fill="#000000">HFMLTriggerHepMCTrigger</text>
<text text-anchor="middle" x="285" y="-313.5" font-family="FreeSans" font-size="10.00" fill="#000000">::process_event</text>
</a>
</g>
</g>
<!-- Node1&#45;&gt;Node19 -->
<g id="edge19" class="edge">
<title>Node1&#45;&gt;Node19</title>
<path fill="none" stroke="#191970" d="M170.9862,-336.4381C184.0912,-334.836 197.4574,-333.202 210.2082,-331.6432"/>
<polygon fill="#191970" stroke="#191970" points="170.5316,-332.9675 161.0303,-337.6552 171.3811,-339.9158 170.5316,-332.9675"/>
</g>
<!-- Node20 -->
<g id="node20" class="node">
<title>Node20</title>
<g id="a_node20"><a xlink:href="../../dd/dbd/classDirectPhotonPythia.html#a7e813a6037138c960bd78bd99b66508e" target="_top" xlink:title="DirectPhotonPythia\l::process_event">
<polygon fill="none" stroke="#000000" points="229,-255.5 229,-287.5 341,-287.5 341,-255.5 229,-255.5"/>
<text text-anchor="start" x="237" y="-274.5" font-family="FreeSans" font-size="10.00" fill="#000000">DirectPhotonPythia</text>
<text text-anchor="middle" x="285" y="-262.5" font-family="FreeSans" font-size="10.00" fill="#000000">::process_event</text>
</a>
</g>
</g>
<!-- Node1&#45;&gt;Node20 -->
<g id="edge20" class="edge">
<title>Node1&#45;&gt;Node20</title>
<path fill="none" stroke="#191970" d="M110.5211,-333.0107C133.7834,-322.1148 166.9989,-307.272 197,-296.5 207.1646,-292.8504 218.1383,-289.3757 228.774,-286.2405"/>
<polygon fill="#191970" stroke="#191970" points="108.7455,-329.9786 101.1993,-337.4154 111.7361,-336.3076 108.7455,-329.9786"/>
</g>
<!-- Node21 -->
<g id="node21" class="node">
<title>Node21</title>
<g id="a_node21"><a xlink:href="../../d0/d55/classHFFastSim.html#ae158c7e499689292996251d13ad33a5c" target="_top" xlink:title="HFFastSim::process\l_event">
<polygon fill="none" stroke="#000000" points="227.5,-204.5 227.5,-236.5 342.5,-236.5 342.5,-204.5 227.5,-204.5"/>
<text text-anchor="start" x="235.5" y="-223.5" font-family="FreeSans" font-size="10.00" fill="#000000">HFFastSim::process</text>
<text text-anchor="middle" x="285" y="-211.5" font-family="FreeSans" font-size="10.00" fill="#000000">_event</text>
</a>
</g>
</g>
<!-- Node1&#45;&gt;Node21 -->
<g id="edge21" class="edge">
<title>Node1&#45;&gt;Node21</title>
<path fill="none" stroke="#191970" d="M95.8512,-329.9056C116.6011,-307.1871 155.7724,-267.914 197,-245.5 206.3489,-240.4174 216.8319,-236.2827 227.215,-232.9481"/>
<polygon fill="#191970" stroke="#191970" points="93.1426,-327.6837 89.0704,-337.4647 98.3533,-332.3579 93.1426,-327.6837"/>
</g>
<!-- Node22 -->
<g id="node22" class="node">
<title>Node22</title>
<g id="a_node22"><a xlink:href="../../d7/d62/classHFMLTriggerInterface.html#a29f338c2563a39e5d0e58b316f4b036f" target="_top" xlink:title="HFMLTriggerInterface\l::process_event">
<polygon fill="none" stroke="#000000" points="224,-153.5 224,-185.5 346,-185.5 346,-153.5 224,-153.5"/>
<text text-anchor="start" x="232" y="-172.5" font-family="FreeSans" font-size="10.00" fill="#000000">HFMLTriggerInterface</text>
<text text-anchor="middle" x="285" y="-160.5" font-family="FreeSans" font-size="10.00" fill="#000000">::process_event</text>
</a>
</g>
</g>
<!-- Node1&#45;&gt;Node22 -->
<g id="edge22" class="edge">
<title>Node1&#45;&gt;Node22</title>
<path fill="none" stroke="#191970" d="M89.9249,-328.1223C106.7869,-295.513 145.2524,-229.7815 197,-194.5 205.0047,-189.0424 214.1912,-184.7662 223.5417,-181.4183"/>
<polygon fill="#191970" stroke="#191970" points="86.7709,-326.6035 85.3946,-337.1086 93.0216,-329.7547 86.7709,-326.6035"/>
</g>
<!-- Node23 -->
<g id="node23" class="node">
<title>Node23</title>
<g id="a_node23"><a xlink:href="../../d9/de3/classTruthPhotonJet.html#ae476c9aba33cf8d9161947519d293f5c" target="_top" xlink:title="TruthPhotonJet::process\l_event">
<polygon fill="none" stroke="#000000" points="216.5,-102.5 216.5,-134.5 353.5,-134.5 353.5,-102.5 216.5,-102.5"/>
<text text-anchor="start" x="224.5" y="-121.5" font-family="FreeSans" font-size="10.00" fill="#000000">TruthPhotonJet::process</text>
<text text-anchor="middle" x="285" y="-109.5" font-family="FreeSans" font-size="10.00" fill="#000000">_event</text>
</a>
</g>
</g>
<!-- Node1&#45;&gt;Node23 -->
<g id="edge23" class="edge">
<title>Node1&#45;&gt;Node23</title>
<path fill="none" stroke="#191970" d="M86.2397,-327.536C99.05,-286.6087 133.9202,-192.8984 197,-143.5 202.752,-138.9955 209.2782,-135.3027 216.1146,-132.2752"/>
<polygon fill="#191970" stroke="#191970" points="82.8695,-326.5893 83.3295,-337.1742 89.5707,-328.6127 82.8695,-326.5893"/>
</g>
<!-- Node24 -->
<g id="node24" class="node">
<title>Node24</title>
<g id="a_node24"><a xlink:href="../../da/daf/classJetHepMCLoader.html#ae68c17d088405b8d235bb43f8c115988" target="_top" xlink:title="JetHepMCLoader::process\l_event">
<polygon fill="none" stroke="#000000" points="212,-51.5 212,-83.5 358,-83.5 358,-51.5 212,-51.5"/>
<text text-anchor="start" x="220" y="-70.5" font-family="FreeSans" font-size="10.00" fill="#000000">JetHepMCLoader::process</text>
<text text-anchor="middle" x="285" y="-58.5" font-family="FreeSans" font-size="10.00" fill="#000000">_event</text>
</a>
</g>
</g>
<!-- Node1&#45;&gt;Node24 -->
<g id="edge24" class="edge">
<title>Node1&#45;&gt;Node24</title>
<path fill="none" stroke="#191970" d="M83.8074,-327.3326C92.7801,-279.1898 122.1335,-156.788 197,-92.5 201.4583,-88.6716 206.4661,-85.4277 211.7715,-82.6792"/>
<polygon fill="#191970" stroke="#191970" points="80.32,-326.9552 82.0295,-337.4112 87.2136,-328.1714 80.32,-326.9552"/>
</g>
<!-- Node25 -->
<g id="node25" class="node">
<title>Node25</title>
<g id="a_node25"><a xlink:href="../../d0/dec/classFun4AllHepMCOutputManager.html#a158e706026e7d2caf18b605afc50c046" target="_top" xlink:title="write starting from given node">
<polygon fill="none" stroke="#000000" points="200,-.5 200,-32.5 370,-32.5 370,-.5 200,-.5"/>
<text text-anchor="start" x="208" y="-19.5" font-family="FreeSans" font-size="10.00" fill="#000000">Fun4AllHepMCOutputManager</text>
<text text-anchor="middle" x="285" y="-7.5" font-family="FreeSans" font-size="10.00" fill="#000000">::Write</text>
</a>
</g>
</g>
<!-- Node1&#45;&gt;Node25 -->
<g id="edge25" class="edge">
<title>Node1&#45;&gt;Node25</title>
<path fill="none" stroke="#191970" d="M82.1162,-327.1028C87.5669,-272.3832 110.1488,-121.1076 197,-41.5 200.7466,-38.0659 204.9316,-35.0997 209.3867,-32.538"/>
<polygon fill="#191970" stroke="#191970" points="78.6133,-326.9781 81.1962,-337.2533 85.5847,-327.6101 78.6133,-326.9781"/>
</g>
<!-- Node3 -->
<g id="node3" class="node">
<title>Node3</title>
<g id="a_node3"><a xlink:href="../../da/d73/classExclusiveReco.html#a026079694f2af119464bf5955c27a01c" target="_top" xlink:title="ExclusiveReco::process\l_event">
<polygon fill="none" stroke="#000000" points="449,-663.5 449,-695.5 583,-695.5 583,-663.5 449,-663.5"/>
<text text-anchor="start" x="457" y="-682.5" font-family="FreeSans" font-size="10.00" fill="#000000">ExclusiveReco::process</text>
<text text-anchor="middle" x="516" y="-670.5" font-family="FreeSans" font-size="10.00" fill="#000000">_event</text>
</a>
</g>
</g>
<!-- Node2&#45;&gt;Node3 -->
<g id="edge2" class="edge">
<title>Node2&#45;&gt;Node3</title>
<path fill="none" stroke="#191970" d="M375.1535,-679.5C399.619,-679.5 425.6805,-679.5 448.648,-679.5"/>
<polygon fill="#191970" stroke="#191970" points="375.1443,-676.0001 365.1443,-679.5 375.1443,-683.0001 375.1443,-676.0001"/>
</g>
<!-- Node5 -->
<g id="node5" class="node">
<title>Node5</title>
<g id="a_node5"><a xlink:href="../../db/db5/classDISKinematicsReco.html#a6d03dc93ccee64fd4d931a06dad1ec55" target="_top" xlink:title="DISKinematicsReco::\lprocess_event">
<polygon fill="none" stroke="#000000" points="456,-595.5 456,-627.5 576,-627.5 576,-595.5 456,-595.5"/>
<text text-anchor="start" x="464" y="-614.5" font-family="FreeSans" font-size="10.00" fill="#000000">DISKinematicsReco::</text>
<text text-anchor="middle" x="516" y="-602.5" font-family="FreeSans" font-size="10.00" fill="#000000">process_event</text>
</a>
</g>
</g>
<!-- Node4&#45;&gt;Node5 -->
<g id="edge4" class="edge">
<title>Node4&#45;&gt;Node5</title>
<path fill="none" stroke="#191970" d="M370.6146,-622.1994C398.9145,-620.1167 429.7849,-617.8448 455.7711,-615.9324"/>
<polygon fill="#191970" stroke="#191970" points="370.0345,-618.7325 360.3184,-622.9571 370.5483,-625.7136 370.0345,-618.7325"/>
</g>
<!-- Node6&#45;&gt;Node5 -->
<g id="edge6" class="edge">
<title>Node6&#45;&gt;Node5</title>
<path fill="none" stroke="#191970" d="M382.222,-591.8097C407.1386,-595.4771 433.2195,-599.3159 455.6669,-602.6198"/>
<polygon fill="#191970" stroke="#191970" points="382.4051,-588.2991 372.002,-590.3055 381.3858,-595.2244 382.4051,-588.2991"/>
</g>
<!-- Node8 -->
<g id="node8" class="node">
<title>Node8</title>
<g id="a_node8"><a xlink:href="../../de/d99/classFun4AllHepMCPileupInputManager.html#a81bf2b69c3c4d3aae0aadebafe1c2c2e" target="_top" xlink:title="Fun4AllHepMCPileupInputManager::run">
<polygon fill="none" stroke="#000000" points="409,-539.5 409,-559.5 623,-559.5 623,-539.5 409,-539.5"/>
<text text-anchor="middle" x="516" y="-546.5" font-family="FreeSans" font-size="10.00" fill="#000000">Fun4AllHepMCPileupInputManager::run</text>
</a>
</g>
</g>
<!-- Node7&#45;&gt;Node8 -->
<g id="edge8" class="edge">
<title>Node7&#45;&gt;Node8</title>
<path fill="none" stroke="#191970" d="M372.5964,-535.2217C386.5338,-536.6094 401.0479,-538.0545 415.2589,-539.4695"/>
<polygon fill="#191970" stroke="#191970" points="372.8599,-531.7307 362.5623,-534.2227 372.1663,-538.6963 372.8599,-531.7307"/>
</g>
<!-- Node9 -->
<g id="node9" class="node">
<title>Node9</title>
<g id="a_node9"><a xlink:href="../../dd/d2a/classPHHepMCGenHelper.html#ab0c755f6e53c0bf57ccd314a0017d227" target="_top" xlink:title="send HepMC::GenEvent to DST tree. This function takes ownership of evt">
<polygon fill="none" stroke="#000000" points="438,-488.5 438,-520.5 594,-520.5 594,-488.5 438,-488.5"/>
<text text-anchor="start" x="446" y="-507.5" font-family="FreeSans" font-size="10.00" fill="#000000">PHHepMCGenHelper::insert</text>
<text text-anchor="middle" x="516" y="-495.5" font-family="FreeSans" font-size="10.00" fill="#000000">_event</text>
</a>
</g>
</g>
<!-- Node7&#45;&gt;Node9 -->
<g id="edge9" class="edge">
<title>Node7&#45;&gt;Node9</title>
<path fill="none" stroke="#191970" d="M372.6357,-518.1537C394.0806,-516.1114 416.8884,-513.9392 437.8556,-511.9423"/>
<polygon fill="#191970" stroke="#191970" points="372.1854,-514.6807 362.5623,-519.1131 372.8491,-521.6492 372.1854,-514.6807"/>
</g>
<!-- Node10 -->
<g id="node10" class="node">
<title>Node10</title>
<g id="a_node10"><a xlink:href="../../d6/d6f/classFun4AllHepMCInputManager.html#ab6c80a8ee0701bfff5eee3ec3623015c" target="_top" xlink:title="Fun4AllHepMCInputManager::run">
<polygon fill="none" stroke="#000000" points="659,-590.5 659,-610.5 842,-610.5 842,-590.5 659,-590.5"/>
<text text-anchor="middle" x="750.5" y="-597.5" font-family="FreeSans" font-size="10.00" fill="#000000">Fun4AllHepMCInputManager::run</text>
</a>
</g>
</g>
<!-- Node9&#45;&gt;Node10 -->
<g id="edge10" class="edge">
<title>Node9&#45;&gt;Node10</title>
<path fill="none" stroke="#191970" d="M603.6608,-520.107C610.4769,-523.0033 617.0228,-526.4348 623,-530.5 645.9418,-546.1029 635.7991,-566.285 659,-581.5 664.4268,-585.0589 670.3917,-587.9695 676.5939,-590.3475"/>
<polygon fill="#191970" stroke="#191970" points="604.8165,-516.8016 594.2265,-516.4799 602.3044,-523.3354 604.8165,-516.8016"/>
</g>
<!-- Node11 -->
<g id="node11" class="node">
<title>Node11</title>
<g id="a_node11"><a xlink:href="../../db/d1f/classFun4AllOscarInputManager.html#a1537e89c4e652f70747fbbef18ceadc4" target="_top" xlink:title="Fun4AllOscarInputManager\l::ConvertFromOscar">
<polygon fill="none" stroke="#000000" points="673.5,-539.5 673.5,-571.5 827.5,-571.5 827.5,-539.5 673.5,-539.5"/>
<text text-anchor="start" x="681.5" y="-558.5" font-family="FreeSans" font-size="10.00" fill="#000000">Fun4AllOscarInputManager</text>
<text text-anchor="middle" x="750.5" y="-546.5" font-family="FreeSans" font-size="10.00" fill="#000000">::ConvertFromOscar</text>
</a>
</g>
</g>
<!-- Node9&#45;&gt;Node11 -->
<g id="edge11" class="edge">
<title>Node9&#45;&gt;Node11</title>
<path fill="none" stroke="#191970" d="M599.7405,-522.7122C624.8399,-528.1709 652.1759,-534.1161 676.5932,-539.4264"/>
<polygon fill="#191970" stroke="#191970" points="600.3908,-519.2719 589.8754,-520.5667 598.9031,-526.112 600.3908,-519.2719"/>
</g>
<!-- Node13 -->
<g id="node13" class="node">
<title>Node13</title>
<g id="a_node13"><a xlink:href="../../dd/da8/classPHPythia6.html#a7a70bdd1c198a83ed143d3e2c4516d0d" target="_top" xlink:title="PHPythia6::process\l_event">
<polygon fill="none" stroke="#000000" points="694,-488.5 694,-520.5 807,-520.5 807,-488.5 694,-488.5"/>
<text text-anchor="start" x="702" y="-507.5" font-family="FreeSans" font-size="10.00" fill="#000000">PHPythia6::process</text>
<text text-anchor="middle" x="750.5" y="-495.5" font-family="FreeSans" font-size="10.00" fill="#000000">_event</text>
</a>
</g>
</g>
<!-- Node9&#45;&gt;Node13 -->
<g id="edge13" class="edge">
<title>Node9&#45;&gt;Node13</title>
<path fill="none" stroke="#191970" d="M604.16,-504.5C634.2125,-504.5 666.9865,-504.5 693.8859,-504.5"/>
<polygon fill="#191970" stroke="#191970" points="604.0851,-501.0001 594.0851,-504.5 604.0851,-508.0001 604.0851,-501.0001"/>
</g>
<!-- Node14 -->
<g id="node14" class="node">
<title>Node14</title>
<g id="a_node14"><a xlink:href="../../d9/d3a/classPHPythia8.html#a5cc4124cc6be2fb2467714e3d3bc5a6a" target="_top" xlink:title="PHPythia8::process\l_event">
<polygon fill="none" stroke="#000000" points="694,-437.5 694,-469.5 807,-469.5 807,-437.5 694,-437.5"/>
<text text-anchor="start" x="702" y="-456.5" font-family="FreeSans" font-size="10.00" fill="#000000">PHPythia8::process</text>
<text text-anchor="middle" x="750.5" y="-444.5" font-family="FreeSans" font-size="10.00" fill="#000000">_event</text>
</a>
</g>
</g>
<!-- Node9&#45;&gt;Node14 -->
<g id="edge14" class="edge">
<title>Node9&#45;&gt;Node14</title>
<path fill="none" stroke="#191970" d="M599.8537,-486.2632C630.9964,-479.4901 665.5685,-471.9712 693.7306,-465.8464"/>
<polygon fill="#191970" stroke="#191970" points="598.9031,-482.888 589.8754,-488.4333 600.3908,-489.7281 598.9031,-482.888"/>
</g>
<!-- Node15 -->
<g id="node15" class="node">
<title>Node15</title>
<g id="a_node15"><a xlink:href="../../da/df0/classPHSartre.html#aafe9fd92317ab1f7eee67a9354696c4e" target="_top" xlink:title="PHSartre::process_event">
<polygon fill="none" stroke="#000000" points="680.5,-398.5 680.5,-418.5 820.5,-418.5 820.5,-398.5 680.5,-398.5"/>
<text text-anchor="middle" x="750.5" y="-405.5" font-family="FreeSans" font-size="10.00" fill="#000000">PHSartre::process_event</text>
</a>
</g>
</g>
<!-- Node9&#45;&gt;Node15 -->
<g id="edge15" class="edge">
<title>Node9&#45;&gt;Node15</title>
<path fill="none" stroke="#191970" d="M549.7738,-483.1404C578.0024,-466.1373 619.8243,-442.8824 659,-428.5 669.8377,-424.5212 681.7019,-421.211 693.1898,-418.5046"/>
<polygon fill="#191970" stroke="#191970" points="547.8248,-480.2293 541.1069,-488.422 551.4676,-486.2068 547.8248,-480.2293"/>
</g>
<!-- Node12 -->
<g id="node12" class="node">
<title>Node12</title>
<g id="a_node12"><a xlink:href="../../db/d1f/classFun4AllOscarInputManager.html#a4be602bd8c9fe73f9dcc81c8871784a6" target="_top" xlink:title="Fun4AllOscarInputManager::run">
<polygon fill="none" stroke="#000000" points="878,-545.5 878,-565.5 1054,-565.5 1054,-545.5 878,-545.5"/>
<text text-anchor="middle" x="966" y="-552.5" font-family="FreeSans" font-size="10.00" fill="#000000">Fun4AllOscarInputManager::run</text>
</a>
</g>
</g>
<!-- Node11&#45;&gt;Node12 -->
<g id="edge12" class="edge">
<title>Node11&#45;&gt;Node12</title>
<path fill="none" stroke="#191970" d="M837.7391,-555.5C851.0061,-555.5 864.7039,-555.5 877.9873,-555.5"/>
<polygon fill="#191970" stroke="#191970" points="837.6918,-552.0001 827.6918,-555.5 837.6917,-559.0001 837.6918,-552.0001"/>
</g>
</g>
</svg>
