<?xml version="1.0" encoding="UTF-8" standalone="no"?>
<!DOCTYPE svg PUBLIC "-//W3C//DTD SVG 1.1//EN"
 "http://www.w3.org/Graphics/SVG/1.1/DTD/svg11.dtd">
<!-- Generated by graphviz version 2.40.1 (20161225.0304)
 -->
<!-- Title: KFParticleBase::SetPDG Pages: 1 -->
<svg width="1383pt" height="403pt"
 viewBox="0.00 0.00 1383.00 403.01" xmlns="http://www.w3.org/2000/svg" xmlns:xlink="http://www.w3.org/1999/xlink">
<g id="graph0" class="graph" transform="scale(1 1) rotate(0) translate(4 399.0138)">
<title>KFParticleBase::SetPDG</title>
<!-- Node1 -->
<g id="node1" class="node">
<title>Node1</title>
<polygon fill="#bfbfbf" stroke="#000000" points="0,-252.5 0,-272.5 135,-272.5 135,-252.5 0,-252.5"/>
<text text-anchor="middle" x="67.5" y="-259.5" font-family="FreeSans" font-size="10.00" fill="#000000">KFParticleBase::SetPDG</text>
</g>
<!-- Node2 -->
<g id="node2" class="node">
<title>Node2</title>
<g id="a_node2"><a xlink:href="../../d2/d3d/classKFParticleFinder.html#a845f4b9e798f34dad97691ddd0df6b07" target="_top" xlink:title="KFParticleFinder::Construct\lTrackV0Cand">
<polygon fill="none" stroke="#000000" points="379.5,-333.5 379.5,-365.5 532.5,-365.5 532.5,-333.5 379.5,-333.5"/>
<text text-anchor="start" x="387.5" y="-352.5" font-family="FreeSans" font-size="10.00" fill="#000000">KFParticleFinder::Construct</text>
<text text-anchor="middle" x="456" y="-340.5" font-family="FreeSans" font-size="10.00" fill="#000000">TrackV0Cand</text>
</a>
</g>
</g>
<!-- Node1&#45;&gt;Node2 -->
<g id="edge1" class="edge">
<title>Node1&#45;&gt;Node2</title>
<path fill="none" stroke="#191970" d="M90.2838,-278.2047C110.5223,-291.307 141.4,-309.2738 171,-318.5 239.4235,-339.8272 321.0463,-346.9699 379.3696,-349.1376"/>
<polygon fill="#191970" stroke="#191970" points="92.0476,-275.1749 81.7765,-272.5759 88.185,-281.0128 92.0476,-275.1749"/>
</g>
<!-- Node4 -->
<g id="node4" class="node">
<title>Node4</title>
<g id="a_node4"><a xlink:href="../../d2/d3d/classKFParticleFinder.html#a3ad831d1b28cce4689501e369f561926" target="_top" xlink:title="KFParticleFinder::FindParticles">
<polygon fill="none" stroke="#000000" points="1012,-189.5 1012,-209.5 1179,-209.5 1179,-189.5 1012,-189.5"/>
<text text-anchor="middle" x="1095.5" y="-196.5" font-family="FreeSans" font-size="10.00" fill="#000000">KFParticleFinder::FindParticles</text>
</a>
</g>
</g>
<!-- Node1&#45;&gt;Node4 -->
<g id="edge10" class="edge">
<title>Node1&#45;&gt;Node4</title>
<path fill="none" stroke="#191970" d="M83.5626,-280.1323C102.4696,-299.6935 135.7818,-330.59 171,-346.5 288.0598,-399.3824 327.5494,-394.5 456,-394.5 456,-394.5 456,-394.5 668,-394.5 807.5478,-394.5 854.8305,-402.7208 976,-333.5 1031.4848,-301.803 1074.7367,-234.9432 1089.7678,-209.5617"/>
<polygon fill="#191970" stroke="#191970" points="86.0117,-277.628 76.6008,-272.7613 80.9228,-282.4345 86.0117,-277.628"/>
</g>
<!-- Node6 -->
<g id="node6" class="node">
<title>Node6</title>
<g id="a_node6"><a xlink:href="../../d2/d3d/classKFParticleFinder.html#a555c027cc00bc7d9461470d5c200b993" target="_top" xlink:title="KFParticleFinder::ConstructV0">
<polygon fill="none" stroke="#000000" points="585.5,-282.5 585.5,-302.5 750.5,-302.5 750.5,-282.5 585.5,-282.5"/>
<text text-anchor="middle" x="668" y="-289.5" font-family="FreeSans" font-size="10.00" fill="#000000">KFParticleFinder::ConstructV0</text>
</a>
</g>
</g>
<!-- Node1&#45;&gt;Node6 -->
<g id="edge5" class="edge">
<title>Node1&#45;&gt;Node6</title>
<path fill="none" stroke="#191970" d="M145.2245,-266.383C258.7202,-272.053 468.9058,-282.5536 585.2048,-288.3637"/>
<polygon fill="#191970" stroke="#191970" points="145.3799,-262.8865 135.2177,-265.8831 145.0306,-269.8778 145.3799,-262.8865"/>
</g>
<!-- Node9 -->
<g id="node9" class="node">
<title>Node9</title>
<g id="a_node9"><a xlink:href="../../db/dcc/classKFParticleSIMD.html#abee0e1ab2c3a9a40f6618a20fb58f664" target="_top" xlink:title="KFParticleSIMD::GetKFParticle">
<polygon fill="none" stroke="#000000" points="171,-188.5 171,-208.5 337,-208.5 337,-188.5 171,-188.5"/>
<text text-anchor="middle" x="254" y="-195.5" font-family="FreeSans" font-size="10.00" fill="#000000">KFParticleSIMD::GetKFParticle</text>
</a>
</g>
</g>
<!-- Node1&#45;&gt;Node9 -->
<g id="edge11" class="edge">
<title>Node1&#45;&gt;Node9</title>
<path fill="none" stroke="#191970" d="M106.5315,-249.1058C141.7303,-237.0269 192.7214,-219.5286 224.5868,-208.5935"/>
<polygon fill="#191970" stroke="#191970" points="105.374,-245.8026 97.0515,-252.359 107.6461,-252.4236 105.374,-245.8026"/>
</g>
<!-- Node13 -->
<g id="node13" class="node">
<title>Node13</title>
<g id="a_node13"><a xlink:href="../../d2/d3d/classKFParticleFinder.html#a76e093479fb04d0360e1cca0e6aa5d01" target="_top" xlink:title="KFParticleFinder::Neutral\lDaughterDecay">
<polygon fill="none" stroke="#000000" points="386,-.5 386,-32.5 526,-32.5 526,-.5 386,-.5"/>
<text text-anchor="start" x="394" y="-19.5" font-family="FreeSans" font-size="10.00" fill="#000000">KFParticleFinder::Neutral</text>
<text text-anchor="middle" x="456" y="-7.5" font-family="FreeSans" font-size="10.00" fill="#000000">DaughterDecay</text>
</a>
</g>
</g>
<!-- Node1&#45;&gt;Node13 -->
<g id="edge27" class="edge">
<title>Node1&#45;&gt;Node13</title>
<path fill="none" stroke="#191970" d="M83.7535,-245.2728C102.8355,-226.0831 136.308,-195.5269 171,-178.5 239.034,-145.1087 280.2614,-189.7428 337,-139.5 371.739,-108.7382 339.2281,-73.3205 373,-41.5 376.8336,-37.8879 381.1704,-34.7962 385.8011,-32.1501"/>
<polygon fill="#191970" stroke="#191970" points="81.1914,-242.887 76.7202,-252.4921 86.2054,-247.7717 81.1914,-242.887"/>
</g>
<!-- Node15 -->
<g id="node15" class="node">
<title>Node15</title>
<g id="a_node15"><a xlink:href="../../d0/d49/classKFParticle.html#afe74dfe7c87f71cc214cf11ce5dcc212" target="_top" xlink:title="KFParticle::KFParticle">
<polygon fill="none" stroke="#000000" points="193,-110.5 193,-130.5 315,-130.5 315,-110.5 193,-110.5"/>
<text text-anchor="middle" x="254" y="-117.5" font-family="FreeSans" font-size="10.00" fill="#000000">KFParticle::KFParticle</text>
</a>
</g>
</g>
<!-- Node1&#45;&gt;Node15 -->
<g id="edge26" class="edge">
<title>Node1&#45;&gt;Node15</title>
<path fill="none" stroke="#191970" d="M79.1122,-243.8382C96.1413,-217.9929 130.3188,-171.5498 171,-145.5 181.0121,-139.0889 192.749,-134.2538 204.1926,-130.6327"/>
<polygon fill="#191970" stroke="#191970" points="76.1017,-242.0489 73.634,-252.3523 81.9884,-245.8366 76.1017,-242.0489"/>
</g>
<!-- Node3 -->
<g id="node3" class="node">
<title>Node3</title>
<g id="a_node3"><a xlink:href="../../d2/d3d/classKFParticleFinder.html#a2073bafab2ee9126f3fbf0bef15f68e3" target="_top" xlink:title="KFParticleFinder::FindTrack\lV0Decay">
<polygon fill="none" stroke="#000000" points="592.5,-327.5 592.5,-359.5 743.5,-359.5 743.5,-327.5 592.5,-327.5"/>
<text text-anchor="start" x="600.5" y="-346.5" font-family="FreeSans" font-size="10.00" fill="#000000">KFParticleFinder::FindTrack</text>
<text text-anchor="middle" x="668" y="-334.5" font-family="FreeSans" font-size="10.00" fill="#000000">V0Decay</text>
</a>
</g>
</g>
<!-- Node2&#45;&gt;Node3 -->
<g id="edge2" class="edge">
<title>Node2&#45;&gt;Node3</title>
<path fill="none" stroke="#191970" d="M542.6789,-347.0468C559.1246,-346.5814 576.2126,-346.0978 592.2862,-345.6428"/>
<polygon fill="#191970" stroke="#191970" points="542.4338,-343.5523 532.5369,-347.3339 542.6319,-350.5495 542.4338,-343.5523"/>
</g>
<!-- Node3&#45;&gt;Node4 -->
<g id="edge3" class="edge">
<title>Node3&#45;&gt;Node4</title>
<path fill="none" stroke="#191970" d="M753.6545,-343.2981C817.4447,-340.2771 905.344,-329.9229 976,-298.5 1024.2485,-277.0424 1068.6652,-230.4098 1086.8351,-209.7294"/>
<polygon fill="#191970" stroke="#191970" points="753.4731,-339.8025 743.6299,-343.7221 753.7689,-346.7963 753.4731,-339.8025"/>
</g>
<!-- Node5 -->
<g id="node5" class="node">
<title>Node5</title>
<g id="a_node5"><a xlink:href="../../db/d6d/classKFParticleTopoReconstructor.html#a3013eefd4e16b74ae39c531678623d08" target="_top" xlink:title="KFParticleTopoReconstructor\l::ReconstructParticles">
<polygon fill="none" stroke="#000000" points="1215,-183.5 1215,-215.5 1375,-215.5 1375,-183.5 1215,-183.5"/>
<text text-anchor="start" x="1223" y="-202.5" font-family="FreeSans" font-size="10.00" fill="#000000">KFParticleTopoReconstructor</text>
<text text-anchor="middle" x="1295" y="-190.5" font-family="FreeSans" font-size="10.00" fill="#000000">::ReconstructParticles</text>
</a>
</g>
</g>
<!-- Node4&#45;&gt;Node5 -->
<g id="edge4" class="edge">
<title>Node4&#45;&gt;Node5</title>
<path fill="none" stroke="#191970" d="M1189.2835,-199.5C1197.8763,-199.5 1206.5283,-199.5 1214.9834,-199.5"/>
<polygon fill="#191970" stroke="#191970" points="1189.2389,-196.0001 1179.2388,-199.5 1189.2388,-203.0001 1189.2389,-196.0001"/>
</g>
<!-- Node7 -->
<g id="node7" class="node">
<title>Node7</title>
<g id="a_node7"><a xlink:href="../../d2/d3d/classKFParticleFinder.html#a3f6967ae8b6839bc7de48991eaa812ef" target="_top" xlink:title="KFParticleFinder::Find2Daughter\lDecay">
<polygon fill="none" stroke="#000000" points="797,-257.5 797,-289.5 976,-289.5 976,-257.5 797,-257.5"/>
<text text-anchor="start" x="805" y="-276.5" font-family="FreeSans" font-size="10.00" fill="#000000">KFParticleFinder::Find2Daughter</text>
<text text-anchor="middle" x="886.5" y="-264.5" font-family="FreeSans" font-size="10.00" fill="#000000">Decay</text>
</a>
</g>
</g>
<!-- Node6&#45;&gt;Node7 -->
<g id="edge6" class="edge">
<title>Node6&#45;&gt;Node7</title>
<path fill="none" stroke="#191970" d="M760.6098,-284.447C772.6121,-283.4033 784.8888,-282.3358 796.842,-281.2963"/>
<polygon fill="#191970" stroke="#191970" points="760.2647,-280.9637 750.6055,-285.3169 760.8711,-287.9374 760.2647,-280.9637"/>
</g>
<!-- Node8 -->
<g id="node8" class="node">
<title>Node8</title>
<g id="a_node8"><a xlink:href="../../d2/d3d/classKFParticleFinder.html#ae68561ffcd9f3bf3e8230604678105c5" target="_top" xlink:title="KFParticleFinder::Construct\lPrimaryBG">
<polygon fill="none" stroke="#000000" points="810,-206.5 810,-238.5 963,-238.5 963,-206.5 810,-206.5"/>
<text text-anchor="start" x="818" y="-225.5" font-family="FreeSans" font-size="10.00" fill="#000000">KFParticleFinder::Construct</text>
<text text-anchor="middle" x="886.5" y="-213.5" font-family="FreeSans" font-size="10.00" fill="#000000">PrimaryBG</text>
</a>
</g>
</g>
<!-- Node6&#45;&gt;Node8 -->
<g id="edge8" class="edge">
<title>Node6&#45;&gt;Node8</title>
<path fill="none" stroke="#191970" d="M705.2071,-278.8202C730.8652,-269.5594 765.8319,-257.2786 797,-247.5 806.6977,-244.4575 817.0426,-241.3984 827.1289,-238.5151"/>
<polygon fill="#191970" stroke="#191970" points="703.72,-275.6363 695.512,-282.3355 706.1062,-282.2171 703.72,-275.6363"/>
</g>
<!-- Node7&#45;&gt;Node4 -->
<g id="edge7" class="edge">
<title>Node7&#45;&gt;Node4</title>
<path fill="none" stroke="#191970" d="M954.7994,-254.4221C961.989,-252.1867 969.165,-249.859 976,-247.5 1010.0262,-235.7564 1048.5188,-219.7989 1072.4018,-209.5727"/>
<polygon fill="#191970" stroke="#191970" points="953.5604,-251.1408 945.0176,-257.4075 955.6038,-257.8359 953.5604,-251.1408"/>
</g>
<!-- Node8&#45;&gt;Node4 -->
<g id="edge9" class="edge">
<title>Node8&#45;&gt;Node4</title>
<path fill="none" stroke="#191970" d="M973.2715,-212.951C986.0239,-211.5476 999.1392,-210.1043 1011.8275,-208.708"/>
<polygon fill="#191970" stroke="#191970" points="972.6942,-209.4933 963.1371,-214.0662 973.46,-216.4513 972.6942,-209.4933"/>
</g>
<!-- Node9&#45;&gt;Node2 -->
<g id="edge20" class="edge">
<title>Node9&#45;&gt;Node2</title>
<path fill="none" stroke="#191970" d="M275.6269,-214.6667C314.5166,-243.7377 395.8032,-304.5014 434.558,-333.4716"/>
<polygon fill="#191970" stroke="#191970" points="277.6725,-211.826 267.5675,-208.642 273.4814,-217.4327 277.6725,-211.826"/>
</g>
<!-- Node9&#45;&gt;Node4 -->
<g id="edge12" class="edge">
<title>Node9&#45;&gt;Node4</title>
<path fill="none" stroke="#191970" d="M347.3769,-195.9225C356.0387,-195.7508 364.6825,-195.6048 373,-195.5 481.2467,-194.1358 823.4411,-194.4108 976,-196.5 987.6206,-196.6591 999.8755,-196.8922 1011.931,-197.1593"/>
<polygon fill="#191970" stroke="#191970" points="347.1435,-192.4265 337.2189,-196.1349 347.2899,-199.425 347.1435,-192.4265"/>
</g>
<!-- Node9&#45;&gt;Node6 -->
<g id="edge15" class="edge">
<title>Node9&#45;&gt;Node6</title>
<path fill="none" stroke="#191970" d="M284.1435,-212.8999C307.8097,-223.6512 341.8561,-237.9127 373,-246.5 443.332,-265.8926 525.5004,-277.866 585.2295,-284.7164"/>
<polygon fill="#191970" stroke="#191970" points="285.5342,-209.687 274.9873,-208.6799 282.6041,-216.0443 285.5342,-209.687"/>
</g>
<!-- Node10 -->
<g id="node10" class="node">
<title>Node10</title>
<g id="a_node10"><a xlink:href="../../d2/d3d/classKFParticleFinder.html#a370264d09a6bfbb50da1113abd0db15a" target="_top" xlink:title="KFParticleFinder::ExtrapolateToPV">
<polygon fill="none" stroke="#000000" points="575,-128.5 575,-148.5 761,-148.5 761,-128.5 575,-128.5"/>
<text text-anchor="middle" x="668" y="-135.5" font-family="FreeSans" font-size="10.00" fill="#000000">KFParticleFinder::ExtrapolateToPV</text>
</a>
</g>
</g>
<!-- Node9&#45;&gt;Node10 -->
<g id="edge13" class="edge">
<title>Node9&#45;&gt;Node10</title>
<path fill="none" stroke="#191970" d="M297.4467,-185.4492C310.1947,-181.6103 324.1594,-177.3956 337,-173.5 353.0097,-168.643 356.5672,-165.6409 373,-162.5 439.8738,-149.7178 516.5495,-143.7379 574.9659,-140.943"/>
<polygon fill="#191970" stroke="#191970" points="296.0956,-182.2007 287.5285,-188.4342 298.1129,-188.9037 296.0956,-182.2007"/>
</g>
<!-- Node11 -->
<g id="node11" class="node">
<title>Node11</title>
<g id="a_node11"><a xlink:href="../../d2/d3d/classKFParticleFinder.html#ad5a61416f528be9d0b397352f7619953" target="_top" xlink:title="KFParticleFinder::SaveV0\lPrimSecCand">
<polygon fill="none" stroke="#000000" points="385,-205.5 385,-237.5 527,-237.5 527,-205.5 385,-205.5"/>
<text text-anchor="start" x="393" y="-224.5" font-family="FreeSans" font-size="10.00" fill="#000000">KFParticleFinder::SaveV0</text>
<text text-anchor="middle" x="456" y="-212.5" font-family="FreeSans" font-size="10.00" fill="#000000">PrimSecCand</text>
</a>
</g>
</g>
<!-- Node9&#45;&gt;Node11 -->
<g id="edge16" class="edge">
<title>Node9&#45;&gt;Node11</title>
<path fill="none" stroke="#191970" d="M347.1557,-209.1068C359.8381,-210.5509 372.6865,-212.0138 384.8944,-213.4038"/>
<polygon fill="#191970" stroke="#191970" points="347.3674,-205.6084 337.0356,-207.9545 346.5754,-212.5635 347.3674,-205.6084"/>
</g>
<!-- Node12 -->
<g id="node12" class="node">
<title>Node12</title>
<g id="a_node12"><a xlink:href="../../d2/d3d/classKFParticleFinder.html#a4ef976ffd76ed2d50940a5d5bb766795" target="_top" xlink:title="KFParticleFinder::Combine\lPartPart">
<polygon fill="none" stroke="#000000" points="812.5,-78.5 812.5,-110.5 960.5,-110.5 960.5,-78.5 812.5,-78.5"/>
<text text-anchor="start" x="820.5" y="-97.5" font-family="FreeSans" font-size="10.00" fill="#000000">KFParticleFinder::Combine</text>
<text text-anchor="middle" x="886.5" y="-85.5" font-family="FreeSans" font-size="10.00" fill="#000000">PartPart</text>
</a>
</g>
</g>
<!-- Node9&#45;&gt;Node12 -->
<g id="edge21" class="edge">
<title>Node9&#45;&gt;Node12</title>
<path fill="none" stroke="#191970" d="M310.9775,-185.1933C319.9835,-182.0115 328.9654,-178.1506 337,-173.5 356.0473,-162.4751 352.9976,-148.6787 373,-139.5 517.5753,-73.1577 708.9426,-77.2485 812.423,-85.9477"/>
<polygon fill="#191970" stroke="#191970" points="309.6519,-181.9445 301.2391,-188.3846 311.8318,-188.5964 309.6519,-181.9445"/>
</g>
<!-- Node9&#45;&gt;Node13 -->
<g id="edge23" class="edge">
<title>Node9&#45;&gt;Node13</title>
<path fill="none" stroke="#191970" d="M323.5731,-183.7873C328.4973,-180.9374 333.0623,-177.5427 337,-173.5 379.4294,-129.9394 330.5706,-85.0606 373,-41.5 376.7802,-37.619 381.1385,-34.3352 385.8377,-31.5573"/>
<polygon fill="#191970" stroke="#191970" points="321.7807,-180.7695 314.3799,-188.3509 324.8932,-187.0395 321.7807,-180.7695"/>
</g>
<!-- Node14 -->
<g id="node14" class="node">
<title>Node14</title>
<g id="a_node14"><a xlink:href="../../db/dcc/classKFParticleSIMD.html#a52e83afab8f9b1d755ae0e1a4e9fdde7" target="_top" xlink:title="KFParticleSIMD::GetKFParticle">
<polygon fill="none" stroke="#000000" points="373,-51.5 373,-71.5 539,-71.5 539,-51.5 373,-51.5"/>
<text text-anchor="middle" x="456" y="-58.5" font-family="FreeSans" font-size="10.00" fill="#000000">KFParticleSIMD::GetKFParticle</text>
</a>
</g>
</g>
<!-- Node9&#45;&gt;Node14 -->
<g id="edge25" class="edge">
<title>Node9&#45;&gt;Node14</title>
<path fill="none" stroke="#191970" d="M320.9372,-184.3252C326.762,-181.3731 332.2401,-177.8072 337,-173.5 368.0286,-145.4226 341.9714,-114.5774 373,-86.5 380.2532,-79.9366 389.1741,-75.0945 398.448,-71.5227"/>
<polygon fill="#191970" stroke="#191970" points="319.2809,-181.2307 311.552,-188.4773 322.113,-187.6322 319.2809,-181.2307"/>
</g>
<!-- Node10&#45;&gt;Node4 -->
<g id="edge14" class="edge">
<title>Node10&#45;&gt;Node4</title>
<path fill="none" stroke="#191970" d="M771.2672,-141.4288C831.417,-144.4883 908.4777,-150.7381 976,-163.5 1008.1488,-169.5762 1043.948,-181.0094 1067.9061,-189.3659"/>
<polygon fill="#191970" stroke="#191970" points="771.1613,-137.9196 761.0029,-140.9292 770.8209,-144.9113 771.1613,-137.9196"/>
</g>
<!-- Node11&#45;&gt;Node6 -->
<g id="edge17" class="edge">
<title>Node11&#45;&gt;Node6</title>
<path fill="none" stroke="#191970" d="M509.6903,-241.2187C519.4671,-244.9042 529.5576,-248.771 539,-252.5 555.1217,-258.8668 558.5946,-261.9046 575,-267.5 591.4569,-273.113 609.8912,-278.2914 625.9802,-282.462"/>
<polygon fill="#191970" stroke="#191970" points="510.6461,-237.8391 500.0538,-237.6053 508.1883,-244.3935 510.6461,-237.8391"/>
</g>
<!-- Node11&#45;&gt;Node7 -->
<g id="edge18" class="edge">
<title>Node11&#45;&gt;Node7</title>
<path fill="none" stroke="#191970" d="M537.1716,-231.8106C549.8323,-233.396 562.7682,-235.0027 575,-236.5 649.7331,-245.6484 734.5952,-255.7065 796.8508,-263.0238"/>
<polygon fill="#191970" stroke="#191970" points="537.4536,-228.3186 527.0956,-230.5462 536.5819,-235.2641 537.4536,-228.3186"/>
</g>
<!-- Node11&#45;&gt;Node8 -->
<g id="edge19" class="edge">
<title>Node11&#45;&gt;Node8</title>
<path fill="none" stroke="#191970" d="M537.3911,-221.6891C615.6946,-221.871 733.1877,-222.1439 809.857,-222.322"/>
<polygon fill="#191970" stroke="#191970" points="537.0965,-218.1885 527.0883,-221.6651 537.0801,-225.1884 537.0965,-218.1885"/>
</g>
<!-- Node12&#45;&gt;Node4 -->
<g id="edge22" class="edge">
<title>Node12&#45;&gt;Node4</title>
<path fill="none" stroke="#191970" d="M948.8948,-114.1155C958.1179,-117.5866 967.4033,-121.4114 976,-125.5 1016.107,-144.5752 1059.586,-173.9298 1081.3711,-189.3066"/>
<polygon fill="#191970" stroke="#191970" points="949.9314,-110.7681 939.3375,-110.6301 947.533,-117.3445 949.9314,-110.7681"/>
</g>
<!-- Node13&#45;&gt;Node4 -->
<g id="edge24" class="edge">
<title>Node13&#45;&gt;Node4</title>
<path fill="none" stroke="#191970" d="M536.4345,-7.4342C642.9974,.8947 834.0355,2.8062 976,-68.5 1032.3935,-96.8254 1075.0987,-163.7898 1089.876,-189.3467"/>
<polygon fill="#191970" stroke="#191970" points="536.0706,-3.9522 526.3902,-8.258 536.6429,-10.9288 536.0706,-3.9522"/>
</g>
</g>
</svg>
