<?xml version="1.0" encoding="UTF-8" standalone="no"?>
<!DOCTYPE svg PUBLIC "-//W3C//DTD SVG 1.1//EN"
 "http://www.w3.org/Graphics/SVG/1.1/DTD/svg11.dtd">
<!-- Generated by graphviz version 2.40.1 (20161225.0304)
 -->
<!-- Title: KFParticleBase::Covariance Pages: 1 -->
<svg width="342pt" height="68pt"
 viewBox="0.00 0.00 342.00 68.00" xmlns="http://www.w3.org/2000/svg" xmlns:xlink="http://www.w3.org/1999/xlink">
<g id="graph0" class="graph" transform="scale(1 1) rotate(0) translate(4 64)">
<title>KFParticleBase::Covariance</title>
<!-- Node1 -->
<g id="node1" class="node">
<title>Node1</title>
<polygon fill="#bfbfbf" stroke="#000000" points="0,-19.5 0,-39.5 154,-39.5 154,-19.5 0,-19.5"/>
<text text-anchor="middle" x="77" y="-26.5" font-family="FreeSans" font-size="10.00" fill="#000000">KFParticleBase::Covariance</text>
</g>
<!-- Node2 -->
<g id="node2" class="node">
<title>Node2</title>
<g id="a_node2"><a xlink:href="../../d0/d49/classKFParticle.html#a4b7417e0f8a90b4e429299aa2f05155a" target="_top" xlink:title="Modifier of C[i] element of the covariance matrix in the lower triangular form.">
<polygon fill="none" stroke="#000000" points="197.5,-39.5 197.5,-59.5 326.5,-59.5 326.5,-39.5 197.5,-39.5"/>
<text text-anchor="middle" x="262" y="-46.5" font-family="FreeSans" font-size="10.00" fill="#000000">KFParticle::Covariance</text>
</a>
</g>
</g>
<!-- Node1&#45;&gt;Node2 -->
<g id="edge1" class="edge">
<title>Node1&#45;&gt;Node2</title>
<path fill="none" stroke="#191970" d="M164.2906,-38.9368C175.4196,-40.14 186.6494,-41.354 197.333,-42.509"/>
<polygon fill="#191970" stroke="#191970" points="164.4353,-35.4322 154.117,-37.837 163.6829,-42.3916 164.4353,-35.4322"/>
</g>
<!-- Node3 -->
<g id="node3" class="node">
<title>Node3</title>
<g id="a_node3"><a xlink:href="../../d5/d41/classKFParticleBase.html#a362d91fc831d5c513e973fa8f1b50a6b" target="_top" xlink:title="KFParticleBase::RotateXY">
<polygon fill="none" stroke="#000000" points="190,-.5 190,-20.5 334,-20.5 334,-.5 190,-.5"/>
<text text-anchor="middle" x="262" y="-7.5" font-family="FreeSans" font-size="10.00" fill="#000000">KFParticleBase::RotateXY</text>
</a>
</g>
</g>
<!-- Node1&#45;&gt;Node3 -->
<g id="edge2" class="edge">
<title>Node1&#45;&gt;Node3</title>
<path fill="none" stroke="#191970" d="M164.1355,-20.5509C172.709,-19.6704 181.3442,-18.7836 189.7451,-17.9208"/>
<polygon fill="#191970" stroke="#191970" points="163.7071,-17.0764 154.117,-21.5799 164.4223,-24.0398 163.7071,-17.0764"/>
</g>
</g>
</svg>
