<?xml version="1.0" encoding="UTF-8" standalone="no"?>
<!DOCTYPE svg PUBLIC "-//W3C//DTD SVG 1.1//EN"
 "http://www.w3.org/Graphics/SVG/1.1/DTD/svg11.dtd">
<!-- Generated by graphviz version 2.40.1 (20161225.0304)
 -->
<!-- Title: KFParticleBase::operator+= Pages: 1 -->
<svg width="496pt" height="29pt"
 viewBox="0.00 0.00 496.00 29.00" xmlns="http://www.w3.org/2000/svg" xmlns:xlink="http://www.w3.org/1999/xlink">
<g id="graph0" class="graph" transform="scale(1 1) rotate(0) translate(4 25)">
<title>KFParticleBase::operator+=</title>
<!-- Node1 -->
<g id="node1" class="node">
<title>Node1</title>
<polygon fill="#bfbfbf" stroke="#000000" points="0,-.5 0,-20.5 157,-20.5 157,-.5 0,-.5"/>
<text text-anchor="middle" x="78.5" y="-7.5" font-family="FreeSans" font-size="10.00" fill="#000000">KFParticleBase::operator+=</text>
</g>
<!-- Node2 -->
<g id="node2" class="node">
<title>Node2</title>
<g id="a_node2"><a xlink:href="../../d0/d49/classKFParticle.html#adc75a098f1e5e4fe4e322715a8227be8" target="_top" xlink:title="KFParticle::operator+=">
<polygon fill="none" stroke="#000000" points="193,-.5 193,-20.5 325,-20.5 325,-.5 193,-.5"/>
<text text-anchor="middle" x="259" y="-7.5" font-family="FreeSans" font-size="10.00" fill="#000000">KFParticle::operator+=</text>
</a>
</g>
</g>
<!-- Node1&#45;&gt;Node2 -->
<g id="edge1" class="edge">
<title>Node1&#45;&gt;Node2</title>
<path fill="none" stroke="#191970" d="M167.2106,-10.5C175.8083,-10.5 184.4247,-10.5 192.7474,-10.5"/>
<polygon fill="#191970" stroke="#191970" points="167.1449,-7.0001 157.1449,-10.5 167.1448,-14.0001 167.1449,-7.0001"/>
</g>
<!-- Node3 -->
<g id="node3" class="node">
<title>Node3</title>
<g id="a_node3"><a xlink:href="../../d8/d00/classKFVertex.html#a33c09d3c2321086ff9564199425d0918" target="_top" xlink:title="Adds particle to a vertex.">
<polygon fill="none" stroke="#000000" points="361,-.5 361,-20.5 488,-20.5 488,-.5 361,-.5"/>
<text text-anchor="middle" x="424.5" y="-7.5" font-family="FreeSans" font-size="10.00" fill="#000000">KFVertex::operator+=</text>
</a>
</g>
</g>
<!-- Node2&#45;&gt;Node3 -->
<g id="edge2" class="edge">
<title>Node2&#45;&gt;Node3</title>
<path fill="none" stroke="#191970" d="M335.5898,-10.5C344.0295,-10.5 352.5552,-10.5 360.813,-10.5"/>
<polygon fill="#191970" stroke="#191970" points="335.3616,-7.0001 325.3616,-10.5 335.3615,-14.0001 335.3616,-7.0001"/>
</g>
</g>
</svg>
