<?xml version="1.0" encoding="UTF-8" standalone="no"?>
<!DOCTYPE svg PUBLIC "-//W3C//DTD SVG 1.1//EN"
 "http://www.w3.org/Graphics/SVG/1.1/DTD/svg11.dtd">
<!-- Generated by graphviz version 2.40.1 (20161225.0304)
 -->
<!-- Title: KFParticleBase::GetDeviationFromParticle Pages: 1 -->
<svg width="383pt" height="107pt"
 viewBox="0.00 0.00 383.00 107.00" xmlns="http://www.w3.org/2000/svg" xmlns:xlink="http://www.w3.org/1999/xlink">
<g id="graph0" class="graph" transform="scale(1 1) rotate(0) translate(4 103)">
<title>KFParticleBase::GetDeviationFromParticle</title>
<!-- Node1 -->
<g id="node1" class="node">
<title>Node1</title>
<polygon fill="#bfbfbf" stroke="#000000" points="0,-33.5 0,-65.5 163,-65.5 163,-33.5 0,-33.5"/>
<text text-anchor="start" x="8" y="-52.5" font-family="FreeSans" font-size="10.00" fill="#000000">KFParticleBase::GetDeviation</text>
<text text-anchor="middle" x="81.5" y="-40.5" font-family="FreeSans" font-size="10.00" fill="#000000">FromParticle</text>
</g>
<!-- Node2 -->
<g id="node2" class="node">
<title>Node2</title>
<g id="a_node2"><a xlink:href="../../d5/d41/classKFParticleBase.html#ada459a0ed2508dbc79ff582a3a32c574" target="_top" xlink:title="KFParticleBase::GetDStoParticle">
<polygon fill="none" stroke="#000000" points="199,-78.5 199,-98.5 375,-98.5 375,-78.5 199,-78.5"/>
<text text-anchor="middle" x="287" y="-85.5" font-family="FreeSans" font-size="10.00" fill="#000000">KFParticleBase::GetDStoParticle</text>
</a>
</g>
</g>
<!-- Node1&#45;&gt;Node2 -->
<g id="edge1" class="edge">
<title>Node1&#45;&gt;Node2</title>
<path fill="none" stroke="#191970" d="M163.0142,-64.9698C183.4352,-68.8454 205.0265,-72.943 224.3679,-76.6136"/>
<polygon fill="#191970" stroke="#191970" points="223.7818,-80.0648 234.259,-78.4908 225.087,-73.1875 223.7818,-80.0648"/>
</g>
<!-- Node3 -->
<g id="node3" class="node">
<title>Node3</title>
<g id="a_node3"><a xlink:href="../../d5/d41/classKFParticleBase.html#a724258bdfad283642d00e119a74f6335" target="_top" xlink:title="KFParticleBase::MultQSQt">
<polygon fill="none" stroke="#000000" points="214,-39.5 214,-59.5 360,-59.5 360,-39.5 214,-39.5"/>
<text text-anchor="middle" x="287" y="-46.5" font-family="FreeSans" font-size="10.00" fill="#000000">KFParticleBase::MultQSQt</text>
</a>
</g>
</g>
<!-- Node1&#45;&gt;Node3 -->
<g id="edge2" class="edge">
<title>Node1&#45;&gt;Node3</title>
<path fill="none" stroke="#191970" d="M163.0142,-49.5C176.4088,-49.5 190.3068,-49.5 203.7432,-49.5"/>
<polygon fill="#191970" stroke="#191970" points="203.9121,-53.0001 213.9121,-49.5 203.912,-46.0001 203.9121,-53.0001"/>
</g>
<!-- Node4 -->
<g id="node4" class="node">
<title>Node4</title>
<g id="a_node4"><a xlink:href="../../d5/d41/classKFParticleBase.html#a4c022cf8371927f3bfdca7f7901db99a" target="_top" xlink:title="KFParticleBase::Transport">
<polygon fill="none" stroke="#000000" points="214.5,-.5 214.5,-20.5 359.5,-20.5 359.5,-.5 214.5,-.5"/>
<text text-anchor="middle" x="287" y="-7.5" font-family="FreeSans" font-size="10.00" fill="#000000">KFParticleBase::Transport</text>
</a>
</g>
</g>
<!-- Node1&#45;&gt;Node4 -->
<g id="edge3" class="edge">
<title>Node1&#45;&gt;Node4</title>
<path fill="none" stroke="#191970" d="M163.0142,-34.0302C183.4352,-30.1546 205.0265,-26.057 224.3679,-22.3864"/>
<polygon fill="#191970" stroke="#191970" points="225.087,-25.8125 234.259,-20.5092 223.7818,-18.9352 225.087,-25.8125"/>
</g>
</g>
</svg>
