<?xml version="1.0" encoding="UTF-8" standalone="no"?>
<!DOCTYPE svg PUBLIC "-//W3C//DTD SVG 1.1//EN"
 "http://www.w3.org/Graphics/SVG/1.1/DTD/svg11.dtd">
<!-- Generated by graphviz version 2.40.1 (20161225.0304)
 -->
<!-- Title: KFParticleBase::GetDStoParticleBy Pages: 1 -->
<svg width="657pt" height="29pt"
 viewBox="0.00 0.00 657.00 29.00" xmlns="http://www.w3.org/2000/svg" xmlns:xlink="http://www.w3.org/1999/xlink">
<g id="graph0" class="graph" transform="scale(1 1) rotate(0) translate(4 25)">
<title>KFParticleBase::GetDStoParticleBy</title>
<!-- Node1 -->
<g id="node1" class="node">
<title>Node1</title>
<polygon fill="#bfbfbf" stroke="#000000" points="0,-.5 0,-20.5 190,-20.5 190,-.5 0,-.5"/>
<text text-anchor="middle" x="95" y="-7.5" font-family="FreeSans" font-size="10.00" fill="#000000">KFParticleBase::GetDStoParticleBy</text>
</g>
<!-- Node2 -->
<g id="node2" class="node">
<title>Node2</title>
<g id="a_node2"><a xlink:href="../../d5/d41/classKFParticleBase.html#a343a7ca2599d39eb390e3ecdfda79fe9" target="_top" xlink:title="KFParticleBase::GetDStoParticleBz">
<polygon fill="none" stroke="#000000" points="226,-.5 226,-20.5 415,-20.5 415,-.5 226,-.5"/>
<text text-anchor="middle" x="320.5" y="-7.5" font-family="FreeSans" font-size="10.00" fill="#000000">KFParticleBase::GetDStoParticleBz</text>
</a>
</g>
</g>
<!-- Node1&#45;&gt;Node2 -->
<g id="edge1" class="edge">
<title>Node1&#45;&gt;Node2</title>
<path fill="none" stroke="#191970" d="M190.3055,-10.5C198.6802,-10.5 207.1866,-10.5 215.6337,-10.5"/>
<polygon fill="#191970" stroke="#191970" points="215.8951,-14.0001 225.895,-10.5 215.895,-7.0001 215.8951,-14.0001"/>
</g>
<!-- Node3 -->
<g id="node3" class="node">
<title>Node3</title>
<g id="a_node3"><a xlink:href="../../d5/d41/classKFParticleBase.html#a7d14ee08adf1bf707aa3e682f1d7b8d7" target="_top" xlink:title="KFParticleBase::GetDStoParticleLine">
<polygon fill="none" stroke="#000000" points="451,-.5 451,-20.5 649,-20.5 649,-.5 451,-.5"/>
<text text-anchor="middle" x="550" y="-7.5" font-family="FreeSans" font-size="10.00" fill="#000000">KFParticleBase::GetDStoParticleLine</text>
</a>
</g>
</g>
<!-- Node2&#45;&gt;Node3 -->
<g id="edge2" class="edge">
<title>Node2&#45;&gt;Node3</title>
<path fill="none" stroke="#191970" d="M415.1714,-10.5C423.5107,-10.5 431.996,-10.5 440.4437,-10.5"/>
<polygon fill="#191970" stroke="#191970" points="440.7171,-14.0001 450.717,-10.5 440.717,-7.0001 440.7171,-14.0001"/>
</g>
</g>
</svg>
