<?xml version="1.0" encoding="UTF-8" standalone="no"?>
<!DOCTYPE svg PUBLIC "-//W3C//DTD SVG 1.1//EN"
 "http://www.w3.org/Graphics/SVG/1.1/DTD/svg11.dtd">
<!-- Generated by graphviz version 2.40.1 (20161225.0304)
 -->
<!-- Title: KFParticleBase::GetY Pages: 1 -->
<svg width="310pt" height="68pt"
 viewBox="0.00 0.00 310.00 68.00" xmlns="http://www.w3.org/2000/svg" xmlns:xlink="http://www.w3.org/1999/xlink">
<g id="graph0" class="graph" transform="scale(1 1) rotate(0) translate(4 64)">
<title>KFParticleBase::GetY</title>
<!-- Node1 -->
<g id="node1" class="node">
<title>Node1</title>
<polygon fill="#bfbfbf" stroke="#000000" points="0,-19.5 0,-39.5 122,-39.5 122,-19.5 0,-19.5"/>
<text text-anchor="middle" x="61" y="-26.5" font-family="FreeSans" font-size="10.00" fill="#000000">KFParticleBase::GetY</text>
</g>
<!-- Node2 -->
<g id="node2" class="node">
<title>Node2</title>
<g id="a_node2"><a xlink:href="../../d0/d49/classKFParticle.html#aec1be736b97b7263eaeeb134b61b9bc7" target="_top" xlink:title="Retruns Y coordinate of the particle, fP[1].">
<polygon fill="none" stroke="#000000" points="181.5,-39.5 181.5,-59.5 278.5,-59.5 278.5,-39.5 181.5,-39.5"/>
<text text-anchor="middle" x="230" y="-46.5" font-family="FreeSans" font-size="10.00" fill="#000000">KFParticle::GetY</text>
</a>
</g>
</g>
<!-- Node1&#45;&gt;Node2 -->
<g id="edge1" class="edge">
<title>Node1&#45;&gt;Node2</title>
<path fill="none" stroke="#191970" d="M132.1924,-37.9251C148.7236,-39.8815 165.9518,-41.9203 181.2599,-43.7319"/>
<polygon fill="#191970" stroke="#191970" points="132.3549,-34.42 122.0129,-36.7205 131.5322,-41.3715 132.3549,-34.42"/>
</g>
<!-- Node3 -->
<g id="node3" class="node">
<title>Node3</title>
<g id="a_node3"><a xlink:href="../../d5/d41/classKFParticleBase.html#a362d91fc831d5c513e973fa8f1b50a6b" target="_top" xlink:title="KFParticleBase::RotateXY">
<polygon fill="none" stroke="#000000" points="158,-.5 158,-20.5 302,-20.5 302,-.5 158,-.5"/>
<text text-anchor="middle" x="230" y="-7.5" font-family="FreeSans" font-size="10.00" fill="#000000">KFParticleBase::RotateXY</text>
</a>
</g>
</g>
<!-- Node1&#45;&gt;Node3 -->
<g id="edge2" class="edge">
<title>Node1&#45;&gt;Node3</title>
<path fill="none" stroke="#191970" d="M131.9562,-21.5227C140.5197,-20.5599 149.2736,-19.5757 157.8539,-18.6111"/>
<polygon fill="#191970" stroke="#191970" points="131.5592,-18.0452 122.0129,-22.6406 132.3413,-25.0013 131.5592,-18.0452"/>
</g>
</g>
</svg>
