<?xml version="1.0" encoding="UTF-8" standalone="no"?>
<!DOCTYPE svg PUBLIC "-//W3C//DTD SVG 1.1//EN"
 "http://www.w3.org/Graphics/SVG/1.1/DTD/svg11.dtd">
<!-- Generated by graphviz version 2.40.1 (20161225.0304)
 -->
<!-- Title: KFParticleBase::TransportCBM Pages: 1 -->
<svg width="559pt" height="119pt"
 viewBox="0.00 0.00 559.00 119.00" xmlns="http://www.w3.org/2000/svg" xmlns:xlink="http://www.w3.org/1999/xlink">
<g id="graph0" class="graph" transform="scale(1 1) rotate(0) translate(4 115)">
<title>KFParticleBase::TransportCBM</title>
<!-- Node1 -->
<g id="node1" class="node">
<title>Node1</title>
<polygon fill="#bfbfbf" stroke="#000000" points="0,-39.5 0,-59.5 167,-59.5 167,-39.5 0,-39.5"/>
<text text-anchor="middle" x="83.5" y="-46.5" font-family="FreeSans" font-size="10.00" fill="#000000">KFParticleBase::TransportCBM</text>
</g>
<!-- Node2 -->
<g id="node2" class="node">
<title>Node2</title>
<g id="a_node2"><a xlink:href="../../d5/d41/classKFParticleBase.html#a54fa32dca24a267d19ac11875a650f96" target="_top" xlink:title="KFParticleBase::GetField\lValue">
<polygon fill="none" stroke="#000000" points="217,-78.5 217,-110.5 355,-110.5 355,-78.5 217,-78.5"/>
<text text-anchor="start" x="225" y="-97.5" font-family="FreeSans" font-size="10.00" fill="#000000">KFParticleBase::GetField</text>
<text text-anchor="middle" x="286" y="-85.5" font-family="FreeSans" font-size="10.00" fill="#000000">Value</text>
</a>
</g>
</g>
<!-- Node1&#45;&gt;Node2 -->
<g id="edge1" class="edge">
<title>Node1&#45;&gt;Node2</title>
<path fill="none" stroke="#191970" d="M128.6929,-59.5429C151.6389,-64.642 180.194,-70.9875 206.653,-76.8673"/>
<polygon fill="#191970" stroke="#191970" points="206.1539,-80.3417 216.675,-79.0945 207.6725,-73.5084 206.1539,-80.3417"/>
</g>
<!-- Node3 -->
<g id="node3" class="node">
<title>Node3</title>
<g id="a_node3"><a xlink:href="../../d5/d41/classKFParticleBase.html#a724258bdfad283642d00e119a74f6335" target="_top" xlink:title="KFParticleBase::MultQSQt">
<polygon fill="none" stroke="#000000" points="405,-19.5 405,-39.5 551,-39.5 551,-19.5 405,-19.5"/>
<text text-anchor="middle" x="478" y="-26.5" font-family="FreeSans" font-size="10.00" fill="#000000">KFParticleBase::MultQSQt</text>
</a>
</g>
</g>
<!-- Node1&#45;&gt;Node3 -->
<g id="edge2" class="edge">
<title>Node1&#45;&gt;Node3</title>
<path fill="none" stroke="#191970" d="M167.1633,-45.2585C234.1769,-41.8611 327.7243,-37.1185 394.6539,-33.7254"/>
<polygon fill="#191970" stroke="#191970" points="394.9338,-37.2158 404.7437,-33.2139 394.5793,-30.2248 394.9338,-37.2158"/>
</g>
<!-- Node4 -->
<g id="node4" class="node">
<title>Node4</title>
<g id="a_node4"><a xlink:href="../../d5/d41/classKFParticleBase.html#a55db0b465b2ca16ebf9bba66533810a2" target="_top" xlink:title="KFParticleBase::TransportLine">
<polygon fill="none" stroke="#000000" points="203,-.5 203,-20.5 369,-20.5 369,-.5 203,-.5"/>
<text text-anchor="middle" x="286" y="-7.5" font-family="FreeSans" font-size="10.00" fill="#000000">KFParticleBase::TransportLine</text>
</a>
</g>
</g>
<!-- Node1&#45;&gt;Node4 -->
<g id="edge3" class="edge">
<title>Node1&#45;&gt;Node4</title>
<path fill="none" stroke="#191970" d="M135.6488,-39.4565C162.576,-34.2706 195.6166,-27.9072 223.8598,-22.4677"/>
<polygon fill="#191970" stroke="#191970" points="224.8703,-25.8375 234.0279,-20.5094 223.5465,-18.9638 224.8703,-25.8375"/>
</g>
<!-- Node4&#45;&gt;Node3 -->
<g id="edge4" class="edge">
<title>Node4&#45;&gt;Node3</title>
<path fill="none" stroke="#191970" d="M369.0973,-18.7232C377.5274,-19.5574 386.0927,-20.405 394.5268,-21.2396"/>
<polygon fill="#191970" stroke="#191970" points="394.4354,-24.7476 404.7315,-22.2495 395.1248,-17.7816 394.4354,-24.7476"/>
</g>
</g>
</svg>
