<?xml version="1.0" encoding="UTF-8" standalone="no"?>
<!DOCTYPE svg PUBLIC "-//W3C//DTD SVG 1.1//EN"
 "http://www.w3.org/Graphics/SVG/1.1/DTD/svg11.dtd">
<!-- Generated by graphviz version 2.40.1 (20161225.0304)
 -->
<!-- Title: KFParticleBase::TransportToProductionVertex Pages: 1 -->
<svg width="540pt" height="41pt"
 viewBox="0.00 0.00 540.00 41.00" xmlns="http://www.w3.org/2000/svg" xmlns:xlink="http://www.w3.org/1999/xlink">
<g id="graph0" class="graph" transform="scale(1 1) rotate(0) translate(4 37)">
<title>KFParticleBase::TransportToProductionVertex</title>
<!-- Node1 -->
<g id="node1" class="node">
<title>Node1</title>
<polygon fill="#bfbfbf" stroke="#000000" points="0,-.5 0,-32.5 145,-32.5 145,-.5 0,-.5"/>
<text text-anchor="start" x="8" y="-19.5" font-family="FreeSans" font-size="10.00" fill="#000000">KFParticleBase::Transport</text>
<text text-anchor="middle" x="72.5" y="-7.5" font-family="FreeSans" font-size="10.00" fill="#000000">ToProductionVertex</text>
</g>
<!-- Node2 -->
<g id="node2" class="node">
<title>Node2</title>
<g id="a_node2"><a xlink:href="../../d5/d41/classKFParticleBase.html#a0048b51a7253c7ac3af2c3c539f57cc7" target="_top" xlink:title="KFParticleBase::TransportToDS">
<polygon fill="none" stroke="#000000" points="181,-6.5 181,-26.5 351,-26.5 351,-6.5 181,-6.5"/>
<text text-anchor="middle" x="266" y="-13.5" font-family="FreeSans" font-size="10.00" fill="#000000">KFParticleBase::TransportToDS</text>
</a>
</g>
</g>
<!-- Node1&#45;&gt;Node2 -->
<g id="edge1" class="edge">
<title>Node1&#45;&gt;Node2</title>
<path fill="none" stroke="#191970" d="M145.1028,-16.5C153.5043,-16.5 162.1653,-16.5 170.8098,-16.5"/>
<polygon fill="#191970" stroke="#191970" points="170.9334,-20.0001 180.9334,-16.5 170.9334,-13.0001 170.9334,-20.0001"/>
</g>
<!-- Node3 -->
<g id="node3" class="node">
<title>Node3</title>
<g id="a_node3"><a xlink:href="../../d5/d41/classKFParticleBase.html#a4c022cf8371927f3bfdca7f7901db99a" target="_top" xlink:title="KFParticleBase::Transport">
<polygon fill="none" stroke="#000000" points="387,-6.5 387,-26.5 532,-26.5 532,-6.5 387,-6.5"/>
<text text-anchor="middle" x="459.5" y="-13.5" font-family="FreeSans" font-size="10.00" fill="#000000">KFParticleBase::Transport</text>
</a>
</g>
</g>
<!-- Node2&#45;&gt;Node3 -->
<g id="edge2" class="edge">
<title>Node2&#45;&gt;Node3</title>
<path fill="none" stroke="#191970" d="M351.1535,-16.5C359.5874,-16.5 368.1406,-16.5 376.5517,-16.5"/>
<polygon fill="#191970" stroke="#191970" points="376.7234,-20.0001 386.7234,-16.5 376.7234,-13.0001 376.7234,-20.0001"/>
</g>
</g>
</svg>
