<?xml version="1.0" encoding="UTF-8" standalone="no"?>
<!DOCTYPE svg PUBLIC "-//W3C//DTD SVG 1.1//EN"
 "http://www.w3.org/Graphics/SVG/1.1/DTD/svg11.dtd">
<!-- Generated by graphviz version 2.40.1 (20161225.0304)
 -->
<!-- Title: KFParticleBase::AddDaughterWithEnergyFit Pages: 1 -->
<svg width="606pt" height="253pt"
 viewBox="0.00 0.00 606.00 253.00" xmlns="http://www.w3.org/2000/svg" xmlns:xlink="http://www.w3.org/1999/xlink">
<g id="graph0" class="graph" transform="scale(1 1) rotate(0) translate(4 249)">
<title>KFParticleBase::AddDaughterWithEnergyFit</title>
<!-- Node1 -->
<g id="node1" class="node">
<title>Node1</title>
<polygon fill="#bfbfbf" stroke="#000000" points="0,-52.5 0,-84.5 165,-84.5 165,-52.5 0,-52.5"/>
<text text-anchor="start" x="8" y="-71.5" font-family="FreeSans" font-size="10.00" fill="#000000">KFParticleBase::AddDaughter</text>
<text text-anchor="middle" x="82.5" y="-59.5" font-family="FreeSans" font-size="10.00" fill="#000000">WithEnergyFit</text>
</g>
<!-- Node2 -->
<g id="node2" class="node">
<title>Node2</title>
<g id="a_node2"><a xlink:href="../../d5/d41/classKFParticleBase.html#a4589ae9c9872e56468d6c5dc17adcfff" target="_top" xlink:title="KFParticleBase::GetMeasurement">
<polygon fill="none" stroke="#000000" points="201,-136.5 201,-156.5 386,-156.5 386,-136.5 201,-136.5"/>
<text text-anchor="middle" x="293.5" y="-143.5" font-family="FreeSans" font-size="10.00" fill="#000000">KFParticleBase::GetMeasurement</text>
</a>
</g>
</g>
<!-- Node1&#45;&gt;Node2 -->
<g id="edge1" class="edge">
<title>Node1&#45;&gt;Node2</title>
<path fill="none" stroke="#191970" d="M125.9635,-84.5671C164.4485,-98.7937 220.0151,-119.335 256.4375,-132.7992"/>
<polygon fill="#191970" stroke="#191970" points="255.5794,-136.2134 266.1727,-136.3979 258.0066,-129.6477 255.5794,-136.2134"/>
</g>
<!-- Node6 -->
<g id="node6" class="node">
<title>Node6</title>
<g id="a_node6"><a xlink:href="../../d5/d41/classKFParticleBase.html#ad059627ac0eb3810051cea5fbfdedc77" target="_top" xlink:title="KFParticleBase::IJ">
<polygon fill="none" stroke="#000000" points="458.5,-68.5 458.5,-88.5 561.5,-88.5 561.5,-68.5 458.5,-68.5"/>
<text text-anchor="middle" x="510" y="-75.5" font-family="FreeSans" font-size="10.00" fill="#000000">KFParticleBase::IJ</text>
</a>
</g>
</g>
<!-- Node1&#45;&gt;Node6 -->
<g id="edge8" class="edge">
<title>Node1&#45;&gt;Node6</title>
<path fill="none" stroke="#191970" d="M165.1796,-70.434C248.0544,-72.3726 373.7445,-75.3127 448.2885,-77.0565"/>
<polygon fill="#191970" stroke="#191970" points="448.3787,-80.5594 458.4578,-77.2943 448.5424,-73.5613 448.3787,-80.5594"/>
</g>
<!-- Node8 -->
<g id="node8" class="node">
<title>Node8</title>
<g id="a_node8"><a xlink:href="../../d5/d41/classKFParticleBase.html#a97b4d2ef119c13e0117b0367473cb153" target="_top" xlink:title="Returns charge of the particle.">
<polygon fill="none" stroke="#000000" points="232,-39.5 232,-59.5 355,-59.5 355,-39.5 232,-39.5"/>
<text text-anchor="middle" x="293.5" y="-46.5" font-family="FreeSans" font-size="10.00" fill="#000000">KFParticleBase::GetQ</text>
</a>
</g>
</g>
<!-- Node1&#45;&gt;Node8 -->
<g id="edge7" class="edge">
<title>Node1&#45;&gt;Node8</title>
<path fill="none" stroke="#191970" d="M165.2872,-61.0452C183.9043,-59.3688 203.512,-57.6032 221.6397,-55.9708"/>
<polygon fill="#191970" stroke="#191970" points="222.1861,-59.4359 231.8319,-55.0531 221.5582,-52.4641 222.1861,-59.4359"/>
</g>
<!-- Node9 -->
<g id="node9" class="node">
<title>Node9</title>
<g id="a_node9"><a xlink:href="../../d5/d41/classKFParticleBase.html#aa0ed9e611a76fd44e0eaac9d6f504929" target="_top" xlink:title="KFParticleBase::InvertCholetsky3">
<polygon fill="none" stroke="#000000" points="202.5,-.5 202.5,-20.5 384.5,-20.5 384.5,-.5 202.5,-.5"/>
<text text-anchor="middle" x="293.5" y="-7.5" font-family="FreeSans" font-size="10.00" fill="#000000">KFParticleBase::InvertCholetsky3</text>
</a>
</g>
</g>
<!-- Node1&#45;&gt;Node9 -->
<g id="edge9" class="edge">
<title>Node1&#45;&gt;Node9</title>
<path fill="none" stroke="#191970" d="M127.1499,-52.4529C149.1974,-44.8767 176.3037,-36.0768 201,-29.5 210.1711,-27.0577 219.9246,-24.7483 229.5281,-22.6367"/>
<polygon fill="#191970" stroke="#191970" points="230.4062,-26.0281 239.4509,-20.5105 228.9395,-19.1834 230.4062,-26.0281"/>
</g>
<!-- Node3 -->
<g id="node3" class="node">
<title>Node3</title>
<g id="a_node3"><a xlink:href="../../d5/d41/classKFParticleBase.html#ada459a0ed2508dbc79ff582a3a32c574" target="_top" xlink:title="KFParticleBase::GetDStoParticle">
<polygon fill="none" stroke="#000000" points="422,-224.5 422,-244.5 598,-244.5 598,-224.5 422,-224.5"/>
<text text-anchor="middle" x="510" y="-231.5" font-family="FreeSans" font-size="10.00" fill="#000000">KFParticleBase::GetDStoParticle</text>
</a>
</g>
</g>
<!-- Node2&#45;&gt;Node3 -->
<g id="edge2" class="edge">
<title>Node2&#45;&gt;Node3</title>
<path fill="none" stroke="#191970" d="M309.0503,-156.7201C332.562,-171.7305 378.989,-199.6674 422,-215.5 428.4056,-217.8579 435.1867,-219.9643 442.0288,-221.8364"/>
<polygon fill="#191970" stroke="#191970" points="441.5037,-225.3151 452.0601,-224.4134 443.2455,-218.5352 441.5037,-225.3151"/>
</g>
<!-- Node4 -->
<g id="node4" class="node">
<title>Node4</title>
<g id="a_node4"><a xlink:href="../../d5/d41/classKFParticleBase.html#a4c022cf8371927f3bfdca7f7901db99a" target="_top" xlink:title="KFParticleBase::Transport">
<polygon fill="none" stroke="#000000" points="437.5,-185.5 437.5,-205.5 582.5,-205.5 582.5,-185.5 437.5,-185.5"/>
<text text-anchor="middle" x="510" y="-192.5" font-family="FreeSans" font-size="10.00" fill="#000000">KFParticleBase::Transport</text>
</a>
</g>
</g>
<!-- Node2&#45;&gt;Node4 -->
<g id="edge3" class="edge">
<title>Node2&#45;&gt;Node4</title>
<path fill="none" stroke="#191970" d="M335.7083,-156.5413C360.7626,-162.4549 393.1662,-170.0219 422,-176.5 432.0541,-178.7588 442.7662,-181.1144 453.1306,-183.367"/>
<polygon fill="#191970" stroke="#191970" points="452.414,-186.7929 462.9282,-185.4887 453.8955,-179.9515 452.414,-186.7929"/>
</g>
<!-- Node5 -->
<g id="node5" class="node">
<title>Node5</title>
<g id="a_node5"><a xlink:href="../../d5/d41/classKFParticleBase.html#a724258bdfad283642d00e119a74f6335" target="_top" xlink:title="KFParticleBase::MultQSQt">
<polygon fill="none" stroke="#000000" points="437,-146.5 437,-166.5 583,-166.5 583,-146.5 437,-146.5"/>
<text text-anchor="middle" x="510" y="-153.5" font-family="FreeSans" font-size="10.00" fill="#000000">KFParticleBase::MultQSQt</text>
</a>
</g>
</g>
<!-- Node2&#45;&gt;Node5 -->
<g id="edge4" class="edge">
<title>Node2&#45;&gt;Node5</title>
<path fill="none" stroke="#191970" d="M386.2576,-150.7844C399.7018,-151.4054 413.4714,-152.0414 426.7139,-152.6531"/>
<polygon fill="#191970" stroke="#191970" points="426.5727,-156.1502 436.7236,-153.1154 426.8958,-149.1576 426.5727,-156.1502"/>
</g>
<!-- Node2&#45;&gt;Node6 -->
<g id="edge5" class="edge">
<title>Node2&#45;&gt;Node6</title>
<path fill="none" stroke="#191970" d="M316.8149,-136.3795C342.2827,-125.6162 384.4614,-108.6396 422,-97.5 430.4917,-94.9801 439.5363,-92.6447 448.4729,-90.5357"/>
<polygon fill="#191970" stroke="#191970" points="449.5101,-93.8891 458.4814,-88.253 447.9534,-87.0644 449.5101,-93.8891"/>
</g>
<!-- Node7 -->
<g id="node7" class="node">
<title>Node7</title>
<g id="a_node7"><a xlink:href="../../d5/d41/classKFParticleBase.html#ae4235191e7d6baaa1054507e3cb92dc9" target="_top" xlink:title="KFParticleBase::GetDStoPoint">
<polygon fill="none" stroke="#000000" points="427.5,-107.5 427.5,-127.5 592.5,-127.5 592.5,-107.5 427.5,-107.5"/>
<text text-anchor="middle" x="510" y="-114.5" font-family="FreeSans" font-size="10.00" fill="#000000">KFParticleBase::GetDStoPoint</text>
</a>
</g>
</g>
<!-- Node2&#45;&gt;Node7 -->
<g id="edge6" class="edge">
<title>Node2&#45;&gt;Node7</title>
<path fill="none" stroke="#191970" d="M368.3102,-136.4792C386.648,-134.0229 406.4055,-131.3764 425.176,-128.8621"/>
<polygon fill="#191970" stroke="#191970" points="425.7401,-132.3179 435.1869,-127.5212 424.8107,-125.3799 425.7401,-132.3179"/>
</g>
</g>
</svg>
