<?xml version="1.0" encoding="UTF-8" standalone="no"?>
<!DOCTYPE svg PUBLIC "-//W3C//DTD SVG 1.1//EN"
 "http://www.w3.org/Graphics/SVG/1.1/DTD/svg11.dtd">
<!-- Generated by graphviz version 2.40.1 (20161225.0304)
 -->
<!-- Title: KFParticleBase::GetFieldValue Pages: 1 -->
<svg width="773pt" height="389pt"
 viewBox="0.00 0.00 773.00 389.00" xmlns="http://www.w3.org/2000/svg" xmlns:xlink="http://www.w3.org/1999/xlink">
<g id="graph0" class="graph" transform="scale(1 1) rotate(0) translate(4 385)">
<title>KFParticleBase::GetFieldValue</title>
<!-- Node1 -->
<g id="node1" class="node">
<title>Node1</title>
<polygon fill="#bfbfbf" stroke="#000000" points="0,-174.5 0,-206.5 138,-206.5 138,-174.5 0,-174.5"/>
<text text-anchor="start" x="8" y="-193.5" font-family="FreeSans" font-size="10.00" fill="#000000">KFParticleBase::GetField</text>
<text text-anchor="middle" x="69" y="-181.5" font-family="FreeSans" font-size="10.00" fill="#000000">Value</text>
</g>
<!-- Node2 -->
<g id="node2" class="node">
<title>Node2</title>
<g id="a_node2"><a xlink:href="../../d5/d41/classKFParticleBase.html#a8a48edc283143f590c86a970c5df5d5c" target="_top" xlink:title="KFParticleBase::GetDStoParticleCBM">
<polygon fill="none" stroke="#000000" points="174,-222.5 174,-242.5 373,-242.5 373,-222.5 174,-222.5"/>
<text text-anchor="middle" x="273.5" y="-229.5" font-family="FreeSans" font-size="10.00" fill="#000000">KFParticleBase::GetDStoParticleCBM</text>
</a>
</g>
</g>
<!-- Node1&#45;&gt;Node2 -->
<g id="edge1" class="edge">
<title>Node1&#45;&gt;Node2</title>
<path fill="none" stroke="#191970" d="M148.3552,-206.7979C174.0814,-212.0815 201.8458,-217.7837 224.6715,-222.4716"/>
<polygon fill="#191970" stroke="#191970" points="148.7341,-203.3027 138.2344,-204.7193 147.3258,-210.1596 148.7341,-203.3027"/>
</g>
<!-- Node10 -->
<g id="node10" class="node">
<title>Node10</title>
<g id="a_node10"><a xlink:href="../../d5/d41/classKFParticleBase.html#afe8330eb2ff5650fbf71c42da09cb899" target="_top" xlink:title="KFParticleBase::GetDStoPointCBM">
<polygon fill="none" stroke="#000000" points="180,-93.5 180,-113.5 367,-113.5 367,-93.5 180,-93.5"/>
<text text-anchor="middle" x="273.5" y="-100.5" font-family="FreeSans" font-size="10.00" fill="#000000">KFParticleBase::GetDStoPointCBM</text>
</a>
</g>
</g>
<!-- Node1&#45;&gt;Node10 -->
<g id="edge9" class="edge">
<title>Node1&#45;&gt;Node10</title>
<path fill="none" stroke="#191970" d="M116.4077,-170.3314C158.1664,-152.5661 217.2574,-127.4272 249.7648,-113.5976"/>
<polygon fill="#191970" stroke="#191970" points="114.8173,-167.2044 106.9856,-174.3399 117.5577,-173.6457 114.8173,-167.2044"/>
</g>
<!-- Node15 -->
<g id="node15" class="node">
<title>Node15</title>
<g id="a_node15"><a xlink:href="../../d5/d41/classKFParticleBase.html#a66cf5f3b5d7c53aee08a3845b35b5d56" target="_top" xlink:title="KFParticleBase::TransportCBM">
<polygon fill="none" stroke="#000000" points="190,-180.5 190,-200.5 357,-200.5 357,-180.5 190,-180.5"/>
<text text-anchor="middle" x="273.5" y="-187.5" font-family="FreeSans" font-size="10.00" fill="#000000">KFParticleBase::TransportCBM</text>
</a>
</g>
</g>
<!-- Node1&#45;&gt;Node15 -->
<g id="edge14" class="edge">
<title>Node1&#45;&gt;Node15</title>
<path fill="none" stroke="#191970" d="M148.4751,-190.5C162.0324,-190.5 176.1525,-190.5 189.815,-190.5"/>
<polygon fill="#191970" stroke="#191970" points="148.2344,-187.0001 138.2344,-190.5 148.2343,-194.0001 148.2344,-187.0001"/>
</g>
<!-- Node3 -->
<g id="node3" class="node">
<title>Node3</title>
<g id="a_node3"><a xlink:href="../../d0/d49/classKFParticle.html#a1dfa2f6c4ec75c76a1b2aae35c05cae7" target="_top" xlink:title="KFParticle::GetDStoParticle">
<polygon fill="none" stroke="#000000" points="409,-225.5 409,-245.5 561,-245.5 561,-225.5 409,-225.5"/>
<text text-anchor="middle" x="485" y="-232.5" font-family="FreeSans" font-size="10.00" fill="#000000">KFParticle::GetDStoParticle</text>
</a>
</g>
</g>
<!-- Node2&#45;&gt;Node3 -->
<g id="edge2" class="edge">
<title>Node2&#45;&gt;Node3</title>
<path fill="none" stroke="#191970" d="M383.1933,-234.0559C391.826,-234.1784 400.4237,-234.3003 408.7557,-234.4185"/>
<polygon fill="#191970" stroke="#191970" points="383.1055,-230.5544 373.0569,-233.9122 383.0062,-237.5537 383.1055,-230.5544"/>
</g>
<!-- Node4 -->
<g id="node4" class="node">
<title>Node4</title>
<g id="a_node4"><a xlink:href="../../d0/d49/classKFParticle.html#a8dc18521243e2042e4aec0d5f821bac8" target="_top" xlink:title="KFParticle::GetAngle">
<polygon fill="none" stroke="#000000" points="621.5,-180.5 621.5,-200.5 740.5,-200.5 740.5,-180.5 621.5,-180.5"/>
<text text-anchor="middle" x="681" y="-187.5" font-family="FreeSans" font-size="10.00" fill="#000000">KFParticle::GetAngle</text>
</a>
</g>
</g>
<!-- Node3&#45;&gt;Node4 -->
<g id="edge3" class="edge">
<title>Node3&#45;&gt;Node4</title>
<path fill="none" stroke="#191970" d="M538.7472,-223.1601C569.6824,-216.0576 608.0644,-207.2454 637.1606,-200.5652"/>
<polygon fill="#191970" stroke="#191970" points="537.9494,-219.7521 528.9862,-225.4011 539.5159,-226.5746 537.9494,-219.7521"/>
</g>
<!-- Node5 -->
<g id="node5" class="node">
<title>Node5</title>
<g id="a_node5"><a xlink:href="../../d0/d49/classKFParticle.html#aae77af43f2d9a88ff8dd7b80c65d44cb" target="_top" xlink:title="KFParticle::GetAngleRZ">
<polygon fill="none" stroke="#000000" points="614,-141.5 614,-161.5 748,-161.5 748,-141.5 614,-141.5"/>
<text text-anchor="middle" x="681" y="-148.5" font-family="FreeSans" font-size="10.00" fill="#000000">KFParticle::GetAngleRZ</text>
</a>
</g>
</g>
<!-- Node3&#45;&gt;Node5 -->
<g id="edge4" class="edge">
<title>Node3&#45;&gt;Node5</title>
<path fill="none" stroke="#191970" d="M537.6697,-222.0748C545.804,-218.9139 553.863,-215.0906 561,-210.5 580.8394,-197.7391 576.6419,-183.4161 597,-171.5 603.9863,-167.4107 611.7629,-164.1567 619.6854,-161.5675"/>
<polygon fill="#191970" stroke="#191970" points="536.372,-218.8218 528.1367,-225.4873 538.7312,-225.4122 536.372,-218.8218"/>
</g>
<!-- Node6 -->
<g id="node6" class="node">
<title>Node6</title>
<g id="a_node6"><a xlink:href="../../d0/d49/classKFParticle.html#a8d4e9e9471f7bf3af01c637b28f7653c" target="_top" xlink:title="KFParticle::GetAngleXY">
<polygon fill="none" stroke="#000000" points="614.5,-321.5 614.5,-341.5 747.5,-341.5 747.5,-321.5 614.5,-321.5"/>
<text text-anchor="middle" x="681" y="-328.5" font-family="FreeSans" font-size="10.00" fill="#000000">KFParticle::GetAngleXY</text>
</a>
</g>
</g>
<!-- Node3&#45;&gt;Node6 -->
<g id="edge5" class="edge">
<title>Node3&#45;&gt;Node6</title>
<path fill="none" stroke="#191970" d="M504.1821,-252.1117C525.4633,-269.6843 561.5018,-296.9714 597,-312.5 605.219,-316.0954 614.1997,-319.0492 623.1334,-321.4646"/>
<polygon fill="#191970" stroke="#191970" points="506.4312,-249.43 496.5232,-245.6775 501.9286,-254.7897 506.4312,-249.43"/>
</g>
<!-- Node7 -->
<g id="node7" class="node">
<title>Node7</title>
<g id="a_node7"><a xlink:href="../../d0/d49/classKFParticle.html#a47d3c37061b44cea9558b2c5efb196c8" target="_top" xlink:title="KFParticle::GetDeviation\lFromParticleXY">
<polygon fill="none" stroke="#000000" points="611.5,-270.5 611.5,-302.5 750.5,-302.5 750.5,-270.5 611.5,-270.5"/>
<text text-anchor="start" x="619.5" y="-289.5" font-family="FreeSans" font-size="10.00" fill="#000000">KFParticle::GetDeviation</text>
<text text-anchor="middle" x="681" y="-277.5" font-family="FreeSans" font-size="10.00" fill="#000000">FromParticleXY</text>
</a>
</g>
</g>
<!-- Node3&#45;&gt;Node7 -->
<g id="edge6" class="edge">
<title>Node3&#45;&gt;Node7</title>
<path fill="none" stroke="#191970" d="M533.6711,-248.1644C559.5369,-254.8948 591.6047,-263.239 619.2114,-270.4223"/>
<polygon fill="#191970" stroke="#191970" points="534.2824,-244.707 523.7233,-245.576 532.5196,-251.4814 534.2824,-244.707"/>
</g>
<!-- Node8 -->
<g id="node8" class="node">
<title>Node8</title>
<g id="a_node8"><a xlink:href="../../d0/d49/classKFParticle.html#a70201c84649ebcbe60bddc5fb8a40e82" target="_top" xlink:title="KFParticle::GetDistanceFrom\lParticleXY">
<polygon fill="none" stroke="#000000" points="601.5,-219.5 601.5,-251.5 760.5,-251.5 760.5,-219.5 601.5,-219.5"/>
<text text-anchor="start" x="609.5" y="-238.5" font-family="FreeSans" font-size="10.00" fill="#000000">KFParticle::GetDistanceFrom</text>
<text text-anchor="middle" x="681" y="-226.5" font-family="FreeSans" font-size="10.00" fill="#000000">ParticleXY</text>
</a>
</g>
</g>
<!-- Node3&#45;&gt;Node8 -->
<g id="edge7" class="edge">
<title>Node3&#45;&gt;Node8</title>
<path fill="none" stroke="#191970" d="M571.0753,-235.5C581.1645,-235.5 591.4249,-235.5 601.42,-235.5"/>
<polygon fill="#191970" stroke="#191970" points="571.0593,-232.0001 561.0592,-235.5 571.0592,-239.0001 571.0593,-232.0001"/>
</g>
<!-- Node9 -->
<g id="node9" class="node">
<title>Node9</title>
<g id="a_node9"><a xlink:href="../../d0/d49/classKFParticle.html#a809cab20c82d4e5e58ed6d2f6913d14f" target="_top" xlink:title="KFParticle::TransportToParticle">
<polygon fill="none" stroke="#000000" points="597,-360.5 597,-380.5 765,-380.5 765,-360.5 597,-360.5"/>
<text text-anchor="middle" x="681" y="-367.5" font-family="FreeSans" font-size="10.00" fill="#000000">KFParticle::TransportToParticle</text>
</a>
</g>
</g>
<!-- Node3&#45;&gt;Node9 -->
<g id="edge8" class="edge">
<title>Node3&#45;&gt;Node9</title>
<path fill="none" stroke="#191970" d="M497.48,-254.04C516.0135,-280.0496 553.3564,-326.933 597,-351.5 603.3844,-355.0938 610.4022,-358.0079 617.577,-360.3709"/>
<polygon fill="#191970" stroke="#191970" points="500.3161,-251.9879 491.7295,-245.7814 494.5715,-255.9879 500.3161,-251.9879"/>
</g>
<!-- Node11 -->
<g id="node11" class="node">
<title>Node11</title>
<g id="a_node11"><a xlink:href="../../d0/d49/classKFParticle.html#af0e557256a15e60b0e3873490267b20f" target="_top" xlink:title="KFParticle::GetDStoPoint">
<polygon fill="none" stroke="#000000" points="415,-71.5 415,-91.5 555,-91.5 555,-71.5 415,-71.5"/>
<text text-anchor="middle" x="485" y="-78.5" font-family="FreeSans" font-size="10.00" fill="#000000">KFParticle::GetDStoPoint</text>
</a>
</g>
</g>
<!-- Node10&#45;&gt;Node11 -->
<g id="edge10" class="edge">
<title>Node10&#45;&gt;Node11</title>
<path fill="none" stroke="#191970" d="M377.3651,-92.6961C390.079,-91.3736 402.8293,-90.0473 414.8805,-88.7938"/>
<polygon fill="#191970" stroke="#191970" points="376.7748,-89.2385 367.1906,-93.7544 377.4991,-96.2009 376.7748,-89.2385"/>
</g>
<!-- Node12 -->
<g id="node12" class="node">
<title>Node12</title>
<g id="a_node12"><a xlink:href="../../d0/d49/classKFParticle.html#a23612b32d0f5c8002731de325512843b" target="_top" xlink:title="KFParticle::GetDistanceFrom\lVertexXY">
<polygon fill="none" stroke="#000000" points="601.5,-39.5 601.5,-71.5 760.5,-71.5 760.5,-39.5 601.5,-39.5"/>
<text text-anchor="start" x="609.5" y="-58.5" font-family="FreeSans" font-size="10.00" fill="#000000">KFParticle::GetDistanceFrom</text>
<text text-anchor="middle" x="681" y="-46.5" font-family="FreeSans" font-size="10.00" fill="#000000">VertexXY</text>
</a>
</g>
</g>
<!-- Node11&#45;&gt;Node12 -->
<g id="edge11" class="edge">
<title>Node11&#45;&gt;Node12</title>
<path fill="none" stroke="#191970" d="M565.1291,-70.8706C577.063,-69.2876 589.3628,-67.6559 601.2881,-66.074"/>
<polygon fill="#191970" stroke="#191970" points="564.6598,-67.4021 555.2069,-72.1868 565.5803,-74.3413 564.6598,-67.4021"/>
</g>
<!-- Node13 -->
<g id="node13" class="node">
<title>Node13</title>
<g id="a_node13"><a xlink:href="../../d0/d49/classKFParticle.html#aaf8fa9176455e4b34628568d33276069" target="_top" xlink:title="KFParticle::GetParameters\lAtPoint">
<polygon fill="none" stroke="#000000" points="607,-90.5 607,-122.5 755,-122.5 755,-90.5 607,-90.5"/>
<text text-anchor="start" x="615" y="-109.5" font-family="FreeSans" font-size="10.00" fill="#000000">KFParticle::GetParameters</text>
<text text-anchor="middle" x="681" y="-97.5" font-family="FreeSans" font-size="10.00" fill="#000000">AtPoint</text>
</a>
</g>
</g>
<!-- Node11&#45;&gt;Node13 -->
<g id="edge12" class="edge">
<title>Node11&#45;&gt;Node13</title>
<path fill="none" stroke="#191970" d="M565.1738,-91.7263C579.0033,-93.4902 593.3229,-95.3167 606.9805,-97.0587"/>
<polygon fill="#191970" stroke="#191970" points="565.5694,-88.2484 555.2069,-90.455 564.6837,-95.1922 565.5694,-88.2484"/>
</g>
<!-- Node14 -->
<g id="node14" class="node">
<title>Node14</title>
<g id="a_node14"><a xlink:href="../../d0/d49/classKFParticle.html#ae3e9fe6655354f5cb043eb36639f6d65" target="_top" xlink:title="KFParticle::TransportToPoint">
<polygon fill="none" stroke="#000000" points="602.5,-.5 602.5,-20.5 759.5,-20.5 759.5,-.5 602.5,-.5"/>
<text text-anchor="middle" x="681" y="-7.5" font-family="FreeSans" font-size="10.00" fill="#000000">KFParticle::TransportToPoint</text>
</a>
</g>
</g>
<!-- Node11&#45;&gt;Node14 -->
<g id="edge13" class="edge">
<title>Node11&#45;&gt;Node14</title>
<path fill="none" stroke="#191970" d="M512.4002,-66.7771C534.6701,-55.3052 567.1719,-39.6689 597,-29.5 607.0479,-26.0745 617.9836,-23.0876 628.5417,-20.5596"/>
<polygon fill="#191970" stroke="#191970" points="510.7667,-63.6815 503.5201,-71.4105 514.0049,-69.8875 510.7667,-63.6815"/>
</g>
<!-- Node16 -->
<g id="node16" class="node">
<title>Node16</title>
<g id="a_node16"><a xlink:href="../../d0/d49/classKFParticle.html#a7cc5d1b90ec1fda7fd4b98fe1e049f36" target="_top" xlink:title="KFParticle::Transport">
<polygon fill="none" stroke="#000000" points="424.5,-180.5 424.5,-200.5 545.5,-200.5 545.5,-180.5 424.5,-180.5"/>
<text text-anchor="middle" x="485" y="-187.5" font-family="FreeSans" font-size="10.00" fill="#000000">KFParticle::Transport</text>
</a>
</g>
</g>
<!-- Node15&#45;&gt;Node16 -->
<g id="edge15" class="edge">
<title>Node15&#45;&gt;Node16</title>
<path fill="none" stroke="#191970" d="M367.1433,-190.5C386.4894,-190.5 406.3833,-190.5 424.1889,-190.5"/>
<polygon fill="#191970" stroke="#191970" points="367.0904,-187.0001 357.0904,-190.5 367.0904,-194.0001 367.0904,-187.0001"/>
</g>
<!-- Node16&#45;&gt;Node4 -->
<g id="edge16" class="edge">
<title>Node16&#45;&gt;Node4</title>
<path fill="none" stroke="#191970" d="M555.7212,-190.5C577.209,-190.5 600.5979,-190.5 621.2859,-190.5"/>
<polygon fill="#191970" stroke="#191970" points="555.6734,-187.0001 545.6734,-190.5 555.6733,-194.0001 555.6734,-187.0001"/>
</g>
<!-- Node16&#45;&gt;Node5 -->
<g id="edge17" class="edge">
<title>Node16&#45;&gt;Node5</title>
<path fill="none" stroke="#191970" d="M545.3251,-178.4965C572.6821,-173.0531 604.6593,-166.6902 630.6962,-161.5094"/>
<polygon fill="#191970" stroke="#191970" points="544.5995,-175.0722 535.4749,-180.4565 545.9657,-181.9376 544.5995,-175.0722"/>
</g>
<!-- Node16&#45;&gt;Node6 -->
<g id="edge18" class="edge">
<title>Node16&#45;&gt;Node6</title>
<path fill="none" stroke="#191970" d="M544.335,-204.7908C550.4368,-207.9477 556.1609,-211.7999 561,-216.5 593.6876,-248.2485 562.6588,-282.5479 597,-312.5 602.0706,-316.9225 607.9541,-320.3773 614.208,-323.068"/>
<polygon fill="#191970" stroke="#191970" points="545.7373,-201.5837 535.1841,-200.6452 542.8487,-207.9599 545.7373,-201.5837"/>
</g>
<!-- Node16&#45;&gt;Node7 -->
<g id="edge19" class="edge">
<title>Node16&#45;&gt;Node7</title>
<path fill="none" stroke="#191970" d="M537.6756,-204.126C545.8718,-207.4623 553.9488,-211.5419 561,-216.5 581.9515,-231.2321 575.7556,-247.1936 597,-261.5 602.0482,-264.8996 607.5697,-267.8471 613.2932,-270.401"/>
<polygon fill="#191970" stroke="#191970" points="538.6461,-200.7527 528.0534,-200.5429 536.2033,-207.3127 538.6461,-200.7527"/>
</g>
<!-- Node16&#45;&gt;Node8 -->
<g id="edge20" class="edge">
<title>Node16&#45;&gt;Node8</title>
<path fill="none" stroke="#191970" d="M538.9243,-202.8806C561.1902,-207.9926 587.2903,-213.985 611.0027,-219.4292"/>
<polygon fill="#191970" stroke="#191970" points="539.5159,-199.4254 528.9862,-200.5989 537.9494,-206.2479 539.5159,-199.4254"/>
</g>
<!-- Node16&#45;&gt;Node12 -->
<g id="edge21" class="edge">
<title>Node16&#45;&gt;Node12</title>
<path fill="none" stroke="#191970" d="M498.7585,-172.2686C518.0926,-147.8885 555.6015,-104.9137 597,-80.5 602.7667,-77.0992 609.0326,-74.1289 615.4557,-71.5416"/>
<polygon fill="#191970" stroke="#191970" points="495.8578,-170.2973 492.4841,-180.3406 501.3846,-174.5932 495.8578,-170.2973"/>
</g>
<!-- Node16&#45;&gt;Node13 -->
<g id="edge22" class="edge">
<title>Node16&#45;&gt;Node13</title>
<path fill="none" stroke="#191970" d="M510.3936,-175.2834C532.6584,-162.3935 566.1928,-144.0577 597,-131.5 604.8904,-128.2837 613.3482,-125.2783 621.7477,-122.5453"/>
<polygon fill="#191970" stroke="#191970" points="508.4442,-172.369 501.5824,-180.4416 511.9806,-178.41 508.4442,-172.369"/>
</g>
</g>
</svg>
