<?xml version="1.0" encoding="UTF-8" standalone="no"?>
<!DOCTYPE svg PUBLIC "-//W3C//DTD SVG 1.1//EN"
 "http://www.w3.org/Graphics/SVG/1.1/DTD/svg11.dtd">
<!-- Generated by graphviz version 2.40.1 (20161225.0304)
 -->
<!-- Title: KFParticleBase::GetDStoParticleBy Pages: 1 -->
<svg width="825pt" height="248pt"
 viewBox="0.00 0.00 825.00 248.00" xmlns="http://www.w3.org/2000/svg" xmlns:xlink="http://www.w3.org/1999/xlink">
<g id="graph0" class="graph" transform="scale(1 1) rotate(0) translate(4 244)">
<title>KFParticleBase::GetDStoParticleBy</title>
<!-- Node1 -->
<g id="node1" class="node">
<title>Node1</title>
<polygon fill="#bfbfbf" stroke="#000000" points="0,-118.5 0,-138.5 190,-138.5 190,-118.5 0,-118.5"/>
<text text-anchor="middle" x="95" y="-125.5" font-family="FreeSans" font-size="10.00" fill="#000000">KFParticleBase::GetDStoParticleBy</text>
</g>
<!-- Node2 -->
<g id="node2" class="node">
<title>Node2</title>
<g id="a_node2"><a xlink:href="../../d5/d41/classKFParticleBase.html#a8a48edc283143f590c86a970c5df5d5c" target="_top" xlink:title="KFParticleBase::GetDStoParticleCBM">
<polygon fill="none" stroke="#000000" points="226,-118.5 226,-138.5 425,-138.5 425,-118.5 226,-118.5"/>
<text text-anchor="middle" x="325.5" y="-125.5" font-family="FreeSans" font-size="10.00" fill="#000000">KFParticleBase::GetDStoParticleCBM</text>
</a>
</g>
</g>
<!-- Node1&#45;&gt;Node2 -->
<g id="edge1" class="edge">
<title>Node1&#45;&gt;Node2</title>
<path fill="none" stroke="#191970" d="M200.3607,-128.5C208.8251,-128.5 217.3611,-128.5 225.7844,-128.5"/>
<polygon fill="#191970" stroke="#191970" points="200.084,-125.0001 190.0839,-128.5 200.0839,-132.0001 200.084,-125.0001"/>
</g>
<!-- Node3 -->
<g id="node3" class="node">
<title>Node3</title>
<g id="a_node3"><a xlink:href="../../d0/d49/classKFParticle.html#a1dfa2f6c4ec75c76a1b2aae35c05cae7" target="_top" xlink:title="KFParticle::GetDStoParticle">
<polygon fill="none" stroke="#000000" points="461,-118.5 461,-138.5 613,-138.5 613,-118.5 461,-118.5"/>
<text text-anchor="middle" x="537" y="-125.5" font-family="FreeSans" font-size="10.00" fill="#000000">KFParticle::GetDStoParticle</text>
</a>
</g>
</g>
<!-- Node2&#45;&gt;Node3 -->
<g id="edge2" class="edge">
<title>Node2&#45;&gt;Node3</title>
<path fill="none" stroke="#191970" d="M435.1933,-128.5C443.826,-128.5 452.4237,-128.5 460.7557,-128.5"/>
<polygon fill="#191970" stroke="#191970" points="435.0569,-125.0001 425.0569,-128.5 435.0568,-132.0001 435.0569,-125.0001"/>
</g>
<!-- Node4 -->
<g id="node4" class="node">
<title>Node4</title>
<g id="a_node4"><a xlink:href="../../d0/d49/classKFParticle.html#a8dc18521243e2042e4aec0d5f821bac8" target="_top" xlink:title="KFParticle::GetAngle">
<polygon fill="none" stroke="#000000" points="673.5,-219.5 673.5,-239.5 792.5,-239.5 792.5,-219.5 673.5,-219.5"/>
<text text-anchor="middle" x="733" y="-226.5" font-family="FreeSans" font-size="10.00" fill="#000000">KFParticle::GetAngle</text>
</a>
</g>
</g>
<!-- Node3&#45;&gt;Node4 -->
<g id="edge3" class="edge">
<title>Node3&#45;&gt;Node4</title>
<path fill="none" stroke="#191970" d="M554.973,-145.3453C575.9351,-164.0634 612.4045,-193.8399 649,-210.5 656.8926,-214.0931 665.5206,-217.0334 674.1457,-219.4322"/>
<polygon fill="#191970" stroke="#191970" points="557.2342,-142.6707 547.481,-138.5323 552.5247,-147.8496 557.2342,-142.6707"/>
</g>
<!-- Node5 -->
<g id="node5" class="node">
<title>Node5</title>
<g id="a_node5"><a xlink:href="../../d0/d49/classKFParticle.html#aae77af43f2d9a88ff8dd7b80c65d44cb" target="_top" xlink:title="KFParticle::GetAngleRZ">
<polygon fill="none" stroke="#000000" points="666,-180.5 666,-200.5 800,-200.5 800,-180.5 666,-180.5"/>
<text text-anchor="middle" x="733" y="-187.5" font-family="FreeSans" font-size="10.00" fill="#000000">KFParticle::GetAngleRZ</text>
</a>
</g>
</g>
<!-- Node3&#45;&gt;Node5 -->
<g id="edge4" class="edge">
<title>Node3&#45;&gt;Node5</title>
<path fill="none" stroke="#191970" d="M569.5181,-142.4145C591.6428,-151.5255 621.7414,-163.2316 649,-171.5 659.8741,-174.7985 671.695,-177.813 682.9422,-180.4215"/>
<polygon fill="#191970" stroke="#191970" points="570.8321,-139.1704 560.2549,-138.5597 568.1427,-145.6332 570.8321,-139.1704"/>
</g>
<!-- Node6 -->
<g id="node6" class="node">
<title>Node6</title>
<g id="a_node6"><a xlink:href="../../d0/d49/classKFParticle.html#a8d4e9e9471f7bf3af01c637b28f7653c" target="_top" xlink:title="KFParticle::GetAngleXY">
<polygon fill="none" stroke="#000000" points="666.5,-141.5 666.5,-161.5 799.5,-161.5 799.5,-141.5 666.5,-141.5"/>
<text text-anchor="middle" x="733" y="-148.5" font-family="FreeSans" font-size="10.00" fill="#000000">KFParticle::GetAngleXY</text>
</a>
</g>
</g>
<!-- Node3&#45;&gt;Node6 -->
<g id="edge5" class="edge">
<title>Node3&#45;&gt;Node6</title>
<path fill="none" stroke="#191970" d="M623.0137,-138.5934C637.4972,-140.293 652.3352,-142.0342 666.2368,-143.6655"/>
<polygon fill="#191970" stroke="#191970" points="623.399,-135.1147 613.0592,-137.4253 622.5832,-142.067 623.399,-135.1147"/>
</g>
<!-- Node7 -->
<g id="node7" class="node">
<title>Node7</title>
<g id="a_node7"><a xlink:href="../../d0/d49/classKFParticle.html#a47d3c37061b44cea9558b2c5efb196c8" target="_top" xlink:title="KFParticle::GetDeviation\lFromParticleXY">
<polygon fill="none" stroke="#000000" points="663.5,-90.5 663.5,-122.5 802.5,-122.5 802.5,-90.5 663.5,-90.5"/>
<text text-anchor="start" x="671.5" y="-109.5" font-family="FreeSans" font-size="10.00" fill="#000000">KFParticle::GetDeviation</text>
<text text-anchor="middle" x="733" y="-97.5" font-family="FreeSans" font-size="10.00" fill="#000000">FromParticleXY</text>
</a>
</g>
</g>
<!-- Node3&#45;&gt;Node7 -->
<g id="edge6" class="edge">
<title>Node3&#45;&gt;Node7</title>
<path fill="none" stroke="#191970" d="M623.2496,-118.8189C636.6737,-117.3121 650.3963,-115.7718 663.3901,-114.3134"/>
<polygon fill="#191970" stroke="#191970" points="622.6064,-115.369 613.0592,-119.9627 623.3873,-122.3254 622.6064,-115.369"/>
</g>
<!-- Node8 -->
<g id="node8" class="node">
<title>Node8</title>
<g id="a_node8"><a xlink:href="../../d0/d49/classKFParticle.html#a70201c84649ebcbe60bddc5fb8a40e82" target="_top" xlink:title="KFParticle::GetDistanceFrom\lParticleXY">
<polygon fill="none" stroke="#000000" points="653.5,-39.5 653.5,-71.5 812.5,-71.5 812.5,-39.5 653.5,-39.5"/>
<text text-anchor="start" x="661.5" y="-58.5" font-family="FreeSans" font-size="10.00" fill="#000000">KFParticle::GetDistanceFrom</text>
<text text-anchor="middle" x="733" y="-46.5" font-family="FreeSans" font-size="10.00" fill="#000000">ParticleXY</text>
</a>
</g>
</g>
<!-- Node3&#45;&gt;Node8 -->
<g id="edge7" class="edge">
<title>Node3&#45;&gt;Node8</title>
<path fill="none" stroke="#191970" d="M568.3574,-114.3775C590.636,-104.5819 621.379,-91.5433 649,-81.5 658.469,-78.057 668.6388,-74.6611 678.5186,-71.5169"/>
<polygon fill="#191970" stroke="#191970" points="566.7879,-111.2446 559.0605,-118.4929 569.6214,-117.6455 566.7879,-111.2446"/>
</g>
<!-- Node9 -->
<g id="node9" class="node">
<title>Node9</title>
<g id="a_node9"><a xlink:href="../../d0/d49/classKFParticle.html#a809cab20c82d4e5e58ed6d2f6913d14f" target="_top" xlink:title="KFParticle::TransportToParticle">
<polygon fill="none" stroke="#000000" points="649,-.5 649,-20.5 817,-20.5 817,-.5 649,-.5"/>
<text text-anchor="middle" x="733" y="-7.5" font-family="FreeSans" font-size="10.00" fill="#000000">KFParticle::TransportToParticle</text>
</a>
</g>
</g>
<!-- Node3&#45;&gt;Node9 -->
<g id="edge8" class="edge">
<title>Node3&#45;&gt;Node9</title>
<path fill="none" stroke="#191970" d="M552.1895,-110.7033C572.1322,-88.5043 609.2971,-50.9827 649,-30.5 656.8603,-26.4449 665.5592,-23.1966 674.2927,-20.5986"/>
<polygon fill="#191970" stroke="#191970" points="549.4003,-108.5748 545.4202,-118.3936 554.6547,-113.2 549.4003,-108.5748"/>
</g>
</g>
</svg>
