<?xml version="1.0" encoding="UTF-8" standalone="no"?>
<!DOCTYPE svg PUBLIC "-//W3C//DTD SVG 1.1//EN"
 "http://www.w3.org/Graphics/SVG/1.1/DTD/svg11.dtd">
<!-- Generated by graphviz version 2.40.1 (20161225.0304)
 -->
<!-- Title: genfit::RKTools::J_MpTxcov7xJ_Mp Pages: 1 -->
<svg width="946pt" height="296pt"
 viewBox="0.00 0.00 946.00 296.00" xmlns="http://www.w3.org/2000/svg" xmlns:xlink="http://www.w3.org/1999/xlink">
<g id="graph0" class="graph" transform="scale(1 1) rotate(0) translate(4 292)">
<title>genfit::RKTools::J_MpTxcov7xJ_Mp</title>
<!-- Node1 -->
<g id="node1" class="node">
<title>Node1</title>
<polygon fill="#bfbfbf" stroke="#000000" points="0,-101.5 0,-133.5 103,-133.5 103,-101.5 0,-101.5"/>
<text text-anchor="start" x="8" y="-120.5" font-family="FreeSans" font-size="10.00" fill="#000000">genfit::RKTools::J</text>
<text text-anchor="middle" x="51.5" y="-108.5" font-family="FreeSans" font-size="10.00" fill="#000000">_MpTxcov7xJ_Mp</text>
</g>
<!-- Node2 -->
<g id="node2" class="node">
<title>Node2</title>
<g id="a_node2"><a xlink:href="../../d2/d12/classgenfit_1_1RKTrackRep.html#a1b48d34b67452eeb4d22c08884cd81e7" target="_top" xlink:title="genfit::RKTrackRep\l::calcForwardJacobianAndNoise">
<polygon fill="none" stroke="#000000" points="139,-101.5 139,-133.5 313,-133.5 313,-101.5 139,-101.5"/>
<text text-anchor="start" x="147" y="-120.5" font-family="FreeSans" font-size="10.00" fill="#000000">genfit::RKTrackRep</text>
<text text-anchor="middle" x="226" y="-108.5" font-family="FreeSans" font-size="10.00" fill="#000000">::calcForwardJacobianAndNoise</text>
</a>
</g>
</g>
<!-- Node1&#45;&gt;Node2 -->
<g id="edge1" class="edge">
<title>Node1&#45;&gt;Node2</title>
<path fill="none" stroke="#191970" d="M113.5362,-117.5C121.7071,-117.5 130.2008,-117.5 138.6951,-117.5"/>
<polygon fill="#191970" stroke="#191970" points="113.3833,-114.0001 103.3833,-117.5 113.3833,-121.0001 113.3833,-114.0001"/>
</g>
<!-- Node3 -->
<g id="node3" class="node">
<title>Node3</title>
<g id="a_node3"><a xlink:href="../../d2/d12/classgenfit_1_1RKTrackRep.html#a8aab6f587db26d572214ede92f4877fc" target="_top" xlink:title="Handles propagation and material effects.">
<polygon fill="none" stroke="#000000" points="349,-124.5 349,-156.5 460,-156.5 460,-124.5 349,-124.5"/>
<text text-anchor="start" x="357" y="-143.5" font-family="FreeSans" font-size="10.00" fill="#000000">genfit::RKTrackRep</text>
<text text-anchor="middle" x="404.5" y="-131.5" font-family="FreeSans" font-size="10.00" fill="#000000">::Extrap</text>
</a>
</g>
</g>
<!-- Node2&#45;&gt;Node3 -->
<g id="edge2" class="edge">
<title>Node2&#45;&gt;Node3</title>
<path fill="none" stroke="#191970" d="M323.3061,-130.038C331.9275,-131.1489 340.4479,-132.2468 348.5418,-133.2897"/>
<polygon fill="#191970" stroke="#191970" points="323.5237,-126.5372 313.1584,-128.7305 322.6291,-133.4798 323.5237,-126.5372"/>
</g>
<!-- Node12 -->
<g id="node12" class="node">
<title>Node12</title>
<g id="a_node12"><a xlink:href="../../dc/d22/namespacegenfit.html#a7f4fb1ca240c395344a29860679f2d4a" target="_top" xlink:title="White&#45;Box&#45;Test.">
<polygon fill="none" stroke="#000000" points="360,-85.5 360,-105.5 449,-105.5 449,-85.5 360,-85.5"/>
<text text-anchor="middle" x="404.5" y="-92.5" font-family="FreeSans" font-size="10.00" fill="#000000">genfit::TEST_F</text>
</a>
</g>
</g>
<!-- Node2&#45;&gt;Node12 -->
<g id="edge17" class="edge">
<title>Node2&#45;&gt;Node12</title>
<path fill="none" stroke="#191970" d="M323.3433,-105.5025C336.0091,-103.9415 348.4556,-102.4074 359.6513,-101.0276"/>
<polygon fill="#191970" stroke="#191970" points="322.6551,-102.0608 313.1584,-106.7578 323.5114,-109.0082 322.6551,-102.0608"/>
</g>
<!-- Node4 -->
<g id="node4" class="node">
<title>Node4</title>
<g id="a_node4"><a xlink:href="../../d2/d12/classgenfit_1_1RKTrackRep.html#afb21945e3f605f45b1a5bbbe7741793f" target="_top" xlink:title="Extrapolates the state by step (cm) and returns the extrapolation length and, via reference...">
<polygon fill="none" stroke="#000000" points="662.5,-255.5 662.5,-287.5 773.5,-287.5 773.5,-255.5 662.5,-255.5"/>
<text text-anchor="start" x="670.5" y="-274.5" font-family="FreeSans" font-size="10.00" fill="#000000">genfit::RKTrackRep</text>
<text text-anchor="middle" x="718" y="-262.5" font-family="FreeSans" font-size="10.00" fill="#000000">::extrapolateBy</text>
</a>
</g>
</g>
<!-- Node3&#45;&gt;Node4 -->
<g id="edge3" class="edge">
<title>Node3&#45;&gt;Node4</title>
<path fill="none" stroke="#191970" d="M429.7318,-163.6532C447.2082,-178.6056 471.6307,-197.4496 496,-209.5 549.4472,-235.9291 615.8833,-252.5962 662.0826,-261.9118"/>
<polygon fill="#191970" stroke="#191970" points="431.5748,-160.6157 421.7412,-156.6723 426.9694,-165.8874 431.5748,-160.6157"/>
</g>
<!-- Node5 -->
<g id="node5" class="node">
<title>Node5</title>
<g id="a_node5"><a xlink:href="../../d2/d12/classgenfit_1_1RKTrackRep.html#a44091ce8605a38c40d4a4f1692af448b" target="_top" xlink:title="Extrapolates the state to the cone surface, and returns the extrapolation length and, via reference, the extrapolated state.">
<polygon fill="none" stroke="#000000" points="659.5,-204.5 659.5,-236.5 776.5,-236.5 776.5,-204.5 659.5,-204.5"/>
<text text-anchor="start" x="667.5" y="-223.5" font-family="FreeSans" font-size="10.00" fill="#000000">genfit::RKTrackRep</text>
<text text-anchor="middle" x="718" y="-211.5" font-family="FreeSans" font-size="10.00" fill="#000000">::extrapolateToCone</text>
</a>
</g>
</g>
<!-- Node3&#45;&gt;Node5 -->
<g id="edge4" class="edge">
<title>Node3&#45;&gt;Node5</title>
<path fill="none" stroke="#191970" d="M442.4405,-161.1916C458.5524,-169.2166 477.7903,-177.8225 496,-183.5 550.0883,-200.3639 614.1259,-209.9943 659.4896,-215.1753"/>
<polygon fill="#191970" stroke="#191970" points="443.8461,-157.9797 433.3467,-156.5603 440.6693,-164.2174 443.8461,-157.9797"/>
</g>
<!-- Node6 -->
<g id="node6" class="node">
<title>Node6</title>
<g id="a_node6"><a xlink:href="../../d2/d12/classgenfit_1_1RKTrackRep.html#abb4665294ae573dc5423f2975bb8b3e7" target="_top" xlink:title="Extrapolates the state to the cylinder surface, and returns the extrapolation length and...">
<polygon fill="none" stroke="#000000" points="651,-153.5 651,-185.5 785,-185.5 785,-153.5 651,-153.5"/>
<text text-anchor="start" x="659" y="-172.5" font-family="FreeSans" font-size="10.00" fill="#000000">genfit::RKTrackRep</text>
<text text-anchor="middle" x="718" y="-160.5" font-family="FreeSans" font-size="10.00" fill="#000000">::extrapolateToCylinder</text>
</a>
</g>
</g>
<!-- Node3&#45;&gt;Node6 -->
<g id="edge5" class="edge">
<title>Node3&#45;&gt;Node6</title>
<path fill="none" stroke="#191970" d="M461.6737,-159.2341C472.9371,-162.2153 484.7518,-164.8554 496,-166.5 547.4885,-174.0283 606.4091,-174.4509 650.6046,-173.1685"/>
<polygon fill="#191970" stroke="#191970" points="462.5168,-155.836 451.9456,-156.5429 460.6504,-162.5826 462.5168,-155.836"/>
</g>
<!-- Node7 -->
<g id="node7" class="node">
<title>Node7</title>
<g id="a_node7"><a xlink:href="../../d2/d12/classgenfit_1_1RKTrackRep.html#a216b86da9a7238ff9cf24e944b0f9e4b" target="_top" xlink:title="Extrapolates the state to the POCA to a line, and returns the extrapolation length and...">
<polygon fill="none" stroke="#000000" points="661.5,-102.5 661.5,-134.5 774.5,-134.5 774.5,-102.5 661.5,-102.5"/>
<text text-anchor="start" x="669.5" y="-121.5" font-family="FreeSans" font-size="10.00" fill="#000000">genfit::RKTrackRep</text>
<text text-anchor="middle" x="718" y="-109.5" font-family="FreeSans" font-size="10.00" fill="#000000">::extrapolateToLine</text>
</a>
</g>
</g>
<!-- Node3&#45;&gt;Node7 -->
<g id="edge6" class="edge">
<title>Node3&#45;&gt;Node7</title>
<path fill="none" stroke="#191970" d="M463.5438,-121.903C474.2439,-119.241 485.3783,-116.9249 496,-115.5 551.7763,-108.0174 616.1397,-110.0454 661.1539,-113.1698"/>
<polygon fill="#191970" stroke="#191970" points="462.6581,-118.5168 453.8665,-124.4293 464.4263,-125.2899 462.6581,-118.5168"/>
</g>
<!-- Node8 -->
<g id="node8" class="node">
<title>Node8</title>
<g id="a_node8"><a xlink:href="../../d2/d12/classgenfit_1_1RKTrackRep.html#a03a1d1eb5b7169ba697ccf114de5066c" target="_top" xlink:title="Extrapolates the state to plane, and returns the extrapolation length and, via reference, the extrapolated state.">
<polygon fill="none" stroke="#000000" points="496,-124.5 496,-156.5 615,-156.5 615,-124.5 496,-124.5"/>
<text text-anchor="start" x="504" y="-143.5" font-family="FreeSans" font-size="10.00" fill="#000000">genfit::RKTrackRep</text>
<text text-anchor="middle" x="555.5" y="-131.5" font-family="FreeSans" font-size="10.00" fill="#000000">::extrapolateToPlane</text>
</a>
</g>
</g>
<!-- Node3&#45;&gt;Node8 -->
<g id="edge7" class="edge">
<title>Node3&#45;&gt;Node8</title>
<path fill="none" stroke="#191970" d="M470.4898,-140.5C478.9347,-140.5 487.5409,-140.5 495.8767,-140.5"/>
<polygon fill="#191970" stroke="#191970" points="470.2978,-137.0001 460.2978,-140.5 470.2978,-144.0001 470.2978,-137.0001"/>
</g>
<!-- Node9 -->
<g id="node9" class="node">
<title>Node9</title>
<g id="a_node9"><a xlink:href="../../d2/d12/classgenfit_1_1RKTrackRep.html#aaa34d4913daa972f1947554c4b1e23a8" target="_top" xlink:title="Extrapolates the state to the sphere surface, and returns the extrapolation length and...">
<polygon fill="none" stroke="#000000" points="654.5,-51.5 654.5,-83.5 781.5,-83.5 781.5,-51.5 654.5,-51.5"/>
<text text-anchor="start" x="662.5" y="-70.5" font-family="FreeSans" font-size="10.00" fill="#000000">genfit::RKTrackRep</text>
<text text-anchor="middle" x="718" y="-58.5" font-family="FreeSans" font-size="10.00" fill="#000000">::extrapolateToSphere</text>
</a>
</g>
</g>
<!-- Node3&#45;&gt;Node9 -->
<g id="edge15" class="edge">
<title>Node3&#45;&gt;Node9</title>
<path fill="none" stroke="#191970" d="M451.3139,-120.5726C465.4798,-115.0948 481.2063,-109.5535 496,-105.5 548.42,-91.137 609.3641,-81.1684 654.1214,-75.0565"/>
<polygon fill="#191970" stroke="#191970" points="449.8017,-117.4067 441.7867,-124.3357 452.3733,-123.9172 449.8017,-117.4067"/>
</g>
<!-- Node10 -->
<g id="node10" class="node">
<title>Node10</title>
<g id="a_node10"><a xlink:href="../../d2/d12/classgenfit_1_1RKTrackRep.html#abb38b9cdcf9cfa490b795530579bcd73" target="_top" xlink:title="genfit::RKTrackRep\l::extrapToPoint">
<polygon fill="none" stroke="#000000" points="662.5,-.5 662.5,-32.5 773.5,-32.5 773.5,-.5 662.5,-.5"/>
<text text-anchor="start" x="670.5" y="-19.5" font-family="FreeSans" font-size="10.00" fill="#000000">genfit::RKTrackRep</text>
<text text-anchor="middle" x="718" y="-7.5" font-family="FreeSans" font-size="10.00" fill="#000000">::extrapToPoint</text>
</a>
</g>
</g>
<!-- Node3&#45;&gt;Node10 -->
<g id="edge16" class="edge">
<title>Node3&#45;&gt;Node10</title>
<path fill="none" stroke="#191970" d="M454.2206,-119.3178C456.2099,-118.0912 458.1452,-116.818 460,-115.5 478.9638,-102.0238 476.0493,-89.4668 496,-77.5 547.5866,-46.5573 615.2453,-30.9139 662.2497,-23.2754"/>
<polygon fill="#191970" stroke="#191970" points="452.2226,-116.4265 445.236,-124.3912 455.6646,-122.5218 452.2226,-116.4265"/>
</g>
<!-- Node8&#45;&gt;Node4 -->
<g id="edge8" class="edge">
<title>Node8&#45;&gt;Node4</title>
<path fill="none" stroke="#191970" d="M572.0791,-164.8935C589.3282,-188.6354 618.3483,-224.2911 651,-246.5 655.9275,-249.8516 661.3627,-252.8253 666.942,-255.4449"/>
<polygon fill="#191970" stroke="#191970" points="574.9214,-162.851 566.2718,-156.7325 569.218,-166.9095 574.9214,-162.851"/>
</g>
<!-- Node8&#45;&gt;Node5 -->
<g id="edge9" class="edge">
<title>Node8&#45;&gt;Node5</title>
<path fill="none" stroke="#191970" d="M589.7218,-162.0509C607.601,-172.833 630.0661,-185.6491 651,-195.5 657.6279,-198.6189 664.7595,-201.6281 671.8106,-204.4124"/>
<polygon fill="#191970" stroke="#191970" points="591.1827,-158.8423 580.8226,-156.6244 587.5384,-164.8189 591.1827,-158.8423"/>
</g>
<!-- Node8&#45;&gt;Node6 -->
<g id="edge10" class="edge">
<title>Node8&#45;&gt;Node6</title>
<path fill="none" stroke="#191970" d="M624.9965,-152.9025C633.5274,-154.4249 642.2349,-155.9788 650.732,-157.4953"/>
<polygon fill="#191970" stroke="#191970" points="625.5457,-149.4452 615.0863,-151.1339 624.3158,-156.3364 625.5457,-149.4452"/>
</g>
<!-- Node8&#45;&gt;Node7 -->
<g id="edge11" class="edge">
<title>Node8&#45;&gt;Node7</title>
<path fill="none" stroke="#191970" d="M625.1443,-131.0712C637.2452,-129.433 649.6967,-127.7472 661.3953,-126.1634"/>
<polygon fill="#191970" stroke="#191970" points="624.5263,-127.6229 615.0863,-132.4329 625.4655,-134.5596 624.5263,-127.6229"/>
</g>
<!-- Node8&#45;&gt;Node9 -->
<g id="edge12" class="edge">
<title>Node8&#45;&gt;Node9</title>
<path fill="none" stroke="#191970" d="M595.6337,-119.78C612.5643,-111.293 632.584,-101.5866 651,-93.5 658.6542,-90.139 666.8912,-86.7563 674.8816,-83.5936"/>
<polygon fill="#191970" stroke="#191970" points="593.926,-116.7214 586.5754,-124.3516 597.0799,-122.9706 593.926,-116.7214"/>
</g>
<!-- Node8&#45;&gt;Node10 -->
<g id="edge13" class="edge">
<title>Node8&#45;&gt;Node10</title>
<path fill="none" stroke="#191970" d="M573.5484,-116.3593C591.1733,-94.2449 619.831,-61.9326 651,-41.5 656.0878,-38.1648 661.6825,-35.1904 667.4037,-32.5609"/>
<polygon fill="#191970" stroke="#191970" points="570.7511,-114.2548 567.3515,-124.2894 576.2668,-118.565 570.7511,-114.2548"/>
</g>
<!-- Node11 -->
<g id="node11" class="node">
<title>Node11</title>
<g id="a_node11"><a xlink:href="../../d2/d12/classgenfit_1_1RKTrackRep.html#aff9f0db2e194bd9889386cc73ed2d0cd" target="_top" xlink:title="Extrapolates the state to the POCA to a point, and returns the extrapolation length and...">
<polygon fill="none" stroke="#000000" points="821,-.5 821,-32.5 938,-32.5 938,-.5 821,-.5"/>
<text text-anchor="start" x="829" y="-19.5" font-family="FreeSans" font-size="10.00" fill="#000000">genfit::RKTrackRep</text>
<text text-anchor="middle" x="879.5" y="-7.5" font-family="FreeSans" font-size="10.00" fill="#000000">::extrapolateToPoint</text>
</a>
</g>
</g>
<!-- Node10&#45;&gt;Node11 -->
<g id="edge14" class="edge">
<title>Node10&#45;&gt;Node11</title>
<path fill="none" stroke="#191970" d="M783.7434,-16.5C796.0089,-16.5 808.753,-16.5 820.7897,-16.5"/>
<polygon fill="#191970" stroke="#191970" points="783.5792,-13.0001 773.5791,-16.5 783.5791,-20.0001 783.5792,-13.0001"/>
</g>
</g>
</svg>
