<?xml version="1.0" encoding="UTF-8" standalone="no"?>
<!DOCTYPE svg PUBLIC "-//W3C//DTD SVG 1.1//EN"
 "http://www.w3.org/Graphics/SVG/1.1/DTD/svg11.dtd">
<!-- Generated by graphviz version 2.40.1 (20161225.0304)
 -->
<!-- Title: genfit::RKTools::J_pMTTxJ_MMTTxJ_MpTT Pages: 1 -->
<svg width="978pt" height="296pt"
 viewBox="0.00 0.00 978.00 296.00" xmlns="http://www.w3.org/2000/svg" xmlns:xlink="http://www.w3.org/1999/xlink">
<g id="graph0" class="graph" transform="scale(1 1) rotate(0) translate(4 292)">
<title>genfit::RKTools::J_pMTTxJ_MMTTxJ_MpTT</title>
<!-- Node1 -->
<g id="node1" class="node">
<title>Node1</title>
<polygon fill="#bfbfbf" stroke="#000000" points="0,-101.5 0,-133.5 135,-133.5 135,-101.5 0,-101.5"/>
<text text-anchor="start" x="8" y="-120.5" font-family="FreeSans" font-size="10.00" fill="#000000">genfit::RKTools::J</text>
<text text-anchor="middle" x="67.5" y="-108.5" font-family="FreeSans" font-size="10.00" fill="#000000">_pMTTxJ_MMTTxJ_MpTT</text>
</g>
<!-- Node2 -->
<g id="node2" class="node">
<title>Node2</title>
<g id="a_node2"><a xlink:href="../../d2/d12/classgenfit_1_1RKTrackRep.html#a1b48d34b67452eeb4d22c08884cd81e7" target="_top" xlink:title="genfit::RKTrackRep\l::calcForwardJacobianAndNoise">
<polygon fill="none" stroke="#000000" points="171,-101.5 171,-133.5 345,-133.5 345,-101.5 171,-101.5"/>
<text text-anchor="start" x="179" y="-120.5" font-family="FreeSans" font-size="10.00" fill="#000000">genfit::RKTrackRep</text>
<text text-anchor="middle" x="258" y="-108.5" font-family="FreeSans" font-size="10.00" fill="#000000">::calcForwardJacobianAndNoise</text>
</a>
</g>
</g>
<!-- Node1&#45;&gt;Node2 -->
<g id="edge1" class="edge">
<title>Node1&#45;&gt;Node2</title>
<path fill="none" stroke="#191970" d="M145.3453,-117.5C153.7543,-117.5 162.3506,-117.5 170.86,-117.5"/>
<polygon fill="#191970" stroke="#191970" points="145.1996,-114.0001 135.1996,-117.5 145.1995,-121.0001 145.1996,-114.0001"/>
</g>
<!-- Node3 -->
<g id="node3" class="node">
<title>Node3</title>
<g id="a_node3"><a xlink:href="../../d2/d12/classgenfit_1_1RKTrackRep.html#a8aab6f587db26d572214ede92f4877fc" target="_top" xlink:title="Handles propagation and material effects.">
<polygon fill="none" stroke="#000000" points="381,-124.5 381,-156.5 492,-156.5 492,-124.5 381,-124.5"/>
<text text-anchor="start" x="389" y="-143.5" font-family="FreeSans" font-size="10.00" fill="#000000">genfit::RKTrackRep</text>
<text text-anchor="middle" x="436.5" y="-131.5" font-family="FreeSans" font-size="10.00" fill="#000000">::Extrap</text>
</a>
</g>
</g>
<!-- Node2&#45;&gt;Node3 -->
<g id="edge2" class="edge">
<title>Node2&#45;&gt;Node3</title>
<path fill="none" stroke="#191970" d="M355.3061,-130.038C363.9275,-131.1489 372.4479,-132.2468 380.5418,-133.2897"/>
<polygon fill="#191970" stroke="#191970" points="355.5237,-126.5372 345.1584,-128.7305 354.6291,-133.4798 355.5237,-126.5372"/>
</g>
<!-- Node12 -->
<g id="node12" class="node">
<title>Node12</title>
<g id="a_node12"><a xlink:href="../../dc/d22/namespacegenfit.html#a7f4fb1ca240c395344a29860679f2d4a" target="_top" xlink:title="White&#45;Box&#45;Test.">
<polygon fill="none" stroke="#000000" points="392,-85.5 392,-105.5 481,-105.5 481,-85.5 392,-85.5"/>
<text text-anchor="middle" x="436.5" y="-92.5" font-family="FreeSans" font-size="10.00" fill="#000000">genfit::TEST_F</text>
</a>
</g>
</g>
<!-- Node2&#45;&gt;Node12 -->
<g id="edge17" class="edge">
<title>Node2&#45;&gt;Node12</title>
<path fill="none" stroke="#191970" d="M355.3433,-105.5025C368.0091,-103.9415 380.4556,-102.4074 391.6513,-101.0276"/>
<polygon fill="#191970" stroke="#191970" points="354.6551,-102.0608 345.1584,-106.7578 355.5114,-109.0082 354.6551,-102.0608"/>
</g>
<!-- Node4 -->
<g id="node4" class="node">
<title>Node4</title>
<g id="a_node4"><a xlink:href="../../d2/d12/classgenfit_1_1RKTrackRep.html#afb21945e3f605f45b1a5bbbe7741793f" target="_top" xlink:title="Extrapolates the state by step (cm) and returns the extrapolation length and, via reference...">
<polygon fill="none" stroke="#000000" points="694.5,-255.5 694.5,-287.5 805.5,-287.5 805.5,-255.5 694.5,-255.5"/>
<text text-anchor="start" x="702.5" y="-274.5" font-family="FreeSans" font-size="10.00" fill="#000000">genfit::RKTrackRep</text>
<text text-anchor="middle" x="750" y="-262.5" font-family="FreeSans" font-size="10.00" fill="#000000">::extrapolateBy</text>
</a>
</g>
</g>
<!-- Node3&#45;&gt;Node4 -->
<g id="edge3" class="edge">
<title>Node3&#45;&gt;Node4</title>
<path fill="none" stroke="#191970" d="M461.7318,-163.6532C479.2082,-178.6056 503.6307,-197.4496 528,-209.5 581.4472,-235.9291 647.8833,-252.5962 694.0826,-261.9118"/>
<polygon fill="#191970" stroke="#191970" points="463.5748,-160.6157 453.7412,-156.6723 458.9694,-165.8874 463.5748,-160.6157"/>
</g>
<!-- Node5 -->
<g id="node5" class="node">
<title>Node5</title>
<g id="a_node5"><a xlink:href="../../d2/d12/classgenfit_1_1RKTrackRep.html#a44091ce8605a38c40d4a4f1692af448b" target="_top" xlink:title="Extrapolates the state to the cone surface, and returns the extrapolation length and, via reference, the extrapolated state.">
<polygon fill="none" stroke="#000000" points="691.5,-204.5 691.5,-236.5 808.5,-236.5 808.5,-204.5 691.5,-204.5"/>
<text text-anchor="start" x="699.5" y="-223.5" font-family="FreeSans" font-size="10.00" fill="#000000">genfit::RKTrackRep</text>
<text text-anchor="middle" x="750" y="-211.5" font-family="FreeSans" font-size="10.00" fill="#000000">::extrapolateToCone</text>
</a>
</g>
</g>
<!-- Node3&#45;&gt;Node5 -->
<g id="edge4" class="edge">
<title>Node3&#45;&gt;Node5</title>
<path fill="none" stroke="#191970" d="M474.4405,-161.1916C490.5524,-169.2166 509.7903,-177.8225 528,-183.5 582.0883,-200.3639 646.1259,-209.9943 691.4896,-215.1753"/>
<polygon fill="#191970" stroke="#191970" points="475.8461,-157.9797 465.3467,-156.5603 472.6693,-164.2174 475.8461,-157.9797"/>
</g>
<!-- Node6 -->
<g id="node6" class="node">
<title>Node6</title>
<g id="a_node6"><a xlink:href="../../d2/d12/classgenfit_1_1RKTrackRep.html#abb4665294ae573dc5423f2975bb8b3e7" target="_top" xlink:title="Extrapolates the state to the cylinder surface, and returns the extrapolation length and...">
<polygon fill="none" stroke="#000000" points="683,-153.5 683,-185.5 817,-185.5 817,-153.5 683,-153.5"/>
<text text-anchor="start" x="691" y="-172.5" font-family="FreeSans" font-size="10.00" fill="#000000">genfit::RKTrackRep</text>
<text text-anchor="middle" x="750" y="-160.5" font-family="FreeSans" font-size="10.00" fill="#000000">::extrapolateToCylinder</text>
</a>
</g>
</g>
<!-- Node3&#45;&gt;Node6 -->
<g id="edge5" class="edge">
<title>Node3&#45;&gt;Node6</title>
<path fill="none" stroke="#191970" d="M493.6737,-159.2341C504.9371,-162.2153 516.7518,-164.8554 528,-166.5 579.4885,-174.0283 638.4091,-174.4509 682.6046,-173.1685"/>
<polygon fill="#191970" stroke="#191970" points="494.5168,-155.836 483.9456,-156.5429 492.6504,-162.5826 494.5168,-155.836"/>
</g>
<!-- Node7 -->
<g id="node7" class="node">
<title>Node7</title>
<g id="a_node7"><a xlink:href="../../d2/d12/classgenfit_1_1RKTrackRep.html#a216b86da9a7238ff9cf24e944b0f9e4b" target="_top" xlink:title="Extrapolates the state to the POCA to a line, and returns the extrapolation length and...">
<polygon fill="none" stroke="#000000" points="693.5,-102.5 693.5,-134.5 806.5,-134.5 806.5,-102.5 693.5,-102.5"/>
<text text-anchor="start" x="701.5" y="-121.5" font-family="FreeSans" font-size="10.00" fill="#000000">genfit::RKTrackRep</text>
<text text-anchor="middle" x="750" y="-109.5" font-family="FreeSans" font-size="10.00" fill="#000000">::extrapolateToLine</text>
</a>
</g>
</g>
<!-- Node3&#45;&gt;Node7 -->
<g id="edge6" class="edge">
<title>Node3&#45;&gt;Node7</title>
<path fill="none" stroke="#191970" d="M495.5438,-121.903C506.2439,-119.241 517.3783,-116.9249 528,-115.5 583.7763,-108.0174 648.1397,-110.0454 693.1539,-113.1698"/>
<polygon fill="#191970" stroke="#191970" points="494.6581,-118.5168 485.8665,-124.4293 496.4263,-125.2899 494.6581,-118.5168"/>
</g>
<!-- Node8 -->
<g id="node8" class="node">
<title>Node8</title>
<g id="a_node8"><a xlink:href="../../d2/d12/classgenfit_1_1RKTrackRep.html#a03a1d1eb5b7169ba697ccf114de5066c" target="_top" xlink:title="Extrapolates the state to plane, and returns the extrapolation length and, via reference, the extrapolated state.">
<polygon fill="none" stroke="#000000" points="528,-124.5 528,-156.5 647,-156.5 647,-124.5 528,-124.5"/>
<text text-anchor="start" x="536" y="-143.5" font-family="FreeSans" font-size="10.00" fill="#000000">genfit::RKTrackRep</text>
<text text-anchor="middle" x="587.5" y="-131.5" font-family="FreeSans" font-size="10.00" fill="#000000">::extrapolateToPlane</text>
</a>
</g>
</g>
<!-- Node3&#45;&gt;Node8 -->
<g id="edge7" class="edge">
<title>Node3&#45;&gt;Node8</title>
<path fill="none" stroke="#191970" d="M502.4898,-140.5C510.9347,-140.5 519.5409,-140.5 527.8767,-140.5"/>
<polygon fill="#191970" stroke="#191970" points="502.2978,-137.0001 492.2978,-140.5 502.2978,-144.0001 502.2978,-137.0001"/>
</g>
<!-- Node9 -->
<g id="node9" class="node">
<title>Node9</title>
<g id="a_node9"><a xlink:href="../../d2/d12/classgenfit_1_1RKTrackRep.html#aaa34d4913daa972f1947554c4b1e23a8" target="_top" xlink:title="Extrapolates the state to the sphere surface, and returns the extrapolation length and...">
<polygon fill="none" stroke="#000000" points="686.5,-51.5 686.5,-83.5 813.5,-83.5 813.5,-51.5 686.5,-51.5"/>
<text text-anchor="start" x="694.5" y="-70.5" font-family="FreeSans" font-size="10.00" fill="#000000">genfit::RKTrackRep</text>
<text text-anchor="middle" x="750" y="-58.5" font-family="FreeSans" font-size="10.00" fill="#000000">::extrapolateToSphere</text>
</a>
</g>
</g>
<!-- Node3&#45;&gt;Node9 -->
<g id="edge15" class="edge">
<title>Node3&#45;&gt;Node9</title>
<path fill="none" stroke="#191970" d="M483.3139,-120.5726C497.4798,-115.0948 513.2063,-109.5535 528,-105.5 580.42,-91.137 641.3641,-81.1684 686.1214,-75.0565"/>
<polygon fill="#191970" stroke="#191970" points="481.8017,-117.4067 473.7867,-124.3357 484.3733,-123.9172 481.8017,-117.4067"/>
</g>
<!-- Node10 -->
<g id="node10" class="node">
<title>Node10</title>
<g id="a_node10"><a xlink:href="../../d2/d12/classgenfit_1_1RKTrackRep.html#abb38b9cdcf9cfa490b795530579bcd73" target="_top" xlink:title="genfit::RKTrackRep\l::extrapToPoint">
<polygon fill="none" stroke="#000000" points="694.5,-.5 694.5,-32.5 805.5,-32.5 805.5,-.5 694.5,-.5"/>
<text text-anchor="start" x="702.5" y="-19.5" font-family="FreeSans" font-size="10.00" fill="#000000">genfit::RKTrackRep</text>
<text text-anchor="middle" x="750" y="-7.5" font-family="FreeSans" font-size="10.00" fill="#000000">::extrapToPoint</text>
</a>
</g>
</g>
<!-- Node3&#45;&gt;Node10 -->
<g id="edge16" class="edge">
<title>Node3&#45;&gt;Node10</title>
<path fill="none" stroke="#191970" d="M486.2206,-119.3178C488.2099,-118.0912 490.1452,-116.818 492,-115.5 510.9638,-102.0238 508.0493,-89.4668 528,-77.5 579.5866,-46.5573 647.2453,-30.9139 694.2497,-23.2754"/>
<polygon fill="#191970" stroke="#191970" points="484.2226,-116.4265 477.236,-124.3912 487.6646,-122.5218 484.2226,-116.4265"/>
</g>
<!-- Node8&#45;&gt;Node4 -->
<g id="edge8" class="edge">
<title>Node8&#45;&gt;Node4</title>
<path fill="none" stroke="#191970" d="M604.0791,-164.8935C621.3282,-188.6354 650.3483,-224.2911 683,-246.5 687.9275,-249.8516 693.3627,-252.8253 698.942,-255.4449"/>
<polygon fill="#191970" stroke="#191970" points="606.9214,-162.851 598.2718,-156.7325 601.218,-166.9095 606.9214,-162.851"/>
</g>
<!-- Node8&#45;&gt;Node5 -->
<g id="edge9" class="edge">
<title>Node8&#45;&gt;Node5</title>
<path fill="none" stroke="#191970" d="M621.7218,-162.0509C639.601,-172.833 662.0661,-185.6491 683,-195.5 689.6279,-198.6189 696.7595,-201.6281 703.8106,-204.4124"/>
<polygon fill="#191970" stroke="#191970" points="623.1827,-158.8423 612.8226,-156.6244 619.5384,-164.8189 623.1827,-158.8423"/>
</g>
<!-- Node8&#45;&gt;Node6 -->
<g id="edge10" class="edge">
<title>Node8&#45;&gt;Node6</title>
<path fill="none" stroke="#191970" d="M656.9965,-152.9025C665.5274,-154.4249 674.2349,-155.9788 682.732,-157.4953"/>
<polygon fill="#191970" stroke="#191970" points="657.5457,-149.4452 647.0863,-151.1339 656.3158,-156.3364 657.5457,-149.4452"/>
</g>
<!-- Node8&#45;&gt;Node7 -->
<g id="edge11" class="edge">
<title>Node8&#45;&gt;Node7</title>
<path fill="none" stroke="#191970" d="M657.1443,-131.0712C669.2452,-129.433 681.6967,-127.7472 693.3953,-126.1634"/>
<polygon fill="#191970" stroke="#191970" points="656.5263,-127.6229 647.0863,-132.4329 657.4655,-134.5596 656.5263,-127.6229"/>
</g>
<!-- Node8&#45;&gt;Node9 -->
<g id="edge12" class="edge">
<title>Node8&#45;&gt;Node9</title>
<path fill="none" stroke="#191970" d="M627.6337,-119.78C644.5643,-111.293 664.584,-101.5866 683,-93.5 690.6542,-90.139 698.8912,-86.7563 706.8816,-83.5936"/>
<polygon fill="#191970" stroke="#191970" points="625.926,-116.7214 618.5754,-124.3516 629.0799,-122.9706 625.926,-116.7214"/>
</g>
<!-- Node8&#45;&gt;Node10 -->
<g id="edge13" class="edge">
<title>Node8&#45;&gt;Node10</title>
<path fill="none" stroke="#191970" d="M605.5484,-116.3593C623.1733,-94.2449 651.831,-61.9326 683,-41.5 688.0878,-38.1648 693.6825,-35.1904 699.4037,-32.5609"/>
<polygon fill="#191970" stroke="#191970" points="602.7511,-114.2548 599.3515,-124.2894 608.2668,-118.565 602.7511,-114.2548"/>
</g>
<!-- Node11 -->
<g id="node11" class="node">
<title>Node11</title>
<g id="a_node11"><a xlink:href="../../d2/d12/classgenfit_1_1RKTrackRep.html#aff9f0db2e194bd9889386cc73ed2d0cd" target="_top" xlink:title="Extrapolates the state to the POCA to a point, and returns the extrapolation length and...">
<polygon fill="none" stroke="#000000" points="853,-.5 853,-32.5 970,-32.5 970,-.5 853,-.5"/>
<text text-anchor="start" x="861" y="-19.5" font-family="FreeSans" font-size="10.00" fill="#000000">genfit::RKTrackRep</text>
<text text-anchor="middle" x="911.5" y="-7.5" font-family="FreeSans" font-size="10.00" fill="#000000">::extrapolateToPoint</text>
</a>
</g>
</g>
<!-- Node10&#45;&gt;Node11 -->
<g id="edge14" class="edge">
<title>Node10&#45;&gt;Node11</title>
<path fill="none" stroke="#191970" d="M815.7434,-16.5C828.0089,-16.5 840.753,-16.5 852.7897,-16.5"/>
<polygon fill="#191970" stroke="#191970" points="815.5792,-13.0001 805.5791,-16.5 815.5791,-20.0001 815.5792,-13.0001"/>
</g>
</g>
</svg>
