<?xml version="1.0" encoding="UTF-8" standalone="no"?>
<!DOCTYPE svg PUBLIC "-//W3C//DTD SVG 1.1//EN"
 "http://www.w3.org/Graphics/SVG/1.1/DTD/svg11.dtd">
<!-- Generated by graphviz version 2.40.1 (20161225.0304)
 -->
<!-- Title: KFPVertex::SetNContributors Pages: 1 -->
<svg width="686pt" height="80pt"
 viewBox="0.00 0.00 686.00 80.00" xmlns="http://www.w3.org/2000/svg" xmlns:xlink="http://www.w3.org/1999/xlink">
<g id="graph0" class="graph" transform="scale(1 1) rotate(0) translate(4 76)">
<title>KFPVertex::SetNContributors</title>
<!-- Node1 -->
<g id="node1" class="node">
<title>Node1</title>
<polygon fill="#bfbfbf" stroke="#000000" points="0,-22.5 0,-42.5 161,-42.5 161,-22.5 0,-22.5"/>
<text text-anchor="middle" x="80.5" y="-29.5" font-family="FreeSans" font-size="10.00" fill="#000000">KFPVertex::SetNContributors</text>
</g>
<!-- Node2 -->
<g id="node2" class="node">
<title>Node2</title>
<g id="a_node2"><a xlink:href="../../df/d4e/classKFParticlePVReconstructor.html#aac8016012886979bbbc71f42a617ad3a" target="_top" xlink:title="KFParticlePVReconstructor\l::ReconstructPrimVertex">
<polygon fill="none" stroke="#000000" points="203.5,-39.5 203.5,-71.5 353.5,-71.5 353.5,-39.5 203.5,-39.5"/>
<text text-anchor="start" x="211.5" y="-58.5" font-family="FreeSans" font-size="10.00" fill="#000000">KFParticlePVReconstructor</text>
<text text-anchor="middle" x="278.5" y="-46.5" font-family="FreeSans" font-size="10.00" fill="#000000">::ReconstructPrimVertex</text>
</a>
</g>
</g>
<!-- Node1&#45;&gt;Node2 -->
<g id="edge1" class="edge">
<title>Node1&#45;&gt;Node2</title>
<path fill="none" stroke="#191970" d="M171.2981,-43.0472C182.0625,-44.2977 192.9571,-45.5632 203.4683,-46.7842"/>
<polygon fill="#191970" stroke="#191970" points="171.3713,-39.5323 161.0342,-41.855 170.5635,-46.4855 171.3713,-39.5323"/>
</g>
<!-- Node4 -->
<g id="node4" class="node">
<title>Node4</title>
<g id="a_node4"><a xlink:href="../../d6/d25/classKFParticleTest.html#ae4ea7eeece3a3d64c3137670f1ba6fee" target="_top" xlink:title="KFParticleTest::RunTestSingle">
<polygon fill="none" stroke="#000000" points="197,-.5 197,-20.5 360,-20.5 360,-.5 197,-.5"/>
<text text-anchor="middle" x="278.5" y="-7.5" font-family="FreeSans" font-size="10.00" fill="#000000">KFParticleTest::RunTestSingle</text>
</a>
</g>
</g>
<!-- Node1&#45;&gt;Node4 -->
<g id="edge3" class="edge">
<title>Node1&#45;&gt;Node4</title>
<path fill="none" stroke="#191970" d="M171.0414,-22.4398C179.6126,-21.4875 188.2691,-20.5257 196.7512,-19.5832"/>
<polygon fill="#191970" stroke="#191970" points="170.5865,-18.9688 161.0342,-23.5518 171.3596,-25.9259 170.5865,-18.9688"/>
</g>
<!-- Node3 -->
<g id="node3" class="node">
<title>Node3</title>
<g id="a_node3"><a xlink:href="../../db/d6d/classKFParticleTopoReconstructor.html#a4f287575a545bea1c34d538c8ed53cde" target="_top" xlink:title="KFParticleTopoReconstructor\l::ReconstructPrimVertex">
<polygon fill="none" stroke="#000000" points="396,-39.5 396,-71.5 556,-71.5 556,-39.5 396,-39.5"/>
<text text-anchor="start" x="404" y="-58.5" font-family="FreeSans" font-size="10.00" fill="#000000">KFParticleTopoReconstructor</text>
<text text-anchor="middle" x="476" y="-46.5" font-family="FreeSans" font-size="10.00" fill="#000000">::ReconstructPrimVertex</text>
</a>
</g>
</g>
<!-- Node2&#45;&gt;Node3 -->
<g id="edge2" class="edge">
<title>Node2&#45;&gt;Node3</title>
<path fill="none" stroke="#191970" d="M363.8064,-55.5C374.4007,-55.5 385.2054,-55.5 395.7204,-55.5"/>
<polygon fill="#191970" stroke="#191970" points="363.7297,-52.0001 353.7297,-55.5 363.7297,-59.0001 363.7297,-52.0001"/>
</g>
<!-- Node5 -->
<g id="node5" class="node">
<title>Node5</title>
<g id="a_node5"><a xlink:href="../../d6/d25/classKFParticleTest.html#af22048f201d269dd1831027622f3abf0" target="_top" xlink:title="KFParticleTest::RunTest">
<polygon fill="none" stroke="#000000" points="410,-.5 410,-20.5 542,-20.5 542,-.5 410,-.5"/>
<text text-anchor="middle" x="476" y="-7.5" font-family="FreeSans" font-size="10.00" fill="#000000">KFParticleTest::RunTest</text>
</a>
</g>
</g>
<!-- Node4&#45;&gt;Node5 -->
<g id="edge4" class="edge">
<title>Node4&#45;&gt;Node5</title>
<path fill="none" stroke="#191970" d="M370.4096,-10.5C383.7506,-10.5 397.259,-10.5 409.9543,-10.5"/>
<polygon fill="#191970" stroke="#191970" points="370.2565,-7.0001 360.2565,-10.5 370.2564,-14.0001 370.2565,-7.0001"/>
</g>
<!-- Node6 -->
<g id="node6" class="node">
<title>Node6</title>
<g id="a_node6"><a xlink:href="../../d3/d63/KFParticleTest_8C.html#a60c5d5e878a40c48ab24bcf64f26eca5" target="_top" xlink:title="KFParticleTest">
<polygon fill="none" stroke="#000000" points="592,-.5 592,-20.5 678,-20.5 678,-.5 592,-.5"/>
<text text-anchor="middle" x="635" y="-7.5" font-family="FreeSans" font-size="10.00" fill="#000000">KFParticleTest</text>
</a>
</g>
</g>
<!-- Node5&#45;&gt;Node6 -->
<g id="edge5" class="edge">
<title>Node5&#45;&gt;Node6</title>
<path fill="none" stroke="#191970" d="M552.3151,-10.5C565.805,-10.5 579.4174,-10.5 591.5952,-10.5"/>
<polygon fill="#191970" stroke="#191970" points="552.049,-7.0001 542.049,-10.5 552.049,-14.0001 552.049,-7.0001"/>
</g>
</g>
</svg>
