<?xml version="1.0" encoding="UTF-8" standalone="no"?>
<!DOCTYPE svg PUBLIC "-//W3C//DTD SVG 1.1//EN"
 "http://www.w3.org/Graphics/SVG/1.1/DTD/svg11.dtd">
<!-- Generated by graphviz version 2.40.1 (20161225.0304)
 -->
<!-- Title: KFPVertex::GetXYZ Pages: 1 -->
<svg width="330pt" height="107pt"
 viewBox="0.00 0.00 330.00 107.00" xmlns="http://www.w3.org/2000/svg" xmlns:xlink="http://www.w3.org/1999/xlink">
<g id="graph0" class="graph" transform="scale(1 1) rotate(0) translate(4 103)">
<title>KFPVertex::GetXYZ</title>
<!-- Node1 -->
<g id="node1" class="node">
<title>Node1</title>
<polygon fill="#bfbfbf" stroke="#000000" points="0,-39.5 0,-59.5 112,-59.5 112,-39.5 0,-39.5"/>
<text text-anchor="middle" x="56" y="-46.5" font-family="FreeSans" font-size="10.00" fill="#000000">KFPVertex::GetXYZ</text>
</g>
<!-- Node2 -->
<g id="node2" class="node">
<title>Node2</title>
<g id="a_node2"><a xlink:href="../../d0/d49/classKFParticle.html#aadf37a45429b3683bee536e30300a404" target="_top" xlink:title="KFParticle::KFParticle">
<polygon fill="none" stroke="#000000" points="174,-78.5 174,-98.5 296,-98.5 296,-78.5 174,-78.5"/>
<text text-anchor="middle" x="235" y="-85.5" font-family="FreeSans" font-size="10.00" fill="#000000">KFParticle::KFParticle</text>
</a>
</g>
</g>
<!-- Node1&#45;&gt;Node2 -->
<g id="edge1" class="edge">
<title>Node1&#45;&gt;Node2</title>
<path fill="none" stroke="#191970" d="M112.0812,-61.7188C136.8446,-67.1142 165.5935,-73.3779 189.0593,-78.4906"/>
<polygon fill="#191970" stroke="#191970" points="112.6128,-58.2526 102.0969,-59.5435 111.1226,-65.0921 112.6128,-58.2526"/>
</g>
<!-- Node3 -->
<g id="node3" class="node">
<title>Node3</title>
<g id="a_node3"><a xlink:href="../../db/dcc/classKFParticleSIMD.html#aba76dc8326ba159c2e961f9081c7a919" target="_top" xlink:title="KFParticleSIMD::KFParticleSIMD">
<polygon fill="none" stroke="#000000" points="148,-39.5 148,-59.5 322,-59.5 322,-39.5 148,-39.5"/>
<text text-anchor="middle" x="235" y="-46.5" font-family="FreeSans" font-size="10.00" fill="#000000">KFParticleSIMD::KFParticleSIMD</text>
</a>
</g>
</g>
<!-- Node1&#45;&gt;Node3 -->
<g id="edge2" class="edge">
<title>Node1&#45;&gt;Node3</title>
<path fill="none" stroke="#191970" d="M122.2036,-49.5C130.5863,-49.5 139.262,-49.5 147.9077,-49.5"/>
<polygon fill="#191970" stroke="#191970" points="122.1456,-46.0001 112.1456,-49.5 122.1456,-53.0001 122.1456,-46.0001"/>
</g>
<!-- Node4 -->
<g id="node4" class="node">
<title>Node4</title>
<g id="a_node4"><a xlink:href="../../d8/d00/classKFVertex.html#add291171f94e133f9a197659d395eb7b" target="_top" xlink:title="KFVertex::KFVertex">
<polygon fill="none" stroke="#000000" points="178.5,-.5 178.5,-20.5 291.5,-20.5 291.5,-.5 178.5,-.5"/>
<text text-anchor="middle" x="235" y="-7.5" font-family="FreeSans" font-size="10.00" fill="#000000">KFVertex::KFVertex</text>
</a>
</g>
</g>
<!-- Node1&#45;&gt;Node4 -->
<g id="edge3" class="edge">
<title>Node1&#45;&gt;Node4</title>
<path fill="none" stroke="#191970" d="M112.0812,-37.2812C136.8446,-31.8858 165.5935,-25.6221 189.0593,-20.5094"/>
<polygon fill="#191970" stroke="#191970" points="111.1226,-33.9079 102.0969,-39.4565 112.6128,-40.7474 111.1226,-33.9079"/>
</g>
</g>
</svg>
