<?xml version="1.0" encoding="UTF-8" standalone="no"?>
<!DOCTYPE svg PUBLIC "-//W3C//DTD SVG 1.1//EN"
 "http://www.w3.org/Graphics/SVG/1.1/DTD/svg11.dtd">
<!-- Generated by graphviz version 2.40.1 (20161225.0304)
 -->
<!-- Title: BDiJetModule Pages: 1 -->
<svg width="2006pt" height="767pt"
 viewBox="0.00 0.00 2006.00 767.00" xmlns="http://www.w3.org/2000/svg" xmlns:xlink="http://www.w3.org/1999/xlink">
<g id="graph0" class="graph" transform="scale(1 1) rotate(0) translate(4 763)">
<title>BDiJetModule</title>
<!-- Node1 -->
<g id="node1" class="node">
<title>Node1</title>
<polygon fill="#bfbfbf" stroke="#000000" points="1915,-595.5 1915,-615.5 1998,-615.5 1998,-595.5 1915,-595.5"/>
<text text-anchor="middle" x="1956.5" y="-602.5" font-family="FreeSans" font-size="10.00" fill="#000000">BDiJetModule</text>
</g>
<!-- Node2 -->
<g id="node2" class="node">
<title>Node2</title>
<g id="a_node2"><a xlink:href="../../d0/d32/classSubsysReco.html" target="_top" xlink:title="SubsysReco">
<polygon fill="none" stroke="#000000" points="1669.5,-738.5 1669.5,-758.5 1745.5,-758.5 1745.5,-738.5 1669.5,-738.5"/>
<text text-anchor="middle" x="1707.5" y="-745.5" font-family="FreeSans" font-size="10.00" fill="#000000">SubsysReco</text>
</a>
</g>
</g>
<!-- Node2&#45;&gt;Node1 -->
<g id="edge1" class="edge">
<title>Node2&#45;&gt;Node1</title>
<path fill="none" stroke="#191970" d="M1755.8149,-751.9359C1797.0144,-752.4025 1855.9227,-746.9688 1897,-717.5 1932.7808,-691.8309 1948.97,-637.9104 1954.3406,-615.5485"/>
<polygon fill="#191970" stroke="#191970" points="1755.8225,-748.4353 1745.7436,-751.7012 1755.6593,-755.4334 1755.8225,-748.4353"/>
</g>
<!-- Node3 -->
<g id="node3" class="node">
<title>Node3</title>
<g id="a_node3"><a xlink:href="../../d5/dec/classFun4AllBase.html" target="_top" xlink:title="Fun4AllBase">
<polygon fill="none" stroke="#000000" points="1341,-738.5 1341,-758.5 1419,-758.5 1419,-738.5 1341,-738.5"/>
<text text-anchor="middle" x="1380" y="-745.5" font-family="FreeSans" font-size="10.00" fill="#000000">Fun4AllBase</text>
</a>
</g>
</g>
<!-- Node3&#45;&gt;Node2 -->
<g id="edge2" class="edge">
<title>Node3&#45;&gt;Node2</title>
<path fill="none" stroke="#191970" d="M1429.2806,-748.5C1494.9515,-748.5 1609.7709,-748.5 1669.29,-748.5"/>
<polygon fill="#191970" stroke="#191970" points="1429.1789,-745.0001 1419.1789,-748.5 1429.1788,-752.0001 1429.1789,-745.0001"/>
</g>
<!-- Node4 -->
<g id="node4" class="node">
<title>Node4</title>
<g id="a_node4"><a xlink:title="STL class.">
<polygon fill="none" stroke="#bfbfbf" points="1087.5,-712.5 1087.5,-732.5 1154.5,-732.5 1154.5,-712.5 1087.5,-712.5"/>
<text text-anchor="middle" x="1121" y="-719.5" font-family="FreeSans" font-size="10.00" fill="#000000">std::string</text>
</a>
</g>
</g>
<!-- Node4&#45;&gt;Node1 -->
<g id="edge52" class="edge">
<title>Node4&#45;&gt;Node1</title>
<path fill="none" stroke="#9a32cd" stroke-dasharray="5,2" d="M1164.7336,-720.9292C1294.8234,-716.1188 1677.9914,-700.9168 1802,-684.5 1844.7746,-678.8373 1859.0178,-684.9714 1897,-664.5 1919.5382,-652.3525 1939.2094,-629.0211 1949.3029,-615.6252"/>
<polygon fill="#9a32cd" stroke="#9a32cd" points="1164.5962,-717.4317 1154.7316,-721.2969 1164.8535,-724.427 1164.5962,-717.4317"/>
<text text-anchor="middle" x="1534.5" y="-734.5" font-family="FreeSans" font-size="10.00" fill="#000000"> _vertexing_method</text>
<text text-anchor="middle" x="1534.5" y="-722.5" font-family="FreeSans" font-size="10.00" fill="#000000">_foutname</text>
<text text-anchor="middle" x="1534.5" y="-710.5" font-family="FreeSans" font-size="10.00" fill="#000000">_track_fitting_alg_name</text>
</g>
<!-- Node4&#45;&gt;Node3 -->
<g id="edge3" class="edge">
<title>Node4&#45;&gt;Node3</title>
<path fill="none" stroke="#9a32cd" stroke-dasharray="5,2" d="M1164.6424,-726.8811C1213.9898,-731.8349 1293.6104,-739.8277 1340.9699,-744.5819"/>
<polygon fill="#9a32cd" stroke="#9a32cd" points="1164.8938,-723.3888 1154.5942,-725.8724 1164.1946,-730.3538 1164.8938,-723.3888"/>
<text text-anchor="middle" x="1251" y="-741.5" font-family="FreeSans" font-size="10.00" fill="#000000"> m_ThisName</text>
</g>
<!-- Node5 -->
<g id="node5" class="node">
<title>Node5</title>
<g id="a_node5"><a xlink:title="STL class.">
<polygon fill="none" stroke="#bfbfbf" points="834.5,-706.5 834.5,-738.5 941.5,-738.5 941.5,-706.5 834.5,-706.5"/>
<text text-anchor="start" x="842.5" y="-725.5" font-family="FreeSans" font-size="10.00" fill="#000000">std::basic_string&lt;</text>
<text text-anchor="middle" x="888" y="-713.5" font-family="FreeSans" font-size="10.00" fill="#000000"> char &gt;</text>
</a>
</g>
</g>
<!-- Node5&#45;&gt;Node4 -->
<g id="edge4" class="edge">
<title>Node5&#45;&gt;Node4</title>
<path fill="none" stroke="#191970" d="M952.0176,-722.5C995.7935,-722.5 1052.0681,-722.5 1087.3444,-722.5"/>
<polygon fill="#191970" stroke="#191970" points="951.7475,-719.0001 941.7475,-722.5 951.7474,-726.0001 951.7475,-719.0001"/>
</g>
<!-- Node6 -->
<g id="node6" class="node">
<title>Node6</title>
<g id="a_node6"><a xlink:href="../../d9/dc2/classSvtxClusterMap.html" target="_top" xlink:title="SvtxClusterMap">
<polygon fill="none" stroke="#000000" points="1659.5,-654.5 1659.5,-674.5 1755.5,-674.5 1755.5,-654.5 1659.5,-654.5"/>
<text text-anchor="middle" x="1707.5" y="-661.5" font-family="FreeSans" font-size="10.00" fill="#000000">SvtxClusterMap</text>
</a>
</g>
</g>
<!-- Node6&#45;&gt;Node1 -->
<g id="edge5" class="edge">
<title>Node6&#45;&gt;Node1</title>
<path fill="none" stroke="#9a32cd" stroke-dasharray="5,2" d="M1766.0855,-657.9836C1803.9627,-652.8734 1854.0307,-644.4252 1897,-631.5 1910.7099,-627.376 1925.4605,-620.945 1936.8451,-615.5109"/>
<polygon fill="#9a32cd" stroke="#9a32cd" points="1765.2027,-654.5692 1755.7415,-659.3374 1766.1111,-661.51 1765.2027,-654.5692"/>
<text text-anchor="middle" x="1858.5" y="-651.5" font-family="FreeSans" font-size="10.00" fill="#000000"> _clustermap</text>
</g>
<!-- Node7 -->
<g id="node7" class="node">
<title>Node7</title>
<g id="a_node7"><a xlink:href="../../d9/d24/classPHObject.html" target="_top" xlink:title="PHObject">
<polygon fill="none" stroke="#000000" points="1348.5,-609.5 1348.5,-629.5 1411.5,-629.5 1411.5,-609.5 1348.5,-609.5"/>
<text text-anchor="middle" x="1380" y="-616.5" font-family="FreeSans" font-size="10.00" fill="#000000">PHObject</text>
</a>
</g>
</g>
<!-- Node7&#45;&gt;Node6 -->
<g id="edge6" class="edge">
<title>Node7&#45;&gt;Node6</title>
<path fill="none" stroke="#191970" d="M1421.9655,-627.0586C1438.195,-629.8727 1456.9376,-632.9896 1474,-635.5 1537.855,-644.8949 1611.8339,-653.7397 1659.1163,-659.1347"/>
<polygon fill="#191970" stroke="#191970" points="1422.1599,-623.5395 1411.7062,-625.2626 1420.9528,-630.4347 1422.1599,-623.5395"/>
</g>
<!-- Node9 -->
<g id="node9" class="node">
<title>Node9</title>
<g id="a_node9"><a xlink:href="../../d7/d97/classJetMap.html" target="_top" xlink:title="JetMap">
<polygon fill="none" stroke="#000000" points="1682,-615.5 1682,-635.5 1733,-635.5 1733,-615.5 1682,-615.5"/>
<text text-anchor="middle" x="1707.5" y="-622.5" font-family="FreeSans" font-size="10.00" fill="#000000">JetMap</text>
</a>
</g>
</g>
<!-- Node7&#45;&gt;Node9 -->
<g id="edge9" class="edge">
<title>Node7&#45;&gt;Node9</title>
<path fill="none" stroke="#191970" d="M1421.7389,-620.2647C1490.4539,-621.5236 1625.3995,-623.9959 1681.7851,-625.0289"/>
<polygon fill="#191970" stroke="#191970" points="1421.7621,-616.7646 1411.6996,-620.0808 1421.6338,-623.7634 1421.7621,-616.7646"/>
</g>
<!-- Node37 -->
<g id="node37" class="node">
<title>Node37</title>
<g id="a_node37"><a xlink:href="../../d7/d8b/classSvtxTrackMap.html" target="_top" xlink:title="SvtxTrackMap">
<polygon fill="none" stroke="#000000" points="1664.5,-576.5 1664.5,-596.5 1750.5,-596.5 1750.5,-576.5 1664.5,-576.5"/>
<text text-anchor="middle" x="1707.5" y="-583.5" font-family="FreeSans" font-size="10.00" fill="#000000">SvtxTrackMap</text>
</a>
</g>
</g>
<!-- Node7&#45;&gt;Node37 -->
<g id="edge54" class="edge">
<title>Node7&#45;&gt;Node37</title>
<path fill="none" stroke="#191970" d="M1421.9797,-615.27C1484.4805,-608.9722 1601.3899,-597.192 1664.4853,-590.8343"/>
<polygon fill="#191970" stroke="#191970" points="1421.2983,-611.8208 1411.6996,-616.3058 1422.0002,-618.7856 1421.2983,-611.8208"/>
</g>
<!-- Node38 -->
<g id="node38" class="node">
<title>Node38</title>
<g id="a_node38"><a xlink:href="../../db/dd7/classSvtxVertexMap.html" target="_top" xlink:title="SvtxVertexMap">
<polygon fill="none" stroke="#000000" points="1661.5,-537.5 1661.5,-557.5 1753.5,-557.5 1753.5,-537.5 1661.5,-537.5"/>
<text text-anchor="middle" x="1707.5" y="-544.5" font-family="FreeSans" font-size="10.00" fill="#000000">SvtxVertexMap</text>
</a>
</g>
</g>
<!-- Node7&#45;&gt;Node38 -->
<g id="edge56" class="edge">
<title>Node7&#45;&gt;Node38</title>
<path fill="none" stroke="#191970" d="M1421.5572,-609.0809C1432.7777,-606.1271 1444.8876,-602.8105 1456,-599.5 1464.0817,-597.0924 1465.8466,-595.6527 1474,-593.5 1538.317,-576.5189 1614.0899,-562.7028 1661.4705,-554.7871"/>
<polygon fill="#191970" stroke="#191970" points="1420.3542,-605.7772 1411.5567,-611.681 1422.1157,-612.552 1420.3542,-605.7772"/>
</g>
<!-- Node8 -->
<g id="node8" class="node">
<title>Node8</title>
<polygon fill="none" stroke="#bfbfbf" points="25.5,-197.5 25.5,-217.5 82.5,-217.5 82.5,-197.5 25.5,-197.5"/>
<text text-anchor="middle" x="54" y="-204.5" font-family="FreeSans" font-size="10.00" fill="#000000">TObject</text>
</g>
<!-- Node8&#45;&gt;Node7 -->
<g id="edge7" class="edge">
<title>Node8&#45;&gt;Node7</title>
<path fill="none" stroke="#191970" d="M54.9792,-227.8433C60.1596,-310.8466 91.4601,-619.5 270.5,-619.5 270.5,-619.5 270.5,-619.5 1121,-619.5 1202.8368,-619.5 1299.2188,-619.5 1348.1016,-619.5"/>
<polygon fill="#191970" stroke="#191970" points="58.464,-227.4724 54.4089,-217.6843 51.475,-227.8648 58.464,-227.4724"/>
</g>
<!-- Node13 -->
<g id="node13" class="node">
<title>Node13</title>
<g id="a_node13"><a xlink:href="../../d6/d8a/classgenfit_1_1Track.html" target="_top" xlink:title="Collection of TrackPoint objects, AbsTrackRep objects and FitStatus objects.">
<polygon fill="none" stroke="#000000" points="848.5,-324.5 848.5,-344.5 927.5,-344.5 927.5,-324.5 848.5,-324.5"/>
<text text-anchor="middle" x="888" y="-331.5" font-family="FreeSans" font-size="10.00" fill="#000000">genfit::Track</text>
</a>
</g>
</g>
<!-- Node8&#45;&gt;Node13 -->
<g id="edge14" class="edge">
<title>Node8&#45;&gt;Node13</title>
<path fill="none" stroke="#191970" d="M92.6566,-215.3473C103.4325,-217.4447 115.1568,-219.6428 126,-221.5 268.3643,-245.8842 712.9673,-309.5664 848.4301,-328.8717"/>
<polygon fill="#191970" stroke="#191970" points="93.1633,-211.88 82.6754,-213.3817 91.8107,-218.748 93.1633,-211.88"/>
</g>
<!-- Node17 -->
<g id="node17" class="node">
<title>Node17</title>
<g id="a_node17"><a xlink:href="../../d1/d25/classgenfit_1_1AbsTrackRep.html" target="_top" xlink:title="Abstract base class for a track representation.">
<polygon fill="none" stroke="#000000" points="212,-338.5 212,-358.5 329,-358.5 329,-338.5 212,-338.5"/>
<text text-anchor="middle" x="270.5" y="-345.5" font-family="FreeSans" font-size="10.00" fill="#000000">genfit::AbsTrackRep</text>
</a>
</g>
</g>
<!-- Node8&#45;&gt;Node17 -->
<g id="edge19" class="edge">
<title>Node8&#45;&gt;Node17</title>
<path fill="none" stroke="#191970" d="M75.4527,-223.6255C89.6175,-234.1149 108.6909,-247.9416 126,-259.5 171.0848,-289.6061 226.0091,-322.4122 253.3378,-338.4842"/>
<polygon fill="#191970" stroke="#191970" points="77.4383,-220.7403 67.327,-217.5757 73.2579,-226.355 77.4383,-220.7403"/>
</g>
<!-- Node20 -->
<g id="node20" class="node">
<title>Node20</title>
<g id="a_node20"><a xlink:href="../../db/d40/classgenfit_1_1TrackPoint.html" target="_top" xlink:title="Object containing AbsMeasurement and AbsFitterInfo objects.">
<polygon fill="none" stroke="#000000" points="1069,-153.5 1069,-173.5 1173,-173.5 1173,-153.5 1069,-153.5"/>
<text text-anchor="middle" x="1121" y="-160.5" font-family="FreeSans" font-size="10.00" fill="#000000">genfit::TrackPoint</text>
</a>
</g>
</g>
<!-- Node8&#45;&gt;Node20 -->
<g id="edge24" class="edge">
<title>Node8&#45;&gt;Node20</title>
<path fill="none" stroke="#191970" d="M92.5549,-196.5602C135.5773,-185.3342 207.4376,-169.5 270.5,-169.5 270.5,-169.5 270.5,-169.5 888,-169.5 950.1135,-169.5 1021.5101,-167.3428 1068.7256,-165.6154"/>
<polygon fill="#191970" stroke="#191970" points="91.5467,-193.2066 82.7832,-199.1607 93.347,-199.9712 91.5467,-193.2066"/>
</g>
<!-- Node22 -->
<g id="node22" class="node">
<title>Node22</title>
<g id="a_node22"><a xlink:href="../../d9/d8c/classgenfit_1_1AbsFitterInfo.html" target="_top" xlink:title="This class collects all information needed and produced by a specific AbsFitter and is specific to on...">
<polygon fill="none" stroke="#000000" points="1322,-217.5 1322,-237.5 1438,-237.5 1438,-217.5 1322,-217.5"/>
<text text-anchor="middle" x="1380" y="-224.5" font-family="FreeSans" font-size="10.00" fill="#000000">genfit::AbsFitterInfo</text>
</a>
</g>
</g>
<!-- Node8&#45;&gt;Node22 -->
<g id="edge28" class="edge">
<title>Node8&#45;&gt;Node22</title>
<path fill="none" stroke="#191970" d="M92.8436,-208.0859C280.7516,-210.9201 1095.6307,-223.2109 1321.6661,-226.6202"/>
<polygon fill="#191970" stroke="#191970" points="92.6696,-204.5829 82.6179,-207.9316 92.564,-211.5822 92.6696,-204.5829"/>
</g>
<!-- Node24 -->
<g id="node24" class="node">
<title>Node24</title>
<g id="a_node24"><a xlink:href="../../d5/d1f/classgenfit_1_1AbsMeasurement.html" target="_top" xlink:title="Contains the measurement and covariance in raw detector coordinates.">
<polygon fill="none" stroke="#000000" points="1309.5,-33.5 1309.5,-53.5 1450.5,-53.5 1450.5,-33.5 1309.5,-33.5"/>
<text text-anchor="middle" x="1380" y="-40.5" font-family="FreeSans" font-size="10.00" fill="#000000">genfit::AbsMeasurement</text>
</a>
</g>
</g>
<!-- Node8&#45;&gt;Node24 -->
<g id="edge33" class="edge">
<title>Node8&#45;&gt;Node24</title>
<path fill="none" stroke="#191970" d="M65.4807,-188.7213C94.1193,-144.4988 173.4406,-37.5 270.5,-37.5 270.5,-37.5 270.5,-37.5 1121,-37.5 1184.7554,-37.5 1257.315,-39.3396 1309.3817,-40.9815"/>
<polygon fill="#191970" stroke="#191970" points="62.395,-187.0523 60.0082,-197.3748 68.3113,-190.7938 62.395,-187.0523"/>
</g>
<!-- Node26 -->
<g id="node26" class="node">
<title>Node26</title>
<g id="a_node26"><a xlink:href="../../d6/d15/classgenfit_1_1ThinScatterer.html" target="_top" xlink:title="Thin or thick scatterer.">
<polygon fill="none" stroke="#000000" points="210,-119.5 210,-139.5 331,-139.5 331,-119.5 210,-119.5"/>
<text text-anchor="middle" x="270.5" y="-126.5" font-family="FreeSans" font-size="10.00" fill="#000000">genfit::ThinScatterer</text>
</a>
</g>
</g>
<!-- Node8&#45;&gt;Node26 -->
<g id="edge37" class="edge">
<title>Node8&#45;&gt;Node26</title>
<path fill="none" stroke="#191970" d="M72.4847,-190.5397C86.2419,-178.8665 106.0211,-163.9883 126,-155.5 152.2753,-144.3366 183.2179,-137.9646 209.7147,-134.3283"/>
<polygon fill="#191970" stroke="#191970" points="69.9705,-188.0889 64.7492,-197.3079 74.5799,-193.3571 69.9705,-188.0889"/>
</g>
<!-- Node9&#45;&gt;Node1 -->
<g id="edge8" class="edge">
<title>Node9&#45;&gt;Node1</title>
<path fill="none" stroke="#9a32cd" stroke-dasharray="5,2" d="M1743.1876,-622.6335C1788.5727,-618.9881 1866.8034,-612.7045 1914.8624,-608.8444"/>
<polygon fill="#9a32cd" stroke="#9a32cd" points="1742.8972,-619.1455 1733.2095,-623.435 1743.4577,-626.123 1742.8972,-619.1455"/>
<text text-anchor="middle" x="1858.5" y="-618.5" font-family="FreeSans" font-size="10.00" fill="#000000"> _jetmap_truth</text>
</g>
<!-- Node10 -->
<g id="node10" class="node">
<title>Node10</title>
<g id="a_node10"><a xlink:href="../../d1/d19/classgenfit_1_1GFRaveVertexFactory.html" target="_top" xlink:title="Vertex factory for producing GFRaveVertex objects from Track objects.">
<polygon fill="none" stroke="#000000" points="1627.5,-453.5 1627.5,-473.5 1787.5,-473.5 1787.5,-453.5 1627.5,-453.5"/>
<text text-anchor="middle" x="1707.5" y="-460.5" font-family="FreeSans" font-size="10.00" fill="#000000">genfit::GFRaveVertexFactory</text>
</a>
</g>
</g>
<!-- Node10&#45;&gt;Node1 -->
<g id="edge10" class="edge">
<title>Node10&#45;&gt;Node1</title>
<path fill="none" stroke="#9a32cd" stroke-dasharray="5,2" d="M1798.0809,-463.1174C1831.7287,-466.9123 1868.5872,-476.1398 1897,-496.5 1931.8738,-521.4901 1948.4834,-573.4931 1954.151,-595.4118"/>
<polygon fill="#9a32cd" stroke="#9a32cd" points="1798.0476,-459.5976 1787.7544,-462.1078 1797.3664,-466.5644 1798.0476,-459.5976"/>
<text text-anchor="middle" x="1858.5" y="-499.5" font-family="FreeSans" font-size="10.00" fill="#000000"> _vertex_finder</text>
</g>
<!-- Node11 -->
<g id="node11" class="node">
<title>Node11</title>
<polygon fill="none" stroke="#bfbfbf" points="1319,-445.5 1319,-477.5 1441,-477.5 1441,-445.5 1319,-445.5"/>
<text text-anchor="start" x="1327" y="-464.5" font-family="FreeSans" font-size="10.00" fill="#000000">std::map&lt; int, genfit</text>
<text text-anchor="middle" x="1380" y="-452.5" font-family="FreeSans" font-size="10.00" fill="#000000">::trackAndState &gt;</text>
</g>
<!-- Node11&#45;&gt;Node10 -->
<g id="edge11" class="edge">
<title>Node11&#45;&gt;Node10</title>
<path fill="none" stroke="#9a32cd" stroke-dasharray="5,2" d="M1451.3408,-461.9357C1503.2442,-462.2526 1573.5628,-462.6821 1627.3943,-463.0108"/>
<polygon fill="#9a32cd" stroke="#9a32cd" points="1451.2373,-458.4351 1441.2161,-461.8738 1451.1945,-465.4349 1451.2373,-458.4351"/>
<text text-anchor="middle" x="1534.5" y="-466.5" font-family="FreeSans" font-size="10.00" fill="#000000"> IdGFTrackStateMap_</text>
</g>
<!-- Node12 -->
<g id="node12" class="node">
<title>Node12</title>
<g id="a_node12"><a xlink:href="../../dd/d17/structgenfit_1_1trackAndState.html" target="_top" xlink:title="Simple struct containing a Track pointer and a MeasuredStateOnPlane. Used in GFRave.">
<polygon fill="none" stroke="#000000" points="1059,-441.5 1059,-461.5 1183,-461.5 1183,-441.5 1059,-441.5"/>
<text text-anchor="middle" x="1121" y="-448.5" font-family="FreeSans" font-size="10.00" fill="#000000">genfit::trackAndState</text>
</a>
</g>
</g>
<!-- Node12&#45;&gt;Node11 -->
<g id="edge12" class="edge">
<title>Node12&#45;&gt;Node11</title>
<path fill="none" stroke="#9a32cd" stroke-dasharray="5,2" d="M1193.1533,-454.2858C1232.7207,-455.8135 1281.2384,-457.6868 1318.9166,-459.1416"/>
<polygon fill="#9a32cd" stroke="#9a32cd" points="1193.1646,-450.7838 1183.037,-453.8952 1192.8944,-457.7786 1193.1646,-450.7838"/>
<text text-anchor="middle" x="1251" y="-461.5" font-family="FreeSans" font-size="10.00" fill="#000000"> elements</text>
</g>
<!-- Node13&#45;&gt;Node12 -->
<g id="edge13" class="edge">
<title>Node13&#45;&gt;Node12</title>
<path fill="none" stroke="#9a32cd" stroke-dasharray="5,2" d="M937.5269,-345.8238C964.5775,-353.0947 998.1406,-363.9281 1026,-378.5 1059.7288,-396.1419 1093.7811,-425.8645 1110.4589,-441.3812"/>
<polygon fill="#9a32cd" stroke="#9a32cd" points="938.0634,-342.3468 927.5039,-343.2112 936.2977,-349.1204 938.0634,-342.3468"/>
<text text-anchor="middle" x="1008.5" y="-381.5" font-family="FreeSans" font-size="10.00" fill="#000000"> track_</text>
</g>
<!-- Node13&#45;&gt;Node20 -->
<g id="edge25" class="edge">
<title>Node13&#45;&gt;Node20</title>
<path fill="none" stroke="#9a32cd" stroke-dasharray="5,2" d="M929.6036,-320.749C943.9008,-315.1591 959.6552,-307.9952 973,-299.5 1032.757,-261.4595 1090.8054,-198.2321 1112.2798,-173.6825"/>
<polygon fill="#9a32cd" stroke="#9a32cd" points="928.1147,-317.5695 919.9859,-324.3645 930.5779,-324.1218 928.1147,-317.5695"/>
<text text-anchor="middle" x="1008.5" y="-287.5" font-family="FreeSans" font-size="10.00" fill="#000000"> track_</text>
</g>
<!-- Node14 -->
<g id="node14" class="node">
<title>Node14</title>
<polygon fill="none" stroke="#bfbfbf" points="426,-351.5 426,-383.5 575,-383.5 575,-351.5 426,-351.5"/>
<text text-anchor="start" x="434" y="-370.5" font-family="FreeSans" font-size="10.00" fill="#000000">std::map&lt; const AbsTrack</text>
<text text-anchor="middle" x="500.5" y="-358.5" font-family="FreeSans" font-size="10.00" fill="#000000">Rep *, FitStatus * &gt;</text>
</g>
<!-- Node14&#45;&gt;Node13 -->
<g id="edge15" class="edge">
<title>Node14&#45;&gt;Node13</title>
<path fill="none" stroke="#9a32cd" stroke-dasharray="5,2" d="M585.4782,-360.2631C667.1656,-353.3065 787.0132,-343.1002 848.4645,-337.8669"/>
<polygon fill="#9a32cd" stroke="#9a32cd" points="584.8808,-356.8013 575.2139,-361.1373 585.4749,-363.776 584.8808,-356.8013"/>
<text text-anchor="middle" x="693" y="-362.5" font-family="FreeSans" font-size="10.00" fill="#000000"> fitStatuses_</text>
</g>
<!-- Node15 -->
<g id="node15" class="node">
<title>Node15</title>
<g id="a_node15"><a xlink:href="../../d0/d8d/classgenfit_1_1FitStatus.html" target="_top" xlink:title="Class where important numbers and properties of a fit can be stored.">
<polygon fill="none" stroke="#000000" points="222.5,-648.5 222.5,-668.5 318.5,-668.5 318.5,-648.5 222.5,-648.5"/>
<text text-anchor="middle" x="270.5" y="-655.5" font-family="FreeSans" font-size="10.00" fill="#000000">genfit::FitStatus</text>
</a>
</g>
</g>
<!-- Node15&#45;&gt;Node14 -->
<g id="edge16" class="edge">
<title>Node15&#45;&gt;Node14</title>
<path fill="none" stroke="#9a32cd" stroke-dasharray="5,2" d="M283.0226,-639.3344C306.1791,-603.8765 357.2333,-525.6206 400,-459.5 408.0346,-447.0779 408.0117,-442.4132 418,-431.5 435.012,-412.9127 457.8722,-395.6419 475.2145,-383.7378"/>
<polygon fill="#9a32cd" stroke="#9a32cd" points="279.7996,-637.8686 277.2611,-648.1548 285.6601,-641.6967 279.7996,-637.8686"/>
<text text-anchor="middle" x="374.5" y="-539.5" font-family="FreeSans" font-size="10.00" fill="#000000"> elements</text>
</g>
<!-- Node16 -->
<g id="node16" class="node">
<title>Node16</title>
<g id="a_node16"><a xlink:href="../../d6/d51/structgenfit_1_1PruneFlags.html" target="_top" xlink:title="Info which information has been pruned from the Track.">
<polygon fill="none" stroke="#000000" points="0,-648.5 0,-668.5 108,-668.5 108,-648.5 0,-648.5"/>
<text text-anchor="middle" x="54" y="-655.5" font-family="FreeSans" font-size="10.00" fill="#000000">genfit::PruneFlags</text>
</a>
</g>
</g>
<!-- Node16&#45;&gt;Node15 -->
<g id="edge17" class="edge">
<title>Node16&#45;&gt;Node15</title>
<path fill="none" stroke="#9a32cd" stroke-dasharray="5,2" d="M118.1884,-658.5C151.5336,-658.5 191.6047,-658.5 222.2752,-658.5"/>
<polygon fill="#9a32cd" stroke="#9a32cd" points="118.0737,-655.0001 108.0736,-658.5 118.0736,-662.0001 118.0737,-655.0001"/>
<text text-anchor="middle" x="159" y="-661.5" font-family="FreeSans" font-size="10.00" fill="#000000"> pruneFlags_</text>
</g>
<!-- Node17&#45;&gt;Node14 -->
<g id="edge18" class="edge">
<title>Node17&#45;&gt;Node14</title>
<path fill="none" stroke="#9a32cd" stroke-dasharray="5,2" d="M339.3652,-354.1889C366.6331,-356.4414 398.0492,-359.0367 425.8591,-361.334"/>
<polygon fill="#9a32cd" stroke="#9a32cd" points="339.3881,-350.6789 329.1338,-353.3437 338.8117,-357.6552 339.3881,-350.6789"/>
<text text-anchor="middle" x="374.5" y="-362.5" font-family="FreeSans" font-size="10.00" fill="#000000"> keys</text>
</g>
<!-- Node18 -->
<g id="node18" class="node">
<title>Node18</title>
<polygon fill="none" stroke="#bfbfbf" points="418,-312.5 418,-332.5 583,-332.5 583,-312.5 418,-312.5"/>
<text text-anchor="middle" x="500.5" y="-319.5" font-family="FreeSans" font-size="10.00" fill="#000000">std::vector&lt; AbsTrackRep * &gt;</text>
</g>
<!-- Node17&#45;&gt;Node18 -->
<g id="edge21" class="edge">
<title>Node17&#45;&gt;Node18</title>
<path fill="none" stroke="#9a32cd" stroke-dasharray="5,2" d="M339.2108,-340.6127C342.5203,-340.2358 345.7969,-339.8633 349,-339.5 371.3537,-336.9644 395.5653,-334.2384 417.9365,-331.7281"/>
<polygon fill="#9a32cd" stroke="#9a32cd" points="338.7629,-337.141 329.224,-341.7517 339.5562,-344.0959 338.7629,-337.141"/>
<text text-anchor="middle" x="374.5" y="-342.5" font-family="FreeSans" font-size="10.00" fill="#000000"> elements</text>
</g>
<!-- Node17&#45;&gt;Node22 -->
<g id="edge30" class="edge">
<title>Node17&#45;&gt;Node22</title>
<path fill="none" stroke="#9a32cd" stroke-dasharray="5,2" d="M300.5455,-334.264C343.7508,-315.1331 426.3954,-283.5 500.5,-283.5 500.5,-283.5 500.5,-283.5 1121,-283.5 1194.6773,-283.5 1214.6039,-285.692 1286,-267.5 1313.1545,-260.5809 1342.5967,-246.9658 1361.159,-237.5556"/>
<polygon fill="#9a32cd" stroke="#9a32cd" points="298.8647,-331.1826 291.1896,-338.4862 301.7442,-337.5629 298.8647,-331.1826"/>
<text text-anchor="middle" x="888" y="-286.5" font-family="FreeSans" font-size="10.00" fill="#000000"> rep_</text>
</g>
<!-- Node28 -->
<g id="node28" class="node">
<title>Node28</title>
<polygon fill="none" stroke="#bfbfbf" points="1633,-238.5 1633,-270.5 1782,-270.5 1782,-238.5 1633,-238.5"/>
<text text-anchor="start" x="1641" y="-257.5" font-family="FreeSans" font-size="10.00" fill="#000000">std::map&lt; const AbsTrack</text>
<text text-anchor="middle" x="1707.5" y="-245.5" font-family="FreeSans" font-size="10.00" fill="#000000">Rep *, AbsFitterInfo * &gt;</text>
</g>
<!-- Node17&#45;&gt;Node28 -->
<g id="edge40" class="edge">
<title>Node17&#45;&gt;Node28</title>
<path fill="none" stroke="#9a32cd" stroke-dasharray="5,2" d="M300.9717,-362.6925C344.3141,-381.5464 426.7086,-412.5 500.5,-412.5 500.5,-412.5 500.5,-412.5 1380,-412.5 1509.7294,-412.5 1642.2176,-310.6876 1689.44,-270.5194"/>
<polygon fill="#9a32cd" stroke="#9a32cd" points="302.389,-359.4924 291.8284,-358.641 299.5531,-365.8922 302.389,-359.4924"/>
<text text-anchor="middle" x="1008.5" y="-415.5" font-family="FreeSans" font-size="10.00" fill="#000000"> keys</text>
</g>
<!-- Node30 -->
<g id="node30" class="node">
<title>Node30</title>
<g id="a_node30"><a xlink:href="../../de/dd5/classgenfit_1_1StateOnPlane.html" target="_top" xlink:title="A state with arbitrary dimension defined in a DetPlane.">
<polygon fill="none" stroke="#000000" points="440,-441.5 440,-461.5 561,-461.5 561,-441.5 440,-441.5"/>
<text text-anchor="middle" x="500.5" y="-448.5" font-family="FreeSans" font-size="10.00" fill="#000000">genfit::StateOnPlane</text>
</a>
</g>
</g>
<!-- Node17&#45;&gt;Node30 -->
<g id="edge44" class="edge">
<title>Node17&#45;&gt;Node30</title>
<path fill="none" stroke="#9a32cd" stroke-dasharray="5,2" d="M283.3848,-366.7409C297.3462,-385.0031 321.3664,-412.363 349,-426.5 376.8856,-440.7659 411.0891,-447.2028 439.9363,-449.9921"/>
<polygon fill="#9a32cd" stroke="#9a32cd" points="286.1276,-364.5634 277.3673,-358.6045 280.4995,-368.7258 286.1276,-364.5634"/>
<text text-anchor="middle" x="374.5" y="-446.5" font-family="FreeSans" font-size="10.00" fill="#000000"> rep_</text>
</g>
<!-- Node18&#45;&gt;Node13 -->
<g id="edge20" class="edge">
<title>Node18&#45;&gt;Node13</title>
<path fill="none" stroke="#9a32cd" stroke-dasharray="5,2" d="M593.1914,-323.5866C648.8214,-324.455 720.9847,-325.9613 785,-328.5 805.9409,-329.3305 829.2549,-330.6551 848.3987,-331.8487"/>
<polygon fill="#9a32cd" stroke="#9a32cd" points="593.0542,-320.0842 583.0021,-323.4318 592.9477,-327.0834 593.0542,-320.0842"/>
<text text-anchor="middle" x="693" y="-331.5" font-family="FreeSans" font-size="10.00" fill="#000000"> trackReps_</text>
</g>
<!-- Node19 -->
<g id="node19" class="node">
<title>Node19</title>
<polygon fill="none" stroke="#bfbfbf" points="1304,-295.5 1304,-315.5 1456,-315.5 1456,-295.5 1304,-295.5"/>
<text text-anchor="middle" x="1380" y="-302.5" font-family="FreeSans" font-size="10.00" fill="#000000">std::vector&lt; TrackPoint * &gt;</text>
</g>
<!-- Node19&#45;&gt;Node13 -->
<g id="edge22" class="edge">
<title>Node19&#45;&gt;Node13</title>
<path fill="none" stroke="#9a32cd" stroke-dasharray="5,2" d="M1293.4984,-310.5987C1186.0004,-316.9349 1007.0738,-327.4814 927.8457,-332.1514"/>
<polygon fill="#9a32cd" stroke="#9a32cd" points="1293.896,-314.0814 1303.6727,-309.999 1293.4841,-307.0935 1293.896,-314.0814"/>
<text text-anchor="middle" x="1121" y="-340.5" font-family="FreeSans" font-size="10.00" fill="#000000"> trackPoints_</text>
<text text-anchor="middle" x="1121" y="-328.5" font-family="FreeSans" font-size="10.00" fill="#000000">trackPointsWithMeasurement_</text>
</g>
<!-- Node20&#45;&gt;Node19 -->
<g id="edge23" class="edge">
<title>Node20&#45;&gt;Node19</title>
<path fill="none" stroke="#9a32cd" stroke-dasharray="5,2" d="M1148.4759,-178.564C1201.494,-207.6318 1316.6368,-270.7603 1361.5421,-295.3802"/>
<polygon fill="#9a32cd" stroke="#9a32cd" points="1150.0779,-175.4508 1139.6266,-173.7123 1146.7126,-181.5888 1150.0779,-175.4508"/>
<text text-anchor="middle" x="1251" y="-254.5" font-family="FreeSans" font-size="10.00" fill="#000000"> elements</text>
</g>
<!-- Node20&#45;&gt;Node22 -->
<g id="edge29" class="edge">
<title>Node20&#45;&gt;Node22</title>
<path fill="none" stroke="#9a32cd" stroke-dasharray="5,2" d="M1183.1729,-174.6994C1214.2397,-180.7033 1252.2992,-188.6764 1286,-197.5 1308.0405,-203.2707 1332.5514,-211.1426 1351.0167,-217.3749"/>
<polygon fill="#9a32cd" stroke="#9a32cd" points="1183.8258,-171.2609 1173.3464,-172.8207 1182.5112,-178.1364 1183.8258,-171.2609"/>
<text text-anchor="middle" x="1251" y="-200.5" font-family="FreeSans" font-size="10.00" fill="#000000"> trackPoint_</text>
</g>
<!-- Node20&#45;&gt;Node24 -->
<g id="edge34" class="edge">
<title>Node20&#45;&gt;Node24</title>
<path fill="none" stroke="#9a32cd" stroke-dasharray="5,2" d="M1134.2471,-145.2092C1150.8071,-123.8262 1181.2388,-89.1238 1216,-71.5 1244.5962,-57.0018 1279.2267,-49.8122 1309.2825,-46.3189"/>
<polygon fill="#9a32cd" stroke="#9a32cd" points="1131.2466,-143.3754 1128.027,-153.4693 1136.8385,-147.5863 1131.2466,-143.3754"/>
<text text-anchor="middle" x="1251" y="-74.5" font-family="FreeSans" font-size="10.00" fill="#000000"> trackPoint_</text>
</g>
<!-- Node21 -->
<g id="node21" class="node">
<title>Node21</title>
<polygon fill="none" stroke="#bfbfbf" points="1646,-154.5 1646,-186.5 1769,-186.5 1769,-154.5 1646,-154.5"/>
<text text-anchor="start" x="1654" y="-173.5" font-family="FreeSans" font-size="10.00" fill="#000000">std::map&lt; unsigned</text>
<text text-anchor="middle" x="1707.5" y="-161.5" font-family="FreeSans" font-size="10.00" fill="#000000"> int, AbsFitterInfo * &gt;</text>
</g>
<!-- Node21&#45;&gt;Node20 -->
<g id="edge26" class="edge">
<title>Node21&#45;&gt;Node20</title>
<path fill="none" stroke="#9a32cd" stroke-dasharray="5,2" d="M1635.6252,-163.6318C1539.8366,-155.4481 1365.0752,-143.8981 1216,-152.5 1202.0764,-153.3034 1187.0619,-154.7639 1173.1715,-156.3638"/>
<polygon fill="#9a32cd" stroke="#9a32cd" points="1635.5114,-167.135 1645.7764,-164.5119 1636.1161,-160.1612 1635.5114,-167.135"/>
<text text-anchor="middle" x="1380" y="-155.5" font-family="FreeSans" font-size="10.00" fill="#000000"> vFitterInfos_</text>
</g>
<!-- Node22&#45;&gt;Node21 -->
<g id="edge27" class="edge">
<title>Node22&#45;&gt;Node21</title>
<path fill="none" stroke="#9a32cd" stroke-dasharray="5,2" d="M1447.6495,-215.7259C1505.9334,-205.5818 1589.3559,-191.0625 1645.8306,-181.2333"/>
<polygon fill="#9a32cd" stroke="#9a32cd" points="1447.0483,-212.2778 1437.7965,-217.4408 1448.2486,-219.1742 1447.0483,-212.2778"/>
<text text-anchor="middle" x="1534.5" y="-214.5" font-family="FreeSans" font-size="10.00" fill="#000000"> elements</text>
</g>
<!-- Node22&#45;&gt;Node28 -->
<g id="edge41" class="edge">
<title>Node22&#45;&gt;Node28</title>
<path fill="none" stroke="#9a32cd" stroke-dasharray="5,2" d="M1448.3252,-233.1329C1502.256,-237.5791 1577.3975,-243.774 1632.8919,-248.3491"/>
<polygon fill="#9a32cd" stroke="#9a32cd" points="1448.4269,-229.6295 1438.1731,-232.2959 1447.8516,-236.6058 1448.4269,-229.6295"/>
<text text-anchor="middle" x="1534.5" y="-248.5" font-family="FreeSans" font-size="10.00" fill="#000000"> elements</text>
</g>
<!-- Node23 -->
<g id="node23" class="node">
<title>Node23</title>
<polygon fill="none" stroke="#bfbfbf" points="1613,-62.5 1613,-82.5 1802,-82.5 1802,-62.5 1613,-62.5"/>
<text text-anchor="middle" x="1707.5" y="-69.5" font-family="FreeSans" font-size="10.00" fill="#000000">std::vector&lt; AbsMeasurement * &gt;</text>
</g>
<!-- Node23&#45;&gt;Node20 -->
<g id="edge31" class="edge">
<title>Node23&#45;&gt;Node20</title>
<path fill="none" stroke="#9a32cd" stroke-dasharray="5,2" d="M1626.5108,-83.9937C1528.9994,-97.9938 1360.3207,-122.7273 1216,-146.5 1202.1129,-148.7875 1187.1109,-151.4041 1173.2209,-153.8877"/>
<polygon fill="#9a32cd" stroke="#9a32cd" points="1627.1898,-87.4322 1636.5918,-82.5482 1626.1962,-80.5031 1627.1898,-87.4322"/>
<text text-anchor="middle" x="1380" y="-135.5" font-family="FreeSans" font-size="10.00" fill="#000000"> rawMeasurements_</text>
</g>
<!-- Node24&#45;&gt;Node23 -->
<g id="edge32" class="edge">
<title>Node24&#45;&gt;Node23</title>
<path fill="none" stroke="#9a32cd" stroke-dasharray="5,2" d="M1460.8765,-50.6616C1506.8434,-54.7319 1564.6418,-59.85 1612.7288,-64.108"/>
<polygon fill="#9a32cd" stroke="#9a32cd" points="1460.9292,-47.1526 1450.6594,-49.7569 1460.3117,-54.1254 1460.9292,-47.1526"/>
<text text-anchor="middle" x="1534.5" y="-65.5" font-family="FreeSans" font-size="10.00" fill="#000000"> elements</text>
</g>
<!-- Node25 -->
<g id="node25" class="node">
<title>Node25</title>
<polygon fill="none" stroke="#bfbfbf" points="601,-119.5 601,-139.5 785,-139.5 785,-119.5 601,-119.5"/>
<text text-anchor="middle" x="693" y="-126.5" font-family="FreeSans" font-size="10.00" fill="#000000">std::unique_ptr&lt; ThinScatterer &gt;</text>
</g>
<!-- Node25&#45;&gt;Node20 -->
<g id="edge35" class="edge">
<title>Node25&#45;&gt;Node20</title>
<path fill="none" stroke="#9a32cd" stroke-dasharray="5,2" d="M795.2994,-132.5431C848.3908,-134.6466 914.2651,-138.0728 973,-143.5 1004.8852,-146.4462 1040.4504,-151.2044 1068.7242,-155.3407"/>
<polygon fill="#9a32cd" stroke="#9a32cd" points="795.3267,-129.0416 785.199,-132.1527 795.0563,-136.0364 795.3267,-129.0416"/>
<text text-anchor="middle" x="888" y="-146.5" font-family="FreeSans" font-size="10.00" fill="#000000"> thinScatterer_</text>
</g>
<!-- Node26&#45;&gt;Node25 -->
<g id="edge36" class="edge">
<title>Node26&#45;&gt;Node25</title>
<path fill="none" stroke="#9a32cd" stroke-dasharray="5,2" d="M341.2484,-129.5C412.4535,-129.5 522.6205,-129.5 600.6682,-129.5"/>
<polygon fill="#9a32cd" stroke="#9a32cd" points="341.034,-126.0001 331.0339,-129.5 341.0339,-133.0001 341.034,-126.0001"/>
<text text-anchor="middle" x="374.5" y="-132.5" font-family="FreeSans" font-size="10.00" fill="#000000"> ptr</text>
</g>
<!-- Node27 -->
<g id="node27" class="node">
<title>Node27</title>
<g id="a_node27"><a xlink:href="../../da/d5d/structgenfit_1_1Material.html" target="_top" xlink:title="genfit::Material">
<polygon fill="none" stroke="#000000" points="7.5,-.5 7.5,-20.5 100.5,-20.5 100.5,-.5 7.5,-.5"/>
<text text-anchor="middle" x="54" y="-7.5" font-family="FreeSans" font-size="10.00" fill="#000000">genfit::Material</text>
</a>
</g>
</g>
<!-- Node27&#45;&gt;Node26 -->
<g id="edge38" class="edge">
<title>Node27&#45;&gt;Node26</title>
<path fill="none" stroke="#9a32cd" stroke-dasharray="5,2" d="M81.3275,-25.5207C126.1082,-50.1345 213.9419,-98.4126 252.0881,-119.3798"/>
<polygon fill="#9a32cd" stroke="#9a32cd" points="82.908,-22.3956 72.4587,-20.6459 79.5362,-28.53 82.908,-22.3956"/>
<text text-anchor="middle" x="159" y="-87.5" font-family="FreeSans" font-size="10.00" fill="#000000"> material_</text>
</g>
<!-- Node28&#45;&gt;Node20 -->
<g id="edge39" class="edge">
<title>Node28&#45;&gt;Node20</title>
<path fill="none" stroke="#9a32cd" stroke-dasharray="5,2" d="M1672.5205,-233.5506C1650.9486,-221.7048 1622.2763,-207.8353 1595,-200.5 1516.685,-179.4391 1279.3262,-168.9104 1173.2221,-165.154"/>
<polygon fill="#9a32cd" stroke="#9a32cd" points="1670.8721,-236.639 1681.3061,-238.4785 1674.2966,-230.5338 1670.8721,-236.639"/>
<text text-anchor="middle" x="1380" y="-184.5" font-family="FreeSans" font-size="10.00" fill="#000000"> fitterInfos_</text>
</g>
<!-- Node29 -->
<g id="node29" class="node">
<title>Node29</title>
<g id="a_node29"><a xlink:href="../../d2/d74/classgenfit_1_1MeasuredStateOnPlane.html" target="_top" xlink:title="StateOnPlane with additional covariance matrix.">
<polygon fill="none" stroke="#000000" points="803,-441.5 803,-461.5 973,-461.5 973,-441.5 803,-441.5"/>
<text text-anchor="middle" x="888" y="-448.5" font-family="FreeSans" font-size="10.00" fill="#000000">genfit::MeasuredStateOnPlane</text>
</a>
</g>
</g>
<!-- Node29&#45;&gt;Node12 -->
<g id="edge42" class="edge">
<title>Node29&#45;&gt;Node12</title>
<path fill="none" stroke="#9a32cd" stroke-dasharray="5,2" d="M983.169,-451.5C1008.652,-451.5 1035.5448,-451.5 1058.7433,-451.5"/>
<polygon fill="#9a32cd" stroke="#9a32cd" points="983.1074,-448.0001 973.1074,-451.5 983.1074,-455.0001 983.1074,-448.0001"/>
<text text-anchor="middle" x="1008.5" y="-454.5" font-family="FreeSans" font-size="10.00" fill="#000000"> state_</text>
</g>
<!-- Node30&#45;&gt;Node29 -->
<g id="edge43" class="edge">
<title>Node30&#45;&gt;Node29</title>
<path fill="none" stroke="#191970" d="M571.2275,-451.5C636.4123,-451.5 733.2809,-451.5 802.7217,-451.5"/>
<polygon fill="#191970" stroke="#191970" points="571.0469,-448.0001 561.0469,-451.5 571.0468,-455.0001 571.0469,-448.0001"/>
</g>
<!-- Node31 -->
<g id="node31" class="node">
<title>Node31</title>
<g id="a_node31"><a xlink:href="../../d1/d35/classPHGenFit_1_1Fitter.html" target="_top" xlink:title="PHGenFit::Fitter">
<polygon fill="none" stroke="#000000" points="1660,-498.5 1660,-518.5 1755,-518.5 1755,-498.5 1660,-498.5"/>
<text text-anchor="middle" x="1707.5" y="-505.5" font-family="FreeSans" font-size="10.00" fill="#000000">PHGenFit::Fitter</text>
</a>
</g>
</g>
<!-- Node31&#45;&gt;Node1 -->
<g id="edge45" class="edge">
<title>Node31&#45;&gt;Node1</title>
<path fill="none" stroke="#9a32cd" stroke-dasharray="5,2" d="M1765.4401,-506.3039C1804.7956,-507.2268 1856.7959,-513.3316 1897,-535.5 1922.6997,-549.6707 1942.1939,-579.6331 1951.1265,-595.3661"/>
<polygon fill="#9a32cd" stroke="#9a32cd" points="1765.2539,-502.8014 1755.2098,-506.1729 1765.1642,-509.8008 1765.2539,-502.8014"/>
<text text-anchor="middle" x="1858.5" y="-538.5" font-family="FreeSans" font-size="10.00" fill="#000000"> _fitter</text>
</g>
<!-- Node32 -->
<g id="node32" class="node">
<title>Node32</title>
<g id="a_node32"><a xlink:href="../../d2/df7/classgenfit_1_1AbsKalmanFitter.html" target="_top" xlink:title="Abstract base class for Kalman fitter and derived fitting algorithms.">
<polygon fill="none" stroke="#000000" points="1312,-569.5 1312,-589.5 1448,-589.5 1448,-569.5 1312,-569.5"/>
<text text-anchor="middle" x="1380" y="-576.5" font-family="FreeSans" font-size="10.00" fill="#000000">genfit::AbsKalmanFitter</text>
</a>
</g>
</g>
<!-- Node32&#45;&gt;Node31 -->
<g id="edge46" class="edge">
<title>Node32&#45;&gt;Node31</title>
<path fill="none" stroke="#9a32cd" stroke-dasharray="5,2" d="M1434.2367,-566.5207C1441.6638,-564.165 1449.1011,-561.4908 1456,-558.5 1464.602,-554.7708 1465.2156,-550.7766 1474,-547.5 1507.2132,-535.1112 1601.6858,-521.7105 1659.7809,-514.2867"/>
<polygon fill="#9a32cd" stroke="#9a32cd" points="1433.0977,-563.2083 1424.5251,-569.434 1435.1091,-569.9131 1433.0977,-563.2083"/>
<text text-anchor="middle" x="1534.5" y="-550.5" font-family="FreeSans" font-size="10.00" fill="#000000"> _fitter</text>
</g>
<!-- Node33 -->
<g id="node33" class="node">
<title>Node33</title>
<g id="a_node33"><a xlink:href="../../d0/dba/classgenfit_1_1AbsFitter.html" target="_top" xlink:title="Abstract base class for fitters.">
<polygon fill="none" stroke="#000000" points="1072,-570.5 1072,-590.5 1170,-590.5 1170,-570.5 1072,-570.5"/>
<text text-anchor="middle" x="1121" y="-577.5" font-family="FreeSans" font-size="10.00" fill="#000000">genfit::AbsFitter</text>
</a>
</g>
</g>
<!-- Node33&#45;&gt;Node32 -->
<g id="edge47" class="edge">
<title>Node33&#45;&gt;Node32</title>
<path fill="none" stroke="#191970" d="M1180.2001,-580.2714C1219.3308,-580.1203 1270.7493,-579.9218 1311.6246,-579.764"/>
<polygon fill="#191970" stroke="#191970" points="1180.0068,-576.7721 1170.0204,-580.3107 1180.0339,-583.772 1180.0068,-576.7721"/>
</g>
<!-- Node34 -->
<g id="node34" class="node">
<title>Node34</title>
<g id="a_node34"><a xlink:href="../../d4/d1a/classgenfit_1_1EventDisplay.html" target="_top" xlink:title="Event display designed to run with Genfit.">
<polygon fill="none" stroke="#000000" points="1320.5,-498.5 1320.5,-518.5 1439.5,-518.5 1439.5,-498.5 1320.5,-498.5"/>
<text text-anchor="middle" x="1380" y="-505.5" font-family="FreeSans" font-size="10.00" fill="#000000">genfit::EventDisplay</text>
</a>
</g>
</g>
<!-- Node34&#45;&gt;Node31 -->
<g id="edge48" class="edge">
<title>Node34&#45;&gt;Node31</title>
<path fill="none" stroke="#9a32cd" stroke-dasharray="5,2" d="M1449.9834,-508.5C1513.266,-508.5 1604.7288,-508.5 1659.9108,-508.5"/>
<polygon fill="#9a32cd" stroke="#9a32cd" points="1449.6878,-505.0001 1439.6877,-508.5 1449.6877,-512.0001 1449.6878,-505.0001"/>
<text text-anchor="middle" x="1534.5" y="-511.5" font-family="FreeSans" font-size="10.00" fill="#000000"> _display</text>
</g>
<!-- Node34&#45;&gt;Node34 -->
<g id="edge51" class="edge">
<title>Node34&#45;&gt;Node34</title>
<path fill="none" stroke="#9a32cd" stroke-dasharray="5,2" d="M1356.2358,-528.0396C1357.6645,-533.145 1365.5859,-537 1380,-537 1402.5,-537 1409.1797,-527.6067 1400.0391,-518.7271"/>
<polygon fill="#9a32cd" stroke="#9a32cd" points="1359.4965,-529.3117 1359.9609,-518.7271 1352.9972,-526.7119 1359.4965,-529.3117"/>
<text text-anchor="middle" x="1380" y="-540" font-family="FreeSans" font-size="10.00" fill="#000000"> eventDisplay_</text>
</g>
<!-- Node35 -->
<g id="node35" class="node">
<title>Node35</title>
<polygon fill="none" stroke="#bfbfbf" points="1091.5,-531.5 1091.5,-551.5 1150.5,-551.5 1150.5,-531.5 1091.5,-531.5"/>
<text text-anchor="middle" x="1121" y="-538.5" font-family="FreeSans" font-size="10.00" fill="#000000">TNamed</text>
</g>
<!-- Node35&#45;&gt;Node34 -->
<g id="edge49" class="edge">
<title>Node35&#45;&gt;Node34</title>
<path fill="none" stroke="#191970" d="M1160.7834,-536.441C1194.2039,-532.19 1243.222,-525.9528 1286,-520.5 1297.0975,-519.0854 1308.9318,-517.5757 1320.3284,-516.1211"/>
<polygon fill="#191970" stroke="#191970" points="1159.9867,-533.014 1150.5083,-537.7478 1160.87,-539.9581 1159.9867,-533.014"/>
</g>
<!-- Node36 -->
<g id="node36" class="node">
<title>Node36</title>
<polygon fill="none" stroke="#bfbfbf" points="1052.5,-480.5 1052.5,-512.5 1189.5,-512.5 1189.5,-480.5 1052.5,-480.5"/>
<text text-anchor="start" x="1060.5" y="-499.5" font-family="FreeSans" font-size="10.00" fill="#000000">std::vector&lt; std::vector</text>
<text text-anchor="middle" x="1121" y="-487.5" font-family="FreeSans" font-size="10.00" fill="#000000">&lt; genfit::Track * &gt; * &gt;</text>
</g>
<!-- Node36&#45;&gt;Node34 -->
<g id="edge50" class="edge">
<title>Node36&#45;&gt;Node34</title>
<path fill="none" stroke="#9a32cd" stroke-dasharray="5,2" d="M1199.9178,-500.1564C1238.6147,-501.9493 1284.4611,-504.0735 1320.2105,-505.7298"/>
<polygon fill="#9a32cd" stroke="#9a32cd" points="1199.8786,-496.6509 1189.7273,-499.6843 1199.5545,-503.6434 1199.8786,-496.6509"/>
<text text-anchor="middle" x="1251" y="-507.5" font-family="FreeSans" font-size="10.00" fill="#000000"> events_</text>
</g>
<!-- Node37&#45;&gt;Node1 -->
<g id="edge53" class="edge">
<title>Node37&#45;&gt;Node1</title>
<path fill="none" stroke="#9a32cd" stroke-dasharray="5,2" d="M1760.9634,-584.4253C1799.0611,-583.726 1851.3923,-584.3503 1897,-590.5 1905.2349,-591.6104 1913.9753,-593.4366 1922.1486,-595.4395"/>
<polygon fill="#9a32cd" stroke="#9a32cd" points="1760.533,-580.9339 1750.6128,-584.6542 1760.6878,-587.9322 1760.533,-580.9339"/>
<text text-anchor="middle" x="1858.5" y="-593.5" font-family="FreeSans" font-size="10.00" fill="#000000"> _trackmap</text>
</g>
<!-- Node38&#45;&gt;Node1 -->
<g id="edge55" class="edge">
<title>Node38&#45;&gt;Node1</title>
<path fill="none" stroke="#9a32cd" stroke-dasharray="5,2" d="M1764.0196,-547.2583C1802.4661,-548.6499 1853.9712,-553.6004 1897,-568.5 1914.7017,-574.6296 1932.6378,-586.774 1944.1204,-595.4785"/>
<polygon fill="#9a32cd" stroke="#9a32cd" points="1763.6371,-543.7458 1753.54,-546.9548 1763.4344,-550.7429 1763.6371,-543.7458"/>
<text text-anchor="middle" x="1858.5" y="-571.5" font-family="FreeSans" font-size="10.00" fill="#000000"> _vertexmap</text>
</g>
</g>
</svg>
