<?xml version="1.0" encoding="UTF-8" standalone="no"?>
<!DOCTYPE svg PUBLIC "-//W3C//DTD SVG 1.1//EN"
 "http://www.w3.org/Graphics/SVG/1.1/DTD/svg11.dtd">
<!-- Generated by graphviz version 2.40.1 (20161225.0304)
 -->
<!-- Title: TrackProjectorPlaneECAL::TrackProjectorPlaneECAL Pages: 1 -->
<svg width="961pt" height="431pt"
 viewBox="0.00 0.00 961.00 431.00" xmlns="http://www.w3.org/2000/svg" xmlns:xlink="http://www.w3.org/1999/xlink">
<g id="graph0" class="graph" transform="scale(1 1) rotate(0) translate(4 427)">
<title>TrackProjectorPlaneECAL::TrackProjectorPlaneECAL</title>
<!-- Node1 -->
<g id="node1" class="node">
<title>Node1</title>
<polygon fill="#bfbfbf" stroke="#000000" points="0,-105.5 0,-137.5 148,-137.5 148,-105.5 0,-105.5"/>
<text text-anchor="start" x="8" y="-124.5" font-family="FreeSans" font-size="10.00" fill="#000000">TrackProjectorPlaneECAL</text>
<text text-anchor="middle" x="74" y="-112.5" font-family="FreeSans" font-size="10.00" fill="#000000">::TrackProjectorPlaneECAL</text>
</g>
<!-- Node2 -->
<g id="node2" class="node">
<title>Node2</title>
<g id="a_node2"><a xlink:href="../../df/d4d/classPHFieldUtility.html#a3afdd4e878d02b30b6f2c396e52b8e48" target="_top" xlink:title="Get transient PHField from DST nodes. If not found, make a new one based on default_config.">
<polygon fill="none" stroke="#000000" points="211.5,-319.5 211.5,-351.5 341.5,-351.5 341.5,-319.5 211.5,-319.5"/>
<text text-anchor="start" x="219.5" y="-338.5" font-family="FreeSans" font-size="10.00" fill="#000000">PHFieldUtility::GetField</text>
<text text-anchor="middle" x="276.5" y="-326.5" font-family="FreeSans" font-size="10.00" fill="#000000">MapNode</text>
</a>
</g>
</g>
<!-- Node1&#45;&gt;Node2 -->
<g id="edge1" class="edge">
<title>Node1&#45;&gt;Node2</title>
<path fill="none" stroke="#191970" d="M89.2204,-137.5848C124.6226,-174.9975 212.6323,-268.0053 254.1491,-311.8798"/>
<polygon fill="#191970" stroke="#191970" points="251.6875,-314.3706 261.103,-319.2286 256.772,-309.5594 251.6875,-314.3706"/>
</g>
<!-- Node8 -->
<g id="node8" class="node">
<title>Node8</title>
<g id="a_node8"><a xlink:href="../../d1/d35/classPHGenFit_1_1Fitter.html#ad3729fabd2bd8a7feebbd79317b38a77" target="_top" xlink:title="PHGenFit::Fitter::getInstance">
<polygon fill="none" stroke="#000000" points="196,-143.5 196,-163.5 357,-163.5 357,-143.5 196,-143.5"/>
<text text-anchor="middle" x="276.5" y="-150.5" font-family="FreeSans" font-size="10.00" fill="#000000">PHGenFit::Fitter::getInstance</text>
</a>
</g>
</g>
<!-- Node1&#45;&gt;Node8 -->
<g id="edge8" class="edge">
<title>Node1&#45;&gt;Node8</title>
<path fill="none" stroke="#191970" d="M148.2537,-133.2339C165.9931,-136.0372 184.9253,-139.0289 202.6466,-141.8293"/>
<polygon fill="#191970" stroke="#191970" points="202.4989,-145.3493 212.9226,-143.4532 203.5915,-138.4351 202.4989,-145.3493"/>
</g>
<!-- Node19 -->
<g id="node19" class="node">
<title>Node19</title>
<g id="a_node19"><a xlink:href="../../d2/da1/classPHGeomUtility.html#aa80925b14430021ea70d0b906af8e885" target="_top" xlink:title="Main user interface: DST node &#45;&gt; TGeoManager for downstream use.">
<polygon fill="none" stroke="#000000" points="184,-39.5 184,-59.5 369,-59.5 369,-39.5 184,-39.5"/>
<text text-anchor="middle" x="276.5" y="-46.5" font-family="FreeSans" font-size="10.00" fill="#000000">PHGeomUtility::GetTGeoManager</text>
</a>
</g>
</g>
<!-- Node1&#45;&gt;Node19 -->
<g id="edge19" class="edge">
<title>Node1&#45;&gt;Node19</title>
<path fill="none" stroke="#191970" d="M108.1934,-105.4243C129.6646,-95.6986 158.1008,-83.4835 184,-74.5 196.8999,-70.0255 211.0365,-65.8503 224.2908,-62.2425"/>
<polygon fill="#191970" stroke="#191970" points="225.4567,-65.554 234.2193,-59.5985 223.6554,-58.7897 225.4567,-65.554"/>
</g>
<!-- Node23 -->
<g id="node23" class="node">
<title>Node23</title>
<g id="a_node23"><a xlink:href="../../d1/d35/classPHGenFit_1_1Fitter.html#a7ff3cd73102feae80a130a228939b5c6" target="_top" xlink:title="PHGenFit::Fitter::set\l_verbosity">
<polygon fill="none" stroke="#000000" points="218,-83.5 218,-115.5 335,-115.5 335,-83.5 218,-83.5"/>
<text text-anchor="start" x="226" y="-102.5" font-family="FreeSans" font-size="10.00" fill="#000000">PHGenFit::Fitter::set</text>
<text text-anchor="middle" x="276.5" y="-90.5" font-family="FreeSans" font-size="10.00" fill="#000000">_verbosity</text>
</a>
</g>
</g>
<!-- Node1&#45;&gt;Node23 -->
<g id="edge24" class="edge">
<title>Node1&#45;&gt;Node23</title>
<path fill="none" stroke="#191970" d="M148.2537,-113.4329C167.677,-111.3227 188.5303,-109.0572 207.6584,-106.9791"/>
<polygon fill="#191970" stroke="#191970" points="208.2228,-110.4385 217.7863,-105.8788 207.4667,-103.4794 208.2228,-110.4385"/>
</g>
<!-- Node3 -->
<g id="node3" class="node">
<title>Node3</title>
<g id="a_node3"><a xlink:href="../../d5/d07/classPHNodeIterator.html#aea98bf8619af59b1212a94fb32106baa" target="_top" xlink:title="PHNodeIterator::findFirst">
<polygon fill="none" stroke="#000000" points="415.5,-345.5 415.5,-365.5 556.5,-365.5 556.5,-345.5 415.5,-345.5"/>
<text text-anchor="middle" x="486" y="-352.5" font-family="FreeSans" font-size="10.00" fill="#000000">PHNodeIterator::findFirst</text>
</a>
</g>
</g>
<!-- Node2&#45;&gt;Node3 -->
<g id="edge2" class="edge">
<title>Node2&#45;&gt;Node3</title>
<path fill="none" stroke="#191970" d="M341.6387,-341.7185C361.7675,-343.6401 384.1847,-345.7802 405.2361,-347.7898"/>
<polygon fill="#191970" stroke="#191970" points="405.1574,-351.2982 415.4447,-348.7644 405.8226,-344.3298 405.1574,-351.2982"/>
</g>
<!-- Node6 -->
<g id="node6" class="node">
<title>Node6</title>
<g id="a_node6"><a xlink:href="../../da/d29/classFun4AllServer.html#a3e55156f91b2c94bb6c4ef33ffce587a" target="_top" xlink:title="Fun4AllServer::instance">
<polygon fill="none" stroke="#000000" points="418,-306.5 418,-326.5 554,-326.5 554,-306.5 418,-306.5"/>
<text text-anchor="middle" x="486" y="-313.5" font-family="FreeSans" font-size="10.00" fill="#000000">Fun4AllServer::instance</text>
</a>
</g>
</g>
<!-- Node2&#45;&gt;Node6 -->
<g id="edge6" class="edge">
<title>Node2&#45;&gt;Node6</title>
<path fill="none" stroke="#191970" d="M341.6387,-329.5924C362.4811,-327.7022 385.7772,-325.5894 407.4699,-323.6221"/>
<polygon fill="#191970" stroke="#191970" points="407.9967,-327.0887 417.6397,-322.6997 407.3644,-320.1174 407.9967,-327.0887"/>
</g>
<!-- Node7 -->
<g id="node7" class="node">
<title>Node7</title>
<g id="a_node7"><a xlink:href="../../da/d29/classFun4AllServer.html#abcaf6825367e5db292ff795237bdcf62" target="_top" xlink:title="Fun4AllServer::topNode">
<polygon fill="none" stroke="#000000" points="418,-402.5 418,-422.5 554,-422.5 554,-402.5 418,-402.5"/>
<text text-anchor="middle" x="486" y="-409.5" font-family="FreeSans" font-size="10.00" fill="#000000">Fun4AllServer::topNode</text>
</a>
</g>
</g>
<!-- Node2&#45;&gt;Node7 -->
<g id="edge7" class="edge">
<title>Node2&#45;&gt;Node7</title>
<path fill="none" stroke="#191970" d="M307.4983,-351.5423C333.1085,-364.2916 370.697,-381.8578 405,-393.5 411.8646,-395.8298 419.1508,-397.9763 426.4294,-399.9219"/>
<polygon fill="#191970" stroke="#191970" points="425.7544,-403.3619 436.3098,-402.4488 427.4889,-396.5802 425.7544,-403.3619"/>
</g>
<!-- Node3&#45;&gt;Node3 -->
<g id="edge3" class="edge">
<title>Node3&#45;&gt;Node3</title>
<path fill="none" stroke="#191970" d="M453.6865,-365.5791C438.4632,-374.502 449.2344,-384 486,-384 511.8508,-384 524.8504,-379.3043 524.9987,-373.4146"/>
<polygon fill="#191970" stroke="#191970" points="527.4668,-370.9148 518.3135,-365.5791 522.1416,-375.4583 527.4668,-370.9148"/>
</g>
<!-- Node4 -->
<g id="node4" class="node">
<title>Node4</title>
<g id="a_node4"><a xlink:href="../../dc/d82/classPHNode.html#aca3576f926a4401eddc3d88bf0ce0de3" target="_top" xlink:title="PHNode::getName">
<polygon fill="none" stroke="#000000" points="641.5,-345.5 641.5,-365.5 750.5,-365.5 750.5,-345.5 641.5,-345.5"/>
<text text-anchor="middle" x="696" y="-352.5" font-family="FreeSans" font-size="10.00" fill="#000000">PHNode::getName</text>
</a>
</g>
</g>
<!-- Node3&#45;&gt;Node4 -->
<g id="edge4" class="edge">
<title>Node3&#45;&gt;Node4</title>
<path fill="none" stroke="#191970" d="M556.5112,-355.5C580.5916,-355.5 607.3945,-355.5 631.019,-355.5"/>
<polygon fill="#191970" stroke="#191970" points="631.2791,-359.0001 641.2791,-355.5 631.279,-352.0001 631.2791,-359.0001"/>
</g>
<!-- Node5 -->
<g id="node5" class="node">
<title>Node5</title>
<g id="a_node5"><a xlink:href="../../dc/d82/classPHNode.html#a4ab1f90aed955a652813bfe377087bda" target="_top" xlink:title="PHNode::getType">
<polygon fill="none" stroke="#000000" points="644.5,-384.5 644.5,-404.5 747.5,-404.5 747.5,-384.5 644.5,-384.5"/>
<text text-anchor="middle" x="696" y="-391.5" font-family="FreeSans" font-size="10.00" fill="#000000">PHNode::getType</text>
</a>
</g>
</g>
<!-- Node3&#45;&gt;Node5 -->
<g id="edge5" class="edge">
<title>Node3&#45;&gt;Node5</title>
<path fill="none" stroke="#191970" d="M540.0802,-365.5435C568.9048,-370.8966 604.4844,-377.5043 634.3746,-383.0553"/>
<polygon fill="#191970" stroke="#191970" points="633.8041,-386.5091 644.2751,-384.894 635.0823,-379.6268 633.8041,-386.5091"/>
</g>
<!-- Node9 -->
<g id="node9" class="node">
<title>Node9</title>
<g id="a_node9"><a xlink:href="../../d1/d35/classPHGenFit_1_1Fitter.html#ab245e2833a4d6880cc1c836bc46389b2" target="_top" xlink:title="Default constructor.">
<polygon fill="none" stroke="#000000" points="422,-147.5 422,-167.5 550,-167.5 550,-147.5 422,-147.5"/>
<text text-anchor="middle" x="486" y="-154.5" font-family="FreeSans" font-size="10.00" fill="#000000">PHGenFit::Fitter::Fitter</text>
</a>
</g>
</g>
<!-- Node8&#45;&gt;Node9 -->
<g id="edge9" class="edge">
<title>Node8&#45;&gt;Node9</title>
<path fill="none" stroke="#191970" d="M357.1985,-155.0408C375.1208,-155.383 394.0361,-155.7441 411.6885,-156.0812"/>
<polygon fill="#191970" stroke="#191970" points="411.8539,-159.5849 421.9189,-156.2765 411.9876,-152.5861 411.8539,-159.5849"/>
</g>
<!-- Node10 -->
<g id="node10" class="node">
<title>Node10</title>
<g id="a_node10"><a xlink:href="../../de/d8e/classgenfit_1_1FieldManager.html#aaf0b56fea4f0deb428de8749febf792d" target="_top" xlink:title="Get singleton instance.">
<polygon fill="none" stroke="#000000" points="635.5,-90.5 635.5,-122.5 756.5,-122.5 756.5,-90.5 635.5,-90.5"/>
<text text-anchor="start" x="643.5" y="-109.5" font-family="FreeSans" font-size="10.00" fill="#000000">genfit::FieldManager</text>
<text text-anchor="middle" x="696" y="-97.5" font-family="FreeSans" font-size="10.00" fill="#000000">::getInstance</text>
</a>
</g>
</g>
<!-- Node9&#45;&gt;Node10 -->
<g id="edge10" class="edge">
<title>Node9&#45;&gt;Node10</title>
<path fill="none" stroke="#191970" d="M527.2387,-147.4849C555.1672,-140.7022 592.7818,-131.5673 625.4115,-123.6429"/>
<polygon fill="#191970" stroke="#191970" points="626.4702,-126.9876 635.3617,-121.2264 624.8181,-120.1854 626.4702,-126.9876"/>
</g>
<!-- Node12 -->
<g id="node12" class="node">
<title>Node12</title>
<g id="a_node12"><a xlink:href="../../de/d8e/classgenfit_1_1FieldManager.html#a0360198b189d2d5acaebfca7a468437e" target="_top" xlink:title="set the magnetic field here. Magnetic field classes must be derived from AbsBField.">
<polygon fill="none" stroke="#000000" points="635.5,-294.5 635.5,-326.5 756.5,-326.5 756.5,-294.5 635.5,-294.5"/>
<text text-anchor="start" x="643.5" y="-313.5" font-family="FreeSans" font-size="10.00" fill="#000000">genfit::FieldManager</text>
<text text-anchor="middle" x="696" y="-301.5" font-family="FreeSans" font-size="10.00" fill="#000000">::init</text>
</a>
</g>
</g>
<!-- Node9&#45;&gt;Node12 -->
<g id="edge12" class="edge">
<title>Node9&#45;&gt;Node12</title>
<path fill="none" stroke="#191970" d="M492.2537,-167.6035C507.8093,-191.8634 550.7828,-253.7408 603,-285.5 610.0072,-289.7619 617.7437,-293.3084 625.6728,-296.2572"/>
<polygon fill="#191970" stroke="#191970" points="624.8096,-299.6604 635.404,-299.5656 627.0628,-293.0329 624.8096,-299.6604"/>
</g>
<!-- Node13 -->
<g id="node13" class="node">
<title>Node13</title>
<g id="a_node13"><a xlink:href="../../d1/d34/classgenfit_1_1MaterialEffects.html#a15a93d367165ade368e6caec713d0934" target="_top" xlink:title="genfit::MaterialEffects\l::getInstance">
<polygon fill="none" stroke="#000000" points="632,-243.5 632,-275.5 760,-275.5 760,-243.5 632,-243.5"/>
<text text-anchor="start" x="640" y="-262.5" font-family="FreeSans" font-size="10.00" fill="#000000">genfit::MaterialEffects</text>
<text text-anchor="middle" x="696" y="-250.5" font-family="FreeSans" font-size="10.00" fill="#000000">::getInstance</text>
</a>
</g>
</g>
<!-- Node9&#45;&gt;Node13 -->
<g id="edge13" class="edge">
<title>Node9&#45;&gt;Node13</title>
<path fill="none" stroke="#191970" d="M498.538,-167.7281C519.1383,-184.06 561.9668,-216.0606 603,-234.5 609.0452,-237.2166 615.4481,-239.6913 621.9531,-241.9339"/>
<polygon fill="#191970" stroke="#191970" points="620.9344,-245.283 631.5268,-245.0546 623.1039,-238.6277 620.9344,-245.283"/>
</g>
<!-- Node15 -->
<g id="node15" class="node">
<title>Node15</title>
<g id="a_node15"><a xlink:href="../../d1/d34/classgenfit_1_1MaterialEffects.html#a9c604002cb66d43e99da8802e3b8918e" target="_top" xlink:title="set the material interface here. Material interface classes must be derived from AbsMaterialInterface...">
<polygon fill="none" stroke="#000000" points="632,-192.5 632,-224.5 760,-224.5 760,-192.5 632,-192.5"/>
<text text-anchor="start" x="640" y="-211.5" font-family="FreeSans" font-size="10.00" fill="#000000">genfit::MaterialEffects</text>
<text text-anchor="middle" x="696" y="-199.5" font-family="FreeSans" font-size="10.00" fill="#000000">::init</text>
</a>
</g>
</g>
<!-- Node9&#45;&gt;Node15 -->
<g id="edge15" class="edge">
<title>Node9&#45;&gt;Node15</title>
<path fill="none" stroke="#191970" d="M527.2387,-167.5151C554.193,-174.0611 590.1693,-182.7983 621.9792,-190.5235"/>
<polygon fill="#191970" stroke="#191970" points="621.1593,-193.9261 631.7029,-192.885 622.8113,-187.1238 621.1593,-193.9261"/>
</g>
<!-- Node16 -->
<g id="node16" class="node">
<title>Node16</title>
<g id="a_node16"><a xlink:href="../../d4/d1a/classgenfit_1_1EventDisplay.html#acc398c4fb9fce23fbc106453d5a55718" target="_top" xlink:title="genfit::EventDisplay\l::getInstance">
<polygon fill="none" stroke="#000000" points="636.5,-141.5 636.5,-173.5 755.5,-173.5 755.5,-141.5 636.5,-141.5"/>
<text text-anchor="start" x="644.5" y="-160.5" font-family="FreeSans" font-size="10.00" fill="#000000">genfit::EventDisplay</text>
<text text-anchor="middle" x="696" y="-148.5" font-family="FreeSans" font-size="10.00" fill="#000000">::getInstance</text>
</a>
</g>
</g>
<!-- Node9&#45;&gt;Node16 -->
<g id="edge16" class="edge">
<title>Node9&#45;&gt;Node16</title>
<path fill="none" stroke="#191970" d="M550.148,-157.5C574.106,-157.5 601.4258,-157.5 625.8934,-157.5"/>
<polygon fill="#191970" stroke="#191970" points="626.1869,-161.0001 636.1868,-157.5 626.1868,-154.0001 626.1869,-161.0001"/>
</g>
<!-- Node18 -->
<g id="node18" class="node">
<title>Node18</title>
<g id="a_node18"><a xlink:href="../../d8/db3/classgenfit_1_1Exception.html#adc12ce3fb68f9869627e0551a5a7822c" target="_top" xlink:title="&quot;std::cerr &lt;&lt; e.what();&quot; will not write anything.">
<polygon fill="none" stroke="#000000" points="642,-39.5 642,-71.5 750,-71.5 750,-39.5 642,-39.5"/>
<text text-anchor="start" x="650" y="-58.5" font-family="FreeSans" font-size="10.00" fill="#000000">genfit::Exception::</text>
<text text-anchor="middle" x="696" y="-46.5" font-family="FreeSans" font-size="10.00" fill="#000000">quiet</text>
</a>
</g>
</g>
<!-- Node9&#45;&gt;Node18 -->
<g id="edge18" class="edge">
<title>Node9&#45;&gt;Node18</title>
<path fill="none" stroke="#191970" d="M503.6951,-147.4774C520.3195,-137.9025 545.7493,-122.8449 567,-108.5 583.5767,-97.3102 585.0617,-90.3441 603,-81.5 612.022,-77.0519 621.9236,-73.2606 631.7969,-70.0626"/>
<polygon fill="#191970" stroke="#191970" points="633.0857,-73.3286 641.6271,-67.06 631.0408,-66.634 633.0857,-73.3286"/>
</g>
<!-- Node11 -->
<g id="node11" class="node">
<title>Node11</title>
<g id="a_node11"><a xlink:href="../../de/d8e/classgenfit_1_1FieldManager.html#a01194f10c4efe8d19286492ba01e104e" target="_top" xlink:title="genfit::FieldManager\l::FieldManager">
<polygon fill="none" stroke="#000000" points="828.5,-90.5 828.5,-122.5 949.5,-122.5 949.5,-90.5 828.5,-90.5"/>
<text text-anchor="start" x="836.5" y="-109.5" font-family="FreeSans" font-size="10.00" fill="#000000">genfit::FieldManager</text>
<text text-anchor="middle" x="889" y="-97.5" font-family="FreeSans" font-size="10.00" fill="#000000">::FieldManager</text>
</a>
</g>
</g>
<!-- Node10&#45;&gt;Node11 -->
<g id="edge11" class="edge">
<title>Node10&#45;&gt;Node11</title>
<path fill="none" stroke="#191970" d="M756.5369,-106.5C776.1129,-106.5 797.9931,-106.5 818.2419,-106.5"/>
<polygon fill="#191970" stroke="#191970" points="818.3464,-110.0001 828.3464,-106.5 818.3463,-103.0001 818.3464,-110.0001"/>
</g>
<!-- Node14 -->
<g id="node14" class="node">
<title>Node14</title>
<g id="a_node14"><a xlink:href="../../d1/d34/classgenfit_1_1MaterialEffects.html#a0cab227e2f45bd20ba63cf1b2ad260be" target="_top" xlink:title="genfit::MaterialEffects\l::MaterialEffects">
<polygon fill="none" stroke="#000000" points="825,-243.5 825,-275.5 953,-275.5 953,-243.5 825,-243.5"/>
<text text-anchor="start" x="833" y="-262.5" font-family="FreeSans" font-size="10.00" fill="#000000">genfit::MaterialEffects</text>
<text text-anchor="middle" x="889" y="-250.5" font-family="FreeSans" font-size="10.00" fill="#000000">::MaterialEffects</text>
</a>
</g>
</g>
<!-- Node13&#45;&gt;Node14 -->
<g id="edge14" class="edge">
<title>Node13&#45;&gt;Node14</title>
<path fill="none" stroke="#191970" d="M760.2662,-259.5C777.6719,-259.5 796.6584,-259.5 814.5725,-259.5"/>
<polygon fill="#191970" stroke="#191970" points="814.6856,-263.0001 824.6856,-259.5 814.6856,-256.0001 814.6856,-263.0001"/>
</g>
<!-- Node17 -->
<g id="node17" class="node">
<title>Node17</title>
<g id="a_node17"><a xlink:href="../../d4/d1a/classgenfit_1_1EventDisplay.html#a3aa96da8f0486f3420b620cebb6b9f00" target="_top" xlink:title="genfit::EventDisplay\l::EventDisplay">
<polygon fill="none" stroke="#000000" points="829.5,-141.5 829.5,-173.5 948.5,-173.5 948.5,-141.5 829.5,-141.5"/>
<text text-anchor="start" x="837.5" y="-160.5" font-family="FreeSans" font-size="10.00" fill="#000000">genfit::EventDisplay</text>
<text text-anchor="middle" x="889" y="-148.5" font-family="FreeSans" font-size="10.00" fill="#000000">::EventDisplay</text>
</a>
</g>
</g>
<!-- Node16&#45;&gt;Node17 -->
<g id="edge17" class="edge">
<title>Node16&#45;&gt;Node17</title>
<path fill="none" stroke="#191970" d="M755.7447,-157.5C775.819,-157.5 798.3882,-157.5 819.1673,-157.5"/>
<polygon fill="#191970" stroke="#191970" points="819.2054,-161.0001 829.2054,-157.5 819.2053,-154.0001 819.2054,-161.0001"/>
</g>
<!-- Node20 -->
<g id="node20" class="node">
<title>Node20</title>
<g id="a_node20"><a xlink:href="../../d7/d6d/classPHGeomTGeo.html#a3e111f6229f7ce6392b14a98fdf5bea9" target="_top" xlink:title="PHGeomTGeo::GetGeometry">
<polygon fill="none" stroke="#000000" points="405,-39.5 405,-59.5 567,-59.5 567,-39.5 405,-39.5"/>
<text text-anchor="middle" x="486" y="-46.5" font-family="FreeSans" font-size="10.00" fill="#000000">PHGeomTGeo::GetGeometry</text>
</a>
</g>
</g>
<!-- Node19&#45;&gt;Node20 -->
<g id="edge20" class="edge">
<title>Node19&#45;&gt;Node20</title>
<path fill="none" stroke="#191970" d="M369.3046,-49.5C377.7082,-49.5 386.2157,-49.5 394.6069,-49.5"/>
<polygon fill="#191970" stroke="#191970" points="394.77,-53.0001 404.7699,-49.5 394.7699,-46.0001 394.77,-53.0001"/>
</g>
<!-- Node22 -->
<g id="node22" class="node">
<title>Node22</title>
<g id="a_node22"><a xlink:href="../../d7/d6d/classPHGeomTGeo.html#a69190f7dbaee394d90516bce19e224a0" target="_top" xlink:title="isValid returns non zero if object contains vailid data">
<polygon fill="none" stroke="#000000" points="423,-.5 423,-20.5 549,-20.5 549,-.5 423,-.5"/>
<text text-anchor="middle" x="486" y="-7.5" font-family="FreeSans" font-size="10.00" fill="#000000">PHGeomTGeo::isValid</text>
</a>
</g>
</g>
<!-- Node19&#45;&gt;Node22 -->
<g id="edge22" class="edge">
<title>Node19&#45;&gt;Node22</title>
<path fill="none" stroke="#191970" d="M330.4515,-39.4565C358.4316,-34.2478 392.7922,-27.8513 422.0959,-22.3962"/>
<polygon fill="#191970" stroke="#191970" points="423.0408,-25.7805 432.2314,-20.5094 421.7597,-18.8988 423.0408,-25.7805"/>
</g>
<!-- Node21 -->
<g id="node21" class="node">
<title>Node21</title>
<g id="a_node21"><a xlink:href="../../d7/d6d/classPHGeomTGeo.html#af37739b87530fe2bbd5d8d03098c1821" target="_top" xlink:title="PHGeomTGeo::ConsistencyCheck">
<polygon fill="none" stroke="#000000" points="603,-.5 603,-20.5 789,-20.5 789,-.5 603,-.5"/>
<text text-anchor="middle" x="696" y="-7.5" font-family="FreeSans" font-size="10.00" fill="#000000">PHGeomTGeo::ConsistencyCheck</text>
</a>
</g>
</g>
<!-- Node20&#45;&gt;Node21 -->
<g id="edge21" class="edge">
<title>Node20&#45;&gt;Node21</title>
<path fill="none" stroke="#191970" d="M540.0802,-39.4565C568.1272,-34.2478 602.5697,-27.8513 631.9434,-22.3962"/>
<polygon fill="#191970" stroke="#191970" points="632.9103,-25.7766 642.103,-20.5094 631.6321,-18.8943 632.9103,-25.7766"/>
</g>
<!-- Node22&#45;&gt;Node21 -->
<g id="edge23" class="edge">
<title>Node22&#45;&gt;Node21</title>
<path fill="none" stroke="#191970" d="M549.0069,-10.5C562.7495,-10.5 577.6412,-10.5 592.493,-10.5"/>
<polygon fill="#191970" stroke="#191970" points="592.7541,-14.0001 602.754,-10.5 592.754,-7.0001 592.7541,-14.0001"/>
</g>
<!-- Node23&#45;&gt;Node18 -->
<g id="edge25" class="edge">
<title>Node23&#45;&gt;Node18</title>
<path fill="none" stroke="#191970" d="M335.2092,-93.5275C393.8935,-87.5362 486.7056,-78.003 567,-69.5 588.0807,-67.2676 611.0938,-64.7847 631.7702,-62.5372"/>
<polygon fill="#191970" stroke="#191970" points="632.1515,-66.0164 641.7141,-61.4549 631.394,-59.0575 632.1515,-66.0164"/>
</g>
</g>
</svg>
