<?xml version="1.0" encoding="UTF-8" standalone="no"?>
<!DOCTYPE svg PUBLIC "-//W3C//DTD SVG 1.1//EN"
 "http://www.w3.org/Graphics/SVG/1.1/DTD/svg11.dtd">
<!-- Generated by graphviz version 2.40.1 (20161225.0304)
 -->
<!-- Title: coresoftware/blob/master/simulation/g4simulation/g4detectors/PHG4CylinderGeomContainer.h Pages: 1 -->
<svg width="6258pt" height="146pt"
 viewBox="0.00 0.00 6257.50 146.00" xmlns="http://www.w3.org/2000/svg" xmlns:xlink="http://www.w3.org/1999/xlink">
<g id="graph0" class="graph" transform="scale(1 1) rotate(0) translate(4 142)">
<title>coresoftware/blob/master/simulation/g4simulation/g4detectors/PHG4CylinderGeomContainer.h</title>
<!-- Node1 -->
<g id="node1" class="node">
<title>Node1</title>
<polygon fill="#bfbfbf" stroke="#000000" points="2984.5,-93.5 2984.5,-137.5 3227.5,-137.5 3227.5,-93.5 2984.5,-93.5"/>
<text text-anchor="start" x="2992.5" y="-124.5" font-family="FreeSans" font-size="10.00" fill="#000000">coresoftware/blob/master</text>
<text text-anchor="start" x="2992.5" y="-112.5" font-family="FreeSans" font-size="10.00" fill="#000000">/simulation/g4simulation</text>
<text text-anchor="middle" x="3106" y="-100.5" font-family="FreeSans" font-size="10.00" fill="#000000">/g4detectors/PHG4CylinderGeomContainer.h</text>
</g>
<!-- Node2 -->
<g id="node2" class="node">
<title>Node2</title>
<g id="a_node2"><a xlink:href="../../d2/da5/InttClusterizer_8cc.html" target="_top" xlink:title="coresoftware/blob/master\l/offline/packages/intt\l/InttClusterizer.cc">
<polygon fill="none" stroke="#000000" points="0,-6.5 0,-50.5 146,-50.5 146,-6.5 0,-6.5"/>
<text text-anchor="start" x="8" y="-37.5" font-family="FreeSans" font-size="10.00" fill="#000000">coresoftware/blob/master</text>
<text text-anchor="start" x="8" y="-25.5" font-family="FreeSans" font-size="10.00" fill="#000000">/offline/packages/intt</text>
<text text-anchor="middle" x="73" y="-13.5" font-family="FreeSans" font-size="10.00" fill="#000000">/InttClusterizer.cc</text>
</a>
</g>
</g>
<!-- Node1&#45;&gt;Node2 -->
<g id="edge1" class="edge">
<title>Node1&#45;&gt;Node2</title>
<path fill="none" stroke="#191970" d="M2974.1386,-115.3222C2437.6494,-114.2669 434.1867,-106.985 155,-57 146.3954,-55.4594 137.4806,-53.154 128.8379,-50.5094"/>
<polygon fill="#191970" stroke="#191970" points="2974.2331,-118.8223 2984.2398,-115.3417 2974.2466,-111.8223 2974.2331,-118.8223"/>
</g>
<!-- Node3 -->
<g id="node3" class="node">
<title>Node3</title>
<g id="a_node3"><a xlink:href="../../df/db4/MvtxClusterizer_8cc.html" target="_top" xlink:title="Implementation of MvtxClusterizer.">
<polygon fill="none" stroke="#000000" points="164,-6.5 164,-50.5 310,-50.5 310,-6.5 164,-6.5"/>
<text text-anchor="start" x="172" y="-37.5" font-family="FreeSans" font-size="10.00" fill="#000000">coresoftware/blob/master</text>
<text text-anchor="start" x="172" y="-25.5" font-family="FreeSans" font-size="10.00" fill="#000000">/offline/packages/mvtx</text>
<text text-anchor="middle" x="237" y="-13.5" font-family="FreeSans" font-size="10.00" fill="#000000">/MvtxClusterizer.cc</text>
</a>
</g>
</g>
<!-- Node1&#45;&gt;Node3 -->
<g id="edge2" class="edge">
<title>Node1&#45;&gt;Node3</title>
<path fill="none" stroke="#191970" d="M2974.179,-115.1549C2456.9135,-113.4699 581.402,-104.1378 319,-57 310.3963,-55.4544 301.482,-53.1463 292.8395,-50.5004"/>
<polygon fill="#191970" stroke="#191970" points="2974.2845,-118.6552 2984.2957,-115.1875 2974.307,-111.6552 2974.2845,-118.6552"/>
</g>
<!-- Node4 -->
<g id="node4" class="node">
<title>Node4</title>
<g id="a_node4"><a xlink:href="../../d2/ddb/DumpPHG4CylinderGeomContainer_8cc.html" target="_top" xlink:title="coresoftware/blob/master\l/offline/packages/NodeDump\l/DumpPHG4CylinderGeomContainer.cc">
<polygon fill="none" stroke="#000000" points="328,-6.5 328,-50.5 542,-50.5 542,-6.5 328,-6.5"/>
<text text-anchor="start" x="336" y="-37.5" font-family="FreeSans" font-size="10.00" fill="#000000">coresoftware/blob/master</text>
<text text-anchor="start" x="336" y="-25.5" font-family="FreeSans" font-size="10.00" fill="#000000">/offline/packages/NodeDump</text>
<text text-anchor="middle" x="435" y="-13.5" font-family="FreeSans" font-size="10.00" fill="#000000">/DumpPHG4CylinderGeomContainer.cc</text>
</a>
</g>
</g>
<!-- Node1&#45;&gt;Node4 -->
<g id="edge3" class="edge">
<title>Node1&#45;&gt;Node4</title>
<path fill="none" stroke="#191970" d="M2973.9194,-114.1631C2484.6692,-108.9791 791.4031,-88.8956 551,-57 539.1793,-55.4317 526.8166,-53.1301 514.7517,-50.5037"/>
<polygon fill="#191970" stroke="#191970" points="2974.1643,-117.6658 2984.2007,-114.2717 2974.2383,-110.6662 2974.1643,-117.6658"/>
</g>
<!-- Node5 -->
<g id="node5" class="node">
<title>Node5</title>
<g id="a_node5"><a xlink:href="../../d8/df7/PHCASeeding_8cc.html" target="_top" xlink:title="coresoftware/blob/master\l/offline/packages/trackreco\l/PHCASeeding.cc">
<polygon fill="none" stroke="#000000" points="560,-6.5 560,-50.5 714,-50.5 714,-6.5 560,-6.5"/>
<text text-anchor="start" x="568" y="-37.5" font-family="FreeSans" font-size="10.00" fill="#000000">coresoftware/blob/master</text>
<text text-anchor="start" x="568" y="-25.5" font-family="FreeSans" font-size="10.00" fill="#000000">/offline/packages/trackreco</text>
<text text-anchor="middle" x="637" y="-13.5" font-family="FreeSans" font-size="10.00" fill="#000000">/PHCASeeding.cc</text>
</a>
</g>
</g>
<!-- Node1&#45;&gt;Node5 -->
<g id="edge4" class="edge">
<title>Node1&#45;&gt;Node5</title>
<path fill="none" stroke="#191970" d="M2974.0934,-114.5343C2506.5358,-110.7979 944.462,-95.5343 723,-57 714.1671,-55.4631 705.0042,-53.1977 696.0959,-50.6044"/>
<polygon fill="#191970" stroke="#191970" points="2974.2354,-118.0354 2984.263,-114.6151 2974.2911,-111.0356 2974.2354,-118.0354"/>
</g>
<!-- Node6 -->
<g id="node6" class="node">
<title>Node6</title>
<g id="a_node6"><a xlink:href="../../d0/d52/PHGenFitTrkFitter_8cc.html" target="_top" xlink:title="coresoftware/blob/master\l/offline/packages/trackreco\l/PHGenFitTrkFitter.cc">
<polygon fill="none" stroke="#000000" points="732,-6.5 732,-50.5 886,-50.5 886,-6.5 732,-6.5"/>
<text text-anchor="start" x="740" y="-37.5" font-family="FreeSans" font-size="10.00" fill="#000000">coresoftware/blob/master</text>
<text text-anchor="start" x="740" y="-25.5" font-family="FreeSans" font-size="10.00" fill="#000000">/offline/packages/trackreco</text>
<text text-anchor="middle" x="809" y="-13.5" font-family="FreeSans" font-size="10.00" fill="#000000">/PHGenFitTrkFitter.cc</text>
</a>
</g>
</g>
<!-- Node1&#45;&gt;Node6 -->
<g id="edge5" class="edge">
<title>Node1&#45;&gt;Node6</title>
<path fill="none" stroke="#191970" d="M2974.2228,-114.2625C2529.2858,-109.7731 1098.9949,-92.6956 895,-57 886.1686,-55.4547 877.0064,-53.1846 868.0986,-50.5891"/>
<polygon fill="#191970" stroke="#191970" points="2974.1946,-117.7623 2984.2293,-114.3631 2974.265,-110.7627 2974.1946,-117.7623"/>
</g>
<!-- Node7 -->
<g id="node7" class="node">
<title>Node7</title>
<g id="a_node7"><a xlink:href="../../da/d80/PHGenFitTrkProp_8cc.html" target="_top" xlink:title="coresoftware/blob/master\l/offline/packages/trackreco\l/PHGenFitTrkProp.cc">
<polygon fill="none" stroke="#000000" points="904,-6.5 904,-50.5 1058,-50.5 1058,-6.5 904,-6.5"/>
<text text-anchor="start" x="912" y="-37.5" font-family="FreeSans" font-size="10.00" fill="#000000">coresoftware/blob/master</text>
<text text-anchor="start" x="912" y="-25.5" font-family="FreeSans" font-size="10.00" fill="#000000">/offline/packages/trackreco</text>
<text text-anchor="middle" x="981" y="-13.5" font-family="FreeSans" font-size="10.00" fill="#000000">/PHGenFitTrkProp.cc</text>
</a>
</g>
</g>
<!-- Node1&#45;&gt;Node7 -->
<g id="edge6" class="edge">
<title>Node1&#45;&gt;Node7</title>
<path fill="none" stroke="#191970" d="M2974.1306,-113.9429C2552.4516,-108.6543 1253.5483,-89.8572 1067,-57 1058.1703,-55.4448 1049.0091,-53.1693 1040.1017,-50.5712"/>
<polygon fill="#191970" stroke="#191970" points="2974.1877,-117.4438 2984.2306,-114.0691 2974.2752,-110.4444 2974.1877,-117.4438"/>
</g>
<!-- Node8 -->
<g id="node8" class="node">
<title>Node8</title>
<g id="a_node8"><a xlink:href="../../d8/dbe/PHHoughSeeding_8cc.html" target="_top" xlink:title="coresoftware/blob/master\l/offline/packages/trackreco\l/PHHoughSeeding.cc">
<polygon fill="none" stroke="#000000" points="1076,-6.5 1076,-50.5 1230,-50.5 1230,-6.5 1076,-6.5"/>
<text text-anchor="start" x="1084" y="-37.5" font-family="FreeSans" font-size="10.00" fill="#000000">coresoftware/blob/master</text>
<text text-anchor="start" x="1084" y="-25.5" font-family="FreeSans" font-size="10.00" fill="#000000">/offline/packages/trackreco</text>
<text text-anchor="middle" x="1153" y="-13.5" font-family="FreeSans" font-size="10.00" fill="#000000">/PHHoughSeeding.cc</text>
</a>
</g>
</g>
<!-- Node1&#45;&gt;Node8 -->
<g id="edge7" class="edge">
<title>Node1&#45;&gt;Node8</title>
<path fill="none" stroke="#191970" d="M2974.0674,-113.5649C2576.7009,-107.4293 1408.1682,-87.0263 1239,-57 1230.1724,-55.4332 1221.0123,-53.1511 1212.1055,-50.5501"/>
<polygon fill="#191970" stroke="#191970" points="2974.1159,-117.066 2984.1686,-113.7204 2974.2236,-110.0668 2974.1159,-117.066"/>
</g>
<!-- Node9 -->
<g id="node9" class="node">
<title>Node9</title>
<g id="a_node9"><a xlink:href="../../d8/dda/PHInitZVertexing_8cc.html" target="_top" xlink:title="coresoftware/blob/master\l/offline/packages/trackreco\l/PHInitZVertexing.cc">
<polygon fill="none" stroke="#000000" points="1248,-6.5 1248,-50.5 1402,-50.5 1402,-6.5 1248,-6.5"/>
<text text-anchor="start" x="1256" y="-37.5" font-family="FreeSans" font-size="10.00" fill="#000000">coresoftware/blob/master</text>
<text text-anchor="start" x="1256" y="-25.5" font-family="FreeSans" font-size="10.00" fill="#000000">/offline/packages/trackreco</text>
<text text-anchor="middle" x="1325" y="-13.5" font-family="FreeSans" font-size="10.00" fill="#000000">/PHInitZVertexing.cc</text>
</a>
</g>
</g>
<!-- Node1&#45;&gt;Node9 -->
<g id="edge8" class="edge">
<title>Node1&#45;&gt;Node9</title>
<path fill="none" stroke="#191970" d="M2974.1015,-113.1124C2602.2972,-106.0774 1562.8721,-84.2052 1411,-57 1402.1749,-55.4191 1393.0162,-53.1293 1384.11,-50.5247"/>
<polygon fill="#191970" stroke="#191970" points="2974.3053,-116.6168 2984.3696,-113.3061 2974.4374,-109.618 2974.3053,-116.6168"/>
</g>
<!-- Node10 -->
<g id="node10" class="node">
<title>Node10</title>
<g id="a_node10"><a xlink:href="../../d4/d68/PHPatternReco_8cc.html" target="_top" xlink:title="coresoftware/blob/master\l/offline/packages/trackreco\l/PHPatternReco.cc">
<polygon fill="none" stroke="#000000" points="1420,-6.5 1420,-50.5 1574,-50.5 1574,-6.5 1420,-6.5"/>
<text text-anchor="start" x="1428" y="-37.5" font-family="FreeSans" font-size="10.00" fill="#000000">coresoftware/blob/master</text>
<text text-anchor="start" x="1428" y="-25.5" font-family="FreeSans" font-size="10.00" fill="#000000">/offline/packages/trackreco</text>
<text text-anchor="middle" x="1497" y="-13.5" font-family="FreeSans" font-size="10.00" fill="#000000">/PHPatternReco.cc</text>
</a>
</g>
</g>
<!-- Node1&#45;&gt;Node10 -->
<g id="edge9" class="edge">
<title>Node1&#45;&gt;Node10</title>
<path fill="none" stroke="#191970" d="M2974.2634,-112.5614C2629.4468,-104.569 1717.6732,-81.395 1583,-57 1574.3328,-55.43 1565.3422,-53.1831 1556.5845,-50.6306"/>
<polygon fill="#191970" stroke="#191970" points="2974.2201,-116.0613 2984.2984,-112.7934 2974.382,-109.0631 2974.2201,-116.0613"/>
</g>
<!-- Node11 -->
<g id="node11" class="node">
<title>Node11</title>
<g id="a_node11"><a xlink:href="../../d7/d3c/PHRTreeSeeding_8cc.html" target="_top" xlink:title="coresoftware/blob/master\l/offline/packages/trackreco\l/PHRTreeSeeding.cc">
<polygon fill="none" stroke="#000000" points="1592,-6.5 1592,-50.5 1746,-50.5 1746,-6.5 1592,-6.5"/>
<text text-anchor="start" x="1600" y="-37.5" font-family="FreeSans" font-size="10.00" fill="#000000">coresoftware/blob/master</text>
<text text-anchor="start" x="1600" y="-25.5" font-family="FreeSans" font-size="10.00" fill="#000000">/offline/packages/trackreco</text>
<text text-anchor="middle" x="1669" y="-13.5" font-family="FreeSans" font-size="10.00" fill="#000000">/PHRTreeSeeding.cc</text>
</a>
</g>
</g>
<!-- Node1&#45;&gt;Node11 -->
<g id="edge10" class="edge">
<title>Node1&#45;&gt;Node11</title>
<path fill="none" stroke="#191970" d="M2974.0458,-114.4208C2681.4885,-111.2746 1986.0527,-99.4361 1755,-57 1746.3366,-55.4089 1737.3483,-53.1501 1728.5916,-50.5919"/>
<polygon fill="#191970" stroke="#191970" points="2974.2451,-117.923 2984.2816,-114.5291 2974.3192,-110.9234 2974.2451,-117.923"/>
</g>
<!-- Node12 -->
<g id="node12" class="node">
<title>Node12</title>
<g id="a_node12"><a xlink:href="../../dd/da5/PHG4CylinderCellReco_8cc.html" target="_top" xlink:title="coresoftware/blob/master\l/simulation/g4simulation\l/g4detectors/PHG4CylinderCellReco.cc">
<polygon fill="none" stroke="#000000" points="1764,-6.5 1764,-50.5 1976,-50.5 1976,-6.5 1764,-6.5"/>
<text text-anchor="start" x="1772" y="-37.5" font-family="FreeSans" font-size="10.00" fill="#000000">coresoftware/blob/master</text>
<text text-anchor="start" x="1772" y="-25.5" font-family="FreeSans" font-size="10.00" fill="#000000">/simulation/g4simulation</text>
<text text-anchor="middle" x="1870" y="-13.5" font-family="FreeSans" font-size="10.00" fill="#000000">/g4detectors/PHG4CylinderCellReco.cc</text>
</a>
</g>
</g>
<!-- Node1&#45;&gt;Node12 -->
<g id="edge11" class="edge">
<title>Node1&#45;&gt;Node12</title>
<path fill="none" stroke="#191970" d="M2974.1079,-111.7765C2720.2187,-104.0864 2172.1333,-84.8108 1985,-57 1973.8098,-55.337 1962.1198,-53.073 1950.6611,-50.5431"/>
<polygon fill="#191970" stroke="#191970" points="2974.0236,-115.2754 2984.1245,-112.0785 2974.2346,-108.2786 2974.0236,-115.2754"/>
</g>
<!-- Node13 -->
<g id="node13" class="node">
<title>Node13</title>
<g id="a_node13"><a xlink:href="../../dd/de6/PHG4CylinderGeomContainer_8cc.html" target="_top" xlink:title="coresoftware/blob/master\l/simulation/g4simulation\l/g4detectors/PHG4CylinderGeomContainer.cc">
<polygon fill="none" stroke="#000000" points="1994.5,-6.5 1994.5,-50.5 2241.5,-50.5 2241.5,-6.5 1994.5,-6.5"/>
<text text-anchor="start" x="2002.5" y="-37.5" font-family="FreeSans" font-size="10.00" fill="#000000">coresoftware/blob/master</text>
<text text-anchor="start" x="2002.5" y="-25.5" font-family="FreeSans" font-size="10.00" fill="#000000">/simulation/g4simulation</text>
<text text-anchor="middle" x="2118" y="-13.5" font-family="FreeSans" font-size="10.00" fill="#000000">/g4detectors/PHG4CylinderGeomContainer.cc</text>
</a>
</g>
</g>
<!-- Node1&#45;&gt;Node13 -->
<g id="edge12" class="edge">
<title>Node1&#45;&gt;Node13</title>
<path fill="none" stroke="#191970" d="M2974.0553,-112.3891C2805.404,-107.0611 2504.7491,-93.014 2250,-57 2237.6966,-55.2607 2224.8298,-53.02 2212.1603,-50.56"/>
<polygon fill="#191970" stroke="#191970" points="2974.1206,-115.8927 2984.2244,-112.7048 2974.3379,-108.8961 2974.1206,-115.8927"/>
</g>
<!-- Node14 -->
<g id="node14" class="node">
<title>Node14</title>
<g id="a_node14"><a xlink:href="../../df/df1/PHG4CylinderSubsystem_8cc.html" target="_top" xlink:title="coresoftware/blob/master\l/simulation/g4simulation\l/g4detectors/PHG4CylinderSubsystem.cc">
<polygon fill="none" stroke="#000000" points="2259.5,-6.5 2259.5,-50.5 2484.5,-50.5 2484.5,-6.5 2259.5,-6.5"/>
<text text-anchor="start" x="2267.5" y="-37.5" font-family="FreeSans" font-size="10.00" fill="#000000">coresoftware/blob/master</text>
<text text-anchor="start" x="2267.5" y="-25.5" font-family="FreeSans" font-size="10.00" fill="#000000">/simulation/g4simulation</text>
<text text-anchor="middle" x="2372" y="-13.5" font-family="FreeSans" font-size="10.00" fill="#000000">/g4detectors/PHG4CylinderSubsystem.cc</text>
</a>
</g>
</g>
<!-- Node1&#45;&gt;Node14 -->
<g id="edge13" class="edge">
<title>Node1&#45;&gt;Node14</title>
<path fill="none" stroke="#191970" d="M2974.0616,-108.1186C2849.4647,-99.9196 2657.6756,-84.1217 2493,-57 2482.0331,-55.1938 2470.5818,-52.9609 2459.2848,-50.5461"/>
<polygon fill="#191970" stroke="#191970" points="2974.2021,-111.6351 2984.4084,-108.7922 2974.6569,-104.6499 2974.2021,-111.6351"/>
</g>
<!-- Node15 -->
<g id="node15" class="node">
<title>Node15</title>
<g id="a_node15"><a xlink:href="../../d4/de2/PHG4FullProjSpacalCellReco_8cc.html" target="_top" xlink:title="coresoftware/blob/master\l/simulation/g4simulation\l/g4detectors/PHG4FullProjSpacalCell\lReco.cc">
<polygon fill="none" stroke="#000000" points="2502.5,-.5 2502.5,-56.5 2703.5,-56.5 2703.5,-.5 2502.5,-.5"/>
<text text-anchor="start" x="2510.5" y="-43.5" font-family="FreeSans" font-size="10.00" fill="#000000">coresoftware/blob/master</text>
<text text-anchor="start" x="2510.5" y="-31.5" font-family="FreeSans" font-size="10.00" fill="#000000">/simulation/g4simulation</text>
<text text-anchor="start" x="2510.5" y="-19.5" font-family="FreeSans" font-size="10.00" fill="#000000">/g4detectors/PHG4FullProjSpacalCell</text>
<text text-anchor="middle" x="2603" y="-7.5" font-family="FreeSans" font-size="10.00" fill="#000000">Reco.cc</text>
</a>
</g>
</g>
<!-- Node1&#45;&gt;Node15 -->
<g id="edge14" class="edge">
<title>Node1&#45;&gt;Node15</title>
<path fill="none" stroke="#191970" d="M2973.9686,-99.3913C2897.4115,-89.1683 2799.3645,-74.5648 2713,-57 2709.9069,-56.3709 2706.7707,-55.7091 2703.609,-55.0212"/>
<polygon fill="#191970" stroke="#191970" points="2973.7739,-102.896 2984.1474,-100.7416 2974.6946,-95.9568 2973.7739,-102.896"/>
</g>
<!-- Node16 -->
<g id="node16" class="node">
<title>Node16</title>
<g id="a_node16"><a xlink:href="../../de/d17/PHG4GenHit_8cc.html" target="_top" xlink:title="coresoftware/blob/master\l/simulation/g4simulation\l/g4detectors/PHG4GenHit.cc">
<polygon fill="none" stroke="#000000" points="2722,-6.5 2722,-50.5 2884,-50.5 2884,-6.5 2722,-6.5"/>
<text text-anchor="start" x="2730" y="-37.5" font-family="FreeSans" font-size="10.00" fill="#000000">coresoftware/blob/master</text>
<text text-anchor="start" x="2730" y="-25.5" font-family="FreeSans" font-size="10.00" fill="#000000">/simulation/g4simulation</text>
<text text-anchor="middle" x="2803" y="-13.5" font-family="FreeSans" font-size="10.00" fill="#000000">/g4detectors/PHG4GenHit.cc</text>
</a>
</g>
</g>
<!-- Node1&#45;&gt;Node16 -->
<g id="edge15" class="edge">
<title>Node1&#45;&gt;Node16</title>
<path fill="none" stroke="#191970" d="M3012.9747,-90.7879C2975.5962,-80.6404 2932.1608,-68.5735 2893,-57 2886.0842,-54.9561 2878.8871,-52.7729 2871.7095,-50.5587"/>
<polygon fill="#191970" stroke="#191970" points="3012.2756,-94.2246 3022.8428,-93.4606 3014.1056,-87.468 3012.2756,-94.2246"/>
</g>
<!-- Node17 -->
<g id="node17" class="node">
<title>Node17</title>
<g id="a_node17"><a xlink:href="../../dc/dde/PHG4HcalDetector_8cc.html" target="_top" xlink:title="coresoftware/blob/master\l/simulation/g4simulation\l/g4detectors/PHG4HcalDetector.cc">
<polygon fill="none" stroke="#000000" points="2902,-6.5 2902,-50.5 3094,-50.5 3094,-6.5 2902,-6.5"/>
<text text-anchor="start" x="2910" y="-37.5" font-family="FreeSans" font-size="10.00" fill="#000000">coresoftware/blob/master</text>
<text text-anchor="start" x="2910" y="-25.5" font-family="FreeSans" font-size="10.00" fill="#000000">/simulation/g4simulation</text>
<text text-anchor="middle" x="2998" y="-13.5" font-family="FreeSans" font-size="10.00" fill="#000000">/g4detectors/PHG4HcalDetector.cc</text>
</a>
</g>
</g>
<!-- Node1&#45;&gt;Node17 -->
<g id="edge16" class="edge">
<title>Node1&#45;&gt;Node17</title>
<path fill="none" stroke="#191970" d="M3070.5723,-86.961C3055.9175,-75.1558 3039.1847,-61.6765 3025.4821,-50.6384"/>
<polygon fill="#191970" stroke="#191970" points="3068.4844,-89.7734 3078.4676,-93.3211 3072.8757,-84.3221 3068.4844,-89.7734"/>
</g>
<!-- Node18 -->
<g id="node18" class="node">
<title>Node18</title>
<g id="a_node18"><a xlink:href="../../de/d62/PHG4SpacalDetector_8cc.html" target="_top" xlink:title="coresoftware/blob/master\l/simulation/g4simulation\l/g4detectors/PHG4SpacalDetector.cc">
<polygon fill="none" stroke="#000000" points="3112.5,-6.5 3112.5,-50.5 3315.5,-50.5 3315.5,-6.5 3112.5,-6.5"/>
<text text-anchor="start" x="3120.5" y="-37.5" font-family="FreeSans" font-size="10.00" fill="#000000">coresoftware/blob/master</text>
<text text-anchor="start" x="3120.5" y="-25.5" font-family="FreeSans" font-size="10.00" fill="#000000">/simulation/g4simulation</text>
<text text-anchor="middle" x="3214" y="-13.5" font-family="FreeSans" font-size="10.00" fill="#000000">/g4detectors/PHG4SpacalDetector.cc</text>
</a>
</g>
</g>
<!-- Node1&#45;&gt;Node18 -->
<g id="edge17" class="edge">
<title>Node1&#45;&gt;Node18</title>
<path fill="none" stroke="#191970" d="M3141.4277,-86.961C3156.0825,-75.1558 3172.8153,-61.6765 3186.5179,-50.6384"/>
<polygon fill="#191970" stroke="#191970" points="3139.1243,-84.3221 3133.5324,-93.3211 3143.5156,-89.7734 3139.1243,-84.3221"/>
</g>
<!-- Node19 -->
<g id="node19" class="node">
<title>Node19</title>
<g id="a_node19"><a xlink:href="../../d3/d3e/PHG4InttDetector_8cc.html" target="_top" xlink:title="coresoftware/blob/master\l/simulation/g4simulation\l/g4intt/PHG4InttDetector.cc">
<polygon fill="none" stroke="#000000" points="3334,-6.5 3334,-50.5 3490,-50.5 3490,-6.5 3334,-6.5"/>
<text text-anchor="start" x="3342" y="-37.5" font-family="FreeSans" font-size="10.00" fill="#000000">coresoftware/blob/master</text>
<text text-anchor="start" x="3342" y="-25.5" font-family="FreeSans" font-size="10.00" fill="#000000">/simulation/g4simulation</text>
<text text-anchor="middle" x="3412" y="-13.5" font-family="FreeSans" font-size="10.00" fill="#000000">/g4intt/PHG4InttDetector.cc</text>
</a>
</g>
</g>
<!-- Node1&#45;&gt;Node19 -->
<g id="edge18" class="edge">
<title>Node1&#45;&gt;Node19</title>
<path fill="none" stroke="#191970" d="M3202.9865,-90.8306C3241.148,-80.8012 3285.2625,-68.8062 3325,-57 3331.8561,-54.963 3338.99,-52.7615 3346.0923,-50.5163"/>
<polygon fill="#191970" stroke="#191970" points="3201.6929,-87.5513 3192.9059,-93.4708 3203.4664,-94.3229 3201.6929,-87.5513"/>
</g>
<!-- Node20 -->
<g id="node20" class="node">
<title>Node20</title>
<g id="a_node20"><a xlink:href="../../db/d59/PHG4InttDigitizer_8cc.html" target="_top" xlink:title="coresoftware/blob/master\l/simulation/g4simulation\l/g4intt/PHG4InttDigitizer.cc">
<polygon fill="none" stroke="#000000" points="3508,-6.5 3508,-50.5 3662,-50.5 3662,-6.5 3508,-6.5"/>
<text text-anchor="start" x="3516" y="-37.5" font-family="FreeSans" font-size="10.00" fill="#000000">coresoftware/blob/master</text>
<text text-anchor="start" x="3516" y="-25.5" font-family="FreeSans" font-size="10.00" fill="#000000">/simulation/g4simulation</text>
<text text-anchor="middle" x="3585" y="-13.5" font-family="FreeSans" font-size="10.00" fill="#000000">/g4intt/PHG4InttDigitizer.cc</text>
</a>
</g>
</g>
<!-- Node1&#45;&gt;Node20 -->
<g id="edge19" class="edge">
<title>Node1&#45;&gt;Node20</title>
<path fill="none" stroke="#191970" d="M3238.0761,-101.5983C3314.854,-92.0891 3413.1065,-77.4639 3499,-57 3506.6504,-55.1773 3514.593,-52.9794 3522.4218,-50.6224"/>
<polygon fill="#191970" stroke="#191970" points="3237.368,-98.1587 3227.8675,-102.8482 3238.2188,-105.1068 3237.368,-98.1587"/>
</g>
<!-- Node21 -->
<g id="node21" class="node">
<title>Node21</title>
<g id="a_node21"><a xlink:href="../../d3/da0/PHG4InttHitReco_8cc.html" target="_top" xlink:title="coresoftware/blob/master\l/simulation/g4simulation\l/g4intt/PHG4InttHitReco.cc">
<polygon fill="none" stroke="#000000" points="3680,-6.5 3680,-50.5 3832,-50.5 3832,-6.5 3680,-6.5"/>
<text text-anchor="start" x="3688" y="-37.5" font-family="FreeSans" font-size="10.00" fill="#000000">coresoftware/blob/master</text>
<text text-anchor="start" x="3688" y="-25.5" font-family="FreeSans" font-size="10.00" fill="#000000">/simulation/g4simulation</text>
<text text-anchor="middle" x="3756" y="-13.5" font-family="FreeSans" font-size="10.00" fill="#000000">/g4intt/PHG4InttHitReco.cc</text>
</a>
</g>
</g>
<!-- Node1&#45;&gt;Node21 -->
<g id="edge20" class="edge">
<title>Node1&#45;&gt;Node21</title>
<path fill="none" stroke="#191970" d="M3237.9152,-110.0664C3353.2535,-103.3699 3524.7029,-88.6938 3671,-57 3679.0621,-55.2534 3687.4292,-53.0085 3695.6296,-50.5464"/>
<polygon fill="#191970" stroke="#191970" points="3237.4129,-106.5892 3227.6277,-110.6511 3237.8103,-113.5779 3237.4129,-106.5892"/>
</g>
<!-- Node22 -->
<g id="node22" class="node">
<title>Node22</title>
<g id="a_node22"><a xlink:href="../../da/dc7/PHG4MvtxDetector_8cc.html" target="_top" xlink:title="coresoftware/blob/master\l/simulation/g4simulation\l/g4mvtx/PHG4MvtxDetector.cc">
<polygon fill="none" stroke="#000000" points="3850,-6.5 3850,-50.5 4022,-50.5 4022,-6.5 3850,-6.5"/>
<text text-anchor="start" x="3858" y="-37.5" font-family="FreeSans" font-size="10.00" fill="#000000">coresoftware/blob/master</text>
<text text-anchor="start" x="3858" y="-25.5" font-family="FreeSans" font-size="10.00" fill="#000000">/simulation/g4simulation</text>
<text text-anchor="middle" x="3936" y="-13.5" font-family="FreeSans" font-size="10.00" fill="#000000">/g4mvtx/PHG4MvtxDetector.cc</text>
</a>
</g>
</g>
<!-- Node1&#45;&gt;Node22 -->
<g id="edge21" class="edge">
<title>Node1&#45;&gt;Node22</title>
<path fill="none" stroke="#191970" d="M3237.5352,-108.3901C3416.96,-98.1126 3728.9432,-78.0214 3841,-57 3850.139,-55.2856 3859.6494,-53.0263 3868.968,-50.5284"/>
<polygon fill="#191970" stroke="#191970" points="3237.2877,-104.8984 3227.5033,-108.9624 3237.6864,-111.887 3237.2877,-104.8984"/>
</g>
<!-- Node23 -->
<g id="node23" class="node">
<title>Node23</title>
<g id="a_node23"><a xlink:href="../../d9/d72/PHG4MvtxDigitizer_8cc.html" target="_top" xlink:title="coresoftware/blob/master\l/simulation/g4simulation\l/g4mvtx/PHG4MvtxDigitizer.cc">
<polygon fill="none" stroke="#000000" points="4040,-6.5 4040,-50.5 4210,-50.5 4210,-6.5 4040,-6.5"/>
<text text-anchor="start" x="4048" y="-37.5" font-family="FreeSans" font-size="10.00" fill="#000000">coresoftware/blob/master</text>
<text text-anchor="start" x="4048" y="-25.5" font-family="FreeSans" font-size="10.00" fill="#000000">/simulation/g4simulation</text>
<text text-anchor="middle" x="4125" y="-13.5" font-family="FreeSans" font-size="10.00" fill="#000000">/g4mvtx/PHG4MvtxDigitizer.cc</text>
</a>
</g>
</g>
<!-- Node1&#45;&gt;Node23 -->
<g id="edge22" class="edge">
<title>Node1&#45;&gt;Node23</title>
<path fill="none" stroke="#191970" d="M3238.1334,-110.9086C3456.3616,-102.6924 3882.7263,-83.793 4031,-57 4040.2297,-55.3322 4049.8323,-53.0655 4059.2217,-50.5343"/>
<polygon fill="#191970" stroke="#191970" points="3237.7629,-107.4199 3227.9009,-111.2918 3238.0249,-114.415 3237.7629,-107.4199"/>
</g>
<!-- Node24 -->
<g id="node24" class="node">
<title>Node24</title>
<g id="a_node24"><a xlink:href="../../d9/d0d/PHG4MvtxHitReco_8cc.html" target="_top" xlink:title="coresoftware/blob/master\l/simulation/g4simulation\l/g4mvtx/PHG4MvtxHitReco.cc">
<polygon fill="none" stroke="#000000" points="4228,-6.5 4228,-50.5 4396,-50.5 4396,-6.5 4228,-6.5"/>
<text text-anchor="start" x="4236" y="-37.5" font-family="FreeSans" font-size="10.00" fill="#000000">coresoftware/blob/master</text>
<text text-anchor="start" x="4236" y="-25.5" font-family="FreeSans" font-size="10.00" fill="#000000">/simulation/g4simulation</text>
<text text-anchor="middle" x="4312" y="-13.5" font-family="FreeSans" font-size="10.00" fill="#000000">/g4mvtx/PHG4MvtxHitReco.cc</text>
</a>
</g>
</g>
<!-- Node1&#45;&gt;Node24 -->
<g id="edge23" class="edge">
<title>Node1&#45;&gt;Node24</title>
<path fill="none" stroke="#191970" d="M3237.9512,-112.6103C3490.6558,-106.4076 4034.2339,-89.6566 4219,-57 4228.2292,-55.3688 4237.8278,-53.1053 4247.2018,-50.5604"/>
<polygon fill="#191970" stroke="#191970" points="3237.5239,-109.1196 3227.6121,-112.8622 3237.6944,-116.1175 3237.5239,-109.1196"/>
</g>
<!-- Node25 -->
<g id="node25" class="node">
<title>Node25</title>
<g id="a_node25"><a xlink:href="../../d1/d35/EMCalAna_8C.html" target="_top" xlink:title="analysis/blob/master\l/EMCal&#45;analysis/EMCalAna\l/EMCalAna.C">
<polygon fill="none" stroke="#000000" points="4414,-6.5 4414,-50.5 4564,-50.5 4564,-6.5 4414,-6.5"/>
<text text-anchor="start" x="4422" y="-37.5" font-family="FreeSans" font-size="10.00" fill="#000000">analysis/blob/master</text>
<text text-anchor="start" x="4422" y="-25.5" font-family="FreeSans" font-size="10.00" fill="#000000">/EMCal&#45;analysis/EMCalAna</text>
<text text-anchor="middle" x="4489" y="-13.5" font-family="FreeSans" font-size="10.00" fill="#000000">/EMCalAna.C</text>
</a>
</g>
</g>
<!-- Node1&#45;&gt;Node25 -->
<g id="edge24" class="edge">
<title>Node1&#45;&gt;Node25</title>
<path fill="none" stroke="#191970" d="M3238.045,-114.2663C3522.3156,-110.842 4184.348,-98.5329 4405,-57 4413.4751,-55.4048 4422.2619,-53.1437 4430.8184,-50.5844"/>
<polygon fill="#191970" stroke="#191970" points="3237.6384,-110.7708 3227.6807,-114.3892 3237.7215,-117.7703 3237.6384,-110.7708"/>
</g>
<!-- Node26 -->
<g id="node26" class="node">
<title>Node26</title>
<g id="a_node26"><a xlink:href="../../d1/db8/BDiJetModule_8C.html" target="_top" xlink:title="Gether information from Truth Jet and Tracks, DST &#45;&gt; NTuple.">
<polygon fill="none" stroke="#000000" points="4581.5,-6.5 4581.5,-50.5 4750.5,-50.5 4750.5,-6.5 4581.5,-6.5"/>
<text text-anchor="start" x="4589.5" y="-37.5" font-family="FreeSans" font-size="10.00" fill="#000000">analysis/blob/master</text>
<text text-anchor="start" x="4589.5" y="-25.5" font-family="FreeSans" font-size="10.00" fill="#000000">/HF&#45;Jet/HFDiJetMomImbalance</text>
<text text-anchor="middle" x="4666" y="-13.5" font-family="FreeSans" font-size="10.00" fill="#000000">/BDiJetModule.C</text>
</a>
</g>
</g>
<!-- Node1&#45;&gt;Node26 -->
<g id="edge25" class="edge">
<title>Node1&#45;&gt;Node26</title>
<path fill="none" stroke="#191970" d="M3238.0405,-114.578C3548.6577,-111.7068 4318.5682,-100.3111 4573,-57 4582.4058,-55.3989 4592.1899,-53.1163 4601.7271,-50.531"/>
<polygon fill="#191970" stroke="#191970" points="3237.6035,-111.0817 3227.6357,-114.6725 3237.6672,-118.0814 3237.6035,-111.0817"/>
</g>
<!-- Node27 -->
<g id="node27" class="node">
<title>Node27</title>
<g id="a_node27"><a xlink:href="../../d7/d97/HFMLTriggerHepMCTrigger_8C.html" target="_top" xlink:title="analysis/blob/master\l/HF&#45;Jet/HFMLTrigger/HFMLTrigger\lHepMCTrigger.C">
<polygon fill="none" stroke="#000000" points="4768.5,-6.5 4768.5,-50.5 4949.5,-50.5 4949.5,-6.5 4768.5,-6.5"/>
<text text-anchor="start" x="4776.5" y="-37.5" font-family="FreeSans" font-size="10.00" fill="#000000">analysis/blob/master</text>
<text text-anchor="start" x="4776.5" y="-25.5" font-family="FreeSans" font-size="10.00" fill="#000000">/HF&#45;Jet/HFMLTrigger/HFMLTrigger</text>
<text text-anchor="middle" x="4859" y="-13.5" font-family="FreeSans" font-size="10.00" fill="#000000">HepMCTrigger.C</text>
</a>
</g>
</g>
<!-- Node1&#45;&gt;Node27 -->
<g id="edge26" class="edge">
<title>Node1&#45;&gt;Node27</title>
<path fill="none" stroke="#191970" d="M3237.5943,-114.9979C3575.5402,-113.0426 4467.8424,-103.497 4760,-57 4769.9797,-55.4117 4780.3766,-53.1363 4790.5204,-50.5544"/>
<polygon fill="#191970" stroke="#191970" points="3237.4946,-111.4983 3227.5146,-115.0549 3237.5343,-118.4982 3237.4946,-111.4983"/>
</g>
<!-- Node28 -->
<g id="node28" class="node">
<title>Node28</title>
<g id="a_node28"><a xlink:href="../../d5/dff/HFMLTriggerInterface_8C.html" target="_top" xlink:title="analysis/blob/master\l/HF&#45;Jet/HFMLTrigger/HFMLTrigger\lInterface.C">
<polygon fill="none" stroke="#000000" points="4967.5,-6.5 4967.5,-50.5 5148.5,-50.5 5148.5,-6.5 4967.5,-6.5"/>
<text text-anchor="start" x="4975.5" y="-37.5" font-family="FreeSans" font-size="10.00" fill="#000000">analysis/blob/master</text>
<text text-anchor="start" x="4975.5" y="-25.5" font-family="FreeSans" font-size="10.00" fill="#000000">/HF&#45;Jet/HFMLTrigger/HFMLTrigger</text>
<text text-anchor="middle" x="5058" y="-13.5" font-family="FreeSans" font-size="10.00" fill="#000000">Interface.C</text>
</a>
</g>
</g>
<!-- Node1&#45;&gt;Node28 -->
<g id="edge27" class="edge">
<title>Node1&#45;&gt;Node28</title>
<path fill="none" stroke="#191970" d="M3237.5863,-113.2374C3632.4941,-106.1824 4790.6423,-83.4668 4959,-57 4969.0711,-55.4168 4979.5654,-53.1257 4989.7951,-50.5204"/>
<polygon fill="#191970" stroke="#191970" points="3237.4829,-109.7386 3227.5468,-113.4163 3237.6077,-116.7375 3237.4829,-109.7386"/>
</g>
<!-- Node29 -->
<g id="node29" class="node">
<title>Node29</title>
<g id="a_node29"><a xlink:href="../../d0/d2a/HFMLTriggerOccupancy_8C.html" target="_top" xlink:title="analysis/blob/master\l/HF&#45;Jet/HFMLTrigger/HFMLTrigger\lOccupancy.C">
<polygon fill="none" stroke="#000000" points="5166.5,-6.5 5166.5,-50.5 5347.5,-50.5 5347.5,-6.5 5166.5,-6.5"/>
<text text-anchor="start" x="5174.5" y="-37.5" font-family="FreeSans" font-size="10.00" fill="#000000">analysis/blob/master</text>
<text text-anchor="start" x="5174.5" y="-25.5" font-family="FreeSans" font-size="10.00" fill="#000000">/HF&#45;Jet/HFMLTrigger/HFMLTrigger</text>
<text text-anchor="middle" x="5257" y="-13.5" font-family="FreeSans" font-size="10.00" fill="#000000">Occupancy.C</text>
</a>
</g>
</g>
<!-- Node1&#45;&gt;Node29 -->
<g id="edge28" class="edge">
<title>Node1&#45;&gt;Node29</title>
<path fill="none" stroke="#191970" d="M3237.9232,-113.667C3661.3586,-107.5155 4969.5321,-86.333 5158,-57 5168.0735,-55.4322 5178.5691,-53.1496 5188.7995,-50.5483"/>
<polygon fill="#191970" stroke="#191970" points="3237.7301,-110.1693 3227.7819,-113.8139 3237.8316,-117.1686 3237.7301,-110.1693"/>
</g>
<!-- Node30 -->
<g id="node30" class="node">
<title>Node30</title>
<g id="a_node30"><a xlink:href="../../da/d55/AnaMvtxTelescopeHits_8C.html" target="_top" xlink:title="Analyze Mvtx 4 ladder cosmic telescope in simulations.">
<polygon fill="none" stroke="#000000" points="5366,-6.5 5366,-50.5 5558,-50.5 5558,-6.5 5366,-6.5"/>
<text text-anchor="start" x="5374" y="-37.5" font-family="FreeSans" font-size="10.00" fill="#000000">analysis/blob/master</text>
<text text-anchor="start" x="5374" y="-25.5" font-family="FreeSans" font-size="10.00" fill="#000000">/MvtxTelescope/AnaMvtxTelescope</text>
<text text-anchor="middle" x="5462" y="-13.5" font-family="FreeSans" font-size="10.00" fill="#000000">Hits/AnaMvtxTelescopeHits.C</text>
</a>
</g>
</g>
<!-- Node1&#45;&gt;Node30 -->
<g id="edge29" class="edge">
<title>Node1&#45;&gt;Node30</title>
<path fill="none" stroke="#191970" d="M3237.7583,-113.9116C3687.8311,-108.232 5148.0299,-87.6243 5357,-57 5367.6528,-55.4388 5378.7672,-53.16 5389.6096,-50.5604"/>
<polygon fill="#191970" stroke="#191970" points="3237.5938,-110.4133 3227.6386,-114.039 3237.6819,-117.4128 3237.5938,-110.4133"/>
</g>
<!-- Node31 -->
<g id="node31" class="node">
<title>Node31</title>
<g id="a_node31"><a xlink:href="../../de/d7a/SVReco_8C.html" target="_top" xlink:title="analysis/blob/master\l/PhotonConversion/truthconversion\l/SVReco.C">
<polygon fill="none" stroke="#000000" points="5576,-6.5 5576,-50.5 5772,-50.5 5772,-6.5 5576,-6.5"/>
<text text-anchor="start" x="5584" y="-37.5" font-family="FreeSans" font-size="10.00" fill="#000000">analysis/blob/master</text>
<text text-anchor="start" x="5584" y="-25.5" font-family="FreeSans" font-size="10.00" fill="#000000">/PhotonConversion/truthconversion</text>
<text text-anchor="middle" x="5674" y="-13.5" font-family="FreeSans" font-size="10.00" fill="#000000">/SVReco.C</text>
</a>
</g>
</g>
<!-- Node1&#45;&gt;Node31 -->
<g id="edge30" class="edge">
<title>Node1&#45;&gt;Node31</title>
<path fill="none" stroke="#191970" d="M3237.6903,-114.1916C3714.7373,-109.201 5336.482,-89.9645 5567,-57 5577.9425,-55.4352 5589.3675,-53.1355 5600.5062,-50.5101"/>
<polygon fill="#191970" stroke="#191970" points="3237.624,-110.692 3227.661,-114.2962 3237.697,-117.6916 3237.624,-110.692"/>
</g>
<!-- Node32 -->
<g id="node32" class="node">
<title>Node32</title>
<g id="a_node32"><a xlink:href="../../d5/d0c/PHG4SpacalPrototype4Detector_8cc.html" target="_top" xlink:title="prototype/blob/master\l/simulation/g4simulation\l/g4caloprototype/PHG4SpacalPrototype4\lDetector.cc">
<polygon fill="none" stroke="#000000" points="5790,-.5 5790,-56.5 6014,-56.5 6014,-.5 5790,-.5"/>
<text text-anchor="start" x="5798" y="-43.5" font-family="FreeSans" font-size="10.00" fill="#000000">prototype/blob/master</text>
<text text-anchor="start" x="5798" y="-31.5" font-family="FreeSans" font-size="10.00" fill="#000000">/simulation/g4simulation</text>
<text text-anchor="start" x="5798" y="-19.5" font-family="FreeSans" font-size="10.00" fill="#000000">/g4caloprototype/PHG4SpacalPrototype4</text>
<text text-anchor="middle" x="5902" y="-7.5" font-family="FreeSans" font-size="10.00" fill="#000000">Detector.cc</text>
</a>
</g>
</g>
<!-- Node1&#45;&gt;Node32 -->
<g id="edge31" class="edge">
<title>Node1&#45;&gt;Node32</title>
<path fill="none" stroke="#191970" d="M3237.8553,-114.2377C3741.4725,-109.1942 5528.0749,-89.1908 5781,-57 5783.8902,-56.6321 5786.8121,-56.2238 5789.7543,-55.7804"/>
<polygon fill="#191970" stroke="#191970" points="3237.6039,-110.7399 3227.6394,-114.3397 3237.6739,-117.7396 3237.6039,-110.7399"/>
</g>
<!-- Node33 -->
<g id="node33" class="node">
<title>Node33</title>
<g id="a_node33"><a xlink:href="../../d5/d86/PHG4SpacalPrototypeDetector_8cc.html" target="_top" xlink:title="prototype/blob/master\l/simulation/g4simulation\l/g4caloprototype/PHG4SpacalPrototype\lDetector.cc">
<polygon fill="none" stroke="#000000" points="6032.5,-.5 6032.5,-56.5 6249.5,-56.5 6249.5,-.5 6032.5,-.5"/>
<text text-anchor="start" x="6040.5" y="-43.5" font-family="FreeSans" font-size="10.00" fill="#000000">prototype/blob/master</text>
<text text-anchor="start" x="6040.5" y="-31.5" font-family="FreeSans" font-size="10.00" fill="#000000">/simulation/g4simulation</text>
<text text-anchor="start" x="6040.5" y="-19.5" font-family="FreeSans" font-size="10.00" fill="#000000">/g4caloprototype/PHG4SpacalPrototype</text>
<text text-anchor="middle" x="6141" y="-7.5" font-family="FreeSans" font-size="10.00" fill="#000000">Detector.cc</text>
</a>
</g>
</g>
<!-- Node1&#45;&gt;Node33 -->
<g id="edge32" class="edge">
<title>Node1&#45;&gt;Node33</title>
<path fill="none" stroke="#191970" d="M3237.569,-114.5417C3769.4179,-110.4386 5745.1867,-92.9023 6023,-57 6026.0307,-56.6083 6029.0966,-56.1696 6032.1841,-55.6904"/>
<polygon fill="#191970" stroke="#191970" points="3237.5267,-111.0418 3227.5539,-114.6187 3237.5806,-118.0416 3237.5267,-111.0418"/>
</g>
</g>
</svg>
