<?xml version="1.0" encoding="UTF-8" standalone="no"?>
<!DOCTYPE svg PUBLIC "-//W3C//DTD SVG 1.1//EN"
 "http://www.w3.org/Graphics/SVG/1.1/DTD/svg11.dtd">
<!-- Generated by graphviz version 2.40.1 (20161225.0304)
 -->
<!-- Title: KFParticle/blob/master/KFParticle/KFParticleSIMD.cxx Pages: 1 -->
<svg width="682pt" height="326pt"
 viewBox="0.00 0.00 681.81 326.00" xmlns="http://www.w3.org/2000/svg" xmlns:xlink="http://www.w3.org/1999/xlink">
<g id="graph0" class="graph" transform="scale(1 1) rotate(0) translate(4 322)">
<title>KFParticle/blob/master/KFParticle/KFParticleSIMD.cxx</title>
<!-- Node1 -->
<g id="node1" class="node">
<title>Node1</title>
<polygon fill="#bfbfbf" stroke="#000000" points="222.449,-285.5 222.449,-317.5 392.449,-317.5 392.449,-285.5 222.449,-285.5"/>
<text text-anchor="start" x="230.449" y="-304.5" font-family="FreeSans" font-size="10.00" fill="#000000">KFParticle/blob/master</text>
<text text-anchor="middle" x="307.449" y="-292.5" font-family="FreeSans" font-size="10.00" fill="#000000">/KFParticle/KFParticleSIMD.cxx</text>
</g>
<!-- Node2 -->
<g id="node2" class="node">
<title>Node2</title>
<g id="a_node2"><a xlink:href="../../d7/dbf/KFParticleSIMD_8h.html" target="_top" xlink:title="KFParticleSIMD.h">
<polygon fill="none" stroke="#000000" points="256.949,-228.5 256.949,-248.5 357.949,-248.5 357.949,-228.5 256.949,-228.5"/>
<text text-anchor="middle" x="307.449" y="-235.5" font-family="FreeSans" font-size="10.00" fill="#000000">KFParticleSIMD.h</text>
</a>
</g>
</g>
<!-- Node1&#45;&gt;Node2 -->
<g id="edge1" class="edge">
<title>Node1&#45;&gt;Node2</title>
<path fill="none" stroke="#191970" d="M307.449,-285.2759C307.449,-277.2654 307.449,-267.5159 307.449,-258.9952"/>
<polygon fill="#191970" stroke="#191970" points="310.9491,-258.7512 307.449,-248.7513 303.9491,-258.7513 310.9491,-258.7512"/>
</g>
<!-- Node17 -->
<g id="node17" class="node">
<title>Node17</title>
<g id="a_node17"><a xlink:href="../../d6/db1/KFParticle_8h.html" target="_top" xlink:title="KFParticle.h">
<polygon fill="none" stroke="#000000" points="570.949,-228.5 570.949,-248.5 645.949,-248.5 645.949,-228.5 570.949,-228.5"/>
<text text-anchor="middle" x="608.449" y="-235.5" font-family="FreeSans" font-size="10.00" fill="#000000">KFParticle.h</text>
</a>
</g>
</g>
<!-- Node1&#45;&gt;Node17 -->
<g id="edge21" class="edge">
<title>Node1&#45;&gt;Node17</title>
<path fill="none" stroke="#191970" d="M384.1828,-285.4394C439.8417,-273.7899 513.3835,-258.3974 560.8048,-248.4721"/>
<polygon fill="#191970" stroke="#191970" points="561.7333,-251.8536 570.8041,-246.3792 560.2992,-245.0021 561.7333,-251.8536"/>
</g>
<!-- Node19 -->
<g id="node19" class="node">
<title>Node19</title>
<g id="a_node19"><a xlink:href="../../dc/d51/KFParticleDatabase_8h.html" target="_top" xlink:title="KFParticleDatabase.h">
<polygon fill="none" stroke="#000000" points="35.949,-228.5 35.949,-248.5 158.949,-248.5 158.949,-228.5 35.949,-228.5"/>
<text text-anchor="middle" x="97.449" y="-235.5" font-family="FreeSans" font-size="10.00" fill="#000000">KFParticleDatabase.h</text>
</a>
</g>
</g>
<!-- Node1&#45;&gt;Node19 -->
<g id="edge26" class="edge">
<title>Node1&#45;&gt;Node19</title>
<path fill="none" stroke="#191970" d="M253.9138,-285.4394C218.7834,-274.9003 173.4416,-261.2978 140.62,-251.4513"/>
<polygon fill="#191970" stroke="#191970" points="141.4451,-248.0448 130.861,-248.5236 139.4336,-254.7495 141.4451,-248.0448"/>
</g>
<!-- Node3 -->
<g id="node3" class="node">
<title>Node3</title>
<g id="a_node3"><a xlink:href="../../d9/d03/KFParticleBaseSIMD_8h.html" target="_top" xlink:title="KFParticleBaseSIMD.h">
<polygon fill="none" stroke="#000000" points="414.949,-171.5 414.949,-191.5 539.949,-191.5 539.949,-171.5 414.949,-171.5"/>
<text text-anchor="middle" x="477.449" y="-178.5" font-family="FreeSans" font-size="10.00" fill="#000000">KFParticleBaseSIMD.h</text>
</a>
</g>
</g>
<!-- Node2&#45;&gt;Node3 -->
<g id="edge2" class="edge">
<title>Node2&#45;&gt;Node3</title>
<path fill="none" stroke="#191970" d="M337.4503,-228.4408C365.4039,-219.0681 407.265,-205.0323 437.931,-194.7502"/>
<polygon fill="#191970" stroke="#191970" points="439.0937,-198.0519 447.4622,-191.5544 436.8683,-191.415 439.0937,-198.0519"/>
</g>
<!-- Node12 -->
<g id="node12" class="node">
<title>Node12</title>
<g id="a_node12"><a xlink:href="../../d4/d31/KFPTrack_8h.html" target="_top" xlink:title="KFPTrack.h">
<polygon fill="none" stroke="#000000" points="380.449,-114.5 380.449,-134.5 450.449,-134.5 450.449,-114.5 380.449,-114.5"/>
<text text-anchor="middle" x="415.449" y="-121.5" font-family="FreeSans" font-size="10.00" fill="#000000">KFPTrack.h</text>
</a>
</g>
</g>
<!-- Node2&#45;&gt;Node12 -->
<g id="edge12" class="edge">
<title>Node2&#45;&gt;Node12</title>
<path fill="none" stroke="#191970" d="M323.0067,-228.3456C335.7578,-219.5958 353.8528,-206.1678 367.449,-192 381.6868,-177.1637 394.9956,-157.8405 403.9707,-143.6724"/>
<polygon fill="#191970" stroke="#191970" points="407.1704,-145.1526 409.45,-134.8059 401.2157,-141.4727 407.1704,-145.1526"/>
</g>
<!-- Node14 -->
<g id="node14" class="node">
<title>Node14</title>
<g id="a_node14"><a xlink:href="../../d2/dc5/KFPTrackVector_8h.html" target="_top" xlink:title="KFPTrackVector.h">
<polygon fill="none" stroke="#000000" points="256.949,-171.5 256.949,-191.5 357.949,-191.5 357.949,-171.5 256.949,-171.5"/>
<text text-anchor="middle" x="307.449" y="-178.5" font-family="FreeSans" font-size="10.00" fill="#000000">KFPTrackVector.h</text>
</a>
</g>
</g>
<!-- Node2&#45;&gt;Node14 -->
<g id="edge15" class="edge">
<title>Node2&#45;&gt;Node14</title>
<path fill="none" stroke="#191970" d="M307.449,-228.3095C307.449,-220.9335 307.449,-210.72 307.449,-201.715"/>
<polygon fill="#191970" stroke="#191970" points="310.9491,-201.6022 307.449,-191.6022 303.9491,-201.6023 310.9491,-201.6022"/>
</g>
<!-- Node15 -->
<g id="node15" class="node">
<title>Node15</title>
<g id="a_node15"><a xlink:href="../../dd/d47/KFPEmcCluster_8h.html" target="_top" xlink:title="KFPEmcCluster.h">
<polygon fill="none" stroke="#000000" points="138.449,-171.5 138.449,-191.5 238.449,-191.5 238.449,-171.5 138.449,-171.5"/>
<text text-anchor="middle" x="188.449" y="-178.5" font-family="FreeSans" font-size="10.00" fill="#000000">KFPEmcCluster.h</text>
</a>
</g>
</g>
<!-- Node2&#45;&gt;Node15 -->
<g id="edge18" class="edge">
<title>Node2&#45;&gt;Node15</title>
<path fill="none" stroke="#191970" d="M286.4481,-228.4408C267.7009,-219.461 240.0174,-206.2008 218.8512,-196.0624"/>
<polygon fill="#191970" stroke="#191970" points="220.171,-192.8138 209.6402,-191.6504 217.147,-199.127 220.171,-192.8138"/>
</g>
<!-- Node16 -->
<g id="node16" class="node">
<title>Node16</title>
<g id="a_node16"><a xlink:href="../../d9/d6b/KFPVertex_8h.html" target="_top" xlink:title="KFPVertex.h">
<polygon fill="none" stroke="#000000" points="44.449,-171.5 44.449,-191.5 120.449,-191.5 120.449,-171.5 44.449,-171.5"/>
<text text-anchor="middle" x="82.449" y="-178.5" font-family="FreeSans" font-size="10.00" fill="#000000">KFPVertex.h</text>
</a>
</g>
</g>
<!-- Node2&#45;&gt;Node16 -->
<g id="edge20" class="edge">
<title>Node2&#45;&gt;Node16</title>
<path fill="none" stroke="#191970" d="M267.7415,-228.4408C229.397,-218.7268 171.2807,-204.004 130.3795,-193.6424"/>
<polygon fill="#191970" stroke="#191970" points="131.1874,-190.2366 120.6341,-191.1736 129.4684,-197.0222 131.1874,-190.2366"/>
</g>
<!-- Node4 -->
<g id="node4" class="node">
<title>Node4</title>
<polygon fill="none" stroke="#bfbfbf" points="471.949,-114.5 471.949,-134.5 520.949,-134.5 520.949,-114.5 471.949,-114.5"/>
<text text-anchor="middle" x="496.449" y="-121.5" font-family="FreeSans" font-size="10.00" fill="#000000">vector</text>
</g>
<!-- Node3&#45;&gt;Node4 -->
<g id="edge3" class="edge">
<title>Node3&#45;&gt;Node4</title>
<path fill="none" stroke="#191970" d="M480.8458,-171.3095C483.3586,-163.7714 486.8591,-153.2696 489.908,-144.123"/>
<polygon fill="#191970" stroke="#191970" points="493.2397,-145.1959 493.0816,-134.6022 486.5989,-142.9823 493.2397,-145.1959"/>
</g>
<!-- Node5 -->
<g id="node5" class="node">
<title>Node5</title>
<g id="a_node5"><a xlink:href="../../dc/d15/KFParticleDef_8h.html" target="_top" xlink:title="KFParticleDef.h">
<polygon fill="none" stroke="#000000" points="248.449,-114.5 248.449,-134.5 340.449,-134.5 340.449,-114.5 248.449,-114.5"/>
<text text-anchor="middle" x="294.449" y="-121.5" font-family="FreeSans" font-size="10.00" fill="#000000">KFParticleDef.h</text>
</a>
</g>
</g>
<!-- Node3&#45;&gt;Node5 -->
<g id="edge4" class="edge">
<title>Node3&#45;&gt;Node5</title>
<path fill="none" stroke="#191970" d="M445.1535,-171.4408C414.9321,-162.0275 369.6097,-147.9107 336.561,-137.6169"/>
<polygon fill="#191970" stroke="#191970" points="337.3174,-134.1866 326.7289,-134.5544 335.2356,-140.8699 337.3174,-134.1866"/>
</g>
<!-- Node6 -->
<g id="node6" class="node">
<title>Node6</title>
<polygon fill="none" stroke="#bfbfbf" points="473.949,-57.5 473.949,-77.5 538.949,-77.5 538.949,-57.5 473.949,-57.5"/>
<text text-anchor="middle" x="506.449" y="-64.5" font-family="FreeSans" font-size="10.00" fill="#000000">TObject.h</text>
</g>
<!-- Node5&#45;&gt;Node6 -->
<g id="edge5" class="edge">
<title>Node5&#45;&gt;Node6</title>
<path fill="none" stroke="#191970" d="M331.8624,-114.4408C368.8534,-104.495 425.3735,-89.2986 464.0182,-78.9083"/>
<polygon fill="#191970" stroke="#191970" points="465.1751,-82.2216 473.9234,-76.2451 463.3575,-75.4617 465.1751,-82.2216"/>
</g>
<!-- Node7 -->
<g id="node7" class="node">
<title>Node7</title>
<polygon fill="none" stroke="#bfbfbf" points="213.949,-.5 213.949,-20.5 258.949,-20.5 258.949,-.5 213.949,-.5"/>
<text text-anchor="middle" x="236.449" y="-7.5" font-family="FreeSans" font-size="10.00" fill="#000000">Vc/Vc</text>
</g>
<!-- Node5&#45;&gt;Node7 -->
<g id="edge6" class="edge">
<title>Node5&#45;&gt;Node7</title>
<path fill="none" stroke="#191970" d="M283.7249,-114.3723C274.9537,-105.5363 262.8332,-91.9735 255.449,-78 247.5498,-63.0519 242.6295,-44.4577 239.7808,-30.5722"/>
<polygon fill="#191970" stroke="#191970" points="243.1962,-29.7948 237.9229,-20.6055 236.3147,-31.0776 243.1962,-29.7948"/>
</g>
<!-- Node8 -->
<g id="node8" class="node">
<title>Node8</title>
<polygon fill="none" stroke="#bfbfbf" points="49.949,-57.5 49.949,-77.5 128.949,-77.5 128.949,-57.5 49.949,-57.5"/>
<text text-anchor="middle" x="89.449" y="-64.5" font-family="FreeSans" font-size="10.00" fill="#000000">Vc/version.h</text>
</g>
<!-- Node5&#45;&gt;Node8 -->
<g id="edge7" class="edge">
<title>Node5&#45;&gt;Node8</title>
<path fill="none" stroke="#191970" d="M258.271,-114.4408C224.1245,-104.9464 172.7687,-90.6669 135.6693,-80.3515"/>
<polygon fill="#191970" stroke="#191970" points="136.1817,-76.8612 125.6095,-77.5544 134.3064,-83.6054 136.1817,-76.8612"/>
</g>
<!-- Node9 -->
<g id="node9" class="node">
<title>Node9</title>
<polygon fill="none" stroke="#bfbfbf" points="146.949,-57.5 146.949,-77.5 207.949,-77.5 207.949,-57.5 146.949,-57.5"/>
<text text-anchor="middle" x="177.449" y="-64.5" font-family="FreeSans" font-size="10.00" fill="#000000">Vc/limits</text>
</g>
<!-- Node5&#45;&gt;Node9 -->
<g id="edge8" class="edge">
<title>Node5&#45;&gt;Node9</title>
<path fill="none" stroke="#191970" d="M273.8011,-114.4408C255.3689,-105.461 228.1507,-92.2008 207.3402,-82.0624"/>
<polygon fill="#191970" stroke="#191970" points="208.8069,-78.8837 198.2841,-77.6504 205.7411,-85.1766 208.8069,-78.8837"/>
</g>
<!-- Node10 -->
<g id="node10" class="node">
<title>Node10</title>
<polygon fill="none" stroke="#bfbfbf" points="264.449,-57.5 264.449,-77.5 324.449,-77.5 324.449,-57.5 264.449,-57.5"/>
<text text-anchor="middle" x="294.449" y="-64.5" font-family="FreeSans" font-size="10.00" fill="#000000">Rtypes.h</text>
</g>
<!-- Node5&#45;&gt;Node10 -->
<g id="edge9" class="edge">
<title>Node5&#45;&gt;Node10</title>
<path fill="none" stroke="#191970" d="M294.449,-114.3095C294.449,-106.9335 294.449,-96.72 294.449,-87.715"/>
<polygon fill="#191970" stroke="#191970" points="297.9491,-87.6022 294.449,-77.6022 290.9491,-87.6023 297.9491,-87.6022"/>
</g>
<!-- Node11 -->
<g id="node11" class="node">
<title>Node11</title>
<g id="a_node11"><a xlink:href="../../de/d7f/KFPSimdAllocator_8h.html" target="_top" xlink:title="KFPSimdAllocator.h">
<polygon fill="none" stroke="#000000" points="342.949,-57.5 342.949,-77.5 455.949,-77.5 455.949,-57.5 342.949,-57.5"/>
<text text-anchor="middle" x="399.449" y="-64.5" font-family="FreeSans" font-size="10.00" fill="#000000">KFPSimdAllocator.h</text>
</a>
</g>
</g>
<!-- Node5&#45;&gt;Node11 -->
<g id="edge10" class="edge">
<title>Node5&#45;&gt;Node11</title>
<path fill="none" stroke="#191970" d="M313.2209,-114.3095C329.5707,-105.434 353.4886,-92.4499 371.9892,-82.4068"/>
<polygon fill="#191970" stroke="#191970" points="373.7209,-85.4492 380.8396,-77.6022 370.3813,-79.2972 373.7209,-85.4492"/>
</g>
<!-- Node11&#45;&gt;Node7 -->
<g id="edge11" class="edge">
<title>Node11&#45;&gt;Node7</title>
<path fill="none" stroke="#191970" d="M370.6831,-57.4408C342.108,-47.4482 298.3759,-32.1554 268.654,-21.7619"/>
<polygon fill="#191970" stroke="#191970" points="269.7485,-18.4368 259.1537,-18.4397 267.4378,-25.0445 269.7485,-18.4368"/>
</g>
<!-- Node12&#45;&gt;Node6 -->
<g id="edge14" class="edge">
<title>Node12&#45;&gt;Node6</title>
<path fill="none" stroke="#191970" d="M431.718,-114.3095C445.5643,-105.6366 465.6736,-93.0407 481.5451,-83.0992"/>
<polygon fill="#191970" stroke="#191970" points="483.7041,-85.8768 490.3209,-77.6022 479.9882,-79.9445 483.7041,-85.8768"/>
</g>
<!-- Node13 -->
<g id="node13" class="node">
<title>Node13</title>
<polygon fill="none" stroke="#bfbfbf" points="610.449,-57.5 610.449,-77.5 658.449,-77.5 658.449,-57.5 610.449,-57.5"/>
<text text-anchor="middle" x="634.449" y="-64.5" font-family="FreeSans" font-size="10.00" fill="#000000">cmath</text>
</g>
<!-- Node12&#45;&gt;Node13 -->
<g id="edge13" class="edge">
<title>Node12&#45;&gt;Node13</title>
<path fill="none" stroke="#191970" d="M450.6352,-115.342C491.877,-104.6078 559.7487,-86.9425 600.4648,-76.3452"/>
<polygon fill="#191970" stroke="#191970" points="601.4025,-79.7178 610.1985,-73.8118 599.6393,-72.9435 601.4025,-79.7178"/>
</g>
<!-- Node14&#45;&gt;Node5 -->
<g id="edge17" class="edge">
<title>Node14&#45;&gt;Node5</title>
<path fill="none" stroke="#191970" d="M305.1249,-171.3095C303.4241,-163.8524 301.062,-153.4951 298.9919,-144.4186"/>
<polygon fill="#191970" stroke="#191970" points="302.3891,-143.5736 296.753,-134.6022 295.5643,-145.1302 302.3891,-143.5736"/>
</g>
<!-- Node14&#45;&gt;Node12 -->
<g id="edge16" class="edge">
<title>Node14&#45;&gt;Node12</title>
<path fill="none" stroke="#191970" d="M326.5086,-171.4408C343.3697,-162.5419 368.1954,-149.4394 387.3366,-139.3371"/>
<polygon fill="#191970" stroke="#191970" points="389.0065,-142.4134 396.2167,-134.6504 385.7391,-136.2227 389.0065,-142.4134"/>
</g>
<!-- Node15&#45;&gt;Node5 -->
<g id="edge19" class="edge">
<title>Node15&#45;&gt;Node5</title>
<path fill="none" stroke="#191970" d="M207.3997,-171.3095C223.9052,-162.434 248.0509,-149.4499 266.7277,-139.4068"/>
<polygon fill="#191970" stroke="#191970" points="268.5127,-142.4209 275.6624,-134.6022 265.1974,-136.2557 268.5127,-142.4209"/>
</g>
<!-- Node17&#45;&gt;Node13 -->
<g id="edge25" class="edge">
<title>Node17&#45;&gt;Node13</title>
<path fill="none" stroke="#191970" d="M629.1975,-228.4603C642.8225,-220.6176 659.5367,-208.3104 667.449,-192 684.5843,-156.6776 662.6945,-111.2462 647.2485,-86.1857"/>
<polygon fill="#191970" stroke="#191970" points="650.1,-84.1492 641.739,-77.642 644.2171,-87.9429 650.1,-84.1492"/>
</g>
<!-- Node18 -->
<g id="node18" class="node">
<title>Node18</title>
<g id="a_node18"><a xlink:href="../../d0/d4c/KFParticleBase_8h.html" target="_top" xlink:title="KFParticleBase.h">
<polygon fill="none" stroke="#000000" points="558.449,-171.5 558.449,-191.5 658.449,-191.5 658.449,-171.5 558.449,-171.5"/>
<text text-anchor="middle" x="608.449" y="-178.5" font-family="FreeSans" font-size="10.00" fill="#000000">KFParticleBase.h</text>
</a>
</g>
</g>
<!-- Node17&#45;&gt;Node18 -->
<g id="edge22" class="edge">
<title>Node17&#45;&gt;Node18</title>
<path fill="none" stroke="#191970" d="M608.449,-228.3095C608.449,-220.9335 608.449,-210.72 608.449,-201.715"/>
<polygon fill="#191970" stroke="#191970" points="611.9491,-201.6022 608.449,-191.6022 604.9491,-201.6023 611.9491,-201.6022"/>
</g>
<!-- Node18&#45;&gt;Node4 -->
<g id="edge24" class="edge">
<title>Node18&#45;&gt;Node4</title>
<path fill="none" stroke="#191970" d="M588.6835,-171.4408C571.1185,-162.5014 545.2185,-149.3202 525.3324,-139.1996"/>
<polygon fill="#191970" stroke="#191970" points="526.8934,-136.0669 516.3937,-134.6504 523.7184,-142.3054 526.8934,-136.0669"/>
</g>
<!-- Node18&#45;&gt;Node6 -->
<g id="edge23" class="edge">
<title>Node18&#45;&gt;Node6</title>
<path fill="none" stroke="#191970" d="M599.3972,-171.3833C582.126,-152.0802 544.2614,-109.7609 522.5664,-85.5135"/>
<polygon fill="#191970" stroke="#191970" points="524.9035,-82.8766 515.6272,-77.7579 519.6868,-87.5442 524.9035,-82.8766"/>
</g>
<!-- Node19&#45;&gt;Node7 -->
<g id="edge27" class="edge">
<title>Node19&#45;&gt;Node7</title>
<path fill="none" stroke="#191970" d="M75.057,-228.3857C60.8693,-220.6451 43.6926,-208.4871 35.449,-192 19.6831,-160.4682 -38.1438,-152.0616 40.449,-57 60.9931,-32.151 153.6211,-18.9746 203.8382,-13.5471"/>
<polygon fill="#191970" stroke="#191970" points="204.2842,-17.0197 213.8691,-12.5051 203.5609,-10.0572 204.2842,-17.0197"/>
</g>
</g>
</svg>
