<?xml version="1.0" encoding="UTF-8" standalone="no"?>
<!DOCTYPE svg PUBLIC "-//W3C//DTD SVG 1.1//EN"
 "http://www.w3.org/Graphics/SVG/1.1/DTD/svg11.dtd">
<!-- Generated by graphviz version 2.40.1 (20161225.0304)
 -->
<!-- Title: GenFit/blob/master/measurements/include/HMatrixUnit.h Pages: 1 -->
<svg width="438pt" height="122pt"
 viewBox="0.00 0.00 437.50 122.00" xmlns="http://www.w3.org/2000/svg" xmlns:xlink="http://www.w3.org/1999/xlink">
<g id="graph0" class="graph" transform="scale(1 1) rotate(0) translate(4 118)">
<title>GenFit/blob/master/measurements/include/HMatrixUnit.h</title>
<!-- Node1 -->
<g id="node1" class="node">
<title>Node1</title>
<polygon fill="#bfbfbf" stroke="#000000" points="153.5,-69.5 153.5,-113.5 289.5,-113.5 289.5,-69.5 153.5,-69.5"/>
<text text-anchor="start" x="161.5" y="-100.5" font-family="FreeSans" font-size="10.00" fill="#000000">GenFit/blob/master</text>
<text text-anchor="start" x="161.5" y="-88.5" font-family="FreeSans" font-size="10.00" fill="#000000">/measurements/include</text>
<text text-anchor="middle" x="221.5" y="-76.5" font-family="FreeSans" font-size="10.00" fill="#000000">/HMatrixUnit.h</text>
</g>
<!-- Node2 -->
<g id="node2" class="node">
<title>Node2</title>
<g id="a_node2"><a xlink:href="../../dd/db5/FullMeasurement_8cc.html" target="_top" xlink:title="GenFit/blob/master\l/measurements/src/FullMeasurement.cc">
<polygon fill="none" stroke="#000000" points="0,-.5 0,-32.5 219,-32.5 219,-.5 0,-.5"/>
<text text-anchor="start" x="8" y="-19.5" font-family="FreeSans" font-size="10.00" fill="#000000">GenFit/blob/master</text>
<text text-anchor="middle" x="109.5" y="-7.5" font-family="FreeSans" font-size="10.00" fill="#000000">/measurements/src/FullMeasurement.cc</text>
</a>
</g>
</g>
<!-- Node1&#45;&gt;Node2 -->
<g id="edge1" class="edge">
<title>Node1&#45;&gt;Node2</title>
<path fill="none" stroke="#191970" d="M180.0415,-63.7376C164.4527,-53.2987 147.2487,-41.7781 133.7334,-32.7277"/>
<polygon fill="#191970" stroke="#191970" points="178.2455,-66.7472 188.5021,-69.4032 182.1404,-60.9308 178.2455,-66.7472"/>
</g>
<!-- Node3 -->
<g id="node3" class="node">
<title>Node3</title>
<g id="a_node3"><a xlink:href="../../df/d77/HMatrixUnit_8cc.html" target="_top" xlink:title="GenFit/blob/master\l/measurements/src/HMatrixUnit.cc">
<polygon fill="none" stroke="#000000" points="237.5,-.5 237.5,-32.5 429.5,-32.5 429.5,-.5 237.5,-.5"/>
<text text-anchor="start" x="245.5" y="-19.5" font-family="FreeSans" font-size="10.00" fill="#000000">GenFit/blob/master</text>
<text text-anchor="middle" x="333.5" y="-7.5" font-family="FreeSans" font-size="10.00" fill="#000000">/measurements/src/HMatrixUnit.cc</text>
</a>
</g>
</g>
<!-- Node1&#45;&gt;Node3 -->
<g id="edge2" class="edge">
<title>Node1&#45;&gt;Node3</title>
<path fill="none" stroke="#191970" d="M262.9585,-63.7376C278.5473,-53.2987 295.7513,-41.7781 309.2666,-32.7277"/>
<polygon fill="#191970" stroke="#191970" points="260.8596,-60.9308 254.4979,-69.4032 264.7545,-66.7472 260.8596,-60.9308"/>
</g>
</g>
</svg>
