<?xml version="1.0" encoding="UTF-8" standalone="no"?>
<!DOCTYPE svg PUBLIC "-//W3C//DTD SVG 1.1//EN"
 "http://www.w3.org/Graphics/SVG/1.1/DTD/svg11.dtd">
<!-- Generated by graphviz version 2.40.1 (20161225.0304)
 -->
<!-- Title: coresoftware/blob/master/offline/packages/mvtx/CylinderGeom_Mvtx.cc Pages: 1 -->
<svg width="636pt" height="293pt"
 viewBox="0.00 0.00 635.82 293.00" xmlns="http://www.w3.org/2000/svg" xmlns:xlink="http://www.w3.org/1999/xlink">
<g id="graph0" class="graph" transform="scale(1 1) rotate(0) translate(4 289)">
<title>coresoftware/blob/master/offline/packages/mvtx/CylinderGeom_Mvtx.cc</title>
<!-- Node1 -->
<g id="node1" class="node">
<title>Node1</title>
<polygon fill="#bfbfbf" stroke="#000000" points="276.3224,-240.5 276.3224,-284.5 422.3224,-284.5 422.3224,-240.5 276.3224,-240.5"/>
<text text-anchor="start" x="284.3224" y="-271.5" font-family="FreeSans" font-size="10.00" fill="#000000">coresoftware/blob/master</text>
<text text-anchor="start" x="284.3224" y="-259.5" font-family="FreeSans" font-size="10.00" fill="#000000">/offline/packages/mvtx</text>
<text text-anchor="middle" x="349.3224" y="-247.5" font-family="FreeSans" font-size="10.00" fill="#000000">/CylinderGeom_Mvtx.cc</text>
</g>
<!-- Node2 -->
<g id="node2" class="node">
<title>Node2</title>
<g id="a_node2"><a xlink:href="../../d8/df2/CylinderGeom__Mvtx_8h.html" target="_top" xlink:title="CylinderGeom_Mvtx.h">
<polygon fill="none" stroke="#000000" points="103.8224,-183.5 103.8224,-203.5 230.8224,-203.5 230.8224,-183.5 103.8224,-183.5"/>
<text text-anchor="middle" x="167.3224" y="-190.5" font-family="FreeSans" font-size="10.00" fill="#000000">CylinderGeom_Mvtx.h</text>
</a>
</g>
</g>
<!-- Node1&#45;&gt;Node2 -->
<g id="edge1" class="edge">
<title>Node1&#45;&gt;Node2</title>
<path fill="none" stroke="#191970" d="M291.236,-240.4783C262.3985,-229.5453 228.4645,-216.6802 203.4056,-207.1799"/>
<polygon fill="#191970" stroke="#191970" points="204.5196,-203.8592 193.9283,-203.5869 202.0381,-210.4046 204.5196,-203.8592"/>
</g>
<!-- Node8 -->
<g id="node8" class="node">
<title>Node8</title>
<polygon fill="none" stroke="#bfbfbf" points="276.3224,-57.5 276.3224,-77.5 324.3224,-77.5 324.3224,-57.5 276.3224,-57.5"/>
<text text-anchor="middle" x="300.3224" y="-64.5" font-family="FreeSans" font-size="10.00" fill="#000000">cmath</text>
</g>
<!-- Node1&#45;&gt;Node8 -->
<g id="edge16" class="edge">
<title>Node1&#45;&gt;Node8</title>
<path fill="none" stroke="#191970" d="M332.2915,-240.1137C316.5369,-217.8724 294.2506,-182.1035 285.3224,-147 280.1819,-126.789 286.05,-103.2797 291.8862,-87.0966"/>
<polygon fill="#191970" stroke="#191970" points="295.2068,-88.2158 295.6008,-77.6283 288.6904,-85.6593 295.2068,-88.2158"/>
</g>
<!-- Node9 -->
<g id="node9" class="node">
<title>Node9</title>
<polygon fill="none" stroke="#bfbfbf" points="293.8224,-120.5 293.8224,-140.5 364.8224,-140.5 364.8224,-120.5 293.8224,-120.5"/>
<text text-anchor="middle" x="329.3224" y="-127.5" font-family="FreeSans" font-size="10.00" fill="#000000">TVector3.h</text>
</g>
<!-- Node1&#45;&gt;Node9 -->
<g id="edge15" class="edge">
<title>Node1&#45;&gt;Node9</title>
<path fill="none" stroke="#191970" d="M336.2842,-240.2437C330.8107,-229.6454 325.0819,-216.5642 322.3224,-204 318.422,-186.2415 320.9928,-165.5976 324.0612,-150.7176"/>
<polygon fill="#191970" stroke="#191970" points="327.5566,-151.1377 326.4057,-140.6055 320.7375,-149.5566 327.5566,-151.1377"/>
</g>
<!-- Node10 -->
<g id="node10" class="node">
<title>Node10</title>
<g id="a_node10"><a xlink:href="../../d3/dba/SegmentationAlpide_8h.html" target="_top" xlink:title="mvtx object with ALPIDE chip description">
<polygon fill="none" stroke="#000000" points="331.3224,-183.5 331.3224,-203.5 459.3224,-203.5 459.3224,-183.5 331.3224,-183.5"/>
<text text-anchor="middle" x="395.3224" y="-190.5" font-family="FreeSans" font-size="10.00" fill="#000000">SegmentationAlpide.h</text>
</a>
</g>
</g>
<!-- Node1&#45;&gt;Node10 -->
<g id="edge12" class="edge">
<title>Node1&#45;&gt;Node10</title>
<path fill="none" stroke="#191970" d="M364.1303,-240.2882C370.1481,-231.2615 377.0265,-220.9438 382.7901,-212.2984"/>
<polygon fill="#191970" stroke="#191970" points="385.8784,-213.9757 388.5133,-203.7137 380.054,-210.0927 385.8784,-213.9757"/>
</g>
<!-- Node11 -->
<g id="node11" class="node">
<title>Node11</title>
<polygon fill="none" stroke="#bfbfbf" points="477.8224,-183.5 477.8224,-203.5 552.8224,-203.5 552.8224,-183.5 477.8224,-183.5"/>
<text text-anchor="middle" x="515.3224" y="-190.5" font-family="FreeSans" font-size="10.00" fill="#000000">TRotation.h</text>
</g>
<!-- Node1&#45;&gt;Node11 -->
<g id="edge14" class="edge">
<title>Node1&#45;&gt;Node11</title>
<path fill="none" stroke="#191970" d="M402.3022,-240.4783C428.3718,-229.6421 459.008,-216.9078 481.8026,-207.4329"/>
<polygon fill="#191970" stroke="#191970" points="483.1648,-210.6571 491.0554,-203.5869 480.478,-204.1933 483.1648,-210.6571"/>
</g>
<!-- Node12 -->
<g id="node12" class="node">
<title>Node12</title>
<polygon fill="none" stroke="#bfbfbf" points="570.8224,-183.5 570.8224,-203.5 627.8224,-203.5 627.8224,-183.5 570.8224,-183.5"/>
<text text-anchor="middle" x="599.3224" y="-190.5" font-family="FreeSans" font-size="10.00" fill="#000000">ostream</text>
</g>
<!-- Node1&#45;&gt;Node12 -->
<g id="edge17" class="edge">
<title>Node1&#45;&gt;Node12</title>
<path fill="none" stroke="#191970" d="M422.805,-242.483C461.3859,-231.9346 509.6999,-218.6644 560.7445,-204.428"/>
<polygon fill="#191970" stroke="#191970" points="561.9553,-207.7238 570.6459,-201.6638 560.0731,-200.9816 561.9553,-207.7238"/>
</g>
<!-- Node3 -->
<g id="node3" class="node">
<title>Node3</title>
<g id="a_node3"><a xlink:href="../../d9/d44/PHG4CylinderGeom_8h.html" target="_top" xlink:title="g4detectors/PHG4Cylinder\lGeom.h">
<polygon fill="none" stroke="#000000" points="85.8224,-114.5 85.8224,-146.5 236.8224,-146.5 236.8224,-114.5 85.8224,-114.5"/>
<text text-anchor="start" x="93.8224" y="-133.5" font-family="FreeSans" font-size="10.00" fill="#000000">g4detectors/PHG4Cylinder</text>
<text text-anchor="middle" x="161.3224" y="-121.5" font-family="FreeSans" font-size="10.00" fill="#000000">Geom.h</text>
</a>
</g>
</g>
<!-- Node2&#45;&gt;Node3 -->
<g id="edge2" class="edge">
<title>Node2&#45;&gt;Node3</title>
<path fill="none" stroke="#191970" d="M166.3584,-183.378C165.6748,-176.2008 164.7243,-166.2202 163.833,-156.8614"/>
<polygon fill="#191970" stroke="#191970" points="167.3017,-156.3651 162.8692,-146.742 160.3332,-157.0288 167.3017,-156.3651"/>
</g>
<!-- Node6 -->
<g id="node6" class="node">
<title>Node6</title>
<polygon fill="none" stroke="#bfbfbf" points="60.3224,-.5 60.3224,-20.5 120.3224,-20.5 120.3224,-.5 60.3224,-.5"/>
<text text-anchor="middle" x="90.3224" y="-7.5" font-family="FreeSans" font-size="10.00" fill="#000000">iostream</text>
</g>
<!-- Node2&#45;&gt;Node6 -->
<g id="edge11" class="edge">
<title>Node2&#45;&gt;Node6</title>
<path fill="none" stroke="#191970" d="M137.0756,-183.4641C96.7733,-168.1528 27.7103,-134.6098 3.3224,-78 -.3704,-69.4283 -1.476,-65.0054 3.3224,-57 13.6488,-39.7719 32.7733,-28.5697 50.4673,-21.4879"/>
<polygon fill="#191970" stroke="#191970" points="51.8988,-24.691 60.0852,-17.9654 49.4914,-18.118 51.8988,-24.691"/>
</g>
<!-- Node2&#45;&gt;Node9 -->
<g id="edge10" class="edge">
<title>Node2&#45;&gt;Node9</title>
<path fill="none" stroke="#191970" d="M193.3505,-183.378C220.6292,-172.7696 263.6575,-156.0363 293.9921,-144.2396"/>
<polygon fill="#191970" stroke="#191970" points="295.3074,-147.4835 303.3589,-140.5969 292.7702,-140.9594 295.3074,-147.4835"/>
</g>
<!-- Node4 -->
<g id="node4" class="node">
<title>Node4</title>
<g id="a_node4"><a xlink:href="../../df/d32/PHObject_8h.html" target="_top" xlink:title="phool/PHObject.h">
<polygon fill="none" stroke="#000000" points="154.3224,-57.5 154.3224,-77.5 258.3224,-77.5 258.3224,-57.5 154.3224,-57.5"/>
<text text-anchor="middle" x="206.3224" y="-64.5" font-family="FreeSans" font-size="10.00" fill="#000000">phool/PHObject.h</text>
</a>
</g>
</g>
<!-- Node3&#45;&gt;Node4 -->
<g id="edge3" class="edge">
<title>Node3&#45;&gt;Node4</title>
<path fill="none" stroke="#191970" d="M172.911,-114.2759C179.0828,-105.6354 186.6999,-94.9715 193.1017,-86.0089"/>
<polygon fill="#191970" stroke="#191970" points="196.0357,-87.923 199,-77.7513 190.3395,-83.8543 196.0357,-87.923"/>
</g>
<!-- Node3&#45;&gt;Node6 -->
<g id="edge9" class="edge">
<title>Node3&#45;&gt;Node6</title>
<path fill="none" stroke="#191970" d="M151.747,-114.3163C138.706,-92.2751 115.4021,-52.8883 101.5525,-29.4806"/>
<polygon fill="#191970" stroke="#191970" points="104.5224,-27.6267 96.418,-20.8025 98.4979,-31.1912 104.5224,-27.6267"/>
</g>
<!-- Node7 -->
<g id="node7" class="node">
<title>Node7</title>
<g id="a_node7"><a xlink:href="../../d5/d6f/phool_8h.html" target="_top" xlink:title="phool/phool.h">
<polygon fill="none" stroke="#000000" points="12.8224,-57.5 12.8224,-77.5 97.8224,-77.5 97.8224,-57.5 12.8224,-57.5"/>
<text text-anchor="middle" x="55.3224" y="-64.5" font-family="FreeSans" font-size="10.00" fill="#000000">phool/phool.h</text>
</a>
</g>
</g>
<!-- Node3&#45;&gt;Node7 -->
<g id="edge6" class="edge">
<title>Node3&#45;&gt;Node7</title>
<path fill="none" stroke="#191970" d="M134.2998,-114.4394C117.9944,-104.7485 97.3309,-92.4673 81.2301,-82.898"/>
<polygon fill="#191970" stroke="#191970" points="82.7294,-79.7176 72.3448,-77.6171 79.153,-85.735 82.7294,-79.7176"/>
</g>
<!-- Node3&#45;&gt;Node8 -->
<g id="edge8" class="edge">
<title>Node3&#45;&gt;Node8</title>
<path fill="none" stroke="#191970" d="M196.7576,-114.4394C218.9385,-104.3862 247.2696,-91.5455 268.6912,-81.8364"/>
<polygon fill="#191970" stroke="#191970" points="270.3372,-84.9332 278.0005,-77.6171 267.4474,-78.5575 270.3372,-84.9332"/>
</g>
<!-- Node5 -->
<g id="node5" class="node">
<title>Node5</title>
<polygon fill="none" stroke="#bfbfbf" points="173.8224,-.5 173.8224,-20.5 238.8224,-20.5 238.8224,-.5 173.8224,-.5"/>
<text text-anchor="middle" x="206.3224" y="-7.5" font-family="FreeSans" font-size="10.00" fill="#000000">TObject.h</text>
</g>
<!-- Node4&#45;&gt;Node5 -->
<g id="edge4" class="edge">
<title>Node4&#45;&gt;Node5</title>
<path fill="none" stroke="#191970" d="M206.3224,-57.3095C206.3224,-49.9335 206.3224,-39.72 206.3224,-30.715"/>
<polygon fill="#191970" stroke="#191970" points="209.8225,-30.6022 206.3224,-20.6022 202.8225,-30.6023 209.8225,-30.6022"/>
</g>
<!-- Node4&#45;&gt;Node6 -->
<g id="edge5" class="edge">
<title>Node4&#45;&gt;Node6</title>
<path fill="none" stroke="#191970" d="M185.8509,-57.4408C167.5763,-48.461 140.5907,-35.2008 119.9581,-25.0624"/>
<polygon fill="#191970" stroke="#191970" points="121.498,-21.9193 110.9794,-20.6504 118.4108,-28.2019 121.498,-21.9193"/>
</g>
<!-- Node7&#45;&gt;Node6 -->
<g id="edge7" class="edge">
<title>Node7&#45;&gt;Node6</title>
<path fill="none" stroke="#191970" d="M61.5797,-57.3095C66.3577,-49.5282 73.0747,-38.589 78.814,-29.2423"/>
<polygon fill="#191970" stroke="#191970" points="81.8692,-30.9554 84.1193,-20.6022 75.904,-27.2925 81.8692,-30.9554"/>
</g>
<!-- Node10&#45;&gt;Node9 -->
<g id="edge13" class="edge">
<title>Node10&#45;&gt;Node9</title>
<path fill="none" stroke="#191970" d="M384.7183,-183.378C374.6749,-173.791 359.3911,-159.202 347.4197,-147.7747"/>
<polygon fill="#191970" stroke="#191970" points="349.7696,-145.1792 340.1194,-140.8062 344.9363,-150.2428 349.7696,-145.1792"/>
</g>
</g>
</svg>
