<?xml version="1.0" encoding="UTF-8" standalone="no"?>
<!DOCTYPE svg PUBLIC "-//W3C//DTD SVG 1.1//EN"
 "http://www.w3.org/Graphics/SVG/1.1/DTD/svg11.dtd">
<!-- Generated by graphviz version 2.40.1 (20161225.0304)
 -->
<!-- Title: PHTimer::restart Pages: 1 -->
<svg width="911pt" height="875pt"
 viewBox="0.00 0.00 911.00 875.00" xmlns="http://www.w3.org/2000/svg" xmlns:xlink="http://www.w3.org/1999/xlink">
<g id="graph0" class="graph" transform="scale(1 1) rotate(0) translate(4 871)">
<title>PHTimer::restart</title>
<!-- Node1 -->
<g id="node1" class="node">
<title>Node1</title>
<polygon fill="#bfbfbf" stroke="#000000" points="0,-400.5 0,-420.5 99,-420.5 99,-400.5 0,-400.5"/>
<text text-anchor="middle" x="49.5" y="-407.5" font-family="FreeSans" font-size="10.00" fill="#000000">PHTimer::restart</text>
</g>
<!-- Node2 -->
<g id="node2" class="node">
<title>Node2</title>
<g id="a_node2"><a xlink:href="../../d9/d7a/classPHG4PhenixEventAction.html#a8d3143a3ddb0d3f652ceebd780a28357" target="_top" xlink:title="PHG4PhenixEventAction\l::BeginOfEventAction">
<polygon fill="none" stroke="#000000" points="145.5,-834.5 145.5,-866.5 284.5,-866.5 284.5,-834.5 145.5,-834.5"/>
<text text-anchor="start" x="153.5" y="-853.5" font-family="FreeSans" font-size="10.00" fill="#000000">PHG4PhenixEventAction</text>
<text text-anchor="middle" x="215" y="-841.5" font-family="FreeSans" font-size="10.00" fill="#000000">::BeginOfEventAction</text>
</a>
</g>
</g>
<!-- Node1&#45;&gt;Node2 -->
<g id="edge1" class="edge">
<title>Node1&#45;&gt;Node2</title>
<path fill="none" stroke="#191970" d="M51.0097,-430.9553C56.9556,-506.1473 81.1192,-765.9603 135,-825.5 138.0268,-828.8447 141.4936,-831.7459 145.2495,-834.262"/>
<polygon fill="#191970" stroke="#191970" points="54.4648,-430.2345 50.2101,-420.5316 47.4853,-430.77 54.4648,-430.2345"/>
</g>
<!-- Node3 -->
<g id="node3" class="node">
<title>Node3</title>
<g id="a_node3"><a xlink:href="../../da/daa/classPgPostBankBackupManager.html#a0a04a1d872f424730592d5b01a9952be" target="_top" xlink:title="PgPostBankBackupManager\l::CleanTable">
<polygon fill="none" stroke="#000000" points="136.5,-783.5 136.5,-815.5 293.5,-815.5 293.5,-783.5 136.5,-783.5"/>
<text text-anchor="start" x="144.5" y="-802.5" font-family="FreeSans" font-size="10.00" fill="#000000">PgPostBankBackupManager</text>
<text text-anchor="middle" x="215" y="-790.5" font-family="FreeSans" font-size="10.00" fill="#000000">::CleanTable</text>
</a>
</g>
</g>
<!-- Node1&#45;&gt;Node3 -->
<g id="edge2" class="edge">
<title>Node1&#45;&gt;Node3</title>
<path fill="none" stroke="#191970" d="M51.6149,-430.6459C59.2148,-499.3713 87.2526,-723.1757 135,-774.5 138.1716,-777.9092 141.8004,-780.8568 145.7223,-783.4048"/>
<polygon fill="#191970" stroke="#191970" points="55.0906,-430.2322 50.5358,-420.6664 48.1312,-430.9848 55.0906,-430.2322"/>
</g>
<!-- Node4 -->
<g id="node4" class="node">
<title>Node4</title>
<g id="a_node4"><a xlink:href="../../da/daa/classPgPostBankBackupManager.html#a235748109f2b58dfa188d3c20d9fbe9a" target="_top" xlink:title="TFile &#45;&gt; Database for official operation use.">
<polygon fill="none" stroke="#000000" points="136.5,-732.5 136.5,-764.5 293.5,-764.5 293.5,-732.5 136.5,-732.5"/>
<text text-anchor="start" x="144.5" y="-751.5" font-family="FreeSans" font-size="10.00" fill="#000000">PgPostBankBackupManager</text>
<text text-anchor="middle" x="215" y="-739.5" font-family="FreeSans" font-size="10.00" fill="#000000">::commitAllBankfromTFile</text>
</a>
</g>
</g>
<!-- Node1&#45;&gt;Node4 -->
<g id="edge3" class="edge">
<title>Node1&#45;&gt;Node4</title>
<path fill="none" stroke="#191970" d="M52.4337,-430.5826C61.8917,-492.7383 93.4014,-680.3664 135,-723.5 138.2324,-726.8517 141.9067,-729.7561 145.8619,-732.2726"/>
<polygon fill="#191970" stroke="#191970" points="55.8666,-429.8729 50.9268,-420.5001 48.9435,-430.9076 55.8666,-429.8729"/>
</g>
<!-- Node5 -->
<g id="node5" class="node">
<title>Node5</title>
<g id="a_node5"><a xlink:href="../../da/daa/classPgPostBankBackupManager.html#a48e85fa7beea90b4d7f828c59b5e5676" target="_top" xlink:title="Database &#45;&gt; TFile for all all records satisifying record_selection.">
<polygon fill="none" stroke="#000000" points="136.5,-681.5 136.5,-713.5 293.5,-713.5 293.5,-681.5 136.5,-681.5"/>
<text text-anchor="start" x="144.5" y="-700.5" font-family="FreeSans" font-size="10.00" fill="#000000">PgPostBankBackupManager</text>
<text text-anchor="middle" x="215" y="-688.5" font-family="FreeSans" font-size="10.00" fill="#000000">::fetchAllBank2TFile</text>
</a>
</g>
</g>
<!-- Node1&#45;&gt;Node5 -->
<g id="edge4" class="edge">
<title>Node1&#45;&gt;Node5</title>
<path fill="none" stroke="#191970" d="M53.5516,-430.4924C65.0724,-485.5153 99.4869,-637.43 135,-672.5 138.4167,-675.8741 142.2819,-678.7937 146.4232,-681.32"/>
<polygon fill="#191970" stroke="#191970" points="56.9528,-429.6558 51.5036,-420.5697 50.0973,-431.0708 56.9528,-429.6558"/>
</g>
<!-- Node6 -->
<g id="node6" class="node">
<title>Node6</title>
<g id="a_node6"><a xlink:href="../../d2/d93/classTrkrEvaluator.html#a753a5ea1a91f097f5c226f5b1620db3f" target="_top" xlink:title="dump the evaluator information into ntuple for external analysis">
<polygon fill="none" stroke="#000000" points="145.5,-630.5 145.5,-662.5 284.5,-662.5 284.5,-630.5 145.5,-630.5"/>
<text text-anchor="start" x="153.5" y="-649.5" font-family="FreeSans" font-size="10.00" fill="#000000">TrkrEvaluator::fillOutput</text>
<text text-anchor="middle" x="215" y="-637.5" font-family="FreeSans" font-size="10.00" fill="#000000">Ntuples</text>
</a>
</g>
</g>
<!-- Node1&#45;&gt;Node6 -->
<g id="edge5" class="edge">
<title>Node1&#45;&gt;Node6</title>
<path fill="none" stroke="#191970" d="M51.91,-430.5864C57.9814,-472.2903 77.7446,-568.7628 135,-621.5 138.746,-624.9504 142.9631,-627.9247 147.4524,-630.4884"/>
<polygon fill="#191970" stroke="#191970" points="55.3653,-430.0187 50.567,-420.5727 48.4274,-430.9492 55.3653,-430.0187"/>
</g>
<!-- Node8 -->
<g id="node8" class="node">
<title>Node8</title>
<g id="a_node8"><a xlink:href="../../d6/d11/classSvtxEvaluator.html#ace95fef2b7b4ad8b797f6695e053dd6e" target="_top" xlink:title="dump the evaluator information into ntuple for external analysis">
<polygon fill="none" stroke="#000000" points="144.5,-579.5 144.5,-611.5 285.5,-611.5 285.5,-579.5 144.5,-579.5"/>
<text text-anchor="start" x="152.5" y="-598.5" font-family="FreeSans" font-size="10.00" fill="#000000">SvtxEvaluator::fillOutput</text>
<text text-anchor="middle" x="215" y="-586.5" font-family="FreeSans" font-size="10.00" fill="#000000">Ntuples</text>
</a>
</g>
</g>
<!-- Node1&#45;&gt;Node8 -->
<g id="edge7" class="edge">
<title>Node1&#45;&gt;Node8</title>
<path fill="none" stroke="#191970" d="M54.788,-430.5467C64.7406,-464.3808 89.4647,-532.8064 135,-570.5 139.1474,-573.9331 143.767,-576.8961 148.6358,-579.4531"/>
<polygon fill="#191970" stroke="#191970" points="58.1412,-429.5413 52.0681,-420.8599 51.4018,-431.4337 58.1412,-429.5413"/>
</g>
<!-- Node10 -->
<g id="node10" class="node">
<title>Node10</title>
<g id="a_node10"><a xlink:href="../../da/df1/classPHRTreeSeeding.html#a302c432e1ce3a4ba3fd7a709b6039eea" target="_top" xlink:title="PHRTreeSeeding::FillTree">
<polygon fill="none" stroke="#000000" points="145,-540.5 145,-560.5 285,-560.5 285,-540.5 145,-540.5"/>
<text text-anchor="middle" x="215" y="-547.5" font-family="FreeSans" font-size="10.00" fill="#000000">PHRTreeSeeding::FillTree</text>
</a>
</g>
</g>
<!-- Node1&#45;&gt;Node10 -->
<g id="edge9" class="edge">
<title>Node1&#45;&gt;Node10</title>
<path fill="none" stroke="#191970" d="M58.9422,-429.888C72.3685,-455.4696 99.3566,-500.2051 135,-525.5 144.1374,-531.9845 155.0156,-536.8299 165.7608,-540.4356"/>
<polygon fill="#191970" stroke="#191970" points="61.9756,-428.1315 54.3238,-420.8034 55.7356,-431.3038 61.9756,-428.1315"/>
</g>
<!-- Node11 -->
<g id="node11" class="node">
<title>Node11</title>
<g id="a_node11"><a xlink:href="../../da/df1/classPHRTreeSeeding.html#a0aba948a58d39c1064797b4568d7d811" target="_top" xlink:title="PHRTreeSeeding::Process">
<polygon fill="none" stroke="#000000" points="347,-520.5 347,-540.5 490,-540.5 490,-520.5 347,-520.5"/>
<text text-anchor="middle" x="418.5" y="-527.5" font-family="FreeSans" font-size="10.00" fill="#000000">PHRTreeSeeding::Process</text>
</a>
</g>
</g>
<!-- Node1&#45;&gt;Node11 -->
<g id="edge21" class="edge">
<title>Node1&#45;&gt;Node11</title>
<path fill="none" stroke="#191970" d="M62.7048,-428.7178C77.8213,-448.0506 104.4696,-477.7945 135,-492.5 201.8856,-524.7167 287.3351,-532.2647 346.8559,-532.9692"/>
<polygon fill="#191970" stroke="#191970" points="65.4275,-426.5157 56.5984,-420.6592 59.8483,-430.7433 65.4275,-426.5157"/>
</g>
<!-- Node12 -->
<g id="node12" class="node">
<title>Node12</title>
<g id="a_node12"><a xlink:href="../../d1/d08/classPHCASeeding.html#ad6b8c71cbacac88f6ac48ecf89a5ebbd" target="_top" xlink:title="PHCASeeding::FillTree">
<polygon fill="none" stroke="#000000" points="152,-462.5 152,-482.5 278,-482.5 278,-462.5 152,-462.5"/>
<text text-anchor="middle" x="215" y="-469.5" font-family="FreeSans" font-size="10.00" fill="#000000">PHCASeeding::FillTree</text>
</a>
</g>
</g>
<!-- Node1&#45;&gt;Node12 -->
<g id="edge11" class="edge">
<title>Node1&#45;&gt;Node12</title>
<path fill="none" stroke="#191970" d="M80.4853,-424.8477C96.581,-432.0603 116.6683,-440.6908 135,-447.5 149.5955,-452.9214 165.9659,-458.1783 180.0777,-462.4611"/>
<polygon fill="#191970" stroke="#191970" points="81.5842,-421.5033 71.0307,-420.569 78.6981,-427.8807 81.5842,-421.5033"/>
</g>
<!-- Node13 -->
<g id="node13" class="node">
<title>Node13</title>
<g id="a_node13"><a xlink:href="../../d1/d08/classPHCASeeding.html#aaa4eca2abbf1065bb9b48de9cb683494" target="_top" xlink:title="PHCASeeding::Process">
<polygon fill="none" stroke="#000000" points="353.5,-442.5 353.5,-462.5 483.5,-462.5 483.5,-442.5 353.5,-442.5"/>
<text text-anchor="middle" x="418.5" y="-449.5" font-family="FreeSans" font-size="10.00" fill="#000000">PHCASeeding::Process</text>
</a>
</g>
</g>
<!-- Node1&#45;&gt;Node13 -->
<g id="edge22" class="edge">
<title>Node1&#45;&gt;Node13</title>
<path fill="none" stroke="#191970" d="M109.2374,-417.2994C176.1785,-424.9187 284.3464,-437.2305 353.3995,-445.0902"/>
<polygon fill="#191970" stroke="#191970" points="109.5967,-413.8178 99.265,-416.1643 108.805,-420.7729 109.5967,-413.8178"/>
</g>
<!-- Node14 -->
<g id="node14" class="node">
<title>Node14</title>
<g id="a_node14"><a xlink:href="../../d8/dd4/classPHHoughSeeding.html#a0402182dc0e88c010258ba726e6c706b" target="_top" xlink:title="code to perform the final tracking and vertexing">
<polygon fill="none" stroke="#000000" points="151.5,-372.5 151.5,-404.5 278.5,-404.5 278.5,-372.5 151.5,-372.5"/>
<text text-anchor="start" x="159.5" y="-391.5" font-family="FreeSans" font-size="10.00" fill="#000000">PHHoughSeeding::full</text>
<text text-anchor="middle" x="215" y="-379.5" font-family="FreeSans" font-size="10.00" fill="#000000">_track_seeding</text>
</a>
</g>
</g>
<!-- Node1&#45;&gt;Node14 -->
<g id="edge13" class="edge">
<title>Node1&#45;&gt;Node14</title>
<path fill="none" stroke="#191970" d="M109.3641,-402.5422C122.978,-400.7325 137.4889,-398.8036 151.2575,-396.9733"/>
<polygon fill="#191970" stroke="#191970" points="108.607,-399.112 99.1555,-403.8993 109.5295,-406.051 108.607,-399.112"/>
</g>
<!-- Node15 -->
<g id="node15" class="node">
<title>Node15</title>
<g id="a_node15"><a xlink:href="../../d8/dd4/classPHHoughSeeding.html#a8b2c7b85b2bcbe054e071dd6ff624f7d" target="_top" xlink:title="PHHoughSeeding::Process">
<polygon fill="none" stroke="#000000" points="344,-356.5 344,-376.5 493,-376.5 493,-356.5 344,-356.5"/>
<text text-anchor="middle" x="418.5" y="-363.5" font-family="FreeSans" font-size="10.00" fill="#000000">PHHoughSeeding::Process</text>
</a>
</g>
</g>
<!-- Node1&#45;&gt;Node15 -->
<g id="edge19" class="edge">
<title>Node1&#45;&gt;Node15</title>
<path fill="none" stroke="#191970" d="M71.1974,-394.5376C87.7456,-383.4036 111.6053,-369.5063 135,-363.5 208.42,-344.6504 296.0988,-349.5648 354.3123,-356.4735"/>
<polygon fill="#191970" stroke="#191970" points="69.0187,-391.7895 62.8055,-400.3713 73.0143,-397.5372 69.0187,-391.7895"/>
</g>
<!-- Node16 -->
<g id="node16" class="node">
<title>Node16</title>
<g id="a_node16"><a xlink:href="../../d0/d22/classPHGenFitTrkProp.html#ab11c2e61a1b78278fa4af7cf624c2538" target="_top" xlink:title="Main function.">
<polygon fill="none" stroke="#000000" points="542,-119.5 542,-139.5 723,-139.5 723,-119.5 542,-119.5"/>
<text text-anchor="middle" x="632.5" y="-126.5" font-family="FreeSans" font-size="10.00" fill="#000000">PHGenFitTrkProp::KalmanTrkProp</text>
</a>
</g>
</g>
<!-- Node1&#45;&gt;Node16 -->
<g id="edge15" class="edge">
<title>Node1&#45;&gt;Node16</title>
<path fill="none" stroke="#191970" d="M52.9295,-390.4868C63.0347,-334.0868 94.5416,-175.9655 135,-145.5 196.8709,-98.9106 416.0094,-109.7202 541.8458,-120.3893"/>
<polygon fill="#191970" stroke="#191970" points="49.4812,-389.8877 51.1975,-400.3426 56.3756,-391.0993 49.4812,-389.8877"/>
</g>
<!-- Node17 -->
<g id="node17" class="node">
<title>Node17</title>
<g id="a_node17"><a xlink:href="../../d0/d22/classPHGenFitTrkProp.html#a31e50e42d62a2bf32763652b39dc95b8" target="_top" xlink:title="PHGenFitTrkProp::Process">
<polygon fill="none" stroke="#000000" points="759,-205.5 759,-225.5 903,-225.5 903,-205.5 759,-205.5"/>
<text text-anchor="middle" x="831" y="-212.5" font-family="FreeSans" font-size="10.00" fill="#000000">PHGenFitTrkProp::Process</text>
</a>
</g>
</g>
<!-- Node1&#45;&gt;Node17 -->
<g id="edge20" class="edge">
<title>Node1&#45;&gt;Node17</title>
<path fill="none" stroke="#191970" d="M67.1297,-393.0987C83.3801,-378.0996 108.8719,-357.0847 135,-345.5 348.6488,-250.7721 628.8449,-225.0447 758.9004,-218.0766"/>
<polygon fill="#191970" stroke="#191970" points="64.3696,-390.8925 59.5198,-400.3121 69.1852,-395.9728 64.3696,-390.8925"/>
</g>
<!-- Node18 -->
<g id="node18" class="node">
<title>Node18</title>
<g id="a_node18"><a xlink:href="../../d0/d22/classPHGenFitTrkProp.html#a425f22248030483cb56cdb867c3077c8" target="_top" xlink:title="ExportOutput Call. Make SvtxTrack from PHGenFit::Track and set of clusters.">
<polygon fill="none" stroke="#000000" points="331,-17.5 331,-49.5 506,-49.5 506,-17.5 331,-17.5"/>
<text text-anchor="start" x="339" y="-36.5" font-family="FreeSans" font-size="10.00" fill="#000000">PHGenFitTrkProp::OutputPHGen</text>
<text text-anchor="middle" x="418.5" y="-24.5" font-family="FreeSans" font-size="10.00" fill="#000000">FitTrack</text>
</a>
</g>
</g>
<!-- Node1&#45;&gt;Node18 -->
<g id="edge17" class="edge">
<title>Node1&#45;&gt;Node18</title>
<path fill="none" stroke="#191970" d="M51.5033,-390.0785C58.5799,-322.4135 84.7245,-107.3571 135,-63.5 163.4389,-38.6917 258.5989,-32.7943 330.8963,-32.0808"/>
<polygon fill="#191970" stroke="#191970" points="47.9956,-389.9776 50.4656,-400.2805 54.9597,-390.686 47.9956,-389.9776"/>
</g>
<!-- Node19 -->
<g id="node19" class="node">
<title>Node19</title>
<g id="a_node19"><a xlink:href="../../d5/daa/classPHRaveVertexing.html#afefcb6ce27ac34016e62172d8519fae8" target="_top" xlink:title="Process Event, called for each event.">
<polygon fill="none" stroke="#000000" points="140.5,-154.5 140.5,-186.5 289.5,-186.5 289.5,-154.5 140.5,-154.5"/>
<text text-anchor="start" x="148.5" y="-173.5" font-family="FreeSans" font-size="10.00" fill="#000000">PHRaveVertexing::process</text>
<text text-anchor="middle" x="215" y="-161.5" font-family="FreeSans" font-size="10.00" fill="#000000">_event</text>
</a>
</g>
</g>
<!-- Node1&#45;&gt;Node19 -->
<g id="edge23" class="edge">
<title>Node1&#45;&gt;Node19</title>
<path fill="none" stroke="#191970" d="M52.3487,-390.3267C59.1707,-349.2685 80.1551,-255.3323 135,-201.5 141.1655,-195.4483 148.6437,-190.5476 156.5233,-186.5869"/>
<polygon fill="#191970" stroke="#191970" points="48.8892,-389.7962 50.8142,-400.2147 55.8064,-390.8697 48.8892,-389.7962"/>
</g>
<!-- Node20 -->
<g id="node20" class="node">
<title>Node20</title>
<g id="a_node20"><a xlink:href="../../d0/d22/classPHGenFitTrkProp.html#a4fbbbeaab88ee33c094c082302ee4372" target="_top" xlink:title="TrackPropPatRec Call.">
<polygon fill="none" stroke="#000000" points="135,-244.5 135,-276.5 295,-276.5 295,-244.5 135,-244.5"/>
<text text-anchor="start" x="143" y="-263.5" font-family="FreeSans" font-size="10.00" fill="#000000">PHGenFitTrkProp::SearchHits</text>
<text text-anchor="middle" x="215" y="-251.5" font-family="FreeSans" font-size="10.00" fill="#000000">NearBy</text>
</a>
</g>
</g>
<!-- Node1&#45;&gt;Node20 -->
<g id="edge24" class="edge">
<title>Node1&#45;&gt;Node20</title>
<path fill="none" stroke="#191970" d="M58.8286,-391.1783C72.2861,-365.169 99.4814,-318.9938 135,-291.5 142.6562,-285.5736 151.5819,-280.6582 160.6389,-276.6225"/>
<polygon fill="#191970" stroke="#191970" points="55.5682,-389.8718 54.2083,-400.379 61.8237,-393.0132 55.5682,-389.8718"/>
</g>
<!-- Node21 -->
<g id="node21" class="node">
<title>Node21</title>
<g id="a_node21"><a xlink:href="../../d0/d22/classPHGenFitTrkProp.html#a8de33eaa04103e00006e98f15ba808a0" target="_top" xlink:title="PHGenFitTrkProp::TrackProp\lPatRec">
<polygon fill="none" stroke="#000000" points="341,-199.5 341,-231.5 496,-231.5 496,-199.5 341,-199.5"/>
<text text-anchor="start" x="349" y="-218.5" font-family="FreeSans" font-size="10.00" fill="#000000">PHGenFitTrkProp::TrackProp</text>
<text text-anchor="middle" x="418.5" y="-206.5" font-family="FreeSans" font-size="10.00" fill="#000000">PatRec</text>
</a>
</g>
</g>
<!-- Node1&#45;&gt;Node21 -->
<g id="edge30" class="edge">
<title>Node1&#45;&gt;Node21</title>
<path fill="none" stroke="#191970" d="M52.7531,-390.037C59.9662,-352.1936 81.14,-271.8266 135,-235.5 195.1325,-194.9428 279.6842,-194.3685 340.7839,-201.232"/>
<polygon fill="#191970" stroke="#191970" points="49.2296,-389.8649 50.942,-400.3205 56.1235,-391.0791 49.2296,-389.8649"/>
</g>
<!-- Node22 -->
<g id="node22" class="node">
<title>Node22</title>
<g id="a_node22"><a xlink:href="../../d0/d22/classPHGenFitTrkProp.html#ac159ce1352f6004a2f51a520c287c339" target="_top" xlink:title="KalmanTrkProp Call.">
<polygon fill="none" stroke="#000000" points="341,-68.5 341,-100.5 496,-100.5 496,-68.5 341,-68.5"/>
<text text-anchor="start" x="349" y="-87.5" font-family="FreeSans" font-size="10.00" fill="#000000">PHGenFitTrkProp::SvtxTrack</text>
<text text-anchor="middle" x="418.5" y="-75.5" font-family="FreeSans" font-size="10.00" fill="#000000">ToPHGenFitTracks</text>
</a>
</g>
</g>
<!-- Node1&#45;&gt;Node22 -->
<g id="edge27" class="edge">
<title>Node1&#45;&gt;Node22</title>
<path fill="none" stroke="#191970" d="M52.2729,-390.5283C61.1571,-329.6193 90.9341,-148.1377 135,-111.5 191.5511,-64.4817 278.1002,-62.988 340.6933,-69.9888"/>
<polygon fill="#191970" stroke="#191970" points="48.807,-390.0418 50.8584,-400.4361 55.7367,-391.0312 48.807,-390.0418"/>
</g>
<!-- Node23 -->
<g id="node23" class="node">
<title>Node23</title>
<g id="a_node23"><a xlink:href="../../d0/d5e/classPHTimer.html#a01cc1f85cc7a3303d38cb5a7a2f0a749" target="_top" xlink:title="test PHTimer for a given amount of time (in ms)">
<polygon fill="none" stroke="#000000" points="172.5,-.5 172.5,-20.5 257.5,-20.5 257.5,-.5 172.5,-.5"/>
<text text-anchor="middle" x="215" y="-7.5" font-family="FreeSans" font-size="10.00" fill="#000000">PHTimer::test</text>
</a>
</g>
</g>
<!-- Node1&#45;&gt;Node23 -->
<g id="edge29" class="edge">
<title>Node1&#45;&gt;Node23</title>
<path fill="none" stroke="#191970" d="M51.4794,-390.2145C58.7216,-319.9801 85.9497,-88.5718 135,-35.5 144.6789,-25.0275 158.6711,-18.9094 172.2557,-15.3465"/>
<polygon fill="#191970" stroke="#191970" points="47.9746,-390.087 50.4553,-400.3873 54.9394,-390.7882 47.9746,-390.087"/>
</g>
<!-- Node7 -->
<g id="node7" class="node">
<title>Node7</title>
<g id="a_node7"><a xlink:href="../../d2/d93/classTrkrEvaluator.html#af1cb893f5a8aebc803c2bb55dd582e5a" target="_top" xlink:title="TrkrEvaluator::process\l_event">
<polygon fill="none" stroke="#000000" points="353.5,-630.5 353.5,-662.5 483.5,-662.5 483.5,-630.5 353.5,-630.5"/>
<text text-anchor="start" x="361.5" y="-649.5" font-family="FreeSans" font-size="10.00" fill="#000000">TrkrEvaluator::process</text>
<text text-anchor="middle" x="418.5" y="-637.5" font-family="FreeSans" font-size="10.00" fill="#000000">_event</text>
</a>
</g>
</g>
<!-- Node6&#45;&gt;Node7 -->
<g id="edge6" class="edge">
<title>Node6&#45;&gt;Node7</title>
<path fill="none" stroke="#191970" d="M294.7708,-646.5C314.1617,-646.5 334.671,-646.5 353.2963,-646.5"/>
<polygon fill="#191970" stroke="#191970" points="294.7485,-643.0001 284.7484,-646.5 294.7484,-650.0001 294.7485,-643.0001"/>
</g>
<!-- Node9 -->
<g id="node9" class="node">
<title>Node9</title>
<g id="a_node9"><a xlink:href="../../d6/d11/classSvtxEvaluator.html#ac66ea4145deb621d9e4fb38cf852dc33" target="_top" xlink:title="SvtxEvaluator::process\l_event">
<polygon fill="none" stroke="#000000" points="352.5,-579.5 352.5,-611.5 484.5,-611.5 484.5,-579.5 352.5,-579.5"/>
<text text-anchor="start" x="360.5" y="-598.5" font-family="FreeSans" font-size="10.00" fill="#000000">SvtxEvaluator::process</text>
<text text-anchor="middle" x="418.5" y="-586.5" font-family="FreeSans" font-size="10.00" fill="#000000">_event</text>
</a>
</g>
</g>
<!-- Node8&#45;&gt;Node9 -->
<g id="edge8" class="edge">
<title>Node8&#45;&gt;Node9</title>
<path fill="none" stroke="#191970" d="M295.649,-595.5C314.4916,-595.5 334.3442,-595.5 352.4656,-595.5"/>
<polygon fill="#191970" stroke="#191970" points="295.6033,-592.0001 285.6033,-595.5 295.6033,-599.0001 295.6033,-592.0001"/>
</g>
<!-- Node10&#45;&gt;Node11 -->
<g id="edge10" class="edge">
<title>Node10&#45;&gt;Node11</title>
<path fill="none" stroke="#191970" d="M295.0105,-542.6366C312.1521,-540.9519 330.1573,-539.1823 346.9547,-537.5315"/>
<polygon fill="#191970" stroke="#191970" points="294.6428,-539.1557 285.0332,-543.6171 295.3276,-546.1222 294.6428,-539.1557"/>
</g>
<!-- Node12&#45;&gt;Node13 -->
<g id="edge12" class="edge">
<title>Node12&#45;&gt;Node13</title>
<path fill="none" stroke="#191970" d="M288.4922,-465.2772C309.6343,-463.1993 332.5442,-460.9477 353.1577,-458.9218"/>
<polygon fill="#191970" stroke="#191970" points="287.8829,-461.8201 278.2732,-466.2815 288.5676,-468.7865 287.8829,-461.8201"/>
</g>
<!-- Node14&#45;&gt;Node15 -->
<g id="edge14" class="edge">
<title>Node14&#45;&gt;Node15</title>
<path fill="none" stroke="#191970" d="M288.641,-380.5388C306.5471,-378.603 325.7135,-376.531 343.6739,-374.5893"/>
<polygon fill="#191970" stroke="#191970" points="288.1175,-377.0749 278.5516,-381.6296 288.8699,-384.0344 288.1175,-377.0749"/>
</g>
<!-- Node16&#45;&gt;Node17 -->
<g id="edge16" class="edge">
<title>Node16&#45;&gt;Node17</title>
<path fill="none" stroke="#191970" d="M664.9953,-143.5786C705.1098,-160.9581 772.3446,-190.0876 807.6817,-205.3974"/>
<polygon fill="#191970" stroke="#191970" points="666.2262,-140.2975 655.659,-139.5336 663.4434,-146.7206 666.2262,-140.2975"/>
</g>
<!-- Node18&#45;&gt;Node16 -->
<g id="edge18" class="edge">
<title>Node18&#45;&gt;Node16</title>
<path fill="none" stroke="#191970" d="M488.3721,-52.7668C494.3932,-54.8767 500.3416,-57.1268 506,-59.5 547.664,-76.9743 593.2776,-104.4823 616.6887,-119.2751"/>
<polygon fill="#191970" stroke="#191970" points="489.4756,-49.4454 478.8815,-49.5691 487.2404,-56.0789 489.4756,-49.4454"/>
</g>
<!-- Node20&#45;&gt;Node21 -->
<g id="edge25" class="edge">
<title>Node20&#45;&gt;Node21</title>
<path fill="none" stroke="#191970" d="M297.492,-242.2585C313.5305,-238.7119 330.2315,-235.0188 345.9217,-231.5493"/>
<polygon fill="#191970" stroke="#191970" points="296.6147,-238.8679 287.6063,-244.4445 298.1262,-245.7028 296.6147,-238.8679"/>
</g>
<!-- Node21&#45;&gt;Node16 -->
<g id="edge26" class="edge">
<title>Node21&#45;&gt;Node16</title>
<path fill="none" stroke="#191970" d="M467.7881,-195.6926C511.401,-178.166 573.2675,-153.3037 607.4197,-139.579"/>
<polygon fill="#191970" stroke="#191970" points="466.4744,-192.4485 458.5007,-199.4249 469.0846,-198.9436 466.4744,-192.4485"/>
</g>
<!-- Node22&#45;&gt;Node16 -->
<g id="edge28" class="edge">
<title>Node22&#45;&gt;Node16</title>
<path fill="none" stroke="#191970" d="M504.8114,-102.6496C532.1094,-108.3898 561.2751,-114.5228 584.831,-119.4761"/>
<polygon fill="#191970" stroke="#191970" points="505.3588,-99.1882 494.8526,-100.5555 503.9183,-106.0384 505.3588,-99.1882"/>
</g>
</g>
</svg>
