<?xml version="1.0" encoding="UTF-8" standalone="no"?>
<!DOCTYPE svg PUBLIC "-//W3C//DTD SVG 1.1//EN"
 "http://www.w3.org/Graphics/SVG/1.1/DTD/svg11.dtd">
<!-- Generated by graphviz version 2.40.1 (20161225.0304)
 -->
<!-- Title: VtxTest::InitRun Pages: 1 -->
<svg width="1041pt" height="413pt"
 viewBox="0.00 0.00 1041.00 413.00" xmlns="http://www.w3.org/2000/svg" xmlns:xlink="http://www.w3.org/1999/xlink">
<g id="graph0" class="graph" transform="scale(1 1) rotate(0) translate(4 409)">
<title>VtxTest::InitRun</title>
<!-- Node1 -->
<g id="node1" class="node">
<title>Node1</title>
<polygon fill="#bfbfbf" stroke="#000000" points="0,-144.5 0,-164.5 96,-164.5 96,-144.5 0,-144.5"/>
<text text-anchor="middle" x="48" y="-151.5" font-family="FreeSans" font-size="10.00" fill="#000000">VtxTest::InitRun</text>
</g>
<!-- Node2 -->
<g id="node2" class="node">
<title>Node2</title>
<g id="a_node2"><a xlink:href="../../d6/d17/classSVReco.html#a9581ef99bcb8afd9c1c08b1a37d4f033" target="_top" xlink:title="Initialization Run, called for initialization of a run.">
<polygon fill="none" stroke="#000000" points="132,-144.5 132,-164.5 228,-164.5 228,-144.5 132,-144.5"/>
<text text-anchor="middle" x="180" y="-151.5" font-family="FreeSans" font-size="10.00" fill="#000000">SVReco::InitRun</text>
</a>
</g>
</g>
<!-- Node1&#45;&gt;Node2 -->
<g id="edge1" class="edge">
<title>Node1&#45;&gt;Node2</title>
<path fill="none" stroke="#191970" d="M96.0284,-154.5C104.3087,-154.5 112.9975,-154.5 121.517,-154.5"/>
<polygon fill="#191970" stroke="#191970" points="121.7862,-158.0001 131.7861,-154.5 121.7861,-151.0001 121.7862,-158.0001"/>
</g>
<!-- Node3 -->
<g id="node3" class="node">
<title>Node3</title>
<g id="a_node3"><a xlink:href="../../d6/d17/classSVReco.html#a5f8c253a096d9e88ccb708e707c8a465" target="_top" xlink:title="Create New nodes.">
<polygon fill="none" stroke="#000000" points="293.5,-234.5 293.5,-254.5 419.5,-254.5 419.5,-234.5 293.5,-234.5"/>
<text text-anchor="middle" x="356.5" y="-241.5" font-family="FreeSans" font-size="10.00" fill="#000000">SVReco::CreateNodes</text>
</a>
</g>
</g>
<!-- Node2&#45;&gt;Node3 -->
<g id="edge2" class="edge">
<title>Node2&#45;&gt;Node3</title>
<path fill="none" stroke="#191970" d="M188.6963,-164.5468C202.8283,-180.1867 232.3962,-210.1495 264,-225.5 270.143,-228.4837 276.736,-230.9995 283.4699,-233.1206"/>
<polygon fill="#191970" stroke="#191970" points="282.8241,-236.576 293.4006,-235.9545 284.7449,-229.8447 282.8241,-236.576"/>
</g>
<!-- Node4 -->
<g id="node4" class="node">
<title>Node4</title>
<g id="a_node4"><a xlink:href="../../df/d4d/classPHFieldUtility.html#a3afdd4e878d02b30b6f2c396e52b8e48" target="_top" xlink:title="Get transient PHField from DST nodes. If not found, make a new one based on default_config.">
<polygon fill="none" stroke="#000000" points="291.5,-183.5 291.5,-215.5 421.5,-215.5 421.5,-183.5 291.5,-183.5"/>
<text text-anchor="start" x="299.5" y="-202.5" font-family="FreeSans" font-size="10.00" fill="#000000">PHFieldUtility::GetField</text>
<text text-anchor="middle" x="356.5" y="-190.5" font-family="FreeSans" font-size="10.00" fill="#000000">MapNode</text>
</a>
</g>
</g>
<!-- Node2&#45;&gt;Node4 -->
<g id="edge3" class="edge">
<title>Node2&#45;&gt;Node4</title>
<path fill="none" stroke="#191970" d="M219.61,-164.5989C238.4716,-169.4078 261.6441,-175.3158 283.5246,-180.8944"/>
<polygon fill="#191970" stroke="#191970" points="282.9119,-184.3501 293.4667,-183.4292 284.6414,-177.5671 282.9119,-184.3501"/>
</g>
<!-- Node10 -->
<g id="node10" class="node">
<title>Node10</title>
<g id="a_node10"><a xlink:href="../../d1/d35/classPHGenFit_1_1Fitter.html#ad3729fabd2bd8a7feebbd79317b38a77" target="_top" xlink:title="PHGenFit::Fitter::getInstance">
<polygon fill="none" stroke="#000000" points="276,-144.5 276,-164.5 437,-164.5 437,-144.5 276,-144.5"/>
<text text-anchor="middle" x="356.5" y="-151.5" font-family="FreeSans" font-size="10.00" fill="#000000">PHGenFit::Fitter::getInstance</text>
</a>
</g>
</g>
<!-- Node2&#45;&gt;Node10 -->
<g id="edge10" class="edge">
<title>Node2&#45;&gt;Node10</title>
<path fill="none" stroke="#191970" d="M228.2294,-154.5C239.8268,-154.5 252.594,-154.5 265.4408,-154.5"/>
<polygon fill="#191970" stroke="#191970" points="265.7398,-158.0001 275.7398,-154.5 265.7398,-151.0001 265.7398,-158.0001"/>
</g>
<!-- Node21 -->
<g id="node21" class="node">
<title>Node21</title>
<g id="a_node21"><a xlink:href="../../d2/da1/classPHGeomUtility.html#aa80925b14430021ea70d0b906af8e885" target="_top" xlink:title="Main user interface: DST node &#45;&gt; TGeoManager for downstream use.">
<polygon fill="none" stroke="#000000" points="264,-98.5 264,-118.5 449,-118.5 449,-98.5 264,-98.5"/>
<text text-anchor="middle" x="356.5" y="-105.5" font-family="FreeSans" font-size="10.00" fill="#000000">PHGeomUtility::GetTGeoManager</text>
</a>
</g>
</g>
<!-- Node2&#45;&gt;Node21 -->
<g id="edge21" class="edge">
<title>Node2&#45;&gt;Node21</title>
<path fill="none" stroke="#191970" d="M218.7337,-144.4051C244.943,-137.5743 279.7676,-128.4982 307.8458,-121.1804"/>
<polygon fill="#191970" stroke="#191970" points="309.0626,-124.4803 317.8567,-118.5713 307.2972,-117.7065 309.0626,-124.4803"/>
</g>
<!-- Node25 -->
<g id="node25" class="node">
<title>Node25</title>
<g id="a_node25"><a xlink:href="../../d1/d19/classgenfit_1_1GFRaveVertexFactory.html#a405d099f45ba265292a301c29f27d685" target="_top" xlink:title="genfit::GFRaveVertexFactory\l::setMethod">
<polygon fill="none" stroke="#000000" points="276.5,-47.5 276.5,-79.5 436.5,-79.5 436.5,-47.5 276.5,-47.5"/>
<text text-anchor="start" x="284.5" y="-66.5" font-family="FreeSans" font-size="10.00" fill="#000000">genfit::GFRaveVertexFactory</text>
<text text-anchor="middle" x="356.5" y="-54.5" font-family="FreeSans" font-size="10.00" fill="#000000">::setMethod</text>
</a>
</g>
</g>
<!-- Node2&#45;&gt;Node25 -->
<g id="edge26" class="edge">
<title>Node2&#45;&gt;Node25</title>
<path fill="none" stroke="#191970" d="M189.9246,-144.4609C204.7546,-130.0172 234.1607,-103.4689 264,-88.5 267.7638,-86.6119 271.6876,-84.8528 275.703,-83.2156"/>
<polygon fill="#191970" stroke="#191970" points="277.096,-86.4306 285.2062,-79.6134 274.6149,-79.8851 277.096,-86.4306"/>
</g>
<!-- Node5 -->
<g id="node5" class="node">
<title>Node5</title>
<g id="a_node5"><a xlink:href="../../d5/d07/classPHNodeIterator.html#aea98bf8619af59b1212a94fb32106baa" target="_top" xlink:title="PHNodeIterator::findFirst">
<polygon fill="none" stroke="#000000" points="495.5,-345.5 495.5,-365.5 636.5,-365.5 636.5,-345.5 495.5,-345.5"/>
<text text-anchor="middle" x="566" y="-352.5" font-family="FreeSans" font-size="10.00" fill="#000000">PHNodeIterator::findFirst</text>
</a>
</g>
</g>
<!-- Node4&#45;&gt;Node5 -->
<g id="edge4" class="edge">
<title>Node4&#45;&gt;Node5</title>
<path fill="none" stroke="#191970" d="M421.674,-212.7653C431.2209,-216.1243 440.6405,-220.3055 449,-225.5 473.5171,-240.7346 526.1511,-305.0442 551.6156,-337.1323"/>
<polygon fill="#191970" stroke="#191970" points="549.0885,-339.5798 558.0315,-345.2608 554.5832,-335.2428 549.0885,-339.5798"/>
</g>
<!-- Node8 -->
<g id="node8" class="node">
<title>Node8</title>
<g id="a_node8"><a xlink:href="../../da/d29/classFun4AllServer.html#a3e55156f91b2c94bb6c4ef33ffce587a" target="_top" xlink:title="Fun4AllServer::instance">
<polygon fill="none" stroke="#000000" points="498,-227.5 498,-247.5 634,-247.5 634,-227.5 498,-227.5"/>
<text text-anchor="middle" x="566" y="-234.5" font-family="FreeSans" font-size="10.00" fill="#000000">Fun4AllServer::instance</text>
</a>
</g>
</g>
<!-- Node4&#45;&gt;Node8 -->
<g id="edge8" class="edge">
<title>Node4&#45;&gt;Node8</title>
<path fill="none" stroke="#191970" d="M421.6387,-211.3151C446.8761,-215.8928 475.7111,-221.123 500.941,-225.6993"/>
<polygon fill="#191970" stroke="#191970" points="500.3167,-229.1431 510.7808,-227.4841 501.5661,-222.2555 500.3167,-229.1431"/>
</g>
<!-- Node9 -->
<g id="node9" class="node">
<title>Node9</title>
<g id="a_node9"><a xlink:href="../../da/d29/classFun4AllServer.html#abcaf6825367e5db292ff795237bdcf62" target="_top" xlink:title="Fun4AllServer::topNode">
<polygon fill="none" stroke="#000000" points="498,-188.5 498,-208.5 634,-208.5 634,-188.5 498,-188.5"/>
<text text-anchor="middle" x="566" y="-195.5" font-family="FreeSans" font-size="10.00" fill="#000000">Fun4AllServer::topNode</text>
</a>
</g>
</g>
<!-- Node4&#45;&gt;Node9 -->
<g id="edge9" class="edge">
<title>Node4&#45;&gt;Node9</title>
<path fill="none" stroke="#191970" d="M421.6387,-199.1891C442.4811,-199.0896 465.7772,-198.9784 487.4699,-198.8748"/>
<polygon fill="#191970" stroke="#191970" points="487.6565,-202.3741 497.6397,-198.8263 487.6231,-195.3742 487.6565,-202.3741"/>
</g>
<!-- Node5&#45;&gt;Node5 -->
<g id="edge5" class="edge">
<title>Node5&#45;&gt;Node5</title>
<path fill="none" stroke="#191970" d="M533.6865,-365.5791C518.4632,-374.502 529.2344,-384 566,-384 591.8508,-384 604.8504,-379.3043 604.9987,-373.4146"/>
<polygon fill="#191970" stroke="#191970" points="607.4668,-370.9148 598.3135,-365.5791 602.1416,-375.4583 607.4668,-370.9148"/>
</g>
<!-- Node6 -->
<g id="node6" class="node">
<title>Node6</title>
<g id="a_node6"><a xlink:href="../../dc/d82/classPHNode.html#aca3576f926a4401eddc3d88bf0ce0de3" target="_top" xlink:title="PHNode::getName">
<polygon fill="none" stroke="#000000" points="721.5,-384.5 721.5,-404.5 830.5,-404.5 830.5,-384.5 721.5,-384.5"/>
<text text-anchor="middle" x="776" y="-391.5" font-family="FreeSans" font-size="10.00" fill="#000000">PHNode::getName</text>
</a>
</g>
</g>
<!-- Node5&#45;&gt;Node6 -->
<g id="edge6" class="edge">
<title>Node5&#45;&gt;Node6</title>
<path fill="none" stroke="#191970" d="M620.0802,-365.5435C648.1272,-370.7522 682.5697,-377.1487 711.9434,-382.6038"/>
<polygon fill="#191970" stroke="#191970" points="711.6321,-386.1057 722.103,-384.4906 712.9103,-379.2234 711.6321,-386.1057"/>
</g>
<!-- Node7 -->
<g id="node7" class="node">
<title>Node7</title>
<g id="a_node7"><a xlink:href="../../dc/d82/classPHNode.html#a4ab1f90aed955a652813bfe377087bda" target="_top" xlink:title="PHNode::getType">
<polygon fill="none" stroke="#000000" points="724.5,-345.5 724.5,-365.5 827.5,-365.5 827.5,-345.5 724.5,-345.5"/>
<text text-anchor="middle" x="776" y="-352.5" font-family="FreeSans" font-size="10.00" fill="#000000">PHNode::getType</text>
</a>
</g>
</g>
<!-- Node5&#45;&gt;Node7 -->
<g id="edge7" class="edge">
<title>Node5&#45;&gt;Node7</title>
<path fill="none" stroke="#191970" d="M636.5112,-355.5C661.6379,-355.5 689.7289,-355.5 714.0801,-355.5"/>
<polygon fill="#191970" stroke="#191970" points="714.2678,-359.0001 724.2678,-355.5 714.2677,-352.0001 714.2678,-359.0001"/>
</g>
<!-- Node11 -->
<g id="node11" class="node">
<title>Node11</title>
<g id="a_node11"><a xlink:href="../../d1/d35/classPHGenFit_1_1Fitter.html#ab245e2833a4d6880cc1c836bc46389b2" target="_top" xlink:title="Default constructor.">
<polygon fill="none" stroke="#000000" points="502,-147.5 502,-167.5 630,-167.5 630,-147.5 502,-147.5"/>
<text text-anchor="middle" x="566" y="-154.5" font-family="FreeSans" font-size="10.00" fill="#000000">PHGenFit::Fitter::Fitter</text>
</a>
</g>
</g>
<!-- Node10&#45;&gt;Node11 -->
<g id="edge11" class="edge">
<title>Node10&#45;&gt;Node11</title>
<path fill="none" stroke="#191970" d="M437.1985,-155.6556C455.1208,-155.9122 474.0361,-156.1831 491.6885,-156.4359"/>
<polygon fill="#191970" stroke="#191970" points="491.8698,-159.9387 501.9189,-156.5824 491.9701,-152.9395 491.8698,-159.9387"/>
</g>
<!-- Node12 -->
<g id="node12" class="node">
<title>Node12</title>
<g id="a_node12"><a xlink:href="../../de/d8e/classgenfit_1_1FieldManager.html#aaf0b56fea4f0deb428de8749febf792d" target="_top" xlink:title="Get singleton instance.">
<polygon fill="none" stroke="#000000" points="715.5,-294.5 715.5,-326.5 836.5,-326.5 836.5,-294.5 715.5,-294.5"/>
<text text-anchor="start" x="723.5" y="-313.5" font-family="FreeSans" font-size="10.00" fill="#000000">genfit::FieldManager</text>
<text text-anchor="middle" x="776" y="-301.5" font-family="FreeSans" font-size="10.00" fill="#000000">::getInstance</text>
</a>
</g>
</g>
<!-- Node11&#45;&gt;Node12 -->
<g id="edge12" class="edge">
<title>Node11&#45;&gt;Node12</title>
<path fill="none" stroke="#191970" d="M628.6229,-167.6181C635.3649,-170.6311 641.6903,-174.5107 647,-179.5 683.2582,-213.5705 646.6976,-251.4766 683,-285.5 689.4702,-291.564 697.2513,-296.1883 705.5225,-299.7094"/>
<polygon fill="#191970" stroke="#191970" points="704.4324,-303.038 715.0255,-303.2338 706.8666,-296.4748 704.4324,-303.038"/>
</g>
<!-- Node14 -->
<g id="node14" class="node">
<title>Node14</title>
<g id="a_node14"><a xlink:href="../../de/d8e/classgenfit_1_1FieldManager.html#a0360198b189d2d5acaebfca7a468437e" target="_top" xlink:title="set the magnetic field here. Magnetic field classes must be derived from AbsBField.">
<polygon fill="none" stroke="#000000" points="715.5,-243.5 715.5,-275.5 836.5,-275.5 836.5,-243.5 715.5,-243.5"/>
<text text-anchor="start" x="723.5" y="-262.5" font-family="FreeSans" font-size="10.00" fill="#000000">genfit::FieldManager</text>
<text text-anchor="middle" x="776" y="-250.5" font-family="FreeSans" font-size="10.00" fill="#000000">::init</text>
</a>
</g>
</g>
<!-- Node11&#45;&gt;Node14 -->
<g id="edge14" class="edge">
<title>Node11&#45;&gt;Node14</title>
<path fill="none" stroke="#191970" d="M623.7184,-167.5566C631.9919,-170.5549 640.044,-174.4472 647,-179.5 670.6373,-196.67 659.3404,-217.3608 683,-234.5 689.8122,-239.4348 697.5388,-243.3955 705.5575,-246.5744"/>
<polygon fill="#191970" stroke="#191970" points="704.4727,-249.9034 715.0674,-249.9586 706.8196,-243.3085 704.4727,-249.9034"/>
</g>
<!-- Node15 -->
<g id="node15" class="node">
<title>Node15</title>
<g id="a_node15"><a xlink:href="../../d1/d34/classgenfit_1_1MaterialEffects.html#a15a93d367165ade368e6caec713d0934" target="_top" xlink:title="genfit::MaterialEffects\l::getInstance">
<polygon fill="none" stroke="#000000" points="712,-192.5 712,-224.5 840,-224.5 840,-192.5 712,-192.5"/>
<text text-anchor="start" x="720" y="-211.5" font-family="FreeSans" font-size="10.00" fill="#000000">genfit::MaterialEffects</text>
<text text-anchor="middle" x="776" y="-199.5" font-family="FreeSans" font-size="10.00" fill="#000000">::getInstance</text>
</a>
</g>
</g>
<!-- Node11&#45;&gt;Node15 -->
<g id="edge15" class="edge">
<title>Node11&#45;&gt;Node15</title>
<path fill="none" stroke="#191970" d="M607.2387,-167.5151C634.193,-174.0611 670.1693,-182.7983 701.9792,-190.5235"/>
<polygon fill="#191970" stroke="#191970" points="701.1593,-193.9261 711.7029,-192.885 702.8113,-187.1238 701.1593,-193.9261"/>
</g>
<!-- Node17 -->
<g id="node17" class="node">
<title>Node17</title>
<g id="a_node17"><a xlink:href="../../d1/d34/classgenfit_1_1MaterialEffects.html#a9c604002cb66d43e99da8802e3b8918e" target="_top" xlink:title="set the material interface here. Material interface classes must be derived from AbsMaterialInterface...">
<polygon fill="none" stroke="#000000" points="712,-141.5 712,-173.5 840,-173.5 840,-141.5 712,-141.5"/>
<text text-anchor="start" x="720" y="-160.5" font-family="FreeSans" font-size="10.00" fill="#000000">genfit::MaterialEffects</text>
<text text-anchor="middle" x="776" y="-148.5" font-family="FreeSans" font-size="10.00" fill="#000000">::init</text>
</a>
</g>
</g>
<!-- Node11&#45;&gt;Node17 -->
<g id="edge17" class="edge">
<title>Node11&#45;&gt;Node17</title>
<path fill="none" stroke="#191970" d="M630.148,-157.5C652.7382,-157.5 678.3173,-157.5 701.676,-157.5"/>
<polygon fill="#191970" stroke="#191970" points="701.8833,-161.0001 711.8833,-157.5 701.8832,-154.0001 701.8833,-161.0001"/>
</g>
<!-- Node18 -->
<g id="node18" class="node">
<title>Node18</title>
<g id="a_node18"><a xlink:href="../../d4/d1a/classgenfit_1_1EventDisplay.html#acc398c4fb9fce23fbc106453d5a55718" target="_top" xlink:title="genfit::EventDisplay\l::getInstance">
<polygon fill="none" stroke="#000000" points="716.5,-90.5 716.5,-122.5 835.5,-122.5 835.5,-90.5 716.5,-90.5"/>
<text text-anchor="start" x="724.5" y="-109.5" font-family="FreeSans" font-size="10.00" fill="#000000">genfit::EventDisplay</text>
<text text-anchor="middle" x="776" y="-97.5" font-family="FreeSans" font-size="10.00" fill="#000000">::getInstance</text>
</a>
</g>
</g>
<!-- Node11&#45;&gt;Node18 -->
<g id="edge18" class="edge">
<title>Node11&#45;&gt;Node18</title>
<path fill="none" stroke="#191970" d="M607.2387,-147.4849C635.3837,-140.6497 673.3655,-131.4255 706.1694,-123.4589"/>
<polygon fill="#191970" stroke="#191970" points="707.2756,-126.792 716.1671,-121.0308 705.6235,-119.9898 707.2756,-126.792"/>
</g>
<!-- Node20 -->
<g id="node20" class="node">
<title>Node20</title>
<g id="a_node20"><a xlink:href="../../d8/db3/classgenfit_1_1Exception.html#adc12ce3fb68f9869627e0551a5a7822c" target="_top" xlink:title="&quot;std::cerr &lt;&lt; e.what();&quot; will not write anything.">
<polygon fill="none" stroke="#000000" points="722,-39.5 722,-71.5 830,-71.5 830,-39.5 722,-39.5"/>
<text text-anchor="start" x="730" y="-58.5" font-family="FreeSans" font-size="10.00" fill="#000000">genfit::Exception::</text>
<text text-anchor="middle" x="776" y="-46.5" font-family="FreeSans" font-size="10.00" fill="#000000">quiet</text>
</a>
</g>
</g>
<!-- Node11&#45;&gt;Node20 -->
<g id="edge20" class="edge">
<title>Node11&#45;&gt;Node20</title>
<path fill="none" stroke="#191970" d="M596.9148,-147.3796C612.7718,-141.3225 631.8767,-132.625 647,-121.5 666.5338,-107.1306 662.4084,-93.3076 683,-80.5 691.8221,-75.0128 701.8409,-70.7165 711.9557,-67.3562"/>
<polygon fill="#191970" stroke="#191970" points="713.0956,-70.668 721.6469,-64.413 711.0614,-63.9701 713.0956,-70.668"/>
</g>
<!-- Node13 -->
<g id="node13" class="node">
<title>Node13</title>
<g id="a_node13"><a xlink:href="../../de/d8e/classgenfit_1_1FieldManager.html#a01194f10c4efe8d19286492ba01e104e" target="_top" xlink:title="genfit::FieldManager\l::FieldManager">
<polygon fill="none" stroke="#000000" points="908.5,-294.5 908.5,-326.5 1029.5,-326.5 1029.5,-294.5 908.5,-294.5"/>
<text text-anchor="start" x="916.5" y="-313.5" font-family="FreeSans" font-size="10.00" fill="#000000">genfit::FieldManager</text>
<text text-anchor="middle" x="969" y="-301.5" font-family="FreeSans" font-size="10.00" fill="#000000">::FieldManager</text>
</a>
</g>
</g>
<!-- Node12&#45;&gt;Node13 -->
<g id="edge13" class="edge">
<title>Node12&#45;&gt;Node13</title>
<path fill="none" stroke="#191970" d="M836.5369,-310.5C856.1129,-310.5 877.9931,-310.5 898.2419,-310.5"/>
<polygon fill="#191970" stroke="#191970" points="898.3464,-314.0001 908.3464,-310.5 898.3463,-307.0001 898.3464,-314.0001"/>
</g>
<!-- Node16 -->
<g id="node16" class="node">
<title>Node16</title>
<g id="a_node16"><a xlink:href="../../d1/d34/classgenfit_1_1MaterialEffects.html#a0cab227e2f45bd20ba63cf1b2ad260be" target="_top" xlink:title="genfit::MaterialEffects\l::MaterialEffects">
<polygon fill="none" stroke="#000000" points="905,-192.5 905,-224.5 1033,-224.5 1033,-192.5 905,-192.5"/>
<text text-anchor="start" x="913" y="-211.5" font-family="FreeSans" font-size="10.00" fill="#000000">genfit::MaterialEffects</text>
<text text-anchor="middle" x="969" y="-199.5" font-family="FreeSans" font-size="10.00" fill="#000000">::MaterialEffects</text>
</a>
</g>
</g>
<!-- Node15&#45;&gt;Node16 -->
<g id="edge16" class="edge">
<title>Node15&#45;&gt;Node16</title>
<path fill="none" stroke="#191970" d="M840.2662,-208.5C857.6719,-208.5 876.6584,-208.5 894.5725,-208.5"/>
<polygon fill="#191970" stroke="#191970" points="894.6856,-212.0001 904.6856,-208.5 894.6856,-205.0001 894.6856,-212.0001"/>
</g>
<!-- Node19 -->
<g id="node19" class="node">
<title>Node19</title>
<g id="a_node19"><a xlink:href="../../d4/d1a/classgenfit_1_1EventDisplay.html#a3aa96da8f0486f3420b620cebb6b9f00" target="_top" xlink:title="genfit::EventDisplay\l::EventDisplay">
<polygon fill="none" stroke="#000000" points="909.5,-90.5 909.5,-122.5 1028.5,-122.5 1028.5,-90.5 909.5,-90.5"/>
<text text-anchor="start" x="917.5" y="-109.5" font-family="FreeSans" font-size="10.00" fill="#000000">genfit::EventDisplay</text>
<text text-anchor="middle" x="969" y="-97.5" font-family="FreeSans" font-size="10.00" fill="#000000">::EventDisplay</text>
</a>
</g>
</g>
<!-- Node18&#45;&gt;Node19 -->
<g id="edge19" class="edge">
<title>Node18&#45;&gt;Node19</title>
<path fill="none" stroke="#191970" d="M835.7447,-106.5C855.819,-106.5 878.3882,-106.5 899.1673,-106.5"/>
<polygon fill="#191970" stroke="#191970" points="899.2054,-110.0001 909.2054,-106.5 899.2053,-103.0001 899.2054,-110.0001"/>
</g>
<!-- Node22 -->
<g id="node22" class="node">
<title>Node22</title>
<g id="a_node22"><a xlink:href="../../d7/d6d/classPHGeomTGeo.html#a3e111f6229f7ce6392b14a98fdf5bea9" target="_top" xlink:title="PHGeomTGeo::GetGeometry">
<polygon fill="none" stroke="#000000" points="485,-91.5 485,-111.5 647,-111.5 647,-91.5 485,-91.5"/>
<text text-anchor="middle" x="566" y="-98.5" font-family="FreeSans" font-size="10.00" fill="#000000">PHGeomTGeo::GetGeometry</text>
</a>
</g>
</g>
<!-- Node21&#45;&gt;Node22 -->
<g id="edge22" class="edge">
<title>Node21&#45;&gt;Node22</title>
<path fill="none" stroke="#191970" d="M449.3046,-105.3991C457.7082,-105.1183 466.2157,-104.8341 474.6069,-104.5537"/>
<polygon fill="#191970" stroke="#191970" points="474.8924,-108.0462 484.7699,-104.2141 474.6586,-101.0501 474.8924,-108.0462"/>
</g>
<!-- Node24 -->
<g id="node24" class="node">
<title>Node24</title>
<g id="a_node24"><a xlink:href="../../d7/d6d/classPHGeomTGeo.html#a69190f7dbaee394d90516bce19e224a0" target="_top" xlink:title="isValid returns non zero if object contains vailid data">
<polygon fill="none" stroke="#000000" points="503,-18.5 503,-38.5 629,-38.5 629,-18.5 503,-18.5"/>
<text text-anchor="middle" x="566" y="-25.5" font-family="FreeSans" font-size="10.00" fill="#000000">PHGeomTGeo::isValid</text>
</a>
</g>
</g>
<!-- Node21&#45;&gt;Node24 -->
<g id="edge24" class="edge">
<title>Node21&#45;&gt;Node24</title>
<path fill="none" stroke="#191970" d="M414.3924,-98.4152C426.0092,-95.715 438.0157,-92.4276 449,-88.5 482.0611,-76.6786 517.6295,-57.4035 540.758,-43.8985"/>
<polygon fill="#191970" stroke="#191970" points="542.7495,-46.7868 549.5702,-38.6796 539.1824,-40.7638 542.7495,-46.7868"/>
</g>
<!-- Node23 -->
<g id="node23" class="node">
<title>Node23</title>
<g id="a_node23"><a xlink:href="../../d7/d6d/classPHGeomTGeo.html#af37739b87530fe2bbd5d8d03098c1821" target="_top" xlink:title="PHGeomTGeo::ConsistencyCheck">
<polygon fill="none" stroke="#000000" points="683,-.5 683,-20.5 869,-20.5 869,-.5 683,-.5"/>
<text text-anchor="middle" x="776" y="-7.5" font-family="FreeSans" font-size="10.00" fill="#000000">PHGeomTGeo::ConsistencyCheck</text>
</a>
</g>
</g>
<!-- Node22&#45;&gt;Node23 -->
<g id="edge23" class="edge">
<title>Node22&#45;&gt;Node23</title>
<path fill="none" stroke="#191970" d="M581.1187,-91.2722C607.6871,-73.4571 661.9298,-37.8325 683,-29.5 688.9335,-27.1535 695.1995,-25.0822 701.5618,-23.2565"/>
<polygon fill="#191970" stroke="#191970" points="702.8405,-26.5382 711.6049,-20.5854 701.0412,-19.7733 702.8405,-26.5382"/>
</g>
<!-- Node24&#45;&gt;Node23 -->
<g id="edge25" class="edge">
<title>Node24&#45;&gt;Node23</title>
<path fill="none" stroke="#191970" d="M629.0069,-23.0994C642.7495,-21.9215 657.6412,-20.645 672.493,-19.372"/>
<polygon fill="#191970" stroke="#191970" points="673.0895,-22.8338 682.754,-18.4925 672.4916,-15.8594 673.0895,-22.8338"/>
</g>
</g>
</svg>
