<?xml version="1.0" encoding="UTF-8" standalone="no"?>
<!DOCTYPE svg PUBLIC "-//W3C//DTD SVG 1.1//EN"
 "http://www.w3.org/Graphics/SVG/1.1/DTD/svg11.dtd">
<!-- Generated by graphviz version 2.40.1 (20161225.0304)
 -->
<!-- Title: SvtxVertex::set_y Pages: 1 -->
<svg width="508pt" height="80pt"
 viewBox="0.00 0.00 508.00 80.00" xmlns="http://www.w3.org/2000/svg" xmlns:xlink="http://www.w3.org/1999/xlink">
<g id="graph0" class="graph" transform="scale(1 1) rotate(0) translate(4 76)">
<title>SvtxVertex::set_y</title>
<!-- Node1 -->
<g id="node1" class="node">
<title>Node1</title>
<polygon fill="#bfbfbf" stroke="#000000" points="0,-22.5 0,-42.5 104,-42.5 104,-22.5 0,-22.5"/>
<text text-anchor="middle" x="52" y="-29.5" font-family="FreeSans" font-size="10.00" fill="#000000">SvtxVertex::set_y</text>
</g>
<!-- Node2 -->
<g id="node2" class="node">
<title>Node2</title>
<g id="a_node2"><a xlink:href="../../dc/d41/classConversion.html#a2349b2e5589c919110092cc6eda31392" target="_top" xlink:title="Conversion::PHG4VtxPoint\lToSvtxVertex">
<polygon fill="none" stroke="#000000" points="140,-39.5 140,-71.5 290,-71.5 290,-39.5 140,-39.5"/>
<text text-anchor="start" x="148" y="-58.5" font-family="FreeSans" font-size="10.00" fill="#000000">Conversion::PHG4VtxPoint</text>
<text text-anchor="middle" x="215" y="-46.5" font-family="FreeSans" font-size="10.00" fill="#000000">ToSvtxVertex</text>
</a>
</g>
</g>
<!-- Node1&#45;&gt;Node2 -->
<g id="edge1" class="edge">
<title>Node1&#45;&gt;Node2</title>
<path fill="none" stroke="#191970" d="M114.0753,-41.2591C122.4564,-42.4417 131.1285,-43.6654 139.7083,-44.876"/>
<polygon fill="#191970" stroke="#191970" points="114.4133,-37.7722 104.0224,-39.8406 113.4352,-44.7035 114.4133,-37.7722"/>
</g>
<!-- Node4 -->
<g id="node4" class="node">
<title>Node4</title>
<g id="a_node4"><a xlink:href="../../db/d07/classPHTruthVertexing.html#a9c11845b84b07f6c25633052dd09ede4" target="_top" xlink:title="PHTruthVertexing::Process">
<polygon fill="none" stroke="#000000" points="140.5,-.5 140.5,-20.5 289.5,-20.5 289.5,-.5 140.5,-.5"/>
<text text-anchor="middle" x="215" y="-7.5" font-family="FreeSans" font-size="10.00" fill="#000000">PHTruthVertexing::Process</text>
</a>
</g>
</g>
<!-- Node1&#45;&gt;Node4 -->
<g id="edge3" class="edge">
<title>Node1&#45;&gt;Node4</title>
<path fill="none" stroke="#191970" d="M114.1252,-24.115C122.8773,-22.9337 131.9459,-21.7097 140.8947,-20.5019"/>
<polygon fill="#191970" stroke="#191970" points="113.4643,-20.6724 104.0224,-25.4786 114.4007,-27.6095 113.4643,-20.6724"/>
</g>
<!-- Node3 -->
<g id="node3" class="node">
<title>Node3</title>
<g id="a_node3"><a xlink:href="../../dc/d41/classConversion.html#a232908ec95e6d7b3bfd8883d19885971" target="_top" xlink:title="Uses the truth vertex and SVReco to improve the fit of reco1 and reco2. Uses.">
<polygon fill="none" stroke="#000000" points="326,-45.5 326,-65.5 500,-65.5 500,-45.5 326,-45.5"/>
<text text-anchor="middle" x="413" y="-52.5" font-family="FreeSans" font-size="10.00" fill="#000000">Conversion::refitTracksTruthVtx</text>
</a>
</g>
</g>
<!-- Node2&#45;&gt;Node3 -->
<g id="edge2" class="edge">
<title>Node2&#45;&gt;Node3</title>
<path fill="none" stroke="#191970" d="M300.3903,-55.5C308.8647,-55.5 317.4749,-55.5 325.9658,-55.5"/>
<polygon fill="#191970" stroke="#191970" points="300.1377,-52.0001 290.1376,-55.5 300.1376,-59.0001 300.1377,-52.0001"/>
</g>
</g>
</svg>
