<?xml version="1.0" encoding="UTF-8" standalone="no"?>
<!DOCTYPE svg PUBLIC "-//W3C//DTD SVG 1.1//EN"
 "http://www.w3.org/Graphics/SVG/1.1/DTD/svg11.dtd">
<!-- Generated by graphviz version 2.40.1 (20161225.0304)
 -->
<!-- Title: SvtxVertex::set_t0 Pages: 1 -->
<svg width="512pt" height="80pt"
 viewBox="0.00 0.00 512.00 80.00" xmlns="http://www.w3.org/2000/svg" xmlns:xlink="http://www.w3.org/1999/xlink">
<g id="graph0" class="graph" transform="scale(1 1) rotate(0) translate(4 76)">
<title>SvtxVertex::set_t0</title>
<!-- Node1 -->
<g id="node1" class="node">
<title>Node1</title>
<polygon fill="#bfbfbf" stroke="#000000" points="0,-22.5 0,-42.5 108,-42.5 108,-22.5 0,-22.5"/>
<text text-anchor="middle" x="54" y="-29.5" font-family="FreeSans" font-size="10.00" fill="#000000">SvtxVertex::set_t0</text>
</g>
<!-- Node2 -->
<g id="node2" class="node">
<title>Node2</title>
<g id="a_node2"><a xlink:href="../../dc/d41/classConversion.html#a2349b2e5589c919110092cc6eda31392" target="_top" xlink:title="Conversion::PHG4VtxPoint\lToSvtxVertex">
<polygon fill="none" stroke="#000000" points="144,-39.5 144,-71.5 294,-71.5 294,-39.5 144,-39.5"/>
<text text-anchor="start" x="152" y="-58.5" font-family="FreeSans" font-size="10.00" fill="#000000">Conversion::PHG4VtxPoint</text>
<text text-anchor="middle" x="219" y="-46.5" font-family="FreeSans" font-size="10.00" fill="#000000">ToSvtxVertex</text>
</a>
</g>
</g>
<!-- Node1&#45;&gt;Node2 -->
<g id="edge1" class="edge">
<title>Node1&#45;&gt;Node2</title>
<path fill="none" stroke="#191970" d="M118.1549,-41.4428C126.5882,-42.6184 135.2908,-43.8314 143.8857,-45.0295"/>
<polygon fill="#191970" stroke="#191970" points="118.4146,-37.9453 108.0272,-40.0311 117.4482,-44.8782 118.4146,-37.9453"/>
</g>
<!-- Node4 -->
<g id="node4" class="node">
<title>Node4</title>
<g id="a_node4"><a xlink:href="../../db/d07/classPHTruthVertexing.html#a9c11845b84b07f6c25633052dd09ede4" target="_top" xlink:title="PHTruthVertexing::Process">
<polygon fill="none" stroke="#000000" points="144.5,-.5 144.5,-20.5 293.5,-20.5 293.5,-.5 144.5,-.5"/>
<text text-anchor="middle" x="219" y="-7.5" font-family="FreeSans" font-size="10.00" fill="#000000">PHTruthVertexing::Process</text>
</a>
</g>
</g>
<!-- Node1&#45;&gt;Node4 -->
<g id="edge3" class="edge">
<title>Node1&#45;&gt;Node4</title>
<path fill="none" stroke="#191970" d="M118.041,-23.9612C126.7042,-22.8061 135.6536,-21.6128 144.4801,-20.436"/>
<polygon fill="#191970" stroke="#191970" points="117.4768,-20.5054 108.0272,-25.2964 118.4021,-27.444 117.4768,-20.5054"/>
</g>
<!-- Node3 -->
<g id="node3" class="node">
<title>Node3</title>
<g id="a_node3"><a xlink:href="../../dc/d41/classConversion.html#a232908ec95e6d7b3bfd8883d19885971" target="_top" xlink:title="Uses the truth vertex and SVReco to improve the fit of reco1 and reco2. Uses.">
<polygon fill="none" stroke="#000000" points="330,-45.5 330,-65.5 504,-65.5 504,-45.5 330,-45.5"/>
<text text-anchor="middle" x="417" y="-52.5" font-family="FreeSans" font-size="10.00" fill="#000000">Conversion::refitTracksTruthVtx</text>
</a>
</g>
</g>
<!-- Node2&#45;&gt;Node3 -->
<g id="edge2" class="edge">
<title>Node2&#45;&gt;Node3</title>
<path fill="none" stroke="#191970" d="M304.3903,-55.5C312.8647,-55.5 321.4749,-55.5 329.9658,-55.5"/>
<polygon fill="#191970" stroke="#191970" points="304.1377,-52.0001 294.1376,-55.5 304.1376,-59.0001 304.1377,-52.0001"/>
</g>
</g>
</svg>
