<?xml version="1.0" encoding="UTF-8" standalone="no"?>
<!DOCTYPE svg PUBLIC "-//W3C//DTD SVG 1.1//EN"
 "http://www.w3.org/Graphics/SVG/1.1/DTD/svg11.dtd">
<!-- Generated by graphviz version 2.40.1 (20161225.0304)
 -->
<!-- Title: GenFit/blob/master/GFRave/include/GFRavePropagator.h Pages: 1 -->
<svg width="416pt" height="110pt"
 viewBox="0.00 0.00 415.50 110.00" xmlns="http://www.w3.org/2000/svg" xmlns:xlink="http://www.w3.org/1999/xlink">
<g id="graph0" class="graph" transform="scale(1 1) rotate(0) translate(4 106)">
<title>GenFit/blob/master/GFRave/include/GFRavePropagator.h</title>
<!-- Node1 -->
<g id="node1" class="node">
<title>Node1</title>
<polygon fill="#bfbfbf" stroke="#000000" points="97,-69.5 97,-101.5 303,-101.5 303,-69.5 97,-69.5"/>
<text text-anchor="start" x="105" y="-88.5" font-family="FreeSans" font-size="10.00" fill="#000000">GenFit/blob/master</text>
<text text-anchor="middle" x="200" y="-76.5" font-family="FreeSans" font-size="10.00" fill="#000000">/GFRave/include/GFRavePropagator.h</text>
</g>
<!-- Node2 -->
<g id="node2" class="node">
<title>Node2</title>
<g id="a_node2"><a xlink:href="../../d8/d28/GFRavePropagator_8cc.html" target="_top" xlink:title="GenFit/blob/master\l/GFRave/src/GFRavePropagator.cc">
<polygon fill="none" stroke="#000000" points="0,-.5 0,-32.5 188,-32.5 188,-.5 0,-.5"/>
<text text-anchor="start" x="8" y="-19.5" font-family="FreeSans" font-size="10.00" fill="#000000">GenFit/blob/master</text>
<text text-anchor="middle" x="94" y="-7.5" font-family="FreeSans" font-size="10.00" fill="#000000">/GFRave/src/GFRavePropagator.cc</text>
</a>
</g>
</g>
<!-- Node1&#45;&gt;Node2 -->
<g id="edge1" class="edge">
<title>Node1&#45;&gt;Node2</title>
<path fill="none" stroke="#191970" d="M166.6482,-63.7898C151.1642,-53.7106 133.0738,-41.9349 118.8188,-32.6557"/>
<polygon fill="#191970" stroke="#191970" points="165.1248,-66.9744 175.415,-69.4966 168.9436,-61.1078 165.1248,-66.9744"/>
</g>
<!-- Node3 -->
<g id="node3" class="node">
<title>Node3</title>
<g id="a_node3"><a xlink:href="../../de/d59/GFRaveVertexFactory_8cc.html" target="_top" xlink:title="GenFit/blob/master\l/GFRave/src/GFRaveVertexFactory.cc">
<polygon fill="none" stroke="#000000" points="206.5,-.5 206.5,-32.5 407.5,-32.5 407.5,-.5 206.5,-.5"/>
<text text-anchor="start" x="214.5" y="-19.5" font-family="FreeSans" font-size="10.00" fill="#000000">GenFit/blob/master</text>
<text text-anchor="middle" x="307" y="-7.5" font-family="FreeSans" font-size="10.00" fill="#000000">/GFRave/src/GFRaveVertexFactory.cc</text>
</a>
</g>
</g>
<!-- Node1&#45;&gt;Node3 -->
<g id="edge2" class="edge">
<title>Node1&#45;&gt;Node3</title>
<path fill="none" stroke="#191970" d="M233.2289,-64.072C248.9549,-53.931 267.4231,-42.0216 281.947,-32.6557"/>
<polygon fill="#191970" stroke="#191970" points="231.3242,-61.1356 224.8169,-69.4966 235.1179,-67.0185 231.3242,-61.1356"/>
</g>
</g>
</svg>
