<?xml version="1.0" encoding="UTF-8" standalone="no"?>
<!DOCTYPE svg PUBLIC "-//W3C//DTD SVG 1.1//EN"
 "http://www.w3.org/Graphics/SVG/1.1/DTD/svg11.dtd">
<!-- Generated by graphviz version 2.40.1 (20161225.0304)
 -->
<!-- Title: genfit::WireMeasurementNew::constructMeasurementsOnPlane Pages: 1 -->
<svg width="398pt" height="296pt"
 viewBox="0.00 0.00 398.00 296.00" xmlns="http://www.w3.org/2000/svg" xmlns:xlink="http://www.w3.org/1999/xlink">
<g id="graph0" class="graph" transform="scale(1 1) rotate(0) translate(4 292)">
<title>genfit::WireMeasurementNew::constructMeasurementsOnPlane</title>
<!-- Node1 -->
<g id="node1" class="node">
<title>Node1</title>
<polygon fill="#bfbfbf" stroke="#000000" points="0,-127.5 0,-159.5 187,-159.5 187,-127.5 0,-127.5"/>
<text text-anchor="start" x="8" y="-146.5" font-family="FreeSans" font-size="10.00" fill="#000000">genfit::WireMeasurementNew</text>
<text text-anchor="middle" x="93.5" y="-134.5" font-family="FreeSans" font-size="10.00" fill="#000000">::constructMeasurementsOnPlane</text>
</g>
<!-- Node2 -->
<g id="node2" class="node">
<title>Node2</title>
<g id="a_node2"><a xlink:href="../../d9/d77/classgenfit_1_1WireMeasurementNew.html#aa120244fc44b057a147f2e7510541970" target="_top" xlink:title="genfit::WireMeasurementNew\l::constructHMatrix">
<polygon fill="none" stroke="#000000" points="223,-255.5 223,-287.5 390,-287.5 390,-255.5 223,-255.5"/>
<text text-anchor="start" x="231" y="-274.5" font-family="FreeSans" font-size="10.00" fill="#000000">genfit::WireMeasurementNew</text>
<text text-anchor="middle" x="306.5" y="-262.5" font-family="FreeSans" font-size="10.00" fill="#000000">::constructHMatrix</text>
</a>
</g>
</g>
<!-- Node1&#45;&gt;Node2 -->
<g id="edge1" class="edge">
<title>Node1&#45;&gt;Node2</title>
<path fill="none" stroke="#191970" d="M109.6179,-159.7651C132.7738,-182.2759 177.6779,-222.8236 223,-246.5 226.5208,-248.3393 230.1974,-250.0642 233.961,-251.6789"/>
<polygon fill="#191970" stroke="#191970" points="232.871,-255.0122 243.456,-255.4679 235.4654,-248.5108 232.871,-255.0122"/>
</g>
<!-- Node3 -->
<g id="node3" class="node">
<title>Node3</title>
<g id="a_node3"><a xlink:href="../../de/dd5/classgenfit_1_1StateOnPlane.html#a30c7e8d87fa50205baa927d4ceccb594" target="_top" xlink:title="genfit::StateOnPlane\l::getPlane">
<polygon fill="none" stroke="#000000" points="246,-204.5 246,-236.5 367,-236.5 367,-204.5 246,-204.5"/>
<text text-anchor="start" x="254" y="-223.5" font-family="FreeSans" font-size="10.00" fill="#000000">genfit::StateOnPlane</text>
<text text-anchor="middle" x="306.5" y="-211.5" font-family="FreeSans" font-size="10.00" fill="#000000">::getPlane</text>
</a>
</g>
</g>
<!-- Node1&#45;&gt;Node3 -->
<g id="edge2" class="edge">
<title>Node1&#45;&gt;Node3</title>
<path fill="none" stroke="#191970" d="M130.8412,-159.5429C156.529,-170.3194 191.5541,-184.5046 223,-195.5 228.582,-197.4518 234.4056,-199.3903 240.2668,-201.274"/>
<polygon fill="#191970" stroke="#191970" points="239.5408,-204.7149 250.1305,-204.3852 241.6465,-198.0391 239.5408,-204.7149"/>
</g>
<!-- Node4 -->
<g id="node4" class="node">
<title>Node4</title>
<g id="a_node4"><a xlink:href="../../d5/d1f/classgenfit_1_1AbsMeasurement.html#a05ccf319f193393dda831baac1871d5d" target="_top" xlink:title="genfit::AbsMeasurement\l::getRawHitCoords">
<polygon fill="none" stroke="#000000" points="236,-153.5 236,-185.5 377,-185.5 377,-153.5 236,-153.5"/>
<text text-anchor="start" x="244" y="-172.5" font-family="FreeSans" font-size="10.00" fill="#000000">genfit::AbsMeasurement</text>
<text text-anchor="middle" x="306.5" y="-160.5" font-family="FreeSans" font-size="10.00" fill="#000000">::getRawHitCoords</text>
</a>
</g>
</g>
<!-- Node1&#45;&gt;Node4 -->
<g id="edge3" class="edge">
<title>Node1&#45;&gt;Node4</title>
<path fill="none" stroke="#191970" d="M187.2349,-154.9418C200.0929,-156.5113 213.2028,-158.1116 225.8002,-159.6493"/>
<polygon fill="#191970" stroke="#191970" points="225.4282,-163.1298 235.7787,-160.8673 226.2765,-156.1814 225.4282,-163.1298"/>
</g>
<!-- Node5 -->
<g id="node5" class="node">
<title>Node5</title>
<g id="a_node5"><a xlink:href="../../d5/d1f/classgenfit_1_1AbsMeasurement.html#a5af29313dd9377ea3d55a80d5d73b5ea" target="_top" xlink:title="genfit::AbsMeasurement\l::getRawHitCov">
<polygon fill="none" stroke="#000000" points="236,-102.5 236,-134.5 377,-134.5 377,-102.5 236,-102.5"/>
<text text-anchor="start" x="244" y="-121.5" font-family="FreeSans" font-size="10.00" fill="#000000">genfit::AbsMeasurement</text>
<text text-anchor="middle" x="306.5" y="-109.5" font-family="FreeSans" font-size="10.00" fill="#000000">::getRawHitCov</text>
</a>
</g>
</g>
<!-- Node1&#45;&gt;Node5 -->
<g id="edge4" class="edge">
<title>Node1&#45;&gt;Node5</title>
<path fill="none" stroke="#191970" d="M187.2349,-132.4983C200.0929,-130.9891 213.2028,-129.4504 225.8002,-127.9718"/>
<polygon fill="#191970" stroke="#191970" points="226.2549,-131.4426 235.7787,-126.8006 225.4388,-124.4903 226.2549,-131.4426"/>
</g>
<!-- Node6 -->
<g id="node6" class="node">
<title>Node6</title>
<g id="a_node6"><a xlink:href="../../de/dd5/classgenfit_1_1StateOnPlane.html#a14f25e4575846dcb14bd91ddb2a534d2" target="_top" xlink:title="genfit::StateOnPlane\l::getRep">
<polygon fill="none" stroke="#000000" points="246,-51.5 246,-83.5 367,-83.5 367,-51.5 246,-51.5"/>
<text text-anchor="start" x="254" y="-70.5" font-family="FreeSans" font-size="10.00" fill="#000000">genfit::StateOnPlane</text>
<text text-anchor="middle" x="306.5" y="-58.5" font-family="FreeSans" font-size="10.00" fill="#000000">::getRep</text>
</a>
</g>
</g>
<!-- Node1&#45;&gt;Node6 -->
<g id="edge5" class="edge">
<title>Node1&#45;&gt;Node6</title>
<path fill="none" stroke="#191970" d="M132.9217,-127.4939C158.4509,-117.3238 192.5027,-104.1224 223,-93.5 229.4544,-91.2519 236.2208,-88.9905 242.9898,-86.7899"/>
<polygon fill="#191970" stroke="#191970" points="244.421,-90.0065 252.8731,-83.6181 242.2819,-83.3414 244.421,-90.0065"/>
</g>
<!-- Node7 -->
<g id="node7" class="node">
<title>Node7</title>
<g id="a_node7"><a xlink:href="../../dd/d4c/classgenfit_1_1MeasurementOnPlane.html#aa7fe8ce59e9166fc9f88d5bfa43a2840" target="_top" xlink:title="genfit::MeasurementOnPlane\l::setWeight">
<polygon fill="none" stroke="#000000" points="224.5,-.5 224.5,-32.5 388.5,-32.5 388.5,-.5 224.5,-.5"/>
<text text-anchor="start" x="232.5" y="-19.5" font-family="FreeSans" font-size="10.00" fill="#000000">genfit::MeasurementOnPlane</text>
<text text-anchor="middle" x="306.5" y="-7.5" font-family="FreeSans" font-size="10.00" fill="#000000">::setWeight</text>
</a>
</g>
</g>
<!-- Node1&#45;&gt;Node7 -->
<g id="edge6" class="edge">
<title>Node1&#45;&gt;Node7</title>
<path fill="none" stroke="#191970" d="M110.1112,-127.2664C133.4967,-105.2239 178.2862,-65.8991 223,-42.5 227.2333,-40.2847 231.6876,-38.2211 236.2445,-36.3055"/>
<polygon fill="#191970" stroke="#191970" points="237.6826,-39.5008 245.7046,-32.5799 235.1176,-32.9877 237.6826,-39.5008"/>
</g>
</g>
</svg>
