<?xml version="1.0" encoding="UTF-8" standalone="no"?>
<!DOCTYPE svg PUBLIC "-//W3C//DTD SVG 1.1//EN"
 "http://www.w3.org/Graphics/SVG/1.1/DTD/svg11.dtd">
<!-- Generated by graphviz version 2.40.1 (20161225.0304)
 -->
<!-- Title: genfit::WireMeasurementNew::constructPlane Pages: 1 -->
<svg width="332pt" height="194pt"
 viewBox="0.00 0.00 332.00 194.00" xmlns="http://www.w3.org/2000/svg" xmlns:xlink="http://www.w3.org/1999/xlink">
<g id="graph0" class="graph" transform="scale(1 1) rotate(0) translate(4 190)">
<title>genfit::WireMeasurementNew::constructPlane</title>
<!-- Node1 -->
<g id="node1" class="node">
<title>Node1</title>
<polygon fill="#bfbfbf" stroke="#000000" points="0,-76.5 0,-108.5 167,-108.5 167,-76.5 0,-76.5"/>
<text text-anchor="start" x="8" y="-95.5" font-family="FreeSans" font-size="10.00" fill="#000000">genfit::WireMeasurementNew</text>
<text text-anchor="middle" x="83.5" y="-83.5" font-family="FreeSans" font-size="10.00" fill="#000000">::constructPlane</text>
</g>
<!-- Node2 -->
<g id="node2" class="node">
<title>Node2</title>
<g id="a_node2"><a xlink:href="../../d1/d25/classgenfit_1_1AbsTrackRep.html#a4442c7a510c9bc05a51130350f2268a1" target="_top" xlink:title="Extrapolates the state to the POCA to a line, and returns the extrapolation length and...">
<polygon fill="none" stroke="#000000" points="205,-153.5 205,-185.5 322,-185.5 322,-153.5 205,-153.5"/>
<text text-anchor="start" x="213" y="-172.5" font-family="FreeSans" font-size="10.00" fill="#000000">genfit::AbsTrackRep</text>
<text text-anchor="middle" x="263.5" y="-160.5" font-family="FreeSans" font-size="10.00" fill="#000000">::extrapolateToLine</text>
</a>
</g>
</g>
<!-- Node1&#45;&gt;Node2 -->
<g id="edge1" class="edge">
<title>Node1&#45;&gt;Node2</title>
<path fill="none" stroke="#191970" d="M120.0348,-108.6073C143.6554,-118.9692 175.0885,-132.6616 203,-144.5 206.8843,-146.1475 210.9143,-147.8429 214.9662,-149.5377"/>
<polygon fill="#191970" stroke="#191970" points="213.8247,-152.8537 224.4017,-153.4683 216.5165,-146.3919 213.8247,-152.8537"/>
</g>
<!-- Node3 -->
<g id="node3" class="node">
<title>Node3</title>
<g id="a_node3"><a xlink:href="../../d1/d25/classgenfit_1_1AbsTrackRep.html#a5c793a4e2a75511b77a53ec977e2501b" target="_top" xlink:title="Get the cartesian momentum vector of a state.">
<polygon fill="none" stroke="#000000" points="205,-102.5 205,-134.5 322,-134.5 322,-102.5 205,-102.5"/>
<text text-anchor="start" x="213" y="-121.5" font-family="FreeSans" font-size="10.00" fill="#000000">genfit::AbsTrackRep</text>
<text text-anchor="middle" x="263.5" y="-109.5" font-family="FreeSans" font-size="10.00" fill="#000000">::getMom</text>
</a>
</g>
</g>
<!-- Node1&#45;&gt;Node3 -->
<g id="edge2" class="edge">
<title>Node1&#45;&gt;Node3</title>
<path fill="none" stroke="#191970" d="M167.1765,-104.5866C176.4484,-105.9259 185.8103,-107.2782 194.8659,-108.5862"/>
<polygon fill="#191970" stroke="#191970" points="194.541,-112.0755 204.9387,-110.0411 195.5418,-105.1474 194.541,-112.0755"/>
</g>
<!-- Node4 -->
<g id="node4" class="node">
<title>Node4</title>
<g id="a_node4"><a xlink:href="../../d1/d25/classgenfit_1_1AbsTrackRep.html#a8a5f4ef901011b30ecfaa612ae993c80" target="_top" xlink:title="Get the cartesian position of a state.">
<polygon fill="none" stroke="#000000" points="205,-51.5 205,-83.5 322,-83.5 322,-51.5 205,-51.5"/>
<text text-anchor="start" x="213" y="-70.5" font-family="FreeSans" font-size="10.00" fill="#000000">genfit::AbsTrackRep</text>
<text text-anchor="middle" x="263.5" y="-58.5" font-family="FreeSans" font-size="10.00" fill="#000000">::getPos</text>
</a>
</g>
</g>
<!-- Node1&#45;&gt;Node4 -->
<g id="edge3" class="edge">
<title>Node1&#45;&gt;Node4</title>
<path fill="none" stroke="#191970" d="M167.1765,-80.8783C176.4484,-79.5905 185.8103,-78.2902 194.8659,-77.0325"/>
<polygon fill="#191970" stroke="#191970" points="195.5153,-80.476 204.9387,-75.6335 194.5522,-73.5426 195.5153,-80.476"/>
</g>
<!-- Node5 -->
<g id="node5" class="node">
<title>Node5</title>
<g id="a_node5"><a xlink:href="../../de/dd5/classgenfit_1_1StateOnPlane.html#a14f25e4575846dcb14bd91ddb2a534d2" target="_top" xlink:title="genfit::StateOnPlane\l::getRep">
<polygon fill="none" stroke="#000000" points="203,-.5 203,-32.5 324,-32.5 324,-.5 203,-.5"/>
<text text-anchor="start" x="211" y="-19.5" font-family="FreeSans" font-size="10.00" fill="#000000">genfit::StateOnPlane</text>
<text text-anchor="middle" x="263.5" y="-7.5" font-family="FreeSans" font-size="10.00" fill="#000000">::getRep</text>
</a>
</g>
</g>
<!-- Node1&#45;&gt;Node5 -->
<g id="edge4" class="edge">
<title>Node1&#45;&gt;Node5</title>
<path fill="none" stroke="#191970" d="M121.6734,-76.3824C149.2369,-64.7444 186.6387,-48.9525 216.1131,-36.5078"/>
<polygon fill="#191970" stroke="#191970" points="217.5306,-39.7086 225.3817,-32.5944 214.8077,-33.2598 217.5306,-39.7086"/>
</g>
</g>
</svg>
