<?xml version="1.0" encoding="UTF-8" standalone="no"?>
<!DOCTYPE svg PUBLIC "-//W3C//DTD SVG 1.1//EN"
 "http://www.w3.org/Graphics/SVG/1.1/DTD/svg11.dtd">
<!-- Generated by graphviz version 2.40.1 (20161225.0304)
 -->
<!-- Title: GenFit/blob/master/core/include/MeasurementOnPlane.h Pages: 1 -->
<svg width="701pt" height="452pt"
 viewBox="0.00 0.00 700.67 452.00" xmlns="http://www.w3.org/2000/svg" xmlns:xlink="http://www.w3.org/1999/xlink">
<g id="graph0" class="graph" transform="scale(1 1) rotate(0) translate(4 448)">
<title>GenFit/blob/master/core/include/MeasurementOnPlane.h</title>
<!-- Node1 -->
<g id="node1" class="node">
<title>Node1</title>
<polygon fill="#bfbfbf" stroke="#000000" points="390.5,-399.5 390.5,-443.5 559.5,-443.5 559.5,-399.5 390.5,-399.5"/>
<text text-anchor="start" x="398.5" y="-430.5" font-family="FreeSans" font-size="10.00" fill="#000000">GenFit/blob/master</text>
<text text-anchor="start" x="398.5" y="-418.5" font-family="FreeSans" font-size="10.00" fill="#000000">/core/include/MeasurementOn</text>
<text text-anchor="middle" x="475" y="-406.5" font-family="FreeSans" font-size="10.00" fill="#000000">Plane.h</text>
</g>
<!-- Node2 -->
<g id="node2" class="node">
<title>Node2</title>
<g id="a_node2"><a xlink:href="../../df/dc0/MeasuredStateOnPlane_8h.html" target="_top" xlink:title="MeasuredStateOnPlane.h">
<polygon fill="none" stroke="#000000" points="290,-342.5 290,-362.5 434,-362.5 434,-342.5 290,-342.5"/>
<text text-anchor="middle" x="362" y="-349.5" font-family="FreeSans" font-size="10.00" fill="#000000">MeasuredStateOnPlane.h</text>
</a>
</g>
</g>
<!-- Node1&#45;&gt;Node2 -->
<g id="edge1" class="edge">
<title>Node1&#45;&gt;Node2</title>
<path fill="none" stroke="#191970" d="M438.9354,-399.4783C422.1399,-389.2226 402.56,-377.2667 387.3561,-367.9829"/>
<polygon fill="#191970" stroke="#191970" points="388.8778,-364.8112 378.5191,-362.5869 385.2297,-370.7855 388.8778,-364.8112"/>
</g>
<!-- Node10 -->
<g id="node10" class="node">
<title>Node10</title>
<polygon fill="none" stroke="#bfbfbf" points="0,-57.5 0,-77.5 58,-77.5 58,-57.5 0,-57.5"/>
<text text-anchor="middle" x="29" y="-64.5" font-family="FreeSans" font-size="10.00" fill="#000000">memory</text>
</g>
<!-- Node1&#45;&gt;Node10 -->
<g id="edge34" class="edge">
<title>Node1&#45;&gt;Node10</title>
<path fill="none" stroke="#191970" d="M390.3239,-414.8994C260.9722,-402.4522 29,-369.7758 29,-295.5 29,-295.5 29,-295.5 29,-181.5 29,-148.6536 29,-110.4837 29,-87.697"/>
<polygon fill="#191970" stroke="#191970" points="32.5001,-87.5648 29,-77.5648 25.5001,-87.5648 32.5001,-87.5648"/>
</g>
<!-- Node16 -->
<g id="node16" class="node">
<title>Node16</title>
<polygon fill="none" stroke="#bfbfbf" points="368,-171.5 368,-191.5 440,-191.5 440,-171.5 368,-171.5"/>
<text text-anchor="middle" x="404" y="-178.5" font-family="FreeSans" font-size="10.00" fill="#000000">TMatrixD.h</text>
</g>
<!-- Node1&#45;&gt;Node16 -->
<g id="edge32" class="edge">
<title>Node1&#45;&gt;Node16</title>
<path fill="none" stroke="#191970" d="M468.4478,-399.3516C454.6837,-352.8251 422.9554,-245.5747 409.8386,-201.2361"/>
<polygon fill="#191970" stroke="#191970" points="413.1872,-200.2173 406.9941,-191.621 406.4748,-202.2031 413.1872,-200.2173"/>
</g>
<!-- Node19 -->
<g id="node19" class="node">
<title>Node19</title>
<g id="a_node19"><a xlink:href="../../d4/daa/AbsHMatrix_8h.html" target="_top" xlink:title="AbsHMatrix.h">
<polygon fill="none" stroke="#000000" points="598,-228.5 598,-248.5 682,-248.5 682,-228.5 598,-228.5"/>
<text text-anchor="middle" x="640" y="-235.5" font-family="FreeSans" font-size="10.00" fill="#000000">AbsHMatrix.h</text>
</a>
</g>
</g>
<!-- Node1&#45;&gt;Node19 -->
<g id="edge28" class="edge">
<title>Node1&#45;&gt;Node19</title>
<path fill="none" stroke="#191970" d="M489.2133,-399.4303C500.1686,-383.0043 516.0897,-360.3484 532,-342 560.4872,-309.1475 597.9109,-274.9938 620.3948,-255.2948"/>
<polygon fill="#191970" stroke="#191970" points="622.707,-257.9224 627.9582,-248.7204 618.1148,-252.6393 622.707,-257.9224"/>
</g>
<!-- Node20 -->
<g id="node20" class="node">
<title>Node20</title>
<polygon fill="none" stroke="#bfbfbf" points="541,-342.5 541,-362.5 589,-362.5 589,-342.5 541,-342.5"/>
<text text-anchor="middle" x="565" y="-349.5" font-family="FreeSans" font-size="10.00" fill="#000000">cmath</text>
</g>
<!-- Node1&#45;&gt;Node20 -->
<g id="edge33" class="edge">
<title>Node1&#45;&gt;Node20</title>
<path fill="none" stroke="#191970" d="M503.972,-399.2882C516.8732,-389.3972 531.7962,-377.9563 543.6561,-368.8637"/>
<polygon fill="#191970" stroke="#191970" points="545.8713,-371.5757 551.6778,-362.7137 541.6122,-366.0204 545.8713,-371.5757"/>
</g>
<!-- Node3 -->
<g id="node3" class="node">
<title>Node3</title>
<g id="a_node3"><a xlink:href="../../db/d1a/StateOnPlane_8h.html" target="_top" xlink:title="StateOnPlane.h">
<polygon fill="none" stroke="#000000" points="315,-285.5 315,-305.5 409,-305.5 409,-285.5 315,-285.5"/>
<text text-anchor="middle" x="362" y="-292.5" font-family="FreeSans" font-size="10.00" fill="#000000">StateOnPlane.h</text>
</a>
</g>
</g>
<!-- Node2&#45;&gt;Node3 -->
<g id="edge2" class="edge">
<title>Node2&#45;&gt;Node3</title>
<path fill="none" stroke="#191970" d="M362,-342.3095C362,-334.9335 362,-324.72 362,-315.715"/>
<polygon fill="#191970" stroke="#191970" points="365.5001,-315.6022 362,-305.6022 358.5001,-315.6023 365.5001,-315.6022"/>
</g>
<!-- Node11 -->
<g id="node11" class="node">
<title>Node11</title>
<g id="a_node11"><a xlink:href="../../d4/d66/AbsTrackRep_8h.html" target="_top" xlink:title="AbsTrackRep.h">
<polygon fill="none" stroke="#000000" points="316.5,-228.5 316.5,-248.5 407.5,-248.5 407.5,-228.5 316.5,-228.5"/>
<text text-anchor="middle" x="362" y="-235.5" font-family="FreeSans" font-size="10.00" fill="#000000">AbsTrackRep.h</text>
</a>
</g>
</g>
<!-- Node2&#45;&gt;Node11 -->
<g id="edge25" class="edge">
<title>Node2&#45;&gt;Node11</title>
<path fill="none" stroke="#191970" d="M343.2042,-342.4822C322.9726,-330.2495 295.0647,-308.294 306,-285 311.9323,-272.3632 323.1725,-261.9738 334.035,-254.2452"/>
<polygon fill="#191970" stroke="#191970" points="336.1355,-257.0526 342.5569,-248.6254 332.2818,-251.2088 336.1355,-257.0526"/>
</g>
<!-- Node17 -->
<g id="node17" class="node">
<title>Node17</title>
<polygon fill="none" stroke="#bfbfbf" points="586,-171.5 586,-191.5 680,-191.5 680,-171.5 586,-171.5"/>
<text text-anchor="middle" x="633" y="-178.5" font-family="FreeSans" font-size="10.00" fill="#000000">TMatrixDSym.h</text>
</g>
<!-- Node2&#45;&gt;Node17 -->
<g id="edge26" class="edge">
<title>Node2&#45;&gt;Node17</title>
<path fill="none" stroke="#191970" d="M382.1747,-342.3993C416.6563,-324.8641 488.7487,-287.012 546,-249 570.0886,-233.0064 596.0821,-212.3493 613.321,-198.1222"/>
<polygon fill="#191970" stroke="#191970" points="615.5865,-200.7904 621.0338,-191.7031 611.1086,-195.41 615.5865,-200.7904"/>
</g>
<!-- Node18 -->
<g id="node18" class="node">
<title>Node18</title>
<polygon fill="none" stroke="#bfbfbf" points="206.5,-228.5 206.5,-248.5 259.5,-248.5 259.5,-228.5 206.5,-228.5"/>
<text text-anchor="middle" x="233" y="-235.5" font-family="FreeSans" font-size="10.00" fill="#000000">cassert</text>
</g>
<!-- Node2&#45;&gt;Node18 -->
<g id="edge27" class="edge">
<title>Node2&#45;&gt;Node18</title>
<path fill="none" stroke="#191970" d="M346.9724,-342.4294C333.8734,-333.4157 314.5858,-319.5664 299,-306 280.8117,-290.1684 261.7303,-270.2394 248.7897,-256.1516"/>
<polygon fill="#191970" stroke="#191970" points="251.249,-253.6536 241.9332,-248.607 246.0686,-258.3615 251.249,-253.6536"/>
</g>
<!-- Node4 -->
<g id="node4" class="node">
<title>Node4</title>
<g id="a_node4"><a xlink:href="../../db/d4f/SharedPlanePtr_8h.html" target="_top" xlink:title="SharedPlanePtr.h">
<polygon fill="none" stroke="#000000" points="72,-171.5 72,-191.5 174,-191.5 174,-171.5 72,-171.5"/>
<text text-anchor="middle" x="123" y="-178.5" font-family="FreeSans" font-size="10.00" fill="#000000">SharedPlanePtr.h</text>
</a>
</g>
</g>
<!-- Node3&#45;&gt;Node4 -->
<g id="edge3" class="edge">
<title>Node3&#45;&gt;Node4</title>
<path fill="none" stroke="#191970" d="M350.7507,-285.4689C334.0062,-270.991 301.0479,-244.2021 269,-228 239.7999,-213.2376 204.9558,-201.9265 176.6317,-194.1581"/>
<polygon fill="#191970" stroke="#191970" points="177.4697,-190.7593 166.905,-191.5582 175.662,-197.5219 177.4697,-190.7593"/>
</g>
<!-- Node8 -->
<g id="node8" class="node">
<title>Node8</title>
<polygon fill="none" stroke="#bfbfbf" points="393.5,-57.5 393.5,-77.5 458.5,-77.5 458.5,-57.5 393.5,-57.5"/>
<text text-anchor="middle" x="426" y="-64.5" font-family="FreeSans" font-size="10.00" fill="#000000">TObject.h</text>
</g>
<!-- Node3&#45;&gt;Node8 -->
<g id="edge22" class="edge">
<title>Node3&#45;&gt;Node8</title>
<path fill="none" stroke="#191970" d="M400.2169,-285.4986C442.75,-272.0898 509.3857,-243.751 539,-192 565.0135,-146.5412 499.0494,-103.6448 457.2621,-82.0508"/>
<polygon fill="#191970" stroke="#191970" points="458.7534,-78.8833 448.246,-77.525 455.613,-85.1393 458.7534,-78.8833"/>
</g>
<!-- Node3&#45;&gt;Node11 -->
<g id="edge11" class="edge">
<title>Node3&#45;&gt;Node11</title>
<path fill="none" stroke="#191970" d="M362,-285.3095C362,-277.9335 362,-267.72 362,-258.715"/>
<polygon fill="#191970" stroke="#191970" points="365.5001,-258.6022 362,-248.6022 358.5001,-258.6023 365.5001,-258.6022"/>
</g>
<!-- Node15 -->
<g id="node15" class="node">
<title>Node15</title>
<polygon fill="none" stroke="#bfbfbf" points="458,-171.5 458,-191.5 530,-191.5 530,-171.5 458,-171.5"/>
<text text-anchor="middle" x="494" y="-178.5" font-family="FreeSans" font-size="10.00" fill="#000000">TVectorD.h</text>
</g>
<!-- Node3&#45;&gt;Node15 -->
<g id="edge23" class="edge">
<title>Node3&#45;&gt;Node15</title>
<path fill="none" stroke="#191970" d="M374.2863,-285.22C385.4679,-275.8388 402.407,-261.5634 417,-249 436.7792,-231.9717 459.1964,-212.2746 474.7209,-198.5701"/>
<polygon fill="#191970" stroke="#191970" points="477.4006,-200.8728 482.5759,-191.628 472.765,-195.6276 477.4006,-200.8728"/>
</g>
<!-- Node3&#45;&gt;Node18 -->
<g id="edge24" class="edge">
<title>Node3&#45;&gt;Node18</title>
<path fill="none" stroke="#191970" d="M339.2343,-285.4408C318.7286,-276.3801 288.3603,-262.9615 265.3385,-252.7891"/>
<polygon fill="#191970" stroke="#191970" points="266.5335,-249.4907 255.972,-248.6504 263.7043,-255.8935 266.5335,-249.4907"/>
</g>
<!-- Node5 -->
<g id="node5" class="node">
<title>Node5</title>
<g id="a_node5"><a xlink:href="../../dc/d81/DetPlane_8h.html" target="_top" xlink:title="DetPlane.h">
<polygon fill="none" stroke="#000000" points="95.5,-114.5 95.5,-134.5 166.5,-134.5 166.5,-114.5 95.5,-114.5"/>
<text text-anchor="middle" x="131" y="-121.5" font-family="FreeSans" font-size="10.00" fill="#000000">DetPlane.h</text>
</a>
</g>
</g>
<!-- Node4&#45;&gt;Node5 -->
<g id="edge4" class="edge">
<title>Node4&#45;&gt;Node5</title>
<path fill="none" stroke="#191970" d="M124.4302,-171.3095C125.4655,-163.9335 126.899,-153.72 128.1628,-144.715"/>
<polygon fill="#191970" stroke="#191970" points="131.6582,-144.9917 129.5821,-134.6022 124.7261,-144.0187 131.6582,-144.9917"/>
</g>
<!-- Node4&#45;&gt;Node10 -->
<g id="edge10" class="edge">
<title>Node4&#45;&gt;Node10</title>
<path fill="none" stroke="#191970" d="M114.6581,-171.3833C98.7416,-152.0802 63.8467,-109.7609 43.8533,-85.5135"/>
<polygon fill="#191970" stroke="#191970" points="46.5205,-83.2467 37.4583,-77.7579 41.1198,-87.7 46.5205,-83.2467"/>
</g>
<!-- Node6 -->
<g id="node6" class="node">
<title>Node6</title>
<g id="a_node6"><a xlink:href="../../d1/dd1/AbsFinitePlane_8h.html" target="_top" xlink:title="AbsFinitePlane.h">
<polygon fill="none" stroke="#000000" points="76,-57.5 76,-77.5 176,-77.5 176,-57.5 76,-57.5"/>
<text text-anchor="middle" x="126" y="-64.5" font-family="FreeSans" font-size="10.00" fill="#000000">AbsFinitePlane.h</text>
</a>
</g>
</g>
<!-- Node5&#45;&gt;Node6 -->
<g id="edge5" class="edge">
<title>Node5&#45;&gt;Node6</title>
<path fill="none" stroke="#191970" d="M130.1061,-114.3095C129.4591,-106.9335 128.5632,-96.72 127.7732,-87.715"/>
<polygon fill="#191970" stroke="#191970" points="131.2467,-87.2581 126.8862,-77.6022 124.2735,-87.8699 131.2467,-87.2581"/>
</g>
<!-- Node5&#45;&gt;Node8 -->
<g id="edge7" class="edge">
<title>Node5&#45;&gt;Node8</title>
<path fill="none" stroke="#191970" d="M166.6856,-117.7095C213.904,-108.7092 299.7265,-92.2978 373,-78 376.4179,-77.3331 379.9592,-76.6387 383.5161,-75.939"/>
<polygon fill="#191970" stroke="#191970" points="384.3587,-79.3403 393.4922,-73.9709 383.0038,-72.4727 384.3587,-79.3403"/>
</g>
<!-- Node9 -->
<g id="node9" class="node">
<title>Node9</title>
<polygon fill="none" stroke="#bfbfbf" points="194.5,-57.5 194.5,-77.5 265.5,-77.5 265.5,-57.5 194.5,-57.5"/>
<text text-anchor="middle" x="230" y="-64.5" font-family="FreeSans" font-size="10.00" fill="#000000">TVector3.h</text>
</g>
<!-- Node5&#45;&gt;Node9 -->
<g id="edge8" class="edge">
<title>Node5&#45;&gt;Node9</title>
<path fill="none" stroke="#191970" d="M148.6992,-114.3095C163.9035,-105.5556 186.0494,-92.8049 203.3896,-82.8211"/>
<polygon fill="#191970" stroke="#191970" points="205.5342,-85.6251 212.454,-77.6022 202.0414,-79.5587 205.5342,-85.6251"/>
</g>
<!-- Node5&#45;&gt;Node10 -->
<g id="edge9" class="edge">
<title>Node5&#45;&gt;Node10</title>
<path fill="none" stroke="#191970" d="M112.7644,-114.3095C96.9544,-105.4745 73.8593,-92.5684 55.9218,-82.5445"/>
<polygon fill="#191970" stroke="#191970" points="57.5145,-79.4252 47.0777,-77.6022 54.0997,-85.5358 57.5145,-79.4252"/>
</g>
<!-- Node7 -->
<g id="node7" class="node">
<title>Node7</title>
<polygon fill="none" stroke="#bfbfbf" points="96,-.5 96,-20.5 156,-20.5 156,-.5 96,-.5"/>
<text text-anchor="middle" x="126" y="-7.5" font-family="FreeSans" font-size="10.00" fill="#000000">Rtypes.h</text>
</g>
<!-- Node6&#45;&gt;Node7 -->
<g id="edge6" class="edge">
<title>Node6&#45;&gt;Node7</title>
<path fill="none" stroke="#191970" d="M126,-57.3095C126,-49.9335 126,-39.72 126,-30.715"/>
<polygon fill="#191970" stroke="#191970" points="129.5001,-30.6022 126,-20.6022 122.5001,-30.6023 129.5001,-30.6022"/>
</g>
<!-- Node11&#45;&gt;Node4 -->
<g id="edge12" class="edge">
<title>Node11&#45;&gt;Node4</title>
<path fill="none" stroke="#191970" d="M319.8218,-228.4408C279.4165,-218.8043 218.343,-204.2387 174.9565,-193.8913"/>
<polygon fill="#191970" stroke="#191970" points="175.6971,-190.4698 165.1579,-191.5544 174.0731,-197.2789 175.6971,-190.4698"/>
</g>
<!-- Node11&#45;&gt;Node8 -->
<g id="edge18" class="edge">
<title>Node11&#45;&gt;Node8</title>
<path fill="none" stroke="#191970" d="M359.0696,-228.465C355.6508,-214.8947 351.3726,-190.1847 359,-171 367.1308,-150.5492 380.4687,-153.0918 393,-135 403.4169,-119.9608 412.3247,-101.1405 418.2503,-87.196"/>
<polygon fill="#191970" stroke="#191970" points="421.6187,-88.2066 422.1759,-77.6264 415.1425,-85.5498 421.6187,-88.2066"/>
</g>
<!-- Node11&#45;&gt;Node9 -->
<g id="edge17" class="edge">
<title>Node11&#45;&gt;Node9</title>
<path fill="none" stroke="#191970" d="M316.3922,-232.0275C289.7961,-225.9674 257.5456,-214.3141 237,-192 211.0949,-163.865 217.6094,-115.2728 224.1357,-87.8556"/>
<polygon fill="#191970" stroke="#191970" points="227.6113,-88.3976 226.7491,-77.838 220.838,-86.6306 227.6113,-88.3976"/>
</g>
<!-- Node12 -->
<g id="node12" class="node">
<title>Node12</title>
<g id="a_node12"><a xlink:href="../../df/d12/Material_8h.html" target="_top" xlink:title="Material.h">
<polygon fill="none" stroke="#000000" points="246,-171.5 246,-191.5 312,-191.5 312,-171.5 246,-171.5"/>
<text text-anchor="middle" x="279" y="-178.5" font-family="FreeSans" font-size="10.00" fill="#000000">Material.h</text>
</a>
</g>
</g>
<!-- Node11&#45;&gt;Node12 -->
<g id="edge13" class="edge">
<title>Node11&#45;&gt;Node12</title>
<path fill="none" stroke="#191970" d="M347.1613,-228.3095C334.6503,-219.7177 316.5331,-207.2758 302.1215,-197.3786"/>
<polygon fill="#191970" stroke="#191970" points="303.935,-194.3782 293.7103,-191.6022 299.9722,-200.1485 303.935,-194.3782"/>
</g>
<!-- Node11&#45;&gt;Node15 -->
<g id="edge19" class="edge">
<title>Node11&#45;&gt;Node15</title>
<path fill="none" stroke="#191970" d="M385.2951,-228.4408C406.3714,-219.3396 437.6299,-205.8416 461.2245,-195.6531"/>
<polygon fill="#191970" stroke="#191970" points="462.7007,-198.8281 470.4938,-191.6504 459.9256,-192.4016 462.7007,-198.8281"/>
</g>
<!-- Node11&#45;&gt;Node16 -->
<g id="edge20" class="edge">
<title>Node11&#45;&gt;Node16</title>
<path fill="none" stroke="#191970" d="M369.5088,-228.3095C375.3618,-220.3661 383.6397,-209.1319 390.6188,-199.6602"/>
<polygon fill="#191970" stroke="#191970" points="393.4419,-201.729 396.5562,-191.6022 387.8065,-197.5766 393.4419,-201.729"/>
</g>
<!-- Node11&#45;&gt;Node17 -->
<g id="edge21" class="edge">
<title>Node11&#45;&gt;Node17</title>
<path fill="none" stroke="#191970" d="M407.665,-228.8952C453.9534,-219.1593 525.6981,-204.069 575.7585,-193.5397"/>
<polygon fill="#191970" stroke="#191970" points="576.7154,-196.9151 585.7809,-191.4317 575.2746,-190.065 576.7154,-196.9151"/>
</g>
<!-- Node12&#45;&gt;Node8 -->
<g id="edge16" class="edge">
<title>Node12&#45;&gt;Node8</title>
<path fill="none" stroke="#191970" d="M304.6329,-171.484C323.5591,-163.3526 349.3373,-150.681 369,-135 386.6764,-120.9031 402.895,-100.6605 413.4739,-86.0236"/>
<polygon fill="#191970" stroke="#191970" points="416.4092,-87.9339 419.2945,-77.7396 410.6817,-83.9096 416.4092,-87.9339"/>
</g>
<!-- Node13 -->
<g id="node13" class="node">
<title>Node13</title>
<g id="a_node13"><a xlink:href="../../d7/d83/EigenMatrixTypedefs_8h.html" target="_top" xlink:title="EigenMatrixTypedefs.h">
<polygon fill="none" stroke="#000000" points="230,-114.5 230,-134.5 360,-134.5 360,-114.5 230,-114.5"/>
<text text-anchor="middle" x="295" y="-121.5" font-family="FreeSans" font-size="10.00" fill="#000000">EigenMatrixTypedefs.h</text>
</a>
</g>
</g>
<!-- Node12&#45;&gt;Node13 -->
<g id="edge14" class="edge">
<title>Node12&#45;&gt;Node13</title>
<path fill="none" stroke="#191970" d="M281.8605,-171.3095C283.9537,-163.8524 286.861,-153.4951 289.4088,-144.4186"/>
<polygon fill="#191970" stroke="#191970" points="292.8314,-145.176 292.1643,-134.6022 286.0919,-143.2842 292.8314,-145.176"/>
</g>
<!-- Node14 -->
<g id="node14" class="node">
<title>Node14</title>
<polygon fill="none" stroke="#bfbfbf" points="284,-57.5 284,-77.5 364,-77.5 364,-57.5 284,-57.5"/>
<text text-anchor="middle" x="324" y="-64.5" font-family="FreeSans" font-size="10.00" fill="#000000">Eigen/Dense</text>
</g>
<!-- Node13&#45;&gt;Node14 -->
<g id="edge15" class="edge">
<title>Node13&#45;&gt;Node14</title>
<path fill="none" stroke="#191970" d="M300.1846,-114.3095C304.1023,-106.6093 309.5933,-95.8166 314.3156,-86.5349"/>
<polygon fill="#191970" stroke="#191970" points="317.4451,-88.1021 318.8603,-77.6022 311.2062,-84.9279 317.4451,-88.1021"/>
</g>
<!-- Node19&#45;&gt;Node8 -->
<g id="edge29" class="edge">
<title>Node19&#45;&gt;Node8</title>
<path fill="none" stroke="#191970" d="M656.6295,-228.2885C675.5454,-215.3303 702.2035,-192.1195 689,-171 664.8153,-132.3156 536.998,-95.2206 468.8626,-77.8172"/>
<polygon fill="#191970" stroke="#191970" points="469.4158,-74.3471 458.8634,-75.2951 467.7037,-81.1346 469.4158,-74.3471"/>
</g>
<!-- Node19&#45;&gt;Node15 -->
<g id="edge31" class="edge">
<title>Node19&#45;&gt;Node15</title>
<path fill="none" stroke="#191970" d="M614.2342,-228.4408C590.7153,-219.2587 555.7332,-205.6013 529.5578,-195.3822"/>
<polygon fill="#191970" stroke="#191970" points="530.5875,-192.0269 519.9993,-191.6504 528.0417,-198.5476 530.5875,-192.0269"/>
</g>
<!-- Node19&#45;&gt;Node17 -->
<g id="edge30" class="edge">
<title>Node19&#45;&gt;Node17</title>
<path fill="none" stroke="#191970" d="M638.7485,-228.3095C637.8427,-220.9335 636.5884,-210.72 635.4825,-201.715"/>
<polygon fill="#191970" stroke="#191970" points="638.9335,-201.101 634.2406,-191.6022 631.9857,-201.9543 638.9335,-201.101"/>
</g>
</g>
</svg>
