<?xml version="1.0" encoding="UTF-8" standalone="no"?>
<!DOCTYPE svg PUBLIC "-//W3C//DTD SVG 1.1//EN"
 "http://www.w3.org/Graphics/SVG/1.1/DTD/svg11.dtd">
<!-- Generated by graphviz version 2.40.1 (20161225.0304)
 -->
<!-- Title: KFVertex::operator&#45;= Pages: 1 -->
<svg width="740pt" height="185pt"
 viewBox="0.00 0.00 740.00 185.00" xmlns="http://www.w3.org/2000/svg" xmlns:xlink="http://www.w3.org/1999/xlink">
<g id="graph0" class="graph" transform="scale(1 1) rotate(0) translate(4 181)">
<title>KFVertex::operator&#45;=</title>
<!-- Node1 -->
<g id="node1" class="node">
<title>Node1</title>
<polygon fill="#bfbfbf" stroke="#000000" points="0,-58.5 0,-78.5 122,-78.5 122,-58.5 0,-58.5"/>
<text text-anchor="middle" x="61" y="-65.5" font-family="FreeSans" font-size="10.00" fill="#000000">KFVertex::operator&#45;=</text>
</g>
<!-- Node2 -->
<g id="node2" class="node">
<title>Node2</title>
<g id="a_node2"><a xlink:href="../../d5/d41/classKFParticleBase.html#a61b2ddef3be58d0a9199371ef818abec" target="_top" xlink:title="KFParticleBase::Subtract\lFromVertex">
<polygon fill="none" stroke="#000000" points="158,-52.5 158,-84.5 299,-84.5 299,-52.5 158,-52.5"/>
<text text-anchor="start" x="166" y="-71.5" font-family="FreeSans" font-size="10.00" fill="#000000">KFParticleBase::Subtract</text>
<text text-anchor="middle" x="228.5" y="-59.5" font-family="FreeSans" font-size="10.00" fill="#000000">FromVertex</text>
</a>
</g>
</g>
<!-- Node1&#45;&gt;Node2 -->
<g id="edge1" class="edge">
<title>Node1&#45;&gt;Node2</title>
<path fill="none" stroke="#191970" d="M122.4197,-68.5C130.5843,-68.5 139.0543,-68.5 147.4873,-68.5"/>
<polygon fill="#191970" stroke="#191970" points="147.7324,-72.0001 157.7324,-68.5 147.7323,-65.0001 147.7324,-72.0001"/>
</g>
<!-- Node3 -->
<g id="node3" class="node">
<title>Node3</title>
<g id="a_node3"><a xlink:href="../../d5/d41/classKFParticleBase.html#a4589ae9c9872e56468d6c5dc17adcfff" target="_top" xlink:title="KFParticleBase::GetMeasurement">
<polygon fill="none" stroke="#000000" points="335,-78.5 335,-98.5 520,-98.5 520,-78.5 335,-78.5"/>
<text text-anchor="middle" x="427.5" y="-85.5" font-family="FreeSans" font-size="10.00" fill="#000000">KFParticleBase::GetMeasurement</text>
</a>
</g>
</g>
<!-- Node2&#45;&gt;Node3 -->
<g id="edge2" class="edge">
<title>Node2&#45;&gt;Node3</title>
<path fill="none" stroke="#191970" d="M299.2203,-75.6076C307.4907,-76.4388 316.0514,-77.2991 324.6455,-78.1629"/>
<polygon fill="#191970" stroke="#191970" points="324.4343,-81.6592 334.7342,-79.1768 325.1343,-74.6943 324.4343,-81.6592"/>
</g>
<!-- Node9 -->
<g id="node9" class="node">
<title>Node9</title>
<g id="a_node9"><a xlink:href="../../d5/d41/classKFParticleBase.html#aa0ed9e611a76fd44e0eaac9d6f504929" target="_top" xlink:title="KFParticleBase::InvertCholetsky3">
<polygon fill="none" stroke="#000000" points="336.5,-39.5 336.5,-59.5 518.5,-59.5 518.5,-39.5 336.5,-39.5"/>
<text text-anchor="middle" x="427.5" y="-46.5" font-family="FreeSans" font-size="10.00" fill="#000000">KFParticleBase::InvertCholetsky3</text>
</a>
</g>
</g>
<!-- Node2&#45;&gt;Node9 -->
<g id="edge8" class="edge">
<title>Node2&#45;&gt;Node9</title>
<path fill="none" stroke="#191970" d="M299.2203,-61.7478C308.0807,-60.9018 317.2743,-60.0241 326.4852,-59.1446"/>
<polygon fill="#191970" stroke="#191970" points="326.8498,-62.6258 336.4718,-58.1911 326.1844,-55.6575 326.8498,-62.6258"/>
</g>
<!-- Node4 -->
<g id="node4" class="node">
<title>Node4</title>
<g id="a_node4"><a xlink:href="../../d5/d41/classKFParticleBase.html#ada459a0ed2508dbc79ff582a3a32c574" target="_top" xlink:title="KFParticleBase::GetDStoParticle">
<polygon fill="none" stroke="#000000" points="556,-156.5 556,-176.5 732,-176.5 732,-156.5 556,-156.5"/>
<text text-anchor="middle" x="644" y="-163.5" font-family="FreeSans" font-size="10.00" fill="#000000">KFParticleBase::GetDStoParticle</text>
</a>
</g>
</g>
<!-- Node3&#45;&gt;Node4 -->
<g id="edge3" class="edge">
<title>Node3&#45;&gt;Node4</title>
<path fill="none" stroke="#191970" d="M446.1327,-98.6273C470.675,-111.5959 515.4752,-134.0013 556,-147.5 563.2985,-149.9311 571.0435,-152.1298 578.7934,-154.0954"/>
<polygon fill="#191970" stroke="#191970" points="578.037,-157.5133 588.5794,-156.4606 579.6816,-150.7092 578.037,-157.5133"/>
</g>
<!-- Node5 -->
<g id="node5" class="node">
<title>Node5</title>
<g id="a_node5"><a xlink:href="../../d5/d41/classKFParticleBase.html#ae4235191e7d6baaa1054507e3cb92dc9" target="_top" xlink:title="KFParticleBase::GetDStoPoint">
<polygon fill="none" stroke="#000000" points="561.5,-117.5 561.5,-137.5 726.5,-137.5 726.5,-117.5 561.5,-117.5"/>
<text text-anchor="middle" x="644" y="-124.5" font-family="FreeSans" font-size="10.00" fill="#000000">KFParticleBase::GetDStoPoint</text>
</a>
</g>
</g>
<!-- Node3&#45;&gt;Node5 -->
<g id="edge4" class="edge">
<title>Node3&#45;&gt;Node5</title>
<path fill="none" stroke="#191970" d="M483.2541,-98.5435C512.2955,-103.7749 547.9881,-110.2046 578.3571,-115.6752"/>
<polygon fill="#191970" stroke="#191970" points="577.9727,-119.1622 588.4348,-117.4906 579.2137,-112.2731 577.9727,-119.1622"/>
</g>
<!-- Node6 -->
<g id="node6" class="node">
<title>Node6</title>
<g id="a_node6"><a xlink:href="../../d5/d41/classKFParticleBase.html#ad059627ac0eb3810051cea5fbfdedc77" target="_top" xlink:title="KFParticleBase::IJ">
<polygon fill="none" stroke="#000000" points="592.5,-78.5 592.5,-98.5 695.5,-98.5 695.5,-78.5 592.5,-78.5"/>
<text text-anchor="middle" x="644" y="-85.5" font-family="FreeSans" font-size="10.00" fill="#000000">KFParticleBase::IJ</text>
</a>
</g>
</g>
<!-- Node3&#45;&gt;Node6 -->
<g id="edge5" class="edge">
<title>Node3&#45;&gt;Node6</title>
<path fill="none" stroke="#191970" d="M520.2576,-88.5C541.1739,-88.5 562.878,-88.5 582.1591,-88.5"/>
<polygon fill="#191970" stroke="#191970" points="582.3014,-92.0001 592.3014,-88.5 582.3014,-85.0001 582.3014,-92.0001"/>
</g>
<!-- Node7 -->
<g id="node7" class="node">
<title>Node7</title>
<g id="a_node7"><a xlink:href="../../d5/d41/classKFParticleBase.html#a724258bdfad283642d00e119a74f6335" target="_top" xlink:title="KFParticleBase::MultQSQt">
<polygon fill="none" stroke="#000000" points="571,-39.5 571,-59.5 717,-59.5 717,-39.5 571,-39.5"/>
<text text-anchor="middle" x="644" y="-46.5" font-family="FreeSans" font-size="10.00" fill="#000000">KFParticleBase::MultQSQt</text>
</a>
</g>
</g>
<!-- Node3&#45;&gt;Node7 -->
<g id="edge6" class="edge">
<title>Node3&#45;&gt;Node7</title>
<path fill="none" stroke="#191970" d="M483.2541,-78.4565C512.2955,-73.2251 547.9881,-66.7954 578.3571,-61.3248"/>
<polygon fill="#191970" stroke="#191970" points="579.2137,-64.7269 588.4348,-59.5094 577.9727,-57.8378 579.2137,-64.7269"/>
</g>
<!-- Node8 -->
<g id="node8" class="node">
<title>Node8</title>
<g id="a_node8"><a xlink:href="../../d5/d41/classKFParticleBase.html#a4c022cf8371927f3bfdca7f7901db99a" target="_top" xlink:title="KFParticleBase::Transport">
<polygon fill="none" stroke="#000000" points="571.5,-.5 571.5,-20.5 716.5,-20.5 716.5,-.5 571.5,-.5"/>
<text text-anchor="middle" x="644" y="-7.5" font-family="FreeSans" font-size="10.00" fill="#000000">KFParticleBase::Transport</text>
</a>
</g>
</g>
<!-- Node3&#45;&gt;Node8 -->
<g id="edge7" class="edge">
<title>Node3&#45;&gt;Node8</title>
<path fill="none" stroke="#191970" d="M499.3377,-78.4469C506.5519,-76.0661 513.5758,-73.1271 520,-69.5 540.5412,-57.9025 535.581,-42.3114 556,-30.5 560.1872,-28.0779 564.6445,-25.9491 569.2457,-24.0781"/>
<polygon fill="#191970" stroke="#191970" points="570.6482,-27.2925 578.8521,-20.5884 568.258,-20.7132 570.6482,-27.2925"/>
</g>
</g>
</svg>
