<?xml version="1.0" encoding="UTF-8" standalone="no"?>
<!DOCTYPE svg PUBLIC "-//W3C//DTD SVG 1.1//EN"
 "http://www.w3.org/Graphics/SVG/1.1/DTD/svg11.dtd">
<!-- Generated by graphviz version 2.40.1 (20161225.0304)
 -->
<!-- Title: KFVertex::operator+= Pages: 1 -->
<svg width="1477pt" height="314pt"
 viewBox="0.00 0.00 1477.00 314.07" xmlns="http://www.w3.org/2000/svg" xmlns:xlink="http://www.w3.org/1999/xlink">
<g id="graph0" class="graph" transform="scale(1 1) rotate(0) translate(4 310.0657)">
<title>KFVertex::operator+=</title>
<!-- Node1 -->
<g id="node1" class="node">
<title>Node1</title>
<polygon fill="#bfbfbf" stroke="#000000" points="0,-180.5 0,-200.5 127,-200.5 127,-180.5 0,-180.5"/>
<text text-anchor="middle" x="63.5" y="-187.5" font-family="FreeSans" font-size="10.00" fill="#000000">KFVertex::operator+=</text>
</g>
<!-- Node2 -->
<g id="node2" class="node">
<title>Node2</title>
<g id="a_node2"><a xlink:href="../../d0/d49/classKFParticle.html#adc75a098f1e5e4fe4e322715a8227be8" target="_top" xlink:title="KFParticle::operator+=">
<polygon fill="none" stroke="#000000" points="163,-180.5 163,-200.5 295,-200.5 295,-180.5 163,-180.5"/>
<text text-anchor="middle" x="229" y="-187.5" font-family="FreeSans" font-size="10.00" fill="#000000">KFParticle::operator+=</text>
</a>
</g>
</g>
<!-- Node1&#45;&gt;Node2 -->
<g id="edge1" class="edge">
<title>Node1&#45;&gt;Node2</title>
<path fill="none" stroke="#191970" d="M127.0133,-190.5C135.4652,-190.5 144.2005,-190.5 152.8394,-190.5"/>
<polygon fill="#191970" stroke="#191970" points="152.9137,-194.0001 162.9137,-190.5 152.9137,-187.0001 152.9137,-194.0001"/>
</g>
<!-- Node3 -->
<g id="node3" class="node">
<title>Node3</title>
<g id="a_node3"><a xlink:href="../../d5/d41/classKFParticleBase.html#a907713f54a19f44caf8873a99dc51e48" target="_top" xlink:title="KFParticleBase::operator+=">
<polygon fill="none" stroke="#000000" points="331,-180.5 331,-200.5 488,-200.5 488,-180.5 331,-180.5"/>
<text text-anchor="middle" x="409.5" y="-187.5" font-family="FreeSans" font-size="10.00" fill="#000000">KFParticleBase::operator+=</text>
</a>
</g>
</g>
<!-- Node2&#45;&gt;Node3 -->
<g id="edge2" class="edge">
<title>Node2&#45;&gt;Node3</title>
<path fill="none" stroke="#191970" d="M295.1866,-190.5C303.503,-190.5 312.1135,-190.5 320.7064,-190.5"/>
<polygon fill="#191970" stroke="#191970" points="320.767,-194.0001 330.767,-190.5 320.7669,-187.0001 320.767,-194.0001"/>
</g>
<!-- Node4 -->
<g id="node4" class="node">
<title>Node4</title>
<g id="a_node4"><a xlink:href="../../d5/d41/classKFParticleBase.html#a24a5ddb6e508939d630fdbeffb5cae30" target="_top" xlink:title="KFParticleBase::AddDaughter">
<polygon fill="none" stroke="#000000" points="524,-180.5 524,-200.5 689,-200.5 689,-180.5 524,-180.5"/>
<text text-anchor="middle" x="606.5" y="-187.5" font-family="FreeSans" font-size="10.00" fill="#000000">KFParticleBase::AddDaughter</text>
</a>
</g>
</g>
<!-- Node3&#45;&gt;Node4 -->
<g id="edge3" class="edge">
<title>Node3&#45;&gt;Node4</title>
<path fill="none" stroke="#191970" d="M488.2089,-190.5C496.5139,-190.5 505.0147,-190.5 513.4618,-190.5"/>
<polygon fill="#191970" stroke="#191970" points="513.722,-194.0001 523.7219,-190.5 513.7219,-187.0001 513.722,-194.0001"/>
</g>
<!-- Node5 -->
<g id="node5" class="node">
<title>Node5</title>
<g id="a_node5"><a xlink:href="../../d5/d41/classKFParticleBase.html#afe25065680801ce33287e480ca0534e4" target="_top" xlink:title="KFParticleBase::AddDaughter\lWithEnergyFit">
<polygon fill="none" stroke="#000000" points="725,-174.5 725,-206.5 890,-206.5 890,-174.5 725,-174.5"/>
<text text-anchor="start" x="733" y="-193.5" font-family="FreeSans" font-size="10.00" fill="#000000">KFParticleBase::AddDaughter</text>
<text text-anchor="middle" x="807.5" y="-181.5" font-family="FreeSans" font-size="10.00" fill="#000000">WithEnergyFit</text>
</a>
</g>
</g>
<!-- Node4&#45;&gt;Node5 -->
<g id="edge4" class="edge">
<title>Node4&#45;&gt;Node5</title>
<path fill="none" stroke="#191970" d="M689.1245,-190.5C697.6075,-190.5 706.266,-190.5 714.8477,-190.5"/>
<polygon fill="#191970" stroke="#191970" points="714.8715,-194.0001 724.8715,-190.5 714.8715,-187.0001 714.8715,-194.0001"/>
</g>
<!-- Node12 -->
<g id="node12" class="node">
<title>Node12</title>
<g id="a_node12"><a xlink:href="../../d5/d41/classKFParticleBase.html#a97b4d2ef119c13e0117b0367473cb153" target="_top" xlink:title="Returns charge of the particle.">
<polygon fill="none" stroke="#000000" points="960.5,-213.5 960.5,-233.5 1083.5,-233.5 1083.5,-213.5 960.5,-213.5"/>
<text text-anchor="middle" x="1022" y="-220.5" font-family="FreeSans" font-size="10.00" fill="#000000">KFParticleBase::GetQ</text>
</a>
</g>
</g>
<!-- Node4&#45;&gt;Node12 -->
<g id="edge22" class="edge">
<title>Node4&#45;&gt;Node12</title>
<path fill="none" stroke="#191970" d="M643.545,-200.5526C666.7541,-206.3691 697.397,-213.1779 725,-216.5 801.4829,-225.7049 889.8179,-226.5516 950.1407,-225.6598"/>
<polygon fill="#191970" stroke="#191970" points="950.3812,-229.1563 960.321,-225.4888 950.2636,-222.1573 950.3812,-229.1563"/>
</g>
<!-- Node14 -->
<g id="node14" class="node">
<title>Node14</title>
<g id="a_node14"><a xlink:href="../../d5/d41/classKFParticleBase.html#a143d70c6bd591a3294c4c0f89c8edcda" target="_top" xlink:title="KFParticleBase::AddDaughter\lWithEnergyFitMC">
<polygon fill="none" stroke="#000000" points="725,-123.5 725,-155.5 890,-155.5 890,-123.5 725,-123.5"/>
<text text-anchor="start" x="733" y="-142.5" font-family="FreeSans" font-size="10.00" fill="#000000">KFParticleBase::AddDaughter</text>
<text text-anchor="middle" x="807.5" y="-130.5" font-family="FreeSans" font-size="10.00" fill="#000000">WithEnergyFitMC</text>
</a>
</g>
</g>
<!-- Node4&#45;&gt;Node14 -->
<g id="edge14" class="edge">
<title>Node4&#45;&gt;Node14</title>
<path fill="none" stroke="#191970" d="M646.2111,-180.424C671.2918,-174.0603 704.4632,-165.6437 734.1991,-158.0987"/>
<polygon fill="#191970" stroke="#191970" points="735.3031,-161.4296 744.1351,-155.5777 733.5815,-154.6446 735.3031,-161.4296"/>
</g>
<!-- Node6 -->
<g id="node6" class="node">
<title>Node6</title>
<g id="a_node6"><a xlink:href="../../d5/d41/classKFParticleBase.html#a4589ae9c9872e56468d6c5dc17adcfff" target="_top" xlink:title="KFParticleBase::GetMeasurement">
<polygon fill="none" stroke="#000000" points="929.5,-135.5 929.5,-155.5 1114.5,-155.5 1114.5,-135.5 929.5,-135.5"/>
<text text-anchor="middle" x="1022" y="-142.5" font-family="FreeSans" font-size="10.00" fill="#000000">KFParticleBase::GetMeasurement</text>
</a>
</g>
</g>
<!-- Node5&#45;&gt;Node6 -->
<g id="edge5" class="edge">
<title>Node5&#45;&gt;Node6</title>
<path fill="none" stroke="#191970" d="M883.3531,-174.4675C897.525,-171.4805 912.2125,-168.3906 926,-165.5 938.2272,-162.9365 951.3328,-160.1993 963.8084,-157.5986"/>
<polygon fill="#191970" stroke="#191970" points="964.574,-161.0144 973.6498,-155.5481 963.1461,-154.1615 964.574,-161.0144"/>
</g>
<!-- Node9 -->
<g id="node9" class="node">
<title>Node9</title>
<g id="a_node9"><a xlink:href="../../d5/d41/classKFParticleBase.html#ad059627ac0eb3810051cea5fbfdedc77" target="_top" xlink:title="KFParticleBase::IJ">
<polygon fill="none" stroke="#000000" points="1366,-58.5 1366,-78.5 1469,-78.5 1469,-58.5 1366,-58.5"/>
<text text-anchor="middle" x="1417.5" y="-65.5" font-family="FreeSans" font-size="10.00" fill="#000000">KFParticleBase::IJ</text>
</a>
</g>
</g>
<!-- Node5&#45;&gt;Node9 -->
<g id="edge12" class="edge">
<title>Node5&#45;&gt;Node9</title>
<path fill="none" stroke="#191970" d="M835.811,-206.5275C919.194,-251.3866 1168.1493,-368.2728 1330,-263.5 1391.3463,-223.7879 1410.0898,-129.7693 1415.4729,-88.5043"/>
<polygon fill="#191970" stroke="#191970" points="1418.9496,-88.907 1416.6392,-78.5671 1411.9973,-88.0909 1418.9496,-88.907"/>
</g>
<!-- Node5&#45;&gt;Node12 -->
<g id="edge11" class="edge">
<title>Node5&#45;&gt;Node12</title>
<path fill="none" stroke="#191970" d="M890.1245,-203.2115C910.0235,-206.2728 931.1181,-209.5182 950.4629,-212.4943"/>
<polygon fill="#191970" stroke="#191970" points="949.9879,-215.9623 960.4038,-214.0237 951.0524,-209.0437 949.9879,-215.9623"/>
</g>
<!-- Node13 -->
<g id="node13" class="node">
<title>Node13</title>
<g id="a_node13"><a xlink:href="../../d5/d41/classKFParticleBase.html#aa0ed9e611a76fd44e0eaac9d6f504929" target="_top" xlink:title="KFParticleBase::InvertCholetsky3">
<polygon fill="none" stroke="#000000" points="931,-174.5 931,-194.5 1113,-194.5 1113,-174.5 931,-174.5"/>
<text text-anchor="middle" x="1022" y="-181.5" font-family="FreeSans" font-size="10.00" fill="#000000">KFParticleBase::InvertCholetsky3</text>
</a>
</g>
</g>
<!-- Node5&#45;&gt;Node13 -->
<g id="edge13" class="edge">
<title>Node5&#45;&gt;Node13</title>
<path fill="none" stroke="#191970" d="M890.1245,-188.1888C900.1266,-187.909 910.4307,-187.6208 920.6628,-187.3346"/>
<polygon fill="#191970" stroke="#191970" points="920.9589,-190.8278 930.8571,-187.0495 920.7632,-183.8305 920.9589,-190.8278"/>
</g>
<!-- Node7 -->
<g id="node7" class="node">
<title>Node7</title>
<g id="a_node7"><a xlink:href="../../d5/d41/classKFParticleBase.html#ada459a0ed2508dbc79ff582a3a32c574" target="_top" xlink:title="KFParticleBase::GetDStoParticle">
<polygon fill="none" stroke="#000000" points="1154,-155.5 1154,-175.5 1330,-175.5 1330,-155.5 1154,-155.5"/>
<text text-anchor="middle" x="1242" y="-162.5" font-family="FreeSans" font-size="10.00" fill="#000000">KFParticleBase::GetDStoParticle</text>
</a>
</g>
</g>
<!-- Node6&#45;&gt;Node7 -->
<g id="edge6" class="edge">
<title>Node6&#45;&gt;Node7</title>
<path fill="none" stroke="#191970" d="M1114.6622,-153.9238C1124.2493,-154.7954 1134.0166,-155.6833 1143.663,-156.5603"/>
<polygon fill="#191970" stroke="#191970" points="1143.3832,-160.0492 1153.6591,-157.469 1144.017,-153.0779 1143.3832,-160.0492"/>
</g>
<!-- Node8 -->
<g id="node8" class="node">
<title>Node8</title>
<g id="a_node8"><a xlink:href="../../d5/d41/classKFParticleBase.html#ae4235191e7d6baaa1054507e3cb92dc9" target="_top" xlink:title="KFParticleBase::GetDStoPoint">
<polygon fill="none" stroke="#000000" points="1159.5,-116.5 1159.5,-136.5 1324.5,-136.5 1324.5,-116.5 1159.5,-116.5"/>
<text text-anchor="middle" x="1242" y="-123.5" font-family="FreeSans" font-size="10.00" fill="#000000">KFParticleBase::GetDStoPoint</text>
</a>
</g>
</g>
<!-- Node6&#45;&gt;Node8 -->
<g id="edge7" class="edge">
<title>Node6&#45;&gt;Node8</title>
<path fill="none" stroke="#191970" d="M1114.6622,-137.4974C1126.1062,-136.509 1137.807,-135.4985 1149.2522,-134.51"/>
<polygon fill="#191970" stroke="#191970" points="1149.5698,-137.9957 1159.2315,-133.6482 1148.9674,-131.0217 1149.5698,-137.9957"/>
</g>
<!-- Node6&#45;&gt;Node9 -->
<g id="edge8" class="edge">
<title>Node6&#45;&gt;Node9</title>
<path fill="none" stroke="#191970" d="M1052.642,-135.4187C1079.2075,-126.9831 1118.809,-115.134 1154,-107.5 1222.3564,-92.6714 1301.921,-81.7511 1355.5879,-75.2971"/>
<polygon fill="#191970" stroke="#191970" points="1356.1138,-78.7594 1365.6316,-74.1051 1355.2888,-71.8082 1356.1138,-78.7594"/>
</g>
<!-- Node10 -->
<g id="node10" class="node">
<title>Node10</title>
<g id="a_node10"><a xlink:href="../../d5/d41/classKFParticleBase.html#a724258bdfad283642d00e119a74f6335" target="_top" xlink:title="KFParticleBase::MultQSQt">
<polygon fill="none" stroke="#000000" points="1169,-233.5 1169,-253.5 1315,-253.5 1315,-233.5 1169,-233.5"/>
<text text-anchor="middle" x="1242" y="-240.5" font-family="FreeSans" font-size="10.00" fill="#000000">KFParticleBase::MultQSQt</text>
</a>
</g>
</g>
<!-- Node6&#45;&gt;Node10 -->
<g id="edge9" class="edge">
<title>Node6&#45;&gt;Node10</title>
<path fill="none" stroke="#191970" d="M1099.3308,-155.6138C1105.9558,-158.2306 1112.2955,-161.4776 1118,-165.5 1143.1046,-183.2021 1128.9598,-206.707 1154,-224.5 1156.3889,-226.1975 1158.8999,-227.7483 1161.5024,-229.1647"/>
<polygon fill="#191970" stroke="#191970" points="1160.1206,-232.3827 1170.6584,-233.4809 1163.1055,-226.0509 1160.1206,-232.3827"/>
</g>
<!-- Node11 -->
<g id="node11" class="node">
<title>Node11</title>
<g id="a_node11"><a xlink:href="../../d5/d41/classKFParticleBase.html#a4c022cf8371927f3bfdca7f7901db99a" target="_top" xlink:title="KFParticleBase::Transport">
<polygon fill="none" stroke="#000000" points="1169.5,-194.5 1169.5,-214.5 1314.5,-214.5 1314.5,-194.5 1169.5,-194.5"/>
<text text-anchor="middle" x="1242" y="-201.5" font-family="FreeSans" font-size="10.00" fill="#000000">KFParticleBase::Transport</text>
</a>
</g>
</g>
<!-- Node6&#45;&gt;Node11 -->
<g id="edge10" class="edge">
<title>Node6&#45;&gt;Node11</title>
<path fill="none" stroke="#191970" d="M1083.9792,-155.5431C1095.4653,-158.2075 1107.23,-161.4922 1118,-165.5 1135.1541,-171.8835 1136.8691,-179.0544 1154,-185.5 1160.2903,-187.8668 1166.9502,-189.9745 1173.6782,-191.8435"/>
<polygon fill="#191970" stroke="#191970" points="1172.9896,-195.2808 1183.5489,-194.4132 1174.7533,-188.5066 1172.9896,-195.2808"/>
</g>
<!-- Node14&#45;&gt;Node6 -->
<g id="edge15" class="edge">
<title>Node14&#45;&gt;Node6</title>
<path fill="none" stroke="#191970" d="M890.1245,-141.8112C899.672,-142.0782 909.4947,-142.353 919.2674,-142.6264"/>
<polygon fill="#191970" stroke="#191970" points="919.3258,-146.1293 929.4197,-142.9103 919.5216,-139.132 919.3258,-146.1293"/>
</g>
<!-- Node14&#45;&gt;Node9 -->
<g id="edge17" class="edge">
<title>Node14&#45;&gt;Node9</title>
<path fill="none" stroke="#191970" d="M876.3946,-123.4892C945.988,-108.0946 1056.809,-85.7037 1154,-75.5 1222.8386,-68.2729 1302.3156,-67.1422 1355.8301,-67.4269"/>
<polygon fill="#191970" stroke="#191970" points="1355.8189,-70.9268 1365.8437,-67.4983 1355.8689,-63.927 1355.8189,-70.9268"/>
</g>
<!-- Node14&#45;&gt;Node12 -->
<g id="edge16" class="edge">
<title>Node14&#45;&gt;Node12</title>
<path fill="none" stroke="#191970" d="M870.7614,-155.6322C877.4877,-158.4499 884.04,-161.7189 890,-165.5 909.9188,-178.1367 905.4172,-192.9764 926,-204.5 933.5936,-208.7514 941.9918,-212.0621 950.5687,-214.6385"/>
<polygon fill="#191970" stroke="#191970" points="949.7294,-218.037 960.2947,-217.2462 951.5423,-211.2758 949.7294,-218.037"/>
</g>
<!-- Node14&#45;&gt;Node13 -->
<g id="edge18" class="edge">
<title>Node14&#45;&gt;Node13</title>
<path fill="none" stroke="#191970" d="M879.5144,-155.5491C894.8455,-158.8962 910.9486,-162.3597 926,-165.5 937.0628,-167.8081 948.8577,-170.1995 960.2574,-172.4751"/>
<polygon fill="#191970" stroke="#191970" points="959.6549,-175.9237 970.1453,-174.44 961.0193,-169.058 959.6549,-175.9237"/>
</g>
<!-- Node15 -->
<g id="node15" class="node">
<title>Node15</title>
<g id="a_node15"><a xlink:href="../../d5/d41/classKFParticleBase.html#ab6aedf51539e2164935c6469e6b0d374" target="_top" xlink:title="KFParticleBase::SetMassConstraint">
<polygon fill="none" stroke="#000000" points="926,-.5 926,-20.5 1118,-20.5 1118,-.5 926,-.5"/>
<text text-anchor="middle" x="1022" y="-7.5" font-family="FreeSans" font-size="10.00" fill="#000000">KFParticleBase::SetMassConstraint</text>
</a>
</g>
</g>
<!-- Node14&#45;&gt;Node15 -->
<g id="edge19" class="edge">
<title>Node14&#45;&gt;Node15</title>
<path fill="none" stroke="#191970" d="M821.4641,-123.1631C842.0242,-100.1538 882.7121,-58.4526 926,-35.5 935.2246,-30.6088 945.4641,-26.6322 955.7203,-23.4113"/>
<polygon fill="#191970" stroke="#191970" points="956.9072,-26.711 965.5262,-20.5496 954.946,-19.9913 956.9072,-26.711"/>
</g>
<!-- Node16 -->
<g id="node16" class="node">
<title>Node16</title>
<g id="a_node16"><a xlink:href="../../d5/d41/classKFParticleBase.html#aeab9a3989e50d30810c3affb483254c7" target="_top" xlink:title="KFParticleBase::Cij">
<polygon fill="none" stroke="#000000" points="1187,-.5 1187,-20.5 1297,-20.5 1297,-.5 1187,-.5"/>
<text text-anchor="middle" x="1242" y="-7.5" font-family="FreeSans" font-size="10.00" fill="#000000">KFParticleBase::Cij</text>
</a>
</g>
</g>
<!-- Node15&#45;&gt;Node16 -->
<g id="edge20" class="edge">
<title>Node15&#45;&gt;Node16</title>
<path fill="none" stroke="#191970" d="M1118.1752,-10.5C1137.8874,-10.5 1158.2015,-10.5 1176.5309,-10.5"/>
<polygon fill="#191970" stroke="#191970" points="1176.7826,-14.0001 1186.7825,-10.5 1176.7825,-7.0001 1176.7826,-14.0001"/>
</g>
<!-- Node16&#45;&gt;Node9 -->
<g id="edge21" class="edge">
<title>Node16&#45;&gt;Node9</title>
<path fill="none" stroke="#191970" d="M1279.8958,-20.5165C1295.5037,-24.8358 1313.711,-30.1251 1330,-35.5 1347.6196,-41.314 1366.9453,-48.5135 1382.9425,-54.7028"/>
<polygon fill="#191970" stroke="#191970" points="1381.8398,-58.0295 1392.4279,-58.4046 1384.3847,-51.5084 1381.8398,-58.0295"/>
</g>
</g>
</svg>
