<?xml version="1.0" encoding="UTF-8" standalone="no"?>
<!DOCTYPE svg PUBLIC "-//W3C//DTD SVG 1.1//EN"
 "http://www.w3.org/Graphics/SVG/1.1/DTD/svg11.dtd">
<!-- Generated by graphviz version 2.40.1 (20161225.0304)
 -->
<!-- Title: MvtxClusterizer::ClusterMvtx Pages: 1 -->
<svg width="888pt" height="1029pt"
 viewBox="0.00 0.00 888.00 1029.00" xmlns="http://www.w3.org/2000/svg" xmlns:xlink="http://www.w3.org/1999/xlink">
<g id="graph0" class="graph" transform="scale(1 1) rotate(0) translate(4 1025)">
<title>MvtxClusterizer::ClusterMvtx</title>
<!-- Node1 -->
<g id="node1" class="node">
<title>Node1</title>
<polygon fill="#bfbfbf" stroke="#000000" points="0,-470.5 0,-490.5 162,-490.5 162,-470.5 0,-470.5"/>
<text text-anchor="middle" x="81" y="-477.5" font-family="FreeSans" font-size="10.00" fill="#000000">MvtxClusterizer::ClusterMvtx</text>
</g>
<!-- Node2 -->
<g id="node2" class="node">
<title>Node2</title>
<g id="a_node2"><a xlink:href="../../d7/d4f/classTrkrClusterHitAssoc.html#a83dbba7ea52c548f0174fe7a40982fc9" target="_top" xlink:title="Add association between cluster and hit.">
<polygon fill="none" stroke="#000000" points="223.5,-988.5 223.5,-1020.5 338.5,-1020.5 338.5,-988.5 223.5,-988.5"/>
<text text-anchor="start" x="231.5" y="-1007.5" font-family="FreeSans" font-size="10.00" fill="#000000">TrkrClusterHitAssoc</text>
<text text-anchor="middle" x="281" y="-995.5" font-family="FreeSans" font-size="10.00" fill="#000000">::addAssoc</text>
</a>
</g>
</g>
<!-- Node1&#45;&gt;Node2 -->
<g id="edge1" class="edge">
<title>Node1&#45;&gt;Node2</title>
<path fill="none" stroke="#191970" d="M82.1116,-490.6694C89.2475,-554.2604 130.4713,-896.9983 198,-973.5 202.5823,-978.6912 208.1195,-983.0152 214.134,-986.6166"/>
<polygon fill="#191970" stroke="#191970" points="212.751,-989.8435 223.232,-991.3928 216.0048,-983.6457 212.751,-989.8435"/>
</g>
<!-- Node3 -->
<g id="node3" class="node">
<title>Node3</title>
<g id="a_node3"><a xlink:href="../../dc/d12/classMvtxClusterizer.html#ac82d44e07a520b09cdff0225f3604827" target="_top" xlink:title="MvtxClusterizer::are\l_adjacent">
<polygon fill="none" stroke="#000000" points="222.5,-898.5 222.5,-930.5 339.5,-930.5 339.5,-898.5 222.5,-898.5"/>
<text text-anchor="start" x="230.5" y="-917.5" font-family="FreeSans" font-size="10.00" fill="#000000">MvtxClusterizer::are</text>
<text text-anchor="middle" x="281" y="-905.5" font-family="FreeSans" font-size="10.00" fill="#000000">_adjacent</text>
</a>
</g>
</g>
<!-- Node1&#45;&gt;Node3 -->
<g id="edge2" class="edge">
<title>Node1&#45;&gt;Node3</title>
<path fill="none" stroke="#191970" d="M82.6737,-490.5909C92.1972,-546.9271 141.1403,-822.214 198,-883.5 202.394,-888.236 207.5803,-892.2525 213.1806,-895.658"/>
<polygon fill="#191970" stroke="#191970" points="211.7994,-898.8885 222.2676,-900.5221 215.103,-892.717 211.7994,-898.8885"/>
</g>
<!-- Node4 -->
<g id="node4" class="node">
<title>Node4</title>
<g id="a_node4"><a xlink:href="../../d8/df1/namespaceMvtxDefs.html#a1168eb31a2fe1f73988744e3bdedd24f" target="_top" xlink:title="Get the column index from hitkey.">
<polygon fill="none" stroke="#000000" points="420.5,-926.5 420.5,-946.5 522.5,-946.5 522.5,-926.5 420.5,-926.5"/>
<text text-anchor="middle" x="471.5" y="-933.5" font-family="FreeSans" font-size="10.00" fill="#000000">MvtxDefs::getCol</text>
</a>
</g>
</g>
<!-- Node1&#45;&gt;Node4 -->
<g id="edge20" class="edge">
<title>Node1&#45;&gt;Node4</title>
<path fill="none" stroke="#191970" d="M81.9407,-490.7244C87.9099,-553.1277 122.6992,-881.9543 198,-940.5 267.1411,-994.2566 378.608,-968.4829 435.532,-949.8691"/>
<polygon fill="#191970" stroke="#191970" points="436.8202,-953.1283 445.1746,-946.6125 434.5804,-946.4963 436.8202,-953.1283"/>
</g>
<!-- Node5 -->
<g id="node5" class="node">
<title>Node5</title>
<g id="a_node5"><a xlink:href="../../d8/df1/namespaceMvtxDefs.html#a8c10f1bd18a4e4eb490f2809ed6ad9aa" target="_top" xlink:title="Get the row index from hitkey.">
<polygon fill="none" stroke="#000000" points="417.5,-873.5 417.5,-893.5 525.5,-893.5 525.5,-873.5 417.5,-873.5"/>
<text text-anchor="middle" x="471.5" y="-880.5" font-family="FreeSans" font-size="10.00" fill="#000000">MvtxDefs::getRow</text>
</a>
</g>
</g>
<!-- Node1&#45;&gt;Node5 -->
<g id="edge30" class="edge">
<title>Node1&#45;&gt;Node5</title>
<path fill="none" stroke="#191970" d="M82.8397,-490.7646C92.6798,-544.5048 140.7919,-792.8354 198,-841.5 228.6908,-867.6074 336.5962,-877.5339 407.3447,-881.2753"/>
<polygon fill="#191970" stroke="#191970" points="407.3373,-884.7792 417.4998,-881.7836 407.6873,-877.788 407.3373,-884.7792"/>
</g>
<!-- Node6 -->
<g id="node6" class="node">
<title>Node6</title>
<g id="a_node6"><a xlink:href="../../df/d9b/classCylinderGeom__Mvtx.html#ac3180ef9061113ec41e851ff5f97f3f1" target="_top" xlink:title="CylinderGeom_Mvtx::\lfind_sensor_center">
<polygon fill="none" stroke="#000000" points="219,-770.5 219,-802.5 343,-802.5 343,-770.5 219,-770.5"/>
<text text-anchor="start" x="227" y="-789.5" font-family="FreeSans" font-size="10.00" fill="#000000">CylinderGeom_Mvtx::</text>
<text text-anchor="middle" x="281" y="-777.5" font-family="FreeSans" font-size="10.00" fill="#000000">find_sensor_center</text>
</a>
</g>
</g>
<!-- Node1&#45;&gt;Node6 -->
<g id="edge5" class="edge">
<title>Node1&#45;&gt;Node6</title>
<path fill="none" stroke="#191970" d="M82.1364,-490.7073C87.213,-531.373 111.5141,-683.4127 198,-761.5 201.5814,-764.7336 205.5676,-767.5493 209.801,-770.0012"/>
<polygon fill="#191970" stroke="#191970" points="208.2836,-773.1558 218.7876,-774.5402 211.4395,-766.9076 208.2836,-773.1558"/>
</g>
<!-- Node7 -->
<g id="node7" class="node">
<title>Node7</title>
<g id="a_node7"><a xlink:href="../../df/d9b/classCylinderGeom__Mvtx.html#aede358e384b225e6555bed9292f0310c" target="_top" xlink:title="CylinderGeom_Mvtx::\lget_world_from_local\l_coords">
<polygon fill="none" stroke="#000000" points="409.5,-786.5 409.5,-830.5 533.5,-830.5 533.5,-786.5 409.5,-786.5"/>
<text text-anchor="start" x="417.5" y="-817.5" font-family="FreeSans" font-size="10.00" fill="#000000">CylinderGeom_Mvtx::</text>
<text text-anchor="start" x="417.5" y="-805.5" font-family="FreeSans" font-size="10.00" fill="#000000">get_world_from_local</text>
<text text-anchor="middle" x="471.5" y="-793.5" font-family="FreeSans" font-size="10.00" fill="#000000">_coords</text>
</a>
</g>
</g>
<!-- Node1&#45;&gt;Node7 -->
<g id="edge18" class="edge">
<title>Node1&#45;&gt;Node7</title>
<path fill="none" stroke="#191970" d="M82.9845,-490.7732C93.1796,-542.3786 141.3852,-772.4241 198,-812.5 256.0743,-853.6091 339.8576,-845.2272 399.3623,-831.2045"/>
<polygon fill="#191970" stroke="#191970" points="400.5637,-834.5133 409.4361,-828.7227 398.8892,-827.7165 400.5637,-834.5133"/>
</g>
<!-- Node9 -->
<g id="node9" class="node">
<title>Node9</title>
<g id="a_node9"><a xlink:href="../../d0/d2c/classTrkrClusterContainer.html#a3b187904e3c80ff23b4d65bd477aa40a" target="_top" xlink:title="TrkrClusterContainer\l::findOrAddCluster">
<polygon fill="none" stroke="#000000" points="220,-719.5 220,-751.5 342,-751.5 342,-719.5 220,-719.5"/>
<text text-anchor="start" x="228" y="-738.5" font-family="FreeSans" font-size="10.00" fill="#000000">TrkrClusterContainer</text>
<text text-anchor="middle" x="281" y="-726.5" font-family="FreeSans" font-size="10.00" fill="#000000">::findOrAddCluster</text>
</a>
</g>
</g>
<!-- Node1&#45;&gt;Node9 -->
<g id="edge8" class="edge">
<title>Node1&#45;&gt;Node9</title>
<path fill="none" stroke="#191970" d="M83.1261,-490.5457C91.2092,-526.24 123.4193,-648.1405 198,-710.5 201.7702,-713.6524 205.9292,-716.4074 210.3163,-718.815"/>
<polygon fill="#191970" stroke="#191970" points="209.0627,-722.0961 219.5906,-723.2851 212.1021,-715.7903 209.0627,-722.0961"/>
</g>
<!-- Node10 -->
<g id="node10" class="node">
<title>Node10</title>
<g id="a_node10"><a xlink:href="../../d8/df1/namespaceMvtxDefs.html#a9205343fdba72e5ac8b44946102af8ae" target="_top" xlink:title="Generate a cluster key from indeces.">
<polygon fill="none" stroke="#000000" points="407,-421.5 407,-441.5 536,-441.5 536,-421.5 407,-421.5"/>
<text text-anchor="middle" x="471.5" y="-428.5" font-family="FreeSans" font-size="10.00" fill="#000000">MvtxDefs::genClusKey</text>
</a>
</g>
</g>
<!-- Node1&#45;&gt;Node10 -->
<g id="edge9" class="edge">
<title>Node1&#45;&gt;Node10</title>
<path fill="none" stroke="#191970" d="M84.857,-470.4055C96.5692,-441.3906 134.8348,-357.838 198,-326.5 264.0909,-293.7105 295.6733,-298.6679 364,-326.5 407.0369,-344.0306 442.2285,-388.0002 459.6565,-413.1289"/>
<polygon fill="#191970" stroke="#191970" points="456.7691,-415.1074 465.2553,-421.4506 462.577,-411.1998 456.7691,-415.1074"/>
</g>
<!-- Node13 -->
<g id="node13" class="node">
<title>Node13</title>
<g id="a_node13"><a xlink:href="../../df/d9b/classCylinderGeom__Mvtx.html#a57c4360f58914dd88fabd4b3001e49b8" target="_top" xlink:title="CylinderGeom_Mvtx::\lget_local_coords_from_pixel">
<polygon fill="none" stroke="#000000" points="202,-668.5 202,-700.5 360,-700.5 360,-668.5 202,-668.5"/>
<text text-anchor="start" x="210" y="-687.5" font-family="FreeSans" font-size="10.00" fill="#000000">CylinderGeom_Mvtx::</text>
<text text-anchor="middle" x="281" y="-675.5" font-family="FreeSans" font-size="10.00" fill="#000000">get_local_coords_from_pixel</text>
</a>
</g>
</g>
<!-- Node1&#45;&gt;Node13 -->
<g id="edge12" class="edge">
<title>Node1&#45;&gt;Node13</title>
<path fill="none" stroke="#191970" d="M84.7598,-490.7989C96.4645,-521.4031 135.271,-612.579 198,-659.5 199.8604,-660.8915 201.7982,-662.2062 203.7973,-663.4481"/>
<polygon fill="#191970" stroke="#191970" points="202.4543,-666.7032 212.9057,-668.4407 205.819,-660.5649 202.4543,-666.7032"/>
</g>
<!-- Node15 -->
<g id="node15" class="node">
<title>Node15</title>
<g id="a_node15"><a xlink:href="../../df/d9b/classCylinderGeom__Mvtx.html#a9c09eb746257ea37328bafbd66e69a3e" target="_top" xlink:title="CylinderGeom_Mvtx::\lget_pixel_thickness">
<polygon fill="none" stroke="#000000" points="219,-566.5 219,-598.5 343,-598.5 343,-566.5 219,-566.5"/>
<text text-anchor="start" x="227" y="-585.5" font-family="FreeSans" font-size="10.00" fill="#000000">CylinderGeom_Mvtx::</text>
<text text-anchor="middle" x="281" y="-573.5" font-family="FreeSans" font-size="10.00" fill="#000000">get_pixel_thickness</text>
</a>
</g>
</g>
<!-- Node1&#45;&gt;Node15 -->
<g id="edge14" class="edge">
<title>Node1&#45;&gt;Node15</title>
<path fill="none" stroke="#191970" d="M93.6028,-490.5867C114.294,-506.7203 157.2476,-538.4482 198,-557.5 202.0984,-559.416 206.3788,-561.2268 210.742,-562.9306"/>
<polygon fill="#191970" stroke="#191970" points="209.7941,-566.3114 220.3875,-566.489 212.217,-559.7441 209.7941,-566.3114"/>
</g>
<!-- Node16 -->
<g id="node16" class="node">
<title>Node16</title>
<g id="a_node16"><a xlink:href="../../df/d9b/classCylinderGeom__Mvtx.html#a1c597212fb9dfe8c8a84398a6a93de62" target="_top" xlink:title="CylinderGeom_Mvtx::\lget_pixel_x">
<polygon fill="none" stroke="#000000" points="219,-515.5 219,-547.5 343,-547.5 343,-515.5 219,-515.5"/>
<text text-anchor="start" x="227" y="-534.5" font-family="FreeSans" font-size="10.00" fill="#000000">CylinderGeom_Mvtx::</text>
<text text-anchor="middle" x="281" y="-522.5" font-family="FreeSans" font-size="10.00" fill="#000000">get_pixel_x</text>
</a>
</g>
</g>
<!-- Node1&#45;&gt;Node16 -->
<g id="edge15" class="edge">
<title>Node1&#45;&gt;Node16</title>
<path fill="none" stroke="#191970" d="M120.5136,-490.576C145.674,-496.9919 179.0174,-505.4944 208.7907,-513.0866"/>
<polygon fill="#191970" stroke="#191970" points="208.1791,-516.5426 218.7339,-515.6221 209.9088,-509.7597 208.1791,-516.5426"/>
</g>
<!-- Node17 -->
<g id="node17" class="node">
<title>Node17</title>
<g id="a_node17"><a xlink:href="../../df/d9b/classCylinderGeom__Mvtx.html#a6741718d8418e52e578021aa114dc60e" target="_top" xlink:title="CylinderGeom_Mvtx::\lget_pixel_z">
<polygon fill="none" stroke="#000000" points="219,-464.5 219,-496.5 343,-496.5 343,-464.5 219,-464.5"/>
<text text-anchor="start" x="227" y="-483.5" font-family="FreeSans" font-size="10.00" fill="#000000">CylinderGeom_Mvtx::</text>
<text text-anchor="middle" x="281" y="-471.5" font-family="FreeSans" font-size="10.00" fill="#000000">get_pixel_z</text>
</a>
</g>
</g>
<!-- Node1&#45;&gt;Node17 -->
<g id="edge16" class="edge">
<title>Node1&#45;&gt;Node17</title>
<path fill="none" stroke="#191970" d="M162.0593,-480.5C177.4554,-480.5 193.4733,-480.5 208.5801,-480.5"/>
<polygon fill="#191970" stroke="#191970" points="208.8744,-484.0001 218.8744,-480.5 208.8743,-477.0001 208.8744,-484.0001"/>
</g>
<!-- Node18 -->
<g id="node18" class="node">
<title>Node18</title>
<g id="a_node18"><a xlink:href="../../df/d9b/classCylinderGeom__Mvtx.html#aa1c7c0b68aa74bd674206214ffabfe6d" target="_top" xlink:title="CylinderGeom_Mvtx::\lget_stave_phi_tilt">
<polygon fill="none" stroke="#000000" points="219,-413.5 219,-445.5 343,-445.5 343,-413.5 219,-413.5"/>
<text text-anchor="start" x="227" y="-432.5" font-family="FreeSans" font-size="10.00" fill="#000000">CylinderGeom_Mvtx::</text>
<text text-anchor="middle" x="281" y="-420.5" font-family="FreeSans" font-size="10.00" fill="#000000">get_stave_phi_tilt</text>
</a>
</g>
</g>
<!-- Node1&#45;&gt;Node18 -->
<g id="edge17" class="edge">
<title>Node1&#45;&gt;Node18</title>
<path fill="none" stroke="#191970" d="M120.5136,-470.424C145.674,-464.0081 179.0174,-455.5056 208.7907,-447.9134"/>
<polygon fill="#191970" stroke="#191970" points="209.9088,-451.2403 218.7339,-445.3779 208.1791,-444.4574 209.9088,-451.2403"/>
</g>
<!-- Node19 -->
<g id="node19" class="node">
<title>Node19</title>
<g id="a_node19"><a xlink:href="../../d8/df1/namespaceMvtxDefs.html#abfd7b6c5fe579370c360924854579283" target="_top" xlink:title="Get the chip id from hitsetkey.">
<polygon fill="none" stroke="#000000" points="222,-374.5 222,-394.5 340,-394.5 340,-374.5 222,-374.5"/>
<text text-anchor="middle" x="281" y="-381.5" font-family="FreeSans" font-size="10.00" fill="#000000">MvtxDefs::getChipId</text>
</a>
</g>
</g>
<!-- Node1&#45;&gt;Node19 -->
<g id="edge19" class="edge">
<title>Node1&#45;&gt;Node19</title>
<path fill="none" stroke="#191970" d="M93.5081,-470.2913C114.0664,-454.0121 156.8373,-422.2081 198,-404.5 204.2207,-401.8239 210.8645,-399.4659 217.5825,-397.3979"/>
<polygon fill="#191970" stroke="#191970" points="218.7894,-400.6929 227.4373,-394.572 216.8599,-393.9641 218.7894,-400.6929"/>
</g>
<!-- Node20 -->
<g id="node20" class="node">
<title>Node20</title>
<g id="a_node20"><a xlink:href="../../d9/dc1/classTrkrHitSet.html#ad9589ea531ae7511ad7547be467b48aa" target="_top" xlink:title="Get all hits.">
<polygon fill="none" stroke="#000000" points="226,-335.5 226,-355.5 336,-355.5 336,-335.5 226,-335.5"/>
<text text-anchor="middle" x="281" y="-342.5" font-family="FreeSans" font-size="10.00" fill="#000000">TrkrHitSet::getHits</text>
</a>
</g>
</g>
<!-- Node1&#45;&gt;Node20 -->
<g id="edge21" class="edge">
<title>Node1&#45;&gt;Node20</title>
<path fill="none" stroke="#191970" d="M88.1963,-470.3666C104.7977,-447.7829 148.1916,-393.1399 198,-365.5 203.6135,-362.3849 209.7033,-359.7515 215.9477,-357.5258"/>
<polygon fill="#191970" stroke="#191970" points="217.3875,-360.7397 225.8412,-354.3533 215.2501,-354.074 217.3875,-360.7397"/>
</g>
<!-- Node21 -->
<g id="node21" class="node">
<title>Node21</title>
<g id="a_node21"><a xlink:href="../../d9/dc1/classTrkrHitSet.html#ad407a57ad9c4624e1f8766335264af76" target="_top" xlink:title="Get the key for this object.">
<polygon fill="none" stroke="#000000" points="401.5,-258.5 401.5,-278.5 541.5,-278.5 541.5,-258.5 401.5,-258.5"/>
<text text-anchor="middle" x="471.5" y="-265.5" font-family="FreeSans" font-size="10.00" fill="#000000">TrkrHitSet::getHitSetKey</text>
</a>
</g>
</g>
<!-- Node1&#45;&gt;Node21 -->
<g id="edge22" class="edge">
<title>Node1&#45;&gt;Node21</title>
<path fill="none" stroke="#191970" d="M84.0605,-470.4497C94.2474,-438.9081 130.2603,-341.4903 198,-299.5 255.5694,-263.8141 333.2316,-258.1416 391.0891,-260.1869"/>
<polygon fill="#191970" stroke="#191970" points="391.144,-263.6926 401.2878,-260.634 391.4507,-256.6993 391.144,-263.6926"/>
</g>
<!-- Node22 -->
<g id="node22" class="node">
<title>Node22</title>
<g id="a_node22"><a xlink:href="../../d5/d76/classTrkrHitSetContainer.html#af493cd474fbf1c12133cc08883a3ad84" target="_top" xlink:title="return all HitSets matching a given detid">
<polygon fill="none" stroke="#000000" points="222.5,-617.5 222.5,-649.5 339.5,-649.5 339.5,-617.5 222.5,-617.5"/>
<text text-anchor="start" x="230.5" y="-636.5" font-family="FreeSans" font-size="10.00" fill="#000000">TrkrHitSetContainer</text>
<text text-anchor="middle" x="281" y="-624.5" font-family="FreeSans" font-size="10.00" fill="#000000">::getHitSets</text>
</a>
</g>
</g>
<!-- Node1&#45;&gt;Node22 -->
<g id="edge23" class="edge">
<title>Node1&#45;&gt;Node22</title>
<path fill="none" stroke="#191970" d="M87.3156,-490.5034C103.0086,-514.541 146.2643,-575.9623 198,-608.5 202.618,-611.4043 207.5923,-613.9874 212.7296,-616.282"/>
<polygon fill="#191970" stroke="#191970" points="211.5294,-619.5724 222.1107,-620.1078 214.1728,-613.0906 211.5294,-619.5724"/>
</g>
<!-- Node25 -->
<g id="node25" class="node">
<title>Node25</title>
<g id="a_node25"><a xlink:href="../../d6/d3f/namespaceTrkrDefs.html#ad4a7fd368bbf1d5d97ff4fd3e81a6100" target="_top" xlink:title="Get the layer number from either key type.">
<polygon fill="none" stroke="#000000" points="416,-110.5 416,-130.5 527,-130.5 527,-110.5 416,-110.5"/>
<text text-anchor="middle" x="471.5" y="-117.5" font-family="FreeSans" font-size="10.00" fill="#000000">TrkrDefs::getLayer</text>
</a>
</g>
</g>
<!-- Node1&#45;&gt;Node25 -->
<g id="edge28" class="edge">
<title>Node1&#45;&gt;Node25</title>
<path fill="none" stroke="#191970" d="M82.2642,-470.2091C89.7006,-411.533 129.775,-120.0481 198,-68.5 274.4196,-10.7604 396.4122,-73.5705 447.6317,-104.8967"/>
<polygon fill="#191970" stroke="#191970" points="446.0101,-108.0106 456.3449,-110.3435 449.7206,-102.0749 446.0101,-108.0106"/>
</g>
<!-- Node26 -->
<g id="node26" class="node">
<title>Node26</title>
<g id="a_node26"><a xlink:href="../../d4/de7/classPHG4CylinderGeomContainer.html#a08321019aaff5f57cd416b64d0f536bf" target="_top" xlink:title="PHG4CylinderGeomContainer\l::GetLayerGeom">
<polygon fill="none" stroke="#000000" points="198,-168.5 198,-200.5 364,-200.5 364,-168.5 198,-168.5"/>
<text text-anchor="start" x="206" y="-187.5" font-family="FreeSans" font-size="10.00" fill="#000000">PHG4CylinderGeomContainer</text>
<text text-anchor="middle" x="281" y="-175.5" font-family="FreeSans" font-size="10.00" fill="#000000">::GetLayerGeom</text>
</a>
</g>
</g>
<!-- Node1&#45;&gt;Node26 -->
<g id="edge29" class="edge">
<title>Node1&#45;&gt;Node26</title>
<path fill="none" stroke="#191970" d="M82.334,-470.4437C88.0952,-431.0458 114.454,-285.6785 198,-210.5 199.7328,-208.9407 201.5585,-207.475 203.4595,-206.0971"/>
<polygon fill="#191970" stroke="#191970" points="205.6103,-208.8796 212.2227,-200.6015 201.8913,-202.9493 205.6103,-208.8796"/>
</g>
<!-- Node27 -->
<g id="node27" class="node">
<title>Node27</title>
<g id="a_node27"><a xlink:href="../../d8/df1/namespaceMvtxDefs.html#a0d6fee920baed2f17bed6f7990bb88c3" target="_top" xlink:title="Get the stave id from hitsetkey.">
<polygon fill="none" stroke="#000000" points="219,-129.5 219,-149.5 343,-149.5 343,-129.5 219,-129.5"/>
<text text-anchor="middle" x="281" y="-136.5" font-family="FreeSans" font-size="10.00" fill="#000000">MvtxDefs::getStaveId</text>
</a>
</g>
</g>
<!-- Node1&#45;&gt;Node27 -->
<g id="edge31" class="edge">
<title>Node1&#45;&gt;Node27</title>
<path fill="none" stroke="#191970" d="M81.4127,-470.2649C83.7823,-425.7888 99.333,-247.5975 198,-159.5 201.4516,-156.4181 205.2958,-153.7905 209.3853,-151.5521"/>
<polygon fill="#191970" stroke="#191970" points="211.0712,-154.6284 218.673,-147.2485 208.1282,-148.2771 211.0712,-154.6284"/>
</g>
<!-- Node28 -->
<g id="node28" class="node">
<title>Node28</title>
<g id="a_node28"><a xlink:href="../../d7/d4f/classTrkrClusterHitAssoc.html#a4a9cd3e07997e034399c2b756d6251c2" target="_top" xlink:title="TrkrClusterHitAssoc\l::identify">
<polygon fill="none" stroke="#000000" points="223.5,-78.5 223.5,-110.5 338.5,-110.5 338.5,-78.5 223.5,-78.5"/>
<text text-anchor="start" x="231.5" y="-97.5" font-family="FreeSans" font-size="10.00" fill="#000000">TrkrClusterHitAssoc</text>
<text text-anchor="middle" x="281" y="-85.5" font-family="FreeSans" font-size="10.00" fill="#000000">::identify</text>
</a>
</g>
</g>
<!-- Node1&#45;&gt;Node28 -->
<g id="edge32" class="edge">
<title>Node1&#45;&gt;Node28</title>
<path fill="none" stroke="#191970" d="M82.9815,-470.4132C93.5441,-417.5831 144.743,-173.1922 198,-120.5 202.6493,-115.9001 208.1012,-112.1124 213.9511,-108.9938"/>
<polygon fill="#191970" stroke="#191970" points="215.8025,-111.994 223.4132,-104.6233 212.8672,-105.6392 215.8025,-111.994"/>
</g>
<!-- Node29 -->
<g id="node29" class="node">
<title>Node29</title>
<g id="a_node29"><a xlink:href="../../d9/dc1/classTrkrHitSet.html#af1ecf88b6afbf636a82d40b56020089a" target="_top" xlink:title="TObject functions.">
<polygon fill="none" stroke="#000000" points="225,-219.5 225,-239.5 337,-239.5 337,-219.5 225,-219.5"/>
<text text-anchor="middle" x="281" y="-226.5" font-family="FreeSans" font-size="10.00" fill="#000000">TrkrHitSet::identify</text>
</a>
</g>
</g>
<!-- Node1&#45;&gt;Node29 -->
<g id="edge33" class="edge">
<title>Node1&#45;&gt;Node29</title>
<path fill="none" stroke="#191970" d="M83.2985,-470.136C91.7589,-434.441 124.5691,-315.4548 198,-254.5 203.2904,-250.1085 209.336,-246.4881 215.6989,-243.5037"/>
<polygon fill="#191970" stroke="#191970" points="217.2972,-246.6301 225.1971,-239.5702 214.6188,-240.1627 217.2972,-246.6301"/>
</g>
<!-- Node31 -->
<g id="node31" class="node">
<title>Node31</title>
<g id="a_node31"><a xlink:href="../../d5/dec/classFun4AllBase.html#a8a5c77a92bdac6bc043476e132379a40" target="_top" xlink:title="Gets the verbosity of this module.">
<polygon fill="none" stroke="#000000" points="215,-.5 215,-20.5 347,-20.5 347,-.5 215,-.5"/>
<text text-anchor="middle" x="281" y="-7.5" font-family="FreeSans" font-size="10.00" fill="#000000">Fun4AllBase::Verbosity</text>
</a>
</g>
</g>
<!-- Node1&#45;&gt;Node31 -->
<g id="edge37" class="edge">
<title>Node1&#45;&gt;Node31</title>
<path fill="none" stroke="#191970" d="M82.2963,-470.4967C90.2213,-410.796 133.9261,-101.8872 198,-35.5 201.9191,-31.4394 206.4711,-28.0319 211.3863,-25.1734"/>
<polygon fill="#191970" stroke="#191970" points="213.1784,-28.191 220.568,-20.5986 210.0566,-21.9256 213.1784,-28.191"/>
</g>
<!-- Node3&#45;&gt;Node4 -->
<g id="edge3" class="edge">
<title>Node3&#45;&gt;Node4</title>
<path fill="none" stroke="#191970" d="M339.7107,-921.2802C362.0844,-923.8641 387.6284,-926.814 410.2334,-929.4246"/>
<polygon fill="#191970" stroke="#191970" points="410.0553,-932.9272 420.3908,-930.5976 410.8584,-925.9734 410.0553,-932.9272"/>
</g>
<!-- Node3&#45;&gt;Node5 -->
<g id="edge4" class="edge">
<title>Node3&#45;&gt;Node5</title>
<path fill="none" stroke="#191970" d="M339.7107,-904.946C361.0398,-901.4751 385.2501,-897.5354 407.0488,-893.9881"/>
<polygon fill="#191970" stroke="#191970" points="407.8951,-897.3965 417.2031,-892.3357 406.7707,-890.4874 407.8951,-897.3965"/>
</g>
<!-- Node6&#45;&gt;Node7 -->
<g id="edge6" class="edge">
<title>Node6&#45;&gt;Node7</title>
<path fill="none" stroke="#191970" d="M343.1132,-793.6732C361.0692,-795.7468 380.82,-798.0278 399.3329,-800.1657"/>
<polygon fill="#191970" stroke="#191970" points="399.1356,-803.6661 409.4711,-801.3366 399.9387,-796.7124 399.1356,-803.6661"/>
</g>
<!-- Node8 -->
<g id="node8" class="node">
<title>Node8</title>
<g id="a_node8"><a xlink:href="../../da/d55/TPCRateLayered_8m.html#ac40e4ec8f2a74a2878f06670249eebb8" target="_top" xlink:title="double">
<polygon fill="none" stroke="#000000" points="619,-798.5 619,-818.5 670,-818.5 670,-798.5 619,-798.5"/>
<text text-anchor="middle" x="644.5" y="-805.5" font-family="FreeSans" font-size="10.00" fill="#000000">double</text>
</a>
</g>
</g>
<!-- Node7&#45;&gt;Node8 -->
<g id="edge7" class="edge">
<title>Node7&#45;&gt;Node8</title>
<path fill="none" stroke="#191970" d="M533.957,-808.5C559.0756,-808.5 587.1326,-808.5 608.6949,-808.5"/>
<polygon fill="#191970" stroke="#191970" points="608.717,-812.0001 618.717,-808.5 608.7169,-805.0001 608.717,-812.0001"/>
</g>
<!-- Node11 -->
<g id="node11" class="node">
<title>Node11</title>
<g id="a_node11"><a xlink:href="../../d6/d9e/namespaceInttDefs.html#af41991588b294d4a9a89cfe7cf00439e" target="_top" xlink:title="Generate a hitsetkey for the intt.">
<polygon fill="none" stroke="#000000" points="579,-584.5 579,-604.5 710,-604.5 710,-584.5 579,-584.5"/>
<text text-anchor="middle" x="644.5" y="-591.5" font-family="FreeSans" font-size="10.00" fill="#000000">InttDefs::genHitSetKey</text>
</a>
</g>
</g>
<!-- Node10&#45;&gt;Node11 -->
<g id="edge10" class="edge">
<title>Node10&#45;&gt;Node11</title>
<path fill="none" stroke="#191970" d="M482.3219,-441.6964C511.2059,-468.9107 590.3586,-543.4882 626.3075,-577.3591"/>
<polygon fill="#191970" stroke="#191970" points="624.0037,-579.9973 633.6822,-584.3075 628.804,-574.9024 624.0037,-579.9973"/>
</g>
<!-- Node12 -->
<g id="node12" class="node">
<title>Node12</title>
<g id="a_node12"><a xlink:href="../../d6/d3f/namespaceTrkrDefs.html#a418e306477093b8d17d587be70b908a3" target="_top" xlink:title="generate the common upper 16 bits for hitsetkey">
<polygon fill="none" stroke="#000000" points="746,-584.5 746,-604.5 880,-604.5 880,-584.5 746,-584.5"/>
<text text-anchor="middle" x="813" y="-591.5" font-family="FreeSans" font-size="10.00" fill="#000000">TrkrDefs::genHitSetKey</text>
</a>
</g>
</g>
<!-- Node11&#45;&gt;Node12 -->
<g id="edge11" class="edge">
<title>Node11&#45;&gt;Node12</title>
<path fill="none" stroke="#191970" d="M710.129,-594.5C718.5639,-594.5 727.261,-594.5 735.8587,-594.5"/>
<polygon fill="#191970" stroke="#191970" points="735.8843,-598.0001 745.8842,-594.5 735.8842,-591.0001 735.8843,-598.0001"/>
</g>
<!-- Node14 -->
<g id="node14" class="node">
<title>Node14</title>
<g id="a_node14"><a xlink:href="../../df/d9b/classCylinderGeom__Mvtx.html#acff5517b65e513c7c84c70723c953c02" target="_top" xlink:title="CylinderGeom_Mvtx::\lget_NX">
<polygon fill="none" stroke="#000000" points="409.5,-668.5 409.5,-700.5 533.5,-700.5 533.5,-668.5 409.5,-668.5"/>
<text text-anchor="start" x="417.5" y="-687.5" font-family="FreeSans" font-size="10.00" fill="#000000">CylinderGeom_Mvtx::</text>
<text text-anchor="middle" x="471.5" y="-675.5" font-family="FreeSans" font-size="10.00" fill="#000000">get_NX</text>
</a>
</g>
</g>
<!-- Node13&#45;&gt;Node14 -->
<g id="edge13" class="edge">
<title>Node13&#45;&gt;Node14</title>
<path fill="none" stroke="#191970" d="M360.1342,-684.5C373.1208,-684.5 386.5192,-684.5 399.3254,-684.5"/>
<polygon fill="#191970" stroke="#191970" points="399.4496,-688.0001 409.4495,-684.5 399.4495,-681.0001 399.4496,-688.0001"/>
</g>
<!-- Node23 -->
<g id="node23" class="node">
<title>Node23</title>
<g id="a_node23"><a xlink:href="../../d6/d3f/namespaceTrkrDefs.html#a201667d02154da2cdaa4780616ea0c32" target="_top" xlink:title="Get a valid low / hi range for hitsetkey given tracker id &amp; layer.">
<polygon fill="none" stroke="#000000" points="400,-584.5 400,-604.5 543,-604.5 543,-584.5 400,-584.5"/>
<text text-anchor="middle" x="471.5" y="-591.5" font-family="FreeSans" font-size="10.00" fill="#000000">TrkrDefs::getHitSetKeyLo</text>
</a>
</g>
</g>
<!-- Node22&#45;&gt;Node23 -->
<g id="edge24" class="edge">
<title>Node22&#45;&gt;Node23</title>
<path fill="none" stroke="#191970" d="M339.7107,-621.4805C362.8518,-616.7429 389.3844,-611.3111 412.5488,-606.5687"/>
<polygon fill="#191970" stroke="#191970" points="413.4946,-609.9478 422.5894,-604.5132 412.0906,-603.09 413.4946,-609.9478"/>
</g>
<!-- Node24 -->
<g id="node24" class="node">
<title>Node24</title>
<g id="a_node24"><a xlink:href="../../d6/d3f/namespaceTrkrDefs.html#adc0b8a9c794036b9adb3ff5567636f02" target="_top" xlink:title="TrkrDefs::getHitSetKeyHi">
<polygon fill="none" stroke="#000000" points="401,-623.5 401,-643.5 542,-643.5 542,-623.5 401,-623.5"/>
<text text-anchor="middle" x="471.5" y="-630.5" font-family="FreeSans" font-size="10.00" fill="#000000">TrkrDefs::getHitSetKeyHi</text>
</a>
</g>
</g>
<!-- Node22&#45;&gt;Node24 -->
<g id="edge26" class="edge">
<title>Node22&#45;&gt;Node24</title>
<path fill="none" stroke="#191970" d="M339.7107,-633.5C355.8863,-633.5 373.7189,-633.5 390.9,-633.5"/>
<polygon fill="#191970" stroke="#191970" points="390.9233,-637.0001 400.9233,-633.5 390.9232,-630.0001 390.9233,-637.0001"/>
</g>
<!-- Node23&#45;&gt;Node11 -->
<g id="edge25" class="edge">
<title>Node23&#45;&gt;Node11</title>
<path fill="none" stroke="#191970" d="M543.1145,-594.5C551.5074,-594.5 560.0931,-594.5 568.5425,-594.5"/>
<polygon fill="#191970" stroke="#191970" points="568.7593,-598.0001 578.7593,-594.5 568.7593,-591.0001 568.7593,-598.0001"/>
</g>
<!-- Node24&#45;&gt;Node11 -->
<g id="edge27" class="edge">
<title>Node24&#45;&gt;Node11</title>
<path fill="none" stroke="#191970" d="M516.0518,-623.4565C538.6527,-618.3615 566.2947,-612.1301 590.1387,-606.7549"/>
<polygon fill="#191970" stroke="#191970" points="591.1137,-610.123 600.0992,-604.5094 589.5743,-603.2943 591.1137,-610.123"/>
</g>
<!-- Node29&#45;&gt;Node21 -->
<g id="edge35" class="edge">
<title>Node29&#45;&gt;Node21</title>
<path fill="none" stroke="#191970" d="M330.0585,-239.5435C355.2789,-244.7067 386.2001,-251.037 412.6923,-256.4606"/>
<polygon fill="#191970" stroke="#191970" points="412.109,-259.9137 422.6078,-258.4906 413.513,-253.056 412.109,-259.9137"/>
</g>
<!-- Node29&#45;&gt;Node25 -->
<g id="edge34" class="edge">
<title>Node29&#45;&gt;Node25</title>
<path fill="none" stroke="#191970" d="M337.1723,-220.4501C346.3972,-217.8976 355.6594,-214.6431 364,-210.5 400.9495,-192.146 436.0966,-158.6417 455.6298,-138.0956"/>
<polygon fill="#191970" stroke="#191970" points="458.2967,-140.3676 462.5508,-130.6643 453.1742,-135.5968 458.2967,-140.3676"/>
</g>
<!-- Node30 -->
<g id="node30" class="node">
<title>Node30</title>
<g id="a_node30"><a xlink:href="../../d6/d3f/namespaceTrkrDefs.html#a542bf66cb1037404f08212eeefdfde70" target="_top" xlink:title="Get the tracker ID from either key type.">
<polygon fill="none" stroke="#000000" points="416.5,-219.5 416.5,-239.5 526.5,-239.5 526.5,-219.5 416.5,-219.5"/>
<text text-anchor="middle" x="471.5" y="-226.5" font-family="FreeSans" font-size="10.00" fill="#000000">TrkrDefs::getTrkrId</text>
</a>
</g>
</g>
<!-- Node29&#45;&gt;Node30 -->
<g id="edge36" class="edge">
<title>Node29&#45;&gt;Node30</title>
<path fill="none" stroke="#191970" d="M337.1259,-229.5C358.8259,-229.5 383.8049,-229.5 406.2944,-229.5"/>
<polygon fill="#191970" stroke="#191970" points="406.4315,-233.0001 416.4315,-229.5 406.4314,-226.0001 406.4315,-233.0001"/>
</g>
</g>
</svg>
