<?xml version="1.0" encoding="UTF-8" standalone="no"?>
<!DOCTYPE svg PUBLIC "-//W3C//DTD SVG 1.1//EN"
 "http://www.w3.org/Graphics/SVG/1.1/DTD/svg11.dtd">
<!-- Generated by graphviz version 2.40.1 (20161225.0304)
 -->
<!-- Title: GenFit/blob/master/GFRave/src/GFRaveVertex.cc Pages: 1 -->
<svg width="1291pt" height="554pt"
 viewBox="0.00 0.00 1291.00 554.00" xmlns="http://www.w3.org/2000/svg" xmlns:xlink="http://www.w3.org/1999/xlink">
<g id="graph0" class="graph" transform="scale(1 1) rotate(0) translate(4 550)">
<title>GenFit/blob/master/GFRave/src/GFRaveVertex.cc</title>
<!-- Node1 -->
<g id="node1" class="node">
<title>Node1</title>
<polygon fill="#bfbfbf" stroke="#000000" points="721,-513.5 721,-545.5 887,-545.5 887,-513.5 721,-513.5"/>
<text text-anchor="start" x="729" y="-532.5" font-family="FreeSans" font-size="10.00" fill="#000000">GenFit/blob/master</text>
<text text-anchor="middle" x="804" y="-520.5" font-family="FreeSans" font-size="10.00" fill="#000000">/GFRave/src/GFRaveVertex.cc</text>
</g>
<!-- Node2 -->
<g id="node2" class="node">
<title>Node2</title>
<g id="a_node2"><a xlink:href="../../da/d21/GFRaveVertex_8h.html" target="_top" xlink:title="GFRaveVertex.h">
<polygon fill="none" stroke="#000000" points="576.5,-342.5 576.5,-362.5 673.5,-362.5 673.5,-342.5 576.5,-342.5"/>
<text text-anchor="middle" x="625" y="-349.5" font-family="FreeSans" font-size="10.00" fill="#000000">GFRaveVertex.h</text>
</a>
</g>
</g>
<!-- Node1&#45;&gt;Node2 -->
<g id="edge1" class="edge">
<title>Node1&#45;&gt;Node2</title>
<path fill="none" stroke="#191970" d="M766.2618,-513.4629C729.363,-495.8567 674.2965,-464.111 643,-420 633.143,-406.107 628.6838,-387.1404 626.6665,-372.8493"/>
<polygon fill="#191970" stroke="#191970" points="630.1073,-372.125 625.5157,-362.5768 623.1509,-372.9044 630.1073,-372.125"/>
</g>
<!-- Node20 -->
<g id="node20" class="node">
<title>Node20</title>
<polygon fill="none" stroke="#bfbfbf" points="888,-228.5 888,-248.5 948,-248.5 948,-228.5 888,-228.5"/>
<text text-anchor="middle" x="918" y="-235.5" font-family="FreeSans" font-size="10.00" fill="#000000">iostream</text>
</g>
<!-- Node1&#45;&gt;Node20 -->
<g id="edge63" class="edge">
<title>Node1&#45;&gt;Node20</title>
<path fill="none" stroke="#191970" d="M887.2078,-523.8432C1015.0068,-512.8388 1245,-482.8458 1245,-409.5 1245,-409.5 1245,-409.5 1245,-352.5 1245,-292.4157 1045.6644,-256.6613 958.2605,-243.8718"/>
<polygon fill="#191970" stroke="#191970" points="958.5728,-240.3809 948.1772,-242.4259 957.5791,-247.31 958.5728,-240.3809"/>
</g>
<!-- Node21 -->
<g id="node21" class="node">
<title>Node21</title>
<g id="a_node21"><a xlink:href="../../de/d0c/GFRaveConverters_8h.html" target="_top" xlink:title="GFRaveConverters.h">
<polygon fill="none" stroke="#000000" points="476,-456.5 476,-476.5 596,-476.5 596,-456.5 476,-456.5"/>
<text text-anchor="middle" x="536" y="-463.5" font-family="FreeSans" font-size="10.00" fill="#000000">GFRaveConverters.h</text>
</a>
</g>
</g>
<!-- Node1&#45;&gt;Node21 -->
<g id="edge30" class="edge">
<title>Node1&#45;&gt;Node21</title>
<path fill="none" stroke="#191970" d="M735.6789,-513.4394C689.8795,-502.6732 630.4808,-488.71 588.4087,-478.82"/>
<polygon fill="#191970" stroke="#191970" points="589.1757,-475.4049 578.6401,-476.5236 587.5738,-482.2192 589.1757,-475.4049"/>
</g>
<!-- Node30 -->
<g id="node30" class="node">
<title>Node30</title>
<g id="a_node30"><a xlink:href="../../d8/d8a/Exception_8h.html" target="_top" xlink:title="Exception.h">
<polygon fill="none" stroke="#000000" points="947.5,-399.5 947.5,-419.5 1022.5,-419.5 1022.5,-399.5 947.5,-399.5"/>
<text text-anchor="middle" x="985" y="-406.5" font-family="FreeSans" font-size="10.00" fill="#000000">Exception.h</text>
</a>
</g>
</g>
<!-- Node1&#45;&gt;Node30 -->
<g id="edge56" class="edge">
<title>Node1&#45;&gt;Node30</title>
<path fill="none" stroke="#191970" d="M828.4105,-513.3163C863.1335,-490.2955 926.3967,-448.353 960.9313,-425.4571"/>
<polygon fill="#191970" stroke="#191970" points="963.0598,-428.2454 969.4604,-419.8025 959.1917,-422.4111 963.0598,-428.2454"/>
</g>
<!-- Node3 -->
<g id="node3" class="node">
<title>Node3</title>
<g id="a_node3"><a xlink:href="../../d4/d66/AbsTrackRep_8h.html" target="_top" xlink:title="AbsTrackRep.h">
<polygon fill="none" stroke="#000000" points="327.5,-228.5 327.5,-248.5 418.5,-248.5 418.5,-228.5 327.5,-228.5"/>
<text text-anchor="middle" x="373" y="-235.5" font-family="FreeSans" font-size="10.00" fill="#000000">AbsTrackRep.h</text>
</a>
</g>
</g>
<!-- Node2&#45;&gt;Node3 -->
<g id="edge2" class="edge">
<title>Node2&#45;&gt;Node3</title>
<path fill="none" stroke="#191970" d="M602.6367,-342.3833C557.7108,-322.0596 456.3848,-276.2217 404.6663,-252.8252"/>
<polygon fill="#191970" stroke="#191970" points="405.8669,-249.5269 395.3132,-248.5941 402.9817,-255.9047 405.8669,-249.5269"/>
</g>
<!-- Node17 -->
<g id="node17" class="node">
<title>Node17</title>
<polygon fill="none" stroke="#bfbfbf" points="741.5,-228.5 741.5,-248.5 794.5,-248.5 794.5,-228.5 741.5,-228.5"/>
<text text-anchor="middle" x="768" y="-235.5" font-family="FreeSans" font-size="10.00" fill="#000000">Track.h</text>
</g>
<!-- Node2&#45;&gt;Node17 -->
<g id="edge20" class="edge">
<title>Node2&#45;&gt;Node17</title>
<path fill="none" stroke="#191970" d="M647.396,-342.4939C664.8559,-334.1136 689.2098,-321.1147 708,-306 726.0088,-291.5138 743.1716,-271.3303 754.4918,-256.8135"/>
<polygon fill="#191970" stroke="#191970" points="757.4661,-258.6848 760.7405,-248.6087 751.8972,-254.4436 757.4661,-258.6848"/>
</g>
<!-- Node18 -->
<g id="node18" class="node">
<title>Node18</title>
<g id="a_node18"><a xlink:href="../../da/da2/GFRaveTrackParameters_8h.html" target="_top" xlink:title="GFRaveTrackParameters.h">
<polygon fill="none" stroke="#000000" points="551,-285.5 551,-305.5 699,-305.5 699,-285.5 551,-285.5"/>
<text text-anchor="middle" x="625" y="-292.5" font-family="FreeSans" font-size="10.00" fill="#000000">GFRaveTrackParameters.h</text>
</a>
</g>
</g>
<!-- Node2&#45;&gt;Node18 -->
<g id="edge21" class="edge">
<title>Node2&#45;&gt;Node18</title>
<path fill="none" stroke="#191970" d="M625,-342.3095C625,-334.9335 625,-324.72 625,-315.715"/>
<polygon fill="#191970" stroke="#191970" points="628.5001,-315.6022 625,-305.6022 621.5001,-315.6023 628.5001,-315.6022"/>
</g>
<!-- Node4 -->
<g id="node4" class="node">
<title>Node4</title>
<g id="a_node4"><a xlink:href="../../db/d4f/SharedPlanePtr_8h.html" target="_top" xlink:title="SharedPlanePtr.h">
<polygon fill="none" stroke="#000000" points="28,-171.5 28,-191.5 130,-191.5 130,-171.5 28,-171.5"/>
<text text-anchor="middle" x="79" y="-178.5" font-family="FreeSans" font-size="10.00" fill="#000000">SharedPlanePtr.h</text>
</a>
</g>
</g>
<!-- Node3&#45;&gt;Node4 -->
<g id="edge3" class="edge">
<title>Node3&#45;&gt;Node4</title>
<path fill="none" stroke="#191970" d="M327.3353,-229.6185C324.5148,-229.0706 321.7189,-228.5277 319,-228 258.1259,-216.1845 188.5609,-202.7093 140.0543,-193.3176"/>
<polygon fill="#191970" stroke="#191970" points="140.5168,-189.8422 130.0338,-191.3775 139.1862,-196.7146 140.5168,-189.8422"/>
</g>
<!-- Node8 -->
<g id="node8" class="node">
<title>Node8</title>
<polygon fill="none" stroke="#bfbfbf" points="224.5,-57.5 224.5,-77.5 289.5,-77.5 289.5,-57.5 224.5,-57.5"/>
<text text-anchor="middle" x="257" y="-64.5" font-family="FreeSans" font-size="10.00" fill="#000000">TObject.h</text>
</g>
<!-- Node3&#45;&gt;Node8 -->
<g id="edge16" class="edge">
<title>Node3&#45;&gt;Node8</title>
<path fill="none" stroke="#191970" d="M351.7381,-228.3526C336.8721,-220.3128 317.5146,-207.8126 305,-192 279.8416,-160.2116 266.6491,-113.705 260.8193,-87.4575"/>
<polygon fill="#191970" stroke="#191970" points="264.2218,-86.6283 258.7582,-77.5509 257.3686,-88.0542 264.2218,-86.6283"/>
</g>
<!-- Node9 -->
<g id="node9" class="node">
<title>Node9</title>
<polygon fill="none" stroke="#bfbfbf" points="559.5,-57.5 559.5,-77.5 630.5,-77.5 630.5,-57.5 559.5,-57.5"/>
<text text-anchor="middle" x="595" y="-64.5" font-family="FreeSans" font-size="10.00" fill="#000000">TVector3.h</text>
</g>
<!-- Node3&#45;&gt;Node9 -->
<g id="edge15" class="edge">
<title>Node3&#45;&gt;Node9</title>
<path fill="none" stroke="#191970" d="M379.4113,-228.4481C388.6993,-214.4173 406.9894,-188.6964 427,-171 470.1603,-132.831 529.1226,-100.1414 564.4946,-82.2063"/>
<polygon fill="#191970" stroke="#191970" points="566.4343,-85.1496 573.813,-77.5466 563.3035,-78.8887 566.4343,-85.1496"/>
</g>
<!-- Node11 -->
<g id="node11" class="node">
<title>Node11</title>
<g id="a_node11"><a xlink:href="../../df/d12/Material_8h.html" target="_top" xlink:title="Material.h">
<polygon fill="none" stroke="#000000" points="314,-171.5 314,-191.5 380,-191.5 380,-171.5 314,-171.5"/>
<text text-anchor="middle" x="347" y="-178.5" font-family="FreeSans" font-size="10.00" fill="#000000">Material.h</text>
</a>
</g>
</g>
<!-- Node3&#45;&gt;Node11 -->
<g id="edge11" class="edge">
<title>Node3&#45;&gt;Node11</title>
<path fill="none" stroke="#191970" d="M368.3517,-228.3095C364.8763,-220.6903 360.0198,-210.0435 355.8165,-200.8285"/>
<polygon fill="#191970" stroke="#191970" points="358.9425,-199.2479 351.608,-191.6022 352.5738,-202.153 358.9425,-199.2479"/>
</g>
<!-- Node14 -->
<g id="node14" class="node">
<title>Node14</title>
<polygon fill="none" stroke="#bfbfbf" points="186,-171.5 186,-191.5 258,-191.5 258,-171.5 186,-171.5"/>
<text text-anchor="middle" x="222" y="-178.5" font-family="FreeSans" font-size="10.00" fill="#000000">TVectorD.h</text>
</g>
<!-- Node3&#45;&gt;Node14 -->
<g id="edge17" class="edge">
<title>Node3&#45;&gt;Node14</title>
<path fill="none" stroke="#191970" d="M346.3518,-228.4408C321.8449,-219.1898 285.3036,-205.3961 258.1676,-195.1527"/>
<polygon fill="#191970" stroke="#191970" points="259.227,-191.8116 248.6353,-191.5544 256.7549,-198.3605 259.227,-191.8116"/>
</g>
<!-- Node15 -->
<g id="node15" class="node">
<title>Node15</title>
<polygon fill="none" stroke="#bfbfbf" points="548,-171.5 548,-191.5 620,-191.5 620,-171.5 548,-171.5"/>
<text text-anchor="middle" x="584" y="-178.5" font-family="FreeSans" font-size="10.00" fill="#000000">TMatrixD.h</text>
</g>
<!-- Node3&#45;&gt;Node15 -->
<g id="edge18" class="edge">
<title>Node3&#45;&gt;Node15</title>
<path fill="none" stroke="#191970" d="M410.2369,-228.4408C445.8588,-218.8178 499.6767,-204.2793 537.9703,-193.9346"/>
<polygon fill="#191970" stroke="#191970" points="539.0991,-197.2552 547.8403,-191.2683 537.2735,-190.4974 539.0991,-197.2552"/>
</g>
<!-- Node16 -->
<g id="node16" class="node">
<title>Node16</title>
<polygon fill="none" stroke="#bfbfbf" points="436,-171.5 436,-191.5 530,-191.5 530,-171.5 436,-171.5"/>
<text text-anchor="middle" x="483" y="-178.5" font-family="FreeSans" font-size="10.00" fill="#000000">TMatrixDSym.h</text>
</g>
<!-- Node3&#45;&gt;Node16 -->
<g id="edge19" class="edge">
<title>Node3&#45;&gt;Node16</title>
<path fill="none" stroke="#191970" d="M392.4126,-228.4408C409.5859,-219.5419 434.8714,-206.4394 454.3669,-196.3371"/>
<polygon fill="#191970" stroke="#191970" points="456.143,-199.3589 463.4115,-191.6504 452.9224,-193.1437 456.143,-199.3589"/>
</g>
<!-- Node5 -->
<g id="node5" class="node">
<title>Node5</title>
<g id="a_node5"><a xlink:href="../../dc/d81/DetPlane_8h.html" target="_top" xlink:title="DetPlane.h">
<polygon fill="none" stroke="#000000" points="58.5,-114.5 58.5,-134.5 129.5,-134.5 129.5,-114.5 58.5,-114.5"/>
<text text-anchor="middle" x="94" y="-121.5" font-family="FreeSans" font-size="10.00" fill="#000000">DetPlane.h</text>
</a>
</g>
</g>
<!-- Node4&#45;&gt;Node5 -->
<g id="edge4" class="edge">
<title>Node4&#45;&gt;Node5</title>
<path fill="none" stroke="#191970" d="M81.6817,-171.3095C83.6441,-163.8524 86.3697,-153.4951 88.7583,-144.4186"/>
<polygon fill="#191970" stroke="#191970" points="92.1813,-145.1637 91.3415,-134.6022 85.4117,-143.3822 92.1813,-145.1637"/>
</g>
<!-- Node10 -->
<g id="node10" class="node">
<title>Node10</title>
<polygon fill="none" stroke="#bfbfbf" points="1,-57.5 1,-77.5 59,-77.5 59,-57.5 1,-57.5"/>
<text text-anchor="middle" x="30" y="-64.5" font-family="FreeSans" font-size="10.00" fill="#000000">memory</text>
</g>
<!-- Node4&#45;&gt;Node10 -->
<g id="edge10" class="edge">
<title>Node4&#45;&gt;Node10</title>
<path fill="none" stroke="#191970" d="M71.1417,-171.3034C64.454,-162.2089 55.0035,-148.3119 49,-135 42.1284,-119.7631 37.1624,-101.4544 34.0346,-87.7516"/>
<polygon fill="#191970" stroke="#191970" points="37.4399,-86.9388 31.9189,-77.8962 30.5958,-88.4081 37.4399,-86.9388"/>
</g>
<!-- Node6 -->
<g id="node6" class="node">
<title>Node6</title>
<g id="a_node6"><a xlink:href="../../d1/dd1/AbsFinitePlane_8h.html" target="_top" xlink:title="AbsFinitePlane.h">
<polygon fill="none" stroke="#000000" points="77,-57.5 77,-77.5 177,-77.5 177,-57.5 77,-57.5"/>
<text text-anchor="middle" x="127" y="-64.5" font-family="FreeSans" font-size="10.00" fill="#000000">AbsFinitePlane.h</text>
</a>
</g>
</g>
<!-- Node5&#45;&gt;Node6 -->
<g id="edge5" class="edge">
<title>Node5&#45;&gt;Node6</title>
<path fill="none" stroke="#191970" d="M99.8997,-114.3095C104.3578,-106.6093 110.6062,-95.8166 115.9798,-86.5349"/>
<polygon fill="#191970" stroke="#191970" points="119.1699,-88.0102 121.1513,-77.6022 113.1119,-84.5029 119.1699,-88.0102"/>
</g>
<!-- Node5&#45;&gt;Node8 -->
<g id="edge7" class="edge">
<title>Node5&#45;&gt;Node8</title>
<path fill="none" stroke="#191970" d="M122.7659,-114.4408C149.4524,-105.1087 189.3586,-91.1537 218.7267,-80.8839"/>
<polygon fill="#191970" stroke="#191970" points="219.9638,-84.1592 228.248,-77.5544 217.6531,-77.5516 219.9638,-84.1592"/>
</g>
<!-- Node5&#45;&gt;Node9 -->
<g id="edge8" class="edge">
<title>Node5&#45;&gt;Node9</title>
<path fill="none" stroke="#191970" d="M129.629,-120.4464C218.5839,-110.3258 450.3609,-83.9559 549.2321,-72.7071"/>
<polygon fill="#191970" stroke="#191970" points="549.6772,-76.1792 559.2174,-71.5711 548.8858,-69.224 549.6772,-76.1792"/>
</g>
<!-- Node5&#45;&gt;Node10 -->
<g id="edge9" class="edge">
<title>Node5&#45;&gt;Node10</title>
<path fill="none" stroke="#191970" d="M82.5581,-114.3095C73.2751,-106.0419 59.9894,-94.2093 49.0985,-84.5096"/>
<polygon fill="#191970" stroke="#191970" points="51.1384,-81.6395 41.3429,-77.6022 46.4827,-86.8668 51.1384,-81.6395"/>
</g>
<!-- Node7 -->
<g id="node7" class="node">
<title>Node7</title>
<polygon fill="none" stroke="#bfbfbf" points="97,-.5 97,-20.5 157,-20.5 157,-.5 97,-.5"/>
<text text-anchor="middle" x="127" y="-7.5" font-family="FreeSans" font-size="10.00" fill="#000000">Rtypes.h</text>
</g>
<!-- Node6&#45;&gt;Node7 -->
<g id="edge6" class="edge">
<title>Node6&#45;&gt;Node7</title>
<path fill="none" stroke="#191970" d="M127,-57.3095C127,-49.9335 127,-39.72 127,-30.715"/>
<polygon fill="#191970" stroke="#191970" points="130.5001,-30.6022 127,-20.6022 123.5001,-30.6023 130.5001,-30.6022"/>
</g>
<!-- Node11&#45;&gt;Node8 -->
<g id="edge14" class="edge">
<title>Node11&#45;&gt;Node8</title>
<path fill="none" stroke="#191970" d="M339.0131,-171.3833C323.8404,-152.1645 290.6553,-110.1301 271.4728,-85.8322"/>
<polygon fill="#191970" stroke="#191970" points="274.042,-83.438 265.0984,-77.7579 268.5478,-87.7756 274.042,-83.438"/>
</g>
<!-- Node12 -->
<g id="node12" class="node">
<title>Node12</title>
<g id="a_node12"><a xlink:href="../../d7/d83/EigenMatrixTypedefs_8h.html" target="_top" xlink:title="EigenMatrixTypedefs.h">
<polygon fill="none" stroke="#000000" points="323,-114.5 323,-134.5 453,-134.5 453,-114.5 323,-114.5"/>
<text text-anchor="middle" x="388" y="-121.5" font-family="FreeSans" font-size="10.00" fill="#000000">EigenMatrixTypedefs.h</text>
</a>
</g>
</g>
<!-- Node11&#45;&gt;Node12 -->
<g id="edge12" class="edge">
<title>Node11&#45;&gt;Node12</title>
<path fill="none" stroke="#191970" d="M354.33,-171.3095C359.9854,-163.4472 367.9598,-152.3608 374.7284,-142.9507"/>
<polygon fill="#191970" stroke="#191970" points="377.7355,-144.7641 380.7335,-134.6022 372.0528,-140.6765 377.7355,-144.7641"/>
</g>
<!-- Node13 -->
<g id="node13" class="node">
<title>Node13</title>
<polygon fill="none" stroke="#bfbfbf" points="348,-57.5 348,-77.5 428,-77.5 428,-57.5 348,-57.5"/>
<text text-anchor="middle" x="388" y="-64.5" font-family="FreeSans" font-size="10.00" fill="#000000">Eigen/Dense</text>
</g>
<!-- Node12&#45;&gt;Node13 -->
<g id="edge13" class="edge">
<title>Node12&#45;&gt;Node13</title>
<path fill="none" stroke="#191970" d="M388,-114.3095C388,-106.9335 388,-96.72 388,-87.715"/>
<polygon fill="#191970" stroke="#191970" points="391.5001,-87.6022 388,-77.6022 384.5001,-87.6023 391.5001,-87.6022"/>
</g>
<!-- Node18&#45;&gt;Node3 -->
<g id="edge23" class="edge">
<title>Node18&#45;&gt;Node3</title>
<path fill="none" stroke="#191970" d="M580.5275,-285.4408C537.7451,-275.7638 472.9864,-261.116 427.2058,-250.7608"/>
<polygon fill="#191970" stroke="#191970" points="427.9768,-247.3469 417.451,-248.5544 426.4324,-254.1744 427.9768,-247.3469"/>
</g>
<!-- Node18&#45;&gt;Node8 -->
<g id="edge24" class="edge">
<title>Node18&#45;&gt;Node8</title>
<path fill="none" stroke="#191970" d="M613.2267,-285.1848C599.8236,-272.1197 580.8937,-248.7986 590,-228 599.461,-206.3913 619.539,-213.6087 629,-192 632.7434,-183.4502 634.4301,-178.5911 629,-171 590.4051,-117.0458 389.1469,-84.6553 299.8033,-72.7343"/>
<polygon fill="#191970" stroke="#191970" points="300.1044,-69.2439 289.7343,-71.4145 299.1945,-76.1845 300.1044,-69.2439"/>
</g>
<!-- Node18&#45;&gt;Node9 -->
<g id="edge25" class="edge">
<title>Node18&#45;&gt;Node9</title>
<path fill="none" stroke="#191970" d="M640.4611,-285.3456C651.5585,-277.0599 665.6339,-264.2537 672,-249 685.0448,-217.7437 718.9377,-212.1214 662,-114 654.223,-100.5978 640.8511,-90.1565 628.089,-82.5937"/>
<polygon fill="#191970" stroke="#191970" points="629.4422,-79.3437 618.9928,-77.5944 626.0706,-85.4783 629.4422,-79.3437"/>
</g>
<!-- Node18&#45;&gt;Node14 -->
<g id="edge26" class="edge">
<title>Node18&#45;&gt;Node14</title>
<path fill="none" stroke="#191970" d="M598.5233,-285.4046C560.9718,-271.3221 489.9164,-245.5402 428,-228 373.5771,-212.5827 309.9331,-198.8595 267.9482,-190.3881"/>
<polygon fill="#191970" stroke="#191970" points="268.5144,-186.932 258.022,-188.4017 267.1408,-193.7959 268.5144,-186.932"/>
</g>
<!-- Node18&#45;&gt;Node16 -->
<g id="edge27" class="edge">
<title>Node18&#45;&gt;Node16</title>
<path fill="none" stroke="#191970" d="M636.2357,-285.1213C649.9786,-271.1614 669.8095,-246.0114 656,-228 648.7125,-218.4951 587.5555,-203.5922 539.9974,-193.2292"/>
<polygon fill="#191970" stroke="#191970" points="540.5929,-189.7773 530.0798,-191.0904 539.1171,-196.6199 540.5929,-189.7773"/>
</g>
<!-- Node18&#45;&gt;Node17 -->
<g id="edge22" class="edge">
<title>Node18&#45;&gt;Node17</title>
<path fill="none" stroke="#191970" d="M650.2364,-285.4408C673.272,-276.2587 707.5352,-262.6013 733.1728,-252.3822"/>
<polygon fill="#191970" stroke="#191970" points="734.5416,-255.6044 742.5349,-248.6504 731.9497,-249.1019 734.5416,-255.6044"/>
</g>
<!-- Node19 -->
<g id="node19" class="node">
<title>Node19</title>
<polygon fill="none" stroke="#bfbfbf" points="599,-228.5 599,-248.5 647,-248.5 647,-228.5 599,-228.5"/>
<text text-anchor="middle" x="623" y="-235.5" font-family="FreeSans" font-size="10.00" fill="#000000">TRef.h</text>
</g>
<!-- Node18&#45;&gt;Node19 -->
<g id="edge28" class="edge">
<title>Node18&#45;&gt;Node19</title>
<path fill="none" stroke="#191970" d="M624.6424,-285.3095C624.3836,-277.9335 624.0253,-267.72 623.7093,-258.715"/>
<polygon fill="#191970" stroke="#191970" points="627.2031,-258.4733 623.3545,-248.6022 620.2074,-258.7188 627.2031,-258.4733"/>
</g>
<!-- Node18&#45;&gt;Node20 -->
<g id="edge29" class="edge">
<title>Node18&#45;&gt;Node20</title>
<path fill="none" stroke="#191970" d="M676.7081,-285.4408C734.1569,-274.2647 825.6871,-256.4585 877.9467,-246.2919"/>
<polygon fill="#191970" stroke="#191970" points="878.7057,-249.71 887.8533,-244.3647 877.3689,-242.8388 878.7057,-249.71"/>
</g>
<!-- Node21&#45;&gt;Node2 -->
<g id="edge34" class="edge">
<title>Node21&#45;&gt;Node2</title>
<path fill="none" stroke="#191970" d="M543.8982,-456.3833C558.9023,-437.1645 591.7186,-395.1301 610.688,-370.8322"/>
<polygon fill="#191970" stroke="#191970" points="613.5966,-372.7941 616.9916,-362.7579 608.079,-368.4865 613.5966,-372.7941"/>
</g>
<!-- Node21&#45;&gt;Node3 -->
<g id="edge31" class="edge">
<title>Node21&#45;&gt;Node3</title>
<path fill="none" stroke="#191970" d="M531.8623,-456.1485C525.3864,-441.2716 511.4447,-413.9905 491,-399 444.7205,-365.067 401.4605,-408.888 367,-363 344.0565,-332.4482 355.6153,-284.8169 364.9978,-258.1985"/>
<polygon fill="#191970" stroke="#191970" points="368.289,-259.3901 368.5334,-248.7981 361.7371,-256.9258 368.289,-259.3901"/>
</g>
<!-- Node21&#45;&gt;Node5 -->
<g id="edge32" class="edge">
<title>Node21&#45;&gt;Node5</title>
<path fill="none" stroke="#191970" d="M475.6953,-462.8443C404.2559,-457.5488 282.0589,-445.444 180,-420 97.0975,-399.3318 0,-437.94 0,-352.5 0,-352.5 0,-352.5 0,-238.5 0,-207.3342 .2609,-195.9029 19,-171 29.2768,-157.3429 44.8401,-146.7581 59.1305,-139.1615"/>
<polygon fill="#191970" stroke="#191970" points="60.8858,-142.1971 68.2692,-134.5987 57.7589,-135.9343 60.8858,-142.1971"/>
</g>
<!-- Node21&#45;&gt;Node9 -->
<g id="edge52" class="edge">
<title>Node21&#45;&gt;Node9</title>
<path fill="none" stroke="#191970" d="M596.1821,-463.6352C773.7302,-454.3889 1283,-421.8252 1283,-352.5 1283,-352.5 1283,-352.5 1283,-181.5 1283,-116.1836 794.1471,-79.9806 640.5853,-70.2195"/>
<polygon fill="#191970" stroke="#191970" points="640.7409,-66.7225 630.5411,-69.5885 640.302,-73.7087 640.7409,-66.7225"/>
</g>
<!-- Node21&#45;&gt;Node14 -->
<g id="edge53" class="edge">
<title>Node21&#45;&gt;Node14</title>
<path fill="none" stroke="#191970" d="M475.8531,-462.5174C383.1497,-455.7596 214.0914,-440.7341 196,-420 140.7548,-356.6849 188.729,-245.0454 211.5463,-200.5668"/>
<polygon fill="#191970" stroke="#191970" points="214.6655,-202.1552 216.2362,-191.6775 208.4743,-198.8889 214.6655,-202.1552"/>
</g>
<!-- Node21&#45;&gt;Node16 -->
<g id="edge54" class="edge">
<title>Node21&#45;&gt;Node16</title>
<path fill="none" stroke="#191970" d="M536.1899,-456.41C536.4254,-435.1087 536.1162,-384.0501 529,-342 520.2554,-290.3282 500.9189,-231.5887 490.3128,-201.5368"/>
<polygon fill="#191970" stroke="#191970" points="493.5029,-200.0636 486.836,-191.8293 486.9128,-202.4239 493.5029,-200.0636"/>
</g>
<!-- Node21&#45;&gt;Node17 -->
<g id="edge33" class="edge">
<title>Node21&#45;&gt;Node17</title>
<path fill="none" stroke="#191970" d="M596.0596,-464.2449C663.9947,-460.2836 768.4012,-449.4489 793,-420 832.3281,-372.9175 798.2078,-293.7597 778.987,-257.5805"/>
<polygon fill="#191970" stroke="#191970" points="781.9211,-255.6526 774.0342,-248.5782 775.788,-259.0269 781.9211,-255.6526"/>
</g>
<!-- Node21&#45;&gt;Node20 -->
<g id="edge55" class="edge">
<title>Node21&#45;&gt;Node20</title>
<path fill="none" stroke="#191970" d="M596.2411,-459.6407C665.3609,-451.1968 774.0531,-435.9988 812,-420 851.5641,-403.3194 866.4529,-398.9039 890,-363 911.0615,-330.8861 916.4383,-285.1779 917.7149,-259.0107"/>
<polygon fill="#191970" stroke="#191970" points="921.2205,-258.8942 918.0497,-248.785 914.2242,-258.6651 921.2205,-258.8942"/>
</g>
<!-- Node22 -->
<g id="node22" class="node">
<title>Node22</title>
<g id="a_node22"><a xlink:href="../../d9/d0f/GFRaveVertexFactory_8h.html" target="_top" xlink:title="GFRaveVertexFactory.h">
<polygon fill="none" stroke="#000000" points="652,-399.5 652,-419.5 784,-419.5 784,-399.5 652,-399.5"/>
<text text-anchor="middle" x="718" y="-406.5" font-family="FreeSans" font-size="10.00" fill="#000000">GFRaveVertexFactory.h</text>
</a>
</g>
</g>
<!-- Node21&#45;&gt;Node22 -->
<g id="edge35" class="edge">
<title>Node21&#45;&gt;Node22</title>
<path fill="none" stroke="#191970" d="M568.119,-456.4408C598.1753,-447.0275 643.2501,-432.9107 676.1181,-422.6169"/>
<polygon fill="#191970" stroke="#191970" points="677.3997,-425.8832 685.8965,-419.5544 675.3075,-419.2032 677.3997,-425.8832"/>
</g>
<!-- Node27 -->
<g id="node27" class="node">
<title>Node27</title>
<polygon fill="none" stroke="#bfbfbf" points="205,-399.5 205,-419.5 283,-419.5 283,-399.5 205,-399.5"/>
<text text-anchor="middle" x="244" y="-406.5" font-family="FreeSans" font-size="10.00" fill="#000000">rave/Track.h</text>
</g>
<!-- Node21&#45;&gt;Node27 -->
<g id="edge49" class="edge">
<title>Node21&#45;&gt;Node27</title>
<path fill="none" stroke="#191970" d="M481.8852,-456.4978C432.596,-447.3037 357.8279,-433.1469 293,-420 292.8987,-419.9795 292.7974,-419.9589 292.6959,-419.9383"/>
<polygon fill="#191970" stroke="#191970" points="293.5338,-416.5375 283.0329,-417.9452 292.1196,-423.3932 293.5338,-416.5375"/>
</g>
<!-- Node28 -->
<g id="node28" class="node">
<title>Node28</title>
<polygon fill="none" stroke="#bfbfbf" points="301.5,-399.5 301.5,-419.5 380.5,-419.5 380.5,-399.5 301.5,-399.5"/>
<text text-anchor="middle" x="341" y="-406.5" font-family="FreeSans" font-size="10.00" fill="#000000">rave/Plane.h</text>
</g>
<!-- Node21&#45;&gt;Node28 -->
<g id="edge50" class="edge">
<title>Node21&#45;&gt;Node28</title>
<path fill="none" stroke="#191970" d="M501.5868,-456.4408C469.2448,-446.9869 420.6726,-432.7889 385.4188,-422.484"/>
<polygon fill="#191970" stroke="#191970" points="385.977,-419.0007 375.3966,-419.5544 384.0129,-425.7195 385.977,-419.0007"/>
</g>
<!-- Node29 -->
<g id="node29" class="node">
<title>Node29</title>
<polygon fill="none" stroke="#bfbfbf" points="398,-399.5 398,-419.5 482,-419.5 482,-399.5 398,-399.5"/>
<text text-anchor="middle" x="440" y="-406.5" font-family="FreeSans" font-size="10.00" fill="#000000">rave/Vertex.h</text>
</g>
<!-- Node21&#45;&gt;Node29 -->
<g id="edge51" class="edge">
<title>Node21&#45;&gt;Node29</title>
<path fill="none" stroke="#191970" d="M518.8371,-456.3095C504.0936,-447.5556 482.6188,-434.8049 465.804,-424.8211"/>
<polygon fill="#191970" stroke="#191970" points="467.3998,-421.6982 457.0143,-419.6022 463.8259,-427.7172 467.3998,-421.6982"/>
</g>
<!-- Node22&#45;&gt;Node2 -->
<g id="edge36" class="edge">
<title>Node22&#45;&gt;Node2</title>
<path fill="none" stroke="#191970" d="M701.3735,-399.3095C687.2229,-390.6366 666.6716,-378.0407 650.4513,-368.0992"/>
<polygon fill="#191970" stroke="#191970" points="651.8376,-364.8438 641.4826,-362.6022 648.1796,-370.812 651.8376,-364.8438"/>
</g>
<!-- Node22&#45;&gt;Node17 -->
<g id="edge37" class="edge">
<title>Node22&#45;&gt;Node17</title>
<path fill="none" stroke="#191970" d="M720.978,-399.3153C729.0182,-371.8178 751.2822,-295.6748 762.0353,-258.8993"/>
<polygon fill="#191970" stroke="#191970" points="765.5272,-259.428 764.9744,-248.8476 758.8085,-257.4634 765.5272,-259.428"/>
</g>
<!-- Node23 -->
<g id="node23" class="node">
<title>Node23</title>
<g id="a_node23"><a xlink:href="../../df/dc0/MeasuredStateOnPlane_8h.html" target="_top" xlink:title="MeasuredStateOnPlane.h">
<polygon fill="none" stroke="#000000" points="376,-342.5 376,-362.5 520,-362.5 520,-342.5 376,-342.5"/>
<text text-anchor="middle" x="448" y="-349.5" font-family="FreeSans" font-size="10.00" fill="#000000">MeasuredStateOnPlane.h</text>
</a>
</g>
</g>
<!-- Node22&#45;&gt;Node23 -->
<g id="edge38" class="edge">
<title>Node22&#45;&gt;Node23</title>
<path fill="none" stroke="#191970" d="M670.3509,-399.4408C624.3204,-389.7232 554.546,-374.9931 505.4617,-364.6308"/>
<polygon fill="#191970" stroke="#191970" points="506.1334,-361.1955 495.6261,-362.5544 504.6874,-368.0446 506.1334,-361.1955"/>
</g>
<!-- Node26 -->
<g id="node26" class="node">
<title>Node26</title>
<polygon fill="none" stroke="#bfbfbf" points="831.5,-342.5 831.5,-362.5 880.5,-362.5 880.5,-342.5 831.5,-342.5"/>
<text text-anchor="middle" x="856" y="-349.5" font-family="FreeSans" font-size="10.00" fill="#000000">vector</text>
</g>
<!-- Node22&#45;&gt;Node26 -->
<g id="edge48" class="edge">
<title>Node22&#45;&gt;Node26</title>
<path fill="none" stroke="#191970" d="M742.354,-399.4408C764.4862,-390.2992 797.3583,-376.7216 822.0631,-366.5174"/>
<polygon fill="#191970" stroke="#191970" points="823.5189,-369.703 831.4253,-362.6504 820.8465,-363.2332 823.5189,-369.703"/>
</g>
<!-- Node23&#45;&gt;Node3 -->
<g id="edge45" class="edge">
<title>Node23&#45;&gt;Node3</title>
<path fill="none" stroke="#191970" d="M441.3443,-342.3833C428.7558,-323.2488 401.2884,-281.4984 385.2717,-257.1529"/>
<polygon fill="#191970" stroke="#191970" points="388.1688,-255.1885 379.7486,-248.7579 382.3209,-259.0358 388.1688,-255.1885"/>
</g>
<!-- Node23&#45;&gt;Node16 -->
<g id="edge46" class="edge">
<title>Node23&#45;&gt;Node16</title>
<path fill="none" stroke="#191970" d="M450.0846,-342.3153C455.7127,-314.8178 471.2976,-238.6748 478.8247,-201.8993"/>
<polygon fill="#191970" stroke="#191970" points="482.3057,-202.3463 480.8821,-191.8476 475.4479,-200.9426 482.3057,-202.3463"/>
</g>
<!-- Node24 -->
<g id="node24" class="node">
<title>Node24</title>
<g id="a_node24"><a xlink:href="../../db/d1a/StateOnPlane_8h.html" target="_top" xlink:title="StateOnPlane.h">
<polygon fill="none" stroke="#000000" points="205,-285.5 205,-305.5 299,-305.5 299,-285.5 205,-285.5"/>
<text text-anchor="middle" x="252" y="-292.5" font-family="FreeSans" font-size="10.00" fill="#000000">StateOnPlane.h</text>
</a>
</g>
</g>
<!-- Node23&#45;&gt;Node24 -->
<g id="edge39" class="edge">
<title>Node23&#45;&gt;Node24</title>
<path fill="none" stroke="#191970" d="M413.4103,-342.4408C380.7629,-332.9464 331.6618,-318.6669 296.1911,-308.3515"/>
<polygon fill="#191970" stroke="#191970" points="297.1526,-304.9862 286.573,-305.5544 295.1978,-311.7077 297.1526,-304.9862"/>
</g>
<!-- Node25 -->
<g id="node25" class="node">
<title>Node25</title>
<polygon fill="none" stroke="#bfbfbf" points="256.5,-228.5 256.5,-248.5 309.5,-248.5 309.5,-228.5 256.5,-228.5"/>
<text text-anchor="middle" x="283" y="-235.5" font-family="FreeSans" font-size="10.00" fill="#000000">cassert</text>
</g>
<!-- Node23&#45;&gt;Node25 -->
<g id="edge47" class="edge">
<title>Node23&#45;&gt;Node25</title>
<path fill="none" stroke="#191970" d="M433.3574,-342.3833C404.6867,-322.5744 340.9346,-278.5275 306.3686,-254.6456"/>
<polygon fill="#191970" stroke="#191970" points="308.0639,-251.5627 297.847,-248.7579 304.0848,-257.3219 308.0639,-251.5627"/>
</g>
<!-- Node24&#45;&gt;Node3 -->
<g id="edge41" class="edge">
<title>Node24&#45;&gt;Node3</title>
<path fill="none" stroke="#191970" d="M273.3538,-285.4408C292.5021,-276.4205 320.8187,-263.0813 342.3773,-252.9255"/>
<polygon fill="#191970" stroke="#191970" points="343.8977,-256.0783 351.4526,-248.6504 340.9146,-249.7458 343.8977,-256.0783"/>
</g>
<!-- Node24&#45;&gt;Node4 -->
<g id="edge40" class="edge">
<title>Node24&#45;&gt;Node4</title>
<path fill="none" stroke="#191970" d="M215.6733,-285.475C192.1305,-277.8672 161.5741,-265.8259 138,-249 119.1161,-235.5217 102.2198,-214.854 91.399,-199.9391"/>
<polygon fill="#191970" stroke="#191970" points="94.0932,-197.6855 85.4831,-191.5116 88.3639,-201.7073 94.0932,-197.6855"/>
</g>
<!-- Node24&#45;&gt;Node8 -->
<g id="edge42" class="edge">
<title>Node24&#45;&gt;Node8</title>
<path fill="none" stroke="#191970" d="M238.1502,-285.2816C212.4095,-264.9376 161.1828,-217.3273 177,-171 188.996,-135.8647 218.294,-103.3971 237.9047,-84.5177"/>
<polygon fill="#191970" stroke="#191970" points="240.4768,-86.9044 245.3882,-77.5167 235.6945,-81.7926 240.4768,-86.9044"/>
</g>
<!-- Node24&#45;&gt;Node14 -->
<g id="edge43" class="edge">
<title>Node24&#45;&gt;Node14</title>
<path fill="none" stroke="#191970" d="M249.3377,-285.3833C244.391,-266.586 233.7007,-225.9627 227.2516,-201.4559"/>
<polygon fill="#191970" stroke="#191970" points="230.6292,-200.5379 224.6995,-191.7579 223.8597,-202.3194 230.6292,-200.5379"/>
</g>
<!-- Node24&#45;&gt;Node25 -->
<g id="edge44" class="edge">
<title>Node24&#45;&gt;Node25</title>
<path fill="none" stroke="#191970" d="M257.5422,-285.3095C261.73,-277.6093 267.5997,-266.8166 272.6477,-257.5349"/>
<polygon fill="#191970" stroke="#191970" points="275.8027,-259.0593 277.5058,-248.6022 269.6533,-255.7149 275.8027,-259.0593"/>
</g>
<!-- Node30&#45;&gt;Node15 -->
<g id="edge62" class="edge">
<title>Node30&#45;&gt;Node15</title>
<path fill="none" stroke="#191970" d="M987.0997,-399.4318C992.8685,-368.6603 1005.4839,-275.096 957,-228 933.9333,-205.5936 725.2565,-190.1242 630.4709,-184.1928"/>
<polygon fill="#191970" stroke="#191970" points="630.5035,-180.6882 620.307,-183.5661 630.0726,-187.675 630.5035,-180.6882"/>
</g>
<!-- Node30&#45;&gt;Node20 -->
<g id="edge60" class="edge">
<title>Node30&#45;&gt;Node20</title>
<path fill="none" stroke="#191970" d="M981.0095,-399.3153C970.1892,-371.6992 940.1443,-295.0174 925.8073,-258.426"/>
<polygon fill="#191970" stroke="#191970" points="928.9613,-256.8815 922.0543,-248.8476 922.4437,-259.4352 928.9613,-256.8815"/>
</g>
<!-- Node30&#45;&gt;Node26 -->
<g id="edge59" class="edge">
<title>Node30&#45;&gt;Node26</title>
<path fill="none" stroke="#191970" d="M962.2343,-399.4408C941.7286,-390.3801 911.3603,-376.9615 888.3385,-366.7891"/>
<polygon fill="#191970" stroke="#191970" points="889.5335,-363.4907 878.972,-362.6504 886.7043,-369.8935 889.5335,-363.4907"/>
</g>
<!-- Node31 -->
<g id="node31" class="node">
<title>Node31</title>
<polygon fill="none" stroke="#bfbfbf" points="1151.5,-342.5 1151.5,-362.5 1216.5,-362.5 1216.5,-342.5 1151.5,-342.5"/>
<text text-anchor="middle" x="1184" y="-349.5" font-family="FreeSans" font-size="10.00" fill="#000000">exception</text>
</g>
<!-- Node30&#45;&gt;Node31 -->
<g id="edge57" class="edge">
<title>Node30&#45;&gt;Node31</title>
<path fill="none" stroke="#191970" d="M1020.1191,-399.4408C1053.9802,-389.7419 1105.2742,-375.0496 1141.44,-364.6906"/>
<polygon fill="#191970" stroke="#191970" points="1142.5627,-368.0098 1151.2124,-361.8914 1140.6352,-361.2804 1142.5627,-368.0098"/>
</g>
<!-- Node32 -->
<g id="node32" class="node">
<title>Node32</title>
<polygon fill="none" stroke="#bfbfbf" points="1013.5,-342.5 1013.5,-362.5 1058.5,-362.5 1058.5,-342.5 1013.5,-342.5"/>
<text text-anchor="middle" x="1036" y="-349.5" font-family="FreeSans" font-size="10.00" fill="#000000">string</text>
</g>
<!-- Node30&#45;&gt;Node32 -->
<g id="edge58" class="edge">
<title>Node30&#45;&gt;Node32</title>
<path fill="none" stroke="#191970" d="M994.1178,-399.3095C1001.3701,-391.204 1011.6883,-379.672 1020.2682,-370.0826"/>
<polygon fill="#191970" stroke="#191970" points="1022.9015,-372.3885 1026.9612,-362.6022 1017.6848,-367.7209 1022.9015,-372.3885"/>
</g>
<!-- Node33 -->
<g id="node33" class="node">
<title>Node33</title>
<polygon fill="none" stroke="#bfbfbf" points="1077,-342.5 1077,-362.5 1133,-362.5 1133,-342.5 1077,-342.5"/>
<text text-anchor="middle" x="1105" y="-349.5" font-family="FreeSans" font-size="10.00" fill="#000000">sstream</text>
</g>
<!-- Node30&#45;&gt;Node33 -->
<g id="edge61" class="edge">
<title>Node30&#45;&gt;Node33</title>
<path fill="none" stroke="#191970" d="M1006.1774,-399.4408C1025.0822,-390.461 1052.9983,-377.2008 1074.3424,-367.0624"/>
<polygon fill="#191970" stroke="#191970" points="1076.0996,-370.1025 1083.6307,-362.6504 1073.0962,-363.7796 1076.0996,-370.1025"/>
</g>
</g>
</svg>
