<?xml version="1.0" encoding="UTF-8" standalone="no"?>
<!DOCTYPE svg PUBLIC "-//W3C//DTD SVG 1.1//EN"
 "http://www.w3.org/Graphics/SVG/1.1/DTD/svg11.dtd">
<!-- Generated by graphviz version 2.40.1 (20161225.0304)
 -->
<!-- Title: PHRTreeSeeding::QueryTree Pages: 1 -->
<svg width="520pt" height="49pt"
 viewBox="0.00 0.00 520.00 49.00" xmlns="http://www.w3.org/2000/svg" xmlns:xlink="http://www.w3.org/1999/xlink">
<g id="graph0" class="graph" transform="scale(1 1) rotate(0) translate(4 45)">
<title>PHRTreeSeeding::QueryTree</title>
<!-- Node1 -->
<g id="node1" class="node">
<title>Node1</title>
<polygon fill="#bfbfbf" stroke="#000000" points="0,-.5 0,-20.5 157,-20.5 157,-.5 0,-.5"/>
<text text-anchor="middle" x="78.5" y="-7.5" font-family="FreeSans" font-size="10.00" fill="#000000">PHRTreeSeeding::QueryTree</text>
</g>
<!-- Node2 -->
<g id="node2" class="node">
<title>Node2</title>
<g id="a_node2"><a xlink:href="../../da/df1/classPHRTreeSeeding.html#a302c432e1ce3a4ba3fd7a709b6039eea" target="_top" xlink:title="PHRTreeSeeding::FillTree">
<polygon fill="none" stroke="#000000" points="193,-20.5 193,-40.5 333,-40.5 333,-20.5 193,-20.5"/>
<text text-anchor="middle" x="263" y="-27.5" font-family="FreeSans" font-size="10.00" fill="#000000">PHRTreeSeeding::FillTree</text>
</a>
</g>
</g>
<!-- Node1&#45;&gt;Node2 -->
<g id="edge1" class="edge">
<title>Node1&#45;&gt;Node2</title>
<path fill="none" stroke="#191970" d="M167.081,-20.1023C175.6902,-21.0355 184.342,-21.9734 192.736,-22.8833"/>
<polygon fill="#191970" stroke="#191970" points="167.3311,-16.609 157.0121,-19.0108 166.5767,-23.5682 167.3311,-16.609"/>
</g>
<!-- Node3 -->
<g id="node3" class="node">
<title>Node3</title>
<g id="a_node3"><a xlink:href="../../da/df1/classPHRTreeSeeding.html#a0aba948a58d39c1064797b4568d7d811" target="_top" xlink:title="PHRTreeSeeding::Process">
<polygon fill="none" stroke="#000000" points="369,-.5 369,-20.5 512,-20.5 512,-.5 369,-.5"/>
<text text-anchor="middle" x="440.5" y="-7.5" font-family="FreeSans" font-size="10.00" fill="#000000">PHRTreeSeeding::Process</text>
</a>
</g>
</g>
<!-- Node1&#45;&gt;Node3 -->
<g id="edge3" class="edge">
<title>Node1&#45;&gt;Node3</title>
<path fill="none" stroke="#191970" d="M167.215,-10.5C229.2315,-10.5 310.9814,-10.5 368.8622,-10.5"/>
<polygon fill="#191970" stroke="#191970" points="167.0486,-7.0001 157.0486,-10.5 167.0486,-14.0001 167.0486,-7.0001"/>
</g>
<!-- Node2&#45;&gt;Node3 -->
<g id="edge2" class="edge">
<title>Node2&#45;&gt;Node3</title>
<path fill="none" stroke="#191970" d="M343.1341,-21.4708C351.6956,-20.5061 360.365,-19.5293 368.8196,-18.5767"/>
<polygon fill="#191970" stroke="#191970" points="342.6979,-17.9977 333.1527,-22.5955 343.4817,-24.9537 342.6979,-17.9977"/>
</g>
</g>
</svg>
