<?xml version="1.0" encoding="UTF-8" standalone="no"?>
<!DOCTYPE svg PUBLIC "-//W3C//DTD SVG 1.1//EN"
 "http://www.w3.org/Graphics/SVG/1.1/DTD/svg11.dtd">
<!-- Generated by graphviz version 2.40.1 (20161225.0304)
 -->
<!-- Title: PHRTreeSeeding::chisq Pages: 1 -->
<svg width="295pt" height="146pt"
 viewBox="0.00 0.00 295.00 146.00" xmlns="http://www.w3.org/2000/svg" xmlns:xlink="http://www.w3.org/1999/xlink">
<g id="graph0" class="graph" transform="scale(1 1) rotate(0) translate(4 142)">
<title>PHRTreeSeeding::chisq</title>
<!-- Node1 -->
<g id="node1" class="node">
<title>Node1</title>
<polygon fill="#bfbfbf" stroke="#000000" points="0,-58.5 0,-78.5 131,-78.5 131,-58.5 0,-58.5"/>
<text text-anchor="middle" x="65.5" y="-65.5" font-family="FreeSans" font-size="10.00" fill="#000000">PHRTreeSeeding::chisq</text>
</g>
<!-- Node2 -->
<g id="node2" class="node">
<title>Node2</title>
<g id="a_node2"><a xlink:href="../../d6/dfa/classTrkrCluster.html#a464d9b621b9f222a845107e17970fa0d" target="_top" xlink:title="TrkrCluster::getError">
<polygon fill="none" stroke="#000000" points="167,-117.5 167,-137.5 287,-137.5 287,-117.5 167,-117.5"/>
<text text-anchor="middle" x="227" y="-124.5" font-family="FreeSans" font-size="10.00" fill="#000000">TrkrCluster::getError</text>
</a>
</g>
</g>
<!-- Node1&#45;&gt;Node2 -->
<g id="edge1" class="edge">
<title>Node1&#45;&gt;Node2</title>
<path fill="none" stroke="#191970" d="M89.5235,-78.507C109.9801,-86.8979 140.2254,-98.9976 167,-108.5 172.5412,-110.4666 178.404,-112.4459 184.2083,-114.3458"/>
<polygon fill="#191970" stroke="#191970" points="183.2628,-117.7183 193.8543,-117.4518 185.4083,-111.0552 183.2628,-117.7183"/>
</g>
<!-- Node3 -->
<g id="node3" class="node">
<title>Node3</title>
<g id="a_node3"><a xlink:href="../../d6/dfa/classTrkrCluster.html#a7be7cdba7b854678e0519288b8021b2a" target="_top" xlink:title="TrkrCluster::getX">
<polygon fill="none" stroke="#000000" points="176,-78.5 176,-98.5 278,-98.5 278,-78.5 176,-78.5"/>
<text text-anchor="middle" x="227" y="-85.5" font-family="FreeSans" font-size="10.00" fill="#000000">TrkrCluster::getX</text>
</a>
</g>
</g>
<!-- Node1&#45;&gt;Node3 -->
<g id="edge2" class="edge">
<title>Node1&#45;&gt;Node3</title>
<path fill="none" stroke="#191970" d="M131.1882,-76.6348C142.5546,-78.0424 154.3337,-79.5011 165.5812,-80.894"/>
<polygon fill="#191970" stroke="#191970" points="165.3796,-84.3956 175.734,-82.1513 166.24,-77.4487 165.3796,-84.3956"/>
</g>
<!-- Node4 -->
<g id="node4" class="node">
<title>Node4</title>
<g id="a_node4"><a xlink:href="../../d6/dfa/classTrkrCluster.html#a526ac89c45b903df8890bd8b4d476e5c" target="_top" xlink:title="TrkrCluster::getY">
<polygon fill="none" stroke="#000000" points="176.5,-39.5 176.5,-59.5 277.5,-59.5 277.5,-39.5 176.5,-39.5"/>
<text text-anchor="middle" x="227" y="-46.5" font-family="FreeSans" font-size="10.00" fill="#000000">TrkrCluster::getY</text>
</a>
</g>
</g>
<!-- Node1&#45;&gt;Node4 -->
<g id="edge3" class="edge">
<title>Node1&#45;&gt;Node4</title>
<path fill="none" stroke="#191970" d="M131.1882,-60.772C142.6883,-59.419 154.6109,-58.0164 165.9779,-56.6791"/>
<polygon fill="#191970" stroke="#191970" points="166.7103,-60.1171 176.2328,-55.4726 165.8923,-53.1651 166.7103,-60.1171"/>
</g>
<!-- Node5 -->
<g id="node5" class="node">
<title>Node5</title>
<g id="a_node5"><a xlink:href="../../d6/dfa/classTrkrCluster.html#a7d92784527cb537e382ffa0460e0f728" target="_top" xlink:title="TrkrCluster::getZ">
<polygon fill="none" stroke="#000000" points="176,-.5 176,-20.5 278,-20.5 278,-.5 176,-.5"/>
<text text-anchor="middle" x="227" y="-7.5" font-family="FreeSans" font-size="10.00" fill="#000000">TrkrCluster::getZ</text>
</a>
</g>
</g>
<!-- Node1&#45;&gt;Node5 -->
<g id="edge4" class="edge">
<title>Node1&#45;&gt;Node5</title>
<path fill="none" stroke="#191970" d="M91.6919,-58.3945C112.1319,-50.581 141.2786,-39.5984 167,-30.5 173.1818,-28.3133 179.7446,-26.0585 186.1742,-23.8863"/>
<polygon fill="#191970" stroke="#191970" points="187.7243,-27.0582 196.0942,-20.5625 185.5003,-20.4209 187.7243,-27.0582"/>
</g>
</g>
</svg>
