<?xml version="1.0" encoding="UTF-8" standalone="no"?>
<!DOCTYPE svg PUBLIC "-//W3C//DTD SVG 1.1//EN"
 "http://www.w3.org/Graphics/SVG/1.1/DTD/svg11.dtd">
<!-- Generated by graphviz version 2.40.1 (20161225.0304)
 -->
<!-- Title: PHRTreeSeeding::InitializeGeometry Pages: 1 -->
<svg width="698pt" height="405pt"
 viewBox="0.00 0.00 698.00 405.00" xmlns="http://www.w3.org/2000/svg" xmlns:xlink="http://www.w3.org/1999/xlink">
<g id="graph0" class="graph" transform="scale(1 1) rotate(0) translate(4 401)">
<title>PHRTreeSeeding::InitializeGeometry</title>
<!-- Node1 -->
<g id="node1" class="node">
<title>Node1</title>
<polygon fill="#bfbfbf" stroke="#000000" points="0,-185.5 0,-217.5 147,-217.5 147,-185.5 0,-185.5"/>
<text text-anchor="start" x="8" y="-204.5" font-family="FreeSans" font-size="10.00" fill="#000000">PHRTreeSeeding::Initialize</text>
<text text-anchor="middle" x="73.5" y="-192.5" font-family="FreeSans" font-size="10.00" fill="#000000">Geometry</text>
</g>
<!-- Node2 -->
<g id="node2" class="node">
<title>Node2</title>
<g id="a_node2"><a xlink:href="../../d2/ddb/classPHG4CylinderCellGeomContainer.html#aeab167ab2aaa22469653d1a48c380545" target="_top" xlink:title="PHG4CylinderCellGeomContainer\l::get_begin_end">
<polygon fill="none" stroke="#000000" points="183,-364.5 183,-396.5 368,-396.5 368,-364.5 183,-364.5"/>
<text text-anchor="start" x="191" y="-383.5" font-family="FreeSans" font-size="10.00" fill="#000000">PHG4CylinderCellGeomContainer</text>
<text text-anchor="middle" x="275.5" y="-371.5" font-family="FreeSans" font-size="10.00" fill="#000000">::get_begin_end</text>
</a>
</g>
</g>
<!-- Node1&#45;&gt;Node2 -->
<g id="edge1" class="edge">
<title>Node1&#45;&gt;Node2</title>
<path fill="none" stroke="#191970" d="M80.4672,-217.8231C94.8195,-249.4432 130.7743,-319.128 183,-355.5 185.15,-356.9974 187.3856,-358.4051 189.6881,-359.7286"/>
<polygon fill="#191970" stroke="#191970" points="188.3652,-362.9834 198.8613,-364.427 191.5564,-356.753 188.3652,-362.9834"/>
</g>
<!-- Node3 -->
<g id="node3" class="node">
<title>Node3</title>
<g id="a_node3"><a xlink:href="../../d9/d85/classPHG4CylinderCellGeom.html#a424a98e6450b5b976c300559bb785881" target="_top" xlink:title="PHG4CylinderCellGeom\l::get_layer">
<polygon fill="none" stroke="#000000" points="208,-313.5 208,-345.5 343,-345.5 343,-313.5 208,-313.5"/>
<text text-anchor="start" x="216" y="-332.5" font-family="FreeSans" font-size="10.00" fill="#000000">PHG4CylinderCellGeom</text>
<text text-anchor="middle" x="275.5" y="-320.5" font-family="FreeSans" font-size="10.00" fill="#000000">::get_layer</text>
</a>
</g>
</g>
<!-- Node1&#45;&gt;Node3 -->
<g id="edge2" class="edge">
<title>Node1&#45;&gt;Node3</title>
<path fill="none" stroke="#191970" d="M86.1902,-217.6664C104.9293,-240.4381 142.2139,-281.7185 183,-304.5 187.8108,-307.1871 192.9254,-309.5974 198.1845,-311.7576"/>
<polygon fill="#191970" stroke="#191970" points="197.1811,-315.1199 207.7727,-315.3814 199.6559,-308.572 197.1811,-315.1199"/>
</g>
<!-- Node4 -->
<g id="node4" class="node">
<title>Node4</title>
<g id="a_node4"><a xlink:href="../../dc/d30/classPHG4CylinderGeom.html#a1ab06f4805659f8006faf3cb3df1dab2" target="_top" xlink:title="PHG4CylinderGeom::get\l_layer">
<polygon fill="none" stroke="#000000" points="205.5,-262.5 205.5,-294.5 345.5,-294.5 345.5,-262.5 205.5,-262.5"/>
<text text-anchor="start" x="213.5" y="-281.5" font-family="FreeSans" font-size="10.00" fill="#000000">PHG4CylinderGeom::get</text>
<text text-anchor="middle" x="275.5" y="-269.5" font-family="FreeSans" font-size="10.00" fill="#000000">_layer</text>
</a>
</g>
</g>
<!-- Node1&#45;&gt;Node4 -->
<g id="edge3" class="edge">
<title>Node1&#45;&gt;Node4</title>
<path fill="none" stroke="#191970" d="M103.5482,-217.5691C125.2031,-228.7008 155.3603,-243.2959 183,-253.5 188.5985,-255.5669 194.4445,-257.5454 200.3586,-259.4198"/>
<polygon fill="#191970" stroke="#191970" points="199.7579,-262.896 210.3442,-262.4731 201.8047,-256.2019 199.7579,-262.896"/>
</g>
<!-- Node5 -->
<g id="node5" class="node">
<title>Node5</title>
<g id="a_node5"><a xlink:href="../../d9/d85/classPHG4CylinderCellGeom.html#a108104cde65d2ca503e306251188e615" target="_top" xlink:title="PHG4CylinderCellGeom\l::get_radius">
<polygon fill="none" stroke="#000000" points="208,-211.5 208,-243.5 343,-243.5 343,-211.5 208,-211.5"/>
<text text-anchor="start" x="216" y="-230.5" font-family="FreeSans" font-size="10.00" fill="#000000">PHG4CylinderCellGeom</text>
<text text-anchor="middle" x="275.5" y="-218.5" font-family="FreeSans" font-size="10.00" fill="#000000">::get_radius</text>
</a>
</g>
</g>
<!-- Node1&#45;&gt;Node5 -->
<g id="edge4" class="edge">
<title>Node1&#45;&gt;Node5</title>
<path fill="none" stroke="#191970" d="M147.2841,-210.997C163.7106,-213.1113 181.175,-215.3592 197.7552,-217.4932"/>
<polygon fill="#191970" stroke="#191970" points="197.5823,-220.9998 207.9473,-218.8051 198.476,-214.0571 197.5823,-220.9998"/>
</g>
<!-- Node6 -->
<g id="node6" class="node">
<title>Node6</title>
<g id="a_node6"><a xlink:href="../../dc/d30/classPHG4CylinderGeom.html#ad978ad904b4a70184d716c095a75874d" target="_top" xlink:title="PHG4CylinderGeom::get\l_radius">
<polygon fill="none" stroke="#000000" points="205.5,-160.5 205.5,-192.5 345.5,-192.5 345.5,-160.5 205.5,-160.5"/>
<text text-anchor="start" x="213.5" y="-179.5" font-family="FreeSans" font-size="10.00" fill="#000000">PHG4CylinderGeom::get</text>
<text text-anchor="middle" x="275.5" y="-167.5" font-family="FreeSans" font-size="10.00" fill="#000000">_radius</text>
</a>
</g>
</g>
<!-- Node1&#45;&gt;Node6 -->
<g id="edge5" class="edge">
<title>Node1&#45;&gt;Node6</title>
<path fill="none" stroke="#191970" d="M147.2841,-192.3683C162.816,-190.446 179.2758,-188.4089 195.0388,-186.4581"/>
<polygon fill="#191970" stroke="#191970" points="195.7855,-189.8924 205.2799,-185.1906 194.9257,-182.9454 195.7855,-189.8924"/>
</g>
<!-- Node7 -->
<g id="node7" class="node">
<title>Node7</title>
<g id="a_node7"><a xlink:href="../../d9/d85/classPHG4CylinderCellGeom.html#ad686dcdb176becd88d1e3ee1fa5113bf" target="_top" xlink:title="PHG4CylinderCellGeom\l::get_thickness">
<polygon fill="none" stroke="#000000" points="208,-109.5 208,-141.5 343,-141.5 343,-109.5 208,-109.5"/>
<text text-anchor="start" x="216" y="-128.5" font-family="FreeSans" font-size="10.00" fill="#000000">PHG4CylinderCellGeom</text>
<text text-anchor="middle" x="275.5" y="-116.5" font-family="FreeSans" font-size="10.00" fill="#000000">::get_thickness</text>
</a>
</g>
</g>
<!-- Node1&#45;&gt;Node7 -->
<g id="edge6" class="edge">
<title>Node1&#45;&gt;Node7</title>
<path fill="none" stroke="#191970" d="M105.5321,-185.2857C127.0768,-174.7775 156.3127,-161.2773 183,-151.5 189.6765,-149.054 196.694,-146.7017 203.754,-144.4797"/>
<polygon fill="#191970" stroke="#191970" points="204.8416,-147.8072 213.3796,-141.534 202.7931,-141.1137 204.8416,-147.8072"/>
</g>
<!-- Node8 -->
<g id="node8" class="node">
<title>Node8</title>
<g id="a_node8"><a xlink:href="../../dc/d30/classPHG4CylinderGeom.html#a5e628ced545e46cdcdb65944fd63e524" target="_top" xlink:title="PHG4CylinderGeom::get\l_thickness">
<polygon fill="none" stroke="#000000" points="205.5,-58.5 205.5,-90.5 345.5,-90.5 345.5,-58.5 205.5,-58.5"/>
<text text-anchor="start" x="213.5" y="-77.5" font-family="FreeSans" font-size="10.00" fill="#000000">PHG4CylinderGeom::get</text>
<text text-anchor="middle" x="275.5" y="-65.5" font-family="FreeSans" font-size="10.00" fill="#000000">_thickness</text>
</a>
</g>
</g>
<!-- Node1&#45;&gt;Node8 -->
<g id="edge7" class="edge">
<title>Node1&#45;&gt;Node8</title>
<path fill="none" stroke="#191970" d="M86.6092,-185.3384C105.5719,-163.0124 142.8125,-122.9542 183,-100.5 187.1503,-98.1811 191.5229,-96.0562 196.017,-94.111"/>
<polygon fill="#191970" stroke="#191970" points="197.395,-97.3295 205.3798,-90.3658 194.7951,-90.8302 197.395,-97.3295"/>
</g>
<!-- Node9 -->
<g id="node9" class="node">
<title>Node9</title>
<g id="a_node9"><a xlink:href="../../da/dc3/namespacefindNode.html#af4793f47e215cb6b0d51e0a9303a4382" target="_top" xlink:title="findNode::getClass">
<polygon fill="none" stroke="#000000" points="219.5,-19.5 219.5,-39.5 331.5,-39.5 331.5,-19.5 219.5,-19.5"/>
<text text-anchor="middle" x="275.5" y="-26.5" font-family="FreeSans" font-size="10.00" fill="#000000">findNode::getClass</text>
</a>
</g>
</g>
<!-- Node1&#45;&gt;Node9 -->
<g id="edge8" class="edge">
<title>Node1&#45;&gt;Node9</title>
<path fill="none" stroke="#191970" d="M80.3686,-185.1538C94.548,-153.5321 130.2136,-84.0633 183,-49.5 190.9574,-44.2897 200.0462,-40.413 209.3476,-37.5334"/>
<polygon fill="#191970" stroke="#191970" points="210.3524,-40.8873 219.0791,-34.8793 208.5106,-34.1339 210.3524,-40.8873"/>
</g>
<!-- Node10 -->
<g id="node10" class="node">
<title>Node10</title>
<g id="a_node10"><a xlink:href="../../d5/d07/classPHNodeIterator.html#aea98bf8619af59b1212a94fb32106baa" target="_top" xlink:title="PHNodeIterator::findFirst">
<polygon fill="none" stroke="#000000" points="404,-39.5 404,-59.5 545,-59.5 545,-39.5 404,-39.5"/>
<text text-anchor="middle" x="474.5" y="-46.5" font-family="FreeSans" font-size="10.00" fill="#000000">PHNodeIterator::findFirst</text>
</a>
</g>
</g>
<!-- Node9&#45;&gt;Node10 -->
<g id="edge9" class="edge">
<title>Node9&#45;&gt;Node10</title>
<path fill="none" stroke="#191970" d="M331.7275,-35.151C350.988,-37.0867 372.9352,-39.2925 393.7471,-41.3841"/>
<polygon fill="#191970" stroke="#191970" points="393.5559,-44.8825 403.8558,-42.4001 394.256,-37.9176 393.5559,-44.8825"/>
</g>
<!-- Node13 -->
<g id="node13" class="node">
<title>Node13</title>
<g id="a_node13"><a xlink:href="../../d1/d3e/classPHDataNode.html#a1f3b856fd3ce165047be8aa97f4ab9f3" target="_top" xlink:title="PHDataNode::getData">
<polygon fill="none" stroke="#000000" points="411,-.5 411,-20.5 538,-20.5 538,-.5 411,-.5"/>
<text text-anchor="middle" x="474.5" y="-7.5" font-family="FreeSans" font-size="10.00" fill="#000000">PHDataNode::getData</text>
</a>
</g>
</g>
<!-- Node9&#45;&gt;Node13 -->
<g id="edge13" class="edge">
<title>Node9&#45;&gt;Node13</title>
<path fill="none" stroke="#191970" d="M331.7275,-24.1315C353.1529,-22.0859 377.9029,-19.7228 400.7164,-17.5447"/>
<polygon fill="#191970" stroke="#191970" points="401.0781,-21.0261 410.7001,-16.5914 400.4127,-14.0578 401.0781,-21.0261"/>
</g>
<!-- Node10&#45;&gt;Node10 -->
<g id="edge10" class="edge">
<title>Node10&#45;&gt;Node10</title>
<path fill="none" stroke="#191970" d="M449.4512,-59.7271C438.0254,-68.6067 446.375,-78 474.5,-78 492.957,-78 502.8975,-73.9546 504.3214,-68.6639"/>
<polygon fill="#191970" stroke="#191970" points="507.347,-66.8992 499.5488,-59.7271 501.1723,-70.1968 507.347,-66.8992"/>
</g>
<!-- Node11 -->
<g id="node11" class="node">
<title>Node11</title>
<g id="a_node11"><a xlink:href="../../dc/d82/classPHNode.html#aca3576f926a4401eddc3d88bf0ce0de3" target="_top" xlink:title="PHNode::getName">
<polygon fill="none" stroke="#000000" points="581,-58.5 581,-78.5 690,-78.5 690,-58.5 581,-58.5"/>
<text text-anchor="middle" x="635.5" y="-65.5" font-family="FreeSans" font-size="10.00" fill="#000000">PHNode::getName</text>
</a>
</g>
</g>
<!-- Node10&#45;&gt;Node11 -->
<g id="edge11" class="edge">
<title>Node10&#45;&gt;Node11</title>
<path fill="none" stroke="#191970" d="M545.1169,-57.8337C553.6464,-58.8403 562.3262,-59.8646 570.7654,-60.8605"/>
<polygon fill="#191970" stroke="#191970" points="570.5725,-64.362 580.9138,-62.0581 571.3929,-57.4102 570.5725,-64.362"/>
</g>
<!-- Node12 -->
<g id="node12" class="node">
<title>Node12</title>
<g id="a_node12"><a xlink:href="../../dc/d82/classPHNode.html#a4ab1f90aed955a652813bfe377087bda" target="_top" xlink:title="PHNode::getType">
<polygon fill="none" stroke="#000000" points="584,-19.5 584,-39.5 687,-39.5 687,-19.5 584,-19.5"/>
<text text-anchor="middle" x="635.5" y="-26.5" font-family="FreeSans" font-size="10.00" fill="#000000">PHNode::getType</text>
</a>
</g>
</g>
<!-- Node10&#45;&gt;Node12 -->
<g id="edge12" class="edge">
<title>Node10&#45;&gt;Node12</title>
<path fill="none" stroke="#191970" d="M545.1169,-40.7277C554.6722,-39.5407 564.4161,-38.3303 573.799,-37.1647"/>
<polygon fill="#191970" stroke="#191970" points="574.3206,-40.6269 583.8128,-35.9208 573.4576,-33.6803 574.3206,-40.6269"/>
</g>
</g>
</svg>
