<?xml version="1.0" encoding="UTF-8" standalone="no"?>
<!DOCTYPE svg PUBLIC "-//W3C//DTD SVG 1.1//EN"
 "http://www.w3.org/Graphics/SVG/1.1/DTD/svg11.dtd">
<!-- Generated by graphviz version 2.40.1 (20161225.0304)
 -->
<!-- Title: coresoftware/blob/master/offline/framework/fun4all/Fun4AllDstOutputManager.h Pages: 1 -->
<svg width="4773pt" height="227pt"
 viewBox="0.00 0.00 4773.00 227.00" xmlns="http://www.w3.org/2000/svg" xmlns:xlink="http://www.w3.org/1999/xlink">
<g id="graph0" class="graph" transform="scale(1 1) rotate(0) translate(4 223)">
<title>coresoftware/blob/master/offline/framework/fun4all/Fun4AllDstOutputManager.h</title>
<!-- Node1 -->
<g id="node1" class="node">
<title>Node1</title>
<polygon fill="#bfbfbf" stroke="#000000" points="2113.5,-174.5 2113.5,-218.5 2275.5,-218.5 2275.5,-174.5 2113.5,-174.5"/>
<text text-anchor="start" x="2121.5" y="-205.5" font-family="FreeSans" font-size="10.00" fill="#000000">coresoftware/blob/master</text>
<text text-anchor="start" x="2121.5" y="-193.5" font-family="FreeSans" font-size="10.00" fill="#000000">/offline/framework/fun4all</text>
<text text-anchor="middle" x="2194.5" y="-181.5" font-family="FreeSans" font-size="10.00" fill="#000000">/Fun4AllDstOutputManager.h</text>
</g>
<!-- Node2 -->
<g id="node2" class="node">
<title>Node2</title>
<g id="a_node2"><a xlink:href="../../d9/d74/Fun4AllDstOutputManager_8cc.html" target="_top" xlink:title="coresoftware/blob/master\l/offline/framework/fun4all\l/Fun4AllDstOutputManager.cc">
<polygon fill="none" stroke="#000000" points="0,-87.5 0,-131.5 167,-131.5 167,-87.5 0,-87.5"/>
<text text-anchor="start" x="8" y="-118.5" font-family="FreeSans" font-size="10.00" fill="#000000">coresoftware/blob/master</text>
<text text-anchor="start" x="8" y="-106.5" font-family="FreeSans" font-size="10.00" fill="#000000">/offline/framework/fun4all</text>
<text text-anchor="middle" x="83.5" y="-94.5" font-family="FreeSans" font-size="10.00" fill="#000000">/Fun4AllDstOutputManager.cc</text>
</a>
</g>
</g>
<!-- Node1&#45;&gt;Node2 -->
<g id="edge1" class="edge">
<title>Node1&#45;&gt;Node2</title>
<path fill="none" stroke="#191970" d="M2103.1448,-195.2259C1735.0767,-189.9041 371.4763,-168.3115 180.5,-138 170.619,-136.4317 160.3292,-134.1489 150.3027,-131.5475"/>
<polygon fill="#191970" stroke="#191970" points="2103.1717,-198.7265 2113.2211,-195.3711 2103.2726,-191.7272 2103.1717,-198.7265"/>
</g>
<!-- Node3 -->
<g id="node3" class="node">
<title>Node3</title>
<g id="a_node3"><a xlink:href="../../da/d02/Fun4All__G4__EICDetector_8C.html" target="_top" xlink:title="macros/blob/master\l/macros/g4simulations\l/Fun4All_G4_EICDetector.C">
<polygon fill="none" stroke="#000000" points="167.5,-.5 167.5,-44.5 319.5,-44.5 319.5,-.5 167.5,-.5"/>
<text text-anchor="start" x="175.5" y="-31.5" font-family="FreeSans" font-size="10.00" fill="#000000">macros/blob/master</text>
<text text-anchor="start" x="175.5" y="-19.5" font-family="FreeSans" font-size="10.00" fill="#000000">/macros/g4simulations</text>
<text text-anchor="middle" x="243.5" y="-7.5" font-family="FreeSans" font-size="10.00" fill="#000000">/Fun4All_G4_EICDetector.C</text>
</a>
</g>
</g>
<!-- Node1&#45;&gt;Node3 -->
<g id="edge2" class="edge">
<title>Node1&#45;&gt;Node3</title>
<path fill="none" stroke="#191970" d="M2103.1765,-195.5188C1718.3115,-191.1711 246.8262,-172.3248 213.5,-138 189.1106,-112.8797 209.997,-70.5904 227.0101,-44.7482"/>
<polygon fill="#191970" stroke="#191970" points="2103.3898,-199.0213 2113.4285,-195.6341 2103.4685,-192.0218 2103.3898,-199.0213"/>
</g>
<!-- Node4 -->
<g id="node4" class="node">
<title>Node4</title>
<g id="a_node4"><a xlink:href="../../d2/dfe/macros_2blob_2master_2macros_2g4simulations_2G4Setup__EICDetector_8C.html" target="_top" xlink:title="macros/blob/master\l/macros/g4simulations\l/G4Setup_EICDetector.C">
<polygon fill="none" stroke="#000000" points="223,-87.5 223,-131.5 362,-131.5 362,-87.5 223,-87.5"/>
<text text-anchor="start" x="231" y="-118.5" font-family="FreeSans" font-size="10.00" fill="#000000">macros/blob/master</text>
<text text-anchor="start" x="231" y="-106.5" font-family="FreeSans" font-size="10.00" fill="#000000">/macros/g4simulations</text>
<text text-anchor="middle" x="292.5" y="-94.5" font-family="FreeSans" font-size="10.00" fill="#000000">/G4Setup_EICDetector.C</text>
</a>
</g>
</g>
<!-- Node1&#45;&gt;Node4 -->
<g id="edge3" class="edge">
<title>Node1&#45;&gt;Node4</title>
<path fill="none" stroke="#191970" d="M2103.2215,-195.2718C1757.7173,-190.3901 541.0234,-171.0051 370.5,-138 362.4319,-136.4384 354.0897,-134.1593 345.9954,-131.5596"/>
<polygon fill="#191970" stroke="#191970" points="2103.3843,-198.7744 2113.4325,-195.4155 2103.4828,-191.7751 2103.3843,-198.7744"/>
</g>
<!-- Node5 -->
<g id="node5" class="node">
<title>Node5</title>
<g id="a_node5"><a xlink:href="../../d7/d9e/Fun4All__G4__fsPHENIX_8C.html" target="_top" xlink:title="macros/blob/master\l/macros/g4simulations\l/Fun4All_G4_fsPHENIX.C">
<polygon fill="none" stroke="#000000" points="380,-87.5 380,-131.5 519,-131.5 519,-87.5 380,-87.5"/>
<text text-anchor="start" x="388" y="-118.5" font-family="FreeSans" font-size="10.00" fill="#000000">macros/blob/master</text>
<text text-anchor="start" x="388" y="-106.5" font-family="FreeSans" font-size="10.00" fill="#000000">/macros/g4simulations</text>
<text text-anchor="middle" x="449.5" y="-94.5" font-family="FreeSans" font-size="10.00" fill="#000000">/Fun4All_G4_fsPHENIX.C</text>
</a>
</g>
</g>
<!-- Node1&#45;&gt;Node5 -->
<g id="edge5" class="edge">
<title>Node1&#45;&gt;Node5</title>
<path fill="none" stroke="#191970" d="M2103.0731,-194.8373C1777.78,-188.7068 687.7515,-166.2526 533.5,-138 524.8657,-136.4185 515.912,-134.1284 507.2092,-131.5236"/>
<polygon fill="#191970" stroke="#191970" points="2103.3333,-198.3427 2113.3973,-195.0312 2103.4648,-191.3439 2103.3333,-198.3427"/>
</g>
<!-- Node6 -->
<g id="node6" class="node">
<title>Node6</title>
<g id="a_node6"><a xlink:href="../../d5/d2c/macros_2blob_2master_2macros_2g4simulations_2Fun4All__G4__sPHENIX_8C.html" target="_top" xlink:title="macros/blob/master\l/macros/g4simulations\l/Fun4All_G4_sPHENIX.C">
<polygon fill="none" stroke="#000000" points="486,-.5 486,-44.5 621,-44.5 621,-.5 486,-.5"/>
<text text-anchor="start" x="494" y="-31.5" font-family="FreeSans" font-size="10.00" fill="#000000">macros/blob/master</text>
<text text-anchor="start" x="494" y="-19.5" font-family="FreeSans" font-size="10.00" fill="#000000">/macros/g4simulations</text>
<text text-anchor="middle" x="553.5" y="-7.5" font-family="FreeSans" font-size="10.00" fill="#000000">/Fun4All_G4_sPHENIX.C</text>
</a>
</g>
</g>
<!-- Node1&#45;&gt;Node6 -->
<g id="edge6" class="edge">
<title>Node1&#45;&gt;Node6</title>
<path fill="none" stroke="#191970" d="M2103.3896,-194.8228C1764.5151,-188.3843 594.8758,-164.2929 566.5,-138 541.3376,-114.6847 543.8613,-71.4019 548.3966,-44.9526"/>
<polygon fill="#191970" stroke="#191970" points="2103.3473,-198.3225 2113.4119,-195.0126 2103.48,-191.3238 2103.3473,-198.3225"/>
</g>
<!-- Node7 -->
<g id="node7" class="node">
<title>Node7</title>
<g id="a_node7"><a xlink:href="../../d0/d67/macros_2blob_2master_2macros_2g4simulations_2G4Setup__sPHENIX_8C.html" target="_top" xlink:title="macros/blob/master\l/macros/g4simulations\l/G4Setup_sPHENIX.C">
<polygon fill="none" stroke="#000000" points="575.5,-87.5 575.5,-131.5 707.5,-131.5 707.5,-87.5 575.5,-87.5"/>
<text text-anchor="start" x="583.5" y="-118.5" font-family="FreeSans" font-size="10.00" fill="#000000">macros/blob/master</text>
<text text-anchor="start" x="583.5" y="-106.5" font-family="FreeSans" font-size="10.00" fill="#000000">/macros/g4simulations</text>
<text text-anchor="middle" x="641.5" y="-94.5" font-family="FreeSans" font-size="10.00" fill="#000000">/G4Setup_sPHENIX.C</text>
</a>
</g>
</g>
<!-- Node1&#45;&gt;Node7 -->
<g id="edge7" class="edge">
<title>Node1&#45;&gt;Node7</title>
<path fill="none" stroke="#191970" d="M2102.9252,-194.4717C1802.2061,-187.5879 856.4539,-164.0891 721.5,-138 713.3935,-136.4329 705.0055,-134.1876 696.847,-131.6358"/>
<polygon fill="#191970" stroke="#191970" points="2103.2709,-197.9804 2113.3482,-194.7095 2103.4307,-190.9822 2103.2709,-197.9804"/>
</g>
<!-- Node8 -->
<g id="node8" class="node">
<title>Node8</title>
<g id="a_node8"><a xlink:href="../../de/da9/ReadClustersRunTracking_8C.html" target="_top" xlink:title="macros/blob/master\l/macros/g4simulations\l/ReadClustersRunTracking.C">
<polygon fill="none" stroke="#000000" points="650,-.5 650,-44.5 809,-44.5 809,-.5 650,-.5"/>
<text text-anchor="start" x="658" y="-31.5" font-family="FreeSans" font-size="10.00" fill="#000000">macros/blob/master</text>
<text text-anchor="start" x="658" y="-19.5" font-family="FreeSans" font-size="10.00" fill="#000000">/macros/g4simulations</text>
<text text-anchor="middle" x="729.5" y="-7.5" font-family="FreeSans" font-size="10.00" fill="#000000">/ReadClustersRunTracking.C</text>
</a>
</g>
</g>
<!-- Node1&#45;&gt;Node8 -->
<g id="edge10" class="edge">
<title>Node1&#45;&gt;Node8</title>
<path fill="none" stroke="#191970" d="M2103.2083,-195.8408C1794.5394,-193.2177 806.1744,-181.447 754.5,-138 727.6471,-115.4225 725.5134,-71.4731 727.0569,-44.777"/>
<polygon fill="#191970" stroke="#191970" points="2103.4314,-199.3427 2113.4604,-195.9267 2103.4901,-192.3429 2103.4314,-199.3427"/>
</g>
<!-- Node9 -->
<g id="node9" class="node">
<title>Node9</title>
<g id="a_node9"><a xlink:href="../../da/dae/Fun4All__EICAnalysis__DIS_8C.html" target="_top" xlink:title="analysis/blob/master\l/EICAnalysis/macros/diskinematics\l_fun4all/Fun4All_EICAnalysis_DIS.C">
<polygon fill="none" stroke="#000000" points="763.5,-87.5 763.5,-131.5 957.5,-131.5 957.5,-87.5 763.5,-87.5"/>
<text text-anchor="start" x="771.5" y="-118.5" font-family="FreeSans" font-size="10.00" fill="#000000">analysis/blob/master</text>
<text text-anchor="start" x="771.5" y="-106.5" font-family="FreeSans" font-size="10.00" fill="#000000">/EICAnalysis/macros/diskinematics</text>
<text text-anchor="middle" x="860.5" y="-94.5" font-family="FreeSans" font-size="10.00" fill="#000000">_fun4all/Fun4All_EICAnalysis_DIS.C</text>
</a>
</g>
</g>
<!-- Node1&#45;&gt;Node9 -->
<g id="edge11" class="edge">
<title>Node1&#45;&gt;Node9</title>
<path fill="none" stroke="#191970" d="M2103.0375,-194.6914C1857.0984,-189.4213 1185.4312,-172.2378 966.5,-138 956.0507,-136.3659 945.1501,-134.1008 934.485,-131.5551"/>
<polygon fill="#191970" stroke="#191970" points="2103.2969,-198.1976 2113.3691,-194.9112 2103.4458,-191.1992 2103.2969,-198.1976"/>
</g>
<!-- Node10 -->
<g id="node10" class="node">
<title>Node10</title>
<g id="a_node10"><a xlink:href="../../d2/dae/Fun4All__TestBeam__HCAL__SampleFrac_8C.html" target="_top" xlink:title="analysis/blob/master\l/Prototype4/HCal/macros\l/SampleFrac/Fun4All_TestBeam\l_HCAL_SampleFrac.C">
<polygon fill="none" stroke="#000000" points="975.5,-81.5 975.5,-137.5 1149.5,-137.5 1149.5,-81.5 975.5,-81.5"/>
<text text-anchor="start" x="983.5" y="-124.5" font-family="FreeSans" font-size="10.00" fill="#000000">analysis/blob/master</text>
<text text-anchor="start" x="983.5" y="-112.5" font-family="FreeSans" font-size="10.00" fill="#000000">/Prototype4/HCal/macros</text>
<text text-anchor="start" x="983.5" y="-100.5" font-family="FreeSans" font-size="10.00" fill="#000000">/SampleFrac/Fun4All_TestBeam</text>
<text text-anchor="middle" x="1062.5" y="-88.5" font-family="FreeSans" font-size="10.00" fill="#000000">_HCAL_SampleFrac.C</text>
</a>
</g>
</g>
<!-- Node1&#45;&gt;Node10 -->
<g id="edge12" class="edge">
<title>Node1&#45;&gt;Node10</title>
<path fill="none" stroke="#191970" d="M2103.3191,-194.0655C1885.3329,-187.8073 1338.7697,-169.4082 1158.5,-138 1155.5883,-137.4927 1152.64,-136.9271 1149.6727,-136.3132"/>
<polygon fill="#191970" stroke="#191970" points="2103.3526,-197.5678 2113.4483,-194.3544 2103.5522,-190.5707 2103.3526,-197.5678"/>
</g>
<!-- Node11 -->
<g id="node11" class="node">
<title>Node11</title>
<g id="a_node11"><a xlink:href="../../dc/d48/Fun4All__TestBeam__HCAL__ShowerCalib_8C.html" target="_top" xlink:title="analysis/blob/master\l/Prototype4/HCal/macros\l/ShowerCalib/Fun4All_TestBeam\l_HCAL_ShowerCalib.C">
<polygon fill="none" stroke="#000000" points="1167.5,-81.5 1167.5,-137.5 1345.5,-137.5 1345.5,-81.5 1167.5,-81.5"/>
<text text-anchor="start" x="1175.5" y="-124.5" font-family="FreeSans" font-size="10.00" fill="#000000">analysis/blob/master</text>
<text text-anchor="start" x="1175.5" y="-112.5" font-family="FreeSans" font-size="10.00" fill="#000000">/Prototype4/HCal/macros</text>
<text text-anchor="start" x="1175.5" y="-100.5" font-family="FreeSans" font-size="10.00" fill="#000000">/ShowerCalib/Fun4All_TestBeam</text>
<text text-anchor="middle" x="1256.5" y="-88.5" font-family="FreeSans" font-size="10.00" fill="#000000">_HCAL_ShowerCalib.C</text>
</a>
</g>
</g>
<!-- Node1&#45;&gt;Node11 -->
<g id="edge13" class="edge">
<title>Node1&#45;&gt;Node11</title>
<path fill="none" stroke="#191970" d="M2103.1062,-192.6028C1916.2265,-184.2291 1496.0862,-163.2192 1354.5,-138 1351.5345,-137.4718 1348.5307,-136.888 1345.5067,-136.2585"/>
<polygon fill="#191970" stroke="#191970" points="2103.0352,-196.103 2113.1812,-193.0521 2103.3471,-189.11 2103.0352,-196.103"/>
</g>
<!-- Node12 -->
<g id="node12" class="node">
<title>Node12</title>
<g id="a_node12"><a xlink:href="../../d6/dc1/Fun4All__TestBeam__HCAL__TowerCalib_8C.html" target="_top" xlink:title="analysis/blob/master\l/Prototype4/HCal/macros\l/TowerCalib/Fun4All_TestBeam\l_HCAL_TowerCalib.C">
<polygon fill="none" stroke="#000000" points="1363.5,-81.5 1363.5,-137.5 1533.5,-137.5 1533.5,-81.5 1363.5,-81.5"/>
<text text-anchor="start" x="1371.5" y="-124.5" font-family="FreeSans" font-size="10.00" fill="#000000">analysis/blob/master</text>
<text text-anchor="start" x="1371.5" y="-112.5" font-family="FreeSans" font-size="10.00" fill="#000000">/Prototype4/HCal/macros</text>
<text text-anchor="start" x="1371.5" y="-100.5" font-family="FreeSans" font-size="10.00" fill="#000000">/TowerCalib/Fun4All_TestBeam</text>
<text text-anchor="middle" x="1448.5" y="-88.5" font-family="FreeSans" font-size="10.00" fill="#000000">_HCAL_TowerCalib.C</text>
</a>
</g>
</g>
<!-- Node1&#45;&gt;Node12 -->
<g id="edge14" class="edge">
<title>Node1&#45;&gt;Node12</title>
<path fill="none" stroke="#191970" d="M2103.2919,-194.0991C1976.6379,-189.4548 1740.8065,-176.0562 1543.5,-138 1540.2876,-137.3804 1537.0286,-136.6958 1533.7479,-135.9592"/>
<polygon fill="#191970" stroke="#191970" points="2103.2201,-197.5987 2113.3386,-194.4575 2103.4697,-190.6031 2103.2201,-197.5987"/>
</g>
<!-- Node13 -->
<g id="node13" class="node">
<title>Node13</title>
<g id="a_node13"><a xlink:href="../../db/dc0/Fun4All__AnaTutorial_8C.html" target="_top" xlink:title="tutorials/blob/master\l/AnaTutorial/macro/Fun4All\l_AnaTutorial.C">
<polygon fill="none" stroke="#000000" points="1552,-87.5 1552,-131.5 1705,-131.5 1705,-87.5 1552,-87.5"/>
<text text-anchor="start" x="1560" y="-118.5" font-family="FreeSans" font-size="10.00" fill="#000000">tutorials/blob/master</text>
<text text-anchor="start" x="1560" y="-106.5" font-family="FreeSans" font-size="10.00" fill="#000000">/AnaTutorial/macro/Fun4All</text>
<text text-anchor="middle" x="1628.5" y="-94.5" font-family="FreeSans" font-size="10.00" fill="#000000">_AnaTutorial.C</text>
</a>
</g>
</g>
<!-- Node1&#45;&gt;Node13 -->
<g id="edge15" class="edge">
<title>Node1&#45;&gt;Node13</title>
<path fill="none" stroke="#191970" d="M2103.3159,-190.8026C2006.074,-183.4721 1848.0065,-167.9445 1714.5,-138 1706.5192,-136.21 1698.2322,-133.9712 1690.0928,-131.5399"/>
<polygon fill="#191970" stroke="#191970" points="2103.1762,-194.3018 2113.4076,-191.5503 2103.6936,-187.3209 2103.1762,-194.3018"/>
</g>
<!-- Node14 -->
<g id="node14" class="node">
<title>Node14</title>
<g id="a_node14"><a xlink:href="../../dd/d28/Fun4All__AnaTutorial__Jets_8C.html" target="_top" xlink:title="tutorials/blob/master\l/AnaTutorial/macro/Fun4All\l_AnaTutorial_Jets.C">
<polygon fill="none" stroke="#000000" points="1723,-87.5 1723,-131.5 1876,-131.5 1876,-87.5 1723,-87.5"/>
<text text-anchor="start" x="1731" y="-118.5" font-family="FreeSans" font-size="10.00" fill="#000000">tutorials/blob/master</text>
<text text-anchor="start" x="1731" y="-106.5" font-family="FreeSans" font-size="10.00" fill="#000000">/AnaTutorial/macro/Fun4All</text>
<text text-anchor="middle" x="1799.5" y="-94.5" font-family="FreeSans" font-size="10.00" fill="#000000">_AnaTutorial_Jets.C</text>
</a>
</g>
</g>
<!-- Node1&#45;&gt;Node14 -->
<g id="edge16" class="edge">
<title>Node1&#45;&gt;Node14</title>
<path fill="none" stroke="#191970" d="M2103.3643,-182.5194C2041.4547,-172.2244 1957.9704,-156.7795 1885.5,-138 1878.1914,-136.1061 1870.6002,-133.9205 1863.0891,-131.6191"/>
<polygon fill="#191970" stroke="#191970" points="2103.0614,-186.0166 2113.4977,-184.1906 2104.2005,-179.1099 2103.0614,-186.0166"/>
</g>
<!-- Node15 -->
<g id="node15" class="node">
<title>Node15</title>
<g id="a_node15"><a xlink:href="../../de/d55/Fun4All__G4__block_8C.html" target="_top" xlink:title="tutorials/blob/master\l/block/Fun4All_G4_block.C">
<polygon fill="none" stroke="#000000" points="1894.5,-93.5 1894.5,-125.5 2044.5,-125.5 2044.5,-93.5 1894.5,-93.5"/>
<text text-anchor="start" x="1902.5" y="-112.5" font-family="FreeSans" font-size="10.00" fill="#000000">tutorials/blob/master</text>
<text text-anchor="middle" x="1969.5" y="-100.5" font-family="FreeSans" font-size="10.00" fill="#000000">/block/Fun4All_G4_block.C</text>
</a>
</g>
</g>
<!-- Node1&#45;&gt;Node15 -->
<g id="edge17" class="edge">
<title>Node1&#45;&gt;Node15</title>
<path fill="none" stroke="#191970" d="M2127.9779,-170.7781C2090.0237,-156.1025 2043.6367,-138.1662 2010.8826,-125.5013"/>
<polygon fill="#191970" stroke="#191970" points="2126.8428,-174.0917 2137.4321,-174.4338 2129.3674,-167.5628 2126.8428,-174.0917"/>
</g>
<!-- Node16 -->
<g id="node16" class="node">
<title>Node16</title>
<g id="a_node16"><a xlink:href="../../d5/d5a/block_2MyHitTTree_8C.html" target="_top" xlink:title="tutorials/blob/master\l/block/MyHitTTree.C">
<polygon fill="none" stroke="#000000" points="2063,-93.5 2063,-125.5 2186,-125.5 2186,-93.5 2063,-93.5"/>
<text text-anchor="start" x="2071" y="-112.5" font-family="FreeSans" font-size="10.00" fill="#000000">tutorials/blob/master</text>
<text text-anchor="middle" x="2124.5" y="-100.5" font-family="FreeSans" font-size="10.00" fill="#000000">/block/MyHitTTree.C</text>
</a>
</g>
</g>
<!-- Node1&#45;&gt;Node16 -->
<g id="edge18" class="edge">
<title>Node1&#45;&gt;Node16</title>
<path fill="none" stroke="#191970" d="M2170.1951,-166.2924C2159.1599,-152.5773 2146.5555,-136.9118 2137.3837,-125.5126"/>
<polygon fill="#191970" stroke="#191970" points="2167.4775,-168.4982 2176.4733,-174.0953 2172.9314,-164.1101 2167.4775,-168.4982"/>
</g>
<!-- Node17 -->
<g id="node17" class="node">
<title>Node17</title>
<g id="a_node17"><a xlink:href="../../d9/da0/G4TTree_8C.html" target="_top" xlink:title="tutorials/blob/master\l/clusters/G4TTree.C">
<polygon fill="none" stroke="#000000" points="2204,-93.5 2204,-125.5 2327,-125.5 2327,-93.5 2204,-93.5"/>
<text text-anchor="start" x="2212" y="-112.5" font-family="FreeSans" font-size="10.00" fill="#000000">tutorials/blob/master</text>
<text text-anchor="middle" x="2265.5" y="-100.5" font-family="FreeSans" font-size="10.00" fill="#000000">/clusters/G4TTree.C</text>
</a>
</g>
</g>
<!-- Node1&#45;&gt;Node17 -->
<g id="edge19" class="edge">
<title>Node1&#45;&gt;Node17</title>
<path fill="none" stroke="#191970" d="M2219.1522,-166.2924C2230.345,-152.5773 2243.1295,-136.9118 2252.4323,-125.5126"/>
<polygon fill="#191970" stroke="#191970" points="2216.3953,-164.1349 2212.7843,-174.0953 2221.8186,-168.5608 2216.3953,-164.1349"/>
</g>
<!-- Node18 -->
<g id="node18" class="node">
<title>Node18</title>
<g id="a_node18"><a xlink:href="../../d2/dee/Fun4All__G4__Cylinder_8C.html" target="_top" xlink:title="tutorials/blob/master\l/cylinder/Fun4All_G4\l_Cylinder.C">
<polygon fill="none" stroke="#000000" points="2345,-87.5 2345,-131.5 2468,-131.5 2468,-87.5 2345,-87.5"/>
<text text-anchor="start" x="2353" y="-118.5" font-family="FreeSans" font-size="10.00" fill="#000000">tutorials/blob/master</text>
<text text-anchor="start" x="2353" y="-106.5" font-family="FreeSans" font-size="10.00" fill="#000000">/cylinder/Fun4All_G4</text>
<text text-anchor="middle" x="2406.5" y="-94.5" font-family="FreeSans" font-size="10.00" fill="#000000">_Cylinder.C</text>
</a>
</g>
</g>
<!-- Node1&#45;&gt;Node18 -->
<g id="edge20" class="edge">
<title>Node1&#45;&gt;Node18</title>
<path fill="none" stroke="#191970" d="M2257.8773,-170.4914C2288.1153,-158.0824 2323.9055,-143.3949 2352.7867,-131.5427"/>
<polygon fill="#191970" stroke="#191970" points="2256.1931,-167.3992 2248.2706,-174.4338 2258.8507,-173.8751 2256.1931,-167.3992"/>
</g>
<!-- Node19 -->
<g id="node19" class="node">
<title>Node19</title>
<g id="a_node19"><a xlink:href="../../d9/d30/cylinder_2MyHitTTree_8C.html" target="_top" xlink:title="tutorials/blob/master\l/cylinder/MyHitTTree.C">
<polygon fill="none" stroke="#000000" points="2486,-93.5 2486,-125.5 2617,-125.5 2617,-93.5 2486,-93.5"/>
<text text-anchor="start" x="2494" y="-112.5" font-family="FreeSans" font-size="10.00" fill="#000000">tutorials/blob/master</text>
<text text-anchor="middle" x="2551.5" y="-100.5" font-family="FreeSans" font-size="10.00" fill="#000000">/cylinder/MyHitTTree.C</text>
</a>
</g>
</g>
<!-- Node1&#45;&gt;Node19 -->
<g id="edge21" class="edge">
<title>Node1&#45;&gt;Node19</title>
<path fill="none" stroke="#191970" d="M2285.4592,-181.6122C2341.4115,-171.4918 2414.2665,-156.5763 2477.5,-138 2489.388,-134.5076 2502.0634,-129.9483 2513.5032,-125.5039"/>
<polygon fill="#191970" stroke="#191970" points="2284.7959,-178.1752 2275.5693,-183.383 2286.0297,-185.0656 2284.7959,-178.1752"/>
</g>
<!-- Node20 -->
<g id="node20" class="node">
<title>Node20</title>
<g id="a_node20"><a xlink:href="../../df/de1/Fun4All__G4__IonGun_8C.html" target="_top" xlink:title="tutorials/blob/master\l/IonGun/Fun4All_G4_IonGun.C">
<polygon fill="none" stroke="#000000" points="2635,-93.5 2635,-125.5 2804,-125.5 2804,-93.5 2635,-93.5"/>
<text text-anchor="start" x="2643" y="-112.5" font-family="FreeSans" font-size="10.00" fill="#000000">tutorials/blob/master</text>
<text text-anchor="middle" x="2719.5" y="-100.5" font-family="FreeSans" font-size="10.00" fill="#000000">/IonGun/Fun4All_G4_IonGun.C</text>
</a>
</g>
</g>
<!-- Node1&#45;&gt;Node20 -->
<g id="edge22" class="edge">
<title>Node1&#45;&gt;Node20</title>
<path fill="none" stroke="#191970" d="M2285.8187,-188.4908C2373.777,-179.7546 2510.2342,-163.5092 2626.5,-138 2641.6751,-134.6705 2657.954,-130.0533 2672.5836,-125.504"/>
<polygon fill="#191970" stroke="#191970" points="2285.2136,-185.0333 2275.6033,-189.4933 2285.8973,-191.9998 2285.2136,-185.0333"/>
</g>
<!-- Node21 -->
<g id="node21" class="node">
<title>Node21</title>
<g id="a_node21"><a xlink:href="../../d9/d8f/Fun4All__G4__Momentum_8C.html" target="_top" xlink:title="tutorials/blob/master\l/Momentum/Fun4All_G4\l_Momentum.C">
<polygon fill="none" stroke="#000000" points="2822.5,-87.5 2822.5,-131.5 2960.5,-131.5 2960.5,-87.5 2822.5,-87.5"/>
<text text-anchor="start" x="2830.5" y="-118.5" font-family="FreeSans" font-size="10.00" fill="#000000">tutorials/blob/master</text>
<text text-anchor="start" x="2830.5" y="-106.5" font-family="FreeSans" font-size="10.00" fill="#000000">/Momentum/Fun4All_G4</text>
<text text-anchor="middle" x="2891.5" y="-94.5" font-family="FreeSans" font-size="10.00" fill="#000000">_Momentum.C</text>
</a>
</g>
</g>
<!-- Node1&#45;&gt;Node21 -->
<g id="edge23" class="edge">
<title>Node1&#45;&gt;Node21</title>
<path fill="none" stroke="#191970" d="M2285.9872,-190.7396C2433.0783,-180.992 2715.5631,-160.1342 2813.5,-138 2821.0938,-136.2838 2828.9546,-134.0235 2836.6318,-131.525"/>
<polygon fill="#191970" stroke="#191970" points="2285.3831,-187.2717 2275.635,-191.4221 2285.8437,-194.2566 2285.3831,-187.2717"/>
</g>
<!-- Node22 -->
<g id="node22" class="node">
<title>Node22</title>
<g id="a_node22"><a xlink:href="../../d6/dc1/MakeTree_8C.html" target="_top" xlink:title="tutorials/blob/master\l/MyOwnTTree/macro/MakeTree.C">
<polygon fill="none" stroke="#000000" points="2979,-93.5 2979,-125.5 3160,-125.5 3160,-93.5 2979,-93.5"/>
<text text-anchor="start" x="2987" y="-112.5" font-family="FreeSans" font-size="10.00" fill="#000000">tutorials/blob/master</text>
<text text-anchor="middle" x="3069.5" y="-100.5" font-family="FreeSans" font-size="10.00" fill="#000000">/MyOwnTTree/macro/MakeTree.C</text>
</a>
</g>
</g>
<!-- Node1&#45;&gt;Node22 -->
<g id="edge24" class="edge">
<title>Node1&#45;&gt;Node22</title>
<path fill="none" stroke="#191970" d="M2285.5577,-191.9443C2461.1252,-182.7777 2840.4973,-161.0071 2969.5,-138 2986.3834,-134.9889 3004.5072,-130.2879 3020.6258,-125.5658"/>
<polygon fill="#191970" stroke="#191970" points="2285.3715,-188.4492 2275.5667,-192.4638 2285.735,-195.4397 2285.3715,-188.4492"/>
</g>
<!-- Node23 -->
<g id="node23" class="node">
<title>Node23</title>
<g id="a_node23"><a xlink:href="../../dc/d8e/Fun4All__G4__Prototype2_8C.html" target="_top" xlink:title="prototype/blob/master\l/macros/prototype2/Fun4All\l_G4_Prototype2.C">
<polygon fill="none" stroke="#000000" points="3178,-87.5 3178,-131.5 3335,-131.5 3335,-87.5 3178,-87.5"/>
<text text-anchor="start" x="3186" y="-118.5" font-family="FreeSans" font-size="10.00" fill="#000000">prototype/blob/master</text>
<text text-anchor="start" x="3186" y="-106.5" font-family="FreeSans" font-size="10.00" fill="#000000">/macros/prototype2/Fun4All</text>
<text text-anchor="middle" x="3256.5" y="-94.5" font-family="FreeSans" font-size="10.00" fill="#000000">_G4_Prototype2.C</text>
</a>
</g>
</g>
<!-- Node1&#45;&gt;Node23 -->
<g id="edge25" class="edge">
<title>Node1&#45;&gt;Node23</title>
<path fill="none" stroke="#191970" d="M2285.5867,-194.0175C2494.2369,-187.8476 3001.7122,-169.9643 3169.5,-138 3178.0872,-136.3641 3187.0004,-134.1156 3195.703,-131.5933"/>
<polygon fill="#191970" stroke="#191970" points="2285.4716,-190.5192 2275.5786,-194.3112 2285.677,-197.5162 2285.4716,-190.5192"/>
</g>
<!-- Node24 -->
<g id="node24" class="node">
<title>Node24</title>
<g id="a_node24"><a xlink:href="../../d5/d60/prototype_2blob_2master_2macros_2prototype2_2Fun4All__TestBeam_8C.html" target="_top" xlink:title="prototype/blob/master\l/macros/prototype2/Fun4All\l_TestBeam.C">
<polygon fill="none" stroke="#000000" points="3353,-87.5 3353,-131.5 3510,-131.5 3510,-87.5 3353,-87.5"/>
<text text-anchor="start" x="3361" y="-118.5" font-family="FreeSans" font-size="10.00" fill="#000000">prototype/blob/master</text>
<text text-anchor="start" x="3361" y="-106.5" font-family="FreeSans" font-size="10.00" fill="#000000">/macros/prototype2/Fun4All</text>
<text text-anchor="middle" x="3431.5" y="-94.5" font-family="FreeSans" font-size="10.00" fill="#000000">_TestBeam.C</text>
</a>
</g>
</g>
<!-- Node1&#45;&gt;Node24 -->
<g id="edge26" class="edge">
<title>Node1&#45;&gt;Node24</title>
<path fill="none" stroke="#191970" d="M2286.0135,-194.9774C2521.1412,-190.5635 3142.1166,-175.6012 3344.5,-138 3353.2509,-136.3742 3362.3363,-134.0959 3371.1912,-131.5283"/>
<polygon fill="#191970" stroke="#191970" points="2285.7189,-191.4821 2275.7856,-195.1673 2285.8489,-198.4809 2285.7189,-191.4821"/>
</g>
<!-- Node25 -->
<g id="node25" class="node">
<title>Node25</title>
<g id="a_node25"><a xlink:href="../../d7/d40/Fun4All__G4__Prototype3_8C.html" target="_top" xlink:title="prototype/blob/master\l/macros/prototype3/Fun4All\l_G4_Prototype3.C">
<polygon fill="none" stroke="#000000" points="3528,-87.5 3528,-131.5 3685,-131.5 3685,-87.5 3528,-87.5"/>
<text text-anchor="start" x="3536" y="-118.5" font-family="FreeSans" font-size="10.00" fill="#000000">prototype/blob/master</text>
<text text-anchor="start" x="3536" y="-106.5" font-family="FreeSans" font-size="10.00" fill="#000000">/macros/prototype3/Fun4All</text>
<text text-anchor="middle" x="3606.5" y="-94.5" font-family="FreeSans" font-size="10.00" fill="#000000">_G4_Prototype3.C</text>
</a>
</g>
</g>
<!-- Node1&#45;&gt;Node25 -->
<g id="edge27" class="edge">
<title>Node1&#45;&gt;Node25</title>
<path fill="none" stroke="#191970" d="M2286.0016,-195.6961C2545.4024,-192.9032 3282.1306,-181.2788 3519.5,-138 3528.2563,-136.4035 3537.3447,-134.1417 3546.2011,-131.5821"/>
<polygon fill="#191970" stroke="#191970" points="2285.8253,-192.1976 2275.863,-195.8033 2285.8995,-199.1972 2285.8253,-192.1976"/>
</g>
<!-- Node26 -->
<g id="node26" class="node">
<title>Node26</title>
<g id="a_node26"><a xlink:href="../../dc/d42/prototype_2blob_2master_2macros_2prototype3_2Fun4All__TestBeam_8C.html" target="_top" xlink:title="prototype/blob/master\l/macros/prototype3/Fun4All\l_TestBeam.C">
<polygon fill="none" stroke="#000000" points="3703,-87.5 3703,-131.5 3860,-131.5 3860,-87.5 3703,-87.5"/>
<text text-anchor="start" x="3711" y="-118.5" font-family="FreeSans" font-size="10.00" fill="#000000">prototype/blob/master</text>
<text text-anchor="start" x="3711" y="-106.5" font-family="FreeSans" font-size="10.00" fill="#000000">/macros/prototype3/Fun4All</text>
<text text-anchor="middle" x="3781.5" y="-94.5" font-family="FreeSans" font-size="10.00" fill="#000000">_TestBeam.C</text>
</a>
</g>
</g>
<!-- Node1&#45;&gt;Node26 -->
<g id="edge28" class="edge">
<title>Node1&#45;&gt;Node26</title>
<path fill="none" stroke="#191970" d="M2285.6981,-194.4157C2589.5977,-187.2662 3556.432,-162.8069 3694.5,-138 3703.2603,-136.426 3712.3511,-134.1769 3721.2086,-131.6233"/>
<polygon fill="#191970" stroke="#191970" points="2285.5169,-190.9189 2275.6018,-194.6526 2285.6812,-197.917 2285.5169,-190.9189"/>
</g>
<!-- Node27 -->
<g id="node27" class="node">
<title>Node27</title>
<g id="a_node27"><a xlink:href="../../d4/d58/Fun4All__G4__Prototype4_8C.html" target="_top" xlink:title="prototype/blob/master\l/macros/prototype4/Fun4All\l_G4_Prototype4.C">
<polygon fill="none" stroke="#000000" points="3878,-87.5 3878,-131.5 4035,-131.5 4035,-87.5 3878,-87.5"/>
<text text-anchor="start" x="3886" y="-118.5" font-family="FreeSans" font-size="10.00" fill="#000000">prototype/blob/master</text>
<text text-anchor="start" x="3886" y="-106.5" font-family="FreeSans" font-size="10.00" fill="#000000">/macros/prototype4/Fun4All</text>
<text text-anchor="middle" x="3956.5" y="-94.5" font-family="FreeSans" font-size="10.00" fill="#000000">_G4_Prototype4.C</text>
</a>
</g>
</g>
<!-- Node1&#45;&gt;Node27 -->
<g id="edge29" class="edge">
<title>Node1&#45;&gt;Node27</title>
<path fill="none" stroke="#191970" d="M2286.1283,-194.8067C2613.4364,-188.5505 3713.7095,-165.664 3869.5,-138 3878.42,-136.4161 3887.6809,-134.1245 3896.6887,-131.5191"/>
<polygon fill="#191970" stroke="#191970" points="2285.6728,-191.3146 2275.7414,-195.0046 2285.8063,-198.3134 2285.6728,-191.3146"/>
</g>
<!-- Node28 -->
<g id="node28" class="node">
<title>Node28</title>
<g id="a_node28"><a xlink:href="../../d7/d66/prototype_2blob_2master_2macros_2prototype4_2Fun4All__TestBeam_8C.html" target="_top" xlink:title="prototype/blob/master\l/macros/prototype4/Fun4All\l_TestBeam.C">
<polygon fill="none" stroke="#000000" points="4053,-87.5 4053,-131.5 4210,-131.5 4210,-87.5 4053,-87.5"/>
<text text-anchor="start" x="4061" y="-118.5" font-family="FreeSans" font-size="10.00" fill="#000000">prototype/blob/master</text>
<text text-anchor="start" x="4061" y="-106.5" font-family="FreeSans" font-size="10.00" fill="#000000">/macros/prototype4/Fun4All</text>
<text text-anchor="middle" x="4131.5" y="-94.5" font-family="FreeSans" font-size="10.00" fill="#000000">_TestBeam.C</text>
</a>
</g>
</g>
<!-- Node1&#45;&gt;Node28 -->
<g id="edge30" class="edge">
<title>Node1&#45;&gt;Node28</title>
<path fill="none" stroke="#191970" d="M2285.6054,-195.1404C2633.9566,-189.7335 3870.7626,-168.5553 4044.5,-138 4053.4226,-136.4308 4062.685,-134.1474 4071.6934,-131.5458"/>
<polygon fill="#191970" stroke="#191970" points="2285.5049,-191.6415 2275.5602,-195.2958 2285.6132,-198.6406 2285.5049,-191.6415"/>
</g>
<!-- Node29 -->
<g id="node29" class="node">
<title>Node29</title>
<g id="a_node29"><a xlink:href="../../db/d89/ConstructGeometry_8C.html" target="_top" xlink:title="prototype/blob/master\l/macros/tpc2019/ConstructGeometry.C">
<polygon fill="none" stroke="#000000" points="4228.5,-93.5 4228.5,-125.5 4442.5,-125.5 4442.5,-93.5 4228.5,-93.5"/>
<text text-anchor="start" x="4236.5" y="-112.5" font-family="FreeSans" font-size="10.00" fill="#000000">prototype/blob/master</text>
<text text-anchor="middle" x="4335.5" y="-100.5" font-family="FreeSans" font-size="10.00" fill="#000000">/macros/tpc2019/ConstructGeometry.C</text>
</a>
</g>
</g>
<!-- Node1&#45;&gt;Node29 -->
<g id="edge31" class="edge">
<title>Node1&#45;&gt;Node29</title>
<path fill="none" stroke="#191970" d="M2285.6981,-195.0044C2654.7235,-188.7971 4026.7363,-164.1626 4219.5,-138 4239.6384,-135.2667 4261.3576,-130.4496 4280.4961,-125.5446"/>
<polygon fill="#191970" stroke="#191970" points="2285.5367,-191.5065 2275.5968,-195.1739 2285.6542,-198.5055 2285.5367,-191.5065"/>
</g>
<!-- Node30 -->
<g id="node30" class="node">
<title>Node30</title>
<g id="a_node30"><a xlink:href="../../db/da1/Fun4All__G4__TPC_8C.html" target="_top" xlink:title="prototype/blob/master\l/macros/tpc2019/Fun4All\l_G4_TPC.C">
<polygon fill="none" stroke="#000000" points="4461,-87.5 4461,-131.5 4604,-131.5 4604,-87.5 4461,-87.5"/>
<text text-anchor="start" x="4469" y="-118.5" font-family="FreeSans" font-size="10.00" fill="#000000">prototype/blob/master</text>
<text text-anchor="start" x="4469" y="-106.5" font-family="FreeSans" font-size="10.00" fill="#000000">/macros/tpc2019/Fun4All</text>
<text text-anchor="middle" x="4532.5" y="-94.5" font-family="FreeSans" font-size="10.00" fill="#000000">_G4_TPC.C</text>
</a>
</g>
</g>
<!-- Node1&#45;&gt;Node30 -->
<g id="edge32" class="edge">
<title>Node1&#45;&gt;Node30</title>
<path fill="none" stroke="#191970" d="M2285.8502,-195.8136C2681.4328,-192.6134 4236.4485,-177.6037 4451.5,-138 4459.8568,-136.461 4468.5078,-134.1945 4476.9078,-131.6006"/>
<polygon fill="#191970" stroke="#191970" points="2285.574,-192.3157 2275.6025,-195.896 2285.6304,-199.3154 2285.574,-192.3157"/>
</g>
<!-- Node31 -->
<g id="node31" class="node">
<title>Node31</title>
<g id="a_node31"><a xlink:href="../../df/d20/Fun4All__TestBeam__TPC_8C.html" target="_top" xlink:title="prototype/blob/master\l/macros/tpc2019/Fun4All\l_TestBeam_TPC.C">
<polygon fill="none" stroke="#000000" points="4622,-87.5 4622,-131.5 4765,-131.5 4765,-87.5 4622,-87.5"/>
<text text-anchor="start" x="4630" y="-118.5" font-family="FreeSans" font-size="10.00" fill="#000000">prototype/blob/master</text>
<text text-anchor="start" x="4630" y="-106.5" font-family="FreeSans" font-size="10.00" fill="#000000">/macros/tpc2019/Fun4All</text>
<text text-anchor="middle" x="4693.5" y="-94.5" font-family="FreeSans" font-size="10.00" fill="#000000">_TestBeam_TPC.C</text>
</a>
</g>
</g>
<!-- Node1&#45;&gt;Node31 -->
<g id="edge33" class="edge">
<title>Node1&#45;&gt;Node31</title>
<path fill="none" stroke="#191970" d="M2285.8788,-196.0056C2698.9767,-193.5386 4381.8675,-180.9175 4613.5,-138 4621.7634,-136.4689 4630.3131,-134.2068 4638.6118,-131.615"/>
<polygon fill="#191970" stroke="#191970" points="2285.7532,-192.5062 2275.7741,-196.0654 2285.7947,-199.5061 2285.7532,-192.5062"/>
</g>
<!-- Node4&#45;&gt;Node3 -->
<g id="edge4" class="edge">
<title>Node4&#45;&gt;Node3</title>
<path fill="none" stroke="#191970" d="M274.8112,-78.0933C268.5469,-66.9711 261.6374,-54.7032 255.9063,-44.5276"/>
<polygon fill="#191970" stroke="#191970" points="271.9243,-80.0998 279.8813,-87.0953 278.0234,-76.6647 271.9243,-80.0998"/>
</g>
<!-- Node7&#45;&gt;Node6 -->
<g id="edge8" class="edge">
<title>Node7&#45;&gt;Node6</title>
<path fill="none" stroke="#191970" d="M611.4107,-79.7526C599.7285,-68.2031 586.5879,-55.2119 575.7808,-44.5276"/>
<polygon fill="#191970" stroke="#191970" points="609.2657,-82.5537 618.8378,-87.0953 614.1871,-77.5758 609.2657,-82.5537"/>
</g>
<!-- Node7&#45;&gt;Node8 -->
<g id="edge9" class="edge">
<title>Node7&#45;&gt;Node8</title>
<path fill="none" stroke="#191970" d="M671.5893,-79.7526C683.2715,-68.2031 696.4121,-55.2119 707.2192,-44.5276"/>
<polygon fill="#191970" stroke="#191970" points="668.8129,-77.5758 664.1622,-87.0953 673.7343,-82.5537 668.8129,-77.5758"/>
</g>
</g>
</svg>
