<?xml version="1.0" encoding="UTF-8" standalone="no"?>
<!DOCTYPE svg PUBLIC "-//W3C//DTD SVG 1.1//EN"
 "http://www.w3.org/Graphics/SVG/1.1/DTD/svg11.dtd">
<!-- Generated by graphviz version 2.40.1 (20161225.0304)
 -->
<!-- Title: PHGenFitTrackProjection::process_event Pages: 1 -->
<svg width="663pt" height="1676pt"
 viewBox="0.00 0.00 663.00 1676.00" xmlns="http://www.w3.org/2000/svg" xmlns:xlink="http://www.w3.org/1999/xlink">
<g id="graph0" class="graph" transform="scale(1 1) rotate(0) translate(4 1672)">
<title>PHGenFitTrackProjection::process_event</title>
<!-- Node1 -->
<g id="node1" class="node">
<title>Node1</title>
<polygon fill="#bfbfbf" stroke="#000000" points="0,-859.5 0,-891.5 138,-891.5 138,-859.5 0,-859.5"/>
<text text-anchor="start" x="8" y="-878.5" font-family="FreeSans" font-size="10.00" fill="#000000">PHGenFitTrackProjection</text>
<text text-anchor="middle" x="69" y="-866.5" font-family="FreeSans" font-size="10.00" fill="#000000">::process_event</text>
</g>
<!-- Node2 -->
<g id="node2" class="node">
<title>Node2</title>
<g id="a_node2"><a xlink:href="../../d7/d8b/classSvtxTrackMap.html#a8c16bb47fdace6d5516d1803ffe54706" target="_top" xlink:title="SvtxTrackMap::begin">
<polygon fill="none" stroke="#000000" points="187,-1647.5 187,-1667.5 308,-1667.5 308,-1647.5 187,-1647.5"/>
<text text-anchor="middle" x="247.5" y="-1654.5" font-family="FreeSans" font-size="10.00" fill="#000000">SvtxTrackMap::begin</text>
</a>
</g>
</g>
<!-- Node1&#45;&gt;Node2 -->
<g id="edge1" class="edge">
<title>Node1&#45;&gt;Node2</title>
<path fill="none" stroke="#191970" d="M70.1609,-891.7991C77.8102,-997.2417 122.2716,-1580.3817 174,-1638.5 175.3473,-1640.0137 176.7978,-1641.4141 178.3344,-1642.7093"/>
<polygon fill="#191970" stroke="#191970" points="176.4123,-1645.6348 186.6541,-1648.3472 180.3392,-1639.8399 176.4123,-1645.6348"/>
</g>
<!-- Node3 -->
<g id="node3" class="node">
<title>Node3</title>
<g id="a_node3"><a xlink:href="../../d7/d8b/classSvtxTrackMap.html#a1c7ae993700819b7d0a8e3f3d74fa99c" target="_top" xlink:title="SvtxTrackMap::end">
<polygon fill="none" stroke="#000000" points="191.5,-1608.5 191.5,-1628.5 303.5,-1628.5 303.5,-1608.5 191.5,-1608.5"/>
<text text-anchor="middle" x="247.5" y="-1615.5" font-family="FreeSans" font-size="10.00" fill="#000000">SvtxTrackMap::end</text>
</a>
</g>
</g>
<!-- Node1&#45;&gt;Node3 -->
<g id="edge2" class="edge">
<title>Node1&#45;&gt;Node3</title>
<path fill="none" stroke="#191970" d="M70.2724,-891.6202C78.4444,-993.4167 124.7709,-1544.5928 174,-1599.5 176.4498,-1602.2323 179.2362,-1604.5951 182.2569,-1606.6363"/>
<polygon fill="#191970" stroke="#191970" points="180.8516,-1609.8567 191.3058,-1611.5775 184.2065,-1603.713 180.8516,-1609.8567"/>
</g>
<!-- Node4 -->
<g id="node4" class="node">
<title>Node4</title>
<g id="a_node4"><a xlink:href="../../d2/db8/classSvtxTrack.html#a2c1a7863a506e3133e6bc0259c89c741" target="_top" xlink:title="SvtxTrack::end_states">
<polygon fill="none" stroke="#000000" points="184,-1569.5 184,-1589.5 311,-1589.5 311,-1569.5 184,-1569.5"/>
<text text-anchor="middle" x="247.5" y="-1576.5" font-family="FreeSans" font-size="10.00" fill="#000000">SvtxTrack::end_states</text>
</a>
</g>
</g>
<!-- Node1&#45;&gt;Node4 -->
<g id="edge3" class="edge">
<title>Node1&#45;&gt;Node4</title>
<path fill="none" stroke="#191970" d="M69.1542,-891.7784C70.376,-985.701 81.1206,-1457.7459 174,-1560.5 174.8948,-1561.49 175.8339,-1562.4314 176.8122,-1563.3265"/>
<polygon fill="#191970" stroke="#191970" points="174.8642,-1566.238 185.0009,-1569.3202 178.9987,-1560.5895 174.8642,-1566.238"/>
</g>
<!-- Node5 -->
<g id="node5" class="node">
<title>Node5</title>
<g id="a_node5"><a xlink:href="../../d2/db8/classSvtxTrack.html#ab6a08270648338e6acee123ddbeea833" target="_top" xlink:title="SvtxTrack::get_charge">
<polygon fill="none" stroke="#000000" points="183.5,-1530.5 183.5,-1550.5 311.5,-1550.5 311.5,-1530.5 183.5,-1530.5"/>
<text text-anchor="middle" x="247.5" y="-1537.5" font-family="FreeSans" font-size="10.00" fill="#000000">SvtxTrack::get_charge</text>
</a>
</g>
</g>
<!-- Node1&#45;&gt;Node5 -->
<g id="edge4" class="edge">
<title>Node1&#45;&gt;Node5</title>
<path fill="none" stroke="#191970" d="M69.3178,-891.7368C71.4221,-982.3766 86.1336,-1425.1697 174,-1521.5 174.9243,-1522.5133 175.8949,-1523.4756 176.9065,-1524.3895"/>
<polygon fill="#191970" stroke="#191970" points="175.2163,-1527.4853 185.3773,-1530.486 179.3054,-1521.8037 175.2163,-1527.4853"/>
</g>
<!-- Node6 -->
<g id="node6" class="node">
<title>Node6</title>
<g id="a_node6"><a xlink:href="../../d6/dc7/group__getters.html#gaeb5c6c01b9f2f1d716e9ddaf89f64c91" target="_top" xlink:title="total energy">
<polygon fill="none" stroke="#000000" points="179.5,-1491.5 179.5,-1511.5 315.5,-1511.5 315.5,-1491.5 179.5,-1491.5"/>
<text text-anchor="middle" x="247.5" y="-1498.5" font-family="FreeSans" font-size="10.00" fill="#000000">RawCluster::get_energy</text>
</a>
</g>
</g>
<!-- Node1&#45;&gt;Node6 -->
<g id="edge5" class="edge">
<title>Node1&#45;&gt;Node6</title>
<path fill="none" stroke="#191970" d="M69.4983,-891.6112C72.5172,-978.6968 91.1098,-1392.547 174,-1482.5 174.9294,-1483.5086 175.9047,-1484.4666 176.9206,-1485.3765"/>
<polygon fill="#191970" stroke="#191970" points="175.2466,-1488.482 185.4174,-1491.4493 179.3169,-1482.787 175.2466,-1488.482"/>
</g>
<!-- Node7 -->
<g id="node7" class="node">
<title>Node7</title>
<g id="a_node7"><a xlink:href="../../d9/dd8/classRawTower.html#ab23195d58fefabd9162115afa96707cc" target="_top" xlink:title="energy assigned to the tower. Depending on stage of process and DST node name, it could be energy dep...">
<polygon fill="none" stroke="#000000" points="182.5,-1452.5 182.5,-1472.5 312.5,-1472.5 312.5,-1452.5 182.5,-1452.5"/>
<text text-anchor="middle" x="247.5" y="-1459.5" font-family="FreeSans" font-size="10.00" fill="#000000">RawTower::get_energy</text>
</a>
</g>
</g>
<!-- Node1&#45;&gt;Node7 -->
<g id="edge6" class="edge">
<title>Node1&#45;&gt;Node7</title>
<path fill="none" stroke="#191970" d="M69.7091,-891.6722C73.7098,-975.5069 96.1334,-1359.9684 174,-1443.5 174.9352,-1444.5032 175.9158,-1445.4563 176.9366,-1446.3616"/>
<polygon fill="#191970" stroke="#191970" points="175.2808,-1449.4781 185.4626,-1452.4074 179.3298,-1443.768 175.2808,-1449.4781"/>
</g>
<!-- Node8 -->
<g id="node8" class="node">
<title>Node8</title>
<g id="a_node8"><a xlink:href="../../d2/dac/classSvtxTrackState.html#a0c2f9473cd23f4f3bcce11ba7c198407" target="_top" xlink:title="SvtxTrackState::get\l_error">
<polygon fill="none" stroke="#000000" points="190,-1401.5 190,-1433.5 305,-1433.5 305,-1401.5 190,-1401.5"/>
<text text-anchor="start" x="198" y="-1420.5" font-family="FreeSans" font-size="10.00" fill="#000000">SvtxTrackState::get</text>
<text text-anchor="middle" x="247.5" y="-1408.5" font-family="FreeSans" font-size="10.00" fill="#000000">_error</text>
</a>
</g>
</g>
<!-- Node1&#45;&gt;Node8 -->
<g id="edge7" class="edge">
<title>Node1&#45;&gt;Node8</title>
<path fill="none" stroke="#191970" d="M70.1513,-891.6721C76.0775,-970.6018 105.5522,-1314.7181 174,-1392.5 176.226,-1395.0296 178.7183,-1397.3036 181.4034,-1399.3477"/>
<polygon fill="#191970" stroke="#191970" points="179.6531,-1402.3827 189.9646,-1404.8163 183.4213,-1396.4835 179.6531,-1402.3827"/>
</g>
<!-- Node9 -->
<g id="node9" class="node">
<title>Node9</title>
<g id="a_node9"><a xlink:href="../../d2/db8/classSvtxTrack.html#a991a05caa213e0922d00c76568dade57" target="_top" xlink:title="SvtxTrack::get_eta">
<polygon fill="none" stroke="#000000" points="193,-1362.5 193,-1382.5 302,-1382.5 302,-1362.5 193,-1362.5"/>
<text text-anchor="middle" x="247.5" y="-1369.5" font-family="FreeSans" font-size="10.00" fill="#000000">SvtxTrack::get_eta</text>
</a>
</g>
</g>
<!-- Node1&#45;&gt;Node9 -->
<g id="edge8" class="edge">
<title>Node1&#45;&gt;Node9</title>
<path fill="none" stroke="#191970" d="M70.3064,-891.551C76.7557,-966.8843 107.5901,-1284.6046 174,-1353.5 176.8512,-1356.458 180.0979,-1358.9773 183.6014,-1361.1209"/>
<polygon fill="#191970" stroke="#191970" points="182.2519,-1364.3595 192.7602,-1365.7114 185.3885,-1358.1016 182.2519,-1364.3595"/>
</g>
<!-- Node10 -->
<g id="node10" class="node">
<title>Node10</title>
<g id="a_node10"><a xlink:href="../../d0/d25/group__cylindrical__calorimeter.html#ga3ea5ca162fdc4aef33e043a5fe932170" target="_top" xlink:title="RawTowerGeomContainer\l::get_etabin">
<polygon fill="none" stroke="#000000" points="174,-1311.5 174,-1343.5 321,-1343.5 321,-1311.5 174,-1311.5"/>
<text text-anchor="start" x="182" y="-1330.5" font-family="FreeSans" font-size="10.00" fill="#000000">RawTowerGeomContainer</text>
<text text-anchor="middle" x="247.5" y="-1318.5" font-family="FreeSans" font-size="10.00" fill="#000000">::get_etabin</text>
</a>
</g>
</g>
<!-- Node1&#45;&gt;Node10 -->
<g id="edge9" class="edge">
<title>Node1&#45;&gt;Node10</title>
<path fill="none" stroke="#191970" d="M70.917,-891.8292C79.4956,-962.315 116.4777,-1239.7584 174,-1302.5 174.7742,-1303.3445 175.5781,-1304.1604 176.4087,-1304.9488"/>
<polygon fill="#191970" stroke="#191970" points="174.5049,-1307.9039 184.5317,-1311.3264 178.8277,-1302.3981 174.5049,-1307.9039"/>
</g>
<!-- Node11 -->
<g id="node11" class="node">
<title>Node11</title>
<g id="a_node11"><a xlink:href="../../d0/d25/group__cylindrical__calorimeter.html#ga3d283957eb2f3bc0b27e3217d37b8dfb" target="_top" xlink:title="RawTowerGeomContainer\l::get_etabins">
<polygon fill="none" stroke="#000000" points="174,-1260.5 174,-1292.5 321,-1292.5 321,-1260.5 174,-1260.5"/>
<text text-anchor="start" x="182" y="-1279.5" font-family="FreeSans" font-size="10.00" fill="#000000">RawTowerGeomContainer</text>
<text text-anchor="middle" x="247.5" y="-1267.5" font-family="FreeSans" font-size="10.00" fill="#000000">::get_etabins</text>
</a>
</g>
</g>
<!-- Node1&#45;&gt;Node11 -->
<g id="edge10" class="edge">
<title>Node1&#45;&gt;Node11</title>
<path fill="none" stroke="#191970" d="M71.4653,-891.6119C81.6757,-956.4075 122.5345,-1197.0935 174,-1251.5 174.9118,-1252.4639 175.8621,-1253.3906 176.8466,-1254.2815"/>
<polygon fill="#191970" stroke="#191970" points="174.905,-1257.2012 184.9939,-1260.4362 179.1244,-1251.6158 174.905,-1257.2012"/>
</g>
<!-- Node12 -->
<g id="node12" class="node">
<title>Node12</title>
<g id="a_node12"><a xlink:href="../../d2/db8/classSvtxTrack.html#a5f934a41fd25eaa343dd267112b4537d" target="_top" xlink:title="SvtxTrack::get_id">
<polygon fill="none" stroke="#000000" points="196.5,-1221.5 196.5,-1241.5 298.5,-1241.5 298.5,-1221.5 196.5,-1221.5"/>
<text text-anchor="middle" x="247.5" y="-1228.5" font-family="FreeSans" font-size="10.00" fill="#000000">SvtxTrack::get_id</text>
</a>
</g>
</g>
<!-- Node1&#45;&gt;Node12 -->
<g id="edge11" class="edge">
<title>Node1&#45;&gt;Node12</title>
<path fill="none" stroke="#191970" d="M71.9005,-891.6845C83.1101,-952.4993 125.4013,-1166.2296 174,-1212.5 177.7809,-1216.0997 182.1513,-1219.0404 186.8384,-1221.4398"/>
<polygon fill="#191970" stroke="#191970" points="185.5988,-1224.716 196.1704,-1225.4176 188.3437,-1218.2766 185.5988,-1224.716"/>
</g>
<!-- Node13 -->
<g id="node13" class="node">
<title>Node13</title>
<g id="a_node13"><a xlink:href="../../d6/dc7/group__getters.html#ga01beaccbc8f598673db35c68f5a73609" target="_top" xlink:title="access to intrinsic cylindrical coordinate system">
<polygon fill="none" stroke="#000000" points="189.5,-1182.5 189.5,-1202.5 305.5,-1202.5 305.5,-1182.5 189.5,-1182.5"/>
<text text-anchor="middle" x="247.5" y="-1189.5" font-family="FreeSans" font-size="10.00" fill="#000000">RawCluster::get_phi</text>
</a>
</g>
</g>
<!-- Node1&#45;&gt;Node13 -->
<g id="edge12" class="edge">
<title>Node1&#45;&gt;Node13</title>
<path fill="none" stroke="#191970" d="M69.6257,-891.562C72.4653,-941.3852 88.1177,-1094.6875 174,-1173.5 175.9543,-1175.2934 178.0555,-1176.9223 180.2686,-1178.4013"/>
<polygon fill="#191970" stroke="#191970" points="178.8405,-1181.6114 189.2841,-1183.3951 182.2323,-1175.488 178.8405,-1181.6114"/>
</g>
<!-- Node14 -->
<g id="node14" class="node">
<title>Node14</title>
<g id="a_node14"><a xlink:href="../../d2/db8/classSvtxTrack.html#a8ffb0c9b9181cc2dedd6e21f4b462129" target="_top" xlink:title="SvtxTrack::get_phi">
<polygon fill="none" stroke="#000000" points="193,-1143.5 193,-1163.5 302,-1163.5 302,-1143.5 193,-1143.5"/>
<text text-anchor="middle" x="247.5" y="-1150.5" font-family="FreeSans" font-size="10.00" fill="#000000">SvtxTrack::get_phi</text>
</a>
</g>
</g>
<!-- Node1&#45;&gt;Node14 -->
<g id="edge13" class="edge">
<title>Node1&#45;&gt;Node14</title>
<path fill="none" stroke="#191970" d="M70.6041,-891.7284C76.0047,-937.3387 97.7153,-1067.6873 174,-1134.5 176.897,-1137.0373 180.0901,-1139.2429 183.4741,-1141.1594"/>
<polygon fill="#191970" stroke="#191970" points="182.2701,-1144.4621 192.8051,-1145.587 185.271,-1138.138 182.2701,-1144.4621"/>
</g>
<!-- Node15 -->
<g id="node15" class="node">
<title>Node15</title>
<g id="a_node15"><a xlink:href="../../d0/d25/group__cylindrical__calorimeter.html#gabb19fa77925744d525f54a5988be7fac" target="_top" xlink:title="RawTowerGeomContainer\l::get_phibin">
<polygon fill="none" stroke="#000000" points="174,-1092.5 174,-1124.5 321,-1124.5 321,-1092.5 174,-1092.5"/>
<text text-anchor="start" x="182" y="-1111.5" font-family="FreeSans" font-size="10.00" fill="#000000">RawTowerGeomContainer</text>
<text text-anchor="middle" x="247.5" y="-1099.5" font-family="FreeSans" font-size="10.00" fill="#000000">::get_phibin</text>
</a>
</g>
</g>
<!-- Node1&#45;&gt;Node15 -->
<g id="edge14" class="edge">
<title>Node1&#45;&gt;Node15</title>
<path fill="none" stroke="#191970" d="M72.669,-891.627C82.315,-930.4029 112.026,-1029.6268 174,-1083.5 175.4877,-1084.7932 177.0453,-1086.0203 178.6599,-1087.1845"/>
<polygon fill="#191970" stroke="#191970" points="176.8157,-1090.1592 187.1493,-1092.4976 180.5293,-1084.2255 176.8157,-1090.1592"/>
</g>
<!-- Node16 -->
<g id="node16" class="node">
<title>Node16</title>
<g id="a_node16"><a xlink:href="../../d0/d25/group__cylindrical__calorimeter.html#gab9c3a0fa996fffad8aa107d62d5b26b6" target="_top" xlink:title="RawTowerGeomContainer\l::get_phibins">
<polygon fill="none" stroke="#000000" points="174,-1041.5 174,-1073.5 321,-1073.5 321,-1041.5 174,-1041.5"/>
<text text-anchor="start" x="182" y="-1060.5" font-family="FreeSans" font-size="10.00" fill="#000000">RawTowerGeomContainer</text>
<text text-anchor="middle" x="247.5" y="-1048.5" font-family="FreeSans" font-size="10.00" fill="#000000">::get_phibins</text>
</a>
</g>
</g>
<!-- Node1&#45;&gt;Node16 -->
<g id="edge15" class="edge">
<title>Node1&#45;&gt;Node16</title>
<path fill="none" stroke="#191970" d="M75.6131,-891.8507C89.2566,-923.5779 123.535,-993.7693 174,-1032.5 175.7809,-1033.8668 177.6413,-1035.1616 179.5631,-1036.388"/>
<polygon fill="#191970" stroke="#191970" points="177.8997,-1039.4681 188.3282,-1041.3377 181.3417,-1033.3728 177.8997,-1039.4681"/>
</g>
<!-- Node17 -->
<g id="node17" class="node">
<title>Node17</title>
<g id="a_node17"><a xlink:href="../../d2/db8/classSvtxTrack.html#af6f03ad537260f2ceef84cf876e22deb" target="_top" xlink:title="SvtxTrack::get_pt">
<polygon fill="none" stroke="#000000" points="195.5,-1002.5 195.5,-1022.5 299.5,-1022.5 299.5,-1002.5 195.5,-1002.5"/>
<text text-anchor="middle" x="247.5" y="-1009.5" font-family="FreeSans" font-size="10.00" fill="#000000">SvtxTrack::get_pt</text>
</a>
</g>
</g>
<!-- Node1&#45;&gt;Node17 -->
<g id="edge16" class="edge">
<title>Node1&#45;&gt;Node17</title>
<path fill="none" stroke="#191970" d="M78.7591,-891.593C95.1506,-917.2091 130.7052,-967.0571 174,-993.5 177.6696,-995.7413 181.5977,-997.7199 185.6586,-999.4663"/>
<polygon fill="#191970" stroke="#191970" points="184.7253,-1002.8558 195.3165,-1003.1345 187.2108,-996.3119 184.7253,-1002.8558"/>
</g>
<!-- Node18 -->
<g id="node18" class="node">
<title>Node18</title>
<g id="a_node18"><a xlink:href="../../d2/dac/classSvtxTrackState.html#a90ec49cc2f193b8a18c222924d0d9864" target="_top" xlink:title="SvtxTrackState::get_px">
<polygon fill="none" stroke="#000000" points="181.5,-963.5 181.5,-983.5 313.5,-983.5 313.5,-963.5 181.5,-963.5"/>
<text text-anchor="middle" x="247.5" y="-970.5" font-family="FreeSans" font-size="10.00" fill="#000000">SvtxTrackState::get_px</text>
</a>
</g>
</g>
<!-- Node1&#45;&gt;Node18 -->
<g id="edge17" class="edge">
<title>Node1&#45;&gt;Node18</title>
<path fill="none" stroke="#191970" d="M85.8038,-891.5099C105.4532,-909.3834 139.6791,-937.9637 174,-954.5 178.3709,-956.606 183.0047,-958.4992 187.7352,-960.1972"/>
<polygon fill="#191970" stroke="#191970" points="186.9351,-963.6184 197.528,-963.4143 189.1199,-956.968 186.9351,-963.6184"/>
</g>
<!-- Node19 -->
<g id="node19" class="node">
<title>Node19</title>
<g id="a_node19"><a xlink:href="../../d2/dac/classSvtxTrackState.html#a50a9eb1d16c05e5a491d3601dbac29cc" target="_top" xlink:title="SvtxTrackState::get_py">
<polygon fill="none" stroke="#000000" points="181.5,-924.5 181.5,-944.5 313.5,-944.5 313.5,-924.5 181.5,-924.5"/>
<text text-anchor="middle" x="247.5" y="-931.5" font-family="FreeSans" font-size="10.00" fill="#000000">SvtxTrackState::get_py</text>
</a>
</g>
</g>
<!-- Node1&#45;&gt;Node19 -->
<g id="edge18" class="edge">
<title>Node1&#45;&gt;Node19</title>
<path fill="none" stroke="#191970" d="M108.0249,-891.5507C127.6387,-899.3136 151.8822,-908.4523 174,-915.5 180.9068,-917.7008 188.2384,-919.8329 195.4935,-921.8243"/>
<polygon fill="#191970" stroke="#191970" points="194.7275,-925.2424 205.2923,-924.4459 196.5367,-918.4803 194.7275,-925.2424"/>
</g>
<!-- Node20 -->
<g id="node20" class="node">
<title>Node20</title>
<g id="a_node20"><a xlink:href="../../d2/dac/classSvtxTrackState.html#a694965552056ceac9c3da88d9cdded9c" target="_top" xlink:title="SvtxTrackState::get_pz">
<polygon fill="none" stroke="#000000" points="181.5,-885.5 181.5,-905.5 313.5,-905.5 313.5,-885.5 181.5,-885.5"/>
<text text-anchor="middle" x="247.5" y="-892.5" font-family="FreeSans" font-size="10.00" fill="#000000">SvtxTrackState::get_pz</text>
</a>
</g>
</g>
<!-- Node1&#45;&gt;Node20 -->
<g id="edge19" class="edge">
<title>Node1&#45;&gt;Node20</title>
<path fill="none" stroke="#191970" d="M138.0128,-883.2325C148.904,-884.4528 160.2196,-885.7207 171.2636,-886.9581"/>
<polygon fill="#191970" stroke="#191970" points="170.9821,-890.4484 181.3096,-888.0837 171.7616,-883.4919 170.9821,-890.4484"/>
</g>
<!-- Node21 -->
<g id="node21" class="node">
<title>Node21</title>
<g id="a_node21"><a xlink:href="../../d2/dac/classSvtxTrackState.html#a0ce6512ed8f63cfa5b4d021cb9e6099b" target="_top" xlink:title="SvtxTrackState::get_x">
<polygon fill="none" stroke="#000000" points="184.5,-846.5 184.5,-866.5 310.5,-866.5 310.5,-846.5 184.5,-846.5"/>
<text text-anchor="middle" x="247.5" y="-853.5" font-family="FreeSans" font-size="10.00" fill="#000000">SvtxTrackState::get_x</text>
</a>
</g>
</g>
<!-- Node1&#45;&gt;Node21 -->
<g id="edge20" class="edge">
<title>Node1&#45;&gt;Node21</title>
<path fill="none" stroke="#191970" d="M138.0128,-868.1541C149.8927,-866.8896 162.2776,-865.5713 174.2641,-864.2954"/>
<polygon fill="#191970" stroke="#191970" points="174.6458,-867.7746 184.2192,-863.2358 173.9049,-860.814 174.6458,-867.7746"/>
</g>
<!-- Node22 -->
<g id="node22" class="node">
<title>Node22</title>
<g id="a_node22"><a xlink:href="../../d2/dac/classSvtxTrackState.html#ae114ff5fe76c67eca4c7d679df5ba67c" target="_top" xlink:title="SvtxTrackState::get_y">
<polygon fill="none" stroke="#000000" points="184.5,-807.5 184.5,-827.5 310.5,-827.5 310.5,-807.5 184.5,-807.5"/>
<text text-anchor="middle" x="247.5" y="-814.5" font-family="FreeSans" font-size="10.00" fill="#000000">SvtxTrackState::get_y</text>
</a>
</g>
</g>
<!-- Node1&#45;&gt;Node22 -->
<g id="edge21" class="edge">
<title>Node1&#45;&gt;Node22</title>
<path fill="none" stroke="#191970" d="M110.8825,-859.4557C130.0058,-852.3596 153.0218,-844.1381 174,-837.5 181.7984,-835.0324 190.119,-832.5897 198.2542,-830.3039"/>
<polygon fill="#191970" stroke="#191970" points="199.3302,-833.6378 208.038,-827.6024 197.4671,-826.8903 199.3302,-833.6378"/>
</g>
<!-- Node23 -->
<g id="node23" class="node">
<title>Node23</title>
<g id="a_node23"><a xlink:href="../../d2/dac/classSvtxTrackState.html#a03b70edad9df096ac77bc022be0ba3a3" target="_top" xlink:title="SvtxTrackState::get_z">
<polygon fill="none" stroke="#000000" points="185,-768.5 185,-788.5 310,-788.5 310,-768.5 185,-768.5"/>
<text text-anchor="middle" x="247.5" y="-775.5" font-family="FreeSans" font-size="10.00" fill="#000000">SvtxTrackState::get_z</text>
</a>
</g>
</g>
<!-- Node1&#45;&gt;Node23 -->
<g id="edge22" class="edge">
<title>Node1&#45;&gt;Node23</title>
<path fill="none" stroke="#191970" d="M86.634,-859.3684C106.4944,-842.0027 140.4014,-814.6973 174,-798.5 179.2656,-795.9615 184.9042,-793.7034 190.63,-791.7044"/>
<polygon fill="#191970" stroke="#191970" points="191.8579,-794.9859 200.2978,-788.5814 189.7061,-788.3249 191.8579,-794.9859"/>
</g>
<!-- Node24 -->
<g id="node24" class="node">
<title>Node24</title>
<g id="a_node24"><a xlink:href="../../da/dc3/namespacefindNode.html#af4793f47e215cb6b0d51e0a9303a4382" target="_top" xlink:title="findNode::getClass">
<polygon fill="none" stroke="#000000" points="191.5,-729.5 191.5,-749.5 303.5,-749.5 303.5,-729.5 191.5,-729.5"/>
<text text-anchor="middle" x="247.5" y="-736.5" font-family="FreeSans" font-size="10.00" fill="#000000">findNode::getClass</text>
</a>
</g>
</g>
<!-- Node1&#45;&gt;Node24 -->
<g id="edge23" class="edge">
<title>Node1&#45;&gt;Node24</title>
<path fill="none" stroke="#191970" d="M79.1359,-859.3376C95.7944,-834.1306 131.4,-785.6419 174,-759.5 177.8446,-757.1407 181.9695,-755.0551 186.2318,-753.2121"/>
<polygon fill="#191970" stroke="#191970" points="187.6543,-756.4149 195.7266,-749.5529 185.137,-749.8831 187.6543,-756.4149"/>
</g>
<!-- Node29 -->
<g id="node29" class="node">
<title>Node29</title>
<g id="a_node29"><a xlink:href="../../d6/d12/classRawClusterContainer.html#a0e6e107bd231fd090d5a42cf36db041a" target="_top" xlink:title="RawClusterContainer\l::getClustersMap">
<polygon fill="none" stroke="#000000" points="186,-678.5 186,-710.5 309,-710.5 309,-678.5 186,-678.5"/>
<text text-anchor="start" x="194" y="-697.5" font-family="FreeSans" font-size="10.00" fill="#000000">RawClusterContainer</text>
<text text-anchor="middle" x="247.5" y="-685.5" font-family="FreeSans" font-size="10.00" fill="#000000">::getClustersMap</text>
</a>
</g>
</g>
<!-- Node1&#45;&gt;Node29 -->
<g id="edge29" class="edge">
<title>Node1&#45;&gt;Node29</title>
<path fill="none" stroke="#191970" d="M75.7121,-859.4119C89.5292,-828.1838 124.0976,-759.0455 174,-720.5 176.3097,-718.7159 178.7518,-717.0479 181.2876,-715.4891"/>
<polygon fill="#191970" stroke="#191970" points="183.1247,-718.4735 190.2138,-710.5998 179.7619,-712.3342 183.1247,-718.4735"/>
</g>
<!-- Node30 -->
<g id="node30" class="node">
<title>Node30</title>
<g id="a_node30"><a xlink:href="../../de/d8e/classgenfit_1_1FieldManager.html#a7432ac0fd7ad0d3249ca4546a8ead6cb" target="_top" xlink:title="This does NOT use the cache!">
<polygon fill="none" stroke="#000000" points="187,-627.5 187,-659.5 308,-659.5 308,-627.5 187,-627.5"/>
<text text-anchor="start" x="195" y="-646.5" font-family="FreeSans" font-size="10.00" fill="#000000">genfit::FieldManager</text>
<text text-anchor="middle" x="247.5" y="-634.5" font-family="FreeSans" font-size="10.00" fill="#000000">::getFieldVal</text>
</a>
</g>
</g>
<!-- Node1&#45;&gt;Node30 -->
<g id="edge30" class="edge">
<title>Node1&#45;&gt;Node30</title>
<path fill="none" stroke="#191970" d="M72.8316,-859.2901C82.7514,-820.7908 112.8723,-723.0816 174,-669.5 175.9148,-667.8216 177.9451,-666.2494 180.0636,-664.7769"/>
<polygon fill="#191970" stroke="#191970" points="181.8879,-667.764 188.6142,-659.5781 178.2513,-661.7827 181.8879,-667.764"/>
</g>
<!-- Node34 -->
<g id="node34" class="node">
<title>Node34</title>
<g id="a_node34"><a xlink:href="../../de/d8e/classgenfit_1_1FieldManager.html#aaf0b56fea4f0deb428de8749febf792d" target="_top" xlink:title="Get singleton instance.">
<polygon fill="none" stroke="#000000" points="187,-576.5 187,-608.5 308,-608.5 308,-576.5 187,-576.5"/>
<text text-anchor="start" x="195" y="-595.5" font-family="FreeSans" font-size="10.00" fill="#000000">genfit::FieldManager</text>
<text text-anchor="middle" x="247.5" y="-583.5" font-family="FreeSans" font-size="10.00" fill="#000000">::getInstance</text>
</a>
</g>
</g>
<!-- Node1&#45;&gt;Node34 -->
<g id="edge34" class="edge">
<title>Node1&#45;&gt;Node34</title>
<path fill="none" stroke="#191970" d="M70.9905,-859.4012C77.3568,-814.7081 101.2605,-687.8389 174,-618.5 175.6318,-616.9445 177.3625,-615.4813 179.1721,-614.105"/>
<polygon fill="#191970" stroke="#191970" points="181.1082,-617.0209 187.5516,-608.6106 177.2698,-611.1671 181.1082,-617.0209"/>
</g>
<!-- Node36 -->
<g id="node36" class="node">
<title>Node36</title>
<g id="a_node36"><a xlink:href="../../d1/d25/classgenfit_1_1AbsTrackRep.html#a5c793a4e2a75511b77a53ec977e2501b" target="_top" xlink:title="Get the cartesian momentum vector of a state.">
<polygon fill="none" stroke="#000000" points="189,-525.5 189,-557.5 306,-557.5 306,-525.5 189,-525.5"/>
<text text-anchor="start" x="197" y="-544.5" font-family="FreeSans" font-size="10.00" fill="#000000">genfit::AbsTrackRep</text>
<text text-anchor="middle" x="247.5" y="-532.5" font-family="FreeSans" font-size="10.00" fill="#000000">::getMom</text>
</a>
</g>
</g>
<!-- Node1&#45;&gt;Node36 -->
<g id="edge36" class="edge">
<title>Node1&#45;&gt;Node36</title>
<path fill="none" stroke="#191970" d="M69.6703,-859.4987C72.6479,-809.0849 88.6772,-651.848 174,-566.5 175.8761,-564.6234 177.8983,-562.8875 180.0331,-561.2819"/>
<polygon fill="#191970" stroke="#191970" points="182.2101,-564.0445 188.7541,-555.7123 178.4423,-558.145 182.2101,-564.0445"/>
</g>
<!-- Node37 -->
<g id="node37" class="node">
<title>Node37</title>
<g id="a_node37"><a xlink:href="../../d1/d25/classgenfit_1_1AbsTrackRep.html#a8a5f4ef901011b30ecfaa612ae993c80" target="_top" xlink:title="Get the cartesian position of a state.">
<polygon fill="none" stroke="#000000" points="189,-474.5 189,-506.5 306,-506.5 306,-474.5 189,-474.5"/>
<text text-anchor="start" x="197" y="-493.5" font-family="FreeSans" font-size="10.00" fill="#000000">genfit::AbsTrackRep</text>
<text text-anchor="middle" x="247.5" y="-481.5" font-family="FreeSans" font-size="10.00" fill="#000000">::getPos</text>
</a>
</g>
</g>
<!-- Node1&#45;&gt;Node37 -->
<g id="edge37" class="edge">
<title>Node1&#45;&gt;Node37</title>
<path fill="none" stroke="#191970" d="M71.7079,-859.2145C82.5298,-795.9217 124.4888,-567.2425 174,-515.5 175.8753,-513.5402 177.91,-511.734 180.0675,-510.0694"/>
<polygon fill="#191970" stroke="#191970" points="182.4362,-512.7047 188.9198,-504.3253 178.6259,-506.8325 182.4362,-512.7047"/>
</g>
<!-- Node38 -->
<g id="node38" class="node">
<title>Node38</title>
<g id="a_node38"><a xlink:href="../../d0/d0e/classRawClusterUtility.html#aa3749ddedc2ebe5d12394650d89aa704" target="_top" xlink:title="Pseudorapidity of cluster with respect to given vertex position.">
<polygon fill="none" stroke="#000000" points="192.5,-423.5 192.5,-455.5 302.5,-455.5 302.5,-423.5 192.5,-423.5"/>
<text text-anchor="start" x="200.5" y="-442.5" font-family="FreeSans" font-size="10.00" fill="#000000">RawClusterUtility::</text>
<text text-anchor="middle" x="247.5" y="-430.5" font-family="FreeSans" font-size="10.00" fill="#000000">GetPseudorapidity</text>
</a>
</g>
</g>
<!-- Node1&#45;&gt;Node38 -->
<g id="edge38" class="edge">
<title>Node1&#45;&gt;Node38</title>
<path fill="none" stroke="#191970" d="M71.0652,-859.3175C80.1206,-790.7118 118.361,-524.6415 174,-464.5 176.8832,-461.3835 180.1697,-458.6554 183.7166,-456.2673"/>
<polygon fill="#191970" stroke="#191970" points="185.4639,-459.3 192.398,-451.2895 181.9819,-453.2275 185.4639,-459.3"/>
</g>
<!-- Node40 -->
<g id="node40" class="node">
<title>Node40</title>
<g id="a_node40"><a xlink:href="../../d3/dc7/classRawTowerContainer.html#a94a3368d6cd85ea4c3f204cd1065da26" target="_top" xlink:title="RawTowerContainer::\lgetTower">
<polygon fill="none" stroke="#000000" points="186.5,-372.5 186.5,-404.5 308.5,-404.5 308.5,-372.5 186.5,-372.5"/>
<text text-anchor="start" x="194.5" y="-391.5" font-family="FreeSans" font-size="10.00" fill="#000000">RawTowerContainer::</text>
<text text-anchor="middle" x="247.5" y="-379.5" font-family="FreeSans" font-size="10.00" fill="#000000">getTower</text>
</a>
</g>
</g>
<!-- Node1&#45;&gt;Node40 -->
<g id="edge40" class="edge">
<title>Node1&#45;&gt;Node40</title>
<path fill="none" stroke="#191970" d="M70.5713,-859.3527C78.0434,-785.6826 112.2078,-482.1041 174,-413.5 175.2093,-412.1574 176.4935,-410.8868 177.8415,-409.6845"/>
<polygon fill="#191970" stroke="#191970" points="180.222,-412.2772 186.181,-403.5169 176.0597,-406.6491 180.222,-412.2772"/>
</g>
<!-- Node41 -->
<g id="node41" class="node">
<title>Node41</title>
<g id="a_node41"><a xlink:href="../../d2/db8/classSvtxTrack.html#a907828dd8b5497d7268aaecc17155dae" target="_top" xlink:title="SvtxTrack::set_cal\l_cluster_e">
<polygon fill="none" stroke="#000000" points="194.5,-321.5 194.5,-353.5 300.5,-353.5 300.5,-321.5 194.5,-321.5"/>
<text text-anchor="start" x="202.5" y="-340.5" font-family="FreeSans" font-size="10.00" fill="#000000">SvtxTrack::set_cal</text>
<text text-anchor="middle" x="247.5" y="-328.5" font-family="FreeSans" font-size="10.00" fill="#000000">_cluster_e</text>
</a>
</g>
</g>
<!-- Node1&#45;&gt;Node41 -->
<g id="edge41" class="edge">
<title>Node1&#45;&gt;Node41</title>
<path fill="none" stroke="#191970" d="M70.1696,-859.4519C76.1821,-781.1275 106.0021,-439.6524 174,-362.5 177.2807,-358.7777 181.1377,-355.6089 185.3374,-352.9115"/>
<polygon fill="#191970" stroke="#191970" points="187.2463,-355.8577 194.3645,-348.0103 183.9062,-349.706 187.2463,-355.8577"/>
</g>
<!-- Node42 -->
<g id="node42" class="node">
<title>Node42</title>
<g id="a_node42"><a xlink:href="../../d2/db8/classSvtxTrack.html#aa606d0c3a24156fbed112cd20125a94b" target="_top" xlink:title="SvtxTrack::set_cal\l_cluster_id">
<polygon fill="none" stroke="#000000" points="194.5,-270.5 194.5,-302.5 300.5,-302.5 300.5,-270.5 194.5,-270.5"/>
<text text-anchor="start" x="202.5" y="-289.5" font-family="FreeSans" font-size="10.00" fill="#000000">SvtxTrack::set_cal</text>
<text text-anchor="middle" x="247.5" y="-277.5" font-family="FreeSans" font-size="10.00" fill="#000000">_cluster_id</text>
</a>
</g>
</g>
<!-- Node1&#45;&gt;Node42 -->
<g id="edge42" class="edge">
<title>Node1&#45;&gt;Node42</title>
<path fill="none" stroke="#191970" d="M69.8573,-859.2708C74.5678,-775.9845 99.851,-397.1589 174,-311.5 177.2474,-307.7486 181.0806,-304.5591 185.2642,-301.8475"/>
<polygon fill="#191970" stroke="#191970" points="187.1719,-304.7935 194.2678,-296.9259 183.8144,-298.6512 187.1719,-304.7935"/>
</g>
<!-- Node43 -->
<g id="node43" class="node">
<title>Node43</title>
<g id="a_node43"><a xlink:href="../../d2/db8/classSvtxTrack.html#a76e9c9e5abf239747f75749f023f7856" target="_top" xlink:title="SvtxTrack::set_cal_deta">
<polygon fill="none" stroke="#000000" points="180.5,-231.5 180.5,-251.5 314.5,-251.5 314.5,-231.5 180.5,-231.5"/>
<text text-anchor="middle" x="247.5" y="-238.5" font-family="FreeSans" font-size="10.00" fill="#000000">SvtxTrack::set_cal_deta</text>
</a>
</g>
</g>
<!-- Node1&#45;&gt;Node43 -->
<g id="edge43" class="edge">
<title>Node1&#45;&gt;Node43</title>
<path fill="none" stroke="#191970" d="M69.4563,-859.4665C72.2737,-771.8722 90.0568,-351.7957 174,-260.5 174.9283,-259.4904 175.9026,-258.5314 176.9176,-257.6207"/>
<polygon fill="#191970" stroke="#191970" points="179.3145,-260.2094 185.4088,-251.5428 175.2401,-254.5173 179.3145,-260.2094"/>
</g>
<!-- Node44 -->
<g id="node44" class="node">
<title>Node44</title>
<g id="a_node44"><a xlink:href="../../d2/db8/classSvtxTrack.html#a0488a220b6ba7f962b2d52147a059727" target="_top" xlink:title="SvtxTrack::set_cal_dphi">
<polygon fill="none" stroke="#000000" points="180.5,-192.5 180.5,-212.5 314.5,-212.5 314.5,-192.5 180.5,-192.5"/>
<text text-anchor="middle" x="247.5" y="-199.5" font-family="FreeSans" font-size="10.00" fill="#000000">SvtxTrack::set_cal_dphi</text>
</a>
</g>
</g>
<!-- Node1&#45;&gt;Node44 -->
<g id="edge44" class="edge">
<title>Node1&#45;&gt;Node44</title>
<path fill="none" stroke="#191970" d="M69.2805,-859.3625C71.1918,-768.2883 85.071,-319.1852 174,-221.5 174.9233,-220.4858 175.893,-219.5226 176.9038,-218.6081"/>
<polygon fill="#191970" stroke="#191970" points="179.3032,-221.1931 185.3697,-212.507 175.2105,-215.5141 179.3032,-221.1931"/>
</g>
<!-- Node45 -->
<g id="node45" class="node">
<title>Node45</title>
<g id="a_node45"><a xlink:href="../../d2/db8/classSvtxTrack.html#a557898e47ae74ea9b7bef512581e607a" target="_top" xlink:title="SvtxTrack::set_cal\l_energy_3x3">
<polygon fill="none" stroke="#000000" points="194.5,-141.5 194.5,-173.5 300.5,-173.5 300.5,-141.5 194.5,-141.5"/>
<text text-anchor="start" x="202.5" y="-160.5" font-family="FreeSans" font-size="10.00" fill="#000000">SvtxTrack::set_cal</text>
<text text-anchor="middle" x="247.5" y="-148.5" font-family="FreeSans" font-size="10.00" fill="#000000">_energy_3x3</text>
</a>
</g>
</g>
<!-- Node1&#45;&gt;Node45 -->
<g id="edge45" class="edge">
<title>Node1&#45;&gt;Node45</title>
<path fill="none" stroke="#191970" d="M69.2393,-859.4437C70.949,-765.7464 84.0126,-290.0653 174,-182.5 177.3202,-178.5312 181.2975,-175.1906 185.6602,-172.3789"/>
<polygon fill="#191970" stroke="#191970" points="187.34,-175.4496 194.4535,-167.5979 183.9962,-169.2998 187.34,-175.4496"/>
</g>
<!-- Node46 -->
<g id="node46" class="node">
<title>Node46</title>
<g id="a_node46"><a xlink:href="../../d2/db8/classSvtxTrack.html#ab65d9af6c07005a508b4461635637f69" target="_top" xlink:title="SvtxTrack::set_cal\l_energy_5x5">
<polygon fill="none" stroke="#000000" points="194.5,-90.5 194.5,-122.5 300.5,-122.5 300.5,-90.5 194.5,-90.5"/>
<text text-anchor="start" x="202.5" y="-109.5" font-family="FreeSans" font-size="10.00" fill="#000000">SvtxTrack::set_cal</text>
<text text-anchor="middle" x="247.5" y="-97.5" font-family="FreeSans" font-size="10.00" fill="#000000">_energy_5x5</text>
</a>
</g>
</g>
<!-- Node1&#45;&gt;Node46 -->
<g id="edge46" class="edge">
<title>Node1&#45;&gt;Node46</title>
<path fill="none" stroke="#191970" d="M70.2695,-859.3191C78.5148,-755.8979 125.6447,-189.9017 174,-131.5 177.3,-127.5144 181.2631,-124.162 185.6164,-121.3425"/>
<polygon fill="#191970" stroke="#191970" points="187.2955,-124.4134 194.3969,-116.5508 183.9423,-118.2688 187.2955,-124.4134"/>
</g>
<!-- Node47 -->
<g id="node47" class="node">
<title>Node47</title>
<g id="a_node47"><a xlink:href="../../d1/d25/classgenfit_1_1AbsTrackRep.html#aa64680a087ba9a9a91b77f80977e19cc" target="_top" xlink:title="Set position, momentum and covariance of state.">
<polygon fill="none" stroke="#000000" points="189,-39.5 189,-71.5 306,-71.5 306,-39.5 189,-39.5"/>
<text text-anchor="start" x="197" y="-58.5" font-family="FreeSans" font-size="10.00" fill="#000000">genfit::AbsTrackRep</text>
<text text-anchor="middle" x="247.5" y="-46.5" font-family="FreeSans" font-size="10.00" fill="#000000">::setPosMomCov</text>
</a>
</g>
</g>
<!-- Node1&#45;&gt;Node47 -->
<g id="edge47" class="edge">
<title>Node1&#45;&gt;Node47</title>
<path fill="none" stroke="#191970" d="M70.1203,-859.2676C77.6804,-751.6342 122.5046,-143.2598 174,-80.5 175.9237,-78.1556 178.0769,-76.0301 180.4046,-74.1033"/>
<polygon fill="#191970" stroke="#191970" points="182.6309,-76.821 188.9104,-68.2876 178.68,-71.0426 182.6309,-76.821"/>
</g>
<!-- Node48 -->
<g id="node48" class="node">
<title>Node48</title>
<g id="a_node48"><a xlink:href="../../d5/dec/classFun4AllBase.html#a8a5c77a92bdac6bc043476e132379a40" target="_top" xlink:title="Gets the verbosity of this module.">
<polygon fill="none" stroke="#000000" points="181.5,-.5 181.5,-20.5 313.5,-20.5 313.5,-.5 181.5,-.5"/>
<text text-anchor="middle" x="247.5" y="-7.5" font-family="FreeSans" font-size="10.00" fill="#000000">Fun4AllBase::Verbosity</text>
</a>
</g>
</g>
<!-- Node1&#45;&gt;Node48 -->
<g id="edge48" class="edge">
<title>Node1&#45;&gt;Node48</title>
<path fill="none" stroke="#191970" d="M69.9272,-859.2714C76.4517,-747.523 116.867,-94.5547 174,-29.5 174.8806,-28.4973 175.8065,-27.5442 176.7727,-26.6384"/>
<polygon fill="#191970" stroke="#191970" points="178.9689,-29.3666 184.8886,-20.5798 174.7814,-23.7573 178.9689,-29.3666"/>
</g>
<!-- Node25 -->
<g id="node25" class="node">
<title>Node25</title>
<g id="a_node25"><a xlink:href="../../d5/d07/classPHNodeIterator.html#aea98bf8619af59b1212a94fb32106baa" target="_top" xlink:title="PHNodeIterator::findFirst">
<polygon fill="none" stroke="#000000" points="357,-761.5 357,-781.5 498,-781.5 498,-761.5 357,-761.5"/>
<text text-anchor="middle" x="427.5" y="-768.5" font-family="FreeSans" font-size="10.00" fill="#000000">PHNodeIterator::findFirst</text>
</a>
</g>
</g>
<!-- Node24&#45;&gt;Node25 -->
<g id="edge24" class="edge">
<title>Node24&#45;&gt;Node25</title>
<path fill="none" stroke="#191970" d="M303.9593,-749.5372C322.1374,-752.7689 342.4458,-756.3793 361.2617,-759.7243"/>
<polygon fill="#191970" stroke="#191970" points="360.7828,-763.194 371.2411,-761.4984 362.0081,-756.302 360.7828,-763.194"/>
</g>
<!-- Node28 -->
<g id="node28" class="node">
<title>Node28</title>
<g id="a_node28"><a xlink:href="../../d1/d3e/classPHDataNode.html#a1f3b856fd3ce165047be8aa97f4ab9f3" target="_top" xlink:title="PHDataNode::getData">
<polygon fill="none" stroke="#000000" points="364,-722.5 364,-742.5 491,-742.5 491,-722.5 364,-722.5"/>
<text text-anchor="middle" x="427.5" y="-729.5" font-family="FreeSans" font-size="10.00" fill="#000000">PHDataNode::getData</text>
</a>
</g>
</g>
<!-- Node24&#45;&gt;Node28 -->
<g id="edge28" class="edge">
<title>Node24&#45;&gt;Node28</title>
<path fill="none" stroke="#191970" d="M303.9593,-737.3044C319.6694,-736.6934 336.9706,-736.0206 353.5245,-735.3768"/>
<polygon fill="#191970" stroke="#191970" points="353.8577,-738.8666 363.7141,-734.9806 353.5857,-731.8719 353.8577,-738.8666"/>
</g>
<!-- Node25&#45;&gt;Node25 -->
<g id="edge27" class="edge">
<title>Node25&#45;&gt;Node25</title>
<path fill="none" stroke="#191970" d="M401.5118,-781.7271C389.6576,-790.6067 398.3203,-800 427.5,-800 446.6492,-800 456.9624,-795.9546 458.4397,-790.6639"/>
<polygon fill="#191970" stroke="#191970" points="461.3962,-788.7779 453.4882,-781.7271 455.2732,-792.1705 461.3962,-788.7779"/>
</g>
<!-- Node26 -->
<g id="node26" class="node">
<title>Node26</title>
<g id="a_node26"><a xlink:href="../../dc/d82/classPHNode.html#a4ab1f90aed955a652813bfe377087bda" target="_top" xlink:title="PHNode::getType">
<polygon fill="none" stroke="#000000" points="543,-763.5 543,-783.5 646,-783.5 646,-763.5 543,-763.5"/>
<text text-anchor="middle" x="594.5" y="-770.5" font-family="FreeSans" font-size="10.00" fill="#000000">PHNode::getType</text>
</a>
</g>
</g>
<!-- Node25&#45;&gt;Node26 -->
<g id="edge25" class="edge">
<title>Node25&#45;&gt;Node26</title>
<path fill="none" stroke="#191970" d="M498.323,-772.3482C509.7576,-772.4851 521.5168,-772.6259 532.716,-772.7601"/>
<polygon fill="#191970" stroke="#191970" points="532.7769,-776.261 542.8181,-772.8811 532.8608,-769.2615 532.7769,-776.261"/>
</g>
<!-- Node27 -->
<g id="node27" class="node">
<title>Node27</title>
<g id="a_node27"><a xlink:href="../../dc/d82/classPHNode.html#aca3576f926a4401eddc3d88bf0ce0de3" target="_top" xlink:title="PHNode::getName">
<polygon fill="none" stroke="#000000" points="540,-724.5 540,-744.5 649,-744.5 649,-724.5 540,-724.5"/>
<text text-anchor="middle" x="594.5" y="-731.5" font-family="FreeSans" font-size="10.00" fill="#000000">PHNode::getName</text>
</a>
</g>
</g>
<!-- Node25&#45;&gt;Node27 -->
<g id="edge26" class="edge">
<title>Node25&#45;&gt;Node27</title>
<path fill="none" stroke="#191970" d="M472.6926,-761.4873C493.2067,-756.9422 517.6591,-751.5246 539.2535,-746.7402"/>
<polygon fill="#191970" stroke="#191970" points="540.2651,-750.1011 549.2713,-744.5207 538.7509,-743.2668 540.2651,-750.1011"/>
</g>
<!-- Node31 -->
<g id="node31" class="node">
<title>Node31</title>
<g id="a_node31"><a xlink:href="../../de/d8e/classgenfit_1_1FieldManager.html#a962a11af0a79ed6f380f96f35ce3c4e4" target="_top" xlink:title="genfit::FieldManager\l::checkInitialized">
<polygon fill="none" stroke="#000000" points="367,-669.5 367,-701.5 488,-701.5 488,-669.5 367,-669.5"/>
<text text-anchor="start" x="375" y="-688.5" font-family="FreeSans" font-size="10.00" fill="#000000">genfit::FieldManager</text>
<text text-anchor="middle" x="427.5" y="-676.5" font-family="FreeSans" font-size="10.00" fill="#000000">::checkInitialized</text>
</a>
</g>
</g>
<!-- Node30&#45;&gt;Node31 -->
<g id="edge31" class="edge">
<title>Node30&#45;&gt;Node31</title>
<path fill="none" stroke="#191970" d="M308.1888,-657.6607C323.8251,-661.3092 340.7865,-665.2668 356.8799,-669.022"/>
<polygon fill="#191970" stroke="#191970" points="356.2348,-672.4654 366.7685,-671.3293 357.8254,-665.6485 356.2348,-672.4654"/>
</g>
<!-- Node33 -->
<g id="node33" class="node">
<title>Node33</title>
<g id="a_node33"><a xlink:href="../../d0/dac/classgenfit_1_1AbsBField.html#a0dddaf7062fccdd83dc450f6dffa8fb8" target="_top" xlink:title="Get the magneticField [kGauss] at position.">
<polygon fill="none" stroke="#000000" points="365,-630.5 365,-650.5 490,-650.5 490,-630.5 365,-630.5"/>
<text text-anchor="middle" x="427.5" y="-637.5" font-family="FreeSans" font-size="10.00" fill="#000000">genfit::AbsBField::get</text>
</a>
</g>
</g>
<!-- Node30&#45;&gt;Node33 -->
<g id="edge33" class="edge">
<title>Node30&#45;&gt;Node33</title>
<path fill="none" stroke="#191970" d="M308.1888,-642.4885C323.1753,-642.2387 339.3789,-641.9687 354.869,-641.7105"/>
<polygon fill="#191970" stroke="#191970" points="354.9849,-645.2092 364.9252,-641.5429 354.8682,-638.2101 354.9849,-645.2092"/>
</g>
<!-- Node32 -->
<g id="node32" class="node">
<title>Node32</title>
<g id="a_node32"><a xlink:href="../../de/d8e/classgenfit_1_1FieldManager.html#a311142cb85b746f93c8f45cd50d737bc" target="_top" xlink:title="genfit::FieldManager\l::isInitialized">
<polygon fill="none" stroke="#000000" points="534,-669.5 534,-701.5 655,-701.5 655,-669.5 534,-669.5"/>
<text text-anchor="start" x="542" y="-688.5" font-family="FreeSans" font-size="10.00" fill="#000000">genfit::FieldManager</text>
<text text-anchor="middle" x="594.5" y="-676.5" font-family="FreeSans" font-size="10.00" fill="#000000">::isInitialized</text>
</a>
</g>
</g>
<!-- Node31&#45;&gt;Node32 -->
<g id="edge32" class="edge">
<title>Node31&#45;&gt;Node32</title>
<path fill="none" stroke="#191970" d="M488.2632,-685.5C499.7321,-685.5 511.8205,-685.5 523.569,-685.5"/>
<polygon fill="#191970" stroke="#191970" points="523.782,-689.0001 533.782,-685.5 523.782,-682.0001 523.782,-689.0001"/>
</g>
<!-- Node35 -->
<g id="node35" class="node">
<title>Node35</title>
<g id="a_node35"><a xlink:href="../../de/d8e/classgenfit_1_1FieldManager.html#a01194f10c4efe8d19286492ba01e104e" target="_top" xlink:title="genfit::FieldManager\l::FieldManager">
<polygon fill="none" stroke="#000000" points="367,-576.5 367,-608.5 488,-608.5 488,-576.5 367,-576.5"/>
<text text-anchor="start" x="375" y="-595.5" font-family="FreeSans" font-size="10.00" fill="#000000">genfit::FieldManager</text>
<text text-anchor="middle" x="427.5" y="-583.5" font-family="FreeSans" font-size="10.00" fill="#000000">::FieldManager</text>
</a>
</g>
</g>
<!-- Node34&#45;&gt;Node35 -->
<g id="edge35" class="edge">
<title>Node34&#45;&gt;Node35</title>
<path fill="none" stroke="#191970" d="M308.1888,-592.5C323.6776,-592.5 340.4665,-592.5 356.4242,-592.5"/>
<polygon fill="#191970" stroke="#191970" points="356.7686,-596.0001 366.7685,-592.5 356.7685,-589.0001 356.7686,-596.0001"/>
</g>
<!-- Node39 -->
<g id="node39" class="node">
<title>Node39</title>
<g id="a_node39"><a xlink:href="../../d6/dc7/group__getters.html#gaf37c34254ebd3a0e62083f517012418b" target="_top" xlink:title="RawCluster::get_position">
<polygon fill="none" stroke="#000000" points="357,-429.5 357,-449.5 498,-449.5 498,-429.5 357,-429.5"/>
<text text-anchor="middle" x="427.5" y="-436.5" font-family="FreeSans" font-size="10.00" fill="#000000">RawCluster::get_position</text>
</a>
</g>
</g>
<!-- Node38&#45;&gt;Node39 -->
<g id="edge39" class="edge">
<title>Node38&#45;&gt;Node39</title>
<path fill="none" stroke="#191970" d="M302.9747,-439.5C316.823,-439.5 331.9567,-439.5 346.7533,-439.5"/>
<polygon fill="#191970" stroke="#191970" points="346.9233,-443.0001 356.9233,-439.5 346.9232,-436.0001 346.9233,-443.0001"/>
</g>
</g>
</svg>
