<?xml version="1.0" encoding="UTF-8" standalone="no"?>
<!DOCTYPE svg PUBLIC "-//W3C//DTD SVG 1.1//EN"
 "http://www.w3.org/Graphics/SVG/1.1/DTD/svg11.dtd">
<!-- Generated by graphviz version 2.40.1 (20161225.0304)
 -->
<!-- Title: genfit::AbsFitter::processTrack Pages: 1 -->
<svg width="1080pt" height="568pt"
 viewBox="0.00 0.00 1080.00 568.00" xmlns="http://www.w3.org/2000/svg" xmlns:xlink="http://www.w3.org/1999/xlink">
<g id="graph0" class="graph" transform="scale(1 1) rotate(0) translate(4 564)">
<title>genfit::AbsFitter::processTrack</title>
<!-- Node1 -->
<g id="node1" class="node">
<title>Node1</title>
<polygon fill="#bfbfbf" stroke="#000000" points="0,-267.5 0,-299.5 103,-299.5 103,-267.5 0,-267.5"/>
<text text-anchor="start" x="8" y="-286.5" font-family="FreeSans" font-size="10.00" fill="#000000">genfit::AbsFitter::</text>
<text text-anchor="middle" x="51.5" y="-274.5" font-family="FreeSans" font-size="10.00" fill="#000000">processTrack</text>
</g>
<!-- Node2 -->
<g id="node2" class="node">
<title>Node2</title>
<g id="a_node2"><a xlink:href="../../d0/d48/GenFit_2blob_2master_2test_2fitterTests_2main_8cc.html#ae66f6b31b5ad750f1fe042a706a4e3d4" target="_top" xlink:title="main">
<polygon fill="none" stroke="#000000" points="188.5,-296.5 188.5,-316.5 229.5,-316.5 229.5,-296.5 188.5,-296.5"/>
<text text-anchor="middle" x="209" y="-303.5" font-family="FreeSans" font-size="10.00" fill="#000000">main</text>
</a>
</g>
</g>
<!-- Node1&#45;&gt;Node2 -->
<g id="edge1" class="edge">
<title>Node1&#45;&gt;Node2</title>
<path fill="none" stroke="#191970" d="M113.1393,-292.5013C139.8315,-296.3992 169.2797,-300.6996 188.3995,-303.4917"/>
<polygon fill="#191970" stroke="#191970" points="113.4722,-289.0129 103.0714,-291.0311 112.4607,-295.9394 113.4722,-289.0129"/>
</g>
<!-- Node3 -->
<g id="node3" class="node">
<title>Node3</title>
<g id="a_node3"><a xlink:href="../../d1/d35/classPHGenFit_1_1Fitter.html#a0ae094389cc773308a3cf9ca98d60bdb" target="_top" xlink:title="PHGenFit::Fitter::process\lTrack">
<polygon fill="none" stroke="#000000" points="139,-245.5 139,-277.5 279,-277.5 279,-245.5 139,-245.5"/>
<text text-anchor="start" x="147" y="-264.5" font-family="FreeSans" font-size="10.00" fill="#000000">PHGenFit::Fitter::process</text>
<text text-anchor="middle" x="209" y="-252.5" font-family="FreeSans" font-size="10.00" fill="#000000">Track</text>
</a>
</g>
</g>
<!-- Node1&#45;&gt;Node3 -->
<g id="edge2" class="edge">
<title>Node1&#45;&gt;Node3</title>
<path fill="none" stroke="#191970" d="M113.1414,-274.8898C121.5301,-273.718 130.1909,-272.5083 138.7177,-271.3172"/>
<polygon fill="#191970" stroke="#191970" points="112.491,-271.4466 103.0714,-276.2964 113.4595,-278.3792 112.491,-271.4466"/>
</g>
<!-- Node4 -->
<g id="node4" class="node">
<title>Node4</title>
<g id="a_node4"><a xlink:href="../../d1/d04/classBDiJetModule.html#aa2f3d100a0f4b8a1b5836d9436e071e8" target="_top" xlink:title="Initialize the TTree.">
<polygon fill="none" stroke="#000000" points="327.5,-482.5 327.5,-514.5 477.5,-514.5 477.5,-482.5 327.5,-482.5"/>
<text text-anchor="start" x="335.5" y="-501.5" font-family="FreeSans" font-size="10.00" fill="#000000">BDiJetModule::MakeGenFit</text>
<text text-anchor="middle" x="402.5" y="-489.5" font-family="FreeSans" font-size="10.00" fill="#000000">Track</text>
</a>
</g>
</g>
<!-- Node3&#45;&gt;Node4 -->
<g id="edge3" class="edge">
<title>Node3&#45;&gt;Node4</title>
<path fill="none" stroke="#191970" d="M275.7488,-284.0579C276.8881,-285.1515 277.9746,-286.298 279,-287.5 331.9488,-349.5679 261.5827,-405.8349 315,-467.5 320.276,-473.5907 326.829,-478.4847 333.9588,-482.4173"/>
<polygon fill="#191970" stroke="#191970" points="277.5653,-281.0327 267.548,-277.5822 273.2272,-286.5264 277.5653,-281.0327"/>
</g>
<!-- Node6 -->
<g id="node6" class="node">
<title>Node6</title>
<g id="a_node6"><a xlink:href="../../d6/d17/classSVReco.html#af99925be18cc9afbb2b9936df3a925db" target="_top" xlink:title="Uses the tracking clusters exclusively to make a GFTrack.">
<polygon fill="none" stroke="#000000" points="329,-437.5 329,-457.5 476,-457.5 476,-437.5 329,-437.5"/>
<text text-anchor="middle" x="402.5" y="-444.5" font-family="FreeSans" font-size="10.00" fill="#000000">SVReco::MakeGenFitTrack</text>
</a>
</g>
</g>
<!-- Node3&#45;&gt;Node6 -->
<g id="edge5" class="edge">
<title>Node3&#45;&gt;Node6</title>
<path fill="none" stroke="#191970" d="M275.2133,-283.7229C276.5418,-284.9169 277.8079,-286.1747 279,-287.5 322.2548,-335.5846 268.4472,-383.6007 315,-428.5 319.028,-432.3849 323.6535,-435.553 328.6287,-438.1289"/>
<polygon fill="#191970" stroke="#191970" points="277.0996,-280.7625 267.0003,-277.5602 272.8983,-286.3616 277.0996,-280.7625"/>
</g>
<!-- Node16 -->
<g id="node16" class="node">
<title>Node16</title>
<g id="a_node16"><a xlink:href="../../d2/d38/minimumTestPHGenFit_8cc.html#a3c04138a5bfe5d72780bb7e82a18e627" target="_top" xlink:title="main">
<polygon fill="none" stroke="#000000" points="382,-398.5 382,-418.5 423,-418.5 423,-398.5 382,-398.5"/>
<text text-anchor="middle" x="402.5" y="-405.5" font-family="FreeSans" font-size="10.00" fill="#000000">main</text>
</a>
</g>
</g>
<!-- Node3&#45;&gt;Node16 -->
<g id="edge16" class="edge">
<title>Node3&#45;&gt;Node16</title>
<path fill="none" stroke="#191970" d="M274.5679,-283.4639C276.1197,-284.7351 277.6021,-286.0791 279,-287.5 312.7145,-321.7701 278.9422,-357.7046 315,-389.5 333.422,-405.7443 362.4348,-409.1745 381.9482,-409.4203"/>
<polygon fill="#191970" stroke="#191970" points="276.5047,-280.5475 266.301,-277.6953 272.4989,-286.2881 276.5047,-280.5475"/>
</g>
<!-- Node17 -->
<g id="node17" class="node">
<title>Node17</title>
<g id="a_node17"><a xlink:href="../../de/d25/classPHGenFitTrkFitter.html#ac5276a4b02f10308d87ae16dac18d765" target="_top" xlink:title="PHGenFitTrkFitter::\lReFitTrack">
<polygon fill="none" stroke="#000000" points="348,-347.5 348,-379.5 457,-379.5 457,-347.5 348,-347.5"/>
<text text-anchor="start" x="356" y="-366.5" font-family="FreeSans" font-size="10.00" fill="#000000">PHGenFitTrkFitter::</text>
<text text-anchor="middle" x="402.5" y="-354.5" font-family="FreeSans" font-size="10.00" fill="#000000">ReFitTrack</text>
</a>
</g>
</g>
<!-- Node3&#45;&gt;Node17 -->
<g id="edge17" class="edge">
<title>Node3&#45;&gt;Node17</title>
<path fill="none" stroke="#191970" d="M271.7033,-282.4929C274.2423,-284.0541 276.6883,-285.7211 279,-287.5 300.9881,-304.4205 292.3743,-322.4422 315,-338.5 324.6629,-345.3579 336.1741,-350.3433 347.6213,-353.9647"/>
<polygon fill="#191970" stroke="#191970" points="273.2226,-279.3342 262.7732,-277.5847 269.8509,-285.4687 273.2226,-279.3342"/>
</g>
<!-- Node19 -->
<g id="node19" class="node">
<title>Node19</title>
<g id="a_node19"><a xlink:href="../../d0/d22/classPHGenFitTrkProp.html#a425f22248030483cb56cdb867c3077c8" target="_top" xlink:title="ExportOutput Call. Make SvtxTrack from PHGenFit::Track and set of clusters.">
<polygon fill="none" stroke="#000000" points="315,-296.5 315,-328.5 490,-328.5 490,-296.5 315,-296.5"/>
<text text-anchor="start" x="323" y="-315.5" font-family="FreeSans" font-size="10.00" fill="#000000">PHGenFitTrkProp::OutputPHGen</text>
<text text-anchor="middle" x="402.5" y="-303.5" font-family="FreeSans" font-size="10.00" fill="#000000">FitTrack</text>
</a>
</g>
</g>
<!-- Node3&#45;&gt;Node19 -->
<g id="edge19" class="edge">
<title>Node3&#45;&gt;Node19</title>
<path fill="none" stroke="#191970" d="M279.7526,-280.148C300.0063,-285.4862 321.9018,-291.2571 341.5151,-296.4264"/>
<polygon fill="#191970" stroke="#191970" points="280.5208,-276.731 269.959,-277.5667 278.7367,-283.4998 280.5208,-276.731"/>
</g>
<!-- Node22 -->
<g id="node22" class="node">
<title>Node22</title>
<g id="a_node22"><a xlink:href="../../d0/d22/classPHGenFitTrkProp.html#ac159ce1352f6004a2f51a520c287c339" target="_top" xlink:title="KalmanTrkProp Call.">
<polygon fill="none" stroke="#000000" points="325,-245.5 325,-277.5 480,-277.5 480,-245.5 325,-245.5"/>
<text text-anchor="start" x="333" y="-264.5" font-family="FreeSans" font-size="10.00" fill="#000000">PHGenFitTrkProp::SvtxTrack</text>
<text text-anchor="middle" x="402.5" y="-252.5" font-family="FreeSans" font-size="10.00" fill="#000000">ToPHGenFitTracks</text>
</a>
</g>
</g>
<!-- Node3&#45;&gt;Node22 -->
<g id="edge22" class="edge">
<title>Node3&#45;&gt;Node22</title>
<path fill="none" stroke="#191970" d="M289.3239,-261.5C301.0396,-261.5 313.0863,-261.5 324.7495,-261.5"/>
<polygon fill="#191970" stroke="#191970" points="289.1316,-258.0001 279.1315,-261.5 289.1315,-265.0001 289.1316,-258.0001"/>
</g>
<!-- Node23 -->
<g id="node23" class="node">
<title>Node23</title>
<g id="a_node23"><a xlink:href="../../d9/d91/classPHG4TrackFastSim.html#a8bb22ab279c5f433069774bd2ab0a7ae" target="_top" xlink:title="Process Event, called for each event.">
<polygon fill="none" stroke="#000000" points="324.5,-194.5 324.5,-226.5 480.5,-226.5 480.5,-194.5 324.5,-194.5"/>
<text text-anchor="start" x="332.5" y="-213.5" font-family="FreeSans" font-size="10.00" fill="#000000">PHG4TrackFastSim::process</text>
<text text-anchor="middle" x="402.5" y="-201.5" font-family="FreeSans" font-size="10.00" fill="#000000">_event</text>
</a>
</g>
</g>
<!-- Node3&#45;&gt;Node23 -->
<g id="edge24" class="edge">
<title>Node3&#45;&gt;Node23</title>
<path fill="none" stroke="#191970" d="M279.7526,-242.852C300.0063,-237.5138 321.9018,-231.7429 341.5151,-226.5736"/>
<polygon fill="#191970" stroke="#191970" points="278.7367,-239.5002 269.959,-245.4333 280.5208,-246.269 278.7367,-239.5002"/>
</g>
<!-- Node24 -->
<g id="node24" class="node">
<title>Node24</title>
<g id="a_node24"><a xlink:href="../../d2/d9a/classTpcPrototypeGenFitTrkFinder.html#accdde3b3c7594b87d433ca1b5ec34f34" target="_top" xlink:title="TpcPrototypeGenFitTrkFinder\l::getChi2Ndf">
<polygon fill="none" stroke="#000000" points="321,-143.5 321,-175.5 484,-175.5 484,-143.5 321,-143.5"/>
<text text-anchor="start" x="329" y="-162.5" font-family="FreeSans" font-size="10.00" fill="#000000">TpcPrototypeGenFitTrkFinder</text>
<text text-anchor="middle" x="402.5" y="-150.5" font-family="FreeSans" font-size="10.00" fill="#000000">::getChi2Ndf</text>
</a>
</g>
</g>
<!-- Node3&#45;&gt;Node24 -->
<g id="edge25" class="edge">
<title>Node3&#45;&gt;Node24</title>
<path fill="none" stroke="#191970" d="M235.2388,-238.8726C255.7792,-222.14 285.6875,-199.8565 315,-185.5 322.543,-181.8056 330.7132,-178.5266 338.9275,-175.6492"/>
<polygon fill="#191970" stroke="#191970" points="232.7797,-236.3646 227.3083,-245.4374 237.2433,-241.7568 232.7797,-236.3646"/>
</g>
<!-- Node26 -->
<g id="node26" class="node">
<title>Node26</title>
<g id="a_node26"><a xlink:href="../../df/dd7/classTpcPrototypeGenFitTrkFitter.html#a3c79117816d5dca82cb0f4dd2fee6a8d" target="_top" xlink:title="TpcPrototypeGenFitTrkFitter\l::DisplayCluster">
<polygon fill="none" stroke="#000000" points="538,-102.5 538,-134.5 695,-134.5 695,-102.5 538,-102.5"/>
<text text-anchor="start" x="546" y="-121.5" font-family="FreeSans" font-size="10.00" fill="#000000">TpcPrototypeGenFitTrkFitter</text>
<text text-anchor="middle" x="616.5" y="-109.5" font-family="FreeSans" font-size="10.00" fill="#000000">::DisplayCluster</text>
</a>
</g>
</g>
<!-- Node3&#45;&gt;Node26 -->
<g id="edge27" class="edge">
<title>Node3&#45;&gt;Node26</title>
<path fill="none" stroke="#191970" d="M221.643,-236.3018C238.3734,-206.0213 270.9712,-156.5421 315,-134.5 384.3702,-99.7712 474.301,-99.8499 537.8337,-106.0973"/>
<polygon fill="#191970" stroke="#191970" points="218.4068,-234.9311 216.7742,-245.3994 224.5786,-238.2341 218.4068,-234.9311"/>
</g>
<!-- Node28 -->
<g id="node28" class="node">
<title>Node28</title>
<g id="a_node28"><a xlink:href="../../df/dd7/classTpcPrototypeGenFitTrkFitter.html#a8322a858cfb89cab60e4a04e7f82745b" target="_top" xlink:title="TpcPrototypeGenFitTrkFitter\l::ReFitTrack">
<polygon fill="none" stroke="#000000" points="538,-51.5 538,-83.5 695,-83.5 695,-51.5 538,-51.5"/>
<text text-anchor="start" x="546" y="-70.5" font-family="FreeSans" font-size="10.00" fill="#000000">TpcPrototypeGenFitTrkFitter</text>
<text text-anchor="middle" x="616.5" y="-58.5" font-family="FreeSans" font-size="10.00" fill="#000000">::ReFitTrack</text>
</a>
</g>
</g>
<!-- Node3&#45;&gt;Node28 -->
<g id="edge29" class="edge">
<title>Node3&#45;&gt;Node28</title>
<path fill="none" stroke="#191970" d="M217.6468,-235.6343C231.624,-198.2874 262.995,-130.2653 315,-98.5 382.0213,-57.5625 473.374,-53.8219 537.9069,-57.8207"/>
<polygon fill="#191970" stroke="#191970" points="214.2615,-234.7046 214.163,-245.299 220.8467,-237.0784 214.2615,-234.7046"/>
</g>
<!-- Node29 -->
<g id="node29" class="node">
<title>Node29</title>
<g id="a_node29"><a xlink:href="../../df/dd7/classTpcPrototypeGenFitTrkFitter.html#a7d58d6e2d72346f8c2eb6aa9cf897c9b" target="_top" xlink:title="Make TpcPrototypeTrack from SvtxTrack, refit by &quot;excluding&quot; each cluster.">
<polygon fill="none" stroke="#000000" points="324,-6.5 324,-38.5 481,-38.5 481,-6.5 324,-6.5"/>
<text text-anchor="start" x="332" y="-25.5" font-family="FreeSans" font-size="10.00" fill="#000000">TpcPrototypeGenFitTrkFitter</text>
<text text-anchor="middle" x="402.5" y="-13.5" font-family="FreeSans" font-size="10.00" fill="#000000">::MakeTpcPrototypeTrack</text>
</a>
</g>
</g>
<!-- Node3&#45;&gt;Node29 -->
<g id="edge31" class="edge">
<title>Node3&#45;&gt;Node29</title>
<path fill="none" stroke="#191970" d="M215.7903,-235.8167C228.375,-192.9516 259.2508,-106.6021 315,-56.5 323.2427,-49.0922 333.2802,-43.2209 343.5774,-38.5925"/>
<polygon fill="#191970" stroke="#191970" points="212.4088,-234.9126 213.0468,-245.4882 219.1431,-236.823 212.4088,-234.9126"/>
</g>
<!-- Node5 -->
<g id="node5" class="node">
<title>Node5</title>
<g id="a_node5"><a xlink:href="../../d1/d04/classBDiJetModule.html#a8f01ada101f7e91cf05e12bbf420d192" target="_top" xlink:title="BDiJetModule::process\l_event">
<polygon fill="none" stroke="#000000" points="552,-482.5 552,-514.5 681,-514.5 681,-482.5 552,-482.5"/>
<text text-anchor="start" x="560" y="-501.5" font-family="FreeSans" font-size="10.00" fill="#000000">BDiJetModule::process</text>
<text text-anchor="middle" x="616.5" y="-489.5" font-family="FreeSans" font-size="10.00" fill="#000000">_event</text>
</a>
</g>
</g>
<!-- Node4&#45;&gt;Node5 -->
<g id="edge4" class="edge">
<title>Node4&#45;&gt;Node5</title>
<path fill="none" stroke="#191970" d="M487.6961,-498.5C509.068,-498.5 531.652,-498.5 551.8388,-498.5"/>
<polygon fill="#191970" stroke="#191970" points="487.6475,-495.0001 477.6475,-498.5 487.6474,-502.0001 487.6475,-495.0001"/>
</g>
<!-- Node7 -->
<g id="node7" class="node">
<title>Node7</title>
<g id="a_node7"><a xlink:href="../../d6/d17/classSVReco.html#a19081506d2161465fdf3f36527aa0e18" target="_top" xlink:title="Initialization, called for initialization at each event.">
<polygon fill="none" stroke="#000000" points="563.5,-443.5 563.5,-463.5 669.5,-463.5 669.5,-443.5 563.5,-443.5"/>
<text text-anchor="middle" x="616.5" y="-450.5" font-family="FreeSans" font-size="10.00" fill="#000000">SVReco::InitEvent</text>
</a>
</g>
</g>
<!-- Node6&#45;&gt;Node7 -->
<g id="edge6" class="edge">
<title>Node6&#45;&gt;Node7</title>
<path fill="none" stroke="#191970" d="M486.3513,-449.851C512.2669,-450.5776 540.0854,-451.3575 563.324,-452.0091"/>
<polygon fill="#191970" stroke="#191970" points="486.2409,-446.3466 476.1467,-449.5649 486.0446,-453.3438 486.2409,-446.3466"/>
</g>
<!-- Node12 -->
<g id="node12" class="node">
<title>Node12</title>
<g id="a_node12"><a xlink:href="../../d6/d17/classSVReco.html#aed33c3da67bd3f1b7c3c73127b8187ea" target="_top" xlink:title="SVReco::refitTrack">
<polygon fill="none" stroke="#000000" points="562.5,-392.5 562.5,-412.5 670.5,-412.5 670.5,-392.5 562.5,-392.5"/>
<text text-anchor="middle" x="616.5" y="-399.5" font-family="FreeSans" font-size="10.00" fill="#000000">SVReco::refitTrack</text>
</a>
</g>
</g>
<!-- Node6&#45;&gt;Node12 -->
<g id="edge11" class="edge">
<title>Node6&#45;&gt;Node12</title>
<path fill="none" stroke="#191970" d="M460.0753,-435.3931C494.1282,-428.2324 536.7405,-419.2719 568.8866,-412.5122"/>
<polygon fill="#191970" stroke="#191970" points="459.3251,-431.9742 450.2594,-437.4571 460.7657,-438.8243 459.3251,-431.9742"/>
</g>
<!-- Node8 -->
<g id="node8" class="node">
<title>Node8</title>
<g id="a_node8"><a xlink:href="../../df/d9b/classRecoConversionEval.html#ab5e60cc47b4b3d33f9fdb4a83c2ff775" target="_top" xlink:title="RecoConversionEval\l::doNodePointers">
<polygon fill="none" stroke="#000000" points="770.5,-527.5 770.5,-559.5 889.5,-559.5 889.5,-527.5 770.5,-527.5"/>
<text text-anchor="start" x="778.5" y="-546.5" font-family="FreeSans" font-size="10.00" fill="#000000">RecoConversionEval</text>
<text text-anchor="middle" x="830" y="-534.5" font-family="FreeSans" font-size="10.00" fill="#000000">::doNodePointers</text>
</a>
</g>
</g>
<!-- Node7&#45;&gt;Node8 -->
<g id="edge7" class="edge">
<title>Node7&#45;&gt;Node8</title>
<path fill="none" stroke="#191970" d="M679.2918,-461.5357C689.011,-464.3993 698.5987,-468.2705 707,-473.5 728.7441,-487.035 721.6882,-504.2942 743,-518.5 751.2382,-523.9914 760.6906,-528.294 770.2607,-531.6604"/>
<polygon fill="#191970" stroke="#191970" points="680.1278,-458.1367 669.5678,-458.9949 678.3581,-464.9093 680.1278,-458.1367"/>
</g>
<!-- Node10 -->
<g id="node10" class="node">
<title>Node10</title>
<g id="a_node10"><a xlink:href="../../d2/d6d/classVtxTest.html#ad1a3b9d5e730a3ba75f13a084e21bee5" target="_top" xlink:title="VtxTest::process_event">
<polygon fill="none" stroke="#000000" points="763,-488.5 763,-508.5 897,-508.5 897,-488.5 763,-488.5"/>
<text text-anchor="middle" x="830" y="-495.5" font-family="FreeSans" font-size="10.00" fill="#000000">VtxTest::process_event</text>
</a>
</g>
</g>
<!-- Node7&#45;&gt;Node10 -->
<g id="edge9" class="edge">
<title>Node7&#45;&gt;Node10</title>
<path fill="none" stroke="#191970" d="M673.9407,-465.6069C707.9141,-472.7676 750.4268,-481.7281 782.4978,-488.4878"/>
<polygon fill="#191970" stroke="#191970" points="674.6547,-462.1806 664.1478,-463.5429 673.211,-469.0301 674.6547,-462.1806"/>
</g>
<!-- Node11 -->
<g id="node11" class="node">
<title>Node11</title>
<g id="a_node11"><a xlink:href="../../d9/d3a/classTruthConversionEval.html#a9a67c8171296f35dd157daf89108d3fd" target="_top" xlink:title="TruthConversionEval\l::process_event">
<polygon fill="none" stroke="#000000" points="769.5,-437.5 769.5,-469.5 890.5,-469.5 890.5,-437.5 769.5,-437.5"/>
<text text-anchor="start" x="777.5" y="-456.5" font-family="FreeSans" font-size="10.00" fill="#000000">TruthConversionEval</text>
<text text-anchor="middle" x="830" y="-444.5" font-family="FreeSans" font-size="10.00" fill="#000000">::process_event</text>
</a>
</g>
</g>
<!-- Node7&#45;&gt;Node11 -->
<g id="edge10" class="edge">
<title>Node7&#45;&gt;Node11</title>
<path fill="none" stroke="#191970" d="M679.7381,-453.5C708.0488,-453.5 741.2855,-453.5 769.2919,-453.5"/>
<polygon fill="#191970" stroke="#191970" points="679.5496,-450.0001 669.5496,-453.5 679.5496,-457.0001 679.5496,-450.0001"/>
</g>
<!-- Node9 -->
<g id="node9" class="node">
<title>Node9</title>
<g id="a_node9"><a xlink:href="../../df/d9b/classRecoConversionEval.html#a54bb2ea55f01b0d0dc8752fbee1bc237" target="_top" xlink:title="RecoConversionEval\l::process_event">
<polygon fill="none" stroke="#000000" points="953,-456.5 953,-488.5 1072,-488.5 1072,-456.5 953,-456.5"/>
<text text-anchor="start" x="961" y="-475.5" font-family="FreeSans" font-size="10.00" fill="#000000">RecoConversionEval</text>
<text text-anchor="middle" x="1012.5" y="-463.5" font-family="FreeSans" font-size="10.00" fill="#000000">::process_event</text>
</a>
</g>
</g>
<!-- Node8&#45;&gt;Node9 -->
<g id="edge8" class="edge">
<title>Node8&#45;&gt;Node9</title>
<path fill="none" stroke="#191970" d="M899.7741,-524.5873C905.6423,-522.6532 911.45,-520.6166 917,-518.5 939.5254,-509.9094 964.0047,-498.0653 982.5398,-488.5471"/>
<polygon fill="#191970" stroke="#191970" points="898.3412,-521.3704 889.8759,-527.7413 900.4665,-528.04 898.3412,-521.3704"/>
</g>
<!-- Node13 -->
<g id="node13" class="node">
<title>Node13</title>
<g id="a_node13"><a xlink:href="../../df/d9b/classRecoConversionEval.html#ae0025d84438ba3f29cc99ec09cbb9f5b" target="_top" xlink:title="Uses _vertexer to refit.">
<polygon fill="none" stroke="#000000" points="770.5,-386.5 770.5,-418.5 889.5,-418.5 889.5,-386.5 770.5,-386.5"/>
<text text-anchor="start" x="778.5" y="-405.5" font-family="FreeSans" font-size="10.00" fill="#000000">RecoConversionEval</text>
<text text-anchor="middle" x="830" y="-393.5" font-family="FreeSans" font-size="10.00" fill="#000000">::refitTracks</text>
</a>
</g>
</g>
<!-- Node12&#45;&gt;Node13 -->
<g id="edge12" class="edge">
<title>Node12&#45;&gt;Node13</title>
<path fill="none" stroke="#191970" d="M680.8763,-402.5C709.2677,-402.5 742.4327,-402.5 770.2678,-402.5"/>
<polygon fill="#191970" stroke="#191970" points="680.6511,-399.0001 670.6511,-402.5 680.651,-406.0001 680.6511,-399.0001"/>
</g>
<!-- Node14 -->
<g id="node14" class="node">
<title>Node14</title>
<g id="a_node14"><a xlink:href="../../dc/d41/classConversion.html#a5a8976da958375a2e66f9c35017fb7be" target="_top" xlink:title="Uses recoVertex and.">
<polygon fill="none" stroke="#000000" points="764,-347.5 764,-367.5 896,-367.5 896,-347.5 764,-347.5"/>
<text text-anchor="middle" x="830" y="-354.5" font-family="FreeSans" font-size="10.00" fill="#000000">Conversion::refitTracks</text>
</a>
</g>
</g>
<!-- Node12&#45;&gt;Node14 -->
<g id="edge14" class="edge">
<title>Node12&#45;&gt;Node14</title>
<path fill="none" stroke="#191970" d="M674.2553,-390.387C685.1341,-388.1018 696.4157,-385.7297 707,-383.5 731.988,-378.2359 759.8274,-372.3527 782.6923,-367.5159"/>
<polygon fill="#191970" stroke="#191970" points="673.4767,-386.974 664.4095,-392.4545 674.9153,-393.8246 673.4767,-386.974"/>
</g>
<!-- Node15 -->
<g id="node15" class="node">
<title>Node15</title>
<g id="a_node15"><a xlink:href="../../dc/d41/classConversion.html#a232908ec95e6d7b3bfd8883d19885971" target="_top" xlink:title="Uses the truth vertex and SVReco to improve the fit of reco1 and reco2. Uses.">
<polygon fill="none" stroke="#000000" points="743,-308.5 743,-328.5 917,-328.5 917,-308.5 743,-308.5"/>
<text text-anchor="middle" x="830" y="-315.5" font-family="FreeSans" font-size="10.00" fill="#000000">Conversion::refitTracksTruthVtx</text>
</a>
</g>
</g>
<!-- Node12&#45;&gt;Node15 -->
<g id="edge15" class="edge">
<title>Node12&#45;&gt;Node15</title>
<path fill="none" stroke="#191970" d="M680.9282,-394.7419C690.0815,-392.0243 699.0669,-388.3802 707,-383.5 728.8152,-370.08 721.3134,-352.1269 743,-338.5 749.5613,-334.3772 756.8784,-331.1019 764.4057,-328.5004"/>
<polygon fill="#191970" stroke="#191970" points="679.7631,-391.4286 670.9719,-397.3417 681.5318,-398.2015 679.7631,-391.4286"/>
</g>
<!-- Node13&#45;&gt;Node9 -->
<g id="edge13" class="edge">
<title>Node13&#45;&gt;Node9</title>
<path fill="none" stroke="#191970" d="M897.6047,-421.676C904.201,-423.8541 910.7576,-426.1427 917,-428.5 938.6889,-436.6903 962.3618,-447.5831 980.7123,-456.4813"/>
<polygon fill="#191970" stroke="#191970" points="898.5355,-418.2988 887.9441,-418.5686 896.3921,-424.9626 898.5355,-418.2988"/>
</g>
<!-- Node18 -->
<g id="node18" class="node">
<title>Node18</title>
<g id="a_node18"><a xlink:href="../../de/d25/classPHGenFitTrkFitter.html#a2e088a68ab24c5b89b902205f877f9d6" target="_top" xlink:title="Process Event, called for each event.">
<polygon fill="none" stroke="#000000" points="562,-341.5 562,-373.5 671,-373.5 671,-341.5 562,-341.5"/>
<text text-anchor="start" x="570" y="-360.5" font-family="FreeSans" font-size="10.00" fill="#000000">PHGenFitTrkFitter::</text>
<text text-anchor="middle" x="616.5" y="-348.5" font-family="FreeSans" font-size="10.00" fill="#000000">process_event</text>
</a>
</g>
</g>
<!-- Node17&#45;&gt;Node18 -->
<g id="edge18" class="edge">
<title>Node17&#45;&gt;Node18</title>
<path fill="none" stroke="#191970" d="M467.0682,-361.6897C497.2536,-360.8434 532.8152,-359.8463 561.673,-359.0372"/>
<polygon fill="#191970" stroke="#191970" points="466.9529,-358.1914 457.0549,-361.9704 467.1491,-365.1887 466.9529,-358.1914"/>
</g>
<!-- Node20 -->
<g id="node20" class="node">
<title>Node20</title>
<g id="a_node20"><a xlink:href="../../d0/d22/classPHGenFitTrkProp.html#ab11c2e61a1b78278fa4af7cf624c2538" target="_top" xlink:title="Main function.">
<polygon fill="none" stroke="#000000" points="526,-260.5 526,-280.5 707,-280.5 707,-260.5 526,-260.5"/>
<text text-anchor="middle" x="616.5" y="-267.5" font-family="FreeSans" font-size="10.00" fill="#000000">PHGenFitTrkProp::KalmanTrkProp</text>
</a>
</g>
</g>
<!-- Node19&#45;&gt;Node20 -->
<g id="edge20" class="edge">
<title>Node19&#45;&gt;Node20</title>
<path fill="none" stroke="#191970" d="M494.3102,-294.4812C518.6598,-289.7023 544.0806,-284.7132 565.3899,-280.531"/>
<polygon fill="#191970" stroke="#191970" points="493.4589,-291.0814 484.3202,-296.4418 494.8071,-297.9503 493.4589,-291.0814"/>
</g>
<!-- Node21 -->
<g id="node21" class="node">
<title>Node21</title>
<g id="a_node21"><a xlink:href="../../d0/d22/classPHGenFitTrkProp.html#a31e50e42d62a2bf32763652b39dc95b8" target="_top" xlink:title="PHGenFitTrkProp::Process">
<polygon fill="none" stroke="#000000" points="758,-260.5 758,-280.5 902,-280.5 902,-260.5 758,-260.5"/>
<text text-anchor="middle" x="830" y="-267.5" font-family="FreeSans" font-size="10.00" fill="#000000">PHGenFitTrkProp::Process</text>
</a>
</g>
</g>
<!-- Node20&#45;&gt;Node21 -->
<g id="edge21" class="edge">
<title>Node20&#45;&gt;Node21</title>
<path fill="none" stroke="#191970" d="M717.4166,-270.5C731.0335,-270.5 744.7772,-270.5 757.7582,-270.5"/>
<polygon fill="#191970" stroke="#191970" points="717.0433,-267.0001 707.0432,-270.5 717.0432,-274.0001 717.0433,-267.0001"/>
</g>
<!-- Node22&#45;&gt;Node20 -->
<g id="edge23" class="edge">
<title>Node22&#45;&gt;Node20</title>
<path fill="none" stroke="#191970" d="M490.2541,-265.1906C501.9625,-265.683 513.9888,-266.1888 525.7472,-266.6833"/>
<polygon fill="#191970" stroke="#191970" points="490.1997,-261.6853 480.0615,-264.7619 489.9056,-268.6791 490.1997,-261.6853"/>
</g>
<!-- Node25 -->
<g id="node25" class="node">
<title>Node25</title>
<g id="a_node25"><a xlink:href="../../d2/d9a/classTpcPrototypeGenFitTrkFinder.html#ade4ab3187ffe209109db1dfae75d8311" target="_top" xlink:title="Process Event, called for each event.">
<polygon fill="none" stroke="#000000" points="535,-153.5 535,-185.5 698,-185.5 698,-153.5 535,-153.5"/>
<text text-anchor="start" x="543" y="-172.5" font-family="FreeSans" font-size="10.00" fill="#000000">TpcPrototypeGenFitTrkFinder</text>
<text text-anchor="middle" x="616.5" y="-160.5" font-family="FreeSans" font-size="10.00" fill="#000000">::process_event</text>
</a>
</g>
</g>
<!-- Node24&#45;&gt;Node25 -->
<g id="edge26" class="edge">
<title>Node24&#45;&gt;Node25</title>
<path fill="none" stroke="#191970" d="M494.2572,-163.7877C507.7547,-164.4184 521.5824,-165.0646 534.8576,-165.6849"/>
<polygon fill="#191970" stroke="#191970" points="494.1672,-160.2798 484.0147,-163.3091 493.8404,-167.2722 494.1672,-160.2798"/>
</g>
<!-- Node27 -->
<g id="node27" class="node">
<title>Node27</title>
<g id="a_node27"><a xlink:href="../../df/dd7/classTpcPrototypeGenFitTrkFitter.html#a8861dffacdf05e47efc97b65adbafe32" target="_top" xlink:title="Process Event, called for each event.">
<polygon fill="none" stroke="#000000" points="751.5,-51.5 751.5,-83.5 908.5,-83.5 908.5,-51.5 751.5,-51.5"/>
<text text-anchor="start" x="759.5" y="-70.5" font-family="FreeSans" font-size="10.00" fill="#000000">TpcPrototypeGenFitTrkFitter</text>
<text text-anchor="middle" x="830" y="-58.5" font-family="FreeSans" font-size="10.00" fill="#000000">::process_event</text>
</a>
</g>
</g>
<!-- Node26&#45;&gt;Node27 -->
<g id="edge28" class="edge">
<title>Node26&#45;&gt;Node27</title>
<path fill="none" stroke="#191970" d="M693.6524,-100.0702C716.2533,-94.6713 740.7761,-88.8134 762.7117,-83.5736"/>
<polygon fill="#191970" stroke="#191970" points="692.6728,-96.7056 683.7597,-102.4333 694.2993,-103.514 692.6728,-96.7056"/>
</g>
<!-- Node28&#45;&gt;Node27 -->
<g id="edge30" class="edge">
<title>Node28&#45;&gt;Node27</title>
<path fill="none" stroke="#191970" d="M705.4994,-67.5C720.6715,-67.5 736.3357,-67.5 751.2195,-67.5"/>
<polygon fill="#191970" stroke="#191970" points="705.09,-64.0001 695.09,-67.5 705.0899,-71.0001 705.09,-64.0001"/>
</g>
<!-- Node30 -->
<g id="node30" class="node">
<title>Node30</title>
<g id="a_node30"><a xlink:href="../../df/dd7/classTpcPrototypeGenFitTrkFitter.html#aaae0db362446e0098c4f4dbfa6714812" target="_top" xlink:title="TpcPrototypeGenFitTrkFitter\l::fill_eval_tree">
<polygon fill="none" stroke="#000000" points="538,-.5 538,-32.5 695,-32.5 695,-.5 538,-.5"/>
<text text-anchor="start" x="546" y="-19.5" font-family="FreeSans" font-size="10.00" fill="#000000">TpcPrototypeGenFitTrkFitter</text>
<text text-anchor="middle" x="616.5" y="-7.5" font-family="FreeSans" font-size="10.00" fill="#000000">::fill_eval_tree</text>
</a>
</g>
</g>
<!-- Node29&#45;&gt;Node30 -->
<g id="edge32" class="edge">
<title>Node29&#45;&gt;Node30</title>
<path fill="none" stroke="#191970" d="M491.3348,-20.0093C506.78,-19.5763 522.7454,-19.1286 537.8926,-18.7039"/>
<polygon fill="#191970" stroke="#191970" points="491.172,-16.5124 481.274,-20.2914 491.3682,-23.5096 491.172,-16.5124"/>
</g>
<!-- Node30&#45;&gt;Node27 -->
<g id="edge33" class="edge">
<title>Node30&#45;&gt;Node27</title>
<path fill="none" stroke="#191970" d="M693.6524,-34.9298C716.2533,-40.3287 740.7761,-46.1866 762.7117,-51.4264"/>
<polygon fill="#191970" stroke="#191970" points="694.2993,-31.486 683.7597,-32.5667 692.6728,-38.2944 694.2993,-31.486"/>
</g>
</g>
</svg>
