<?xml version="1.0" encoding="UTF-8" standalone="no"?>
<!DOCTYPE svg PUBLIC "-//W3C//DTD SVG 1.1//EN"
 "http://www.w3.org/Graphics/SVG/1.1/DTD/svg11.dtd">
<!-- Generated by graphviz version 2.40.1 (20161225.0304)
 -->
<!-- Title: genfit::RKTrackRepTests Pages: 1 -->
<svg width="187pt" height="156pt"
 viewBox="0.00 0.00 187.00 156.00" xmlns="http://www.w3.org/2000/svg" xmlns:xlink="http://www.w3.org/1999/xlink">
<g id="graph0" class="graph" transform="scale(1 1) rotate(0) translate(4 152)">
<title>genfit::RKTrackRepTests</title>
<!-- Node1 -->
<g id="node1" class="node">
<title>Node1</title>
<polygon fill="#bfbfbf" stroke="#000000" points="0,-.5 0,-20.5 136,-20.5 136,-.5 0,-.5"/>
<text text-anchor="middle" x="68" y="-7.5" font-family="FreeSans" font-size="10.00" fill="#000000">genfit::RKTrackRepTests</text>
</g>
<!-- Node2 -->
<g id="node2" class="node">
<title>Node2</title>
<polygon fill="none" stroke="#bfbfbf" points="19,-69.5 19,-89.5 57,-89.5 57,-69.5 19,-69.5"/>
<text text-anchor="middle" x="38" y="-76.5" font-family="FreeSans" font-size="10.00" fill="#000000">Test</text>
</g>
<!-- Node2&#45;&gt;Node1 -->
<g id="edge1" class="edge">
<title>Node2&#45;&gt;Node1</title>
<path fill="none" stroke="#191970" d="M46.4868,-59.9804C52.0406,-47.2066 59.0728,-31.0326 63.5552,-20.723"/>
<polygon fill="#191970" stroke="#191970" points="43.2042,-58.7525 42.4266,-69.3188 49.6237,-61.5437 43.2042,-58.7525"/>
</g>
<!-- Node3 -->
<g id="node3" class="node">
<title>Node3</title>
<g id="a_node3"><a xlink:href="../../d5/d63/classgenfit_1_1ConstField.html" target="_top" xlink:title="Constant Magnetic field.">
<polygon fill="none" stroke="#000000" points="75,-69.5 75,-89.5 179,-89.5 179,-69.5 75,-69.5"/>
<text text-anchor="middle" x="127" y="-76.5" font-family="FreeSans" font-size="10.00" fill="#000000">genfit::ConstField</text>
</a>
</g>
</g>
<!-- Node3&#45;&gt;Node1 -->
<g id="edge2" class="edge">
<title>Node3&#45;&gt;Node1</title>
<path fill="none" stroke="#9a32cd" stroke-dasharray="5,2" d="M111.5929,-61.4815C100.4901,-48.4969 85.906,-31.4409 76.7414,-20.723"/>
<polygon fill="#9a32cd" stroke="#9a32cd" points="109.1353,-63.9931 118.2943,-69.3188 114.4556,-59.4438 109.1353,-63.9931"/>
<text text-anchor="middle" x="136" y="-42" font-family="FreeSans" font-size="10.00" fill="#000000"> m_constField</text>
</g>
<!-- Node4 -->
<g id="node4" class="node">
<title>Node4</title>
<g id="a_node4"><a xlink:href="../../d0/dac/classgenfit_1_1AbsBField.html" target="_top" xlink:title="Abstract Interface to magnetic fields in GENFIT.">
<polygon fill="none" stroke="#000000" points="76.5,-127.5 76.5,-147.5 177.5,-147.5 177.5,-127.5 76.5,-127.5"/>
<text text-anchor="middle" x="127" y="-134.5" font-family="FreeSans" font-size="10.00" fill="#000000">genfit::AbsBField</text>
</a>
</g>
</g>
<!-- Node4&#45;&gt;Node3 -->
<g id="edge3" class="edge">
<title>Node4&#45;&gt;Node3</title>
<path fill="none" stroke="#191970" d="M127,-117.3902C127,-108.1201 127,-97.5083 127,-89.8776"/>
<polygon fill="#191970" stroke="#191970" points="123.5001,-117.3971 127,-127.3972 130.5001,-117.3972 123.5001,-117.3971"/>
</g>
</g>
</svg>
