<?xml version="1.0" encoding="UTF-8" standalone="no"?>
<!DOCTYPE svg PUBLIC "-//W3C//DTD SVG 1.1//EN"
 "http://www.w3.org/Graphics/SVG/1.1/DTD/svg11.dtd">
<!-- Generated by graphviz version 2.40.1 (20161225.0304)
 -->
<!-- Title: SvtxTrack_v1::set_pz Pages: 1 -->
<svg width="516pt" height="374pt"
 viewBox="0.00 0.00 516.00 374.00" xmlns="http://www.w3.org/2000/svg" xmlns:xlink="http://www.w3.org/1999/xlink">
<g id="graph0" class="graph" transform="scale(1 1) rotate(0) translate(4 370)">
<title>SvtxTrack_v1::set_pz</title>
<!-- Node1 -->
<g id="node1" class="node">
<title>Node1</title>
<polygon fill="#bfbfbf" stroke="#000000" points="0,-160.5 0,-180.5 121,-180.5 121,-160.5 0,-160.5"/>
<text text-anchor="middle" x="60.5" y="-167.5" font-family="FreeSans" font-size="10.00" fill="#000000">SvtxTrack_v1::set_pz</text>
</g>
<!-- Node2 -->
<g id="node2" class="node">
<title>Node2</title>
<g id="a_node2"><a xlink:href="../../d2/d8f/classPHInitZVertexing.html#a8be961e889654346a4d4435896e5d0e0" target="_top" xlink:title="PHInitZVertexing::export\l_output">
<polygon fill="none" stroke="#000000" points="169.5,-333.5 169.5,-365.5 310.5,-365.5 310.5,-333.5 169.5,-333.5"/>
<text text-anchor="start" x="177.5" y="-352.5" font-family="FreeSans" font-size="10.00" fill="#000000">PHInitZVertexing::export</text>
<text text-anchor="middle" x="240" y="-340.5" font-family="FreeSans" font-size="10.00" fill="#000000">_output</text>
</a>
</g>
</g>
<!-- Node1&#45;&gt;Node2 -->
<g id="edge1" class="edge">
<title>Node1&#45;&gt;Node2</title>
<path fill="none" stroke="#191970" d="M67.555,-190.2976C80.2639,-223.1221 110.1255,-288.7328 157,-324.5 161.4267,-327.8778 166.3076,-330.8014 171.419,-333.3315"/>
<polygon fill="#191970" stroke="#191970" points="70.6789,-188.6578 63.9029,-180.5132 64.1209,-191.1058 70.6789,-188.6578"/>
</g>
<!-- Node4 -->
<g id="node4" class="node">
<title>Node4</title>
<g id="a_node4"><a xlink:href="../../d1/d97/classPHPatternReco.html#a6549c8bd552acd725fc0e611560c53c7" target="_top" xlink:title="PHPatternReco::export\l_output">
<polygon fill="none" stroke="#000000" points="175,-282.5 175,-314.5 305,-314.5 305,-282.5 175,-282.5"/>
<text text-anchor="start" x="183" y="-301.5" font-family="FreeSans" font-size="10.00" fill="#000000">PHPatternReco::export</text>
<text text-anchor="middle" x="240" y="-289.5" font-family="FreeSans" font-size="10.00" fill="#000000">_output</text>
</a>
</g>
</g>
<!-- Node1&#45;&gt;Node4 -->
<g id="edge3" class="edge">
<title>Node1&#45;&gt;Node4</title>
<path fill="none" stroke="#191970" d="M72.985,-188.9008C89.5604,-211.9567 120.9706,-251.1483 157,-273.5 162.4989,-276.9114 168.4923,-279.8821 174.6588,-282.4639"/>
<polygon fill="#191970" stroke="#191970" points="75.8027,-186.8228 67.1923,-180.6493 70.0735,-190.8449 75.8027,-186.8228"/>
</g>
<!-- Node6 -->
<g id="node6" class="node">
<title>Node6</title>
<g id="a_node6"><a xlink:href="../../d8/dd4/classPHHoughSeeding.html#a61550a59cd3a34af03c43572e28274cb" target="_top" xlink:title="code to translate back to the SVTX universe">
<polygon fill="none" stroke="#000000" points="168,-231.5 168,-263.5 312,-263.5 312,-231.5 168,-231.5"/>
<text text-anchor="start" x="176" y="-250.5" font-family="FreeSans" font-size="10.00" fill="#000000">PHHoughSeeding::export</text>
<text text-anchor="middle" x="240" y="-238.5" font-family="FreeSans" font-size="10.00" fill="#000000">_output</text>
</a>
</g>
</g>
<!-- Node1&#45;&gt;Node6 -->
<g id="edge5" class="edge">
<title>Node1&#45;&gt;Node6</title>
<path fill="none" stroke="#191970" d="M85.4091,-185.7316C104.5036,-196.9566 131.774,-212.0301 157,-222.5 164.7838,-225.7306 173.1338,-228.7441 181.4299,-231.4809"/>
<polygon fill="#191970" stroke="#191970" points="87.1198,-182.6768 76.737,-180.5674 83.5382,-188.6911 87.1198,-182.6768"/>
</g>
<!-- Node8 -->
<g id="node8" class="node">
<title>Node8</title>
<g id="a_node8"><a xlink:href="../../d9/d91/classPHG4TrackFastSim.html#a27f5d3e1fcab6a5cc74fda92cd51359f" target="_top" xlink:title="PHG4TrackFastSim::MakeSvtx\lTrack">
<polygon fill="none" stroke="#000000" points="157,-180.5 157,-212.5 323,-212.5 323,-180.5 157,-180.5"/>
<text text-anchor="start" x="165" y="-199.5" font-family="FreeSans" font-size="10.00" fill="#000000">PHG4TrackFastSim::MakeSvtx</text>
<text text-anchor="middle" x="240" y="-187.5" font-family="FreeSans" font-size="10.00" fill="#000000">Track</text>
</a>
</g>
</g>
<!-- Node1&#45;&gt;Node8 -->
<g id="edge7" class="edge">
<title>Node1&#45;&gt;Node8</title>
<path fill="none" stroke="#191970" d="M131.3032,-180.7556C139.638,-181.9629 148.2011,-183.2032 156.6871,-184.4324"/>
<polygon fill="#191970" stroke="#191970" points="131.669,-177.2722 121.2705,-179.3024 130.6655,-184.1999 131.669,-177.2722"/>
</g>
<!-- Node9 -->
<g id="node9" class="node">
<title>Node9</title>
<g id="a_node9"><a xlink:href="../../d5/da2/classPHTruthTrackSeeding.html#ab0ab67b0de3435bad2eeba92a482753c" target="_top" xlink:title="PHTruthTrackSeeding\l::Process">
<polygon fill="none" stroke="#000000" points="178.5,-129.5 178.5,-161.5 301.5,-161.5 301.5,-129.5 178.5,-129.5"/>
<text text-anchor="start" x="186.5" y="-148.5" font-family="FreeSans" font-size="10.00" fill="#000000">PHTruthTrackSeeding</text>
<text text-anchor="middle" x="240" y="-136.5" font-family="FreeSans" font-size="10.00" fill="#000000">::Process</text>
</a>
</g>
</g>
<!-- Node1&#45;&gt;Node9 -->
<g id="edge8" class="edge">
<title>Node1&#45;&gt;Node9</title>
<path fill="none" stroke="#191970" d="M131.3498,-160.6323C146.8932,-158.4675 163.2287,-156.1924 178.3754,-154.0828"/>
<polygon fill="#191970" stroke="#191970" points="130.6921,-157.1901 121.2705,-162.0361 131.6577,-164.1232 130.6921,-157.1901"/>
</g>
<!-- Node10 -->
<g id="node10" class="node">
<title>Node10</title>
<g id="a_node10"><a xlink:href="../../da/df1/classPHRTreeSeeding.html#a0aba948a58d39c1064797b4568d7d811" target="_top" xlink:title="PHRTreeSeeding::Process">
<polygon fill="none" stroke="#000000" points="168.5,-90.5 168.5,-110.5 311.5,-110.5 311.5,-90.5 168.5,-90.5"/>
<text text-anchor="middle" x="240" y="-97.5" font-family="FreeSans" font-size="10.00" fill="#000000">PHRTreeSeeding::Process</text>
</a>
</g>
</g>
<!-- Node1&#45;&gt;Node10 -->
<g id="edge9" class="edge">
<title>Node1&#45;&gt;Node10</title>
<path fill="none" stroke="#191970" d="M85.669,-155.3107C104.7035,-144.3617 131.782,-129.9131 157,-120.5 167.4147,-116.6125 178.851,-113.2862 189.8164,-110.526"/>
<polygon fill="#191970" stroke="#191970" points="83.883,-152.3005 77.0143,-160.3672 87.4143,-158.3446 83.883,-152.3005"/>
</g>
<!-- Node11 -->
<g id="node11" class="node">
<title>Node11</title>
<g id="a_node11"><a xlink:href="../../d1/d08/classPHCASeeding.html#aaa4eca2abbf1065bb9b48de9cb683494" target="_top" xlink:title="PHCASeeding::Process">
<polygon fill="none" stroke="#000000" points="175,-51.5 175,-71.5 305,-71.5 305,-51.5 175,-51.5"/>
<text text-anchor="middle" x="240" y="-58.5" font-family="FreeSans" font-size="10.00" fill="#000000">PHCASeeding::Process</text>
</a>
</g>
</g>
<!-- Node1&#45;&gt;Node11 -->
<g id="edge10" class="edge">
<title>Node1&#45;&gt;Node11</title>
<path fill="none" stroke="#191970" d="M74.8977,-152.5768C92.2238,-132.2344 123.2297,-99.544 157,-81.5 164.5824,-77.4486 172.9894,-74.2064 181.4582,-71.6147"/>
<polygon fill="#191970" stroke="#191970" points="72.0447,-150.5337 68.3416,-160.4603 77.4268,-155.0096 72.0447,-150.5337"/>
</g>
<!-- Node12 -->
<g id="node12" class="node">
<title>Node12</title>
<g id="a_node12"><a xlink:href="../../d2/d9a/classTpcPrototypeGenFitTrkFinder.html#ade4ab3187ffe209109db1dfae75d8311" target="_top" xlink:title="Process Event, called for each event.">
<polygon fill="none" stroke="#000000" points="158.5,-.5 158.5,-32.5 321.5,-32.5 321.5,-.5 158.5,-.5"/>
<text text-anchor="start" x="166.5" y="-19.5" font-family="FreeSans" font-size="10.00" fill="#000000">TpcPrototypeGenFitTrkFinder</text>
<text text-anchor="middle" x="240" y="-7.5" font-family="FreeSans" font-size="10.00" fill="#000000">::process_event</text>
</a>
</g>
</g>
<!-- Node1&#45;&gt;Node12 -->
<g id="edge11" class="edge">
<title>Node1&#45;&gt;Node12</title>
<path fill="none" stroke="#191970" d="M69.9446,-151.3589C84.7094,-123.379 115.8799,-71.4966 157,-42.5 162.4298,-38.6711 168.4451,-35.3903 174.6841,-32.5823"/>
<polygon fill="#191970" stroke="#191970" points="66.7063,-150.0036 65.2591,-160.4991 72.9355,-153.1969 66.7063,-150.0036"/>
</g>
<!-- Node3 -->
<g id="node3" class="node">
<title>Node3</title>
<g id="a_node3"><a xlink:href="../../d2/d8f/classPHInitZVertexing.html#a50743230c0f324a28d4410227a526ec8" target="_top" xlink:title="PHInitZVertexing::Process">
<polygon fill="none" stroke="#000000" points="360.5,-339.5 360.5,-359.5 506.5,-359.5 506.5,-339.5 360.5,-339.5"/>
<text text-anchor="middle" x="433.5" y="-346.5" font-family="FreeSans" font-size="10.00" fill="#000000">PHInitZVertexing::Process</text>
</a>
</g>
</g>
<!-- Node2&#45;&gt;Node3 -->
<g id="edge2" class="edge">
<title>Node2&#45;&gt;Node3</title>
<path fill="none" stroke="#191970" d="M321.0489,-349.5C334.1071,-349.5 347.5574,-349.5 360.4138,-349.5"/>
<polygon fill="#191970" stroke="#191970" points="320.6793,-346.0001 310.6793,-349.5 320.6793,-353.0001 320.6793,-346.0001"/>
</g>
<!-- Node5 -->
<g id="node5" class="node">
<title>Node5</title>
<g id="a_node5"><a xlink:href="../../d1/d97/classPHPatternReco.html#ac97e2c1e8d98ea16a11d44c134ad0299" target="_top" xlink:title="PHPatternReco::process\l_event">
<polygon fill="none" stroke="#000000" points="365.5,-282.5 365.5,-314.5 501.5,-314.5 501.5,-282.5 365.5,-282.5"/>
<text text-anchor="start" x="373.5" y="-301.5" font-family="FreeSans" font-size="10.00" fill="#000000">PHPatternReco::process</text>
<text text-anchor="middle" x="433.5" y="-289.5" font-family="FreeSans" font-size="10.00" fill="#000000">_event</text>
</a>
</g>
</g>
<!-- Node4&#45;&gt;Node5 -->
<g id="edge4" class="edge">
<title>Node4&#45;&gt;Node5</title>
<path fill="none" stroke="#191970" d="M315.3458,-298.5C331.7848,-298.5 349.0916,-298.5 365.2366,-298.5"/>
<polygon fill="#191970" stroke="#191970" points="315.2405,-295.0001 305.2405,-298.5 315.2405,-302.0001 315.2405,-295.0001"/>
</g>
<!-- Node7 -->
<g id="node7" class="node">
<title>Node7</title>
<g id="a_node7"><a xlink:href="../../d8/dd4/classPHHoughSeeding.html#a8b2c7b85b2bcbe054e071dd6ff624f7d" target="_top" xlink:title="PHHoughSeeding::Process">
<polygon fill="none" stroke="#000000" points="359,-237.5 359,-257.5 508,-257.5 508,-237.5 359,-237.5"/>
<text text-anchor="middle" x="433.5" y="-244.5" font-family="FreeSans" font-size="10.00" fill="#000000">PHHoughSeeding::Process</text>
</a>
</g>
</g>
<!-- Node6&#45;&gt;Node7 -->
<g id="edge6" class="edge">
<title>Node6&#45;&gt;Node7</title>
<path fill="none" stroke="#191970" d="M322.174,-247.5C334.3324,-247.5 346.8052,-247.5 358.8003,-247.5"/>
<polygon fill="#191970" stroke="#191970" points="322.0523,-244.0001 312.0523,-247.5 322.0522,-251.0001 322.0523,-244.0001"/>
</g>
</g>
</svg>
