<?xml version="1.0" encoding="UTF-8" standalone="no"?>
<!DOCTYPE svg PUBLIC "-//W3C//DTD SVG 1.1//EN"
 "http://www.w3.org/Graphics/SVG/1.1/DTD/svg11.dtd">
<!-- Generated by graphviz version 2.40.1 (20161225.0304)
 -->
<!-- Title: SvtxTrack_v1::set_px Pages: 1 -->
<svg width="517pt" height="374pt"
 viewBox="0.00 0.00 517.00 374.00" xmlns="http://www.w3.org/2000/svg" xmlns:xlink="http://www.w3.org/1999/xlink">
<g id="graph0" class="graph" transform="scale(1 1) rotate(0) translate(4 370)">
<title>SvtxTrack_v1::set_px</title>
<!-- Node1 -->
<g id="node1" class="node">
<title>Node1</title>
<polygon fill="#bfbfbf" stroke="#000000" points="0,-160.5 0,-180.5 122,-180.5 122,-160.5 0,-160.5"/>
<text text-anchor="middle" x="61" y="-167.5" font-family="FreeSans" font-size="10.00" fill="#000000">SvtxTrack_v1::set_px</text>
</g>
<!-- Node2 -->
<g id="node2" class="node">
<title>Node2</title>
<g id="a_node2"><a xlink:href="../../d2/d8f/classPHInitZVertexing.html#a8be961e889654346a4d4435896e5d0e0" target="_top" xlink:title="PHInitZVertexing::export\l_output">
<polygon fill="none" stroke="#000000" points="170.5,-333.5 170.5,-365.5 311.5,-365.5 311.5,-333.5 170.5,-333.5"/>
<text text-anchor="start" x="178.5" y="-352.5" font-family="FreeSans" font-size="10.00" fill="#000000">PHInitZVertexing::export</text>
<text text-anchor="middle" x="241" y="-340.5" font-family="FreeSans" font-size="10.00" fill="#000000">_output</text>
</a>
</g>
</g>
<!-- Node1&#45;&gt;Node2 -->
<g id="edge1" class="edge">
<title>Node1&#45;&gt;Node2</title>
<path fill="none" stroke="#191970" d="M68.1206,-190.2981C80.9379,-223.1234 111.0153,-288.7351 158,-324.5 162.4306,-327.8726 167.3143,-330.7925 172.4276,-333.3202"/>
<polygon fill="#191970" stroke="#191970" points="71.2356,-188.6385 64.4361,-180.5134 64.6847,-191.1053 71.2356,-188.6385"/>
</g>
<!-- Node4 -->
<g id="node4" class="node">
<title>Node4</title>
<g id="a_node4"><a xlink:href="../../d1/d97/classPHPatternReco.html#a6549c8bd552acd725fc0e611560c53c7" target="_top" xlink:title="PHPatternReco::export\l_output">
<polygon fill="none" stroke="#000000" points="176,-282.5 176,-314.5 306,-314.5 306,-282.5 176,-282.5"/>
<text text-anchor="start" x="184" y="-301.5" font-family="FreeSans" font-size="10.00" fill="#000000">PHPatternReco::export</text>
<text text-anchor="middle" x="241" y="-289.5" font-family="FreeSans" font-size="10.00" fill="#000000">_output</text>
</a>
</g>
</g>
<!-- Node1&#45;&gt;Node4 -->
<g id="edge3" class="edge">
<title>Node1&#45;&gt;Node4</title>
<path fill="none" stroke="#191970" d="M73.5719,-188.8984C90.2566,-211.9518 121.8544,-251.1407 158,-273.5 163.5033,-276.9043 169.4996,-279.8703 175.6679,-282.4492"/>
<polygon fill="#191970" stroke="#191970" points="76.3703,-186.7937 67.7401,-180.6479 70.6541,-190.8341 76.3703,-186.7937"/>
</g>
<!-- Node6 -->
<g id="node6" class="node">
<title>Node6</title>
<g id="a_node6"><a xlink:href="../../d8/dd4/classPHHoughSeeding.html#a61550a59cd3a34af03c43572e28274cb" target="_top" xlink:title="code to translate back to the SVTX universe">
<polygon fill="none" stroke="#000000" points="169,-231.5 169,-263.5 313,-263.5 313,-231.5 169,-231.5"/>
<text text-anchor="start" x="177" y="-250.5" font-family="FreeSans" font-size="10.00" fill="#000000">PHHoughSeeding::export</text>
<text text-anchor="middle" x="241" y="-238.5" font-family="FreeSans" font-size="10.00" fill="#000000">_output</text>
</a>
</g>
</g>
<!-- Node1&#45;&gt;Node6 -->
<g id="edge5" class="edge">
<title>Node1&#45;&gt;Node6</title>
<path fill="none" stroke="#191970" d="M86.0487,-185.7231C105.2475,-196.9436 132.6613,-212.0154 158,-222.5 165.7872,-225.7222 174.1392,-228.731 182.4363,-231.4655"/>
<polygon fill="#191970" stroke="#191970" points="87.717,-182.6434 77.3288,-180.5611 84.1511,-188.6671 87.717,-182.6434"/>
</g>
<!-- Node8 -->
<g id="node8" class="node">
<title>Node8</title>
<g id="a_node8"><a xlink:href="../../d9/d91/classPHG4TrackFastSim.html#a27f5d3e1fcab6a5cc74fda92cd51359f" target="_top" xlink:title="PHG4TrackFastSim::MakeSvtx\lTrack">
<polygon fill="none" stroke="#000000" points="158,-180.5 158,-212.5 324,-212.5 324,-180.5 158,-180.5"/>
<text text-anchor="start" x="166" y="-199.5" font-family="FreeSans" font-size="10.00" fill="#000000">PHG4TrackFastSim::MakeSvtx</text>
<text text-anchor="middle" x="241" y="-187.5" font-family="FreeSans" font-size="10.00" fill="#000000">Track</text>
</a>
</g>
</g>
<!-- Node1&#45;&gt;Node8 -->
<g id="edge7" class="edge">
<title>Node1&#45;&gt;Node8</title>
<path fill="none" stroke="#191970" d="M132.3335,-180.8037C140.7586,-182.0207 149.412,-183.2706 157.9806,-184.5083"/>
<polygon fill="#191970" stroke="#191970" points="132.5886,-177.3043 122.191,-179.3387 131.5878,-184.2324 132.5886,-177.3043"/>
</g>
<!-- Node9 -->
<g id="node9" class="node">
<title>Node9</title>
<g id="a_node9"><a xlink:href="../../d5/da2/classPHTruthTrackSeeding.html#ab0ab67b0de3435bad2eeba92a482753c" target="_top" xlink:title="PHTruthTrackSeeding\l::Process">
<polygon fill="none" stroke="#000000" points="179.5,-129.5 179.5,-161.5 302.5,-161.5 302.5,-129.5 179.5,-129.5"/>
<text text-anchor="start" x="187.5" y="-148.5" font-family="FreeSans" font-size="10.00" fill="#000000">PHTruthTrackSeeding</text>
<text text-anchor="middle" x="241" y="-136.5" font-family="FreeSans" font-size="10.00" fill="#000000">::Process</text>
</a>
</g>
</g>
<!-- Node1&#45;&gt;Node9 -->
<g id="edge8" class="edge">
<title>Node1&#45;&gt;Node9</title>
<path fill="none" stroke="#191970" d="M132.2893,-160.5987C147.8591,-158.4362 164.2105,-156.1652 179.3665,-154.0602"/>
<polygon fill="#191970" stroke="#191970" points="131.6144,-157.1588 122.191,-162.0013 132.5774,-164.0922 131.6144,-157.1588"/>
</g>
<!-- Node10 -->
<g id="node10" class="node">
<title>Node10</title>
<g id="a_node10"><a xlink:href="../../da/df1/classPHRTreeSeeding.html#a0aba948a58d39c1064797b4568d7d811" target="_top" xlink:title="PHRTreeSeeding::Process">
<polygon fill="none" stroke="#000000" points="169.5,-90.5 169.5,-110.5 312.5,-110.5 312.5,-90.5 169.5,-90.5"/>
<text text-anchor="middle" x="241" y="-97.5" font-family="FreeSans" font-size="10.00" fill="#000000">PHRTreeSeeding::Process</text>
</a>
</g>
</g>
<!-- Node1&#45;&gt;Node10 -->
<g id="edge9" class="edge">
<title>Node1&#45;&gt;Node10</title>
<path fill="none" stroke="#191970" d="M86.3098,-155.3176C105.4482,-144.3721 132.669,-129.9249 158,-120.5 168.4188,-116.6235 179.8568,-113.3017 190.8225,-110.5424"/>
<polygon fill="#191970" stroke="#191970" points="84.4967,-152.3231 77.6075,-160.3722 88.0126,-158.3761 84.4967,-152.3231"/>
</g>
<!-- Node11 -->
<g id="node11" class="node">
<title>Node11</title>
<g id="a_node11"><a xlink:href="../../d1/d08/classPHCASeeding.html#aaa4eca2abbf1065bb9b48de9cb683494" target="_top" xlink:title="PHCASeeding::Process">
<polygon fill="none" stroke="#000000" points="176,-51.5 176,-71.5 306,-71.5 306,-51.5 176,-51.5"/>
<text text-anchor="middle" x="241" y="-58.5" font-family="FreeSans" font-size="10.00" fill="#000000">PHCASeeding::Process</text>
</a>
</g>
</g>
<!-- Node1&#45;&gt;Node11 -->
<g id="edge10" class="edge">
<title>Node1&#45;&gt;Node11</title>
<path fill="none" stroke="#191970" d="M75.4926,-152.5793C92.9274,-132.2392 124.1117,-99.551 158,-81.5 165.5876,-77.4584 173.9975,-74.2215 182.4676,-71.6322"/>
<polygon fill="#191970" stroke="#191970" points="72.6293,-150.5471 68.8945,-160.4618 77.997,-155.0402 72.6293,-150.5471"/>
</g>
<!-- Node12 -->
<g id="node12" class="node">
<title>Node12</title>
<g id="a_node12"><a xlink:href="../../d2/d9a/classTpcPrototypeGenFitTrkFinder.html#ade4ab3187ffe209109db1dfae75d8311" target="_top" xlink:title="Process Event, called for each event.">
<polygon fill="none" stroke="#000000" points="159.5,-.5 159.5,-32.5 322.5,-32.5 322.5,-.5 159.5,-.5"/>
<text text-anchor="start" x="167.5" y="-19.5" font-family="FreeSans" font-size="10.00" fill="#000000">TpcPrototypeGenFitTrkFinder</text>
<text text-anchor="middle" x="241" y="-7.5" font-family="FreeSans" font-size="10.00" fill="#000000">::process_event</text>
</a>
</g>
</g>
<!-- Node1&#45;&gt;Node12 -->
<g id="edge11" class="edge">
<title>Node1&#45;&gt;Node12</title>
<path fill="none" stroke="#191970" d="M70.5193,-151.3597C85.3934,-123.3809 116.7664,-71.4999 158,-42.5 163.4346,-38.6778 169.4529,-35.4014 175.6938,-32.5962"/>
<polygon fill="#191970" stroke="#191970" points="67.2779,-150.0086 65.7981,-160.4996 73.4972,-153.2212 67.2779,-150.0086"/>
</g>
<!-- Node3 -->
<g id="node3" class="node">
<title>Node3</title>
<g id="a_node3"><a xlink:href="../../d2/d8f/classPHInitZVertexing.html#a50743230c0f324a28d4410227a526ec8" target="_top" xlink:title="PHInitZVertexing::Process">
<polygon fill="none" stroke="#000000" points="361.5,-339.5 361.5,-359.5 507.5,-359.5 507.5,-339.5 361.5,-339.5"/>
<text text-anchor="middle" x="434.5" y="-346.5" font-family="FreeSans" font-size="10.00" fill="#000000">PHInitZVertexing::Process</text>
</a>
</g>
</g>
<!-- Node2&#45;&gt;Node3 -->
<g id="edge2" class="edge">
<title>Node2&#45;&gt;Node3</title>
<path fill="none" stroke="#191970" d="M322.0489,-349.5C335.1071,-349.5 348.5574,-349.5 361.4138,-349.5"/>
<polygon fill="#191970" stroke="#191970" points="321.6793,-346.0001 311.6793,-349.5 321.6793,-353.0001 321.6793,-346.0001"/>
</g>
<!-- Node5 -->
<g id="node5" class="node">
<title>Node5</title>
<g id="a_node5"><a xlink:href="../../d1/d97/classPHPatternReco.html#ac97e2c1e8d98ea16a11d44c134ad0299" target="_top" xlink:title="PHPatternReco::process\l_event">
<polygon fill="none" stroke="#000000" points="366.5,-282.5 366.5,-314.5 502.5,-314.5 502.5,-282.5 366.5,-282.5"/>
<text text-anchor="start" x="374.5" y="-301.5" font-family="FreeSans" font-size="10.00" fill="#000000">PHPatternReco::process</text>
<text text-anchor="middle" x="434.5" y="-289.5" font-family="FreeSans" font-size="10.00" fill="#000000">_event</text>
</a>
</g>
</g>
<!-- Node4&#45;&gt;Node5 -->
<g id="edge4" class="edge">
<title>Node4&#45;&gt;Node5</title>
<path fill="none" stroke="#191970" d="M316.3458,-298.5C332.7848,-298.5 350.0916,-298.5 366.2366,-298.5"/>
<polygon fill="#191970" stroke="#191970" points="316.2405,-295.0001 306.2405,-298.5 316.2405,-302.0001 316.2405,-295.0001"/>
</g>
<!-- Node7 -->
<g id="node7" class="node">
<title>Node7</title>
<g id="a_node7"><a xlink:href="../../d8/dd4/classPHHoughSeeding.html#a8b2c7b85b2bcbe054e071dd6ff624f7d" target="_top" xlink:title="PHHoughSeeding::Process">
<polygon fill="none" stroke="#000000" points="360,-237.5 360,-257.5 509,-257.5 509,-237.5 360,-237.5"/>
<text text-anchor="middle" x="434.5" y="-244.5" font-family="FreeSans" font-size="10.00" fill="#000000">PHHoughSeeding::Process</text>
</a>
</g>
</g>
<!-- Node6&#45;&gt;Node7 -->
<g id="edge6" class="edge">
<title>Node6&#45;&gt;Node7</title>
<path fill="none" stroke="#191970" d="M323.174,-247.5C335.3324,-247.5 347.8052,-247.5 359.8003,-247.5"/>
<polygon fill="#191970" stroke="#191970" points="323.0523,-244.0001 313.0523,-247.5 323.0522,-251.0001 323.0523,-244.0001"/>
</g>
</g>
</svg>
