<?xml version="1.0" encoding="UTF-8" standalone="no"?>
<!DOCTYPE svg PUBLIC "-//W3C//DTD SVG 1.1//EN"
 "http://www.w3.org/Graphics/SVG/1.1/DTD/svg11.dtd">
<!-- Generated by graphviz version 2.40.1 (20161225.0304)
 -->
<!-- Title: SvtxTrack_v1::set_z Pages: 1 -->
<svg width="510pt" height="323pt"
 viewBox="0.00 0.00 510.00 323.00" xmlns="http://www.w3.org/2000/svg" xmlns:xlink="http://www.w3.org/1999/xlink">
<g id="graph0" class="graph" transform="scale(1 1) rotate(0) translate(4 319)">
<title>SvtxTrack_v1::set_z</title>
<!-- Node1 -->
<g id="node1" class="node">
<title>Node1</title>
<polygon fill="#bfbfbf" stroke="#000000" points="0,-135.5 0,-155.5 115,-155.5 115,-135.5 0,-135.5"/>
<text text-anchor="middle" x="57.5" y="-142.5" font-family="FreeSans" font-size="10.00" fill="#000000">SvtxTrack_v1::set_z</text>
</g>
<!-- Node2 -->
<g id="node2" class="node">
<title>Node2</title>
<g id="a_node2"><a xlink:href="../../d2/d8f/classPHInitZVertexing.html#a8be961e889654346a4d4435896e5d0e0" target="_top" xlink:title="PHInitZVertexing::export\l_output">
<polygon fill="none" stroke="#000000" points="163.5,-282.5 163.5,-314.5 304.5,-314.5 304.5,-282.5 163.5,-282.5"/>
<text text-anchor="start" x="171.5" y="-301.5" font-family="FreeSans" font-size="10.00" fill="#000000">PHInitZVertexing::export</text>
<text text-anchor="middle" x="234" y="-289.5" font-family="FreeSans" font-size="10.00" fill="#000000">_output</text>
</a>
</g>
</g>
<!-- Node1&#45;&gt;Node2 -->
<g id="edge1" class="edge">
<title>Node1&#45;&gt;Node2</title>
<path fill="none" stroke="#191970" d="M66.454,-164.7033C80.5098,-192.762 110.3974,-244.7435 151,-273.5 155.7896,-276.8922 161.0462,-279.8311 166.5163,-282.376"/>
<polygon fill="#191970" stroke="#191970" points="69.5185,-163.0016 62.0013,-155.5355 63.2219,-166.0598 69.5185,-163.0016"/>
</g>
<!-- Node4 -->
<g id="node4" class="node">
<title>Node4</title>
<g id="a_node4"><a xlink:href="../../d1/d97/classPHPatternReco.html#a6549c8bd552acd725fc0e611560c53c7" target="_top" xlink:title="PHPatternReco::export\l_output">
<polygon fill="none" stroke="#000000" points="169,-231.5 169,-263.5 299,-263.5 299,-231.5 169,-231.5"/>
<text text-anchor="start" x="177" y="-250.5" font-family="FreeSans" font-size="10.00" fill="#000000">PHPatternReco::export</text>
<text text-anchor="middle" x="234" y="-238.5" font-family="FreeSans" font-size="10.00" fill="#000000">_output</text>
</a>
</g>
</g>
<!-- Node1&#45;&gt;Node4 -->
<g id="edge3" class="edge">
<title>Node1&#45;&gt;Node4</title>
<path fill="none" stroke="#191970" d="M74.4228,-163.0341C92.064,-180.3891 121.2453,-206.6008 151,-222.5 157.2384,-225.8334 163.9837,-228.7855 170.8397,-231.384"/>
<polygon fill="#191970" stroke="#191970" points="76.7061,-160.3668 67.1689,-155.7523 71.7468,-165.3071 76.7061,-160.3668"/>
</g>
<!-- Node6 -->
<g id="node6" class="node">
<title>Node6</title>
<g id="a_node6"><a xlink:href="../../d8/dd4/classPHHoughSeeding.html#a61550a59cd3a34af03c43572e28274cb" target="_top" xlink:title="code to translate back to the SVTX universe">
<polygon fill="none" stroke="#000000" points="162,-180.5 162,-212.5 306,-212.5 306,-180.5 162,-180.5"/>
<text text-anchor="start" x="170" y="-199.5" font-family="FreeSans" font-size="10.00" fill="#000000">PHHoughSeeding::export</text>
<text text-anchor="middle" x="234" y="-187.5" font-family="FreeSans" font-size="10.00" fill="#000000">_output</text>
</a>
</g>
</g>
<!-- Node1&#45;&gt;Node6 -->
<g id="edge5" class="edge">
<title>Node1&#45;&gt;Node6</title>
<path fill="none" stroke="#191970" d="M102.2593,-158.4333C125.3872,-165.1161 153.8287,-173.3343 178.3587,-180.4223"/>
<polygon fill="#191970" stroke="#191970" points="102.9493,-154.9895 92.3707,-155.576 101.0061,-161.7144 102.9493,-154.9895"/>
</g>
<!-- Node8 -->
<g id="node8" class="node">
<title>Node8</title>
<g id="a_node8"><a xlink:href="../../d9/d91/classPHG4TrackFastSim.html#a27f5d3e1fcab6a5cc74fda92cd51359f" target="_top" xlink:title="PHG4TrackFastSim::MakeSvtx\lTrack">
<polygon fill="none" stroke="#000000" points="151,-129.5 151,-161.5 317,-161.5 317,-129.5 151,-129.5"/>
<text text-anchor="start" x="159" y="-148.5" font-family="FreeSans" font-size="10.00" fill="#000000">PHG4TrackFastSim::MakeSvtx</text>
<text text-anchor="middle" x="234" y="-136.5" font-family="FreeSans" font-size="10.00" fill="#000000">Track</text>
</a>
</g>
</g>
<!-- Node1&#45;&gt;Node8 -->
<g id="edge7" class="edge">
<title>Node1&#45;&gt;Node8</title>
<path fill="none" stroke="#191970" d="M125.3154,-145.5C133.6546,-145.5 142.2514,-145.5 150.7852,-145.5"/>
<polygon fill="#191970" stroke="#191970" points="125.2927,-142.0001 115.2927,-145.5 125.2927,-149.0001 125.2927,-142.0001"/>
</g>
<!-- Node9 -->
<g id="node9" class="node">
<title>Node9</title>
<g id="a_node9"><a xlink:href="../../da/df1/classPHRTreeSeeding.html#a0aba948a58d39c1064797b4568d7d811" target="_top" xlink:title="PHRTreeSeeding::Process">
<polygon fill="none" stroke="#000000" points="162.5,-90.5 162.5,-110.5 305.5,-110.5 305.5,-90.5 162.5,-90.5"/>
<text text-anchor="middle" x="234" y="-97.5" font-family="FreeSans" font-size="10.00" fill="#000000">PHRTreeSeeding::Process</text>
</a>
</g>
</g>
<!-- Node1&#45;&gt;Node9 -->
<g id="edge8" class="edge">
<title>Node1&#45;&gt;Node9</title>
<path fill="none" stroke="#191970" d="M104.3173,-132.7381C119.2189,-128.7416 135.7835,-124.367 151,-120.5 164.0726,-117.1778 178.3392,-113.6904 191.299,-110.5749"/>
<polygon fill="#191970" stroke="#191970" points="103.0501,-129.4546 94.3036,-135.4336 104.8696,-136.214 103.0501,-129.4546"/>
</g>
<!-- Node10 -->
<g id="node10" class="node">
<title>Node10</title>
<g id="a_node10"><a xlink:href="../../d1/d08/classPHCASeeding.html#aaa4eca2abbf1065bb9b48de9cb683494" target="_top" xlink:title="PHCASeeding::Process">
<polygon fill="none" stroke="#000000" points="169,-51.5 169,-71.5 299,-71.5 299,-51.5 169,-51.5"/>
<text text-anchor="middle" x="234" y="-58.5" font-family="FreeSans" font-size="10.00" fill="#000000">PHCASeeding::Process</text>
</a>
</g>
</g>
<!-- Node1&#45;&gt;Node10 -->
<g id="edge9" class="edge">
<title>Node1&#45;&gt;Node10</title>
<path fill="none" stroke="#191970" d="M77.079,-128.9285C95.169,-114.4211 123.3498,-93.7931 151,-81.5 160.0744,-77.4656 170.0842,-74.173 179.9181,-71.5103"/>
<polygon fill="#191970" stroke="#191970" points="74.5774,-126.4532 69.0556,-135.4954 79.0109,-131.8702 74.5774,-126.4532"/>
</g>
<!-- Node11 -->
<g id="node11" class="node">
<title>Node11</title>
<g id="a_node11"><a xlink:href="../../d2/d9a/classTpcPrototypeGenFitTrkFinder.html#ade4ab3187ffe209109db1dfae75d8311" target="_top" xlink:title="Process Event, called for each event.">
<polygon fill="none" stroke="#000000" points="152.5,-.5 152.5,-32.5 315.5,-32.5 315.5,-.5 152.5,-.5"/>
<text text-anchor="start" x="160.5" y="-19.5" font-family="FreeSans" font-size="10.00" fill="#000000">TpcPrototypeGenFitTrkFinder</text>
<text text-anchor="middle" x="234" y="-7.5" font-family="FreeSans" font-size="10.00" fill="#000000">::process_event</text>
</a>
</g>
</g>
<!-- Node1&#45;&gt;Node11 -->
<g id="edge10" class="edge">
<title>Node1&#45;&gt;Node11</title>
<path fill="none" stroke="#191970" d="M69.7141,-126.8404C85.729,-103.795 115.9434,-64.9029 151,-42.5 156.9802,-38.6783 163.5623,-35.3835 170.3235,-32.551"/>
<polygon fill="#191970" stroke="#191970" points="66.6404,-125.1372 63.9277,-135.3788 72.4351,-129.0642 66.6404,-125.1372"/>
</g>
<!-- Node3 -->
<g id="node3" class="node">
<title>Node3</title>
<g id="a_node3"><a xlink:href="../../d2/d8f/classPHInitZVertexing.html#a50743230c0f324a28d4410227a526ec8" target="_top" xlink:title="PHInitZVertexing::Process">
<polygon fill="none" stroke="#000000" points="354.5,-288.5 354.5,-308.5 500.5,-308.5 500.5,-288.5 354.5,-288.5"/>
<text text-anchor="middle" x="427.5" y="-295.5" font-family="FreeSans" font-size="10.00" fill="#000000">PHInitZVertexing::Process</text>
</a>
</g>
</g>
<!-- Node2&#45;&gt;Node3 -->
<g id="edge2" class="edge">
<title>Node2&#45;&gt;Node3</title>
<path fill="none" stroke="#191970" d="M315.0489,-298.5C328.1071,-298.5 341.5574,-298.5 354.4138,-298.5"/>
<polygon fill="#191970" stroke="#191970" points="314.6793,-295.0001 304.6793,-298.5 314.6793,-302.0001 314.6793,-295.0001"/>
</g>
<!-- Node5 -->
<g id="node5" class="node">
<title>Node5</title>
<g id="a_node5"><a xlink:href="../../d1/d97/classPHPatternReco.html#ac97e2c1e8d98ea16a11d44c134ad0299" target="_top" xlink:title="PHPatternReco::process\l_event">
<polygon fill="none" stroke="#000000" points="359.5,-231.5 359.5,-263.5 495.5,-263.5 495.5,-231.5 359.5,-231.5"/>
<text text-anchor="start" x="367.5" y="-250.5" font-family="FreeSans" font-size="10.00" fill="#000000">PHPatternReco::process</text>
<text text-anchor="middle" x="427.5" y="-238.5" font-family="FreeSans" font-size="10.00" fill="#000000">_event</text>
</a>
</g>
</g>
<!-- Node4&#45;&gt;Node5 -->
<g id="edge4" class="edge">
<title>Node4&#45;&gt;Node5</title>
<path fill="none" stroke="#191970" d="M309.3458,-247.5C325.7848,-247.5 343.0916,-247.5 359.2366,-247.5"/>
<polygon fill="#191970" stroke="#191970" points="309.2405,-244.0001 299.2405,-247.5 309.2405,-251.0001 309.2405,-244.0001"/>
</g>
<!-- Node7 -->
<g id="node7" class="node">
<title>Node7</title>
<g id="a_node7"><a xlink:href="../../d8/dd4/classPHHoughSeeding.html#a8b2c7b85b2bcbe054e071dd6ff624f7d" target="_top" xlink:title="PHHoughSeeding::Process">
<polygon fill="none" stroke="#000000" points="353,-186.5 353,-206.5 502,-206.5 502,-186.5 353,-186.5"/>
<text text-anchor="middle" x="427.5" y="-193.5" font-family="FreeSans" font-size="10.00" fill="#000000">PHHoughSeeding::Process</text>
</a>
</g>
</g>
<!-- Node6&#45;&gt;Node7 -->
<g id="edge6" class="edge">
<title>Node6&#45;&gt;Node7</title>
<path fill="none" stroke="#191970" d="M316.174,-196.5C328.3324,-196.5 340.8052,-196.5 352.8003,-196.5"/>
<polygon fill="#191970" stroke="#191970" points="316.0523,-193.0001 306.0523,-196.5 316.0522,-200.0001 316.0523,-193.0001"/>
</g>
</g>
</svg>
