<?xml version="1.0" encoding="UTF-8" standalone="no"?>
<!DOCTYPE svg PUBLIC "-//W3C//DTD SVG 1.1//EN"
 "http://www.w3.org/Graphics/SVG/1.1/DTD/svg11.dtd">
<!-- Generated by graphviz version 2.40.1 (20161225.0304)
 -->
<!-- Title: SvtxTrack_v1::set_error Pages: 1 -->
<svg width="529pt" height="170pt"
 viewBox="0.00 0.00 529.00 170.00" xmlns="http://www.w3.org/2000/svg" xmlns:xlink="http://www.w3.org/1999/xlink">
<g id="graph0" class="graph" transform="scale(1 1) rotate(0) translate(4 166)">
<title>SvtxTrack_v1::set_error</title>
<!-- Node1 -->
<g id="node1" class="node">
<title>Node1</title>
<polygon fill="#bfbfbf" stroke="#000000" points="0,-61.5 0,-81.5 134,-81.5 134,-61.5 0,-61.5"/>
<text text-anchor="middle" x="67" y="-68.5" font-family="FreeSans" font-size="10.00" fill="#000000">SvtxTrack_v1::set_error</text>
</g>
<!-- Node2 -->
<g id="node2" class="node">
<title>Node2</title>
<g id="a_node2"><a xlink:href="../../d8/dd4/classPHHoughSeeding.html#a61550a59cd3a34af03c43572e28274cb" target="_top" xlink:title="code to translate back to the SVTX universe">
<polygon fill="none" stroke="#000000" points="181,-129.5 181,-161.5 325,-161.5 325,-129.5 181,-129.5"/>
<text text-anchor="start" x="189" y="-148.5" font-family="FreeSans" font-size="10.00" fill="#000000">PHHoughSeeding::export</text>
<text text-anchor="middle" x="253" y="-136.5" font-family="FreeSans" font-size="10.00" fill="#000000">_output</text>
</a>
</g>
</g>
<!-- Node1&#45;&gt;Node2 -->
<g id="edge1" class="edge">
<title>Node1&#45;&gt;Node2</title>
<path fill="none" stroke="#191970" d="M95.0356,-86.2579C115.4663,-96.6598 144.0038,-110.4678 170,-120.5 178.1432,-123.6425 186.8569,-126.6444 195.4647,-129.408"/>
<polygon fill="#191970" stroke="#191970" points="96.4745,-83.0622 85.981,-81.6006 93.2727,-89.287 96.4745,-83.0622"/>
</g>
<!-- Node4 -->
<g id="node4" class="node">
<title>Node4</title>
<g id="a_node4"><a xlink:href="../../d9/d91/classPHG4TrackFastSim.html#a27f5d3e1fcab6a5cc74fda92cd51359f" target="_top" xlink:title="PHG4TrackFastSim::MakeSvtx\lTrack">
<polygon fill="none" stroke="#000000" points="170,-78.5 170,-110.5 336,-110.5 336,-78.5 170,-78.5"/>
<text text-anchor="start" x="178" y="-97.5" font-family="FreeSans" font-size="10.00" fill="#000000">PHG4TrackFastSim::MakeSvtx</text>
<text text-anchor="middle" x="253" y="-85.5" font-family="FreeSans" font-size="10.00" fill="#000000">Track</text>
</a>
</g>
</g>
<!-- Node1&#45;&gt;Node4 -->
<g id="edge3" class="edge">
<title>Node1&#45;&gt;Node4</title>
<path fill="none" stroke="#191970" d="M144.2923,-81.0577C152.6943,-82.0966 161.2724,-83.1573 169.7416,-84.2046"/>
<polygon fill="#191970" stroke="#191970" points="144.5042,-77.5573 134.1503,-79.8035 143.6451,-84.5044 144.5042,-77.5573"/>
</g>
<!-- Node5 -->
<g id="node5" class="node">
<title>Node5</title>
<g id="a_node5"><a xlink:href="../../da/df1/classPHRTreeSeeding.html#a0aba948a58d39c1064797b4568d7d811" target="_top" xlink:title="PHRTreeSeeding::Process">
<polygon fill="none" stroke="#000000" points="181.5,-39.5 181.5,-59.5 324.5,-59.5 324.5,-39.5 181.5,-39.5"/>
<text text-anchor="middle" x="253" y="-46.5" font-family="FreeSans" font-size="10.00" fill="#000000">PHRTreeSeeding::Process</text>
</a>
</g>
</g>
<!-- Node1&#45;&gt;Node5 -->
<g id="edge4" class="edge">
<title>Node1&#45;&gt;Node5</title>
<path fill="none" stroke="#191970" d="M144.3148,-62.3552C156.5426,-60.9089 169.143,-59.4186 181.2372,-57.9881"/>
<polygon fill="#191970" stroke="#191970" points="143.6699,-58.907 134.1503,-63.5575 144.4922,-65.8586 143.6699,-58.907"/>
</g>
<!-- Node6 -->
<g id="node6" class="node">
<title>Node6</title>
<g id="a_node6"><a xlink:href="../../d1/d08/classPHCASeeding.html#aaa4eca2abbf1065bb9b48de9cb683494" target="_top" xlink:title="PHCASeeding::Process">
<polygon fill="none" stroke="#000000" points="188,-.5 188,-20.5 318,-20.5 318,-.5 188,-.5"/>
<text text-anchor="middle" x="253" y="-7.5" font-family="FreeSans" font-size="10.00" fill="#000000">PHCASeeding::Process</text>
</a>
</g>
</g>
<!-- Node1&#45;&gt;Node6 -->
<g id="edge5" class="edge">
<title>Node1&#45;&gt;Node6</title>
<path fill="none" stroke="#191970" d="M98.8874,-57.442C119.0207,-48.9089 145.7243,-38.2132 170,-30.5 181.5835,-26.8195 194.2622,-23.4449 206.1459,-20.5577"/>
<polygon fill="#191970" stroke="#191970" points="97.3838,-54.2785 89.571,-61.4348 100.1412,-60.7125 97.3838,-54.2785"/>
</g>
<!-- Node3 -->
<g id="node3" class="node">
<title>Node3</title>
<g id="a_node3"><a xlink:href="../../d8/dd4/classPHHoughSeeding.html#a8b2c7b85b2bcbe054e071dd6ff624f7d" target="_top" xlink:title="PHHoughSeeding::Process">
<polygon fill="none" stroke="#000000" points="372,-135.5 372,-155.5 521,-155.5 521,-135.5 372,-135.5"/>
<text text-anchor="middle" x="446.5" y="-142.5" font-family="FreeSans" font-size="10.00" fill="#000000">PHHoughSeeding::Process</text>
</a>
</g>
</g>
<!-- Node2&#45;&gt;Node3 -->
<g id="edge2" class="edge">
<title>Node2&#45;&gt;Node3</title>
<path fill="none" stroke="#191970" d="M335.174,-145.5C347.3324,-145.5 359.8052,-145.5 371.8003,-145.5"/>
<polygon fill="#191970" stroke="#191970" points="335.0523,-142.0001 325.0523,-145.5 335.0522,-149.0001 335.0523,-142.0001"/>
</g>
</g>
</svg>
