<?xml version="1.0" encoding="UTF-8" standalone="no"?>
<!DOCTYPE svg PUBLIC "-//W3C//DTD SVG 1.1//EN"
 "http://www.w3.org/Graphics/SVG/1.1/DTD/svg11.dtd">
<!-- Generated by graphviz version 2.40.1 (20161225.0304)
 -->
<!-- Title: GenFit/blob/master/core/src/Material.cc Pages: 1 -->
<svg width="297pt" height="212pt"
 viewBox="0.00 0.00 296.50 212.00" xmlns="http://www.w3.org/2000/svg" xmlns:xlink="http://www.w3.org/1999/xlink">
<g id="graph0" class="graph" transform="scale(1 1) rotate(0) translate(4 208)">
<title>GenFit/blob/master/core/src/Material.cc</title>
<!-- Node1 -->
<g id="node1" class="node">
<title>Node1</title>
<polygon fill="#bfbfbf" stroke="#000000" points="155.5,-171.5 155.5,-203.5 274.5,-203.5 274.5,-171.5 155.5,-171.5"/>
<text text-anchor="start" x="163.5" y="-190.5" font-family="FreeSans" font-size="10.00" fill="#000000">GenFit/blob/master</text>
<text text-anchor="middle" x="215" y="-178.5" font-family="FreeSans" font-size="10.00" fill="#000000">/core/src/Material.cc</text>
</g>
<!-- Node2 -->
<g id="node2" class="node">
<title>Node2</title>
<g id="a_node2"><a xlink:href="../../df/d12/Material_8h.html" target="_top" xlink:title="Material.h">
<polygon fill="none" stroke="#000000" points="148,-114.5 148,-134.5 214,-134.5 214,-114.5 148,-114.5"/>
<text text-anchor="middle" x="181" y="-121.5" font-family="FreeSans" font-size="10.00" fill="#000000">Material.h</text>
</a>
</g>
</g>
<!-- Node1&#45;&gt;Node2 -->
<g id="edge1" class="edge">
<title>Node1&#45;&gt;Node2</title>
<path fill="none" stroke="#191970" d="M206.2442,-171.2759C201.6782,-162.8154 196.0652,-152.415 191.2924,-143.5712"/>
<polygon fill="#191970" stroke="#191970" points="194.3619,-141.8892 186.5324,-134.7513 188.2017,-145.2138 194.3619,-141.8892"/>
</g>
<!-- Node6 -->
<g id="node6" class="node">
<title>Node6</title>
<g id="a_node6"><a xlink:href="../../d7/d2f/IO_8h.html" target="_top" xlink:title="IO.h">
<polygon fill="none" stroke="#000000" points="237,-114.5 237,-134.5 273,-134.5 273,-114.5 237,-114.5"/>
<text text-anchor="middle" x="255" y="-121.5" font-family="FreeSans" font-size="10.00" fill="#000000">IO.h</text>
</a>
</g>
</g>
<!-- Node1&#45;&gt;Node6 -->
<g id="edge5" class="edge">
<title>Node1&#45;&gt;Node6</title>
<path fill="none" stroke="#191970" d="M225.301,-171.2759C230.7299,-162.7254 237.4168,-152.1935 243.0701,-143.2895"/>
<polygon fill="#191970" stroke="#191970" points="246.0859,-145.0695 248.4913,-134.7513 240.1764,-141.3174 246.0859,-145.0695"/>
</g>
<!-- Node3 -->
<g id="node3" class="node">
<title>Node3</title>
<g id="a_node3"><a xlink:href="../../d7/d83/EigenMatrixTypedefs_8h.html" target="_top" xlink:title="EigenMatrixTypedefs.h">
<polygon fill="none" stroke="#000000" points="0,-57.5 0,-77.5 130,-77.5 130,-57.5 0,-57.5"/>
<text text-anchor="middle" x="65" y="-64.5" font-family="FreeSans" font-size="10.00" fill="#000000">EigenMatrixTypedefs.h</text>
</a>
</g>
</g>
<!-- Node2&#45;&gt;Node3 -->
<g id="edge2" class="edge">
<title>Node2&#45;&gt;Node3</title>
<path fill="none" stroke="#191970" d="M160.5286,-114.4408C142.2539,-105.461 115.2683,-92.2008 94.6357,-82.0624"/>
<polygon fill="#191970" stroke="#191970" points="96.1756,-78.9193 85.657,-77.6504 93.0884,-85.2019 96.1756,-78.9193"/>
</g>
<!-- Node5 -->
<g id="node5" class="node">
<title>Node5</title>
<polygon fill="none" stroke="#bfbfbf" points="148.5,-57.5 148.5,-77.5 213.5,-77.5 213.5,-57.5 148.5,-57.5"/>
<text text-anchor="middle" x="181" y="-64.5" font-family="FreeSans" font-size="10.00" fill="#000000">TObject.h</text>
</g>
<!-- Node2&#45;&gt;Node5 -->
<g id="edge4" class="edge">
<title>Node2&#45;&gt;Node5</title>
<path fill="none" stroke="#191970" d="M181,-114.3095C181,-106.9335 181,-96.72 181,-87.715"/>
<polygon fill="#191970" stroke="#191970" points="184.5001,-87.6022 181,-77.6022 177.5001,-87.6023 184.5001,-87.6022"/>
</g>
<!-- Node4 -->
<g id="node4" class="node">
<title>Node4</title>
<polygon fill="none" stroke="#bfbfbf" points="25,-.5 25,-20.5 105,-20.5 105,-.5 25,-.5"/>
<text text-anchor="middle" x="65" y="-7.5" font-family="FreeSans" font-size="10.00" fill="#000000">Eigen/Dense</text>
</g>
<!-- Node3&#45;&gt;Node4 -->
<g id="edge3" class="edge">
<title>Node3&#45;&gt;Node4</title>
<path fill="none" stroke="#191970" d="M65,-57.3095C65,-49.9335 65,-39.72 65,-30.715"/>
<polygon fill="#191970" stroke="#191970" points="68.5001,-30.6022 65,-20.6022 61.5001,-30.6023 68.5001,-30.6022"/>
</g>
<!-- Node7 -->
<g id="node7" class="node">
<title>Node7</title>
<polygon fill="none" stroke="#bfbfbf" points="231.5,-57.5 231.5,-77.5 288.5,-77.5 288.5,-57.5 231.5,-57.5"/>
<text text-anchor="middle" x="260" y="-64.5" font-family="FreeSans" font-size="10.00" fill="#000000">ostream</text>
</g>
<!-- Node6&#45;&gt;Node7 -->
<g id="edge6" class="edge">
<title>Node6&#45;&gt;Node7</title>
<path fill="none" stroke="#191970" d="M255.8939,-114.3095C256.5409,-106.9335 257.4368,-96.72 258.2268,-87.715"/>
<polygon fill="#191970" stroke="#191970" points="261.7265,-87.8699 259.1138,-77.6022 254.7533,-87.2581 261.7265,-87.8699"/>
</g>
</g>
</svg>
