<?xml version="1.0" encoding="UTF-8" standalone="no"?>
<!DOCTYPE svg PUBLIC "-//W3C//DTD SVG 1.1//EN"
 "http://www.w3.org/Graphics/SVG/1.1/DTD/svg11.dtd">
<!-- Generated by graphviz version 2.40.1 (20161225.0304)
 -->
<!-- Title: GenFit/blob/master/trackReps/include/AbsMaterialInterface.h Pages: 1 -->
<svg width="1902pt" height="215pt"
 viewBox="0.00 0.00 1902.00 215.00" xmlns="http://www.w3.org/2000/svg" xmlns:xlink="http://www.w3.org/1999/xlink">
<g id="graph0" class="graph" transform="scale(1 1) rotate(0) translate(4 211)">
<title>GenFit/blob/master/trackReps/include/AbsMaterialInterface.h</title>
<!-- Node1 -->
<g id="node1" class="node">
<title>Node1</title>
<polygon fill="#bfbfbf" stroke="#000000" points="763,-162.5 763,-206.5 936,-206.5 936,-162.5 763,-162.5"/>
<text text-anchor="start" x="771" y="-193.5" font-family="FreeSans" font-size="10.00" fill="#000000">GenFit/blob/master</text>
<text text-anchor="start" x="771" y="-181.5" font-family="FreeSans" font-size="10.00" fill="#000000">/trackReps/include/AbsMaterial</text>
<text text-anchor="middle" x="849.5" y="-169.5" font-family="FreeSans" font-size="10.00" fill="#000000">Interface.h</text>
</g>
<!-- Node2 -->
<g id="node2" class="node">
<title>Node2</title>
<g id="a_node2"><a xlink:href="../../d0/d8c/TestMaterialEffects_8cpp.html" target="_top" xlink:title="GenFit/blob/master\l/gtest/TestMaterialEffects.cpp">
<polygon fill="none" stroke="#000000" points="0,-6.5 0,-38.5 167,-38.5 167,-6.5 0,-6.5"/>
<text text-anchor="start" x="8" y="-25.5" font-family="FreeSans" font-size="10.00" fill="#000000">GenFit/blob/master</text>
<text text-anchor="middle" x="83.5" y="-13.5" font-family="FreeSans" font-size="10.00" fill="#000000">/gtest/TestMaterialEffects.cpp</text>
</a>
</g>
</g>
<!-- Node1&#45;&gt;Node2 -->
<g id="edge1" class="edge">
<title>Node1&#45;&gt;Node2</title>
<path fill="none" stroke="#191970" d="M752.9833,-165.5344C622.1036,-139.579 381.1694,-90.9573 176.5,-45 167.4235,-42.9619 157.8677,-40.7388 148.4768,-38.5092"/>
<polygon fill="#191970" stroke="#191970" points="752.496,-169.0058 762.9857,-167.5163 753.8567,-162.1393 752.496,-169.0058"/>
</g>
<!-- Node3 -->
<g id="node3" class="node">
<title>Node3</title>
<g id="a_node3"><a xlink:href="../../d9/df5/MaterialEffects_8h.html" target="_top" xlink:title="GenFit/blob/master\l/trackReps/include/Material\lEffects.h">
<polygon fill="none" stroke="#000000" points="772,-81.5 772,-125.5 927,-125.5 927,-81.5 772,-81.5"/>
<text text-anchor="start" x="780" y="-112.5" font-family="FreeSans" font-size="10.00" fill="#000000">GenFit/blob/master</text>
<text text-anchor="start" x="780" y="-100.5" font-family="FreeSans" font-size="10.00" fill="#000000">/trackReps/include/Material</text>
<text text-anchor="middle" x="849.5" y="-88.5" font-family="FreeSans" font-size="10.00" fill="#000000">Effects.h</text>
</a>
</g>
</g>
<!-- Node1&#45;&gt;Node3 -->
<g id="edge2" class="edge">
<title>Node1&#45;&gt;Node3</title>
<path fill="none" stroke="#191970" d="M849.5,-152.2457C849.5,-143.3118 849.5,-133.8188 849.5,-125.6068"/>
<polygon fill="#191970" stroke="#191970" points="846.0001,-152.3664 849.5,-162.3664 853.0001,-152.3664 846.0001,-152.3664"/>
</g>
<!-- Node13 -->
<g id="node13" class="node">
<title>Node13</title>
<g id="a_node13"><a xlink:href="../../dc/d36/TGeoMaterialInterface_8h.html" target="_top" xlink:title="GenFit/blob/master\l/trackReps/include/TGeoMaterial\lInterface.h">
<polygon fill="none" stroke="#000000" points="993,-81.5 993,-125.5 1174,-125.5 1174,-81.5 993,-81.5"/>
<text text-anchor="start" x="1001" y="-112.5" font-family="FreeSans" font-size="10.00" fill="#000000">GenFit/blob/master</text>
<text text-anchor="start" x="1001" y="-100.5" font-family="FreeSans" font-size="10.00" fill="#000000">/trackReps/include/TGeoMaterial</text>
<text text-anchor="middle" x="1083.5" y="-88.5" font-family="FreeSans" font-size="10.00" fill="#000000">Interface.h</text>
</a>
</g>
</g>
<!-- Node1&#45;&gt;Node13 -->
<g id="edge13" class="edge">
<title>Node1&#45;&gt;Node13</title>
<path fill="none" stroke="#191970" d="M922.6378,-159.1831C953.8073,-148.3936 989.8331,-135.9232 1019.8802,-125.5222"/>
<polygon fill="#191970" stroke="#191970" points="921.4374,-155.8948 913.1324,-162.4734 923.7272,-162.5097 921.4374,-155.8948"/>
</g>
<!-- Node3&#45;&gt;Node2 -->
<g id="edge3" class="edge">
<title>Node3&#45;&gt;Node2</title>
<path fill="none" stroke="#191970" d="M761.5991,-100.0867C632.5884,-94.1232 384.6997,-79.0351 176.5,-45 165.9258,-43.2714 154.7764,-40.9856 144.0128,-38.533"/>
<polygon fill="#191970" stroke="#191970" points="761.667,-103.5933 771.8157,-100.5513 761.9851,-96.6005 761.667,-103.5933"/>
</g>
<!-- Node4 -->
<g id="node4" class="node">
<title>Node4</title>
<g id="a_node4"><a xlink:href="../../d0/d48/GenFit_2blob_2master_2test_2fitterTests_2main_8cc.html" target="_top" xlink:title="GenFit/blob/master\l/test/fitterTests/main.cc">
<polygon fill="none" stroke="#000000" points="1016,-6.5 1016,-38.5 1151,-38.5 1151,-6.5 1016,-6.5"/>
<text text-anchor="start" x="1024" y="-25.5" font-family="FreeSans" font-size="10.00" fill="#000000">GenFit/blob/master</text>
<text text-anchor="middle" x="1083.5" y="-13.5" font-family="FreeSans" font-size="10.00" fill="#000000">/test/fitterTests/main.cc</text>
</a>
</g>
</g>
<!-- Node3&#45;&gt;Node4 -->
<g id="edge4" class="edge">
<title>Node3&#45;&gt;Node4</title>
<path fill="none" stroke="#191970" d="M922.9489,-78.0754C960.2301,-65.1704 1004.3929,-49.8832 1036.9549,-38.6118"/>
<polygon fill="#191970" stroke="#191970" points="921.4374,-74.8948 913.1324,-81.4734 923.7272,-81.5097 921.4374,-74.8948"/>
</g>
<!-- Node5 -->
<g id="node5" class="node">
<title>Node5</title>
<g id="a_node5"><a xlink:href="../../dd/d84/GenFit_2blob_2master_2test_2measurementFactoryExample_2main_8cc.html" target="_top" xlink:title="GenFit/blob/master\l/test/measurementFactoryExample\l/main.cc">
<polygon fill="none" stroke="#000000" points="1169.5,-.5 1169.5,-44.5 1363.5,-44.5 1363.5,-.5 1169.5,-.5"/>
<text text-anchor="start" x="1177.5" y="-31.5" font-family="FreeSans" font-size="10.00" fill="#000000">GenFit/blob/master</text>
<text text-anchor="start" x="1177.5" y="-19.5" font-family="FreeSans" font-size="10.00" fill="#000000">/test/measurementFactoryExample</text>
<text text-anchor="middle" x="1266.5" y="-7.5" font-family="FreeSans" font-size="10.00" fill="#000000">/main.cc</text>
</a>
</g>
</g>
<!-- Node3&#45;&gt;Node5 -->
<g id="edge5" class="edge">
<title>Node3&#45;&gt;Node5</title>
<path fill="none" stroke="#191970" d="M937.4304,-87.5229C999.7714,-76.0579 1085.3575,-60.0402 1160.5,-45 1163.4515,-44.4092 1166.4481,-43.8044 1169.4727,-43.1896"/>
<polygon fill="#191970" stroke="#191970" points="936.4439,-84.1454 927.2407,-89.3943 937.7085,-91.0303 936.4439,-84.1454"/>
</g>
<!-- Node6 -->
<g id="node6" class="node">
<title>Node6</title>
<g id="a_node6"><a xlink:href="../../d4/d7c/GenFit_2blob_2master_2test_2minimalFittingExample_2main_8cc.html" target="_top" xlink:title="GenFit/blob/master\l/test/minimalFittingExample\l/main.cc">
<polygon fill="none" stroke="#000000" points="1381,-.5 1381,-44.5 1540,-44.5 1540,-.5 1381,-.5"/>
<text text-anchor="start" x="1389" y="-31.5" font-family="FreeSans" font-size="10.00" fill="#000000">GenFit/blob/master</text>
<text text-anchor="start" x="1389" y="-19.5" font-family="FreeSans" font-size="10.00" fill="#000000">/test/minimalFittingExample</text>
<text text-anchor="middle" x="1460.5" y="-7.5" font-family="FreeSans" font-size="10.00" fill="#000000">/main.cc</text>
</a>
</g>
</g>
<!-- Node3&#45;&gt;Node6 -->
<g id="edge6" class="edge">
<title>Node3&#45;&gt;Node6</title>
<path fill="none" stroke="#191970" d="M937.3098,-87.7993C952.6759,-85.3255 968.5324,-82.9465 983.5,-81 1155.6778,-58.6089 1201.4136,-74.5973 1372.5,-45 1375.2969,-44.5161 1378.1356,-43.9891 1380.9963,-43.4273"/>
<polygon fill="#191970" stroke="#191970" points="936.602,-84.3684 927.2971,-89.435 937.7306,-91.2769 936.602,-84.3684"/>
</g>
<!-- Node7 -->
<g id="node7" class="node">
<title>Node7</title>
<g id="a_node7"><a xlink:href="../../dd/d17/main2_8cc.html" target="_top" xlink:title="GenFit/blob/master\l/test/minimalFittingExample\l/main2.cc">
<polygon fill="none" stroke="#000000" points="1558,-.5 1558,-44.5 1717,-44.5 1717,-.5 1558,-.5"/>
<text text-anchor="start" x="1566" y="-31.5" font-family="FreeSans" font-size="10.00" fill="#000000">GenFit/blob/master</text>
<text text-anchor="start" x="1566" y="-19.5" font-family="FreeSans" font-size="10.00" fill="#000000">/test/minimalFittingExample</text>
<text text-anchor="middle" x="1637.5" y="-7.5" font-family="FreeSans" font-size="10.00" fill="#000000">/main2.cc</text>
</a>
</g>
</g>
<!-- Node3&#45;&gt;Node7 -->
<g id="edge7" class="edge">
<title>Node3&#45;&gt;Node7</title>
<path fill="none" stroke="#191970" d="M937.2651,-87.4357C952.6362,-85.0023 968.506,-82.731 983.5,-81 1233.9007,-52.0919 1300.5331,-84.3915 1549.5,-45 1552.1478,-44.5811 1554.8321,-44.1185 1557.5362,-43.6201"/>
<polygon fill="#191970" stroke="#191970" points="936.5639,-84.0035 927.2504,-89.0541 937.6807,-90.9138 936.5639,-84.0035"/>
</g>
<!-- Node8 -->
<g id="node8" class="node">
<title>Node8</title>
<g id="a_node8"><a xlink:href="../../d5/dd2/GenFit_2blob_2master_2test_2streamerTest_2main_8cc.html" target="_top" xlink:title="GenFit/blob/master\l/test/streamerTest/main.cc">
<polygon fill="none" stroke="#000000" points="567,-6.5 567,-38.5 718,-38.5 718,-6.5 567,-6.5"/>
<text text-anchor="start" x="575" y="-25.5" font-family="FreeSans" font-size="10.00" fill="#000000">GenFit/blob/master</text>
<text text-anchor="middle" x="642.5" y="-13.5" font-family="FreeSans" font-size="10.00" fill="#000000">/test/streamerTest/main.cc</text>
</a>
</g>
</g>
<!-- Node3&#45;&gt;Node8 -->
<g id="edge8" class="edge">
<title>Node3&#45;&gt;Node8</title>
<path fill="none" stroke="#191970" d="M783.6826,-77.7454C750.8822,-64.9104 712.2342,-49.7873 683.6745,-38.6118"/>
<polygon fill="#191970" stroke="#191970" points="782.6219,-81.0887 793.2098,-81.4734 785.1728,-74.57 782.6219,-81.0887"/>
</g>
<!-- Node9 -->
<g id="node9" class="node">
<title>Node9</title>
<g id="a_node9"><a xlink:href="../../d9/d33/GenFit_2blob_2master_2test_2unitTests_2main_8cc.html" target="_top" xlink:title="GenFit/blob/master\l/test/unitTests/main.cc">
<polygon fill="none" stroke="#000000" points="736,-6.5 736,-38.5 867,-38.5 867,-6.5 736,-6.5"/>
<text text-anchor="start" x="744" y="-25.5" font-family="FreeSans" font-size="10.00" fill="#000000">GenFit/blob/master</text>
<text text-anchor="middle" x="801.5" y="-13.5" font-family="FreeSans" font-size="10.00" fill="#000000">/test/unitTests/main.cc</text>
</a>
</g>
</g>
<!-- Node3&#45;&gt;Node9 -->
<g id="edge9" class="edge">
<title>Node3&#45;&gt;Node9</title>
<path fill="none" stroke="#191970" d="M831.0974,-72.4457C824.2786,-60.939 816.8214,-48.3549 811.0982,-38.6969"/>
<polygon fill="#191970" stroke="#191970" points="828.2747,-74.5478 836.3838,-81.3664 834.2967,-70.9791 828.2747,-74.5478"/>
</g>
<!-- Node10 -->
<g id="node10" class="node">
<title>Node10</title>
<g id="a_node10"><a xlink:href="../../de/dab/GenFit_2blob_2master_2test_2vertexingTest_2main_8cc.html" target="_top" xlink:title="GenFit/blob/master\l/test/vertexingTest\l/main.cc">
<polygon fill="none" stroke="#000000" points="885,-.5 885,-44.5 998,-44.5 998,-.5 885,-.5"/>
<text text-anchor="start" x="893" y="-31.5" font-family="FreeSans" font-size="10.00" fill="#000000">GenFit/blob/master</text>
<text text-anchor="start" x="893" y="-19.5" font-family="FreeSans" font-size="10.00" fill="#000000">/test/vertexingTest</text>
<text text-anchor="middle" x="941.5" y="-7.5" font-family="FreeSans" font-size="10.00" fill="#000000">/main.cc</text>
</a>
</g>
</g>
<!-- Node3&#45;&gt;Node10 -->
<g id="edge10" class="edge">
<title>Node3&#45;&gt;Node10</title>
<path fill="none" stroke="#191970" d="M882.2009,-74.709C893.4442,-64.81 905.8472,-53.8899 916.391,-44.6068"/>
<polygon fill="#191970" stroke="#191970" points="879.8321,-72.1313 874.6394,-81.3664 884.4578,-77.3852 879.8321,-72.1313"/>
</g>
<!-- Node11 -->
<g id="node11" class="node">
<title>Node11</title>
<g id="a_node11"><a xlink:href="../../d3/daa/MaterialEffects_8cc.html" target="_top" xlink:title="GenFit/blob/master\l/trackReps/src/MaterialEffects.cc">
<polygon fill="none" stroke="#000000" points="368,-6.5 368,-38.5 549,-38.5 549,-6.5 368,-6.5"/>
<text text-anchor="start" x="376" y="-25.5" font-family="FreeSans" font-size="10.00" fill="#000000">GenFit/blob/master</text>
<text text-anchor="middle" x="458.5" y="-13.5" font-family="FreeSans" font-size="10.00" fill="#000000">/trackReps/src/MaterialEffects.cc</text>
</a>
</g>
</g>
<!-- Node3&#45;&gt;Node11 -->
<g id="edge11" class="edge">
<title>Node3&#45;&gt;Node11</title>
<path fill="none" stroke="#191970" d="M762.0493,-86.5905C703.9742,-75.2109 626.0851,-59.6615 557.5,-45 547.9338,-42.955 537.8624,-40.7392 527.9544,-38.5228"/>
<polygon fill="#191970" stroke="#191970" points="761.4379,-90.0372 771.9239,-88.5227 762.7821,-83.1675 761.4379,-90.0372"/>
</g>
<!-- Node12 -->
<g id="node12" class="node">
<title>Node12</title>
<g id="a_node12"><a xlink:href="../../d5/dc9/RKTrackRep_8cc.html" target="_top" xlink:title="GenFit/blob/master\l/trackReps/src/RKTrackRep.cc">
<polygon fill="none" stroke="#000000" points="185.5,-6.5 185.5,-38.5 349.5,-38.5 349.5,-6.5 185.5,-6.5"/>
<text text-anchor="start" x="193.5" y="-25.5" font-family="FreeSans" font-size="10.00" fill="#000000">GenFit/blob/master</text>
<text text-anchor="middle" x="267.5" y="-13.5" font-family="FreeSans" font-size="10.00" fill="#000000">/trackReps/src/RKTrackRep.cc</text>
</a>
</g>
</g>
<!-- Node3&#45;&gt;Node12 -->
<g id="edge12" class="edge">
<title>Node3&#45;&gt;Node12</title>
<path fill="none" stroke="#191970" d="M761.4476,-96.3202C662.8036,-87.51 498.3839,-70.5252 358.5,-45 348.5738,-43.1887 338.118,-40.9351 327.9714,-38.5595"/>
<polygon fill="#191970" stroke="#191970" points="761.3997,-99.8296 771.6693,-97.2249 762.0168,-92.8568 761.3997,-99.8296"/>
</g>
<!-- Node13&#45;&gt;Node4 -->
<g id="edge14" class="edge">
<title>Node13&#45;&gt;Node4</title>
<path fill="none" stroke="#191970" d="M1083.5,-71.0737C1083.5,-59.9468 1083.5,-47.9724 1083.5,-38.6969"/>
<polygon fill="#191970" stroke="#191970" points="1080.0001,-71.3664 1083.5,-81.3664 1087.0001,-71.3664 1080.0001,-71.3664"/>
</g>
<!-- Node13&#45;&gt;Node5 -->
<g id="edge15" class="edge">
<title>Node13&#45;&gt;Node5</title>
<path fill="none" stroke="#191970" d="M1142.7959,-77.2543C1166.6131,-66.7123 1193.767,-54.6933 1216.5549,-44.6068"/>
<polygon fill="#191970" stroke="#191970" points="1141.2332,-74.1184 1133.5056,-81.3664 1144.0665,-80.5194 1141.2332,-74.1184"/>
</g>
<!-- Node13&#45;&gt;Node6 -->
<g id="edge16" class="edge">
<title>Node13&#45;&gt;Node6</title>
<path fill="none" stroke="#191970" d="M1184.0852,-84.4367C1239.7648,-73.5587 1310.1266,-59.2771 1372.5,-45 1375.2669,-44.3667 1378.0798,-43.7111 1380.9185,-43.0397"/>
<polygon fill="#191970" stroke="#191970" points="1183.3659,-81.0109 1174.2197,-86.3585 1184.7044,-87.8818 1183.3659,-81.0109"/>
</g>
<!-- Node13&#45;&gt;Node7 -->
<g id="edge17" class="edge">
<title>Node13&#45;&gt;Node7</title>
<path fill="none" stroke="#191970" d="M1184.385,-94.5223C1279.1579,-85.2191 1424.6752,-68.6959 1549.5,-45 1552.2887,-44.4706 1555.1202,-43.9044 1557.9749,-43.3093"/>
<polygon fill="#191970" stroke="#191970" points="1183.8447,-91.0582 1174.2308,-95.5104 1184.5228,-98.0253 1183.8447,-91.0582"/>
</g>
<!-- Node13&#45;&gt;Node8 -->
<g id="edge18" class="edge">
<title>Node13&#45;&gt;Node8</title>
<path fill="none" stroke="#191970" d="M982.9041,-88.1584C894.9599,-74.536 774.0919,-55.2468 726.5,-45 717.6445,-43.0934 708.3257,-40.8445 699.2473,-38.5186"/>
<polygon fill="#191970" stroke="#191970" points="982.5019,-91.6377 992.9194,-89.7073 983.5718,-84.72 982.5019,-91.6377"/>
</g>
<!-- Node13&#45;&gt;Node9 -->
<g id="edge19" class="edge">
<title>Node13&#45;&gt;Node9</title>
<path fill="none" stroke="#191970" d="M993.6984,-78.6876C957.0008,-68.4324 914.1675,-56.3148 875.5,-45 868.5407,-42.9636 861.2248,-40.7852 854.0123,-38.6153"/>
<polygon fill="#191970" stroke="#191970" points="992.8093,-82.0731 1003.3821,-81.3903 994.6912,-75.3308 992.8093,-82.0731"/>
</g>
<!-- Node13&#45;&gt;Node10 -->
<g id="edge20" class="edge">
<title>Node13&#45;&gt;Node10</title>
<path fill="none" stroke="#191970" d="M1035.5169,-76.1294C1017.5204,-65.8638 997.3117,-54.3362 980.2552,-44.6068"/>
<polygon fill="#191970" stroke="#191970" points="1034.2775,-79.4517 1044.6979,-81.3664 1037.7459,-73.3714 1034.2775,-79.4517"/>
</g>
<!-- Node14 -->
<g id="node14" class="node">
<title>Node14</title>
<g id="a_node14"><a xlink:href="../../d4/dec/TGeoMaterialInterface_8cc.html" target="_top" xlink:title="GenFit/blob/master\l/trackReps/src/TGeoMaterial\lInterface.cc">
<polygon fill="none" stroke="#000000" points="1735,-.5 1735,-44.5 1894,-44.5 1894,-.5 1735,-.5"/>
<text text-anchor="start" x="1743" y="-31.5" font-family="FreeSans" font-size="10.00" fill="#000000">GenFit/blob/master</text>
<text text-anchor="start" x="1743" y="-19.5" font-family="FreeSans" font-size="10.00" fill="#000000">/trackReps/src/TGeoMaterial</text>
<text text-anchor="middle" x="1814.5" y="-7.5" font-family="FreeSans" font-size="10.00" fill="#000000">Interface.cc</text>
</a>
</g>
</g>
<!-- Node13&#45;&gt;Node14 -->
<g id="edge21" class="edge">
<title>Node13&#45;&gt;Node14</title>
<path fill="none" stroke="#191970" d="M1184.1866,-99.3159C1311.3153,-92.8948 1536.3975,-77.7351 1726.5,-45 1729.2973,-44.5183 1732.1363,-43.9931 1734.9973,-43.4329"/>
<polygon fill="#191970" stroke="#191970" points="1183.8902,-95.8262 1174.0764,-99.8185 1184.2378,-102.8176 1183.8902,-95.8262"/>
</g>
</g>
</svg>
