<?xml version="1.0" encoding="UTF-8" standalone="no"?>
<!DOCTYPE svg PUBLIC "-//W3C//DTD SVG 1.1//EN"
 "http://www.w3.org/Graphics/SVG/1.1/DTD/svg11.dtd">
<!-- Generated by graphviz version 2.40.1 (20161225.0304)
 -->
<!-- Title: TrackProjectorPid::project_track Pages: 1 -->
<svg width="695pt" height="875pt"
 viewBox="0.00 0.00 695.00 875.00" xmlns="http://www.w3.org/2000/svg" xmlns:xlink="http://www.w3.org/1999/xlink">
<g id="graph0" class="graph" transform="scale(1 1) rotate(0) translate(4 871)">
<title>TrackProjectorPid::project_track</title>
<!-- Node1 -->
<g id="node1" class="node">
<title>Node1</title>
<polygon fill="#bfbfbf" stroke="#000000" points="0,-459.5 0,-491.5 109,-491.5 109,-459.5 0,-459.5"/>
<text text-anchor="start" x="8" y="-478.5" font-family="FreeSans" font-size="10.00" fill="#000000">TrackProjectorPid::</text>
<text text-anchor="middle" x="54.5" y="-466.5" font-family="FreeSans" font-size="10.00" fill="#000000">project_track</text>
</g>
<!-- Node2 -->
<g id="node2" class="node">
<title>Node2</title>
<g id="a_node2"><a xlink:href="../../d2/db8/classSvtxTrack.html#a2c1a7863a506e3133e6bc0259c89c741" target="_top" xlink:title="SvtxTrack::end_states">
<polygon fill="none" stroke="#000000" points="147.5,-846.5 147.5,-866.5 274.5,-866.5 274.5,-846.5 147.5,-846.5"/>
<text text-anchor="middle" x="211" y="-853.5" font-family="FreeSans" font-size="10.00" fill="#000000">SvtxTrack::end_states</text>
</a>
</g>
</g>
<!-- Node1&#45;&gt;Node2 -->
<g id="edge1" class="edge">
<title>Node1&#45;&gt;Node2</title>
<path fill="none" stroke="#191970" d="M56.4296,-491.921C64.2443,-555.7341 95.5096,-786.2299 145,-837.5 146.0869,-838.626 147.2358,-839.6864 148.4376,-840.6852"/>
<polygon fill="#191970" stroke="#191970" points="146.7762,-843.7841 157.0379,-846.42 150.6597,-837.9601 146.7762,-843.7841"/>
</g>
<!-- Node3 -->
<g id="node3" class="node">
<title>Node3</title>
<g id="a_node3"><a xlink:href="../../d1/d25/classgenfit_1_1AbsTrackRep.html#ad7b167d43973371da9284279ca352b0c" target="_top" xlink:title="Get the 6D covariance.">
<polygon fill="none" stroke="#000000" points="152.5,-795.5 152.5,-827.5 269.5,-827.5 269.5,-795.5 152.5,-795.5"/>
<text text-anchor="start" x="160.5" y="-814.5" font-family="FreeSans" font-size="10.00" fill="#000000">genfit::AbsTrackRep</text>
<text text-anchor="middle" x="211" y="-802.5" font-family="FreeSans" font-size="10.00" fill="#000000">::get6DCov</text>
</a>
</g>
</g>
<!-- Node1&#45;&gt;Node3 -->
<g id="edge2" class="edge">
<title>Node1&#45;&gt;Node3</title>
<path fill="none" stroke="#191970" d="M57.2782,-491.8345C67.3577,-549.3867 103.593,-741.6895 145,-786.5 145.8887,-787.4618 146.8183,-788.3868 147.7837,-789.2765"/>
<polygon fill="#191970" stroke="#191970" points="145.7402,-792.1201 155.8053,-795.4283 150.0001,-786.5655 145.7402,-792.1201"/>
</g>
<!-- Node4 -->
<g id="node4" class="node">
<title>Node4</title>
<g id="a_node4"><a xlink:href="../../d2/dac/classSvtxTrackState.html#a0c2f9473cd23f4f3bcce11ba7c198407" target="_top" xlink:title="SvtxTrackState::get\l_error">
<polygon fill="none" stroke="#000000" points="153.5,-744.5 153.5,-776.5 268.5,-776.5 268.5,-744.5 153.5,-744.5"/>
<text text-anchor="start" x="161.5" y="-763.5" font-family="FreeSans" font-size="10.00" fill="#000000">SvtxTrackState::get</text>
<text text-anchor="middle" x="211" y="-751.5" font-family="FreeSans" font-size="10.00" fill="#000000">_error</text>
</a>
</g>
</g>
<!-- Node1&#45;&gt;Node4 -->
<g id="edge3" class="edge">
<title>Node1&#45;&gt;Node4</title>
<path fill="none" stroke="#191970" d="M55.5124,-491.6559C59.1761,-536.5317 75.4969,-664.0855 145,-735.5 145.9374,-736.4631 146.9156,-737.3896 147.9294,-738.2809"/>
<polygon fill="#191970" stroke="#191970" points="146.1829,-741.3411 156.3127,-744.4456 150.3299,-735.7016 146.1829,-741.3411"/>
</g>
<!-- Node5 -->
<g id="node5" class="node">
<title>Node5</title>
<g id="a_node5"><a xlink:href="../../d2/dac/classSvtxTrackState.html#a90ec49cc2f193b8a18c222924d0d9864" target="_top" xlink:title="SvtxTrackState::get_px">
<polygon fill="none" stroke="#000000" points="145,-705.5 145,-725.5 277,-725.5 277,-705.5 145,-705.5"/>
<text text-anchor="middle" x="211" y="-712.5" font-family="FreeSans" font-size="10.00" fill="#000000">SvtxTrackState::get_px</text>
</a>
</g>
</g>
<!-- Node1&#45;&gt;Node5 -->
<g id="edge4" class="edge">
<title>Node1&#45;&gt;Node5</title>
<path fill="none" stroke="#191970" d="M56.3114,-491.5608C61.7591,-532.1697 81.7335,-639.7434 145,-696.5 146.4978,-697.8436 148.0848,-699.0927 149.7429,-700.2538"/>
<polygon fill="#191970" stroke="#191970" points="148.1346,-703.3671 158.5409,-705.3571 151.6469,-697.312 148.1346,-703.3671"/>
</g>
<!-- Node6 -->
<g id="node6" class="node">
<title>Node6</title>
<g id="a_node6"><a xlink:href="../../d2/dac/classSvtxTrackState.html#a50a9eb1d16c05e5a491d3601dbac29cc" target="_top" xlink:title="SvtxTrackState::get_py">
<polygon fill="none" stroke="#000000" points="145,-666.5 145,-686.5 277,-686.5 277,-666.5 145,-666.5"/>
<text text-anchor="middle" x="211" y="-673.5" font-family="FreeSans" font-size="10.00" fill="#000000">SvtxTrackState::get_py</text>
</a>
</g>
</g>
<!-- Node1&#45;&gt;Node6 -->
<g id="edge5" class="edge">
<title>Node1&#45;&gt;Node6</title>
<path fill="none" stroke="#191970" d="M57.8764,-491.5959C66.1684,-527.0751 90.9214,-612.4266 145,-657.5 146.7489,-658.9576 148.604,-660.3035 150.5398,-661.5463"/>
<polygon fill="#191970" stroke="#191970" points="149.0021,-664.6935 159.465,-666.3606 152.3254,-658.5326 149.0021,-664.6935"/>
</g>
<!-- Node7 -->
<g id="node7" class="node">
<title>Node7</title>
<g id="a_node7"><a xlink:href="../../d2/dac/classSvtxTrackState.html#a694965552056ceac9c3da88d9cdded9c" target="_top" xlink:title="SvtxTrackState::get_pz">
<polygon fill="none" stroke="#000000" points="145,-627.5 145,-647.5 277,-647.5 277,-627.5 145,-627.5"/>
<text text-anchor="middle" x="211" y="-634.5" font-family="FreeSans" font-size="10.00" fill="#000000">SvtxTrackState::get_pz</text>
</a>
</g>
</g>
<!-- Node1&#45;&gt;Node7 -->
<g id="edge6" class="edge">
<title>Node1&#45;&gt;Node7</title>
<path fill="none" stroke="#191970" d="M60.3573,-491.9641C71.824,-521.8018 100.1043,-584.8332 145,-618.5 147.2045,-620.1531 149.5488,-621.6626 151.9898,-623.041"/>
<polygon fill="#191970" stroke="#191970" points="150.6473,-626.2794 161.1739,-627.4802 153.6936,-619.9771 150.6473,-626.2794"/>
</g>
<!-- Node8 -->
<g id="node8" class="node">
<title>Node8</title>
<g id="a_node8"><a xlink:href="../../d2/dac/classSvtxTrackState.html#a0ce6512ed8f63cfa5b4d021cb9e6099b" target="_top" xlink:title="SvtxTrackState::get_x">
<polygon fill="none" stroke="#000000" points="148,-588.5 148,-608.5 274,-608.5 274,-588.5 148,-588.5"/>
<text text-anchor="middle" x="211" y="-595.5" font-family="FreeSans" font-size="10.00" fill="#000000">SvtxTrackState::get_x</text>
</a>
</g>
</g>
<!-- Node1&#45;&gt;Node8 -->
<g id="edge7" class="edge">
<title>Node1&#45;&gt;Node8</title>
<path fill="none" stroke="#191970" d="M64.3319,-491.8162C79.0212,-514.8003 108.8728,-556.4709 145,-579.5 147.8153,-581.2946 150.8043,-582.9239 153.8953,-584.4026"/>
<polygon fill="#191970" stroke="#191970" points="152.828,-587.7507 163.4028,-588.4018 155.5421,-581.2982 152.828,-587.7507"/>
</g>
<!-- Node9 -->
<g id="node9" class="node">
<title>Node9</title>
<g id="a_node9"><a xlink:href="../../d2/dac/classSvtxTrackState.html#ae114ff5fe76c67eca4c7d679df5ba67c" target="_top" xlink:title="SvtxTrackState::get_y">
<polygon fill="none" stroke="#000000" points="148,-549.5 148,-569.5 274,-569.5 274,-549.5 148,-549.5"/>
<text text-anchor="middle" x="211" y="-556.5" font-family="FreeSans" font-size="10.00" fill="#000000">SvtxTrackState::get_y</text>
</a>
</g>
</g>
<!-- Node1&#45;&gt;Node9 -->
<g id="edge8" class="edge">
<title>Node1&#45;&gt;Node9</title>
<path fill="none" stroke="#191970" d="M73.0471,-491.7593C90.5359,-506.347 118.0218,-527.4155 145,-540.5 149.2679,-542.57 153.8031,-544.4554 158.4196,-546.1637"/>
<polygon fill="#191970" stroke="#191970" points="157.3552,-549.4986 167.9498,-549.4237 159.6209,-542.8754 157.3552,-549.4986"/>
</g>
<!-- Node10 -->
<g id="node10" class="node">
<title>Node10</title>
<g id="a_node10"><a xlink:href="../../d2/dac/classSvtxTrackState.html#a03b70edad9df096ac77bc022be0ba3a3" target="_top" xlink:title="SvtxTrackState::get_z">
<polygon fill="none" stroke="#000000" points="148.5,-510.5 148.5,-530.5 273.5,-530.5 273.5,-510.5 148.5,-510.5"/>
<text text-anchor="middle" x="211" y="-517.5" font-family="FreeSans" font-size="10.00" fill="#000000">SvtxTrackState::get_z</text>
</a>
</g>
</g>
<!-- Node1&#45;&gt;Node10 -->
<g id="edge9" class="edge">
<title>Node1&#45;&gt;Node10</title>
<path fill="none" stroke="#191970" d="M109.2361,-491.2388C127.8043,-496.5779 148.3199,-502.477 166.0372,-507.5714"/>
<polygon fill="#191970" stroke="#191970" points="165.5318,-511.0678 176.1096,-510.4676 167.4662,-504.3404 165.5318,-511.0678"/>
</g>
<!-- Node11 -->
<g id="node11" class="node">
<title>Node11</title>
<g id="a_node11"><a xlink:href="../../d1/d25/classgenfit_1_1AbsTrackRep.html#a5c793a4e2a75511b77a53ec977e2501b" target="_top" xlink:title="Get the cartesian momentum vector of a state.">
<polygon fill="none" stroke="#000000" points="152.5,-459.5 152.5,-491.5 269.5,-491.5 269.5,-459.5 152.5,-459.5"/>
<text text-anchor="start" x="160.5" y="-478.5" font-family="FreeSans" font-size="10.00" fill="#000000">genfit::AbsTrackRep</text>
<text text-anchor="middle" x="211" y="-466.5" font-family="FreeSans" font-size="10.00" fill="#000000">::getMom</text>
</a>
</g>
</g>
<!-- Node1&#45;&gt;Node11 -->
<g id="edge10" class="edge">
<title>Node1&#45;&gt;Node11</title>
<path fill="none" stroke="#191970" d="M109.2361,-475.5C119.8989,-475.5 131.2038,-475.5 142.2522,-475.5"/>
<polygon fill="#191970" stroke="#191970" points="142.3008,-479.0001 152.3008,-475.5 142.3008,-472.0001 142.3008,-479.0001"/>
</g>
<!-- Node12 -->
<g id="node12" class="node">
<title>Node12</title>
<g id="a_node12"><a xlink:href="../../d1/d25/classgenfit_1_1AbsTrackRep.html#a8a5f4ef901011b30ecfaa612ae993c80" target="_top" xlink:title="Get the cartesian position of a state.">
<polygon fill="none" stroke="#000000" points="152.5,-408.5 152.5,-440.5 269.5,-440.5 269.5,-408.5 152.5,-408.5"/>
<text text-anchor="start" x="160.5" y="-427.5" font-family="FreeSans" font-size="10.00" fill="#000000">genfit::AbsTrackRep</text>
<text text-anchor="middle" x="211" y="-415.5" font-family="FreeSans" font-size="10.00" fill="#000000">::getPos</text>
</a>
</g>
</g>
<!-- Node1&#45;&gt;Node12 -->
<g id="edge11" class="edge">
<title>Node1&#45;&gt;Node12</title>
<path fill="none" stroke="#191970" d="M104.0176,-459.3633C119.2943,-454.3849 136.2676,-448.8537 152.1111,-443.6906"/>
<polygon fill="#191970" stroke="#191970" points="153.3811,-446.958 161.8045,-440.5317 151.2122,-440.3025 153.3811,-446.958"/>
</g>
<!-- Node13 -->
<g id="node13" class="node">
<title>Node13</title>
<g id="a_node13"><a xlink:href="../../d0/d6b/classSvtxTrackState__v1.html#ac248d0c856879c152a1cfac4e2f678bd" target="_top" xlink:title="SvtxTrackState_v1::\lset_error">
<polygon fill="none" stroke="#000000" points="153.5,-357.5 153.5,-389.5 268.5,-389.5 268.5,-357.5 153.5,-357.5"/>
<text text-anchor="start" x="161.5" y="-376.5" font-family="FreeSans" font-size="10.00" fill="#000000">SvtxTrackState_v1::</text>
<text text-anchor="middle" x="211" y="-364.5" font-family="FreeSans" font-size="10.00" fill="#000000">set_error</text>
</a>
</g>
</g>
<!-- Node1&#45;&gt;Node13 -->
<g id="edge12" class="edge">
<title>Node1&#45;&gt;Node13</title>
<path fill="none" stroke="#191970" d="M70.2752,-459.4698C87.4307,-442.7393 116.2625,-416.6053 145,-399.5 148.3567,-397.502 151.8947,-395.6 155.5177,-393.8009"/>
<polygon fill="#191970" stroke="#191970" points="157.0603,-396.9435 164.6435,-389.5445 154.1013,-390.5996 157.0603,-396.9435"/>
</g>
<!-- Node17 -->
<g id="node17" class="node">
<title>Node17</title>
<g id="a_node17"><a xlink:href="../../d0/d6b/classSvtxTrackState__v1.html#accd3a5ec704f05395fb46a0051088630" target="_top" xlink:title="SvtxTrackState_v1::\lset_px">
<polygon fill="none" stroke="#000000" points="153.5,-306.5 153.5,-338.5 268.5,-338.5 268.5,-306.5 153.5,-306.5"/>
<text text-anchor="start" x="161.5" y="-325.5" font-family="FreeSans" font-size="10.00" fill="#000000">SvtxTrackState_v1::</text>
<text text-anchor="middle" x="211" y="-313.5" font-family="FreeSans" font-size="10.00" fill="#000000">set_px</text>
</a>
</g>
</g>
<!-- Node1&#45;&gt;Node17 -->
<g id="edge17" class="edge">
<title>Node1&#45;&gt;Node17</title>
<path fill="none" stroke="#191970" d="M62.1999,-459.1626C75.5285,-432.5026 105.3252,-379.5129 145,-348.5 147.2741,-346.7224 149.685,-345.0523 152.1886,-343.4851"/>
<polygon fill="#191970" stroke="#191970" points="153.9849,-346.4905 160.9938,-338.5453 150.56,-340.3856 153.9849,-346.4905"/>
</g>
<!-- Node18 -->
<g id="node18" class="node">
<title>Node18</title>
<g id="a_node18"><a xlink:href="../../d0/d6b/classSvtxTrackState__v1.html#a3a4ba1e3c29379cf66b3b950a7fc4ca4" target="_top" xlink:title="SvtxTrackState_v1::\lset_py">
<polygon fill="none" stroke="#000000" points="153.5,-255.5 153.5,-287.5 268.5,-287.5 268.5,-255.5 153.5,-255.5"/>
<text text-anchor="start" x="161.5" y="-274.5" font-family="FreeSans" font-size="10.00" fill="#000000">SvtxTrackState_v1::</text>
<text text-anchor="middle" x="211" y="-262.5" font-family="FreeSans" font-size="10.00" fill="#000000">set_py</text>
</a>
</g>
</g>
<!-- Node1&#45;&gt;Node18 -->
<g id="edge18" class="edge">
<title>Node1&#45;&gt;Node18</title>
<path fill="none" stroke="#191970" d="M58.5102,-459.3402C67.8485,-424.9038 94.2108,-343.6753 145,-297.5 146.7029,-295.9518 148.5088,-294.4911 150.3937,-293.1134"/>
<polygon fill="#191970" stroke="#191970" points="152.5246,-295.9063 159.089,-287.5901 148.7713,-289.9976 152.5246,-295.9063"/>
</g>
<!-- Node19 -->
<g id="node19" class="node">
<title>Node19</title>
<g id="a_node19"><a xlink:href="../../d0/d6b/classSvtxTrackState__v1.html#a4f7c42e00b1e877982a1bb8a7c2de52d" target="_top" xlink:title="SvtxTrackState_v1::\lset_pz">
<polygon fill="none" stroke="#000000" points="153.5,-204.5 153.5,-236.5 268.5,-236.5 268.5,-204.5 153.5,-204.5"/>
<text text-anchor="start" x="161.5" y="-223.5" font-family="FreeSans" font-size="10.00" fill="#000000">SvtxTrackState_v1::</text>
<text text-anchor="middle" x="211" y="-211.5" font-family="FreeSans" font-size="10.00" fill="#000000">set_pz</text>
</a>
</g>
</g>
<!-- Node1&#45;&gt;Node19 -->
<g id="edge19" class="edge">
<title>Node1&#45;&gt;Node19</title>
<path fill="none" stroke="#191970" d="M56.4621,-459.2296C62.2632,-418.0232 82.9987,-308.4339 145,-246.5 146.4376,-245.0639 147.9642,-243.7049 149.5621,-242.4191"/>
<polygon fill="#191970" stroke="#191970" points="151.8029,-245.1262 158.0663,-236.581 147.8411,-239.3552 151.8029,-245.1262"/>
</g>
<!-- Node20 -->
<g id="node20" class="node">
<title>Node20</title>
<g id="a_node20"><a xlink:href="../../d0/d6b/classSvtxTrackState__v1.html#a8815d4ed016c49132d6e187355651e27" target="_top" xlink:title="SvtxTrackState_v1::\lset_x">
<polygon fill="none" stroke="#000000" points="153.5,-153.5 153.5,-185.5 268.5,-185.5 268.5,-153.5 153.5,-153.5"/>
<text text-anchor="start" x="161.5" y="-172.5" font-family="FreeSans" font-size="10.00" fill="#000000">SvtxTrackState_v1::</text>
<text text-anchor="middle" x="211" y="-160.5" font-family="FreeSans" font-size="10.00" fill="#000000">set_x</text>
</a>
</g>
</g>
<!-- Node1&#45;&gt;Node20 -->
<g id="edge20" class="edge">
<title>Node1&#45;&gt;Node20</title>
<path fill="none" stroke="#191970" d="M55.1017,-459.202C57.7063,-412.0185 71.5527,-273.6995 145,-195.5 146.3595,-194.0525 147.8097,-192.6842 149.3336,-191.3908"/>
<polygon fill="#191970" stroke="#191970" points="151.4121,-194.2072 157.4901,-185.5292 147.327,-188.5228 151.4121,-194.2072"/>
</g>
<!-- Node21 -->
<g id="node21" class="node">
<title>Node21</title>
<g id="a_node21"><a xlink:href="../../d0/d6b/classSvtxTrackState__v1.html#a6a1e3c69de08b684d4f489f7b4f49d10" target="_top" xlink:title="SvtxTrackState_v1::\lset_y">
<polygon fill="none" stroke="#000000" points="153.5,-102.5 153.5,-134.5 268.5,-134.5 268.5,-102.5 153.5,-102.5"/>
<text text-anchor="start" x="161.5" y="-121.5" font-family="FreeSans" font-size="10.00" fill="#000000">SvtxTrackState_v1::</text>
<text text-anchor="middle" x="211" y="-109.5" font-family="FreeSans" font-size="10.00" fill="#000000">set_y</text>
</a>
</g>
</g>
<!-- Node1&#45;&gt;Node21 -->
<g id="edge21" class="edge">
<title>Node1&#45;&gt;Node21</title>
<path fill="none" stroke="#191970" d="M56.9591,-459.392C66.3388,-399.8234 101.5381,-192.9473 145,-144.5 146.1873,-143.1765 147.4506,-141.9196 148.7776,-140.7259"/>
<polygon fill="#191970" stroke="#191970" points="151.0942,-143.3632 156.9875,-134.5587 146.8899,-137.7665 151.0942,-143.3632"/>
</g>
<!-- Node22 -->
<g id="node22" class="node">
<title>Node22</title>
<g id="a_node22"><a xlink:href="../../d0/d6b/classSvtxTrackState__v1.html#a5db3f41c1ea4d9216d19a4623720ea78" target="_top" xlink:title="SvtxTrackState_v1::\lset_z">
<polygon fill="none" stroke="#000000" points="153.5,-51.5 153.5,-83.5 268.5,-83.5 268.5,-51.5 153.5,-51.5"/>
<text text-anchor="start" x="161.5" y="-70.5" font-family="FreeSans" font-size="10.00" fill="#000000">SvtxTrackState_v1::</text>
<text text-anchor="middle" x="211" y="-58.5" font-family="FreeSans" font-size="10.00" fill="#000000">set_z</text>
</a>
</g>
</g>
<!-- Node1&#45;&gt;Node22 -->
<g id="edge22" class="edge">
<title>Node1&#45;&gt;Node22</title>
<path fill="none" stroke="#191970" d="M56.3465,-459.2228C64.0678,-393.7493 95.6772,-150.4129 145,-93.5 146.1367,-92.1883 147.3484,-90.9423 148.6232,-89.7586"/>
<polygon fill="#191970" stroke="#191970" points="150.766,-92.526 156.5338,-83.6387 146.4828,-86.9894 150.766,-92.526"/>
</g>
<!-- Node23 -->
<g id="node23" class="node">
<title>Node23</title>
<g id="a_node23"><a xlink:href="../../d1/d25/classgenfit_1_1AbsTrackRep.html#aa64680a087ba9a9a91b77f80977e19cc" target="_top" xlink:title="Set position, momentum and covariance of state.">
<polygon fill="none" stroke="#000000" points="152.5,-.5 152.5,-32.5 269.5,-32.5 269.5,-.5 152.5,-.5"/>
<text text-anchor="start" x="160.5" y="-19.5" font-family="FreeSans" font-size="10.00" fill="#000000">genfit::AbsTrackRep</text>
<text text-anchor="middle" x="211" y="-7.5" font-family="FreeSans" font-size="10.00" fill="#000000">::setPosMomCov</text>
</a>
</g>
</g>
<!-- Node1&#45;&gt;Node23 -->
<g id="edge23" class="edge">
<title>Node1&#45;&gt;Node23</title>
<path fill="none" stroke="#191970" d="M55.8712,-459.0324C62.093,-387.9361 89.7845,-107.95 145,-42.5 146.0175,-41.2939 147.0984,-40.1435 148.2339,-39.0461"/>
<polygon fill="#191970" stroke="#191970" points="150.7675,-41.5037 156.4259,-32.5464 146.4167,-36.0201 150.7675,-41.5037"/>
</g>
<!-- Node14 -->
<g id="node14" class="node">
<title>Node14</title>
<g id="a_node14"><a xlink:href="../../d0/d6b/classSvtxTrackState__v1.html#a9fb8d996d591c6e2575893da2c18687e" target="_top" xlink:title="SvtxTrackState_v1::\lcovar_index">
<polygon fill="none" stroke="#000000" points="313,-357.5 313,-389.5 428,-389.5 428,-357.5 313,-357.5"/>
<text text-anchor="start" x="321" y="-376.5" font-family="FreeSans" font-size="10.00" fill="#000000">SvtxTrackState_v1::</text>
<text text-anchor="middle" x="370.5" y="-364.5" font-family="FreeSans" font-size="10.00" fill="#000000">covar_index</text>
</a>
</g>
</g>
<!-- Node13&#45;&gt;Node14 -->
<g id="edge13" class="edge">
<title>Node13&#45;&gt;Node14</title>
<path fill="none" stroke="#191970" d="M268.5832,-373.5C279.5824,-373.5 291.1928,-373.5 302.4824,-373.5"/>
<polygon fill="#191970" stroke="#191970" points="302.7337,-377.0001 312.7336,-373.5 302.7336,-370.0001 302.7337,-377.0001"/>
</g>
<!-- Node15 -->
<g id="node15" class="node">
<title>Node15</title>
<g id="a_node15"><a xlink:href="../../d4/da9/namespaceboost.html#a630945877437d477612e4419562161cc" target="_top" xlink:title="boost::swap">
<polygon fill="none" stroke="#000000" points="464,-363.5 464,-383.5 541,-383.5 541,-363.5 464,-363.5"/>
<text text-anchor="middle" x="502.5" y="-370.5" font-family="FreeSans" font-size="10.00" fill="#000000">boost::swap</text>
</a>
</g>
</g>
<!-- Node14&#45;&gt;Node15 -->
<g id="edge14" class="edge">
<title>Node14&#45;&gt;Node15</title>
<path fill="none" stroke="#191970" d="M428.0131,-373.5C436.513,-373.5 445.2038,-373.5 453.509,-373.5"/>
<polygon fill="#191970" stroke="#191970" points="453.7792,-377.0001 463.7792,-373.5 453.7792,-370.0001 453.7792,-377.0001"/>
</g>
<!-- Node16 -->
<g id="node16" class="node">
<title>Node16</title>
<g id="a_node16"><a xlink:href="../../d1/d96/classboost_1_1array.html#a342ef866ed696b18ce803b5c9aba4b2e" target="_top" xlink:title="boost::array::swap">
<polygon fill="none" stroke="#000000" points="577,-363.5 577,-383.5 687,-383.5 687,-363.5 577,-363.5"/>
<text text-anchor="middle" x="632" y="-370.5" font-family="FreeSans" font-size="10.00" fill="#000000">boost::array::swap</text>
</a>
</g>
</g>
<!-- Node15&#45;&gt;Node16 -->
<g id="edge15" class="edge">
<title>Node15&#45;&gt;Node16</title>
<path fill="none" stroke="#191970" d="M541.0036,-367.2692C549.0418,-366.9335 557.7295,-366.7606 566.4369,-366.7505"/>
<polygon fill="#191970" stroke="#191970" points="566.6084,-370.2515 576.6298,-366.8134 566.6517,-363.2516 566.6084,-370.2515"/>
</g>
<!-- Node16&#45;&gt;Node15 -->
<g id="edge16" class="edge">
<title>Node16&#45;&gt;Node15</title>
<path fill="none" stroke="#191970" d="M576.6298,-380.1866C568.1911,-380.3014 559.5353,-380.2603 551.252,-380.0634"/>
<polygon fill="#191970" stroke="#191970" points="551.112,-376.5571 541.0036,-379.7308 550.8848,-383.5535 551.112,-376.5571"/>
</g>
</g>
</svg>
