<?xml version="1.0" encoding="UTF-8" standalone="no"?>
<!DOCTYPE svg PUBLIC "-//W3C//DTD SVG 1.1//EN"
 "http://www.w3.org/Graphics/SVG/1.1/DTD/svg11.dtd">
<!-- Generated by graphviz version 2.40.1 (20161225.0304)
 -->
<!-- Title: TrackProjectorPid::get_projected_momentum Pages: 1 -->
<svg width="880pt" height="875pt"
 viewBox="0.00 0.00 880.00 875.00" xmlns="http://www.w3.org/2000/svg" xmlns:xlink="http://www.w3.org/1999/xlink">
<g id="graph0" class="graph" transform="scale(1 1) rotate(0) translate(4 871)">
<title>TrackProjectorPid::get_projected_momentum</title>
<!-- Node1 -->
<g id="node1" class="node">
<title>Node1</title>
<polygon fill="#bfbfbf" stroke="#000000" points="0,-459.5 0,-491.5 149,-491.5 149,-459.5 0,-459.5"/>
<text text-anchor="start" x="8" y="-478.5" font-family="FreeSans" font-size="10.00" fill="#000000">TrackProjectorPid::</text>
<text text-anchor="middle" x="74.5" y="-466.5" font-family="FreeSans" font-size="10.00" fill="#000000">get_projected_momentum</text>
</g>
<!-- Node2 -->
<g id="node2" class="node">
<title>Node2</title>
<g id="a_node2"><a xlink:href="../../d6/da3/classTrackProjectorPid.html#ad70d7eaa5e67746fca02a01d2609a803" target="_top" xlink:title="TrackProjectorPid::\lproject_track">
<polygon fill="none" stroke="#000000" points="185,-459.5 185,-491.5 294,-491.5 294,-459.5 185,-459.5"/>
<text text-anchor="start" x="193" y="-478.5" font-family="FreeSans" font-size="10.00" fill="#000000">TrackProjectorPid::</text>
<text text-anchor="middle" x="239.5" y="-466.5" font-family="FreeSans" font-size="10.00" fill="#000000">project_track</text>
</a>
</g>
</g>
<!-- Node1&#45;&gt;Node2 -->
<g id="edge1" class="edge">
<title>Node1&#45;&gt;Node2</title>
<path fill="none" stroke="#191970" d="M149.2757,-475.5C157.7625,-475.5 166.3592,-475.5 174.7025,-475.5"/>
<polygon fill="#191970" stroke="#191970" points="174.7293,-479.0001 184.7293,-475.5 174.7293,-472.0001 174.7293,-479.0001"/>
</g>
<!-- Node3 -->
<g id="node3" class="node">
<title>Node3</title>
<g id="a_node3"><a xlink:href="../../d2/db8/classSvtxTrack.html#a2c1a7863a506e3133e6bc0259c89c741" target="_top" xlink:title="SvtxTrack::end_states">
<polygon fill="none" stroke="#000000" points="332.5,-846.5 332.5,-866.5 459.5,-866.5 459.5,-846.5 332.5,-846.5"/>
<text text-anchor="middle" x="396" y="-853.5" font-family="FreeSans" font-size="10.00" fill="#000000">SvtxTrack::end_states</text>
</a>
</g>
</g>
<!-- Node2&#45;&gt;Node3 -->
<g id="edge2" class="edge">
<title>Node2&#45;&gt;Node3</title>
<path fill="none" stroke="#191970" d="M241.4296,-491.921C249.2443,-555.7341 280.5096,-786.2299 330,-837.5 331.0869,-838.626 332.2358,-839.6864 333.4376,-840.6852"/>
<polygon fill="#191970" stroke="#191970" points="331.7762,-843.7841 342.0379,-846.42 335.6597,-837.9601 331.7762,-843.7841"/>
</g>
<!-- Node4 -->
<g id="node4" class="node">
<title>Node4</title>
<g id="a_node4"><a xlink:href="../../d2/dac/classSvtxTrackState.html#a0ce6512ed8f63cfa5b4d021cb9e6099b" target="_top" xlink:title="SvtxTrackState::get_x">
<polygon fill="none" stroke="#000000" points="333,-807.5 333,-827.5 459,-827.5 459,-807.5 333,-807.5"/>
<text text-anchor="middle" x="396" y="-814.5" font-family="FreeSans" font-size="10.00" fill="#000000">SvtxTrackState::get_x</text>
</a>
</g>
</g>
<!-- Node2&#45;&gt;Node4 -->
<g id="edge3" class="edge">
<title>Node2&#45;&gt;Node4</title>
<path fill="none" stroke="#191970" d="M241.9338,-491.7603C251.0954,-550.9011 285.2749,-753.4554 330,-798.5 331.2418,-799.7507 332.5603,-800.9203 333.9423,-802.014"/>
<polygon fill="#191970" stroke="#191970" points="332.1574,-805.0272 342.4633,-807.4843 335.939,-799.1366 332.1574,-805.0272"/>
</g>
<!-- Node5 -->
<g id="node5" class="node">
<title>Node5</title>
<g id="a_node5"><a xlink:href="../../d2/dac/classSvtxTrackState.html#ae114ff5fe76c67eca4c7d679df5ba67c" target="_top" xlink:title="SvtxTrackState::get_y">
<polygon fill="none" stroke="#000000" points="333,-768.5 333,-788.5 459,-788.5 459,-768.5 333,-768.5"/>
<text text-anchor="middle" x="396" y="-775.5" font-family="FreeSans" font-size="10.00" fill="#000000">SvtxTrackState::get_y</text>
</a>
</g>
</g>
<!-- Node2&#45;&gt;Node5 -->
<g id="edge4" class="edge">
<title>Node2&#45;&gt;Node5</title>
<path fill="none" stroke="#191970" d="M242.5767,-491.6566C253.22,-545.9533 290.0207,-720.6321 330,-759.5 331.2637,-760.7286 332.6015,-761.8786 334.0006,-762.9551"/>
<polygon fill="#191970" stroke="#191970" points="332.2652,-765.9981 342.5956,-768.3507 335.987,-760.0695 332.2652,-765.9981"/>
</g>
<!-- Node6 -->
<g id="node6" class="node">
<title>Node6</title>
<g id="a_node6"><a xlink:href="../../d2/dac/classSvtxTrackState.html#a03b70edad9df096ac77bc022be0ba3a3" target="_top" xlink:title="SvtxTrackState::get_z">
<polygon fill="none" stroke="#000000" points="333.5,-729.5 333.5,-749.5 458.5,-749.5 458.5,-729.5 333.5,-729.5"/>
<text text-anchor="middle" x="396" y="-736.5" font-family="FreeSans" font-size="10.00" fill="#000000">SvtxTrackState::get_z</text>
</a>
</g>
</g>
<!-- Node2&#45;&gt;Node6 -->
<g id="edge5" class="edge">
<title>Node2&#45;&gt;Node6</title>
<path fill="none" stroke="#191970" d="M240.5917,-491.6534C244.4242,-535.2733 261.0686,-656.4602 330,-720.5 331.4741,-721.8695 333.0407,-723.141 334.6811,-724.3215"/>
<polygon fill="#191970" stroke="#191970" points="333.0256,-727.4089 343.4125,-729.4978 336.5953,-721.3875 333.0256,-727.4089"/>
</g>
<!-- Node7 -->
<g id="node7" class="node">
<title>Node7</title>
<g id="a_node7"><a xlink:href="../../d2/dac/classSvtxTrackState.html#a90ec49cc2f193b8a18c222924d0d9864" target="_top" xlink:title="SvtxTrackState::get_px">
<polygon fill="none" stroke="#000000" points="330,-690.5 330,-710.5 462,-710.5 462,-690.5 330,-690.5"/>
<text text-anchor="middle" x="396" y="-697.5" font-family="FreeSans" font-size="10.00" fill="#000000">SvtxTrackState::get_px</text>
</a>
</g>
</g>
<!-- Node2&#45;&gt;Node7 -->
<g id="edge6" class="edge">
<title>Node2&#45;&gt;Node7</title>
<path fill="none" stroke="#191970" d="M241.8555,-491.6201C248.3779,-530.352 270.3092,-629.297 330,-681.5 331.5483,-682.854 333.1875,-684.1119 334.8986,-685.2803"/>
<polygon fill="#191970" stroke="#191970" points="333.535,-688.5302 343.9619,-690.4092 336.9825,-682.438 333.535,-688.5302"/>
</g>
<!-- Node8 -->
<g id="node8" class="node">
<title>Node8</title>
<g id="a_node8"><a xlink:href="../../d2/dac/classSvtxTrackState.html#a50a9eb1d16c05e5a491d3601dbac29cc" target="_top" xlink:title="SvtxTrackState::get_py">
<polygon fill="none" stroke="#000000" points="330,-651.5 330,-671.5 462,-671.5 462,-651.5 330,-651.5"/>
<text text-anchor="middle" x="396" y="-658.5" font-family="FreeSans" font-size="10.00" fill="#000000">SvtxTrackState::get_py</text>
</a>
</g>
</g>
<!-- Node2&#45;&gt;Node8 -->
<g id="edge7" class="edge">
<title>Node2&#45;&gt;Node8</title>
<path fill="none" stroke="#191970" d="M243.638,-491.5354C253.0721,-524.8418 279.3733,-601.7907 330,-642.5 331.812,-643.957 333.7309,-645.3023 335.7298,-646.5445"/>
<polygon fill="#191970" stroke="#191970" points="334.4413,-649.8204 344.9242,-651.3564 337.6872,-643.6184 334.4413,-649.8204"/>
</g>
<!-- Node9 -->
<g id="node9" class="node">
<title>Node9</title>
<g id="a_node9"><a xlink:href="../../d2/dac/classSvtxTrackState.html#a694965552056ceac9c3da88d9cdded9c" target="_top" xlink:title="SvtxTrackState::get_pz">
<polygon fill="none" stroke="#000000" points="330,-612.5 330,-632.5 462,-632.5 462,-612.5 330,-612.5"/>
<text text-anchor="middle" x="396" y="-619.5" font-family="FreeSans" font-size="10.00" fill="#000000">SvtxTrackState::get_pz</text>
</a>
</g>
</g>
<!-- Node2&#45;&gt;Node9 -->
<g id="edge8" class="edge">
<title>Node2&#45;&gt;Node9</title>
<path fill="none" stroke="#191970" d="M246.4359,-491.5223C259.0361,-518.7233 288.2934,-573.8615 330,-603.5 332.3691,-605.1836 334.8854,-606.7188 337.4994,-608.1187"/>
<polygon fill="#191970" stroke="#191970" points="336.1463,-611.3491 346.6914,-612.3755 339.088,-604.9972 336.1463,-611.3491"/>
</g>
<!-- Node10 -->
<g id="node10" class="node">
<title>Node10</title>
<g id="a_node10"><a xlink:href="../../d2/dac/classSvtxTrackState.html#a0c2f9473cd23f4f3bcce11ba7c198407" target="_top" xlink:title="SvtxTrackState::get\l_error">
<polygon fill="none" stroke="#000000" points="338.5,-561.5 338.5,-593.5 453.5,-593.5 453.5,-561.5 338.5,-561.5"/>
<text text-anchor="start" x="346.5" y="-580.5" font-family="FreeSans" font-size="10.00" fill="#000000">SvtxTrackState::get</text>
<text text-anchor="middle" x="396" y="-568.5" font-family="FreeSans" font-size="10.00" fill="#000000">_error</text>
</a>
</g>
</g>
<!-- Node2&#45;&gt;Node10 -->
<g id="edge9" class="edge">
<title>Node2&#45;&gt;Node10</title>
<path fill="none" stroke="#191970" d="M254.8771,-491.5195C271.9217,-508.5322 300.8701,-535.2938 330,-552.5 332.6572,-554.0696 335.4305,-555.5723 338.2712,-557.0061"/>
<polygon fill="#191970" stroke="#191970" points="336.9748,-560.264 347.514,-561.3485 339.9514,-553.9284 336.9748,-560.264"/>
</g>
<!-- Node11 -->
<g id="node11" class="node">
<title>Node11</title>
<g id="a_node11"><a xlink:href="../../d1/d25/classgenfit_1_1AbsTrackRep.html#aa64680a087ba9a9a91b77f80977e19cc" target="_top" xlink:title="Set position, momentum and covariance of state.">
<polygon fill="none" stroke="#000000" points="337.5,-510.5 337.5,-542.5 454.5,-542.5 454.5,-510.5 337.5,-510.5"/>
<text text-anchor="start" x="345.5" y="-529.5" font-family="FreeSans" font-size="10.00" fill="#000000">genfit::AbsTrackRep</text>
<text text-anchor="middle" x="396" y="-517.5" font-family="FreeSans" font-size="10.00" fill="#000000">::setPosMomCov</text>
</a>
</g>
</g>
<!-- Node2&#45;&gt;Node11 -->
<g id="edge10" class="edge">
<title>Node2&#45;&gt;Node11</title>
<path fill="none" stroke="#191970" d="M289.0176,-491.6367C304.2943,-496.6151 321.2676,-502.1463 337.1111,-507.3094"/>
<polygon fill="#191970" stroke="#191970" points="336.2122,-510.6975 346.8045,-510.4683 338.3811,-504.042 336.2122,-510.6975"/>
</g>
<!-- Node12 -->
<g id="node12" class="node">
<title>Node12</title>
<g id="a_node12"><a xlink:href="../../d0/d6b/classSvtxTrackState__v1.html#a8815d4ed016c49132d6e187355651e27" target="_top" xlink:title="SvtxTrackState_v1::\lset_x">
<polygon fill="none" stroke="#000000" points="338.5,-459.5 338.5,-491.5 453.5,-491.5 453.5,-459.5 338.5,-459.5"/>
<text text-anchor="start" x="346.5" y="-478.5" font-family="FreeSans" font-size="10.00" fill="#000000">SvtxTrackState_v1::</text>
<text text-anchor="middle" x="396" y="-466.5" font-family="FreeSans" font-size="10.00" fill="#000000">set_x</text>
</a>
</g>
</g>
<!-- Node2&#45;&gt;Node12 -->
<g id="edge11" class="edge">
<title>Node2&#45;&gt;Node12</title>
<path fill="none" stroke="#191970" d="M294.2361,-475.5C305.1688,-475.5 316.7766,-475.5 328.0908,-475.5"/>
<polygon fill="#191970" stroke="#191970" points="328.3711,-479.0001 338.3711,-475.5 328.3711,-472.0001 328.3711,-479.0001"/>
</g>
<!-- Node13 -->
<g id="node13" class="node">
<title>Node13</title>
<g id="a_node13"><a xlink:href="../../d1/d25/classgenfit_1_1AbsTrackRep.html#a8a5f4ef901011b30ecfaa612ae993c80" target="_top" xlink:title="Get the cartesian position of a state.">
<polygon fill="none" stroke="#000000" points="337.5,-408.5 337.5,-440.5 454.5,-440.5 454.5,-408.5 337.5,-408.5"/>
<text text-anchor="start" x="345.5" y="-427.5" font-family="FreeSans" font-size="10.00" fill="#000000">genfit::AbsTrackRep</text>
<text text-anchor="middle" x="396" y="-415.5" font-family="FreeSans" font-size="10.00" fill="#000000">::getPos</text>
</a>
</g>
</g>
<!-- Node2&#45;&gt;Node13 -->
<g id="edge12" class="edge">
<title>Node2&#45;&gt;Node13</title>
<path fill="none" stroke="#191970" d="M289.0176,-459.3633C304.2943,-454.3849 321.2676,-448.8537 337.1111,-443.6906"/>
<polygon fill="#191970" stroke="#191970" points="338.3811,-446.958 346.8045,-440.5317 336.2122,-440.3025 338.3811,-446.958"/>
</g>
<!-- Node14 -->
<g id="node14" class="node">
<title>Node14</title>
<g id="a_node14"><a xlink:href="../../d0/d6b/classSvtxTrackState__v1.html#a6a1e3c69de08b684d4f489f7b4f49d10" target="_top" xlink:title="SvtxTrackState_v1::\lset_y">
<polygon fill="none" stroke="#000000" points="338.5,-357.5 338.5,-389.5 453.5,-389.5 453.5,-357.5 338.5,-357.5"/>
<text text-anchor="start" x="346.5" y="-376.5" font-family="FreeSans" font-size="10.00" fill="#000000">SvtxTrackState_v1::</text>
<text text-anchor="middle" x="396" y="-364.5" font-family="FreeSans" font-size="10.00" fill="#000000">set_y</text>
</a>
</g>
</g>
<!-- Node2&#45;&gt;Node14 -->
<g id="edge13" class="edge">
<title>Node2&#45;&gt;Node14</title>
<path fill="none" stroke="#191970" d="M255.2752,-459.4698C272.4307,-442.7393 301.2625,-416.6053 330,-399.5 333.3567,-397.502 336.8947,-395.6 340.5177,-393.8009"/>
<polygon fill="#191970" stroke="#191970" points="342.0603,-396.9435 349.6435,-389.5445 339.1013,-390.5996 342.0603,-396.9435"/>
</g>
<!-- Node15 -->
<g id="node15" class="node">
<title>Node15</title>
<g id="a_node15"><a xlink:href="../../d0/d6b/classSvtxTrackState__v1.html#a5db3f41c1ea4d9216d19a4623720ea78" target="_top" xlink:title="SvtxTrackState_v1::\lset_z">
<polygon fill="none" stroke="#000000" points="338.5,-306.5 338.5,-338.5 453.5,-338.5 453.5,-306.5 338.5,-306.5"/>
<text text-anchor="start" x="346.5" y="-325.5" font-family="FreeSans" font-size="10.00" fill="#000000">SvtxTrackState_v1::</text>
<text text-anchor="middle" x="396" y="-313.5" font-family="FreeSans" font-size="10.00" fill="#000000">set_z</text>
</a>
</g>
</g>
<!-- Node2&#45;&gt;Node15 -->
<g id="edge14" class="edge">
<title>Node2&#45;&gt;Node15</title>
<path fill="none" stroke="#191970" d="M247.1999,-459.1626C260.5285,-432.5026 290.3252,-379.5129 330,-348.5 332.2741,-346.7224 334.685,-345.0523 337.1886,-343.4851"/>
<polygon fill="#191970" stroke="#191970" points="338.9849,-346.4905 345.9938,-338.5453 335.56,-340.3856 338.9849,-346.4905"/>
</g>
<!-- Node16 -->
<g id="node16" class="node">
<title>Node16</title>
<g id="a_node16"><a xlink:href="../../d0/d6b/classSvtxTrackState__v1.html#accd3a5ec704f05395fb46a0051088630" target="_top" xlink:title="SvtxTrackState_v1::\lset_px">
<polygon fill="none" stroke="#000000" points="338.5,-255.5 338.5,-287.5 453.5,-287.5 453.5,-255.5 338.5,-255.5"/>
<text text-anchor="start" x="346.5" y="-274.5" font-family="FreeSans" font-size="10.00" fill="#000000">SvtxTrackState_v1::</text>
<text text-anchor="middle" x="396" y="-262.5" font-family="FreeSans" font-size="10.00" fill="#000000">set_px</text>
</a>
</g>
</g>
<!-- Node2&#45;&gt;Node16 -->
<g id="edge15" class="edge">
<title>Node2&#45;&gt;Node16</title>
<path fill="none" stroke="#191970" d="M243.5102,-459.3402C252.8485,-424.9038 279.2108,-343.6753 330,-297.5 331.7029,-295.9518 333.5088,-294.4911 335.3937,-293.1134"/>
<polygon fill="#191970" stroke="#191970" points="337.5246,-295.9063 344.089,-287.5901 333.7713,-289.9976 337.5246,-295.9063"/>
</g>
<!-- Node17 -->
<g id="node17" class="node">
<title>Node17</title>
<g id="a_node17"><a xlink:href="../../d1/d25/classgenfit_1_1AbsTrackRep.html#a5c793a4e2a75511b77a53ec977e2501b" target="_top" xlink:title="Get the cartesian momentum vector of a state.">
<polygon fill="none" stroke="#000000" points="337.5,-204.5 337.5,-236.5 454.5,-236.5 454.5,-204.5 337.5,-204.5"/>
<text text-anchor="start" x="345.5" y="-223.5" font-family="FreeSans" font-size="10.00" fill="#000000">genfit::AbsTrackRep</text>
<text text-anchor="middle" x="396" y="-211.5" font-family="FreeSans" font-size="10.00" fill="#000000">::getMom</text>
</a>
</g>
</g>
<!-- Node2&#45;&gt;Node17 -->
<g id="edge16" class="edge">
<title>Node2&#45;&gt;Node17</title>
<path fill="none" stroke="#191970" d="M241.4621,-459.2296C247.2632,-418.0232 267.9987,-308.4339 330,-246.5 331.4376,-245.0639 332.9642,-243.7049 334.5621,-242.4191"/>
<polygon fill="#191970" stroke="#191970" points="336.8029,-245.1262 343.0663,-236.581 332.8411,-239.3552 336.8029,-245.1262"/>
</g>
<!-- Node18 -->
<g id="node18" class="node">
<title>Node18</title>
<g id="a_node18"><a xlink:href="../../d0/d6b/classSvtxTrackState__v1.html#a3a4ba1e3c29379cf66b3b950a7fc4ca4" target="_top" xlink:title="SvtxTrackState_v1::\lset_py">
<polygon fill="none" stroke="#000000" points="338.5,-153.5 338.5,-185.5 453.5,-185.5 453.5,-153.5 338.5,-153.5"/>
<text text-anchor="start" x="346.5" y="-172.5" font-family="FreeSans" font-size="10.00" fill="#000000">SvtxTrackState_v1::</text>
<text text-anchor="middle" x="396" y="-160.5" font-family="FreeSans" font-size="10.00" fill="#000000">set_py</text>
</a>
</g>
</g>
<!-- Node2&#45;&gt;Node18 -->
<g id="edge17" class="edge">
<title>Node2&#45;&gt;Node18</title>
<path fill="none" stroke="#191970" d="M240.1017,-459.202C242.7063,-412.0185 256.5527,-273.6995 330,-195.5 331.3595,-194.0525 332.8097,-192.6842 334.3336,-191.3908"/>
<polygon fill="#191970" stroke="#191970" points="336.4121,-194.2072 342.4901,-185.5292 332.327,-188.5228 336.4121,-194.2072"/>
</g>
<!-- Node19 -->
<g id="node19" class="node">
<title>Node19</title>
<g id="a_node19"><a xlink:href="../../d0/d6b/classSvtxTrackState__v1.html#a4f7c42e00b1e877982a1bb8a7c2de52d" target="_top" xlink:title="SvtxTrackState_v1::\lset_pz">
<polygon fill="none" stroke="#000000" points="338.5,-102.5 338.5,-134.5 453.5,-134.5 453.5,-102.5 338.5,-102.5"/>
<text text-anchor="start" x="346.5" y="-121.5" font-family="FreeSans" font-size="10.00" fill="#000000">SvtxTrackState_v1::</text>
<text text-anchor="middle" x="396" y="-109.5" font-family="FreeSans" font-size="10.00" fill="#000000">set_pz</text>
</a>
</g>
</g>
<!-- Node2&#45;&gt;Node19 -->
<g id="edge18" class="edge">
<title>Node2&#45;&gt;Node19</title>
<path fill="none" stroke="#191970" d="M241.9591,-459.392C251.3388,-399.8234 286.5381,-192.9473 330,-144.5 331.1873,-143.1765 332.4506,-141.9196 333.7776,-140.7259"/>
<polygon fill="#191970" stroke="#191970" points="336.0942,-143.3632 341.9875,-134.5587 331.8899,-137.7665 336.0942,-143.3632"/>
</g>
<!-- Node20 -->
<g id="node20" class="node">
<title>Node20</title>
<g id="a_node20"><a xlink:href="../../d0/d6b/classSvtxTrackState__v1.html#ac248d0c856879c152a1cfac4e2f678bd" target="_top" xlink:title="SvtxTrackState_v1::\lset_error">
<polygon fill="none" stroke="#000000" points="338.5,-51.5 338.5,-83.5 453.5,-83.5 453.5,-51.5 338.5,-51.5"/>
<text text-anchor="start" x="346.5" y="-70.5" font-family="FreeSans" font-size="10.00" fill="#000000">SvtxTrackState_v1::</text>
<text text-anchor="middle" x="396" y="-58.5" font-family="FreeSans" font-size="10.00" fill="#000000">set_error</text>
</a>
</g>
</g>
<!-- Node2&#45;&gt;Node20 -->
<g id="edge19" class="edge">
<title>Node2&#45;&gt;Node20</title>
<path fill="none" stroke="#191970" d="M241.3465,-459.2228C249.0678,-393.7493 280.6772,-150.4129 330,-93.5 331.1367,-92.1883 332.3484,-90.9423 333.6232,-89.7586"/>
<polygon fill="#191970" stroke="#191970" points="335.766,-92.526 341.5338,-83.6387 331.4828,-86.9894 335.766,-92.526"/>
</g>
<!-- Node24 -->
<g id="node24" class="node">
<title>Node24</title>
<g id="a_node24"><a xlink:href="../../d1/d25/classgenfit_1_1AbsTrackRep.html#ad7b167d43973371da9284279ca352b0c" target="_top" xlink:title="Get the 6D covariance.">
<polygon fill="none" stroke="#000000" points="337.5,-.5 337.5,-32.5 454.5,-32.5 454.5,-.5 337.5,-.5"/>
<text text-anchor="start" x="345.5" y="-19.5" font-family="FreeSans" font-size="10.00" fill="#000000">genfit::AbsTrackRep</text>
<text text-anchor="middle" x="396" y="-7.5" font-family="FreeSans" font-size="10.00" fill="#000000">::get6DCov</text>
</a>
</g>
</g>
<!-- Node2&#45;&gt;Node24 -->
<g id="edge24" class="edge">
<title>Node2&#45;&gt;Node24</title>
<path fill="none" stroke="#191970" d="M240.8712,-459.0324C247.093,-387.9361 274.7845,-107.95 330,-42.5 331.0175,-41.2939 332.0984,-40.1435 333.2339,-39.0461"/>
<polygon fill="#191970" stroke="#191970" points="335.7675,-41.5037 341.4259,-32.5464 331.4167,-36.0201 335.7675,-41.5037"/>
</g>
<!-- Node21 -->
<g id="node21" class="node">
<title>Node21</title>
<g id="a_node21"><a xlink:href="../../d0/d6b/classSvtxTrackState__v1.html#a9fb8d996d591c6e2575893da2c18687e" target="_top" xlink:title="SvtxTrackState_v1::\lcovar_index">
<polygon fill="none" stroke="#000000" points="498,-51.5 498,-83.5 613,-83.5 613,-51.5 498,-51.5"/>
<text text-anchor="start" x="506" y="-70.5" font-family="FreeSans" font-size="10.00" fill="#000000">SvtxTrackState_v1::</text>
<text text-anchor="middle" x="555.5" y="-58.5" font-family="FreeSans" font-size="10.00" fill="#000000">covar_index</text>
</a>
</g>
</g>
<!-- Node20&#45;&gt;Node21 -->
<g id="edge20" class="edge">
<title>Node20&#45;&gt;Node21</title>
<path fill="none" stroke="#191970" d="M453.5832,-67.5C464.5824,-67.5 476.1928,-67.5 487.4824,-67.5"/>
<polygon fill="#191970" stroke="#191970" points="487.7337,-71.0001 497.7336,-67.5 487.7336,-64.0001 487.7337,-71.0001"/>
</g>
<!-- Node22 -->
<g id="node22" class="node">
<title>Node22</title>
<g id="a_node22"><a xlink:href="../../d4/da9/namespaceboost.html#a630945877437d477612e4419562161cc" target="_top" xlink:title="boost::swap">
<polygon fill="none" stroke="#000000" points="649,-57.5 649,-77.5 726,-77.5 726,-57.5 649,-57.5"/>
<text text-anchor="middle" x="687.5" y="-64.5" font-family="FreeSans" font-size="10.00" fill="#000000">boost::swap</text>
</a>
</g>
</g>
<!-- Node21&#45;&gt;Node22 -->
<g id="edge21" class="edge">
<title>Node21&#45;&gt;Node22</title>
<path fill="none" stroke="#191970" d="M613.0131,-67.5C621.513,-67.5 630.2038,-67.5 638.509,-67.5"/>
<polygon fill="#191970" stroke="#191970" points="638.7792,-71.0001 648.7792,-67.5 638.7792,-64.0001 638.7792,-71.0001"/>
</g>
<!-- Node23 -->
<g id="node23" class="node">
<title>Node23</title>
<g id="a_node23"><a xlink:href="../../d1/d96/classboost_1_1array.html#a342ef866ed696b18ce803b5c9aba4b2e" target="_top" xlink:title="boost::array::swap">
<polygon fill="none" stroke="#000000" points="762,-57.5 762,-77.5 872,-77.5 872,-57.5 762,-57.5"/>
<text text-anchor="middle" x="817" y="-64.5" font-family="FreeSans" font-size="10.00" fill="#000000">boost::array::swap</text>
</a>
</g>
</g>
<!-- Node22&#45;&gt;Node23 -->
<g id="edge22" class="edge">
<title>Node22&#45;&gt;Node23</title>
<path fill="none" stroke="#191970" d="M726.0036,-61.2692C734.0418,-60.9335 742.7295,-60.7606 751.4369,-60.7505"/>
<polygon fill="#191970" stroke="#191970" points="751.6084,-64.2515 761.6298,-60.8134 751.6517,-57.2516 751.6084,-64.2515"/>
</g>
<!-- Node23&#45;&gt;Node22 -->
<g id="edge23" class="edge">
<title>Node23&#45;&gt;Node22</title>
<path fill="none" stroke="#191970" d="M761.6298,-74.1866C753.1911,-74.3014 744.5353,-74.2603 736.252,-74.0634"/>
<polygon fill="#191970" stroke="#191970" points="736.112,-70.5571 726.0036,-73.7308 735.8848,-77.5535 736.112,-70.5571"/>
</g>
</g>
</svg>
