<?xml version="1.0" encoding="UTF-8" standalone="no"?>
<!DOCTYPE svg PUBLIC "-//W3C//DTD SVG 1.1//EN"
 "http://www.w3.org/Graphics/SVG/1.1/DTD/svg11.dtd">
<!-- Generated by graphviz version 2.40.1 (20161225.0304)
 -->
<!-- Title: KFParticle/blob/master/KFParticlePerformance/KFMCCounter.h Pages: 1 -->
<svg width="209pt" height="110pt"
 viewBox="0.00 0.00 208.50 110.00" xmlns="http://www.w3.org/2000/svg" xmlns:xlink="http://www.w3.org/1999/xlink">
<g id="graph0" class="graph" transform="scale(1 1) rotate(0) translate(4 106)">
<title>KFParticle/blob/master/KFParticlePerformance/KFMCCounter.h</title>
<!-- Node1 -->
<g id="node1" class="node">
<title>Node1</title>
<polygon fill="#bfbfbf" stroke="#000000" points="39,-57.5 39,-101.5 173,-101.5 173,-57.5 39,-57.5"/>
<text text-anchor="start" x="47" y="-88.5" font-family="FreeSans" font-size="10.00" fill="#000000">KFParticle/blob/master</text>
<text text-anchor="start" x="47" y="-76.5" font-family="FreeSans" font-size="10.00" fill="#000000">/KFParticlePerformance</text>
<text text-anchor="middle" x="106" y="-64.5" font-family="FreeSans" font-size="10.00" fill="#000000">/KFMCCounter.h</text>
</g>
<!-- Node2 -->
<g id="node2" class="node">
<title>Node2</title>
<polygon fill="none" stroke="#bfbfbf" points="0,-.5 0,-20.5 60,-20.5 60,-.5 0,-.5"/>
<text text-anchor="middle" x="30" y="-7.5" font-family="FreeSans" font-size="10.00" fill="#000000">iostream</text>
</g>
<!-- Node1&#45;&gt;Node2 -->
<g id="edge1" class="edge">
<title>Node1&#45;&gt;Node2</title>
<path fill="none" stroke="#191970" d="M81.5348,-57.2882C70.9577,-47.6853 58.7714,-36.6214 48.9054,-27.6641"/>
<polygon fill="#191970" stroke="#191970" points="51.0063,-24.8442 41.2498,-20.7137 46.301,-30.0269 51.0063,-24.8442"/>
</g>
<!-- Node3 -->
<g id="node3" class="node">
<title>Node3</title>
<polygon fill="none" stroke="#bfbfbf" points="78.5,-.5 78.5,-20.5 133.5,-20.5 133.5,-.5 78.5,-.5"/>
<text text-anchor="middle" x="106" y="-7.5" font-family="FreeSans" font-size="10.00" fill="#000000">fstream</text>
</g>
<!-- Node1&#45;&gt;Node3 -->
<g id="edge2" class="edge">
<title>Node1&#45;&gt;Node3</title>
<path fill="none" stroke="#191970" d="M106,-57.2882C106,-48.8377 106,-39.2557 106,-30.9736"/>
<polygon fill="#191970" stroke="#191970" points="109.5001,-30.7136 106,-20.7137 102.5001,-30.7137 109.5001,-30.7136"/>
</g>
<!-- Node4 -->
<g id="node4" class="node">
<title>Node4</title>
<polygon fill="none" stroke="#bfbfbf" points="151.5,-.5 151.5,-20.5 200.5,-20.5 200.5,-.5 151.5,-.5"/>
<text text-anchor="middle" x="176" y="-7.5" font-family="FreeSans" font-size="10.00" fill="#000000">vector</text>
</g>
<!-- Node1&#45;&gt;Node4 -->
<g id="edge3" class="edge">
<title>Node1&#45;&gt;Node4</title>
<path fill="none" stroke="#191970" d="M128.5338,-57.2882C138.1783,-47.7813 149.2757,-36.8426 158.3139,-27.9334"/>
<polygon fill="#191970" stroke="#191970" points="160.9735,-30.2263 165.6383,-20.7137 156.0595,-25.2411 160.9735,-30.2263"/>
</g>
</g>
</svg>
