<?xml version="1.0" encoding="UTF-8" standalone="no"?>
<!DOCTYPE svg PUBLIC "-//W3C//DTD SVG 1.1//EN"
 "http://www.w3.org/Graphics/SVG/1.1/DTD/svg11.dtd">
<!-- Generated by graphviz version 2.40.1 (20161225.0304)
 -->
<!-- Title: KFMCCounter::AddCounter Pages: 1 -->
<svg width="587pt" height="80pt"
 viewBox="0.00 0.00 587.00 80.00" xmlns="http://www.w3.org/2000/svg" xmlns:xlink="http://www.w3.org/1999/xlink">
<g id="graph0" class="graph" transform="scale(1 1) rotate(0) translate(4 76)">
<title>KFMCCounter::AddCounter</title>
<!-- Node1 -->
<g id="node1" class="node">
<title>Node1</title>
<polygon fill="#bfbfbf" stroke="#000000" points="0,-28.5 0,-48.5 152,-48.5 152,-28.5 0,-28.5"/>
<text text-anchor="middle" x="76" y="-35.5" font-family="FreeSans" font-size="10.00" fill="#000000">KFMCCounter::AddCounter</text>
</g>
<!-- Node2 -->
<g id="node2" class="node">
<title>Node2</title>
<g id="a_node2"><a xlink:href="../../dc/d52/classKFPVEfficiencies.html#a6c8fe247dd32832b70f999da9620acb1" target="_top" xlink:title="KFPVEfficiencies::AddCounter">
<polygon fill="none" stroke="#000000" points="188,-51.5 188,-71.5 354,-71.5 354,-51.5 188,-51.5"/>
<text text-anchor="middle" x="271" y="-58.5" font-family="FreeSans" font-size="10.00" fill="#000000">KFPVEfficiencies::AddCounter</text>
</a>
</g>
</g>
<!-- Node1&#45;&gt;Node2 -->
<g id="edge1" class="edge">
<title>Node1&#45;&gt;Node2</title>
<path fill="none" stroke="#191970" d="M162.4164,-48.6927C170.8269,-49.6847 179.3488,-50.6899 187.7274,-51.6781"/>
<polygon fill="#191970" stroke="#191970" points="162.5711,-45.1868 152.2299,-47.4912 161.751,-52.1386 162.5711,-45.1868"/>
</g>
<!-- Node4 -->
<g id="node4" class="node">
<title>Node4</title>
<g id="a_node4"><a xlink:href="../../df/d77/classKFPartEfficiencies.html#ad91a958383aeb2750786fc5c5c4c9d22" target="_top" xlink:title="KFPartEfficiencies\l::AddCounter">
<polygon fill="none" stroke="#000000" points="218,-.5 218,-32.5 324,-32.5 324,-.5 218,-.5"/>
<text text-anchor="start" x="226" y="-19.5" font-family="FreeSans" font-size="10.00" fill="#000000">KFPartEfficiencies</text>
<text text-anchor="middle" x="271" y="-7.5" font-family="FreeSans" font-size="10.00" fill="#000000">::AddCounter</text>
</a>
</g>
</g>
<!-- Node1&#45;&gt;Node4 -->
<g id="edge3" class="edge">
<title>Node1&#45;&gt;Node4</title>
<path fill="none" stroke="#191970" d="M162.3261,-28.7606C181.184,-26.6331 200.607,-24.4418 217.7229,-22.5107"/>
<polygon fill="#191970" stroke="#191970" points="161.7744,-25.3006 152.2299,-29.8997 162.5593,-32.2565 161.7744,-25.3006"/>
</g>
<!-- Node3 -->
<g id="node3" class="node">
<title>Node3</title>
<g id="a_node3"><a xlink:href="../../dc/d52/classKFPVEfficiencies.html#ad1f9fd7314bdd15e4ad695326b69f587" target="_top" xlink:title="KFPVEfficiencies::KFPVEfficiencies">
<polygon fill="none" stroke="#000000" points="390,-51.5 390,-71.5 579,-71.5 579,-51.5 390,-51.5"/>
<text text-anchor="middle" x="484.5" y="-58.5" font-family="FreeSans" font-size="10.00" fill="#000000">KFPVEfficiencies::KFPVEfficiencies</text>
</a>
</g>
</g>
<!-- Node2&#45;&gt;Node3 -->
<g id="edge2" class="edge">
<title>Node2&#45;&gt;Node3</title>
<path fill="none" stroke="#191970" d="M364.3948,-61.5C372.8468,-61.5 381.4123,-61.5 389.8748,-61.5"/>
<polygon fill="#191970" stroke="#191970" points="364.156,-58.0001 354.156,-61.5 364.156,-65.0001 364.156,-58.0001"/>
</g>
<!-- Node5 -->
<g id="node5" class="node">
<title>Node5</title>
<g id="a_node5"><a xlink:href="../../df/d77/classKFPartEfficiencies.html#a0559adf38115aa40fc8fa96a7d2b2abd" target="_top" xlink:title="The default constructor. Defines the list of decays to be analysed and their properties. Please, see the code for indexing scheme.">
<polygon fill="none" stroke="#000000" points="428,-.5 428,-32.5 541,-32.5 541,-.5 428,-.5"/>
<text text-anchor="start" x="436" y="-19.5" font-family="FreeSans" font-size="10.00" fill="#000000">KFPartEfficiencies</text>
<text text-anchor="middle" x="484.5" y="-7.5" font-family="FreeSans" font-size="10.00" fill="#000000">::KFPartEfficiencies</text>
</a>
</g>
</g>
<!-- Node4&#45;&gt;Node5 -->
<g id="edge4" class="edge">
<title>Node4&#45;&gt;Node5</title>
<path fill="none" stroke="#191970" d="M334.3172,-16.5C364.0383,-16.5 399.1746,-16.5 427.9863,-16.5"/>
<polygon fill="#191970" stroke="#191970" points="334.0496,-13.0001 324.0496,-16.5 334.0496,-20.0001 334.0496,-13.0001"/>
</g>
</g>
</svg>
