<?xml version="1.0" encoding="UTF-8" standalone="no"?>
<!DOCTYPE svg PUBLIC "-//W3C//DTD SVG 1.1//EN"
 "http://www.w3.org/Graphics/SVG/1.1/DTD/svg11.dtd">
<!-- Generated by graphviz version 2.40.1 (20161225.0304)
 -->
<!-- Title: KFParticleBaseSIMD::SetNoDecayLength Pages: 1 -->
<svg width="612pt" height="41pt"
 viewBox="0.00 0.00 612.00 41.00" xmlns="http://www.w3.org/2000/svg" xmlns:xlink="http://www.w3.org/1999/xlink">
<g id="graph0" class="graph" transform="scale(1 1) rotate(0) translate(4 37)">
<title>KFParticleBaseSIMD::SetNoDecayLength</title>
<!-- Node1 -->
<g id="node1" class="node">
<title>Node1</title>
<polygon fill="#bfbfbf" stroke="#000000" points="0,-.5 0,-32.5 119,-32.5 119,-.5 0,-.5"/>
<text text-anchor="start" x="8" y="-19.5" font-family="FreeSans" font-size="10.00" fill="#000000">KFParticleBaseSIMD</text>
<text text-anchor="middle" x="59.5" y="-7.5" font-family="FreeSans" font-size="10.00" fill="#000000">::SetNoDecayLength</text>
</g>
<!-- Node2 -->
<g id="node2" class="node">
<title>Node2</title>
<g id="a_node2"><a xlink:href="../../d2/dbb/classKFParticleBaseSIMD.html#a1163dac578cd40f360f1778ceb880035" target="_top" xlink:title="KFParticleBaseSIMD\l::TransportToDecayVertex">
<polygon fill="none" stroke="#000000" points="155,-.5 155,-32.5 300,-32.5 300,-.5 155,-.5"/>
<text text-anchor="start" x="163" y="-19.5" font-family="FreeSans" font-size="10.00" fill="#000000">KFParticleBaseSIMD</text>
<text text-anchor="middle" x="227.5" y="-7.5" font-family="FreeSans" font-size="10.00" fill="#000000">::TransportToDecayVertex</text>
</a>
</g>
</g>
<!-- Node1&#45;&gt;Node2 -->
<g id="edge1" class="edge">
<title>Node1&#45;&gt;Node2</title>
<path fill="none" stroke="#191970" d="M119.2035,-16.5C127.4736,-16.5 136.0874,-16.5 144.6847,-16.5"/>
<polygon fill="#191970" stroke="#191970" points="144.7479,-20.0001 154.7479,-16.5 144.7479,-13.0001 144.7479,-20.0001"/>
</g>
<!-- Node3 -->
<g id="node3" class="node">
<title>Node3</title>
<g id="a_node3"><a xlink:href="../../d2/dbb/classKFParticleBaseSIMD.html#ae4bd5b9ffbeb8b5f9595cf6d34592c31" target="_top" xlink:title="KFParticleBaseSIMD\l::TransportToDS">
<polygon fill="none" stroke="#000000" points="336,-.5 336,-32.5 452,-32.5 452,-.5 336,-.5"/>
<text text-anchor="start" x="344" y="-19.5" font-family="FreeSans" font-size="10.00" fill="#000000">KFParticleBaseSIMD</text>
<text text-anchor="middle" x="394" y="-7.5" font-family="FreeSans" font-size="10.00" fill="#000000">::TransportToDS</text>
</a>
</g>
</g>
<!-- Node2&#45;&gt;Node3 -->
<g id="edge2" class="edge">
<title>Node2&#45;&gt;Node3</title>
<path fill="none" stroke="#191970" d="M300.045,-16.5C308.5803,-16.5 317.2683,-16.5 325.7421,-16.5"/>
<polygon fill="#191970" stroke="#191970" points="325.9472,-20.0001 335.9472,-16.5 325.9471,-13.0001 325.9472,-20.0001"/>
</g>
<!-- Node4 -->
<g id="node4" class="node">
<title>Node4</title>
<g id="a_node4"><a xlink:href="../../d2/dbb/classKFParticleBaseSIMD.html#a721cd8da62bbf13e53583c9acff31945" target="_top" xlink:title="KFParticleBaseSIMD\l::Transport">
<polygon fill="none" stroke="#000000" points="488,-.5 488,-32.5 604,-32.5 604,-.5 488,-.5"/>
<text text-anchor="start" x="496" y="-19.5" font-family="FreeSans" font-size="10.00" fill="#000000">KFParticleBaseSIMD</text>
<text text-anchor="middle" x="546" y="-7.5" font-family="FreeSans" font-size="10.00" fill="#000000">::Transport</text>
</a>
</g>
</g>
<!-- Node3&#45;&gt;Node4 -->
<g id="edge3" class="edge">
<title>Node3&#45;&gt;Node4</title>
<path fill="none" stroke="#191970" d="M452.3325,-16.5C460.6057,-16.5 469.1747,-16.5 477.617,-16.5"/>
<polygon fill="#191970" stroke="#191970" points="477.8237,-20.0001 487.8236,-16.5 477.8236,-13.0001 477.8237,-20.0001"/>
</g>
</g>
</svg>
