<?xml version="1.0" encoding="UTF-8" standalone="no"?>
<!DOCTYPE svg PUBLIC "-//W3C//DTD SVG 1.1//EN"
 "http://www.w3.org/Graphics/SVG/1.1/DTD/svg11.dtd">
<!-- Generated by graphviz version 2.40.1 (20161225.0304)
 -->
<!-- Title: KFParticleBaseSIMD::TransportToProductionVertex Pages: 1 -->
<svg width="479pt" height="41pt"
 viewBox="0.00 0.00 479.00 41.00" xmlns="http://www.w3.org/2000/svg" xmlns:xlink="http://www.w3.org/1999/xlink">
<g id="graph0" class="graph" transform="scale(1 1) rotate(0) translate(4 37)">
<title>KFParticleBaseSIMD::TransportToProductionVertex</title>
<!-- Node1 -->
<g id="node1" class="node">
<title>Node1</title>
<polygon fill="#bfbfbf" stroke="#000000" points="0,-.5 0,-32.5 167,-32.5 167,-.5 0,-.5"/>
<text text-anchor="start" x="8" y="-19.5" font-family="FreeSans" font-size="10.00" fill="#000000">KFParticleBaseSIMD</text>
<text text-anchor="middle" x="83.5" y="-7.5" font-family="FreeSans" font-size="10.00" fill="#000000">::TransportToProductionVertex</text>
</g>
<!-- Node2 -->
<g id="node2" class="node">
<title>Node2</title>
<g id="a_node2"><a xlink:href="../../d2/dbb/classKFParticleBaseSIMD.html#ae4bd5b9ffbeb8b5f9595cf6d34592c31" target="_top" xlink:title="KFParticleBaseSIMD\l::TransportToDS">
<polygon fill="none" stroke="#000000" points="203,-.5 203,-32.5 319,-32.5 319,-.5 203,-.5"/>
<text text-anchor="start" x="211" y="-19.5" font-family="FreeSans" font-size="10.00" fill="#000000">KFParticleBaseSIMD</text>
<text text-anchor="middle" x="261" y="-7.5" font-family="FreeSans" font-size="10.00" fill="#000000">::TransportToDS</text>
</a>
</g>
</g>
<!-- Node1&#45;&gt;Node2 -->
<g id="edge1" class="edge">
<title>Node1&#45;&gt;Node2</title>
<path fill="none" stroke="#191970" d="M167.0524,-16.5C175.6825,-16.5 184.3783,-16.5 192.8119,-16.5"/>
<polygon fill="#191970" stroke="#191970" points="192.9471,-20.0001 202.947,-16.5 192.947,-13.0001 192.9471,-20.0001"/>
</g>
<!-- Node3 -->
<g id="node3" class="node">
<title>Node3</title>
<g id="a_node3"><a xlink:href="../../d2/dbb/classKFParticleBaseSIMD.html#a721cd8da62bbf13e53583c9acff31945" target="_top" xlink:title="KFParticleBaseSIMD\l::Transport">
<polygon fill="none" stroke="#000000" points="355,-.5 355,-32.5 471,-32.5 471,-.5 355,-.5"/>
<text text-anchor="start" x="363" y="-19.5" font-family="FreeSans" font-size="10.00" fill="#000000">KFParticleBaseSIMD</text>
<text text-anchor="middle" x="413" y="-7.5" font-family="FreeSans" font-size="10.00" fill="#000000">::Transport</text>
</a>
</g>
</g>
<!-- Node2&#45;&gt;Node3 -->
<g id="edge2" class="edge">
<title>Node2&#45;&gt;Node3</title>
<path fill="none" stroke="#191970" d="M319.3325,-16.5C327.6057,-16.5 336.1747,-16.5 344.617,-16.5"/>
<polygon fill="#191970" stroke="#191970" points="344.8237,-20.0001 354.8236,-16.5 344.8236,-13.0001 344.8237,-20.0001"/>
</g>
</g>
</svg>
