<?xml version="1.0" encoding="UTF-8" standalone="no"?>
<!DOCTYPE svg PUBLIC "-//W3C//DTD SVG 1.1//EN"
 "http://www.w3.org/Graphics/SVG/1.1/DTD/svg11.dtd">
<!-- Generated by graphviz version 2.40.1 (20161225.0304)
 -->
<!-- Title: KFParticleBaseSIMD::GetDStoPointBy Pages: 1 -->
<svg width="1513pt" height="252pt"
 viewBox="0.00 0.00 1513.00 252.00" xmlns="http://www.w3.org/2000/svg" xmlns:xlink="http://www.w3.org/1999/xlink">
<g id="graph0" class="graph" transform="scale(1 1) rotate(0) translate(4 248)">
<title>KFParticleBaseSIMD::GetDStoPointBy</title>
<!-- Node1 -->
<g id="node1" class="node">
<title>Node1</title>
<polygon fill="#bfbfbf" stroke="#000000" points="0,-160.5 0,-192.5 116,-192.5 116,-160.5 0,-160.5"/>
<text text-anchor="start" x="8" y="-179.5" font-family="FreeSans" font-size="10.00" fill="#000000">KFParticleBaseSIMD</text>
<text text-anchor="middle" x="58" y="-167.5" font-family="FreeSans" font-size="10.00" fill="#000000">::GetDStoPointBy</text>
</g>
<!-- Node2 -->
<g id="node2" class="node">
<title>Node2</title>
<g id="a_node2"><a xlink:href="../../d2/dbb/classKFParticleBaseSIMD.html#a1dbb5988ec5d1507a2b6d229cf761eb4" target="_top" xlink:title="KFParticleBaseSIMD\l::GetDStoPointCBM">
<polygon fill="none" stroke="#000000" points="152,-160.5 152,-192.5 268,-192.5 268,-160.5 152,-160.5"/>
<text text-anchor="start" x="160" y="-179.5" font-family="FreeSans" font-size="10.00" fill="#000000">KFParticleBaseSIMD</text>
<text text-anchor="middle" x="210" y="-167.5" font-family="FreeSans" font-size="10.00" fill="#000000">::GetDStoPointCBM</text>
</a>
</g>
</g>
<!-- Node1&#45;&gt;Node2 -->
<g id="edge1" class="edge">
<title>Node1&#45;&gt;Node2</title>
<path fill="none" stroke="#191970" d="M126.5423,-176.5C134.9862,-176.5 143.5541,-176.5 151.8236,-176.5"/>
<polygon fill="#191970" stroke="#191970" points="126.3325,-173.0001 116.3325,-176.5 126.3324,-180.0001 126.3325,-173.0001"/>
</g>
<!-- Node3 -->
<g id="node3" class="node">
<title>Node3</title>
<g id="a_node3"><a xlink:href="../../db/dcc/classKFParticleSIMD.html#adf768a35209bb2f98adf8a12e21a09d4" target="_top" xlink:title="KFParticleSIMD::GetDStoPoint">
<polygon fill="none" stroke="#000000" points="304,-166.5 304,-186.5 470,-186.5 470,-166.5 304,-166.5"/>
<text text-anchor="middle" x="387" y="-173.5" font-family="FreeSans" font-size="10.00" fill="#000000">KFParticleSIMD::GetDStoPoint</text>
</a>
</g>
</g>
<!-- Node2&#45;&gt;Node3 -->
<g id="edge2" class="edge">
<title>Node2&#45;&gt;Node3</title>
<path fill="none" stroke="#191970" d="M278.4815,-176.5C286.8274,-176.5 295.4241,-176.5 303.9529,-176.5"/>
<polygon fill="#191970" stroke="#191970" points="278.447,-173.0001 268.447,-176.5 278.4469,-180.0001 278.447,-173.0001"/>
</g>
<!-- Node4 -->
<g id="node4" class="node">
<title>Node4</title>
<g id="a_node4"><a xlink:href="../../db/dcc/classKFParticleSIMD.html#a2ebfe06b454da6d2b7c5d0bfef26e9ca" target="_top" xlink:title="KFParticleSIMD::GetDistance\lFromVertexXY">
<polygon fill="none" stroke="#000000" points="508,-211.5 508,-243.5 668,-243.5 668,-211.5 508,-211.5"/>
<text text-anchor="start" x="516" y="-230.5" font-family="FreeSans" font-size="10.00" fill="#000000">KFParticleSIMD::GetDistance</text>
<text text-anchor="middle" x="588" y="-218.5" font-family="FreeSans" font-size="10.00" fill="#000000">FromVertexXY</text>
</a>
</g>
</g>
<!-- Node3&#45;&gt;Node4 -->
<g id="edge3" class="edge">
<title>Node3&#45;&gt;Node4</title>
<path fill="none" stroke="#191970" d="M436.5609,-189.0752C463.1473,-195.8209 496.199,-204.2072 524.6351,-211.4223"/>
<polygon fill="#191970" stroke="#191970" points="437.2648,-185.6429 426.7111,-186.576 435.5432,-192.4279 437.2648,-185.6429"/>
</g>
<!-- Node5 -->
<g id="node5" class="node">
<title>Node5</title>
<g id="a_node5"><a xlink:href="../../db/dcc/classKFParticleSIMD.html#a0007ac45e27ad78d3481c143dd3d6dcf" target="_top" xlink:title="KFParticleSIMD::GetDeviation\lFromVertexXY">
<polygon fill="none" stroke="#000000" points="506,-160.5 506,-192.5 670,-192.5 670,-160.5 506,-160.5"/>
<text text-anchor="start" x="514" y="-179.5" font-family="FreeSans" font-size="10.00" fill="#000000">KFParticleSIMD::GetDeviation</text>
<text text-anchor="middle" x="588" y="-167.5" font-family="FreeSans" font-size="10.00" fill="#000000">FromVertexXY</text>
</a>
</g>
</g>
<!-- Node3&#45;&gt;Node5 -->
<g id="edge4" class="edge">
<title>Node3&#45;&gt;Node5</title>
<path fill="none" stroke="#191970" d="M480.4795,-176.5C488.9429,-176.5 497.473,-176.5 505.8283,-176.5"/>
<polygon fill="#191970" stroke="#191970" points="480.2053,-173.0001 470.2053,-176.5 480.2053,-180.0001 480.2053,-173.0001"/>
</g>
<!-- Node7 -->
<g id="node7" class="node">
<title>Node7</title>
<g id="a_node7"><a xlink:href="../../db/dcc/classKFParticleSIMD.html#ac4c896519f2acc22953b5b943bc8e08a" target="_top" xlink:title="KFParticleSIMD::Transport\lToPoint">
<polygon fill="none" stroke="#000000" points="515,-90.5 515,-122.5 661,-122.5 661,-90.5 515,-90.5"/>
<text text-anchor="start" x="523" y="-109.5" font-family="FreeSans" font-size="10.00" fill="#000000">KFParticleSIMD::Transport</text>
<text text-anchor="middle" x="588" y="-97.5" font-family="FreeSans" font-size="10.00" fill="#000000">ToPoint</text>
</a>
</g>
</g>
<!-- Node3&#45;&gt;Node7 -->
<g id="edge6" class="edge">
<title>Node3&#45;&gt;Node7</title>
<path fill="none" stroke="#191970" d="M425.5824,-163.0633C458.7294,-151.5196 506.5999,-134.8483 541.786,-122.5944"/>
<polygon fill="#191970" stroke="#191970" points="424.091,-159.8765 415.7984,-166.4707 426.3932,-166.4871 424.091,-159.8765"/>
</g>
<!-- Node6 -->
<g id="node6" class="node">
<title>Node6</title>
<g id="a_node6"><a xlink:href="../../db/dcc/classKFParticleSIMD.html#a1b524c1e7e92bcb25417e072198676da" target="_top" xlink:title="KFParticleSIMD::GetDeviation\lFromVertexXY">
<polygon fill="none" stroke="#000000" points="706,-180.5 706,-212.5 870,-212.5 870,-180.5 706,-180.5"/>
<text text-anchor="start" x="714" y="-199.5" font-family="FreeSans" font-size="10.00" fill="#000000">KFParticleSIMD::GetDeviation</text>
<text text-anchor="middle" x="788" y="-187.5" font-family="FreeSans" font-size="10.00" fill="#000000">FromVertexXY</text>
</a>
</g>
</g>
<!-- Node5&#45;&gt;Node6 -->
<g id="edge5" class="edge">
<title>Node5&#45;&gt;Node6</title>
<path fill="none" stroke="#191970" d="M680.1874,-185.7187C688.7264,-186.5726 697.3418,-187.4342 705.7826,-188.2783"/>
<polygon fill="#191970" stroke="#191970" points="680.5121,-182.2338 670.2135,-184.7213 679.8155,-189.1991 680.5121,-182.2338"/>
</g>
<!-- Node8 -->
<g id="node8" class="node">
<title>Node8</title>
<g id="a_node8"><a xlink:href="../../d2/d3d/classKFParticleFinder.html#a370264d09a6bfbb50da1113abd0db15a" target="_top" xlink:title="KFParticleFinder::ExtrapolateToPV">
<polygon fill="none" stroke="#000000" points="906,-141.5 906,-161.5 1092,-161.5 1092,-141.5 906,-141.5"/>
<text text-anchor="middle" x="999" y="-148.5" font-family="FreeSans" font-size="10.00" fill="#000000">KFParticleFinder::ExtrapolateToPV</text>
</a>
</g>
</g>
<!-- Node7&#45;&gt;Node8 -->
<g id="edge7" class="edge">
<title>Node7&#45;&gt;Node8</title>
<path fill="none" stroke="#191970" d="M662.1804,-124.6453C676.6418,-127.6714 691.7402,-130.4786 706,-132.5 772.4947,-141.9258 848.1515,-146.6821 905.9278,-149.0786"/>
<polygon fill="#191970" stroke="#191970" points="662.8003,-121.1987 652.2885,-122.5222 661.3314,-128.0428 662.8003,-121.1987"/>
</g>
<!-- Node11 -->
<g id="node11" class="node">
<title>Node11</title>
<g id="a_node11"><a xlink:href="../../d2/d3d/classKFParticleFinder.html#a845f4b9e798f34dad97691ddd0df6b07" target="_top" xlink:title="KFParticleFinder::Construct\lTrackV0Cand">
<polygon fill="none" stroke="#000000" points="711.5,-90.5 711.5,-122.5 864.5,-122.5 864.5,-90.5 711.5,-90.5"/>
<text text-anchor="start" x="719.5" y="-109.5" font-family="FreeSans" font-size="10.00" fill="#000000">KFParticleFinder::Construct</text>
<text text-anchor="middle" x="788" y="-97.5" font-family="FreeSans" font-size="10.00" fill="#000000">TrackV0Cand</text>
</a>
</g>
</g>
<!-- Node7&#45;&gt;Node11 -->
<g id="edge10" class="edge">
<title>Node7&#45;&gt;Node11</title>
<path fill="none" stroke="#191970" d="M671.1624,-106.5C684.508,-106.5 698.2656,-106.5 711.4471,-106.5"/>
<polygon fill="#191970" stroke="#191970" points="671.0536,-103.0001 661.0536,-106.5 671.0535,-110.0001 671.0536,-103.0001"/>
</g>
<!-- Node13 -->
<g id="node13" class="node">
<title>Node13</title>
<g id="a_node13"><a xlink:href="../../db/d6d/classKFParticleTopoReconstructor.html#a6902971d3ad7442052bf4b0195b08115" target="_top" xlink:title="KFParticleTopoReconstructor\l::TransportPVTracksToPrimVertex">
<polygon fill="none" stroke="#000000" points="1128,-45.5 1128,-77.5 1309,-77.5 1309,-45.5 1128,-45.5"/>
<text text-anchor="start" x="1136" y="-64.5" font-family="FreeSans" font-size="10.00" fill="#000000">KFParticleTopoReconstructor</text>
<text text-anchor="middle" x="1218.5" y="-52.5" font-family="FreeSans" font-size="10.00" fill="#000000">::TransportPVTracksToPrimVertex</text>
</a>
</g>
</g>
<!-- Node7&#45;&gt;Node13 -->
<g id="edge13" class="edge">
<title>Node7&#45;&gt;Node13</title>
<path fill="none" stroke="#191970" d="M660.8554,-88.3039C675.708,-85.2007 691.2909,-82.3776 706,-80.5 852.8322,-61.7566 1025.0957,-59.3446 1127.8347,-59.9572"/>
<polygon fill="#191970" stroke="#191970" points="659.7483,-84.962 650.7093,-90.4889 661.222,-91.8052 659.7483,-84.962"/>
</g>
<!-- Node14 -->
<g id="node14" class="node">
<title>Node14</title>
<g id="a_node14"><a xlink:href="../../db/d6d/classKFParticleTopoReconstructor.html#ab724f4c1794600a8405b606d727b97fb" target="_top" xlink:title="KFParticleTopoReconstructor\l::GetChiToPrimVertex">
<polygon fill="none" stroke="#000000" points="919,-.5 919,-32.5 1079,-32.5 1079,-.5 919,-.5"/>
<text text-anchor="start" x="927" y="-19.5" font-family="FreeSans" font-size="10.00" fill="#000000">KFParticleTopoReconstructor</text>
<text text-anchor="middle" x="999" y="-7.5" font-family="FreeSans" font-size="10.00" fill="#000000">::GetChiToPrimVertex</text>
</a>
</g>
</g>
<!-- Node7&#45;&gt;Node14 -->
<g id="edge15" class="edge">
<title>Node7&#45;&gt;Node14</title>
<path fill="none" stroke="#191970" d="M622.2391,-85.2552C645.0983,-72.1289 676.3071,-56.1841 706,-47.5 776.0836,-27.0031 859.1121,-19.726 918.8573,-17.2988"/>
<polygon fill="#191970" stroke="#191970" points="620.4639,-82.2387 613.6004,-90.3099 623.999,-88.2805 620.4639,-82.2387"/>
</g>
<!-- Node9 -->
<g id="node9" class="node">
<title>Node9</title>
<g id="a_node9"><a xlink:href="../../d2/d3d/classKFParticleFinder.html#a3ad831d1b28cce4689501e369f561926" target="_top" xlink:title="KFParticleFinder::FindParticles">
<polygon fill="none" stroke="#000000" points="1135,-96.5 1135,-116.5 1302,-116.5 1302,-96.5 1135,-96.5"/>
<text text-anchor="middle" x="1218.5" y="-103.5" font-family="FreeSans" font-size="10.00" fill="#000000">KFParticleFinder::FindParticles</text>
</a>
</g>
</g>
<!-- Node8&#45;&gt;Node9 -->
<g id="edge8" class="edge">
<title>Node8&#45;&gt;Node9</title>
<path fill="none" stroke="#191970" d="M1058.3504,-139.3856C1069.5297,-137.1006 1081.1231,-134.7289 1092,-132.5 1117.6984,-127.2339 1146.3299,-121.3506 1169.8456,-116.5141"/>
<polygon fill="#191970" stroke="#191970" points="1057.3293,-136.0218 1048.2325,-141.4531 1058.7308,-142.8801 1057.3293,-136.0218"/>
</g>
<!-- Node10 -->
<g id="node10" class="node">
<title>Node10</title>
<g id="a_node10"><a xlink:href="../../db/d6d/classKFParticleTopoReconstructor.html#a3013eefd4e16b74ae39c531678623d08" target="_top" xlink:title="KFParticleTopoReconstructor\l::ReconstructParticles">
<polygon fill="none" stroke="#000000" points="1345,-45.5 1345,-77.5 1505,-77.5 1505,-45.5 1345,-45.5"/>
<text text-anchor="start" x="1353" y="-64.5" font-family="FreeSans" font-size="10.00" fill="#000000">KFParticleTopoReconstructor</text>
<text text-anchor="middle" x="1425" y="-52.5" font-family="FreeSans" font-size="10.00" fill="#000000">::ReconstructParticles</text>
</a>
</g>
</g>
<!-- Node9&#45;&gt;Node10 -->
<g id="edge9" class="edge">
<title>Node9&#45;&gt;Node10</title>
<path fill="none" stroke="#191970" d="M1274.4692,-94.3033C1298.1837,-89.1355 1326.1425,-83.0428 1351.4876,-77.5196"/>
<polygon fill="#191970" stroke="#191970" points="1273.6111,-90.9081 1264.5856,-96.4571 1275.1016,-97.7476 1273.6111,-90.9081"/>
</g>
<!-- Node12 -->
<g id="node12" class="node">
<title>Node12</title>
<g id="a_node12"><a xlink:href="../../d2/d3d/classKFParticleFinder.html#a2073bafab2ee9126f3fbf0bef15f68e3" target="_top" xlink:title="KFParticleFinder::FindTrack\lV0Decay">
<polygon fill="none" stroke="#000000" points="923.5,-90.5 923.5,-122.5 1074.5,-122.5 1074.5,-90.5 923.5,-90.5"/>
<text text-anchor="start" x="931.5" y="-109.5" font-family="FreeSans" font-size="10.00" fill="#000000">KFParticleFinder::FindTrack</text>
<text text-anchor="middle" x="999" y="-97.5" font-family="FreeSans" font-size="10.00" fill="#000000">V0Decay</text>
</a>
</g>
</g>
<!-- Node11&#45;&gt;Node12 -->
<g id="edge11" class="edge">
<title>Node11&#45;&gt;Node12</title>
<path fill="none" stroke="#191970" d="M875.1783,-106.5C891.1641,-106.5 907.7289,-106.5 923.3434,-106.5"/>
<polygon fill="#191970" stroke="#191970" points="874.7728,-103.0001 864.7727,-106.5 874.7727,-110.0001 874.7728,-103.0001"/>
</g>
<!-- Node12&#45;&gt;Node9 -->
<g id="edge12" class="edge">
<title>Node12&#45;&gt;Node9</title>
<path fill="none" stroke="#191970" d="M1084.7057,-106.5C1101.2146,-106.5 1118.4869,-106.5 1134.927,-106.5"/>
<polygon fill="#191970" stroke="#191970" points="1084.5395,-103.0001 1074.5394,-106.5 1084.5394,-110.0001 1084.5395,-103.0001"/>
</g>
<!-- Node13&#45;&gt;Node10 -->
<g id="edge14" class="edge">
<title>Node13&#45;&gt;Node10</title>
<path fill="none" stroke="#191970" d="M1319.1716,-61.5C1327.795,-61.5 1336.4425,-61.5 1344.8731,-61.5"/>
<polygon fill="#191970" stroke="#191970" points="1319.0739,-58.0001 1309.0739,-61.5 1319.0739,-65.0001 1319.0739,-58.0001"/>
</g>
<!-- Node14&#45;&gt;Node10 -->
<g id="edge16" class="edge">
<title>Node14&#45;&gt;Node10</title>
<path fill="none" stroke="#191970" d="M1089.4678,-18.2495C1151.5006,-20.3766 1235.5454,-25.0847 1309,-35.5 1326.369,-37.9628 1344.9923,-41.6565 1362.1222,-45.4922"/>
<polygon fill="#191970" stroke="#191970" points="1089.427,-14.7464 1079.3179,-17.9177 1089.1982,-21.7427 1089.427,-14.7464"/>
</g>
</g>
</svg>
