<?xml version="1.0" encoding="UTF-8" standalone="no"?>
<!DOCTYPE svg PUBLIC "-//W3C//DTD SVG 1.1//EN"
 "http://www.w3.org/Graphics/SVG/1.1/DTD/svg11.dtd">
<!-- Generated by graphviz version 2.40.1 (20161225.0304)
 -->
<!-- Title: KFParticleBaseSIMD::AddDaughterId Pages: 1 -->
<svg width="1487pt" height="284pt"
 viewBox="0.00 0.00 1487.00 284.00" xmlns="http://www.w3.org/2000/svg" xmlns:xlink="http://www.w3.org/1999/xlink">
<g id="graph0" class="graph" transform="scale(1 1) rotate(0) translate(4 280)">
<title>KFParticleBaseSIMD::AddDaughterId</title>
<!-- Node1 -->
<g id="node1" class="node">
<title>Node1</title>
<polygon fill="#bfbfbf" stroke="#000000" points="0,-45.5 0,-77.5 116,-77.5 116,-45.5 0,-45.5"/>
<text text-anchor="start" x="8" y="-64.5" font-family="FreeSans" font-size="10.00" fill="#000000">KFParticleBaseSIMD</text>
<text text-anchor="middle" x="58" y="-52.5" font-family="FreeSans" font-size="10.00" fill="#000000">::AddDaughterId</text>
</g>
<!-- Node2 -->
<g id="node2" class="node">
<title>Node2</title>
<g id="a_node2"><a xlink:href="../../d2/dbb/classKFParticleBaseSIMD.html#a2ee0cc29dedac6767db45ae197a0fe35" target="_top" xlink:title="KFParticleBaseSIMD\l::AddDaughter">
<polygon fill="none" stroke="#000000" points="152,-115.5 152,-147.5 268,-147.5 268,-115.5 152,-115.5"/>
<text text-anchor="start" x="160" y="-134.5" font-family="FreeSans" font-size="10.00" fill="#000000">KFParticleBaseSIMD</text>
<text text-anchor="middle" x="210" y="-122.5" font-family="FreeSans" font-size="10.00" fill="#000000">::AddDaughter</text>
</a>
</g>
</g>
<!-- Node1&#45;&gt;Node2 -->
<g id="edge1" class="edge">
<title>Node1&#45;&gt;Node2</title>
<path fill="none" stroke="#191970" d="M102.1526,-81.8335C125.3422,-92.5129 153.3613,-105.4164 175.0275,-115.3943"/>
<polygon fill="#191970" stroke="#191970" points="103.419,-78.5634 92.8719,-77.5594 100.4909,-84.9216 103.419,-78.5634"/>
</g>
<!-- Node14 -->
<g id="node14" class="node">
<title>Node14</title>
<g id="a_node14"><a xlink:href="../../d2/d3d/classKFParticleFinder.html#a76e093479fb04d0360e1cca0e6aa5d01" target="_top" xlink:title="KFParticleFinder::Neutral\lDaughterDecay">
<polygon fill="none" stroke="#000000" points="712.5,-45.5 712.5,-77.5 852.5,-77.5 852.5,-45.5 712.5,-45.5"/>
<text text-anchor="start" x="720.5" y="-64.5" font-family="FreeSans" font-size="10.00" fill="#000000">KFParticleFinder::Neutral</text>
<text text-anchor="middle" x="782.5" y="-52.5" font-family="FreeSans" font-size="10.00" fill="#000000">DaughterDecay</text>
</a>
</g>
</g>
<!-- Node1&#45;&gt;Node14 -->
<g id="edge20" class="edge">
<title>Node1&#45;&gt;Node14</title>
<path fill="none" stroke="#191970" d="M126.4707,-61.5C264.1641,-61.5 573.2681,-61.5 712.3459,-61.5"/>
<polygon fill="#191970" stroke="#191970" points="126.0642,-58.0001 116.0642,-61.5 126.0641,-65.0001 126.0642,-58.0001"/>
</g>
<!-- Node17 -->
<g id="node17" class="node">
<title>Node17</title>
<g id="a_node17"><a xlink:href="../../d2/dbb/classKFParticleBaseSIMD.html#afce83e9f433c1ccc698197ae2ffe36d4" target="_top" xlink:title="KFParticleBaseSIMD\l::SubtractDaughter">
<polygon fill="none" stroke="#000000" points="152,-.5 152,-32.5 268,-32.5 268,-.5 152,-.5"/>
<text text-anchor="start" x="160" y="-19.5" font-family="FreeSans" font-size="10.00" fill="#000000">KFParticleBaseSIMD</text>
<text text-anchor="middle" x="210" y="-7.5" font-family="FreeSans" font-size="10.00" fill="#000000">::SubtractDaughter</text>
</a>
</g>
</g>
<!-- Node1&#45;&gt;Node17 -->
<g id="edge21" class="edge">
<title>Node1&#45;&gt;Node17</title>
<path fill="none" stroke="#191970" d="M122.1991,-42.4937C133.4295,-39.1689 145.0122,-35.7398 155.934,-32.5064"/>
<polygon fill="#191970" stroke="#191970" points="121.0412,-39.1862 112.4462,-45.3811 123.0284,-45.8983 121.0412,-39.1862"/>
</g>
<!-- Node3 -->
<g id="node3" class="node">
<title>Node3</title>
<g id="a_node3"><a xlink:href="../../db/dcc/classKFParticleSIMD.html#afd134dee761fd11c9f22c05a0a5262ca" target="_top" xlink:title="KFParticleSIMD::AddDaughter">
<polygon fill="none" stroke="#000000" points="304,-192.5 304,-212.5 470,-212.5 470,-192.5 304,-192.5"/>
<text text-anchor="middle" x="387" y="-199.5" font-family="FreeSans" font-size="10.00" fill="#000000">KFParticleSIMD::AddDaughter</text>
</a>
</g>
</g>
<!-- Node2&#45;&gt;Node3 -->
<g id="edge2" class="edge">
<title>Node2&#45;&gt;Node3</title>
<path fill="none" stroke="#191970" d="M243.3002,-152.9279C260.7972,-163.3993 282.935,-175.4466 304,-183.5 313.1131,-186.984 323.0441,-189.9345 332.7655,-192.3949"/>
<polygon fill="#191970" stroke="#191970" points="244.9637,-149.843 234.6036,-147.6252 241.3195,-155.8196 244.9637,-149.843"/>
</g>
<!-- Node4 -->
<g id="node4" class="node">
<title>Node4</title>
<g id="a_node4"><a xlink:href="../../d2/dbb/classKFParticleBaseSIMD.html#a39c874e11dcc9e5346c2eb6fdd056f5e" target="_top" xlink:title="KFParticleBaseSIMD\l::Construct">
<polygon fill="none" stroke="#000000" points="329,-141.5 329,-173.5 445,-173.5 445,-141.5 329,-141.5"/>
<text text-anchor="start" x="337" y="-160.5" font-family="FreeSans" font-size="10.00" fill="#000000">KFParticleBaseSIMD</text>
<text text-anchor="middle" x="387" y="-148.5" font-family="FreeSans" font-size="10.00" fill="#000000">::Construct</text>
</a>
</g>
</g>
<!-- Node2&#45;&gt;Node4 -->
<g id="edge3" class="edge">
<title>Node2&#45;&gt;Node4</title>
<path fill="none" stroke="#191970" d="M278.6398,-141.5827C295.2503,-144.0226 312.845,-146.6072 328.9162,-148.9679"/>
<polygon fill="#191970" stroke="#191970" points="278.8495,-138.076 268.447,-140.0854 277.8321,-145.0017 278.8495,-138.076"/>
</g>
<!-- Node15 -->
<g id="node15" class="node">
<title>Node15</title>
<g id="a_node15"><a xlink:href="../../d2/dbb/classKFParticleBaseSIMD.html#a2cc73a1a3812b9e58ab777131d74b058" target="_top" xlink:title="KFParticleBaseSIMD\l::operator+=">
<polygon fill="none" stroke="#000000" points="329,-90.5 329,-122.5 445,-122.5 445,-90.5 329,-90.5"/>
<text text-anchor="start" x="337" y="-109.5" font-family="FreeSans" font-size="10.00" fill="#000000">KFParticleBaseSIMD</text>
<text text-anchor="middle" x="387" y="-97.5" font-family="FreeSans" font-size="10.00" fill="#000000">::operator+=</text>
</a>
</g>
</g>
<!-- Node2&#45;&gt;Node15 -->
<g id="edge18" class="edge">
<title>Node2&#45;&gt;Node15</title>
<path fill="none" stroke="#191970" d="M278.6398,-121.8051C295.2503,-119.459 312.845,-116.9739 328.9162,-114.7039"/>
<polygon fill="#191970" stroke="#191970" points="277.8592,-118.3805 268.447,-123.2448 278.8382,-125.3118 277.8592,-118.3805"/>
</g>
<!-- Node5 -->
<g id="node5" class="node">
<title>Node5</title>
<g id="a_node5"><a xlink:href="../../db/dcc/classKFParticleSIMD.html#afd250069ba85fae638a7e1285e41c320" target="_top" xlink:title="KFParticleSIMD::Construct">
<polygon fill="none" stroke="#000000" points="511.5,-147.5 511.5,-167.5 658.5,-167.5 658.5,-147.5 511.5,-147.5"/>
<text text-anchor="middle" x="585" y="-154.5" font-family="FreeSans" font-size="10.00" fill="#000000">KFParticleSIMD::Construct</text>
</a>
</g>
</g>
<!-- Node4&#45;&gt;Node5 -->
<g id="edge4" class="edge">
<title>Node4&#45;&gt;Node5</title>
<path fill="none" stroke="#191970" d="M455.2522,-157.5C473.3774,-157.5 493.0293,-157.5 511.4249,-157.5"/>
<polygon fill="#191970" stroke="#191970" points="455.0687,-154.0001 445.0687,-157.5 455.0686,-161.0001 455.0687,-154.0001"/>
</g>
<!-- Node6 -->
<g id="node6" class="node">
<title>Node6</title>
<g id="a_node6"><a xlink:href="../../d2/d3d/classKFParticleFinder.html#a555c027cc00bc7d9461470d5c200b993" target="_top" xlink:title="KFParticleFinder::ConstructV0">
<polygon fill="none" stroke="#000000" points="700,-198.5 700,-218.5 865,-218.5 865,-198.5 700,-198.5"/>
<text text-anchor="middle" x="782.5" y="-205.5" font-family="FreeSans" font-size="10.00" fill="#000000">KFParticleFinder::ConstructV0</text>
</a>
</g>
</g>
<!-- Node5&#45;&gt;Node6 -->
<g id="edge5" class="edge">
<title>Node5&#45;&gt;Node6</title>
<path fill="none" stroke="#191970" d="M633.7093,-170.0781C667.5586,-178.8189 712.0701,-190.313 743.5614,-198.445"/>
<polygon fill="#191970" stroke="#191970" points="634.5772,-166.6875 624.0196,-167.576 632.8269,-173.4651 634.5772,-166.6875"/>
</g>
<!-- Node11 -->
<g id="node11" class="node">
<title>Node11</title>
<g id="a_node11"><a xlink:href="../../d2/d3d/classKFParticleFinder.html#a845f4b9e798f34dad97691ddd0df6b07" target="_top" xlink:title="KFParticleFinder::Construct\lTrackV0Cand">
<polygon fill="none" stroke="#000000" points="706,-141.5 706,-173.5 859,-173.5 859,-141.5 706,-141.5"/>
<text text-anchor="start" x="714" y="-160.5" font-family="FreeSans" font-size="10.00" fill="#000000">KFParticleFinder::Construct</text>
<text text-anchor="middle" x="782.5" y="-148.5" font-family="FreeSans" font-size="10.00" fill="#000000">TrackV0Cand</text>
</a>
</g>
</g>
<!-- Node5&#45;&gt;Node11 -->
<g id="edge11" class="edge">
<title>Node5&#45;&gt;Node11</title>
<path fill="none" stroke="#191970" d="M668.7993,-157.5C681.1204,-157.5 693.7594,-157.5 705.9249,-157.5"/>
<polygon fill="#191970" stroke="#191970" points="668.5417,-154.0001 658.5417,-157.5 668.5417,-161.0001 668.5417,-154.0001"/>
</g>
<!-- Node13 -->
<g id="node13" class="node">
<title>Node13</title>
<g id="a_node13"><a xlink:href="../../d2/d3d/classKFParticleFinder.html#a4ef976ffd76ed2d50940a5d5bb766795" target="_top" xlink:title="KFParticleFinder::Combine\lPartPart">
<polygon fill="none" stroke="#000000" points="916.5,-90.5 916.5,-122.5 1064.5,-122.5 1064.5,-90.5 916.5,-90.5"/>
<text text-anchor="start" x="924.5" y="-109.5" font-family="FreeSans" font-size="10.00" fill="#000000">KFParticleFinder::Combine</text>
<text text-anchor="middle" x="990.5" y="-97.5" font-family="FreeSans" font-size="10.00" fill="#000000">PartPart</text>
</a>
</g>
</g>
<!-- Node5&#45;&gt;Node13 -->
<g id="edge14" class="edge">
<title>Node5&#45;&gt;Node13</title>
<path fill="none" stroke="#191970" d="M635.0834,-145.1893C655.1605,-140.6278 678.5753,-135.7745 700,-132.5 773.2046,-121.3117 857.578,-114.4213 916.4672,-110.5696"/>
<polygon fill="#191970" stroke="#191970" points="634.1749,-141.8069 625.2189,-147.4672 635.75,-148.6274 634.1749,-141.8069"/>
</g>
<!-- Node5&#45;&gt;Node14 -->
<g id="edge16" class="edge">
<title>Node5&#45;&gt;Node14</title>
<path fill="none" stroke="#191970" d="M627.2667,-143.9275C639.5213,-139.2026 652.6492,-133.3415 664,-126.5 682.0838,-115.6003 682.0093,-106.5527 700,-95.5 711.2196,-88.6071 724.0839,-82.5432 736.2638,-77.5177"/>
<polygon fill="#191970" stroke="#191970" points="625.8441,-140.7218 617.6766,-147.4703 628.2699,-147.288 625.8441,-140.7218"/>
</g>
<!-- Node7 -->
<g id="node7" class="node">
<title>Node7</title>
<g id="a_node7"><a xlink:href="../../d2/d3d/classKFParticleFinder.html#a3f6967ae8b6839bc7de48991eaa812ef" target="_top" xlink:title="KFParticleFinder::Find2Daughter\lDecay">
<polygon fill="none" stroke="#000000" points="901,-243.5 901,-275.5 1080,-275.5 1080,-243.5 901,-243.5"/>
<text text-anchor="start" x="909" y="-262.5" font-family="FreeSans" font-size="10.00" fill="#000000">KFParticleFinder::Find2Daughter</text>
<text text-anchor="middle" x="990.5" y="-250.5" font-family="FreeSans" font-size="10.00" fill="#000000">Decay</text>
</a>
</g>
</g>
<!-- Node6&#45;&gt;Node7 -->
<g id="edge6" class="edge">
<title>Node6&#45;&gt;Node7</title>
<path fill="none" stroke="#191970" d="M833.4237,-220.9861C860.9977,-227.747 895.3723,-236.1754 924.9284,-243.4223"/>
<polygon fill="#191970" stroke="#191970" points="834.1399,-217.5581 823.5941,-218.576 832.4729,-224.3567 834.1399,-217.5581"/>
</g>
<!-- Node10 -->
<g id="node10" class="node">
<title>Node10</title>
<g id="a_node10"><a xlink:href="../../d2/d3d/classKFParticleFinder.html#ae68561ffcd9f3bf3e8230604678105c5" target="_top" xlink:title="KFParticleFinder::Construct\lPrimaryBG">
<polygon fill="none" stroke="#000000" points="914,-192.5 914,-224.5 1067,-224.5 1067,-192.5 914,-192.5"/>
<text text-anchor="start" x="922" y="-211.5" font-family="FreeSans" font-size="10.00" fill="#000000">KFParticleFinder::Construct</text>
<text text-anchor="middle" x="990.5" y="-199.5" font-family="FreeSans" font-size="10.00" fill="#000000">PrimaryBG</text>
</a>
</g>
</g>
<!-- Node6&#45;&gt;Node10 -->
<g id="edge9" class="edge">
<title>Node6&#45;&gt;Node10</title>
<path fill="none" stroke="#191970" d="M875.2786,-208.5C888.1691,-208.5 901.2923,-208.5 913.8435,-208.5"/>
<polygon fill="#191970" stroke="#191970" points="875.0059,-205.0001 865.0059,-208.5 875.0058,-212.0001 875.0059,-205.0001"/>
</g>
<!-- Node8 -->
<g id="node8" class="node">
<title>Node8</title>
<g id="a_node8"><a xlink:href="../../d2/d3d/classKFParticleFinder.html#a3ad831d1b28cce4689501e369f561926" target="_top" xlink:title="KFParticleFinder::FindParticles">
<polygon fill="none" stroke="#000000" points="1116,-147.5 1116,-167.5 1283,-167.5 1283,-147.5 1116,-147.5"/>
<text text-anchor="middle" x="1199.5" y="-154.5" font-family="FreeSans" font-size="10.00" fill="#000000">KFParticleFinder::FindParticles</text>
</a>
</g>
</g>
<!-- Node7&#45;&gt;Node8 -->
<g id="edge7" class="edge">
<title>Node7&#45;&gt;Node8</title>
<path fill="none" stroke="#191970" d="M1066.4261,-240.0339C1071.0725,-238.3076 1075.6315,-236.4634 1080,-234.5 1121.6459,-215.7825 1165.5072,-183.9058 1186.6331,-167.6639"/>
<polygon fill="#191970" stroke="#191970" points="1065.0757,-236.7985 1056.7987,-243.4122 1067.3935,-243.4036 1065.0757,-236.7985"/>
</g>
<!-- Node9 -->
<g id="node9" class="node">
<title>Node9</title>
<g id="a_node9"><a xlink:href="../../db/d6d/classKFParticleTopoReconstructor.html#a3013eefd4e16b74ae39c531678623d08" target="_top" xlink:title="KFParticleTopoReconstructor\l::ReconstructParticles">
<polygon fill="none" stroke="#000000" points="1319,-141.5 1319,-173.5 1479,-173.5 1479,-141.5 1319,-141.5"/>
<text text-anchor="start" x="1327" y="-160.5" font-family="FreeSans" font-size="10.00" fill="#000000">KFParticleTopoReconstructor</text>
<text text-anchor="middle" x="1399" y="-148.5" font-family="FreeSans" font-size="10.00" fill="#000000">::ReconstructParticles</text>
</a>
</g>
</g>
<!-- Node8&#45;&gt;Node9 -->
<g id="edge8" class="edge">
<title>Node8&#45;&gt;Node9</title>
<path fill="none" stroke="#191970" d="M1293.2835,-157.5C1301.8763,-157.5 1310.5283,-157.5 1318.9834,-157.5"/>
<polygon fill="#191970" stroke="#191970" points="1293.2389,-154.0001 1283.2388,-157.5 1293.2388,-161.0001 1293.2389,-154.0001"/>
</g>
<!-- Node10&#45;&gt;Node8 -->
<g id="edge10" class="edge">
<title>Node10&#45;&gt;Node8</title>
<path fill="none" stroke="#191970" d="M1066.2821,-190.0077C1097.3421,-182.4285 1132.0717,-173.9538 1158.2819,-167.558"/>
<polygon fill="#191970" stroke="#191970" points="1065.2272,-186.6623 1056.342,-192.4333 1066.8867,-193.4628 1065.2272,-186.6623"/>
</g>
<!-- Node12 -->
<g id="node12" class="node">
<title>Node12</title>
<g id="a_node12"><a xlink:href="../../d2/d3d/classKFParticleFinder.html#a2073bafab2ee9126f3fbf0bef15f68e3" target="_top" xlink:title="KFParticleFinder::FindTrack\lV0Decay">
<polygon fill="none" stroke="#000000" points="915,-141.5 915,-173.5 1066,-173.5 1066,-141.5 915,-141.5"/>
<text text-anchor="start" x="923" y="-160.5" font-family="FreeSans" font-size="10.00" fill="#000000">KFParticleFinder::FindTrack</text>
<text text-anchor="middle" x="990.5" y="-148.5" font-family="FreeSans" font-size="10.00" fill="#000000">V0Decay</text>
</a>
</g>
</g>
<!-- Node11&#45;&gt;Node12 -->
<g id="edge12" class="edge">
<title>Node11&#45;&gt;Node12</title>
<path fill="none" stroke="#191970" d="M869.4061,-157.5C884.4796,-157.5 900.0457,-157.5 914.7907,-157.5"/>
<polygon fill="#191970" stroke="#191970" points="869.0654,-154.0001 859.0654,-157.5 869.0654,-161.0001 869.0654,-154.0001"/>
</g>
<!-- Node12&#45;&gt;Node8 -->
<g id="edge13" class="edge">
<title>Node12&#45;&gt;Node8</title>
<path fill="none" stroke="#191970" d="M1076.5672,-157.5C1089.5575,-157.5 1102.9403,-157.5 1115.878,-157.5"/>
<polygon fill="#191970" stroke="#191970" points="1076.2493,-154.0001 1066.2493,-157.5 1076.2493,-161.0001 1076.2493,-154.0001"/>
</g>
<!-- Node13&#45;&gt;Node8 -->
<g id="edge15" class="edge">
<title>Node13&#45;&gt;Node8</title>
<path fill="none" stroke="#191970" d="M1066.2821,-124.9923C1097.3421,-132.5715 1132.0717,-141.0462 1158.2819,-147.442"/>
<polygon fill="#191970" stroke="#191970" points="1066.8867,-121.5372 1056.342,-122.5667 1065.2272,-128.3377 1066.8867,-121.5372"/>
</g>
<!-- Node14&#45;&gt;Node8 -->
<g id="edge17" class="edge">
<title>Node14&#45;&gt;Node8</title>
<path fill="none" stroke="#191970" d="M862.9276,-56.2982C923.98,-54.8566 1009.2039,-58.2907 1080,-81.5 1123.9231,-95.8995 1167.7813,-130.137 1187.9819,-147.3097"/>
<polygon fill="#191970" stroke="#191970" points="862.4776,-52.8096 852.5819,-56.5945 862.678,-59.8067 862.4776,-52.8096"/>
</g>
<!-- Node16 -->
<g id="node16" class="node">
<title>Node16</title>
<g id="a_node16"><a xlink:href="../../db/dcc/classKFParticleSIMD.html#a7a8fccbeb58437f20fee5cb68e6f1259" target="_top" xlink:title="KFParticleSIMD::operator+=">
<polygon fill="none" stroke="#000000" points="506,-96.5 506,-116.5 664,-116.5 664,-96.5 506,-96.5"/>
<text text-anchor="middle" x="585" y="-103.5" font-family="FreeSans" font-size="10.00" fill="#000000">KFParticleSIMD::operator+=</text>
</a>
</g>
</g>
<!-- Node15&#45;&gt;Node16 -->
<g id="edge19" class="edge">
<title>Node15&#45;&gt;Node16</title>
<path fill="none" stroke="#191970" d="M455.0938,-106.5C471.4851,-106.5 489.1327,-106.5 505.9755,-106.5"/>
<polygon fill="#191970" stroke="#191970" points="455.0687,-103.0001 445.0687,-106.5 455.0686,-110.0001 455.0687,-103.0001"/>
</g>
<!-- Node17&#45;&gt;Node14 -->
<g id="edge22" class="edge">
<title>Node17&#45;&gt;Node14</title>
<path fill="none" stroke="#191970" d="M278.3458,-20.1116C367.2703,-25.0525 527.422,-34.777 664,-47.5 679.6763,-48.9603 696.4887,-50.7875 712.3812,-52.6349"/>
<polygon fill="#191970" stroke="#191970" points="278.3018,-16.6039 268.124,-19.5473 277.9159,-23.5933 278.3018,-16.6039"/>
</g>
</g>
</svg>
