<?xml version="1.0" encoding="UTF-8" standalone="no"?>
<!DOCTYPE svg PUBLIC "-//W3C//DTD SVG 1.1//EN"
 "http://www.w3.org/Graphics/SVG/1.1/DTD/svg11.dtd">
<!-- Generated by graphviz version 2.40.1 (20161225.0304)
 -->
<!-- Title: KFParticleBaseSIMD::Z Pages: 1 -->
<svg width="1469pt" height="315pt"
 viewBox="0.00 0.00 1469.00 314.97" xmlns="http://www.w3.org/2000/svg" xmlns:xlink="http://www.w3.org/1999/xlink">
<g id="graph0" class="graph" transform="scale(1 1) rotate(0) translate(4 310.9706)">
<title>KFParticleBaseSIMD::Z</title>
<!-- Node1 -->
<g id="node1" class="node">
<title>Node1</title>
<polygon fill="#bfbfbf" stroke="#000000" points="0,-154.8281 0,-174.8281 130,-174.8281 130,-154.8281 0,-154.8281"/>
<text text-anchor="middle" x="65" y="-161.8281" font-family="FreeSans" font-size="10.00" fill="#000000">KFParticleBaseSIMD::Z</text>
</g>
<!-- Node2 -->
<g id="node2" class="node">
<title>Node2</title>
<g id="a_node2"><a xlink:href="../../d2/dbb/classKFParticleBaseSIMD.html#a2fc8aa6e9722f33468d0d1817bda46d9" target="_top" xlink:title="KFParticleBaseSIMD\l::RotateXY">
<polygon fill="none" stroke="#000000" points="171,-199.8281 171,-231.8281 287,-231.8281 287,-199.8281 171,-199.8281"/>
<text text-anchor="start" x="179" y="-218.8281" font-family="FreeSans" font-size="10.00" fill="#000000">KFParticleBaseSIMD</text>
<text text-anchor="middle" x="229" y="-206.8281" font-family="FreeSans" font-size="10.00" fill="#000000">::RotateXY</text>
</a>
</g>
</g>
<!-- Node1&#45;&gt;Node2 -->
<g id="edge1" class="edge">
<title>Node1&#45;&gt;Node2</title>
<path fill="none" stroke="#191970" d="M107.1688,-177.9415C128.5531,-184.5915 154.7109,-192.726 177.2993,-199.7504"/>
<polygon fill="#191970" stroke="#191970" points="107.9894,-174.5315 97.4011,-174.904 105.9107,-181.2157 107.9894,-174.5315"/>
</g>
<!-- Node3 -->
<g id="node3" class="node">
<title>Node3</title>
<g id="a_node3"><a xlink:href="../../d2/dbb/classKFParticleBaseSIMD.html#ab9370932a09a02d6498ca4c960caba13" target="_top" xlink:title="KFParticleBaseSIMD\l::SetProductionVertex">
<polygon fill="none" stroke="#000000" points="166,-148.8281 166,-180.8281 292,-180.8281 292,-148.8281 166,-148.8281"/>
<text text-anchor="start" x="174" y="-167.8281" font-family="FreeSans" font-size="10.00" fill="#000000">KFParticleBaseSIMD</text>
<text text-anchor="middle" x="229" y="-155.8281" font-family="FreeSans" font-size="10.00" fill="#000000">::SetProductionVertex</text>
</a>
</g>
</g>
<!-- Node1&#45;&gt;Node3 -->
<g id="edge2" class="edge">
<title>Node1&#45;&gt;Node3</title>
<path fill="none" stroke="#191970" d="M140.5303,-164.8281C148.9843,-164.8281 157.5307,-164.8281 165.8068,-164.8281"/>
<polygon fill="#191970" stroke="#191970" points="140.2884,-161.3282 130.2884,-164.8281 140.2883,-168.3282 140.2884,-161.3282"/>
</g>
<!-- Node17 -->
<g id="node17" class="node">
<title>Node17</title>
<g id="a_node17"><a xlink:href="../../db/dcc/classKFParticleSIMD.html#a9e6311ef28cddd0fbaab50ed002d5eeb" target="_top" xlink:title="Modifier of Z coordinate of the particle, fP[2].">
<polygon fill="none" stroke="#000000" points="176.5,-109.8281 176.5,-129.8281 281.5,-129.8281 281.5,-109.8281 176.5,-109.8281"/>
<text text-anchor="middle" x="229" y="-116.8281" font-family="FreeSans" font-size="10.00" fill="#000000">KFParticleSIMD::Z</text>
</a>
</g>
</g>
<!-- Node1&#45;&gt;Node17 -->
<g id="edge27" class="edge">
<title>Node1&#45;&gt;Node17</title>
<path fill="none" stroke="#191970" d="M111.6616,-152.0246C137.2434,-145.0052 168.4992,-136.4289 192.318,-129.8933"/>
<polygon fill="#191970" stroke="#191970" points="110.5222,-148.7078 101.8048,-154.7292 112.3745,-155.4583 110.5222,-148.7078"/>
</g>
<!-- Node4 -->
<g id="node4" class="node">
<title>Node4</title>
<g id="a_node4"><a xlink:href="../../d2/d3d/classKFParticleFinder.html#a4ef976ffd76ed2d50940a5d5bb766795" target="_top" xlink:title="KFParticleFinder::Combine\lPartPart">
<polygon fill="none" stroke="#000000" points="690.5,-258.8281 690.5,-290.8281 838.5,-290.8281 838.5,-258.8281 690.5,-258.8281"/>
<text text-anchor="start" x="698.5" y="-277.8281" font-family="FreeSans" font-size="10.00" fill="#000000">KFParticleFinder::Combine</text>
<text text-anchor="middle" x="764.5" y="-265.8281" font-family="FreeSans" font-size="10.00" fill="#000000">PartPart</text>
</a>
</g>
</g>
<!-- Node3&#45;&gt;Node4 -->
<g id="edge3" class="edge">
<title>Node3&#45;&gt;Node4</title>
<path fill="none" stroke="#191970" d="M286.5498,-186.4668C288.4526,-187.84 290.2779,-189.2925 292,-190.8281 316.6479,-212.8064 299.9201,-238.4474 328,-255.8281 441.8378,-326.2905 606.1923,-308.6234 697.2934,-290.8551"/>
<polygon fill="#191970" stroke="#191970" points="288.1162,-183.3168 277.7908,-180.9427 284.3821,-189.2376 288.1162,-183.3168"/>
</g>
<!-- Node7 -->
<g id="node7" class="node">
<title>Node7</title>
<g id="a_node7"><a xlink:href="../../d2/dbb/classKFParticleBaseSIMD.html#a39c874e11dcc9e5346c2eb6fdd056f5e" target="_top" xlink:title="KFParticleBaseSIMD\l::Construct">
<polygon fill="none" stroke="#000000" points="337.5,-213.8281 337.5,-245.8281 453.5,-245.8281 453.5,-213.8281 337.5,-213.8281"/>
<text text-anchor="start" x="345.5" y="-232.8281" font-family="FreeSans" font-size="10.00" fill="#000000">KFParticleBaseSIMD</text>
<text text-anchor="middle" x="395.5" y="-220.8281" font-family="FreeSans" font-size="10.00" fill="#000000">::Construct</text>
</a>
</g>
</g>
<!-- Node3&#45;&gt;Node7 -->
<g id="edge6" class="edge">
<title>Node3&#45;&gt;Node7</title>
<path fill="none" stroke="#191970" d="M279.7548,-184.6423C303.6188,-193.9585 331.7082,-204.9244 354.2391,-213.7202"/>
<polygon fill="#191970" stroke="#191970" points="280.7455,-181.2718 270.1573,-180.8955 278.1998,-187.7925 280.7455,-181.2718"/>
</g>
<!-- Node9 -->
<g id="node9" class="node">
<title>Node9</title>
<g id="a_node9"><a xlink:href="../../d2/d3d/classKFParticleFinder.html#a555c027cc00bc7d9461470d5c200b993" target="_top" xlink:title="KFParticleFinder::ConstructV0">
<polygon fill="none" stroke="#000000" points="682,-90.8281 682,-110.8281 847,-110.8281 847,-90.8281 682,-90.8281"/>
<text text-anchor="middle" x="764.5" y="-97.8281" font-family="FreeSans" font-size="10.00" fill="#000000">KFParticleFinder::ConstructV0</text>
</a>
</g>
</g>
<!-- Node3&#45;&gt;Node9 -->
<g id="edge20" class="edge">
<title>Node3&#45;&gt;Node9</title>
<path fill="none" stroke="#191970" d="M301.9326,-149.9222C310.7109,-148.179 319.5541,-146.4466 328,-144.8281 403.8584,-130.2911 422.2637,-122.6244 499,-113.8281 559.9788,-106.8381 629.2586,-103.6023 681.7553,-102.1065"/>
<polygon fill="#191970" stroke="#191970" points="301.1955,-146.5002 292.0737,-151.8895 302.5653,-153.3649 301.1955,-146.5002"/>
</g>
<!-- Node12 -->
<g id="node12" class="node">
<title>Node12</title>
<g id="a_node12"><a xlink:href="../../d2/d3d/classKFParticleFinder.html#a845f4b9e798f34dad97691ddd0df6b07" target="_top" xlink:title="KFParticleFinder::Construct\lTrackV0Cand">
<polygon fill="none" stroke="#000000" points="688,-168.8281 688,-200.8281 841,-200.8281 841,-168.8281 688,-168.8281"/>
<text text-anchor="start" x="696" y="-187.8281" font-family="FreeSans" font-size="10.00" fill="#000000">KFParticleFinder::Construct</text>
<text text-anchor="middle" x="764.5" y="-175.8281" font-family="FreeSans" font-size="10.00" fill="#000000">TrackV0Cand</text>
</a>
</g>
</g>
<!-- Node3&#45;&gt;Node12 -->
<g id="edge19" class="edge">
<title>Node3&#45;&gt;Node12</title>
<path fill="none" stroke="#191970" d="M302.133,-167.5595C403.2807,-171.3372 585.0171,-178.1247 687.946,-181.9689"/>
<polygon fill="#191970" stroke="#191970" points="302.127,-164.0569 292.0033,-167.1811 301.8657,-171.052 302.127,-164.0569"/>
</g>
<!-- Node15 -->
<g id="node15" class="node">
<title>Node15</title>
<g id="a_node15"><a xlink:href="../../d2/d3d/classKFParticleFinder.html#ad5a61416f528be9d0b397352f7619953" target="_top" xlink:title="KFParticleFinder::SaveV0\lPrimSecCand">
<polygon fill="none" stroke="#000000" points="501.5,-123.8281 501.5,-155.8281 643.5,-155.8281 643.5,-123.8281 501.5,-123.8281"/>
<text text-anchor="start" x="509.5" y="-142.8281" font-family="FreeSans" font-size="10.00" fill="#000000">KFParticleFinder::SaveV0</text>
<text text-anchor="middle" x="572.5" y="-130.8281" font-family="FreeSans" font-size="10.00" fill="#000000">PrimSecCand</text>
</a>
</g>
</g>
<!-- Node3&#45;&gt;Node15 -->
<g id="edge21" class="edge">
<title>Node3&#45;&gt;Node15</title>
<path fill="none" stroke="#191970" d="M302.3289,-159.4912C361.1042,-155.2135 443.0913,-149.2465 501.2973,-145.0102"/>
<polygon fill="#191970" stroke="#191970" points="301.7227,-156.026 292.0032,-160.2427 302.2309,-163.0075 301.7227,-156.026"/>
</g>
<!-- Node16 -->
<g id="node16" class="node">
<title>Node16</title>
<g id="a_node16"><a xlink:href="../../d2/d3d/classKFParticleFinder.html#a179059d24166483347104b74e9ad6b48" target="_top" xlink:title="KFParticleFinder::Select\lParticles">
<polygon fill="none" stroke="#000000" points="328,-20.8281 328,-52.8281 463,-52.8281 463,-20.8281 328,-20.8281"/>
<text text-anchor="start" x="336" y="-39.8281" font-family="FreeSans" font-size="10.00" fill="#000000">KFParticleFinder::Select</text>
<text text-anchor="middle" x="395.5" y="-27.8281" font-family="FreeSans" font-size="10.00" fill="#000000">Particles</text>
</a>
</g>
</g>
<!-- Node3&#45;&gt;Node16 -->
<g id="edge25" class="edge">
<title>Node3&#45;&gt;Node16</title>
<path fill="none" stroke="#191970" d="M285.8762,-143.4765C288.0131,-142.0168 290.0654,-140.4687 292,-138.8281 315.1394,-119.205 306.7859,-102.5181 328,-80.8281 338.6614,-69.9275 352.4811,-60.3327 364.8366,-52.9079"/>
<polygon fill="#191970" stroke="#191970" points="284.0282,-140.5038 277.2859,-148.6764 287.6531,-146.4922 284.0282,-140.5038"/>
</g>
<!-- Node5 -->
<g id="node5" class="node">
<title>Node5</title>
<g id="a_node5"><a xlink:href="../../d2/d3d/classKFParticleFinder.html#a3ad831d1b28cce4689501e369f561926" target="_top" xlink:title="KFParticleFinder::FindParticles">
<polygon fill="none" stroke="#000000" points="1098,-142.8281 1098,-162.8281 1265,-162.8281 1265,-142.8281 1098,-142.8281"/>
<text text-anchor="middle" x="1181.5" y="-149.8281" font-family="FreeSans" font-size="10.00" fill="#000000">KFParticleFinder::FindParticles</text>
</a>
</g>
</g>
<!-- Node4&#45;&gt;Node5 -->
<g id="edge4" class="edge">
<title>Node4&#45;&gt;Node5</title>
<path fill="none" stroke="#191970" d="M848.6559,-283.4139C910.0413,-286.406 994.03,-283.5752 1062,-255.8281 1112.2087,-235.3316 1156.2364,-184.9254 1173.6092,-163.1372"/>
<polygon fill="#191970" stroke="#191970" points="848.7974,-279.9165 838.6207,-282.8633 848.4139,-286.906 848.7974,-279.9165"/>
</g>
<!-- Node6 -->
<g id="node6" class="node">
<title>Node6</title>
<g id="a_node6"><a xlink:href="../../db/d6d/classKFParticleTopoReconstructor.html#a3013eefd4e16b74ae39c531678623d08" target="_top" xlink:title="KFParticleTopoReconstructor\l::ReconstructParticles">
<polygon fill="none" stroke="#000000" points="1301,-136.8281 1301,-168.8281 1461,-168.8281 1461,-136.8281 1301,-136.8281"/>
<text text-anchor="start" x="1309" y="-155.8281" font-family="FreeSans" font-size="10.00" fill="#000000">KFParticleTopoReconstructor</text>
<text text-anchor="middle" x="1381" y="-143.8281" font-family="FreeSans" font-size="10.00" fill="#000000">::ReconstructParticles</text>
</a>
</g>
</g>
<!-- Node5&#45;&gt;Node6 -->
<g id="edge5" class="edge">
<title>Node5&#45;&gt;Node6</title>
<path fill="none" stroke="#191970" d="M1275.2835,-152.8281C1283.8763,-152.8281 1292.5283,-152.8281 1300.9834,-152.8281"/>
<polygon fill="#191970" stroke="#191970" points="1275.2389,-149.3282 1265.2388,-152.8281 1275.2388,-156.3282 1275.2389,-149.3282"/>
</g>
<!-- Node8 -->
<g id="node8" class="node">
<title>Node8</title>
<g id="a_node8"><a xlink:href="../../db/dcc/classKFParticleSIMD.html#afd250069ba85fae638a7e1285e41c320" target="_top" xlink:title="KFParticleSIMD::Construct">
<polygon fill="none" stroke="#000000" points="499,-219.8281 499,-239.8281 646,-239.8281 646,-219.8281 499,-219.8281"/>
<text text-anchor="middle" x="572.5" y="-226.8281" font-family="FreeSans" font-size="10.00" fill="#000000">KFParticleSIMD::Construct</text>
</a>
</g>
</g>
<!-- Node7&#45;&gt;Node8 -->
<g id="edge7" class="edge">
<title>Node7&#45;&gt;Node8</title>
<path fill="none" stroke="#191970" d="M464.247,-229.8281C475.6283,-229.8281 487.4689,-229.8281 498.9628,-229.8281"/>
<polygon fill="#191970" stroke="#191970" points="463.947,-226.3282 453.947,-229.8281 463.9469,-233.3282 463.947,-226.3282"/>
</g>
<!-- Node8&#45;&gt;Node4 -->
<g id="edge16" class="edge">
<title>Node8&#45;&gt;Node4</title>
<path fill="none" stroke="#191970" d="M625.6188,-242.2778C647.3655,-247.3747 672.8074,-253.3376 695.9312,-258.7573"/>
<polygon fill="#191970" stroke="#191970" points="626.1234,-238.8013 615.5885,-239.927 624.526,-245.6166 626.1234,-238.8013"/>
</g>
<!-- Node8&#45;&gt;Node9 -->
<g id="edge8" class="edge">
<title>Node8&#45;&gt;Node9</title>
<path fill="none" stroke="#191970" d="M595.9048,-214.1029C635.8765,-187.247 716.2019,-133.2783 749.5041,-110.9035"/>
<polygon fill="#191970" stroke="#191970" points="593.9145,-211.2235 587.5659,-219.7057 597.8184,-217.0339 593.9145,-211.2235"/>
</g>
<!-- Node8&#45;&gt;Node12 -->
<g id="edge13" class="edge">
<title>Node8&#45;&gt;Node12</title>
<path fill="none" stroke="#191970" d="M625.6188,-217.3784C647.3655,-212.2815 672.8074,-206.3185 695.9312,-200.8989"/>
<polygon fill="#191970" stroke="#191970" points="624.526,-214.0396 615.5885,-219.7292 626.1234,-220.8549 624.526,-214.0396"/>
</g>
<!-- Node14 -->
<g id="node14" class="node">
<title>Node14</title>
<g id="a_node14"><a xlink:href="../../d2/d3d/classKFParticleFinder.html#a76e093479fb04d0360e1cca0e6aa5d01" target="_top" xlink:title="KFParticleFinder::Neutral\lDaughterDecay">
<polygon fill="none" stroke="#000000" points="902.5,-213.8281 902.5,-245.8281 1042.5,-245.8281 1042.5,-213.8281 902.5,-213.8281"/>
<text text-anchor="start" x="910.5" y="-232.8281" font-family="FreeSans" font-size="10.00" fill="#000000">KFParticleFinder::Neutral</text>
<text text-anchor="middle" x="972.5" y="-220.8281" font-family="FreeSans" font-size="10.00" fill="#000000">DaughterDecay</text>
</a>
</g>
</g>
<!-- Node8&#45;&gt;Node14 -->
<g id="edge17" class="edge">
<title>Node8&#45;&gt;Node14</title>
<path fill="none" stroke="#191970" d="M656.4123,-229.8281C729.3813,-229.8281 833.8832,-229.8281 902.4499,-229.8281"/>
<polygon fill="#191970" stroke="#191970" points="656.3323,-226.3282 646.3323,-229.8281 656.3323,-233.3282 656.3323,-226.3282"/>
</g>
<!-- Node10 -->
<g id="node10" class="node">
<title>Node10</title>
<g id="a_node10"><a xlink:href="../../d2/d3d/classKFParticleFinder.html#a3f6967ae8b6839bc7de48991eaa812ef" target="_top" xlink:title="KFParticleFinder::Find2Daughter\lDecay">
<polygon fill="none" stroke="#000000" points="883,-60.8281 883,-92.8281 1062,-92.8281 1062,-60.8281 883,-60.8281"/>
<text text-anchor="start" x="891" y="-79.8281" font-family="FreeSans" font-size="10.00" fill="#000000">KFParticleFinder::Find2Daughter</text>
<text text-anchor="middle" x="972.5" y="-67.8281" font-family="FreeSans" font-size="10.00" fill="#000000">Decay</text>
</a>
</g>
</g>
<!-- Node9&#45;&gt;Node10 -->
<g id="edge9" class="edge">
<title>Node9&#45;&gt;Node10</title>
<path fill="none" stroke="#191970" d="M857.0359,-90.1509C865.6336,-89.1588 874.3371,-88.1546 882.9075,-87.1657"/>
<polygon fill="#191970" stroke="#191970" points="856.5387,-86.6849 847.0059,-91.3082 857.3412,-93.6388 856.5387,-86.6849"/>
</g>
<!-- Node11 -->
<g id="node11" class="node">
<title>Node11</title>
<g id="a_node11"><a xlink:href="../../d2/d3d/classKFParticleFinder.html#ae68561ffcd9f3bf3e8230604678105c5" target="_top" xlink:title="KFParticleFinder::Construct\lPrimaryBG">
<polygon fill="none" stroke="#000000" points="896,-111.8281 896,-143.8281 1049,-143.8281 1049,-111.8281 896,-111.8281"/>
<text text-anchor="start" x="904" y="-130.8281" font-family="FreeSans" font-size="10.00" fill="#000000">KFParticleFinder::Construct</text>
<text text-anchor="middle" x="972.5" y="-118.8281" font-family="FreeSans" font-size="10.00" fill="#000000">PrimaryBG</text>
</a>
</g>
</g>
<!-- Node9&#45;&gt;Node11 -->
<g id="edge11" class="edge">
<title>Node9&#45;&gt;Node11</title>
<path fill="none" stroke="#191970" d="M851.7085,-112.1484C866.3556,-114.0497 881.4592,-116.0103 895.8153,-117.8738"/>
<polygon fill="#191970" stroke="#191970" points="852.0233,-108.66 841.6559,-110.8435 851.1222,-115.6018 852.0233,-108.66"/>
</g>
<!-- Node10&#45;&gt;Node5 -->
<g id="edge10" class="edge">
<title>Node10&#45;&gt;Node5</title>
<path fill="none" stroke="#191970" d="M1043.741,-95.8105C1049.9487,-97.7413 1056.1067,-99.7574 1062,-101.8281 1097.1145,-114.1657 1136.607,-131.7858 1160.2467,-142.7537"/>
<polygon fill="#191970" stroke="#191970" points="1044.5612,-92.4019 1033.9758,-92.851 1042.5309,-99.101 1044.5612,-92.4019"/>
</g>
<!-- Node11&#45;&gt;Node5 -->
<g id="edge12" class="edge">
<title>Node11&#45;&gt;Node5</title>
<path fill="none" stroke="#191970" d="M1059.2715,-138.2074C1072.0239,-139.7329 1085.1392,-141.3017 1097.8275,-142.8194"/>
<polygon fill="#191970" stroke="#191970" points="1059.4821,-134.7078 1049.1371,-136.9952 1058.6506,-141.6582 1059.4821,-134.7078"/>
</g>
<!-- Node13 -->
<g id="node13" class="node">
<title>Node13</title>
<g id="a_node13"><a xlink:href="../../d2/d3d/classKFParticleFinder.html#a2073bafab2ee9126f3fbf0bef15f68e3" target="_top" xlink:title="KFParticleFinder::FindTrack\lV0Decay">
<polygon fill="none" stroke="#000000" points="897,-162.8281 897,-194.8281 1048,-194.8281 1048,-162.8281 897,-162.8281"/>
<text text-anchor="start" x="905" y="-181.8281" font-family="FreeSans" font-size="10.00" fill="#000000">KFParticleFinder::FindTrack</text>
<text text-anchor="middle" x="972.5" y="-169.8281" font-family="FreeSans" font-size="10.00" fill="#000000">V0Decay</text>
</a>
</g>
</g>
<!-- Node12&#45;&gt;Node13 -->
<g id="edge14" class="edge">
<title>Node12&#45;&gt;Node13</title>
<path fill="none" stroke="#191970" d="M851.4061,-182.3212C866.4796,-181.8864 882.0457,-181.4373 896.7907,-181.012"/>
<polygon fill="#191970" stroke="#191970" points="850.9603,-178.8325 841.0654,-182.6195 851.1622,-185.8296 850.9603,-178.8325"/>
</g>
<!-- Node13&#45;&gt;Node5 -->
<g id="edge15" class="edge">
<title>Node13&#45;&gt;Node5</title>
<path fill="none" stroke="#191970" d="M1058.4246,-168.1389C1072.533,-166.3838 1087.1082,-164.5706 1101.0764,-162.8329"/>
<polygon fill="#191970" stroke="#191970" points="1057.7407,-164.6969 1048.2493,-169.4047 1058.6049,-171.6434 1057.7407,-164.6969"/>
</g>
<!-- Node14&#45;&gt;Node5 -->
<g id="edge18" class="edge">
<title>Node14&#45;&gt;Node5</title>
<path fill="none" stroke="#191970" d="M1044.0723,-210.7919C1050.1697,-208.8813 1056.2138,-206.8841 1062,-204.8281 1097.3908,-192.2529 1137.1305,-174.1216 1160.6982,-162.9274"/>
<polygon fill="#191970" stroke="#191970" points="1043.02,-207.4536 1034.4762,-213.7188 1045.0623,-214.149 1043.02,-207.4536"/>
</g>
<!-- Node15&#45;&gt;Node9 -->
<g id="edge22" class="edge">
<title>Node15&#45;&gt;Node9</title>
<path fill="none" stroke="#191970" d="M653.588,-123.3571C674.5444,-119.1003 696.4726,-114.6462 715.2457,-110.8329"/>
<polygon fill="#191970" stroke="#191970" points="652.824,-119.9407 643.7209,-125.3613 654.2175,-126.8006 652.824,-119.9407"/>
</g>
<!-- Node15&#45;&gt;Node10 -->
<g id="edge23" class="edge">
<title>Node15&#45;&gt;Node10</title>
<path fill="none" stroke="#191970" d="M603.154,-118.1038C624.2325,-104.5167 653.4694,-88.2346 682,-80.8281 747.6637,-63.7819 824.5175,-63.5434 882.6775,-67.1567"/>
<polygon fill="#191970" stroke="#191970" points="601.0577,-115.2939 594.6457,-123.7281 604.9179,-121.1334 601.0577,-115.2939"/>
</g>
<!-- Node15&#45;&gt;Node11 -->
<g id="edge24" class="edge">
<title>Node15&#45;&gt;Node11</title>
<path fill="none" stroke="#191970" d="M653.7684,-137.39C724.6027,-135.265 826.5823,-132.2056 895.9785,-130.1237"/>
<polygon fill="#191970" stroke="#191970" points="653.4416,-133.8982 643.5511,-137.6965 653.6516,-140.895 653.4416,-133.8982"/>
</g>
<!-- Node16&#45;&gt;Node5 -->
<g id="edge26" class="edge">
<title>Node16&#45;&gt;Node5</title>
<path fill="none" stroke="#191970" d="M473.1958,-22.122C600.9203,-1.4676 861.1185,25.6521 1062,-50.8281 1112.7279,-70.1414 1156.7993,-121.0634 1173.9099,-142.7821"/>
<polygon fill="#191970" stroke="#191970" points="472.412,-18.7039 463.1143,-23.7836 473.5504,-25.6107 472.412,-18.7039"/>
</g>
</g>
</svg>
