<?xml version="1.0" encoding="UTF-8" standalone="no"?>
<!DOCTYPE svg PUBLIC "-//W3C//DTD SVG 1.1//EN"
 "http://www.w3.org/Graphics/SVG/1.1/DTD/svg11.dtd">
<!-- Generated by graphviz version 2.40.1 (20161225.0304)
 -->
<!-- Title: KFParticleBaseSIMD::SetMassConstraint Pages: 1 -->
<svg width="1702pt" height="246pt"
 viewBox="0.00 0.00 1702.00 246.00" xmlns="http://www.w3.org/2000/svg" xmlns:xlink="http://www.w3.org/1999/xlink">
<g id="graph0" class="graph" transform="scale(1 1) rotate(0) translate(4 242)">
<title>KFParticleBaseSIMD::SetMassConstraint</title>
<!-- Node1 -->
<g id="node1" class="node">
<title>Node1</title>
<polygon fill="#bfbfbf" stroke="#000000" points="0,-115.5 0,-147.5 118,-147.5 118,-115.5 0,-115.5"/>
<text text-anchor="start" x="8" y="-134.5" font-family="FreeSans" font-size="10.00" fill="#000000">KFParticleBaseSIMD</text>
<text text-anchor="middle" x="59" y="-122.5" font-family="FreeSans" font-size="10.00" fill="#000000">::SetMassConstraint</text>
</g>
<!-- Node2 -->
<g id="node2" class="node">
<title>Node2</title>
<g id="a_node2"><a xlink:href="../../d2/dbb/classKFParticleBaseSIMD.html#affe2b18e82526005b6f34cd213a1f579" target="_top" xlink:title="KFParticleBaseSIMD\l::AddDaughterWithEnergyFitMC">
<polygon fill="none" stroke="#000000" points="154,-161.5 154,-193.5 330,-193.5 330,-161.5 154,-161.5"/>
<text text-anchor="start" x="162" y="-180.5" font-family="FreeSans" font-size="10.00" fill="#000000">KFParticleBaseSIMD</text>
<text text-anchor="middle" x="242" y="-168.5" font-family="FreeSans" font-size="10.00" fill="#000000">::AddDaughterWithEnergyFitMC</text>
</a>
</g>
</g>
<!-- Node1&#45;&gt;Node2 -->
<g id="edge1" class="edge">
<title>Node1&#45;&gt;Node2</title>
<path fill="none" stroke="#191970" d="M128.2425,-148.9052C144.6768,-153.0362 162.131,-157.4236 178.3045,-161.4891"/>
<polygon fill="#191970" stroke="#191970" points="128.7137,-145.4148 118.1621,-146.3714 127.0072,-152.2037 128.7137,-145.4148"/>
</g>
<!-- Node5 -->
<g id="node5" class="node">
<title>Node5</title>
<g id="a_node5"><a xlink:href="../../d2/dbb/classKFParticleBaseSIMD.html#a39c874e11dcc9e5346c2eb6fdd056f5e" target="_top" xlink:title="KFParticleBaseSIMD\l::Construct">
<polygon fill="none" stroke="#000000" points="543.5,-115.5 543.5,-147.5 659.5,-147.5 659.5,-115.5 543.5,-115.5"/>
<text text-anchor="start" x="551.5" y="-134.5" font-family="FreeSans" font-size="10.00" fill="#000000">KFParticleBaseSIMD</text>
<text text-anchor="middle" x="601.5" y="-122.5" font-family="FreeSans" font-size="10.00" fill="#000000">::Construct</text>
</a>
</g>
</g>
<!-- Node1&#45;&gt;Node5 -->
<g id="edge21" class="edge">
<title>Node1&#45;&gt;Node5</title>
<path fill="none" stroke="#191970" d="M128.2199,-131.5C236.1463,-131.5 442.5662,-131.5 543.3043,-131.5"/>
<polygon fill="#191970" stroke="#191970" points="128.0898,-128.0001 118.0897,-131.5 128.0897,-135.0001 128.0898,-128.0001"/>
</g>
<!-- Node18 -->
<g id="node18" class="node">
<title>Node18</title>
<g id="a_node18"><a xlink:href="../../d2/dbb/classKFParticleBaseSIMD.html#a5583455557dbd2de22cc0adbee47b3be" target="_top" xlink:title="KFParticleBaseSIMD\l::SetNonlinearMassConstraint">
<polygon fill="none" stroke="#000000" points="518,-64.5 518,-96.5 685,-96.5 685,-64.5 518,-64.5"/>
<text text-anchor="start" x="526" y="-83.5" font-family="FreeSans" font-size="10.00" fill="#000000">KFParticleBaseSIMD</text>
<text text-anchor="middle" x="601.5" y="-71.5" font-family="FreeSans" font-size="10.00" fill="#000000">::SetNonlinearMassConstraint</text>
</a>
</g>
</g>
<!-- Node1&#45;&gt;Node18 -->
<g id="edge22" class="edge">
<title>Node1&#45;&gt;Node18</title>
<path fill="none" stroke="#191970" d="M128.3296,-124.9824C227.801,-115.6311 410.7764,-98.4298 517.7008,-88.3779"/>
<polygon fill="#191970" stroke="#191970" points="127.7182,-121.5243 118.0897,-125.945 128.3734,-128.4936 127.7182,-121.5243"/>
</g>
<!-- Node3 -->
<g id="node3" class="node">
<title>Node3</title>
<g id="a_node3"><a xlink:href="../../d2/dbb/classKFParticleBaseSIMD.html#a2ee0cc29dedac6767db45ae197a0fe35" target="_top" xlink:title="KFParticleBaseSIMD\l::AddDaughter">
<polygon fill="none" stroke="#000000" points="366,-164.5 366,-196.5 482,-196.5 482,-164.5 366,-164.5"/>
<text text-anchor="start" x="374" y="-183.5" font-family="FreeSans" font-size="10.00" fill="#000000">KFParticleBaseSIMD</text>
<text text-anchor="middle" x="424" y="-171.5" font-family="FreeSans" font-size="10.00" fill="#000000">::AddDaughter</text>
</a>
</g>
</g>
<!-- Node2&#45;&gt;Node3 -->
<g id="edge2" class="edge">
<title>Node2&#45;&gt;Node3</title>
<path fill="none" stroke="#191970" d="M340.3237,-179.1207C349.0414,-179.2644 357.6689,-179.4066 365.8833,-179.542"/>
<polygon fill="#191970" stroke="#191970" points="340.1242,-175.6171 330.0678,-178.9517 340.0088,-182.6161 340.1242,-175.6171"/>
</g>
<!-- Node4 -->
<g id="node4" class="node">
<title>Node4</title>
<g id="a_node4"><a xlink:href="../../db/dcc/classKFParticleSIMD.html#afd134dee761fd11c9f22c05a0a5262ca" target="_top" xlink:title="KFParticleSIMD::AddDaughter">
<polygon fill="none" stroke="#000000" points="518.5,-217.5 518.5,-237.5 684.5,-237.5 684.5,-217.5 518.5,-217.5"/>
<text text-anchor="middle" x="601.5" y="-224.5" font-family="FreeSans" font-size="10.00" fill="#000000">KFParticleSIMD::AddDaughter</text>
</a>
</g>
</g>
<!-- Node3&#45;&gt;Node4 -->
<g id="edge3" class="edge">
<title>Node3&#45;&gt;Node4</title>
<path fill="none" stroke="#191970" d="M485.3664,-199.4113C496.2045,-202.5703 507.4074,-205.7205 518,-208.5 529.9356,-211.632 542.909,-214.7303 554.9927,-217.4875"/>
<polygon fill="#191970" stroke="#191970" points="486.1251,-195.9861 475.5436,-196.5179 484.1472,-202.7009 486.1251,-195.9861"/>
</g>
<!-- Node3&#45;&gt;Node5 -->
<g id="edge4" class="edge">
<title>Node3&#45;&gt;Node5</title>
<path fill="none" stroke="#191970" d="M491.9379,-161.7453C508.8564,-157.0749 526.8442,-152.1092 543.2493,-147.5805"/>
<polygon fill="#191970" stroke="#191970" points="490.8282,-158.4207 482.1201,-164.4556 492.691,-165.1683 490.8282,-158.4207"/>
</g>
<!-- Node16 -->
<g id="node16" class="node">
<title>Node16</title>
<g id="a_node16"><a xlink:href="../../d2/dbb/classKFParticleBaseSIMD.html#a2cc73a1a3812b9e58ab777131d74b058" target="_top" xlink:title="KFParticleBaseSIMD\l::operator+=">
<polygon fill="none" stroke="#000000" points="543.5,-166.5 543.5,-198.5 659.5,-198.5 659.5,-166.5 543.5,-166.5"/>
<text text-anchor="start" x="551.5" y="-185.5" font-family="FreeSans" font-size="10.00" fill="#000000">KFParticleBaseSIMD</text>
<text text-anchor="middle" x="601.5" y="-173.5" font-family="FreeSans" font-size="10.00" fill="#000000">::operator+=</text>
</a>
</g>
</g>
<!-- Node3&#45;&gt;Node16 -->
<g id="edge19" class="edge">
<title>Node3&#45;&gt;Node16</title>
<path fill="none" stroke="#191970" d="M492.4125,-181.2708C509.1925,-181.4599 526.9976,-181.6605 543.2493,-181.8437"/>
<polygon fill="#191970" stroke="#191970" points="492.159,-177.7679 482.1201,-181.1549 492.08,-184.7674 492.159,-177.7679"/>
</g>
<!-- Node6 -->
<g id="node6" class="node">
<title>Node6</title>
<g id="a_node6"><a xlink:href="../../db/dcc/classKFParticleSIMD.html#afd250069ba85fae638a7e1285e41c320" target="_top" xlink:title="KFParticleSIMD::Construct">
<polygon fill="none" stroke="#000000" points="726.5,-121.5 726.5,-141.5 873.5,-141.5 873.5,-121.5 726.5,-121.5"/>
<text text-anchor="middle" x="800" y="-128.5" font-family="FreeSans" font-size="10.00" fill="#000000">KFParticleSIMD::Construct</text>
</a>
</g>
</g>
<!-- Node5&#45;&gt;Node6 -->
<g id="edge5" class="edge">
<title>Node5&#45;&gt;Node6</title>
<path fill="none" stroke="#191970" d="M669.9245,-131.5C688.0956,-131.5 707.7971,-131.5 726.2391,-131.5"/>
<polygon fill="#191970" stroke="#191970" points="669.7154,-128.0001 659.7153,-131.5 669.7153,-135.0001 669.7154,-128.0001"/>
</g>
<!-- Node7 -->
<g id="node7" class="node">
<title>Node7</title>
<g id="a_node7"><a xlink:href="../../d2/d3d/classKFParticleFinder.html#a555c027cc00bc7d9461470d5c200b993" target="_top" xlink:title="KFParticleFinder::ConstructV0">
<polygon fill="none" stroke="#000000" points="915,-57.5 915,-77.5 1080,-77.5 1080,-57.5 915,-57.5"/>
<text text-anchor="middle" x="997.5" y="-64.5" font-family="FreeSans" font-size="10.00" fill="#000000">KFParticleFinder::ConstructV0</text>
</a>
</g>
</g>
<!-- Node6&#45;&gt;Node7 -->
<g id="edge6" class="edge">
<title>Node6&#45;&gt;Node7</title>
<path fill="none" stroke="#191970" d="M832.2027,-117.4319C855.0139,-107.8305 886.5018,-95.3053 915,-86.5 925.6725,-83.2024 937.2794,-80.1882 948.3252,-77.5798"/>
<polygon fill="#191970" stroke="#191970" points="830.8249,-114.2144 822.9918,-121.3483 833.564,-120.6563 830.8249,-114.2144"/>
</g>
<!-- Node12 -->
<g id="node12" class="node">
<title>Node12</title>
<g id="a_node12"><a xlink:href="../../d2/d3d/classKFParticleFinder.html#a845f4b9e798f34dad97691ddd0df6b07" target="_top" xlink:title="KFParticleFinder::Construct\lTrackV0Cand">
<polygon fill="none" stroke="#000000" points="921,-189.5 921,-221.5 1074,-221.5 1074,-189.5 921,-189.5"/>
<text text-anchor="start" x="929" y="-208.5" font-family="FreeSans" font-size="10.00" fill="#000000">KFParticleFinder::Construct</text>
<text text-anchor="middle" x="997.5" y="-196.5" font-family="FreeSans" font-size="10.00" fill="#000000">TrackV0Cand</text>
</a>
</g>
</g>
<!-- Node6&#45;&gt;Node12 -->
<g id="edge12" class="edge">
<title>Node6&#45;&gt;Node12</title>
<path fill="none" stroke="#191970" d="M836.4304,-145.1499C869.7976,-157.652 919.2181,-176.1691 954.5075,-189.3914"/>
<polygon fill="#191970" stroke="#191970" points="837.6397,-141.8654 827.0474,-141.6342 835.1836,-148.4204 837.6397,-141.8654"/>
</g>
<!-- Node14 -->
<g id="node14" class="node">
<title>Node14</title>
<g id="a_node14"><a xlink:href="../../d2/d3d/classKFParticleFinder.html#a4ef976ffd76ed2d50940a5d5bb766795" target="_top" xlink:title="KFParticleFinder::Combine\lPartPart">
<polygon fill="none" stroke="#000000" points="1131.5,-141.5 1131.5,-173.5 1279.5,-173.5 1279.5,-141.5 1131.5,-141.5"/>
<text text-anchor="start" x="1139.5" y="-160.5" font-family="FreeSans" font-size="10.00" fill="#000000">KFParticleFinder::Combine</text>
<text text-anchor="middle" x="1205.5" y="-148.5" font-family="FreeSans" font-size="10.00" fill="#000000">PartPart</text>
</a>
</g>
</g>
<!-- Node6&#45;&gt;Node14 -->
<g id="edge15" class="edge">
<title>Node6&#45;&gt;Node14</title>
<path fill="none" stroke="#191970" d="M883.9789,-136.8846C956.9222,-141.5616 1061.5449,-148.2698 1131.4199,-152.7501"/>
<polygon fill="#191970" stroke="#191970" points="884.1069,-133.3857 873.9034,-136.2386 883.659,-140.3714 884.1069,-133.3857"/>
</g>
<!-- Node15 -->
<g id="node15" class="node">
<title>Node15</title>
<g id="a_node15"><a xlink:href="../../d2/d3d/classKFParticleFinder.html#a76e093479fb04d0360e1cca0e6aa5d01" target="_top" xlink:title="KFParticleFinder::Neutral\lDaughterDecay">
<polygon fill="none" stroke="#000000" points="927.5,-96.5 927.5,-128.5 1067.5,-128.5 1067.5,-96.5 927.5,-96.5"/>
<text text-anchor="start" x="935.5" y="-115.5" font-family="FreeSans" font-size="10.00" fill="#000000">KFParticleFinder::Neutral</text>
<text text-anchor="middle" x="997.5" y="-103.5" font-family="FreeSans" font-size="10.00" fill="#000000">DaughterDecay</text>
</a>
</g>
</g>
<!-- Node6&#45;&gt;Node15 -->
<g id="edge17" class="edge">
<title>Node6&#45;&gt;Node15</title>
<path fill="none" stroke="#191970" d="M883.5791,-123.4595C898.2061,-122.0523 913.2881,-120.6014 927.4997,-119.2342"/>
<polygon fill="#191970" stroke="#191970" points="883.1606,-119.9835 873.5417,-124.4251 883.8309,-126.9513 883.1606,-119.9835"/>
</g>
<!-- Node8 -->
<g id="node8" class="node">
<title>Node8</title>
<g id="a_node8"><a xlink:href="../../d2/d3d/classKFParticleFinder.html#a3f6967ae8b6839bc7de48991eaa812ef" target="_top" xlink:title="KFParticleFinder::Find2Daughter\lDecay">
<polygon fill="none" stroke="#000000" points="1116,-51.5 1116,-83.5 1295,-83.5 1295,-51.5 1116,-51.5"/>
<text text-anchor="start" x="1124" y="-70.5" font-family="FreeSans" font-size="10.00" fill="#000000">KFParticleFinder::Find2Daughter</text>
<text text-anchor="middle" x="1205.5" y="-58.5" font-family="FreeSans" font-size="10.00" fill="#000000">Decay</text>
</a>
</g>
</g>
<!-- Node7&#45;&gt;Node8 -->
<g id="edge7" class="edge">
<title>Node7&#45;&gt;Node8</title>
<path fill="none" stroke="#191970" d="M1090.0359,-67.5C1098.6336,-67.5 1107.3371,-67.5 1115.9075,-67.5"/>
<polygon fill="#191970" stroke="#191970" points="1090.0059,-64.0001 1080.0059,-67.5 1090.0058,-71.0001 1090.0059,-64.0001"/>
</g>
<!-- Node11 -->
<g id="node11" class="node">
<title>Node11</title>
<g id="a_node11"><a xlink:href="../../d2/d3d/classKFParticleFinder.html#ae68561ffcd9f3bf3e8230604678105c5" target="_top" xlink:title="KFParticleFinder::Construct\lPrimaryBG">
<polygon fill="none" stroke="#000000" points="1129,-.5 1129,-32.5 1282,-32.5 1282,-.5 1129,-.5"/>
<text text-anchor="start" x="1137" y="-19.5" font-family="FreeSans" font-size="10.00" fill="#000000">KFParticleFinder::Construct</text>
<text text-anchor="middle" x="1205.5" y="-7.5" font-family="FreeSans" font-size="10.00" fill="#000000">PrimaryBG</text>
</a>
</g>
</g>
<!-- Node7&#45;&gt;Node11 -->
<g id="edge10" class="edge">
<title>Node7&#45;&gt;Node11</title>
<path fill="none" stroke="#191970" d="M1048.4237,-55.0139C1075.9977,-48.253 1110.3723,-39.8246 1139.9284,-32.5777"/>
<polygon fill="#191970" stroke="#191970" points="1047.4729,-51.6433 1038.5941,-57.424 1049.1399,-58.4419 1047.4729,-51.6433"/>
</g>
<!-- Node9 -->
<g id="node9" class="node">
<title>Node9</title>
<g id="a_node9"><a xlink:href="../../d2/d3d/classKFParticleFinder.html#a3ad831d1b28cce4689501e369f561926" target="_top" xlink:title="KFParticleFinder::FindParticles">
<polygon fill="none" stroke="#000000" points="1331,-102.5 1331,-122.5 1498,-122.5 1498,-102.5 1331,-102.5"/>
<text text-anchor="middle" x="1414.5" y="-109.5" font-family="FreeSans" font-size="10.00" fill="#000000">KFParticleFinder::FindParticles</text>
</a>
</g>
</g>
<!-- Node8&#45;&gt;Node9 -->
<g id="edge8" class="edge">
<title>Node8&#45;&gt;Node9</title>
<path fill="none" stroke="#191970" d="M1290.1457,-85.7251C1316.7047,-91.4436 1345.0401,-97.5445 1367.9448,-102.4761"/>
<polygon fill="#191970" stroke="#191970" points="1290.5813,-82.2388 1280.0686,-83.5555 1289.1079,-89.082 1290.5813,-82.2388"/>
</g>
<!-- Node10 -->
<g id="node10" class="node">
<title>Node10</title>
<g id="a_node10"><a xlink:href="../../db/d6d/classKFParticleTopoReconstructor.html#a3013eefd4e16b74ae39c531678623d08" target="_top" xlink:title="KFParticleTopoReconstructor\l::ReconstructParticles">
<polygon fill="none" stroke="#000000" points="1534,-96.5 1534,-128.5 1694,-128.5 1694,-96.5 1534,-96.5"/>
<text text-anchor="start" x="1542" y="-115.5" font-family="FreeSans" font-size="10.00" fill="#000000">KFParticleTopoReconstructor</text>
<text text-anchor="middle" x="1614" y="-103.5" font-family="FreeSans" font-size="10.00" fill="#000000">::ReconstructParticles</text>
</a>
</g>
</g>
<!-- Node9&#45;&gt;Node10 -->
<g id="edge9" class="edge">
<title>Node9&#45;&gt;Node10</title>
<path fill="none" stroke="#191970" d="M1508.2835,-112.5C1516.8763,-112.5 1525.5283,-112.5 1533.9834,-112.5"/>
<polygon fill="#191970" stroke="#191970" points="1508.2389,-109.0001 1498.2388,-112.5 1508.2388,-116.0001 1508.2389,-109.0001"/>
</g>
<!-- Node11&#45;&gt;Node9 -->
<g id="edge11" class="edge">
<title>Node11&#45;&gt;Node9</title>
<path fill="none" stroke="#191970" d="M1280.4,-35.8144C1285.3921,-37.5933 1290.2999,-39.4893 1295,-41.5 1335.3804,-58.775 1378.7441,-87.3728 1400.4396,-102.4624"/>
<polygon fill="#191970" stroke="#191970" points="1281.3228,-32.4317 1270.7285,-32.5386 1279.0771,-39.0617 1281.3228,-32.4317"/>
</g>
<!-- Node13 -->
<g id="node13" class="node">
<title>Node13</title>
<g id="a_node13"><a xlink:href="../../d2/d3d/classKFParticleFinder.html#a2073bafab2ee9126f3fbf0bef15f68e3" target="_top" xlink:title="KFParticleFinder::FindTrack\lV0Decay">
<polygon fill="none" stroke="#000000" points="1130,-192.5 1130,-224.5 1281,-224.5 1281,-192.5 1130,-192.5"/>
<text text-anchor="start" x="1138" y="-211.5" font-family="FreeSans" font-size="10.00" fill="#000000">KFParticleFinder::FindTrack</text>
<text text-anchor="middle" x="1205.5" y="-199.5" font-family="FreeSans" font-size="10.00" fill="#000000">V0Decay</text>
</a>
</g>
</g>
<!-- Node12&#45;&gt;Node13 -->
<g id="edge13" class="edge">
<title>Node12&#45;&gt;Node13</title>
<path fill="none" stroke="#191970" d="M1084.4061,-206.7535C1099.4796,-206.9709 1115.0457,-207.1954 1129.7907,-207.408"/>
<polygon fill="#191970" stroke="#191970" points="1084.1149,-203.249 1074.0654,-206.6043 1084.0138,-210.2483 1084.1149,-203.249"/>
</g>
<!-- Node13&#45;&gt;Node9 -->
<g id="edge14" class="edge">
<title>Node13&#45;&gt;Node9</title>
<path fill="none" stroke="#191970" d="M1280.4,-189.1856C1285.3921,-187.4067 1290.2999,-185.5107 1295,-183.5 1335.3804,-166.225 1378.7441,-137.6272 1400.4396,-122.5376"/>
<polygon fill="#191970" stroke="#191970" points="1279.0771,-185.9383 1270.7285,-192.4614 1281.3228,-192.5683 1279.0771,-185.9383"/>
</g>
<!-- Node14&#45;&gt;Node9 -->
<g id="edge16" class="edge">
<title>Node14&#45;&gt;Node9</title>
<path fill="none" stroke="#191970" d="M1289.8612,-139.3361C1316.4509,-133.6111 1344.8486,-127.4967 1367.8118,-122.5525"/>
<polygon fill="#191970" stroke="#191970" points="1288.8133,-135.9814 1279.7741,-141.508 1290.2868,-142.8246 1288.8133,-135.9814"/>
</g>
<!-- Node15&#45;&gt;Node9 -->
<g id="edge18" class="edge">
<title>Node15&#45;&gt;Node9</title>
<path fill="none" stroke="#191970" d="M1077.7811,-112.5C1150.3961,-112.5 1256.9282,-112.5 1330.6336,-112.5"/>
<polygon fill="#191970" stroke="#191970" points="1077.7669,-109.0001 1067.7668,-112.5 1077.7668,-116.0001 1077.7669,-109.0001"/>
</g>
<!-- Node17 -->
<g id="node17" class="node">
<title>Node17</title>
<g id="a_node17"><a xlink:href="../../db/dcc/classKFParticleSIMD.html#a7a8fccbeb58437f20fee5cb68e6f1259" target="_top" xlink:title="KFParticleSIMD::operator+=">
<polygon fill="none" stroke="#000000" points="721,-172.5 721,-192.5 879,-192.5 879,-172.5 721,-172.5"/>
<text text-anchor="middle" x="800" y="-179.5" font-family="FreeSans" font-size="10.00" fill="#000000">KFParticleSIMD::operator+=</text>
</a>
</g>
</g>
<!-- Node16&#45;&gt;Node17 -->
<g id="edge20" class="edge">
<title>Node16&#45;&gt;Node17</title>
<path fill="none" stroke="#191970" d="M669.7657,-182.5C686.1984,-182.5 703.8906,-182.5 720.776,-182.5"/>
<polygon fill="#191970" stroke="#191970" points="669.7154,-179.0001 659.7153,-182.5 669.7153,-186.0001 669.7154,-179.0001"/>
</g>
<!-- Node18&#45;&gt;Node15 -->
<g id="edge27" class="edge">
<title>Node18&#45;&gt;Node15</title>
<path fill="none" stroke="#191970" d="M695.7799,-88.1186C766.8479,-93.8614 862.7562,-101.6116 927.1951,-106.8188"/>
<polygon fill="#191970" stroke="#191970" points="695.7309,-84.6033 685.4814,-87.2864 695.167,-91.5805 695.7309,-84.6033"/>
</g>
<!-- Node19 -->
<g id="node19" class="node">
<title>Node19</title>
<g id="a_node19"><a xlink:href="../../d2/d3d/classKFParticleFinder.html#ad5a61416f528be9d0b397352f7619953" target="_top" xlink:title="KFParticleFinder::SaveV0\lPrimSecCand">
<polygon fill="none" stroke="#000000" points="729,-31.5 729,-63.5 871,-63.5 871,-31.5 729,-31.5"/>
<text text-anchor="start" x="737" y="-50.5" font-family="FreeSans" font-size="10.00" fill="#000000">KFParticleFinder::SaveV0</text>
<text text-anchor="middle" x="800" y="-38.5" font-family="FreeSans" font-size="10.00" fill="#000000">PrimSecCand</text>
</a>
</g>
</g>
<!-- Node18&#45;&gt;Node19 -->
<g id="edge23" class="edge">
<title>Node18&#45;&gt;Node19</title>
<path fill="none" stroke="#191970" d="M695.0283,-64.9512C706.3649,-63.0665 717.8013,-61.1653 728.7433,-59.3462"/>
<polygon fill="#191970" stroke="#191970" points="694.3972,-61.508 685.1066,-66.6007 695.5452,-68.4132 694.3972,-61.508"/>
</g>
<!-- Node19&#45;&gt;Node7 -->
<g id="edge24" class="edge">
<title>Node19&#45;&gt;Node7</title>
<path fill="none" stroke="#191970" d="M881.0956,-55.7122C892.1755,-56.8342 903.5619,-57.9873 914.6721,-59.1124"/>
<polygon fill="#191970" stroke="#191970" points="881.3248,-52.2176 871.023,-54.6922 880.6195,-59.182 881.3248,-52.2176"/>
</g>
<!-- Node19&#45;&gt;Node8 -->
<g id="edge25" class="edge">
<title>Node19&#45;&gt;Node8</title>
<path fill="none" stroke="#191970" d="M881.3913,-44.1145C937.3381,-42.6166 1013.2807,-42.2171 1080,-47.5 1091.657,-48.423 1103.8664,-49.8211 1115.8999,-51.4579"/>
<polygon fill="#191970" stroke="#191970" points="881.0802,-40.6218 871.1842,-44.4058 881.28,-47.619 881.0802,-40.6218"/>
</g>
<!-- Node19&#45;&gt;Node11 -->
<g id="edge26" class="edge">
<title>Node19&#45;&gt;Node11</title>
<path fill="none" stroke="#191970" d="M881.5051,-41.269C953.6987,-35.7499 1058.3073,-27.7527 1128.9624,-22.3512"/>
<polygon fill="#191970" stroke="#191970" points="880.8008,-37.8126 871.0967,-42.0647 881.3345,-44.7922 880.8008,-37.8126"/>
</g>
</g>
</svg>
