<?xml version="1.0" encoding="UTF-8" standalone="no"?>
<!DOCTYPE svg PUBLIC "-//W3C//DTD SVG 1.1//EN"
 "http://www.w3.org/Graphics/SVG/1.1/DTD/svg11.dtd">
<!-- Generated by graphviz version 2.40.1 (20161225.0304)
 -->
<!-- Title: KFParticleBaseSIMD::GetFieldValue Pages: 1 -->
<svg width="1555pt" height="545pt"
 viewBox="0.00 0.00 1555.00 545.00" xmlns="http://www.w3.org/2000/svg" xmlns:xlink="http://www.w3.org/1999/xlink">
<g id="graph0" class="graph" transform="scale(1 1) rotate(0) translate(4 541)">
<title>KFParticleBaseSIMD::GetFieldValue</title>
<!-- Node1 -->
<g id="node1" class="node">
<title>Node1</title>
<polygon fill="#bfbfbf" stroke="#000000" points="0,-232.5 0,-264.5 116,-264.5 116,-232.5 0,-232.5"/>
<text text-anchor="start" x="8" y="-251.5" font-family="FreeSans" font-size="10.00" fill="#000000">KFParticleBaseSIMD</text>
<text text-anchor="middle" x="58" y="-239.5" font-family="FreeSans" font-size="10.00" fill="#000000">::GetFieldValue</text>
</g>
<!-- Node2 -->
<g id="node2" class="node">
<title>Node2</title>
<g id="a_node2"><a xlink:href="../../d2/dbb/classKFParticleBaseSIMD.html#acd7097a1ad5f82efff3812c01580e592" target="_top" xlink:title="KFParticleBaseSIMD\l::GetDStoParticleCBM">
<polygon fill="none" stroke="#000000" points="152,-298.5 152,-330.5 276,-330.5 276,-298.5 152,-298.5"/>
<text text-anchor="start" x="160" y="-317.5" font-family="FreeSans" font-size="10.00" fill="#000000">KFParticleBaseSIMD</text>
<text text-anchor="middle" x="214" y="-305.5" font-family="FreeSans" font-size="10.00" fill="#000000">::GetDStoParticleCBM</text>
</a>
</g>
</g>
<!-- Node1&#45;&gt;Node2 -->
<g id="edge1" class="edge">
<title>Node1&#45;&gt;Node2</title>
<path fill="none" stroke="#191970" d="M105.5631,-268.6229C128.1399,-278.1746 154.7517,-289.4334 175.962,-298.407"/>
<polygon fill="#191970" stroke="#191970" points="106.7353,-265.3185 96.1619,-264.6454 104.0078,-271.7653 106.7353,-265.3185"/>
</g>
<!-- Node18 -->
<g id="node18" class="node">
<title>Node18</title>
<g id="a_node18"><a xlink:href="../../d2/dbb/classKFParticleBaseSIMD.html#a1dbb5988ec5d1507a2b6d229cf761eb4" target="_top" xlink:title="KFParticleBaseSIMD\l::GetDStoPointCBM">
<polygon fill="none" stroke="#000000" points="156,-133.5 156,-165.5 272,-165.5 272,-133.5 156,-133.5"/>
<text text-anchor="start" x="164" y="-152.5" font-family="FreeSans" font-size="10.00" fill="#000000">KFParticleBaseSIMD</text>
<text text-anchor="middle" x="214" y="-140.5" font-family="FreeSans" font-size="10.00" fill="#000000">::GetDStoPointCBM</text>
</a>
</g>
</g>
<!-- Node1&#45;&gt;Node18 -->
<g id="edge20" class="edge">
<title>Node1&#45;&gt;Node18</title>
<path fill="none" stroke="#191970" d="M92.0191,-226.9109C121.106,-208.452 162.3141,-182.3006 188.5996,-165.6195"/>
<polygon fill="#191970" stroke="#191970" points="89.9792,-224.0602 83.4113,-232.3736 93.73,-229.9705 89.9792,-224.0602"/>
</g>
<!-- Node27 -->
<g id="node27" class="node">
<title>Node27</title>
<g id="a_node27"><a xlink:href="../../d2/dbb/classKFParticleBaseSIMD.html#acebb258c434eeecd9ebc909e364e320c" target="_top" xlink:title="KFParticleBaseSIMD\l::TransportCBM">
<polygon fill="none" stroke="#000000" points="156,-232.5 156,-264.5 272,-264.5 272,-232.5 156,-232.5"/>
<text text-anchor="start" x="164" y="-251.5" font-family="FreeSans" font-size="10.00" fill="#000000">KFParticleBaseSIMD</text>
<text text-anchor="middle" x="214" y="-239.5" font-family="FreeSans" font-size="10.00" fill="#000000">::TransportCBM</text>
</a>
</g>
</g>
<!-- Node1&#45;&gt;Node27 -->
<g id="edge33" class="edge">
<title>Node1&#45;&gt;Node27</title>
<path fill="none" stroke="#191970" d="M126.2692,-248.5C136.1378,-248.5 146.2174,-248.5 155.8628,-248.5"/>
<polygon fill="#191970" stroke="#191970" points="126.0887,-245.0001 116.0886,-248.5 126.0886,-252.0001 126.0887,-245.0001"/>
</g>
<!-- Node3 -->
<g id="node3" class="node">
<title>Node3</title>
<g id="a_node3"><a xlink:href="../../db/dcc/classKFParticleSIMD.html#ad8379c5666e84d5c1de7dd1428234744" target="_top" xlink:title="KFParticleSIMD::GetDStoParticle">
<polygon fill="none" stroke="#000000" points="322.5,-304.5 322.5,-324.5 499.5,-324.5 499.5,-304.5 322.5,-304.5"/>
<text text-anchor="middle" x="411" y="-311.5" font-family="FreeSans" font-size="10.00" fill="#000000">KFParticleSIMD::GetDStoParticle</text>
</a>
</g>
</g>
<!-- Node2&#45;&gt;Node3 -->
<g id="edge2" class="edge">
<title>Node2&#45;&gt;Node3</title>
<path fill="none" stroke="#191970" d="M286.2017,-314.5C297.9182,-314.5 310.1705,-314.5 322.2264,-314.5"/>
<polygon fill="#191970" stroke="#191970" points="286.0617,-311.0001 276.0616,-314.5 286.0616,-318.0001 286.0617,-311.0001"/>
</g>
<!-- Node17 -->
<g id="node17" class="node">
<title>Node17</title>
<g id="a_node17"><a xlink:href="../../db/dcc/classKFParticleSIMD.html#ac4bcc9cda90e1454fd9ab18bfd7bd012" target="_top" xlink:title="KFParticleSIMD::GetDStoParticleFast">
<polygon fill="none" stroke="#000000" points="312,-516.5 312,-536.5 510,-536.5 510,-516.5 312,-516.5"/>
<text text-anchor="middle" x="411" y="-523.5" font-family="FreeSans" font-size="10.00" fill="#000000">KFParticleSIMD::GetDStoParticleFast</text>
</a>
</g>
</g>
<!-- Node2&#45;&gt;Node17 -->
<g id="edge18" class="edge">
<title>Node2&#45;&gt;Node17</title>
<path fill="none" stroke="#191970" d="M226.584,-339.4857C243.1261,-370.6302 274.5241,-424.2865 312,-461.5 335.7814,-485.1149 369.4143,-505.0094 390.7123,-516.3475"/>
<polygon fill="#191970" stroke="#191970" points="229.6681,-337.8303 221.9369,-330.586 223.463,-341.0703 229.6681,-337.8303"/>
</g>
<!-- Node4 -->
<g id="node4" class="node">
<title>Node4</title>
<g id="a_node4"><a xlink:href="../../d2/d3d/classKFParticleFinder.html#a555c027cc00bc7d9461470d5c200b993" target="_top" xlink:title="KFParticleFinder::ConstructV0">
<polygon fill="none" stroke="#000000" points="546,-462.5 546,-482.5 711,-482.5 711,-462.5 546,-462.5"/>
<text text-anchor="middle" x="628.5" y="-469.5" font-family="FreeSans" font-size="10.00" fill="#000000">KFParticleFinder::ConstructV0</text>
</a>
</g>
</g>
<!-- Node3&#45;&gt;Node4 -->
<g id="edge3" class="edge">
<title>Node3&#45;&gt;Node4</title>
<path fill="none" stroke="#191970" d="M427.2857,-332.2064C459.9798,-367.5935 531.7051,-444.37 546,-452.5 553.1741,-456.5801 561.1572,-459.8322 569.2522,-462.4233"/>
<polygon fill="#191970" stroke="#191970" points="429.5773,-329.5286 420.2248,-324.5504 424.4315,-334.2743 429.5773,-329.5286"/>
</g>
<!-- Node9 -->
<g id="node9" class="node">
<title>Node9</title>
<g id="a_node9"><a xlink:href="../../d2/d3d/classKFParticleFinder.html#a845f4b9e798f34dad97691ddd0df6b07" target="_top" xlink:title="KFParticleFinder::Construct\lTrackV0Cand">
<polygon fill="none" stroke="#000000" points="760,-274.5 760,-306.5 913,-306.5 913,-274.5 760,-274.5"/>
<text text-anchor="start" x="768" y="-293.5" font-family="FreeSans" font-size="10.00" fill="#000000">KFParticleFinder::Construct</text>
<text text-anchor="middle" x="836.5" y="-281.5" font-family="FreeSans" font-size="10.00" fill="#000000">TrackV0Cand</text>
</a>
</g>
</g>
<!-- Node3&#45;&gt;Node9 -->
<g id="edge9" class="edge">
<title>Node3&#45;&gt;Node9</title>
<path fill="none" stroke="#191970" d="M441.6054,-328.7845C468.451,-340.4789 508.8859,-356.0982 546,-362.5 618.2662,-374.9651 640.1395,-381.3831 711,-362.5 751.5345,-351.6983 792.591,-324.3496 816.2389,-306.6394"/>
<polygon fill="#191970" stroke="#191970" points="442.9209,-325.5391 432.3611,-324.6779 440.079,-331.9363 442.9209,-325.5391"/>
</g>
<!-- Node11 -->
<g id="node11" class="node">
<title>Node11</title>
<g id="a_node11"><a xlink:href="../../db/dcc/classKFParticleSIMD.html#aa8fb673d2b680ca33297a1e401aa7208" target="_top" xlink:title="KFParticleSIMD::GetDistance\lFromParticleXY">
<polygon fill="none" stroke="#000000" points="548.5,-153.5 548.5,-185.5 708.5,-185.5 708.5,-153.5 548.5,-153.5"/>
<text text-anchor="start" x="556.5" y="-172.5" font-family="FreeSans" font-size="10.00" fill="#000000">KFParticleSIMD::GetDistance</text>
<text text-anchor="middle" x="628.5" y="-160.5" font-family="FreeSans" font-size="10.00" fill="#000000">FromParticleXY</text>
</a>
</g>
</g>
<!-- Node3&#45;&gt;Node11 -->
<g id="edge12" class="edge">
<title>Node3&#45;&gt;Node11</title>
<path fill="none" stroke="#191970" d="M442.1762,-299.7362C463.0715,-288.7683 490.2673,-272.312 510,-252.5 531.4103,-231.0036 521.9349,-212.9761 546,-194.5 550.3922,-191.1278 555.2382,-188.2082 560.315,-185.6807"/>
<polygon fill="#191970" stroke="#191970" points="440.3863,-296.7201 433.0684,-304.3817 443.5669,-302.9558 440.3863,-296.7201"/>
</g>
<!-- Node12 -->
<g id="node12" class="node">
<title>Node12</title>
<g id="a_node12"><a xlink:href="../../db/dcc/classKFParticleSIMD.html#aeef9436d096312a52ff8d9a2e691f115" target="_top" xlink:title="KFParticleSIMD::GetDeviation\lFromParticleXY">
<polygon fill="none" stroke="#000000" points="546.5,-321.5 546.5,-353.5 710.5,-353.5 710.5,-321.5 546.5,-321.5"/>
<text text-anchor="start" x="554.5" y="-340.5" font-family="FreeSans" font-size="10.00" fill="#000000">KFParticleSIMD::GetDeviation</text>
<text text-anchor="middle" x="628.5" y="-328.5" font-family="FreeSans" font-size="10.00" fill="#000000">FromParticleXY</text>
</a>
</g>
</g>
<!-- Node3&#45;&gt;Node12 -->
<g id="edge13" class="edge">
<title>Node3&#45;&gt;Node12</title>
<path fill="none" stroke="#191970" d="M509.9432,-324.963C522.1054,-326.2491 534.4326,-327.5526 546.3095,-328.8086"/>
<polygon fill="#191970" stroke="#191970" points="510.0919,-321.4593 499.7793,-323.8882 509.3557,-328.4204 510.0919,-321.4593"/>
</g>
<!-- Node13 -->
<g id="node13" class="node">
<title>Node13</title>
<g id="a_node13"><a xlink:href="../../db/dcc/classKFParticleSIMD.html#a742d47505d1051ecf081040ac15c9798" target="_top" xlink:title="KFParticleSIMD::GetAngle">
<polygon fill="none" stroke="#000000" points="556,-282.5 556,-302.5 701,-302.5 701,-282.5 556,-282.5"/>
<text text-anchor="middle" x="628.5" y="-289.5" font-family="FreeSans" font-size="10.00" fill="#000000">KFParticleSIMD::GetAngle</text>
</a>
</g>
</g>
<!-- Node3&#45;&gt;Node13 -->
<g id="edge14" class="edge">
<title>Node3&#45;&gt;Node13</title>
<path fill="none" stroke="#191970" d="M509.9126,-304.495C525.4121,-302.9273 541.1803,-301.3323 555.944,-299.839"/>
<polygon fill="#191970" stroke="#191970" points="509.3763,-301.0313 499.7793,-305.52 510.0808,-307.9958 509.3763,-301.0313"/>
</g>
<!-- Node14 -->
<g id="node14" class="node">
<title>Node14</title>
<g id="a_node14"><a xlink:href="../../db/dcc/classKFParticleSIMD.html#a485a5cc06021dbc62322c2cb7a706251" target="_top" xlink:title="KFParticleSIMD::GetAngleXY">
<polygon fill="none" stroke="#000000" points="549,-243.5 549,-263.5 708,-263.5 708,-243.5 549,-243.5"/>
<text text-anchor="middle" x="628.5" y="-250.5" font-family="FreeSans" font-size="10.00" fill="#000000">KFParticleSIMD::GetAngleXY</text>
</a>
</g>
</g>
<!-- Node3&#45;&gt;Node14 -->
<g id="edge15" class="edge">
<title>Node3&#45;&gt;Node14</title>
<path fill="none" stroke="#191970" d="M450.872,-301.2293C477.6289,-292.5381 513.7481,-281.2176 546,-272.5 557.6347,-269.3552 570.2804,-266.2756 582.0958,-263.5422"/>
<polygon fill="#191970" stroke="#191970" points="449.5219,-297.9882 441.1032,-304.4206 451.6957,-304.6421 449.5219,-297.9882"/>
</g>
<!-- Node15 -->
<g id="node15" class="node">
<title>Node15</title>
<g id="a_node15"><a xlink:href="../../db/dcc/classKFParticleSIMD.html#acf26f94fdfb68a8983b0b601ae86a3ff" target="_top" xlink:title="KFParticleSIMD::GetAngleRZ">
<polygon fill="none" stroke="#000000" points="549,-204.5 549,-224.5 708,-224.5 708,-204.5 549,-204.5"/>
<text text-anchor="middle" x="628.5" y="-211.5" font-family="FreeSans" font-size="10.00" fill="#000000">KFParticleSIMD::GetAngleRZ</text>
</a>
</g>
</g>
<!-- Node3&#45;&gt;Node15 -->
<g id="edge16" class="edge">
<title>Node3&#45;&gt;Node15</title>
<path fill="none" stroke="#191970" d="M436.1137,-298.849C471.9046,-276.6339 534.54,-238.1223 546,-233.5 554.7237,-229.9813 564.2418,-227.0345 573.6119,-224.5935"/>
<polygon fill="#191970" stroke="#191970" points="433.863,-296.1269 427.2174,-304.3784 437.5582,-302.0721 433.863,-296.1269"/>
</g>
<!-- Node16 -->
<g id="node16" class="node">
<title>Node16</title>
<g id="a_node16"><a xlink:href="../../db/dcc/classKFParticleSIMD.html#a75ee554571b29ef90452c2834bebdb1a" target="_top" xlink:title="KFParticleSIMD::Transport\lToParticle">
<polygon fill="none" stroke="#000000" points="555.5,-411.5 555.5,-443.5 701.5,-443.5 701.5,-411.5 555.5,-411.5"/>
<text text-anchor="start" x="563.5" y="-430.5" font-family="FreeSans" font-size="10.00" fill="#000000">KFParticleSIMD::Transport</text>
<text text-anchor="middle" x="628.5" y="-418.5" font-family="FreeSans" font-size="10.00" fill="#000000">ToParticle</text>
</a>
</g>
</g>
<!-- Node3&#45;&gt;Node16 -->
<g id="edge17" class="edge">
<title>Node3&#45;&gt;Node16</title>
<path fill="none" stroke="#191970" d="M433.9639,-330.275C460.2469,-347.8915 504.9688,-376.5458 546,-396.5 557.1455,-401.9202 569.4973,-407.014 581.1762,-411.4452"/>
<polygon fill="#191970" stroke="#191970" points="435.7177,-327.236 425.4725,-324.5365 431.7981,-333.0358 435.7177,-327.236"/>
</g>
<!-- Node5 -->
<g id="node5" class="node">
<title>Node5</title>
<g id="a_node5"><a xlink:href="../../d2/d3d/classKFParticleFinder.html#a3f6967ae8b6839bc7de48991eaa812ef" target="_top" xlink:title="KFParticleFinder::Find2Daughter\lDecay">
<polygon fill="none" stroke="#000000" points="747,-475.5 747,-507.5 926,-507.5 926,-475.5 747,-475.5"/>
<text text-anchor="start" x="755" y="-494.5" font-family="FreeSans" font-size="10.00" fill="#000000">KFParticleFinder::Find2Daughter</text>
<text text-anchor="middle" x="836.5" y="-482.5" font-family="FreeSans" font-size="10.00" fill="#000000">Decay</text>
</a>
</g>
</g>
<!-- Node4&#45;&gt;Node5 -->
<g id="edge4" class="edge">
<title>Node4&#45;&gt;Node5</title>
<path fill="none" stroke="#191970" d="M721.0359,-480.9528C729.6336,-481.7382 738.3371,-482.5332 746.9075,-483.3161"/>
<polygon fill="#191970" stroke="#191970" points="721.2828,-477.4609 711.0059,-480.0366 720.646,-484.4318 721.2828,-477.4609"/>
</g>
<!-- Node8 -->
<g id="node8" class="node">
<title>Node8</title>
<g id="a_node8"><a xlink:href="../../d2/d3d/classKFParticleFinder.html#ae68561ffcd9f3bf3e8230604678105c5" target="_top" xlink:title="KFParticleFinder::Construct\lPrimaryBG">
<polygon fill="none" stroke="#000000" points="978.5,-368.5 978.5,-400.5 1131.5,-400.5 1131.5,-368.5 978.5,-368.5"/>
<text text-anchor="start" x="986.5" y="-387.5" font-family="FreeSans" font-size="10.00" fill="#000000">KFParticleFinder::Construct</text>
<text text-anchor="middle" x="1055" y="-375.5" font-family="FreeSans" font-size="10.00" fill="#000000">PrimaryBG</text>
</a>
</g>
</g>
<!-- Node4&#45;&gt;Node8 -->
<g id="edge7" class="edge">
<title>Node4&#45;&gt;Node8</title>
<path fill="none" stroke="#191970" d="M686.8554,-460.4595C762.5615,-444.839 894.8209,-417.5498 978.4975,-400.2848"/>
<polygon fill="#191970" stroke="#191970" points="686.0962,-457.0423 677.0097,-462.491 687.5107,-463.8979 686.0962,-457.0423"/>
</g>
<!-- Node6 -->
<g id="node6" class="node">
<title>Node6</title>
<g id="a_node6"><a xlink:href="../../d2/d3d/classKFParticleFinder.html#a3ad831d1b28cce4689501e369f561926" target="_top" xlink:title="KFParticleFinder::FindParticles">
<polygon fill="none" stroke="#000000" points="1184,-280.5 1184,-300.5 1351,-300.5 1351,-280.5 1184,-280.5"/>
<text text-anchor="middle" x="1267.5" y="-287.5" font-family="FreeSans" font-size="10.00" fill="#000000">KFParticleFinder::FindParticles</text>
</a>
</g>
</g>
<!-- Node5&#45;&gt;Node6 -->
<g id="edge5" class="edge">
<title>Node5&#45;&gt;Node6</title>
<path fill="none" stroke="#191970" d="M936.2224,-478.9042C1000.0051,-467.6479 1082.7147,-446.9104 1148,-409.5 1199.061,-380.2405 1243.6085,-323.5676 1260.3931,-300.5665"/>
<polygon fill="#191970" stroke="#191970" points="935.4185,-475.4909 926.1538,-480.6305 936.6014,-482.3902 935.4185,-475.4909"/>
</g>
<!-- Node7 -->
<g id="node7" class="node">
<title>Node7</title>
<g id="a_node7"><a xlink:href="../../db/d6d/classKFParticleTopoReconstructor.html#a3013eefd4e16b74ae39c531678623d08" target="_top" xlink:title="KFParticleTopoReconstructor\l::ReconstructParticles">
<polygon fill="none" stroke="#000000" points="1387,-96.5 1387,-128.5 1547,-128.5 1547,-96.5 1387,-96.5"/>
<text text-anchor="start" x="1395" y="-115.5" font-family="FreeSans" font-size="10.00" fill="#000000">KFParticleTopoReconstructor</text>
<text text-anchor="middle" x="1467" y="-103.5" font-family="FreeSans" font-size="10.00" fill="#000000">::ReconstructParticles</text>
</a>
</g>
</g>
<!-- Node6&#45;&gt;Node7 -->
<g id="edge6" class="edge">
<title>Node6&#45;&gt;Node7</title>
<path fill="none" stroke="#191970" d="M1286.6724,-273.3938C1325.1742,-239.0413 1411.4136,-162.0958 1448.959,-128.5967"/>
<polygon fill="#191970" stroke="#191970" points="1283.9292,-271.1508 1278.7976,-280.4199 1288.5895,-276.374 1283.9292,-271.1508"/>
</g>
<!-- Node8&#45;&gt;Node6 -->
<g id="edge8" class="edge">
<title>Node8&#45;&gt;Node6</title>
<path fill="none" stroke="#191970" d="M1100.9388,-364.1788C1145.3152,-344.5488 1210.6787,-315.6351 1244.8304,-300.528"/>
<polygon fill="#191970" stroke="#191970" points="1099.2593,-361.0945 1091.5301,-368.3408 1102.0912,-367.4962 1099.2593,-361.0945"/>
</g>
<!-- Node10 -->
<g id="node10" class="node">
<title>Node10</title>
<g id="a_node10"><a xlink:href="../../d2/d3d/classKFParticleFinder.html#a2073bafab2ee9126f3fbf0bef15f68e3" target="_top" xlink:title="KFParticleFinder::FindTrack\lV0Decay">
<polygon fill="none" stroke="#000000" points="979.5,-274.5 979.5,-306.5 1130.5,-306.5 1130.5,-274.5 979.5,-274.5"/>
<text text-anchor="start" x="987.5" y="-293.5" font-family="FreeSans" font-size="10.00" fill="#000000">KFParticleFinder::FindTrack</text>
<text text-anchor="middle" x="1055" y="-281.5" font-family="FreeSans" font-size="10.00" fill="#000000">V0Decay</text>
</a>
</g>
</g>
<!-- Node9&#45;&gt;Node10 -->
<g id="edge10" class="edge">
<title>Node9&#45;&gt;Node10</title>
<path fill="none" stroke="#191970" d="M923.377,-290.5C941.8363,-290.5 961.1858,-290.5 979.1937,-290.5"/>
<polygon fill="#191970" stroke="#191970" points="923.2277,-287.0001 913.2277,-290.5 923.2277,-294.0001 923.2277,-287.0001"/>
</g>
<!-- Node10&#45;&gt;Node6 -->
<g id="edge11" class="edge">
<title>Node10&#45;&gt;Node6</title>
<path fill="none" stroke="#191970" d="M1140.7739,-290.5C1155.0036,-290.5 1169.7426,-290.5 1183.9171,-290.5"/>
<polygon fill="#191970" stroke="#191970" points="1140.5179,-287.0001 1130.5179,-290.5 1140.5178,-294.0001 1140.5179,-287.0001"/>
</g>
<!-- Node17&#45;&gt;Node5 -->
<g id="edge19" class="edge">
<title>Node17&#45;&gt;Node5</title>
<path fill="none" stroke="#191970" d="M520.2093,-532.9526C577.2991,-534.6077 648.1855,-533.9647 711,-525.5 737.1745,-521.9728 765.6381,-514.5679 788.831,-507.5664"/>
<polygon fill="#191970" stroke="#191970" points="520.1861,-529.4502 510.08,-532.6308 519.9638,-536.4466 520.1861,-529.4502"/>
</g>
<!-- Node19 -->
<g id="node19" class="node">
<title>Node19</title>
<g id="a_node19"><a xlink:href="../../db/dcc/classKFParticleSIMD.html#adf768a35209bb2f98adf8a12e21a09d4" target="_top" xlink:title="KFParticleSIMD::GetDStoPoint">
<polygon fill="none" stroke="#000000" points="328,-81.5 328,-101.5 494,-101.5 494,-81.5 328,-81.5"/>
<text text-anchor="middle" x="411" y="-88.5" font-family="FreeSans" font-size="10.00" fill="#000000">KFParticleSIMD::GetDStoPoint</text>
</a>
</g>
</g>
<!-- Node18&#45;&gt;Node19 -->
<g id="edge21" class="edge">
<title>Node18&#45;&gt;Node19</title>
<path fill="none" stroke="#191970" d="M278.3464,-130.5554C311.2093,-120.88 349.861,-109.5003 376.9373,-101.5286"/>
<polygon fill="#191970" stroke="#191970" points="276.957,-127.3158 268.3526,-133.4977 278.934,-134.0309 276.957,-127.3158"/>
</g>
<!-- Node20 -->
<g id="node20" class="node">
<title>Node20</title>
<g id="a_node20"><a xlink:href="../../db/dcc/classKFParticleSIMD.html#a2ebfe06b454da6d2b7c5d0bfef26e9ca" target="_top" xlink:title="KFParticleSIMD::GetDistance\lFromVertexXY">
<polygon fill="none" stroke="#000000" points="548.5,-102.5 548.5,-134.5 708.5,-134.5 708.5,-102.5 548.5,-102.5"/>
<text text-anchor="start" x="556.5" y="-121.5" font-family="FreeSans" font-size="10.00" fill="#000000">KFParticleSIMD::GetDistance</text>
<text text-anchor="middle" x="628.5" y="-109.5" font-family="FreeSans" font-size="10.00" fill="#000000">FromVertexXY</text>
</a>
</g>
</g>
<!-- Node19&#45;&gt;Node20 -->
<g id="edge22" class="edge">
<title>Node19&#45;&gt;Node20</title>
<path fill="none" stroke="#191970" d="M501.7499,-102.7655C517.2039,-104.6839 533.1567,-106.6643 548.3129,-108.5457"/>
<polygon fill="#191970" stroke="#191970" points="502.0349,-99.2741 491.6799,-101.5154 501.1725,-106.2208 502.0349,-99.2741"/>
</g>
<!-- Node21 -->
<g id="node21" class="node">
<title>Node21</title>
<g id="a_node21"><a xlink:href="../../db/dcc/classKFParticleSIMD.html#a0007ac45e27ad78d3481c143dd3d6dcf" target="_top" xlink:title="KFParticleSIMD::GetDeviation\lFromVertexXY">
<polygon fill="none" stroke="#000000" points="546.5,-.5 546.5,-32.5 710.5,-32.5 710.5,-.5 546.5,-.5"/>
<text text-anchor="start" x="554.5" y="-19.5" font-family="FreeSans" font-size="10.00" fill="#000000">KFParticleSIMD::GetDeviation</text>
<text text-anchor="middle" x="628.5" y="-7.5" font-family="FreeSans" font-size="10.00" fill="#000000">FromVertexXY</text>
</a>
</g>
</g>
<!-- Node19&#45;&gt;Node21 -->
<g id="edge23" class="edge">
<title>Node19&#45;&gt;Node21</title>
<path fill="none" stroke="#191970" d="M446.1629,-77.8125C473.2865,-67.4163 511.8209,-52.9964 546,-41.5 554.9367,-38.4941 564.4712,-35.4536 573.7681,-32.5776"/>
<polygon fill="#191970" stroke="#191970" points="444.7914,-74.59 436.7155,-81.4478 447.3053,-81.123 444.7914,-74.59"/>
</g>
<!-- Node23 -->
<g id="node23" class="node">
<title>Node23</title>
<g id="a_node23"><a xlink:href="../../db/dcc/classKFParticleSIMD.html#ac4c896519f2acc22953b5b943bc8e08a" target="_top" xlink:title="KFParticleSIMD::Transport\lToPoint">
<polygon fill="none" stroke="#000000" points="555.5,-51.5 555.5,-83.5 701.5,-83.5 701.5,-51.5 555.5,-51.5"/>
<text text-anchor="start" x="563.5" y="-70.5" font-family="FreeSans" font-size="10.00" fill="#000000">KFParticleSIMD::Transport</text>
<text text-anchor="middle" x="628.5" y="-58.5" font-family="FreeSans" font-size="10.00" fill="#000000">ToPoint</text>
</a>
</g>
</g>
<!-- Node19&#45;&gt;Node23 -->
<g id="edge25" class="edge">
<title>Node19&#45;&gt;Node23</title>
<path fill="none" stroke="#191970" d="M504.1618,-81.2201C521.2772,-79.3315 538.9187,-77.3848 555.3428,-75.5725"/>
<polygon fill="#191970" stroke="#191970" points="503.7142,-77.7481 494.1584,-82.3239 504.482,-84.7059 503.7142,-77.7481"/>
</g>
<!-- Node22 -->
<g id="node22" class="node">
<title>Node22</title>
<g id="a_node22"><a xlink:href="../../db/dcc/classKFParticleSIMD.html#a1b524c1e7e92bcb25417e072198676da" target="_top" xlink:title="KFParticleSIMD::GetDeviation\lFromVertexXY">
<polygon fill="none" stroke="#000000" points="754.5,-.5 754.5,-32.5 918.5,-32.5 918.5,-.5 754.5,-.5"/>
<text text-anchor="start" x="762.5" y="-19.5" font-family="FreeSans" font-size="10.00" fill="#000000">KFParticleSIMD::GetDeviation</text>
<text text-anchor="middle" x="836.5" y="-7.5" font-family="FreeSans" font-size="10.00" fill="#000000">FromVertexXY</text>
</a>
</g>
</g>
<!-- Node21&#45;&gt;Node22 -->
<g id="edge24" class="edge">
<title>Node21&#45;&gt;Node22</title>
<path fill="none" stroke="#191970" d="M720.8474,-16.5C731.9602,-16.5 743.2528,-16.5 754.2089,-16.5"/>
<polygon fill="#191970" stroke="#191970" points="720.7071,-13.0001 710.7071,-16.5 720.7071,-20.0001 720.7071,-13.0001"/>
</g>
<!-- Node23&#45;&gt;Node9 -->
<g id="edge28" class="edge">
<title>Node23&#45;&gt;Node9</title>
<path fill="none" stroke="#191970" d="M708.5562,-90.0303C709.3971,-90.8255 710.2125,-91.6484 711,-92.5 761.6657,-147.2884 698.249,-200.0011 747,-256.5 753.4066,-263.9248 761.614,-269.7332 770.4519,-274.2758"/>
<polygon fill="#191970" stroke="#191970" points="710.39,-87.0201 700.3639,-83.5952 706.0659,-92.5249 710.39,-87.0201"/>
</g>
<!-- Node24 -->
<g id="node24" class="node">
<title>Node24</title>
<g id="a_node24"><a xlink:href="../../d2/d3d/classKFParticleFinder.html#a370264d09a6bfbb50da1113abd0db15a" target="_top" xlink:title="KFParticleFinder::ExtrapolateToPV">
<polygon fill="none" stroke="#000000" points="962,-234.5 962,-254.5 1148,-254.5 1148,-234.5 962,-234.5"/>
<text text-anchor="middle" x="1055" y="-241.5" font-family="FreeSans" font-size="10.00" fill="#000000">KFParticleFinder::ExtrapolateToPV</text>
</a>
</g>
</g>
<!-- Node23&#45;&gt;Node24 -->
<g id="edge26" class="edge">
<title>Node23&#45;&gt;Node24</title>
<path fill="none" stroke="#191970" d="M694.2923,-86.6442C699.9726,-88.5364 705.6064,-90.4996 711,-92.5 836.4968,-139.0436 981.5928,-208.5148 1034.4238,-234.3475"/>
<polygon fill="#191970" stroke="#191970" points="695.3153,-83.2965 684.7231,-83.5328 693.1507,-89.9534 695.3153,-83.2965"/>
</g>
<!-- Node25 -->
<g id="node25" class="node">
<title>Node25</title>
<g id="a_node25"><a xlink:href="../../db/d6d/classKFParticleTopoReconstructor.html#a6902971d3ad7442052bf4b0195b08115" target="_top" xlink:title="KFParticleTopoReconstructor\l::TransportPVTracksToPrimVertex">
<polygon fill="none" stroke="#000000" points="964.5,-96.5 964.5,-128.5 1145.5,-128.5 1145.5,-96.5 964.5,-96.5"/>
<text text-anchor="start" x="972.5" y="-115.5" font-family="FreeSans" font-size="10.00" fill="#000000">KFParticleTopoReconstructor</text>
<text text-anchor="middle" x="1055" y="-103.5" font-family="FreeSans" font-size="10.00" fill="#000000">::TransportPVTracksToPrimVertex</text>
</a>
</g>
</g>
<!-- Node23&#45;&gt;Node25 -->
<g id="edge29" class="edge">
<title>Node23&#45;&gt;Node25</title>
<path fill="none" stroke="#191970" d="M712.0494,-77.5541C723.7818,-78.9125 735.6915,-80.263 747,-81.5 820.0569,-89.4916 902.95,-97.791 964.324,-103.7891"/>
<polygon fill="#191970" stroke="#191970" points="712.1419,-74.0413 701.8042,-76.361 711.3322,-80.9943 712.1419,-74.0413"/>
</g>
<!-- Node26 -->
<g id="node26" class="node">
<title>Node26</title>
<g id="a_node26"><a xlink:href="../../db/d6d/classKFParticleTopoReconstructor.html#ab724f4c1794600a8405b606d727b97fb" target="_top" xlink:title="KFParticleTopoReconstructor\l::GetChiToPrimVertex">
<polygon fill="none" stroke="#000000" points="1187.5,-51.5 1187.5,-83.5 1347.5,-83.5 1347.5,-51.5 1187.5,-51.5"/>
<text text-anchor="start" x="1195.5" y="-70.5" font-family="FreeSans" font-size="10.00" fill="#000000">KFParticleTopoReconstructor</text>
<text text-anchor="middle" x="1267.5" y="-58.5" font-family="FreeSans" font-size="10.00" fill="#000000">::GetChiToPrimVertex</text>
</a>
</g>
</g>
<!-- Node23&#45;&gt;Node26 -->
<g id="edge31" class="edge">
<title>Node23&#45;&gt;Node26</title>
<path fill="none" stroke="#191970" d="M711.9664,-67.5C835.5449,-67.5 1065.6469,-67.5 1187.3106,-67.5"/>
<polygon fill="#191970" stroke="#191970" points="711.8015,-64.0001 701.8014,-67.5 711.8014,-71.0001 711.8015,-64.0001"/>
</g>
<!-- Node24&#45;&gt;Node6 -->
<g id="edge27" class="edge">
<title>Node24&#45;&gt;Node6</title>
<path fill="none" stroke="#191970" d="M1111.7322,-256.6777C1123.7101,-259.2552 1136.2721,-261.9631 1148,-264.5 1172.2798,-269.752 1199.3272,-275.6342 1221.5409,-280.4735"/>
<polygon fill="#191970" stroke="#191970" points="1112.3516,-253.231 1101.8392,-254.5499 1110.8796,-260.0745 1112.3516,-253.231"/>
</g>
<!-- Node25&#45;&gt;Node7 -->
<g id="edge30" class="edge">
<title>Node25&#45;&gt;Node7</title>
<path fill="none" stroke="#191970" d="M1155.9927,-112.5C1227.1191,-112.5 1321.0431,-112.5 1386.9942,-112.5"/>
<polygon fill="#191970" stroke="#191970" points="1155.6701,-109.0001 1145.6701,-112.5 1155.67,-116.0001 1155.6701,-109.0001"/>
</g>
<!-- Node26&#45;&gt;Node7 -->
<g id="edge32" class="edge">
<title>Node26&#45;&gt;Node7</title>
<path fill="none" stroke="#191970" d="M1348.8157,-85.8419C1364.4026,-89.3577 1380.6117,-93.0139 1395.8483,-96.4507"/>
<polygon fill="#191970" stroke="#191970" points="1349.2042,-82.3417 1338.6792,-83.5555 1347.6639,-89.1701 1349.2042,-82.3417"/>
</g>
<!-- Node28 -->
<g id="node28" class="node">
<title>Node28</title>
<g id="a_node28"><a xlink:href="../../db/dcc/classKFParticleSIMD.html#a7bb77d29340b6fbf02077705f2231f02" target="_top" xlink:title="KFParticleSIMD::Transport">
<polygon fill="none" stroke="#000000" points="338,-223.5 338,-243.5 484,-243.5 484,-223.5 338,-223.5"/>
<text text-anchor="middle" x="411" y="-230.5" font-family="FreeSans" font-size="10.00" fill="#000000">KFParticleSIMD::Transport</text>
</a>
</g>
</g>
<!-- Node27&#45;&gt;Node28 -->
<g id="edge34" class="edge">
<title>Node27&#45;&gt;Node28</title>
<path fill="none" stroke="#191970" d="M282.1677,-243.3096C300.1885,-241.9374 319.7103,-240.451 337.9769,-239.0601"/>
<polygon fill="#191970" stroke="#191970" points="281.7464,-239.8314 272.041,-244.0806 282.2779,-246.8112 281.7464,-239.8314"/>
</g>
<!-- Node29 -->
<g id="node29" class="node">
<title>Node29</title>
<g id="a_node29"><a xlink:href="../../db/dcc/classKFParticleSIMD.html#a7fffef3f8325407951238797bfb3c8fc" target="_top" xlink:title="KFParticleSIMD::TransportFast">
<polygon fill="none" stroke="#000000" points="328,-432.5 328,-452.5 494,-452.5 494,-432.5 328,-432.5"/>
<text text-anchor="middle" x="411" y="-439.5" font-family="FreeSans" font-size="10.00" fill="#000000">KFParticleSIMD::TransportFast</text>
</a>
</g>
</g>
<!-- Node27&#45;&gt;Node29 -->
<g id="edge42" class="edge">
<title>Node27&#45;&gt;Node29</title>
<path fill="none" stroke="#191970" d="M251.7493,-270.0843C260.1125,-275.6061 268.662,-281.8732 276,-288.5 295.0085,-305.6661 295.3818,-314.0107 312,-333.5 343.8465,-370.8485 383.6107,-413.4868 401.5025,-432.4716"/>
<polygon fill="#191970" stroke="#191970" points="253.4751,-267.0339 243.1599,-264.6159 249.7157,-272.9388 253.4751,-267.0339"/>
</g>
<!-- Node28&#45;&gt;Node11 -->
<g id="edge36" class="edge">
<title>Node28&#45;&gt;Node11</title>
<path fill="none" stroke="#191970" d="M455.2008,-220.4938C489.4853,-210.4055 537.1834,-196.3702 573.8612,-185.5776"/>
<polygon fill="#191970" stroke="#191970" points="454.0688,-217.1784 445.4635,-223.359 456.0449,-223.8937 454.0688,-217.1784"/>
</g>
<!-- Node28&#45;&gt;Node12 -->
<g id="edge37" class="edge">
<title>Node28&#45;&gt;Node12</title>
<path fill="none" stroke="#191970" d="M434.3185,-249.0895C460.5941,-266.1452 505.0004,-293.4552 546,-311.5 554.247,-315.1297 563.1601,-318.4862 571.974,-321.4982"/>
<polygon fill="#191970" stroke="#191970" points="436.0982,-246.0711 425.816,-243.5163 432.2607,-251.9255 436.0982,-246.0711"/>
</g>
<!-- Node28&#45;&gt;Node13 -->
<g id="edge39" class="edge">
<title>Node28&#45;&gt;Node13</title>
<path fill="none" stroke="#191970" d="M453.8924,-246.4064C480.3611,-254.2424 515.0564,-264.2838 546,-272.5 558.8198,-275.9039 572.8223,-279.3864 585.5916,-282.4715"/>
<polygon fill="#191970" stroke="#191970" points="454.7585,-243.0125 444.1758,-243.5195 452.7649,-249.7226 454.7585,-243.0125"/>
</g>
<!-- Node28&#45;&gt;Node14 -->
<g id="edge40" class="edge">
<title>Node28&#45;&gt;Node14</title>
<path fill="none" stroke="#191970" d="M494.1873,-241.1494C512.1568,-242.8018 531.1134,-244.5449 548.9399,-246.1841"/>
<polygon fill="#191970" stroke="#191970" points="494.3079,-237.6458 484.0294,-240.2153 493.6669,-244.6164 494.3079,-237.6458"/>
</g>
<!-- Node28&#45;&gt;Node15 -->
<g id="edge41" class="edge">
<title>Node28&#45;&gt;Node15</title>
<path fill="none" stroke="#191970" d="M494.1873,-226.2331C512.1568,-224.6633 531.1134,-223.0073 548.9399,-221.4501"/>
<polygon fill="#191970" stroke="#191970" points="493.6869,-222.7634 484.0294,-227.1204 494.2961,-229.7368 493.6869,-222.7634"/>
</g>
<!-- Node28&#45;&gt;Node20 -->
<g id="edge35" class="edge">
<title>Node28&#45;&gt;Node20</title>
<path fill="none" stroke="#191970" d="M431.4247,-217.0742C456.9179,-197.2569 502.4798,-164.048 546,-143.5 552.9021,-140.2412 560.3284,-137.2886 567.7961,-134.6496"/>
<polygon fill="#191970" stroke="#191970" points="428.975,-214.5481 423.2807,-223.4826 433.3038,-220.0492 428.975,-214.5481"/>
</g>
<!-- Node28&#45;&gt;Node21 -->
<g id="edge38" class="edge">
<title>Node28&#45;&gt;Node21</title>
<path fill="none" stroke="#191970" d="M427.045,-215.8799C447.6742,-192.7332 483.9384,-150.3395 510,-110.5 528.9356,-81.5537 519.3685,-63.5728 546,-41.5 550.1482,-38.0619 554.7612,-35.0963 559.6262,-32.5384"/>
<polygon fill="#191970" stroke="#191970" points="424.2811,-213.7192 420.1999,-223.4965 429.4875,-218.3982 424.2811,-213.7192"/>
</g>
<!-- Node29&#45;&gt;Node5 -->
<g id="edge43" class="edge">
<title>Node29&#45;&gt;Node5</title>
<path fill="none" stroke="#191970" d="M441.1002,-456.8699C467.9211,-468.8292 508.6009,-484.9227 546,-491.5 612.5601,-503.2058 689.0333,-502.6571 746.8052,-499.4756"/>
<polygon fill="#191970" stroke="#191970" points="442.4295,-453.6296 431.8777,-452.6762 439.5319,-460.0017 442.4295,-453.6296"/>
</g>
</g>
</svg>
