<?xml version="1.0" encoding="UTF-8" standalone="no"?>
<!DOCTYPE svg PUBLIC "-//W3C//DTD SVG 1.1//EN"
 "http://www.w3.org/Graphics/SVG/1.1/DTD/svg11.dtd">
<!-- Generated by graphviz version 2.40.1 (20161225.0304)
 -->
<!-- Title: KFParticleBaseSIMD::GetMeasurement Pages: 1 -->
<svg width="1699pt" height="335pt"
 viewBox="0.00 0.00 1699.00 335.00" xmlns="http://www.w3.org/2000/svg" xmlns:xlink="http://www.w3.org/1999/xlink">
<g id="graph0" class="graph" transform="scale(1 1) rotate(0) translate(4 331)">
<title>KFParticleBaseSIMD::GetMeasurement</title>
<!-- Node1 -->
<g id="node1" class="node">
<title>Node1</title>
<polygon fill="#bfbfbf" stroke="#000000" points="0,-96.5 0,-128.5 116,-128.5 116,-96.5 0,-96.5"/>
<text text-anchor="start" x="8" y="-115.5" font-family="FreeSans" font-size="10.00" fill="#000000">KFParticleBaseSIMD</text>
<text text-anchor="middle" x="58" y="-103.5" font-family="FreeSans" font-size="10.00" fill="#000000">::GetMeasurement</text>
</g>
<!-- Node2 -->
<g id="node2" class="node">
<title>Node2</title>
<g id="a_node2"><a xlink:href="../../d2/dbb/classKFParticleBaseSIMD.html#a31bbbd45b75df2d238522b1607ee5726" target="_top" xlink:title="KFParticleBaseSIMD\l::AddDaughterWithEnergyFit">
<polygon fill="none" stroke="#000000" points="159.5,-192.5 159.5,-224.5 320.5,-224.5 320.5,-192.5 159.5,-192.5"/>
<text text-anchor="start" x="167.5" y="-211.5" font-family="FreeSans" font-size="10.00" fill="#000000">KFParticleBaseSIMD</text>
<text text-anchor="middle" x="240" y="-199.5" font-family="FreeSans" font-size="10.00" fill="#000000">::AddDaughterWithEnergyFit</text>
</a>
</g>
</g>
<!-- Node1&#45;&gt;Node2 -->
<g id="edge1" class="edge">
<title>Node1&#45;&gt;Node2</title>
<path fill="none" stroke="#191970" d="M82.7694,-135.2912C100.7985,-150.813 126.4377,-170.7763 152,-183.5 158.6826,-186.8263 165.8777,-189.7739 173.1717,-192.3697"/>
<polygon fill="#191970" stroke="#191970" points="84.8732,-132.4807 75.049,-128.514 80.2553,-137.7414 84.8732,-132.4807"/>
</g>
<!-- Node18 -->
<g id="node18" class="node">
<title>Node18</title>
<g id="a_node18"><a xlink:href="../../d2/dbb/classKFParticleBaseSIMD.html#affe2b18e82526005b6f34cd213a1f579" target="_top" xlink:title="KFParticleBaseSIMD\l::AddDaughterWithEnergyFitMC">
<polygon fill="none" stroke="#000000" points="152,-141.5 152,-173.5 328,-173.5 328,-141.5 152,-141.5"/>
<text text-anchor="start" x="160" y="-160.5" font-family="FreeSans" font-size="10.00" fill="#000000">KFParticleBaseSIMD</text>
<text text-anchor="middle" x="240" y="-148.5" font-family="FreeSans" font-size="10.00" fill="#000000">::AddDaughterWithEnergyFitMC</text>
</a>
</g>
</g>
<!-- Node1&#45;&gt;Node18 -->
<g id="edge21" class="edge">
<title>Node1&#45;&gt;Node18</title>
<path fill="none" stroke="#191970" d="M125.9681,-129.3053C142.0847,-133.2902 159.2329,-137.5301 175.2039,-141.479"/>
<polygon fill="#191970" stroke="#191970" points="126.6341,-125.8646 116.0863,-126.862 124.9539,-132.66 126.6341,-125.8646"/>
</g>
<!-- Node19 -->
<g id="node19" class="node">
<title>Node19</title>
<g id="a_node19"><a xlink:href="../../d2/dbb/classKFParticleBaseSIMD.html#afce83e9f433c1ccc698197ae2ffe36d4" target="_top" xlink:title="KFParticleBaseSIMD\l::SubtractDaughter">
<polygon fill="none" stroke="#000000" points="364,-96.5 364,-128.5 480,-128.5 480,-96.5 364,-96.5"/>
<text text-anchor="start" x="372" y="-115.5" font-family="FreeSans" font-size="10.00" fill="#000000">KFParticleBaseSIMD</text>
<text text-anchor="middle" x="422" y="-103.5" font-family="FreeSans" font-size="10.00" fill="#000000">::SubtractDaughter</text>
</a>
</g>
</g>
<!-- Node1&#45;&gt;Node19 -->
<g id="edge23" class="edge">
<title>Node1&#45;&gt;Node19</title>
<path fill="none" stroke="#191970" d="M126.3356,-112.5C194.8376,-112.5 299.1628,-112.5 363.8265,-112.5"/>
<polygon fill="#191970" stroke="#191970" points="126.0794,-109.0001 116.0794,-112.5 126.0793,-116.0001 126.0794,-109.0001"/>
</g>
<!-- Node20 -->
<g id="node20" class="node">
<title>Node20</title>
<g id="a_node20"><a xlink:href="../../d2/dbb/classKFParticleBaseSIMD.html#ad7bdaa7cad85e3157f53aedc60a9f2d8" target="_top" xlink:title="KFParticleBaseSIMD\l::SubtractFromParticle">
<polygon fill="none" stroke="#000000" points="176,-51.5 176,-83.5 304,-83.5 304,-51.5 176,-51.5"/>
<text text-anchor="start" x="184" y="-70.5" font-family="FreeSans" font-size="10.00" fill="#000000">KFParticleBaseSIMD</text>
<text text-anchor="middle" x="240" y="-58.5" font-family="FreeSans" font-size="10.00" fill="#000000">::SubtractFromParticle</text>
</a>
</g>
</g>
<!-- Node1&#45;&gt;Node20 -->
<g id="edge25" class="edge">
<title>Node1&#45;&gt;Node20</title>
<path fill="none" stroke="#191970" d="M126.079,-95.6673C142.3784,-91.6372 159.7273,-87.3476 175.8426,-83.3631"/>
<polygon fill="#191970" stroke="#191970" points="124.9539,-92.34 116.0863,-98.138 126.6341,-99.1354 124.9539,-92.34"/>
</g>
<!-- Node21 -->
<g id="node21" class="node">
<title>Node21</title>
<g id="a_node21"><a xlink:href="../../d2/dbb/classKFParticleBaseSIMD.html#a15202c15c0476824b316a7edc5783ca0" target="_top" xlink:title="KFParticleBaseSIMD\l::SubtractFromVertex">
<polygon fill="none" stroke="#000000" points="178.5,-.5 178.5,-32.5 301.5,-32.5 301.5,-.5 178.5,-.5"/>
<text text-anchor="start" x="186.5" y="-19.5" font-family="FreeSans" font-size="10.00" fill="#000000">KFParticleBaseSIMD</text>
<text text-anchor="middle" x="240" y="-7.5" font-family="FreeSans" font-size="10.00" fill="#000000">::SubtractFromVertex</text>
</a>
</g>
</g>
<!-- Node1&#45;&gt;Node21 -->
<g id="edge26" class="edge">
<title>Node1&#45;&gt;Node21</title>
<path fill="none" stroke="#191970" d="M82.7694,-89.7088C100.7985,-74.187 126.4377,-54.2237 152,-41.5 160.2466,-37.3952 169.2736,-33.8672 178.304,-30.8652"/>
<polygon fill="#191970" stroke="#191970" points="80.2553,-87.2586 75.049,-96.486 84.8732,-92.5193 80.2553,-87.2586"/>
</g>
<!-- Node3 -->
<g id="node3" class="node">
<title>Node3</title>
<g id="a_node3"><a xlink:href="../../d2/dbb/classKFParticleBaseSIMD.html#a2ee0cc29dedac6767db45ae197a0fe35" target="_top" xlink:title="KFParticleBaseSIMD\l::AddDaughter">
<polygon fill="none" stroke="#000000" points="364,-192.5 364,-224.5 480,-224.5 480,-192.5 364,-192.5"/>
<text text-anchor="start" x="372" y="-211.5" font-family="FreeSans" font-size="10.00" fill="#000000">KFParticleBaseSIMD</text>
<text text-anchor="middle" x="422" y="-199.5" font-family="FreeSans" font-size="10.00" fill="#000000">::AddDaughter</text>
</a>
</g>
</g>
<!-- Node2&#45;&gt;Node3 -->
<g id="edge2" class="edge">
<title>Node2&#45;&gt;Node3</title>
<path fill="none" stroke="#191970" d="M330.8909,-208.5C342.0938,-208.5 353.2989,-208.5 363.8271,-208.5"/>
<polygon fill="#191970" stroke="#191970" points="330.6227,-205.0001 320.6226,-208.5 330.6226,-212.0001 330.6227,-205.0001"/>
</g>
<!-- Node4 -->
<g id="node4" class="node">
<title>Node4</title>
<g id="a_node4"><a xlink:href="../../db/dcc/classKFParticleSIMD.html#afd134dee761fd11c9f22c05a0a5262ca" target="_top" xlink:title="KFParticleSIMD::AddDaughter">
<polygon fill="none" stroke="#000000" points="516,-243.5 516,-263.5 682,-263.5 682,-243.5 516,-243.5"/>
<text text-anchor="middle" x="599" y="-250.5" font-family="FreeSans" font-size="10.00" fill="#000000">KFParticleSIMD::AddDaughter</text>
</a>
</g>
</g>
<!-- Node3&#45;&gt;Node4 -->
<g id="edge3" class="edge">
<title>Node3&#45;&gt;Node4</title>
<path fill="none" stroke="#191970" d="M488.4835,-227.2872C497.7091,-229.7778 507.0787,-232.2463 516,-234.5 528.0391,-237.5413 541.1138,-240.6324 553.2483,-243.4132"/>
<polygon fill="#191970" stroke="#191970" points="489.1257,-223.8347 478.5574,-224.5852 487.287,-230.5889 489.1257,-223.8347"/>
</g>
<!-- Node5 -->
<g id="node5" class="node">
<title>Node5</title>
<g id="a_node5"><a xlink:href="../../d2/dbb/classKFParticleBaseSIMD.html#a39c874e11dcc9e5346c2eb6fdd056f5e" target="_top" xlink:title="KFParticleBaseSIMD\l::Construct">
<polygon fill="none" stroke="#000000" points="541,-192.5 541,-224.5 657,-224.5 657,-192.5 541,-192.5"/>
<text text-anchor="start" x="549" y="-211.5" font-family="FreeSans" font-size="10.00" fill="#000000">KFParticleBaseSIMD</text>
<text text-anchor="middle" x="599" y="-199.5" font-family="FreeSans" font-size="10.00" fill="#000000">::Construct</text>
</a>
</g>
</g>
<!-- Node3&#45;&gt;Node5 -->
<g id="edge4" class="edge">
<title>Node3&#45;&gt;Node5</title>
<path fill="none" stroke="#191970" d="M490.6398,-208.5C507.2503,-208.5 524.845,-208.5 540.9162,-208.5"/>
<polygon fill="#191970" stroke="#191970" points="490.447,-205.0001 480.447,-208.5 490.4469,-212.0001 490.447,-205.0001"/>
</g>
<!-- Node16 -->
<g id="node16" class="node">
<title>Node16</title>
<g id="a_node16"><a xlink:href="../../d2/dbb/classKFParticleBaseSIMD.html#a2cc73a1a3812b9e58ab777131d74b058" target="_top" xlink:title="KFParticleBaseSIMD\l::operator+=">
<polygon fill="none" stroke="#000000" points="541,-141.5 541,-173.5 657,-173.5 657,-141.5 541,-141.5"/>
<text text-anchor="start" x="549" y="-160.5" font-family="FreeSans" font-size="10.00" fill="#000000">KFParticleBaseSIMD</text>
<text text-anchor="middle" x="599" y="-148.5" font-family="FreeSans" font-size="10.00" fill="#000000">::operator+=</text>
</a>
</g>
</g>
<!-- Node3&#45;&gt;Node16 -->
<g id="edge19" class="edge">
<title>Node3&#45;&gt;Node16</title>
<path fill="none" stroke="#191970" d="M487.7142,-189.5654C506.0114,-184.2933 525.7029,-178.6195 543.3604,-173.5317"/>
<polygon fill="#191970" stroke="#191970" points="486.6439,-186.2313 478.0039,-192.3633 488.5821,-192.9577 486.6439,-186.2313"/>
</g>
<!-- Node6 -->
<g id="node6" class="node">
<title>Node6</title>
<g id="a_node6"><a xlink:href="../../db/dcc/classKFParticleSIMD.html#afd250069ba85fae638a7e1285e41c320" target="_top" xlink:title="KFParticleSIMD::Construct">
<polygon fill="none" stroke="#000000" points="723.5,-198.5 723.5,-218.5 870.5,-218.5 870.5,-198.5 723.5,-198.5"/>
<text text-anchor="middle" x="797" y="-205.5" font-family="FreeSans" font-size="10.00" fill="#000000">KFParticleSIMD::Construct</text>
</a>
</g>
</g>
<!-- Node5&#45;&gt;Node6 -->
<g id="edge5" class="edge">
<title>Node5&#45;&gt;Node6</title>
<path fill="none" stroke="#191970" d="M667.2522,-208.5C685.3774,-208.5 705.0293,-208.5 723.4249,-208.5"/>
<polygon fill="#191970" stroke="#191970" points="667.0687,-205.0001 657.0687,-208.5 667.0686,-212.0001 667.0687,-205.0001"/>
</g>
<!-- Node7 -->
<g id="node7" class="node">
<title>Node7</title>
<g id="a_node7"><a xlink:href="../../d2/d3d/classKFParticleFinder.html#a555c027cc00bc7d9461470d5c200b993" target="_top" xlink:title="KFParticleFinder::ConstructV0">
<polygon fill="none" stroke="#000000" points="912,-249.5 912,-269.5 1077,-269.5 1077,-249.5 912,-249.5"/>
<text text-anchor="middle" x="994.5" y="-256.5" font-family="FreeSans" font-size="10.00" fill="#000000">KFParticleFinder::ConstructV0</text>
</a>
</g>
</g>
<!-- Node6&#45;&gt;Node7 -->
<g id="edge6" class="edge">
<title>Node6&#45;&gt;Node7</title>
<path fill="none" stroke="#191970" d="M845.7093,-221.0781C879.5586,-229.8189 924.0701,-241.313 955.5614,-249.445"/>
<polygon fill="#191970" stroke="#191970" points="846.5772,-217.6875 836.0196,-218.576 844.8269,-224.4651 846.5772,-217.6875"/>
</g>
<!-- Node12 -->
<g id="node12" class="node">
<title>Node12</title>
<g id="a_node12"><a xlink:href="../../d2/d3d/classKFParticleFinder.html#a845f4b9e798f34dad97691ddd0df6b07" target="_top" xlink:title="KFParticleFinder::Construct\lTrackV0Cand">
<polygon fill="none" stroke="#000000" points="918,-192.5 918,-224.5 1071,-224.5 1071,-192.5 918,-192.5"/>
<text text-anchor="start" x="926" y="-211.5" font-family="FreeSans" font-size="10.00" fill="#000000">KFParticleFinder::Construct</text>
<text text-anchor="middle" x="994.5" y="-199.5" font-family="FreeSans" font-size="10.00" fill="#000000">TrackV0Cand</text>
</a>
</g>
</g>
<!-- Node6&#45;&gt;Node12 -->
<g id="edge12" class="edge">
<title>Node6&#45;&gt;Node12</title>
<path fill="none" stroke="#191970" d="M880.7993,-208.5C893.1204,-208.5 905.7594,-208.5 917.9249,-208.5"/>
<polygon fill="#191970" stroke="#191970" points="880.5417,-205.0001 870.5417,-208.5 880.5417,-212.0001 880.5417,-205.0001"/>
</g>
<!-- Node14 -->
<g id="node14" class="node">
<title>Node14</title>
<g id="a_node14"><a xlink:href="../../d2/d3d/classKFParticleFinder.html#a4ef976ffd76ed2d50940a5d5bb766795" target="_top" xlink:title="KFParticleFinder::Combine\lPartPart">
<polygon fill="none" stroke="#000000" points="1128.5,-141.5 1128.5,-173.5 1276.5,-173.5 1276.5,-141.5 1128.5,-141.5"/>
<text text-anchor="start" x="1136.5" y="-160.5" font-family="FreeSans" font-size="10.00" fill="#000000">KFParticleFinder::Combine</text>
<text text-anchor="middle" x="1202.5" y="-148.5" font-family="FreeSans" font-size="10.00" fill="#000000">PartPart</text>
</a>
</g>
</g>
<!-- Node6&#45;&gt;Node14 -->
<g id="edge15" class="edge">
<title>Node6&#45;&gt;Node14</title>
<path fill="none" stroke="#191970" d="M847.0834,-196.1893C867.1605,-191.6278 890.5753,-186.7745 912,-183.5 985.2046,-172.3117 1069.578,-165.4213 1128.4672,-161.5696"/>
<polygon fill="#191970" stroke="#191970" points="846.1749,-192.8069 837.2189,-198.4672 847.75,-199.6274 846.1749,-192.8069"/>
</g>
<!-- Node15 -->
<g id="node15" class="node">
<title>Node15</title>
<g id="a_node15"><a xlink:href="../../d2/d3d/classKFParticleFinder.html#a76e093479fb04d0360e1cca0e6aa5d01" target="_top" xlink:title="KFParticleFinder::Neutral\lDaughterDecay">
<polygon fill="none" stroke="#000000" points="924.5,-96.5 924.5,-128.5 1064.5,-128.5 1064.5,-96.5 924.5,-96.5"/>
<text text-anchor="start" x="932.5" y="-115.5" font-family="FreeSans" font-size="10.00" fill="#000000">KFParticleFinder::Neutral</text>
<text text-anchor="middle" x="994.5" y="-103.5" font-family="FreeSans" font-size="10.00" fill="#000000">DaughterDecay</text>
</a>
</g>
</g>
<!-- Node6&#45;&gt;Node15 -->
<g id="edge17" class="edge">
<title>Node6&#45;&gt;Node15</title>
<path fill="none" stroke="#191970" d="M840.4383,-194.8793C852.4161,-190.225 865.1038,-184.4135 876,-177.5 894.583,-165.7094 893.332,-155.1555 912,-143.5 921.2149,-137.7466 931.6643,-132.8001 941.9546,-128.6554"/>
<polygon fill="#191970" stroke="#191970" points="839.1943,-191.6076 831.0323,-198.3629 841.6255,-198.1719 839.1943,-191.6076"/>
</g>
<!-- Node8 -->
<g id="node8" class="node">
<title>Node8</title>
<g id="a_node8"><a xlink:href="../../d2/d3d/classKFParticleFinder.html#a3f6967ae8b6839bc7de48991eaa812ef" target="_top" xlink:title="KFParticleFinder::Find2Daughter\lDecay">
<polygon fill="none" stroke="#000000" points="1113,-294.5 1113,-326.5 1292,-326.5 1292,-294.5 1113,-294.5"/>
<text text-anchor="start" x="1121" y="-313.5" font-family="FreeSans" font-size="10.00" fill="#000000">KFParticleFinder::Find2Daughter</text>
<text text-anchor="middle" x="1202.5" y="-301.5" font-family="FreeSans" font-size="10.00" fill="#000000">Decay</text>
</a>
</g>
</g>
<!-- Node7&#45;&gt;Node8 -->
<g id="edge7" class="edge">
<title>Node7&#45;&gt;Node8</title>
<path fill="none" stroke="#191970" d="M1045.4237,-271.9861C1072.9977,-278.747 1107.3723,-287.1754 1136.9284,-294.4223"/>
<polygon fill="#191970" stroke="#191970" points="1046.1399,-268.5581 1035.5941,-269.576 1044.4729,-275.3567 1046.1399,-268.5581"/>
</g>
<!-- Node11 -->
<g id="node11" class="node">
<title>Node11</title>
<g id="a_node11"><a xlink:href="../../d2/d3d/classKFParticleFinder.html#ae68561ffcd9f3bf3e8230604678105c5" target="_top" xlink:title="KFParticleFinder::Construct\lPrimaryBG">
<polygon fill="none" stroke="#000000" points="1126,-243.5 1126,-275.5 1279,-275.5 1279,-243.5 1126,-243.5"/>
<text text-anchor="start" x="1134" y="-262.5" font-family="FreeSans" font-size="10.00" fill="#000000">KFParticleFinder::Construct</text>
<text text-anchor="middle" x="1202.5" y="-250.5" font-family="FreeSans" font-size="10.00" fill="#000000">PrimaryBG</text>
</a>
</g>
</g>
<!-- Node7&#45;&gt;Node11 -->
<g id="edge10" class="edge">
<title>Node7&#45;&gt;Node11</title>
<path fill="none" stroke="#191970" d="M1087.2786,-259.5C1100.1691,-259.5 1113.2923,-259.5 1125.8435,-259.5"/>
<polygon fill="#191970" stroke="#191970" points="1087.0059,-256.0001 1077.0059,-259.5 1087.0058,-263.0001 1087.0059,-256.0001"/>
</g>
<!-- Node9 -->
<g id="node9" class="node">
<title>Node9</title>
<g id="a_node9"><a xlink:href="../../d2/d3d/classKFParticleFinder.html#a3ad831d1b28cce4689501e369f561926" target="_top" xlink:title="KFParticleFinder::FindParticles">
<polygon fill="none" stroke="#000000" points="1328,-198.5 1328,-218.5 1495,-218.5 1495,-198.5 1328,-198.5"/>
<text text-anchor="middle" x="1411.5" y="-205.5" font-family="FreeSans" font-size="10.00" fill="#000000">KFParticleFinder::FindParticles</text>
</a>
</g>
</g>
<!-- Node8&#45;&gt;Node9 -->
<g id="edge8" class="edge">
<title>Node8&#45;&gt;Node9</title>
<path fill="none" stroke="#191970" d="M1278.4261,-291.0339C1283.0725,-289.3076 1287.6315,-287.4634 1292,-285.5 1333.6459,-266.7825 1377.5072,-234.9058 1398.6331,-218.6639"/>
<polygon fill="#191970" stroke="#191970" points="1277.0757,-287.7985 1268.7987,-294.4122 1279.3935,-294.4036 1277.0757,-287.7985"/>
</g>
<!-- Node10 -->
<g id="node10" class="node">
<title>Node10</title>
<g id="a_node10"><a xlink:href="../../db/d6d/classKFParticleTopoReconstructor.html#a3013eefd4e16b74ae39c531678623d08" target="_top" xlink:title="KFParticleTopoReconstructor\l::ReconstructParticles">
<polygon fill="none" stroke="#000000" points="1531,-192.5 1531,-224.5 1691,-224.5 1691,-192.5 1531,-192.5"/>
<text text-anchor="start" x="1539" y="-211.5" font-family="FreeSans" font-size="10.00" fill="#000000">KFParticleTopoReconstructor</text>
<text text-anchor="middle" x="1611" y="-199.5" font-family="FreeSans" font-size="10.00" fill="#000000">::ReconstructParticles</text>
</a>
</g>
</g>
<!-- Node9&#45;&gt;Node10 -->
<g id="edge9" class="edge">
<title>Node9&#45;&gt;Node10</title>
<path fill="none" stroke="#191970" d="M1505.2835,-208.5C1513.8763,-208.5 1522.5283,-208.5 1530.9834,-208.5"/>
<polygon fill="#191970" stroke="#191970" points="1505.2389,-205.0001 1495.2388,-208.5 1505.2388,-212.0001 1505.2389,-205.0001"/>
</g>
<!-- Node11&#45;&gt;Node9 -->
<g id="edge11" class="edge">
<title>Node11&#45;&gt;Node9</title>
<path fill="none" stroke="#191970" d="M1278.2821,-241.0077C1309.3421,-233.4285 1344.0717,-224.9538 1370.2819,-218.558"/>
<polygon fill="#191970" stroke="#191970" points="1277.2272,-237.6623 1268.342,-243.4333 1278.8867,-244.4628 1277.2272,-237.6623"/>
</g>
<!-- Node13 -->
<g id="node13" class="node">
<title>Node13</title>
<g id="a_node13"><a xlink:href="../../d2/d3d/classKFParticleFinder.html#a2073bafab2ee9126f3fbf0bef15f68e3" target="_top" xlink:title="KFParticleFinder::FindTrack\lV0Decay">
<polygon fill="none" stroke="#000000" points="1127,-192.5 1127,-224.5 1278,-224.5 1278,-192.5 1127,-192.5"/>
<text text-anchor="start" x="1135" y="-211.5" font-family="FreeSans" font-size="10.00" fill="#000000">KFParticleFinder::FindTrack</text>
<text text-anchor="middle" x="1202.5" y="-199.5" font-family="FreeSans" font-size="10.00" fill="#000000">V0Decay</text>
</a>
</g>
</g>
<!-- Node12&#45;&gt;Node13 -->
<g id="edge13" class="edge">
<title>Node12&#45;&gt;Node13</title>
<path fill="none" stroke="#191970" d="M1081.4061,-208.5C1096.4796,-208.5 1112.0457,-208.5 1126.7907,-208.5"/>
<polygon fill="#191970" stroke="#191970" points="1081.0654,-205.0001 1071.0654,-208.5 1081.0654,-212.0001 1081.0654,-205.0001"/>
</g>
<!-- Node13&#45;&gt;Node9 -->
<g id="edge14" class="edge">
<title>Node13&#45;&gt;Node9</title>
<path fill="none" stroke="#191970" d="M1288.5672,-208.5C1301.5575,-208.5 1314.9403,-208.5 1327.878,-208.5"/>
<polygon fill="#191970" stroke="#191970" points="1288.2493,-205.0001 1278.2493,-208.5 1288.2493,-212.0001 1288.2493,-205.0001"/>
</g>
<!-- Node14&#45;&gt;Node9 -->
<g id="edge16" class="edge">
<title>Node14&#45;&gt;Node9</title>
<path fill="none" stroke="#191970" d="M1278.2821,-175.9923C1309.3421,-183.5715 1344.0717,-192.0462 1370.2819,-198.442"/>
<polygon fill="#191970" stroke="#191970" points="1278.8867,-172.5372 1268.342,-173.5667 1277.2272,-179.3377 1278.8867,-172.5372"/>
</g>
<!-- Node15&#45;&gt;Node9 -->
<g id="edge18" class="edge">
<title>Node15&#45;&gt;Node9</title>
<path fill="none" stroke="#191970" d="M1074.9538,-106.8413C1136.0199,-105.0969 1221.2495,-108.2042 1292,-131.5 1336.306,-146.0885 1380.326,-181.1057 1400.3329,-198.4358"/>
<polygon fill="#191970" stroke="#191970" points="1074.4822,-103.3551 1064.6057,-107.1898 1074.7178,-110.3511 1074.4822,-103.3551"/>
</g>
<!-- Node17 -->
<g id="node17" class="node">
<title>Node17</title>
<g id="a_node17"><a xlink:href="../../db/dcc/classKFParticleSIMD.html#a7a8fccbeb58437f20fee5cb68e6f1259" target="_top" xlink:title="KFParticleSIMD::operator+=">
<polygon fill="none" stroke="#000000" points="718,-147.5 718,-167.5 876,-167.5 876,-147.5 718,-147.5"/>
<text text-anchor="middle" x="797" y="-154.5" font-family="FreeSans" font-size="10.00" fill="#000000">KFParticleSIMD::operator+=</text>
</a>
</g>
</g>
<!-- Node16&#45;&gt;Node17 -->
<g id="edge20" class="edge">
<title>Node16&#45;&gt;Node17</title>
<path fill="none" stroke="#191970" d="M667.0938,-157.5C683.4851,-157.5 701.1327,-157.5 717.9755,-157.5"/>
<polygon fill="#191970" stroke="#191970" points="667.0687,-154.0001 657.0687,-157.5 667.0686,-161.0001 667.0687,-154.0001"/>
</g>
<!-- Node18&#45;&gt;Node3 -->
<g id="edge22" class="edge">
<title>Node18&#45;&gt;Node3</title>
<path fill="none" stroke="#191970" d="M307.3105,-176.3617C326.1979,-181.6544 346.5487,-187.3571 364.7887,-192.4683"/>
<polygon fill="#191970" stroke="#191970" points="308.1594,-172.9649 297.5859,-173.6367 306.2706,-179.7052 308.1594,-172.9649"/>
</g>
<!-- Node19&#45;&gt;Node15 -->
<g id="edge24" class="edge">
<title>Node19&#45;&gt;Node15</title>
<path fill="none" stroke="#191970" d="M490.3116,-112.5C599.8356,-112.5 813.6256,-112.5 924.3215,-112.5"/>
<polygon fill="#191970" stroke="#191970" points="490.0449,-109.0001 480.0449,-112.5 490.0449,-116.0001 490.0449,-109.0001"/>
</g>
</g>
</svg>
