<?xml version="1.0" encoding="UTF-8" standalone="no"?>
<!DOCTYPE svg PUBLIC "-//W3C//DTD SVG 1.1//EN"
 "http://www.w3.org/Graphics/SVG/1.1/DTD/svg11.dtd">
<!-- Generated by graphviz version 2.40.1 (20161225.0304)
 -->
<!-- Title: KFParticleBaseSIMD::AddDaughterWithEnergyFitMC Pages: 1 -->
<svg width="1547pt" height="238pt"
 viewBox="0.00 0.00 1547.00 238.00" xmlns="http://www.w3.org/2000/svg" xmlns:xlink="http://www.w3.org/1999/xlink">
<g id="graph0" class="graph" transform="scale(1 1) rotate(0) translate(4 234)">
<title>KFParticleBaseSIMD::AddDaughterWithEnergyFitMC</title>
<!-- Node1 -->
<g id="node1" class="node">
<title>Node1</title>
<polygon fill="#bfbfbf" stroke="#000000" points="0,-68.5 0,-100.5 176,-100.5 176,-68.5 0,-68.5"/>
<text text-anchor="start" x="8" y="-87.5" font-family="FreeSans" font-size="10.00" fill="#000000">KFParticleBaseSIMD</text>
<text text-anchor="middle" x="88" y="-75.5" font-family="FreeSans" font-size="10.00" fill="#000000">::AddDaughterWithEnergyFitMC</text>
</g>
<!-- Node2 -->
<g id="node2" class="node">
<title>Node2</title>
<g id="a_node2"><a xlink:href="../../d2/dbb/classKFParticleBaseSIMD.html#a2ee0cc29dedac6767db45ae197a0fe35" target="_top" xlink:title="KFParticleBaseSIMD\l::AddDaughter">
<polygon fill="none" stroke="#000000" points="212,-68.5 212,-100.5 328,-100.5 328,-68.5 212,-68.5"/>
<text text-anchor="start" x="220" y="-87.5" font-family="FreeSans" font-size="10.00" fill="#000000">KFParticleBaseSIMD</text>
<text text-anchor="middle" x="270" y="-75.5" font-family="FreeSans" font-size="10.00" fill="#000000">::AddDaughter</text>
</a>
</g>
</g>
<!-- Node1&#45;&gt;Node2 -->
<g id="edge1" class="edge">
<title>Node1&#45;&gt;Node2</title>
<path fill="none" stroke="#191970" d="M186.3237,-84.5C195.0414,-84.5 203.6689,-84.5 211.8833,-84.5"/>
<polygon fill="#191970" stroke="#191970" points="186.0679,-81.0001 176.0678,-84.5 186.0678,-88.0001 186.0679,-81.0001"/>
</g>
<!-- Node3 -->
<g id="node3" class="node">
<title>Node3</title>
<g id="a_node3"><a xlink:href="../../db/dcc/classKFParticleSIMD.html#afd134dee761fd11c9f22c05a0a5262ca" target="_top" xlink:title="KFParticleSIMD::AddDaughter">
<polygon fill="none" stroke="#000000" points="364,-119.5 364,-139.5 530,-139.5 530,-119.5 364,-119.5"/>
<text text-anchor="middle" x="447" y="-126.5" font-family="FreeSans" font-size="10.00" fill="#000000">KFParticleSIMD::AddDaughter</text>
</a>
</g>
</g>
<!-- Node2&#45;&gt;Node3 -->
<g id="edge2" class="edge">
<title>Node2&#45;&gt;Node3</title>
<path fill="none" stroke="#191970" d="M336.4835,-103.2872C345.7091,-105.7778 355.0787,-108.2463 364,-110.5 376.0391,-113.5413 389.1138,-116.6324 401.2483,-119.4132"/>
<polygon fill="#191970" stroke="#191970" points="337.1257,-99.8347 326.5574,-100.5852 335.287,-106.5889 337.1257,-99.8347"/>
</g>
<!-- Node4 -->
<g id="node4" class="node">
<title>Node4</title>
<g id="a_node4"><a xlink:href="../../d2/dbb/classKFParticleBaseSIMD.html#a39c874e11dcc9e5346c2eb6fdd056f5e" target="_top" xlink:title="KFParticleBaseSIMD\l::Construct">
<polygon fill="none" stroke="#000000" points="389,-68.5 389,-100.5 505,-100.5 505,-68.5 389,-68.5"/>
<text text-anchor="start" x="397" y="-87.5" font-family="FreeSans" font-size="10.00" fill="#000000">KFParticleBaseSIMD</text>
<text text-anchor="middle" x="447" y="-75.5" font-family="FreeSans" font-size="10.00" fill="#000000">::Construct</text>
</a>
</g>
</g>
<!-- Node2&#45;&gt;Node4 -->
<g id="edge3" class="edge">
<title>Node2&#45;&gt;Node4</title>
<path fill="none" stroke="#191970" d="M338.6398,-84.5C355.2503,-84.5 372.845,-84.5 388.9162,-84.5"/>
<polygon fill="#191970" stroke="#191970" points="338.447,-81.0001 328.447,-84.5 338.4469,-88.0001 338.447,-81.0001"/>
</g>
<!-- Node15 -->
<g id="node15" class="node">
<title>Node15</title>
<g id="a_node15"><a xlink:href="../../d2/dbb/classKFParticleBaseSIMD.html#a2cc73a1a3812b9e58ab777131d74b058" target="_top" xlink:title="KFParticleBaseSIMD\l::operator+=">
<polygon fill="none" stroke="#000000" points="389,-17.5 389,-49.5 505,-49.5 505,-17.5 389,-17.5"/>
<text text-anchor="start" x="397" y="-36.5" font-family="FreeSans" font-size="10.00" fill="#000000">KFParticleBaseSIMD</text>
<text text-anchor="middle" x="447" y="-24.5" font-family="FreeSans" font-size="10.00" fill="#000000">::operator+=</text>
</a>
</g>
</g>
<!-- Node2&#45;&gt;Node15 -->
<g id="edge18" class="edge">
<title>Node2&#45;&gt;Node15</title>
<path fill="none" stroke="#191970" d="M335.7142,-65.5654C354.0114,-60.2933 373.7029,-54.6195 391.3604,-49.5317"/>
<polygon fill="#191970" stroke="#191970" points="334.6439,-62.2313 326.0039,-68.3633 336.5821,-68.9577 334.6439,-62.2313"/>
</g>
<!-- Node5 -->
<g id="node5" class="node">
<title>Node5</title>
<g id="a_node5"><a xlink:href="../../db/dcc/classKFParticleSIMD.html#afd250069ba85fae638a7e1285e41c320" target="_top" xlink:title="KFParticleSIMD::Construct">
<polygon fill="none" stroke="#000000" points="571.5,-74.5 571.5,-94.5 718.5,-94.5 718.5,-74.5 571.5,-74.5"/>
<text text-anchor="middle" x="645" y="-81.5" font-family="FreeSans" font-size="10.00" fill="#000000">KFParticleSIMD::Construct</text>
</a>
</g>
</g>
<!-- Node4&#45;&gt;Node5 -->
<g id="edge4" class="edge">
<title>Node4&#45;&gt;Node5</title>
<path fill="none" stroke="#191970" d="M515.2522,-84.5C533.3774,-84.5 553.0293,-84.5 571.4249,-84.5"/>
<polygon fill="#191970" stroke="#191970" points="515.0687,-81.0001 505.0687,-84.5 515.0686,-88.0001 515.0687,-81.0001"/>
</g>
<!-- Node6 -->
<g id="node6" class="node">
<title>Node6</title>
<g id="a_node6"><a xlink:href="../../d2/d3d/classKFParticleFinder.html#a555c027cc00bc7d9461470d5c200b993" target="_top" xlink:title="KFParticleFinder::ConstructV0">
<polygon fill="none" stroke="#000000" points="760,-152.5 760,-172.5 925,-172.5 925,-152.5 760,-152.5"/>
<text text-anchor="middle" x="842.5" y="-159.5" font-family="FreeSans" font-size="10.00" fill="#000000">KFParticleFinder::ConstructV0</text>
</a>
</g>
</g>
<!-- Node5&#45;&gt;Node6 -->
<g id="edge5" class="edge">
<title>Node5&#45;&gt;Node6</title>
<path fill="none" stroke="#191970" d="M676.0699,-98.8422C699.0473,-109.2439 731.2135,-123.3791 760,-134.5 776.6487,-140.9318 795.4776,-147.3833 810.9396,-152.4697"/>
<polygon fill="#191970" stroke="#191970" points="677.3732,-95.5899 666.8217,-94.6325 674.4732,-101.961 677.3732,-95.5899"/>
</g>
<!-- Node11 -->
<g id="node11" class="node">
<title>Node11</title>
<g id="a_node11"><a xlink:href="../../d2/d3d/classKFParticleFinder.html#a845f4b9e798f34dad97691ddd0df6b07" target="_top" xlink:title="KFParticleFinder::Construct\lTrackV0Cand">
<polygon fill="none" stroke="#000000" points="766,-92.5 766,-124.5 919,-124.5 919,-92.5 766,-92.5"/>
<text text-anchor="start" x="774" y="-111.5" font-family="FreeSans" font-size="10.00" fill="#000000">KFParticleFinder::Construct</text>
<text text-anchor="middle" x="842.5" y="-99.5" font-family="FreeSans" font-size="10.00" fill="#000000">TrackV0Cand</text>
</a>
</g>
</g>
<!-- Node5&#45;&gt;Node11 -->
<g id="edge11" class="edge">
<title>Node5&#45;&gt;Node11</title>
<path fill="none" stroke="#191970" d="M728.7993,-94.6832C741.1204,-96.1805 753.7594,-97.7163 765.9249,-99.1947"/>
<polygon fill="#191970" stroke="#191970" points="728.8909,-91.1687 718.5417,-93.4367 728.0464,-98.1176 728.8909,-91.1687"/>
</g>
<!-- Node13 -->
<g id="node13" class="node">
<title>Node13</title>
<g id="a_node13"><a xlink:href="../../d2/d3d/classKFParticleFinder.html#a4ef976ffd76ed2d50940a5d5bb766795" target="_top" xlink:title="KFParticleFinder::Combine\lPartPart">
<polygon fill="none" stroke="#000000" points="976.5,-44.5 976.5,-76.5 1124.5,-76.5 1124.5,-44.5 976.5,-44.5"/>
<text text-anchor="start" x="984.5" y="-63.5" font-family="FreeSans" font-size="10.00" fill="#000000">KFParticleFinder::Combine</text>
<text text-anchor="middle" x="1050.5" y="-51.5" font-family="FreeSans" font-size="10.00" fill="#000000">PartPart</text>
</a>
</g>
</g>
<!-- Node5&#45;&gt;Node13 -->
<g id="edge14" class="edge">
<title>Node5&#45;&gt;Node13</title>
<path fill="none" stroke="#191970" d="M728.9789,-79.5296C801.9222,-75.2124 906.5449,-69.0202 976.4199,-64.8845"/>
<polygon fill="#191970" stroke="#191970" points="728.6792,-76.0411 718.9034,-80.1259 729.0928,-83.0289 728.6792,-76.0411"/>
</g>
<!-- Node14 -->
<g id="node14" class="node">
<title>Node14</title>
<g id="a_node14"><a xlink:href="../../d2/d3d/classKFParticleFinder.html#a76e093479fb04d0360e1cca0e6aa5d01" target="_top" xlink:title="KFParticleFinder::Neutral\lDaughterDecay">
<polygon fill="none" stroke="#000000" points="772.5,-.5 772.5,-32.5 912.5,-32.5 912.5,-.5 772.5,-.5"/>
<text text-anchor="start" x="780.5" y="-19.5" font-family="FreeSans" font-size="10.00" fill="#000000">KFParticleFinder::Neutral</text>
<text text-anchor="middle" x="842.5" y="-7.5" font-family="FreeSans" font-size="10.00" fill="#000000">DaughterDecay</text>
</a>
</g>
</g>
<!-- Node5&#45;&gt;Node14 -->
<g id="edge16" class="edge">
<title>Node5&#45;&gt;Node14</title>
<path fill="none" stroke="#191970" d="M683.6628,-71.1883C715.8543,-60.1046 761.79,-44.2887 795.9883,-32.5142"/>
<polygon fill="#191970" stroke="#191970" points="682.4576,-67.9015 674.1418,-74.4664 684.7365,-74.5202 682.4576,-67.9015"/>
</g>
<!-- Node7 -->
<g id="node7" class="node">
<title>Node7</title>
<g id="a_node7"><a xlink:href="../../d2/d3d/classKFParticleFinder.html#a3f6967ae8b6839bc7de48991eaa812ef" target="_top" xlink:title="KFParticleFinder::Find2Daughter\lDecay">
<polygon fill="none" stroke="#000000" points="961,-197.5 961,-229.5 1140,-229.5 1140,-197.5 961,-197.5"/>
<text text-anchor="start" x="969" y="-216.5" font-family="FreeSans" font-size="10.00" fill="#000000">KFParticleFinder::Find2Daughter</text>
<text text-anchor="middle" x="1050.5" y="-204.5" font-family="FreeSans" font-size="10.00" fill="#000000">Decay</text>
</a>
</g>
</g>
<!-- Node6&#45;&gt;Node7 -->
<g id="edge6" class="edge">
<title>Node6&#45;&gt;Node7</title>
<path fill="none" stroke="#191970" d="M893.4237,-174.9861C920.9977,-181.747 955.3723,-190.1754 984.9284,-197.4223"/>
<polygon fill="#191970" stroke="#191970" points="894.1399,-171.5581 883.5941,-172.576 892.4729,-178.3567 894.1399,-171.5581"/>
</g>
<!-- Node10 -->
<g id="node10" class="node">
<title>Node10</title>
<g id="a_node10"><a xlink:href="../../d2/d3d/classKFParticleFinder.html#ae68561ffcd9f3bf3e8230604678105c5" target="_top" xlink:title="KFParticleFinder::Construct\lPrimaryBG">
<polygon fill="none" stroke="#000000" points="974,-146.5 974,-178.5 1127,-178.5 1127,-146.5 974,-146.5"/>
<text text-anchor="start" x="982" y="-165.5" font-family="FreeSans" font-size="10.00" fill="#000000">KFParticleFinder::Construct</text>
<text text-anchor="middle" x="1050.5" y="-153.5" font-family="FreeSans" font-size="10.00" fill="#000000">PrimaryBG</text>
</a>
</g>
</g>
<!-- Node6&#45;&gt;Node10 -->
<g id="edge9" class="edge">
<title>Node6&#45;&gt;Node10</title>
<path fill="none" stroke="#191970" d="M935.2786,-162.5C948.1691,-162.5 961.2923,-162.5 973.8435,-162.5"/>
<polygon fill="#191970" stroke="#191970" points="935.0059,-159.0001 925.0059,-162.5 935.0058,-166.0001 935.0059,-159.0001"/>
</g>
<!-- Node8 -->
<g id="node8" class="node">
<title>Node8</title>
<g id="a_node8"><a xlink:href="../../d2/d3d/classKFParticleFinder.html#a3ad831d1b28cce4689501e369f561926" target="_top" xlink:title="KFParticleFinder::FindParticles">
<polygon fill="none" stroke="#000000" points="1176,-101.5 1176,-121.5 1343,-121.5 1343,-101.5 1176,-101.5"/>
<text text-anchor="middle" x="1259.5" y="-108.5" font-family="FreeSans" font-size="10.00" fill="#000000">KFParticleFinder::FindParticles</text>
</a>
</g>
</g>
<!-- Node7&#45;&gt;Node8 -->
<g id="edge7" class="edge">
<title>Node7&#45;&gt;Node8</title>
<path fill="none" stroke="#191970" d="M1126.4261,-194.0339C1131.0725,-192.3076 1135.6315,-190.4634 1140,-188.5 1181.6459,-169.7825 1225.5072,-137.9058 1246.6331,-121.6639"/>
<polygon fill="#191970" stroke="#191970" points="1125.0757,-190.7985 1116.7987,-197.4122 1127.3935,-197.4036 1125.0757,-190.7985"/>
</g>
<!-- Node9 -->
<g id="node9" class="node">
<title>Node9</title>
<g id="a_node9"><a xlink:href="../../db/d6d/classKFParticleTopoReconstructor.html#a3013eefd4e16b74ae39c531678623d08" target="_top" xlink:title="KFParticleTopoReconstructor\l::ReconstructParticles">
<polygon fill="none" stroke="#000000" points="1379,-95.5 1379,-127.5 1539,-127.5 1539,-95.5 1379,-95.5"/>
<text text-anchor="start" x="1387" y="-114.5" font-family="FreeSans" font-size="10.00" fill="#000000">KFParticleTopoReconstructor</text>
<text text-anchor="middle" x="1459" y="-102.5" font-family="FreeSans" font-size="10.00" fill="#000000">::ReconstructParticles</text>
</a>
</g>
</g>
<!-- Node8&#45;&gt;Node9 -->
<g id="edge8" class="edge">
<title>Node8&#45;&gt;Node9</title>
<path fill="none" stroke="#191970" d="M1353.2835,-111.5C1361.8763,-111.5 1370.5283,-111.5 1378.9834,-111.5"/>
<polygon fill="#191970" stroke="#191970" points="1353.2389,-108.0001 1343.2388,-111.5 1353.2388,-115.0001 1353.2389,-108.0001"/>
</g>
<!-- Node10&#45;&gt;Node8 -->
<g id="edge10" class="edge">
<title>Node10&#45;&gt;Node8</title>
<path fill="none" stroke="#191970" d="M1126.2821,-144.0077C1157.3421,-136.4285 1192.0717,-127.9538 1218.2819,-121.558"/>
<polygon fill="#191970" stroke="#191970" points="1125.2272,-140.6623 1116.342,-146.4333 1126.8867,-147.4628 1125.2272,-140.6623"/>
</g>
<!-- Node12 -->
<g id="node12" class="node">
<title>Node12</title>
<g id="a_node12"><a xlink:href="../../d2/d3d/classKFParticleFinder.html#a2073bafab2ee9126f3fbf0bef15f68e3" target="_top" xlink:title="KFParticleFinder::FindTrack\lV0Decay">
<polygon fill="none" stroke="#000000" points="975,-95.5 975,-127.5 1126,-127.5 1126,-95.5 975,-95.5"/>
<text text-anchor="start" x="983" y="-114.5" font-family="FreeSans" font-size="10.00" fill="#000000">KFParticleFinder::FindTrack</text>
<text text-anchor="middle" x="1050.5" y="-102.5" font-family="FreeSans" font-size="10.00" fill="#000000">V0Decay</text>
</a>
</g>
</g>
<!-- Node11&#45;&gt;Node12 -->
<g id="edge12" class="edge">
<title>Node11&#45;&gt;Node12</title>
<path fill="none" stroke="#191970" d="M929.4061,-109.7535C944.4796,-109.9709 960.0457,-110.1954 974.7907,-110.408"/>
<polygon fill="#191970" stroke="#191970" points="929.1149,-106.249 919.0654,-109.6043 929.0138,-113.2483 929.1149,-106.249"/>
</g>
<!-- Node12&#45;&gt;Node8 -->
<g id="edge13" class="edge">
<title>Node12&#45;&gt;Node8</title>
<path fill="none" stroke="#191970" d="M1136.5672,-111.5C1149.5575,-111.5 1162.9403,-111.5 1175.878,-111.5"/>
<polygon fill="#191970" stroke="#191970" points="1136.2493,-108.0001 1126.2493,-111.5 1136.2493,-115.0001 1136.2493,-108.0001"/>
</g>
<!-- Node13&#45;&gt;Node8 -->
<g id="edge15" class="edge">
<title>Node13&#45;&gt;Node8</title>
<path fill="none" stroke="#191970" d="M1126.2821,-78.9923C1157.3421,-86.5715 1192.0717,-95.0462 1218.2819,-101.442"/>
<polygon fill="#191970" stroke="#191970" points="1126.8867,-75.5372 1116.342,-76.5667 1125.2272,-82.3377 1126.8867,-75.5372"/>
</g>
<!-- Node14&#45;&gt;Node8 -->
<g id="edge17" class="edge">
<title>Node14&#45;&gt;Node8</title>
<path fill="none" stroke="#191970" d="M922.9142,-10.9621C983.9596,-9.2809 1069.1807,-12.4143 1140,-35.5 1183.9472,-49.8259 1227.7941,-84.098 1247.987,-101.2942"/>
<polygon fill="#191970" stroke="#191970" points="922.4504,-7.4752 912.5698,-11.2993 922.6785,-14.4715 922.4504,-7.4752"/>
</g>
<!-- Node16 -->
<g id="node16" class="node">
<title>Node16</title>
<g id="a_node16"><a xlink:href="../../db/dcc/classKFParticleSIMD.html#a7a8fccbeb58437f20fee5cb68e6f1259" target="_top" xlink:title="KFParticleSIMD::operator+=">
<polygon fill="none" stroke="#000000" points="566,-23.5 566,-43.5 724,-43.5 724,-23.5 566,-23.5"/>
<text text-anchor="middle" x="645" y="-30.5" font-family="FreeSans" font-size="10.00" fill="#000000">KFParticleSIMD::operator+=</text>
</a>
</g>
</g>
<!-- Node15&#45;&gt;Node16 -->
<g id="edge19" class="edge">
<title>Node15&#45;&gt;Node16</title>
<path fill="none" stroke="#191970" d="M515.0938,-33.5C531.4851,-33.5 549.1327,-33.5 565.9755,-33.5"/>
<polygon fill="#191970" stroke="#191970" points="515.0687,-30.0001 505.0687,-33.5 515.0686,-37.0001 515.0687,-30.0001"/>
</g>
</g>
</svg>
