<?xml version="1.0" encoding="UTF-8" standalone="no"?>
<!DOCTYPE svg PUBLIC "-//W3C//DTD SVG 1.1//EN"
 "http://www.w3.org/Graphics/SVG/1.1/DTD/svg11.dtd">
<!-- Generated by graphviz version 2.40.1 (20161225.0304)
 -->
<!-- Title: KFParticleBaseSIMD::SetNonlinearMassConstraint Pages: 1 -->
<svg width="1168pt" height="137pt"
 viewBox="0.00 0.00 1168.00 137.00" xmlns="http://www.w3.org/2000/svg" xmlns:xlink="http://www.w3.org/1999/xlink">
<g id="graph0" class="graph" transform="scale(1 1) rotate(0) translate(4 133)">
<title>KFParticleBaseSIMD::SetNonlinearMassConstraint</title>
<!-- Node1 -->
<g id="node1" class="node">
<title>Node1</title>
<polygon fill="#bfbfbf" stroke="#000000" points="0,-53.5 0,-85.5 167,-85.5 167,-53.5 0,-53.5"/>
<text text-anchor="start" x="8" y="-72.5" font-family="FreeSans" font-size="10.00" fill="#000000">KFParticleBaseSIMD</text>
<text text-anchor="middle" x="83.5" y="-60.5" font-family="FreeSans" font-size="10.00" fill="#000000">::SetNonlinearMassConstraint</text>
</g>
<!-- Node2 -->
<g id="node2" class="node">
<title>Node2</title>
<g id="a_node2"><a xlink:href="../../d2/d3d/classKFParticleFinder.html#a76e093479fb04d0360e1cca0e6aa5d01" target="_top" xlink:title="KFParticleFinder::Neutral\lDaughterDecay">
<polygon fill="none" stroke="#000000" points="393.5,-96.5 393.5,-128.5 533.5,-128.5 533.5,-96.5 393.5,-96.5"/>
<text text-anchor="start" x="401.5" y="-115.5" font-family="FreeSans" font-size="10.00" fill="#000000">KFParticleFinder::Neutral</text>
<text text-anchor="middle" x="463.5" y="-103.5" font-family="FreeSans" font-size="10.00" fill="#000000">DaughterDecay</text>
</a>
</g>
</g>
<!-- Node1&#45;&gt;Node2 -->
<g id="edge1" class="edge">
<title>Node1&#45;&gt;Node2</title>
<path fill="none" stroke="#191970" d="M177.4712,-80.1336C244.252,-87.6904 332.5051,-97.6769 393.2259,-104.5479"/>
<polygon fill="#191970" stroke="#191970" points="177.6932,-76.6365 167.363,-78.9898 176.9061,-83.5921 177.6932,-76.6365"/>
</g>
<!-- Node5 -->
<g id="node5" class="node">
<title>Node5</title>
<g id="a_node5"><a xlink:href="../../d2/d3d/classKFParticleFinder.html#ad5a61416f528be9d0b397352f7619953" target="_top" xlink:title="KFParticleFinder::SaveV0\lPrimSecCand">
<polygon fill="none" stroke="#000000" points="203,-31.5 203,-63.5 345,-63.5 345,-31.5 203,-31.5"/>
<text text-anchor="start" x="211" y="-50.5" font-family="FreeSans" font-size="10.00" fill="#000000">KFParticleFinder::SaveV0</text>
<text text-anchor="middle" x="274" y="-38.5" font-family="FreeSans" font-size="10.00" fill="#000000">PrimSecCand</text>
</a>
</g>
</g>
<!-- Node1&#45;&gt;Node5 -->
<g id="edge4" class="edge">
<title>Node1&#45;&gt;Node5</title>
<path fill="none" stroke="#191970" d="M177.1355,-58.6864C185.743,-57.6924 194.368,-56.6963 202.7294,-55.7307"/>
<polygon fill="#191970" stroke="#191970" points="176.5885,-55.2263 167.0561,-59.8505 177.3916,-62.1801 176.5885,-55.2263"/>
</g>
<!-- Node3 -->
<g id="node3" class="node">
<title>Node3</title>
<g id="a_node3"><a xlink:href="../../d2/d3d/classKFParticleFinder.html#a3ad831d1b28cce4689501e369f561926" target="_top" xlink:title="KFParticleFinder::FindParticles">
<polygon fill="none" stroke="#000000" points="797,-57.5 797,-77.5 964,-77.5 964,-57.5 797,-57.5"/>
<text text-anchor="middle" x="880.5" y="-64.5" font-family="FreeSans" font-size="10.00" fill="#000000">KFParticleFinder::FindParticles</text>
</a>
</g>
</g>
<!-- Node2&#45;&gt;Node3 -->
<g id="edge2" class="edge">
<title>Node2&#45;&gt;Node3</title>
<path fill="none" stroke="#191970" d="M543.7051,-110.6445C603.7699,-108.4644 687.837,-103.7362 761,-93.5 788.125,-89.705 818.2567,-83.1327 841.4773,-77.5457"/>
<polygon fill="#191970" stroke="#191970" points="543.4009,-107.1529 533.5284,-110.9979 543.6439,-114.1487 543.4009,-107.1529"/>
</g>
<!-- Node4 -->
<g id="node4" class="node">
<title>Node4</title>
<g id="a_node4"><a xlink:href="../../db/d6d/classKFParticleTopoReconstructor.html#a3013eefd4e16b74ae39c531678623d08" target="_top" xlink:title="KFParticleTopoReconstructor\l::ReconstructParticles">
<polygon fill="none" stroke="#000000" points="1000,-51.5 1000,-83.5 1160,-83.5 1160,-51.5 1000,-51.5"/>
<text text-anchor="start" x="1008" y="-70.5" font-family="FreeSans" font-size="10.00" fill="#000000">KFParticleTopoReconstructor</text>
<text text-anchor="middle" x="1080" y="-58.5" font-family="FreeSans" font-size="10.00" fill="#000000">::ReconstructParticles</text>
</a>
</g>
</g>
<!-- Node3&#45;&gt;Node4 -->
<g id="edge3" class="edge">
<title>Node3&#45;&gt;Node4</title>
<path fill="none" stroke="#191970" d="M974.2835,-67.5C982.8763,-67.5 991.5283,-67.5 999.9834,-67.5"/>
<polygon fill="#191970" stroke="#191970" points="974.2389,-64.0001 964.2388,-67.5 974.2388,-71.0001 974.2389,-64.0001"/>
</g>
<!-- Node6 -->
<g id="node6" class="node">
<title>Node6</title>
<g id="a_node6"><a xlink:href="../../d2/d3d/classKFParticleFinder.html#a555c027cc00bc7d9461470d5c200b993" target="_top" xlink:title="KFParticleFinder::ConstructV0">
<polygon fill="none" stroke="#000000" points="381,-18.5 381,-38.5 546,-38.5 546,-18.5 381,-18.5"/>
<text text-anchor="middle" x="463.5" y="-25.5" font-family="FreeSans" font-size="10.00" fill="#000000">KFParticleFinder::ConstructV0</text>
</a>
</g>
</g>
<!-- Node5&#45;&gt;Node6 -->
<g id="edge5" class="edge">
<title>Node5&#45;&gt;Node6</title>
<path fill="none" stroke="#191970" d="M355.3205,-39.3465C363.7722,-38.4991 372.3695,-37.6371 380.8358,-36.7882"/>
<polygon fill="#191970" stroke="#191970" points="354.7029,-35.8908 345.102,-40.371 355.4013,-42.8559 354.7029,-35.8908"/>
</g>
<!-- Node7 -->
<g id="node7" class="node">
<title>Node7</title>
<g id="a_node7"><a xlink:href="../../d2/d3d/classKFParticleFinder.html#a3f6967ae8b6839bc7de48991eaa812ef" target="_top" xlink:title="KFParticleFinder::Find2Daughter\lDecay">
<polygon fill="none" stroke="#000000" points="582,-51.5 582,-83.5 761,-83.5 761,-51.5 582,-51.5"/>
<text text-anchor="start" x="590" y="-70.5" font-family="FreeSans" font-size="10.00" fill="#000000">KFParticleFinder::Find2Daughter</text>
<text text-anchor="middle" x="671.5" y="-58.5" font-family="FreeSans" font-size="10.00" fill="#000000">Decay</text>
</a>
</g>
</g>
<!-- Node5&#45;&gt;Node7 -->
<g id="edge10" class="edge">
<title>Node5&#45;&gt;Node7</title>
<path fill="none" stroke="#191970" d="M355.3977,-51.5955C421.2605,-54.9093 513.9108,-59.571 581.8809,-62.9909"/>
<polygon fill="#191970" stroke="#191970" points="355.2283,-48.0826 345.065,-51.0756 354.8765,-55.0738 355.2283,-48.0826"/>
</g>
<!-- Node8 -->
<g id="node8" class="node">
<title>Node8</title>
<g id="a_node8"><a xlink:href="../../d2/d3d/classKFParticleFinder.html#ae68561ffcd9f3bf3e8230604678105c5" target="_top" xlink:title="KFParticleFinder::Construct\lPrimaryBG">
<polygon fill="none" stroke="#000000" points="595,-.5 595,-32.5 748,-32.5 748,-.5 595,-.5"/>
<text text-anchor="start" x="603" y="-19.5" font-family="FreeSans" font-size="10.00" fill="#000000">KFParticleFinder::Construct</text>
<text text-anchor="middle" x="671.5" y="-7.5" font-family="FreeSans" font-size="10.00" fill="#000000">PrimaryBG</text>
</a>
</g>
</g>
<!-- Node5&#45;&gt;Node8 -->
<g id="edge11" class="edge">
<title>Node5&#45;&gt;Node8</title>
<path fill="none" stroke="#191970" d="M318.0713,-27.5003C337.0218,-19.9437 359.6796,-12.2644 381,-8.5 452.6701,4.1542 535.8068,.0077 594.7321,-6.0237"/>
<polygon fill="#191970" stroke="#191970" points="316.7315,-24.2668 308.8081,-31.3003 319.3883,-30.743 316.7315,-24.2668"/>
</g>
<!-- Node6&#45;&gt;Node7 -->
<g id="edge6" class="edge">
<title>Node6&#45;&gt;Node7</title>
<path fill="none" stroke="#191970" d="M527.1279,-40.4302C545.6488,-43.9029 566.1917,-47.7547 585.8337,-51.4376"/>
<polygon fill="#191970" stroke="#191970" points="527.5389,-36.9464 517.0652,-38.5435 526.2489,-43.8265 527.5389,-36.9464"/>
</g>
<!-- Node6&#45;&gt;Node8 -->
<g id="edge8" class="edge">
<title>Node6&#45;&gt;Node8</title>
<path fill="none" stroke="#191970" d="M556.2786,-23.1474C569.1691,-22.4037 582.2923,-21.6466 594.8435,-20.9225"/>
<polygon fill="#191970" stroke="#191970" points="555.7876,-19.6698 546.0059,-23.74 556.1909,-26.6582 555.7876,-19.6698"/>
</g>
<!-- Node7&#45;&gt;Node3 -->
<g id="edge7" class="edge">
<title>Node7&#45;&gt;Node3</title>
<path fill="none" stroke="#191970" d="M771.0951,-67.5C779.6862,-67.5 788.3215,-67.5 796.7682,-67.5"/>
<polygon fill="#191970" stroke="#191970" points="771.0444,-64.0001 761.0443,-67.5 771.0443,-71.0001 771.0444,-64.0001"/>
</g>
<!-- Node8&#45;&gt;Node3 -->
<g id="edge9" class="edge">
<title>Node8&#45;&gt;Node3</title>
<path fill="none" stroke="#191970" d="M747.2821,-34.9923C778.3421,-42.5715 813.0717,-51.0462 839.2819,-57.442"/>
<polygon fill="#191970" stroke="#191970" points="747.8867,-31.5372 737.342,-32.5667 746.2272,-38.3377 747.8867,-31.5372"/>
</g>
</g>
</svg>
