<?xml version="1.0" encoding="UTF-8" standalone="no"?>
<!DOCTYPE svg PUBLIC "-//W3C//DTD SVG 1.1//EN"
 "http://www.w3.org/Graphics/SVG/1.1/DTD/svg11.dtd">
<!-- Generated by graphviz version 2.40.1 (20161225.0304)
 -->
<!-- Title: KFParticleBaseSIMD::GetDStoParticleBy Pages: 1 -->
<svg width="435pt" height="92pt"
 viewBox="0.00 0.00 435.00 92.00" xmlns="http://www.w3.org/2000/svg" xmlns:xlink="http://www.w3.org/1999/xlink">
<g id="graph0" class="graph" transform="scale(1 1) rotate(0) translate(4 88)">
<title>KFParticleBaseSIMD::GetDStoParticleBy</title>
<!-- Node1 -->
<g id="node1" class="node">
<title>Node1</title>
<polygon fill="#bfbfbf" stroke="#000000" points="0,-25.5 0,-57.5 116,-57.5 116,-25.5 0,-25.5"/>
<text text-anchor="start" x="8" y="-44.5" font-family="FreeSans" font-size="10.00" fill="#000000">KFParticleBaseSIMD</text>
<text text-anchor="middle" x="58" y="-32.5" font-family="FreeSans" font-size="10.00" fill="#000000">::GetDStoParticleBy</text>
</g>
<!-- Node2 -->
<g id="node2" class="node">
<title>Node2</title>
<g id="a_node2"><a xlink:href="../../d2/dbb/classKFParticleBaseSIMD.html#a3c652b30a3f4e787a60f1de438becf53" target="_top" xlink:title="KFParticleBaseSIMD\l::GetDStoParticleBz">
<polygon fill="none" stroke="#000000" points="152,-25.5 152,-57.5 268,-57.5 268,-25.5 152,-25.5"/>
<text text-anchor="start" x="160" y="-44.5" font-family="FreeSans" font-size="10.00" fill="#000000">KFParticleBaseSIMD</text>
<text text-anchor="middle" x="210" y="-32.5" font-family="FreeSans" font-size="10.00" fill="#000000">::GetDStoParticleBz</text>
</a>
</g>
</g>
<!-- Node1&#45;&gt;Node2 -->
<g id="edge1" class="edge">
<title>Node1&#45;&gt;Node2</title>
<path fill="none" stroke="#191970" d="M116.3325,-41.5C124.6057,-41.5 133.1747,-41.5 141.617,-41.5"/>
<polygon fill="#191970" stroke="#191970" points="141.8237,-45.0001 151.8236,-41.5 141.8236,-38.0001 141.8237,-45.0001"/>
</g>
<!-- Node3 -->
<g id="node3" class="node">
<title>Node3</title>
<g id="a_node3"><a xlink:href="../../d2/dbb/classKFParticleBaseSIMD.html#a8e96d6b648dbc125f44f3a6e54844df7" target="_top" xlink:title="KFParticleBaseSIMD\l::GetDStoParticleLine">
<polygon fill="none" stroke="#000000" points="304,-51.5 304,-83.5 427,-83.5 427,-51.5 304,-51.5"/>
<text text-anchor="start" x="312" y="-70.5" font-family="FreeSans" font-size="10.00" fill="#000000">KFParticleBaseSIMD</text>
<text text-anchor="middle" x="365.5" y="-58.5" font-family="FreeSans" font-size="10.00" fill="#000000">::GetDStoParticleLine</text>
</a>
</g>
</g>
<!-- Node2&#45;&gt;Node3 -->
<g id="edge2" class="edge">
<title>Node2&#45;&gt;Node3</title>
<path fill="none" stroke="#191970" d="M268.3449,-51.2554C276.7069,-52.6536 285.3889,-54.1052 293.9693,-55.5399"/>
<polygon fill="#191970" stroke="#191970" points="293.5296,-59.0149 303.9699,-57.212 294.684,-52.1107 293.5296,-59.0149"/>
</g>
<!-- Node4 -->
<g id="node4" class="node">
<title>Node4</title>
<g id="a_node4"><a xlink:href="../../d2/dbb/classKFParticleBaseSIMD.html#a721cd8da62bbf13e53583c9acff31945" target="_top" xlink:title="KFParticleBaseSIMD\l::Transport">
<polygon fill="none" stroke="#000000" points="307.5,-.5 307.5,-32.5 423.5,-32.5 423.5,-.5 307.5,-.5"/>
<text text-anchor="start" x="315.5" y="-19.5" font-family="FreeSans" font-size="10.00" fill="#000000">KFParticleBaseSIMD</text>
<text text-anchor="middle" x="365.5" y="-7.5" font-family="FreeSans" font-size="10.00" fill="#000000">::Transport</text>
</a>
</g>
</g>
<!-- Node2&#45;&gt;Node4 -->
<g id="edge3" class="edge">
<title>Node2&#45;&gt;Node4</title>
<path fill="none" stroke="#191970" d="M268.3449,-32.1198C277.8111,-30.5979 287.6874,-29.0101 297.362,-27.4547"/>
<polygon fill="#191970" stroke="#191970" points="298.0277,-30.8927 307.3453,-25.8496 296.9165,-23.9814 298.0277,-30.8927"/>
</g>
</g>
</svg>
