<?xml version="1.0" encoding="UTF-8" standalone="no"?>
<!DOCTYPE svg PUBLIC "-//W3C//DTD SVG 1.1//EN"
 "http://www.w3.org/Graphics/SVG/1.1/DTD/svg11.dtd">
<!-- Generated by graphviz version 2.40.1 (20161225.0304)
 -->
<!-- Title: KFParticleBaseSIMD::AddDaughter Pages: 1 -->
<svg width="1335pt" height="238pt"
 viewBox="0.00 0.00 1335.00 238.00" xmlns="http://www.w3.org/2000/svg" xmlns:xlink="http://www.w3.org/1999/xlink">
<g id="graph0" class="graph" transform="scale(1 1) rotate(0) translate(4 234)">
<title>KFParticleBaseSIMD::AddDaughter</title>
<!-- Node1 -->
<g id="node1" class="node">
<title>Node1</title>
<polygon fill="#bfbfbf" stroke="#000000" points="0,-68.5 0,-100.5 116,-100.5 116,-68.5 0,-68.5"/>
<text text-anchor="start" x="8" y="-87.5" font-family="FreeSans" font-size="10.00" fill="#000000">KFParticleBaseSIMD</text>
<text text-anchor="middle" x="58" y="-75.5" font-family="FreeSans" font-size="10.00" fill="#000000">::AddDaughter</text>
</g>
<!-- Node2 -->
<g id="node2" class="node">
<title>Node2</title>
<g id="a_node2"><a xlink:href="../../db/dcc/classKFParticleSIMD.html#afd134dee761fd11c9f22c05a0a5262ca" target="_top" xlink:title="KFParticleSIMD::AddDaughter">
<polygon fill="none" stroke="#000000" points="152,-119.5 152,-139.5 318,-139.5 318,-119.5 152,-119.5"/>
<text text-anchor="middle" x="235" y="-126.5" font-family="FreeSans" font-size="10.00" fill="#000000">KFParticleSIMD::AddDaughter</text>
</a>
</g>
</g>
<!-- Node1&#45;&gt;Node2 -->
<g id="edge1" class="edge">
<title>Node1&#45;&gt;Node2</title>
<path fill="none" stroke="#191970" d="M124.4835,-103.2872C133.7091,-105.7778 143.0787,-108.2463 152,-110.5 164.0391,-113.5413 177.1138,-116.6324 189.2483,-119.4132"/>
<polygon fill="#191970" stroke="#191970" points="125.1257,-99.8347 114.5574,-100.5852 123.287,-106.5889 125.1257,-99.8347"/>
</g>
<!-- Node3 -->
<g id="node3" class="node">
<title>Node3</title>
<g id="a_node3"><a xlink:href="../../d2/dbb/classKFParticleBaseSIMD.html#a39c874e11dcc9e5346c2eb6fdd056f5e" target="_top" xlink:title="KFParticleBaseSIMD\l::Construct">
<polygon fill="none" stroke="#000000" points="177,-68.5 177,-100.5 293,-100.5 293,-68.5 177,-68.5"/>
<text text-anchor="start" x="185" y="-87.5" font-family="FreeSans" font-size="10.00" fill="#000000">KFParticleBaseSIMD</text>
<text text-anchor="middle" x="235" y="-75.5" font-family="FreeSans" font-size="10.00" fill="#000000">::Construct</text>
</a>
</g>
</g>
<!-- Node1&#45;&gt;Node3 -->
<g id="edge2" class="edge">
<title>Node1&#45;&gt;Node3</title>
<path fill="none" stroke="#191970" d="M126.6398,-84.5C143.2503,-84.5 160.845,-84.5 176.9162,-84.5"/>
<polygon fill="#191970" stroke="#191970" points="126.447,-81.0001 116.447,-84.5 126.4469,-88.0001 126.447,-81.0001"/>
</g>
<!-- Node14 -->
<g id="node14" class="node">
<title>Node14</title>
<g id="a_node14"><a xlink:href="../../d2/dbb/classKFParticleBaseSIMD.html#a2cc73a1a3812b9e58ab777131d74b058" target="_top" xlink:title="KFParticleBaseSIMD\l::operator+=">
<polygon fill="none" stroke="#000000" points="177,-17.5 177,-49.5 293,-49.5 293,-17.5 177,-17.5"/>
<text text-anchor="start" x="185" y="-36.5" font-family="FreeSans" font-size="10.00" fill="#000000">KFParticleBaseSIMD</text>
<text text-anchor="middle" x="235" y="-24.5" font-family="FreeSans" font-size="10.00" fill="#000000">::operator+=</text>
</a>
</g>
</g>
<!-- Node1&#45;&gt;Node14 -->
<g id="edge17" class="edge">
<title>Node1&#45;&gt;Node14</title>
<path fill="none" stroke="#191970" d="M123.7142,-65.5654C142.0114,-60.2933 161.7029,-54.6195 179.3604,-49.5317"/>
<polygon fill="#191970" stroke="#191970" points="122.6439,-62.2313 114.0039,-68.3633 124.5821,-68.9577 122.6439,-62.2313"/>
</g>
<!-- Node4 -->
<g id="node4" class="node">
<title>Node4</title>
<g id="a_node4"><a xlink:href="../../db/dcc/classKFParticleSIMD.html#afd250069ba85fae638a7e1285e41c320" target="_top" xlink:title="KFParticleSIMD::Construct">
<polygon fill="none" stroke="#000000" points="359.5,-74.5 359.5,-94.5 506.5,-94.5 506.5,-74.5 359.5,-74.5"/>
<text text-anchor="middle" x="433" y="-81.5" font-family="FreeSans" font-size="10.00" fill="#000000">KFParticleSIMD::Construct</text>
</a>
</g>
</g>
<!-- Node3&#45;&gt;Node4 -->
<g id="edge3" class="edge">
<title>Node3&#45;&gt;Node4</title>
<path fill="none" stroke="#191970" d="M303.2522,-84.5C321.3774,-84.5 341.0293,-84.5 359.4249,-84.5"/>
<polygon fill="#191970" stroke="#191970" points="303.0687,-81.0001 293.0687,-84.5 303.0686,-88.0001 303.0687,-81.0001"/>
</g>
<!-- Node5 -->
<g id="node5" class="node">
<title>Node5</title>
<g id="a_node5"><a xlink:href="../../d2/d3d/classKFParticleFinder.html#a555c027cc00bc7d9461470d5c200b993" target="_top" xlink:title="KFParticleFinder::ConstructV0">
<polygon fill="none" stroke="#000000" points="548,-152.5 548,-172.5 713,-172.5 713,-152.5 548,-152.5"/>
<text text-anchor="middle" x="630.5" y="-159.5" font-family="FreeSans" font-size="10.00" fill="#000000">KFParticleFinder::ConstructV0</text>
</a>
</g>
</g>
<!-- Node4&#45;&gt;Node5 -->
<g id="edge4" class="edge">
<title>Node4&#45;&gt;Node5</title>
<path fill="none" stroke="#191970" d="M464.0699,-98.8422C487.0473,-109.2439 519.2135,-123.3791 548,-134.5 564.6487,-140.9318 583.4776,-147.3833 598.9396,-152.4697"/>
<polygon fill="#191970" stroke="#191970" points="465.3732,-95.5899 454.8217,-94.6325 462.4732,-101.961 465.3732,-95.5899"/>
</g>
<!-- Node10 -->
<g id="node10" class="node">
<title>Node10</title>
<g id="a_node10"><a xlink:href="../../d2/d3d/classKFParticleFinder.html#a845f4b9e798f34dad97691ddd0df6b07" target="_top" xlink:title="KFParticleFinder::Construct\lTrackV0Cand">
<polygon fill="none" stroke="#000000" points="554,-92.5 554,-124.5 707,-124.5 707,-92.5 554,-92.5"/>
<text text-anchor="start" x="562" y="-111.5" font-family="FreeSans" font-size="10.00" fill="#000000">KFParticleFinder::Construct</text>
<text text-anchor="middle" x="630.5" y="-99.5" font-family="FreeSans" font-size="10.00" fill="#000000">TrackV0Cand</text>
</a>
</g>
</g>
<!-- Node4&#45;&gt;Node10 -->
<g id="edge10" class="edge">
<title>Node4&#45;&gt;Node10</title>
<path fill="none" stroke="#191970" d="M516.7993,-94.6832C529.1204,-96.1805 541.7594,-97.7163 553.9249,-99.1947"/>
<polygon fill="#191970" stroke="#191970" points="516.8909,-91.1687 506.5417,-93.4367 516.0464,-98.1176 516.8909,-91.1687"/>
</g>
<!-- Node12 -->
<g id="node12" class="node">
<title>Node12</title>
<g id="a_node12"><a xlink:href="../../d2/d3d/classKFParticleFinder.html#a4ef976ffd76ed2d50940a5d5bb766795" target="_top" xlink:title="KFParticleFinder::Combine\lPartPart">
<polygon fill="none" stroke="#000000" points="764.5,-44.5 764.5,-76.5 912.5,-76.5 912.5,-44.5 764.5,-44.5"/>
<text text-anchor="start" x="772.5" y="-63.5" font-family="FreeSans" font-size="10.00" fill="#000000">KFParticleFinder::Combine</text>
<text text-anchor="middle" x="838.5" y="-51.5" font-family="FreeSans" font-size="10.00" fill="#000000">PartPart</text>
</a>
</g>
</g>
<!-- Node4&#45;&gt;Node12 -->
<g id="edge13" class="edge">
<title>Node4&#45;&gt;Node12</title>
<path fill="none" stroke="#191970" d="M516.9789,-79.5296C589.9222,-75.2124 694.5449,-69.0202 764.4199,-64.8845"/>
<polygon fill="#191970" stroke="#191970" points="516.6792,-76.0411 506.9034,-80.1259 517.0928,-83.0289 516.6792,-76.0411"/>
</g>
<!-- Node13 -->
<g id="node13" class="node">
<title>Node13</title>
<g id="a_node13"><a xlink:href="../../d2/d3d/classKFParticleFinder.html#a76e093479fb04d0360e1cca0e6aa5d01" target="_top" xlink:title="KFParticleFinder::Neutral\lDaughterDecay">
<polygon fill="none" stroke="#000000" points="560.5,-.5 560.5,-32.5 700.5,-32.5 700.5,-.5 560.5,-.5"/>
<text text-anchor="start" x="568.5" y="-19.5" font-family="FreeSans" font-size="10.00" fill="#000000">KFParticleFinder::Neutral</text>
<text text-anchor="middle" x="630.5" y="-7.5" font-family="FreeSans" font-size="10.00" fill="#000000">DaughterDecay</text>
</a>
</g>
</g>
<!-- Node4&#45;&gt;Node13 -->
<g id="edge15" class="edge">
<title>Node4&#45;&gt;Node13</title>
<path fill="none" stroke="#191970" d="M471.6628,-71.1883C503.8543,-60.1046 549.79,-44.2887 583.9883,-32.5142"/>
<polygon fill="#191970" stroke="#191970" points="470.4576,-67.9015 462.1418,-74.4664 472.7365,-74.5202 470.4576,-67.9015"/>
</g>
<!-- Node6 -->
<g id="node6" class="node">
<title>Node6</title>
<g id="a_node6"><a xlink:href="../../d2/d3d/classKFParticleFinder.html#a3f6967ae8b6839bc7de48991eaa812ef" target="_top" xlink:title="KFParticleFinder::Find2Daughter\lDecay">
<polygon fill="none" stroke="#000000" points="749,-197.5 749,-229.5 928,-229.5 928,-197.5 749,-197.5"/>
<text text-anchor="start" x="757" y="-216.5" font-family="FreeSans" font-size="10.00" fill="#000000">KFParticleFinder::Find2Daughter</text>
<text text-anchor="middle" x="838.5" y="-204.5" font-family="FreeSans" font-size="10.00" fill="#000000">Decay</text>
</a>
</g>
</g>
<!-- Node5&#45;&gt;Node6 -->
<g id="edge5" class="edge">
<title>Node5&#45;&gt;Node6</title>
<path fill="none" stroke="#191970" d="M681.4237,-174.9861C708.9977,-181.747 743.3723,-190.1754 772.9284,-197.4223"/>
<polygon fill="#191970" stroke="#191970" points="682.1399,-171.5581 671.5941,-172.576 680.4729,-178.3567 682.1399,-171.5581"/>
</g>
<!-- Node9 -->
<g id="node9" class="node">
<title>Node9</title>
<g id="a_node9"><a xlink:href="../../d2/d3d/classKFParticleFinder.html#ae68561ffcd9f3bf3e8230604678105c5" target="_top" xlink:title="KFParticleFinder::Construct\lPrimaryBG">
<polygon fill="none" stroke="#000000" points="762,-146.5 762,-178.5 915,-178.5 915,-146.5 762,-146.5"/>
<text text-anchor="start" x="770" y="-165.5" font-family="FreeSans" font-size="10.00" fill="#000000">KFParticleFinder::Construct</text>
<text text-anchor="middle" x="838.5" y="-153.5" font-family="FreeSans" font-size="10.00" fill="#000000">PrimaryBG</text>
</a>
</g>
</g>
<!-- Node5&#45;&gt;Node9 -->
<g id="edge8" class="edge">
<title>Node5&#45;&gt;Node9</title>
<path fill="none" stroke="#191970" d="M723.2786,-162.5C736.1691,-162.5 749.2923,-162.5 761.8435,-162.5"/>
<polygon fill="#191970" stroke="#191970" points="723.0059,-159.0001 713.0059,-162.5 723.0058,-166.0001 723.0059,-159.0001"/>
</g>
<!-- Node7 -->
<g id="node7" class="node">
<title>Node7</title>
<g id="a_node7"><a xlink:href="../../d2/d3d/classKFParticleFinder.html#a3ad831d1b28cce4689501e369f561926" target="_top" xlink:title="KFParticleFinder::FindParticles">
<polygon fill="none" stroke="#000000" points="964,-101.5 964,-121.5 1131,-121.5 1131,-101.5 964,-101.5"/>
<text text-anchor="middle" x="1047.5" y="-108.5" font-family="FreeSans" font-size="10.00" fill="#000000">KFParticleFinder::FindParticles</text>
</a>
</g>
</g>
<!-- Node6&#45;&gt;Node7 -->
<g id="edge6" class="edge">
<title>Node6&#45;&gt;Node7</title>
<path fill="none" stroke="#191970" d="M914.4261,-194.0339C919.0725,-192.3076 923.6315,-190.4634 928,-188.5 969.6459,-169.7825 1013.5072,-137.9058 1034.6331,-121.6639"/>
<polygon fill="#191970" stroke="#191970" points="913.0757,-190.7985 904.7987,-197.4122 915.3935,-197.4036 913.0757,-190.7985"/>
</g>
<!-- Node8 -->
<g id="node8" class="node">
<title>Node8</title>
<g id="a_node8"><a xlink:href="../../db/d6d/classKFParticleTopoReconstructor.html#a3013eefd4e16b74ae39c531678623d08" target="_top" xlink:title="KFParticleTopoReconstructor\l::ReconstructParticles">
<polygon fill="none" stroke="#000000" points="1167,-95.5 1167,-127.5 1327,-127.5 1327,-95.5 1167,-95.5"/>
<text text-anchor="start" x="1175" y="-114.5" font-family="FreeSans" font-size="10.00" fill="#000000">KFParticleTopoReconstructor</text>
<text text-anchor="middle" x="1247" y="-102.5" font-family="FreeSans" font-size="10.00" fill="#000000">::ReconstructParticles</text>
</a>
</g>
</g>
<!-- Node7&#45;&gt;Node8 -->
<g id="edge7" class="edge">
<title>Node7&#45;&gt;Node8</title>
<path fill="none" stroke="#191970" d="M1141.2835,-111.5C1149.8763,-111.5 1158.5283,-111.5 1166.9834,-111.5"/>
<polygon fill="#191970" stroke="#191970" points="1141.2389,-108.0001 1131.2388,-111.5 1141.2388,-115.0001 1141.2389,-108.0001"/>
</g>
<!-- Node9&#45;&gt;Node7 -->
<g id="edge9" class="edge">
<title>Node9&#45;&gt;Node7</title>
<path fill="none" stroke="#191970" d="M914.2821,-144.0077C945.3421,-136.4285 980.0717,-127.9538 1006.2819,-121.558"/>
<polygon fill="#191970" stroke="#191970" points="913.2272,-140.6623 904.342,-146.4333 914.8867,-147.4628 913.2272,-140.6623"/>
</g>
<!-- Node11 -->
<g id="node11" class="node">
<title>Node11</title>
<g id="a_node11"><a xlink:href="../../d2/d3d/classKFParticleFinder.html#a2073bafab2ee9126f3fbf0bef15f68e3" target="_top" xlink:title="KFParticleFinder::FindTrack\lV0Decay">
<polygon fill="none" stroke="#000000" points="763,-95.5 763,-127.5 914,-127.5 914,-95.5 763,-95.5"/>
<text text-anchor="start" x="771" y="-114.5" font-family="FreeSans" font-size="10.00" fill="#000000">KFParticleFinder::FindTrack</text>
<text text-anchor="middle" x="838.5" y="-102.5" font-family="FreeSans" font-size="10.00" fill="#000000">V0Decay</text>
</a>
</g>
</g>
<!-- Node10&#45;&gt;Node11 -->
<g id="edge11" class="edge">
<title>Node10&#45;&gt;Node11</title>
<path fill="none" stroke="#191970" d="M717.4061,-109.7535C732.4796,-109.9709 748.0457,-110.1954 762.7907,-110.408"/>
<polygon fill="#191970" stroke="#191970" points="717.1149,-106.249 707.0654,-109.6043 717.0138,-113.2483 717.1149,-106.249"/>
</g>
<!-- Node11&#45;&gt;Node7 -->
<g id="edge12" class="edge">
<title>Node11&#45;&gt;Node7</title>
<path fill="none" stroke="#191970" d="M924.5672,-111.5C937.5575,-111.5 950.9403,-111.5 963.878,-111.5"/>
<polygon fill="#191970" stroke="#191970" points="924.2493,-108.0001 914.2493,-111.5 924.2493,-115.0001 924.2493,-108.0001"/>
</g>
<!-- Node12&#45;&gt;Node7 -->
<g id="edge14" class="edge">
<title>Node12&#45;&gt;Node7</title>
<path fill="none" stroke="#191970" d="M914.2821,-78.9923C945.3421,-86.5715 980.0717,-95.0462 1006.2819,-101.442"/>
<polygon fill="#191970" stroke="#191970" points="914.8867,-75.5372 904.342,-76.5667 913.2272,-82.3377 914.8867,-75.5372"/>
</g>
<!-- Node13&#45;&gt;Node7 -->
<g id="edge16" class="edge">
<title>Node13&#45;&gt;Node7</title>
<path fill="none" stroke="#191970" d="M710.9142,-10.9621C771.9596,-9.2809 857.1807,-12.4143 928,-35.5 971.9472,-49.8259 1015.7941,-84.098 1035.987,-101.2942"/>
<polygon fill="#191970" stroke="#191970" points="710.4504,-7.4752 700.5698,-11.2993 710.6785,-14.4715 710.4504,-7.4752"/>
</g>
<!-- Node15 -->
<g id="node15" class="node">
<title>Node15</title>
<g id="a_node15"><a xlink:href="../../db/dcc/classKFParticleSIMD.html#a7a8fccbeb58437f20fee5cb68e6f1259" target="_top" xlink:title="KFParticleSIMD::operator+=">
<polygon fill="none" stroke="#000000" points="354,-23.5 354,-43.5 512,-43.5 512,-23.5 354,-23.5"/>
<text text-anchor="middle" x="433" y="-30.5" font-family="FreeSans" font-size="10.00" fill="#000000">KFParticleSIMD::operator+=</text>
</a>
</g>
</g>
<!-- Node14&#45;&gt;Node15 -->
<g id="edge18" class="edge">
<title>Node14&#45;&gt;Node15</title>
<path fill="none" stroke="#191970" d="M303.0938,-33.5C319.4851,-33.5 337.1327,-33.5 353.9755,-33.5"/>
<polygon fill="#191970" stroke="#191970" points="303.0687,-30.0001 293.0687,-33.5 303.0686,-37.0001 303.0687,-30.0001"/>
</g>
</g>
</svg>
