<?xml version="1.0" encoding="UTF-8" standalone="no"?>
<!DOCTYPE svg PUBLIC "-//W3C//DTD SVG 1.1//EN"
 "http://www.w3.org/Graphics/SVG/1.1/DTD/svg11.dtd">
<!-- Generated by graphviz version 2.40.1 (20161225.0304)
 -->
<!-- Title: KFParticleBaseSIMD::GetDStoPointBz Pages: 1 -->
<svg width="1665pt" height="252pt"
 viewBox="0.00 0.00 1665.00 252.00" xmlns="http://www.w3.org/2000/svg" xmlns:xlink="http://www.w3.org/1999/xlink">
<g id="graph0" class="graph" transform="scale(1 1) rotate(0) translate(4 248)">
<title>KFParticleBaseSIMD::GetDStoPointBz</title>
<!-- Node1 -->
<g id="node1" class="node">
<title>Node1</title>
<polygon fill="#bfbfbf" stroke="#000000" points="0,-160.5 0,-192.5 116,-192.5 116,-160.5 0,-160.5"/>
<text text-anchor="start" x="8" y="-179.5" font-family="FreeSans" font-size="10.00" fill="#000000">KFParticleBaseSIMD</text>
<text text-anchor="middle" x="58" y="-167.5" font-family="FreeSans" font-size="10.00" fill="#000000">::GetDStoPointBz</text>
</g>
<!-- Node2 -->
<g id="node2" class="node">
<title>Node2</title>
<g id="a_node2"><a xlink:href="../../db/dcc/classKFParticleSIMD.html#adf768a35209bb2f98adf8a12e21a09d4" target="_top" xlink:title="KFParticleSIMD::GetDStoPoint">
<polygon fill="none" stroke="#000000" points="456,-166.5 456,-186.5 622,-186.5 622,-166.5 456,-166.5"/>
<text text-anchor="middle" x="539" y="-173.5" font-family="FreeSans" font-size="10.00" fill="#000000">KFParticleSIMD::GetDStoPoint</text>
</a>
</g>
</g>
<!-- Node1&#45;&gt;Node2 -->
<g id="edge1" class="edge">
<title>Node1&#45;&gt;Node2</title>
<path fill="none" stroke="#191970" d="M126.2611,-178.9343C134.9238,-179.168 143.6688,-179.3671 152,-179.5 271.096,-181.4 300.8983,-181.001 420,-179.5 431.5722,-179.3542 443.7759,-179.1286 455.7811,-178.8651"/>
<polygon fill="#191970" stroke="#191970" points="126.2552,-175.4328 116.1594,-178.646 126.0554,-182.4299 126.2552,-175.4328"/>
</g>
<!-- Node14 -->
<g id="node14" class="node">
<title>Node14</title>
<g id="a_node14"><a xlink:href="../../d2/dbb/classKFParticleBaseSIMD.html#a59e8050469c4aa5bb1920d8426543b4b" target="_top" xlink:title="KFParticleBaseSIMD\l::GetDStoPointBy">
<polygon fill="none" stroke="#000000" points="152,-138.5 152,-170.5 268,-170.5 268,-138.5 152,-138.5"/>
<text text-anchor="start" x="160" y="-157.5" font-family="FreeSans" font-size="10.00" fill="#000000">KFParticleBaseSIMD</text>
<text text-anchor="middle" x="210" y="-145.5" font-family="FreeSans" font-size="10.00" fill="#000000">::GetDStoPointBy</text>
</a>
</g>
</g>
<!-- Node1&#45;&gt;Node14 -->
<g id="edge16" class="edge">
<title>Node1&#45;&gt;Node14</title>
<path fill="none" stroke="#191970" d="M126.264,-166.6197C134.7979,-165.3845 143.4632,-164.1303 151.8236,-162.9203"/>
<polygon fill="#191970" stroke="#191970" points="125.7279,-163.1607 116.3325,-168.0571 126.7307,-170.0885 125.7279,-163.1607"/>
</g>
<!-- Node3 -->
<g id="node3" class="node">
<title>Node3</title>
<g id="a_node3"><a xlink:href="../../db/dcc/classKFParticleSIMD.html#a2ebfe06b454da6d2b7c5d0bfef26e9ca" target="_top" xlink:title="KFParticleSIMD::GetDistance\lFromVertexXY">
<polygon fill="none" stroke="#000000" points="660,-211.5 660,-243.5 820,-243.5 820,-211.5 660,-211.5"/>
<text text-anchor="start" x="668" y="-230.5" font-family="FreeSans" font-size="10.00" fill="#000000">KFParticleSIMD::GetDistance</text>
<text text-anchor="middle" x="740" y="-218.5" font-family="FreeSans" font-size="10.00" fill="#000000">FromVertexXY</text>
</a>
</g>
</g>
<!-- Node2&#45;&gt;Node3 -->
<g id="edge2" class="edge">
<title>Node2&#45;&gt;Node3</title>
<path fill="none" stroke="#191970" d="M588.5609,-189.0752C615.1473,-195.8209 648.199,-204.2072 676.6351,-211.4223"/>
<polygon fill="#191970" stroke="#191970" points="589.2648,-185.6429 578.7111,-186.576 587.5432,-192.4279 589.2648,-185.6429"/>
</g>
<!-- Node4 -->
<g id="node4" class="node">
<title>Node4</title>
<g id="a_node4"><a xlink:href="../../db/dcc/classKFParticleSIMD.html#a0007ac45e27ad78d3481c143dd3d6dcf" target="_top" xlink:title="KFParticleSIMD::GetDeviation\lFromVertexXY">
<polygon fill="none" stroke="#000000" points="658,-160.5 658,-192.5 822,-192.5 822,-160.5 658,-160.5"/>
<text text-anchor="start" x="666" y="-179.5" font-family="FreeSans" font-size="10.00" fill="#000000">KFParticleSIMD::GetDeviation</text>
<text text-anchor="middle" x="740" y="-167.5" font-family="FreeSans" font-size="10.00" fill="#000000">FromVertexXY</text>
</a>
</g>
</g>
<!-- Node2&#45;&gt;Node4 -->
<g id="edge3" class="edge">
<title>Node2&#45;&gt;Node4</title>
<path fill="none" stroke="#191970" d="M632.4795,-176.5C640.9429,-176.5 649.473,-176.5 657.8283,-176.5"/>
<polygon fill="#191970" stroke="#191970" points="632.2053,-173.0001 622.2053,-176.5 632.2053,-180.0001 632.2053,-173.0001"/>
</g>
<!-- Node6 -->
<g id="node6" class="node">
<title>Node6</title>
<g id="a_node6"><a xlink:href="../../db/dcc/classKFParticleSIMD.html#ac4c896519f2acc22953b5b943bc8e08a" target="_top" xlink:title="KFParticleSIMD::Transport\lToPoint">
<polygon fill="none" stroke="#000000" points="667,-90.5 667,-122.5 813,-122.5 813,-90.5 667,-90.5"/>
<text text-anchor="start" x="675" y="-109.5" font-family="FreeSans" font-size="10.00" fill="#000000">KFParticleSIMD::Transport</text>
<text text-anchor="middle" x="740" y="-97.5" font-family="FreeSans" font-size="10.00" fill="#000000">ToPoint</text>
</a>
</g>
</g>
<!-- Node2&#45;&gt;Node6 -->
<g id="edge5" class="edge">
<title>Node2&#45;&gt;Node6</title>
<path fill="none" stroke="#191970" d="M577.5824,-163.0633C610.7294,-151.5196 658.5999,-134.8483 693.786,-122.5944"/>
<polygon fill="#191970" stroke="#191970" points="576.091,-159.8765 567.7984,-166.4707 578.3932,-166.4871 576.091,-159.8765"/>
</g>
<!-- Node5 -->
<g id="node5" class="node">
<title>Node5</title>
<g id="a_node5"><a xlink:href="../../db/dcc/classKFParticleSIMD.html#a1b524c1e7e92bcb25417e072198676da" target="_top" xlink:title="KFParticleSIMD::GetDeviation\lFromVertexXY">
<polygon fill="none" stroke="#000000" points="858,-180.5 858,-212.5 1022,-212.5 1022,-180.5 858,-180.5"/>
<text text-anchor="start" x="866" y="-199.5" font-family="FreeSans" font-size="10.00" fill="#000000">KFParticleSIMD::GetDeviation</text>
<text text-anchor="middle" x="940" y="-187.5" font-family="FreeSans" font-size="10.00" fill="#000000">FromVertexXY</text>
</a>
</g>
</g>
<!-- Node4&#45;&gt;Node5 -->
<g id="edge4" class="edge">
<title>Node4&#45;&gt;Node5</title>
<path fill="none" stroke="#191970" d="M832.1874,-185.7187C840.7264,-186.5726 849.3418,-187.4342 857.7826,-188.2783"/>
<polygon fill="#191970" stroke="#191970" points="832.5121,-182.2338 822.2135,-184.7213 831.8155,-189.1991 832.5121,-182.2338"/>
</g>
<!-- Node7 -->
<g id="node7" class="node">
<title>Node7</title>
<g id="a_node7"><a xlink:href="../../d2/d3d/classKFParticleFinder.html#a370264d09a6bfbb50da1113abd0db15a" target="_top" xlink:title="KFParticleFinder::ExtrapolateToPV">
<polygon fill="none" stroke="#000000" points="1058,-141.5 1058,-161.5 1244,-161.5 1244,-141.5 1058,-141.5"/>
<text text-anchor="middle" x="1151" y="-148.5" font-family="FreeSans" font-size="10.00" fill="#000000">KFParticleFinder::ExtrapolateToPV</text>
</a>
</g>
</g>
<!-- Node6&#45;&gt;Node7 -->
<g id="edge6" class="edge">
<title>Node6&#45;&gt;Node7</title>
<path fill="none" stroke="#191970" d="M817.8282,-124.6041C831.1724,-127.244 844.9433,-129.6804 858,-131.5 924.5317,-140.7717 1000.1874,-145.7973 1057.954,-148.4916"/>
<polygon fill="#191970" stroke="#191970" points="818.2224,-121.1128 807.7259,-122.5525 816.8293,-127.9727 818.2224,-121.1128"/>
</g>
<!-- Node10 -->
<g id="node10" class="node">
<title>Node10</title>
<g id="a_node10"><a xlink:href="../../d2/d3d/classKFParticleFinder.html#a845f4b9e798f34dad97691ddd0df6b07" target="_top" xlink:title="KFParticleFinder::Construct\lTrackV0Cand">
<polygon fill="none" stroke="#000000" points="863.5,-90.5 863.5,-122.5 1016.5,-122.5 1016.5,-90.5 863.5,-90.5"/>
<text text-anchor="start" x="871.5" y="-109.5" font-family="FreeSans" font-size="10.00" fill="#000000">KFParticleFinder::Construct</text>
<text text-anchor="middle" x="940" y="-97.5" font-family="FreeSans" font-size="10.00" fill="#000000">TrackV0Cand</text>
</a>
</g>
</g>
<!-- Node6&#45;&gt;Node10 -->
<g id="edge9" class="edge">
<title>Node6&#45;&gt;Node10</title>
<path fill="none" stroke="#191970" d="M823.1624,-106.5C836.508,-106.5 850.2656,-106.5 863.4471,-106.5"/>
<polygon fill="#191970" stroke="#191970" points="823.0536,-103.0001 813.0536,-106.5 823.0535,-110.0001 823.0536,-103.0001"/>
</g>
<!-- Node12 -->
<g id="node12" class="node">
<title>Node12</title>
<g id="a_node12"><a xlink:href="../../db/d6d/classKFParticleTopoReconstructor.html#a6902971d3ad7442052bf4b0195b08115" target="_top" xlink:title="KFParticleTopoReconstructor\l::TransportPVTracksToPrimVertex">
<polygon fill="none" stroke="#000000" points="1280,-45.5 1280,-77.5 1461,-77.5 1461,-45.5 1280,-45.5"/>
<text text-anchor="start" x="1288" y="-64.5" font-family="FreeSans" font-size="10.00" fill="#000000">KFParticleTopoReconstructor</text>
<text text-anchor="middle" x="1370.5" y="-52.5" font-family="FreeSans" font-size="10.00" fill="#000000">::TransportPVTracksToPrimVertex</text>
</a>
</g>
</g>
<!-- Node6&#45;&gt;Node12 -->
<g id="edge12" class="edge">
<title>Node6&#45;&gt;Node12</title>
<path fill="none" stroke="#191970" d="M812.8554,-88.3039C827.708,-85.2007 843.2909,-82.3776 858,-80.5 1004.8322,-61.7566 1177.0957,-59.3446 1279.8347,-59.9572"/>
<polygon fill="#191970" stroke="#191970" points="811.7483,-84.962 802.7093,-90.4889 813.222,-91.8052 811.7483,-84.962"/>
</g>
<!-- Node13 -->
<g id="node13" class="node">
<title>Node13</title>
<g id="a_node13"><a xlink:href="../../db/d6d/classKFParticleTopoReconstructor.html#ab724f4c1794600a8405b606d727b97fb" target="_top" xlink:title="KFParticleTopoReconstructor\l::GetChiToPrimVertex">
<polygon fill="none" stroke="#000000" points="1071,-.5 1071,-32.5 1231,-32.5 1231,-.5 1071,-.5"/>
<text text-anchor="start" x="1079" y="-19.5" font-family="FreeSans" font-size="10.00" fill="#000000">KFParticleTopoReconstructor</text>
<text text-anchor="middle" x="1151" y="-7.5" font-family="FreeSans" font-size="10.00" fill="#000000">::GetChiToPrimVertex</text>
</a>
</g>
</g>
<!-- Node6&#45;&gt;Node13 -->
<g id="edge14" class="edge">
<title>Node6&#45;&gt;Node13</title>
<path fill="none" stroke="#191970" d="M774.2391,-85.2552C797.0983,-72.1289 828.3071,-56.1841 858,-47.5 928.0836,-27.0031 1011.1121,-19.726 1070.8573,-17.2988"/>
<polygon fill="#191970" stroke="#191970" points="772.4639,-82.2387 765.6004,-90.3099 775.999,-88.2805 772.4639,-82.2387"/>
</g>
<!-- Node8 -->
<g id="node8" class="node">
<title>Node8</title>
<g id="a_node8"><a xlink:href="../../d2/d3d/classKFParticleFinder.html#a3ad831d1b28cce4689501e369f561926" target="_top" xlink:title="KFParticleFinder::FindParticles">
<polygon fill="none" stroke="#000000" points="1287,-96.5 1287,-116.5 1454,-116.5 1454,-96.5 1287,-96.5"/>
<text text-anchor="middle" x="1370.5" y="-103.5" font-family="FreeSans" font-size="10.00" fill="#000000">KFParticleFinder::FindParticles</text>
</a>
</g>
</g>
<!-- Node7&#45;&gt;Node8 -->
<g id="edge7" class="edge">
<title>Node7&#45;&gt;Node8</title>
<path fill="none" stroke="#191970" d="M1210.055,-139.3931C1244.9831,-132.2324 1288.6906,-123.2719 1321.6629,-116.5122"/>
<polygon fill="#191970" stroke="#191970" points="1209.0802,-136.02 1199.9869,-141.4571 1210.4861,-142.8774 1209.0802,-136.02"/>
</g>
<!-- Node9 -->
<g id="node9" class="node">
<title>Node9</title>
<g id="a_node9"><a xlink:href="../../db/d6d/classKFParticleTopoReconstructor.html#a3013eefd4e16b74ae39c531678623d08" target="_top" xlink:title="KFParticleTopoReconstructor\l::ReconstructParticles">
<polygon fill="none" stroke="#000000" points="1497,-45.5 1497,-77.5 1657,-77.5 1657,-45.5 1497,-45.5"/>
<text text-anchor="start" x="1505" y="-64.5" font-family="FreeSans" font-size="10.00" fill="#000000">KFParticleTopoReconstructor</text>
<text text-anchor="middle" x="1577" y="-52.5" font-family="FreeSans" font-size="10.00" fill="#000000">::ReconstructParticles</text>
</a>
</g>
</g>
<!-- Node8&#45;&gt;Node9 -->
<g id="edge8" class="edge">
<title>Node8&#45;&gt;Node9</title>
<path fill="none" stroke="#191970" d="M1426.4692,-94.3033C1450.1837,-89.1355 1478.1425,-83.0428 1503.4876,-77.5196"/>
<polygon fill="#191970" stroke="#191970" points="1425.6111,-90.9081 1416.5856,-96.4571 1427.1016,-97.7476 1425.6111,-90.9081"/>
</g>
<!-- Node11 -->
<g id="node11" class="node">
<title>Node11</title>
<g id="a_node11"><a xlink:href="../../d2/d3d/classKFParticleFinder.html#a2073bafab2ee9126f3fbf0bef15f68e3" target="_top" xlink:title="KFParticleFinder::FindTrack\lV0Decay">
<polygon fill="none" stroke="#000000" points="1075.5,-90.5 1075.5,-122.5 1226.5,-122.5 1226.5,-90.5 1075.5,-90.5"/>
<text text-anchor="start" x="1083.5" y="-109.5" font-family="FreeSans" font-size="10.00" fill="#000000">KFParticleFinder::FindTrack</text>
<text text-anchor="middle" x="1151" y="-97.5" font-family="FreeSans" font-size="10.00" fill="#000000">V0Decay</text>
</a>
</g>
</g>
<!-- Node10&#45;&gt;Node11 -->
<g id="edge10" class="edge">
<title>Node10&#45;&gt;Node11</title>
<path fill="none" stroke="#191970" d="M1027.1783,-106.5C1043.1641,-106.5 1059.7289,-106.5 1075.3434,-106.5"/>
<polygon fill="#191970" stroke="#191970" points="1026.7728,-103.0001 1016.7727,-106.5 1026.7727,-110.0001 1026.7728,-103.0001"/>
</g>
<!-- Node11&#45;&gt;Node8 -->
<g id="edge11" class="edge">
<title>Node11&#45;&gt;Node8</title>
<path fill="none" stroke="#191970" d="M1236.7057,-106.5C1253.2146,-106.5 1270.4869,-106.5 1286.927,-106.5"/>
<polygon fill="#191970" stroke="#191970" points="1236.5395,-103.0001 1226.5394,-106.5 1236.5394,-110.0001 1236.5395,-103.0001"/>
</g>
<!-- Node12&#45;&gt;Node9 -->
<g id="edge13" class="edge">
<title>Node12&#45;&gt;Node9</title>
<path fill="none" stroke="#191970" d="M1471.1716,-61.5C1479.795,-61.5 1488.4425,-61.5 1496.8731,-61.5"/>
<polygon fill="#191970" stroke="#191970" points="1471.0739,-58.0001 1461.0739,-61.5 1471.0739,-65.0001 1471.0739,-58.0001"/>
</g>
<!-- Node13&#45;&gt;Node9 -->
<g id="edge15" class="edge">
<title>Node13&#45;&gt;Node9</title>
<path fill="none" stroke="#191970" d="M1241.4678,-18.2495C1303.5006,-20.3766 1387.5454,-25.0847 1461,-35.5 1478.369,-37.9628 1496.9923,-41.6565 1514.1222,-45.4922"/>
<polygon fill="#191970" stroke="#191970" points="1241.427,-14.7464 1231.3179,-17.9177 1241.1982,-21.7427 1241.427,-14.7464"/>
</g>
<!-- Node15 -->
<g id="node15" class="node">
<title>Node15</title>
<g id="a_node15"><a xlink:href="../../d2/dbb/classKFParticleBaseSIMD.html#a1dbb5988ec5d1507a2b6d229cf761eb4" target="_top" xlink:title="KFParticleBaseSIMD\l::GetDStoPointCBM">
<polygon fill="none" stroke="#000000" points="304,-138.5 304,-170.5 420,-170.5 420,-138.5 304,-138.5"/>
<text text-anchor="start" x="312" y="-157.5" font-family="FreeSans" font-size="10.00" fill="#000000">KFParticleBaseSIMD</text>
<text text-anchor="middle" x="362" y="-145.5" font-family="FreeSans" font-size="10.00" fill="#000000">::GetDStoPointCBM</text>
</a>
</g>
</g>
<!-- Node14&#45;&gt;Node15 -->
<g id="edge17" class="edge">
<title>Node14&#45;&gt;Node15</title>
<path fill="none" stroke="#191970" d="M278.5423,-154.5C286.9862,-154.5 295.5541,-154.5 303.8236,-154.5"/>
<polygon fill="#191970" stroke="#191970" points="278.3325,-151.0001 268.3325,-154.5 278.3324,-158.0001 278.3325,-151.0001"/>
</g>
<!-- Node15&#45;&gt;Node2 -->
<g id="edge18" class="edge">
<title>Node15&#45;&gt;Node2</title>
<path fill="none" stroke="#191970" d="M430.613,-163.0282C439.7491,-164.1637 449.1834,-165.3364 458.4985,-166.4942"/>
<polygon fill="#191970" stroke="#191970" points="430.8023,-159.5249 420.447,-161.7646 429.9389,-166.4714 430.8023,-159.5249"/>
</g>
</g>
</svg>
