<?xml version="1.0" encoding="UTF-8" standalone="no"?>
<!DOCTYPE svg PUBLIC "-//W3C//DTD SVG 1.1//EN"
 "http://www.w3.org/Graphics/SVG/1.1/DTD/svg11.dtd">
<!-- Generated by graphviz version 2.40.1 (20161225.0304)
 -->
<!-- Title: KFParticleBaseSIMD::GetDStoParticleBz Pages: 1 -->
<svg width="1485pt" height="387pt"
 viewBox="0.00 0.00 1485.00 386.89" xmlns="http://www.w3.org/2000/svg" xmlns:xlink="http://www.w3.org/1999/xlink">
<g id="graph0" class="graph" transform="scale(1 1) rotate(0) translate(4 382.8882)">
<title>KFParticleBaseSIMD::GetDStoParticleBz</title>
<!-- Node1 -->
<g id="node1" class="node">
<title>Node1</title>
<polygon fill="#bfbfbf" stroke="#000000" points="0,-83.3882 0,-115.3882 116,-115.3882 116,-83.3882 0,-83.3882"/>
<text text-anchor="start" x="8" y="-102.3882" font-family="FreeSans" font-size="10.00" fill="#000000">KFParticleBaseSIMD</text>
<text text-anchor="middle" x="58" y="-90.3882" font-family="FreeSans" font-size="10.00" fill="#000000">::GetDStoParticleBz</text>
</g>
<!-- Node2 -->
<g id="node2" class="node">
<title>Node2</title>
<g id="a_node2"><a xlink:href="../../db/dcc/classKFParticleSIMD.html#ad8379c5666e84d5c1de7dd1428234744" target="_top" xlink:title="KFParticleSIMD::GetDStoParticle">
<polygon fill="none" stroke="#000000" points="474.5,-160.3882 474.5,-180.3882 651.5,-180.3882 651.5,-160.3882 474.5,-160.3882"/>
<text text-anchor="middle" x="563" y="-167.3882" font-family="FreeSans" font-size="10.00" fill="#000000">KFParticleSIMD::GetDStoParticle</text>
</a>
</g>
</g>
<!-- Node1&#45;&gt;Node2 -->
<g id="edge1" class="edge">
<title>Node1&#45;&gt;Node2</title>
<path fill="none" stroke="#191970" d="M88.9544,-121.2678C106.5651,-132.4584 129.5358,-145.0319 152,-151.3882 259.7373,-181.8726 389.6294,-182.1489 474.1528,-177.7811"/>
<polygon fill="#191970" stroke="#191970" points="90.5491,-118.1286 80.2648,-115.5821 86.7164,-123.9861 90.5491,-118.1286"/>
</g>
<!-- Node16 -->
<g id="node16" class="node">
<title>Node16</title>
<g id="a_node16"><a xlink:href="../../d2/dbb/classKFParticleBaseSIMD.html#af18dabf64aa93effd00e8ef3187df1e8" target="_top" xlink:title="KFParticleBaseSIMD\l::GetDStoParticleB">
<polygon fill="none" stroke="#000000" points="152,-109.3882 152,-141.3882 268,-141.3882 268,-109.3882 152,-109.3882"/>
<text text-anchor="start" x="160" y="-128.3882" font-family="FreeSans" font-size="10.00" fill="#000000">KFParticleBaseSIMD</text>
<text text-anchor="middle" x="210" y="-116.3882" font-family="FreeSans" font-size="10.00" fill="#000000">::GetDStoParticleB</text>
</a>
</g>
</g>
<!-- Node1&#45;&gt;Node16 -->
<g id="edge17" class="edge">
<title>Node1&#45;&gt;Node16</title>
<path fill="none" stroke="#191970" d="M126.264,-111.0649C134.7979,-112.5247 143.4632,-114.0069 151.8236,-115.437"/>
<polygon fill="#191970" stroke="#191970" points="126.7794,-107.6023 116.3325,-109.3661 125.5992,-114.5021 126.7794,-107.6023"/>
</g>
<!-- Node17 -->
<g id="node17" class="node">
<title>Node17</title>
<g id="a_node17"><a xlink:href="../../d2/dbb/classKFParticleBaseSIMD.html#a807794fa31286b74663338e91a515e28" target="_top" xlink:title="KFParticleBaseSIMD\l::GetDStoParticleBy">
<polygon fill="none" stroke="#000000" points="152,-58.3882 152,-90.3882 268,-90.3882 268,-58.3882 152,-58.3882"/>
<text text-anchor="start" x="160" y="-77.3882" font-family="FreeSans" font-size="10.00" fill="#000000">KFParticleBaseSIMD</text>
<text text-anchor="middle" x="210" y="-65.3882" font-family="FreeSans" font-size="10.00" fill="#000000">::GetDStoParticleBy</text>
</a>
</g>
</g>
<!-- Node1&#45;&gt;Node17 -->
<g id="edge18" class="edge">
<title>Node1&#45;&gt;Node17</title>
<path fill="none" stroke="#191970" d="M126.264,-88.1606C134.7979,-86.757 143.4632,-85.3317 151.8236,-83.9567"/>
<polygon fill="#191970" stroke="#191970" points="125.6318,-84.7174 116.3325,-89.794 126.7679,-91.6246 125.6318,-84.7174"/>
</g>
<!-- Node19 -->
<g id="node19" class="node">
<title>Node19</title>
<g id="a_node19"><a xlink:href="../../db/dcc/classKFParticleSIMD.html#ac4bcc9cda90e1454fd9ab18bfd7bd012" target="_top" xlink:title="KFParticleSIMD::GetDStoParticleFast">
<polygon fill="none" stroke="#000000" points="464,-19.3882 464,-39.3882 662,-39.3882 662,-19.3882 464,-19.3882"/>
<text text-anchor="middle" x="563" y="-26.3882" font-family="FreeSans" font-size="10.00" fill="#000000">KFParticleSIMD::GetDStoParticleFast</text>
</a>
</g>
</g>
<!-- Node1&#45;&gt;Node19 -->
<g id="edge23" class="edge">
<title>Node1&#45;&gt;Node19</title>
<path fill="none" stroke="#191970" d="M89.7997,-77.9355C107.3492,-67.2946 129.9952,-55.4483 152,-49.3882 255.656,-20.8413 379.4832,-18.947 463.9395,-22.2339"/>
<polygon fill="#191970" stroke="#191970" points="87.7485,-75.0899 81.1175,-83.3531 91.4542,-81.0286 87.7485,-75.0899"/>
</g>
<!-- Node3 -->
<g id="node3" class="node">
<title>Node3</title>
<g id="a_node3"><a xlink:href="../../d2/d3d/classKFParticleFinder.html#a555c027cc00bc7d9461470d5c200b993" target="_top" xlink:title="KFParticleFinder::ConstructV0">
<polygon fill="none" stroke="#000000" points="698,-256.3882 698,-276.3882 863,-276.3882 863,-256.3882 698,-256.3882"/>
<text text-anchor="middle" x="780.5" y="-263.3882" font-family="FreeSans" font-size="10.00" fill="#000000">KFParticleFinder::ConstructV0</text>
</a>
</g>
</g>
<!-- Node2&#45;&gt;Node3 -->
<g id="edge2" class="edge">
<title>Node2&#45;&gt;Node3</title>
<path fill="none" stroke="#191970" d="M585.675,-186.0855C611.6969,-203.4275 656.1831,-231.0557 698,-247.3882 707.0358,-250.9173 716.8961,-253.8896 726.5552,-256.3576"/>
<polygon fill="#191970" stroke="#191970" points="587.5222,-183.1096 577.2755,-180.4158 583.6058,-188.9115 587.5222,-183.1096"/>
</g>
<!-- Node8 -->
<g id="node8" class="node">
<title>Node8</title>
<g id="a_node8"><a xlink:href="../../d2/d3d/classKFParticleFinder.html#a845f4b9e798f34dad97691ddd0df6b07" target="_top" xlink:title="KFParticleFinder::Construct\lTrackV0Cand">
<polygon fill="none" stroke="#000000" points="704,-295.3882 704,-327.3882 857,-327.3882 857,-295.3882 704,-295.3882"/>
<text text-anchor="start" x="712" y="-314.3882" font-family="FreeSans" font-size="10.00" fill="#000000">KFParticleFinder::Construct</text>
<text text-anchor="middle" x="780.5" y="-302.3882" font-family="FreeSans" font-size="10.00" fill="#000000">TrackV0Cand</text>
</a>
</g>
</g>
<!-- Node2&#45;&gt;Node8 -->
<g id="edge8" class="edge">
<title>Node2&#45;&gt;Node8</title>
<path fill="none" stroke="#191970" d="M578.9087,-188.0944C602.5337,-213.3708 649.3587,-259.6864 698,-286.3882 704.1661,-289.7731 710.8489,-292.7577 717.6508,-295.3751"/>
<polygon fill="#191970" stroke="#191970" points="581.429,-185.6644 572.0806,-180.6786 576.2794,-190.4059 581.429,-185.6644"/>
</g>
<!-- Node10 -->
<g id="node10" class="node">
<title>Node10</title>
<g id="a_node10"><a xlink:href="../../db/dcc/classKFParticleSIMD.html#aa8fb673d2b680ca33297a1e401aa7208" target="_top" xlink:title="KFParticleSIMD::GetDistance\lFromParticleXY">
<polygon fill="none" stroke="#000000" points="700.5,-205.3882 700.5,-237.3882 860.5,-237.3882 860.5,-205.3882 700.5,-205.3882"/>
<text text-anchor="start" x="708.5" y="-224.3882" font-family="FreeSans" font-size="10.00" fill="#000000">KFParticleSIMD::GetDistance</text>
<text text-anchor="middle" x="780.5" y="-212.3882" font-family="FreeSans" font-size="10.00" fill="#000000">FromParticleXY</text>
</a>
</g>
</g>
<!-- Node2&#45;&gt;Node10 -->
<g id="edge11" class="edge">
<title>Node2&#45;&gt;Node10</title>
<path fill="none" stroke="#191970" d="M615.6488,-182.7334C644.6666,-189.5376 681.0229,-198.0625 712.2045,-205.374"/>
<polygon fill="#191970" stroke="#191970" points="616.2465,-179.2787 605.7115,-180.4033 614.6484,-186.0938 616.2465,-179.2787"/>
</g>
<!-- Node11 -->
<g id="node11" class="node">
<title>Node11</title>
<g id="a_node11"><a xlink:href="../../db/dcc/classKFParticleSIMD.html#aeef9436d096312a52ff8d9a2e691f115" target="_top" xlink:title="KFParticleSIMD::GetDeviation\lFromParticleXY">
<polygon fill="none" stroke="#000000" points="698.5,-154.3882 698.5,-186.3882 862.5,-186.3882 862.5,-154.3882 698.5,-154.3882"/>
<text text-anchor="start" x="706.5" y="-173.3882" font-family="FreeSans" font-size="10.00" fill="#000000">KFParticleSIMD::GetDeviation</text>
<text text-anchor="middle" x="780.5" y="-161.3882" font-family="FreeSans" font-size="10.00" fill="#000000">FromParticleXY</text>
</a>
</g>
</g>
<!-- Node2&#45;&gt;Node11 -->
<g id="edge12" class="edge">
<title>Node2&#45;&gt;Node11</title>
<path fill="none" stroke="#191970" d="M661.9432,-170.3882C674.1054,-170.3882 686.4326,-170.3882 698.3095,-170.3882"/>
<polygon fill="#191970" stroke="#191970" points="661.7793,-166.8883 651.7793,-170.3882 661.7792,-173.8883 661.7793,-166.8883"/>
</g>
<!-- Node12 -->
<g id="node12" class="node">
<title>Node12</title>
<g id="a_node12"><a xlink:href="../../db/dcc/classKFParticleSIMD.html#a742d47505d1051ecf081040ac15c9798" target="_top" xlink:title="KFParticleSIMD::GetAngle">
<polygon fill="none" stroke="#000000" points="708,-115.3882 708,-135.3882 853,-135.3882 853,-115.3882 708,-115.3882"/>
<text text-anchor="middle" x="780.5" y="-122.3882" font-family="FreeSans" font-size="10.00" fill="#000000">KFParticleSIMD::GetAngle</text>
</a>
</g>
</g>
<!-- Node2&#45;&gt;Node12 -->
<g id="edge13" class="edge">
<title>Node2&#45;&gt;Node12</title>
<path fill="none" stroke="#191970" d="M621.5169,-158.2812C656.1268,-151.1206 699.436,-142.16 732.1078,-135.4003"/>
<polygon fill="#191970" stroke="#191970" points="620.624,-154.8918 611.5405,-160.3453 622.0423,-161.7466 620.624,-154.8918"/>
</g>
<!-- Node13 -->
<g id="node13" class="node">
<title>Node13</title>
<g id="a_node13"><a xlink:href="../../db/dcc/classKFParticleSIMD.html#a485a5cc06021dbc62322c2cb7a706251" target="_top" xlink:title="KFParticleSIMD::GetAngleXY">
<polygon fill="none" stroke="#000000" points="701,-76.3882 701,-96.3882 860,-96.3882 860,-76.3882 701,-76.3882"/>
<text text-anchor="middle" x="780.5" y="-83.3882" font-family="FreeSans" font-size="10.00" fill="#000000">KFParticleSIMD::GetAngleXY</text>
</a>
</g>
</g>
<!-- Node2&#45;&gt;Node13 -->
<g id="edge14" class="edge">
<title>Node2&#45;&gt;Node13</title>
<path fill="none" stroke="#191970" d="M590.4029,-155.3481C617.1907,-141.1424 659.4557,-120.0342 698,-106.3882 708.6975,-102.6009 720.4235,-99.2825 731.5915,-96.4936"/>
<polygon fill="#191970" stroke="#191970" points="588.4303,-152.4343 581.2695,-160.2429 591.7369,-158.6041 588.4303,-152.4343"/>
</g>
<!-- Node14 -->
<g id="node14" class="node">
<title>Node14</title>
<g id="a_node14"><a xlink:href="../../db/dcc/classKFParticleSIMD.html#acf26f94fdfb68a8983b0b601ae86a3ff" target="_top" xlink:title="KFParticleSIMD::GetAngleRZ">
<polygon fill="none" stroke="#000000" points="701,-37.3882 701,-57.3882 860,-57.3882 860,-37.3882 701,-37.3882"/>
<text text-anchor="middle" x="780.5" y="-44.3882" font-family="FreeSans" font-size="10.00" fill="#000000">KFParticleSIMD::GetAngleRZ</text>
</a>
</g>
</g>
<!-- Node2&#45;&gt;Node14 -->
<g id="edge15" class="edge">
<title>Node2&#45;&gt;Node14</title>
<path fill="none" stroke="#191970" d="M580.5505,-153.0762C604.8692,-130.0676 651.1383,-89.7246 698,-67.3882 706.5144,-63.3298 715.9279,-60.0506 725.2587,-57.4147"/>
<polygon fill="#191970" stroke="#191970" points="577.9607,-150.7108 573.1756,-160.1635 582.8111,-155.758 577.9607,-150.7108"/>
</g>
<!-- Node15 -->
<g id="node15" class="node">
<title>Node15</title>
<g id="a_node15"><a xlink:href="../../db/dcc/classKFParticleSIMD.html#a75ee554571b29ef90452c2834bebdb1a" target="_top" xlink:title="KFParticleSIMD::Transport\lToParticle">
<polygon fill="none" stroke="#000000" points="707.5,-346.3882 707.5,-378.3882 853.5,-378.3882 853.5,-346.3882 707.5,-346.3882"/>
<text text-anchor="start" x="715.5" y="-365.3882" font-family="FreeSans" font-size="10.00" fill="#000000">KFParticleSIMD::Transport</text>
<text text-anchor="middle" x="780.5" y="-353.3882" font-family="FreeSans" font-size="10.00" fill="#000000">ToParticle</text>
</a>
</g>
</g>
<!-- Node2&#45;&gt;Node15 -->
<g id="edge16" class="edge">
<title>Node2&#45;&gt;Node15</title>
<path fill="none" stroke="#191970" d="M573.2255,-189.4554C592.7928,-224.1284 638.8927,-297.5896 698,-337.3882 703.0898,-340.8153 708.6655,-343.7859 714.4407,-346.3584"/>
<polygon fill="#191970" stroke="#191970" points="576.1179,-187.4527 568.2196,-180.391 569.9902,-190.8368 576.1179,-187.4527"/>
</g>
<!-- Node4 -->
<g id="node4" class="node">
<title>Node4</title>
<g id="a_node4"><a xlink:href="../../d2/d3d/classKFParticleFinder.html#a3f6967ae8b6839bc7de48991eaa812ef" target="_top" xlink:title="KFParticleFinder::Find2Daughter\lDecay">
<polygon fill="none" stroke="#000000" points="899,-196.3882 899,-228.3882 1078,-228.3882 1078,-196.3882 899,-196.3882"/>
<text text-anchor="start" x="907" y="-215.3882" font-family="FreeSans" font-size="10.00" fill="#000000">KFParticleFinder::Find2Daughter</text>
<text text-anchor="middle" x="988.5" y="-203.3882" font-family="FreeSans" font-size="10.00" fill="#000000">Decay</text>
</a>
</g>
</g>
<!-- Node3&#45;&gt;Node4 -->
<g id="edge3" class="edge">
<title>Node3&#45;&gt;Node4</title>
<path fill="none" stroke="#191970" d="M835.7506,-254.0306C844.8708,-251.8855 854.2133,-249.624 863,-247.3882 886.0172,-241.5314 911.2657,-234.591 933.043,-228.4412"/>
<polygon fill="#191970" stroke="#191970" points="834.9242,-250.6293 825.9783,-256.3057 836.5115,-257.4469 834.9242,-250.6293"/>
</g>
<!-- Node7 -->
<g id="node7" class="node">
<title>Node7</title>
<g id="a_node7"><a xlink:href="../../d2/d3d/classKFParticleFinder.html#ae68561ffcd9f3bf3e8230604678105c5" target="_top" xlink:title="KFParticleFinder::Construct\lPrimaryBG">
<polygon fill="none" stroke="#000000" points="912,-247.3882 912,-279.3882 1065,-279.3882 1065,-247.3882 912,-247.3882"/>
<text text-anchor="start" x="920" y="-266.3882" font-family="FreeSans" font-size="10.00" fill="#000000">KFParticleFinder::Construct</text>
<text text-anchor="middle" x="988.5" y="-254.3882" font-family="FreeSans" font-size="10.00" fill="#000000">PrimaryBG</text>
</a>
</g>
</g>
<!-- Node3&#45;&gt;Node7 -->
<g id="edge6" class="edge">
<title>Node3&#45;&gt;Node7</title>
<path fill="none" stroke="#191970" d="M873.2786,-265.05C886.1691,-264.8641 899.2923,-264.6748 911.8435,-264.4938"/>
<polygon fill="#191970" stroke="#191970" points="872.9543,-261.5542 863.0059,-265.1982 873.0553,-268.5535 872.9543,-261.5542"/>
</g>
<!-- Node5 -->
<g id="node5" class="node">
<title>Node5</title>
<g id="a_node5"><a xlink:href="../../d2/d3d/classKFParticleFinder.html#a3ad831d1b28cce4689501e369f561926" target="_top" xlink:title="KFParticleFinder::FindParticles">
<polygon fill="none" stroke="#000000" points="1114,-253.3882 1114,-273.3882 1281,-273.3882 1281,-253.3882 1114,-253.3882"/>
<text text-anchor="middle" x="1197.5" y="-260.3882" font-family="FreeSans" font-size="10.00" fill="#000000">KFParticleFinder::FindParticles</text>
</a>
</g>
</g>
<!-- Node4&#45;&gt;Node5 -->
<g id="edge4" class="edge">
<title>Node4&#45;&gt;Node5</title>
<path fill="none" stroke="#191970" d="M1064.2821,-230.8805C1095.3421,-238.4597 1130.0717,-246.9344 1156.2819,-253.3302"/>
<polygon fill="#191970" stroke="#191970" points="1064.8867,-227.4254 1054.342,-228.4549 1063.2272,-234.2258 1064.8867,-227.4254"/>
</g>
<!-- Node6 -->
<g id="node6" class="node">
<title>Node6</title>
<g id="a_node6"><a xlink:href="../../db/d6d/classKFParticleTopoReconstructor.html#a3013eefd4e16b74ae39c531678623d08" target="_top" xlink:title="KFParticleTopoReconstructor\l::ReconstructParticles">
<polygon fill="none" stroke="#000000" points="1317,-247.3882 1317,-279.3882 1477,-279.3882 1477,-247.3882 1317,-247.3882"/>
<text text-anchor="start" x="1325" y="-266.3882" font-family="FreeSans" font-size="10.00" fill="#000000">KFParticleTopoReconstructor</text>
<text text-anchor="middle" x="1397" y="-254.3882" font-family="FreeSans" font-size="10.00" fill="#000000">::ReconstructParticles</text>
</a>
</g>
</g>
<!-- Node5&#45;&gt;Node6 -->
<g id="edge5" class="edge">
<title>Node5&#45;&gt;Node6</title>
<path fill="none" stroke="#191970" d="M1291.2835,-263.3882C1299.8763,-263.3882 1308.5283,-263.3882 1316.9834,-263.3882"/>
<polygon fill="#191970" stroke="#191970" points="1291.2389,-259.8883 1281.2388,-263.3882 1291.2388,-266.8883 1291.2389,-259.8883"/>
</g>
<!-- Node7&#45;&gt;Node5 -->
<g id="edge7" class="edge">
<title>Node7&#45;&gt;Node5</title>
<path fill="none" stroke="#191970" d="M1075.2715,-263.3882C1088.0239,-263.3882 1101.1392,-263.3882 1113.8275,-263.3882"/>
<polygon fill="#191970" stroke="#191970" points="1075.1372,-259.8883 1065.1371,-263.3882 1075.1371,-266.8883 1075.1372,-259.8883"/>
</g>
<!-- Node9 -->
<g id="node9" class="node">
<title>Node9</title>
<g id="a_node9"><a xlink:href="../../d2/d3d/classKFParticleFinder.html#a2073bafab2ee9126f3fbf0bef15f68e3" target="_top" xlink:title="KFParticleFinder::FindTrack\lV0Decay">
<polygon fill="none" stroke="#000000" points="913,-298.3882 913,-330.3882 1064,-330.3882 1064,-298.3882 913,-298.3882"/>
<text text-anchor="start" x="921" y="-317.3882" font-family="FreeSans" font-size="10.00" fill="#000000">KFParticleFinder::FindTrack</text>
<text text-anchor="middle" x="988.5" y="-305.3882" font-family="FreeSans" font-size="10.00" fill="#000000">V0Decay</text>
</a>
</g>
</g>
<!-- Node8&#45;&gt;Node9 -->
<g id="edge9" class="edge">
<title>Node8&#45;&gt;Node9</title>
<path fill="none" stroke="#191970" d="M867.4061,-312.6416C882.4796,-312.859 898.0457,-313.0835 912.7907,-313.2962"/>
<polygon fill="#191970" stroke="#191970" points="867.1149,-309.1372 857.0654,-312.4925 867.0138,-316.1364 867.1149,-309.1372"/>
</g>
<!-- Node9&#45;&gt;Node5 -->
<g id="edge10" class="edge">
<title>Node9&#45;&gt;Node5</title>
<path fill="none" stroke="#191970" d="M1064.2821,-295.8959C1095.3421,-288.3167 1130.0717,-279.842 1156.2819,-273.4462"/>
<polygon fill="#191970" stroke="#191970" points="1063.2272,-292.5505 1054.342,-298.3215 1064.8867,-299.351 1063.2272,-292.5505"/>
</g>
<!-- Node18 -->
<g id="node18" class="node">
<title>Node18</title>
<g id="a_node18"><a xlink:href="../../d2/dbb/classKFParticleBaseSIMD.html#acd7097a1ad5f82efff3812c01580e592" target="_top" xlink:title="KFParticleBaseSIMD\l::GetDStoParticleCBM">
<polygon fill="none" stroke="#000000" points="304,-58.3882 304,-90.3882 428,-90.3882 428,-58.3882 304,-58.3882"/>
<text text-anchor="start" x="312" y="-77.3882" font-family="FreeSans" font-size="10.00" fill="#000000">KFParticleBaseSIMD</text>
<text text-anchor="middle" x="366" y="-65.3882" font-family="FreeSans" font-size="10.00" fill="#000000">::GetDStoParticleCBM</text>
</a>
</g>
</g>
<!-- Node17&#45;&gt;Node18 -->
<g id="edge19" class="edge">
<title>Node17&#45;&gt;Node18</title>
<path fill="none" stroke="#191970" d="M278.3627,-74.3882C286.8716,-74.3882 295.5358,-74.3882 303.942,-74.3882"/>
<polygon fill="#191970" stroke="#191970" points="278.0887,-70.8883 268.0886,-74.3882 278.0886,-77.8883 278.0887,-70.8883"/>
</g>
<!-- Node18&#45;&gt;Node2 -->
<g id="edge20" class="edge">
<title>Node18&#45;&gt;Node2</title>
<path fill="none" stroke="#191970" d="M407.9782,-94.8446C449.2762,-114.9695 510.6105,-144.8583 542.3297,-160.3154"/>
<polygon fill="#191970" stroke="#191970" points="409.4961,-91.6908 398.9734,-90.4564 406.4296,-97.9834 409.4961,-91.6908"/>
</g>
<!-- Node18&#45;&gt;Node19 -->
<g id="edge21" class="edge">
<title>Node18&#45;&gt;Node19</title>
<path fill="none" stroke="#191970" d="M437.9232,-57.959C465.0945,-51.7524 495.1821,-44.8796 519.0374,-39.4304"/>
<polygon fill="#191970" stroke="#191970" points="437.0311,-54.5726 428.0616,-60.2117 438.59,-61.3968 437.0311,-54.5726"/>
</g>
<!-- Node19&#45;&gt;Node4 -->
<g id="edge22" class="edge">
<title>Node19&#45;&gt;Node4</title>
<path fill="none" stroke="#191970" d="M606.6771,-16.8744C667.9354,-1.9157 781.0443,16.049 863,-27.3882 932.4418,-64.1929 970.5506,-158.527 983.446,-196.3482"/>
<polygon fill="#191970" stroke="#191970" points="605.7808,-13.4908 596.9427,-19.3336 607.4954,-20.2776 605.7808,-13.4908"/>
</g>
</g>
</svg>
