<?xml version="1.0" encoding="UTF-8" standalone="no"?>
<!DOCTYPE svg PUBLIC "-//W3C//DTD SVG 1.1//EN"
 "http://www.w3.org/Graphics/SVG/1.1/DTD/svg11.dtd">
<!-- Generated by graphviz version 2.40.1 (20161225.0304)
 -->
<!-- Title: KFParticleBaseSIMD::GetMeasurement Pages: 1 -->
<svg width="288pt" height="233pt"
 viewBox="0.00 0.00 288.00 233.00" xmlns="http://www.w3.org/2000/svg" xmlns:xlink="http://www.w3.org/1999/xlink">
<g id="graph0" class="graph" transform="scale(1 1) rotate(0) translate(4 229)">
<title>KFParticleBaseSIMD::GetMeasurement</title>
<!-- Node1 -->
<g id="node1" class="node">
<title>Node1</title>
<polygon fill="#bfbfbf" stroke="#000000" points="0,-96.5 0,-128.5 116,-128.5 116,-96.5 0,-96.5"/>
<text text-anchor="start" x="8" y="-115.5" font-family="FreeSans" font-size="10.00" fill="#000000">KFParticleBaseSIMD</text>
<text text-anchor="middle" x="58" y="-103.5" font-family="FreeSans" font-size="10.00" fill="#000000">::GetMeasurement</text>
</g>
<!-- Node2 -->
<g id="node2" class="node">
<title>Node2</title>
<g id="a_node2"><a xlink:href="../../d2/dbb/classKFParticleBaseSIMD.html#af386cf32fdc113792305a1f38f2683c7" target="_top" xlink:title="KFParticleBaseSIMD\l::GetDStoParticle">
<polygon fill="none" stroke="#000000" points="158,-192.5 158,-224.5 274,-224.5 274,-192.5 158,-192.5"/>
<text text-anchor="start" x="166" y="-211.5" font-family="FreeSans" font-size="10.00" fill="#000000">KFParticleBaseSIMD</text>
<text text-anchor="middle" x="216" y="-199.5" font-family="FreeSans" font-size="10.00" fill="#000000">::GetDStoParticle</text>
</a>
</g>
</g>
<!-- Node1&#45;&gt;Node2 -->
<g id="edge1" class="edge">
<title>Node1&#45;&gt;Node2</title>
<path fill="none" stroke="#191970" d="M76.0337,-128.5227C94.228,-144.0889 123.6146,-167.6355 152,-183.5 154.8635,-185.1004 157.8504,-186.6455 160.901,-188.1286"/>
<polygon fill="#191970" stroke="#191970" points="159.6358,-191.3988 170.1846,-192.3856 162.5536,-185.0359 159.6358,-191.3988"/>
</g>
<!-- Node3 -->
<g id="node3" class="node">
<title>Node3</title>
<g id="a_node3"><a xlink:href="../../d2/dbb/classKFParticleBaseSIMD.html#a762391583bafd7f932bc80fbd226bce5" target="_top" xlink:title="KFParticleBaseSIMD\l::GetDStoPoint">
<polygon fill="none" stroke="#000000" points="158,-141.5 158,-173.5 274,-173.5 274,-141.5 158,-141.5"/>
<text text-anchor="start" x="166" y="-160.5" font-family="FreeSans" font-size="10.00" fill="#000000">KFParticleBaseSIMD</text>
<text text-anchor="middle" x="216" y="-148.5" font-family="FreeSans" font-size="10.00" fill="#000000">::GetDStoPoint</text>
</a>
</g>
</g>
<!-- Node1&#45;&gt;Node3 -->
<g id="edge2" class="edge">
<title>Node1&#45;&gt;Node3</title>
<path fill="none" stroke="#191970" d="M114.5954,-128.6189C126.0789,-131.8896 138.2509,-135.3563 150.026,-138.7099"/>
<polygon fill="#191970" stroke="#191970" points="149.2235,-142.1205 159.7998,-141.4936 151.141,-135.3882 149.2235,-142.1205"/>
</g>
<!-- Node4 -->
<g id="node4" class="node">
<title>Node4</title>
<g id="a_node4"><a xlink:href="../../d2/dbb/classKFParticleBaseSIMD.html#a23c8f9fa65a42b162990806191f91148" target="_top" xlink:title="KFParticleBaseSIMD::IJ">
<polygon fill="none" stroke="#000000" points="152,-102.5 152,-122.5 280,-122.5 280,-102.5 152,-102.5"/>
<text text-anchor="middle" x="216" y="-109.5" font-family="FreeSans" font-size="10.00" fill="#000000">KFParticleBaseSIMD::IJ</text>
</a>
</g>
</g>
<!-- Node1&#45;&gt;Node4 -->
<g id="edge3" class="edge">
<title>Node1&#45;&gt;Node4</title>
<path fill="none" stroke="#191970" d="M116.3845,-112.5C124.5715,-112.5 133.0761,-112.5 141.5119,-112.5"/>
<polygon fill="#191970" stroke="#191970" points="141.7416,-116.0001 151.7416,-112.5 141.7415,-109.0001 141.7416,-116.0001"/>
</g>
<!-- Node5 -->
<g id="node5" class="node">
<title>Node5</title>
<g id="a_node5"><a xlink:href="../../d2/dbb/classKFParticleBaseSIMD.html#af246711cd053ab45c7415190658faeca" target="_top" xlink:title="KFParticleBaseSIMD\l::MultQSQt">
<polygon fill="none" stroke="#000000" points="158,-51.5 158,-83.5 274,-83.5 274,-51.5 158,-51.5"/>
<text text-anchor="start" x="166" y="-70.5" font-family="FreeSans" font-size="10.00" fill="#000000">KFParticleBaseSIMD</text>
<text text-anchor="middle" x="216" y="-58.5" font-family="FreeSans" font-size="10.00" fill="#000000">::MultQSQt</text>
</a>
</g>
</g>
<!-- Node1&#45;&gt;Node5 -->
<g id="edge4" class="edge">
<title>Node1&#45;&gt;Node5</title>
<path fill="none" stroke="#191970" d="M114.5954,-96.3811C126.0789,-93.1104 138.2509,-89.6437 150.026,-86.2901"/>
<polygon fill="#191970" stroke="#191970" points="151.141,-89.6118 159.7998,-83.5064 149.2235,-82.8795 151.141,-89.6118"/>
</g>
<!-- Node6 -->
<g id="node6" class="node">
<title>Node6</title>
<g id="a_node6"><a xlink:href="../../d2/dbb/classKFParticleBaseSIMD.html#a721cd8da62bbf13e53583c9acff31945" target="_top" xlink:title="KFParticleBaseSIMD\l::Transport">
<polygon fill="none" stroke="#000000" points="158,-.5 158,-32.5 274,-32.5 274,-.5 158,-.5"/>
<text text-anchor="start" x="166" y="-19.5" font-family="FreeSans" font-size="10.00" fill="#000000">KFParticleBaseSIMD</text>
<text text-anchor="middle" x="216" y="-7.5" font-family="FreeSans" font-size="10.00" fill="#000000">::Transport</text>
</a>
</g>
</g>
<!-- Node1&#45;&gt;Node6 -->
<g id="edge5" class="edge">
<title>Node1&#45;&gt;Node6</title>
<path fill="none" stroke="#191970" d="M76.8131,-96.2251C95.1179,-80.954 124.1666,-58.1781 152,-42.5 155.4858,-40.5365 159.1499,-38.6432 162.8867,-36.8352"/>
<polygon fill="#191970" stroke="#191970" points="164.6399,-39.8814 172.2646,-32.5252 161.7167,-33.521 164.6399,-39.8814"/>
</g>
</g>
</svg>
