<?xml version="1.0" encoding="UTF-8" standalone="no"?>
<!DOCTYPE svg PUBLIC "-//W3C//DTD SVG 1.1//EN"
 "http://www.w3.org/Graphics/SVG/1.1/DTD/svg11.dtd">
<!-- Generated by graphviz version 2.40.1 (20161225.0304)
 -->
<!-- Title: KFParticleBaseSIMD::GetDistanceFromParticle Pages: 1 -->
<svg width="314pt" height="92pt"
 viewBox="0.00 0.00 314.00 92.00" xmlns="http://www.w3.org/2000/svg" xmlns:xlink="http://www.w3.org/1999/xlink">
<g id="graph0" class="graph" transform="scale(1 1) rotate(0) translate(4 88)">
<title>KFParticleBaseSIMD::GetDistanceFromParticle</title>
<!-- Node1 -->
<g id="node1" class="node">
<title>Node1</title>
<polygon fill="#bfbfbf" stroke="#000000" points="0,-25.5 0,-57.5 147,-57.5 147,-25.5 0,-25.5"/>
<text text-anchor="start" x="8" y="-44.5" font-family="FreeSans" font-size="10.00" fill="#000000">KFParticleBaseSIMD</text>
<text text-anchor="middle" x="73.5" y="-32.5" font-family="FreeSans" font-size="10.00" fill="#000000">::GetDistanceFromParticle</text>
</g>
<!-- Node2 -->
<g id="node2" class="node">
<title>Node2</title>
<g id="a_node2"><a xlink:href="../../d2/dbb/classKFParticleBaseSIMD.html#afeee016bf203bca0bd17959509541334" target="_top" xlink:title="KFParticleBaseSIMD\l::GetDStoParticleFast">
<polygon fill="none" stroke="#000000" points="183,-51.5 183,-83.5 306,-83.5 306,-51.5 183,-51.5"/>
<text text-anchor="start" x="191" y="-70.5" font-family="FreeSans" font-size="10.00" fill="#000000">KFParticleBaseSIMD</text>
<text text-anchor="middle" x="244.5" y="-58.5" font-family="FreeSans" font-size="10.00" fill="#000000">::GetDStoParticleFast</text>
</a>
</g>
</g>
<!-- Node1&#45;&gt;Node2 -->
<g id="edge1" class="edge">
<title>Node1&#45;&gt;Node2</title>
<path fill="none" stroke="#191970" d="M147.0118,-52.6772C155.6,-53.983 164.3528,-55.3139 172.9144,-56.6156"/>
<polygon fill="#191970" stroke="#191970" points="172.4432,-60.0841 182.8557,-58.1272 173.4955,-53.1637 172.4432,-60.0841"/>
</g>
<!-- Node3 -->
<g id="node3" class="node">
<title>Node3</title>
<g id="a_node3"><a xlink:href="../../d2/dbb/classKFParticleBaseSIMD.html#a20c50860d7bc9f4e2c1047f8028320d1" target="_top" xlink:title="KFParticleBaseSIMD\l::TransportFast">
<polygon fill="none" stroke="#000000" points="186.5,-.5 186.5,-32.5 302.5,-32.5 302.5,-.5 186.5,-.5"/>
<text text-anchor="start" x="194.5" y="-19.5" font-family="FreeSans" font-size="10.00" fill="#000000">KFParticleBaseSIMD</text>
<text text-anchor="middle" x="244.5" y="-7.5" font-family="FreeSans" font-size="10.00" fill="#000000">::TransportFast</text>
</a>
</g>
</g>
<!-- Node1&#45;&gt;Node3 -->
<g id="edge2" class="edge">
<title>Node1&#45;&gt;Node3</title>
<path fill="none" stroke="#191970" d="M147.0118,-30.7527C156.7534,-29.3284 166.7069,-27.8733 176.3527,-26.4631"/>
<polygon fill="#191970" stroke="#191970" points="176.8831,-29.9228 186.2716,-25.0129 175.8704,-22.9964 176.8831,-29.9228"/>
</g>
</g>
</svg>
