<?xml version="1.0" encoding="UTF-8" standalone="no"?>
<!DOCTYPE svg PUBLIC "-//W3C//DTD SVG 1.1//EN"
 "http://www.w3.org/Graphics/SVG/1.1/DTD/svg11.dtd">
<!-- Generated by graphviz version 2.40.1 (20161225.0304)
 -->
<!-- Title: KFParticleBaseSIMD::Initialize Pages: 1 -->
<svg width="1129pt" height="301pt"
 viewBox="0.00 0.00 1129.00 301.03" xmlns="http://www.w3.org/2000/svg" xmlns:xlink="http://www.w3.org/1999/xlink">
<g id="graph0" class="graph" transform="scale(1 1) rotate(0) translate(4 297.0325)">
<title>KFParticleBaseSIMD::Initialize</title>
<!-- Node1 -->
<g id="node1" class="node">
<title>Node1</title>
<polygon fill="#bfbfbf" stroke="#000000" points="0,-118.5 0,-150.5 116,-150.5 116,-118.5 0,-118.5"/>
<text text-anchor="start" x="8" y="-137.5" font-family="FreeSans" font-size="10.00" fill="#000000">KFParticleBaseSIMD</text>
<text text-anchor="middle" x="58" y="-125.5" font-family="FreeSans" font-size="10.00" fill="#000000">::Initialize</text>
</g>
<!-- Node2 -->
<g id="node2" class="node">
<title>Node2</title>
<g id="a_node2"><a xlink:href="../../db/dcc/classKFParticleSIMD.html#ad72c41822502b24af50578767c5fb458" target="_top" xlink:title="KFParticleSIMD::Create">
<polygon fill="none" stroke="#000000" points="152,-147.5 152,-167.5 283,-167.5 283,-147.5 152,-147.5"/>
<text text-anchor="middle" x="217.5" y="-154.5" font-family="FreeSans" font-size="10.00" fill="#000000">KFParticleSIMD::Create</text>
</a>
</g>
</g>
<!-- Node1&#45;&gt;Node2 -->
<g id="edge1" class="edge">
<title>Node1&#45;&gt;Node2</title>
<path fill="none" stroke="#191970" d="M126.0143,-144.3077C134.6095,-145.5471 143.3906,-146.8134 151.9465,-148.0471"/>
<polygon fill="#191970" stroke="#191970" points="126.4315,-140.8318 116.0344,-142.8686 125.4324,-147.7601 126.4315,-140.8318"/>
</g>
<!-- Node14 -->
<g id="node14" class="node">
<title>Node14</title>
<g id="a_node14"><a xlink:href="../../d2/dbb/classKFParticleBaseSIMD.html#a6d298c2dfdaf132412630d18fbc0e94c" target="_top" xlink:title="KFParticleBaseSIMD\l::KFParticleBaseSIMD">
<polygon fill="none" stroke="#000000" points="156,-96.5 156,-128.5 279,-128.5 279,-96.5 156,-96.5"/>
<text text-anchor="start" x="164" y="-115.5" font-family="FreeSans" font-size="10.00" fill="#000000">KFParticleBaseSIMD</text>
<text text-anchor="middle" x="217.5" y="-103.5" font-family="FreeSans" font-size="10.00" fill="#000000">::KFParticleBaseSIMD</text>
</a>
</g>
</g>
<!-- Node1&#45;&gt;Node14 -->
<g id="edge18" class="edge">
<title>Node1&#45;&gt;Node14</title>
<path fill="none" stroke="#191970" d="M126.162,-125.0984C135.9884,-123.743 146.0546,-122.3545 155.7467,-121.0177"/>
<polygon fill="#191970" stroke="#191970" points="125.4623,-121.6616 116.0344,-126.4953 126.4188,-128.596 125.4623,-121.6616"/>
</g>
<!-- Node3 -->
<g id="node3" class="node">
<title>Node3</title>
<g id="a_node3"><a xlink:href="../../db/dcc/classKFParticleSIMD.html#ab2387938a4518b2a9fbd79b5132d33c8" target="_top" xlink:title="KFParticleSIMD::KFParticleSIMD">
<polygon fill="none" stroke="#000000" points="319,-206.5 319,-226.5 493,-226.5 493,-206.5 319,-206.5"/>
<text text-anchor="middle" x="406" y="-213.5" font-family="FreeSans" font-size="10.00" fill="#000000">KFParticleSIMD::KFParticleSIMD</text>
</a>
</g>
</g>
<!-- Node2&#45;&gt;Node3 -->
<g id="edge2" class="edge">
<title>Node2&#45;&gt;Node3</title>
<path fill="none" stroke="#191970" d="M249.5381,-171.6554C269.2842,-179.994 295.2818,-190.2875 319,-197.5 330.0935,-200.8735 342.1542,-203.9011 353.6632,-206.4959"/>
<polygon fill="#191970" stroke="#191970" points="250.677,-168.3358 240.1063,-167.6206 247.9238,-174.7717 250.677,-168.3358"/>
</g>
<!-- Node4 -->
<g id="node4" class="node">
<title>Node4</title>
<g id="a_node4"><a xlink:href="../../db/dcc/classKFParticleSIMD.html#aae5b26d404db4e49e3afeaf23794c5a4" target="_top" xlink:title="KFParticleSIMD::Create">
<polygon fill="none" stroke="#000000" points="340.5,-167.5 340.5,-187.5 471.5,-187.5 471.5,-167.5 340.5,-167.5"/>
<text text-anchor="middle" x="406" y="-174.5" font-family="FreeSans" font-size="10.00" fill="#000000">KFParticleSIMD::Create</text>
</a>
</g>
</g>
<!-- Node2&#45;&gt;Node4 -->
<g id="edge3" class="edge">
<title>Node2&#45;&gt;Node4</title>
<path fill="none" stroke="#191970" d="M293.2678,-165.539C308.8257,-167.1897 325.083,-168.9146 340.2528,-170.5242"/>
<polygon fill="#191970" stroke="#191970" points="293.477,-162.0417 283.1635,-164.467 292.7384,-169.0026 293.477,-162.0417"/>
</g>
<!-- Node5 -->
<g id="node5" class="node">
<title>Node5</title>
<g id="a_node5"><a xlink:href="../../db/dcc/classKFParticleSIMD.html#a0e3c7a0202a62c3c564b22b5d0bfce5e" target="_top" xlink:title="KFParticleSIMD::Load">
<polygon fill="none" stroke="#000000" points="345,-128.5 345,-148.5 467,-148.5 467,-128.5 345,-128.5"/>
<text text-anchor="middle" x="406" y="-135.5" font-family="FreeSans" font-size="10.00" fill="#000000">KFParticleSIMD::Load</text>
</a>
</g>
</g>
<!-- Node2&#45;&gt;Node5 -->
<g id="edge4" class="edge">
<title>Node2&#45;&gt;Node5</title>
<path fill="none" stroke="#191970" d="M293.1835,-149.8714C310.4017,-148.1359 328.4807,-146.3136 344.9973,-144.6488"/>
<polygon fill="#191970" stroke="#191970" points="292.7621,-146.3961 283.1635,-150.8814 293.4642,-153.3608 292.7621,-146.3961"/>
</g>
<!-- Node13 -->
<g id="node13" class="node">
<title>Node13</title>
<g id="a_node13"><a xlink:href="../../db/d6d/classKFParticleTopoReconstructor.html#ab724f4c1794600a8405b606d727b97fb" target="_top" xlink:title="KFParticleTopoReconstructor\l::GetChiToPrimVertex">
<polygon fill="none" stroke="#000000" points="754.5,-.5 754.5,-32.5 914.5,-32.5 914.5,-.5 754.5,-.5"/>
<text text-anchor="start" x="762.5" y="-19.5" font-family="FreeSans" font-size="10.00" fill="#000000">KFParticleTopoReconstructor</text>
<text text-anchor="middle" x="834.5" y="-7.5" font-family="FreeSans" font-size="10.00" fill="#000000">::GetChiToPrimVertex</text>
</a>
</g>
</g>
<!-- Node2&#45;&gt;Node13 -->
<g id="edge16" class="edge">
<title>Node2&#45;&gt;Node13</title>
<path fill="none" stroke="#191970" d="M267.1783,-144.3773C272.5785,-142.5709 277.9449,-140.6058 283,-138.5 299.8959,-131.4616 302.1675,-125.6889 319,-118.5 408.8506,-80.1262 433.4515,-73.9003 529,-53.5 604.6292,-37.3526 692.4041,-27.6364 754.4101,-22.241"/>
<polygon fill="#191970" stroke="#191970" points="265.9545,-141.0936 257.4812,-147.4538 268.0714,-147.7658 265.9545,-141.0936"/>
</g>
<!-- Node6 -->
<g id="node6" class="node">
<title>Node6</title>
<g id="a_node6"><a xlink:href="../../d2/d3d/classKFParticleFinder.html#a3ad831d1b28cce4689501e369f561926" target="_top" xlink:title="KFParticleFinder::FindParticles">
<polygon fill="none" stroke="#000000" points="751,-179.5 751,-199.5 918,-199.5 918,-179.5 751,-179.5"/>
<text text-anchor="middle" x="834.5" y="-186.5" font-family="FreeSans" font-size="10.00" fill="#000000">KFParticleFinder::FindParticles</text>
</a>
</g>
</g>
<!-- Node5&#45;&gt;Node6 -->
<g id="edge5" class="edge">
<title>Node5&#45;&gt;Node6</title>
<path fill="none" stroke="#191970" d="M476.6433,-147.8857C482.6035,-150.6438 488.1822,-154.1229 493,-158.5 530.449,-192.5231 487.954,-236.9157 529,-266.5 593.5388,-313.017 631.3991,-287.9801 708,-266.5 755.0355,-253.3105 801.9342,-217.2843 822.9901,-199.585"/>
<polygon fill="#191970" stroke="#191970" points="477.6055,-144.5039 467.0176,-144.1197 475.055,-151.0227 477.6055,-144.5039"/>
</g>
<!-- Node8 -->
<g id="node8" class="node">
<title>Node8</title>
<g id="a_node8"><a xlink:href="../../d2/d3d/classKFParticleFinder.html#a3f6967ae8b6839bc7de48991eaa812ef" target="_top" xlink:title="KFParticleFinder::Find2Daughter\lDecay">
<polygon fill="none" stroke="#000000" points="529,-224.5 529,-256.5 708,-256.5 708,-224.5 529,-224.5"/>
<text text-anchor="start" x="537" y="-243.5" font-family="FreeSans" font-size="10.00" fill="#000000">KFParticleFinder::Find2Daughter</text>
<text text-anchor="middle" x="618.5" y="-231.5" font-family="FreeSans" font-size="10.00" fill="#000000">Decay</text>
</a>
</g>
</g>
<!-- Node5&#45;&gt;Node8 -->
<g id="edge7" class="edge">
<title>Node5&#45;&gt;Node8</title>
<path fill="none" stroke="#191970" d="M476.8949,-149.6991C482.5998,-152.0978 488.0593,-154.9972 493,-158.5 517.4432,-175.8294 504.9657,-197.6079 529,-215.5 533.5293,-218.8718 538.493,-221.7889 543.6878,-224.3127"/>
<polygon fill="#191970" stroke="#191970" points="477.7044,-146.2684 467.1107,-146.1171 475.2978,-152.8417 477.7044,-146.2684"/>
</g>
<!-- Node9 -->
<g id="node9" class="node">
<title>Node9</title>
<g id="a_node9"><a xlink:href="../../d2/d3d/classKFParticleFinder.html#a2073bafab2ee9126f3fbf0bef15f68e3" target="_top" xlink:title="KFParticleFinder::FindTrack\lV0Decay">
<polygon fill="none" stroke="#000000" points="543,-173.5 543,-205.5 694,-205.5 694,-173.5 543,-173.5"/>
<text text-anchor="start" x="551" y="-192.5" font-family="FreeSans" font-size="10.00" fill="#000000">KFParticleFinder::FindTrack</text>
<text text-anchor="middle" x="618.5" y="-180.5" font-family="FreeSans" font-size="10.00" fill="#000000">V0Decay</text>
</a>
</g>
</g>
<!-- Node5&#45;&gt;Node9 -->
<g id="edge9" class="edge">
<title>Node5&#45;&gt;Node9</title>
<path fill="none" stroke="#191970" d="M460.1275,-150.8C471.0194,-153.3154 482.3812,-155.9681 493,-158.5 512.9754,-163.2628 534.7042,-168.5812 554.3811,-173.4496"/>
<polygon fill="#191970" stroke="#191970" points="460.8218,-147.3684 450.2915,-148.536 459.2516,-154.19 460.8218,-147.3684"/>
</g>
<!-- Node10 -->
<g id="node10" class="node">
<title>Node10</title>
<g id="a_node10"><a xlink:href="../../d2/d3d/classKFParticleFinder.html#a76e093479fb04d0360e1cca0e6aa5d01" target="_top" xlink:title="KFParticleFinder::Neutral\lDaughterDecay">
<polygon fill="none" stroke="#000000" points="548.5,-122.5 548.5,-154.5 688.5,-154.5 688.5,-122.5 548.5,-122.5"/>
<text text-anchor="start" x="556.5" y="-141.5" font-family="FreeSans" font-size="10.00" fill="#000000">KFParticleFinder::Neutral</text>
<text text-anchor="middle" x="618.5" y="-129.5" font-family="FreeSans" font-size="10.00" fill="#000000">DaughterDecay</text>
</a>
</g>
</g>
<!-- Node5&#45;&gt;Node10 -->
<g id="edge11" class="edge">
<title>Node5&#45;&gt;Node10</title>
<path fill="none" stroke="#191970" d="M477.1876,-138.5C500.1329,-138.5 525.5353,-138.5 548.4014,-138.5"/>
<polygon fill="#191970" stroke="#191970" points="477.1787,-135.0001 467.1787,-138.5 477.1787,-142.0001 477.1787,-135.0001"/>
</g>
<!-- Node11 -->
<g id="node11" class="node">
<title>Node11</title>
<g id="a_node11"><a xlink:href="../../db/dcc/classKFParticleSIMD.html#abd29270d15669591aa6c763f50b6d63c" target="_top" xlink:title="KFParticleSIMD::KFParticleSIMD">
<polygon fill="none" stroke="#000000" points="531.5,-83.5 531.5,-103.5 705.5,-103.5 705.5,-83.5 531.5,-83.5"/>
<text text-anchor="middle" x="618.5" y="-90.5" font-family="FreeSans" font-size="10.00" fill="#000000">KFParticleSIMD::KFParticleSIMD</text>
</a>
</g>
</g>
<!-- Node5&#45;&gt;Node11 -->
<g id="edge13" class="edge">
<title>Node5&#45;&gt;Node11</title>
<path fill="none" stroke="#191970" d="M463.6075,-126.3008C497.349,-119.1555 539.4365,-110.2429 571.2203,-103.5122"/>
<polygon fill="#191970" stroke="#191970" points="462.4826,-122.9613 453.4247,-128.4571 463.9328,-129.8094 462.4826,-122.9613"/>
</g>
<!-- Node12 -->
<g id="node12" class="node">
<title>Node12</title>
<g id="a_node12"><a xlink:href="../../db/d6d/classKFParticleTopoReconstructor.html#a6902971d3ad7442052bf4b0195b08115" target="_top" xlink:title="KFParticleTopoReconstructor\l::TransportPVTracksToPrimVertex">
<polygon fill="none" stroke="#000000" points="744,-51.5 744,-83.5 925,-83.5 925,-51.5 744,-51.5"/>
<text text-anchor="start" x="752" y="-70.5" font-family="FreeSans" font-size="10.00" fill="#000000">KFParticleTopoReconstructor</text>
<text text-anchor="middle" x="834.5" y="-58.5" font-family="FreeSans" font-size="10.00" fill="#000000">::TransportPVTracksToPrimVertex</text>
</a>
</g>
</g>
<!-- Node5&#45;&gt;Node12 -->
<g id="edge14" class="edge">
<title>Node5&#45;&gt;Node12</title>
<path fill="none" stroke="#191970" d="M428.1316,-122.6837C451.794,-106.7968 491.0544,-83.3062 529,-73.5 599.4931,-55.2826 682.2113,-54.8745 743.7836,-58.4157"/>
<polygon fill="#191970" stroke="#191970" points="426.1287,-119.8133 419.8618,-128.3558 430.0881,-125.5859 426.1287,-119.8133"/>
</g>
<!-- Node7 -->
<g id="node7" class="node">
<title>Node7</title>
<g id="a_node7"><a xlink:href="../../db/d6d/classKFParticleTopoReconstructor.html#a3013eefd4e16b74ae39c531678623d08" target="_top" xlink:title="KFParticleTopoReconstructor\l::ReconstructParticles">
<polygon fill="none" stroke="#000000" points="961,-51.5 961,-83.5 1121,-83.5 1121,-51.5 961,-51.5"/>
<text text-anchor="start" x="969" y="-70.5" font-family="FreeSans" font-size="10.00" fill="#000000">KFParticleTopoReconstructor</text>
<text text-anchor="middle" x="1041" y="-58.5" font-family="FreeSans" font-size="10.00" fill="#000000">::ReconstructParticles</text>
</a>
</g>
</g>
<!-- Node6&#45;&gt;Node7 -->
<g id="edge6" class="edge">
<title>Node6&#45;&gt;Node7</title>
<path fill="none" stroke="#191970" d="M860.4778,-174.1524C899.6976,-150.9813 973.6835,-107.2705 1013.68,-83.6406"/>
<polygon fill="#191970" stroke="#191970" points="858.5803,-171.2082 851.7509,-179.3082 862.1409,-177.2349 858.5803,-171.2082"/>
</g>
<!-- Node8&#45;&gt;Node6 -->
<g id="edge8" class="edge">
<title>Node8&#45;&gt;Node6</title>
<path fill="none" stroke="#191970" d="M696.4035,-222.1061C728.6096,-214.5019 764.6961,-205.9815 791.9014,-199.558"/>
<polygon fill="#191970" stroke="#191970" points="695.4754,-218.7289 686.5473,-224.4333 697.084,-225.5416 695.4754,-218.7289"/>
</g>
<!-- Node9&#45;&gt;Node6 -->
<g id="edge10" class="edge">
<title>Node9&#45;&gt;Node6</title>
<path fill="none" stroke="#191970" d="M704.0687,-189.5C719.4812,-189.5 735.5313,-189.5 750.8873,-189.5"/>
<polygon fill="#191970" stroke="#191970" points="704.0464,-186.0001 694.0463,-189.5 704.0463,-193.0001 704.0464,-186.0001"/>
</g>
<!-- Node10&#45;&gt;Node6 -->
<g id="edge12" class="edge">
<title>Node10&#45;&gt;Node6</title>
<path fill="none" stroke="#191970" d="M696.4035,-156.8939C728.6096,-164.4981 764.6961,-173.0185 791.9014,-179.442"/>
<polygon fill="#191970" stroke="#191970" points="697.084,-153.4584 686.5473,-154.5667 695.4754,-160.2711 697.084,-153.4584"/>
</g>
<!-- Node12&#45;&gt;Node7 -->
<g id="edge15" class="edge">
<title>Node12&#45;&gt;Node7</title>
<path fill="none" stroke="#191970" d="M935.1716,-67.5C943.795,-67.5 952.4425,-67.5 960.8731,-67.5"/>
<polygon fill="#191970" stroke="#191970" points="935.0739,-64.0001 925.0739,-67.5 935.0739,-71.0001 935.0739,-64.0001"/>
</g>
<!-- Node13&#45;&gt;Node7 -->
<g id="edge17" class="edge">
<title>Node13&#45;&gt;Node7</title>
<path fill="none" stroke="#191970" d="M909.417,-35.0025C931.1954,-40.3812 954.7966,-46.2101 975.9179,-51.4264"/>
<polygon fill="#191970" stroke="#191970" points="910.102,-31.5666 899.5545,-32.5667 908.4235,-38.3624 910.102,-31.5666"/>
</g>
</g>
</svg>
