<?xml version="1.0" encoding="UTF-8" standalone="no"?>
<!DOCTYPE svg PUBLIC "-//W3C//DTD SVG 1.1//EN"
 "http://www.w3.org/Graphics/SVG/1.1/DTD/svg11.dtd">
<!-- Generated by graphviz version 2.40.1 (20161225.0304)
 -->
<!-- Title: KFParticleBaseSIMD::SetPDG Pages: 1 -->
<svg width="927pt" height="214pt"
 viewBox="0.00 0.00 927.00 214.00" xmlns="http://www.w3.org/2000/svg" xmlns:xlink="http://www.w3.org/1999/xlink">
<g id="graph0" class="graph" transform="scale(1 1) rotate(0) translate(4 210)">
<title>KFParticleBaseSIMD::SetPDG</title>
<!-- Node1 -->
<g id="node1" class="node">
<title>Node1</title>
<polygon fill="#bfbfbf" stroke="#000000" points="0,-90.5 0,-122.5 116,-122.5 116,-90.5 0,-90.5"/>
<text text-anchor="start" x="8" y="-109.5" font-family="FreeSans" font-size="10.00" fill="#000000">KFParticleBaseSIMD</text>
<text text-anchor="middle" x="58" y="-97.5" font-family="FreeSans" font-size="10.00" fill="#000000">::SetPDG</text>
</g>
<!-- Node2 -->
<g id="node2" class="node">
<title>Node2</title>
<g id="a_node2"><a xlink:href="../../d2/d3d/classKFParticleFinder.html#a4ef976ffd76ed2d50940a5d5bb766795" target="_top" xlink:title="KFParticleFinder::Combine\lPartPart">
<polygon fill="none" stroke="#000000" points="369.5,-173.5 369.5,-205.5 517.5,-205.5 517.5,-173.5 369.5,-173.5"/>
<text text-anchor="start" x="377.5" y="-192.5" font-family="FreeSans" font-size="10.00" fill="#000000">KFParticleFinder::Combine</text>
<text text-anchor="middle" x="443.5" y="-180.5" font-family="FreeSans" font-size="10.00" fill="#000000">PartPart</text>
</a>
</g>
</g>
<!-- Node1&#45;&gt;Node2 -->
<g id="edge1" class="edge">
<title>Node1&#45;&gt;Node2</title>
<path fill="none" stroke="#191970" d="M94.4679,-127.2898C111.4544,-136.0915 132.24,-145.6452 152,-151.5 224.0539,-172.8493 309.6604,-182.2109 369.3896,-186.3119"/>
<polygon fill="#191970" stroke="#191970" points="95.9265,-124.1015 85.4525,-122.5055 92.6451,-130.2848 95.9265,-124.1015"/>
</g>
<!-- Node5 -->
<g id="node5" class="node">
<title>Node5</title>
<g id="a_node5"><a xlink:href="../../d2/d3d/classKFParticleFinder.html#ae68561ffcd9f3bf3e8230604678105c5" target="_top" xlink:title="KFParticleFinder::Construct\lPrimaryBG">
<polygon fill="none" stroke="#000000" points="367,-122.5 367,-154.5 520,-154.5 520,-122.5 367,-122.5"/>
<text text-anchor="start" x="375" y="-141.5" font-family="FreeSans" font-size="10.00" fill="#000000">KFParticleFinder::Construct</text>
<text text-anchor="middle" x="443.5" y="-129.5" font-family="FreeSans" font-size="10.00" fill="#000000">PrimaryBG</text>
</a>
</g>
</g>
<!-- Node1&#45;&gt;Node5 -->
<g id="edge4" class="edge">
<title>Node1&#45;&gt;Node5</title>
<path fill="none" stroke="#191970" d="M117.1624,-125.2674C128.6126,-128.2136 140.5968,-130.8324 152,-132.5 224.3737,-143.0842 307.9183,-143.6315 366.9641,-142.1004"/>
<polygon fill="#191970" stroke="#191970" points="117.8312,-121.823 107.2656,-122.6097 116.0156,-128.5835 117.8312,-121.823"/>
</g>
<!-- Node6 -->
<g id="node6" class="node">
<title>Node6</title>
<g id="a_node6"><a xlink:href="../../d2/d3d/classKFParticleFinder.html#a845f4b9e798f34dad97691ddd0df6b07" target="_top" xlink:title="KFParticleFinder::Construct\lTrackV0Cand">
<polygon fill="none" stroke="#000000" points="165,-90.5 165,-122.5 318,-122.5 318,-90.5 165,-90.5"/>
<text text-anchor="start" x="173" y="-109.5" font-family="FreeSans" font-size="10.00" fill="#000000">KFParticleFinder::Construct</text>
<text text-anchor="middle" x="241.5" y="-97.5" font-family="FreeSans" font-size="10.00" fill="#000000">TrackV0Cand</text>
</a>
</g>
</g>
<!-- Node1&#45;&gt;Node6 -->
<g id="edge6" class="edge">
<title>Node1&#45;&gt;Node6</title>
<path fill="none" stroke="#191970" d="M126.3796,-106.5C138.8637,-106.5 151.9664,-106.5 164.6763,-106.5"/>
<polygon fill="#191970" stroke="#191970" points="126.0606,-103.0001 116.0605,-106.5 126.0605,-110.0001 126.0606,-103.0001"/>
</g>
<!-- Node7 -->
<g id="node7" class="node">
<title>Node7</title>
<g id="a_node7"><a xlink:href="../../d2/d3d/classKFParticleFinder.html#a2073bafab2ee9126f3fbf0bef15f68e3" target="_top" xlink:title="KFParticleFinder::FindTrack\lV0Decay">
<polygon fill="none" stroke="#000000" points="368,-71.5 368,-103.5 519,-103.5 519,-71.5 368,-71.5"/>
<text text-anchor="start" x="376" y="-90.5" font-family="FreeSans" font-size="10.00" fill="#000000">KFParticleFinder::FindTrack</text>
<text text-anchor="middle" x="443.5" y="-78.5" font-family="FreeSans" font-size="10.00" fill="#000000">V0Decay</text>
</a>
</g>
</g>
<!-- Node1&#45;&gt;Node7 -->
<g id="edge11" class="edge">
<title>Node1&#45;&gt;Node7</title>
<path fill="none" stroke="#191970" d="M118.6821,-87.9019C129.6718,-85.24 141.1031,-82.9243 152,-81.5 224.9031,-71.9711 308.9189,-75.1868 367.9679,-79.7525"/>
<polygon fill="#191970" stroke="#191970" points="117.5714,-84.5729 108.7416,-90.4282 119.2956,-91.3572 117.5714,-84.5729"/>
</g>
<!-- Node8 -->
<g id="node8" class="node">
<title>Node8</title>
<g id="a_node8"><a xlink:href="../../d2/d3d/classKFParticleFinder.html#a3f6967ae8b6839bc7de48991eaa812ef" target="_top" xlink:title="KFParticleFinder::Find2Daughter\lDecay">
<polygon fill="none" stroke="#000000" points="152,-.5 152,-32.5 331,-32.5 331,-.5 152,-.5"/>
<text text-anchor="start" x="160" y="-19.5" font-family="FreeSans" font-size="10.00" fill="#000000">KFParticleFinder::Find2Daughter</text>
<text text-anchor="middle" x="241.5" y="-7.5" font-family="FreeSans" font-size="10.00" fill="#000000">Decay</text>
</a>
</g>
</g>
<!-- Node1&#45;&gt;Node8 -->
<g id="edge9" class="edge">
<title>Node1&#45;&gt;Node8</title>
<path fill="none" stroke="#191970" d="M88.6625,-84.7646C106.5585,-72.723 129.9014,-58.0925 152,-47.5 163.5662,-41.956 176.3929,-36.9125 188.6383,-32.5792"/>
<polygon fill="#191970" stroke="#191970" points="86.6327,-81.9124 80.344,-90.439 90.5774,-87.6951 86.6327,-81.9124"/>
</g>
<!-- Node3 -->
<g id="node3" class="node">
<title>Node3</title>
<g id="a_node3"><a xlink:href="../../d2/d3d/classKFParticleFinder.html#a3ad831d1b28cce4689501e369f561926" target="_top" xlink:title="KFParticleFinder::FindParticles">
<polygon fill="none" stroke="#000000" points="556,-102.5 556,-122.5 723,-122.5 723,-102.5 556,-102.5"/>
<text text-anchor="middle" x="639.5" y="-109.5" font-family="FreeSans" font-size="10.00" fill="#000000">KFParticleFinder::FindParticles</text>
</a>
</g>
</g>
<!-- Node2&#45;&gt;Node3 -->
<g id="edge2" class="edge">
<title>Node2&#45;&gt;Node3</title>
<path fill="none" stroke="#191970" d="M504.3374,-170.2003C509.657,-168.3371 514.9388,-166.4233 520,-164.5 554.8976,-151.239 594.4528,-133.4704 618.1644,-122.5136"/>
<polygon fill="#191970" stroke="#191970" points="503.0809,-166.9311 494.7607,-173.4904 505.3553,-173.5513 503.0809,-166.9311"/>
</g>
<!-- Node4 -->
<g id="node4" class="node">
<title>Node4</title>
<g id="a_node4"><a xlink:href="../../db/d6d/classKFParticleTopoReconstructor.html#a3013eefd4e16b74ae39c531678623d08" target="_top" xlink:title="KFParticleTopoReconstructor\l::ReconstructParticles">
<polygon fill="none" stroke="#000000" points="759,-96.5 759,-128.5 919,-128.5 919,-96.5 759,-96.5"/>
<text text-anchor="start" x="767" y="-115.5" font-family="FreeSans" font-size="10.00" fill="#000000">KFParticleTopoReconstructor</text>
<text text-anchor="middle" x="839" y="-103.5" font-family="FreeSans" font-size="10.00" fill="#000000">::ReconstructParticles</text>
</a>
</g>
</g>
<!-- Node3&#45;&gt;Node4 -->
<g id="edge3" class="edge">
<title>Node3&#45;&gt;Node4</title>
<path fill="none" stroke="#191970" d="M733.2835,-112.5C741.8763,-112.5 750.5283,-112.5 758.9834,-112.5"/>
<polygon fill="#191970" stroke="#191970" points="733.2389,-109.0001 723.2388,-112.5 733.2388,-116.0001 733.2389,-109.0001"/>
</g>
<!-- Node5&#45;&gt;Node3 -->
<g id="edge5" class="edge">
<title>Node5&#45;&gt;Node3</title>
<path fill="none" stroke="#191970" d="M530.3263,-126.9822C541.5178,-125.4976 552.9063,-123.9869 563.8976,-122.5289"/>
<polygon fill="#191970" stroke="#191970" points="529.5737,-123.5513 520.1208,-128.336 530.4943,-130.4905 529.5737,-123.5513"/>
</g>
<!-- Node6&#45;&gt;Node7 -->
<g id="edge7" class="edge">
<title>Node6&#45;&gt;Node7</title>
<path fill="none" stroke="#191970" d="M328.1812,-98.3468C341.397,-97.1038 354.9465,-95.8293 367.9,-94.6109"/>
<polygon fill="#191970" stroke="#191970" points="327.7838,-94.8687 318.1556,-99.2898 328.4394,-101.8379 327.7838,-94.8687"/>
</g>
<!-- Node7&#45;&gt;Node3 -->
<g id="edge8" class="edge">
<title>Node7&#45;&gt;Node3</title>
<path fill="none" stroke="#191970" d="M529.3098,-98.4451C539.8503,-99.7896 550.582,-101.1584 561.0067,-102.4881"/>
<polygon fill="#191970" stroke="#191970" points="529.6412,-94.9591 519.2787,-97.1657 528.7555,-101.9029 529.6412,-94.9591"/>
</g>
<!-- Node8&#45;&gt;Node3 -->
<g id="edge10" class="edge">
<title>Node8&#45;&gt;Node3</title>
<path fill="none" stroke="#191970" d="M341.2953,-27.2647C394.9329,-34.4747 461.8167,-45.7701 520,-62.5 556.0947,-72.8786 595.9506,-90.994 619.3003,-102.3354"/>
<polygon fill="#191970" stroke="#191970" points="341.4671,-23.7572 331.0956,-25.9212 340.5529,-30.6972 341.4671,-23.7572"/>
</g>
</g>
</svg>
