<?xml version="1.0" encoding="UTF-8" standalone="no"?>
<!DOCTYPE svg PUBLIC "-//W3C//DTD SVG 1.1//EN"
 "http://www.w3.org/Graphics/SVG/1.1/DTD/svg11.dtd">
<!-- Generated by graphviz version 2.40.1 (20161225.0304)
 -->
<!-- Title: KFParticleBaseSIMD::TransportToDS Pages: 1 -->
<svg width="1679pt" height="484pt"
 viewBox="0.00 0.00 1679.00 484.49" xmlns="http://www.w3.org/2000/svg" xmlns:xlink="http://www.w3.org/1999/xlink">
<g id="graph0" class="graph" transform="scale(1 1) rotate(0) translate(4 480.4893)">
<title>KFParticleBaseSIMD::TransportToDS</title>
<!-- Node1 -->
<g id="node1" class="node">
<title>Node1</title>
<polygon fill="#bfbfbf" stroke="#000000" points="0,-115.5 0,-147.5 116,-147.5 116,-115.5 0,-115.5"/>
<text text-anchor="start" x="8" y="-134.5" font-family="FreeSans" font-size="10.00" fill="#000000">KFParticleBaseSIMD</text>
<text text-anchor="middle" x="58" y="-122.5" font-family="FreeSans" font-size="10.00" fill="#000000">::TransportToDS</text>
</g>
<!-- Node2 -->
<g id="node2" class="node">
<title>Node2</title>
<g id="a_node2"><a xlink:href="../../d2/d3d/classKFParticleFinder.html#a845f4b9e798f34dad97691ddd0df6b07" target="_top" xlink:title="KFParticleFinder::Construct\lTrackV0Cand">
<polygon fill="none" stroke="#000000" points="877,-171.5 877,-203.5 1030,-203.5 1030,-171.5 877,-171.5"/>
<text text-anchor="start" x="885" y="-190.5" font-family="FreeSans" font-size="10.00" fill="#000000">KFParticleFinder::Construct</text>
<text text-anchor="middle" x="953.5" y="-178.5" font-family="FreeSans" font-size="10.00" fill="#000000">TrackV0Cand</text>
</a>
</g>
</g>
<!-- Node1&#45;&gt;Node2 -->
<g id="edge1" class="edge">
<title>Node1&#45;&gt;Node2</title>
<path fill="none" stroke="#191970" d="M126.5963,-137.276C198.9883,-142.8661 316.4404,-150.5 418,-150.5 418,-150.5 418,-150.5 584.5,-150.5 685.9044,-150.5 802.2053,-164.505 876.6901,-175.2823"/>
<polygon fill="#191970" stroke="#191970" points="126.4921,-133.7573 116.2497,-136.4672 125.9465,-140.736 126.4921,-133.7573"/>
</g>
<!-- Node6 -->
<g id="node6" class="node">
<title>Node6</title>
<g id="a_node6"><a xlink:href="../../d2/d3d/classKFParticleFinder.html#a555c027cc00bc7d9461470d5c200b993" target="_top" xlink:title="KFParticleFinder::ConstructV0">
<polygon fill="none" stroke="#000000" points="871,-324.5 871,-344.5 1036,-344.5 1036,-324.5 871,-324.5"/>
<text text-anchor="middle" x="953.5" y="-331.5" font-family="FreeSans" font-size="10.00" fill="#000000">KFParticleFinder::ConstructV0</text>
</a>
</g>
</g>
<!-- Node1&#45;&gt;Node6 -->
<g id="edge5" class="edge">
<title>Node1&#45;&gt;Node6</title>
<path fill="none" stroke="#191970" d="M122.3929,-150.2988C132.2934,-153.1014 142.4094,-155.915 152,-158.5 373.2727,-218.1416 432.8436,-217.4987 652,-284.5 668.268,-289.4735 671.4865,-293.415 688,-297.5 748.3119,-312.4195 817.922,-321.8404 870.731,-327.4403"/>
<polygon fill="#191970" stroke="#191970" points="123.1678,-146.8805 112.5917,-147.5088 121.2513,-153.613 123.1678,-146.8805"/>
</g>
<!-- Node9 -->
<g id="node9" class="node">
<title>Node9</title>
<g id="a_node9"><a xlink:href="../../d2/dbb/classKFParticleBaseSIMD.html#a1163dac578cd40f360f1778ceb880035" target="_top" xlink:title="KFParticleBaseSIMD\l::TransportToDecayVertex">
<polygon fill="none" stroke="#000000" points="163,-293.5 163,-325.5 308,-325.5 308,-293.5 163,-293.5"/>
<text text-anchor="start" x="171" y="-312.5" font-family="FreeSans" font-size="10.00" fill="#000000">KFParticleBaseSIMD</text>
<text text-anchor="middle" x="235.5" y="-300.5" font-family="FreeSans" font-size="10.00" fill="#000000">::TransportToDecayVertex</text>
</a>
</g>
</g>
<!-- Node1&#45;&gt;Node9 -->
<g id="edge10" class="edge">
<title>Node1&#45;&gt;Node9</title>
<path fill="none" stroke="#191970" d="M77.0521,-155.8904C95.311,-178.6895 124.1359,-213.216 152,-240.5 171.8863,-259.9723 196.6872,-279.9915 214.0735,-293.4171"/>
<polygon fill="#191970" stroke="#191970" points="79.5574,-153.4174 70.5955,-147.7662 74.0773,-157.7727 79.5574,-153.4174"/>
</g>
<!-- Node18 -->
<g id="node18" class="node">
<title>Node18</title>
<g id="a_node18"><a xlink:href="../../db/dcc/classKFParticleSIMD.html#a75ee554571b29ef90452c2834bebdb1a" target="_top" xlink:title="KFParticleSIMD::Transport\lToParticle">
<polygon fill="none" stroke="#000000" points="162.5,-51.5 162.5,-83.5 308.5,-83.5 308.5,-51.5 162.5,-51.5"/>
<text text-anchor="start" x="170.5" y="-70.5" font-family="FreeSans" font-size="10.00" fill="#000000">KFParticleSIMD::Transport</text>
<text text-anchor="middle" x="235.5" y="-58.5" font-family="FreeSans" font-size="10.00" fill="#000000">ToParticle</text>
</a>
</g>
</g>
<!-- Node1&#45;&gt;Node18 -->
<g id="edge30" class="edge">
<title>Node1&#45;&gt;Node18</title>
<path fill="none" stroke="#191970" d="M112.2286,-111.9471C137.4732,-102.8449 167.1322,-92.1509 191.0313,-83.5338"/>
<polygon fill="#191970" stroke="#191970" points="111.0108,-108.6656 102.7907,-115.3501 113.3851,-115.2507 111.0108,-108.6656"/>
</g>
<!-- Node19 -->
<g id="node19" class="node">
<title>Node19</title>
<g id="a_node19"><a xlink:href="../../db/dcc/classKFParticleSIMD.html#ac4c896519f2acc22953b5b943bc8e08a" target="_top" xlink:title="KFParticleSIMD::Transport\lToPoint">
<polygon fill="none" stroke="#000000" points="688.5,-89.5 688.5,-121.5 834.5,-121.5 834.5,-89.5 688.5,-89.5"/>
<text text-anchor="start" x="696.5" y="-108.5" font-family="FreeSans" font-size="10.00" fill="#000000">KFParticleSIMD::Transport</text>
<text text-anchor="middle" x="761.5" y="-96.5" font-family="FreeSans" font-size="10.00" fill="#000000">ToPoint</text>
</a>
</g>
</g>
<!-- Node1&#45;&gt;Node19 -->
<g id="edge31" class="edge">
<title>Node1&#45;&gt;Node19</title>
<path fill="none" stroke="#191970" d="M126.2283,-128.9784C259.1691,-124.0652 551.8064,-113.2499 688.4839,-108.1985"/>
<polygon fill="#191970" stroke="#191970" points="126.0328,-125.4832 116.1689,-129.3502 126.2914,-132.4784 126.0328,-125.4832"/>
</g>
<!-- Node23 -->
<g id="node23" class="node">
<title>Node23</title>
<g id="a_node23"><a xlink:href="../../d2/dbb/classKFParticleBaseSIMD.html#a0a6f09356d3e2a3cfdc3637090ed10dd" target="_top" xlink:title="KFParticleBaseSIMD\l::TransportToProductionVertex">
<polygon fill="none" stroke="#000000" points="152,-.5 152,-32.5 319,-32.5 319,-.5 152,-.5"/>
<text text-anchor="start" x="160" y="-19.5" font-family="FreeSans" font-size="10.00" fill="#000000">KFParticleBaseSIMD</text>
<text text-anchor="middle" x="235.5" y="-7.5" font-family="FreeSans" font-size="10.00" fill="#000000">::TransportToProductionVertex</text>
</a>
</g>
</g>
<!-- Node1&#45;&gt;Node23 -->
<g id="edge39" class="edge">
<title>Node1&#45;&gt;Node23</title>
<path fill="none" stroke="#191970" d="M77.2247,-107.5842C94.7298,-87.288 122.3125,-58.7863 152,-41.5 157.7539,-38.1497 163.9965,-35.2125 170.39,-32.6454"/>
<polygon fill="#191970" stroke="#191970" points="74.3574,-105.555 70.584,-115.4552 79.7076,-110.069 74.3574,-105.555"/>
</g>
<!-- Node3 -->
<g id="node3" class="node">
<title>Node3</title>
<g id="a_node3"><a xlink:href="../../d2/d3d/classKFParticleFinder.html#a2073bafab2ee9126f3fbf0bef15f68e3" target="_top" xlink:title="KFParticleFinder::FindTrack\lV0Decay">
<polygon fill="none" stroke="#000000" points="1089.5,-178.5 1089.5,-210.5 1240.5,-210.5 1240.5,-178.5 1089.5,-178.5"/>
<text text-anchor="start" x="1097.5" y="-197.5" font-family="FreeSans" font-size="10.00" fill="#000000">KFParticleFinder::FindTrack</text>
<text text-anchor="middle" x="1165" y="-185.5" font-family="FreeSans" font-size="10.00" fill="#000000">V0Decay</text>
</a>
</g>
</g>
<!-- Node2&#45;&gt;Node3 -->
<g id="edge2" class="edge">
<title>Node2&#45;&gt;Node3</title>
<path fill="none" stroke="#191970" d="M1040.2007,-190.3695C1056.4866,-190.9085 1073.3958,-191.4682 1089.3139,-191.995"/>
<polygon fill="#191970" stroke="#191970" points="1040.2657,-186.8699 1030.1554,-190.0371 1040.0341,-193.866 1040.2657,-186.8699"/>
</g>
<!-- Node4 -->
<g id="node4" class="node">
<title>Node4</title>
<g id="a_node4"><a xlink:href="../../d2/d3d/classKFParticleFinder.html#a3ad831d1b28cce4689501e369f561926" target="_top" xlink:title="KFParticleFinder::FindParticles">
<polygon fill="none" stroke="#000000" points="1301,-250.5 1301,-270.5 1468,-270.5 1468,-250.5 1301,-250.5"/>
<text text-anchor="middle" x="1384.5" y="-257.5" font-family="FreeSans" font-size="10.00" fill="#000000">KFParticleFinder::FindParticles</text>
</a>
</g>
</g>
<!-- Node3&#45;&gt;Node4 -->
<g id="edge3" class="edge">
<title>Node3&#45;&gt;Node4</title>
<path fill="none" stroke="#191970" d="M1228.108,-213.4755C1268.1982,-225.53 1318.4896,-240.6518 1351.048,-250.4415"/>
<polygon fill="#191970" stroke="#191970" points="1228.9994,-210.0888 1218.4151,-210.561 1226.9837,-216.7923 1228.9994,-210.0888"/>
</g>
<!-- Node5 -->
<g id="node5" class="node">
<title>Node5</title>
<g id="a_node5"><a xlink:href="../../db/d6d/classKFParticleTopoReconstructor.html#a3013eefd4e16b74ae39c531678623d08" target="_top" xlink:title="KFParticleTopoReconstructor\l::ReconstructParticles">
<polygon fill="none" stroke="#000000" points="1511,-101.5 1511,-133.5 1671,-133.5 1671,-101.5 1511,-101.5"/>
<text text-anchor="start" x="1519" y="-120.5" font-family="FreeSans" font-size="10.00" fill="#000000">KFParticleTopoReconstructor</text>
<text text-anchor="middle" x="1591" y="-108.5" font-family="FreeSans" font-size="10.00" fill="#000000">::ReconstructParticles</text>
</a>
</g>
</g>
<!-- Node4&#45;&gt;Node5 -->
<g id="edge4" class="edge">
<title>Node4&#45;&gt;Node5</title>
<path fill="none" stroke="#191970" d="M1407.4881,-244.5809C1447.0862,-217.1594 1527.7413,-161.3063 1567.6131,-133.6953"/>
<polygon fill="#191970" stroke="#191970" points="1405.2493,-241.8739 1399.0207,-250.4445 1409.2345,-247.6288 1405.2493,-241.8739"/>
</g>
<!-- Node7 -->
<g id="node7" class="node">
<title>Node7</title>
<g id="a_node7"><a xlink:href="../../d2/d3d/classKFParticleFinder.html#a3f6967ae8b6839bc7de48991eaa812ef" target="_top" xlink:title="KFParticleFinder::Find2Daughter\lDecay">
<polygon fill="none" stroke="#000000" points="1075.5,-363.5 1075.5,-395.5 1254.5,-395.5 1254.5,-363.5 1075.5,-363.5"/>
<text text-anchor="start" x="1083.5" y="-382.5" font-family="FreeSans" font-size="10.00" fill="#000000">KFParticleFinder::Find2Daughter</text>
<text text-anchor="middle" x="1165" y="-370.5" font-family="FreeSans" font-size="10.00" fill="#000000">Decay</text>
</a>
</g>
</g>
<!-- Node6&#45;&gt;Node7 -->
<g id="edge6" class="edge">
<title>Node6&#45;&gt;Node7</title>
<path fill="none" stroke="#191970" d="M1010.4993,-346.6275C1034.8574,-351.8101 1063.633,-357.9325 1089.7077,-363.4804"/>
<polygon fill="#191970" stroke="#191970" points="1011.2109,-343.2007 1000.7015,-344.5429 1009.7541,-350.0474 1011.2109,-343.2007"/>
</g>
<!-- Node8 -->
<g id="node8" class="node">
<title>Node8</title>
<g id="a_node8"><a xlink:href="../../d2/d3d/classKFParticleFinder.html#ae68561ffcd9f3bf3e8230604678105c5" target="_top" xlink:title="KFParticleFinder::Construct\lPrimaryBG">
<polygon fill="none" stroke="#000000" points="1088.5,-312.5 1088.5,-344.5 1241.5,-344.5 1241.5,-312.5 1088.5,-312.5"/>
<text text-anchor="start" x="1096.5" y="-331.5" font-family="FreeSans" font-size="10.00" fill="#000000">KFParticleFinder::Construct</text>
<text text-anchor="middle" x="1165" y="-319.5" font-family="FreeSans" font-size="10.00" fill="#000000">PrimaryBG</text>
</a>
</g>
</g>
<!-- Node6&#45;&gt;Node8 -->
<g id="edge8" class="edge">
<title>Node6&#45;&gt;Node8</title>
<path fill="none" stroke="#191970" d="M1046.3102,-331.8671C1060.3166,-331.4697 1074.6304,-331.0637 1088.2488,-330.6773"/>
<polygon fill="#191970" stroke="#191970" points="1046.0768,-328.3722 1036.1801,-332.1545 1046.2754,-335.3694 1046.0768,-328.3722"/>
</g>
<!-- Node7&#45;&gt;Node4 -->
<g id="edge7" class="edge">
<title>Node7&#45;&gt;Node4</title>
<path fill="none" stroke="#191970" d="M1245.5566,-359.9204C1249.8239,-358.2419 1253.998,-356.4373 1258,-354.5 1305.5311,-331.4909 1353.2936,-289.748 1373.9231,-270.5961"/>
<polygon fill="#191970" stroke="#191970" points="1244.2759,-356.6621 1236.0965,-363.3963 1246.6901,-363.2327 1244.2759,-356.6621"/>
</g>
<!-- Node8&#45;&gt;Node4 -->
<g id="edge9" class="edge">
<title>Node8&#45;&gt;Node4</title>
<path fill="none" stroke="#191970" d="M1226.3282,-309.5008C1267.1542,-296.8531 1319.1613,-280.7416 1352.1558,-270.5201"/>
<polygon fill="#191970" stroke="#191970" points="1225.2569,-306.1685 1216.7405,-312.4711 1227.3284,-312.855 1225.2569,-306.1685"/>
</g>
<!-- Node10 -->
<g id="node10" class="node">
<title>Node10</title>
<g id="a_node10"><a xlink:href="../../d2/dbb/classKFParticleBaseSIMD.html#a21beb9923513d2ec67d0d00a1b232d96" target="_top" xlink:title="KFParticleBaseSIMD\l::SetNoDecayLength">
<polygon fill="none" stroke="#000000" points="358.5,-344.5 358.5,-376.5 477.5,-376.5 477.5,-344.5 358.5,-344.5"/>
<text text-anchor="start" x="366.5" y="-363.5" font-family="FreeSans" font-size="10.00" fill="#000000">KFParticleBaseSIMD</text>
<text text-anchor="middle" x="418" y="-351.5" font-family="FreeSans" font-size="10.00" fill="#000000">::SetNoDecayLength</text>
</a>
</g>
</g>
<!-- Node9&#45;&gt;Node10 -->
<g id="edge11" class="edge">
<title>Node9&#45;&gt;Node10</title>
<path fill="none" stroke="#191970" d="M302.9954,-328.3617C321.9347,-333.6544 342.3415,-339.3571 360.6315,-344.4683"/>
<polygon fill="#191970" stroke="#191970" points="303.8172,-324.9573 293.2441,-325.6367 301.9331,-331.6991 303.8172,-324.9573"/>
</g>
<!-- Node11 -->
<g id="node11" class="node">
<title>Node11</title>
<g id="a_node11"><a xlink:href="../../d2/dbb/classKFParticleBaseSIMD.html#ab9370932a09a02d6498ca4c960caba13" target="_top" xlink:title="KFParticleBaseSIMD\l::SetProductionVertex">
<polygon fill="none" stroke="#000000" points="355,-293.5 355,-325.5 481,-325.5 481,-293.5 355,-293.5"/>
<text text-anchor="start" x="363" y="-312.5" font-family="FreeSans" font-size="10.00" fill="#000000">KFParticleBaseSIMD</text>
<text text-anchor="middle" x="418" y="-300.5" font-family="FreeSans" font-size="10.00" fill="#000000">::SetProductionVertex</text>
</a>
</g>
</g>
<!-- Node9&#45;&gt;Node11 -->
<g id="edge12" class="edge">
<title>Node9&#45;&gt;Node11</title>
<path fill="none" stroke="#191970" d="M318.3508,-309.5C330.5706,-309.5 342.993,-309.5 354.7315,-309.5"/>
<polygon fill="#191970" stroke="#191970" points="318.1533,-306.0001 308.1532,-309.5 318.1532,-313.0001 318.1533,-306.0001"/>
</g>
<!-- Node11&#45;&gt;Node2 -->
<g id="edge22" class="edge">
<title>Node11&#45;&gt;Node2</title>
<path fill="none" stroke="#191970" d="M453.2522,-288.3883C471.6697,-278.2244 494.9211,-266.7085 517,-259.5 639.2958,-219.5718 788.4236,-201.0699 876.9159,-193.0494"/>
<polygon fill="#191970" stroke="#191970" points="451.3555,-285.4395 444.3603,-293.3968 454.7909,-291.5386 451.3555,-285.4395"/>
</g>
<!-- Node11&#45;&gt;Node6 -->
<g id="edge23" class="edge">
<title>Node11&#45;&gt;Node6</title>
<path fill="none" stroke="#191970" d="M478.7664,-328.0762C491.2939,-331.1637 504.4842,-333.8839 517,-335.5 639.3188,-351.2943 782.5306,-346.6022 870.6328,-341.0883"/>
<polygon fill="#191970" stroke="#191970" points="479.4439,-324.6366 468.8873,-325.5355 477.7004,-331.416 479.4439,-324.6366"/>
</g>
<!-- Node12 -->
<g id="node12" class="node">
<title>Node12</title>
<g id="a_node12"><a xlink:href="../../d2/d3d/classKFParticleFinder.html#a4ef976ffd76ed2d50940a5d5bb766795" target="_top" xlink:title="KFParticleFinder::Combine\lPartPart">
<polygon fill="none" stroke="#000000" points="879.5,-222.5 879.5,-254.5 1027.5,-254.5 1027.5,-222.5 879.5,-222.5"/>
<text text-anchor="start" x="887.5" y="-241.5" font-family="FreeSans" font-size="10.00" fill="#000000">KFParticleFinder::Combine</text>
<text text-anchor="middle" x="953.5" y="-229.5" font-family="FreeSans" font-size="10.00" fill="#000000">PartPart</text>
</a>
</g>
</g>
<!-- Node11&#45;&gt;Node12 -->
<g id="edge13" class="edge">
<title>Node11&#45;&gt;Node12</title>
<path fill="none" stroke="#191970" d="M487.311,-291.0969C497.2403,-288.7235 507.3559,-286.4461 517,-284.5 642.8614,-259.1016 792.1436,-247.2092 879.4881,-242.0467"/>
<polygon fill="#191970" stroke="#191970" points="486.3561,-287.7271 477.4681,-293.4937 488.0123,-294.5284 486.3561,-287.7271"/>
</g>
<!-- Node13 -->
<g id="node13" class="node">
<title>Node13</title>
<g id="a_node13"><a xlink:href="../../d2/dbb/classKFParticleBaseSIMD.html#a39c874e11dcc9e5346c2eb6fdd056f5e" target="_top" xlink:title="KFParticleBaseSIMD\l::Construct">
<polygon fill="none" stroke="#000000" points="526.5,-293.5 526.5,-325.5 642.5,-325.5 642.5,-293.5 526.5,-293.5"/>
<text text-anchor="start" x="534.5" y="-312.5" font-family="FreeSans" font-size="10.00" fill="#000000">KFParticleBaseSIMD</text>
<text text-anchor="middle" x="584.5" y="-300.5" font-family="FreeSans" font-size="10.00" fill="#000000">::Construct</text>
</a>
</g>
</g>
<!-- Node11&#45;&gt;Node13 -->
<g id="edge15" class="edge">
<title>Node11&#45;&gt;Node13</title>
<path fill="none" stroke="#191970" d="M491.5912,-309.5C503.2656,-309.5 515.1969,-309.5 526.4499,-309.5"/>
<polygon fill="#191970" stroke="#191970" points="491.4215,-306.0001 481.4215,-309.5 491.4214,-313.0001 491.4215,-306.0001"/>
</g>
<!-- Node16 -->
<g id="node16" class="node">
<title>Node16</title>
<g id="a_node16"><a xlink:href="../../d2/d3d/classKFParticleFinder.html#ad5a61416f528be9d0b397352f7619953" target="_top" xlink:title="KFParticleFinder::SaveV0\lPrimSecCand">
<polygon fill="none" stroke="#000000" points="690.5,-383.5 690.5,-415.5 832.5,-415.5 832.5,-383.5 690.5,-383.5"/>
<text text-anchor="start" x="698.5" y="-402.5" font-family="FreeSans" font-size="10.00" fill="#000000">KFParticleFinder::SaveV0</text>
<text text-anchor="middle" x="761.5" y="-390.5" font-family="FreeSans" font-size="10.00" fill="#000000">PrimSecCand</text>
</a>
</g>
</g>
<!-- Node11&#45;&gt;Node16 -->
<g id="edge24" class="edge">
<title>Node11&#45;&gt;Node16</title>
<path fill="none" stroke="#191970" d="M471.8025,-330.1621C474.9753,-331.8522 478.066,-333.6331 481,-335.5 499.3124,-347.152 497.3075,-359.3723 517,-368.5 571.5426,-393.781 639.8626,-400.6498 690.4082,-401.7016"/>
<polygon fill="#191970" stroke="#191970" points="473.2189,-326.9577 462.7059,-325.6437 470.1049,-333.2269 473.2189,-326.9577"/>
</g>
<!-- Node17 -->
<g id="node17" class="node">
<title>Node17</title>
<g id="a_node17"><a xlink:href="../../d2/d3d/classKFParticleFinder.html#a179059d24166483347104b74e9ad6b48" target="_top" xlink:title="KFParticleFinder::Select\lParticles">
<polygon fill="none" stroke="#000000" points="517,-428.5 517,-460.5 652,-460.5 652,-428.5 517,-428.5"/>
<text text-anchor="start" x="525" y="-447.5" font-family="FreeSans" font-size="10.00" fill="#000000">KFParticleFinder::Select</text>
<text text-anchor="middle" x="584.5" y="-435.5" font-family="FreeSans" font-size="10.00" fill="#000000">Particles</text>
</a>
</g>
</g>
<!-- Node11&#45;&gt;Node17 -->
<g id="edge28" class="edge">
<title>Node11&#45;&gt;Node17</title>
<path fill="none" stroke="#191970" d="M475.7726,-331.1112C477.6035,-332.4907 479.3542,-333.9522 481,-335.5 507.6432,-360.5563 491.4709,-383.3095 517,-409.5 524.3712,-417.0622 533.7272,-423.3159 543.1077,-428.3406"/>
<polygon fill="#191970" stroke="#191970" points="477.5932,-328.1199 467.3086,-325.5746 473.7613,-333.9779 477.5932,-328.1199"/>
</g>
<!-- Node12&#45;&gt;Node4 -->
<g id="edge14" class="edge">
<title>Node12&#45;&gt;Node4</title>
<path fill="none" stroke="#191970" d="M1037.606,-242.7931C1113.5854,-246.6714 1224.8087,-252.3487 1300.6949,-256.2222"/>
<polygon fill="#191970" stroke="#191970" points="1037.757,-239.2964 1027.5915,-242.2819 1037.4001,-246.2873 1037.757,-239.2964"/>
</g>
<!-- Node14 -->
<g id="node14" class="node">
<title>Node14</title>
<g id="a_node14"><a xlink:href="../../db/dcc/classKFParticleSIMD.html#afd250069ba85fae638a7e1285e41c320" target="_top" xlink:title="KFParticleSIMD::Construct">
<polygon fill="none" stroke="#000000" points="688,-267.5 688,-287.5 835,-287.5 835,-267.5 688,-267.5"/>
<text text-anchor="middle" x="761.5" y="-274.5" font-family="FreeSans" font-size="10.00" fill="#000000">KFParticleSIMD::Construct</text>
</a>
</g>
</g>
<!-- Node13&#45;&gt;Node14 -->
<g id="edge16" class="edge">
<title>Node13&#45;&gt;Node14</title>
<path fill="none" stroke="#191970" d="M653.13,-297.0923C670.6788,-293.9197 689.3266,-290.5483 706.1162,-287.5129"/>
<polygon fill="#191970" stroke="#191970" points="652.1647,-293.71 642.947,-298.9333 653.4101,-300.5983 652.1647,-293.71"/>
</g>
<!-- Node14&#45;&gt;Node2 -->
<g id="edge18" class="edge">
<title>Node14&#45;&gt;Node2</title>
<path fill="none" stroke="#191970" d="M784.2281,-261.7897C805.7899,-247.432 839.4899,-226.3819 871,-212.5 878.3958,-209.2418 886.3423,-206.2457 894.2781,-203.5463"/>
<polygon fill="#191970" stroke="#191970" points="782.1057,-258.9994 775.7723,-267.4928 786.0199,-264.8028 782.1057,-258.9994"/>
</g>
<!-- Node14&#45;&gt;Node6 -->
<g id="edge17" class="edge">
<title>Node14&#45;&gt;Node6</title>
<path fill="none" stroke="#191970" d="M801.3132,-290.8906C812.2465,-294.6091 824.0932,-298.6762 835,-302.5 851.0533,-308.1281 854.6819,-310.6935 871,-315.5 881.9972,-318.7392 893.9518,-321.7684 905.2595,-324.4148"/>
<polygon fill="#191970" stroke="#191970" points="802.1768,-287.4878 791.5825,-287.5908 799.9287,-294.117 802.1768,-287.4878"/>
</g>
<!-- Node14&#45;&gt;Node12 -->
<g id="edge19" class="edge">
<title>Node14&#45;&gt;Node12</title>
<path fill="none" stroke="#191970" d="M820.9441,-265.4254C839.3726,-261.6821 859.9138,-257.5097 879.2184,-253.5884"/>
<polygon fill="#191970" stroke="#191970" points="820.0479,-262.0359 810.9448,-267.4565 821.4414,-268.8958 820.0479,-262.0359"/>
</g>
<!-- Node15 -->
<g id="node15" class="node">
<title>Node15</title>
<g id="a_node15"><a xlink:href="../../d2/d3d/classKFParticleFinder.html#a76e093479fb04d0360e1cca0e6aa5d01" target="_top" xlink:title="KFParticleFinder::Neutral\lDaughterDecay">
<polygon fill="none" stroke="#000000" points="883.5,-273.5 883.5,-305.5 1023.5,-305.5 1023.5,-273.5 883.5,-273.5"/>
<text text-anchor="start" x="891.5" y="-292.5" font-family="FreeSans" font-size="10.00" fill="#000000">KFParticleFinder::Neutral</text>
<text text-anchor="middle" x="953.5" y="-280.5" font-family="FreeSans" font-size="10.00" fill="#000000">DaughterDecay</text>
</a>
</g>
</g>
<!-- Node14&#45;&gt;Node15 -->
<g id="edge20" class="edge">
<title>Node14&#45;&gt;Node15</title>
<path fill="none" stroke="#191970" d="M845.3186,-282.7387C858.0564,-283.5348 871.0849,-284.3491 883.4876,-285.1242"/>
<polygon fill="#191970" stroke="#191970" points="845.382,-279.2359 835.1831,-282.1052 844.9453,-286.2223 845.382,-279.2359"/>
</g>
<!-- Node15&#45;&gt;Node4 -->
<g id="edge21" class="edge">
<title>Node15&#45;&gt;Node4</title>
<path fill="none" stroke="#191970" d="M1033.711,-284.103C1109.727,-278.9882 1223.4542,-271.336 1300.6469,-266.1421"/>
<polygon fill="#191970" stroke="#191970" points="1033.4493,-280.6126 1023.7068,-284.7761 1033.9193,-287.5968 1033.4493,-280.6126"/>
</g>
<!-- Node16&#45;&gt;Node6 -->
<g id="edge25" class="edge">
<title>Node16&#45;&gt;Node6</title>
<path fill="none" stroke="#191970" d="M813.2305,-379.9287C831.4164,-373.2279 852.0422,-365.8295 871,-359.5 886.6154,-354.2865 904.0434,-348.9375 918.8432,-344.5321"/>
<polygon fill="#191970" stroke="#191970" points="811.8474,-376.7085 803.6854,-383.4637 814.2785,-383.2728 811.8474,-376.7085"/>
</g>
<!-- Node16&#45;&gt;Node7 -->
<g id="edge26" class="edge">
<title>Node16&#45;&gt;Node7</title>
<path fill="none" stroke="#191970" d="M842.9296,-396.33C897.5555,-394.1075 971.1109,-390.9301 1036,-387.5 1048.7723,-386.8248 1062.2522,-386.0537 1075.4915,-385.2629"/>
<polygon fill="#191970" stroke="#191970" points="842.4614,-392.846 832.6111,-396.7476 842.7445,-399.8402 842.4614,-392.846"/>
</g>
<!-- Node16&#45;&gt;Node8 -->
<g id="edge27" class="edge">
<title>Node16&#45;&gt;Node8</title>
<path fill="none" stroke="#191970" d="M842.7043,-386.9824C897.4141,-378.3538 971.1522,-366.3464 1036,-354.5 1052.9681,-351.4003 1071.1479,-347.8675 1088.3489,-344.4266"/>
<polygon fill="#191970" stroke="#191970" points="842.0514,-383.542 832.7167,-388.5534 843.1391,-390.457 842.0514,-383.542"/>
</g>
<!-- Node17&#45;&gt;Node4 -->
<g id="edge29" class="edge">
<title>Node17&#45;&gt;Node4</title>
<path fill="none" stroke="#191970" d="M662.2933,-458.5695C792.9513,-478.2926 1061.4491,-501.8152 1258,-405.5 1320.3977,-374.9234 1364.9089,-298.3111 1379.4069,-270.6565"/>
<polygon fill="#191970" stroke="#191970" points="662.7826,-455.1037 652.3659,-457.038 661.7153,-462.0219 662.7826,-455.1037"/>
</g>
<!-- Node19&#45;&gt;Node2 -->
<g id="edge34" class="edge">
<title>Node19&#45;&gt;Node2</title>
<path fill="none" stroke="#191970" d="M811.2115,-125.6051C819.2307,-129.0945 827.393,-132.7961 835,-136.5 851.4563,-144.5126 854.3879,-148.8156 871,-156.5 882.5261,-161.8318 895.2505,-166.9649 907.1845,-171.4677"/>
<polygon fill="#191970" stroke="#191970" points="812.4755,-122.339 801.9051,-121.6189 809.7193,-128.7736 812.4755,-122.339"/>
</g>
<!-- Node20 -->
<g id="node20" class="node">
<title>Node20</title>
<g id="a_node20"><a xlink:href="../../d2/d3d/classKFParticleFinder.html#a370264d09a6bfbb50da1113abd0db15a" target="_top" xlink:title="KFParticleFinder::ExtrapolateToPV">
<polygon fill="none" stroke="#000000" points="1072,-137.5 1072,-157.5 1258,-157.5 1258,-137.5 1072,-137.5"/>
<text text-anchor="middle" x="1165" y="-144.5" font-family="FreeSans" font-size="10.00" fill="#000000">KFParticleFinder::ExtrapolateToPV</text>
</a>
</g>
</g>
<!-- Node19&#45;&gt;Node20 -->
<g id="edge32" class="edge">
<title>Node19&#45;&gt;Node20</title>
<path fill="none" stroke="#191970" d="M844.5571,-115.5362C853.4801,-116.562 862.4267,-117.5683 871,-118.5 938.1783,-125.8002 1014.0799,-133.2674 1071.9329,-138.7961"/>
<polygon fill="#191970" stroke="#191970" points="844.8502,-112.0468 834.5138,-114.3726 844.0445,-119.0003 844.8502,-112.0468"/>
</g>
<!-- Node21 -->
<g id="node21" class="node">
<title>Node21</title>
<g id="a_node21"><a xlink:href="../../db/d6d/classKFParticleTopoReconstructor.html#a6902971d3ad7442052bf4b0195b08115" target="_top" xlink:title="KFParticleTopoReconstructor\l::TransportPVTracksToPrimVertex">
<polygon fill="none" stroke="#000000" points="1294,-101.5 1294,-133.5 1475,-133.5 1475,-101.5 1294,-101.5"/>
<text text-anchor="start" x="1302" y="-120.5" font-family="FreeSans" font-size="10.00" fill="#000000">KFParticleTopoReconstructor</text>
<text text-anchor="middle" x="1384.5" y="-108.5" font-family="FreeSans" font-size="10.00" fill="#000000">::TransportPVTracksToPrimVertex</text>
</a>
</g>
</g>
<!-- Node19&#45;&gt;Node21 -->
<g id="edge35" class="edge">
<title>Node19&#45;&gt;Node21</title>
<path fill="none" stroke="#191970" d="M845.1164,-107.1106C961.986,-109.3617 1173.3514,-113.4329 1293.8708,-115.7543"/>
<polygon fill="#191970" stroke="#191970" points="844.8636,-103.6052 834.798,-106.9118 844.7287,-110.6039 844.8636,-103.6052"/>
</g>
<!-- Node22 -->
<g id="node22" class="node">
<title>Node22</title>
<g id="a_node22"><a xlink:href="../../db/d6d/classKFParticleTopoReconstructor.html#ab724f4c1794600a8405b606d727b97fb" target="_top" xlink:title="KFParticleTopoReconstructor\l::GetChiToPrimVertex">
<polygon fill="none" stroke="#000000" points="1304.5,-50.5 1304.5,-82.5 1464.5,-82.5 1464.5,-50.5 1304.5,-50.5"/>
<text text-anchor="start" x="1312.5" y="-69.5" font-family="FreeSans" font-size="10.00" fill="#000000">KFParticleTopoReconstructor</text>
<text text-anchor="middle" x="1384.5" y="-57.5" font-family="FreeSans" font-size="10.00" fill="#000000">::GetChiToPrimVertex</text>
</a>
</g>
</g>
<!-- Node19&#45;&gt;Node22 -->
<g id="edge37" class="edge">
<title>Node19&#45;&gt;Node22</title>
<path fill="none" stroke="#191970" d="M845.0586,-100.2692C965.3867,-92.7366 1185.9721,-78.9279 1304.3647,-71.5165"/>
<polygon fill="#191970" stroke="#191970" points="844.5598,-96.7935 834.798,-100.9115 844.9972,-103.7798 844.5598,-96.7935"/>
</g>
<!-- Node20&#45;&gt;Node4 -->
<g id="edge33" class="edge">
<title>Node20&#45;&gt;Node4</title>
<path fill="none" stroke="#191970" d="M1235.8702,-160.3048C1243.4874,-162.6188 1251.0034,-165.3298 1258,-168.5 1305.7385,-190.1309 1353.3957,-231.4369 1373.9608,-250.4572"/>
<polygon fill="#191970" stroke="#191970" points="1236.7735,-156.9231 1226.1991,-157.5814 1234.876,-163.6611 1236.7735,-156.9231"/>
</g>
<!-- Node21&#45;&gt;Node5 -->
<g id="edge36" class="edge">
<title>Node21&#45;&gt;Node5</title>
<path fill="none" stroke="#191970" d="M1485.1716,-117.5C1493.795,-117.5 1502.4425,-117.5 1510.8731,-117.5"/>
<polygon fill="#191970" stroke="#191970" points="1485.0739,-114.0001 1475.0739,-117.5 1485.0739,-121.0001 1485.0739,-114.0001"/>
</g>
<!-- Node22&#45;&gt;Node5 -->
<g id="edge38" class="edge">
<title>Node22&#45;&gt;Node5</title>
<path fill="none" stroke="#191970" d="M1459.417,-85.0025C1481.1954,-90.3812 1504.7966,-96.2101 1525.9179,-101.4264"/>
<polygon fill="#191970" stroke="#191970" points="1460.102,-81.5666 1449.5545,-82.5667 1458.4235,-88.3624 1460.102,-81.5666"/>
</g>
</g>
</svg>
