<?xml version="1.0" encoding="UTF-8" standalone="no"?>
<!DOCTYPE svg PUBLIC "-//W3C//DTD SVG 1.1//EN"
 "http://www.w3.org/Graphics/SVG/1.1/DTD/svg11.dtd">
<!-- Generated by graphviz version 2.40.1 (20161225.0304)
 -->
<!-- Title: KFParticleBaseSIMD::GetDStoParticleLine Pages: 1 -->
<svg width="1644pt" height="378pt"
 viewBox="0.00 0.00 1644.00 377.98" xmlns="http://www.w3.org/2000/svg" xmlns:xlink="http://www.w3.org/1999/xlink">
<g id="graph0" class="graph" transform="scale(1 1) rotate(0) translate(4 373.9843)">
<title>KFParticleBaseSIMD::GetDStoParticleLine</title>
<!-- Node1 -->
<g id="node1" class="node">
<title>Node1</title>
<polygon fill="#bfbfbf" stroke="#000000" points="0,-153.4843 0,-185.4843 123,-185.4843 123,-153.4843 0,-153.4843"/>
<text text-anchor="start" x="8" y="-172.4843" font-family="FreeSans" font-size="10.00" fill="#000000">KFParticleBaseSIMD</text>
<text text-anchor="middle" x="61.5" y="-160.4843" font-family="FreeSans" font-size="10.00" fill="#000000">::GetDStoParticleLine</text>
</g>
<!-- Node2 -->
<g id="node2" class="node">
<title>Node2</title>
<g id="a_node2"><a xlink:href="../../d2/dbb/classKFParticleBaseSIMD.html#a3c652b30a3f4e787a60f1de438becf53" target="_top" xlink:title="KFParticleBaseSIMD\l::GetDStoParticleBz">
<polygon fill="none" stroke="#000000" points="159,-112.4843 159,-144.4843 275,-144.4843 275,-112.4843 159,-112.4843"/>
<text text-anchor="start" x="167" y="-131.4843" font-family="FreeSans" font-size="10.00" fill="#000000">KFParticleBaseSIMD</text>
<text text-anchor="middle" x="217" y="-119.4843" font-family="FreeSans" font-size="10.00" fill="#000000">::GetDStoParticleBz</text>
</a>
</g>
</g>
<!-- Node1&#45;&gt;Node2 -->
<g id="edge1" class="edge">
<title>Node1&#45;&gt;Node2</title>
<path fill="none" stroke="#191970" d="M132.4532,-150.7764C141.3255,-148.4371 150.3168,-146.0664 158.9602,-143.7874"/>
<polygon fill="#191970" stroke="#191970" points="131.2886,-147.4638 122.5114,-153.3977 133.0733,-154.2324 131.2886,-147.4638"/>
</g>
<!-- Node19 -->
<g id="node19" class="node">
<title>Node19</title>
<g id="a_node19"><a xlink:href="../../d2/dbb/classKFParticleBaseSIMD.html#acd7097a1ad5f82efff3812c01580e592" target="_top" xlink:title="KFParticleBaseSIMD\l::GetDStoParticleCBM">
<polygon fill="none" stroke="#000000" points="463,-112.4843 463,-144.4843 587,-144.4843 587,-112.4843 463,-112.4843"/>
<text text-anchor="start" x="471" y="-131.4843" font-family="FreeSans" font-size="10.00" fill="#000000">KFParticleBaseSIMD</text>
<text text-anchor="middle" x="525" y="-119.4843" font-family="FreeSans" font-size="10.00" fill="#000000">::GetDStoParticleCBM</text>
</a>
</g>
</g>
<!-- Node1&#45;&gt;Node19 -->
<g id="edge25" class="edge">
<title>Node1&#45;&gt;Node19</title>
<path fill="none" stroke="#191970" d="M133.1428,-171.1383C207.1536,-171.7749 325.7961,-169.7978 427,-154.4843 442.1418,-152.1931 458.3103,-148.4564 473.0589,-144.5213"/>
<polygon fill="#191970" stroke="#191970" points="133.0383,-167.6371 123.0022,-171.0322 132.9651,-174.6367 133.0383,-167.6371"/>
</g>
<!-- Node3 -->
<g id="node3" class="node">
<title>Node3</title>
<g id="a_node3"><a xlink:href="../../db/dcc/classKFParticleSIMD.html#ad8379c5666e84d5c1de7dd1428234744" target="_top" xlink:title="KFParticleSIMD::GetDStoParticle">
<polygon fill="none" stroke="#000000" points="633.5,-163.4843 633.5,-183.4843 810.5,-183.4843 810.5,-163.4843 633.5,-163.4843"/>
<text text-anchor="middle" x="722" y="-170.4843" font-family="FreeSans" font-size="10.00" fill="#000000">KFParticleSIMD::GetDStoParticle</text>
</a>
</g>
</g>
<!-- Node2&#45;&gt;Node3 -->
<g id="edge2" class="edge">
<title>Node2&#45;&gt;Node3</title>
<path fill="none" stroke="#191970" d="M276.5889,-147.1168C287.9174,-150.0446 299.7484,-152.6914 311,-154.4843 421.043,-172.0198 549.591,-175.2393 633.2278,-175.0789"/>
<polygon fill="#191970" stroke="#191970" points="277.3556,-143.6988 266.7901,-144.486 275.5405,-150.4594 277.3556,-143.6988"/>
</g>
<!-- Node17 -->
<g id="node17" class="node">
<title>Node17</title>
<g id="a_node17"><a xlink:href="../../d2/dbb/classKFParticleBaseSIMD.html#af18dabf64aa93effd00e8ef3187df1e8" target="_top" xlink:title="KFParticleBaseSIMD\l::GetDStoParticleB">
<polygon fill="none" stroke="#000000" points="311,-22.4843 311,-54.4843 427,-54.4843 427,-22.4843 311,-22.4843"/>
<text text-anchor="start" x="319" y="-41.4843" font-family="FreeSans" font-size="10.00" fill="#000000">KFParticleBaseSIMD</text>
<text text-anchor="middle" x="369" y="-29.4843" font-family="FreeSans" font-size="10.00" fill="#000000">::GetDStoParticleB</text>
</a>
</g>
</g>
<!-- Node2&#45;&gt;Node17 -->
<g id="edge18" class="edge">
<title>Node2&#45;&gt;Node17</title>
<path fill="none" stroke="#191970" d="M250.3167,-106.7818C268.137,-95.3755 290.563,-81.3404 311,-69.4843 319.6908,-64.4425 329.2602,-59.2039 338.0772,-54.4995"/>
<polygon fill="#191970" stroke="#191970" points="247.9708,-104.129 241.4525,-112.4814 251.7567,-110.0169 247.9708,-104.129"/>
</g>
<!-- Node18 -->
<g id="node18" class="node">
<title>Node18</title>
<g id="a_node18"><a xlink:href="../../d2/dbb/classKFParticleBaseSIMD.html#a807794fa31286b74663338e91a515e28" target="_top" xlink:title="KFParticleBaseSIMD\l::GetDStoParticleBy">
<polygon fill="none" stroke="#000000" points="311,-112.4843 311,-144.4843 427,-144.4843 427,-112.4843 311,-112.4843"/>
<text text-anchor="start" x="319" y="-131.4843" font-family="FreeSans" font-size="10.00" fill="#000000">KFParticleBaseSIMD</text>
<text text-anchor="middle" x="369" y="-119.4843" font-family="FreeSans" font-size="10.00" fill="#000000">::GetDStoParticleBy</text>
</a>
</g>
</g>
<!-- Node2&#45;&gt;Node18 -->
<g id="edge19" class="edge">
<title>Node2&#45;&gt;Node18</title>
<path fill="none" stroke="#191970" d="M285.5423,-128.4843C293.9862,-128.4843 302.5541,-128.4843 310.8236,-128.4843"/>
<polygon fill="#191970" stroke="#191970" points="285.3325,-124.9844 275.3325,-128.4843 285.3324,-131.9844 285.3325,-124.9844"/>
</g>
<!-- Node20 -->
<g id="node20" class="node">
<title>Node20</title>
<g id="a_node20"><a xlink:href="../../db/dcc/classKFParticleSIMD.html#ac4bcc9cda90e1454fd9ab18bfd7bd012" target="_top" xlink:title="KFParticleSIMD::GetDStoParticleFast">
<polygon fill="none" stroke="#000000" points="623,-73.4843 623,-93.4843 821,-93.4843 821,-73.4843 623,-73.4843"/>
<text text-anchor="middle" x="722" y="-80.4843" font-family="FreeSans" font-size="10.00" fill="#000000">KFParticleSIMD::GetDStoParticleFast</text>
</a>
</g>
</g>
<!-- Node2&#45;&gt;Node20 -->
<g id="edge24" class="edge">
<title>Node2&#45;&gt;Node20</title>
<path fill="none" stroke="#191970" d="M276.5889,-109.8518C287.9174,-106.924 299.7484,-104.2773 311,-102.4843 416.6342,-85.6514 539.3203,-82.0103 622.9631,-81.8874"/>
<polygon fill="#191970" stroke="#191970" points="275.5405,-106.5092 266.7901,-112.4826 277.3556,-113.2698 275.5405,-106.5092"/>
</g>
<!-- Node4 -->
<g id="node4" class="node">
<title>Node4</title>
<g id="a_node4"><a xlink:href="../../d2/d3d/classKFParticleFinder.html#a555c027cc00bc7d9461470d5c200b993" target="_top" xlink:title="KFParticleFinder::ConstructV0">
<polygon fill="none" stroke="#000000" points="857,-208.4843 857,-228.4843 1022,-228.4843 1022,-208.4843 857,-208.4843"/>
<text text-anchor="middle" x="939.5" y="-215.4843" font-family="FreeSans" font-size="10.00" fill="#000000">KFParticleFinder::ConstructV0</text>
</a>
</g>
</g>
<!-- Node3&#45;&gt;Node4 -->
<g id="edge3" class="edge">
<title>Node3&#45;&gt;Node4</title>
<path fill="none" stroke="#191970" d="M780.5169,-185.5912C815.1268,-192.7519 858.436,-201.7124 891.1078,-208.4721"/>
<polygon fill="#191970" stroke="#191970" points="781.0423,-182.1259 770.5405,-183.5272 779.624,-188.9807 781.0423,-182.1259"/>
</g>
<!-- Node9 -->
<g id="node9" class="node">
<title>Node9</title>
<g id="a_node9"><a xlink:href="../../d2/d3d/classKFParticleFinder.html#a845f4b9e798f34dad97691ddd0df6b07" target="_top" xlink:title="KFParticleFinder::Construct\lTrackV0Cand">
<polygon fill="none" stroke="#000000" points="863,-247.4843 863,-279.4843 1016,-279.4843 1016,-247.4843 863,-247.4843"/>
<text text-anchor="start" x="871" y="-266.4843" font-family="FreeSans" font-size="10.00" fill="#000000">KFParticleFinder::Construct</text>
<text text-anchor="middle" x="939.5" y="-254.4843" font-family="FreeSans" font-size="10.00" fill="#000000">TrackV0Cand</text>
</a>
</g>
</g>
<!-- Node3&#45;&gt;Node9 -->
<g id="edge9" class="edge">
<title>Node3&#45;&gt;Node9</title>
<path fill="none" stroke="#191970" d="M750.0085,-188.5446C776.9262,-202.6381 819.0063,-223.6833 857,-238.4843 865.0883,-241.6352 873.7463,-244.6416 882.3008,-247.4073"/>
<polygon fill="#191970" stroke="#191970" points="751.2906,-185.2637 740.8131,-183.6912 748.0231,-191.4544 751.2906,-185.2637"/>
</g>
<!-- Node11 -->
<g id="node11" class="node">
<title>Node11</title>
<g id="a_node11"><a xlink:href="../../db/dcc/classKFParticleSIMD.html#aa8fb673d2b680ca33297a1e401aa7208" target="_top" xlink:title="KFParticleSIMD::GetDistance\lFromParticleXY">
<polygon fill="none" stroke="#000000" points="859.5,-157.4843 859.5,-189.4843 1019.5,-189.4843 1019.5,-157.4843 859.5,-157.4843"/>
<text text-anchor="start" x="867.5" y="-176.4843" font-family="FreeSans" font-size="10.00" fill="#000000">KFParticleSIMD::GetDistance</text>
<text text-anchor="middle" x="939.5" y="-164.4843" font-family="FreeSans" font-size="10.00" fill="#000000">FromParticleXY</text>
</a>
</g>
</g>
<!-- Node3&#45;&gt;Node11 -->
<g id="edge12" class="edge">
<title>Node3&#45;&gt;Node11</title>
<path fill="none" stroke="#191970" d="M821.0296,-173.4843C833.8768,-173.4843 846.9065,-173.4843 859.3936,-173.4843"/>
<polygon fill="#191970" stroke="#191970" points="820.7793,-169.9844 810.7793,-173.4843 820.7792,-176.9844 820.7793,-169.9844"/>
</g>
<!-- Node12 -->
<g id="node12" class="node">
<title>Node12</title>
<g id="a_node12"><a xlink:href="../../db/dcc/classKFParticleSIMD.html#aeef9436d096312a52ff8d9a2e691f115" target="_top" xlink:title="KFParticleSIMD::GetDeviation\lFromParticleXY">
<polygon fill="none" stroke="#000000" points="857.5,-106.4843 857.5,-138.4843 1021.5,-138.4843 1021.5,-106.4843 857.5,-106.4843"/>
<text text-anchor="start" x="865.5" y="-125.4843" font-family="FreeSans" font-size="10.00" fill="#000000">KFParticleSIMD::GetDeviation</text>
<text text-anchor="middle" x="939.5" y="-113.4843" font-family="FreeSans" font-size="10.00" fill="#000000">FromParticleXY</text>
</a>
</g>
</g>
<!-- Node3&#45;&gt;Node12 -->
<g id="edge13" class="edge">
<title>Node3&#45;&gt;Node12</title>
<path fill="none" stroke="#191970" d="M774.6488,-161.1391C803.6666,-154.3349 840.0229,-145.81 871.2045,-138.4984"/>
<polygon fill="#191970" stroke="#191970" points="773.6484,-157.7786 764.7115,-163.4692 775.2465,-164.5938 773.6484,-157.7786"/>
</g>
<!-- Node13 -->
<g id="node13" class="node">
<title>Node13</title>
<g id="a_node13"><a xlink:href="../../db/dcc/classKFParticleSIMD.html#a742d47505d1051ecf081040ac15c9798" target="_top" xlink:title="KFParticleSIMD::GetAngle">
<polygon fill="none" stroke="#000000" points="867,-67.4843 867,-87.4843 1012,-87.4843 1012,-67.4843 867,-67.4843"/>
<text text-anchor="middle" x="939.5" y="-74.4843" font-family="FreeSans" font-size="10.00" fill="#000000">KFParticleSIMD::GetAngle</text>
</a>
</g>
</g>
<!-- Node3&#45;&gt;Node13 -->
<g id="edge14" class="edge">
<title>Node3&#45;&gt;Node13</title>
<path fill="none" stroke="#191970" d="M744.675,-157.787C770.6969,-140.445 815.1831,-112.8168 857,-96.4843 866.0358,-92.9552 875.8961,-89.9829 885.5552,-87.5148"/>
<polygon fill="#191970" stroke="#191970" points="742.6058,-154.9609 736.2755,-163.4567 746.5222,-160.7629 742.6058,-154.9609"/>
</g>
<!-- Node14 -->
<g id="node14" class="node">
<title>Node14</title>
<g id="a_node14"><a xlink:href="../../db/dcc/classKFParticleSIMD.html#a485a5cc06021dbc62322c2cb7a706251" target="_top" xlink:title="KFParticleSIMD::GetAngleXY">
<polygon fill="none" stroke="#000000" points="860,-28.4843 860,-48.4843 1019,-48.4843 1019,-28.4843 860,-28.4843"/>
<text text-anchor="middle" x="939.5" y="-35.4843" font-family="FreeSans" font-size="10.00" fill="#000000">KFParticleSIMD::GetAngleXY</text>
</a>
</g>
</g>
<!-- Node3&#45;&gt;Node14 -->
<g id="edge15" class="edge">
<title>Node3&#45;&gt;Node14</title>
<path fill="none" stroke="#191970" d="M747.4638,-157.9986C768.3685,-144.6564 798.1444,-124.1686 821,-102.4843 839.5806,-84.8559 835.3161,-71.1155 857,-57.4843 862.724,-53.886 869.0546,-50.9674 875.5891,-48.6004"/>
<polygon fill="#191970" stroke="#191970" points="745.4213,-155.1484 738.8172,-163.4331 749.1463,-161.075 745.4213,-155.1484"/>
</g>
<!-- Node15 -->
<g id="node15" class="node">
<title>Node15</title>
<g id="a_node15"><a xlink:href="../../db/dcc/classKFParticleSIMD.html#acf26f94fdfb68a8983b0b601ae86a3ff" target="_top" xlink:title="KFParticleSIMD::GetAngleRZ">
<polygon fill="none" stroke="#000000" points="860,-349.4843 860,-369.4843 1019,-369.4843 1019,-349.4843 860,-349.4843"/>
<text text-anchor="middle" x="939.5" y="-356.4843" font-family="FreeSans" font-size="10.00" fill="#000000">KFParticleSIMD::GetAngleRZ</text>
</a>
</g>
</g>
<!-- Node3&#45;&gt;Node15 -->
<g id="edge16" class="edge">
<title>Node3&#45;&gt;Node15</title>
<path fill="none" stroke="#191970" d="M731.972,-192.9422C751.1257,-228.2526 796.5763,-302.7143 857,-340.4843 862.7331,-344.068 869.0696,-346.9772 875.6075,-349.3387"/>
<polygon fill="#191970" stroke="#191970" points="734.8523,-190.9025 727.0795,-183.703 728.6661,-194.1783 734.8523,-190.9025"/>
</g>
<!-- Node16 -->
<g id="node16" class="node">
<title>Node16</title>
<g id="a_node16"><a xlink:href="../../db/dcc/classKFParticleSIMD.html#a75ee554571b29ef90452c2834bebdb1a" target="_top" xlink:title="KFParticleSIMD::Transport\lToParticle">
<polygon fill="none" stroke="#000000" points="866.5,-298.4843 866.5,-330.4843 1012.5,-330.4843 1012.5,-298.4843 866.5,-298.4843"/>
<text text-anchor="start" x="874.5" y="-317.4843" font-family="FreeSans" font-size="10.00" fill="#000000">KFParticleSIMD::Transport</text>
<text text-anchor="middle" x="939.5" y="-305.4843" font-family="FreeSans" font-size="10.00" fill="#000000">ToParticle</text>
</a>
</g>
</g>
<!-- Node3&#45;&gt;Node16 -->
<g id="edge17" class="edge">
<title>Node3&#45;&gt;Node16</title>
<path fill="none" stroke="#191970" d="M737.9087,-191.1905C761.5337,-216.467 808.3587,-262.7825 857,-289.4843 863.1661,-292.8692 869.8489,-295.8539 876.6508,-298.4712"/>
<polygon fill="#191970" stroke="#191970" points="740.429,-188.7605 731.0806,-183.7747 735.2794,-193.502 740.429,-188.7605"/>
</g>
<!-- Node5 -->
<g id="node5" class="node">
<title>Node5</title>
<g id="a_node5"><a xlink:href="../../d2/d3d/classKFParticleFinder.html#a3f6967ae8b6839bc7de48991eaa812ef" target="_top" xlink:title="KFParticleFinder::Find2Daughter\lDecay">
<polygon fill="none" stroke="#000000" points="1058,-148.4843 1058,-180.4843 1237,-180.4843 1237,-148.4843 1058,-148.4843"/>
<text text-anchor="start" x="1066" y="-167.4843" font-family="FreeSans" font-size="10.00" fill="#000000">KFParticleFinder::Find2Daughter</text>
<text text-anchor="middle" x="1147.5" y="-155.4843" font-family="FreeSans" font-size="10.00" fill="#000000">Decay</text>
</a>
</g>
</g>
<!-- Node4&#45;&gt;Node5 -->
<g id="edge4" class="edge">
<title>Node4&#45;&gt;Node5</title>
<path fill="none" stroke="#191970" d="M994.7506,-206.1267C1003.8708,-203.9816 1013.2133,-201.7201 1022,-199.4843 1045.0172,-193.6275 1070.2657,-186.6871 1092.043,-180.5373"/>
<polygon fill="#191970" stroke="#191970" points="993.9242,-202.7254 984.9783,-208.4018 995.5115,-209.5431 993.9242,-202.7254"/>
</g>
<!-- Node8 -->
<g id="node8" class="node">
<title>Node8</title>
<g id="a_node8"><a xlink:href="../../d2/d3d/classKFParticleFinder.html#ae68561ffcd9f3bf3e8230604678105c5" target="_top" xlink:title="KFParticleFinder::Construct\lPrimaryBG">
<polygon fill="none" stroke="#000000" points="1071,-199.4843 1071,-231.4843 1224,-231.4843 1224,-199.4843 1071,-199.4843"/>
<text text-anchor="start" x="1079" y="-218.4843" font-family="FreeSans" font-size="10.00" fill="#000000">KFParticleFinder::Construct</text>
<text text-anchor="middle" x="1147.5" y="-206.4843" font-family="FreeSans" font-size="10.00" fill="#000000">PrimaryBG</text>
</a>
</g>
</g>
<!-- Node4&#45;&gt;Node8 -->
<g id="edge7" class="edge">
<title>Node4&#45;&gt;Node8</title>
<path fill="none" stroke="#191970" d="M1032.2786,-217.1462C1045.1691,-216.9602 1058.2923,-216.771 1070.8435,-216.5899"/>
<polygon fill="#191970" stroke="#191970" points="1031.9543,-213.6504 1022.0059,-217.2943 1032.0553,-220.6496 1031.9543,-213.6504"/>
</g>
<!-- Node6 -->
<g id="node6" class="node">
<title>Node6</title>
<g id="a_node6"><a xlink:href="../../d2/d3d/classKFParticleFinder.html#a3ad831d1b28cce4689501e369f561926" target="_top" xlink:title="KFParticleFinder::FindParticles">
<polygon fill="none" stroke="#000000" points="1273,-205.4843 1273,-225.4843 1440,-225.4843 1440,-205.4843 1273,-205.4843"/>
<text text-anchor="middle" x="1356.5" y="-212.4843" font-family="FreeSans" font-size="10.00" fill="#000000">KFParticleFinder::FindParticles</text>
</a>
</g>
</g>
<!-- Node5&#45;&gt;Node6 -->
<g id="edge5" class="edge">
<title>Node5&#45;&gt;Node6</title>
<path fill="none" stroke="#191970" d="M1223.2821,-182.9766C1254.3421,-190.5558 1289.0717,-199.0305 1315.2819,-205.4263"/>
<polygon fill="#191970" stroke="#191970" points="1223.8867,-179.5215 1213.342,-180.551 1222.2272,-186.322 1223.8867,-179.5215"/>
</g>
<!-- Node7 -->
<g id="node7" class="node">
<title>Node7</title>
<g id="a_node7"><a xlink:href="../../db/d6d/classKFParticleTopoReconstructor.html#a3013eefd4e16b74ae39c531678623d08" target="_top" xlink:title="KFParticleTopoReconstructor\l::ReconstructParticles">
<polygon fill="none" stroke="#000000" points="1476,-199.4843 1476,-231.4843 1636,-231.4843 1636,-199.4843 1476,-199.4843"/>
<text text-anchor="start" x="1484" y="-218.4843" font-family="FreeSans" font-size="10.00" fill="#000000">KFParticleTopoReconstructor</text>
<text text-anchor="middle" x="1556" y="-206.4843" font-family="FreeSans" font-size="10.00" fill="#000000">::ReconstructParticles</text>
</a>
</g>
</g>
<!-- Node6&#45;&gt;Node7 -->
<g id="edge6" class="edge">
<title>Node6&#45;&gt;Node7</title>
<path fill="none" stroke="#191970" d="M1450.2835,-215.4843C1458.8763,-215.4843 1467.5283,-215.4843 1475.9834,-215.4843"/>
<polygon fill="#191970" stroke="#191970" points="1450.2389,-211.9844 1440.2388,-215.4843 1450.2388,-218.9844 1450.2389,-211.9844"/>
</g>
<!-- Node8&#45;&gt;Node6 -->
<g id="edge8" class="edge">
<title>Node8&#45;&gt;Node6</title>
<path fill="none" stroke="#191970" d="M1234.2715,-215.4843C1247.0239,-215.4843 1260.1392,-215.4843 1272.8275,-215.4843"/>
<polygon fill="#191970" stroke="#191970" points="1234.1372,-211.9844 1224.1371,-215.4843 1234.1371,-218.9844 1234.1372,-211.9844"/>
</g>
<!-- Node10 -->
<g id="node10" class="node">
<title>Node10</title>
<g id="a_node10"><a xlink:href="../../d2/d3d/classKFParticleFinder.html#a2073bafab2ee9126f3fbf0bef15f68e3" target="_top" xlink:title="KFParticleFinder::FindTrack\lV0Decay">
<polygon fill="none" stroke="#000000" points="1072,-250.4843 1072,-282.4843 1223,-282.4843 1223,-250.4843 1072,-250.4843"/>
<text text-anchor="start" x="1080" y="-269.4843" font-family="FreeSans" font-size="10.00" fill="#000000">KFParticleFinder::FindTrack</text>
<text text-anchor="middle" x="1147.5" y="-257.4843" font-family="FreeSans" font-size="10.00" fill="#000000">V0Decay</text>
</a>
</g>
</g>
<!-- Node9&#45;&gt;Node10 -->
<g id="edge10" class="edge">
<title>Node9&#45;&gt;Node10</title>
<path fill="none" stroke="#191970" d="M1026.4061,-264.7378C1041.4796,-264.9552 1057.0457,-265.1797 1071.7907,-265.3923"/>
<polygon fill="#191970" stroke="#191970" points="1026.1149,-261.2333 1016.0654,-264.5886 1026.0138,-268.2326 1026.1149,-261.2333"/>
</g>
<!-- Node10&#45;&gt;Node6 -->
<g id="edge11" class="edge">
<title>Node10&#45;&gt;Node6</title>
<path fill="none" stroke="#191970" d="M1223.2821,-247.992C1254.3421,-240.4128 1289.0717,-231.9381 1315.2819,-225.5423"/>
<polygon fill="#191970" stroke="#191970" points="1222.2272,-244.6466 1213.342,-250.4176 1223.8867,-251.4471 1222.2272,-244.6466"/>
</g>
<!-- Node18&#45;&gt;Node19 -->
<g id="edge20" class="edge">
<title>Node18&#45;&gt;Node19</title>
<path fill="none" stroke="#191970" d="M437.3627,-128.4843C445.8716,-128.4843 454.5358,-128.4843 462.942,-128.4843"/>
<polygon fill="#191970" stroke="#191970" points="437.0887,-124.9844 427.0886,-128.4843 437.0886,-131.9844 437.0887,-124.9844"/>
</g>
<!-- Node19&#45;&gt;Node3 -->
<g id="edge21" class="edge">
<title>Node19&#45;&gt;Node3</title>
<path fill="none" stroke="#191970" d="M596.9232,-144.9135C624.0945,-151.1201 654.1821,-157.9929 678.0374,-163.4421"/>
<polygon fill="#191970" stroke="#191970" points="597.59,-141.4757 587.0616,-142.6608 596.0311,-148.2999 597.59,-141.4757"/>
</g>
<!-- Node19&#45;&gt;Node20 -->
<g id="edge22" class="edge">
<title>Node19&#45;&gt;Node20</title>
<path fill="none" stroke="#191970" d="M596.9232,-112.0551C624.0945,-105.8485 654.1821,-98.9757 678.0374,-93.5265"/>
<polygon fill="#191970" stroke="#191970" points="596.0311,-108.6687 587.0616,-114.3078 597.59,-115.4929 596.0311,-108.6687"/>
</g>
<!-- Node20&#45;&gt;Node5 -->
<g id="edge23" class="edge">
<title>Node20&#45;&gt;Node5</title>
<path fill="none" stroke="#191970" d="M745.7191,-67.9745C771.7686,-51.9457 815.4401,-27.9684 857,-18.4843 928.4953,-2.1688 955.3542,12.1116 1022,-18.4843 1081.2343,-45.6777 1123.0459,-116.1551 1139.6085,-148.198"/>
<polygon fill="#191970" stroke="#191970" points="743.5624,-65.1959 736.9558,-73.4787 747.2856,-71.1237 743.5624,-65.1959"/>
</g>
</g>
</svg>
