<?xml version="1.0" encoding="UTF-8" standalone="no"?>
<!DOCTYPE svg PUBLIC "-//W3C//DTD SVG 1.1//EN"
 "http://www.w3.org/Graphics/SVG/1.1/DTD/svg11.dtd">
<!-- Generated by graphviz version 2.40.1 (20161225.0304)
 -->
<!-- Title: GenFit/blob/master/test/vertexingTest/read.cc Pages: 1 -->
<svg width="1616pt" height="452pt"
 viewBox="0.00 0.00 1615.50 452.00" xmlns="http://www.w3.org/2000/svg" xmlns:xlink="http://www.w3.org/1999/xlink">
<g id="graph0" class="graph" transform="scale(1 1) rotate(0) translate(4 448)">
<title>GenFit/blob/master/test/vertexingTest/read.cc</title>
<!-- Node1 -->
<g id="node1" class="node">
<title>Node1</title>
<polygon fill="#bfbfbf" stroke="#000000" points="1014.5,-399.5 1014.5,-443.5 1127.5,-443.5 1127.5,-399.5 1014.5,-399.5"/>
<text text-anchor="start" x="1022.5" y="-430.5" font-family="FreeSans" font-size="10.00" fill="#000000">GenFit/blob/master</text>
<text text-anchor="start" x="1022.5" y="-418.5" font-family="FreeSans" font-size="10.00" fill="#000000">/test/vertexingTest</text>
<text text-anchor="middle" x="1071" y="-406.5" font-family="FreeSans" font-size="10.00" fill="#000000">/read.cc</text>
</g>
<!-- Node2 -->
<g id="node2" class="node">
<title>Node2</title>
<polygon fill="none" stroke="#bfbfbf" points="194.5,-228.5 194.5,-248.5 247.5,-248.5 247.5,-228.5 194.5,-228.5"/>
<text text-anchor="middle" x="221" y="-235.5" font-family="FreeSans" font-size="10.00" fill="#000000">Track.h</text>
</g>
<!-- Node1&#45;&gt;Node2 -->
<g id="edge1" class="edge">
<title>Node1&#45;&gt;Node2</title>
<path fill="none" stroke="#191970" d="M1014.4134,-419.8047C875.799,-415.1217 522.4772,-399.8347 411,-363 340.877,-339.8297 271.6755,-283.9377 239.5703,-255.5947"/>
<polygon fill="#191970" stroke="#191970" points="241.6604,-252.7679 231.8779,-248.6994 236.9881,-257.9804 241.6604,-252.7679"/>
</g>
<!-- Node3 -->
<g id="node3" class="node">
<title>Node3</title>
<g id="a_node3"><a xlink:href="../../da/d21/GFRaveVertex_8h.html" target="_top" xlink:title="GFRaveVertex.h">
<polygon fill="none" stroke="#000000" points="419.5,-342.5 419.5,-362.5 516.5,-362.5 516.5,-342.5 419.5,-342.5"/>
<text text-anchor="middle" x="468" y="-349.5" font-family="FreeSans" font-size="10.00" fill="#000000">GFRaveVertex.h</text>
</a>
</g>
</g>
<!-- Node1&#45;&gt;Node3 -->
<g id="edge2" class="edge">
<title>Node1&#45;&gt;Node3</title>
<path fill="none" stroke="#191970" d="M1014.2712,-415.0086C900.0078,-401.9337 643.1721,-372.5446 527.026,-359.2542"/>
<polygon fill="#191970" stroke="#191970" points="527.2351,-355.7554 516.902,-358.0957 526.4392,-362.71 527.2351,-355.7554"/>
</g>
<!-- Node10 -->
<g id="node10" class="node">
<title>Node10</title>
<polygon fill="none" stroke="#bfbfbf" points="588.5,-57.5 588.5,-77.5 659.5,-77.5 659.5,-57.5 588.5,-57.5"/>
<text text-anchor="middle" x="624" y="-64.5" font-family="FreeSans" font-size="10.00" fill="#000000">TVector3.h</text>
</g>
<!-- Node1&#45;&gt;Node10 -->
<g id="edge35" class="edge">
<title>Node1&#45;&gt;Node10</title>
<path fill="none" stroke="#191970" d="M1014.2067,-417.0521C939.3985,-410.0525 813.4025,-393.9558 780,-363 757.1412,-341.8155 761,-326.6658 761,-295.5 761,-295.5 761,-295.5 761,-181.5 761,-130.6538 704.5513,-98.1119 664.1226,-81.3257"/>
<polygon fill="#191970" stroke="#191970" points="665.3308,-78.0396 654.7455,-77.591 662.7407,-84.5428 665.3308,-78.0396"/>
</g>
<!-- Node20 -->
<g id="node20" class="node">
<title>Node20</title>
<polygon fill="none" stroke="#bfbfbf" points="673,-228.5 673,-248.5 733,-248.5 733,-228.5 673,-228.5"/>
<text text-anchor="middle" x="703" y="-235.5" font-family="FreeSans" font-size="10.00" fill="#000000">iostream</text>
</g>
<!-- Node1&#45;&gt;Node20 -->
<g id="edge41" class="edge">
<title>Node1&#45;&gt;Node20</title>
<path fill="none" stroke="#191970" d="M1014.3521,-418.0344C932.4553,-411.9249 786.4569,-396.5631 747,-363 715.9984,-336.6292 706.8346,-286.956 704.1295,-258.9846"/>
<polygon fill="#191970" stroke="#191970" points="707.6007,-258.4766 703.339,-248.7767 700.6216,-259.0171 707.6007,-258.4766"/>
</g>
<!-- Node21 -->
<g id="node21" class="node">
<title>Node21</title>
<polygon fill="none" stroke="#bfbfbf" points="789,-342.5 789,-362.5 891,-362.5 891,-342.5 789,-342.5"/>
<text text-anchor="middle" x="840" y="-349.5" font-family="FreeSans" font-size="10.00" fill="#000000">TDatabasePDG.h</text>
</g>
<!-- Node1&#45;&gt;Node21 -->
<g id="edge31" class="edge">
<title>Node1&#45;&gt;Node21</title>
<path fill="none" stroke="#191970" d="M1014.491,-404.6207C974.2013,-392.5861 920.8205,-376.6412 883.7578,-365.5705"/>
<polygon fill="#191970" stroke="#191970" points="884.3448,-362.0931 873.7613,-362.5846 882.3413,-368.8003 884.3448,-362.0931"/>
</g>
<!-- Node22 -->
<g id="node22" class="node">
<title>Node22</title>
<polygon fill="none" stroke="#bfbfbf" points="909.5,-342.5 909.5,-362.5 1004.5,-362.5 1004.5,-342.5 909.5,-342.5"/>
<text text-anchor="middle" x="957" y="-349.5" font-family="FreeSans" font-size="10.00" fill="#000000">TEveManager.h</text>
</g>
<!-- Node1&#45;&gt;Node22 -->
<g id="edge32" class="edge">
<title>Node1&#45;&gt;Node22</title>
<path fill="none" stroke="#191970" d="M1034.6163,-399.4783C1017.6721,-389.2226 997.919,-377.2667 982.5805,-367.9829"/>
<polygon fill="#191970" stroke="#191970" points="984.0326,-364.7707 973.6652,-362.5869 980.4079,-370.7592 984.0326,-364.7707"/>
</g>
<!-- Node23 -->
<g id="node23" class="node">
<title>Node23</title>
<polygon fill="none" stroke="#bfbfbf" points="1023,-342.5 1023,-362.5 1119,-362.5 1119,-342.5 1023,-342.5"/>
<text text-anchor="middle" x="1071" y="-349.5" font-family="FreeSans" font-size="10.00" fill="#000000">TGeoManager.h</text>
</g>
<!-- Node1&#45;&gt;Node23 -->
<g id="edge33" class="edge">
<title>Node1&#45;&gt;Node23</title>
<path fill="none" stroke="#191970" d="M1071,-399.2882C1071,-390.8377 1071,-381.2557 1071,-372.9736"/>
<polygon fill="#191970" stroke="#191970" points="1074.5001,-372.7136 1071,-362.7137 1067.5001,-372.7137 1074.5001,-372.7136"/>
</g>
<!-- Node24 -->
<g id="node24" class="node">
<title>Node24</title>
<polygon fill="none" stroke="#bfbfbf" points="1137.5,-342.5 1137.5,-362.5 1212.5,-362.5 1212.5,-342.5 1137.5,-342.5"/>
<text text-anchor="middle" x="1175" y="-349.5" font-family="FreeSans" font-size="10.00" fill="#000000">TRandom.h</text>
</g>
<!-- Node1&#45;&gt;Node24 -->
<g id="edge34" class="edge">
<title>Node1&#45;&gt;Node24</title>
<path fill="none" stroke="#191970" d="M1104.1922,-399.4783C1119.5042,-389.3194 1137.3306,-377.4922 1151.2663,-368.2464"/>
<polygon fill="#191970" stroke="#191970" points="1153.3988,-371.0319 1159.7966,-362.5869 1149.5288,-365.1989 1153.3988,-371.0319"/>
</g>
<!-- Node25 -->
<g id="node25" class="node">
<title>Node25</title>
<polygon fill="none" stroke="#bfbfbf" points="1230.5,-342.5 1230.5,-362.5 1279.5,-362.5 1279.5,-342.5 1230.5,-342.5"/>
<text text-anchor="middle" x="1255" y="-349.5" font-family="FreeSans" font-size="10.00" fill="#000000">vector</text>
</g>
<!-- Node1&#45;&gt;Node25 -->
<g id="edge36" class="edge">
<title>Node1&#45;&gt;Node25</title>
<path fill="none" stroke="#191970" d="M1127.7074,-400.2347C1158.2312,-388.7883 1194.8642,-375.0509 1220.9782,-365.2582"/>
<polygon fill="#191970" stroke="#191970" points="1222.3026,-368.4996 1230.4369,-361.7112 1219.8446,-361.9453 1222.3026,-368.4996"/>
</g>
<!-- Node26 -->
<g id="node26" class="node">
<title>Node26</title>
<polygon fill="none" stroke="#bfbfbf" points="1298,-342.5 1298,-362.5 1358,-362.5 1358,-342.5 1298,-342.5"/>
<text text-anchor="middle" x="1328" y="-349.5" font-family="FreeSans" font-size="10.00" fill="#000000">TROOT.h</text>
</g>
<!-- Node1&#45;&gt;Node26 -->
<g id="edge37" class="edge">
<title>Node1&#45;&gt;Node26</title>
<path fill="none" stroke="#191970" d="M1127.9202,-406.2393C1169.5897,-395.0642 1227.786,-379.4505 1287.7402,-363.3373"/>
<polygon fill="#191970" stroke="#191970" points="1289.0183,-366.6181 1297.767,-360.6423 1287.2012,-359.858 1289.0183,-366.6181"/>
</g>
<!-- Node27 -->
<g id="node27" class="node">
<title>Node27</title>
<polygon fill="none" stroke="#bfbfbf" points="1376,-342.5 1376,-362.5 1468,-362.5 1468,-342.5 1376,-342.5"/>
<text text-anchor="middle" x="1422" y="-349.5" font-family="FreeSans" font-size="10.00" fill="#000000">TClonesArray.h</text>
</g>
<!-- Node1&#45;&gt;Node27 -->
<g id="edge38" class="edge">
<title>Node1&#45;&gt;Node27</title>
<path fill="none" stroke="#191970" d="M1127.7843,-410.3373C1193.3495,-397.4484 1300.5299,-376.3787 1365.8327,-363.5414"/>
<polygon fill="#191970" stroke="#191970" points="1366.8039,-366.9176 1375.941,-361.5543 1365.4537,-360.049 1366.8039,-366.9176"/>
</g>
<!-- Node28 -->
<g id="node28" class="node">
<title>Node28</title>
<polygon fill="none" stroke="#bfbfbf" points="1486,-342.5 1486,-362.5 1536,-362.5 1536,-342.5 1486,-342.5"/>
<text text-anchor="middle" x="1511" y="-349.5" font-family="FreeSans" font-size="10.00" fill="#000000">TFile.h</text>
</g>
<!-- Node1&#45;&gt;Node28 -->
<g id="edge39" class="edge">
<title>Node1&#45;&gt;Node28</title>
<path fill="none" stroke="#191970" d="M1127.6607,-416.1646C1204.5968,-408.2969 1346.4184,-391.5855 1475.7833,-363.0002"/>
<polygon fill="#191970" stroke="#191970" points="1476.8739,-366.3427 1485.8673,-360.7418 1475.3441,-359.5119 1476.8739,-366.3427"/>
</g>
<!-- Node29 -->
<g id="node29" class="node">
<title>Node29</title>
<polygon fill="none" stroke="#bfbfbf" points="1554.5,-342.5 1554.5,-362.5 1607.5,-362.5 1607.5,-342.5 1554.5,-342.5"/>
<text text-anchor="middle" x="1581" y="-349.5" font-family="FreeSans" font-size="10.00" fill="#000000">TTree.h</text>
</g>
<!-- Node1&#45;&gt;Node29 -->
<g id="edge40" class="edge">
<title>Node1&#45;&gt;Node29</title>
<path fill="none" stroke="#191970" d="M1127.6618,-417.4731C1215.1348,-410.6073 1388.3355,-394.4337 1544.147,-362.882"/>
<polygon fill="#191970" stroke="#191970" points="1545.2914,-366.2202 1554.3838,-360.7815 1543.8843,-359.3631 1545.2914,-366.2202"/>
</g>
<!-- Node3&#45;&gt;Node2 -->
<g id="edge21" class="edge">
<title>Node3&#45;&gt;Node2</title>
<path fill="none" stroke="#191970" d="M446.0804,-342.3833C402.0459,-322.0596 302.7304,-276.2217 252.038,-252.8252"/>
<polygon fill="#191970" stroke="#191970" points="253.4168,-249.6068 242.8705,-248.5941 250.4834,-255.9626 253.4168,-249.6068"/>
</g>
<!-- Node4 -->
<g id="node4" class="node">
<title>Node4</title>
<g id="a_node4"><a xlink:href="../../d4/d66/AbsTrackRep_8h.html" target="_top" xlink:title="AbsTrackRep.h">
<polygon fill="none" stroke="#000000" points="370.5,-228.5 370.5,-248.5 461.5,-248.5 461.5,-228.5 370.5,-228.5"/>
<text text-anchor="middle" x="416" y="-235.5" font-family="FreeSans" font-size="10.00" fill="#000000">AbsTrackRep.h</text>
</a>
</g>
</g>
<!-- Node3&#45;&gt;Node4 -->
<g id="edge3" class="edge">
<title>Node3&#45;&gt;Node4</title>
<path fill="none" stroke="#191970" d="M459.2984,-342.4343C451.9051,-333.4239 441.4877,-319.5764 435,-306 427.7931,-290.9188 422.8515,-272.5988 419.8183,-258.852"/>
<polygon fill="#191970" stroke="#191970" points="423.2267,-258.0494 417.7881,-248.9569 416.3695,-259.4564 423.2267,-258.0494"/>
</g>
<!-- Node18 -->
<g id="node18" class="node">
<title>Node18</title>
<g id="a_node18"><a xlink:href="../../da/da2/GFRaveTrackParameters_8h.html" target="_top" xlink:title="GFRaveTrackParameters.h">
<polygon fill="none" stroke="#000000" points="444,-285.5 444,-305.5 592,-305.5 592,-285.5 444,-285.5"/>
<text text-anchor="middle" x="518" y="-292.5" font-family="FreeSans" font-size="10.00" fill="#000000">GFRaveTrackParameters.h</text>
</a>
</g>
</g>
<!-- Node3&#45;&gt;Node18 -->
<g id="edge22" class="edge">
<title>Node3&#45;&gt;Node18</title>
<path fill="none" stroke="#191970" d="M476.939,-342.3095C483.978,-334.2851 493.9629,-322.9022 502.3238,-313.3708"/>
<polygon fill="#191970" stroke="#191970" points="505.1751,-315.4279 509.1384,-305.6022 499.9128,-310.8118 505.1751,-315.4279"/>
</g>
<!-- Node5 -->
<g id="node5" class="node">
<title>Node5</title>
<g id="a_node5"><a xlink:href="../../db/d4f/SharedPlanePtr_8h.html" target="_top" xlink:title="SharedPlanePtr.h">
<polygon fill="none" stroke="#000000" points="352,-171.5 352,-191.5 454,-191.5 454,-171.5 352,-171.5"/>
<text text-anchor="middle" x="403" y="-178.5" font-family="FreeSans" font-size="10.00" fill="#000000">SharedPlanePtr.h</text>
</a>
</g>
</g>
<!-- Node4&#45;&gt;Node5 -->
<g id="edge4" class="edge">
<title>Node4&#45;&gt;Node5</title>
<path fill="none" stroke="#191970" d="M413.6759,-228.3095C411.9751,-220.8524 409.6129,-210.4951 407.5428,-201.4186"/>
<polygon fill="#191970" stroke="#191970" points="410.9401,-200.5736 405.304,-191.6022 404.1153,-202.1302 410.9401,-200.5736"/>
</g>
<!-- Node9 -->
<g id="node9" class="node">
<title>Node9</title>
<polygon fill="none" stroke="#bfbfbf" points="177.5,-57.5 177.5,-77.5 242.5,-77.5 242.5,-57.5 177.5,-57.5"/>
<text text-anchor="middle" x="210" y="-64.5" font-family="FreeSans" font-size="10.00" fill="#000000">TObject.h</text>
</g>
<!-- Node4&#45;&gt;Node9 -->
<g id="edge17" class="edge">
<title>Node4&#45;&gt;Node9</title>
<path fill="none" stroke="#191970" d="M370.4481,-230.3801C328.3835,-222.0384 269.9352,-208.0339 253,-192 223.5186,-164.0876 214.2474,-115.011 211.3337,-87.5502"/>
<polygon fill="#191970" stroke="#191970" points="214.8163,-87.1981 210.4552,-77.5425 207.8432,-87.8103 214.8163,-87.1981"/>
</g>
<!-- Node4&#45;&gt;Node10 -->
<g id="edge16" class="edge">
<title>Node4&#45;&gt;Node10</title>
<path fill="none" stroke="#191970" d="M428.3884,-228.3153C463.071,-199.8022 561.3764,-118.9838 603.9419,-83.99"/>
<polygon fill="#191970" stroke="#191970" points="606.1745,-86.6856 611.6765,-77.6314 601.7291,-81.2783 606.1745,-86.6856"/>
</g>
<!-- Node12 -->
<g id="node12" class="node">
<title>Node12</title>
<g id="a_node12"><a xlink:href="../../df/d12/Material_8h.html" target="_top" xlink:title="Material.h">
<polygon fill="none" stroke="#000000" points="102,-171.5 102,-191.5 168,-191.5 168,-171.5 102,-171.5"/>
<text text-anchor="middle" x="135" y="-178.5" font-family="FreeSans" font-size="10.00" fill="#000000">Material.h</text>
</a>
</g>
</g>
<!-- Node4&#45;&gt;Node12 -->
<g id="edge12" class="edge">
<title>Node4&#45;&gt;Node12</title>
<path fill="none" stroke="#191970" d="M370.2271,-229.2151C317.1569,-218.45 230.3354,-200.8385 178.3285,-190.2891"/>
<polygon fill="#191970" stroke="#191970" points="178.9079,-186.8354 168.4117,-188.2775 177.5162,-193.6957 178.9079,-186.8354"/>
</g>
<!-- Node15 -->
<g id="node15" class="node">
<title>Node15</title>
<polygon fill="none" stroke="#bfbfbf" points="510,-171.5 510,-191.5 582,-191.5 582,-171.5 510,-171.5"/>
<text text-anchor="middle" x="546" y="-178.5" font-family="FreeSans" font-size="10.00" fill="#000000">TVectorD.h</text>
</g>
<!-- Node4&#45;&gt;Node15 -->
<g id="edge18" class="edge">
<title>Node4&#45;&gt;Node15</title>
<path fill="none" stroke="#191970" d="M438.9421,-228.4408C459.6069,-219.3801 490.2105,-205.9615 513.4108,-195.7891"/>
<polygon fill="#191970" stroke="#191970" points="515.0971,-198.8715 522.8499,-191.6504 512.2861,-192.4606 515.0971,-198.8715"/>
</g>
<!-- Node16 -->
<g id="node16" class="node">
<title>Node16</title>
<polygon fill="none" stroke="#bfbfbf" points="262,-171.5 262,-191.5 334,-191.5 334,-171.5 262,-171.5"/>
<text text-anchor="middle" x="298" y="-178.5" font-family="FreeSans" font-size="10.00" fill="#000000">TMatrixD.h</text>
</g>
<!-- Node4&#45;&gt;Node16 -->
<g id="edge19" class="edge">
<title>Node4&#45;&gt;Node16</title>
<path fill="none" stroke="#191970" d="M395.1756,-228.4408C376.5859,-219.461 349.135,-206.2008 328.1466,-196.0624"/>
<polygon fill="#191970" stroke="#191970" points="329.54,-192.8485 319.0131,-191.6504 326.4952,-199.1517 329.54,-192.8485"/>
</g>
<!-- Node17 -->
<g id="node17" class="node">
<title>Node17</title>
<polygon fill="none" stroke="#bfbfbf" points="600,-171.5 600,-191.5 694,-191.5 694,-171.5 600,-171.5"/>
<text text-anchor="middle" x="647" y="-178.5" font-family="FreeSans" font-size="10.00" fill="#000000">TMatrixDSym.h</text>
</g>
<!-- Node4&#45;&gt;Node17 -->
<g id="edge20" class="edge">
<title>Node4&#45;&gt;Node17</title>
<path fill="none" stroke="#191970" d="M456.7664,-228.4408C495.737,-218.8246 554.5999,-204.3 596.5175,-193.9567"/>
<polygon fill="#191970" stroke="#191970" points="597.383,-197.3482 606.2533,-191.5544 595.706,-190.5521 597.383,-197.3482"/>
</g>
<!-- Node6 -->
<g id="node6" class="node">
<title>Node6</title>
<g id="a_node6"><a xlink:href="../../dc/d81/DetPlane_8h.html" target="_top" xlink:title="DetPlane.h">
<polygon fill="none" stroke="#000000" points="323.5,-114.5 323.5,-134.5 394.5,-134.5 394.5,-114.5 323.5,-114.5"/>
<text text-anchor="middle" x="359" y="-121.5" font-family="FreeSans" font-size="10.00" fill="#000000">DetPlane.h</text>
</a>
</g>
</g>
<!-- Node5&#45;&gt;Node6 -->
<g id="edge5" class="edge">
<title>Node5&#45;&gt;Node6</title>
<path fill="none" stroke="#191970" d="M395.1337,-171.3095C389.0019,-163.3661 380.3299,-152.1319 373.0184,-142.6602"/>
<polygon fill="#191970" stroke="#191970" points="375.6793,-140.3795 366.7982,-134.6022 370.1382,-144.6569 375.6793,-140.3795"/>
</g>
<!-- Node11 -->
<g id="node11" class="node">
<title>Node11</title>
<polygon fill="none" stroke="#bfbfbf" points="394,-57.5 394,-77.5 452,-77.5 452,-57.5 394,-57.5"/>
<text text-anchor="middle" x="423" y="-64.5" font-family="FreeSans" font-size="10.00" fill="#000000">memory</text>
</g>
<!-- Node5&#45;&gt;Node11 -->
<g id="edge11" class="edge">
<title>Node5&#45;&gt;Node11</title>
<path fill="none" stroke="#191970" d="M404.7749,-171.3833C408.0579,-152.6703 415.1357,-112.3266 419.441,-87.7866"/>
<polygon fill="#191970" stroke="#191970" points="422.9196,-88.2123 421.2004,-77.7579 416.0249,-87.0027 422.9196,-88.2123"/>
</g>
<!-- Node7 -->
<g id="node7" class="node">
<title>Node7</title>
<g id="a_node7"><a xlink:href="../../d1/dd1/AbsFinitePlane_8h.html" target="_top" xlink:title="AbsFinitePlane.h">
<polygon fill="none" stroke="#000000" points="276,-57.5 276,-77.5 376,-77.5 376,-57.5 276,-57.5"/>
<text text-anchor="middle" x="326" y="-64.5" font-family="FreeSans" font-size="10.00" fill="#000000">AbsFinitePlane.h</text>
</a>
</g>
</g>
<!-- Node6&#45;&gt;Node7 -->
<g id="edge6" class="edge">
<title>Node6&#45;&gt;Node7</title>
<path fill="none" stroke="#191970" d="M353.1003,-114.3095C348.6422,-106.6093 342.3938,-95.8166 337.0202,-86.5349"/>
<polygon fill="#191970" stroke="#191970" points="339.8881,-84.5029 331.8487,-77.6022 333.8301,-88.0102 339.8881,-84.5029"/>
</g>
<!-- Node6&#45;&gt;Node9 -->
<g id="edge8" class="edge">
<title>Node6&#45;&gt;Node9</title>
<path fill="none" stroke="#191970" d="M332.7048,-114.4408C308.5225,-105.1898 272.4652,-91.3961 245.6885,-81.1527"/>
<polygon fill="#191970" stroke="#191970" points="246.873,-77.8585 236.2825,-77.5544 244.3719,-84.3964 246.873,-77.8585"/>
</g>
<!-- Node6&#45;&gt;Node10 -->
<g id="edge9" class="edge">
<title>Node6&#45;&gt;Node10</title>
<path fill="none" stroke="#191970" d="M394.7391,-116.8127C442.2875,-106.5853 526.3895,-88.4955 578.4421,-77.2993"/>
<polygon fill="#191970" stroke="#191970" points="579.3646,-80.681 588.405,-75.1563 577.8925,-73.8375 579.3646,-80.681"/>
</g>
<!-- Node6&#45;&gt;Node11 -->
<g id="edge10" class="edge">
<title>Node6&#45;&gt;Node11</title>
<path fill="none" stroke="#191970" d="M370.4419,-114.3095C379.7249,-106.0419 393.0106,-94.2093 403.9015,-84.5096"/>
<polygon fill="#191970" stroke="#191970" points="406.5173,-86.8668 411.6571,-77.6022 401.8616,-81.6395 406.5173,-86.8668"/>
</g>
<!-- Node8 -->
<g id="node8" class="node">
<title>Node8</title>
<polygon fill="none" stroke="#bfbfbf" points="296,-.5 296,-20.5 356,-20.5 356,-.5 296,-.5"/>
<text text-anchor="middle" x="326" y="-7.5" font-family="FreeSans" font-size="10.00" fill="#000000">Rtypes.h</text>
</g>
<!-- Node7&#45;&gt;Node8 -->
<g id="edge7" class="edge">
<title>Node7&#45;&gt;Node8</title>
<path fill="none" stroke="#191970" d="M326,-57.3095C326,-49.9335 326,-39.72 326,-30.715"/>
<polygon fill="#191970" stroke="#191970" points="329.5001,-30.6022 326,-20.6022 322.5001,-30.6023 329.5001,-30.6022"/>
</g>
<!-- Node12&#45;&gt;Node9 -->
<g id="edge15" class="edge">
<title>Node12&#45;&gt;Node9</title>
<path fill="none" stroke="#191970" d="M141.6557,-171.3833C154.2442,-152.2488 181.7116,-110.4984 197.7283,-86.1529"/>
<polygon fill="#191970" stroke="#191970" points="200.6791,-88.0358 203.2514,-77.7579 194.8312,-84.1885 200.6791,-88.0358"/>
</g>
<!-- Node13 -->
<g id="node13" class="node">
<title>Node13</title>
<g id="a_node13"><a xlink:href="../../d7/d83/EigenMatrixTypedefs_8h.html" target="_top" xlink:title="EigenMatrixTypedefs.h">
<polygon fill="none" stroke="#000000" points="0,-114.5 0,-134.5 130,-134.5 130,-114.5 0,-114.5"/>
<text text-anchor="middle" x="65" y="-121.5" font-family="FreeSans" font-size="10.00" fill="#000000">EigenMatrixTypedefs.h</text>
</a>
</g>
</g>
<!-- Node12&#45;&gt;Node13 -->
<g id="edge13" class="edge">
<title>Node12&#45;&gt;Node13</title>
<path fill="none" stroke="#191970" d="M122.4854,-171.3095C112.1331,-162.8798 97.2294,-150.7439 85.1913,-140.9415"/>
<polygon fill="#191970" stroke="#191970" points="87.3706,-138.2025 77.4063,-134.6022 82.9506,-143.6306 87.3706,-138.2025"/>
</g>
<!-- Node14 -->
<g id="node14" class="node">
<title>Node14</title>
<polygon fill="none" stroke="#bfbfbf" points="25,-57.5 25,-77.5 105,-77.5 105,-57.5 25,-57.5"/>
<text text-anchor="middle" x="65" y="-64.5" font-family="FreeSans" font-size="10.00" fill="#000000">Eigen/Dense</text>
</g>
<!-- Node13&#45;&gt;Node14 -->
<g id="edge14" class="edge">
<title>Node13&#45;&gt;Node14</title>
<path fill="none" stroke="#191970" d="M65,-114.3095C65,-106.9335 65,-96.72 65,-87.715"/>
<polygon fill="#191970" stroke="#191970" points="68.5001,-87.6022 65,-77.6022 61.5001,-87.6023 68.5001,-87.6022"/>
</g>
<!-- Node18&#45;&gt;Node2 -->
<g id="edge23" class="edge">
<title>Node18&#45;&gt;Node2</title>
<path fill="none" stroke="#191970" d="M455.9398,-285.4965C403.9432,-276.8117 327.8637,-263.3965 262,-249 260.5643,-248.6862 259.1028,-248.3573 257.6281,-248.0177"/>
<polygon fill="#191970" stroke="#191970" points="258.3823,-244.5994 247.8412,-245.6648 256.746,-251.4054 258.3823,-244.5994"/>
</g>
<!-- Node18&#45;&gt;Node4 -->
<g id="edge24" class="edge">
<title>Node18&#45;&gt;Node4</title>
<path fill="none" stroke="#191970" d="M499.7644,-285.3095C483.9544,-276.4745 460.8593,-263.5684 442.9218,-253.5445"/>
<polygon fill="#191970" stroke="#191970" points="444.5145,-250.4252 434.0777,-248.6022 441.0997,-256.5358 444.5145,-250.4252"/>
</g>
<!-- Node18&#45;&gt;Node9 -->
<g id="edge25" class="edge">
<title>Node18&#45;&gt;Node9</title>
<path fill="none" stroke="#191970" d="M443.9382,-286.979C379.958,-275.7961 289.3199,-250.1923 234,-192 207.2069,-163.8157 205.9635,-115.2422 207.7663,-87.8414"/>
<polygon fill="#191970" stroke="#191970" points="211.2575,-88.093 208.6261,-77.8302 204.2831,-87.494 211.2575,-88.093"/>
</g>
<!-- Node18&#45;&gt;Node10 -->
<g id="edge26" class="edge">
<title>Node18&#45;&gt;Node10</title>
<path fill="none" stroke="#191970" d="M527.4415,-285.4491C541.5523,-270.9465 569.542,-244.1272 598,-228 640.9204,-203.6769 674.3256,-232.1442 703,-192 729.7927,-154.4903 679.8065,-108.1502 647.7977,-83.961"/>
<polygon fill="#191970" stroke="#191970" points="649.4598,-80.8399 639.325,-77.7516 645.3219,-86.4859 649.4598,-80.8399"/>
</g>
<!-- Node18&#45;&gt;Node15 -->
<g id="edge27" class="edge">
<title>Node18&#45;&gt;Node15</title>
<path fill="none" stroke="#191970" d="M518.5495,-285.2787C519.4515,-271.918 521.7071,-247.8785 527,-228 529.4567,-218.7735 533.2872,-208.9338 536.8672,-200.693"/>
<polygon fill="#191970" stroke="#191970" points="540.0561,-202.1353 541.0004,-191.5826 533.6815,-199.2432 540.0561,-202.1353"/>
</g>
<!-- Node18&#45;&gt;Node17 -->
<g id="edge28" class="edge">
<title>Node18&#45;&gt;Node17</title>
<path fill="none" stroke="#191970" d="M523.1995,-285.2887C530.831,-271.0685 546.2161,-245.1241 565,-228 579.2222,-215.0345 597.6807,-204.1688 613.4827,-196.2095"/>
<polygon fill="#191970" stroke="#191970" points="615.4448,-199.148 622.9167,-191.6366 612.3915,-192.849 615.4448,-199.148"/>
</g>
<!-- Node19 -->
<g id="node19" class="node">
<title>Node19</title>
<polygon fill="none" stroke="#bfbfbf" points="607,-228.5 607,-248.5 655,-248.5 655,-228.5 607,-228.5"/>
<text text-anchor="middle" x="631" y="-235.5" font-family="FreeSans" font-size="10.00" fill="#000000">TRef.h</text>
</g>
<!-- Node18&#45;&gt;Node19 -->
<g id="edge29" class="edge">
<title>Node18&#45;&gt;Node19</title>
<path fill="none" stroke="#191970" d="M537.942,-285.4408C555.6639,-276.5014 581.7951,-263.3202 601.8588,-253.1996"/>
<polygon fill="#191970" stroke="#191970" points="603.5251,-256.2791 610.8772,-248.6504 600.3725,-250.0292 603.5251,-256.2791"/>
</g>
<!-- Node18&#45;&gt;Node20 -->
<g id="edge30" class="edge">
<title>Node18&#45;&gt;Node20</title>
<path fill="none" stroke="#191970" d="M550.6484,-285.4408C581.9522,-275.7958 629.2828,-261.2129 662.872,-250.8638"/>
<polygon fill="#191970" stroke="#191970" points="664.296,-254.0875 672.8221,-247.7981 662.2348,-247.3978 664.296,-254.0875"/>
</g>
</g>
</svg>
