<?xml version="1.0" encoding="UTF-8" standalone="no"?>
<!DOCTYPE svg PUBLIC "-//W3C//DTD SVG 1.1//EN"
 "http://www.w3.org/Graphics/SVG/1.1/DTD/svg11.dtd">
<!-- Generated by graphviz version 2.40.1 (20161225.0304)
 -->
<!-- Title: coresoftware/blob/master/offline/packages/trackbase/TrkrClusterContainer.h Pages: 1 -->
<svg width="6382pt" height="134pt"
 viewBox="0.00 0.00 6381.50 134.00" xmlns="http://www.w3.org/2000/svg" xmlns:xlink="http://www.w3.org/1999/xlink">
<g id="graph0" class="graph" transform="scale(1 1) rotate(0) translate(4 130)">
<title>coresoftware/blob/master/offline/packages/trackbase/TrkrClusterContainer.h</title>
<!-- Node1 -->
<g id="node1" class="node">
<title>Node1</title>
<polygon fill="#bfbfbf" stroke="#000000" points="2982.5,-81.5 2982.5,-125.5 3139.5,-125.5 3139.5,-81.5 2982.5,-81.5"/>
<text text-anchor="start" x="2990.5" y="-112.5" font-family="FreeSans" font-size="10.00" fill="#000000">coresoftware/blob/master</text>
<text text-anchor="start" x="2990.5" y="-100.5" font-family="FreeSans" font-size="10.00" fill="#000000">/offline/packages/trackbase</text>
<text text-anchor="middle" x="3061" y="-88.5" font-family="FreeSans" font-size="10.00" fill="#000000">/TrkrClusterContainer.h</text>
</g>
<!-- Node2 -->
<g id="node2" class="node">
<title>Node2</title>
<g id="a_node2"><a xlink:href="../../d2/da5/InttClusterizer_8cc.html" target="_top" xlink:title="coresoftware/blob/master\l/offline/packages/intt\l/InttClusterizer.cc">
<polygon fill="none" stroke="#000000" points="0,-.5 0,-44.5 146,-44.5 146,-.5 0,-.5"/>
<text text-anchor="start" x="8" y="-31.5" font-family="FreeSans" font-size="10.00" fill="#000000">coresoftware/blob/master</text>
<text text-anchor="start" x="8" y="-19.5" font-family="FreeSans" font-size="10.00" fill="#000000">/offline/packages/intt</text>
<text text-anchor="middle" x="73" y="-7.5" font-family="FreeSans" font-size="10.00" fill="#000000">/InttClusterizer.cc</text>
</a>
</g>
</g>
<!-- Node1&#45;&gt;Node2 -->
<g id="edge1" class="edge">
<title>Node1&#45;&gt;Node2</title>
<path fill="none" stroke="#191970" d="M2971.9944,-103.0199C2514.623,-100.3771 439.1275,-86.189 155,-45 152.0781,-44.5764 149.1122,-44.0817 146.1271,-43.5295"/>
<polygon fill="#191970" stroke="#191970" points="2972.1545,-106.5208 2982.1744,-103.0784 2972.1947,-99.5209 2972.1545,-106.5208"/>
</g>
<!-- Node3 -->
<g id="node3" class="node">
<title>Node3</title>
<g id="a_node3"><a xlink:href="../../df/db4/MvtxClusterizer_8cc.html" target="_top" xlink:title="Implementation of MvtxClusterizer.">
<polygon fill="none" stroke="#000000" points="164,-.5 164,-44.5 310,-44.5 310,-.5 164,-.5"/>
<text text-anchor="start" x="172" y="-31.5" font-family="FreeSans" font-size="10.00" fill="#000000">coresoftware/blob/master</text>
<text text-anchor="start" x="172" y="-19.5" font-family="FreeSans" font-size="10.00" fill="#000000">/offline/packages/mvtx</text>
<text text-anchor="middle" x="237" y="-7.5" font-family="FreeSans" font-size="10.00" fill="#000000">/MvtxClusterizer.cc</text>
</a>
</g>
</g>
<!-- Node1&#45;&gt;Node3 -->
<g id="edge2" class="edge">
<title>Node1&#45;&gt;Node3</title>
<path fill="none" stroke="#191970" d="M2972.0465,-102.9049C2530.6404,-99.7764 586.0605,-83.8789 319,-45 316.0783,-44.5747 313.1127,-44.0785 310.1278,-43.525"/>
<polygon fill="#191970" stroke="#191970" points="2972.1679,-106.4057 2982.1923,-102.9764 2972.2173,-99.4059 2972.1679,-106.4057"/>
</g>
<!-- Node4 -->
<g id="node4" class="node">
<title>Node4</title>
<g id="a_node4"><a xlink:href="../../dd/da0/DumpTrkrClusterContainer_8cc.html" target="_top" xlink:title="coresoftware/blob/master\l/offline/packages/NodeDump\l/DumpTrkrClusterContainer.cc">
<polygon fill="none" stroke="#000000" points="328,-.5 328,-44.5 496,-44.5 496,-.5 328,-.5"/>
<text text-anchor="start" x="336" y="-31.5" font-family="FreeSans" font-size="10.00" fill="#000000">coresoftware/blob/master</text>
<text text-anchor="start" x="336" y="-19.5" font-family="FreeSans" font-size="10.00" fill="#000000">/offline/packages/NodeDump</text>
<text text-anchor="middle" x="412" y="-7.5" font-family="FreeSans" font-size="10.00" fill="#000000">/DumpTrkrClusterContainer.cc</text>
</a>
</g>
</g>
<!-- Node1&#45;&gt;Node4 -->
<g id="edge3" class="edge">
<title>Node1&#45;&gt;Node4</title>
<path fill="none" stroke="#191970" d="M2972.3077,-102.5993C2550.0153,-98.1586 753.2978,-77.4943 505,-45 502.1175,-44.6228 499.1946,-44.192 496.2501,-43.7167"/>
<polygon fill="#191970" stroke="#191970" points="2972.2877,-106.0992 2982.3239,-102.7043 2972.3611,-99.0996 2972.2877,-106.0992"/>
</g>
<!-- Node5 -->
<g id="node5" class="node">
<title>Node5</title>
<g id="a_node5"><a xlink:href="../../d2/d8c/TpcClusterizer_8cc.html" target="_top" xlink:title="coresoftware/blob/master\l/offline/packages/tpc/TpcClusterizer.cc">
<polygon fill="none" stroke="#000000" points="514,-6.5 514,-38.5 726,-38.5 726,-6.5 514,-6.5"/>
<text text-anchor="start" x="522" y="-25.5" font-family="FreeSans" font-size="10.00" fill="#000000">coresoftware/blob/master</text>
<text text-anchor="middle" x="620" y="-13.5" font-family="FreeSans" font-size="10.00" fill="#000000">/offline/packages/tpc/TpcClusterizer.cc</text>
</a>
</g>
</g>
<!-- Node1&#45;&gt;Node5 -->
<g id="edge4" class="edge">
<title>Node1&#45;&gt;Node5</title>
<path fill="none" stroke="#191970" d="M2972.3171,-103.2635C2602.3695,-101.9691 1180.6791,-93.8528 735,-45 721.0463,-43.4705 706.2602,-41.1309 692.1039,-38.5291"/>
<polygon fill="#191970" stroke="#191970" points="2972.4196,-106.7638 2982.4316,-103.2981 2972.4437,-99.7638 2972.4196,-106.7638"/>
</g>
<!-- Node6 -->
<g id="node6" class="node">
<title>Node6</title>
<g id="a_node6"><a xlink:href="../../dd/da0/TrkrClusterContainer_8cc.html" target="_top" xlink:title="Implementation of TrkrClusterContainer.">
<polygon fill="none" stroke="#000000" points="744.5,-.5 744.5,-44.5 901.5,-44.5 901.5,-.5 744.5,-.5"/>
<text text-anchor="start" x="752.5" y="-31.5" font-family="FreeSans" font-size="10.00" fill="#000000">coresoftware/blob/master</text>
<text text-anchor="start" x="752.5" y="-19.5" font-family="FreeSans" font-size="10.00" fill="#000000">/offline/packages/trackbase</text>
<text text-anchor="middle" x="823" y="-7.5" font-family="FreeSans" font-size="10.00" fill="#000000">/TrkrClusterContainer.cc</text>
</a>
</g>
</g>
<!-- Node1&#45;&gt;Node6 -->
<g id="edge5" class="edge">
<title>Node1&#45;&gt;Node6</title>
<path fill="none" stroke="#191970" d="M2972.1975,-102.2537C2592.6897,-96.7683 1116.9689,-73.7653 911,-45 907.8765,-44.5638 904.7039,-44.0584 901.509,-43.4973"/>
<polygon fill="#191970" stroke="#191970" points="2972.2513,-105.7547 2982.3007,-102.3993 2972.3522,-98.7554 2972.2513,-105.7547"/>
</g>
<!-- Node7 -->
<g id="node7" class="node">
<title>Node7</title>
<g id="a_node7"><a xlink:href="../../df/d56/PH3DVertexing_8cc.html" target="_top" xlink:title="coresoftware/blob/master\l/offline/packages/trackreco\l/PH3DVertexing.cc">
<polygon fill="none" stroke="#000000" points="920,-.5 920,-44.5 1074,-44.5 1074,-.5 920,-.5"/>
<text text-anchor="start" x="928" y="-31.5" font-family="FreeSans" font-size="10.00" fill="#000000">coresoftware/blob/master</text>
<text text-anchor="start" x="928" y="-19.5" font-family="FreeSans" font-size="10.00" fill="#000000">/offline/packages/trackreco</text>
<text text-anchor="middle" x="997" y="-7.5" font-family="FreeSans" font-size="10.00" fill="#000000">/PH3DVertexing.cc</text>
</a>
</g>
</g>
<!-- Node1&#45;&gt;Node7 -->
<g id="edge6" class="edge">
<title>Node1&#45;&gt;Node7</title>
<path fill="none" stroke="#191970" d="M2972.2459,-102.058C2612.243,-96.0475 1271.1465,-72.0379 1083,-45 1080.0975,-44.5829 1077.1522,-44.1038 1074.1863,-43.5741"/>
<polygon fill="#191970" stroke="#191970" points="2972.2972,-105.5592 2982.3541,-102.2263 2972.4138,-98.5602 2972.2972,-105.5592"/>
</g>
<!-- Node8 -->
<g id="node8" class="node">
<title>Node8</title>
<g id="a_node8"><a xlink:href="../../d8/df7/PHCASeeding_8cc.html" target="_top" xlink:title="coresoftware/blob/master\l/offline/packages/trackreco\l/PHCASeeding.cc">
<polygon fill="none" stroke="#000000" points="1092,-.5 1092,-44.5 1246,-44.5 1246,-.5 1092,-.5"/>
<text text-anchor="start" x="1100" y="-31.5" font-family="FreeSans" font-size="10.00" fill="#000000">coresoftware/blob/master</text>
<text text-anchor="start" x="1100" y="-19.5" font-family="FreeSans" font-size="10.00" fill="#000000">/offline/packages/trackreco</text>
<text text-anchor="middle" x="1169" y="-7.5" font-family="FreeSans" font-size="10.00" fill="#000000">/PHCASeeding.cc</text>
</a>
</g>
</g>
<!-- Node1&#45;&gt;Node8 -->
<g id="edge7" class="edge">
<title>Node1&#45;&gt;Node8</title>
<path fill="none" stroke="#191970" d="M2971.9018,-103.2463C2656.2286,-101.9369 1591.9917,-93.912 1255,-45 1252.0981,-44.5788 1249.1533,-44.0962 1246.1878,-43.5636"/>
<polygon fill="#191970" stroke="#191970" points="2972.3522,-106.7481 2982.3662,-103.2884 2972.3804,-99.7481 2972.3522,-106.7481"/>
</g>
<!-- Node9 -->
<g id="node9" class="node">
<title>Node9</title>
<g id="a_node9"><a xlink:href="../../d0/d52/PHGenFitTrkFitter_8cc.html" target="_top" xlink:title="coresoftware/blob/master\l/offline/packages/trackreco\l/PHGenFitTrkFitter.cc">
<polygon fill="none" stroke="#000000" points="1264,-.5 1264,-44.5 1418,-44.5 1418,-.5 1264,-.5"/>
<text text-anchor="start" x="1272" y="-31.5" font-family="FreeSans" font-size="10.00" fill="#000000">coresoftware/blob/master</text>
<text text-anchor="start" x="1272" y="-19.5" font-family="FreeSans" font-size="10.00" fill="#000000">/offline/packages/trackreco</text>
<text text-anchor="middle" x="1341" y="-7.5" font-family="FreeSans" font-size="10.00" fill="#000000">/PHGenFitTrkFitter.cc</text>
</a>
</g>
</g>
<!-- Node1&#45;&gt;Node9 -->
<g id="edge8" class="edge">
<title>Node1&#45;&gt;Node9</title>
<path fill="none" stroke="#191970" d="M2972.2288,-102.894C2676.8863,-100.4744 1729.0175,-89.361 1427,-45 1424.0988,-44.5739 1421.1546,-44.0871 1418.1896,-43.5509"/>
<polygon fill="#191970" stroke="#191970" points="2972.4297,-106.3956 2982.4576,-102.9764 2972.4862,-99.3958 2972.4297,-106.3956"/>
</g>
<!-- Node10 -->
<g id="node10" class="node">
<title>Node10</title>
<g id="a_node10"><a xlink:href="../../da/d80/PHGenFitTrkProp_8cc.html" target="_top" xlink:title="coresoftware/blob/master\l/offline/packages/trackreco\l/PHGenFitTrkProp.cc">
<polygon fill="none" stroke="#000000" points="1436,-.5 1436,-44.5 1590,-44.5 1590,-.5 1436,-.5"/>
<text text-anchor="start" x="1444" y="-31.5" font-family="FreeSans" font-size="10.00" fill="#000000">coresoftware/blob/master</text>
<text text-anchor="start" x="1444" y="-19.5" font-family="FreeSans" font-size="10.00" fill="#000000">/offline/packages/trackreco</text>
<text text-anchor="middle" x="1513" y="-7.5" font-family="FreeSans" font-size="10.00" fill="#000000">/PHGenFitTrkProp.cc</text>
</a>
</g>
</g>
<!-- Node1&#45;&gt;Node10 -->
<g id="edge9" class="edge">
<title>Node1&#45;&gt;Node10</title>
<path fill="none" stroke="#191970" d="M2971.8975,-102.4537C2697.2185,-98.8309 1865.9725,-84.7872 1599,-45 1596.0997,-44.5678 1593.1563,-44.0758 1590.192,-43.5352"/>
<polygon fill="#191970" stroke="#191970" points="2972.1701,-105.9575 2982.2149,-102.5883 2972.2615,-98.9581 2972.1701,-105.9575"/>
</g>
<!-- Node11 -->
<g id="node11" class="node">
<title>Node11</title>
<g id="a_node11"><a xlink:href="../../d8/dbe/PHHoughSeeding_8cc.html" target="_top" xlink:title="coresoftware/blob/master\l/offline/packages/trackreco\l/PHHoughSeeding.cc">
<polygon fill="none" stroke="#000000" points="1608,-.5 1608,-44.5 1762,-44.5 1762,-.5 1608,-.5"/>
<text text-anchor="start" x="1616" y="-31.5" font-family="FreeSans" font-size="10.00" fill="#000000">coresoftware/blob/master</text>
<text text-anchor="start" x="1616" y="-19.5" font-family="FreeSans" font-size="10.00" fill="#000000">/offline/packages/trackreco</text>
<text text-anchor="middle" x="1685" y="-7.5" font-family="FreeSans" font-size="10.00" fill="#000000">/PHHoughSeeding.cc</text>
</a>
</g>
</g>
<!-- Node1&#45;&gt;Node11 -->
<g id="edge10" class="edge">
<title>Node1&#45;&gt;Node11</title>
<path fill="none" stroke="#191970" d="M2972.1009,-101.905C2719.9226,-96.9932 2003.2842,-80.2501 1771,-45 1768.1009,-44.5601 1765.1584,-44.0615 1762.195,-43.5154"/>
<polygon fill="#191970" stroke="#191970" points="2972.2515,-105.4085 2982.3173,-102.1024 2972.3868,-98.4098 2972.2515,-105.4085"/>
</g>
<!-- Node12 -->
<g id="node12" class="node">
<title>Node12</title>
<g id="a_node12"><a xlink:href="../../d8/d2a/PHInitVertexing_8cc.html" target="_top" xlink:title="coresoftware/blob/master\l/offline/packages/trackreco\l/PHInitVertexing.cc">
<polygon fill="none" stroke="#000000" points="1780,-.5 1780,-44.5 1934,-44.5 1934,-.5 1780,-.5"/>
<text text-anchor="start" x="1788" y="-31.5" font-family="FreeSans" font-size="10.00" fill="#000000">coresoftware/blob/master</text>
<text text-anchor="start" x="1788" y="-19.5" font-family="FreeSans" font-size="10.00" fill="#000000">/offline/packages/trackreco</text>
<text text-anchor="middle" x="1857" y="-7.5" font-family="FreeSans" font-size="10.00" fill="#000000">/PHInitVertexing.cc</text>
</a>
</g>
</g>
<!-- Node1&#45;&gt;Node12 -->
<g id="edge11" class="edge">
<title>Node1&#45;&gt;Node12</title>
<path fill="none" stroke="#191970" d="M2972.219,-101.1894C2743.9667,-94.8744 2140.783,-75.7189 1943,-45 1940.1025,-44.55 1937.1613,-44.0428 1934.1989,-43.4894"/>
<polygon fill="#191970" stroke="#191970" points="2972.3822,-104.6951 2982.4747,-101.4715 2972.5748,-97.6978 2972.3822,-104.6951"/>
</g>
<!-- Node13 -->
<g id="node13" class="node">
<title>Node13</title>
<g id="a_node13"><a xlink:href="../../d8/dda/PHInitZVertexing_8cc.html" target="_top" xlink:title="coresoftware/blob/master\l/offline/packages/trackreco\l/PHInitZVertexing.cc">
<polygon fill="none" stroke="#000000" points="1952,-.5 1952,-44.5 2106,-44.5 2106,-.5 1952,-.5"/>
<text text-anchor="start" x="1960" y="-31.5" font-family="FreeSans" font-size="10.00" fill="#000000">coresoftware/blob/master</text>
<text text-anchor="start" x="1960" y="-19.5" font-family="FreeSans" font-size="10.00" fill="#000000">/offline/packages/trackreco</text>
<text text-anchor="middle" x="2029" y="-7.5" font-family="FreeSans" font-size="10.00" fill="#000000">/PHInitZVertexing.cc</text>
</a>
</g>
</g>
<!-- Node1&#45;&gt;Node13 -->
<g id="edge12" class="edge">
<title>Node1&#45;&gt;Node13</title>
<path fill="none" stroke="#191970" d="M2972.4385,-100.2225C2770.0568,-92.3759 2278.5761,-71.2009 2115,-45 2112.1046,-44.5362 2109.1653,-44.0174 2106.2045,-43.4541"/>
<polygon fill="#191970" stroke="#191970" points="2972.3105,-103.7201 2982.4381,-100.6085 2972.5805,-96.7253 2972.3105,-103.7201"/>
</g>
<!-- Node14 -->
<g id="node14" class="node">
<title>Node14</title>
<g id="a_node14"><a xlink:href="../../d4/d68/PHPatternReco_8cc.html" target="_top" xlink:title="coresoftware/blob/master\l/offline/packages/trackreco\l/PHPatternReco.cc">
<polygon fill="none" stroke="#000000" points="2124,-.5 2124,-44.5 2278,-44.5 2278,-.5 2124,-.5"/>
<text text-anchor="start" x="2132" y="-31.5" font-family="FreeSans" font-size="10.00" fill="#000000">coresoftware/blob/master</text>
<text text-anchor="start" x="2132" y="-19.5" font-family="FreeSans" font-size="10.00" fill="#000000">/offline/packages/trackreco</text>
<text text-anchor="middle" x="2201" y="-7.5" font-family="FreeSans" font-size="10.00" fill="#000000">/PHPatternReco.cc</text>
</a>
</g>
</g>
<!-- Node1&#45;&gt;Node14 -->
<g id="edge13" class="edge">
<title>Node1&#45;&gt;Node14</title>
<path fill="none" stroke="#191970" d="M2972.295,-101.987C2827.7862,-98.3627 2532.9674,-86.1251 2287,-45 2284.1079,-44.5164 2281.1713,-43.9807 2278.2128,-43.4032"/>
<polygon fill="#191970" stroke="#191970" points="2972.355,-105.4894 2982.4371,-102.2334 2972.5251,-98.4915 2972.355,-105.4894"/>
</g>
<!-- Node15 -->
<g id="node15" class="node">
<title>Node15</title>
<g id="a_node15"><a xlink:href="../../d7/d3c/PHRTreeSeeding_8cc.html" target="_top" xlink:title="coresoftware/blob/master\l/offline/packages/trackreco\l/PHRTreeSeeding.cc">
<polygon fill="none" stroke="#000000" points="2296,-.5 2296,-44.5 2450,-44.5 2450,-.5 2296,-.5"/>
<text text-anchor="start" x="2304" y="-31.5" font-family="FreeSans" font-size="10.00" fill="#000000">coresoftware/blob/master</text>
<text text-anchor="start" x="2304" y="-19.5" font-family="FreeSans" font-size="10.00" fill="#000000">/offline/packages/trackreco</text>
<text text-anchor="middle" x="2373" y="-7.5" font-family="FreeSans" font-size="10.00" fill="#000000">/PHRTreeSeeding.cc</text>
</a>
</g>
</g>
<!-- Node1&#45;&gt;Node15 -->
<g id="edge14" class="edge">
<title>Node1&#45;&gt;Node15</title>
<path fill="none" stroke="#191970" d="M2971.9793,-99.282C2853.9606,-92.6813 2639.5577,-77.1816 2459,-45 2456.1132,-44.4855 2453.1812,-43.9234 2450.2266,-43.3236"/>
<polygon fill="#191970" stroke="#191970" points="2971.8723,-102.7813 2982.0497,-99.8367 2972.2574,-95.7919 2971.8723,-102.7813"/>
</g>
<!-- Node16 -->
<g id="node16" class="node">
<title>Node16</title>
<g id="a_node16"><a xlink:href="../../d5/d4f/PHTrackFitting_8cc.html" target="_top" xlink:title="coresoftware/blob/master\l/offline/packages/trackreco\l/PHTrackFitting.cc">
<polygon fill="none" stroke="#000000" points="2468,-.5 2468,-44.5 2622,-44.5 2622,-.5 2468,-.5"/>
<text text-anchor="start" x="2476" y="-31.5" font-family="FreeSans" font-size="10.00" fill="#000000">coresoftware/blob/master</text>
<text text-anchor="start" x="2476" y="-19.5" font-family="FreeSans" font-size="10.00" fill="#000000">/offline/packages/trackreco</text>
<text text-anchor="middle" x="2545" y="-7.5" font-family="FreeSans" font-size="10.00" fill="#000000">/PHTrackFitting.cc</text>
</a>
</g>
</g>
<!-- Node1&#45;&gt;Node16 -->
<g id="edge15" class="edge">
<title>Node1&#45;&gt;Node16</title>
<path fill="none" stroke="#191970" d="M2972.3248,-94.5996C2885.0182,-85.0944 2748.1204,-68.1999 2631,-45 2628.1236,-44.4302 2625.2004,-43.8211 2622.2533,-43.1816"/>
<polygon fill="#191970" stroke="#191970" points="2972.1397,-98.0998 2982.4577,-95.6938 2972.8913,-91.1403 2972.1397,-98.0998"/>
</g>
<!-- Node17 -->
<g id="node17" class="node">
<title>Node17</title>
<g id="a_node17"><a xlink:href="../../d9/d52/PHTrackPropagating_8cc.html" target="_top" xlink:title="coresoftware/blob/master\l/offline/packages/trackreco\l/PHTrackPropagating.cc">
<polygon fill="none" stroke="#000000" points="2640,-.5 2640,-44.5 2794,-44.5 2794,-.5 2640,-.5"/>
<text text-anchor="start" x="2648" y="-31.5" font-family="FreeSans" font-size="10.00" fill="#000000">coresoftware/blob/master</text>
<text text-anchor="start" x="2648" y="-19.5" font-family="FreeSans" font-size="10.00" fill="#000000">/offline/packages/trackreco</text>
<text text-anchor="middle" x="2717" y="-7.5" font-family="FreeSans" font-size="10.00" fill="#000000">/PHTrackPropagating.cc</text>
</a>
</g>
</g>
<!-- Node1&#45;&gt;Node17 -->
<g id="edge16" class="edge">
<title>Node1&#45;&gt;Node17</title>
<path fill="none" stroke="#191970" d="M2972.5805,-84.2064C2922.6921,-73.1314 2859.2611,-58.7342 2803,-45 2800.1514,-44.3046 2797.2518,-43.5885 2794.3247,-42.8586"/>
<polygon fill="#191970" stroke="#191970" points="2971.851,-87.6296 2982.3714,-86.3759 2973.3655,-80.7954 2971.851,-87.6296"/>
</g>
<!-- Node18 -->
<g id="node18" class="node">
<title>Node18</title>
<g id="a_node18"><a xlink:href="../../db/dff/PHTrackSeeding_8cc.html" target="_top" xlink:title="coresoftware/blob/master\l/offline/packages/trackreco\l/PHTrackSeeding.cc">
<polygon fill="none" stroke="#000000" points="2812,-.5 2812,-44.5 2966,-44.5 2966,-.5 2812,-.5"/>
<text text-anchor="start" x="2820" y="-31.5" font-family="FreeSans" font-size="10.00" fill="#000000">coresoftware/blob/master</text>
<text text-anchor="start" x="2820" y="-19.5" font-family="FreeSans" font-size="10.00" fill="#000000">/offline/packages/trackreco</text>
<text text-anchor="middle" x="2889" y="-7.5" font-family="FreeSans" font-size="10.00" fill="#000000">/PHTrackSeeding.cc</text>
</a>
</g>
</g>
<!-- Node1&#45;&gt;Node18 -->
<g id="edge17" class="edge">
<title>Node1&#45;&gt;Node18</title>
<path fill="none" stroke="#191970" d="M3004.6733,-76.9741C2982.4314,-66.4997 2957.1715,-54.604 2935.9429,-44.6068"/>
<polygon fill="#191970" stroke="#191970" points="3003.462,-80.2723 3014.0002,-81.3664 3006.4444,-73.9394 3003.462,-80.2723"/>
</g>
<!-- Node19 -->
<g id="node19" class="node">
<title>Node19</title>
<g id="a_node19"><a xlink:href="../../dc/dbf/PHTrackSetMerging_8cc.html" target="_top" xlink:title="coresoftware/blob/master\l/offline/packages/trackreco\l/PHTrackSetMerging.cc">
<polygon fill="none" stroke="#000000" points="2984,-.5 2984,-44.5 3138,-44.5 3138,-.5 2984,-.5"/>
<text text-anchor="start" x="2992" y="-31.5" font-family="FreeSans" font-size="10.00" fill="#000000">coresoftware/blob/master</text>
<text text-anchor="start" x="2992" y="-19.5" font-family="FreeSans" font-size="10.00" fill="#000000">/offline/packages/trackreco</text>
<text text-anchor="middle" x="3061" y="-7.5" font-family="FreeSans" font-size="10.00" fill="#000000">/PHTrackSetMerging.cc</text>
</a>
</g>
</g>
<!-- Node1&#45;&gt;Node19 -->
<g id="edge18" class="edge">
<title>Node1&#45;&gt;Node19</title>
<path fill="none" stroke="#191970" d="M3061,-71.2457C3061,-62.3118 3061,-52.8188 3061,-44.6068"/>
<polygon fill="#191970" stroke="#191970" points="3057.5001,-71.3664 3061,-81.3664 3064.5001,-71.3664 3057.5001,-71.3664"/>
</g>
<!-- Node20 -->
<g id="node20" class="node">
<title>Node20</title>
<g id="a_node20"><a xlink:href="../../d4/d0c/PHTruthTrackSeeding_8cc.html" target="_top" xlink:title="coresoftware/blob/master\l/offline/packages/trackreco\l/PHTruthTrackSeeding.cc">
<polygon fill="none" stroke="#000000" points="3156,-.5 3156,-44.5 3310,-44.5 3310,-.5 3156,-.5"/>
<text text-anchor="start" x="3164" y="-31.5" font-family="FreeSans" font-size="10.00" fill="#000000">coresoftware/blob/master</text>
<text text-anchor="start" x="3164" y="-19.5" font-family="FreeSans" font-size="10.00" fill="#000000">/offline/packages/trackreco</text>
<text text-anchor="middle" x="3233" y="-7.5" font-family="FreeSans" font-size="10.00" fill="#000000">/PHTruthTrackSeeding.cc</text>
</a>
</g>
</g>
<!-- Node1&#45;&gt;Node20 -->
<g id="edge19" class="edge">
<title>Node1&#45;&gt;Node20</title>
<path fill="none" stroke="#191970" d="M3117.3267,-76.9741C3139.5686,-66.4997 3164.8285,-54.604 3186.0571,-44.6068"/>
<polygon fill="#191970" stroke="#191970" points="3115.5556,-73.9394 3107.9998,-81.3664 3118.538,-80.2723 3115.5556,-73.9394"/>
</g>
<!-- Node21 -->
<g id="node21" class="node">
<title>Node21</title>
<g id="a_node21"><a xlink:href="../../d7/dbf/SvtxClusterEval_8cc.html" target="_top" xlink:title="coresoftware/blob/master\l/simulation/g4simulation\l/g4eval/SvtxClusterEval.cc">
<polygon fill="none" stroke="#000000" points="3328,-.5 3328,-44.5 3480,-44.5 3480,-.5 3328,-.5"/>
<text text-anchor="start" x="3336" y="-31.5" font-family="FreeSans" font-size="10.00" fill="#000000">coresoftware/blob/master</text>
<text text-anchor="start" x="3336" y="-19.5" font-family="FreeSans" font-size="10.00" fill="#000000">/simulation/g4simulation</text>
<text text-anchor="middle" x="3404" y="-7.5" font-family="FreeSans" font-size="10.00" fill="#000000">/g4eval/SvtxClusterEval.cc</text>
</a>
</g>
</g>
<!-- Node1&#45;&gt;Node21 -->
<g id="edge20" class="edge">
<title>Node1&#45;&gt;Node21</title>
<path fill="none" stroke="#191970" d="M3149.4348,-84.2689C3199.328,-73.2136 3262.7588,-58.8152 3319,-45 3321.8167,-44.3081 3324.6834,-43.595 3327.5774,-42.8676"/>
<polygon fill="#191970" stroke="#191970" points="3148.6512,-80.8576 3139.6429,-86.4343 3150.1627,-87.6925 3148.6512,-80.8576"/>
</g>
<!-- Node22 -->
<g id="node22" class="node">
<title>Node22</title>
<g id="a_node22"><a xlink:href="../../d7/dd1/SvtxEvaluator_8cc.html" target="_top" xlink:title="coresoftware/blob/master\l/simulation/g4simulation\l/g4eval/SvtxEvaluator.cc">
<polygon fill="none" stroke="#000000" points="3498,-.5 3498,-44.5 3644,-44.5 3644,-.5 3498,-.5"/>
<text text-anchor="start" x="3506" y="-31.5" font-family="FreeSans" font-size="10.00" fill="#000000">coresoftware/blob/master</text>
<text text-anchor="start" x="3506" y="-19.5" font-family="FreeSans" font-size="10.00" fill="#000000">/simulation/g4simulation</text>
<text text-anchor="middle" x="3571" y="-7.5" font-family="FreeSans" font-size="10.00" fill="#000000">/g4eval/SvtxEvaluator.cc</text>
</a>
</g>
</g>
<!-- Node1&#45;&gt;Node22 -->
<g id="edge21" class="edge">
<title>Node1&#45;&gt;Node22</title>
<path fill="none" stroke="#191970" d="M3149.7186,-94.8289C3236.6813,-85.519 3372.7381,-68.7878 3489,-45 3491.8925,-44.4082 3494.8336,-43.7715 3497.798,-43.1006"/>
<polygon fill="#191970" stroke="#191970" points="3149.1991,-91.3643 3139.6242,-95.8998 3149.9376,-98.3252 3149.1991,-91.3643"/>
</g>
<!-- Node23 -->
<g id="node23" class="node">
<title>Node23</title>
<g id="a_node23"><a xlink:href="../../de/d71/SvtxHitEval_8cc.html" target="_top" xlink:title="coresoftware/blob/master\l/simulation/g4simulation\l/g4eval/SvtxHitEval.cc">
<polygon fill="none" stroke="#000000" points="3662,-.5 3662,-44.5 3808,-44.5 3808,-.5 3662,-.5"/>
<text text-anchor="start" x="3670" y="-31.5" font-family="FreeSans" font-size="10.00" fill="#000000">coresoftware/blob/master</text>
<text text-anchor="start" x="3670" y="-19.5" font-family="FreeSans" font-size="10.00" fill="#000000">/simulation/g4simulation</text>
<text text-anchor="middle" x="3735" y="-7.5" font-family="FreeSans" font-size="10.00" fill="#000000">/g4eval/SvtxHitEval.cc</text>
</a>
</g>
</g>
<!-- Node1&#45;&gt;Node23 -->
<g id="edge22" class="edge">
<title>Node1&#45;&gt;Node23</title>
<path fill="none" stroke="#191970" d="M3149.9217,-99.4126C3266.3166,-92.9922 3476.3027,-77.7286 3653,-45 3655.9031,-44.4623 3658.853,-43.8712 3661.8248,-43.2385"/>
<polygon fill="#191970" stroke="#191970" points="3149.4379,-95.9336 3139.6421,-99.97 3149.817,-102.9233 3149.4379,-95.9336"/>
</g>
<!-- Node24 -->
<g id="node24" class="node">
<title>Node24</title>
<g id="a_node24"><a xlink:href="../../df/dc1/TrkrEvaluator_8cc.html" target="_top" xlink:title="coresoftware/blob/master\l/simulation/g4simulation\l/g4eval/TrkrEvaluator.cc">
<polygon fill="none" stroke="#000000" points="3826,-.5 3826,-44.5 3972,-44.5 3972,-.5 3826,-.5"/>
<text text-anchor="start" x="3834" y="-31.5" font-family="FreeSans" font-size="10.00" fill="#000000">coresoftware/blob/master</text>
<text text-anchor="start" x="3834" y="-19.5" font-family="FreeSans" font-size="10.00" fill="#000000">/simulation/g4simulation</text>
<text text-anchor="middle" x="3899" y="-7.5" font-family="FreeSans" font-size="10.00" fill="#000000">/g4eval/TrkrEvaluator.cc</text>
</a>
</g>
</g>
<!-- Node1&#45;&gt;Node24 -->
<g id="edge23" class="edge">
<title>Node1&#45;&gt;Node24</title>
<path fill="none" stroke="#191970" d="M3150.0911,-102.0888C3292.1599,-98.6123 3578.3477,-86.584 3817,-45 3819.9086,-44.4932 3822.8633,-43.9282 3825.839,-43.3173"/>
<polygon fill="#191970" stroke="#191970" points="3149.6137,-98.599 3139.6991,-102.334 3149.7789,-105.597 3149.6137,-98.599"/>
</g>
<!-- Node25 -->
<g id="node25" class="node">
<title>Node25</title>
<g id="a_node25"><a xlink:href="../../da/d1c/AnaMvtxPrototype1_8C.html" target="_top" xlink:title="Analyze Mvtx 4 chip telescope from 2018 fermilab beam test.">
<polygon fill="none" stroke="#000000" points="3990.5,-.5 3990.5,-44.5 4187.5,-44.5 4187.5,-.5 3990.5,-.5"/>
<text text-anchor="start" x="3998.5" y="-31.5" font-family="FreeSans" font-size="10.00" fill="#000000">analysis/blob/master</text>
<text text-anchor="start" x="3998.5" y="-19.5" font-family="FreeSans" font-size="10.00" fill="#000000">/MvtxTelescope/AnaMvtxPrototype1</text>
<text text-anchor="middle" x="4089" y="-7.5" font-family="FreeSans" font-size="10.00" fill="#000000">/AnaMvtxPrototype1.C</text>
</a>
</g>
</g>
<!-- Node1&#45;&gt;Node25 -->
<g id="edge24" class="edge">
<title>Node1&#45;&gt;Node25</title>
<path fill="none" stroke="#191970" d="M3149.5908,-102.0398C3314.1119,-98.404 3677.6832,-86.028 3981,-45 3984.0368,-44.5892 3987.1158,-44.1419 3990.22,-43.6642"/>
<polygon fill="#191970" stroke="#191970" points="3149.4434,-98.5421 3139.5212,-102.2569 3149.5943,-105.5405 3149.4434,-98.5421"/>
</g>
<!-- Node26 -->
<g id="node26" class="node">
<title>Node26</title>
<g id="a_node26"><a xlink:href="../../d4/db9/AnaMvtxTestBeam2019_8cc.html" target="_top" xlink:title="analysis/blob/master\l/MvtxTelescope/AnaMvtxTB2019\l/AnaMvtxTestBeam2019.cc">
<polygon fill="none" stroke="#000000" points="4205.5,-.5 4205.5,-44.5 4386.5,-44.5 4386.5,-.5 4205.5,-.5"/>
<text text-anchor="start" x="4213.5" y="-31.5" font-family="FreeSans" font-size="10.00" fill="#000000">analysis/blob/master</text>
<text text-anchor="start" x="4213.5" y="-19.5" font-family="FreeSans" font-size="10.00" fill="#000000">/MvtxTelescope/AnaMvtxTB2019</text>
<text text-anchor="middle" x="4296" y="-7.5" font-family="FreeSans" font-size="10.00" fill="#000000">/AnaMvtxTestBeam2019.cc</text>
</a>
</g>
</g>
<!-- Node1&#45;&gt;Node26 -->
<g id="edge25" class="edge">
<title>Node1&#45;&gt;Node26</title>
<path fill="none" stroke="#191970" d="M3149.5688,-100.9112C3380.1413,-93.8555 3995.089,-72.9316 4197,-45 4199.7935,-44.6136 4202.6246,-44.1875 4205.4776,-43.7284"/>
<polygon fill="#191970" stroke="#191970" points="3149.4318,-97.4136 3139.5431,-101.2166 3149.645,-104.4104 3149.4318,-97.4136"/>
</g>
<!-- Node27 -->
<g id="node27" class="node">
<title>Node27</title>
<g id="a_node27"><a xlink:href="../../d7/dec/Conversion_8cc.html" target="_top" xlink:title="analysis/blob/master\l/PhotonConversion/truthconversion\l/Conversion.cc">
<polygon fill="none" stroke="#000000" points="4405,-.5 4405,-44.5 4601,-44.5 4601,-.5 4405,-.5"/>
<text text-anchor="start" x="4413" y="-31.5" font-family="FreeSans" font-size="10.00" fill="#000000">analysis/blob/master</text>
<text text-anchor="start" x="4413" y="-19.5" font-family="FreeSans" font-size="10.00" fill="#000000">/PhotonConversion/truthconversion</text>
<text text-anchor="middle" x="4503" y="-7.5" font-family="FreeSans" font-size="10.00" fill="#000000">/Conversion.cc</text>
</a>
</g>
</g>
<!-- Node1&#45;&gt;Node27 -->
<g id="edge26" class="edge">
<title>Node1&#45;&gt;Node27</title>
<path fill="none" stroke="#191970" d="M3149.7929,-101.5047C3407.7013,-95.4081 4153.8189,-75.5608 4396,-45 4398.9192,-44.6316 4401.8771,-44.2254 4404.8584,-43.7872"/>
<polygon fill="#191970" stroke="#191970" points="3149.6349,-98.0073 3139.72,-101.7416 3149.7996,-105.0054 3149.6349,-98.0073"/>
</g>
<!-- Node28 -->
<g id="node28" class="node">
<title>Node28</title>
<g id="a_node28"><a xlink:href="../../d5/dee/RecoConversionEval_8cc.html" target="_top" xlink:title="analysis/blob/master\l/PhotonConversion/truthconversion\l/RecoConversionEval.cc">
<polygon fill="none" stroke="#000000" points="4619,-.5 4619,-44.5 4815,-44.5 4815,-.5 4619,-.5"/>
<text text-anchor="start" x="4627" y="-31.5" font-family="FreeSans" font-size="10.00" fill="#000000">analysis/blob/master</text>
<text text-anchor="start" x="4627" y="-19.5" font-family="FreeSans" font-size="10.00" fill="#000000">/PhotonConversion/truthconversion</text>
<text text-anchor="middle" x="4717" y="-7.5" font-family="FreeSans" font-size="10.00" fill="#000000">/RecoConversionEval.cc</text>
</a>
</g>
</g>
<!-- Node1&#45;&gt;Node28 -->
<g id="edge27" class="edge">
<title>Node1&#45;&gt;Node28</title>
<path fill="none" stroke="#191970" d="M3149.8928,-102.1247C3434.9836,-97.4022 4324.3954,-80.1639 4610,-45 4612.9203,-44.6405 4615.8791,-44.242 4618.8613,-43.8106"/>
<polygon fill="#191970" stroke="#191970" points="3149.5436,-98.6299 3139.6026,-102.2941 3149.6589,-105.629 3149.5436,-98.6299"/>
</g>
<!-- Node29 -->
<g id="node29" class="node">
<title>Node29</title>
<g id="a_node29"><a xlink:href="../../de/d7a/SVReco_8C.html" target="_top" xlink:title="analysis/blob/master\l/PhotonConversion/truthconversion\l/SVReco.C">
<polygon fill="none" stroke="#000000" points="4833,-.5 4833,-44.5 5029,-44.5 5029,-.5 4833,-.5"/>
<text text-anchor="start" x="4841" y="-31.5" font-family="FreeSans" font-size="10.00" fill="#000000">analysis/blob/master</text>
<text text-anchor="start" x="4841" y="-19.5" font-family="FreeSans" font-size="10.00" fill="#000000">/PhotonConversion/truthconversion</text>
<text text-anchor="middle" x="4931" y="-7.5" font-family="FreeSans" font-size="10.00" fill="#000000">/SVReco.C</text>
</a>
</g>
</g>
<!-- Node1&#45;&gt;Node29 -->
<g id="edge28" class="edge">
<title>Node1&#45;&gt;Node29</title>
<path fill="none" stroke="#191970" d="M3150.0185,-102.596C3460.5375,-99.1222 4494.727,-84.7755 4824,-45 4826.9211,-44.6471 4829.8807,-44.2545 4832.8634,-43.8283"/>
<polygon fill="#191970" stroke="#191970" points="3149.6806,-99.0995 3139.72,-102.7102 3149.7583,-106.099 3149.6806,-99.0995"/>
</g>
<!-- Node30 -->
<g id="node30" class="node">
<title>Node30</title>
<g id="a_node30"><a xlink:href="../../d1/db3/TruthConversionEval_8C.html" target="_top" xlink:title="analysis/blob/master\l/PhotonConversion/truthconversion\l/TruthConversionEval.C">
<polygon fill="none" stroke="#000000" points="5047,-.5 5047,-44.5 5243,-44.5 5243,-.5 5047,-.5"/>
<text text-anchor="start" x="5055" y="-31.5" font-family="FreeSans" font-size="10.00" fill="#000000">analysis/blob/master</text>
<text text-anchor="start" x="5055" y="-19.5" font-family="FreeSans" font-size="10.00" fill="#000000">/PhotonConversion/truthconversion</text>
<text text-anchor="middle" x="5145" y="-7.5" font-family="FreeSans" font-size="10.00" fill="#000000">/TruthConversionEval.C</text>
</a>
</g>
</g>
<!-- Node1&#45;&gt;Node30 -->
<g id="edge29" class="edge">
<title>Node1&#45;&gt;Node30</title>
<path fill="none" stroke="#191970" d="M3149.6439,-102.9704C3483.4535,-100.6508 4664.6648,-89.4186 5038,-45 5040.9217,-44.6524 5043.8819,-44.2644 5046.8651,-43.8421"/>
<polygon fill="#191970" stroke="#191970" points="3149.5194,-99.4711 3139.5436,-103.0397 3149.5674,-106.4709 3149.5194,-99.4711"/>
</g>
<!-- Node31 -->
<g id="node31" class="node">
<title>Node31</title>
<g id="a_node31"><a xlink:href="../../d1/dc4/VtxTest_8C.html" target="_top" xlink:title="analysis/blob/master\l/PhotonConversion/truthconversion\l/VtxTest.C">
<polygon fill="none" stroke="#000000" points="5261,-.5 5261,-44.5 5457,-44.5 5457,-.5 5261,-.5"/>
<text text-anchor="start" x="5269" y="-31.5" font-family="FreeSans" font-size="10.00" fill="#000000">analysis/blob/master</text>
<text text-anchor="start" x="5269" y="-19.5" font-family="FreeSans" font-size="10.00" fill="#000000">/PhotonConversion/truthconversion</text>
<text text-anchor="middle" x="5359" y="-7.5" font-family="FreeSans" font-size="10.00" fill="#000000">/VtxTest.C</text>
</a>
</g>
</g>
<!-- Node1&#45;&gt;Node31 -->
<g id="edge30" class="edge">
<title>Node1&#45;&gt;Node31</title>
<path fill="none" stroke="#191970" d="M3149.8071,-103.2684C3506.3538,-102.0076 4834.6206,-94.0478 5252,-45 5254.9222,-44.6566 5257.8828,-44.2723 5260.8664,-43.8533"/>
<polygon fill="#191970" stroke="#191970" points="3149.5316,-99.7693 3139.5437,-103.3038 3149.5558,-106.7692 3149.5316,-99.7693"/>
</g>
<!-- Node32 -->
<g id="node32" class="node">
<title>Node32</title>
<g id="a_node32"><a xlink:href="../../d5/d8a/TPCMLDataInterface_8cc.html" target="_top" xlink:title="analysis/blob/master\l/TPC/DAQ/TPCMLDataInterface\l/TPCMLDataInterface.cc">
<polygon fill="none" stroke="#000000" points="5475.5,-.5 5475.5,-44.5 5646.5,-44.5 5646.5,-.5 5475.5,-.5"/>
<text text-anchor="start" x="5483.5" y="-31.5" font-family="FreeSans" font-size="10.00" fill="#000000">analysis/blob/master</text>
<text text-anchor="start" x="5483.5" y="-19.5" font-family="FreeSans" font-size="10.00" fill="#000000">/TPC/DAQ/TPCMLDataInterface</text>
<text text-anchor="middle" x="5561" y="-7.5" font-family="FreeSans" font-size="10.00" fill="#000000">/TPCMLDataInterface.cc</text>
</a>
</g>
</g>
<!-- Node1&#45;&gt;Node32 -->
<g id="edge31" class="edge">
<title>Node1&#45;&gt;Node32</title>
<path fill="none" stroke="#191970" d="M3150.0288,-102.4331C3557.3427,-97.4033 5233.3891,-75.0415 5466,-45 5469.1098,-44.5984 5472.2663,-44.1373 5475.4464,-43.6274"/>
<polygon fill="#191970" stroke="#191970" points="3149.7379,-98.9363 3139.7818,-102.5593 3149.8242,-105.9358 3149.7379,-98.9363"/>
</g>
<!-- Node33 -->
<g id="node33" class="node">
<title>Node33</title>
<g id="a_node33"><a xlink:href="../../d9/d68/TpcPrototypeClusterizer_8cc.html" target="_top" xlink:title="prototype/blob/master\l/offline/packages/tpc2019\l/TpcPrototypeClusterizer.cc">
<polygon fill="none" stroke="#000000" points="5665,-.5 5665,-44.5 5819,-44.5 5819,-.5 5665,-.5"/>
<text text-anchor="start" x="5673" y="-31.5" font-family="FreeSans" font-size="10.00" fill="#000000">prototype/blob/master</text>
<text text-anchor="start" x="5673" y="-19.5" font-family="FreeSans" font-size="10.00" fill="#000000">/offline/packages/tpc2019</text>
<text text-anchor="middle" x="5742" y="-7.5" font-family="FreeSans" font-size="10.00" fill="#000000">/TpcPrototypeClusterizer.cc</text>
</a>
</g>
</g>
<!-- Node1&#45;&gt;Node33 -->
<g id="edge32" class="edge">
<title>Node1&#45;&gt;Node33</title>
<path fill="none" stroke="#191970" d="M3149.6501,-102.7294C3575.8438,-98.8593 5403.9491,-80.318 5656,-45 5658.9039,-44.5931 5661.8505,-44.1227 5664.8174,-43.6003"/>
<polygon fill="#191970" stroke="#191970" points="3149.5123,-99.2304 3139.5444,-102.8208 3149.5757,-106.2301 3149.5123,-99.2304"/>
</g>
<!-- Node34 -->
<g id="node34" class="node">
<title>Node34</title>
<g id="a_node34"><a xlink:href="../../df/d40/TpcPrototypeGenFitTrkFinder_8cc.html" target="_top" xlink:title="prototype/blob/master\l/offline/packages/tpc2019\l/TpcPrototypeGenFitTrkFinder.cc">
<polygon fill="none" stroke="#000000" points="5837,-.5 5837,-44.5 6015,-44.5 6015,-.5 5837,-.5"/>
<text text-anchor="start" x="5845" y="-31.5" font-family="FreeSans" font-size="10.00" fill="#000000">prototype/blob/master</text>
<text text-anchor="start" x="5845" y="-19.5" font-family="FreeSans" font-size="10.00" fill="#000000">/offline/packages/tpc2019</text>
<text text-anchor="middle" x="5926" y="-7.5" font-family="FreeSans" font-size="10.00" fill="#000000">/TpcPrototypeGenFitTrkFinder.cc</text>
</a>
</g>
</g>
<!-- Node1&#45;&gt;Node34 -->
<g id="edge33" class="edge">
<title>Node1&#45;&gt;Node34</title>
<path fill="none" stroke="#191970" d="M3150.0049,-102.7014C3593.8725,-98.5731 5557.5882,-78.5419 5828,-45 5830.945,-44.6347 5833.9311,-44.2187 5836.9398,-43.7603"/>
<polygon fill="#191970" stroke="#191970" points="3149.7712,-99.2033 3139.8041,-102.796 3149.8361,-106.203 3149.7712,-99.2033"/>
</g>
<!-- Node35 -->
<g id="node35" class="node">
<title>Node35</title>
<g id="a_node35"><a xlink:href="../../d0/d1a/TpcPrototypeGenFitTrkFitter_8cc.html" target="_top" xlink:title="prototype/blob/master\l/offline/packages/tpc2019\l/TpcPrototypeGenFitTrkFitter.cc">
<polygon fill="none" stroke="#000000" points="6033.5,-.5 6033.5,-44.5 6206.5,-44.5 6206.5,-.5 6033.5,-.5"/>
<text text-anchor="start" x="6041.5" y="-31.5" font-family="FreeSans" font-size="10.00" fill="#000000">prototype/blob/master</text>
<text text-anchor="start" x="6041.5" y="-19.5" font-family="FreeSans" font-size="10.00" fill="#000000">/offline/packages/tpc2019</text>
<text text-anchor="middle" x="6120" y="-7.5" font-family="FreeSans" font-size="10.00" fill="#000000">/TpcPrototypeGenFitTrkFitter.cc</text>
</a>
</g>
</g>
<!-- Node1&#45;&gt;Node35 -->
<g id="edge34" class="edge">
<title>Node1&#45;&gt;Node35</title>
<path fill="none" stroke="#191970" d="M3149.8271,-102.8604C3612.1594,-99.3823 5733.1609,-81.5396 6024,-45 6027.0573,-44.6159 6030.1592,-44.1746 6033.2844,-43.686"/>
<polygon fill="#191970" stroke="#191970" points="3149.5142,-99.3626 3139.5407,-102.9375 3149.5667,-106.3624 3149.5142,-99.3626"/>
</g>
<!-- Node36 -->
<g id="node36" class="node">
<title>Node36</title>
<g id="a_node36"><a xlink:href="../../d4/d92/TpcPrototypeUnpacker_8cc.html" target="_top" xlink:title="prototype/blob/master\l/offline/packages/tpc2019\l/TpcPrototypeUnpacker.cc">
<polygon fill="none" stroke="#000000" points="6224.5,-.5 6224.5,-44.5 6373.5,-44.5 6373.5,-.5 6224.5,-.5"/>
<text text-anchor="start" x="6232.5" y="-31.5" font-family="FreeSans" font-size="10.00" fill="#000000">prototype/blob/master</text>
<text text-anchor="start" x="6232.5" y="-19.5" font-family="FreeSans" font-size="10.00" fill="#000000">/offline/packages/tpc2019</text>
<text text-anchor="middle" x="6299" y="-7.5" font-family="FreeSans" font-size="10.00" fill="#000000">/TpcPrototypeUnpacker.cc</text>
</a>
</g>
</g>
<!-- Node1&#45;&gt;Node36 -->
<g id="edge35" class="edge">
<title>Node1&#45;&gt;Node36</title>
<path fill="none" stroke="#191970" d="M3150.0927,-103.1558C3630.8977,-101.1236 5905.843,-89.224 6216,-45 6218.6605,-44.6207 6221.3571,-44.1834 6224.0718,-43.6983"/>
<polygon fill="#191970" stroke="#191970" points="3149.7299,-99.6572 3139.7447,-103.1992 3149.7593,-106.6572 3149.7299,-99.6572"/>
</g>
</g>
</svg>
