<?xml version="1.0" encoding="UTF-8" standalone="no"?>
<!DOCTYPE svg PUBLIC "-//W3C//DTD SVG 1.1//EN"
 "http://www.w3.org/Graphics/SVG/1.1/DTD/svg11.dtd">
<!-- Generated by graphviz version 2.40.1 (20161225.0304)
 -->
<!-- Title: DisplayOn Pages: 1 -->
<svg width="1144pt" height="1313pt"
 viewBox="0.00 0.00 1144.00 1313.00" xmlns="http://www.w3.org/2000/svg" xmlns:xlink="http://www.w3.org/1999/xlink">
<g id="graph0" class="graph" transform="scale(1 1) rotate(0) translate(4 1309)">
<title>DisplayOn</title>
<!-- Node1 -->
<g id="node1" class="node">
<title>Node1</title>
<polygon fill="#bfbfbf" stroke="#000000" points="0,-1207.5 0,-1227.5 68,-1227.5 68,-1207.5 0,-1207.5"/>
<text text-anchor="middle" x="34" y="-1214.5" font-family="FreeSans" font-size="10.00" fill="#000000">DisplayOn</text>
</g>
<!-- Node2 -->
<g id="node2" class="node">
<title>Node2</title>
<g id="a_node2"><a xlink:href="../../d0/d78/classPHG4Reco.html#a83fd9e9472f94d9a29be65df65e400ef" target="_top" xlink:title="interface to G4 cmd interpreter">
<polygon fill="none" stroke="#000000" points="111,-1284.5 111,-1304.5 267,-1304.5 267,-1284.5 111,-1284.5"/>
<text text-anchor="middle" x="189" y="-1291.5" font-family="FreeSans" font-size="10.00" fill="#000000">PHG4Reco::ApplyCommand</text>
</a>
</g>
</g>
<!-- Node1&#45;&gt;Node2 -->
<g id="edge1" class="edge">
<title>Node1&#45;&gt;Node2</title>
<path fill="none" stroke="#191970" d="M45.0589,-1227.6865C58.2048,-1239.3039 81.2383,-1258.1523 104,-1269.5 113.3889,-1274.1808 123.8082,-1278.1419 134.0425,-1281.4347"/>
<polygon fill="#191970" stroke="#191970" points="133.1728,-1284.8284 143.7585,-1284.3885 135.2089,-1278.131 133.1728,-1284.8284"/>
</g>
<!-- Node4 -->
<g id="node4" class="node">
<title>Node4</title>
<g id="a_node4"><a xlink:href="../../da/d29/classFun4AllServer.html#ac6d47a2b3bc98933a03fd63bb75d624a" target="_top" xlink:title="Fun4AllServer::getSubsysReco">
<polygon fill="none" stroke="#000000" points="104,-1168.5 104,-1188.5 274,-1188.5 274,-1168.5 104,-1168.5"/>
<text text-anchor="middle" x="189" y="-1175.5" font-family="FreeSans" font-size="10.00" fill="#000000">Fun4AllServer::getSubsysReco</text>
</a>
</g>
</g>
<!-- Node1&#45;&gt;Node4 -->
<g id="edge3" class="edge">
<title>Node1&#45;&gt;Node4</title>
<path fill="none" stroke="#191970" d="M68.0154,-1208.9413C88.9128,-1203.6832 116.047,-1196.8559 139.3212,-1190.9998"/>
<polygon fill="#191970" stroke="#191970" points="140.1865,-1194.3913 149.0301,-1188.5569 138.4783,-1187.6029 140.1865,-1194.3913"/>
</g>
<!-- Node6 -->
<g id="node6" class="node">
<title>Node6</title>
<g id="a_node6"><a xlink:href="../../d0/d78/classPHG4Reco.html#a9d8228ce8682c19cd6be2f6b44ec847b" target="_top" xlink:title="PHG4Reco::InitRun">
<polygon fill="none" stroke="#000000" points="134,-579.5 134,-599.5 244,-599.5 244,-579.5 134,-579.5"/>
<text text-anchor="middle" x="189" y="-586.5" font-family="FreeSans" font-size="10.00" fill="#000000">PHG4Reco::InitRun</text>
</a>
</g>
</g>
<!-- Node1&#45;&gt;Node6 -->
<g id="edge5" class="edge">
<title>Node1&#45;&gt;Node6</title>
<path fill="none" stroke="#191970" d="M36.4975,-1207.3813C54.1195,-1135.9834 159.7372,-708.0616 184.0234,-609.6634"/>
<polygon fill="#191970" stroke="#191970" points="187.4609,-610.3418 186.4592,-599.7944 180.6648,-608.6643 187.4609,-610.3418"/>
</g>
<!-- Node11 -->
<g id="node11" class="node">
<title>Node11</title>
<g id="a_node11"><a xlink:href="../../da/d29/classFun4AllServer.html#a3e55156f91b2c94bb6c4ef33ffce587a" target="_top" xlink:title="Fun4AllServer::instance">
<polygon fill="none" stroke="#000000" points="786,-923.5 786,-943.5 922,-943.5 922,-923.5 786,-923.5"/>
<text text-anchor="middle" x="854" y="-930.5" font-family="FreeSans" font-size="10.00" fill="#000000">Fun4AllServer::instance</text>
</a>
</g>
</g>
<!-- Node1&#45;&gt;Node11 -->
<g id="edge59" class="edge">
<title>Node1&#45;&gt;Node11</title>
<path fill="none" stroke="#191970" d="M68.3329,-1225.7704C79.6231,-1228.1128 92.2835,-1230.3398 104,-1231.5 241.3284,-1245.0982 609.6539,-1307.258 725,-1231.5 823.3071,-1166.933 847.058,-1009.6893 852.4818,-953.7042"/>
<polygon fill="#191970" stroke="#191970" points="855.9775,-953.9048 853.3602,-943.6384 849.004,-953.2962 855.9775,-953.9048"/>
</g>
<!-- Node12 -->
<g id="node12" class="node">
<title>Node12</title>
<g id="a_node12"><a xlink:href="../../da/d29/classFun4AllServer.html#abcaf6825367e5db292ff795237bdcf62" target="_top" xlink:title="Fun4AllServer::topNode">
<polygon fill="none" stroke="#000000" points="786,-884.5 786,-904.5 922,-904.5 922,-884.5 786,-884.5"/>
<text text-anchor="middle" x="854" y="-891.5" font-family="FreeSans" font-size="10.00" fill="#000000">Fun4AllServer::topNode</text>
</a>
</g>
</g>
<!-- Node1&#45;&gt;Node12 -->
<g id="edge60" class="edge">
<title>Node1&#45;&gt;Node12</title>
<path fill="none" stroke="#191970" d="M68.3996,-1220.071C194.5279,-1228.7177 629.2544,-1251.4073 725,-1161.5 805.8716,-1085.5596 685.2306,-995.5319 761,-914.5 765.4413,-909.7502 770.7165,-905.9884 776.464,-903.023"/>
<polygon fill="#191970" stroke="#191970" points="778.0307,-906.1592 785.8326,-898.9911 775.2635,-899.7293 778.0307,-906.1592"/>
</g>
<!-- Node3 -->
<g id="node3" class="node">
<title>Node3</title>
<g id="a_node3"><a xlink:href="../../d0/d78/classPHG4Reco.html#ad0f5beaf012e51404b712277818c6b36" target="_top" xlink:title="PHG4Reco::InitUImanager">
<polygon fill="none" stroke="#000000" points="338,-1284.5 338,-1304.5 486,-1304.5 486,-1284.5 338,-1284.5"/>
<text text-anchor="middle" x="412" y="-1291.5" font-family="FreeSans" font-size="10.00" fill="#000000">PHG4Reco::InitUImanager</text>
</a>
</g>
</g>
<!-- Node2&#45;&gt;Node3 -->
<g id="edge2" class="edge">
<title>Node2&#45;&gt;Node3</title>
<path fill="none" stroke="#191970" d="M267.3079,-1294.5C286.8651,-1294.5 307.9213,-1294.5 327.7523,-1294.5"/>
<polygon fill="#191970" stroke="#191970" points="327.9966,-1298.0001 337.9965,-1294.5 327.9965,-1291.0001 327.9966,-1298.0001"/>
</g>
<!-- Node5 -->
<g id="node5" class="node">
<title>Node5</title>
<g id="a_node5"><a xlink:href="../../d5/dec/classFun4AllBase.html#a8a5c77a92bdac6bc043476e132379a40" target="_top" xlink:title="Gets the verbosity of this module.">
<polygon fill="none" stroke="#000000" points="571.5,-1131.5 571.5,-1151.5 703.5,-1151.5 703.5,-1131.5 571.5,-1131.5"/>
<text text-anchor="middle" x="637.5" y="-1138.5" font-family="FreeSans" font-size="10.00" fill="#000000">Fun4AllBase::Verbosity</text>
</a>
</g>
</g>
<!-- Node4&#45;&gt;Node5 -->
<g id="edge4" class="edge">
<title>Node4&#45;&gt;Node5</title>
<path fill="none" stroke="#191970" d="M274.2734,-1173.4525C339.8744,-1169.3304 432.7487,-1162.977 514,-1155.5 529.2469,-1154.0969 545.5297,-1152.3961 561.1028,-1150.6703"/>
<polygon fill="#191970" stroke="#191970" points="561.6688,-1154.1289 571.2161,-1149.5355 560.8881,-1147.1725 561.6688,-1154.1289"/>
</g>
<!-- Node6&#45;&gt;Node5 -->
<g id="edge6" class="edge">
<title>Node6&#45;&gt;Node5</title>
<path fill="none" stroke="#191970" d="M189.7119,-599.9037C194.6082,-668.1327 225.6464,-1051.0515 310,-1122.5 346.5412,-1153.4508 476.3933,-1151.9376 561.1984,-1147.2556"/>
<polygon fill="#191970" stroke="#191970" points="561.5267,-1150.7425 571.3079,-1146.6709 561.1225,-1143.7542 561.5267,-1150.7425"/>
</g>
<!-- Node7 -->
<g id="node7" class="node">
<title>Node7</title>
<g id="a_node7"><a xlink:href="../../d8/d14/classrecoConsts.html#ae69a5c29a7199ba16d0e537158618802" target="_top" xlink:title="recoConsts::instance">
<polygon fill="none" stroke="#000000" points="351,-579.5 351,-599.5 473,-599.5 473,-579.5 351,-579.5"/>
<text text-anchor="middle" x="412" y="-586.5" font-family="FreeSans" font-size="10.00" fill="#000000">recoConsts::instance</text>
</a>
</g>
</g>
<!-- Node6&#45;&gt;Node7 -->
<g id="edge7" class="edge">
<title>Node6&#45;&gt;Node7</title>
<path fill="none" stroke="#191970" d="M244.1236,-589.5C273.2091,-589.5 309.2401,-589.5 340.4561,-589.5"/>
<polygon fill="#191970" stroke="#191970" points="340.8408,-593.0001 350.8408,-589.5 340.8407,-586.0001 340.8408,-593.0001"/>
</g>
<!-- Node9 -->
<g id="node9" class="node">
<title>Node9</title>
<g id="a_node9"><a xlink:href="../../d0/d78/classPHG4Reco.html#a66fc50f0871fbaf83b21edfa8ae98259" target="_top" xlink:title="PHG4Reco::InitField">
<polygon fill="none" stroke="#000000" points="354.5,-1092.5 354.5,-1112.5 469.5,-1112.5 469.5,-1092.5 354.5,-1092.5"/>
<text text-anchor="middle" x="412" y="-1099.5" font-family="FreeSans" font-size="10.00" fill="#000000">PHG4Reco::InitField</text>
</a>
</g>
</g>
<!-- Node6&#45;&gt;Node9 -->
<g id="edge9" class="edge">
<title>Node6&#45;&gt;Node9</title>
<path fill="none" stroke="#191970" d="M190.0286,-599.8559C196.6688,-664.589 235.5723,-1013.131 310,-1083.5 319.4915,-1092.4739 331.7902,-1097.8884 344.544,-1101.0399"/>
<polygon fill="#191970" stroke="#191970" points="343.8503,-1104.4704 354.3468,-1103.0303 345.2432,-1097.6104 343.8503,-1104.4704"/>
</g>
<!-- Node16 -->
<g id="node16" class="node">
<title>Node16</title>
<g id="a_node16"><a xlink:href="../../d5/dec/classFun4AllBase.html#a41f9ac377743d046f590617fd6f4f0ed" target="_top" xlink:title="Returns the name of this module.">
<polygon fill="none" stroke="#000000" points="354.5,-384.5 354.5,-404.5 469.5,-404.5 469.5,-384.5 354.5,-384.5"/>
<text text-anchor="middle" x="412" y="-391.5" font-family="FreeSans" font-size="10.00" fill="#000000">Fun4AllBase::Name</text>
</a>
</g>
</g>
<!-- Node6&#45;&gt;Node16 -->
<g id="edge18" class="edge">
<title>Node6&#45;&gt;Node16</title>
<path fill="none" stroke="#191970" d="M193.2192,-579.1441C205.956,-549.2485 247.053,-462.2223 310,-419.5 320.3563,-412.4711 332.4931,-407.4143 344.7106,-403.7772"/>
<polygon fill="#191970" stroke="#191970" points="345.7413,-407.1245 354.4938,-401.1542 343.9285,-400.3633 345.7413,-407.1245"/>
</g>
<!-- Node17 -->
<g id="node17" class="node">
<title>Node17</title>
<g id="a_node17"><a xlink:href="../../d0/d32/classSubsysReco.html#ac60499808487d0dcd1e127d262cf25f9" target="_top" xlink:title="SubsysReco::InitRun">
<polygon fill="none" stroke="#000000" points="353,-345.5 353,-365.5 471,-365.5 471,-345.5 353,-345.5"/>
<text text-anchor="middle" x="412" y="-352.5" font-family="FreeSans" font-size="10.00" fill="#000000">SubsysReco::InitRun</text>
</a>
</g>
</g>
<!-- Node6&#45;&gt;Node17 -->
<g id="edge19" class="edge">
<title>Node6&#45;&gt;Node17</title>
<path fill="none" stroke="#191970" d="M191.4289,-579.3369C200.3478,-544.3877 234.7661,-428.3437 310,-374.5 319.7272,-367.5384 331.2713,-362.91 343.0352,-359.8727"/>
<polygon fill="#191970" stroke="#191970" points="343.9276,-363.26 352.9336,-357.6794 342.4132,-356.4258 343.9276,-363.26"/>
</g>
<!-- Node18 -->
<g id="node18" class="node">
<title>Node18</title>
<g id="a_node18"><a xlink:href="../../d1/d13/classPHG4PhenixDetector.html#a4a700250d75ec02bcc1809c43f124a45" target="_top" xlink:title="PHG4PhenixDetector\l::Verbosity">
<polygon fill="none" stroke="#000000" points="351,-294.5 351,-326.5 473,-326.5 473,-294.5 351,-294.5"/>
<text text-anchor="start" x="359" y="-313.5" font-family="FreeSans" font-size="10.00" fill="#000000">PHG4PhenixDetector</text>
<text text-anchor="middle" x="412" y="-301.5" font-family="FreeSans" font-size="10.00" fill="#000000">::Verbosity</text>
</a>
</g>
</g>
<!-- Node6&#45;&gt;Node18 -->
<g id="edge20" class="edge">
<title>Node6&#45;&gt;Node18</title>
<path fill="none" stroke="#191970" d="M190.6535,-579.3484C197.4695,-540.9062 227.0441,-403.0361 310,-335.5 318.9674,-328.1995 329.7519,-322.9818 340.9029,-319.2631"/>
<polygon fill="#191970" stroke="#191970" points="342.1526,-322.5439 350.76,-316.3664 340.1789,-315.8279 342.1526,-322.5439"/>
</g>
<!-- Node19 -->
<g id="node19" class="node">
<title>Node19</title>
<g id="a_node19"><a xlink:href="../../d1/d13/classPHG4PhenixDetector.html#a375bd9d82edcae5f21f39e319f3044b2" target="_top" xlink:title="PHG4PhenixDetector\l::SetWorldSizeX">
<polygon fill="none" stroke="#000000" points="351,-243.5 351,-275.5 473,-275.5 473,-243.5 351,-243.5"/>
<text text-anchor="start" x="359" y="-262.5" font-family="FreeSans" font-size="10.00" fill="#000000">PHG4PhenixDetector</text>
<text text-anchor="middle" x="412" y="-250.5" font-family="FreeSans" font-size="10.00" fill="#000000">::SetWorldSizeX</text>
</a>
</g>
</g>
<!-- Node6&#45;&gt;Node19 -->
<g id="edge21" class="edge">
<title>Node6&#45;&gt;Node19</title>
<path fill="none" stroke="#191970" d="M189.7645,-579.4759C193.5853,-536.6908 214.4369,-367.7657 310,-284.5 318.9137,-276.7334 329.856,-271.2973 341.2273,-267.5094"/>
<polygon fill="#191970" stroke="#191970" points="342.2274,-270.8636 350.845,-264.7002 340.2647,-264.1444 342.2274,-270.8636"/>
</g>
<!-- Node20 -->
<g id="node20" class="node">
<title>Node20</title>
<g id="a_node20"><a xlink:href="../../d1/d13/classPHG4PhenixDetector.html#a74db49898240516c4136bbbdedcff188" target="_top" xlink:title="PHG4PhenixDetector\l::SetWorldSizeY">
<polygon fill="none" stroke="#000000" points="351,-192.5 351,-224.5 473,-224.5 473,-192.5 351,-192.5"/>
<text text-anchor="start" x="359" y="-211.5" font-family="FreeSans" font-size="10.00" fill="#000000">PHG4PhenixDetector</text>
<text text-anchor="middle" x="412" y="-199.5" font-family="FreeSans" font-size="10.00" fill="#000000">::SetWorldSizeY</text>
</a>
</g>
</g>
<!-- Node6&#45;&gt;Node20 -->
<g id="edge22" class="edge">
<title>Node6&#45;&gt;Node20</title>
<path fill="none" stroke="#191970" d="M191.0568,-579.4595C202.0193,-526.8815 255.1338,-283.775 310,-233.5 318.7691,-225.4647 329.6924,-219.9012 341.1025,-216.0715"/>
<polygon fill="#191970" stroke="#191970" points="342.1492,-219.4121 350.765,-213.2461 340.1846,-212.6934 342.1492,-219.4121"/>
</g>
<!-- Node21 -->
<g id="node21" class="node">
<title>Node21</title>
<g id="a_node21"><a xlink:href="../../d1/d13/classPHG4PhenixDetector.html#a7de4106257c7435e45acb3579177c3c4" target="_top" xlink:title="PHG4PhenixDetector\l::SetWorldSizeZ">
<polygon fill="none" stroke="#000000" points="351,-141.5 351,-173.5 473,-173.5 473,-141.5 351,-141.5"/>
<text text-anchor="start" x="359" y="-160.5" font-family="FreeSans" font-size="10.00" fill="#000000">PHG4PhenixDetector</text>
<text text-anchor="middle" x="412" y="-148.5" font-family="FreeSans" font-size="10.00" fill="#000000">::SetWorldSizeZ</text>
</a>
</g>
</g>
<!-- Node6&#45;&gt;Node21 -->
<g id="edge23" class="edge">
<title>Node6&#45;&gt;Node21</title>
<path fill="none" stroke="#191970" d="M190.6523,-579.1948C200.0736,-521.6782 248.7501,-240.8423 310,-182.5 318.6637,-174.2476 329.5884,-168.5833 341.0456,-164.7225"/>
<polygon fill="#191970" stroke="#191970" points="342.1391,-168.0494 350.7569,-161.8864 340.1767,-161.3301 342.1391,-168.0494"/>
</g>
<!-- Node22 -->
<g id="node22" class="node">
<title>Node22</title>
<g id="a_node22"><a xlink:href="../../d1/d13/classPHG4PhenixDetector.html#a570bf81e75c124d0d3d80040fc69ca8b" target="_top" xlink:title="PHG4PhenixDetector\l::SetWorldShape">
<polygon fill="none" stroke="#000000" points="351,-90.5 351,-122.5 473,-122.5 473,-90.5 351,-90.5"/>
<text text-anchor="start" x="359" y="-109.5" font-family="FreeSans" font-size="10.00" fill="#000000">PHG4PhenixDetector</text>
<text text-anchor="middle" x="412" y="-97.5" font-family="FreeSans" font-size="10.00" fill="#000000">::SetWorldShape</text>
</a>
</g>
</g>
<!-- Node6&#45;&gt;Node22 -->
<g id="edge24" class="edge">
<title>Node6&#45;&gt;Node22</title>
<path fill="none" stroke="#191970" d="M190.2976,-579.154C198.2431,-517.4153 242.2328,-198.0629 310,-131.5 318.5869,-123.0657 329.528,-117.3189 341.0381,-113.4344"/>
<polygon fill="#191970" stroke="#191970" points="342.1787,-116.7477 350.8013,-110.5913 340.2215,-110.0269 342.1787,-116.7477"/>
</g>
<!-- Node23 -->
<g id="node23" class="node">
<title>Node23</title>
<g id="a_node23"><a xlink:href="../../d1/d13/classPHG4PhenixDetector.html#acdba581a56ceb2717c1553449802b153" target="_top" xlink:title="PHG4PhenixDetector\l::SetWorldMaterial">
<polygon fill="none" stroke="#000000" points="351,-39.5 351,-71.5 473,-71.5 473,-39.5 351,-39.5"/>
<text text-anchor="start" x="359" y="-58.5" font-family="FreeSans" font-size="10.00" fill="#000000">PHG4PhenixDetector</text>
<text text-anchor="middle" x="412" y="-46.5" font-family="FreeSans" font-size="10.00" fill="#000000">::SetWorldMaterial</text>
</a>
</g>
</g>
<!-- Node6&#45;&gt;Node23 -->
<g id="edge25" class="edge">
<title>Node6&#45;&gt;Node23</title>
<path fill="none" stroke="#191970" d="M189.9908,-579.314C196.5353,-514.0955 235.5968,-155.4236 310,-80.5 318.5314,-71.9089 329.5001,-66.0927 341.0676,-62.1898"/>
<polygon fill="#191970" stroke="#191970" points="342.2555,-65.4895 350.8847,-59.3424 340.3056,-58.7666 342.2555,-65.4895"/>
</g>
<!-- Node24 -->
<g id="node24" class="node">
<title>Node24</title>
<g id="a_node24"><a xlink:href="../../d1/da8/classPHFlag.html#a88212f810275c61464d51caa3cd4d1e1" target="_top" xlink:title="PHFlag::set_FloatFlag">
<polygon fill="none" stroke="#000000" points="350,-.5 350,-20.5 474,-20.5 474,-.5 350,-.5"/>
<text text-anchor="middle" x="412" y="-7.5" font-family="FreeSans" font-size="10.00" fill="#000000">PHFlag::set_FloatFlag</text>
</a>
</g>
</g>
<!-- Node6&#45;&gt;Node24 -->
<g id="edge26" class="edge">
<title>Node6&#45;&gt;Node24</title>
<path fill="none" stroke="#191970" d="M189.7098,-579.1583C194.6956,-509.6143 226.719,-110.4296 310,-29.5 318.2928,-21.4413 328.8406,-16.2295 339.9908,-12.9435"/>
<polygon fill="#191970" stroke="#191970" points="341.0159,-16.2963 349.9031,-10.5285 339.3588,-9.4952 341.0159,-16.2963"/>
</g>
<!-- Node25 -->
<g id="node25" class="node">
<title>Node25</title>
<g id="a_node25"><a xlink:href="../../db/df7/classPHG4Subsystem.html#afcc011c14ac7853b01796ebbb26c8512" target="_top" xlink:title="return pointer to created detector object">
<polygon fill="none" stroke="#000000" points="327.5,-1053.5 327.5,-1073.5 496.5,-1073.5 496.5,-1053.5 327.5,-1053.5"/>
<text text-anchor="middle" x="412" y="-1060.5" font-family="FreeSans" font-size="10.00" fill="#000000">PHG4Subsystem::GetDetector</text>
</a>
</g>
</g>
<!-- Node6&#45;&gt;Node25 -->
<g id="edge27" class="edge">
<title>Node6&#45;&gt;Node25</title>
<path fill="none" stroke="#191970" d="M190.2556,-599.8339C197.9561,-661.4927 240.7634,-980.3193 310,-1044.5 312.6565,-1046.9625 315.525,-1049.1554 318.5559,-1051.1058"/>
<polygon fill="#191970" stroke="#191970" points="317.032,-1054.2615 327.486,-1055.983 320.3873,-1048.118 317.032,-1054.2615"/>
</g>
<!-- Node26 -->
<g id="node26" class="node">
<title>Node26</title>
<g id="a_node26"><a xlink:href="../../d1/d13/classPHG4PhenixDetector.html#a2e9d45f2c881b6c9ced3b3031333f1b6" target="_top" xlink:title="register a detector. This is called in PHG4Reco::Init based on which detectors are found on the tree...">
<polygon fill="none" stroke="#000000" points="351,-1002.5 351,-1034.5 473,-1034.5 473,-1002.5 351,-1002.5"/>
<text text-anchor="start" x="359" y="-1021.5" font-family="FreeSans" font-size="10.00" fill="#000000">PHG4PhenixDetector</text>
<text text-anchor="middle" x="412" y="-1009.5" font-family="FreeSans" font-size="10.00" fill="#000000">::AddDetector</text>
</a>
</g>
</g>
<!-- Node6&#45;&gt;Node26 -->
<g id="edge28" class="edge">
<title>Node6&#45;&gt;Node26</title>
<path fill="none" stroke="#191970" d="M190.6638,-599.7301C200.1473,-656.8274 249.1061,-935.6144 310,-993.5 318.6721,-1001.7437 329.6009,-1007.4037 341.0595,-1011.263"/>
<polygon fill="#191970" stroke="#191970" points="340.1912,-1014.6555 350.7714,-1014.0984 342.1531,-1007.936 340.1912,-1014.6555"/>
</g>
<!-- Node27 -->
<g id="node27" class="node">
<title>Node27</title>
<g id="a_node27"><a xlink:href="../../d0/d78/classPHG4Reco.html#af0c0ba5027360ea57d9ee31bc949e4dd" target="_top" xlink:title="PHG4Reco::setupInputEvent\lNodeReader">
<polygon fill="none" stroke="#000000" points="558,-414.5 558,-446.5 717,-446.5 717,-414.5 558,-414.5"/>
<text text-anchor="start" x="566" y="-433.5" font-family="FreeSans" font-size="10.00" fill="#000000">PHG4Reco::setupInputEvent</text>
<text text-anchor="middle" x="637.5" y="-421.5" font-family="FreeSans" font-size="10.00" fill="#000000">NodeReader</text>
</a>
</g>
</g>
<!-- Node6&#45;&gt;Node27 -->
<g id="edge29" class="edge">
<title>Node6&#45;&gt;Node27</title>
<path fill="none" stroke="#191970" d="M194.3316,-579.1655C208.7372,-552.4829 251.3435,-481.3573 310,-452.5 383.9268,-416.1301 478.8088,-413.8237 547.3977,-418.7057"/>
<polygon fill="#191970" stroke="#191970" points="547.505,-422.2245 557.7464,-419.5107 548.048,-415.2456 547.505,-422.2245"/>
</g>
<!-- Node31 -->
<g id="node31" class="node">
<title>Node31</title>
<g id="a_node31"><a xlink:href="../../db/df7/classPHG4Subsystem.html#aee1a94900ddad7d524715eee1de85343" target="_top" xlink:title="return pointer to this subsystem event action">
<polygon fill="none" stroke="#000000" points="319.5,-963.5 319.5,-983.5 504.5,-983.5 504.5,-963.5 319.5,-963.5"/>
<text text-anchor="middle" x="412" y="-970.5" font-family="FreeSans" font-size="10.00" fill="#000000">PHG4Subsystem::GetEventAction</text>
</a>
</g>
</g>
<!-- Node6&#45;&gt;Node31 -->
<g id="edge35" class="edge">
<title>Node6&#45;&gt;Node31</title>
<path fill="none" stroke="#191970" d="M190.9678,-599.8485C201.4769,-654.032 252.6545,-904.4645 310,-954.5 311.353,-955.6806 312.7554,-956.798 314.2011,-957.8554"/>
<polygon fill="#191970" stroke="#191970" points="312.5751,-960.9659 322.9147,-963.2772 316.2732,-955.0224 312.5751,-960.9659"/>
</g>
<!-- Node32 -->
<g id="node32" class="node">
<title>Node32</title>
<g id="a_node32"><a xlink:href="../../d9/d7a/classPHG4PhenixEventAction.html#a715e0072dfcc8b3cf9434e77ee0858f6" target="_top" xlink:title="register an action. This is called in PHG4Reco::Init based on which actions are found on the tree...">
<polygon fill="none" stroke="#000000" points="342.5,-912.5 342.5,-944.5 481.5,-944.5 481.5,-912.5 342.5,-912.5"/>
<text text-anchor="start" x="350.5" y="-931.5" font-family="FreeSans" font-size="10.00" fill="#000000">PHG4PhenixEventAction</text>
<text text-anchor="middle" x="412" y="-919.5" font-family="FreeSans" font-size="10.00" fill="#000000">::AddAction</text>
</a>
</g>
</g>
<!-- Node6&#45;&gt;Node32 -->
<g id="edge36" class="edge">
<title>Node6&#45;&gt;Node32</title>
<path fill="none" stroke="#191970" d="M189.6381,-599.5173C192.9703,-643.046 212.1987,-817.432 310,-903.5 316.6629,-909.3635 324.48,-913.9011 332.7715,-917.4049"/>
<polygon fill="#191970" stroke="#191970" points="331.7051,-920.7423 342.2981,-920.9372 334.1387,-914.1789 331.7051,-920.7423"/>
</g>
<!-- Node33 -->
<g id="node33" class="node">
<title>Node33</title>
<g id="a_node33"><a xlink:href="../../db/df7/classPHG4Subsystem.html#ae6c6f2bb38572d697d711cbe425bf263" target="_top" xlink:title="return pointer to this subsystem stepping action">
<polygon fill="none" stroke="#000000" points="327,-861.5 327,-893.5 497,-893.5 497,-861.5 327,-861.5"/>
<text text-anchor="start" x="335" y="-880.5" font-family="FreeSans" font-size="10.00" fill="#000000">PHG4Subsystem::GetStepping</text>
<text text-anchor="middle" x="412" y="-868.5" font-family="FreeSans" font-size="10.00" fill="#000000">Action</text>
</a>
</g>
</g>
<!-- Node6&#45;&gt;Node33 -->
<g id="edge37" class="edge">
<title>Node6&#45;&gt;Node33</title>
<path fill="none" stroke="#191970" d="M190.4888,-599.7321C196.7812,-639.1255 224.9134,-782.2782 310,-852.5 312.5663,-854.618 315.2851,-856.561 318.1216,-858.3433"/>
<polygon fill="#191970" stroke="#191970" points="316.5041,-861.4483 326.9493,-863.2222 319.8901,-855.3217 316.5041,-861.4483"/>
</g>
<!-- Node34 -->
<g id="node34" class="node">
<title>Node34</title>
<g id="a_node34"><a xlink:href="../../d1/d53/classPHG4PhenixSteppingAction.html#afead1d30da1e7c68616987bdf711a25b" target="_top" xlink:title="register an action. This is called in PHG4Reco::Init based on which actions are found on the tree...">
<polygon fill="none" stroke="#000000" points="334.5,-810.5 334.5,-842.5 489.5,-842.5 489.5,-810.5 334.5,-810.5"/>
<text text-anchor="start" x="342.5" y="-829.5" font-family="FreeSans" font-size="10.00" fill="#000000">PHG4PhenixSteppingAction</text>
<text text-anchor="middle" x="412" y="-817.5" font-family="FreeSans" font-size="10.00" fill="#000000">::AddAction</text>
</a>
</g>
</g>
<!-- Node6&#45;&gt;Node34 -->
<g id="edge38" class="edge">
<title>Node6&#45;&gt;Node34</title>
<path fill="none" stroke="#191970" d="M191.7195,-599.8494C201.3546,-634.3932 237.26,-746.6309 310,-801.5 314.6624,-805.0169 319.7549,-808.0451 325.0969,-810.6519"/>
<polygon fill="#191970" stroke="#191970" points="323.7248,-813.8718 334.2908,-814.6529 326.518,-807.4532 323.7248,-813.8718"/>
</g>
<!-- Node35 -->
<g id="node35" class="node">
<title>Node35</title>
<g id="a_node35"><a xlink:href="../../d0/ddf/classPHG4PhenixTrackingAction.html#a300a79aafe903fda71e3683cc873f1a8" target="_top" xlink:title="register an action. This is called in PHG4Reco::Init based on which actions are found on the tree...">
<polygon fill="none" stroke="#000000" points="336,-759.5 336,-791.5 488,-791.5 488,-759.5 336,-759.5"/>
<text text-anchor="start" x="344" y="-778.5" font-family="FreeSans" font-size="10.00" fill="#000000">PHG4PhenixTrackingAction</text>
<text text-anchor="middle" x="412" y="-766.5" font-family="FreeSans" font-size="10.00" fill="#000000">::AddAction</text>
</a>
</g>
</g>
<!-- Node6&#45;&gt;Node35 -->
<g id="edge39" class="edge">
<title>Node6&#45;&gt;Node35</title>
<path fill="none" stroke="#191970" d="M193.5703,-599.7174C206.9554,-628.4105 249.0072,-710.2484 310,-750.5 315.1929,-753.927 320.8139,-756.8846 326.6565,-759.4371"/>
<polygon fill="#191970" stroke="#191970" points="325.4038,-762.7054 335.9904,-763.1238 327.9754,-756.1948 325.4038,-762.7054"/>
</g>
<!-- Node36 -->
<g id="node36" class="node">
<title>Node36</title>
<g id="a_node36"><a xlink:href="../../db/df7/classPHG4Subsystem.html#a8849b3410711577ec2e793987144ab69" target="_top" xlink:title="return pointer to this subsystem stepping action">
<polygon fill="none" stroke="#000000" points="328.5,-708.5 328.5,-740.5 495.5,-740.5 495.5,-708.5 328.5,-708.5"/>
<text text-anchor="start" x="336.5" y="-727.5" font-family="FreeSans" font-size="10.00" fill="#000000">PHG4Subsystem::GetTracking</text>
<text text-anchor="middle" x="412" y="-715.5" font-family="FreeSans" font-size="10.00" fill="#000000">Action</text>
</a>
</g>
</g>
<!-- Node6&#45;&gt;Node36 -->
<g id="edge40" class="edge">
<title>Node6&#45;&gt;Node36</title>
<path fill="none" stroke="#191970" d="M197.1772,-599.8137C215.1321,-621.7305 260.3779,-673.0903 310,-699.5 313.5208,-701.3738 317.1846,-703.1099 320.9413,-704.7182"/>
<polygon fill="#191970" stroke="#191970" points="319.8553,-708.0521 330.4424,-708.4582 322.4194,-701.5385 319.8553,-708.0521"/>
</g>
<!-- Node37 -->
<g id="node37" class="node">
<title>Node37</title>
<g id="a_node37"><a xlink:href="../../d3/d64/classPHG4UIsession.html#a6c62aa280017bbed8399feaa21c1b342" target="_top" xlink:title="PHG4UIsession::Verbosity">
<polygon fill="none" stroke="#000000" points="339,-669.5 339,-689.5 485,-689.5 485,-669.5 339,-669.5"/>
<text text-anchor="middle" x="412" y="-676.5" font-family="FreeSans" font-size="10.00" fill="#000000">PHG4UIsession::Verbosity</text>
</a>
</g>
</g>
<!-- Node6&#45;&gt;Node37 -->
<g id="edge41" class="edge">
<title>Node6&#45;&gt;Node37</title>
<path fill="none" stroke="#191970" d="M202.7198,-599.7235C224.3551,-615.3259 268.2444,-644.9068 310,-660.5 316.6708,-662.9911 323.7136,-665.166 330.8544,-667.0628"/>
<polygon fill="#191970" stroke="#191970" points="330.0791,-670.4764 340.627,-669.4806 331.7603,-663.6813 330.0791,-670.4764"/>
</g>
<!-- Node38 -->
<g id="node38" class="node">
<title>Node38</title>
<g id="a_node38"><a xlink:href="../../d2/da1/classPHGeomUtility.html#a3130e3b42131e3f048aa7586829192c5" target="_top" xlink:title="PHGeomUtility::GenerateGeometry\lFileName">
<polygon fill="none" stroke="#000000" points="315,-618.5 315,-650.5 509,-650.5 509,-618.5 315,-618.5"/>
<text text-anchor="start" x="323" y="-637.5" font-family="FreeSans" font-size="10.00" fill="#000000">PHGeomUtility::GenerateGeometry</text>
<text text-anchor="middle" x="412" y="-625.5" font-family="FreeSans" font-size="10.00" fill="#000000">FileName</text>
</a>
</g>
</g>
<!-- Node6&#45;&gt;Node38 -->
<g id="edge42" class="edge">
<title>Node6&#45;&gt;Node38</title>
<path fill="none" stroke="#191970" d="M238.768,-599.5429C263.4558,-604.5247 294.0396,-610.6963 322.6064,-616.4609"/>
<polygon fill="#191970" stroke="#191970" points="322.119,-619.9331 332.6138,-618.4804 323.5037,-613.0714 322.119,-619.9331"/>
</g>
<!-- Node39 -->
<g id="node39" class="node">
<title>Node39</title>
<g id="a_node39"><a xlink:href="../../d0/d78/classPHG4Reco.html#a490f5037508d384c5b60855ef0f7e227" target="_top" xlink:title="PHG4Reco::Dump_GDML">
<polygon fill="none" stroke="#000000" points="341.5,-540.5 341.5,-560.5 482.5,-560.5 482.5,-540.5 341.5,-540.5"/>
<text text-anchor="middle" x="412" y="-547.5" font-family="FreeSans" font-size="10.00" fill="#000000">PHG4Reco::Dump_GDML</text>
</a>
</g>
</g>
<!-- Node6&#45;&gt;Node39 -->
<g id="edge43" class="edge">
<title>Node6&#45;&gt;Node39</title>
<path fill="none" stroke="#191970" d="M244.1236,-579.8595C274.4994,-574.5472 312.4506,-567.91 344.581,-562.2908"/>
<polygon fill="#191970" stroke="#191970" points="345.5439,-565.6756 354.7914,-560.5051 344.338,-558.7802 345.5439,-565.6756"/>
</g>
<!-- Node45 -->
<g id="node45" class="node">
<title>Node45</title>
<g id="a_node45"><a xlink:href="../../d2/da1/classPHGeomUtility.html#a4a80252bedb22198d011065e41aa669e" target="_top" xlink:title="TGeo ROOT/GDML/Macro file &#45;&gt; DST node with automatic file type discrimination based on file names...">
<polygon fill="none" stroke="#000000" points="324,-501.5 324,-521.5 500,-521.5 500,-501.5 324,-501.5"/>
<text text-anchor="middle" x="412" y="-508.5" font-family="FreeSans" font-size="10.00" fill="#000000">PHGeomUtility::ImportGeomFile</text>
</a>
</g>
</g>
<!-- Node6&#45;&gt;Node45 -->
<g id="edge51" class="edge">
<title>Node6&#45;&gt;Node45</title>
<path fill="none" stroke="#191970" d="M206.4488,-579.3881C229.4544,-566.4705 271.5272,-544.2624 310,-531.5 318.8984,-528.5482 328.386,-525.9707 337.8572,-523.7373"/>
<polygon fill="#191970" stroke="#191970" points="338.7029,-527.1347 347.6958,-521.5331 337.1725,-520.304 338.7029,-527.1347"/>
</g>
<!-- Node50 -->
<g id="node50" class="node">
<title>Node50</title>
<g id="a_node50"><a xlink:href="../../d2/da1/classPHGeomUtility.html#af9c141256e014a36b8af77075894b41f" target="_top" xlink:title="delete the geometry file after use">
<polygon fill="none" stroke="#000000" points="310,-462.5 310,-482.5 514,-482.5 514,-462.5 310,-462.5"/>
<text text-anchor="middle" x="412" y="-469.5" font-family="FreeSans" font-size="10.00" fill="#000000">PHGeomUtility::RemoveGeometryFile</text>
</a>
</g>
</g>
<!-- Node6&#45;&gt;Node50 -->
<g id="edge58" class="edge">
<title>Node6&#45;&gt;Node50</title>
<path fill="none" stroke="#191970" d="M198.1841,-579.2221C216.9853,-558.8896 262.1393,-513.5927 310,-491.5 314.9064,-489.2352 320.0636,-487.2403 325.3455,-485.4831"/>
<polygon fill="#191970" stroke="#191970" points="326.4047,-488.8194 334.9602,-482.57 324.3749,-482.1201 326.4047,-488.8194"/>
</g>
<!-- Node8 -->
<g id="node8" class="node">
<title>Node8</title>
<g id="a_node8"><a xlink:href="../../d8/d14/classrecoConsts.html#ae882d6adc62f783ec78114fe3dee3c24" target="_top" xlink:title="recoConsts::recoConsts">
<polygon fill="none" stroke="#000000" points="570,-675.5 570,-695.5 705,-695.5 705,-675.5 570,-675.5"/>
<text text-anchor="middle" x="637.5" y="-682.5" font-family="FreeSans" font-size="10.00" fill="#000000">recoConsts::recoConsts</text>
</a>
</g>
</g>
<!-- Node7&#45;&gt;Node8 -->
<g id="edge8" class="edge">
<title>Node7&#45;&gt;Node8</title>
<path fill="none" stroke="#191970" d="M473.1878,-593.2369C487.4818,-596.2671 502.0152,-601.291 514,-609.5 538.7202,-626.432 525.4521,-649.3192 550,-666.5 553.2734,-668.7911 556.7716,-670.8136 560.4164,-672.5984"/>
<polygon fill="#191970" stroke="#191970" points="559.1618,-675.8682 569.7339,-676.563 561.9026,-669.427 559.1618,-675.8682"/>
</g>
<!-- Node9&#45;&gt;Node5 -->
<g id="edge10" class="edge">
<title>Node9&#45;&gt;Node5</title>
<path fill="none" stroke="#191970" d="M469.779,-1112.4928C500.1584,-1117.7469 537.5872,-1124.2202 569.3737,-1129.7176"/>
<polygon fill="#191970" stroke="#191970" points="569.0294,-1133.21 579.4797,-1131.4654 570.2224,-1126.3124 569.0294,-1133.21"/>
</g>
<!-- Node10 -->
<g id="node10" class="node">
<title>Node10</title>
<g id="a_node10"><a xlink:href="../../df/d4d/classPHFieldUtility.html#a3afdd4e878d02b30b6f2c396e52b8e48" target="_top" xlink:title="Get transient PHField from DST nodes. If not found, make a new one based on default_config.">
<polygon fill="none" stroke="#000000" points="572.5,-898.5 572.5,-930.5 702.5,-930.5 702.5,-898.5 572.5,-898.5"/>
<text text-anchor="start" x="580.5" y="-917.5" font-family="FreeSans" font-size="10.00" fill="#000000">PHFieldUtility::GetField</text>
<text text-anchor="middle" x="637.5" y="-905.5" font-family="FreeSans" font-size="10.00" fill="#000000">MapNode</text>
</a>
</g>
</g>
<!-- Node9&#45;&gt;Node10 -->
<g id="edge11" class="edge">
<title>Node9&#45;&gt;Node10</title>
<path fill="none" stroke="#191970" d="M469.593,-1099.4604C484.8946,-1096.663 500.8148,-1091.8021 514,-1083.5 569.8931,-1048.3066 608.6738,-977.8964 626.4664,-940.0172"/>
<polygon fill="#191970" stroke="#191970" points="629.7558,-941.2399 630.7307,-930.69 623.3896,-938.3293 629.7558,-941.2399"/>
</g>
<!-- Node10&#45;&gt;Node11 -->
<g id="edge12" class="edge">
<title>Node10&#45;&gt;Node11</title>
<path fill="none" stroke="#191970" d="M702.7507,-920.2264C725.7376,-922.2437 751.8133,-924.5321 775.7614,-926.6338"/>
<polygon fill="#191970" stroke="#191970" points="775.6116,-930.134 785.8793,-927.5217 776.2236,-923.1608 775.6116,-930.134"/>
</g>
<!-- Node10&#45;&gt;Node12 -->
<g id="edge13" class="edge">
<title>Node10&#45;&gt;Node12</title>
<path fill="none" stroke="#191970" d="M702.7507,-908.4722C725.7376,-906.3487 751.8133,-903.9399 775.7614,-901.7276"/>
<polygon fill="#191970" stroke="#191970" points="776.2437,-905.198 785.8793,-900.7929 775.5997,-898.2277 776.2437,-905.198"/>
</g>
<!-- Node13 -->
<g id="node13" class="node">
<title>Node13</title>
<g id="a_node13"><a xlink:href="../../d5/d07/classPHNodeIterator.html#aea98bf8619af59b1212a94fb32106baa" target="_top" xlink:title="PHNodeIterator::findFirst">
<polygon fill="none" stroke="#000000" points="783.5,-580.5 783.5,-600.5 924.5,-600.5 924.5,-580.5 783.5,-580.5"/>
<text text-anchor="middle" x="854" y="-587.5" font-family="FreeSans" font-size="10.00" fill="#000000">PHNodeIterator::findFirst</text>
</a>
</g>
</g>
<!-- Node10&#45;&gt;Node13 -->
<g id="edge14" class="edge">
<title>Node10&#45;&gt;Node13</title>
<path fill="none" stroke="#191970" d="M644.3342,-898.2201C669.4865,-838.3627 755.7261,-633.6708 761,-628.5 772.0297,-617.6858 786.5583,-609.806 800.8447,-604.1247"/>
<polygon fill="#191970" stroke="#191970" points="802.4642,-607.259 810.6507,-600.5336 800.057,-600.6859 802.4642,-607.259"/>
</g>
<!-- Node13&#45;&gt;Node13 -->
<g id="edge17" class="edge">
<title>Node13&#45;&gt;Node13</title>
<path fill="none" stroke="#191970" d="M822.0627,-600.7271C807.4949,-609.6067 818.1406,-619 854,-619 879.2136,-619 891.962,-614.3561 892.2452,-608.5121"/>
<polygon fill="#191970" stroke="#191970" points="894.9521,-606.2933 885.9373,-600.7271 889.5134,-610.7002 894.9521,-606.2933"/>
</g>
<!-- Node14 -->
<g id="node14" class="node">
<title>Node14</title>
<g id="a_node14"><a xlink:href="../../dc/d82/classPHNode.html#a4ab1f90aed955a652813bfe377087bda" target="_top" xlink:title="PHNode::getType">
<polygon fill="none" stroke="#000000" points="1008,-580.5 1008,-600.5 1111,-600.5 1111,-580.5 1008,-580.5"/>
<text text-anchor="middle" x="1059.5" y="-587.5" font-family="FreeSans" font-size="10.00" fill="#000000">PHNode::getType</text>
</a>
</g>
</g>
<!-- Node13&#45;&gt;Node14 -->
<g id="edge15" class="edge">
<title>Node13&#45;&gt;Node14</title>
<path fill="none" stroke="#191970" d="M924.7214,-590.5C948.3816,-590.5 974.5593,-590.5 997.502,-590.5"/>
<polygon fill="#191970" stroke="#191970" points="997.795,-594.0001 1007.795,-590.5 997.795,-587.0001 997.795,-594.0001"/>
</g>
<!-- Node15 -->
<g id="node15" class="node">
<title>Node15</title>
<g id="a_node15"><a xlink:href="../../dc/d82/classPHNode.html#aca3576f926a4401eddc3d88bf0ce0de3" target="_top" xlink:title="PHNode::getName">
<polygon fill="none" stroke="#000000" points="1005,-531.5 1005,-551.5 1114,-551.5 1114,-531.5 1005,-531.5"/>
<text text-anchor="middle" x="1059.5" y="-538.5" font-family="FreeSans" font-size="10.00" fill="#000000">PHNode::getName</text>
</a>
</g>
</g>
<!-- Node13&#45;&gt;Node15 -->
<g id="edge16" class="edge">
<title>Node13&#45;&gt;Node15</title>
<path fill="none" stroke="#191970" d="M905.77,-580.4882C919.2289,-577.7309 933.6857,-574.6324 947,-571.5 969.236,-566.2686 993.7629,-559.8099 1014.2251,-554.2268"/>
<polygon fill="#191970" stroke="#191970" points="1015.1997,-557.5888 1023.9158,-551.5656 1013.3459,-550.8387 1015.1997,-557.5888"/>
</g>
<!-- Node27&#45;&gt;Node13 -->
<g id="edge30" class="edge">
<title>Node27&#45;&gt;Node13</title>
<path fill="none" stroke="#191970" d="M713.3456,-446.5547C717.5609,-449.1151 721.4979,-452.0762 725,-455.5 763.5998,-493.2364 720.9805,-535.2728 761,-571.5 764.8713,-575.0045 769.2091,-577.9325 773.8386,-580.373"/>
<polygon fill="#191970" stroke="#191970" points="772.497,-583.607 783.0551,-584.489 775.3515,-577.2154 772.497,-583.607"/>
</g>
<!-- Node28 -->
<g id="node28" class="node">
<title>Node28</title>
<g id="a_node28"><a xlink:href="../../d5/dca/classPHCompositeNode.html#a15a0c4804399a9de4267647f05bd1ba4" target="_top" xlink:title="PHCompositeNode::addNode">
<polygon fill="none" stroke="#000000" points="773,-449.5 773,-469.5 935,-469.5 935,-449.5 773,-449.5"/>
<text text-anchor="middle" x="854" y="-456.5" font-family="FreeSans" font-size="10.00" fill="#000000">PHCompositeNode::addNode</text>
</a>
</g>
</g>
<!-- Node27&#45;&gt;Node28 -->
<g id="edge31" class="edge">
<title>Node27&#45;&gt;Node28</title>
<path fill="none" stroke="#191970" d="M717.1943,-441.175C734.1266,-443.4431 752.0629,-445.8456 769.1784,-448.1382"/>
<polygon fill="#191970" stroke="#191970" points="768.771,-451.6148 779.1472,-449.4735 769.7004,-444.6768 768.771,-451.6148"/>
</g>
<!-- Node28&#45;&gt;Node15 -->
<g id="edge32" class="edge">
<title>Node28&#45;&gt;Node15</title>
<path fill="none" stroke="#191970" d="M883.9336,-469.5273C902.2604,-475.8132 926.1237,-484.2614 947,-492.5 974.7914,-503.4676 1005.8966,-517.1244 1028.3438,-527.2323"/>
<polygon fill="#191970" stroke="#191970" points="1027.1479,-530.5328 1037.7016,-531.4663 1030.0335,-524.1552 1027.1479,-530.5328"/>
</g>
<!-- Node29 -->
<g id="node29" class="node">
<title>Node29</title>
<g id="a_node29"><a xlink:href="../../dc/d82/classPHNode.html#adda2bd6cef2d5067bbe3016a990b7198" target="_top" xlink:title="PHNode::setParent">
<polygon fill="none" stroke="#000000" points="1004,-434.5 1004,-454.5 1115,-454.5 1115,-434.5 1004,-434.5"/>
<text text-anchor="middle" x="1059.5" y="-441.5" font-family="FreeSans" font-size="10.00" fill="#000000">PHNode::setParent</text>
</a>
</g>
</g>
<!-- Node28&#45;&gt;Node29 -->
<g id="edge33" class="edge">
<title>Node28&#45;&gt;Node29</title>
<path fill="none" stroke="#191970" d="M935.219,-453.5716C954.6242,-452.1552 975.1022,-450.6604 993.7134,-449.3019"/>
<polygon fill="#191970" stroke="#191970" points="994.1235,-452.7814 1003.8422,-448.5626 993.6139,-445.8 994.1235,-452.7814"/>
</g>
<!-- Node30 -->
<g id="node30" class="node">
<title>Node30</title>
<g id="a_node30"><a xlink:href="../../d6/d86/classPHPointerList.html#ac2176735e9d046a034f1686fd2c477eb" target="_top" xlink:title="PHPointerList::append">
<polygon fill="none" stroke="#000000" points="995.5,-473.5 995.5,-493.5 1123.5,-493.5 1123.5,-473.5 995.5,-473.5"/>
<text text-anchor="middle" x="1059.5" y="-480.5" font-family="FreeSans" font-size="10.00" fill="#000000">PHPointerList::append</text>
</a>
</g>
</g>
<!-- Node28&#45;&gt;Node30 -->
<g id="edge34" class="edge">
<title>Node28&#45;&gt;Node30</title>
<path fill="none" stroke="#191970" d="M935.219,-468.9854C951.7564,-470.9168 969.0729,-472.9392 985.3491,-474.84"/>
<polygon fill="#191970" stroke="#191970" points="984.9941,-478.3223 995.3326,-476.006 985.8061,-471.3695 984.9941,-478.3223"/>
</g>
<!-- Node40 -->
<g id="node40" class="node">
<title>Node40</title>
<g id="a_node40"><a xlink:href="../../d9/df8/classPHG4GDMLUtility.html#adb03ec38807279cb5abaf38987c5a73f" target="_top" xlink:title="save the current Geant4 geometry to GDML file. Reading PHG4GDMLConfig from topNode">
<polygon fill="none" stroke="#000000" points="550,-636.5 550,-656.5 725,-656.5 725,-636.5 550,-636.5"/>
<text text-anchor="middle" x="637.5" y="-643.5" font-family="FreeSans" font-size="10.00" fill="#000000">PHG4GDMLUtility::Dump_GDML</text>
</a>
</g>
</g>
<!-- Node39&#45;&gt;Node40 -->
<g id="edge44" class="edge">
<title>Node39&#45;&gt;Node40</title>
<path fill="none" stroke="#191970" d="M482.6475,-556.7796C493.7359,-559.8474 504.617,-564.2419 514,-570.5 537.9967,-586.5049 526.4333,-607.8684 550,-624.5 554.4792,-627.6611 559.3692,-630.369 564.4739,-632.6887"/>
<polygon fill="#191970" stroke="#191970" points="563.2681,-635.9761 573.8519,-636.4586 565.879,-629.4813 563.2681,-635.9761"/>
</g>
<!-- Node44 -->
<g id="node44" class="node">
<title>Node44</title>
<g id="a_node44"><a xlink:href="../../d1/d13/classPHG4PhenixDetector.html#a08f9f09748e767ac536249ac56995fd2" target="_top" xlink:title="PHG4PhenixDetector\l::GetPhysicalVolume">
<polygon fill="none" stroke="#000000" points="576.5,-582.5 576.5,-614.5 698.5,-614.5 698.5,-582.5 576.5,-582.5"/>
<text text-anchor="start" x="584.5" y="-601.5" font-family="FreeSans" font-size="10.00" fill="#000000">PHG4PhenixDetector</text>
<text text-anchor="middle" x="637.5" y="-589.5" font-family="FreeSans" font-size="10.00" fill="#000000">::GetPhysicalVolume</text>
</a>
</g>
</g>
<!-- Node39&#45;&gt;Node44 -->
<g id="edge50" class="edge">
<title>Node39&#45;&gt;Node44</title>
<path fill="none" stroke="#191970" d="M464.737,-560.5346C480.5934,-563.6341 498.0218,-567.123 514,-570.5 530.992,-574.0913 549.2571,-578.1324 566.3915,-582.0037"/>
<polygon fill="#191970" stroke="#191970" points="565.8045,-585.4594 576.3311,-584.2588 567.3534,-578.6329 565.8045,-585.4594"/>
</g>
<!-- Node40&#45;&gt;Node11 -->
<g id="edge45" class="edge">
<title>Node40&#45;&gt;Node11</title>
<path fill="none" stroke="#191970" d="M712.2725,-656.5182C716.9794,-659.2049 721.3019,-662.4913 725,-666.5 800.5206,-748.3632 684.5356,-833.5177 761,-914.5 765.4547,-919.2179 770.7392,-922.9341 776.4929,-925.8449"/>
<polygon fill="#191970" stroke="#191970" points="775.2935,-929.1373 785.8686,-929.7845 778.0052,-922.6839 775.2935,-929.1373"/>
</g>
<!-- Node40&#45;&gt;Node12 -->
<g id="edge46" class="edge">
<title>Node40&#45;&gt;Node12</title>
<path fill="none" stroke="#191970" d="M706.8221,-656.503C713.3087,-659.1246 719.5018,-662.4037 725,-666.5 798.1131,-720.9713 835.8245,-829.9468 848.7446,-874.66"/>
<polygon fill="#191970" stroke="#191970" points="845.3865,-875.6483 851.4408,-884.3429 852.13,-873.7705 845.3865,-875.6483"/>
</g>
<!-- Node41 -->
<g id="node41" class="node">
<title>Node41</title>
<g id="a_node41"><a xlink:href="../../d9/d03/KFParticleBaseSIMD_8h.html#a4c97ec619a52c5cf9d89748433ee16aa" target="_top" xlink:title="Initialize">
<polygon fill="none" stroke="#000000" points="825,-541.5 825,-561.5 883,-561.5 883,-541.5 825,-541.5"/>
<text text-anchor="middle" x="854" y="-548.5" font-family="FreeSans" font-size="10.00" fill="#000000">Initialize</text>
</a>
</g>
</g>
<!-- Node40&#45;&gt;Node41 -->
<g id="edge47" class="edge">
<title>Node40&#45;&gt;Node41</title>
<path fill="none" stroke="#191970" d="M701.1081,-636.4018C709.5809,-633.4069 717.8114,-629.5267 725,-624.5 748.3363,-608.1819 737.3857,-587.4132 761,-571.5 776.799,-560.8533 797.2439,-555.7407 814.9394,-553.3365"/>
<polygon fill="#191970" stroke="#191970" points="815.4359,-556.8029 824.9847,-552.2126 814.6575,-549.8463 815.4359,-556.8029"/>
</g>
<!-- Node42 -->
<g id="node42" class="node">
<title>Node42</title>
<g id="a_node42"><a xlink:href="../../dd/db5/classPHG4GDMLWrite.html#af4241e53bb71408c9bf11117053f9810" target="_top" xlink:title="PHG4GDMLWrite::Write">
<polygon fill="none" stroke="#ff0000" points="787.5,-637.5 787.5,-657.5 920.5,-657.5 920.5,-637.5 787.5,-637.5"/>
<text text-anchor="middle" x="854" y="-644.5" font-family="FreeSans" font-size="10.00" fill="#000000">PHG4GDMLWrite::Write</text>
</a>
</g>
</g>
<!-- Node40&#45;&gt;Node42 -->
<g id="edge48" class="edge">
<title>Node40&#45;&gt;Node42</title>
<path fill="none" stroke="#191970" d="M725.2467,-646.9053C742.4277,-646.9847 760.3238,-647.0673 777.1175,-647.1449"/>
<polygon fill="#191970" stroke="#191970" points="777.3992,-650.6461 787.4153,-647.1924 777.4316,-643.6462 777.3992,-650.6461"/>
</g>
<!-- Node43 -->
<g id="node43" class="node">
<title>Node43</title>
<g id="a_node43"><a xlink:href="../../dd/db5/classPHG4GDMLWrite.html#abac8d16ed8e19e2292a85cdf072b4c70" target="_top" xlink:title="PHG4GDMLWrite::FileExists">
<polygon fill="none" stroke="#000000" points="983,-637.5 983,-657.5 1136,-657.5 1136,-637.5 983,-637.5"/>
<text text-anchor="middle" x="1059.5" y="-644.5" font-family="FreeSans" font-size="10.00" fill="#000000">PHG4GDMLWrite::FileExists</text>
</a>
</g>
</g>
<!-- Node42&#45;&gt;Node43 -->
<g id="edge49" class="edge">
<title>Node42&#45;&gt;Node43</title>
<path fill="none" stroke="#191970" d="M920.72,-647.5C937.2767,-647.5 955.2626,-647.5 972.6284,-647.5"/>
<polygon fill="#191970" stroke="#191970" points="972.766,-651.0001 982.7659,-647.5 972.7659,-644.0001 972.766,-651.0001"/>
</g>
<!-- Node46 -->
<g id="node46" class="node">
<title>Node46</title>
<g id="a_node46"><a xlink:href="../../d7/d6d/classPHGeomTGeo.html#af0772491188524c7674c1ef004d49ad5" target="_top" xlink:title="Clear Event.">
<polygon fill="none" stroke="#000000" points="576.5,-465.5 576.5,-485.5 698.5,-485.5 698.5,-465.5 576.5,-465.5"/>
<text text-anchor="middle" x="637.5" y="-472.5" font-family="FreeSans" font-size="10.00" fill="#000000">PHGeomTGeo::Reset</text>
</a>
</g>
</g>
<!-- Node45&#45;&gt;Node46 -->
<g id="edge52" class="edge">
<title>Node45&#45;&gt;Node46</title>
<path fill="none" stroke="#191970" d="M474.8143,-501.472C503.142,-496.9496 536.7398,-491.5859 566.0269,-486.9103"/>
<polygon fill="#191970" stroke="#191970" points="566.8675,-490.3206 576.1906,-485.2877 565.7639,-483.4081 566.8675,-490.3206"/>
</g>
<!-- Node48 -->
<g id="node48" class="node">
<title>Node48</title>
<g id="a_node48"><a xlink:href="../../d7/d6d/classPHGeomTGeo.html#a8b2df41583e27a653458c6aae76a2926" target="_top" xlink:title="PHGeomTGeo::SetGeometry">
<polygon fill="none" stroke="#000000" points="557.5,-543.5 557.5,-563.5 717.5,-563.5 717.5,-543.5 557.5,-543.5"/>
<text text-anchor="middle" x="637.5" y="-550.5" font-family="FreeSans" font-size="10.00" fill="#000000">PHGeomTGeo::SetGeometry</text>
</a>
</g>
</g>
<!-- Node45&#45;&gt;Node48 -->
<g id="edge54" class="edge">
<title>Node45&#45;&gt;Node48</title>
<path fill="none" stroke="#191970" d="M465.7264,-521.5067C498.2135,-527.5575 539.8053,-535.3041 573.9251,-541.659"/>
<polygon fill="#191970" stroke="#191970" points="573.323,-545.107 583.7949,-543.4973 574.6048,-538.2253 573.323,-545.107"/>
</g>
<!-- Node49 -->
<g id="node49" class="node">
<title>Node49</title>
<g id="a_node49"><a xlink:href="../../d7/d6d/classPHGeomTGeo.html#a3e111f6229f7ce6392b14a98fdf5bea9" target="_top" xlink:title="PHGeomTGeo::GetGeometry">
<polygon fill="none" stroke="#000000" points="556.5,-504.5 556.5,-524.5 718.5,-524.5 718.5,-504.5 556.5,-504.5"/>
<text text-anchor="middle" x="637.5" y="-511.5" font-family="FreeSans" font-size="10.00" fill="#000000">PHGeomTGeo::GetGeometry</text>
</a>
</g>
</g>
<!-- Node45&#45;&gt;Node49 -->
<g id="edge56" class="edge">
<title>Node45&#45;&gt;Node49</title>
<path fill="none" stroke="#191970" d="M500.153,-512.6728C515.208,-512.8731 530.8779,-513.0815 546.0171,-513.2829"/>
<polygon fill="#191970" stroke="#191970" points="546.3535,-516.7876 556.3992,-513.4211 546.4467,-509.7882 546.3535,-516.7876"/>
</g>
<!-- Node47 -->
<g id="node47" class="node">
<title>Node47</title>
<g id="a_node47"><a xlink:href="../../d7/d6d/classPHGeomTGeo.html#af37739b87530fe2bbd5d8d03098c1821" target="_top" xlink:title="PHGeomTGeo::ConsistencyCheck">
<polygon fill="none" stroke="#000000" points="761,-502.5 761,-522.5 947,-522.5 947,-502.5 761,-502.5"/>
<text text-anchor="middle" x="854" y="-509.5" font-family="FreeSans" font-size="10.00" fill="#000000">PHGeomTGeo::ConsistencyCheck</text>
</a>
</g>
</g>
<!-- Node46&#45;&gt;Node47 -->
<g id="edge53" class="edge">
<title>Node46&#45;&gt;Node47</title>
<path fill="none" stroke="#191970" d="M696.088,-485.5127C723.6453,-490.2223 756.6847,-495.8687 785.4033,-500.7768"/>
<polygon fill="#191970" stroke="#191970" points="784.9184,-504.2446 795.3652,-502.4793 786.0977,-497.3446 784.9184,-504.2446"/>
</g>
<!-- Node48&#45;&gt;Node47 -->
<g id="edge55" class="edge">
<title>Node48&#45;&gt;Node47</title>
<path fill="none" stroke="#191970" d="M690.4619,-543.4703C720.735,-537.7372 758.8941,-530.5108 790.7362,-524.4807"/>
<polygon fill="#191970" stroke="#191970" points="791.6605,-527.8679 800.8346,-522.5683 790.3579,-520.9902 791.6605,-527.8679"/>
</g>
<!-- Node49&#45;&gt;Node47 -->
<g id="edge57" class="edge">
<title>Node49&#45;&gt;Node47</title>
<path fill="none" stroke="#191970" d="M718.7326,-513.7496C729.0982,-513.6538 739.817,-513.5548 750.4745,-513.4564"/>
<polygon fill="#191970" stroke="#191970" points="750.6931,-516.9546 760.6603,-513.3623 750.6284,-509.9549 750.6931,-516.9546"/>
</g>
</g>
</svg>
