<?xml version="1.0" encoding="UTF-8" standalone="no"?>
<!DOCTYPE svg PUBLIC "-//W3C//DTD SVG 1.1//EN"
 "http://www.w3.org/Graphics/SVG/1.1/DTD/svg11.dtd">
<!-- Generated by graphviz version 2.40.1 (20161225.0304)
 -->
<!-- Title: GenFit/blob/master/GBL/src/GblFitterInfo.cc Pages: 1 -->
<svg width="2112pt" height="554pt"
 viewBox="0.00 0.00 2111.50 554.00" xmlns="http://www.w3.org/2000/svg" xmlns:xlink="http://www.w3.org/1999/xlink">
<g id="graph0" class="graph" transform="scale(1 1) rotate(0) translate(4 550)">
<title>GenFit/blob/master/GBL/src/GblFitterInfo.cc</title>
<!-- Node1 -->
<g id="node1" class="node">
<title>Node1</title>
<polygon fill="#bfbfbf" stroke="#000000" points="174,-513.5 174,-545.5 312,-545.5 312,-513.5 174,-513.5"/>
<text text-anchor="start" x="182" y="-532.5" font-family="FreeSans" font-size="10.00" fill="#000000">GenFit/blob/master</text>
<text text-anchor="middle" x="243" y="-520.5" font-family="FreeSans" font-size="10.00" fill="#000000">/GBL/src/GblFitterInfo.cc</text>
</g>
<!-- Node2 -->
<g id="node2" class="node">
<title>Node2</title>
<g id="a_node2"><a xlink:href="../../de/d06/GblFitterInfo_8h.html" target="_top" xlink:title="GblFitterInfo.h">
<polygon fill="none" stroke="#000000" points="969.5,-456.5 969.5,-476.5 1056.5,-476.5 1056.5,-456.5 969.5,-456.5"/>
<text text-anchor="middle" x="1013" y="-463.5" font-family="FreeSans" font-size="10.00" fill="#000000">GblFitterInfo.h</text>
</a>
</g>
</g>
<!-- Node1&#45;&gt;Node2 -->
<g id="edge1" class="edge">
<title>Node1&#45;&gt;Node2</title>
<path fill="none" stroke="#191970" d="M312.01,-523.8537C463.4701,-511.4615 822.3651,-482.0974 958.9524,-470.9221"/>
<polygon fill="#191970" stroke="#191970" points="959.486,-474.3902 969.1673,-470.0863 958.9151,-467.4135 959.486,-474.3902"/>
</g>
<!-- Node4 -->
<g id="node4" class="node">
<title>Node4</title>
<g id="a_node4"><a xlink:href="../../d7/d22/MeasurementOnPlane_8h.html" target="_top" xlink:title="MeasurementOnPlane.h">
<polygon fill="none" stroke="#000000" points="458.5,-285.5 458.5,-305.5 595.5,-305.5 595.5,-285.5 458.5,-285.5"/>
<text text-anchor="middle" x="527" y="-292.5" font-family="FreeSans" font-size="10.00" fill="#000000">MeasurementOnPlane.h</text>
</a>
</g>
</g>
<!-- Node1&#45;&gt;Node4 -->
<g id="edge119" class="edge">
<title>Node1&#45;&gt;Node4</title>
<path fill="none" stroke="#191970" d="M281.6211,-513.4616C354.6794,-482.247 508.3831,-412.0938 537,-363 545.4492,-348.5049 541.4893,-329.3891 536.2643,-315.2015"/>
<polygon fill="#191970" stroke="#191970" points="539.461,-313.7731 532.3955,-305.8782 532.9956,-316.456 539.461,-313.7731"/>
</g>
<!-- Node48 -->
<g id="node48" class="node">
<title>Node48</title>
<g id="a_node48"><a xlink:href="../../d7/d0c/HMatrixUV_8h.html" target="_top" xlink:title="HMatrixUV.h">
<polygon fill="none" stroke="#000000" points="204,-399.5 204,-419.5 282,-419.5 282,-399.5 204,-399.5"/>
<text text-anchor="middle" x="243" y="-406.5" font-family="FreeSans" font-size="10.00" fill="#000000">HMatrixUV.h</text>
</a>
</g>
</g>
<!-- Node1&#45;&gt;Node48 -->
<g id="edge120" class="edge">
<title>Node1&#45;&gt;Node48</title>
<path fill="none" stroke="#191970" d="M243,-513.3163C243,-491.7649 243,-453.6303 243,-430.0644"/>
<polygon fill="#191970" stroke="#191970" points="246.5001,-429.8025 243,-419.8025 239.5001,-429.8025 246.5001,-429.8025"/>
</g>
<!-- Node49 -->
<g id="node49" class="node">
<title>Node49</title>
<g id="a_node49"><a xlink:href="../../d3/df3/HMatrixV_8h.html" target="_top" xlink:title="HMatrixV.h">
<polygon fill="none" stroke="#000000" points="28,-285.5 28,-305.5 98,-305.5 98,-285.5 28,-285.5"/>
<text text-anchor="middle" x="63" y="-292.5" font-family="FreeSans" font-size="10.00" fill="#000000">HMatrixV.h</text>
</a>
</g>
</g>
<!-- Node1&#45;&gt;Node49 -->
<g id="edge122" class="edge">
<title>Node1&#45;&gt;Node49</title>
<path fill="none" stroke="#191970" d="M173.9444,-514.2641C152.1602,-506.3862 129.7058,-494.5815 114,-477 72.4837,-430.5255 64.5114,-352.7863 63.1518,-315.9939"/>
<polygon fill="#191970" stroke="#191970" points="66.6412,-315.4942 62.9086,-305.5786 59.6431,-315.6576 66.6412,-315.4942"/>
</g>
<!-- Node50 -->
<g id="node50" class="node">
<title>Node50</title>
<g id="a_node50"><a xlink:href="../../d6/dfc/HMatrixU_8h.html" target="_top" xlink:title="HMatrixU.h">
<polygon fill="none" stroke="#000000" points="123,-456.5 123,-476.5 195,-476.5 195,-456.5 123,-456.5"/>
<text text-anchor="middle" x="159" y="-463.5" font-family="FreeSans" font-size="10.00" fill="#000000">HMatrixU.h</text>
</a>
</g>
</g>
<!-- Node1&#45;&gt;Node50 -->
<g id="edge124" class="edge">
<title>Node1&#45;&gt;Node50</title>
<path fill="none" stroke="#191970" d="M221.3679,-513.2759C208.8082,-503.8561 193.0421,-492.0315 180.5042,-482.6281"/>
<polygon fill="#191970" stroke="#191970" points="182.519,-479.7642 172.4189,-476.5642 178.3189,-485.3642 182.519,-479.7642"/>
</g>
<!-- Node3 -->
<g id="node3" class="node">
<title>Node3</title>
<g id="a_node3"><a xlink:href="../../d4/d0b/AbsFitterInfo_8h.html" target="_top" xlink:title="AbsFitterInfo.h">
<polygon fill="none" stroke="#000000" points="622,-342.5 622,-362.5 712,-362.5 712,-342.5 622,-342.5"/>
<text text-anchor="middle" x="667" y="-349.5" font-family="FreeSans" font-size="10.00" fill="#000000">AbsFitterInfo.h</text>
</a>
</g>
</g>
<!-- Node2&#45;&gt;Node3 -->
<g id="edge2" class="edge">
<title>Node2&#45;&gt;Node3</title>
<path fill="none" stroke="#191970" d="M969.2859,-463.0552C899.5962,-456.964 766.9925,-442.7447 726,-420 705.4875,-408.6187 688.6776,-387.2418 678.3207,-371.5841"/>
<polygon fill="#191970" stroke="#191970" points="681.0235,-369.3082 672.7304,-362.7145 675.1015,-373.0407 681.0235,-369.3082"/>
</g>
<!-- Node2&#45;&gt;Node4 -->
<g id="edge36" class="edge">
<title>Node2&#45;&gt;Node4</title>
<path fill="none" stroke="#191970" d="M969.4298,-462.5174C894.8003,-455.2935 745.834,-439.0056 697,-420 633.7419,-395.3807 572.873,-341.0423 544.1636,-313.0012"/>
<polygon fill="#191970" stroke="#191970" points="546.5071,-310.3958 536.9437,-305.836 541.5762,-315.3644 546.5071,-310.3958"/>
</g>
<!-- Node5 -->
<g id="node5" class="node">
<title>Node5</title>
<g id="a_node5"><a xlink:href="../../df/dc0/MeasuredStateOnPlane_8h.html" target="_top" xlink:title="MeasuredStateOnPlane.h">
<polygon fill="none" stroke="#000000" points="725,-228.5 725,-248.5 869,-248.5 869,-228.5 725,-228.5"/>
<text text-anchor="middle" x="797" y="-235.5" font-family="FreeSans" font-size="10.00" fill="#000000">MeasuredStateOnPlane.h</text>
</a>
</g>
</g>
<!-- Node2&#45;&gt;Node5 -->
<g id="edge35" class="edge">
<title>Node2&#45;&gt;Node5</title>
<path fill="none" stroke="#191970" d="M1007.5682,-456.299C1000.3951,-442.9602 987.2382,-418.9443 975,-399 959.0762,-373.0492 957.9997,-364.046 937,-342 902.0477,-305.3061 852.8299,-272.2829 823.023,-253.8606"/>
<polygon fill="#191970" stroke="#191970" points="824.7934,-250.8408 814.433,-248.6242 821.1498,-256.8178 824.7934,-250.8408"/>
</g>
<!-- Node6 -->
<g id="node6" class="node">
<title>Node6</title>
<g id="a_node6"><a xlink:href="../../db/d1a/StateOnPlane_8h.html" target="_top" xlink:title="StateOnPlane.h">
<polygon fill="none" stroke="#000000" points="649,-171.5 649,-191.5 743,-191.5 743,-171.5 649,-171.5"/>
<text text-anchor="middle" x="696" y="-178.5" font-family="FreeSans" font-size="10.00" fill="#000000">StateOnPlane.h</text>
</a>
</g>
</g>
<!-- Node2&#45;&gt;Node6 -->
<g id="edge37" class="edge">
<title>Node2&#45;&gt;Node6</title>
<path fill="none" stroke="#191970" d="M969.3207,-463.795C905.1876,-458.9662 789.8028,-446.7479 759,-420 728.7558,-393.7372 710.162,-288.2151 702,-249 698.7412,-233.3426 697.2515,-215.2807 696.5709,-201.7829"/>
<polygon fill="#191970" stroke="#191970" points="700.0635,-201.524 696.1685,-191.6711 693.069,-201.8024 700.0635,-201.524"/>
</g>
<!-- Node8 -->
<g id="node8" class="node">
<title>Node8</title>
<polygon fill="none" stroke="#bfbfbf" points="110,-.5 110,-20.5 168,-20.5 168,-.5 110,-.5"/>
<text text-anchor="middle" x="139" y="-7.5" font-family="FreeSans" font-size="10.00" fill="#000000">memory</text>
</g>
<!-- Node2&#45;&gt;Node8 -->
<g id="edge118" class="edge">
<title>Node2&#45;&gt;Node8</title>
<path fill="none" stroke="#191970" d="M969.2682,-465.476C807.9921,-461.5071 252.0093,-446.0519 177,-420 86.1457,-388.4449 0,-391.6781 0,-295.5 0,-295.5 0,-295.5 0,-124.5 0,-72.3471 59.2251,-39.7065 100.3572,-23.3262"/>
<polygon fill="#191970" stroke="#191970" points="101.7667,-26.5346 109.861,-19.6985 99.2703,-19.9948 101.7667,-26.5346"/>
</g>
<!-- Node14 -->
<g id="node14" class="node">
<title>Node14</title>
<polygon fill="none" stroke="#bfbfbf" points="1364,-57.5 1364,-77.5 1436,-77.5 1436,-57.5 1364,-57.5"/>
<text text-anchor="middle" x="1400" y="-64.5" font-family="FreeSans" font-size="10.00" fill="#000000">TMatrixD.h</text>
</g>
<!-- Node2&#45;&gt;Node14 -->
<g id="edge114" class="edge">
<title>Node2&#45;&gt;Node14</title>
<path fill="none" stroke="#191970" d="M1017.2312,-456.3032C1020.9792,-446.978 1026.3998,-432.7381 1030,-420 1041.8414,-378.1032 1037.7584,-258.3235 1069,-228 1136.636,-162.3516 1189.4155,-224.2044 1278,-192 1325.3549,-174.7844 1343.8179,-173.7708 1376,-135 1387.2677,-121.4254 1393.4171,-102.171 1396.6609,-87.6982"/>
<polygon fill="#191970" stroke="#191970" points="1400.1246,-88.2224 1398.6116,-77.7362 1393.2551,-86.8772 1400.1246,-88.2224"/>
</g>
<!-- Node15 -->
<g id="node15" class="node">
<title>Node15</title>
<polygon fill="none" stroke="#bfbfbf" points="990,-57.5 990,-77.5 1084,-77.5 1084,-57.5 990,-57.5"/>
<text text-anchor="middle" x="1037" y="-64.5" font-family="FreeSans" font-size="10.00" fill="#000000">TMatrixDSym.h</text>
</g>
<!-- Node2&#45;&gt;Node15 -->
<g id="edge115" class="edge">
<title>Node2&#45;&gt;Node15</title>
<path fill="none" stroke="#191970" d="M1013.6174,-456.2361C1016.8071,-403.2071 1031.4384,-159.9613 1035.7814,-87.76"/>
<polygon fill="#191970" stroke="#191970" points="1039.2799,-87.8882 1036.3867,-77.6961 1032.2925,-87.4679 1039.2799,-87.8882"/>
</g>
<!-- Node17 -->
<g id="node17" class="node">
<title>Node17</title>
<g id="a_node17"><a xlink:href="../../d4/daa/AbsHMatrix_8h.html" target="_top" xlink:title="AbsHMatrix.h">
<polygon fill="none" stroke="#000000" points="274,-228.5 274,-248.5 358,-248.5 358,-228.5 274,-228.5"/>
<text text-anchor="middle" x="316" y="-235.5" font-family="FreeSans" font-size="10.00" fill="#000000">AbsHMatrix.h</text>
</a>
</g>
</g>
<!-- Node2&#45;&gt;Node17 -->
<g id="edge116" class="edge">
<title>Node2&#45;&gt;Node17</title>
<path fill="none" stroke="#191970" d="M969.4743,-464.2693C863.1598,-458.5392 592.5687,-442.1816 505,-420 442.658,-404.2085 417.8775,-408.0683 372,-363 342.1317,-333.6585 326.8187,-285.5249 320.1959,-258.508"/>
<polygon fill="#191970" stroke="#191970" points="323.5819,-257.6143 317.938,-248.6479 316.7585,-259.1769 323.5819,-257.6143"/>
</g>
<!-- Node22 -->
<g id="node22" class="node">
<title>Node22</title>
<g id="a_node22"><a xlink:href="../../dc/d73/TrackPoint_8h.html" target="_top" xlink:title="TrackPoint.h">
<polygon fill="none" stroke="#000000" points="514,-399.5 514,-419.5 592,-419.5 592,-399.5 514,-399.5"/>
<text text-anchor="middle" x="553" y="-406.5" font-family="FreeSans" font-size="10.00" fill="#000000">TrackPoint.h</text>
</a>
</g>
</g>
<!-- Node2&#45;&gt;Node22 -->
<g id="edge38" class="edge">
<title>Node2&#45;&gt;Node22</title>
<path fill="none" stroke="#191970" d="M969.4741,-462.7062C894.8424,-455.9382 737.757,-440.5428 606,-420 604.7227,-419.8009 603.4294,-419.5927 602.1254,-419.3771"/>
<polygon fill="#191970" stroke="#191970" points="602.4643,-415.8833 592.0102,-417.6043 601.2559,-422.7782 602.4643,-415.8833"/>
</g>
<!-- Node24 -->
<g id="node24" class="node">
<title>Node24</title>
<g id="a_node24"><a xlink:href="../../df/da2/ThinScatterer_8h.html" target="_top" xlink:title="ThinScatterer.h">
<polygon fill="none" stroke="#000000" points="232,-114.5 232,-134.5 326,-134.5 326,-114.5 232,-114.5"/>
<text text-anchor="middle" x="279" y="-121.5" font-family="FreeSans" font-size="10.00" fill="#000000">ThinScatterer.h</text>
</a>
</g>
</g>
<!-- Node2&#45;&gt;Node24 -->
<g id="edge52" class="edge">
<title>Node2&#45;&gt;Node24</title>
<path fill="none" stroke="#191970" d="M969.4902,-465.6638C804.0138,-462.2752 221.8024,-448.3693 195,-420 118.4802,-339.0068 222.7931,-193.4115 263.7542,-142.5929"/>
<polygon fill="#191970" stroke="#191970" points="266.5461,-144.7079 270.1798,-134.7556 261.1329,-140.2697 266.5461,-144.7079"/>
</g>
<!-- Node26 -->
<g id="node26" class="node">
<title>Node26</title>
<polygon fill="none" stroke="#bfbfbf" points="1913.5,-57.5 1913.5,-77.5 1962.5,-77.5 1962.5,-57.5 1913.5,-57.5"/>
<text text-anchor="middle" x="1938" y="-64.5" font-family="FreeSans" font-size="10.00" fill="#000000">vector</text>
</g>
<!-- Node2&#45;&gt;Node26 -->
<g id="edge117" class="edge">
<title>Node2&#45;&gt;Node26</title>
<path fill="none" stroke="#191970" d="M1056.6816,-465.6413C1232.7019,-462.0101 1884.7518,-446.8535 1973,-420 2028.6018,-403.0806 2085,-410.6191 2085,-352.5 2085,-352.5 2085,-352.5 2085,-181.5 2085,-151.788 2009.0604,-105.8948 1966.3438,-82.4299"/>
<polygon fill="#191970" stroke="#191970" points="1967.9792,-79.3352 1957.5205,-77.6422 1964.6406,-85.4878 1967.9792,-79.3352"/>
</g>
<!-- Node27 -->
<g id="node27" class="node">
<title>Node27</title>
<polygon fill="none" stroke="#bfbfbf" points="1835.5,-171.5 1835.5,-191.5 1888.5,-191.5 1888.5,-171.5 1835.5,-171.5"/>
<text text-anchor="middle" x="1862" y="-178.5" font-family="FreeSans" font-size="10.00" fill="#000000">Track.h</text>
</g>
<!-- Node2&#45;&gt;Node27 -->
<g id="edge53" class="edge">
<title>Node2&#45;&gt;Node27</title>
<path fill="none" stroke="#191970" d="M1056.7591,-466.16C1248.9886,-464.0999 2009,-449.8024 2009,-352.5 2009,-352.5 2009,-352.5 2009,-295.5 2009,-239.6209 1941.8506,-207.2006 1898.3201,-192.0545"/>
<polygon fill="#191970" stroke="#191970" points="1899.2142,-188.6634 1888.6206,-188.8266 1897.0038,-195.3052 1899.2142,-188.6634"/>
</g>
<!-- Node28 -->
<g id="node28" class="node">
<title>Node28</title>
<g id="a_node28"><a xlink:href="../../d1/d6d/ICalibrationParametersDerivatives_8h.html" target="_top" xlink:title="ICalibrationParametersDerivatives.h">
<polygon fill="none" stroke="#000000" points="768,-399.5 768,-419.5 966,-419.5 966,-399.5 768,-399.5"/>
<text text-anchor="middle" x="867" y="-406.5" font-family="FreeSans" font-size="10.00" fill="#000000">ICalibrationParametersDerivatives.h</text>
</a>
</g>
</g>
<!-- Node2&#45;&gt;Node28 -->
<g id="edge54" class="edge">
<title>Node2&#45;&gt;Node28</title>
<path fill="none" stroke="#191970" d="M987.2342,-456.4408C963.7153,-447.2587 928.7332,-433.6013 902.5578,-423.3822"/>
<polygon fill="#191970" stroke="#191970" points="903.5875,-420.0269 892.9993,-419.6504 901.0417,-426.5476 903.5875,-420.0269"/>
</g>
<!-- Node30 -->
<g id="node30" class="node">
<title>Node30</title>
<g id="a_node30"><a xlink:href="../../d9/d62/GblPoint_8h.html" target="_top" xlink:title="GblPoint.h">
<polygon fill="none" stroke="#000000" points="1732,-114.5 1732,-134.5 1800,-134.5 1800,-114.5 1732,-114.5"/>
<text text-anchor="middle" x="1766" y="-121.5" font-family="FreeSans" font-size="10.00" fill="#000000">GblPoint.h</text>
</a>
</g>
</g>
<!-- Node2&#45;&gt;Node30 -->
<g id="edge59" class="edge">
<title>Node2&#45;&gt;Node30</title>
<path fill="none" stroke="#191970" d="M1056.6936,-466.31C1211.6085,-465.3086 1733.9833,-459.0465 1896,-420 1967.4651,-402.7767 2047,-426.0112 2047,-352.5 2047,-352.5 2047,-352.5 2047,-238.5 2047,-188.0526 1889.5206,-149.2482 1810.3448,-132.9265"/>
<polygon fill="#191970" stroke="#191970" points="1810.6712,-129.4215 1800.1752,-130.865 1809.2805,-136.282 1810.6712,-129.4215"/>
</g>
<!-- Node37 -->
<g id="node37" class="node">
<title>Node37</title>
<g id="a_node37"><a xlink:href="../../d6/db0/GblTrajectory_8h.html" target="_top" xlink:title="GblTrajectory.h">
<polygon fill="none" stroke="#000000" points="1720.5,-171.5 1720.5,-191.5 1811.5,-191.5 1811.5,-171.5 1720.5,-171.5"/>
<text text-anchor="middle" x="1766" y="-178.5" font-family="FreeSans" font-size="10.00" fill="#000000">GblTrajectory.h</text>
</a>
</g>
</g>
<!-- Node2&#45;&gt;Node37 -->
<g id="edge70" class="edge">
<title>Node2&#45;&gt;Node37</title>
<path fill="none" stroke="#191970" d="M1056.7546,-465.741C1239.5879,-462.0015 1933,-441.9244 1933,-352.5 1933,-352.5 1933,-352.5 1933,-295.5 1933,-264.3342 1935.7041,-250.3661 1914,-228 1900.8846,-214.4846 1857.9301,-201.8586 1821.6525,-193.1838"/>
<polygon fill="#191970" stroke="#191970" points="1822.1615,-189.7086 1811.6278,-190.8443 1820.5707,-196.5254 1822.1615,-189.7086"/>
</g>
<!-- Node41 -->
<g id="node41" class="node">
<title>Node41</title>
<g id="a_node41"><a xlink:href="../../d6/da3/GblFitter_8h.html" target="_top" xlink:title="GblFitter.h">
<polygon fill="none" stroke="#000000" points="1317,-285.5 1317,-305.5 1385,-305.5 1385,-285.5 1317,-285.5"/>
<text text-anchor="middle" x="1351" y="-292.5" font-family="FreeSans" font-size="10.00" fill="#000000">GblFitter.h</text>
</a>
</g>
</g>
<!-- Node2&#45;&gt;Node41 -->
<g id="edge91" class="edge">
<title>Node2&#45;&gt;Node41</title>
<path fill="none" stroke="#191970" d="M1031.2975,-456.4555C1051.7009,-447.4586 1084.8494,-433.6191 1113,-420 1188.491,-383.4779 1274.6892,-334.5906 1319.9473,-310.3792"/>
<polygon fill="#191970" stroke="#191970" points="1321.7677,-313.3756 1328.9649,-305.6006 1318.49,-307.1904 1321.7677,-313.3756"/>
</g>
<!-- Node3&#45;&gt;Node4 -->
<g id="edge3" class="edge">
<title>Node3&#45;&gt;Node4</title>
<path fill="none" stroke="#191970" d="M642.2931,-342.4408C619.8401,-333.2992 586.4916,-319.7216 561.4288,-309.5174"/>
<polygon fill="#191970" stroke="#191970" points="562.5125,-306.1797 551.9308,-305.6504 559.8728,-312.663 562.5125,-306.1797"/>
</g>
<!-- Node11 -->
<g id="node11" class="node">
<title>Node11</title>
<polygon fill="none" stroke="#bfbfbf" points="427.5,-.5 427.5,-20.5 492.5,-20.5 492.5,-.5 427.5,-.5"/>
<text text-anchor="middle" x="460" y="-7.5" font-family="FreeSans" font-size="10.00" fill="#000000">TObject.h</text>
</g>
<!-- Node3&#45;&gt;Node11 -->
<g id="edge33" class="edge">
<title>Node3&#45;&gt;Node11</title>
<path fill="none" stroke="#191970" d="M660.6328,-342.3533C654.9177,-333.0619 646.4589,-318.8434 640,-306 585.8829,-198.3897 611.0332,-148.7576 533,-57 521.8204,-43.8541 505.9801,-33.1448 491.9106,-25.3316"/>
<polygon fill="#191970" stroke="#191970" points="493.4646,-22.1942 482.9875,-20.6189 490.1955,-28.3839 493.4646,-22.1942"/>
</g>
<!-- Node13 -->
<g id="node13" class="node">
<title>Node13</title>
<polygon fill="none" stroke="#bfbfbf" points="711,-57.5 711,-77.5 783,-77.5 783,-57.5 711,-57.5"/>
<text text-anchor="middle" x="747" y="-64.5" font-family="FreeSans" font-size="10.00" fill="#000000">TVectorD.h</text>
</g>
<!-- Node3&#45;&gt;Node13 -->
<g id="edge34" class="edge">
<title>Node3&#45;&gt;Node13</title>
<path fill="none" stroke="#191970" d="M662.5241,-342.4513C650.7692,-314.6444 621.1867,-234.5361 640,-171 648.5751,-142.0403 655.757,-135.4693 677,-114 689.0896,-101.7816 704.877,-90.961 718.3983,-82.8393"/>
<polygon fill="#191970" stroke="#191970" points="720.4287,-85.7079 727.3239,-77.6638 716.9173,-79.6523 720.4287,-85.7079"/>
</g>
<!-- Node19 -->
<g id="node19" class="node">
<title>Node19</title>
<g id="a_node19"><a xlink:href="../../d5/da6/FitStatus_8h.html" target="_top" xlink:title="FitStatus.h">
<polygon fill="none" stroke="#000000" points="1199.5,-171.5 1199.5,-191.5 1268.5,-191.5 1268.5,-171.5 1199.5,-171.5"/>
<text text-anchor="middle" x="1234" y="-178.5" font-family="FreeSans" font-size="10.00" fill="#000000">FitStatus.h</text>
</a>
</g>
</g>
<!-- Node3&#45;&gt;Node19 -->
<g id="edge30" class="edge">
<title>Node3&#45;&gt;Node19</title>
<path fill="none" stroke="#191970" d="M693.9552,-342.3776C754.3974,-319.9025 905.6069,-264.9119 1035,-228 1087.526,-213.0159 1148.8457,-199.237 1189.3859,-190.6329"/>
<polygon fill="#191970" stroke="#191970" points="1190.1636,-194.0459 1199.2271,-188.5593 1188.7203,-187.1963 1190.1636,-194.0459"/>
</g>
<!-- Node4&#45;&gt;Node5 -->
<g id="edge4" class="edge">
<title>Node4&#45;&gt;Node5</title>
<path fill="none" stroke="#191970" d="M574.6491,-285.4408C620.6796,-275.7232 690.454,-260.9931 739.5383,-250.6308"/>
<polygon fill="#191970" stroke="#191970" points="740.3126,-254.0446 749.3739,-248.5544 738.8666,-247.1955 740.3126,-254.0446"/>
</g>
<!-- Node4&#45;&gt;Node8 -->
<g id="edge29" class="edge">
<title>Node4&#45;&gt;Node8</title>
<path fill="none" stroke="#191970" d="M504.7152,-285.4695C442.6637,-257.2738 269.4119,-176.6611 223,-135 188.589,-104.1113 161.5427,-56.2712 148.1712,-29.7893"/>
<polygon fill="#191970" stroke="#191970" points="151.2858,-28.1915 143.7291,-20.7654 145.0055,-31.2831 151.2858,-28.1915"/>
</g>
<!-- Node4&#45;&gt;Node14 -->
<g id="edge27" class="edge">
<title>Node4&#45;&gt;Node14</title>
<path fill="none" stroke="#191970" d="M595.6996,-289.801C682.72,-281.9949 827.4384,-266.8877 878,-249 986.5079,-210.612 990.9122,-153.5556 1099,-114 1144.8495,-97.221 1281.1792,-80.4527 1353.5934,-72.4107"/>
<polygon fill="#191970" stroke="#191970" points="1354.238,-75.861 1363.7953,-71.2886 1353.4726,-68.903 1354.238,-75.861"/>
</g>
<!-- Node4&#45;&gt;Node17 -->
<g id="edge23" class="edge">
<title>Node4&#45;&gt;Node17</title>
<path fill="none" stroke="#191970" d="M489.7631,-285.4408C454.467,-275.9058 401.3062,-261.5448 363.0843,-251.2195"/>
<polygon fill="#191970" stroke="#191970" points="363.7856,-247.7835 353.2189,-248.5544 361.96,-254.5413 363.7856,-247.7835"/>
</g>
<!-- Node18 -->
<g id="node18" class="node">
<title>Node18</title>
<polygon fill="none" stroke="#bfbfbf" points="503,-228.5 503,-248.5 551,-248.5 551,-228.5 503,-228.5"/>
<text text-anchor="middle" x="527" y="-235.5" font-family="FreeSans" font-size="10.00" fill="#000000">cmath</text>
</g>
<!-- Node4&#45;&gt;Node18 -->
<g id="edge28" class="edge">
<title>Node4&#45;&gt;Node18</title>
<path fill="none" stroke="#191970" d="M527,-285.3095C527,-277.9335 527,-267.72 527,-258.715"/>
<polygon fill="#191970" stroke="#191970" points="530.5001,-258.6022 527,-248.6022 523.5001,-258.6023 530.5001,-258.6022"/>
</g>
<!-- Node5&#45;&gt;Node6 -->
<g id="edge5" class="edge">
<title>Node5&#45;&gt;Node6</title>
<path fill="none" stroke="#191970" d="M778.9432,-228.3095C763.2881,-219.4745 740.4195,-206.5684 722.6579,-196.5445"/>
<polygon fill="#191970" stroke="#191970" points="724.3295,-193.4691 713.9004,-191.6022 720.8891,-199.5653 724.3295,-193.4691"/>
</g>
<!-- Node9 -->
<g id="node9" class="node">
<title>Node9</title>
<g id="a_node9"><a xlink:href="../../d4/d66/AbsTrackRep_8h.html" target="_top" xlink:title="AbsTrackRep.h">
<polygon fill="none" stroke="#000000" points="765.5,-114.5 765.5,-134.5 856.5,-134.5 856.5,-114.5 765.5,-114.5"/>
<text text-anchor="middle" x="811" y="-121.5" font-family="FreeSans" font-size="10.00" fill="#000000">AbsTrackRep.h</text>
</a>
</g>
</g>
<!-- Node5&#45;&gt;Node9 -->
<g id="edge20" class="edge">
<title>Node5&#45;&gt;Node9</title>
<path fill="none" stroke="#191970" d="M798.2424,-228.3833C800.5405,-209.6703 805.495,-169.3266 808.5087,-144.7866"/>
<polygon fill="#191970" stroke="#191970" points="811.9952,-145.11 809.7403,-134.7579 805.0474,-144.2567 811.9952,-145.11"/>
</g>
<!-- Node5&#45;&gt;Node15 -->
<g id="edge21" class="edge">
<title>Node5&#45;&gt;Node15</title>
<path fill="none" stroke="#191970" d="M818.8715,-228.461C853.8344,-211.8461 923.6029,-176.3304 975,-135 993.2785,-120.3016 1011.0635,-100.1502 1022.863,-85.6989"/>
<polygon fill="#191970" stroke="#191970" points="1025.8772,-87.5337 1029.3874,-77.5373 1020.4094,-83.1629 1025.8772,-87.5337"/>
</g>
<!-- Node16 -->
<g id="node16" class="node">
<title>Node16</title>
<polygon fill="none" stroke="#bfbfbf" points="694.5,-114.5 694.5,-134.5 747.5,-134.5 747.5,-114.5 694.5,-114.5"/>
<text text-anchor="middle" x="721" y="-121.5" font-family="FreeSans" font-size="10.00" fill="#000000">cassert</text>
</g>
<!-- Node5&#45;&gt;Node16 -->
<g id="edge22" class="edge">
<title>Node5&#45;&gt;Node16</title>
<path fill="none" stroke="#191970" d="M790.2555,-228.3833C777.4992,-209.2488 749.6656,-167.4984 733.4353,-143.1529"/>
<polygon fill="#191970" stroke="#191970" points="736.2979,-141.137 727.8386,-134.7579 730.4735,-145.0199 736.2979,-141.137"/>
</g>
<!-- Node7 -->
<g id="node7" class="node">
<title>Node7</title>
<g id="a_node7"><a xlink:href="../../db/d4f/SharedPlanePtr_8h.html" target="_top" xlink:title="SharedPlanePtr.h">
<polygon fill="none" stroke="#ff0000" points="262,-57.5 262,-77.5 364,-77.5 364,-57.5 262,-57.5"/>
<text text-anchor="middle" x="313" y="-64.5" font-family="FreeSans" font-size="10.00" fill="#000000">SharedPlanePtr.h</text>
</a>
</g>
</g>
<!-- Node6&#45;&gt;Node7 -->
<g id="edge6" class="edge">
<title>Node6&#45;&gt;Node7</title>
<path fill="none" stroke="#191970" d="M662.347,-171.4832C592.9062,-150.8141 433.7948,-103.4546 356.6003,-80.4776"/>
<polygon fill="#191970" stroke="#191970" points="357.2965,-77.0332 346.7136,-77.5348 355.2995,-83.7423 357.2965,-77.0332"/>
</g>
<!-- Node6&#45;&gt;Node9 -->
<g id="edge8" class="edge">
<title>Node6&#45;&gt;Node9</title>
<path fill="none" stroke="#191970" d="M716.295,-171.4408C734.3305,-162.5014 760.9242,-149.3202 781.343,-139.1996"/>
<polygon fill="#191970" stroke="#191970" points="783.1156,-142.2273 790.5211,-134.6504 780.0069,-135.9555 783.1156,-142.2273"/>
</g>
<!-- Node6&#45;&gt;Node11 -->
<g id="edge17" class="edge">
<title>Node6&#45;&gt;Node11</title>
<path fill="none" stroke="#191970" d="M687.5218,-171.2152C668.0882,-148.1699 617.9828,-91.6997 566,-57 545.511,-43.3231 520.3388,-32.0823 499.6665,-24.0805"/>
<polygon fill="#191970" stroke="#191970" points="500.8119,-20.772 490.2199,-20.5257 498.3464,-27.3234 500.8119,-20.772"/>
</g>
<!-- Node6&#45;&gt;Node13 -->
<g id="edge18" class="edge">
<title>Node6&#45;&gt;Node13</title>
<path fill="none" stroke="#191970" d="M690.9703,-171.3187C684.9444,-157.5826 676.7486,-132.6852 686,-114 692.4977,-100.8766 704.6691,-90.4475 716.4408,-82.8194"/>
<polygon fill="#191970" stroke="#191970" points="718.4841,-85.6754 725.2642,-77.534 714.8869,-79.6704 718.4841,-85.6754"/>
</g>
<!-- Node6&#45;&gt;Node16 -->
<g id="edge19" class="edge">
<title>Node6&#45;&gt;Node16</title>
<path fill="none" stroke="#191970" d="M700.4695,-171.3095C703.8113,-163.6903 708.4809,-153.0435 712.5226,-143.8285"/>
<polygon fill="#191970" stroke="#191970" points="715.7578,-145.166 716.5692,-134.6022 709.3473,-142.3543 715.7578,-145.166"/>
</g>
<!-- Node7&#45;&gt;Node8 -->
<g id="edge7" class="edge">
<title>Node7&#45;&gt;Node8</title>
<path fill="none" stroke="#191970" d="M282.2928,-57.4408C253.2413,-47.9239 209.5137,-33.5993 178.0075,-23.2783"/>
<polygon fill="#191970" stroke="#191970" points="178.8344,-19.8662 168.2417,-20.0792 176.6552,-26.5184 178.8344,-19.8662"/>
</g>
<!-- Node9&#45;&gt;Node7 -->
<g id="edge9" class="edge">
<title>Node9&#45;&gt;Node7</title>
<path fill="none" stroke="#191970" d="M765.3834,-115.3384C762.551,-114.86 759.7393,-114.409 757,-114 620.9113,-93.6829 460.043,-79.182 374.2126,-72.2015"/>
<polygon fill="#191970" stroke="#191970" points="374.3733,-68.7032 364.1242,-71.3876 373.8103,-75.6805 374.3733,-68.7032"/>
</g>
<!-- Node10 -->
<g id="node10" class="node">
<title>Node10</title>
<g id="a_node10"><a xlink:href="../../df/d12/Material_8h.html" target="_top" xlink:title="Material.h">
<polygon fill="none" stroke="#ff0000" points="458,-57.5 458,-77.5 524,-77.5 524,-57.5 458,-57.5"/>
<text text-anchor="middle" x="491" y="-64.5" font-family="FreeSans" font-size="10.00" fill="#000000">Material.h</text>
</a>
</g>
</g>
<!-- Node9&#45;&gt;Node10 -->
<g id="edge10" class="edge">
<title>Node9&#45;&gt;Node10</title>
<path fill="none" stroke="#191970" d="M765.3465,-115.5597C762.5232,-115.0265 759.7236,-114.5028 757,-114 678.5548,-99.5182 586.8743,-83.7445 534.209,-74.7942"/>
<polygon fill="#191970" stroke="#191970" points="534.6563,-71.3201 524.2117,-73.0975 533.485,-78.2214 534.6563,-71.3201"/>
</g>
<!-- Node9&#45;&gt;Node11 -->
<g id="edge13" class="edge">
<title>Node9&#45;&gt;Node11</title>
<path fill="none" stroke="#191970" d="M811.3388,-114.4934C811.2521,-99.5417 808.69,-71.573 792,-57 770.5363,-38.2588 587.6318,-20.9797 502.841,-13.8927"/>
<polygon fill="#191970" stroke="#191970" points="503.0166,-10.3954 492.7622,-13.0598 502.44,-17.3716 503.0166,-10.3954"/>
</g>
<!-- Node12 -->
<g id="node12" class="node">
<title>Node12</title>
<polygon fill="none" stroke="#bfbfbf" points="849.5,-57.5 849.5,-77.5 920.5,-77.5 920.5,-57.5 849.5,-57.5"/>
<text text-anchor="middle" x="885" y="-64.5" font-family="FreeSans" font-size="10.00" fill="#000000">TVector3.h</text>
</g>
<!-- Node9&#45;&gt;Node12 -->
<g id="edge12" class="edge">
<title>Node9&#45;&gt;Node12</title>
<path fill="none" stroke="#191970" d="M824.2297,-114.3095C835.1736,-105.8798 850.929,-93.7439 863.6549,-83.9415"/>
<polygon fill="#191970" stroke="#191970" points="866.0984,-86.4773 871.8848,-77.6022 861.8267,-80.9318 866.0984,-86.4773"/>
</g>
<!-- Node9&#45;&gt;Node13 -->
<g id="edge14" class="edge">
<title>Node9&#45;&gt;Node13</title>
<path fill="none" stroke="#191970" d="M799.5581,-114.3095C790.2751,-106.0419 776.9894,-94.2093 766.0985,-84.5096"/>
<polygon fill="#191970" stroke="#191970" points="768.1384,-81.6395 758.3429,-77.6022 763.4827,-86.8668 768.1384,-81.6395"/>
</g>
<!-- Node9&#45;&gt;Node14 -->
<g id="edge15" class="edge">
<title>Node9&#45;&gt;Node14</title>
<path fill="none" stroke="#191970" d="M856.7277,-120.0747C966.4399,-109.4574 1243.6471,-82.6309 1353.819,-71.9691"/>
<polygon fill="#191970" stroke="#191970" points="1354.3318,-75.4359 1363.9481,-70.9889 1353.6575,-68.4685 1354.3318,-75.4359"/>
</g>
<!-- Node9&#45;&gt;Node15 -->
<g id="edge16" class="edge">
<title>Node9&#45;&gt;Node15</title>
<path fill="none" stroke="#191970" d="M850.884,-114.4408C888.9307,-104.8449 946.357,-90.3613 987.3504,-80.0222"/>
<polygon fill="#191970" stroke="#191970" points="988.2948,-83.3937 997.1352,-77.5544 986.5829,-76.6063 988.2948,-83.3937"/>
</g>
<!-- Node10&#45;&gt;Node11 -->
<g id="edge11" class="edge">
<title>Node10&#45;&gt;Node11</title>
<path fill="none" stroke="#191970" d="M485.4578,-57.3095C481.27,-49.6093 475.4003,-38.8166 470.3523,-29.5349"/>
<polygon fill="#191970" stroke="#191970" points="473.3467,-27.7149 465.4942,-20.6022 467.1973,-31.0593 473.3467,-27.7149"/>
</g>
<!-- Node17&#45;&gt;Node11 -->
<g id="edge24" class="edge">
<title>Node17&#45;&gt;Node11</title>
<path fill="none" stroke="#191970" d="M301.8437,-228.3935C279.9921,-211.8148 238.9078,-176.5049 223,-135 210.1514,-101.4769 216.8895,-80.5353 244,-57 269.444,-34.9114 361.6867,-21.2409 417.0659,-14.8369"/>
<polygon fill="#191970" stroke="#191970" points="417.7394,-18.2834 427.2862,-13.689 416.958,-11.3271 417.7394,-18.2834"/>
</g>
<!-- Node17&#45;&gt;Node13 -->
<g id="edge26" class="edge">
<title>Node17&#45;&gt;Node13</title>
<path fill="none" stroke="#191970" d="M338.995,-228.3428C388.7623,-206.4819 510.3367,-153.7358 614,-114 644.987,-102.1222 680.4838,-89.7742 707.0077,-80.7903"/>
<polygon fill="#191970" stroke="#191970" points="708.3485,-84.0318 716.7058,-77.5198 706.1116,-77.3988 708.3485,-84.0318"/>
</g>
<!-- Node17&#45;&gt;Node15 -->
<g id="edge25" class="edge">
<title>Node17&#45;&gt;Node15</title>
<path fill="none" stroke="#191970" d="M358.1904,-235.6475C452.5693,-228.9998 678.2324,-211.5491 752,-192 851.5737,-165.6121 961.0187,-109.4098 1010.3206,-82.4862"/>
<polygon fill="#191970" stroke="#191970" points="1012.287,-85.399 1019.3584,-77.5093 1008.9104,-79.2672 1012.287,-85.399"/>
</g>
<!-- Node20 -->
<g id="node20" class="node">
<title>Node20</title>
<polygon fill="none" stroke="#bfbfbf" points="1141,-114.5 1141,-134.5 1201,-134.5 1201,-114.5 1141,-114.5"/>
<text text-anchor="middle" x="1171" y="-121.5" font-family="FreeSans" font-size="10.00" fill="#000000">Rtypes.h</text>
</g>
<!-- Node19&#45;&gt;Node20 -->
<g id="edge31" class="edge">
<title>Node19&#45;&gt;Node20</title>
<path fill="none" stroke="#191970" d="M1222.7369,-171.3095C1213.5989,-163.0419 1200.5208,-151.2093 1189.8,-141.5096"/>
<polygon fill="#191970" stroke="#191970" points="1191.9292,-138.716 1182.1656,-134.6022 1187.2328,-143.9068 1191.9292,-138.716"/>
</g>
<!-- Node21 -->
<g id="node21" class="node">
<title>Node21</title>
<polygon fill="none" stroke="#bfbfbf" points="1219,-114.5 1219,-134.5 1367,-134.5 1367,-114.5 1219,-114.5"/>
<text text-anchor="middle" x="1293" y="-121.5" font-family="FreeSans" font-size="10.00" fill="#000000">Math/ProbFuncMathCore.h</text>
</g>
<!-- Node19&#45;&gt;Node21 -->
<g id="edge32" class="edge">
<title>Node19&#45;&gt;Node21</title>
<path fill="none" stroke="#191970" d="M1244.548,-171.3095C1253.0219,-163.1229 1265.1137,-151.441 1275.0977,-141.7955"/>
<polygon fill="#191970" stroke="#191970" points="1277.7832,-144.0676 1282.5433,-134.6022 1272.9195,-139.0332 1277.7832,-144.0676"/>
</g>
<!-- Node22&#45;&gt;Node3 -->
<g id="edge43" class="edge">
<title>Node22&#45;&gt;Node3</title>
<path fill="none" stroke="#191970" d="M573.1185,-399.4408C590.9972,-390.5014 617.3596,-377.3202 637.6009,-367.1996"/>
<polygon fill="#191970" stroke="#191970" points="639.3202,-370.2531 646.6992,-362.6504 636.1896,-363.9921 639.3202,-370.2531"/>
</g>
<!-- Node22&#45;&gt;Node8 -->
<g id="edge51" class="edge">
<title>Node22&#45;&gt;Node8</title>
<path fill="none" stroke="#191970" d="M513.7376,-403.9883C459.3726,-395.8813 364.4241,-379.868 334,-363 203.595,-290.6996 155.1486,-94.3401 142.5942,-30.7022"/>
<polygon fill="#191970" stroke="#191970" points="146.006,-29.9072 140.711,-20.7304 139.1276,-31.2063 146.006,-29.9072"/>
</g>
<!-- Node22&#45;&gt;Node11 -->
<g id="edge48" class="edge">
<title>Node22&#45;&gt;Node11</title>
<path fill="none" stroke="#191970" d="M513.7354,-402.2029C474.749,-394.113 418.8482,-379.9437 405,-363 369.7928,-319.9231 392,-294.1342 392,-238.5 392,-238.5 392,-238.5 392,-124.5 392,-85.6742 421.4515,-48.5772 441.5898,-27.7494"/>
<polygon fill="#191970" stroke="#191970" points="444.1578,-30.1315 448.7712,-20.5938 439.2169,-25.1728 444.1578,-30.1315"/>
</g>
<!-- Node23 -->
<g id="node23" class="node">
<title>Node23</title>
<g id="a_node23"><a xlink:href="../../d9/d7a/AbsMeasurement_8h.html" target="_top" xlink:title="AbsMeasurement.h">
<polygon fill="none" stroke="#000000" points="414,-342.5 414,-362.5 528,-362.5 528,-342.5 414,-342.5"/>
<text text-anchor="middle" x="471" y="-349.5" font-family="FreeSans" font-size="10.00" fill="#000000">AbsMeasurement.h</text>
</a>
</g>
</g>
<!-- Node22&#45;&gt;Node23 -->
<g id="edge39" class="edge">
<title>Node22&#45;&gt;Node23</title>
<path fill="none" stroke="#191970" d="M538.34,-399.3095C525.9798,-390.7177 508.0809,-378.2758 493.8429,-368.3786"/>
<polygon fill="#191970" stroke="#191970" points="495.7419,-365.4361 485.533,-362.6022 491.7464,-371.1839 495.7419,-365.4361"/>
</g>
<!-- Node22&#45;&gt;Node24 -->
<g id="edge44" class="edge">
<title>Node22&#45;&gt;Node24</title>
<path fill="none" stroke="#191970" d="M513.8564,-405.8451C475.4668,-400.844 416.3972,-389.268 372,-363 312.1953,-327.6159 290.5724,-313.6119 265,-249 251.1322,-213.9613 262.4467,-169.3269 271.2103,-144.1325"/>
<polygon fill="#191970" stroke="#191970" points="274.546,-145.203 274.7291,-134.6097 267.9799,-142.7767 274.546,-145.203"/>
</g>
<!-- Node25 -->
<g id="node25" class="node">
<title>Node25</title>
<polygon fill="none" stroke="#bfbfbf" points="1077.5,-228.5 1077.5,-248.5 1116.5,-248.5 1116.5,-228.5 1077.5,-228.5"/>
<text text-anchor="middle" x="1097" y="-235.5" font-family="FreeSans" font-size="10.00" fill="#000000">map</text>
</g>
<!-- Node22&#45;&gt;Node25 -->
<g id="edge49" class="edge">
<title>Node22&#45;&gt;Node25</title>
<path fill="none" stroke="#191970" d="M592.1574,-400.5998C702.4446,-375.5314 1007.6992,-306.1402 1008,-306 1035.3393,-293.2536 1062.3129,-271.0768 1079.2721,-255.6354"/>
<polygon fill="#191970" stroke="#191970" points="1081.8205,-258.0447 1086.7507,-248.6669 1077.0485,-252.9233 1081.8205,-258.0447"/>
</g>
<!-- Node22&#45;&gt;Node26 -->
<g id="edge50" class="edge">
<title>Node22&#45;&gt;Node26</title>
<path fill="none" stroke="#191970" d="M592.0336,-406.8998C820.1756,-391.4517 1971,-309.9834 1971,-238.5 1971,-238.5 1971,-238.5 1971,-181.5 1971,-147.1707 1957.0217,-109.2381 1947.2602,-86.9339"/>
<polygon fill="#191970" stroke="#191970" points="1950.3368,-85.2441 1943.012,-77.5892 1943.9644,-88.1411 1950.3368,-85.2441"/>
</g>
<!-- Node23&#45;&gt;Node4 -->
<g id="edge40" class="edge">
<title>Node23&#45;&gt;Node4</title>
<path fill="none" stroke="#191970" d="M481.0117,-342.3095C489.0547,-334.1229 500.5317,-322.441 510.008,-312.7955"/>
<polygon fill="#191970" stroke="#191970" points="512.5634,-315.1885 517.075,-305.6022 507.5701,-310.2827 512.5634,-315.1885"/>
</g>
<!-- Node23&#45;&gt;Node11 -->
<g id="edge42" class="edge">
<title>Node23&#45;&gt;Node11</title>
<path fill="none" stroke="#191970" d="M464.5305,-342.2702C459.1731,-333.1545 451.9751,-319.2449 449,-306 424.746,-198.0238 436.1756,-166.9211 449,-57 450.0294,-48.1769 452.1221,-38.5995 454.2086,-30.4423"/>
<polygon fill="#191970" stroke="#191970" points="457.6056,-31.2885 456.8578,-20.7201 450.8518,-29.4481 457.6056,-31.2885"/>
</g>
<!-- Node23&#45;&gt;Node17 -->
<g id="edge41" class="edge">
<title>Node23&#45;&gt;Node17</title>
<path fill="none" stroke="#191970" d="M457.2448,-342.3833C430.4264,-322.6587 370.9325,-278.9019 338.3683,-254.9515"/>
<polygon fill="#191970" stroke="#191970" points="340.0767,-251.8633 329.9472,-248.7579 335.9293,-257.5024 340.0767,-251.8633"/>
</g>
<!-- Node24&#45;&gt;Node7 -->
<g id="edge45" class="edge">
<title>Node24&#45;&gt;Node7</title>
<path fill="none" stroke="#191970" d="M285.0785,-114.3095C289.72,-106.5282 296.2451,-95.589 301.8204,-86.2423"/>
<polygon fill="#191970" stroke="#191970" points="304.8571,-87.9834 306.9741,-77.6022 298.8454,-84.3975 304.8571,-87.9834"/>
</g>
<!-- Node24&#45;&gt;Node10 -->
<g id="edge46" class="edge">
<title>Node24&#45;&gt;Node10</title>
<path fill="none" stroke="#191970" d="M316.4133,-114.4408C353.1862,-104.5537 409.2583,-89.4777 447.8834,-79.0927"/>
<polygon fill="#191970" stroke="#191970" points="449.0457,-82.4045 457.794,-76.428 447.2282,-75.6446 449.0457,-82.4045"/>
</g>
<!-- Node24&#45;&gt;Node11 -->
<g id="edge47" class="edge">
<title>Node24&#45;&gt;Node11</title>
<path fill="none" stroke="#191970" d="M269.3399,-114.3802C257.0588,-100.2687 239.033,-74.4526 253,-57 273.1615,-31.807 362.687,-19.3173 417.1862,-13.9432"/>
<polygon fill="#191970" stroke="#191970" points="417.6328,-17.4167 427.2591,-12.9913 416.9742,-10.4478 417.6328,-17.4167"/>
</g>
<!-- Node28&#45;&gt;Node6 -->
<g id="edge56" class="edge">
<title>Node28&#45;&gt;Node6</title>
<path fill="none" stroke="#191970" d="M853.9564,-399.3438C824.8396,-375.9876 754.1177,-315.3456 716,-249 707.5442,-234.2824 702.3769,-215.6685 699.4187,-201.7169"/>
<polygon fill="#191970" stroke="#191970" points="702.8172,-200.8545 697.4992,-191.691 695.9421,-202.1708 702.8172,-200.8545"/>
</g>
<!-- Node28&#45;&gt;Node14 -->
<g id="edge57" class="edge">
<title>Node28&#45;&gt;Node14</title>
<path fill="none" stroke="#191970" d="M885.8467,-399.4635C900.7393,-390.9754 921.5228,-377.8469 937,-363 1038.4376,-265.6931 1009.9319,-183.6964 1132,-114 1168.9804,-92.8856 1286.8687,-78.4425 1353.3119,-71.7504"/>
<polygon fill="#191970" stroke="#191970" points="1353.906,-75.2088 1363.5137,-70.743 1353.2181,-68.2427 1353.906,-75.2088"/>
</g>
<!-- Node28&#45;&gt;Node23 -->
<g id="edge55" class="edge">
<title>Node28&#45;&gt;Node23</title>
<path fill="none" stroke="#191970" d="M797.1147,-399.4408C724.1022,-388.9314 610.3589,-372.5592 538.3187,-362.1898"/>
<polygon fill="#191970" stroke="#191970" points="538.3989,-358.6654 528.0022,-360.7049 537.4016,-365.594 538.3989,-358.6654"/>
</g>
<!-- Node29 -->
<g id="node29" class="node">
<title>Node29</title>
<polygon fill="none" stroke="#bfbfbf" points="858.5,-342.5 858.5,-362.5 927.5,-362.5 927.5,-342.5 858.5,-342.5"/>
<text text-anchor="middle" x="893" y="-349.5" font-family="FreeSans" font-size="10.00" fill="#000000">TMatrixT.h</text>
</g>
<!-- Node28&#45;&gt;Node29 -->
<g id="edge58" class="edge">
<title>Node28&#45;&gt;Node29</title>
<path fill="none" stroke="#191970" d="M871.6483,-399.3095C875.1237,-391.6903 879.9802,-381.0435 884.1835,-371.8285"/>
<polygon fill="#191970" stroke="#191970" points="887.4262,-373.153 888.392,-362.6022 881.0575,-370.2479 887.4262,-373.153"/>
</g>
<!-- Node30&#45;&gt;Node13 -->
<g id="edge64" class="edge">
<title>Node30&#45;&gt;Node13</title>
<path fill="none" stroke="#191970" d="M1731.8515,-115.5128C1728.8721,-114.9261 1725.8915,-114.4079 1723,-114 1334.5202,-59.1966 1232.1934,-107.7949 841,-78 825.4349,-76.8145 808.4678,-75.0616 793.2862,-73.3261"/>
<polygon fill="#191970" stroke="#191970" points="793.4393,-69.8202 783.1003,-72.1346 792.626,-76.7728 793.4393,-69.8202"/>
</g>
<!-- Node30&#45;&gt;Node14 -->
<g id="edge65" class="edge">
<title>Node30&#45;&gt;Node14</title>
<path fill="none" stroke="#191970" d="M1731.8045,-115.7988C1728.8353,-115.15 1725.8699,-114.5394 1723,-114 1603.5883,-91.5564 1571.8392,-98.0357 1452,-78 1450.0583,-77.6754 1448.0784,-77.3318 1446.08,-76.9746"/>
<polygon fill="#191970" stroke="#191970" points="1446.4999,-73.4926 1436.0279,-75.1009 1445.2172,-80.3741 1446.4999,-73.4926"/>
</g>
<!-- Node30&#45;&gt;Node15 -->
<g id="edge66" class="edge">
<title>Node30&#45;&gt;Node15</title>
<path fill="none" stroke="#191970" d="M1731.839,-115.5973C1728.8623,-114.9922 1725.8858,-114.4467 1723,-114 1602.4481,-95.3375 1237.1251,-76.8349 1094.7126,-70.1326"/>
<polygon fill="#191970" stroke="#191970" points="1094.6,-66.6236 1084.4471,-69.6518 1094.2724,-73.6159 1094.6,-66.6236"/>
</g>
<!-- Node30&#45;&gt;Node26 -->
<g id="edge61" class="edge">
<title>Node30&#45;&gt;Node26</title>
<path fill="none" stroke="#191970" d="M1796.3542,-114.4408C1826.3771,-104.4913 1872.2563,-89.2872 1903.6104,-78.8965"/>
<polygon fill="#191970" stroke="#191970" points="1904.8501,-82.173 1913.2415,-75.7049 1902.6481,-75.5283 1904.8501,-82.173"/>
</g>
<!-- Node31 -->
<g id="node31" class="node">
<title>Node31</title>
<polygon fill="none" stroke="#bfbfbf" points="1461,-57.5 1461,-77.5 1521,-77.5 1521,-57.5 1461,-57.5"/>
<text text-anchor="middle" x="1491" y="-64.5" font-family="FreeSans" font-size="10.00" fill="#000000">iostream</text>
</g>
<!-- Node30&#45;&gt;Node31 -->
<g id="edge60" class="edge">
<title>Node30&#45;&gt;Node31</title>
<path fill="none" stroke="#191970" d="M1731.7716,-115.9618C1728.8095,-115.2776 1725.8548,-114.6143 1723,-114 1640.7777,-96.3069 1616.799,-97.2596 1531.0817,-78.1151"/>
<polygon fill="#191970" stroke="#191970" points="1531.7009,-74.6668 1521.1752,-75.8753 1530.1571,-81.4944 1531.7009,-74.6668"/>
</g>
<!-- Node32 -->
<g id="node32" class="node">
<title>Node32</title>
<polygon fill="none" stroke="#bfbfbf" points="1539,-57.5 1539,-77.5 1591,-77.5 1591,-57.5 1539,-57.5"/>
<text text-anchor="middle" x="1565" y="-64.5" font-family="FreeSans" font-size="10.00" fill="#000000">math.h</text>
</g>
<!-- Node30&#45;&gt;Node32 -->
<g id="edge62" class="edge">
<title>Node30&#45;&gt;Node32</title>
<path fill="none" stroke="#191970" d="M1731.9303,-115.1529C1700.3712,-106.4511 1651.8803,-92.9712 1601.1836,-78.3119"/>
<polygon fill="#191970" stroke="#191970" points="1601.9371,-74.8863 1591.358,-75.4638 1599.9882,-81.6095 1601.9371,-74.8863"/>
</g>
<!-- Node33 -->
<g id="node33" class="node">
<title>Node33</title>
<polygon fill="none" stroke="#bfbfbf" points="1829,-57.5 1829,-77.5 1895,-77.5 1895,-57.5 1829,-57.5"/>
<text text-anchor="middle" x="1862" y="-64.5" font-family="FreeSans" font-size="10.00" fill="#000000">stdexcept</text>
</g>
<!-- Node30&#45;&gt;Node33 -->
<g id="edge63" class="edge">
<title>Node30&#45;&gt;Node33</title>
<path fill="none" stroke="#191970" d="M1783.1629,-114.3095C1797.9064,-105.5556 1819.3812,-92.8049 1836.196,-82.8211"/>
<polygon fill="#191970" stroke="#191970" points="1838.1741,-85.7172 1844.9857,-77.6022 1834.6002,-79.6982 1838.1741,-85.7172"/>
</g>
<!-- Node34 -->
<g id="node34" class="node">
<title>Node34</title>
<polygon fill="none" stroke="#bfbfbf" points="1980.5,-57.5 1980.5,-77.5 2103.5,-77.5 2103.5,-57.5 1980.5,-57.5"/>
<text text-anchor="middle" x="2042" y="-64.5" font-family="FreeSans" font-size="10.00" fill="#000000">TMatrixDSymEigen.h</text>
</g>
<!-- Node30&#45;&gt;Node34 -->
<g id="edge67" class="edge">
<title>Node30&#45;&gt;Node34</title>
<path fill="none" stroke="#191970" d="M1800.1198,-117.4535C1845.8763,-108.0038 1927.7978,-91.0852 1983.4977,-79.582"/>
<polygon fill="#191970" stroke="#191970" points="1984.493,-82.9504 1993.5784,-77.5001 1983.0771,-76.0951 1984.493,-82.9504"/>
</g>
<!-- Node35 -->
<g id="node35" class="node">
<title>Node35</title>
<polygon fill="none" stroke="#bfbfbf" points="1719,-57.5 1719,-77.5 1811,-77.5 1811,-57.5 1719,-57.5"/>
<text text-anchor="middle" x="1765" y="-64.5" font-family="FreeSans" font-size="10.00" fill="#000000">Math/SMatrix.h</text>
</g>
<!-- Node30&#45;&gt;Node35 -->
<g id="edge68" class="edge">
<title>Node30&#45;&gt;Node35</title>
<path fill="none" stroke="#191970" d="M1765.8212,-114.3095C1765.6918,-106.9335 1765.5126,-96.72 1765.3546,-87.715"/>
<polygon fill="#191970" stroke="#191970" points="1768.8522,-87.5393 1765.1772,-77.6022 1761.8533,-87.6621 1768.8522,-87.5393"/>
</g>
<!-- Node36 -->
<g id="node36" class="node">
<title>Node36</title>
<polygon fill="none" stroke="#bfbfbf" points="1609,-57.5 1609,-77.5 1701,-77.5 1701,-57.5 1609,-57.5"/>
<text text-anchor="middle" x="1655" y="-64.5" font-family="FreeSans" font-size="10.00" fill="#000000">Math/SVector.h</text>
</g>
<!-- Node30&#45;&gt;Node36 -->
<g id="edge69" class="edge">
<title>Node30&#45;&gt;Node36</title>
<path fill="none" stroke="#191970" d="M1746.4109,-114.4408C1729.0815,-105.5419 1703.5662,-92.4394 1683.8934,-82.3371"/>
<polygon fill="#191970" stroke="#191970" points="1685.2611,-79.105 1674.7666,-77.6504 1682.0634,-85.332 1685.2611,-79.105"/>
</g>
<!-- Node37&#45;&gt;Node30 -->
<g id="edge71" class="edge">
<title>Node37&#45;&gt;Node30</title>
<path fill="none" stroke="#191970" d="M1766,-171.3095C1766,-163.9335 1766,-153.72 1766,-144.715"/>
<polygon fill="#191970" stroke="#191970" points="1769.5001,-144.6022 1766,-134.6022 1762.5001,-144.6023 1769.5001,-144.6022"/>
</g>
<!-- Node37&#45;&gt;Node34 -->
<g id="edge90" class="edge">
<title>Node37&#45;&gt;Node34</title>
<path fill="none" stroke="#191970" d="M1811.6653,-171.9995C1845.205,-164.2033 1891.4475,-151.7257 1930,-135 1962.9493,-120.7052 1997.9473,-98.3 2019.8786,-83.2677"/>
<polygon fill="#191970" stroke="#191970" points="2021.9441,-86.0945 2028.1599,-77.5147 2017.9503,-80.3456 2021.9441,-86.0945"/>
</g>
<!-- Node38 -->
<g id="node38" class="node">
<title>Node38</title>
<g id="a_node38"><a xlink:href="../../d9/d02/GblData_8h.html" target="_top" xlink:title="GblData.h">
<polygon fill="none" stroke="#ff0000" points="1646.5,-114.5 1646.5,-134.5 1713.5,-134.5 1713.5,-114.5 1646.5,-114.5"/>
<text text-anchor="middle" x="1680" y="-121.5" font-family="FreeSans" font-size="10.00" fill="#000000">GblData.h</text>
</a>
</g>
</g>
<!-- Node37&#45;&gt;Node38 -->
<g id="edge72" class="edge">
<title>Node37&#45;&gt;Node38</title>
<path fill="none" stroke="#191970" d="M1750.6249,-171.3095C1737.6617,-162.7177 1718.8898,-150.2758 1703.9572,-140.3786"/>
<polygon fill="#191970" stroke="#191970" points="1705.511,-137.2095 1695.242,-134.6022 1701.6437,-143.0443 1705.511,-137.2095"/>
</g>
<!-- Node39 -->
<g id="node39" class="node">
<title>Node39</title>
<g id="a_node39"><a xlink:href="../../df/db6/BorderedBandMatrix_8h.html" target="_top" xlink:title="BorderedBandMatrix.h">
<polygon fill="none" stroke="#ff0000" points="1499.5,-114.5 1499.5,-134.5 1628.5,-134.5 1628.5,-114.5 1499.5,-114.5"/>
<text text-anchor="middle" x="1564" y="-121.5" font-family="FreeSans" font-size="10.00" fill="#000000">BorderedBandMatrix.h</text>
</a>
</g>
</g>
<!-- Node37&#45;&gt;Node39 -->
<g id="edge81" class="edge">
<title>Node37&#45;&gt;Node39</title>
<path fill="none" stroke="#191970" d="M1730.3514,-171.4408C1696.7046,-161.9464 1646.1004,-147.6669 1609.5439,-137.3515"/>
<polygon fill="#191970" stroke="#191970" points="1610.2061,-133.9017 1599.6313,-134.5544 1608.305,-140.6387 1610.2061,-133.9017"/>
</g>
<!-- Node40 -->
<g id="node40" class="node">
<title>Node40</title>
<g id="a_node40"><a xlink:href="../../de/dd8/MilleBinary_8h.html" target="_top" xlink:title="MilleBinary.h">
<polygon fill="none" stroke="#ff0000" points="1841,-114.5 1841,-134.5 1921,-134.5 1921,-114.5 1841,-114.5"/>
<text text-anchor="middle" x="1881" y="-121.5" font-family="FreeSans" font-size="10.00" fill="#000000">MilleBinary.h</text>
</a>
</g>
</g>
<!-- Node37&#45;&gt;Node40 -->
<g id="edge88" class="edge">
<title>Node37&#45;&gt;Node40</title>
<path fill="none" stroke="#191970" d="M1786.295,-171.4408C1804.3305,-162.5014 1830.9242,-149.3202 1851.343,-139.1996"/>
<polygon fill="#191970" stroke="#191970" points="1853.1156,-142.2273 1860.5211,-134.6504 1850.0069,-135.9555 1853.1156,-142.2273"/>
</g>
<!-- Node38&#45;&gt;Node13 -->
<g id="edge76" class="edge">
<title>Node38&#45;&gt;Node13</title>
<path fill="none" stroke="#191970" d="M1646.19,-115.4311C1643.4323,-114.8799 1640.6774,-114.3911 1638,-114 1287.1406,-62.7448 1194.5,-105.6966 841,-78 825.4375,-76.7807 808.4711,-75.0191 793.2893,-73.286"/>
<polygon fill="#191970" stroke="#191970" points="793.4414,-69.7801 783.1032,-72.0978 792.6303,-76.733 793.4414,-69.7801"/>
</g>
<!-- Node38&#45;&gt;Node14 -->
<g id="edge77" class="edge">
<title>Node38&#45;&gt;Node14</title>
<path fill="none" stroke="#191970" d="M1646.111,-115.8616C1643.371,-115.2138 1640.6417,-114.5854 1638,-114 1555.7935,-95.7826 1534.6015,-94.333 1452,-78 1450.0688,-77.6181 1448.0975,-77.2268 1446.1064,-76.8303"/>
<polygon fill="#191970" stroke="#191970" points="1446.5707,-73.3539 1436.0783,-74.8242 1445.1974,-80.2179 1446.5707,-73.3539"/>
</g>
<!-- Node38&#45;&gt;Node15 -->
<g id="edge78" class="edge">
<title>Node38&#45;&gt;Node15</title>
<path fill="none" stroke="#191970" d="M1646.1754,-115.5261C1643.4209,-114.9536 1640.6708,-114.434 1638,-114 1440.0631,-81.834 1201.7199,-71.7687 1094.3579,-68.7405"/>
<polygon fill="#191970" stroke="#191970" points="1094.1661,-65.2341 1084.0746,-68.4608 1093.9757,-72.2315 1094.1661,-65.2341"/>
</g>
<!-- Node38&#45;&gt;Node26 -->
<g id="edge74" class="edge">
<title>Node38&#45;&gt;Node26</title>
<path fill="none" stroke="#191970" d="M1713.769,-116.1082C1716.8858,-115.3778 1719.9988,-114.6646 1723,-114 1799.9523,-96.9603 1822.7259,-98.0123 1903.1058,-78.0265"/>
<polygon fill="#191970" stroke="#191970" points="1904.3598,-81.32 1913.2013,-75.4823 1902.6492,-74.5322 1904.3598,-81.32"/>
</g>
<!-- Node38&#45;&gt;Node31 -->
<g id="edge73" class="edge">
<title>Node38&#45;&gt;Node31</title>
<path fill="none" stroke="#191970" d="M1646.6457,-114.4408C1614.3343,-104.696 1565.3091,-89.9107 1530.9355,-79.544"/>
<polygon fill="#191970" stroke="#191970" points="1531.7993,-76.1489 1521.2147,-76.6124 1529.7781,-82.8508 1531.7993,-76.1489"/>
</g>
<!-- Node38&#45;&gt;Node32 -->
<g id="edge75" class="edge">
<title>Node38&#45;&gt;Node32</title>
<path fill="none" stroke="#191970" d="M1659.705,-114.4408C1641.6695,-105.5014 1615.0758,-92.3202 1594.657,-82.1996"/>
<polygon fill="#191970" stroke="#191970" points="1595.9931,-78.9555 1585.4789,-77.6504 1592.8844,-85.2273 1595.9931,-78.9555"/>
</g>
<!-- Node38&#45;&gt;Node35 -->
<g id="edge79" class="edge">
<title>Node38&#45;&gt;Node35</title>
<path fill="none" stroke="#191970" d="M1695.1963,-114.3095C1708.0087,-105.7177 1726.5624,-93.2758 1741.3214,-83.3786"/>
<polygon fill="#191970" stroke="#191970" points="1743.5792,-86.0787 1749.9353,-77.6022 1739.6805,-80.2649 1743.5792,-86.0787"/>
</g>
<!-- Node38&#45;&gt;Node36 -->
<g id="edge80" class="edge">
<title>Node38&#45;&gt;Node36</title>
<path fill="none" stroke="#191970" d="M1675.5305,-114.3095C1672.1887,-106.6903 1667.5191,-96.0435 1663.4774,-86.8285"/>
<polygon fill="#191970" stroke="#191970" points="1666.6527,-85.3543 1659.4308,-77.6022 1660.2422,-88.166 1666.6527,-85.3543"/>
</g>
<!-- Node39&#45;&gt;Node13 -->
<g id="edge85" class="edge">
<title>Node39&#45;&gt;Node13</title>
<path fill="none" stroke="#191970" d="M1499.3726,-120.7349C1346.8773,-111.7873 967.9409,-89.1657 841,-78 825.4499,-76.6322 808.4866,-74.8324 793.304,-73.11"/>
<polygon fill="#191970" stroke="#191970" points="793.4516,-69.6039 783.1166,-71.9362 792.6503,-76.5579 793.4516,-69.6039"/>
</g>
<!-- Node39&#45;&gt;Node14 -->
<g id="edge86" class="edge">
<title>Node39&#45;&gt;Node14</title>
<path fill="none" stroke="#191970" d="M1535.0576,-114.4408C1508.2074,-105.1087 1468.0564,-91.1537 1438.5081,-80.8839"/>
<polygon fill="#191970" stroke="#191970" points="1439.5232,-77.5314 1428.9284,-77.5544 1437.2251,-84.1434 1439.5232,-77.5314"/>
</g>
<!-- Node39&#45;&gt;Node15 -->
<g id="edge87" class="edge">
<title>Node39&#45;&gt;Node15</title>
<path fill="none" stroke="#191970" d="M1499.3795,-117.5107C1395.5855,-106.2844 1193.3635,-84.4122 1094.3733,-73.7055"/>
<polygon fill="#191970" stroke="#191970" points="1094.579,-70.2074 1084.2606,-72.6117 1093.8262,-77.1668 1094.579,-70.2074"/>
</g>
<!-- Node39&#45;&gt;Node26 -->
<g id="edge83" class="edge">
<title>Node39&#45;&gt;Node26</title>
<path fill="none" stroke="#191970" d="M1628.5704,-115.3131C1631.7585,-114.8673 1634.9153,-114.4276 1638,-114 1752.939,-98.0679 1785.7203,-103.3734 1903.137,-77.8864"/>
<polygon fill="#191970" stroke="#191970" points="1904.2297,-81.2298 1913.244,-75.6628 1902.7255,-74.3933 1904.2297,-81.2298"/>
</g>
<!-- Node39&#45;&gt;Node31 -->
<g id="edge82" class="edge">
<title>Node39&#45;&gt;Node31</title>
<path fill="none" stroke="#191970" d="M1550.9491,-114.3095C1540.153,-105.8798 1524.6106,-93.7439 1512.0567,-83.9415"/>
<polygon fill="#191970" stroke="#191970" points="1513.9739,-80.998 1503.9379,-77.6022 1509.6658,-86.5153 1513.9739,-80.998"/>
</g>
<!-- Node39&#45;&gt;Node32 -->
<g id="edge84" class="edge">
<title>Node39&#45;&gt;Node32</title>
<path fill="none" stroke="#191970" d="M1564.1788,-114.3095C1564.3082,-106.9335 1564.4874,-96.72 1564.6454,-87.715"/>
<polygon fill="#191970" stroke="#191970" points="1568.1467,-87.6621 1564.8228,-77.6022 1561.1478,-87.5393 1568.1467,-87.6621"/>
</g>
<!-- Node40&#45;&gt;Node26 -->
<g id="edge89" class="edge">
<title>Node40&#45;&gt;Node26</title>
<path fill="none" stroke="#191970" d="M1891.1905,-114.3095C1899.3771,-106.1229 1911.059,-94.441 1920.7045,-84.7955"/>
<polygon fill="#191970" stroke="#191970" points="1923.3016,-87.1482 1927.8978,-77.6022 1918.3518,-82.1984 1923.3016,-87.1482"/>
</g>
<!-- Node41&#45;&gt;Node2 -->
<g id="edge95" class="edge">
<title>Node41&#45;&gt;Node2</title>
<path fill="none" stroke="#191970" d="M1338.5735,-305.6006C1305.0059,-327.5734 1211.8606,-380.8801 1131,-420 1106.3682,-431.9167 1077.9099,-444.0022 1054.9875,-452.8645"/>
<polygon fill="#191970" stroke="#191970" points="1053.6362,-449.6337 1045.5298,-456.4555 1056.121,-456.1779 1053.6362,-449.6337"/>
</g>
<!-- Node41&#45;&gt;Node9 -->
<g id="edge94" class="edge">
<title>Node41&#45;&gt;Node9</title>
<path fill="none" stroke="#191970" d="M1316.8286,-288.9489C1279.7745,-281.3454 1219.2006,-267.4512 1169,-249 1149.0373,-241.6627 1146.1456,-234.8191 1126,-228 1049.1355,-201.982 1023.7808,-218.2638 947,-192 906.6187,-178.1871 862.9156,-154.8459 836.2454,-139.5543"/>
<polygon fill="#191970" stroke="#191970" points="837.9611,-136.5033 827.5555,-134.51 834.4469,-142.5573 837.9611,-136.5033"/>
</g>
<!-- Node41&#45;&gt;Node12 -->
<g id="edge113" class="edge">
<title>Node41&#45;&gt;Node12</title>
<path fill="none" stroke="#191970" d="M1320.4951,-285.4941C1254.805,-263.3111 1096.1138,-206.2808 975,-135 949.2517,-119.846 922.1402,-98.7014 904.4879,-84.136"/>
<polygon fill="#191970" stroke="#191970" points="906.5474,-81.2959 896.6295,-77.5694 902.0588,-86.6674 906.5474,-81.2959"/>
</g>
<!-- Node41&#45;&gt;Node14 -->
<g id="edge109" class="edge">
<title>Node41&#45;&gt;Node14</title>
<path fill="none" stroke="#191970" d="M1316.7175,-288.8784C1276.2376,-279.4651 1217.1193,-259.7452 1240,-228 1269.5843,-186.954 1304.5156,-217.8671 1348,-192 1379.8895,-173.0302 1394.2217,-169.0352 1409,-135 1415.6039,-119.7909 1412.2706,-100.9869 1407.9062,-87.0918"/>
<polygon fill="#191970" stroke="#191970" points="1411.1657,-85.8115 1404.5153,-77.5639 1404.5709,-88.1586 1411.1657,-85.8115"/>
</g>
<!-- Node41&#45;&gt;Node25 -->
<g id="edge107" class="edge">
<title>Node41&#45;&gt;Node25</title>
<path fill="none" stroke="#191970" d="M1316.8559,-289.2849C1273.4107,-281.1479 1196.1818,-265.9158 1131,-249 1129.5424,-248.6217 1128.0542,-248.2203 1126.5543,-247.8036"/>
<polygon fill="#191970" stroke="#191970" points="1127.2701,-244.3662 1116.6894,-244.9141 1125.3024,-251.084 1127.2701,-244.3662"/>
</g>
<!-- Node41&#45;&gt;Node31 -->
<g id="edge108" class="edge">
<title>Node41&#45;&gt;Node31</title>
<path fill="none" stroke="#191970" d="M1385.3111,-292.6132C1437.1427,-287.4613 1531.5484,-274.7231 1552,-249 1557.8085,-241.6943 1554.6712,-236.9429 1552,-228 1537.8527,-180.6364 1505.1473,-182.3636 1491,-135 1486.4408,-119.7362 1486.7235,-101.6499 1487.9915,-88.0426"/>
<polygon fill="#191970" stroke="#191970" points="1491.501,-88.1689 1489.2037,-77.8262 1484.5497,-87.3441 1491.501,-88.1689"/>
</g>
<!-- Node41&#45;&gt;Node37 -->
<g id="edge92" class="edge">
<title>Node41&#45;&gt;Node37</title>
<path fill="none" stroke="#191970" d="M1385.0047,-291.4481C1431.1606,-285.3422 1515.8194,-271.9819 1585,-249 1605.5637,-242.1687 1608.9278,-236.1631 1629,-228 1660.0831,-215.3589 1696.0337,-203.2481 1723.3068,-194.5566"/>
<polygon fill="#191970" stroke="#191970" points="1724.4557,-197.8642 1732.937,-191.5145 1722.3472,-191.1893 1724.4557,-197.8642"/>
</g>
<!-- Node42 -->
<g id="node42" class="node">
<title>Node42</title>
<g id="a_node42"><a xlink:href="../../d5/d19/AbsFitter_8h.html" target="_top" xlink:title="AbsFitter.h">
<polygon fill="none" stroke="#000000" points="1473,-228.5 1473,-248.5 1543,-248.5 1543,-228.5 1473,-228.5"/>
<text text-anchor="middle" x="1508" y="-235.5" font-family="FreeSans" font-size="10.00" fill="#000000">AbsFitter.h</text>
</a>
</g>
</g>
<!-- Node41&#45;&gt;Node42 -->
<g id="edge93" class="edge">
<title>Node41&#45;&gt;Node42</title>
<path fill="none" stroke="#191970" d="M1378.707,-285.4408C1404.2995,-276.1492 1442.5145,-262.275 1470.766,-252.0181"/>
<polygon fill="#191970" stroke="#191970" points="1472.1011,-255.257 1480.3063,-248.5544 1469.7122,-248.6772 1472.1011,-255.257"/>
</g>
<!-- Node43 -->
<g id="node43" class="node">
<title>Node43</title>
<g id="a_node43"><a xlink:href="../../d9/d27/GblFitStatus_8h.html" target="_top" xlink:title="GblFitStatus.h">
<polygon fill="none" stroke="#ff0000" points="1819,-228.5 1819,-248.5 1905,-248.5 1905,-228.5 1819,-228.5"/>
<text text-anchor="middle" x="1862" y="-235.5" font-family="FreeSans" font-size="10.00" fill="#000000">GblFitStatus.h</text>
</a>
</g>
</g>
<!-- Node41&#45;&gt;Node43 -->
<g id="edge96" class="edge">
<title>Node41&#45;&gt;Node43</title>
<path fill="none" stroke="#191970" d="M1385.1171,-293.1965C1459.9417,-287.898 1644.2411,-273.5019 1808.6295,-249.0835"/>
<polygon fill="#191970" stroke="#191970" points="1809.5585,-252.4833 1818.9276,-247.5365 1808.5186,-245.561 1809.5585,-252.4833"/>
</g>
<!-- Node44 -->
<g id="node44" class="node">
<title>Node44</title>
<g id="a_node44"><a xlink:href="../../d3/ddf/GblTrackSegmentController_8h.html" target="_top" xlink:title="GblTrackSegmentController.h">
<polygon fill="none" stroke="#ff0000" points="1637.5,-228.5 1637.5,-248.5 1800.5,-248.5 1800.5,-228.5 1637.5,-228.5"/>
<text text-anchor="middle" x="1719" y="-235.5" font-family="FreeSans" font-size="10.00" fill="#000000">GblTrackSegmentController.h</text>
</a>
</g>
</g>
<!-- Node41&#45;&gt;Node44 -->
<g id="edge101" class="edge">
<title>Node41&#45;&gt;Node44</title>
<path fill="none" stroke="#191970" d="M1385.0179,-289.5613C1442.461,-280.2369 1559.8333,-261.9937 1639.0238,-250.0283"/>
<polygon fill="#191970" stroke="#191970" points="1639.6013,-253.4809 1648.9675,-248.5287 1638.5574,-246.5592 1639.6013,-253.4809"/>
</g>
<!-- Node45 -->
<g id="node45" class="node">
<title>Node45</title>
<polygon fill="none" stroke="#bfbfbf" points="1249,-228.5 1249,-248.5 1305,-248.5 1305,-228.5 1249,-228.5"/>
<text text-anchor="middle" x="1277" y="-235.5" font-family="FreeSans" font-size="10.00" fill="#000000">assert.h</text>
</g>
<!-- Node41&#45;&gt;Node45 -->
<g id="edge110" class="edge">
<title>Node41&#45;&gt;Node45</title>
<path fill="none" stroke="#191970" d="M1337.7703,-285.3095C1326.8264,-276.8798 1311.071,-264.7439 1298.3451,-254.9415"/>
<polygon fill="#191970" stroke="#191970" points="1300.1733,-251.9318 1290.1152,-248.6022 1295.9016,-257.4773 1300.1733,-251.9318"/>
</g>
<!-- Node46 -->
<g id="node46" class="node">
<title>Node46</title>
<polygon fill="none" stroke="#bfbfbf" points="1323,-228.5 1323,-248.5 1379,-248.5 1379,-228.5 1323,-228.5"/>
<text text-anchor="middle" x="1351" y="-235.5" font-family="FreeSans" font-size="10.00" fill="#000000">sstream</text>
</g>
<!-- Node41&#45;&gt;Node46 -->
<g id="edge111" class="edge">
<title>Node41&#45;&gt;Node46</title>
<path fill="none" stroke="#191970" d="M1351,-285.3095C1351,-277.9335 1351,-267.72 1351,-258.715"/>
<polygon fill="#191970" stroke="#191970" points="1354.5001,-258.6022 1351,-248.6022 1347.5001,-258.6023 1354.5001,-258.6022"/>
</g>
<!-- Node47 -->
<g id="node47" class="node">
<title>Node47</title>
<polygon fill="none" stroke="#bfbfbf" points="1397,-228.5 1397,-248.5 1455,-248.5 1455,-228.5 1397,-228.5"/>
<text text-anchor="middle" x="1426" y="-235.5" font-family="FreeSans" font-size="10.00" fill="#000000">TMath.h</text>
</g>
<!-- Node41&#45;&gt;Node47 -->
<g id="edge112" class="edge">
<title>Node41&#45;&gt;Node47</title>
<path fill="none" stroke="#191970" d="M1364.4085,-285.3095C1375.607,-276.7987 1391.7761,-264.5102 1404.7377,-254.6594"/>
<polygon fill="#191970" stroke="#191970" points="1406.8638,-257.4397 1412.7076,-248.6022 1402.6281,-251.8665 1406.8638,-257.4397"/>
</g>
<!-- Node43&#45;&gt;Node2 -->
<g id="edge99" class="edge">
<title>Node43&#45;&gt;Node2</title>
<path fill="none" stroke="#191970" d="M1827.3792,-248.5902C1730.1027,-276.8369 1445.8976,-358.6462 1208,-420 1160.4119,-432.273 1105.9926,-445.1544 1066.7571,-454.239"/>
<polygon fill="#191970" stroke="#191970" points="1065.8265,-450.8617 1056.8705,-456.5222 1067.4017,-457.6822 1065.8265,-450.8617"/>
</g>
<!-- Node43&#45;&gt;Node19 -->
<g id="edge97" class="edge">
<title>Node43&#45;&gt;Node19</title>
<path fill="none" stroke="#191970" d="M1818.9376,-229.3951C1815.9197,-228.8833 1812.9184,-228.411 1810,-228 1613.023,-200.2619 1375.643,-187.5968 1278.6061,-183.2956"/>
<polygon fill="#191970" stroke="#191970" points="1278.7094,-179.7969 1268.5666,-182.8584 1278.4048,-186.7902 1278.7094,-179.7969"/>
</g>
<!-- Node43&#45;&gt;Node27 -->
<g id="edge98" class="edge">
<title>Node43&#45;&gt;Node27</title>
<path fill="none" stroke="#191970" d="M1862,-228.3095C1862,-220.9335 1862,-210.72 1862,-201.715"/>
<polygon fill="#191970" stroke="#191970" points="1865.5001,-201.6022 1862,-191.6022 1858.5001,-201.6023 1865.5001,-201.6022"/>
</g>
<!-- Node43&#45;&gt;Node37 -->
<g id="edge100" class="edge">
<title>Node43&#45;&gt;Node37</title>
<path fill="none" stroke="#191970" d="M1844.8371,-228.3095C1830.0936,-219.5556 1808.6188,-206.8049 1791.804,-196.8211"/>
<polygon fill="#191970" stroke="#191970" points="1793.3998,-193.6982 1783.0143,-191.6022 1789.8259,-199.7172 1793.3998,-193.6982"/>
</g>
<!-- Node44&#45;&gt;Node2 -->
<g id="edge103" class="edge">
<title>Node44&#45;&gt;Node2</title>
<path fill="none" stroke="#191970" d="M1689.0408,-248.5455C1605.9861,-276.3443 1365.692,-356.4338 1165,-420 1128.4822,-431.5665 1086.8773,-444.2609 1056.4383,-453.4596"/>
<polygon fill="#191970" stroke="#191970" points="1055.1295,-450.1986 1046.5671,-456.4384 1057.1518,-456.9001 1055.1295,-450.1986"/>
</g>
<!-- Node44&#45;&gt;Node12 -->
<g id="edge106" class="edge">
<title>Node44&#45;&gt;Node12</title>
<path fill="none" stroke="#191970" d="M1637.2985,-232.651C1499.8523,-222.6104 1233.1796,-202.1936 1191,-192 1084.1985,-166.1891 965.8797,-109.2867 913.0923,-82.2817"/>
<polygon fill="#191970" stroke="#191970" points="914.5079,-79.0738 904.0159,-77.6014 911.2997,-85.2953 914.5079,-79.0738"/>
</g>
<!-- Node44&#45;&gt;Node27 -->
<g id="edge102" class="edge">
<title>Node44&#45;&gt;Node27</title>
<path fill="none" stroke="#191970" d="M1744.2364,-228.4408C1767.272,-219.2587 1801.5352,-205.6013 1827.1728,-195.3822"/>
<polygon fill="#191970" stroke="#191970" points="1828.5416,-198.6044 1836.5349,-191.6504 1825.9497,-192.1019 1828.5416,-198.6044"/>
</g>
<!-- Node44&#45;&gt;Node37 -->
<g id="edge104" class="edge">
<title>Node44&#45;&gt;Node37</title>
<path fill="none" stroke="#191970" d="M1727.4027,-228.3095C1734.0193,-220.2851 1743.4052,-208.9022 1751.2644,-199.3708"/>
<polygon fill="#191970" stroke="#191970" points="1754.0086,-201.5443 1757.6701,-191.6022 1748.6078,-197.091 1754.0086,-201.5443"/>
</g>
<!-- Node44&#45;&gt;Node41 -->
<g id="edge105" class="edge">
<title>Node44&#45;&gt;Node41</title>
<path fill="none" stroke="#191970" d="M1659.4949,-248.5357C1585.5123,-260.3381 1461.1245,-279.5582 1395.1048,-289.3478"/>
<polygon fill="#191970" stroke="#191970" points="1394.4085,-285.9126 1385.0268,-290.8355 1395.4307,-292.8375 1394.4085,-285.9126"/>
</g>
<!-- Node48&#45;&gt;Node17 -->
<g id="edge121" class="edge">
<title>Node48&#45;&gt;Node17</title>
<path fill="none" stroke="#191970" d="M247.3479,-399.3153C259.1372,-371.6992 291.8727,-295.0174 307.4936,-258.426"/>
<polygon fill="#191970" stroke="#191970" points="310.8753,-259.4188 311.5826,-248.8476 304.4374,-256.6704 310.8753,-259.4188"/>
</g>
<!-- Node49&#45;&gt;Node17 -->
<g id="edge123" class="edge">
<title>Node49&#45;&gt;Node17</title>
<path fill="none" stroke="#191970" d="M98.1786,-287.5744C141.2401,-277.8728 214.5319,-261.3604 264.08,-250.1974"/>
<polygon fill="#191970" stroke="#191970" points="264.9786,-253.5827 273.9648,-247.9704 263.4401,-246.7539 264.9786,-253.5827"/>
</g>
<!-- Node50&#45;&gt;Node17 -->
<g id="edge125" class="edge">
<title>Node50&#45;&gt;Node17</title>
<path fill="none" stroke="#191970" d="M163.8883,-456.1564C170.4052,-442.6634 182.5689,-418.481 195,-399 229.5335,-344.8818 276.9211,-285.6589 300.8541,-256.6161"/>
<polygon fill="#191970" stroke="#191970" points="303.8023,-258.5438 307.4884,-248.6108 298.4126,-254.0771 303.8023,-258.5438"/>
</g>
</g>
</svg>
