<?xml version="1.0" encoding="UTF-8" standalone="no"?>
<!DOCTYPE svg PUBLIC "-//W3C//DTD SVG 1.1//EN"
 "http://www.w3.org/Graphics/SVG/1.1/DTD/svg11.dtd">
<!-- Generated by graphviz version 2.40.1 (20161225.0304)
 -->
<!-- Title: genfit::EventDisplay::open Pages: 1 -->
<svg width="525pt" height="185pt"
 viewBox="0.00 0.00 525.00 185.00" xmlns="http://www.w3.org/2000/svg" xmlns:xlink="http://www.w3.org/1999/xlink">
<g id="graph0" class="graph" transform="scale(1 1) rotate(0) translate(4 181)">
<title>genfit::EventDisplay::open</title>
<!-- Node1 -->
<g id="node1" class="node">
<title>Node1</title>
<polygon fill="#bfbfbf" stroke="#000000" points="0,-49.5 0,-81.5 119,-81.5 119,-49.5 0,-49.5"/>
<text text-anchor="start" x="8" y="-68.5" font-family="FreeSans" font-size="10.00" fill="#000000">genfit::EventDisplay</text>
<text text-anchor="middle" x="59.5" y="-56.5" font-family="FreeSans" font-size="10.00" fill="#000000">::open</text>
</g>
<!-- Node2 -->
<g id="node2" class="node">
<title>Node2</title>
<g id="a_node2"><a xlink:href="../../d1/d35/classPHGenFit_1_1Fitter.html#a96693b5a9f125c47e158b38793c657f0" target="_top" xlink:title="PHGenFit::Fitter::display\lEvent">
<polygon fill="none" stroke="#000000" points="155,-72.5 155,-104.5 293,-104.5 293,-72.5 155,-72.5"/>
<text text-anchor="start" x="163" y="-91.5" font-family="FreeSans" font-size="10.00" fill="#000000">PHGenFit::Fitter::display</text>
<text text-anchor="middle" x="224" y="-79.5" font-family="FreeSans" font-size="10.00" fill="#000000">Event</text>
</a>
</g>
</g>
<!-- Node1&#45;&gt;Node2 -->
<g id="edge1" class="edge">
<title>Node1&#45;&gt;Node2</title>
<path fill="none" stroke="#191970" d="M129.5273,-75.291C137.9592,-76.47 146.5665,-77.6734 154.9838,-78.8503"/>
<polygon fill="#191970" stroke="#191970" points="129.742,-71.7871 119.3536,-73.8686 128.7726,-78.7197 129.742,-71.7871"/>
</g>
<!-- Node8 -->
<g id="node8" class="node">
<title>Node8</title>
<g id="a_node8"><a xlink:href="../../d0/d48/GenFit_2blob_2master_2test_2fitterTests_2main_8cc.html#ae66f6b31b5ad750f1fe042a706a4e3d4" target="_top" xlink:title="main">
<polygon fill="none" stroke="#000000" points="203.5,-33.5 203.5,-53.5 244.5,-53.5 244.5,-33.5 203.5,-33.5"/>
<text text-anchor="middle" x="224" y="-40.5" font-family="FreeSans" font-size="10.00" fill="#000000">main</text>
</a>
</g>
</g>
<!-- Node1&#45;&gt;Node8 -->
<g id="edge7" class="edge">
<title>Node1&#45;&gt;Node8</title>
<path fill="none" stroke="#191970" d="M129.4787,-56.1411C156.1859,-52.5694 184.6589,-48.7614 203.2909,-46.2696"/>
<polygon fill="#191970" stroke="#191970" points="128.8014,-52.7005 119.3536,-57.4953 129.7294,-59.6387 128.8014,-52.7005"/>
</g>
<!-- Node3 -->
<g id="node3" class="node">
<title>Node3</title>
<g id="a_node3"><a xlink:href="../../de/d25/classPHGenFitTrkFitter.html#ad73a7ff76c5c9357e026f584c461c2ef" target="_top" xlink:title="End, write and close files.">
<polygon fill="none" stroke="#000000" points="359,-156.5 359,-176.5 487,-176.5 487,-156.5 359,-156.5"/>
<text text-anchor="middle" x="423" y="-163.5" font-family="FreeSans" font-size="10.00" fill="#000000">PHGenFitTrkFitter::End</text>
</a>
</g>
</g>
<!-- Node2&#45;&gt;Node3 -->
<g id="edge2" class="edge">
<title>Node2&#45;&gt;Node3</title>
<path fill="none" stroke="#191970" d="M256.0422,-109.9861C276.2098,-122.6107 303.2177,-137.9222 329,-147.5 338.6765,-151.0947 349.1796,-154.0627 359.5412,-156.4967"/>
<polygon fill="#191970" stroke="#191970" points="257.879,-107.0064 247.5645,-104.5853 254.1179,-112.9102 257.879,-107.0064"/>
</g>
<!-- Node4 -->
<g id="node4" class="node">
<title>Node4</title>
<g id="a_node4"><a xlink:href="../../d0/d22/classPHGenFitTrkProp.html#a53c81942bf78bbefdb9c9ac306273da1" target="_top" xlink:title="PHGenFitTrkProp::End">
<polygon fill="none" stroke="#000000" points="360.5,-117.5 360.5,-137.5 485.5,-137.5 485.5,-117.5 360.5,-117.5"/>
<text text-anchor="middle" x="423" y="-124.5" font-family="FreeSans" font-size="10.00" fill="#000000">PHGenFitTrkProp::End</text>
</a>
</g>
</g>
<!-- Node2&#45;&gt;Node4 -->
<g id="edge3" class="edge">
<title>Node2&#45;&gt;Node4</title>
<path fill="none" stroke="#191970" d="M302.8939,-103.9616C326.1423,-108.5178 350.9604,-113.3817 371.9656,-117.4983"/>
<polygon fill="#191970" stroke="#191970" points="303.5285,-100.5195 293.0421,-102.0309 302.1822,-107.3888 303.5285,-100.5195"/>
</g>
<!-- Node5 -->
<g id="node5" class="node">
<title>Node5</title>
<g id="a_node5"><a xlink:href="../../d9/d91/classPHG4TrackFastSim.html#aac55c1fc6da92a2d000e640c865fe871" target="_top" xlink:title="End, write and close files.">
<polygon fill="none" stroke="#000000" points="355,-78.5 355,-98.5 491,-98.5 491,-78.5 355,-78.5"/>
<text text-anchor="middle" x="423" y="-85.5" font-family="FreeSans" font-size="10.00" fill="#000000">PHG4TrackFastSim::End</text>
</a>
</g>
</g>
<!-- Node2&#45;&gt;Node5 -->
<g id="edge4" class="edge">
<title>Node2&#45;&gt;Node5</title>
<path fill="none" stroke="#191970" d="M303.4873,-88.5C320.4611,-88.5 338.2455,-88.5 354.7526,-88.5"/>
<polygon fill="#191970" stroke="#191970" points="303.0421,-85.0001 293.0421,-88.5 303.042,-92.0001 303.0421,-85.0001"/>
</g>
<!-- Node6 -->
<g id="node6" class="node">
<title>Node6</title>
<g id="a_node6"><a xlink:href="../../d2/d9a/classTpcPrototypeGenFitTrkFinder.html#a022c7784b9b8533499ba45dff1b09cd7" target="_top" xlink:title="End, write and close files.">
<polygon fill="none" stroke="#000000" points="329,-39.5 329,-59.5 517,-59.5 517,-39.5 329,-39.5"/>
<text text-anchor="middle" x="423" y="-46.5" font-family="FreeSans" font-size="10.00" fill="#000000">TpcPrototypeGenFitTrkFinder::End</text>
</a>
</g>
</g>
<!-- Node2&#45;&gt;Node6 -->
<g id="edge5" class="edge">
<title>Node2&#45;&gt;Node6</title>
<path fill="none" stroke="#191970" d="M302.8939,-73.0384C326.1423,-68.4822 350.9604,-63.6183 371.9656,-59.5017"/>
<polygon fill="#191970" stroke="#191970" points="302.1822,-69.6112 293.0421,-74.9691 303.5285,-76.4805 302.1822,-69.6112"/>
</g>
<!-- Node7 -->
<g id="node7" class="node">
<title>Node7</title>
<g id="a_node7"><a xlink:href="../../df/dd7/classTpcPrototypeGenFitTrkFitter.html#a1df8f5a66617de654240c7aafb327529" target="_top" xlink:title="End, write and close files.">
<polygon fill="none" stroke="#000000" points="332,-.5 332,-20.5 514,-20.5 514,-.5 332,-.5"/>
<text text-anchor="middle" x="423" y="-7.5" font-family="FreeSans" font-size="10.00" fill="#000000">TpcPrototypeGenFitTrkFitter::End</text>
</a>
</g>
</g>
<!-- Node2&#45;&gt;Node7 -->
<g id="edge6" class="edge">
<title>Node2&#45;&gt;Node7</title>
<path fill="none" stroke="#191970" d="M284.7741,-68.0615C287.6036,-66.6194 290.3609,-65.0991 293,-63.5 311.5631,-52.2518 309.7057,-40.4419 329,-30.5 336.8607,-26.4496 345.4956,-23.219 354.2473,-20.6425"/>
<polygon fill="#191970" stroke="#191970" points="283.1068,-64.9779 275.5479,-72.4017 286.0865,-71.312 283.1068,-64.9779"/>
</g>
</g>
</svg>
