<?xml version="1.0" encoding="UTF-8" standalone="no"?>
<!DOCTYPE svg PUBLIC "-//W3C//DTD SVG 1.1//EN"
 "http://www.w3.org/Graphics/SVG/1.1/DTD/svg11.dtd">
<!-- Generated by graphviz version 2.40.1 (20161225.0304)
 -->
<!-- Title: genfit::EventDisplay::setOptions Pages: 1 -->
<svg width="351pt" height="107pt"
 viewBox="0.00 0.00 351.00 107.00" xmlns="http://www.w3.org/2000/svg" xmlns:xlink="http://www.w3.org/1999/xlink">
<g id="graph0" class="graph" transform="scale(1 1) rotate(0) translate(4 103)">
<title>genfit::EventDisplay::setOptions</title>
<!-- Node1 -->
<g id="node1" class="node">
<title>Node1</title>
<polygon fill="#bfbfbf" stroke="#000000" points="0,-33.5 0,-65.5 119,-65.5 119,-33.5 0,-33.5"/>
<text text-anchor="start" x="8" y="-52.5" font-family="FreeSans" font-size="10.00" fill="#000000">genfit::EventDisplay</text>
<text text-anchor="middle" x="59.5" y="-40.5" font-family="FreeSans" font-size="10.00" fill="#000000">::setOptions</text>
</g>
<!-- Node2 -->
<g id="node2" class="node">
<title>Node2</title>
<g id="a_node2"><a xlink:href="../../d2/d9a/classTpcPrototypeGenFitTrkFinder.html#a022c7784b9b8533499ba45dff1b09cd7" target="_top" xlink:title="End, write and close files.">
<polygon fill="none" stroke="#000000" points="155,-78.5 155,-98.5 343,-98.5 343,-78.5 155,-78.5"/>
<text text-anchor="middle" x="249" y="-85.5" font-family="FreeSans" font-size="10.00" fill="#000000">TpcPrototypeGenFitTrkFinder::End</text>
</a>
</g>
</g>
<!-- Node1&#45;&gt;Node2 -->
<g id="edge1" class="edge">
<title>Node1&#45;&gt;Node2</title>
<path fill="none" stroke="#191970" d="M128.9337,-64.1004C137.7065,-65.9277 146.5615,-67.7636 155,-69.5 169.1878,-72.4195 184.5887,-75.549 198.7397,-78.4086"/>
<polygon fill="#191970" stroke="#191970" points="129.5945,-60.663 119.0904,-62.0468 128.1648,-67.5155 129.5945,-60.663"/>
</g>
<!-- Node3 -->
<g id="node3" class="node">
<title>Node3</title>
<g id="a_node3"><a xlink:href="../../df/dd7/classTpcPrototypeGenFitTrkFitter.html#a1df8f5a66617de654240c7aafb327529" target="_top" xlink:title="End, write and close files.">
<polygon fill="none" stroke="#000000" points="158,-39.5 158,-59.5 340,-59.5 340,-39.5 158,-39.5"/>
<text text-anchor="middle" x="249" y="-46.5" font-family="FreeSans" font-size="10.00" fill="#000000">TpcPrototypeGenFitTrkFitter::End</text>
</a>
</g>
</g>
<!-- Node1&#45;&gt;Node3 -->
<g id="edge2" class="edge">
<title>Node1&#45;&gt;Node3</title>
<path fill="none" stroke="#191970" d="M129.4392,-49.5C138.6541,-49.5 148.2058,-49.5 157.711,-49.5"/>
<polygon fill="#191970" stroke="#191970" points="129.1989,-46.0001 119.1989,-49.5 129.1988,-53.0001 129.1989,-46.0001"/>
</g>
<!-- Node4 -->
<g id="node4" class="node">
<title>Node4</title>
<g id="a_node4"><a xlink:href="../../d0/d48/GenFit_2blob_2master_2test_2fitterTests_2main_8cc.html#ae66f6b31b5ad750f1fe042a706a4e3d4" target="_top" xlink:title="main">
<polygon fill="none" stroke="#000000" points="228.5,-.5 228.5,-20.5 269.5,-20.5 269.5,-.5 228.5,-.5"/>
<text text-anchor="middle" x="249" y="-7.5" font-family="FreeSans" font-size="10.00" fill="#000000">main</text>
</a>
</g>
</g>
<!-- Node1&#45;&gt;Node4 -->
<g id="edge3" class="edge">
<title>Node1&#45;&gt;Node4</title>
<path fill="none" stroke="#191970" d="M129.4419,-35.1056C164.583,-27.8734 204.6218,-19.6332 228.3,-14.7602"/>
<polygon fill="#191970" stroke="#191970" points="128.288,-31.7697 119.1989,-37.2137 129.6992,-38.626 128.288,-31.7697"/>
</g>
</g>
</svg>
