<?xml version="1.0" encoding="UTF-8" standalone="no"?>
<!DOCTYPE svg PUBLIC "-//W3C//DTD SVG 1.1//EN"
 "http://www.w3.org/Graphics/SVG/1.1/DTD/svg11.dtd">
<!-- Generated by graphviz version 2.40.1 (20161225.0304)
 -->
<!-- Title: KFParticleSIMD::E Pages: 1 -->
<svg width="687pt" height="41pt"
 viewBox="0.00 0.00 687.00 41.00" xmlns="http://www.w3.org/2000/svg" xmlns:xlink="http://www.w3.org/1999/xlink">
<g id="graph0" class="graph" transform="scale(1 1) rotate(0) translate(4 37)">
<title>KFParticleSIMD::E</title>
<!-- Node1 -->
<g id="node1" class="node">
<title>Node1</title>
<polygon fill="#bfbfbf" stroke="#000000" points="0,-6.5 0,-26.5 104,-26.5 104,-6.5 0,-6.5"/>
<text text-anchor="middle" x="52" y="-13.5" font-family="FreeSans" font-size="10.00" fill="#000000">KFParticleSIMD::E</text>
</g>
<!-- Node2 -->
<g id="node2" class="node">
<title>Node2</title>
<g id="a_node2"><a xlink:href="../../d2/d3d/classKFParticleFinder.html#a76e093479fb04d0360e1cca0e6aa5d01" target="_top" xlink:title="KFParticleFinder::Neutral\lDaughterDecay">
<polygon fill="none" stroke="#000000" points="140,-.5 140,-32.5 280,-32.5 280,-.5 140,-.5"/>
<text text-anchor="start" x="148" y="-19.5" font-family="FreeSans" font-size="10.00" fill="#000000">KFParticleFinder::Neutral</text>
<text text-anchor="middle" x="210" y="-7.5" font-family="FreeSans" font-size="10.00" fill="#000000">DaughterDecay</text>
</a>
</g>
</g>
<!-- Node1&#45;&gt;Node2 -->
<g id="edge1" class="edge">
<title>Node1&#45;&gt;Node2</title>
<path fill="none" stroke="#191970" d="M114.2579,-16.5C122.6555,-16.5 131.3177,-16.5 139.8408,-16.5"/>
<polygon fill="#191970" stroke="#191970" points="114.173,-13.0001 104.173,-16.5 114.173,-20.0001 114.173,-13.0001"/>
</g>
<!-- Node3 -->
<g id="node3" class="node">
<title>Node3</title>
<g id="a_node3"><a xlink:href="../../d2/d3d/classKFParticleFinder.html#a3ad831d1b28cce4689501e369f561926" target="_top" xlink:title="KFParticleFinder::FindParticles">
<polygon fill="none" stroke="#000000" points="316,-6.5 316,-26.5 483,-26.5 483,-6.5 316,-6.5"/>
<text text-anchor="middle" x="399.5" y="-13.5" font-family="FreeSans" font-size="10.00" fill="#000000">KFParticleFinder::FindParticles</text>
</a>
</g>
</g>
<!-- Node2&#45;&gt;Node3 -->
<g id="edge2" class="edge">
<title>Node2&#45;&gt;Node3</title>
<path fill="none" stroke="#191970" d="M290.2898,-16.5C298.7857,-16.5 307.4405,-16.5 315.9721,-16.5"/>
<polygon fill="#191970" stroke="#191970" points="290.0244,-13.0001 280.0244,-16.5 290.0244,-20.0001 290.0244,-13.0001"/>
</g>
<!-- Node4 -->
<g id="node4" class="node">
<title>Node4</title>
<g id="a_node4"><a xlink:href="../../db/d6d/classKFParticleTopoReconstructor.html#a3013eefd4e16b74ae39c531678623d08" target="_top" xlink:title="KFParticleTopoReconstructor\l::ReconstructParticles">
<polygon fill="none" stroke="#000000" points="519,-.5 519,-32.5 679,-32.5 679,-.5 519,-.5"/>
<text text-anchor="start" x="527" y="-19.5" font-family="FreeSans" font-size="10.00" fill="#000000">KFParticleTopoReconstructor</text>
<text text-anchor="middle" x="599" y="-7.5" font-family="FreeSans" font-size="10.00" fill="#000000">::ReconstructParticles</text>
</a>
</g>
</g>
<!-- Node3&#45;&gt;Node4 -->
<g id="edge3" class="edge">
<title>Node3&#45;&gt;Node4</title>
<path fill="none" stroke="#191970" d="M493.2835,-16.5C501.8763,-16.5 510.5283,-16.5 518.9834,-16.5"/>
<polygon fill="#191970" stroke="#191970" points="493.2389,-13.0001 483.2388,-16.5 493.2388,-20.0001 493.2389,-13.0001"/>
</g>
</g>
</svg>
