<?xml version="1.0" encoding="UTF-8" standalone="no"?>
<!DOCTYPE svg PUBLIC "-//W3C//DTD SVG 1.1//EN"
 "http://www.w3.org/Graphics/SVG/1.1/DTD/svg11.dtd">
<!-- Generated by graphviz version 2.40.1 (20161225.0304)
 -->
<!-- Title: KFParticleSIMD::Load Pages: 1 -->
<svg width="474pt" height="248pt"
 viewBox="0.00 0.00 474.00 248.00" xmlns="http://www.w3.org/2000/svg" xmlns:xlink="http://www.w3.org/1999/xlink">
<g id="graph0" class="graph" transform="scale(1 1) rotate(0) translate(4 244)">
<title>KFParticleSIMD::Load</title>
<!-- Node1 -->
<g id="node1" class="node">
<title>Node1</title>
<polygon fill="#bfbfbf" stroke="#000000" points="0,-109.5 0,-129.5 122,-129.5 122,-109.5 0,-109.5"/>
<text text-anchor="middle" x="61" y="-116.5" font-family="FreeSans" font-size="10.00" fill="#000000">KFParticleSIMD::Load</text>
</g>
<!-- Node2 -->
<g id="node2" class="node">
<title>Node2</title>
<g id="a_node2"><a xlink:href="../../d1/d86/classKFPTrackVector.html#a345efcd36e9ae91430d6012cd6df6fcb" target="_top" xlink:title="Returns constant reference to the vector of the covariance matrix elements with index &quot;i&quot;...">
<polygon fill="none" stroke="#000000" points="158,-219.5 158,-239.5 314,-239.5 314,-219.5 158,-219.5"/>
<text text-anchor="middle" x="236" y="-226.5" font-family="FreeSans" font-size="10.00" fill="#000000">KFPTrackVector::Covariance</text>
</a>
</g>
</g>
<!-- Node1&#45;&gt;Node2 -->
<g id="edge1" class="edge">
<title>Node1&#45;&gt;Node2</title>
<path fill="none" stroke="#191970" d="M68.8461,-129.7611C83.9438,-148.7586 119.0126,-189.3923 158,-210.5 161.7229,-212.5156 165.6605,-214.3204 169.7094,-215.936"/>
<polygon fill="#191970" stroke="#191970" points="168.7156,-219.2977 179.3102,-219.3726 171.0747,-212.7072 168.7156,-219.2977"/>
</g>
<!-- Node3 -->
<g id="node3" class="node">
<title>Node3</title>
<g id="a_node3"><a xlink:href="../../db/dcc/classKFParticleSIMD.html#ad72c41822502b24af50578767c5fb458" target="_top" xlink:title="KFParticleSIMD::Create">
<polygon fill="none" stroke="#000000" points="170.5,-180.5 170.5,-200.5 301.5,-200.5 301.5,-180.5 170.5,-180.5"/>
<text text-anchor="middle" x="236" y="-187.5" font-family="FreeSans" font-size="10.00" fill="#000000">KFParticleSIMD::Create</text>
</a>
</g>
</g>
<!-- Node1&#45;&gt;Node3 -->
<g id="edge2" class="edge">
<title>Node1&#45;&gt;Node3</title>
<path fill="none" stroke="#191970" d="M76.878,-129.6419C95.6143,-141.2173 128.02,-160.0263 158,-171.5 163.8942,-173.7558 170.1436,-175.808 176.4382,-177.6581"/>
<polygon fill="#191970" stroke="#191970" points="175.7506,-181.0995 186.3223,-180.3993 177.6213,-174.3541 175.7506,-181.0995"/>
</g>
<!-- Node5 -->
<g id="node5" class="node">
<title>Node5</title>
<g id="a_node5"><a xlink:href="../../dc/d83/classKFParticleDatabase.html#ad076360075bd9ca1005ffed61c21b965" target="_top" xlink:title="KFParticleDatabase\l::GetMass">
<polygon fill="none" stroke="#000000" points="179,-129.5 179,-161.5 293,-161.5 293,-129.5 179,-129.5"/>
<text text-anchor="start" x="187" y="-148.5" font-family="FreeSans" font-size="10.00" fill="#000000">KFParticleDatabase</text>
<text text-anchor="middle" x="236" y="-136.5" font-family="FreeSans" font-size="10.00" fill="#000000">::GetMass</text>
</a>
</g>
</g>
<!-- Node1&#45;&gt;Node5 -->
<g id="edge4" class="edge">
<title>Node1&#45;&gt;Node5</title>
<path fill="none" stroke="#191970" d="M122.2065,-128.5935C137.3261,-130.8399 153.6004,-133.2578 168.9803,-135.5428"/>
<polygon fill="#191970" stroke="#191970" points="168.531,-139.0144 178.9368,-137.022 169.5598,-132.0904 168.531,-139.0144"/>
</g>
<!-- Node6 -->
<g id="node6" class="node">
<title>Node6</title>
<g id="a_node6"><a xlink:href="../../dc/d83/classKFParticleDatabase.html#aa87302fc83afb56bae497e764c65dd8c" target="_top" xlink:title="Returns a pointer to the singleton object.">
<polygon fill="none" stroke="#000000" points="179,-78.5 179,-110.5 293,-110.5 293,-78.5 179,-78.5"/>
<text text-anchor="start" x="187" y="-97.5" font-family="FreeSans" font-size="10.00" fill="#000000">KFParticleDatabase</text>
<text text-anchor="middle" x="236" y="-85.5" font-family="FreeSans" font-size="10.00" fill="#000000">::Instance</text>
</a>
</g>
</g>
<!-- Node1&#45;&gt;Node6 -->
<g id="edge5" class="edge">
<title>Node1&#45;&gt;Node6</title>
<path fill="none" stroke="#191970" d="M122.2065,-110.7562C137.3261,-108.5963 153.6004,-106.2714 168.9803,-104.0742"/>
<polygon fill="#191970" stroke="#191970" points="169.5323,-107.531 178.9368,-102.6519 168.5423,-100.6014 169.5323,-107.531"/>
</g>
<!-- Node7 -->
<g id="node7" class="node">
<title>Node7</title>
<g id="a_node7"><a xlink:href="../../d1/d86/classKFPTrackVector.html#ad489c56d0f7d957bc3a9e7726ba69710" target="_top" xlink:title="Returns constant reference to the track parameter vector with index &quot;i&quot;.">
<polygon fill="none" stroke="#000000" points="160,-39.5 160,-59.5 312,-59.5 312,-39.5 160,-39.5"/>
<text text-anchor="middle" x="236" y="-46.5" font-family="FreeSans" font-size="10.00" fill="#000000">KFPTrackVector::Parameter</text>
</a>
</g>
</g>
<!-- Node1&#45;&gt;Node7 -->
<g id="edge6" class="edge">
<title>Node1&#45;&gt;Node7</title>
<path fill="none" stroke="#191970" d="M77.6373,-109.4516C96.5456,-98.3854 128.6045,-80.6812 158,-69.5 164.9956,-66.8391 172.4768,-64.4163 179.9343,-62.2486"/>
<polygon fill="#191970" stroke="#191970" points="180.9798,-65.5909 189.6817,-59.5472 179.1102,-58.8452 180.9798,-65.5909"/>
</g>
<!-- Node8 -->
<g id="node8" class="node">
<title>Node8</title>
<g id="a_node8"><a xlink:href="../../d1/d86/classKFPTrackVector.html#afdbad4270667f37d91af768a76e96595" target="_top" xlink:title="Returns constant reference to the vector with charge KFPTrackVector::fQ.">
<polygon fill="none" stroke="#000000" points="182.5,-.5 182.5,-20.5 289.5,-20.5 289.5,-.5 182.5,-.5"/>
<text text-anchor="middle" x="236" y="-7.5" font-family="FreeSans" font-size="10.00" fill="#000000">KFPTrackVector::Q</text>
</a>
</g>
</g>
<!-- Node1&#45;&gt;Node8 -->
<g id="edge7" class="edge">
<title>Node1&#45;&gt;Node8</title>
<path fill="none" stroke="#191970" d="M69.1623,-109.2238C84.5158,-90.6059 119.6226,-51.302 158,-30.5 162.5686,-28.0237 167.4549,-25.8448 172.4705,-23.9292"/>
<polygon fill="#191970" stroke="#191970" points="173.9153,-27.1332 182.2253,-20.561 171.6306,-20.5165 173.9153,-27.1332"/>
</g>
<!-- Node4 -->
<g id="node4" class="node">
<title>Node4</title>
<g id="a_node4"><a xlink:href="../../d2/dbb/classKFParticleBaseSIMD.html#a6fea58bda9e030e5ebee1b24e27efb46" target="_top" xlink:title="KFParticleBaseSIMD\l::Initialize">
<polygon fill="none" stroke="#000000" points="350,-174.5 350,-206.5 466,-206.5 466,-174.5 350,-174.5"/>
<text text-anchor="start" x="358" y="-193.5" font-family="FreeSans" font-size="10.00" fill="#000000">KFParticleBaseSIMD</text>
<text text-anchor="middle" x="408" y="-181.5" font-family="FreeSans" font-size="10.00" fill="#000000">::Initialize</text>
</a>
</g>
</g>
<!-- Node3&#45;&gt;Node4 -->
<g id="edge3" class="edge">
<title>Node3&#45;&gt;Node4</title>
<path fill="none" stroke="#191970" d="M301.5165,-190.5C314.1014,-190.5 327.3077,-190.5 339.97,-190.5"/>
<polygon fill="#191970" stroke="#191970" points="339.986,-194.0001 349.986,-190.5 339.9859,-187.0001 339.986,-194.0001"/>
</g>
</g>
</svg>
