<?xml version="1.0" encoding="UTF-8" standalone="no"?>
<!DOCTYPE svg PUBLIC "-//W3C//DTD SVG 1.1//EN"
 "http://www.w3.org/Graphics/SVG/1.1/DTD/svg11.dtd">
<!-- Generated by graphviz version 2.40.1 (20161225.0304)
 -->
<!-- Title: KFParticleSIMD::GetAngleXY Pages: 1 -->
<svg width="1003pt" height="262pt"
 viewBox="0.00 0.00 1003.00 261.87" xmlns="http://www.w3.org/2000/svg" xmlns:xlink="http://www.w3.org/1999/xlink">
<g id="graph0" class="graph" transform="scale(1 1) rotate(0) translate(4 257.8683)">
<title>KFParticleSIMD::GetAngleXY</title>
<!-- Node1 -->
<g id="node1" class="node">
<title>Node1</title>
<polygon fill="#bfbfbf" stroke="#000000" points="0,-121.5 0,-141.5 159,-141.5 159,-121.5 0,-121.5"/>
<text text-anchor="middle" x="79.5" y="-128.5" font-family="FreeSans" font-size="10.00" fill="#000000">KFParticleSIMD::GetAngleXY</text>
</g>
<!-- Node2 -->
<g id="node2" class="node">
<title>Node2</title>
<g id="a_node2"><a xlink:href="../../db/dcc/classKFParticleSIMD.html#ad8379c5666e84d5c1de7dd1428234744" target="_top" xlink:title="KFParticleSIMD::GetDStoParticle">
<polygon fill="none" stroke="#000000" points="195,-169.5 195,-189.5 372,-189.5 372,-169.5 195,-169.5"/>
<text text-anchor="middle" x="283.5" y="-176.5" font-family="FreeSans" font-size="10.00" fill="#000000">KFParticleSIMD::GetDStoParticle</text>
</a>
</g>
</g>
<!-- Node1&#45;&gt;Node2 -->
<g id="edge1" class="edge">
<title>Node1&#45;&gt;Node2</title>
<path fill="none" stroke="#191970" d="M122.2651,-141.5624C153.8177,-148.9865 196.9433,-159.1337 230.6546,-167.0658"/>
<polygon fill="#191970" stroke="#191970" points="230.2554,-170.5674 240.7912,-169.4509 231.8587,-163.7534 230.2554,-170.5674"/>
</g>
<!-- Node9 -->
<g id="node9" class="node">
<title>Node9</title>
<g id="a_node9"><a xlink:href="../../db/dcc/classKFParticleSIMD.html#a7bb77d29340b6fbf02077705f2231f02" target="_top" xlink:title="KFParticleSIMD::Transport">
<polygon fill="none" stroke="#000000" points="210.5,-73.5 210.5,-93.5 356.5,-93.5 356.5,-73.5 210.5,-73.5"/>
<text text-anchor="middle" x="283.5" y="-80.5" font-family="FreeSans" font-size="10.00" fill="#000000">KFParticleSIMD::Transport</text>
</a>
</g>
</g>
<!-- Node1&#45;&gt;Node9 -->
<g id="edge10" class="edge">
<title>Node1&#45;&gt;Node9</title>
<path fill="none" stroke="#191970" d="M122.2651,-121.4376C153.8177,-114.0135 196.9433,-103.8663 230.6546,-95.9342"/>
<polygon fill="#191970" stroke="#191970" points="231.8587,-99.2466 240.7912,-93.5491 230.2554,-92.4326 231.8587,-99.2466"/>
</g>
<!-- Node3 -->
<g id="node3" class="node">
<title>Node3</title>
<g id="a_node3"><a xlink:href="../../d2/dbb/classKFParticleBaseSIMD.html#a3c652b30a3f4e787a60f1de438becf53" target="_top" xlink:title="KFParticleBaseSIMD\l::GetDStoParticleBz">
<polygon fill="none" stroke="#000000" points="720,-211.5 720,-243.5 836,-243.5 836,-211.5 720,-211.5"/>
<text text-anchor="start" x="728" y="-230.5" font-family="FreeSans" font-size="10.00" fill="#000000">KFParticleBaseSIMD</text>
<text text-anchor="middle" x="778" y="-218.5" font-family="FreeSans" font-size="10.00" fill="#000000">::GetDStoParticleBz</text>
</a>
</g>
</g>
<!-- Node2&#45;&gt;Node3 -->
<g id="edge2" class="edge">
<title>Node2&#45;&gt;Node3</title>
<path fill="none" stroke="#191970" d="M309.5906,-189.5758C373.237,-212.9598 541.6813,-267.6582 684,-250.5 693.0646,-249.4072 702.5166,-247.7418 711.7831,-245.7964"/>
<polygon fill="#191970" stroke="#191970" points="712.733,-249.1708 721.7383,-243.5892 711.2178,-242.3368 712.733,-249.1708"/>
</g>
<!-- Node6 -->
<g id="node6" class="node">
<title>Node6</title>
<g id="a_node6"><a xlink:href="../../d2/dbb/classKFParticleBaseSIMD.html#acd7097a1ad5f82efff3812c01580e592" target="_top" xlink:title="KFParticleBaseSIMD\l::GetDStoParticleCBM">
<polygon fill="none" stroke="#000000" points="408,-163.5 408,-195.5 532,-195.5 532,-163.5 408,-163.5"/>
<text text-anchor="start" x="416" y="-182.5" font-family="FreeSans" font-size="10.00" fill="#000000">KFParticleBaseSIMD</text>
<text text-anchor="middle" x="470" y="-170.5" font-family="FreeSans" font-size="10.00" fill="#000000">::GetDStoParticleCBM</text>
</a>
</g>
</g>
<!-- Node2&#45;&gt;Node6 -->
<g id="edge5" class="edge">
<title>Node2&#45;&gt;Node6</title>
<path fill="none" stroke="#191970" d="M372.1074,-179.5C380.7268,-179.5 389.3992,-179.5 397.8291,-179.5"/>
<polygon fill="#191970" stroke="#191970" points="397.9716,-183.0001 407.9716,-179.5 397.9716,-176.0001 397.9716,-183.0001"/>
</g>
<!-- Node4 -->
<g id="node4" class="node">
<title>Node4</title>
<g id="a_node4"><a xlink:href="../../d2/dbb/classKFParticleBaseSIMD.html#a8e96d6b648dbc125f44f3a6e54844df7" target="_top" xlink:title="KFParticleBaseSIMD\l::GetDStoParticleLine">
<polygon fill="none" stroke="#000000" points="872,-163.5 872,-195.5 995,-195.5 995,-163.5 872,-163.5"/>
<text text-anchor="start" x="880" y="-182.5" font-family="FreeSans" font-size="10.00" fill="#000000">KFParticleBaseSIMD</text>
<text text-anchor="middle" x="933.5" y="-170.5" font-family="FreeSans" font-size="10.00" fill="#000000">::GetDStoParticleLine</text>
</a>
</g>
</g>
<!-- Node3&#45;&gt;Node4 -->
<g id="edge3" class="edge">
<title>Node3&#45;&gt;Node4</title>
<path fill="none" stroke="#191970" d="M830.2118,-211.3832C843.4886,-207.2849 857.883,-202.8416 871.5913,-198.6101"/>
<polygon fill="#191970" stroke="#191970" points="872.9032,-201.8682 881.426,-195.5743 870.8385,-195.1796 872.9032,-201.8682"/>
</g>
<!-- Node5 -->
<g id="node5" class="node">
<title>Node5</title>
<g id="a_node5"><a xlink:href="../../d2/dbb/classKFParticleBaseSIMD.html#a721cd8da62bbf13e53583c9acff31945" target="_top" xlink:title="KFParticleBaseSIMD\l::Transport">
<polygon fill="none" stroke="#000000" points="875.5,-214.5 875.5,-246.5 991.5,-246.5 991.5,-214.5 875.5,-214.5"/>
<text text-anchor="start" x="883.5" y="-233.5" font-family="FreeSans" font-size="10.00" fill="#000000">KFParticleBaseSIMD</text>
<text text-anchor="middle" x="933.5" y="-221.5" font-family="FreeSans" font-size="10.00" fill="#000000">::Transport</text>
</a>
</g>
</g>
<!-- Node3&#45;&gt;Node5 -->
<g id="edge4" class="edge">
<title>Node3&#45;&gt;Node5</title>
<path fill="none" stroke="#191970" d="M836.3449,-228.6256C845.7115,-228.8063 855.4795,-228.9948 865.0564,-229.1795"/>
<polygon fill="#191970" stroke="#191970" points="865.2796,-232.6844 875.3453,-229.378 865.4147,-225.6857 865.2796,-232.6844"/>
</g>
<!-- Node6&#45;&gt;Node4 -->
<g id="edge8" class="edge">
<title>Node6&#45;&gt;Node4</title>
<path fill="none" stroke="#191970" d="M532.0287,-179.5C617.5376,-179.5 771.2855,-179.5 861.6774,-179.5"/>
<polygon fill="#191970" stroke="#191970" points="861.8386,-183.0001 871.8385,-179.5 861.8385,-176.0001 861.8386,-183.0001"/>
</g>
<!-- Node7 -->
<g id="node7" class="node">
<title>Node7</title>
<g id="a_node7"><a xlink:href="../../d2/dbb/classKFParticleBaseSIMD.html#a807794fa31286b74663338e91a515e28" target="_top" xlink:title="KFParticleBaseSIMD\l::GetDStoParticleBy">
<polygon fill="none" stroke="#000000" points="568,-208.5 568,-240.5 684,-240.5 684,-208.5 568,-208.5"/>
<text text-anchor="start" x="576" y="-227.5" font-family="FreeSans" font-size="10.00" fill="#000000">KFParticleBaseSIMD</text>
<text text-anchor="middle" x="626" y="-215.5" font-family="FreeSans" font-size="10.00" fill="#000000">::GetDStoParticleBy</text>
</a>
</g>
</g>
<!-- Node6&#45;&gt;Node7 -->
<g id="edge6" class="edge">
<title>Node6&#45;&gt;Node7</title>
<path fill="none" stroke="#191970" d="M525.879,-195.6189C537.2171,-198.8896 549.2351,-202.3563 560.8611,-205.7099"/>
<polygon fill="#191970" stroke="#191970" points="559.9329,-209.0848 570.5112,-208.4936 561.873,-202.359 559.9329,-209.0848"/>
</g>
<!-- Node8 -->
<g id="node8" class="node">
<title>Node8</title>
<g id="a_node8"><a xlink:href="../../d2/dbb/classKFParticleBaseSIMD.html#a63891fb44fb5a375907e67a7d048d970" target="_top" xlink:title="KFParticleBaseSIMD\l::GetFieldValue">
<polygon fill="none" stroke="#000000" points="568,-118.5 568,-150.5 684,-150.5 684,-118.5 568,-118.5"/>
<text text-anchor="start" x="576" y="-137.5" font-family="FreeSans" font-size="10.00" fill="#000000">KFParticleBaseSIMD</text>
<text text-anchor="middle" x="626" y="-125.5" font-family="FreeSans" font-size="10.00" fill="#000000">::GetFieldValue</text>
</a>
</g>
</g>
<!-- Node6&#45;&gt;Node8 -->
<g id="edge9" class="edge">
<title>Node6&#45;&gt;Node8</title>
<path fill="none" stroke="#191970" d="M525.879,-163.3811C537.2171,-160.1104 549.2351,-156.6437 560.8611,-153.2901"/>
<polygon fill="#191970" stroke="#191970" points="561.873,-156.641 570.5112,-150.5064 559.9329,-149.9152 561.873,-156.641"/>
</g>
<!-- Node7&#45;&gt;Node3 -->
<g id="edge7" class="edge">
<title>Node7&#45;&gt;Node3</title>
<path fill="none" stroke="#191970" d="M684.3325,-225.6513C692.6057,-225.8146 701.1747,-225.9837 709.617,-226.1503"/>
<polygon fill="#191970" stroke="#191970" points="709.7565,-229.6537 719.8236,-226.3518 709.8947,-222.655 709.7565,-229.6537"/>
</g>
<!-- Node10 -->
<g id="node10" class="node">
<title>Node10</title>
<g id="a_node10"><a xlink:href="../../d2/dbb/classKFParticleBaseSIMD.html#aa9dacf6ba490d52aea4190e8f824eda2" target="_top" xlink:title="KFParticleBaseSIMD\l::TransportBz">
<polygon fill="none" stroke="#000000" points="412,-.5 412,-32.5 528,-32.5 528,-.5 412,-.5"/>
<text text-anchor="start" x="420" y="-19.5" font-family="FreeSans" font-size="10.00" fill="#000000">KFParticleBaseSIMD</text>
<text text-anchor="middle" x="470" y="-7.5" font-family="FreeSans" font-size="10.00" fill="#000000">::TransportBz</text>
</a>
</g>
</g>
<!-- Node9&#45;&gt;Node10 -->
<g id="edge11" class="edge">
<title>Node9&#45;&gt;Node10</title>
<path fill="none" stroke="#191970" d="M311.4209,-73.4694C338.7968,-63.6346 381.269,-48.3766 415.3709,-36.1255"/>
<polygon fill="#191970" stroke="#191970" points="416.9748,-39.2683 425.2026,-32.5934 414.6081,-32.6806 416.9748,-39.2683"/>
</g>
<!-- Node12 -->
<g id="node12" class="node">
<title>Node12</title>
<g id="a_node12"><a xlink:href="../../d2/dbb/classKFParticleBaseSIMD.html#acebb258c434eeecd9ebc909e364e320c" target="_top" xlink:title="KFParticleBaseSIMD\l::TransportCBM">
<polygon fill="none" stroke="#000000" points="412,-67.5 412,-99.5 528,-99.5 528,-67.5 412,-67.5"/>
<text text-anchor="start" x="420" y="-86.5" font-family="FreeSans" font-size="10.00" fill="#000000">KFParticleBaseSIMD</text>
<text text-anchor="middle" x="470" y="-74.5" font-family="FreeSans" font-size="10.00" fill="#000000">::TransportCBM</text>
</a>
</g>
</g>
<!-- Node9&#45;&gt;Node12 -->
<g id="edge13" class="edge">
<title>Node9&#45;&gt;Node12</title>
<path fill="none" stroke="#191970" d="M356.6745,-83.5C371.3735,-83.5 386.7712,-83.5 401.311,-83.5"/>
<polygon fill="#191970" stroke="#191970" points="401.7245,-87.0001 411.7245,-83.5 401.7244,-80.0001 401.7245,-87.0001"/>
</g>
<!-- Node11 -->
<g id="node11" class="node">
<title>Node11</title>
<g id="a_node11"><a xlink:href="../../d2/dbb/classKFParticleBaseSIMD.html#af246711cd053ab45c7415190658faeca" target="_top" xlink:title="KFParticleBaseSIMD\l::MultQSQt">
<polygon fill="none" stroke="#000000" points="720,-22.5 720,-54.5 836,-54.5 836,-22.5 720,-22.5"/>
<text text-anchor="start" x="728" y="-41.5" font-family="FreeSans" font-size="10.00" fill="#000000">KFParticleBaseSIMD</text>
<text text-anchor="middle" x="778" y="-29.5" font-family="FreeSans" font-size="10.00" fill="#000000">::MultQSQt</text>
</a>
</g>
</g>
<!-- Node10&#45;&gt;Node11 -->
<g id="edge12" class="edge">
<title>Node10&#45;&gt;Node11</title>
<path fill="none" stroke="#191970" d="M528.2424,-16.9419C571.3389,-17.6904 631.4324,-19.6179 684,-24.5 692.3838,-25.2786 701.1604,-26.3031 709.84,-27.4446"/>
<polygon fill="#191970" stroke="#191970" points="709.5727,-30.9406 719.9553,-28.8305 710.523,-24.0054 709.5727,-30.9406"/>
</g>
<!-- Node12&#45;&gt;Node8 -->
<g id="edge14" class="edge">
<title>Node12&#45;&gt;Node8</title>
<path fill="none" stroke="#191970" d="M519.3594,-99.6367C534.5872,-104.6151 551.5064,-110.1463 567.2992,-115.3094"/>
<polygon fill="#191970" stroke="#191970" points="566.3692,-118.6875 576.9617,-118.4683 568.5444,-112.0341 566.3692,-118.6875"/>
</g>
<!-- Node12&#45;&gt;Node11 -->
<g id="edge15" class="edge">
<title>Node12&#45;&gt;Node11</title>
<path fill="none" stroke="#191970" d="M523.8075,-67.4753C538.0678,-63.7105 553.5259,-60.0559 568,-57.5 614.8588,-49.2255 668.2727,-44.4554 709.5044,-41.7642"/>
<polygon fill="#191970" stroke="#191970" points="709.9518,-45.2431 719.7131,-41.1239 709.5136,-38.2568 709.9518,-45.2431"/>
</g>
<!-- Node13 -->
<g id="node13" class="node">
<title>Node13</title>
<g id="a_node13"><a xlink:href="../../d2/dbb/classKFParticleBaseSIMD.html#ab186f96a40ed91b49797265adee0eea2" target="_top" xlink:title="KFParticleBaseSIMD\l::TransportLine">
<polygon fill="none" stroke="#000000" points="568,-67.5 568,-99.5 684,-99.5 684,-67.5 568,-67.5"/>
<text text-anchor="start" x="576" y="-86.5" font-family="FreeSans" font-size="10.00" fill="#000000">KFParticleBaseSIMD</text>
<text text-anchor="middle" x="626" y="-74.5" font-family="FreeSans" font-size="10.00" fill="#000000">::TransportLine</text>
</a>
</g>
</g>
<!-- Node12&#45;&gt;Node13 -->
<g id="edge16" class="edge">
<title>Node12&#45;&gt;Node13</title>
<path fill="none" stroke="#191970" d="M528.0886,-83.5C537.7327,-83.5 547.8119,-83.5 557.6811,-83.5"/>
<polygon fill="#191970" stroke="#191970" points="557.8629,-87.0001 567.8628,-83.5 557.8628,-80.0001 557.8629,-87.0001"/>
</g>
<!-- Node13&#45;&gt;Node11 -->
<g id="edge17" class="edge">
<title>Node13&#45;&gt;Node11</title>
<path fill="none" stroke="#191970" d="M680.4462,-67.3811C691.3831,-64.1432 702.9693,-60.713 714.1914,-57.3907"/>
<polygon fill="#191970" stroke="#191970" points="715.3389,-60.7012 723.934,-54.5064 713.3518,-53.9892 715.3389,-60.7012"/>
</g>
</g>
</svg>
