<?xml version="1.0" encoding="UTF-8" standalone="no"?>
<!DOCTYPE svg PUBLIC "-//W3C//DTD SVG 1.1//EN"
 "http://www.w3.org/Graphics/SVG/1.1/DTD/svg11.dtd">
<!-- Generated by graphviz version 2.40.1 (20161225.0304)
 -->
<!-- Title: KFParticleSIMD::GetErrEta Pages: 1 -->
<svg width="474pt" height="41pt"
 viewBox="0.00 0.00 474.00 41.00" xmlns="http://www.w3.org/2000/svg" xmlns:xlink="http://www.w3.org/1999/xlink">
<g id="graph0" class="graph" transform="scale(1 1) rotate(0) translate(4 37)">
<title>KFParticleSIMD::GetErrEta</title>
<!-- Node1 -->
<g id="node1" class="node">
<title>Node1</title>
<polygon fill="#bfbfbf" stroke="#000000" points="0,-6.5 0,-26.5 146,-26.5 146,-6.5 0,-6.5"/>
<text text-anchor="middle" x="73" y="-13.5" font-family="FreeSans" font-size="10.00" fill="#000000">KFParticleSIMD::GetErrEta</text>
</g>
<!-- Node2 -->
<g id="node2" class="node">
<title>Node2</title>
<g id="a_node2"><a xlink:href="../../db/dcc/classKFParticleSIMD.html#a0a034fe797629742f498a57645b2bdd2" target="_top" xlink:title="Returns pseudorapidity.">
<polygon fill="none" stroke="#000000" points="182,-6.5 182,-26.5 314,-26.5 314,-6.5 182,-6.5"/>
<text text-anchor="middle" x="248" y="-13.5" font-family="FreeSans" font-size="10.00" fill="#000000">KFParticleSIMD::GetEta</text>
</a>
</g>
</g>
<!-- Node1&#45;&gt;Node2 -->
<g id="edge1" class="edge">
<title>Node1&#45;&gt;Node2</title>
<path fill="none" stroke="#191970" d="M146.2018,-16.5C154.5918,-16.5 163.162,-16.5 171.5927,-16.5"/>
<polygon fill="#191970" stroke="#191970" points="171.7855,-20.0001 181.7854,-16.5 171.7854,-13.0001 171.7855,-20.0001"/>
</g>
<!-- Node3 -->
<g id="node3" class="node">
<title>Node3</title>
<g id="a_node3"><a xlink:href="../../d2/dbb/classKFParticleBaseSIMD.html#ab67bce164eba1fa6e68b8ffc2eac6e7f" target="_top" xlink:title="KFParticleBaseSIMD\l::GetEta">
<polygon fill="none" stroke="#000000" points="350,-.5 350,-32.5 466,-32.5 466,-.5 350,-.5"/>
<text text-anchor="start" x="358" y="-19.5" font-family="FreeSans" font-size="10.00" fill="#000000">KFParticleBaseSIMD</text>
<text text-anchor="middle" x="408" y="-7.5" font-family="FreeSans" font-size="10.00" fill="#000000">::GetEta</text>
</a>
</g>
</g>
<!-- Node2&#45;&gt;Node3 -->
<g id="edge2" class="edge">
<title>Node2&#45;&gt;Node3</title>
<path fill="none" stroke="#191970" d="M314.0019,-16.5C322.4473,-16.5 331.1075,-16.5 339.5902,-16.5"/>
<polygon fill="#191970" stroke="#191970" points="339.8227,-20.0001 349.8226,-16.5 339.8226,-13.0001 339.8227,-20.0001"/>
</g>
</g>
</svg>
