<?xml version="1.0" encoding="UTF-8" standalone="no"?>
<!DOCTYPE svg PUBLIC "-//W3C//DTD SVG 1.1//EN"
 "http://www.w3.org/Graphics/SVG/1.1/DTD/svg11.dtd">
<!-- Generated by graphviz version 2.40.1 (20161225.0304)
 -->
<!-- Title: KFParticleSIMD::Transport Pages: 1 -->
<svg width="554pt" height="311pt"
 viewBox="0.00 0.00 554.00 311.00" xmlns="http://www.w3.org/2000/svg" xmlns:xlink="http://www.w3.org/1999/xlink">
<g id="graph0" class="graph" transform="scale(1 1) rotate(0) translate(4 307)">
<title>KFParticleSIMD::Transport</title>
<!-- Node1 -->
<g id="node1" class="node">
<title>Node1</title>
<polygon fill="#bfbfbf" stroke="#000000" points="0,-159.5 0,-179.5 146,-179.5 146,-159.5 0,-159.5"/>
<text text-anchor="middle" x="73" y="-166.5" font-family="FreeSans" font-size="10.00" fill="#000000">KFParticleSIMD::Transport</text>
</g>
<!-- Node2 -->
<g id="node2" class="node">
<title>Node2</title>
<g id="a_node2"><a xlink:href="../../db/dcc/classKFParticleSIMD.html#a742d47505d1051ecf081040ac15c9798" target="_top" xlink:title="KFParticleSIMD::GetAngle">
<polygon fill="none" stroke="#000000" points="191.5,-282.5 191.5,-302.5 336.5,-302.5 336.5,-282.5 191.5,-282.5"/>
<text text-anchor="middle" x="264" y="-289.5" font-family="FreeSans" font-size="10.00" fill="#000000">KFParticleSIMD::GetAngle</text>
</a>
</g>
</g>
<!-- Node1&#45;&gt;Node2 -->
<g id="edge1" class="edge">
<title>Node1&#45;&gt;Node2</title>
<path fill="none" stroke="#191970" d="M86.8356,-187.7463C105.704,-211.2931 141.7908,-251.8039 182,-273.5 188.6875,-277.1084 196.0415,-280.0349 203.5153,-282.4075"/>
<polygon fill="#191970" stroke="#191970" points="89.3968,-185.3403 80.4744,-179.627 83.8865,-189.6574 89.3968,-185.3403"/>
</g>
<!-- Node3 -->
<g id="node3" class="node">
<title>Node3</title>
<g id="a_node3"><a xlink:href="../../db/dcc/classKFParticleSIMD.html#acf26f94fdfb68a8983b0b601ae86a3ff" target="_top" xlink:title="KFParticleSIMD::GetAngleRZ">
<polygon fill="none" stroke="#000000" points="184.5,-243.5 184.5,-263.5 343.5,-263.5 343.5,-243.5 184.5,-243.5"/>
<text text-anchor="middle" x="264" y="-250.5" font-family="FreeSans" font-size="10.00" fill="#000000">KFParticleSIMD::GetAngleRZ</text>
</a>
</g>
</g>
<!-- Node1&#45;&gt;Node3 -->
<g id="edge2" class="edge">
<title>Node1&#45;&gt;Node3</title>
<path fill="none" stroke="#191970" d="M95.0512,-185.4541C116.3457,-200.1645 149.9874,-221.6133 182,-234.5 190.8115,-238.0471 200.4348,-241.0178 209.8896,-243.4762"/>
<polygon fill="#191970" stroke="#191970" points="96.9173,-182.4878 86.7217,-179.6068 92.8954,-188.2171 96.9173,-182.4878"/>
</g>
<!-- Node4 -->
<g id="node4" class="node">
<title>Node4</title>
<g id="a_node4"><a xlink:href="../../db/dcc/classKFParticleSIMD.html#a485a5cc06021dbc62322c2cb7a706251" target="_top" xlink:title="KFParticleSIMD::GetAngleXY">
<polygon fill="none" stroke="#000000" points="184.5,-204.5 184.5,-224.5 343.5,-224.5 343.5,-204.5 184.5,-204.5"/>
<text text-anchor="middle" x="264" y="-211.5" font-family="FreeSans" font-size="10.00" fill="#000000">KFParticleSIMD::GetAngleXY</text>
</a>
</g>
</g>
<!-- Node1&#45;&gt;Node4 -->
<g id="edge3" class="edge">
<title>Node1&#45;&gt;Node4</title>
<path fill="none" stroke="#191970" d="M124.4723,-181.85C142.644,-186.1909 163.2246,-191.0856 182,-195.5 194.5183,-198.4433 208.1198,-201.6082 220.5804,-204.4945"/>
<polygon fill="#191970" stroke="#191970" points="125.1912,-178.4233 114.6514,-179.5019 123.5634,-185.2314 125.1912,-178.4233"/>
</g>
<!-- Node5 -->
<g id="node5" class="node">
<title>Node5</title>
<g id="a_node5"><a xlink:href="../../db/dcc/classKFParticleSIMD.html#aeef9436d096312a52ff8d9a2e691f115" target="_top" xlink:title="KFParticleSIMD::GetDeviation\lFromParticleXY">
<polygon fill="none" stroke="#000000" points="182,-153.5 182,-185.5 346,-185.5 346,-153.5 182,-153.5"/>
<text text-anchor="start" x="190" y="-172.5" font-family="FreeSans" font-size="10.00" fill="#000000">KFParticleSIMD::GetDeviation</text>
<text text-anchor="middle" x="264" y="-160.5" font-family="FreeSans" font-size="10.00" fill="#000000">FromParticleXY</text>
</a>
</g>
</g>
<!-- Node1&#45;&gt;Node5 -->
<g id="edge4" class="edge">
<title>Node1&#45;&gt;Node5</title>
<path fill="none" stroke="#191970" d="M156.2648,-169.5C164.7263,-169.5 173.318,-169.5 181.7685,-169.5"/>
<polygon fill="#191970" stroke="#191970" points="156.0265,-166.0001 146.0265,-169.5 156.0264,-173.0001 156.0265,-166.0001"/>
</g>
<!-- Node6 -->
<g id="node6" class="node">
<title>Node6</title>
<g id="a_node6"><a xlink:href="../../db/dcc/classKFParticleSIMD.html#a0007ac45e27ad78d3481c143dd3d6dcf" target="_top" xlink:title="KFParticleSIMD::GetDeviation\lFromVertexXY">
<polygon fill="none" stroke="#000000" points="182,-102.5 182,-134.5 346,-134.5 346,-102.5 182,-102.5"/>
<text text-anchor="start" x="190" y="-121.5" font-family="FreeSans" font-size="10.00" fill="#000000">KFParticleSIMD::GetDeviation</text>
<text text-anchor="middle" x="264" y="-109.5" font-family="FreeSans" font-size="10.00" fill="#000000">FromVertexXY</text>
</a>
</g>
</g>
<!-- Node1&#45;&gt;Node6 -->
<g id="edge5" class="edge">
<title>Node1&#45;&gt;Node6</title>
<path fill="none" stroke="#191970" d="M120.4295,-156.8356C145.6355,-150.1052 176.8852,-141.761 203.7876,-134.5777"/>
<polygon fill="#191970" stroke="#191970" points="119.494,-153.4627 110.7355,-159.424 121.2999,-160.2257 119.494,-153.4627"/>
</g>
<!-- Node8 -->
<g id="node8" class="node">
<title>Node8</title>
<g id="a_node8"><a xlink:href="../../db/dcc/classKFParticleSIMD.html#aa8fb673d2b680ca33297a1e401aa7208" target="_top" xlink:title="KFParticleSIMD::GetDistance\lFromParticleXY">
<polygon fill="none" stroke="#000000" points="184,-51.5 184,-83.5 344,-83.5 344,-51.5 184,-51.5"/>
<text text-anchor="start" x="192" y="-70.5" font-family="FreeSans" font-size="10.00" fill="#000000">KFParticleSIMD::GetDistance</text>
<text text-anchor="middle" x="264" y="-58.5" font-family="FreeSans" font-size="10.00" fill="#000000">FromParticleXY</text>
</a>
</g>
</g>
<!-- Node1&#45;&gt;Node8 -->
<g id="edge7" class="edge">
<title>Node1&#45;&gt;Node8</title>
<path fill="none" stroke="#191970" d="M92.8466,-152.8797C113.8541,-135.9781 148.5368,-109.9944 182,-93.5 189.5016,-89.8024 197.645,-86.4783 205.7906,-83.5414"/>
<polygon fill="#191970" stroke="#191970" points="90.5149,-150.265 84.9812,-159.2999 94.9413,-155.6878 90.5149,-150.265"/>
</g>
<!-- Node9 -->
<g id="node9" class="node">
<title>Node9</title>
<g id="a_node9"><a xlink:href="../../db/dcc/classKFParticleSIMD.html#a2ebfe06b454da6d2b7c5d0bfef26e9ca" target="_top" xlink:title="KFParticleSIMD::GetDistance\lFromVertexXY">
<polygon fill="none" stroke="#000000" points="184,-.5 184,-32.5 344,-32.5 344,-.5 184,-.5"/>
<text text-anchor="start" x="192" y="-19.5" font-family="FreeSans" font-size="10.00" fill="#000000">KFParticleSIMD::GetDistance</text>
<text text-anchor="middle" x="264" y="-7.5" font-family="FreeSans" font-size="10.00" fill="#000000">FromVertexXY</text>
</a>
</g>
</g>
<!-- Node1&#45;&gt;Node9 -->
<g id="edge8" class="edge">
<title>Node1&#45;&gt;Node9</title>
<path fill="none" stroke="#191970" d="M84.3782,-150.5153C101.9308,-122.8109 138.2072,-71.4606 182,-42.5 187.7302,-38.7105 194.0488,-35.4434 200.5591,-32.6333"/>
<polygon fill="#191970" stroke="#191970" points="81.2567,-148.9082 78.9688,-159.253 87.2085,-152.5928 81.2567,-148.9082"/>
</g>
<!-- Node7 -->
<g id="node7" class="node">
<title>Node7</title>
<g id="a_node7"><a xlink:href="../../db/dcc/classKFParticleSIMD.html#a1b524c1e7e92bcb25417e072198676da" target="_top" xlink:title="KFParticleSIMD::GetDeviation\lFromVertexXY">
<polygon fill="none" stroke="#000000" points="382,-102.5 382,-134.5 546,-134.5 546,-102.5 382,-102.5"/>
<text text-anchor="start" x="390" y="-121.5" font-family="FreeSans" font-size="10.00" fill="#000000">KFParticleSIMD::GetDeviation</text>
<text text-anchor="middle" x="464" y="-109.5" font-family="FreeSans" font-size="10.00" fill="#000000">FromVertexXY</text>
</a>
</g>
</g>
<!-- Node6&#45;&gt;Node7 -->
<g id="edge6" class="edge">
<title>Node6&#45;&gt;Node7</title>
<path fill="none" stroke="#191970" d="M356.4658,-118.5C364.9136,-118.5 373.4335,-118.5 381.7826,-118.5"/>
<polygon fill="#191970" stroke="#191970" points="356.2135,-115.0001 346.2135,-118.5 356.2134,-122.0001 356.2135,-115.0001"/>
</g>
</g>
</svg>
