<?xml version="1.0" encoding="UTF-8" standalone="no"?>
<!DOCTYPE svg PUBLIC "-//W3C//DTD SVG 1.1//EN"
 "http://www.w3.org/Graphics/SVG/1.1/DTD/svg11.dtd">
<!-- Generated by graphviz version 2.40.1 (20161225.0304)
 -->
<!-- Title: KFParticleSIMD::Transport Pages: 1 -->
<svg width="610pt" height="167pt"
 viewBox="0.00 0.00 610.00 167.00" xmlns="http://www.w3.org/2000/svg" xmlns:xlink="http://www.w3.org/1999/xlink">
<g id="graph0" class="graph" transform="scale(1 1) rotate(0) translate(4 163)">
<title>KFParticleSIMD::Transport</title>
<!-- Node1 -->
<g id="node1" class="node">
<title>Node1</title>
<polygon fill="#bfbfbf" stroke="#000000" points="0,-98.5 0,-118.5 146,-118.5 146,-98.5 0,-98.5"/>
<text text-anchor="middle" x="73" y="-105.5" font-family="FreeSans" font-size="10.00" fill="#000000">KFParticleSIMD::Transport</text>
</g>
<!-- Node2 -->
<g id="node2" class="node">
<title>Node2</title>
<g id="a_node2"><a xlink:href="../../d2/dbb/classKFParticleBaseSIMD.html#aa9dacf6ba490d52aea4190e8f824eda2" target="_top" xlink:title="KFParticleBaseSIMD\l::TransportBz">
<polygon fill="none" stroke="#000000" points="182,-126.5 182,-158.5 298,-158.5 298,-126.5 182,-126.5"/>
<text text-anchor="start" x="190" y="-145.5" font-family="FreeSans" font-size="10.00" fill="#000000">KFParticleBaseSIMD</text>
<text text-anchor="middle" x="240" y="-133.5" font-family="FreeSans" font-size="10.00" fill="#000000">::TransportBz</text>
</a>
</g>
</g>
<!-- Node1&#45;&gt;Node2 -->
<g id="edge1" class="edge">
<title>Node1&#45;&gt;Node2</title>
<path fill="none" stroke="#191970" d="M122.2023,-118.5172C137.6594,-121.6642 155.0145,-125.1976 171.5545,-128.565"/>
<polygon fill="#191970" stroke="#191970" points="171.2261,-132.0699 181.7234,-130.6353 172.6227,-125.2106 171.2261,-132.0699"/>
</g>
<!-- Node4 -->
<g id="node4" class="node">
<title>Node4</title>
<g id="a_node4"><a xlink:href="../../d2/dbb/classKFParticleBaseSIMD.html#acebb258c434eeecd9ebc909e364e320c" target="_top" xlink:title="KFParticleBaseSIMD\l::TransportCBM">
<polygon fill="none" stroke="#000000" points="182,-67.5 182,-99.5 298,-99.5 298,-67.5 182,-67.5"/>
<text text-anchor="start" x="190" y="-86.5" font-family="FreeSans" font-size="10.00" fill="#000000">KFParticleBaseSIMD</text>
<text text-anchor="middle" x="240" y="-74.5" font-family="FreeSans" font-size="10.00" fill="#000000">::TransportCBM</text>
</a>
</g>
</g>
<!-- Node1&#45;&gt;Node4 -->
<g id="edge3" class="edge">
<title>Node1&#45;&gt;Node4</title>
<path fill="none" stroke="#191970" d="M139.963,-98.4756C150.4843,-96.9005 161.3705,-95.2709 171.9168,-93.6921"/>
<polygon fill="#191970" stroke="#191970" points="172.5294,-97.1395 181.901,-92.1975 171.493,-90.2166 172.5294,-97.1395"/>
</g>
<!-- Node3 -->
<g id="node3" class="node">
<title>Node3</title>
<g id="a_node3"><a xlink:href="../../d2/dbb/classKFParticleBaseSIMD.html#af246711cd053ab45c7415190658faeca" target="_top" xlink:title="KFParticleBaseSIMD\l::MultQSQt">
<polygon fill="none" stroke="#000000" points="486,-96.5 486,-128.5 602,-128.5 602,-96.5 486,-96.5"/>
<text text-anchor="start" x="494" y="-115.5" font-family="FreeSans" font-size="10.00" fill="#000000">KFParticleBaseSIMD</text>
<text text-anchor="middle" x="544" y="-103.5" font-family="FreeSans" font-size="10.00" fill="#000000">::MultQSQt</text>
</a>
</g>
</g>
<!-- Node2&#45;&gt;Node3 -->
<g id="edge2" class="edge">
<title>Node2&#45;&gt;Node3</title>
<path fill="none" stroke="#191970" d="M298.2546,-136.7512C348.9501,-131.7483 422.4712,-124.493 475.8785,-119.2225"/>
<polygon fill="#191970" stroke="#191970" points="476.3346,-122.6946 485.9425,-118.2294 475.6471,-115.7284 476.3346,-122.6946"/>
</g>
<!-- Node4&#45;&gt;Node3 -->
<g id="edge5" class="edge">
<title>Node4&#45;&gt;Node3</title>
<path fill="none" stroke="#191970" d="M298.1517,-89.831C310.0095,-91.0812 322.4038,-92.3587 334,-93.5 381.187,-98.1443 434.3825,-102.9528 475.4273,-106.5704"/>
<polygon fill="#191970" stroke="#191970" points="475.3215,-110.0745 485.5895,-107.4637 475.9344,-103.1014 475.3215,-110.0745"/>
</g>
<!-- Node5 -->
<g id="node5" class="node">
<title>Node5</title>
<g id="a_node5"><a xlink:href="../../d2/dbb/classKFParticleBaseSIMD.html#a63891fb44fb5a375907e67a7d048d970" target="_top" xlink:title="KFParticleBaseSIMD\l::GetFieldValue">
<polygon fill="none" stroke="#000000" points="334,-51.5 334,-83.5 450,-83.5 450,-51.5 334,-51.5"/>
<text text-anchor="start" x="342" y="-70.5" font-family="FreeSans" font-size="10.00" fill="#000000">KFParticleBaseSIMD</text>
<text text-anchor="middle" x="392" y="-58.5" font-family="FreeSans" font-size="10.00" fill="#000000">::GetFieldValue</text>
</a>
</g>
</g>
<!-- Node4&#45;&gt;Node5 -->
<g id="edge4" class="edge">
<title>Node4&#45;&gt;Node5</title>
<path fill="none" stroke="#191970" d="M298.3325,-77.3597C306.6057,-76.4889 315.1747,-75.5869 323.617,-74.6982"/>
<polygon fill="#191970" stroke="#191970" points="324.245,-78.1515 333.8236,-73.6238 323.5122,-71.19 324.245,-78.1515"/>
</g>
<!-- Node6 -->
<g id="node6" class="node">
<title>Node6</title>
<g id="a_node6"><a xlink:href="../../d2/dbb/classKFParticleBaseSIMD.html#ab186f96a40ed91b49797265adee0eea2" target="_top" xlink:title="KFParticleBaseSIMD\l::TransportLine">
<polygon fill="none" stroke="#000000" points="334,-.5 334,-32.5 450,-32.5 450,-.5 334,-.5"/>
<text text-anchor="start" x="342" y="-19.5" font-family="FreeSans" font-size="10.00" fill="#000000">KFParticleBaseSIMD</text>
<text text-anchor="middle" x="392" y="-7.5" font-family="FreeSans" font-size="10.00" fill="#000000">::TransportLine</text>
</a>
</g>
</g>
<!-- Node4&#45;&gt;Node6 -->
<g id="edge6" class="edge">
<title>Node4&#45;&gt;Node6</title>
<path fill="none" stroke="#191970" d="M275.6598,-67.4337C293.2062,-59.5623 314.6866,-49.9766 334,-41.5 337.624,-39.9094 341.3791,-38.2704 345.1562,-36.6282"/>
<polygon fill="#191970" stroke="#191970" points="346.7454,-39.7541 354.5284,-32.5654 343.9613,-33.3315 346.7454,-39.7541"/>
</g>
<!-- Node6&#45;&gt;Node3 -->
<g id="edge7" class="edge">
<title>Node6&#45;&gt;Node3</title>
<path fill="none" stroke="#191970" d="M432.8611,-32.636C438.7258,-35.3741 444.5977,-38.3569 450,-41.5 474.2207,-55.5917 499.4417,-74.9377 517.6541,-89.8769"/>
<polygon fill="#191970" stroke="#191970" points="515.5718,-92.6972 525.5,-96.396 520.0454,-87.3132 515.5718,-92.6972"/>
</g>
</g>
</svg>
