<?xml version="1.0" encoding="UTF-8" standalone="no"?>
<!DOCTYPE svg PUBLIC "-//W3C//DTD SVG 1.1//EN"
 "http://www.w3.org/Graphics/SVG/1.1/DTD/svg11.dtd">
<!-- Generated by graphviz version 2.40.1 (20161225.0304)
 -->
<!-- Title: KFParticleSIMD::GetErrPt Pages: 1 -->
<svg width="464pt" height="41pt"
 viewBox="0.00 0.00 464.00 41.00" xmlns="http://www.w3.org/2000/svg" xmlns:xlink="http://www.w3.org/1999/xlink">
<g id="graph0" class="graph" transform="scale(1 1) rotate(0) translate(4 37)">
<title>KFParticleSIMD::GetErrPt</title>
<!-- Node1 -->
<g id="node1" class="node">
<title>Node1</title>
<polygon fill="#bfbfbf" stroke="#000000" points="0,-6.5 0,-26.5 141,-26.5 141,-6.5 0,-6.5"/>
<text text-anchor="middle" x="70.5" y="-13.5" font-family="FreeSans" font-size="10.00" fill="#000000">KFParticleSIMD::GetErrPt</text>
</g>
<!-- Node2 -->
<g id="node2" class="node">
<title>Node2</title>
<g id="a_node2"><a xlink:href="../../db/dcc/classKFParticleSIMD.html#afa4110f0c19aeb0e6416a2ff851c121a" target="_top" xlink:title="Returns transverse momentum.">
<polygon fill="none" stroke="#000000" points="177,-6.5 177,-26.5 304,-26.5 304,-6.5 177,-6.5"/>
<text text-anchor="middle" x="240.5" y="-13.5" font-family="FreeSans" font-size="10.00" fill="#000000">KFParticleSIMD::GetPt</text>
</a>
</g>
</g>
<!-- Node1&#45;&gt;Node2 -->
<g id="edge1" class="edge">
<title>Node1&#45;&gt;Node2</title>
<path fill="none" stroke="#191970" d="M141.1184,-16.5C149.5496,-16.5 158.1753,-16.5 166.6504,-16.5"/>
<polygon fill="#191970" stroke="#191970" points="166.8904,-20.0001 176.8904,-16.5 166.8904,-13.0001 166.8904,-20.0001"/>
</g>
<!-- Node3 -->
<g id="node3" class="node">
<title>Node3</title>
<g id="a_node3"><a xlink:href="../../d2/dbb/classKFParticleBaseSIMD.html#a2be75da924159255f3dc954e0e6a3271" target="_top" xlink:title="KFParticleBaseSIMD\l::GetPt">
<polygon fill="none" stroke="#000000" points="340,-.5 340,-32.5 456,-32.5 456,-.5 340,-.5"/>
<text text-anchor="start" x="348" y="-19.5" font-family="FreeSans" font-size="10.00" fill="#000000">KFParticleBaseSIMD</text>
<text text-anchor="middle" x="398" y="-7.5" font-family="FreeSans" font-size="10.00" fill="#000000">::GetPt</text>
</a>
</g>
</g>
<!-- Node2&#45;&gt;Node3 -->
<g id="edge2" class="edge">
<title>Node2&#45;&gt;Node3</title>
<path fill="none" stroke="#191970" d="M304.1073,-16.5C312.4834,-16.5 321.097,-16.5 329.5496,-16.5"/>
<polygon fill="#191970" stroke="#191970" points="329.7532,-20.0001 339.7531,-16.5 329.7531,-13.0001 329.7532,-20.0001"/>
</g>
</g>
</svg>
