<?xml version="1.0" encoding="UTF-8" standalone="no"?>
<!DOCTYPE svg PUBLIC "-//W3C//DTD SVG 1.1//EN"
 "http://www.w3.org/Graphics/SVG/1.1/DTD/svg11.dtd">
<!-- Generated by graphviz version 2.40.1 (20161225.0304)
 -->
<!-- Title: KFParticleDatabase::GetDPlusMassSigma Pages: 1 -->
<svg width="909pt" height="41pt"
 viewBox="0.00 0.00 909.00 41.00" xmlns="http://www.w3.org/2000/svg" xmlns:xlink="http://www.w3.org/1999/xlink">
<g id="graph0" class="graph" transform="scale(1 1) rotate(0) translate(4 37)">
<title>KFParticleDatabase::GetDPlusMassSigma</title>
<!-- Node1 -->
<g id="node1" class="node">
<title>Node1</title>
<polygon fill="#bfbfbf" stroke="#000000" points="0,-.5 0,-32.5 126,-32.5 126,-.5 0,-.5"/>
<text text-anchor="start" x="8" y="-19.5" font-family="FreeSans" font-size="10.00" fill="#000000">KFParticleDatabase</text>
<text text-anchor="middle" x="63" y="-7.5" font-family="FreeSans" font-size="10.00" fill="#000000">::GetDPlusMassSigma</text>
</g>
<!-- Node2 -->
<g id="node2" class="node">
<title>Node2</title>
<g id="a_node2"><a xlink:href="../../d2/d3d/classKFParticleFinder.html#a845f4b9e798f34dad97691ddd0df6b07" target="_top" xlink:title="KFParticleFinder::Construct\lTrackV0Cand">
<polygon fill="none" stroke="#000000" points="162,-.5 162,-32.5 315,-32.5 315,-.5 162,-.5"/>
<text text-anchor="start" x="170" y="-19.5" font-family="FreeSans" font-size="10.00" fill="#000000">KFParticleFinder::Construct</text>
<text text-anchor="middle" x="238.5" y="-7.5" font-family="FreeSans" font-size="10.00" fill="#000000">TrackV0Cand</text>
</a>
</g>
</g>
<!-- Node1&#45;&gt;Node2 -->
<g id="edge1" class="edge">
<title>Node1&#45;&gt;Node2</title>
<path fill="none" stroke="#191970" d="M136.452,-16.5C144.8157,-16.5 153.3576,-16.5 161.7625,-16.5"/>
<polygon fill="#191970" stroke="#191970" points="136.3596,-13.0001 126.3595,-16.5 136.3595,-20.0001 136.3596,-13.0001"/>
</g>
<!-- Node3 -->
<g id="node3" class="node">
<title>Node3</title>
<g id="a_node3"><a xlink:href="../../d2/d3d/classKFParticleFinder.html#a2073bafab2ee9126f3fbf0bef15f68e3" target="_top" xlink:title="KFParticleFinder::FindTrack\lV0Decay">
<polygon fill="none" stroke="#000000" points="351,-.5 351,-32.5 502,-32.5 502,-.5 351,-.5"/>
<text text-anchor="start" x="359" y="-19.5" font-family="FreeSans" font-size="10.00" fill="#000000">KFParticleFinder::FindTrack</text>
<text text-anchor="middle" x="426.5" y="-7.5" font-family="FreeSans" font-size="10.00" fill="#000000">V0Decay</text>
</a>
</g>
</g>
<!-- Node2&#45;&gt;Node3 -->
<g id="edge2" class="edge">
<title>Node2&#45;&gt;Node3</title>
<path fill="none" stroke="#191970" d="M325.247,-16.5C333.8195,-16.5 342.4729,-16.5 350.9199,-16.5"/>
<polygon fill="#191970" stroke="#191970" points="325.238,-13.0001 315.238,-16.5 325.2379,-20.0001 325.238,-13.0001"/>
</g>
<!-- Node4 -->
<g id="node4" class="node">
<title>Node4</title>
<g id="a_node4"><a xlink:href="../../d2/d3d/classKFParticleFinder.html#a3ad831d1b28cce4689501e369f561926" target="_top" xlink:title="KFParticleFinder::FindParticles">
<polygon fill="none" stroke="#000000" points="538,-6.5 538,-26.5 705,-26.5 705,-6.5 538,-6.5"/>
<text text-anchor="middle" x="621.5" y="-13.5" font-family="FreeSans" font-size="10.00" fill="#000000">KFParticleFinder::FindParticles</text>
</a>
</g>
</g>
<!-- Node3&#45;&gt;Node4 -->
<g id="edge3" class="edge">
<title>Node3&#45;&gt;Node4</title>
<path fill="none" stroke="#191970" d="M512.3835,-16.5C520.8178,-16.5 529.3697,-16.5 537.7819,-16.5"/>
<polygon fill="#191970" stroke="#191970" points="512.1712,-13.0001 502.1712,-16.5 512.1712,-20.0001 512.1712,-13.0001"/>
</g>
<!-- Node5 -->
<g id="node5" class="node">
<title>Node5</title>
<g id="a_node5"><a xlink:href="../../db/d6d/classKFParticleTopoReconstructor.html#a3013eefd4e16b74ae39c531678623d08" target="_top" xlink:title="KFParticleTopoReconstructor\l::ReconstructParticles">
<polygon fill="none" stroke="#000000" points="741,-.5 741,-32.5 901,-32.5 901,-.5 741,-.5"/>
<text text-anchor="start" x="749" y="-19.5" font-family="FreeSans" font-size="10.00" fill="#000000">KFParticleTopoReconstructor</text>
<text text-anchor="middle" x="821" y="-7.5" font-family="FreeSans" font-size="10.00" fill="#000000">::ReconstructParticles</text>
</a>
</g>
</g>
<!-- Node4&#45;&gt;Node5 -->
<g id="edge4" class="edge">
<title>Node4&#45;&gt;Node5</title>
<path fill="none" stroke="#191970" d="M715.2835,-16.5C723.8763,-16.5 732.5283,-16.5 740.9834,-16.5"/>
<polygon fill="#191970" stroke="#191970" points="715.2389,-13.0001 705.2388,-16.5 715.2388,-20.0001 715.2389,-13.0001"/>
</g>
</g>
</svg>
