<?xml version="1.0" encoding="UTF-8" standalone="no"?>
<!DOCTYPE svg PUBLIC "-//W3C//DTD SVG 1.1//EN"
 "http://www.w3.org/Graphics/SVG/1.1/DTD/svg11.dtd">
<!-- Generated by graphviz version 2.40.1 (20161225.0304)
 -->
<!-- Title: genfit::AbsHMatrix::MHt Pages: 1 -->
<svg width="1145pt" height="143pt"
 viewBox="0.00 0.00 1145.00 143.00" xmlns="http://www.w3.org/2000/svg" xmlns:xlink="http://www.w3.org/1999/xlink">
<g id="graph0" class="graph" transform="scale(1 1) rotate(0) translate(4 139)">
<title>genfit::AbsHMatrix::MHt</title>
<!-- Node1 -->
<g id="node1" class="node">
<title>Node1</title>
<polygon fill="#bfbfbf" stroke="#000000" points="0,-31.5 0,-51.5 138,-51.5 138,-31.5 0,-31.5"/>
<text text-anchor="middle" x="69" y="-38.5" font-family="FreeSans" font-size="10.00" fill="#000000">genfit::AbsHMatrix::MHt</text>
</g>
<!-- Node2 -->
<g id="node2" class="node">
<title>Node2</title>
<g id="a_node2"><a xlink:href="../../db/d45/namespacegenfit_1_1tools.html#adc2bca594b70cc0ade79777b79e4f8ed" target="_top" xlink:title="Calculate the Kalman measurement update with no transport. x, S : state prediction, covariance square root res, R, H : residual, measurement covariance square root, H matrix of the measurement.">
<polygon fill="none" stroke="#000000" points="174,-31.5 174,-51.5 353,-51.5 353,-31.5 174,-31.5"/>
<text text-anchor="middle" x="263.5" y="-38.5" font-family="FreeSans" font-size="10.00" fill="#000000">genfit::tools::kalmanUpdateSqrt</text>
</a>
</g>
</g>
<!-- Node1&#45;&gt;Node2 -->
<g id="edge1" class="edge">
<title>Node1&#45;&gt;Node2</title>
<path fill="none" stroke="#191970" d="M148.2859,-41.5C156.7096,-41.5 165.3196,-41.5 173.8511,-41.5"/>
<polygon fill="#191970" stroke="#191970" points="148.1211,-38.0001 138.1211,-41.5 148.121,-45.0001 148.1211,-38.0001"/>
</g>
<!-- Node3 -->
<g id="node3" class="node">
<title>Node3</title>
<g id="a_node3"><a xlink:href="../../d4/db7/classgenfit_1_1KalmanFitter.html#afe8b6ebb672298327052897b7c95135d" target="_top" xlink:title="genfit::KalmanFitter\l::processTrackPoint">
<polygon fill="none" stroke="#000000" points="410.5,-51.5 410.5,-83.5 527.5,-83.5 527.5,-51.5 410.5,-51.5"/>
<text text-anchor="start" x="418.5" y="-70.5" font-family="FreeSans" font-size="10.00" fill="#000000">genfit::KalmanFitter</text>
<text text-anchor="middle" x="469" y="-58.5" font-family="FreeSans" font-size="10.00" fill="#000000">::processTrackPoint</text>
</a>
</g>
</g>
<!-- Node2&#45;&gt;Node3 -->
<g id="edge2" class="edge">
<title>Node2&#45;&gt;Node3</title>
<path fill="none" stroke="#191970" d="M352.7677,-52.7942C372.2444,-55.2584 392.3787,-57.8058 410.3059,-60.074"/>
<polygon fill="#191970" stroke="#191970" points="353.018,-49.2981 342.6577,-51.5151 352.1393,-56.2427 353.018,-49.2981"/>
</g>
<!-- Node8 -->
<g id="node8" class="node">
<title>Node8</title>
<g id="a_node8"><a xlink:href="../../d8/d26/classgenfit_1_1KalmanFitterRefTrack.html#adc865a1152d111df9d724e047decaf3e" target="_top" xlink:title="genfit::KalmanFitterRefTrack\l::processTrackPointSqrt">
<polygon fill="none" stroke="#000000" points="389,-.5 389,-32.5 549,-32.5 549,-.5 389,-.5"/>
<text text-anchor="start" x="397" y="-19.5" font-family="FreeSans" font-size="10.00" fill="#000000">genfit::KalmanFitterRefTrack</text>
<text text-anchor="middle" x="469" y="-7.5" font-family="FreeSans" font-size="10.00" fill="#000000">::processTrackPointSqrt</text>
</a>
</g>
</g>
<!-- Node2&#45;&gt;Node8 -->
<g id="edge7" class="edge">
<title>Node2&#45;&gt;Node8</title>
<path fill="none" stroke="#191970" d="M355.9459,-30.2535C366.9489,-28.915 378.111,-27.5571 388.9208,-26.242"/>
<polygon fill="#191970" stroke="#191970" points="355.4047,-26.7935 345.9006,-31.4756 356.2501,-33.7422 355.4047,-26.7935"/>
</g>
<!-- Node4 -->
<g id="node4" class="node">
<title>Node4</title>
<g id="a_node4"><a xlink:href="../../d4/db7/classgenfit_1_1KalmanFitter.html#ac2a327860007e886098409876504c5ba" target="_top" xlink:title="genfit::KalmanFitter\l::fitTrack">
<polygon fill="none" stroke="#000000" points="606.5,-51.5 606.5,-83.5 723.5,-83.5 723.5,-51.5 606.5,-51.5"/>
<text text-anchor="start" x="614.5" y="-70.5" font-family="FreeSans" font-size="10.00" fill="#000000">genfit::KalmanFitter</text>
<text text-anchor="middle" x="665" y="-58.5" font-family="FreeSans" font-size="10.00" fill="#000000">::fitTrack</text>
</a>
</g>
</g>
<!-- Node3&#45;&gt;Node4 -->
<g id="edge3" class="edge">
<title>Node3&#45;&gt;Node4</title>
<path fill="none" stroke="#191970" d="M537.671,-67.5C560.1062,-67.5 584.8004,-67.5 606.4222,-67.5"/>
<polygon fill="#191970" stroke="#191970" points="537.541,-64.0001 527.541,-67.5 537.5409,-71.0001 537.541,-64.0001"/>
</g>
<!-- Node5 -->
<g id="node5" class="node">
<title>Node5</title>
<g id="a_node5"><a xlink:href="../../d4/db7/classgenfit_1_1KalmanFitter.html#aa44364f202ab52ca2f8fa2000e29a534" target="_top" xlink:title="Hit resorting currently NOT supported.">
<polygon fill="none" stroke="#000000" points="796,-102.5 796,-134.5 926,-134.5 926,-102.5 796,-102.5"/>
<text text-anchor="start" x="804" y="-121.5" font-family="FreeSans" font-size="10.00" fill="#000000">genfit::KalmanFitter</text>
<text text-anchor="middle" x="861" y="-109.5" font-family="FreeSans" font-size="10.00" fill="#000000">::processTrackWithRep</text>
</a>
</g>
</g>
<!-- Node4&#45;&gt;Node5 -->
<g id="edge4" class="edge">
<title>Node4&#45;&gt;Node5</title>
<path fill="none" stroke="#191970" d="M733.2514,-85.2593C754.7458,-90.8522 778.3495,-96.994 799.3563,-102.4601"/>
<polygon fill="#191970" stroke="#191970" points="734.1001,-81.8637 723.541,-82.7326 732.3373,-88.6381 734.1001,-81.8637"/>
</g>
<!-- Node7 -->
<g id="node7" class="node">
<title>Node7</title>
<g id="a_node7"><a xlink:href="../../d4/db7/classgenfit_1_1KalmanFitter.html#a003f370d672562e1e5c2b345d61f211c" target="_top" xlink:title="genfit::KalmanFitter\l::processTrackPartially">
<polygon fill="none" stroke="#000000" points="796.5,-51.5 796.5,-83.5 925.5,-83.5 925.5,-51.5 796.5,-51.5"/>
<text text-anchor="start" x="804.5" y="-70.5" font-family="FreeSans" font-size="10.00" fill="#000000">genfit::KalmanFitter</text>
<text text-anchor="middle" x="861" y="-58.5" font-family="FreeSans" font-size="10.00" fill="#000000">::processTrackPartially</text>
</a>
</g>
</g>
<!-- Node4&#45;&gt;Node7 -->
<g id="edge6" class="edge">
<title>Node4&#45;&gt;Node7</title>
<path fill="none" stroke="#191970" d="M733.6669,-67.5C753.9961,-67.5 776.1803,-67.5 796.2531,-67.5"/>
<polygon fill="#191970" stroke="#191970" points="733.541,-64.0001 723.541,-67.5 733.5409,-71.0001 733.541,-64.0001"/>
</g>
<!-- Node6 -->
<g id="node6" class="node">
<title>Node6</title>
<g id="a_node6"><a xlink:href="../../d0/d48/GenFit_2blob_2master_2test_2fitterTests_2main_8cc.html#ae66f6b31b5ad750f1fe042a706a4e3d4" target="_top" xlink:title="main">
<polygon fill="none" stroke="#000000" points="1036.5,-108.5 1036.5,-128.5 1077.5,-128.5 1077.5,-108.5 1036.5,-108.5"/>
<text text-anchor="middle" x="1057" y="-115.5" font-family="FreeSans" font-size="10.00" fill="#000000">main</text>
</a>
</g>
</g>
<!-- Node5&#45;&gt;Node6 -->
<g id="edge5" class="edge">
<title>Node5&#45;&gt;Node6</title>
<path fill="none" stroke="#191970" d="M936.2911,-118.5C972.3063,-118.5 1012.6518,-118.5 1036.3835,-118.5"/>
<polygon fill="#191970" stroke="#191970" points="936.2652,-115.0001 926.2652,-118.5 936.2651,-122.0001 936.2652,-115.0001"/>
</g>
<!-- Node9 -->
<g id="node9" class="node">
<title>Node9</title>
<g id="a_node9"><a xlink:href="../../d8/d26/classgenfit_1_1KalmanFitterRefTrack.html#a0dffe53c54ee6afe2fc252e643b5b790" target="_top" xlink:title="genfit::KalmanFitterRefTrack\l::processTrackPoint">
<polygon fill="none" stroke="#000000" points="585,-.5 585,-32.5 745,-32.5 745,-.5 585,-.5"/>
<text text-anchor="start" x="593" y="-19.5" font-family="FreeSans" font-size="10.00" fill="#000000">genfit::KalmanFitterRefTrack</text>
<text text-anchor="middle" x="665" y="-7.5" font-family="FreeSans" font-size="10.00" fill="#000000">::processTrackPoint</text>
</a>
</g>
</g>
<!-- Node8&#45;&gt;Node9 -->
<g id="edge8" class="edge">
<title>Node8&#45;&gt;Node9</title>
<path fill="none" stroke="#191970" d="M559.0766,-16.5C567.7035,-16.5 576.4128,-16.5 584.9347,-16.5"/>
<polygon fill="#191970" stroke="#191970" points="559.0034,-13.0001 549.0034,-16.5 559.0034,-20.0001 559.0034,-13.0001"/>
</g>
<!-- Node10 -->
<g id="node10" class="node">
<title>Node10</title>
<g id="a_node10"><a xlink:href="../../d8/d26/classgenfit_1_1KalmanFitterRefTrack.html#affda7c9ad9495fd91828d1b43adcc904" target="_top" xlink:title="Fit the track.">
<polygon fill="none" stroke="#000000" points="781,-.5 781,-32.5 941,-32.5 941,-.5 781,-.5"/>
<text text-anchor="start" x="789" y="-19.5" font-family="FreeSans" font-size="10.00" fill="#000000">genfit::KalmanFitterRefTrack</text>
<text text-anchor="middle" x="861" y="-7.5" font-family="FreeSans" font-size="10.00" fill="#000000">::fitTrack</text>
</a>
</g>
</g>
<!-- Node9&#45;&gt;Node10 -->
<g id="edge9" class="edge">
<title>Node9&#45;&gt;Node10</title>
<path fill="none" stroke="#191970" d="M755.0766,-16.5C763.7035,-16.5 772.4128,-16.5 780.9347,-16.5"/>
<polygon fill="#191970" stroke="#191970" points="755.0034,-13.0001 745.0034,-16.5 755.0034,-20.0001 755.0034,-13.0001"/>
</g>
<!-- Node11 -->
<g id="node11" class="node">
<title>Node11</title>
<g id="a_node11"><a xlink:href="../../d8/d26/classgenfit_1_1KalmanFitterRefTrack.html#ad3a24181b5370cc95f01f49ea148c011" target="_top" xlink:title="genfit::KalmanFitterRefTrack\l::processTrackWithRep">
<polygon fill="none" stroke="#000000" points="977,-.5 977,-32.5 1137,-32.5 1137,-.5 977,-.5"/>
<text text-anchor="start" x="985" y="-19.5" font-family="FreeSans" font-size="10.00" fill="#000000">genfit::KalmanFitterRefTrack</text>
<text text-anchor="middle" x="1057" y="-7.5" font-family="FreeSans" font-size="10.00" fill="#000000">::processTrackWithRep</text>
</a>
</g>
</g>
<!-- Node10&#45;&gt;Node11 -->
<g id="edge10" class="edge">
<title>Node10&#45;&gt;Node11</title>
<path fill="none" stroke="#191970" d="M951.0766,-16.5C959.7035,-16.5 968.4128,-16.5 976.9347,-16.5"/>
<polygon fill="#191970" stroke="#191970" points="951.0034,-13.0001 941.0034,-16.5 951.0034,-20.0001 951.0034,-13.0001"/>
</g>
</g>
</svg>
