<?xml version="1.0" encoding="UTF-8" standalone="no"?>
<!DOCTYPE svg PUBLIC "-//W3C//DTD SVG 1.1//EN"
 "http://www.w3.org/Graphics/SVG/1.1/DTD/svg11.dtd">
<!-- Generated by graphviz version 2.40.1 (20161225.0304)
 -->
<!-- Title: SVReco::MakeGenFitTrack Pages: 1 -->
<svg width="1009pt" height="1575pt"
 viewBox="0.00 0.00 1009.00 1575.00" xmlns="http://www.w3.org/2000/svg" xmlns:xlink="http://www.w3.org/1999/xlink">
<g id="graph0" class="graph" transform="scale(1 1) rotate(0) translate(4 1571)">
<title>SVReco::MakeGenFitTrack</title>
<!-- Node1 -->
<g id="node1" class="node">
<title>Node1</title>
<polygon fill="#bfbfbf" stroke="#000000" points="0,-724.5 0,-744.5 147,-744.5 147,-724.5 0,-724.5"/>
<text text-anchor="middle" x="73.5" y="-731.5" font-family="FreeSans" font-size="10.00" fill="#000000">SVReco::MakeGenFitTrack</text>
</g>
<!-- Node2 -->
<g id="node2" class="node">
<title>Node2</title>
<g id="a_node2"><a xlink:href="../../d7/dd5/classPHGenFit_1_1Track.html#a3c6639bba6584ef0fd2581150947b85f" target="_top" xlink:title="PHGenFit::Track::addMeasurements">
<polygon fill="none" stroke="#000000" points="183,-1428.5 183,-1448.5 379,-1448.5 379,-1428.5 183,-1428.5"/>
<text text-anchor="middle" x="281" y="-1435.5" font-family="FreeSans" font-size="10.00" fill="#000000">PHGenFit::Track::addMeasurements</text>
</a>
</g>
</g>
<!-- Node1&#45;&gt;Node2 -->
<g id="edge1" class="edge">
<title>Node1&#45;&gt;Node2</title>
<path fill="none" stroke="#191970" d="M73.5912,-744.5194C74.5009,-821.3923 84.1831,-1317.3683 183,-1419.5 183.949,-1420.4808 184.9324,-1421.4193 185.9471,-1422.3171"/>
<polygon fill="#191970" stroke="#191970" points="184.1552,-1425.3432 194.2901,-1428.431 188.2929,-1419.6969 184.1552,-1425.3432"/>
</g>
<!-- Node10 -->
<g id="node10" class="node">
<title>Node10</title>
<g id="a_node10"><a xlink:href="../../d2/db8/classSvtxTrack.html#a6d8dace95bd6d93aa08d66c5e2c3ad85" target="_top" xlink:title="SvtxTrack::begin_cluster_keys">
<polygon fill="none" stroke="#000000" points="197,-1389.5 197,-1409.5 365,-1409.5 365,-1389.5 197,-1389.5"/>
<text text-anchor="middle" x="281" y="-1396.5" font-family="FreeSans" font-size="10.00" fill="#000000">SvtxTrack::begin_cluster_keys</text>
</a>
</g>
</g>
<!-- Node1&#45;&gt;Node10 -->
<g id="edge12" class="edge">
<title>Node1&#45;&gt;Node10</title>
<path fill="none" stroke="#191970" d="M73.7043,-744.8976C75.4062,-820.4498 89.6101,-1284.8803 183,-1380.5 184.6234,-1382.1622 186.3455,-1383.7023 188.1516,-1385.1287"/>
<polygon fill="#191970" stroke="#191970" points="186.2881,-1388.0924 196.5622,-1390.6796 190.1439,-1382.2501 186.2881,-1388.0924"/>
</g>
<!-- Node11 -->
<g id="node11" class="node">
<title>Node11</title>
<g id="a_node11"><a xlink:href="../../d2/db8/classSvtxTrack.html#ac0e8c2214fa9f988c00a561ed22aa085" target="_top" xlink:title="SvtxTrack::end_cluster_keys">
<polygon fill="none" stroke="#000000" points="202,-1350.5 202,-1370.5 360,-1370.5 360,-1350.5 202,-1350.5"/>
<text text-anchor="middle" x="281" y="-1357.5" font-family="FreeSans" font-size="10.00" fill="#000000">SvtxTrack::end_cluster_keys</text>
</a>
</g>
</g>
<!-- Node1&#45;&gt;Node11 -->
<g id="edge13" class="edge">
<title>Node1&#45;&gt;Node11</title>
<path fill="none" stroke="#191970" d="M73.821,-744.7343C76.3053,-817.1665 94.7995,-1252.1431 183,-1341.5 185.9295,-1344.4679 189.1741,-1347.0458 192.6487,-1349.2807"/>
<polygon fill="#191970" stroke="#191970" points="191.2462,-1352.5005 201.7109,-1354.1564 194.5629,-1346.336 191.2462,-1352.5005"/>
</g>
<!-- Node12 -->
<g id="node12" class="node">
<title>Node12</title>
<g id="a_node12"><a xlink:href="../../d9/dcb/classCylinderGeomIntt.html#ab38e7cede1a91d97d6d5bb175791f965" target="_top" xlink:title="CylinderGeomIntt::find\l_segment_center">
<polygon fill="none" stroke="#000000" points="215.5,-1299.5 215.5,-1331.5 346.5,-1331.5 346.5,-1299.5 215.5,-1299.5"/>
<text text-anchor="start" x="223.5" y="-1318.5" font-family="FreeSans" font-size="10.00" fill="#000000">CylinderGeomIntt::find</text>
<text text-anchor="middle" x="281" y="-1306.5" font-family="FreeSans" font-size="10.00" fill="#000000">_segment_center</text>
</a>
</g>
</g>
<!-- Node1&#45;&gt;Node12 -->
<g id="edge14" class="edge">
<title>Node1&#45;&gt;Node12</title>
<path fill="none" stroke="#191970" d="M74.0595,-744.6964C78.0257,-813.2733 104.0584,-1207.0659 183,-1290.5 189.3808,-1297.244 197.3065,-1302.2686 205.8667,-1305.9964"/>
<polygon fill="#191970" stroke="#191970" points="204.769,-1309.3227 215.3613,-1309.5525 207.2243,-1302.7674 204.769,-1309.3227"/>
</g>
<!-- Node13 -->
<g id="node13" class="node">
<title>Node13</title>
<g id="a_node13"><a xlink:href="../../df/d9b/classCylinderGeom__Mvtx.html#ac3180ef9061113ec41e851ff5f97f3f1" target="_top" xlink:title="CylinderGeom_Mvtx::\lfind_sensor_center">
<polygon fill="none" stroke="#000000" points="219,-1248.5 219,-1280.5 343,-1280.5 343,-1248.5 219,-1248.5"/>
<text text-anchor="start" x="227" y="-1267.5" font-family="FreeSans" font-size="10.00" fill="#000000">CylinderGeom_Mvtx::</text>
<text text-anchor="middle" x="281" y="-1255.5" font-family="FreeSans" font-size="10.00" fill="#000000">find_sensor_center</text>
</a>
</g>
</g>
<!-- Node1&#45;&gt;Node13 -->
<g id="edge15" class="edge">
<title>Node1&#45;&gt;Node13</title>
<path fill="none" stroke="#191970" d="M74.2686,-744.5874C79.3895,-809.1774 110.6051,-1164.4322 183,-1239.5 190.2509,-1247.0187 199.4239,-1252.393 209.234,-1256.2135"/>
<polygon fill="#191970" stroke="#191970" points="208.1989,-1259.5579 218.7929,-1259.4197 210.425,-1252.9213 208.1989,-1259.5579"/>
</g>
<!-- Node15 -->
<g id="node15" class="node">
<title>Node15</title>
<g id="a_node15"><a xlink:href="../../d0/d2c/classTrkrClusterContainer.html#a2b2eea90672ac17f6439c932d2a144ad" target="_top" xlink:title="TrkrClusterContainer\l::findCluster">
<polygon fill="none" stroke="#000000" points="220,-1197.5 220,-1229.5 342,-1229.5 342,-1197.5 220,-1197.5"/>
<text text-anchor="start" x="228" y="-1216.5" font-family="FreeSans" font-size="10.00" fill="#000000">TrkrClusterContainer</text>
<text text-anchor="middle" x="281" y="-1204.5" font-family="FreeSans" font-size="10.00" fill="#000000">::findCluster</text>
</a>
</g>
</g>
<!-- Node1&#45;&gt;Node15 -->
<g id="edge17" class="edge">
<title>Node1&#45;&gt;Node15</title>
<path fill="none" stroke="#191970" d="M74.5468,-744.7365C80.9942,-805.8244 117.2169,-1121.8491 183,-1188.5 190.602,-1196.2023 200.2238,-1201.6449 210.4524,-1205.4695"/>
<polygon fill="#191970" stroke="#191970" points="209.3842,-1208.8024 219.9759,-1208.5454 211.5357,-1202.1413 209.3842,-1208.8024"/>
</g>
<!-- Node16 -->
<g id="node16" class="node">
<title>Node16</title>
<g id="a_node16"><a xlink:href="../../d2/d6d/classSvtxVertex.html#a100758a84d82009a10de89721db160c6" target="_top" xlink:title="SvtxVertex::get_error">
<polygon fill="none" stroke="#000000" points="219,-1158.5 219,-1178.5 343,-1178.5 343,-1158.5 219,-1158.5"/>
<text text-anchor="middle" x="281" y="-1165.5" font-family="FreeSans" font-size="10.00" fill="#000000">SvtxVertex::get_error</text>
</a>
</g>
</g>
<!-- Node1&#45;&gt;Node16 -->
<g id="edge18" class="edge">
<title>Node1&#45;&gt;Node16</title>
<path fill="none" stroke="#191970" d="M74.7227,-744.6609C81.9025,-802.624 120.4268,-1090.9539 183,-1149.5 190.3558,-1156.3824 199.4234,-1161.119 209.0463,-1164.3293"/>
<polygon fill="#191970" stroke="#191970" points="208.2387,-1167.7376 218.8114,-1167.0539 210.12,-1160.9951 208.2387,-1167.7376"/>
</g>
<!-- Node17 -->
<g id="node17" class="node">
<title>Node17</title>
<g id="a_node17"><a xlink:href="../../d2/db8/classSvtxTrack.html#a8cc6a505cb329bcc0d3203877148b39f" target="_top" xlink:title="SvtxTrack::get_error">
<polygon fill="none" stroke="#000000" points="222,-1119.5 222,-1139.5 340,-1139.5 340,-1119.5 222,-1119.5"/>
<text text-anchor="middle" x="281" y="-1126.5" font-family="FreeSans" font-size="10.00" fill="#000000">SvtxTrack::get_error</text>
</a>
</g>
</g>
<!-- Node1&#45;&gt;Node17 -->
<g id="edge19" class="edge">
<title>Node1&#45;&gt;Node17</title>
<path fill="none" stroke="#191970" d="M75.0324,-744.7722C83.4317,-799.6962 125.6087,-1058.1538 183,-1110.5 191.1369,-1117.9216 201.2727,-1122.8294 211.9137,-1126.0141"/>
<polygon fill="#191970" stroke="#191970" points="211.2353,-1129.4521 221.7852,-1128.4771 212.93,-1122.6603 211.2353,-1129.4521"/>
</g>
<!-- Node18 -->
<g id="node18" class="node">
<title>Node18</title>
<g id="a_node18"><a xlink:href="../../d2/db8/classSvtxTrack.html#a5f934a41fd25eaa343dd267112b4537d" target="_top" xlink:title="SvtxTrack::get_id">
<polygon fill="none" stroke="#000000" points="230,-1080.5 230,-1100.5 332,-1100.5 332,-1080.5 230,-1080.5"/>
<text text-anchor="middle" x="281" y="-1087.5" font-family="FreeSans" font-size="10.00" fill="#000000">SvtxTrack::get_id</text>
</a>
</g>
</g>
<!-- Node1&#45;&gt;Node18 -->
<g id="edge20" class="edge">
<title>Node1&#45;&gt;Node18</title>
<path fill="none" stroke="#191970" d="M75.3835,-744.7134C85.0529,-796.0477 130.6944,-1025.2468 183,-1071.5 193.1904,-1080.5113 206.3449,-1085.7829 219.6877,-1088.7608"/>
<polygon fill="#191970" stroke="#191970" points="219.4168,-1092.2689 229.8818,-1090.615 220.6695,-1085.3819 219.4168,-1092.2689"/>
</g>
<!-- Node19 -->
<g id="node19" class="node">
<title>Node19</title>
<g id="a_node19"><a xlink:href="../../d2/db8/classSvtxTrack.html#a79f3af39b753ecee85dc1d4e3db08cdd" target="_top" xlink:title="SvtxTrack::get_px">
<polygon fill="none" stroke="#000000" points="228,-1041.5 228,-1061.5 334,-1061.5 334,-1041.5 228,-1041.5"/>
<text text-anchor="middle" x="281" y="-1048.5" font-family="FreeSans" font-size="10.00" fill="#000000">SvtxTrack::get_px</text>
</a>
</g>
</g>
<!-- Node1&#45;&gt;Node19 -->
<g id="edge21" class="edge">
<title>Node1&#45;&gt;Node19</title>
<path fill="none" stroke="#191970" d="M73.8502,-744.6767C75.9019,-787.335 89.8138,-953.1974 183,-1032.5 192.7895,-1040.831 205.1329,-1045.9294 217.7286,-1048.969"/>
<polygon fill="#191970" stroke="#191970" points="217.3485,-1052.4621 227.8403,-1050.9878 218.7191,-1045.5976 217.3485,-1052.4621"/>
</g>
<!-- Node20 -->
<g id="node20" class="node">
<title>Node20</title>
<g id="a_node20"><a xlink:href="../../d2/db8/classSvtxTrack.html#a5a9164fc95756dd9780755a55327fec5" target="_top" xlink:title="SvtxTrack::get_py">
<polygon fill="none" stroke="#000000" points="228,-1002.5 228,-1022.5 334,-1022.5 334,-1002.5 228,-1002.5"/>
<text text-anchor="middle" x="281" y="-1009.5" font-family="FreeSans" font-size="10.00" fill="#000000">SvtxTrack::get_py</text>
</a>
</g>
</g>
<!-- Node1&#45;&gt;Node20 -->
<g id="edge22" class="edge">
<title>Node1&#45;&gt;Node20</title>
<path fill="none" stroke="#191970" d="M74.4664,-744.6788C78.7609,-783.8492 99.7553,-926.0241 183,-993.5 192.9329,-1001.5513 205.28,-1006.54 217.8248,-1009.5626"/>
<polygon fill="#191970" stroke="#191970" points="217.3917,-1013.0455 227.8855,-1011.5862 218.772,-1006.183 217.3917,-1013.0455"/>
</g>
<!-- Node21 -->
<g id="node21" class="node">
<title>Node21</title>
<g id="a_node21"><a xlink:href="../../d2/db8/classSvtxTrack.html#a826b1ab6d05d45e5148c4645befe4def" target="_top" xlink:title="SvtxTrack::get_pz">
<polygon fill="none" stroke="#000000" points="228.5,-963.5 228.5,-983.5 333.5,-983.5 333.5,-963.5 228.5,-963.5"/>
<text text-anchor="middle" x="281" y="-970.5" font-family="FreeSans" font-size="10.00" fill="#000000">SvtxTrack::get_pz</text>
</a>
</g>
</g>
<!-- Node1&#45;&gt;Node21 -->
<g id="edge23" class="edge">
<title>Node1&#45;&gt;Node21</title>
<path fill="none" stroke="#191970" d="M75.3123,-744.8488C82.1238,-780.4453 109.6507,-898.7123 183,-954.5 193.177,-962.2404 205.6275,-967.0974 218.1959,-970.09"/>
<polygon fill="#191970" stroke="#191970" points="217.7663,-973.5735 228.2596,-972.1099 219.1439,-966.7104 217.7663,-973.5735"/>
</g>
<!-- Node22 -->
<g id="node22" class="node">
<title>Node22</title>
<g id="a_node22"><a xlink:href="../../df/d9b/classCylinderGeom__Mvtx.html#aa1c7c0b68aa74bd674206214ffabfe6d" target="_top" xlink:title="CylinderGeom_Mvtx::\lget_stave_phi_tilt">
<polygon fill="none" stroke="#000000" points="219,-912.5 219,-944.5 343,-944.5 343,-912.5 219,-912.5"/>
<text text-anchor="start" x="227" y="-931.5" font-family="FreeSans" font-size="10.00" fill="#000000">CylinderGeom_Mvtx::</text>
<text text-anchor="middle" x="281" y="-919.5" font-family="FreeSans" font-size="10.00" fill="#000000">get_stave_phi_tilt</text>
</a>
</g>
</g>
<!-- Node1&#45;&gt;Node22 -->
<g id="edge24" class="edge">
<title>Node1&#45;&gt;Node22</title>
<path fill="none" stroke="#191970" d="M77.0598,-744.7605C87.8858,-774.3869 123.368,-860.6732 183,-903.5 190.8329,-909.1254 199.8154,-913.4878 209.0939,-916.8701"/>
<polygon fill="#191970" stroke="#191970" points="208.2418,-920.2737 218.8344,-920.0519 210.4155,-913.6197 208.2418,-920.2737"/>
</g>
<!-- Node23 -->
<g id="node23" class="node">
<title>Node23</title>
<g id="a_node23"><a xlink:href="../../d9/dcb/classCylinderGeomIntt.html#a191bf1e8abfe131f80eb7da8b1639c8b" target="_top" xlink:title="CylinderGeomIntt::get\l_strip_phi_tilt">
<polygon fill="none" stroke="#000000" points="216.5,-861.5 216.5,-893.5 345.5,-893.5 345.5,-861.5 216.5,-861.5"/>
<text text-anchor="start" x="224.5" y="-880.5" font-family="FreeSans" font-size="10.00" fill="#000000">CylinderGeomIntt::get</text>
<text text-anchor="middle" x="281" y="-868.5" font-family="FreeSans" font-size="10.00" fill="#000000">_strip_phi_tilt</text>
</a>
</g>
</g>
<!-- Node1&#45;&gt;Node23 -->
<g id="edge25" class="edge">
<title>Node1&#45;&gt;Node23</title>
<path fill="none" stroke="#191970" d="M79.8043,-744.5252C94.7471,-767.424 134.7105,-823.7989 183,-852.5 190.3229,-856.8524 198.39,-860.4531 206.6561,-863.4305"/>
<polygon fill="#191970" stroke="#191970" points="205.8256,-866.8419 216.4187,-866.6472 208.0163,-860.1935 205.8256,-866.8419"/>
</g>
<!-- Node24 -->
<g id="node24" class="node">
<title>Node24</title>
<g id="a_node24"><a xlink:href="../../d2/d6d/classSvtxVertex.html#a233c6da9e4f023ee15b8d1298cde9ac3" target="_top" xlink:title="SvtxVertex::get_x">
<polygon fill="none" stroke="#000000" points="228.5,-822.5 228.5,-842.5 333.5,-842.5 333.5,-822.5 228.5,-822.5"/>
<text text-anchor="middle" x="281" y="-829.5" font-family="FreeSans" font-size="10.00" fill="#000000">SvtxVertex::get_x</text>
</a>
</g>
</g>
<!-- Node1&#45;&gt;Node24 -->
<g id="edge26" class="edge">
<title>Node1&#45;&gt;Node24</title>
<path fill="none" stroke="#191970" d="M84.0117,-744.5574C102.4577,-761.6002 142.5516,-796.0043 183,-813.5 194.06,-818.2839 206.3415,-821.8708 218.3651,-824.5579"/>
<polygon fill="#191970" stroke="#191970" points="217.8725,-828.0297 228.3718,-826.6101 219.2788,-821.1724 217.8725,-828.0297"/>
</g>
<!-- Node25 -->
<g id="node25" class="node">
<title>Node25</title>
<g id="a_node25"><a xlink:href="../../d2/db8/classSvtxTrack.html#af2317becf2120fcad5cefaa61a01407e" target="_top" xlink:title="SvtxTrack::get_x">
<polygon fill="none" stroke="#000000" points="231.5,-783.5 231.5,-803.5 330.5,-803.5 330.5,-783.5 231.5,-783.5"/>
<text text-anchor="middle" x="281" y="-790.5" font-family="FreeSans" font-size="10.00" fill="#000000">SvtxTrack::get_x</text>
</a>
</g>
</g>
<!-- Node1&#45;&gt;Node25 -->
<g id="edge27" class="edge">
<title>Node1&#45;&gt;Node25</title>
<path fill="none" stroke="#191970" d="M97.4949,-744.5182C119.4428,-753.3792 152.9682,-766.1603 183,-774.5 195.2541,-777.9029 208.5354,-780.9161 221.2482,-783.4834"/>
<polygon fill="#191970" stroke="#191970" points="220.8056,-786.9631 231.2912,-785.4457 222.148,-780.093 220.8056,-786.9631"/>
</g>
<!-- Node26 -->
<g id="node26" class="node">
<title>Node26</title>
<g id="a_node26"><a xlink:href="../../d2/d6d/classSvtxVertex.html#a2b5eda5e1b6f143c4963c63b249a432c" target="_top" xlink:title="SvtxVertex::get_y">
<polygon fill="none" stroke="#000000" points="228.5,-744.5 228.5,-764.5 333.5,-764.5 333.5,-744.5 228.5,-744.5"/>
<text text-anchor="middle" x="281" y="-751.5" font-family="FreeSans" font-size="10.00" fill="#000000">SvtxVertex::get_y</text>
</a>
</g>
</g>
<!-- Node1&#45;&gt;Node26 -->
<g id="edge28" class="edge">
<title>Node1&#45;&gt;Node26</title>
<path fill="none" stroke="#191970" d="M147.241,-741.6076C170.4747,-743.847 195.9053,-746.2981 218.2953,-748.4562"/>
<polygon fill="#191970" stroke="#191970" points="218.0601,-751.9496 228.3498,-749.4253 218.7317,-744.9819 218.0601,-751.9496"/>
</g>
<!-- Node27 -->
<g id="node27" class="node">
<title>Node27</title>
<g id="a_node27"><a xlink:href="../../d2/db8/classSvtxTrack.html#ac4bf3bd4ecaeff1ca06c48942a8b9236" target="_top" xlink:title="SvtxTrack::get_y">
<polygon fill="none" stroke="#000000" points="231.5,-705.5 231.5,-725.5 330.5,-725.5 330.5,-705.5 231.5,-705.5"/>
<text text-anchor="middle" x="281" y="-712.5" font-family="FreeSans" font-size="10.00" fill="#000000">SvtxTrack::get_y</text>
</a>
</g>
</g>
<!-- Node1&#45;&gt;Node27 -->
<g id="edge29" class="edge">
<title>Node1&#45;&gt;Node27</title>
<path fill="none" stroke="#191970" d="M147.241,-727.7478C171.4926,-725.5272 198.1378,-723.0874 221.2201,-720.9738"/>
<polygon fill="#191970" stroke="#191970" points="221.5749,-724.4561 231.214,-720.0587 220.9365,-717.4852 221.5749,-724.4561"/>
</g>
<!-- Node28 -->
<g id="node28" class="node">
<title>Node28</title>
<g id="a_node28"><a xlink:href="../../d2/d6d/classSvtxVertex.html#acd46c82a2b067db8482f53280197239f" target="_top" xlink:title="SvtxVertex::get_z">
<polygon fill="none" stroke="#000000" points="229,-666.5 229,-686.5 333,-686.5 333,-666.5 229,-666.5"/>
<text text-anchor="middle" x="281" y="-673.5" font-family="FreeSans" font-size="10.00" fill="#000000">SvtxVertex::get_z</text>
</a>
</g>
</g>
<!-- Node1&#45;&gt;Node28 -->
<g id="edge30" class="edge">
<title>Node1&#45;&gt;Node28</title>
<path fill="none" stroke="#191970" d="M99.3017,-724.4563C121.3002,-716.1574 153.891,-704.4833 183,-696.5 194.513,-693.3425 206.9102,-690.4385 218.8863,-687.8796"/>
<polygon fill="#191970" stroke="#191970" points="219.7411,-691.2767 228.8186,-685.8132 218.3153,-684.4235 219.7411,-691.2767"/>
</g>
<!-- Node29 -->
<g id="node29" class="node">
<title>Node29</title>
<g id="a_node29"><a xlink:href="../../d2/db8/classSvtxTrack.html#aaaa435dd9d41dbe836f0608712ca12db" target="_top" xlink:title="SvtxTrack::get_z">
<polygon fill="none" stroke="#000000" points="232,-627.5 232,-647.5 330,-647.5 330,-627.5 232,-627.5"/>
<text text-anchor="middle" x="281" y="-634.5" font-family="FreeSans" font-size="10.00" fill="#000000">SvtxTrack::get_z</text>
</a>
</g>
</g>
<!-- Node1&#45;&gt;Node29 -->
<g id="edge31" class="edge">
<title>Node1&#45;&gt;Node29</title>
<path fill="none" stroke="#191970" d="M84.379,-724.4841C103.06,-707.8618 143.0927,-674.7072 183,-657.5 195.1983,-652.2404 208.8574,-648.3382 222.015,-645.4519"/>
<polygon fill="#191970" stroke="#191970" points="222.842,-648.8555 231.9465,-643.4371 221.4502,-641.9953 222.842,-648.8555"/>
</g>
<!-- Node30 -->
<g id="node30" class="node">
<title>Node30</title>
<g id="a_node30"><a xlink:href="../../d8/df1/namespaceMvtxDefs.html#abfd7b6c5fe579370c360924854579283" target="_top" xlink:title="Get the chip id from hitsetkey.">
<polygon fill="none" stroke="#000000" points="222,-588.5 222,-608.5 340,-608.5 340,-588.5 222,-588.5"/>
<text text-anchor="middle" x="281" y="-595.5" font-family="FreeSans" font-size="10.00" fill="#000000">MvtxDefs::getChipId</text>
</a>
</g>
</g>
<!-- Node1&#45;&gt;Node30 -->
<g id="edge32" class="edge">
<title>Node1&#45;&gt;Node30</title>
<path fill="none" stroke="#191970" d="M79.7554,-724.4857C94.5955,-701.6405 134.3577,-645.566 183,-618.5 191.9691,-613.5093 202.021,-609.757 212.1775,-606.9373"/>
<polygon fill="#191970" stroke="#191970" points="213.059,-610.3248 221.9154,-604.5097 211.3657,-603.5327 213.059,-610.3248"/>
</g>
<!-- Node31 -->
<g id="node31" class="node">
<title>Node31</title>
<g id="a_node31"><a xlink:href="../../d7/dd5/classPHGenFit_1_1Track.html#a8cc267bf5a0014b5ba7e057a3b45ba3e" target="_top" xlink:title="PHGenFit::Track::getGenFit\lTrack">
<polygon fill="none" stroke="#000000" points="415,-426.5 415,-458.5 567,-458.5 567,-426.5 415,-426.5"/>
<text text-anchor="start" x="423" y="-445.5" font-family="FreeSans" font-size="10.00" fill="#000000">PHGenFit::Track::getGenFit</text>
<text text-anchor="middle" x="491" y="-433.5" font-family="FreeSans" font-size="10.00" fill="#000000">Track</text>
</a>
</g>
</g>
<!-- Node1&#45;&gt;Node31 -->
<g id="edge33" class="edge">
<title>Node1&#45;&gt;Node31</title>
<path fill="none" stroke="#191970" d="M77.544,-724.1331C89.1617,-695.8236 125.5301,-616.8316 183,-579.5 257.4837,-531.1165 299.3201,-579.7416 379,-540.5 415.9066,-522.3239 450.231,-488.846 470.9078,-466.1327"/>
<polygon fill="#191970" stroke="#191970" points="473.5904,-468.3832 477.6341,-458.5904 468.3661,-463.7241 473.5904,-468.3832"/>
</g>
<!-- Node32 -->
<g id="node32" class="node">
<title>Node32</title>
<g id="a_node32"><a xlink:href="../../d6/d9e/namespaceInttDefs.html#a28461d6132ff9373b4529e5c0d20c962" target="_top" xlink:title="Get the sensor id from hitsetkey.">
<polygon fill="none" stroke="#000000" points="211.5,-510.5 211.5,-530.5 350.5,-530.5 350.5,-510.5 211.5,-510.5"/>
<text text-anchor="middle" x="281" y="-517.5" font-family="FreeSans" font-size="10.00" fill="#000000">InttDefs::getLadderPhiId</text>
</a>
</g>
</g>
<!-- Node1&#45;&gt;Node32 -->
<g id="edge34" class="edge">
<title>Node1&#45;&gt;Node32</title>
<path fill="none" stroke="#191970" d="M76.2783,-724.4194C85.557,-692.7127 118.587,-594.2369 183,-545.5 188.9204,-541.0205 195.5584,-537.3387 202.5154,-534.3133"/>
<polygon fill="#191970" stroke="#191970" points="204.099,-537.4536 212.1627,-530.5814 201.5735,-530.925 204.099,-537.4536"/>
</g>
<!-- Node33 -->
<g id="node33" class="node">
<title>Node33</title>
<g id="a_node33"><a xlink:href="../../d6/d9e/namespaceInttDefs.html#aeb0f2c2a834c11791925bdffc211526d" target="_top" xlink:title="Get the ladder id from hitsetkey.">
<polygon fill="none" stroke="#000000" points="216,-471.5 216,-491.5 346,-491.5 346,-471.5 216,-471.5"/>
<text text-anchor="middle" x="281" y="-478.5" font-family="FreeSans" font-size="10.00" fill="#000000">InttDefs::getLadderZId</text>
</a>
</g>
</g>
<!-- Node1&#45;&gt;Node33 -->
<g id="edge35" class="edge">
<title>Node1&#45;&gt;Node33</title>
<path fill="none" stroke="#191970" d="M75,-724.353C80.9747,-687.7626 106.5849,-561.5929 183,-501.5 189.8925,-496.0797 197.8788,-492.0196 206.2593,-488.994"/>
<polygon fill="#191970" stroke="#191970" points="207.3484,-492.3207 215.8514,-486.0001 205.2627,-485.6386 207.3484,-492.3207"/>
</g>
<!-- Node34 -->
<g id="node34" class="node">
<title>Node34</title>
<g id="a_node34"><a xlink:href="../../d6/d3f/namespaceTrkrDefs.html#ad4a7fd368bbf1d5d97ff4fd3e81a6100" target="_top" xlink:title="Get the layer number from either key type.">
<polygon fill="none" stroke="#000000" points="225.5,-432.5 225.5,-452.5 336.5,-452.5 336.5,-432.5 225.5,-432.5"/>
<text text-anchor="middle" x="281" y="-439.5" font-family="FreeSans" font-size="10.00" fill="#000000">TrkrDefs::getLayer</text>
</a>
</g>
</g>
<!-- Node1&#45;&gt;Node34 -->
<g id="edge36" class="edge">
<title>Node1&#45;&gt;Node34</title>
<path fill="none" stroke="#191970" d="M74.2583,-724.4043C77.8474,-684.2214 96.7673,-534.3543 183,-462.5 192.2757,-454.7709 203.7422,-449.765 215.5251,-446.5731"/>
<polygon fill="#191970" stroke="#191970" points="216.4898,-449.9429 225.4561,-444.2987 214.9271,-443.1195 216.4898,-449.9429"/>
</g>
<!-- Node35 -->
<g id="node35" class="node">
<title>Node35</title>
<g id="a_node35"><a xlink:href="../../d4/de7/classPHG4CylinderGeomContainer.html#a08321019aaff5f57cd416b64d0f536bf" target="_top" xlink:title="PHG4CylinderGeomContainer\l::GetLayerGeom">
<polygon fill="none" stroke="#000000" points="198,-381.5 198,-413.5 364,-413.5 364,-381.5 198,-381.5"/>
<text text-anchor="start" x="206" y="-400.5" font-family="FreeSans" font-size="10.00" fill="#000000">PHG4CylinderGeomContainer</text>
<text text-anchor="middle" x="281" y="-388.5" font-family="FreeSans" font-size="10.00" fill="#000000">::GetLayerGeom</text>
</a>
</g>
</g>
<!-- Node1&#45;&gt;Node35 -->
<g id="edge37" class="edge">
<title>Node1&#45;&gt;Node35</title>
<path fill="none" stroke="#191970" d="M73.8284,-724.3567C75.7981,-681.0497 89.4455,-509.9233 183,-423.5 184.9233,-421.7233 186.954,-420.0653 189.0731,-418.5181"/>
<polygon fill="#191970" stroke="#191970" points="191.0729,-421.3945 197.6447,-413.084 187.3248,-415.4824 191.0729,-421.3945"/>
</g>
<!-- Node36 -->
<g id="node36" class="node">
<title>Node36</title>
<g id="a_node36"><a xlink:href="../../d6/dfa/classTrkrCluster.html#a43356b61478edcfaba377cdcd6c658eb" target="_top" xlink:title="TrkrCluster::getPhiError">
<polygon fill="none" stroke="#000000" points="213.5,-342.5 213.5,-362.5 348.5,-362.5 348.5,-342.5 213.5,-342.5"/>
<text text-anchor="middle" x="281" y="-349.5" font-family="FreeSans" font-size="10.00" fill="#000000">TrkrCluster::getPhiError</text>
</a>
</g>
</g>
<!-- Node1&#45;&gt;Node36 -->
<g id="edge38" class="edge">
<title>Node1&#45;&gt;Node36</title>
<path fill="none" stroke="#191970" d="M75.158,-724.2654C84.0427,-670.6739 127.6833,-422.9268 183,-372.5 189.067,-366.9693 196.2354,-362.7993 203.8916,-359.6761"/>
<polygon fill="#191970" stroke="#191970" points="205.132,-362.9504 213.4311,-356.3644 202.8363,-356.3376 205.132,-362.9504"/>
</g>
<!-- Node37 -->
<g id="node37" class="node">
<title>Node37</title>
<g id="a_node37"><a xlink:href="../../d6/dfa/classTrkrCluster.html#a081b3050a772ea32f6bf3b09d0407e4f" target="_top" xlink:title="TrkrCluster::getPosition">
<polygon fill="none" stroke="#000000" points="214,-303.5 214,-323.5 348,-323.5 348,-303.5 214,-303.5"/>
<text text-anchor="middle" x="281" y="-310.5" font-family="FreeSans" font-size="10.00" fill="#000000">TrkrCluster::getPosition</text>
</a>
</g>
</g>
<!-- Node1&#45;&gt;Node37 -->
<g id="edge39" class="edge">
<title>Node1&#45;&gt;Node37</title>
<path fill="none" stroke="#191970" d="M74.8343,-724.3188C82.4845,-667.4985 122.5644,-390.1154 183,-333.5 189.0814,-327.803 196.3264,-323.5391 204.0852,-320.3712"/>
<polygon fill="#191970" stroke="#191970" points="205.4517,-323.6021 213.7602,-317.0279 203.1655,-316.986 205.4517,-323.6021"/>
</g>
<!-- Node38 -->
<g id="node38" class="node">
<title>Node38</title>
<g id="a_node38"><a xlink:href="../../d8/df1/namespaceMvtxDefs.html#a0d6fee920baed2f17bed6f7990bb88c3" target="_top" xlink:title="Get the stave id from hitsetkey.">
<polygon fill="none" stroke="#000000" points="219,-264.5 219,-284.5 343,-284.5 343,-264.5 219,-264.5"/>
<text text-anchor="middle" x="281" y="-271.5" font-family="FreeSans" font-size="10.00" fill="#000000">MvtxDefs::getStaveId</text>
</a>
</g>
</g>
<!-- Node1&#45;&gt;Node38 -->
<g id="edge40" class="edge">
<title>Node1&#45;&gt;Node38</title>
<path fill="none" stroke="#191970" d="M74.5932,-724.1411C81.1786,-663.7145 117.4973,-357.2706 183,-294.5 190.3343,-287.4716 199.4341,-282.611 209.1095,-279.2945"/>
<polygon fill="#191970" stroke="#191970" points="210.2896,-282.5971 218.9328,-276.4696 208.3549,-275.8697 210.2896,-282.5971"/>
</g>
<!-- Node39 -->
<g id="node39" class="node">
<title>Node39</title>
<g id="a_node39"><a xlink:href="../../d6/d3f/namespaceTrkrDefs.html#a542bf66cb1037404f08212eeefdfde70" target="_top" xlink:title="Get the tracker ID from either key type.">
<polygon fill="none" stroke="#000000" points="226,-225.5 226,-245.5 336,-245.5 336,-225.5 226,-225.5"/>
<text text-anchor="middle" x="281" y="-232.5" font-family="FreeSans" font-size="10.00" fill="#000000">TrkrDefs::getTrkrId</text>
</a>
</g>
</g>
<!-- Node1&#45;&gt;Node39 -->
<g id="edge41" class="edge">
<title>Node1&#45;&gt;Node39</title>
<path fill="none" stroke="#191970" d="M74.3403,-724.4827C79.7966,-661.8625 112.2145,-324.6466 183,-255.5 192.0173,-246.6915 203.8008,-241.2704 216.0567,-238.0239"/>
<polygon fill="#191970" stroke="#191970" points="216.921,-241.4177 225.9432,-235.8633 215.4264,-234.5791 216.921,-241.4177"/>
</g>
<!-- Node40 -->
<g id="node40" class="node">
<title>Node40</title>
<g id="a_node40"><a xlink:href="../../d6/dfa/classTrkrCluster.html#a73c9bdc559b2906e6cfc942d1bf355ed" target="_top" xlink:title="TrkrCluster::getZError">
<polygon fill="none" stroke="#000000" points="217.5,-186.5 217.5,-206.5 344.5,-206.5 344.5,-186.5 217.5,-186.5"/>
<text text-anchor="middle" x="281" y="-193.5" font-family="FreeSans" font-size="10.00" fill="#000000">TrkrCluster::getZError</text>
</a>
</g>
</g>
<!-- Node1&#45;&gt;Node40 -->
<g id="edge42" class="edge">
<title>Node1&#45;&gt;Node40</title>
<path fill="none" stroke="#191970" d="M74.182,-724.1097C78.7604,-657.5867 107.1782,-291.7924 183,-216.5 189.9044,-209.6438 198.4816,-204.8308 207.6684,-201.4951"/>
<polygon fill="#191970" stroke="#191970" points="208.8693,-204.7883 217.4182,-198.53 206.8325,-198.0911 208.8693,-204.7883"/>
</g>
<!-- Node41 -->
<g id="node41" class="node">
<title>Node41</title>
<g id="a_node41"><a xlink:href="../../d1/d35/classPHGenFit_1_1Fitter.html#a0ae094389cc773308a3cf9ca98d60bdb" target="_top" xlink:title="PHGenFit::Fitter::process\lTrack">
<polygon fill="none" stroke="#000000" points="211,-135.5 211,-167.5 351,-167.5 351,-135.5 211,-135.5"/>
<text text-anchor="start" x="219" y="-154.5" font-family="FreeSans" font-size="10.00" fill="#000000">PHGenFit::Fitter::process</text>
<text text-anchor="middle" x="281" y="-142.5" font-family="FreeSans" font-size="10.00" fill="#000000">Track</text>
</a>
</g>
</g>
<!-- Node1&#45;&gt;Node41 -->
<g id="edge43" class="edge">
<title>Node1&#45;&gt;Node41</title>
<path fill="none" stroke="#191970" d="M74.0659,-724.2942C78.0746,-655.6527 104.3363,-261.4689 183,-177.5 188.2124,-171.9361 194.4663,-167.5106 201.2601,-163.9976"/>
<polygon fill="#191970" stroke="#191970" points="203.0957,-167.0119 210.8118,-159.7516 200.2522,-160.6154 203.0957,-167.0119"/>
</g>
<!-- Node49 -->
<g id="node49" class="node">
<title>Node49</title>
<g id="a_node49"><a xlink:href="../../d6/d8a/classgenfit_1_1Track.html#aa7c2b4ec6f779325c87f4ffe8d5e52a0" target="_top" xlink:title="Set the MCT track id, for MC simulations.">
<polygon fill="none" stroke="#000000" points="206,-96.5 206,-116.5 356,-116.5 356,-96.5 206,-96.5"/>
<text text-anchor="middle" x="281" y="-103.5" font-family="FreeSans" font-size="10.00" fill="#000000">genfit::Track::setMcTrackId</text>
</a>
</g>
</g>
<!-- Node1&#45;&gt;Node49 -->
<g id="edge55" class="edge">
<title>Node1&#45;&gt;Node49</title>
<path fill="none" stroke="#191970" d="M73.8156,-724.2324C76.2624,-651.5639 94.5438,-215.1675 183,-125.5 186.9556,-121.4902 191.4863,-118.1924 196.3824,-115.4902"/>
<polygon fill="#191970" stroke="#191970" points="197.9428,-118.6247 205.5445,-111.2448 194.9998,-112.2735 197.9428,-118.6247"/>
</g>
<!-- Node50 -->
<g id="node50" class="node">
<title>Node50</title>
<g id="a_node50"><a xlink:href="../../d2/d6d/classSvtxVertex.html#a030ba465f57960fb04b4752ed3a3edf8" target="_top" xlink:title="SvtxVertex::size_tracks">
<polygon fill="none" stroke="#000000" points="214.5,-57.5 214.5,-77.5 347.5,-77.5 347.5,-57.5 214.5,-57.5"/>
<text text-anchor="middle" x="281" y="-64.5" font-family="FreeSans" font-size="10.00" fill="#000000">SvtxVertex::size_tracks</text>
</a>
</g>
</g>
<!-- Node1&#45;&gt;Node50 -->
<g id="edge56" class="edge">
<title>Node1&#45;&gt;Node50</title>
<path fill="none" stroke="#191970" d="M73.6992,-724.0706C75.3641,-648.2867 89.3534,-182.4313 183,-86.5 189.0909,-80.2605 196.5729,-75.7397 204.664,-72.503"/>
<polygon fill="#191970" stroke="#191970" points="206.0105,-75.7438 214.3952,-69.2672 203.8017,-69.1014 206.0105,-75.7438"/>
</g>
<!-- Node3 -->
<g id="node3" class="node">
<title>Node3</title>
<g id="a_node3"><a xlink:href="../../d6/d8a/classgenfit_1_1Track.html#a7e61ada0d84db561ede923db92c4ab01" target="_top" xlink:title="Insert TrackPoint BEFORE TrackPoint with position id, if id &gt;= 0.">
<polygon fill="none" stroke="#ff0000" points="421,-1428.5 421,-1448.5 561,-1448.5 561,-1428.5 421,-1428.5"/>
<text text-anchor="middle" x="491" y="-1435.5" font-family="FreeSans" font-size="10.00" fill="#000000">genfit::Track::insertPoint</text>
</a>
</g>
</g>
<!-- Node2&#45;&gt;Node3 -->
<g id="edge2" class="edge">
<title>Node2&#45;&gt;Node3</title>
<path fill="none" stroke="#191970" d="M379.2366,-1438.5C389.8046,-1438.5 400.4644,-1438.5 410.7853,-1438.5"/>
<polygon fill="#191970" stroke="#191970" points="410.9773,-1442.0001 420.9773,-1438.5 410.9772,-1435.0001 410.9773,-1442.0001"/>
</g>
<!-- Node4 -->
<g id="node4" class="node">
<title>Node4</title>
<g id="a_node4"><a xlink:href="../../db/d40/classgenfit_1_1TrackPoint.html#a70f6a8e9214edad4fce38eafeeee820e" target="_top" xlink:title="genfit::TrackPoint\l::setTrack">
<polygon fill="none" stroke="#000000" points="644.5,-1534.5 644.5,-1566.5 748.5,-1566.5 748.5,-1534.5 644.5,-1534.5"/>
<text text-anchor="start" x="652.5" y="-1553.5" font-family="FreeSans" font-size="10.00" fill="#000000">genfit::TrackPoint</text>
<text text-anchor="middle" x="696.5" y="-1541.5" font-family="FreeSans" font-size="10.00" fill="#000000">::setTrack</text>
</a>
</g>
</g>
<!-- Node3&#45;&gt;Node4 -->
<g id="edge3" class="edge">
<title>Node3&#45;&gt;Node4</title>
<path fill="none" stroke="#191970" d="M502.3179,-1448.5247C521.7062,-1465.2567 563.056,-1499.0517 603,-1519.5 613.0078,-1524.6232 624.0417,-1529.1595 634.9148,-1533.0725"/>
<polygon fill="#191970" stroke="#191970" points="633.8038,-1536.3916 644.3986,-1536.3498 636.0902,-1529.7755 633.8038,-1536.3916"/>
</g>
<!-- Node5 -->
<g id="node5" class="node">
<title>Node5</title>
<g id="a_node5"><a xlink:href="../../d6/d8a/classgenfit_1_1Track.html#ad4ead0ee2abc2bcb6b616f8976bc559a" target="_top" xlink:title="genfit::Track::trackHasChanged">
<polygon fill="none" stroke="#000000" points="826,-1385.5 826,-1405.5 1001,-1405.5 1001,-1385.5 826,-1385.5"/>
<text text-anchor="middle" x="913.5" y="-1392.5" font-family="FreeSans" font-size="10.00" fill="#000000">genfit::Track::trackHasChanged</text>
</a>
</g>
</g>
<!-- Node3&#45;&gt;Node5 -->
<g id="edge4" class="edge">
<title>Node3&#45;&gt;Node5</title>
<path fill="none" stroke="#191970" d="M508.4995,-1448.6633C529.9409,-1460.4747 567.7711,-1479.269 603,-1486.5 684.4138,-1503.2108 711.0432,-1512.4477 790,-1486.5 833.9418,-1472.0593 875.1018,-1435.3306 897.0309,-1413.2006"/>
<polygon fill="#191970" stroke="#191970" points="899.7745,-1415.3982 904.2094,-1405.7763 894.7421,-1410.5325 899.7745,-1415.3982"/>
</g>
<!-- Node6 -->
<g id="node6" class="node">
<title>Node6</title>
<g id="a_node6"><a xlink:href="../../db/d40/classgenfit_1_1TrackPoint.html#ada7b4d8c988a1798e455fb70929f88b7" target="_top" xlink:title="genfit::TrackPoint\l::hasRawMeasurements">
<polygon fill="none" stroke="#000000" points="628,-1444.5 628,-1476.5 765,-1476.5 765,-1444.5 628,-1444.5"/>
<text text-anchor="start" x="636" y="-1463.5" font-family="FreeSans" font-size="10.00" fill="#000000">genfit::TrackPoint</text>
<text text-anchor="middle" x="696.5" y="-1451.5" font-family="FreeSans" font-size="10.00" fill="#000000">::hasRawMeasurements</text>
</a>
</g>
</g>
<!-- Node3&#45;&gt;Node6 -->
<g id="edge5" class="edge">
<title>Node3&#45;&gt;Node6</title>
<path fill="none" stroke="#191970" d="M561.1467,-1446.0096C579.2962,-1447.9526 598.9597,-1450.0577 617.5272,-1452.0455"/>
<polygon fill="#191970" stroke="#191970" points="617.3974,-1455.5515 627.7132,-1453.136 618.1426,-1448.5913 617.3974,-1455.5515"/>
</g>
<!-- Node7 -->
<g id="node7" class="node">
<title>Node7</title>
<g id="a_node7"><a xlink:href="../../d6/d8a/classgenfit_1_1Track.html#aef6313a66e86853f9eef2e38f519bc37" target="_top" xlink:title="genfit::Track::deleteReferenceInfo">
<polygon fill="none" stroke="#000000" points="603,-1405.5 603,-1425.5 790,-1425.5 790,-1405.5 603,-1405.5"/>
<text text-anchor="middle" x="696.5" y="-1412.5" font-family="FreeSans" font-size="10.00" fill="#000000">genfit::Track::deleteReferenceInfo</text>
</a>
</g>
</g>
<!-- Node3&#45;&gt;Node7 -->
<g id="edge6" class="edge">
<title>Node3&#45;&gt;Node7</title>
<path fill="none" stroke="#191970" d="M561.1467,-1430.649C572.6831,-1429.3578 584.8313,-1427.9982 596.9209,-1426.6451"/>
<polygon fill="#191970" stroke="#191970" points="597.4991,-1430.1023 607.0477,-1425.5117 596.7204,-1423.1458 597.4991,-1430.1023"/>
</g>
<!-- Node8 -->
<g id="node8" class="node">
<title>Node8</title>
<g id="a_node8"><a xlink:href="../../d6/d8a/classgenfit_1_1Track.html#ad6ac9e44842a18fbba2577a887f008c5" target="_top" xlink:title="genfit::Track::deleteForwardInfo">
<polygon fill="none" stroke="#000000" points="608,-1366.5 608,-1386.5 785,-1386.5 785,-1366.5 608,-1366.5"/>
<text text-anchor="middle" x="696.5" y="-1373.5" font-family="FreeSans" font-size="10.00" fill="#000000">genfit::Track::deleteForwardInfo</text>
</a>
</g>
</g>
<!-- Node3&#45;&gt;Node8 -->
<g id="edge8" class="edge">
<title>Node3&#45;&gt;Node8</title>
<path fill="none" stroke="#191970" d="M514.6855,-1428.4466C537.1199,-1419.206 571.9085,-1405.6006 603,-1396.5 612.5588,-1393.7021 622.7731,-1391.1171 632.8104,-1388.7988"/>
<polygon fill="#191970" stroke="#191970" points="633.7644,-1392.172 642.758,-1386.5715 632.2348,-1385.3411 633.7644,-1392.172"/>
</g>
<!-- Node9 -->
<g id="node9" class="node">
<title>Node9</title>
<g id="a_node9"><a xlink:href="../../d6/d8a/classgenfit_1_1Track.html#a409abb47dc8fb5134031f8af1ce9b44a" target="_top" xlink:title="genfit::Track::deleteBackwardInfo">
<polygon fill="none" stroke="#000000" points="603.5,-1327.5 603.5,-1347.5 789.5,-1347.5 789.5,-1327.5 603.5,-1327.5"/>
<text text-anchor="middle" x="696.5" y="-1334.5" font-family="FreeSans" font-size="10.00" fill="#000000">genfit::Track::deleteBackwardInfo</text>
</a>
</g>
</g>
<!-- Node3&#45;&gt;Node9 -->
<g id="edge10" class="edge">
<title>Node3&#45;&gt;Node9</title>
<path fill="none" stroke="#191970" d="M501.7835,-1428.271C520.6987,-1410.9222 561.7784,-1375.831 603,-1357.5 609.1145,-1354.7809 615.6218,-1352.4223 622.2466,-1350.3779"/>
<polygon fill="#191970" stroke="#191970" points="623.3438,-1353.7047 632.0047,-1347.6023 621.4286,-1346.9718 623.3438,-1353.7047"/>
</g>
<!-- Node7&#45;&gt;Node5 -->
<g id="edge7" class="edge">
<title>Node7&#45;&gt;Node5</title>
<path fill="none" stroke="#191970" d="M790.102,-1406.8731C798.5017,-1406.0989 807.0229,-1405.3136 815.4589,-1404.536"/>
<polygon fill="#191970" stroke="#191970" points="816.0564,-1407.9959 825.6929,-1403.5928 815.4139,-1401.0254 816.0564,-1407.9959"/>
</g>
<!-- Node8&#45;&gt;Node5 -->
<g id="edge9" class="edge">
<title>Node8&#45;&gt;Node5</title>
<path fill="none" stroke="#191970" d="M785.0752,-1384.2554C795.1831,-1385.1405 805.5299,-1386.0464 815.7483,-1386.9411"/>
<polygon fill="#191970" stroke="#191970" points="815.6431,-1390.4452 825.9103,-1387.8309 816.2537,-1383.4719 815.6431,-1390.4452"/>
</g>
<!-- Node9&#45;&gt;Node5 -->
<g id="edge11" class="edge">
<title>Node9&#45;&gt;Node5</title>
<path fill="none" stroke="#191970" d="M747.6436,-1347.5925C761.4499,-1350.5474 776.345,-1353.9461 790,-1357.5 818.1141,-1364.817 849.3875,-1374.4553 873.4297,-1382.1939"/>
<polygon fill="#191970" stroke="#191970" points="872.6684,-1385.6264 883.2605,-1385.3818 874.8278,-1378.9678 872.6684,-1385.6264"/>
</g>
<!-- Node14 -->
<g id="node14" class="node">
<title>Node14</title>
<g id="a_node14"><a xlink:href="../../df/d9b/classCylinderGeom__Mvtx.html#aede358e384b225e6555bed9292f0310c" target="_top" xlink:title="CylinderGeom_Mvtx::\lget_world_from_local\l_coords">
<polygon fill="none" stroke="#ff0000" points="429,-1242.5 429,-1286.5 553,-1286.5 553,-1242.5 429,-1242.5"/>
<text text-anchor="start" x="437" y="-1273.5" font-family="FreeSans" font-size="10.00" fill="#000000">CylinderGeom_Mvtx::</text>
<text text-anchor="start" x="437" y="-1261.5" font-family="FreeSans" font-size="10.00" fill="#000000">get_world_from_local</text>
<text text-anchor="middle" x="491" y="-1249.5" font-family="FreeSans" font-size="10.00" fill="#000000">_coords</text>
</a>
</g>
</g>
<!-- Node13&#45;&gt;Node14 -->
<g id="edge16" class="edge">
<title>Node13&#45;&gt;Node14</title>
<path fill="none" stroke="#191970" d="M343.1546,-1264.5C366.754,-1264.5 393.8388,-1264.5 418.3249,-1264.5"/>
<polygon fill="#191970" stroke="#191970" points="418.6421,-1268.0001 428.6421,-1264.5 418.642,-1261.0001 418.6421,-1268.0001"/>
</g>
<!-- Node41&#45;&gt;Node31 -->
<g id="edge44" class="edge">
<title>Node41&#45;&gt;Node31</title>
<path fill="none" stroke="#191970" d="M351.2368,-160.7254C361.4869,-164.5978 371.1968,-169.9966 379,-177.5 418.2167,-215.21 394.4943,-244.1064 415,-294.5 433.0946,-338.9682 459.73,-388.0814 476.1882,-417.0628"/>
<polygon fill="#191970" stroke="#191970" points="473.3467,-419.1441 481.3525,-426.0837 479.4217,-415.6663 473.3467,-419.1441"/>
</g>
<!-- Node42 -->
<g id="node42" class="node">
<title>Node42</title>
<g id="a_node42"><a xlink:href="../../d6/d8a/classgenfit_1_1Track.html#aee4eab9e952ee6f0e0c1f1d980552759" target="_top" xlink:title="genfit::Track::checkConsistency">
<polygon fill="none" stroke="#ff0000" points="608.5,-228.5 608.5,-248.5 784.5,-248.5 784.5,-228.5 608.5,-228.5"/>
<text text-anchor="middle" x="696.5" y="-235.5" font-family="FreeSans" font-size="10.00" fill="#000000">genfit::Track::checkConsistency</text>
</a>
</g>
</g>
<!-- Node41&#45;&gt;Node42 -->
<g id="edge45" class="edge">
<title>Node41&#45;&gt;Node42</title>
<path fill="none" stroke="#191970" d="M351.0687,-161.6479C361.2193,-165.4132 370.942,-170.5372 379,-177.5 409.7333,-204.0564 381.0909,-239.1405 415,-261.5 492.8138,-312.8101 610.2739,-275.241 665.6011,-252.4934"/>
<polygon fill="#191970" stroke="#191970" points="667.0217,-255.6929 674.8728,-248.5788 664.2989,-249.2441 667.0217,-255.6929"/>
</g>
<!-- Node43 -->
<g id="node43" class="node">
<title>Node43</title>
<g id="a_node43"><a xlink:href="../../d8/db3/classgenfit_1_1Exception.html#a5cb44accc5d69d5742ed883a2d4ff88a" target="_top" xlink:title="Standard error message handling for exceptions. use like &quot;std::cerr &lt;&lt; e.what();&quot;.">
<polygon fill="none" stroke="#000000" points="424,-231.5 424,-251.5 558,-251.5 558,-231.5 424,-231.5"/>
<text text-anchor="middle" x="491" y="-238.5" font-family="FreeSans" font-size="10.00" fill="#000000">genfit::Exception::what</text>
</a>
</g>
</g>
<!-- Node41&#45;&gt;Node43 -->
<g id="edge46" class="edge">
<title>Node41&#45;&gt;Node43</title>
<path fill="none" stroke="#191970" d="M351.0954,-164.1847C360.9069,-167.6168 370.521,-171.9728 379,-177.5 400.4562,-191.4868 393.444,-208.6675 415,-222.5 417.8044,-224.2996 420.7681,-225.9287 423.8349,-227.4036"/>
<polygon fill="#191970" stroke="#191970" points="422.7139,-230.7291 433.2887,-231.3814 425.4288,-224.277 422.7139,-230.7291"/>
</g>
<!-- Node44 -->
<g id="node44" class="node">
<title>Node44</title>
<g id="a_node44"><a xlink:href="../../d0/dba/classgenfit_1_1AbsFitter.html#a03e279c67ca889f5fe6480eb8a1691cf" target="_top" xlink:title="genfit::AbsFitter::\lprocessTrack">
<polygon fill="none" stroke="#ff0000" points="439.5,-180.5 439.5,-212.5 542.5,-212.5 542.5,-180.5 439.5,-180.5"/>
<text text-anchor="start" x="447.5" y="-199.5" font-family="FreeSans" font-size="10.00" fill="#000000">genfit::AbsFitter::</text>
<text text-anchor="middle" x="491" y="-187.5" font-family="FreeSans" font-size="10.00" fill="#000000">processTrack</text>
</a>
</g>
</g>
<!-- Node41&#45;&gt;Node44 -->
<g id="edge47" class="edge">
<title>Node41&#45;&gt;Node44</title>
<path fill="none" stroke="#191970" d="M351.2189,-166.5469C376.5797,-171.9814 404.9923,-178.0698 429.5446,-183.331"/>
<polygon fill="#191970" stroke="#191970" points="428.9435,-186.7816 439.4549,-185.4546 430.4103,-179.9369 428.9435,-186.7816"/>
</g>
<!-- Node45 -->
<g id="node45" class="node">
<title>Node45</title>
<g id="a_node45"><a xlink:href="../../d6/d8a/classgenfit_1_1Track.html#a402b35300e81a48c7f0b9eb082b1cf24" target="_top" xlink:title="Get cardinal track representation.">
<polygon fill="none" stroke="#000000" points="615,-141.5 615,-161.5 778,-161.5 778,-141.5 615,-141.5"/>
<text text-anchor="middle" x="696.5" y="-148.5" font-family="FreeSans" font-size="10.00" fill="#000000">genfit::Track::getCardinalRep</text>
</a>
</g>
</g>
<!-- Node41&#45;&gt;Node45 -->
<g id="edge50" class="edge">
<title>Node41&#45;&gt;Node45</title>
<path fill="none" stroke="#191970" d="M351.0141,-151.5C420.7362,-151.5 528.1281,-151.5 604.6584,-151.5"/>
<polygon fill="#191970" stroke="#191970" points="604.7738,-155.0001 614.7738,-151.5 604.7737,-148.0001 604.7738,-155.0001"/>
</g>
<!-- Node46 -->
<g id="node46" class="node">
<title>Node46</title>
<g id="a_node46"><a xlink:href="../../d6/d8a/classgenfit_1_1Track.html#ad06e7a012624bdb03960826b5c9fcd93" target="_top" xlink:title="Get FitStatus for a AbsTrackRep. Per default, return FitStatus for cardinalRep.">
<polygon fill="none" stroke="#000000" points="418,-102.5 418,-122.5 564,-122.5 564,-102.5 418,-102.5"/>
<text text-anchor="middle" x="491" y="-109.5" font-family="FreeSans" font-size="10.00" fill="#000000">genfit::Track::getFitStatus</text>
</a>
</g>
</g>
<!-- Node41&#45;&gt;Node46 -->
<g id="edge51" class="edge">
<title>Node41&#45;&gt;Node46</title>
<path fill="none" stroke="#191970" d="M351.2189,-138.4593C375.7367,-133.906 403.1068,-128.823 427.0836,-124.3702"/>
<polygon fill="#191970" stroke="#191970" points="427.9406,-127.771 437.1334,-122.5038 426.6624,-120.8886 427.9406,-127.771"/>
</g>
<!-- Node47 -->
<g id="node47" class="node">
<title>Node47</title>
<g id="a_node47"><a xlink:href="../../d0/d8d/classgenfit_1_1FitStatus.html#a56371ce504bee72fcf2f9324ddcb91a8" target="_top" xlink:title="Did the fit converge (in all Points or only partially)?">
<polygon fill="none" stroke="#000000" points="440,-51.5 440,-83.5 542,-83.5 542,-51.5 440,-51.5"/>
<text text-anchor="start" x="448" y="-70.5" font-family="FreeSans" font-size="10.00" fill="#000000">genfit::FitStatus::</text>
<text text-anchor="middle" x="491" y="-58.5" font-family="FreeSans" font-size="10.00" fill="#000000">isFitConverged</text>
</a>
</g>
</g>
<!-- Node41&#45;&gt;Node47 -->
<g id="edge53" class="edge">
<title>Node41&#45;&gt;Node47</title>
<path fill="none" stroke="#191970" d="M351.149,-137.3516C360.7986,-134.137 370.3523,-130.2314 379,-125.5 398.0414,-115.0818 396.2713,-103.4703 415,-92.5 419.7941,-89.6919 424.9455,-87.1509 430.2255,-84.8622"/>
<polygon fill="#191970" stroke="#191970" points="431.8423,-87.9848 439.8191,-81.0118 429.235,-81.4885 431.8423,-87.9848"/>
</g>
<!-- Node48 -->
<g id="node48" class="node">
<title>Node48</title>
<g id="a_node48"><a xlink:href="../../d4/d1a/classgenfit_1_1EventDisplay.html#a273f0f885e02d740befd1d3b18489a16" target="_top" xlink:title="Add new event.">
<polygon fill="none" stroke="#000000" points="431.5,-.5 431.5,-32.5 550.5,-32.5 550.5,-.5 431.5,-.5"/>
<text text-anchor="start" x="439.5" y="-19.5" font-family="FreeSans" font-size="10.00" fill="#000000">genfit::EventDisplay</text>
<text text-anchor="middle" x="491" y="-7.5" font-family="FreeSans" font-size="10.00" fill="#000000">::addEvent</text>
</a>
</g>
</g>
<!-- Node41&#45;&gt;Node48 -->
<g id="edge54" class="edge">
<title>Node41&#45;&gt;Node48</title>
<path fill="none" stroke="#191970" d="M351.0687,-141.3521C361.2193,-137.5868 370.942,-132.4628 379,-125.5 409.7333,-98.9436 385.056,-68.9433 415,-41.5 417.3312,-39.3635 419.8488,-37.4093 422.5012,-35.6218"/>
<polygon fill="#191970" stroke="#191970" points="424.4855,-38.5166 431.3679,-30.4616 420.9645,-32.4666 424.4855,-38.5166"/>
</g>
<!-- Node44&#45;&gt;Node42 -->
<g id="edge49" class="edge">
<title>Node44&#45;&gt;Node42</title>
<path fill="none" stroke="#191970" d="M542.5911,-207.0442C571.4318,-212.9386 607.4923,-220.3086 637.4573,-226.4329"/>
<polygon fill="#191970" stroke="#191970" points="636.8681,-229.8847 647.3664,-228.4581 638.2698,-223.0265 636.8681,-229.8847"/>
</g>
<!-- Node44&#45;&gt;Node45 -->
<g id="edge48" class="edge">
<title>Node44&#45;&gt;Node45</title>
<path fill="none" stroke="#191970" d="M542.5911,-185.2027C572.3932,-178.6767 609.9043,-170.4626 640.433,-163.7775"/>
<polygon fill="#191970" stroke="#191970" points="641.4774,-167.1318 650.4972,-161.5736 639.98,-160.2938 641.4774,-167.1318"/>
</g>
<!-- Node46&#45;&gt;Node45 -->
<g id="edge52" class="edge">
<title>Node46&#45;&gt;Node45</title>
<path fill="none" stroke="#191970" d="M543.9214,-122.5435C571.3673,-127.7522 605.0718,-134.1487 633.8161,-139.6038"/>
<polygon fill="#191970" stroke="#191970" points="633.2807,-143.0646 643.758,-141.4906 634.586,-136.1873 633.2807,-143.0646"/>
</g>
</g>
</svg>
