<?xml version="1.0" encoding="UTF-8" standalone="no"?>
<!DOCTYPE svg PUBLIC "-//W3C//DTD SVG 1.1//EN"
 "http://www.w3.org/Graphics/SVG/1.1/DTD/svg11.dtd">
<!-- Generated by graphviz version 2.40.1 (20161225.0304)
 -->
<!-- Title: SVReco::MakeGenFitTrack Pages: 1 -->
<svg width="1009pt" height="1595pt"
 viewBox="0.00 0.00 1009.00 1595.00" xmlns="http://www.w3.org/2000/svg" xmlns:xlink="http://www.w3.org/1999/xlink">
<g id="graph0" class="graph" transform="scale(1 1) rotate(0) translate(4 1591)">
<title>SVReco::MakeGenFitTrack</title>
<!-- Node1 -->
<g id="node1" class="node">
<title>Node1</title>
<polygon fill="#bfbfbf" stroke="#000000" points="0,-760.5 0,-780.5 147,-780.5 147,-760.5 0,-760.5"/>
<text text-anchor="middle" x="73.5" y="-767.5" font-family="FreeSans" font-size="10.00" fill="#000000">SVReco::MakeGenFitTrack</text>
</g>
<!-- Node2 -->
<g id="node2" class="node">
<title>Node2</title>
<g id="a_node2"><a xlink:href="../../d7/dd5/classPHGenFit_1_1Track.html#a3c6639bba6584ef0fd2581150947b85f" target="_top" xlink:title="PHGenFit::Track::addMeasurements">
<polygon fill="none" stroke="#000000" points="183,-1425.5 183,-1445.5 379,-1445.5 379,-1425.5 183,-1425.5"/>
<text text-anchor="middle" x="281" y="-1432.5" font-family="FreeSans" font-size="10.00" fill="#000000">PHGenFit::Track::addMeasurements</text>
</a>
</g>
</g>
<!-- Node1&#45;&gt;Node2 -->
<g id="edge1" class="edge">
<title>Node1&#45;&gt;Node2</title>
<path fill="none" stroke="#191970" d="M73.7043,-780.8976C75.4062,-856.4498 89.6101,-1320.8803 183,-1416.5 183.9536,-1417.4764 184.9413,-1418.4107 185.96,-1419.3045"/>
<polygon fill="#191970" stroke="#191970" points="184.1835,-1422.3403 194.329,-1425.3932 188.3017,-1416.6798 184.1835,-1422.3403"/>
</g>
<!-- Node11 -->
<g id="node11" class="node">
<title>Node11</title>
<g id="a_node11"><a xlink:href="../../d2/db8/classSvtxTrack.html#a6d8dace95bd6d93aa08d66c5e2c3ad85" target="_top" xlink:title="SvtxTrack::begin_cluster_keys">
<polygon fill="none" stroke="#000000" points="197,-1386.5 197,-1406.5 365,-1406.5 365,-1386.5 197,-1386.5"/>
<text text-anchor="middle" x="281" y="-1393.5" font-family="FreeSans" font-size="10.00" fill="#000000">SvtxTrack::begin_cluster_keys</text>
</a>
</g>
</g>
<!-- Node1&#45;&gt;Node11 -->
<g id="edge13" class="edge">
<title>Node1&#45;&gt;Node11</title>
<path fill="none" stroke="#191970" d="M73.821,-780.7343C76.3053,-853.1665 94.7995,-1288.1431 183,-1377.5 184.6322,-1379.1536 186.3621,-1380.686 188.1752,-1382.1056"/>
<polygon fill="#191970" stroke="#191970" points="186.3283,-1385.0798 196.6113,-1387.6314 190.1639,-1379.2242 186.3283,-1385.0798"/>
</g>
<!-- Node12 -->
<g id="node12" class="node">
<title>Node12</title>
<g id="a_node12"><a xlink:href="../../d2/db8/classSvtxTrack.html#ac0e8c2214fa9f988c00a561ed22aa085" target="_top" xlink:title="SvtxTrack::end_cluster_keys">
<polygon fill="none" stroke="#000000" points="202,-1347.5 202,-1367.5 360,-1367.5 360,-1347.5 202,-1347.5"/>
<text text-anchor="middle" x="281" y="-1354.5" font-family="FreeSans" font-size="10.00" fill="#000000">SvtxTrack::end_cluster_keys</text>
</a>
</g>
</g>
<!-- Node1&#45;&gt;Node12 -->
<g id="edge14" class="edge">
<title>Node1&#45;&gt;Node12</title>
<path fill="none" stroke="#191970" d="M73.9472,-780.5217C77.239,-849.6425 99.9593,-1255.3715 183,-1338.5 185.9472,-1341.4503 189.2062,-1344.0139 192.6923,-1346.2373"/>
<polygon fill="#191970" stroke="#191970" points="191.3079,-1349.4658 201.7775,-1351.0902 194.606,-1343.2915 191.3079,-1349.4658"/>
</g>
<!-- Node13 -->
<g id="node13" class="node">
<title>Node13</title>
<g id="a_node13"><a xlink:href="../../d9/dcb/classCylinderGeomIntt.html#ab38e7cede1a91d97d6d5bb175791f965" target="_top" xlink:title="CylinderGeomIntt::find\l_segment_center">
<polygon fill="none" stroke="#000000" points="215.5,-1296.5 215.5,-1328.5 346.5,-1328.5 346.5,-1296.5 215.5,-1296.5"/>
<text text-anchor="start" x="223.5" y="-1315.5" font-family="FreeSans" font-size="10.00" fill="#000000">CylinderGeomIntt::find</text>
<text text-anchor="middle" x="281" y="-1303.5" font-family="FreeSans" font-size="10.00" fill="#000000">_segment_center</text>
</a>
</g>
</g>
<!-- Node1&#45;&gt;Node13 -->
<g id="edge15" class="edge">
<title>Node1&#45;&gt;Node13</title>
<path fill="none" stroke="#191970" d="M74.2317,-780.8246C79.1217,-846.9338 109.1462,-1210.5497 183,-1287.5 189.4288,-1294.1983 197.3826,-1299.1961 205.9572,-1302.9102"/>
<polygon fill="#191970" stroke="#191970" points="204.8698,-1306.2401 215.4625,-1306.4562 207.3166,-1299.6816 204.8698,-1306.2401"/>
</g>
<!-- Node14 -->
<g id="node14" class="node">
<title>Node14</title>
<g id="a_node14"><a xlink:href="../../df/d9b/classCylinderGeom__Mvtx.html#ac3180ef9061113ec41e851ff5f97f3f1" target="_top" xlink:title="CylinderGeom_Mvtx::\lfind_sensor_center">
<polygon fill="none" stroke="#000000" points="219,-1245.5 219,-1277.5 343,-1277.5 343,-1245.5 219,-1245.5"/>
<text text-anchor="start" x="227" y="-1264.5" font-family="FreeSans" font-size="10.00" fill="#000000">CylinderGeom_Mvtx::</text>
<text text-anchor="middle" x="281" y="-1252.5" font-family="FreeSans" font-size="10.00" fill="#000000">find_sensor_center</text>
</a>
</g>
</g>
<!-- Node1&#45;&gt;Node14 -->
<g id="edge16" class="edge">
<title>Node1&#45;&gt;Node14</title>
<path fill="none" stroke="#191970" d="M74.4656,-780.6008C80.5607,-842.2846 115.6282,-1167.8369 183,-1236.5 190.3156,-1243.9558 199.5231,-1249.2965 209.3482,-1253.1024"/>
<polygon fill="#191970" stroke="#191970" points="208.3221,-1256.4497 218.9159,-1256.3001 210.541,-1249.8107 208.3221,-1256.4497"/>
</g>
<!-- Node17 -->
<g id="node17" class="node">
<title>Node17</title>
<g id="a_node17"><a xlink:href="../../d0/d2c/classTrkrClusterContainer.html#a2b2eea90672ac17f6439c932d2a144ad" target="_top" xlink:title="TrkrClusterContainer\l::findCluster">
<polygon fill="none" stroke="#000000" points="220,-1194.5 220,-1226.5 342,-1226.5 342,-1194.5 220,-1194.5"/>
<text text-anchor="start" x="228" y="-1213.5" font-family="FreeSans" font-size="10.00" fill="#000000">TrkrClusterContainer</text>
<text text-anchor="middle" x="281" y="-1201.5" font-family="FreeSans" font-size="10.00" fill="#000000">::findCluster</text>
</a>
</g>
</g>
<!-- Node1&#45;&gt;Node17 -->
<g id="edge19" class="edge">
<title>Node1&#45;&gt;Node17</title>
<path fill="none" stroke="#191970" d="M74.7763,-780.6052C82.2544,-838.2588 122.1589,-1125.1559 183,-1185.5 190.558,-1192.9962 200.0323,-1198.344 210.0914,-1202.1406"/>
<polygon fill="#191970" stroke="#191970" points="209.2792,-1205.5569 219.8714,-1205.3248 211.4463,-1198.9008 209.2792,-1205.5569"/>
</g>
<!-- Node18 -->
<g id="node18" class="node">
<title>Node18</title>
<g id="a_node18"><a xlink:href="../../d2/db8/classSvtxTrack.html#a8cc6a505cb329bcc0d3203877148b39f" target="_top" xlink:title="SvtxTrack::get_error">
<polygon fill="none" stroke="#000000" points="222,-1155.5 222,-1175.5 340,-1175.5 340,-1155.5 222,-1155.5"/>
<text text-anchor="middle" x="281" y="-1162.5" font-family="FreeSans" font-size="10.00" fill="#000000">SvtxTrack::get_error</text>
</a>
</g>
</g>
<!-- Node1&#45;&gt;Node18 -->
<g id="edge20" class="edge">
<title>Node1&#45;&gt;Node18</title>
<path fill="none" stroke="#191970" d="M75.0324,-780.7722C83.4317,-835.6962 125.6087,-1094.1538 183,-1146.5 191.1369,-1153.9216 201.2727,-1158.8294 211.9137,-1162.0141"/>
<polygon fill="#191970" stroke="#191970" points="211.2353,-1165.4521 221.7852,-1164.4771 212.93,-1158.6603 211.2353,-1165.4521"/>
</g>
<!-- Node19 -->
<g id="node19" class="node">
<title>Node19</title>
<g id="a_node19"><a xlink:href="../../d2/db8/classSvtxTrack.html#a5f934a41fd25eaa343dd267112b4537d" target="_top" xlink:title="SvtxTrack::get_id">
<polygon fill="none" stroke="#000000" points="230,-1116.5 230,-1136.5 332,-1136.5 332,-1116.5 230,-1116.5"/>
<text text-anchor="middle" x="281" y="-1123.5" font-family="FreeSans" font-size="10.00" fill="#000000">SvtxTrack::get_id</text>
</a>
</g>
</g>
<!-- Node1&#45;&gt;Node19 -->
<g id="edge21" class="edge">
<title>Node1&#45;&gt;Node19</title>
<path fill="none" stroke="#191970" d="M75.3835,-780.7134C85.0529,-832.0477 130.6944,-1061.2468 183,-1107.5 193.1904,-1116.5113 206.3449,-1121.7829 219.6877,-1124.7608"/>
<polygon fill="#191970" stroke="#191970" points="219.4168,-1128.2689 229.8818,-1126.615 220.6695,-1121.3819 219.4168,-1128.2689"/>
</g>
<!-- Node20 -->
<g id="node20" class="node">
<title>Node20</title>
<g id="a_node20"><a xlink:href="../../d2/db8/classSvtxTrack.html#a79f3af39b753ecee85dc1d4e3db08cdd" target="_top" xlink:title="SvtxTrack::get_px">
<polygon fill="none" stroke="#000000" points="228,-1077.5 228,-1097.5 334,-1097.5 334,-1077.5 228,-1077.5"/>
<text text-anchor="middle" x="281" y="-1084.5" font-family="FreeSans" font-size="10.00" fill="#000000">SvtxTrack::get_px</text>
</a>
</g>
</g>
<!-- Node1&#45;&gt;Node20 -->
<g id="edge22" class="edge">
<title>Node1&#45;&gt;Node20</title>
<path fill="none" stroke="#191970" d="M73.8502,-780.6767C75.9019,-823.335 89.8138,-989.1974 183,-1068.5 192.7895,-1076.831 205.1329,-1081.9294 217.7286,-1084.969"/>
<polygon fill="#191970" stroke="#191970" points="217.3485,-1088.4621 227.8403,-1086.9878 218.7191,-1081.5976 217.3485,-1088.4621"/>
</g>
<!-- Node21 -->
<g id="node21" class="node">
<title>Node21</title>
<g id="a_node21"><a xlink:href="../../d2/db8/classSvtxTrack.html#a5a9164fc95756dd9780755a55327fec5" target="_top" xlink:title="SvtxTrack::get_py">
<polygon fill="none" stroke="#000000" points="228,-1038.5 228,-1058.5 334,-1058.5 334,-1038.5 228,-1038.5"/>
<text text-anchor="middle" x="281" y="-1045.5" font-family="FreeSans" font-size="10.00" fill="#000000">SvtxTrack::get_py</text>
</a>
</g>
</g>
<!-- Node1&#45;&gt;Node21 -->
<g id="edge23" class="edge">
<title>Node1&#45;&gt;Node21</title>
<path fill="none" stroke="#191970" d="M74.4664,-780.6788C78.7609,-819.8492 99.7553,-962.0241 183,-1029.5 192.9329,-1037.5513 205.28,-1042.54 217.8248,-1045.5626"/>
<polygon fill="#191970" stroke="#191970" points="217.3917,-1049.0455 227.8855,-1047.5862 218.772,-1042.183 217.3917,-1049.0455"/>
</g>
<!-- Node22 -->
<g id="node22" class="node">
<title>Node22</title>
<g id="a_node22"><a xlink:href="../../d2/db8/classSvtxTrack.html#a826b1ab6d05d45e5148c4645befe4def" target="_top" xlink:title="SvtxTrack::get_pz">
<polygon fill="none" stroke="#000000" points="228.5,-999.5 228.5,-1019.5 333.5,-1019.5 333.5,-999.5 228.5,-999.5"/>
<text text-anchor="middle" x="281" y="-1006.5" font-family="FreeSans" font-size="10.00" fill="#000000">SvtxTrack::get_pz</text>
</a>
</g>
</g>
<!-- Node1&#45;&gt;Node22 -->
<g id="edge24" class="edge">
<title>Node1&#45;&gt;Node22</title>
<path fill="none" stroke="#191970" d="M75.3123,-780.8488C82.1238,-816.4453 109.6507,-934.7123 183,-990.5 193.177,-998.2404 205.6275,-1003.0974 218.1959,-1006.09"/>
<polygon fill="#191970" stroke="#191970" points="217.7663,-1009.5735 228.2596,-1008.1099 219.1439,-1002.7104 217.7663,-1009.5735"/>
</g>
<!-- Node23 -->
<g id="node23" class="node">
<title>Node23</title>
<g id="a_node23"><a xlink:href="../../df/d9b/classCylinderGeom__Mvtx.html#aa1c7c0b68aa74bd674206214ffabfe6d" target="_top" xlink:title="CylinderGeom_Mvtx::\lget_stave_phi_tilt">
<polygon fill="none" stroke="#000000" points="219,-948.5 219,-980.5 343,-980.5 343,-948.5 219,-948.5"/>
<text text-anchor="start" x="227" y="-967.5" font-family="FreeSans" font-size="10.00" fill="#000000">CylinderGeom_Mvtx::</text>
<text text-anchor="middle" x="281" y="-955.5" font-family="FreeSans" font-size="10.00" fill="#000000">get_stave_phi_tilt</text>
</a>
</g>
</g>
<!-- Node1&#45;&gt;Node23 -->
<g id="edge25" class="edge">
<title>Node1&#45;&gt;Node23</title>
<path fill="none" stroke="#191970" d="M77.0598,-780.7605C87.8858,-810.3869 123.368,-896.6732 183,-939.5 190.8329,-945.1254 199.8154,-949.4878 209.0939,-952.8701"/>
<polygon fill="#191970" stroke="#191970" points="208.2418,-956.2737 218.8344,-956.0519 210.4155,-949.6197 208.2418,-956.2737"/>
</g>
<!-- Node24 -->
<g id="node24" class="node">
<title>Node24</title>
<g id="a_node24"><a xlink:href="../../d9/dcb/classCylinderGeomIntt.html#a191bf1e8abfe131f80eb7da8b1639c8b" target="_top" xlink:title="CylinderGeomIntt::get\l_strip_phi_tilt">
<polygon fill="none" stroke="#000000" points="216.5,-897.5 216.5,-929.5 345.5,-929.5 345.5,-897.5 216.5,-897.5"/>
<text text-anchor="start" x="224.5" y="-916.5" font-family="FreeSans" font-size="10.00" fill="#000000">CylinderGeomIntt::get</text>
<text text-anchor="middle" x="281" y="-904.5" font-family="FreeSans" font-size="10.00" fill="#000000">_strip_phi_tilt</text>
</a>
</g>
</g>
<!-- Node1&#45;&gt;Node24 -->
<g id="edge26" class="edge">
<title>Node1&#45;&gt;Node24</title>
<path fill="none" stroke="#191970" d="M79.8043,-780.5252C94.7471,-803.424 134.7105,-859.7989 183,-888.5 190.3229,-892.8524 198.39,-896.4531 206.6561,-899.4305"/>
<polygon fill="#191970" stroke="#191970" points="205.8256,-902.8419 216.4187,-902.6472 208.0163,-896.1935 205.8256,-902.8419"/>
</g>
<!-- Node25 -->
<g id="node25" class="node">
<title>Node25</title>
<g id="a_node25"><a xlink:href="../../d2/db8/classSvtxTrack.html#af2317becf2120fcad5cefaa61a01407e" target="_top" xlink:title="SvtxTrack::get_x">
<polygon fill="none" stroke="#000000" points="231.5,-858.5 231.5,-878.5 330.5,-878.5 330.5,-858.5 231.5,-858.5"/>
<text text-anchor="middle" x="281" y="-865.5" font-family="FreeSans" font-size="10.00" fill="#000000">SvtxTrack::get_x</text>
</a>
</g>
</g>
<!-- Node1&#45;&gt;Node25 -->
<g id="edge27" class="edge">
<title>Node1&#45;&gt;Node25</title>
<path fill="none" stroke="#191970" d="M84.0117,-780.5574C102.4577,-797.6002 142.5516,-832.0043 183,-849.5 195.0417,-854.7086 208.5314,-858.4981 221.5597,-861.2524"/>
<polygon fill="#191970" stroke="#191970" points="220.9172,-864.693 231.401,-863.1633 222.2515,-857.8213 220.9172,-864.693"/>
</g>
<!-- Node26 -->
<g id="node26" class="node">
<title>Node26</title>
<g id="a_node26"><a xlink:href="../../d2/db8/classSvtxTrack.html#ac4bf3bd4ecaeff1ca06c48942a8b9236" target="_top" xlink:title="SvtxTrack::get_y">
<polygon fill="none" stroke="#000000" points="231.5,-819.5 231.5,-839.5 330.5,-839.5 330.5,-819.5 231.5,-819.5"/>
<text text-anchor="middle" x="281" y="-826.5" font-family="FreeSans" font-size="10.00" fill="#000000">SvtxTrack::get_y</text>
</a>
</g>
</g>
<!-- Node1&#45;&gt;Node26 -->
<g id="edge28" class="edge">
<title>Node1&#45;&gt;Node26</title>
<path fill="none" stroke="#191970" d="M97.4949,-780.5182C119.4428,-789.3792 152.9682,-802.1603 183,-810.5 195.2541,-813.9029 208.5354,-816.9161 221.2482,-819.4834"/>
<polygon fill="#191970" stroke="#191970" points="220.8056,-822.9631 231.2912,-821.4457 222.148,-816.093 220.8056,-822.9631"/>
</g>
<!-- Node27 -->
<g id="node27" class="node">
<title>Node27</title>
<g id="a_node27"><a xlink:href="../../d2/db8/classSvtxTrack.html#aaaa435dd9d41dbe836f0608712ca12db" target="_top" xlink:title="SvtxTrack::get_z">
<polygon fill="none" stroke="#000000" points="232,-780.5 232,-800.5 330,-800.5 330,-780.5 232,-780.5"/>
<text text-anchor="middle" x="281" y="-787.5" font-family="FreeSans" font-size="10.00" fill="#000000">SvtxTrack::get_z</text>
</a>
</g>
</g>
<!-- Node1&#45;&gt;Node27 -->
<g id="edge29" class="edge">
<title>Node1&#45;&gt;Node27</title>
<path fill="none" stroke="#191970" d="M147.241,-777.6076C171.6956,-779.9646 198.5839,-782.5563 221.7988,-784.7939"/>
<polygon fill="#191970" stroke="#191970" points="221.5542,-788.2864 231.8439,-785.7621 222.2258,-781.3187 221.5542,-788.2864"/>
</g>
<!-- Node28 -->
<g id="node28" class="node">
<title>Node28</title>
<g id="a_node28"><a xlink:href="../../d8/df1/namespaceMvtxDefs.html#abfd7b6c5fe579370c360924854579283" target="_top" xlink:title="Get the chip id from hitsetkey.">
<polygon fill="none" stroke="#000000" points="222,-741.5 222,-761.5 340,-761.5 340,-741.5 222,-741.5"/>
<text text-anchor="middle" x="281" y="-748.5" font-family="FreeSans" font-size="10.00" fill="#000000">MvtxDefs::getChipId</text>
</a>
</g>
</g>
<!-- Node1&#45;&gt;Node28 -->
<g id="edge30" class="edge">
<title>Node1&#45;&gt;Node28</title>
<path fill="none" stroke="#191970" d="M147.241,-763.7478C168.2633,-761.8229 191.0841,-759.7333 211.8238,-757.8342"/>
<polygon fill="#191970" stroke="#191970" points="212.1817,-761.3162 221.8209,-756.9188 211.5433,-754.3453 212.1817,-761.3162"/>
</g>
<!-- Node29 -->
<g id="node29" class="node">
<title>Node29</title>
<g id="a_node29"><a xlink:href="../../db/da0/classgenfit_1_1GFRaveVertex.html#a25d5cd4f3c081231c4d77f80fefbade1" target="_top" xlink:title="get 3x3 covariance (error) of position.">
<polygon fill="none" stroke="#000000" points="219,-690.5 219,-722.5 343,-722.5 343,-690.5 219,-690.5"/>
<text text-anchor="start" x="227" y="-709.5" font-family="FreeSans" font-size="10.00" fill="#000000">genfit::GFRaveVertex</text>
<text text-anchor="middle" x="281" y="-697.5" font-family="FreeSans" font-size="10.00" fill="#000000">::getCov</text>
</a>
</g>
</g>
<!-- Node1&#45;&gt;Node29 -->
<g id="edge31" class="edge">
<title>Node1&#45;&gt;Node29</title>
<path fill="none" stroke="#191970" d="M100.7642,-760.4026C122.8059,-752.3937 154.7121,-741.1477 183,-732.5 191.3779,-729.9388 200.2024,-727.3908 208.983,-724.9476"/>
<polygon fill="#191970" stroke="#191970" points="210.1351,-728.2609 218.8519,-722.2386 208.2821,-721.5106 210.1351,-728.2609"/>
</g>
<!-- Node30 -->
<g id="node30" class="node">
<title>Node30</title>
<g id="a_node30"><a xlink:href="../../d7/dd5/classPHGenFit_1_1Track.html#a8cc267bf5a0014b5ba7e057a3b45ba3e" target="_top" xlink:title="PHGenFit::Track::getGenFit\lTrack">
<polygon fill="none" stroke="#000000" points="415,-477.5 415,-509.5 567,-509.5 567,-477.5 415,-477.5"/>
<text text-anchor="start" x="423" y="-496.5" font-family="FreeSans" font-size="10.00" fill="#000000">PHGenFit::Track::getGenFit</text>
<text text-anchor="middle" x="491" y="-484.5" font-family="FreeSans" font-size="10.00" fill="#000000">Track</text>
</a>
</g>
</g>
<!-- Node1&#45;&gt;Node30 -->
<g id="edge32" class="edge">
<title>Node1&#45;&gt;Node30</title>
<path fill="none" stroke="#191970" d="M82.6281,-760.3458C100.1229,-741.568 140.4333,-701.511 183,-681.5 263.3798,-643.7126 303.81,-689.7785 379,-642.5 427.3722,-612.0841 462.2983,-552.7427 479.3147,-518.8468"/>
<polygon fill="#191970" stroke="#191970" points="482.5845,-520.1269 483.826,-509.605 476.2939,-517.0561 482.5845,-520.1269"/>
</g>
<!-- Node31 -->
<g id="node31" class="node">
<title>Node31</title>
<g id="a_node31"><a xlink:href="../../d6/d9e/namespaceInttDefs.html#a28461d6132ff9373b4529e5c0d20c962" target="_top" xlink:title="Get the sensor id from hitsetkey.">
<polygon fill="none" stroke="#000000" points="211.5,-612.5 211.5,-632.5 350.5,-632.5 350.5,-612.5 211.5,-612.5"/>
<text text-anchor="middle" x="281" y="-619.5" font-family="FreeSans" font-size="10.00" fill="#000000">InttDefs::getLadderPhiId</text>
</a>
</g>
</g>
<!-- Node1&#45;&gt;Node31 -->
<g id="edge33" class="edge">
<title>Node1&#45;&gt;Node31</title>
<path fill="none" stroke="#191970" d="M79.4752,-760.3973C94.0087,-736.7461 133.6622,-677.518 183,-647.5 190.8764,-642.7078 199.6447,-638.8297 208.6075,-635.6924"/>
<polygon fill="#191970" stroke="#191970" points="209.9164,-638.9485 218.3764,-632.5705 207.7856,-632.2807 209.9164,-638.9485"/>
</g>
<!-- Node32 -->
<g id="node32" class="node">
<title>Node32</title>
<g id="a_node32"><a xlink:href="../../d6/d9e/namespaceInttDefs.html#aeb0f2c2a834c11791925bdffc211526d" target="_top" xlink:title="Get the ladder id from hitsetkey.">
<polygon fill="none" stroke="#000000" points="216,-573.5 216,-593.5 346,-593.5 346,-573.5 216,-573.5"/>
<text text-anchor="middle" x="281" y="-580.5" font-family="FreeSans" font-size="10.00" fill="#000000">InttDefs::getLadderZId</text>
</a>
</g>
</g>
<!-- Node1&#45;&gt;Node32 -->
<g id="edge34" class="edge">
<title>Node1&#45;&gt;Node32</title>
<path fill="none" stroke="#191970" d="M76.9991,-760.2196C87.6605,-730.561 122.7411,-644.3614 183,-603.5 190.0243,-598.7368 197.9385,-595.0634 206.1468,-592.2373"/>
<polygon fill="#191970" stroke="#191970" points="207.3227,-595.5383 215.8821,-589.2943 205.2971,-588.8378 207.3227,-595.5383"/>
</g>
<!-- Node33 -->
<g id="node33" class="node">
<title>Node33</title>
<g id="a_node33"><a xlink:href="../../d6/d3f/namespaceTrkrDefs.html#ad4a7fd368bbf1d5d97ff4fd3e81a6100" target="_top" xlink:title="Get the layer number from either key type.">
<polygon fill="none" stroke="#000000" points="225.5,-534.5 225.5,-554.5 336.5,-554.5 336.5,-534.5 225.5,-534.5"/>
<text text-anchor="middle" x="281" y="-541.5" font-family="FreeSans" font-size="10.00" fill="#000000">TrkrDefs::getLayer</text>
</a>
</g>
</g>
<!-- Node1&#45;&gt;Node33 -->
<g id="edge35" class="edge">
<title>Node1&#45;&gt;Node33</title>
<path fill="none" stroke="#191970" d="M75.6588,-760.352C83.4223,-726.4967 113.2454,-616.6276 183,-564.5 192.5086,-557.3942 203.9268,-552.6573 215.5569,-549.5307"/>
<polygon fill="#191970" stroke="#191970" points="216.3856,-552.9315 225.3387,-547.2665 214.807,-546.1118 216.3856,-552.9315"/>
</g>
<!-- Node34 -->
<g id="node34" class="node">
<title>Node34</title>
<g id="a_node34"><a xlink:href="../../d4/de7/classPHG4CylinderGeomContainer.html#a08321019aaff5f57cd416b64d0f536bf" target="_top" xlink:title="PHG4CylinderGeomContainer\l::GetLayerGeom">
<polygon fill="none" stroke="#000000" points="198,-483.5 198,-515.5 364,-515.5 364,-483.5 198,-483.5"/>
<text text-anchor="start" x="206" y="-502.5" font-family="FreeSans" font-size="10.00" fill="#000000">PHG4CylinderGeomContainer</text>
<text text-anchor="middle" x="281" y="-490.5" font-family="FreeSans" font-size="10.00" fill="#000000">::GetLayerGeom</text>
</a>
</g>
</g>
<!-- Node1&#45;&gt;Node34 -->
<g id="edge36" class="edge">
<title>Node1&#45;&gt;Node34</title>
<path fill="none" stroke="#191970" d="M74.9083,-760.258C80.6291,-722.7015 105.6407,-591.311 183,-525.5 184.7974,-523.9709 186.6753,-522.5307 188.6204,-521.1742"/>
<polygon fill="#191970" stroke="#191970" points="190.8147,-523.9359 197.5373,-515.747 187.1753,-517.9564 190.8147,-523.9359"/>
</g>
<!-- Node35 -->
<g id="node35" class="node">
<title>Node35</title>
<g id="a_node35"><a xlink:href="../../db/da0/classgenfit_1_1GFRaveVertex.html#a47ada7742989e3e294a3cc9f1342fee7" target="_top" xlink:title="Number of tracks the vertex is made of.">
<polygon fill="none" stroke="#000000" points="219,-432.5 219,-464.5 343,-464.5 343,-432.5 219,-432.5"/>
<text text-anchor="start" x="227" y="-451.5" font-family="FreeSans" font-size="10.00" fill="#000000">genfit::GFRaveVertex</text>
<text text-anchor="middle" x="281" y="-439.5" font-family="FreeSans" font-size="10.00" fill="#000000">::getNTracks</text>
</a>
</g>
</g>
<!-- Node1&#45;&gt;Node35 -->
<g id="edge37" class="edge">
<title>Node1&#45;&gt;Node35</title>
<path fill="none" stroke="#191970" d="M74.0376,-760.2699C76.8222,-718.1011 93.2042,-556.1471 183,-474.5 190.5212,-467.6613 199.6362,-462.5849 209.2431,-458.8238"/>
<polygon fill="#191970" stroke="#191970" points="210.6509,-462.0411 218.9732,-455.4845 208.3786,-455.4202 210.6509,-462.0411"/>
</g>
<!-- Node36 -->
<g id="node36" class="node">
<title>Node36</title>
<g id="a_node36"><a xlink:href="../../d6/dfa/classTrkrCluster.html#a43356b61478edcfaba377cdcd6c658eb" target="_top" xlink:title="TrkrCluster::getPhiError">
<polygon fill="none" stroke="#000000" points="213.5,-393.5 213.5,-413.5 348.5,-413.5 348.5,-393.5 213.5,-393.5"/>
<text text-anchor="middle" x="281" y="-400.5" font-family="FreeSans" font-size="10.00" fill="#000000">TrkrCluster::getPhiError</text>
</a>
</g>
</g>
<!-- Node1&#45;&gt;Node36 -->
<g id="edge38" class="edge">
<title>Node1&#45;&gt;Node36</title>
<path fill="none" stroke="#191970" d="M75.284,-760.3436C84.6357,-708.2469 129.6083,-471.5917 183,-423.5 189.054,-418.047 196.181,-413.921 203.7843,-410.8188"/>
<polygon fill="#191970" stroke="#191970" points="204.9613,-414.1152 213.2548,-407.5222 202.66,-407.5042 204.9613,-414.1152"/>
</g>
<!-- Node37 -->
<g id="node37" class="node">
<title>Node37</title>
<g id="a_node37"><a xlink:href="../../db/da0/classgenfit_1_1GFRaveVertex.html#a4818bdeb821d19b283ae026af388e92b" target="_top" xlink:title="get Position">
<polygon fill="none" stroke="#000000" points="219,-342.5 219,-374.5 343,-374.5 343,-342.5 219,-342.5"/>
<text text-anchor="start" x="227" y="-361.5" font-family="FreeSans" font-size="10.00" fill="#000000">genfit::GFRaveVertex</text>
<text text-anchor="middle" x="281" y="-349.5" font-family="FreeSans" font-size="10.00" fill="#000000">::getPos</text>
</a>
</g>
</g>
<!-- Node1&#45;&gt;Node37 -->
<g id="edge39" class="edge">
<title>Node1&#45;&gt;Node37</title>
<path fill="none" stroke="#191970" d="M74.9991,-760.3904C83.382,-705.1662 126.1225,-440.414 183,-384.5 190.4198,-377.2059 199.6379,-371.894 209.4283,-368.0378"/>
<polygon fill="#191970" stroke="#191970" points="210.6281,-371.3265 218.9502,-364.7695 208.3556,-364.7056 210.6281,-371.3265"/>
</g>
<!-- Node38 -->
<g id="node38" class="node">
<title>Node38</title>
<g id="a_node38"><a xlink:href="../../d6/dfa/classTrkrCluster.html#a081b3050a772ea32f6bf3b09d0407e4f" target="_top" xlink:title="TrkrCluster::getPosition">
<polygon fill="none" stroke="#000000" points="214,-303.5 214,-323.5 348,-323.5 348,-303.5 214,-303.5"/>
<text text-anchor="middle" x="281" y="-310.5" font-family="FreeSans" font-size="10.00" fill="#000000">TrkrCluster::getPosition</text>
</a>
</g>
</g>
<!-- Node1&#45;&gt;Node38 -->
<g id="edge40" class="edge">
<title>Node1&#45;&gt;Node38</title>
<path fill="none" stroke="#191970" d="M74.6042,-760.2109C81.2524,-700.1917 117.8677,-395.8153 183,-333.5 189.1323,-327.6329 196.4952,-323.2771 204.3952,-320.0693"/>
<polygon fill="#191970" stroke="#191970" points="205.5562,-323.3713 213.8743,-316.8093 203.2796,-316.7519 205.5562,-323.3713"/>
</g>
<!-- Node39 -->
<g id="node39" class="node">
<title>Node39</title>
<g id="a_node39"><a xlink:href="../../d8/df1/namespaceMvtxDefs.html#a0d6fee920baed2f17bed6f7990bb88c3" target="_top" xlink:title="Get the stave id from hitsetkey.">
<polygon fill="none" stroke="#000000" points="219,-264.5 219,-284.5 343,-284.5 343,-264.5 219,-264.5"/>
<text text-anchor="middle" x="281" y="-271.5" font-family="FreeSans" font-size="10.00" fill="#000000">MvtxDefs::getStaveId</text>
</a>
</g>
</g>
<!-- Node1&#45;&gt;Node39 -->
<g id="edge41" class="edge">
<title>Node1&#45;&gt;Node39</title>
<path fill="none" stroke="#191970" d="M74.3863,-760.1386C80.008,-696.8691 112.7405,-363.0389 183,-294.5 190.2715,-287.4066 199.3372,-282.5107 208.9973,-279.1784"/>
<polygon fill="#191970" stroke="#191970" points="210.1752,-282.4814 218.8112,-276.3439 208.2327,-275.7563 210.1752,-282.4814"/>
</g>
<!-- Node40 -->
<g id="node40" class="node">
<title>Node40</title>
<g id="a_node40"><a xlink:href="../../d6/d3f/namespaceTrkrDefs.html#a542bf66cb1037404f08212eeefdfde70" target="_top" xlink:title="Get the tracker ID from either key type.">
<polygon fill="none" stroke="#000000" points="226,-225.5 226,-245.5 336,-245.5 336,-225.5 226,-225.5"/>
<text text-anchor="middle" x="281" y="-232.5" font-family="FreeSans" font-size="10.00" fill="#000000">TrkrDefs::getTrkrId</text>
</a>
</g>
</g>
<!-- Node1&#45;&gt;Node40 -->
<g id="edge42" class="edge">
<title>Node1&#45;&gt;Node40</title>
<path fill="none" stroke="#191970" d="M74.1915,-760.1693C78.8295,-694.0274 107.5544,-330.3307 183,-255.5 191.9499,-246.623 203.7043,-241.1723 215.953,-237.9185"/>
<polygon fill="#191970" stroke="#191970" points="216.8168,-241.3124 225.838,-235.7565 215.3211,-234.474 216.8168,-241.3124"/>
</g>
<!-- Node41 -->
<g id="node41" class="node">
<title>Node41</title>
<g id="a_node41"><a xlink:href="../../d6/dfa/classTrkrCluster.html#a73c9bdc559b2906e6cfc942d1bf355ed" target="_top" xlink:title="TrkrCluster::getZError">
<polygon fill="none" stroke="#000000" points="217.5,-186.5 217.5,-206.5 344.5,-206.5 344.5,-186.5 217.5,-186.5"/>
<text text-anchor="middle" x="281" y="-193.5" font-family="FreeSans" font-size="10.00" fill="#000000">TrkrCluster::getZError</text>
</a>
</g>
</g>
<!-- Node1&#45;&gt;Node41 -->
<g id="edge43" class="edge">
<title>Node1&#45;&gt;Node41</title>
<path fill="none" stroke="#191970" d="M74.019,-760.2952C77.7189,-691.6679 102.3127,-297.6874 183,-216.5 189.8591,-209.5984 198.4107,-204.76 207.5854,-201.4121"/>
<polygon fill="#191970" stroke="#191970" points="208.7844,-204.7056 217.3271,-198.4388 206.7409,-198.0105 208.7844,-204.7056"/>
</g>
<!-- Node42 -->
<g id="node42" class="node">
<title>Node42</title>
<g id="a_node42"><a xlink:href="../../d1/d35/classPHGenFit_1_1Fitter.html#a0ae094389cc773308a3cf9ca98d60bdb" target="_top" xlink:title="PHGenFit::Fitter::process\lTrack">
<polygon fill="none" stroke="#000000" points="211,-135.5 211,-167.5 351,-167.5 351,-135.5 211,-135.5"/>
<text text-anchor="start" x="219" y="-154.5" font-family="FreeSans" font-size="10.00" fill="#000000">PHGenFit::Fitter::process</text>
<text text-anchor="middle" x="281" y="-142.5" font-family="FreeSans" font-size="10.00" fill="#000000">Track</text>
</a>
</g>
</g>
<!-- Node1&#45;&gt;Node42 -->
<g id="edge44" class="edge">
<title>Node1&#45;&gt;Node42</title>
<path fill="none" stroke="#191970" d="M73.9431,-760.1055C77.207,-688.4043 99.7729,-267.3717 183,-177.5 188.1803,-171.9061 194.4129,-167.4609 201.1935,-163.9357"/>
<polygon fill="#191970" stroke="#191970" points="203.0275,-166.9499 210.7321,-159.6774 200.1739,-160.558 203.0275,-166.9499"/>
</g>
<!-- Node50 -->
<g id="node50" class="node">
<title>Node50</title>
<g id="a_node50"><a xlink:href="../../d6/d8a/classgenfit_1_1Track.html#aa7c2b4ec6f779325c87f4ffe8d5e52a0" target="_top" xlink:title="Set the MCT track id, for MC simulations.">
<polygon fill="none" stroke="#000000" points="206,-96.5 206,-116.5 356,-116.5 356,-96.5 206,-96.5"/>
<text text-anchor="middle" x="281" y="-103.5" font-family="FreeSans" font-size="10.00" fill="#000000">genfit::Track::setMcTrackId</text>
</a>
</g>
</g>
<!-- Node1&#45;&gt;Node50 -->
<g id="edge56" class="edge">
<title>Node1&#45;&gt;Node50</title>
<path fill="none" stroke="#191970" d="M73.7069,-760.1184C75.4273,-684.682 89.7384,-220.9639 183,-125.5 187.0117,-121.3936 191.626,-118.0317 196.6199,-115.2905"/>
<polygon fill="#191970" stroke="#191970" points="198.3413,-118.3515 205.9705,-110.9998 195.4219,-111.9893 198.3413,-118.3515"/>
</g>
<!-- Node3 -->
<g id="node3" class="node">
<title>Node3</title>
<g id="a_node3"><a xlink:href="../../d6/d8a/classgenfit_1_1Track.html#a7e61ada0d84db561ede923db92c4ab01" target="_top" xlink:title="Insert TrackPoint BEFORE TrackPoint with position id, if id &gt;= 0.">
<polygon fill="none" stroke="#000000" points="421,-1425.5 421,-1445.5 561,-1445.5 561,-1425.5 421,-1425.5"/>
<text text-anchor="middle" x="491" y="-1432.5" font-family="FreeSans" font-size="10.00" fill="#000000">genfit::Track::insertPoint</text>
</a>
</g>
</g>
<!-- Node2&#45;&gt;Node3 -->
<g id="edge2" class="edge">
<title>Node2&#45;&gt;Node3</title>
<path fill="none" stroke="#191970" d="M379.2366,-1435.5C389.8046,-1435.5 400.4644,-1435.5 410.7853,-1435.5"/>
<polygon fill="#191970" stroke="#191970" points="410.9773,-1439.0001 420.9773,-1435.5 410.9772,-1432.0001 410.9773,-1439.0001"/>
</g>
<!-- Node4 -->
<g id="node4" class="node">
<title>Node4</title>
<g id="a_node4"><a xlink:href="../../db/d40/classgenfit_1_1TrackPoint.html#a70f6a8e9214edad4fce38eafeeee820e" target="_top" xlink:title="genfit::TrackPoint\l::setTrack">
<polygon fill="none" stroke="#000000" points="644.5,-1554.5 644.5,-1586.5 748.5,-1586.5 748.5,-1554.5 644.5,-1554.5"/>
<text text-anchor="start" x="652.5" y="-1573.5" font-family="FreeSans" font-size="10.00" fill="#000000">genfit::TrackPoint</text>
<text text-anchor="middle" x="696.5" y="-1561.5" font-family="FreeSans" font-size="10.00" fill="#000000">::setTrack</text>
</a>
</g>
</g>
<!-- Node3&#45;&gt;Node4 -->
<g id="edge3" class="edge">
<title>Node3&#45;&gt;Node4</title>
<path fill="none" stroke="#191970" d="M499.1968,-1445.5965C516.3662,-1466.1233 558.2396,-1513.0172 603,-1539.5 612.79,-1545.2923 623.8048,-1550.1675 634.747,-1554.211"/>
<polygon fill="#191970" stroke="#191970" points="633.7167,-1557.5584 644.3115,-1557.5525 636.0254,-1550.9501 633.7167,-1557.5584"/>
</g>
<!-- Node5 -->
<g id="node5" class="node">
<title>Node5</title>
<g id="a_node5"><a xlink:href="../../d6/d8a/classgenfit_1_1Track.html#ad4ead0ee2abc2bcb6b616f8976bc559a" target="_top" xlink:title="genfit::Track::trackHasChanged">
<polygon fill="none" stroke="#000000" points="826,-1405.5 826,-1425.5 1001,-1425.5 1001,-1405.5 826,-1405.5"/>
<text text-anchor="middle" x="913.5" y="-1412.5" font-family="FreeSans" font-size="10.00" fill="#000000">genfit::Track::trackHasChanged</text>
</a>
</g>
</g>
<!-- Node3&#45;&gt;Node5 -->
<g id="edge4" class="edge">
<title>Node3&#45;&gt;Node5</title>
<path fill="none" stroke="#191970" d="M502.0125,-1445.5779C520.9509,-1462.1463 561.6548,-1494.4991 603,-1506.5 682.8168,-1529.6676 711.0432,-1532.4477 790,-1506.5 833.9418,-1492.0593 875.1018,-1455.3306 897.0309,-1433.2006"/>
<polygon fill="#191970" stroke="#191970" points="899.7745,-1435.3982 904.2094,-1425.7763 894.7421,-1430.5325 899.7745,-1435.3982"/>
</g>
<!-- Node6 -->
<g id="node6" class="node">
<title>Node6</title>
<g id="a_node6"><a xlink:href="../../db/d40/classgenfit_1_1TrackPoint.html#ada7b4d8c988a1798e455fb70929f88b7" target="_top" xlink:title="genfit::TrackPoint\l::hasRawMeasurements">
<polygon fill="none" stroke="#000000" points="628,-1464.5 628,-1496.5 765,-1496.5 765,-1464.5 628,-1464.5"/>
<text text-anchor="start" x="636" y="-1483.5" font-family="FreeSans" font-size="10.00" fill="#000000">genfit::TrackPoint</text>
<text text-anchor="middle" x="696.5" y="-1471.5" font-family="FreeSans" font-size="10.00" fill="#000000">::hasRawMeasurements</text>
</a>
</g>
</g>
<!-- Node3&#45;&gt;Node6 -->
<g id="edge5" class="edge">
<title>Node3&#45;&gt;Node6</title>
<path fill="none" stroke="#191970" d="M536.8624,-1445.5429C560.6724,-1450.7567 590.4335,-1457.2738 617.7869,-1463.2635"/>
<polygon fill="#191970" stroke="#191970" points="617.2227,-1466.7229 627.74,-1465.4431 618.7202,-1459.8849 617.2227,-1466.7229"/>
</g>
<!-- Node7 -->
<g id="node7" class="node">
<title>Node7</title>
<g id="a_node7"><a xlink:href="../../d6/d8a/classgenfit_1_1Track.html#aef6313a66e86853f9eef2e38f519bc37" target="_top" xlink:title="genfit::Track::deleteReferenceInfo">
<polygon fill="none" stroke="#000000" points="603,-1425.5 603,-1445.5 790,-1445.5 790,-1425.5 603,-1425.5"/>
<text text-anchor="middle" x="696.5" y="-1432.5" font-family="FreeSans" font-size="10.00" fill="#000000">genfit::Track::deleteReferenceInfo</text>
</a>
</g>
</g>
<!-- Node3&#45;&gt;Node7 -->
<g id="edge6" class="edge">
<title>Node3&#45;&gt;Node7</title>
<path fill="none" stroke="#191970" d="M561.1467,-1435.5C571.2797,-1435.5 581.8846,-1435.5 592.5073,-1435.5"/>
<polygon fill="#191970" stroke="#191970" points="592.6826,-1439.0001 602.6825,-1435.5 592.6825,-1432.0001 592.6826,-1439.0001"/>
</g>
<!-- Node8 -->
<g id="node8" class="node">
<title>Node8</title>
<g id="a_node8"><a xlink:href="../../d6/d8a/classgenfit_1_1Track.html#ad6ac9e44842a18fbba2577a887f008c5" target="_top" xlink:title="genfit::Track::deleteForwardInfo">
<polygon fill="none" stroke="#000000" points="608,-1386.5 608,-1406.5 785,-1406.5 785,-1386.5 608,-1386.5"/>
<text text-anchor="middle" x="696.5" y="-1393.5" font-family="FreeSans" font-size="10.00" fill="#000000">genfit::Track::deleteForwardInfo</text>
</a>
</g>
</g>
<!-- Node3&#45;&gt;Node8 -->
<g id="edge8" class="edge">
<title>Node3&#45;&gt;Node8</title>
<path fill="none" stroke="#191970" d="M543.9214,-1425.4565C571.3673,-1420.2478 605.0718,-1413.8513 633.8161,-1408.3962"/>
<polygon fill="#191970" stroke="#191970" points="634.586,-1411.8127 643.758,-1406.5094 633.2807,-1404.9354 634.586,-1411.8127"/>
</g>
<!-- Node9 -->
<g id="node9" class="node">
<title>Node9</title>
<g id="a_node9"><a xlink:href="../../d6/d8a/classgenfit_1_1Track.html#a409abb47dc8fb5134031f8af1ce9b44a" target="_top" xlink:title="genfit::Track::deleteBackwardInfo">
<polygon fill="none" stroke="#000000" points="603.5,-1347.5 603.5,-1367.5 789.5,-1367.5 789.5,-1347.5 603.5,-1347.5"/>
<text text-anchor="middle" x="696.5" y="-1354.5" font-family="FreeSans" font-size="10.00" fill="#000000">genfit::Track::deleteBackwardInfo</text>
</a>
</g>
</g>
<!-- Node3&#45;&gt;Node9 -->
<g id="edge10" class="edge">
<title>Node3&#45;&gt;Node9</title>
<path fill="none" stroke="#191970" d="M507.0728,-1425.4181C528.2827,-1412.5328 567.135,-1390.3597 603,-1377.5 610.974,-1374.6408 619.4843,-1372.1268 628.0003,-1369.934"/>
<polygon fill="#191970" stroke="#191970" points="629.0805,-1373.2733 637.968,-1367.5059 627.4237,-1366.4722 629.0805,-1373.2733"/>
</g>
<!-- Node10 -->
<g id="node10" class="node">
<title>Node10</title>
<g id="a_node10"><a xlink:href="../../d6/d8a/classgenfit_1_1Track.html#aebe51cd12b541bb8821c1b919480371d" target="_top" xlink:title="genfit::Track::fillPoints\lWithMeasurement">
<polygon fill="none" stroke="#000000" points="632.5,-1296.5 632.5,-1328.5 760.5,-1328.5 760.5,-1296.5 632.5,-1296.5"/>
<text text-anchor="start" x="640.5" y="-1315.5" font-family="FreeSans" font-size="10.00" fill="#000000">genfit::Track::fillPoints</text>
<text text-anchor="middle" x="696.5" y="-1303.5" font-family="FreeSans" font-size="10.00" fill="#000000">WithMeasurement</text>
</a>
</g>
</g>
<!-- Node3&#45;&gt;Node10 -->
<g id="edge12" class="edge">
<title>Node3&#45;&gt;Node10</title>
<path fill="none" stroke="#191970" d="M499.7884,-1425.3392C517.3815,-1405.634 559.0275,-1362.095 603,-1338.5 609.0847,-1335.2351 615.6175,-1332.3491 622.2991,-1329.8045"/>
<polygon fill="#191970" stroke="#191970" points="623.8997,-1332.9509 632.16,-1326.3163 621.5652,-1326.3517 623.8997,-1332.9509"/>
</g>
<!-- Node7&#45;&gt;Node5 -->
<g id="edge7" class="edge">
<title>Node7&#45;&gt;Node5</title>
<path fill="none" stroke="#191970" d="M790.102,-1426.8731C798.5017,-1426.0989 807.0229,-1425.3136 815.4589,-1424.536"/>
<polygon fill="#191970" stroke="#191970" points="816.0564,-1427.9959 825.6929,-1423.5928 815.4139,-1421.0254 816.0564,-1427.9959"/>
</g>
<!-- Node8&#45;&gt;Node5 -->
<g id="edge9" class="edge">
<title>Node8&#45;&gt;Node5</title>
<path fill="none" stroke="#191970" d="M785.0752,-1404.2554C795.1831,-1405.1405 805.5299,-1406.0464 815.7483,-1406.9411"/>
<polygon fill="#191970" stroke="#191970" points="815.6431,-1410.4452 825.9103,-1407.8309 816.2537,-1403.4719 815.6431,-1410.4452"/>
</g>
<!-- Node9&#45;&gt;Node5 -->
<g id="edge11" class="edge">
<title>Node9&#45;&gt;Node5</title>
<path fill="none" stroke="#191970" d="M747.6436,-1367.5925C761.4499,-1370.5474 776.345,-1373.9461 790,-1377.5 818.1141,-1384.817 849.3875,-1394.4553 873.4297,-1402.1939"/>
<polygon fill="#191970" stroke="#191970" points="872.6684,-1405.6264 883.2605,-1405.3818 874.8278,-1398.9678 872.6684,-1405.6264"/>
</g>
<!-- Node15 -->
<g id="node15" class="node">
<title>Node15</title>
<g id="a_node15"><a xlink:href="../../df/d9b/classCylinderGeom__Mvtx.html#aede358e384b225e6555bed9292f0310c" target="_top" xlink:title="CylinderGeom_Mvtx::\lget_world_from_local\l_coords">
<polygon fill="none" stroke="#000000" points="429,-1239.5 429,-1283.5 553,-1283.5 553,-1239.5 429,-1239.5"/>
<text text-anchor="start" x="437" y="-1270.5" font-family="FreeSans" font-size="10.00" fill="#000000">CylinderGeom_Mvtx::</text>
<text text-anchor="start" x="437" y="-1258.5" font-family="FreeSans" font-size="10.00" fill="#000000">get_world_from_local</text>
<text text-anchor="middle" x="491" y="-1246.5" font-family="FreeSans" font-size="10.00" fill="#000000">_coords</text>
</a>
</g>
</g>
<!-- Node14&#45;&gt;Node15 -->
<g id="edge17" class="edge">
<title>Node14&#45;&gt;Node15</title>
<path fill="none" stroke="#191970" d="M343.1546,-1261.5C366.754,-1261.5 393.8388,-1261.5 418.3249,-1261.5"/>
<polygon fill="#191970" stroke="#191970" points="418.6421,-1265.0001 428.6421,-1261.5 418.642,-1258.0001 418.6421,-1265.0001"/>
</g>
<!-- Node16 -->
<g id="node16" class="node">
<title>Node16</title>
<g id="a_node16"><a xlink:href="../../da/d55/TPCRateLayered_8m.html#ac40e4ec8f2a74a2878f06670249eebb8" target="_top" xlink:title="double">
<polygon fill="none" stroke="#000000" points="671,-1251.5 671,-1271.5 722,-1271.5 722,-1251.5 671,-1251.5"/>
<text text-anchor="middle" x="696.5" y="-1258.5" font-family="FreeSans" font-size="10.00" fill="#000000">double</text>
</a>
</g>
</g>
<!-- Node15&#45;&gt;Node16 -->
<g id="edge18" class="edge">
<title>Node15&#45;&gt;Node16</title>
<path fill="none" stroke="#191970" d="M553.2145,-1261.5C588.3553,-1261.5 631.0294,-1261.5 660.6214,-1261.5"/>
<polygon fill="#191970" stroke="#191970" points="660.8937,-1265.0001 670.8936,-1261.5 660.8936,-1258.0001 660.8937,-1265.0001"/>
</g>
<!-- Node42&#45;&gt;Node30 -->
<g id="edge45" class="edge">
<title>Node42&#45;&gt;Node30</title>
<path fill="none" stroke="#191970" d="M351.2368,-160.7254C361.4869,-164.5978 371.1968,-169.9966 379,-177.5 418.2167,-215.21 397.2849,-243.059 415,-294.5 436.6288,-357.3054 465.3194,-429.9408 480.5154,-467.6956"/>
<polygon fill="#191970" stroke="#191970" points="477.4371,-469.42 484.4266,-477.3823 483.928,-466.7992 477.4371,-469.42"/>
</g>
<!-- Node43 -->
<g id="node43" class="node">
<title>Node43</title>
<g id="a_node43"><a xlink:href="../../d6/d8a/classgenfit_1_1Track.html#aee4eab9e952ee6f0e0c1f1d980552759" target="_top" xlink:title="genfit::Track::checkConsistency">
<polygon fill="none" stroke="#ff0000" points="608.5,-228.5 608.5,-248.5 784.5,-248.5 784.5,-228.5 608.5,-228.5"/>
<text text-anchor="middle" x="696.5" y="-235.5" font-family="FreeSans" font-size="10.00" fill="#000000">genfit::Track::checkConsistency</text>
</a>
</g>
</g>
<!-- Node42&#45;&gt;Node43 -->
<g id="edge46" class="edge">
<title>Node42&#45;&gt;Node43</title>
<path fill="none" stroke="#191970" d="M351.0687,-161.6479C361.2193,-165.4132 370.942,-170.5372 379,-177.5 409.7333,-204.0564 381.0909,-239.1405 415,-261.5 492.8138,-312.8101 610.2739,-275.241 665.6011,-252.4934"/>
<polygon fill="#191970" stroke="#191970" points="667.0217,-255.6929 674.8728,-248.5788 664.2989,-249.2441 667.0217,-255.6929"/>
</g>
<!-- Node44 -->
<g id="node44" class="node">
<title>Node44</title>
<g id="a_node44"><a xlink:href="../../d8/db3/classgenfit_1_1Exception.html#a5cb44accc5d69d5742ed883a2d4ff88a" target="_top" xlink:title="Standard error message handling for exceptions. use like &quot;std::cerr &lt;&lt; e.what();&quot;.">
<polygon fill="none" stroke="#000000" points="424,-231.5 424,-251.5 558,-251.5 558,-231.5 424,-231.5"/>
<text text-anchor="middle" x="491" y="-238.5" font-family="FreeSans" font-size="10.00" fill="#000000">genfit::Exception::what</text>
</a>
</g>
</g>
<!-- Node42&#45;&gt;Node44 -->
<g id="edge47" class="edge">
<title>Node42&#45;&gt;Node44</title>
<path fill="none" stroke="#191970" d="M351.0954,-164.1847C360.9069,-167.6168 370.521,-171.9728 379,-177.5 400.4562,-191.4868 393.444,-208.6675 415,-222.5 417.8044,-224.2996 420.7681,-225.9287 423.8349,-227.4036"/>
<polygon fill="#191970" stroke="#191970" points="422.7139,-230.7291 433.2887,-231.3814 425.4288,-224.277 422.7139,-230.7291"/>
</g>
<!-- Node45 -->
<g id="node45" class="node">
<title>Node45</title>
<g id="a_node45"><a xlink:href="../../d0/dba/classgenfit_1_1AbsFitter.html#a03e279c67ca889f5fe6480eb8a1691cf" target="_top" xlink:title="genfit::AbsFitter::\lprocessTrack">
<polygon fill="none" stroke="#ff0000" points="439.5,-180.5 439.5,-212.5 542.5,-212.5 542.5,-180.5 439.5,-180.5"/>
<text text-anchor="start" x="447.5" y="-199.5" font-family="FreeSans" font-size="10.00" fill="#000000">genfit::AbsFitter::</text>
<text text-anchor="middle" x="491" y="-187.5" font-family="FreeSans" font-size="10.00" fill="#000000">processTrack</text>
</a>
</g>
</g>
<!-- Node42&#45;&gt;Node45 -->
<g id="edge48" class="edge">
<title>Node42&#45;&gt;Node45</title>
<path fill="none" stroke="#191970" d="M351.2189,-166.5469C376.5797,-171.9814 404.9923,-178.0698 429.5446,-183.331"/>
<polygon fill="#191970" stroke="#191970" points="428.9435,-186.7816 439.4549,-185.4546 430.4103,-179.9369 428.9435,-186.7816"/>
</g>
<!-- Node46 -->
<g id="node46" class="node">
<title>Node46</title>
<g id="a_node46"><a xlink:href="../../d6/d8a/classgenfit_1_1Track.html#a402b35300e81a48c7f0b9eb082b1cf24" target="_top" xlink:title="Get cardinal track representation.">
<polygon fill="none" stroke="#000000" points="615,-141.5 615,-161.5 778,-161.5 778,-141.5 615,-141.5"/>
<text text-anchor="middle" x="696.5" y="-148.5" font-family="FreeSans" font-size="10.00" fill="#000000">genfit::Track::getCardinalRep</text>
</a>
</g>
</g>
<!-- Node42&#45;&gt;Node46 -->
<g id="edge51" class="edge">
<title>Node42&#45;&gt;Node46</title>
<path fill="none" stroke="#191970" d="M351.0141,-151.5C420.7362,-151.5 528.1281,-151.5 604.6584,-151.5"/>
<polygon fill="#191970" stroke="#191970" points="604.7738,-155.0001 614.7738,-151.5 604.7737,-148.0001 604.7738,-155.0001"/>
</g>
<!-- Node47 -->
<g id="node47" class="node">
<title>Node47</title>
<g id="a_node47"><a xlink:href="../../d6/d8a/classgenfit_1_1Track.html#ad06e7a012624bdb03960826b5c9fcd93" target="_top" xlink:title="Get FitStatus for a AbsTrackRep. Per default, return FitStatus for cardinalRep.">
<polygon fill="none" stroke="#000000" points="418,-102.5 418,-122.5 564,-122.5 564,-102.5 418,-102.5"/>
<text text-anchor="middle" x="491" y="-109.5" font-family="FreeSans" font-size="10.00" fill="#000000">genfit::Track::getFitStatus</text>
</a>
</g>
</g>
<!-- Node42&#45;&gt;Node47 -->
<g id="edge52" class="edge">
<title>Node42&#45;&gt;Node47</title>
<path fill="none" stroke="#191970" d="M351.2189,-138.4593C375.7367,-133.906 403.1068,-128.823 427.0836,-124.3702"/>
<polygon fill="#191970" stroke="#191970" points="427.9406,-127.771 437.1334,-122.5038 426.6624,-120.8886 427.9406,-127.771"/>
</g>
<!-- Node48 -->
<g id="node48" class="node">
<title>Node48</title>
<g id="a_node48"><a xlink:href="../../d0/d8d/classgenfit_1_1FitStatus.html#a56371ce504bee72fcf2f9324ddcb91a8" target="_top" xlink:title="Did the fit converge (in all Points or only partially)?">
<polygon fill="none" stroke="#000000" points="440,-51.5 440,-83.5 542,-83.5 542,-51.5 440,-51.5"/>
<text text-anchor="start" x="448" y="-70.5" font-family="FreeSans" font-size="10.00" fill="#000000">genfit::FitStatus::</text>
<text text-anchor="middle" x="491" y="-58.5" font-family="FreeSans" font-size="10.00" fill="#000000">isFitConverged</text>
</a>
</g>
</g>
<!-- Node42&#45;&gt;Node48 -->
<g id="edge54" class="edge">
<title>Node42&#45;&gt;Node48</title>
<path fill="none" stroke="#191970" d="M351.149,-137.3516C360.7986,-134.137 370.3523,-130.2314 379,-125.5 398.0414,-115.0818 396.2713,-103.4703 415,-92.5 419.7941,-89.6919 424.9455,-87.1509 430.2255,-84.8622"/>
<polygon fill="#191970" stroke="#191970" points="431.8423,-87.9848 439.8191,-81.0118 429.235,-81.4885 431.8423,-87.9848"/>
</g>
<!-- Node49 -->
<g id="node49" class="node">
<title>Node49</title>
<g id="a_node49"><a xlink:href="../../d4/d1a/classgenfit_1_1EventDisplay.html#a273f0f885e02d740befd1d3b18489a16" target="_top" xlink:title="Add new event.">
<polygon fill="none" stroke="#000000" points="431.5,-.5 431.5,-32.5 550.5,-32.5 550.5,-.5 431.5,-.5"/>
<text text-anchor="start" x="439.5" y="-19.5" font-family="FreeSans" font-size="10.00" fill="#000000">genfit::EventDisplay</text>
<text text-anchor="middle" x="491" y="-7.5" font-family="FreeSans" font-size="10.00" fill="#000000">::addEvent</text>
</a>
</g>
</g>
<!-- Node42&#45;&gt;Node49 -->
<g id="edge55" class="edge">
<title>Node42&#45;&gt;Node49</title>
<path fill="none" stroke="#191970" d="M351.0687,-141.3521C361.2193,-137.5868 370.942,-132.4628 379,-125.5 409.7333,-98.9436 385.056,-68.9433 415,-41.5 417.3312,-39.3635 419.8488,-37.4093 422.5012,-35.6218"/>
<polygon fill="#191970" stroke="#191970" points="424.4855,-38.5166 431.3679,-30.4616 420.9645,-32.4666 424.4855,-38.5166"/>
</g>
<!-- Node45&#45;&gt;Node43 -->
<g id="edge50" class="edge">
<title>Node45&#45;&gt;Node43</title>
<path fill="none" stroke="#191970" d="M542.5911,-207.0442C571.4318,-212.9386 607.4923,-220.3086 637.4573,-226.4329"/>
<polygon fill="#191970" stroke="#191970" points="636.8681,-229.8847 647.3664,-228.4581 638.2698,-223.0265 636.8681,-229.8847"/>
</g>
<!-- Node45&#45;&gt;Node46 -->
<g id="edge49" class="edge">
<title>Node45&#45;&gt;Node46</title>
<path fill="none" stroke="#191970" d="M542.5911,-185.2027C572.3932,-178.6767 609.9043,-170.4626 640.433,-163.7775"/>
<polygon fill="#191970" stroke="#191970" points="641.4774,-167.1318 650.4972,-161.5736 639.98,-160.2938 641.4774,-167.1318"/>
</g>
<!-- Node47&#45;&gt;Node46 -->
<g id="edge53" class="edge">
<title>Node47&#45;&gt;Node46</title>
<path fill="none" stroke="#191970" d="M543.9214,-122.5435C571.3673,-127.7522 605.0718,-134.1487 633.8161,-139.6038"/>
<polygon fill="#191970" stroke="#191970" points="633.2807,-143.0646 643.758,-141.4906 634.586,-136.1873 633.2807,-143.0646"/>
</g>
</g>
</svg>
