<?xml version="1.0" encoding="UTF-8" standalone="no"?>
<!DOCTYPE svg PUBLIC "-//W3C//DTD SVG 1.1//EN"
 "http://www.w3.org/Graphics/SVG/1.1/DTD/svg11.dtd">
<!-- Generated by graphviz version 2.40.1 (20161225.0304)
 -->
<!-- Title: SVReco::GetSVMass_mom Pages: 1 -->
<svg width="367pt" height="284pt"
 viewBox="0.00 0.00 367.00 284.00" xmlns="http://www.w3.org/2000/svg" xmlns:xlink="http://www.w3.org/1999/xlink">
<g id="graph0" class="graph" transform="scale(1 1) rotate(0) translate(4 280)">
<title>SVReco::GetSVMass_mom</title>
<!-- Node1 -->
<g id="node1" class="node">
<title>Node1</title>
<polygon fill="#bfbfbf" stroke="#000000" points="0,-133.5 0,-153.5 148,-153.5 148,-133.5 0,-133.5"/>
<text text-anchor="middle" x="74" y="-140.5" font-family="FreeSans" font-size="10.00" fill="#000000">SVReco::GetSVMass_mom</text>
</g>
<!-- Node2 -->
<g id="node2" class="node">
<title>Node2</title>
<g id="a_node2"><a xlink:href="../../d6/d8a/classgenfit_1_1Track.html#a2b70396853556fba71311a05a4e70039" target="_top" xlink:title="Get the MCT track id, for MC simulations &#45; default value = &#45;1.">
<polygon fill="none" stroke="#000000" points="195.5,-255.5 195.5,-275.5 347.5,-275.5 347.5,-255.5 195.5,-255.5"/>
<text text-anchor="middle" x="271.5" y="-262.5" font-family="FreeSans" font-size="10.00" fill="#000000">genfit::Track::getMcTrackId</text>
</a>
</g>
</g>
<!-- Node1&#45;&gt;Node2 -->
<g id="edge1" class="edge">
<title>Node1&#45;&gt;Node2</title>
<path fill="none" stroke="#191970" d="M81.5625,-153.5754C97.8234,-174.4683 138.3605,-222.5545 184,-246.5 187.9791,-248.5877 192.1751,-250.4461 196.4885,-252.1005"/>
<polygon fill="#191970" stroke="#191970" points="195.4851,-255.4567 206.0798,-255.4061 197.766,-248.8387 195.4851,-255.4567"/>
</g>
<!-- Node3 -->
<g id="node3" class="node">
<title>Node3</title>
<g id="a_node3"><a xlink:href="../../d8/d8c/classgenfit_1_1GFRaveTrackParameters.html#aaa4317aacf0f546736d9c9857c1602ed" target="_top" xlink:title="genfit::GFRaveTrackParameters\l::getMom">
<polygon fill="none" stroke="#000000" points="184,-204.5 184,-236.5 359,-236.5 359,-204.5 184,-204.5"/>
<text text-anchor="start" x="192" y="-223.5" font-family="FreeSans" font-size="10.00" fill="#000000">genfit::GFRaveTrackParameters</text>
<text text-anchor="middle" x="271.5" y="-211.5" font-family="FreeSans" font-size="10.00" fill="#000000">::getMom</text>
</a>
</g>
</g>
<!-- Node1&#45;&gt;Node3 -->
<g id="edge2" class="edge">
<title>Node1&#45;&gt;Node3</title>
<path fill="none" stroke="#191970" d="M93.0588,-153.6825C114.673,-164.9514 151.182,-183.1492 184,-195.5 189.3993,-197.532 195.0386,-199.493 200.7396,-201.3618"/>
<polygon fill="#191970" stroke="#191970" points="199.7703,-204.7262 210.3606,-204.4162 201.8885,-198.0543 199.7703,-204.7262"/>
</g>
<!-- Node4 -->
<g id="node4" class="node">
<title>Node4</title>
<g id="a_node4"><a xlink:href="../../db/da0/classgenfit_1_1GFRaveVertex.html#a47ada7742989e3e294a3cc9f1342fee7" target="_top" xlink:title="Number of tracks the vertex is made of.">
<polygon fill="none" stroke="#000000" points="209.5,-153.5 209.5,-185.5 333.5,-185.5 333.5,-153.5 209.5,-153.5"/>
<text text-anchor="start" x="217.5" y="-172.5" font-family="FreeSans" font-size="10.00" fill="#000000">genfit::GFRaveVertex</text>
<text text-anchor="middle" x="271.5" y="-160.5" font-family="FreeSans" font-size="10.00" fill="#000000">::getNTracks</text>
</a>
</g>
</g>
<!-- Node1&#45;&gt;Node4 -->
<g id="edge3" class="edge">
<title>Node1&#45;&gt;Node4</title>
<path fill="none" stroke="#191970" d="M148.1036,-153.2554C164.782,-155.451 182.4623,-157.7786 199.0711,-159.9651"/>
<polygon fill="#191970" stroke="#191970" points="198.8841,-163.4706 209.2554,-161.3058 199.7978,-156.5304 198.8841,-163.4706"/>
</g>
<!-- Node5 -->
<g id="node5" class="node">
<title>Node5</title>
<g id="a_node5"><a xlink:href="../../db/da0/classgenfit_1_1GFRaveVertex.html#a14875bcfb7c0b9373ec2bb6010c78d8d" target="_top" xlink:title="genfit::GFRaveVertex\l::getParameters">
<polygon fill="none" stroke="#000000" points="209.5,-102.5 209.5,-134.5 333.5,-134.5 333.5,-102.5 209.5,-102.5"/>
<text text-anchor="start" x="217.5" y="-121.5" font-family="FreeSans" font-size="10.00" fill="#000000">genfit::GFRaveVertex</text>
<text text-anchor="middle" x="271.5" y="-109.5" font-family="FreeSans" font-size="10.00" fill="#000000">::getParameters</text>
</a>
</g>
</g>
<!-- Node1&#45;&gt;Node5 -->
<g id="edge4" class="edge">
<title>Node1&#45;&gt;Node5</title>
<path fill="none" stroke="#191970" d="M148.1036,-134.1198C164.782,-132.0086 182.4623,-129.7706 199.0711,-127.6682"/>
<polygon fill="#191970" stroke="#191970" points="199.7742,-131.1072 209.2554,-126.3791 198.8951,-124.1627 199.7742,-131.1072"/>
</g>
<!-- Node6 -->
<g id="node6" class="node">
<title>Node6</title>
<g id="a_node6"><a xlink:href="../../d8/d8c/classgenfit_1_1GFRaveTrackParameters.html#ae57b8111cfcb4426a9d00096ad045de4" target="_top" xlink:title="genfit::GFRaveTrackParameters\l::getTrack">
<polygon fill="none" stroke="#000000" points="184,-51.5 184,-83.5 359,-83.5 359,-51.5 184,-51.5"/>
<text text-anchor="start" x="192" y="-70.5" font-family="FreeSans" font-size="10.00" fill="#000000">genfit::GFRaveTrackParameters</text>
<text text-anchor="middle" x="271.5" y="-58.5" font-family="FreeSans" font-size="10.00" fill="#000000">::getTrack</text>
</a>
</g>
</g>
<!-- Node1&#45;&gt;Node6 -->
<g id="edge5" class="edge">
<title>Node1&#45;&gt;Node6</title>
<path fill="none" stroke="#191970" d="M93.923,-133.4361C115.6941,-122.6782 151.7748,-105.5462 184,-93.5 190.2833,-91.1512 196.8809,-88.8684 203.5171,-86.6938"/>
<polygon fill="#191970" stroke="#191970" points="204.7741,-89.9666 213.2354,-83.5903 202.6446,-83.2984 204.7741,-89.9666"/>
</g>
<!-- Node7 -->
<g id="node7" class="node">
<title>Node7</title>
<g id="a_node7"><a xlink:href="../../d8/d8c/classgenfit_1_1GFRaveTrackParameters.html#ad0f0bc629e7836a06363cb4b7fc09429" target="_top" xlink:title="genfit::GFRaveTrackParameters\l::getWeight">
<polygon fill="none" stroke="#000000" points="184,-.5 184,-32.5 359,-32.5 359,-.5 184,-.5"/>
<text text-anchor="start" x="192" y="-19.5" font-family="FreeSans" font-size="10.00" fill="#000000">genfit::GFRaveTrackParameters</text>
<text text-anchor="middle" x="271.5" y="-7.5" font-family="FreeSans" font-size="10.00" fill="#000000">::getWeight</text>
</a>
</g>
</g>
<!-- Node1&#45;&gt;Node7 -->
<g id="edge6" class="edge">
<title>Node1&#45;&gt;Node7</title>
<path fill="none" stroke="#191970" d="M82.2693,-133.2766C99.2177,-112.9853 140.0213,-67.436 184,-42.5 187.7221,-40.3896 191.6324,-38.4351 195.6498,-36.6271"/>
<polygon fill="#191970" stroke="#191970" points="197.2866,-39.7373 205.1799,-32.6701 194.6022,-33.2724 197.2866,-39.7373"/>
</g>
</g>
</svg>
