<?xml version="1.0" encoding="UTF-8" standalone="no"?>
<!DOCTYPE svg PUBLIC "-//W3C//DTD SVG 1.1//EN"
 "http://www.w3.org/Graphics/SVG/1.1/DTD/svg11.dtd">
<!-- Generated by graphviz version 2.40.1 (20161225.0304)
 -->
<!-- Title: SVReco::GFRVVtxToSvtxVertex Pages: 1 -->
<svg width="389pt" height="554pt"
 viewBox="0.00 0.00 389.00 554.00" xmlns="http://www.w3.org/2000/svg" xmlns:xlink="http://www.w3.org/1999/xlink">
<g id="graph0" class="graph" transform="scale(1 1) rotate(0) translate(4 550)">
<title>SVReco::GFRVVtxToSvtxVertex</title>
<!-- Node1 -->
<g id="node1" class="node">
<title>Node1</title>
<polygon fill="#bfbfbf" stroke="#000000" points="0,-238.5 0,-258.5 170,-258.5 170,-238.5 0,-238.5"/>
<text text-anchor="middle" x="85" y="-245.5" font-family="FreeSans" font-size="10.00" fill="#000000">SVReco::GFRVVtxToSvtxVertex</text>
</g>
<!-- Node2 -->
<g id="node2" class="node">
<title>Node2</title>
<g id="a_node2"><a xlink:href="../../db/da0/classgenfit_1_1GFRaveVertex.html#aa226bc70ee2447569467de599e6d05e7" target="_top" xlink:title="genfit::GFRaveVertex\l::getChi2">
<polygon fill="none" stroke="#000000" points="231.5,-513.5 231.5,-545.5 355.5,-545.5 355.5,-513.5 231.5,-513.5"/>
<text text-anchor="start" x="239.5" y="-532.5" font-family="FreeSans" font-size="10.00" fill="#000000">genfit::GFRaveVertex</text>
<text text-anchor="middle" x="293.5" y="-520.5" font-family="FreeSans" font-size="10.00" fill="#000000">::getChi2</text>
</a>
</g>
</g>
<!-- Node1&#45;&gt;Node2 -->
<g id="edge1" class="edge">
<title>Node1&#45;&gt;Node2</title>
<path fill="none" stroke="#191970" d="M86.7085,-258.6313C93.7231,-297.0145 123.9214,-434.834 206,-504.5 210.8218,-508.5926 216.2752,-512.0166 222.0447,-514.8809"/>
<polygon fill="#191970" stroke="#191970" points="220.7612,-518.1396 231.326,-518.9372 223.5645,-511.7254 220.7612,-518.1396"/>
</g>
<!-- Node3 -->
<g id="node3" class="node">
<title>Node3</title>
<g id="a_node3"><a xlink:href="../../db/da0/classgenfit_1_1GFRaveVertex.html#a25d5cd4f3c081231c4d77f80fefbade1" target="_top" xlink:title="get 3x3 covariance (error) of position.">
<polygon fill="none" stroke="#000000" points="231.5,-462.5 231.5,-494.5 355.5,-494.5 355.5,-462.5 231.5,-462.5"/>
<text text-anchor="start" x="239.5" y="-481.5" font-family="FreeSans" font-size="10.00" fill="#000000">genfit::GFRaveVertex</text>
<text text-anchor="middle" x="293.5" y="-469.5" font-family="FreeSans" font-size="10.00" fill="#000000">::getCov</text>
</a>
</g>
</g>
<!-- Node1&#45;&gt;Node3 -->
<g id="edge2" class="edge">
<title>Node1&#45;&gt;Node3</title>
<path fill="none" stroke="#191970" d="M88.0512,-258.8761C98.4843,-292.5026 136.0209,-399.4195 206,-453.5 210.9222,-457.3039 216.4003,-460.5292 222.1467,-463.2637"/>
<polygon fill="#191970" stroke="#191970" points="220.7837,-466.4873 231.3565,-467.1695 223.5168,-460.0429 220.7837,-466.4873"/>
</g>
<!-- Node4 -->
<g id="node4" class="node">
<title>Node4</title>
<g id="a_node4"><a xlink:href="../../db/da0/classgenfit_1_1GFRaveVertex.html#a49fda0bfc9f1bd338c21ca973e8552b9" target="_top" xlink:title="genfit::GFRaveVertex\l::getNdf">
<polygon fill="none" stroke="#000000" points="231.5,-411.5 231.5,-443.5 355.5,-443.5 355.5,-411.5 231.5,-411.5"/>
<text text-anchor="start" x="239.5" y="-430.5" font-family="FreeSans" font-size="10.00" fill="#000000">genfit::GFRaveVertex</text>
<text text-anchor="middle" x="293.5" y="-418.5" font-family="FreeSans" font-size="10.00" fill="#000000">::getNdf</text>
</a>
</g>
</g>
<!-- Node1&#45;&gt;Node4 -->
<g id="edge3" class="edge">
<title>Node1&#45;&gt;Node4</title>
<path fill="none" stroke="#191970" d="M89.9749,-258.5523C104.1066,-286.0461 147.2946,-363.0604 206,-402.5 210.8727,-405.7736 216.1743,-408.6236 221.6775,-411.104"/>
<polygon fill="#191970" stroke="#191970" points="220.5079,-414.4067 231.0893,-414.9388 223.1492,-407.9242 220.5079,-414.4067"/>
</g>
<!-- Node5 -->
<g id="node5" class="node">
<title>Node5</title>
<g id="a_node5"><a xlink:href="../../db/da0/classgenfit_1_1GFRaveVertex.html#a47ada7742989e3e294a3cc9f1342fee7" target="_top" xlink:title="Number of tracks the vertex is made of.">
<polygon fill="none" stroke="#000000" points="231.5,-360.5 231.5,-392.5 355.5,-392.5 355.5,-360.5 231.5,-360.5"/>
<text text-anchor="start" x="239.5" y="-379.5" font-family="FreeSans" font-size="10.00" fill="#000000">genfit::GFRaveVertex</text>
<text text-anchor="middle" x="293.5" y="-367.5" font-family="FreeSans" font-size="10.00" fill="#000000">::getNTracks</text>
</a>
</g>
</g>
<!-- Node1&#45;&gt;Node5 -->
<g id="edge4" class="edge">
<title>Node1&#45;&gt;Node5</title>
<path fill="none" stroke="#191970" d="M93.9698,-258.6143C112.7296,-279.1557 158.3362,-325.969 206,-351.5 211.0854,-354.224 216.5004,-356.6796 222.0474,-358.8878"/>
<polygon fill="#191970" stroke="#191970" points="220.8791,-362.1874 231.4723,-362.3744 223.3079,-355.6222 220.8791,-362.1874"/>
</g>
<!-- Node6 -->
<g id="node6" class="node">
<title>Node6</title>
<g id="a_node6"><a xlink:href="../../db/da0/classgenfit_1_1GFRaveVertex.html#a14875bcfb7c0b9373ec2bb6010c78d8d" target="_top" xlink:title="genfit::GFRaveVertex\l::getParameters">
<polygon fill="none" stroke="#000000" points="231.5,-309.5 231.5,-341.5 355.5,-341.5 355.5,-309.5 231.5,-309.5"/>
<text text-anchor="start" x="239.5" y="-328.5" font-family="FreeSans" font-size="10.00" fill="#000000">genfit::GFRaveVertex</text>
<text text-anchor="middle" x="293.5" y="-316.5" font-family="FreeSans" font-size="10.00" fill="#000000">::getParameters</text>
</a>
</g>
</g>
<!-- Node1&#45;&gt;Node6 -->
<g id="edge5" class="edge">
<title>Node1&#45;&gt;Node6</title>
<path fill="none" stroke="#191970" d="M106.0922,-258.5409C129.9821,-269.6829 170.244,-287.7675 206,-300.5 211.6254,-302.5032 217.4972,-304.4598 223.4198,-306.34"/>
<polygon fill="#191970" stroke="#191970" points="222.813,-309.8159 233.4007,-309.4267 224.8813,-303.1284 222.813,-309.8159"/>
</g>
<!-- Node7 -->
<g id="node7" class="node">
<title>Node7</title>
<g id="a_node7"><a xlink:href="../../db/da0/classgenfit_1_1GFRaveVertex.html#a4818bdeb821d19b283ae026af388e92b" target="_top" xlink:title="get Position">
<polygon fill="none" stroke="#000000" points="231.5,-258.5 231.5,-290.5 355.5,-290.5 355.5,-258.5 231.5,-258.5"/>
<text text-anchor="start" x="239.5" y="-277.5" font-family="FreeSans" font-size="10.00" fill="#000000">genfit::GFRaveVertex</text>
<text text-anchor="middle" x="293.5" y="-265.5" font-family="FreeSans" font-size="10.00" fill="#000000">::getPos</text>
</a>
</g>
</g>
<!-- Node1&#45;&gt;Node7 -->
<g id="edge6" class="edge">
<title>Node1&#45;&gt;Node7</title>
<path fill="none" stroke="#191970" d="M165.3133,-258.5151C183.7151,-260.8098 203.1688,-263.2357 221.209,-265.4853"/>
<polygon fill="#191970" stroke="#191970" points="221.0021,-268.9865 231.3584,-266.7509 221.8683,-262.0403 221.0021,-268.9865"/>
</g>
<!-- Node8 -->
<g id="node8" class="node">
<title>Node8</title>
<g id="a_node8"><a xlink:href="../../d8/d8c/classgenfit_1_1GFRaveTrackParameters.html#ae57b8111cfcb4426a9d00096ad045de4" target="_top" xlink:title="genfit::GFRaveTrackParameters\l::getTrack">
<polygon fill="none" stroke="#000000" points="206,-207.5 206,-239.5 381,-239.5 381,-207.5 206,-207.5"/>
<text text-anchor="start" x="214" y="-226.5" font-family="FreeSans" font-size="10.00" fill="#000000">genfit::GFRaveTrackParameters</text>
<text text-anchor="middle" x="293.5" y="-214.5" font-family="FreeSans" font-size="10.00" fill="#000000">::getTrack</text>
</a>
</g>
</g>
<!-- Node1&#45;&gt;Node8 -->
<g id="edge7" class="edge">
<title>Node1&#45;&gt;Node8</title>
<path fill="none" stroke="#191970" d="M168.6036,-238.4756C177.4936,-237.4096 186.5922,-236.3187 195.6268,-235.2354"/>
<polygon fill="#191970" stroke="#191970" points="196.2732,-238.6831 205.7853,-234.0173 195.4397,-231.7328 196.2732,-238.6831"/>
</g>
<!-- Node9 -->
<g id="node9" class="node">
<title>Node9</title>
<g id="a_node9"><a xlink:href="../../d2/d6d/classSvtxVertex.html#a4f9e50d534d3575ad11e738fcdd723d0" target="_top" xlink:title="SvtxVertex::insert\l_track">
<polygon fill="none" stroke="#000000" points="240,-156.5 240,-188.5 347,-188.5 347,-156.5 240,-156.5"/>
<text text-anchor="start" x="248" y="-175.5" font-family="FreeSans" font-size="10.00" fill="#000000">SvtxVertex::insert</text>
<text text-anchor="middle" x="293.5" y="-163.5" font-family="FreeSans" font-size="10.00" fill="#000000">_track</text>
</a>
</g>
</g>
<!-- Node1&#45;&gt;Node9 -->
<g id="edge8" class="edge">
<title>Node1&#45;&gt;Node9</title>
<path fill="none" stroke="#191970" d="M107.4767,-238.3949C131.5705,-227.7563 171.0756,-210.8675 206,-198.5 213.6466,-195.7922 221.7336,-193.1277 229.7792,-190.5975"/>
<polygon fill="#191970" stroke="#191970" points="231.0176,-193.8783 239.5401,-187.584 228.9526,-187.1898 231.0176,-193.8783"/>
</g>
<!-- Node10 -->
<g id="node10" class="node">
<title>Node10</title>
<g id="a_node10"><a xlink:href="../../d2/d6d/classSvtxVertex.html#a140a4c7e82ba91f00345dd1affec1555" target="_top" xlink:title="SvtxVertex::set_chisq">
<polygon fill="none" stroke="#000000" points="231.5,-117.5 231.5,-137.5 355.5,-137.5 355.5,-117.5 231.5,-117.5"/>
<text text-anchor="middle" x="293.5" y="-124.5" font-family="FreeSans" font-size="10.00" fill="#000000">SvtxVertex::set_chisq</text>
</a>
</g>
</g>
<!-- Node1&#45;&gt;Node10 -->
<g id="edge9" class="edge">
<title>Node1&#45;&gt;Node10</title>
<path fill="none" stroke="#191970" d="M93.9054,-238.3812C112.5466,-217.8682 157.9457,-171.3163 206,-147.5 211.2772,-144.8845 216.9035,-142.6054 222.6608,-140.6204"/>
<polygon fill="#191970" stroke="#191970" points="223.9438,-143.886 232.435,-137.5497 221.8457,-137.2078 223.9438,-143.886"/>
</g>
<!-- Node11 -->
<g id="node11" class="node">
<title>Node11</title>
<g id="a_node11"><a xlink:href="../../d2/d6d/classSvtxVertex.html#ada56ff6d35509d42161b32b83e253374" target="_top" xlink:title="SvtxVertex::set_error">
<polygon fill="none" stroke="#000000" points="232,-78.5 232,-98.5 355,-98.5 355,-78.5 232,-78.5"/>
<text text-anchor="middle" x="293.5" y="-85.5" font-family="FreeSans" font-size="10.00" fill="#000000">SvtxVertex::set_error</text>
</a>
</g>
</g>
<!-- Node1&#45;&gt;Node11 -->
<g id="edge10" class="edge">
<title>Node1&#45;&gt;Node11</title>
<path fill="none" stroke="#191970" d="M90.5538,-238.4673C105.4957,-212.4748 149.2853,-142.6036 206,-108.5 211.0475,-105.4648 216.5119,-102.8899 222.1602,-100.7056"/>
<polygon fill="#191970" stroke="#191970" points="223.4831,-103.9518 231.798,-97.3858 221.2033,-97.3334 223.4831,-103.9518"/>
</g>
<!-- Node12 -->
<g id="node12" class="node">
<title>Node12</title>
<g id="a_node12"><a xlink:href="../../d2/d6d/classSvtxVertex.html#a8f1c442a85a9fae9ae002b75a3ba2dee" target="_top" xlink:title="SvtxVertex::set_ndof">
<polygon fill="none" stroke="#000000" points="232.5,-39.5 232.5,-59.5 354.5,-59.5 354.5,-39.5 232.5,-39.5"/>
<text text-anchor="middle" x="293.5" y="-46.5" font-family="FreeSans" font-size="10.00" fill="#000000">SvtxVertex::set_ndof</text>
</a>
</g>
</g>
<!-- Node1&#45;&gt;Node12 -->
<g id="edge11" class="edge">
<title>Node1&#45;&gt;Node12</title>
<path fill="none" stroke="#191970" d="M88.6803,-238.4366C100.4665,-207.7038 140.3919,-114.4372 206,-69.5 211.1465,-65.975 216.823,-63.0633 222.738,-60.6595"/>
<polygon fill="#191970" stroke="#191970" points="223.9471,-63.9442 232.1873,-57.2847 221.5926,-57.3521 223.9471,-63.9442"/>
</g>
<!-- Node13 -->
<g id="node13" class="node">
<title>Node13</title>
<g id="a_node13"><a xlink:href="../../d2/d6d/classSvtxVertex.html#a56c16b5dc66f871585e5ed0bc5d59957" target="_top" xlink:title="SvtxVertex::set_position">
<polygon fill="none" stroke="#000000" points="224.5,-.5 224.5,-20.5 362.5,-20.5 362.5,-.5 224.5,-.5"/>
<text text-anchor="middle" x="293.5" y="-7.5" font-family="FreeSans" font-size="10.00" fill="#000000">SvtxVertex::set_position</text>
</a>
</g>
</g>
<!-- Node1&#45;&gt;Node13 -->
<g id="edge12" class="edge">
<title>Node1&#45;&gt;Node13</title>
<path fill="none" stroke="#191970" d="M87.4644,-238.3101C96.4996,-203.2492 131.2517,-86.6662 206,-30.5 208.8264,-28.3763 211.839,-26.4719 214.9827,-24.7646"/>
<polygon fill="#191970" stroke="#191970" points="216.5834,-27.8796 224.1433,-20.4568 213.6045,-21.5451 216.5834,-27.8796"/>
</g>
</g>
</svg>
