<?xml version="1.0" encoding="UTF-8" standalone="no"?>
<!DOCTYPE svg PUBLIC "-//W3C//DTD SVG 1.1//EN"
 "http://www.w3.org/Graphics/SVG/1.1/DTD/svg11.dtd">
<!-- Generated by graphviz version 2.40.1 (20161225.0304)
 -->
<!-- Title: GenFit/blob/master/finitePlanes/include/RectangularFinitePlane.h Pages: 1 -->
<svg width="473pt" height="134pt"
 viewBox="0.00 0.00 472.50 134.00" xmlns="http://www.w3.org/2000/svg" xmlns:xlink="http://www.w3.org/1999/xlink">
<g id="graph0" class="graph" transform="scale(1 1) rotate(0) translate(4 130)">
<title>GenFit/blob/master/finitePlanes/include/RectangularFinitePlane.h</title>
<!-- Node1 -->
<g id="node1" class="node">
<title>Node1</title>
<polygon fill="#bfbfbf" stroke="#000000" points="175,-81.5 175,-125.5 321,-125.5 321,-81.5 175,-81.5"/>
<text text-anchor="start" x="183" y="-112.5" font-family="FreeSans" font-size="10.00" fill="#000000">GenFit/blob/master</text>
<text text-anchor="start" x="183" y="-100.5" font-family="FreeSans" font-size="10.00" fill="#000000">/finitePlanes/include</text>
<text text-anchor="middle" x="248" y="-88.5" font-family="FreeSans" font-size="10.00" fill="#000000">/RectangularFinitePlane.h</text>
</g>
<!-- Node2 -->
<g id="node2" class="node">
<title>Node2</title>
<g id="a_node2"><a xlink:href="../../db/d13/RectangularFinitePlane_8cc.html" target="_top" xlink:title="GenFit/blob/master\l/finitePlanes/src/Rectangular\lFinitePlane.cc">
<polygon fill="none" stroke="#000000" points="0,-.5 0,-44.5 162,-44.5 162,-.5 0,-.5"/>
<text text-anchor="start" x="8" y="-31.5" font-family="FreeSans" font-size="10.00" fill="#000000">GenFit/blob/master</text>
<text text-anchor="start" x="8" y="-19.5" font-family="FreeSans" font-size="10.00" fill="#000000">/finitePlanes/src/Rectangular</text>
<text text-anchor="middle" x="81" y="-7.5" font-family="FreeSans" font-size="10.00" fill="#000000">FinitePlane.cc</text>
</a>
</g>
</g>
<!-- Node1&#45;&gt;Node2 -->
<g id="edge1" class="edge">
<title>Node1&#45;&gt;Node2</title>
<path fill="none" stroke="#191970" d="M193.3107,-76.9741C171.7154,-66.4997 147.1898,-54.604 126.5783,-44.6068"/>
<polygon fill="#191970" stroke="#191970" points="191.8416,-80.1514 202.3665,-81.3664 194.8964,-73.8532 191.8416,-80.1514"/>
</g>
<!-- Node3 -->
<g id="node3" class="node">
<title>Node3</title>
<g id="a_node3"><a xlink:href="../../d0/d48/GenFit_2blob_2master_2test_2fitterTests_2main_8cc.html" target="_top" xlink:title="GenFit/blob/master\l/test/fitterTests/main.cc">
<polygon fill="none" stroke="#000000" points="180.5,-6.5 180.5,-38.5 315.5,-38.5 315.5,-6.5 180.5,-6.5"/>
<text text-anchor="start" x="188.5" y="-25.5" font-family="FreeSans" font-size="10.00" fill="#000000">GenFit/blob/master</text>
<text text-anchor="middle" x="248" y="-13.5" font-family="FreeSans" font-size="10.00" fill="#000000">/test/fitterTests/main.cc</text>
</a>
</g>
</g>
<!-- Node1&#45;&gt;Node3 -->
<g id="edge2" class="edge">
<title>Node1&#45;&gt;Node3</title>
<path fill="none" stroke="#191970" d="M248,-71.0737C248,-59.9468 248,-47.9724 248,-38.6969"/>
<polygon fill="#191970" stroke="#191970" points="244.5001,-71.3664 248,-81.3664 251.5001,-71.3664 244.5001,-71.3664"/>
</g>
<!-- Node4 -->
<g id="node4" class="node">
<title>Node4</title>
<g id="a_node4"><a xlink:href="../../d9/d33/GenFit_2blob_2master_2test_2unitTests_2main_8cc.html" target="_top" xlink:title="GenFit/blob/master\l/test/unitTests/main.cc">
<polygon fill="none" stroke="#000000" points="333.5,-6.5 333.5,-38.5 464.5,-38.5 464.5,-6.5 333.5,-6.5"/>
<text text-anchor="start" x="341.5" y="-25.5" font-family="FreeSans" font-size="10.00" fill="#000000">GenFit/blob/master</text>
<text text-anchor="middle" x="399" y="-13.5" font-family="FreeSans" font-size="10.00" fill="#000000">/test/unitTests/main.cc</text>
</a>
</g>
</g>
<!-- Node1&#45;&gt;Node4 -->
<g id="edge3" class="edge">
<title>Node1&#45;&gt;Node4</title>
<path fill="none" stroke="#191970" d="M298.3431,-76.4948C321.6907,-63.9705 348.6622,-49.5024 368.8058,-38.6969"/>
<polygon fill="#191970" stroke="#191970" points="296.4191,-73.555 289.2614,-81.3664 299.7281,-79.7235 296.4191,-73.555"/>
</g>
</g>
</svg>
