<?xml version="1.0" encoding="UTF-8" standalone="no"?>
<!DOCTYPE svg PUBLIC "-//W3C//DTD SVG 1.1//EN"
 "http://www.w3.org/Graphics/SVG/1.1/DTD/svg11.dtd">
<!-- Generated by graphviz version 2.40.1 (20161225.0304)
 -->
<!-- Title: GenFit/blob/master/GBL/include/GblFitter.h Pages: 1 -->
<svg width="2200pt" height="668pt"
 viewBox="0.00 0.00 2199.77 668.00" xmlns="http://www.w3.org/2000/svg" xmlns:xlink="http://www.w3.org/1999/xlink">
<g id="graph0" class="graph" transform="scale(1 1) rotate(0) translate(4 664)">
<title>GenFit/blob/master/GBL/include/GblFitter.h</title>
<!-- Node1 -->
<g id="node1" class="node">
<title>Node1</title>
<polygon fill="#bfbfbf" stroke="#000000" points="608,-627.5 608,-659.5 744,-659.5 744,-627.5 608,-627.5"/>
<text text-anchor="start" x="616" y="-646.5" font-family="FreeSans" font-size="10.00" fill="#000000">GenFit/blob/master</text>
<text text-anchor="middle" x="676" y="-634.5" font-family="FreeSans" font-size="10.00" fill="#000000">/GBL/include/GblFitter.h</text>
</g>
<!-- Node2 -->
<g id="node2" class="node">
<title>Node2</title>
<g id="a_node2"><a xlink:href="../../d6/db0/GblTrajectory_8h.html" target="_top" xlink:title="GblTrajectory.h">
<polygon fill="none" stroke="#000000" points="1352.5,-228.5 1352.5,-248.5 1443.5,-248.5 1443.5,-228.5 1352.5,-228.5"/>
<text text-anchor="middle" x="1398" y="-235.5" font-family="FreeSans" font-size="10.00" fill="#000000">GblTrajectory.h</text>
</a>
</g>
</g>
<!-- Node1&#45;&gt;Node2 -->
<g id="edge1" class="edge">
<title>Node1&#45;&gt;Node2</title>
<path fill="none" stroke="#191970" d="M744.2959,-642.5426C910.2444,-639.6315 1324.7111,-628.6353 1374,-591 1399.3062,-571.6771 1398,-555.3399 1398,-523.5 1398,-523.5 1398,-523.5 1398,-352.5 1398,-319.6536 1398,-281.4837 1398,-258.697"/>
<polygon fill="#191970" stroke="#191970" points="1401.5001,-258.5648 1398,-248.5648 1394.5001,-258.5648 1401.5001,-258.5648"/>
</g>
<!-- Node4 -->
<g id="node4" class="node">
<title>Node4</title>
<polygon fill="none" stroke="#bfbfbf" points="1883,-57.5 1883,-77.5 1943,-77.5 1943,-57.5 1883,-57.5"/>
<text text-anchor="middle" x="1913" y="-64.5" font-family="FreeSans" font-size="10.00" fill="#000000">iostream</text>
</g>
<!-- Node1&#45;&gt;Node4 -->
<g id="edge124" class="edge">
<title>Node1&#45;&gt;Node4</title>
<path fill="none" stroke="#191970" d="M744.2774,-642.1499C899.8422,-638.4909 1276.5267,-626.1753 1398,-591 1578.5814,-538.7086 2000.4853,-313.4396 2144,-192 2168.4304,-171.3275 2177.6692,-165.2898 2188,-135 2191.0129,-126.1663 2194.0244,-121.1286 2188,-114 2173.0122,-96.2652 2026.0928,-79.0009 1953.3645,-71.4588"/>
<polygon fill="#191970" stroke="#191970" points="1953.5015,-67.9546 1943.1969,-70.4177 1952.7884,-74.9182 1953.5015,-67.9546"/>
</g>
<!-- Node9 -->
<g id="node9" class="node">
<title>Node9</title>
<polygon fill="none" stroke="#bfbfbf" points="1055,-114.5 1055,-134.5 1127,-134.5 1127,-114.5 1055,-114.5"/>
<text text-anchor="middle" x="1091" y="-121.5" font-family="FreeSans" font-size="10.00" fill="#000000">TMatrixD.h</text>
</g>
<!-- Node1&#45;&gt;Node9 -->
<g id="edge125" class="edge">
<title>Node1&#45;&gt;Node9</title>
<path fill="none" stroke="#191970" d="M744.0694,-633.891C881.8965,-612.8944 1186.0865,-558.2123 1247,-477 1331.9852,-363.6944 1242.9154,-284.3579 1158,-171 1148.2751,-158.0177 1133.8364,-147.3425 1120.8504,-139.5094"/>
<polygon fill="#191970" stroke="#191970" points="1122.5868,-136.4705 1112.168,-134.5471 1119.1133,-142.548 1122.5868,-136.4705"/>
</g>
<!-- Node20 -->
<g id="node20" class="node">
<title>Node20</title>
<g id="a_node20"><a xlink:href="../../d5/d19/AbsFitter_8h.html" target="_top" xlink:title="AbsFitter.h">
<polygon fill="none" stroke="#000000" points="397,-570.5 397,-590.5 467,-590.5 467,-570.5 397,-570.5"/>
<text text-anchor="middle" x="432" y="-577.5" font-family="FreeSans" font-size="10.00" fill="#000000">AbsFitter.h</text>
</a>
</g>
</g>
<!-- Node1&#45;&gt;Node20 -->
<g id="edge39" class="edge">
<title>Node1&#45;&gt;Node20</title>
<path fill="none" stroke="#191970" d="M613.7972,-627.4394C571.1551,-616.4294 515.5643,-602.076 477.1378,-592.1544"/>
<polygon fill="#191970" stroke="#191970" points="477.8264,-588.7175 467.2689,-589.6063 476.0764,-595.4952 477.8264,-588.7175"/>
</g>
<!-- Node21 -->
<g id="node21" class="node">
<title>Node21</title>
<g id="a_node21"><a xlink:href="../../d4/d66/AbsTrackRep_8h.html" target="_top" xlink:title="AbsTrackRep.h">
<polygon fill="none" stroke="#000000" points="583.5,-171.5 583.5,-191.5 674.5,-191.5 674.5,-171.5 583.5,-171.5"/>
<text text-anchor="middle" x="629" y="-178.5" font-family="FreeSans" font-size="10.00" fill="#000000">AbsTrackRep.h</text>
</a>
</g>
</g>
<!-- Node1&#45;&gt;Node21 -->
<g id="edge40" class="edge">
<title>Node1&#45;&gt;Node21</title>
<path fill="none" stroke="#191970" d="M632.7237,-627.4728C575.1211,-606.1575 479.9863,-571.0228 476,-570 304.9204,-526.1064 159.1819,-589.0422 108,-420 78.2946,-321.8898 434.0799,-227.1739 573.9303,-193.9727"/>
<polygon fill="#191970" stroke="#191970" points="575.0837,-197.2968 584.0145,-191.5966 573.4783,-190.4834 575.0837,-197.2968"/>
</g>
<!-- Node25 -->
<g id="node25" class="node">
<title>Node25</title>
<polygon fill="none" stroke="#bfbfbf" points="21.5,-.5 21.5,-20.5 92.5,-20.5 92.5,-.5 21.5,-.5"/>
<text text-anchor="middle" x="57" y="-7.5" font-family="FreeSans" font-size="10.00" fill="#000000">TVector3.h</text>
</g>
<!-- Node1&#45;&gt;Node25 -->
<g id="edge129" class="edge">
<title>Node1&#45;&gt;Node25</title>
<path fill="none" stroke="#191970" d="M607.8437,-641.67C511.5541,-637.8713 330.7298,-626.2651 181,-591 97.4303,-571.3173 0,-609.3563 0,-523.5 0,-523.5 0,-523.5 0,-124.5 0,-87.3539 24.5102,-49.9043 41.3856,-28.5221"/>
<polygon fill="#191970" stroke="#191970" points="44.2116,-30.5955 47.842,-20.642 38.7969,-26.1591 44.2116,-30.5955"/>
</g>
<!-- Node29 -->
<g id="node29" class="node">
<title>Node29</title>
<g id="a_node29"><a xlink:href="../../de/d06/GblFitterInfo_8h.html" target="_top" xlink:title="GblFitterInfo.h">
<polygon fill="none" stroke="#000000" points="632.5,-513.5 632.5,-533.5 719.5,-533.5 719.5,-513.5 632.5,-513.5"/>
<text text-anchor="middle" x="676" y="-520.5" font-family="FreeSans" font-size="10.00" fill="#000000">GblFitterInfo.h</text>
</a>
</g>
</g>
<!-- Node1&#45;&gt;Node29 -->
<g id="edge55" class="edge">
<title>Node1&#45;&gt;Node29</title>
<path fill="none" stroke="#191970" d="M671.2115,-627.3163C668.7439,-605.6669 668.6045,-567.2832 670.7934,-543.7439"/>
<polygon fill="#191970" stroke="#191970" points="674.2694,-544.1533 672.0086,-533.8025 667.3211,-543.3039 674.2694,-544.1533"/>
</g>
<!-- Node41 -->
<g id="node41" class="node">
<title>Node41</title>
<polygon fill="none" stroke="#bfbfbf" points="117.5,-399.5 117.5,-419.5 156.5,-419.5 156.5,-399.5 117.5,-399.5"/>
<text text-anchor="middle" x="137" y="-406.5" font-family="FreeSans" font-size="10.00" fill="#000000">map</text>
</g>
<!-- Node1&#45;&gt;Node41 -->
<g id="edge123" class="edge">
<title>Node1&#45;&gt;Node41</title>
<path fill="none" stroke="#191970" d="M607.7105,-639.4005C485.3612,-631.5418 238.469,-613.1551 206,-591 152.0172,-554.165 140.225,-469.0338 137.6808,-429.8775"/>
<polygon fill="#191970" stroke="#191970" points="141.1676,-429.5266 137.1661,-419.7165 134.1766,-429.8808 141.1676,-429.5266"/>
</g>
<!-- Node45 -->
<g id="node45" class="node">
<title>Node45</title>
<g id="a_node45"><a xlink:href="../../d9/d27/GblFitStatus_8h.html" target="_top" xlink:title="GblFitStatus.h">
<polygon fill="none" stroke="#000000" points="543,-570.5 543,-590.5 629,-590.5 629,-570.5 543,-570.5"/>
<text text-anchor="middle" x="586" y="-577.5" font-family="FreeSans" font-size="10.00" fill="#000000">GblFitStatus.h</text>
</a>
</g>
</g>
<!-- Node1&#45;&gt;Node45 -->
<g id="edge110" class="edge">
<title>Node1&#45;&gt;Node45</title>
<path fill="none" stroke="#191970" d="M652.8228,-627.2759C639.2365,-617.7655 622.1485,-605.8039 608.6536,-596.3576"/>
<polygon fill="#191970" stroke="#191970" points="610.5769,-593.4315 600.3774,-590.5642 606.5626,-599.1662 610.5769,-593.4315"/>
</g>
<!-- Node47 -->
<g id="node47" class="node">
<title>Node47</title>
<g id="a_node47"><a xlink:href="../../d3/ddf/GblTrackSegmentController_8h.html" target="_top" xlink:title="GblTrackSegmentController.h">
<polygon fill="none" stroke="#000000" points="215.5,-570.5 215.5,-590.5 378.5,-590.5 378.5,-570.5 215.5,-570.5"/>
<text text-anchor="middle" x="297" y="-577.5" font-family="FreeSans" font-size="10.00" fill="#000000">GblTrackSegmentController.h</text>
</a>
</g>
</g>
<!-- Node1&#45;&gt;Node47 -->
<g id="edge116" class="edge">
<title>Node1&#45;&gt;Node47</title>
<path fill="none" stroke="#191970" d="M607.8113,-633.0261C538.2224,-621.794 431.0883,-603.9977 362.4912,-592.2842"/>
<polygon fill="#191970" stroke="#191970" points="362.6891,-588.7672 352.2419,-590.5301 361.5082,-595.6669 362.6891,-588.7672"/>
</g>
<!-- Node48 -->
<g id="node48" class="node">
<title>Node48</title>
<polygon fill="none" stroke="#bfbfbf" points="1473,-570.5 1473,-590.5 1529,-590.5 1529,-570.5 1473,-570.5"/>
<text text-anchor="middle" x="1501" y="-577.5" font-family="FreeSans" font-size="10.00" fill="#000000">assert.h</text>
</g>
<!-- Node1&#45;&gt;Node48 -->
<g id="edge126" class="edge">
<title>Node1&#45;&gt;Node48</title>
<path fill="none" stroke="#191970" d="M744.0068,-640.4985C908.0531,-633.0068 1322.0557,-612.5333 1459,-591 1460.2529,-590.803 1461.5232,-590.5863 1462.803,-590.3535"/>
<polygon fill="#191970" stroke="#191970" points="1463.5922,-593.7644 1472.6741,-588.3082 1462.1719,-586.91 1463.5922,-593.7644"/>
</g>
<!-- Node49 -->
<g id="node49" class="node">
<title>Node49</title>
<polygon fill="none" stroke="#bfbfbf" points="1547,-570.5 1547,-590.5 1603,-590.5 1603,-570.5 1547,-570.5"/>
<text text-anchor="middle" x="1575" y="-577.5" font-family="FreeSans" font-size="10.00" fill="#000000">sstream</text>
</g>
<!-- Node1&#45;&gt;Node49 -->
<g id="edge127" class="edge">
<title>Node1&#45;&gt;Node49</title>
<path fill="none" stroke="#191970" d="M744.0611,-641.2521C916.2855,-635.266 1367.1346,-617.6641 1536.8196,-590.8182"/>
<polygon fill="#191970" stroke="#191970" points="1537.5652,-594.2426 1546.8621,-589.1614 1536.4257,-587.3359 1537.5652,-594.2426"/>
</g>
<!-- Node50 -->
<g id="node50" class="node">
<title>Node50</title>
<polygon fill="none" stroke="#bfbfbf" points="1621,-570.5 1621,-590.5 1679,-590.5 1679,-570.5 1621,-570.5"/>
<text text-anchor="middle" x="1650" y="-577.5" font-family="FreeSans" font-size="10.00" fill="#000000">TMath.h</text>
</g>
<!-- Node1&#45;&gt;Node50 -->
<g id="edge128" class="edge">
<title>Node1&#45;&gt;Node50</title>
<path fill="none" stroke="#191970" d="M744.091,-641.5689C926.77,-636.0925 1425.7905,-619.1156 1610.5423,-590.8814"/>
<polygon fill="#191970" stroke="#191970" points="1611.354,-594.2964 1620.6795,-589.268 1610.2537,-587.3834 1611.354,-594.2964"/>
</g>
<!-- Node3 -->
<g id="node3" class="node">
<title>Node3</title>
<g id="a_node3"><a xlink:href="../../d9/d62/GblPoint_8h.html" target="_top" xlink:title="GblPoint.h">
<polygon fill="none" stroke="#000000" points="1236,-171.5 1236,-191.5 1304,-191.5 1304,-171.5 1236,-171.5"/>
<text text-anchor="middle" x="1270" y="-178.5" font-family="FreeSans" font-size="10.00" fill="#000000">GblPoint.h</text>
</a>
</g>
</g>
<!-- Node2&#45;&gt;Node3 -->
<g id="edge2" class="edge">
<title>Node2&#45;&gt;Node3</title>
<path fill="none" stroke="#191970" d="M1375.4108,-228.4408C1355.064,-219.3801 1324.9312,-205.9615 1302.0878,-195.7891"/>
<polygon fill="#191970" stroke="#191970" points="1303.3529,-192.5212 1292.7939,-191.6504 1300.5053,-198.9158 1303.3529,-192.5212"/>
</g>
<!-- Node11 -->
<g id="node11" class="node">
<title>Node11</title>
<polygon fill="none" stroke="#bfbfbf" points="1343.5,-114.5 1343.5,-134.5 1466.5,-134.5 1466.5,-114.5 1343.5,-114.5"/>
<text text-anchor="middle" x="1405" y="-121.5" font-family="FreeSans" font-size="10.00" fill="#000000">TMatrixDSymEigen.h</text>
</g>
<!-- Node2&#45;&gt;Node11 -->
<g id="edge38" class="edge">
<title>Node2&#45;&gt;Node11</title>
<path fill="none" stroke="#191970" d="M1398.6212,-228.3833C1399.7702,-209.6703 1402.2475,-169.3266 1403.7543,-144.7866"/>
<polygon fill="#191970" stroke="#191970" points="1407.2506,-144.9537 1404.3701,-134.7579 1400.2637,-144.5246 1407.2506,-144.9537"/>
</g>
<!-- Node14 -->
<g id="node14" class="node">
<title>Node14</title>
<g id="a_node14"><a xlink:href="../../d9/d02/GblData_8h.html" target="_top" xlink:title="GblData.h">
<polygon fill="none" stroke="#000000" points="1550.5,-171.5 1550.5,-191.5 1617.5,-191.5 1617.5,-171.5 1550.5,-171.5"/>
<text text-anchor="middle" x="1584" y="-178.5" font-family="FreeSans" font-size="10.00" fill="#000000">GblData.h</text>
</a>
</g>
</g>
<!-- Node2&#45;&gt;Node14 -->
<g id="edge13" class="edge">
<title>Node2&#45;&gt;Node14</title>
<path fill="none" stroke="#191970" d="M1430.8249,-228.4408C1461.5418,-219.0275 1507.6072,-204.9107 1541.1976,-194.6169"/>
<polygon fill="#191970" stroke="#191970" points="1542.6553,-197.8309 1551.1909,-191.5544 1540.6043,-191.1381 1542.6553,-197.8309"/>
</g>
<!-- Node16 -->
<g id="node16" class="node">
<title>Node16</title>
<g id="a_node16"><a xlink:href="../../df/db6/BorderedBandMatrix_8h.html" target="_top" xlink:title="BorderedBandMatrix.h">
<polygon fill="none" stroke="#000000" points="1688.5,-171.5 1688.5,-191.5 1817.5,-191.5 1817.5,-171.5 1688.5,-171.5"/>
<text text-anchor="middle" x="1753" y="-178.5" font-family="FreeSans" font-size="10.00" fill="#000000">BorderedBandMatrix.h</text>
</a>
</g>
</g>
<!-- Node2&#45;&gt;Node16 -->
<g id="edge26" class="edge">
<title>Node2&#45;&gt;Node16</title>
<path fill="none" stroke="#191970" d="M1443.6833,-231.1649C1503.5658,-221.55 1609.3039,-204.5723 1680.2603,-193.1793"/>
<polygon fill="#191970" stroke="#191970" points="1681.1487,-196.5816 1690.4673,-191.5405 1680.0389,-189.6701 1681.1487,-196.5816"/>
</g>
<!-- Node18 -->
<g id="node18" class="node">
<title>Node18</title>
<g id="a_node18"><a xlink:href="../../de/dd8/MilleBinary_8h.html" target="_top" xlink:title="MilleBinary.h">
<polygon fill="none" stroke="#000000" points="2055,-171.5 2055,-191.5 2135,-191.5 2135,-171.5 2055,-171.5"/>
<text text-anchor="middle" x="2095" y="-178.5" font-family="FreeSans" font-size="10.00" fill="#000000">MilleBinary.h</text>
</a>
</g>
</g>
<!-- Node2&#45;&gt;Node18 -->
<g id="edge35" class="edge">
<title>Node2&#45;&gt;Node18</title>
<path fill="none" stroke="#191970" d="M1443.7321,-234.7601C1568.611,-224.5476 1914.7435,-196.2412 2044.7686,-185.6079"/>
<polygon fill="#191970" stroke="#191970" points="2045.1667,-189.0871 2054.8481,-184.7836 2044.5961,-182.1104 2045.1667,-189.0871"/>
</g>
<!-- Node3&#45;&gt;Node4 -->
<g id="edge3" class="edge">
<title>Node3&#45;&gt;Node4</title>
<path fill="none" stroke="#191970" d="M1275.9627,-171.494C1285.8213,-156.0024 1307.1268,-126.6787 1334,-114 1437.9563,-64.9538 1735.8458,-91.4638 1850,-78 1857.4194,-77.1249 1865.2971,-75.9832 1872.8782,-74.7757"/>
<polygon fill="#191970" stroke="#191970" points="1873.6665,-78.193 1882.961,-73.1074 1872.5238,-71.2869 1873.6665,-78.193"/>
</g>
<!-- Node5 -->
<g id="node5" class="node">
<title>Node5</title>
<polygon fill="none" stroke="#bfbfbf" points="1690.5,-57.5 1690.5,-77.5 1739.5,-77.5 1739.5,-57.5 1690.5,-57.5"/>
<text text-anchor="middle" x="1715" y="-64.5" font-family="FreeSans" font-size="10.00" fill="#000000">vector</text>
</g>
<!-- Node3&#45;&gt;Node5 -->
<g id="edge4" class="edge">
<title>Node3&#45;&gt;Node5</title>
<path fill="none" stroke="#191970" d="M1264.7589,-171.3478C1258.025,-156.719 1248.7925,-129.7441 1263,-114 1290.8506,-83.1372 1579.2869,-71.5729 1680.2943,-68.4508"/>
<polygon fill="#191970" stroke="#191970" points="1680.4035,-71.9492 1690.2939,-68.1506 1680.1934,-64.9524 1680.4035,-71.9492"/>
</g>
<!-- Node6 -->
<g id="node6" class="node">
<title>Node6</title>
<polygon fill="none" stroke="#bfbfbf" points="1789,-57.5 1789,-77.5 1841,-77.5 1841,-57.5 1789,-57.5"/>
<text text-anchor="middle" x="1815" y="-64.5" font-family="FreeSans" font-size="10.00" fill="#000000">math.h</text>
</g>
<!-- Node3&#45;&gt;Node6 -->
<g id="edge5" class="edge">
<title>Node3&#45;&gt;Node6</title>
<path fill="none" stroke="#191970" d="M1271.4068,-171.4631C1274.1293,-156.2052 1281.6604,-127.5234 1301,-114 1382.8506,-56.7654 1649.8296,-89.855 1749,-78 1758.6447,-76.8471 1769.0398,-75.3253 1778.6629,-73.7992"/>
<polygon fill="#191970" stroke="#191970" points="1779.4231,-77.2215 1788.73,-72.1588 1778.2972,-70.3127 1779.4231,-77.2215"/>
</g>
<!-- Node7 -->
<g id="node7" class="node">
<title>Node7</title>
<polygon fill="none" stroke="#bfbfbf" points="1145,-114.5 1145,-134.5 1211,-134.5 1211,-114.5 1145,-114.5"/>
<text text-anchor="middle" x="1178" y="-121.5" font-family="FreeSans" font-size="10.00" fill="#000000">stdexcept</text>
</g>
<!-- Node3&#45;&gt;Node7 -->
<g id="edge6" class="edge">
<title>Node3&#45;&gt;Node7</title>
<path fill="none" stroke="#191970" d="M1253.5522,-171.3095C1239.5538,-162.6366 1219.2235,-150.0407 1203.1776,-140.0992"/>
<polygon fill="#191970" stroke="#191970" points="1204.6494,-136.8938 1194.3054,-134.6022 1200.9627,-142.8442 1204.6494,-136.8938"/>
</g>
<!-- Node8 -->
<g id="node8" class="node">
<title>Node8</title>
<polygon fill="none" stroke="#bfbfbf" points="815,-114.5 815,-134.5 887,-134.5 887,-114.5 815,-114.5"/>
<text text-anchor="middle" x="851" y="-121.5" font-family="FreeSans" font-size="10.00" fill="#000000">TVectorD.h</text>
</g>
<!-- Node3&#45;&gt;Node8 -->
<g id="edge7" class="edge">
<title>Node3&#45;&gt;Node8</title>
<path fill="none" stroke="#191970" d="M1235.7115,-176.8355C1160.7562,-166.6387 982.2468,-142.3546 897.3675,-130.8078"/>
<polygon fill="#191970" stroke="#191970" points="897.6303,-127.3113 887.2498,-129.4314 896.6867,-134.2475 897.6303,-127.3113"/>
</g>
<!-- Node3&#45;&gt;Node9 -->
<g id="edge8" class="edge">
<title>Node3&#45;&gt;Node9</title>
<path fill="none" stroke="#191970" d="M1238.4104,-171.4408C1208.8495,-162.0275 1164.5178,-147.9107 1132.1915,-137.6169"/>
<polygon fill="#191970" stroke="#191970" points="1133.1649,-134.2537 1122.5743,-134.5544 1131.0409,-140.9237 1133.1649,-134.2537"/>
</g>
<!-- Node10 -->
<g id="node10" class="node">
<title>Node10</title>
<polygon fill="none" stroke="#bfbfbf" points="943,-114.5 943,-134.5 1037,-134.5 1037,-114.5 943,-114.5"/>
<text text-anchor="middle" x="990" y="-121.5" font-family="FreeSans" font-size="10.00" fill="#000000">TMatrixDSym.h</text>
</g>
<!-- Node3&#45;&gt;Node10 -->
<g id="edge9" class="edge">
<title>Node3&#45;&gt;Node10</title>
<path fill="none" stroke="#191970" d="M1235.9464,-174.5677C1189.063,-165.0235 1104.0049,-147.7081 1047.2492,-136.1543"/>
<polygon fill="#191970" stroke="#191970" points="1047.8438,-132.7036 1037.3466,-134.1384 1046.4474,-139.5629 1047.8438,-132.7036"/>
</g>
<!-- Node3&#45;&gt;Node11 -->
<g id="edge10" class="edge">
<title>Node3&#45;&gt;Node11</title>
<path fill="none" stroke="#191970" d="M1293.8245,-171.4408C1315.3799,-162.3396 1347.3487,-148.8416 1371.4796,-138.6531"/>
<polygon fill="#191970" stroke="#191970" points="1373.1085,-141.7646 1380.9595,-134.6504 1370.3856,-135.3158 1373.1085,-141.7646"/>
</g>
<!-- Node12 -->
<g id="node12" class="node">
<title>Node12</title>
<polygon fill="none" stroke="#bfbfbf" points="1485,-114.5 1485,-134.5 1577,-134.5 1577,-114.5 1485,-114.5"/>
<text text-anchor="middle" x="1531" y="-121.5" font-family="FreeSans" font-size="10.00" fill="#000000">Math/SMatrix.h</text>
</g>
<!-- Node3&#45;&gt;Node12 -->
<g id="edge11" class="edge">
<title>Node3&#45;&gt;Node12</title>
<path fill="none" stroke="#191970" d="M1304.1212,-174.0482C1347.5177,-164.5708 1423.0414,-148.0772 1474.9498,-136.7408"/>
<polygon fill="#191970" stroke="#191970" points="1475.9772,-140.0991 1485.0001,-134.546 1474.4836,-133.2602 1475.9772,-140.0991"/>
</g>
<!-- Node13 -->
<g id="node13" class="node">
<title>Node13</title>
<polygon fill="none" stroke="#bfbfbf" points="1595,-114.5 1595,-134.5 1687,-134.5 1687,-114.5 1595,-114.5"/>
<text text-anchor="middle" x="1641" y="-121.5" font-family="FreeSans" font-size="10.00" fill="#000000">Math/SVector.h</text>
</g>
<!-- Node3&#45;&gt;Node13 -->
<g id="edge12" class="edge">
<title>Node3&#45;&gt;Node13</title>
<path fill="none" stroke="#191970" d="M1304.2108,-176.9516C1360.5126,-169.3608 1476.4566,-153.2866 1584.6992,-135.168"/>
<polygon fill="#191970" stroke="#191970" points="1585.5321,-138.5771 1594.8122,-133.4653 1584.3698,-131.6743 1585.5321,-138.5771"/>
</g>
<!-- Node14&#45;&gt;Node4 -->
<g id="edge14" class="edge">
<title>Node14&#45;&gt;Node4</title>
<path fill="none" stroke="#191970" d="M1617.6046,-177.45C1695.7126,-167.9033 1883.6677,-144.1108 1894,-135 1907.2261,-123.3376 1911.568,-103.2639 1912.845,-88.0304"/>
<polygon fill="#191970" stroke="#191970" points="1916.3438,-88.1361 1913.3164,-77.983 1909.3515,-87.8079 1916.3438,-88.1361"/>
</g>
<!-- Node14&#45;&gt;Node5 -->
<g id="edge15" class="edge">
<title>Node14&#45;&gt;Node5</title>
<path fill="none" stroke="#191970" d="M1617.7399,-175.6704C1642.7259,-169.6366 1675.8068,-157.7546 1696,-135 1707.4619,-122.0842 1712.0553,-102.7585 1713.8727,-88.0912"/>
<polygon fill="#191970" stroke="#191970" points="1717.3733,-88.2413 1714.7892,-77.9664 1710.4018,-87.6102 1717.3733,-88.2413"/>
</g>
<!-- Node14&#45;&gt;Node6 -->
<g id="edge16" class="edge">
<title>Node14&#45;&gt;Node6</title>
<path fill="none" stroke="#191970" d="M1617.5264,-172.3257C1644.8111,-164.2436 1683.9161,-151.2394 1716,-135 1744.8105,-120.4174 1775.0811,-98.7019 1794.4486,-83.8651"/>
<polygon fill="#191970" stroke="#191970" points="1796.7857,-86.4815 1802.5355,-77.5825 1792.4912,-80.9536 1796.7857,-86.4815"/>
</g>
<!-- Node14&#45;&gt;Node8 -->
<g id="edge21" class="edge">
<title>Node14&#45;&gt;Node8</title>
<path fill="none" stroke="#191970" d="M1550.4562,-179.7464C1454.3186,-174.5812 1169.5858,-158.3108 934,-135 922.15,-133.8275 909.3774,-132.329 897.4885,-130.8337"/>
<polygon fill="#191970" stroke="#191970" points="897.6775,-127.3294 887.3135,-129.5287 896.787,-134.2725 897.6775,-127.3294"/>
</g>
<!-- Node14&#45;&gt;Node9 -->
<g id="edge22" class="edge">
<title>Node14&#45;&gt;Node9</title>
<path fill="none" stroke="#191970" d="M1550.3667,-179.4607C1477.0498,-174.7051 1297.231,-161.3581 1137.2891,-135.0459"/>
<polygon fill="#191970" stroke="#191970" points="1137.7096,-131.5678 1127.2702,-133.3761 1136.5587,-138.4725 1137.7096,-131.5678"/>
</g>
<!-- Node14&#45;&gt;Node10 -->
<g id="edge23" class="edge">
<title>Node14&#45;&gt;Node10</title>
<path fill="none" stroke="#191970" d="M1550.1925,-179.7454C1466.6308,-175.1597 1243.5244,-161.4019 1047.5021,-135.094"/>
<polygon fill="#191970" stroke="#191970" points="1047.6825,-131.5865 1037.3028,-133.7104 1046.7415,-138.523 1047.6825,-131.5865"/>
</g>
<!-- Node14&#45;&gt;Node12 -->
<g id="edge24" class="edge">
<title>Node14&#45;&gt;Node12</title>
<path fill="none" stroke="#191970" d="M1574.5247,-171.3095C1566.9879,-163.204 1556.2651,-151.672 1547.3487,-142.0826"/>
<polygon fill="#191970" stroke="#191970" points="1549.766,-139.5423 1540.3933,-134.6022 1544.6396,-144.3089 1549.766,-139.5423"/>
</g>
<!-- Node14&#45;&gt;Node13 -->
<g id="edge25" class="edge">
<title>Node14&#45;&gt;Node13</title>
<path fill="none" stroke="#191970" d="M1594.1905,-171.3095C1602.3771,-163.1229 1614.059,-151.441 1623.7045,-141.7955"/>
<polygon fill="#191970" stroke="#191970" points="1626.3016,-144.1482 1630.8978,-134.6022 1621.3518,-139.1984 1626.3016,-144.1482"/>
</g>
<!-- Node15 -->
<g id="node15" class="node">
<title>Node15</title>
<g id="a_node15"><a xlink:href="../../da/d55/VMatrix_8h.html" target="_top" xlink:title="VMatrix.h">
<polygon fill="none" stroke="#ff0000" points="1819.5,-114.5 1819.5,-134.5 1884.5,-134.5 1884.5,-114.5 1819.5,-114.5"/>
<text text-anchor="middle" x="1852" y="-121.5" font-family="FreeSans" font-size="10.00" fill="#000000">VMatrix.h</text>
</a>
</g>
</g>
<!-- Node14&#45;&gt;Node15 -->
<g id="edge17" class="edge">
<title>Node14&#45;&gt;Node15</title>
<path fill="none" stroke="#191970" d="M1617.7248,-174.5397C1661.0895,-165.5588 1738.7112,-149.3778 1805,-135 1806.4554,-134.6843 1807.9359,-134.3617 1809.4308,-134.0347"/>
<polygon fill="#191970" stroke="#191970" points="1810.383,-137.409 1819.3955,-131.8389 1808.8765,-130.573 1810.383,-137.409"/>
</g>
<!-- Node15&#45;&gt;Node4 -->
<g id="edge18" class="edge">
<title>Node15&#45;&gt;Node4</title>
<path fill="none" stroke="#191970" d="M1862.9056,-114.3095C1871.7534,-106.0419 1884.4164,-94.2093 1894.7968,-84.5096"/>
<polygon fill="#191970" stroke="#191970" points="1897.2719,-86.987 1902.1888,-77.6022 1892.4926,-81.8724 1897.2719,-86.987"/>
</g>
<!-- Node15&#45;&gt;Node5 -->
<g id="edge19" class="edge">
<title>Node15&#45;&gt;Node5</title>
<path fill="none" stroke="#191970" d="M1827.8225,-114.4408C1805.8506,-105.2992 1773.2168,-91.7216 1748.691,-81.5174"/>
<polygon fill="#191970" stroke="#191970" points="1749.9739,-78.2604 1739.3966,-77.6504 1747.2849,-84.7233 1749.9739,-78.2604"/>
</g>
<!-- Node15&#45;&gt;Node6 -->
<g id="edge20" class="edge">
<title>Node15&#45;&gt;Node6</title>
<path fill="none" stroke="#191970" d="M1845.3851,-114.3095C1840.3341,-106.5282 1833.2332,-95.589 1827.166,-86.2423"/>
<polygon fill="#191970" stroke="#191970" points="1829.9381,-84.0844 1821.5576,-77.6022 1824.0666,-87.8957 1829.9381,-84.0844"/>
</g>
<!-- Node16&#45;&gt;Node4 -->
<g id="edge27" class="edge">
<title>Node16&#45;&gt;Node4</title>
<path fill="none" stroke="#191970" d="M1817.643,-175.358C1897.2885,-167.1264 2023.8754,-151.6159 2038,-135 2065.4738,-102.6803 1999.6095,-83.3204 1953.4235,-74.0947"/>
<polygon fill="#191970" stroke="#191970" points="1953.8089,-70.6053 1943.3308,-72.1741 1952.5002,-77.4819 1953.8089,-70.6053"/>
</g>
<!-- Node16&#45;&gt;Node5 -->
<g id="edge28" class="edge">
<title>Node16&#45;&gt;Node5</title>
<path fill="none" stroke="#191970" d="M1749.6278,-171.3833C1743.362,-152.586 1729.8209,-111.9627 1721.652,-87.4559"/>
<polygon fill="#191970" stroke="#191970" points="1724.9021,-86.138 1718.4193,-77.7579 1718.2613,-88.3516 1724.9021,-86.138"/>
</g>
<!-- Node16&#45;&gt;Node6 -->
<g id="edge29" class="edge">
<title>Node16&#45;&gt;Node6</title>
<path fill="none" stroke="#191970" d="M1802.99,-171.4814C1838.966,-163.1385 1883.0112,-150.1949 1894,-135 1910.2887,-112.4765 1878.3509,-92.6133 1850.3391,-80.3674"/>
<polygon fill="#191970" stroke="#191970" points="1851.6429,-77.119 1841.0653,-76.5136 1848.9567,-83.5831 1851.6429,-77.119"/>
</g>
<!-- Node16&#45;&gt;Node8 -->
<g id="edge31" class="edge">
<title>Node16&#45;&gt;Node8</title>
<path fill="none" stroke="#191970" d="M1688.4205,-175.7771C1668.4217,-174.1081 1646.3079,-172.3674 1626,-171 1318.7243,-150.3098 1240.7551,-162.3447 934,-135 922.1392,-133.9427 909.3627,-132.4857 897.4734,-130.9935"/>
<polygon fill="#191970" stroke="#191970" points="897.6644,-127.4892 887.2991,-129.6822 896.7696,-134.4318 897.6644,-127.4892"/>
</g>
<!-- Node16&#45;&gt;Node9 -->
<g id="edge32" class="edge">
<title>Node16&#45;&gt;Node9</title>
<path fill="none" stroke="#191970" d="M1688.4011,-176.0441C1668.4015,-174.3859 1646.2922,-172.5842 1626,-171 1411.593,-154.2609 1353.6158,-167.4955 1137.3404,-135.002"/>
<polygon fill="#191970" stroke="#191970" points="1137.667,-131.5116 1127.255,-133.4711 1136.6165,-138.4323 1137.667,-131.5116"/>
</g>
<!-- Node16&#45;&gt;Node10 -->
<g id="edge33" class="edge">
<title>Node16&#45;&gt;Node10</title>
<path fill="none" stroke="#191970" d="M1688.4117,-175.9023C1668.4126,-174.2383 1646.3008,-172.4691 1626,-171 1371.6701,-152.5953 1304.0105,-166.4962 1047.2899,-135.0282"/>
<polygon fill="#191970" stroke="#191970" points="1047.6462,-131.5457 1037.2922,-133.7916 1046.7869,-138.4927 1047.6462,-131.5457"/>
</g>
<!-- Node16&#45;&gt;Node15 -->
<g id="edge34" class="edge">
<title>Node16&#45;&gt;Node15</title>
<path fill="none" stroke="#191970" d="M1770.6992,-171.3095C1785.9035,-162.5556 1808.0494,-149.8049 1825.3896,-139.8211"/>
<polygon fill="#191970" stroke="#191970" points="1827.5342,-142.6251 1834.454,-134.6022 1824.0414,-136.5587 1827.5342,-142.6251"/>
</g>
<!-- Node17 -->
<g id="node17" class="node">
<title>Node17</title>
<polygon fill="none" stroke="#bfbfbf" points="1979,-114.5 1979,-134.5 2029,-134.5 2029,-114.5 1979,-114.5"/>
<text text-anchor="middle" x="2004" y="-121.5" font-family="FreeSans" font-size="10.00" fill="#000000">cstdlib</text>
</g>
<!-- Node16&#45;&gt;Node17 -->
<g id="edge30" class="edge">
<title>Node16&#45;&gt;Node17</title>
<path fill="none" stroke="#191970" d="M1801.9885,-171.4381C1845.0541,-162.4301 1909.3598,-148.5841 1965,-135 1966.2645,-134.6913 1967.5506,-134.3722 1968.8486,-134.0457"/>
<polygon fill="#191970" stroke="#191970" points="1970.0654,-137.3462 1978.8695,-131.4523 1968.3115,-130.5695 1970.0654,-137.3462"/>
</g>
<!-- Node18&#45;&gt;Node5 -->
<g id="edge37" class="edge">
<title>Node18&#45;&gt;Node5</title>
<path fill="none" stroke="#191970" d="M2089.7341,-171.4714C2081.1439,-156.2246 2062.5774,-127.5574 2038,-114 1936.6234,-58.0784 1894.4879,-95.2326 1780,-78 1770.2047,-76.5256 1759.5929,-74.8463 1749.8398,-73.2697"/>
<polygon fill="#191970" stroke="#191970" points="1750.1056,-69.7669 1739.6729,-71.6138 1748.9802,-76.6759 1750.1056,-69.7669"/>
</g>
<!-- Node19 -->
<g id="node19" class="node">
<title>Node19</title>
<polygon fill="none" stroke="#bfbfbf" points="2123.5,-114.5 2123.5,-134.5 2178.5,-134.5 2178.5,-114.5 2123.5,-114.5"/>
<text text-anchor="middle" x="2151" y="-121.5" font-family="FreeSans" font-size="10.00" fill="#000000">fstream</text>
</g>
<!-- Node18&#45;&gt;Node19 -->
<g id="edge36" class="edge">
<title>Node18&#45;&gt;Node19</title>
<path fill="none" stroke="#191970" d="M2105.0117,-171.3095C2113.0547,-163.1229 2124.5317,-151.441 2134.008,-141.7955"/>
<polygon fill="#191970" stroke="#191970" points="2136.5634,-144.1885 2141.075,-134.6022 2131.5701,-139.2827 2136.5634,-144.1885"/>
</g>
<!-- Node21&#45;&gt;Node8 -->
<g id="edge52" class="edge">
<title>Node21&#45;&gt;Node8</title>
<path fill="none" stroke="#191970" d="M668.1781,-171.4408C706.3904,-161.6295 764.5036,-146.7085 804.9163,-136.3323"/>
<polygon fill="#191970" stroke="#191970" points="805.9711,-139.6751 814.7865,-133.7981 804.2302,-132.895 805.9711,-139.6751"/>
</g>
<!-- Node21&#45;&gt;Node9 -->
<g id="edge53" class="edge">
<title>Node21&#45;&gt;Node9</title>
<path fill="none" stroke="#191970" d="M674.882,-176.3035C689.898,-174.6071 706.6599,-172.7182 722,-171 862.7517,-155.2348 901.4754,-159.3067 1044.6862,-135.0694"/>
<polygon fill="#191970" stroke="#191970" points="1045.4586,-138.4882 1054.7259,-133.3533 1044.2791,-131.5883 1045.4586,-138.4882"/>
</g>
<!-- Node21&#45;&gt;Node10 -->
<g id="edge54" class="edge">
<title>Node21&#45;&gt;Node10</title>
<path fill="none" stroke="#191970" d="M674.7209,-174.2809C740.3634,-163.9163 861.2587,-144.8276 932.7576,-133.5383"/>
<polygon fill="#191970" stroke="#191970" points="933.6041,-136.9481 942.9358,-131.9312 932.5123,-130.0337 933.6041,-136.9481"/>
</g>
<!-- Node22 -->
<g id="node22" class="node">
<title>Node22</title>
<g id="a_node22"><a xlink:href="../../db/d4f/SharedPlanePtr_8h.html" target="_top" xlink:title="SharedPlanePtr.h">
<polygon fill="none" stroke="#000000" points="281,-114.5 281,-134.5 383,-134.5 383,-114.5 281,-114.5"/>
<text text-anchor="middle" x="332" y="-121.5" font-family="FreeSans" font-size="10.00" fill="#000000">SharedPlanePtr.h</text>
</a>
</g>
</g>
<!-- Node21&#45;&gt;Node22 -->
<g id="edge41" class="edge">
<title>Node21&#45;&gt;Node22</title>
<path fill="none" stroke="#191970" d="M583.2446,-172.7187C532.2058,-162.9233 449.4066,-147.0326 392.9176,-136.1912"/>
<polygon fill="#191970" stroke="#191970" points="393.5201,-132.7431 383.0396,-134.2955 392.2007,-139.6176 393.5201,-132.7431"/>
</g>
<!-- Node24 -->
<g id="node24" class="node">
<title>Node24</title>
<polygon fill="none" stroke="#bfbfbf" points="454.5,-.5 454.5,-20.5 519.5,-20.5 519.5,-.5 454.5,-.5"/>
<text text-anchor="middle" x="487" y="-7.5" font-family="FreeSans" font-size="10.00" fill="#000000">TObject.h</text>
</g>
<!-- Node21&#45;&gt;Node24 -->
<g id="edge51" class="edge">
<title>Node21&#45;&gt;Node24</title>
<path fill="none" stroke="#191970" d="M647.1165,-171.4862C683.5236,-150.1187 759.2683,-98.6116 725,-57 700.7752,-27.5841 591.8004,-16.5184 530.049,-12.5598"/>
<polygon fill="#191970" stroke="#191970" points="530.0246,-9.052 519.8315,-11.942 529.602,-16.0393 530.0246,-9.052"/>
</g>
<!-- Node21&#45;&gt;Node25 -->
<g id="edge50" class="edge">
<title>Node21&#45;&gt;Node25</title>
<path fill="none" stroke="#191970" d="M583.2248,-177.795C500.3249,-170.7126 328.6712,-154.2345 272,-135 195.2395,-108.9471 115.3121,-54.0496 78.2358,-26.6987"/>
<polygon fill="#191970" stroke="#191970" points="80.2769,-23.8547 70.1686,-20.6808 76.0913,-29.4656 80.2769,-23.8547"/>
</g>
<!-- Node27 -->
<g id="node27" class="node">
<title>Node27</title>
<g id="a_node27"><a xlink:href="../../df/d12/Material_8h.html" target="_top" xlink:title="Material.h">
<polygon fill="none" stroke="#000000" points="515,-114.5 515,-134.5 581,-134.5 581,-114.5 515,-114.5"/>
<text text-anchor="middle" x="548" y="-121.5" font-family="FreeSans" font-size="10.00" fill="#000000">Material.h</text>
</a>
</g>
</g>
<!-- Node21&#45;&gt;Node27 -->
<g id="edge47" class="edge">
<title>Node21&#45;&gt;Node27</title>
<path fill="none" stroke="#191970" d="M614.5188,-171.3095C602.3093,-162.7177 584.6287,-150.2758 570.5643,-140.3786"/>
<polygon fill="#191970" stroke="#191970" points="572.5481,-137.4949 562.3558,-134.6022 568.5196,-143.2195 572.5481,-137.4949"/>
</g>
<!-- Node23 -->
<g id="node23" class="node">
<title>Node23</title>
<g id="a_node23"><a xlink:href="../../dc/d81/DetPlane_8h.html" target="_top" xlink:title="DetPlane.h">
<polygon fill="none" stroke="#ff0000" points="218.5,-57.5 218.5,-77.5 289.5,-77.5 289.5,-57.5 218.5,-57.5"/>
<text text-anchor="middle" x="254" y="-64.5" font-family="FreeSans" font-size="10.00" fill="#000000">DetPlane.h</text>
</a>
</g>
</g>
<!-- Node22&#45;&gt;Node23 -->
<g id="edge42" class="edge">
<title>Node22&#45;&gt;Node23</title>
<path fill="none" stroke="#191970" d="M318.0552,-114.3095C306.4088,-105.7987 289.5929,-93.5102 276.1128,-83.6594"/>
<polygon fill="#191970" stroke="#191970" points="277.9631,-80.6766 267.8241,-77.6022 273.833,-86.3283 277.9631,-80.6766"/>
</g>
<!-- Node26 -->
<g id="node26" class="node">
<title>Node26</title>
<polygon fill="none" stroke="#bfbfbf" points="161,-.5 161,-20.5 219,-20.5 219,-.5 161,-.5"/>
<text text-anchor="middle" x="190" y="-7.5" font-family="FreeSans" font-size="10.00" fill="#000000">memory</text>
</g>
<!-- Node22&#45;&gt;Node26 -->
<g id="edge46" class="edge">
<title>Node22&#45;&gt;Node26</title>
<path fill="none" stroke="#191970" d="M329.3358,-114.4662C325.0184,-99.985 315.1946,-73.192 298,-57 278.7971,-38.9167 251.4655,-27.2418 229.1027,-20.113"/>
<polygon fill="#191970" stroke="#191970" points="229.8086,-16.6708 219.2247,-17.1508 227.7979,-23.3758 229.8086,-16.6708"/>
</g>
<!-- Node23&#45;&gt;Node24 -->
<g id="edge43" class="edge">
<title>Node23&#45;&gt;Node24</title>
<path fill="none" stroke="#191970" d="M289.6413,-58.7809C331.2718,-48.5966 400.0847,-31.7625 444.4694,-20.9045"/>
<polygon fill="#191970" stroke="#191970" points="445.4905,-24.258 454.3724,-18.4819 443.8271,-17.4585 445.4905,-24.258"/>
</g>
<!-- Node23&#45;&gt;Node25 -->
<g id="edge44" class="edge">
<title>Node23&#45;&gt;Node25</title>
<path fill="none" stroke="#191970" d="M219.2338,-57.4408C186.4199,-47.9464 137.0682,-33.6669 101.4166,-23.3515"/>
<polygon fill="#191970" stroke="#191970" points="102.3282,-19.9718 91.7494,-20.5544 100.3826,-26.696 102.3282,-19.9718"/>
</g>
<!-- Node23&#45;&gt;Node26 -->
<g id="edge45" class="edge">
<title>Node23&#45;&gt;Node26</title>
<path fill="none" stroke="#191970" d="M242.5581,-57.3095C233.2751,-49.0419 219.9894,-37.2093 209.0985,-27.5096"/>
<polygon fill="#191970" stroke="#191970" points="211.1384,-24.6395 201.3429,-20.6022 206.4827,-29.8668 211.1384,-24.6395"/>
</g>
<!-- Node27&#45;&gt;Node24 -->
<g id="edge49" class="edge">
<title>Node27&#45;&gt;Node24</title>
<path fill="none" stroke="#191970" d="M581.0643,-117.3791C620.0692,-107.4324 676.8965,-87.1429 654,-57 638.9689,-37.2117 573.8396,-23.6038 529.4999,-16.4369"/>
<polygon fill="#191970" stroke="#191970" points="529.9714,-12.9682 519.5504,-14.8795 528.8888,-19.8839 529.9714,-12.9682"/>
</g>
<!-- Node28 -->
<g id="node28" class="node">
<title>Node28</title>
<g id="a_node28"><a xlink:href="../../d7/d83/EigenMatrixTypedefs_8h.html" target="_top" xlink:title="EigenMatrixTypedefs.h">
<polygon fill="none" stroke="#ff0000" points="515,-57.5 515,-77.5 645,-77.5 645,-57.5 515,-57.5"/>
<text text-anchor="middle" x="580" y="-64.5" font-family="FreeSans" font-size="10.00" fill="#000000">EigenMatrixTypedefs.h</text>
</a>
</g>
</g>
<!-- Node27&#45;&gt;Node28 -->
<g id="edge48" class="edge">
<title>Node27&#45;&gt;Node28</title>
<path fill="none" stroke="#191970" d="M553.721,-114.3095C558.0439,-106.6093 564.103,-95.8166 569.3138,-86.5349"/>
<polygon fill="#191970" stroke="#191970" points="572.4851,-88.0355 574.3286,-77.6022 566.3812,-84.6087 572.4851,-88.0355"/>
</g>
<!-- Node29&#45;&gt;Node1 -->
<g id="edge104" class="edge">
<title>Node29&#45;&gt;Node1</title>
<path fill="none" stroke="#191970" d="M679.9914,-533.8025C682.9707,-552.1745 683.5368,-591.117 681.6895,-617.3053"/>
<polygon fill="#191970" stroke="#191970" points="678.1991,-617.0428 680.7885,-627.3163 685.1709,-617.6703 678.1991,-617.0428"/>
</g>
<!-- Node29&#45;&gt;Node2 -->
<g id="edge103" class="edge">
<title>Node29&#45;&gt;Node2</title>
<path fill="none" stroke="#191970" d="M719.9152,-522.2963C842.3874,-518.589 1181.418,-505.8079 1222,-477 1298.2451,-422.8761 1243.7529,-352.934 1308,-285 1321.4355,-270.7935 1340.1762,-260.1561 1357.0799,-252.6673"/>
<polygon fill="#191970" stroke="#191970" points="1358.8896,-255.7044 1366.7663,-248.6187 1356.1901,-249.2459 1358.8896,-255.7044"/>
</g>
<!-- Node29&#45;&gt;Node3 -->
<g id="edge102" class="edge">
<title>Node29&#45;&gt;Node3</title>
<path fill="none" stroke="#191970" d="M719.7535,-522.1766C835.2306,-518.3047 1141.785,-505.4315 1177,-477 1263.73,-406.9767 1270.9838,-256.6487 1270.6019,-201.9426"/>
<polygon fill="#191970" stroke="#191970" points="1274.0988,-201.723 1270.4304,-191.7836 1267.0998,-201.8413 1274.0988,-201.723"/>
</g>
<!-- Node29&#45;&gt;Node5 -->
<g id="edge108" class="edge">
<title>Node29&#45;&gt;Node5</title>
<path fill="none" stroke="#191970" d="M719.5178,-519.4756C817.9111,-509.1752 1049,-477.7218 1049,-409.5 1049,-409.5 1049,-409.5 1049,-295.5 1049,-247.7521 901.2558,-148.7517 934,-114 959.9276,-86.4827 1531.6631,-71.654 1680.0649,-68.2598"/>
<polygon fill="#191970" stroke="#191970" points="1680.4772,-71.7515 1690.3956,-68.0264 1680.3191,-64.7532 1680.4772,-71.7515"/>
</g>
<!-- Node29&#45;&gt;Node9 -->
<g id="edge105" class="edge">
<title>Node29&#45;&gt;Node9</title>
<path fill="none" stroke="#191970" d="M719.7692,-522.3182C813.4811,-519.2017 1030.3443,-508.6903 1096,-477 1134.0672,-458.626 1163,-451.7696 1163,-409.5 1163,-409.5 1163,-409.5 1163,-238.5 1163,-199.0968 1131.8709,-162.2237 1110.5495,-141.5893"/>
<polygon fill="#191970" stroke="#191970" points="1112.914,-139.0085 1103.2138,-134.7472 1108.1394,-144.1275 1112.914,-139.0085"/>
</g>
<!-- Node29&#45;&gt;Node10 -->
<g id="edge106" class="edge">
<title>Node29&#45;&gt;Node10</title>
<path fill="none" stroke="#191970" d="M719.7477,-522.0337C807.9857,-518.4673 1003.9102,-507.2921 1063,-477 1099.2489,-458.4171 1125,-450.2346 1125,-409.5 1125,-409.5 1125,-409.5 1125,-295.5 1125,-225.4663 1054.3795,-167.2861 1015.2934,-140.4485"/>
<polygon fill="#191970" stroke="#191970" points="1016.8128,-137.2543 1006.5536,-134.6083 1012.9235,-143.0744 1016.8128,-137.2543"/>
</g>
<!-- Node29&#45;&gt;Node26 -->
<g id="edge109" class="edge">
<title>Node29&#45;&gt;Node26</title>
<path fill="none" stroke="#191970" d="M632.4233,-521.2594C534.0489,-515.8065 301.2522,-500.541 275,-477 141.7734,-357.5324 173.5104,-104.6086 186.1217,-30.9993"/>
<polygon fill="#191970" stroke="#191970" points="189.6354,-31.2334 187.9533,-20.7729 182.745,-29.9992 189.6354,-31.2334"/>
</g>
<!-- Node30 -->
<g id="node30" class="node">
<title>Node30</title>
<g id="a_node30"><a xlink:href="../../d4/d0b/AbsFitterInfo_8h.html" target="_top" xlink:title="AbsFitterInfo.h">
<polygon fill="none" stroke="#000000" points="441,-399.5 441,-419.5 531,-419.5 531,-399.5 441,-399.5"/>
<text text-anchor="middle" x="486" y="-406.5" font-family="FreeSans" font-size="10.00" fill="#000000">AbsFitterInfo.h</text>
</a>
</g>
</g>
<!-- Node29&#45;&gt;Node30 -->
<g id="edge56" class="edge">
<title>Node29&#45;&gt;Node30</title>
<path fill="none" stroke="#191970" d="M632.4194,-514.0225C605.6127,-506.7956 571.4493,-494.9706 545,-477 525.8097,-463.9615 508.9639,-443.2215 498.2386,-428.1694"/>
<polygon fill="#191970" stroke="#191970" points="500.9336,-425.9112 492.3853,-419.6521 495.1646,-429.8759 500.9336,-425.9112"/>
</g>
<!-- Node31 -->
<g id="node31" class="node">
<title>Node31</title>
<g id="a_node31"><a xlink:href="../../d7/d22/MeasurementOnPlane_8h.html" target="_top" xlink:title="MeasurementOnPlane.h">
<polygon fill="none" stroke="#000000" points="769.5,-342.5 769.5,-362.5 906.5,-362.5 906.5,-342.5 769.5,-342.5"/>
<text text-anchor="middle" x="838" y="-349.5" font-family="FreeSans" font-size="10.00" fill="#000000">MeasurementOnPlane.h</text>
</a>
</g>
</g>
<!-- Node29&#45;&gt;Node31 -->
<g id="edge79" class="edge">
<title>Node29&#45;&gt;Node31</title>
<path fill="none" stroke="#191970" d="M719.6716,-519.1813C770.7781,-513.12 850.7658,-500.1492 869,-477 890.4509,-449.767 879.0459,-432.1792 869,-399 865.9028,-388.7708 859.7312,-378.735 853.7045,-370.6202"/>
<polygon fill="#191970" stroke="#191970" points="856.3345,-368.3039 847.3741,-362.6505 850.8532,-372.6578 856.3345,-368.3039"/>
</g>
<!-- Node32 -->
<g id="node32" class="node">
<title>Node32</title>
<g id="a_node32"><a xlink:href="../../df/dc0/MeasuredStateOnPlane_8h.html" target="_top" xlink:title="MeasuredStateOnPlane.h">
<polygon fill="none" stroke="#000000" points="621,-285.5 621,-305.5 765,-305.5 765,-285.5 621,-285.5"/>
<text text-anchor="middle" x="693" y="-292.5" font-family="FreeSans" font-size="10.00" fill="#000000">MeasuredStateOnPlane.h</text>
</a>
</g>
</g>
<!-- Node29&#45;&gt;Node32 -->
<g id="edge78" class="edge">
<title>Node29&#45;&gt;Node32</title>
<path fill="none" stroke="#191970" d="M717.4783,-513.487C741.5645,-506.2064 771.4962,-494.5125 794,-477 818.6276,-457.8347 825.4274,-449.7017 835,-420 837.863,-411.1166 839.9707,-406.8996 835,-399 815.3084,-367.7054 790.1288,-384.4328 760,-363 739.9801,-348.7584 720.5977,-328.2683 707.8753,-313.6048"/>
<polygon fill="#191970" stroke="#191970" points="710.3377,-311.0971 701.1996,-305.7357 704.9998,-315.6255 710.3377,-311.0971"/>
</g>
<!-- Node33 -->
<g id="node33" class="node">
<title>Node33</title>
<g id="a_node33"><a xlink:href="../../db/d1a/StateOnPlane_8h.html" target="_top" xlink:title="StateOnPlane.h">
<polygon fill="none" stroke="#000000" points="552,-228.5 552,-248.5 646,-248.5 646,-228.5 552,-228.5"/>
<text text-anchor="middle" x="599" y="-235.5" font-family="FreeSans" font-size="10.00" fill="#000000">StateOnPlane.h</text>
</a>
</g>
</g>
<!-- Node29&#45;&gt;Node33 -->
<g id="edge80" class="edge">
<title>Node29&#45;&gt;Node33</title>
<path fill="none" stroke="#191970" d="M632.3851,-514.1602C612.1807,-507.4157 590.0279,-496.0203 578,-477 533.6685,-406.8964 571.2074,-301.1715 589.9194,-257.9517"/>
<polygon fill="#191970" stroke="#191970" points="593.2183,-259.1482 594.1075,-248.5908 586.8287,-256.2894 593.2183,-259.1482"/>
</g>
<!-- Node35 -->
<g id="node35" class="node">
<title>Node35</title>
<g id="a_node35"><a xlink:href="../../d4/daa/AbsHMatrix_8h.html" target="_top" xlink:title="AbsHMatrix.h">
<polygon fill="none" stroke="#000000" points="861,-228.5 861,-248.5 945,-248.5 945,-228.5 861,-228.5"/>
<text text-anchor="middle" x="903" y="-235.5" font-family="FreeSans" font-size="10.00" fill="#000000">AbsHMatrix.h</text>
</a>
</g>
</g>
<!-- Node29&#45;&gt;Node35 -->
<g id="edge107" class="edge">
<title>Node29&#45;&gt;Node35</title>
<path fill="none" stroke="#191970" d="M719.6265,-517.8486C773.6232,-510.1992 861.7852,-495.3709 889,-477 919.09,-456.6883 935,-445.8039 935,-409.5 935,-409.5 935,-409.5 935,-352.5 935,-318.25 921.4453,-280.2935 911.9796,-257.9629"/>
<polygon fill="#191970" stroke="#191970" points="915.0928,-256.3479 907.8601,-248.6059 908.6862,-259.1685 915.0928,-256.3479"/>
</g>
<!-- Node38 -->
<g id="node38" class="node">
<title>Node38</title>
<g id="a_node38"><a xlink:href="../../dc/d73/TrackPoint_8h.html" target="_top" xlink:title="TrackPoint.h">
<polygon fill="none" stroke="#000000" points="305,-456.5 305,-476.5 383,-476.5 383,-456.5 305,-456.5"/>
<text text-anchor="middle" x="344" y="-463.5" font-family="FreeSans" font-size="10.00" fill="#000000">TrackPoint.h</text>
</a>
</g>
</g>
<!-- Node29&#45;&gt;Node38 -->
<g id="edge81" class="edge">
<title>Node29&#45;&gt;Node38</title>
<path fill="none" stroke="#191970" d="M632.2554,-515.9896C570.4146,-505.3724 457.7787,-486.0343 393.133,-474.9355"/>
<polygon fill="#191970" stroke="#191970" points="393.633,-471.4702 383.1849,-473.2275 392.4484,-478.3693 393.633,-471.4702"/>
</g>
<!-- Node40 -->
<g id="node40" class="node">
<title>Node40</title>
<g id="a_node40"><a xlink:href="../../df/da2/ThinScatterer_8h.html" target="_top" xlink:title="ThinScatterer.h">
<polygon fill="none" stroke="#000000" points="319,-171.5 319,-191.5 413,-191.5 413,-171.5 319,-171.5"/>
<text text-anchor="middle" x="366" y="-178.5" font-family="FreeSans" font-size="10.00" fill="#000000">ThinScatterer.h</text>
</a>
</g>
</g>
<!-- Node29&#45;&gt;Node40 -->
<g id="edge95" class="edge">
<title>Node29&#45;&gt;Node40</title>
<path fill="none" stroke="#191970" d="M632.1822,-521.0101C537.472,-515.2238 320.2331,-499.619 296,-477 247.9485,-432.1491 228.062,-326.3399 285,-228 293.4777,-213.3579 308.5012,-202.9266 323.326,-195.7062"/>
<polygon fill="#191970" stroke="#191970" points="324.7709,-198.8942 332.4706,-191.6164 321.913,-192.5041 324.7709,-198.8942"/>
</g>
<!-- Node42 -->
<g id="node42" class="node">
<title>Node42</title>
<polygon fill="none" stroke="#bfbfbf" points="155.5,-456.5 155.5,-476.5 208.5,-476.5 208.5,-456.5 155.5,-456.5"/>
<text text-anchor="middle" x="182" y="-463.5" font-family="FreeSans" font-size="10.00" fill="#000000">Track.h</text>
</g>
<!-- Node29&#45;&gt;Node42 -->
<g id="edge96" class="edge">
<title>Node29&#45;&gt;Node42</title>
<path fill="none" stroke="#191970" d="M632.2875,-521.1757C551.1236,-516.3821 371.8515,-503.5485 223,-477 221.5533,-476.742 220.0824,-476.4602 218.5999,-476.1599"/>
<polygon fill="#191970" stroke="#191970" points="219.304,-472.731 208.7814,-473.966 217.7775,-479.5625 219.304,-472.731"/>
</g>
<!-- Node43 -->
<g id="node43" class="node">
<title>Node43</title>
<g id="a_node43"><a xlink:href="../../d1/d6d/ICalibrationParametersDerivatives_8h.html" target="_top" xlink:title="ICalibrationParametersDerivatives.h">
<polygon fill="none" stroke="#000000" points="587,-456.5 587,-476.5 785,-476.5 785,-456.5 587,-456.5"/>
<text text-anchor="middle" x="686" y="-463.5" font-family="FreeSans" font-size="10.00" fill="#000000">ICalibrationParametersDerivatives.h</text>
</a>
</g>
</g>
<!-- Node29&#45;&gt;Node43 -->
<g id="edge97" class="edge">
<title>Node29&#45;&gt;Node43</title>
<path fill="none" stroke="#191970" d="M677.7878,-513.3095C679.0818,-505.9335 680.8737,-495.72 682.4535,-486.715"/>
<polygon fill="#191970" stroke="#191970" points="685.947,-487.0566 684.2277,-476.6022 679.0523,-485.847 685.947,-487.0566"/>
</g>
<!-- Node30&#45;&gt;Node8 -->
<g id="edge77" class="edge">
<title>Node30&#45;&gt;Node8</title>
<path fill="none" stroke="#191970" d="M531.2443,-405.9048C638.4544,-397.2102 900.1356,-374.8874 915,-363 963.7746,-323.9939 977.8301,-285.7284 954,-228 938.2522,-189.851 900.8769,-158.3646 875.7514,-140.4956"/>
<polygon fill="#191970" stroke="#191970" points="877.6493,-137.5528 867.4306,-134.7544 873.6738,-143.3144 877.6493,-137.5528"/>
</g>
<!-- Node30&#45;&gt;Node24 -->
<g id="edge76" class="edge">
<title>Node30&#45;&gt;Node24</title>
<path fill="none" stroke="#191970" d="M485.3256,-399.035C483.0168,-362.6154 475.4382,-238.024 473,-135 472.1798,-100.343 467.949,-91.2967 473,-57 474.3153,-48.0687 476.9797,-38.4736 479.6344,-30.3325"/>
<polygon fill="#191970" stroke="#191970" points="483.0241,-31.2407 483.0044,-20.6459 476.4128,-28.9406 483.0241,-31.2407"/>
</g>
<!-- Node30&#45;&gt;Node31 -->
<g id="edge57" class="edge">
<title>Node30&#45;&gt;Node31</title>
<path fill="none" stroke="#191970" d="M531.2972,-402.1649C590.6737,-392.55 695.5183,-375.5723 765.875,-364.1793"/>
<polygon fill="#191970" stroke="#191970" points="766.6838,-367.594 775.9958,-362.5405 765.5648,-360.684 766.6838,-367.594"/>
</g>
<!-- Node37 -->
<g id="node37" class="node">
<title>Node37</title>
<g id="a_node37"><a xlink:href="../../d5/da6/FitStatus_8h.html" target="_top" xlink:title="FitStatus.h">
<polygon fill="none" stroke="#ff0000" points="403.5,-342.5 403.5,-362.5 472.5,-362.5 472.5,-342.5 403.5,-342.5"/>
<text text-anchor="middle" x="438" y="-349.5" font-family="FreeSans" font-size="10.00" fill="#000000">FitStatus.h</text>
</a>
</g>
</g>
<!-- Node30&#45;&gt;Node37 -->
<g id="edge75" class="edge">
<title>Node30&#45;&gt;Node37</title>
<path fill="none" stroke="#191970" d="M477.4186,-399.3095C470.6611,-391.2851 461.0756,-379.9022 453.0491,-370.3708"/>
<polygon fill="#191970" stroke="#191970" points="455.6257,-367.9969 446.5071,-362.6022 450.2713,-372.5059 455.6257,-367.9969"/>
</g>
<!-- Node31&#45;&gt;Node9 -->
<g id="edge72" class="edge">
<title>Node31&#45;&gt;Node9</title>
<path fill="none" stroke="#191970" d="M851.38,-342.4701C863.5096,-333.2573 881.7659,-319.0887 897,-306 964.3656,-248.1215 1040.1521,-174.6223 1073.5756,-141.7498"/>
<polygon fill="#191970" stroke="#191970" points="1076.1071,-144.169 1080.7712,-134.656 1071.1927,-139.1841 1076.1071,-144.169"/>
</g>
<!-- Node31&#45;&gt;Node26 -->
<g id="edge74" class="edge">
<title>Node31&#45;&gt;Node26</title>
<path fill="none" stroke="#191970" d="M769.444,-346.3465C660.8696,-333.6604 446.7508,-296.3988 301,-192 248.0697,-154.087 238.8743,-135.8493 209,-78 201.2424,-62.978 196.3101,-44.39 193.4207,-30.5258"/>
<polygon fill="#191970" stroke="#191970" points="196.8353,-29.7468 191.5264,-20.578 189.9589,-31.0563 196.8353,-29.7468"/>
</g>
<!-- Node31&#45;&gt;Node32 -->
<g id="edge58" class="edge">
<title>Node31&#45;&gt;Node32</title>
<path fill="none" stroke="#191970" d="M812.4107,-342.4408C789.0529,-333.2587 754.3104,-319.6013 728.3143,-309.3822"/>
<polygon fill="#191970" stroke="#191970" points="729.4085,-306.0516 718.8212,-305.6504 726.8475,-312.5663 729.4085,-306.0516"/>
</g>
<!-- Node31&#45;&gt;Node35 -->
<g id="edge68" class="edge">
<title>Node31&#45;&gt;Node35</title>
<path fill="none" stroke="#191970" d="M848.7231,-342.2631C857.5509,-333.3605 869.8899,-319.7612 878,-306 886.8116,-291.0486 893.4201,-272.4546 897.6226,-258.5701"/>
<polygon fill="#191970" stroke="#191970" points="901.0881,-259.1812 900.4733,-248.6043 894.358,-257.2561 901.0881,-259.1812"/>
</g>
<!-- Node36 -->
<g id="node36" class="node">
<title>Node36</title>
<polygon fill="none" stroke="#bfbfbf" points="821,-285.5 821,-305.5 869,-305.5 869,-285.5 821,-285.5"/>
<text text-anchor="middle" x="845" y="-292.5" font-family="FreeSans" font-size="10.00" fill="#000000">cmath</text>
</g>
<!-- Node31&#45;&gt;Node36 -->
<g id="edge73" class="edge">
<title>Node31&#45;&gt;Node36</title>
<path fill="none" stroke="#191970" d="M839.2515,-342.3095C840.1573,-334.9335 841.4116,-324.72 842.5175,-315.715"/>
<polygon fill="#191970" stroke="#191970" points="846.0143,-315.9543 843.7594,-305.6022 839.0665,-315.101 846.0143,-315.9543"/>
</g>
<!-- Node32&#45;&gt;Node10 -->
<g id="edge66" class="edge">
<title>Node32&#45;&gt;Node10</title>
<path fill="none" stroke="#191970" d="M710.6893,-285.3153C760.8311,-256.4458 904.1041,-173.9552 963.6009,-139.6995"/>
<polygon fill="#191970" stroke="#191970" points="965.4836,-142.6542 972.4034,-134.6314 961.9908,-136.5879 965.4836,-142.6542"/>
</g>
<!-- Node32&#45;&gt;Node21 -->
<g id="edge65" class="edge">
<title>Node32&#45;&gt;Node21</title>
<path fill="none" stroke="#191970" d="M687.3204,-285.3833C676.6729,-266.4174 653.5515,-225.2323 639.8353,-200.8004"/>
<polygon fill="#191970" stroke="#191970" points="642.7062,-198.7644 634.7588,-191.7579 636.6023,-202.1912 642.7062,-198.7644"/>
</g>
<!-- Node32&#45;&gt;Node33 -->
<g id="edge59" class="edge">
<title>Node32&#45;&gt;Node33</title>
<path fill="none" stroke="#191970" d="M676.1947,-285.3095C661.7583,-276.5556 640.7309,-263.8049 624.2665,-253.8211"/>
<polygon fill="#191970" stroke="#191970" points="626.0254,-250.7945 615.6598,-248.6022 622.3958,-256.7801 626.0254,-250.7945"/>
</g>
<!-- Node34 -->
<g id="node34" class="node">
<title>Node34</title>
<polygon fill="none" stroke="#bfbfbf" points="731.5,-171.5 731.5,-191.5 784.5,-191.5 784.5,-171.5 731.5,-171.5"/>
<text text-anchor="middle" x="758" y="-178.5" font-family="FreeSans" font-size="10.00" fill="#000000">cassert</text>
</g>
<!-- Node32&#45;&gt;Node34 -->
<g id="edge67" class="edge">
<title>Node32&#45;&gt;Node34</title>
<path fill="none" stroke="#191970" d="M698.7683,-285.3833C709.6303,-266.3331 733.2739,-224.8658 747.1805,-200.4757"/>
<polygon fill="#191970" stroke="#191970" points="750.2384,-202.1787 752.1512,-191.7579 744.1574,-198.7114 750.2384,-202.1787"/>
</g>
<!-- Node33&#45;&gt;Node8 -->
<g id="edge63" class="edge">
<title>Node33&#45;&gt;Node8</title>
<path fill="none" stroke="#191970" d="M617.2197,-228.404C650.1483,-210.1711 716.6715,-173.4048 722,-171 750.4469,-158.1618 783.5883,-146.2781 809.1559,-137.738"/>
<polygon fill="#191970" stroke="#191970" points="810.5094,-140.977 818.9087,-134.5194 808.3156,-134.3297 810.5094,-140.977"/>
</g>
<!-- Node33&#45;&gt;Node21 -->
<g id="edge61" class="edge">
<title>Node33&#45;&gt;Node21</title>
<path fill="none" stroke="#191970" d="M604.3634,-228.3095C608.4162,-220.6093 614.0965,-209.8166 618.9817,-200.5349"/>
<polygon fill="#191970" stroke="#191970" points="622.1227,-202.0816 623.683,-191.6022 615.9283,-198.8213 622.1227,-202.0816"/>
</g>
<!-- Node33&#45;&gt;Node22 -->
<g id="edge60" class="edge">
<title>Node33&#45;&gt;Node22</title>
<path fill="none" stroke="#191970" d="M551.9387,-234.2487C474.0885,-226.7365 325.4897,-210.1812 310,-192 298.2174,-178.1701 307.298,-157.8871 317.1219,-143.1678"/>
<polygon fill="#191970" stroke="#191970" points="320.1287,-144.9828 323.1549,-134.8294 314.4575,-140.8795 320.1287,-144.9828"/>
</g>
<!-- Node33&#45;&gt;Node24 -->
<g id="edge62" class="edge">
<title>Node33&#45;&gt;Node24</title>
<path fill="none" stroke="#191970" d="M590.322,-228.3162C580.0835,-214.996 565.4679,-191.0004 574,-171 600.1038,-109.8095 711.8737,-109.4883 671,-57 653.8014,-34.9143 578.375,-21.6616 529.5921,-15.2459"/>
<polygon fill="#191970" stroke="#191970" points="529.9784,-11.7669 519.6173,-13.9799 529.097,-18.7112 529.9784,-11.7669"/>
</g>
<!-- Node33&#45;&gt;Node34 -->
<g id="edge64" class="edge">
<title>Node33&#45;&gt;Node34</title>
<path fill="none" stroke="#191970" d="M627.06,-228.4408C653.3772,-219.0063 692.8741,-204.847 721.6049,-194.5473"/>
<polygon fill="#191970" stroke="#191970" points="723.0469,-197.7485 731.2791,-191.0792 720.6846,-191.1592 723.0469,-197.7485"/>
</g>
<!-- Node35&#45;&gt;Node8 -->
<g id="edge71" class="edge">
<title>Node35&#45;&gt;Node8</title>
<path fill="none" stroke="#191970" d="M898.3853,-228.3833C889.7727,-209.5017 871.1149,-168.598 859.9528,-144.1272"/>
<polygon fill="#191970" stroke="#191970" points="863.0135,-142.4036 855.6791,-134.7579 856.6448,-145.3087 863.0135,-142.4036"/>
</g>
<!-- Node35&#45;&gt;Node10 -->
<g id="edge70" class="edge">
<title>Node35&#45;&gt;Node10</title>
<path fill="none" stroke="#191970" d="M910.7207,-228.3833C925.3876,-209.1645 957.4665,-167.1301 976.0096,-142.8322"/>
<polygon fill="#191970" stroke="#191970" points="978.8871,-144.8308 982.1716,-134.7579 973.3225,-140.5841 978.8871,-144.8308"/>
</g>
<!-- Node35&#45;&gt;Node24 -->
<g id="edge69" class="edge">
<title>Node35&#45;&gt;Node24</title>
<path fill="none" stroke="#191970" d="M893.0804,-228.4707C875.2001,-210.2725 836.5812,-170.414 806,-135 777.057,-101.483 782.0035,-79.7336 744,-57 708.5225,-35.7774 593.192,-21.1958 529.7672,-14.5621"/>
<polygon fill="#191970" stroke="#191970" points="529.9847,-11.0661 519.68,-13.5283 529.271,-18.0297 529.9847,-11.0661"/>
</g>
<!-- Node38&#45;&gt;Node5 -->
<g id="edge93" class="edge">
<title>Node38&#45;&gt;Node5</title>
<path fill="none" stroke="#191970" d="M347.7459,-456.4696C358.1638,-428.6788 387.1637,-352.0689 394,-342 455.9828,-250.7085 477.1812,-223.9351 574,-171 667.1623,-120.0641 700.9523,-129.4484 806,-114 979.4921,-88.4861 1535.4044,-72.2605 1680.234,-68.3952"/>
<polygon fill="#191970" stroke="#191970" points="1680.4185,-71.8916 1690.3224,-68.1282 1680.2332,-64.8941 1680.4185,-71.8916"/>
</g>
<!-- Node38&#45;&gt;Node24 -->
<g id="edge91" class="edge">
<title>Node38&#45;&gt;Node24</title>
<path fill="none" stroke="#191970" d="M337.0246,-456.3169C307.5262,-411.8834 197.8852,-231.934 272,-114 309.7381,-53.9498 393.1594,-27.9284 444.2824,-17.2786"/>
<polygon fill="#191970" stroke="#191970" points="445.2294,-20.6593 454.3631,-15.2903 443.8748,-13.7916 445.2294,-20.6593"/>
</g>
<!-- Node38&#45;&gt;Node26 -->
<g id="edge94" class="edge">
<title>Node38&#45;&gt;Node26</title>
<path fill="none" stroke="#191970" d="M332.4071,-456.2965C322.8201,-447.4143 309.3149,-433.8262 300,-420 284.4423,-396.9075 284.7956,-388.6664 274,-363 223.1289,-242.0548 219.2007,-207.3164 197,-78 194.2901,-62.2153 192.4844,-44.1614 191.3867,-30.6989"/>
<polygon fill="#191970" stroke="#191970" points="194.8689,-30.3295 190.6269,-20.6209 187.8887,-30.8558 194.8689,-30.3295"/>
</g>
<!-- Node38&#45;&gt;Node30 -->
<g id="edge86" class="edge">
<title>Node38&#45;&gt;Node30</title>
<path fill="none" stroke="#191970" d="M369.0599,-456.4408C391.9344,-447.2587 425.9581,-433.6013 451.4164,-423.3822"/>
<polygon fill="#191970" stroke="#191970" points="452.7366,-426.6237 460.713,-419.6504 450.1289,-420.1276 452.7366,-426.6237"/>
</g>
<!-- Node39 -->
<g id="node39" class="node">
<title>Node39</title>
<g id="a_node39"><a xlink:href="../../d9/d7a/AbsMeasurement_8h.html" target="_top" xlink:title="AbsMeasurement.h">
<polygon fill="none" stroke="#000000" points="625,-399.5 625,-419.5 739,-419.5 739,-399.5 625,-399.5"/>
<text text-anchor="middle" x="682" y="-406.5" font-family="FreeSans" font-size="10.00" fill="#000000">AbsMeasurement.h</text>
</a>
</g>
</g>
<!-- Node38&#45;&gt;Node39 -->
<g id="edge82" class="edge">
<title>Node38&#45;&gt;Node39</title>
<path fill="none" stroke="#191970" d="M383.1031,-459.9057C439.8307,-450.3392 545.7278,-432.4808 615.0338,-420.7931"/>
<polygon fill="#191970" stroke="#191970" points="615.7049,-424.2295 624.9836,-419.1152 614.5408,-417.3269 615.7049,-424.2295"/>
</g>
<!-- Node38&#45;&gt;Node40 -->
<g id="edge87" class="edge">
<title>Node38&#45;&gt;Node40</title>
<path fill="none" stroke="#191970" d="M344.783,-456.3567C347.984,-414.8892 360.1104,-257.7977 364.4466,-201.624"/>
<polygon fill="#191970" stroke="#191970" points="367.9463,-201.7615 365.2264,-191.5218 360.967,-201.2227 367.9463,-201.7615"/>
</g>
<!-- Node38&#45;&gt;Node41 -->
<g id="edge92" class="edge">
<title>Node38&#45;&gt;Node41</title>
<path fill="none" stroke="#191970" d="M307.4691,-456.4408C267.2605,-445.3688 203.4205,-427.7897 166.3361,-417.5781"/>
<polygon fill="#191970" stroke="#191970" points="167.1982,-414.1852 156.6278,-414.9048 165.3398,-420.9341 167.1982,-414.1852"/>
</g>
<!-- Node39&#45;&gt;Node24 -->
<g id="edge85" class="edge">
<title>Node39&#45;&gt;Node24</title>
<path fill="none" stroke="#191970" d="M670.5515,-399.3934C644.3362,-375.6695 579.4145,-313.5261 543,-249 501.7438,-175.8947 490.8162,-73.7546 487.9747,-30.7997"/>
<polygon fill="#191970" stroke="#191970" points="491.4658,-30.5447 487.3907,-20.7649 484.4777,-30.9514 491.4658,-30.5447"/>
</g>
<!-- Node39&#45;&gt;Node31 -->
<g id="edge83" class="edge">
<title>Node39&#45;&gt;Node31</title>
<path fill="none" stroke="#191970" d="M709.5306,-399.4408C734.96,-390.1492 772.9316,-376.275 801.0031,-366.0181"/>
<polygon fill="#191970" stroke="#191970" points="802.2913,-369.2738 810.4827,-362.5544 799.8889,-362.699 802.2913,-369.2738"/>
</g>
<!-- Node39&#45;&gt;Node35 -->
<g id="edge84" class="edge">
<title>Node39&#45;&gt;Node35</title>
<path fill="none" stroke="#191970" d="M690.6284,-399.4331C710.3695,-376.8341 761.0633,-321.2179 812,-285 829.8119,-272.3351 851.5531,-261.0916 869.3175,-252.8342"/>
<polygon fill="#191970" stroke="#191970" points="871.0675,-255.8836 878.7273,-248.5639 868.1748,-249.5093 871.0675,-255.8836"/>
</g>
<!-- Node40&#45;&gt;Node22 -->
<g id="edge88" class="edge">
<title>Node40&#45;&gt;Node22</title>
<path fill="none" stroke="#191970" d="M359.9215,-171.3095C355.28,-163.5282 348.7549,-152.589 343.1796,-143.2423"/>
<polygon fill="#191970" stroke="#191970" points="346.1546,-141.3975 338.0259,-134.6022 340.1429,-144.9834 346.1546,-141.3975"/>
</g>
<!-- Node40&#45;&gt;Node24 -->
<g id="edge90" class="edge">
<title>Node40&#45;&gt;Node24</title>
<path fill="none" stroke="#191970" d="M371.8007,-171.1674C377.0816,-161.7509 385.086,-147.4531 392,-135 411.2151,-100.3909 410.3404,-87.9664 435,-57 443.8411,-45.8978 455.4844,-35.216 465.5118,-26.8961"/>
<polygon fill="#191970" stroke="#191970" points="467.8587,-29.5002 473.4577,-20.5056 463.4717,-24.0454 467.8587,-29.5002"/>
</g>
<!-- Node40&#45;&gt;Node27 -->
<g id="edge89" class="edge">
<title>Node40&#45;&gt;Node27</title>
<path fill="none" stroke="#191970" d="M398.119,-171.4408C428.1753,-162.0275 473.2501,-147.9107 506.1181,-137.6169"/>
<polygon fill="#191970" stroke="#191970" points="507.3997,-140.8832 515.8965,-134.5544 505.3075,-134.2032 507.3997,-140.8832"/>
</g>
<!-- Node43&#45;&gt;Node9 -->
<g id="edge100" class="edge">
<title>Node43&#45;&gt;Node9</title>
<path fill="none" stroke="#191970" d="M725.3156,-456.4427C755.7867,-448.1224 798.7775,-435.2268 835,-420 884.3108,-399.2713 897.5414,-394.1862 941,-363 1001.2925,-319.7336 1026.1102,-313.3918 1063,-249 1082.0907,-215.6768 1088.1658,-170.3971 1090.0986,-144.6325"/>
<polygon fill="#191970" stroke="#191970" points="1093.5964,-144.7735 1090.7133,-134.5785 1086.6094,-144.3463 1093.5964,-144.7735"/>
</g>
<!-- Node43&#45;&gt;Node33 -->
<g id="edge99" class="edge">
<title>Node43&#45;&gt;Node33</title>
<path fill="none" stroke="#191970" d="M660.6429,-456.485C645.0218,-448.9114 626.1082,-436.9046 616,-420 585.3689,-368.774 590.6426,-294.5229 595.5438,-258.9711"/>
<polygon fill="#191970" stroke="#191970" points="599.0372,-259.2781 597.076,-248.8663 592.1163,-258.2286 599.0372,-259.2781"/>
</g>
<!-- Node43&#45;&gt;Node39 -->
<g id="edge98" class="edge">
<title>Node43&#45;&gt;Node39</title>
<path fill="none" stroke="#191970" d="M685.2849,-456.3095C684.7673,-448.9335 684.0505,-438.72 683.4186,-429.715"/>
<polygon fill="#191970" stroke="#191970" points="686.9005,-429.3327 682.7089,-419.6022 679.9176,-429.8227 686.9005,-429.3327"/>
</g>
<!-- Node44 -->
<g id="node44" class="node">
<title>Node44</title>
<polygon fill="none" stroke="#bfbfbf" points="757.5,-399.5 757.5,-419.5 826.5,-419.5 826.5,-399.5 757.5,-399.5"/>
<text text-anchor="middle" x="792" y="-406.5" font-family="FreeSans" font-size="10.00" fill="#000000">TMatrixT.h</text>
</g>
<!-- Node43&#45;&gt;Node44 -->
<g id="edge101" class="edge">
<title>Node43&#45;&gt;Node44</title>
<path fill="none" stroke="#191970" d="M704.9507,-456.3095C721.4561,-447.434 745.6019,-434.4499 764.2786,-424.4068"/>
<polygon fill="#191970" stroke="#191970" points="766.0636,-427.4209 773.2134,-419.6022 762.7484,-421.2557 766.0636,-427.4209"/>
</g>
<!-- Node45&#45;&gt;Node2 -->
<g id="edge115" class="edge">
<title>Node45&#45;&gt;Node2</title>
<path fill="none" stroke="#191970" d="M629.1421,-580.1574C774.7965,-578.664 1242.3691,-571.0057 1298,-534 1349.468,-499.7635 1360,-471.3149 1360,-409.5 1360,-409.5 1360,-409.5 1360,-352.5 1360,-317.7644 1376.0743,-279.9893 1387.3138,-257.8219"/>
<polygon fill="#191970" stroke="#191970" points="1390.5008,-259.2812 1392.0625,-248.8021 1384.3068,-256.0201 1390.5008,-259.2812"/>
</g>
<!-- Node45&#45;&gt;Node29 -->
<g id="edge113" class="edge">
<title>Node45&#45;&gt;Node29</title>
<path fill="none" stroke="#191970" d="M602.0902,-570.3095C615.7843,-561.6366 635.6726,-549.0407 651.3697,-539.0992"/>
<polygon fill="#191970" stroke="#191970" points="653.4736,-541.9097 660.0491,-533.6022 649.7282,-535.9959 653.4736,-541.9097"/>
</g>
<!-- Node45&#45;&gt;Node37 -->
<g id="edge111" class="edge">
<title>Node45&#45;&gt;Node37</title>
<path fill="none" stroke="#191970" d="M570.2604,-570.4415C537.0509,-548.1564 460.529,-490.9395 432,-420 425.9038,-404.8413 428.1874,-386.265 431.5532,-372.44"/>
<polygon fill="#191970" stroke="#191970" points="435.0029,-373.1017 434.345,-362.5273 428.265,-371.204 435.0029,-373.1017"/>
</g>
<!-- Node45&#45;&gt;Node42 -->
<g id="edge112" class="edge">
<title>Node45&#45;&gt;Node42</title>
<path fill="none" stroke="#191970" d="M542.903,-572.4753C504.4995,-564.6943 447.0987,-551.5035 399,-534 379.0138,-526.7269 375.9221,-520.4469 356,-513 343.1069,-508.1805 265.6329,-487.9923 218.5166,-475.857"/>
<polygon fill="#191970" stroke="#191970" points="219.2296,-472.4266 208.6729,-473.3251 217.4858,-479.2059 219.2296,-472.4266"/>
</g>
<!-- Node46 -->
<g id="node46" class="node">
<title>Node46</title>
<polygon fill="none" stroke="#bfbfbf" points="247,-513.5 247,-533.5 347,-533.5 347,-513.5 247,-513.5"/>
<text text-anchor="middle" x="297" y="-520.5" font-family="FreeSans" font-size="10.00" fill="#000000">Math/ProbFunc.h</text>
</g>
<!-- Node45&#45;&gt;Node46 -->
<g id="edge114" class="edge">
<title>Node45&#45;&gt;Node46</title>
<path fill="none" stroke="#191970" d="M542.7338,-571.9665C493.5191,-562.2598 412.8195,-546.3433 357.4139,-535.4155"/>
<polygon fill="#191970" stroke="#191970" points="357.8644,-531.937 347.3761,-533.4358 356.5098,-538.8047 357.8644,-531.937"/>
</g>
<!-- Node47&#45;&gt;Node1 -->
<g id="edge121" class="edge">
<title>Node47&#45;&gt;Node1</title>
<path fill="none" stroke="#191970" d="M362.3145,-590.5103C427.7327,-601.0558 528.3227,-617.7423 597.9108,-629.5698"/>
<polygon fill="#191970" stroke="#191970" points="597.4995,-633.05 607.9451,-631.2783 598.6745,-626.1494 597.4995,-633.05"/>
</g>
<!-- Node47&#45;&gt;Node2 -->
<g id="edge120" class="edge">
<title>Node47&#45;&gt;Node2</title>
<path fill="none" stroke="#191970" d="M378.8484,-571.0192C381.9379,-570.673 384.9967,-570.3323 388,-570 578.8401,-548.8872 1084.7896,-579.7301 1247,-477 1331.6186,-423.4099 1309.7637,-368.5533 1365,-285 1371.174,-275.6609 1378.3334,-265.4982 1384.4026,-257.0623"/>
<polygon fill="#191970" stroke="#191970" points="1387.4246,-258.8569 1390.4622,-248.7068 1381.7579,-254.7472 1387.4246,-258.8569"/>
</g>
<!-- Node47&#45;&gt;Node25 -->
<g id="edge122" class="edge">
<title>Node47&#45;&gt;Node25</title>
<path fill="none" stroke="#191970" d="M252.1813,-570.4891C178.0522,-552.6203 38,-512.742 38,-466.5 38,-466.5 38,-466.5 38,-124.5 38,-91.2209 45.9754,-53.2115 51.5919,-30.5705"/>
<polygon fill="#191970" stroke="#191970" points="55.0091,-31.3354 54.1143,-20.7784 48.2304,-29.5891 55.0091,-31.3354"/>
</g>
<!-- Node47&#45;&gt;Node29 -->
<g id="edge118" class="edge">
<title>Node47&#45;&gt;Node29</title>
<path fill="none" stroke="#191970" d="M363.8852,-570.4408C437.4606,-559.3753 554.2525,-541.8103 622.1685,-531.596"/>
<polygon fill="#191970" stroke="#191970" points="622.8607,-535.0314 632.2289,-530.083 621.8196,-528.1092 622.8607,-535.0314"/>
</g>
<!-- Node47&#45;&gt;Node42 -->
<g id="edge117" class="edge">
<title>Node47&#45;&gt;Node42</title>
<path fill="none" stroke="#191970" d="M282.2342,-570.2103C269.8543,-561.2754 252.0055,-547.6585 238,-534 222.2616,-518.6515 206.4639,-499.1462 195.6794,-485.0544"/>
<polygon fill="#191970" stroke="#191970" points="198.1794,-482.5561 189.3674,-476.6739 192.5879,-486.7674 198.1794,-482.5561"/>
</g>
<!-- Node47&#45;&gt;Node46 -->
<g id="edge119" class="edge">
<title>Node47&#45;&gt;Node46</title>
<path fill="none" stroke="#191970" d="M297,-570.3095C297,-562.9335 297,-552.72 297,-543.715"/>
<polygon fill="#191970" stroke="#191970" points="300.5001,-543.6022 297,-533.6022 293.5001,-543.6023 300.5001,-543.6022"/>
</g>
</g>
</svg>
