<?xml version="1.0" encoding="UTF-8" standalone="no"?>
<!DOCTYPE svg PUBLIC "-//W3C//DTD SVG 1.1//EN"
 "http://www.w3.org/Graphics/SVG/1.1/DTD/svg11.dtd">
<!-- Generated by graphviz version 2.40.1 (20161225.0304)
 -->
<!-- Title: GenFit/blob/master Pages: 1 -->
<svg width="566pt" height="472pt"
 viewBox="0.00 0.00 566.00 472.00" xmlns="http://www.w3.org/2000/svg" xmlns:xlink="http://www.w3.org/1999/xlink">
<g id="graph0" class="graph" transform="scale(1 1) rotate(0) translate(4 468)">
<title>GenFit/blob/master</title>
<g id="clust1" class="cluster">
<title>clusterdir_70d04667b22c727053792cf538f14175</title>
<g id="a_clust1"><a xlink:href="dir_70d04667b22c727053792cf538f14175.html" target="_top" xlink:title="blob">
<polygon fill="#ddddee" stroke="#000000" points="8,-8 8,-456 550,-456 550,-8 8,-8"/>
<text text-anchor="middle" x="279" y="-443" font-family="FreeSans" font-size="10.00" fill="#000000">blob</text>
</a>
</g>
</g>
<g id="clust2" class="cluster">
<title>clusterdir_f7d4889b3c1b9f86296927366dca9cf4</title>
<g id="a_clust2"><a xlink:href="dir_f7d4889b3c1b9f86296927366dca9cf4.html" target="_top">
<polygon fill="#eeeeff" stroke="#000000" points="16,-16 16,-428 542,-428 542,-16 16,-16"/>
</a>
</g>
</g>
<!-- dir_f7d4889b3c1b9f86296927366dca9cf4 -->
<g id="node1" class="node">
<title>dir_f7d4889b3c1b9f86296927366dca9cf4</title>
<text text-anchor="middle" x="449" y="-399" font-family="FreeSans" font-size="10.00" fill="#000000">master</text>
</g>
<!-- dir_7837ac6bf932a09e2a00690c17304d39 -->
<g id="node2" class="node">
<title>dir_7837ac6bf932a09e2a00690c17304d39</title>
<g id="a_node2"><a xlink:href="dir_7837ac6bf932a09e2a00690c17304d39.html" target="_top" xlink:title="core">
<polygon fill="#ffffff" stroke="#ff0000" points="319,-204 265,-204 265,-168 319,-168 319,-204"/>
<text text-anchor="middle" x="292" y="-183" font-family="FreeSans" font-size="10.00" fill="#000000">core</text>
</a>
</g>
</g>
<!-- dir_e6cddb9ca2e7f2fdc87bccfaef4413cf -->
<g id="node6" class="node">
<title>dir_e6cddb9ca2e7f2fdc87bccfaef4413cf</title>
<g id="a_node6"><a xlink:href="dir_e6cddb9ca2e7f2fdc87bccfaef4413cf.html" target="_top" xlink:title="fitters">
<polygon fill="#ffffff" stroke="#ff0000" points="454,-132 400,-132 400,-96 454,-96 454,-132"/>
<text text-anchor="middle" x="427" y="-111" font-family="FreeSans" font-size="10.00" fill="#000000">fitters</text>
</a>
</g>
</g>
<!-- dir_7837ac6bf932a09e2a00690c17304d39&#45;&gt;dir_e6cddb9ca2e7f2fdc87bccfaef4413cf -->
<g id="edge20" class="edge">
<title>dir_7837ac6bf932a09e2a00690c17304d39&#45;&gt;dir_e6cddb9ca2e7f2fdc87bccfaef4413cf</title>
<path fill="none" stroke="#000000" d="M319.1276,-168.3868C339.7611,-156.751 368.1948,-141.6122 390.7563,-130.2621"/>
<polygon fill="#000000" stroke="#000000" points="392.3182,-133.3943 399.7115,-125.8056 389.1995,-127.1274 392.3182,-133.3943"/>
<g id="a_edge20&#45;headlabel"><a xlink:href="dir_000250_000291.html" target="_top" xlink:title="3">
<text text-anchor="middle" x="390.365" y="-134.5377" font-family="FreeSans" font-size="10.00" fill="#000000">3</text>
</a>
</g>
</g>
<!-- dir_d9360b0a9ef470d1b93a490666fd24ab -->
<g id="node10" class="node">
<title>dir_d9360b0a9ef470d1b93a490666fd24ab</title>
<g id="a_node10"><a xlink:href="dir_d9360b0a9ef470d1b93a490666fd24ab.html" target="_top" xlink:title="measurements">
<polygon fill="#ffffff" stroke="#ff0000" points="338,-132 246,-132 246,-96 338,-96 338,-132"/>
<text text-anchor="middle" x="292" y="-111" font-family="FreeSans" font-size="10.00" fill="#000000">measurements</text>
</a>
</g>
</g>
<!-- dir_7837ac6bf932a09e2a00690c17304d39&#45;&gt;dir_d9360b0a9ef470d1b93a490666fd24ab -->
<g id="edge21" class="edge">
<title>dir_7837ac6bf932a09e2a00690c17304d39&#45;&gt;dir_d9360b0a9ef470d1b93a490666fd24ab</title>
<path fill="none" stroke="#000000" d="M286.0476,-167.8314C285.2972,-160.131 285.0763,-150.9743 285.3849,-142.4166"/>
<polygon fill="#000000" stroke="#000000" points="288.8792,-142.6161 286.024,-132.4133 281.8935,-142.1697 288.8792,-142.6161"/>
<g id="a_edge21&#45;headlabel"><a xlink:href="dir_000250_000247.html" target="_top" xlink:title="1">
<text text-anchor="middle" x="291.4836" y="-143.3844" font-family="FreeSans" font-size="10.00" fill="#000000">1</text>
</a>
</g>
</g>
<!-- dir_6def61c45b66c87c8b64adc059eb30d0 -->
<g id="node3" class="node">
<title>dir_6def61c45b66c87c8b64adc059eb30d0</title>
<g id="a_node3"><a xlink:href="dir_6def61c45b66c87c8b64adc059eb30d0.html" target="_top" xlink:title="eventDisplay">
<polygon fill="#ffffff" stroke="#ff0000" points="422,-348 340,-348 340,-312 422,-312 422,-348"/>
<text text-anchor="middle" x="381" y="-327" font-family="FreeSans" font-size="10.00" fill="#000000">eventDisplay</text>
</a>
</g>
</g>
<!-- dir_6def61c45b66c87c8b64adc059eb30d0&#45;&gt;dir_7837ac6bf932a09e2a00690c17304d39 -->
<g id="edge29" class="edge">
<title>dir_6def61c45b66c87c8b64adc059eb30d0&#45;&gt;dir_7837ac6bf932a09e2a00690c17304d39</title>
<path fill="none" stroke="#000000" d="M377.7855,-311.9129C373.7813,-292.8487 365.6154,-262.5193 351,-240 344.0311,-229.2624 334.4304,-219.2556 324.997,-210.8457"/>
<polygon fill="#000000" stroke="#000000" points="327.0543,-208.0003 317.1737,-204.176 322.5128,-213.3272 327.0543,-208.0003"/>
<g id="a_edge29&#45;headlabel"><a xlink:href="dir_000282_000250.html" target="_top" xlink:title="5">
<text text-anchor="middle" x="331.6317" y="-205.1718" font-family="FreeSans" font-size="10.00" fill="#000000">5</text>
</a>
</g>
</g>
<!-- dir_0723bcb4203a35bbce17a31eeff1762d -->
<g id="node4" class="node">
<title>dir_0723bcb4203a35bbce17a31eeff1762d</title>
<g id="a_node4"><a xlink:href="dir_0723bcb4203a35bbce17a31eeff1762d.html" target="_top" xlink:title="fields">
<polygon fill="#ffffff" stroke="#ff0000" points="342,-276 288,-276 288,-240 342,-240 342,-276"/>
<text text-anchor="middle" x="315" y="-255" font-family="FreeSans" font-size="10.00" fill="#000000">fields</text>
</a>
</g>
</g>
<!-- dir_6def61c45b66c87c8b64adc059eb30d0&#45;&gt;dir_0723bcb4203a35bbce17a31eeff1762d -->
<g id="edge28" class="edge">
<title>dir_6def61c45b66c87c8b64adc059eb30d0&#45;&gt;dir_0723bcb4203a35bbce17a31eeff1762d</title>
<path fill="none" stroke="#000000" d="M364.3454,-311.8314C356.5886,-303.3694 347.2198,-293.1489 338.739,-283.8971"/>
<polygon fill="#000000" stroke="#000000" points="341.2162,-281.4198 331.8788,-276.4133 336.0561,-286.1499 341.2162,-281.4198"/>
<g id="a_edge28&#45;headlabel"><a xlink:href="dir_000282_000285.html" target="_top" xlink:title="1">
<text text-anchor="middle" x="345.7381" y="-279.151" font-family="FreeSans" font-size="10.00" fill="#000000">1</text>
</a>
</g>
</g>
<!-- dir_6def61c45b66c87c8b64adc059eb30d0&#45;&gt;dir_e6cddb9ca2e7f2fdc87bccfaef4413cf -->
<g id="edge26" class="edge">
<title>dir_6def61c45b66c87c8b64adc059eb30d0&#45;&gt;dir_e6cddb9ca2e7f2fdc87bccfaef4413cf</title>
<path fill="none" stroke="#000000" d="M422.3439,-313.212C438.0127,-304.5741 454.1867,-292.3566 463,-276 486.4849,-232.4144 462.2192,-174.3472 443.7272,-140.8798"/>
<polygon fill="#000000" stroke="#000000" points="446.7186,-139.0604 438.7091,-132.1251 440.6455,-142.5415 446.7186,-139.0604"/>
<g id="a_edge26&#45;headlabel"><a xlink:href="dir_000282_000291.html" target="_top" xlink:title="5">
<text text-anchor="middle" x="450.9695" y="-137.7671" font-family="FreeSans" font-size="10.00" fill="#000000">5</text>
</a>
</g>
</g>
<!-- dir_6def61c45b66c87c8b64adc059eb30d0&#45;&gt;dir_d9360b0a9ef470d1b93a490666fd24ab -->
<g id="edge27" class="edge">
<title>dir_6def61c45b66c87c8b64adc059eb30d0&#45;&gt;dir_d9360b0a9ef470d1b93a490666fd24ab</title>
<path fill="none" stroke="#000000" d="M379.0501,-311.6944C376.7366,-293.2379 372.1279,-264.1088 364,-240 352.5703,-206.0977 345.9575,-198.944 328,-168 322.7113,-158.8867 316.4827,-149.2257 310.7064,-140.6332"/>
<polygon fill="#000000" stroke="#000000" points="313.4354,-138.4227 304.9092,-132.1335 307.6524,-142.367 313.4354,-138.4227"/>
<g id="a_edge27&#45;headlabel"><a xlink:href="dir_000282_000247.html" target="_top" xlink:title="4">
<text text-anchor="middle" x="317.8064" y="-136.7925" font-family="FreeSans" font-size="10.00" fill="#000000">4</text>
</a>
</g>
</g>
<!-- dir_82437f4cf81cd442d5a46aacd8d4b495 -->
<g id="node12" class="node">
<title>dir_82437f4cf81cd442d5a46aacd8d4b495</title>
<g id="a_node12"><a xlink:href="dir_82437f4cf81cd442d5a46aacd8d4b495.html" target="_top" xlink:title="trackReps">
<polygon fill="#ffffff" stroke="#ff0000" points="292,-60 226,-60 226,-24 292,-24 292,-60"/>
<text text-anchor="middle" x="259" y="-39" font-family="FreeSans" font-size="10.00" fill="#000000">trackReps</text>
</a>
</g>
</g>
<!-- dir_6def61c45b66c87c8b64adc059eb30d0&#45;&gt;dir_82437f4cf81cd442d5a46aacd8d4b495 -->
<g id="edge30" class="edge">
<title>dir_6def61c45b66c87c8b64adc059eb30d0&#45;&gt;dir_82437f4cf81cd442d5a46aacd8d4b495</title>
<path fill="none" stroke="#000000" d="M422.4703,-316.2645C441.1015,-307.7825 461.2737,-294.8378 472,-276 511.6345,-206.3932 514.0285,-157.7421 463,-96 442.718,-71.4597 355.9498,-55.3513 302.3188,-47.5367"/>
<polygon fill="#000000" stroke="#000000" points="302.7812,-44.0674 292.3889,-46.1291 301.7987,-50.9981 302.7812,-44.0674"/>
<g id="a_edge30&#45;headlabel"><a xlink:href="dir_000282_000301.html" target="_top" xlink:title="1">
<text text-anchor="middle" x="306.7387" y="-38.7606" font-family="FreeSans" font-size="10.00" fill="#000000">1</text>
</a>
</g>
</g>
<!-- dir_0723bcb4203a35bbce17a31eeff1762d&#45;&gt;dir_7837ac6bf932a09e2a00690c17304d39 -->
<g id="edge19" class="edge">
<title>dir_0723bcb4203a35bbce17a31eeff1762d&#45;&gt;dir_7837ac6bf932a09e2a00690c17304d39</title>
<path fill="none" stroke="#000000" d="M309.1961,-239.8314C306.7092,-232.0463 303.7469,-222.7729 300.9875,-214.1347"/>
<polygon fill="#000000" stroke="#000000" points="304.2591,-212.874 297.882,-204.4133 297.591,-215.0041 304.2591,-212.874"/>
<g id="a_edge19&#45;headlabel"><a xlink:href="dir_000285_000250.html" target="_top" xlink:title="1">
<text text-anchor="middle" x="308.0574" y="-212.4342" font-family="FreeSans" font-size="10.00" fill="#000000">1</text>
</a>
</g>
</g>
<!-- dir_6ddaea94d0c530c22e15173dacd89a9e -->
<g id="node5" class="node">
<title>dir_6ddaea94d0c530c22e15173dacd89a9e</title>
<g id="a_node5"><a xlink:href="dir_6ddaea94d0c530c22e15173dacd89a9e.html" target="_top" xlink:title="finitePlanes">
<polygon fill="#ffffff" stroke="#ff0000" points="230.5,-276 155.5,-276 155.5,-240 230.5,-240 230.5,-276"/>
<text text-anchor="middle" x="193" y="-255" font-family="FreeSans" font-size="10.00" fill="#000000">finitePlanes</text>
</a>
</g>
</g>
<!-- dir_6ddaea94d0c530c22e15173dacd89a9e&#45;&gt;dir_7837ac6bf932a09e2a00690c17304d39 -->
<g id="edge12" class="edge">
<title>dir_6ddaea94d0c530c22e15173dacd89a9e&#45;&gt;dir_7837ac6bf932a09e2a00690c17304d39</title>
<path fill="none" stroke="#000000" d="M217.9819,-239.8314C230.2928,-230.8779 245.3107,-219.9558 258.5937,-210.2955"/>
<polygon fill="#000000" stroke="#000000" points="260.9973,-212.8752 267.0261,-204.1628 256.8801,-207.214 260.9973,-212.8752"/>
<g id="a_edge12&#45;headlabel"><a xlink:href="dir_000288_000250.html" target="_top" xlink:title="2">
<text text-anchor="middle" x="259.7602" y="-214.2856" font-family="FreeSans" font-size="10.00" fill="#000000">2</text>
</a>
</g>
</g>
<!-- dir_e6cddb9ca2e7f2fdc87bccfaef4413cf&#45;&gt;dir_7837ac6bf932a09e2a00690c17304d39 -->
<g id="edge1" class="edge">
<title>dir_e6cddb9ca2e7f2fdc87bccfaef4413cf&#45;&gt;dir_7837ac6bf932a09e2a00690c17304d39</title>
<path fill="none" stroke="#000000" d="M399.8072,-131.6499C379.2223,-143.2564 350.9005,-158.3364 328.3855,-169.6666"/>
<polygon fill="#000000" stroke="#000000" points="326.5247,-166.6831 319.1312,-174.2717 329.6433,-172.95 326.5247,-166.6831"/>
<g id="a_edge1&#45;headlabel"><a xlink:href="dir_000291_000250.html" target="_top" xlink:title="28">
<text text-anchor="middle" x="328.4779" y="-159.5398" font-family="FreeSans" font-size="10.00" fill="#000000">28</text>
</a>
</g>
</g>
<!-- dir_071896cb88ee6af3cd4ca82c38fdb6d4 -->
<g id="node7" class="node">
<title>dir_071896cb88ee6af3cd4ca82c38fdb6d4</title>
<g id="a_node7"><a xlink:href="dir_071896cb88ee6af3cd4ca82c38fdb6d4.html" target="_top" xlink:title="GBL">
<polygon fill="#ffffff" stroke="#ff0000" points="454,-276 400,-276 400,-240 454,-240 454,-276"/>
<text text-anchor="middle" x="427" y="-255" font-family="FreeSans" font-size="10.00" fill="#000000">GBL</text>
</a>
</g>
</g>
<!-- dir_071896cb88ee6af3cd4ca82c38fdb6d4&#45;&gt;dir_7837ac6bf932a09e2a00690c17304d39 -->
<g id="edge18" class="edge">
<title>dir_071896cb88ee6af3cd4ca82c38fdb6d4&#45;&gt;dir_7837ac6bf932a09e2a00690c17304d39</title>
<path fill="none" stroke="#000000" d="M399.6807,-243.4297C379.0951,-232.4507 350.6702,-217.2908 328.194,-205.3035"/>
<polygon fill="#000000" stroke="#000000" points="329.7493,-202.1663 319.2786,-200.5486 326.4551,-208.3428 329.7493,-202.1663"/>
<g id="a_edge18&#45;headlabel"><a xlink:href="dir_000294_000250.html" target="_top" xlink:title="17">
<text text-anchor="middle" x="334.2571" y="-198.3526" font-family="FreeSans" font-size="10.00" fill="#000000">17</text>
</a>
</g>
</g>
<!-- dir_071896cb88ee6af3cd4ca82c38fdb6d4&#45;&gt;dir_e6cddb9ca2e7f2fdc87bccfaef4413cf -->
<g id="edge16" class="edge">
<title>dir_071896cb88ee6af3cd4ca82c38fdb6d4&#45;&gt;dir_e6cddb9ca2e7f2fdc87bccfaef4413cf</title>
<path fill="none" stroke="#000000" d="M427,-239.7623C427,-215.201 427,-171.2474 427,-142.3541"/>
<polygon fill="#000000" stroke="#000000" points="430.5001,-142.0896 427,-132.0896 423.5001,-142.0897 430.5001,-142.0896"/>
<g id="a_edge16&#45;headlabel"><a xlink:href="dir_000294_000291.html" target="_top" xlink:title="1">
<text text-anchor="middle" x="433.3393" y="-142.6842" font-family="FreeSans" font-size="10.00" fill="#000000">1</text>
</a>
</g>
</g>
<!-- dir_071896cb88ee6af3cd4ca82c38fdb6d4&#45;&gt;dir_d9360b0a9ef470d1b93a490666fd24ab -->
<g id="edge17" class="edge">
<title>dir_071896cb88ee6af3cd4ca82c38fdb6d4&#45;&gt;dir_d9360b0a9ef470d1b93a490666fd24ab</title>
<path fill="none" stroke="#000000" d="M422.3699,-239.9104C416.5896,-220.283 405.0696,-188.9514 386,-168 374.6697,-155.5516 359.7829,-145.2103 345.2077,-137.0231"/>
<polygon fill="#000000" stroke="#000000" points="346.6753,-133.8388 336.2073,-132.2042 343.3712,-140.01 346.6753,-133.8388"/>
<g id="a_edge17&#45;headlabel"><a xlink:href="dir_000294_000247.html" target="_top" xlink:title="7">
<text text-anchor="middle" x="351.1845" y="-130.0324" font-family="FreeSans" font-size="10.00" fill="#000000">7</text>
</a>
</g>
</g>
<!-- dir_1795dedec0e0fd0e4d9483e9bd43378b -->
<g id="node8" class="node">
<title>dir_1795dedec0e0fd0e4d9483e9bd43378b</title>
<g id="a_node8"><a xlink:href="dir_1795dedec0e0fd0e4d9483e9bd43378b.html" target="_top" xlink:title="GFRave">
<polygon fill="#ffffff" stroke="#ff0000" points="301.5,-348 246.5,-348 246.5,-312 301.5,-312 301.5,-348"/>
<text text-anchor="middle" x="274" y="-327" font-family="FreeSans" font-size="10.00" fill="#000000">GFRave</text>
</a>
</g>
</g>
<!-- dir_1795dedec0e0fd0e4d9483e9bd43378b&#45;&gt;dir_7837ac6bf932a09e2a00690c17304d39 -->
<g id="edge13" class="edge">
<title>dir_1795dedec0e0fd0e4d9483e9bd43378b&#45;&gt;dir_7837ac6bf932a09e2a00690c17304d39</title>
<path fill="none" stroke="#000000" d="M274.0466,-311.9744C274.3173,-293.7357 275.3605,-264.7726 279,-240 280.2418,-231.5478 282.181,-222.4784 284.1862,-214.2313"/>
<polygon fill="#000000" stroke="#000000" points="287.6307,-214.8882 286.7139,-204.3331 280.8484,-213.1561 287.6307,-214.8882"/>
<g id="a_edge13&#45;headlabel"><a xlink:href="dir_000297_000250.html" target="_top" xlink:title="12">
<text text-anchor="middle" x="289.4924" y="-216.0735" font-family="FreeSans" font-size="10.00" fill="#000000">12</text>
</a>
</g>
</g>
<!-- dir_4b8e624111ced232431b7027de596851 -->
<g id="node9" class="node">
<title>dir_4b8e624111ced232431b7027de596851</title>
<g id="a_node9"><a xlink:href="dir_4b8e624111ced232431b7027de596851.html" target="_top" xlink:title="gtest">
<polygon fill="#ffffff" stroke="#000000" points="164,-348 110,-348 110,-312 164,-312 164,-348"/>
<text text-anchor="middle" x="137" y="-327" font-family="FreeSans" font-size="10.00" fill="#000000">gtest</text>
</a>
</g>
</g>
<!-- dir_4b8e624111ced232431b7027de596851&#45;&gt;dir_7837ac6bf932a09e2a00690c17304d39 -->
<g id="edge32" class="edge">
<title>dir_4b8e624111ced232431b7027de596851&#45;&gt;dir_7837ac6bf932a09e2a00690c17304d39</title>
<path fill="none" stroke="#000000" d="M133.8443,-311.7214C131.5029,-291.9286 131.0451,-260.4529 147,-240 160.6125,-222.5499 216.7736,-205.1918 255.0706,-195.0366"/>
<polygon fill="#000000" stroke="#000000" points="256.0678,-198.3939 264.8664,-192.4918 254.3076,-191.6187 256.0678,-198.3939"/>
<g id="a_edge32&#45;headlabel"><a xlink:href="dir_000300_000250.html" target="_top" xlink:title="10">
<text text-anchor="middle" x="253.3025" y="-199.0457" font-family="FreeSans" font-size="10.00" fill="#000000">10</text>
</a>
</g>
</g>
<!-- dir_4b8e624111ced232431b7027de596851&#45;&gt;dir_0723bcb4203a35bbce17a31eeff1762d -->
<g id="edge31" class="edge">
<title>dir_4b8e624111ced232431b7027de596851&#45;&gt;dir_0723bcb4203a35bbce17a31eeff1762d</title>
<path fill="none" stroke="#000000" d="M164.0344,-319.0647C194.4845,-306.7478 244.1465,-286.6599 278.137,-272.9109"/>
<polygon fill="#000000" stroke="#000000" points="279.7533,-276.0326 287.7112,-269.0382 277.1284,-269.5434 279.7533,-276.0326"/>
<g id="a_edge31&#45;headlabel"><a xlink:href="dir_000300_000285.html" target="_top" xlink:title="2">
<text text-anchor="middle" x="277.4857" y="-277.0126" font-family="FreeSans" font-size="10.00" fill="#000000">2</text>
</a>
</g>
</g>
<!-- dir_4b8e624111ced232431b7027de596851&#45;&gt;dir_82437f4cf81cd442d5a46aacd8d4b495 -->
<g id="edge34" class="edge">
<title>dir_4b8e624111ced232431b7027de596851&#45;&gt;dir_82437f4cf81cd442d5a46aacd8d4b495</title>
<path fill="none" stroke="#000000" d="M109.9325,-320.2673C90.7936,-311.7934 66.5624,-297.4586 55,-276 47.4105,-261.9146 49.2563,-254.9335 55,-240 85.754,-160.0397 168.5896,-97.4838 218.7413,-65.4914"/>
<polygon fill="#000000" stroke="#000000" points="220.7888,-68.3388 227.403,-60.0622 217.071,-62.4076 220.7888,-68.3388"/>
<g id="a_edge34&#45;headlabel"><a xlink:href="dir_000300_000301.html" target="_top" xlink:title="4">
<text text-anchor="middle" x="219.2509" y="-69.6536" font-family="FreeSans" font-size="10.00" fill="#000000">4</text>
</a>
</g>
</g>
<!-- dir_7dec5a1210dec22bcae358209d95774c -->
<g id="node13" class="node">
<title>dir_7dec5a1210dec22bcae358209d95774c</title>
<g id="a_node13"><a xlink:href="dir_7dec5a1210dec22bcae358209d95774c.html" target="_top" xlink:title="utilities">
<polygon fill="#ffffff" stroke="#ff0000" points="118,-276 64,-276 64,-240 118,-240 118,-276"/>
<text text-anchor="middle" x="91" y="-255" font-family="FreeSans" font-size="10.00" fill="#000000">utilities</text>
</a>
</g>
</g>
<!-- dir_4b8e624111ced232431b7027de596851&#45;&gt;dir_7dec5a1210dec22bcae358209d95774c -->
<g id="edge33" class="edge">
<title>dir_4b8e624111ced232431b7027de596851&#45;&gt;dir_7dec5a1210dec22bcae358209d95774c</title>
<path fill="none" stroke="#000000" d="M125.3923,-311.8314C120.2022,-303.7079 113.9768,-293.9637 108.2575,-285.0118"/>
<polygon fill="#000000" stroke="#000000" points="111.0974,-282.9559 102.764,-276.4133 105.1985,-286.7246 111.0974,-282.9559"/>
<g id="a_edge33&#45;headlabel"><a xlink:href="dir_000300_000304.html" target="_top" xlink:title="2">
<text text-anchor="middle" x="115.4253" y="-281.4564" font-family="FreeSans" font-size="10.00" fill="#000000">2</text>
</a>
</g>
</g>
<!-- dir_d9360b0a9ef470d1b93a490666fd24ab&#45;&gt;dir_7837ac6bf932a09e2a00690c17304d39 -->
<g id="edge14" class="edge">
<title>dir_d9360b0a9ef470d1b93a490666fd24ab&#45;&gt;dir_7837ac6bf932a09e2a00690c17304d39</title>
<path fill="none" stroke="#000000" d="M297.976,-132.4133C298.7071,-140.0593 298.9203,-149.1084 298.6155,-157.5726"/>
<polygon fill="#000000" stroke="#000000" points="295.1048,-157.6264 297.9524,-167.8314 302.0902,-158.078 295.1048,-157.6264"/>
<g id="a_edge14&#45;headlabel"><a xlink:href="dir_000247_000250.html" target="_top" xlink:title="35">
<text text-anchor="middle" x="292.5032" y="-150.8562" font-family="FreeSans" font-size="10.00" fill="#000000">35</text>
</a>
</g>
</g>
<!-- dir_d9360b0a9ef470d1b93a490666fd24ab&#45;&gt;dir_82437f4cf81cd442d5a46aacd8d4b495 -->
<g id="edge15" class="edge">
<title>dir_d9360b0a9ef470d1b93a490666fd24ab&#45;&gt;dir_82437f4cf81cd442d5a46aacd8d4b495</title>
<path fill="none" stroke="#000000" d="M283.6727,-95.8314C280.027,-87.8771 275.6691,-78.369 271.6373,-69.5723"/>
<polygon fill="#000000" stroke="#000000" points="274.7877,-68.0456 267.4394,-60.4133 268.4243,-70.9622 274.7877,-68.0456"/>
<g id="a_edge15&#45;headlabel"><a xlink:href="dir_000247_000301.html" target="_top" xlink:title="7">
<text text-anchor="middle" x="278.8665" y="-67.1304" font-family="FreeSans" font-size="10.00" fill="#000000">7</text>
</a>
</g>
</g>
<!-- dir_aa29be0b2556201225441962ecc30614 -->
<g id="node11" class="node">
<title>dir_aa29be0b2556201225441962ecc30614</title>
<g id="a_node11"><a xlink:href="dir_aa29be0b2556201225441962ecc30614.html" target="_top" xlink:title="test">
<polygon fill="#ffffff" stroke="#ff0000" points="324,-420 270,-420 270,-384 324,-384 324,-420"/>
<text text-anchor="middle" x="297" y="-399" font-family="FreeSans" font-size="10.00" fill="#000000">test</text>
</a>
</g>
</g>
<!-- dir_aa29be0b2556201225441962ecc30614&#45;&gt;dir_7837ac6bf932a09e2a00690c17304d39 -->
<g id="edge8" class="edge">
<title>dir_aa29be0b2556201225441962ecc30614&#45;&gt;dir_7837ac6bf932a09e2a00690c17304d39</title>
<path fill="none" stroke="#000000" d="M269.8066,-384.9149C257.6546,-375.64 244.6034,-362.9955 238,-348 231.5518,-333.3569 234.7829,-327.6732 238,-312 245.3831,-276.0302 263.4815,-237.6499 276.6974,-212.8303"/>
<polygon fill="#000000" stroke="#000000" points="279.7885,-214.4723 281.4909,-204.0151 273.6389,-211.1282 279.7885,-214.4723"/>
<g id="a_edge8&#45;headlabel"><a xlink:href="dir_000187_000250.html" target="_top" xlink:title="51">
<text text-anchor="middle" x="280.5656" y="-215.9866" font-family="FreeSans" font-size="10.00" fill="#000000">51</text>
</a>
</g>
</g>
<!-- dir_aa29be0b2556201225441962ecc30614&#45;&gt;dir_6def61c45b66c87c8b64adc059eb30d0 -->
<g id="edge11" class="edge">
<title>dir_aa29be0b2556201225441962ecc30614&#45;&gt;dir_6def61c45b66c87c8b64adc059eb30d0</title>
<path fill="none" stroke="#000000" d="M318.1967,-383.8314C328.4434,-375.0485 340.9003,-364.3712 352.0097,-354.8489"/>
<polygon fill="#000000" stroke="#000000" points="354.4952,-357.3282 359.81,-348.1628 349.9397,-352.0134 354.4952,-357.3282"/>
<g id="a_edge11&#45;headlabel"><a xlink:href="dir_000187_000282.html" target="_top" xlink:title="6">
<text text-anchor="middle" x="353.6138" y="-358.8232" font-family="FreeSans" font-size="10.00" fill="#000000">6</text>
</a>
</g>
</g>
<!-- dir_aa29be0b2556201225441962ecc30614&#45;&gt;dir_0723bcb4203a35bbce17a31eeff1762d -->
<g id="edge7" class="edge">
<title>dir_aa29be0b2556201225441962ecc30614&#45;&gt;dir_0723bcb4203a35bbce17a31eeff1762d</title>
<path fill="none" stroke="#000000" d="M302.7622,-383.7031C305.7681,-373.3377 309.1879,-360.0677 311,-348 314.0918,-327.4095 315.0497,-303.8961 315.257,-286.0678"/>
<polygon fill="#000000" stroke="#000000" points="318.757,-286.052 315.3021,-276.0363 311.757,-286.0204 318.757,-286.052"/>
<g id="a_edge7&#45;headlabel"><a xlink:href="dir_000187_000285.html" target="_top" xlink:title="7">
<text text-anchor="middle" x="321.5801" y="-286.6593" font-family="FreeSans" font-size="10.00" fill="#000000">7</text>
</a>
</g>
</g>
<!-- dir_aa29be0b2556201225441962ecc30614&#45;&gt;dir_6ddaea94d0c530c22e15173dacd89a9e -->
<g id="edge3" class="edge">
<title>dir_aa29be0b2556201225441962ecc30614&#45;&gt;dir_6ddaea94d0c530c22e15173dacd89a9e</title>
<path fill="none" stroke="#000000" d="M269.6659,-388.1033C253.7194,-378.7349 234.3702,-364.9929 222,-348 208.631,-329.6349 201.2417,-304.8282 197.2737,-285.9093"/>
<polygon fill="#000000" stroke="#000000" points="200.7117,-285.253 195.405,-276.0829 193.8349,-286.5608 200.7117,-285.253"/>
<g id="a_edge3&#45;headlabel"><a xlink:href="dir_000187_000288.html" target="_top" xlink:title="2">
<text text-anchor="middle" x="204.1724" y="-285.2539" font-family="FreeSans" font-size="10.00" fill="#000000">2</text>
</a>
</g>
</g>
<!-- dir_aa29be0b2556201225441962ecc30614&#45;&gt;dir_e6cddb9ca2e7f2fdc87bccfaef4413cf -->
<g id="edge2" class="edge">
<title>dir_aa29be0b2556201225441962ecc30614&#45;&gt;dir_e6cddb9ca2e7f2fdc87bccfaef4413cf</title>
<path fill="none" stroke="#000000" d="M324.0241,-398.1984C355.5179,-392.4635 407.3942,-378.7935 440,-348 498.8613,-292.4104 495.948,-243.9854 468,-168 464.343,-158.0573 458.1899,-148.4313 451.7477,-140.1283"/>
<polygon fill="#000000" stroke="#000000" points="454.3552,-137.789 445.291,-132.3036 448.956,-142.2443 454.3552,-137.789"/>
<g id="a_edge2&#45;headlabel"><a xlink:href="dir_000187_000291.html" target="_top" xlink:title="16">
<text text-anchor="middle" x="458.8329" y="-135.7545" font-family="FreeSans" font-size="10.00" fill="#000000">16</text>
</a>
</g>
</g>
<!-- dir_aa29be0b2556201225441962ecc30614&#45;&gt;dir_071896cb88ee6af3cd4ca82c38fdb6d4 -->
<g id="edge6" class="edge">
<title>dir_aa29be0b2556201225441962ecc30614&#45;&gt;dir_071896cb88ee6af3cd4ca82c38fdb6d4</title>
<path fill="none" stroke="#000000" d="M324.1291,-399.7765C355.8783,-395.5561 407.1407,-383.3388 431,-348 443.1103,-330.063 440.9601,-305.2216 436.4274,-286.1805"/>
<polygon fill="#000000" stroke="#000000" points="439.7373,-285.0132 433.7396,-276.2795 432.9818,-286.8472 439.7373,-285.0132"/>
<g id="a_edge6&#45;headlabel"><a xlink:href="dir_000187_000294.html" target="_top" xlink:title="1">
<text text-anchor="middle" x="443.419" y="-284.7385" font-family="FreeSans" font-size="10.00" fill="#000000">1</text>
</a>
</g>
</g>
<!-- dir_aa29be0b2556201225441962ecc30614&#45;&gt;dir_1795dedec0e0fd0e4d9483e9bd43378b -->
<g id="edge4" class="edge">
<title>dir_aa29be0b2556201225441962ecc30614&#45;&gt;dir_1795dedec0e0fd0e4d9483e9bd43378b</title>
<path fill="none" stroke="#000000" d="M291.1961,-383.8314C288.7092,-376.0463 285.7469,-366.7729 282.9875,-358.1347"/>
<polygon fill="#000000" stroke="#000000" points="286.2591,-356.874 279.882,-348.4133 279.591,-359.0041 286.2591,-356.874"/>
<g id="a_edge4&#45;headlabel"><a xlink:href="dir_000187_000297.html" target="_top" xlink:title="2">
<text text-anchor="middle" x="290.0574" y="-356.4342" font-family="FreeSans" font-size="10.00" fill="#000000">2</text>
</a>
</g>
</g>
<!-- dir_aa29be0b2556201225441962ecc30614&#45;&gt;dir_d9360b0a9ef470d1b93a490666fd24ab -->
<g id="edge5" class="edge">
<title>dir_aa29be0b2556201225441962ecc30614&#45;&gt;dir_d9360b0a9ef470d1b93a490666fd24ab</title>
<path fill="none" stroke="#000000" d="M269.778,-398.351C218.3942,-390.963 109.7701,-372.8044 82,-348 56.5113,-325.2333 61.0978,-309.6276 55,-276 52.1452,-260.2567 47.4503,-254.1068 55,-240 82.2209,-189.1372 112.1597,-195.2629 163,-168 186.413,-155.4449 213.3794,-143.7569 236.5839,-134.4886"/>
<polygon fill="#000000" stroke="#000000" points="237.9222,-137.7232 245.9418,-130.7995 235.3549,-131.211 237.9222,-137.7232"/>
<g id="a_edge5&#45;headlabel"><a xlink:href="dir_000187_000247.html" target="_top" xlink:title="7">
<text text-anchor="middle" x="235.6194" y="-138.6829" font-family="FreeSans" font-size="10.00" fill="#000000">7</text>
</a>
</g>
</g>
<!-- dir_aa29be0b2556201225441962ecc30614&#45;&gt;dir_82437f4cf81cd442d5a46aacd8d4b495 -->
<g id="edge10" class="edge">
<title>dir_aa29be0b2556201225441962ecc30614&#45;&gt;dir_82437f4cf81cd442d5a46aacd8d4b495</title>
<path fill="none" stroke="#000000" d="M324.0722,-398.4232C386.0618,-388.5598 533,-354.9542 533,-258 533,-258 533,-258 533,-186 533,-139.5795 517.2581,-123.6893 480,-96 452.0963,-75.2627 358.0615,-57.5103 302.0434,-48.4439"/>
<polygon fill="#000000" stroke="#000000" points="302.4764,-44.9688 292.0505,-46.8533 301.376,-51.8818 302.4764,-44.9688"/>
<g id="a_edge10&#45;headlabel"><a xlink:href="dir_000187_000301.html" target="_top" xlink:title="25">
<text text-anchor="middle" x="306.4726" y="-39.7298" font-family="FreeSans" font-size="10.00" fill="#000000">25</text>
</a>
</g>
</g>
<!-- dir_aa29be0b2556201225441962ecc30614&#45;&gt;dir_7dec5a1210dec22bcae358209d95774c -->
<g id="edge9" class="edge">
<title>dir_aa29be0b2556201225441962ecc30614&#45;&gt;dir_7dec5a1210dec22bcae358209d95774c</title>
<path fill="none" stroke="#000000" d="M269.7403,-398.2835C221.214,-391.0814 122.877,-373.6433 101,-348 86.7088,-331.2484 85.0621,-305.8865 86.5019,-286.3504"/>
<polygon fill="#000000" stroke="#000000" points="90.0055,-286.4965 87.5585,-276.1881 83.043,-285.7725 90.0055,-286.4965"/>
<g id="a_edge9&#45;headlabel"><a xlink:href="dir_000187_000304.html" target="_top" xlink:title="12">
<text text-anchor="middle" x="92.4578" y="-287.3654" font-family="FreeSans" font-size="10.00" fill="#000000">12</text>
</a>
</g>
</g>
<!-- dir_82437f4cf81cd442d5a46aacd8d4b495&#45;&gt;dir_7837ac6bf932a09e2a00690c17304d39 -->
<g id="edge25" class="edge">
<title>dir_82437f4cf81cd442d5a46aacd8d4b495&#45;&gt;dir_7837ac6bf932a09e2a00690c17304d39</title>
<path fill="none" stroke="#000000" d="M248.0201,-60.1177C238.2648,-78.6795 226.98,-108.1201 237,-132 241.6052,-142.9753 249.6497,-152.8427 258.1877,-161.0471"/>
<polygon fill="#000000" stroke="#000000" points="255.9597,-163.7503 265.7437,-167.8151 260.6301,-158.536 255.9597,-163.7503"/>
<g id="a_edge25&#45;headlabel"><a xlink:href="dir_000301_000250.html" target="_top" xlink:title="15">
<text text-anchor="middle" x="251.3878" y="-160.4669" font-family="FreeSans" font-size="10.00" fill="#000000">15</text>
</a>
</g>
</g>
<!-- dir_7dec5a1210dec22bcae358209d95774c&#45;&gt;dir_7837ac6bf932a09e2a00690c17304d39 -->
<g id="edge23" class="edge">
<title>dir_7dec5a1210dec22bcae358209d95774c&#45;&gt;dir_7837ac6bf932a09e2a00690c17304d39</title>
<path fill="none" stroke="#000000" d="M118.2073,-245.6556C122.7835,-243.6946 127.5057,-241.7411 132,-240 173.7452,-223.8281 222.618,-207.7356 255.2619,-197.3818"/>
<polygon fill="#000000" stroke="#000000" points="256.3618,-200.7049 264.8459,-194.359 254.2562,-194.0291 256.3618,-200.7049"/>
<g id="a_edge23&#45;headlabel"><a xlink:href="dir_000304_000250.html" target="_top" xlink:title="4">
<text text-anchor="middle" x="253.7876" y="-201.4938" font-family="FreeSans" font-size="10.00" fill="#000000">4</text>
</a>
</g>
</g>
<!-- dir_7dec5a1210dec22bcae358209d95774c&#45;&gt;dir_d9360b0a9ef470d1b93a490666fd24ab -->
<g id="edge22" class="edge">
<title>dir_7dec5a1210dec22bcae358209d95774c&#45;&gt;dir_d9360b0a9ef470d1b93a490666fd24ab</title>
<path fill="none" stroke="#000000" d="M116.4568,-239.7623C152.477,-213.9567 218.3779,-166.7442 258.3839,-138.0832"/>
<polygon fill="#000000" stroke="#000000" points="260.6591,-140.7587 266.7499,-132.0896 256.5824,-135.0683 260.6591,-140.7587"/>
<g id="a_edge22&#45;headlabel"><a xlink:href="dir_000304_000247.html" target="_top" xlink:title="3">
<text text-anchor="middle" x="259.3906" y="-142.1602" font-family="FreeSans" font-size="10.00" fill="#000000">3</text>
</a>
</g>
</g>
<!-- dir_7dec5a1210dec22bcae358209d95774c&#45;&gt;dir_82437f4cf81cd442d5a46aacd8d4b495 -->
<g id="edge24" class="edge">
<title>dir_7dec5a1210dec22bcae358209d95774c&#45;&gt;dir_82437f4cf81cd442d5a46aacd8d4b495</title>
<path fill="none" stroke="#000000" d="M105.0346,-239.9555C134.7434,-201.7585 204.0869,-112.6025 238.6565,-68.1559"/>
<polygon fill="#000000" stroke="#000000" points="241.5105,-70.1874 244.8872,-60.1451 235.985,-65.8898 241.5105,-70.1874"/>
<g id="a_edge24&#45;headlabel"><a xlink:href="dir_000304_000301.html" target="_top" xlink:title="1">
<text text-anchor="middle" x="241.5448" y="-71.7679" font-family="FreeSans" font-size="10.00" fill="#000000">1</text>
</a>
</g>
</g>
</g>
</svg>
