<?xml version="1.0" encoding="UTF-8" standalone="no"?>
<!DOCTYPE svg PUBLIC "-//W3C//DTD SVG 1.1//EN"
 "http://www.w3.org/Graphics/SVG/1.1/DTD/svg11.dtd">
<!-- Generated by graphviz version 2.40.1 (20161225.0304)
 -->
<!-- Title: PHG4TpcDigitizer::PHG4TpcDigitizer Pages: 1 -->
<svg width="333pt" height="107pt"
 viewBox="0.00 0.00 333.00 107.00" xmlns="http://www.w3.org/2000/svg" xmlns:xlink="http://www.w3.org/1999/xlink">
<g id="graph0" class="graph" transform="scale(1 1) rotate(0) translate(4 103)">
<title>PHG4TpcDigitizer::PHG4TpcDigitizer</title>
<!-- Node1 -->
<g id="node1" class="node">
<title>Node1</title>
<polygon fill="#bfbfbf" stroke="#000000" points="0,-33.5 0,-65.5 157,-65.5 157,-33.5 0,-33.5"/>
<text text-anchor="start" x="8" y="-52.5" font-family="FreeSans" font-size="10.00" fill="#000000">PHG4TpcDigitizer::PHG4Tpc</text>
<text text-anchor="middle" x="78.5" y="-40.5" font-family="FreeSans" font-size="10.00" fill="#000000">Digitizer</text>
</g>
<!-- Node2 -->
<g id="node2" class="node">
<title>Node2</title>
<g id="a_node2"><a xlink:href="../../d1/d0a/PHTruthVertexing_8cc.html#ad8eec1a5a0219e016430a4b0759daf18" target="_top" xlink:title="gsl_rng_set">
<polygon fill="none" stroke="#000000" points="222,-78.5 222,-98.5 296,-98.5 296,-78.5 222,-78.5"/>
<text text-anchor="middle" x="259" y="-85.5" font-family="FreeSans" font-size="10.00" fill="#000000">gsl_rng_set</text>
</a>
</g>
</g>
<!-- Node1&#45;&gt;Node2 -->
<g id="edge1" class="edge">
<title>Node1&#45;&gt;Node2</title>
<path fill="none" stroke="#191970" d="M152.6977,-65.5316C172.6233,-69.8369 193.6275,-74.3752 211.6551,-78.2704"/>
<polygon fill="#191970" stroke="#191970" points="211.102,-81.7316 221.6157,-80.4225 212.5804,-74.8894 211.102,-81.7316"/>
</g>
<!-- Node3 -->
<g id="node3" class="node">
<title>Node3</title>
<g id="a_node3"><a xlink:href="../../d5/dec/classFun4AllBase.html#a41f9ac377743d046f590617fd6f4f0ed" target="_top" xlink:title="Returns the name of this module.">
<polygon fill="none" stroke="#000000" points="201.5,-39.5 201.5,-59.5 316.5,-59.5 316.5,-39.5 201.5,-39.5"/>
<text text-anchor="middle" x="259" y="-46.5" font-family="FreeSans" font-size="10.00" fill="#000000">Fun4AllBase::Name</text>
</a>
</g>
</g>
<!-- Node1&#45;&gt;Node3 -->
<g id="edge2" class="edge">
<title>Node1&#45;&gt;Node3</title>
<path fill="none" stroke="#191970" d="M157.1449,-49.5C168.4917,-49.5 180.0873,-49.5 191.1983,-49.5"/>
<polygon fill="#191970" stroke="#191970" points="191.2449,-53.0001 201.2449,-49.5 191.2448,-46.0001 191.2449,-53.0001"/>
</g>
<!-- Node4 -->
<g id="node4" class="node">
<title>Node4</title>
<g id="a_node4"><a xlink:href="../../d5/dec/classFun4AllBase.html#a8a5c77a92bdac6bc043476e132379a40" target="_top" xlink:title="Gets the verbosity of this module.">
<polygon fill="none" stroke="#000000" points="193,-.5 193,-20.5 325,-20.5 325,-.5 193,-.5"/>
<text text-anchor="middle" x="259" y="-7.5" font-family="FreeSans" font-size="10.00" fill="#000000">Fun4AllBase::Verbosity</text>
</a>
</g>
</g>
<!-- Node1&#45;&gt;Node4 -->
<g id="edge3" class="edge">
<title>Node1&#45;&gt;Node4</title>
<path fill="none" stroke="#191970" d="M152.6977,-33.4684C169.2884,-29.8837 186.6269,-26.1374 202.3724,-22.7353"/>
<polygon fill="#191970" stroke="#191970" points="203.4302,-26.0876 212.4654,-20.5546 201.9518,-19.2455 203.4302,-26.0876"/>
</g>
</g>
</svg>
