<?xml version="1.0" encoding="UTF-8" standalone="no"?>
<!DOCTYPE svg PUBLIC "-//W3C//DTD SVG 1.1//EN"
 "http://www.w3.org/Graphics/SVG/1.1/DTD/svg11.dtd">
<!-- Generated by graphviz version 2.40.1 (20161225.0304)
 -->
<!-- Title: genfit::GblFitter::cleanGblInfo Pages: 1 -->
<svg width="735pt" height="287pt"
 viewBox="0.00 0.00 735.00 287.00" xmlns="http://www.w3.org/2000/svg" xmlns:xlink="http://www.w3.org/1999/xlink">
<g id="graph0" class="graph" transform="scale(1 1) rotate(0) translate(4 283)">
<title>genfit::GblFitter::cleanGblInfo</title>
<!-- Node1 -->
<g id="node1" class="node">
<title>Node1</title>
<polygon fill="#bfbfbf" stroke="#000000" points="0,-115.5 0,-147.5 101,-147.5 101,-115.5 0,-115.5"/>
<text text-anchor="start" x="8" y="-134.5" font-family="FreeSans" font-size="10.00" fill="#000000">genfit::GblFitter::</text>
<text text-anchor="middle" x="50.5" y="-122.5" font-family="FreeSans" font-size="10.00" fill="#000000">cleanGblInfo</text>
</g>
<!-- Node2 -->
<g id="node2" class="node">
<title>Node2</title>
<g id="a_node2"><a xlink:href="../../db/d40/classgenfit_1_1TrackPoint.html#a0c91664442aa72027678ca9ef17b304e" target="_top" xlink:title="genfit::TrackPoint\l::deleteFitterInfo">
<polygon fill="none" stroke="#000000" points="163,-219.5 163,-251.5 267,-251.5 267,-219.5 163,-219.5"/>
<text text-anchor="start" x="171" y="-238.5" font-family="FreeSans" font-size="10.00" fill="#000000">genfit::TrackPoint</text>
<text text-anchor="middle" x="215" y="-226.5" font-family="FreeSans" font-size="10.00" fill="#000000">::deleteFitterInfo</text>
</a>
</g>
</g>
<!-- Node1&#45;&gt;Node2 -->
<g id="edge1" class="edge">
<title>Node1&#45;&gt;Node2</title>
<path fill="none" stroke="#191970" d="M64.2247,-147.6511C80.0897,-165.382 107.7882,-193.5745 137,-210.5 142.1235,-213.4686 147.644,-216.1329 153.2967,-218.5134"/>
<polygon fill="#191970" stroke="#191970" points="152.2997,-221.8813 162.8879,-222.2552 154.8438,-215.36 152.2997,-221.8813"/>
</g>
<!-- Node3 -->
<g id="node3" class="node">
<title>Node3</title>
<g id="a_node3"><a xlink:href="../../d6/d8a/classgenfit_1_1Track.html#a1ea13a2c39bc51c7b583b41d0371dd1a" target="_top" xlink:title="genfit::Track::deletePoint">
<polygon fill="none" stroke="#000000" points="143.5,-180.5 143.5,-200.5 286.5,-200.5 286.5,-180.5 143.5,-180.5"/>
<text text-anchor="middle" x="215" y="-187.5" font-family="FreeSans" font-size="10.00" fill="#000000">genfit::Track::deletePoint</text>
</a>
</g>
</g>
<!-- Node1&#45;&gt;Node3 -->
<g id="edge2" class="edge">
<title>Node1&#45;&gt;Node3</title>
<path fill="none" stroke="#191970" d="M81.5265,-147.6315C97.7419,-155.6013 118.0999,-164.8985 137,-171.5 143.4536,-173.7542 150.2975,-175.842 157.1451,-177.7445"/>
<polygon fill="#191970" stroke="#191970" points="156.5721,-181.2136 167.1354,-180.3971 158.3685,-174.448 156.5721,-181.2136"/>
</g>
<!-- Node9 -->
<g id="node9" class="node">
<title>Node9</title>
<g id="a_node9"><a xlink:href="../../d6/d8a/classgenfit_1_1Track.html#a30a99be76e2dbd190d6567830eaeb0fc" target="_top" xlink:title="genfit::Track::getNumPoints">
<polygon fill="none" stroke="#000000" points="137,-141.5 137,-161.5 293,-161.5 293,-141.5 137,-141.5"/>
<text text-anchor="middle" x="215" y="-148.5" font-family="FreeSans" font-size="10.00" fill="#000000">genfit::Track::getNumPoints</text>
</a>
</g>
</g>
<!-- Node1&#45;&gt;Node9 -->
<g id="edge11" class="edge">
<title>Node1&#45;&gt;Node9</title>
<path fill="none" stroke="#191970" d="M101.1977,-137.6639C109.4284,-138.6645 118.156,-139.7256 126.9725,-140.7976"/>
<polygon fill="#191970" stroke="#191970" points="126.5934,-144.2772 136.9427,-142.0098 127.4383,-137.3283 126.5934,-144.2772"/>
</g>
<!-- Node10 -->
<g id="node10" class="node">
<title>Node10</title>
<g id="a_node10"><a xlink:href="../../d6/d8a/classgenfit_1_1Track.html#a5602573df709db1f68603207d2c3cf90" target="_top" xlink:title="genfit::Track::getPoint">
<polygon fill="none" stroke="#000000" points="151,-102.5 151,-122.5 279,-122.5 279,-102.5 151,-102.5"/>
<text text-anchor="middle" x="215" y="-109.5" font-family="FreeSans" font-size="10.00" fill="#000000">genfit::Track::getPoint</text>
</a>
</g>
</g>
<!-- Node1&#45;&gt;Node10 -->
<g id="edge12" class="edge">
<title>Node1&#45;&gt;Node10</title>
<path fill="none" stroke="#191970" d="M101.1977,-125.6443C113.6854,-124.202 127.3167,-122.6275 140.6673,-121.0855"/>
<polygon fill="#191970" stroke="#191970" points="141.2659,-124.5398 150.7982,-119.9154 140.4627,-117.586 141.2659,-124.5398"/>
</g>
<!-- Node11 -->
<g id="node11" class="node">
<title>Node11</title>
<g id="a_node11"><a xlink:href="../../db/d40/classgenfit_1_1TrackPoint.html#ada7b4d8c988a1798e455fb70929f88b7" target="_top" xlink:title="genfit::TrackPoint\l::hasRawMeasurements">
<polygon fill="none" stroke="#000000" points="146.5,-51.5 146.5,-83.5 283.5,-83.5 283.5,-51.5 146.5,-51.5"/>
<text text-anchor="start" x="154.5" y="-70.5" font-family="FreeSans" font-size="10.00" fill="#000000">genfit::TrackPoint</text>
<text text-anchor="middle" x="215" y="-58.5" font-family="FreeSans" font-size="10.00" fill="#000000">::hasRawMeasurements</text>
</a>
</g>
</g>
<!-- Node1&#45;&gt;Node11 -->
<g id="edge13" class="edge">
<title>Node1&#45;&gt;Node11</title>
<path fill="none" stroke="#191970" d="M83.8103,-115.4156C99.7301,-108.0045 119.1627,-99.3543 137,-92.5 142.0607,-90.5553 147.344,-88.6354 152.6714,-86.776"/>
<polygon fill="#191970" stroke="#191970" points="153.935,-90.0431 162.2697,-83.5022 151.6752,-83.4179 153.935,-90.0431"/>
</g>
<!-- Node12 -->
<g id="node12" class="node">
<title>Node12</title>
<g id="a_node12"><a xlink:href="../../db/d40/classgenfit_1_1TrackPoint.html#a3ff8137a7361f95f3039440753a46e3b" target="_top" xlink:title="genfit::TrackPoint\l::setScatterer">
<polygon fill="none" stroke="#000000" points="163,-.5 163,-32.5 267,-32.5 267,-.5 163,-.5"/>
<text text-anchor="start" x="171" y="-19.5" font-family="FreeSans" font-size="10.00" fill="#000000">genfit::TrackPoint</text>
<text text-anchor="middle" x="215" y="-7.5" font-family="FreeSans" font-size="10.00" fill="#000000">::setScatterer</text>
</a>
</g>
</g>
<!-- Node1&#45;&gt;Node12 -->
<g id="edge14" class="edge">
<title>Node1&#45;&gt;Node12</title>
<path fill="none" stroke="#191970" d="M62.1121,-115.1611C77.1972,-95.0735 105.3728,-61.2273 137,-41.5 142.0242,-38.3662 147.4776,-35.5904 153.0877,-33.1391"/>
<polygon fill="#191970" stroke="#191970" points="154.6494,-36.2839 162.6289,-29.3142 152.0446,-29.7866 154.6494,-36.2839"/>
</g>
<!-- Node4 -->
<g id="node4" class="node">
<title>Node4</title>
<g id="a_node4"><a xlink:href="../../d6/d8a/classgenfit_1_1Track.html#a409abb47dc8fb5134031f8af1ce9b44a" target="_top" xlink:title="genfit::Track::deleteBackwardInfo">
<polygon fill="none" stroke="#000000" points="329.5,-258.5 329.5,-278.5 515.5,-278.5 515.5,-258.5 329.5,-258.5"/>
<text text-anchor="middle" x="422.5" y="-265.5" font-family="FreeSans" font-size="10.00" fill="#000000">genfit::Track::deleteBackwardInfo</text>
</a>
</g>
</g>
<!-- Node3&#45;&gt;Node4 -->
<g id="edge3" class="edge">
<title>Node3&#45;&gt;Node4</title>
<path fill="none" stroke="#191970" d="M268.773,-200.564C277.1485,-203.1763 285.5019,-206.438 293,-210.5 312.0846,-220.8388 309.9687,-233.0634 329,-243.5 337.8398,-248.3477 347.672,-252.2963 357.5459,-255.501"/>
<polygon fill="#191970" stroke="#191970" points="356.8142,-258.9357 367.3985,-258.4634 358.8298,-252.2321 356.8142,-258.9357"/>
</g>
<!-- Node5 -->
<g id="node5" class="node">
<title>Node5</title>
<g id="a_node5"><a xlink:href="../../d6/d8a/classgenfit_1_1Track.html#ad4ead0ee2abc2bcb6b616f8976bc559a" target="_top" xlink:title="genfit::Track::trackHasChanged">
<polygon fill="none" stroke="#000000" points="552,-199.5 552,-219.5 727,-219.5 727,-199.5 552,-199.5"/>
<text text-anchor="middle" x="639.5" y="-206.5" font-family="FreeSans" font-size="10.00" fill="#000000">genfit::Track::trackHasChanged</text>
</a>
</g>
</g>
<!-- Node3&#45;&gt;Node5 -->
<g id="edge10" class="edge">
<title>Node3&#45;&gt;Node5</title>
<path fill="none" stroke="#191970" d="M261.35,-200.5126C281.9567,-204.4761 306.5796,-208.5482 329,-210.5 400.0928,-216.6889 480.6887,-216.2097 541.9489,-214.3038"/>
<polygon fill="#191970" stroke="#191970" points="542.1158,-217.8003 551.9953,-213.9731 541.8855,-210.8041 542.1158,-217.8003"/>
</g>
<!-- Node6 -->
<g id="node6" class="node">
<title>Node6</title>
<g id="a_node6"><a xlink:href="../../d6/d8a/classgenfit_1_1Track.html#ad6ac9e44842a18fbba2577a887f008c5" target="_top" xlink:title="genfit::Track::deleteForwardInfo">
<polygon fill="none" stroke="#000000" points="334,-180.5 334,-200.5 511,-200.5 511,-180.5 334,-180.5"/>
<text text-anchor="middle" x="422.5" y="-187.5" font-family="FreeSans" font-size="10.00" fill="#000000">genfit::Track::deleteForwardInfo</text>
</a>
</g>
</g>
<!-- Node3&#45;&gt;Node6 -->
<g id="edge5" class="edge">
<title>Node3&#45;&gt;Node6</title>
<path fill="none" stroke="#191970" d="M286.7003,-190.5C298.7165,-190.5 311.3688,-190.5 323.92,-190.5"/>
<polygon fill="#191970" stroke="#191970" points="323.95,-194.0001 333.95,-190.5 323.95,-187.0001 323.95,-194.0001"/>
</g>
<!-- Node7 -->
<g id="node7" class="node">
<title>Node7</title>
<g id="a_node7"><a xlink:href="../../d6/d8a/classgenfit_1_1Track.html#aef6313a66e86853f9eef2e38f519bc37" target="_top" xlink:title="genfit::Track::deleteReferenceInfo">
<polygon fill="none" stroke="#000000" points="329,-141.5 329,-161.5 516,-161.5 516,-141.5 329,-141.5"/>
<text text-anchor="middle" x="422.5" y="-148.5" font-family="FreeSans" font-size="10.00" fill="#000000">genfit::Track::deleteReferenceInfo</text>
</a>
</g>
</g>
<!-- Node3&#45;&gt;Node7 -->
<g id="edge7" class="edge">
<title>Node3&#45;&gt;Node7</title>
<path fill="none" stroke="#191970" d="M268.4364,-180.4565C296.1495,-175.2478 330.182,-168.8513 359.206,-163.3962"/>
<polygon fill="#191970" stroke="#191970" points="360.0633,-166.7965 369.2447,-161.5094 358.7702,-159.9169 360.0633,-166.7965"/>
</g>
<!-- Node8 -->
<g id="node8" class="node">
<title>Node8</title>
<g id="a_node8"><a xlink:href="../../d6/d8a/classgenfit_1_1Track.html#aebe51cd12b541bb8821c1b919480371d" target="_top" xlink:title="genfit::Track::fillPoints\lWithMeasurement">
<polygon fill="none" stroke="#000000" points="358.5,-90.5 358.5,-122.5 486.5,-122.5 486.5,-90.5 358.5,-90.5"/>
<text text-anchor="start" x="366.5" y="-109.5" font-family="FreeSans" font-size="10.00" fill="#000000">genfit::Track::fillPoints</text>
<text text-anchor="middle" x="422.5" y="-97.5" font-family="FreeSans" font-size="10.00" fill="#000000">WithMeasurement</text>
</a>
</g>
</g>
<!-- Node3&#45;&gt;Node8 -->
<g id="edge9" class="edge">
<title>Node3&#45;&gt;Node8</title>
<path fill="none" stroke="#191970" d="M273.163,-180.4001C280.0944,-178.0303 286.8748,-175.1066 293,-171.5 313.3271,-159.5311 308.8688,-144.7955 329,-132.5 335.1289,-128.7566 341.8091,-125.539 348.6869,-122.7759"/>
<polygon fill="#191970" stroke="#191970" points="349.9845,-126.0278 358.1551,-119.2829 347.5617,-119.4604 349.9845,-126.0278"/>
</g>
<!-- Node4&#45;&gt;Node5 -->
<g id="edge4" class="edge">
<title>Node4&#45;&gt;Node5</title>
<path fill="none" stroke="#191970" d="M460.2768,-258.4671C477.3104,-253.9258 497.6753,-248.4722 516,-243.5 541.6134,-236.5501 570.1849,-228.6912 593.3902,-222.281"/>
<polygon fill="#191970" stroke="#191970" points="594.6067,-225.5761 603.3126,-219.5381 592.7416,-218.8291 594.6067,-225.5761"/>
</g>
<!-- Node6&#45;&gt;Node5 -->
<g id="edge6" class="edge">
<title>Node6&#45;&gt;Node5</title>
<path fill="none" stroke="#191970" d="M511.0752,-198.2554C521.1831,-199.1405 531.5299,-200.0464 541.7483,-200.9411"/>
<polygon fill="#191970" stroke="#191970" points="541.6431,-204.4452 551.9103,-201.8309 542.2537,-197.4719 541.6431,-204.4452"/>
</g>
<!-- Node7&#45;&gt;Node5 -->
<g id="edge8" class="edge">
<title>Node7&#45;&gt;Node5</title>
<path fill="none" stroke="#191970" d="M473.6436,-161.5925C487.4499,-164.5474 502.345,-167.9461 516,-171.5 544.1141,-178.817 575.3875,-188.4553 599.4297,-196.1939"/>
<polygon fill="#191970" stroke="#191970" points="598.6684,-199.6264 609.2605,-199.3818 600.8278,-192.9678 598.6684,-199.6264"/>
</g>
</g>
</svg>
