<?xml version="1.0" encoding="UTF-8" standalone="no"?>
<!DOCTYPE svg PUBLIC "-//W3C//DTD SVG 1.1//EN"
 "http://www.w3.org/Graphics/SVG/1.1/DTD/svg11.dtd">
<!-- Generated by graphviz version 2.40.1 (20161225.0304)
 -->
<!-- Title: TrkrCluster::getError Pages: 1 -->
<svg width="505pt" height="401pt"
 viewBox="0.00 0.00 505.00 401.00" xmlns="http://www.w3.org/2000/svg" xmlns:xlink="http://www.w3.org/1999/xlink">
<g id="graph0" class="graph" transform="scale(1 1) rotate(0) translate(4 397)">
<title>TrkrCluster::getError</title>
<!-- Node1 -->
<g id="node1" class="node">
<title>Node1</title>
<polygon fill="#bfbfbf" stroke="#000000" points="0,-192.5 0,-212.5 120,-212.5 120,-192.5 0,-192.5"/>
<text text-anchor="middle" x="60" y="-199.5" font-family="FreeSans" font-size="10.00" fill="#000000">TrkrCluster::getError</text>
</g>
<!-- Node2 -->
<g id="node2" class="node">
<title>Node2</title>
<g id="a_node2"><a xlink:href="../../da/df1/classPHRTreeSeeding.html#a4bd5e58d3f18d37a3ac8a29f7c4b0c6c" target="_top" xlink:title="PHRTreeSeeding::chisq">
<polygon fill="none" stroke="#000000" points="168.5,-372.5 168.5,-392.5 299.5,-392.5 299.5,-372.5 168.5,-372.5"/>
<text text-anchor="middle" x="234" y="-379.5" font-family="FreeSans" font-size="10.00" fill="#000000">PHRTreeSeeding::chisq</text>
</a>
</g>
</g>
<!-- Node1&#45;&gt;Node2 -->
<g id="edge1" class="edge">
<title>Node1&#45;&gt;Node2</title>
<path fill="none" stroke="#191970" d="M66.1936,-222.5278C77.8997,-256.9267 106.6277,-327.044 156,-363.5 160.9334,-367.1428 166.4751,-370.0946 172.2704,-372.4854"/>
<polygon fill="#191970" stroke="#191970" points="69.4168,-221.1226 62.9865,-212.7023 62.7623,-223.2947 69.4168,-221.1226"/>
</g>
<!-- Node3 -->
<g id="node3" class="node">
<title>Node3</title>
<g id="a_node3"><a xlink:href="../../d2/d93/classTrkrEvaluator.html#a753a5ea1a91f097f5c226f5b1620db3f" target="_top" xlink:title="dump the evaluator information into ntuple for external analysis">
<polygon fill="none" stroke="#000000" points="164.5,-321.5 164.5,-353.5 303.5,-353.5 303.5,-321.5 164.5,-321.5"/>
<text text-anchor="start" x="172.5" y="-340.5" font-family="FreeSans" font-size="10.00" fill="#000000">TrkrEvaluator::fillOutput</text>
<text text-anchor="middle" x="234" y="-328.5" font-family="FreeSans" font-size="10.00" fill="#000000">Ntuples</text>
</a>
</g>
</g>
<!-- Node1&#45;&gt;Node3 -->
<g id="edge2" class="edge">
<title>Node1&#45;&gt;Node3</title>
<path fill="none" stroke="#191970" d="M71.6756,-221.3336C87.7585,-245.7723 118.9812,-288.1558 156,-312.5 161.109,-315.8597 166.7023,-318.7962 172.4731,-321.3567"/>
<polygon fill="#191970" stroke="#191970" points="74.4395,-219.16 66.093,-212.6341 68.5482,-222.9406 74.4395,-219.16"/>
</g>
<!-- Node5 -->
<g id="node5" class="node">
<title>Node5</title>
<g id="a_node5"><a xlink:href="../../d6/d11/classSvtxEvaluator.html#ace95fef2b7b4ad8b797f6695e053dd6e" target="_top" xlink:title="dump the evaluator information into ntuple for external analysis">
<polygon fill="none" stroke="#000000" points="163.5,-270.5 163.5,-302.5 304.5,-302.5 304.5,-270.5 163.5,-270.5"/>
<text text-anchor="start" x="171.5" y="-289.5" font-family="FreeSans" font-size="10.00" fill="#000000">SvtxEvaluator::fillOutput</text>
<text text-anchor="middle" x="234" y="-277.5" font-family="FreeSans" font-size="10.00" fill="#000000">Ntuples</text>
</a>
</g>
</g>
<!-- Node1&#45;&gt;Node5 -->
<g id="edge4" class="edge">
<title>Node1&#45;&gt;Node5</title>
<path fill="none" stroke="#191970" d="M82.2793,-218.3381C101.2058,-231.2578 129.4509,-249.3041 156,-261.5 162.9779,-264.7055 170.4826,-267.671 177.9813,-270.3551"/>
<polygon fill="#191970" stroke="#191970" points="84.2464,-215.443 74.032,-212.6291 80.2622,-221.1986 84.2464,-215.443"/>
</g>
<!-- Node7 -->
<g id="node7" class="node">
<title>Node7</title>
<g id="a_node7"><a xlink:href="../../da/df1/classPHRTreeSeeding.html#a0aba948a58d39c1064797b4568d7d811" target="_top" xlink:title="PHRTreeSeeding::Process">
<polygon fill="none" stroke="#000000" points="162.5,-231.5 162.5,-251.5 305.5,-251.5 305.5,-231.5 162.5,-231.5"/>
<text text-anchor="middle" x="234" y="-238.5" font-family="FreeSans" font-size="10.00" fill="#000000">PHRTreeSeeding::Process</text>
</a>
</g>
</g>
<!-- Node1&#45;&gt;Node7 -->
<g id="edge6" class="edge">
<title>Node1&#45;&gt;Node7</title>
<path fill="none" stroke="#191970" d="M114.8359,-214.7908C138.8346,-220.1698 166.6336,-226.4006 189.3425,-231.4906"/>
<polygon fill="#191970" stroke="#191970" points="115.3327,-211.3154 104.8093,-212.5435 113.8017,-218.1459 115.3327,-211.3154"/>
</g>
<!-- Node8 -->
<g id="node8" class="node">
<title>Node8</title>
<g id="a_node8"><a xlink:href="../../d1/d08/classPHCASeeding.html#aaa4eca2abbf1065bb9b48de9cb683494" target="_top" xlink:title="PHCASeeding::Process">
<polygon fill="none" stroke="#000000" points="169,-192.5 169,-212.5 299,-212.5 299,-192.5 169,-192.5"/>
<text text-anchor="middle" x="234" y="-199.5" font-family="FreeSans" font-size="10.00" fill="#000000">PHCASeeding::Process</text>
</a>
</g>
</g>
<!-- Node1&#45;&gt;Node8 -->
<g id="edge7" class="edge">
<title>Node1&#45;&gt;Node8</title>
<path fill="none" stroke="#191970" d="M130.4558,-202.5C143.1924,-202.5 156.4202,-202.5 168.9923,-202.5"/>
<polygon fill="#191970" stroke="#191970" points="130.3685,-199.0001 120.3684,-202.5 130.3684,-206.0001 130.3685,-199.0001"/>
</g>
<!-- Node9 -->
<g id="node9" class="node">
<title>Node9</title>
<g id="a_node9"><a xlink:href="../../d7/d3c/PHRTreeSeeding_8cc.html#a35456827f072aca76d5e96388015c02d" target="_top" xlink:title="RosenBrock">
<polygon fill="none" stroke="#000000" points="196,-153.5 196,-173.5 272,-173.5 272,-153.5 196,-153.5"/>
<text text-anchor="middle" x="234" y="-160.5" font-family="FreeSans" font-size="10.00" fill="#000000">RosenBrock</text>
</a>
</g>
</g>
<!-- Node1&#45;&gt;Node9 -->
<g id="edge8" class="edge">
<title>Node1&#45;&gt;Node9</title>
<path fill="none" stroke="#191970" d="M114.6665,-190.2472C141.0408,-184.3357 172.037,-177.3883 195.8284,-172.0557"/>
<polygon fill="#191970" stroke="#191970" points="113.8017,-186.8541 104.8093,-192.4565 115.3327,-193.6846 113.8017,-186.8541"/>
</g>
<!-- Node10 -->
<g id="node10" class="node">
<title>Node10</title>
<g id="a_node10"><a xlink:href="../../d1/d97/classPHPatternReco.html#aceb09e501b427d8fbce29e7790bd19d4" target="_top" xlink:title="PHPatternReco::translate\l_input">
<polygon fill="none" stroke="#000000" points="163,-102.5 163,-134.5 305,-134.5 305,-102.5 163,-102.5"/>
<text text-anchor="start" x="171" y="-121.5" font-family="FreeSans" font-size="10.00" fill="#000000">PHPatternReco::translate</text>
<text text-anchor="middle" x="234" y="-109.5" font-family="FreeSans" font-size="10.00" fill="#000000">_input</text>
</a>
</g>
</g>
<!-- Node1&#45;&gt;Node10 -->
<g id="edge9" class="edge">
<title>Node1&#45;&gt;Node10</title>
<path fill="none" stroke="#191970" d="M82.9438,-186.6447C101.9091,-174.0353 129.8691,-156.5669 156,-144.5 163.7755,-140.9094 172.1909,-137.5736 180.5191,-134.5705"/>
<polygon fill="#191970" stroke="#191970" points="80.7406,-183.9088 74.4035,-192.3995 84.6523,-189.7139 80.7406,-183.9088"/>
</g>
<!-- Node12 -->
<g id="node12" class="node">
<title>Node12</title>
<g id="a_node12"><a xlink:href="../../d2/d8f/classPHInitZVertexing.html#aefdd3d35e9f530093d9dc58a457b1e79" target="_top" xlink:title="PHInitZVertexing::translate\l_input">
<polygon fill="none" stroke="#000000" points="157.5,-51.5 157.5,-83.5 310.5,-83.5 310.5,-51.5 157.5,-51.5"/>
<text text-anchor="start" x="165.5" y="-70.5" font-family="FreeSans" font-size="10.00" fill="#000000">PHInitZVertexing::translate</text>
<text text-anchor="middle" x="234" y="-58.5" font-family="FreeSans" font-size="10.00" fill="#000000">_input</text>
</a>
</g>
</g>
<!-- Node1&#45;&gt;Node12 -->
<g id="edge11" class="edge">
<title>Node1&#45;&gt;Node12</title>
<path fill="none" stroke="#191970" d="M71.759,-183.9058C87.9338,-159.7643 119.2575,-117.8486 156,-93.5 161.7114,-89.7152 168.0231,-86.4356 174.5094,-83.6049"/>
<polygon fill="#191970" stroke="#191970" points="68.6845,-182.2123 66.1412,-192.4974 74.5432,-186.0431 68.6845,-182.2123"/>
</g>
<!-- Node14 -->
<g id="node14" class="node">
<title>Node14</title>
<g id="a_node14"><a xlink:href="../../d8/dd4/classPHHoughSeeding.html#a4204cf7d0291bbdbfd0d299e8435512e" target="_top" xlink:title="fetch node pointers">
<polygon fill="none" stroke="#000000" points="156,-.5 156,-32.5 312,-32.5 312,-.5 156,-.5"/>
<text text-anchor="start" x="164" y="-19.5" font-family="FreeSans" font-size="10.00" fill="#000000">PHHoughSeeding::translate</text>
<text text-anchor="middle" x="234" y="-7.5" font-family="FreeSans" font-size="10.00" fill="#000000">_input</text>
</a>
</g>
</g>
<!-- Node1&#45;&gt;Node14 -->
<g id="edge13" class="edge">
<title>Node1&#45;&gt;Node14</title>
<path fill="none" stroke="#191970" d="M66.7281,-182.5282C79.0875,-148.8063 108.5736,-80.5441 156,-42.5 160.7878,-38.6594 166.1679,-35.3754 171.8061,-32.5694"/>
<polygon fill="#191970" stroke="#191970" points="63.3488,-181.5863 63.316,-192.1811 69.9487,-183.9192 63.3488,-181.5863"/>
</g>
<!-- Node4 -->
<g id="node4" class="node">
<title>Node4</title>
<g id="a_node4"><a xlink:href="../../d2/d93/classTrkrEvaluator.html#af1cb893f5a8aebc803c2bb55dd582e5a" target="_top" xlink:title="TrkrEvaluator::process\l_event">
<polygon fill="none" stroke="#000000" points="357.5,-321.5 357.5,-353.5 487.5,-353.5 487.5,-321.5 357.5,-321.5"/>
<text text-anchor="start" x="365.5" y="-340.5" font-family="FreeSans" font-size="10.00" fill="#000000">TrkrEvaluator::process</text>
<text text-anchor="middle" x="422.5" y="-328.5" font-family="FreeSans" font-size="10.00" fill="#000000">_event</text>
</a>
</g>
</g>
<!-- Node3&#45;&gt;Node4 -->
<g id="edge3" class="edge">
<title>Node3&#45;&gt;Node4</title>
<path fill="none" stroke="#191970" d="M314.0368,-337.5C328.4317,-337.5 343.2794,-337.5 357.1948,-337.5"/>
<polygon fill="#191970" stroke="#191970" points="313.6549,-334.0001 303.6549,-337.5 313.6549,-341.0001 313.6549,-334.0001"/>
</g>
<!-- Node6 -->
<g id="node6" class="node">
<title>Node6</title>
<g id="a_node6"><a xlink:href="../../d6/d11/classSvtxEvaluator.html#ac66ea4145deb621d9e4fb38cf852dc33" target="_top" xlink:title="SvtxEvaluator::process\l_event">
<polygon fill="none" stroke="#000000" points="356.5,-270.5 356.5,-302.5 488.5,-302.5 488.5,-270.5 356.5,-270.5"/>
<text text-anchor="start" x="364.5" y="-289.5" font-family="FreeSans" font-size="10.00" fill="#000000">SvtxEvaluator::process</text>
<text text-anchor="middle" x="422.5" y="-277.5" font-family="FreeSans" font-size="10.00" fill="#000000">_event</text>
</a>
</g>
</g>
<!-- Node5&#45;&gt;Node6 -->
<g id="edge5" class="edge">
<title>Node5&#45;&gt;Node6</title>
<path fill="none" stroke="#191970" d="M314.749,-286.5C328.6342,-286.5 342.9186,-286.5 356.3629,-286.5"/>
<polygon fill="#191970" stroke="#191970" points="314.7268,-283.0001 304.7267,-286.5 314.7267,-290.0001 314.7268,-283.0001"/>
</g>
<!-- Node11 -->
<g id="node11" class="node">
<title>Node11</title>
<g id="a_node11"><a xlink:href="../../d1/d97/classPHPatternReco.html#ac97e2c1e8d98ea16a11d44c134ad0299" target="_top" xlink:title="PHPatternReco::process\l_event">
<polygon fill="none" stroke="#000000" points="354.5,-102.5 354.5,-134.5 490.5,-134.5 490.5,-102.5 354.5,-102.5"/>
<text text-anchor="start" x="362.5" y="-121.5" font-family="FreeSans" font-size="10.00" fill="#000000">PHPatternReco::process</text>
<text text-anchor="middle" x="422.5" y="-109.5" font-family="FreeSans" font-size="10.00" fill="#000000">_event</text>
</a>
</g>
</g>
<!-- Node10&#45;&gt;Node11 -->
<g id="edge10" class="edge">
<title>Node10&#45;&gt;Node11</title>
<path fill="none" stroke="#191970" d="M315.5315,-118.5C328.445,-118.5 341.6828,-118.5 354.2515,-118.5"/>
<polygon fill="#191970" stroke="#191970" points="315.2638,-115.0001 305.2638,-118.5 315.2637,-122.0001 315.2638,-115.0001"/>
</g>
<!-- Node13 -->
<g id="node13" class="node">
<title>Node13</title>
<g id="a_node13"><a xlink:href="../../d2/d8f/classPHInitZVertexing.html#a50743230c0f324a28d4410227a526ec8" target="_top" xlink:title="PHInitZVertexing::Process">
<polygon fill="none" stroke="#000000" points="349.5,-57.5 349.5,-77.5 495.5,-77.5 495.5,-57.5 349.5,-57.5"/>
<text text-anchor="middle" x="422.5" y="-64.5" font-family="FreeSans" font-size="10.00" fill="#000000">PHInitZVertexing::Process</text>
</a>
</g>
</g>
<!-- Node12&#45;&gt;Node13 -->
<g id="edge12" class="edge">
<title>Node12&#45;&gt;Node13</title>
<path fill="none" stroke="#191970" d="M320.8989,-67.5C330.3784,-67.5 339.9576,-67.5 349.25,-67.5"/>
<polygon fill="#191970" stroke="#191970" points="320.6702,-64.0001 310.6702,-67.5 320.6701,-71.0001 320.6702,-64.0001"/>
</g>
<!-- Node15 -->
<g id="node15" class="node">
<title>Node15</title>
<g id="a_node15"><a xlink:href="../../d8/dd4/classPHHoughSeeding.html#a8b2c7b85b2bcbe054e071dd6ff624f7d" target="_top" xlink:title="PHHoughSeeding::Process">
<polygon fill="none" stroke="#000000" points="348,-6.5 348,-26.5 497,-26.5 497,-6.5 348,-6.5"/>
<text text-anchor="middle" x="422.5" y="-13.5" font-family="FreeSans" font-size="10.00" fill="#000000">PHHoughSeeding::Process</text>
</a>
</g>
</g>
<!-- Node14&#45;&gt;Node15 -->
<g id="edge14" class="edge">
<title>Node14&#45;&gt;Node15</title>
<path fill="none" stroke="#191970" d="M322.0958,-16.5C330.7115,-16.5 339.396,-16.5 347.8597,-16.5"/>
<polygon fill="#191970" stroke="#191970" points="322.0309,-13.0001 312.0309,-16.5 322.0308,-20.0001 322.0309,-13.0001"/>
</g>
</g>
</svg>
