<?xml version="1.0" encoding="UTF-8" standalone="no"?>
<!DOCTYPE svg PUBLIC "-//W3C//DTD SVG 1.1//EN"
 "http://www.w3.org/Graphics/SVG/1.1/DTD/svg11.dtd">
<!-- Generated by graphviz version 2.40.1 (20161225.0304)
 -->
<!-- Title: Conversion::refitTracks Pages: 1 -->
<svg width="1168pt" height="1346pt"
 viewBox="0.00 0.00 1168.00 1346.00" xmlns="http://www.w3.org/2000/svg" xmlns:xlink="http://www.w3.org/1999/xlink">
<g id="graph0" class="graph" transform="scale(1 1) rotate(0) translate(4 1342)">
<title>Conversion::refitTracks</title>
<!-- Node1 -->
<g id="node1" class="node">
<title>Node1</title>
<polygon fill="#bfbfbf" stroke="#000000" points="0,-760.5 0,-780.5 132,-780.5 132,-760.5 0,-760.5"/>
<text text-anchor="middle" x="66" y="-767.5" font-family="FreeSans" font-size="10.00" fill="#000000">Conversion::refitTracks</text>
</g>
<!-- Node2 -->
<g id="node2" class="node">
<title>Node2</title>
<g id="a_node2"><a xlink:href="../../dc/d41/classConversion.html#a742c2005596c3cef8a453afe94e183fb" target="_top" xlink:title="Conversion::getSecondary\lVertex">
<polygon fill="none" stroke="#000000" points="168,-1045.5 168,-1077.5 318,-1077.5 318,-1045.5 168,-1045.5"/>
<text text-anchor="start" x="176" y="-1064.5" font-family="FreeSans" font-size="10.00" fill="#000000">Conversion::getSecondary</text>
<text text-anchor="middle" x="243" y="-1052.5" font-family="FreeSans" font-size="10.00" fill="#000000">Vertex</text>
</a>
</g>
</g>
<!-- Node1&#45;&gt;Node2 -->
<g id="edge1" class="edge">
<title>Node1&#45;&gt;Node2</title>
<path fill="none" stroke="#191970" d="M72.0927,-780.5169C96.9555,-821.3929 191.1582,-976.2686 228.0526,-1036.9254"/>
<polygon fill="#191970" stroke="#191970" points="225.0772,-1038.7689 233.2643,-1045.4938 231.0578,-1035.1312 225.0772,-1038.7689"/>
</g>
<!-- Node14 -->
<g id="node14" class="node">
<title>Node14</title>
<g id="a_node14"><a xlink:href="../../d6/d17/classSVReco.html#aed33c3da67bd3f1b7c3c73127b8187ea" target="_top" xlink:title="SVReco::refitTrack">
<polygon fill="none" stroke="#000000" points="189,-738.5 189,-758.5 297,-758.5 297,-738.5 189,-738.5"/>
<text text-anchor="middle" x="243" y="-745.5" font-family="FreeSans" font-size="10.00" fill="#000000">SVReco::refitTrack</text>
</a>
</g>
</g>
<!-- Node1&#45;&gt;Node14 -->
<g id="edge13" class="edge">
<title>Node1&#45;&gt;Node14</title>
<path fill="none" stroke="#191970" d="M132.16,-762.2767C147.3184,-760.3926 163.4123,-758.3923 178.4997,-756.517"/>
<polygon fill="#191970" stroke="#191970" points="179.2682,-759.9485 188.7601,-755.2417 178.4047,-753.0019 179.2682,-759.9485"/>
</g>
<!-- Node3 -->
<g id="node3" class="node">
<title>Node3</title>
<g id="a_node3"><a xlink:href="../../d6/d17/classSVReco.html#aa7be1346727f584c539cf568a7d36999" target="_top" xlink:title="SVReco::findSecondaryVertex">
<polygon fill="none" stroke="#000000" points="354,-1215.5 354,-1235.5 520,-1235.5 520,-1215.5 354,-1215.5"/>
<text text-anchor="middle" x="437" y="-1222.5" font-family="FreeSans" font-size="10.00" fill="#000000">SVReco::findSecondaryVertex</text>
</a>
</g>
</g>
<!-- Node2&#45;&gt;Node3 -->
<g id="edge2" class="edge">
<title>Node2&#45;&gt;Node3</title>
<path fill="none" stroke="#191970" d="M261.9548,-1077.5236C298.8285,-1108.6953 379.8738,-1177.2078 417.3192,-1208.8626"/>
<polygon fill="#191970" stroke="#191970" points="415.1326,-1211.5972 425.0291,-1215.3803 419.6518,-1206.2514 415.1326,-1211.5972"/>
</g>
<!-- Node13 -->
<g id="node13" class="node">
<title>Node13</title>
<g id="a_node13"><a xlink:href="../../dc/d41/classConversion.html#ac24ed5367463ba9de80adc6bcf7886fe" target="_top" xlink:title="Conversion::recoCount">
<polygon fill="none" stroke="#000000" points="371,-1051.5 371,-1071.5 503,-1071.5 503,-1051.5 371,-1051.5"/>
<text text-anchor="middle" x="437" y="-1058.5" font-family="FreeSans" font-size="10.00" fill="#000000">Conversion::recoCount</text>
</a>
</g>
</g>
<!-- Node2&#45;&gt;Node13 -->
<g id="edge12" class="edge">
<title>Node2&#45;&gt;Node13</title>
<path fill="none" stroke="#191970" d="M318.0055,-1061.5C331.9907,-1061.5 346.6199,-1061.5 360.6452,-1061.5"/>
<polygon fill="#191970" stroke="#191970" points="360.7333,-1065.0001 370.7333,-1061.5 360.7332,-1058.0001 360.7333,-1065.0001"/>
</g>
<!-- Node4 -->
<g id="node4" class="node">
<title>Node4</title>
<g id="a_node4"><a xlink:href="../../d1/d19/classgenfit_1_1GFRaveVertexFactory.html#a405d099f45ba265292a301c29f27d685" target="_top" xlink:title="genfit::GFRaveVertexFactory\l::setMethod">
<polygon fill="none" stroke="#000000" points="574,-1305.5 574,-1337.5 734,-1337.5 734,-1305.5 574,-1305.5"/>
<text text-anchor="start" x="582" y="-1324.5" font-family="FreeSans" font-size="10.00" fill="#000000">genfit::GFRaveVertexFactory</text>
<text text-anchor="middle" x="654" y="-1312.5" font-family="FreeSans" font-size="10.00" fill="#000000">::setMethod</text>
</a>
</g>
</g>
<!-- Node3&#45;&gt;Node4 -->
<g id="edge3" class="edge">
<title>Node3&#45;&gt;Node4</title>
<path fill="none" stroke="#191970" d="M450.9462,-1235.656C472.4787,-1250.9003 515.5677,-1279.6974 556,-1296.5 561.0163,-1298.5847 566.2515,-1300.5306 571.5793,-1302.3408"/>
<polygon fill="#191970" stroke="#191970" points="570.6506,-1305.7187 581.2421,-1305.4534 572.7969,-1299.0559 570.6506,-1305.7187"/>
</g>
<!-- Node5 -->
<g id="node5" class="node">
<title>Node5</title>
<g id="a_node5"><a xlink:href="../../d2/db8/classSvtxTrack.html#a5f934a41fd25eaa343dd267112b4537d" target="_top" xlink:title="SvtxTrack::get_id">
<polygon fill="none" stroke="#000000" points="603,-1176.5 603,-1196.5 705,-1196.5 705,-1176.5 603,-1176.5"/>
<text text-anchor="middle" x="654" y="-1183.5" font-family="FreeSans" font-size="10.00" fill="#000000">SvtxTrack::get_id</text>
</a>
</g>
</g>
<!-- Node3&#45;&gt;Node5 -->
<g id="edge4" class="edge">
<title>Node3&#45;&gt;Node5</title>
<path fill="none" stroke="#191970" d="M492.8829,-1215.4565C523.4776,-1209.9579 561.4372,-1203.1357 592.825,-1197.4946"/>
<polygon fill="#191970" stroke="#191970" points="593.5441,-1200.9215 602.7673,-1195.7077 592.3058,-1194.0319 593.5441,-1200.9215"/>
</g>
<!-- Node6 -->
<g id="node6" class="node">
<title>Node6</title>
<g id="a_node6"><a xlink:href="../../d7/dd5/classPHGenFit_1_1Track.html#a8cc267bf5a0014b5ba7e057a3b45ba3e" target="_top" xlink:title="PHGenFit::Track::getGenFit\lTrack">
<polygon fill="none" stroke="#000000" points="792,-912.5 792,-944.5 944,-944.5 944,-912.5 792,-912.5"/>
<text text-anchor="start" x="800" y="-931.5" font-family="FreeSans" font-size="10.00" fill="#000000">PHGenFit::Track::getGenFit</text>
<text text-anchor="middle" x="868" y="-919.5" font-family="FreeSans" font-size="10.00" fill="#000000">Track</text>
</a>
</g>
</g>
<!-- Node3&#45;&gt;Node6 -->
<g id="edge5" class="edge">
<title>Node3&#45;&gt;Node6</title>
<path fill="none" stroke="#191970" d="M520.0986,-1231.5429C601.706,-1235.584 718.6715,-1235.6974 752,-1206.5 815.0064,-1151.3032 751.4678,-1096.8783 788,-1021.5 801.0852,-994.5008 823.9948,-969.054 841.9537,-951.6271"/>
<polygon fill="#191970" stroke="#191970" points="844.4485,-954.0849 849.3042,-944.6683 839.6361,-949.0016 844.4485,-954.0849"/>
</g>
<!-- Node7 -->
<g id="node7" class="node">
<title>Node7</title>
<g id="a_node7"><a xlink:href="../../d1/d19/classgenfit_1_1GFRaveVertexFactory.html#a12b2a1abd879414950206ffac162b88e" target="_top" xlink:title="genfit::GFRaveVertexFactory\l::findVertices">
<polygon fill="none" stroke="#000000" points="574,-1254.5 574,-1286.5 734,-1286.5 734,-1254.5 574,-1254.5"/>
<text text-anchor="start" x="582" y="-1273.5" font-family="FreeSans" font-size="10.00" fill="#000000">genfit::GFRaveVertexFactory</text>
<text text-anchor="middle" x="654" y="-1261.5" font-family="FreeSans" font-size="10.00" fill="#000000">::findVertices</text>
</a>
</g>
</g>
<!-- Node3&#45;&gt;Node7 -->
<g id="edge6" class="edge">
<title>Node3&#45;&gt;Node7</title>
<path fill="none" stroke="#191970" d="M485.4289,-1235.5429C509.3476,-1240.503 538.9536,-1246.6424 566.6474,-1252.3854"/>
<polygon fill="#191970" stroke="#191970" points="566.2473,-1255.8768 576.7497,-1254.4804 567.6688,-1249.0227 566.2473,-1255.8768"/>
</g>
<!-- Node8 -->
<g id="node8" class="node">
<title>Node8</title>
<g id="a_node8"><a xlink:href="../../d1/d19/classgenfit_1_1GFRaveVertexFactory.html#a8ead163cdca2540b605aed3419290e50" target="_top" xlink:title="genfit::GFRaveVertexFactory\l::clearMap">
<polygon fill="none" stroke="#000000" points="788,-1209.5 788,-1241.5 948,-1241.5 948,-1209.5 788,-1209.5"/>
<text text-anchor="start" x="796" y="-1228.5" font-family="FreeSans" font-size="10.00" fill="#000000">genfit::GFRaveVertexFactory</text>
<text text-anchor="middle" x="868" y="-1216.5" font-family="FreeSans" font-size="10.00" fill="#000000">::clearMap</text>
</a>
</g>
</g>
<!-- Node7&#45;&gt;Node8 -->
<g id="edge7" class="edge">
<title>Node7&#45;&gt;Node8</title>
<path fill="none" stroke="#191970" d="M730.3526,-1254.4445C747.0093,-1250.942 764.7481,-1247.2119 781.7589,-1243.6348"/>
<polygon fill="#191970" stroke="#191970" points="782.6112,-1247.0322 791.6769,-1241.5493 781.1706,-1240.182 782.6112,-1247.0322"/>
</g>
<!-- Node9 -->
<g id="node9" class="node">
<title>Node9</title>
<g id="a_node9"><a xlink:href="../../dc/d22/namespacegenfit.html#ac3030446efb56b3ea060ba26f28b6fd6" target="_top" xlink:title="genfit::RaveToGFVertices">
<polygon fill="none" stroke="#000000" points="797,-1299.5 797,-1319.5 939,-1319.5 939,-1299.5 797,-1299.5"/>
<text text-anchor="middle" x="868" y="-1306.5" font-family="FreeSans" font-size="10.00" fill="#000000">genfit::RaveToGFVertices</text>
</a>
</g>
</g>
<!-- Node7&#45;&gt;Node9 -->
<g id="edge8" class="edge">
<title>Node7&#45;&gt;Node9</title>
<path fill="none" stroke="#191970" d="M734.2946,-1285.1331C756.9217,-1289.2568 781.2511,-1293.6906 802.8722,-1297.6309"/>
<polygon fill="#191970" stroke="#191970" points="802.4578,-1301.113 812.9234,-1299.4627 803.7129,-1294.2264 802.4578,-1301.113"/>
</g>
<!-- Node11 -->
<g id="node11" class="node">
<title>Node11</title>
<g id="a_node11"><a xlink:href="../../dc/d22/namespacegenfit.html#a020e8ea2c49e8e9610cb3b2ded0fdb98" target="_top" xlink:title="genfit::GFTracksToTracks">
<polygon fill="none" stroke="#ff0000" points="798,-1260.5 798,-1280.5 938,-1280.5 938,-1260.5 798,-1260.5"/>
<text text-anchor="middle" x="868" y="-1267.5" font-family="FreeSans" font-size="10.00" fill="#000000">genfit::GFTracksToTracks</text>
</a>
</g>
</g>
<!-- Node7&#45;&gt;Node11 -->
<g id="edge10" class="edge">
<title>Node7&#45;&gt;Node11</title>
<path fill="none" stroke="#191970" d="M734.2946,-1270.5C751.7436,-1270.5 770.2049,-1270.5 787.6559,-1270.5"/>
<polygon fill="#191970" stroke="#191970" points="787.7988,-1274.0001 797.7988,-1270.5 787.7987,-1267.0001 787.7988,-1274.0001"/>
</g>
<!-- Node12 -->
<g id="node12" class="node">
<title>Node12</title>
<g id="a_node12"><a xlink:href="../../d8/db3/classgenfit_1_1Exception.html#a5cb44accc5d69d5742ed883a2d4ff88a" target="_top" xlink:title="Standard error message handling for exceptions. use like &quot;std::cerr &lt;&lt; e.what();&quot;.">
<polygon fill="none" stroke="#000000" points="801,-1031.5 801,-1051.5 935,-1051.5 935,-1031.5 801,-1031.5"/>
<text text-anchor="middle" x="868" y="-1038.5" font-family="FreeSans" font-size="10.00" fill="#000000">genfit::Exception::what</text>
</a>
</g>
</g>
<!-- Node7&#45;&gt;Node12 -->
<g id="edge11" class="edge">
<title>Node7&#45;&gt;Node12</title>
<path fill="none" stroke="#191970" d="M730.9175,-1254.3124C738.6769,-1250.3963 745.9213,-1245.5347 752,-1239.5 788.8055,-1202.9605 761.8458,-1173.2854 788,-1128.5 804.1521,-1100.8418 830.3497,-1074.567 848.3375,-1058.2715"/>
<polygon fill="#191970" stroke="#191970" points="850.7961,-1060.7694 855.9588,-1051.5175 846.1534,-1055.5305 850.7961,-1060.7694"/>
</g>
<!-- Node10 -->
<g id="node10" class="node">
<title>Node10</title>
<g id="a_node10"><a xlink:href="../../dc/d22/namespacegenfit.html#ad195411108a2b13a41caab74ba3e5b8c" target="_top" xlink:title="genfit::RaveToGFVertex">
<polygon fill="none" stroke="#ff0000" points="1005,-1299.5 1005,-1319.5 1139,-1319.5 1139,-1299.5 1005,-1299.5"/>
<text text-anchor="middle" x="1072" y="-1306.5" font-family="FreeSans" font-size="10.00" fill="#000000">genfit::RaveToGFVertex</text>
</a>
</g>
</g>
<!-- Node9&#45;&gt;Node10 -->
<g id="edge9" class="edge">
<title>Node9&#45;&gt;Node10</title>
<path fill="none" stroke="#191970" d="M939.0629,-1309.5C957.109,-1309.5 976.582,-1309.5 994.9118,-1309.5"/>
<polygon fill="#191970" stroke="#191970" points="994.9611,-1313.0001 1004.9611,-1309.5 994.961,-1306.0001 994.9611,-1313.0001"/>
</g>
<!-- Node15 -->
<g id="node15" class="node">
<title>Node15</title>
<g id="a_node15"><a xlink:href="../../d6/d17/classSVReco.html#af99925be18cc9afbb2b9936df3a925db" target="_top" xlink:title="Uses the tracking clusters exclusively to make a GFTrack.">
<polygon fill="none" stroke="#000000" points="363.5,-613.5 363.5,-633.5 510.5,-633.5 510.5,-613.5 363.5,-613.5"/>
<text text-anchor="middle" x="437" y="-620.5" font-family="FreeSans" font-size="10.00" fill="#000000">SVReco::MakeGenFitTrack</text>
</a>
</g>
</g>
<!-- Node14&#45;&gt;Node15 -->
<g id="edge14" class="edge">
<title>Node14&#45;&gt;Node15</title>
<path fill="none" stroke="#191970" d="M258.5479,-738.482C292.3187,-716.7225 372.5748,-665.0111 412.9412,-639.0018"/>
<polygon fill="#191970" stroke="#191970" points="414.8676,-641.9242 421.3781,-633.5657 411.0762,-636.0399 414.8676,-641.9242"/>
</g>
<!-- Node15&#45;&gt;Node5 -->
<g id="edge56" class="edge">
<title>Node15&#45;&gt;Node5</title>
<path fill="none" stroke="#191970" d="M438.948,-633.9477C452.7432,-707.7125 535.724,-1147.702 556,-1167.5 565.9781,-1177.2428 579.3661,-1182.738 593.0345,-1185.6932"/>
<polygon fill="#191970" stroke="#191970" points="592.5409,-1189.1598 602.992,-1187.4206 593.7375,-1182.2628 592.5409,-1189.1598"/>
</g>
<!-- Node15&#45;&gt;Node6 -->
<g id="edge54" class="edge">
<title>Node15&#45;&gt;Node6</title>
<path fill="none" stroke="#191970" d="M437.6117,-633.5881C440.77,-675.8138 459.0953,-839.372 556,-908.5 591.0121,-933.4762 702.2355,-935.1943 781.8992,-932.8784"/>
<polygon fill="#191970" stroke="#191970" points="782.0549,-936.3753 791.9391,-932.5606 781.8334,-929.3788 782.0549,-936.3753"/>
</g>
<!-- Node16 -->
<g id="node16" class="node">
<title>Node16</title>
<g id="a_node16"><a xlink:href="../../d2/db8/classSvtxTrack.html#af2317becf2120fcad5cefaa61a01407e" target="_top" xlink:title="SvtxTrack::get_x">
<polygon fill="none" stroke="#000000" points="604.5,-711.5 604.5,-731.5 703.5,-731.5 703.5,-711.5 604.5,-711.5"/>
<text text-anchor="middle" x="654" y="-718.5" font-family="FreeSans" font-size="10.00" fill="#000000">SvtxTrack::get_x</text>
</a>
</g>
</g>
<!-- Node15&#45;&gt;Node16 -->
<g id="edge15" class="edge">
<title>Node15&#45;&gt;Node16</title>
<path fill="none" stroke="#191970" d="M448.9663,-633.6102C469.4795,-650.3958 513.2889,-683.9054 556,-701.5 568.0906,-706.4807 581.548,-710.2617 594.5219,-713.1179"/>
<polygon fill="#191970" stroke="#191970" points="593.819,-716.5465 604.3182,-715.1264 595.2249,-709.6892 593.819,-716.5465"/>
</g>
<!-- Node17 -->
<g id="node17" class="node">
<title>Node17</title>
<g id="a_node17"><a xlink:href="../../d2/db8/classSvtxTrack.html#ac4bf3bd4ecaeff1ca06c48942a8b9236" target="_top" xlink:title="SvtxTrack::get_y">
<polygon fill="none" stroke="#000000" points="604.5,-672.5 604.5,-692.5 703.5,-692.5 703.5,-672.5 604.5,-672.5"/>
<text text-anchor="middle" x="654" y="-679.5" font-family="FreeSans" font-size="10.00" fill="#000000">SvtxTrack::get_y</text>
</a>
</g>
</g>
<!-- Node15&#45;&gt;Node17 -->
<g id="edge16" class="edge">
<title>Node15&#45;&gt;Node17</title>
<path fill="none" stroke="#191970" d="M464.6199,-633.5572C488.5664,-642.0339 524.2662,-654.0918 556,-662.5 568.3176,-665.7637 581.626,-668.7996 594.3452,-671.4703"/>
<polygon fill="#191970" stroke="#191970" points="593.8897,-674.9497 604.3891,-673.5312 595.2967,-668.0925 593.8897,-674.9497"/>
</g>
<!-- Node18 -->
<g id="node18" class="node">
<title>Node18</title>
<g id="a_node18"><a xlink:href="../../d2/db8/classSvtxTrack.html#aaaa435dd9d41dbe836f0608712ca12db" target="_top" xlink:title="SvtxTrack::get_z">
<polygon fill="none" stroke="#000000" points="605,-633.5 605,-653.5 703,-653.5 703,-633.5 605,-633.5"/>
<text text-anchor="middle" x="654" y="-640.5" font-family="FreeSans" font-size="10.00" fill="#000000">SvtxTrack::get_z</text>
</a>
</g>
</g>
<!-- Node15&#45;&gt;Node18 -->
<g id="edge17" class="edge">
<title>Node15&#45;&gt;Node18</title>
<path fill="none" stroke="#191970" d="M510.7691,-630.299C538.212,-632.8283 568.9686,-635.663 594.9255,-638.0553"/>
<polygon fill="#191970" stroke="#191970" points="594.7106,-641.5503 604.9897,-638.9829 595.3531,-634.5798 594.7106,-641.5503"/>
</g>
<!-- Node19 -->
<g id="node19" class="node">
<title>Node19</title>
<g id="a_node19"><a xlink:href="../../d2/db8/classSvtxTrack.html#a79f3af39b753ecee85dc1d4e3db08cdd" target="_top" xlink:title="SvtxTrack::get_px">
<polygon fill="none" stroke="#000000" points="601,-594.5 601,-614.5 707,-614.5 707,-594.5 601,-594.5"/>
<text text-anchor="middle" x="654" y="-601.5" font-family="FreeSans" font-size="10.00" fill="#000000">SvtxTrack::get_px</text>
</a>
</g>
</g>
<!-- Node15&#45;&gt;Node19 -->
<g id="edge18" class="edge">
<title>Node15&#45;&gt;Node19</title>
<path fill="none" stroke="#191970" d="M510.7691,-617.041C536.7946,-614.7622 565.8006,-612.2225 590.8666,-610.0278"/>
<polygon fill="#191970" stroke="#191970" points="591.3281,-613.5009 600.9847,-609.1419 590.7175,-606.5276 591.3281,-613.5009"/>
</g>
<!-- Node20 -->
<g id="node20" class="node">
<title>Node20</title>
<g id="a_node20"><a xlink:href="../../d2/db8/classSvtxTrack.html#a5a9164fc95756dd9780755a55327fec5" target="_top" xlink:title="SvtxTrack::get_py">
<polygon fill="none" stroke="#000000" points="601,-555.5 601,-575.5 707,-575.5 707,-555.5 601,-555.5"/>
<text text-anchor="middle" x="654" y="-562.5" font-family="FreeSans" font-size="10.00" fill="#000000">SvtxTrack::get_py</text>
</a>
</g>
</g>
<!-- Node15&#45;&gt;Node20 -->
<g id="edge19" class="edge">
<title>Node15&#45;&gt;Node20</title>
<path fill="none" stroke="#191970" d="M464.5993,-613.3641C488.5329,-604.8382 524.2253,-592.7524 556,-584.5 567.1575,-581.6022 579.1329,-578.9276 590.748,-576.5558"/>
<polygon fill="#191970" stroke="#191970" points="591.7069,-579.9338 600.8328,-574.5515 590.3423,-573.0681 591.7069,-579.9338"/>
</g>
<!-- Node21 -->
<g id="node21" class="node">
<title>Node21</title>
<g id="a_node21"><a xlink:href="../../d2/db8/classSvtxTrack.html#a826b1ab6d05d45e5148c4645befe4def" target="_top" xlink:title="SvtxTrack::get_pz">
<polygon fill="none" stroke="#000000" points="601.5,-516.5 601.5,-536.5 706.5,-536.5 706.5,-516.5 601.5,-516.5"/>
<text text-anchor="middle" x="654" y="-523.5" font-family="FreeSans" font-size="10.00" fill="#000000">SvtxTrack::get_pz</text>
</a>
</g>
</g>
<!-- Node15&#45;&gt;Node21 -->
<g id="edge20" class="edge">
<title>Node15&#45;&gt;Node21</title>
<path fill="none" stroke="#191970" d="M448.9476,-613.344C469.4332,-596.4911 513.203,-562.8848 556,-545.5 567.1016,-540.9904 579.355,-537.5307 591.3282,-534.8829"/>
<polygon fill="#191970" stroke="#191970" points="592.1933,-538.2785 601.2885,-532.8444 590.7897,-531.4206 592.1933,-538.2785"/>
</g>
<!-- Node22 -->
<g id="node22" class="node">
<title>Node22</title>
<g id="a_node22"><a xlink:href="../../d2/db8/classSvtxTrack.html#a8cc6a505cb329bcc0d3203877148b39f" target="_top" xlink:title="SvtxTrack::get_error">
<polygon fill="none" stroke="#000000" points="595,-477.5 595,-497.5 713,-497.5 713,-477.5 595,-477.5"/>
<text text-anchor="middle" x="654" y="-484.5" font-family="FreeSans" font-size="10.00" fill="#000000">SvtxTrack::get_error</text>
</a>
</g>
</g>
<!-- Node15&#45;&gt;Node22 -->
<g id="edge21" class="edge">
<title>Node15&#45;&gt;Node22</title>
<path fill="none" stroke="#191970" d="M443.9812,-613.373C460.4937,-590.2755 504.4593,-533.6092 556,-506.5 564.9154,-501.8107 574.8345,-498.2713 584.8417,-495.6014"/>
<polygon fill="#191970" stroke="#191970" points="585.9319,-498.9395 594.8445,-493.211 584.3049,-492.1312 585.9319,-498.9395"/>
</g>
<!-- Node23 -->
<g id="node23" class="node">
<title>Node23</title>
<g id="a_node23"><a xlink:href="../../d2/db8/classSvtxTrack.html#a6d8dace95bd6d93aa08d66c5e2c3ad85" target="_top" xlink:title="SvtxTrack::begin_cluster_keys">
<polygon fill="none" stroke="#000000" points="570,-438.5 570,-458.5 738,-458.5 738,-438.5 570,-438.5"/>
<text text-anchor="middle" x="654" y="-445.5" font-family="FreeSans" font-size="10.00" fill="#000000">SvtxTrack::begin_cluster_keys</text>
</a>
</g>
</g>
<!-- Node15&#45;&gt;Node23 -->
<g id="edge22" class="edge">
<title>Node15&#45;&gt;Node23</title>
<path fill="none" stroke="#191970" d="M441.4432,-613.4515C454.4712,-585.259 495.5051,-505.0341 556,-467.5 558.9614,-465.6626 562.0622,-463.9966 565.2624,-462.4865"/>
<polygon fill="#191970" stroke="#191970" points="566.6277,-465.7093 574.5104,-458.6302 563.9336,-459.2485 566.6277,-465.7093"/>
</g>
<!-- Node24 -->
<g id="node24" class="node">
<title>Node24</title>
<g id="a_node24"><a xlink:href="../../d2/db8/classSvtxTrack.html#ac0e8c2214fa9f988c00a561ed22aa085" target="_top" xlink:title="SvtxTrack::end_cluster_keys">
<polygon fill="none" stroke="#000000" points="575,-399.5 575,-419.5 733,-419.5 733,-399.5 575,-399.5"/>
<text text-anchor="middle" x="654" y="-406.5" font-family="FreeSans" font-size="10.00" fill="#000000">SvtxTrack::end_cluster_keys</text>
</a>
</g>
</g>
<!-- Node15&#45;&gt;Node24 -->
<g id="edge23" class="edge">
<title>Node15&#45;&gt;Node24</title>
<path fill="none" stroke="#191970" d="M439.9298,-613.3864C449.9727,-580.6538 486.2977,-476.9249 556,-428.5 558.9355,-426.4606 562.0342,-424.6264 565.2506,-422.9777"/>
<polygon fill="#191970" stroke="#191970" points="566.8864,-426.0804 574.5892,-418.8059 564.0313,-419.6891 566.8864,-426.0804"/>
</g>
<!-- Node25 -->
<g id="node25" class="node">
<title>Node25</title>
<g id="a_node25"><a xlink:href="../../d0/d2c/classTrkrClusterContainer.html#a2b2eea90672ac17f6439c932d2a144ad" target="_top" xlink:title="TrkrClusterContainer\l::findCluster">
<polygon fill="none" stroke="#000000" points="593,-348.5 593,-380.5 715,-380.5 715,-348.5 593,-348.5"/>
<text text-anchor="start" x="601" y="-367.5" font-family="FreeSans" font-size="10.00" fill="#000000">TrkrClusterContainer</text>
<text text-anchor="middle" x="654" y="-355.5" font-family="FreeSans" font-size="10.00" fill="#000000">::findCluster</text>
</a>
</g>
</g>
<!-- Node15&#45;&gt;Node25 -->
<g id="edge24" class="edge">
<title>Node15&#45;&gt;Node25</title>
<path fill="none" stroke="#191970" d="M439.014,-613.4179C446.8249,-577.0429 478.6128,-451.4496 556,-389.5 563.9162,-383.163 573.2479,-378.4128 582.9537,-374.8561"/>
<polygon fill="#191970" stroke="#191970" points="584.3119,-378.0952 592.7456,-371.6825 582.1536,-371.4362 584.3119,-378.0952"/>
</g>
<!-- Node26 -->
<g id="node26" class="node">
<title>Node26</title>
<g id="a_node26"><a xlink:href="../../d6/dfa/classTrkrCluster.html#a081b3050a772ea32f6bf3b09d0407e4f" target="_top" xlink:title="TrkrCluster::getPosition">
<polygon fill="none" stroke="#000000" points="587,-309.5 587,-329.5 721,-329.5 721,-309.5 587,-309.5"/>
<text text-anchor="middle" x="654" y="-316.5" font-family="FreeSans" font-size="10.00" fill="#000000">TrkrCluster::getPosition</text>
</a>
</g>
</g>
<!-- Node15&#45;&gt;Node26 -->
<g id="edge25" class="edge">
<title>Node15&#45;&gt;Node26</title>
<path fill="none" stroke="#191970" d="M437.8833,-613.4527C442.0901,-572.0722 463.9034,-413.4912 556,-338.5 562.3058,-333.3654 569.5923,-329.4747 577.2882,-326.5444"/>
<polygon fill="#191970" stroke="#191970" points="578.4193,-329.8571 586.8402,-323.4275 576.2477,-323.2024 578.4193,-329.8571"/>
</g>
<!-- Node27 -->
<g id="node27" class="node">
<title>Node27</title>
<g id="a_node27"><a xlink:href="../../d6/d3f/namespaceTrkrDefs.html#a542bf66cb1037404f08212eeefdfde70" target="_top" xlink:title="Get the tracker ID from either key type.">
<polygon fill="none" stroke="#000000" points="599,-270.5 599,-290.5 709,-290.5 709,-270.5 599,-270.5"/>
<text text-anchor="middle" x="654" y="-277.5" font-family="FreeSans" font-size="10.00" fill="#000000">TrkrDefs::getTrkrId</text>
</a>
</g>
</g>
<!-- Node15&#45;&gt;Node27 -->
<g id="edge26" class="edge">
<title>Node15&#45;&gt;Node27</title>
<path fill="none" stroke="#191970" d="M437.3355,-613.3573C439.4012,-568.4972 454.0107,-386.307 556,-299.5 565.2795,-291.6019 576.8545,-286.609 588.7639,-283.5213"/>
<polygon fill="#191970" stroke="#191970" points="589.7674,-286.8854 598.8035,-281.3538 588.2901,-280.043 589.7674,-286.8854"/>
</g>
<!-- Node28 -->
<g id="node28" class="node">
<title>Node28</title>
<g id="a_node28"><a xlink:href="../../d6/d3f/namespaceTrkrDefs.html#ad4a7fd368bbf1d5d97ff4fd3e81a6100" target="_top" xlink:title="Get the layer number from either key type.">
<polygon fill="none" stroke="#000000" points="598.5,-231.5 598.5,-251.5 709.5,-251.5 709.5,-231.5 598.5,-231.5"/>
<text text-anchor="middle" x="654" y="-238.5" font-family="FreeSans" font-size="10.00" fill="#000000">TrkrDefs::getLayer</text>
</a>
</g>
</g>
<!-- Node15&#45;&gt;Node28 -->
<g id="edge27" class="edge">
<title>Node15&#45;&gt;Node28</title>
<path fill="none" stroke="#191970" d="M438.9243,-613.2171C449.2039,-559.3759 499.2969,-310.5098 556,-260.5 565.0883,-252.4845 576.5229,-247.4302 588.3441,-244.3174"/>
<polygon fill="#191970" stroke="#191970" points="589.2996,-247.6913 598.3218,-242.1369 587.8051,-240.8527 589.2996,-247.6913"/>
</g>
<!-- Node29 -->
<g id="node29" class="node">
<title>Node29</title>
<g id="a_node29"><a xlink:href="../../d8/df1/namespaceMvtxDefs.html#a0d6fee920baed2f17bed6f7990bb88c3" target="_top" xlink:title="Get the stave id from hitsetkey.">
<polygon fill="none" stroke="#000000" points="592,-192.5 592,-212.5 716,-212.5 716,-192.5 592,-192.5"/>
<text text-anchor="middle" x="654" y="-199.5" font-family="FreeSans" font-size="10.00" fill="#000000">MvtxDefs::getStaveId</text>
</a>
</g>
</g>
<!-- Node15&#45;&gt;Node29 -->
<g id="edge28" class="edge">
<title>Node15&#45;&gt;Node29</title>
<path fill="none" stroke="#191970" d="M438.5737,-613.2739C447.5603,-556.2053 494.1675,-277.6474 556,-221.5 563.4095,-214.7718 572.4632,-210.1122 582.0421,-206.9304"/>
<polygon fill="#191970" stroke="#191970" points="583.0639,-210.2791 591.7547,-204.2194 581.1819,-203.5368 583.0639,-210.2791"/>
</g>
<!-- Node30 -->
<g id="node30" class="node">
<title>Node30</title>
<g id="a_node30"><a xlink:href="../../d8/df1/namespaceMvtxDefs.html#abfd7b6c5fe579370c360924854579283" target="_top" xlink:title="Get the chip id from hitsetkey.">
<polygon fill="none" stroke="#000000" points="595,-153.5 595,-173.5 713,-173.5 713,-153.5 595,-153.5"/>
<text text-anchor="middle" x="654" y="-160.5" font-family="FreeSans" font-size="10.00" fill="#000000">MvtxDefs::getChipId</text>
</a>
</g>
</g>
<!-- Node15&#45;&gt;Node30 -->
<g id="edge29" class="edge">
<title>Node15&#45;&gt;Node30</title>
<path fill="none" stroke="#191970" d="M438.2645,-613.4893C446.0103,-553.7586 488.9432,-244.8906 556,-182.5 564.1115,-174.9529 574.2833,-169.9904 584.9804,-166.7921"/>
<polygon fill="#191970" stroke="#191970" points="586.046,-170.1339 594.908,-164.3274 584.3593,-163.3401 586.046,-170.1339"/>
</g>
<!-- Node31 -->
<g id="node31" class="node">
<title>Node31</title>
<g id="a_node31"><a xlink:href="../../d4/de7/classPHG4CylinderGeomContainer.html#a08321019aaff5f57cd416b64d0f536bf" target="_top" xlink:title="PHG4CylinderGeomContainer\l::GetLayerGeom">
<polygon fill="none" stroke="#000000" points="571,-102.5 571,-134.5 737,-134.5 737,-102.5 571,-102.5"/>
<text text-anchor="start" x="579" y="-121.5" font-family="FreeSans" font-size="10.00" fill="#000000">PHG4CylinderGeomContainer</text>
<text text-anchor="middle" x="654" y="-109.5" font-family="FreeSans" font-size="10.00" fill="#000000">::GetLayerGeom</text>
</a>
</g>
</g>
<!-- Node15&#45;&gt;Node31 -->
<g id="edge30" class="edge">
<title>Node15&#45;&gt;Node31</title>
<path fill="none" stroke="#191970" d="M438.091,-613.4979C445.107,-550.9676 485.8154,-214.1605 556,-143.5 557.8948,-141.5924 559.9135,-139.8236 562.0345,-138.1837"/>
<polygon fill="#191970" stroke="#191970" points="564.2606,-140.9081 570.6774,-132.4774 560.4037,-135.0664 564.2606,-140.9081"/>
</g>
<!-- Node32 -->
<g id="node32" class="node">
<title>Node32</title>
<g id="a_node32"><a xlink:href="../../df/d9b/classCylinderGeom__Mvtx.html#ac3180ef9061113ec41e851ff5f97f3f1" target="_top" xlink:title="CylinderGeom_Mvtx::\lfind_sensor_center">
<polygon fill="none" stroke="#000000" points="592,-51.5 592,-83.5 716,-83.5 716,-51.5 592,-51.5"/>
<text text-anchor="start" x="600" y="-70.5" font-family="FreeSans" font-size="10.00" fill="#000000">CylinderGeom_Mvtx::</text>
<text text-anchor="middle" x="654" y="-58.5" font-family="FreeSans" font-size="10.00" fill="#000000">find_sensor_center</text>
</a>
</g>
</g>
<!-- Node15&#45;&gt;Node32 -->
<g id="edge31" class="edge">
<title>Node15&#45;&gt;Node32</title>
<path fill="none" stroke="#191970" d="M437.8523,-613.3237C443.6444,-546.5599 479.3231,-171.458 556,-92.5 563.277,-85.0065 572.4638,-79.6457 582.28,-75.831"/>
<polygon fill="#191970" stroke="#191970" points="583.4717,-79.123 591.8424,-72.6282 581.2485,-72.4854 583.4717,-79.123"/>
</g>
<!-- Node34 -->
<g id="node34" class="node">
<title>Node34</title>
<g id="a_node34"><a xlink:href="../../df/d9b/classCylinderGeom__Mvtx.html#aa1c7c0b68aa74bd674206214ffabfe6d" target="_top" xlink:title="CylinderGeom_Mvtx::\lget_stave_phi_tilt">
<polygon fill="none" stroke="#000000" points="592,-.5 592,-32.5 716,-32.5 716,-.5 592,-.5"/>
<text text-anchor="start" x="600" y="-19.5" font-family="FreeSans" font-size="10.00" fill="#000000">CylinderGeom_Mvtx::</text>
<text text-anchor="middle" x="654" y="-7.5" font-family="FreeSans" font-size="10.00" fill="#000000">get_stave_phi_tilt</text>
</a>
</g>
</g>
<!-- Node15&#45;&gt;Node34 -->
<g id="edge33" class="edge">
<title>Node15&#45;&gt;Node34</title>
<path fill="none" stroke="#191970" d="M437.6411,-613.2794C442.2662,-542.7801 472.7532,-128.8494 556,-41.5 563.2522,-33.8904 572.472,-28.4727 582.3424,-24.6378"/>
<polygon fill="#191970" stroke="#191970" points="583.5852,-27.9129 591.9622,-21.4262 581.3685,-21.2731 583.5852,-27.9129"/>
</g>
<!-- Node35 -->
<g id="node35" class="node">
<title>Node35</title>
<g id="a_node35"><a xlink:href="../../d9/dcb/classCylinderGeomIntt.html#ab38e7cede1a91d97d6d5bb175791f965" target="_top" xlink:title="CylinderGeomIntt::find\l_segment_center">
<polygon fill="none" stroke="#000000" points="588.5,-1086.5 588.5,-1118.5 719.5,-1118.5 719.5,-1086.5 588.5,-1086.5"/>
<text text-anchor="start" x="596.5" y="-1105.5" font-family="FreeSans" font-size="10.00" fill="#000000">CylinderGeomIntt::find</text>
<text text-anchor="middle" x="654" y="-1093.5" font-family="FreeSans" font-size="10.00" fill="#000000">_segment_center</text>
</a>
</g>
</g>
<!-- Node15&#45;&gt;Node35 -->
<g id="edge34" class="edge">
<title>Node15&#45;&gt;Node35</title>
<path fill="none" stroke="#191970" d="M438.2853,-633.7143C446.1525,-694.6699 489.6712,-1010.009 556,-1076.5 562.4819,-1082.9978 570.3888,-1087.9273 578.8713,-1091.6577"/>
<polygon fill="#191970" stroke="#191970" points="577.671,-1094.9459 588.2614,-1095.2526 580.1738,-1088.4086 577.671,-1094.9459"/>
</g>
<!-- Node36 -->
<g id="node36" class="node">
<title>Node36</title>
<g id="a_node36"><a xlink:href="../../d6/d9e/namespaceInttDefs.html#aeb0f2c2a834c11791925bdffc211526d" target="_top" xlink:title="Get the ladder id from hitsetkey.">
<polygon fill="none" stroke="#000000" points="589,-1047.5 589,-1067.5 719,-1067.5 719,-1047.5 589,-1047.5"/>
<text text-anchor="middle" x="654" y="-1054.5" font-family="FreeSans" font-size="10.00" fill="#000000">InttDefs::getLadderZId</text>
</a>
</g>
</g>
<!-- Node15&#45;&gt;Node36 -->
<g id="edge35" class="edge">
<title>Node15&#45;&gt;Node36</title>
<path fill="none" stroke="#191970" d="M438.4788,-633.6372C447.116,-691.4654 492.8449,-979.1222 556,-1037.5 562.6243,-1043.6232 570.5956,-1048.0848 579.0945,-1051.3071"/>
<polygon fill="#191970" stroke="#191970" points="578.2795,-1054.7212 588.8706,-1054.4411 580.4164,-1048.0554 578.2795,-1054.7212"/>
</g>
<!-- Node37 -->
<g id="node37" class="node">
<title>Node37</title>
<g id="a_node37"><a xlink:href="../../d6/d9e/namespaceInttDefs.html#a28461d6132ff9373b4529e5c0d20c962" target="_top" xlink:title="Get the sensor id from hitsetkey.">
<polygon fill="none" stroke="#000000" points="584.5,-1008.5 584.5,-1028.5 723.5,-1028.5 723.5,-1008.5 584.5,-1008.5"/>
<text text-anchor="middle" x="654" y="-1015.5" font-family="FreeSans" font-size="10.00" fill="#000000">InttDefs::getLadderPhiId</text>
</a>
</g>
</g>
<!-- Node15&#45;&gt;Node37 -->
<g id="edge36" class="edge">
<title>Node15&#45;&gt;Node37</title>
<path fill="none" stroke="#191970" d="M438.8158,-633.7458C448.7269,-688.5284 497.9748,-946.3193 556,-998.5 561.5036,-1003.4492 567.8913,-1007.3048 574.7162,-1010.2937"/>
<polygon fill="#191970" stroke="#191970" points="573.6593,-1013.6351 584.2519,-1013.8536 576.1076,-1007.0771 573.6593,-1013.6351"/>
</g>
<!-- Node38 -->
<g id="node38" class="node">
<title>Node38</title>
<g id="a_node38"><a xlink:href="../../d9/dcb/classCylinderGeomIntt.html#a191bf1e8abfe131f80eb7da8b1639c8b" target="_top" xlink:title="CylinderGeomIntt::get\l_strip_phi_tilt">
<polygon fill="none" stroke="#000000" points="589.5,-957.5 589.5,-989.5 718.5,-989.5 718.5,-957.5 589.5,-957.5"/>
<text text-anchor="start" x="597.5" y="-976.5" font-family="FreeSans" font-size="10.00" fill="#000000">CylinderGeomIntt::get</text>
<text text-anchor="middle" x="654" y="-964.5" font-family="FreeSans" font-size="10.00" fill="#000000">_strip_phi_tilt</text>
</a>
</g>
</g>
<!-- Node15&#45;&gt;Node38 -->
<g id="edge37" class="edge">
<title>Node15&#45;&gt;Node38</title>
<path fill="none" stroke="#191970" d="M437.6597,-633.5085C441.0711,-677.028 460.4607,-851.6844 556,-942.5 562.9115,-949.0698 571.2078,-954.2476 580.0094,-958.3283"/>
<polygon fill="#191970" stroke="#191970" points="578.75,-961.595 589.3278,-962.1959 581.4335,-955.1298 578.75,-961.595"/>
</g>
<!-- Node39 -->
<g id="node39" class="node">
<title>Node39</title>
<g id="a_node39"><a xlink:href="../../d6/dfa/classTrkrCluster.html#a43356b61478edcfaba377cdcd6c658eb" target="_top" xlink:title="TrkrCluster::getPhiError">
<polygon fill="none" stroke="#000000" points="586.5,-879.5 586.5,-899.5 721.5,-899.5 721.5,-879.5 586.5,-879.5"/>
<text text-anchor="middle" x="654" y="-886.5" font-family="FreeSans" font-size="10.00" fill="#000000">TrkrCluster::getPhiError</text>
</a>
</g>
</g>
<!-- Node15&#45;&gt;Node39 -->
<g id="edge38" class="edge">
<title>Node15&#45;&gt;Node39</title>
<path fill="none" stroke="#191970" d="M438.6438,-633.6938C445.3323,-671.6527 474.1568,-805.8789 556,-869.5 562.2175,-874.3332 569.3077,-878.0816 576.7663,-880.978"/>
<polygon fill="#191970" stroke="#191970" points="575.7788,-884.3384 586.3728,-884.2084 578.01,-877.7035 575.7788,-884.3384"/>
</g>
<!-- Node40 -->
<g id="node40" class="node">
<title>Node40</title>
<g id="a_node40"><a xlink:href="../../d6/dfa/classTrkrCluster.html#a73c9bdc559b2906e6cfc942d1bf355ed" target="_top" xlink:title="TrkrCluster::getZError">
<polygon fill="none" stroke="#000000" points="590.5,-840.5 590.5,-860.5 717.5,-860.5 717.5,-840.5 590.5,-840.5"/>
<text text-anchor="middle" x="654" y="-847.5" font-family="FreeSans" font-size="10.00" fill="#000000">TrkrCluster::getZError</text>
</a>
</g>
</g>
<!-- Node15&#45;&gt;Node40 -->
<g id="edge39" class="edge">
<title>Node15&#45;&gt;Node40</title>
<path fill="none" stroke="#191970" d="M439.6185,-633.7143C448.9171,-667.7879 483.7339,-778.3408 556,-830.5 563.3932,-835.8361 571.8764,-839.8247 580.6914,-842.794"/>
<polygon fill="#191970" stroke="#191970" points="579.7699,-846.1711 590.351,-845.6315 581.7428,-839.4549 579.7699,-846.1711"/>
</g>
<!-- Node41 -->
<g id="node41" class="node">
<title>Node41</title>
<g id="a_node41"><a xlink:href="../../d7/dd5/classPHGenFit_1_1Track.html#a3c6639bba6584ef0fd2581150947b85f" target="_top" xlink:title="PHGenFit::Track::addMeasurements">
<polygon fill="none" stroke="#000000" points="556,-1137.5 556,-1157.5 752,-1157.5 752,-1137.5 556,-1137.5"/>
<text text-anchor="middle" x="654" y="-1144.5" font-family="FreeSans" font-size="10.00" fill="#000000">PHGenFit::Track::addMeasurements</text>
</a>
</g>
</g>
<!-- Node15&#45;&gt;Node41 -->
<g id="edge40" class="edge">
<title>Node15&#45;&gt;Node41</title>
<path fill="none" stroke="#191970" d="M438.7175,-633.673C450.3339,-701.9646 518.0848,-1092.0689 556,-1128.5 557.1325,-1129.5882 558.3077,-1130.6231 559.521,-1131.6073"/>
<polygon fill="#191970" stroke="#191970" points="557.7973,-1134.6675 568.0364,-1137.3901 561.73,-1128.8766 557.7973,-1134.6675"/>
</g>
<!-- Node43 -->
<g id="node43" class="node">
<title>Node43</title>
<g id="a_node43"><a xlink:href="../../d1/d35/classPHGenFit_1_1Fitter.html#a0ae094389cc773308a3cf9ca98d60bdb" target="_top" xlink:title="PHGenFit::Fitter::process\lTrack">
<polygon fill="none" stroke="#000000" points="584,-750.5 584,-782.5 724,-782.5 724,-750.5 584,-750.5"/>
<text text-anchor="start" x="592" y="-769.5" font-family="FreeSans" font-size="10.00" fill="#000000">PHGenFit::Fitter::process</text>
<text text-anchor="middle" x="654" y="-757.5" font-family="FreeSans" font-size="10.00" fill="#000000">Track</text>
</a>
</g>
</g>
<!-- Node15&#45;&gt;Node43 -->
<g id="edge42" class="edge">
<title>Node15&#45;&gt;Node43</title>
<path fill="none" stroke="#191970" d="M444.3652,-633.7268C461.3444,-656.5336 505.6599,-711.8022 556,-740.5 561.805,-743.8093 568.0433,-746.7089 574.4588,-749.2475"/>
<polygon fill="#191970" stroke="#191970" points="573.3611,-752.5727 583.955,-752.7142 575.7616,-745.9971 573.3611,-752.5727"/>
</g>
<!-- Node50 -->
<g id="node50" class="node">
<title>Node50</title>
<g id="a_node50"><a xlink:href="../../d6/d8a/classgenfit_1_1Track.html#aa7c2b4ec6f779325c87f4ffe8d5e52a0" target="_top" xlink:title="Set the MCT track id, for MC simulations.">
<polygon fill="none" stroke="#000000" points="579,-801.5 579,-821.5 729,-821.5 729,-801.5 579,-801.5"/>
<text text-anchor="middle" x="654" y="-808.5" font-family="FreeSans" font-size="10.00" fill="#000000">genfit::Track::setMcTrackId</text>
</a>
</g>
</g>
<!-- Node15&#45;&gt;Node50 -->
<g id="edge55" class="edge">
<title>Node15&#45;&gt;Node50</title>
<path fill="none" stroke="#191970" d="M441.0561,-633.8519C453.3295,-663.7153 493.13,-750.4973 556,-791.5 560.1452,-794.2035 564.5821,-796.5528 569.1943,-798.5935"/>
<polygon fill="#191970" stroke="#191970" points="568.2821,-801.9943 578.8705,-802.3631 570.8232,-795.4718 568.2821,-801.9943"/>
</g>
<!-- Node33 -->
<g id="node33" class="node">
<title>Node33</title>
<g id="a_node33"><a xlink:href="../../df/d9b/classCylinderGeom__Mvtx.html#aede358e384b225e6555bed9292f0310c" target="_top" xlink:title="CylinderGeom_Mvtx::\lget_world_from_local\l_coords">
<polygon fill="none" stroke="#ff0000" points="806,-45.5 806,-89.5 930,-89.5 930,-45.5 806,-45.5"/>
<text text-anchor="start" x="814" y="-76.5" font-family="FreeSans" font-size="10.00" fill="#000000">CylinderGeom_Mvtx::</text>
<text text-anchor="start" x="814" y="-64.5" font-family="FreeSans" font-size="10.00" fill="#000000">get_world_from_local</text>
<text text-anchor="middle" x="868" y="-52.5" font-family="FreeSans" font-size="10.00" fill="#000000">_coords</text>
</a>
</g>
</g>
<!-- Node32&#45;&gt;Node33 -->
<g id="edge32" class="edge">
<title>Node32&#45;&gt;Node33</title>
<path fill="none" stroke="#191970" d="M716.1851,-67.5C741.0245,-67.5 769.7967,-67.5 795.5705,-67.5"/>
<polygon fill="#191970" stroke="#191970" points="795.6598,-71.0001 805.6598,-67.5 795.6597,-64.0001 795.6598,-71.0001"/>
</g>
<!-- Node42 -->
<g id="node42" class="node">
<title>Node42</title>
<g id="a_node42"><a xlink:href="../../d6/d8a/classgenfit_1_1Track.html#a7e61ada0d84db561ede923db92c4ab01" target="_top" xlink:title="Insert TrackPoint BEFORE TrackPoint with position id, if id &gt;= 0.">
<polygon fill="none" stroke="#ff0000" points="798,-1137.5 798,-1157.5 938,-1157.5 938,-1137.5 798,-1137.5"/>
<text text-anchor="middle" x="868" y="-1144.5" font-family="FreeSans" font-size="10.00" fill="#000000">genfit::Track::insertPoint</text>
</a>
</g>
</g>
<!-- Node41&#45;&gt;Node42 -->
<g id="edge41" class="edge">
<title>Node41&#45;&gt;Node42</title>
<path fill="none" stroke="#191970" d="M752.2314,-1147.5C764.129,-1147.5 776.1722,-1147.5 787.7672,-1147.5"/>
<polygon fill="#191970" stroke="#191970" points="787.8266,-1151.0001 797.8265,-1147.5 787.8265,-1144.0001 787.8266,-1151.0001"/>
</g>
<!-- Node43&#45;&gt;Node6 -->
<g id="edge43" class="edge">
<title>Node43&#45;&gt;Node6</title>
<path fill="none" stroke="#191970" d="M724.1797,-775.3594C734.3759,-779.089 744.0838,-784.285 752,-791.5 787.2211,-823.6012 755.6852,-857.4748 788,-892.5 793.3736,-898.3243 799.8676,-903.2682 806.8046,-907.449"/>
<polygon fill="#191970" stroke="#191970" points="805.3228,-910.6275 815.7774,-912.3454 808.6759,-904.4829 805.3228,-910.6275"/>
</g>
<!-- Node43&#45;&gt;Node12 -->
<g id="edge45" class="edge">
<title>Node43&#45;&gt;Node12</title>
<path fill="none" stroke="#191970" d="M724.4854,-774.3443C734.7676,-778.1865 744.4228,-783.6833 752,-791.5 803.3362,-844.4584 754.0559,-888.0187 788,-953.5 802.7501,-981.9543 829.0258,-1008.2563 847.4269,-1024.5546"/>
<polygon fill="#191970" stroke="#191970" points="845.3998,-1027.4283 855.2576,-1031.3108 849.9725,-1022.1282 845.3998,-1027.4283"/>
</g>
<!-- Node44 -->
<g id="node44" class="node">
<title>Node44</title>
<g id="a_node44"><a xlink:href="../../d6/d8a/classgenfit_1_1Track.html#aee4eab9e952ee6f0e0c1f1d980552759" target="_top" xlink:title="genfit::Track::checkConsistency">
<polygon fill="none" stroke="#ff0000" points="984,-789.5 984,-809.5 1160,-809.5 1160,-789.5 984,-789.5"/>
<text text-anchor="middle" x="1072" y="-796.5" font-family="FreeSans" font-size="10.00" fill="#000000">genfit::Track::checkConsistency</text>
</a>
</g>
</g>
<!-- Node43&#45;&gt;Node44 -->
<g id="edge44" class="edge">
<title>Node43&#45;&gt;Node44</title>
<path fill="none" stroke="#191970" d="M718.6901,-782.5461C729.8238,-785.4381 741.2636,-788.492 752,-791.5 768.1099,-796.0134 771.4533,-800.0284 788,-802.5 858.3309,-813.0053 876.8941,-803.36 948,-802.5 956.3573,-802.3989 965.0307,-802.2595 973.7324,-802.0958"/>
<polygon fill="#191970" stroke="#191970" points="974.0144,-805.591 983.943,-801.8932 973.8755,-798.5923 974.0144,-805.591"/>
</g>
<!-- Node45 -->
<g id="node45" class="node">
<title>Node45</title>
<g id="a_node45"><a xlink:href="../../d0/dba/classgenfit_1_1AbsFitter.html#a03e279c67ca889f5fe6480eb8a1691cf" target="_top" xlink:title="genfit::AbsFitter::\lprocessTrack">
<polygon fill="none" stroke="#ff0000" points="816.5,-761.5 816.5,-793.5 919.5,-793.5 919.5,-761.5 816.5,-761.5"/>
<text text-anchor="start" x="824.5" y="-780.5" font-family="FreeSans" font-size="10.00" fill="#000000">genfit::AbsFitter::</text>
<text text-anchor="middle" x="868" y="-768.5" font-family="FreeSans" font-size="10.00" fill="#000000">processTrack</text>
</a>
</g>
</g>
<!-- Node43&#45;&gt;Node45 -->
<g id="edge46" class="edge">
<title>Node43&#45;&gt;Node45</title>
<path fill="none" stroke="#191970" d="M724.0716,-770.1018C750.6519,-771.4681 780.6975,-773.0125 806.4357,-774.3355"/>
<polygon fill="#191970" stroke="#191970" points="806.273,-777.8316 816.4395,-774.8497 806.6324,-770.8409 806.273,-777.8316"/>
</g>
<!-- Node46 -->
<g id="node46" class="node">
<title>Node46</title>
<g id="a_node46"><a xlink:href="../../d6/d8a/classgenfit_1_1Track.html#a402b35300e81a48c7f0b9eb082b1cf24" target="_top" xlink:title="Get cardinal track representation.">
<polygon fill="none" stroke="#000000" points="990.5,-722.5 990.5,-742.5 1153.5,-742.5 1153.5,-722.5 990.5,-722.5"/>
<text text-anchor="middle" x="1072" y="-729.5" font-family="FreeSans" font-size="10.00" fill="#000000">genfit::Track::getCardinalRep</text>
</a>
</g>
</g>
<!-- Node43&#45;&gt;Node46 -->
<g id="edge49" class="edge">
<title>Node43&#45;&gt;Node46</title>
<path fill="none" stroke="#191970" d="M724.181,-758.0461C744.7299,-755.7328 767.2485,-753.3547 788,-751.5 852.059,-745.7747 924.3878,-740.9599 980.0207,-737.6097"/>
<polygon fill="#191970" stroke="#191970" points="980.435,-741.0913 990.2085,-737.0013 980.0176,-734.1038 980.435,-741.0913"/>
</g>
<!-- Node47 -->
<g id="node47" class="node">
<title>Node47</title>
<g id="a_node47"><a xlink:href="../../d6/d8a/classgenfit_1_1Track.html#ad06e7a012624bdb03960826b5c9fcd93" target="_top" xlink:title="Get FitStatus for a AbsTrackRep. Per default, return FitStatus for cardinalRep.">
<polygon fill="none" stroke="#000000" points="795,-683.5 795,-703.5 941,-703.5 941,-683.5 795,-683.5"/>
<text text-anchor="middle" x="868" y="-690.5" font-family="FreeSans" font-size="10.00" fill="#000000">genfit::Track::getFitStatus</text>
</a>
</g>
</g>
<!-- Node43&#45;&gt;Node47 -->
<g id="edge50" class="edge">
<title>Node43&#45;&gt;Node47</title>
<path fill="none" stroke="#191970" d="M724.1709,-750.5416C733.6718,-747.6142 743.1787,-744.2706 752,-740.5 769.242,-733.13 770.9225,-726.2437 788,-718.5 797.842,-714.0372 808.7063,-710.0597 819.1715,-706.6616"/>
<polygon fill="#191970" stroke="#191970" points="820.5325,-709.9035 829.0365,-703.5842 818.4479,-703.2211 820.5325,-709.9035"/>
</g>
<!-- Node48 -->
<g id="node48" class="node">
<title>Node48</title>
<g id="a_node48"><a xlink:href="../../d0/d8d/classgenfit_1_1FitStatus.html#a56371ce504bee72fcf2f9324ddcb91a8" target="_top" xlink:title="Did the fit converge (in all Points or only partially)?">
<polygon fill="none" stroke="#000000" points="817,-632.5 817,-664.5 919,-664.5 919,-632.5 817,-632.5"/>
<text text-anchor="start" x="825" y="-651.5" font-family="FreeSans" font-size="10.00" fill="#000000">genfit::FitStatus::</text>
<text text-anchor="middle" x="868" y="-639.5" font-family="FreeSans" font-size="10.00" fill="#000000">isFitConverged</text>
</a>
</g>
</g>
<!-- Node43&#45;&gt;Node48 -->
<g id="edge52" class="edge">
<title>Node43&#45;&gt;Node48</title>
<path fill="none" stroke="#191970" d="M724.052,-755.5353C734.0888,-751.8706 743.7812,-746.9919 752,-740.5 778.527,-719.5469 761.9355,-695.0258 788,-673.5 793.708,-668.7859 800.3068,-664.9582 807.2169,-661.8507"/>
<polygon fill="#191970" stroke="#191970" points="808.7823,-664.9947 816.7783,-658.0439 806.1929,-658.4912 808.7823,-664.9947"/>
</g>
<!-- Node49 -->
<g id="node49" class="node">
<title>Node49</title>
<g id="a_node49"><a xlink:href="../../d4/d1a/classgenfit_1_1EventDisplay.html#a273f0f885e02d740befd1d3b18489a16" target="_top" xlink:title="Add new event.">
<polygon fill="none" stroke="#000000" points="808.5,-851.5 808.5,-883.5 927.5,-883.5 927.5,-851.5 808.5,-851.5"/>
<text text-anchor="start" x="816.5" y="-870.5" font-family="FreeSans" font-size="10.00" fill="#000000">genfit::EventDisplay</text>
<text text-anchor="middle" x="868" y="-858.5" font-family="FreeSans" font-size="10.00" fill="#000000">::addEvent</text>
</a>
</g>
</g>
<!-- Node43&#45;&gt;Node49 -->
<g id="edge53" class="edge">
<title>Node43&#45;&gt;Node49</title>
<path fill="none" stroke="#191970" d="M724.086,-778.4112C733.8989,-781.7513 743.5158,-786.027 752,-791.5 773.5228,-805.3841 767.3478,-821.3512 788,-836.5 793.4066,-840.4658 799.3854,-843.9955 805.568,-847.1197"/>
<polygon fill="#191970" stroke="#191970" points="804.1888,-850.3386 814.7292,-851.4106 807.1579,-843.9994 804.1888,-850.3386"/>
</g>
<!-- Node45&#45;&gt;Node44 -->
<g id="edge48" class="edge">
<title>Node45&#45;&gt;Node44</title>
<path fill="none" stroke="#191970" d="M919.7415,-783.08C936.2512,-784.8604 955.1028,-786.8934 973.7848,-788.9082"/>
<polygon fill="#191970" stroke="#191970" points="973.509,-792.3986 983.8266,-789.9911 974.2596,-785.439 973.509,-792.3986"/>
</g>
<!-- Node45&#45;&gt;Node46 -->
<g id="edge47" class="edge">
<title>Node45&#45;&gt;Node46</title>
<path fill="none" stroke="#191970" d="M919.7415,-766.0864C949.3302,-759.5595 986.4413,-751.3732 1016.6172,-744.7168"/>
<polygon fill="#191970" stroke="#191970" points="1017.5527,-748.0947 1026.564,-742.5227 1016.0448,-741.259 1017.5527,-748.0947"/>
</g>
<!-- Node47&#45;&gt;Node46 -->
<g id="edge51" class="edge">
<title>Node47&#45;&gt;Node46</title>
<path fill="none" stroke="#191970" d="M920.5351,-703.5435C947.7807,-708.7522 981.2392,-715.1487 1009.7736,-720.6038"/>
<polygon fill="#191970" stroke="#191970" points="1009.1636,-724.0505 1019.643,-722.4906 1010.4781,-717.175 1009.1636,-724.0505"/>
</g>
</g>
</svg>
