<?xml version="1.0" encoding="UTF-8" standalone="no"?>
<!DOCTYPE svg PUBLIC "-//W3C//DTD SVG 1.1//EN"
 "http://www.w3.org/Graphics/SVG/1.1/DTD/svg11.dtd">
<!-- Generated by graphviz version 2.40.1 (20161225.0304)
 -->
<!-- Title: genfit::AbsMeasurement::Print Pages: 1 -->
<svg width="535pt" height="92pt"
 viewBox="0.00 0.00 535.00 92.00" xmlns="http://www.w3.org/2000/svg" xmlns:xlink="http://www.w3.org/1999/xlink">
<g id="graph0" class="graph" transform="scale(1 1) rotate(0) translate(4 88)">
<title>genfit::AbsMeasurement::Print</title>
<!-- Node1 -->
<g id="node1" class="node">
<title>Node1</title>
<polygon fill="#bfbfbf" stroke="#000000" points="0,-25.5 0,-57.5 141,-57.5 141,-25.5 0,-25.5"/>
<text text-anchor="start" x="8" y="-44.5" font-family="FreeSans" font-size="10.00" fill="#000000">genfit::AbsMeasurement</text>
<text text-anchor="middle" x="70.5" y="-32.5" font-family="FreeSans" font-size="10.00" fill="#000000">::Print</text>
</g>
<!-- Node2 -->
<g id="node2" class="node">
<title>Node2</title>
<g id="a_node2"><a xlink:href="../../de/d25/classPHGenFitTrkFitter.html#ac5276a4b02f10308d87ae16dac18d765" target="_top" xlink:title="PHGenFitTrkFitter::\lReFitTrack">
<polygon fill="none" stroke="#000000" points="201,-51.5 201,-83.5 310,-83.5 310,-51.5 201,-51.5"/>
<text text-anchor="start" x="209" y="-70.5" font-family="FreeSans" font-size="10.00" fill="#000000">PHGenFitTrkFitter::</text>
<text text-anchor="middle" x="255.5" y="-58.5" font-family="FreeSans" font-size="10.00" fill="#000000">ReFitTrack</text>
</a>
</g>
</g>
<!-- Node1&#45;&gt;Node2 -->
<g id="edge1" class="edge">
<title>Node1&#45;&gt;Node2</title>
<path fill="none" stroke="#191970" d="M151.5411,-52.8896C168.2342,-55.2356 185.433,-57.6528 200.9175,-59.8289"/>
<polygon fill="#191970" stroke="#191970" points="151.6223,-49.3666 141.2324,-51.4408 150.648,-56.2985 151.6223,-49.3666"/>
</g>
<!-- Node4 -->
<g id="node4" class="node">
<title>Node4</title>
<g id="a_node4"><a xlink:href="../../df/dd7/classTpcPrototypeGenFitTrkFitter.html#a8322a858cfb89cab60e4a04e7f82745b" target="_top" xlink:title="TpcPrototypeGenFitTrkFitter\l::ReFitTrack">
<polygon fill="none" stroke="#000000" points="177,-.5 177,-32.5 334,-32.5 334,-.5 177,-.5"/>
<text text-anchor="start" x="185" y="-19.5" font-family="FreeSans" font-size="10.00" fill="#000000">TpcPrototypeGenFitTrkFitter</text>
<text text-anchor="middle" x="255.5" y="-7.5" font-family="FreeSans" font-size="10.00" fill="#000000">::ReFitTrack</text>
</a>
</g>
</g>
<!-- Node1&#45;&gt;Node4 -->
<g id="edge3" class="edge">
<title>Node1&#45;&gt;Node4</title>
<path fill="none" stroke="#191970" d="M151.4193,-30.565C159.8394,-29.4271 168.3894,-28.2717 176.7845,-27.1372"/>
<polygon fill="#191970" stroke="#191970" points="150.6736,-27.1338 141.2324,-31.9416 151.6111,-34.0708 150.6736,-27.1338"/>
</g>
<!-- Node3 -->
<g id="node3" class="node">
<title>Node3</title>
<g id="a_node3"><a xlink:href="../../de/d25/classPHGenFitTrkFitter.html#a2e088a68ab24c5b89b902205f877f9d6" target="_top" xlink:title="Process Event, called for each event.">
<polygon fill="none" stroke="#000000" points="394,-51.5 394,-83.5 503,-83.5 503,-51.5 394,-51.5"/>
<text text-anchor="start" x="402" y="-70.5" font-family="FreeSans" font-size="10.00" fill="#000000">PHGenFitTrkFitter::</text>
<text text-anchor="middle" x="448.5" y="-58.5" font-family="FreeSans" font-size="10.00" fill="#000000">process_event</text>
</a>
</g>
</g>
<!-- Node2&#45;&gt;Node3 -->
<g id="edge2" class="edge">
<title>Node2&#45;&gt;Node3</title>
<path fill="none" stroke="#191970" d="M320.0756,-67.5C343.9776,-67.5 370.8245,-67.5 393.7681,-67.5"/>
<polygon fill="#191970" stroke="#191970" points="320.0322,-64.0001 310.0322,-67.5 320.0321,-71.0001 320.0322,-64.0001"/>
</g>
<!-- Node5 -->
<g id="node5" class="node">
<title>Node5</title>
<g id="a_node5"><a xlink:href="../../df/dd7/classTpcPrototypeGenFitTrkFitter.html#a8861dffacdf05e47efc97b65adbafe32" target="_top" xlink:title="Process Event, called for each event.">
<polygon fill="none" stroke="#000000" points="370,-.5 370,-32.5 527,-32.5 527,-.5 370,-.5"/>
<text text-anchor="start" x="378" y="-19.5" font-family="FreeSans" font-size="10.00" fill="#000000">TpcPrototypeGenFitTrkFitter</text>
<text text-anchor="middle" x="448.5" y="-7.5" font-family="FreeSans" font-size="10.00" fill="#000000">::process_event</text>
</a>
</g>
</g>
<!-- Node4&#45;&gt;Node5 -->
<g id="edge4" class="edge">
<title>Node4&#45;&gt;Node5</title>
<path fill="none" stroke="#191970" d="M344.0225,-16.5C352.607,-16.5 361.2762,-16.5 369.7559,-16.5"/>
<polygon fill="#191970" stroke="#191970" points="344.0005,-13.0001 334.0005,-16.5 344.0005,-20.0001 344.0005,-13.0001"/>
</g>
</g>
</svg>
