<?xml version="1.0" encoding="UTF-8" standalone="no"?>
<!DOCTYPE svg PUBLIC "-//W3C//DTD SVG 1.1//EN"
 "http://www.w3.org/Graphics/SVG/1.1/DTD/svg11.dtd">
<!-- Generated by graphviz version 2.40.1 (20161225.0304)
 -->
<!-- Title: genfit::AbsMeasurement::constructMeasurementsOnPlane Pages: 1 -->
<svg width="724pt" height="92pt"
 viewBox="0.00 0.00 724.00 92.00" xmlns="http://www.w3.org/2000/svg" xmlns:xlink="http://www.w3.org/1999/xlink">
<g id="graph0" class="graph" transform="scale(1 1) rotate(0) translate(4 88)">
<title>genfit::AbsMeasurement::constructMeasurementsOnPlane</title>
<!-- Node1 -->
<g id="node1" class="node">
<title>Node1</title>
<polygon fill="#bfbfbf" stroke="#000000" points="0,-25.5 0,-57.5 187,-57.5 187,-25.5 0,-25.5"/>
<text text-anchor="start" x="8" y="-44.5" font-family="FreeSans" font-size="10.00" fill="#000000">genfit::AbsMeasurement</text>
<text text-anchor="middle" x="93.5" y="-32.5" font-family="FreeSans" font-size="10.00" fill="#000000">::constructMeasurementsOnPlane</text>
</g>
<!-- Node2 -->
<g id="node2" class="node">
<title>Node2</title>
<g id="a_node2"><a xlink:href="../../d3/d5c/classgenfit_1_1GblFitterInfo.html#a80fd6a7510eb55797dc0f57a8740b74f" target="_top" xlink:title="SHOULD BE USED ONLY INTERNALY! Update the plane from measurement constructed with state or take plane...">
<polygon fill="none" stroke="#000000" points="223,-25.5 223,-57.5 399,-57.5 399,-25.5 223,-25.5"/>
<text text-anchor="start" x="231" y="-44.5" font-family="FreeSans" font-size="10.00" fill="#000000">genfit::GblFitterInfo</text>
<text text-anchor="middle" x="311" y="-32.5" font-family="FreeSans" font-size="10.00" fill="#000000">::updateMeasurementAndPlane</text>
</a>
</g>
</g>
<!-- Node1&#45;&gt;Node2 -->
<g id="edge1" class="edge">
<title>Node1&#45;&gt;Node2</title>
<path fill="none" stroke="#191970" d="M197.0536,-41.5C205.6442,-41.5 214.2781,-41.5 222.7402,-41.5"/>
<polygon fill="#191970" stroke="#191970" points="197.0019,-38.0001 187.0018,-41.5 197.0018,-45.0001 197.0019,-38.0001"/>
</g>
<!-- Node3 -->
<g id="node3" class="node">
<title>Node3</title>
<g id="a_node3"><a xlink:href="../../d3/d5c/classgenfit_1_1GblFitterInfo.html#ace7d8c155c827ea69739eb6d81fd13be" target="_top" xlink:title="Set the prediction and plane (from measurement if any) You should use the user constructor instead...">
<polygon fill="none" stroke="#000000" points="437.5,-51.5 437.5,-83.5 553.5,-83.5 553.5,-51.5 437.5,-51.5"/>
<text text-anchor="start" x="445.5" y="-70.5" font-family="FreeSans" font-size="10.00" fill="#000000">genfit::GblFitterInfo</text>
<text text-anchor="middle" x="495.5" y="-58.5" font-family="FreeSans" font-size="10.00" fill="#000000">::setReferenceState</text>
</a>
</g>
</g>
<!-- Node2&#45;&gt;Node3 -->
<g id="edge2" class="edge">
<title>Node2&#45;&gt;Node3</title>
<path fill="none" stroke="#191970" d="M409.2329,-55.3431C418.8498,-56.6983 428.3797,-58.0413 437.402,-59.3127"/>
<polygon fill="#191970" stroke="#191970" points="409.5878,-51.8586 399.1972,-53.9289 408.6109,-58.7901 409.5878,-51.8586"/>
</g>
<!-- Node5 -->
<g id="node5" class="node">
<title>Node5</title>
<g id="a_node5"><a xlink:href="../../d3/d5c/classgenfit_1_1GblFitterInfo.html#a6a5ecb1dd2d2c36cec4582037cc226e0" target="_top" xlink:title="Re&#45;extrapolates between prevFitterInfo and this point using forward state to update the Jacobian (if ...">
<polygon fill="none" stroke="#000000" points="435,-.5 435,-32.5 556,-32.5 556,-.5 435,-.5"/>
<text text-anchor="start" x="443" y="-19.5" font-family="FreeSans" font-size="10.00" fill="#000000">genfit::GblFitterInfo</text>
<text text-anchor="middle" x="495.5" y="-7.5" font-family="FreeSans" font-size="10.00" fill="#000000">::recalculateJacobian</text>
</a>
</g>
</g>
<!-- Node2&#45;&gt;Node5 -->
<g id="edge4" class="edge">
<title>Node2&#45;&gt;Node5</title>
<path fill="none" stroke="#191970" d="M409.3631,-28.1717C418.0103,-27 426.5857,-25.838 434.7833,-24.7272"/>
<polygon fill="#191970" stroke="#191970" points="408.6367,-24.738 399.1972,-29.5492 409.5766,-31.6746 408.6367,-24.738"/>
</g>
<!-- Node4 -->
<g id="node4" class="node">
<title>Node4</title>
<g id="a_node4"><a xlink:href="../../d3/d5c/classgenfit_1_1GblFitterInfo.html#ab8cd3c4356cd1aaffdc89906f48a6252" target="_top" xlink:title="Default user constructor.">
<polygon fill="none" stroke="#000000" points="596.5,-51.5 596.5,-83.5 711.5,-83.5 711.5,-51.5 596.5,-51.5"/>
<text text-anchor="start" x="604.5" y="-70.5" font-family="FreeSans" font-size="10.00" fill="#000000">genfit::GblFitterInfo</text>
<text text-anchor="middle" x="654" y="-58.5" font-family="FreeSans" font-size="10.00" fill="#000000">::GblFitterInfo</text>
</a>
</g>
</g>
<!-- Node3&#45;&gt;Node4 -->
<g id="edge3" class="edge">
<title>Node3&#45;&gt;Node4</title>
<path fill="none" stroke="#191970" d="M563.9009,-67.5C574.7409,-67.5 585.857,-67.5 596.4171,-67.5"/>
<polygon fill="#191970" stroke="#191970" points="563.6196,-64.0001 553.6195,-67.5 563.6195,-71.0001 563.6196,-64.0001"/>
</g>
<!-- Node6 -->
<g id="node6" class="node">
<title>Node6</title>
<g id="a_node6"><a xlink:href="../../d1/dc8/classgenfit_1_1GblFitter.html#a4be6bdc46ad9f13aef275aea2b01f438" target="_top" xlink:title="genfit::GblFitter::\lprocessTrackWithRep">
<polygon fill="none" stroke="#000000" points="592,-.5 592,-32.5 716,-32.5 716,-.5 592,-.5"/>
<text text-anchor="start" x="600" y="-19.5" font-family="FreeSans" font-size="10.00" fill="#000000">genfit::GblFitter::</text>
<text text-anchor="middle" x="654" y="-7.5" font-family="FreeSans" font-size="10.00" fill="#000000">processTrackWithRep</text>
</a>
</g>
</g>
<!-- Node5&#45;&gt;Node6 -->
<g id="edge5" class="edge">
<title>Node5&#45;&gt;Node6</title>
<path fill="none" stroke="#191970" d="M566.5099,-16.5C574.9304,-16.5 583.4763,-16.5 591.7618,-16.5"/>
<polygon fill="#191970" stroke="#191970" points="566.327,-13.0001 556.3269,-16.5 566.3269,-20.0001 566.327,-13.0001"/>
</g>
</g>
</svg>
