<?xml version="1.0" encoding="UTF-8" standalone="no"?>
<!DOCTYPE svg PUBLIC "-//W3C//DTD SVG 1.1//EN"
 "http://www.w3.org/Graphics/SVG/1.1/DTD/svg11.dtd">
<!-- Generated by graphviz version 2.40.1 (20161225.0304)
 -->
<!-- Title: PHRTreeSeeding Pages: 1 -->
<svg width="1542pt" height="462pt"
 viewBox="0.00 0.00 1542.00 461.50" xmlns="http://www.w3.org/2000/svg" xmlns:xlink="http://www.w3.org/1999/xlink">
<g id="graph0" class="graph" transform="scale(1 1) rotate(0) translate(4 457.5)">
<title>PHRTreeSeeding</title>
<!-- Node1 -->
<g id="node1" class="node">
<title>Node1</title>
<polygon fill="#bfbfbf" stroke="#000000" points="1436,-154.5 1436,-174.5 1534,-174.5 1534,-154.5 1436,-154.5"/>
<text text-anchor="middle" x="1485" y="-161.5" font-family="FreeSans" font-size="10.00" fill="#000000">PHRTreeSeeding</text>
</g>
<!-- Node2 -->
<g id="node2" class="node">
<title>Node2</title>
<g id="a_node2"><a xlink:href="../../d4/d5a/classPHTrackSeeding.html" target="_top" xlink:title="Base class for track seeding.">
<polygon fill="none" stroke="#000000" points="1170.5,-336.5 1170.5,-356.5 1267.5,-356.5 1267.5,-336.5 1170.5,-336.5"/>
<text text-anchor="middle" x="1219" y="-343.5" font-family="FreeSans" font-size="10.00" fill="#000000">PHTrackSeeding</text>
</a>
</g>
</g>
<!-- Node2&#45;&gt;Node1 -->
<g id="edge1" class="edge">
<title>Node2&#45;&gt;Node1</title>
<path fill="none" stroke="#191970" d="M1277.8394,-352.9704C1320.8094,-354.5228 1378.2648,-349.6332 1418,-319.5 1466.8202,-282.4772 1480.5829,-202.5952 1483.9909,-174.5115"/>
<polygon fill="#191970" stroke="#191970" points="1277.9588,-349.4722 1267.8007,-352.4826 1277.619,-356.4639 1277.9588,-349.4722"/>
</g>
<!-- Node3 -->
<g id="node3" class="node">
<title>Node3</title>
<g id="a_node3"><a xlink:href="../../d0/d32/classSubsysReco.html" target="_top" xlink:title="SubsysReco">
<polygon fill="none" stroke="#000000" points="944,-394.5 944,-414.5 1020,-414.5 1020,-394.5 944,-394.5"/>
<text text-anchor="middle" x="982" y="-401.5" font-family="FreeSans" font-size="10.00" fill="#000000">SubsysReco</text>
</a>
</g>
</g>
<!-- Node3&#45;&gt;Node2 -->
<g id="edge2" class="edge">
<title>Node3&#45;&gt;Node2</title>
<path fill="none" stroke="#191970" d="M1030.1463,-398.9365C1059.8242,-394.9026 1098.4853,-388.5538 1132,-379.5 1154.3011,-373.4755 1178.8341,-363.8846 1196.1469,-356.5914"/>
<polygon fill="#191970" stroke="#191970" points="1029.5037,-395.4908 1020.0467,-400.2674 1030.4183,-402.4308 1029.5037,-395.4908"/>
</g>
<!-- Node4 -->
<g id="node4" class="node">
<title>Node4</title>
<g id="a_node4"><a xlink:href="../../d5/dec/classFun4AllBase.html" target="_top" xlink:title="Fun4AllBase">
<polygon fill="none" stroke="#000000" points="680,-394.5 680,-414.5 758,-414.5 758,-394.5 680,-394.5"/>
<text text-anchor="middle" x="719" y="-401.5" font-family="FreeSans" font-size="10.00" fill="#000000">Fun4AllBase</text>
</a>
</g>
</g>
<!-- Node4&#45;&gt;Node3 -->
<g id="edge3" class="edge">
<title>Node4&#45;&gt;Node3</title>
<path fill="none" stroke="#191970" d="M768.2049,-404.5C819.1373,-404.5 897.6104,-404.5 943.9781,-404.5"/>
<polygon fill="#191970" stroke="#191970" points="768.0898,-401.0001 758.0898,-404.5 768.0897,-408.0001 768.0898,-401.0001"/>
</g>
<!-- Node5 -->
<g id="node5" class="node">
<title>Node5</title>
<g id="a_node5"><a xlink:title="STL class.">
<polygon fill="none" stroke="#bfbfbf" points="425.5,-423.5 425.5,-443.5 492.5,-443.5 492.5,-423.5 425.5,-423.5"/>
<text text-anchor="middle" x="459" y="-430.5" font-family="FreeSans" font-size="10.00" fill="#000000">std::string</text>
</a>
</g>
</g>
<!-- Node5&#45;&gt;Node2 -->
<g id="edge15" class="edge">
<title>Node5&#45;&gt;Node2</title>
<path fill="none" stroke="#9a32cd" stroke-dasharray="5,2" d="M502.8899,-436.509C600.5388,-442.4 842.9285,-452.5728 1043,-424.5 1083.5711,-418.8073 1094.4179,-416.8096 1132,-400.5 1159.7231,-388.4689 1188.9916,-368.6038 1205.5278,-356.6146"/>
<polygon fill="#9a32cd" stroke="#9a32cd" points="502.9986,-433.0091 492.8013,-435.8841 502.5658,-439.9957 502.9986,-433.0091"/>
<text text-anchor="middle" x="855" y="-444.5" font-family="FreeSans" font-size="10.00" fill="#000000"> _track_map_name</text>
</g>
<!-- Node5&#45;&gt;Node4 -->
<g id="edge4" class="edge">
<title>Node5&#45;&gt;Node4</title>
<path fill="none" stroke="#9a32cd" stroke-dasharray="5,2" d="M502.7005,-423.2319C513.2283,-421.0549 524.4757,-418.9725 535,-417.5 584.6342,-410.5553 642.3477,-407.2432 679.7129,-405.7176"/>
<polygon fill="#9a32cd" stroke="#9a32cd" points="501.9222,-419.8191 492.8743,-425.3315 503.385,-426.6646 501.9222,-419.8191"/>
<text text-anchor="middle" x="583" y="-420.5" font-family="FreeSans" font-size="10.00" fill="#000000"> m_ThisName</text>
</g>
<!-- Node6 -->
<g id="node6" class="node">
<title>Node6</title>
<g id="a_node6"><a xlink:title="STL class.">
<polygon fill="none" stroke="#bfbfbf" points="111,-417.5 111,-449.5 218,-449.5 218,-417.5 111,-417.5"/>
<text text-anchor="start" x="119" y="-436.5" font-family="FreeSans" font-size="10.00" fill="#000000">std::basic_string&lt;</text>
<text text-anchor="middle" x="164.5" y="-424.5" font-family="FreeSans" font-size="10.00" fill="#000000"> char &gt;</text>
</a>
</g>
</g>
<!-- Node6&#45;&gt;Node5 -->
<g id="edge5" class="edge">
<title>Node6&#45;&gt;Node5</title>
<path fill="none" stroke="#191970" d="M228.3895,-433.5C288.9534,-433.5 377.5747,-433.5 425.4031,-433.5"/>
<polygon fill="#191970" stroke="#191970" points="228.1734,-430.0001 218.1734,-433.5 228.1734,-437.0001 228.1734,-430.0001"/>
</g>
<!-- Node7 -->
<g id="node7" class="node">
<title>Node7</title>
<g id="a_node7"><a xlink:href="../../d0/d2c/classTrkrClusterContainer.html" target="_top" xlink:title="Cluster container object.">
<polygon fill="none" stroke="#000000" points="921,-299.5 921,-319.5 1043,-319.5 1043,-299.5 921,-299.5"/>
<text text-anchor="middle" x="982" y="-306.5" font-family="FreeSans" font-size="10.00" fill="#000000">TrkrClusterContainer</text>
</a>
</g>
</g>
<!-- Node7&#45;&gt;Node1 -->
<g id="edge22" class="edge">
<title>Node7&#45;&gt;Node1</title>
<path fill="none" stroke="#9a32cd" stroke-dasharray="5,2" d="M1053.4362,-303.3311C1078.429,-300.5391 1106.5879,-296.6762 1132,-291.5 1261.6926,-265.0831 1297.7909,-263.8877 1418,-208.5 1437.9694,-199.2989 1458.8108,-184.6949 1471.841,-174.8621"/>
<polygon fill="#9a32cd" stroke="#9a32cd" points="1052.8683,-299.8719 1043.3016,-304.4247 1053.6194,-306.8315 1052.8683,-299.8719"/>
<text text-anchor="middle" x="1219" y="-289.5" font-family="FreeSans" font-size="10.00" fill="#000000"> _cluster_map</text>
</g>
<!-- Node7&#45;&gt;Node2 -->
<g id="edge6" class="edge">
<title>Node7&#45;&gt;Node2</title>
<path fill="none" stroke="#9a32cd" stroke-dasharray="5,2" d="M1053.0022,-320.5847C1090.9351,-326.5067 1136.6492,-333.6435 1170.4922,-338.9271"/>
<polygon fill="#9a32cd" stroke="#9a32cd" points="1053.4536,-317.1129 1043.0334,-319.0284 1052.3738,-324.0291 1053.4536,-317.1129"/>
<text text-anchor="middle" x="1096.5" y="-334.5" font-family="FreeSans" font-size="10.00" fill="#000000"> _cluster_map</text>
</g>
<!-- Node8 -->
<g id="node8" class="node">
<title>Node8</title>
<g id="a_node8"><a xlink:href="../../d9/d24/classPHObject.html" target="_top" xlink:title="PHObject">
<polygon fill="none" stroke="#000000" points="133,-214.5 133,-234.5 196,-234.5 196,-214.5 133,-214.5"/>
<text text-anchor="middle" x="164.5" y="-221.5" font-family="FreeSans" font-size="10.00" fill="#000000">PHObject</text>
</a>
</g>
</g>
<!-- Node8&#45;&gt;Node7 -->
<g id="edge7" class="edge">
<title>Node8&#45;&gt;Node7</title>
<path fill="none" stroke="#191970" d="M194.8179,-238.7605C211.6417,-246.1793 233.1266,-254.8533 253,-260.5 317.1696,-278.7328 334.653,-278.554 401,-285.5 589.762,-305.2619 814.617,-308.9418 920.7528,-309.5025"/>
<polygon fill="#191970" stroke="#191970" points="196.0541,-235.4788 185.4984,-234.5698 193.1833,-241.8631 196.0541,-235.4788"/>
</g>
<!-- Node11 -->
<g id="node11" class="node">
<title>Node11</title>
<g id="a_node11"><a xlink:href="../../d6/dfa/classTrkrCluster.html" target="_top" xlink:title="Base class for cluster object.">
<polygon fill="none" stroke="#000000" points="423,-255.5 423,-275.5 495,-275.5 495,-255.5 423,-255.5"/>
<text text-anchor="middle" x="459" y="-262.5" font-family="FreeSans" font-size="10.00" fill="#000000">TrkrCluster</text>
</a>
</g>
</g>
<!-- Node8&#45;&gt;Node11 -->
<g id="edge11" class="edge">
<title>Node8&#45;&gt;Node11</title>
<path fill="none" stroke="#191970" d="M205.915,-231.2846C220.7538,-233.6538 237.6141,-236.2751 253,-238.5 312.438,-247.095 381.6998,-255.931 422.864,-261.0587"/>
<polygon fill="#191970" stroke="#191970" points="206.4365,-227.8236 196.0079,-229.6926 205.3259,-234.7349 206.4365,-227.8236"/>
</g>
<!-- Node12 -->
<g id="node12" class="node">
<title>Node12</title>
<g id="a_node12"><a xlink:href="../../d2/db7/classAssocInfoContainer.html" target="_top" xlink:title="AssocInfoContainer">
<polygon fill="none" stroke="#000000" points="401,-355.5 401,-375.5 517,-375.5 517,-355.5 401,-355.5"/>
<text text-anchor="middle" x="459" y="-362.5" font-family="FreeSans" font-size="10.00" fill="#000000">AssocInfoContainer</text>
</a>
</g>
</g>
<!-- Node8&#45;&gt;Node12 -->
<g id="edge13" class="edge">
<title>Node8&#45;&gt;Node12</title>
<path fill="none" stroke="#191970" d="M175.5343,-243.4261C190.1461,-266.6768 218.1773,-305.4912 253,-325.5 277.6391,-339.6574 348.7449,-351.414 400.5367,-358.4386"/>
<polygon fill="#191970" stroke="#191970" points="178.4669,-241.5124 170.2763,-234.792 172.4883,-245.1533 178.4669,-241.5124"/>
</g>
<!-- Node14 -->
<g id="node14" class="node">
<title>Node14</title>
<g id="a_node14"><a xlink:href="../../d7/d8b/classSvtxTrackMap.html" target="_top" xlink:title="SvtxTrackMap">
<polygon fill="none" stroke="#000000" points="939,-235.5 939,-255.5 1025,-255.5 1025,-235.5 939,-235.5"/>
<text text-anchor="middle" x="982" y="-242.5" font-family="FreeSans" font-size="10.00" fill="#000000">SvtxTrackMap</text>
</a>
</g>
</g>
<!-- Node8&#45;&gt;Node14 -->
<g id="edge17" class="edge">
<title>Node8&#45;&gt;Node14</title>
<path fill="none" stroke="#191970" d="M206.3402,-225.5748C346.2952,-229.17 797.244,-240.754 938.9601,-244.3944"/>
<polygon fill="#191970" stroke="#191970" points="206.1327,-222.0684 196.0461,-225.3104 205.9528,-229.0661 206.1327,-222.0684"/>
</g>
<!-- Node15 -->
<g id="node15" class="node">
<title>Node15</title>
<g id="a_node15"><a xlink:href="../../db/dd7/classSvtxVertexMap.html" target="_top" xlink:title="SvtxVertexMap">
<polygon fill="none" stroke="#000000" points="936,-178.5 936,-198.5 1028,-198.5 1028,-178.5 936,-178.5"/>
<text text-anchor="middle" x="982" y="-185.5" font-family="FreeSans" font-size="10.00" fill="#000000">SvtxVertexMap</text>
</a>
</g>
</g>
<!-- Node8&#45;&gt;Node15 -->
<g id="edge19" class="edge">
<title>Node8&#45;&gt;Node15</title>
<path fill="none" stroke="#191970" d="M206.2642,-222.6608C345.1336,-216.5455 790.7958,-196.92 935.8784,-190.531"/>
<polygon fill="#191970" stroke="#191970" points="205.8824,-219.1742 196.0461,-223.1108 206.1904,-226.1674 205.8824,-219.1742"/>
</g>
<!-- Node16 -->
<g id="node16" class="node">
<title>Node16</title>
<g id="a_node16"><a xlink:href="../../d9/dc2/classSvtxClusterMap.html" target="_top" xlink:title="SvtxClusterMap">
<polygon fill="none" stroke="#000000" points="535,-138.5 535,-158.5 631,-158.5 631,-138.5 535,-138.5"/>
<text text-anchor="middle" x="583" y="-145.5" font-family="FreeSans" font-size="10.00" fill="#000000">SvtxClusterMap</text>
</a>
</g>
</g>
<!-- Node8&#45;&gt;Node16 -->
<g id="edge21" class="edge">
<title>Node8&#45;&gt;Node16</title>
<path fill="none" stroke="#191970" d="M185.5533,-208.3505C202.7045,-196.1635 228.0791,-180.2613 253,-172.5 349.5268,-142.4381 469.3058,-142.3676 534.7412,-145.2592"/>
<polygon fill="#191970" stroke="#191970" points="183.3896,-205.5966 177.3798,-214.3221 187.5191,-211.2488 183.3896,-205.5966"/>
</g>
<!-- Node17 -->
<g id="node17" class="node">
<title>Node17</title>
<g id="a_node17"><a xlink:href="../../d4/de2/classSvtxHitMap.html" target="_top" xlink:title="SvtxHitMap">
<polygon fill="none" stroke="#000000" points="818,-95.5 818,-115.5 892,-115.5 892,-95.5 818,-95.5"/>
<text text-anchor="middle" x="855" y="-102.5" font-family="FreeSans" font-size="10.00" fill="#000000">SvtxHitMap</text>
</a>
</g>
</g>
<!-- Node8&#45;&gt;Node17 -->
<g id="edge24" class="edge">
<title>Node8&#45;&gt;Node17</title>
<path fill="none" stroke="#191970" d="M178.2321,-206.3216C193.9346,-187.1079 221.5661,-157.7843 253,-144.5 451.7319,-60.5139 720.4379,-86.4396 817.8201,-99.7706"/>
<polygon fill="#191970" stroke="#191970" points="175.345,-204.3299 171.886,-214.3442 180.835,-208.6727 175.345,-204.3299"/>
</g>
<!-- Node9 -->
<g id="node9" class="node">
<title>Node9</title>
<polygon fill="none" stroke="#bfbfbf" points="0,-214.5 0,-234.5 57,-234.5 57,-214.5 0,-214.5"/>
<text text-anchor="middle" x="28.5" y="-221.5" font-family="FreeSans" font-size="10.00" fill="#000000">TObject</text>
</g>
<!-- Node9&#45;&gt;Node8 -->
<g id="edge8" class="edge">
<title>Node9&#45;&gt;Node8</title>
<path fill="none" stroke="#191970" d="M67.087,-224.5C87.8297,-224.5 113.0953,-224.5 132.6972,-224.5"/>
<polygon fill="#191970" stroke="#191970" points="67.0101,-221.0001 57.0101,-224.5 67.01,-228.0001 67.0101,-221.0001"/>
</g>
<!-- Node10 -->
<g id="node10" class="node">
<title>Node10</title>
<polygon fill="none" stroke="#bfbfbf" points="649,-253.5 649,-285.5 789,-285.5 789,-253.5 649,-253.5"/>
<text text-anchor="start" x="657" y="-272.5" font-family="FreeSans" font-size="10.00" fill="#000000">std::map&lt; TrkrDefs</text>
<text text-anchor="middle" x="719" y="-260.5" font-family="FreeSans" font-size="10.00" fill="#000000">::cluskey, TrkrCluster * &gt;</text>
</g>
<!-- Node10&#45;&gt;Node7 -->
<g id="edge9" class="edge">
<title>Node10&#45;&gt;Node7</title>
<path fill="none" stroke="#9a32cd" stroke-dasharray="5,2" d="M799.5647,-275.0617C831.8804,-278.0087 869.3666,-282.3326 903,-288.5 918.2151,-291.29 934.7955,-295.5112 948.8202,-299.4391"/>
<polygon fill="#9a32cd" stroke="#9a32cd" points="799.5347,-271.5455 789.2657,-274.1527 798.9192,-278.5184 799.5347,-271.5455"/>
<text text-anchor="middle" x="855" y="-291.5" font-family="FreeSans" font-size="10.00" fill="#000000"> m_clusmap</text>
</g>
<!-- Node11&#45;&gt;Node10 -->
<g id="edge10" class="edge">
<title>Node11&#45;&gt;Node10</title>
<path fill="none" stroke="#9a32cd" stroke-dasharray="5,2" d="M505.3848,-266.2136C545.2673,-266.8272 603.3887,-267.7214 648.94,-268.4222"/>
<polygon fill="#9a32cd" stroke="#9a32cd" points="505.2046,-262.7105 495.1519,-266.0562 505.0968,-269.7097 505.2046,-262.7105"/>
<text text-anchor="middle" x="583" y="-270.5" font-family="FreeSans" font-size="10.00" fill="#000000"> elements</text>
</g>
<!-- Node12&#45;&gt;Node2 -->
<g id="edge12" class="edge">
<title>Node12&#45;&gt;Node2</title>
<path fill="none" stroke="#9a32cd" stroke-dasharray="5,2" d="M527.153,-363.7962C678.464,-360.0134 1039.3873,-350.9903 1170.4142,-347.7146"/>
<polygon fill="#9a32cd" stroke="#9a32cd" points="526.9697,-360.2996 517.0603,-364.0485 527.1447,-367.2974 526.9697,-360.2996"/>
<text text-anchor="middle" x="855" y="-359.5" font-family="FreeSans" font-size="10.00" fill="#000000"> _assoc_container</text>
</g>
<!-- Node13 -->
<g id="node13" class="node">
<title>Node13</title>
<polygon fill="none" stroke="#bfbfbf" points="94,-356.5 94,-388.5 235,-388.5 235,-356.5 94,-356.5"/>
<text text-anchor="start" x="102" y="-375.5" font-family="FreeSans" font-size="10.00" fill="#000000">std::multimap&lt; TrkrDefs</text>
<text text-anchor="middle" x="164.5" y="-363.5" font-family="FreeSans" font-size="10.00" fill="#000000">::cluskey, unsigned int &gt;</text>
</g>
<!-- Node13&#45;&gt;Node12 -->
<g id="edge14" class="edge">
<title>Node13&#45;&gt;Node12</title>
<path fill="none" stroke="#9a32cd" stroke-dasharray="5,2" d="M245.0453,-370.5855C294.3744,-369.413 356.3674,-367.9395 400.9069,-366.8808"/>
<polygon fill="#9a32cd" stroke="#9a32cd" points="244.9541,-367.0866 235.0401,-370.8233 245.1205,-374.0846 244.9541,-367.0866"/>
<text text-anchor="middle" x="318" y="-372.5" font-family="FreeSans" font-size="10.00" fill="#000000"> _map_cluster_id_track_id</text>
</g>
<!-- Node14&#45;&gt;Node1 -->
<g id="edge25" class="edge">
<title>Node14&#45;&gt;Node1</title>
<path fill="none" stroke="#9a32cd" stroke-dasharray="5,2" d="M1035.3157,-241.4791C1064.0209,-239.0738 1100.0085,-235.6719 1132,-231.5 1259.8068,-214.8334 1292.2545,-211.7915 1418,-183.5 1429.3239,-180.9522 1441.5768,-177.6434 1452.4694,-174.5026"/>
<polygon fill="#9a32cd" stroke="#9a32cd" points="1034.7701,-238.0121 1025.0905,-242.3198 1035.3437,-244.9885 1034.7701,-238.0121"/>
<text text-anchor="middle" x="1219" y="-231.5" font-family="FreeSans" font-size="10.00" fill="#000000"> _g4tracks</text>
</g>
<!-- Node14&#45;&gt;Node2 -->
<g id="edge16" class="edge">
<title>Node14&#45;&gt;Node2</title>
<path fill="none" stroke="#9a32cd" stroke-dasharray="5,2" d="M1024.3029,-258.7692C1055.2913,-269.4095 1097.7416,-285.9417 1132,-306.5 1140.9293,-311.8584 1140.9689,-316.3151 1150,-321.5 1160.4972,-327.5266 1172.7055,-332.5231 1183.9094,-336.4241"/>
<polygon fill="#9a32cd" stroke="#9a32cd" points="1025.2634,-255.3996 1014.6693,-255.5239 1023.0287,-262.0333 1025.2634,-255.3996"/>
<text text-anchor="middle" x="1096.5" y="-309.5" font-family="FreeSans" font-size="10.00" fill="#000000"> _track_map</text>
</g>
<!-- Node15&#45;&gt;Node1 -->
<g id="edge28" class="edge">
<title>Node15&#45;&gt;Node1</title>
<path fill="none" stroke="#9a32cd" stroke-dasharray="5,2" d="M1038.5578,-185.8014C1137.8477,-181.0639 1341.8592,-171.3298 1435.7394,-166.8504"/>
<polygon fill="#9a32cd" stroke="#9a32cd" points="1038.2412,-182.3124 1028.4194,-186.2852 1038.5749,-189.3045 1038.2412,-182.3124"/>
<text text-anchor="middle" x="1219" y="-182.5" font-family="FreeSans" font-size="10.00" fill="#000000"> _g4vertexes</text>
</g>
<!-- Node15&#45;&gt;Node2 -->
<g id="edge18" class="edge">
<title>Node15&#45;&gt;Node2</title>
<path fill="none" stroke="#9a32cd" stroke-dasharray="5,2" d="M1037.286,-201.4819C1069.1996,-211.6815 1107.7042,-229.0564 1132,-257.5 1151.1911,-279.9675 1129.8875,-299.8534 1150,-321.5 1156.0708,-328.0338 1163.9806,-332.8637 1172.2699,-336.4329"/>
<polygon fill="#9a32cd" stroke="#9a32cd" points="1038.2021,-198.1023 1027.6164,-198.5425 1036.1662,-204.7997 1038.2021,-198.1023"/>
<text text-anchor="middle" x="1096.5" y="-260.5" font-family="FreeSans" font-size="10.00" fill="#000000"> _vertex_map</text>
</g>
<!-- Node16&#45;&gt;Node1 -->
<g id="edge20" class="edge">
<title>Node16&#45;&gt;Node1</title>
<path fill="none" stroke="#9a32cd" stroke-dasharray="5,2" d="M641.2009,-149.5324C807.3414,-152.4794 1281.7449,-160.8946 1435.9366,-163.6297"/>
<polygon fill="#9a32cd" stroke="#9a32cd" points="641.2371,-146.0326 631.1765,-149.3546 641.1129,-153.0315 641.2371,-146.0326"/>
<text text-anchor="middle" x="982" y="-159.5" font-family="FreeSans" font-size="10.00" fill="#000000"> _g4clusters</text>
</g>
<!-- Node17&#45;&gt;Node1 -->
<g id="edge23" class="edge">
<title>Node17&#45;&gt;Node1</title>
<path fill="none" stroke="#9a32cd" stroke-dasharray="5,2" d="M902.3275,-100.1273C1000.591,-90.5274 1232.9904,-75.9367 1418,-127.5 1437.8399,-133.0295 1458.2166,-145.427 1471.2069,-154.3488"/>
<polygon fill="#9a32cd" stroke="#9a32cd" points="901.7286,-96.6698 892.1292,-101.1534 902.4294,-103.6347 901.7286,-96.6698"/>
<text text-anchor="middle" x="1096.5" y="-93.5" font-family="FreeSans" font-size="10.00" fill="#000000"> _svtxhitsmap</text>
</g>
<!-- Node18 -->
<g id="node18" class="node">
<title>Node18</title>
<polygon fill="none" stroke="#bfbfbf" points="1161,-52.5 1161,-72.5 1277,-72.5 1277,-52.5 1161,-52.5"/>
<text text-anchor="middle" x="1219" y="-59.5" font-family="FreeSans" font-size="10.00" fill="#000000">std::vector&lt; float &gt;</text>
</g>
<!-- Node18&#45;&gt;Node1 -->
<g id="edge26" class="edge">
<title>Node18&#45;&gt;Node1</title>
<path fill="none" stroke="#9a32cd" stroke-dasharray="5,2" d="M1287.4046,-53.298C1327.7155,-51.0875 1378.4062,-54.1074 1418,-75.5 1450.8399,-93.2435 1472.2445,-134.8185 1480.7907,-154.2066"/>
<polygon fill="#9a32cd" stroke="#9a32cd" points="1287.1381,-49.8079 1277.3928,-53.9647 1287.6032,-56.7924 1287.1381,-49.8079"/>
<text text-anchor="middle" x="1362" y="-78.5" font-family="FreeSans" font-size="10.00" fill="#000000"> _radii_all</text>
</g>
<!-- Node19 -->
<g id="node19" class="node">
<title>Node19</title>
<polygon fill="none" stroke="#bfbfbf" points="1150,-.5 1150,-32.5 1288,-32.5 1288,-.5 1150,-.5"/>
<text text-anchor="start" x="1158" y="-19.5" font-family="FreeSans" font-size="10.00" fill="#000000">std::map&lt; int, unsigned</text>
<text text-anchor="middle" x="1219" y="-7.5" font-family="FreeSans" font-size="10.00" fill="#000000"> int &gt;</text>
</g>
<!-- Node19&#45;&gt;Node1 -->
<g id="edge27" class="edge">
<title>Node19&#45;&gt;Node1</title>
<path fill="none" stroke="#9a32cd" stroke-dasharray="5,2" d="M1298.6904,-2.0502C1337.6306,.7566 1383.4233,-2.6772 1418,-25.5 1464.0569,-55.9005 1479.375,-127.3808 1483.6016,-154.143"/>
<polygon fill="#9a32cd" stroke="#9a32cd" points="1298.0873,1.4107 1288.4282,-2.9427 1298.6939,-5.563 1298.0873,1.4107"/>
<text text-anchor="middle" x="1362" y="-40.5" font-family="FreeSans" font-size="10.00" fill="#000000"> _layer_ilayer_map_all</text>
<text text-anchor="middle" x="1362" y="-28.5" font-family="FreeSans" font-size="10.00" fill="#000000">_layer_ilayer_map</text>
</g>
</g>
</svg>
