<?xml version="1.0" encoding="UTF-8" standalone="no"?>
<!DOCTYPE svg PUBLIC "-//W3C//DTD SVG 1.1//EN"
 "http://www.w3.org/Graphics/SVG/1.1/DTD/svg11.dtd">
<!-- Generated by graphviz version 2.40.1 (20161225.0304)
 -->
<!-- Title: getScattererFromMatList Pages: 1 -->
<svg width="341pt" height="92pt"
 viewBox="0.00 0.00 341.00 92.00" xmlns="http://www.w3.org/2000/svg" xmlns:xlink="http://www.w3.org/1999/xlink">
<g id="graph0" class="graph" transform="scale(1 1) rotate(0) translate(4 88)">
<title>getScattererFromMatList</title>
<!-- Node1 -->
<g id="node1" class="node">
<title>Node1</title>
<polygon fill="#bfbfbf" stroke="#000000" points="0,-31.5 0,-51.5 141,-51.5 141,-31.5 0,-31.5"/>
<text text-anchor="middle" x="70.5" y="-38.5" font-family="FreeSans" font-size="10.00" fill="#000000">getScattererFromMatList</text>
</g>
<!-- Node2 -->
<g id="node2" class="node">
<title>Node2</title>
<g id="a_node2"><a xlink:href="../../d1/dc8/classgenfit_1_1GblFitter.html#a5da35921dc77781efca0650aefff823a" target="_top" xlink:title="Propagate seed, populate track with scatterers and GblFitterInfos with reference state set...">
<polygon fill="none" stroke="#000000" points="204.5,-51.5 204.5,-83.5 305.5,-83.5 305.5,-51.5 204.5,-51.5"/>
<text text-anchor="start" x="212.5" y="-70.5" font-family="FreeSans" font-size="10.00" fill="#000000">genfit::GblFitter::</text>
<text text-anchor="middle" x="255" y="-58.5" font-family="FreeSans" font-size="10.00" fill="#000000">constructGblInfo</text>
</a>
</g>
</g>
<!-- Node1&#45;&gt;Node2 -->
<g id="edge1" class="edge">
<title>Node1&#45;&gt;Node2</title>
<path fill="none" stroke="#191970" d="M151.0113,-52.8458C169.1031,-55.3953 187.8073,-58.0311 204.279,-60.3523"/>
<polygon fill="#191970" stroke="#191970" points="151.4319,-49.3705 141.0413,-51.4408 150.455,-56.302 151.4319,-49.3705"/>
</g>
<!-- Node3 -->
<g id="node3" class="node">
<title>Node3</title>
<g id="a_node3"><a xlink:href="../../d3/d7b/classgenfit_1_1GFGbl.html#a0fbc16a1bcfe612c536b616be8239689" target="_top" xlink:title="genfit::GFGbl::processTrack\lWithRep">
<polygon fill="none" stroke="#000000" points="177,-.5 177,-32.5 333,-32.5 333,-.5 177,-.5"/>
<text text-anchor="start" x="185" y="-19.5" font-family="FreeSans" font-size="10.00" fill="#000000">genfit::GFGbl::processTrack</text>
<text text-anchor="middle" x="255" y="-7.5" font-family="FreeSans" font-size="10.00" fill="#000000">WithRep</text>
</a>
</g>
</g>
<!-- Node1&#45;&gt;Node3 -->
<g id="edge2" class="edge">
<title>Node1&#45;&gt;Node3</title>
<path fill="none" stroke="#191970" d="M151.0113,-30.5906C159.5732,-29.4305 168.2724,-28.2517 176.8071,-27.0952"/>
<polygon fill="#191970" stroke="#191970" points="150.4807,-27.1304 141.0413,-31.9416 151.4207,-34.067 150.4807,-27.1304"/>
</g>
</g>
</svg>
