<?xml version="1.0" encoding="UTF-8" standalone="no"?>
<!DOCTYPE svg PUBLIC "-//W3C//DTD SVG 1.1//EN"
 "http://www.w3.org/Graphics/SVG/1.1/DTD/svg11.dtd">
<!-- Generated by graphviz version 2.40.1 (20161225.0304)
 -->
<!-- Title: genfit::KalmanFittedStateOnPlane Pages: 1 -->
<svg width="178pt" height="155pt"
 viewBox="0.00 0.00 178.00 155.00" xmlns="http://www.w3.org/2000/svg" xmlns:xlink="http://www.w3.org/1999/xlink">
<g id="graph0" class="graph" transform="scale(1 1) rotate(0) translate(4 151)">
<title>genfit::KalmanFittedStateOnPlane</title>
<!-- Node1 -->
<g id="node1" class="node">
<title>Node1</title>
<polygon fill="#bfbfbf" stroke="#000000" points="12.5,-.5 12.5,-32.5 157.5,-32.5 157.5,-.5 12.5,-.5"/>
<text text-anchor="start" x="20.5" y="-19.5" font-family="FreeSans" font-size="10.00" fill="#000000">genfit::KalmanFittedState</text>
<text text-anchor="middle" x="85" y="-7.5" font-family="FreeSans" font-size="10.00" fill="#000000">OnPlane</text>
</g>
<!-- Node2 -->
<g id="node2" class="node">
<title>Node2</title>
<g id="a_node2"><a xlink:href="../../d2/d74/classgenfit_1_1MeasuredStateOnPlane.html" target="_top" xlink:title="StateOnPlane with additional covariance matrix.">
<polygon fill="none" stroke="#000000" points="0,-69.5 0,-89.5 170,-89.5 170,-69.5 0,-69.5"/>
<text text-anchor="middle" x="85" y="-76.5" font-family="FreeSans" font-size="10.00" fill="#000000">genfit::MeasuredStateOnPlane</text>
</a>
</g>
</g>
<!-- Node2&#45;&gt;Node1 -->
<g id="edge1" class="edge">
<title>Node2&#45;&gt;Node1</title>
<path fill="none" stroke="#191970" d="M85,-59.1222C85,-50.58 85,-40.7859 85,-32.742"/>
<polygon fill="#191970" stroke="#191970" points="81.5001,-59.3779 85,-69.378 88.5001,-59.378 81.5001,-59.3779"/>
</g>
<!-- Node3 -->
<g id="node3" class="node">
<title>Node3</title>
<g id="a_node3"><a xlink:href="../../de/dd5/classgenfit_1_1StateOnPlane.html" target="_top" xlink:title="A state with arbitrary dimension defined in a DetPlane.">
<polygon fill="none" stroke="#000000" points="24.5,-126.5 24.5,-146.5 145.5,-146.5 145.5,-126.5 24.5,-126.5"/>
<text text-anchor="middle" x="85" y="-133.5" font-family="FreeSans" font-size="10.00" fill="#000000">genfit::StateOnPlane</text>
</a>
</g>
</g>
<!-- Node3&#45;&gt;Node2 -->
<g id="edge2" class="edge">
<title>Node3&#45;&gt;Node2</title>
<path fill="none" stroke="#191970" d="M85,-116.1771C85,-107.1625 85,-96.9556 85,-89.6022"/>
<polygon fill="#191970" stroke="#191970" points="81.5001,-116.3095 85,-126.3095 88.5001,-116.3096 81.5001,-116.3095"/>
</g>
</g>
</svg>
