<?xml version="1.0" encoding="UTF-8" standalone="no"?>
<!DOCTYPE svg PUBLIC "-//W3C//DTD SVG 1.1//EN"
 "http://www.w3.org/Graphics/SVG/1.1/DTD/svg11.dtd">
<!-- Generated by graphviz version 2.40.1 (20161225.0304)
 -->
<!-- Title: genfit::AbsKalmanFitter::isTrackFitted Pages: 1 -->
<svg width="525pt" height="373pt"
 viewBox="0.00 0.00 525.00 373.00" xmlns="http://www.w3.org/2000/svg" xmlns:xlink="http://www.w3.org/1999/xlink">
<g id="graph0" class="graph" transform="scale(1 1) rotate(0) translate(4 369)">
<title>genfit::AbsKalmanFitter::isTrackFitted</title>
<!-- Node1 -->
<g id="node1" class="node">
<title>Node1</title>
<polygon fill="#bfbfbf" stroke="#000000" points="0,-127.5 0,-159.5 136,-159.5 136,-127.5 0,-127.5"/>
<text text-anchor="start" x="8" y="-146.5" font-family="FreeSans" font-size="10.00" fill="#000000">genfit::AbsKalmanFitter</text>
<text text-anchor="middle" x="68" y="-134.5" font-family="FreeSans" font-size="10.00" fill="#000000">::isTrackFitted</text>
</g>
<!-- Node2 -->
<g id="node2" class="node">
<title>Node2</title>
<g id="a_node2"><a xlink:href="../../d3/d03/classgenfit_1_1KalmanFitterInfo.html#a11e7a7d1a7af27a268c05bb6b89d8c3d" target="_top" xlink:title="genfit::KalmanFitterInfo\l::checkConsistency">
<polygon fill="none" stroke="#000000" points="177.5,-256.5 177.5,-288.5 312.5,-288.5 312.5,-256.5 177.5,-256.5"/>
<text text-anchor="start" x="185.5" y="-275.5" font-family="FreeSans" font-size="10.00" fill="#000000">genfit::KalmanFitterInfo</text>
<text text-anchor="middle" x="245" y="-263.5" font-family="FreeSans" font-size="10.00" fill="#000000">::checkConsistency</text>
</a>
</g>
</g>
<!-- Node1&#45;&gt;Node2 -->
<g id="edge1" class="edge">
<title>Node1&#45;&gt;Node2</title>
<path fill="none" stroke="#191970" d="M83.9234,-159.6193C103.5121,-178.9118 138.324,-211.4911 172,-234.5 180.9401,-240.6082 190.9841,-246.43 200.6951,-251.5997"/>
<polygon fill="#191970" stroke="#191970" points="199.3673,-254.8535 209.8567,-256.3444 202.5865,-248.6376 199.3673,-254.8535"/>
</g>
<!-- Node6 -->
<g id="node6" class="node">
<title>Node6</title>
<g id="a_node6"><a xlink:href="../../d6/d8a/classgenfit_1_1Track.html#ad06e7a012624bdb03960826b5c9fcd93" target="_top" xlink:title="Get FitStatus for a AbsTrackRep. Per default, return FitStatus for cardinalRep.">
<polygon fill="none" stroke="#000000" points="172,-204.5 172,-224.5 318,-224.5 318,-204.5 172,-204.5"/>
<text text-anchor="middle" x="245" y="-211.5" font-family="FreeSans" font-size="10.00" fill="#000000">genfit::Track::getFitStatus</text>
</a>
</g>
</g>
<!-- Node1&#45;&gt;Node6 -->
<g id="edge5" class="edge">
<title>Node1&#45;&gt;Node6</title>
<path fill="none" stroke="#191970" d="M96.4115,-159.7361C116.9186,-170.9465 145.5416,-185.5671 172,-195.5 177.8735,-197.705 184.1051,-199.7501 190.3551,-201.6179"/>
<polygon fill="#191970" stroke="#191970" points="189.5667,-205.0325 200.1429,-204.4047 191.4836,-198.3001 189.5667,-205.0325"/>
</g>
<!-- Node8 -->
<g id="node8" class="node">
<title>Node8</title>
<g id="a_node8"><a xlink:href="../../d6/d8a/classgenfit_1_1Track.html#af8d0e80206b8523b225f1b380fb89d62" target="_top" xlink:title="genfit::Track::getPoints\lWithMeasurement">
<polygon fill="none" stroke="#000000" points="178.5,-153.5 178.5,-185.5 311.5,-185.5 311.5,-153.5 178.5,-153.5"/>
<text text-anchor="start" x="186.5" y="-172.5" font-family="FreeSans" font-size="10.00" fill="#000000">genfit::Track::getPoints</text>
<text text-anchor="middle" x="245" y="-160.5" font-family="FreeSans" font-size="10.00" fill="#000000">WithMeasurement</text>
</a>
</g>
</g>
<!-- Node1&#45;&gt;Node8 -->
<g id="edge7" class="edge">
<title>Node1&#45;&gt;Node8</title>
<path fill="none" stroke="#191970" d="M136.1796,-153.5151C146.6593,-155.0545 157.5408,-156.6529 168.1923,-158.2175"/>
<polygon fill="#191970" stroke="#191970" points="167.9109,-161.7137 178.3135,-159.7042 168.9283,-154.788 167.9109,-161.7137"/>
</g>
<!-- Node9 -->
<g id="node9" class="node">
<title>Node9</title>
<g id="a_node9"><a xlink:href="../../d3/d03/classgenfit_1_1KalmanFitterInfo.html#a004e134cf1a0097c6a04d9ec07447ccf" target="_top" xlink:title="genfit::KalmanFitterInfo\l::hasBackwardUpdate">
<polygon fill="none" stroke="#000000" points="177.5,-102.5 177.5,-134.5 312.5,-134.5 312.5,-102.5 177.5,-102.5"/>
<text text-anchor="start" x="185.5" y="-121.5" font-family="FreeSans" font-size="10.00" fill="#000000">genfit::KalmanFitterInfo</text>
<text text-anchor="middle" x="245" y="-109.5" font-family="FreeSans" font-size="10.00" fill="#000000">::hasBackwardUpdate</text>
</a>
</g>
</g>
<!-- Node1&#45;&gt;Node9 -->
<g id="edge8" class="edge">
<title>Node1&#45;&gt;Node9</title>
<path fill="none" stroke="#191970" d="M136.1796,-133.8701C146.4379,-132.4212 157.0812,-130.9179 167.5169,-129.4439"/>
<polygon fill="#191970" stroke="#191970" points="168.0271,-132.9067 177.4393,-128.0425 167.0481,-125.9755 168.0271,-132.9067"/>
</g>
<!-- Node10 -->
<g id="node10" class="node">
<title>Node10</title>
<g id="a_node10"><a xlink:href="../../d3/d03/classgenfit_1_1KalmanFitterInfo.html#acfa7dcfad5a8953118015c048c5e1ced" target="_top" xlink:title="genfit::KalmanFitterInfo\l::hasForwardUpdate">
<polygon fill="none" stroke="#000000" points="177.5,-51.5 177.5,-83.5 312.5,-83.5 312.5,-51.5 177.5,-51.5"/>
<text text-anchor="start" x="185.5" y="-70.5" font-family="FreeSans" font-size="10.00" fill="#000000">genfit::KalmanFitterInfo</text>
<text text-anchor="middle" x="245" y="-58.5" font-family="FreeSans" font-size="10.00" fill="#000000">::hasForwardUpdate</text>
</a>
</g>
</g>
<!-- Node1&#45;&gt;Node10 -->
<g id="edge9" class="edge">
<title>Node1&#45;&gt;Node10</title>
<path fill="none" stroke="#191970" d="M98.4773,-127.2905C118.9626,-116.7111 146.7351,-102.9721 172,-92.5 176.4087,-90.6726 181.004,-88.8697 185.6487,-87.1198"/>
<polygon fill="#191970" stroke="#191970" points="187.0259,-90.3427 195.2078,-83.6116 184.6142,-83.7713 187.0259,-90.3427"/>
</g>
<!-- Node11 -->
<g id="node11" class="node">
<title>Node11</title>
<g id="a_node11"><a xlink:href="../../d0/d8d/classgenfit_1_1FitStatus.html#a91e5099623f99dffc4811549776325ae" target="_top" xlink:title="Has the track been fitted?">
<polygon fill="none" stroke="#000000" points="194,-.5 194,-32.5 296,-32.5 296,-.5 194,-.5"/>
<text text-anchor="start" x="202" y="-19.5" font-family="FreeSans" font-size="10.00" fill="#000000">genfit::FitStatus::</text>
<text text-anchor="middle" x="245" y="-7.5" font-family="FreeSans" font-size="10.00" fill="#000000">isFitted</text>
</a>
</g>
</g>
<!-- Node1&#45;&gt;Node11 -->
<g id="edge10" class="edge">
<title>Node1&#45;&gt;Node11</title>
<path fill="none" stroke="#191970" d="M80.4112,-127.446C98.3744,-105.217 133.6889,-65.1375 172,-41.5 175.8887,-39.1007 180.0372,-36.8969 184.3071,-34.8792"/>
<polygon fill="#191970" stroke="#191970" points="186.0189,-37.9515 193.7949,-30.7555 183.2286,-31.5317 186.0189,-37.9515"/>
</g>
<!-- Node3 -->
<g id="node3" class="node">
<title>Node3</title>
<g id="a_node3"><a xlink:href="../../d9/d8c/classgenfit_1_1AbsFitterInfo.html#ac844445adef7cc138e48f0562242d490" target="_top" xlink:title="genfit::AbsFitterInfo\l::getPlane">
<polygon fill="none" stroke="#000000" points="377.5,-332.5 377.5,-364.5 493.5,-364.5 493.5,-332.5 377.5,-332.5"/>
<text text-anchor="start" x="385.5" y="-351.5" font-family="FreeSans" font-size="10.00" fill="#000000">genfit::AbsFitterInfo</text>
<text text-anchor="middle" x="435.5" y="-339.5" font-family="FreeSans" font-size="10.00" fill="#000000">::getPlane</text>
</a>
</g>
</g>
<!-- Node2&#45;&gt;Node3 -->
<g id="edge2" class="edge">
<title>Node2&#45;&gt;Node3</title>
<path fill="none" stroke="#191970" d="M276.4468,-288.6464C297.9511,-299.33 327.2897,-313.2127 354,-323.5 359.0928,-325.4615 364.4095,-327.3766 369.7798,-329.218"/>
<polygon fill="#191970" stroke="#191970" points="368.874,-332.6053 379.4676,-332.447 371.0875,-325.9645 368.874,-332.6053"/>
</g>
<!-- Node4 -->
<g id="node4" class="node">
<title>Node4</title>
<g id="a_node4"><a xlink:href="../../d1/d25/classgenfit_1_1AbsTrackRep.html#ab73b2438fc8bc96ea96449b799c8f583" target="_top" xlink:title="Get the dimension of the state vector used by the track representation.">
<polygon fill="none" stroke="#000000" points="377,-281.5 377,-313.5 494,-313.5 494,-281.5 377,-281.5"/>
<text text-anchor="start" x="385" y="-300.5" font-family="FreeSans" font-size="10.00" fill="#000000">genfit::AbsTrackRep</text>
<text text-anchor="middle" x="435.5" y="-288.5" font-family="FreeSans" font-size="10.00" fill="#000000">::getDim</text>
</a>
</g>
</g>
<!-- Node2&#45;&gt;Node4 -->
<g id="edge3" class="edge">
<title>Node2&#45;&gt;Node4</title>
<path fill="none" stroke="#191970" d="M312.6996,-281.3845C330.2216,-283.6839 349.1046,-286.162 366.6833,-288.4689"/>
<polygon fill="#191970" stroke="#191970" points="366.492,-291.9738 376.8624,-289.8048 367.4029,-285.0333 366.492,-291.9738"/>
</g>
<!-- Node5 -->
<g id="node5" class="node">
<title>Node5</title>
<g id="a_node5"><a xlink:href="../../d6/d51/structgenfit_1_1PruneFlags.html#a8f468c1a77b6a573dc5de81bf07e8c94" target="_top" xlink:title="check if all the given flags are set">
<polygon fill="none" stroke="#000000" points="381.5,-230.5 381.5,-262.5 489.5,-262.5 489.5,-230.5 381.5,-230.5"/>
<text text-anchor="start" x="389.5" y="-249.5" font-family="FreeSans" font-size="10.00" fill="#000000">genfit::PruneFlags</text>
<text text-anchor="middle" x="435.5" y="-237.5" font-family="FreeSans" font-size="10.00" fill="#000000">::hasFlags</text>
</a>
</g>
</g>
<!-- Node2&#45;&gt;Node5 -->
<g id="edge4" class="edge">
<title>Node2&#45;&gt;Node5</title>
<path fill="none" stroke="#191970" d="M312.6996,-263.2602C331.827,-260.6496 352.5763,-257.8177 371.4801,-255.2376"/>
<polygon fill="#191970" stroke="#191970" points="372.0388,-258.6939 381.4736,-253.8737 371.0921,-251.7582 372.0388,-258.6939"/>
</g>
<!-- Node7 -->
<g id="node7" class="node">
<title>Node7</title>
<g id="a_node7"><a xlink:href="../../d6/d8a/classgenfit_1_1Track.html#a402b35300e81a48c7f0b9eb082b1cf24" target="_top" xlink:title="Get cardinal track representation.">
<polygon fill="none" stroke="#000000" points="354,-191.5 354,-211.5 517,-211.5 517,-191.5 354,-191.5"/>
<text text-anchor="middle" x="435.5" y="-198.5" font-family="FreeSans" font-size="10.00" fill="#000000">genfit::Track::getCardinalRep</text>
</a>
</g>
</g>
<!-- Node6&#45;&gt;Node7 -->
<g id="edge6" class="edge">
<title>Node6&#45;&gt;Node7</title>
<path fill="none" stroke="#191970" d="M318.1075,-209.511C326.4786,-208.9398 335.0912,-208.352 343.6669,-207.7668"/>
<polygon fill="#191970" stroke="#191970" points="343.9619,-211.2549 353.7004,-207.0821 343.4852,-204.2712 343.9619,-211.2549"/>
</g>
</g>
</svg>
