<?xml version="1.0" encoding="UTF-8" standalone="no"?>
<!DOCTYPE svg PUBLIC "-//W3C//DTD SVG 1.1//EN"
 "http://www.w3.org/Graphics/SVG/1.1/DTD/svg11.dtd">
<!-- Generated by graphviz version 2.40.1 (20161225.0304)
 -->
<!-- Title: genfit::DetPlane::straightLineToPlane Pages: 1 -->
<svg width="1302pt" height="296pt"
 viewBox="0.00 0.00 1302.00 296.00" xmlns="http://www.w3.org/2000/svg" xmlns:xlink="http://www.w3.org/1999/xlink">
<g id="graph0" class="graph" transform="scale(1 1) rotate(0) translate(4 292)">
<title>genfit::DetPlane::straightLineToPlane</title>
<!-- Node1 -->
<g id="node1" class="node">
<title>Node1</title>
<polygon fill="#bfbfbf" stroke="#000000" points="0,-102.5 0,-134.5 144,-134.5 144,-102.5 0,-102.5"/>
<text text-anchor="start" x="8" y="-121.5" font-family="FreeSans" font-size="10.00" fill="#000000">genfit::DetPlane::straight</text>
<text text-anchor="middle" x="72" y="-109.5" font-family="FreeSans" font-size="10.00" fill="#000000">LineToPlane</text>
</g>
<!-- Node2 -->
<g id="node2" class="node">
<title>Node2</title>
<g id="a_node2"><a xlink:href="../../dd/d25/classgenfit_1_1DetPlane.html#a7cc4455980d9ee114323396148670829" target="_top" xlink:title="intersect in the active area? C.f. AbsFinitePlane">
<polygon fill="none" stroke="#000000" points="180,-108.5 180,-128.5 333,-128.5 333,-108.5 180,-108.5"/>
<text text-anchor="middle" x="256.5" y="-115.5" font-family="FreeSans" font-size="10.00" fill="#000000">genfit::DetPlane::isInActive</text>
</a>
</g>
</g>
<!-- Node1&#45;&gt;Node2 -->
<g id="edge1" class="edge">
<title>Node1&#45;&gt;Node2</title>
<path fill="none" stroke="#191970" d="M154.3868,-118.5C162.8611,-118.5 171.4477,-118.5 179.8562,-118.5"/>
<polygon fill="#191970" stroke="#191970" points="154.1252,-115.0001 144.1252,-118.5 154.1252,-122.0001 154.1252,-115.0001"/>
</g>
<!-- Node3 -->
<g id="node3" class="node">
<title>Node3</title>
<g id="a_node3"><a xlink:href="../../d2/d12/classgenfit_1_1RKTrackRep.html#a37357f3b52f71699afd587716babde3f" target="_top" xlink:title="genfit::RKTrackRep\l::estimateStep">
<polygon fill="none" stroke="#000000" points="390,-102.5 390,-134.5 501,-134.5 501,-102.5 390,-102.5"/>
<text text-anchor="start" x="398" y="-121.5" font-family="FreeSans" font-size="10.00" fill="#000000">genfit::RKTrackRep</text>
<text text-anchor="middle" x="445.5" y="-109.5" font-family="FreeSans" font-size="10.00" fill="#000000">::estimateStep</text>
</a>
</g>
</g>
<!-- Node2&#45;&gt;Node3 -->
<g id="edge2" class="edge">
<title>Node2&#45;&gt;Node3</title>
<path fill="none" stroke="#191970" d="M343.4393,-118.5C359.2624,-118.5 375.3699,-118.5 389.9723,-118.5"/>
<polygon fill="#191970" stroke="#191970" points="343.1011,-115.0001 333.1011,-118.5 343.101,-122.0001 343.1011,-115.0001"/>
</g>
<!-- Node5 -->
<g id="node5" class="node">
<title>Node5</title>
<g id="a_node5"><a xlink:href="../../d2/d12/classgenfit_1_1RKTrackRep.html#a8aab6f587db26d572214ede92f4877fc" target="_top" xlink:title="Handles propagation and material effects.">
<polygon fill="none" stroke="#000000" points="705,-124.5 705,-156.5 816,-156.5 816,-124.5 705,-124.5"/>
<text text-anchor="start" x="713" y="-143.5" font-family="FreeSans" font-size="10.00" fill="#000000">genfit::RKTrackRep</text>
<text text-anchor="middle" x="760.5" y="-131.5" font-family="FreeSans" font-size="10.00" fill="#000000">::Extrap</text>
</a>
</g>
</g>
<!-- Node2&#45;&gt;Node5 -->
<g id="edge19" class="edge">
<title>Node2&#45;&gt;Node5</title>
<path fill="none" stroke="#191970" d="M300.3609,-131.0747C320.999,-136.3607 346.0644,-141.8841 369,-144.5 488.0295,-158.0756 628.732,-151.0622 704.8447,-145.3751"/>
<polygon fill="#191970" stroke="#191970" points="301.1751,-127.6699 290.6139,-128.5127 299.3955,-134.4399 301.1751,-127.6699"/>
</g>
<!-- Node14 -->
<g id="node14" class="node">
<title>Node14</title>
<g id="a_node14"><a xlink:href="../../dd/d25/classgenfit_1_1DetPlane.html#a26cec6eb716cdab2b8b27f6e5f8fe8a3" target="_top" xlink:title="intersect in the active area? C.f. AbsFinitePlane">
<polygon fill="none" stroke="#000000" points="369,-63.5 369,-83.5 522,-83.5 522,-63.5 369,-63.5"/>
<text text-anchor="middle" x="445.5" y="-70.5" font-family="FreeSans" font-size="10.00" fill="#000000">genfit::DetPlane::isInActive</text>
</a>
</g>
</g>
<!-- Node2&#45;&gt;Node14 -->
<g id="edge20" class="edge">
<title>Node2&#45;&gt;Node14</title>
<path fill="none" stroke="#191970" d="M308.7155,-106.0677C338.4783,-98.9814 375.2907,-90.2165 403.2263,-83.5652"/>
<polygon fill="#191970" stroke="#191970" points="307.8327,-102.68 298.9153,-108.4011 309.4541,-109.4897 307.8327,-102.68"/>
</g>
<!-- Node4 -->
<g id="node4" class="node">
<title>Node4</title>
<g id="a_node4"><a xlink:href="../../d2/d12/classgenfit_1_1RKTrackRep.html#ae3384d3819bb9c4d8aa9e1981913331b" target="_top" xlink:title="Propagates the particle through the magnetic field.">
<polygon fill="none" stroke="#000000" points="558,-102.5 558,-134.5 669,-134.5 669,-102.5 558,-102.5"/>
<text text-anchor="start" x="566" y="-121.5" font-family="FreeSans" font-size="10.00" fill="#000000">genfit::RKTrackRep</text>
<text text-anchor="middle" x="613.5" y="-109.5" font-family="FreeSans" font-size="10.00" fill="#000000">::RKutta</text>
</a>
</g>
</g>
<!-- Node3&#45;&gt;Node4 -->
<g id="edge3" class="edge">
<title>Node3&#45;&gt;Node4</title>
<path fill="none" stroke="#191970" d="M511.8248,-118.5C527.0477,-118.5 543.0818,-118.5 557.8027,-118.5"/>
<polygon fill="#191970" stroke="#191970" points="511.4416,-115.0001 501.4416,-118.5 511.4415,-122.0001 511.4416,-115.0001"/>
</g>
<!-- Node4&#45;&gt;Node5 -->
<g id="edge4" class="edge">
<title>Node4&#45;&gt;Node5</title>
<path fill="none" stroke="#191970" d="M679.0775,-128.3143C687.6805,-129.6018 696.4299,-130.9113 704.847,-132.171"/>
<polygon fill="#191970" stroke="#191970" points="679.4823,-124.836 669.0744,-126.8173 678.4462,-131.7589 679.4823,-124.836"/>
</g>
<!-- Node6 -->
<g id="node6" class="node">
<title>Node6</title>
<g id="a_node6"><a xlink:href="../../d2/d12/classgenfit_1_1RKTrackRep.html#a03a1d1eb5b7169ba697ccf114de5066c" target="_top" xlink:title="Extrapolates the state to plane, and returns the extrapolation length and, via reference, the extrapolated state.">
<polygon fill="none" stroke="#000000" points="852,-124.5 852,-156.5 971,-156.5 971,-124.5 852,-124.5"/>
<text text-anchor="start" x="860" y="-143.5" font-family="FreeSans" font-size="10.00" fill="#000000">genfit::RKTrackRep</text>
<text text-anchor="middle" x="911.5" y="-131.5" font-family="FreeSans" font-size="10.00" fill="#000000">::extrapolateToPlane</text>
</a>
</g>
</g>
<!-- Node5&#45;&gt;Node6 -->
<g id="edge5" class="edge">
<title>Node5&#45;&gt;Node6</title>
<path fill="none" stroke="#191970" d="M826.4898,-140.5C834.9347,-140.5 843.5409,-140.5 851.8767,-140.5"/>
<polygon fill="#191970" stroke="#191970" points="826.2978,-137.0001 816.2978,-140.5 826.2978,-144.0001 826.2978,-137.0001"/>
</g>
<!-- Node7 -->
<g id="node7" class="node">
<title>Node7</title>
<g id="a_node7"><a xlink:href="../../d2/d12/classgenfit_1_1RKTrackRep.html#a216b86da9a7238ff9cf24e944b0f9e4b" target="_top" xlink:title="Extrapolates the state to the POCA to a line, and returns the extrapolation length and...">
<polygon fill="none" stroke="#000000" points="1017.5,-255.5 1017.5,-287.5 1130.5,-287.5 1130.5,-255.5 1017.5,-255.5"/>
<text text-anchor="start" x="1025.5" y="-274.5" font-family="FreeSans" font-size="10.00" fill="#000000">genfit::RKTrackRep</text>
<text text-anchor="middle" x="1074" y="-262.5" font-family="FreeSans" font-size="10.00" fill="#000000">::extrapolateToLine</text>
</a>
</g>
</g>
<!-- Node5&#45;&gt;Node7 -->
<g id="edge13" class="edge">
<title>Node5&#45;&gt;Node7</title>
<path fill="none" stroke="#191970" d="M785.7318,-163.6532C803.2082,-178.6056 827.6307,-197.4496 852,-209.5 905.0884,-235.7517 970.9921,-252.372 1017.1497,-261.7232"/>
<polygon fill="#191970" stroke="#191970" points="787.5748,-160.6157 777.7412,-156.6723 782.9694,-165.8874 787.5748,-160.6157"/>
</g>
<!-- Node8 -->
<g id="node8" class="node">
<title>Node8</title>
<g id="a_node8"><a xlink:href="../../d2/d12/classgenfit_1_1RKTrackRep.html#abb38b9cdcf9cfa490b795530579bcd73" target="_top" xlink:title="genfit::RKTrackRep\l::extrapToPoint">
<polygon fill="none" stroke="#000000" points="1018.5,-204.5 1018.5,-236.5 1129.5,-236.5 1129.5,-204.5 1018.5,-204.5"/>
<text text-anchor="start" x="1026.5" y="-223.5" font-family="FreeSans" font-size="10.00" fill="#000000">genfit::RKTrackRep</text>
<text text-anchor="middle" x="1074" y="-211.5" font-family="FreeSans" font-size="10.00" fill="#000000">::extrapToPoint</text>
</a>
</g>
</g>
<!-- Node5&#45;&gt;Node8 -->
<g id="edge14" class="edge">
<title>Node5&#45;&gt;Node8</title>
<path fill="none" stroke="#191970" d="M798.4405,-161.1916C814.5524,-169.2166 833.7903,-177.8225 852,-183.5 907.2074,-200.7128 972.78,-210.3897 1018.2811,-215.4912"/>
<polygon fill="#191970" stroke="#191970" points="799.8461,-157.9797 789.3467,-156.5603 796.6693,-164.2174 799.8461,-157.9797"/>
</g>
<!-- Node10 -->
<g id="node10" class="node">
<title>Node10</title>
<g id="a_node10"><a xlink:href="../../d2/d12/classgenfit_1_1RKTrackRep.html#abb4665294ae573dc5423f2975bb8b3e7" target="_top" xlink:title="Extrapolates the state to the cylinder surface, and returns the extrapolation length and...">
<polygon fill="none" stroke="#000000" points="1007,-153.5 1007,-185.5 1141,-185.5 1141,-153.5 1007,-153.5"/>
<text text-anchor="start" x="1015" y="-172.5" font-family="FreeSans" font-size="10.00" fill="#000000">genfit::RKTrackRep</text>
<text text-anchor="middle" x="1074" y="-160.5" font-family="FreeSans" font-size="10.00" fill="#000000">::extrapolateToCylinder</text>
</a>
</g>
</g>
<!-- Node5&#45;&gt;Node10 -->
<g id="edge15" class="edge">
<title>Node5&#45;&gt;Node10</title>
<path fill="none" stroke="#191970" d="M817.6737,-159.2341C828.9371,-162.2153 840.7518,-164.8554 852,-166.5 903.4885,-174.0283 962.4091,-174.4509 1006.6046,-173.1685"/>
<polygon fill="#191970" stroke="#191970" points="818.5168,-155.836 807.9456,-156.5429 816.6504,-162.5826 818.5168,-155.836"/>
</g>
<!-- Node11 -->
<g id="node11" class="node">
<title>Node11</title>
<g id="a_node11"><a xlink:href="../../d2/d12/classgenfit_1_1RKTrackRep.html#a44091ce8605a38c40d4a4f1692af448b" target="_top" xlink:title="Extrapolates the state to the cone surface, and returns the extrapolation length and, via reference, the extrapolated state.">
<polygon fill="none" stroke="#000000" points="1015.5,-102.5 1015.5,-134.5 1132.5,-134.5 1132.5,-102.5 1015.5,-102.5"/>
<text text-anchor="start" x="1023.5" y="-121.5" font-family="FreeSans" font-size="10.00" fill="#000000">genfit::RKTrackRep</text>
<text text-anchor="middle" x="1074" y="-109.5" font-family="FreeSans" font-size="10.00" fill="#000000">::extrapolateToCone</text>
</a>
</g>
</g>
<!-- Node5&#45;&gt;Node11 -->
<g id="edge16" class="edge">
<title>Node5&#45;&gt;Node11</title>
<path fill="none" stroke="#191970" d="M817.2768,-121.7442C828.6555,-118.7321 840.6145,-116.0862 852,-114.5 906.978,-106.8405 970.348,-109.0636 1015.2735,-112.4748"/>
<polygon fill="#191970" stroke="#191970" points="816.1565,-118.4227 807.4557,-124.468 818.0273,-125.1681 816.1565,-118.4227"/>
</g>
<!-- Node12 -->
<g id="node12" class="node">
<title>Node12</title>
<g id="a_node12"><a xlink:href="../../d2/d12/classgenfit_1_1RKTrackRep.html#aaa34d4913daa972f1947554c4b1e23a8" target="_top" xlink:title="Extrapolates the state to the sphere surface, and returns the extrapolation length and...">
<polygon fill="none" stroke="#000000" points="1010.5,-51.5 1010.5,-83.5 1137.5,-83.5 1137.5,-51.5 1010.5,-51.5"/>
<text text-anchor="start" x="1018.5" y="-70.5" font-family="FreeSans" font-size="10.00" fill="#000000">genfit::RKTrackRep</text>
<text text-anchor="middle" x="1074" y="-58.5" font-family="FreeSans" font-size="10.00" fill="#000000">::extrapolateToSphere</text>
</a>
</g>
</g>
<!-- Node5&#45;&gt;Node12 -->
<g id="edge17" class="edge">
<title>Node5&#45;&gt;Node12</title>
<path fill="none" stroke="#191970" d="M807.3139,-120.5726C821.4798,-115.0948 837.2063,-109.5535 852,-105.5 904.42,-91.137 965.3641,-81.1684 1010.1214,-75.0565"/>
<polygon fill="#191970" stroke="#191970" points="805.8017,-117.4067 797.7867,-124.3357 808.3733,-123.9172 805.8017,-117.4067"/>
</g>
<!-- Node13 -->
<g id="node13" class="node">
<title>Node13</title>
<g id="a_node13"><a xlink:href="../../d2/d12/classgenfit_1_1RKTrackRep.html#afb21945e3f605f45b1a5bbbe7741793f" target="_top" xlink:title="Extrapolates the state by step (cm) and returns the extrapolation length and, via reference...">
<polygon fill="none" stroke="#000000" points="1018.5,-.5 1018.5,-32.5 1129.5,-32.5 1129.5,-.5 1018.5,-.5"/>
<text text-anchor="start" x="1026.5" y="-19.5" font-family="FreeSans" font-size="10.00" fill="#000000">genfit::RKTrackRep</text>
<text text-anchor="middle" x="1074" y="-7.5" font-family="FreeSans" font-size="10.00" fill="#000000">::extrapolateBy</text>
</a>
</g>
</g>
<!-- Node5&#45;&gt;Node13 -->
<g id="edge18" class="edge">
<title>Node5&#45;&gt;Node13</title>
<path fill="none" stroke="#191970" d="M788.1355,-118.2942C805.594,-105.1745 829.1082,-89.1079 852,-78.5 906.0985,-53.4311 972.4278,-36.5409 1018.424,-26.8011"/>
<polygon fill="#191970" stroke="#191970" points="785.8931,-115.603 780.0807,-124.4612 790.1485,-121.161 785.8931,-115.603"/>
</g>
<!-- Node6&#45;&gt;Node7 -->
<g id="edge6" class="edge">
<title>Node6&#45;&gt;Node7</title>
<path fill="none" stroke="#191970" d="M928.0791,-164.8935C945.3282,-188.6354 974.3483,-224.2911 1007,-246.5 1011.9275,-249.8516 1017.3627,-252.8253 1022.942,-255.4449"/>
<polygon fill="#191970" stroke="#191970" points="930.9214,-162.851 922.2718,-156.7325 925.218,-166.9095 930.9214,-162.851"/>
</g>
<!-- Node6&#45;&gt;Node8 -->
<g id="edge7" class="edge">
<title>Node6&#45;&gt;Node8</title>
<path fill="none" stroke="#191970" d="M945.7218,-162.0509C963.601,-172.833 986.0661,-185.6491 1007,-195.5 1013.6279,-198.6189 1020.7595,-201.6281 1027.8106,-204.4124"/>
<polygon fill="#191970" stroke="#191970" points="947.1827,-158.8423 936.8226,-156.6244 943.5384,-164.8189 947.1827,-158.8423"/>
</g>
<!-- Node6&#45;&gt;Node10 -->
<g id="edge9" class="edge">
<title>Node6&#45;&gt;Node10</title>
<path fill="none" stroke="#191970" d="M980.9965,-152.9025C989.5274,-154.4249 998.2349,-155.9788 1006.732,-157.4953"/>
<polygon fill="#191970" stroke="#191970" points="981.5457,-149.4452 971.0863,-151.1339 980.3158,-156.3364 981.5457,-149.4452"/>
</g>
<!-- Node6&#45;&gt;Node11 -->
<g id="edge10" class="edge">
<title>Node6&#45;&gt;Node11</title>
<path fill="none" stroke="#191970" d="M981.003,-131.0904C992.4064,-129.5465 1004.1251,-127.96 1015.2351,-126.4559"/>
<polygon fill="#191970" stroke="#191970" points="980.5263,-127.6229 971.0863,-132.4329 981.4655,-134.5596 980.5263,-127.6229"/>
</g>
<!-- Node6&#45;&gt;Node12 -->
<g id="edge11" class="edge">
<title>Node6&#45;&gt;Node12</title>
<path fill="none" stroke="#191970" d="M950.7542,-119.5632C967.8326,-110.7703 988.2012,-100.7027 1007,-92.5 1014.0551,-89.4216 1021.6228,-86.3679 1029.0409,-83.5075"/>
<polygon fill="#191970" stroke="#191970" points="948.8982,-116.5831 941.6356,-124.2971 952.1236,-122.7958 948.8982,-116.5831"/>
</g>
<!-- Node6&#45;&gt;Node13 -->
<g id="edge12" class="edge">
<title>Node6&#45;&gt;Node13</title>
<path fill="none" stroke="#191970" d="M929.5484,-116.3593C947.1733,-94.2449 975.831,-61.9326 1007,-41.5 1012.0878,-38.1648 1017.6825,-35.1904 1023.4037,-32.5609"/>
<polygon fill="#191970" stroke="#191970" points="926.7511,-114.2548 923.3515,-124.2894 932.2668,-118.565 926.7511,-114.2548"/>
</g>
<!-- Node9 -->
<g id="node9" class="node">
<title>Node9</title>
<g id="a_node9"><a xlink:href="../../d2/d12/classgenfit_1_1RKTrackRep.html#aff9f0db2e194bd9889386cc73ed2d0cd" target="_top" xlink:title="Extrapolates the state to the POCA to a point, and returns the extrapolation length and...">
<polygon fill="none" stroke="#000000" points="1177,-204.5 1177,-236.5 1294,-236.5 1294,-204.5 1177,-204.5"/>
<text text-anchor="start" x="1185" y="-223.5" font-family="FreeSans" font-size="10.00" fill="#000000">genfit::RKTrackRep</text>
<text text-anchor="middle" x="1235.5" y="-211.5" font-family="FreeSans" font-size="10.00" fill="#000000">::extrapolateToPoint</text>
</a>
</g>
</g>
<!-- Node8&#45;&gt;Node9 -->
<g id="edge8" class="edge">
<title>Node8&#45;&gt;Node9</title>
<path fill="none" stroke="#191970" d="M1139.7434,-220.5C1152.0089,-220.5 1164.753,-220.5 1176.7897,-220.5"/>
<polygon fill="#191970" stroke="#191970" points="1139.5792,-217.0001 1129.5791,-220.5 1139.5791,-224.0001 1139.5792,-217.0001"/>
</g>
</g>
</svg>
