<?xml version="1.0" encoding="UTF-8" standalone="no"?>
<!DOCTYPE svg PUBLIC "-//W3C//DTD SVG 1.1//EN"
 "http://www.w3.org/Graphics/SVG/1.1/DTD/svg11.dtd">
<!-- Generated by graphviz version 2.40.1 (20161225.0304)
 -->
<!-- Title: genfit::DetPlane::rotate Pages: 1 -->
<svg width="501pt" height="48pt"
 viewBox="0.00 0.00 501.00 48.00" xmlns="http://www.w3.org/2000/svg" xmlns:xlink="http://www.w3.org/1999/xlink">
<g id="graph0" class="graph" transform="scale(1 1) rotate(0) translate(4 44)">
<title>genfit::DetPlane::rotate</title>
<!-- Node1 -->
<g id="node1" class="node">
<title>Node1</title>
<polygon fill="#bfbfbf" stroke="#000000" points="0,-19.5 0,-39.5 135,-39.5 135,-19.5 0,-19.5"/>
<text text-anchor="middle" x="67.5" y="-26.5" font-family="FreeSans" font-size="10.00" fill="#000000">genfit::DetPlane::rotate</text>
</g>
<!-- Node2 -->
<g id="node2" class="node">
<title>Node2</title>
<g id="a_node2"><a xlink:href="../../dd/d25/classgenfit_1_1DetPlane.html#a67147844a30d48c6d067e150d82a7e5a" target="_top" xlink:title="genfit::DetPlane::getNormal">
<polygon fill="none" stroke="#000000" points="336,-19.5 336,-39.5 493,-39.5 493,-19.5 336,-19.5"/>
<text text-anchor="middle" x="414.5" y="-26.5" font-family="FreeSans" font-size="10.00" fill="#000000">genfit::DetPlane::getNormal</text>
</a>
</g>
</g>
<!-- Node1&#45;&gt;Node2 -->
<g id="edge1" class="edge">
<title>Node1&#45;&gt;Node2</title>
<path fill="none" stroke="#191970" d="M135.1433,-30.2476C147.0897,-30.3528 159.4098,-30.444 171,-30.5 228.3327,-30.777 242.6672,-30.7504 300,-30.5 308.3585,-30.4635 317.0602,-30.412 325.7667,-30.3514"/>
<polygon fill="#191970" stroke="#191970" points="325.9955,-33.85 335.9695,-30.2765 325.944,-26.8501 325.9955,-33.85"/>
</g>
<!-- Node3 -->
<g id="node3" class="node">
<title>Node3</title>
<g id="a_node3"><a xlink:href="../../dd/d25/classgenfit_1_1DetPlane.html#ad9de0e2ef303f5682a2d0f3374c5effe" target="_top" xlink:title="ensures orthonormal coordinates">
<polygon fill="none" stroke="#000000" points="171,-.5 171,-20.5 300,-20.5 300,-.5 171,-.5"/>
<text text-anchor="middle" x="235.5" y="-7.5" font-family="FreeSans" font-size="10.00" fill="#000000">genfit::DetPlane::sane</text>
</a>
</g>
</g>
<!-- Node1&#45;&gt;Node3 -->
<g id="edge2" class="edge">
<title>Node1&#45;&gt;Node3</title>
<path fill="none" stroke="#191970" d="M135.3478,-21.8267C143.7914,-20.8718 152.4612,-19.8913 160.9985,-18.9258"/>
<polygon fill="#191970" stroke="#191970" points="161.3949,-22.4033 170.9382,-17.8016 160.6082,-15.4477 161.3949,-22.4033"/>
</g>
<!-- Node3&#45;&gt;Node2 -->
<g id="edge3" class="edge">
<title>Node3&#45;&gt;Node2</title>
<path fill="none" stroke="#191970" d="M300.1231,-17.3594C308.4724,-18.2457 317.1354,-19.1652 325.7887,-20.0837"/>
<polygon fill="#191970" stroke="#191970" points="325.6093,-23.5842 335.9229,-21.1594 326.3482,-16.6234 325.6093,-23.5842"/>
</g>
</g>
</svg>
