<?xml version="1.0" encoding="UTF-8" standalone="no"?>
<!DOCTYPE svg PUBLIC "-//W3C//DTD SVG 1.1//EN"
 "http://www.w3.org/Graphics/SVG/1.1/DTD/svg11.dtd">
<!-- Generated by graphviz version 2.40.1 (20161225.0304)
 -->
<!-- Title: genfit::DetPlane::getU Pages: 1 -->
<svg width="971pt" height="296pt"
 viewBox="0.00 0.00 971.00 296.00" xmlns="http://www.w3.org/2000/svg" xmlns:xlink="http://www.w3.org/1999/xlink">
<g id="graph0" class="graph" transform="scale(1 1) rotate(0) translate(4 292)">
<title>genfit::DetPlane::getU</title>
<!-- Node1 -->
<g id="node1" class="node">
<title>Node1</title>
<polygon fill="#bfbfbf" stroke="#000000" points="0,-152.5 0,-172.5 128,-172.5 128,-152.5 0,-152.5"/>
<text text-anchor="middle" x="64" y="-159.5" font-family="FreeSans" font-size="10.00" fill="#000000">genfit::DetPlane::getU</text>
</g>
<!-- Node2 -->
<g id="node2" class="node">
<title>Node2</title>
<g id="a_node2"><a xlink:href="../../d2/d12/classgenfit_1_1RKTrackRep.html#a1b48d34b67452eeb4d22c08884cd81e7" target="_top" xlink:title="genfit::RKTrackRep\l::calcForwardJacobianAndNoise">
<polygon fill="none" stroke="#000000" points="164,-146.5 164,-178.5 338,-178.5 338,-146.5 164,-146.5"/>
<text text-anchor="start" x="172" y="-165.5" font-family="FreeSans" font-size="10.00" fill="#000000">genfit::RKTrackRep</text>
<text text-anchor="middle" x="251" y="-153.5" font-family="FreeSans" font-size="10.00" fill="#000000">::calcForwardJacobianAndNoise</text>
</a>
</g>
</g>
<!-- Node1&#45;&gt;Node2 -->
<g id="edge1" class="edge">
<title>Node1&#45;&gt;Node2</title>
<path fill="none" stroke="#191970" d="M138.2338,-162.5C146.6519,-162.5 155.2877,-162.5 163.8521,-162.5"/>
<polygon fill="#191970" stroke="#191970" points="138.0932,-159.0001 128.0932,-162.5 138.0931,-166.0001 138.0932,-159.0001"/>
</g>
<!-- Node3 -->
<g id="node3" class="node">
<title>Node3</title>
<g id="a_node3"><a xlink:href="../../dc/d22/namespacegenfit.html#a7f4fb1ca240c395344a29860679f2d4a" target="_top" xlink:title="White&#45;Box&#45;Test.">
<polygon fill="none" stroke="#000000" points="385,-175.5 385,-195.5 474,-195.5 474,-175.5 385,-175.5"/>
<text text-anchor="middle" x="429.5" y="-182.5" font-family="FreeSans" font-size="10.00" fill="#000000">genfit::TEST_F</text>
</a>
</g>
</g>
<!-- Node2&#45;&gt;Node3 -->
<g id="edge2" class="edge">
<title>Node2&#45;&gt;Node3</title>
<path fill="none" stroke="#191970" d="M348.3433,-175.0428C361.0091,-176.6748 373.4556,-178.2786 384.6513,-179.7212"/>
<polygon fill="#191970" stroke="#191970" points="348.5237,-171.5372 338.1584,-173.7305 347.6291,-178.4798 348.5237,-171.5372"/>
</g>
<!-- Node4 -->
<g id="node4" class="node">
<title>Node4</title>
<g id="a_node4"><a xlink:href="../../d2/d12/classgenfit_1_1RKTrackRep.html#a8aab6f587db26d572214ede92f4877fc" target="_top" xlink:title="Handles propagation and material effects.">
<polygon fill="none" stroke="#000000" points="374,-124.5 374,-156.5 485,-156.5 485,-124.5 374,-124.5"/>
<text text-anchor="start" x="382" y="-143.5" font-family="FreeSans" font-size="10.00" fill="#000000">genfit::RKTrackRep</text>
<text text-anchor="middle" x="429.5" y="-131.5" font-family="FreeSans" font-size="10.00" fill="#000000">::Extrap</text>
</a>
</g>
</g>
<!-- Node2&#45;&gt;Node4 -->
<g id="edge3" class="edge">
<title>Node2&#45;&gt;Node4</title>
<path fill="none" stroke="#191970" d="M348.3061,-150.5071C356.9275,-149.4445 365.4479,-148.3944 373.5418,-147.3968"/>
<polygon fill="#191970" stroke="#191970" points="347.6551,-147.0608 338.1584,-151.7578 348.5114,-154.0082 347.6551,-147.0608"/>
</g>
<!-- Node5 -->
<g id="node5" class="node">
<title>Node5</title>
<g id="a_node5"><a xlink:href="../../d2/d12/classgenfit_1_1RKTrackRep.html#a03a1d1eb5b7169ba697ccf114de5066c" target="_top" xlink:title="Extrapolates the state to plane, and returns the extrapolation length and, via reference, the extrapolated state.">
<polygon fill="none" stroke="#000000" points="521,-124.5 521,-156.5 640,-156.5 640,-124.5 521,-124.5"/>
<text text-anchor="start" x="529" y="-143.5" font-family="FreeSans" font-size="10.00" fill="#000000">genfit::RKTrackRep</text>
<text text-anchor="middle" x="580.5" y="-131.5" font-family="FreeSans" font-size="10.00" fill="#000000">::extrapolateToPlane</text>
</a>
</g>
</g>
<!-- Node4&#45;&gt;Node5 -->
<g id="edge4" class="edge">
<title>Node4&#45;&gt;Node5</title>
<path fill="none" stroke="#191970" d="M495.4898,-140.5C503.9347,-140.5 512.5409,-140.5 520.8767,-140.5"/>
<polygon fill="#191970" stroke="#191970" points="495.2978,-137.0001 485.2978,-140.5 495.2978,-144.0001 495.2978,-137.0001"/>
</g>
<!-- Node6 -->
<g id="node6" class="node">
<title>Node6</title>
<g id="a_node6"><a xlink:href="../../d2/d12/classgenfit_1_1RKTrackRep.html#a216b86da9a7238ff9cf24e944b0f9e4b" target="_top" xlink:title="Extrapolates the state to the POCA to a line, and returns the extrapolation length and...">
<polygon fill="none" stroke="#000000" points="686.5,-255.5 686.5,-287.5 799.5,-287.5 799.5,-255.5 686.5,-255.5"/>
<text text-anchor="start" x="694.5" y="-274.5" font-family="FreeSans" font-size="10.00" fill="#000000">genfit::RKTrackRep</text>
<text text-anchor="middle" x="743" y="-262.5" font-family="FreeSans" font-size="10.00" fill="#000000">::extrapolateToLine</text>
</a>
</g>
</g>
<!-- Node4&#45;&gt;Node6 -->
<g id="edge12" class="edge">
<title>Node4&#45;&gt;Node6</title>
<path fill="none" stroke="#191970" d="M478.3835,-161.8527C480.6775,-163.3319 482.8972,-164.8817 485,-166.5 504.7521,-181.7016 500.0572,-195.9858 521,-209.5 571.4356,-242.0457 638.9847,-257.7379 686.2766,-265.1531"/>
<polygon fill="#191970" stroke="#191970" points="479.6547,-158.5408 469.258,-156.5015 476.1138,-164.5792 479.6547,-158.5408"/>
</g>
<!-- Node7 -->
<g id="node7" class="node">
<title>Node7</title>
<g id="a_node7"><a xlink:href="../../d2/d12/classgenfit_1_1RKTrackRep.html#abb38b9cdcf9cfa490b795530579bcd73" target="_top" xlink:title="genfit::RKTrackRep\l::extrapToPoint">
<polygon fill="none" stroke="#000000" points="687.5,-204.5 687.5,-236.5 798.5,-236.5 798.5,-204.5 687.5,-204.5"/>
<text text-anchor="start" x="695.5" y="-223.5" font-family="FreeSans" font-size="10.00" fill="#000000">genfit::RKTrackRep</text>
<text text-anchor="middle" x="743" y="-211.5" font-family="FreeSans" font-size="10.00" fill="#000000">::extrapToPoint</text>
</a>
</g>
</g>
<!-- Node4&#45;&gt;Node7 -->
<g id="edge13" class="edge">
<title>Node4&#45;&gt;Node7</title>
<path fill="none" stroke="#191970" d="M473.1517,-160.934C477.1583,-162.8142 481.1546,-164.6914 485,-166.5 501.0116,-174.031 504.1127,-178.2175 521,-183.5 576.1913,-200.7642 641.7664,-210.4331 687.2725,-215.5186"/>
<polygon fill="#191970" stroke="#191970" points="474.3905,-157.6493 463.8506,-156.5721 471.4183,-163.987 474.3905,-157.6493"/>
</g>
<!-- Node9 -->
<g id="node9" class="node">
<title>Node9</title>
<g id="a_node9"><a xlink:href="../../d2/d12/classgenfit_1_1RKTrackRep.html#abb4665294ae573dc5423f2975bb8b3e7" target="_top" xlink:title="Extrapolates the state to the cylinder surface, and returns the extrapolation length and...">
<polygon fill="none" stroke="#000000" points="676,-153.5 676,-185.5 810,-185.5 810,-153.5 676,-153.5"/>
<text text-anchor="start" x="684" y="-172.5" font-family="FreeSans" font-size="10.00" fill="#000000">genfit::RKTrackRep</text>
<text text-anchor="middle" x="743" y="-160.5" font-family="FreeSans" font-size="10.00" fill="#000000">::extrapolateToCylinder</text>
</a>
</g>
</g>
<!-- Node4&#45;&gt;Node9 -->
<g id="edge14" class="edge">
<title>Node4&#45;&gt;Node9</title>
<path fill="none" stroke="#191970" d="M486.6737,-159.2341C497.9371,-162.2153 509.7518,-164.8554 521,-166.5 572.4885,-174.0283 631.4091,-174.4509 675.6046,-173.1685"/>
<polygon fill="#191970" stroke="#191970" points="487.5168,-155.836 476.9456,-156.5429 485.6504,-162.5826 487.5168,-155.836"/>
</g>
<!-- Node10 -->
<g id="node10" class="node">
<title>Node10</title>
<g id="a_node10"><a xlink:href="../../d2/d12/classgenfit_1_1RKTrackRep.html#a44091ce8605a38c40d4a4f1692af448b" target="_top" xlink:title="Extrapolates the state to the cone surface, and returns the extrapolation length and, via reference, the extrapolated state.">
<polygon fill="none" stroke="#000000" points="684.5,-102.5 684.5,-134.5 801.5,-134.5 801.5,-102.5 684.5,-102.5"/>
<text text-anchor="start" x="692.5" y="-121.5" font-family="FreeSans" font-size="10.00" fill="#000000">genfit::RKTrackRep</text>
<text text-anchor="middle" x="743" y="-109.5" font-family="FreeSans" font-size="10.00" fill="#000000">::extrapolateToCone</text>
</a>
</g>
</g>
<!-- Node4&#45;&gt;Node10 -->
<g id="edge15" class="edge">
<title>Node4&#45;&gt;Node10</title>
<path fill="none" stroke="#191970" d="M488.5438,-121.903C499.2439,-119.241 510.3783,-116.9249 521,-115.5 576.0122,-108.1199 639.3779,-109.9916 684.2932,-113.042"/>
<polygon fill="#191970" stroke="#191970" points="487.6581,-118.5168 478.8665,-124.4293 489.4263,-125.2899 487.6581,-118.5168"/>
</g>
<!-- Node11 -->
<g id="node11" class="node">
<title>Node11</title>
<g id="a_node11"><a xlink:href="../../d2/d12/classgenfit_1_1RKTrackRep.html#aaa34d4913daa972f1947554c4b1e23a8" target="_top" xlink:title="Extrapolates the state to the sphere surface, and returns the extrapolation length and...">
<polygon fill="none" stroke="#000000" points="679.5,-51.5 679.5,-83.5 806.5,-83.5 806.5,-51.5 679.5,-51.5"/>
<text text-anchor="start" x="687.5" y="-70.5" font-family="FreeSans" font-size="10.00" fill="#000000">genfit::RKTrackRep</text>
<text text-anchor="middle" x="743" y="-58.5" font-family="FreeSans" font-size="10.00" fill="#000000">::extrapolateToSphere</text>
</a>
</g>
</g>
<!-- Node4&#45;&gt;Node11 -->
<g id="edge16" class="edge">
<title>Node4&#45;&gt;Node11</title>
<path fill="none" stroke="#191970" d="M476.3139,-120.5726C490.4798,-115.0948 506.2063,-109.5535 521,-105.5 573.42,-91.137 634.3641,-81.1684 679.1214,-75.0565"/>
<polygon fill="#191970" stroke="#191970" points="474.8017,-117.4067 466.7867,-124.3357 477.3733,-123.9172 474.8017,-117.4067"/>
</g>
<!-- Node12 -->
<g id="node12" class="node">
<title>Node12</title>
<g id="a_node12"><a xlink:href="../../d2/d12/classgenfit_1_1RKTrackRep.html#afb21945e3f605f45b1a5bbbe7741793f" target="_top" xlink:title="Extrapolates the state by step (cm) and returns the extrapolation length and, via reference...">
<polygon fill="none" stroke="#000000" points="687.5,-.5 687.5,-32.5 798.5,-32.5 798.5,-.5 687.5,-.5"/>
<text text-anchor="start" x="695.5" y="-19.5" font-family="FreeSans" font-size="10.00" fill="#000000">genfit::RKTrackRep</text>
<text text-anchor="middle" x="743" y="-7.5" font-family="FreeSans" font-size="10.00" fill="#000000">::extrapolateBy</text>
</a>
</g>
</g>
<!-- Node4&#45;&gt;Node12 -->
<g id="edge17" class="edge">
<title>Node4&#45;&gt;Node12</title>
<path fill="none" stroke="#191970" d="M456.724,-118.1411C474.19,-104.7412 497.8586,-88.2696 521,-77.5 574.9948,-52.3719 641.3411,-35.8301 687.3697,-26.392"/>
<polygon fill="#191970" stroke="#191970" points="454.3984,-115.5165 448.6775,-124.434 458.7108,-121.0305 454.3984,-115.5165"/>
</g>
<!-- Node5&#45;&gt;Node6 -->
<g id="edge5" class="edge">
<title>Node5&#45;&gt;Node6</title>
<path fill="none" stroke="#191970" d="M597.0791,-164.8935C614.3282,-188.6354 643.3483,-224.2911 676,-246.5 680.9275,-249.8516 686.3627,-252.8253 691.942,-255.4449"/>
<polygon fill="#191970" stroke="#191970" points="599.9214,-162.851 591.2718,-156.7325 594.218,-166.9095 599.9214,-162.851"/>
</g>
<!-- Node5&#45;&gt;Node7 -->
<g id="edge6" class="edge">
<title>Node5&#45;&gt;Node7</title>
<path fill="none" stroke="#191970" d="M614.7218,-162.0509C632.601,-172.833 655.0661,-185.6491 676,-195.5 682.6279,-198.6189 689.7595,-201.6281 696.8106,-204.4124"/>
<polygon fill="#191970" stroke="#191970" points="616.1827,-158.8423 605.8226,-156.6244 612.5384,-164.8189 616.1827,-158.8423"/>
</g>
<!-- Node5&#45;&gt;Node9 -->
<g id="edge8" class="edge">
<title>Node5&#45;&gt;Node9</title>
<path fill="none" stroke="#191970" d="M649.9965,-152.9025C658.5274,-154.4249 667.2349,-155.9788 675.732,-157.4953"/>
<polygon fill="#191970" stroke="#191970" points="650.5457,-149.4452 640.0863,-151.1339 649.3158,-156.3364 650.5457,-149.4452"/>
</g>
<!-- Node5&#45;&gt;Node10 -->
<g id="edge9" class="edge">
<title>Node5&#45;&gt;Node10</title>
<path fill="none" stroke="#191970" d="M650.003,-131.0904C661.4064,-129.5465 673.1251,-127.96 684.2351,-126.4559"/>
<polygon fill="#191970" stroke="#191970" points="649.5263,-127.6229 640.0863,-132.4329 650.4655,-134.5596 649.5263,-127.6229"/>
</g>
<!-- Node5&#45;&gt;Node11 -->
<g id="edge10" class="edge">
<title>Node5&#45;&gt;Node11</title>
<path fill="none" stroke="#191970" d="M620.6337,-119.78C637.5643,-111.293 657.584,-101.5866 676,-93.5 683.6542,-90.139 691.8912,-86.7563 699.8816,-83.5936"/>
<polygon fill="#191970" stroke="#191970" points="618.926,-116.7214 611.5754,-124.3516 622.0799,-122.9706 618.926,-116.7214"/>
</g>
<!-- Node5&#45;&gt;Node12 -->
<g id="edge11" class="edge">
<title>Node5&#45;&gt;Node12</title>
<path fill="none" stroke="#191970" d="M598.5484,-116.3593C616.1733,-94.2449 644.831,-61.9326 676,-41.5 681.0878,-38.1648 686.6825,-35.1904 692.4037,-32.5609"/>
<polygon fill="#191970" stroke="#191970" points="595.7511,-114.2548 592.3515,-124.2894 601.2668,-118.565 595.7511,-114.2548"/>
</g>
<!-- Node8 -->
<g id="node8" class="node">
<title>Node8</title>
<g id="a_node8"><a xlink:href="../../d2/d12/classgenfit_1_1RKTrackRep.html#aff9f0db2e194bd9889386cc73ed2d0cd" target="_top" xlink:title="Extrapolates the state to the POCA to a point, and returns the extrapolation length and...">
<polygon fill="none" stroke="#000000" points="846,-204.5 846,-236.5 963,-236.5 963,-204.5 846,-204.5"/>
<text text-anchor="start" x="854" y="-223.5" font-family="FreeSans" font-size="10.00" fill="#000000">genfit::RKTrackRep</text>
<text text-anchor="middle" x="904.5" y="-211.5" font-family="FreeSans" font-size="10.00" fill="#000000">::extrapolateToPoint</text>
</a>
</g>
</g>
<!-- Node7&#45;&gt;Node8 -->
<g id="edge7" class="edge">
<title>Node7&#45;&gt;Node8</title>
<path fill="none" stroke="#191970" d="M808.7434,-220.5C821.0089,-220.5 833.753,-220.5 845.7897,-220.5"/>
<polygon fill="#191970" stroke="#191970" points="808.5792,-217.0001 798.5791,-220.5 808.5791,-224.0001 808.5792,-217.0001"/>
</g>
</g>
</svg>
