<?xml version="1.0" encoding="UTF-8" standalone="no"?>
<!DOCTYPE svg PUBLIC "-//W3C//DTD SVG 1.1//EN"
 "http://www.w3.org/Graphics/SVG/1.1/DTD/svg11.dtd">
<!-- Generated by graphviz version 2.40.1 (20161225.0304)
 -->
<!-- Title: romg Pages: 1 -->
<svg width="1026pt" height="789pt"
 viewBox="0.00 0.00 1026.00 789.00" xmlns="http://www.w3.org/2000/svg" xmlns:xlink="http://www.w3.org/1999/xlink">
<g id="graph0" class="graph" transform="scale(1 1) rotate(0) translate(4 785)">
<title>romg</title>
<!-- Node1 -->
<g id="node1" class="node">
<title>Node1</title>
<polygon fill="#bfbfbf" stroke="#000000" points="0,-584.5 0,-604.5 42,-604.5 42,-584.5 0,-584.5"/>
<text text-anchor="middle" x="21" y="-591.5" font-family="FreeSans" font-size="10.00" fill="#000000">romg</text>
</g>
<!-- Node2 -->
<g id="node2" class="node">
<title>Node2</title>
<g id="a_node2"><a xlink:href="../../de/de0/matchedfilter_8C.html#ad37474ba23a5f0af2c619aeeaad07526" target="_top" xlink:title="go">
<polygon fill="none" stroke="#000000" points="145,-721.5 145,-741.5 174,-741.5 174,-721.5 145,-721.5"/>
<text text-anchor="middle" x="159.5" y="-728.5" font-family="FreeSans" font-size="10.00" fill="#000000">go</text>
</a>
</g>
</g>
<!-- Node1&#45;&gt;Node2 -->
<g id="edge1" class="edge">
<title>Node1&#45;&gt;Node2</title>
<path fill="none" stroke="#191970" d="M31.41,-604.7973C54.9864,-628.1183 112.6756,-685.1827 141.9074,-714.0979"/>
<polygon fill="#191970" stroke="#191970" points="139.7747,-716.9114 149.3456,-721.4556 144.6975,-711.9348 139.7747,-716.9114"/>
</g>
<!-- Node5 -->
<g id="node5" class="node">
<title>Node5</title>
<g id="a_node5"><a xlink:href="../../d1/d45/omg0_8f.html#a8172eb0cfd4e2c4371654a02192d8958" target="_top" xlink:title="omg0">
<polygon fill="none" stroke="#000000" points="137,-584.5 137,-604.5 182,-604.5 182,-584.5 137,-584.5"/>
<text text-anchor="middle" x="159.5" y="-591.5" font-family="FreeSans" font-size="10.00" fill="#000000">omg0</text>
</a>
</g>
</g>
<!-- Node1&#45;&gt;Node5 -->
<g id="edge4" class="edge">
<title>Node1&#45;&gt;Node5</title>
<path fill="none" stroke="#191970" d="M42.0352,-594.5C64.5156,-594.5 100.4536,-594.5 126.6645,-594.5"/>
<polygon fill="#191970" stroke="#191970" points="126.8838,-598.0001 136.8838,-594.5 126.8837,-591.0001 126.8838,-598.0001"/>
</g>
<!-- Node20 -->
<g id="node20" class="node">
<title>Node20</title>
<g id="a_node20"><a xlink:href="../../d3/df2/classgenfit_1_1GFRavePropagator.html#a0534e516b69488120356d8bfa53f6f5b" target="_top" xlink:title="genfit::GFRavePropagator::to">
<polygon fill="none" stroke="#000000" points="78,-390.5 78,-410.5 241,-410.5 241,-390.5 78,-390.5"/>
<text text-anchor="middle" x="159.5" y="-397.5" font-family="FreeSans" font-size="10.00" fill="#000000">genfit::GFRavePropagator::to</text>
</a>
</g>
</g>
<!-- Node1&#45;&gt;Node20 -->
<g id="edge22" class="edge">
<title>Node1&#45;&gt;Node20</title>
<path fill="none" stroke="#191970" d="M28.2514,-584.3429C50.4552,-553.2415 117.7368,-458.9986 146.3719,-418.8888"/>
<polygon fill="#191970" stroke="#191970" points="149.3586,-420.729 152.3204,-410.5566 143.6614,-416.6617 149.3586,-420.729"/>
</g>
<!-- Node3 -->
<g id="node3" class="node">
<title>Node3</title>
<g id="a_node3"><a xlink:href="../../de/de0/matchedfilter_8C.html#a3f4d763c3fdd217c038a53ba4ca5b98a" target="_top" xlink:title="meanw">
<polygon fill="none" stroke="#000000" points="325.5,-760.5 325.5,-780.5 378.5,-780.5 378.5,-760.5 325.5,-760.5"/>
<text text-anchor="middle" x="352" y="-767.5" font-family="FreeSans" font-size="10.00" fill="#000000">meanw</text>
</a>
</g>
</g>
<!-- Node2&#45;&gt;Node3 -->
<g id="edge2" class="edge">
<title>Node2&#45;&gt;Node3</title>
<path fill="none" stroke="#191970" d="M174.2855,-734.4955C204.2162,-740.5594 272.7528,-754.4447 315.4302,-763.091"/>
<polygon fill="#191970" stroke="#191970" points="314.9273,-766.5602 325.4232,-765.1156 316.3173,-759.6996 314.9273,-766.5602"/>
</g>
<!-- Node4 -->
<g id="node4" class="node">
<title>Node4</title>
<g id="a_node4"><a xlink:href="../../de/de0/matchedfilter_8C.html#ac662fab4d6569f9ab320da1b95bcd663" target="_top" xlink:title="round">
<polygon fill="none" stroke="#000000" points="329.5,-721.5 329.5,-741.5 374.5,-741.5 374.5,-721.5 329.5,-721.5"/>
<text text-anchor="middle" x="352" y="-728.5" font-family="FreeSans" font-size="10.00" fill="#000000">round</text>
</a>
</g>
</g>
<!-- Node2&#45;&gt;Node4 -->
<g id="edge3" class="edge">
<title>Node2&#45;&gt;Node4</title>
<path fill="none" stroke="#191970" d="M174.2855,-731.5C205.1269,-731.5 276.9591,-731.5 319.252,-731.5"/>
<polygon fill="#191970" stroke="#191970" points="319.3251,-735.0001 329.3251,-731.5 319.325,-728.0001 319.3251,-735.0001"/>
</g>
<!-- Node6 -->
<g id="node6" class="node">
<title>Node6</title>
<g id="a_node6"><a xlink:href="../../d7/dd8/bk_8f.html#a084aa72b16f800aa352c4efed50eb2af" target="_top" xlink:title="bk">
<polygon fill="none" stroke="#000000" points="337.5,-682.5 337.5,-702.5 366.5,-702.5 366.5,-682.5 337.5,-682.5"/>
<text text-anchor="middle" x="352" y="-689.5" font-family="FreeSans" font-size="10.00" fill="#000000">bk</text>
</a>
</g>
</g>
<!-- Node5&#45;&gt;Node6 -->
<g id="edge5" class="edge">
<title>Node5&#45;&gt;Node6</title>
<path fill="none" stroke="#191970" d="M171.3593,-604.5385C191.6785,-621.2425 235.0283,-654.7558 277,-673.5 293.0868,-680.6843 312.3776,-685.4944 327.3662,-688.4773"/>
<polygon fill="#191970" stroke="#191970" points="326.9429,-691.9583 337.4125,-690.3342 328.2152,-685.0748 326.9429,-691.9583"/>
</g>
<!-- Node7 -->
<g id="node7" class="node">
<title>Node7</title>
<g id="a_node7"><a xlink:href="../../da/d8b/gauss2_8f.html#adeae9391a0234825154a4a00bbc9404f" target="_top" xlink:title="gauss2">
<polygon fill="none" stroke="#000000" points="326,-643.5 326,-663.5 378,-663.5 378,-643.5 326,-643.5"/>
<text text-anchor="middle" x="352" y="-650.5" font-family="FreeSans" font-size="10.00" fill="#000000">gauss2</text>
</a>
</g>
</g>
<!-- Node5&#45;&gt;Node7 -->
<g id="edge6" class="edge">
<title>Node5&#45;&gt;Node7</title>
<path fill="none" stroke="#191970" d="M182.2913,-602.8643C205.8381,-611.3625 243.7363,-624.6419 277,-634.5 289.5767,-638.2273 303.472,-641.8757 315.8499,-644.9631"/>
<polygon fill="#191970" stroke="#191970" points="315.2818,-648.4275 325.8281,-647.4139 316.9516,-641.6296 315.2818,-648.4275"/>
</g>
<!-- Node10 -->
<g id="node10" class="node">
<title>Node10</title>
<g id="a_node10"><a xlink:href="../../db/da1/classHiParnt.html#ac653b598baeeca89d06693fdf4688f38" target="_top" xlink:title="HiParnt::hint1">
<polygon fill="none" stroke="#000000" points="309.5,-565.5 309.5,-585.5 394.5,-585.5 394.5,-565.5 309.5,-565.5"/>
<text text-anchor="middle" x="352" y="-572.5" font-family="FreeSans" font-size="10.00" fill="#000000">HiParnt::hint1</text>
</a>
</g>
</g>
<!-- Node5&#45;&gt;Node10 -->
<g id="edge9" class="edge">
<title>Node5&#45;&gt;Node10</title>
<path fill="none" stroke="#191970" d="M182.3382,-592.2458C210.9535,-589.4215 260.8825,-584.4934 299.192,-580.7122"/>
<polygon fill="#191970" stroke="#191970" points="299.5525,-584.1937 309.1603,-579.7283 298.8649,-577.2276 299.5525,-584.1937"/>
</g>
<!-- Node14 -->
<g id="node14" class="node">
<title>Node14</title>
<g id="a_node14"><a xlink:href="../../db/da1/classHiParnt.html#a28a5a24ec376a6790e610d7fcc0f5b8e" target="_top" xlink:title="HiParnt::hipr1">
<polygon fill="none" stroke="#000000" points="309.5,-604.5 309.5,-624.5 394.5,-624.5 394.5,-604.5 309.5,-604.5"/>
<text text-anchor="middle" x="352" y="-611.5" font-family="FreeSans" font-size="10.00" fill="#000000">HiParnt::hipr1</text>
</a>
</g>
</g>
<!-- Node5&#45;&gt;Node14 -->
<g id="edge13" class="edge">
<title>Node5&#45;&gt;Node14</title>
<path fill="none" stroke="#191970" d="M182.3382,-596.8728C210.9535,-599.8458 260.8825,-605.0333 299.192,-609.0135"/>
<polygon fill="#191970" stroke="#191970" points="298.8522,-612.4969 309.1603,-610.0491 299.5756,-605.5344 298.8522,-612.4969"/>
</g>
<!-- Node16 -->
<g id="node16" class="node">
<title>Node16</title>
<g id="a_node16"><a xlink:href="../../db/da1/classHiParnt.html#a0d759f134daae3226a7744c9920bd769" target="_top" xlink:title="HiParnt::ihnt2">
<polygon fill="none" stroke="#000000" points="309.5,-526.5 309.5,-546.5 394.5,-546.5 394.5,-526.5 309.5,-526.5"/>
<text text-anchor="middle" x="352" y="-533.5" font-family="FreeSans" font-size="10.00" fill="#000000">HiParnt::ihnt2</text>
</a>
</g>
</g>
<!-- Node5&#45;&gt;Node16 -->
<g id="edge16" class="edge">
<title>Node5&#45;&gt;Node16</title>
<path fill="none" stroke="#191970" d="M182.3553,-586.7175C205.9531,-578.7744 243.8912,-566.261 277,-556.5 285.2685,-554.0623 294.0877,-551.5941 302.6661,-549.2628"/>
<polygon fill="#191970" stroke="#191970" points="303.8293,-552.5745 312.5783,-546.599 302.0126,-545.8143 303.8293,-552.5745"/>
</g>
<!-- Node18 -->
<g id="node18" class="node">
<title>Node18</title>
<g id="a_node18"><a xlink:href="../../db/da1/classHiParnt.html#a1c6a5924524a08fe9641adc64095c0b9" target="_top" xlink:title="HiParnt::ihpr2">
<polygon fill="none" stroke="#000000" points="309.5,-487.5 309.5,-507.5 394.5,-507.5 394.5,-487.5 309.5,-487.5"/>
<text text-anchor="middle" x="352" y="-494.5" font-family="FreeSans" font-size="10.00" fill="#000000">HiParnt::ihpr2</text>
</a>
</g>
</g>
<!-- Node5&#45;&gt;Node18 -->
<g id="edge19" class="edge">
<title>Node5&#45;&gt;Node18</title>
<path fill="none" stroke="#191970" d="M172.0954,-584.2658C192.7889,-567.9252 235.8078,-535.9128 277,-517.5 284.0933,-514.3293 291.7958,-511.5724 299.4732,-509.2036"/>
<polygon fill="#191970" stroke="#191970" points="300.503,-512.5493 309.1369,-506.4089 298.5582,-505.8249 300.503,-512.5493"/>
</g>
<!-- Node8 -->
<g id="node8" class="node">
<title>Node8</title>
<g id="a_node8"><a xlink:href="../../d1/d5e/classsHelix.html#a6475358b49bdd57d441b23ab9b11182f" target="_top" xlink:title="sHelix::u">
<polygon fill="none" stroke="#000000" points="518,-643.5 518,-663.5 578,-663.5 578,-643.5 518,-643.5"/>
<text text-anchor="middle" x="548" y="-650.5" font-family="FreeSans" font-size="10.00" fill="#000000">sHelix::u</text>
</a>
</g>
</g>
<!-- Node7&#45;&gt;Node8 -->
<g id="edge7" class="edge">
<title>Node7&#45;&gt;Node8</title>
<path fill="none" stroke="#191970" d="M378.0273,-653.5C411.056,-653.5 468.3931,-653.5 507.2455,-653.5"/>
<polygon fill="#191970" stroke="#191970" points="507.6781,-657.0001 517.6781,-653.5 507.6781,-650.0001 507.6781,-657.0001"/>
</g>
<!-- Node9 -->
<g id="node9" class="node">
<title>Node9</title>
<g id="a_node9"><a xlink:href="../../d1/d5e/classsHelix.html#a44ff83bf3956f25a18308cc3c7fc1873" target="_top" xlink:title="sHelix::w">
<polygon fill="none" stroke="#000000" points="517,-682.5 517,-702.5 579,-702.5 579,-682.5 517,-682.5"/>
<text text-anchor="middle" x="548" y="-689.5" font-family="FreeSans" font-size="10.00" fill="#000000">sHelix::w</text>
</a>
</g>
</g>
<!-- Node7&#45;&gt;Node9 -->
<g id="edge8" class="edge">
<title>Node7&#45;&gt;Node9</title>
<path fill="none" stroke="#191970" d="M378.0273,-658.6789C410.9104,-665.222 467.888,-676.5593 506.7305,-684.2882"/>
<polygon fill="#191970" stroke="#191970" points="506.1882,-687.7488 516.679,-686.2678 507.5543,-680.8834 506.1882,-687.7488"/>
</g>
<!-- Node11 -->
<g id="node11" class="node">
<title>Node11</title>
<g id="a_node11"><a xlink:href="../../db/da1/classHiParnt.html#aec7bbf54e836c6b58a40be4e79292972" target="_top" xlink:title="HiParnt::init">
<polygon fill="none" stroke="#000000" points="510,-526.5 510,-546.5 586,-546.5 586,-526.5 510,-526.5"/>
<text text-anchor="middle" x="548" y="-533.5" font-family="FreeSans" font-size="10.00" fill="#000000">HiParnt::init</text>
</a>
</g>
</g>
<!-- Node10&#45;&gt;Node11 -->
<g id="edge10" class="edge">
<title>Node10&#45;&gt;Node11</title>
<path fill="none" stroke="#191970" d="M394.5291,-567.0376C425.515,-560.872 467.5328,-552.5113 499.7695,-546.0969"/>
<polygon fill="#191970" stroke="#191970" points="500.7412,-549.4722 509.8659,-544.0879 499.3751,-542.6068 500.7412,-549.4722"/>
</g>
<!-- Node13 -->
<g id="node13" class="node">
<title>Node13</title>
<g id="a_node13"><a xlink:href="../../db/da1/classHiParnt.html#a1074072a5774a085cecf879899a44ab3" target="_top" xlink:title="HiParnt::lenHint1">
<polygon fill="none" stroke="#000000" points="497,-565.5 497,-585.5 599,-585.5 599,-565.5 497,-565.5"/>
<text text-anchor="middle" x="548" y="-572.5" font-family="FreeSans" font-size="10.00" fill="#000000">HiParnt::lenHint1</text>
</a>
</g>
</g>
<!-- Node10&#45;&gt;Node13 -->
<g id="edge12" class="edge">
<title>Node10&#45;&gt;Node13</title>
<path fill="none" stroke="#191970" d="M394.5291,-575.5C421.4196,-575.5 456.6186,-575.5 486.5228,-575.5"/>
<polygon fill="#191970" stroke="#191970" points="486.8573,-579.0001 496.8572,-575.5 486.8572,-572.0001 486.8573,-579.0001"/>
</g>
<!-- Node12 -->
<g id="node12" class="node">
<title>Node12</title>
<g id="a_node12"><a xlink:href="../../d4/d0f/HiParnt_8h.html#ae387711cf1ed2f3d5908e93a113f27e7" target="_top" xlink:title="hiparnt_address_">
<polygon fill="none" stroke="#000000" points="692.5,-526.5 692.5,-546.5 795.5,-546.5 795.5,-526.5 692.5,-526.5"/>
<text text-anchor="middle" x="744" y="-533.5" font-family="FreeSans" font-size="10.00" fill="#000000">hiparnt_address_</text>
</a>
</g>
</g>
<!-- Node11&#45;&gt;Node12 -->
<g id="edge11" class="edge">
<title>Node11&#45;&gt;Node12</title>
<path fill="none" stroke="#191970" d="M586.2561,-536.5C613.5991,-536.5 650.9762,-536.5 682.4839,-536.5"/>
<polygon fill="#191970" stroke="#191970" points="682.4873,-540.0001 692.4873,-536.5 682.4873,-533.0001 682.4873,-540.0001"/>
</g>
<!-- Node14&#45;&gt;Node11 -->
<g id="edge14" class="edge">
<title>Node14&#45;&gt;Node11</title>
<path fill="none" stroke="#191970" d="M394.5521,-608.2076C405.6237,-605.3941 417.1882,-601.3382 427,-595.5 447.2719,-583.4379 442.6261,-568.3891 463,-556.5 474.1582,-549.9887 487.3067,-545.5961 499.8839,-542.6333"/>
<polygon fill="#191970" stroke="#191970" points="500.7323,-546.0316 509.7992,-540.5505 499.2933,-539.1811 500.7323,-546.0316"/>
</g>
<!-- Node15 -->
<g id="node15" class="node">
<title>Node15</title>
<g id="a_node15"><a xlink:href="../../db/da1/classHiParnt.html#a976a341872dd6ef684a319c5e262be46" target="_top" xlink:title="HiParnt::lenHipr1">
<polygon fill="none" stroke="#000000" points="497,-604.5 497,-624.5 599,-624.5 599,-604.5 497,-604.5"/>
<text text-anchor="middle" x="548" y="-611.5" font-family="FreeSans" font-size="10.00" fill="#000000">HiParnt::lenHipr1</text>
</a>
</g>
</g>
<!-- Node14&#45;&gt;Node15 -->
<g id="edge15" class="edge">
<title>Node14&#45;&gt;Node15</title>
<path fill="none" stroke="#191970" d="M394.5291,-614.5C421.4196,-614.5 456.6186,-614.5 486.5228,-614.5"/>
<polygon fill="#191970" stroke="#191970" points="486.8573,-618.0001 496.8572,-614.5 486.8572,-611.0001 486.8573,-618.0001"/>
</g>
<!-- Node16&#45;&gt;Node11 -->
<g id="edge17" class="edge">
<title>Node16&#45;&gt;Node11</title>
<path fill="none" stroke="#191970" d="M394.5291,-536.5C425.515,-536.5 467.5328,-536.5 499.7695,-536.5"/>
<polygon fill="#191970" stroke="#191970" points="499.8659,-540.0001 509.8659,-536.5 499.8659,-533.0001 499.8659,-540.0001"/>
</g>
<!-- Node17 -->
<g id="node17" class="node">
<title>Node17</title>
<g id="a_node17"><a xlink:href="../../db/da1/classHiParnt.html#a2583f210ac7e15c429d879a65e9626b2" target="_top" xlink:title="HiParnt::lenIhnt2">
<polygon fill="none" stroke="#000000" points="497.5,-487.5 497.5,-507.5 598.5,-507.5 598.5,-487.5 497.5,-487.5"/>
<text text-anchor="middle" x="548" y="-494.5" font-family="FreeSans" font-size="10.00" fill="#000000">HiParnt::lenIhnt2</text>
</a>
</g>
</g>
<!-- Node16&#45;&gt;Node17 -->
<g id="edge18" class="edge">
<title>Node16&#45;&gt;Node17</title>
<path fill="none" stroke="#191970" d="M394.5291,-528.0376C421.7394,-522.6233 457.4568,-515.5163 487.5873,-509.5209"/>
<polygon fill="#191970" stroke="#191970" points="488.4462,-512.9187 497.5709,-507.5344 487.0801,-506.0533 488.4462,-512.9187"/>
</g>
<!-- Node18&#45;&gt;Node11 -->
<g id="edge20" class="edge">
<title>Node18&#45;&gt;Node11</title>
<path fill="none" stroke="#191970" d="M394.5291,-505.9624C425.515,-512.128 467.5328,-520.4887 499.7695,-526.9031"/>
<polygon fill="#191970" stroke="#191970" points="499.3751,-530.3932 509.8659,-528.9121 500.7412,-523.5278 499.3751,-530.3932"/>
</g>
<!-- Node19 -->
<g id="node19" class="node">
<title>Node19</title>
<g id="a_node19"><a xlink:href="../../db/da1/classHiParnt.html#aa2f216c88e3e9ec0634df4755e281c85" target="_top" xlink:title="HiParnt::lenIhpr2">
<polygon fill="none" stroke="#000000" points="497.5,-448.5 497.5,-468.5 598.5,-468.5 598.5,-448.5 497.5,-448.5"/>
<text text-anchor="middle" x="548" y="-455.5" font-family="FreeSans" font-size="10.00" fill="#000000">HiParnt::lenIhpr2</text>
</a>
</g>
</g>
<!-- Node18&#45;&gt;Node19 -->
<g id="edge21" class="edge">
<title>Node18&#45;&gt;Node19</title>
<path fill="none" stroke="#191970" d="M394.5291,-489.0376C421.7394,-483.6233 457.4568,-476.5163 487.5873,-470.5209"/>
<polygon fill="#191970" stroke="#191970" points="488.4462,-473.9187 497.5709,-468.5344 487.0801,-467.0533 488.4462,-473.9187"/>
</g>
<!-- Node21 -->
<g id="node21" class="node">
<title>Node21</title>
<g id="a_node21"><a xlink:href="../../dc/d22/namespacegenfit.html#aec5c8cb927a354edfb23af80108b69d4" target="_top" xlink:title="genfit::PlaneToGFDetPlane">
<polygon fill="none" stroke="#000000" points="277,-390.5 277,-410.5 427,-410.5 427,-390.5 277,-390.5"/>
<text text-anchor="middle" x="352" y="-397.5" font-family="FreeSans" font-size="10.00" fill="#000000">genfit::PlaneToGFDetPlane</text>
</a>
</g>
</g>
<!-- Node20&#45;&gt;Node21 -->
<g id="edge23" class="edge">
<title>Node20&#45;&gt;Node21</title>
<path fill="none" stroke="#191970" d="M241.1373,-400.5C249.681,-400.5 258.3819,-400.5 266.9623,-400.5"/>
<polygon fill="#191970" stroke="#191970" points="266.963,-404.0001 276.9629,-400.5 266.9629,-397.0001 266.963,-404.0001"/>
</g>
<!-- Node24 -->
<g id="node24" class="node">
<title>Node24</title>
<g id="a_node24"><a xlink:href="../../dc/d22/namespacegenfit.html#a16248965fc33843bb4f2d9bd8b0a7ce7" target="_top" xlink:title="genfit::GFTrackToTrack">
<polygon fill="none" stroke="#000000" points="287,-210.5 287,-230.5 417,-230.5 417,-210.5 287,-210.5"/>
<text text-anchor="middle" x="352" y="-217.5" font-family="FreeSans" font-size="10.00" fill="#000000">genfit::GFTrackToTrack</text>
</a>
</g>
</g>
<!-- Node20&#45;&gt;Node24 -->
<g id="edge26" class="edge">
<title>Node20&#45;&gt;Node24</title>
<path fill="none" stroke="#191970" d="M170.4012,-390.3067C202.0333,-360.7286 294.0972,-274.6428 333.6223,-237.6844"/>
<polygon fill="#191970" stroke="#191970" points="336.3046,-239.968 341.2184,-230.5815 331.5236,-234.855 336.3046,-239.968"/>
</g>
<!-- Node22 -->
<g id="node22" class="node">
<title>Node22</title>
<g id="a_node22"><a xlink:href="../../dc/d22/namespacegenfit.html#ad8550f9eaa6237f8ddf48aefd57dfe58" target="_top" xlink:title="genfit::Point3DToTVector3">
<polygon fill="none" stroke="#000000" points="474.5,-409.5 474.5,-429.5 621.5,-429.5 621.5,-409.5 474.5,-409.5"/>
<text text-anchor="middle" x="548" y="-416.5" font-family="FreeSans" font-size="10.00" fill="#000000">genfit::Point3DToTVector3</text>
</a>
</g>
</g>
<!-- Node21&#45;&gt;Node22 -->
<g id="edge24" class="edge">
<title>Node21&#45;&gt;Node22</title>
<path fill="none" stroke="#191970" d="M427.2182,-407.7916C439.2788,-408.9607 451.8267,-410.1771 464.0751,-411.3644"/>
<polygon fill="#191970" stroke="#191970" points="463.985,-414.872 474.2761,-412.3533 464.6604,-407.9047 463.985,-414.872"/>
</g>
<!-- Node23 -->
<g id="node23" class="node">
<title>Node23</title>
<g id="a_node23"><a xlink:href="../../dc/d22/namespacegenfit.html#ad3ecb92a152c9ea7f5290e3653910473" target="_top" xlink:title="genfit::Vector3DToTVector3">
<polygon fill="none" stroke="#000000" points="471,-370.5 471,-390.5 625,-390.5 625,-370.5 471,-370.5"/>
<text text-anchor="middle" x="548" y="-377.5" font-family="FreeSans" font-size="10.00" fill="#000000">genfit::Vector3DToTVector3</text>
</a>
</g>
</g>
<!-- Node21&#45;&gt;Node23 -->
<g id="edge25" class="edge">
<title>Node21&#45;&gt;Node23</title>
<path fill="none" stroke="#191970" d="M427.2182,-392.8247C438.1284,-391.7114 449.4374,-390.5574 460.5627,-389.4222"/>
<polygon fill="#191970" stroke="#191970" points="461.1185,-392.8837 470.7115,-388.3866 460.4078,-385.9199 461.1185,-392.8837"/>
</g>
<!-- Node25 -->
<g id="node25" class="node">
<title>Node25</title>
<g id="a_node25"><a xlink:href="../../d6/d8a/classgenfit_1_1Track.html#ad06e7a012624bdb03960826b5c9fcd93" target="_top" xlink:title="Get FitStatus for a AbsTrackRep. Per default, return FitStatus for cardinalRep.">
<polygon fill="none" stroke="#000000" points="671,-364.5 671,-384.5 817,-384.5 817,-364.5 671,-364.5"/>
<text text-anchor="middle" x="744" y="-371.5" font-family="FreeSans" font-size="10.00" fill="#000000">genfit::Track::getFitStatus</text>
</a>
</g>
</g>
<!-- Node24&#45;&gt;Node25 -->
<g id="edge27" class="edge">
<title>Node24&#45;&gt;Node25</title>
<path fill="none" stroke="#191970" d="M359.6196,-230.5862C376.0061,-251.4819 416.872,-299.4689 463,-322.5 496.9515,-339.4515 590.6671,-354.7121 660.5974,-364.2496"/>
<polygon fill="#191970" stroke="#191970" points="660.3547,-367.7484 670.7324,-365.6147 661.2892,-360.8111 660.3547,-367.7484"/>
</g>
<!-- Node27 -->
<g id="node27" class="node">
<title>Node27</title>
<g id="a_node27"><a xlink:href="../../d0/d8d/classgenfit_1_1FitStatus.html#a56371ce504bee72fcf2f9324ddcb91a8" target="_top" xlink:title="Did the fit converge (in all Points or only partially)?">
<polygon fill="none" stroke="#000000" points="497,-280.5 497,-312.5 599,-312.5 599,-280.5 497,-280.5"/>
<text text-anchor="start" x="505" y="-299.5" font-family="FreeSans" font-size="10.00" fill="#000000">genfit::FitStatus::</text>
<text text-anchor="middle" x="548" y="-287.5" font-family="FreeSans" font-size="10.00" fill="#000000">isFitConverged</text>
</a>
</g>
</g>
<!-- Node24&#45;&gt;Node27 -->
<g id="edge29" class="edge">
<title>Node24&#45;&gt;Node27</title>
<path fill="none" stroke="#191970" d="M371.6838,-230.5987C393.5913,-241.5878 430.2306,-259.2264 463,-271.5 470.7651,-274.4084 479.0288,-277.2004 487.237,-279.7961"/>
<polygon fill="#191970" stroke="#191970" points="486.2266,-283.1471 496.8139,-282.7484 488.2887,-276.4578 486.2266,-283.1471"/>
</g>
<!-- Node28 -->
<g id="node28" class="node">
<title>Node28</title>
<g id="a_node28"><a xlink:href="../../d6/d8a/classgenfit_1_1Track.html#abf156957d701a9a10a02fef8ac54e4d9" target="_top" xlink:title="Shortcut to get FittedStates.">
<polygon fill="none" stroke="#000000" points="483,-229.5 483,-261.5 613,-261.5 613,-229.5 483,-229.5"/>
<text text-anchor="start" x="491" y="-248.5" font-family="FreeSans" font-size="10.00" fill="#000000">genfit::Track::getFitted</text>
<text text-anchor="middle" x="548" y="-236.5" font-family="FreeSans" font-size="10.00" fill="#000000">State</text>
</a>
</g>
</g>
<!-- Node24&#45;&gt;Node28 -->
<g id="edge30" class="edge">
<title>Node24&#45;&gt;Node28</title>
<path fill="none" stroke="#191970" d="M417.2652,-228.8246C435.0237,-231.0898 454.4024,-233.5615 472.6693,-235.8915"/>
<polygon fill="#191970" stroke="#191970" points="472.3234,-239.3756 482.6859,-237.1691 473.2091,-232.4319 472.3234,-239.3756"/>
</g>
<!-- Node33 -->
<g id="node33" class="node">
<title>Node33</title>
<g id="a_node33"><a xlink:href="../../d2/d74/classgenfit_1_1MeasuredStateOnPlane.html#a3aab44a6c7155b8258fa34469bc45bc0" target="_top" xlink:title="genfit::MeasuredStateOnPlane\l::getPosMomCov">
<polygon fill="none" stroke="#000000" points="463,-25.5 463,-57.5 633,-57.5 633,-25.5 463,-25.5"/>
<text text-anchor="start" x="471" y="-44.5" font-family="FreeSans" font-size="10.00" fill="#000000">genfit::MeasuredStateOnPlane</text>
<text text-anchor="middle" x="548" y="-32.5" font-family="FreeSans" font-size="10.00" fill="#000000">::getPosMomCov</text>
</a>
</g>
</g>
<!-- Node24&#45;&gt;Node33 -->
<g id="edge38" class="edge">
<title>Node24&#45;&gt;Node33</title>
<path fill="none" stroke="#191970" d="M356.3432,-210.4663C368.7433,-183.02 407.0549,-106.1159 463,-66.5 465.087,-65.0222 467.2614,-63.6308 469.5031,-62.321"/>
<polygon fill="#191970" stroke="#191970" points="471.1904,-65.3885 478.4402,-57.6624 467.9548,-59.1811 471.1904,-65.3885"/>
</g>
<!-- Node36 -->
<g id="node36" class="node">
<title>Node36</title>
<g id="a_node36"><a xlink:href="../../d0/d8d/classgenfit_1_1FitStatus.html#a7e8ed1d97eec3e3164dc2dd782f5cb85" target="_top" xlink:title="Get the fitted charge.">
<polygon fill="none" stroke="#000000" points="497,-178.5 497,-210.5 599,-210.5 599,-178.5 497,-178.5"/>
<text text-anchor="start" x="505" y="-197.5" font-family="FreeSans" font-size="10.00" fill="#000000">genfit::FitStatus::</text>
<text text-anchor="middle" x="548" y="-185.5" font-family="FreeSans" font-size="10.00" fill="#000000">getCharge</text>
</a>
</g>
</g>
<!-- Node24&#45;&gt;Node36 -->
<g id="edge41" class="edge">
<title>Node24&#45;&gt;Node36</title>
<path fill="none" stroke="#191970" d="M417.2652,-211.8424C439.766,-208.8576 464.8681,-205.5277 487.0139,-202.59"/>
<polygon fill="#191970" stroke="#191970" points="487.5082,-206.0552 496.9611,-201.2705 486.5876,-199.116 487.5082,-206.0552"/>
</g>
<!-- Node37 -->
<g id="node37" class="node">
<title>Node37</title>
<g id="a_node37"><a xlink:href="../../d0/d8d/classgenfit_1_1FitStatus.html#abbeeda61574c284f1d762088b3644770" target="_top" xlink:title="Get chi^2 of the fit.">
<polygon fill="none" stroke="#000000" points="497,-127.5 497,-159.5 599,-159.5 599,-127.5 497,-127.5"/>
<text text-anchor="start" x="505" y="-146.5" font-family="FreeSans" font-size="10.00" fill="#000000">genfit::FitStatus::</text>
<text text-anchor="middle" x="548" y="-134.5" font-family="FreeSans" font-size="10.00" fill="#000000">getChi2</text>
</a>
</g>
</g>
<!-- Node24&#45;&gt;Node37 -->
<g id="edge42" class="edge">
<title>Node24&#45;&gt;Node37</title>
<path fill="none" stroke="#191970" d="M371.7091,-210.4683C393.6388,-199.5378 430.2973,-181.9503 463,-169.5 470.7744,-166.5402 479.0436,-163.6741 487.2545,-160.9934"/>
<polygon fill="#191970" stroke="#191970" points="488.3704,-164.3112 496.8334,-157.9371 486.2427,-157.6424 488.3704,-164.3112"/>
</g>
<!-- Node38 -->
<g id="node38" class="node">
<title>Node38</title>
<g id="a_node38"><a xlink:href="../../d0/d8d/classgenfit_1_1FitStatus.html#aa73b3566657ea37bf8ab5102d465025d" target="_top" xlink:title="Get the degrees of freedom of the fit.">
<polygon fill="none" stroke="#000000" points="497,-76.5 497,-108.5 599,-108.5 599,-76.5 497,-76.5"/>
<text text-anchor="start" x="505" y="-95.5" font-family="FreeSans" font-size="10.00" fill="#000000">genfit::FitStatus::</text>
<text text-anchor="middle" x="548" y="-83.5" font-family="FreeSans" font-size="10.00" fill="#000000">getNdf</text>
</a>
</g>
</g>
<!-- Node24&#45;&gt;Node38 -->
<g id="edge43" class="edge">
<title>Node24&#45;&gt;Node38</title>
<path fill="none" stroke="#191970" d="M360.3598,-210.2053C377.4898,-189.7668 418.7114,-143.8584 463,-118.5 470.4116,-114.2563 478.5913,-110.6323 486.8605,-107.5584"/>
<polygon fill="#191970" stroke="#191970" points="488.2631,-110.7768 496.5683,-104.1985 485.9736,-104.1618 488.2631,-110.7768"/>
</g>
<!-- Node26 -->
<g id="node26" class="node">
<title>Node26</title>
<g id="a_node26"><a xlink:href="../../d6/d8a/classgenfit_1_1Track.html#a402b35300e81a48c7f0b9eb082b1cf24" target="_top" xlink:title="Get cardinal track representation.">
<polygon fill="none" stroke="#000000" points="855,-220.5 855,-240.5 1018,-240.5 1018,-220.5 855,-220.5"/>
<text text-anchor="middle" x="936.5" y="-227.5" font-family="FreeSans" font-size="10.00" fill="#000000">genfit::Track::getCardinalRep</text>
</a>
</g>
</g>
<!-- Node25&#45;&gt;Node26 -->
<g id="edge28" class="edge">
<title>Node25&#45;&gt;Node26</title>
<path fill="none" stroke="#191970" d="M799.1153,-364.4206C806.0566,-362.0436 812.8656,-359.1125 819,-355.5 865.5768,-328.0711 905.1671,-276.7106 924.2685,-249.1349"/>
<polygon fill="#191970" stroke="#191970" points="927.2287,-251.0056 929.9413,-240.7639 921.434,-247.0786 927.2287,-251.0056"/>
</g>
<!-- Node28&#45;&gt;Node26 -->
<g id="edge31" class="edge">
<title>Node28&#45;&gt;Node26</title>
<path fill="none" stroke="#191970" d="M607.4443,-229.4856C616.1015,-226.7302 624.8411,-223.7102 633,-220.5 649.6464,-213.9504 651.59,-206.6099 669,-202.5 747.5569,-183.9552 841.989,-203.2208 895.0403,-217.6904"/>
<polygon fill="#191970" stroke="#191970" points="894.1931,-221.0878 904.7667,-220.4169 896.0826,-214.3476 894.1931,-221.0878"/>
</g>
<!-- Node29 -->
<g id="node29" class="node">
<title>Node29</title>
<g id="a_node29"><a xlink:href="../../d6/d8a/classgenfit_1_1Track.html#ad8961b1ff4809ccde5f6f100ffbccb9d" target="_top" xlink:title="genfit::Track::getPointWith\lFitterInfo">
<polygon fill="none" stroke="#000000" points="669,-121.5 669,-153.5 819,-153.5 819,-121.5 669,-121.5"/>
<text text-anchor="start" x="677" y="-140.5" font-family="FreeSans" font-size="10.00" fill="#000000">genfit::Track::getPointWith</text>
<text text-anchor="middle" x="744" y="-128.5" font-family="FreeSans" font-size="10.00" fill="#000000">FitterInfo</text>
</a>
</g>
</g>
<!-- Node28&#45;&gt;Node29 -->
<g id="edge32" class="edge">
<title>Node28&#45;&gt;Node29</title>
<path fill="none" stroke="#191970" d="M613.303,-231.3704C620.2864,-228.4052 627.0152,-224.8239 633,-220.5 655.7848,-204.0386 647.1184,-186.1442 669,-168.5 673.8224,-164.6115 679.2007,-161.1442 684.8017,-158.0682"/>
<polygon fill="#191970" stroke="#191970" points="686.392,-161.1861 693.7387,-153.5522 683.235,-154.9384 686.392,-161.1861"/>
</g>
<!-- Node30 -->
<g id="node30" class="node">
<title>Node30</title>
<g id="a_node30"><a xlink:href="../../d8/db3/classgenfit_1_1Exception.html#a13619975a1e1be5c1bd504b254e01f7a" target="_top" xlink:title="Set fatal flag.">
<polygon fill="none" stroke="#000000" points="690,-211.5 690,-243.5 798,-243.5 798,-211.5 690,-211.5"/>
<text text-anchor="start" x="698" y="-230.5" font-family="FreeSans" font-size="10.00" fill="#000000">genfit::Exception::</text>
<text text-anchor="middle" x="744" y="-218.5" font-family="FreeSans" font-size="10.00" fill="#000000">setFatal</text>
</a>
</g>
</g>
<!-- Node28&#45;&gt;Node30 -->
<g id="edge34" class="edge">
<title>Node28&#45;&gt;Node30</title>
<path fill="none" stroke="#191970" d="M613.2652,-239.5063C634.6063,-237.5464 658.2874,-235.3716 679.5669,-233.4173"/>
<polygon fill="#191970" stroke="#191970" points="680.1615,-236.8775 689.7995,-232.4776 679.5213,-229.9069 680.1615,-236.8775"/>
</g>
<!-- Node31 -->
<g id="node31" class="node">
<title>Node31</title>
<g id="a_node31"><a xlink:href="../../db/d40/classgenfit_1_1TrackPoint.html#ae8b3e743fb436dd6689e0dad4c35ffd9" target="_top" xlink:title="Get fitterInfo for rep. Per default, use cardinal rep.">
<polygon fill="none" stroke="#000000" points="692,-262.5 692,-294.5 796,-294.5 796,-262.5 692,-262.5"/>
<text text-anchor="start" x="700" y="-281.5" font-family="FreeSans" font-size="10.00" fill="#000000">genfit::TrackPoint</text>
<text text-anchor="middle" x="744" y="-269.5" font-family="FreeSans" font-size="10.00" fill="#000000">::getFitterInfo</text>
</a>
</g>
</g>
<!-- Node28&#45;&gt;Node31 -->
<g id="edge35" class="edge">
<title>Node28&#45;&gt;Node31</title>
<path fill="none" stroke="#191970" d="M613.2652,-256.4885C635.2802,-260.1951 659.7851,-264.321 681.5752,-267.9897"/>
<polygon fill="#191970" stroke="#191970" points="681.2606,-271.4859 691.7029,-269.6949 682.4228,-264.5831 681.2606,-271.4859"/>
</g>
<!-- Node32 -->
<g id="node32" class="node">
<title>Node32</title>
<g id="a_node32"><a xlink:href="../../d9/d8c/classgenfit_1_1AbsFitterInfo.html#a985d0203f46dfbd5dc253bb03b21d76f" target="_top" xlink:title="genfit::AbsFitterInfo\l::getFittedState">
<polygon fill="none" stroke="#000000" points="686,-313.5 686,-345.5 802,-345.5 802,-313.5 686,-313.5"/>
<text text-anchor="start" x="694" y="-332.5" font-family="FreeSans" font-size="10.00" fill="#000000">genfit::AbsFitterInfo</text>
<text text-anchor="middle" x="744" y="-320.5" font-family="FreeSans" font-size="10.00" fill="#000000">::getFittedState</text>
</a>
</g>
</g>
<!-- Node28&#45;&gt;Node32 -->
<g id="edge37" class="edge">
<title>Node28&#45;&gt;Node32</title>
<path fill="none" stroke="#191970" d="M611.974,-261.6451C619.2701,-264.4777 626.4356,-267.7467 633,-271.5 651.8426,-282.2735 650.293,-293.4927 669,-304.5 671.839,-306.1705 674.8049,-307.7475 677.849,-309.2339"/>
<polygon fill="#191970" stroke="#191970" points="676.6109,-312.5147 687.1666,-313.4239 679.4818,-306.1305 676.6109,-312.5147"/>
</g>
<!-- Node29&#45;&gt;Node26 -->
<g id="edge33" class="edge">
<title>Node29&#45;&gt;Node26</title>
<path fill="none" stroke="#191970" d="M784.7831,-153.5457C795.9675,-158.1654 808.0308,-163.3528 819,-168.5 850.5654,-183.3117 885.8243,-202.2503 909.4075,-215.2768"/>
<polygon fill="#191970" stroke="#191970" points="908.0084,-218.5032 918.4501,-220.2981 911.4067,-212.3834 908.0084,-218.5032"/>
</g>
<!-- Node31&#45;&gt;Node26 -->
<g id="edge36" class="edge">
<title>Node31&#45;&gt;Node26</title>
<path fill="none" stroke="#191970" d="M796.0933,-265.5105C824.1579,-258.5126 858.6173,-249.9201 886.3742,-242.9989"/>
<polygon fill="#191970" stroke="#191970" points="887.4169,-246.3462 896.273,-240.5306 885.7232,-239.5541 887.4169,-246.3462"/>
</g>
<!-- Node34 -->
<g id="node34" class="node">
<title>Node34</title>
<g id="a_node34"><a xlink:href="../../de/dd5/classgenfit_1_1StateOnPlane.html#a14f25e4575846dcb14bd91ddb2a534d2" target="_top" xlink:title="genfit::StateOnPlane\l::getRep">
<polygon fill="none" stroke="#000000" points="683.5,-51.5 683.5,-83.5 804.5,-83.5 804.5,-51.5 683.5,-51.5"/>
<text text-anchor="start" x="691.5" y="-70.5" font-family="FreeSans" font-size="10.00" fill="#000000">genfit::StateOnPlane</text>
<text text-anchor="middle" x="744" y="-58.5" font-family="FreeSans" font-size="10.00" fill="#000000">::getRep</text>
</a>
</g>
</g>
<!-- Node33&#45;&gt;Node34 -->
<g id="edge39" class="edge">
<title>Node33&#45;&gt;Node34</title>
<path fill="none" stroke="#191970" d="M633.1133,-52.7905C646.4823,-54.564 660.1769,-56.3806 673.1785,-58.1053"/>
<polygon fill="#191970" stroke="#191970" points="673.064,-61.6207 683.4375,-59.4662 673.9846,-54.6815 673.064,-61.6207"/>
</g>
<!-- Node35 -->
<g id="node35" class="node">
<title>Node35</title>
<g id="a_node35"><a xlink:href="../../d1/d25/classgenfit_1_1AbsTrackRep.html#ae6f4c4eeb3e4fbadcc930f53e2ca4ad7" target="_top" xlink:title="Translates MeasuredStateOnPlane into 3D position, momentum and 6x6 covariance.">
<polygon fill="none" stroke="#000000" points="685.5,-.5 685.5,-32.5 802.5,-32.5 802.5,-.5 685.5,-.5"/>
<text text-anchor="start" x="693.5" y="-19.5" font-family="FreeSans" font-size="10.00" fill="#000000">genfit::AbsTrackRep</text>
<text text-anchor="middle" x="744" y="-7.5" font-family="FreeSans" font-size="10.00" fill="#000000">::getPosMomCov</text>
</a>
</g>
</g>
<!-- Node33&#45;&gt;Node35 -->
<g id="edge40" class="edge">
<title>Node33&#45;&gt;Node35</title>
<path fill="none" stroke="#191970" d="M633.1133,-30.6437C647.191,-28.8481 661.6297,-27.0064 675.24,-25.2704"/>
<polygon fill="#191970" stroke="#191970" points="675.99,-28.7032 685.4668,-23.966 675.1043,-21.7594 675.99,-28.7032"/>
</g>
</g>
</svg>
