<?xml version="1.0" encoding="UTF-8" standalone="no"?>
<!DOCTYPE svg PUBLIC "-//W3C//DTD SVG 1.1//EN"
 "http://www.w3.org/Graphics/SVG/1.1/DTD/svg11.dtd">
<!-- Generated by graphviz version 2.40.1 (20161225.0304)
 -->
<!-- Title: GenFit/blob/master/trackReps/include/TGeoMaterialInterface.h Pages: 1 -->
<svg width="1335pt" height="134pt"
 viewBox="0.00 0.00 1335.00 134.00" xmlns="http://www.w3.org/2000/svg" xmlns:xlink="http://www.w3.org/1999/xlink">
<g id="graph0" class="graph" transform="scale(1 1) rotate(0) translate(4 130)">
<title>GenFit/blob/master/trackReps/include/TGeoMaterialInterface.h</title>
<!-- Node1 -->
<g id="node1" class="node">
<title>Node1</title>
<polygon fill="#bfbfbf" stroke="#000000" points="617,-81.5 617,-125.5 798,-125.5 798,-81.5 617,-81.5"/>
<text text-anchor="start" x="625" y="-112.5" font-family="FreeSans" font-size="10.00" fill="#000000">GenFit/blob/master</text>
<text text-anchor="start" x="625" y="-100.5" font-family="FreeSans" font-size="10.00" fill="#000000">/trackReps/include/TGeoMaterial</text>
<text text-anchor="middle" x="707.5" y="-88.5" font-family="FreeSans" font-size="10.00" fill="#000000">Interface.h</text>
</g>
<!-- Node2 -->
<g id="node2" class="node">
<title>Node2</title>
<g id="a_node2"><a xlink:href="../../d0/d48/GenFit_2blob_2master_2test_2fitterTests_2main_8cc.html" target="_top" xlink:title="GenFit/blob/master\l/test/fitterTests/main.cc">
<polygon fill="none" stroke="#000000" points="0,-6.5 0,-38.5 135,-38.5 135,-6.5 0,-6.5"/>
<text text-anchor="start" x="8" y="-25.5" font-family="FreeSans" font-size="10.00" fill="#000000">GenFit/blob/master</text>
<text text-anchor="middle" x="67.5" y="-13.5" font-family="FreeSans" font-size="10.00" fill="#000000">/test/fitterTests/main.cc</text>
</a>
</g>
</g>
<!-- Node1&#45;&gt;Node2 -->
<g id="edge1" class="edge">
<title>Node1&#45;&gt;Node2</title>
<path fill="none" stroke="#191970" d="M606.5075,-98.5171C493.1988,-91.6537 304.3262,-76.387 144.5,-45 135.7537,-43.2824 126.5681,-41.0173 117.7094,-38.5859"/>
<polygon fill="#191970" stroke="#191970" points="606.367,-102.0148 616.5575,-99.1158 606.7834,-95.0272 606.367,-102.0148"/>
</g>
<!-- Node3 -->
<g id="node3" class="node">
<title>Node3</title>
<g id="a_node3"><a xlink:href="../../dd/d84/GenFit_2blob_2master_2test_2measurementFactoryExample_2main_8cc.html" target="_top" xlink:title="GenFit/blob/master\l/test/measurementFactoryExample\l/main.cc">
<polygon fill="none" stroke="#000000" points="153.5,-.5 153.5,-44.5 347.5,-44.5 347.5,-.5 153.5,-.5"/>
<text text-anchor="start" x="161.5" y="-31.5" font-family="FreeSans" font-size="10.00" fill="#000000">GenFit/blob/master</text>
<text text-anchor="start" x="161.5" y="-19.5" font-family="FreeSans" font-size="10.00" fill="#000000">/test/measurementFactoryExample</text>
<text text-anchor="middle" x="250.5" y="-7.5" font-family="FreeSans" font-size="10.00" fill="#000000">/main.cc</text>
</a>
</g>
</g>
<!-- Node1&#45;&gt;Node3 -->
<g id="edge2" class="edge">
<title>Node1&#45;&gt;Node3</title>
<path fill="none" stroke="#191970" d="M606.653,-88.013C536.1544,-76.8755 439.8991,-61.0471 355.5,-45 352.9359,-44.5125 350.3383,-44.011 347.7184,-43.4985"/>
<polygon fill="#191970" stroke="#191970" points="606.4401,-91.5225 616.863,-89.6216 607.5296,-84.6078 606.4401,-91.5225"/>
</g>
<!-- Node4 -->
<g id="node4" class="node">
<title>Node4</title>
<g id="a_node4"><a xlink:href="../../d4/d7c/GenFit_2blob_2master_2test_2minimalFittingExample_2main_8cc.html" target="_top" xlink:title="GenFit/blob/master\l/test/minimalFittingExample\l/main.cc">
<polygon fill="none" stroke="#000000" points="365,-.5 365,-44.5 524,-44.5 524,-.5 365,-.5"/>
<text text-anchor="start" x="373" y="-31.5" font-family="FreeSans" font-size="10.00" fill="#000000">GenFit/blob/master</text>
<text text-anchor="start" x="373" y="-19.5" font-family="FreeSans" font-size="10.00" fill="#000000">/test/minimalFittingExample</text>
<text text-anchor="middle" x="444.5" y="-7.5" font-family="FreeSans" font-size="10.00" fill="#000000">/main.cc</text>
</a>
</g>
</g>
<!-- Node1&#45;&gt;Node4 -->
<g id="edge3" class="edge">
<title>Node1&#45;&gt;Node4</title>
<path fill="none" stroke="#191970" d="M626.2029,-78.4617C590.9643,-67.6088 550.0663,-55.0128 516.0043,-44.5222"/>
<polygon fill="#191970" stroke="#191970" points="625.3943,-81.8749 635.9815,-81.4734 627.4547,-75.185 625.3943,-81.8749"/>
</g>
<!-- Node5 -->
<g id="node5" class="node">
<title>Node5</title>
<g id="a_node5"><a xlink:href="../../dd/d17/main2_8cc.html" target="_top" xlink:title="GenFit/blob/master\l/test/minimalFittingExample\l/main2.cc">
<polygon fill="none" stroke="#000000" points="542,-.5 542,-44.5 701,-44.5 701,-.5 542,-.5"/>
<text text-anchor="start" x="550" y="-31.5" font-family="FreeSans" font-size="10.00" fill="#000000">GenFit/blob/master</text>
<text text-anchor="start" x="550" y="-19.5" font-family="FreeSans" font-size="10.00" fill="#000000">/test/minimalFittingExample</text>
<text text-anchor="middle" x="621.5" y="-7.5" font-family="FreeSans" font-size="10.00" fill="#000000">/main2.cc</text>
</a>
</g>
</g>
<!-- Node1&#45;&gt;Node5 -->
<g id="edge4" class="edge">
<title>Node1&#45;&gt;Node5</title>
<path fill="none" stroke="#191970" d="M676.6283,-74.4232C666.1989,-64.6001 654.7328,-53.8007 644.9715,-44.6068"/>
<polygon fill="#191970" stroke="#191970" points="674.3209,-77.0579 684.0001,-81.3664 679.1203,-71.9622 674.3209,-77.0579"/>
</g>
<!-- Node6 -->
<g id="node6" class="node">
<title>Node6</title>
<g id="a_node6"><a xlink:href="../../d5/dd2/GenFit_2blob_2master_2test_2streamerTest_2main_8cc.html" target="_top" xlink:title="GenFit/blob/master\l/test/streamerTest/main.cc">
<polygon fill="none" stroke="#000000" points="719,-6.5 719,-38.5 870,-38.5 870,-6.5 719,-6.5"/>
<text text-anchor="start" x="727" y="-25.5" font-family="FreeSans" font-size="10.00" fill="#000000">GenFit/blob/master</text>
<text text-anchor="middle" x="794.5" y="-13.5" font-family="FreeSans" font-size="10.00" fill="#000000">/test/streamerTest/main.cc</text>
</a>
</g>
</g>
<!-- Node1&#45;&gt;Node6 -->
<g id="edge5" class="edge">
<title>Node1&#45;&gt;Node6</title>
<path fill="none" stroke="#191970" d="M738.6652,-74.4841C751.5967,-62.4444 766.1137,-48.9287 777.1033,-38.6969"/>
<polygon fill="#191970" stroke="#191970" points="736.2071,-71.9905 731.2731,-81.3664 740.9771,-77.1138 736.2071,-71.9905"/>
</g>
<!-- Node7 -->
<g id="node7" class="node">
<title>Node7</title>
<g id="a_node7"><a xlink:href="../../d9/d33/GenFit_2blob_2master_2test_2unitTests_2main_8cc.html" target="_top" xlink:title="GenFit/blob/master\l/test/unitTests/main.cc">
<polygon fill="none" stroke="#000000" points="888,-6.5 888,-38.5 1019,-38.5 1019,-6.5 888,-6.5"/>
<text text-anchor="start" x="896" y="-25.5" font-family="FreeSans" font-size="10.00" fill="#000000">GenFit/blob/master</text>
<text text-anchor="middle" x="953.5" y="-13.5" font-family="FreeSans" font-size="10.00" fill="#000000">/test/unitTests/main.cc</text>
</a>
</g>
</g>
<!-- Node1&#45;&gt;Node7 -->
<g id="edge6" class="edge">
<title>Node1&#45;&gt;Node7</title>
<path fill="none" stroke="#191970" d="M784.2156,-78.24C823.5132,-65.3005 870.1904,-49.9312 904.568,-38.6118"/>
<polygon fill="#191970" stroke="#191970" points="782.7993,-75.0214 774.3956,-81.4734 784.9886,-81.6702 782.7993,-75.0214"/>
</g>
<!-- Node8 -->
<g id="node8" class="node">
<title>Node8</title>
<g id="a_node8"><a xlink:href="../../de/dab/GenFit_2blob_2master_2test_2vertexingTest_2main_8cc.html" target="_top" xlink:title="GenFit/blob/master\l/test/vertexingTest\l/main.cc">
<polygon fill="none" stroke="#000000" points="1037,-.5 1037,-44.5 1150,-44.5 1150,-.5 1037,-.5"/>
<text text-anchor="start" x="1045" y="-31.5" font-family="FreeSans" font-size="10.00" fill="#000000">GenFit/blob/master</text>
<text text-anchor="start" x="1045" y="-19.5" font-family="FreeSans" font-size="10.00" fill="#000000">/test/vertexingTest</text>
<text text-anchor="middle" x="1093.5" y="-7.5" font-family="FreeSans" font-size="10.00" fill="#000000">/main.cc</text>
</a>
</g>
</g>
<!-- Node1&#45;&gt;Node8 -->
<g id="edge7" class="edge">
<title>Node1&#45;&gt;Node8</title>
<path fill="none" stroke="#191970" d="M808.2909,-89.1882C871.9715,-79.15 955.6891,-64.1165 1028.5,-45 1031.2721,-44.2722 1034.0956,-43.4831 1036.9367,-42.6506"/>
<polygon fill="#191970" stroke="#191970" points="807.5877,-85.7555 798.2474,-90.7563 808.6676,-92.6717 807.5877,-85.7555"/>
</g>
<!-- Node9 -->
<g id="node9" class="node">
<title>Node9</title>
<g id="a_node9"><a xlink:href="../../d4/dec/TGeoMaterialInterface_8cc.html" target="_top" xlink:title="GenFit/blob/master\l/trackReps/src/TGeoMaterial\lInterface.cc">
<polygon fill="none" stroke="#000000" points="1168,-.5 1168,-44.5 1327,-44.5 1327,-.5 1168,-.5"/>
<text text-anchor="start" x="1176" y="-31.5" font-family="FreeSans" font-size="10.00" fill="#000000">GenFit/blob/master</text>
<text text-anchor="start" x="1176" y="-19.5" font-family="FreeSans" font-size="10.00" fill="#000000">/trackReps/src/TGeoMaterial</text>
<text text-anchor="middle" x="1247.5" y="-7.5" font-family="FreeSans" font-size="10.00" fill="#000000">Interface.cc</text>
</a>
</g>
</g>
<!-- Node1&#45;&gt;Node9 -->
<g id="edge8" class="edge">
<title>Node1&#45;&gt;Node9</title>
<path fill="none" stroke="#191970" d="M808.2007,-94.0126C900.171,-84.5092 1039.6566,-67.9879 1159.5,-45 1162.2876,-44.4653 1165.1183,-43.8945 1167.9722,-43.2954"/>
<polygon fill="#191970" stroke="#191970" points="807.6524,-90.5504 798.0614,-95.0518 808.3661,-97.5139 807.6524,-90.5504"/>
</g>
</g>
</svg>
