<?xml version="1.0" encoding="UTF-8" standalone="no"?>
<!DOCTYPE svg PUBLIC "-//W3C//DTD SVG 1.1//EN"
 "http://www.w3.org/Graphics/SVG/1.1/DTD/svg11.dtd">
<!-- Generated by graphviz version 2.40.1 (20161225.0304)
 -->
<!-- Title: genfit::FitStatus::setIsFitted Pages: 1 -->
<svg width="491pt" height="245pt"
 viewBox="0.00 0.00 491.00 245.00" xmlns="http://www.w3.org/2000/svg" xmlns:xlink="http://www.w3.org/1999/xlink">
<g id="graph0" class="graph" transform="scale(1 1) rotate(0) translate(4 241)">
<title>genfit::FitStatus::setIsFitted</title>
<!-- Node1 -->
<g id="node1" class="node">
<title>Node1</title>
<polygon fill="#bfbfbf" stroke="#000000" points="0,-102.5 0,-134.5 102,-134.5 102,-102.5 0,-102.5"/>
<text text-anchor="start" x="8" y="-121.5" font-family="FreeSans" font-size="10.00" fill="#000000">genfit::FitStatus::</text>
<text text-anchor="middle" x="51" y="-109.5" font-family="FreeSans" font-size="10.00" fill="#000000">setIsFitted</text>
</g>
<!-- Node2 -->
<g id="node2" class="node">
<title>Node2</title>
<g id="a_node2"><a xlink:href="../../d8/d26/classgenfit_1_1KalmanFitterRefTrack.html#ad3a24181b5370cc95f01f49ea148c011" target="_top" xlink:title="genfit::KalmanFitterRefTrack\l::processTrackWithRep">
<polygon fill="none" stroke="#000000" points="138,-204.5 138,-236.5 298,-236.5 298,-204.5 138,-204.5"/>
<text text-anchor="start" x="146" y="-223.5" font-family="FreeSans" font-size="10.00" fill="#000000">genfit::KalmanFitterRefTrack</text>
<text text-anchor="middle" x="218" y="-211.5" font-family="FreeSans" font-size="10.00" fill="#000000">::processTrackWithRep</text>
</a>
</g>
</g>
<!-- Node1&#45;&gt;Node2 -->
<g id="edge1" class="edge">
<title>Node1&#45;&gt;Node2</title>
<path fill="none" stroke="#191970" d="M72.1752,-141.9481C88.6475,-158.9344 112.864,-181.3179 138,-195.5 143.9564,-198.8607 150.4222,-201.8301 157.0097,-204.4385"/>
<polygon fill="#191970" stroke="#191970" points="74.5985,-139.4171 65.1763,-134.5722 69.5207,-144.2354 74.5985,-139.4171"/>
</g>
<!-- Node3 -->
<g id="node3" class="node">
<title>Node3</title>
<g id="a_node3"><a xlink:href="../../d4/db7/classgenfit_1_1KalmanFitter.html#aa44364f202ab52ca2f8fa2000e29a534" target="_top" xlink:title="Hit resorting currently NOT supported.">
<polygon fill="none" stroke="#000000" points="153,-153.5 153,-185.5 283,-185.5 283,-153.5 153,-153.5"/>
<text text-anchor="start" x="161" y="-172.5" font-family="FreeSans" font-size="10.00" fill="#000000">genfit::KalmanFitter</text>
<text text-anchor="middle" x="218" y="-160.5" font-family="FreeSans" font-size="10.00" fill="#000000">::processTrackWithRep</text>
</a>
</g>
</g>
<!-- Node1&#45;&gt;Node3 -->
<g id="edge2" class="edge">
<title>Node1&#45;&gt;Node3</title>
<path fill="none" stroke="#191970" d="M111.6518,-137.0224C129.3154,-142.4167 148.457,-148.2623 165.5683,-153.4879"/>
<polygon fill="#191970" stroke="#191970" points="112.5992,-133.6522 102.0129,-134.0788 110.5546,-140.347 112.5992,-133.6522"/>
</g>
<!-- Node5 -->
<g id="node5" class="node">
<title>Node5</title>
<g id="a_node5"><a xlink:href="../../d6/d60/classgenfit_1_1DAF.html#a2bdf79750af68a02be2da0fb2442de33" target="_top" xlink:title="Process a track using the DAF.">
<polygon fill="none" stroke="#000000" points="146,-102.5 146,-134.5 290,-134.5 290,-102.5 146,-102.5"/>
<text text-anchor="start" x="154" y="-121.5" font-family="FreeSans" font-size="10.00" fill="#000000">genfit::DAF::processTrack</text>
<text text-anchor="middle" x="218" y="-109.5" font-family="FreeSans" font-size="10.00" fill="#000000">WithRep</text>
</a>
</g>
</g>
<!-- Node1&#45;&gt;Node5 -->
<g id="edge4" class="edge">
<title>Node1&#45;&gt;Node5</title>
<path fill="none" stroke="#191970" d="M112.2692,-118.5C123.1687,-118.5 134.6132,-118.5 145.7833,-118.5"/>
<polygon fill="#191970" stroke="#191970" points="112.013,-115.0001 102.0129,-118.5 112.0129,-122.0001 112.013,-115.0001"/>
</g>
<!-- Node6 -->
<g id="node6" class="node">
<title>Node6</title>
<g id="a_node6"><a xlink:href="../../d1/dc8/classgenfit_1_1GblFitter.html#a4be6bdc46ad9f13aef275aea2b01f438" target="_top" xlink:title="genfit::GblFitter::\lprocessTrackWithRep">
<polygon fill="none" stroke="#000000" points="156,-51.5 156,-83.5 280,-83.5 280,-51.5 156,-51.5"/>
<text text-anchor="start" x="164" y="-70.5" font-family="FreeSans" font-size="10.00" fill="#000000">genfit::GblFitter::</text>
<text text-anchor="middle" x="218" y="-58.5" font-family="FreeSans" font-size="10.00" fill="#000000">processTrackWithRep</text>
</a>
</g>
</g>
<!-- Node1&#45;&gt;Node6 -->
<g id="edge5" class="edge">
<title>Node1&#45;&gt;Node6</title>
<path fill="none" stroke="#191970" d="M111.6518,-99.9776C129.3154,-94.5833 148.457,-88.7377 165.5683,-83.5121"/>
<polygon fill="#191970" stroke="#191970" points="110.5546,-96.653 102.0129,-102.9212 112.5992,-103.3478 110.5546,-96.653"/>
</g>
<!-- Node7 -->
<g id="node7" class="node">
<title>Node7</title>
<g id="a_node7"><a xlink:href="../../d5/daa/classPHRaveVertexing.html#af3ca2c60b8b69efdf6fdaf781f19948c" target="_top" xlink:title="PHRaveVertexing::Translate\lSvtxToGenFitTrack">
<polygon fill="none" stroke="#000000" points="140,-.5 140,-32.5 296,-32.5 296,-.5 140,-.5"/>
<text text-anchor="start" x="148" y="-19.5" font-family="FreeSans" font-size="10.00" fill="#000000">PHRaveVertexing::Translate</text>
<text text-anchor="middle" x="218" y="-7.5" font-family="FreeSans" font-size="10.00" fill="#000000">SvtxToGenFitTrack</text>
</a>
</g>
</g>
<!-- Node1&#45;&gt;Node7 -->
<g id="edge6" class="edge">
<title>Node1&#45;&gt;Node7</title>
<path fill="none" stroke="#191970" d="M72.58,-95.1478C89.0977,-78.4684 113.1925,-56.5764 138,-42.5 144.6049,-38.7522 151.8273,-35.4542 159.1439,-32.5779"/>
<polygon fill="#191970" stroke="#191970" points="69.9982,-92.7826 65.5486,-102.3978 75.0231,-97.656 69.9982,-92.7826"/>
</g>
<!-- Node4 -->
<g id="node4" class="node">
<title>Node4</title>
<g id="a_node4"><a xlink:href="../../d0/d48/GenFit_2blob_2master_2test_2fitterTests_2main_8cc.html#ae66f6b31b5ad750f1fe042a706a4e3d4" target="_top" xlink:title="main">
<polygon fill="none" stroke="#000000" points="388,-159.5 388,-179.5 429,-179.5 429,-159.5 388,-159.5"/>
<text text-anchor="middle" x="408.5" y="-166.5" font-family="FreeSans" font-size="10.00" fill="#000000">main</text>
</a>
</g>
</g>
<!-- Node3&#45;&gt;Node4 -->
<g id="edge3" class="edge">
<title>Node3&#45;&gt;Node4</title>
<path fill="none" stroke="#191970" d="M293.0472,-169.5C327.3072,-169.5 365.2226,-169.5 387.9407,-169.5"/>
<polygon fill="#191970" stroke="#191970" points="293.0265,-166.0001 283.0265,-169.5 293.0264,-173.0001 293.0265,-166.0001"/>
</g>
<!-- Node8 -->
<g id="node8" class="node">
<title>Node8</title>
<g id="a_node8"><a xlink:href="../../d5/daa/classPHRaveVertexing.html#afefcb6ce27ac34016e62172d8519fae8" target="_top" xlink:title="Process Event, called for each event.">
<polygon fill="none" stroke="#000000" points="334,-.5 334,-32.5 483,-32.5 483,-.5 334,-.5"/>
<text text-anchor="start" x="342" y="-19.5" font-family="FreeSans" font-size="10.00" fill="#000000">PHRaveVertexing::process</text>
<text text-anchor="middle" x="408.5" y="-7.5" font-family="FreeSans" font-size="10.00" fill="#000000">_event</text>
</a>
</g>
</g>
<!-- Node7&#45;&gt;Node8 -->
<g id="edge7" class="edge">
<title>Node7&#45;&gt;Node8</title>
<path fill="none" stroke="#191970" d="M306.0928,-16.5C315.4123,-16.5 324.8237,-16.5 333.9674,-16.5"/>
<polygon fill="#191970" stroke="#191970" points="306.0333,-13.0001 296.0333,-16.5 306.0333,-20.0001 306.0333,-13.0001"/>
</g>
</g>
</svg>
