<?xml version="1.0" encoding="UTF-8" standalone="no"?>
<!DOCTYPE svg PUBLIC "-//W3C//DTD SVG 1.1//EN"
 "http://www.w3.org/Graphics/SVG/1.1/DTD/svg11.dtd">
<!-- Generated by graphviz version 2.40.1 (20161225.0304)
 -->
<!-- Title: genfit::FitStatus::setIsFitConvergedPartially Pages: 1 -->
<svg width="428pt" height="194pt"
 viewBox="0.00 0.00 428.00 194.00" xmlns="http://www.w3.org/2000/svg" xmlns:xlink="http://www.w3.org/1999/xlink">
<g id="graph0" class="graph" transform="scale(1 1) rotate(0) translate(4 190)">
<title>genfit::FitStatus::setIsFitConvergedPartially</title>
<!-- Node1 -->
<g id="node1" class="node">
<title>Node1</title>
<polygon fill="#bfbfbf" stroke="#000000" points="0,-76.5 0,-108.5 147,-108.5 147,-76.5 0,-76.5"/>
<text text-anchor="start" x="8" y="-95.5" font-family="FreeSans" font-size="10.00" fill="#000000">genfit::FitStatus::</text>
<text text-anchor="middle" x="73.5" y="-83.5" font-family="FreeSans" font-size="10.00" fill="#000000">setIsFitConvergedPartially</text>
</g>
<!-- Node2 -->
<g id="node2" class="node">
<title>Node2</title>
<g id="a_node2"><a xlink:href="../../d8/d26/classgenfit_1_1KalmanFitterRefTrack.html#ad3a24181b5370cc95f01f49ea148c011" target="_top" xlink:title="genfit::KalmanFitterRefTrack\l::processTrackWithRep">
<polygon fill="none" stroke="#000000" points="183,-153.5 183,-185.5 343,-185.5 343,-153.5 183,-153.5"/>
<text text-anchor="start" x="191" y="-172.5" font-family="FreeSans" font-size="10.00" fill="#000000">genfit::KalmanFitterRefTrack</text>
<text text-anchor="middle" x="263" y="-160.5" font-family="FreeSans" font-size="10.00" fill="#000000">::processTrackWithRep</text>
</a>
</g>
</g>
<!-- Node1&#45;&gt;Node2 -->
<g id="edge1" class="edge">
<title>Node1&#45;&gt;Node2</title>
<path fill="none" stroke="#191970" d="M113.6334,-113.2234C134.0932,-123.3588 159.5478,-135.3195 183,-144.5 190.9945,-147.6295 199.5534,-150.6444 207.9917,-153.4313"/>
<polygon fill="#191970" stroke="#191970" points="115.119,-110.0531 104.6095,-108.7116 111.9886,-116.3142 115.119,-110.0531"/>
</g>
<!-- Node3 -->
<g id="node3" class="node">
<title>Node3</title>
<g id="a_node3"><a xlink:href="../../d4/db7/classgenfit_1_1KalmanFitter.html#aa44364f202ab52ca2f8fa2000e29a534" target="_top" xlink:title="Hit resorting currently NOT supported.">
<polygon fill="none" stroke="#000000" points="198,-102.5 198,-134.5 328,-134.5 328,-102.5 198,-102.5"/>
<text text-anchor="start" x="206" y="-121.5" font-family="FreeSans" font-size="10.00" fill="#000000">genfit::KalmanFitter</text>
<text text-anchor="middle" x="263" y="-109.5" font-family="FreeSans" font-size="10.00" fill="#000000">::processTrackWithRep</text>
</a>
</g>
</g>
<!-- Node1&#45;&gt;Node3 -->
<g id="edge2" class="edge">
<title>Node1&#45;&gt;Node3</title>
<path fill="none" stroke="#191970" d="M157.3405,-104.0032C170.9163,-105.8658 184.7948,-107.77 197.8413,-109.56"/>
<polygon fill="#191970" stroke="#191970" points="157.4198,-100.4814 147.0369,-102.5895 156.4683,-107.4164 157.4198,-100.4814"/>
</g>
<!-- Node5 -->
<g id="node5" class="node">
<title>Node5</title>
<g id="a_node5"><a xlink:href="../../d6/d60/classgenfit_1_1DAF.html#a2bdf79750af68a02be2da0fb2442de33" target="_top" xlink:title="Process a track using the DAF.">
<polygon fill="none" stroke="#000000" points="191,-51.5 191,-83.5 335,-83.5 335,-51.5 191,-51.5"/>
<text text-anchor="start" x="199" y="-70.5" font-family="FreeSans" font-size="10.00" fill="#000000">genfit::DAF::processTrack</text>
<text text-anchor="middle" x="263" y="-58.5" font-family="FreeSans" font-size="10.00" fill="#000000">WithRep</text>
</a>
</g>
</g>
<!-- Node1&#45;&gt;Node5 -->
<g id="edge4" class="edge">
<title>Node1&#45;&gt;Node5</title>
<path fill="none" stroke="#191970" d="M157.2264,-81.4543C168.4051,-79.9795 179.7912,-78.4774 190.751,-77.0315"/>
<polygon fill="#191970" stroke="#191970" points="156.4932,-78.0206 147.0369,-82.7986 157.4088,-84.9605 156.4932,-78.0206"/>
</g>
<!-- Node6 -->
<g id="node6" class="node">
<title>Node6</title>
<g id="a_node6"><a xlink:href="../../d1/dc8/classgenfit_1_1GblFitter.html#a4be6bdc46ad9f13aef275aea2b01f438" target="_top" xlink:title="genfit::GblFitter::\lprocessTrackWithRep">
<polygon fill="none" stroke="#000000" points="201,-.5 201,-32.5 325,-32.5 325,-.5 201,-.5"/>
<text text-anchor="start" x="209" y="-19.5" font-family="FreeSans" font-size="10.00" fill="#000000">genfit::GblFitter::</text>
<text text-anchor="middle" x="263" y="-7.5" font-family="FreeSans" font-size="10.00" fill="#000000">processTrackWithRep</text>
</a>
</g>
</g>
<!-- Node1&#45;&gt;Node6 -->
<g id="edge5" class="edge">
<title>Node1&#45;&gt;Node6</title>
<path fill="none" stroke="#191970" d="M115.3755,-72.0195C135.5786,-62.4901 160.3038,-51.3367 183,-42.5 191.8458,-39.0559 201.357,-35.6846 210.6255,-32.5712"/>
<polygon fill="#191970" stroke="#191970" points="113.6713,-68.9542 106.143,-76.4091 116.6771,-75.276 113.6713,-68.9542"/>
</g>
<!-- Node4 -->
<g id="node4" class="node">
<title>Node4</title>
<g id="a_node4"><a xlink:href="../../d0/d48/GenFit_2blob_2master_2test_2fitterTests_2main_8cc.html#ae66f6b31b5ad750f1fe042a706a4e3d4" target="_top" xlink:title="main">
<polygon fill="none" stroke="#000000" points="379,-108.5 379,-128.5 420,-128.5 420,-108.5 379,-108.5"/>
<text text-anchor="middle" x="399.5" y="-115.5" font-family="FreeSans" font-size="10.00" fill="#000000">main</text>
</a>
</g>
</g>
<!-- Node3&#45;&gt;Node4 -->
<g id="edge3" class="edge">
<title>Node3&#45;&gt;Node4</title>
<path fill="none" stroke="#191970" d="M338.4006,-118.5C353.294,-118.5 367.7282,-118.5 378.8242,-118.5"/>
<polygon fill="#191970" stroke="#191970" points="338.0519,-115.0001 328.0518,-118.5 338.0518,-122.0001 338.0519,-115.0001"/>
</g>
</g>
</svg>
