<?xml version="1.0" encoding="UTF-8" standalone="no"?>
<!DOCTYPE svg PUBLIC "-//W3C//DTD SVG 1.1//EN"
 "http://www.w3.org/Graphics/SVG/1.1/DTD/svg11.dtd">
<!-- Generated by graphviz version 2.40.1 (20161225.0304)
 -->
<!-- Title: genfit::RKTrackRep::getMom Pages: 1 -->
<svg width="580pt" height="272pt"
 viewBox="0.00 0.00 580.00 272.00" xmlns="http://www.w3.org/2000/svg" xmlns:xlink="http://www.w3.org/1999/xlink">
<g id="graph0" class="graph" transform="scale(1 1) rotate(0) translate(4 268)">
<title>genfit::RKTrackRep::getMom</title>
<!-- Node1 -->
<g id="node1" class="node">
<title>Node1</title>
<polygon fill="#bfbfbf" stroke="#000000" points="0,-121.5 0,-153.5 111,-153.5 111,-121.5 0,-121.5"/>
<text text-anchor="start" x="8" y="-140.5" font-family="FreeSans" font-size="10.00" fill="#000000">genfit::RKTrackRep</text>
<text text-anchor="middle" x="55.5" y="-128.5" font-family="FreeSans" font-size="10.00" fill="#000000">::getMom</text>
</g>
<!-- Node2 -->
<g id="node2" class="node">
<title>Node2</title>
<g id="a_node2"><a xlink:href="../../d2/d12/classgenfit_1_1RKTrackRep.html#a92cf35857098de08b8a98b9c6dac3d6e" target="_top" xlink:title="Get the (fitted) charge of a state. This is not always equal the pdg charge (e.g. if the charge sign ...">
<polygon fill="none" stroke="#000000" points="147,-166.5 147,-198.5 258,-198.5 258,-166.5 147,-166.5"/>
<text text-anchor="start" x="155" y="-185.5" font-family="FreeSans" font-size="10.00" fill="#000000">genfit::RKTrackRep</text>
<text text-anchor="middle" x="202.5" y="-173.5" font-family="FreeSans" font-size="10.00" fill="#000000">::getCharge</text>
</a>
</g>
</g>
<!-- Node1&#45;&gt;Node2 -->
<g id="edge1" class="edge">
<title>Node1&#45;&gt;Node2</title>
<path fill="none" stroke="#191970" d="M108.1552,-153.6189C118.6255,-156.8241 129.7111,-160.2177 140.4614,-163.5086"/>
<polygon fill="#191970" stroke="#191970" points="139.6259,-166.9131 150.2125,-166.4936 141.675,-160.2197 139.6259,-166.9131"/>
</g>
<!-- Node6 -->
<g id="node6" class="node">
<title>Node6</title>
<g id="a_node6"><a xlink:href="../../d2/d12/classgenfit_1_1RKTrackRep.html#a74c22a03a2fbdd905f76a19049153372" target="_top" xlink:title="genfit::RKTrackRep\l::getState7">
<polygon fill="none" stroke="#000000" points="147,-96.5 147,-128.5 258,-128.5 258,-96.5 147,-96.5"/>
<text text-anchor="start" x="155" y="-115.5" font-family="FreeSans" font-size="10.00" fill="#000000">genfit::RKTrackRep</text>
<text text-anchor="middle" x="202.5" y="-103.5" font-family="FreeSans" font-size="10.00" fill="#000000">::getState7</text>
</a>
</g>
</g>
<!-- Node1&#45;&gt;Node6 -->
<g id="edge5" class="edge">
<title>Node1&#45;&gt;Node6</title>
<path fill="none" stroke="#191970" d="M111.0744,-128.0486C119.4894,-126.6174 128.2383,-125.1295 136.8421,-123.6663"/>
<polygon fill="#191970" stroke="#191970" points="137.5754,-127.0919 146.847,-121.9648 136.4017,-120.191 137.5754,-127.0919"/>
</g>
<!-- Node3 -->
<g id="node3" class="node">
<title>Node3</title>
<g id="a_node3"><a xlink:href="../../d1/d25/classgenfit_1_1AbsTrackRep.html#a6a0edfbf9193760cf666ff40e3ff3568" target="_top" xlink:title="Get the charge of the particle of the pdg code.">
<polygon fill="none" stroke="#000000" points="296,-231.5 296,-263.5 413,-263.5 413,-231.5 296,-231.5"/>
<text text-anchor="start" x="304" y="-250.5" font-family="FreeSans" font-size="10.00" fill="#000000">genfit::AbsTrackRep</text>
<text text-anchor="middle" x="354.5" y="-238.5" font-family="FreeSans" font-size="10.00" fill="#000000">::getPDGCharge</text>
</a>
</g>
</g>
<!-- Node2&#45;&gt;Node3 -->
<g id="edge2" class="edge">
<title>Node2&#45;&gt;Node3</title>
<path fill="none" stroke="#191970" d="M240.073,-198.5674C260.4435,-207.2785 285.8121,-218.1269 307.4829,-227.394"/>
<polygon fill="#191970" stroke="#191970" points="306.2616,-230.6783 316.8324,-231.3921 309.014,-224.2421 306.2616,-230.6783"/>
</g>
<!-- Node4 -->
<g id="node4" class="node">
<title>Node4</title>
<g id="a_node4"><a xlink:href="../../de/dd5/classgenfit_1_1StateOnPlane.html#a61a05215bec767cf6919b083808a37d2" target="_top" xlink:title="genfit::StateOnPlane\l::getState">
<polygon fill="none" stroke="#000000" points="294,-141.5 294,-173.5 415,-173.5 415,-141.5 294,-141.5"/>
<text text-anchor="start" x="302" y="-160.5" font-family="FreeSans" font-size="10.00" fill="#000000">genfit::StateOnPlane</text>
<text text-anchor="middle" x="354.5" y="-148.5" font-family="FreeSans" font-size="10.00" fill="#000000">::getState</text>
</a>
</g>
</g>
<!-- Node2&#45;&gt;Node4 -->
<g id="edge3" class="edge">
<title>Node2&#45;&gt;Node4</title>
<path fill="none" stroke="#191970" d="M258.2361,-173.3329C266.5791,-171.9607 275.2737,-170.5306 283.8759,-169.1158"/>
<polygon fill="#191970" stroke="#191970" points="284.6058,-172.5429 293.9052,-167.4663 283.4697,-165.6357 284.6058,-172.5429"/>
</g>
<!-- Node5 -->
<g id="node5" class="node">
<title>Node5</title>
<g id="a_node5"><a xlink:href="../../d8/db3/classgenfit_1_1Exception.html#a13619975a1e1be5c1bd504b254e01f7a" target="_top" xlink:title="Set fatal flag.">
<polygon fill="none" stroke="#000000" points="457.5,-96.5 457.5,-128.5 565.5,-128.5 565.5,-96.5 457.5,-96.5"/>
<text text-anchor="start" x="465.5" y="-115.5" font-family="FreeSans" font-size="10.00" fill="#000000">genfit::Exception::</text>
<text text-anchor="middle" x="511.5" y="-103.5" font-family="FreeSans" font-size="10.00" fill="#000000">setFatal</text>
</a>
</g>
</g>
<!-- Node2&#45;&gt;Node5 -->
<g id="edge4" class="edge">
<title>Node2&#45;&gt;Node5</title>
<path fill="none" stroke="#191970" d="M258.139,-192.1997C301.9028,-197.6108 363.823,-200.2983 415,-183.5 443.4482,-174.1622 470.4159,-152.8758 488.5728,-136.0312"/>
<polygon fill="#191970" stroke="#191970" points="491.4659,-138.1068 496.2689,-128.6632 486.6251,-133.0505 491.4659,-138.1068"/>
</g>
<!-- Node6&#45;&gt;Node4 -->
<g id="edge8" class="edge">
<title>Node6&#45;&gt;Node4</title>
<path fill="none" stroke="#191970" d="M256.9462,-128.6189C267.8831,-131.8568 279.4693,-135.287 290.6914,-138.6093"/>
<polygon fill="#191970" stroke="#191970" points="289.8518,-142.0108 300.434,-141.4936 291.8389,-135.2988 289.8518,-142.0108"/>
</g>
<!-- Node6&#45;&gt;Node5 -->
<g id="edge6" class="edge">
<title>Node6&#45;&gt;Node5</title>
<path fill="none" stroke="#191970" d="M258.0999,-112.5C311.2617,-112.5 391.3748,-112.5 447.2448,-112.5"/>
<polygon fill="#191970" stroke="#191970" points="447.3829,-116.0001 457.3829,-112.5 447.3828,-109.0001 447.3829,-116.0001"/>
</g>
<!-- Node7 -->
<g id="node7" class="node">
<title>Node7</title>
<g id="a_node7"><a xlink:href="../../de/dd5/classgenfit_1_1StateOnPlane.html#a30c7e8d87fa50205baa927d4ceccb594" target="_top" xlink:title="genfit::StateOnPlane\l::getPlane">
<polygon fill="none" stroke="#000000" points="294,-51.5 294,-83.5 415,-83.5 415,-51.5 294,-51.5"/>
<text text-anchor="start" x="302" y="-70.5" font-family="FreeSans" font-size="10.00" fill="#000000">genfit::StateOnPlane</text>
<text text-anchor="middle" x="354.5" y="-58.5" font-family="FreeSans" font-size="10.00" fill="#000000">::getPlane</text>
</a>
</g>
</g>
<!-- Node6&#45;&gt;Node7 -->
<g id="edge7" class="edge">
<title>Node6&#45;&gt;Node7</title>
<path fill="none" stroke="#191970" d="M256.9462,-96.3811C267.8831,-93.1432 279.4693,-89.713 290.6914,-86.3907"/>
<polygon fill="#191970" stroke="#191970" points="291.8389,-89.7012 300.434,-83.5064 289.8518,-82.9892 291.8389,-89.7012"/>
</g>
<!-- Node8 -->
<g id="node8" class="node">
<title>Node8</title>
<g id="a_node8"><a xlink:href="../../d2/d12/classgenfit_1_1RKTrackRep.html#a35f676dd0d0820a39e221a41baff083b" target="_top" xlink:title="genfit::RKTrackRep\l::getSpu">
<polygon fill="none" stroke="#000000" points="299,-.5 299,-32.5 410,-32.5 410,-.5 299,-.5"/>
<text text-anchor="start" x="307" y="-19.5" font-family="FreeSans" font-size="10.00" fill="#000000">genfit::RKTrackRep</text>
<text text-anchor="middle" x="354.5" y="-7.5" font-family="FreeSans" font-size="10.00" fill="#000000">::getSpu</text>
</a>
</g>
</g>
<!-- Node6&#45;&gt;Node8 -->
<g id="edge9" class="edge">
<title>Node6&#45;&gt;Node8</title>
<path fill="none" stroke="#191970" d="M220.3809,-96.2629C238.1092,-80.7549 266.5237,-57.4472 294,-41.5 296.6662,-39.9525 299.4466,-38.4524 302.2871,-37.0068"/>
<polygon fill="#191970" stroke="#191970" points="303.9974,-40.0682 311.4974,-32.5848 300.9677,-33.7578 303.9974,-40.0682"/>
</g>
<!-- Node8&#45;&gt;Node5 -->
<g id="edge10" class="edge">
<title>Node8&#45;&gt;Node5</title>
<path fill="none" stroke="#191970" d="M397.1065,-32.5693C403.2262,-35.3169 409.3562,-38.3202 415,-41.5 439.9407,-55.5521 465.9565,-75.0167 484.6825,-90.0123"/>
<polygon fill="#191970" stroke="#191970" points="482.5182,-92.7635 492.4897,-96.3439 486.9275,-87.3266 482.5182,-92.7635"/>
</g>
<!-- Node9 -->
<g id="node9" class="node">
<title>Node9</title>
<g id="a_node9"><a xlink:href="../../de/dd5/classgenfit_1_1StateOnPlane.html#a2801bf4fa1196147472cc1807281e23d" target="_top" xlink:title="genfit::StateOnPlane\l::getAuxInfo">
<polygon fill="none" stroke="#000000" points="451,-.5 451,-32.5 572,-32.5 572,-.5 451,-.5"/>
<text text-anchor="start" x="459" y="-19.5" font-family="FreeSans" font-size="10.00" fill="#000000">genfit::StateOnPlane</text>
<text text-anchor="middle" x="511.5" y="-7.5" font-family="FreeSans" font-size="10.00" fill="#000000">::getAuxInfo</text>
</a>
</g>
</g>
<!-- Node8&#45;&gt;Node9 -->
<g id="edge11" class="edge">
<title>Node8&#45;&gt;Node9</title>
<path fill="none" stroke="#191970" d="M410.2944,-16.5C420.1437,-16.5 430.5149,-16.5 440.7108,-16.5"/>
<polygon fill="#191970" stroke="#191970" points="440.8226,-20.0001 450.8225,-16.5 440.8225,-13.0001 440.8226,-20.0001"/>
</g>
</g>
</svg>
