<?xml version="1.0" encoding="UTF-8" standalone="no"?>
<!DOCTYPE svg PUBLIC "-//W3C//DTD SVG 1.1//EN"
 "http://www.w3.org/Graphics/SVG/1.1/DTD/svg11.dtd">
<!-- Generated by graphviz version 2.40.1 (20161225.0304)
 -->
<!-- Title: genfit::RKTrackRep::extrapolateToPlane Pages: 1 -->
<svg width="450pt" height="296pt"
 viewBox="0.00 0.00 450.00 296.00" xmlns="http://www.w3.org/2000/svg" xmlns:xlink="http://www.w3.org/1999/xlink">
<g id="graph0" class="graph" transform="scale(1 1) rotate(0) translate(4 292)">
<title>genfit::RKTrackRep::extrapolateToPlane</title>
<!-- Node1 -->
<g id="node1" class="node">
<title>Node1</title>
<polygon fill="#bfbfbf" stroke="#000000" points="0,-127.5 0,-159.5 119,-159.5 119,-127.5 0,-127.5"/>
<text text-anchor="start" x="8" y="-146.5" font-family="FreeSans" font-size="10.00" fill="#000000">genfit::RKTrackRep</text>
<text text-anchor="middle" x="59.5" y="-134.5" font-family="FreeSans" font-size="10.00" fill="#000000">::extrapolateToPlane</text>
</g>
<!-- Node2 -->
<g id="node2" class="node">
<title>Node2</title>
<g id="a_node2"><a xlink:href="../../d2/d12/classgenfit_1_1RKTrackRep.html#afb21945e3f605f45b1a5bbbe7741793f" target="_top" xlink:title="Extrapolates the state by step (cm) and returns the extrapolation length and, via reference...">
<polygon fill="none" stroke="#000000" points="166.5,-255.5 166.5,-287.5 277.5,-287.5 277.5,-255.5 166.5,-255.5"/>
<text text-anchor="start" x="174.5" y="-274.5" font-family="FreeSans" font-size="10.00" fill="#000000">genfit::RKTrackRep</text>
<text text-anchor="middle" x="222" y="-262.5" font-family="FreeSans" font-size="10.00" fill="#000000">::extrapolateBy</text>
</a>
</g>
</g>
<!-- Node1&#45;&gt;Node2 -->
<g id="edge1" class="edge">
<title>Node1&#45;&gt;Node2</title>
<path fill="none" stroke="#191970" d="M76.7508,-167.8717C94.1727,-190.9205 123.021,-225.0814 155,-246.5 159.9514,-249.8163 165.4015,-252.7679 170.9891,-255.3749"/>
<polygon fill="#191970" stroke="#191970" points="79.4137,-165.5863 70.6505,-159.6318 73.7877,-169.7515 79.4137,-165.5863"/>
</g>
<!-- Node3 -->
<g id="node3" class="node">
<title>Node3</title>
<g id="a_node3"><a xlink:href="../../d2/d12/classgenfit_1_1RKTrackRep.html#a44091ce8605a38c40d4a4f1692af448b" target="_top" xlink:title="Extrapolates the state to the cone surface, and returns the extrapolation length and, via reference, the extrapolated state.">
<polygon fill="none" stroke="#000000" points="163.5,-204.5 163.5,-236.5 280.5,-236.5 280.5,-204.5 163.5,-204.5"/>
<text text-anchor="start" x="171.5" y="-223.5" font-family="FreeSans" font-size="10.00" fill="#000000">genfit::RKTrackRep</text>
<text text-anchor="middle" x="222" y="-211.5" font-family="FreeSans" font-size="10.00" fill="#000000">::extrapolateToCone</text>
</a>
</g>
</g>
<!-- Node1&#45;&gt;Node3 -->
<g id="edge2" class="edge">
<title>Node1&#45;&gt;Node3</title>
<path fill="none" stroke="#191970" d="M95.3833,-164.6059C113.0376,-174.583 134.8149,-186.2946 155,-195.5 161.7776,-198.5909 169.0587,-201.6063 176.2349,-204.4117"/>
<polygon fill="#191970" stroke="#191970" points="96.9773,-161.4858 86.5573,-159.5691 93.5077,-167.5655 96.9773,-161.4858"/>
</g>
<!-- Node4 -->
<g id="node4" class="node">
<title>Node4</title>
<g id="a_node4"><a xlink:href="../../d2/d12/classgenfit_1_1RKTrackRep.html#abb4665294ae573dc5423f2975bb8b3e7" target="_top" xlink:title="Extrapolates the state to the cylinder surface, and returns the extrapolation length and...">
<polygon fill="none" stroke="#000000" points="155,-153.5 155,-185.5 289,-185.5 289,-153.5 155,-153.5"/>
<text text-anchor="start" x="163" y="-172.5" font-family="FreeSans" font-size="10.00" fill="#000000">genfit::RKTrackRep</text>
<text text-anchor="middle" x="222" y="-160.5" font-family="FreeSans" font-size="10.00" fill="#000000">::extrapolateToCylinder</text>
</a>
</g>
</g>
<!-- Node1&#45;&gt;Node4 -->
<g id="edge3" class="edge">
<title>Node1&#45;&gt;Node4</title>
<path fill="none" stroke="#191970" d="M128.9965,-154.6194C137.5274,-155.9844 146.2349,-157.3776 154.732,-158.7371"/>
<polygon fill="#191970" stroke="#191970" points="129.5137,-151.1578 119.0863,-153.0338 128.4077,-158.0698 129.5137,-151.1578"/>
</g>
<!-- Node5 -->
<g id="node5" class="node">
<title>Node5</title>
<g id="a_node5"><a xlink:href="../../d2/d12/classgenfit_1_1RKTrackRep.html#a216b86da9a7238ff9cf24e944b0f9e4b" target="_top" xlink:title="Extrapolates the state to the POCA to a line, and returns the extrapolation length and...">
<polygon fill="none" stroke="#000000" points="165.5,-102.5 165.5,-134.5 278.5,-134.5 278.5,-102.5 165.5,-102.5"/>
<text text-anchor="start" x="173.5" y="-121.5" font-family="FreeSans" font-size="10.00" fill="#000000">genfit::RKTrackRep</text>
<text text-anchor="middle" x="222" y="-109.5" font-family="FreeSans" font-size="10.00" fill="#000000">::extrapolateToLine</text>
</a>
</g>
</g>
<!-- Node1&#45;&gt;Node5 -->
<g id="edge4" class="edge">
<title>Node1&#45;&gt;Node5</title>
<path fill="none" stroke="#191970" d="M129.1443,-132.7855C141.2452,-130.9238 153.6967,-129.0082 165.3953,-127.2084"/>
<polygon fill="#191970" stroke="#191970" points="128.4378,-129.3529 119.0863,-134.3329 129.5022,-136.2715 128.4378,-129.3529"/>
</g>
<!-- Node6 -->
<g id="node6" class="node">
<title>Node6</title>
<g id="a_node6"><a xlink:href="../../d2/d12/classgenfit_1_1RKTrackRep.html#aaa34d4913daa972f1947554c4b1e23a8" target="_top" xlink:title="Extrapolates the state to the sphere surface, and returns the extrapolation length and...">
<polygon fill="none" stroke="#000000" points="158.5,-51.5 158.5,-83.5 285.5,-83.5 285.5,-51.5 158.5,-51.5"/>
<text text-anchor="start" x="166.5" y="-70.5" font-family="FreeSans" font-size="10.00" fill="#000000">genfit::RKTrackRep</text>
<text text-anchor="middle" x="222" y="-58.5" font-family="FreeSans" font-size="10.00" fill="#000000">::extrapolateToSphere</text>
</a>
</g>
</g>
<!-- Node1&#45;&gt;Node6 -->
<g id="edge5" class="edge">
<title>Node1&#45;&gt;Node6</title>
<path fill="none" stroke="#191970" d="M97.5517,-122.3257C114.8577,-113.0221 135.7338,-102.2484 155,-93.5 162.4981,-90.0953 170.5832,-86.7179 178.4544,-83.5802"/>
<polygon fill="#191970" stroke="#191970" points="95.4606,-119.4781 88.3374,-127.321 98.7968,-125.632 95.4606,-119.4781"/>
</g>
<!-- Node7 -->
<g id="node7" class="node">
<title>Node7</title>
<g id="a_node7"><a xlink:href="../../d2/d12/classgenfit_1_1RKTrackRep.html#abb38b9cdcf9cfa490b795530579bcd73" target="_top" xlink:title="genfit::RKTrackRep\l::extrapToPoint">
<polygon fill="none" stroke="#000000" points="166.5,-.5 166.5,-32.5 277.5,-32.5 277.5,-.5 166.5,-.5"/>
<text text-anchor="start" x="174.5" y="-19.5" font-family="FreeSans" font-size="10.00" fill="#000000">genfit::RKTrackRep</text>
<text text-anchor="middle" x="222" y="-7.5" font-family="FreeSans" font-size="10.00" fill="#000000">::extrapToPoint</text>
</a>
</g>
</g>
<!-- Node1&#45;&gt;Node7 -->
<g id="edge6" class="edge">
<title>Node1&#45;&gt;Node7</title>
<path fill="none" stroke="#191970" d="M77.2094,-119.3289C94.7792,-96.8126 123.5655,-63.6281 155,-42.5 160.4883,-38.8111 166.5759,-35.5353 172.7794,-32.6595"/>
<polygon fill="#191970" stroke="#191970" points="74.3395,-117.3199 71.0426,-127.3888 79.8989,-121.5736 74.3395,-117.3199"/>
</g>
<!-- Node8 -->
<g id="node8" class="node">
<title>Node8</title>
<g id="a_node8"><a xlink:href="../../d2/d12/classgenfit_1_1RKTrackRep.html#aff9f0db2e194bd9889386cc73ed2d0cd" target="_top" xlink:title="Extrapolates the state to the POCA to a point, and returns the extrapolation length and...">
<polygon fill="none" stroke="#000000" points="325,-.5 325,-32.5 442,-32.5 442,-.5 325,-.5"/>
<text text-anchor="start" x="333" y="-19.5" font-family="FreeSans" font-size="10.00" fill="#000000">genfit::RKTrackRep</text>
<text text-anchor="middle" x="383.5" y="-7.5" font-family="FreeSans" font-size="10.00" fill="#000000">::extrapolateToPoint</text>
</a>
</g>
</g>
<!-- Node7&#45;&gt;Node8 -->
<g id="edge7" class="edge">
<title>Node7&#45;&gt;Node8</title>
<path fill="none" stroke="#191970" d="M287.7434,-16.5C300.0089,-16.5 312.753,-16.5 324.7897,-16.5"/>
<polygon fill="#191970" stroke="#191970" points="287.5792,-13.0001 277.5791,-16.5 287.5791,-20.0001 287.5792,-13.0001"/>
</g>
</g>
</svg>
