<?xml version="1.0" encoding="UTF-8" standalone="no"?>
<!DOCTYPE svg PUBLIC "-//W3C//DTD SVG 1.1//EN"
 "http://www.w3.org/Graphics/SVG/1.1/DTD/svg11.dtd">
<!-- Generated by graphviz version 2.40.1 (20161225.0304)
 -->
<!-- Title: genfit::RKTrackRep::getBackwardJacobianAndNoise Pages: 1 -->
<svg width="344pt" height="92pt"
 viewBox="0.00 0.00 344.00 92.00" xmlns="http://www.w3.org/2000/svg" xmlns:xlink="http://www.w3.org/1999/xlink">
<g id="graph0" class="graph" transform="scale(1 1) rotate(0) translate(4 88)">
<title>genfit::RKTrackRep::getBackwardJacobianAndNoise</title>
<!-- Node1 -->
<g id="node1" class="node">
<title>Node1</title>
<polygon fill="#bfbfbf" stroke="#000000" points="0,-25.5 0,-57.5 179,-57.5 179,-25.5 0,-25.5"/>
<text text-anchor="start" x="8" y="-44.5" font-family="FreeSans" font-size="10.00" fill="#000000">genfit::RKTrackRep</text>
<text text-anchor="middle" x="89.5" y="-32.5" font-family="FreeSans" font-size="10.00" fill="#000000">::getBackwardJacobianAndNoise</text>
</g>
<!-- Node2 -->
<g id="node2" class="node">
<title>Node2</title>
<g id="a_node2"><a xlink:href="../../de/dd5/classgenfit_1_1StateOnPlane.html#a61a05215bec767cf6919b083808a37d2" target="_top" xlink:title="genfit::StateOnPlane\l::getState">
<polygon fill="none" stroke="#000000" points="215,-51.5 215,-83.5 336,-83.5 336,-51.5 215,-51.5"/>
<text text-anchor="start" x="223" y="-70.5" font-family="FreeSans" font-size="10.00" fill="#000000">genfit::StateOnPlane</text>
<text text-anchor="middle" x="275.5" y="-58.5" font-family="FreeSans" font-size="10.00" fill="#000000">::getState</text>
</a>
</g>
</g>
<!-- Node1&#45;&gt;Node2 -->
<g id="edge1" class="edge">
<title>Node1&#45;&gt;Node2</title>
<path fill="none" stroke="#191970" d="M179.2311,-54.0431C187.8169,-55.2432 196.4399,-56.4486 204.8068,-57.6182"/>
<polygon fill="#191970" stroke="#191970" points="204.4778,-61.1061 214.8661,-59.0243 205.4469,-54.1735 204.4778,-61.1061"/>
</g>
<!-- Node3 -->
<g id="node3" class="node">
<title>Node3</title>
<g id="a_node3"><a xlink:href="../../d8/db3/classgenfit_1_1Exception.html#a13619975a1e1be5c1bd504b254e01f7a" target="_top" xlink:title="Set fatal flag.">
<polygon fill="none" stroke="#000000" points="221.5,-.5 221.5,-32.5 329.5,-32.5 329.5,-.5 221.5,-.5"/>
<text text-anchor="start" x="229.5" y="-19.5" font-family="FreeSans" font-size="10.00" fill="#000000">genfit::Exception::</text>
<text text-anchor="middle" x="275.5" y="-7.5" font-family="FreeSans" font-size="10.00" fill="#000000">setFatal</text>
</a>
</g>
</g>
<!-- Node1&#45;&gt;Node3 -->
<g id="edge2" class="edge">
<title>Node1&#45;&gt;Node3</title>
<path fill="none" stroke="#191970" d="M179.2311,-29.4394C190.0304,-27.9878 200.8887,-26.5284 211.2223,-25.1395"/>
<polygon fill="#191970" stroke="#191970" points="211.9148,-28.578 221.3594,-23.777 210.9823,-21.6403 211.9148,-28.578"/>
</g>
</g>
</svg>
