<?xml version="1.0" encoding="UTF-8" standalone="no"?>
<!DOCTYPE svg PUBLIC "-//W3C//DTD SVG 1.1//EN"
 "http://www.w3.org/Graphics/SVG/1.1/DTD/svg11.dtd">
<!-- Generated by graphviz version 2.40.1 (20161225.0304)
 -->
<!-- Title: PHTrackSeeding::GetNodes Pages: 1 -->
<svg width="509pt" height="197pt"
 viewBox="0.00 0.00 509.00 197.00" xmlns="http://www.w3.org/2000/svg" xmlns:xlink="http://www.w3.org/1999/xlink">
<g id="graph0" class="graph" transform="scale(1 1) rotate(0) translate(4 193)">
<title>PHTrackSeeding::GetNodes</title>
<!-- Node1 -->
<g id="node1" class="node">
<title>Node1</title>
<polygon fill="#bfbfbf" stroke="#000000" points="0,-90.5 0,-110.5 154,-110.5 154,-90.5 0,-90.5"/>
<text text-anchor="middle" x="77" y="-97.5" font-family="FreeSans" font-size="10.00" fill="#000000">PHTrackSeeding::GetNodes</text>
</g>
<!-- Node2 -->
<g id="node2" class="node">
<title>Node2</title>
<g id="a_node2"><a xlink:href="../../d4/d5a/classPHTrackSeeding.html#a03820e74fc2dbcf18cc2d875b9f050c3" target="_top" xlink:title="PHTrackSeeding::Setup">
<polygon fill="none" stroke="#000000" points="190,-90.5 190,-110.5 324,-110.5 324,-90.5 190,-90.5"/>
<text text-anchor="middle" x="257" y="-97.5" font-family="FreeSans" font-size="10.00" fill="#000000">PHTrackSeeding::Setup</text>
</a>
</g>
</g>
<!-- Node1&#45;&gt;Node2 -->
<g id="edge1" class="edge">
<title>Node1&#45;&gt;Node2</title>
<path fill="none" stroke="#191970" d="M164.2373,-100.5C172.8858,-100.5 181.5684,-100.5 189.9651,-100.5"/>
<polygon fill="#191970" stroke="#191970" points="164.1196,-97.0001 154.1195,-100.5 164.1195,-104.0001 164.1196,-97.0001"/>
</g>
<!-- Node3 -->
<g id="node3" class="node">
<title>Node3</title>
<g id="a_node3"><a xlink:href="../../d1/d08/classPHCASeeding.html#aabc85b46380b6507a80c5f7e4de78922" target="_top" xlink:title="PHCASeeding::Setup">
<polygon fill="none" stroke="#000000" points="370,-168.5 370,-188.5 491,-188.5 491,-168.5 370,-168.5"/>
<text text-anchor="middle" x="430.5" y="-175.5" font-family="FreeSans" font-size="10.00" fill="#000000">PHCASeeding::Setup</text>
</a>
</g>
</g>
<!-- Node2&#45;&gt;Node3 -->
<g id="edge2" class="edge">
<title>Node2&#45;&gt;Node3</title>
<path fill="none" stroke="#191970" d="M280.2976,-116.1671C300.6163,-129.2542 331.26,-147.6285 360,-159.5 368.3184,-162.9361 377.4456,-165.9277 386.293,-168.457"/>
<polygon fill="#191970" stroke="#191970" points="282.0179,-113.1103 271.7324,-110.5686 278.1879,-118.9696 282.0179,-113.1103"/>
</g>
<!-- Node4 -->
<g id="node4" class="node">
<title>Node4</title>
<g id="a_node4"><a xlink:href="../../d8/dd4/classPHHoughSeeding.html#afd17a769426edf60c5ea7bffa65622e3" target="_top" xlink:title="PHHoughSeeding::Setup">
<polygon fill="none" stroke="#000000" points="360,-129.5 360,-149.5 501,-149.5 501,-129.5 360,-129.5"/>
<text text-anchor="middle" x="430.5" y="-136.5" font-family="FreeSans" font-size="10.00" fill="#000000">PHHoughSeeding::Setup</text>
</a>
</g>
</g>
<!-- Node2&#45;&gt;Node4 -->
<g id="edge3" class="edge">
<title>Node2&#45;&gt;Node4</title>
<path fill="none" stroke="#191970" d="M311.6783,-112.7908C335.6081,-118.1698 363.3272,-124.4006 385.9709,-129.4906"/>
<polygon fill="#191970" stroke="#191970" points="312.2047,-109.3219 301.6806,-110.5435 310.6695,-116.1515 312.2047,-109.3219"/>
</g>
<!-- Node5 -->
<g id="node5" class="node">
<title>Node5</title>
<g id="a_node5"><a xlink:href="../../da/df1/classPHRTreeSeeding.html#a15f511fcb6e3b9e26d5d0ccf8ed14fd5" target="_top" xlink:title="PHRTreeSeeding::Setup">
<polygon fill="none" stroke="#000000" points="363,-90.5 363,-110.5 498,-110.5 498,-90.5 363,-90.5"/>
<text text-anchor="middle" x="430.5" y="-97.5" font-family="FreeSans" font-size="10.00" fill="#000000">PHRTreeSeeding::Setup</text>
</a>
</g>
</g>
<!-- Node2&#45;&gt;Node5 -->
<g id="edge4" class="edge">
<title>Node2&#45;&gt;Node5</title>
<path fill="none" stroke="#191970" d="M334.2895,-100.5C343.774,-100.5 353.411,-100.5 362.74,-100.5"/>
<polygon fill="#191970" stroke="#191970" points="334.0797,-97.0001 324.0796,-100.5 334.0796,-104.0001 334.0797,-97.0001"/>
</g>
<!-- Node6 -->
<g id="node6" class="node">
<title>Node6</title>
<g id="a_node6"><a xlink:href="../../d4/d5a/classPHTrackSeeding.html#a9d43dfe9118d32f44c1db0106847fc71" target="_top" xlink:title="PHTrackSeeding::InitRun">
<polygon fill="none" stroke="#000000" points="361,-51.5 361,-71.5 500,-71.5 500,-51.5 361,-51.5"/>
<text text-anchor="middle" x="430.5" y="-58.5" font-family="FreeSans" font-size="10.00" fill="#000000">PHTrackSeeding::InitRun</text>
</a>
</g>
</g>
<!-- Node2&#45;&gt;Node6 -->
<g id="edge5" class="edge">
<title>Node2&#45;&gt;Node6</title>
<path fill="none" stroke="#191970" d="M311.6783,-88.2092C335.6081,-82.8302 363.3272,-76.5994 385.9709,-71.5094"/>
<polygon fill="#191970" stroke="#191970" points="310.6695,-84.8485 301.6806,-90.4565 312.2047,-91.6781 310.6695,-84.8485"/>
</g>
<!-- Node7 -->
<g id="node7" class="node">
<title>Node7</title>
<g id="a_node7"><a xlink:href="../../d5/da2/classPHTruthTrackSeeding.html#ab8609f8e5a5157acecbfd2e9a09f8864" target="_top" xlink:title="PHTruthTrackSeeding\l::Setup">
<polygon fill="none" stroke="#000000" points="369,-.5 369,-32.5 492,-32.5 492,-.5 369,-.5"/>
<text text-anchor="start" x="377" y="-19.5" font-family="FreeSans" font-size="10.00" fill="#000000">PHTruthTrackSeeding</text>
<text text-anchor="middle" x="430.5" y="-7.5" font-family="FreeSans" font-size="10.00" fill="#000000">::Setup</text>
</a>
</g>
</g>
<!-- Node2&#45;&gt;Node7 -->
<g id="edge6" class="edge">
<title>Node2&#45;&gt;Node7</title>
<path fill="none" stroke="#191970" d="M281.688,-85.1201C302.1958,-72.7082 332.3776,-55.2715 360,-42.5 367.5782,-38.9961 375.7736,-35.6192 383.8039,-32.5247"/>
<polygon fill="#191970" stroke="#191970" points="279.6986,-82.2339 272.9902,-90.4344 283.3483,-88.2072 279.6986,-82.2339"/>
</g>
</g>
</svg>
