<?xml version="1.0" encoding="UTF-8" standalone="no"?>
<!DOCTYPE svg PUBLIC "-//W3C//DTD SVG 1.1//EN"
 "http://www.w3.org/Graphics/SVG/1.1/DTD/svg11.dtd">
<!-- Generated by graphviz version 2.40.1 (20161225.0304)
 -->
<!-- Title: RecoConversionEval::doNodePointers Pages: 1 -->
<svg width="1084pt" height="1515pt"
 viewBox="0.00 0.00 1084.00 1515.00" xmlns="http://www.w3.org/2000/svg" xmlns:xlink="http://www.w3.org/1999/xlink">
<g id="graph0" class="graph" transform="scale(1 1) rotate(0) translate(4 1511)">
<title>RecoConversionEval::doNodePointers</title>
<!-- Node1 -->
<g id="node1" class="node">
<title>Node1</title>
<polygon fill="#bfbfbf" stroke="#000000" points="0,-1246.5 0,-1278.5 119,-1278.5 119,-1246.5 0,-1246.5"/>
<text text-anchor="start" x="8" y="-1265.5" font-family="FreeSans" font-size="10.00" fill="#000000">RecoConversionEval</text>
<text text-anchor="middle" x="59.5" y="-1253.5" font-family="FreeSans" font-size="10.00" fill="#000000">::doNodePointers</text>
</g>
<!-- Node2 -->
<g id="node2" class="node">
<title>Node2</title>
<g id="a_node2"><a xlink:href="../../d6/d17/classSVReco.html#a19081506d2161465fdf3f36527aa0e18" target="_top" xlink:title="Initialization, called for initialization at each event.">
<polygon fill="none" stroke="#000000" points="155,-1252.5 155,-1272.5 261,-1272.5 261,-1252.5 155,-1252.5"/>
<text text-anchor="middle" x="208" y="-1259.5" font-family="FreeSans" font-size="10.00" fill="#000000">SVReco::InitEvent</text>
</a>
</g>
</g>
<!-- Node1&#45;&gt;Node2 -->
<g id="edge1" class="edge">
<title>Node1&#45;&gt;Node2</title>
<path fill="none" stroke="#191970" d="M119.045,-1262.5C127.4205,-1262.5 136.056,-1262.5 144.5019,-1262.5"/>
<polygon fill="#191970" stroke="#191970" points="144.6798,-1266.0001 154.6798,-1262.5 144.6798,-1259.0001 144.6798,-1266.0001"/>
</g>
<!-- Node3 -->
<g id="node3" class="node">
<title>Node3</title>
<g id="a_node3"><a xlink:href="../../d6/d17/classSVReco.html#a94442e8e291c58f8f9fc2dcaefb9b129" target="_top" xlink:title="Get all the nodes.">
<polygon fill="none" stroke="#000000" points="315.5,-1486.5 315.5,-1506.5 425.5,-1506.5 425.5,-1486.5 315.5,-1486.5"/>
<text text-anchor="middle" x="370.5" y="-1493.5" font-family="FreeSans" font-size="10.00" fill="#000000">SVReco::GetNodes</text>
</a>
</g>
</g>
<!-- Node2&#45;&gt;Node3 -->
<g id="edge2" class="edge">
<title>Node2&#45;&gt;Node3</title>
<path fill="none" stroke="#191970" d="M209.0734,-1272.8927C213.2292,-1307.599 231.4523,-1420.5137 297,-1477.5 299.8534,-1479.9807 302.9903,-1482.144 306.3112,-1484.0299"/>
<polygon fill="#191970" stroke="#191970" points="304.9318,-1487.2498 315.4638,-1488.4016 307.9489,-1480.9333 304.9318,-1487.2498"/>
</g>
<!-- Node4 -->
<g id="node4" class="node">
<title>Node4</title>
<g id="a_node4"><a xlink:href="../../d7/d8b/classSvtxTrackMap.html#a8c16bb47fdace6d5516d1803ffe54706" target="_top" xlink:title="SvtxTrackMap::begin">
<polygon fill="none" stroke="#000000" points="310,-1447.5 310,-1467.5 431,-1467.5 431,-1447.5 310,-1447.5"/>
<text text-anchor="middle" x="370.5" y="-1454.5" font-family="FreeSans" font-size="10.00" fill="#000000">SvtxTrackMap::begin</text>
</a>
</g>
</g>
<!-- Node2&#45;&gt;Node4 -->
<g id="edge3" class="edge">
<title>Node2&#45;&gt;Node4</title>
<path fill="none" stroke="#191970" d="M210.0665,-1272.7033C216.754,-1303.0096 240.7227,-1393.1961 297,-1438.5 298.8352,-1439.9773 300.7724,-1441.341 302.7885,-1442.5996"/>
<polygon fill="#191970" stroke="#191970" points="301.5809,-1445.9189 312.0612,-1447.4725 304.8372,-1439.7223 301.5809,-1445.9189"/>
</g>
<!-- Node5 -->
<g id="node5" class="node">
<title>Node5</title>
<g id="a_node5"><a xlink:href="../../d7/d8b/classSvtxTrackMap.html#a1c7ae993700819b7d0a8e3f3d74fa99c" target="_top" xlink:title="SvtxTrackMap::end">
<polygon fill="none" stroke="#000000" points="314.5,-1408.5 314.5,-1428.5 426.5,-1428.5 426.5,-1408.5 314.5,-1408.5"/>
<text text-anchor="middle" x="370.5" y="-1415.5" font-family="FreeSans" font-size="10.00" fill="#000000">SvtxTrackMap::end</text>
</a>
</g>
</g>
<!-- Node2&#45;&gt;Node5 -->
<g id="edge4" class="edge">
<title>Node2&#45;&gt;Node5</title>
<path fill="none" stroke="#191970" d="M211.5704,-1272.6015C221.1253,-1298.116 249.8072,-1365.5356 297,-1399.5 299.539,-1401.3273 302.2389,-1402.9791 305.0482,-1404.4722"/>
<polygon fill="#191970" stroke="#191970" points="303.7797,-1407.7407 314.3291,-1408.7214 306.6938,-1401.3761 303.7797,-1407.7407"/>
</g>
<!-- Node6 -->
<g id="node6" class="node">
<title>Node6</title>
<g id="a_node6"><a xlink:href="../../d2/db8/classSvtxTrack.html#a65bd7f7464194995552b517c05183067" target="_top" xlink:title="SvtxTrack::get_ndf">
<polygon fill="none" stroke="#000000" points="315.5,-1369.5 315.5,-1389.5 425.5,-1389.5 425.5,-1369.5 315.5,-1369.5"/>
<text text-anchor="middle" x="370.5" y="-1376.5" font-family="FreeSans" font-size="10.00" fill="#000000">SvtxTrack::get_ndf</text>
</a>
</g>
</g>
<!-- Node2&#45;&gt;Node6 -->
<g id="edge5" class="edge">
<title>Node2&#45;&gt;Node6</title>
<path fill="none" stroke="#191970" d="M214.2166,-1272.5951C227.0774,-1292.5989 258.6348,-1337.3341 297,-1360.5 300.1767,-1362.4182 303.5438,-1364.1443 307.0209,-1365.6973"/>
<polygon fill="#191970" stroke="#191970" points="305.8404,-1368.9942 316.4268,-1369.4172 308.4148,-1362.4848 305.8404,-1368.9942"/>
</g>
<!-- Node7 -->
<g id="node7" class="node">
<title>Node7</title>
<g id="a_node7"><a xlink:href="../../d2/db8/classSvtxTrack.html#af6f03ad537260f2ceef84cf876e22deb" target="_top" xlink:title="SvtxTrack::get_pt">
<polygon fill="none" stroke="#000000" points="318.5,-1330.5 318.5,-1350.5 422.5,-1350.5 422.5,-1330.5 318.5,-1330.5"/>
<text text-anchor="middle" x="370.5" y="-1337.5" font-family="FreeSans" font-size="10.00" fill="#000000">SvtxTrack::get_pt</text>
</a>
</g>
</g>
<!-- Node2&#45;&gt;Node7 -->
<g id="edge6" class="edge">
<title>Node2&#45;&gt;Node7</title>
<path fill="none" stroke="#191970" d="M220.1918,-1272.5164C236.6581,-1285.5734 267.3669,-1308.2956 297,-1321.5 301.966,-1323.7128 307.24,-1325.7058 312.5937,-1327.4924"/>
<polygon fill="#191970" stroke="#191970" points="311.6795,-1330.8733 322.2673,-1330.4883 313.7503,-1324.1866 311.6795,-1330.8733"/>
</g>
<!-- Node8 -->
<g id="node8" class="node">
<title>Node8</title>
<g id="a_node8"><a xlink:href="../../d2/db8/classSvtxTrack.html#ab0dfef96ff528427922596ca5b2fb3c7" target="_top" xlink:title="SvtxTrack::get_chisq">
<polygon fill="none" stroke="#000000" points="311,-1291.5 311,-1311.5 430,-1311.5 430,-1291.5 311,-1291.5"/>
<text text-anchor="middle" x="370.5" y="-1298.5" font-family="FreeSans" font-size="10.00" fill="#000000">SvtxTrack::get_chisq</text>
</a>
</g>
</g>
<!-- Node2&#45;&gt;Node8 -->
<g id="edge7" class="edge">
<title>Node2&#45;&gt;Node8</title>
<path fill="none" stroke="#191970" d="M249.8478,-1272.5435C270.8874,-1277.593 296.578,-1283.7587 318.8373,-1289.1009"/>
<polygon fill="#191970" stroke="#191970" points="318.2533,-1292.5601 328.794,-1291.4906 319.887,-1285.7534 318.2533,-1292.5601"/>
</g>
<!-- Node9 -->
<g id="node9" class="node">
<title>Node9</title>
<g id="a_node9"><a xlink:href="../../d2/db8/classSvtxTrack.html#ada3467dfb56c3a0596d2cbf4f36502de" target="_top" xlink:title="SvtxTrack::get_dca3d_xy">
<polygon fill="none" stroke="#000000" points="300,-1252.5 300,-1272.5 441,-1272.5 441,-1252.5 300,-1252.5"/>
<text text-anchor="middle" x="370.5" y="-1259.5" font-family="FreeSans" font-size="10.00" fill="#000000">SvtxTrack::get_dca3d_xy</text>
</a>
</g>
</g>
<!-- Node2&#45;&gt;Node9 -->
<g id="edge8" class="edge">
<title>Node2&#45;&gt;Node9</title>
<path fill="none" stroke="#191970" d="M261.2086,-1262.5C270.3455,-1262.5 280.0216,-1262.5 289.6895,-1262.5"/>
<polygon fill="#191970" stroke="#191970" points="289.7385,-1266.0001 299.7385,-1262.5 289.7384,-1259.0001 289.7385,-1266.0001"/>
</g>
<!-- Node10 -->
<g id="node10" class="node">
<title>Node10</title>
<g id="a_node10"><a xlink:href="../../d2/db8/classSvtxTrack.html#a9b6cb11fc21e0232ea2ec34a991c3a36" target="_top" xlink:title="SvtxTrack::get_dca3d_z">
<polygon fill="none" stroke="#000000" points="303,-1213.5 303,-1233.5 438,-1233.5 438,-1213.5 303,-1213.5"/>
<text text-anchor="middle" x="370.5" y="-1220.5" font-family="FreeSans" font-size="10.00" fill="#000000">SvtxTrack::get_dca3d_z</text>
</a>
</g>
</g>
<!-- Node2&#45;&gt;Node10 -->
<g id="edge9" class="edge">
<title>Node2&#45;&gt;Node10</title>
<path fill="none" stroke="#191970" d="M249.8478,-1252.4565C270.8874,-1247.407 296.578,-1241.2413 318.8373,-1235.8991"/>
<polygon fill="#191970" stroke="#191970" points="319.887,-1239.2466 328.794,-1233.5094 318.2533,-1232.4399 319.887,-1239.2466"/>
</g>
<!-- Node11 -->
<g id="node11" class="node">
<title>Node11</title>
<g id="a_node11"><a xlink:href="../../d2/db8/classSvtxTrack.html#a6d8dace95bd6d93aa08d66c5e2c3ad85" target="_top" xlink:title="SvtxTrack::begin_cluster_keys">
<polygon fill="none" stroke="#000000" points="494,-1176.5 494,-1196.5 662,-1196.5 662,-1176.5 494,-1176.5"/>
<text text-anchor="middle" x="578" y="-1183.5" font-family="FreeSans" font-size="10.00" fill="#000000">SvtxTrack::begin_cluster_keys</text>
</a>
</g>
</g>
<!-- Node2&#45;&gt;Node11 -->
<g id="edge10" class="edge">
<title>Node2&#45;&gt;Node11</title>
<path fill="none" stroke="#191970" d="M219.3451,-1252.2793C235.3344,-1238.5788 266.0211,-1214.7923 297,-1204.5 356.9413,-1184.5852 427.9578,-1180.1878 483.6003,-1180.7171"/>
<polygon fill="#191970" stroke="#191970" points="483.7534,-1184.2197 493.805,-1180.8706 483.8588,-1177.2205 483.7534,-1184.2197"/>
</g>
<!-- Node12 -->
<g id="node12" class="node">
<title>Node12</title>
<g id="a_node12"><a xlink:href="../../d2/db8/classSvtxTrack.html#ac0e8c2214fa9f988c00a561ed22aa085" target="_top" xlink:title="SvtxTrack::end_cluster_keys">
<polygon fill="none" stroke="#000000" points="499,-1137.5 499,-1157.5 657,-1157.5 657,-1137.5 499,-1137.5"/>
<text text-anchor="middle" x="578" y="-1144.5" font-family="FreeSans" font-size="10.00" fill="#000000">SvtxTrack::end_cluster_keys</text>
</a>
</g>
</g>
<!-- Node2&#45;&gt;Node12 -->
<g id="edge11" class="edge">
<title>Node2&#45;&gt;Node12</title>
<path fill="none" stroke="#191970" d="M214.8933,-1252.326C228.2363,-1233.5777 259.5976,-1193.9053 297,-1176.5 356.8787,-1148.6353 431.5168,-1142.0615 488.8174,-1142.0896"/>
<polygon fill="#191970" stroke="#191970" points="488.919,-1145.5903 498.9441,-1142.1629 488.9698,-1138.5905 488.919,-1145.5903"/>
</g>
<!-- Node13 -->
<g id="node13" class="node">
<title>Node13</title>
<g id="a_node13"><a xlink:href="../../d6/d3f/namespaceTrkrDefs.html#ad4a7fd368bbf1d5d97ff4fd3e81a6100" target="_top" xlink:title="Get the layer number from either key type.">
<polygon fill="none" stroke="#000000" points="522.5,-1098.5 522.5,-1118.5 633.5,-1118.5 633.5,-1098.5 522.5,-1098.5"/>
<text text-anchor="middle" x="578" y="-1105.5" font-family="FreeSans" font-size="10.00" fill="#000000">TrkrDefs::getLayer</text>
</a>
</g>
</g>
<!-- Node2&#45;&gt;Node13 -->
<g id="edge12" class="edge">
<title>Node2&#45;&gt;Node13</title>
<path fill="none" stroke="#191970" d="M211.9184,-1252.3281C221.8894,-1227.988 250.757,-1166.4177 297,-1139.5 362.861,-1101.1628 452.1992,-1097.926 512.3085,-1101.3146"/>
<polygon fill="#191970" stroke="#191970" points="512.2337,-1104.8169 522.4371,-1101.9637 512.6814,-1097.8312 512.2337,-1104.8169"/>
</g>
<!-- Node14 -->
<g id="node14" class="node">
<title>Node14</title>
<g id="a_node14"><a xlink:href="../../d6/d17/classSVReco.html#af99925be18cc9afbb2b9936df3a925db" target="_top" xlink:title="Uses the tracking clusters exclusively to make a GFTrack.">
<polygon fill="none" stroke="#000000" points="297,-592.5 297,-612.5 444,-612.5 444,-592.5 297,-592.5"/>
<text text-anchor="middle" x="370.5" y="-599.5" font-family="FreeSans" font-size="10.00" fill="#000000">SVReco::MakeGenFitTrack</text>
</a>
</g>
</g>
<!-- Node2&#45;&gt;Node14 -->
<g id="edge13" class="edge">
<title>Node2&#45;&gt;Node14</title>
<path fill="none" stroke="#191970" d="M210.4875,-1252.3971C228.6153,-1178.7703 340.3987,-724.7578 365.4999,-622.8081"/>
<polygon fill="#191970" stroke="#191970" points="368.9556,-623.4123 367.9479,-612.8655 362.1586,-621.7387 368.9556,-623.4123"/>
</g>
<!-- Node50 -->
<g id="node50" class="node">
<title>Node50</title>
<g id="a_node50"><a xlink:href="../../d2/db8/classSvtxTrack.html#a5f934a41fd25eaa343dd267112b4537d" target="_top" xlink:title="SvtxTrack::get_id">
<polygon fill="none" stroke="#000000" points="527,-.5 527,-20.5 629,-20.5 629,-.5 527,-.5"/>
<text text-anchor="middle" x="578" y="-7.5" font-family="FreeSans" font-size="10.00" fill="#000000">SvtxTrack::get_id</text>
</a>
</g>
</g>
<!-- Node2&#45;&gt;Node50 -->
<g id="edge57" class="edge">
<title>Node2&#45;&gt;Node50</title>
<path fill="none" stroke="#191970" d="M208.6045,-1252.4058C212.4827,-1190.1109 235.6784,-851.8128 297,-583.5 354.7739,-330.7102 285.3297,-200.8008 480,-29.5 490.2124,-20.5136 503.3753,-15.2516 516.7193,-12.275"/>
<polygon fill="#191970" stroke="#191970" points="517.701,-15.654 526.913,-10.4205 516.448,-8.767 517.701,-15.654"/>
</g>
<!-- Node14&#45;&gt;Node11 -->
<g id="edge21" class="edge">
<title>Node14&#45;&gt;Node11</title>
<path fill="none" stroke="#191970" d="M370.9774,-612.9147C374.4034,-682.9521 397.5179,-1085.0122 480,-1167.5 481.6428,-1169.1429 483.3824,-1170.6659 485.2039,-1172.077"/>
<polygon fill="#191970" stroke="#191970" points="483.3774,-1175.064 493.6711,-1177.572 487.1881,-1169.1922 483.3774,-1175.064"/>
</g>
<!-- Node14&#45;&gt;Node12 -->
<g id="edge22" class="edge">
<title>Node14&#45;&gt;Node12</title>
<path fill="none" stroke="#191970" d="M371.1193,-612.6266C375.3902,-679.0578 402.634,-1052.1899 480,-1128.5 482.969,-1131.4284 486.2456,-1133.9742 489.7459,-1136.1834"/>
<polygon fill="#191970" stroke="#191970" points="488.3838,-1139.4225 498.8593,-1141.0079 491.6588,-1133.2359 488.3838,-1139.4225"/>
</g>
<!-- Node14&#45;&gt;Node13 -->
<g id="edge26" class="edge">
<title>Node14&#45;&gt;Node13</title>
<path fill="none" stroke="#191970" d="M371.3049,-612.692C376.5448,-676.4035 407.8716,-1019.4802 480,-1089.5 488.8406,-1098.0821 500.3289,-1103.3629 512.3127,-1106.5141"/>
<polygon fill="#191970" stroke="#191970" points="511.9369,-1110.0129 522.4483,-1108.6859 513.4036,-1103.1683 511.9369,-1110.0129"/>
</g>
<!-- Node15 -->
<g id="node15" class="node">
<title>Node15</title>
<g id="a_node15"><a xlink:href="../../d2/db8/classSvtxTrack.html#af2317becf2120fcad5cefaa61a01407e" target="_top" xlink:title="SvtxTrack::get_x">
<polygon fill="none" stroke="#000000" points="528.5,-531.5 528.5,-551.5 627.5,-551.5 627.5,-531.5 528.5,-531.5"/>
<text text-anchor="middle" x="578" y="-538.5" font-family="FreeSans" font-size="10.00" fill="#000000">SvtxTrack::get_x</text>
</a>
</g>
</g>
<!-- Node14&#45;&gt;Node15 -->
<g id="edge14" class="edge">
<title>Node14&#45;&gt;Node15</title>
<path fill="none" stroke="#191970" d="M394.0625,-592.4476C415.9966,-583.3865 449.7596,-570.189 480,-561.5 492.2471,-557.981 505.5255,-554.8361 518.2375,-552.14"/>
<polygon fill="#191970" stroke="#191970" points="519.1901,-555.5174 528.2805,-550.0753 517.7805,-548.6608 519.1901,-555.5174"/>
</g>
<!-- Node16 -->
<g id="node16" class="node">
<title>Node16</title>
<g id="a_node16"><a xlink:href="../../d2/db8/classSvtxTrack.html#ac4bf3bd4ecaeff1ca06c48942a8b9236" target="_top" xlink:title="SvtxTrack::get_y">
<polygon fill="none" stroke="#000000" points="528.5,-492.5 528.5,-512.5 627.5,-512.5 627.5,-492.5 528.5,-492.5"/>
<text text-anchor="middle" x="578" y="-499.5" font-family="FreeSans" font-size="10.00" fill="#000000">SvtxTrack::get_y</text>
</a>
</g>
</g>
<!-- Node14&#45;&gt;Node16 -->
<g id="edge15" class="edge">
<title>Node14&#45;&gt;Node16</title>
<path fill="none" stroke="#191970" d="M381.0041,-592.3523C399.4386,-575.1497 439.5157,-540.3921 480,-522.5 492.0236,-517.1861 505.506,-513.2661 518.5329,-510.3802"/>
<polygon fill="#191970" stroke="#191970" points="519.2775,-513.8005 528.3741,-508.369 517.8758,-506.9422 519.2775,-513.8005"/>
</g>
<!-- Node17 -->
<g id="node17" class="node">
<title>Node17</title>
<g id="a_node17"><a xlink:href="../../d2/db8/classSvtxTrack.html#aaaa435dd9d41dbe836f0608712ca12db" target="_top" xlink:title="SvtxTrack::get_z">
<polygon fill="none" stroke="#000000" points="529,-453.5 529,-473.5 627,-473.5 627,-453.5 529,-453.5"/>
<text text-anchor="middle" x="578" y="-460.5" font-family="FreeSans" font-size="10.00" fill="#000000">SvtxTrack::get_z</text>
</a>
</g>
</g>
<!-- Node14&#45;&gt;Node17 -->
<g id="edge16" class="edge">
<title>Node14&#45;&gt;Node17</title>
<path fill="none" stroke="#191970" d="M376.6871,-592.2247C391.3835,-568.7846 430.8642,-511.2518 480,-483.5 491.7473,-476.8652 505.3909,-472.4154 518.6977,-469.4356"/>
<polygon fill="#191970" stroke="#191970" points="519.646,-472.8156 528.7708,-467.4315 518.2801,-465.9501 519.646,-472.8156"/>
</g>
<!-- Node18 -->
<g id="node18" class="node">
<title>Node18</title>
<g id="a_node18"><a xlink:href="../../d2/db8/classSvtxTrack.html#a79f3af39b753ecee85dc1d4e3db08cdd" target="_top" xlink:title="SvtxTrack::get_px">
<polygon fill="none" stroke="#000000" points="525,-414.5 525,-434.5 631,-434.5 631,-414.5 525,-414.5"/>
<text text-anchor="middle" x="578" y="-421.5" font-family="FreeSans" font-size="10.00" fill="#000000">SvtxTrack::get_px</text>
</a>
</g>
</g>
<!-- Node14&#45;&gt;Node18 -->
<g id="edge17" class="edge">
<title>Node14&#45;&gt;Node18</title>
<path fill="none" stroke="#191970" d="M374.3293,-592.3618C385.6354,-563.911 421.7715,-482.9028 480,-444.5 490.4087,-437.6353 502.6883,-433.048 514.9705,-430.0007"/>
<polygon fill="#191970" stroke="#191970" points="515.754,-433.4122 524.7854,-427.8729 514.2708,-426.5711 515.754,-433.4122"/>
</g>
<!-- Node19 -->
<g id="node19" class="node">
<title>Node19</title>
<g id="a_node19"><a xlink:href="../../d2/db8/classSvtxTrack.html#a5a9164fc95756dd9780755a55327fec5" target="_top" xlink:title="SvtxTrack::get_py">
<polygon fill="none" stroke="#000000" points="525,-375.5 525,-395.5 631,-395.5 631,-375.5 525,-375.5"/>
<text text-anchor="middle" x="578" y="-382.5" font-family="FreeSans" font-size="10.00" fill="#000000">SvtxTrack::get_py</text>
</a>
</g>
</g>
<!-- Node14&#45;&gt;Node19 -->
<g id="edge18" class="edge">
<title>Node14&#45;&gt;Node19</title>
<path fill="none" stroke="#191970" d="M372.9209,-592.329C381.3196,-559.4027 412.4564,-454.9957 480,-405.5 490.2231,-398.0086 502.583,-393.1631 515.0302,-390.0639"/>
<polygon fill="#191970" stroke="#191970" points="515.9442,-393.4477 524.9922,-387.9355 514.4816,-386.6022 515.9442,-393.4477"/>
</g>
<!-- Node20 -->
<g id="node20" class="node">
<title>Node20</title>
<g id="a_node20"><a xlink:href="../../d2/db8/classSvtxTrack.html#a826b1ab6d05d45e5148c4645befe4def" target="_top" xlink:title="SvtxTrack::get_pz">
<polygon fill="none" stroke="#000000" points="525.5,-336.5 525.5,-356.5 630.5,-356.5 630.5,-336.5 525.5,-336.5"/>
<text text-anchor="middle" x="578" y="-343.5" font-family="FreeSans" font-size="10.00" fill="#000000">SvtxTrack::get_pz</text>
</a>
</g>
</g>
<!-- Node14&#45;&gt;Node20 -->
<g id="edge19" class="edge">
<title>Node14&#45;&gt;Node20</title>
<path fill="none" stroke="#191970" d="M371.8811,-592.4133C377.5071,-555.4575 402.23,-426.4511 480,-365.5 490.1175,-357.5706 502.5989,-352.6411 515.225,-349.6387"/>
<polygon fill="#191970" stroke="#191970" points="516.2163,-353.0101 525.3396,-347.6235 514.8485,-346.145 516.2163,-353.0101"/>
</g>
<!-- Node21 -->
<g id="node21" class="node">
<title>Node21</title>
<g id="a_node21"><a xlink:href="../../d2/db8/classSvtxTrack.html#a8cc6a505cb329bcc0d3203877148b39f" target="_top" xlink:title="SvtxTrack::get_error">
<polygon fill="none" stroke="#000000" points="519,-297.5 519,-317.5 637,-317.5 637,-297.5 519,-297.5"/>
<text text-anchor="middle" x="578" y="-304.5" font-family="FreeSans" font-size="10.00" fill="#000000">SvtxTrack::get_error</text>
</a>
</g>
</g>
<!-- Node14&#45;&gt;Node21 -->
<g id="edge20" class="edge">
<title>Node14&#45;&gt;Node21</title>
<path fill="none" stroke="#191970" d="M371.1852,-592.2353C374.4962,-551.3834 392.5011,-399.0555 480,-326.5 488.3755,-319.5549 498.537,-314.8735 509.1047,-311.7632"/>
<polygon fill="#191970" stroke="#191970" points="510.026,-315.1408 518.8843,-309.3287 508.335,-308.3481 510.026,-315.1408"/>
</g>
<!-- Node22 -->
<g id="node22" class="node">
<title>Node22</title>
<g id="a_node22"><a xlink:href="../../d0/d2c/classTrkrClusterContainer.html#a2b2eea90672ac17f6439c932d2a144ad" target="_top" xlink:title="TrkrClusterContainer\l::findCluster">
<polygon fill="none" stroke="#000000" points="517,-246.5 517,-278.5 639,-278.5 639,-246.5 517,-246.5"/>
<text text-anchor="start" x="525" y="-265.5" font-family="FreeSans" font-size="10.00" fill="#000000">TrkrClusterContainer</text>
<text text-anchor="middle" x="578" y="-253.5" font-family="FreeSans" font-size="10.00" fill="#000000">::findCluster</text>
</a>
</g>
</g>
<!-- Node14&#45;&gt;Node22 -->
<g id="edge23" class="edge">
<title>Node14&#45;&gt;Node22</title>
<path fill="none" stroke="#191970" d="M370.7609,-592.2065C372.4541,-548.2612 385.1309,-374.649 480,-287.5 487.7414,-280.3886 497.2215,-275.2361 507.2038,-271.5151"/>
<polygon fill="#191970" stroke="#191970" points="508.4586,-274.7876 516.8879,-268.3691 506.2958,-268.1301 508.4586,-274.7876"/>
</g>
<!-- Node23 -->
<g id="node23" class="node">
<title>Node23</title>
<g id="a_node23"><a xlink:href="../../d6/dfa/classTrkrCluster.html#a081b3050a772ea32f6bf3b09d0407e4f" target="_top" xlink:title="TrkrCluster::getPosition">
<polygon fill="none" stroke="#000000" points="511,-207.5 511,-227.5 645,-227.5 645,-207.5 511,-207.5"/>
<text text-anchor="middle" x="578" y="-214.5" font-family="FreeSans" font-size="10.00" fill="#000000">TrkrCluster::getPosition</text>
</a>
</g>
</g>
<!-- Node14&#45;&gt;Node23 -->
<g id="edge24" class="edge">
<title>Node14&#45;&gt;Node23</title>
<path fill="none" stroke="#191970" d="M372.8703,-592.3674C386.1564,-535.9362 451.7909,-262.0408 480,-236.5 486.1651,-230.918 493.4626,-226.7611 501.2511,-223.6912"/>
<polygon fill="#191970" stroke="#191970" points="502.5687,-226.9415 510.9519,-220.4629 500.3583,-220.2996 502.5687,-226.9415"/>
</g>
<!-- Node24 -->
<g id="node24" class="node">
<title>Node24</title>
<g id="a_node24"><a xlink:href="../../d6/d3f/namespaceTrkrDefs.html#a542bf66cb1037404f08212eeefdfde70" target="_top" xlink:title="Get the tracker ID from either key type.">
<polygon fill="none" stroke="#000000" points="523,-168.5 523,-188.5 633,-188.5 633,-168.5 523,-168.5"/>
<text text-anchor="middle" x="578" y="-175.5" font-family="FreeSans" font-size="10.00" fill="#000000">TrkrDefs::getTrkrId</text>
</a>
</g>
</g>
<!-- Node14&#45;&gt;Node24 -->
<g id="edge25" class="edge">
<title>Node14&#45;&gt;Node24</title>
<path fill="none" stroke="#191970" d="M373.1047,-592.2789C388.9789,-530.0636 472.2827,-204.6767 480,-197.5 489.1629,-188.979 500.9522,-183.753 513.1579,-180.6413"/>
<polygon fill="#191970" stroke="#191970" points="513.926,-184.0564 522.9935,-178.5765 512.4877,-177.2058 513.926,-184.0564"/>
</g>
<!-- Node25 -->
<g id="node25" class="node">
<title>Node25</title>
<g id="a_node25"><a xlink:href="../../d8/df1/namespaceMvtxDefs.html#a0d6fee920baed2f17bed6f7990bb88c3" target="_top" xlink:title="Get the stave id from hitsetkey.">
<polygon fill="none" stroke="#000000" points="516,-129.5 516,-149.5 640,-149.5 640,-129.5 516,-129.5"/>
<text text-anchor="middle" x="578" y="-136.5" font-family="FreeSans" font-size="10.00" fill="#000000">MvtxDefs::getStaveId</text>
</a>
</g>
</g>
<!-- Node14&#45;&gt;Node25 -->
<g id="edge27" class="edge">
<title>Node14&#45;&gt;Node25</title>
<path fill="none" stroke="#191970" d="M373.1063,-592.4995C382.7455,-555.4554 417.2031,-422.5106 444,-312.5 460.6351,-244.2071 429.3589,-207.2455 480,-158.5 487.3044,-151.469 496.3879,-146.6593 506.0561,-143.4227"/>
<polygon fill="#191970" stroke="#191970" points="507.1814,-146.7425 515.8749,-140.6865 505.3023,-139.9995 507.1814,-146.7425"/>
</g>
<!-- Node26 -->
<g id="node26" class="node">
<title>Node26</title>
<g id="a_node26"><a xlink:href="../../d8/df1/namespaceMvtxDefs.html#abfd7b6c5fe579370c360924854579283" target="_top" xlink:title="Get the chip id from hitsetkey.">
<polygon fill="none" stroke="#000000" points="519,-90.5 519,-110.5 637,-110.5 637,-90.5 519,-90.5"/>
<text text-anchor="middle" x="578" y="-97.5" font-family="FreeSans" font-size="10.00" fill="#000000">MvtxDefs::getChipId</text>
</a>
</g>
</g>
<!-- Node14&#45;&gt;Node26 -->
<g id="edge28" class="edge">
<title>Node14&#45;&gt;Node26</title>
<path fill="none" stroke="#191970" d="M373.3419,-592.2822C383.6522,-555.0191 419.7535,-422.8348 444,-312.5 462.7282,-227.2763 418.519,-181.4186 480,-119.5 487.9,-111.5437 498.0659,-106.3954 508.8479,-103.1439"/>
<polygon fill="#191970" stroke="#191970" points="510.0079,-106.4626 518.8757,-100.6649 508.3279,-99.6671 510.0079,-106.4626"/>
</g>
<!-- Node27 -->
<g id="node27" class="node">
<title>Node27</title>
<g id="a_node27"><a xlink:href="../../d4/de7/classPHG4CylinderGeomContainer.html#a08321019aaff5f57cd416b64d0f536bf" target="_top" xlink:title="PHG4CylinderGeomContainer\l::GetLayerGeom">
<polygon fill="none" stroke="#000000" points="495,-39.5 495,-71.5 661,-71.5 661,-39.5 495,-39.5"/>
<text text-anchor="start" x="503" y="-58.5" font-family="FreeSans" font-size="10.00" fill="#000000">PHG4CylinderGeomContainer</text>
<text text-anchor="middle" x="578" y="-46.5" font-family="FreeSans" font-size="10.00" fill="#000000">::GetLayerGeom</text>
</a>
</g>
</g>
<!-- Node14&#45;&gt;Node27 -->
<g id="edge29" class="edge">
<title>Node14&#45;&gt;Node27</title>
<path fill="none" stroke="#191970" d="M373.4562,-592.3064C384.1585,-555.1264 421.4369,-423.1914 444,-312.5 454.4205,-261.3787 444.9178,-119.1162 480,-80.5 481.9924,-78.3069 484.148,-76.2942 486.4366,-74.4478"/>
<polygon fill="#191970" stroke="#191970" points="488.419,-77.3323 494.6863,-68.7899 484.4598,-71.5595 488.419,-77.3323"/>
</g>
<!-- Node28 -->
<g id="node28" class="node">
<title>Node28</title>
<g id="a_node28"><a xlink:href="../../df/d9b/classCylinderGeom__Mvtx.html#ac3180ef9061113ec41e851ff5f97f3f1" target="_top" xlink:title="CylinderGeom_Mvtx::\lfind_sensor_center">
<polygon fill="none" stroke="#000000" points="516,-1047.5 516,-1079.5 640,-1079.5 640,-1047.5 516,-1047.5"/>
<text text-anchor="start" x="524" y="-1066.5" font-family="FreeSans" font-size="10.00" fill="#000000">CylinderGeom_Mvtx::</text>
<text text-anchor="middle" x="578" y="-1054.5" font-family="FreeSans" font-size="10.00" fill="#000000">find_sensor_center</text>
</a>
</g>
</g>
<!-- Node14&#45;&gt;Node28 -->
<g id="edge30" class="edge">
<title>Node14&#45;&gt;Node28</title>
<path fill="none" stroke="#191970" d="M371.6533,-612.7195C378.5808,-672.3391 416.5162,-974.7797 480,-1038.5 487.3253,-1045.8526 496.4925,-1051.1427 506.2605,-1054.9306"/>
<polygon fill="#191970" stroke="#191970" points="505.1754,-1058.2582 515.7693,-1058.1205 507.4017,-1051.6217 505.1754,-1058.2582"/>
</g>
<!-- Node31 -->
<g id="node31" class="node">
<title>Node31</title>
<g id="a_node31"><a xlink:href="../../df/d9b/classCylinderGeom__Mvtx.html#aa1c7c0b68aa74bd674206214ffabfe6d" target="_top" xlink:title="CylinderGeom_Mvtx::\lget_stave_phi_tilt">
<polygon fill="none" stroke="#000000" points="516,-996.5 516,-1028.5 640,-1028.5 640,-996.5 516,-996.5"/>
<text text-anchor="start" x="524" y="-1015.5" font-family="FreeSans" font-size="10.00" fill="#000000">CylinderGeom_Mvtx::</text>
<text text-anchor="middle" x="578" y="-1003.5" font-family="FreeSans" font-size="10.00" fill="#000000">get_stave_phi_tilt</text>
</a>
</g>
</g>
<!-- Node14&#45;&gt;Node31 -->
<g id="edge33" class="edge">
<title>Node14&#45;&gt;Node31</title>
<path fill="none" stroke="#191970" d="M371.9942,-612.5927C380.3507,-667.7237 422.974,-932.0113 480,-987.5 487.4386,-994.738 496.6667,-999.9664 506.4615,-1003.7273"/>
<polygon fill="#191970" stroke="#191970" points="505.3924,-1007.0602 515.986,-1006.9012 507.6054,-1000.4192 505.3924,-1007.0602"/>
</g>
<!-- Node32 -->
<g id="node32" class="node">
<title>Node32</title>
<g id="a_node32"><a xlink:href="../../d9/dcb/classCylinderGeomIntt.html#ab38e7cede1a91d97d6d5bb175791f965" target="_top" xlink:title="CylinderGeomIntt::find\l_segment_center">
<polygon fill="none" stroke="#000000" points="512.5,-945.5 512.5,-977.5 643.5,-977.5 643.5,-945.5 512.5,-945.5"/>
<text text-anchor="start" x="520.5" y="-964.5" font-family="FreeSans" font-size="10.00" fill="#000000">CylinderGeomIntt::find</text>
<text text-anchor="middle" x="578" y="-952.5" font-family="FreeSans" font-size="10.00" fill="#000000">_segment_center</text>
</a>
</g>
</g>
<!-- Node14&#45;&gt;Node32 -->
<g id="edge34" class="edge">
<title>Node14&#45;&gt;Node32</title>
<path fill="none" stroke="#191970" d="M372.4496,-612.566C382.442,-663.1679 429.4116,-889.1937 480,-936.5 486.5693,-942.6431 494.4332,-947.3288 502.8106,-950.8943"/>
<polygon fill="#191970" stroke="#191970" points="501.8524,-954.2716 512.4455,-954.4619 504.2831,-947.7072 501.8524,-954.2716"/>
</g>
<!-- Node33 -->
<g id="node33" class="node">
<title>Node33</title>
<g id="a_node33"><a xlink:href="../../d6/d9e/namespaceInttDefs.html#aeb0f2c2a834c11791925bdffc211526d" target="_top" xlink:title="Get the ladder id from hitsetkey.">
<polygon fill="none" stroke="#000000" points="513,-906.5 513,-926.5 643,-926.5 643,-906.5 513,-906.5"/>
<text text-anchor="middle" x="578" y="-913.5" font-family="FreeSans" font-size="10.00" fill="#000000">InttDefs::getLadderZId</text>
</a>
</g>
</g>
<!-- Node14&#45;&gt;Node33 -->
<g id="edge35" class="edge">
<title>Node14&#45;&gt;Node33</title>
<path fill="none" stroke="#191970" d="M370.8871,-612.5772C373.087,-654.8181 387.5107,-819.0523 480,-897.5 486.77,-903.2422 494.7543,-907.4472 503.1958,-910.5002"/>
<polygon fill="#191970" stroke="#191970" points="502.2936,-913.8844 512.8806,-913.4782 504.351,-907.1936 502.2936,-913.8844"/>
</g>
<!-- Node34 -->
<g id="node34" class="node">
<title>Node34</title>
<g id="a_node34"><a xlink:href="../../d6/d9e/namespaceInttDefs.html#a28461d6132ff9373b4529e5c0d20c962" target="_top" xlink:title="Get the sensor id from hitsetkey.">
<polygon fill="none" stroke="#000000" points="508.5,-867.5 508.5,-887.5 647.5,-887.5 647.5,-867.5 508.5,-867.5"/>
<text text-anchor="middle" x="578" y="-874.5" font-family="FreeSans" font-size="10.00" fill="#000000">InttDefs::getLadderPhiId</text>
</a>
</g>
</g>
<!-- Node14&#45;&gt;Node34 -->
<g id="edge36" class="edge">
<title>Node14&#45;&gt;Node34</title>
<path fill="none" stroke="#191970" d="M371.5078,-612.5642C375.954,-651.293 397.4326,-791.8597 480,-858.5 485.6558,-863.0648 492.0885,-866.6439 498.8918,-869.4377"/>
<polygon fill="#191970" stroke="#191970" points="497.7657,-872.7518 508.3605,-872.7796 500.0955,-866.1509 497.7657,-872.7518"/>
</g>
<!-- Node35 -->
<g id="node35" class="node">
<title>Node35</title>
<g id="a_node35"><a xlink:href="../../d9/dcb/classCylinderGeomIntt.html#a191bf1e8abfe131f80eb7da8b1639c8b" target="_top" xlink:title="CylinderGeomIntt::get\l_strip_phi_tilt">
<polygon fill="none" stroke="#000000" points="513.5,-816.5 513.5,-848.5 642.5,-848.5 642.5,-816.5 513.5,-816.5"/>
<text text-anchor="start" x="521.5" y="-835.5" font-family="FreeSans" font-size="10.00" fill="#000000">CylinderGeomIntt::get</text>
<text text-anchor="middle" x="578" y="-823.5" font-family="FreeSans" font-size="10.00" fill="#000000">_strip_phi_tilt</text>
</a>
</g>
</g>
<!-- Node14&#45;&gt;Node35 -->
<g id="edge37" class="edge">
<title>Node14&#45;&gt;Node35</title>
<path fill="none" stroke="#191970" d="M372.8881,-612.9407C381.1866,-646.765 412.0512,-754.2192 480,-807.5 487.0274,-813.0104 495.1306,-817.3181 503.6047,-820.6834"/>
<polygon fill="#191970" stroke="#191970" points="502.6975,-824.0746 513.2923,-824.0964 505.0236,-817.4724 502.6975,-824.0746"/>
</g>
<!-- Node36 -->
<g id="node36" class="node">
<title>Node36</title>
<g id="a_node36"><a xlink:href="../../d6/dfa/classTrkrCluster.html#a43356b61478edcfaba377cdcd6c658eb" target="_top" xlink:title="TrkrCluster::getPhiError">
<polygon fill="none" stroke="#000000" points="510.5,-777.5 510.5,-797.5 645.5,-797.5 645.5,-777.5 510.5,-777.5"/>
<text text-anchor="middle" x="578" y="-784.5" font-family="FreeSans" font-size="10.00" fill="#000000">TrkrCluster::getPhiError</text>
</a>
</g>
</g>
<!-- Node14&#45;&gt;Node36 -->
<g id="edge38" class="edge">
<title>Node14&#45;&gt;Node36</title>
<path fill="none" stroke="#191970" d="M373.9988,-612.7483C384.6596,-642.3092 419.7386,-728.1876 480,-768.5 486.2391,-772.6737 493.1722,-775.9789 500.386,-778.5902"/>
<polygon fill="#191970" stroke="#191970" points="499.7683,-782.0654 510.3581,-781.7372 501.875,-775.3899 499.7683,-782.0654"/>
</g>
<!-- Node37 -->
<g id="node37" class="node">
<title>Node37</title>
<g id="a_node37"><a xlink:href="../../d6/dfa/classTrkrCluster.html#a73c9bdc559b2906e6cfc942d1bf355ed" target="_top" xlink:title="TrkrCluster::getZError">
<polygon fill="none" stroke="#000000" points="514.5,-738.5 514.5,-758.5 641.5,-758.5 641.5,-738.5 514.5,-738.5"/>
<text text-anchor="middle" x="578" y="-745.5" font-family="FreeSans" font-size="10.00" fill="#000000">TrkrCluster::getZError</text>
</a>
</g>
</g>
<!-- Node14&#45;&gt;Node37 -->
<g id="edge39" class="edge">
<title>Node14&#45;&gt;Node37</title>
<path fill="none" stroke="#191970" d="M376.0625,-612.7651C389.9763,-637.3695 428.8721,-699.8597 480,-729.5 487.5711,-733.8892 495.9683,-737.286 504.5712,-739.9113"/>
<polygon fill="#191970" stroke="#191970" points="503.771,-743.3207 514.3385,-742.5593 505.6027,-736.5645 503.771,-743.3207"/>
</g>
<!-- Node38 -->
<g id="node38" class="node">
<title>Node38</title>
<g id="a_node38"><a xlink:href="../../d7/dd5/classPHGenFit_1_1Track.html#a3c6639bba6584ef0fd2581150947b85f" target="_top" xlink:title="PHGenFit::Track::addMeasurements">
<polygon fill="none" stroke="#000000" points="480,-699.5 480,-719.5 676,-719.5 676,-699.5 480,-699.5"/>
<text text-anchor="middle" x="578" y="-706.5" font-family="FreeSans" font-size="10.00" fill="#000000">PHGenFit::Track::addMeasurements</text>
</a>
</g>
</g>
<!-- Node14&#45;&gt;Node38 -->
<g id="edge40" class="edge">
<title>Node14&#45;&gt;Node38</title>
<path fill="none" stroke="#191970" d="M381.048,-612.7042C399.5487,-630.039 439.7229,-665.2288 480,-684.5 490.3517,-689.4529 501.8052,-693.5064 513.1231,-696.7967"/>
<polygon fill="#191970" stroke="#191970" points="512.4343,-700.2367 523.0032,-699.4952 514.2787,-693.4841 512.4343,-700.2367"/>
</g>
<!-- Node40 -->
<g id="node40" class="node">
<title>Node40</title>
<g id="a_node40"><a xlink:href="../../d1/d35/classPHGenFit_1_1Fitter.html#a0ae094389cc773308a3cf9ca98d60bdb" target="_top" xlink:title="PHGenFit::Fitter::process\lTrack">
<polygon fill="none" stroke="#000000" points="508,-609.5 508,-641.5 648,-641.5 648,-609.5 508,-609.5"/>
<text text-anchor="start" x="516" y="-628.5" font-family="FreeSans" font-size="10.00" fill="#000000">PHGenFit::Fitter::process</text>
<text text-anchor="middle" x="578" y="-616.5" font-family="FreeSans" font-size="10.00" fill="#000000">Track</text>
</a>
</g>
</g>
<!-- Node14&#45;&gt;Node40 -->
<g id="edge42" class="edge">
<title>Node14&#45;&gt;Node40</title>
<path fill="none" stroke="#191970" d="M444.241,-610.6737C461.5739,-612.5949 480.1295,-614.6517 497.7331,-616.603"/>
<polygon fill="#191970" stroke="#191970" points="497.6467,-620.1147 507.9715,-617.7378 498.418,-613.1573 497.6467,-620.1147"/>
</g>
<!-- Node41 -->
<g id="node41" class="node">
<title>Node41</title>
<g id="a_node41"><a xlink:href="../../d7/dd5/classPHGenFit_1_1Track.html#a8cc267bf5a0014b5ba7e057a3b45ba3e" target="_top" xlink:title="PHGenFit::Track::getGenFit\lTrack">
<polygon fill="none" stroke="#000000" points="712,-727.5 712,-759.5 864,-759.5 864,-727.5 712,-727.5"/>
<text text-anchor="start" x="720" y="-746.5" font-family="FreeSans" font-size="10.00" fill="#000000">PHGenFit::Track::getGenFit</text>
<text text-anchor="middle" x="788" y="-734.5" font-family="FreeSans" font-size="10.00" fill="#000000">Track</text>
</a>
</g>
</g>
<!-- Node14&#45;&gt;Node41 -->
<g id="edge54" class="edge">
<title>Node14&#45;&gt;Node41</title>
<path fill="none" stroke="#191970" d="M389.3717,-612.517C410.7977,-623.5139 447.0603,-640.9997 480,-651.5 564.6233,-678.4756 595.2197,-653.5767 676,-690.5 694.4353,-698.9265 694.1098,-708.9709 712,-718.5 715.3215,-720.2692 718.7913,-721.9439 722.3406,-723.5244"/>
<polygon fill="#191970" stroke="#191970" points="721.2975,-726.881 731.8749,-727.4878 723.9845,-720.4173 721.2975,-726.881"/>
</g>
<!-- Node49 -->
<g id="node49" class="node">
<title>Node49</title>
<g id="a_node49"><a xlink:href="../../d6/d8a/classgenfit_1_1Track.html#aa7c2b4ec6f779325c87f4ffe8d5e52a0" target="_top" xlink:title="Set the MCT track id, for MC simulations.">
<polygon fill="none" stroke="#000000" points="503,-570.5 503,-590.5 653,-590.5 653,-570.5 503,-570.5"/>
<text text-anchor="middle" x="578" y="-577.5" font-family="FreeSans" font-size="10.00" fill="#000000">genfit::Track::setMcTrackId</text>
</a>
</g>
</g>
<!-- Node14&#45;&gt;Node49 -->
<g id="edge55" class="edge">
<title>Node14&#45;&gt;Node49</title>
<path fill="none" stroke="#191970" d="M444.241,-594.6817C459.8166,-593.0303 476.3795,-591.2742 492.3518,-589.5808"/>
<polygon fill="#191970" stroke="#191970" points="493.171,-593.0136 502.7462,-588.4787 492.4329,-586.0526 493.171,-593.0136"/>
</g>
<!-- Node14&#45;&gt;Node50 -->
<g id="edge56" class="edge">
<title>Node14&#45;&gt;Node50</title>
<path fill="none" stroke="#191970" d="M373.5593,-592.3267C384.6155,-555.2162 422.9563,-423.4902 444,-312.5 455.8094,-250.214 436.6522,-75.7599 480,-29.5 489.631,-19.222 503.0243,-13.555 516.8202,-10.6071"/>
<polygon fill="#191970" stroke="#191970" points="517.6077,-14.0239 526.8889,-8.9142 516.4469,-7.1208 517.6077,-14.0239"/>
</g>
<!-- Node29 -->
<g id="node29" class="node">
<title>Node29</title>
<g id="a_node29"><a xlink:href="../../df/d9b/classCylinderGeom__Mvtx.html#aede358e384b225e6555bed9292f0310c" target="_top" xlink:title="CylinderGeom_Mvtx::\lget_world_from_local\l_coords">
<polygon fill="none" stroke="#000000" points="726,-1041.5 726,-1085.5 850,-1085.5 850,-1041.5 726,-1041.5"/>
<text text-anchor="start" x="734" y="-1072.5" font-family="FreeSans" font-size="10.00" fill="#000000">CylinderGeom_Mvtx::</text>
<text text-anchor="start" x="734" y="-1060.5" font-family="FreeSans" font-size="10.00" fill="#000000">get_world_from_local</text>
<text text-anchor="middle" x="788" y="-1048.5" font-family="FreeSans" font-size="10.00" fill="#000000">_coords</text>
</a>
</g>
</g>
<!-- Node28&#45;&gt;Node29 -->
<g id="edge31" class="edge">
<title>Node28&#45;&gt;Node29</title>
<path fill="none" stroke="#191970" d="M640.1546,-1063.5C663.754,-1063.5 690.8388,-1063.5 715.3249,-1063.5"/>
<polygon fill="#191970" stroke="#191970" points="715.6421,-1067.0001 725.6421,-1063.5 715.642,-1060.0001 715.6421,-1067.0001"/>
</g>
<!-- Node30 -->
<g id="node30" class="node">
<title>Node30</title>
<g id="a_node30"><a xlink:href="../../da/d55/TPCRateLayered_8m.html#ac40e4ec8f2a74a2878f06670249eebb8" target="_top" xlink:title="double">
<polygon fill="none" stroke="#000000" points="962.5,-1053.5 962.5,-1073.5 1013.5,-1073.5 1013.5,-1053.5 962.5,-1053.5"/>
<text text-anchor="middle" x="988" y="-1060.5" font-family="FreeSans" font-size="10.00" fill="#000000">double</text>
</a>
</g>
</g>
<!-- Node29&#45;&gt;Node30 -->
<g id="edge32" class="edge">
<title>Node29&#45;&gt;Node30</title>
<path fill="none" stroke="#191970" d="M850.1849,-1063.5C883.739,-1063.5 923.9545,-1063.5 952.2573,-1063.5"/>
<polygon fill="#191970" stroke="#191970" points="952.4826,-1067.0001 962.4826,-1063.5 952.4826,-1060.0001 952.4826,-1067.0001"/>
</g>
<!-- Node39 -->
<g id="node39" class="node">
<title>Node39</title>
<g id="a_node39"><a xlink:href="../../d6/d8a/classgenfit_1_1Track.html#a7e61ada0d84db561ede923db92c4ab01" target="_top" xlink:title="Insert TrackPoint BEFORE TrackPoint with position id, if id &gt;= 0.">
<polygon fill="none" stroke="#ff0000" points="718,-778.5 718,-798.5 858,-798.5 858,-778.5 718,-778.5"/>
<text text-anchor="middle" x="788" y="-785.5" font-family="FreeSans" font-size="10.00" fill="#000000">genfit::Track::insertPoint</text>
</a>
</g>
</g>
<!-- Node38&#45;&gt;Node39 -->
<g id="edge41" class="edge">
<title>Node38&#45;&gt;Node39</title>
<path fill="none" stroke="#191970" d="M652.8832,-719.5391C660.9642,-722.1397 668.8406,-725.4042 676,-729.5 696.7603,-741.3769 691.5039,-757.1728 712,-769.5 715.2197,-771.4365 718.6295,-773.1762 722.1509,-774.7392"/>
<polygon fill="#191970" stroke="#191970" points="721.0914,-778.0832 731.6789,-778.4773 723.648,-771.5668 721.0914,-778.0832"/>
</g>
<!-- Node40&#45;&gt;Node41 -->
<g id="edge43" class="edge">
<title>Node40&#45;&gt;Node41</title>
<path fill="none" stroke="#191970" d="M648.1872,-640.623C658.1497,-644.7207 667.784,-649.9163 676,-656.5 700.8654,-676.4253 687.2488,-698.4329 712,-718.5 713.578,-719.7793 715.2237,-720.9941 716.9242,-722.1475"/>
<polygon fill="#191970" stroke="#191970" points="715.4365,-725.3341 725.8245,-727.4177 719.0032,-719.3109 715.4365,-725.3341"/>
</g>
<!-- Node42 -->
<g id="node42" class="node">
<title>Node42</title>
<g id="a_node42"><a xlink:href="../../d6/d8a/classgenfit_1_1Track.html#aee4eab9e952ee6f0e0c1f1d980552759" target="_top" xlink:title="genfit::Track::checkConsistency">
<polygon fill="none" stroke="#ff0000" points="900,-614.5 900,-634.5 1076,-634.5 1076,-614.5 900,-614.5"/>
<text text-anchor="middle" x="988" y="-621.5" font-family="FreeSans" font-size="10.00" fill="#000000">genfit::Track::checkConsistency</text>
</a>
</g>
</g>
<!-- Node40&#45;&gt;Node42 -->
<g id="edge44" class="edge">
<title>Node40&#45;&gt;Node42</title>
<path fill="none" stroke="#191970" d="M648.2356,-627.3684C668.7857,-627.835 691.2912,-628.2682 712,-628.5 779.5513,-629.2561 796.4532,-629.5892 864,-628.5 872.3587,-628.3652 881.0332,-628.1794 889.7354,-627.961"/>
<polygon fill="#191970" stroke="#191970" points="890.0428,-631.4542 899.9467,-627.6909 889.8576,-624.4566 890.0428,-631.4542"/>
</g>
<!-- Node43 -->
<g id="node43" class="node">
<title>Node43</title>
<g id="a_node43"><a xlink:href="../../d8/db3/classgenfit_1_1Exception.html#a5cb44accc5d69d5742ed883a2d4ff88a" target="_top" xlink:title="Standard error message handling for exceptions. use like &quot;std::cerr &lt;&lt; e.what();&quot;.">
<polygon fill="none" stroke="#000000" points="721,-469.5 721,-489.5 855,-489.5 855,-469.5 721,-469.5"/>
<text text-anchor="middle" x="788" y="-476.5" font-family="FreeSans" font-size="10.00" fill="#000000">genfit::Exception::what</text>
</a>
</g>
</g>
<!-- Node40&#45;&gt;Node43 -->
<g id="edge45" class="edge">
<title>Node40&#45;&gt;Node43</title>
<path fill="none" stroke="#191970" d="M648.1797,-616.6406C658.3759,-612.911 668.0838,-607.715 676,-600.5 711.2211,-568.3988 676.9003,-531.7339 712,-499.5 713.9344,-497.7235 716.0077,-496.1011 718.1879,-494.6196"/>
<polygon fill="#191970" stroke="#191970" points="720.0962,-497.5609 727.0604,-489.5765 716.6371,-491.4753 720.0962,-497.5609"/>
</g>
<!-- Node44 -->
<g id="node44" class="node">
<title>Node44</title>
<g id="a_node44"><a xlink:href="../../d0/dba/classgenfit_1_1AbsFitter.html#a03e279c67ca889f5fe6480eb8a1691cf" target="_top" xlink:title="genfit::AbsFitter::\lprocessTrack">
<polygon fill="none" stroke="#ff0000" points="736.5,-586.5 736.5,-618.5 839.5,-618.5 839.5,-586.5 736.5,-586.5"/>
<text text-anchor="start" x="744.5" y="-605.5" font-family="FreeSans" font-size="10.00" fill="#000000">genfit::AbsFitter::</text>
<text text-anchor="middle" x="788" y="-593.5" font-family="FreeSans" font-size="10.00" fill="#000000">processTrack</text>
</a>
</g>
</g>
<!-- Node40&#45;&gt;Node44 -->
<g id="edge46" class="edge">
<title>Node40&#45;&gt;Node44</title>
<path fill="none" stroke="#191970" d="M648.2189,-617.8094C673.467,-615.0441 701.7398,-611.9475 726.217,-609.2667"/>
<polygon fill="#191970" stroke="#191970" points="726.8954,-612.7134 736.4549,-608.1454 726.1333,-605.755 726.8954,-612.7134"/>
</g>
<!-- Node45 -->
<g id="node45" class="node">
<title>Node45</title>
<g id="a_node45"><a xlink:href="../../d6/d8a/classgenfit_1_1Track.html#a402b35300e81a48c7f0b9eb082b1cf24" target="_top" xlink:title="Get cardinal track representation.">
<polygon fill="none" stroke="#000000" points="906.5,-547.5 906.5,-567.5 1069.5,-567.5 1069.5,-547.5 906.5,-547.5"/>
<text text-anchor="middle" x="988" y="-554.5" font-family="FreeSans" font-size="10.00" fill="#000000">genfit::Track::getCardinalRep</text>
</a>
</g>
</g>
<!-- Node40&#45;&gt;Node45 -->
<g id="edge49" class="edge">
<title>Node40&#45;&gt;Node45</title>
<path fill="none" stroke="#191970" d="M648.2483,-610.4926C657.7373,-607.6262 667.2203,-604.307 676,-600.5 693.4195,-592.9465 693.9798,-583.4803 712,-577.5 771.2368,-557.8412 841.4301,-552.9845 896.204,-552.9693"/>
<polygon fill="#191970" stroke="#191970" points="896.2283,-556.4693 906.246,-553.0203 896.2639,-549.4694 896.2283,-556.4693"/>
</g>
<!-- Node46 -->
<g id="node46" class="node">
<title>Node46</title>
<g id="a_node46"><a xlink:href="../../d6/d8a/classgenfit_1_1Track.html#ad06e7a012624bdb03960826b5c9fcd93" target="_top" xlink:title="Get FitStatus for a AbsTrackRep. Per default, return FitStatus for cardinalRep.">
<polygon fill="none" stroke="#000000" points="715,-508.5 715,-528.5 861,-528.5 861,-508.5 715,-508.5"/>
<text text-anchor="middle" x="788" y="-515.5" font-family="FreeSans" font-size="10.00" fill="#000000">genfit::Track::getFitStatus</text>
</a>
</g>
</g>
<!-- Node40&#45;&gt;Node46 -->
<g id="edge50" class="edge">
<title>Node40&#45;&gt;Node46</title>
<path fill="none" stroke="#191970" d="M648.1514,-614.605C658.0631,-611.1254 667.6917,-606.5402 676,-600.5 700.2351,-582.8807 688.3781,-561.9332 712,-543.5 717.7216,-539.0352 724.2736,-535.3515 731.0787,-532.316"/>
<polygon fill="#191970" stroke="#191970" points="732.4742,-535.5276 740.461,-528.5661 729.8762,-529.0275 732.4742,-535.5276"/>
</g>
<!-- Node47 -->
<g id="node47" class="node">
<title>Node47</title>
<g id="a_node47"><a xlink:href="../../d0/d8d/classgenfit_1_1FitStatus.html#a56371ce504bee72fcf2f9324ddcb91a8" target="_top" xlink:title="Did the fit converge (in all Points or only partially)?">
<polygon fill="none" stroke="#000000" points="737,-418.5 737,-450.5 839,-450.5 839,-418.5 737,-418.5"/>
<text text-anchor="start" x="745" y="-437.5" font-family="FreeSans" font-size="10.00" fill="#000000">genfit::FitStatus::</text>
<text text-anchor="middle" x="788" y="-425.5" font-family="FreeSans" font-size="10.00" fill="#000000">isFitConverged</text>
</a>
</g>
</g>
<!-- Node40&#45;&gt;Node47 -->
<g id="edge52" class="edge">
<title>Node40&#45;&gt;Node47</title>
<path fill="none" stroke="#191970" d="M648.2649,-617.4383C658.5736,-613.6223 668.2948,-608.1905 676,-600.5 721.4726,-555.1144 668.3752,-507.6644 712,-460.5 716.412,-455.73 721.7356,-451.8351 727.4928,-448.6547"/>
<polygon fill="#191970" stroke="#191970" points="729.296,-451.6731 736.828,-444.222 726.2934,-445.3497 729.296,-451.6731"/>
</g>
<!-- Node48 -->
<g id="node48" class="node">
<title>Node48</title>
<g id="a_node48"><a xlink:href="../../d4/d1a/classgenfit_1_1EventDisplay.html#a273f0f885e02d740befd1d3b18489a16" target="_top" xlink:title="Add new event.">
<polygon fill="none" stroke="#000000" points="728.5,-676.5 728.5,-708.5 847.5,-708.5 847.5,-676.5 728.5,-676.5"/>
<text text-anchor="start" x="736.5" y="-695.5" font-family="FreeSans" font-size="10.00" fill="#000000">genfit::EventDisplay</text>
<text text-anchor="middle" x="788" y="-683.5" font-family="FreeSans" font-size="10.00" fill="#000000">::addEvent</text>
</a>
</g>
</g>
<!-- Node40&#45;&gt;Node48 -->
<g id="edge53" class="edge">
<title>Node40&#45;&gt;Node48</title>
<path fill="none" stroke="#191970" d="M628.8781,-641.5449C644.0438,-646.3408 660.6988,-651.6208 676,-656.5 692.9984,-661.9204 711.4372,-667.8334 728.3541,-673.2716"/>
<polygon fill="#191970" stroke="#191970" points="727.5249,-676.6814 738.1163,-676.4114 729.6682,-670.0176 727.5249,-676.6814"/>
</g>
<!-- Node44&#45;&gt;Node42 -->
<g id="edge48" class="edge">
<title>Node44&#45;&gt;Node42</title>
<path fill="none" stroke="#191970" d="M839.505,-608.1655C854.8884,-609.8577 872.292,-611.7721 889.6303,-613.6793"/>
<polygon fill="#191970" stroke="#191970" points="889.4927,-617.1852 899.8155,-614.7997 890.2581,-610.2272 889.4927,-617.1852"/>
</g>
<!-- Node44&#45;&gt;Node45 -->
<g id="edge47" class="edge">
<title>Node44&#45;&gt;Node45</title>
<path fill="none" stroke="#191970" d="M839.505,-590.9114C868.287,-584.4354 904.141,-576.3683 933.4074,-569.7833"/>
<polygon fill="#191970" stroke="#191970" points="934.4744,-573.1308 943.4621,-567.521 932.9377,-566.3016 934.4744,-573.1308"/>
</g>
<!-- Node46&#45;&gt;Node45 -->
<g id="edge51" class="edge">
<title>Node46&#45;&gt;Node45</title>
<path fill="none" stroke="#191970" d="M839.505,-528.5435C866.0997,-533.7294 898.7324,-540.0928 926.627,-545.5323"/>
<polygon fill="#191970" stroke="#191970" points="926.1845,-549.0118 936.6696,-547.4906 927.5243,-542.1412 926.1845,-549.0118"/>
</g>
</g>
</svg>
