<?xml version="1.0" encoding="UTF-8" standalone="no"?>
<!DOCTYPE svg PUBLIC "-//W3C//DTD SVG 1.1//EN"
 "http://www.w3.org/Graphics/SVG/1.1/DTD/svg11.dtd">
<!-- Generated by graphviz version 2.40.1 (20161225.0304)
 -->
<!-- Title: PHGenFit::Track::addMeasurement Pages: 1 -->
<svg width="809pt" height="335pt"
 viewBox="0.00 0.00 809.00 335.00" xmlns="http://www.w3.org/2000/svg" xmlns:xlink="http://www.w3.org/1999/xlink">
<g id="graph0" class="graph" transform="scale(1 1) rotate(0) translate(4 331)">
<title>PHGenFit::Track::addMeasurement</title>
<!-- Node1 -->
<g id="node1" class="node">
<title>Node1</title>
<polygon fill="#bfbfbf" stroke="#000000" points="0,-223.5 0,-243.5 191,-243.5 191,-223.5 0,-223.5"/>
<text text-anchor="middle" x="95.5" y="-230.5" font-family="FreeSans" font-size="10.00" fill="#000000">PHGenFit::Track::addMeasurement</text>
</g>
<!-- Node2 -->
<g id="node2" class="node">
<title>Node2</title>
<g id="a_node2"><a xlink:href="../../d4/db3/classPHGenFit_1_1Measurement.html#a520d05098d52dbdf2aff0ebcd2f1d819" target="_top" xlink:title="PHGenFit::Measurement\l::get_cluster_ID">
<polygon fill="none" stroke="#000000" points="227.5,-294.5 227.5,-326.5 366.5,-326.5 366.5,-294.5 227.5,-294.5"/>
<text text-anchor="start" x="235.5" y="-313.5" font-family="FreeSans" font-size="10.00" fill="#000000">PHGenFit::Measurement</text>
<text text-anchor="middle" x="297" y="-301.5" font-family="FreeSans" font-size="10.00" fill="#000000">::get_cluster_ID</text>
</a>
</g>
</g>
<!-- Node1&#45;&gt;Node2 -->
<g id="edge1" class="edge">
<title>Node1&#45;&gt;Node2</title>
<path fill="none" stroke="#191970" d="M120.1255,-243.5235C146.4756,-254.182 189.5458,-271.4109 227,-285.5 231.7841,-287.2996 236.7636,-289.1409 241.7634,-290.9678"/>
<polygon fill="#191970" stroke="#191970" points="240.7633,-294.3281 251.3574,-294.4485 243.1507,-287.7478 240.7633,-294.3281"/>
</g>
<!-- Node3 -->
<g id="node3" class="node">
<title>Node3</title>
<g id="a_node3"><a xlink:href="../../d4/db3/classPHGenFit_1_1Measurement.html#a06e67d5399c21140c575fd28a437ffb4" target="_top" xlink:title="PHGenFit::Measurement\l::get_cluster_key">
<polygon fill="none" stroke="#000000" points="227.5,-243.5 227.5,-275.5 366.5,-275.5 366.5,-243.5 227.5,-243.5"/>
<text text-anchor="start" x="235.5" y="-262.5" font-family="FreeSans" font-size="10.00" fill="#000000">PHGenFit::Measurement</text>
<text text-anchor="middle" x="297" y="-250.5" font-family="FreeSans" font-size="10.00" fill="#000000">::get_cluster_key</text>
</a>
</g>
</g>
<!-- Node1&#45;&gt;Node3 -->
<g id="edge2" class="edge">
<title>Node1&#45;&gt;Node3</title>
<path fill="none" stroke="#191970" d="M173.1169,-243.5151C187.6196,-245.3864 202.7983,-247.3449 217.3608,-249.224"/>
<polygon fill="#191970" stroke="#191970" points="216.9626,-252.7015 227.3283,-250.5101 217.8585,-245.7591 216.9626,-252.7015"/>
</g>
<!-- Node4 -->
<g id="node4" class="node">
<title>Node4</title>
<g id="a_node4"><a xlink:href="../../d4/db3/classPHGenFit_1_1Measurement.html#ad4b8d712f592bd125aaff3323b07a05a" target="_top" xlink:title="PHGenFit::Measurement\l::getMeasurement">
<polygon fill="none" stroke="#000000" points="227.5,-192.5 227.5,-224.5 366.5,-224.5 366.5,-192.5 227.5,-192.5"/>
<text text-anchor="start" x="235.5" y="-211.5" font-family="FreeSans" font-size="10.00" fill="#000000">PHGenFit::Measurement</text>
<text text-anchor="middle" x="297" y="-199.5" font-family="FreeSans" font-size="10.00" fill="#000000">::getMeasurement</text>
</a>
</g>
</g>
<!-- Node1&#45;&gt;Node4 -->
<g id="edge3" class="edge">
<title>Node1&#45;&gt;Node4</title>
<path fill="none" stroke="#191970" d="M176.2967,-223.4756C189.7332,-221.8085 203.6629,-220.0803 217.0775,-218.4159"/>
<polygon fill="#191970" stroke="#191970" points="217.7256,-221.8625 227.2186,-217.1577 216.8637,-214.9157 217.7256,-221.8625"/>
</g>
<!-- Node5 -->
<g id="node5" class="node">
<title>Node5</title>
<g id="a_node5"><a xlink:href="../../d6/d8a/classgenfit_1_1Track.html#a7e61ada0d84db561ede923db92c4ab01" target="_top" xlink:title="Insert TrackPoint BEFORE TrackPoint with position id, if id &gt;= 0.">
<polygon fill="none" stroke="#000000" points="227,-153.5 227,-173.5 367,-173.5 367,-153.5 227,-153.5"/>
<text text-anchor="middle" x="297" y="-160.5" font-family="FreeSans" font-size="10.00" fill="#000000">genfit::Track::insertPoint</text>
</a>
</g>
</g>
<!-- Node1&#45;&gt;Node5 -->
<g id="edge4" class="edge">
<title>Node1&#45;&gt;Node5</title>
<path fill="none" stroke="#191970" d="M119.9963,-223.469C146.2386,-212.8922 189.2195,-196.0546 227,-183.5 234.4214,-181.0338 242.3446,-178.5915 250.0935,-176.3054"/>
<polygon fill="#191970" stroke="#191970" points="251.1337,-179.6481 259.7646,-173.5034 249.1856,-172.9246 251.1337,-179.6481"/>
</g>
<!-- Node6 -->
<g id="node6" class="node">
<title>Node6</title>
<g id="a_node6"><a xlink:href="../../d6/d8a/classgenfit_1_1Track.html#a409abb47dc8fb5134031f8af1ce9b44a" target="_top" xlink:title="genfit::Track::deleteBackwardInfo">
<polygon fill="none" stroke="#000000" points="403.5,-270.5 403.5,-290.5 589.5,-290.5 589.5,-270.5 403.5,-270.5"/>
<text text-anchor="middle" x="496.5" y="-277.5" font-family="FreeSans" font-size="10.00" fill="#000000">genfit::Track::deleteBackwardInfo</text>
</a>
</g>
</g>
<!-- Node5&#45;&gt;Node6 -->
<g id="edge5" class="edge">
<title>Node5&#45;&gt;Node6</title>
<path fill="none" stroke="#191970" d="M350.2302,-173.5157C356.2778,-176.1132 362.0398,-179.3834 367,-183.5 394.5308,-206.3485 375.2756,-232.8867 403,-255.5 408.3365,-259.8527 414.3608,-263.4525 420.7158,-266.4289"/>
<polygon fill="#191970" stroke="#191970" points="419.6431,-269.7726 430.2218,-270.3586 422.3175,-263.3036 419.6431,-269.7726"/>
</g>
<!-- Node7 -->
<g id="node7" class="node">
<title>Node7</title>
<g id="a_node7"><a xlink:href="../../d6/d8a/classgenfit_1_1Track.html#ad4ead0ee2abc2bcb6b616f8976bc559a" target="_top" xlink:title="genfit::Track::trackHasChanged">
<polygon fill="none" stroke="#000000" points="626,-211.5 626,-231.5 801,-231.5 801,-211.5 626,-211.5"/>
<text text-anchor="middle" x="713.5" y="-218.5" font-family="FreeSans" font-size="10.00" fill="#000000">genfit::Track::trackHasChanged</text>
</a>
</g>
</g>
<!-- Node5&#45;&gt;Node7 -->
<g id="edge14" class="edge">
<title>Node5&#45;&gt;Node7</title>
<path fill="none" stroke="#191970" d="M345.5427,-173.599C353.0236,-176.2068 360.4346,-179.4581 367,-183.5 387.0876,-195.8667 381.3913,-213.039 403,-222.5 488.2507,-259.8254 599.7284,-246.3536 663.2895,-233.6223"/>
<polygon fill="#191970" stroke="#191970" points="664.3678,-236.9731 673.4466,-231.5118 662.9437,-230.1195 664.3678,-236.9731"/>
</g>
<!-- Node8 -->
<g id="node8" class="node">
<title>Node8</title>
<g id="a_node8"><a xlink:href="../../d6/d8a/classgenfit_1_1Track.html#ad6ac9e44842a18fbba2577a887f008c5" target="_top" xlink:title="genfit::Track::deleteForwardInfo">
<polygon fill="none" stroke="#000000" points="408,-192.5 408,-212.5 585,-212.5 585,-192.5 408,-192.5"/>
<text text-anchor="middle" x="496.5" y="-199.5" font-family="FreeSans" font-size="10.00" fill="#000000">genfit::Track::deleteForwardInfo</text>
</a>
</g>
</g>
<!-- Node5&#45;&gt;Node8 -->
<g id="edge7" class="edge">
<title>Node5&#45;&gt;Node8</title>
<path fill="none" stroke="#191970" d="M348.3762,-173.5435C374.9045,-178.7294 407.4556,-185.0928 435.2804,-190.5323"/>
<polygon fill="#191970" stroke="#191970" points="434.8121,-194.0069 445.2979,-192.4906 436.1552,-187.1369 434.8121,-194.0069"/>
</g>
<!-- Node9 -->
<g id="node9" class="node">
<title>Node9</title>
<g id="a_node9"><a xlink:href="../../d6/d8a/classgenfit_1_1Track.html#aef6313a66e86853f9eef2e38f519bc37" target="_top" xlink:title="genfit::Track::deleteReferenceInfo">
<polygon fill="none" stroke="#000000" points="403,-153.5 403,-173.5 590,-173.5 590,-153.5 403,-153.5"/>
<text text-anchor="middle" x="496.5" y="-160.5" font-family="FreeSans" font-size="10.00" fill="#000000">genfit::Track::deleteReferenceInfo</text>
</a>
</g>
</g>
<!-- Node5&#45;&gt;Node9 -->
<g id="edge9" class="edge">
<title>Node5&#45;&gt;Node9</title>
<path fill="none" stroke="#191970" d="M367.0557,-163.5C375.3674,-163.5 383.9818,-163.5 392.6376,-163.5"/>
<polygon fill="#191970" stroke="#191970" points="392.8021,-167.0001 402.802,-163.5 392.802,-160.0001 392.8021,-167.0001"/>
</g>
<!-- Node10 -->
<g id="node10" class="node">
<title>Node10</title>
<g id="a_node10"><a xlink:href="../../d6/d8a/classgenfit_1_1Track.html#aebe51cd12b541bb8821c1b919480371d" target="_top" xlink:title="genfit::Track::fillPoints\lWithMeasurement">
<polygon fill="none" stroke="#000000" points="432.5,-102.5 432.5,-134.5 560.5,-134.5 560.5,-102.5 432.5,-102.5"/>
<text text-anchor="start" x="440.5" y="-121.5" font-family="FreeSans" font-size="10.00" fill="#000000">genfit::Track::fillPoints</text>
<text text-anchor="middle" x="496.5" y="-109.5" font-family="FreeSans" font-size="10.00" fill="#000000">WithMeasurement</text>
</a>
</g>
</g>
<!-- Node5&#45;&gt;Node10 -->
<g id="edge11" class="edge">
<title>Node5&#45;&gt;Node10</title>
<path fill="none" stroke="#191970" d="M341.7717,-153.4011C365.509,-148.0468 395.287,-141.33 422.3641,-135.2224"/>
<polygon fill="#191970" stroke="#191970" points="423.2167,-138.6181 432.2014,-133.0034 421.6764,-131.7897 423.2167,-138.6181"/>
</g>
<!-- Node11 -->
<g id="node11" class="node">
<title>Node11</title>
<g id="a_node11"><a xlink:href="../../db/d40/classgenfit_1_1TrackPoint.html#ada7b4d8c988a1798e455fb70929f88b7" target="_top" xlink:title="genfit::TrackPoint\l::hasRawMeasurements">
<polygon fill="none" stroke="#000000" points="428,-51.5 428,-83.5 565,-83.5 565,-51.5 428,-51.5"/>
<text text-anchor="start" x="436" y="-70.5" font-family="FreeSans" font-size="10.00" fill="#000000">genfit::TrackPoint</text>
<text text-anchor="middle" x="496.5" y="-58.5" font-family="FreeSans" font-size="10.00" fill="#000000">::hasRawMeasurements</text>
</a>
</g>
</g>
<!-- Node5&#45;&gt;Node11 -->
<g id="edge12" class="edge">
<title>Node5&#45;&gt;Node11</title>
<path fill="none" stroke="#191970" d="M309.6097,-153.2566C328.7268,-138.1879 366.6745,-110.0468 403,-93.5 408.079,-91.1865 413.409,-89.0363 418.8402,-87.046"/>
<polygon fill="#191970" stroke="#191970" points="420.388,-90.2141 428.6929,-83.6354 418.0982,-83.5992 420.388,-90.2141"/>
</g>
<!-- Node12 -->
<g id="node12" class="node">
<title>Node12</title>
<g id="a_node12"><a xlink:href="../../db/d40/classgenfit_1_1TrackPoint.html#a70f6a8e9214edad4fce38eafeeee820e" target="_top" xlink:title="genfit::TrackPoint\l::setTrack">
<polygon fill="none" stroke="#000000" points="444.5,-.5 444.5,-32.5 548.5,-32.5 548.5,-.5 444.5,-.5"/>
<text text-anchor="start" x="452.5" y="-19.5" font-family="FreeSans" font-size="10.00" fill="#000000">genfit::TrackPoint</text>
<text text-anchor="middle" x="496.5" y="-7.5" font-family="FreeSans" font-size="10.00" fill="#000000">::setTrack</text>
</a>
</g>
</g>
<!-- Node5&#45;&gt;Node12 -->
<g id="edge13" class="edge">
<title>Node5&#45;&gt;Node12</title>
<path fill="none" stroke="#191970" d="M302.9954,-153.2821C317.2348,-129.9319 355.4785,-72.3798 403,-42.5 412.5977,-36.4653 423.6097,-31.8067 434.6295,-28.2178"/>
<polygon fill="#191970" stroke="#191970" points="435.7024,-31.5501 444.2802,-25.3314 433.6966,-24.8436 435.7024,-31.5501"/>
</g>
<!-- Node6&#45;&gt;Node7 -->
<g id="edge6" class="edge">
<title>Node6&#45;&gt;Node7</title>
<path fill="none" stroke="#191970" d="M534.2768,-270.4671C551.3104,-265.9258 571.6753,-260.4722 590,-255.5 615.6134,-248.5501 644.1849,-240.6912 667.3902,-234.281"/>
<polygon fill="#191970" stroke="#191970" points="668.6067,-237.5761 677.3126,-231.5381 666.7416,-230.8291 668.6067,-237.5761"/>
</g>
<!-- Node8&#45;&gt;Node7 -->
<g id="edge8" class="edge">
<title>Node8&#45;&gt;Node7</title>
<path fill="none" stroke="#191970" d="M585.0752,-210.2554C595.1831,-211.1405 605.5299,-212.0464 615.7483,-212.9411"/>
<polygon fill="#191970" stroke="#191970" points="615.6431,-216.4452 625.9103,-213.8309 616.2537,-209.4719 615.6431,-216.4452"/>
</g>
<!-- Node9&#45;&gt;Node7 -->
<g id="edge10" class="edge">
<title>Node9&#45;&gt;Node7</title>
<path fill="none" stroke="#191970" d="M547.6436,-173.5925C561.4499,-176.5474 576.345,-179.9461 590,-183.5 618.1141,-190.817 649.3875,-200.4553 673.4297,-208.1939"/>
<polygon fill="#191970" stroke="#191970" points="672.6684,-211.6264 683.2605,-211.3818 674.8278,-204.9678 672.6684,-211.6264"/>
</g>
</g>
</svg>
